<?xml version="1.0" encoding="UTF-8" standalone="no"?>
<!DOCTYPE svg PUBLIC "-//W3C//DTD SVG 1.1//EN"
 "http://www.w3.org/Graphics/SVG/1.1/DTD/svg11.dtd">
<!-- Generated by graphviz version 14.0.2 (20251019.1705)
 -->
<!-- Title: Analytics.cpp Pages: 1 -->
<svg width="1943pt" height="252pt"
 viewBox="0.00 0.00 1943.00 252.00" xmlns="http://www.w3.org/2000/svg" xmlns:xlink="http://www.w3.org/1999/xlink">
<g id="graph0" class="graph" transform="scale(1 1) rotate(0) translate(4 248)">
<title>Analytics.cpp</title>
<!-- Node1 -->
<g id="Node000001" class="node">
<title>Node1</title>
<g id="a_Node000001"><a xlink:title=" ">
<polygon fill="#999999" stroke="#666666" points="1409.9,-244 1334.65,-244 1334.65,-224 1409.9,-224 1409.9,-244"/>
<text xml:space="preserve" text-anchor="middle" x="1372.28" y="-230.5" font-family="Helvetica,sans-Serif" font-size="10.00">Analytics.cpp</text>
</a>
</g>
</g>
<!-- Node2 -->
<g id="Node000002" class="node">
<title>Node2</title>
<g id="a_Node000002"><a xlink:href="Analytics_8h.html" target="_top" xlink:title=" ">
<polygon fill="white" stroke="#666666" points="311.53,-188 213.03,-188 213.03,-168 311.53,-168 311.53,-188"/>
<text xml:space="preserve" text-anchor="middle" x="262.28" y="-174.5" font-family="Helvetica,sans-Serif" font-size="10.00">LGE/fs/Analytics.h</text>
</a>
</g>
</g>
<!-- Node1&#45;&gt;Node2 -->
<g id="edge1_Node000001_Node000002" class="edge">
<title>Node1&#45;&gt;Node2</title>
<g id="a_edge1_Node000001_Node000002"><a xlink:title=" ">
<path fill="none" stroke="#63b8ff" d="M1334.39,-231.16C1170.95,-223.21 525.41,-191.8 323.19,-181.96"/>
<polygon fill="#63b8ff" stroke="#63b8ff" points="323.59,-178.48 313.43,-181.49 323.25,-185.47 323.59,-178.48"/>
</a>
</g>
</g>
<!-- Node3 -->
<g id="Node000003" class="node">
<title>Node3</title>
<g id="a_Node000003"><a xlink:href="AssetRegistry_8h.html" target="_top" xlink:title=" ">
<polygon fill="white" stroke="#666666" points="584.03,-132 464.53,-132 464.53,-112 584.03,-112 584.03,-132"/>
<text xml:space="preserve" text-anchor="middle" x="524.28" y="-118.5" font-family="Helvetica,sans-Serif" font-size="10.00">LGE/fs/AssetRegistry.h</text>
</a>
</g>
</g>
<!-- Node1&#45;&gt;Node3 -->
<g id="edge27_Node000001_Node000003" class="edge">
<title>Node1&#45;&gt;Node3</title>
<g id="a_edge27_Node000001_Node000003"><a xlink:title=" ">
<path fill="none" stroke="#63b8ff" d="M1334.42,-232.87C1203.87,-232.09 773.24,-226.56 641.28,-188 605.5,-177.54 568.61,-154.67 546.06,-139.04"/>
<polygon fill="#63b8ff" stroke="#63b8ff" points="548.18,-136.25 538,-133.32 544.13,-141.96 548.18,-136.25"/>
</a>
</g>
</g>
<!-- Node10 -->
<g id="Node000010" class="node">
<title>Node10</title>
<g id="a_Node000010"><a xlink:title=" ">
<polygon fill="#e0e0e0" stroke="#999999" points="372.65,-76 289.9,-76 289.9,-56 372.65,-56 372.65,-76"/>
<text xml:space="preserve" text-anchor="middle" x="331.28" y="-62.5" font-family="Helvetica,sans-Serif" font-size="10.00">unordered_map</text>
</a>
</g>
</g>
<!-- Node1&#45;&gt;Node10 -->
<g id="edge71_Node000001_Node000010" class="edge">
<title>Node1&#45;&gt;Node10</title>
<g id="a_edge71_Node000001_Node000010"><a xlink:title=" ">
<path fill="none" stroke="#63b8ff" d="M1334.21,-233C1137.56,-232.8 244.34,-229.63 204.28,-188 165.53,-147.72 247.62,-103.01 297.2,-80.92"/>
<polygon fill="#63b8ff" stroke="#63b8ff" points="298.36,-84.23 306.14,-77.03 295.57,-77.81 298.36,-84.23"/>
</a>
</g>
</g>
<!-- Node13 -->
<g id="Node000013" class="node">
<title>Node13</title>
<g id="a_Node000013"><a xlink:href="Cache_8h.html" target="_top" xlink:title=" ">
<polygon fill="white" stroke="#666666" points="736.53,-188 650.03,-188 650.03,-168 736.53,-168 736.53,-188"/>
<text xml:space="preserve" text-anchor="middle" x="693.28" y="-174.5" font-family="Helvetica,sans-Serif" font-size="10.00">LGE/fs/Cache.h</text>
</a>
</g>
</g>
<!-- Node1&#45;&gt;Node13 -->
<g id="edge28_Node000001_Node000013" class="edge">
<title>Node1&#45;&gt;Node13</title>
<g id="a_edge28_Node000001_Node000013"><a xlink:title=" ">
<path fill="none" stroke="#63b8ff" d="M1334.32,-229.98C1220.48,-220.93 881.59,-193.98 748.15,-183.36"/>
<polygon fill="#63b8ff" stroke="#63b8ff" points="748.77,-179.9 738.53,-182.6 748.22,-186.88 748.77,-179.9"/>
</a>
</g>
</g>
<!-- Node16 -->
<g id="Node000016" class="node">
<title>Node16</title>
<g id="a_Node000016"><a xlink:href="Dependencies_8h.html" target="_top" xlink:title=" ">
<polygon fill="white" stroke="#666666" points="1009.4,-188 889.15,-188 889.15,-168 1009.4,-168 1009.4,-188"/>
<text xml:space="preserve" text-anchor="middle" x="949.28" y="-174.5" font-family="Helvetica,sans-Serif" font-size="10.00">LGE/fs/Dependencies.h</text>
</a>
</g>
</g>
<!-- Node1&#45;&gt;Node16 -->
<g id="edge38_Node000001_Node000016" class="edge">
<title>Node1&#45;&gt;Node16</title>
<g id="a_edge38_Node000001_Node000016"><a xlink:title=" ">
<path fill="none" stroke="#63b8ff" d="M1334.37,-228.16C1263.87,-219.16 1111.58,-199.72 1021.07,-188.16"/>
<polygon fill="#63b8ff" stroke="#63b8ff" points="1021.67,-184.71 1011.3,-186.92 1020.78,-191.66 1021.67,-184.71"/>
</a>
</g>
</g>
<!-- Node17 -->
<g id="Node000017" class="node">
<title>Node17</title>
<g id="a_Node000017"><a xlink:href="FileIO_8h.html" target="_top" xlink:title=" ">
<polygon fill="white" stroke="#666666" points="1156.4,-76 1072.15,-76 1072.15,-56 1156.4,-56 1156.4,-76"/>
<text xml:space="preserve" text-anchor="middle" x="1114.28" y="-62.5" font-family="Helvetica,sans-Serif" font-size="10.00">LGE/fs/FileIO.h</text>
</a>
</g>
</g>
<!-- Node1&#45;&gt;Node17 -->
<g id="edge46_Node000001_Node000017" class="edge">
<title>Node1&#45;&gt;Node17</title>
<g id="a_edge46_Node000001_Node000017"><a xlink:title=" ">
<path fill="none" stroke="#63b8ff" d="M1357.67,-223.6C1315.1,-196.21 1190.85,-116.27 1138.25,-82.42"/>
<polygon fill="#63b8ff" stroke="#63b8ff" points="1140.31,-79.58 1130,-77.12 1136.52,-85.47 1140.31,-79.58"/>
</a>
</g>
</g>
<!-- Node18 -->
<g id="Node000018" class="node">
<title>Node18</title>
<g id="a_Node000018"><a xlink:href="Path_8h.html" target="_top" xlink:title=" ">
<polygon fill="white" stroke="#666666" points="1328.4,-76 1250.15,-76 1250.15,-56 1328.4,-56 1328.4,-76"/>
<text xml:space="preserve" text-anchor="middle" x="1289.28" y="-62.5" font-family="Helvetica,sans-Serif" font-size="10.00">LGE/fs/Path.h</text>
</a>
</g>
</g>
<!-- Node1&#45;&gt;Node18 -->
<g id="edge49_Node000001_Node000018" class="edge">
<title>Node1&#45;&gt;Node18</title>
<g id="a_edge49_Node000001_Node000018"><a xlink:title=" ">
<path fill="none" stroke="#63b8ff" d="M1367.65,-223.57C1357.63,-203.17 1333.16,-153.47 1312.28,-112 1308.04,-103.58 1303.31,-94.31 1299.25,-86.38"/>
<polygon fill="#63b8ff" stroke="#63b8ff" points="1302.44,-84.93 1294.76,-77.64 1296.22,-88.13 1302.44,-84.93"/>
</a>
</g>
</g>
<!-- Node19 -->
<g id="Node000019" class="node">
<title>Node19</title>
<g id="a_Node000019"><a xlink:href="Project_8h.html" target="_top" xlink:title=" ">
<polygon fill="white" stroke="#666666" points="1452.65,-188 1363.9,-188 1363.9,-168 1452.65,-168 1452.65,-188"/>
<text xml:space="preserve" text-anchor="middle" x="1408.28" y="-174.5" font-family="Helvetica,sans-Serif" font-size="10.00">LGE/fs/Project.h</text>
</a>
</g>
</g>
<!-- Node1&#45;&gt;Node19 -->
<g id="edge52_Node000001_Node000019" class="edge">
<title>Node1&#45;&gt;Node19</title>
<g id="a_edge52_Node000001_Node000019"><a xlink:title=" ">
<path fill="none" stroke="#63b8ff" d="M1378.55,-223.59C1383.3,-216.47 1389.98,-206.45 1395.8,-197.72"/>
<polygon fill="#63b8ff" stroke="#63b8ff" points="1398.61,-199.82 1401.24,-189.56 1392.78,-195.94 1398.61,-199.82"/>
</a>
</g>
</g>
<!-- Node20 -->
<g id="Node000020" class="node">
<title>Node20</title>
<g id="a_Node000020"><a xlink:title=" ">
<polygon fill="#e0e0e0" stroke="#999999" points="1521.78,-132 1460.78,-132 1460.78,-112 1521.78,-112 1521.78,-132"/>
<text xml:space="preserve" text-anchor="middle" x="1491.28" y="-118.5" font-family="Helvetica,sans-Serif" font-size="10.00">filesystem</text>
</a>
</g>
</g>
<!-- Node1&#45;&gt;Node20 -->
<g id="edge65_Node000001_Node000020" class="edge">
<title>Node1&#45;&gt;Node20</title>
<g id="a_edge65_Node000001_Node000020"><a xlink:title=" ">
<path fill="none" stroke="#63b8ff" d="M1402.26,-223.62C1421.19,-216.41 1445.05,-204.82 1461.28,-188 1473.43,-175.41 1481.29,-157.01 1485.9,-143"/>
<polygon fill="#63b8ff" stroke="#63b8ff" points="1489.22,-144.11 1488.71,-133.52 1482.51,-142.11 1489.22,-144.11"/>
</a>
</g>
</g>
<!-- Node21 -->
<g id="Node000021" class="node">
<title>Node21</title>
<g id="a_Node000021"><a xlink:href="Compression_8h.html" target="_top" xlink:title=" ">
<polygon fill="white" stroke="#666666" points="1150.15,-132 1034.4,-132 1034.4,-112 1150.15,-112 1150.15,-132"/>
<text xml:space="preserve" text-anchor="middle" x="1092.28" y="-118.5" font-family="Helvetica,sans-Serif" font-size="10.00">LGE/fs/Compression.h</text>
</a>
</g>
</g>
<!-- Node1&#45;&gt;Node21 -->
<g id="edge55_Node000001_Node000021" class="edge">
<title>Node1&#45;&gt;Node21</title>
<g id="a_edge55_Node000001_Node000021"><a xlink:title=" ">
<path fill="none" stroke="#63b8ff" d="M1348.41,-223.62C1298.71,-204.1 1183.99,-159.03 1126.47,-136.43"/>
<polygon fill="#63b8ff" stroke="#63b8ff" points="1128.09,-133.31 1117.5,-132.91 1125.53,-139.82 1128.09,-133.31"/>
</a>
</g>
</g>
<!-- Node22 -->
<g id="Node000022" class="node">
<title>Node22</title>
<g id="a_Node000022"><a xlink:href="Log_8h.html" target="_top" xlink:title=" ">
<polygon fill="white" stroke="#666666" points="1592.4,-188 1508.15,-188 1508.15,-168 1592.4,-168 1592.4,-188"/>
<text xml:space="preserve" text-anchor="middle" x="1550.28" y="-174.5" font-family="Helvetica,sans-Serif" font-size="10.00">LGE/core/Log.h</text>
</a>
</g>
</g>
<!-- Node1&#45;&gt;Node22 -->
<g id="edge62_Node000001_Node000022" class="edge">
<title>Node1&#45;&gt;Node22</title>
<g id="a_edge62_Node000001_Node000022"><a xlink:title=" ">
<path fill="none" stroke="#63b8ff" d="M1403.28,-223.59C1432.33,-214.78 1475.98,-201.54 1508.17,-191.78"/>
<polygon fill="#63b8ff" stroke="#63b8ff" points="1509.03,-195.17 1517.58,-188.92 1507,-188.47 1509.03,-195.17"/>
</a>
</g>
</g>
<!-- Node24 -->
<g id="Node000024" class="node">
<title>Node24</title>
<g id="a_Node000024"><a xlink:title=" ">
<polygon fill="#e0e0e0" stroke="#999999" points="1659.78,-188 1610.78,-188 1610.78,-168 1659.78,-168 1659.78,-188"/>
<text xml:space="preserve" text-anchor="middle" x="1635.28" y="-174.5" font-family="Helvetica,sans-Serif" font-size="10.00">fstream</text>
</a>
</g>
</g>
<!-- Node1&#45;&gt;Node24 -->
<g id="edge66_Node000001_Node000024" class="edge">
<title>Node1&#45;&gt;Node24</title>
<g id="a_edge66_Node000001_Node000024"><a xlink:title=" ">
<path fill="none" stroke="#63b8ff" d="M1410.12,-226.34C1453.44,-218.55 1526.75,-204.84 1599.28,-188.34"/>
<polygon fill="#63b8ff" stroke="#63b8ff" points="1600.01,-191.76 1608.97,-186.11 1598.44,-184.94 1600.01,-191.76"/>
</a>
</g>
</g>
<!-- Node25 -->
<g id="Node000025" class="node">
<title>Node25</title>
<g id="a_Node000025"><a xlink:title=" ">
<polygon fill="#e0e0e0" stroke="#999999" points="1728.9,-188 1677.65,-188 1677.65,-168 1728.9,-168 1728.9,-188"/>
<text xml:space="preserve" text-anchor="middle" x="1703.28" y="-174.5" font-family="Helvetica,sans-Serif" font-size="10.00">sstream</text>
</a>
</g>
</g>
<!-- Node1&#45;&gt;Node25 -->
<g id="edge67_Node000001_Node000025" class="edge">
<title>Node1&#45;&gt;Node25</title>
<g id="a_edge67_Node000001_Node000025"><a xlink:title=" ">
<path fill="none" stroke="#63b8ff" d="M1410.02,-228.61C1464.55,-221.99 1568.75,-208.25 1666.13,-188.48"/>
<polygon fill="#63b8ff" stroke="#63b8ff" points="1666.79,-191.92 1675.88,-186.48 1665.38,-185.07 1666.79,-191.92"/>
</a>
</g>
</g>
<!-- Node26 -->
<g id="Node000026" class="node">
<title>Node26</title>
<g id="a_Node000026"><a xlink:title=" ">
<polygon fill="#e0e0e0" stroke="#999999" points="1803.15,-188 1747.4,-188 1747.4,-168 1803.15,-168 1803.15,-188"/>
<text xml:space="preserve" text-anchor="middle" x="1775.28" y="-174.5" font-family="Helvetica,sans-Serif" font-size="10.00">algorithm</text>
</a>
</g>
</g>
<!-- Node1&#45;&gt;Node26 -->
<g id="edge68_Node000001_Node000026" class="edge">
<title>Node1&#45;&gt;Node26</title>
<g id="a_edge68_Node000001_Node000026"><a xlink:title=" ">
<path fill="none" stroke="#63b8ff" d="M1410.17,-229.81C1474.91,-224.03 1611.12,-210.51 1735.81,-188.26"/>
<polygon fill="#63b8ff" stroke="#63b8ff" points="1736.36,-191.72 1745.58,-186.49 1735.12,-184.83 1736.36,-191.72"/>
</a>
</g>
</g>
<!-- Node27 -->
<g id="Node000027" class="node">
<title>Node27</title>
<g id="a_Node000027"><a xlink:title=" ">
<polygon fill="#e0e0e0" stroke="#999999" points="1866.9,-188 1821.65,-188 1821.65,-168 1866.9,-168 1866.9,-188"/>
<text xml:space="preserve" text-anchor="middle" x="1844.28" y="-174.5" font-family="Helvetica,sans-Serif" font-size="10.00">chrono</text>
</a>
</g>
</g>
<!-- Node1&#45;&gt;Node27 -->
<g id="edge69_Node000001_Node000027" class="edge">
<title>Node1&#45;&gt;Node27</title>
<g id="a_edge69_Node000001_Node000027"><a xlink:title=" ">
<path fill="none" stroke="#63b8ff" d="M1410.27,-231.32C1485.09,-227.54 1656.88,-216.52 1810.31,-188.05"/>
<polygon fill="#63b8ff" stroke="#63b8ff" points="1810.66,-191.54 1819.83,-186.25 1809.36,-184.67 1810.66,-191.54"/>
</a>
</g>
</g>
<!-- Node28 -->
<g id="Node000028" class="node">
<title>Node28</title>
<g id="a_Node000028"><a xlink:title=" ">
<polygon fill="#e0e0e0" stroke="#999999" points="1935.15,-188 1885.4,-188 1885.4,-168 1935.15,-168 1935.15,-188"/>
<text xml:space="preserve" text-anchor="middle" x="1910.28" y="-174.5" font-family="Helvetica,sans-Serif" font-size="10.00">iomanip</text>
</a>
</g>
</g>
<!-- Node1&#45;&gt;Node28 -->
<g id="edge70_Node000001_Node000028" class="edge">
<title>Node1&#45;&gt;Node28</title>
<g id="a_edge70_Node000001_Node000028"><a xlink:title=" ">
<path fill="none" stroke="#63b8ff" d="M1410.19,-231.81C1492.8,-228.75 1695.35,-218.71 1873.95,-188.11"/>
<polygon fill="#63b8ff" stroke="#63b8ff" points="1874.39,-191.59 1883.64,-186.42 1873.19,-184.69 1874.39,-191.59"/>
</a>
</g>
</g>
<!-- Node2&#45;&gt;Node3 -->
<g id="edge2_Node000002_Node000003" class="edge">
<title>Node2&#45;&gt;Node3</title>
<g id="a_edge2_Node000002_Node000003"><a xlink:title=" ">
<path fill="none" stroke="#63b8ff" d="M308.22,-167.53C352.51,-158.4 419.66,-144.56 467.33,-134.74"/>
<polygon fill="#63b8ff" stroke="#63b8ff" points="467.83,-138.21 476.91,-132.76 466.41,-131.35 467.83,-138.21"/>
</a>
</g>
</g>
<!-- Node5 -->
<g id="Node000005" class="node">
<title>Node5</title>
<g id="a_Node000005"><a xlink:title=" ">
<polygon fill="#e0e0e0" stroke="#999999" points="1242.28,-20 1202.28,-20 1202.28,0 1242.28,0 1242.28,-20"/>
<text xml:space="preserve" text-anchor="middle" x="1222.28" y="-6.5" font-family="Helvetica,sans-Serif" font-size="10.00">string</text>
</a>
</g>
</g>
<!-- Node2&#45;&gt;Node5 -->
<g id="edge21_Node000002_Node000005" class="edge">
<title>Node2&#45;&gt;Node5</title>
<g id="a_edge21_Node000002_Node000005"><a xlink:title=" ">
<path fill="none" stroke="#63b8ff" d="M311.75,-175.86C494.57,-171.48 1123.28,-154.8 1159.28,-132 1195.01,-109.37 1211.55,-59.44 1218.28,-31.3"/>
<polygon fill="#63b8ff" stroke="#63b8ff" points="1221.63,-32.4 1220.34,-21.88 1214.79,-30.9 1221.63,-32.4"/>
</a>
</g>
</g>
<!-- Node6 -->
<g id="Node000006" class="node">
<title>Node6</title>
<g id="a_Node000006"><a xlink:title=" ">
<polygon fill="#e0e0e0" stroke="#999999" points="1020.03,-20 954.53,-20 954.53,0 1020.03,0 1020.03,-20"/>
<text xml:space="preserve" text-anchor="middle" x="987.28" y="-6.5" font-family="Helvetica,sans-Serif" font-size="10.00">string_view</text>
</a>
</g>
</g>
<!-- Node2&#45;&gt;Node6 -->
<g id="edge22_Node000002_Node000006" class="edge">
<title>Node2&#45;&gt;Node6</title>
<g id="a_edge22_Node000002_Node000006"><a xlink:title=" ">
<path fill="none" stroke="#63b8ff" d="M311.97,-175.62C377.78,-172.58 496.76,-162.9 593.28,-132 611.46,-126.18 613.56,-119.09 631.28,-112 635,-110.51 848.89,-50.07 943.31,-23.41"/>
<polygon fill="#63b8ff" stroke="#63b8ff" points="944.08,-26.83 952.75,-20.75 942.17,-20.1 944.08,-26.83"/>
</a>
</g>
</g>
<!-- Node7 -->
<g id="Node000007" class="node">
<title>Node7</title>
<g id="a_Node000007"><a xlink:title=" ">
<polygon fill="#e0e0e0" stroke="#999999" points="459.78,-20 416.78,-20 416.78,0 459.78,0 459.78,-20"/>
<text xml:space="preserve" text-anchor="middle" x="438.28" y="-6.5" font-family="Helvetica,sans-Serif" font-size="10.00">vector</text>
</a>
</g>
</g>
<!-- Node2&#45;&gt;Node7 -->
<g id="edge23_Node000002_Node000007" class="edge">
<title>Node2&#45;&gt;Node7</title>
<g id="a_edge23_Node000002_Node000007"><a xlink:title=" ">
<path fill="none" stroke="#63b8ff" d="M244.98,-167.51C232.77,-159.75 217.38,-147.53 210.28,-132 196.24,-101.28 188.83,-82.09 210.28,-56 234.56,-26.46 347.85,-16 405.05,-12.55"/>
<polygon fill="#63b8ff" stroke="#63b8ff" points="405.05,-16.06 414.84,-12 404.66,-9.07 405.05,-16.06"/>
</a>
</g>
</g>
<!-- Node8 -->
<g id="Node000008" class="node">
<title>Node8</title>
<g id="a_Node000008"><a xlink:title=" ">
<polygon fill="#e0e0e0" stroke="#999999" points="766.15,-20 716.4,-20 716.4,0 766.15,0 766.15,-20"/>
<text xml:space="preserve" text-anchor="middle" x="741.28" y="-6.5" font-family="Helvetica,sans-Serif" font-size="10.00">optional</text>
</a>
</g>
</g>
<!-- Node2&#45;&gt;Node8 -->
<g id="edge25_Node000002_Node000008" class="edge">
<title>Node2&#45;&gt;Node8</title>
<g id="a_edge25_Node000002_Node000008"><a xlink:title=" ">
<path fill="none" stroke="#63b8ff" d="M260.41,-167.74C256.4,-144.93 249.73,-85.77 281.28,-56 311.88,-27.13 601,-15.36 704.58,-12.05"/>
<polygon fill="#63b8ff" stroke="#63b8ff" points="704.59,-15.55 714.47,-11.74 704.37,-8.56 704.59,-15.55"/>
</a>
</g>
</g>
<!-- Node9 -->
<g id="Node000009" class="node">
<title>Node9</title>
<g id="a_Node000009"><a xlink:title=" ">
<polygon fill="#e0e0e0" stroke="#999999" points="299.9,-20 254.65,-20 254.65,0 299.9,0 299.9,-20"/>
<text xml:space="preserve" text-anchor="middle" x="277.28" y="-6.5" font-family="Helvetica,sans-Serif" font-size="10.00">cstdint</text>
</a>
</g>
</g>
<!-- Node2&#45;&gt;Node9 -->
<g id="edge26_Node000002_Node000009" class="edge">
<title>Node2&#45;&gt;Node9</title>
<g id="a_edge26_Node000002_Node000009"><a xlink:title=" ">
<path fill="none" stroke="#63b8ff" d="M212.67,-175.18C148.15,-171.64 40.78,-161.39 16.28,-132 -5.35,-106.06 -5.48,-81.83 16.28,-56 44.87,-22.05 178.77,-13.72 242.89,-11.67"/>
<polygon fill="#63b8ff" stroke="#63b8ff" points="242.96,-15.17 252.86,-11.39 242.76,-8.17 242.96,-15.17"/>
</a>
</g>
</g>
<!-- Node2&#45;&gt;Node10 -->
<g id="edge24_Node000002_Node000010" class="edge">
<title>Node2&#45;&gt;Node10</title>
<g id="a_edge24_Node000002_Node000010"><a xlink:title=" ">
<path fill="none" stroke="#63b8ff" d="M268.16,-167.62C279.47,-149.6 304.42,-109.81 319.35,-86.02"/>
<polygon fill="#63b8ff" stroke="#63b8ff" points="322.26,-87.97 324.61,-77.64 316.33,-84.25 322.26,-87.97"/>
</a>
</g>
</g>
<!-- Node12 -->
<g id="Node000012" class="node">
<title>Node12</title>
<g id="a_Node000012"><a xlink:href="EditorBus_8h.html" target="_top" xlink:title=" ">
<polygon fill="white" stroke="#666666" points="158.65,-76 57.9,-76 57.9,-56 158.65,-56 158.65,-76"/>
<text xml:space="preserve" text-anchor="middle" x="108.28" y="-62.5" font-family="Helvetica,sans-Serif" font-size="10.00">LGE/fs/EditorBus.h</text>
</a>
</g>
</g>
<!-- Node2&#45;&gt;Node12 -->
<g id="edge16_Node000002_Node000012" class="edge">
<title>Node2&#45;&gt;Node12</title>
<g id="a_edge16_Node000002_Node000012"><a xlink:title=" ">
<path fill="none" stroke="#63b8ff" d="M238.14,-167.52C219.28,-159.52 192.91,-146.99 172.28,-132 153.54,-118.38 135.33,-99.11 123.15,-85.09"/>
<polygon fill="#63b8ff" stroke="#63b8ff" points="125.87,-82.88 116.73,-77.51 120.52,-87.4 125.87,-82.88"/>
</a>
</g>
</g>
<!-- Node4 -->
<g id="Node000004" class="node">
<title>Node4</title>
<g id="a_Node000004"><a xlink:href="MetaDB_8h.html" target="_top" xlink:title=" ">
<polygon fill="white" stroke="#666666" points="712.28,-76 618.28,-76 618.28,-56 712.28,-56 712.28,-76"/>
<text xml:space="preserve" text-anchor="middle" x="665.28" y="-62.5" font-family="Helvetica,sans-Serif" font-size="10.00">LGE/fs/MetaDB.h</text>
</a>
</g>
</g>
<!-- Node3&#45;&gt;Node4 -->
<g id="edge3_Node000003_Node000004" class="edge">
<title>Node3&#45;&gt;Node4</title>
<g id="a_edge3_Node000003_Node000004"><a xlink:title=" ">
<path fill="none" stroke="#63b8ff" d="M548.84,-111.59C571.25,-103.01 604.62,-90.23 629.9,-80.55"/>
<polygon fill="#63b8ff" stroke="#63b8ff" points="631.03,-83.87 639.11,-77.02 628.52,-77.33 631.03,-83.87"/>
</a>
</g>
</g>
<!-- Node3&#45;&gt;Node5 -->
<g id="edge9_Node000003_Node000005" class="edge">
<title>Node3&#45;&gt;Node5</title>
<g id="a_edge9_Node000003_Node000005"><a xlink:title=" ">
<path fill="none" stroke="#63b8ff" d="M584.39,-111.53C727.19,-89.02 1082.85,-32.97 1190.75,-15.97"/>
<polygon fill="#63b8ff" stroke="#63b8ff" points="1190.99,-19.47 1200.32,-14.46 1189.9,-12.56 1190.99,-19.47"/>
</a>
</g>
</g>
<!-- Node3&#45;&gt;Node6 -->
<g id="edge10_Node000003_Node000006" class="edge">
<title>Node3&#45;&gt;Node6</title>
<g id="a_edge10_Node000003_Node000006"><a xlink:title=" ">
<path fill="none" stroke="#63b8ff" d="M579.92,-111.54C619.86,-103.97 674.65,-91.97 721.28,-76 741.22,-69.17 744.25,-62.57 764.28,-56 824.69,-36.17 897.31,-23.48 942.89,-16.8"/>
<polygon fill="#63b8ff" stroke="#63b8ff" points="943.25,-20.28 952.66,-15.4 942.26,-13.35 943.25,-20.28"/>
</a>
</g>
</g>
<!-- Node3&#45;&gt;Node7 -->
<g id="edge11_Node000003_Node000007" class="edge">
<title>Node3&#45;&gt;Node7</title>
<g id="a_edge11_Node000003_Node000007"><a xlink:title=" ">
<path fill="none" stroke="#63b8ff" d="M505.99,-111.63C492.27,-103.77 473.93,-91.37 462.28,-76 452.27,-62.79 446.08,-44.96 442.5,-31.32"/>
<polygon fill="#63b8ff" stroke="#63b8ff" points="445.94,-30.64 440.26,-21.7 439.12,-32.23 445.94,-30.64"/>
</a>
</g>
</g>
<!-- Node3&#45;&gt;Node8 -->
<g id="edge13_Node000003_Node000008" class="edge">
<title>Node3&#45;&gt;Node8</title>
<g id="a_edge13_Node000003_Node000008"><a xlink:title=" ">
<path fill="none" stroke="#63b8ff" d="M534.26,-111.61C549.41,-97.78 579.62,-71.85 609.28,-56 639.92,-39.63 677.69,-27.47 704.96,-19.95"/>
<polygon fill="#63b8ff" stroke="#63b8ff" points="705.74,-23.36 714.5,-17.4 703.93,-16.6 705.74,-23.36"/>
</a>
</g>
</g>
<!-- Node3&#45;&gt;Node9 -->
<g id="edge15_Node000003_Node000009" class="edge">
<title>Node3&#45;&gt;Node9</title>
<g id="a_edge15_Node000003_Node000009"><a xlink:title=" ">
<path fill="none" stroke="#63b8ff" d="M503.97,-111.63C476.29,-98.89 425.15,-75.46 381.28,-56 357.35,-45.38 330.19,-33.64 309.63,-24.82"/>
<polygon fill="#63b8ff" stroke="#63b8ff" points="311.2,-21.68 300.63,-20.96 308.45,-28.12 311.2,-21.68"/>
</a>
</g>
</g>
<!-- Node3&#45;&gt;Node10 -->
<g id="edge12_Node000003_Node000010" class="edge">
<title>Node3&#45;&gt;Node10</title>
<g id="a_edge12_Node000003_Node000010"><a xlink:title=" ">
<path fill="none" stroke="#63b8ff" d="M490.66,-111.59C458.89,-102.71 411.02,-89.31 376.03,-79.52"/>
<polygon fill="#63b8ff" stroke="#63b8ff" points="377.19,-76.21 366.62,-76.89 375.3,-82.95 377.19,-76.21"/>
</a>
</g>
</g>
<!-- Node11 -->
<g id="Node000011" class="node">
<title>Node11</title>
<g id="a_Node000011"><a xlink:title=" ">
<polygon fill="#e0e0e0" stroke="#999999" points="79.28,-20 21.28,-20 21.28,0 79.28,0 79.28,-20"/>
<text xml:space="preserve" text-anchor="middle" x="50.28" y="-6.5" font-family="Helvetica,sans-Serif" font-size="10.00">functional</text>
</a>
</g>
</g>
<!-- Node3&#45;&gt;Node11 -->
<g id="edge14_Node000003_Node000011" class="edge">
<title>Node3&#45;&gt;Node11</title>
<g id="a_edge14_Node000003_Node000011"><a xlink:title=" ">
<path fill="none" stroke="#63b8ff" d="M464.13,-119.73C342.54,-116.53 76.7,-106.14 49.28,-76 38.48,-64.13 39.99,-45.39 43.46,-31.08"/>
<polygon fill="#63b8ff" stroke="#63b8ff" points="46.73,-32.38 46.19,-21.8 40.01,-30.41 46.73,-32.38"/>
</a>
</g>
</g>
<!-- Node4&#45;&gt;Node5 -->
<g id="edge4_Node000004_Node000005" class="edge">
<title>Node4&#45;&gt;Node5</title>
<g id="a_edge4_Node000004_Node000005"><a xlink:title=" ">
<path fill="none" stroke="#63b8ff" d="M712.77,-60.4C823.68,-49.64 1097.37,-23.11 1190.59,-14.07"/>
<polygon fill="#63b8ff" stroke="#63b8ff" points="1190.9,-17.56 1200.52,-13.11 1190.23,-10.59 1190.9,-17.56"/>
</a>
</g>
</g>
<!-- Node4&#45;&gt;Node6 -->
<g id="edge5_Node000004_Node000006" class="edge">
<title>Node4&#45;&gt;Node6</title>
<g id="a_edge5_Node000004_Node000006"><a xlink:title=" ">
<path fill="none" stroke="#63b8ff" d="M712.45,-57.09C774.48,-46.69 882.67,-28.54 943.15,-18.4"/>
<polygon fill="#63b8ff" stroke="#63b8ff" points="943.45,-21.9 952.73,-16.79 942.29,-15 943.45,-21.9"/>
</a>
</g>
</g>
<!-- Node4&#45;&gt;Node7 -->
<g id="edge6_Node000004_Node000007" class="edge">
<title>Node4&#45;&gt;Node7</title>
<g id="a_edge6_Node000004_Node000007"><a xlink:title=" ">
<path fill="none" stroke="#63b8ff" d="M625.48,-55.53C581.64,-45.1 511.96,-28.53 471.11,-18.81"/>
<polygon fill="#63b8ff" stroke="#63b8ff" points="472.17,-15.46 461.63,-16.56 470.55,-22.27 472.17,-15.46"/>
</a>
</g>
</g>
<!-- Node4&#45;&gt;Node8 -->
<g id="edge7_Node000004_Node000008" class="edge">
<title>Node4&#45;&gt;Node8</title>
<g id="a_edge7_Node000004_Node000008"><a xlink:title=" ">
<path fill="none" stroke="#63b8ff" d="M678.52,-55.59C689.57,-47.74 705.56,-36.38 718.64,-27.09"/>
<polygon fill="#63b8ff" stroke="#63b8ff" points="720.58,-30 726.7,-21.36 716.53,-24.3 720.58,-30"/>
</a>
</g>
</g>
<!-- Node4&#45;&gt;Node9 -->
<g id="edge8_Node000004_Node000009" class="edge">
<title>Node4&#45;&gt;Node9</title>
<g id="a_edge8_Node000004_Node000009"><a xlink:title=" ">
<path fill="none" stroke="#63b8ff" d="M618.09,-58.43C538.86,-47.41 380.96,-25.43 311.46,-15.76"/>
<polygon fill="#63b8ff" stroke="#63b8ff" points="312.2,-12.33 301.82,-14.41 311.24,-19.26 312.2,-12.33"/>
</a>
</g>
</g>
<!-- Node12&#45;&gt;Node5 -->
<g id="edge17_Node000012_Node000005" class="edge">
<title>Node12&#45;&gt;Node5</title>
<g id="a_edge17_Node000012_Node000005"><a xlink:title=" ">
<path fill="none" stroke="#63b8ff" d="M159,-62.31C193.48,-60.49 240.13,-58.05 281.28,-56 464.41,-46.86 1048.59,-19.21 1190.83,-12.49"/>
<polygon fill="#63b8ff" stroke="#63b8ff" points="1190.79,-15.99 1200.61,-12.02 1190.46,-9 1190.79,-15.99"/>
</a>
</g>
</g>
<!-- Node12&#45;&gt;Node7 -->
<g id="edge19_Node000012_Node000007" class="edge">
<title>Node12&#45;&gt;Node7</title>
<g id="a_edge19_Node000012_Node000007"><a xlink:title=" ">
<path fill="none" stroke="#63b8ff" d="M159.12,-56.68C227.62,-45.47 347.62,-25.84 405.38,-16.38"/>
<polygon fill="#63b8ff" stroke="#63b8ff" points="405.6,-19.89 414.9,-14.83 404.47,-12.99 405.6,-19.89"/>
</a>
</g>
</g>
<!-- Node12&#45;&gt;Node9 -->
<g id="edge20_Node000012_Node000009" class="edge">
<title>Node12&#45;&gt;Node9</title>
<g id="a_edge20_Node000012_Node000009"><a xlink:title=" ">
<path fill="none" stroke="#63b8ff" d="M137.72,-55.59C167.28,-46.15 212.77,-31.61 243.72,-21.72"/>
<polygon fill="#63b8ff" stroke="#63b8ff" points="244.5,-25.15 252.96,-18.77 242.37,-18.48 244.5,-25.15"/>
</a>
</g>
</g>
<!-- Node12&#45;&gt;Node11 -->
<g id="edge18_Node000012_Node000011" class="edge">
<title>Node12&#45;&gt;Node11</title>
<g id="a_edge18_Node000012_Node000011"><a xlink:title=" ">
<path fill="none" stroke="#63b8ff" d="M98.18,-55.59C90.03,-48.01 78.35,-37.13 68.56,-28.02"/>
<polygon fill="#63b8ff" stroke="#63b8ff" points="71.08,-25.58 61.37,-21.33 66.31,-30.71 71.08,-25.58"/>
</a>
</g>
</g>
<!-- Node13&#45;&gt;Node3 -->
<g id="edge29_Node000013_Node000003" class="edge">
<title>Node13&#45;&gt;Node3</title>
<g id="a_edge29_Node000013_Node000003"><a xlink:title=" ">
<path fill="none" stroke="#63b8ff" d="M663.84,-167.59C636.38,-158.82 595.19,-145.66 564.66,-135.9"/>
<polygon fill="#63b8ff" stroke="#63b8ff" points="565.98,-132.65 555.39,-132.94 563.85,-139.32 565.98,-132.65"/>
</a>
</g>
</g>
<!-- Node13&#45;&gt;Node5 -->
<g id="edge30_Node000013_Node000005" class="edge">
<title>Node13&#45;&gt;Node5</title>
<g id="a_edge30_Node000013_Node000005"><a xlink:title=" ">
<path fill="none" stroke="#63b8ff" d="M736.68,-174.46C856.99,-167.26 1188.98,-146.34 1236.28,-132 1239.35,-131.07 1335.65,-78.76 1337.28,-76 1357.94,-40.93 1294.68,-23.24 1253.93,-15.7"/>
<polygon fill="#63b8ff" stroke="#63b8ff" points="1254.56,-12.25 1244.11,-14.01 1253.38,-19.15 1254.56,-12.25"/>
</a>
</g>
</g>
<!-- Node13&#45;&gt;Node6 -->
<g id="edge31_Node000013_Node000006" class="edge">
<title>Node13&#45;&gt;Node6</title>
<g id="a_edge31_Node000013_Node000006"><a xlink:title=" ">
<path fill="none" stroke="#63b8ff" d="M703.89,-167.6C719.32,-154.22 749.2,-129.35 777.28,-112 836.36,-75.5 910.63,-42.54 953.16,-24.78"/>
<polygon fill="#63b8ff" stroke="#63b8ff" points="954.46,-28.03 962.36,-20.97 951.79,-21.56 954.46,-28.03"/>
</a>
</g>
</g>
<!-- Node13&#45;&gt;Node7 -->
<g id="edge32_Node000013_Node000007" class="edge">
<title>Node13&#45;&gt;Node7</title>
<g id="a_edge32_Node000013_Node000007"><a xlink:title=" ">
<path fill="none" stroke="#63b8ff" d="M649.59,-173.6C551.94,-164.91 321.38,-138.1 281.28,-76 251.09,-29.24 350.66,-16.1 405.14,-12.42"/>
<polygon fill="#63b8ff" stroke="#63b8ff" points="405.04,-15.93 414.82,-11.84 404.63,-8.94 405.04,-15.93"/>
</a>
</g>
</g>
<!-- Node13&#45;&gt;Node8 -->
<g id="edge35_Node000013_Node000008" class="edge">
<title>Node13&#45;&gt;Node8</title>
<g id="a_edge35_Node000013_Node000008"><a xlink:title=" ">
<path fill="none" stroke="#63b8ff" d="M696,-167.6C703.56,-141.46 724.95,-67.48 735.39,-31.36"/>
<polygon fill="#63b8ff" stroke="#63b8ff" points="738.76,-32.33 738.17,-21.75 732.03,-30.39 738.76,-32.33"/>
</a>
</g>
</g>
<!-- Node13&#45;&gt;Node9 -->
<g id="edge36_Node000013_Node000009" class="edge">
<title>Node13&#45;&gt;Node9</title>
<g id="a_edge36_Node000013_Node000009"><a xlink:title=" ">
<path fill="none" stroke="#63b8ff" d="M649.96,-177.29C518.04,-177.14 125.55,-168.78 49.28,-76 43.63,-69.13 43.64,-62.87 49.28,-56 73.38,-26.68 185.18,-16.15 242.77,-12.63"/>
<polygon fill="#63b8ff" stroke="#63b8ff" points="242.89,-16.13 252.68,-12.07 242.49,-9.14 242.89,-16.13"/>
</a>
</g>
</g>
<!-- Node13&#45;&gt;Node10 -->
<g id="edge33_Node000013_Node000010" class="edge">
<title>Node13&#45;&gt;Node10</title>
<g id="a_edge33_Node000013_Node000010"><a xlink:title=" ">
<path fill="none" stroke="#63b8ff" d="M649.72,-172.68C601.22,-166.98 521.01,-154.87 455.28,-132 418.68,-119.27 379.58,-97.19 355.29,-82.34"/>
<polygon fill="#63b8ff" stroke="#63b8ff" points="357.16,-79.38 346.82,-77.08 353.46,-85.33 357.16,-79.38"/>
</a>
</g>
</g>
<!-- Node14 -->
<g id="Node000014" class="node">
<title>Node14</title>
<g id="a_Node000014"><a xlink:title=" ">
<polygon fill="#e0e0e0" stroke="#999999" points="864.03,-132 786.53,-132 786.53,-112 864.03,-112 864.03,-132"/>
<text xml:space="preserve" text-anchor="middle" x="825.28" y="-118.5" font-family="Helvetica,sans-Serif" font-size="10.00">unordered_set</text>
</a>
</g>
</g>
<!-- Node13&#45;&gt;Node14 -->
<g id="edge34_Node000013_Node000014" class="edge">
<title>Node13&#45;&gt;Node14</title>
<g id="a_edge34_Node000013_Node000014"><a xlink:title=" ">
<path fill="none" stroke="#63b8ff" d="M716.27,-167.59C737.06,-159.09 767.93,-146.46 791.52,-136.81"/>
<polygon fill="#63b8ff" stroke="#63b8ff" points="792.78,-140.08 800.71,-133.05 790.13,-133.6 792.78,-140.08"/>
</a>
</g>
</g>
<!-- Node15 -->
<g id="Node000015" class="node">
<title>Node15</title>
<g id="a_Node000015"><a xlink:title=" ">
<polygon fill="#e0e0e0" stroke="#999999" points="691.9,-132 640.65,-132 640.65,-112 691.9,-112 691.9,-132"/>
<text xml:space="preserve" text-anchor="middle" x="666.28" y="-118.5" font-family="Helvetica,sans-Serif" font-size="10.00">memory</text>
</a>
</g>
</g>
<!-- Node13&#45;&gt;Node15 -->
<g id="edge37_Node000013_Node000015" class="edge">
<title>Node13&#45;&gt;Node15</title>
<g id="a_edge37_Node000013_Node000015"><a xlink:title=" ">
<path fill="none" stroke="#63b8ff" d="M688.58,-167.59C685.13,-160.7 680.33,-151.1 676.07,-142.57"/>
<polygon fill="#63b8ff" stroke="#63b8ff" points="679.21,-141.03 671.61,-133.65 672.95,-144.16 679.21,-141.03"/>
</a>
</g>
</g>
<!-- Node16&#45;&gt;Node3 -->
<g id="edge39_Node000016_Node000003" class="edge">
<title>Node16&#45;&gt;Node3</title>
<g id="a_edge39_Node000016_Node000003"><a xlink:title=" ">
<path fill="none" stroke="#63b8ff" d="M888.84,-169.32C811.58,-159.5 677.99,-142.53 595.76,-132.08"/>
<polygon fill="#63b8ff" stroke="#63b8ff" points="596.37,-128.63 586.01,-130.84 595.49,-135.58 596.37,-128.63"/>
</a>
</g>
</g>
<!-- Node16&#45;&gt;Node5 -->
<g id="edge40_Node000016_Node000005" class="edge">
<title>Node16&#45;&gt;Node5</title>
<g id="a_edge40_Node000016_Node000005"><a xlink:title=" ">
<path fill="none" stroke="#63b8ff" d="M1009.61,-175.62C1076.12,-172.52 1185.45,-162.71 1274.28,-132 1320.96,-115.86 1345.68,-118.83 1370.28,-76 1396.48,-30.38 1304.94,-16.72 1254.05,-12.67"/>
<polygon fill="#63b8ff" stroke="#63b8ff" points="1254.41,-9.19 1244.19,-11.98 1253.92,-16.17 1254.41,-9.19"/>
</a>
</g>
</g>
<!-- Node16&#45;&gt;Node6 -->
<g id="edge41_Node000016_Node000006" class="edge">
<title>Node16&#45;&gt;Node6</title>
<g id="a_edge41_Node000016_Node000006"><a xlink:title=" ">
<path fill="none" stroke="#63b8ff" d="M958.78,-167.63C966.69,-159.16 977.41,-145.9 982.28,-132 994.06,-98.38 992.44,-56.25 989.99,-31.61"/>
<polygon fill="#63b8ff" stroke="#63b8ff" points="993.5,-31.49 988.88,-21.96 986.55,-32.29 993.5,-31.49"/>
</a>
</g>
</g>
<!-- Node16&#45;&gt;Node7 -->
<g id="edge42_Node000016_Node000007" class="edge">
<title>Node16&#45;&gt;Node7</title>
<g id="a_edge42_Node000016_Node000007"><a xlink:title=" ">
<path fill="none" stroke="#63b8ff" d="M945.63,-167.5C939.41,-152.78 925.26,-124.8 903.28,-112 764.32,-31.09 695.56,-127.65 543.28,-76 511,-65.05 478.32,-42.63 458.18,-27.21"/>
<polygon fill="#63b8ff" stroke="#63b8ff" points="460.58,-24.64 450.55,-21.22 456.25,-30.15 460.58,-24.64"/>
</a>
</g>
</g>
<!-- Node16&#45;&gt;Node8 -->
<g id="edge45_Node000016_Node000008" class="edge">
<title>Node16&#45;&gt;Node8</title>
<g id="a_edge45_Node000016_Node000008"><a xlink:title=" ">
<path fill="none" stroke="#63b8ff" d="M951.23,-167.68C953.51,-154.17 955.66,-128.89 944.28,-112 924.21,-82.21 829.57,-43.56 776.89,-23.82"/>
<polygon fill="#63b8ff" stroke="#63b8ff" points="778.34,-20.63 767.75,-20.44 775.91,-27.19 778.34,-20.63"/>
</a>
</g>
</g>
<!-- Node16&#45;&gt;Node10 -->
<g id="edge44_Node000016_Node000010" class="edge">
<title>Node16&#45;&gt;Node10</title>
<g id="a_edge44_Node000016_Node000010"><a xlink:title=" ">
<path fill="none" stroke="#63b8ff" d="M942.03,-167.87C929.7,-153.11 903.08,-124.43 873.28,-112 862.06,-107.32 517.95,-81.03 383.95,-70.94"/>
<polygon fill="#63b8ff" stroke="#63b8ff" points="384.53,-67.48 374.3,-70.22 384,-74.46 384.53,-67.48"/>
</a>
</g>
</g>
<!-- Node16&#45;&gt;Node14 -->
<g id="edge43_Node000016_Node000014" class="edge">
<title>Node16&#45;&gt;Node14</title>
<g id="a_edge43_Node000016_Node000014"><a xlink:title=" ">
<path fill="none" stroke="#63b8ff" d="M927.68,-167.59C908.33,-159.17 879.68,-146.69 857.6,-137.07"/>
<polygon fill="#63b8ff" stroke="#63b8ff" points="859,-133.87 848.43,-133.08 856.21,-140.29 859,-133.87"/>
</a>
</g>
</g>
<!-- Node17&#45;&gt;Node5 -->
<g id="edge47_Node000017_Node000005" class="edge">
<title>Node17&#45;&gt;Node5</title>
<g id="a_edge47_Node000017_Node000005"><a xlink:title=" ">
<path fill="none" stroke="#63b8ff" d="M1133.09,-55.59C1149.64,-47.32 1173.99,-35.14 1193.07,-25.6"/>
<polygon fill="#63b8ff" stroke="#63b8ff" points="1194.59,-28.76 1201.97,-21.16 1191.46,-22.5 1194.59,-28.76"/>
</a>
</g>
</g>
<!-- Node17&#45;&gt;Node6 -->
<g id="edge48_Node000017_Node000006" class="edge">
<title>Node17&#45;&gt;Node6</title>
<g id="a_edge48_Node000017_Node000006"><a xlink:title=" ">
<path fill="none" stroke="#63b8ff" d="M1092.16,-55.59C1072.25,-47.13 1042.73,-34.58 1020.07,-24.94"/>
<polygon fill="#63b8ff" stroke="#63b8ff" points="1021.54,-21.76 1010.97,-21.07 1018.8,-28.21 1021.54,-21.76"/>
</a>
</g>
</g>
<!-- Node18&#45;&gt;Node5 -->
<g id="edge50_Node000018_Node000005" class="edge">
<title>Node18&#45;&gt;Node5</title>
<g id="a_edge50_Node000018_Node000005"><a xlink:title=" ">
<path fill="none" stroke="#63b8ff" d="M1277.61,-55.59C1268,-47.85 1254.15,-36.69 1242.71,-27.47"/>
<polygon fill="#63b8ff" stroke="#63b8ff" points="1244.98,-24.8 1234.99,-21.25 1240.58,-30.25 1244.98,-24.8"/>
</a>
</g>
</g>
<!-- Node18&#45;&gt;Node6 -->
<g id="edge51_Node000018_Node000006" class="edge">
<title>Node18&#45;&gt;Node6</title>
<g id="a_edge51_Node000018_Node000006"><a xlink:title=" ">
<path fill="none" stroke="#63b8ff" d="M1249.8,-57.94C1193.44,-47.86 1090.25,-29.41 1031.43,-18.89"/>
<polygon fill="#63b8ff" stroke="#63b8ff" points="1032.23,-15.48 1021.77,-17.17 1031,-22.37 1032.23,-15.48"/>
</a>
</g>
</g>
<!-- Node19&#45;&gt;Node5 -->
<g id="edge53_Node000019_Node000005" class="edge">
<title>Node19&#45;&gt;Node5</title>
<g id="a_edge53_Node000019_Node000005"><a xlink:title=" ">
<path fill="none" stroke="#63b8ff" d="M1411.78,-167.57C1419.35,-145.41 1434.52,-89.35 1408.28,-56 1389.39,-31.99 1301.64,-19.25 1253.72,-13.98"/>
<polygon fill="#63b8ff" stroke="#63b8ff" points="1254.28,-10.52 1243.97,-12.96 1253.55,-17.48 1254.28,-10.52"/>
</a>
</g>
</g>
<!-- Node19&#45;&gt;Node20 -->
<g id="edge54_Node000019_Node000020" class="edge">
<title>Node19&#45;&gt;Node20</title>
<g id="a_edge54_Node000019_Node000020"><a xlink:title=" ">
<path fill="none" stroke="#63b8ff" d="M1422.74,-167.59C1435.04,-159.59 1452.96,-147.93 1467.39,-138.54"/>
<polygon fill="#63b8ff" stroke="#63b8ff" points="1468.97,-141.69 1475.44,-133.3 1465.15,-135.82 1468.97,-141.69"/>
</a>
</g>
</g>
<!-- Node21&#45;&gt;Node5 -->
<g id="edge57_Node000021_Node000005" class="edge">
<title>Node21&#45;&gt;Node5</title>
<g id="a_edge57_Node000021_Node000005"><a xlink:title=" ">
<path fill="none" stroke="#63b8ff" d="M1110.69,-111.66C1126.09,-103.39 1148.22,-90.41 1165.28,-76 1181.88,-61.97 1197.95,-43.01 1208.76,-29.19"/>
<polygon fill="#63b8ff" stroke="#63b8ff" points="1211.44,-31.45 1214.73,-21.38 1205.88,-27.2 1211.44,-31.45"/>
</a>
</g>
</g>
<!-- Node21&#45;&gt;Node6 -->
<g id="edge58_Node000021_Node000006" class="edge">
<title>Node21&#45;&gt;Node6</title>
<g id="a_edge58_Node000021_Node000006"><a xlink:title=" ">
<path fill="none" stroke="#63b8ff" d="M1083.33,-111.62C1065.74,-93.19 1026.42,-52.01 1003.93,-28.44"/>
<polygon fill="#63b8ff" stroke="#63b8ff" points="1006.69,-26.27 997.25,-21.45 1001.63,-31.1 1006.69,-26.27"/>
</a>
</g>
</g>
<!-- Node21&#45;&gt;Node7 -->
<g id="edge59_Node000021_Node000007" class="edge">
<title>Node21&#45;&gt;Node7</title>
<g id="a_edge59_Node000021_Node000007"><a xlink:title=" ">
<path fill="none" stroke="#63b8ff" d="M1034.16,-117.56C923.98,-110.71 688.65,-94.42 609.28,-76 557.91,-64.08 501.25,-40.28 467.76,-25.02"/>
<polygon fill="#63b8ff" stroke="#63b8ff" points="469.66,-22.05 459.12,-21.03 466.73,-28.4 469.66,-22.05"/>
</a>
</g>
</g>
<!-- Node21&#45;&gt;Node8 -->
<g id="edge60_Node000021_Node000008" class="edge">
<title>Node21&#45;&gt;Node8</title>
<g id="a_edge60_Node000021_Node000008"><a xlink:title=" ">
<path fill="none" stroke="#63b8ff" d="M1067.19,-111.61C1031.64,-98.43 964.43,-74.06 906.28,-56 862.4,-42.37 811.27,-28.77 777.7,-20.15"/>
<polygon fill="#63b8ff" stroke="#63b8ff" points="778.62,-16.77 768.06,-17.69 776.89,-23.56 778.62,-16.77"/>
</a>
</g>
</g>
<!-- Node21&#45;&gt;Node9 -->
<g id="edge61_Node000021_Node000009" class="edge">
<title>Node21&#45;&gt;Node9</title>
<g id="a_edge61_Node000021_Node000009"><a xlink:title=" ">
<path fill="none" stroke="#63b8ff" d="M1033.98,-117.39C912.64,-109.69 636.5,-91.11 543.28,-76 458.6,-62.27 361.14,-35.6 310.99,-21.06"/>
<polygon fill="#63b8ff" stroke="#63b8ff" points="312.19,-17.76 301.61,-18.31 310.22,-24.48 312.19,-17.76"/>
</a>
</g>
</g>
<!-- Node21&#45;&gt;Node17 -->
<g id="edge56_Node000021_Node000017" class="edge">
<title>Node21&#45;&gt;Node17</title>
<g id="a_edge56_Node000021_Node000017"><a xlink:title=" ">
<path fill="none" stroke="#63b8ff" d="M1096.11,-111.59C1098.89,-104.78 1102.74,-95.32 1106.19,-86.86"/>
<polygon fill="#63b8ff" stroke="#63b8ff" points="1109.39,-88.28 1109.92,-77.7 1102.91,-85.64 1109.39,-88.28"/>
</a>
</g>
</g>
<!-- Node22&#45;&gt;Node5 -->
<g id="edge64_Node000022_Node000005" class="edge">
<title>Node22&#45;&gt;Node5</title>
<g id="a_edge64_Node000022_Node000005"><a xlink:title=" ">
<path fill="none" stroke="#63b8ff" d="M1549.77,-167.56C1548.58,-153.9 1544.6,-128.45 1531.28,-112 1498.24,-71.2 1476.5,-74.25 1427.28,-56 1368.01,-34.03 1294.94,-21.17 1253.98,-15.16"/>
<polygon fill="#63b8ff" stroke="#63b8ff" points="1254.49,-11.7 1244.09,-13.76 1253.5,-18.63 1254.49,-11.7"/>
</a>
</g>
</g>
<!-- Node23 -->
<g id="Node000023" class="node">
<title>Node23</title>
<g id="a_Node000023"><a xlink:title=" ">
<polygon fill="#e0e0e0" stroke="#999999" points="1632.03,-132 1578.53,-132 1578.53,-112 1632.03,-112 1632.03,-132"/>
<text xml:space="preserve" text-anchor="middle" x="1605.28" y="-118.5" font-family="Helvetica,sans-Serif" font-size="10.00">iostream</text>
</a>
</g>
</g>
<!-- Node22&#45;&gt;Node23 -->
<g id="edge63_Node000022_Node000023" class="edge">
<title>Node22&#45;&gt;Node23</title>
<g id="a_edge63_Node000022_Node000023"><a xlink:title=" ">
<path fill="none" stroke="#63b8ff" d="M1559.86,-167.59C1567.51,-160.08 1578.44,-149.35 1587.66,-140.3"/>
<polygon fill="#63b8ff" stroke="#63b8ff" points="1590.05,-142.86 1594.73,-133.36 1585.14,-137.87 1590.05,-142.86"/>
</a>
</g>
</g>
</g>
</svg>
