<?xml version="1.0" encoding="UTF-8" standalone="no"?>
<!DOCTYPE svg PUBLIC "-//W3C//DTD SVG 1.1//EN"
 "http://www.w3.org/Graphics/SVG/1.1/DTD/svg11.dtd">
<!-- Generated by graphviz version 14.0.2 (20251019.1705)
 -->
<!-- Title: Analytics.h Pages: 1 -->
<svg width="657pt" height="196pt"
 viewBox="0.00 0.00 657.00 196.00" xmlns="http://www.w3.org/2000/svg" xmlns:xlink="http://www.w3.org/1999/xlink">
<g id="graph0" class="graph" transform="scale(1 1) rotate(0) translate(4 192)">
<title>Analytics.h</title>
<!-- Node1 -->
<g id="Node000001" class="node">
<title>Node1</title>
<g id="a_Node000001"><a xlink:title=" ">
<polygon fill="#999999" stroke="#666666" points="401.12,-188 336.38,-188 336.38,-168 401.12,-168 401.12,-188"/>
<text xml:space="preserve" text-anchor="middle" x="368.75" y="-174.5" font-family="Helvetica,sans-Serif" font-size="10.00">Analytics.h</text>
</a>
</g>
</g>
<!-- Node2 -->
<g id="Node000002" class="node">
<title>Node2</title>
<g id="a_Node000002"><a xlink:href="AssetRegistry_8h.html" target="_top" xlink:title=" ">
<polygon fill="white" stroke="#666666" points="375.5,-132 256,-132 256,-112 375.5,-112 375.5,-132"/>
<text xml:space="preserve" text-anchor="middle" x="315.75" y="-118.5" font-family="Helvetica,sans-Serif" font-size="10.00">LGE/fs/AssetRegistry.h</text>
</a>
</g>
</g>
<!-- Node1&#45;&gt;Node2 -->
<g id="edge1_Node000001_Node000002" class="edge">
<title>Node1&#45;&gt;Node2</title>
<g id="a_edge1_Node000001_Node000002"><a xlink:title=" ">
<path fill="none" stroke="#63b8ff" d="M359.52,-167.59C352.15,-160.08 341.62,-149.35 332.73,-140.3"/>
<polygon fill="#63b8ff" stroke="#63b8ff" points="335.44,-138.06 325.94,-133.38 330.44,-142.97 335.44,-138.06"/>
</a>
</g>
</g>
<!-- Node4 -->
<g id="Node000004" class="node">
<title>Node4</title>
<g id="a_Node000004"><a xlink:title=" ">
<polygon fill="#e0e0e0" stroke="#999999" points="248.75,-20 208.75,-20 208.75,0 248.75,0 248.75,-20"/>
<text xml:space="preserve" text-anchor="middle" x="228.75" y="-6.5" font-family="Helvetica,sans-Serif" font-size="10.00">string</text>
</a>
</g>
</g>
<!-- Node1&#45;&gt;Node4 -->
<g id="edge20_Node000001_Node000004" class="edge">
<title>Node1&#45;&gt;Node4</title>
<g id="a_edge20_Node000001_Node000004"><a xlink:title=" ">
<path fill="none" stroke="#63b8ff" d="M336.13,-173.6C284.66,-166.23 186.36,-143.58 146.75,-76 131.84,-50.57 168.78,-31.26 197.83,-20.53"/>
<polygon fill="#63b8ff" stroke="#63b8ff" points="198.72,-23.93 207.02,-17.34 196.42,-17.31 198.72,-23.93"/>
</a>
</g>
</g>
<!-- Node5 -->
<g id="Node000005" class="node">
<title>Node5</title>
<g id="a_Node000005"><a xlink:title=" ">
<polygon fill="#e0e0e0" stroke="#999999" points="65.5,-20 0,-20 0,0 65.5,0 65.5,-20"/>
<text xml:space="preserve" text-anchor="middle" x="32.75" y="-6.5" font-family="Helvetica,sans-Serif" font-size="10.00">string_view</text>
</a>
</g>
</g>
<!-- Node1&#45;&gt;Node5 -->
<g id="edge21_Node000001_Node000005" class="edge">
<title>Node1&#45;&gt;Node5</title>
<g id="a_edge21_Node000001_Node000005"><a xlink:title=" ">
<path fill="none" stroke="#63b8ff" d="M336.19,-176.63C290.57,-174.8 206.33,-166.54 144.75,-132 99.79,-106.78 62.66,-57.16 44.59,-29.95"/>
<polygon fill="#63b8ff" stroke="#63b8ff" points="47.62,-28.19 39.25,-21.68 41.74,-31.98 47.62,-28.19"/>
</a>
</g>
</g>
<!-- Node6 -->
<g id="Node000006" class="node">
<title>Node6</title>
<g id="a_Node000006"><a xlink:title=" ">
<polygon fill="#e0e0e0" stroke="#999999" points="385.25,-20 342.25,-20 342.25,0 385.25,0 385.25,-20"/>
<text xml:space="preserve" text-anchor="middle" x="363.75" y="-6.5" font-family="Helvetica,sans-Serif" font-size="10.00">vector</text>
</a>
</g>
</g>
<!-- Node1&#45;&gt;Node6 -->
<g id="edge22_Node000001_Node000006" class="edge">
<title>Node1&#45;&gt;Node6</title>
<g id="a_edge22_Node000001_Node000006"><a xlink:title=" ">
<path fill="none" stroke="#63b8ff" d="M388.19,-167.61C425.94,-148.08 502.94,-101.12 472.75,-56 455.87,-30.77 421.97,-19.67 396.44,-14.79"/>
<polygon fill="#63b8ff" stroke="#63b8ff" points="397.31,-11.39 386.88,-13.21 396.17,-18.3 397.31,-11.39"/>
</a>
</g>
</g>
<!-- Node7 -->
<g id="Node000007" class="node">
<title>Node7</title>
<g id="a_Node000007"><a xlink:title=" ">
<polygon fill="#e0e0e0" stroke="#999999" points="133.62,-20 83.88,-20 83.88,0 133.62,0 133.62,-20"/>
<text xml:space="preserve" text-anchor="middle" x="108.75" y="-6.5" font-family="Helvetica,sans-Serif" font-size="10.00">optional</text>
</a>
</g>
</g>
<!-- Node1&#45;&gt;Node7 -->
<g id="edge24_Node000001_Node000007" class="edge">
<title>Node1&#45;&gt;Node7</title>
<g id="a_edge24_Node000001_Node000007"><a xlink:title=" ">
<path fill="none" stroke="#63b8ff" d="M336.18,-175.29C295.96,-171.91 226.64,-161.86 175.75,-132 146.71,-114.97 140.59,-105.7 124.75,-76 117.37,-62.17 113.33,-44.87 111.15,-31.59"/>
<polygon fill="#63b8ff" stroke="#63b8ff" points="114.64,-31.27 109.8,-21.84 107.71,-32.23 114.64,-31.27"/>
</a>
</g>
</g>
<!-- Node8 -->
<g id="Node000008" class="node">
<title>Node8</title>
<g id="a_Node000008"><a xlink:title=" ">
<polygon fill="#e0e0e0" stroke="#999999" points="631.38,-20 586.12,-20 586.12,0 631.38,0 631.38,-20"/>
<text xml:space="preserve" text-anchor="middle" x="608.75" y="-6.5" font-family="Helvetica,sans-Serif" font-size="10.00">cstdint</text>
</a>
</g>
</g>
<!-- Node1&#45;&gt;Node8 -->
<g id="edge25_Node000001_Node000008" class="edge">
<title>Node1&#45;&gt;Node8</title>
<g id="a_edge25_Node000001_Node000008"><a xlink:title=" ">
<path fill="none" stroke="#63b8ff" d="M401.33,-176.9C462.6,-174.68 593.52,-159.85 645.75,-76 655.76,-59.94 642.38,-41.09 628.99,-27.84"/>
<polygon fill="#63b8ff" stroke="#63b8ff" points="631.72,-25.6 621.99,-21.42 626.99,-30.76 631.72,-25.6"/>
</a>
</g>
</g>
<!-- Node9 -->
<g id="Node000009" class="node">
<title>Node9</title>
<g id="a_Node000009"><a xlink:title=" ">
<polygon fill="#e0e0e0" stroke="#999999" points="464.12,-76 381.38,-76 381.38,-56 464.12,-56 464.12,-76"/>
<text xml:space="preserve" text-anchor="middle" x="422.75" y="-62.5" font-family="Helvetica,sans-Serif" font-size="10.00">unordered_map</text>
</a>
</g>
</g>
<!-- Node1&#45;&gt;Node9 -->
<g id="edge23_Node000001_Node000009" class="edge">
<title>Node1&#45;&gt;Node9</title>
<g id="a_edge23_Node000001_Node000009"><a xlink:title=" ">
<path fill="none" stroke="#63b8ff" d="M373.35,-167.62C382.12,-149.76 401.38,-110.53 413.09,-86.67"/>
<polygon fill="#63b8ff" stroke="#63b8ff" points="416.23,-88.23 417.49,-77.71 409.94,-85.15 416.23,-88.23"/>
</a>
</g>
</g>
<!-- Node11 -->
<g id="Node000011" class="node">
<title>Node11</title>
<g id="a_Node000011"><a xlink:href="EditorBus_8h.html" target="_top" xlink:title=" ">
<polygon fill="white" stroke="#666666" points="620.12,-76 519.38,-76 519.38,-56 620.12,-56 620.12,-76"/>
<text xml:space="preserve" text-anchor="middle" x="569.75" y="-62.5" font-family="Helvetica,sans-Serif" font-size="10.00">LGE/fs/EditorBus.h</text>
</a>
</g>
</g>
<!-- Node1&#45;&gt;Node11 -->
<g id="edge15_Node000001_Node000011" class="edge">
<title>Node1&#45;&gt;Node11</title>
<g id="a_edge15_Node000001_Node000011"><a xlink:title=" ">
<path fill="none" stroke="#63b8ff" d="M401.35,-170.88C430.34,-164.4 473.09,-152.26 505.75,-132 525.84,-119.54 544.27,-99.5 556.13,-84.97"/>
<polygon fill="#63b8ff" stroke="#63b8ff" points="558.55,-87.55 562,-77.53 553.06,-83.22 558.55,-87.55"/>
</a>
</g>
</g>
<!-- Node3 -->
<g id="Node000003" class="node">
<title>Node3</title>
<g id="a_Node000003"><a xlink:href="MetaDB_8h.html" target="_top" xlink:title=" ">
<polygon fill="white" stroke="#666666" points="249.75,-76 155.75,-76 155.75,-56 249.75,-56 249.75,-76"/>
<text xml:space="preserve" text-anchor="middle" x="202.75" y="-62.5" font-family="Helvetica,sans-Serif" font-size="10.00">LGE/fs/MetaDB.h</text>
</a>
</g>
</g>
<!-- Node2&#45;&gt;Node3 -->
<g id="edge2_Node000002_Node000003" class="edge">
<title>Node2&#45;&gt;Node3</title>
<g id="a_edge2_Node000002_Node000003"><a xlink:title=" ">
<path fill="none" stroke="#63b8ff" d="M296.07,-111.59C278.59,-103.24 252.8,-90.92 232.75,-81.34"/>
<polygon fill="#63b8ff" stroke="#63b8ff" points="234.48,-78.29 223.95,-77.13 231.47,-84.6 234.48,-78.29"/>
</a>
</g>
</g>
<!-- Node2&#45;&gt;Node4 -->
<g id="edge8_Node000002_Node000004" class="edge">
<title>Node2&#45;&gt;Node4</title>
<g id="a_edge8_Node000002_Node000004"><a xlink:title=" ">
<path fill="none" stroke="#63b8ff" d="M308.33,-111.62C293.95,-93.44 262.04,-53.09 243.29,-29.38"/>
<polygon fill="#63b8ff" stroke="#63b8ff" points="246.04,-27.21 237.09,-21.54 240.55,-31.56 246.04,-27.21"/>
</a>
</g>
</g>
<!-- Node2&#45;&gt;Node5 -->
<g id="edge9_Node000002_Node000005" class="edge">
<title>Node2&#45;&gt;Node5</title>
<g id="a_edge9_Node000002_Node000005"><a xlink:title=" ">
<path fill="none" stroke="#63b8ff" d="M255.75,-112.93C217.13,-106.29 166.53,-94.82 124.75,-76 97.11,-63.55 69.22,-42.35 51.51,-27.56"/>
<polygon fill="#63b8ff" stroke="#63b8ff" points="54.26,-25.31 44.38,-21.47 49.71,-30.63 54.26,-25.31"/>
</a>
</g>
</g>
<!-- Node2&#45;&gt;Node6 -->
<g id="edge10_Node000002_Node000006" class="edge">
<title>Node2&#45;&gt;Node6</title>
<g id="a_edge10_Node000002_Node000006"><a xlink:title=" ">
<path fill="none" stroke="#63b8ff" d="M318.78,-111.58C322.99,-98.8 331.08,-75.32 339.75,-56 343.59,-47.43 348.37,-38.25 352.65,-30.42"/>
<polygon fill="#63b8ff" stroke="#63b8ff" points="355.65,-32.22 357.47,-21.79 349.54,-28.81 355.65,-32.22"/>
</a>
</g>
</g>
<!-- Node2&#45;&gt;Node7 -->
<g id="edge12_Node000002_Node000007" class="edge">
<title>Node2&#45;&gt;Node7</title>
<g id="a_edge12_Node000002_Node000007"><a xlink:title=" ">
<path fill="none" stroke="#63b8ff" d="M255.65,-116.35C220.91,-111.06 178.03,-99.83 146.75,-76 131.65,-64.5 121.46,-45.14 115.46,-30.53"/>
<polygon fill="#63b8ff" stroke="#63b8ff" points="118.86,-29.62 112.07,-21.49 112.31,-32.08 118.86,-29.62"/>
</a>
</g>
</g>
<!-- Node2&#45;&gt;Node8 -->
<g id="edge14_Node000002_Node000008" class="edge">
<title>Node2&#45;&gt;Node8</title>
<g id="a_edge14_Node000002_Node000008"><a xlink:title=" ">
<path fill="none" stroke="#63b8ff" d="M375.96,-121.3C457.54,-120.28 596.71,-112.98 628.75,-76 640.07,-62.93 631.9,-43.54 622.82,-29.34"/>
<polygon fill="#63b8ff" stroke="#63b8ff" points="625.8,-27.5 617.19,-21.32 620.07,-31.52 625.8,-27.5"/>
</a>
</g>
</g>
<!-- Node2&#45;&gt;Node9 -->
<g id="edge11_Node000002_Node000009" class="edge">
<title>Node2&#45;&gt;Node9</title>
<g id="a_edge11_Node000002_Node000009"><a xlink:title=" ">
<path fill="none" stroke="#63b8ff" d="M334.39,-111.59C350.78,-103.32 374.91,-91.14 393.81,-81.6"/>
<polygon fill="#63b8ff" stroke="#63b8ff" points="395.26,-84.79 402.62,-77.16 392.11,-78.54 395.26,-84.79"/>
</a>
</g>
</g>
<!-- Node10 -->
<g id="Node000010" class="node">
<title>Node10</title>
<g id="a_Node000010"><a xlink:title=" ">
<polygon fill="#e0e0e0" stroke="#999999" points="510.75,-20 452.75,-20 452.75,0 510.75,0 510.75,-20"/>
<text xml:space="preserve" text-anchor="middle" x="481.75" y="-6.5" font-family="Helvetica,sans-Serif" font-size="10.00">functional</text>
</a>
</g>
</g>
<!-- Node2&#45;&gt;Node10 -->
<g id="edge13_Node000002_Node000010" class="edge">
<title>Node2&#45;&gt;Node10</title>
<g id="a_edge13_Node000002_Node000010"><a xlink:title=" ">
<path fill="none" stroke="#63b8ff" d="M321.72,-111.83C331.1,-98.04 350.54,-71.9 372.75,-56 393.59,-41.08 420.11,-30 441.78,-22.56"/>
<polygon fill="#63b8ff" stroke="#63b8ff" points="442.76,-25.92 451.17,-19.47 440.57,-19.27 442.76,-25.92"/>
</a>
</g>
</g>
<!-- Node3&#45;&gt;Node4 -->
<g id="edge3_Node000003_Node000004" class="edge">
<title>Node3&#45;&gt;Node4</title>
<g id="a_edge3_Node000003_Node000004"><a xlink:title=" ">
<path fill="none" stroke="#63b8ff" d="M207.28,-55.59C210.6,-48.7 215.22,-39.1 219.33,-30.57"/>
<polygon fill="#63b8ff" stroke="#63b8ff" points="222.43,-32.19 223.62,-21.66 216.12,-29.15 222.43,-32.19"/>
</a>
</g>
</g>
<!-- Node3&#45;&gt;Node5 -->
<g id="edge4_Node000003_Node000005" class="edge">
<title>Node3&#45;&gt;Node5</title>
<g id="a_edge4_Node000003_Node000005"><a xlink:title=" ">
<path fill="none" stroke="#63b8ff" d="M173.14,-55.59C145.52,-46.82 104.08,-33.66 73.37,-23.9"/>
<polygon fill="#63b8ff" stroke="#63b8ff" points="74.63,-20.63 64.04,-20.94 72.51,-27.3 74.63,-20.63"/>
</a>
</g>
</g>
<!-- Node3&#45;&gt;Node6 -->
<g id="edge5_Node000003_Node000006" class="edge">
<title>Node3&#45;&gt;Node6</title>
<g id="a_edge5_Node000003_Node000006"><a xlink:title=" ">
<path fill="none" stroke="#63b8ff" d="M230.79,-55.59C258.91,-46.16 302.16,-31.66 331.64,-21.77"/>
<polygon fill="#63b8ff" stroke="#63b8ff" points="332.4,-25.21 340.77,-18.71 330.17,-18.57 332.4,-25.21"/>
</a>
</g>
</g>
<!-- Node3&#45;&gt;Node7 -->
<g id="edge6_Node000003_Node000007" class="edge">
<title>Node3&#45;&gt;Node7</title>
<g id="a_edge6_Node000003_Node000007"><a xlink:title=" ">
<path fill="none" stroke="#63b8ff" d="M186.38,-55.59C172.18,-47.44 151.37,-35.48 134.87,-26"/>
<polygon fill="#63b8ff" stroke="#63b8ff" points="136.98,-23.18 126.56,-21.23 133.49,-29.25 136.98,-23.18"/>
</a>
</g>
</g>
<!-- Node3&#45;&gt;Node8 -->
<g id="edge7_Node000003_Node000008" class="edge">
<title>Node3&#45;&gt;Node8</title>
<g id="a_edge7_Node000003_Node000008"><a xlink:title=" ">
<path fill="none" stroke="#63b8ff" d="M250.12,-58.7C332.94,-47.68 502.15,-25.18 574.6,-15.54"/>
<polygon fill="#63b8ff" stroke="#63b8ff" points="574.81,-19.04 584.26,-14.26 573.89,-12.11 574.81,-19.04"/>
</a>
</g>
</g>
<!-- Node11&#45;&gt;Node4 -->
<g id="edge16_Node000011_Node000004" class="edge">
<title>Node11&#45;&gt;Node4</title>
<g id="a_edge16_Node000011_Node000004"><a xlink:title=" ">
<path fill="none" stroke="#63b8ff" d="M519.07,-56.97C447.55,-45.65 319.18,-25.32 260.09,-15.96"/>
<polygon fill="#63b8ff" stroke="#63b8ff" points="260.82,-12.53 250.4,-14.43 259.72,-19.45 260.82,-12.53"/>
</a>
</g>
</g>
<!-- Node11&#45;&gt;Node6 -->
<g id="edge18_Node000011_Node000006" class="edge">
<title>Node11&#45;&gt;Node6</title>
<g id="a_edge18_Node000011_Node000006"><a xlink:title=" ">
<path fill="none" stroke="#63b8ff" d="M533.87,-55.59C495.11,-45.43 433.9,-29.39 396.43,-19.57"/>
<polygon fill="#63b8ff" stroke="#63b8ff" points="397.64,-16.27 387.08,-17.12 395.87,-23.04 397.64,-16.27"/>
</a>
</g>
</g>
<!-- Node11&#45;&gt;Node8 -->
<g id="edge19_Node000011_Node000008" class="edge">
<title>Node11&#45;&gt;Node8</title>
<g id="a_edge19_Node000011_Node000008"><a xlink:title=" ">
<path fill="none" stroke="#63b8ff" d="M576.54,-55.59C581.74,-48.39 589.08,-38.23 595.44,-29.43"/>
<polygon fill="#63b8ff" stroke="#63b8ff" points="598.13,-31.68 601.15,-21.53 592.46,-27.58 598.13,-31.68"/>
</a>
</g>
</g>
<!-- Node11&#45;&gt;Node10 -->
<g id="edge17_Node000011_Node000010" class="edge">
<title>Node11&#45;&gt;Node10</title>
<g id="a_edge17_Node000011_Node000010"><a xlink:title=" ">
<path fill="none" stroke="#63b8ff" d="M554.42,-55.59C541.25,-47.51 522.02,-35.71 506.64,-26.27"/>
<polygon fill="#63b8ff" stroke="#63b8ff" points="508.84,-23.52 498.49,-21.27 505.18,-29.48 508.84,-23.52"/>
</a>
</g>
</g>
</g>
</svg>
