<?xml version="1.0" encoding="UTF-8" standalone="no"?>
<!DOCTYPE svg PUBLIC "-//W3C//DTD SVG 1.1//EN"
 "http://www.w3.org/Graphics/SVG/1.1/DTD/svg11.dtd">
<!-- Generated by graphviz version 14.0.2 (20251019.1705)
 -->
<!-- Title: Application.cpp Pages: 1 -->
<svg width="646pt" height="140pt"
 viewBox="0.00 0.00 646.00 140.00" xmlns="http://www.w3.org/2000/svg" xmlns:xlink="http://www.w3.org/1999/xlink">
<g id="graph0" class="graph" transform="scale(1 1) rotate(0) translate(4 136)">
<title>Application.cpp</title>
<!-- Node1 -->
<g id="Node000001" class="node">
<title>Node1</title>
<g id="a_Node000001"><a xlink:title=" ">
<polygon fill="#999999" stroke="#666666" points="397.25,-132 314.5,-132 314.5,-112 397.25,-112 397.25,-132"/>
<text xml:space="preserve" text-anchor="middle" x="355.88" y="-118.5" font-family="Helvetica,sans-Serif" font-size="10.00">Application.cpp</text>
</a>
</g>
</g>
<!-- Node2 -->
<g id="Node000002" class="node">
<title>Node2</title>
<g id="a_Node000002"><a xlink:href="Application_8h.html" target="_top" xlink:title=" ">
<polygon fill="white" stroke="#666666" points="350.12,-76 233.62,-76 233.62,-56 350.12,-56 350.12,-76"/>
<text xml:space="preserve" text-anchor="middle" x="291.88" y="-62.5" font-family="Helvetica,sans-Serif" font-size="10.00">LGE/core/Application.h</text>
</a>
</g>
</g>
<!-- Node1&#45;&gt;Node2 -->
<g id="edge1_Node000001_Node000002" class="edge">
<title>Node1&#45;&gt;Node2</title>
<g id="a_edge1_Node000001_Node000002"><a xlink:title=" ">
<path fill="none" stroke="#63b8ff" d="M344.73,-111.59C335.55,-103.85 322.32,-92.69 311.39,-83.47"/>
<polygon fill="#63b8ff" stroke="#63b8ff" points="313.95,-81.05 304.05,-77.27 309.44,-86.4 313.95,-81.05"/>
</a>
</g>
</g>
<!-- Node5 -->
<g id="Node000005" class="node">
<title>Node5</title>
<g id="a_Node000005"><a xlink:href="Window_8h.html" target="_top" xlink:title=" ">
<polygon fill="white" stroke="#666666" points="471.38,-76 368.38,-76 368.38,-56 471.38,-56 471.38,-76"/>
<text xml:space="preserve" text-anchor="middle" x="419.88" y="-62.5" font-family="Helvetica,sans-Serif" font-size="10.00">LGE/core/Window.h</text>
</a>
</g>
</g>
<!-- Node1&#45;&gt;Node5 -->
<g id="edge4_Node000001_Node000005" class="edge">
<title>Node1&#45;&gt;Node5</title>
<g id="a_edge4_Node000001_Node000005"><a xlink:title=" ">
<path fill="none" stroke="#63b8ff" d="M367.02,-111.59C376.2,-103.85 389.43,-92.69 400.36,-83.47"/>
<polygon fill="#63b8ff" stroke="#63b8ff" points="402.31,-86.4 407.7,-77.27 397.8,-81.05 402.31,-86.4"/>
</a>
</g>
</g>
<!-- Node7 -->
<g id="Node000007" class="node">
<title>Node7</title>
<g id="a_Node000007"><a xlink:href="Renderer_8h.html" target="_top" xlink:title=" ">
<polygon fill="white" stroke="#666666" points="215.5,-76 86.25,-76 86.25,-56 215.5,-56 215.5,-76"/>
<text xml:space="preserve" text-anchor="middle" x="150.88" y="-62.5" font-family="Helvetica,sans-Serif" font-size="10.00">LGE/rendering/Renderer.h</text>
</a>
</g>
</g>
<!-- Node1&#45;&gt;Node7 -->
<g id="edge7_Node000001_Node000007" class="edge">
<title>Node1&#45;&gt;Node7</title>
<g id="a_edge7_Node000001_Node000007"><a xlink:title=" ">
<path fill="none" stroke="#63b8ff" d="M320.17,-111.59C286.28,-102.67 235.13,-89.19 197.93,-79.39"/>
<polygon fill="#63b8ff" stroke="#63b8ff" points="198.89,-76.03 188.33,-76.87 197.1,-82.8 198.89,-76.03"/>
</a>
</g>
</g>
<!-- Node9 -->
<g id="Node000009" class="node">
<title>Node9</title>
<g id="a_Node000009"><a xlink:href="Log_8h.html" target="_top" xlink:title=" ">
<polygon fill="white" stroke="#666666" points="574,-76 489.75,-76 489.75,-56 574,-56 574,-76"/>
<text xml:space="preserve" text-anchor="middle" x="531.88" y="-62.5" font-family="Helvetica,sans-Serif" font-size="10.00">LGE/core/Log.h</text>
</a>
</g>
</g>
<!-- Node1&#45;&gt;Node9 -->
<g id="edge10_Node000001_Node000009" class="edge">
<title>Node1&#45;&gt;Node9</title>
<g id="a_edge10_Node000001_Node000009"><a xlink:title=" ">
<path fill="none" stroke="#63b8ff" d="M386.53,-111.59C415.25,-102.78 458.41,-89.54 490.24,-79.78"/>
<polygon fill="#63b8ff" stroke="#63b8ff" points="491,-83.2 499.53,-76.92 488.95,-76.51 491,-83.2"/>
</a>
</g>
</g>
<!-- Node11 -->
<g id="Node000011" class="node">
<title>Node11</title>
<g id="a_Node000011"><a xlink:href="UI_8h.html" target="_top" xlink:title=" ">
<polygon fill="white" stroke="#666666" points="67.75,-76 0,-76 0,-56 67.75,-56 67.75,-76"/>
<text xml:space="preserve" text-anchor="middle" x="33.88" y="-62.5" font-family="Helvetica,sans-Serif" font-size="10.00">LGE/ui/UI.h</text>
</a>
</g>
</g>
<!-- Node1&#45;&gt;Node11 -->
<g id="edge13_Node000001_Node000011" class="edge">
<title>Node1&#45;&gt;Node11</title>
<g id="a_edge13_Node000001_Node000011"><a xlink:title=" ">
<path fill="none" stroke="#63b8ff" d="M314.17,-114.89C261.73,-107.07 168.65,-92.75 79.28,-76.38"/>
<polygon fill="#63b8ff" stroke="#63b8ff" points="80.07,-72.96 69.6,-74.59 78.8,-79.85 80.07,-72.96"/>
</a>
</g>
</g>
<!-- Node12 -->
<g id="Node000012" class="node">
<title>Node12</title>
<g id="a_Node000012"><a xlink:title=" ">
<polygon fill="#e0e0e0" stroke="#999999" points="637.5,-76 592.25,-76 592.25,-56 637.5,-56 637.5,-76"/>
<text xml:space="preserve" text-anchor="middle" x="614.88" y="-62.5" font-family="Helvetica,sans-Serif" font-size="10.00">chrono</text>
</a>
</g>
</g>
<!-- Node1&#45;&gt;Node12 -->
<g id="edge15_Node000001_Node000012" class="edge">
<title>Node1&#45;&gt;Node12</title>
<g id="a_edge15_Node000001_Node000012"><a xlink:title=" ">
<path fill="none" stroke="#63b8ff" d="M397.51,-113.76C440.88,-105.99 511.02,-92.81 580.69,-76.37"/>
<polygon fill="#63b8ff" stroke="#63b8ff" points="581.47,-79.78 590.39,-74.06 579.85,-72.97 581.47,-79.78"/>
</a>
</g>
</g>
<!-- Node3 -->
<g id="Node000003" class="node">
<title>Node3</title>
<g id="a_Node000003"><a xlink:title=" ">
<polygon fill="#e0e0e0" stroke="#999999" points="221.5,-20 170.25,-20 170.25,0 221.5,0 221.5,-20"/>
<text xml:space="preserve" text-anchor="middle" x="195.88" y="-6.5" font-family="Helvetica,sans-Serif" font-size="10.00">memory</text>
</a>
</g>
</g>
<!-- Node2&#45;&gt;Node3 -->
<g id="edge2_Node000002_Node000003" class="edge">
<title>Node2&#45;&gt;Node3</title>
<g id="a_edge2_Node000002_Node000003"><a xlink:title=" ">
<path fill="none" stroke="#63b8ff" d="M275.15,-55.59C260.65,-47.44 239.4,-35.48 222.55,-26"/>
<polygon fill="#63b8ff" stroke="#63b8ff" points="224.48,-23.07 214.05,-21.22 221.05,-29.17 224.48,-23.07"/>
</a>
</g>
</g>
<!-- Node4 -->
<g id="Node000004" class="node">
<title>Node4</title>
<g id="a_Node000004"><a xlink:title=" ">
<polygon fill="#e0e0e0" stroke="#999999" points="462.88,-20 422.88,-20 422.88,0 462.88,0 462.88,-20"/>
<text xml:space="preserve" text-anchor="middle" x="442.88" y="-6.5" font-family="Helvetica,sans-Serif" font-size="10.00">string</text>
</a>
</g>
</g>
<!-- Node2&#45;&gt;Node4 -->
<g id="edge3_Node000002_Node000004" class="edge">
<title>Node2&#45;&gt;Node4</title>
<g id="a_edge3_Node000002_Node000004"><a xlink:title=" ">
<path fill="none" stroke="#63b8ff" d="M318.18,-55.59C344.32,-46.25 384.4,-31.91 412.03,-22.03"/>
<polygon fill="#63b8ff" stroke="#63b8ff" points="413,-25.4 421.24,-18.74 410.65,-18.81 413,-25.4"/>
</a>
</g>
</g>
<!-- Node5&#45;&gt;Node4 -->
<g id="edge5_Node000005_Node000004" class="edge">
<title>Node5&#45;&gt;Node4</title>
<g id="a_edge5_Node000005_Node000004"><a xlink:title=" ">
<path fill="none" stroke="#63b8ff" d="M423.88,-55.59C426.78,-48.78 430.81,-39.32 434.42,-30.86"/>
<polygon fill="#63b8ff" stroke="#63b8ff" points="437.62,-32.26 438.32,-21.69 431.18,-29.52 437.62,-32.26"/>
</a>
</g>
</g>
<!-- Node6 -->
<g id="Node000006" class="node">
<title>Node6</title>
<g id="a_Node000006"><a xlink:title=" ">
<polygon fill="#e0e0e0" stroke="#999999" points="404.88,-20 346.88,-20 346.88,0 404.88,0 404.88,-20"/>
<text xml:space="preserve" text-anchor="middle" x="375.88" y="-6.5" font-family="Helvetica,sans-Serif" font-size="10.00">functional</text>
</a>
</g>
</g>
<!-- Node5&#45;&gt;Node6 -->
<g id="edge6_Node000005_Node000006" class="edge">
<title>Node5&#45;&gt;Node6</title>
<g id="a_edge6_Node000005_Node000006"><a xlink:title=" ">
<path fill="none" stroke="#63b8ff" d="M412.21,-55.59C406.28,-48.32 397.89,-38.02 390.66,-29.15"/>
<polygon fill="#63b8ff" stroke="#63b8ff" points="393.44,-27.01 384.41,-21.47 388.01,-31.43 393.44,-27.01"/>
</a>
</g>
</g>
<!-- Node7&#45;&gt;Node3 -->
<g id="edge8_Node000007_Node000003" class="edge">
<title>Node7&#45;&gt;Node3</title>
<g id="a_edge8_Node000007_Node000003"><a xlink:title=" ">
<path fill="none" stroke="#63b8ff" d="M158.71,-55.59C164.84,-48.24 173.55,-37.8 180.99,-28.87"/>
<polygon fill="#63b8ff" stroke="#63b8ff" points="183.44,-31.38 187.16,-21.46 178.07,-26.9 183.44,-31.38"/>
</a>
</g>
</g>
<!-- Node8 -->
<g id="Node000008" class="node">
<title>Node8</title>
<g id="a_Node000008"><a xlink:title=" ">
<polygon fill="#e0e0e0" stroke="#999999" points="127.5,-20 82.25,-20 82.25,0 127.5,0 127.5,-20"/>
<text xml:space="preserve" text-anchor="middle" x="104.88" y="-6.5" font-family="Helvetica,sans-Serif" font-size="10.00">cstdint</text>
</a>
</g>
</g>
<!-- Node7&#45;&gt;Node8 -->
<g id="edge9_Node000007_Node000008" class="edge">
<title>Node7&#45;&gt;Node8</title>
<g id="a_edge9_Node000007_Node000008"><a xlink:title=" ">
<path fill="none" stroke="#63b8ff" d="M142.86,-55.59C136.6,-48.24 127.7,-37.8 120.09,-28.87"/>
<polygon fill="#63b8ff" stroke="#63b8ff" points="122.93,-26.79 113.78,-21.45 117.6,-31.33 122.93,-26.79"/>
</a>
</g>
</g>
<!-- Node9&#45;&gt;Node4 -->
<g id="edge12_Node000009_Node000004" class="edge">
<title>Node9&#45;&gt;Node4</title>
<g id="a_edge12_Node000009_Node000004"><a xlink:title=" ">
<path fill="none" stroke="#63b8ff" d="M516.37,-55.59C503.05,-47.51 483.6,-35.71 468.05,-26.27"/>
<polygon fill="#63b8ff" stroke="#63b8ff" points="470.16,-23.46 459.79,-21.26 466.53,-29.44 470.16,-23.46"/>
</a>
</g>
</g>
<!-- Node10 -->
<g id="Node000010" class="node">
<title>Node10</title>
<g id="a_Node000010"><a xlink:title=" ">
<polygon fill="#e0e0e0" stroke="#999999" points="558.62,-20 505.12,-20 505.12,0 558.62,0 558.62,-20"/>
<text xml:space="preserve" text-anchor="middle" x="531.88" y="-6.5" font-family="Helvetica,sans-Serif" font-size="10.00">iostream</text>
</a>
</g>
</g>
<!-- Node9&#45;&gt;Node10 -->
<g id="edge11_Node000009_Node000010" class="edge">
<title>Node9&#45;&gt;Node10</title>
<g id="a_edge11_Node000009_Node000010"><a xlink:title=" ">
<path fill="none" stroke="#63b8ff" d="M531.88,-55.59C531.88,-49.01 531.88,-39.96 531.88,-31.73"/>
<polygon fill="#63b8ff" stroke="#63b8ff" points="535.38,-31.81 531.88,-21.81 528.38,-31.81 535.38,-31.81"/>
</a>
</g>
</g>
<!-- Node11&#45;&gt;Node8 -->
<g id="edge14_Node000011_Node000008" class="edge">
<title>Node11&#45;&gt;Node8</title>
<g id="a_edge14_Node000011_Node000008"><a xlink:title=" ">
<path fill="none" stroke="#63b8ff" d="M46.24,-55.59C56.52,-47.77 71.39,-36.46 83.59,-27.19"/>
<polygon fill="#63b8ff" stroke="#63b8ff" points="85.6,-30.05 91.44,-21.21 81.37,-24.48 85.6,-30.05"/>
</a>
</g>
</g>
</g>
</svg>
