<?xml version="1.0" encoding="UTF-8" standalone="no"?>
<!DOCTYPE svg PUBLIC "-//W3C//DTD SVG 1.1//EN"
 "http://www.w3.org/Graphics/SVG/1.1/DTD/svg11.dtd">
<!-- Generated by graphviz version 14.0.2 (20251019.1705)
 -->
<!-- Title: AssetRegistry.h Pages: 1 -->
<svg width="484pt" height="140pt"
 viewBox="0.00 0.00 484.00 140.00" xmlns="http://www.w3.org/2000/svg" xmlns:xlink="http://www.w3.org/1999/xlink">
<g id="graph0" class="graph" transform="scale(1 1) rotate(0) translate(4 136)">
<title>AssetRegistry.h</title>
<!-- Node1 -->
<g id="Node000001" class="node">
<title>Node1</title>
<g id="a_Node000001"><a xlink:title=" ">
<polygon fill="#999999" stroke="#666666" points="275.88,-132 190.12,-132 190.12,-112 275.88,-112 275.88,-132"/>
<text xml:space="preserve" text-anchor="middle" x="233" y="-118.5" font-family="Helvetica,sans-Serif" font-size="10.00">AssetRegistry.h</text>
</a>
</g>
</g>
<!-- Node2 -->
<g id="Node000002" class="node">
<title>Node2</title>
<g id="a_Node000002"><a xlink:href="MetaDB_8h.html" target="_top" xlink:title=" ">
<polygon fill="white" stroke="#666666" points="186,-76 92,-76 92,-56 186,-56 186,-76"/>
<text xml:space="preserve" text-anchor="middle" x="139" y="-62.5" font-family="Helvetica,sans-Serif" font-size="10.00">LGE/fs/MetaDB.h</text>
</a>
</g>
</g>
<!-- Node1&#45;&gt;Node2 -->
<g id="edge1_Node000001_Node000002" class="edge">
<title>Node1&#45;&gt;Node2</title>
<g id="a_edge1_Node000001_Node000002"><a xlink:title=" ">
<path fill="none" stroke="#63b8ff" d="M216.63,-111.59C202.43,-103.44 181.62,-91.48 165.12,-82"/>
<polygon fill="#63b8ff" stroke="#63b8ff" points="167.23,-79.18 156.81,-77.23 163.74,-85.25 167.23,-79.18"/>
</a>
</g>
</g>
<!-- Node3 -->
<g id="Node000003" class="node">
<title>Node3</title>
<g id="a_Node000003"><a xlink:title=" ">
<polygon fill="#e0e0e0" stroke="#999999" points="40,-20 0,-20 0,0 40,0 40,-20"/>
<text xml:space="preserve" text-anchor="middle" x="20" y="-6.5" font-family="Helvetica,sans-Serif" font-size="10.00">string</text>
</a>
</g>
</g>
<!-- Node1&#45;&gt;Node3 -->
<g id="edge7_Node000001_Node000003" class="edge">
<title>Node1&#45;&gt;Node3</title>
<g id="a_edge7_Node000001_Node000003"><a xlink:title=" ">
<path fill="none" stroke="#63b8ff" d="M189.63,-116.07C155.64,-110.57 108.35,-99.18 73,-76 54.97,-64.18 40.07,-44.29 30.71,-29.62"/>
<polygon fill="#63b8ff" stroke="#63b8ff" points="33.87,-28.08 25.69,-21.34 27.88,-31.71 33.87,-28.08"/>
</a>
</g>
</g>
<!-- Node4 -->
<g id="Node000004" class="node">
<title>Node4</title>
<g id="a_Node000004"><a xlink:title=" ">
<polygon fill="#e0e0e0" stroke="#999999" points="123.75,-20 58.25,-20 58.25,0 123.75,0 123.75,-20"/>
<text xml:space="preserve" text-anchor="middle" x="91" y="-6.5" font-family="Helvetica,sans-Serif" font-size="10.00">string_view</text>
</a>
</g>
</g>
<!-- Node1&#45;&gt;Node4 -->
<g id="edge8_Node000001_Node000004" class="edge">
<title>Node1&#45;&gt;Node4</title>
<g id="a_edge8_Node000001_Node000004"><a xlink:title=" ">
<path fill="none" stroke="#63b8ff" d="M189.67,-121.07C154.66,-118.55 107.34,-108.72 83,-76 73.46,-63.17 76.81,-44.82 81.77,-30.89"/>
<polygon fill="#63b8ff" stroke="#63b8ff" points="84.93,-32.42 85.5,-21.84 78.46,-29.76 84.93,-32.42"/>
</a>
</g>
</g>
<!-- Node5 -->
<g id="Node000005" class="node">
<title>Node5</title>
<g id="a_Node000005"><a xlink:title=" ">
<polygon fill="#e0e0e0" stroke="#999999" points="184.5,-20 141.5,-20 141.5,0 184.5,0 184.5,-20"/>
<text xml:space="preserve" text-anchor="middle" x="163" y="-6.5" font-family="Helvetica,sans-Serif" font-size="10.00">vector</text>
</a>
</g>
</g>
<!-- Node1&#45;&gt;Node5 -->
<g id="edge9_Node000001_Node000005" class="edge">
<title>Node1&#45;&gt;Node5</title>
<g id="a_edge9_Node000001_Node000005"><a xlink:title=" ">
<path fill="none" stroke="#63b8ff" d="M227.84,-111.59C220.76,-98.8 207.48,-75.32 195,-56 189.29,-47.17 182.6,-37.64 176.82,-29.64"/>
<polygon fill="#63b8ff" stroke="#63b8ff" points="179.74,-27.71 171.01,-21.71 174.09,-31.84 179.74,-27.71"/>
</a>
</g>
</g>
<!-- Node6 -->
<g id="Node000006" class="node">
<title>Node6</title>
<g id="a_Node000006"><a xlink:title=" ">
<polygon fill="#e0e0e0" stroke="#999999" points="251.88,-20 202.12,-20 202.12,0 251.88,0 251.88,-20"/>
<text xml:space="preserve" text-anchor="middle" x="227" y="-6.5" font-family="Helvetica,sans-Serif" font-size="10.00">optional</text>
</a>
</g>
</g>
<!-- Node1&#45;&gt;Node6 -->
<g id="edge11_Node000001_Node000006" class="edge">
<title>Node1&#45;&gt;Node6</title>
<g id="a_edge11_Node000001_Node000006"><a xlink:title=" ">
<path fill="none" stroke="#63b8ff" d="M232.49,-111.62C231.53,-94.01 229.43,-55.59 228.13,-31.65"/>
<polygon fill="#63b8ff" stroke="#63b8ff" points="231.63,-31.66 227.59,-21.87 224.64,-32.04 231.63,-31.66"/>
</a>
</g>
</g>
<!-- Node7 -->
<g id="Node000007" class="node">
<title>Node7</title>
<g id="a_Node000007"><a xlink:title=" ">
<polygon fill="#e0e0e0" stroke="#999999" points="315.62,-20 270.38,-20 270.38,0 315.62,0 315.62,-20"/>
<text xml:space="preserve" text-anchor="middle" x="293" y="-6.5" font-family="Helvetica,sans-Serif" font-size="10.00">cstdint</text>
</a>
</g>
</g>
<!-- Node1&#45;&gt;Node7 -->
<g id="edge13_Node000001_Node000007" class="edge">
<title>Node1&#45;&gt;Node7</title>
<g id="a_edge13_Node000001_Node000007"><a xlink:title=" ">
<path fill="none" stroke="#63b8ff" d="M238.12,-111.62C247.9,-93.68 269.45,-54.17 282.45,-30.35"/>
<polygon fill="#63b8ff" stroke="#63b8ff" points="285.46,-32.14 287.17,-21.68 279.31,-28.79 285.46,-32.14"/>
</a>
</g>
</g>
<!-- Node8 -->
<g id="Node000008" class="node">
<title>Node8</title>
<g id="a_Node000008"><a xlink:title=" ">
<polygon fill="#e0e0e0" stroke="#999999" points="400.38,-76 317.62,-76 317.62,-56 400.38,-56 400.38,-76"/>
<text xml:space="preserve" text-anchor="middle" x="359" y="-62.5" font-family="Helvetica,sans-Serif" font-size="10.00">unordered_map</text>
</a>
</g>
</g>
<!-- Node1&#45;&gt;Node8 -->
<g id="edge10_Node000001_Node000008" class="edge">
<title>Node1&#45;&gt;Node8</title>
<g id="a_edge10_Node000001_Node000008"><a xlink:title=" ">
<path fill="none" stroke="#63b8ff" d="M254.95,-111.59C274.7,-103.13 303.99,-90.58 326.47,-80.94"/>
<polygon fill="#63b8ff" stroke="#63b8ff" points="327.68,-84.23 335.49,-77.08 324.92,-77.8 327.68,-84.23"/>
</a>
</g>
</g>
<!-- Node9 -->
<g id="Node000009" class="node">
<title>Node9</title>
<g id="a_Node000009"><a xlink:title=" ">
<polygon fill="#e0e0e0" stroke="#999999" points="476,-76 418,-76 418,-56 476,-56 476,-76"/>
<text xml:space="preserve" text-anchor="middle" x="447" y="-62.5" font-family="Helvetica,sans-Serif" font-size="10.00">functional</text>
</a>
</g>
</g>
<!-- Node1&#45;&gt;Node9 -->
<g id="edge12_Node000001_Node000009" class="edge">
<title>Node1&#45;&gt;Node9</title>
<g id="a_edge12_Node000001_Node000009"><a xlink:title=" ">
<path fill="none" stroke="#63b8ff" d="M270.28,-111.59C308.42,-101.97 367.51,-87.06 406.72,-77.16"/>
<polygon fill="#63b8ff" stroke="#63b8ff" points="407.4,-80.6 416.24,-74.76 405.69,-73.82 407.4,-80.6"/>
</a>
</g>
</g>
<!-- Node2&#45;&gt;Node3 -->
<g id="edge2_Node000002_Node000003" class="edge">
<title>Node2&#45;&gt;Node3</title>
<g id="a_edge2_Node000002_Node000003"><a xlink:title=" ">
<path fill="none" stroke="#63b8ff" d="M118.27,-55.59C99.67,-47.15 72.12,-34.65 50.92,-25.03"/>
<polygon fill="#63b8ff" stroke="#63b8ff" points="52.42,-21.87 41.87,-20.92 49.53,-28.24 52.42,-21.87"/>
</a>
</g>
</g>
<!-- Node2&#45;&gt;Node4 -->
<g id="edge3_Node000002_Node000004" class="edge">
<title>Node2&#45;&gt;Node4</title>
<g id="a_edge3_Node000002_Node000004"><a xlink:title=" ">
<path fill="none" stroke="#63b8ff" d="M130.64,-55.59C124.1,-48.24 114.82,-37.8 106.88,-28.87"/>
<polygon fill="#63b8ff" stroke="#63b8ff" points="109.53,-26.58 100.27,-21.43 104.3,-31.23 109.53,-26.58"/>
</a>
</g>
</g>
<!-- Node2&#45;&gt;Node5 -->
<g id="edge4_Node000002_Node000005" class="edge">
<title>Node2&#45;&gt;Node5</title>
<g id="a_edge4_Node000002_Node000005"><a xlink:title=" ">
<path fill="none" stroke="#63b8ff" d="M143.18,-55.59C146.24,-48.7 150.51,-39.1 154.3,-30.57"/>
<polygon fill="#63b8ff" stroke="#63b8ff" points="157.39,-32.24 158.25,-21.68 150.99,-29.4 157.39,-32.24"/>
</a>
</g>
</g>
<!-- Node2&#45;&gt;Node6 -->
<g id="edge5_Node000002_Node000006" class="edge">
<title>Node2&#45;&gt;Node6</title>
<g id="a_edge5_Node000002_Node000006"><a xlink:title=" ">
<path fill="none" stroke="#63b8ff" d="M154.33,-55.59C167.5,-47.51 186.73,-35.71 202.11,-26.27"/>
<polygon fill="#63b8ff" stroke="#63b8ff" points="203.57,-29.48 210.26,-21.27 199.91,-23.52 203.57,-29.48"/>
</a>
</g>
</g>
<!-- Node2&#45;&gt;Node7 -->
<g id="edge6_Node000002_Node000007" class="edge">
<title>Node2&#45;&gt;Node7</title>
<g id="a_edge6_Node000002_Node000007"><a xlink:title=" ">
<path fill="none" stroke="#63b8ff" d="M165.82,-55.59C191.84,-46.47 231.4,-32.6 259.48,-22.75"/>
<polygon fill="#63b8ff" stroke="#63b8ff" points="260.29,-26.18 268.57,-19.57 257.97,-19.57 260.29,-26.18"/>
</a>
</g>
</g>
</g>
</svg>
