<?xml version="1.0" encoding="UTF-8" standalone="no"?>
<!DOCTYPE svg PUBLIC "-//W3C//DTD SVG 1.1//EN"
 "http://www.w3.org/Graphics/SVG/1.1/DTD/svg11.dtd">
<!-- Generated by graphviz version 14.0.2 (20251019.1705)
 -->
<!-- Title: AssetRegistry.h Pages: 1 -->
<svg width="2121pt" height="196pt"
 viewBox="0.00 0.00 2121.00 196.00" xmlns="http://www.w3.org/2000/svg" xmlns:xlink="http://www.w3.org/1999/xlink">
<g id="graph0" class="graph" transform="scale(1 1) rotate(0) translate(4 192)">
<title>AssetRegistry.h</title>
<!-- Node1 -->
<g id="Node000001" class="node">
<title>Node1</title>
<g id="a_Node000001"><a xlink:title=" ">
<polygon fill="#999999" stroke="#666666" points="1007.22,-188 921.47,-188 921.47,-168 1007.22,-168 1007.22,-188"/>
<text xml:space="preserve" text-anchor="middle" x="964.34" y="-174.5" font-family="Helvetica,sans-Serif" font-size="10.00">AssetRegistry.h</text>
</a>
</g>
</g>
<!-- Node2 -->
<g id="Node000002" class="node">
<title>Node2</title>
<g id="a_Node000002"><a xlink:href="Analytics_8cpp.html" target="_top" xlink:title=" ">
<polygon fill="white" stroke="#666666" points="94.97,-76 19.72,-76 19.72,-56 94.97,-56 94.97,-76"/>
<text xml:space="preserve" text-anchor="middle" x="57.34" y="-62.5" font-family="Helvetica,sans-Serif" font-size="10.00">Analytics.cpp</text>
</a>
</g>
</g>
<!-- Node1&#45;&gt;Node2 -->
<g id="edge1_Node000001_Node000002" class="edge">
<title>Node1&#45;&gt;Node2</title>
<g id="a_edge1_Node000001_Node000002"><a xlink:title=" ">
<path fill="none" stroke="#63b8ff" d="M909.72,-176.5C711.03,-174.4 36.72,-164.88 5.34,-132 -12.31,-113.49 19.3,-89.51 40.5,-76.46"/>
<polygon fill="#63b8ff" stroke="#63b8ff" points="909.47,-179.99 919.51,-176.6 909.54,-172.99 909.47,-179.99"/>
</a>
</g>
</g>
<!-- Node3 -->
<g id="Node000003" class="node">
<title>Node3</title>
<g id="a_Node000003"><a xlink:href="Analytics_8h.html" target="_top" xlink:title=" ">
<polygon fill="white" stroke="#666666" points="78.72,-132 13.97,-132 13.97,-112 78.72,-112 78.72,-132"/>
<text xml:space="preserve" text-anchor="middle" x="46.34" y="-118.5" font-family="Helvetica,sans-Serif" font-size="10.00">Analytics.h</text>
</a>
</g>
</g>
<!-- Node1&#45;&gt;Node3 -->
<g id="edge2_Node000001_Node000003" class="edge">
<title>Node1&#45;&gt;Node3</title>
<g id="a_edge2_Node000001_Node000003"><a xlink:title=" ">
<path fill="none" stroke="#63b8ff" d="M909.81,-177.22C771.7,-177.11 397.15,-172.75 88.34,-132 85.24,-131.59 82.02,-131.07 78.81,-130.49"/>
<polygon fill="#63b8ff" stroke="#63b8ff" points="909.77,-180.72 919.77,-177.22 909.77,-173.72 909.77,-180.72"/>
</a>
</g>
</g>
<!-- Node4 -->
<g id="Node000004" class="node">
<title>Node4</title>
<g id="a_Node000004"><a xlink:href="AssetRegistry_8cpp.html" target="_top" xlink:title=" ">
<polygon fill="white" stroke="#666666" points="1521.47,-132 1425.22,-132 1425.22,-112 1521.47,-112 1521.47,-132"/>
<text xml:space="preserve" text-anchor="middle" x="1473.34" y="-118.5" font-family="Helvetica,sans-Serif" font-size="10.00">AssetRegistry.cpp</text>
</a>
</g>
</g>
<!-- Node1&#45;&gt;Node4 -->
<g id="edge4_Node000001_Node000004" class="edge">
<title>Node1&#45;&gt;Node4</title>
<g id="a_edge4_Node000001_Node000004"><a xlink:title=" ">
<path fill="none" stroke="#63b8ff" d="M1018.9,-172.28C1103.19,-164.82 1270.12,-149.35 1411.34,-132 1415.77,-131.46 1420.37,-130.86 1424.97,-130.23"/>
<polygon fill="#63b8ff" stroke="#63b8ff" points="1018.73,-168.79 1009.07,-173.15 1019.34,-175.76 1018.73,-168.79"/>
</a>
</g>
</g>
<!-- Node5 -->
<g id="Node000005" class="node">
<title>Node5</title>
<g id="a_Node000005"><a xlink:href="Backup_8cpp.html" target="_top" xlink:title=" ">
<polygon fill="white" stroke="#666666" points="410.22,-76 342.47,-76 342.47,-56 410.22,-56 410.22,-76"/>
<text xml:space="preserve" text-anchor="middle" x="376.34" y="-62.5" font-family="Helvetica,sans-Serif" font-size="10.00">Backup.cpp</text>
</a>
</g>
</g>
<!-- Node1&#45;&gt;Node5 -->
<g id="edge5_Node000001_Node000005" class="edge">
<title>Node1&#45;&gt;Node5</title>
<g id="a_edge5_Node000001_Node000005"><a xlink:title=" ">
<path fill="none" stroke="#63b8ff" d="M909.9,-177.14C766.72,-176.94 388.02,-172.54 350.34,-132 335.28,-115.8 354.78,-89.78 367.31,-76.09"/>
<polygon fill="#63b8ff" stroke="#63b8ff" points="909.49,-180.64 919.49,-177.15 909.49,-173.64 909.49,-180.64"/>
</a>
</g>
</g>
<!-- Node6 -->
<g id="Node000006" class="node">
<title>Node6</title>
<g id="a_Node000006"><a xlink:href="Backup_8h.html" target="_top" xlink:title=" ">
<polygon fill="white" stroke="#666666" points="416.97,-132 359.72,-132 359.72,-112 416.97,-112 416.97,-132"/>
<text xml:space="preserve" text-anchor="middle" x="388.34" y="-118.5" font-family="Helvetica,sans-Serif" font-size="10.00">Backup.h</text>
</a>
</g>
</g>
<!-- Node1&#45;&gt;Node6 -->
<g id="edge6_Node000001_Node000006" class="edge">
<title>Node1&#45;&gt;Node6</title>
<g id="a_edge6_Node000001_Node000006"><a xlink:title=" ">
<path fill="none" stroke="#63b8ff" d="M910.08,-174.61C813.43,-169.87 605.29,-157.45 431.34,-132 426.82,-131.34 422.05,-130.49 417.4,-129.58"/>
<polygon fill="#63b8ff" stroke="#63b8ff" points="909.64,-178.09 919.79,-175.08 909.97,-171.1 909.64,-178.09"/>
</a>
</g>
</g>
<!-- Node7 -->
<g id="Node000007" class="node">
<title>Node7</title>
<g id="a_Node000007"><a xlink:href="BenchmarkFS_8cpp.html" target="_top" xlink:title=" ">
<polygon fill="white" stroke="#666666" points="1636.84,-132 1539.84,-132 1539.84,-112 1636.84,-112 1636.84,-132"/>
<text xml:space="preserve" text-anchor="middle" x="1588.34" y="-118.5" font-family="Helvetica,sans-Serif" font-size="10.00">BenchmarkFS.cpp</text>
</a>
</g>
</g>
<!-- Node1&#45;&gt;Node7 -->
<g id="edge8_Node000001_Node000007" class="edge">
<title>Node1&#45;&gt;Node7</title>
<g id="a_edge8_Node000001_Node000007"><a xlink:title=" ">
<path fill="none" stroke="#63b8ff" d="M1018.83,-174.02C1119.9,-168.2 1343.17,-153.93 1530.34,-132 1533.38,-131.64 1536.5,-131.25 1539.64,-130.83"/>
<polygon fill="#63b8ff" stroke="#63b8ff" points="1018.7,-170.53 1008.92,-174.59 1019.1,-177.51 1018.7,-170.53"/>
</a>
</g>
</g>
<!-- Node8 -->
<g id="Node000008" class="node">
<title>Node8</title>
<g id="a_Node000008"><a xlink:href="Bundles_8cpp.html" target="_top" xlink:title=" ">
<polygon fill="white" stroke="#666666" points="316.34,-76 246.34,-76 246.34,-56 316.34,-56 316.34,-76"/>
<text xml:space="preserve" text-anchor="middle" x="281.34" y="-62.5" font-family="Helvetica,sans-Serif" font-size="10.00">Bundles.cpp</text>
</a>
</g>
</g>
<!-- Node1&#45;&gt;Node8 -->
<g id="edge9_Node000001_Node000008" class="edge">
<title>Node1&#45;&gt;Node8</title>
<g id="a_edge9_Node000001_Node000008"><a xlink:title=" ">
<path fill="none" stroke="#63b8ff" d="M909.76,-175.66C744.18,-171.33 257.42,-156.55 234.34,-132 217.36,-113.94 246.72,-89.57 266.18,-76.4"/>
<polygon fill="#63b8ff" stroke="#63b8ff" points="909.52,-179.15 919.6,-175.91 909.7,-172.16 909.52,-179.15"/>
</a>
</g>
</g>
<!-- Node9 -->
<g id="Node000009" class="node">
<title>Node9</title>
<g id="a_Node000009"><a xlink:href="Bundles_8h.html" target="_top" xlink:title=" ">
<polygon fill="white" stroke="#666666" points="303.09,-132 243.59,-132 243.59,-112 303.09,-112 303.09,-132"/>
<text xml:space="preserve" text-anchor="middle" x="273.34" y="-118.5" font-family="Helvetica,sans-Serif" font-size="10.00">Bundles.h</text>
</a>
</g>
</g>
<!-- Node1&#45;&gt;Node9 -->
<g id="edge10_Node000001_Node000009" class="edge">
<title>Node1&#45;&gt;Node9</title>
<g id="a_edge10_Node000001_Node000009"><a xlink:title=" ">
<path fill="none" stroke="#63b8ff" d="M909.7,-175.64C797.97,-172.32 535.54,-161.77 317.34,-132 312.86,-131.39 308.15,-130.59 303.55,-129.73"/>
<polygon fill="#63b8ff" stroke="#63b8ff" points="909.37,-179.13 919.47,-175.92 909.57,-172.13 909.37,-179.13"/>
</a>
</g>
</g>
<!-- Node10 -->
<g id="Node000010" class="node">
<title>Node10</title>
<g id="a_Node000010"><a xlink:href="Cache_8cpp.html" target="_top" xlink:title=" ">
<polygon fill="white" stroke="#666666" points="197.97,-76 134.72,-76 134.72,-56 197.97,-56 197.97,-76"/>
<text xml:space="preserve" text-anchor="middle" x="166.34" y="-62.5" font-family="Helvetica,sans-Serif" font-size="10.00">Cache.cpp</text>
</a>
</g>
</g>
<!-- Node1&#45;&gt;Node10 -->
<g id="edge12_Node000001_Node000010" class="edge">
<title>Node1&#45;&gt;Node10</title>
<g id="a_edge12_Node000001_Node000010"><a xlink:title=" ">
<path fill="none" stroke="#63b8ff" d="M909.75,-176.04C749.27,-172.89 286.5,-161.34 225.34,-132 199.78,-119.74 180.22,-90.98 171.43,-76.17"/>
<polygon fill="#63b8ff" stroke="#63b8ff" points="909.64,-179.54 919.7,-176.23 909.77,-172.54 909.64,-179.54"/>
</a>
</g>
</g>
<!-- Node11 -->
<g id="Node000011" class="node">
<title>Node11</title>
<g id="a_Node000011"><a xlink:href="Cache_8h.html" target="_top" xlink:title=" ">
<polygon fill="white" stroke="#666666" points="149.72,-132 96.97,-132 96.97,-112 149.72,-112 149.72,-132"/>
<text xml:space="preserve" text-anchor="middle" x="123.34" y="-118.5" font-family="Helvetica,sans-Serif" font-size="10.00">Cache.h</text>
</a>
</g>
</g>
<!-- Node1&#45;&gt;Node11 -->
<g id="edge13_Node000001_Node000011" class="edge">
<title>Node1&#45;&gt;Node11</title>
<g id="a_edge13_Node000001_Node000011"><a xlink:title=" ">
<path fill="none" stroke="#63b8ff" d="M909.94,-177.03C780.11,-176.44 442.2,-170.93 163.34,-132 158.97,-131.39 154.37,-130.55 149.91,-129.62"/>
<polygon fill="#63b8ff" stroke="#63b8ff" points="909.59,-180.53 919.61,-177.07 909.62,-173.53 909.59,-180.53"/>
</a>
</g>
</g>
<!-- Node12 -->
<g id="Node000012" class="node">
<title>Node12</title>
<g id="a_Node000012"><a xlink:href="ContentBrowser_8cpp.html" target="_top" xlink:title=" ">
<polygon fill="white" stroke="#666666" points="1318.97,-20 1213.72,-20 1213.72,0 1318.97,0 1318.97,-20"/>
<text xml:space="preserve" text-anchor="middle" x="1266.34" y="-6.5" font-family="Helvetica,sans-Serif" font-size="10.00">ContentBrowser.cpp</text>
</a>
</g>
</g>
<!-- Node1&#45;&gt;Node12 -->
<g id="edge16_Node000001_Node000012" class="edge">
<title>Node1&#45;&gt;Node12</title>
<g id="a_edge16_Node000001_Node000012"><a xlink:title=" ">
<path fill="none" stroke="#63b8ff" d="M1018.94,-174.29C1086.94,-169.82 1197.88,-158.59 1228.34,-132 1262.18,-102.46 1266.22,-43.16 1266.47,-20.29"/>
<polygon fill="#63b8ff" stroke="#63b8ff" points="1018.87,-170.79 1009.11,-174.9 1019.31,-177.77 1018.87,-170.79"/>
</a>
</g>
</g>
<!-- Node13 -->
<g id="Node000013" class="node">
<title>Node13</title>
<g id="a_Node000013"><a xlink:href="Dependencies_8cpp.html" target="_top" xlink:title=" ">
<polygon fill="white" stroke="#666666" points="938.84,-76 841.84,-76 841.84,-56 938.84,-56 938.84,-76"/>
<text xml:space="preserve" text-anchor="middle" x="890.34" y="-62.5" font-family="Helvetica,sans-Serif" font-size="10.00">Dependencies.cpp</text>
</a>
</g>
</g>
<!-- Node1&#45;&gt;Node13 -->
<g id="edge17_Node000001_Node000013" class="edge">
<title>Node1&#45;&gt;Node13</title>
<g id="a_edge17_Node000001_Node000013"><a xlink:title=" ">
<path fill="none" stroke="#63b8ff" d="M990.81,-161.43C1009.31,-148.52 1028.68,-129.5 1016.34,-112 1006.31,-97.76 964.77,-84.76 932.1,-76.43"/>
<polygon fill="#63b8ff" stroke="#63b8ff" points="989.11,-158.36 982.66,-166.76 992.94,-164.22 989.11,-158.36"/>
</a>
</g>
</g>
<!-- Node14 -->
<g id="Node000014" class="node">
<title>Node14</title>
<g id="a_Node000014"><a xlink:href="Dependencies_8h.html" target="_top" xlink:title=" ">
<polygon fill="white" stroke="#666666" points="1007.59,-132 921.09,-132 921.09,-112 1007.59,-112 1007.59,-132"/>
<text xml:space="preserve" text-anchor="middle" x="964.34" y="-118.5" font-family="Helvetica,sans-Serif" font-size="10.00">Dependencies.h</text>
</a>
</g>
</g>
<!-- Node1&#45;&gt;Node14 -->
<g id="edge18_Node000001_Node000014" class="edge">
<title>Node1&#45;&gt;Node14</title>
<g id="a_edge18_Node000001_Node000014"><a xlink:title=" ">
<path fill="none" stroke="#63b8ff" d="M964.34,-156.13C964.34,-147.9 964.34,-138.85 964.34,-132.3"/>
<polygon fill="#63b8ff" stroke="#63b8ff" points="960.84,-156.08 964.34,-166.08 967.84,-156.08 960.84,-156.08"/>
</a>
</g>
</g>
<!-- Node15 -->
<g id="Node000015" class="node">
<title>Node15</title>
<g id="a_Node000015"><a xlink:href="ImportExport_8cpp.html" target="_top" xlink:title=" ">
<polygon fill="white" stroke="#666666" points="1180.84,-76 1089.84,-76 1089.84,-56 1180.84,-56 1180.84,-76"/>
<text xml:space="preserve" text-anchor="middle" x="1135.34" y="-62.5" font-family="Helvetica,sans-Serif" font-size="10.00">ImportExport.cpp</text>
</a>
</g>
</g>
<!-- Node1&#45;&gt;Node15 -->
<g id="edge27_Node000001_Node000015" class="edge">
<title>Node1&#45;&gt;Node15</title>
<g id="a_edge27_Node000001_Node000015"><a xlink:title=" ">
<path fill="none" stroke="#63b8ff" d="M1002.44,-163.49C1022.03,-155.69 1045.84,-144.88 1065.34,-132 1090.25,-115.55 1114.74,-90.1 1127.08,-76.43"/>
<polygon fill="#63b8ff" stroke="#63b8ff" points="1001.23,-160.2 993.15,-167.06 1003.74,-166.73 1001.23,-160.2"/>
</a>
</g>
</g>
<!-- Node16 -->
<g id="Node000016" class="node">
<title>Node16</title>
<g id="a_Node000016"><a xlink:href="TestDependencies_8cpp.html" target="_top" xlink:title=" ">
<polygon fill="white" stroke="#666666" points="1072.22,-76 956.47,-76 956.47,-56 1072.22,-56 1072.22,-76"/>
<text xml:space="preserve" text-anchor="middle" x="1014.34" y="-62.5" font-family="Helvetica,sans-Serif" font-size="10.00">TestDependencies.cpp</text>
</a>
</g>
</g>
<!-- Node1&#45;&gt;Node16 -->
<g id="edge49_Node000001_Node000016" class="edge">
<title>Node1&#45;&gt;Node16</title>
<g id="a_edge49_Node000001_Node000016"><a xlink:title=" ">
<path fill="none" stroke="#63b8ff" d="M1010.64,-163.32C1025.65,-156.45 1040.67,-146.41 1049.34,-132 1060.98,-112.67 1040.07,-89.2 1025.87,-76.41"/>
<polygon fill="#63b8ff" stroke="#63b8ff" points="1009.62,-159.96 1001.72,-167.01 1012.29,-166.43 1009.62,-159.96"/>
</a>
</g>
</g>
<!-- Node17 -->
<g id="Node000017" class="node">
<title>Node17</title>
<g id="a_Node000017"><a xlink:href="Validation_8cpp.html" target="_top" xlink:title=" ">
<polygon fill="white" stroke="#666666" points="504.72,-76 427.97,-76 427.97,-56 504.72,-56 504.72,-76"/>
<text xml:space="preserve" text-anchor="middle" x="466.34" y="-62.5" font-family="Helvetica,sans-Serif" font-size="10.00">Validation.cpp</text>
</a>
</g>
</g>
<!-- Node1&#45;&gt;Node17 -->
<g id="edge52_Node000001_Node000017" class="edge">
<title>Node1&#45;&gt;Node17</title>
<g id="a_edge52_Node000001_Node000017"><a xlink:title=" ">
<path fill="none" stroke="#63b8ff" d="M909.59,-176.15C786.02,-173.66 493.93,-164.37 464.34,-132 450.48,-116.83 457.34,-90.38 462.46,-76.35"/>
<polygon fill="#63b8ff" stroke="#63b8ff" points="909.43,-179.64 919.49,-176.34 909.56,-172.65 909.43,-179.64"/>
</a>
</g>
</g>
<!-- Node18 -->
<g id="Node000018" class="node">
<title>Node18</title>
<g id="a_Node000018"><a xlink:href="main_8cpp.html" target="_top" xlink:title=" ">
<polygon fill="white" stroke="#666666" points="1472.22,-20 1416.47,-20 1416.47,0 1472.22,0 1472.22,-20"/>
<text xml:space="preserve" text-anchor="middle" x="1444.34" y="-6.5" font-family="Helvetica,sans-Serif" font-size="10.00">main.cpp</text>
</a>
</g>
</g>
<!-- Node1&#45;&gt;Node18 -->
<g id="edge63_Node000001_Node000018" class="edge">
<title>Node1&#45;&gt;Node18</title>
<g id="a_edge63_Node000001_Node000018"><a xlink:title=" ">
<path fill="none" stroke="#63b8ff" d="M1018.68,-177.13C1098.65,-175.97 1252,-168.59 1376.34,-132 1395.41,-126.39 1397.52,-118.38 1416.34,-112 1496.5,-84.82 1549.45,-141.26 1603.34,-76 1640.56,-30.93 1527.59,-16.77 1472.59,-12.61"/>
<polygon fill="#63b8ff" stroke="#63b8ff" points="1018.9,-173.62 1008.94,-177.24 1018.98,-180.62 1018.9,-173.62"/>
</a>
</g>
</g>
<!-- Node19 -->
<g id="Node000019" class="node">
<title>Node19</title>
<g id="a_Node000019"><a xlink:href="FSOps_8cpp.html" target="_top" xlink:title=" ">
<polygon fill="white" stroke="#666666" points="1720.09,-132 1654.59,-132 1654.59,-112 1720.09,-112 1720.09,-132"/>
<text xml:space="preserve" text-anchor="middle" x="1687.34" y="-118.5" font-family="Helvetica,sans-Serif" font-size="10.00">FSOps.cpp</text>
</a>
</g>
</g>
<!-- Node1&#45;&gt;Node19 -->
<g id="edge26_Node000001_Node000019" class="edge">
<title>Node1&#45;&gt;Node19</title>
<g id="a_edge26_Node000001_Node000019"><a xlink:title=" ">
<path fill="none" stroke="#63b8ff" d="M1019.04,-176.17C1135.16,-173.81 1414.64,-164.89 1646.34,-132 1648.94,-131.63 1651.62,-131.19 1654.3,-130.7"/>
<polygon fill="#63b8ff" stroke="#63b8ff" points="1019.11,-172.67 1009.18,-176.37 1019.24,-179.67 1019.11,-172.67"/>
</a>
</g>
</g>
<!-- Node20 -->
<g id="Node000020" class="node">
<title>Node20</title>
<g id="a_Node000020"><a xlink:href="ImportExport_8h.html" target="_top" xlink:title=" ">
<polygon fill="white" stroke="#666666" points="1219.59,-132 1139.09,-132 1139.09,-112 1219.59,-112 1219.59,-132"/>
<text xml:space="preserve" text-anchor="middle" x="1179.34" y="-118.5" font-family="Helvetica,sans-Serif" font-size="10.00">ImportExport.h</text>
</a>
</g>
</g>
<!-- Node1&#45;&gt;Node20 -->
<g id="edge28_Node000001_Node000020" class="edge">
<title>Node1&#45;&gt;Node20</title>
<g id="a_edge28_Node000001_Node000020"><a xlink:title=" ">
<path fill="none" stroke="#63b8ff" d="M1012.87,-164.81C1051.84,-155.02 1105.8,-141.47 1141.6,-132.48"/>
<polygon fill="#63b8ff" stroke="#63b8ff" points="1012.11,-161.39 1003.26,-167.23 1013.81,-168.18 1012.11,-161.39"/>
</a>
</g>
</g>
<!-- Node21 -->
<g id="Node000021" class="node">
<title>Node21</title>
<g id="a_Node000021"><a xlink:href="Migration_8cpp.html" target="_top" xlink:title=" ">
<polygon fill="white" stroke="#666666" points="1812.59,-132 1738.09,-132 1738.09,-112 1812.59,-112 1812.59,-132"/>
<text xml:space="preserve" text-anchor="middle" x="1775.34" y="-118.5" font-family="Helvetica,sans-Serif" font-size="10.00">Migration.cpp</text>
</a>
</g>
</g>
<!-- Node1&#45;&gt;Node21 -->
<g id="edge31_Node000001_Node000021" class="edge">
<title>Node1&#45;&gt;Node21</title>
<g id="a_edge31_Node000001_Node000021"><a xlink:title=" ">
<path fill="none" stroke="#63b8ff" d="M1018.87,-176.31C1144.6,-174.16 1464.4,-165.56 1729.34,-132 1732.09,-131.65 1734.92,-131.24 1737.75,-130.78"/>
<polygon fill="#63b8ff" stroke="#63b8ff" points="1019.12,-172.8 1009.18,-176.46 1019.24,-179.8 1019.12,-172.8"/>
</a>
</g>
</g>
<!-- Node22 -->
<g id="Node000022" class="node">
<title>Node22</title>
<g id="a_Node000022"><a xlink:href="Optimization_8cpp.html" target="_top" xlink:title=" ">
<polygon fill="white" stroke="#666666" points="612.09,-76 522.59,-76 522.59,-56 612.09,-56 612.09,-76"/>
<text xml:space="preserve" text-anchor="middle" x="567.34" y="-62.5" font-family="Helvetica,sans-Serif" font-size="10.00">Optimization.cpp</text>
</a>
</g>
</g>
<!-- Node1&#45;&gt;Node22 -->
<g id="edge32_Node000001_Node000022" class="edge">
<title>Node1&#45;&gt;Node22</title>
<g id="a_edge32_Node000001_Node000022"><a xlink:title=" ">
<path fill="none" stroke="#63b8ff" d="M909.75,-177.57C817.24,-177.4 635.08,-171.85 587.34,-132 570.67,-118.08 567.63,-90.59 567.24,-76.23"/>
<polygon fill="#63b8ff" stroke="#63b8ff" points="909.6,-181.07 919.59,-177.56 909.59,-174.07 909.6,-181.07"/>
</a>
</g>
</g>
<!-- Node23 -->
<g id="Node000023" class="node">
<title>Node23</title>
<g id="a_Node000023"><a xlink:href="Optimization_8h.html" target="_top" xlink:title=" ">
<polygon fill="white" stroke="#666666" points="674.84,-132 595.84,-132 595.84,-112 674.84,-112 674.84,-132"/>
<text xml:space="preserve" text-anchor="middle" x="635.34" y="-118.5" font-family="Helvetica,sans-Serif" font-size="10.00">Optimization.h</text>
</a>
</g>
</g>
<!-- Node1&#45;&gt;Node23 -->
<g id="edge33_Node000001_Node000023" class="edge">
<title>Node1&#45;&gt;Node23</title>
<g id="a_edge33_Node000001_Node000023"><a xlink:title=" ">
<path fill="none" stroke="#63b8ff" d="M909.67,-168.1C854.17,-159.06 765.77,-144.62 689.34,-132 684.75,-131.24 679.93,-130.44 675.15,-129.65"/>
<polygon fill="#63b8ff" stroke="#63b8ff" points="909.07,-171.55 919.5,-169.7 910.19,-164.64 909.07,-171.55"/>
</a>
</g>
</g>
<!-- Node24 -->
<g id="Node000024" class="node">
<title>Node24</title>
<g id="a_Node000024"><a xlink:href="Recycle_8cpp.html" target="_top" xlink:title=" ">
<polygon fill="white" stroke="#666666" points="1901.72,-132 1830.97,-132 1830.97,-112 1901.72,-112 1901.72,-132"/>
<text xml:space="preserve" text-anchor="middle" x="1866.34" y="-118.5" font-family="Helvetica,sans-Serif" font-size="10.00">Recycle.cpp</text>
</a>
</g>
</g>
<!-- Node1&#45;&gt;Node24 -->
<g id="edge35_Node000001_Node000024" class="edge">
<title>Node1&#45;&gt;Node24</title>
<g id="a_edge35_Node000001_Node000024"><a xlink:title=" ">
<path fill="none" stroke="#63b8ff" d="M1018.62,-176.87C1154.44,-175.96 1519.7,-169.88 1821.34,-132 1824.35,-131.62 1827.45,-131.16 1830.56,-130.64"/>
<polygon fill="#63b8ff" stroke="#63b8ff" points="1018.83,-173.37 1008.85,-176.93 1018.87,-180.37 1018.83,-173.37"/>
</a>
</g>
</g>
<!-- Node25 -->
<g id="Node000025" class="node">
<title>Node25</title>
<g id="a_Node000025"><a xlink:href="Search_8h.html" target="_top" xlink:title=" ">
<polygon fill="white" stroke="#666666" points="1330.84,-132 1275.84,-132 1275.84,-112 1330.84,-112 1330.84,-132"/>
<text xml:space="preserve" text-anchor="middle" x="1303.34" y="-118.5" font-family="Helvetica,sans-Serif" font-size="10.00">Search.h</text>
</a>
</g>
</g>
<!-- Node1&#45;&gt;Node25 -->
<g id="edge36_Node000001_Node000025" class="edge">
<title>Node1&#45;&gt;Node25</title>
<g id="a_edge36_Node000001_Node000025"><a xlink:title=" ">
<path fill="none" stroke="#63b8ff" d="M1018.67,-169.78C1078.35,-161.61 1176.94,-147.42 1261.34,-132 1265.89,-131.17 1270.7,-130.21 1275.38,-129.24"/>
<polygon fill="#63b8ff" stroke="#63b8ff" points="1018.2,-166.31 1008.77,-171.13 1019.15,-173.24 1018.2,-166.31"/>
</a>
</g>
</g>
<!-- Node28 -->
<g id="Node000028" class="node">
<title>Node28</title>
<g id="a_Node000028"><a xlink:href="TestSearch_8cpp.html" target="_top" xlink:title=" ">
<polygon fill="white" stroke="#666666" points="1594.47,-76 1510.22,-76 1510.22,-56 1594.47,-56 1594.47,-76"/>
<text xml:space="preserve" text-anchor="middle" x="1552.34" y="-62.5" font-family="Helvetica,sans-Serif" font-size="10.00">TestSearch.cpp</text>
</a>
</g>
</g>
<!-- Node1&#45;&gt;Node28 -->
<g id="edge50_Node000001_Node000028" class="edge">
<title>Node1&#45;&gt;Node28</title>
<g id="a_edge50_Node000001_Node000028"><a xlink:title=" ">
<path fill="none" stroke="#63b8ff" d="M1018.84,-175.84C1092.94,-173.07 1229,-163.68 1340.34,-132 1360.62,-126.23 1363.53,-119.18 1383.34,-112 1425.59,-96.68 1475.47,-84.04 1510.04,-76.09"/>
<polygon fill="#63b8ff" stroke="#63b8ff" points="1018.88,-172.34 1009.01,-176.18 1019.12,-179.34 1018.88,-172.34"/>
</a>
</g>
</g>
<!-- Node29 -->
<g id="Node000029" class="node">
<title>Node29</title>
<g id="a_Node000029"><a xlink:href="Streaming_8cpp.html" target="_top" xlink:title=" ">
<polygon fill="white" stroke="#666666" points="1999.84,-76 1920.84,-76 1920.84,-56 1999.84,-56 1999.84,-76"/>
<text xml:space="preserve" text-anchor="middle" x="1960.34" y="-62.5" font-family="Helvetica,sans-Serif" font-size="10.00">Streaming.cpp</text>
</a>
</g>
</g>
<!-- Node1&#45;&gt;Node29 -->
<g id="edge43_Node000001_Node000029" class="edge">
<title>Node1&#45;&gt;Node29</title>
<g id="a_edge43_Node000001_Node000029"><a xlink:title=" ">
<path fill="none" stroke="#63b8ff" d="M1018.77,-177.06C1208.19,-176.91 1831.38,-173.24 1910.34,-132 1933.82,-119.74 1949.57,-90.98 1956.44,-76.17"/>
<polygon fill="#63b8ff" stroke="#63b8ff" points="1018.96,-173.56 1008.96,-177.06 1018.96,-180.56 1018.96,-173.56"/>
</a>
</g>
</g>
<!-- Node30 -->
<g id="Node000030" class="node">
<title>Node30</title>
<g id="a_Node000030"><a xlink:href="Streaming_8h.html" target="_top" xlink:title=" ">
<polygon fill="white" stroke="#666666" points="2025.59,-132 1957.09,-132 1957.09,-112 2025.59,-112 2025.59,-132"/>
<text xml:space="preserve" text-anchor="middle" x="1991.34" y="-118.5" font-family="Helvetica,sans-Serif" font-size="10.00">Streaming.h</text>
</a>
</g>
</g>
<!-- Node1&#45;&gt;Node30 -->
<g id="edge44_Node000001_Node000030" class="edge">
<title>Node1&#45;&gt;Node30</title>
<g id="a_edge44_Node000001_Node000030"><a xlink:title=" ">
<path fill="none" stroke="#63b8ff" d="M1018.93,-177.15C1167.75,-176.99 1592.85,-172.71 1943.34,-132 1947.72,-131.49 1952.3,-130.82 1956.82,-130.07"/>
<polygon fill="#63b8ff" stroke="#63b8ff" points="1018.97,-173.65 1008.97,-177.16 1018.97,-180.65 1018.97,-173.65"/>
</a>
</g>
</g>
<!-- Node31 -->
<g id="Node000031" class="node">
<title>Node31</title>
<g id="a_Node000031"><a xlink:href="Sync_8cpp.html" target="_top" xlink:title=" ">
<polygon fill="white" stroke="#666666" points="686.97,-76 629.72,-76 629.72,-56 686.97,-56 686.97,-76"/>
<text xml:space="preserve" text-anchor="middle" x="658.34" y="-62.5" font-family="Helvetica,sans-Serif" font-size="10.00">Sync.cpp</text>
</a>
</g>
</g>
<!-- Node1&#45;&gt;Node31 -->
<g id="edge46_Node000001_Node000031" class="edge">
<title>Node1&#45;&gt;Node31</title>
<g id="a_edge46_Node000001_Node000031"><a xlink:title=" ">
<path fill="none" stroke="#63b8ff" d="M909.68,-176.1C858.52,-173.19 781.33,-163.35 722.34,-132 696.61,-118.32 674.81,-90.73 664.58,-76.29"/>
<polygon fill="#63b8ff" stroke="#63b8ff" points="909.47,-179.6 919.63,-176.59 909.81,-172.61 909.47,-179.6"/>
</a>
</g>
</g>
<!-- Node32 -->
<g id="Node000032" class="node">
<title>Node32</title>
<g id="a_Node000032"><a xlink:href="Sync_8h.html" target="_top" xlink:title=" ">
<polygon fill="white" stroke="#666666" points="777.72,-132 730.97,-132 730.97,-112 777.72,-112 777.72,-132"/>
<text xml:space="preserve" text-anchor="middle" x="754.34" y="-118.5" font-family="Helvetica,sans-Serif" font-size="10.00">Sync.h</text>
</a>
</g>
</g>
<!-- Node1&#45;&gt;Node32 -->
<g id="edge47_Node000001_Node000032" class="edge">
<title>Node1&#45;&gt;Node32</title>
<g id="a_edge47_Node000001_Node000032"><a xlink:title=" ">
<path fill="none" stroke="#63b8ff" d="M916.67,-164.74C873.47,-153.63 811.62,-137.73 778.11,-129.11"/>
<polygon fill="#63b8ff" stroke="#63b8ff" points="915.74,-168.12 926.3,-167.22 917.48,-161.34 915.74,-168.12"/>
</a>
</g>
</g>
<!-- Node33 -->
<g id="Node000033" class="node">
<title>Node33</title>
<g id="a_Node000033"><a xlink:href="Thumbs_8cpp.html" target="_top" xlink:title=" ">
<polygon fill="white" stroke="#666666" points="2113.34,-132 2043.34,-132 2043.34,-112 2113.34,-112 2113.34,-132"/>
<text xml:space="preserve" text-anchor="middle" x="2078.34" y="-118.5" font-family="Helvetica,sans-Serif" font-size="10.00">Thumbs.cpp</text>
</a>
</g>
</g>
<!-- Node1&#45;&gt;Node33 -->
<g id="edge51_Node000001_Node000033" class="edge">
<title>Node1&#45;&gt;Node33</title>
<g id="a_edge51_Node000001_Node000033"><a xlink:title=" ">
<path fill="none" stroke="#63b8ff" d="M1018.72,-175.86C1207.6,-171.73 1834.6,-156.47 2034.34,-132 2037.13,-131.66 2040,-131.24 2042.88,-130.76"/>
<polygon fill="#63b8ff" stroke="#63b8ff" points="1018.88,-172.36 1008.95,-176.07 1019.03,-179.36 1018.88,-172.36"/>
</a>
</g>
</g>
<!-- Node34 -->
<g id="Node000034" class="node">
<title>Node34</title>
<g id="a_Node000034"><a xlink:href="Validation_8h.html" target="_top" xlink:title=" ">
<polygon fill="white" stroke="#666666" points="539.47,-132 473.22,-132 473.22,-112 539.47,-112 539.47,-132"/>
<text xml:space="preserve" text-anchor="middle" x="506.34" y="-118.5" font-family="Helvetica,sans-Serif" font-size="10.00">Validation.h</text>
</a>
</g>
</g>
<!-- Node1&#45;&gt;Node34 -->
<g id="edge53_Node000001_Node000034" class="edge">
<title>Node1&#45;&gt;Node34</title>
<g id="a_edge53_Node000001_Node000034"><a xlink:title=" ">
<path fill="none" stroke="#63b8ff" d="M909.9,-172.44C831.03,-165.51 680.54,-151.11 553.34,-132 548.99,-131.35 544.42,-130.58 539.92,-129.77"/>
<polygon fill="#63b8ff" stroke="#63b8ff" points="909.23,-175.89 919.49,-173.27 909.83,-168.92 909.23,-175.89"/>
</a>
</g>
</g>
<!-- Node35 -->
<g id="Node000035" class="node">
<title>Node35</title>
<g id="a_Node000035"><a xlink:href="Versioning_8cpp.html" target="_top" xlink:title=" ">
<polygon fill="white" stroke="#666666" points="785.22,-76 705.47,-76 705.47,-56 785.22,-56 785.22,-76"/>
<text xml:space="preserve" text-anchor="middle" x="745.34" y="-62.5" font-family="Helvetica,sans-Serif" font-size="10.00">Versioning.cpp</text>
</a>
</g>
</g>
<!-- Node1&#45;&gt;Node35 -->
<g id="edge60_Node000001_Node000035" class="edge">
<title>Node1&#45;&gt;Node35</title>
<g id="a_edge60_Node000001_Node000035"><a xlink:title=" ">
<path fill="none" stroke="#63b8ff" d="M909.88,-164.64C883.13,-157.31 851.01,-146.56 824.34,-132 795.97,-116.51 768.01,-90.19 754.22,-76.27"/>
<polygon fill="#63b8ff" stroke="#63b8ff" points="908.96,-168.02 919.52,-167.19 910.75,-161.25 908.96,-168.02"/>
</a>
</g>
</g>
<!-- Node36 -->
<g id="Node000036" class="node">
<title>Node36</title>
<g id="a_Node000036"><a xlink:href="Versioning_8h.html" target="_top" xlink:title=" ">
<polygon fill="white" stroke="#666666" points="902.97,-132 833.72,-132 833.72,-112 902.97,-112 902.97,-132"/>
<text xml:space="preserve" text-anchor="middle" x="868.34" y="-118.5" font-family="Helvetica,sans-Serif" font-size="10.00">Versioning.h</text>
</a>
</g>
</g>
<!-- Node1&#45;&gt;Node36 -->
<g id="edge61_Node000001_Node000036" class="edge">
<title>Node1&#45;&gt;Node36</title>
<g id="a_edge61_Node000001_Node000036"><a xlink:title=" ">
<path fill="none" stroke="#63b8ff" d="M937.82,-162.08C921,-152.62 899.74,-140.66 885.2,-132.48"/>
<polygon fill="#63b8ff" stroke="#63b8ff" points="935.87,-165 946.3,-166.85 939.3,-158.9 935.87,-165"/>
</a>
</g>
</g>
<!-- Node3&#45;&gt;Node2 -->
<g id="edge3_Node000003_Node000002" class="edge">
<title>Node3&#45;&gt;Node2</title>
<g id="a_edge3_Node000003_Node000002"><a xlink:title=" ">
<path fill="none" stroke="#63b8ff" d="M50.53,-100.43C52.23,-92.11 54.1,-82.93 55.45,-76.3"/>
<polygon fill="#63b8ff" stroke="#63b8ff" points="47.13,-99.61 48.56,-110.11 53.99,-101.01 47.13,-99.61"/>
</a>
</g>
</g>
<!-- Node6&#45;&gt;Node5 -->
<g id="edge7_Node000006_Node000005" class="edge">
<title>Node6&#45;&gt;Node5</title>
<g id="a_edge7_Node000006_Node000005"><a xlink:title=" ">
<path fill="none" stroke="#63b8ff" d="M383.77,-100.43C381.92,-92.11 379.88,-82.93 378.41,-76.3"/>
<polygon fill="#63b8ff" stroke="#63b8ff" points="380.34,-101.11 385.92,-110.12 387.17,-99.6 380.34,-101.11"/>
</a>
</g>
</g>
<!-- Node9&#45;&gt;Node8 -->
<g id="edge11_Node000009_Node000008" class="edge">
<title>Node9&#45;&gt;Node8</title>
<g id="a_edge11_Node000009_Node000008"><a xlink:title=" ">
<path fill="none" stroke="#63b8ff" d="M276.39,-100.43C277.62,-92.11 278.98,-82.93 279.97,-76.3"/>
<polygon fill="#63b8ff" stroke="#63b8ff" points="272.96,-99.69 274.96,-110.1 279.89,-100.72 272.96,-99.69"/>
</a>
</g>
</g>
<!-- Node11&#45;&gt;Node2 -->
<g id="edge14_Node000011_Node000002" class="edge">
<title>Node11&#45;&gt;Node2</title>
<g id="a_edge14_Node000011_Node000002"><a xlink:title=" ">
<path fill="none" stroke="#63b8ff" d="M103.06,-104.4C91.77,-95.17 78.13,-84.01 68.71,-76.3"/>
<polygon fill="#63b8ff" stroke="#63b8ff" points="100.72,-107.01 110.68,-110.64 105.15,-101.59 100.72,-107.01"/>
</a>
</g>
</g>
<!-- Node11&#45;&gt;Node10 -->
<g id="edge15_Node000011_Node000010" class="edge">
<title>Node11&#45;&gt;Node10</title>
<g id="a_edge15_Node000011_Node000010"><a xlink:title=" ">
<path fill="none" stroke="#63b8ff" d="M137.9,-102.72C144.97,-93.84 153.17,-83.55 158.94,-76.3"/>
<polygon fill="#63b8ff" stroke="#63b8ff" points="135.27,-100.41 131.78,-110.41 140.74,-104.77 135.27,-100.41"/>
</a>
</g>
</g>
<!-- Node14&#45;&gt;Node2 -->
<g id="edge19_Node000014_Node000002" class="edge">
<title>Node14&#45;&gt;Node2</title>
<g id="a_edge19_Node000014_Node000002"><a xlink:title=" ">
<path fill="none" stroke="#63b8ff" d="M909.31,-111.81C562.29,-74.77 470.37,-106.67 125.34,-76 115.62,-75.14 105.14,-73.9 95.4,-72.62"/>
<polygon fill="#63b8ff" stroke="#63b8ff" points="908.88,-115.28 919.2,-112.88 909.64,-108.32 908.88,-115.28"/>
</a>
</g>
</g>
<!-- Node14&#45;&gt;Node8 -->
<g id="edge20_Node000014_Node000008" class="edge">
<title>Node14&#45;&gt;Node8</title>
<g id="a_edge20_Node000014_Node000008"><a xlink:title=" ">
<path fill="none" stroke="#63b8ff" d="M909.59,-111.8C654.34,-82.64 585.79,-105.6 333.34,-76 327.97,-75.37 322.32,-74.55 316.79,-73.67"/>
<polygon fill="#63b8ff" stroke="#63b8ff" points="908.86,-115.24 919.2,-112.92 909.67,-108.29 908.86,-115.24"/>
</a>
</g>
</g>
<!-- Node14&#45;&gt;Node13 -->
<g id="edge21_Node000014_Node000013" class="edge">
<title>Node14&#45;&gt;Node13</title>
<g id="a_edge21_Node000014_Node000013"><a xlink:title=" ">
<path fill="none" stroke="#63b8ff" d="M942.36,-104.95C929.55,-95.61 913.86,-84.16 903.09,-76.3"/>
<polygon fill="#63b8ff" stroke="#63b8ff" points="940.09,-107.63 950.23,-110.7 944.22,-101.98 940.09,-107.63"/>
</a>
</g>
</g>
<!-- Node14&#45;&gt;Node15 -->
<g id="edge22_Node000014_Node000015" class="edge">
<title>Node14&#45;&gt;Node15</title>
<g id="a_edge22_Node000014_Node000015"><a xlink:title=" ">
<path fill="none" stroke="#63b8ff" d="M1004.95,-108.18C1035.77,-98.44 1077.47,-85.28 1105.32,-76.48"/>
<polygon fill="#63b8ff" stroke="#63b8ff" points="1004.05,-104.79 995.57,-111.14 1006.16,-111.46 1004.05,-104.79"/>
</a>
</g>
</g>
<!-- Node14&#45;&gt;Node16 -->
<g id="edge23_Node000014_Node000016" class="edge">
<title>Node14&#45;&gt;Node16</title>
<g id="a_edge23_Node000014_Node000016"><a xlink:title=" ">
<path fill="none" stroke="#63b8ff" d="M980.75,-103.29C989.09,-94.28 998.88,-83.7 1005.73,-76.3"/>
<polygon fill="#63b8ff" stroke="#63b8ff" points="978.31,-100.77 974.08,-110.48 983.44,-105.52 978.31,-100.77"/>
</a>
</g>
</g>
<!-- Node14&#45;&gt;Node17 -->
<g id="edge24_Node000014_Node000017" class="edge">
<title>Node14&#45;&gt;Node17</title>
<g id="a_edge24_Node000014_Node000017"><a xlink:title=" ">
<path fill="none" stroke="#63b8ff" d="M909.49,-111.72C733.86,-89.27 686.05,-100.27 513.34,-76 510.63,-75.62 507.83,-75.19 505.02,-74.72"/>
<polygon fill="#63b8ff" stroke="#63b8ff" points="908.82,-115.17 919.19,-112.98 909.72,-108.23 908.82,-115.17"/>
</a>
</g>
</g>
<!-- Node14&#45;&gt;Node18 -->
<g id="edge25_Node000014_Node000018" class="edge">
<title>Node14&#45;&gt;Node18</title>
<g id="a_edge25_Node000014_Node000018"><a xlink:title=" ">
<path fill="none" stroke="#63b8ff" d="M909.63,-108.97C878.02,-100.78 842.69,-89.09 833.34,-76 828.18,-68.77 827.29,-62.51 833.34,-56 870.9,-15.62 1273.35,-24.13 1328.34,-20 1358.36,-17.74 1392.73,-15.07 1416.22,-13.22"/>
<polygon fill="#63b8ff" stroke="#63b8ff" points="908.59,-112.31 919.15,-111.34 910.29,-105.52 908.59,-112.31"/>
</a>
</g>
</g>
<!-- Node20&#45;&gt;Node12 -->
<g id="edge29_Node000020_Node000012" class="edge">
<title>Node20&#45;&gt;Node12</title>
<g id="a_edge29_Node000020_Node000012"><a xlink:title=" ">
<path fill="none" stroke="#63b8ff" d="M1193.66,-102.9C1212.39,-79.22 1244.51,-38.6 1258.94,-20.35"/>
<polygon fill="#63b8ff" stroke="#63b8ff" points="1191.16,-100.42 1187.7,-110.43 1196.65,-104.76 1191.16,-100.42"/>
</a>
</g>
</g>
<!-- Node20&#45;&gt;Node15 -->
<g id="edge30_Node000020_Node000015" class="edge">
<title>Node20&#45;&gt;Node15</title>
<g id="a_edge30_Node000020_Node000015"><a xlink:title=" ">
<path fill="none" stroke="#63b8ff" d="M1164.45,-102.72C1157.21,-93.84 1148.83,-83.55 1142.92,-76.3"/>
<polygon fill="#63b8ff" stroke="#63b8ff" points="1161.69,-104.88 1170.72,-110.42 1167.12,-100.46 1161.69,-104.88"/>
</a>
</g>
</g>
<!-- Node23&#45;&gt;Node22 -->
<g id="edge34_Node000023_Node000022" class="edge">
<title>Node23&#45;&gt;Node22</title>
<g id="a_edge34_Node000023_Node000022"><a xlink:title=" ">
<path fill="none" stroke="#63b8ff" d="M614.79,-104.68C603.09,-95.39 588.86,-84.09 579.05,-76.3"/>
<polygon fill="#63b8ff" stroke="#63b8ff" points="612.31,-107.17 622.31,-110.65 616.66,-101.69 612.31,-107.17"/>
</a>
</g>
</g>
<!-- Node25&#45;&gt;Node12 -->
<g id="edge37_Node000025_Node000012" class="edge">
<title>Node25&#45;&gt;Node12</title>
<g id="a_edge37_Node000025_Node000012"><a xlink:title=" ">
<path fill="none" stroke="#63b8ff" d="M1296.61,-100.97C1288.57,-77.07 1275.46,-38.11 1269.49,-20.35"/>
<polygon fill="#63b8ff" stroke="#63b8ff" points="1293.2,-101.82 1299.71,-110.19 1299.84,-99.59 1293.2,-101.82"/>
</a>
</g>
</g>
<!-- Node26 -->
<g id="Node000026" class="node">
<title>Node26</title>
<g id="a_Node000026"><a xlink:href="ContentBrowser_8h.html" target="_top" xlink:title=" ">
<polygon fill="white" stroke="#666666" points="1491.72,-76 1396.97,-76 1396.97,-56 1491.72,-56 1491.72,-76"/>
<text xml:space="preserve" text-anchor="middle" x="1444.34" y="-62.5" font-family="Helvetica,sans-Serif" font-size="10.00">ContentBrowser.h</text>
</a>
</g>
</g>
<!-- Node25&#45;&gt;Node26 -->
<g id="edge38_Node000025_Node000026" class="edge">
<title>Node25&#45;&gt;Node26</title>
<g id="a_edge38_Node000025_Node000026"><a xlink:title=" ">
<path fill="none" stroke="#63b8ff" d="M1338.51,-107.53C1363.74,-97.87 1397.12,-85.08 1419.59,-76.48"/>
<polygon fill="#63b8ff" stroke="#63b8ff" points="1337.4,-104.21 1329.32,-111.05 1339.91,-110.74 1337.4,-104.21"/>
</a>
</g>
</g>
<!-- Node27 -->
<g id="Node000027" class="node">
<title>Node27</title>
<g id="a_Node000027"><a xlink:href="Search_8cpp.html" target="_top" xlink:title=" ">
<polygon fill="white" stroke="#666666" points="1379.09,-76 1313.59,-76 1313.59,-56 1379.09,-56 1379.09,-76"/>
<text xml:space="preserve" text-anchor="middle" x="1346.34" y="-62.5" font-family="Helvetica,sans-Serif" font-size="10.00">Search.cpp</text>
</a>
</g>
</g>
<!-- Node25&#45;&gt;Node27 -->
<g id="edge41_Node000025_Node000027" class="edge">
<title>Node25&#45;&gt;Node27</title>
<g id="a_edge41_Node000025_Node000027"><a xlink:title=" ">
<path fill="none" stroke="#63b8ff" d="M1317.9,-102.72C1324.97,-93.84 1333.17,-83.55 1338.94,-76.3"/>
<polygon fill="#63b8ff" stroke="#63b8ff" points="1315.27,-100.41 1311.78,-110.41 1320.74,-104.77 1315.27,-100.41"/>
</a>
</g>
</g>
<!-- Node25&#45;&gt;Node28 -->
<g id="edge42_Node000025_Node000028" class="edge">
<title>Node25&#45;&gt;Node28</title>
<g id="a_edge42_Node000025_Node000028"><a xlink:title=" ">
<path fill="none" stroke="#63b8ff" d="M1342.13,-112.59C1387.71,-102.7 1463.07,-86.36 1510.1,-76.16"/>
<polygon fill="#63b8ff" stroke="#63b8ff" points="1341.45,-109.15 1332.42,-114.69 1342.94,-115.99 1341.45,-109.15"/>
</a>
</g>
</g>
<!-- Node26&#45;&gt;Node12 -->
<g id="edge39_Node000026_Node000012" class="edge">
<title>Node26&#45;&gt;Node12</title>
<g id="a_edge39_Node000026_Node000012"><a xlink:title=" ">
<path fill="none" stroke="#63b8ff" d="M1402.5,-52.31C1370.37,-42.56 1326.72,-29.32 1297.59,-20.48"/>
<polygon fill="#63b8ff" stroke="#63b8ff" points="1401.3,-55.6 1411.89,-55.15 1403.34,-48.9 1401.3,-55.6"/>
</a>
</g>
</g>
<!-- Node26&#45;&gt;Node18 -->
<g id="edge40_Node000026_Node000018" class="edge">
<title>Node26&#45;&gt;Node18</title>
<g id="a_edge40_Node000026_Node000018"><a xlink:title=" ">
<path fill="none" stroke="#63b8ff" d="M1444.34,-44.13C1444.34,-35.9 1444.34,-26.85 1444.34,-20.3"/>
<polygon fill="#63b8ff" stroke="#63b8ff" points="1440.84,-44.08 1444.34,-54.08 1447.84,-44.08 1440.84,-44.08"/>
</a>
</g>
</g>
<!-- Node30&#45;&gt;Node29 -->
<g id="edge45_Node000030_Node000029" class="edge">
<title>Node30&#45;&gt;Node29</title>
<g id="a_edge45_Node000030_Node000029"><a xlink:title=" ">
<path fill="none" stroke="#63b8ff" d="M1980.36,-101.87C1975.38,-93.19 1969.71,-83.32 1965.68,-76.3"/>
<polygon fill="#63b8ff" stroke="#63b8ff" points="1977.18,-103.35 1985.19,-110.28 1983.25,-99.87 1977.18,-103.35"/>
</a>
</g>
</g>
<!-- Node32&#45;&gt;Node31 -->
<g id="edge48_Node000032_Node000031" class="edge">
<title>Node32&#45;&gt;Node31</title>
<g id="a_edge48_Node000032_Node000031"><a xlink:title=" ">
<path fill="none" stroke="#63b8ff" d="M727.82,-106.08C711,-96.62 689.74,-84.66 675.2,-76.48"/>
<polygon fill="#63b8ff" stroke="#63b8ff" points="725.87,-109 736.3,-110.85 729.3,-102.9 725.87,-109"/>
</a>
</g>
</g>
<!-- Node34&#45;&gt;Node5 -->
<g id="edge54_Node000034_Node000005" class="edge">
<title>Node34&#45;&gt;Node5</title>
<g id="a_edge54_Node000034_Node000005"><a xlink:title=" ">
<path fill="none" stroke="#63b8ff" d="M473.29,-107.27C450.1,-97.64 419.69,-85.01 399.16,-76.48"/>
<polygon fill="#63b8ff" stroke="#63b8ff" points="471.72,-110.41 482.3,-111.01 474.41,-103.94 471.72,-110.41"/>
</a>
</g>
</g>
<!-- Node34&#45;&gt;Node8 -->
<g id="edge55_Node000034_Node000008" class="edge">
<title>Node34&#45;&gt;Node8</title>
<g id="a_edge55_Node000034_Node000008"><a xlink:title=" ">
<path fill="none" stroke="#63b8ff" d="M461.98,-110.35C419.35,-100.12 355.79,-84.87 316.53,-75.45"/>
<polygon fill="#63b8ff" stroke="#63b8ff" points="461.13,-113.75 471.67,-112.68 462.76,-106.94 461.13,-113.75"/>
</a>
</g>
</g>
<!-- Node34&#45;&gt;Node17 -->
<g id="edge58_Node000034_Node000017" class="edge">
<title>Node34&#45;&gt;Node17</title>
<g id="a_edge58_Node000034_Node000017"><a xlink:title=" ">
<path fill="none" stroke="#63b8ff" d="M492.59,-102.44C486.06,-93.62 478.54,-83.47 473.23,-76.3"/>
<polygon fill="#63b8ff" stroke="#63b8ff" points="489.71,-104.43 498.47,-110.38 495.34,-100.26 489.71,-104.43"/>
</a>
</g>
</g>
<!-- Node34&#45;&gt;Node22 -->
<g id="edge56_Node000034_Node000022" class="edge">
<title>Node34&#45;&gt;Node22</title>
<g id="a_edge56_Node000034_Node000022"><a xlink:title=" ">
<path fill="none" stroke="#63b8ff" d="M525.41,-104.13C535.78,-94.94 548.22,-83.93 556.84,-76.3"/>
<polygon fill="#63b8ff" stroke="#63b8ff" points="523.27,-101.34 518.1,-110.59 527.91,-106.58 523.27,-101.34"/>
</a>
</g>
</g>
<!-- Node34&#45;&gt;Node31 -->
<g id="edge57_Node000034_Node000031" class="edge">
<title>Node34&#45;&gt;Node31</title>
<g id="a_edge57_Node000034_Node000031"><a xlink:title=" ">
<path fill="none" stroke="#63b8ff" d="M543.52,-107.79C570.81,-98.1 607.22,-85.16 631.66,-76.48"/>
<polygon fill="#63b8ff" stroke="#63b8ff" points="542.5,-104.44 534.25,-111.09 544.84,-111.04 542.5,-104.44"/>
</a>
</g>
</g>
<!-- Node34&#45;&gt;Node35 -->
<g id="edge59_Node000034_Node000035" class="edge">
<title>Node34&#45;&gt;Node35</title>
<g id="a_edge59_Node000034_Node000035"><a xlink:title=" ">
<path fill="none" stroke="#63b8ff" d="M550.85,-110.94C595.18,-100.93 662.62,-85.69 705.31,-76.04"/>
<polygon fill="#63b8ff" stroke="#63b8ff" points="550.29,-107.48 541.3,-113.1 551.83,-114.31 550.29,-107.48"/>
</a>
</g>
</g>
<!-- Node36&#45;&gt;Node35 -->
<g id="edge62_Node000036_Node000035" class="edge">
<title>Node36&#45;&gt;Node35</title>
<g id="a_edge62_Node000036_Node000035"><a xlink:title=" ">
<path fill="none" stroke="#63b8ff" d="M836.48,-107.01C814.61,-97.41 786.18,-84.93 766.94,-76.48"/>
<polygon fill="#63b8ff" stroke="#63b8ff" points="834.97,-110.17 845.53,-110.99 837.78,-103.76 834.97,-110.17"/>
</a>
</g>
</g>
</g>
</svg>
