<?xml version="1.0" encoding="UTF-8" standalone="no"?>
<!DOCTYPE svg PUBLIC "-//W3C//DTD SVG 1.1//EN"
 "http://www.w3.org/Graphics/SVG/1.1/DTD/svg11.dtd">
<!-- Generated by graphviz version 14.0.2 (20251019.1705)
 -->
<!-- Title: AssetManager.h Pages: 1 -->
<svg width="1118pt" height="252pt"
 viewBox="0.00 0.00 1118.00 252.00" xmlns="http://www.w3.org/2000/svg" xmlns:xlink="http://www.w3.org/1999/xlink">
<g id="graph0" class="graph" transform="scale(1 1) rotate(0) translate(4 248)">
<title>AssetManager.h</title>
<!-- Node1 -->
<g id="Node000001" class="node">
<title>Node1</title>
<g id="a_Node000001"><a xlink:title=" ">
<polygon fill="#999999" stroke="#666666" points="699.62,-244 612.38,-244 612.38,-224 699.62,-224 699.62,-244"/>
<text xml:space="preserve" text-anchor="middle" x="656" y="-230.5" font-family="Helvetica,sans-Serif" font-size="10.00">AssetManager.h</text>
</a>
</g>
</g>
<!-- Node2 -->
<g id="Node000002" class="node">
<title>Node2</title>
<g id="a_Node000002"><a xlink:href="AssetMeta_8h.html" target="_top" xlink:title=" ">
<polygon fill="white" stroke="#666666" points="906.12,-76 779.88,-76 779.88,-56 906.12,-56 906.12,-76"/>
<text xml:space="preserve" text-anchor="middle" x="843" y="-62.5" font-family="Helvetica,sans-Serif" font-size="10.00">LGE/assets/AssetMeta.h</text>
</a>
</g>
</g>
<!-- Node1&#45;&gt;Node2 -->
<g id="edge1_Node000001_Node000002" class="edge">
<title>Node1&#45;&gt;Node2</title>
<g id="a_edge1_Node000001_Node000002"><a xlink:title=" ">
<path fill="none" stroke="#63b8ff" d="M700.05,-230.48C760.72,-224.36 868.04,-203.44 917,-132 931.27,-111.17 904.46,-92.75 879.21,-80.88"/>
<polygon fill="#63b8ff" stroke="#63b8ff" points="880.92,-77.81 870.36,-76.97 878.1,-84.21 880.92,-77.81"/>
</a>
</g>
</g>
<!-- Node3 -->
<g id="Node000003" class="node">
<title>Node3</title>
<g id="a_Node000003"><a xlink:title=" ">
<polygon fill="#e0e0e0" stroke="#999999" points="734,-20 694,-20 694,0 734,0 734,-20"/>
<text xml:space="preserve" text-anchor="middle" x="714" y="-6.5" font-family="Helvetica,sans-Serif" font-size="10.00">string</text>
</a>
</g>
</g>
<!-- Node1&#45;&gt;Node3 -->
<g id="edge29_Node000001_Node000003" class="edge">
<title>Node1&#45;&gt;Node3</title>
<g id="a_edge29_Node000001_Node000003"><a xlink:title=" ">
<path fill="none" stroke="#63b8ff" d="M663.11,-223.52C669.32,-214.76 678.1,-201.15 683,-188 703.21,-133.81 710.4,-65.28 712.84,-31.6"/>
<polygon fill="#63b8ff" stroke="#63b8ff" points="716.33,-31.86 713.48,-21.66 709.34,-31.41 716.33,-31.86"/>
</a>
</g>
</g>
<!-- Node5 -->
<g id="Node000005" class="node">
<title>Node5</title>
<g id="a_Node000005"><a xlink:href="FileSystemWatcher_8h.html" target="_top" xlink:title=" ">
<polygon fill="white" stroke="#666666" points="262.25,-132 97.75,-132 97.75,-112 262.25,-112 262.25,-132"/>
<text xml:space="preserve" text-anchor="middle" x="180" y="-118.5" font-family="Helvetica,sans-Serif" font-size="10.00">LGE/assets/FileSystemWatcher.h</text>
</a>
</g>
</g>
<!-- Node1&#45;&gt;Node5 -->
<g id="edge4_Node000001_Node000005" class="edge">
<title>Node1&#45;&gt;Node5</title>
<g id="a_edge4_Node000001_Node000005"><a xlink:title=" ">
<path fill="none" stroke="#63b8ff" d="M611.89,-230.4C525.41,-224.88 336.7,-210.61 276,-188 246.45,-176.99 217.11,-155.11 198.79,-139.79"/>
<polygon fill="#63b8ff" stroke="#63b8ff" points="201.29,-137.32 191.42,-133.45 196.72,-142.63 201.29,-137.32"/>
</a>
</g>
</g>
<!-- Node6 -->
<g id="Node000006" class="node">
<title>Node6</title>
<g id="a_Node000006"><a xlink:title=" ">
<polygon fill="#e0e0e0" stroke="#999999" points="58,-76 0,-76 0,-56 58,-56 58,-76"/>
<text xml:space="preserve" text-anchor="middle" x="29" y="-62.5" font-family="Helvetica,sans-Serif" font-size="10.00">functional</text>
</a>
</g>
</g>
<!-- Node1&#45;&gt;Node6 -->
<g id="edge33_Node000001_Node000006" class="edge">
<title>Node1&#45;&gt;Node6</title>
<g id="a_edge33_Node000001_Node000006"><a xlink:title=" ">
<path fill="none" stroke="#63b8ff" d="M612.03,-232.04C534.73,-229.53 369.89,-220.49 235,-188 167.43,-171.73 146.52,-171 89,-132 70.2,-119.26 53.1,-99.55 42.01,-85.17"/>
<polygon fill="#63b8ff" stroke="#63b8ff" points="45.03,-83.36 36.25,-77.44 39.41,-87.55 45.03,-83.36"/>
</a>
</g>
</g>
<!-- Node7 -->
<g id="Node000007" class="node">
<title>Node7</title>
<g id="a_Node000007"><a xlink:title=" ">
<polygon fill="#e0e0e0" stroke="#999999" points="563.62,-76 512.38,-76 512.38,-56 563.62,-56 563.62,-76"/>
<text xml:space="preserve" text-anchor="middle" x="538" y="-62.5" font-family="Helvetica,sans-Serif" font-size="10.00">memory</text>
</a>
</g>
</g>
<!-- Node1&#45;&gt;Node7 -->
<g id="edge32_Node000001_Node000007" class="edge">
<title>Node1&#45;&gt;Node7</title>
<g id="a_edge32_Node000001_Node000007"><a xlink:title=" ">
<path fill="none" stroke="#63b8ff" d="M659.33,-223.78C666.55,-202.07 681.12,-146.91 657,-112 638.76,-85.61 602.91,-74.68 575.31,-70.16"/>
<polygon fill="#63b8ff" stroke="#63b8ff" points="575.94,-66.71 565.55,-68.8 574.97,-73.65 575.94,-66.71"/>
</a>
</g>
</g>
<!-- Node8 -->
<g id="Node000008" class="node">
<title>Node8</title>
<g id="a_Node000008"><a xlink:title=" ">
<polygon fill="#e0e0e0" stroke="#999999" points="343.5,-76 300.5,-76 300.5,-56 343.5,-56 343.5,-76"/>
<text xml:space="preserve" text-anchor="middle" x="322" y="-62.5" font-family="Helvetica,sans-Serif" font-size="10.00">vector</text>
</a>
</g>
</g>
<!-- Node1&#45;&gt;Node8 -->
<g id="edge30_Node000001_Node000008" class="edge">
<title>Node1&#45;&gt;Node8</title>
<g id="a_edge30_Node000001_Node000008"><a xlink:title=" ">
<path fill="none" stroke="#63b8ff" d="M611.95,-233.29C557.45,-231.96 463.15,-223.99 392,-188 360.03,-171.82 350.95,-163.57 334,-132 326.68,-118.36 323.74,-101.05 322.6,-87.72"/>
<polygon fill="#63b8ff" stroke="#63b8ff" points="326.1,-87.72 322.06,-77.92 319.12,-88.1 326.1,-87.72"/>
</a>
</g>
</g>
<!-- Node12 -->
<g id="Node000012" class="node">
<title>Node12</title>
<g id="a_Node000012"><a xlink:href="ImporterRegistry_8h.html" target="_top" xlink:title=" ">
<polygon fill="white" stroke="#666666" points="552.5,-188 401.5,-188 401.5,-168 552.5,-168 552.5,-188"/>
<text xml:space="preserve" text-anchor="middle" x="477" y="-174.5" font-family="Helvetica,sans-Serif" font-size="10.00">LGE/assets/ImporterRegistry.h</text>
</a>
</g>
</g>
<!-- Node1&#45;&gt;Node12 -->
<g id="edge12_Node000001_Node000012" class="edge">
<title>Node1&#45;&gt;Node12</title>
<g id="a_edge12_Node000001_Node000012"><a xlink:title=" ">
<path fill="none" stroke="#63b8ff" d="M624.82,-223.59C595.61,-214.78 551.72,-201.54 519.35,-191.78"/>
<polygon fill="#63b8ff" stroke="#63b8ff" points="520.46,-188.45 509.87,-188.92 518.43,-195.16 520.46,-188.45"/>
</a>
</g>
</g>
<!-- Node14 -->
<g id="Node000014" class="node">
<title>Node14</title>
<g id="a_Node000014"><a xlink:title=" ">
<polygon fill="#e0e0e0" stroke="#999999" points="648.38,-132 565.62,-132 565.62,-112 648.38,-112 648.38,-132"/>
<text xml:space="preserve" text-anchor="middle" x="607" y="-118.5" font-family="Helvetica,sans-Serif" font-size="10.00">unordered_map</text>
</a>
</g>
</g>
<!-- Node1&#45;&gt;Node14 -->
<g id="edge31_Node000001_Node000014" class="edge">
<title>Node1&#45;&gt;Node14</title>
<g id="a_edge31_Node000001_Node000014"><a xlink:title=" ">
<path fill="none" stroke="#63b8ff" d="M651.82,-223.62C643.87,-205.76 626.39,-166.53 615.76,-142.67"/>
<polygon fill="#63b8ff" stroke="#63b8ff" points="619.05,-141.45 611.78,-133.74 612.66,-144.3 619.05,-141.45"/>
</a>
</g>
</g>
<!-- Node15 -->
<g id="Node000015" class="node">
<title>Node15</title>
<g id="a_Node000015"><a xlink:href="AssetMetadata_8h.html" target="_top" xlink:title=" ">
<polygon fill="white" stroke="#666666" points="1109.5,-132 964.5,-132 964.5,-112 1109.5,-112 1109.5,-132"/>
<text xml:space="preserve" text-anchor="middle" x="1037" y="-118.5" font-family="Helvetica,sans-Serif" font-size="10.00">LGE/assets/AssetMetadata.h</text>
</a>
</g>
</g>
<!-- Node1&#45;&gt;Node15 -->
<g id="edge22_Node000001_Node000015" class="edge">
<title>Node1&#45;&gt;Node15</title>
<g id="a_edge22_Node000001_Node000015"><a xlink:title=" ">
<path fill="none" stroke="#63b8ff" d="M699.88,-232.84C758.96,-231.2 866.3,-223.07 950,-188 977,-176.69 1003.25,-155.19 1019.73,-140.02"/>
<polygon fill="#63b8ff" stroke="#63b8ff" points="1021.87,-142.81 1026.72,-133.39 1017.05,-137.73 1021.87,-142.81"/>
</a>
</g>
</g>
<!-- Node16 -->
<g id="Node000016" class="node">
<title>Node16</title>
<g id="a_Node000016"><a xlink:href="ThumbnailGenerator_8h.html" target="_top" xlink:title=" ">
<polygon fill="white" stroke="#666666" points="908.38,-132 741.62,-132 741.62,-112 908.38,-112 908.38,-132"/>
<text xml:space="preserve" text-anchor="middle" x="825" y="-118.5" font-family="Helvetica,sans-Serif" font-size="10.00">LGE/assets/ThumbnailGenerator.h</text>
</a>
</g>
</g>
<!-- Node1&#45;&gt;Node16 -->
<g id="edge25_Node000001_Node000016" class="edge">
<title>Node1&#45;&gt;Node16</title>
<g id="a_edge25_Node000001_Node000016"><a xlink:title=" ">
<path fill="none" stroke="#63b8ff" d="M671.26,-223.66C685.89,-214.65 708.57,-200.58 728,-188 753.5,-171.49 782.39,-152.03 801.96,-138.74"/>
<polygon fill="#63b8ff" stroke="#63b8ff" points="803.73,-141.77 810.03,-133.25 799.79,-135.98 803.73,-141.77"/>
</a>
</g>
</g>
<!-- Node2&#45;&gt;Node3 -->
<g id="edge2_Node000002_Node000003" class="edge">
<title>Node2&#45;&gt;Node3</title>
<g id="a_edge2_Node000002_Node000003"><a xlink:title=" ">
<path fill="none" stroke="#63b8ff" d="M820.53,-55.59C799.47,-46.78 767.81,-33.53 744.48,-23.76"/>
<polygon fill="#63b8ff" stroke="#63b8ff" points="746.07,-20.63 735.49,-20 743.36,-27.09 746.07,-20.63"/>
</a>
</g>
</g>
<!-- Node4 -->
<g id="Node000004" class="node">
<title>Node4</title>
<g id="a_Node000004"><a xlink:title=" ">
<polygon fill="#e0e0e0" stroke="#999999" points="865.62,-20 820.38,-20 820.38,0 865.62,0 865.62,-20"/>
<text xml:space="preserve" text-anchor="middle" x="843" y="-6.5" font-family="Helvetica,sans-Serif" font-size="10.00">cstdint</text>
</a>
</g>
</g>
<!-- Node2&#45;&gt;Node4 -->
<g id="edge3_Node000002_Node000004" class="edge">
<title>Node2&#45;&gt;Node4</title>
<g id="a_edge3_Node000002_Node000004"><a xlink:title=" ">
<path fill="none" stroke="#63b8ff" d="M843,-55.59C843,-49.01 843,-39.96 843,-31.73"/>
<polygon fill="#63b8ff" stroke="#63b8ff" points="846.5,-31.81 843,-21.81 839.5,-31.81 846.5,-31.81"/>
</a>
</g>
</g>
<!-- Node5&#45;&gt;Node3 -->
<g id="edge5_Node000005_Node000003" class="edge">
<title>Node5&#45;&gt;Node3</title>
<g id="a_edge5_Node000005_Node000003"><a xlink:title=" ">
<path fill="none" stroke="#63b8ff" d="M195,-111.74C222.87,-94.6 280.76,-59.37 291,-56 363.87,-32.02 597.06,-17.33 682.36,-12.64"/>
<polygon fill="#63b8ff" stroke="#63b8ff" points="682.3,-16.15 692.1,-12.11 681.92,-9.16 682.3,-16.15"/>
</a>
</g>
</g>
<!-- Node5&#45;&gt;Node6 -->
<g id="edge6_Node000005_Node000006" class="edge">
<title>Node5&#45;&gt;Node6</title>
<g id="a_edge6_Node000005_Node000006"><a xlink:title=" ">
<path fill="none" stroke="#63b8ff" d="M153.7,-111.59C129.49,-102.94 93.32,-90 66.16,-80.29"/>
<polygon fill="#63b8ff" stroke="#63b8ff" points="67.53,-77.06 56.93,-76.99 65.17,-83.65 67.53,-77.06"/>
</a>
</g>
</g>
<!-- Node5&#45;&gt;Node7 -->
<g id="edge7_Node000005_Node000007" class="edge">
<title>Node5&#45;&gt;Node7</title>
<g id="a_edge7_Node000005_Node000007"><a xlink:title=" ">
<path fill="none" stroke="#63b8ff" d="M242.77,-111.53C317.4,-100.27 439.54,-81.85 500.68,-72.63"/>
<polygon fill="#63b8ff" stroke="#63b8ff" points="501.19,-76.09 510.56,-71.14 500.15,-69.17 501.19,-76.09"/>
</a>
</g>
</g>
<!-- Node5&#45;&gt;Node8 -->
<g id="edge8_Node000005_Node000008" class="edge">
<title>Node5&#45;&gt;Node8</title>
<g id="a_edge8_Node000005_Node000008"><a xlink:title=" ">
<path fill="none" stroke="#63b8ff" d="M204.73,-111.59C228.27,-102.64 263.81,-89.13 289.6,-79.32"/>
<polygon fill="#63b8ff" stroke="#63b8ff" points="290.82,-82.6 298.92,-75.78 288.33,-76.06 290.82,-82.6"/>
</a>
</g>
</g>
<!-- Node9 -->
<g id="Node000009" class="node">
<title>Node9</title>
<g id="a_Node000009"><a xlink:title=" ">
<polygon fill="#e0e0e0" stroke="#999999" points="180.5,-76 137.5,-76 137.5,-56 180.5,-56 180.5,-76"/>
<text xml:space="preserve" text-anchor="middle" x="159" y="-62.5" font-family="Helvetica,sans-Serif" font-size="10.00">thread</text>
</a>
</g>
</g>
<!-- Node5&#45;&gt;Node9 -->
<g id="edge9_Node000005_Node000009" class="edge">
<title>Node5&#45;&gt;Node9</title>
<g id="a_edge9_Node000005_Node000009"><a xlink:title=" ">
<path fill="none" stroke="#63b8ff" d="M176.34,-111.59C173.69,-104.78 170.01,-95.32 166.72,-86.86"/>
<polygon fill="#63b8ff" stroke="#63b8ff" points="170.05,-85.76 163.16,-77.71 163.53,-88.3 170.05,-85.76"/>
</a>
</g>
</g>
<!-- Node10 -->
<g id="Node000010" class="node">
<title>Node10</title>
<g id="a_Node000010"><a xlink:title=" ">
<polygon fill="#e0e0e0" stroke="#999999" points="243.62,-76 198.38,-76 198.38,-56 243.62,-56 243.62,-76"/>
<text xml:space="preserve" text-anchor="middle" x="221" y="-62.5" font-family="Helvetica,sans-Serif" font-size="10.00">atomic</text>
</a>
</g>
</g>
<!-- Node5&#45;&gt;Node10 -->
<g id="edge10_Node000005_Node000010" class="edge">
<title>Node5&#45;&gt;Node10</title>
<g id="a_edge10_Node000005_Node000010"><a xlink:title=" ">
<path fill="none" stroke="#63b8ff" d="M187.14,-111.59C192.61,-104.39 200.32,-94.23 207.01,-85.43"/>
<polygon fill="#63b8ff" stroke="#63b8ff" points="209.77,-87.58 213.02,-77.5 204.19,-83.35 209.77,-87.58"/>
</a>
</g>
</g>
<!-- Node11 -->
<g id="Node000011" class="node">
<title>Node11</title>
<g id="a_Node000011"><a xlink:title=" ">
<polygon fill="#e0e0e0" stroke="#999999" points="119.5,-76 76.5,-76 76.5,-56 119.5,-56 119.5,-76"/>
<text xml:space="preserve" text-anchor="middle" x="98" y="-62.5" font-family="Helvetica,sans-Serif" font-size="10.00">mutex</text>
</a>
</g>
</g>
<!-- Node5&#45;&gt;Node11 -->
<g id="edge11_Node000005_Node000011" class="edge">
<title>Node5&#45;&gt;Node11</title>
<g id="a_edge11_Node000005_Node000011"><a xlink:title=" ">
<path fill="none" stroke="#63b8ff" d="M165.72,-111.59C153.56,-103.59 135.86,-91.93 121.6,-82.54"/>
<polygon fill="#63b8ff" stroke="#63b8ff" points="123.94,-79.89 113.66,-77.31 120.09,-85.73 123.94,-79.89"/>
</a>
</g>
</g>
<!-- Node12&#45;&gt;Node3 -->
<g id="edge18_Node000012_Node000003" class="edge">
<title>Node12&#45;&gt;Node3</title>
<g id="a_edge18_Node000012_Node000003"><a xlink:title=" ">
<path fill="none" stroke="#63b8ff" d="M440.22,-167.56C408.45,-157.38 369.86,-138.94 385,-112 408.45,-70.27 432.32,-73.19 477,-56 547.33,-28.95 635.87,-17.69 682.28,-13.39"/>
<polygon fill="#63b8ff" stroke="#63b8ff" points="682.51,-16.89 692.16,-12.53 681.9,-9.91 682.51,-16.89"/>
</a>
</g>
</g>
<!-- Node12&#45;&gt;Node7 -->
<g id="edge20_Node000012_Node000007" class="edge">
<title>Node12&#45;&gt;Node7</title>
<g id="a_edge20_Node000012_Node000007"><a xlink:title=" ">
<path fill="none" stroke="#63b8ff" d="M487.86,-167.66C497.07,-159.2 510.04,-145.95 518,-132 525.9,-118.17 531.02,-100.87 534.11,-87.59"/>
<polygon fill="#63b8ff" stroke="#63b8ff" points="537.53,-88.33 536.15,-77.82 530.68,-86.89 537.53,-88.33"/>
</a>
</g>
</g>
<!-- Node12&#45;&gt;Node8 -->
<g id="edge19_Node000012_Node000008" class="edge">
<title>Node12&#45;&gt;Node8</title>
<g id="a_edge19_Node000012_Node000008"><a xlink:title=" ">
<path fill="none" stroke="#63b8ff" d="M423.43,-167.57C399.24,-161.01 371.72,-150.08 352,-132 338.97,-120.06 331.16,-101.33 326.79,-87.04"/>
<polygon fill="#63b8ff" stroke="#63b8ff" points="330.28,-86.52 324.29,-77.78 323.52,-88.35 330.28,-86.52"/>
</a>
</g>
</g>
<!-- Node13 -->
<g id="Node000013" class="node">
<title>Node13</title>
<g id="a_Node000013"><a xlink:href="Importer_8h.html" target="_top" xlink:title=" ">
<polygon fill="white" stroke="#666666" points="509.5,-132 394.5,-132 394.5,-112 509.5,-112 509.5,-132"/>
<text xml:space="preserve" text-anchor="middle" x="452" y="-118.5" font-family="Helvetica,sans-Serif" font-size="10.00">LGE/assets/Importer.h</text>
</a>
</g>
</g>
<!-- Node12&#45;&gt;Node13 -->
<g id="edge13_Node000012_Node000013" class="edge">
<title>Node12&#45;&gt;Node13</title>
<g id="a_edge13_Node000012_Node000013"><a xlink:title=" ">
<path fill="none" stroke="#63b8ff" d="M472.65,-167.59C469.45,-160.7 465.01,-151.1 461.06,-142.57"/>
<polygon fill="#63b8ff" stroke="#63b8ff" points="464.32,-141.28 456.94,-133.67 457.97,-144.22 464.32,-141.28"/>
</a>
</g>
</g>
<!-- Node12&#45;&gt;Node14 -->
<g id="edge21_Node000012_Node000014" class="edge">
<title>Node12&#45;&gt;Node14</title>
<g id="a_edge21_Node000012_Node000014"><a xlink:title=" ">
<path fill="none" stroke="#63b8ff" d="M499.64,-167.59C520.12,-159.09 550.52,-146.46 573.75,-136.81"/>
<polygon fill="#63b8ff" stroke="#63b8ff" points="574.89,-140.13 582.78,-133.06 572.2,-133.66 574.89,-140.13"/>
</a>
</g>
</g>
<!-- Node13&#45;&gt;Node2 -->
<g id="edge14_Node000013_Node000002" class="edge">
<title>Node13&#45;&gt;Node2</title>
<g id="a_edge14_Node000013_Node000002"><a xlink:title=" ">
<path fill="none" stroke="#63b8ff" d="M509.69,-113.03C578.29,-103.56 692.95,-87.72 768.27,-77.32"/>
<polygon fill="#63b8ff" stroke="#63b8ff" points="768.62,-80.81 778.05,-75.97 767.67,-73.87 768.62,-80.81"/>
</a>
</g>
</g>
<!-- Node13&#45;&gt;Node3 -->
<g id="edge15_Node000013_Node000003" class="edge">
<title>Node13&#45;&gt;Node3</title>
<g id="a_edge15_Node000013_Node000003"><a xlink:title=" ">
<path fill="none" stroke="#63b8ff" d="M456.52,-111.78C464.06,-97.44 480.61,-69.97 503,-56 559.35,-20.84 638.88,-12.8 682.43,-11.18"/>
<polygon fill="#63b8ff" stroke="#63b8ff" points="682.3,-14.68 692.2,-10.91 682.11,-7.68 682.3,-14.68"/>
</a>
</g>
</g>
<!-- Node13&#45;&gt;Node7 -->
<g id="edge17_Node000013_Node000007" class="edge">
<title>Node13&#45;&gt;Node7</title>
<g id="a_edge17_Node000013_Node000007"><a xlink:title=" ">
<path fill="none" stroke="#63b8ff" d="M466.98,-111.59C479.73,-103.59 498.29,-91.93 513.24,-82.54"/>
<polygon fill="#63b8ff" stroke="#63b8ff" points="515.01,-85.57 521.62,-77.28 511.29,-79.64 515.01,-85.57"/>
</a>
</g>
</g>
<!-- Node13&#45;&gt;Node8 -->
<g id="edge16_Node000013_Node000008" class="edge">
<title>Node13&#45;&gt;Node8</title>
<g id="a_edge16_Node000013_Node000008"><a xlink:title=" ">
<path fill="none" stroke="#63b8ff" d="M429.36,-111.59C408.63,-102.99 377.73,-90.15 354.4,-80.46"/>
<polygon fill="#63b8ff" stroke="#63b8ff" points="355.93,-77.3 345.35,-76.7 353.24,-83.77 355.93,-77.3"/>
</a>
</g>
</g>
<!-- Node15&#45;&gt;Node2 -->
<g id="edge23_Node000015_Node000002" class="edge">
<title>Node15&#45;&gt;Node2</title>
<g id="a_edge23_Node000015_Node000002"><a xlink:title=" ">
<path fill="none" stroke="#63b8ff" d="M1003.21,-111.59C971.27,-102.71 923.15,-89.31 887.98,-79.52"/>
<polygon fill="#63b8ff" stroke="#63b8ff" points="889.09,-76.2 878.51,-76.89 887.21,-82.94 889.09,-76.2"/>
</a>
</g>
</g>
<!-- Node15&#45;&gt;Node3 -->
<g id="edge24_Node000015_Node000003" class="edge">
<title>Node15&#45;&gt;Node3</title>
<g id="a_edge24_Node000015_Node000003"><a xlink:title=" ">
<path fill="none" stroke="#63b8ff" d="M1022.58,-111.65C1000.34,-97.63 955.96,-71.18 915,-56 857.14,-34.56 785.96,-21.58 745.7,-15.39"/>
<polygon fill="#63b8ff" stroke="#63b8ff" points="746.39,-11.96 735.98,-13.95 745.36,-18.88 746.39,-11.96"/>
</a>
</g>
</g>
<!-- Node16&#45;&gt;Node2 -->
<g id="edge26_Node000016_Node000002" class="edge">
<title>Node16&#45;&gt;Node2</title>
<g id="a_edge26_Node000016_Node000002"><a xlink:title=" ">
<path fill="none" stroke="#63b8ff" d="M828.14,-111.59C830.38,-104.86 833.49,-95.53 836.28,-87.15"/>
<polygon fill="#63b8ff" stroke="#63b8ff" points="839.58,-88.33 839.42,-77.73 832.94,-86.11 839.58,-88.33"/>
</a>
</g>
</g>
<!-- Node16&#45;&gt;Node3 -->
<g id="edge27_Node000016_Node000003" class="edge">
<title>Node16&#45;&gt;Node3</title>
<g id="a_edge27_Node000016_Node000003"><a xlink:title=" ">
<path fill="none" stroke="#63b8ff" d="M812.52,-111.51C801.26,-102.74 784.46,-89.12 771,-76 755.61,-60.99 739.6,-42.43 728.48,-28.99"/>
<polygon fill="#63b8ff" stroke="#63b8ff" points="731.32,-26.93 722.28,-21.4 725.9,-31.36 731.32,-26.93"/>
</a>
</g>
</g>
<!-- Node16&#45;&gt;Node7 -->
<g id="edge28_Node000016_Node000007" class="edge">
<title>Node16&#45;&gt;Node7</title>
<g id="a_edge28_Node000016_Node000007"><a xlink:title=" ">
<path fill="none" stroke="#63b8ff" d="M774.68,-111.53C717.56,-100.78 625.73,-83.51 574.88,-73.94"/>
<polygon fill="#63b8ff" stroke="#63b8ff" points="575.74,-70.54 565.26,-72.13 574.44,-77.42 575.74,-70.54"/>
</a>
</g>
</g>
</g>
</svg>
