<?xml version="1.0" encoding="UTF-8" standalone="no"?>
<!DOCTYPE svg PUBLIC "-//W3C//DTD SVG 1.1//EN"
 "http://www.w3.org/Graphics/SVG/1.1/DTD/svg11.dtd">
<!-- Generated by graphviz version 14.0.2 (20251019.1705)
 -->
<!-- Title: AssetFactory.cpp Pages: 1 -->
<svg width="685pt" height="196pt"
 viewBox="0.00 0.00 685.00 196.00" xmlns="http://www.w3.org/2000/svg" xmlns:xlink="http://www.w3.org/1999/xlink">
<g id="graph0" class="graph" transform="scale(1 1) rotate(0) translate(4 192)">
<title>AssetFactory.cpp</title>
<!-- Node1 -->
<g id="Node000001" class="node">
<title>Node1</title>
<g id="a_Node000001"><a xlink:title=" ">
<polygon fill="#999999" stroke="#666666" points="503.88,-188 411.38,-188 411.38,-168 503.88,-168 503.88,-188"/>
<text xml:space="preserve" text-anchor="middle" x="457.62" y="-174.5" font-family="Helvetica,sans-Serif" font-size="10.00">AssetFactory.cpp</text>
</a>
</g>
</g>
<!-- Node2 -->
<g id="Node000002" class="node">
<title>Node2</title>
<g id="a_Node000002"><a xlink:href="AssetFactory_8h.html" target="_top" xlink:title=" ">
<polygon fill="white" stroke="#666666" points="143,-132 6.25,-132 6.25,-112 143,-112 143,-132"/>
<text xml:space="preserve" text-anchor="middle" x="74.62" y="-118.5" font-family="Helvetica,sans-Serif" font-size="10.00">LGE/assets/AssetFactory.h</text>
</a>
</g>
</g>
<!-- Node1&#45;&gt;Node2 -->
<g id="edge1_Node000001_Node000002" class="edge">
<title>Node1&#45;&gt;Node2</title>
<g id="a_edge1_Node000001_Node000002"><a xlink:title=" ">
<path fill="none" stroke="#63b8ff" d="M411.04,-170.43C346.92,-161.39 230.57,-144.99 152.94,-134.04"/>
<polygon fill="#63b8ff" stroke="#63b8ff" points="153.66,-130.61 143.27,-132.68 152.69,-137.54 153.66,-130.61"/>
</a>
</g>
</g>
<!-- Node7 -->
<g id="Node000007" class="node">
<title>Node7</title>
<g id="a_Node000007"><a xlink:href="AssetMetadata_8h.html" target="_top" xlink:title=" ">
<polygon fill="white" stroke="#666666" points="306.12,-132 161.12,-132 161.12,-112 306.12,-112 306.12,-132"/>
<text xml:space="preserve" text-anchor="middle" x="233.62" y="-118.5" font-family="Helvetica,sans-Serif" font-size="10.00">LGE/assets/AssetMetadata.h</text>
</a>
</g>
</g>
<!-- Node1&#45;&gt;Node7 -->
<g id="edge7_Node000001_Node000007" class="edge">
<title>Node1&#45;&gt;Node7</title>
<g id="a_edge7_Node000001_Node000007"><a xlink:title=" ">
<path fill="none" stroke="#63b8ff" d="M418.35,-167.53C380.96,-158.52 324.52,-144.91 283.87,-135.11"/>
<polygon fill="#63b8ff" stroke="#63b8ff" points="284.87,-131.75 274.33,-132.81 283.23,-138.56 284.87,-131.75"/>
</a>
</g>
</g>
<!-- Node8 -->
<g id="Node000008" class="node">
<title>Node8</title>
<g id="a_Node000008"><a xlink:href="Log_8h.html" target="_top" xlink:title=" ">
<polygon fill="white" stroke="#666666" points="408.75,-132 324.5,-132 324.5,-112 408.75,-112 408.75,-132"/>
<text xml:space="preserve" text-anchor="middle" x="366.62" y="-118.5" font-family="Helvetica,sans-Serif" font-size="10.00">LGE/core/Log.h</text>
</a>
</g>
</g>
<!-- Node1&#45;&gt;Node8 -->
<g id="edge10_Node000001_Node000008" class="edge">
<title>Node1&#45;&gt;Node8</title>
<g id="a_edge10_Node000001_Node000008"><a xlink:title=" ">
<path fill="none" stroke="#63b8ff" d="M441.77,-167.59C428.16,-159.51 408.26,-147.71 392.36,-138.27"/>
<polygon fill="#63b8ff" stroke="#63b8ff" points="394.29,-135.35 383.9,-133.25 390.72,-141.37 394.29,-135.35"/>
</a>
</g>
</g>
<!-- Node10 -->
<g id="Node000010" class="node">
<title>Node10</title>
<g id="a_Node000010"><a xlink:title=" ">
<polygon fill="#e0e0e0" stroke="#999999" points="488.12,-132 427.12,-132 427.12,-112 488.12,-112 488.12,-132"/>
<text xml:space="preserve" text-anchor="middle" x="457.62" y="-118.5" font-family="Helvetica,sans-Serif" font-size="10.00">filesystem</text>
</a>
</g>
</g>
<!-- Node1&#45;&gt;Node10 -->
<g id="edge13_Node000001_Node000010" class="edge">
<title>Node1&#45;&gt;Node10</title>
<g id="a_edge13_Node000001_Node000010"><a xlink:title=" ">
<path fill="none" stroke="#63b8ff" d="M457.62,-167.59C457.62,-161.01 457.62,-151.96 457.62,-143.73"/>
<polygon fill="#63b8ff" stroke="#63b8ff" points="461.13,-143.81 457.63,-133.81 454.13,-143.81 461.13,-143.81"/>
</a>
</g>
</g>
<!-- Node11 -->
<g id="Node000011" class="node">
<title>Node11</title>
<g id="a_Node000011"><a xlink:title=" ">
<polygon fill="#e0e0e0" stroke="#999999" points="555.12,-132 506.12,-132 506.12,-112 555.12,-112 555.12,-132"/>
<text xml:space="preserve" text-anchor="middle" x="530.62" y="-118.5" font-family="Helvetica,sans-Serif" font-size="10.00">fstream</text>
</a>
</g>
</g>
<!-- Node1&#45;&gt;Node11 -->
<g id="edge14_Node000001_Node000011" class="edge">
<title>Node1&#45;&gt;Node11</title>
<g id="a_edge14_Node000001_Node000011"><a xlink:title=" ">
<path fill="none" stroke="#63b8ff" d="M470.34,-167.59C481.02,-159.7 496.5,-148.24 509.11,-138.92"/>
<polygon fill="#63b8ff" stroke="#63b8ff" points="510.88,-141.96 516.84,-133.2 506.72,-136.33 510.88,-141.96"/>
</a>
</g>
</g>
<!-- Node12 -->
<g id="Node000012" class="node">
<title>Node12</title>
<g id="a_Node000012"><a xlink:title=" ">
<polygon fill="#e0e0e0" stroke="#999999" points="618.25,-132 573,-132 573,-112 618.25,-112 618.25,-132"/>
<text xml:space="preserve" text-anchor="middle" x="595.62" y="-118.5" font-family="Helvetica,sans-Serif" font-size="10.00">chrono</text>
</a>
</g>
</g>
<!-- Node1&#45;&gt;Node12 -->
<g id="edge15_Node000001_Node000012" class="edge">
<title>Node1&#45;&gt;Node12</title>
<g id="a_edge15_Node000001_Node000012"><a xlink:title=" ">
<path fill="none" stroke="#63b8ff" d="M481.66,-167.59C504,-158.85 537.46,-145.76 562.35,-136.02"/>
<polygon fill="#63b8ff" stroke="#63b8ff" points="563.33,-139.39 571.37,-132.49 560.78,-132.88 563.33,-139.39"/>
</a>
</g>
</g>
<!-- Node13 -->
<g id="Node000013" class="node">
<title>Node13</title>
<g id="a_Node000013"><a xlink:title=" ">
<polygon fill="#e0e0e0" stroke="#999999" points="676.62,-132 636.62,-132 636.62,-112 676.62,-112 676.62,-132"/>
<text xml:space="preserve" text-anchor="middle" x="656.62" y="-118.5" font-family="Helvetica,sans-Serif" font-size="10.00">ctime</text>
</a>
</g>
</g>
<!-- Node1&#45;&gt;Node13 -->
<g id="edge16_Node000001_Node000013" class="edge">
<title>Node1&#45;&gt;Node13</title>
<g id="a_edge16_Node000001_Node000013"><a xlink:title=" ">
<path fill="none" stroke="#63b8ff" d="M495.23,-167.53C527.4,-159.32 575.19,-146.88 625.31,-132.58"/>
<polygon fill="#63b8ff" stroke="#63b8ff" points="626.28,-135.94 634.92,-129.82 624.34,-129.22 626.28,-135.94"/>
</a>
</g>
</g>
<!-- Node3 -->
<g id="Node000003" class="node">
<title>Node3</title>
<g id="a_Node000003"><a xlink:href="AssetMeta_8h.html" target="_top" xlink:title=" ">
<polygon fill="white" stroke="#666666" points="233.75,-76 107.5,-76 107.5,-56 233.75,-56 233.75,-76"/>
<text xml:space="preserve" text-anchor="middle" x="170.62" y="-62.5" font-family="Helvetica,sans-Serif" font-size="10.00">LGE/assets/AssetMeta.h</text>
</a>
</g>
</g>
<!-- Node2&#45;&gt;Node3 -->
<g id="edge2_Node000002_Node000003" class="edge">
<title>Node2&#45;&gt;Node3</title>
<g id="a_edge2_Node000002_Node000003"><a xlink:title=" ">
<path fill="none" stroke="#63b8ff" d="M91.35,-111.59C105.85,-103.44 127.1,-91.48 143.95,-82"/>
<polygon fill="#63b8ff" stroke="#63b8ff" points="145.45,-85.17 152.45,-77.22 142.02,-79.07 145.45,-85.17"/>
</a>
</g>
</g>
<!-- Node4 -->
<g id="Node000004" class="node">
<title>Node4</title>
<g id="a_Node000004"><a xlink:title=" ">
<polygon fill="#e0e0e0" stroke="#999999" points="266.62,-20 226.62,-20 226.62,0 266.62,0 266.62,-20"/>
<text xml:space="preserve" text-anchor="middle" x="246.62" y="-6.5" font-family="Helvetica,sans-Serif" font-size="10.00">string</text>
</a>
</g>
</g>
<!-- Node2&#45;&gt;Node4 -->
<g id="edge5_Node000002_Node000004" class="edge">
<title>Node2&#45;&gt;Node4</title>
<g id="a_edge5_Node000002_Node000004"><a xlink:title=" ">
<path fill="none" stroke="#63b8ff" d="M75.49,-111.61C77.29,-97.54 82.7,-71.02 98.62,-56 107.25,-47.87 174.33,-29.56 215.16,-18.97"/>
<polygon fill="#63b8ff" stroke="#63b8ff" points="215.88,-22.4 224.69,-16.52 214.14,-15.62 215.88,-22.4"/>
</a>
</g>
</g>
<!-- Node6 -->
<g id="Node000006" class="node">
<title>Node6</title>
<g id="a_Node000006"><a xlink:title=" ">
<polygon fill="#e0e0e0" stroke="#999999" points="51.25,-76 0,-76 0,-56 51.25,-56 51.25,-76"/>
<text xml:space="preserve" text-anchor="middle" x="25.62" y="-62.5" font-family="Helvetica,sans-Serif" font-size="10.00">memory</text>
</a>
</g>
</g>
<!-- Node2&#45;&gt;Node6 -->
<g id="edge6_Node000002_Node000006" class="edge">
<title>Node2&#45;&gt;Node6</title>
<g id="a_edge6_Node000002_Node000006"><a xlink:title=" ">
<path fill="none" stroke="#63b8ff" d="M66.09,-111.59C59.34,-104.16 49.74,-93.58 41.58,-84.58"/>
<polygon fill="#63b8ff" stroke="#63b8ff" points="44.39,-82.47 35.08,-77.42 39.21,-87.18 44.39,-82.47"/>
</a>
</g>
</g>
<!-- Node3&#45;&gt;Node4 -->
<g id="edge3_Node000003_Node000004" class="edge">
<title>Node3&#45;&gt;Node4</title>
<g id="a_edge3_Node000003_Node000004"><a xlink:title=" ">
<path fill="none" stroke="#63b8ff" d="M183.86,-55.59C194.91,-47.74 210.91,-36.38 223.98,-27.09"/>
<polygon fill="#63b8ff" stroke="#63b8ff" points="225.93,-30 232.05,-21.36 221.87,-24.3 225.93,-30"/>
</a>
</g>
</g>
<!-- Node5 -->
<g id="Node000005" class="node">
<title>Node5</title>
<g id="a_Node000005"><a xlink:title=" ">
<polygon fill="#e0e0e0" stroke="#999999" points="193.25,-20 148,-20 148,0 193.25,0 193.25,-20"/>
<text xml:space="preserve" text-anchor="middle" x="170.62" y="-6.5" font-family="Helvetica,sans-Serif" font-size="10.00">cstdint</text>
</a>
</g>
</g>
<!-- Node3&#45;&gt;Node5 -->
<g id="edge4_Node000003_Node000005" class="edge">
<title>Node3&#45;&gt;Node5</title>
<g id="a_edge4_Node000003_Node000005"><a xlink:title=" ">
<path fill="none" stroke="#63b8ff" d="M170.62,-55.59C170.62,-49.01 170.62,-39.96 170.62,-31.73"/>
<polygon fill="#63b8ff" stroke="#63b8ff" points="174.13,-31.81 170.63,-21.81 167.13,-31.81 174.13,-31.81"/>
</a>
</g>
</g>
<!-- Node7&#45;&gt;Node3 -->
<g id="edge8_Node000007_Node000003" class="edge">
<title>Node7&#45;&gt;Node3</title>
<g id="a_edge8_Node000007_Node000003"><a xlink:title=" ">
<path fill="none" stroke="#63b8ff" d="M222.65,-111.59C213.71,-103.93 200.85,-92.91 190.16,-83.75"/>
<polygon fill="#63b8ff" stroke="#63b8ff" points="192.49,-81.13 182.62,-77.28 187.94,-86.45 192.49,-81.13"/>
</a>
</g>
</g>
<!-- Node7&#45;&gt;Node4 -->
<g id="edge9_Node000007_Node000004" class="edge">
<title>Node7&#45;&gt;Node4</title>
<g id="a_edge9_Node000007_Node000004"><a xlink:title=" ">
<path fill="none" stroke="#63b8ff" d="M235.86,-111.75C237.95,-102.7 241,-88.48 242.62,-76 244.55,-61.2 245.55,-44.38 246.07,-31.56"/>
<polygon fill="#63b8ff" stroke="#63b8ff" points="249.56,-31.92 246.4,-21.81 242.57,-31.69 249.56,-31.92"/>
</a>
</g>
</g>
<!-- Node8&#45;&gt;Node4 -->
<g id="edge12_Node000008_Node000004" class="edge">
<title>Node8&#45;&gt;Node4</title>
<g id="a_edge12_Node000008_Node000004"><a xlink:title=" ">
<path fill="none" stroke="#63b8ff" d="M356.39,-111.62C336.2,-93.11 290.97,-51.65 265.31,-28.13"/>
<polygon fill="#63b8ff" stroke="#63b8ff" points="267.68,-25.55 257.95,-21.38 262.95,-30.71 267.68,-25.55"/>
</a>
</g>
</g>
<!-- Node9 -->
<g id="Node000009" class="node">
<title>Node9</title>
<g id="a_Node000009"><a xlink:title=" ">
<polygon fill="#e0e0e0" stroke="#999999" points="393.38,-76 339.88,-76 339.88,-56 393.38,-56 393.38,-76"/>
<text xml:space="preserve" text-anchor="middle" x="366.62" y="-62.5" font-family="Helvetica,sans-Serif" font-size="10.00">iostream</text>
</a>
</g>
</g>
<!-- Node8&#45;&gt;Node9 -->
<g id="edge11_Node000008_Node000009" class="edge">
<title>Node8&#45;&gt;Node9</title>
<g id="a_edge11_Node000008_Node000009"><a xlink:title=" ">
<path fill="none" stroke="#63b8ff" d="M366.62,-111.59C366.62,-105.01 366.62,-95.96 366.62,-87.73"/>
<polygon fill="#63b8ff" stroke="#63b8ff" points="370.13,-87.81 366.63,-77.81 363.13,-87.81 370.13,-87.81"/>
</a>
</g>
</g>
</g>
</svg>
