<?xml version="1.0" encoding="UTF-8" standalone="no"?>
<!DOCTYPE svg PUBLIC "-//W3C//DTD SVG 1.1//EN"
 "http://www.w3.org/Graphics/SVG/1.1/DTD/svg11.dtd">
<!-- Generated by graphviz version 14.0.2 (20251019.1705)
 -->
<!-- Title: AssetMetadata.cpp Pages: 1 -->
<svg width="619pt" height="196pt"
 viewBox="0.00 0.00 619.00 196.00" xmlns="http://www.w3.org/2000/svg" xmlns:xlink="http://www.w3.org/1999/xlink">
<g id="graph0" class="graph" transform="scale(1 1) rotate(0) translate(4 192)">
<title>AssetMetadata.cpp</title>
<!-- Node1 -->
<g id="Node000001" class="node">
<title>Node1</title>
<g id="a_Node000001"><a xlink:title=" ">
<polygon fill="#999999" stroke="#666666" points="426.5,-188 325.75,-188 325.75,-168 426.5,-168 426.5,-188"/>
<text xml:space="preserve" text-anchor="middle" x="376.12" y="-174.5" font-family="Helvetica,sans-Serif" font-size="10.00">AssetMetadata.cpp</text>
</a>
</g>
</g>
<!-- Node2 -->
<g id="Node000002" class="node">
<title>Node2</title>
<g id="a_Node000002"><a xlink:href="AssetMetadata_8h.html" target="_top" xlink:title=" ">
<polygon fill="white" stroke="#666666" points="186.62,-132 41.62,-132 41.62,-112 186.62,-112 186.62,-132"/>
<text xml:space="preserve" text-anchor="middle" x="114.12" y="-118.5" font-family="Helvetica,sans-Serif" font-size="10.00">LGE/assets/AssetMetadata.h</text>
</a>
</g>
</g>
<!-- Node1&#45;&gt;Node2 -->
<g id="edge1_Node000001_Node000002" class="edge">
<title>Node1&#45;&gt;Node2</title>
<g id="a_edge1_Node000001_Node000002"><a xlink:title=" ">
<path fill="none" stroke="#63b8ff" d="M330.19,-167.53C285.9,-158.4 218.75,-144.56 171.08,-134.74"/>
<polygon fill="#63b8ff" stroke="#63b8ff" points="171.99,-131.35 161.49,-132.76 170.58,-138.21 171.99,-131.35"/>
</a>
</g>
</g>
<!-- Node6 -->
<g id="Node000006" class="node">
<title>Node6</title>
<g id="a_Node000006"><a xlink:href="Log_8h.html" target="_top" xlink:title=" ">
<polygon fill="white" stroke="#666666" points="289.25,-132 205,-132 205,-112 289.25,-112 289.25,-132"/>
<text xml:space="preserve" text-anchor="middle" x="247.12" y="-118.5" font-family="Helvetica,sans-Serif" font-size="10.00">LGE/core/Log.h</text>
</a>
</g>
</g>
<!-- Node1&#45;&gt;Node6 -->
<g id="edge6_Node000001_Node000006" class="edge">
<title>Node1&#45;&gt;Node6</title>
<g id="a_edge6_Node000001_Node000006"><a xlink:title=" ">
<path fill="none" stroke="#63b8ff" d="M353.65,-167.59C333.34,-159.09 303.17,-146.46 280.12,-136.81"/>
<polygon fill="#63b8ff" stroke="#63b8ff" points="281.74,-133.7 271.17,-133.06 279.04,-140.15 281.74,-133.7"/>
</a>
</g>
</g>
<!-- Node8 -->
<g id="Node000008" class="node">
<title>Node8</title>
<g id="a_Node000008"><a xlink:href="FileSystem_8h.html" target="_top" xlink:title=" ">
<polygon fill="white" stroke="#666666" points="410.12,-76 292.12,-76 292.12,-56 410.12,-56 410.12,-76"/>
<text xml:space="preserve" text-anchor="middle" x="351.12" y="-62.5" font-family="Helvetica,sans-Serif" font-size="10.00">LGE/core/FileSystem.h</text>
</a>
</g>
</g>
<!-- Node1&#45;&gt;Node8 -->
<g id="edge9_Node000001_Node000008" class="edge">
<title>Node1&#45;&gt;Node8</title>
<g id="a_edge9_Node000001_Node000008"><a xlink:title=" ">
<path fill="none" stroke="#63b8ff" d="M364.39,-167.72C355,-159.48 342.54,-146.53 337.12,-132 331.63,-117.28 335.94,-99.83 341.18,-86.73"/>
<polygon fill="#63b8ff" stroke="#63b8ff" points="344.25,-88.43 345.17,-77.88 337.87,-85.55 344.25,-88.43"/>
</a>
</g>
</g>
<!-- Node9 -->
<g id="Node000009" class="node">
<title>Node9</title>
<g id="a_Node000009"><a xlink:title=" ">
<polygon fill="#e0e0e0" stroke="#999999" points="406.62,-132 345.62,-132 345.62,-112 406.62,-112 406.62,-132"/>
<text xml:space="preserve" text-anchor="middle" x="376.12" y="-118.5" font-family="Helvetica,sans-Serif" font-size="10.00">filesystem</text>
</a>
</g>
</g>
<!-- Node1&#45;&gt;Node9 -->
<g id="edge11_Node000001_Node000009" class="edge">
<title>Node1&#45;&gt;Node9</title>
<g id="a_edge11_Node000001_Node000009"><a xlink:title=" ">
<path fill="none" stroke="#63b8ff" d="M376.12,-167.59C376.12,-161.01 376.12,-151.96 376.12,-143.73"/>
<polygon fill="#63b8ff" stroke="#63b8ff" points="379.63,-143.81 376.13,-133.81 372.63,-143.81 379.63,-143.81"/>
</a>
</g>
</g>
<!-- Node10 -->
<g id="Node000010" class="node">
<title>Node10</title>
<g id="a_Node000010"><a xlink:title=" ">
<polygon fill="#e0e0e0" stroke="#999999" points="473.62,-132 424.62,-132 424.62,-112 473.62,-112 473.62,-132"/>
<text xml:space="preserve" text-anchor="middle" x="449.12" y="-118.5" font-family="Helvetica,sans-Serif" font-size="10.00">fstream</text>
</a>
</g>
</g>
<!-- Node1&#45;&gt;Node10 -->
<g id="edge12_Node000001_Node000010" class="edge">
<title>Node1&#45;&gt;Node10</title>
<g id="a_edge12_Node000001_Node000010"><a xlink:title=" ">
<path fill="none" stroke="#63b8ff" d="M388.84,-167.59C399.52,-159.7 415,-148.24 427.61,-138.92"/>
<polygon fill="#63b8ff" stroke="#63b8ff" points="429.38,-141.96 435.34,-133.2 425.22,-136.33 429.38,-141.96"/>
</a>
</g>
</g>
<!-- Node11 -->
<g id="Node000011" class="node">
<title>Node11</title>
<g id="a_Node000011"><a xlink:title=" ">
<polygon fill="#e0e0e0" stroke="#999999" points="542.75,-132 491.5,-132 491.5,-112 542.75,-112 542.75,-132"/>
<text xml:space="preserve" text-anchor="middle" x="517.12" y="-118.5" font-family="Helvetica,sans-Serif" font-size="10.00">sstream</text>
</a>
</g>
</g>
<!-- Node1&#45;&gt;Node11 -->
<g id="edge13_Node000001_Node000011" class="edge">
<title>Node1&#45;&gt;Node11</title>
<g id="a_edge13_Node000001_Node000011"><a xlink:title=" ">
<path fill="none" stroke="#63b8ff" d="M400.69,-167.59C423.09,-159.01 456.46,-146.23 481.74,-136.55"/>
<polygon fill="#63b8ff" stroke="#63b8ff" points="482.87,-139.87 490.96,-133.02 480.37,-133.33 482.87,-139.87"/>
</a>
</g>
</g>
<!-- Node12 -->
<g id="Node000012" class="node">
<title>Node12</title>
<g id="a_Node000012"><a xlink:title=" ">
<polygon fill="#e0e0e0" stroke="#999999" points="611,-132 561.25,-132 561.25,-112 611,-112 611,-132"/>
<text xml:space="preserve" text-anchor="middle" x="586.12" y="-118.5" font-family="Helvetica,sans-Serif" font-size="10.00">iomanip</text>
</a>
</g>
</g>
<!-- Node1&#45;&gt;Node12 -->
<g id="edge14_Node000001_Node000012" class="edge">
<title>Node1&#45;&gt;Node12</title>
<g id="a_edge14_Node000001_Node000012"><a xlink:title=" ">
<path fill="none" stroke="#63b8ff" d="M413.57,-167.52C446.92,-159.06 497.33,-146.22 549.97,-132.54"/>
<polygon fill="#63b8ff" stroke="#63b8ff" points="550.62,-135.99 559.42,-130.09 548.86,-129.22 550.62,-135.99"/>
</a>
</g>
</g>
<!-- Node3 -->
<g id="Node000003" class="node">
<title>Node3</title>
<g id="a_Node000003"><a xlink:href="AssetMeta_8h.html" target="_top" xlink:title=" ">
<polygon fill="white" stroke="#666666" points="126.25,-76 0,-76 0,-56 126.25,-56 126.25,-76"/>
<text xml:space="preserve" text-anchor="middle" x="63.12" y="-62.5" font-family="Helvetica,sans-Serif" font-size="10.00">LGE/assets/AssetMeta.h</text>
</a>
</g>
</g>
<!-- Node2&#45;&gt;Node3 -->
<g id="edge2_Node000002_Node000003" class="edge">
<title>Node2&#45;&gt;Node3</title>
<g id="a_edge2_Node000002_Node000003"><a xlink:title=" ">
<path fill="none" stroke="#63b8ff" d="M105.24,-111.59C98.22,-104.16 88.22,-93.58 79.73,-84.58"/>
<polygon fill="#63b8ff" stroke="#63b8ff" points="82.36,-82.27 72.95,-77.4 77.27,-87.07 82.36,-82.27"/>
</a>
</g>
</g>
<!-- Node4 -->
<g id="Node000004" class="node">
<title>Node4</title>
<g id="a_Node000004"><a xlink:title=" ">
<polygon fill="#e0e0e0" stroke="#999999" points="193.12,-20 153.12,-20 153.12,0 193.12,0 193.12,-20"/>
<text xml:space="preserve" text-anchor="middle" x="173.12" y="-6.5" font-family="Helvetica,sans-Serif" font-size="10.00">string</text>
</a>
</g>
</g>
<!-- Node2&#45;&gt;Node4 -->
<g id="edge5_Node000002_Node000004" class="edge">
<title>Node2&#45;&gt;Node4</title>
<g id="a_edge5_Node000002_Node000004"><a xlink:title=" ">
<path fill="none" stroke="#63b8ff" d="M119.16,-111.62C128.78,-93.68 149.97,-54.17 162.75,-30.35"/>
<polygon fill="#63b8ff" stroke="#63b8ff" points="165.75,-32.16 167.39,-21.69 159.58,-28.85 165.75,-32.16"/>
</a>
</g>
</g>
<!-- Node3&#45;&gt;Node4 -->
<g id="edge3_Node000003_Node000004" class="edge">
<title>Node3&#45;&gt;Node4</title>
<g id="a_edge3_Node000003_Node000004"><a xlink:title=" ">
<path fill="none" stroke="#63b8ff" d="M82.29,-55.59C99.22,-47.28 124.17,-35.03 143.65,-25.47"/>
<polygon fill="#63b8ff" stroke="#63b8ff" points="145.02,-28.7 152.46,-21.15 141.94,-22.41 145.02,-28.7"/>
</a>
</g>
</g>
<!-- Node5 -->
<g id="Node000005" class="node">
<title>Node5</title>
<g id="a_Node000005"><a xlink:title=" ">
<polygon fill="#e0e0e0" stroke="#999999" points="85.75,-20 40.5,-20 40.5,0 85.75,0 85.75,-20"/>
<text xml:space="preserve" text-anchor="middle" x="63.12" y="-6.5" font-family="Helvetica,sans-Serif" font-size="10.00">cstdint</text>
</a>
</g>
</g>
<!-- Node3&#45;&gt;Node5 -->
<g id="edge4_Node000003_Node000005" class="edge">
<title>Node3&#45;&gt;Node5</title>
<g id="a_edge4_Node000003_Node000005"><a xlink:title=" ">
<path fill="none" stroke="#63b8ff" d="M63.12,-55.59C63.12,-49.01 63.12,-39.96 63.12,-31.73"/>
<polygon fill="#63b8ff" stroke="#63b8ff" points="66.63,-31.81 63.13,-21.81 59.63,-31.81 66.63,-31.81"/>
</a>
</g>
</g>
<!-- Node6&#45;&gt;Node4 -->
<g id="edge8_Node000006_Node000004" class="edge">
<title>Node6&#45;&gt;Node4</title>
<g id="a_edge8_Node000006_Node000004"><a xlink:title=" ">
<path fill="none" stroke="#63b8ff" d="M238.98,-111.65C231.4,-102.76 219.96,-88.86 211.12,-76 200.83,-61.02 190.51,-43.13 183.23,-29.92"/>
<polygon fill="#63b8ff" stroke="#63b8ff" points="186.46,-28.53 178.61,-21.41 180.3,-31.87 186.46,-28.53"/>
</a>
</g>
</g>
<!-- Node7 -->
<g id="Node000007" class="node">
<title>Node7</title>
<g id="a_Node000007"><a xlink:title=" ">
<polygon fill="#e0e0e0" stroke="#999999" points="273.88,-76 220.38,-76 220.38,-56 273.88,-56 273.88,-76"/>
<text xml:space="preserve" text-anchor="middle" x="247.12" y="-62.5" font-family="Helvetica,sans-Serif" font-size="10.00">iostream</text>
</a>
</g>
</g>
<!-- Node6&#45;&gt;Node7 -->
<g id="edge7_Node000006_Node000007" class="edge">
<title>Node6&#45;&gt;Node7</title>
<g id="a_edge7_Node000006_Node000007"><a xlink:title=" ">
<path fill="none" stroke="#63b8ff" d="M247.12,-111.59C247.12,-105.01 247.12,-95.96 247.12,-87.73"/>
<polygon fill="#63b8ff" stroke="#63b8ff" points="250.63,-87.81 247.13,-77.81 243.63,-87.81 250.63,-87.81"/>
</a>
</g>
</g>
<!-- Node8&#45;&gt;Node4 -->
<g id="edge10_Node000008_Node000004" class="edge">
<title>Node8&#45;&gt;Node4</title>
<g id="a_edge10_Node000008_Node000004"><a xlink:title=" ">
<path fill="none" stroke="#63b8ff" d="M320.12,-55.59C287.6,-45.73 236.78,-30.31 204.22,-20.43"/>
<polygon fill="#63b8ff" stroke="#63b8ff" points="205.56,-17.18 194.98,-17.63 203.53,-23.88 205.56,-17.18"/>
</a>
</g>
</g>
</g>
</svg>
