<?xml version="1.0" encoding="UTF-8" standalone="no"?>
<!DOCTYPE svg PUBLIC "-//W3C//DTD SVG 1.1//EN"
 "http://www.w3.org/Graphics/SVG/1.1/DTD/svg11.dtd">
<!-- Generated by graphviz version 14.0.2 (20251019.1705)
 -->
<!-- Title: AssetMeta.h Pages: 1 -->
<svg width="1352pt" height="252pt"
 viewBox="0.00 0.00 1352.00 252.00" xmlns="http://www.w3.org/2000/svg" xmlns:xlink="http://www.w3.org/1999/xlink">
<g id="graph0" class="graph" transform="scale(1 1) rotate(0) translate(4 248)">
<title>AssetMeta.h</title>
<!-- Node1 -->
<g id="Node000001" class="node">
<title>Node1</title>
<g id="a_Node000001"><a xlink:title=" ">
<polygon fill="#999999" stroke="#666666" points="738.44,-244 666.94,-244 666.94,-224 738.44,-224 738.44,-244"/>
<text xml:space="preserve" text-anchor="middle" x="702.69" y="-230.5" font-family="Helvetica,sans-Serif" font-size="10.00">AssetMeta.h</text>
</a>
</g>
</g>
<!-- Node2 -->
<g id="Node000002" class="node">
<title>Node2</title>
<g id="a_Node000002"><a xlink:href="AssetFactory_8h.html" target="_top" xlink:title=" ">
<polygon fill="white" stroke="#666666" points="250.69,-188 168.69,-188 168.69,-168 250.69,-168 250.69,-188"/>
<text xml:space="preserve" text-anchor="middle" x="209.69" y="-174.5" font-family="Helvetica,sans-Serif" font-size="10.00">AssetFactory.h</text>
</a>
</g>
</g>
<!-- Node1&#45;&gt;Node2 -->
<g id="edge1_Node000001_Node000002" class="edge">
<title>Node1&#45;&gt;Node2</title>
<g id="a_edge1_Node000001_Node000002"><a xlink:title=" ">
<path fill="none" stroke="#63b8ff" d="M655.55,-227.84C579.15,-219.48 423.52,-202.45 291.69,-188 278.45,-186.55 264,-184.96 250.98,-183.53"/>
<polygon fill="#63b8ff" stroke="#63b8ff" points="654.85,-231.29 665.17,-228.9 655.61,-224.33 654.85,-231.29"/>
</a>
</g>
</g>
<!-- Node4 -->
<g id="Node000004" class="node">
<title>Node4</title>
<g id="a_Node000004"><a xlink:href="ContentBrowser_8cpp.html" target="_top" xlink:title=" ">
<polygon fill="white" stroke="#666666" points="309.31,-20 204.06,-20 204.06,0 309.31,0 309.31,-20"/>
<text xml:space="preserve" text-anchor="middle" x="256.69" y="-6.5" font-family="Helvetica,sans-Serif" font-size="10.00">ContentBrowser.cpp</text>
</a>
</g>
</g>
<!-- Node1&#45;&gt;Node4 -->
<g id="edge13_Node000001_Node000004" class="edge">
<title>Node1&#45;&gt;Node4</title>
<g id="a_edge13_Node000001_Node000004"><a xlink:title=" ">
<path fill="none" stroke="#63b8ff" d="M655.45,-233.68C532.92,-234.77 207.75,-233.2 111.69,-188 49.12,-158.56 29.57,-140.12 3.69,-76 0.36,-67.76 -2.02,-62.81 3.69,-56 28.68,-26.16 137.16,-16.09 203.69,-12.71"/>
<polygon fill="#63b8ff" stroke="#63b8ff" points="655.18,-237.18 665.14,-233.58 655.11,-230.18 655.18,-237.18"/>
</a>
</g>
</g>
<!-- Node5 -->
<g id="Node000005" class="node">
<title>Node5</title>
<g id="a_Node000005"><a xlink:href="AssetManager_8h.html" target="_top" xlink:title=" ">
<polygon fill="white" stroke="#666666" points="474.31,-76 387.06,-76 387.06,-56 474.31,-56 474.31,-76"/>
<text xml:space="preserve" text-anchor="middle" x="430.69" y="-62.5" font-family="Helvetica,sans-Serif" font-size="10.00">AssetManager.h</text>
</a>
</g>
</g>
<!-- Node1&#45;&gt;Node5 -->
<g id="edge4_Node000001_Node000005" class="edge">
<title>Node1&#45;&gt;Node5</title>
<g id="a_edge4_Node000001_Node000005"><a xlink:title=" ">
<path fill="none" stroke="#63b8ff" d="M655.48,-224.33C601.81,-212.23 514.55,-185.47 459.69,-132 443.58,-116.3 435.72,-90.07 432.52,-76.22"/>
<polygon fill="#63b8ff" stroke="#63b8ff" points="654.73,-227.74 665.24,-226.44 656.21,-220.9 654.73,-227.74"/>
</a>
</g>
</g>
<!-- Node8 -->
<g id="Node000008" class="node">
<title>Node8</title>
<g id="a_Node000008"><a xlink:href="AssetMeta_8cpp.html" target="_top" xlink:title=" ">
<polygon fill="white" stroke="#666666" points="1343.69,-188 1261.69,-188 1261.69,-168 1343.69,-168 1343.69,-188"/>
<text xml:space="preserve" text-anchor="middle" x="1302.69" y="-174.5" font-family="Helvetica,sans-Serif" font-size="10.00">AssetMeta.cpp</text>
</a>
</g>
</g>
<!-- Node1&#45;&gt;Node8 -->
<g id="edge8_Node000001_Node000008" class="edge">
<title>Node1&#45;&gt;Node8</title>
<g id="a_edge8_Node000001_Node000008"><a xlink:title=" ">
<path fill="none" stroke="#63b8ff" d="M750.3,-230.35C845.18,-224.79 1064.47,-210.52 1247.69,-188 1252.1,-187.46 1256.71,-186.82 1261.29,-186.14"/>
<polygon fill="#63b8ff" stroke="#63b8ff" points="750.11,-226.86 740.33,-230.93 750.52,-233.84 750.11,-226.86"/>
</a>
</g>
</g>
<!-- Node9 -->
<g id="Node000009" class="node">
<title>Node9</title>
<g id="a_Node000009"><a xlink:href="AssetMetadata_8h.html" target="_top" xlink:title=" ">
<polygon fill="white" stroke="#666666" points="390.81,-188 300.56,-188 300.56,-168 390.81,-168 390.81,-188"/>
<text xml:space="preserve" text-anchor="middle" x="345.69" y="-174.5" font-family="Helvetica,sans-Serif" font-size="10.00">AssetMetadata.h</text>
</a>
</g>
</g>
<!-- Node1&#45;&gt;Node9 -->
<g id="edge9_Node000001_Node000009" class="edge">
<title>Node1&#45;&gt;Node9</title>
<g id="a_edge9_Node000001_Node000009"><a xlink:title=" ">
<path fill="none" stroke="#63b8ff" d="M655.12,-225.8C586.09,-215.36 459.02,-196.14 391.18,-185.88"/>
<polygon fill="#63b8ff" stroke="#63b8ff" points="654.58,-229.26 664.99,-227.3 655.63,-222.34 654.58,-229.26"/>
</a>
</g>
</g>
<!-- Node11 -->
<g id="Node000011" class="node">
<title>Node11</title>
<g id="a_Node000011"><a xlink:href="ContentBrowser_8h.html" target="_top" xlink:title=" ">
<polygon fill="white" stroke="#666666" points="107.06,-76 12.31,-76 12.31,-56 107.06,-56 107.06,-76"/>
<text xml:space="preserve" text-anchor="middle" x="59.69" y="-62.5" font-family="Helvetica,sans-Serif" font-size="10.00">ContentBrowser.h</text>
</a>
</g>
</g>
<!-- Node1&#45;&gt;Node11 -->
<g id="edge14_Node000001_Node000011" class="edge">
<title>Node1&#45;&gt;Node11</title>
<g id="a_edge14_Node000001_Node000011"><a xlink:title=" ">
<path fill="none" stroke="#63b8ff" d="M655.37,-231.58C527.84,-227.43 183.6,-213.92 139.69,-188 95.23,-161.76 70.67,-99.95 62.65,-76.37"/>
<polygon fill="#63b8ff" stroke="#63b8ff" points="655.05,-235.07 665.15,-231.89 655.27,-228.08 655.05,-235.07"/>
</a>
</g>
</g>
<!-- Node12 -->
<g id="Node000012" class="node">
<title>Node12</title>
<g id="a_Node000012"><a xlink:href="Exporter_8h.html" target="_top" xlink:title=" ">
<polygon fill="white" stroke="#666666" points="868.19,-188 807.19,-188 807.19,-168 868.19,-168 868.19,-188"/>
<text xml:space="preserve" text-anchor="middle" x="837.69" y="-174.5" font-family="Helvetica,sans-Serif" font-size="10.00">Exporter.h</text>
</a>
</g>
</g>
<!-- Node1&#45;&gt;Node12 -->
<g id="edge17_Node000001_Node000012" class="edge">
<title>Node1&#45;&gt;Node12</title>
<g id="a_edge17_Node000001_Node000012"><a xlink:title=" ">
<path fill="none" stroke="#63b8ff" d="M736.68,-219.4C760.8,-209.75 792.57,-197.05 813.99,-188.48"/>
<polygon fill="#63b8ff" stroke="#63b8ff" points="735.59,-216.07 727.61,-223.03 738.19,-222.57 735.59,-216.07"/>
</a>
</g>
</g>
<!-- Node13 -->
<g id="Node000013" class="node">
<title>Node13</title>
<g id="a_Node000013"><a xlink:href="ExporterRegistry_8h.html" target="_top" xlink:title=" ">
<polygon fill="white" stroke="#666666" points="866.19,-132 769.19,-132 769.19,-112 866.19,-112 866.19,-132"/>
<text xml:space="preserve" text-anchor="middle" x="817.69" y="-118.5" font-family="Helvetica,sans-Serif" font-size="10.00">ExporterRegistry.h</text>
</a>
</g>
</g>
<!-- Node1&#45;&gt;Node13 -->
<g id="edge26_Node000001_Node000013" class="edge">
<title>Node1&#45;&gt;Node13</title>
<g id="a_edge26_Node000001_Node000013"><a xlink:title=" ">
<path fill="none" stroke="#63b8ff" d="M722.75,-216.35C732.56,-208.03 744.43,-197.69 754.69,-188 775.02,-168.79 797.53,-144.87 809.37,-132.07"/>
<polygon fill="#63b8ff" stroke="#63b8ff" points="720.66,-213.53 715.25,-222.65 725.16,-218.89 720.66,-213.53"/>
</a>
</g>
</g>
<!-- Node15 -->
<g id="Node000015" class="node">
<title>Node15</title>
<g id="a_Node000015"><a xlink:href="ImportExport_8cpp.html" target="_top" xlink:title=" ">
<polygon fill="white" stroke="#666666" points="784.19,-76 693.19,-76 693.19,-56 784.19,-56 784.19,-76"/>
<text xml:space="preserve" text-anchor="middle" x="738.69" y="-62.5" font-family="Helvetica,sans-Serif" font-size="10.00">ImportExport.cpp</text>
</a>
</g>
</g>
<!-- Node1&#45;&gt;Node15 -->
<g id="edge27_Node000001_Node000015" class="edge">
<title>Node1&#45;&gt;Node15</title>
<g id="a_edge27_Node000001_Node000015"><a xlink:title=" ">
<path fill="none" stroke="#63b8ff" d="M707.13,-212.5C714.99,-176.27 731.03,-102.31 736.67,-76.3"/>
<polygon fill="#63b8ff" stroke="#63b8ff" points="703.74,-211.61 705.05,-222.12 710.59,-213.09 703.74,-211.61"/>
</a>
</g>
</g>
<!-- Node17 -->
<g id="Node000017" class="node">
<title>Node17</title>
<g id="a_Node000017"><a xlink:href="TextureExporter_8cpp.html" target="_top" xlink:title=" ">
<polygon fill="white" stroke="#666666" points="1215.56,-76 1111.81,-76 1111.81,-56 1215.56,-56 1215.56,-76"/>
<text xml:space="preserve" text-anchor="middle" x="1163.69" y="-62.5" font-family="Helvetica,sans-Serif" font-size="10.00">TextureExporter.cpp</text>
</a>
</g>
</g>
<!-- Node1&#45;&gt;Node17 -->
<g id="edge37_Node000001_Node000017" class="edge">
<title>Node1&#45;&gt;Node17</title>
<g id="a_edge37_Node000001_Node000017"><a xlink:title=" ">
<path fill="none" stroke="#63b8ff" d="M750.12,-232.71C825.46,-231.13 976.44,-223.34 1098.69,-188 1153.68,-172.1 1184.25,-180.49 1214.69,-132 1227.88,-110.98 1199.95,-88.69 1180.45,-76.44"/>
<polygon fill="#63b8ff" stroke="#63b8ff" points="750.15,-229.21 740.21,-232.89 750.27,-236.21 750.15,-229.21"/>
</a>
</g>
</g>
<!-- Node18 -->
<g id="Node000018" class="node">
<title>Node18</title>
<g id="a_Node000018"><a xlink:href="Importer_8h.html" target="_top" xlink:title=" ">
<polygon fill="white" stroke="#666666" points="694.81,-188 634.56,-188 634.56,-168 694.81,-168 694.81,-188"/>
<text xml:space="preserve" text-anchor="middle" x="664.69" y="-174.5" font-family="Helvetica,sans-Serif" font-size="10.00">Importer.h</text>
</a>
</g>
</g>
<!-- Node1&#45;&gt;Node18 -->
<g id="edge28_Node000001_Node000018" class="edge">
<title>Node1&#45;&gt;Node18</title>
<g id="a_edge28_Node000001_Node000018"><a xlink:title=" ">
<path fill="none" stroke="#63b8ff" d="M689.62,-214.44C683.42,-205.62 676.28,-195.47 671.23,-188.3"/>
<polygon fill="#63b8ff" stroke="#63b8ff" points="686.58,-216.19 695.2,-222.36 692.3,-212.16 686.58,-216.19"/>
</a>
</g>
</g>
<!-- Node22 -->
<g id="Node000022" class="node">
<title>Node22</title>
<g id="a_Node000022"><a xlink:href="TextureImporter_8cpp.html" target="_top" xlink:title=" ">
<polygon fill="white" stroke="#666666" points="228.19,-76 125.19,-76 125.19,-56 228.19,-56 228.19,-76"/>
<text xml:space="preserve" text-anchor="middle" x="176.69" y="-62.5" font-family="Helvetica,sans-Serif" font-size="10.00">TextureImporter.cpp</text>
</a>
</g>
</g>
<!-- Node1&#45;&gt;Node22 -->
<g id="edge38_Node000001_Node000022" class="edge">
<title>Node1&#45;&gt;Node22</title>
<g id="a_edge38_Node000001_Node000022"><a xlink:title=" ">
<path fill="none" stroke="#63b8ff" d="M655.26,-232.21C529.89,-229.7 196.78,-220.06 159.69,-188 133.76,-165.59 136.76,-144.8 146.69,-112 150.82,-98.34 160.62,-85.04 167.9,-76.48"/>
<polygon fill="#63b8ff" stroke="#63b8ff" points="655.15,-235.71 665.21,-232.41 655.28,-228.71 655.15,-235.71"/>
</a>
</g>
</g>
<!-- Node23 -->
<g id="Node000023" class="node">
<title>Node23</title>
<g id="a_Node000023"><a xlink:href="ThumbnailGenerator_8h.html" target="_top" xlink:title=" ">
<polygon fill="white" stroke="#666666" points="1055.69,-188 943.69,-188 943.69,-168 1055.69,-168 1055.69,-188"/>
<text xml:space="preserve" text-anchor="middle" x="999.69" y="-174.5" font-family="Helvetica,sans-Serif" font-size="10.00">ThumbnailGenerator.h</text>
</a>
</g>
</g>
<!-- Node1&#45;&gt;Node23 -->
<g id="edge39_Node000001_Node000023" class="edge">
<title>Node1&#45;&gt;Node23</title>
<g id="a_edge39_Node000001_Node000023"><a xlink:title=" ">
<path fill="none" stroke="#63b8ff" d="M750.11,-224.38C804.04,-214.57 891.82,-198.61 947.61,-188.47"/>
<polygon fill="#63b8ff" stroke="#63b8ff" points="749.51,-220.93 740.3,-226.16 750.76,-227.82 749.51,-220.93"/>
</a>
</g>
</g>
<!-- Node25 -->
<g id="Node000025" class="node">
<title>Node25</title>
<g id="a_Node000025"><a xlink:href="Thumbs_8cpp.html" target="_top" xlink:title=" ">
<polygon fill="white" stroke="#666666" points="1205.69,-132 1135.69,-132 1135.69,-112 1205.69,-112 1205.69,-132"/>
<text xml:space="preserve" text-anchor="middle" x="1170.69" y="-118.5" font-family="Helvetica,sans-Serif" font-size="10.00">Thumbs.cpp</text>
</a>
</g>
</g>
<!-- Node1&#45;&gt;Node25 -->
<g id="edge43_Node000001_Node000025" class="edge">
<title>Node1&#45;&gt;Node25</title>
<g id="a_edge43_Node000001_Node000025"><a xlink:title=" ">
<path fill="none" stroke="#63b8ff" d="M749.92,-233.43C820.44,-232.69 956.54,-225.87 1064.69,-188 1102.17,-174.87 1140.53,-147.04 1159.14,-132.42"/>
<polygon fill="#63b8ff" stroke="#63b8ff" points="750.26,-229.93 740.28,-233.49 750.3,-236.93 750.26,-229.93"/>
</a>
</g>
</g>
<!-- Node3 -->
<g id="Node000003" class="node">
<title>Node3</title>
<g id="a_Node000003"><a xlink:href="AssetFactory_8cpp.html" target="_top" xlink:title=" ">
<polygon fill="white" stroke="#666666" points="255.94,-132 163.44,-132 163.44,-112 255.94,-112 255.94,-132"/>
<text xml:space="preserve" text-anchor="middle" x="209.69" y="-118.5" font-family="Helvetica,sans-Serif" font-size="10.00">AssetFactory.cpp</text>
</a>
</g>
</g>
<!-- Node2&#45;&gt;Node3 -->
<g id="edge2_Node000002_Node000003" class="edge">
<title>Node2&#45;&gt;Node3</title>
<g id="a_edge2_Node000002_Node000003"><a xlink:title=" ">
<path fill="none" stroke="#63b8ff" d="M209.69,-156.13C209.69,-147.9 209.69,-138.85 209.69,-132.3"/>
<polygon fill="#63b8ff" stroke="#63b8ff" points="206.19,-156.08 209.69,-166.08 213.19,-156.08 206.19,-156.08"/>
</a>
</g>
</g>
<!-- Node2&#45;&gt;Node4 -->
<g id="edge3_Node000002_Node000004" class="edge">
<title>Node2&#45;&gt;Node4</title>
<g id="a_edge3_Node000002_Node000004"><a xlink:title=" ">
<path fill="none" stroke="#63b8ff" d="M181.93,-161.66C162.79,-149.01 142.78,-130.23 154.69,-112 176.45,-78.68 210.21,-105.72 236.69,-76 250.98,-59.96 255.06,-33.87 256.22,-20.13"/>
<polygon fill="#63b8ff" stroke="#63b8ff" points="180.05,-164.61 190.39,-166.89 183.72,-158.66 180.05,-164.61"/>
</a>
</g>
</g>
<!-- Node5&#45;&gt;Node4 -->
<g id="edge6_Node000005_Node000004" class="edge">
<title>Node5&#45;&gt;Node4</title>
<g id="a_edge6_Node000005_Node000004"><a xlink:title=" ">
<path fill="none" stroke="#63b8ff" d="M389.78,-52.31C358.38,-42.56 315.7,-29.32 287.23,-20.48"/>
<polygon fill="#63b8ff" stroke="#63b8ff" points="388.34,-55.52 398.93,-55.15 390.42,-48.84 388.34,-55.52"/>
</a>
</g>
</g>
<!-- Node6 -->
<g id="Node000006" class="node">
<title>Node6</title>
<g id="a_Node000006"><a xlink:href="AssetManager_8cpp.html" target="_top" xlink:title=" ">
<polygon fill="white" stroke="#666666" points="479.56,-20 381.81,-20 381.81,0 479.56,0 479.56,-20"/>
<text xml:space="preserve" text-anchor="middle" x="430.69" y="-6.5" font-family="Helvetica,sans-Serif" font-size="10.00">AssetManager.cpp</text>
</a>
</g>
</g>
<!-- Node5&#45;&gt;Node6 -->
<g id="edge5_Node000005_Node000006" class="edge">
<title>Node5&#45;&gt;Node6</title>
<g id="a_edge5_Node000005_Node000006"><a xlink:title=" ">
<path fill="none" stroke="#63b8ff" d="M430.69,-44.13C430.69,-35.9 430.69,-26.85 430.69,-20.3"/>
<polygon fill="#63b8ff" stroke="#63b8ff" points="427.19,-44.08 430.69,-54.08 434.19,-44.08 427.19,-44.08"/>
</a>
</g>
</g>
<!-- Node7 -->
<g id="Node000007" class="node">
<title>Node7</title>
<g id="a_Node000007"><a xlink:href="main_8cpp.html" target="_top" xlink:title=" ">
<polygon fill="white" stroke="#666666" points="622.56,-20 566.81,-20 566.81,0 622.56,0 622.56,-20"/>
<text xml:space="preserve" text-anchor="middle" x="594.69" y="-6.5" font-family="Helvetica,sans-Serif" font-size="10.00">main.cpp</text>
</a>
</g>
</g>
<!-- Node5&#45;&gt;Node7 -->
<g id="edge7_Node000005_Node000007" class="edge">
<title>Node5&#45;&gt;Node7</title>
<g id="a_edge7_Node000005_Node000007"><a xlink:title=" ">
<path fill="none" stroke="#63b8ff" d="M470.09,-52.03C499.81,-42.24 539.87,-29.05 566.45,-20.3"/>
<polygon fill="#63b8ff" stroke="#63b8ff" points="469.09,-48.67 460.69,-55.12 471.28,-55.32 469.09,-48.67"/>
</a>
</g>
</g>
<!-- Node9&#45;&gt;Node3 -->
<g id="edge10_Node000009_Node000003" class="edge">
<title>Node9&#45;&gt;Node3</title>
<g id="a_edge10_Node000009_Node000003"><a xlink:title=" ">
<path fill="none" stroke="#63b8ff" d="M311.44,-163.4C287.14,-153.75 255.13,-141.05 233.56,-132.48"/>
<polygon fill="#63b8ff" stroke="#63b8ff" points="310,-166.6 320.59,-167.04 312.59,-160.09 310,-166.6"/>
</a>
</g>
</g>
<!-- Node9&#45;&gt;Node5 -->
<g id="edge11_Node000009_Node000005" class="edge">
<title>Node9&#45;&gt;Node5</title>
<g id="a_edge11_Node000009_Node000005"><a xlink:title=" ">
<path fill="none" stroke="#63b8ff" d="M361.51,-158.89C368.46,-150.78 376.62,-141.03 383.69,-132 398.78,-112.69 415.34,-89.21 424.21,-76.42"/>
<polygon fill="#63b8ff" stroke="#63b8ff" points="358.94,-156.52 355.04,-166.37 364.23,-161.1 358.94,-156.52"/>
</a>
</g>
</g>
<!-- Node10 -->
<g id="Node000010" class="node">
<title>Node10</title>
<g id="a_Node000010"><a xlink:href="AssetMetadata_8cpp.html" target="_top" xlink:title=" ">
<polygon fill="white" stroke="#666666" points="375.06,-132 274.31,-132 274.31,-112 375.06,-112 375.06,-132"/>
<text xml:space="preserve" text-anchor="middle" x="324.69" y="-118.5" font-family="Helvetica,sans-Serif" font-size="10.00">AssetMetadata.cpp</text>
</a>
</g>
</g>
<!-- Node9&#45;&gt;Node10 -->
<g id="edge12_Node000009_Node000010" class="edge">
<title>Node9&#45;&gt;Node10</title>
<g id="a_edge12_Node000009_Node000010"><a xlink:title=" ">
<path fill="none" stroke="#63b8ff" d="M337.91,-157C334.62,-148.54 330.94,-139.08 328.3,-132.3"/>
<polygon fill="#63b8ff" stroke="#63b8ff" points="334.59,-158.13 341.48,-166.18 341.12,-155.59 334.59,-158.13"/>
</a>
</g>
</g>
<!-- Node11&#45;&gt;Node4 -->
<g id="edge15_Node000011_Node000004" class="edge">
<title>Node11&#45;&gt;Node4</title>
<g id="a_edge15_Node000011_Node000004"><a xlink:title=" ">
<path fill="none" stroke="#63b8ff" d="M105.07,-52.56C140.71,-42.79 189.59,-29.39 222.1,-20.48"/>
<polygon fill="#63b8ff" stroke="#63b8ff" points="104.18,-49.17 95.46,-55.19 106.03,-55.93 104.18,-49.17"/>
</a>
</g>
</g>
<!-- Node11&#45;&gt;Node7 -->
<g id="edge16_Node000011_Node000007" class="edge">
<title>Node11&#45;&gt;Node7</title>
<g id="a_edge16_Node000011_Node000007"><a xlink:title=" ">
<path fill="none" stroke="#63b8ff" d="M118.47,-55.74C223.56,-43.07 480.78,-20.75 566.47,-13.41"/>
<polygon fill="#63b8ff" stroke="#63b8ff" points="118.31,-52.24 108.82,-56.94 119.17,-59.18 118.31,-52.24"/>
</a>
</g>
</g>
<!-- Node12&#45;&gt;Node13 -->
<g id="edge18_Node000012_Node000013" class="edge">
<title>Node12&#45;&gt;Node13</title>
<g id="a_edge18_Node000012_Node000013"><a xlink:title=" ">
<path fill="none" stroke="#63b8ff" d="M830.28,-157C827.14,-148.54 823.64,-139.08 821.13,-132.3"/>
<polygon fill="#63b8ff" stroke="#63b8ff" points="826.92,-158.01 833.68,-166.17 833.49,-155.58 826.92,-158.01"/>
</a>
</g>
</g>
<!-- Node16 -->
<g id="Node000016" class="node">
<title>Node16</title>
<g id="a_Node000016"><a xlink:href="TextureExporter_8h.html" target="_top" xlink:title=" ">
<polygon fill="white" stroke="#666666" points="977.31,-132 884.06,-132 884.06,-112 977.31,-112 977.31,-132"/>
<text xml:space="preserve" text-anchor="middle" x="930.69" y="-118.5" font-family="Helvetica,sans-Serif" font-size="10.00">TextureExporter.h</text>
</a>
</g>
</g>
<!-- Node12&#45;&gt;Node16 -->
<g id="edge23_Node000012_Node000016" class="edge">
<title>Node12&#45;&gt;Node16</title>
<g id="a_edge23_Node000012_Node000016"><a xlink:title=" ">
<path fill="none" stroke="#63b8ff" d="M863.38,-162.08C879.68,-152.62 900.27,-140.66 914.36,-132.48"/>
<polygon fill="#63b8ff" stroke="#63b8ff" points="862.08,-158.79 855.19,-166.83 865.6,-164.84 862.08,-158.79"/>
</a>
</g>
</g>
<!-- Node13&#45;&gt;Node4 -->
<g id="edge19_Node000013_Node000004" class="edge">
<title>Node13&#45;&gt;Node4</title>
<g id="a_edge19_Node000013_Node000004"><a xlink:title=" ">
<path fill="none" stroke="#63b8ff" d="M815.83,-100.51C813.32,-85.68 807.45,-66.47 793.69,-56 791.29,-54.17 444.19,-26.08 309.37,-15.23"/>
<polygon fill="#63b8ff" stroke="#63b8ff" points="812.32,-100.67 817.05,-110.15 819.26,-99.79 812.32,-100.67"/>
</a>
</g>
</g>
<!-- Node13&#45;&gt;Node7 -->
<g id="edge22_Node000013_Node000007" class="edge">
<title>Node13&#45;&gt;Node7</title>
<g id="a_edge22_Node000013_Node000007"><a xlink:title=" ">
<path fill="none" stroke="#63b8ff" d="M827.39,-101.71C832.99,-87.54 837.1,-68.62 826.69,-56 801.1,-24.98 678.7,-15.08 622.73,-12.15"/>
<polygon fill="#63b8ff" stroke="#63b8ff" points="824.35,-99.92 823.44,-110.48 830.74,-102.8 824.35,-99.92"/>
</a>
</g>
</g>
<!-- Node14 -->
<g id="Node000014" class="node">
<title>Node14</title>
<g id="a_Node000014"><a xlink:href="ExporterRegistry_8cpp.html" target="_top" xlink:title=" ">
<polygon fill="white" stroke="#666666" points="986.44,-76 878.94,-76 878.94,-56 986.44,-56 986.44,-76"/>
<text xml:space="preserve" text-anchor="middle" x="932.69" y="-62.5" font-family="Helvetica,sans-Serif" font-size="10.00">ExporterRegistry.cpp</text>
</a>
</g>
</g>
<!-- Node13&#45;&gt;Node14 -->
<g id="edge20_Node000013_Node000014" class="edge">
<title>Node13&#45;&gt;Node14</title>
<g id="a_edge20_Node000013_Node000014"><a xlink:title=" ">
<path fill="none" stroke="#63b8ff" d="M848.04,-106.75C868.41,-97.18 894.67,-84.85 912.5,-76.48"/>
<polygon fill="#63b8ff" stroke="#63b8ff" points="846.65,-103.53 839.09,-110.95 849.63,-109.87 846.65,-103.53"/>
</a>
</g>
</g>
<!-- Node13&#45;&gt;Node15 -->
<g id="edge21_Node000013_Node000015" class="edge">
<title>Node13&#45;&gt;Node15</title>
<g id="a_edge21_Node000013_Node000015"><a xlink:title=" ">
<path fill="none" stroke="#63b8ff" d="M794.67,-105.27C781.03,-95.94 764.18,-84.43 752.55,-76.48"/>
<polygon fill="#63b8ff" stroke="#63b8ff" points="792.44,-107.99 802.68,-110.74 796.4,-102.21 792.44,-107.99"/>
</a>
</g>
</g>
<!-- Node16&#45;&gt;Node7 -->
<g id="edge25_Node000016_Node000007" class="edge">
<title>Node16&#45;&gt;Node7</title>
<g id="a_edge25_Node000016_Node000007"><a xlink:title=" ">
<path fill="none" stroke="#63b8ff" d="M962.36,-106.38C986.05,-93.5 1011.81,-74.03 995.69,-56 970.85,-28.22 710.34,-15.53 623.03,-12.04"/>
<polygon fill="#63b8ff" stroke="#63b8ff" points="960.76,-103.26 953.46,-110.95 963.96,-109.49 960.76,-103.26"/>
</a>
</g>
</g>
<!-- Node16&#45;&gt;Node17 -->
<g id="edge24_Node000016_Node000017" class="edge">
<title>Node16&#45;&gt;Node17</title>
<g id="a_edge24_Node000016_Node000017"><a xlink:title=" ">
<path fill="none" stroke="#63b8ff" d="M982.73,-108.94C1025.05,-99.13 1083.92,-85.49 1122.88,-76.46"/>
<polygon fill="#63b8ff" stroke="#63b8ff" points="981.96,-105.52 973.01,-111.19 983.54,-112.34 981.96,-105.52"/>
</a>
</g>
</g>
<!-- Node19 -->
<g id="Node000019" class="node">
<title>Node19</title>
<g id="a_Node000019"><a xlink:href="ImporterRegistry_8h.html" target="_top" xlink:title=" ">
<polygon fill="white" stroke="#666666" points="712.81,-132 616.56,-132 616.56,-112 712.81,-112 712.81,-132"/>
<text xml:space="preserve" text-anchor="middle" x="664.69" y="-118.5" font-family="Helvetica,sans-Serif" font-size="10.00">ImporterRegistry.h</text>
</a>
</g>
</g>
<!-- Node18&#45;&gt;Node19 -->
<g id="edge29_Node000018_Node000019" class="edge">
<title>Node18&#45;&gt;Node19</title>
<g id="a_edge29_Node000018_Node000019"><a xlink:title=" ">
<path fill="none" stroke="#63b8ff" d="M664.69,-156.13C664.69,-147.9 664.69,-138.85 664.69,-132.3"/>
<polygon fill="#63b8ff" stroke="#63b8ff" points="661.19,-156.08 664.69,-166.08 668.19,-156.08 661.19,-156.08"/>
</a>
</g>
</g>
<!-- Node21 -->
<g id="Node000021" class="node">
<title>Node21</title>
<g id="a_Node000021"><a xlink:href="TextureImporter_8h.html" target="_top" xlink:title=" ">
<polygon fill="white" stroke="#666666" points="560.94,-132 468.44,-132 468.44,-112 560.94,-112 560.94,-132"/>
<text xml:space="preserve" text-anchor="middle" x="514.69" y="-118.5" font-family="Helvetica,sans-Serif" font-size="10.00">TextureImporter.h</text>
</a>
</g>
</g>
<!-- Node18&#45;&gt;Node21 -->
<g id="edge34_Node000018_Node000021" class="edge">
<title>Node18&#45;&gt;Node21</title>
<g id="a_edge34_Node000018_Node000021"><a xlink:title=" ">
<path fill="none" stroke="#63b8ff" d="M628,-163.79C601.07,-154.1 565.13,-141.16 541.02,-132.48"/>
<polygon fill="#63b8ff" stroke="#63b8ff" points="626.54,-166.99 637.13,-167.08 628.91,-160.4 626.54,-166.99"/>
</a>
</g>
</g>
<!-- Node19&#45;&gt;Node5 -->
<g id="edge30_Node000019_Node000005" class="edge">
<title>Node19&#45;&gt;Node5</title>
<g id="a_edge30_Node000019_Node000005"><a xlink:title=" ">
<path fill="none" stroke="#63b8ff" d="M612.69,-109C570.17,-99.19 510.88,-85.51 471.67,-76.46"/>
<polygon fill="#63b8ff" stroke="#63b8ff" points="611.65,-112.35 622.18,-111.19 613.23,-105.53 611.65,-112.35"/>
</a>
</g>
</g>
<!-- Node19&#45;&gt;Node7 -->
<g id="edge33_Node000019_Node000007" class="edge">
<title>Node19&#45;&gt;Node7</title>
<g id="a_edge33_Node000019_Node000007"><a xlink:title=" ">
<path fill="none" stroke="#63b8ff" d="M661.83,-100.97C659.22,-87.46 654.38,-69.67 645.69,-56 636.31,-41.25 620.73,-28.51 609.25,-20.39"/>
<polygon fill="#63b8ff" stroke="#63b8ff" points="658.31,-101.16 663.41,-110.44 665.22,-100.01 658.31,-101.16"/>
</a>
</g>
</g>
<!-- Node19&#45;&gt;Node15 -->
<g id="edge31_Node000019_Node000015" class="edge">
<title>Node19&#45;&gt;Node15</title>
<g id="a_edge31_Node000019_Node000015"><a xlink:title=" ">
<path fill="none" stroke="#63b8ff" d="M686.67,-104.95C699.48,-95.61 715.17,-84.16 725.94,-76.3"/>
<polygon fill="#63b8ff" stroke="#63b8ff" points="684.81,-101.98 678.8,-110.7 688.94,-107.63 684.81,-101.98"/>
</a>
</g>
</g>
<!-- Node20 -->
<g id="Node000020" class="node">
<title>Node20</title>
<g id="a_Node000020"><a xlink:href="ImporterRegistry_8cpp.html" target="_top" xlink:title=" ">
<polygon fill="white" stroke="#666666" points="637.06,-76 530.31,-76 530.31,-56 637.06,-56 637.06,-76"/>
<text xml:space="preserve" text-anchor="middle" x="583.69" y="-62.5" font-family="Helvetica,sans-Serif" font-size="10.00">ImporterRegistry.cpp</text>
</a>
</g>
</g>
<!-- Node19&#45;&gt;Node20 -->
<g id="edge32_Node000019_Node000020" class="edge">
<title>Node19&#45;&gt;Node20</title>
<g id="a_edge32_Node000019_Node000020"><a xlink:title=" ">
<path fill="none" stroke="#63b8ff" d="M641.09,-105.27C627.1,-95.94 609.83,-84.43 597.91,-76.48"/>
<polygon fill="#63b8ff" stroke="#63b8ff" points="639.06,-108.12 649.32,-110.75 642.94,-102.3 639.06,-108.12"/>
</a>
</g>
</g>
<!-- Node21&#45;&gt;Node7 -->
<g id="edge36_Node000021_Node000007" class="edge">
<title>Node21&#45;&gt;Node7</title>
<g id="a_edge36_Node000021_Node000007"><a xlink:title=" ">
<path fill="none" stroke="#63b8ff" d="M512.45,-100.69C511.95,-87.05 513.34,-69.23 521.69,-56 532.33,-39.13 551.83,-27.59 568,-20.42"/>
<polygon fill="#63b8ff" stroke="#63b8ff" points="508.93,-100.57 513.17,-110.27 515.91,-100.04 508.93,-100.57"/>
</a>
</g>
</g>
<!-- Node21&#45;&gt;Node22 -->
<g id="edge35_Node000021_Node000022" class="edge">
<title>Node21&#45;&gt;Node22</title>
<g id="a_edge35_Node000021_Node000022"><a xlink:title=" ">
<path fill="none" stroke="#63b8ff" d="M456.93,-111.77C392.84,-101.53 290.33,-85.16 228.66,-75.3"/>
<polygon fill="#63b8ff" stroke="#63b8ff" points="456.12,-115.19 466.55,-113.31 457.23,-108.28 456.12,-115.19"/>
</a>
</g>
</g>
<!-- Node23&#45;&gt;Node5 -->
<g id="edge40_Node000023_Node000005" class="edge">
<title>Node23&#45;&gt;Node5</title>
<g id="a_edge40_Node000023_Node000005"><a xlink:title=" ">
<path fill="none" stroke="#63b8ff" d="M932.03,-172.26C836.34,-165.03 666.57,-150.18 607.69,-132 589.45,-126.37 587.27,-119.41 569.69,-112 535.09,-97.42 494.04,-84.66 465.56,-76.49"/>
<polygon fill="#63b8ff" stroke="#63b8ff" points="931.57,-175.73 941.81,-172.99 932.09,-168.75 931.57,-175.73"/>
</a>
</g>
</g>
<!-- Node24 -->
<g id="Node000024" class="node">
<title>Node24</title>
<g id="a_Node000024"><a xlink:href="ThumbnailGenerator_8cpp.html" target="_top" xlink:title=" ">
<polygon fill="white" stroke="#666666" points="1117.94,-132 995.44,-132 995.44,-112 1117.94,-112 1117.94,-132"/>
<text xml:space="preserve" text-anchor="middle" x="1056.69" y="-118.5" font-family="Helvetica,sans-Serif" font-size="10.00">ThumbnailGenerator.cpp</text>
</a>
</g>
</g>
<!-- Node23&#45;&gt;Node24 -->
<g id="edge41_Node000023_Node000024" class="edge">
<title>Node23&#45;&gt;Node24</title>
<g id="a_edge41_Node000023_Node000024"><a xlink:title=" ">
<path fill="none" stroke="#63b8ff" d="M1017.79,-159.85C1027.43,-150.72 1038.89,-139.86 1046.87,-132.3"/>
<polygon fill="#63b8ff" stroke="#63b8ff" points="1015.57,-157.13 1010.71,-166.55 1020.38,-162.22 1015.57,-157.13"/>
</a>
</g>
</g>
<!-- Node23&#45;&gt;Node25 -->
<g id="edge42_Node000023_Node000025" class="edge">
<title>Node23&#45;&gt;Node25</title>
<g id="a_edge42_Node000023_Node000025"><a xlink:title=" ">
<path fill="none" stroke="#63b8ff" d="M1040.29,-164.18C1071.12,-154.44 1112.81,-141.28 1140.67,-132.48"/>
<polygon fill="#63b8ff" stroke="#63b8ff" points="1039.4,-160.79 1030.92,-167.14 1041.51,-167.46 1039.4,-160.79"/>
</a>
</g>
</g>
</g>
</svg>
