<?xml version="1.0" encoding="UTF-8" standalone="no"?>
<!DOCTYPE svg PUBLIC "-//W3C//DTD SVG 1.1//EN"
 "http://www.w3.org/Graphics/SVG/1.1/DTD/svg11.dtd">
<!-- Generated by graphviz version 14.0.2 (20251019.1705)
 -->
<!-- Title: AssetMetadata.h Pages: 1 -->
<svg width="167pt" height="140pt"
 viewBox="0.00 0.00 167.00 140.00" xmlns="http://www.w3.org/2000/svg" xmlns:xlink="http://www.w3.org/1999/xlink">
<g id="graph0" class="graph" transform="scale(1 1) rotate(0) translate(4 136)">
<title>AssetMetadata.h</title>
<!-- Node1 -->
<g id="Node000001" class="node">
<title>Node1</title>
<g id="a_Node000001"><a xlink:title=" ">
<polygon fill="#999999" stroke="#666666" points="95.12,-132 4.88,-132 4.88,-112 95.12,-112 95.12,-132"/>
<text xml:space="preserve" text-anchor="middle" x="50" y="-118.5" font-family="Helvetica,sans-Serif" font-size="10.00">AssetMetadata.h</text>
</a>
</g>
</g>
<!-- Node2 -->
<g id="Node000002" class="node">
<title>Node2</title>
<g id="a_Node000002"><a xlink:href="AssetMeta_8h.html" target="_top" xlink:title=" ">
<polygon fill="white" stroke="#666666" points="159.12,-76 32.88,-76 32.88,-56 159.12,-56 159.12,-76"/>
<text xml:space="preserve" text-anchor="middle" x="96" y="-62.5" font-family="Helvetica,sans-Serif" font-size="10.00">LGE/assets/AssetMeta.h</text>
</a>
</g>
</g>
<!-- Node1&#45;&gt;Node2 -->
<g id="edge1_Node000001_Node000002" class="edge">
<title>Node1&#45;&gt;Node2</title>
<g id="a_edge1_Node000001_Node000002"><a xlink:title=" ">
<path fill="none" stroke="#63b8ff" d="M58.01,-111.59C64.28,-104.24 73.17,-93.8 80.78,-84.87"/>
<polygon fill="#63b8ff" stroke="#63b8ff" points="83.28,-87.33 87.1,-77.45 77.95,-82.79 83.28,-87.33"/>
</a>
</g>
</g>
<!-- Node3 -->
<g id="Node000003" class="node">
<title>Node3</title>
<g id="a_Node000003"><a xlink:title=" ">
<polygon fill="#e0e0e0" stroke="#999999" points="40,-20 0,-20 0,0 40,0 40,-20"/>
<text xml:space="preserve" text-anchor="middle" x="20" y="-6.5" font-family="Helvetica,sans-Serif" font-size="10.00">string</text>
</a>
</g>
</g>
<!-- Node1&#45;&gt;Node3 -->
<g id="edge4_Node000001_Node000003" class="edge">
<title>Node1&#45;&gt;Node3</title>
<g id="a_edge4_Node000001_Node000003"><a xlink:title=" ">
<path fill="none" stroke="#63b8ff" d="M42.82,-111.6C36.6,-102.89 28.01,-89.3 24,-76 19.69,-61.71 18.77,-44.88 18.88,-31.92"/>
<polygon fill="#63b8ff" stroke="#63b8ff" points="22.37,-32.11 19.2,-22.01 15.37,-31.89 22.37,-32.11"/>
</a>
</g>
</g>
<!-- Node2&#45;&gt;Node3 -->
<g id="edge2_Node000002_Node000003" class="edge">
<title>Node2&#45;&gt;Node3</title>
<g id="a_edge2_Node000002_Node000003"><a xlink:title=" ">
<path fill="none" stroke="#63b8ff" d="M82.76,-55.59C71.71,-47.74 55.72,-36.38 42.64,-27.09"/>
<polygon fill="#63b8ff" stroke="#63b8ff" points="44.75,-24.3 34.58,-21.36 40.7,-30 44.75,-24.3"/>
</a>
</g>
</g>
<!-- Node4 -->
<g id="Node000004" class="node">
<title>Node4</title>
<g id="a_Node000004"><a xlink:title=" ">
<polygon fill="#e0e0e0" stroke="#999999" points="118.62,-20 73.38,-20 73.38,0 118.62,0 118.62,-20"/>
<text xml:space="preserve" text-anchor="middle" x="96" y="-6.5" font-family="Helvetica,sans-Serif" font-size="10.00">cstdint</text>
</a>
</g>
</g>
<!-- Node2&#45;&gt;Node4 -->
<g id="edge3_Node000002_Node000004" class="edge">
<title>Node2&#45;&gt;Node4</title>
<g id="a_edge3_Node000002_Node000004"><a xlink:title=" ">
<path fill="none" stroke="#63b8ff" d="M96,-55.59C96,-49.01 96,-39.96 96,-31.73"/>
<polygon fill="#63b8ff" stroke="#63b8ff" points="99.5,-31.81 96,-21.81 92.5,-31.81 99.5,-31.81"/>
</a>
</g>
</g>
</g>
</svg>
