<?xml version="1.0" encoding="UTF-8" standalone="no"?>
<!DOCTYPE svg PUBLIC "-//W3C//DTD SVG 1.1//EN"
 "http://www.w3.org/Graphics/SVG/1.1/DTD/svg11.dtd">
<!-- Generated by graphviz version 14.0.2 (20251019.1705)
 -->
<!-- Title: AssetRegistry.cpp Pages: 1 -->
<svg width="969pt" height="196pt"
 viewBox="0.00 0.00 969.00 196.00" xmlns="http://www.w3.org/2000/svg" xmlns:xlink="http://www.w3.org/1999/xlink">
<g id="graph0" class="graph" transform="scale(1 1) rotate(0) translate(4 192)">
<title>AssetRegistry.cpp</title>
<!-- Node1 -->
<g id="Node000001" class="node">
<title>Node1</title>
<g id="a_Node000001"><a xlink:title=" ">
<polygon fill="#999999" stroke="#666666" points="646.21,-188 549.96,-188 549.96,-168 646.21,-168 646.21,-188"/>
<text xml:space="preserve" text-anchor="middle" x="598.08" y="-174.5" font-family="Helvetica,sans-Serif" font-size="10.00">AssetRegistry.cpp</text>
</a>
</g>
</g>
<!-- Node2 -->
<g id="Node000002" class="node">
<title>Node2</title>
<g id="a_Node000002"><a xlink:href="AssetRegistry_8h.html" target="_top" xlink:title=" ">
<polygon fill="white" stroke="#666666" points="240.83,-132 121.33,-132 121.33,-112 240.83,-112 240.83,-132"/>
<text xml:space="preserve" text-anchor="middle" x="181.08" y="-118.5" font-family="Helvetica,sans-Serif" font-size="10.00">LGE/fs/AssetRegistry.h</text>
</a>
</g>
</g>
<!-- Node1&#45;&gt;Node2 -->
<g id="edge1_Node000001_Node000002" class="edge">
<title>Node1&#45;&gt;Node2</title>
<g id="a_edge1_Node000001_Node000002"><a xlink:title=" ">
<path fill="none" stroke="#63b8ff" d="M549.84,-170.75C476.77,-161.29 337.57,-143.26 252.67,-132.27"/>
<polygon fill="#63b8ff" stroke="#63b8ff" points="253.18,-128.81 242.82,-130.99 252.28,-135.75 253.18,-128.81"/>
</a>
</g>
</g>
<!-- Node3 -->
<g id="Node000003" class="node">
<title>Node3</title>
<g id="a_Node000003"><a xlink:href="MetaDB_8h.html" target="_top" xlink:title=" ">
<polygon fill="white" stroke="#666666" points="334.08,-76 240.08,-76 240.08,-56 334.08,-56 334.08,-76"/>
<text xml:space="preserve" text-anchor="middle" x="287.08" y="-62.5" font-family="Helvetica,sans-Serif" font-size="10.00">LGE/fs/MetaDB.h</text>
</a>
</g>
</g>
<!-- Node1&#45;&gt;Node3 -->
<g id="edge15_Node000001_Node000003" class="edge">
<title>Node1&#45;&gt;Node3</title>
<g id="a_edge15_Node000001_Node000003"><a xlink:title=" ">
<path fill="none" stroke="#63b8ff" d="M571.3,-167.53C515.84,-147.91 388.32,-102.81 324.66,-80.29"/>
<polygon fill="#63b8ff" stroke="#63b8ff" points="325.94,-77.03 315.34,-76.99 323.6,-83.63 325.94,-77.03"/>
</a>
</g>
</g>
<!-- Node11 -->
<g id="Node000011" class="node">
<title>Node11</title>
<g id="a_Node000011"><a xlink:href="VFS_8h.html" target="_top" xlink:title=" ">
<polygon fill="white" stroke="#666666" points="467.83,-76 390.33,-76 390.33,-56 467.83,-56 467.83,-76"/>
<text xml:space="preserve" text-anchor="middle" x="429.08" y="-62.5" font-family="Helvetica,sans-Serif" font-size="10.00">LGE/fs/VFS.h</text>
</a>
</g>
</g>
<!-- Node1&#45;&gt;Node11 -->
<g id="edge16_Node000001_Node000011" class="edge">
<title>Node1&#45;&gt;Node11</title>
<g id="a_edge16_Node000001_Node000011"><a xlink:title=" ">
<path fill="none" stroke="#63b8ff" d="M583.68,-167.62C554.62,-148.71 488.72,-105.82 453.07,-82.61"/>
<polygon fill="#63b8ff" stroke="#63b8ff" points="455.02,-79.7 444.73,-77.18 451.2,-85.57 455.02,-79.7"/>
</a>
</g>
</g>
<!-- Node12 -->
<g id="Node000012" class="node">
<title>Node12</title>
<g id="a_Node000012"><a xlink:href="Path_8h.html" target="_top" xlink:title=" ">
<polygon fill="white" stroke="#666666" points="564.21,-76 485.96,-76 485.96,-56 564.21,-56 564.21,-76"/>
<text xml:space="preserve" text-anchor="middle" x="525.08" y="-62.5" font-family="Helvetica,sans-Serif" font-size="10.00">LGE/fs/Path.h</text>
</a>
</g>
</g>
<!-- Node1&#45;&gt;Node12 -->
<g id="edge21_Node000001_Node000012" class="edge">
<title>Node1&#45;&gt;Node12</title>
<g id="a_edge21_Node000001_Node000012"><a xlink:title=" ">
<path fill="none" stroke="#63b8ff" d="M591.86,-167.62C579.85,-149.52 553.26,-109.45 537.5,-85.7"/>
<polygon fill="#63b8ff" stroke="#63b8ff" points="540.58,-84.01 532.13,-77.62 534.74,-87.88 540.58,-84.01"/>
</a>
</g>
</g>
<!-- Node13 -->
<g id="Node000013" class="node">
<title>Node13</title>
<g id="a_Node000013"><a xlink:href="FileIO_8h.html" target="_top" xlink:title=" ">
<polygon fill="white" stroke="#666666" points="704.21,-76 619.96,-76 619.96,-56 704.21,-56 704.21,-76"/>
<text xml:space="preserve" text-anchor="middle" x="662.08" y="-62.5" font-family="Helvetica,sans-Serif" font-size="10.00">LGE/fs/FileIO.h</text>
</a>
</g>
</g>
<!-- Node1&#45;&gt;Node13 -->
<g id="edge24_Node000001_Node000013" class="edge">
<title>Node1&#45;&gt;Node13</title>
<g id="a_edge24_Node000001_Node000013"><a xlink:title=" ">
<path fill="none" stroke="#63b8ff" d="M591.62,-167.55C583.46,-154.31 571.64,-129.86 582.08,-112 590.31,-97.94 604.71,-87.94 619.05,-80.99"/>
<polygon fill="#63b8ff" stroke="#63b8ff" points="620.26,-84.28 628.01,-77.06 617.45,-77.87 620.26,-84.28"/>
</a>
</g>
</g>
<!-- Node14 -->
<g id="Node000014" class="node">
<title>Node14</title>
<g id="a_Node000014"><a xlink:href="Log_8h.html" target="_top" xlink:title=" ">
<polygon fill="white" stroke="#666666" points="675.21,-132 590.96,-132 590.96,-112 675.21,-112 675.21,-132"/>
<text xml:space="preserve" text-anchor="middle" x="633.08" y="-118.5" font-family="Helvetica,sans-Serif" font-size="10.00">LGE/core/Log.h</text>
</a>
</g>
</g>
<!-- Node1&#45;&gt;Node14 -->
<g id="edge27_Node000001_Node000014" class="edge">
<title>Node1&#45;&gt;Node14</title>
<g id="a_edge27_Node000001_Node000014"><a xlink:title=" ">
<path fill="none" stroke="#63b8ff" d="M604.18,-167.59C608.8,-160.47 615.29,-150.45 620.95,-141.72"/>
<polygon fill="#63b8ff" stroke="#63b8ff" points="623.73,-143.86 626.23,-133.57 617.86,-140.06 623.73,-143.86"/>
</a>
</g>
</g>
<!-- Node16 -->
<g id="Node000016" class="node">
<title>Node16</title>
<g id="a_Node000016"><a xlink:title=" ">
<polygon fill="#e0e0e0" stroke="#999999" points="754.58,-132 693.58,-132 693.58,-112 754.58,-112 754.58,-132"/>
<text xml:space="preserve" text-anchor="middle" x="724.08" y="-118.5" font-family="Helvetica,sans-Serif" font-size="10.00">filesystem</text>
</a>
</g>
</g>
<!-- Node1&#45;&gt;Node16 -->
<g id="edge30_Node000001_Node000016" class="edge">
<title>Node1&#45;&gt;Node16</title>
<g id="a_edge30_Node000001_Node000016"><a xlink:title=" ">
<path fill="none" stroke="#63b8ff" d="M620.03,-167.59C639.78,-159.13 669.07,-146.58 691.55,-136.94"/>
<polygon fill="#63b8ff" stroke="#63b8ff" points="692.76,-140.23 700.57,-133.08 690,-133.8 692.76,-140.23"/>
</a>
</g>
</g>
<!-- Node17 -->
<g id="Node000017" class="node">
<title>Node17</title>
<g id="a_Node000017"><a xlink:title=" ">
<polygon fill="#e0e0e0" stroke="#999999" points="827.96,-132 772.21,-132 772.21,-112 827.96,-112 827.96,-132"/>
<text xml:space="preserve" text-anchor="middle" x="800.08" y="-118.5" font-family="Helvetica,sans-Serif" font-size="10.00">algorithm</text>
</a>
</g>
</g>
<!-- Node1&#45;&gt;Node17 -->
<g id="edge31_Node000001_Node000017" class="edge">
<title>Node1&#45;&gt;Node17</title>
<g id="a_edge31_Node000001_Node000017"><a xlink:title=" ">
<path fill="none" stroke="#63b8ff" d="M633.27,-167.59C668.92,-158.06 723.94,-143.35 760.95,-133.46"/>
<polygon fill="#63b8ff" stroke="#63b8ff" points="761.59,-136.91 770.35,-130.95 759.78,-130.15 761.59,-136.91"/>
</a>
</g>
</g>
<!-- Node18 -->
<g id="Node000018" class="node">
<title>Node18</title>
<g id="a_Node000018"><a xlink:title=" ">
<polygon fill="#e0e0e0" stroke="#999999" points="891.71,-132 846.46,-132 846.46,-112 891.71,-112 891.71,-132"/>
<text xml:space="preserve" text-anchor="middle" x="869.08" y="-118.5" font-family="Helvetica,sans-Serif" font-size="10.00">cctype</text>
</a>
</g>
</g>
<!-- Node1&#45;&gt;Node18 -->
<g id="edge32_Node000001_Node000018" class="edge">
<title>Node1&#45;&gt;Node18</title>
<g id="a_edge32_Node000001_Node000018"><a xlink:title=" ">
<path fill="none" stroke="#63b8ff" d="M646.41,-169.19C692.51,-161.45 764.1,-148.69 835.14,-132.29"/>
<polygon fill="#63b8ff" stroke="#63b8ff" points="835.66,-135.76 844.6,-130.08 834.07,-128.94 835.66,-135.76"/>
</a>
</g>
</g>
<!-- Node19 -->
<g id="Node000019" class="node">
<title>Node19</title>
<g id="a_Node000019"><a xlink:title=" ">
<polygon fill="#e0e0e0" stroke="#999999" points="960.71,-132 909.46,-132 909.46,-112 960.71,-112 960.71,-132"/>
<text xml:space="preserve" text-anchor="middle" x="935.08" y="-118.5" font-family="Helvetica,sans-Serif" font-size="10.00">sstream</text>
</a>
</g>
</g>
<!-- Node1&#45;&gt;Node19 -->
<g id="edge33_Node000001_Node000019" class="edge">
<title>Node1&#45;&gt;Node19</title>
<g id="a_edge33_Node000001_Node000019"><a xlink:title=" ">
<path fill="none" stroke="#63b8ff" d="M646.66,-171.48C704.45,-164.53 804.06,-151.39 898.03,-132.46"/>
<polygon fill="#63b8ff" stroke="#63b8ff" points="898.59,-135.91 907.68,-130.48 897.18,-129.06 898.59,-135.91"/>
</a>
</g>
</g>
<!-- Node2&#45;&gt;Node3 -->
<g id="edge2_Node000002_Node000003" class="edge">
<title>Node2&#45;&gt;Node3</title>
<g id="a_edge2_Node000002_Node000003"><a xlink:title=" ">
<path fill="none" stroke="#63b8ff" d="M199.55,-111.59C215.79,-103.32 239.69,-91.14 258.42,-81.6"/>
<polygon fill="#63b8ff" stroke="#63b8ff" points="259.81,-84.82 267.13,-77.17 256.63,-78.59 259.81,-84.82"/>
</a>
</g>
</g>
<!-- Node4 -->
<g id="Node000004" class="node">
<title>Node4</title>
<g id="a_Node000004"><a xlink:title=" ">
<polygon fill="#e0e0e0" stroke="#999999" points="578.08,-20 538.08,-20 538.08,0 578.08,0 578.08,-20"/>
<text xml:space="preserve" text-anchor="middle" x="558.08" y="-6.5" font-family="Helvetica,sans-Serif" font-size="10.00">string</text>
</a>
</g>
</g>
<!-- Node2&#45;&gt;Node4 -->
<g id="edge8_Node000002_Node000004" class="edge">
<title>Node2&#45;&gt;Node4</title>
<g id="a_edge8_Node000002_Node000004"><a xlink:title=" ">
<path fill="none" stroke="#63b8ff" d="M241.08,-118.43C345.45,-113.34 551.4,-100.32 573.08,-76 584.26,-63.46 577.96,-44.27 570.4,-29.99"/>
<polygon fill="#63b8ff" stroke="#63b8ff" points="573.5,-28.35 565.4,-21.51 567.47,-31.91 573.5,-28.35"/>
</a>
</g>
</g>
<!-- Node5 -->
<g id="Node000005" class="node">
<title>Node5</title>
<g id="a_Node000005"><a xlink:title=" ">
<polygon fill="#e0e0e0" stroke="#999999" points="461.83,-20 396.33,-20 396.33,0 461.83,0 461.83,-20"/>
<text xml:space="preserve" text-anchor="middle" x="429.08" y="-6.5" font-family="Helvetica,sans-Serif" font-size="10.00">string_view</text>
</a>
</g>
</g>
<!-- Node2&#45;&gt;Node5 -->
<g id="edge9_Node000002_Node000005" class="edge">
<title>Node2&#45;&gt;Node5</title>
<g id="a_edge9_Node000002_Node000005"><a xlink:title=" ">
<path fill="none" stroke="#63b8ff" d="M233.98,-111.57C266.55,-104.5 308.54,-93.07 343.08,-76 368.85,-63.26 394.65,-42.42 411.17,-27.78"/>
<polygon fill="#63b8ff" stroke="#63b8ff" points="413.16,-30.7 418.21,-21.39 408.46,-25.51 413.16,-30.7"/>
</a>
</g>
</g>
<!-- Node6 -->
<g id="Node000006" class="node">
<title>Node6</title>
<g id="a_Node000006"><a xlink:title=" ">
<polygon fill="#e0e0e0" stroke="#999999" points="276.58,-20 233.58,-20 233.58,0 276.58,0 276.58,-20"/>
<text xml:space="preserve" text-anchor="middle" x="255.08" y="-6.5" font-family="Helvetica,sans-Serif" font-size="10.00">vector</text>
</a>
</g>
</g>
<!-- Node2&#45;&gt;Node6 -->
<g id="edge10_Node000002_Node000006" class="edge">
<title>Node2&#45;&gt;Node6</title>
<g id="a_edge10_Node000002_Node000006"><a xlink:title=" ">
<path fill="none" stroke="#63b8ff" d="M120.89,-116.89C61.82,-110.57 -15.06,-94.79 17.08,-56 42.75,-25.03 162.98,-15.21 222.1,-12.23"/>
<polygon fill="#63b8ff" stroke="#63b8ff" points="222.06,-15.74 231.88,-11.78 221.73,-8.75 222.06,-15.74"/>
</a>
</g>
</g>
<!-- Node7 -->
<g id="Node000007" class="node">
<title>Node7</title>
<g id="a_Node000007"><a xlink:title=" ">
<polygon fill="#e0e0e0" stroke="#999999" points="343.96,-20 294.21,-20 294.21,0 343.96,0 343.96,-20"/>
<text xml:space="preserve" text-anchor="middle" x="319.08" y="-6.5" font-family="Helvetica,sans-Serif" font-size="10.00">optional</text>
</a>
</g>
</g>
<!-- Node2&#45;&gt;Node7 -->
<g id="edge12_Node000002_Node000007" class="edge">
<title>Node2&#45;&gt;Node7</title>
<g id="a_edge12_Node000002_Node000007"><a xlink:title=" ">
<path fill="none" stroke="#63b8ff" d="M164.92,-111.67C144.98,-98.99 115.5,-75.62 131.08,-56 172.93,-3.33 213.36,-33.94 282.94,-20.43"/>
<polygon fill="#63b8ff" stroke="#63b8ff" points="283.41,-23.91 292.41,-18.31 281.89,-17.07 283.41,-23.91"/>
</a>
</g>
</g>
<!-- Node8 -->
<g id="Node000008" class="node">
<title>Node8</title>
<g id="a_Node000008"><a xlink:title=" ">
<polygon fill="#e0e0e0" stroke="#999999" points="115.71,-20 70.46,-20 70.46,0 115.71,0 115.71,-20"/>
<text xml:space="preserve" text-anchor="middle" x="93.08" y="-6.5" font-family="Helvetica,sans-Serif" font-size="10.00">cstdint</text>
</a>
</g>
</g>
<!-- Node2&#45;&gt;Node8 -->
<g id="edge14_Node000002_Node000008" class="edge">
<title>Node2&#45;&gt;Node8</title>
<g id="a_edge14_Node000002_Node000008"><a xlink:title=" ">
<path fill="none" stroke="#63b8ff" d="M121.18,-113.57C75.99,-106.59 19.4,-94.43 5.08,-76 -13.88,-51.58 26.87,-31.93 59.05,-20.86"/>
<polygon fill="#63b8ff" stroke="#63b8ff" points="60.1,-24.2 68.52,-17.78 57.93,-17.54 60.1,-24.2"/>
</a>
</g>
</g>
<!-- Node9 -->
<g id="Node000009" class="node">
<title>Node9</title>
<g id="a_Node000009"><a xlink:title=" ">
<polygon fill="#e0e0e0" stroke="#999999" points="222.46,-76 139.71,-76 139.71,-56 222.46,-56 222.46,-76"/>
<text xml:space="preserve" text-anchor="middle" x="181.08" y="-62.5" font-family="Helvetica,sans-Serif" font-size="10.00">unordered_map</text>
</a>
</g>
</g>
<!-- Node2&#45;&gt;Node9 -->
<g id="edge11_Node000002_Node000009" class="edge">
<title>Node2&#45;&gt;Node9</title>
<g id="a_edge11_Node000002_Node000009"><a xlink:title=" ">
<path fill="none" stroke="#63b8ff" d="M181.08,-111.59C181.08,-105.01 181.08,-95.96 181.08,-87.73"/>
<polygon fill="#63b8ff" stroke="#63b8ff" points="184.58,-87.81 181.08,-77.81 177.58,-87.81 184.58,-87.81"/>
</a>
</g>
</g>
<!-- Node10 -->
<g id="Node000010" class="node">
<title>Node10</title>
<g id="a_Node000010"><a xlink:title=" ">
<polygon fill="#e0e0e0" stroke="#999999" points="84.08,-76 26.08,-76 26.08,-56 84.08,-56 84.08,-76"/>
<text xml:space="preserve" text-anchor="middle" x="55.08" y="-62.5" font-family="Helvetica,sans-Serif" font-size="10.00">functional</text>
</a>
</g>
</g>
<!-- Node2&#45;&gt;Node10 -->
<g id="edge13_Node000002_Node000010" class="edge">
<title>Node2&#45;&gt;Node10</title>
<g id="a_edge13_Node000002_Node000010"><a xlink:title=" ">
<path fill="none" stroke="#63b8ff" d="M159.14,-111.59C139.38,-103.13 110.09,-90.58 87.62,-80.94"/>
<polygon fill="#63b8ff" stroke="#63b8ff" points="89.16,-77.8 78.59,-77.08 86.41,-84.23 89.16,-77.8"/>
</a>
</g>
</g>
<!-- Node3&#45;&gt;Node4 -->
<g id="edge3_Node000003_Node000004" class="edge">
<title>Node3&#45;&gt;Node4</title>
<g id="a_edge3_Node000003_Node000004"><a xlink:title=" ">
<path fill="none" stroke="#63b8ff" d="M334.29,-55.59C389.51,-44.59 479.38,-26.68 526.69,-17.26"/>
<polygon fill="#63b8ff" stroke="#63b8ff" points="527.14,-20.73 536.27,-15.35 525.77,-13.87 527.14,-20.73"/>
</a>
</g>
</g>
<!-- Node3&#45;&gt;Node5 -->
<g id="edge4_Node000003_Node000005" class="edge">
<title>Node3&#45;&gt;Node5</title>
<g id="a_edge4_Node000003_Node000005"><a xlink:title=" ">
<path fill="none" stroke="#63b8ff" d="M311.82,-55.59C334.38,-47.01 367.99,-34.23 393.45,-24.55"/>
<polygon fill="#63b8ff" stroke="#63b8ff" points="394.64,-27.84 402.74,-21.02 392.15,-21.3 394.64,-27.84"/>
</a>
</g>
</g>
<!-- Node3&#45;&gt;Node6 -->
<g id="edge5_Node000003_Node000006" class="edge">
<title>Node3&#45;&gt;Node6</title>
<g id="a_edge5_Node000003_Node000006"><a xlink:title=" ">
<path fill="none" stroke="#63b8ff" d="M281.51,-55.59C277.33,-48.55 271.48,-38.67 266.34,-30"/>
<polygon fill="#63b8ff" stroke="#63b8ff" points="269.47,-28.42 261.37,-21.6 263.45,-31.99 269.47,-28.42"/>
</a>
</g>
</g>
<!-- Node3&#45;&gt;Node7 -->
<g id="edge6_Node000003_Node000007" class="edge">
<title>Node3&#45;&gt;Node7</title>
<g id="a_edge6_Node000003_Node000007"><a xlink:title=" ">
<path fill="none" stroke="#63b8ff" d="M292.66,-55.59C296.83,-48.55 302.69,-38.67 307.82,-30"/>
<polygon fill="#63b8ff" stroke="#63b8ff" points="310.72,-31.99 312.8,-21.6 304.69,-28.42 310.72,-31.99"/>
</a>
</g>
</g>
<!-- Node3&#45;&gt;Node8 -->
<g id="edge7_Node000003_Node000008" class="edge">
<title>Node3&#45;&gt;Node8</title>
<g id="a_edge7_Node000003_Node000008"><a xlink:title=" ">
<path fill="none" stroke="#63b8ff" d="M253.29,-55.59C217.83,-45.72 162.41,-30.3 126.93,-20.42"/>
<polygon fill="#63b8ff" stroke="#63b8ff" points="128.19,-17.14 117.62,-17.83 126.31,-23.88 128.19,-17.14"/>
</a>
</g>
</g>
<!-- Node11&#45;&gt;Node4 -->
<g id="edge17_Node000011_Node000004" class="edge">
<title>Node11&#45;&gt;Node4</title>
<g id="a_edge17_Node000011_Node000004"><a xlink:title=" ">
<path fill="none" stroke="#63b8ff" d="M451.55,-55.59C472.62,-46.78 504.27,-33.53 527.61,-23.76"/>
<polygon fill="#63b8ff" stroke="#63b8ff" points="528.72,-27.09 536.59,-20 526.02,-20.63 528.72,-27.09"/>
</a>
</g>
</g>
<!-- Node11&#45;&gt;Node5 -->
<g id="edge18_Node000011_Node000005" class="edge">
<title>Node11&#45;&gt;Node5</title>
<g id="a_edge18_Node000011_Node000005"><a xlink:title=" ">
<path fill="none" stroke="#63b8ff" d="M429.08,-55.59C429.08,-49.01 429.08,-39.96 429.08,-31.73"/>
<polygon fill="#63b8ff" stroke="#63b8ff" points="432.58,-31.81 429.08,-21.81 425.58,-31.81 432.58,-31.81"/>
</a>
</g>
</g>
<!-- Node11&#45;&gt;Node6 -->
<g id="edge19_Node000011_Node000006" class="edge">
<title>Node11&#45;&gt;Node6</title>
<g id="a_edge19_Node000011_Node000006"><a xlink:title=" ">
<path fill="none" stroke="#63b8ff" d="M398.78,-55.59C367.82,-45.99 319.9,-31.11 288.02,-21.22"/>
<polygon fill="#63b8ff" stroke="#63b8ff" points="289.09,-17.89 278.51,-18.27 287.02,-24.58 289.09,-17.89"/>
</a>
</g>
</g>
<!-- Node11&#45;&gt;Node7 -->
<g id="edge20_Node000011_Node000007" class="edge">
<title>Node11&#45;&gt;Node7</title>
<g id="a_edge20_Node000011_Node000007"><a xlink:title=" ">
<path fill="none" stroke="#63b8ff" d="M409.92,-55.59C392.99,-47.28 368.04,-35.03 348.56,-25.47"/>
<polygon fill="#63b8ff" stroke="#63b8ff" points="350.27,-22.41 339.75,-21.15 347.19,-28.7 350.27,-22.41"/>
</a>
</g>
</g>
<!-- Node12&#45;&gt;Node4 -->
<g id="edge22_Node000012_Node000004" class="edge">
<title>Node12&#45;&gt;Node4</title>
<g id="a_edge22_Node000012_Node000004"><a xlink:title=" ">
<path fill="none" stroke="#63b8ff" d="M530.83,-55.59C535.14,-48.55 541.17,-38.67 546.47,-30"/>
<polygon fill="#63b8ff" stroke="#63b8ff" points="549.38,-31.95 551.61,-21.59 543.41,-28.3 549.38,-31.95"/>
</a>
</g>
</g>
<!-- Node12&#45;&gt;Node5 -->
<g id="edge23_Node000012_Node000005" class="edge">
<title>Node12&#45;&gt;Node5</title>
<g id="a_edge23_Node000012_Node000005"><a xlink:title=" ">
<path fill="none" stroke="#63b8ff" d="M508.36,-55.59C493.86,-47.44 472.61,-35.48 455.76,-26"/>
<polygon fill="#63b8ff" stroke="#63b8ff" points="457.69,-23.07 447.26,-21.22 454.26,-29.17 457.69,-23.07"/>
</a>
</g>
</g>
<!-- Node13&#45;&gt;Node4 -->
<g id="edge25_Node000013_Node000004" class="edge">
<title>Node13&#45;&gt;Node4</title>
<g id="a_edge25_Node000013_Node000004"><a xlink:title=" ">
<path fill="none" stroke="#63b8ff" d="M643.97,-55.59C628.11,-47.36 604.8,-35.26 586.47,-25.74"/>
<polygon fill="#63b8ff" stroke="#63b8ff" points="588.17,-22.68 577.68,-21.18 584.95,-28.89 588.17,-22.68"/>
</a>
</g>
</g>
<!-- Node13&#45;&gt;Node5 -->
<g id="edge26_Node000013_Node000005" class="edge">
<title>Node13&#45;&gt;Node5</title>
<g id="a_edge26_Node000013_Node000005"><a xlink:title=" ">
<path fill="none" stroke="#63b8ff" d="M621.23,-55.53C579.75,-45.92 515.72,-31.08 473.12,-21.21"/>
<polygon fill="#63b8ff" stroke="#63b8ff" points="473.98,-17.81 463.45,-18.97 472.4,-24.63 473.98,-17.81"/>
</a>
</g>
</g>
<!-- Node14&#45;&gt;Node4 -->
<g id="edge29_Node000014_Node000004" class="edge">
<title>Node14&#45;&gt;Node4</title>
<g id="a_edge29_Node000014_Node000004"><a xlink:title=" ">
<path fill="none" stroke="#63b8ff" d="M661.88,-111.56C691.52,-100.28 731.03,-79.9 713.08,-56 698.27,-36.27 630.48,-22.39 589.62,-15.65"/>
<polygon fill="#63b8ff" stroke="#63b8ff" points="590.3,-12.21 579.87,-14.1 589.2,-19.13 590.3,-12.21"/>
</a>
</g>
</g>
<!-- Node15 -->
<g id="Node000015" class="node">
<title>Node15</title>
<g id="a_Node000015"><a xlink:title=" ">
<polygon fill="#e0e0e0" stroke="#999999" points="813.83,-76 760.33,-76 760.33,-56 813.83,-56 813.83,-76"/>
<text xml:space="preserve" text-anchor="middle" x="787.08" y="-62.5" font-family="Helvetica,sans-Serif" font-size="10.00">iostream</text>
</a>
</g>
</g>
<!-- Node14&#45;&gt;Node15 -->
<g id="edge28_Node000014_Node000015" class="edge">
<title>Node14&#45;&gt;Node15</title>
<g id="a_edge28_Node000014_Node000015"><a xlink:title=" ">
<path fill="none" stroke="#63b8ff" d="M659.91,-111.59C684.71,-102.9 721.81,-89.89 749.55,-80.16"/>
<polygon fill="#63b8ff" stroke="#63b8ff" points="750.34,-83.59 758.62,-76.98 748.03,-76.99 750.34,-83.59"/>
</a>
</g>
</g>
</g>
</svg>
