<?xml version="1.0" encoding="UTF-8" standalone="no"?>
<!DOCTYPE svg PUBLIC "-//W3C//DTD SVG 1.1//EN"
 "http://www.w3.org/Graphics/SVG/1.1/DTD/svg11.dtd">
<!-- Generated by graphviz version 14.0.2 (20251019.1705)
 -->
<!-- Title: AssetManager.cpp Pages: 1 -->
<svg width="1560pt" height="308pt"
 viewBox="0.00 0.00 1560.00 308.00" xmlns="http://www.w3.org/2000/svg" xmlns:xlink="http://www.w3.org/1999/xlink">
<g id="graph0" class="graph" transform="scale(1 1) rotate(0) translate(4 304)">
<title>AssetManager.cpp</title>
<!-- Node1 -->
<g id="Node000001" class="node">
<title>Node1</title>
<g id="a_Node000001"><a xlink:title=" ">
<polygon fill="#999999" stroke="#666666" points="1374.01,-300 1276.26,-300 1276.26,-280 1374.01,-280 1374.01,-300"/>
<text xml:space="preserve" text-anchor="middle" x="1325.14" y="-286.5" font-family="Helvetica,sans-Serif" font-size="10.00">AssetManager.cpp</text>
</a>
</g>
</g>
<!-- Node2 -->
<g id="Node000002" class="node">
<title>Node2</title>
<g id="a_Node000002"><a xlink:href="AssetManager_8h.html" target="_top" xlink:title=" ">
<polygon fill="white" stroke="#666666" points="793.14,-244 651.14,-244 651.14,-224 793.14,-224 793.14,-244"/>
<text xml:space="preserve" text-anchor="middle" x="722.14" y="-230.5" font-family="Helvetica,sans-Serif" font-size="10.00">LGE/assets/AssetManager.h</text>
</a>
</g>
</g>
<!-- Node1&#45;&gt;Node2 -->
<g id="edge1_Node000001_Node000002" class="edge">
<title>Node1&#45;&gt;Node2</title>
<g id="a_edge1_Node000001_Node000002"><a xlink:title=" ">
<path fill="none" stroke="#63b8ff" d="M1275.79,-284.58C1172.31,-275.31 931.68,-253.77 804.43,-242.37"/>
<polygon fill="#63b8ff" stroke="#63b8ff" points="805.01,-238.91 794.73,-241.5 804.38,-245.88 805.01,-238.91"/>
</a>
</g>
</g>
<!-- Node12 -->
<g id="Node000012" class="node">
<title>Node12</title>
<g id="a_Node000012"><a xlink:title=" ">
<polygon fill="#e0e0e0" stroke="#999999" points="376.64,-132 333.64,-132 333.64,-112 376.64,-112 376.64,-132"/>
<text xml:space="preserve" text-anchor="middle" x="355.14" y="-118.5" font-family="Helvetica,sans-Serif" font-size="10.00">mutex</text>
</a>
</g>
</g>
<!-- Node1&#45;&gt;Node12 -->
<g id="edge43_Node000001_Node000012" class="edge">
<title>Node1&#45;&gt;Node12</title>
<g id="a_edge43_Node000001_Node000012"><a xlink:title=" ">
<path fill="none" stroke="#63b8ff" d="M1275.88,-287.36C1140.33,-282.58 763.77,-267.53 642.14,-244 563.62,-228.81 544.37,-220.14 471.14,-188 438.14,-173.52 402.26,-152.53 379.27,-138.35"/>
<polygon fill="#63b8ff" stroke="#63b8ff" points="381.3,-135.49 370.96,-133.17 377.59,-141.43 381.3,-135.49"/>
</a>
</g>
</g>
<!-- Node18 -->
<g id="Node000018" class="node">
<title>Node18</title>
<g id="a_Node000018"><a xlink:href="Texture_8h.html" target="_top" xlink:title=" ">
<polygon fill="white" stroke="#666666" points="1365.01,-76 1243.26,-76 1243.26,-56 1365.01,-56 1365.01,-76"/>
<text xml:space="preserve" text-anchor="middle" x="1304.14" y="-62.5" font-family="Helvetica,sans-Serif" font-size="10.00">LGE/rendering/Texture.h</text>
</a>
</g>
</g>
<!-- Node1&#45;&gt;Node18 -->
<g id="edge35_Node000001_Node000018" class="edge">
<title>Node1&#45;&gt;Node18</title>
<g id="a_edge35_Node000001_Node000018"><a xlink:title=" ">
<path fill="none" stroke="#63b8ff" d="M1324.26,-279.74C1321.14,-246.74 1310.5,-134.31 1306.09,-87.61"/>
<polygon fill="#63b8ff" stroke="#63b8ff" points="1309.59,-87.43 1305.16,-77.8 1302.62,-88.09 1309.59,-87.43"/>
</a>
</g>
</g>
<!-- Node19 -->
<g id="Node000019" class="node">
<title>Node19</title>
<g id="a_Node000019"><a xlink:href="Log_8h.html" target="_top" xlink:title=" ">
<polygon fill="white" stroke="#666666" points="1297.26,-244 1213.01,-244 1213.01,-224 1297.26,-224 1297.26,-244"/>
<text xml:space="preserve" text-anchor="middle" x="1255.14" y="-230.5" font-family="Helvetica,sans-Serif" font-size="10.00">LGE/core/Log.h</text>
</a>
</g>
</g>
<!-- Node1&#45;&gt;Node19 -->
<g id="edge38_Node000001_Node000019" class="edge">
<title>Node1&#45;&gt;Node19</title>
<g id="a_edge38_Node000001_Node000019"><a xlink:title=" ">
<path fill="none" stroke="#63b8ff" d="M1312.94,-279.59C1302.81,-271.77 1288.15,-260.46 1276.13,-251.19"/>
<polygon fill="#63b8ff" stroke="#63b8ff" points="1278.44,-248.56 1268.39,-245.22 1274.17,-254.1 1278.44,-248.56"/>
</a>
</g>
</g>
<!-- Node21 -->
<g id="Node000021" class="node">
<title>Node21</title>
<g id="a_Node000021"><a xlink:title=" ">
<polygon fill="#e0e0e0" stroke="#999999" points="1414.64,-244 1353.64,-244 1353.64,-224 1414.64,-224 1414.64,-244"/>
<text xml:space="preserve" text-anchor="middle" x="1384.14" y="-230.5" font-family="Helvetica,sans-Serif" font-size="10.00">filesystem</text>
</a>
</g>
</g>
<!-- Node1&#45;&gt;Node21 -->
<g id="edge41_Node000001_Node000021" class="edge">
<title>Node1&#45;&gt;Node21</title>
<g id="a_edge41_Node000001_Node000021"><a xlink:title=" ">
<path fill="none" stroke="#63b8ff" d="M1335.41,-279.59C1343.71,-272.01 1355.58,-261.13 1365.54,-252.02"/>
<polygon fill="#63b8ff" stroke="#63b8ff" points="1367.85,-254.65 1372.86,-245.32 1363.12,-249.49 1367.85,-254.65"/>
</a>
</g>
</g>
<!-- Node22 -->
<g id="Node000022" class="node">
<title>Node22</title>
<g id="a_Node000022"><a xlink:title=" ">
<polygon fill="#e0e0e0" stroke="#999999" points="1488.01,-244 1432.26,-244 1432.26,-224 1488.01,-224 1488.01,-244"/>
<text xml:space="preserve" text-anchor="middle" x="1460.14" y="-230.5" font-family="Helvetica,sans-Serif" font-size="10.00">algorithm</text>
</a>
</g>
</g>
<!-- Node1&#45;&gt;Node22 -->
<g id="edge42_Node000001_Node000022" class="edge">
<title>Node1&#45;&gt;Node22</title>
<g id="a_edge42_Node000001_Node000022"><a xlink:title=" ">
<path fill="none" stroke="#63b8ff" d="M1348.65,-279.59C1370.01,-271.05 1401.77,-258.35 1425.94,-248.68"/>
<polygon fill="#63b8ff" stroke="#63b8ff" points="1427.05,-252.01 1435.03,-245.04 1424.45,-245.51 1427.05,-252.01"/>
</a>
</g>
</g>
<!-- Node23 -->
<g id="Node000023" class="node">
<title>Node23</title>
<g id="a_Node000023"><a xlink:title=" ">
<polygon fill="#e0e0e0" stroke="#999999" points="1551.76,-244 1506.51,-244 1506.51,-224 1551.76,-224 1551.76,-244"/>
<text xml:space="preserve" text-anchor="middle" x="1529.14" y="-230.5" font-family="Helvetica,sans-Serif" font-size="10.00">chrono</text>
</a>
</g>
</g>
<!-- Node1&#45;&gt;Node23 -->
<g id="edge44_Node000001_Node000023" class="edge">
<title>Node1&#45;&gt;Node23</title>
<g id="a_edge44_Node000001_Node000023"><a xlink:title=" ">
<path fill="none" stroke="#63b8ff" d="M1362.1,-279.54C1394.65,-271.16 1443.62,-258.44 1495.07,-244.53"/>
<polygon fill="#63b8ff" stroke="#63b8ff" points="1495.88,-247.93 1504.62,-241.94 1494.05,-241.18 1495.88,-247.93"/>
</a>
</g>
</g>
<!-- Node3 -->
<g id="Node000003" class="node">
<title>Node3</title>
<g id="a_Node000003"><a xlink:href="AssetMeta_8h.html" target="_top" xlink:title=" ">
<polygon fill="white" stroke="#666666" points="1066.26,-76 940.01,-76 940.01,-56 1066.26,-56 1066.26,-76"/>
<text xml:space="preserve" text-anchor="middle" x="1003.14" y="-62.5" font-family="Helvetica,sans-Serif" font-size="10.00">LGE/assets/AssetMeta.h</text>
</a>
</g>
</g>
<!-- Node2&#45;&gt;Node3 -->
<g id="edge2_Node000002_Node000003" class="edge">
<title>Node2&#45;&gt;Node3</title>
<g id="a_edge2_Node000002_Node000003"><a xlink:title=" ">
<path fill="none" stroke="#63b8ff" d="M793.53,-226.58C856.43,-216.91 945.42,-192.69 994.14,-132 1004.07,-119.62 1005.86,-101.46 1005.42,-87.48"/>
<polygon fill="#63b8ff" stroke="#63b8ff" points="1008.92,-87.32 1004.68,-77.61 1001.94,-87.84 1008.92,-87.32"/>
</a>
</g>
</g>
<!-- Node4 -->
<g id="Node000004" class="node">
<title>Node4</title>
<g id="a_Node000004"><a xlink:title=" ">
<polygon fill="#e0e0e0" stroke="#999999" points="922.14,-20 882.14,-20 882.14,0 922.14,0 922.14,-20"/>
<text xml:space="preserve" text-anchor="middle" x="902.14" y="-6.5" font-family="Helvetica,sans-Serif" font-size="10.00">string</text>
</a>
</g>
</g>
<!-- Node2&#45;&gt;Node4 -->
<g id="edge30_Node000002_Node000004" class="edge">
<title>Node2&#45;&gt;Node4</title>
<g id="a_edge30_Node000002_Node000004"><a xlink:title=" ">
<path fill="none" stroke="#63b8ff" d="M650.73,-232.47C454.18,-229.7 -74.84,-212.91 9.14,-112 65.55,-44.2 719.05,-17.37 870.8,-12.04"/>
<polygon fill="#63b8ff" stroke="#63b8ff" points="870.62,-15.54 880.49,-11.7 870.37,-8.55 870.62,-15.54"/>
</a>
</g>
</g>
<!-- Node6 -->
<g id="Node000006" class="node">
<title>Node6</title>
<g id="a_Node000006"><a xlink:href="FileSystemWatcher_8h.html" target="_top" xlink:title=" ">
<polygon fill="white" stroke="#666666" points="322.39,-188 157.89,-188 157.89,-168 322.39,-168 322.39,-188"/>
<text xml:space="preserve" text-anchor="middle" x="240.14" y="-174.5" font-family="Helvetica,sans-Serif" font-size="10.00">LGE/assets/FileSystemWatcher.h</text>
</a>
</g>
</g>
<!-- Node2&#45;&gt;Node6 -->
<g id="edge5_Node000002_Node000006" class="edge">
<title>Node2&#45;&gt;Node6</title>
<g id="a_edge5_Node000002_Node000006"><a xlink:title=" ">
<path fill="none" stroke="#63b8ff" d="M650.76,-225C566.73,-215.59 426.92,-199.93 334.14,-189.53"/>
<polygon fill="#63b8ff" stroke="#63b8ff" points="334.61,-186.06 324.29,-188.43 333.83,-193.02 334.61,-186.06"/>
</a>
</g>
</g>
<!-- Node7 -->
<g id="Node000007" class="node">
<title>Node7</title>
<g id="a_Node000007"><a xlink:title=" ">
<polygon fill="#e0e0e0" stroke="#999999" points="76.14,-132 18.14,-132 18.14,-112 76.14,-112 76.14,-132"/>
<text xml:space="preserve" text-anchor="middle" x="47.14" y="-118.5" font-family="Helvetica,sans-Serif" font-size="10.00">functional</text>
</a>
</g>
</g>
<!-- Node2&#45;&gt;Node7 -->
<g id="edge34_Node000002_Node000007" class="edge">
<title>Node2&#45;&gt;Node7</title>
<g id="a_edge34_Node000002_Node000007"><a xlink:title=" ">
<path fill="none" stroke="#63b8ff" d="M650.67,-231.69C518.32,-228.56 240.22,-218.47 149.14,-188 117.62,-177.46 86.09,-155.11 66.61,-139.58"/>
<polygon fill="#63b8ff" stroke="#63b8ff" points="68.95,-136.97 58.99,-133.34 64.51,-142.39 68.95,-136.97"/>
</a>
</g>
</g>
<!-- Node8 -->
<g id="Node000008" class="node">
<title>Node8</title>
<g id="a_Node000008"><a xlink:title=" ">
<polygon fill="#e0e0e0" stroke="#999999" points="678.76,-76 627.51,-76 627.51,-56 678.76,-56 678.76,-76"/>
<text xml:space="preserve" text-anchor="middle" x="653.14" y="-62.5" font-family="Helvetica,sans-Serif" font-size="10.00">memory</text>
</a>
</g>
</g>
<!-- Node2&#45;&gt;Node8 -->
<g id="edge33_Node000002_Node000008" class="edge">
<title>Node2&#45;&gt;Node8</title>
<g id="a_edge33_Node000002_Node000008"><a xlink:title=" ">
<path fill="none" stroke="#63b8ff" d="M731.98,-223.53C752.93,-202.22 797.98,-149.4 772.14,-112 753.9,-85.61 718.05,-74.68 690.44,-70.16"/>
<polygon fill="#63b8ff" stroke="#63b8ff" points="691.08,-66.71 680.69,-68.8 690.11,-73.65 691.08,-66.71"/>
</a>
</g>
</g>
<!-- Node9 -->
<g id="Node000009" class="node">
<title>Node9</title>
<g id="a_Node000009"><a xlink:title=" ">
<polygon fill="#e0e0e0" stroke="#999999" points="439.64,-76 396.64,-76 396.64,-56 439.64,-56 439.64,-76"/>
<text xml:space="preserve" text-anchor="middle" x="418.14" y="-62.5" font-family="Helvetica,sans-Serif" font-size="10.00">vector</text>
</a>
</g>
</g>
<!-- Node2&#45;&gt;Node9 -->
<g id="edge31_Node000002_Node000009" class="edge">
<title>Node2&#45;&gt;Node9</title>
<g id="a_edge31_Node000002_Node000009"><a xlink:title=" ">
<path fill="none" stroke="#63b8ff" d="M650.73,-227.18C607.63,-221.48 552.63,-210.22 508.14,-188 474.32,-171.12 465.98,-162.84 444.14,-132 434.46,-118.33 427.66,-100.54 423.46,-87.03"/>
<polygon fill="#63b8ff" stroke="#63b8ff" points="426.85,-86.17 420.73,-77.52 420.12,-88.1 426.85,-86.17"/>
</a>
</g>
</g>
<!-- Node13 -->
<g id="Node000013" class="node">
<title>Node13</title>
<g id="a_Node000013"><a xlink:href="ImporterRegistry_8h.html" target="_top" xlink:title=" ">
<polygon fill="white" stroke="#666666" points="668.64,-188 517.64,-188 517.64,-168 668.64,-168 668.64,-188"/>
<text xml:space="preserve" text-anchor="middle" x="593.14" y="-174.5" font-family="Helvetica,sans-Serif" font-size="10.00">LGE/assets/ImporterRegistry.h</text>
</a>
</g>
</g>
<!-- Node2&#45;&gt;Node13 -->
<g id="edge13_Node000002_Node000013" class="edge">
<title>Node2&#45;&gt;Node13</title>
<g id="a_edge13_Node000002_Node000013"><a xlink:title=" ">
<path fill="none" stroke="#63b8ff" d="M699.67,-223.59C679.35,-215.09 649.18,-202.46 626.13,-192.81"/>
<polygon fill="#63b8ff" stroke="#63b8ff" points="627.75,-189.7 617.18,-189.06 625.05,-196.15 627.75,-189.7"/>
</a>
</g>
</g>
<!-- Node15 -->
<g id="Node000015" class="node">
<title>Node15</title>
<g id="a_Node000015"><a xlink:title=" ">
<polygon fill="#e0e0e0" stroke="#999999" points="763.51,-132 680.76,-132 680.76,-112 763.51,-112 763.51,-132"/>
<text xml:space="preserve" text-anchor="middle" x="722.14" y="-118.5" font-family="Helvetica,sans-Serif" font-size="10.00">unordered_map</text>
</a>
</g>
</g>
<!-- Node2&#45;&gt;Node15 -->
<g id="edge32_Node000002_Node000015" class="edge">
<title>Node2&#45;&gt;Node15</title>
<g id="a_edge32_Node000002_Node000015"><a xlink:title=" ">
<path fill="none" stroke="#63b8ff" d="M722.14,-223.62C722.14,-206.01 722.14,-167.59 722.14,-143.65"/>
<polygon fill="#63b8ff" stroke="#63b8ff" points="725.64,-143.87 722.14,-133.87 718.64,-143.87 725.64,-143.87"/>
</a>
</g>
</g>
<!-- Node16 -->
<g id="Node000016" class="node">
<title>Node16</title>
<g id="a_Node000016"><a xlink:href="AssetMetadata_8h.html" target="_top" xlink:title=" ">
<polygon fill="white" stroke="#666666" points="1186.64,-132 1041.64,-132 1041.64,-112 1186.64,-112 1186.64,-132"/>
<text xml:space="preserve" text-anchor="middle" x="1114.14" y="-118.5" font-family="Helvetica,sans-Serif" font-size="10.00">LGE/assets/AssetMetadata.h</text>
</a>
</g>
</g>
<!-- Node2&#45;&gt;Node16 -->
<g id="edge23_Node000002_Node000016" class="edge">
<title>Node2&#45;&gt;Node16</title>
<g id="a_edge23_Node000002_Node000016"><a xlink:title=" ">
<path fill="none" stroke="#63b8ff" d="M793.49,-232.29C857.04,-229.41 951.4,-219.49 1027.14,-188 1054.16,-176.76 1080.41,-155.25 1096.88,-140.06"/>
<polygon fill="#63b8ff" stroke="#63b8ff" points="1099.03,-142.84 1103.87,-133.41 1094.21,-137.77 1099.03,-142.84"/>
</a>
</g>
</g>
<!-- Node17 -->
<g id="Node000017" class="node">
<title>Node17</title>
<g id="a_Node000017"><a xlink:href="ThumbnailGenerator_8h.html" target="_top" xlink:title=" ">
<polygon fill="white" stroke="#666666" points="985.51,-132 818.76,-132 818.76,-112 985.51,-112 985.51,-132"/>
<text xml:space="preserve" text-anchor="middle" x="902.14" y="-118.5" font-family="Helvetica,sans-Serif" font-size="10.00">LGE/assets/ThumbnailGenerator.h</text>
</a>
</g>
</g>
<!-- Node2&#45;&gt;Node17 -->
<g id="edge26_Node000002_Node000017" class="edge">
<title>Node2&#45;&gt;Node17</title>
<g id="a_edge26_Node000002_Node000017"><a xlink:title=" ">
<path fill="none" stroke="#63b8ff" d="M740.55,-223.65C757.55,-214.87 783.39,-201.14 805.14,-188 831.29,-172.2 860.27,-152.47 879.68,-138.92"/>
<polygon fill="#63b8ff" stroke="#63b8ff" points="881.49,-141.93 887.66,-133.32 877.47,-136.2 881.49,-141.93"/>
</a>
</g>
</g>
<!-- Node3&#45;&gt;Node4 -->
<g id="edge3_Node000003_Node000004" class="edge">
<title>Node3&#45;&gt;Node4</title>
<g id="a_edge3_Node000003_Node000004"><a xlink:title=" ">
<path fill="none" stroke="#63b8ff" d="M985.54,-55.59C970.21,-47.4 947.72,-35.37 929.95,-25.87"/>
<polygon fill="#63b8ff" stroke="#63b8ff" points="931.67,-22.82 921.2,-21.19 928.37,-28.99 931.67,-22.82"/>
</a>
</g>
</g>
<!-- Node5 -->
<g id="Node000005" class="node">
<title>Node5</title>
<g id="a_Node000005"><a xlink:title=" ">
<polygon fill="#e0e0e0" stroke="#999999" points="1175.76,-20 1130.51,-20 1130.51,0 1175.76,0 1175.76,-20"/>
<text xml:space="preserve" text-anchor="middle" x="1153.14" y="-6.5" font-family="Helvetica,sans-Serif" font-size="10.00">cstdint</text>
</a>
</g>
</g>
<!-- Node3&#45;&gt;Node5 -->
<g id="edge4_Node000003_Node000005" class="edge">
<title>Node3&#45;&gt;Node5</title>
<g id="a_edge4_Node000003_Node000005"><a xlink:title=" ">
<path fill="none" stroke="#63b8ff" d="M1029.27,-55.59C1054.35,-46.56 1092.35,-32.88 1119.64,-23.06"/>
<polygon fill="#63b8ff" stroke="#63b8ff" points="1120.61,-26.43 1128.83,-19.75 1118.24,-19.84 1120.61,-26.43"/>
</a>
</g>
</g>
<!-- Node6&#45;&gt;Node4 -->
<g id="edge6_Node000006_Node000004" class="edge">
<title>Node6&#45;&gt;Node4</title>
<g id="a_edge6_Node000006_Node000004"><a xlink:title=" ">
<path fill="none" stroke="#63b8ff" d="M241.74,-167.87C244.6,-154.14 251.75,-128.06 267.14,-112 307.85,-69.5 330.29,-71.24 387.14,-56 479.21,-31.32 773.05,-16.61 870.44,-12.32"/>
<polygon fill="#63b8ff" stroke="#63b8ff" points="870.48,-15.82 880.32,-11.89 870.18,-8.83 870.48,-15.82"/>
</a>
</g>
</g>
<!-- Node6&#45;&gt;Node7 -->
<g id="edge7_Node000006_Node000007" class="edge">
<title>Node6&#45;&gt;Node7</title>
<g id="a_edge7_Node000006_Node000007"><a xlink:title=" ">
<path fill="none" stroke="#63b8ff" d="M206.52,-167.59C173.39,-158.32 122.73,-144.15 87.45,-134.28"/>
<polygon fill="#63b8ff" stroke="#63b8ff" points="88.61,-130.97 78.04,-131.65 86.73,-137.71 88.61,-130.97"/>
</a>
</g>
</g>
<!-- Node6&#45;&gt;Node8 -->
<g id="edge8_Node000006_Node000008" class="edge">
<title>Node6&#45;&gt;Node8</title>
<g id="a_edge8_Node000006_Node000008"><a xlink:title=" ">
<path fill="none" stroke="#63b8ff" d="M250.79,-167.62C269.54,-151.3 307.98,-118.78 324.14,-112 376.24,-90.14 541.43,-75.37 615.99,-69.65"/>
<polygon fill="#63b8ff" stroke="#63b8ff" points="615.93,-73.17 625.64,-68.93 615.4,-66.19 615.93,-73.17"/>
</a>
</g>
</g>
<!-- Node6&#45;&gt;Node9 -->
<g id="edge9_Node000006_Node000009" class="edge">
<title>Node6&#45;&gt;Node9</title>
<g id="a_edge9_Node000006_Node000009"><a xlink:title=" ">
<path fill="none" stroke="#63b8ff" d="M245.14,-167.66C253.1,-153.66 269.94,-127.23 291.14,-112 319.43,-91.67 357.8,-79.76 384.94,-73.36"/>
<polygon fill="#63b8ff" stroke="#63b8ff" points="385.69,-76.78 394.7,-71.2 384.18,-69.94 385.69,-76.78"/>
</a>
</g>
</g>
<!-- Node10 -->
<g id="Node000010" class="node">
<title>Node10</title>
<g id="a_Node000010"><a xlink:title=" ">
<polygon fill="#e0e0e0" stroke="#999999" points="137.64,-132 94.64,-132 94.64,-112 137.64,-112 137.64,-132"/>
<text xml:space="preserve" text-anchor="middle" x="116.14" y="-118.5" font-family="Helvetica,sans-Serif" font-size="10.00">thread</text>
</a>
</g>
</g>
<!-- Node6&#45;&gt;Node10 -->
<g id="edge10_Node000006_Node000010" class="edge">
<title>Node6&#45;&gt;Node10</title>
<g id="a_edge10_Node000006_Node000010"><a xlink:title=" ">
<path fill="none" stroke="#63b8ff" d="M218.54,-167.59C199.19,-159.17 170.54,-146.69 148.46,-137.07"/>
<polygon fill="#63b8ff" stroke="#63b8ff" points="149.86,-133.87 139.29,-133.08 147.06,-140.29 149.86,-133.87"/>
</a>
</g>
</g>
<!-- Node11 -->
<g id="Node000011" class="node">
<title>Node11</title>
<g id="a_Node000011"><a xlink:title=" ">
<polygon fill="#e0e0e0" stroke="#999999" points="200.76,-132 155.51,-132 155.51,-112 200.76,-112 200.76,-132"/>
<text xml:space="preserve" text-anchor="middle" x="178.14" y="-118.5" font-family="Helvetica,sans-Serif" font-size="10.00">atomic</text>
</a>
</g>
</g>
<!-- Node6&#45;&gt;Node11 -->
<g id="edge11_Node000006_Node000011" class="edge">
<title>Node6&#45;&gt;Node11</title>
<g id="a_edge11_Node000006_Node000011"><a xlink:title=" ">
<path fill="none" stroke="#63b8ff" d="M229.34,-167.59C220.54,-159.93 207.89,-148.91 197.36,-139.75"/>
<polygon fill="#63b8ff" stroke="#63b8ff" points="199.79,-137.22 189.95,-133.29 195.2,-142.5 199.79,-137.22"/>
</a>
</g>
</g>
<!-- Node6&#45;&gt;Node12 -->
<g id="edge12_Node000006_Node000012" class="edge">
<title>Node6&#45;&gt;Node12</title>
<g id="a_edge12_Node000006_Node000012"><a xlink:title=" ">
<path fill="none" stroke="#63b8ff" d="M260.17,-167.59C277.95,-159.24 304.2,-146.92 324.6,-137.34"/>
<polygon fill="#63b8ff" stroke="#63b8ff" points="326.02,-140.54 333.58,-133.12 323.04,-134.21 326.02,-140.54"/>
</a>
</g>
</g>
<!-- Node13&#45;&gt;Node4 -->
<g id="edge19_Node000013_Node000004" class="edge">
<title>Node13&#45;&gt;Node4</title>
<g id="a_edge19_Node000013_Node000004"><a xlink:title=" ">
<path fill="none" stroke="#63b8ff" d="M555.68,-167.55C523.64,-157.42 484.94,-139.05 500.14,-112 523.59,-70.27 547.1,-72.21 592.14,-56 689.39,-21 813.1,-13.17 870.38,-11.45"/>
<polygon fill="#63b8ff" stroke="#63b8ff" points="870.46,-14.95 880.37,-11.2 870.29,-7.95 870.46,-14.95"/>
</a>
</g>
</g>
<!-- Node13&#45;&gt;Node8 -->
<g id="edge21_Node000013_Node000008" class="edge">
<title>Node13&#45;&gt;Node8</title>
<g id="a_edge21_Node000013_Node000008"><a xlink:title=" ">
<path fill="none" stroke="#63b8ff" d="M603.72,-167.61C612.7,-159.11 625.35,-145.85 633.14,-132 640.95,-118.12 646.08,-100.82 649.19,-87.56"/>
<polygon fill="#63b8ff" stroke="#63b8ff" points="652.61,-88.31 651.26,-77.81 645.76,-86.86 652.61,-88.31"/>
</a>
</g>
</g>
<!-- Node13&#45;&gt;Node9 -->
<g id="edge20_Node000013_Node000009" class="edge">
<title>Node13&#45;&gt;Node9</title>
<g id="a_edge20_Node000013_Node000009"><a xlink:title=" ">
<path fill="none" stroke="#63b8ff" d="M547.5,-167.55C522.1,-160.68 490.91,-149.47 467.14,-132 450.62,-119.86 437.09,-100.61 428.47,-86.21"/>
<polygon fill="#63b8ff" stroke="#63b8ff" points="431.59,-84.62 423.61,-77.65 425.5,-88.07 431.59,-84.62"/>
</a>
</g>
</g>
<!-- Node14 -->
<g id="Node000014" class="node">
<title>Node14</title>
<g id="a_Node000014"><a xlink:href="Importer_8h.html" target="_top" xlink:title=" ">
<polygon fill="white" stroke="#666666" points="624.64,-132 509.64,-132 509.64,-112 624.64,-112 624.64,-132"/>
<text xml:space="preserve" text-anchor="middle" x="567.14" y="-118.5" font-family="Helvetica,sans-Serif" font-size="10.00">LGE/assets/Importer.h</text>
</a>
</g>
</g>
<!-- Node13&#45;&gt;Node14 -->
<g id="edge14_Node000013_Node000014" class="edge">
<title>Node13&#45;&gt;Node14</title>
<g id="a_edge14_Node000013_Node000014"><a xlink:title=" ">
<path fill="none" stroke="#63b8ff" d="M588.61,-167.59C585.29,-160.7 580.67,-151.1 576.56,-142.57"/>
<polygon fill="#63b8ff" stroke="#63b8ff" points="579.76,-141.15 572.27,-133.66 573.46,-144.19 579.76,-141.15"/>
</a>
</g>
</g>
<!-- Node13&#45;&gt;Node15 -->
<g id="edge22_Node000013_Node000015" class="edge">
<title>Node13&#45;&gt;Node15</title>
<g id="a_edge22_Node000013_Node000015"><a xlink:title=" ">
<path fill="none" stroke="#63b8ff" d="M615.61,-167.59C635.92,-159.09 666.09,-146.46 689.14,-136.81"/>
<polygon fill="#63b8ff" stroke="#63b8ff" points="690.22,-140.15 698.1,-133.06 687.52,-133.7 690.22,-140.15"/>
</a>
</g>
</g>
<!-- Node14&#45;&gt;Node3 -->
<g id="edge15_Node000014_Node000003" class="edge">
<title>Node14&#45;&gt;Node3</title>
<g id="a_edge15_Node000014_Node000003"><a xlink:title=" ">
<path fill="none" stroke="#63b8ff" d="M625.03,-113.83C703.18,-104.15 842.5,-86.9 928.45,-76.25"/>
<polygon fill="#63b8ff" stroke="#63b8ff" points="928.69,-79.75 938.19,-75.04 927.83,-72.8 928.69,-79.75"/>
</a>
</g>
</g>
<!-- Node14&#45;&gt;Node4 -->
<g id="edge16_Node000014_Node000004" class="edge">
<title>Node14&#45;&gt;Node4</title>
<g id="a_edge16_Node000014_Node000004"><a xlink:title=" ">
<path fill="none" stroke="#63b8ff" d="M571.57,-111.64C578.99,-97.1 595.38,-69.37 618.14,-56 660.58,-31.06 806.19,-17.84 870.81,-13.08"/>
<polygon fill="#63b8ff" stroke="#63b8ff" points="870.66,-16.6 880.38,-12.4 870.16,-9.62 870.66,-16.6"/>
</a>
</g>
</g>
<!-- Node14&#45;&gt;Node8 -->
<g id="edge18_Node000014_Node000008" class="edge">
<title>Node14&#45;&gt;Node8</title>
<g id="a_edge18_Node000014_Node000008"><a xlink:title=" ">
<path fill="none" stroke="#63b8ff" d="M582.12,-111.59C594.86,-103.59 613.43,-91.93 628.38,-82.54"/>
<polygon fill="#63b8ff" stroke="#63b8ff" points="630.15,-85.57 636.76,-77.28 626.43,-79.64 630.15,-85.57"/>
</a>
</g>
</g>
<!-- Node14&#45;&gt;Node9 -->
<g id="edge17_Node000014_Node000009" class="edge">
<title>Node14&#45;&gt;Node9</title>
<g id="a_edge17_Node000014_Node000009"><a xlink:title=" ">
<path fill="none" stroke="#63b8ff" d="M541.18,-111.59C515.97,-102.46 477.63,-88.56 450.46,-78.71"/>
<polygon fill="#63b8ff" stroke="#63b8ff" points="451.94,-75.53 441.35,-75.41 449.55,-82.11 451.94,-75.53"/>
</a>
</g>
</g>
<!-- Node16&#45;&gt;Node3 -->
<g id="edge24_Node000016_Node000003" class="edge">
<title>Node16&#45;&gt;Node3</title>
<g id="a_edge24_Node000016_Node000003"><a xlink:title=" ">
<path fill="none" stroke="#63b8ff" d="M1094.8,-111.59C1077.72,-103.28 1052.53,-91.03 1032.88,-81.47"/>
<polygon fill="#63b8ff" stroke="#63b8ff" points="1034.51,-78.37 1023.98,-77.14 1031.45,-84.66 1034.51,-78.37"/>
</a>
</g>
</g>
<!-- Node16&#45;&gt;Node4 -->
<g id="edge25_Node000016_Node000004" class="edge">
<title>Node16&#45;&gt;Node4</title>
<g id="a_edge25_Node000016_Node000004"><a xlink:title=" ">
<path fill="none" stroke="#63b8ff" d="M1111.22,-111.91C1106.19,-97.74 1094.52,-70.51 1075.14,-56 1032.99,-24.46 970.73,-14.96 933.53,-12.14"/>
<polygon fill="#63b8ff" stroke="#63b8ff" points="934.09,-8.67 923.89,-11.53 933.66,-15.65 934.09,-8.67"/>
</a>
</g>
</g>
<!-- Node17&#45;&gt;Node3 -->
<g id="edge27_Node000017_Node000003" class="edge">
<title>Node17&#45;&gt;Node3</title>
<g id="a_edge27_Node000017_Node000003"><a xlink:title=" ">
<path fill="none" stroke="#63b8ff" d="M919.73,-111.59C935.06,-103.4 957.56,-91.37 975.32,-81.87"/>
<polygon fill="#63b8ff" stroke="#63b8ff" points="976.9,-84.99 984.07,-77.19 973.6,-78.82 976.9,-84.99"/>
</a>
</g>
</g>
<!-- Node17&#45;&gt;Node4 -->
<g id="edge28_Node000017_Node000004" class="edge">
<title>Node17&#45;&gt;Node4</title>
<g id="a_edge28_Node000017_Node000004"><a xlink:title=" ">
<path fill="none" stroke="#63b8ff" d="M902.14,-111.62C902.14,-94.01 902.14,-55.59 902.14,-31.65"/>
<polygon fill="#63b8ff" stroke="#63b8ff" points="905.64,-31.87 902.14,-21.87 898.64,-31.87 905.64,-31.87"/>
</a>
</g>
</g>
<!-- Node17&#45;&gt;Node8 -->
<g id="edge29_Node000017_Node000008" class="edge">
<title>Node17&#45;&gt;Node8</title>
<g id="a_edge29_Node000017_Node000008"><a xlink:title=" ">
<path fill="none" stroke="#63b8ff" d="M858.48,-111.53C810.75,-101.18 735.09,-84.77 690.16,-75.03"/>
<polygon fill="#63b8ff" stroke="#63b8ff" points="691.16,-71.66 680.64,-72.96 689.67,-78.5 691.16,-71.66"/>
</a>
</g>
</g>
<!-- Node18&#45;&gt;Node4 -->
<g id="edge37_Node000018_Node000004" class="edge">
<title>Node18&#45;&gt;Node4</title>
<g id="a_edge37_Node000018_Node000004"><a xlink:title=" ">
<path fill="none" stroke="#63b8ff" d="M1243.08,-56.8C1156.24,-45.13 1000.2,-24.17 933.62,-15.23"/>
<polygon fill="#63b8ff" stroke="#63b8ff" points="934.15,-11.77 923.77,-13.91 933.22,-18.71 934.15,-11.77"/>
</a>
</g>
</g>
<!-- Node18&#45;&gt;Node5 -->
<g id="edge36_Node000018_Node000005" class="edge">
<title>Node18&#45;&gt;Node5</title>
<g id="a_edge36_Node000018_Node000005"><a xlink:title=" ">
<path fill="none" stroke="#63b8ff" d="M1277.84,-55.59C1252.59,-46.56 1214.33,-32.88 1186.85,-23.06"/>
<polygon fill="#63b8ff" stroke="#63b8ff" points="1188.19,-19.82 1177.6,-19.75 1185.84,-26.41 1188.19,-19.82"/>
</a>
</g>
</g>
<!-- Node19&#45;&gt;Node4 -->
<g id="edge40_Node000019_Node000004" class="edge">
<title>Node19&#45;&gt;Node4</title>
<g id="a_edge40_Node000019_Node000004"><a xlink:title=" ">
<path fill="none" stroke="#63b8ff" d="M1250.7,-223.52C1237.7,-195.78 1200.35,-116.5 1196.14,-112 1124.86,-35.9 993.73,-17.14 933.68,-12.51"/>
<polygon fill="#63b8ff" stroke="#63b8ff" points="934.04,-9.03 923.83,-11.85 933.57,-16.01 934.04,-9.03"/>
</a>
</g>
</g>
<!-- Node20 -->
<g id="Node000020" class="node">
<title>Node20</title>
<g id="a_Node000020"><a xlink:title=" ">
<polygon fill="#e0e0e0" stroke="#999999" points="1296.89,-188 1243.39,-188 1243.39,-168 1296.89,-168 1296.89,-188"/>
<text xml:space="preserve" text-anchor="middle" x="1270.14" y="-174.5" font-family="Helvetica,sans-Serif" font-size="10.00">iostream</text>
</a>
</g>
</g>
<!-- Node19&#45;&gt;Node20 -->
<g id="edge39_Node000019_Node000020" class="edge">
<title>Node19&#45;&gt;Node20</title>
<g id="a_edge39_Node000019_Node000020"><a xlink:title=" ">
<path fill="none" stroke="#63b8ff" d="M1257.75,-223.59C1259.62,-216.86 1262.21,-207.53 1264.54,-199.15"/>
<polygon fill="#63b8ff" stroke="#63b8ff" points="1267.85,-200.33 1267.15,-189.76 1261.1,-198.46 1267.85,-200.33"/>
</a>
</g>
</g>
</g>
</svg>
