<?xml version="1.0" encoding="UTF-8" standalone="no"?>
<!DOCTYPE svg PUBLIC "-//W3C//DTD SVG 1.1//EN"
 "http://www.w3.org/Graphics/SVG/1.1/DTD/svg11.dtd">
<!-- Generated by graphviz version 14.0.2 (20251019.1705)
 -->
<!-- Title: Backup.h Pages: 1 -->
<svg width="671pt" height="196pt"
 viewBox="0.00 0.00 671.00 196.00" xmlns="http://www.w3.org/2000/svg" xmlns:xlink="http://www.w3.org/1999/xlink">
<g id="graph0" class="graph" transform="scale(1 1) rotate(0) translate(4 192)">
<title>Backup.h</title>
<!-- Node1 -->
<g id="Node000001" class="node">
<title>Node1</title>
<g id="a_Node000001"><a xlink:title=" ">
<polygon fill="#999999" stroke="#666666" points="420.08,-188 362.83,-188 362.83,-168 420.08,-168 420.08,-188"/>
<text xml:space="preserve" text-anchor="middle" x="391.46" y="-174.5" font-family="Helvetica,sans-Serif" font-size="10.00">Backup.h</text>
</a>
</g>
</g>
<!-- Node2 -->
<g id="Node000002" class="node">
<title>Node2</title>
<g id="a_Node000002"><a xlink:href="AssetRegistry_8h.html" target="_top" xlink:title=" ">
<polygon fill="white" stroke="#666666" points="360.21,-132 240.71,-132 240.71,-112 360.21,-112 360.21,-132"/>
<text xml:space="preserve" text-anchor="middle" x="300.46" y="-118.5" font-family="Helvetica,sans-Serif" font-size="10.00">LGE/fs/AssetRegistry.h</text>
</a>
</g>
</g>
<!-- Node1&#45;&gt;Node2 -->
<g id="edge1_Node000001_Node000002" class="edge">
<title>Node1&#45;&gt;Node2</title>
<g id="a_edge1_Node000001_Node000002"><a xlink:title=" ">
<path fill="none" stroke="#63b8ff" d="M375.61,-167.59C361.99,-159.51 342.1,-147.71 326.2,-138.27"/>
<polygon fill="#63b8ff" stroke="#63b8ff" points="328.12,-135.35 317.74,-133.25 324.55,-141.37 328.12,-135.35"/>
</a>
</g>
</g>
<!-- Node4 -->
<g id="Node000004" class="node">
<title>Node4</title>
<g id="a_Node000004"><a xlink:title=" ">
<polygon fill="#e0e0e0" stroke="#999999" points="207.46,-20 167.46,-20 167.46,0 207.46,0 207.46,-20"/>
<text xml:space="preserve" text-anchor="middle" x="187.46" y="-6.5" font-family="Helvetica,sans-Serif" font-size="10.00">string</text>
</a>
</g>
</g>
<!-- Node1&#45;&gt;Node4 -->
<g id="edge15_Node000001_Node000004" class="edge">
<title>Node1&#45;&gt;Node4</title>
<g id="a_edge15_Node000001_Node000004"><a xlink:title=" ">
<path fill="none" stroke="#63b8ff" d="M362.48,-176.97C309.78,-175.93 195.65,-169.15 108.46,-132 70.51,-115.83 52.82,-112.93 34.46,-76 -0.17,-6.36 87.09,-35.16 156.27,-20.15"/>
<polygon fill="#63b8ff" stroke="#63b8ff" points="156.91,-23.6 165.73,-17.72 155.17,-16.82 156.91,-23.6"/>
</a>
</g>
</g>
<!-- Node5 -->
<g id="Node000005" class="node">
<title>Node5</title>
<g id="a_Node000005"><a xlink:title=" ">
<polygon fill="#e0e0e0" stroke="#999999" points="149.21,-20 83.71,-20 83.71,0 149.21,0 149.21,-20"/>
<text xml:space="preserve" text-anchor="middle" x="116.46" y="-6.5" font-family="Helvetica,sans-Serif" font-size="10.00">string_view</text>
</a>
</g>
</g>
<!-- Node1&#45;&gt;Node5 -->
<g id="edge16_Node000001_Node000005" class="edge">
<title>Node1&#45;&gt;Node5</title>
<g id="a_edge16_Node000001_Node000005"><a xlink:title=" ">
<path fill="none" stroke="#63b8ff" d="M362.35,-176.03C291.37,-173.2 111.58,-163.08 61.46,-132 29.36,-112.1 3.4,-87.99 23.46,-56 34.32,-38.68 53.95,-27.86 72.38,-21.19"/>
<polygon fill="#63b8ff" stroke="#63b8ff" points="73.45,-24.52 81.88,-18.1 71.29,-17.86 73.45,-24.52"/>
</a>
</g>
</g>
<!-- Node6 -->
<g id="Node000006" class="node">
<title>Node6</title>
<g id="a_Node000006"><a xlink:title=" ">
<polygon fill="#e0e0e0" stroke="#999999" points="268.96,-20 225.96,-20 225.96,0 268.96,0 268.96,-20"/>
<text xml:space="preserve" text-anchor="middle" x="247.46" y="-6.5" font-family="Helvetica,sans-Serif" font-size="10.00">vector</text>
</a>
</g>
</g>
<!-- Node1&#45;&gt;Node6 -->
<g id="edge17_Node000001_Node000006" class="edge">
<title>Node1&#45;&gt;Node6</title>
<g id="a_edge17_Node000001_Node000006"><a xlink:title=" ">
<path fill="none" stroke="#63b8ff" d="M362.44,-172.8C287.67,-161.31 91.68,-126.81 54.46,-76 -7.28,8.29 -75.82,-92.73 214.56,-20.33"/>
<polygon fill="#63b8ff" stroke="#63b8ff" points="215.19,-23.78 224.02,-17.94 213.47,-17 215.19,-23.78"/>
</a>
</g>
</g>
<!-- Node7 -->
<g id="Node000007" class="node">
<title>Node7</title>
<g id="a_Node000007"><a xlink:title=" ">
<polygon fill="#e0e0e0" stroke="#999999" points="386.33,-20 336.58,-20 336.58,0 386.33,0 386.33,-20"/>
<text xml:space="preserve" text-anchor="middle" x="361.46" y="-6.5" font-family="Helvetica,sans-Serif" font-size="10.00">optional</text>
</a>
</g>
</g>
<!-- Node1&#45;&gt;Node7 -->
<g id="edge19_Node000001_Node000007" class="edge">
<title>Node1&#45;&gt;Node7</title>
<g id="a_edge19_Node000001_Node000007"><a xlink:title=" ">
<path fill="none" stroke="#63b8ff" d="M419.78,-167.58C471.03,-149.04 570.48,-105.3 532.46,-56 496.12,-8.87 460.46,-33.02 397.85,-20.29"/>
<polygon fill="#63b8ff" stroke="#63b8ff" points="398.72,-16.9 388.18,-18.03 397.12,-23.72 398.72,-16.9"/>
</a>
</g>
</g>
<!-- Node8 -->
<g id="Node000008" class="node">
<title>Node8</title>
<g id="a_Node000008"><a xlink:title=" ">
<polygon fill="#e0e0e0" stroke="#999999" points="450.08,-20 404.83,-20 404.83,0 450.08,0 450.08,-20"/>
<text xml:space="preserve" text-anchor="middle" x="427.46" y="-6.5" font-family="Helvetica,sans-Serif" font-size="10.00">cstdint</text>
</a>
</g>
</g>
<!-- Node1&#45;&gt;Node8 -->
<g id="edge20_Node000001_Node000008" class="edge">
<title>Node1&#45;&gt;Node8</title>
<g id="a_edge20_Node000001_Node000008"><a xlink:title=" ">
<path fill="none" stroke="#63b8ff" d="M420.47,-173.88C449.89,-169.32 495.15,-158.29 524.46,-132 544.89,-113.68 544.54,-102.8 550.46,-76 552.38,-67.32 555.55,-63.29 550.46,-56 530.54,-27.5 490.52,-16.99 461.53,-13.15"/>
<polygon fill="#63b8ff" stroke="#63b8ff" points="462.08,-9.69 451.76,-12.08 461.32,-16.65 462.08,-9.69"/>
</a>
</g>
</g>
<!-- Node9 -->
<g id="Node000009" class="node">
<title>Node9</title>
<g id="a_Node000009"><a xlink:title=" ">
<polygon fill="#e0e0e0" stroke="#999999" points="523.83,-76 441.08,-76 441.08,-56 523.83,-56 523.83,-76"/>
<text xml:space="preserve" text-anchor="middle" x="482.46" y="-62.5" font-family="Helvetica,sans-Serif" font-size="10.00">unordered_map</text>
</a>
</g>
</g>
<!-- Node1&#45;&gt;Node9 -->
<g id="edge18_Node000001_Node000009" class="edge">
<title>Node1&#45;&gt;Node9</title>
<g id="a_edge18_Node000001_Node000009"><a xlink:title=" ">
<path fill="none" stroke="#63b8ff" d="M399.22,-167.62C414.33,-149.36 447.93,-108.73 467.51,-85.07"/>
<polygon fill="#63b8ff" stroke="#63b8ff" points="470.08,-87.46 473.76,-77.52 464.68,-83 470.08,-87.46"/>
</a>
</g>
</g>
<!-- Node11 -->
<g id="Node000011" class="node">
<title>Node11</title>
<g id="a_Node000011"><a xlink:title=" ">
<polygon fill="#e0e0e0" stroke="#999999" points="663.08,-132 617.83,-132 617.83,-112 663.08,-112 663.08,-132"/>
<text xml:space="preserve" text-anchor="middle" x="640.46" y="-118.5" font-family="Helvetica,sans-Serif" font-size="10.00">chrono</text>
</a>
</g>
</g>
<!-- Node1&#45;&gt;Node11 -->
<g id="edge21_Node000001_Node000011" class="edge">
<title>Node1&#45;&gt;Node11</title>
<g id="a_edge21_Node000001_Node000011"><a xlink:title=" ">
<path fill="none" stroke="#63b8ff" d="M420.32,-171.15C461.17,-162.82 538.16,-146.87 603.46,-132 604.45,-131.78 605.45,-131.55 606.46,-131.31"/>
<polygon fill="#63b8ff" stroke="#63b8ff" points="606.99,-134.78 615.92,-129.07 605.38,-127.97 606.99,-134.78"/>
</a>
</g>
</g>
<!-- Node3 -->
<g id="Node000003" class="node">
<title>Node3</title>
<g id="a_Node000003"><a xlink:href="MetaDB_8h.html" target="_top" xlink:title=" ">
<polygon fill="white" stroke="#666666" points="347.46,-76 253.46,-76 253.46,-56 347.46,-56 347.46,-76"/>
<text xml:space="preserve" text-anchor="middle" x="300.46" y="-62.5" font-family="Helvetica,sans-Serif" font-size="10.00">LGE/fs/MetaDB.h</text>
</a>
</g>
</g>
<!-- Node2&#45;&gt;Node3 -->
<g id="edge2_Node000002_Node000003" class="edge">
<title>Node2&#45;&gt;Node3</title>
<g id="a_edge2_Node000002_Node000003"><a xlink:title=" ">
<path fill="none" stroke="#63b8ff" d="M300.46,-111.59C300.46,-105.01 300.46,-95.96 300.46,-87.73"/>
<polygon fill="#63b8ff" stroke="#63b8ff" points="303.96,-87.81 300.46,-77.81 296.96,-87.81 303.96,-87.81"/>
</a>
</g>
</g>
<!-- Node2&#45;&gt;Node4 -->
<g id="edge8_Node000002_Node000004" class="edge">
<title>Node2&#45;&gt;Node4</title>
<g id="a_edge8_Node000002_Node000004"><a xlink:title=" ">
<path fill="none" stroke="#63b8ff" d="M283.86,-111.62C270.01,-103.32 250.24,-90.33 235.46,-76 221.02,-61.99 207.69,-43.27 198.76,-29.52"/>
<polygon fill="#63b8ff" stroke="#63b8ff" points="201.94,-28.01 193.65,-21.42 196.02,-31.74 201.94,-28.01"/>
</a>
</g>
</g>
<!-- Node2&#45;&gt;Node5 -->
<g id="edge9_Node000002_Node000005" class="edge">
<title>Node2&#45;&gt;Node5</title>
<g id="a_edge9_Node000002_Node000005"><a xlink:title=" ">
<path fill="none" stroke="#63b8ff" d="M280.77,-111.61C262.91,-102.9 236,-89.33 213.46,-76 187.01,-60.36 157.87,-40.46 138.51,-26.82"/>
<polygon fill="#63b8ff" stroke="#63b8ff" points="140.75,-24.12 130.57,-21.19 136.7,-29.83 140.75,-24.12"/>
</a>
</g>
</g>
<!-- Node2&#45;&gt;Node6 -->
<g id="edge10_Node000002_Node000006" class="edge">
<title>Node2&#45;&gt;Node6</title>
<g id="a_edge10_Node000002_Node000006"><a xlink:title=" ">
<path fill="none" stroke="#63b8ff" d="M281.31,-111.52C268.28,-103.9 252.06,-91.86 244.46,-76 237.8,-62.12 239.09,-44.59 241.74,-31.24"/>
<polygon fill="#63b8ff" stroke="#63b8ff" points="245.06,-32.39 244.02,-21.85 238.26,-30.74 245.06,-32.39"/>
</a>
</g>
</g>
<!-- Node2&#45;&gt;Node7 -->
<g id="edge12_Node000002_Node000007" class="edge">
<title>Node2&#45;&gt;Node7</title>
<g id="a_edge12_Node000002_Node000007"><a xlink:title=" ">
<path fill="none" stroke="#63b8ff" d="M318.7,-111.66C331.64,-103.97 348.14,-91.78 356.46,-76 363.58,-62.5 364.59,-45.18 363.94,-31.81"/>
<polygon fill="#63b8ff" stroke="#63b8ff" points="367.44,-31.63 363.1,-21.97 360.47,-32.23 367.44,-31.63"/>
</a>
</g>
</g>
<!-- Node2&#45;&gt;Node8 -->
<g id="edge14_Node000002_Node000008" class="edge">
<title>Node2&#45;&gt;Node8</title>
<g id="a_edge14_Node000002_Node000008"><a xlink:title=" ">
<path fill="none" stroke="#63b8ff" d="M319.28,-111.61C334.73,-103.4 356.71,-90.54 373.46,-76 389.5,-62.07 404.68,-43.09 414.83,-29.24"/>
<polygon fill="#63b8ff" stroke="#63b8ff" points="417.44,-31.61 420.4,-21.44 411.74,-27.55 417.44,-31.61"/>
</a>
</g>
</g>
<!-- Node2&#45;&gt;Node9 -->
<g id="edge11_Node000002_Node000009" class="edge">
<title>Node2&#45;&gt;Node9</title>
<g id="a_edge11_Node000002_Node000009"><a xlink:title=" ">
<path fill="none" stroke="#63b8ff" d="M332.16,-111.59C361.99,-102.74 406.88,-89.43 439.83,-79.65"/>
<polygon fill="#63b8ff" stroke="#63b8ff" points="440.47,-83.11 449.06,-76.91 438.48,-76.4 440.47,-83.11"/>
</a>
</g>
</g>
<!-- Node10 -->
<g id="Node000010" class="node">
<title>Node10</title>
<g id="a_Node000010"><a xlink:title=" ">
<polygon fill="#e0e0e0" stroke="#999999" points="121.46,-76 63.46,-76 63.46,-56 121.46,-56 121.46,-76"/>
<text xml:space="preserve" text-anchor="middle" x="92.46" y="-62.5" font-family="Helvetica,sans-Serif" font-size="10.00">functional</text>
</a>
</g>
</g>
<!-- Node2&#45;&gt;Node10 -->
<g id="edge13_Node000002_Node000010" class="edge">
<title>Node2&#45;&gt;Node10</title>
<g id="a_edge13_Node000002_Node000010"><a xlink:title=" ">
<path fill="none" stroke="#63b8ff" d="M264.23,-111.59C227.47,-102.05 170.7,-87.31 132.6,-77.42"/>
<polygon fill="#63b8ff" stroke="#63b8ff" points="133.92,-74.15 123.36,-75.02 132.16,-80.92 133.92,-74.15"/>
</a>
</g>
</g>
<!-- Node3&#45;&gt;Node4 -->
<g id="edge3_Node000003_Node000004" class="edge">
<title>Node3&#45;&gt;Node4</title>
<g id="a_edge3_Node000003_Node000004"><a xlink:title=" ">
<path fill="none" stroke="#63b8ff" d="M280.78,-55.59C263.3,-47.24 237.51,-34.92 217.46,-25.34"/>
<polygon fill="#63b8ff" stroke="#63b8ff" points="219.19,-22.29 208.66,-21.13 216.17,-28.6 219.19,-22.29"/>
</a>
</g>
</g>
<!-- Node3&#45;&gt;Node5 -->
<g id="edge4_Node000003_Node000005" class="edge">
<title>Node3&#45;&gt;Node5</title>
<g id="a_edge4_Node000003_Node000005"><a xlink:title=" ">
<path fill="none" stroke="#63b8ff" d="M268.41,-55.59C238.25,-46.74 192.87,-33.43 159.56,-23.65"/>
<polygon fill="#63b8ff" stroke="#63b8ff" points="160.79,-20.36 150.21,-20.91 158.82,-27.08 160.79,-20.36"/>
</a>
</g>
</g>
<!-- Node3&#45;&gt;Node6 -->
<g id="edge5_Node000003_Node000006" class="edge">
<title>Node3&#45;&gt;Node6</title>
<g id="a_edge5_Node000003_Node000006"><a xlink:title=" ">
<path fill="none" stroke="#63b8ff" d="M291.23,-55.59C283.86,-48.08 273.33,-37.35 264.44,-28.3"/>
<polygon fill="#63b8ff" stroke="#63b8ff" points="267.15,-26.06 257.65,-21.38 262.15,-30.97 267.15,-26.06"/>
</a>
</g>
</g>
<!-- Node3&#45;&gt;Node7 -->
<g id="edge6_Node000003_Node000007" class="edge">
<title>Node3&#45;&gt;Node7</title>
<g id="a_edge6_Node000003_Node000007"><a xlink:title=" ">
<path fill="none" stroke="#63b8ff" d="M311.08,-55.59C319.74,-47.93 332.19,-36.91 342.54,-27.75"/>
<polygon fill="#63b8ff" stroke="#63b8ff" points="344.65,-30.55 349.82,-21.3 340.01,-25.31 344.65,-30.55"/>
</a>
</g>
</g>
<!-- Node3&#45;&gt;Node8 -->
<g id="edge7_Node000003_Node000008" class="edge">
<title>Node3&#45;&gt;Node8</title>
<g id="a_edge7_Node000003_Node000008"><a xlink:title=" ">
<path fill="none" stroke="#63b8ff" d="M322.58,-55.59C342.49,-47.13 372.01,-34.58 394.67,-24.94"/>
<polygon fill="#63b8ff" stroke="#63b8ff" points="395.94,-28.21 403.77,-21.07 393.2,-21.76 395.94,-28.21"/>
</a>
</g>
</g>
</g>
</svg>
