<?xml version="1.0" encoding="UTF-8" standalone="no"?>
<!DOCTYPE svg PUBLIC "-//W3C//DTD SVG 1.1//EN"
 "http://www.w3.org/Graphics/SVG/1.1/DTD/svg11.dtd">
<!-- Generated by graphviz version 14.0.2 (20251019.1705)
 -->
<!-- Title: Backup.cpp Pages: 1 -->
<svg width="1638pt" height="252pt"
 viewBox="0.00 0.00 1638.00 252.00" xmlns="http://www.w3.org/2000/svg" xmlns:xlink="http://www.w3.org/1999/xlink">
<g id="graph0" class="graph" transform="scale(1 1) rotate(0) translate(4 248)">
<title>Backup.cpp</title>
<!-- Node1 -->
<g id="Node000001" class="node">
<title>Node1</title>
<g id="a_Node000001"><a xlink:title=" ">
<polygon fill="#999999" stroke="#666666" points="1100.27,-244 1032.52,-244 1032.52,-224 1100.27,-224 1100.27,-244"/>
<text xml:space="preserve" text-anchor="middle" x="1066.4" y="-230.5" font-family="Helvetica,sans-Serif" font-size="10.00">Backup.cpp</text>
</a>
</g>
</g>
<!-- Node2 -->
<g id="Node000002" class="node">
<title>Node2</title>
<g id="a_Node000002"><a xlink:href="Backup_8h.html" target="_top" xlink:title=" ">
<polygon fill="white" stroke="#666666" points="322.9,-188 231.9,-188 231.9,-168 322.9,-168 322.9,-188"/>
<text xml:space="preserve" text-anchor="middle" x="277.4" y="-174.5" font-family="Helvetica,sans-Serif" font-size="10.00">LGE/fs/Backup.h</text>
</a>
</g>
</g>
<!-- Node1&#45;&gt;Node2 -->
<g id="edge1_Node000001_Node000002" class="edge">
<title>Node1&#45;&gt;Node2</title>
<g id="a_edge1_Node000001_Node000002"><a xlink:title=" ">
<path fill="none" stroke="#63b8ff" d="M1032.04,-230.68C934.23,-224.06 645.86,-204.52 406.4,-188 382.94,-186.38 357.08,-184.58 334.71,-183.02"/>
<polygon fill="#63b8ff" stroke="#63b8ff" points="335.1,-179.54 324.88,-182.33 334.61,-186.52 335.1,-179.54"/>
</a>
</g>
</g>
<!-- Node3 -->
<g id="Node000003" class="node">
<title>Node3</title>
<g id="a_Node000003"><a xlink:href="AssetRegistry_8h.html" target="_top" xlink:title=" ">
<polygon fill="white" stroke="#666666" points="439.15,-132 319.65,-132 319.65,-112 439.15,-112 439.15,-132"/>
<text xml:space="preserve" text-anchor="middle" x="379.4" y="-118.5" font-family="Helvetica,sans-Serif" font-size="10.00">LGE/fs/AssetRegistry.h</text>
</a>
</g>
</g>
<!-- Node1&#45;&gt;Node3 -->
<g id="edge23_Node000001_Node000003" class="edge">
<title>Node1&#45;&gt;Node3</title>
<g id="a_edge23_Node000001_Node000003"><a xlink:title=" ">
<path fill="none" stroke="#63b8ff" d="M1032.23,-232.57C923.05,-230.84 583.76,-222.74 480.4,-188 449.11,-177.49 417.91,-155.13 398.64,-139.59"/>
<polygon fill="#63b8ff" stroke="#63b8ff" points="401.05,-137.04 391.12,-133.36 396.58,-142.43 401.05,-137.04"/>
</a>
</g>
</g>
<!-- Node4 -->
<g id="Node000004" class="node">
<title>Node4</title>
<g id="a_Node000004"><a xlink:href="MetaDB_8h.html" target="_top" xlink:title=" ">
<polygon fill="white" stroke="#666666" points="627.4,-76 533.4,-76 533.4,-56 627.4,-56 627.4,-76"/>
<text xml:space="preserve" text-anchor="middle" x="580.4" y="-62.5" font-family="Helvetica,sans-Serif" font-size="10.00">LGE/fs/MetaDB.h</text>
</a>
</g>
</g>
<!-- Node1&#45;&gt;Node4 -->
<g id="edge24_Node000001_Node000004" class="edge">
<title>Node1&#45;&gt;Node4</title>
<g id="a_edge24_Node000001_Node000004"><a xlink:title=" ">
<path fill="none" stroke="#63b8ff" d="M1038.87,-223.6C956.77,-195.56 713.41,-112.43 618.71,-80.09"/>
<polygon fill="#63b8ff" stroke="#63b8ff" points="619.94,-76.81 609.35,-76.89 617.68,-83.43 619.94,-76.81"/>
</a>
</g>
</g>
<!-- Node10 -->
<g id="Node000010" class="node">
<title>Node10</title>
<g id="a_Node000010"><a xlink:title=" ">
<polygon fill="#e0e0e0" stroke="#999999" points="135.77,-76 53.02,-76 53.02,-56 135.77,-56 135.77,-76"/>
<text xml:space="preserve" text-anchor="middle" x="94.4" y="-62.5" font-family="Helvetica,sans-Serif" font-size="10.00">unordered_map</text>
</a>
</g>
</g>
<!-- Node1&#45;&gt;Node10 -->
<g id="edge57_Node000001_Node000010" class="edge">
<title>Node1&#45;&gt;Node10</title>
<g id="a_edge57_Node000001_Node000010"><a xlink:title=" ">
<path fill="none" stroke="#63b8ff" d="M1032.19,-232.82C886.88,-231.8 320.31,-225.48 146.4,-188 80.08,-173.71 42.57,-188.08 4.4,-132 -11.25,-109.01 19.33,-91.29 49,-80.2"/>
<polygon fill="#63b8ff" stroke="#63b8ff" points="50.09,-83.52 58.37,-76.91 47.77,-76.92 50.09,-83.52"/>
</a>
</g>
</g>
<!-- Node12 -->
<g id="Node000012" class="node">
<title>Node12</title>
<g id="a_Node000012"><a xlink:title=" ">
<polygon fill="#e0e0e0" stroke="#999999" points="59.02,-132 13.77,-132 13.77,-112 59.02,-112 59.02,-132"/>
<text xml:space="preserve" text-anchor="middle" x="36.4" y="-118.5" font-family="Helvetica,sans-Serif" font-size="10.00">chrono</text>
</a>
</g>
</g>
<!-- Node1&#45;&gt;Node12 -->
<g id="edge55_Node000001_Node000012" class="edge">
<title>Node1&#45;&gt;Node12</title>
<g id="a_edge55_Node000001_Node000012"><a xlink:title=" ">
<path fill="none" stroke="#63b8ff" d="M1032.34,-232.46C895.1,-230.07 382.31,-219.21 223.4,-188 166.85,-176.89 104.17,-152.46 67.63,-136.91"/>
<polygon fill="#63b8ff" stroke="#63b8ff" points="69.13,-133.75 58.56,-133 66.36,-140.17 69.13,-133.75"/>
</a>
</g>
</g>
<!-- Node13 -->
<g id="Node000013" class="node">
<title>Node13</title>
<g id="a_Node000013"><a xlink:href="FileIO_8h.html" target="_top" xlink:title=" ">
<polygon fill="white" stroke="#666666" points="1033.52,-76 949.27,-76 949.27,-56 1033.52,-56 1033.52,-76"/>
<text xml:space="preserve" text-anchor="middle" x="991.4" y="-62.5" font-family="Helvetica,sans-Serif" font-size="10.00">LGE/fs/FileIO.h</text>
</a>
</g>
</g>
<!-- Node1&#45;&gt;Node13 -->
<g id="edge25_Node000001_Node000013" class="edge">
<title>Node1&#45;&gt;Node13</title>
<g id="a_edge25_Node000001_Node000013"><a xlink:title=" ">
<path fill="none" stroke="#63b8ff" d="M1062.15,-223.6C1050.24,-197.23 1016.33,-122.19 1000.17,-86.42"/>
<polygon fill="#63b8ff" stroke="#63b8ff" points="1003.53,-85.35 996.22,-77.68 997.15,-88.23 1003.53,-85.35"/>
</a>
</g>
</g>
<!-- Node14 -->
<g id="Node000014" class="node">
<title>Node14</title>
<g id="a_Node000014"><a xlink:href="Path_8h.html" target="_top" xlink:title=" ">
<polygon fill="white" stroke="#666666" points="1243.52,-76 1165.27,-76 1165.27,-56 1243.52,-56 1243.52,-76"/>
<text xml:space="preserve" text-anchor="middle" x="1204.4" y="-62.5" font-family="Helvetica,sans-Serif" font-size="10.00">LGE/fs/Path.h</text>
</a>
</g>
</g>
<!-- Node1&#45;&gt;Node14 -->
<g id="edge28_Node000001_Node000014" class="edge">
<title>Node1&#45;&gt;Node14</title>
<g id="a_edge28_Node000001_Node000014"><a xlink:title=" ">
<path fill="none" stroke="#63b8ff" d="M1074.21,-223.6C1096.41,-196.89 1160.14,-120.23 1189.39,-85.05"/>
<polygon fill="#63b8ff" stroke="#63b8ff" points="1192,-87.39 1195.7,-77.46 1186.62,-82.91 1192,-87.39"/>
</a>
</g>
</g>
<!-- Node15 -->
<g id="Node000015" class="node">
<title>Node15</title>
<g id="a_Node000015"><a xlink:href="Project_8h.html" target="_top" xlink:title=" ">
<polygon fill="white" stroke="#666666" points="1248.77,-188 1160.02,-188 1160.02,-168 1248.77,-168 1248.77,-188"/>
<text xml:space="preserve" text-anchor="middle" x="1204.4" y="-174.5" font-family="Helvetica,sans-Serif" font-size="10.00">LGE/fs/Project.h</text>
</a>
</g>
</g>
<!-- Node1&#45;&gt;Node15 -->
<g id="edge31_Node000001_Node000015" class="edge">
<title>Node1&#45;&gt;Node15</title>
<g id="a_edge31_Node000001_Node000015"><a xlink:title=" ">
<path fill="none" stroke="#63b8ff" d="M1090.43,-223.59C1112.36,-215.01 1145.02,-202.23 1169.77,-192.55"/>
<polygon fill="#63b8ff" stroke="#63b8ff" points="1170.72,-195.93 1178.76,-189.03 1168.17,-189.42 1170.72,-195.93"/>
</a>
</g>
</g>
<!-- Node16 -->
<g id="Node000016" class="node">
<title>Node16</title>
<g id="a_Node000016"><a xlink:title=" ">
<polygon fill="#e0e0e0" stroke="#999999" points="1242.9,-132 1181.9,-132 1181.9,-112 1242.9,-112 1242.9,-132"/>
<text xml:space="preserve" text-anchor="middle" x="1212.4" y="-118.5" font-family="Helvetica,sans-Serif" font-size="10.00">filesystem</text>
</a>
</g>
</g>
<!-- Node1&#45;&gt;Node16 -->
<g id="edge51_Node000001_Node000016" class="edge">
<title>Node1&#45;&gt;Node16</title>
<g id="a_edge51_Node000001_Node000016"><a xlink:title=" ">
<path fill="none" stroke="#63b8ff" d="M1078.45,-223.68C1094.88,-211 1125.25,-187.64 1151.4,-168 1164.38,-158.24 1179.03,-147.43 1190.71,-138.85"/>
<polygon fill="#63b8ff" stroke="#63b8ff" points="1192.51,-141.87 1198.51,-133.14 1188.38,-136.23 1192.51,-141.87"/>
</a>
</g>
</g>
<!-- Node17 -->
<g id="Node000017" class="node">
<title>Node17</title>
<g id="a_Node000017"><a xlink:href="Compression_8h.html" target="_top" xlink:title=" ">
<polygon fill="white" stroke="#666666" points="979.27,-132 863.52,-132 863.52,-112 979.27,-112 979.27,-132"/>
<text xml:space="preserve" text-anchor="middle" x="921.4" y="-118.5" font-family="Helvetica,sans-Serif" font-size="10.00">LGE/fs/Compression.h</text>
</a>
</g>
</g>
<!-- Node1&#45;&gt;Node17 -->
<g id="edge34_Node000001_Node000017" class="edge">
<title>Node1&#45;&gt;Node17</title>
<g id="a_edge34_Node000001_Node000017"><a xlink:title=" ">
<path fill="none" stroke="#63b8ff" d="M1054.03,-223.62C1029.31,-204.87 973.53,-162.55 942.77,-139.21"/>
<polygon fill="#63b8ff" stroke="#63b8ff" points="945.02,-136.53 934.93,-133.27 940.78,-142.1 945.02,-136.53"/>
</a>
</g>
</g>
<!-- Node18 -->
<g id="Node000018" class="node">
<title>Node18</title>
<g id="a_Node000018"><a xlink:href="Validation_8h.html" target="_top" xlink:title=" ">
<polygon fill="white" stroke="#666666" points="589.4,-188 489.4,-188 489.4,-168 589.4,-168 589.4,-188"/>
<text xml:space="preserve" text-anchor="middle" x="539.4" y="-174.5" font-family="Helvetica,sans-Serif" font-size="10.00">LGE/fs/Validation.h</text>
</a>
</g>
</g>
<!-- Node1&#45;&gt;Node18 -->
<g id="edge41_Node000001_Node000018" class="edge">
<title>Node1&#45;&gt;Node18</title>
<g id="a_edge41_Node000001_Node000018"><a xlink:title=" ">
<path fill="none" stroke="#63b8ff" d="M1032.07,-230.17C955.2,-223.72 763.39,-207.02 603.4,-188 602.56,-187.9 601.72,-187.8 600.87,-187.7"/>
<polygon fill="#63b8ff" stroke="#63b8ff" points="601.54,-184.25 591.18,-186.47 600.66,-191.2 601.54,-184.25"/>
</a>
</g>
</g>
<!-- Node19 -->
<g id="Node000019" class="node">
<title>Node19</title>
<g id="a_Node000019"><a xlink:href="Log_8h.html" target="_top" xlink:title=" ">
<polygon fill="white" stroke="#666666" points="1351.52,-188 1267.27,-188 1267.27,-168 1351.52,-168 1351.52,-188"/>
<text xml:space="preserve" text-anchor="middle" x="1309.4" y="-174.5" font-family="Helvetica,sans-Serif" font-size="10.00">LGE/core/Log.h</text>
</a>
</g>
</g>
<!-- Node1&#45;&gt;Node19 -->
<g id="edge48_Node000001_Node000019" class="edge">
<title>Node1&#45;&gt;Node19</title>
<g id="a_edge48_Node000001_Node000019"><a xlink:title=" ">
<path fill="none" stroke="#63b8ff" d="M1100.7,-225.38C1141.15,-216.39 1208.86,-201.34 1256.15,-190.83"/>
<polygon fill="#63b8ff" stroke="#63b8ff" points="1256.63,-194.31 1265.63,-188.73 1255.11,-187.48 1256.63,-194.31"/>
</a>
</g>
</g>
<!-- Node21 -->
<g id="Node000021" class="node">
<title>Node21</title>
<g id="a_Node000021"><a xlink:title=" ">
<polygon fill="#e0e0e0" stroke="#999999" points="1418.9,-188 1369.9,-188 1369.9,-168 1418.9,-168 1418.9,-188"/>
<text xml:space="preserve" text-anchor="middle" x="1394.4" y="-174.5" font-family="Helvetica,sans-Serif" font-size="10.00">fstream</text>
</a>
</g>
</g>
<!-- Node1&#45;&gt;Node21 -->
<g id="edge52_Node000001_Node000021" class="edge">
<title>Node1&#45;&gt;Node21</title>
<g id="a_edge52_Node000001_Node000021"><a xlink:title=" ">
<path fill="none" stroke="#63b8ff" d="M1100.56,-228.98C1153.6,-222.47 1259.14,-208.48 1358.45,-188.2"/>
<polygon fill="#63b8ff" stroke="#63b8ff" points="1359.02,-191.66 1368.1,-186.2 1357.6,-184.8 1359.02,-191.66"/>
</a>
</g>
</g>
<!-- Node22 -->
<g id="Node000022" class="node">
<title>Node22</title>
<g id="a_Node000022"><a xlink:title=" ">
<polygon fill="#e0e0e0" stroke="#999999" points="1488.02,-188 1436.77,-188 1436.77,-168 1488.02,-168 1488.02,-188"/>
<text xml:space="preserve" text-anchor="middle" x="1462.4" y="-174.5" font-family="Helvetica,sans-Serif" font-size="10.00">sstream</text>
</a>
</g>
</g>
<!-- Node1&#45;&gt;Node22 -->
<g id="edge53_Node000001_Node000022" class="edge">
<title>Node1&#45;&gt;Node22</title>
<g id="a_edge53_Node000001_Node000022"><a xlink:title=" ">
<path fill="none" stroke="#63b8ff" d="M1100.57,-230.3C1163.19,-225.03 1300.65,-211.91 1425.25,-188.4"/>
<polygon fill="#63b8ff" stroke="#63b8ff" points="1425.84,-191.85 1435,-186.53 1424.52,-184.98 1425.84,-191.85"/>
</a>
</g>
</g>
<!-- Node23 -->
<g id="Node000023" class="node">
<title>Node23</title>
<g id="a_Node000023"><a xlink:title=" ">
<polygon fill="#e0e0e0" stroke="#999999" points="1562.27,-188 1506.52,-188 1506.52,-168 1562.27,-168 1562.27,-188"/>
<text xml:space="preserve" text-anchor="middle" x="1534.4" y="-174.5" font-family="Helvetica,sans-Serif" font-size="10.00">algorithm</text>
</a>
</g>
</g>
<!-- Node1&#45;&gt;Node23 -->
<g id="edge54_Node000001_Node000023" class="edge">
<title>Node1&#45;&gt;Node23</title>
<g id="a_edge54_Node000001_Node000023"><a xlink:title=" ">
<path fill="none" stroke="#63b8ff" d="M1100.69,-230.99C1172.24,-226.47 1342.74,-213.94 1495.25,-188.15"/>
<polygon fill="#63b8ff" stroke="#63b8ff" points="1495.44,-191.67 1504.7,-186.53 1494.26,-184.77 1495.44,-191.67"/>
</a>
</g>
</g>
<!-- Node24 -->
<g id="Node000024" class="node">
<title>Node24</title>
<g id="a_Node000024"><a xlink:title=" ">
<polygon fill="#e0e0e0" stroke="#999999" points="1630.27,-188 1580.52,-188 1580.52,-168 1630.27,-168 1630.27,-188"/>
<text xml:space="preserve" text-anchor="middle" x="1605.4" y="-174.5" font-family="Helvetica,sans-Serif" font-size="10.00">iomanip</text>
</a>
</g>
</g>
<!-- Node1&#45;&gt;Node24 -->
<g id="edge56_Node000001_Node000024" class="edge">
<title>Node1&#45;&gt;Node24</title>
<g id="a_edge56_Node000001_Node000024"><a xlink:title=" ">
<path fill="none" stroke="#63b8ff" d="M1100.65,-231.95C1180.93,-229.07 1387.56,-219.2 1569.15,-188.1"/>
<polygon fill="#63b8ff" stroke="#63b8ff" points="1569.51,-191.59 1578.76,-186.43 1568.31,-184.69 1569.51,-191.59"/>
</a>
</g>
</g>
<!-- Node2&#45;&gt;Node3 -->
<g id="edge2_Node000002_Node000003" class="edge">
<title>Node2&#45;&gt;Node3</title>
<g id="a_edge2_Node000002_Node000003"><a xlink:title=" ">
<path fill="none" stroke="#63b8ff" d="M295.16,-167.59C310.72,-159.36 333.58,-147.26 351.56,-137.74"/>
<polygon fill="#63b8ff" stroke="#63b8ff" points="352.95,-140.96 360.15,-133.19 349.68,-134.77 352.95,-140.96"/>
</a>
</g>
</g>
<!-- Node5 -->
<g id="Node000005" class="node">
<title>Node5</title>
<g id="a_Node000005"><a xlink:title=" ">
<polygon fill="#e0e0e0" stroke="#999999" points="1119.4,-20 1079.4,-20 1079.4,0 1119.4,0 1119.4,-20"/>
<text xml:space="preserve" text-anchor="middle" x="1099.4" y="-6.5" font-family="Helvetica,sans-Serif" font-size="10.00">string</text>
</a>
</g>
</g>
<!-- Node2&#45;&gt;Node5 -->
<g id="edge16_Node000002_Node000005" class="edge">
<title>Node2&#45;&gt;Node5</title>
<g id="a_edge16_Node000002_Node000005"><a xlink:title=" ">
<path fill="none" stroke="#63b8ff" d="M323.32,-174.79C475.75,-167.35 957.02,-143.1 988.4,-132 1028.97,-117.65 1039.48,-108.76 1067.4,-76 1078.75,-62.67 1087.22,-44.62 1092.59,-30.92"/>
<polygon fill="#63b8ff" stroke="#63b8ff" points="1095.83,-32.24 1095.97,-21.65 1089.25,-29.84 1095.83,-32.24"/>
</a>
</g>
</g>
<!-- Node6 -->
<g id="Node000006" class="node">
<title>Node6</title>
<g id="a_Node000006"><a xlink:title=" ">
<polygon fill="#e0e0e0" stroke="#999999" points="840.15,-20 774.65,-20 774.65,0 840.15,0 840.15,-20"/>
<text xml:space="preserve" text-anchor="middle" x="807.4" y="-6.5" font-family="Helvetica,sans-Serif" font-size="10.00">string_view</text>
</a>
</g>
</g>
<!-- Node2&#45;&gt;Node6 -->
<g id="edge17_Node000002_Node000006" class="edge">
<title>Node2&#45;&gt;Node6</title>
<g id="a_edge17_Node000002_Node000006"><a xlink:title=" ">
<path fill="none" stroke="#63b8ff" d="M323.32,-168.94C399.04,-154.88 554.2,-122.84 679.4,-76 716.37,-62.17 756.58,-40.57 781.88,-26.11"/>
<polygon fill="#63b8ff" stroke="#63b8ff" points="783.54,-29.2 790.44,-21.16 780.04,-23.14 783.54,-29.2"/>
</a>
</g>
</g>
<!-- Node7 -->
<g id="Node000007" class="node">
<title>Node7</title>
<g id="a_Node000007"><a xlink:title=" ">
<polygon fill="#e0e0e0" stroke="#999999" points="488.9,-20 445.9,-20 445.9,0 488.9,0 488.9,-20"/>
<text xml:space="preserve" text-anchor="middle" x="467.4" y="-6.5" font-family="Helvetica,sans-Serif" font-size="10.00">vector</text>
</a>
</g>
</g>
<!-- Node2&#45;&gt;Node7 -->
<g id="edge18_Node000002_Node000007" class="edge">
<title>Node2&#45;&gt;Node7</title>
<g id="a_edge18_Node000002_Node000007"><a xlink:title=" ">
<path fill="none" stroke="#63b8ff" d="M272.22,-167.56C260.83,-145.39 236.64,-89.3 263.4,-56 284.47,-29.77 382.16,-17.92 434.34,-13.39"/>
<polygon fill="#63b8ff" stroke="#63b8ff" points="434.45,-16.89 444.13,-12.58 433.88,-9.91 434.45,-16.89"/>
</a>
</g>
</g>
<!-- Node8 -->
<g id="Node000008" class="node">
<title>Node8</title>
<g id="a_Node000008"><a xlink:title=" ">
<polygon fill="#e0e0e0" stroke="#999999" points="264.27,-20 214.52,-20 214.52,0 264.27,0 264.27,-20"/>
<text xml:space="preserve" text-anchor="middle" x="239.4" y="-6.5" font-family="Helvetica,sans-Serif" font-size="10.00">optional</text>
</a>
</g>
</g>
<!-- Node2&#45;&gt;Node8 -->
<g id="edge20_Node000002_Node000008" class="edge">
<title>Node2&#45;&gt;Node8</title>
<g id="a_edge20_Node000002_Node000008"><a xlink:title=" ">
<path fill="none" stroke="#63b8ff" d="M231.45,-167.61C200.3,-160.26 158.7,-148.5 124.4,-132 85.29,-113.19 64.44,-114.5 44.4,-76 40.29,-68.12 38.86,-62.96 44.4,-56 63.86,-31.53 152.34,-19.23 203.17,-14.07"/>
<polygon fill="#63b8ff" stroke="#63b8ff" points="203.19,-17.59 212.81,-13.14 202.52,-10.62 203.19,-17.59"/>
</a>
</g>
</g>
<!-- Node9 -->
<g id="Node000009" class="node">
<title>Node9</title>
<g id="a_Node000009"><a xlink:title=" ">
<polygon fill="#e0e0e0" stroke="#999999" points="603.02,-20 557.77,-20 557.77,0 603.02,0 603.02,-20"/>
<text xml:space="preserve" text-anchor="middle" x="580.4" y="-6.5" font-family="Helvetica,sans-Serif" font-size="10.00">cstdint</text>
</a>
</g>
</g>
<!-- Node2&#45;&gt;Node9 -->
<g id="edge21_Node000002_Node000009" class="edge">
<title>Node2&#45;&gt;Node9</title>
<g id="a_edge21_Node000002_Node000009"><a xlink:title=" ">
<path fill="none" stroke="#63b8ff" d="M278.85,-167.63C282.95,-144.57 296.85,-84.88 334.4,-56 351,-43.22 482.47,-24.12 546.11,-15.51"/>
<polygon fill="#63b8ff" stroke="#63b8ff" points="546.57,-18.98 556.02,-14.18 545.64,-12.04 546.57,-18.98"/>
</a>
</g>
</g>
<!-- Node2&#45;&gt;Node10 -->
<g id="edge19_Node000002_Node000010" class="edge">
<title>Node2&#45;&gt;Node10</title>
<g id="a_edge19_Node000002_Node000010"><a xlink:title=" ">
<path fill="none" stroke="#63b8ff" d="M232.92,-167.57C206.98,-160.62 174.52,-149.31 149.4,-132 131.57,-119.72 116.14,-100.21 106.2,-85.77"/>
<polygon fill="#63b8ff" stroke="#63b8ff" points="109.23,-84.02 100.81,-77.59 103.39,-87.87 109.23,-84.02"/>
</a>
</g>
</g>
<!-- Node2&#45;&gt;Node12 -->
<g id="edge22_Node000002_Node000012" class="edge">
<title>Node2&#45;&gt;Node12</title>
<g id="a_edge22_Node000002_Node000012"><a xlink:title=" ">
<path fill="none" stroke="#63b8ff" d="M233.16,-167.53C191.8,-158.61 128.34,-144.74 73.4,-132 72.41,-131.77 71.41,-131.54 70.4,-131.3"/>
<polygon fill="#63b8ff" stroke="#63b8ff" points="71.48,-127.96 60.94,-129.04 69.86,-134.77 71.48,-127.96"/>
</a>
</g>
</g>
<!-- Node3&#45;&gt;Node4 -->
<g id="edge3_Node000003_Node000004" class="edge">
<title>Node3&#45;&gt;Node4</title>
<g id="a_edge3_Node000003_Node000004"><a xlink:title=" ">
<path fill="none" stroke="#63b8ff" d="M414.41,-111.59C447.64,-102.67 497.79,-89.19 534.26,-79.39"/>
<polygon fill="#63b8ff" stroke="#63b8ff" points="534.9,-82.85 543.65,-76.87 533.08,-76.09 534.9,-82.85"/>
</a>
</g>
</g>
<!-- Node3&#45;&gt;Node5 -->
<g id="edge9_Node000003_Node000005" class="edge">
<title>Node3&#45;&gt;Node5</title>
<g id="a_edge9_Node000003_Node000005"><a xlink:title=" ">
<path fill="none" stroke="#63b8ff" d="M439.46,-112.07C500.03,-103.05 596.22,-88.67 679.4,-76 824.89,-53.83 998.63,-26.75 1068.28,-15.87"/>
<polygon fill="#63b8ff" stroke="#63b8ff" points="1068.46,-19.38 1077.8,-14.38 1067.38,-12.47 1068.46,-19.38"/>
</a>
</g>
</g>
<!-- Node3&#45;&gt;Node6 -->
<g id="edge10_Node000003_Node000006" class="edge">
<title>Node3&#45;&gt;Node6</title>
<g id="a_edge10_Node000003_Node000006"><a xlink:title=" ">
<path fill="none" stroke="#63b8ff" d="M439.57,-113.76C492.11,-106.65 570.12,-94.22 636.4,-76 686.55,-62.21 742.52,-39.46 776.34,-24.86"/>
<polygon fill="#63b8ff" stroke="#63b8ff" points="777.35,-28.24 785.11,-21.03 774.55,-21.82 777.35,-28.24"/>
</a>
</g>
</g>
<!-- Node3&#45;&gt;Node7 -->
<g id="edge11_Node000003_Node000007" class="edge">
<title>Node3&#45;&gt;Node7</title>
<g id="a_edge11_Node000003_Node000007"><a xlink:title=" ">
<path fill="none" stroke="#63b8ff" d="M364.83,-111.67C346.87,-98.99 320.32,-75.63 334.4,-56 356.95,-24.56 402.66,-14.81 434.15,-11.94"/>
<polygon fill="#63b8ff" stroke="#63b8ff" points="434.2,-15.44 443.93,-11.25 433.71,-8.46 434.2,-15.44"/>
</a>
</g>
</g>
<!-- Node3&#45;&gt;Node8 -->
<g id="edge13_Node000003_Node000008" class="edge">
<title>Node3&#45;&gt;Node8</title>
<g id="a_edge13_Node000003_Node000008"><a xlink:title=" ">
<path fill="none" stroke="#63b8ff" d="M367.46,-111.62C343.59,-92.87 289.73,-50.55 260.03,-27.21"/>
<polygon fill="#63b8ff" stroke="#63b8ff" points="262.52,-24.72 252.49,-21.29 258.19,-30.22 262.52,-24.72"/>
</a>
</g>
</g>
<!-- Node3&#45;&gt;Node9 -->
<g id="edge15_Node000003_Node000009" class="edge">
<title>Node3&#45;&gt;Node9</title>
<g id="a_edge15_Node000003_Node000009"><a xlink:title=" ">
<path fill="none" stroke="#63b8ff" d="M396.53,-111.62C431.47,-92.5 511.16,-48.89 553.23,-25.87"/>
<polygon fill="#63b8ff" stroke="#63b8ff" points="554.88,-28.95 561.97,-21.08 551.52,-22.81 554.88,-28.95"/>
</a>
</g>
</g>
<!-- Node3&#45;&gt;Node10 -->
<g id="edge12_Node000003_Node000010" class="edge">
<title>Node3&#45;&gt;Node10</title>
<g id="a_edge12_Node000003_Node000010"><a xlink:title=" ">
<path fill="none" stroke="#63b8ff" d="M329.43,-111.53C278.26,-101.84 199.06,-86.83 146.97,-76.96"/>
<polygon fill="#63b8ff" stroke="#63b8ff" points="147.93,-73.58 137.45,-75.16 146.63,-80.46 147.93,-73.58"/>
</a>
</g>
</g>
<!-- Node11 -->
<g id="Node000011" class="node">
<title>Node11</title>
<g id="a_Node000011"><a xlink:title=" ">
<polygon fill="#e0e0e0" stroke="#999999" points="401.4,-76 343.4,-76 343.4,-56 401.4,-56 401.4,-76"/>
<text xml:space="preserve" text-anchor="middle" x="372.4" y="-62.5" font-family="Helvetica,sans-Serif" font-size="10.00">functional</text>
</a>
</g>
</g>
<!-- Node3&#45;&gt;Node11 -->
<g id="edge14_Node000003_Node000011" class="edge">
<title>Node3&#45;&gt;Node11</title>
<g id="a_edge14_Node000003_Node000011"><a xlink:title=" ">
<path fill="none" stroke="#63b8ff" d="M378.18,-111.59C377.31,-104.93 376.12,-95.75 375.05,-87.44"/>
<polygon fill="#63b8ff" stroke="#63b8ff" points="378.55,-87.27 373.8,-77.8 371.61,-88.17 378.55,-87.27"/>
</a>
</g>
</g>
<!-- Node4&#45;&gt;Node5 -->
<g id="edge4_Node000004_Node000005" class="edge">
<title>Node4&#45;&gt;Node5</title>
<g id="a_edge4_Node000004_Node000005"><a xlink:title=" ">
<path fill="none" stroke="#63b8ff" d="M627.83,-60.06C732.27,-49.2 979.8,-23.44 1067.73,-14.3"/>
<polygon fill="#63b8ff" stroke="#63b8ff" points="1067.95,-17.79 1077.54,-13.27 1067.23,-10.83 1067.95,-17.79"/>
</a>
</g>
</g>
<!-- Node4&#45;&gt;Node6 -->
<g id="edge5_Node000004_Node000006" class="edge">
<title>Node4&#45;&gt;Node6</title>
<g id="a_edge5_Node000004_Node000006"><a xlink:title=" ">
<path fill="none" stroke="#63b8ff" d="M620.2,-55.53C660.18,-46.02 721.66,-31.4 763.15,-21.53"/>
<polygon fill="#63b8ff" stroke="#63b8ff" points="763.89,-24.95 772.81,-19.23 762.27,-18.14 763.89,-24.95"/>
</a>
</g>
</g>
<!-- Node4&#45;&gt;Node7 -->
<g id="edge6_Node000004_Node000007" class="edge">
<title>Node4&#45;&gt;Node7</title>
<g id="a_edge6_Node000004_Node000007"><a xlink:title=" ">
<path fill="none" stroke="#63b8ff" d="M560.71,-55.59C543.24,-47.24 517.44,-34.92 497.4,-25.34"/>
<polygon fill="#63b8ff" stroke="#63b8ff" points="499.13,-22.29 488.6,-21.13 496.11,-28.6 499.13,-22.29"/>
</a>
</g>
</g>
<!-- Node4&#45;&gt;Node8 -->
<g id="edge7_Node000004_Node000008" class="edge">
<title>Node4&#45;&gt;Node8</title>
<g id="a_edge7_Node000004_Node000008"><a xlink:title=" ">
<path fill="none" stroke="#63b8ff" d="M532.98,-57.49C464.04,-46.57 337.61,-26.55 275.61,-16.74"/>
<polygon fill="#63b8ff" stroke="#63b8ff" points="276.38,-13.31 265.96,-15.21 275.29,-20.23 276.38,-13.31"/>
</a>
</g>
</g>
<!-- Node4&#45;&gt;Node9 -->
<g id="edge8_Node000004_Node000009" class="edge">
<title>Node4&#45;&gt;Node9</title>
<g id="a_edge8_Node000004_Node000009"><a xlink:title=" ">
<path fill="none" stroke="#63b8ff" d="M580.4,-55.59C580.4,-49.01 580.4,-39.96 580.4,-31.73"/>
<polygon fill="#63b8ff" stroke="#63b8ff" points="583.9,-31.81 580.4,-21.81 576.9,-31.81 583.9,-31.81"/>
</a>
</g>
</g>
<!-- Node13&#45;&gt;Node5 -->
<g id="edge26_Node000013_Node000005" class="edge">
<title>Node13&#45;&gt;Node5</title>
<g id="a_edge26_Node000013_Node000005"><a xlink:title=" ">
<path fill="none" stroke="#63b8ff" d="M1010.21,-55.59C1026.75,-47.32 1051.11,-35.14 1070.19,-25.6"/>
<polygon fill="#63b8ff" stroke="#63b8ff" points="1071.7,-28.76 1079.08,-21.16 1068.57,-22.5 1071.7,-28.76"/>
</a>
</g>
</g>
<!-- Node13&#45;&gt;Node6 -->
<g id="edge27_Node000013_Node000006" class="edge">
<title>Node13&#45;&gt;Node6</title>
<g id="a_edge27_Node000013_Node000006"><a xlink:title=" ">
<path fill="none" stroke="#63b8ff" d="M959.35,-55.59C929.19,-46.74 883.81,-33.43 850.49,-23.65"/>
<polygon fill="#63b8ff" stroke="#63b8ff" points="851.73,-20.36 841.15,-20.91 849.76,-27.08 851.73,-20.36"/>
</a>
</g>
</g>
<!-- Node14&#45;&gt;Node5 -->
<g id="edge29_Node000014_Node000005" class="edge">
<title>Node14&#45;&gt;Node5</title>
<g id="a_edge29_Node000014_Node000005"><a xlink:title=" ">
<path fill="none" stroke="#63b8ff" d="M1186.11,-55.59C1170.09,-47.36 1146.56,-35.26 1128.05,-25.74"/>
<polygon fill="#63b8ff" stroke="#63b8ff" points="1129.67,-22.63 1119.17,-21.17 1126.47,-28.86 1129.67,-22.63"/>
</a>
</g>
</g>
<!-- Node14&#45;&gt;Node6 -->
<g id="edge30_Node000014_Node000006" class="edge">
<title>Node14&#45;&gt;Node6</title>
<g id="a_edge30_Node000014_Node000006"><a xlink:title=" ">
<path fill="none" stroke="#63b8ff" d="M1164.88,-59.62C1090.45,-49.5 929.94,-27.67 851.86,-17.05"/>
<polygon fill="#63b8ff" stroke="#63b8ff" points="852.39,-13.59 842.01,-15.71 851.45,-20.52 852.39,-13.59"/>
</a>
</g>
</g>
<!-- Node15&#45;&gt;Node5 -->
<g id="edge32_Node000015_Node000005" class="edge">
<title>Node15&#45;&gt;Node5</title>
<g id="a_edge32_Node000015_Node000005"><a xlink:title=" ">
<path fill="none" stroke="#63b8ff" d="M1219.69,-167.69C1231.09,-159.79 1245.77,-147.3 1252.4,-132 1265.82,-101.01 1272.63,-83.05 1252.4,-56 1237.83,-36.53 1171.21,-22.59 1130.84,-15.76"/>
<polygon fill="#63b8ff" stroke="#63b8ff" points="1131.65,-12.35 1121.22,-14.19 1130.52,-19.26 1131.65,-12.35"/>
</a>
</g>
</g>
<!-- Node15&#45;&gt;Node16 -->
<g id="edge33_Node000015_Node000016" class="edge">
<title>Node15&#45;&gt;Node16</title>
<g id="a_edge33_Node000015_Node000016"><a xlink:title=" ">
<path fill="none" stroke="#63b8ff" d="M1205.79,-167.59C1206.78,-160.93 1208.14,-151.75 1209.37,-143.44"/>
<polygon fill="#63b8ff" stroke="#63b8ff" points="1212.79,-144.2 1210.8,-133.8 1205.87,-143.17 1212.79,-144.2"/>
</a>
</g>
</g>
<!-- Node17&#45;&gt;Node5 -->
<g id="edge36_Node000017_Node000005" class="edge">
<title>Node17&#45;&gt;Node5</title>
<g id="a_edge36_Node000017_Node000005"><a xlink:title=" ">
<path fill="none" stroke="#63b8ff" d="M961.36,-111.53C986.15,-104.4 1017.85,-92.92 1042.4,-76 1060.49,-63.53 1076.54,-44.05 1086.96,-29.67"/>
<polygon fill="#63b8ff" stroke="#63b8ff" points="1089.8,-31.72 1092.63,-21.51 1084.05,-27.72 1089.8,-31.72"/>
</a>
</g>
</g>
<!-- Node17&#45;&gt;Node6 -->
<g id="edge37_Node000017_Node000006" class="edge">
<title>Node17&#45;&gt;Node6</title>
<g id="a_edge37_Node000017_Node000006"><a xlink:title=" ">
<path fill="none" stroke="#63b8ff" d="M920.2,-111.93C917.97,-98.28 912,-72.31 897.4,-56 884.78,-41.91 866.73,-31.69 850.11,-24.58"/>
<polygon fill="#63b8ff" stroke="#63b8ff" points="851.45,-21.35 840.87,-20.91 848.87,-27.86 851.45,-21.35"/>
</a>
</g>
</g>
<!-- Node17&#45;&gt;Node7 -->
<g id="edge38_Node000017_Node000007" class="edge">
<title>Node17&#45;&gt;Node7</title>
<g id="a_edge38_Node000017_Node000007"><a xlink:title=" ">
<path fill="none" stroke="#63b8ff" d="M875.68,-111.5C834.06,-102.73 770.96,-89.1 716.4,-76 675.14,-66.09 558.06,-35.11 500.36,-19.78"/>
<polygon fill="#63b8ff" stroke="#63b8ff" points="501.35,-16.42 490.79,-17.23 499.55,-23.18 501.35,-16.42"/>
</a>
</g>
</g>
<!-- Node17&#45;&gt;Node8 -->
<g id="edge39_Node000017_Node000008" class="edge">
<title>Node17&#45;&gt;Node8</title>
<g id="a_edge39_Node000017_Node000008"><a xlink:title=" ">
<path fill="none" stroke="#63b8ff" d="M863.25,-116.45C785.64,-109.91 644.06,-96.36 524.4,-76 434.2,-60.65 329.71,-34.69 275.78,-20.67"/>
<polygon fill="#63b8ff" stroke="#63b8ff" points="276.78,-17.31 266.22,-18.17 275.01,-24.08 276.78,-17.31"/>
</a>
</g>
</g>
<!-- Node17&#45;&gt;Node9 -->
<g id="edge40_Node000017_Node000009" class="edge">
<title>Node17&#45;&gt;Node9</title>
<g id="a_edge40_Node000017_Node000009"><a xlink:title=" ">
<path fill="none" stroke="#63b8ff" d="M892.03,-111.53C828.96,-91.18 680.87,-43.41 614.1,-21.87"/>
<polygon fill="#63b8ff" stroke="#63b8ff" points="615.39,-18.61 604.8,-18.87 613.24,-25.27 615.39,-18.61"/>
</a>
</g>
</g>
<!-- Node17&#45;&gt;Node13 -->
<g id="edge35_Node000017_Node000013" class="edge">
<title>Node17&#45;&gt;Node13</title>
<g id="a_edge35_Node000017_Node000013"><a xlink:title=" ">
<path fill="none" stroke="#63b8ff" d="M933.59,-111.59C943.73,-103.77 958.39,-92.46 970.41,-83.19"/>
<polygon fill="#63b8ff" stroke="#63b8ff" points="972.36,-86.1 978.14,-77.22 968.09,-80.56 972.36,-86.1"/>
</a>
</g>
</g>
<!-- Node18&#45;&gt;Node3 -->
<g id="edge42_Node000018_Node000003" class="edge">
<title>Node18&#45;&gt;Node3</title>
<g id="a_edge42_Node000018_Node000003"><a xlink:title=" ">
<path fill="none" stroke="#63b8ff" d="M511.53,-167.59C485.64,-158.86 446.87,-145.77 418.01,-136.03"/>
<polygon fill="#63b8ff" stroke="#63b8ff" points="419.51,-132.85 408.92,-132.96 417.27,-139.48 419.51,-132.85"/>
</a>
</g>
</g>
<!-- Node18&#45;&gt;Node5 -->
<g id="edge43_Node000018_Node000005" class="edge">
<title>Node18&#45;&gt;Node5</title>
<g id="a_edge43_Node000018_Node000005"><a xlink:title=" ">
<path fill="none" stroke="#63b8ff" d="M589.79,-175.9C718.44,-172.67 1051.65,-161.53 1091.4,-132 1119.62,-111.03 1118.68,-90.77 1113.4,-56 1112.14,-47.72 1109.65,-38.86 1107.11,-31.22"/>
<polygon fill="#63b8ff" stroke="#63b8ff" points="1110.43,-30.12 1103.77,-21.88 1103.84,-32.48 1110.43,-30.12"/>
</a>
</g>
</g>
<!-- Node18&#45;&gt;Node6 -->
<g id="edge44_Node000018_Node000006" class="edge">
<title>Node18&#45;&gt;Node6</title>
<g id="a_edge44_Node000018_Node000006"><a xlink:title=" ">
<path fill="none" stroke="#63b8ff" d="M589.59,-168.56C644.23,-156.87 730.79,-130.68 783.4,-76 795.14,-63.8 801.22,-45.36 804.32,-31.24"/>
<polygon fill="#63b8ff" stroke="#63b8ff" points="807.71,-32.15 806.07,-21.69 800.83,-30.89 807.71,-32.15"/>
</a>
</g>
</g>
<!-- Node18&#45;&gt;Node7 -->
<g id="edge45_Node000018_Node000007" class="edge">
<title>Node18&#45;&gt;Node7</title>
<g id="a_edge45_Node000018_Node000007"><a xlink:title=" ">
<path fill="none" stroke="#63b8ff" d="M535.32,-167.6C523.88,-141.23 491.33,-66.19 475.82,-30.42"/>
<polygon fill="#63b8ff" stroke="#63b8ff" points="479.22,-29.47 472.03,-21.69 472.8,-32.25 479.22,-29.47"/>
</a>
</g>
</g>
<!-- Node18&#45;&gt;Node8 -->
<g id="edge46_Node000018_Node000008" class="edge">
<title>Node18&#45;&gt;Node8</title>
<g id="a_edge46_Node000018_Node000008"><a xlink:title=" ">
<path fill="none" stroke="#63b8ff" d="M489,-171.95C430.52,-165.27 338.53,-151.96 310.4,-132 275.1,-106.95 254.59,-58.38 245.35,-31"/>
<polygon fill="#63b8ff" stroke="#63b8ff" points="248.8,-30.3 242.44,-21.83 242.13,-32.42 248.8,-30.3"/>
</a>
</g>
</g>
<!-- Node18&#45;&gt;Node9 -->
<g id="edge47_Node000018_Node000009" class="edge">
<title>Node18&#45;&gt;Node9</title>
<g id="a_edge47_Node000018_Node000009"><a xlink:title=" ">
<path fill="none" stroke="#63b8ff" d="M553.77,-167.63C576.43,-151.89 619.6,-117.72 636.4,-76 639.71,-67.75 640.24,-64.02 636.4,-56 630.58,-43.86 619.71,-33.95 609.08,-26.56"/>
<polygon fill="#63b8ff" stroke="#63b8ff" points="611.13,-23.72 600.82,-21.3 607.37,-29.62 611.13,-23.72"/>
</a>
</g>
</g>
<!-- Node19&#45;&gt;Node5 -->
<g id="edge50_Node000019_Node000005" class="edge">
<title>Node19&#45;&gt;Node5</title>
<g id="a_edge50_Node000019_Node000005"><a xlink:title=" ">
<path fill="none" stroke="#63b8ff" d="M1309.35,-167.55C1308.69,-144.85 1303.76,-86.83 1271.4,-56 1233.28,-19.69 1169.62,-11.79 1131.36,-10.56"/>
<polygon fill="#63b8ff" stroke="#63b8ff" points="1131.46,-7.06 1121.41,-10.39 1131.35,-14.06 1131.46,-7.06"/>
</a>
</g>
</g>
<!-- Node20 -->
<g id="Node000020" class="node">
<title>Node20</title>
<g id="a_Node000020"><a xlink:title=" ">
<polygon fill="#e0e0e0" stroke="#999999" points="1391.15,-132 1337.65,-132 1337.65,-112 1391.15,-112 1391.15,-132"/>
<text xml:space="preserve" text-anchor="middle" x="1364.4" y="-118.5" font-family="Helvetica,sans-Serif" font-size="10.00">iostream</text>
</a>
</g>
</g>
<!-- Node19&#45;&gt;Node20 -->
<g id="edge49_Node000019_Node000020" class="edge">
<title>Node19&#45;&gt;Node20</title>
<g id="a_edge49_Node000019_Node000020"><a xlink:title=" ">
<path fill="none" stroke="#63b8ff" d="M1318.98,-167.59C1326.63,-160.08 1337.55,-149.35 1346.77,-140.3"/>
<polygon fill="#63b8ff" stroke="#63b8ff" points="1349.16,-142.86 1353.85,-133.36 1344.26,-137.87 1349.16,-142.86"/>
</a>
</g>
</g>
</g>
</svg>
