<?xml version="1.0" encoding="UTF-8" standalone="no"?>
<!DOCTYPE svg PUBLIC "-//W3C//DTD SVG 1.1//EN"
 "http://www.w3.org/Graphics/SVG/1.1/DTD/svg11.dtd">
<!-- Generated by graphviz version 14.0.2 (20251019.1705)
 -->
<!-- Title: Benchmark_File_Read Pages: 1 -->
<svg width="1034pt" height="355pt"
 viewBox="0.00 0.00 1034.00 355.00" xmlns="http://www.w3.org/2000/svg" xmlns:xlink="http://www.w3.org/1999/xlink">
<g id="graph0" class="graph" transform="scale(1 1) rotate(0) translate(4 351.24)">
<title>Benchmark_File_Read</title>
<!-- Node1 -->
<g id="Node000001" class="node">
<title>Node1</title>
<g id="a_Node000001"><a xlink:title=" ">
<polygon fill="#999999" stroke="#666666" points="115,-127 0,-127 0,-107 115,-107 115,-127"/>
<text xml:space="preserve" text-anchor="middle" x="57.5" y="-113.5" font-family="Helvetica,sans-Serif" font-size="10.00">Benchmark_File_Read</text>
</a>
</g>
</g>
<!-- Node2 -->
<g id="Node000002" class="node">
<title>Node2</title>
<g id="a_Node000002"><a xlink:href="namespaceLGE_1_1LxFile.html#a495ab310e479d036634c3628390f80a0" target="_top" xlink:title=" ">
<polygon fill="white" stroke="#666666" points="261.12,-203 158.88,-203 158.88,-183 261.12,-183 261.12,-203"/>
<text xml:space="preserve" text-anchor="middle" x="210" y="-189.5" font-family="Helvetica,sans-Serif" font-size="10.00">LGE::LxFile::Delete</text>
</a>
</g>
</g>
<!-- Node1&#45;&gt;Node2 -->
<g id="edge1_Node000001_Node000002" class="edge">
<title>Node1&#45;&gt;Node2</title>
<g id="a_edge1_Node000001_Node000002"><a xlink:title=" ">
<path fill="none" stroke="#63b8ff" d="M79.11,-127.41C104.78,-140.37 148.85,-162.63 178.45,-177.57"/>
<polygon fill="#63b8ff" stroke="#63b8ff" points="176.78,-180.65 187.29,-182.04 179.94,-174.4 176.78,-180.65"/>
</a>
</g>
</g>
<!-- Node11 -->
<g id="Node000011" class="node">
<title>Node11</title>
<g id="a_Node000011"><a xlink:href="namespaceLGE_1_1LxFile.html#a06d0b8c5590da8bc48cf22d321fc4074" target="_top" xlink:title=" ">
<polygon fill="white" stroke="#666666" points="418.88,-336 311.38,-336 311.38,-316 418.88,-316 418.88,-336"/>
<text xml:space="preserve" text-anchor="middle" x="365.12" y="-322.5" font-family="Helvetica,sans-Serif" font-size="10.00">LGE::LxFile::WriteAll</text>
</a>
</g>
</g>
<!-- Node1&#45;&gt;Node11 -->
<g id="edge20_Node000001_Node000011" class="edge">
<title>Node1&#45;&gt;Node11</title>
<g id="a_edge20_Node000001_Node000011"><a xlink:title=" ">
<path fill="none" stroke="#63b8ff" d="M66.91,-127.31C82.28,-145.78 116.55,-185.05 151,-212 213.44,-260.84 233.87,-267 305,-302 311.52,-305.21 318.59,-308.35 325.49,-311.25"/>
<polygon fill="#63b8ff" stroke="#63b8ff" points="324.11,-314.47 334.69,-315 326.75,-307.98 324.11,-314.47"/>
</a>
</g>
</g>
<!-- Node12 -->
<g id="Node000012" class="node">
<title>Node12</title>
<g id="a_Node000012"><a xlink:href="classLGE_1_1Testing_1_1TestUtils.html#a345e283ebede23eaacd1d9c9a1a8fb0d" target="_top" xlink:title=" ">
<polygon fill="white" stroke="#666666" points="269,-32 151,-32 151,0 269,0 269,-32"/>
<text xml:space="preserve" text-anchor="start" x="159" y="-18.5" font-family="Helvetica,sans-Serif" font-size="10.00">LGE::Testing::TestUtils</text>
<text xml:space="preserve" text-anchor="middle" x="210" y="-6.5" font-family="Helvetica,sans-Serif" font-size="10.00">::GetTempDir</text>
</a>
</g>
</g>
<!-- Node1&#45;&gt;Node12 -->
<g id="edge17_Node000001_Node000012" class="edge">
<title>Node1&#45;&gt;Node12</title>
<g id="a_edge17_Node000001_Node000012"><a xlink:title=" ">
<path fill="none" stroke="#63b8ff" d="M70.56,-106.62C87.75,-92.1 120.58,-65.32 151,-46 155.43,-43.18 160.16,-40.41 164.93,-37.74"/>
<polygon fill="#63b8ff" stroke="#63b8ff" points="166.23,-41.02 173.37,-33.18 162.9,-34.86 166.23,-41.02"/>
</a>
</g>
</g>
<!-- Node13 -->
<g id="Node000013" class="node">
<title>Node13</title>
<g id="a_Node000013"><a xlink:href="namespaceLGE_1_1LxFile.html#ac0a61f0e1f49fdcf553f007750c1ba37" target="_top" xlink:title=" ">
<polygon fill="white" stroke="#666666" points="738.88,-98 630.62,-98 630.62,-78 738.88,-78 738.88,-98"/>
<text xml:space="preserve" text-anchor="middle" x="684.75" y="-84.5" font-family="Helvetica,sans-Serif" font-size="10.00">LGE::LxFile::ReadAll</text>
</a>
</g>
</g>
<!-- Node1&#45;&gt;Node13 -->
<g id="edge18_Node000001_Node000013" class="edge">
<title>Node1&#45;&gt;Node13</title>
<g id="a_edge18_Node000001_Node000013"><a xlink:title=" ">
<path fill="none" stroke="#63b8ff" d="M110.65,-106.59C160.35,-97.23 237.43,-84.18 305,-79 415.1,-70.56 543.68,-77.06 619.15,-82.54"/>
<polygon fill="#63b8ff" stroke="#63b8ff" points="618.6,-86.01 628.84,-83.26 619.12,-79.02 618.6,-86.01"/>
</a>
</g>
</g>
<!-- Node3 -->
<g id="Node000003" class="node">
<title>Node3</title>
<g id="a_Node000003"><a xlink:href="classLGE_1_1Log.html#a53f3f4b8797ffd18145739c9e66d690a" target="_top" xlink:title=" ">
<polygon fill="white" stroke="#666666" points="1025.5,-250 941.25,-250 941.25,-230 1025.5,-230 1025.5,-250"/>
<text xml:space="preserve" text-anchor="middle" x="983.38" y="-236.5" font-family="Helvetica,sans-Serif" font-size="10.00">LGE::Log::Error</text>
</a>
</g>
</g>
<!-- Node2&#45;&gt;Node3 -->
<g id="edge2_Node000002_Node000003" class="edge">
<title>Node2&#45;&gt;Node3</title>
<g id="a_edge2_Node000002_Node000003"><a xlink:title=" ">
<path fill="none" stroke="#63b8ff" d="M261.53,-203.33C264.16,-204.7 266.67,-206.25 269,-208 294.15,-226.93 278.37,-252.22 305,-269 387.28,-320.85 425.74,-288 523,-288 523,-288 523,-288 685.75,-288 773.29,-288 873.52,-267.37 932.19,-253.16"/>
<polygon fill="#63b8ff" stroke="#63b8ff" points="933.01,-256.57 941.89,-250.78 931.34,-249.77 933.01,-256.57"/>
</a>
</g>
</g>
<!-- Node4 -->
<g id="Node000004" class="node">
<title>Node4</title>
<g id="a_Node000004"><a xlink:href="classLGE_1_1Log.html#ab0265ee050b8873a2fd31fbdb696ced0" target="_top" xlink:title=" ">
<polygon fill="white" stroke="#666666" points="405,-184 325.25,-184 325.25,-164 405,-164 405,-184"/>
<text xml:space="preserve" text-anchor="middle" x="365.12" y="-170.5" font-family="Helvetica,sans-Serif" font-size="10.00">LGE::Log::Info</text>
</a>
</g>
</g>
<!-- Node2&#45;&gt;Node4 -->
<g id="edge3_Node000002_Node000004" class="edge">
<title>Node2&#45;&gt;Node4</title>
<g id="a_edge3_Node000002_Node000004"><a xlink:title=" ">
<path fill="none" stroke="#63b8ff" d="M261.56,-186.73C278.27,-184.65 296.84,-182.35 313.55,-180.28"/>
<polygon fill="#63b8ff" stroke="#63b8ff" points="313.77,-183.77 323.27,-179.07 312.91,-176.83 313.77,-183.77"/>
</a>
</g>
</g>
<!-- Node5 -->
<g id="Node000005" class="node">
<title>Node5</title>
<g id="a_Node000005"><a xlink:href="namespaceLGE_1_1LxFS.html#a5684a30f3fa2906f4dafed0258a79166" target="_top" xlink:title=" ">
<polygon fill="white" stroke="#666666" points="425.25,-108 305,-108 305,-88 425.25,-88 425.25,-108"/>
<text xml:space="preserve" text-anchor="middle" x="365.12" y="-94.5" font-family="Helvetica,sans-Serif" font-size="10.00">LGE::LxFS::IsInitialized</text>
</a>
</g>
</g>
<!-- Node2&#45;&gt;Node5 -->
<g id="edge4_Node000002_Node000005" class="edge">
<title>Node2&#45;&gt;Node5</title>
<g id="a_edge4_Node000002_Node000005"><a xlink:title=" ">
<path fill="none" stroke="#63b8ff" d="M222.47,-182.75C239.52,-167.89 272.98,-140.17 305,-122 310.8,-118.71 317.15,-115.64 323.46,-112.86"/>
<polygon fill="#63b8ff" stroke="#63b8ff" points="324.66,-116.15 332.54,-109.08 321.97,-109.69 324.66,-116.15"/>
</a>
</g>
</g>
<!-- Node6 -->
<g id="Node000006" class="node">
<title>Node6</title>
<g id="a_Node000006"><a xlink:href="namespaceLGE_1_1VFS.html#abb5d35abfe80efe2f7a07394ad5b706a" target="_top" xlink:title=" ">
<polygon fill="white" stroke="#666666" points="583.38,-231 464.62,-231 464.62,-211 583.38,-211 583.38,-231"/>
<text xml:space="preserve" text-anchor="middle" x="524" y="-217.5" font-family="Helvetica,sans-Serif" font-size="10.00">LGE::VFS::IsReadOnly</text>
</a>
</g>
</g>
<!-- Node2&#45;&gt;Node6 -->
<g id="edge5_Node000002_Node000006" class="edge">
<title>Node2&#45;&gt;Node6</title>
<g id="a_edge5_Node000002_Node000006"><a xlink:title=" ">
<path fill="none" stroke="#63b8ff" d="M261.47,-197.53C313.46,-202.19 394.87,-209.5 453.05,-214.72"/>
<polygon fill="#63b8ff" stroke="#63b8ff" points="452.58,-218.19 462.85,-215.6 453.2,-211.22 452.58,-218.19"/>
</a>
</g>
</g>
<!-- Node9 -->
<g id="Node000009" class="node">
<title>Node9</title>
<g id="a_Node000009"><a xlink:href="namespaceLGE_1_1LxFS.html#a12aeb6699602f14153953dceb4284914" target="_top" xlink:title=" ">
<polygon fill="white" stroke="#666666" points="413.25,-260 317,-260 317,-240 413.25,-240 413.25,-260"/>
<text xml:space="preserve" text-anchor="middle" x="365.12" y="-246.5" font-family="Helvetica,sans-Serif" font-size="10.00">LGE::LxFS::Paths</text>
</a>
</g>
</g>
<!-- Node2&#45;&gt;Node9 -->
<g id="edge10_Node000002_Node000009" class="edge">
<title>Node2&#45;&gt;Node9</title>
<g id="a_edge10_Node000002_Node000009"><a xlink:title=" ">
<path fill="none" stroke="#63b8ff" d="M239.09,-203.45C263.29,-212.47 298.48,-225.57 325.37,-235.57"/>
<polygon fill="#63b8ff" stroke="#63b8ff" points="323.95,-238.78 334.54,-238.99 326.39,-232.22 323.95,-238.78"/>
</a>
</g>
</g>
<!-- Node10 -->
<g id="Node000010" class="node">
<title>Node10</title>
<g id="a_Node000010"><a xlink:href="namespaceLGE_1_1VFS.html#aee891612cc393155878775a61e486c0b" target="_top" xlink:title=" ">
<polygon fill="white" stroke="#666666" points="586.75,-174 461.25,-174 461.25,-154 586.75,-154 586.75,-174"/>
<text xml:space="preserve" text-anchor="middle" x="524" y="-160.5" font-family="Helvetica,sans-Serif" font-size="10.00">LGE::VFS::ToVirtualPath</text>
</a>
</g>
</g>
<!-- Node2&#45;&gt;Node10 -->
<g id="edge11_Node000002_Node000010" class="edge">
<title>Node2&#45;&gt;Node10</title>
<g id="a_edge11_Node000002_Node000010"><a xlink:title=" ">
<path fill="none" stroke="#63b8ff" d="M230.49,-182.53C249.04,-173.21 278.05,-160.24 305,-155 352.51,-145.76 406.91,-147.99 449.48,-152.53"/>
<polygon fill="#63b8ff" stroke="#63b8ff" points="449.04,-156.01 459.37,-153.67 449.83,-149.05 449.04,-156.01"/>
</a>
</g>
</g>
<!-- Node2&#45;&gt;Node11 -->
<g id="edge14_Node000002_Node000011" class="edge">
<title>Node2&#45;&gt;Node11</title>
<g id="a_edge14_Node000002_Node000011"><a xlink:title=" ">
<path fill="none" stroke="#63b8ff" d="M217.51,-203.45C231.25,-224.72 265.21,-273.45 305,-302 309.66,-305.35 314.86,-308.32 320.18,-310.94"/>
<polygon fill="#63b8ff" stroke="#63b8ff" points="318.53,-314.03 329.09,-314.91 321.38,-307.64 318.53,-314.03"/>
</a>
</g>
</g>
<!-- Node7 -->
<g id="Node000007" class="node">
<title>Node7</title>
<g id="a_Node000007"><a xlink:href="namespaceLGE_1_1LxPath.html#ab664986e94ce09aa029f9eb2fcf50133" target="_top" xlink:title=" ">
<polygon fill="white" stroke="#666666" points="746.75,-212 622.75,-212 622.75,-192 746.75,-192 746.75,-212"/>
<text xml:space="preserve" text-anchor="middle" x="684.75" y="-198.5" font-family="Helvetica,sans-Serif" font-size="10.00">LGE::LxPath::IsSubPath</text>
</a>
</g>
</g>
<!-- Node6&#45;&gt;Node7 -->
<g id="edge6_Node000006_Node000007" class="edge">
<title>Node6&#45;&gt;Node7</title>
<g id="a_edge6_Node000006_Node000007"><a xlink:title=" ">
<path fill="none" stroke="#63b8ff" d="M583.66,-213.98C592.64,-212.9 602,-211.78 611.24,-210.68"/>
<polygon fill="#63b8ff" stroke="#63b8ff" points="611.39,-214.19 620.9,-209.52 610.56,-207.24 611.39,-214.19"/>
</a>
</g>
</g>
<!-- Node8 -->
<g id="Node000008" class="node">
<title>Node8</title>
<g id="a_Node000008"><a xlink:href="namespaceLGE_1_1LxPath.html#a314a60ce690c90f4ee0b4e64c0199408" target="_top" xlink:title=" ">
<polygon fill="white" stroke="#666666" points="905.25,-231 782.75,-231 782.75,-211 905.25,-211 905.25,-231"/>
<text xml:space="preserve" text-anchor="middle" x="844" y="-217.5" font-family="Helvetica,sans-Serif" font-size="10.00">LGE::LxPath::Normalize</text>
</a>
</g>
</g>
<!-- Node6&#45;&gt;Node8 -->
<g id="edge9_Node000006_Node000008" class="edge">
<title>Node6&#45;&gt;Node8</title>
<g id="a_edge9_Node000006_Node000008"><a xlink:title=" ">
<path fill="none" stroke="#63b8ff" d="M583.7,-221C636.58,-221 714.49,-221 771.1,-221"/>
<polygon fill="#63b8ff" stroke="#63b8ff" points="770.97,-224.5 780.97,-221 770.97,-217.5 770.97,-224.5"/>
</a>
</g>
</g>
<!-- Node7&#45;&gt;Node8 -->
<g id="edge7_Node000007_Node000008" class="edge">
<title>Node7&#45;&gt;Node8</title>
<g id="a_edge7_Node000007_Node000008"><a xlink:title=" ">
<path fill="none" stroke="#63b8ff" d="M747,-209.4C754.91,-210.36 763.07,-211.34 771.13,-212.32"/>
<polygon fill="#63b8ff" stroke="#63b8ff" points="770.59,-215.78 780.93,-213.5 771.43,-208.83 770.59,-215.78"/>
</a>
</g>
</g>
<!-- Node8&#45;&gt;Node3 -->
<g id="edge8_Node000008_Node000003" class="edge">
<title>Node8&#45;&gt;Node3</title>
<g id="a_edge8_Node000008_Node000003"><a xlink:title=" ">
<path fill="none" stroke="#63b8ff" d="M905.65,-229.39C913.67,-230.5 921.84,-231.63 929.7,-232.72"/>
<polygon fill="#63b8ff" stroke="#63b8ff" points="929.08,-236.16 939.47,-234.07 930.04,-229.23 929.08,-236.16"/>
</a>
</g>
</g>
<!-- Node10&#45;&gt;Node7 -->
<g id="edge12_Node000010_Node000007" class="edge">
<title>Node10&#45;&gt;Node7</title>
<g id="a_edge12_Node000010_Node000007"><a xlink:title=" ">
<path fill="none" stroke="#63b8ff" d="M568.8,-174.48C587.45,-178.95 609.41,-184.21 629.11,-188.92"/>
<polygon fill="#63b8ff" stroke="#63b8ff" points="628.08,-192.27 638.62,-191.2 629.71,-185.47 628.08,-192.27"/>
</a>
</g>
</g>
<!-- Node10&#45;&gt;Node8 -->
<g id="edge13_Node000010_Node000008" class="edge">
<title>Node10&#45;&gt;Node8</title>
<g id="a_edge13_Node000010_Node000008"><a xlink:title=" ">
<path fill="none" stroke="#63b8ff" d="M586.93,-164.51C631.83,-166.04 693.71,-170.54 746.75,-183 769.01,-188.23 792.94,-197.66 811.36,-205.81"/>
<polygon fill="#63b8ff" stroke="#63b8ff" points="809.86,-208.97 820.41,-209.92 812.76,-202.6 809.86,-208.97"/>
</a>
</g>
</g>
<!-- Node11&#45;&gt;Node3 -->
<g id="edge15_Node000011_Node000003" class="edge">
<title>Node11&#45;&gt;Node3</title>
<g id="a_edge15_Node000011_Node000003"><a xlink:title=" ">
<path fill="none" stroke="#63b8ff" d="M419.19,-334.21C518.41,-347.3 737.16,-365.42 905.25,-302 929.44,-292.87 951.83,-273.06 966.19,-258.27"/>
<polygon fill="#63b8ff" stroke="#63b8ff" points="968.37,-261.07 972.64,-251.37 963.25,-256.29 968.37,-261.07"/>
</a>
</g>
</g>
<!-- Node11&#45;&gt;Node6 -->
<g id="edge16_Node000011_Node000006" class="edge">
<title>Node11&#45;&gt;Node6</title>
<g id="a_edge16_Node000011_Node000006"><a xlink:title=" ">
<path fill="none" stroke="#63b8ff" d="M381.74,-315.55C408.99,-297.31 465.44,-259.53 498.12,-237.65"/>
<polygon fill="#63b8ff" stroke="#63b8ff" points="499.83,-240.72 506.19,-232.25 495.93,-234.9 499.83,-240.72"/>
</a>
</g>
</g>
<!-- Node13&#45;&gt;Node3 -->
<g id="edge19_Node000013_Node000003" class="edge">
<title>Node13&#45;&gt;Node3</title>
<g id="a_edge19_Node000013_Node000003"><a xlink:title=" ">
<path fill="none" stroke="#63b8ff" d="M706.14,-98.45C757.38,-124.71 891.77,-193.57 952.19,-224.53"/>
<polygon fill="#63b8ff" stroke="#63b8ff" points="950.39,-227.54 960.89,-228.99 953.59,-221.31 950.39,-227.54"/>
</a>
</g>
</g>
</g>
</svg>
