<?xml version="1.0" encoding="UTF-8" standalone="no"?>
<!DOCTYPE svg PUBLIC "-//W3C//DTD SVG 1.1//EN"
 "http://www.w3.org/Graphics/SVG/1.1/DTD/svg11.dtd">
<!-- Generated by graphviz version 14.0.2 (20251019.1705)
 -->
<!-- Title: Benchmark.cpp Pages: 1 -->
<svg width="643pt" height="140pt"
 viewBox="0.00 0.00 643.00 140.00" xmlns="http://www.w3.org/2000/svg" xmlns:xlink="http://www.w3.org/1999/xlink">
<g id="graph0" class="graph" transform="scale(1 1) rotate(0) translate(4 136)">
<title>Benchmark.cpp</title>
<!-- Node1 -->
<g id="Node000001" class="node">
<title>Node1</title>
<g id="a_Node000001"><a xlink:title=" ">
<polygon fill="#999999" stroke="#666666" points="443.62,-132 359.38,-132 359.38,-112 443.62,-112 443.62,-132"/>
<text xml:space="preserve" text-anchor="middle" x="401.5" y="-118.5" font-family="Helvetica,sans-Serif" font-size="10.00">Benchmark.cpp</text>
</a>
</g>
</g>
<!-- Node2 -->
<g id="Node000002" class="node">
<title>Node2</title>
<g id="a_Node000002"><a xlink:href="Benchmark_8h.html" target="_top" xlink:title=" ">
<polygon fill="white" stroke="#666666" points="215.75,-76 87.25,-76 87.25,-56 215.75,-56 215.75,-76"/>
<text xml:space="preserve" text-anchor="middle" x="151.5" y="-62.5" font-family="Helvetica,sans-Serif" font-size="10.00">LGE/testing/Benchmark.h</text>
</a>
</g>
</g>
<!-- Node1&#45;&gt;Node2 -->
<g id="edge1_Node000001_Node000002" class="edge">
<title>Node1&#45;&gt;Node2</title>
<g id="a_edge1_Node000001_Node000002"><a xlink:title=" ">
<path fill="none" stroke="#63b8ff" d="M359.09,-111.84C317.01,-102.75 252.32,-88.78 206.35,-78.85"/>
<polygon fill="#63b8ff" stroke="#63b8ff" points="207.37,-75.49 196.86,-76.8 205.89,-82.33 207.37,-75.49"/>
</a>
</g>
</g>
<!-- Node8 -->
<g id="Node000008" class="node">
<title>Node8</title>
<g id="a_Node000008"><a xlink:href="Log_8h.html" target="_top" xlink:title=" ">
<polygon fill="white" stroke="#666666" points="317.62,-76 233.38,-76 233.38,-56 317.62,-56 317.62,-76"/>
<text xml:space="preserve" text-anchor="middle" x="275.5" y="-62.5" font-family="Helvetica,sans-Serif" font-size="10.00">LGE/core/Log.h</text>
</a>
</g>
</g>
<!-- Node1&#45;&gt;Node8 -->
<g id="edge7_Node000001_Node000008" class="edge">
<title>Node1&#45;&gt;Node8</title>
<g id="a_edge7_Node000001_Node000008"><a xlink:title=" ">
<path fill="none" stroke="#63b8ff" d="M379.55,-111.59C359.8,-103.13 330.51,-90.58 308.03,-80.94"/>
<polygon fill="#63b8ff" stroke="#63b8ff" points="309.58,-77.8 299.01,-77.08 306.82,-84.23 309.58,-77.8"/>
</a>
</g>
</g>
<!-- Node9 -->
<g id="Node000009" class="node">
<title>Node9</title>
<g id="a_Node000009"><a xlink:title=" ">
<polygon fill="#e0e0e0" stroke="#999999" points="370.25,-20 316.75,-20 316.75,0 370.25,0 370.25,-20"/>
<text xml:space="preserve" text-anchor="middle" x="343.5" y="-6.5" font-family="Helvetica,sans-Serif" font-size="10.00">iostream</text>
</a>
</g>
</g>
<!-- Node1&#45;&gt;Node9 -->
<g id="edge13_Node000001_Node000009" class="edge">
<title>Node1&#45;&gt;Node9</title>
<g id="a_edge13_Node000001_Node000009"><a xlink:title=" ">
<path fill="none" stroke="#63b8ff" d="M392.12,-111.77C383.84,-103.18 371.97,-89.67 364.5,-76 356.83,-61.96 351.41,-44.67 348,-31.45"/>
<polygon fill="#63b8ff" stroke="#63b8ff" points="351.41,-30.66 345.69,-21.74 344.6,-32.28 351.41,-30.66"/>
</a>
</g>
</g>
<!-- Node10 -->
<g id="Node000010" class="node">
<title>Node10</title>
<g id="a_Node000010"><a xlink:title=" ">
<polygon fill="#e0e0e0" stroke="#999999" points="429.38,-76 373.62,-76 373.62,-56 429.38,-56 429.38,-76"/>
<text xml:space="preserve" text-anchor="middle" x="401.5" y="-62.5" font-family="Helvetica,sans-Serif" font-size="10.00">algorithm</text>
</a>
</g>
</g>
<!-- Node1&#45;&gt;Node10 -->
<g id="edge10_Node000001_Node000010" class="edge">
<title>Node1&#45;&gt;Node10</title>
<g id="a_edge10_Node000001_Node000010"><a xlink:title=" ">
<path fill="none" stroke="#63b8ff" d="M401.5,-111.59C401.5,-105.01 401.5,-95.96 401.5,-87.73"/>
<polygon fill="#63b8ff" stroke="#63b8ff" points="405,-87.81 401.5,-77.81 398,-87.81 405,-87.81"/>
</a>
</g>
</g>
<!-- Node11 -->
<g id="Node000011" class="node">
<title>Node11</title>
<g id="a_Node000011"><a xlink:title=" ">
<polygon fill="#e0e0e0" stroke="#999999" points="497.75,-76 447.25,-76 447.25,-56 497.75,-56 497.75,-76"/>
<text xml:space="preserve" text-anchor="middle" x="472.5" y="-62.5" font-family="Helvetica,sans-Serif" font-size="10.00">numeric</text>
</a>
</g>
</g>
<!-- Node1&#45;&gt;Node11 -->
<g id="edge11_Node000001_Node000011" class="edge">
<title>Node1&#45;&gt;Node11</title>
<g id="a_edge11_Node000001_Node000011"><a xlink:title=" ">
<path fill="none" stroke="#63b8ff" d="M413.87,-111.59C424.15,-103.77 439.02,-92.46 451.21,-83.19"/>
<polygon fill="#63b8ff" stroke="#63b8ff" points="453.23,-86.05 459.07,-77.21 448.99,-80.48 453.23,-86.05"/>
</a>
</g>
</g>
<!-- Node12 -->
<g id="Node000012" class="node">
<title>Node12</title>
<g id="a_Node000012"><a xlink:title=" ">
<polygon fill="#e0e0e0" stroke="#999999" points="565.38,-76 515.62,-76 515.62,-56 565.38,-56 565.38,-76"/>
<text xml:space="preserve" text-anchor="middle" x="540.5" y="-62.5" font-family="Helvetica,sans-Serif" font-size="10.00">iomanip</text>
</a>
</g>
</g>
<!-- Node1&#45;&gt;Node12 -->
<g id="edge12_Node000001_Node000012" class="edge">
<title>Node1&#45;&gt;Node12</title>
<g id="a_edge12_Node000001_Node000012"><a xlink:title=" ">
<path fill="none" stroke="#63b8ff" d="M425.71,-111.59C447.8,-103.01 480.7,-90.23 505.62,-80.55"/>
<polygon fill="#63b8ff" stroke="#63b8ff" points="506.63,-83.91 514.69,-77.03 504.1,-77.39 506.63,-83.91"/>
</a>
</g>
</g>
<!-- Node13 -->
<g id="Node000013" class="node">
<title>Node13</title>
<g id="a_Node000013"><a xlink:title=" ">
<polygon fill="#e0e0e0" stroke="#999999" points="635.12,-76 583.88,-76 583.88,-56 635.12,-56 635.12,-76"/>
<text xml:space="preserve" text-anchor="middle" x="609.5" y="-62.5" font-family="Helvetica,sans-Serif" font-size="10.00">sstream</text>
</a>
</g>
</g>
<!-- Node1&#45;&gt;Node13 -->
<g id="edge14_Node000001_Node000013" class="edge">
<title>Node1&#45;&gt;Node13</title>
<g id="a_edge14_Node000001_Node000013"><a xlink:title=" ">
<path fill="none" stroke="#63b8ff" d="M437.73,-111.59C475.49,-101.79 534.37,-86.51 572.44,-76.62"/>
<polygon fill="#63b8ff" stroke="#63b8ff" points="573.27,-80.02 582.07,-74.12 571.51,-73.25 573.27,-80.02"/>
</a>
</g>
</g>
<!-- Node3 -->
<g id="Node000003" class="node">
<title>Node3</title>
<g id="a_Node000003"><a xlink:title=" ">
<polygon fill="#e0e0e0" stroke="#999999" points="294.5,-20 254.5,-20 254.5,0 294.5,0 294.5,-20"/>
<text xml:space="preserve" text-anchor="middle" x="274.5" y="-6.5" font-family="Helvetica,sans-Serif" font-size="10.00">string</text>
</a>
</g>
</g>
<!-- Node2&#45;&gt;Node3 -->
<g id="edge2_Node000002_Node000003" class="edge">
<title>Node2&#45;&gt;Node3</title>
<g id="a_edge2_Node000002_Node000003"><a xlink:title=" ">
<path fill="none" stroke="#63b8ff" d="M172.92,-55.59C192.47,-47.01 221.59,-34.23 243.64,-24.55"/>
<polygon fill="#63b8ff" stroke="#63b8ff" points="245,-27.77 252.75,-20.55 242.19,-21.36 245,-27.77"/>
</a>
</g>
</g>
<!-- Node4 -->
<g id="Node000004" class="node">
<title>Node4</title>
<g id="a_Node000004"><a xlink:title=" ">
<polygon fill="#e0e0e0" stroke="#999999" points="43,-20 0,-20 0,0 43,0 43,-20"/>
<text xml:space="preserve" text-anchor="middle" x="21.5" y="-6.5" font-family="Helvetica,sans-Serif" font-size="10.00">vector</text>
</a>
</g>
</g>
<!-- Node2&#45;&gt;Node4 -->
<g id="edge3_Node000002_Node000004" class="edge">
<title>Node2&#45;&gt;Node4</title>
<g id="a_edge3_Node000002_Node000004"><a xlink:title=" ">
<path fill="none" stroke="#63b8ff" d="M128.86,-55.59C108.13,-46.99 77.23,-34.15 53.9,-24.46"/>
<polygon fill="#63b8ff" stroke="#63b8ff" points="55.43,-21.3 44.85,-20.7 52.74,-27.77 55.43,-21.3"/>
</a>
</g>
</g>
<!-- Node5 -->
<g id="Node000005" class="node">
<title>Node5</title>
<g id="a_Node000005"><a xlink:title=" ">
<polygon fill="#e0e0e0" stroke="#999999" points="106.12,-20 60.88,-20 60.88,0 106.12,0 106.12,-20"/>
<text xml:space="preserve" text-anchor="middle" x="83.5" y="-6.5" font-family="Helvetica,sans-Serif" font-size="10.00">chrono</text>
</a>
</g>
</g>
<!-- Node2&#45;&gt;Node5 -->
<g id="edge4_Node000002_Node000005" class="edge">
<title>Node2&#45;&gt;Node5</title>
<g id="a_edge4_Node000002_Node000005"><a xlink:title=" ">
<path fill="none" stroke="#63b8ff" d="M139.66,-55.59C129.81,-47.77 115.57,-36.46 103.89,-27.19"/>
<polygon fill="#63b8ff" stroke="#63b8ff" points="106.4,-24.72 96.39,-21.24 102.05,-30.2 106.4,-24.72"/>
</a>
</g>
</g>
<!-- Node6 -->
<g id="Node000006" class="node">
<title>Node6</title>
<g id="a_Node000006"><a xlink:title=" ">
<polygon fill="#e0e0e0" stroke="#999999" points="182.5,-20 124.5,-20 124.5,0 182.5,0 182.5,-20"/>
<text xml:space="preserve" text-anchor="middle" x="153.5" y="-6.5" font-family="Helvetica,sans-Serif" font-size="10.00">functional</text>
</a>
</g>
</g>
<!-- Node2&#45;&gt;Node6 -->
<g id="edge5_Node000002_Node000006" class="edge">
<title>Node2&#45;&gt;Node6</title>
<g id="a_edge5_Node000002_Node000006"><a xlink:title=" ">
<path fill="none" stroke="#63b8ff" d="M151.85,-55.59C152.09,-49.01 152.43,-39.96 152.73,-31.73"/>
<polygon fill="#63b8ff" stroke="#63b8ff" points="156.23,-31.93 153.1,-21.81 149.23,-31.67 156.23,-31.93"/>
</a>
</g>
</g>
<!-- Node7 -->
<g id="Node000007" class="node">
<title>Node7</title>
<g id="a_Node000007"><a xlink:title=" ">
<polygon fill="#e0e0e0" stroke="#999999" points="234.88,-20 200.12,-20 200.12,0 234.88,0 234.88,-20"/>
<text xml:space="preserve" text-anchor="middle" x="217.5" y="-6.5" font-family="Helvetica,sans-Serif" font-size="10.00">map</text>
</a>
</g>
</g>
<!-- Node2&#45;&gt;Node7 -->
<g id="edge6_Node000002_Node000007" class="edge">
<title>Node2&#45;&gt;Node7</title>
<g id="a_edge6_Node000002_Node000007"><a xlink:title=" ">
<path fill="none" stroke="#63b8ff" d="M163,-55.59C172.46,-47.85 186.1,-36.69 197.37,-27.47"/>
<polygon fill="#63b8ff" stroke="#63b8ff" points="199.44,-30.3 204.96,-21.26 195.01,-24.88 199.44,-30.3"/>
</a>
</g>
</g>
<!-- Node8&#45;&gt;Node3 -->
<g id="edge9_Node000008_Node000003" class="edge">
<title>Node8&#45;&gt;Node3</title>
<g id="a_edge9_Node000008_Node000003"><a xlink:title=" ">
<path fill="none" stroke="#63b8ff" d="M275.33,-55.59C275.2,-49.01 275.04,-39.96 274.88,-31.73"/>
<polygon fill="#63b8ff" stroke="#63b8ff" points="278.38,-31.75 274.7,-21.81 271.39,-31.87 278.38,-31.75"/>
</a>
</g>
</g>
<!-- Node8&#45;&gt;Node9 -->
<g id="edge8_Node000008_Node000009" class="edge">
<title>Node8&#45;&gt;Node9</title>
<g id="a_edge8_Node000008_Node000009"><a xlink:title=" ">
<path fill="none" stroke="#63b8ff" d="M287.34,-55.59C297.19,-47.77 311.43,-36.46 323.11,-27.19"/>
<polygon fill="#63b8ff" stroke="#63b8ff" points="324.95,-30.2 330.61,-21.24 320.6,-24.72 324.95,-30.2"/>
</a>
</g>
</g>
</g>
</svg>
