<?xml version="1.0" encoding="UTF-8" standalone="no"?>
<!DOCTYPE svg PUBLIC "-//W3C//DTD SVG 1.1//EN"
 "http://www.w3.org/Graphics/SVG/1.1/DTD/svg11.dtd">
<!-- Generated by graphviz version 14.0.2 (20251019.1705)
 -->
<!-- Title: Benchmark_File_Exists Pages: 1 -->
<svg width="1038pt" height="305pt"
 viewBox="0.00 0.00 1038.00 305.00" xmlns="http://www.w3.org/2000/svg" xmlns:xlink="http://www.w3.org/1999/xlink">
<g id="graph0" class="graph" transform="scale(1 1) rotate(0) translate(4 301.47)">
<title>Benchmark_File_Exists</title>
<!-- Node1 -->
<g id="Node000001" class="node">
<title>Node1</title>
<g id="a_Node000001"><a xlink:title=" ">
<polygon fill="#999999" stroke="#666666" points="119.5,-89 0,-89 0,-69 119.5,-69 119.5,-89"/>
<text xml:space="preserve" text-anchor="middle" x="59.75" y="-75.5" font-family="Helvetica,sans-Serif" font-size="10.00">Benchmark_File_Exists</text>
</a>
</g>
</g>
<!-- Node2 -->
<g id="Node000002" class="node">
<title>Node2</title>
<g id="a_Node000002"><a xlink:href="namespaceLGE_1_1LxFile.html#a495ab310e479d036634c3628390f80a0" target="_top" xlink:title=" ">
<polygon fill="white" stroke="#666666" points="265.62,-174 163.38,-174 163.38,-154 265.62,-154 265.62,-174"/>
<text xml:space="preserve" text-anchor="middle" x="214.5" y="-160.5" font-family="Helvetica,sans-Serif" font-size="10.00">LGE::LxFile::Delete</text>
</a>
</g>
</g>
<!-- Node1&#45;&gt;Node2 -->
<g id="edge1_Node000001_Node000002" class="edge">
<title>Node1&#45;&gt;Node2</title>
<g id="a_edge1_Node000001_Node000002"><a xlink:title=" ">
<path fill="none" stroke="#63b8ff" d="M79.48,-89.42C105.96,-104.16 154.55,-131.2 185.38,-148.35"/>
<polygon fill="#63b8ff" stroke="#63b8ff" points="183.33,-151.22 193.77,-153.02 186.73,-145.1 183.33,-151.22"/>
</a>
</g>
</g>
<!-- Node11 -->
<g id="Node000011" class="node">
<title>Node11</title>
<g id="a_Node000011"><a xlink:href="namespaceLGE_1_1LxFile.html#a06d0b8c5590da8bc48cf22d321fc4074" target="_top" xlink:title=" ">
<polygon fill="white" stroke="#666666" points="423.38,-79 315.88,-79 315.88,-59 423.38,-59 423.38,-79"/>
<text xml:space="preserve" text-anchor="middle" x="369.62" y="-65.5" font-family="Helvetica,sans-Serif" font-size="10.00">LGE::LxFile::WriteAll</text>
</a>
</g>
</g>
<!-- Node1&#45;&gt;Node11 -->
<g id="edge19_Node000001_Node000011" class="edge">
<title>Node1&#45;&gt;Node11</title>
<g id="a_edge19_Node000001_Node000011"><a xlink:title=" ">
<path fill="none" stroke="#63b8ff" d="M119.95,-80.66C162.65,-81.45 221.68,-81.72 273.5,-79 283.61,-78.47 294.3,-77.63 304.71,-76.65"/>
<polygon fill="#63b8ff" stroke="#63b8ff" points="304.76,-80.16 314.36,-75.69 304.07,-73.19 304.76,-80.16"/>
</a>
</g>
</g>
<!-- Node12 -->
<g id="Node000012" class="node">
<title>Node12</title>
<g id="a_Node000012"><a xlink:href="namespaceLGE_1_1LxFile.html#a11e62876b312a11b881b484bb3a5ee71" target="_top" xlink:title=" ">
<polygon fill="white" stroke="#666666" points="265.25,-70 163.75,-70 163.75,-50 265.25,-50 265.25,-70"/>
<text xml:space="preserve" text-anchor="middle" x="214.5" y="-56.5" font-family="Helvetica,sans-Serif" font-size="10.00">LGE::LxFile::Exists</text>
</a>
</g>
</g>
<!-- Node1&#45;&gt;Node12 -->
<g id="edge17_Node000001_Node000012" class="edge">
<title>Node1&#45;&gt;Node12</title>
<g id="a_edge17_Node000001_Node000012"><a xlink:title=" ">
<path fill="none" stroke="#63b8ff" d="M119.81,-71.65C130.41,-70.34 141.49,-68.96 152.15,-67.63"/>
<polygon fill="#63b8ff" stroke="#63b8ff" points="152.53,-71.11 162.02,-66.4 151.67,-64.16 152.53,-71.11"/>
</a>
</g>
</g>
<!-- Node13 -->
<g id="Node000013" class="node">
<title>Node13</title>
<g id="a_Node000013"><a xlink:href="classLGE_1_1Testing_1_1TestUtils.html#a345e283ebede23eaacd1d9c9a1a8fb0d" target="_top" xlink:title=" ">
<polygon fill="white" stroke="#666666" points="273.5,-32 155.5,-32 155.5,0 273.5,0 273.5,-32"/>
<text xml:space="preserve" text-anchor="start" x="163.5" y="-18.5" font-family="Helvetica,sans-Serif" font-size="10.00">LGE::Testing::TestUtils</text>
<text xml:space="preserve" text-anchor="middle" x="214.5" y="-6.5" font-family="Helvetica,sans-Serif" font-size="10.00">::GetTempDir</text>
</a>
</g>
</g>
<!-- Node1&#45;&gt;Node13 -->
<g id="edge18_Node000001_Node000013" class="edge">
<title>Node1&#45;&gt;Node13</title>
<g id="a_edge18_Node000001_Node000013"><a xlink:title=" ">
<path fill="none" stroke="#63b8ff" d="M85.97,-68.6C106.9,-59.97 137.31,-47.42 163.19,-36.75"/>
<polygon fill="#63b8ff" stroke="#63b8ff" points="164.28,-40.09 172.19,-33.04 161.61,-33.62 164.28,-40.09"/>
</a>
</g>
</g>
<!-- Node3 -->
<g id="Node000003" class="node">
<title>Node3</title>
<g id="a_Node000003"><a xlink:href="classLGE_1_1Log.html#a53f3f4b8797ffd18145739c9e66d690a" target="_top" xlink:title=" ">
<polygon fill="white" stroke="#666666" points="1030,-193 945.75,-193 945.75,-173 1030,-173 1030,-193"/>
<text xml:space="preserve" text-anchor="middle" x="987.88" y="-179.5" font-family="Helvetica,sans-Serif" font-size="10.00">LGE::Log::Error</text>
</a>
</g>
</g>
<!-- Node2&#45;&gt;Node3 -->
<g id="edge2_Node000002_Node000003" class="edge">
<title>Node2&#45;&gt;Node3</title>
<g id="a_edge2_Node000002_Node000003"><a xlink:title=" ">
<path fill="none" stroke="#63b8ff" d="M222.35,-174.35C236.2,-194.34 269.61,-238.15 309.5,-259 396.66,-304.56 429.15,-297 527.5,-297 527.5,-297 527.5,-297 690.25,-297 797.64,-297 913.21,-231.09 962.44,-199.5"/>
<polygon fill="#63b8ff" stroke="#63b8ff" points="964.18,-202.54 970.64,-194.15 960.35,-196.68 964.18,-202.54"/>
</a>
</g>
</g>
<!-- Node4 -->
<g id="Node000004" class="node">
<title>Node4</title>
<g id="a_Node000004"><a xlink:href="classLGE_1_1Log.html#ab0265ee050b8873a2fd31fbdb696ced0" target="_top" xlink:title=" ">
<polygon fill="white" stroke="#666666" points="409.5,-231 329.75,-231 329.75,-211 409.5,-211 409.5,-231"/>
<text xml:space="preserve" text-anchor="middle" x="369.62" y="-217.5" font-family="Helvetica,sans-Serif" font-size="10.00">LGE::Log::Info</text>
</a>
</g>
</g>
<!-- Node2&#45;&gt;Node4 -->
<g id="edge3_Node000002_Node000004" class="edge">
<title>Node2&#45;&gt;Node4</title>
<g id="a_edge3_Node000002_Node000004"><a xlink:title=" ">
<path fill="none" stroke="#63b8ff" d="M240.05,-174.5C258.9,-182.42 285.67,-193.37 309.5,-202 314.19,-203.7 319.11,-205.4 324.03,-207.06"/>
<polygon fill="#63b8ff" stroke="#63b8ff" points="322.68,-210.3 333.27,-210.1 324.87,-203.65 322.68,-210.3"/>
</a>
</g>
</g>
<!-- Node5 -->
<g id="Node000005" class="node">
<title>Node5</title>
<g id="a_Node000005"><a xlink:href="namespaceLGE_1_1LxFS.html#a5684a30f3fa2906f4dafed0258a79166" target="_top" xlink:title=" ">
<polygon fill="white" stroke="#666666" points="429.75,-193 309.5,-193 309.5,-173 429.75,-173 429.75,-193"/>
<text xml:space="preserve" text-anchor="middle" x="369.62" y="-179.5" font-family="Helvetica,sans-Serif" font-size="10.00">LGE::LxFS::IsInitialized</text>
</a>
</g>
</g>
<!-- Node2&#45;&gt;Node5 -->
<g id="edge4_Node000002_Node000005" class="edge">
<title>Node2&#45;&gt;Node5</title>
<g id="a_edge4_Node000002_Node000005"><a xlink:title=" ">
<path fill="none" stroke="#63b8ff" d="M266.06,-170.27C276.28,-171.54 287.19,-172.9 297.95,-174.23"/>
<polygon fill="#63b8ff" stroke="#63b8ff" points="297.22,-177.67 307.57,-175.42 298.08,-170.72 297.22,-177.67"/>
</a>
</g>
</g>
<!-- Node6 -->
<g id="Node000006" class="node">
<title>Node6</title>
<g id="a_Node000006"><a xlink:href="namespaceLGE_1_1VFS.html#abb5d35abfe80efe2f7a07394ad5b706a" target="_top" xlink:title=" ">
<polygon fill="white" stroke="#666666" points="587.88,-155 469.12,-155 469.12,-135 587.88,-135 587.88,-155"/>
<text xml:space="preserve" text-anchor="middle" x="528.5" y="-141.5" font-family="Helvetica,sans-Serif" font-size="10.00">LGE::VFS::IsReadOnly</text>
</a>
</g>
</g>
<!-- Node2&#45;&gt;Node6 -->
<g id="edge5_Node000002_Node000006" class="edge">
<title>Node2&#45;&gt;Node6</title>
<g id="a_edge5_Node000002_Node000006"><a xlink:title=" ">
<path fill="none" stroke="#63b8ff" d="M265.97,-160.93C317.96,-157.76 399.37,-152.8 457.55,-149.26"/>
<polygon fill="#63b8ff" stroke="#63b8ff" points="457.58,-152.76 467.34,-148.66 457.15,-145.78 457.58,-152.76"/>
</a>
</g>
</g>
<!-- Node9 -->
<g id="Node000009" class="node">
<title>Node9</title>
<g id="a_Node000009"><a xlink:href="namespaceLGE_1_1LxFS.html#a12aeb6699602f14153953dceb4284914" target="_top" xlink:title=" ">
<polygon fill="white" stroke="#666666" points="417.75,-117 321.5,-117 321.5,-97 417.75,-97 417.75,-117"/>
<text xml:space="preserve" text-anchor="middle" x="369.62" y="-103.5" font-family="Helvetica,sans-Serif" font-size="10.00">LGE::LxFS::Paths</text>
</a>
</g>
</g>
<!-- Node2&#45;&gt;Node9 -->
<g id="edge10_Node000002_Node000009" class="edge">
<title>Node2&#45;&gt;Node9</title>
<g id="a_edge10_Node000002_Node000009"><a xlink:title=" ">
<path fill="none" stroke="#63b8ff" d="M243.59,-153.55C267.79,-144.53 302.98,-131.43 329.87,-121.43"/>
<polygon fill="#63b8ff" stroke="#63b8ff" points="330.89,-124.78 339.04,-118.01 328.45,-118.22 330.89,-124.78"/>
</a>
</g>
</g>
<!-- Node10 -->
<g id="Node000010" class="node">
<title>Node10</title>
<g id="a_Node000010"><a xlink:href="namespaceLGE_1_1VFS.html#aee891612cc393155878775a61e486c0b" target="_top" xlink:title=" ">
<polygon fill="white" stroke="#666666" points="591.25,-231 465.75,-231 465.75,-211 591.25,-211 591.25,-231"/>
<text xml:space="preserve" text-anchor="middle" x="528.5" y="-217.5" font-family="Helvetica,sans-Serif" font-size="10.00">LGE::VFS::ToVirtualPath</text>
</a>
</g>
</g>
<!-- Node2&#45;&gt;Node10 -->
<g id="edge11_Node000002_Node000010" class="edge">
<title>Node2&#45;&gt;Node10</title>
<g id="a_edge11_Node000002_Node000010"><a xlink:title=" ">
<path fill="none" stroke="#63b8ff" d="M224,-174.45C239.04,-192.02 272.3,-226.84 309.5,-240 368.15,-260.74 440.96,-247.18 485.82,-234.71"/>
<polygon fill="#63b8ff" stroke="#63b8ff" points="486.79,-238.07 495.42,-231.92 484.84,-231.35 486.79,-238.07"/>
</a>
</g>
</g>
<!-- Node2&#45;&gt;Node11 -->
<g id="edge14_Node000002_Node000011" class="edge">
<title>Node2&#45;&gt;Node11</title>
<g id="a_edge14_Node000002_Node000011"><a xlink:title=" ">
<path fill="none" stroke="#63b8ff" d="M227.19,-153.63C248.22,-135.14 291.87,-97.53 309.5,-88 312.35,-86.46 315.34,-85.02 318.4,-83.68"/>
<polygon fill="#63b8ff" stroke="#63b8ff" points="319.56,-86.99 327.58,-80.05 316.99,-80.48 319.56,-86.99"/>
</a>
</g>
</g>
<!-- Node7 -->
<g id="Node000007" class="node">
<title>Node7</title>
<g id="a_Node000007"><a xlink:href="namespaceLGE_1_1LxPath.html#ab664986e94ce09aa029f9eb2fcf50133" target="_top" xlink:title=" ">
<polygon fill="white" stroke="#666666" points="751.25,-193 627.25,-193 627.25,-173 751.25,-173 751.25,-193"/>
<text xml:space="preserve" text-anchor="middle" x="689.25" y="-179.5" font-family="Helvetica,sans-Serif" font-size="10.00">LGE::LxPath::IsSubPath</text>
</a>
</g>
</g>
<!-- Node6&#45;&gt;Node7 -->
<g id="edge6_Node000006_Node000007" class="edge">
<title>Node6&#45;&gt;Node7</title>
<g id="a_edge6_Node000006_Node000007"><a xlink:title=" ">
<path fill="none" stroke="#63b8ff" d="M573.3,-155.48C591.95,-159.95 613.91,-165.21 633.61,-169.92"/>
<polygon fill="#63b8ff" stroke="#63b8ff" points="632.58,-173.27 643.12,-172.2 634.21,-166.47 632.58,-173.27"/>
</a>
</g>
</g>
<!-- Node8 -->
<g id="Node000008" class="node">
<title>Node8</title>
<g id="a_Node000008"><a xlink:href="namespaceLGE_1_1LxPath.html#a314a60ce690c90f4ee0b4e64c0199408" target="_top" xlink:title=" ">
<polygon fill="white" stroke="#666666" points="909.75,-193 787.25,-193 787.25,-173 909.75,-173 909.75,-193"/>
<text xml:space="preserve" text-anchor="middle" x="848.5" y="-179.5" font-family="Helvetica,sans-Serif" font-size="10.00">LGE::LxPath::Normalize</text>
</a>
</g>
</g>
<!-- Node6&#45;&gt;Node8 -->
<g id="edge9_Node000006_Node000008" class="edge">
<title>Node6&#45;&gt;Node8</title>
<g id="a_edge9_Node000006_Node000008"><a xlink:title=" ">
<path fill="none" stroke="#63b8ff" d="M588.06,-148.26C632.88,-151.19 696.16,-156.23 751.25,-164 763.52,-165.73 776.58,-168.01 789,-170.39"/>
<polygon fill="#63b8ff" stroke="#63b8ff" points="788.22,-173.8 798.7,-172.3 789.57,-166.93 788.22,-173.8"/>
</a>
</g>
</g>
<!-- Node7&#45;&gt;Node8 -->
<g id="edge7_Node000007_Node000008" class="edge">
<title>Node7&#45;&gt;Node8</title>
<g id="a_edge7_Node000007_Node000008"><a xlink:title=" ">
<path fill="none" stroke="#63b8ff" d="M751.5,-183C759.41,-183 767.57,-183 775.63,-183"/>
<polygon fill="#63b8ff" stroke="#63b8ff" points="775.42,-186.5 785.42,-183 775.42,-179.5 775.42,-186.5"/>
</a>
</g>
</g>
<!-- Node8&#45;&gt;Node3 -->
<g id="edge8_Node000008_Node000003" class="edge">
<title>Node8&#45;&gt;Node3</title>
<g id="a_edge8_Node000008_Node000003"><a xlink:title=" ">
<path fill="none" stroke="#63b8ff" d="M910.15,-183C918.17,-183 926.34,-183 934.2,-183"/>
<polygon fill="#63b8ff" stroke="#63b8ff" points="933.95,-186.5 943.95,-183 933.95,-179.5 933.95,-186.5"/>
</a>
</g>
</g>
<!-- Node10&#45;&gt;Node7 -->
<g id="edge12_Node000010_Node000007" class="edge">
<title>Node10&#45;&gt;Node7</title>
<g id="a_edge12_Node000010_Node000007"><a xlink:title=" ">
<path fill="none" stroke="#63b8ff" d="M573.3,-210.52C591.95,-206.05 613.91,-200.79 633.61,-196.08"/>
<polygon fill="#63b8ff" stroke="#63b8ff" points="634.21,-199.53 643.12,-193.8 632.58,-192.73 634.21,-199.53"/>
</a>
</g>
</g>
<!-- Node10&#45;&gt;Node8 -->
<g id="edge13_Node000010_Node000008" class="edge">
<title>Node10&#45;&gt;Node8</title>
<g id="a_edge13_Node000010_Node000008"><a xlink:title=" ">
<path fill="none" stroke="#63b8ff" d="M591.36,-217.52C635.95,-214.57 697.49,-209.59 751.25,-202 763.52,-200.27 776.58,-197.99 789,-195.61"/>
<polygon fill="#63b8ff" stroke="#63b8ff" points="789.57,-199.07 798.7,-193.7 788.22,-192.2 789.57,-199.07"/>
</a>
</g>
</g>
<!-- Node11&#45;&gt;Node3 -->
<g id="edge15_Node000011_Node000003" class="edge">
<title>Node11&#45;&gt;Node3</title>
<g id="a_edge15_Node000011_Node000003"><a xlink:title=" ">
<path fill="none" stroke="#63b8ff" d="M423.65,-77.13C520.56,-92.26 732.6,-126.62 909.75,-164 918.1,-165.76 926.92,-167.78 935.49,-169.83"/>
<polygon fill="#63b8ff" stroke="#63b8ff" points="934.55,-173.21 945.09,-172.17 936.21,-166.4 934.55,-173.21"/>
</a>
</g>
</g>
<!-- Node11&#45;&gt;Node6 -->
<g id="edge16_Node000011_Node000006" class="edge">
<title>Node11&#45;&gt;Node6</title>
<g id="a_edge16_Node000011_Node000006"><a xlink:title=" ">
<path fill="none" stroke="#63b8ff" d="M407.36,-79.44C414.88,-81.95 422.66,-84.84 429.75,-88 455.61,-99.53 483.32,-116.14 502.62,-128.46"/>
<polygon fill="#63b8ff" stroke="#63b8ff" points="500.58,-131.31 510.87,-133.81 504.38,-125.43 500.58,-131.31"/>
</a>
</g>
</g>
</g>
</svg>
