<?xml version="1.0" encoding="UTF-8" standalone="no"?>
<!DOCTYPE svg PUBLIC "-//W3C//DTD SVG 1.1//EN"
 "http://www.w3.org/Graphics/SVG/1.1/DTD/svg11.dtd">
<!-- Generated by graphviz version 14.0.2 (20251019.1705)
 -->
<!-- Title: Benchmark_Registry_Scan_Small Pages: 1 -->
<svg width="1144pt" height="861pt"
 viewBox="0.00 0.00 1144.00 861.00" xmlns="http://www.w3.org/2000/svg" xmlns:xlink="http://www.w3.org/1999/xlink">
<g id="graph0" class="graph" transform="scale(1 1) rotate(0) translate(4 857.16)">
<title>Benchmark_Registry_Scan_Small</title>
<!-- Node1 -->
<g id="Node000001" class="node">
<title>Node1</title>
<g id="a_Node000001"><a xlink:title=" ">
<polygon fill="#999999" stroke="#666666" points="107.5,-473.16 0,-473.16 0,-441.16 107.5,-441.16 107.5,-473.16"/>
<text xml:space="preserve" text-anchor="start" x="8" y="-459.66" font-family="Helvetica,sans-Serif" font-size="10.00">Benchmark_Registry</text>
<text xml:space="preserve" text-anchor="middle" x="53.75" y="-447.66" font-family="Helvetica,sans-Serif" font-size="10.00">_Scan_Small</text>
</a>
</g>
</g>
<!-- Node2 -->
<g id="Node000002" class="node">
<title>Node2</title>
<g id="a_Node000002"><a xlink:href="classLGE_1_1Testing_1_1TestUtils.html#a1f77aba432e3b29480c1688b716d86cf" target="_top" xlink:title=" ">
<polygon fill="white" stroke="#666666" points="263.75,-683.16 145.75,-683.16 145.75,-651.16 263.75,-651.16 263.75,-683.16"/>
<text xml:space="preserve" text-anchor="start" x="153.75" y="-669.66" font-family="Helvetica,sans-Serif" font-size="10.00">LGE::Testing::TestUtils</text>
<text xml:space="preserve" text-anchor="middle" x="204.75" y="-657.66" font-family="Helvetica,sans-Serif" font-size="10.00">::CleanupTestProject</text>
</a>
</g>
</g>
<!-- Node1&#45;&gt;Node2 -->
<g id="edge1_Node000001_Node000002" class="edge">
<title>Node1&#45;&gt;Node2</title>
<g id="a_edge1_Node000001_Node000002"><a xlink:title=" ">
<path fill="none" stroke="#63b8ff" d="M58.4,-473.6C67.08,-509.08 92.17,-593.52 143.5,-642.16 144.26,-642.87 145.03,-643.57 145.83,-644.25"/>
<polygon fill="#63b8ff" stroke="#63b8ff" points="143.66,-646.99 153.84,-649.93 147.71,-641.29 143.66,-646.99"/>
</a>
</g>
</g>
<!-- Node3 -->
<g id="Node000003" class="node">
<title>Node3</title>
<g id="a_Node000003"><a xlink:href="namespaceLGE_1_1AssetRegistry.html#a0e507381944dcdfc25afc215e2fdc0fd" target="_top" xlink:title=" ">
<polygon fill="white" stroke="#666666" points="430.88,-473.16 327.12,-473.16 327.12,-441.16 430.88,-441.16 430.88,-473.16"/>
<text xml:space="preserve" text-anchor="start" x="335.12" y="-459.66" font-family="Helvetica,sans-Serif" font-size="10.00">LGE::AssetRegistry</text>
<text xml:space="preserve" text-anchor="middle" x="379" y="-447.66" font-family="Helvetica,sans-Serif" font-size="10.00">::Clear</text>
</a>
</g>
</g>
<!-- Node1&#45;&gt;Node3 -->
<g id="edge2_Node000001_Node000003" class="edge">
<title>Node1&#45;&gt;Node3</title>
<g id="a_edge2_Node000001_Node000003"><a xlink:title=" ">
<path fill="none" stroke="#63b8ff" d="M107.77,-457.16C164.72,-457.16 255.18,-457.16 315.54,-457.16"/>
<polygon fill="#63b8ff" stroke="#63b8ff" points="315.31,-460.66 325.31,-457.16 315.31,-453.66 315.31,-460.66"/>
</a>
</g>
</g>
<!-- Node5 -->
<g id="Node000005" class="node">
<title>Node5</title>
<g id="a_Node000005"><a xlink:href="namespaceLGE_1_1VFS.html#abb779fd365154cfbcb79fc4486a5b912" target="_top" xlink:title=" ">
<polygon fill="white" stroke="#666666" points="266,-426.16 143.5,-426.16 143.5,-406.16 266,-406.16 266,-426.16"/>
<text xml:space="preserve" text-anchor="middle" x="204.75" y="-412.66" font-family="Helvetica,sans-Serif" font-size="10.00">LGE::VFS::ClearMounts</text>
</a>
</g>
</g>
<!-- Node1&#45;&gt;Node5 -->
<g id="edge4_Node000001_Node000005" class="edge">
<title>Node1&#45;&gt;Node5</title>
<g id="a_edge4_Node000001_Node000005"><a xlink:title=" ">
<path fill="none" stroke="#63b8ff" d="M107.7,-442.58C123.18,-438.32 140.02,-433.69 155.21,-429.51"/>
<polygon fill="#63b8ff" stroke="#63b8ff" points="155.77,-432.99 164.48,-426.96 153.91,-426.24 155.77,-432.99"/>
</a>
</g>
</g>
<!-- Node6 -->
<g id="Node000006" class="node">
<title>Node6</title>
<g id="a_Node000006"><a xlink:href="classLGE_1_1Testing_1_1TestUtils.html#ace2f7af3775195fcf072f0c09c966af3" target="_top" xlink:title=" ">
<polygon fill="white" stroke="#666666" points="263.75,-317.16 145.75,-317.16 145.75,-285.16 263.75,-285.16 263.75,-317.16"/>
<text xml:space="preserve" text-anchor="start" x="153.75" y="-303.66" font-family="Helvetica,sans-Serif" font-size="10.00">LGE::Testing::TestUtils</text>
<text xml:space="preserve" text-anchor="middle" x="204.75" y="-291.66" font-family="Helvetica,sans-Serif" font-size="10.00">::CreateTestProject</text>
</a>
</g>
</g>
<!-- Node1&#45;&gt;Node6 -->
<g id="edge6_Node000001_Node000006" class="edge">
<title>Node1&#45;&gt;Node6</title>
<g id="a_edge6_Node000001_Node000006"><a xlink:title=" ">
<path fill="none" stroke="#63b8ff" d="M67.27,-440.99C83.84,-419.96 114.38,-382.44 143.5,-353.16 153.22,-343.38 164.52,-333.33 174.68,-324.69"/>
<polygon fill="#63b8ff" stroke="#63b8ff" points="176.67,-327.59 182.1,-318.49 172.18,-322.22 176.67,-327.59"/>
</a>
</g>
</g>
<!-- Node8 -->
<g id="Node000008" class="node">
<title>Node8</title>
<g id="a_Node000008"><a xlink:href="namespaceLGE_1_1AssetRegistry.html#af9345d56722e55e0a02cc2b1c421da76" target="_top" xlink:title=" ">
<polygon fill="white" stroke="#666666" points="256.62,-633.16 152.88,-633.16 152.88,-601.16 256.62,-601.16 256.62,-633.16"/>
<text xml:space="preserve" text-anchor="start" x="160.88" y="-619.66" font-family="Helvetica,sans-Serif" font-size="10.00">LGE::AssetRegistry</text>
<text xml:space="preserve" text-anchor="middle" x="204.75" y="-607.66" font-family="Helvetica,sans-Serif" font-size="10.00">::FullScan</text>
</a>
</g>
</g>
<!-- Node1&#45;&gt;Node8 -->
<g id="edge8_Node000001_Node000008" class="edge">
<title>Node1&#45;&gt;Node8</title>
<g id="a_edge8_Node000001_Node000008"><a xlink:title=" ">
<path fill="none" stroke="#63b8ff" d="M69.86,-473.38C96.07,-501.53 150.13,-559.58 180.94,-592.66"/>
<polygon fill="#63b8ff" stroke="#63b8ff" points="178.2,-594.85 187.57,-599.78 183.32,-590.08 178.2,-594.85"/>
</a>
</g>
</g>
<!-- Node19 -->
<g id="Node000019" class="node">
<title>Node19</title>
<g id="a_Node000019"><a xlink:href="namespaceLGE_1_1VFS.html#a5cea8543475162be752c71971f1f4e85" target="_top" xlink:title=" ">
<polygon fill="white" stroke="#666666" points="629.88,-600.16 495.38,-600.16 495.38,-568.16 629.88,-568.16 629.88,-600.16"/>
<text xml:space="preserve" text-anchor="start" x="503.38" y="-586.66" font-family="Helvetica,sans-Serif" font-size="10.00">LGE::VFS::InitializeDefault</text>
<text xml:space="preserve" text-anchor="middle" x="562.62" y="-574.66" font-family="Helvetica,sans-Serif" font-size="10.00">Mounts</text>
</a>
</g>
</g>
<!-- Node1&#45;&gt;Node19 -->
<g id="edge21_Node000001_Node000019" class="edge">
<title>Node1&#45;&gt;Node19</title>
<g id="a_edge21_Node000001_Node000019"><a xlink:title=" ">
<path fill="none" stroke="#63b8ff" d="M107.56,-470.39C197.47,-492.91 380.62,-538.8 484.75,-564.89"/>
<polygon fill="#63b8ff" stroke="#63b8ff" points="483.79,-568.26 494.34,-567.3 485.49,-561.47 483.79,-568.26"/>
</a>
</g>
</g>
<!-- Node23 -->
<g id="Node000023" class="node">
<title>Node23</title>
<g id="a_Node000023"><a xlink:href="namespaceLGE_1_1LxFS.html#a40efc6a314cff464d1050243706eb8d8" target="_top" xlink:title=" ">
<polygon fill="white" stroke="#666666" points="447.75,-290.16 310.25,-290.16 310.25,-270.16 447.75,-270.16 447.75,-290.16"/>
<text xml:space="preserve" text-anchor="middle" x="379" y="-276.66" font-family="Helvetica,sans-Serif" font-size="10.00">LGE::LxFS::InitializeProject</text>
</a>
</g>
</g>
<!-- Node1&#45;&gt;Node23 -->
<g id="edge30_Node000001_Node000023" class="edge">
<title>Node1&#45;&gt;Node23</title>
<g id="a_edge30_Node000001_Node000023"><a xlink:title=" ">
<path fill="none" stroke="#63b8ff" d="M77.2,-440.77C94.83,-428.2 120.21,-410.76 143.5,-397.16 212.79,-356.69 297.9,-316.45 344.15,-295.33"/>
<polygon fill="#63b8ff" stroke="#63b8ff" points="345.47,-298.58 353.12,-291.25 342.57,-292.2 345.47,-298.58"/>
</a>
</g>
</g>
<!-- Node4 -->
<g id="Node000004" class="node">
<title>Node4</title>
<g id="a_Node000004"><a xlink:href="classLGE_1_1Log.html#ab0265ee050b8873a2fd31fbdb696ced0" target="_top" xlink:title=" ">
<polygon fill="white" stroke="#666666" points="978.75,-442.16 899,-442.16 899,-422.16 978.75,-422.16 978.75,-442.16"/>
<text xml:space="preserve" text-anchor="middle" x="938.88" y="-428.66" font-family="Helvetica,sans-Serif" font-size="10.00">LGE::Log::Info</text>
</a>
</g>
</g>
<!-- Node3&#45;&gt;Node4 -->
<g id="edge3_Node000003_Node000004" class="edge">
<title>Node3&#45;&gt;Node4</title>
<g id="a_edge3_Node000003_Node000004"><a xlink:title=" ">
<path fill="none" stroke="#63b8ff" d="M430.99,-454.87C537.28,-450.11 781.47,-439.16 887.36,-434.42"/>
<polygon fill="#63b8ff" stroke="#63b8ff" points="887.32,-437.92 897.16,-433.98 887.01,-430.93 887.32,-437.92"/>
</a>
</g>
</g>
<!-- Node5&#45;&gt;Node4 -->
<g id="edge5_Node000005_Node000004" class="edge">
<title>Node5&#45;&gt;Node4</title>
<g id="a_edge5_Node000005_Node000004"><a xlink:title=" ">
<path fill="none" stroke="#63b8ff" d="M266.29,-417.48C407.62,-420.57 757.22,-428.21 887.7,-431.06"/>
<polygon fill="#63b8ff" stroke="#63b8ff" points="887.32,-434.55 897.39,-431.27 887.47,-427.55 887.32,-434.55"/>
</a>
</g>
</g>
<!-- Node7 -->
<g id="Node000007" class="node">
<title>Node7</title>
<g id="a_Node000007"><a xlink:href="classLGE_1_1Testing_1_1TestUtils.html#a345e283ebede23eaacd1d9c9a1a8fb0d" target="_top" xlink:title=" ">
<polygon fill="white" stroke="#666666" points="438,-252.16 320,-252.16 320,-220.16 438,-220.16 438,-252.16"/>
<text xml:space="preserve" text-anchor="start" x="328" y="-238.66" font-family="Helvetica,sans-Serif" font-size="10.00">LGE::Testing::TestUtils</text>
<text xml:space="preserve" text-anchor="middle" x="379" y="-226.66" font-family="Helvetica,sans-Serif" font-size="10.00">::GetTempDir</text>
</a>
</g>
</g>
<!-- Node6&#45;&gt;Node7 -->
<g id="edge7_Node000006_Node000007" class="edge">
<title>Node6&#45;&gt;Node7</title>
<g id="a_edge7_Node000006_Node000007"><a xlink:title=" ">
<path fill="none" stroke="#63b8ff" d="M243.43,-284.72C261.09,-277.21 282.49,-268.4 302,-261.16 306.39,-259.52 310.95,-257.89 315.55,-256.27"/>
<polygon fill="#63b8ff" stroke="#63b8ff" points="316.56,-259.63 324.87,-253.07 314.28,-253.01 316.56,-259.63"/>
</a>
</g>
</g>
<!-- Node8&#45;&gt;Node4 -->
<g id="edge19_Node000008_Node000004" class="edge">
<title>Node8&#45;&gt;Node4</title>
<g id="a_edge19_Node000008_Node000004"><a xlink:title=" ">
<path fill="none" stroke="#63b8ff" d="M255.29,-633.64C366.61,-667.46 641.31,-732.69 826.25,-622.16 889.94,-584.09 921.19,-494.66 932.6,-453.53"/>
<polygon fill="#63b8ff" stroke="#63b8ff" points="935.98,-454.45 935.14,-443.89 929.21,-452.67 935.98,-454.45"/>
</a>
</g>
</g>
<!-- Node9 -->
<g id="Node000009" class="node">
<title>Node9</title>
<g id="a_Node000009"><a xlink:href="namespaceLGE_1_1AssetRegistry.html#abf12143e6f506efd22e4ec9ef670134a" target="_top" xlink:title=" ">
<polygon fill="white" stroke="#666666" points="456,-747.16 302,-747.16 302,-715.16 456,-715.16 456,-747.16"/>
<text xml:space="preserve" text-anchor="start" x="310" y="-733.66" font-family="Helvetica,sans-Serif" font-size="10.00">LGE::AssetRegistry</text>
<text xml:space="preserve" text-anchor="middle" x="379" y="-721.66" font-family="Helvetica,sans-Serif" font-size="10.00">::BuildReverseDependencyMap</text>
</a>
</g>
</g>
<!-- Node8&#45;&gt;Node9 -->
<g id="edge9_Node000008_Node000009" class="edge">
<title>Node8&#45;&gt;Node9</title>
<g id="a_edge9_Node000008_Node000009"><a xlink:title=" ">
<path fill="none" stroke="#63b8ff" d="M252.96,-633.62C257.58,-636.14 262.02,-638.97 266,-642.16 287.67,-659.49 280.96,-675.07 302,-693.16 309.16,-699.31 317.48,-704.75 325.95,-709.47"/>
<polygon fill="#63b8ff" stroke="#63b8ff" points="324.06,-712.43 334.54,-713.96 327.3,-706.23 324.06,-712.43"/>
</a>
</g>
</g>
<!-- Node18 -->
<g id="Node000018" class="node">
<title>Node18</title>
<g id="a_Node000018"><a xlink:href="namespaceLGE_1_1VFS.html#a2c64330fbe1cbd5f66e79c29b43c3e87" target="_top" xlink:title=" ">
<polygon fill="white" stroke="#666666" points="436.5,-627.16 321.5,-627.16 321.5,-607.16 436.5,-607.16 436.5,-627.16"/>
<text xml:space="preserve" text-anchor="middle" x="379" y="-613.66" font-family="Helvetica,sans-Serif" font-size="10.00">LGE::VFS::ListMounts</text>
</a>
</g>
</g>
<!-- Node8&#45;&gt;Node18 -->
<g id="edge20_Node000008_Node000018" class="edge">
<title>Node8&#45;&gt;Node18</title>
<g id="a_edge20_Node000008_Node000018"><a xlink:title=" ">
<path fill="none" stroke="#63b8ff" d="M256.96,-617.16C273.56,-617.16 292.24,-617.16 309.86,-617.16"/>
<polygon fill="#63b8ff" stroke="#63b8ff" points="309.75,-620.66 319.75,-617.16 309.75,-613.66 309.75,-620.66"/>
</a>
</g>
</g>
<!-- Node9&#45;&gt;Node4 -->
<g id="edge12_Node000009_Node000004" class="edge">
<title>Node9&#45;&gt;Node4</title>
<g id="a_edge12_Node000009_Node000004"><a xlink:title=" ">
<path fill="none" stroke="#63b8ff" d="M395.01,-714.9C411.35,-696.66 437.61,-665.76 456,-636.16 475.94,-604.07 463.59,-584.06 492,-559.16 522.25,-532.64 777.19,-470.08 887.42,-443.95"/>
<polygon fill="#63b8ff" stroke="#63b8ff" points="888.17,-447.37 897.09,-441.66 886.56,-440.56 888.17,-447.37"/>
</a>
</g>
</g>
<!-- Node10 -->
<g id="Node000010" class="node">
<title>Node10</title>
<g id="a_Node000010"><a xlink:href="namespaceLGE_1_1AssetRegistry.html#ac315fdb87be485fe8103d455b7e8a464" target="_top" xlink:title=" ">
<polygon fill="white" stroke="#666666" points="614.5,-830.16 510.75,-830.16 510.75,-798.16 614.5,-798.16 614.5,-830.16"/>
<text xml:space="preserve" text-anchor="start" x="518.75" y="-816.66" font-family="Helvetica,sans-Serif" font-size="10.00">LGE::AssetRegistry</text>
<text xml:space="preserve" text-anchor="middle" x="562.62" y="-804.66" font-family="Helvetica,sans-Serif" font-size="10.00">::FindByPath</text>
</a>
</g>
</g>
<!-- Node9&#45;&gt;Node10 -->
<g id="edge10_Node000009_Node000010" class="edge">
<title>Node9&#45;&gt;Node10</title>
<g id="a_edge10_Node000009_Node000010"><a xlink:title=" ">
<path fill="none" stroke="#63b8ff" d="M415.88,-747.55C444.49,-760.63 484.75,-779.02 515.7,-793.17"/>
<polygon fill="#63b8ff" stroke="#63b8ff" points="513.89,-796.19 524.44,-797.16 516.8,-789.82 513.89,-796.19"/>
</a>
</g>
</g>
<!-- Node12 -->
<g id="Node000012" class="node">
<title>Node12</title>
<g id="a_Node000012"><a xlink:href="namespaceLGE_1_1VFS.html#a9eb41e42c96a4f5358c79e30afb579cc" target="_top" xlink:title=" ">
<polygon fill="white" stroke="#666666" points="633.25,-757.16 492,-757.16 492,-737.16 633.25,-737.16 633.25,-757.16"/>
<text xml:space="preserve" text-anchor="middle" x="562.62" y="-743.66" font-family="Helvetica,sans-Serif" font-size="10.00">LGE::VFS::ResolveAbsolute</text>
</a>
</g>
</g>
<!-- Node9&#45;&gt;Node12 -->
<g id="edge13_Node000009_Node000012" class="edge">
<title>Node9&#45;&gt;Node12</title>
<g id="a_edge13_Node000009_Node000012"><a xlink:title=" ">
<path fill="none" stroke="#63b8ff" d="M456.5,-737.89C464.32,-738.58 472.28,-739.28 480.14,-739.98"/>
<polygon fill="#63b8ff" stroke="#63b8ff" points="479.8,-743.46 490.07,-740.85 480.41,-736.49 479.8,-743.46"/>
</a>
</g>
</g>
<!-- Node11 -->
<g id="Node000011" class="node">
<title>Node11</title>
<g id="a_Node000011"><a xlink:href="namespaceLGE_1_1AssetRegistry.html#a9e672f9e3c8c62076b9156d1695e48b8" target="_top" xlink:title=" ">
<polygon fill="white" stroke="#666666" points="799.62,-853.16 695.88,-853.16 695.88,-821.16 799.62,-821.16 799.62,-853.16"/>
<text xml:space="preserve" text-anchor="start" x="703.88" y="-839.66" font-family="Helvetica,sans-Serif" font-size="10.00">LGE::AssetRegistry</text>
<text xml:space="preserve" text-anchor="middle" x="747.75" y="-827.66" font-family="Helvetica,sans-Serif" font-size="10.00">::FindByGUID</text>
</a>
</g>
</g>
<!-- Node10&#45;&gt;Node11 -->
<g id="edge11_Node000010_Node000011" class="edge">
<title>Node10&#45;&gt;Node11</title>
<g id="a_edge11_Node000010_Node000011"><a xlink:title=" ">
<path fill="none" stroke="#63b8ff" d="M614.64,-820.56C636.18,-823.27 661.48,-826.45 684.15,-829.29"/>
<polygon fill="#63b8ff" stroke="#63b8ff" points="683.52,-832.74 693.88,-830.51 684.39,-825.8 683.52,-832.74"/>
</a>
</g>
</g>
<!-- Node13 -->
<g id="Node000013" class="node">
<title>Node13</title>
<g id="a_Node000013"><a xlink:href="namespaceLGE_1_1VFS.html#a0566c02123208c6b867418e914f9574b" target="_top" xlink:title=" ">
<polygon fill="white" stroke="#666666" points="802.62,-765.16 692.88,-765.16 692.88,-745.16 802.62,-745.16 802.62,-765.16"/>
<text xml:space="preserve" text-anchor="middle" x="747.75" y="-751.66" font-family="Helvetica,sans-Serif" font-size="10.00">LGE::VFS::GetMount</text>
</a>
</g>
</g>
<!-- Node12&#45;&gt;Node13 -->
<g id="edge14_Node000012_Node000013" class="edge">
<title>Node12&#45;&gt;Node13</title>
<g id="a_edge14_Node000012_Node000013"><a xlink:title=" ">
<path fill="none" stroke="#63b8ff" d="M633.64,-750.21C649.32,-750.9 665.9,-751.62 681.38,-752.3"/>
<polygon fill="#63b8ff" stroke="#63b8ff" points="680.78,-755.78 690.92,-752.72 681.08,-748.78 680.78,-755.78"/>
</a>
</g>
</g>
<!-- Node14 -->
<g id="Node000014" class="node">
<title>Node14</title>
<g id="a_Node000014"><a xlink:href="namespaceLGE_1_1LxPath.html#a94ec3bdfd6948ddc25cda5d18154d4cf" target="_top" xlink:title=" ">
<polygon fill="white" stroke="#666666" points="795.88,-803.16 699.62,-803.16 699.62,-783.16 795.88,-783.16 795.88,-803.16"/>
<text xml:space="preserve" text-anchor="middle" x="747.75" y="-789.66" font-family="Helvetica,sans-Serif" font-size="10.00">LGE::LxPath::Join</text>
</a>
</g>
</g>
<!-- Node12&#45;&gt;Node14 -->
<g id="edge15_Node000012_Node000014" class="edge">
<title>Node12&#45;&gt;Node14</title>
<g id="a_edge15_Node000012_Node000014"><a xlink:title=" ">
<path fill="none" stroke="#63b8ff" d="M604.23,-757.63C623.86,-762.67 647.77,-768.78 669.25,-774.16 676.83,-776.05 684.83,-778.04 692.71,-779.98"/>
<polygon fill="#63b8ff" stroke="#63b8ff" points="691.67,-783.33 702.22,-782.32 693.34,-776.53 691.67,-783.33"/>
</a>
</g>
</g>
<!-- Node17 -->
<g id="Node000017" class="node">
<title>Node17</title>
<g id="a_Node000017"><a xlink:href="classLGE_1_1Log.html#aa6f98018af29c23dd7f574d3df5dda5e" target="_top" xlink:title=" ">
<polygon fill="white" stroke="#666666" points="790.62,-157.16 704.88,-157.16 704.88,-137.16 790.62,-137.16 790.62,-157.16"/>
<text xml:space="preserve" text-anchor="middle" x="747.75" y="-143.66" font-family="Helvetica,sans-Serif" font-size="10.00">LGE::Log::Warn</text>
</a>
</g>
</g>
<!-- Node12&#45;&gt;Node17 -->
<g id="edge18_Node000012_Node000017" class="edge">
<title>Node12&#45;&gt;Node17</title>
<g id="a_edge18_Node000012_Node000017"><a xlink:title=" ">
<path fill="none" stroke="#63b8ff" d="M570.48,-736.98C584.99,-714.86 618.67,-660.25 633.25,-609.16 658.04,-522.27 624.93,-282.89 669.25,-204.16 679.29,-186.32 697.48,-172.49 713.72,-162.93"/>
<polygon fill="#63b8ff" stroke="#63b8ff" points="715.1,-166.16 722.16,-158.26 711.71,-160.04 715.1,-166.16"/>
</a>
</g>
</g>
<!-- Node15 -->
<g id="Node000015" class="node">
<title>Node15</title>
<g id="a_Node000015"><a xlink:href="namespaceLGE_1_1LxPath.html#a314a60ce690c90f4ee0b4e64c0199408" target="_top" xlink:title=" ">
<polygon fill="white" stroke="#666666" points="1000.12,-727.16 877.62,-727.16 877.62,-707.16 1000.12,-707.16 1000.12,-727.16"/>
<text xml:space="preserve" text-anchor="middle" x="938.88" y="-713.66" font-family="Helvetica,sans-Serif" font-size="10.00">LGE::LxPath::Normalize</text>
</a>
</g>
</g>
<!-- Node14&#45;&gt;Node15 -->
<g id="edge16_Node000014_Node000015" class="edge">
<title>Node14&#45;&gt;Node15</title>
<g id="a_edge16_Node000014_Node000015"><a xlink:title=" ">
<path fill="none" stroke="#63b8ff" d="M796,-783.42C806.11,-780.83 816.64,-777.73 826.25,-774.16 856.35,-762.95 888.86,-745.72 910.98,-733.13"/>
<polygon fill="#63b8ff" stroke="#63b8ff" points="912.44,-736.33 919.35,-728.3 908.94,-730.27 912.44,-736.33"/>
</a>
</g>
</g>
<!-- Node16 -->
<g id="Node000016" class="node">
<title>Node16</title>
<g id="a_Node000016"><a xlink:href="classLGE_1_1Log.html#a53f3f4b8797ffd18145739c9e66d690a" target="_top" xlink:title=" ">
<polygon fill="white" stroke="#666666" points="1135.75,-347.16 1051.5,-347.16 1051.5,-327.16 1135.75,-327.16 1135.75,-347.16"/>
<text xml:space="preserve" text-anchor="middle" x="1093.62" y="-333.66" font-family="Helvetica,sans-Serif" font-size="10.00">LGE::Log::Error</text>
</a>
</g>
</g>
<!-- Node15&#45;&gt;Node16 -->
<g id="edge17_Node000015_Node000016" class="edge">
<title>Node15&#45;&gt;Node16</title>
<g id="a_edge17_Node000015_Node000016"><a xlink:title=" ">
<path fill="none" stroke="#63b8ff" d="M996.34,-706.72C1003.53,-703.37 1010.21,-698.96 1015.5,-693.16 1061.08,-643.07 1084.38,-427.62 1090.77,-358.55"/>
<polygon fill="#63b8ff" stroke="#63b8ff" points="1094.23,-359.21 1091.64,-348.94 1087.25,-358.59 1094.23,-359.21"/>
</a>
</g>
</g>
<!-- Node19&#45;&gt;Node4 -->
<g id="edge23_Node000019_Node000004" class="edge">
<title>Node19&#45;&gt;Node4</title>
<g id="a_edge23_Node000019_Node000004"><a xlink:title=" ">
<path fill="none" stroke="#63b8ff" d="M607.05,-567.67C626.03,-560.69 648.63,-552.68 669.25,-546.16 738.23,-524.34 760.1,-532.45 826.25,-503.16 859.21,-488.56 893.72,-465.17 915.48,-449.26"/>
<polygon fill="#63b8ff" stroke="#63b8ff" points="917.38,-452.21 923.32,-443.43 913.2,-446.59 917.38,-452.21"/>
</a>
</g>
</g>
<!-- Node19&#45;&gt;Node16 -->
<g id="edge22_Node000019_Node000016" class="edge">
<title>Node19&#45;&gt;Node16</title>
<g id="a_edge22_Node000019_Node000016"><a xlink:title=" ">
<path fill="none" stroke="#63b8ff" d="M600.16,-600.62C652.1,-621.56 749.5,-651.69 826.25,-622.16 958.12,-571.4 1051.96,-414.09 1082.18,-357.61"/>
<polygon fill="#63b8ff" stroke="#63b8ff" points="1085.27,-359.26 1086.81,-348.78 1079.07,-356.01 1085.27,-359.26"/>
</a>
</g>
</g>
<!-- Node20 -->
<g id="Node000020" class="node">
<title>Node20</title>
<g id="a_Node000020"><a xlink:href="namespaceLGE_1_1LxFS.html#a5684a30f3fa2906f4dafed0258a79166" target="_top" xlink:title=" ">
<polygon fill="white" stroke="#666666" points="807.88,-613.16 687.62,-613.16 687.62,-593.16 807.88,-593.16 807.88,-613.16"/>
<text xml:space="preserve" text-anchor="middle" x="747.75" y="-599.66" font-family="Helvetica,sans-Serif" font-size="10.00">LGE::LxFS::IsInitialized</text>
</a>
</g>
</g>
<!-- Node19&#45;&gt;Node20 -->
<g id="edge24_Node000019_Node000020" class="edge">
<title>Node19&#45;&gt;Node20</title>
<g id="a_edge24_Node000019_Node000020"><a xlink:title=" ">
<path fill="none" stroke="#63b8ff" d="M630.26,-591.07C645.09,-592.61 660.86,-594.24 675.86,-595.8"/>
<polygon fill="#63b8ff" stroke="#63b8ff" points="675.33,-599.26 685.64,-596.81 676.06,-592.3 675.33,-599.26"/>
</a>
</g>
</g>
<!-- Node21 -->
<g id="Node000021" class="node">
<title>Node21</title>
<g id="a_Node000021"><a xlink:href="namespaceLGE_1_1VFS.html#a54b012d377481aa3685b372a196259ed" target="_top" xlink:title=" ">
<polygon fill="white" stroke="#666666" points="804.88,-727.16 690.62,-727.16 690.62,-707.16 804.88,-707.16 804.88,-727.16"/>
<text xml:space="preserve" text-anchor="middle" x="747.75" y="-713.66" font-family="Helvetica,sans-Serif" font-size="10.00">LGE::VFS::MountPath</text>
</a>
</g>
</g>
<!-- Node19&#45;&gt;Node21 -->
<g id="edge25_Node000019_Node000021" class="edge">
<title>Node19&#45;&gt;Node21</title>
<g id="a_edge25_Node000019_Node000021"><a xlink:title=" ">
<path fill="none" stroke="#63b8ff" d="M586.08,-600.46C621,-625.83 687.98,-674.47 723.42,-700.21"/>
<polygon fill="#63b8ff" stroke="#63b8ff" points="721.16,-702.9 731.31,-705.94 725.27,-697.23 721.16,-702.9"/>
</a>
</g>
</g>
<!-- Node22 -->
<g id="Node000022" class="node">
<title>Node22</title>
<g id="a_Node000022"><a xlink:href="namespaceLGE_1_1LxFS.html#a12aeb6699602f14153953dceb4284914" target="_top" xlink:title=" ">
<polygon fill="white" stroke="#666666" points="795.88,-575.16 699.62,-575.16 699.62,-555.16 795.88,-555.16 795.88,-575.16"/>
<text xml:space="preserve" text-anchor="middle" x="747.75" y="-561.66" font-family="Helvetica,sans-Serif" font-size="10.00">LGE::LxFS::Paths</text>
</a>
</g>
</g>
<!-- Node19&#45;&gt;Node22 -->
<g id="edge29_Node000019_Node000022" class="edge">
<title>Node19&#45;&gt;Node22</title>
<g id="a_edge29_Node000019_Node000022"><a xlink:title=" ">
<path fill="none" stroke="#63b8ff" d="M630.26,-577.24C649.14,-575.28 669.55,-573.17 687.93,-571.26"/>
<polygon fill="#63b8ff" stroke="#63b8ff" points="688.29,-574.74 697.88,-570.23 687.57,-567.78 688.29,-574.74"/>
</a>
</g>
</g>
<!-- Node21&#45;&gt;Node4 -->
<g id="edge27_Node000021_Node000004" class="edge">
<title>Node21&#45;&gt;Node4</title>
<g id="a_edge27_Node000021_Node000004"><a xlink:title=" ">
<path fill="none" stroke="#63b8ff" d="M803.64,-706.77C811.87,-703.42 819.76,-699 826.25,-693.16 900,-626.69 926.81,-503.19 934.88,-453.59"/>
<polygon fill="#63b8ff" stroke="#63b8ff" points="938.31,-454.32 936.35,-443.9 931.39,-453.26 938.31,-454.32"/>
</a>
</g>
</g>
<!-- Node21&#45;&gt;Node15 -->
<g id="edge28_Node000021_Node000015" class="edge">
<title>Node21&#45;&gt;Node15</title>
<g id="a_edge28_Node000021_Node000015"><a xlink:title=" ">
<path fill="none" stroke="#63b8ff" d="M805.24,-717.16C824.34,-717.16 845.94,-717.16 866.07,-717.16"/>
<polygon fill="#63b8ff" stroke="#63b8ff" points="865.89,-720.66 875.89,-717.16 865.89,-713.66 865.89,-720.66"/>
</a>
</g>
</g>
<!-- Node21&#45;&gt;Node16 -->
<g id="edge26_Node000021_Node000016" class="edge">
<title>Node21&#45;&gt;Node16</title>
<g id="a_edge26_Node000021_Node000016"><a xlink:title=" ">
<path fill="none" stroke="#63b8ff" d="M805.32,-707.26C879.1,-693.86 1000.57,-669.94 1015.5,-655.16 1058.26,-612.8 1083.07,-422.73 1090.35,-358.47"/>
<polygon fill="#63b8ff" stroke="#63b8ff" points="1093.79,-359.2 1091.41,-348.88 1086.83,-358.43 1093.79,-359.2"/>
</a>
</g>
</g>
<!-- Node23&#45;&gt;Node4 -->
<g id="edge35_Node000023_Node000004" class="edge">
<title>Node23&#45;&gt;Node4</title>
<g id="a_edge35_Node000023_Node000004"><a xlink:title=" ">
<path fill="none" stroke="#63b8ff" d="M404.12,-290.57C426.57,-299.98 461.11,-313.77 492,-323.16 637.76,-367.46 678.85,-360.65 826.25,-399.16 848.69,-405.02 873.44,-412.25 893.92,-418.46"/>
<polygon fill="#63b8ff" stroke="#63b8ff" points="892.78,-421.77 903.37,-421.34 894.82,-415.07 892.78,-421.77"/>
</a>
</g>
</g>
<!-- Node23&#45;&gt;Node16 -->
<g id="edge34_Node000023_Node000016" class="edge">
<title>Node23&#45;&gt;Node16</title>
<g id="a_edge34_Node000023_Node000016"><a xlink:title=" ">
<path fill="none" stroke="#63b8ff" d="M444.17,-269.77C448.49,-267.42 452.5,-264.58 456,-261.16 499.72,-218.27 447.11,-169.81 492,-128.16 662.88,30.39 827.95,42.27 1015.5,-96.16 1086.4,-148.48 1093.54,-266.76 1093.31,-315.52"/>
<polygon fill="#63b8ff" stroke="#63b8ff" points="1089.82,-315.25 1093.14,-325.31 1096.82,-315.38 1089.82,-315.25"/>
</a>
</g>
</g>
<!-- Node23&#45;&gt;Node17 -->
<g id="edge49_Node000023_Node000017" class="edge">
<title>Node23&#45;&gt;Node17</title>
<g id="a_edge49_Node000023_Node000017"><a xlink:title=" ">
<path fill="none" stroke="#63b8ff" d="M429.19,-269.7C438.23,-267.26 447.49,-264.41 456,-261.16 472.9,-254.69 475.49,-249.55 492,-242.16 565.04,-209.43 653.08,-178.38 704.21,-161.14"/>
<polygon fill="#63b8ff" stroke="#63b8ff" points="705.05,-164.55 713.41,-158.05 702.82,-157.91 705.05,-164.55"/>
</a>
</g>
</g>
<!-- Node24 -->
<g id="Node000024" class="node">
<title>Node24</title>
<g id="a_Node000024"><a xlink:href="namespaceLGE_1_1LxFS.html#afaba8b74a530d174bcd4849ffe5b7c75" target="_top" xlink:title=" ">
<polygon fill="white" stroke="#666666" points="631,-157.16 494.25,-157.16 494.25,-137.16 631,-137.16 631,-157.16"/>
<text xml:space="preserve" text-anchor="middle" x="562.62" y="-143.66" font-family="Helvetica,sans-Serif" font-size="10.00">LGE::LxFS::EnsureScaffold</text>
</a>
</g>
</g>
<!-- Node23&#45;&gt;Node24 -->
<g id="edge31_Node000023_Node000024" class="edge">
<title>Node23&#45;&gt;Node24</title>
<g id="a_edge31_Node000023_Node000024"><a xlink:title=" ">
<path fill="none" stroke="#63b8ff" d="M441.55,-269.82C446.73,-267.48 451.64,-264.63 456,-261.16 483.66,-239.09 468.05,-216.2 492,-190.16 502.07,-179.21 515.54,-170.02 527.96,-162.99"/>
<polygon fill="#63b8ff" stroke="#63b8ff" points="529.54,-166.11 536.7,-158.31 526.23,-159.94 529.54,-166.11"/>
</a>
</g>
</g>
<!-- Node25 -->
<g id="Node000025" class="node">
<title>Node25</title>
<g id="a_Node000025"><a xlink:href="namespaceLGE_1_1LxFS.html#aa5a204e25e73c7d4ec733b032028351e" target="_top" xlink:title=" ">
<polygon fill="white" stroke="#666666" points="627.25,-271.16 498,-271.16 498,-251.16 627.25,-251.16 627.25,-271.16"/>
<text xml:space="preserve" text-anchor="middle" x="562.62" y="-257.66" font-family="Helvetica,sans-Serif" font-size="10.00">LGE::LxFS::LoadManifest</text>
</a>
</g>
</g>
<!-- Node23&#45;&gt;Node25 -->
<g id="edge36_Node000023_Node000025" class="edge">
<title>Node23&#45;&gt;Node25</title>
<g id="a_edge36_Node000023_Node000025"><a xlink:title=" ">
<path fill="none" stroke="#63b8ff" d="M448.15,-273.03C460.55,-271.73 473.57,-270.37 486.17,-269.05"/>
<polygon fill="#63b8ff" stroke="#63b8ff" points="486.51,-272.53 496.1,-268.01 485.79,-265.57 486.51,-272.53"/>
</a>
</g>
</g>
<!-- Node29 -->
<g id="Node000029" class="node">
<title>Node29</title>
<g id="a_Node000029"><a xlink:href="namespaceLGE_1_1LxFS.html#a6d72399c0ba33d7d484f7adbf4affc1e" target="_top" xlink:title=" ">
<polygon fill="white" stroke="#666666" points="813.12,-347.16 682.38,-347.16 682.38,-327.16 813.12,-327.16 813.12,-347.16"/>
<text xml:space="preserve" text-anchor="middle" x="747.75" y="-333.66" font-family="Helvetica,sans-Serif" font-size="10.00">LGE::LxFS::SaveManifest</text>
</a>
</g>
</g>
<!-- Node23&#45;&gt;Node29 -->
<g id="edge48_Node000023_Node000029" class="edge">
<title>Node23&#45;&gt;Node29</title>
<g id="a_edge48_Node000023_Node000029"><a xlink:title=" ">
<path fill="none" stroke="#63b8ff" d="M447.27,-290.61C510.51,-300.44 605.04,-315.13 670.93,-325.37"/>
<polygon fill="#63b8ff" stroke="#63b8ff" points="670.15,-328.79 680.57,-326.87 671.22,-321.87 670.15,-328.79"/>
</a>
</g>
</g>
<!-- Node24&#45;&gt;Node16 -->
<g id="edge32_Node000024_Node000016" class="edge">
<title>Node24&#45;&gt;Node16</title>
<g id="a_edge32_Node000024_Node000016"><a xlink:title=" ">
<path fill="none" stroke="#63b8ff" d="M593.64,-136.69C672.28,-111.34 887.09,-55.68 1015.5,-154.16 1067.72,-194.2 1084.95,-276.27 1090.33,-315.43"/>
<polygon fill="#63b8ff" stroke="#63b8ff" points="1086.84,-315.73 1091.53,-325.24 1093.79,-314.88 1086.84,-315.73"/>
</a>
</g>
</g>
<!-- Node24&#45;&gt;Node17 -->
<g id="edge33_Node000024_Node000017" class="edge">
<title>Node24&#45;&gt;Node17</title>
<g id="a_edge33_Node000024_Node000017"><a xlink:title=" ">
<path fill="none" stroke="#63b8ff" d="M631.29,-147.16C651.72,-147.16 673.86,-147.16 693.23,-147.16"/>
<polygon fill="#63b8ff" stroke="#63b8ff" points="693.08,-150.66 703.08,-147.16 693.08,-143.66 693.08,-150.66"/>
</a>
</g>
</g>
<!-- Node25&#45;&gt;Node4 -->
<g id="edge38_Node000025_Node000004" class="edge">
<title>Node25&#45;&gt;Node4</title>
<g id="a_edge38_Node000025_Node000004"><a xlink:title=" ">
<path fill="none" stroke="#63b8ff" d="M627.72,-270.73C694.1,-281.41 792.71,-299.62 826.25,-318.16 868.84,-341.69 905.55,-386.61 924.38,-412.48"/>
<polygon fill="#63b8ff" stroke="#63b8ff" points="921.4,-414.32 930.04,-420.45 927.1,-410.27 921.4,-414.32"/>
</a>
</g>
</g>
<!-- Node25&#45;&gt;Node16 -->
<g id="edge37_Node000025_Node000016" class="edge">
<title>Node25&#45;&gt;Node16</title>
<g id="a_edge37_Node000025_Node000016"><a xlink:title=" ">
<path fill="none" stroke="#63b8ff" d="M627.61,-261.44C680.98,-262.42 758.89,-265.6 826.25,-275.16 904.21,-286.22 992.94,-308.97 1045.78,-323.62"/>
<polygon fill="#63b8ff" stroke="#63b8ff" points="1044.78,-326.97 1055.36,-326.29 1046.67,-320.23 1044.78,-326.97"/>
</a>
</g>
</g>
<!-- Node25&#45;&gt;Node17 -->
<g id="edge47_Node000025_Node000017" class="edge">
<title>Node25&#45;&gt;Node17</title>
<g id="a_edge47_Node000025_Node000017"><a xlink:title=" ">
<path fill="none" stroke="#63b8ff" d="M584.78,-250.72C599.34,-242.94 618.6,-231.4 633.25,-218.16 652.77,-200.51 647.66,-186.2 669.25,-171.16 676.73,-165.94 685.37,-161.83 694.12,-158.6"/>
<polygon fill="#63b8ff" stroke="#63b8ff" points="694.94,-162.02 703.33,-155.55 692.74,-155.37 694.94,-162.02"/>
</a>
</g>
</g>
<!-- Node26 -->
<g id="Node000026" class="node">
<title>Node26</title>
<g id="a_Node000026"><a xlink:href="namespaceLGE_1_1Migration.html#a94f0cb325681d49b25e29f0bd2801422" target="_top" xlink:title=" ">
<polygon fill="white" stroke="#666666" points="826.25,-233.16 669.25,-233.16 669.25,-213.16 826.25,-213.16 826.25,-233.16"/>
<text xml:space="preserve" text-anchor="middle" x="747.75" y="-219.66" font-family="Helvetica,sans-Serif" font-size="10.00">LGE::Migration::MigrateManifest</text>
</a>
</g>
</g>
<!-- Node25&#45;&gt;Node26 -->
<g id="edge39_Node000025_Node000026" class="edge">
<title>Node25&#45;&gt;Node26</title>
<g id="a_edge39_Node000025_Node000026"><a xlink:title=" ">
<path fill="none" stroke="#63b8ff" d="M614.15,-250.67C636.17,-246.1 662.18,-240.71 685.3,-235.91"/>
<polygon fill="#63b8ff" stroke="#63b8ff" points="685.83,-239.37 694.91,-233.91 684.41,-232.52 685.83,-239.37"/>
</a>
</g>
</g>
<!-- Node28 -->
<g id="Node000028" class="node">
<title>Node28</title>
<g id="a_Node000028"><a xlink:href="namespaceLGE_1_1Migration.html#ad2e0aa4e3fa0c4300ecf31c7f53a5d29" target="_top" xlink:title=" ">
<polygon fill="white" stroke="#666666" points="1015.5,-195.16 862.25,-195.16 862.25,-163.16 1015.5,-163.16 1015.5,-195.16"/>
<text xml:space="preserve" text-anchor="start" x="870.25" y="-181.66" font-family="Helvetica,sans-Serif" font-size="10.00">LGE::Migration::NeedsManifest</text>
<text xml:space="preserve" text-anchor="middle" x="938.88" y="-169.66" font-family="Helvetica,sans-Serif" font-size="10.00">Migration</text>
</a>
</g>
</g>
<!-- Node25&#45;&gt;Node28 -->
<g id="edge43_Node000025_Node000028" class="edge">
<title>Node25&#45;&gt;Node28</title>
<g id="a_edge43_Node000025_Node000028"><a xlink:title=" ">
<path fill="none" stroke="#63b8ff" d="M578.17,-250.82C597.8,-237.47 634.35,-214.72 669.25,-204.16 728.04,-186.37 797.08,-180.24 850.45,-178.5"/>
<polygon fill="#63b8ff" stroke="#63b8ff" points="850.52,-182 860.42,-178.23 850.32,-175 850.52,-182"/>
</a>
</g>
</g>
<!-- Node25&#45;&gt;Node29 -->
<g id="edge44_Node000025_Node000029" class="edge">
<title>Node25&#45;&gt;Node29</title>
<g id="a_edge44_Node000025_Node000029"><a xlink:title=" ">
<path fill="none" stroke="#63b8ff" d="M582.3,-271.47C603.1,-282.68 637.92,-300.68 669.25,-313.16 678.47,-316.83 688.49,-320.3 698.17,-323.4"/>
<polygon fill="#63b8ff" stroke="#63b8ff" points="696.85,-326.65 707.44,-326.28 698.93,-319.97 696.85,-326.65"/>
</a>
</g>
</g>
<!-- Node26&#45;&gt;Node4 -->
<g id="edge41_Node000026_Node000004" class="edge">
<title>Node26&#45;&gt;Node4</title>
<g id="a_edge41_Node000026_Node000004"><a xlink:title=" ">
<path fill="none" stroke="#63b8ff" d="M763.94,-233.58C780.26,-245.17 806.52,-264.92 826.25,-285.16 866.7,-326.64 905.69,-382.85 925.11,-412.29"/>
<polygon fill="#63b8ff" stroke="#63b8ff" points="922.12,-414.12 930.52,-420.58 927.98,-410.3 922.12,-414.12"/>
</a>
</g>
</g>
<!-- Node27 -->
<g id="Node000027" class="node">
<title>Node27</title>
<g id="a_Node000027"><a xlink:href="namespaceLGE_1_1MetaDB.html#aa5218c5875c7c064fac11782f4ca1783" target="_top" xlink:title=" ">
<polygon fill="white" stroke="#666666" points="1013.25,-233.16 864.5,-233.16 864.5,-213.16 1013.25,-213.16 1013.25,-233.16"/>
<text xml:space="preserve" text-anchor="middle" x="938.88" y="-219.66" font-family="Helvetica,sans-Serif" font-size="10.00">LGE::MetaDB::GenerateGUID</text>
</a>
</g>
</g>
<!-- Node26&#45;&gt;Node27 -->
<g id="edge40_Node000026_Node000027" class="edge">
<title>Node26&#45;&gt;Node27</title>
<g id="a_edge40_Node000026_Node000027"><a xlink:title=" ">
<path fill="none" stroke="#63b8ff" d="M826.49,-223.16C835.14,-223.16 843.97,-223.16 852.7,-223.16"/>
<polygon fill="#63b8ff" stroke="#63b8ff" points="852.57,-226.66 862.57,-223.16 852.57,-219.66 852.57,-226.66"/>
</a>
</g>
</g>
<!-- Node26&#45;&gt;Node28 -->
<g id="edge42_Node000026_Node000028" class="edge">
<title>Node26&#45;&gt;Node28</title>
<g id="a_edge42_Node000026_Node000028"><a xlink:title=" ">
<path fill="none" stroke="#63b8ff" d="M793.57,-212.73C812.27,-208.38 834.59,-203.18 856.03,-198.2"/>
<polygon fill="#63b8ff" stroke="#63b8ff" points="856.71,-201.63 865.66,-195.96 855.12,-194.81 856.71,-201.63"/>
</a>
</g>
</g>
<!-- Node29&#45;&gt;Node4 -->
<g id="edge46_Node000029_Node000004" class="edge">
<title>Node29&#45;&gt;Node4</title>
<g id="a_edge46_Node000029_Node000004"><a xlink:title=" ">
<path fill="none" stroke="#63b8ff" d="M789.74,-347.63C801.75,-351.28 814.75,-355.83 826.25,-361.16 858.79,-376.21 893.15,-399.3 915.01,-415.03"/>
<polygon fill="#63b8ff" stroke="#63b8ff" points="912.76,-417.73 922.9,-420.8 916.89,-412.07 912.76,-417.73"/>
</a>
</g>
</g>
<!-- Node29&#45;&gt;Node16 -->
<g id="edge45_Node000029_Node000016" class="edge">
<title>Node29&#45;&gt;Node16</title>
<g id="a_edge45_Node000029_Node000016"><a xlink:title=" ">
<path fill="none" stroke="#63b8ff" d="M813.43,-337.16C879.05,-337.16 979.36,-337.16 1040.19,-337.16"/>
<polygon fill="#63b8ff" stroke="#63b8ff" points="1039.93,-340.66 1049.93,-337.16 1039.93,-333.66 1039.93,-340.66"/>
</a>
</g>
</g>
</g>
</svg>
