<?xml version="1.0" encoding="UTF-8" standalone="no"?>
<!DOCTYPE svg PUBLIC "-//W3C//DTD SVG 1.1//EN"
 "http://www.w3.org/Graphics/SVG/1.1/DTD/svg11.dtd">
<!-- Generated by graphviz version 14.0.2 (20251019.1705)
 -->
<!-- Title: Benchmark_File_Write_Atomic Pages: 1 -->
<svg width="1033pt" height="258pt"
 viewBox="0.00 0.00 1033.00 258.00" xmlns="http://www.w3.org/2000/svg" xmlns:xlink="http://www.w3.org/1999/xlink">
<g id="graph0" class="graph" transform="scale(1 1) rotate(0) translate(4 254.47)">
<title>Benchmark_File_Write_Atomic</title>
<!-- Node1 -->
<g id="Node000001" class="node">
<title>Node1</title>
<g id="a_Node000001"><a xlink:title=" ">
<polygon fill="#999999" stroke="#666666" points="114.25,-76 0,-76 0,-44 114.25,-44 114.25,-76"/>
<text xml:space="preserve" text-anchor="start" x="8" y="-62.5" font-family="Helvetica,sans-Serif" font-size="10.00">Benchmark_File_Write</text>
<text xml:space="preserve" text-anchor="middle" x="57.12" y="-50.5" font-family="Helvetica,sans-Serif" font-size="10.00">_Atomic</text>
</a>
</g>
</g>
<!-- Node2 -->
<g id="Node000002" class="node">
<title>Node2</title>
<g id="a_Node000002"><a xlink:href="namespaceLGE_1_1LxFile.html#a495ab310e479d036634c3628390f80a0" target="_top" xlink:title=" ">
<polygon fill="white" stroke="#666666" points="260.38,-127 158.12,-127 158.12,-107 260.38,-107 260.38,-127"/>
<text xml:space="preserve" text-anchor="middle" x="209.25" y="-113.5" font-family="Helvetica,sans-Serif" font-size="10.00">LGE::LxFile::Delete</text>
</a>
</g>
</g>
<!-- Node1&#45;&gt;Node2 -->
<g id="edge1_Node000001_Node000002" class="edge">
<title>Node1&#45;&gt;Node2</title>
<g id="a_edge1_Node000001_Node000002"><a xlink:title=" ">
<path fill="none" stroke="#63b8ff" d="M101.55,-76.49C123.28,-84.74 149.33,-94.63 170.26,-102.57"/>
<polygon fill="#63b8ff" stroke="#63b8ff" points="168.98,-105.83 179.57,-106.11 171.47,-99.29 168.98,-105.83"/>
</a>
</g>
</g>
<!-- Node11 -->
<g id="Node000011" class="node">
<title>Node11</title>
<g id="a_Node000011"><a xlink:href="namespaceLGE_1_1LxFile.html#a06d0b8c5590da8bc48cf22d321fc4074" target="_top" xlink:title=" ">
<polygon fill="white" stroke="#666666" points="418.12,-32 310.62,-32 310.62,-12 418.12,-12 418.12,-32"/>
<text xml:space="preserve" text-anchor="middle" x="364.38" y="-18.5" font-family="Helvetica,sans-Serif" font-size="10.00">LGE::LxFile::WriteAll</text>
</a>
</g>
</g>
<!-- Node1&#45;&gt;Node11 -->
<g id="edge18_Node000001_Node000011" class="edge">
<title>Node1&#45;&gt;Node11</title>
<g id="a_edge18_Node000001_Node000011"><a xlink:title=" ">
<path fill="none" stroke="#63b8ff" d="M114.5,-56.55C156.92,-53.55 216.41,-48.5 268.25,-41 280.25,-39.26 293.01,-37 305.17,-34.65"/>
<polygon fill="#63b8ff" stroke="#63b8ff" points="305.52,-38.15 314.65,-32.77 304.15,-31.28 305.52,-38.15"/>
</a>
</g>
</g>
<!-- Node12 -->
<g id="Node000012" class="node">
<title>Node12</title>
<g id="a_Node000012"><a xlink:href="classLGE_1_1Testing_1_1TestUtils.html#a345e283ebede23eaacd1d9c9a1a8fb0d" target="_top" xlink:title=" ">
<polygon fill="white" stroke="#666666" points="268.25,-32 150.25,-32 150.25,0 268.25,0 268.25,-32"/>
<text xml:space="preserve" text-anchor="start" x="158.25" y="-18.5" font-family="Helvetica,sans-Serif" font-size="10.00">LGE::Testing::TestUtils</text>
<text xml:space="preserve" text-anchor="middle" x="209.25" y="-6.5" font-family="Helvetica,sans-Serif" font-size="10.00">::GetTempDir</text>
</a>
</g>
</g>
<!-- Node1&#45;&gt;Node12 -->
<g id="edge17_Node000001_Node000012" class="edge">
<title>Node1&#45;&gt;Node12</title>
<g id="a_edge17_Node000001_Node000012"><a xlink:title=" ">
<path fill="none" stroke="#63b8ff" d="M114.03,-43.62C122.86,-41.03 132.07,-38.33 141.12,-35.67"/>
<polygon fill="#63b8ff" stroke="#63b8ff" points="141.99,-39.07 150.6,-32.9 140.02,-32.35 141.99,-39.07"/>
</a>
</g>
</g>
<!-- Node3 -->
<g id="Node000003" class="node">
<title>Node3</title>
<g id="a_Node000003"><a xlink:href="classLGE_1_1Log.html#a53f3f4b8797ffd18145739c9e66d690a" target="_top" xlink:title=" ">
<polygon fill="white" stroke="#666666" points="1024.75,-146 940.5,-146 940.5,-126 1024.75,-126 1024.75,-146"/>
<text xml:space="preserve" text-anchor="middle" x="982.62" y="-132.5" font-family="Helvetica,sans-Serif" font-size="10.00">LGE::Log::Error</text>
</a>
</g>
</g>
<!-- Node2&#45;&gt;Node3 -->
<g id="edge2_Node000002_Node000003" class="edge">
<title>Node2&#45;&gt;Node3</title>
<g id="a_edge2_Node000002_Node000003"><a xlink:title=" ">
<path fill="none" stroke="#63b8ff" d="M217.1,-127.35C230.95,-147.34 264.36,-191.15 304.25,-212 391.41,-257.56 423.9,-250 522.25,-250 522.25,-250 522.25,-250 685,-250 792.39,-250 907.96,-184.09 957.19,-152.5"/>
<polygon fill="#63b8ff" stroke="#63b8ff" points="958.93,-155.54 965.39,-147.15 955.1,-149.68 958.93,-155.54"/>
</a>
</g>
</g>
<!-- Node4 -->
<g id="Node000004" class="node">
<title>Node4</title>
<g id="a_Node000004"><a xlink:href="classLGE_1_1Log.html#ab0265ee050b8873a2fd31fbdb696ced0" target="_top" xlink:title=" ">
<polygon fill="white" stroke="#666666" points="404.25,-184 324.5,-184 324.5,-164 404.25,-164 404.25,-184"/>
<text xml:space="preserve" text-anchor="middle" x="364.38" y="-170.5" font-family="Helvetica,sans-Serif" font-size="10.00">LGE::Log::Info</text>
</a>
</g>
</g>
<!-- Node2&#45;&gt;Node4 -->
<g id="edge3_Node000002_Node000004" class="edge">
<title>Node2&#45;&gt;Node4</title>
<g id="a_edge3_Node000002_Node000004"><a xlink:title=" ">
<path fill="none" stroke="#63b8ff" d="M234.8,-127.5C253.65,-135.42 280.42,-146.37 304.25,-155 308.94,-156.7 313.86,-158.4 318.78,-160.06"/>
<polygon fill="#63b8ff" stroke="#63b8ff" points="317.43,-163.3 328.02,-163.1 319.62,-156.65 317.43,-163.3"/>
</a>
</g>
</g>
<!-- Node5 -->
<g id="Node000005" class="node">
<title>Node5</title>
<g id="a_Node000005"><a xlink:href="namespaceLGE_1_1LxFS.html#a5684a30f3fa2906f4dafed0258a79166" target="_top" xlink:title=" ">
<polygon fill="white" stroke="#666666" points="424.5,-146 304.25,-146 304.25,-126 424.5,-126 424.5,-146"/>
<text xml:space="preserve" text-anchor="middle" x="364.38" y="-132.5" font-family="Helvetica,sans-Serif" font-size="10.00">LGE::LxFS::IsInitialized</text>
</a>
</g>
</g>
<!-- Node2&#45;&gt;Node5 -->
<g id="edge4_Node000002_Node000005" class="edge">
<title>Node2&#45;&gt;Node5</title>
<g id="a_edge4_Node000002_Node000005"><a xlink:title=" ">
<path fill="none" stroke="#63b8ff" d="M260.81,-123.27C271.03,-124.54 281.94,-125.9 292.7,-127.23"/>
<polygon fill="#63b8ff" stroke="#63b8ff" points="291.97,-130.67 302.32,-128.42 292.83,-123.72 291.97,-130.67"/>
</a>
</g>
</g>
<!-- Node6 -->
<g id="Node000006" class="node">
<title>Node6</title>
<g id="a_Node000006"><a xlink:href="namespaceLGE_1_1VFS.html#abb5d35abfe80efe2f7a07394ad5b706a" target="_top" xlink:title=" ">
<polygon fill="white" stroke="#666666" points="582.62,-108 463.88,-108 463.88,-88 582.62,-88 582.62,-108"/>
<text xml:space="preserve" text-anchor="middle" x="523.25" y="-94.5" font-family="Helvetica,sans-Serif" font-size="10.00">LGE::VFS::IsReadOnly</text>
</a>
</g>
</g>
<!-- Node2&#45;&gt;Node6 -->
<g id="edge5_Node000002_Node000006" class="edge">
<title>Node2&#45;&gt;Node6</title>
<g id="a_edge5_Node000002_Node000006"><a xlink:title=" ">
<path fill="none" stroke="#63b8ff" d="M260.72,-113.93C312.71,-110.76 394.12,-105.8 452.3,-102.26"/>
<polygon fill="#63b8ff" stroke="#63b8ff" points="452.33,-105.76 462.09,-101.66 451.9,-98.78 452.33,-105.76"/>
</a>
</g>
</g>
<!-- Node9 -->
<g id="Node000009" class="node">
<title>Node9</title>
<g id="a_Node000009"><a xlink:href="namespaceLGE_1_1LxFS.html#a12aeb6699602f14153953dceb4284914" target="_top" xlink:title=" ">
<polygon fill="white" stroke="#666666" points="412.5,-70 316.25,-70 316.25,-50 412.5,-50 412.5,-70"/>
<text xml:space="preserve" text-anchor="middle" x="364.38" y="-56.5" font-family="Helvetica,sans-Serif" font-size="10.00">LGE::LxFS::Paths</text>
</a>
</g>
</g>
<!-- Node2&#45;&gt;Node9 -->
<g id="edge10_Node000002_Node000009" class="edge">
<title>Node2&#45;&gt;Node9</title>
<g id="a_edge10_Node000002_Node000009"><a xlink:title=" ">
<path fill="none" stroke="#63b8ff" d="M238.34,-106.55C262.54,-97.53 297.73,-84.43 324.62,-74.43"/>
<polygon fill="#63b8ff" stroke="#63b8ff" points="325.64,-77.78 333.79,-71.01 323.2,-71.22 325.64,-77.78"/>
</a>
</g>
</g>
<!-- Node10 -->
<g id="Node000010" class="node">
<title>Node10</title>
<g id="a_Node000010"><a xlink:href="namespaceLGE_1_1VFS.html#aee891612cc393155878775a61e486c0b" target="_top" xlink:title=" ">
<polygon fill="white" stroke="#666666" points="586,-184 460.5,-184 460.5,-164 586,-164 586,-184"/>
<text xml:space="preserve" text-anchor="middle" x="523.25" y="-170.5" font-family="Helvetica,sans-Serif" font-size="10.00">LGE::VFS::ToVirtualPath</text>
</a>
</g>
</g>
<!-- Node2&#45;&gt;Node10 -->
<g id="edge11_Node000002_Node000010" class="edge">
<title>Node2&#45;&gt;Node10</title>
<g id="a_edge11_Node000002_Node000010"><a xlink:title=" ">
<path fill="none" stroke="#63b8ff" d="M218.75,-127.45C233.79,-145.02 267.05,-179.84 304.25,-193 362.9,-213.74 435.71,-200.18 480.57,-187.71"/>
<polygon fill="#63b8ff" stroke="#63b8ff" points="481.54,-191.07 490.17,-184.92 479.59,-184.35 481.54,-191.07"/>
</a>
</g>
</g>
<!-- Node2&#45;&gt;Node11 -->
<g id="edge14_Node000002_Node000011" class="edge">
<title>Node2&#45;&gt;Node11</title>
<g id="a_edge14_Node000002_Node000011"><a xlink:title=" ">
<path fill="none" stroke="#63b8ff" d="M224.87,-106.8C236.79,-98.33 253.94,-85.81 268.25,-74 284.99,-60.18 285.48,-51.91 304.25,-41 306.87,-39.48 309.63,-38.06 312.46,-36.75"/>
<polygon fill="#63b8ff" stroke="#63b8ff" points="313.63,-40.05 321.53,-32.99 310.95,-33.58 313.63,-40.05"/>
</a>
</g>
</g>
<!-- Node7 -->
<g id="Node000007" class="node">
<title>Node7</title>
<g id="a_Node000007"><a xlink:href="namespaceLGE_1_1LxPath.html#ab664986e94ce09aa029f9eb2fcf50133" target="_top" xlink:title=" ">
<polygon fill="white" stroke="#666666" points="746,-146 622,-146 622,-126 746,-126 746,-146"/>
<text xml:space="preserve" text-anchor="middle" x="684" y="-132.5" font-family="Helvetica,sans-Serif" font-size="10.00">LGE::LxPath::IsSubPath</text>
</a>
</g>
</g>
<!-- Node6&#45;&gt;Node7 -->
<g id="edge6_Node000006_Node000007" class="edge">
<title>Node6&#45;&gt;Node7</title>
<g id="a_edge6_Node000006_Node000007"><a xlink:title=" ">
<path fill="none" stroke="#63b8ff" d="M568.05,-108.48C586.7,-112.95 608.66,-118.21 628.36,-122.92"/>
<polygon fill="#63b8ff" stroke="#63b8ff" points="627.33,-126.27 637.87,-125.2 628.96,-119.47 627.33,-126.27"/>
</a>
</g>
</g>
<!-- Node8 -->
<g id="Node000008" class="node">
<title>Node8</title>
<g id="a_Node000008"><a xlink:href="namespaceLGE_1_1LxPath.html#a314a60ce690c90f4ee0b4e64c0199408" target="_top" xlink:title=" ">
<polygon fill="white" stroke="#666666" points="904.5,-146 782,-146 782,-126 904.5,-126 904.5,-146"/>
<text xml:space="preserve" text-anchor="middle" x="843.25" y="-132.5" font-family="Helvetica,sans-Serif" font-size="10.00">LGE::LxPath::Normalize</text>
</a>
</g>
</g>
<!-- Node6&#45;&gt;Node8 -->
<g id="edge9_Node000006_Node000008" class="edge">
<title>Node6&#45;&gt;Node8</title>
<g id="a_edge9_Node000006_Node000008"><a xlink:title=" ">
<path fill="none" stroke="#63b8ff" d="M582.81,-101.26C627.63,-104.19 690.91,-109.23 746,-117 758.27,-118.73 771.33,-121.01 783.75,-123.39"/>
<polygon fill="#63b8ff" stroke="#63b8ff" points="782.97,-126.8 793.45,-125.3 784.32,-119.93 782.97,-126.8"/>
</a>
</g>
</g>
<!-- Node7&#45;&gt;Node8 -->
<g id="edge7_Node000007_Node000008" class="edge">
<title>Node7&#45;&gt;Node8</title>
<g id="a_edge7_Node000007_Node000008"><a xlink:title=" ">
<path fill="none" stroke="#63b8ff" d="M746.25,-136C754.16,-136 762.32,-136 770.38,-136"/>
<polygon fill="#63b8ff" stroke="#63b8ff" points="770.17,-139.5 780.17,-136 770.17,-132.5 770.17,-139.5"/>
</a>
</g>
</g>
<!-- Node8&#45;&gt;Node3 -->
<g id="edge8_Node000008_Node000003" class="edge">
<title>Node8&#45;&gt;Node3</title>
<g id="a_edge8_Node000008_Node000003"><a xlink:title=" ">
<path fill="none" stroke="#63b8ff" d="M904.9,-136C912.92,-136 921.09,-136 928.95,-136"/>
<polygon fill="#63b8ff" stroke="#63b8ff" points="928.7,-139.5 938.7,-136 928.7,-132.5 928.7,-139.5"/>
</a>
</g>
</g>
<!-- Node10&#45;&gt;Node7 -->
<g id="edge12_Node000010_Node000007" class="edge">
<title>Node10&#45;&gt;Node7</title>
<g id="a_edge12_Node000010_Node000007"><a xlink:title=" ">
<path fill="none" stroke="#63b8ff" d="M568.05,-163.52C586.7,-159.05 608.66,-153.79 628.36,-149.08"/>
<polygon fill="#63b8ff" stroke="#63b8ff" points="628.96,-152.53 637.87,-146.8 627.33,-145.73 628.96,-152.53"/>
</a>
</g>
</g>
<!-- Node10&#45;&gt;Node8 -->
<g id="edge13_Node000010_Node000008" class="edge">
<title>Node10&#45;&gt;Node8</title>
<g id="a_edge13_Node000010_Node000008"><a xlink:title=" ">
<path fill="none" stroke="#63b8ff" d="M586.11,-170.52C630.7,-167.57 692.24,-162.59 746,-155 758.27,-153.27 771.33,-150.99 783.75,-148.61"/>
<polygon fill="#63b8ff" stroke="#63b8ff" points="784.32,-152.07 793.45,-146.7 782.97,-145.2 784.32,-152.07"/>
</a>
</g>
</g>
<!-- Node11&#45;&gt;Node3 -->
<g id="edge15_Node000011_Node000003" class="edge">
<title>Node11&#45;&gt;Node3</title>
<g id="a_edge15_Node000011_Node000003"><a xlink:title=" ">
<path fill="none" stroke="#63b8ff" d="M418.4,-30.13C515.31,-45.26 727.35,-79.62 904.5,-117 912.85,-118.76 921.67,-120.78 930.24,-122.83"/>
<polygon fill="#63b8ff" stroke="#63b8ff" points="929.3,-126.21 939.84,-125.17 930.96,-119.4 929.3,-126.21"/>
</a>
</g>
</g>
<!-- Node11&#45;&gt;Node6 -->
<g id="edge16_Node000011_Node000006" class="edge">
<title>Node11&#45;&gt;Node6</title>
<g id="a_edge16_Node000011_Node000006"><a xlink:title=" ">
<path fill="none" stroke="#63b8ff" d="M402.11,-32.44C409.63,-34.95 417.41,-37.84 424.5,-41 450.36,-52.53 478.07,-69.14 497.37,-81.46"/>
<polygon fill="#63b8ff" stroke="#63b8ff" points="495.33,-84.31 505.62,-86.81 499.13,-78.43 495.33,-84.31"/>
</a>
</g>
</g>
</g>
</svg>
