<?xml version="1.0" encoding="UTF-8" standalone="no"?>
<!DOCTYPE svg PUBLIC "-//W3C//DTD SVG 1.1//EN"
 "http://www.w3.org/Graphics/SVG/1.1/DTD/svg11.dtd">
<!-- Generated by graphviz version 14.0.2 (20251019.1705)
 -->
<!-- Title: Benchmark_Registry_Search_Path Pages: 1 -->
<svg width="1144pt" height="850pt"
 viewBox="0.00 0.00 1144.00 850.00" xmlns="http://www.w3.org/2000/svg" xmlns:xlink="http://www.w3.org/1999/xlink">
<g id="graph0" class="graph" transform="scale(1 1) rotate(0) translate(4 845.71)">
<title>Benchmark_Registry_Search_Path</title>
<!-- Node1 -->
<g id="Node000001" class="node">
<title>Node1</title>
<g id="a_Node000001"><a xlink:title=" ">
<polygon fill="#999999" stroke="#666666" points="107.5,-595.71 0,-595.71 0,-563.71 107.5,-563.71 107.5,-595.71"/>
<text xml:space="preserve" text-anchor="start" x="8" y="-582.21" font-family="Helvetica,sans-Serif" font-size="10.00">Benchmark_Registry</text>
<text xml:space="preserve" text-anchor="middle" x="53.75" y="-570.21" font-family="Helvetica,sans-Serif" font-size="10.00">_Search_Path</text>
</a>
</g>
</g>
<!-- Node2 -->
<g id="Node000002" class="node">
<title>Node2</title>
<g id="a_Node000002"><a xlink:href="classLGE_1_1Testing_1_1TestUtils.html#a1f77aba432e3b29480c1688b716d86cf" target="_top" xlink:title=" ">
<polygon fill="white" stroke="#666666" points="263.75,-803.71 145.75,-803.71 145.75,-771.71 263.75,-771.71 263.75,-803.71"/>
<text xml:space="preserve" text-anchor="start" x="153.75" y="-790.21" font-family="Helvetica,sans-Serif" font-size="10.00">LGE::Testing::TestUtils</text>
<text xml:space="preserve" text-anchor="middle" x="204.75" y="-778.21" font-family="Helvetica,sans-Serif" font-size="10.00">::CleanupTestProject</text>
</a>
</g>
</g>
<!-- Node1&#45;&gt;Node2 -->
<g id="edge1_Node000001_Node000002" class="edge">
<title>Node1&#45;&gt;Node2</title>
<g id="a_edge1_Node000001_Node000002"><a xlink:title=" ">
<path fill="none" stroke="#63b8ff" d="M59.05,-596.06C68.77,-630.14 95.39,-709.63 143.5,-757.71 146.23,-760.44 149.25,-762.96 152.45,-765.29"/>
<polygon fill="#63b8ff" stroke="#63b8ff" points="150.26,-768.04 160.57,-770.5 154.05,-762.15 150.26,-768.04"/>
</a>
</g>
</g>
<!-- Node3 -->
<g id="Node000003" class="node">
<title>Node3</title>
<g id="a_Node000003"><a xlink:href="namespaceLGE_1_1AssetRegistry.html#a0e507381944dcdfc25afc215e2fdc0fd" target="_top" xlink:title=" ">
<polygon fill="white" stroke="#666666" points="430.88,-411.71 327.12,-411.71 327.12,-379.71 430.88,-379.71 430.88,-411.71"/>
<text xml:space="preserve" text-anchor="start" x="335.12" y="-398.21" font-family="Helvetica,sans-Serif" font-size="10.00">LGE::AssetRegistry</text>
<text xml:space="preserve" text-anchor="middle" x="379" y="-386.21" font-family="Helvetica,sans-Serif" font-size="10.00">::Clear</text>
</a>
</g>
</g>
<!-- Node1&#45;&gt;Node3 -->
<g id="edge2_Node000001_Node000003" class="edge">
<title>Node1&#45;&gt;Node3</title>
<g id="a_edge2_Node000001_Node000003"><a xlink:title=" ">
<path fill="none" stroke="#63b8ff" d="M66.2,-563.45C81.61,-542.62 110.89,-506.6 143.5,-484.71 196.78,-448.96 266.42,-424.88 315.93,-410.88"/>
<polygon fill="#63b8ff" stroke="#63b8ff" points="316.64,-414.31 325.34,-408.28 314.77,-407.57 316.64,-414.31"/>
</a>
</g>
</g>
<!-- Node5 -->
<g id="Node000005" class="node">
<title>Node5</title>
<g id="a_Node000005"><a xlink:href="namespaceLGE_1_1VFS.html#abb779fd365154cfbcb79fc4486a5b912" target="_top" xlink:title=" ">
<polygon fill="white" stroke="#666666" points="266,-695.71 143.5,-695.71 143.5,-675.71 266,-675.71 266,-695.71"/>
<text xml:space="preserve" text-anchor="middle" x="204.75" y="-682.21" font-family="Helvetica,sans-Serif" font-size="10.00">LGE::VFS::ClearMounts</text>
</a>
</g>
</g>
<!-- Node1&#45;&gt;Node5 -->
<g id="edge4_Node000001_Node000005" class="edge">
<title>Node1&#45;&gt;Node5</title>
<g id="a_edge4_Node000001_Node000005"><a xlink:title=" ">
<path fill="none" stroke="#63b8ff" d="M77.7,-596.05C105.45,-615.79 151.91,-648.84 180.01,-668.83"/>
<polygon fill="#63b8ff" stroke="#63b8ff" points="177.71,-671.49 187.89,-674.43 181.77,-665.78 177.71,-671.49"/>
</a>
</g>
</g>
<!-- Node6 -->
<g id="Node000006" class="node">
<title>Node6</title>
<g id="a_Node000006"><a xlink:href="classLGE_1_1Testing_1_1TestUtils.html#ace2f7af3775195fcf072f0c09c966af3" target="_top" xlink:title=" ">
<polygon fill="white" stroke="#666666" points="263.75,-252.71 145.75,-252.71 145.75,-220.71 263.75,-220.71 263.75,-252.71"/>
<text xml:space="preserve" text-anchor="start" x="153.75" y="-239.21" font-family="Helvetica,sans-Serif" font-size="10.00">LGE::Testing::TestUtils</text>
<text xml:space="preserve" text-anchor="middle" x="204.75" y="-227.21" font-family="Helvetica,sans-Serif" font-size="10.00">::CreateTestProject</text>
</a>
</g>
</g>
<!-- Node1&#45;&gt;Node6 -->
<g id="edge6_Node000001_Node000006" class="edge">
<title>Node1&#45;&gt;Node6</title>
<g id="a_edge6_Node000001_Node000006"><a xlink:title=" ">
<path fill="none" stroke="#63b8ff" d="M59.91,-563.26C72.38,-524.19 105.89,-423.1 143.5,-342.71 156.68,-314.54 174.58,-283.78 187.44,-262.69"/>
<polygon fill="#63b8ff" stroke="#63b8ff" points="190.25,-264.81 192.51,-254.46 184.29,-261.14 190.25,-264.81"/>
</a>
</g>
</g>
<!-- Node8 -->
<g id="Node000008" class="node">
<title>Node8</title>
<g id="a_Node000008"><a xlink:href="namespaceLGE_1_1AssetRegistry.html#ac315fdb87be485fe8103d455b7e8a464" target="_top" xlink:title=" ">
<polygon fill="white" stroke="#666666" points="614.5,-765.71 510.75,-765.71 510.75,-733.71 614.5,-733.71 614.5,-765.71"/>
<text xml:space="preserve" text-anchor="start" x="518.75" y="-752.21" font-family="Helvetica,sans-Serif" font-size="10.00">LGE::AssetRegistry</text>
<text xml:space="preserve" text-anchor="middle" x="562.62" y="-740.21" font-family="Helvetica,sans-Serif" font-size="10.00">::FindByPath</text>
</a>
</g>
</g>
<!-- Node1&#45;&gt;Node8 -->
<g id="edge8_Node000001_Node000008" class="edge">
<title>Node1&#45;&gt;Node8</title>
<g id="a_edge8_Node000001_Node000008"><a xlink:title=" ">
<path fill="none" stroke="#63b8ff" d="M61.07,-596.13C72.71,-623.86 100.34,-679.41 143.5,-704.71 255.2,-770.21 412.8,-766.55 499.1,-758.13"/>
<polygon fill="#63b8ff" stroke="#63b8ff" points="499.45,-761.61 509.04,-757.1 498.73,-754.65 499.45,-761.61"/>
</a>
</g>
</g>
<!-- Node10 -->
<g id="Node000010" class="node">
<title>Node10</title>
<g id="a_Node000010"><a xlink:href="namespaceLGE_1_1AssetRegistry.html#af9345d56722e55e0a02cc2b1c421da76" target="_top" xlink:title=" ">
<polygon fill="white" stroke="#666666" points="256.62,-525.71 152.88,-525.71 152.88,-493.71 256.62,-493.71 256.62,-525.71"/>
<text xml:space="preserve" text-anchor="start" x="160.88" y="-512.21" font-family="Helvetica,sans-Serif" font-size="10.00">LGE::AssetRegistry</text>
<text xml:space="preserve" text-anchor="middle" x="204.75" y="-500.21" font-family="Helvetica,sans-Serif" font-size="10.00">::FullScan</text>
</a>
</g>
</g>
<!-- Node1&#45;&gt;Node10 -->
<g id="edge10_Node000001_Node000010" class="edge">
<title>Node1&#45;&gt;Node10</title>
<g id="a_edge10_Node000001_Node000010"><a xlink:title=" ">
<path fill="none" stroke="#63b8ff" d="M89.68,-563.3C110.25,-553.64 136.49,-541.31 158.61,-530.92"/>
<polygon fill="#63b8ff" stroke="#63b8ff" points="159.84,-534.21 167.41,-526.79 156.87,-527.87 159.84,-534.21"/>
</a>
</g>
</g>
<!-- Node19 -->
<g id="Node000019" class="node">
<title>Node19</title>
<g id="a_Node000019"><a xlink:href="namespaceLGE_1_1VFS.html#a5cea8543475162be752c71971f1f4e85" target="_top" xlink:title=" ">
<polygon fill="white" stroke="#666666" points="629.88,-661.71 495.38,-661.71 495.38,-629.71 629.88,-629.71 629.88,-661.71"/>
<text xml:space="preserve" text-anchor="start" x="503.38" y="-648.21" font-family="Helvetica,sans-Serif" font-size="10.00">LGE::VFS::InitializeDefault</text>
<text xml:space="preserve" text-anchor="middle" x="562.62" y="-636.21" font-family="Helvetica,sans-Serif" font-size="10.00">Mounts</text>
</a>
</g>
</g>
<!-- Node1&#45;&gt;Node19 -->
<g id="edge22_Node000001_Node000019" class="edge">
<title>Node1&#45;&gt;Node19</title>
<g id="a_edge22_Node000001_Node000019"><a xlink:title=" ">
<path fill="none" stroke="#63b8ff" d="M107.56,-586.59C197.13,-598.25 379.26,-621.97 483.58,-635.55"/>
<polygon fill="#63b8ff" stroke="#63b8ff" points="483.1,-639.02 493.47,-636.84 484.01,-632.08 483.1,-639.02"/>
</a>
</g>
</g>
<!-- Node23 -->
<g id="Node000023" class="node">
<title>Node23</title>
<g id="a_Node000023"><a xlink:href="namespaceLGE_1_1LxFS.html#a40efc6a314cff464d1050243706eb8d8" target="_top" xlink:title=" ">
<polygon fill="white" stroke="#666666" points="447.75,-278.71 310.25,-278.71 310.25,-258.71 447.75,-258.71 447.75,-278.71"/>
<text xml:space="preserve" text-anchor="middle" x="379" y="-265.21" font-family="Helvetica,sans-Serif" font-size="10.00">LGE::LxFS::InitializeProject</text>
</a>
</g>
</g>
<!-- Node1&#45;&gt;Node23 -->
<g id="edge31_Node000001_Node000023" class="edge">
<title>Node1&#45;&gt;Node23</title>
<g id="a_edge31_Node000001_Node000023"><a xlink:title=" ">
<path fill="none" stroke="#63b8ff" d="M60.99,-563.65C73.25,-533.64 102.83,-468.2 143.5,-424.71 204.05,-359.97 296.44,-308.69 345.21,-284.28"/>
<polygon fill="#63b8ff" stroke="#63b8ff" points="346.72,-287.44 354.14,-279.87 343.62,-281.16 346.72,-287.44"/>
</a>
</g>
</g>
<!-- Node4 -->
<g id="Node000004" class="node">
<title>Node4</title>
<g id="a_Node000004"><a xlink:href="classLGE_1_1Log.html#ab0265ee050b8873a2fd31fbdb696ced0" target="_top" xlink:title=" ">
<polygon fill="white" stroke="#666666" points="978.75,-430.71 899,-430.71 899,-410.71 978.75,-410.71 978.75,-430.71"/>
<text xml:space="preserve" text-anchor="middle" x="938.88" y="-417.21" font-family="Helvetica,sans-Serif" font-size="10.00">LGE::Log::Info</text>
</a>
</g>
</g>
<!-- Node3&#45;&gt;Node4 -->
<g id="edge3_Node000003_Node000004" class="edge">
<title>Node3&#45;&gt;Node4</title>
<g id="a_edge3_Node000003_Node000004"><a xlink:title=" ">
<path fill="none" stroke="#63b8ff" d="M430.99,-398C537.28,-402.76 781.47,-413.71 887.36,-418.45"/>
<polygon fill="#63b8ff" stroke="#63b8ff" points="887.01,-421.94 897.16,-418.89 887.32,-414.95 887.01,-421.94"/>
</a>
</g>
</g>
<!-- Node5&#45;&gt;Node4 -->
<g id="edge5_Node000005_Node000004" class="edge">
<title>Node5&#45;&gt;Node4</title>
<g id="a_edge5_Node000005_Node000004"><a xlink:title=" ">
<path fill="none" stroke="#63b8ff" d="M266.31,-694.95C405.16,-714.71 741.07,-754.08 826.25,-686.71 880.7,-643.65 834.63,-598.41 862.25,-534.71 877.9,-498.62 904.96,-461.51 922.11,-439.81"/>
<polygon fill="#63b8ff" stroke="#63b8ff" points="924.72,-442.14 928.27,-432.16 919.27,-437.76 924.72,-442.14"/>
</a>
</g>
</g>
<!-- Node7 -->
<g id="Node000007" class="node">
<title>Node7</title>
<g id="a_Node000007"><a xlink:href="classLGE_1_1Testing_1_1TestUtils.html#a345e283ebede23eaacd1d9c9a1a8fb0d" target="_top" xlink:title=" ">
<polygon fill="white" stroke="#666666" points="438,-240.71 320,-240.71 320,-208.71 438,-208.71 438,-240.71"/>
<text xml:space="preserve" text-anchor="start" x="328" y="-227.21" font-family="Helvetica,sans-Serif" font-size="10.00">LGE::Testing::TestUtils</text>
<text xml:space="preserve" text-anchor="middle" x="379" y="-215.21" font-family="Helvetica,sans-Serif" font-size="10.00">::GetTempDir</text>
</a>
</g>
</g>
<!-- Node6&#45;&gt;Node7 -->
<g id="edge7_Node000006_Node000007" class="edge">
<title>Node6&#45;&gt;Node7</title>
<g id="a_edge7_Node000006_Node000007"><a xlink:title=" ">
<path fill="none" stroke="#63b8ff" d="M264.07,-232.65C278.38,-231.66 293.83,-230.58 308.61,-229.55"/>
<polygon fill="#63b8ff" stroke="#63b8ff" points="308.5,-233.07 318.23,-228.88 308.02,-226.08 308.5,-233.07"/>
</a>
</g>
</g>
<!-- Node9 -->
<g id="Node000009" class="node">
<title>Node9</title>
<g id="a_Node000009"><a xlink:href="namespaceLGE_1_1AssetRegistry.html#a9e672f9e3c8c62076b9156d1695e48b8" target="_top" xlink:title=" ">
<polygon fill="white" stroke="#666666" points="799.62,-841.71 695.88,-841.71 695.88,-809.71 799.62,-809.71 799.62,-841.71"/>
<text xml:space="preserve" text-anchor="start" x="703.88" y="-828.21" font-family="Helvetica,sans-Serif" font-size="10.00">LGE::AssetRegistry</text>
<text xml:space="preserve" text-anchor="middle" x="747.75" y="-816.21" font-family="Helvetica,sans-Serif" font-size="10.00">::FindByGUID</text>
</a>
</g>
</g>
<!-- Node8&#45;&gt;Node9 -->
<g id="edge9_Node000008_Node000009" class="edge">
<title>Node8&#45;&gt;Node9</title>
<g id="a_edge9_Node000008_Node000009"><a xlink:title=" ">
<path fill="none" stroke="#63b8ff" d="M600.13,-766.06C620.4,-775.02 646.13,-786.21 669.25,-795.71 676.86,-798.85 684.94,-802.07 692.88,-805.19"/>
<polygon fill="#63b8ff" stroke="#63b8ff" points="691.58,-808.44 702.17,-808.82 694.13,-801.92 691.58,-808.44"/>
</a>
</g>
</g>
<!-- Node10&#45;&gt;Node4 -->
<g id="edge20_Node000010_Node000004" class="edge">
<title>Node10&#45;&gt;Node4</title>
<g id="a_edge20_Node000010_Node000004"><a xlink:title=" ">
<path fill="none" stroke="#63b8ff" d="M229.45,-493.44C248.23,-481.5 275.6,-466.12 302,-458.71 330.02,-450.85 742.08,-430.22 887.51,-423.14"/>
<polygon fill="#63b8ff" stroke="#63b8ff" points="887.4,-426.65 897.21,-422.67 887.06,-419.66 887.4,-426.65"/>
</a>
</g>
</g>
<!-- Node11 -->
<g id="Node000011" class="node">
<title>Node11</title>
<g id="a_Node000011"><a xlink:href="namespaceLGE_1_1AssetRegistry.html#abf12143e6f506efd22e4ec9ef670134a" target="_top" xlink:title=" ">
<polygon fill="white" stroke="#666666" points="456,-537.71 302,-537.71 302,-505.71 456,-505.71 456,-537.71"/>
<text xml:space="preserve" text-anchor="start" x="310" y="-524.21" font-family="Helvetica,sans-Serif" font-size="10.00">LGE::AssetRegistry</text>
<text xml:space="preserve" text-anchor="middle" x="379" y="-512.21" font-family="Helvetica,sans-Serif" font-size="10.00">::BuildReverseDependencyMap</text>
</a>
</g>
</g>
<!-- Node10&#45;&gt;Node11 -->
<g id="edge11_Node000010_Node000011" class="edge">
<title>Node10&#45;&gt;Node11</title>
<g id="a_edge11_Node000010_Node000011"><a xlink:title=" ">
<path fill="none" stroke="#63b8ff" d="M256.96,-513.28C267.53,-514.02 278.93,-514.81 290.37,-515.61"/>
<polygon fill="#63b8ff" stroke="#63b8ff" points="290.06,-519.1 300.28,-516.3 290.55,-512.11 290.06,-519.1"/>
</a>
</g>
</g>
<!-- Node18 -->
<g id="Node000018" class="node">
<title>Node18</title>
<g id="a_Node000018"><a xlink:href="namespaceLGE_1_1VFS.html#a2c64330fbe1cbd5f66e79c29b43c3e87" target="_top" xlink:title=" ">
<polygon fill="white" stroke="#666666" points="436.5,-487.71 321.5,-487.71 321.5,-467.71 436.5,-467.71 436.5,-487.71"/>
<text xml:space="preserve" text-anchor="middle" x="379" y="-474.21" font-family="Helvetica,sans-Serif" font-size="10.00">LGE::VFS::ListMounts</text>
</a>
</g>
</g>
<!-- Node10&#45;&gt;Node18 -->
<g id="edge21_Node000010_Node000018" class="edge">
<title>Node10&#45;&gt;Node18</title>
<g id="a_edge21_Node000010_Node000018"><a xlink:title=" ">
<path fill="none" stroke="#63b8ff" d="M256.96,-500.2C273.72,-497.09 292.6,-493.58 310.37,-490.28"/>
<polygon fill="#63b8ff" stroke="#63b8ff" points="310.88,-493.74 320.08,-488.48 309.61,-486.86 310.88,-493.74"/>
</a>
</g>
</g>
<!-- Node11&#45;&gt;Node4 -->
<g id="edge13_Node000011_Node000004" class="edge">
<title>Node11&#45;&gt;Node4</title>
<g id="a_edge13_Node000011_Node000004"><a xlink:title=" ">
<path fill="none" stroke="#63b8ff" d="M456.15,-529.57C546.9,-536.22 701.87,-538.88 826.25,-496.71 862.45,-484.44 897.81,-456.98 918.72,-438.65"/>
<polygon fill="#63b8ff" stroke="#63b8ff" points="921.05,-441.26 926.14,-431.97 916.37,-436.06 921.05,-441.26"/>
</a>
</g>
</g>
<!-- Node11&#45;&gt;Node8 -->
<g id="edge12_Node000011_Node000008" class="edge">
<title>Node11&#45;&gt;Node8</title>
<g id="a_edge12_Node000011_Node000008"><a xlink:title=" ">
<path fill="none" stroke="#63b8ff" d="M391.69,-538.13C411.64,-565.92 453.78,-623.79 492,-670.71 507.15,-689.32 525.07,-709.61 538.93,-724.97"/>
<polygon fill="#63b8ff" stroke="#63b8ff" points="536.24,-727.22 545.56,-732.27 541.43,-722.51 536.24,-727.22"/>
</a>
</g>
</g>
<!-- Node12 -->
<g id="Node000012" class="node">
<title>Node12</title>
<g id="a_Node000012"><a xlink:href="namespaceLGE_1_1VFS.html#a9eb41e42c96a4f5358c79e30afb579cc" target="_top" xlink:title=" ">
<polygon fill="white" stroke="#666666" points="633.25,-487.71 492,-487.71 492,-467.71 633.25,-467.71 633.25,-487.71"/>
<text xml:space="preserve" text-anchor="middle" x="562.62" y="-474.21" font-family="Helvetica,sans-Serif" font-size="10.00">LGE::VFS::ResolveAbsolute</text>
</a>
</g>
</g>
<!-- Node11&#45;&gt;Node12 -->
<g id="edge14_Node000011_Node000012" class="edge">
<title>Node11&#45;&gt;Node12</title>
<g id="a_edge14_Node000011_Node000012"><a xlink:title=" ">
<path fill="none" stroke="#63b8ff" d="M447.89,-505.27C467.51,-500.52 488.65,-495.39 507.32,-490.87"/>
<polygon fill="#63b8ff" stroke="#63b8ff" points="507.93,-494.32 516.83,-488.57 506.28,-487.52 507.93,-494.32"/>
</a>
</g>
</g>
<!-- Node13 -->
<g id="Node000013" class="node">
<title>Node13</title>
<g id="a_Node000013"><a xlink:href="namespaceLGE_1_1VFS.html#a0566c02123208c6b867418e914f9574b" target="_top" xlink:title=" ">
<polygon fill="white" stroke="#666666" points="802.62,-487.71 692.88,-487.71 692.88,-467.71 802.62,-467.71 802.62,-487.71"/>
<text xml:space="preserve" text-anchor="middle" x="747.75" y="-474.21" font-family="Helvetica,sans-Serif" font-size="10.00">LGE::VFS::GetMount</text>
</a>
</g>
</g>
<!-- Node12&#45;&gt;Node13 -->
<g id="edge15_Node000012_Node000013" class="edge">
<title>Node12&#45;&gt;Node13</title>
<g id="a_edge15_Node000012_Node000013"><a xlink:title=" ">
<path fill="none" stroke="#63b8ff" d="M633.64,-477.71C649.17,-477.71 665.58,-477.71 680.93,-477.71"/>
<polygon fill="#63b8ff" stroke="#63b8ff" points="680.92,-481.21 690.92,-477.71 680.92,-474.21 680.92,-481.21"/>
</a>
</g>
</g>
<!-- Node14 -->
<g id="Node000014" class="node">
<title>Node14</title>
<g id="a_Node000014"><a xlink:href="namespaceLGE_1_1LxPath.html#a94ec3bdfd6948ddc25cda5d18154d4cf" target="_top" xlink:title=" ">
<polygon fill="white" stroke="#666666" points="795.88,-563.71 699.62,-563.71 699.62,-543.71 795.88,-543.71 795.88,-563.71"/>
<text xml:space="preserve" text-anchor="middle" x="747.75" y="-550.21" font-family="Helvetica,sans-Serif" font-size="10.00">LGE::LxPath::Join</text>
</a>
</g>
</g>
<!-- Node12&#45;&gt;Node14 -->
<g id="edge16_Node000012_Node000014" class="edge">
<title>Node12&#45;&gt;Node14</title>
<g id="a_edge16_Node000012_Node000014"><a xlink:title=" ">
<path fill="none" stroke="#63b8ff" d="M588.7,-488.12C620.4,-501.28 675.14,-524 711.15,-538.94"/>
<polygon fill="#63b8ff" stroke="#63b8ff" points="709.71,-542.13 720.28,-542.73 712.39,-535.66 709.71,-542.13"/>
</a>
</g>
</g>
<!-- Node17 -->
<g id="Node000017" class="node">
<title>Node17</title>
<g id="a_Node000017"><a xlink:href="classLGE_1_1Log.html#aa6f98018af29c23dd7f574d3df5dda5e" target="_top" xlink:title=" ">
<polygon fill="white" stroke="#666666" points="790.62,-145.71 704.88,-145.71 704.88,-125.71 790.62,-125.71 790.62,-145.71"/>
<text xml:space="preserve" text-anchor="middle" x="747.75" y="-132.21" font-family="Helvetica,sans-Serif" font-size="10.00">LGE::Log::Warn</text>
</a>
</g>
</g>
<!-- Node12&#45;&gt;Node17 -->
<g id="edge19_Node000012_Node000017" class="edge">
<title>Node12&#45;&gt;Node17</title>
<g id="a_edge19_Node000012_Node000017"><a xlink:title=" ">
<path fill="none" stroke="#63b8ff" d="M566.89,-467.34C578.12,-432.41 617.34,-316.5 669.25,-230.71 686.6,-202.05 711.91,-172.72 728.84,-154.38"/>
<polygon fill="#63b8ff" stroke="#63b8ff" points="731.3,-156.87 735.58,-147.18 726.19,-152.08 731.3,-156.87"/>
</a>
</g>
</g>
<!-- Node15 -->
<g id="Node000015" class="node">
<title>Node15</title>
<g id="a_Node000015"><a xlink:href="namespaceLGE_1_1LxPath.html#a314a60ce690c90f4ee0b4e64c0199408" target="_top" xlink:title=" ">
<polygon fill="white" stroke="#666666" points="1000.12,-563.71 877.62,-563.71 877.62,-543.71 1000.12,-543.71 1000.12,-563.71"/>
<text xml:space="preserve" text-anchor="middle" x="938.88" y="-550.21" font-family="Helvetica,sans-Serif" font-size="10.00">LGE::LxPath::Normalize</text>
</a>
</g>
</g>
<!-- Node14&#45;&gt;Node15 -->
<g id="edge17_Node000014_Node000015" class="edge">
<title>Node14&#45;&gt;Node15</title>
<g id="a_edge17_Node000014_Node000015"><a xlink:title=" ">
<path fill="none" stroke="#63b8ff" d="M795.99,-553.71C817.14,-553.71 842.55,-553.71 865.99,-553.71"/>
<polygon fill="#63b8ff" stroke="#63b8ff" points="865.8,-557.21 875.8,-553.71 865.8,-550.21 865.8,-557.21"/>
</a>
</g>
</g>
<!-- Node16 -->
<g id="Node000016" class="node">
<title>Node16</title>
<g id="a_Node000016"><a xlink:href="classLGE_1_1Log.html#a53f3f4b8797ffd18145739c9e66d690a" target="_top" xlink:title=" ">
<polygon fill="white" stroke="#666666" points="1135.75,-309.71 1051.5,-309.71 1051.5,-289.71 1135.75,-289.71 1135.75,-309.71"/>
<text xml:space="preserve" text-anchor="middle" x="1093.62" y="-296.21" font-family="Helvetica,sans-Serif" font-size="10.00">LGE::Log::Error</text>
</a>
</g>
</g>
<!-- Node15&#45;&gt;Node16 -->
<g id="edge18_Node000015_Node000016" class="edge">
<title>Node15&#45;&gt;Node16</title>
<g id="a_edge18_Node000015_Node000016"><a xlink:title=" ">
<path fill="none" stroke="#63b8ff" d="M947.26,-543.22C961.15,-523.34 991.87,-478.72 1015.5,-439.71 1040.77,-397.99 1067.7,-347.56 1082.1,-320.05"/>
<polygon fill="#63b8ff" stroke="#63b8ff" points="1085.08,-321.9 1086.6,-311.41 1078.87,-318.66 1085.08,-321.9"/>
</a>
</g>
</g>
<!-- Node19&#45;&gt;Node4 -->
<g id="edge24_Node000019_Node000004" class="edge">
<title>Node19&#45;&gt;Node4</title>
<g id="a_edge24_Node000019_Node000004"><a xlink:title=" ">
<path fill="none" stroke="#63b8ff" d="M610.43,-629.29C628.68,-623.12 649.84,-616.27 669.25,-610.71 738.27,-590.96 766.49,-612.5 826.25,-572.71 852.54,-555.21 902.61,-477.74 925.68,-440.65"/>
<polygon fill="#63b8ff" stroke="#63b8ff" points="928.61,-442.57 930.88,-432.23 922.65,-438.9 928.61,-442.57"/>
</a>
</g>
</g>
<!-- Node19&#45;&gt;Node16 -->
<g id="edge23_Node000019_Node000016" class="edge">
<title>Node19&#45;&gt;Node16</title>
<g id="a_edge23_Node000019_Node000016"><a xlink:title=" ">
<path fill="none" stroke="#63b8ff" d="M577.81,-661.76C605.9,-693.49 666.19,-761.35 669.25,-762.71 817.05,-828.4 920.69,-781.75 1015.5,-650.71 1054.5,-596.82 1082.04,-389.14 1090.15,-321.3"/>
<polygon fill="#63b8ff" stroke="#63b8ff" points="1093.61,-321.84 1091.3,-311.5 1086.66,-321.03 1093.61,-321.84"/>
</a>
</g>
</g>
<!-- Node20 -->
<g id="Node000020" class="node">
<title>Node20</title>
<g id="a_Node000020"><a xlink:href="namespaceLGE_1_1LxFS.html#a5684a30f3fa2906f4dafed0258a79166" target="_top" xlink:title=" ">
<polygon fill="white" stroke="#666666" points="807.88,-677.71 687.62,-677.71 687.62,-657.71 807.88,-657.71 807.88,-677.71"/>
<text xml:space="preserve" text-anchor="middle" x="747.75" y="-664.21" font-family="Helvetica,sans-Serif" font-size="10.00">LGE::LxFS::IsInitialized</text>
</a>
</g>
</g>
<!-- Node19&#45;&gt;Node20 -->
<g id="edge25_Node000019_Node000020" class="edge">
<title>Node19&#45;&gt;Node20</title>
<g id="a_edge25_Node000019_Node000020"><a xlink:title=" ">
<path fill="none" stroke="#63b8ff" d="M630.26,-653.72C645.09,-655.5 660.86,-657.4 675.86,-659.2"/>
<polygon fill="#63b8ff" stroke="#63b8ff" points="675.3,-662.66 685.64,-660.37 676.13,-655.71 675.3,-662.66"/>
</a>
</g>
</g>
<!-- Node21 -->
<g id="Node000021" class="node">
<title>Node21</title>
<g id="a_Node000021"><a xlink:href="namespaceLGE_1_1VFS.html#a54b012d377481aa3685b372a196259ed" target="_top" xlink:title=" ">
<polygon fill="white" stroke="#666666" points="804.88,-753.71 690.62,-753.71 690.62,-733.71 804.88,-733.71 804.88,-753.71"/>
<text xml:space="preserve" text-anchor="middle" x="747.75" y="-740.21" font-family="Helvetica,sans-Serif" font-size="10.00">LGE::VFS::MountPath</text>
</a>
</g>
</g>
<!-- Node19&#45;&gt;Node21 -->
<g id="edge26_Node000019_Node000021" class="edge">
<title>Node19&#45;&gt;Node21</title>
<g id="a_edge26_Node000019_Node000021"><a xlink:title=" ">
<path fill="none" stroke="#63b8ff" d="M594.28,-662.12C628.6,-680.49 683.83,-710.04 717.55,-728.09"/>
<polygon fill="#63b8ff" stroke="#63b8ff" points="715.48,-730.95 725.95,-732.58 718.78,-724.78 715.48,-730.95"/>
</a>
</g>
</g>
<!-- Node22 -->
<g id="Node000022" class="node">
<title>Node22</title>
<g id="a_Node000022"><a xlink:href="namespaceLGE_1_1LxFS.html#a12aeb6699602f14153953dceb4284914" target="_top" xlink:title=" ">
<polygon fill="white" stroke="#666666" points="795.88,-639.71 699.62,-639.71 699.62,-619.71 795.88,-619.71 795.88,-639.71"/>
<text xml:space="preserve" text-anchor="middle" x="747.75" y="-626.21" font-family="Helvetica,sans-Serif" font-size="10.00">LGE::LxFS::Paths</text>
</a>
</g>
</g>
<!-- Node19&#45;&gt;Node22 -->
<g id="edge30_Node000019_Node000022" class="edge">
<title>Node19&#45;&gt;Node22</title>
<g id="a_edge30_Node000019_Node000022"><a xlink:title=" ">
<path fill="none" stroke="#63b8ff" d="M630.26,-639.89C649.14,-638.24 669.55,-636.46 687.93,-634.85"/>
<polygon fill="#63b8ff" stroke="#63b8ff" points="688.22,-638.34 697.87,-633.99 687.61,-631.37 688.22,-638.34"/>
</a>
</g>
</g>
<!-- Node21&#45;&gt;Node4 -->
<g id="edge28_Node000021_Node000004" class="edge">
<title>Node21&#45;&gt;Node4</title>
<g id="a_edge28_Node000021_Node000004"><a xlink:title=" ">
<path fill="none" stroke="#63b8ff" d="M805.16,-734.28C813.11,-730.82 820.51,-726.11 826.25,-719.71 882.19,-657.37 830.48,-612.22 862.25,-534.71 877.09,-498.51 904.15,-461.68 921.56,-440.03"/>
<polygon fill="#63b8ff" stroke="#63b8ff" points="924.2,-442.33 927.84,-432.38 918.79,-437.89 924.2,-442.33"/>
</a>
</g>
</g>
<!-- Node21&#45;&gt;Node15 -->
<g id="edge29_Node000021_Node000015" class="edge">
<title>Node21&#45;&gt;Node15</title>
<g id="a_edge29_Node000021_Node000015"><a xlink:title=" ">
<path fill="none" stroke="#63b8ff" d="M801.97,-733.25C810.68,-729.91 819.16,-725.51 826.25,-719.71 852.11,-698.55 844.12,-681.78 862.25,-653.71 881.14,-624.46 905.95,-592.72 921.91,-573.02"/>
<polygon fill="#63b8ff" stroke="#63b8ff" points="924.59,-575.27 928.21,-565.31 919.17,-570.84 924.59,-575.27"/>
</a>
</g>
</g>
<!-- Node21&#45;&gt;Node16 -->
<g id="edge27_Node000021_Node000016" class="edge">
<title>Node21&#45;&gt;Node16</title>
<g id="a_edge27_Node000021_Node000016"><a xlink:title=" ">
<path fill="none" stroke="#63b8ff" d="M792.08,-733.3C803.52,-729.75 815.63,-725.25 826.25,-719.71 920.7,-670.5 955.99,-661.04 1015.5,-572.71 1070.57,-490.98 1086.67,-370.21 1091.08,-321.38"/>
<polygon fill="#63b8ff" stroke="#63b8ff" points="1094.55,-321.85 1091.87,-311.6 1087.57,-321.28 1094.55,-321.85"/>
</a>
</g>
</g>
<!-- Node23&#45;&gt;Node4 -->
<g id="edge36_Node000023_Node000004" class="edge">
<title>Node23&#45;&gt;Node4</title>
<g id="a_edge36_Node000023_Node000004"><a xlink:title=" ">
<path fill="none" stroke="#63b8ff" d="M418.35,-279.16C516.9,-306.01 778.96,-377.42 888.58,-407.28"/>
<polygon fill="#63b8ff" stroke="#63b8ff" points="887.6,-410.64 898.17,-409.9 889.44,-403.89 887.6,-410.64"/>
</a>
</g>
</g>
<!-- Node23&#45;&gt;Node16 -->
<g id="edge35_Node000023_Node000016" class="edge">
<title>Node23&#45;&gt;Node16</title>
<g id="a_edge35_Node000023_Node000016"><a xlink:title=" ">
<path fill="none" stroke="#63b8ff" d="M444.17,-258.33C448.49,-255.98 452.5,-253.14 456,-249.71 499.72,-206.83 445.76,-156.86 492,-116.71 667.79,35.91 825.05,35.18 1015.5,-98.71 1075.2,-140.69 1088.7,-235.57 1091.74,-278.23"/>
<polygon fill="#63b8ff" stroke="#63b8ff" points="1088.23,-278.16 1092.3,-287.94 1095.22,-277.76 1088.23,-278.16"/>
</a>
</g>
</g>
<!-- Node23&#45;&gt;Node17 -->
<g id="edge50_Node000023_Node000017" class="edge">
<title>Node23&#45;&gt;Node17</title>
<g id="a_edge50_Node000023_Node000017"><a xlink:title=" ">
<path fill="none" stroke="#63b8ff" d="M429.19,-258.26C438.23,-255.82 447.49,-252.97 456,-249.71 472.9,-243.25 475.58,-238.31 492,-230.71 569.02,-195.08 589.26,-188.07 669.25,-159.71 679.19,-156.19 689.95,-152.67 700.2,-149.46"/>
<polygon fill="#63b8ff" stroke="#63b8ff" points="701.09,-152.85 709.61,-146.56 699.02,-146.16 701.09,-152.85"/>
</a>
</g>
</g>
<!-- Node24 -->
<g id="Node000024" class="node">
<title>Node24</title>
<g id="a_Node000024"><a xlink:href="namespaceLGE_1_1LxFS.html#afaba8b74a530d174bcd4849ffe5b7c75" target="_top" xlink:title=" ">
<polygon fill="white" stroke="#666666" points="631,-145.71 494.25,-145.71 494.25,-125.71 631,-125.71 631,-145.71"/>
<text xml:space="preserve" text-anchor="middle" x="562.62" y="-132.21" font-family="Helvetica,sans-Serif" font-size="10.00">LGE::LxFS::EnsureScaffold</text>
</a>
</g>
</g>
<!-- Node23&#45;&gt;Node24 -->
<g id="edge32_Node000023_Node000024" class="edge">
<title>Node23&#45;&gt;Node24</title>
<g id="a_edge32_Node000023_Node000024"><a xlink:title=" ">
<path fill="none" stroke="#63b8ff" d="M441.55,-258.38C446.73,-256.04 451.64,-253.19 456,-249.71 483.66,-227.65 468.05,-204.76 492,-178.71 502.07,-167.77 515.54,-158.58 527.96,-151.55"/>
<polygon fill="#63b8ff" stroke="#63b8ff" points="529.54,-154.67 536.7,-146.87 526.23,-148.5 529.54,-154.67"/>
</a>
</g>
</g>
<!-- Node25 -->
<g id="Node000025" class="node">
<title>Node25</title>
<g id="a_Node000025"><a xlink:href="namespaceLGE_1_1LxFS.html#aa5a204e25e73c7d4ec733b032028351e" target="_top" xlink:title=" ">
<polygon fill="white" stroke="#666666" points="627.25,-259.71 498,-259.71 498,-239.71 627.25,-239.71 627.25,-259.71"/>
<text xml:space="preserve" text-anchor="middle" x="562.62" y="-246.21" font-family="Helvetica,sans-Serif" font-size="10.00">LGE::LxFS::LoadManifest</text>
</a>
</g>
</g>
<!-- Node23&#45;&gt;Node25 -->
<g id="edge37_Node000023_Node000025" class="edge">
<title>Node23&#45;&gt;Node25</title>
<g id="a_edge37_Node000023_Node000025"><a xlink:title=" ">
<path fill="none" stroke="#63b8ff" d="M448.15,-261.59C460.55,-260.29 473.57,-258.93 486.17,-257.61"/>
<polygon fill="#63b8ff" stroke="#63b8ff" points="486.51,-261.09 496.1,-256.57 485.79,-254.13 486.51,-261.09"/>
</a>
</g>
</g>
<!-- Node29 -->
<g id="Node000029" class="node">
<title>Node29</title>
<g id="a_Node000029"><a xlink:href="namespaceLGE_1_1LxFS.html#a6d72399c0ba33d7d484f7adbf4affc1e" target="_top" xlink:title=" ">
<polygon fill="white" stroke="#666666" points="813.12,-297.71 682.38,-297.71 682.38,-277.71 813.12,-277.71 813.12,-297.71"/>
<text xml:space="preserve" text-anchor="middle" x="747.75" y="-284.21" font-family="Helvetica,sans-Serif" font-size="10.00">LGE::LxFS::SaveManifest</text>
</a>
</g>
</g>
<!-- Node23&#45;&gt;Node29 -->
<g id="edge49_Node000023_Node000029" class="edge">
<title>Node23&#45;&gt;Node29</title>
<g id="a_edge49_Node000023_Node000029"><a xlink:title=" ">
<path fill="none" stroke="#63b8ff" d="M448.12,-272.24C511.24,-275.51 605,-280.37 670.57,-283.77"/>
<polygon fill="#63b8ff" stroke="#63b8ff" points="670.39,-287.26 680.56,-284.29 670.75,-280.27 670.39,-287.26"/>
</a>
</g>
</g>
<!-- Node24&#45;&gt;Node16 -->
<g id="edge33_Node000024_Node000016" class="edge">
<title>Node24&#45;&gt;Node16</title>
<g id="a_edge33_Node000024_Node000016"><a xlink:title=" ">
<path fill="none" stroke="#63b8ff" d="M600.07,-125.23C683.21,-103.69 889.42,-63.99 1015.5,-158.71 1055.87,-189.05 1077.71,-246.96 1087.04,-278.3"/>
<polygon fill="#63b8ff" stroke="#63b8ff" points="1083.63,-279.11 1089.7,-287.79 1090.37,-277.22 1083.63,-279.11"/>
</a>
</g>
</g>
<!-- Node24&#45;&gt;Node17 -->
<g id="edge34_Node000024_Node000017" class="edge">
<title>Node24&#45;&gt;Node17</title>
<g id="a_edge34_Node000024_Node000017"><a xlink:title=" ">
<path fill="none" stroke="#63b8ff" d="M631.29,-135.71C651.72,-135.71 673.86,-135.71 693.23,-135.71"/>
<polygon fill="#63b8ff" stroke="#63b8ff" points="693.08,-139.21 703.08,-135.71 693.08,-132.21 693.08,-139.21"/>
</a>
</g>
</g>
<!-- Node25&#45;&gt;Node4 -->
<g id="edge39_Node000025_Node000004" class="edge">
<title>Node25&#45;&gt;Node4</title>
<g id="a_edge39_Node000025_Node000004"><a xlink:title=" ">
<path fill="none" stroke="#63b8ff" d="M579.89,-260.01C600.16,-272.48 636.17,-293.46 669.25,-306.71 736.41,-333.62 760.1,-320.42 826.25,-349.71 859.21,-364.31 893.72,-387.7 915.48,-403.61"/>
<polygon fill="#63b8ff" stroke="#63b8ff" points="913.2,-406.28 923.32,-409.44 917.38,-400.66 913.2,-406.28"/>
</a>
</g>
</g>
<!-- Node25&#45;&gt;Node16 -->
<g id="edge38_Node000025_Node000016" class="edge">
<title>Node25&#45;&gt;Node16</title>
<g id="a_edge38_Node000025_Node000016"><a xlink:title=" ">
<path fill="none" stroke="#63b8ff" d="M583.96,-239.39C650.31,-207.25 864.87,-115.61 1015.5,-192.71 1050.68,-210.72 1073.47,-253.07 1084.6,-278.77"/>
<polygon fill="#63b8ff" stroke="#63b8ff" points="1081.29,-279.92 1088.32,-287.85 1087.77,-277.27 1081.29,-279.92"/>
</a>
</g>
</g>
<!-- Node25&#45;&gt;Node17 -->
<g id="edge48_Node000025_Node000017" class="edge">
<title>Node25&#45;&gt;Node17</title>
<g id="a_edge48_Node000025_Node000017"><a xlink:title=" ">
<path fill="none" stroke="#63b8ff" d="M584.78,-239.28C599.34,-231.5 618.6,-219.96 633.25,-206.71 652.77,-189.07 647.66,-174.76 669.25,-159.71 676.73,-154.5 685.37,-150.39 694.12,-147.16"/>
<polygon fill="#63b8ff" stroke="#63b8ff" points="694.94,-150.58 703.33,-144.11 692.74,-143.93 694.94,-150.58"/>
</a>
</g>
</g>
<!-- Node26 -->
<g id="Node000026" class="node">
<title>Node26</title>
<g id="a_Node000026"><a xlink:href="namespaceLGE_1_1Migration.html#a94f0cb325681d49b25e29f0bd2801422" target="_top" xlink:title=" ">
<polygon fill="white" stroke="#666666" points="826.25,-259.71 669.25,-259.71 669.25,-239.71 826.25,-239.71 826.25,-259.71"/>
<text xml:space="preserve" text-anchor="middle" x="747.75" y="-246.21" font-family="Helvetica,sans-Serif" font-size="10.00">LGE::Migration::MigrateManifest</text>
</a>
</g>
</g>
<!-- Node25&#45;&gt;Node26 -->
<g id="edge40_Node000025_Node000026" class="edge">
<title>Node25&#45;&gt;Node26</title>
<g id="a_edge40_Node000025_Node000026"><a xlink:title=" ">
<path fill="none" stroke="#63b8ff" d="M627.67,-249.71C637.34,-249.71 647.46,-249.71 657.54,-249.71"/>
<polygon fill="#63b8ff" stroke="#63b8ff" points="657.36,-253.21 667.36,-249.71 657.36,-246.21 657.36,-253.21"/>
</a>
</g>
</g>
<!-- Node28 -->
<g id="Node000028" class="node">
<title>Node28</title>
<g id="a_Node000028"><a xlink:href="namespaceLGE_1_1Migration.html#ad2e0aa4e3fa0c4300ecf31c7f53a5d29" target="_top" xlink:title=" ">
<polygon fill="white" stroke="#666666" points="1015.5,-233.71 862.25,-233.71 862.25,-201.71 1015.5,-201.71 1015.5,-233.71"/>
<text xml:space="preserve" text-anchor="start" x="870.25" y="-220.21" font-family="Helvetica,sans-Serif" font-size="10.00">LGE::Migration::NeedsManifest</text>
<text xml:space="preserve" text-anchor="middle" x="938.88" y="-208.21" font-family="Helvetica,sans-Serif" font-size="10.00">Migration</text>
</a>
</g>
</g>
<!-- Node25&#45;&gt;Node28 -->
<g id="edge44_Node000025_Node000028" class="edge">
<title>Node25&#45;&gt;Node28</title>
<g id="a_edge44_Node000025_Node000028"><a xlink:title=" ">
<path fill="none" stroke="#63b8ff" d="M614.2,-239.24C631.58,-236.01 651.2,-232.77 669.25,-230.71 729.54,-223.86 797.85,-220.62 850.5,-219.08"/>
<polygon fill="#63b8ff" stroke="#63b8ff" points="850.41,-222.59 860.31,-218.81 850.22,-215.59 850.41,-222.59"/>
</a>
</g>
</g>
<!-- Node25&#45;&gt;Node29 -->
<g id="edge45_Node000025_Node000029" class="edge">
<title>Node25&#45;&gt;Node29</title>
<g id="a_edge45_Node000025_Node000029"><a xlink:title=" ">
<path fill="none" stroke="#63b8ff" d="M614.15,-260.2C636.17,-264.77 662.18,-270.16 685.3,-274.96"/>
<polygon fill="#63b8ff" stroke="#63b8ff" points="684.41,-278.35 694.91,-276.96 685.83,-271.5 684.41,-278.35"/>
</a>
</g>
</g>
<!-- Node26&#45;&gt;Node4 -->
<g id="edge42_Node000026_Node000004" class="edge">
<title>Node26&#45;&gt;Node4</title>
<g id="a_edge42_Node000026_Node000004"><a xlink:title=" ">
<path fill="none" stroke="#63b8ff" d="M809.34,-260.1C815.31,-262.42 821.07,-265.25 826.25,-268.71 876.66,-302.39 912.55,-366.87 928.55,-399.98"/>
<polygon fill="#63b8ff" stroke="#63b8ff" points="925.32,-401.33 932.72,-408.91 931.66,-398.37 925.32,-401.33"/>
</a>
</g>
</g>
<!-- Node27 -->
<g id="Node000027" class="node">
<title>Node27</title>
<g id="a_Node000027"><a xlink:href="namespaceLGE_1_1MetaDB.html#aa5218c5875c7c064fac11782f4ca1783" target="_top" xlink:title=" ">
<polygon fill="white" stroke="#666666" points="1013.25,-271.71 864.5,-271.71 864.5,-251.71 1013.25,-251.71 1013.25,-271.71"/>
<text xml:space="preserve" text-anchor="middle" x="938.88" y="-258.21" font-family="Helvetica,sans-Serif" font-size="10.00">LGE::MetaDB::GenerateGUID</text>
</a>
</g>
</g>
<!-- Node26&#45;&gt;Node27 -->
<g id="edge41_Node000026_Node000027" class="edge">
<title>Node26&#45;&gt;Node27</title>
<g id="a_edge41_Node000026_Node000027"><a xlink:title=" ">
<path fill="none" stroke="#63b8ff" d="M826.49,-254.65C835.14,-255.2 843.97,-255.76 852.7,-256.31"/>
<polygon fill="#63b8ff" stroke="#63b8ff" points="852.37,-259.8 862.58,-256.94 852.82,-252.81 852.37,-259.8"/>
</a>
</g>
</g>
<!-- Node26&#45;&gt;Node28 -->
<g id="edge43_Node000026_Node000028" class="edge">
<title>Node26&#45;&gt;Node28</title>
<g id="a_edge43_Node000026_Node000028"><a xlink:title=" ">
<path fill="none" stroke="#63b8ff" d="M810.68,-239.24C823.47,-237.07 837.17,-234.75 850.67,-232.47"/>
<polygon fill="#63b8ff" stroke="#63b8ff" points="851.17,-235.94 860.45,-230.82 850,-229.03 851.17,-235.94"/>
</a>
</g>
</g>
<!-- Node29&#45;&gt;Node4 -->
<g id="edge47_Node000029_Node000004" class="edge">
<title>Node29&#45;&gt;Node4</title>
<g id="a_edge47_Node000029_Node000004"><a xlink:title=" ">
<path fill="none" stroke="#63b8ff" d="M794.95,-298.11C805.65,-301.56 816.69,-306.02 826.25,-311.71 866.55,-335.7 903.4,-377.1 923.03,-401.39"/>
<polygon fill="#63b8ff" stroke="#63b8ff" points="920.24,-403.5 929.19,-409.18 925.73,-399.16 920.24,-403.5"/>
</a>
</g>
</g>
<!-- Node29&#45;&gt;Node16 -->
<g id="edge46_Node000029_Node000016" class="edge">
<title>Node29&#45;&gt;Node16</title>
<g id="a_edge46_Node000029_Node000016"><a xlink:title=" ">
<path fill="none" stroke="#63b8ff" d="M813.43,-289.97C879.05,-292.26 979.36,-295.76 1040.19,-297.89"/>
<polygon fill="#63b8ff" stroke="#63b8ff" points="1039.81,-301.37 1049.93,-298.22 1040.06,-294.38 1039.81,-301.37"/>
</a>
</g>
</g>
</g>
</svg>
