<?xml version="1.0" encoding="UTF-8" standalone="no"?>
<!DOCTYPE svg PUBLIC "-//W3C//DTD SVG 1.1//EN"
 "http://www.w3.org/Graphics/SVG/1.1/DTD/svg11.dtd">
<!-- Generated by graphviz version 14.0.2 (20251019.1705)
 -->
<!-- Title: Bundles.cpp Pages: 1 -->
<svg width="1611pt" height="252pt"
 viewBox="0.00 0.00 1611.00 252.00" xmlns="http://www.w3.org/2000/svg" xmlns:xlink="http://www.w3.org/1999/xlink">
<g id="graph0" class="graph" transform="scale(1 1) rotate(0) translate(4 248)">
<title>Bundles.cpp</title>
<!-- Node1 -->
<g id="Node000001" class="node">
<title>Node1</title>
<g id="a_Node000001"><a xlink:title=" ">
<polygon fill="#999999" stroke="#666666" points="1107.03,-244 1037.03,-244 1037.03,-224 1107.03,-224 1107.03,-244"/>
<text xml:space="preserve" text-anchor="middle" x="1072.03" y="-230.5" font-family="Helvetica,sans-Serif" font-size="10.00">Bundles.cpp</text>
</a>
</g>
</g>
<!-- Node2 -->
<g id="Node000002" class="node">
<title>Node2</title>
<g id="a_Node000002"><a xlink:href="Bundles_8h.html" target="_top" xlink:title=" ">
<polygon fill="white" stroke="#666666" points="737.65,-188 644.4,-188 644.4,-168 737.65,-168 737.65,-188"/>
<text xml:space="preserve" text-anchor="middle" x="691.03" y="-174.5" font-family="Helvetica,sans-Serif" font-size="10.00">LGE/fs/Bundles.h</text>
</a>
</g>
</g>
<!-- Node1&#45;&gt;Node2 -->
<g id="edge1_Node000001_Node000002" class="edge">
<title>Node1&#45;&gt;Node2</title>
<g id="a_edge1_Node000001_Node000002"><a xlink:title=" ">
<path fill="none" stroke="#63b8ff" d="M1036.87,-228.02C971.29,-218.72 829.71,-198.66 749.52,-187.29"/>
<polygon fill="#63b8ff" stroke="#63b8ff" points="750.04,-183.83 739.65,-185.89 749.06,-190.76 750.04,-183.83"/>
</a>
</g>
</g>
<!-- Node3 -->
<g id="Node000003" class="node">
<title>Node3</title>
<g id="a_Node000003"><a xlink:href="AssetRegistry_8h.html" target="_top" xlink:title=" ">
<polygon fill="white" stroke="#666666" points="577.78,-132 458.28,-132 458.28,-112 577.78,-112 577.78,-132"/>
<text xml:space="preserve" text-anchor="middle" x="518.03" y="-118.5" font-family="Helvetica,sans-Serif" font-size="10.00">LGE/fs/AssetRegistry.h</text>
</a>
</g>
</g>
<!-- Node1&#45;&gt;Node3 -->
<g id="edge23_Node000001_Node000003" class="edge">
<title>Node1&#45;&gt;Node3</title>
<g id="a_edge23_Node000001_Node000003"><a xlink:title=" ">
<path fill="none" stroke="#63b8ff" d="M1036.78,-231.2C946.69,-226.31 709.87,-211.55 635.03,-188 599.66,-176.87 562.93,-154.36 540.27,-138.98"/>
<polygon fill="#63b8ff" stroke="#63b8ff" points="542.36,-136.18 532.15,-133.35 538.37,-141.93 542.36,-136.18"/>
</a>
</g>
</g>
<!-- Node4 -->
<g id="Node000004" class="node">
<title>Node4</title>
<g id="a_Node000004"><a xlink:href="MetaDB_8h.html" target="_top" xlink:title=" ">
<polygon fill="white" stroke="#666666" points="405.03,-76 311.03,-76 311.03,-56 405.03,-56 405.03,-76"/>
<text xml:space="preserve" text-anchor="middle" x="358.03" y="-62.5" font-family="Helvetica,sans-Serif" font-size="10.00">LGE/fs/MetaDB.h</text>
</a>
</g>
</g>
<!-- Node1&#45;&gt;Node4 -->
<g id="edge24_Node000001_Node000004" class="edge">
<title>Node1&#45;&gt;Node4</title>
<g id="a_edge24_Node000001_Node000004"><a xlink:title=" ">
<path fill="none" stroke="#63b8ff" d="M1036.75,-233.23C955.96,-233.01 751.76,-228.14 587.03,-188 522.72,-172.33 507.03,-163.9 449.03,-132 423.19,-117.79 395.98,-97.56 378.12,-83.46"/>
<polygon fill="#63b8ff" stroke="#63b8ff" points="380.4,-80.8 370.41,-77.28 376.03,-86.26 380.4,-80.8"/>
</a>
</g>
</g>
<!-- Node12 -->
<g id="Node000012" class="node">
<title>Node12</title>
<g id="a_Node000012"><a xlink:title=" ">
<polygon fill="#e0e0e0" stroke="#999999" points="872.78,-132 795.28,-132 795.28,-112 872.78,-112 872.78,-132"/>
<text xml:space="preserve" text-anchor="middle" x="834.03" y="-118.5" font-family="Helvetica,sans-Serif" font-size="10.00">unordered_set</text>
</a>
</g>
</g>
<!-- Node1&#45;&gt;Node12 -->
<g id="edge56_Node000001_Node000012" class="edge">
<title>Node1&#45;&gt;Node12</title>
<g id="a_edge56_Node000001_Node000012"><a xlink:title=" ">
<path fill="none" stroke="#63b8ff" d="M1036.84,-229.8C982.95,-224.24 883.44,-211.09 857.03,-188 844.21,-176.79 838.53,-157.95 836.02,-143.44"/>
<polygon fill="#63b8ff" stroke="#63b8ff" points="839.5,-143.05 834.73,-133.59 832.56,-143.96 839.5,-143.05"/>
</a>
</g>
</g>
<!-- Node13 -->
<g id="Node000013" class="node">
<title>Node13</title>
<g id="a_Node000013"><a xlink:href="FileIO_8h.html" target="_top" xlink:title=" ">
<polygon fill="white" stroke="#666666" points="1025.15,-76 940.9,-76 940.9,-56 1025.15,-56 1025.15,-76"/>
<text xml:space="preserve" text-anchor="middle" x="983.03" y="-62.5" font-family="Helvetica,sans-Serif" font-size="10.00">LGE/fs/FileIO.h</text>
</a>
</g>
</g>
<!-- Node1&#45;&gt;Node13 -->
<g id="edge25_Node000001_Node000013" class="edge">
<title>Node1&#45;&gt;Node13</title>
<g id="a_edge25_Node000001_Node000013"><a xlink:title=" ">
<path fill="none" stroke="#63b8ff" d="M1066.99,-223.6C1052.85,-197.23 1012.62,-122.19 993.44,-86.42"/>
<polygon fill="#63b8ff" stroke="#63b8ff" points="996.54,-84.79 988.73,-77.63 990.37,-88.1 996.54,-84.79"/>
</a>
</g>
</g>
<!-- Node14 -->
<g id="Node000014" class="node">
<title>Node14</title>
<g id="a_Node000014"><a xlink:href="Path_8h.html" target="_top" xlink:title=" ">
<polygon fill="white" stroke="#666666" points="1159.15,-76 1080.9,-76 1080.9,-56 1159.15,-56 1159.15,-76"/>
<text xml:space="preserve" text-anchor="middle" x="1120.03" y="-62.5" font-family="Helvetica,sans-Serif" font-size="10.00">LGE/fs/Path.h</text>
</a>
</g>
</g>
<!-- Node1&#45;&gt;Node14 -->
<g id="edge28_Node000001_Node000014" class="edge">
<title>Node1&#45;&gt;Node14</title>
<g id="a_edge28_Node000001_Node000014"><a xlink:title=" ">
<path fill="none" stroke="#63b8ff" d="M1074.75,-223.6C1082.31,-197.46 1103.7,-123.48 1114.14,-87.36"/>
<polygon fill="#63b8ff" stroke="#63b8ff" points="1117.5,-88.33 1116.92,-77.75 1110.78,-86.39 1117.5,-88.33"/>
</a>
</g>
</g>
<!-- Node15 -->
<g id="Node000015" class="node">
<title>Node15</title>
<g id="a_Node000015"><a xlink:href="Project_8h.html" target="_top" xlink:title=" ">
<polygon fill="white" stroke="#666666" points="1188.4,-188 1099.65,-188 1099.65,-168 1188.4,-168 1188.4,-188"/>
<text xml:space="preserve" text-anchor="middle" x="1144.03" y="-174.5" font-family="Helvetica,sans-Serif" font-size="10.00">LGE/fs/Project.h</text>
</a>
</g>
</g>
<!-- Node1&#45;&gt;Node15 -->
<g id="edge31_Node000001_Node000015" class="edge">
<title>Node1&#45;&gt;Node15</title>
<g id="a_edge31_Node000001_Node000015"><a xlink:title=" ">
<path fill="none" stroke="#63b8ff" d="M1084.57,-223.59C1095,-215.77 1110.08,-204.46 1122.44,-195.19"/>
<polygon fill="#63b8ff" stroke="#63b8ff" points="1124.52,-198.01 1130.42,-189.21 1120.32,-192.41 1124.52,-198.01"/>
</a>
</g>
</g>
<!-- Node16 -->
<g id="Node000016" class="node">
<title>Node16</title>
<g id="a_Node000016"><a xlink:title=" ">
<polygon fill="#e0e0e0" stroke="#999999" points="1251.53,-132 1190.53,-132 1190.53,-112 1251.53,-112 1251.53,-132"/>
<text xml:space="preserve" text-anchor="middle" x="1221.03" y="-118.5" font-family="Helvetica,sans-Serif" font-size="10.00">filesystem</text>
</a>
</g>
</g>
<!-- Node1&#45;&gt;Node16 -->
<g id="edge52_Node000001_Node000016" class="edge">
<title>Node1&#45;&gt;Node16</title>
<g id="a_edge52_Node000001_Node000016"><a xlink:title=" ">
<path fill="none" stroke="#63b8ff" d="M1107.34,-228.51C1135.06,-223.25 1172.88,-211.96 1197.03,-188 1209.05,-176.08 1215.11,-157.61 1218.13,-143.41"/>
<polygon fill="#63b8ff" stroke="#63b8ff" points="1221.53,-144.23 1219.81,-133.78 1214.64,-143.03 1221.53,-144.23"/>
</a>
</g>
</g>
<!-- Node17 -->
<g id="Node000017" class="node">
<title>Node17</title>
<g id="a_Node000017"><a xlink:href="Dependencies_8h.html" target="_top" xlink:title=" ">
<polygon fill="white" stroke="#666666" points="986.15,-188 865.9,-188 865.9,-168 986.15,-168 986.15,-188"/>
<text xml:space="preserve" text-anchor="middle" x="926.03" y="-174.5" font-family="Helvetica,sans-Serif" font-size="10.00">LGE/fs/Dependencies.h</text>
</a>
</g>
</g>
<!-- Node1&#45;&gt;Node17 -->
<g id="edge34_Node000001_Node000017" class="edge">
<title>Node1&#45;&gt;Node17</title>
<g id="a_edge34_Node000001_Node000017"><a xlink:title=" ">
<path fill="none" stroke="#63b8ff" d="M1046.6,-223.59C1023.29,-214.97 988.53,-202.12 962.31,-192.42"/>
<polygon fill="#63b8ff" stroke="#63b8ff" points="963.67,-189.19 953.08,-189 961.24,-195.76 963.67,-189.19"/>
</a>
</g>
</g>
<!-- Node18 -->
<g id="Node000018" class="node">
<title>Node18</title>
<g id="a_Node000018"><a xlink:href="Validation_8h.html" target="_top" xlink:title=" ">
<polygon fill="white" stroke="#666666" points="217.03,-188 117.03,-188 117.03,-168 217.03,-168 217.03,-188"/>
<text xml:space="preserve" text-anchor="middle" x="167.03" y="-174.5" font-family="Helvetica,sans-Serif" font-size="10.00">LGE/fs/Validation.h</text>
</a>
</g>
</g>
<!-- Node1&#45;&gt;Node18 -->
<g id="edge42_Node000001_Node000018" class="edge">
<title>Node1&#45;&gt;Node18</title>
<g id="a_edge42_Node000001_Node000018"><a xlink:title=" ">
<path fill="none" stroke="#63b8ff" d="M1036.7,-232.2C920.91,-229.35 542.47,-218.17 231.03,-188 230.19,-187.92 229.35,-187.83 228.5,-187.75"/>
<polygon fill="#63b8ff" stroke="#63b8ff" points="229.12,-184.3 218.79,-186.65 228.34,-191.25 229.12,-184.3"/>
</a>
</g>
</g>
<!-- Node19 -->
<g id="Node000019" class="node">
<title>Node19</title>
<g id="a_Node000019"><a xlink:href="Log_8h.html" target="_top" xlink:title=" ">
<polygon fill="white" stroke="#666666" points="1328.15,-188 1243.9,-188 1243.9,-168 1328.15,-168 1328.15,-188"/>
<text xml:space="preserve" text-anchor="middle" x="1286.03" y="-174.5" font-family="Helvetica,sans-Serif" font-size="10.00">LGE/core/Log.h</text>
</a>
</g>
</g>
<!-- Node1&#45;&gt;Node19 -->
<g id="edge49_Node000001_Node000019" class="edge">
<title>Node1&#45;&gt;Node19</title>
<g id="a_edge49_Node000001_Node000019"><a xlink:title=" ">
<path fill="none" stroke="#63b8ff" d="M1107.37,-224.08C1142.88,-215.12 1197.89,-201.24 1237.49,-191.25"/>
<polygon fill="#63b8ff" stroke="#63b8ff" points="1238.17,-194.69 1247.01,-188.85 1236.46,-187.9 1238.17,-194.69"/>
</a>
</g>
</g>
<!-- Node21 -->
<g id="Node000021" class="node">
<title>Node21</title>
<g id="a_Node000021"><a xlink:title=" ">
<polygon fill="#e0e0e0" stroke="#999999" points="1395.53,-188 1346.53,-188 1346.53,-168 1395.53,-168 1395.53,-188"/>
<text xml:space="preserve" text-anchor="middle" x="1371.03" y="-174.5" font-family="Helvetica,sans-Serif" font-size="10.00">fstream</text>
</a>
</g>
</g>
<!-- Node1&#45;&gt;Node21 -->
<g id="edge53_Node000001_Node000021" class="edge">
<title>Node1&#45;&gt;Node21</title>
<g id="a_edge53_Node000001_Node000021"><a xlink:title=" ">
<path fill="none" stroke="#63b8ff" d="M1107.37,-228.04C1156.27,-220.95 1247.51,-206.91 1335.01,-188.27"/>
<polygon fill="#63b8ff" stroke="#63b8ff" points="1335.69,-191.7 1344.73,-186.17 1334.22,-184.86 1335.69,-191.7"/>
</a>
</g>
</g>
<!-- Node22 -->
<g id="Node000022" class="node">
<title>Node22</title>
<g id="a_Node000022"><a xlink:title=" ">
<polygon fill="#e0e0e0" stroke="#999999" points="1464.65,-188 1413.4,-188 1413.4,-168 1464.65,-168 1464.65,-188"/>
<text xml:space="preserve" text-anchor="middle" x="1439.03" y="-174.5" font-family="Helvetica,sans-Serif" font-size="10.00">sstream</text>
</a>
</g>
</g>
<!-- Node1&#45;&gt;Node22 -->
<g id="edge54_Node000001_Node000022" class="edge">
<title>Node1&#45;&gt;Node22</title>
<g id="a_edge54_Node000001_Node000022"><a xlink:title=" ">
<path fill="none" stroke="#63b8ff" d="M1107.27,-229.7C1166.33,-223.84 1289.21,-210.33 1401.9,-188.43"/>
<polygon fill="#63b8ff" stroke="#63b8ff" points="1402.5,-191.88 1411.63,-186.51 1401.14,-185.01 1402.5,-191.88"/>
</a>
</g>
</g>
<!-- Node23 -->
<g id="Node000023" class="node">
<title>Node23</title>
<g id="a_Node000023"><a xlink:title=" ">
<polygon fill="#e0e0e0" stroke="#999999" points="1538.9,-188 1483.15,-188 1483.15,-168 1538.9,-168 1538.9,-188"/>
<text xml:space="preserve" text-anchor="middle" x="1511.03" y="-174.5" font-family="Helvetica,sans-Serif" font-size="10.00">algorithm</text>
</a>
</g>
</g>
<!-- Node1&#45;&gt;Node23 -->
<g id="edge55_Node000001_Node000023" class="edge">
<title>Node1&#45;&gt;Node23</title>
<g id="a_edge55_Node000001_Node000023"><a xlink:title=" ">
<path fill="none" stroke="#63b8ff" d="M1107.47,-230.56C1175.98,-225.5 1331.53,-212.44 1471.89,-188.17"/>
<polygon fill="#63b8ff" stroke="#63b8ff" points="1472.09,-191.69 1481.33,-186.51 1470.88,-184.8 1472.09,-191.69"/>
</a>
</g>
</g>
<!-- Node24 -->
<g id="Node000024" class="node">
<title>Node24</title>
<g id="a_Node000024"><a xlink:title=" ">
<polygon fill="#e0e0e0" stroke="#999999" points="1602.65,-188 1557.4,-188 1557.4,-168 1602.65,-168 1602.65,-188"/>
<text xml:space="preserve" text-anchor="middle" x="1580.03" y="-174.5" font-family="Helvetica,sans-Serif" font-size="10.00">chrono</text>
</a>
</g>
</g>
<!-- Node1&#45;&gt;Node24 -->
<g id="edge57_Node000001_Node000024" class="edge">
<title>Node1&#45;&gt;Node24</title>
<g id="a_edge57_Node000001_Node000024"><a xlink:title=" ">
<path fill="none" stroke="#63b8ff" d="M1107.26,-231.84C1184.89,-228.81 1376.56,-218.81 1545.95,-188.05"/>
<polygon fill="#63b8ff" stroke="#63b8ff" points="1546.39,-191.52 1555.59,-186.26 1545.12,-184.64 1546.39,-191.52"/>
</a>
</g>
</g>
<!-- Node2&#45;&gt;Node3 -->
<g id="edge2_Node000002_Node000003" class="edge">
<title>Node2&#45;&gt;Node3</title>
<g id="a_edge2_Node000002_Node000003"><a xlink:title=" ">
<path fill="none" stroke="#63b8ff" d="M660.9,-167.59C632.79,-158.82 590.62,-145.66 559.37,-135.9"/>
<polygon fill="#63b8ff" stroke="#63b8ff" points="560.43,-132.57 549.84,-132.93 558.35,-139.25 560.43,-132.57"/>
</a>
</g>
</g>
<!-- Node5 -->
<g id="Node000005" class="node">
<title>Node5</title>
<g id="a_Node000005"><a xlink:title=" ">
<polygon fill="#e0e0e0" stroke="#999999" points="1003.03,-20 963.03,-20 963.03,0 1003.03,0 1003.03,-20"/>
<text xml:space="preserve" text-anchor="middle" x="983.03" y="-6.5" font-family="Helvetica,sans-Serif" font-size="10.00">string</text>
</a>
</g>
</g>
<!-- Node2&#45;&gt;Node5 -->
<g id="edge16_Node000002_Node000005" class="edge">
<title>Node2&#45;&gt;Node5</title>
<g id="a_edge16_Node000002_Node000005"><a xlink:title=" ">
<path fill="none" stroke="#63b8ff" d="M702.69,-167.51C720,-153.77 753.93,-128.23 786.03,-112 829.31,-90.12 845.81,-97.99 889.03,-76 916.16,-62.2 944.54,-41.59 962.92,-27.3"/>
<polygon fill="#63b8ff" stroke="#63b8ff" points="964.93,-30.16 970.61,-21.21 960.59,-24.67 964.93,-30.16"/>
</a>
</g>
</g>
<!-- Node6 -->
<g id="Node000006" class="node">
<title>Node6</title>
<g id="a_Node000006"><a xlink:title=" ">
<polygon fill="#e0e0e0" stroke="#999999" points="793.78,-20 728.28,-20 728.28,0 793.78,0 793.78,-20"/>
<text xml:space="preserve" text-anchor="middle" x="761.03" y="-6.5" font-family="Helvetica,sans-Serif" font-size="10.00">string_view</text>
</a>
</g>
</g>
<!-- Node2&#45;&gt;Node6 -->
<g id="edge17_Node000002_Node000006" class="edge">
<title>Node2&#45;&gt;Node6</title>
<g id="a_edge17_Node000002_Node000006"><a xlink:title=" ">
<path fill="none" stroke="#63b8ff" d="M696.56,-167.52C706.64,-149.94 728.25,-110.9 742.03,-76 747.79,-61.41 752.7,-44.38 756.09,-31.41"/>
<polygon fill="#63b8ff" stroke="#63b8ff" points="759.44,-32.46 758.48,-21.9 752.65,-30.75 759.44,-32.46"/>
</a>
</g>
</g>
<!-- Node7 -->
<g id="Node000007" class="node">
<title>Node7</title>
<g id="a_Node000007"><a xlink:title=" ">
<polygon fill="#e0e0e0" stroke="#999999" points="530.53,-20 487.53,-20 487.53,0 530.53,0 530.53,-20"/>
<text xml:space="preserve" text-anchor="middle" x="509.03" y="-6.5" font-family="Helvetica,sans-Serif" font-size="10.00">vector</text>
</a>
</g>
</g>
<!-- Node2&#45;&gt;Node7 -->
<g id="edge18_Node000002_Node000007" class="edge">
<title>Node2&#45;&gt;Node7</title>
<g id="a_edge18_Node000002_Node000007"><a xlink:title=" ">
<path fill="none" stroke="#63b8ff" d="M680.72,-167.6C651.07,-140.55 565.23,-62.26 527.35,-27.71"/>
<polygon fill="#63b8ff" stroke="#63b8ff" points="530.09,-25.47 520.34,-21.32 525.37,-30.64 530.09,-25.47"/>
</a>
</g>
</g>
<!-- Node8 -->
<g id="Node000008" class="node">
<title>Node8</title>
<g id="a_Node000008"><a xlink:title=" ">
<polygon fill="#e0e0e0" stroke="#999999" points="269.9,-20 220.15,-20 220.15,0 269.9,0 269.9,-20"/>
<text xml:space="preserve" text-anchor="middle" x="245.03" y="-6.5" font-family="Helvetica,sans-Serif" font-size="10.00">optional</text>
</a>
</g>
</g>
<!-- Node2&#45;&gt;Node8 -->
<g id="edge21_Node000002_Node000008" class="edge">
<title>Node2&#45;&gt;Node8</title>
<g id="a_edge21_Node000002_Node000008"><a xlink:title=" ">
<path fill="none" stroke="#63b8ff" d="M644,-174.51C555.43,-169.31 367.36,-155.81 307.03,-132 268,-116.6 249.95,-113.45 231.03,-76 223.79,-61.67 228.55,-43.73 234.4,-30.33"/>
<polygon fill="#63b8ff" stroke="#63b8ff" points="237.39,-32.19 238.67,-21.68 231.11,-29.09 237.39,-32.19"/>
</a>
</g>
</g>
<!-- Node9 -->
<g id="Node000009" class="node">
<title>Node9</title>
<g id="a_Node000009"><a xlink:title=" ">
<polygon fill="#e0e0e0" stroke="#999999" points="120.65,-20 75.4,-20 75.4,0 120.65,0 120.65,-20"/>
<text xml:space="preserve" text-anchor="middle" x="98.03" y="-6.5" font-family="Helvetica,sans-Serif" font-size="10.00">cstdint</text>
</a>
</g>
</g>
<!-- Node2&#45;&gt;Node9 -->
<g id="edge22_Node000002_Node000009" class="edge">
<title>Node2&#45;&gt;Node9</title>
<g id="a_edge22_Node000002_Node000009"><a xlink:title=" ">
<path fill="none" stroke="#63b8ff" d="M643.92,-175.32C546.57,-171.34 326.49,-159.5 257.03,-132 197.63,-108.49 141.4,-56.18 114.52,-28.67"/>
<polygon fill="#63b8ff" stroke="#63b8ff" points="117.07,-26.27 107.62,-21.47 112.01,-31.11 117.07,-26.27"/>
</a>
</g>
</g>
<!-- Node10 -->
<g id="Node000010" class="node">
<title>Node10</title>
<g id="a_Node000010"><a xlink:title=" ">
<polygon fill="#e0e0e0" stroke="#999999" points="733.4,-76 650.65,-76 650.65,-56 733.4,-56 733.4,-76"/>
<text xml:space="preserve" text-anchor="middle" x="692.03" y="-62.5" font-family="Helvetica,sans-Serif" font-size="10.00">unordered_map</text>
</a>
</g>
</g>
<!-- Node2&#45;&gt;Node10 -->
<g id="edge19_Node000002_Node000010" class="edge">
<title>Node2&#45;&gt;Node10</title>
<g id="a_edge19_Node000002_Node000010"><a xlink:title=" ">
<path fill="none" stroke="#63b8ff" d="M691.11,-167.62C691.27,-150.01 691.62,-111.59 691.84,-87.65"/>
<polygon fill="#63b8ff" stroke="#63b8ff" points="695.34,-87.9 691.93,-77.87 688.34,-87.84 695.34,-87.9"/>
</a>
</g>
</g>
<!-- Node2&#45;&gt;Node12 -->
<g id="edge20_Node000002_Node000012" class="edge">
<title>Node2&#45;&gt;Node12</title>
<g id="a_edge20_Node000002_Node000012"><a xlink:title=" ">
<path fill="none" stroke="#63b8ff" d="M715.94,-167.59C738.76,-158.97 772.81,-146.12 798.49,-136.42"/>
<polygon fill="#63b8ff" stroke="#63b8ff" points="799.39,-139.82 807.51,-133.01 796.92,-133.27 799.39,-139.82"/>
</a>
</g>
</g>
<!-- Node3&#45;&gt;Node4 -->
<g id="edge3_Node000003_Node000004" class="edge">
<title>Node3&#45;&gt;Node4</title>
<g id="a_edge3_Node000003_Node000004"><a xlink:title=" ">
<path fill="none" stroke="#63b8ff" d="M490.16,-111.59C464.28,-102.86 425.5,-89.77 396.64,-80.03"/>
<polygon fill="#63b8ff" stroke="#63b8ff" points="398.14,-76.85 387.55,-76.96 395.91,-83.48 398.14,-76.85"/>
</a>
</g>
</g>
<!-- Node3&#45;&gt;Node5 -->
<g id="edge9_Node000003_Node000005" class="edge">
<title>Node3&#45;&gt;Node5</title>
<g id="a_edge9_Node000003_Node000005"><a xlink:title=" ">
<path fill="none" stroke="#63b8ff" d="M531.82,-111.67C553.99,-97.18 599.4,-69.52 642.03,-56 752.23,-21.06 890.77,-13.23 951.76,-11.49"/>
<polygon fill="#63b8ff" stroke="#63b8ff" points="951.47,-15 961.38,-11.25 951.3,-8 951.47,-15"/>
</a>
</g>
</g>
<!-- Node3&#45;&gt;Node6 -->
<g id="edge10_Node000003_Node000006" class="edge">
<title>Node3&#45;&gt;Node6</title>
<g id="a_edge10_Node000003_Node000006"><a xlink:title=" ">
<path fill="none" stroke="#63b8ff" d="M522.86,-111.84C530.88,-97.58 548.33,-70.22 571.03,-56 615.61,-28.07 675.96,-17.47 716.58,-13.45"/>
<polygon fill="#63b8ff" stroke="#63b8ff" points="716.83,-16.94 726.49,-12.57 716.22,-9.96 716.83,-16.94"/>
</a>
</g>
</g>
<!-- Node3&#45;&gt;Node7 -->
<g id="edge11_Node000003_Node000007" class="edge">
<title>Node3&#45;&gt;Node7</title>
<g id="a_edge11_Node000003_Node000007"><a xlink:title=" ">
<path fill="none" stroke="#63b8ff" d="M517.26,-111.62C515.82,-94.01 512.68,-55.59 510.72,-31.65"/>
<polygon fill="#63b8ff" stroke="#63b8ff" points="514.22,-31.54 509.92,-21.86 507.25,-32.12 514.22,-31.54"/>
</a>
</g>
</g>
<!-- Node3&#45;&gt;Node8 -->
<g id="edge13_Node000003_Node000008" class="edge">
<title>Node3&#45;&gt;Node8</title>
<g id="a_edge13_Node000003_Node000008"><a xlink:title=" ">
<path fill="none" stroke="#63b8ff" d="M458,-118.7C412.49,-114.63 349.84,-103.89 302.03,-76 282.65,-64.69 266.46,-44.42 256.35,-29.52"/>
<polygon fill="#63b8ff" stroke="#63b8ff" points="259.54,-28.01 251.18,-21.5 253.66,-31.8 259.54,-28.01"/>
</a>
</g>
</g>
<!-- Node3&#45;&gt;Node9 -->
<g id="edge15_Node000003_Node000009" class="edge">
<title>Node3&#45;&gt;Node9</title>
<g id="a_edge15_Node000003_Node000009"><a xlink:title=" ">
<path fill="none" stroke="#63b8ff" d="M457.97,-112.86C408.18,-105.41 335.82,-92.97 274.03,-76 222.73,-61.91 165.25,-39.34 130.36,-24.85"/>
<polygon fill="#63b8ff" stroke="#63b8ff" points="131.83,-21.67 121.25,-21.03 129.12,-28.13 131.83,-21.67"/>
</a>
</g>
</g>
<!-- Node3&#45;&gt;Node10 -->
<g id="edge12_Node000003_Node000010" class="edge">
<title>Node3&#45;&gt;Node10</title>
<g id="a_edge12_Node000003_Node000010"><a xlink:title=" ">
<path fill="none" stroke="#63b8ff" d="M548.34,-111.59C576.73,-102.78 619.4,-89.54 650.86,-79.78"/>
<polygon fill="#63b8ff" stroke="#63b8ff" points="651.53,-83.23 660.04,-76.93 649.45,-76.55 651.53,-83.23"/>
</a>
</g>
</g>
<!-- Node11 -->
<g id="Node000011" class="node">
<title>Node11</title>
<g id="a_Node000011"><a xlink:title=" ">
<polygon fill="#e0e0e0" stroke="#999999" points="481.03,-76 423.03,-76 423.03,-56 481.03,-56 481.03,-76"/>
<text xml:space="preserve" text-anchor="middle" x="452.03" y="-62.5" font-family="Helvetica,sans-Serif" font-size="10.00">functional</text>
</a>
</g>
</g>
<!-- Node3&#45;&gt;Node11 -->
<g id="edge14_Node000003_Node000011" class="edge">
<title>Node3&#45;&gt;Node11</title>
<g id="a_edge14_Node000003_Node000011"><a xlink:title=" ">
<path fill="none" stroke="#63b8ff" d="M506.53,-111.59C497.07,-103.85 483.43,-92.69 472.16,-83.47"/>
<polygon fill="#63b8ff" stroke="#63b8ff" points="474.52,-80.88 464.57,-77.26 470.09,-86.3 474.52,-80.88"/>
</a>
</g>
</g>
<!-- Node4&#45;&gt;Node5 -->
<g id="edge4_Node000004_Node000005" class="edge">
<title>Node4&#45;&gt;Node5</title>
<g id="a_edge4_Node000004_Node000005"><a xlink:title=" ">
<path fill="none" stroke="#63b8ff" d="M405.35,-57.12C408.28,-56.72 411.19,-56.34 414.03,-56 617.97,-31.59 864.69,-17.21 951.21,-12.62"/>
<polygon fill="#63b8ff" stroke="#63b8ff" points="951.24,-16.12 961.05,-12.1 950.88,-9.13 951.24,-16.12"/>
</a>
</g>
</g>
<!-- Node4&#45;&gt;Node6 -->
<g id="edge5_Node000004_Node000006" class="edge">
<title>Node4&#45;&gt;Node6</title>
<g id="a_edge5_Node000004_Node000006"><a xlink:title=" ">
<path fill="none" stroke="#63b8ff" d="M405.37,-57.29C408.3,-56.84 411.2,-56.41 414.03,-56 522.63,-40.23 650.76,-24.31 716.77,-16.3"/>
<polygon fill="#63b8ff" stroke="#63b8ff" points="716.96,-19.81 726.47,-15.13 716.12,-12.86 716.96,-19.81"/>
</a>
</g>
</g>
<!-- Node4&#45;&gt;Node7 -->
<g id="edge6_Node000004_Node000007" class="edge">
<title>Node4&#45;&gt;Node7</title>
<g id="a_edge6_Node000004_Node000007"><a xlink:title=" ">
<path fill="none" stroke="#63b8ff" d="M384.33,-55.59C410.03,-46.4 449.19,-32.4 476.76,-22.54"/>
<polygon fill="#63b8ff" stroke="#63b8ff" points="477.76,-25.9 486,-19.24 475.41,-19.31 477.76,-25.9"/>
</a>
</g>
</g>
<!-- Node4&#45;&gt;Node8 -->
<g id="edge7_Node000004_Node000008" class="edge">
<title>Node4&#45;&gt;Node8</title>
<g id="a_edge7_Node000004_Node000008"><a xlink:title=" ">
<path fill="none" stroke="#63b8ff" d="M338.35,-55.59C320.87,-47.24 295.08,-34.92 275.03,-25.34"/>
<polygon fill="#63b8ff" stroke="#63b8ff" points="276.76,-22.29 266.23,-21.13 273.75,-28.6 276.76,-22.29"/>
</a>
</g>
</g>
<!-- Node4&#45;&gt;Node9 -->
<g id="edge8_Node000004_Node000009" class="edge">
<title>Node4&#45;&gt;Node9</title>
<g id="a_edge8_Node000004_Node000009"><a xlink:title=" ">
<path fill="none" stroke="#63b8ff" d="M312.44,-55.53C261,-44.85 178.48,-27.71 132.25,-18.11"/>
<polygon fill="#63b8ff" stroke="#63b8ff" points="133.03,-14.69 122.53,-16.09 131.61,-21.55 133.03,-14.69"/>
</a>
</g>
</g>
<!-- Node13&#45;&gt;Node5 -->
<g id="edge26_Node000013_Node000005" class="edge">
<title>Node13&#45;&gt;Node5</title>
<g id="a_edge26_Node000013_Node000005"><a xlink:title=" ">
<path fill="none" stroke="#63b8ff" d="M983.03,-55.59C983.03,-49.01 983.03,-39.96 983.03,-31.73"/>
<polygon fill="#63b8ff" stroke="#63b8ff" points="986.53,-31.81 983.03,-21.81 979.53,-31.81 986.53,-31.81"/>
</a>
</g>
</g>
<!-- Node13&#45;&gt;Node6 -->
<g id="edge27_Node000013_Node000006" class="edge">
<title>Node13&#45;&gt;Node6</title>
<g id="a_edge27_Node000013_Node000006"><a xlink:title=" ">
<path fill="none" stroke="#63b8ff" d="M944.11,-55.53C905.32,-46.1 845.83,-31.63 805.27,-21.76"/>
<polygon fill="#63b8ff" stroke="#63b8ff" points="806.12,-18.37 795.58,-19.4 804.47,-25.17 806.12,-18.37"/>
</a>
</g>
</g>
<!-- Node14&#45;&gt;Node5 -->
<g id="edge29_Node000014_Node000005" class="edge">
<title>Node14&#45;&gt;Node5</title>
<g id="a_edge29_Node000014_Node000005"><a xlink:title=" ">
<path fill="none" stroke="#63b8ff" d="M1096.17,-55.59C1073.43,-46.63 1039.07,-33.09 1014.19,-23.28"/>
<polygon fill="#63b8ff" stroke="#63b8ff" points="1015.49,-20.03 1004.9,-19.62 1012.92,-26.54 1015.49,-20.03"/>
</a>
</g>
</g>
<!-- Node14&#45;&gt;Node6 -->
<g id="edge30_Node000014_Node000006" class="edge">
<title>Node14&#45;&gt;Node6</title>
<g id="a_edge30_Node000014_Node000006"><a xlink:title=" ">
<path fill="none" stroke="#63b8ff" d="M1080.58,-59.07C1013.12,-48.92 876.04,-28.3 805.37,-17.67"/>
<polygon fill="#63b8ff" stroke="#63b8ff" points="806.11,-14.24 795.7,-16.22 805.07,-21.16 806.11,-14.24"/>
</a>
</g>
</g>
<!-- Node15&#45;&gt;Node5 -->
<g id="edge32_Node000015_Node000005" class="edge">
<title>Node15&#45;&gt;Node5</title>
<g id="a_edge32_Node000015_Node000005"><a xlink:title=" ">
<path fill="none" stroke="#63b8ff" d="M1150.35,-167.66C1164.36,-145.69 1194.76,-90.01 1168.03,-56 1149.29,-32.16 1062.41,-19.38 1014.67,-14.05"/>
<polygon fill="#63b8ff" stroke="#63b8ff" points="1015.26,-10.59 1004.94,-13.01 1014.51,-17.55 1015.26,-10.59"/>
</a>
</g>
</g>
<!-- Node15&#45;&gt;Node16 -->
<g id="edge33_Node000015_Node000016" class="edge">
<title>Node15&#45;&gt;Node16</title>
<g id="a_edge33_Node000015_Node000016"><a xlink:title=" ">
<path fill="none" stroke="#63b8ff" d="M1157.44,-167.59C1168.64,-159.74 1184.84,-148.38 1198.09,-139.09"/>
<polygon fill="#63b8ff" stroke="#63b8ff" points="1200.1,-141.96 1206.27,-133.35 1196.08,-136.22 1200.1,-141.96"/>
</a>
</g>
</g>
<!-- Node17&#45;&gt;Node3 -->
<g id="edge35_Node000017_Node000003" class="edge">
<title>Node17&#45;&gt;Node3</title>
<g id="a_edge35_Node000017_Node000003"><a xlink:title=" ">
<path fill="none" stroke="#63b8ff" d="M865.83,-169.03C792.2,-159.29 667.72,-142.81 589.36,-132.44"/>
<polygon fill="#63b8ff" stroke="#63b8ff" points="590.02,-129 579.65,-131.16 589.1,-135.94 590.02,-129"/>
</a>
</g>
</g>
<!-- Node17&#45;&gt;Node5 -->
<g id="edge36_Node000017_Node000005" class="edge">
<title>Node17&#45;&gt;Node5</title>
<g id="a_edge36_Node000017_Node000005"><a xlink:title=" ">
<path fill="none" stroke="#63b8ff" d="M944.12,-167.65C970.76,-152.63 1019,-120.24 1034.03,-76 1036.89,-67.58 1037.69,-64.1 1034.03,-56 1028.73,-44.25 1018.68,-34.35 1008.89,-26.84"/>
<polygon fill="#63b8ff" stroke="#63b8ff" points="1011.18,-24.17 1000.99,-21.28 1007.15,-29.9 1011.18,-24.17"/>
</a>
</g>
</g>
<!-- Node17&#45;&gt;Node6 -->
<g id="edge37_Node000017_Node000006" class="edge">
<title>Node17&#45;&gt;Node6</title>
<g id="a_edge37_Node000017_Node000006"><a xlink:title=" ">
<path fill="none" stroke="#63b8ff" d="M935.15,-167.76C946.83,-154.77 964.27,-130.62 953.03,-112 921.08,-59.09 851.2,-32.51 805.15,-20.25"/>
<polygon fill="#63b8ff" stroke="#63b8ff" points="806.01,-16.86 795.46,-17.8 804.29,-23.64 806.01,-16.86"/>
</a>
</g>
</g>
<!-- Node17&#45;&gt;Node7 -->
<g id="edge38_Node000017_Node000007" class="edge">
<title>Node17&#45;&gt;Node7</title>
<g id="a_edge38_Node000017_Node000007"><a xlink:title=" ">
<path fill="none" stroke="#63b8ff" d="M925.73,-167.71C924.79,-153.77 920.99,-127.42 906.03,-112 854.95,-59.33 628.33,-25.96 542.3,-14.98"/>
<polygon fill="#63b8ff" stroke="#63b8ff" points="542.76,-11.51 532.4,-13.74 541.89,-18.46 542.76,-11.51"/>
</a>
</g>
</g>
<!-- Node17&#45;&gt;Node8 -->
<g id="edge41_Node000017_Node000008" class="edge">
<title>Node17&#45;&gt;Node8</title>
<g id="a_edge41_Node000017_Node000008"><a xlink:title=" ">
<path fill="none" stroke="#63b8ff" d="M865.74,-172.94C755.86,-165.27 527.16,-147.99 449.03,-132 369.02,-115.63 334.86,-130.48 274.03,-76 260.94,-64.28 253.45,-45.52 249.37,-31.17"/>
<polygon fill="#63b8ff" stroke="#63b8ff" points="252.86,-30.73 247.06,-21.86 246.07,-32.41 252.86,-30.73"/>
</a>
</g>
</g>
<!-- Node17&#45;&gt;Node10 -->
<g id="edge40_Node000017_Node000010" class="edge">
<title>Node17&#45;&gt;Node10</title>
<g id="a_edge40_Node000017_Node000010"><a xlink:title=" ">
<path fill="none" stroke="#63b8ff" d="M922.44,-167.85C916.37,-153.59 902.66,-126.24 882.03,-112 860.01,-96.8 792.91,-83.24 744.69,-75.07"/>
<polygon fill="#63b8ff" stroke="#63b8ff" points="745.43,-71.64 734.99,-73.46 744.28,-78.55 745.43,-71.64"/>
</a>
</g>
</g>
<!-- Node17&#45;&gt;Node12 -->
<g id="edge39_Node000017_Node000012" class="edge">
<title>Node17&#45;&gt;Node12</title>
<g id="a_edge39_Node000017_Node000012"><a xlink:title=" ">
<path fill="none" stroke="#63b8ff" d="M910,-167.59C896.24,-159.51 876.12,-147.71 860.05,-138.27"/>
<polygon fill="#63b8ff" stroke="#63b8ff" points="861.88,-135.29 851.48,-133.25 858.34,-141.33 861.88,-135.29"/>
</a>
</g>
</g>
<!-- Node18&#45;&gt;Node3 -->
<g id="edge43_Node000018_Node000003" class="edge">
<title>Node18&#45;&gt;Node3</title>
<g id="a_edge43_Node000018_Node000003"><a xlink:title=" ">
<path fill="none" stroke="#63b8ff" d="M217.32,-169.26C277.47,-160.01 378.58,-144.45 446.76,-133.96"/>
<polygon fill="#63b8ff" stroke="#63b8ff" points="446.98,-137.47 456.33,-132.49 445.92,-130.55 446.98,-137.47"/>
</a>
</g>
</g>
<!-- Node18&#45;&gt;Node5 -->
<g id="edge44_Node000018_Node000005" class="edge">
<title>Node18&#45;&gt;Node5</title>
<g id="a_edge44_Node000018_Node000005"><a xlink:title=" ">
<path fill="none" stroke="#63b8ff" d="M217.28,-174.7C296.56,-170.39 455.19,-158.95 587.03,-132 726.18,-103.55 886.41,-46.95 952.31,-22.59"/>
<polygon fill="#63b8ff" stroke="#63b8ff" points="953.2,-25.99 961.35,-19.22 950.76,-19.43 953.2,-25.99"/>
</a>
</g>
</g>
<!-- Node18&#45;&gt;Node6 -->
<g id="edge45_Node000018_Node000006" class="edge">
<title>Node18&#45;&gt;Node6</title>
<g id="a_edge45_Node000018_Node000006"><a xlink:title=" ">
<path fill="none" stroke="#63b8ff" d="M173.58,-167.73C191.12,-143.81 241.89,-80.22 302.03,-56 376.6,-25.97 616.58,-15.37 716.61,-12.19"/>
<polygon fill="#63b8ff" stroke="#63b8ff" points="716.41,-15.69 726.3,-11.89 716.2,-8.7 716.41,-15.69"/>
</a>
</g>
</g>
<!-- Node18&#45;&gt;Node7 -->
<g id="edge46_Node000018_Node000007" class="edge">
<title>Node18&#45;&gt;Node7</title>
<g id="a_edge46_Node000018_Node000007"><a xlink:title=" ">
<path fill="none" stroke="#63b8ff" d="M162.06,-167.72C150.85,-145.4 126.7,-88.16 155.03,-56 176.08,-32.1 391.73,-17.56 475.76,-12.76"/>
<polygon fill="#63b8ff" stroke="#63b8ff" points="475.87,-16.26 485.66,-12.21 475.48,-9.28 475.87,-16.26"/>
</a>
</g>
</g>
<!-- Node18&#45;&gt;Node8 -->
<g id="edge47_Node000018_Node000008" class="edge">
<title>Node18&#45;&gt;Node8</title>
<g id="a_edge47_Node000018_Node000008"><a xlink:title=" ">
<path fill="none" stroke="#63b8ff" d="M150.96,-167.63C117.86,-147.15 47.7,-96.95 79.03,-56 94.65,-35.58 164.37,-22.27 208.34,-15.74"/>
<polygon fill="#63b8ff" stroke="#63b8ff" points="208.82,-19.21 218.23,-14.33 207.83,-12.28 208.82,-19.21"/>
</a>
</g>
</g>
<!-- Node18&#45;&gt;Node9 -->
<g id="edge48_Node000018_Node000009" class="edge">
<title>Node18&#45;&gt;Node9</title>
<g id="a_edge48_Node000018_Node000009"><a xlink:title=" ">
<path fill="none" stroke="#63b8ff" d="M119.24,-167.51C94.08,-160.74 63.8,-149.63 41.03,-132 17.25,-113.59 11.86,-104.75 3.03,-76 0.42,-67.5 -1.72,-63.51 3.03,-56 16.35,-34.95 42.46,-23.56 63.95,-17.51"/>
<polygon fill="#63b8ff" stroke="#63b8ff" points="64.67,-20.93 73.51,-15.1 62.96,-14.14 64.67,-20.93"/>
</a>
</g>
</g>
<!-- Node19&#45;&gt;Node5 -->
<g id="edge51_Node000019_Node000005" class="edge">
<title>Node19&#45;&gt;Node5</title>
<g id="a_edge51_Node000019_Node000005"><a xlink:title=" ">
<path fill="none" stroke="#63b8ff" d="M1284.2,-167.8C1281.19,-154.44 1274.17,-129.35 1261.03,-112 1235.91,-78.84 1223.85,-73.33 1186.03,-56 1128.98,-29.85 1055.8,-18.47 1014.71,-13.85"/>
<polygon fill="#63b8ff" stroke="#63b8ff" points="1015.34,-10.4 1005.03,-12.83 1014.61,-17.36 1015.34,-10.4"/>
</a>
</g>
</g>
<!-- Node20 -->
<g id="Node000020" class="node">
<title>Node20</title>
<g id="a_Node000020"><a xlink:title=" ">
<polygon fill="#e0e0e0" stroke="#999999" points="1361.78,-132 1308.28,-132 1308.28,-112 1361.78,-112 1361.78,-132"/>
<text xml:space="preserve" text-anchor="middle" x="1335.03" y="-118.5" font-family="Helvetica,sans-Serif" font-size="10.00">iostream</text>
</a>
</g>
</g>
<!-- Node19&#45;&gt;Node20 -->
<g id="edge50_Node000019_Node000020" class="edge">
<title>Node19&#45;&gt;Node20</title>
<g id="a_edge50_Node000019_Node000020"><a xlink:title=" ">
<path fill="none" stroke="#63b8ff" d="M1294.56,-167.59C1301.31,-160.16 1310.91,-149.58 1319.07,-140.58"/>
<polygon fill="#63b8ff" stroke="#63b8ff" points="1321.45,-143.18 1325.57,-133.42 1316.26,-138.47 1321.45,-143.18"/>
</a>
</g>
</g>
</g>
</svg>
