<?xml version="1.0" encoding="UTF-8" standalone="no"?>
<!DOCTYPE svg PUBLIC "-//W3C//DTD SVG 1.1//EN"
 "http://www.w3.org/Graphics/SVG/1.1/DTD/svg11.dtd">
<!-- Generated by graphviz version 14.0.2 (20251019.1705)
 -->
<!-- Title: Camera.cpp Pages: 1 -->
<svg width="221pt" height="252pt"
 viewBox="0.00 0.00 221.00 252.00" xmlns="http://www.w3.org/2000/svg" xmlns:xlink="http://www.w3.org/1999/xlink">
<g id="graph0" class="graph" transform="scale(1 1) rotate(0) translate(4 248)">
<title>Camera.cpp</title>
<!-- Node1 -->
<g id="Node000001" class="node">
<title>Node1</title>
<g id="a_Node000001"><a xlink:title=" ">
<polygon fill="#999999" stroke="#666666" points="193.25,-244 124,-244 124,-224 193.25,-224 193.25,-244"/>
<text xml:space="preserve" text-anchor="middle" x="158.62" y="-230.5" font-family="Helvetica,sans-Serif" font-size="10.00">Camera.cpp</text>
</a>
</g>
</g>
<!-- Node2 -->
<g id="Node000002" class="node">
<title>Node2</title>
<g id="a_Node000002"><a xlink:href="Camera_8h.html" target="_top" xlink:title=" ">
<polygon fill="white" stroke="#666666" points="175.62,-188 51.62,-188 51.62,-168 175.62,-168 175.62,-188"/>
<text xml:space="preserve" text-anchor="middle" x="113.62" y="-174.5" font-family="Helvetica,sans-Serif" font-size="10.00">LGE/rendering/Camera.h</text>
</a>
</g>
</g>
<!-- Node1&#45;&gt;Node2 -->
<g id="edge1_Node000001_Node000002" class="edge">
<title>Node1&#45;&gt;Node2</title>
<g id="a_edge1_Node000001_Node000002"><a xlink:title=" ">
<path fill="none" stroke="#63b8ff" d="M150.79,-223.59C144.66,-216.24 135.95,-205.8 128.51,-196.87"/>
<polygon fill="#63b8ff" stroke="#63b8ff" points="131.43,-194.9 122.34,-189.46 126.06,-199.38 131.43,-194.9"/>
</a>
</g>
</g>
<!-- Node5 -->
<g id="Node000005" class="node">
<title>Node5</title>
<g id="a_Node000005"><a xlink:title=" ">
<polygon fill="#e0e0e0" stroke="#999999" points="160.12,-20 117.12,-20 117.12,0 160.12,0 160.12,-20"/>
<text xml:space="preserve" text-anchor="middle" x="138.62" y="-6.5" font-family="Helvetica,sans-Serif" font-size="10.00">cmath</text>
</a>
</g>
</g>
<!-- Node1&#45;&gt;Node5 -->
<g id="edge8_Node000001_Node000005" class="edge">
<title>Node1&#45;&gt;Node5</title>
<g id="a_edge8_Node000001_Node000005"><a xlink:title=" ">
<path fill="none" stroke="#63b8ff" d="M167.66,-223.5C185.67,-203.39 223.17,-154.82 209.62,-112 199.18,-78.98 173.64,-47.41 156.22,-28.61"/>
<polygon fill="#63b8ff" stroke="#63b8ff" points="158.91,-26.36 149.47,-21.55 153.85,-31.2 158.91,-26.36"/>
</a>
</g>
</g>
<!-- Node3 -->
<g id="Node000003" class="node">
<title>Node3</title>
<g id="a_Node000003"><a xlink:href="Matrix_8h.html" target="_top" xlink:title=" ">
<polygon fill="white" stroke="#666666" points="136.88,-132 38.37,-132 38.37,-112 136.88,-112 136.88,-132"/>
<text xml:space="preserve" text-anchor="middle" x="87.62" y="-118.5" font-family="Helvetica,sans-Serif" font-size="10.00">LGE/math/Matrix.h</text>
</a>
</g>
</g>
<!-- Node2&#45;&gt;Node3 -->
<g id="edge2_Node000002_Node000003" class="edge">
<title>Node2&#45;&gt;Node3</title>
<g id="a_edge2_Node000002_Node000003"><a xlink:title=" ">
<path fill="none" stroke="#63b8ff" d="M109.1,-167.59C105.78,-160.7 101.16,-151.1 97.05,-142.57"/>
<polygon fill="#63b8ff" stroke="#63b8ff" points="100.25,-141.15 92.76,-133.66 93.94,-144.19 100.25,-141.15"/>
</a>
</g>
</g>
<!-- Node4 -->
<g id="Node000004" class="node">
<title>Node4</title>
<g id="a_Node000004"><a xlink:href="Vector_8h.html" target="_top" xlink:title=" ">
<polygon fill="white" stroke="#666666" points="99.25,-76 0,-76 0,-56 99.25,-56 99.25,-76"/>
<text xml:space="preserve" text-anchor="middle" x="49.62" y="-62.5" font-family="Helvetica,sans-Serif" font-size="10.00">LGE/math/Vector.h</text>
</a>
</g>
</g>
<!-- Node2&#45;&gt;Node4 -->
<g id="edge6_Node000002_Node000004" class="edge">
<title>Node2&#45;&gt;Node4</title>
<g id="a_edge6_Node000002_Node000004"><a xlink:title=" ">
<path fill="none" stroke="#63b8ff" d="M78.49,-167.65C60.52,-160.89 40.25,-149.74 29.62,-132 21.02,-117.63 28.09,-99.23 36.11,-85.68"/>
<polygon fill="#63b8ff" stroke="#63b8ff" points="38.8,-87.95 41.35,-77.67 32.94,-84.12 38.8,-87.95"/>
</a>
</g>
</g>
<!-- Node7 -->
<g id="Node000007" class="node">
<title>Node7</title>
<g id="a_Node000007"><a xlink:title=" ">
<polygon fill="#e0e0e0" stroke="#999999" points="200.25,-132 155,-132 155,-112 200.25,-112 200.25,-132"/>
<text xml:space="preserve" text-anchor="middle" x="177.62" y="-118.5" font-family="Helvetica,sans-Serif" font-size="10.00">cstdint</text>
</a>
</g>
</g>
<!-- Node2&#45;&gt;Node7 -->
<g id="edge7_Node000002_Node000007" class="edge">
<title>Node2&#45;&gt;Node7</title>
<g id="a_edge7_Node000002_Node000007"><a xlink:title=" ">
<path fill="none" stroke="#63b8ff" d="M124.77,-167.59C133.95,-159.85 147.18,-148.69 158.11,-139.47"/>
<polygon fill="#63b8ff" stroke="#63b8ff" points="160.06,-142.4 165.45,-133.27 155.55,-137.05 160.06,-142.4"/>
</a>
</g>
</g>
<!-- Node3&#45;&gt;Node4 -->
<g id="edge3_Node000003_Node000004" class="edge">
<title>Node3&#45;&gt;Node4</title>
<g id="a_edge3_Node000003_Node000004"><a xlink:title=" ">
<path fill="none" stroke="#63b8ff" d="M81.01,-111.59C75.94,-104.39 68.79,-94.23 62.6,-85.43"/>
<polygon fill="#63b8ff" stroke="#63b8ff" points="65.66,-83.7 57.04,-77.54 59.93,-87.73 65.66,-83.7"/>
</a>
</g>
</g>
<!-- Node6 -->
<g id="Node000006" class="node">
<title>Node6</title>
<g id="a_Node000006"><a xlink:title=" ">
<polygon fill="#e0e0e0" stroke="#999999" points="155.5,-76 117.75,-76 117.75,-56 155.5,-56 155.5,-76"/>
<text xml:space="preserve" text-anchor="middle" x="136.62" y="-62.5" font-family="Helvetica,sans-Serif" font-size="10.00">array</text>
</a>
</g>
</g>
<!-- Node3&#45;&gt;Node6 -->
<g id="edge5_Node000003_Node000006" class="edge">
<title>Node3&#45;&gt;Node6</title>
<g id="a_edge5_Node000003_Node000006"><a xlink:title=" ">
<path fill="none" stroke="#63b8ff" d="M96.16,-111.59C102.91,-104.16 112.51,-93.58 120.67,-84.58"/>
<polygon fill="#63b8ff" stroke="#63b8ff" points="123.04,-87.18 127.17,-77.42 117.86,-82.47 123.04,-87.18"/>
</a>
</g>
</g>
<!-- Node4&#45;&gt;Node5 -->
<g id="edge4_Node000004_Node000005" class="edge">
<title>Node4&#45;&gt;Node5</title>
<g id="a_edge4_Node000004_Node000005"><a xlink:title=" ">
<path fill="none" stroke="#63b8ff" d="M65.13,-55.59C78.45,-47.51 97.9,-35.71 113.45,-26.27"/>
<polygon fill="#63b8ff" stroke="#63b8ff" points="114.97,-29.44 121.71,-21.26 111.34,-23.46 114.97,-29.44"/>
</a>
</g>
</g>
</g>
</svg>
