<?xml version="1.0" encoding="UTF-8" standalone="no"?>
<!DOCTYPE svg PUBLIC "-//W3C//DTD SVG 1.1//EN"
 "http://www.w3.org/Graphics/SVG/1.1/DTD/svg11.dtd">
<!-- Generated by graphviz version 14.0.2 (20251019.1705)
 -->
<!-- Title: CameraController.h Pages: 1 -->
<svg width="247pt" height="252pt"
 viewBox="0.00 0.00 247.00 252.00" xmlns="http://www.w3.org/2000/svg" xmlns:xlink="http://www.w3.org/1999/xlink">
<g id="graph0" class="graph" transform="scale(1 1) rotate(0) translate(4 248)">
<title>CameraController.h</title>
<!-- Node1 -->
<g id="Node000001" class="node">
<title>Node1</title>
<g id="a_Node000001"><a xlink:title=" ">
<polygon fill="#999999" stroke="#666666" points="222,-244 121.25,-244 121.25,-224 222,-224 222,-244"/>
<text xml:space="preserve" text-anchor="middle" x="171.62" y="-230.5" font-family="Helvetica,sans-Serif" font-size="10.00">CameraController.h</text>
</a>
</g>
</g>
<!-- Node2 -->
<g id="Node000002" class="node">
<title>Node2</title>
<g id="a_Node000002"><a xlink:href="Camera_8h.html" target="_top" xlink:title=" ">
<polygon fill="white" stroke="#666666" points="188.62,-188 64.62,-188 64.62,-168 188.62,-168 188.62,-188"/>
<text xml:space="preserve" text-anchor="middle" x="126.62" y="-174.5" font-family="Helvetica,sans-Serif" font-size="10.00">LGE/rendering/Camera.h</text>
</a>
</g>
</g>
<!-- Node1&#45;&gt;Node2 -->
<g id="edge1_Node000001_Node000002" class="edge">
<title>Node1&#45;&gt;Node2</title>
<g id="a_edge1_Node000001_Node000002"><a xlink:title=" ">
<path fill="none" stroke="#63b8ff" d="M163.79,-223.59C157.66,-216.24 148.95,-205.8 141.51,-196.87"/>
<polygon fill="#63b8ff" stroke="#63b8ff" points="144.43,-194.9 135.34,-189.46 139.06,-199.38 144.43,-194.9"/>
</a>
</g>
</g>
<!-- Node7 -->
<g id="Node000007" class="node">
<title>Node7</title>
<g id="a_Node000007"><a xlink:title=" ">
<polygon fill="#e0e0e0" stroke="#999999" points="239.25,-132 194,-132 194,-112 239.25,-112 239.25,-132"/>
<text xml:space="preserve" text-anchor="middle" x="216.62" y="-118.5" font-family="Helvetica,sans-Serif" font-size="10.00">cstdint</text>
</a>
</g>
</g>
<!-- Node1&#45;&gt;Node7 -->
<g id="edge8_Node000001_Node000007" class="edge">
<title>Node1&#45;&gt;Node7</title>
<g id="a_edge8_Node000001_Node000007"><a xlink:title=" ">
<path fill="none" stroke="#63b8ff" d="M177.89,-223.69C183.65,-214.82 192.09,-200.94 197.62,-188 203.86,-173.42 208.8,-156.16 212.08,-143.09"/>
<polygon fill="#63b8ff" stroke="#63b8ff" points="215.44,-144.08 214.35,-133.54 208.63,-142.46 215.44,-144.08"/>
</a>
</g>
</g>
<!-- Node3 -->
<g id="Node000003" class="node">
<title>Node3</title>
<g id="a_Node000003"><a xlink:href="Matrix_8h.html" target="_top" xlink:title=" ">
<polygon fill="white" stroke="#666666" points="175.88,-132 77.38,-132 77.38,-112 175.88,-112 175.88,-132"/>
<text xml:space="preserve" text-anchor="middle" x="126.62" y="-118.5" font-family="Helvetica,sans-Serif" font-size="10.00">LGE/math/Matrix.h</text>
</a>
</g>
</g>
<!-- Node2&#45;&gt;Node3 -->
<g id="edge2_Node000002_Node000003" class="edge">
<title>Node2&#45;&gt;Node3</title>
<g id="a_edge2_Node000002_Node000003"><a xlink:title=" ">
<path fill="none" stroke="#63b8ff" d="M126.62,-167.59C126.62,-161.01 126.62,-151.96 126.62,-143.73"/>
<polygon fill="#63b8ff" stroke="#63b8ff" points="130.13,-143.81 126.63,-133.81 123.13,-143.81 130.13,-143.81"/>
</a>
</g>
</g>
<!-- Node4 -->
<g id="Node000004" class="node">
<title>Node4</title>
<g id="a_Node000004"><a xlink:href="Vector_8h.html" target="_top" xlink:title=" ">
<polygon fill="white" stroke="#666666" points="99.25,-76 0,-76 0,-56 99.25,-56 99.25,-76"/>
<text xml:space="preserve" text-anchor="middle" x="49.62" y="-62.5" font-family="Helvetica,sans-Serif" font-size="10.00">LGE/math/Vector.h</text>
</a>
</g>
</g>
<!-- Node2&#45;&gt;Node4 -->
<g id="edge6_Node000002_Node000004" class="edge">
<title>Node2&#45;&gt;Node4</title>
<g id="a_edge6_Node000002_Node000004"><a xlink:title=" ">
<path fill="none" stroke="#63b8ff" d="M109.23,-167.57C96.25,-159.68 79.02,-147.28 68.62,-132 59.51,-118.61 54.7,-100.8 52.2,-87.21"/>
<polygon fill="#63b8ff" stroke="#63b8ff" points="55.72,-87.01 50.74,-77.66 48.8,-88.07 55.72,-87.01"/>
</a>
</g>
</g>
<!-- Node2&#45;&gt;Node7 -->
<g id="edge7_Node000002_Node000007" class="edge">
<title>Node2&#45;&gt;Node7</title>
<g id="a_edge7_Node000002_Node000007"><a xlink:title=" ">
<path fill="none" stroke="#63b8ff" d="M142.3,-167.59C155.77,-159.51 175.44,-147.71 191.17,-138.27"/>
<polygon fill="#63b8ff" stroke="#63b8ff" points="192.75,-141.4 199.53,-133.26 189.15,-135.4 192.75,-141.4"/>
</a>
</g>
</g>
<!-- Node3&#45;&gt;Node4 -->
<g id="edge3_Node000003_Node000004" class="edge">
<title>Node3&#45;&gt;Node4</title>
<g id="a_edge3_Node000003_Node000004"><a xlink:title=" ">
<path fill="none" stroke="#63b8ff" d="M113.21,-111.59C102.02,-103.74 85.81,-92.38 72.57,-83.09"/>
<polygon fill="#63b8ff" stroke="#63b8ff" points="74.58,-80.22 64.38,-77.35 70.56,-85.96 74.58,-80.22"/>
</a>
</g>
</g>
<!-- Node6 -->
<g id="Node000006" class="node">
<title>Node6</title>
<g id="a_Node000006"><a xlink:title=" ">
<polygon fill="#e0e0e0" stroke="#999999" points="155.5,-76 117.75,-76 117.75,-56 155.5,-56 155.5,-76"/>
<text xml:space="preserve" text-anchor="middle" x="136.62" y="-62.5" font-family="Helvetica,sans-Serif" font-size="10.00">array</text>
</a>
</g>
</g>
<!-- Node3&#45;&gt;Node6 -->
<g id="edge5_Node000003_Node000006" class="edge">
<title>Node3&#45;&gt;Node6</title>
<g id="a_edge5_Node000003_Node000006"><a xlink:title=" ">
<path fill="none" stroke="#63b8ff" d="M128.37,-111.59C129.6,-104.93 131.3,-95.75 132.84,-87.44"/>
<polygon fill="#63b8ff" stroke="#63b8ff" points="136.25,-88.26 134.63,-77.79 129.37,-86.98 136.25,-88.26"/>
</a>
</g>
</g>
<!-- Node5 -->
<g id="Node000005" class="node">
<title>Node5</title>
<g id="a_Node000005"><a xlink:title=" ">
<polygon fill="#e0e0e0" stroke="#999999" points="71.12,-20 28.12,-20 28.12,0 71.12,0 71.12,-20"/>
<text xml:space="preserve" text-anchor="middle" x="49.62" y="-6.5" font-family="Helvetica,sans-Serif" font-size="10.00">cmath</text>
</a>
</g>
</g>
<!-- Node4&#45;&gt;Node5 -->
<g id="edge4_Node000004_Node000005" class="edge">
<title>Node4&#45;&gt;Node5</title>
<g id="a_edge4_Node000004_Node000005"><a xlink:title=" ">
<path fill="none" stroke="#63b8ff" d="M49.62,-55.59C49.62,-49.01 49.62,-39.96 49.62,-31.73"/>
<polygon fill="#63b8ff" stroke="#63b8ff" points="53.13,-31.81 49.63,-21.81 46.13,-31.81 53.13,-31.81"/>
</a>
</g>
</g>
</g>
</svg>
