<?xml version="1.0" encoding="UTF-8" standalone="no"?>
<!DOCTYPE svg PUBLIC "-//W3C//DTD SVG 1.1//EN"
 "http://www.w3.org/Graphics/SVG/1.1/DTD/svg11.dtd">
<!-- Generated by graphviz version 14.0.2 (20251019.1705)
 -->
<!-- Title: CameraController.cpp Pages: 1 -->
<svg width="409pt" height="308pt"
 viewBox="0.00 0.00 409.00 308.00" xmlns="http://www.w3.org/2000/svg" xmlns:xlink="http://www.w3.org/1999/xlink">
<g id="graph0" class="graph" transform="scale(1 1) rotate(0) translate(4 304)">
<title>CameraController.cpp</title>
<!-- Node1 -->
<g id="Node000001" class="node">
<title>Node1</title>
<g id="a_Node000001"><a xlink:title=" ">
<polygon fill="#999999" stroke="#666666" points="260.62,-300 149.38,-300 149.38,-280 260.62,-280 260.62,-300"/>
<text xml:space="preserve" text-anchor="middle" x="205" y="-286.5" font-family="Helvetica,sans-Serif" font-size="10.00">CameraController.cpp</text>
</a>
</g>
</g>
<!-- Node2 -->
<g id="Node000002" class="node">
<title>Node2</title>
<g id="a_Node000002"><a xlink:href="CameraController_8h.html" target="_top" xlink:title=" ">
<polygon fill="white" stroke="#666666" points="233,-244 67,-244 67,-224 233,-224 233,-244"/>
<text xml:space="preserve" text-anchor="middle" x="150" y="-230.5" font-family="Helvetica,sans-Serif" font-size="10.00">LGE/rendering/CameraController.h</text>
</a>
</g>
</g>
<!-- Node1&#45;&gt;Node2 -->
<g id="edge1_Node000001_Node000002" class="edge">
<title>Node1&#45;&gt;Node2</title>
<g id="a_edge1_Node000001_Node000002"><a xlink:title=" ">
<path fill="none" stroke="#63b8ff" d="M195.42,-279.59C187.77,-272.08 176.84,-261.35 167.62,-252.3"/>
<polygon fill="#63b8ff" stroke="#63b8ff" points="170.14,-249.87 160.55,-245.36 165.23,-254.86 170.14,-249.87"/>
</a>
</g>
</g>
<!-- Node5 -->
<g id="Node000005" class="node">
<title>Node5</title>
<g id="a_Node000005"><a xlink:href="Vector_8h.html" target="_top" xlink:title=" ">
<polygon fill="white" stroke="#666666" points="340.62,-76 241.38,-76 241.38,-56 340.62,-56 340.62,-76"/>
<text xml:space="preserve" text-anchor="middle" x="291" y="-62.5" font-family="Helvetica,sans-Serif" font-size="10.00">LGE/math/Vector.h</text>
</a>
</g>
</g>
<!-- Node1&#45;&gt;Node5 -->
<g id="edge14_Node000001_Node000005" class="edge">
<title>Node1&#45;&gt;Node5</title>
<g id="a_edge14_Node000001_Node000005"><a xlink:title=" ">
<path fill="none" stroke="#63b8ff" d="M260.67,-282.83C308.57,-276.24 372.36,-263.96 388,-244 430.03,-190.38 352.28,-116.12 312.44,-83.49"/>
<polygon fill="#63b8ff" stroke="#63b8ff" points="314.85,-80.94 304.85,-77.43 310.47,-86.41 314.85,-80.94"/>
</a>
</g>
</g>
<!-- Node6 -->
<g id="Node000006" class="node">
<title>Node6</title>
<g id="a_Node000006"><a xlink:title=" ">
<polygon fill="#e0e0e0" stroke="#999999" points="166.5,-20 123.5,-20 123.5,0 166.5,0 166.5,-20"/>
<text xml:space="preserve" text-anchor="middle" x="145" y="-6.5" font-family="Helvetica,sans-Serif" font-size="10.00">cmath</text>
</a>
</g>
</g>
<!-- Node1&#45;&gt;Node6 -->
<g id="edge16_Node000001_Node000006" class="edge">
<title>Node1&#45;&gt;Node6</title>
<g id="a_edge16_Node000001_Node000006"><a xlink:title=" ">
<path fill="none" stroke="#63b8ff" d="M148.98,-283C88.29,-273.02 0,-246.86 0,-179 0,-179 0,-179 0,-121 0,-64.87 69.81,-33.68 112.55,-19.84"/>
<polygon fill="#63b8ff" stroke="#63b8ff" points="113.31,-23.26 121.85,-16.98 111.26,-16.57 113.31,-23.26"/>
</a>
</g>
</g>
<!-- Node9 -->
<g id="Node000009" class="node">
<title>Node9</title>
<g id="a_Node000009"><a xlink:href="Input_8h.html" target="_top" xlink:title=" ">
<polygon fill="white" stroke="#666666" points="379.12,-244 288.88,-244 288.88,-224 379.12,-224 379.12,-244"/>
<text xml:space="preserve" text-anchor="middle" x="334" y="-230.5" font-family="Helvetica,sans-Serif" font-size="10.00">LGE/core/Input.h</text>
</a>
</g>
</g>
<!-- Node1&#45;&gt;Node9 -->
<g id="edge10_Node000001_Node000009" class="edge">
<title>Node1&#45;&gt;Node9</title>
<g id="a_edge10_Node000001_Node000009"><a xlink:title=" ">
<path fill="none" stroke="#63b8ff" d="M227.47,-279.59C247.79,-271.09 277.95,-258.46 301.01,-248.81"/>
<polygon fill="#63b8ff" stroke="#63b8ff" points="302.09,-252.15 309.96,-245.06 299.38,-245.7 302.09,-252.15"/>
</a>
</g>
</g>
<!-- Node10 -->
<g id="Node000010" class="node">
<title>Node10</title>
<g id="a_Node000010"><a xlink:title=" ">
<polygon fill="#e0e0e0" stroke="#999999" points="373.5,-188 294.5,-188 294.5,-168 373.5,-168 373.5,-188"/>
<text xml:space="preserve" text-anchor="middle" x="334" y="-174.5" font-family="Helvetica,sans-Serif" font-size="10.00">GLFW/glfw3.h</text>
</a>
</g>
</g>
<!-- Node1&#45;&gt;Node10 -->
<g id="edge15_Node000001_Node000010" class="edge">
<title>Node1&#45;&gt;Node10</title>
<g id="a_edge15_Node000001_Node000010"><a xlink:title=" ">
<path fill="none" stroke="#63b8ff" d="M215.63,-279.68C230.11,-267 256.89,-243.64 280,-224 291.25,-214.44 303.92,-203.87 314.17,-195.37"/>
<polygon fill="#63b8ff" stroke="#63b8ff" points="316.14,-198.28 321.61,-189.21 311.68,-192.89 316.14,-198.28"/>
</a>
</g>
</g>
<!-- Node11 -->
<g id="Node000011" class="node">
<title>Node11</title>
<g id="a_Node000011"><a xlink:href="UI_8h.html" target="_top" xlink:title=" ">
<polygon fill="white" stroke="#666666" points="95.88,-188 28.12,-188 28.12,-168 95.88,-168 95.88,-188"/>
<text xml:space="preserve" text-anchor="middle" x="62" y="-174.5" font-family="Helvetica,sans-Serif" font-size="10.00">LGE/ui/UI.h</text>
</a>
</g>
</g>
<!-- Node1&#45;&gt;Node11 -->
<g id="edge12_Node000001_Node000011" class="edge">
<title>Node1&#45;&gt;Node11</title>
<g id="a_edge12_Node000001_Node000011"><a xlink:title=" ">
<path fill="none" stroke="#63b8ff" d="M148.96,-287.4C116.8,-283.23 78.79,-272.11 58,-244 48.64,-231.35 50.64,-213.23 54.42,-199.34"/>
<polygon fill="#63b8ff" stroke="#63b8ff" points="57.72,-200.49 57.48,-189.9 51.07,-198.33 57.72,-200.49"/>
</a>
</g>
</g>
<!-- Node3 -->
<g id="Node000003" class="node">
<title>Node3</title>
<g id="a_Node000003"><a xlink:href="Camera_8h.html" target="_top" xlink:title=" ">
<polygon fill="white" stroke="#666666" points="276,-188 152,-188 152,-168 276,-168 276,-188"/>
<text xml:space="preserve" text-anchor="middle" x="214" y="-174.5" font-family="Helvetica,sans-Serif" font-size="10.00">LGE/rendering/Camera.h</text>
</a>
</g>
</g>
<!-- Node2&#45;&gt;Node3 -->
<g id="edge2_Node000002_Node000003" class="edge">
<title>Node2&#45;&gt;Node3</title>
<g id="a_edge2_Node000002_Node000003"><a xlink:title=" ">
<path fill="none" stroke="#63b8ff" d="M161.15,-223.59C170.33,-215.85 183.55,-204.69 194.48,-195.47"/>
<polygon fill="#63b8ff" stroke="#63b8ff" points="196.44,-198.4 201.82,-189.27 191.92,-193.05 196.44,-198.4"/>
</a>
</g>
</g>
<!-- Node8 -->
<g id="Node000008" class="node">
<title>Node8</title>
<g id="a_Node000008"><a xlink:title=" ">
<polygon fill="#e0e0e0" stroke="#999999" points="146.62,-132 101.38,-132 101.38,-112 146.62,-112 146.62,-132"/>
<text xml:space="preserve" text-anchor="middle" x="124" y="-118.5" font-family="Helvetica,sans-Serif" font-size="10.00">cstdint</text>
</a>
</g>
</g>
<!-- Node2&#45;&gt;Node8 -->
<g id="edge9_Node000002_Node000008" class="edge">
<title>Node2&#45;&gt;Node8</title>
<g id="a_edge9_Node000002_Node000008"><a xlink:title=" ">
<path fill="none" stroke="#63b8ff" d="M147.78,-223.62C143.6,-205.92 134.46,-167.24 128.8,-143.32"/>
<polygon fill="#63b8ff" stroke="#63b8ff" points="132.27,-142.75 126.56,-133.83 125.45,-144.36 132.27,-142.75"/>
</a>
</g>
</g>
<!-- Node4 -->
<g id="Node000004" class="node">
<title>Node4</title>
<g id="a_Node000004"><a xlink:href="Matrix_8h.html" target="_top" xlink:title=" ">
<polygon fill="white" stroke="#666666" points="263.25,-132 164.75,-132 164.75,-112 263.25,-112 263.25,-132"/>
<text xml:space="preserve" text-anchor="middle" x="214" y="-118.5" font-family="Helvetica,sans-Serif" font-size="10.00">LGE/math/Matrix.h</text>
</a>
</g>
</g>
<!-- Node3&#45;&gt;Node4 -->
<g id="edge3_Node000003_Node000004" class="edge">
<title>Node3&#45;&gt;Node4</title>
<g id="a_edge3_Node000003_Node000004"><a xlink:title=" ">
<path fill="none" stroke="#63b8ff" d="M214,-167.59C214,-161.01 214,-151.96 214,-143.73"/>
<polygon fill="#63b8ff" stroke="#63b8ff" points="217.5,-143.81 214,-133.81 210.5,-143.81 217.5,-143.81"/>
</a>
</g>
</g>
<!-- Node3&#45;&gt;Node5 -->
<g id="edge7_Node000003_Node000005" class="edge">
<title>Node3&#45;&gt;Node5</title>
<g id="a_edge7_Node000003_Node000005"><a xlink:title=" ">
<path fill="none" stroke="#63b8ff" d="M231.39,-167.57C244.37,-159.68 261.6,-147.28 272,-132 281.12,-118.61 285.92,-100.8 288.42,-87.21"/>
<polygon fill="#63b8ff" stroke="#63b8ff" points="291.83,-88.07 289.89,-77.66 284.91,-87.01 291.83,-88.07"/>
</a>
</g>
</g>
<!-- Node3&#45;&gt;Node8 -->
<g id="edge8_Node000003_Node000008" class="edge">
<title>Node3&#45;&gt;Node8</title>
<g id="a_edge8_Node000003_Node000008"><a xlink:title=" ">
<path fill="none" stroke="#63b8ff" d="M198.32,-167.59C184.86,-159.51 165.18,-147.71 149.46,-138.27"/>
<polygon fill="#63b8ff" stroke="#63b8ff" points="151.47,-135.4 141.1,-133.26 147.87,-141.4 151.47,-135.4"/>
</a>
</g>
</g>
<!-- Node4&#45;&gt;Node5 -->
<g id="edge4_Node000004_Node000005" class="edge">
<title>Node4&#45;&gt;Node5</title>
<g id="a_edge4_Node000004_Node000005"><a xlink:title=" ">
<path fill="none" stroke="#63b8ff" d="M227.41,-111.59C238.61,-103.74 254.81,-92.38 268.06,-83.09"/>
<polygon fill="#63b8ff" stroke="#63b8ff" points="270.07,-85.96 276.24,-77.35 266.05,-80.22 270.07,-85.96"/>
</a>
</g>
</g>
<!-- Node7 -->
<g id="Node000007" class="node">
<title>Node7</title>
<g id="a_Node000007"><a xlink:title=" ">
<polygon fill="#e0e0e0" stroke="#999999" points="222.88,-76 185.12,-76 185.12,-56 222.88,-56 222.88,-76"/>
<text xml:space="preserve" text-anchor="middle" x="204" y="-62.5" font-family="Helvetica,sans-Serif" font-size="10.00">array</text>
</a>
</g>
</g>
<!-- Node4&#45;&gt;Node7 -->
<g id="edge6_Node000004_Node000007" class="edge">
<title>Node4&#45;&gt;Node7</title>
<g id="a_edge6_Node000004_Node000007"><a xlink:title=" ">
<path fill="none" stroke="#63b8ff" d="M212.26,-111.59C211.02,-104.93 209.32,-95.75 207.79,-87.44"/>
<polygon fill="#63b8ff" stroke="#63b8ff" points="211.26,-86.98 206,-77.79 204.38,-88.26 211.26,-86.98"/>
</a>
</g>
</g>
<!-- Node5&#45;&gt;Node6 -->
<g id="edge5_Node000005_Node000006" class="edge">
<title>Node5&#45;&gt;Node6</title>
<g id="a_edge5_Node000005_Node000006"><a xlink:title=" ">
<path fill="none" stroke="#63b8ff" d="M265.57,-55.59C241.12,-46.55 204.06,-32.85 177.49,-23.02"/>
<polygon fill="#63b8ff" stroke="#63b8ff" points="178.82,-19.78 168.23,-19.59 176.39,-26.34 178.82,-19.78"/>
</a>
</g>
</g>
<!-- Node9&#45;&gt;Node10 -->
<g id="edge11_Node000009_Node000010" class="edge">
<title>Node9&#45;&gt;Node10</title>
<g id="a_edge11_Node000009_Node000010"><a xlink:title=" ">
<path fill="none" stroke="#63b8ff" d="M334,-223.59C334,-217.01 334,-207.96 334,-199.73"/>
<polygon fill="#63b8ff" stroke="#63b8ff" points="337.5,-199.81 334,-189.81 330.5,-199.81 337.5,-199.81"/>
</a>
</g>
</g>
<!-- Node11&#45;&gt;Node8 -->
<g id="edge13_Node000011_Node000008" class="edge">
<title>Node11&#45;&gt;Node8</title>
<g id="a_edge13_Node000011_Node000008"><a xlink:title=" ">
<path fill="none" stroke="#63b8ff" d="M72.8,-167.59C81.6,-159.93 94.25,-148.91 104.77,-139.75"/>
<polygon fill="#63b8ff" stroke="#63b8ff" points="106.94,-142.5 112.18,-133.29 102.34,-137.22 106.94,-142.5"/>
</a>
</g>
</g>
</g>
</svg>
