<?xml version="1.0" encoding="UTF-8" standalone="no"?>
<!DOCTYPE svg PUBLIC "-//W3C//DTD SVG 1.1//EN"
 "http://www.w3.org/Graphics/SVG/1.1/DTD/svg11.dtd">
<!-- Generated by graphviz version 14.0.2 (20251019.1705)
 -->
<!-- Title: LGE::FileSystemWatcher::StopWatching Pages: 1 -->
<svg width="298pt" height="90pt"
 viewBox="0.00 0.00 298.00 90.00" xmlns="http://www.w3.org/2000/svg" xmlns:xlink="http://www.w3.org/1999/xlink">
<g id="graph0" class="graph" transform="scale(1 1) rotate(0) translate(4 86)">
<title>LGE::FileSystemWatcher::StopWatching</title>
<!-- Node1 -->
<g id="Node000001" class="node">
<title>Node1</title>
<g id="a_Node000001"><a xlink:title=" ">
<polygon fill="#999999" stroke="#666666" points="290,-57 163,-57 163,-25 290,-25 290,-57"/>
<text xml:space="preserve" text-anchor="start" x="171" y="-43.5" font-family="Helvetica,sans-Serif" font-size="10.00">LGE::FileSystemWatcher</text>
<text xml:space="preserve" text-anchor="middle" x="226.5" y="-31.5" font-family="Helvetica,sans-Serif" font-size="10.00">::StopWatching</text>
</a>
</g>
</g>
<!-- Node2 -->
<g id="Node000002" class="node">
<title>Node2</title>
<g id="a_Node000002"><a xlink:href="classLGE_1_1FileSystemWatcher.html#aeb30b79dbe963b6c88e961428d94608d" target="_top" xlink:title=" ">
<polygon fill="white" stroke="#666666" points="127,-82 0,-82 0,-50 127,-50 127,-82"/>
<text xml:space="preserve" text-anchor="start" x="8" y="-68.5" font-family="Helvetica,sans-Serif" font-size="10.00">LGE::FileSystemWatcher</text>
<text xml:space="preserve" text-anchor="middle" x="63.5" y="-56.5" font-family="Helvetica,sans-Serif" font-size="10.00">::WatchDirectory</text>
</a>
</g>
</g>
<!-- Node1&#45;&gt;Node2 -->
<g id="edge1_Node000001_Node000002" class="edge">
<title>Node1&#45;&gt;Node2</title>
<g id="a_edge1_Node000001_Node000002"><a xlink:title=" ">
<path fill="none" stroke="#63b8ff" d="M151.47,-52.5C143.39,-53.75 135.22,-55.02 127.3,-56.25"/>
<polygon fill="#63b8ff" stroke="#63b8ff" points="151.95,-55.96 161.3,-50.97 150.88,-49.05 151.95,-55.96"/>
</a>
</g>
</g>
<!-- Node3 -->
<g id="Node000003" class="node">
<title>Node3</title>
<g id="a_Node000003"><a xlink:href="classLGE_1_1FileSystemWatcher.html#a4569d9041b659d6c84f870b2d0c7bf2e" target="_top" xlink:title=" ">
<polygon fill="white" stroke="#666666" points="127,-32 0,-32 0,0 127,0 127,-32"/>
<text xml:space="preserve" text-anchor="start" x="8" y="-18.5" font-family="Helvetica,sans-Serif" font-size="10.00">LGE::FileSystemWatcher</text>
<text xml:space="preserve" text-anchor="middle" x="63.5" y="-6.5" font-family="Helvetica,sans-Serif" font-size="10.00">::~FileSystemWatcher</text>
</a>
</g>
</g>
<!-- Node1&#45;&gt;Node3 -->
<g id="edge2_Node000001_Node000003" class="edge">
<title>Node1&#45;&gt;Node3</title>
<g id="a_edge2_Node000001_Node000003"><a xlink:title=" ">
<path fill="none" stroke="#63b8ff" d="M151.47,-29.5C143.39,-28.25 135.22,-26.98 127.3,-25.75"/>
<polygon fill="#63b8ff" stroke="#63b8ff" points="150.88,-32.95 161.3,-31.03 151.95,-26.04 150.88,-32.95"/>
</a>
</g>
</g>
</g>
</svg>
