<?xml version="1.0" encoding="UTF-8" standalone="no"?>
<!DOCTYPE svg PUBLIC "-//W3C//DTD SVG 1.1//EN"
 "http://www.w3.org/Graphics/SVG/1.1/DTD/svg11.dtd">
<!-- Generated by graphviz version 14.0.2 (20251019.1705)
 -->
<!-- Title: LGE::MaterialInstance::MaterialInstance Pages: 1 -->
<svg width="271pt" height="78pt"
 viewBox="0.00 0.00 271.00 78.00" xmlns="http://www.w3.org/2000/svg" xmlns:xlink="http://www.w3.org/1999/xlink">
<g id="graph0" class="graph" transform="scale(1 1) rotate(0) translate(4 74)">
<title>LGE::MaterialInstance::MaterialInstance</title>
<!-- Node1 -->
<g id="Node000001" class="node">
<title>Node1</title>
<g id="a_Node000001"><a xlink:title=" ">
<polygon fill="#999999" stroke="#666666" points="113.5,-54 0,-54 0,-22 113.5,-22 113.5,-54"/>
<text xml:space="preserve" text-anchor="start" x="8" y="-40.5" font-family="Helvetica,sans-Serif" font-size="10.00">LGE::MaterialInstance</text>
<text xml:space="preserve" text-anchor="middle" x="56.75" y="-28.5" font-family="Helvetica,sans-Serif" font-size="10.00">::MaterialInstance</text>
</a>
</g>
</g>
<!-- Node2 -->
<g id="Node000002" class="node">
<title>Node2</title>
<g id="a_Node000002"><a xlink:href="classLGE_1_1Log.html#a53f3f4b8797ffd18145739c9e66d690a" target="_top" xlink:title=" ">
<polygon fill="white" stroke="#666666" points="248.38,-70 164.12,-70 164.12,-50 248.38,-50 248.38,-70"/>
<text xml:space="preserve" text-anchor="middle" x="206.25" y="-56.5" font-family="Helvetica,sans-Serif" font-size="10.00">LGE::Log::Error</text>
</a>
</g>
</g>
<!-- Node1&#45;&gt;Node2 -->
<g id="edge1_Node000001_Node000002" class="edge">
<title>Node1&#45;&gt;Node2</title>
<g id="a_edge1_Node000001_Node000002"><a xlink:title=" ">
<path fill="none" stroke="#63b8ff" d="M113.93,-46.38C126.65,-48.28 140.11,-50.28 152.67,-52.16"/>
<polygon fill="#63b8ff" stroke="#63b8ff" points="152,-55.6 162.41,-53.61 153.03,-48.67 152,-55.6"/>
</a>
</g>
</g>
<!-- Node3 -->
<g id="Node000003" class="node">
<title>Node3</title>
<g id="a_Node000003"><a xlink:href="classLGE_1_1MaterialInstance.html#a3b5638fa0c00da75d1430123f3c29265" target="_top" xlink:title=" ">
<polygon fill="white" stroke="#666666" points="263,-32 149.5,-32 149.5,0 263,0 263,-32"/>
<text xml:space="preserve" text-anchor="start" x="157.5" y="-18.5" font-family="Helvetica,sans-Serif" font-size="10.00">LGE::MaterialInstance</text>
<text xml:space="preserve" text-anchor="middle" x="206.25" y="-6.5" font-family="Helvetica,sans-Serif" font-size="10.00">::GetName</text>
</a>
</g>
</g>
<!-- Node1&#45;&gt;Node3 -->
<g id="edge2_Node000001_Node000003" class="edge">
<title>Node1&#45;&gt;Node3</title>
<g id="a_edge2_Node000001_Node000003"><a xlink:title=" ">
<path fill="none" stroke="#63b8ff" d="M113.93,-29.62C121.79,-28.45 129.93,-27.23 137.97,-26.04"/>
<polygon fill="#63b8ff" stroke="#63b8ff" points="138.35,-29.52 147.73,-24.58 137.32,-22.59 138.35,-29.52"/>
</a>
</g>
</g>
</g>
</svg>
