<?xml version="1.0" encoding="UTF-8" standalone="no"?>
<!DOCTYPE svg PUBLIC "-//W3C//DTD SVG 1.1//EN"
 "http://www.w3.org/Graphics/SVG/1.1/DTD/svg11.dtd">
<!-- Generated by graphviz version 14.0.2 (20251019.1705)
 -->
<!-- Title: LGE::UI::Initialize Pages: 1 -->
<svg width="300pt" height="78pt"
 viewBox="0.00 0.00 300.00 78.00" xmlns="http://www.w3.org/2000/svg" xmlns:xlink="http://www.w3.org/1999/xlink">
<g id="graph0" class="graph" transform="scale(1 1) rotate(0) translate(4 74)">
<title>LGE::UI::Initialize</title>
<!-- Node1 -->
<g id="Node000001" class="node">
<title>Node1</title>
<g id="a_Node000001"><a xlink:title=" ">
<polygon fill="#999999" stroke="#666666" points="94,-42 0,-42 0,-22 94,-22 94,-42"/>
<text xml:space="preserve" text-anchor="middle" x="47" y="-28.5" font-family="Helvetica,sans-Serif" font-size="10.00">LGE::UI::Initialize</text>
</a>
</g>
</g>
<!-- Node2 -->
<g id="Node000002" class="node">
<title>Node2</title>
<g id="a_Node000002"><a xlink:href="classLGE_1_1UITheme.html#aef391e7b2adc251c63268db540539c3c" target="_top" xlink:title=" ">
<polygon fill="white" stroke="#666666" points="283.62,-70 138.62,-70 138.62,-38 283.62,-38 283.62,-70"/>
<text xml:space="preserve" text-anchor="start" x="146.62" y="-56.5" font-family="Helvetica,sans-Serif" font-size="10.00">LGE::UITheme::ApplyModern</text>
<text xml:space="preserve" text-anchor="middle" x="211.12" y="-44.5" font-family="Helvetica,sans-Serif" font-size="10.00">Theme</text>
</a>
</g>
</g>
<!-- Node1&#45;&gt;Node2 -->
<g id="edge1_Node000001_Node000002" class="edge">
<title>Node1&#45;&gt;Node2</title>
<g id="a_edge1_Node000001_Node000002"><a xlink:title=" ">
<path fill="none" stroke="#63b8ff" d="M94.46,-38.3C104.7,-39.69 115.86,-41.21 127.06,-42.73"/>
<polygon fill="#63b8ff" stroke="#63b8ff" points="126.37,-46.17 136.75,-44.04 127.31,-39.23 126.37,-46.17"/>
</a>
</g>
</g>
<!-- Node3 -->
<g id="Node000003" class="node">
<title>Node3</title>
<g id="a_Node000003"><a xlink:href="classLGE_1_1Window.html#a2181342e775ab5b5a060f6386042a97d" target="_top" xlink:title=" ">
<polygon fill="white" stroke="#666666" points="292.25,-20 130,-20 130,0 292.25,0 292.25,-20"/>
<text xml:space="preserve" text-anchor="middle" x="211.12" y="-6.5" font-family="Helvetica,sans-Serif" font-size="10.00">LGE::Window::GetNativeWindow</text>
</a>
</g>
</g>
<!-- Node1&#45;&gt;Node3 -->
<g id="edge2_Node000001_Node000003" class="edge">
<title>Node1&#45;&gt;Node3</title>
<g id="a_edge2_Node000001_Node000003"><a xlink:title=" ">
<path fill="none" stroke="#63b8ff" d="M94.46,-25.7C103.13,-24.52 112.46,-23.25 121.92,-21.97"/>
<polygon fill="#63b8ff" stroke="#63b8ff" points="122.11,-25.48 131.55,-20.66 121.17,-18.54 122.11,-25.48"/>
</a>
</g>
</g>
</g>
</svg>
