<?xml version="1.0" encoding="UTF-8" standalone="no"?>
<!DOCTYPE svg PUBLIC "-//W3C//DTD SVG 1.1//EN"
 "http://www.w3.org/Graphics/SVG/1.1/DTD/svg11.dtd">
<!-- Generated by graphviz version 14.0.2 (20251019.1705)
 -->
<!-- Title: ExampleApp Pages: 1 -->
<svg width="319pt" height="345pt"
 viewBox="0.00 0.00 319.00 345.00" xmlns="http://www.w3.org/2000/svg" xmlns:xlink="http://www.w3.org/1999/xlink">
<g id="graph0" class="graph" transform="scale(1 1) rotate(0) translate(4 341)">
<title>ExampleApp</title>
<!-- Node1 -->
<g id="Node000001" class="node">
<title>Node1</title>
<g id="a_Node000001"><a xlink:title=" ">
<polygon fill="#999999" stroke="#666666" points="197.25,-20 125.75,-20 125.75,0 197.25,0 197.25,-20"/>
<text xml:space="preserve" text-anchor="middle" x="161.5" y="-6.5" font-family="Helvetica,sans-Serif" font-size="10.00">ExampleApp</text>
</a>
</g>
</g>
<!-- Node2 -->
<g id="Node000002" class="node">
<title>Node2</title>
<g id="a_Node000002"><a xlink:href="classLGE_1_1Application.html" target="_top" xlink:title=" ">
<polygon fill="white" stroke="#666666" points="206.25,-77 116.75,-77 116.75,-57 206.25,-57 206.25,-77"/>
<text xml:space="preserve" text-anchor="middle" x="161.5" y="-63.5" font-family="Helvetica,sans-Serif" font-size="10.00">LGE::Application</text>
</a>
</g>
</g>
<!-- Node2&#45;&gt;Node1 -->
<g id="edge1_Node000001_Node000002" class="edge">
<title>Node2&#45;&gt;Node1</title>
<g id="a_edge1_Node000001_Node000002"><a xlink:title=" ">
<path fill="none" stroke="#63b8ff" d="M161.5,-45.69C161.5,-36.97 161.5,-27.22 161.5,-20.28"/>
<polygon fill="#63b8ff" stroke="#63b8ff" points="158,-45.4 161.5,-55.4 165,-45.4 158,-45.4"/>
</a>
</g>
</g>
<!-- Node3 -->
<g id="Node000003" class="node">
<title>Node3</title>
<g id="a_Node000003"><a xlink:title=" ">
<polygon fill="white" stroke="#666666" points="109,-213 0,-213 0,-181 109,-181 109,-213"/>
<text xml:space="preserve" text-anchor="start" x="8" y="-199.5" font-family="Helvetica,sans-Serif" font-size="10.00">std::unique_ptr&lt; LGE</text>
<text xml:space="preserve" text-anchor="middle" x="54.5" y="-187.5" font-family="Helvetica,sans-Serif" font-size="10.00">::Window &gt;</text>
</a>
</g>
</g>
<!-- Node3&#45;&gt;Node2 -->
<g id="edge2_Node000002_Node000003" class="edge">
<title>Node3&#45;&gt;Node2</title>
<g id="a_edge2_Node000002_Node000003"><a xlink:title=" ">
<path fill="none" stroke="#9a32cd" stroke-dasharray="5,2" d="M42.06,-170.4C37.79,-157.78 35.66,-142.78 42.75,-131 59.83,-102.6 94.5,-86.32 121.99,-77.46"/>
<polygon fill="#9a32cd" stroke="#9a32cd" points="38.66,-171.34 45.62,-179.34 45.17,-168.75 38.66,-171.34"/>
</a>
</g>
<text xml:space="preserve" text-anchor="start" x="45.75" y="-143.5" font-family="Helvetica,sans-Serif" font-size="10.00" fill="grey">m_Window</text>
</g>
<!-- Node4 -->
<g id="Node000004" class="node">
<title>Node4</title>
<g id="a_Node000004"><a xlink:href="classLGE_1_1Window.html" target="_top" xlink:title=" ">
<polygon fill="white" stroke="#666666" points="125.88,-337 49.12,-337 49.12,-317 125.88,-317 125.88,-337"/>
<text xml:space="preserve" text-anchor="middle" x="87.5" y="-323.5" font-family="Helvetica,sans-Serif" font-size="10.00">LGE::Window</text>
</a>
</g>
</g>
<!-- Node4&#45;&gt;Node3 -->
<g id="edge3_Node000003_Node000004" class="edge">
<title>Node4&#45;&gt;Node3</title>
<g id="a_edge3_Node000003_Node000004"><a xlink:title=" ">
<path fill="none" stroke="#9a32cd" stroke-dasharray="5,2" d="M82.3,-305.81C75.67,-280.13 64.39,-236.35 58.44,-213.27"/>
<polygon fill="#9a32cd" stroke="#9a32cd" points="78.86,-306.52 84.75,-315.33 85.64,-304.77 78.86,-306.52"/>
</a>
</g>
<text xml:space="preserve" text-anchor="start" x="83.37" y="-286.5" font-family="Helvetica,sans-Serif" font-size="10.00" fill="grey">ptr</text>
</g>
<!-- Node6 -->
<g id="Node000006" class="node">
<title>Node6</title>
<g id="a_Node000006"><a xlink:href="classLGE_1_1Renderer.html" target="_top" xlink:title=" ">
<polygon fill="white" stroke="#666666" points="191.12,-257 109.88,-257 109.88,-237 191.12,-237 191.12,-257"/>
<text xml:space="preserve" text-anchor="middle" x="150.5" y="-243.5" font-family="Helvetica,sans-Serif" font-size="10.00">LGE::Renderer</text>
</a>
</g>
</g>
<!-- Node4&#45;&gt;Node6 -->
<g id="edge6_Node000006_Node000004" class="edge">
<title>Node4&#45;&gt;Node6</title>
<g id="a_edge6_Node000006_Node000004"><a xlink:title=" ">
<path fill="none" stroke="#9a32cd" stroke-dasharray="5,2" d="M102.14,-307.87C114.94,-292.03 133,-269.67 143.04,-257.24"/>
<polygon fill="#9a32cd" stroke="#9a32cd" points="99.49,-305.59 95.93,-315.57 104.93,-309.99 99.49,-305.59"/>
</a>
</g>
<text xml:space="preserve" text-anchor="start" x="125.77" y="-286.5" font-family="Helvetica,sans-Serif" font-size="10.00" fill="grey">m_Window</text>
</g>
<!-- Node5 -->
<g id="Node000005" class="node">
<title>Node5</title>
<g id="a_Node000005"><a xlink:title=" ">
<polygon fill="white" stroke="#666666" points="216,-163 107,-163 107,-131 216,-131 216,-163"/>
<text xml:space="preserve" text-anchor="start" x="115" y="-149.5" font-family="Helvetica,sans-Serif" font-size="10.00">std::unique_ptr&lt; LGE</text>
<text xml:space="preserve" text-anchor="middle" x="161.5" y="-137.5" font-family="Helvetica,sans-Serif" font-size="10.00">::Renderer &gt;</text>
</a>
</g>
</g>
<!-- Node5&#45;&gt;Node2 -->
<g id="edge4_Node000002_Node000005" class="edge">
<title>Node5&#45;&gt;Node2</title>
<g id="a_edge4_Node000002_Node000005"><a xlink:title=" ">
<path fill="none" stroke="#9a32cd" stroke-dasharray="5,2" d="M161.5,-119.23C161.5,-104.77 161.5,-87.81 161.5,-77.49"/>
<polygon fill="#9a32cd" stroke="#9a32cd" points="158,-119.08 161.5,-129.08 165,-119.08 158,-119.08"/>
</a>
</g>
<text xml:space="preserve" text-anchor="start" x="164.5" y="-100.5" font-family="Helvetica,sans-Serif" font-size="10.00" fill="grey">m_Renderer</text>
</g>
<!-- Node6&#45;&gt;Node5 -->
<g id="edge5_Node000005_Node000006" class="edge">
<title>Node6&#45;&gt;Node5</title>
<g id="a_edge5_Node000005_Node000006"><a xlink:title=" ">
<path fill="none" stroke="#9a32cd" stroke-dasharray="5,2" d="M152.82,-225.3C154.91,-206.73 157.92,-179.93 159.79,-163.26"/>
<polygon fill="#9a32cd" stroke="#9a32cd" points="149.36,-224.77 151.72,-235.1 156.32,-225.55 149.36,-224.77"/>
</a>
</g>
<text xml:space="preserve" text-anchor="start" x="160.63" y="-193.5" font-family="Helvetica,sans-Serif" font-size="10.00" fill="grey">ptr</text>
</g>
<!-- Node7 -->
<g id="Node000007" class="node">
<title>Node7</title>
<g id="a_Node000007"><a xlink:title=" ">
<polygon fill="white" stroke="#666666" points="293.25,-157 233.75,-157 233.75,-137 293.25,-137 293.25,-157"/>
<text xml:space="preserve" text-anchor="middle" x="263.5" y="-143.5" font-family="Helvetica,sans-Serif" font-size="10.00">std::string</text>
</a>
</g>
</g>
<!-- Node7&#45;&gt;Node2 -->
<g id="edge7_Node000002_Node000007" class="edge">
<title>Node7&#45;&gt;Node2</title>
<g id="a_edge7_Node000002_Node000007"><a xlink:title=" ">
<path fill="none" stroke="#9a32cd" stroke-dasharray="5,2" d="M252.36,-126.95C245.43,-116.41 235.71,-103.73 224.5,-95 214.92,-87.54 202.97,-81.74 192.07,-77.46"/>
<polygon fill="#9a32cd" stroke="#9a32cd" points="249.27,-128.6 257.52,-135.25 255.22,-124.91 249.27,-128.6"/>
</a>
</g>
<text xml:space="preserve" text-anchor="start" x="244.77" y="-100.5" font-family="Helvetica,sans-Serif" font-size="10.00" fill="grey">m_Name</text>
</g>
<!-- Node8 -->
<g id="Node000008" class="node">
<title>Node8</title>
<g id="a_Node000008"><a xlink:title=" ">
<polygon fill="white" stroke="#666666" points="310.5,-263 216.5,-263 216.5,-231 310.5,-231 310.5,-263"/>
<text xml:space="preserve" text-anchor="start" x="224.5" y="-249.5" font-family="Helvetica,sans-Serif" font-size="10.00">std::basic_string&lt;</text>
<text xml:space="preserve" text-anchor="middle" x="263.5" y="-237.5" font-family="Helvetica,sans-Serif" font-size="10.00"> Char &gt;</text>
</a>
</g>
</g>
<!-- Node8&#45;&gt;Node7 -->
<g id="edge8_Node000007_Node000008" class="edge">
<title>Node8&#45;&gt;Node7</title>
<g id="a_edge8_Node000007_Node000008"><a xlink:title=" ">
<path fill="none" stroke="#63b8ff" d="M263.5,-219.19C263.5,-198.6 263.5,-171.38 263.5,-157.31"/>
<polygon fill="#63b8ff" stroke="#63b8ff" points="260,-219.17 263.5,-229.17 267,-219.17 260,-219.17"/>
</a>
</g>
</g>
</g>
</svg>
