<?xml version="1.0" encoding="UTF-8" standalone="no"?>
<!DOCTYPE svg PUBLIC "-//W3C//DTD SVG 1.1//EN"
 "http://www.w3.org/Graphics/SVG/1.1/DTD/svg11.dtd">
<!-- Generated by graphviz version 14.0.2 (20251019.1705)
 -->
<!-- Title: LGE::Camera::UpdateViewMatrix Pages: 1 -->
<svg width="339pt" height="332pt"
 viewBox="0.00 0.00 339.00 332.00" xmlns="http://www.w3.org/2000/svg" xmlns:xlink="http://www.w3.org/1999/xlink">
<g id="graph0" class="graph" transform="scale(1 1) rotate(0) translate(4 328)">
<title>LGE::Camera::UpdateViewMatrix</title>
<!-- Node1 -->
<g id="Node000001" class="node">
<title>Node1</title>
<g id="a_Node000001"><a xlink:title=" ">
<polygon fill="#999999" stroke="#666666" points="330.5,-172 168.25,-172 168.25,-152 330.5,-152 330.5,-172"/>
<text xml:space="preserve" text-anchor="middle" x="249.38" y="-158.5" font-family="Helvetica,sans-Serif" font-size="10.00">LGE::Camera::UpdateViewMatrix</text>
</a>
</g>
</g>
<!-- Node2 -->
<g id="Node000002" class="node">
<title>Node2</title>
<g id="a_Node000002"><a xlink:href="classLGE_1_1Camera.html#a842bfb86269f40482bf133ca862cc4fd" target="_top" xlink:title=" ">
<polygon fill="white" stroke="#666666" points="124.38,-324 7.88,-324 7.88,-304 124.38,-304 124.38,-324"/>
<text xml:space="preserve" text-anchor="middle" x="66.12" y="-310.5" font-family="Helvetica,sans-Serif" font-size="10.00">LGE::Camera::Camera</text>
</a>
</g>
</g>
<!-- Node1&#45;&gt;Node2 -->
<g id="edge1_Node000001_Node000002" class="edge">
<title>Node1&#45;&gt;Node2</title>
<g id="a_edge1_Node000001_Node000002"><a xlink:title=" ">
<path fill="none" stroke="#63b8ff" d="M236.29,-181.97C217.61,-211.14 178.95,-265.17 132.25,-295 126.89,-298.42 120.89,-301.25 114.77,-303.57"/>
<polygon fill="#63b8ff" stroke="#63b8ff" points="239.11,-184.05 241.44,-173.72 233.18,-180.34 239.11,-184.05"/>
</a>
</g>
</g>
<!-- Node3 -->
<g id="Node000003" class="node">
<title>Node3</title>
<g id="a_Node000003"><a xlink:href="classLGE_1_1Camera.html#ad4075b70f0c958317eff76cf7b0e54e3" target="_top" xlink:title=" ">
<polygon fill="white" stroke="#666666" points="124.38,-286 7.88,-286 7.88,-266 124.38,-266 124.38,-286"/>
<text xml:space="preserve" text-anchor="middle" x="66.12" y="-272.5" font-family="Helvetica,sans-Serif" font-size="10.00">LGE::Camera::Camera</text>
</a>
</g>
</g>
<!-- Node1&#45;&gt;Node3 -->
<g id="edge2_Node000001_Node000003" class="edge">
<title>Node1&#45;&gt;Node3</title>
<g id="a_edge2_Node000001_Node000003"><a xlink:title=" ">
<path fill="none" stroke="#63b8ff" d="M230.66,-180.45C209.22,-201.76 171.14,-236.52 132.25,-257 125.89,-260.35 118.87,-263.18 111.85,-265.55"/>
<polygon fill="#63b8ff" stroke="#63b8ff" points="232.93,-183.13 237.46,-173.55 227.95,-178.21 232.93,-183.13"/>
</a>
</g>
</g>
<!-- Node4 -->
<g id="Node000004" class="node">
<title>Node4</title>
<g id="a_Node000004"><a xlink:href="classLGE_1_1Camera.html#a060ca8af832029265a1ac071af3821ad" target="_top" xlink:title=" ">
<polygon fill="white" stroke="#666666" points="119.12,-248 13.12,-248 13.12,-228 119.12,-228 119.12,-248"/>
<text xml:space="preserve" text-anchor="middle" x="66.12" y="-234.5" font-family="Helvetica,sans-Serif" font-size="10.00">LGE::Camera::Move</text>
</a>
</g>
</g>
<!-- Node1&#45;&gt;Node4 -->
<g id="edge3_Node000001_Node000004" class="edge">
<title>Node1&#45;&gt;Node4</title>
<g id="a_edge3_Node000001_Node000004"><a xlink:title=" ">
<path fill="none" stroke="#63b8ff" d="M220.08,-177.6C196.94,-189.94 163.12,-207.02 132.25,-219 124.23,-222.11 115.49,-224.99 107.1,-227.52"/>
<polygon fill="#63b8ff" stroke="#63b8ff" points="221.44,-180.85 228.58,-173.02 218.12,-174.68 221.44,-180.85"/>
</a>
</g>
</g>
<!-- Node5 -->
<g id="Node000005" class="node">
<title>Node5</title>
<g id="a_Node000005"><a xlink:href="classLGE_1_1Camera.html#a33ef78a211ae82690a64a041b7f86de0" target="_top" xlink:title=" ">
<polygon fill="white" stroke="#666666" points="115.75,-210 16.5,-210 16.5,-190 115.75,-190 115.75,-210"/>
<text xml:space="preserve" text-anchor="middle" x="66.12" y="-196.5" font-family="Helvetica,sans-Serif" font-size="10.00">LGE::Camera::Pan</text>
</a>
</g>
</g>
<!-- Node1&#45;&gt;Node5 -->
<g id="edge4_Node000001_Node000005" class="edge">
<title>Node1&#45;&gt;Node5</title>
<g id="a_edge4_Node000001_Node000005"><a xlink:title=" ">
<path fill="none" stroke="#63b8ff" d="M187.24,-174.82C164.05,-179.68 137.95,-185.15 116.03,-189.75"/>
<polygon fill="#63b8ff" stroke="#63b8ff" points="187.82,-178.27 196.89,-172.79 186.38,-171.42 187.82,-178.27"/>
</a>
</g>
</g>
<!-- Node6 -->
<g id="Node000006" class="node">
<title>Node6</title>
<g id="a_Node000006"><a xlink:href="classLGE_1_1Camera.html#a2c965db23abafe500f48e4d87f63291e" target="_top" xlink:title=" ">
<polygon fill="white" stroke="#666666" points="121.75,-172 10.5,-172 10.5,-152 121.75,-152 121.75,-172"/>
<text xml:space="preserve" text-anchor="middle" x="66.12" y="-158.5" font-family="Helvetica,sans-Serif" font-size="10.00">LGE::Camera::Rotate</text>
</a>
</g>
</g>
<!-- Node1&#45;&gt;Node6 -->
<g id="edge5_Node000001_Node000006" class="edge">
<title>Node1&#45;&gt;Node6</title>
<g id="a_edge5_Node000001_Node000006"><a xlink:title=" ">
<path fill="none" stroke="#63b8ff" d="M156.58,-162C144.84,-162 133.12,-162 122.22,-162"/>
<polygon fill="#63b8ff" stroke="#63b8ff" points="156.31,-165.5 166.31,-162 156.31,-158.5 156.31,-165.5"/>
</a>
</g>
</g>
<!-- Node7 -->
<g id="Node000007" class="node">
<title>Node7</title>
<g id="a_Node000007"><a xlink:href="classLGE_1_1Camera.html#abfbd1978fbb836d9d7b958527a8c2aee" target="_top" xlink:title=" ">
<polygon fill="white" stroke="#666666" points="132.25,-134 0,-134 0,-114 132.25,-114 132.25,-134"/>
<text xml:space="preserve" text-anchor="middle" x="66.12" y="-120.5" font-family="Helvetica,sans-Serif" font-size="10.00">LGE::Camera::SetPosition</text>
</a>
</g>
</g>
<!-- Node1&#45;&gt;Node7 -->
<g id="edge6_Node000001_Node000007" class="edge">
<title>Node1&#45;&gt;Node7</title>
<g id="a_edge6_Node000001_Node000007"><a xlink:title=" ">
<path fill="none" stroke="#63b8ff" d="M187.38,-149.21C164.48,-144.41 138.74,-139.01 116.97,-134.45"/>
<polygon fill="#63b8ff" stroke="#63b8ff" points="186.38,-152.58 196.89,-151.21 187.82,-145.73 186.38,-152.58"/>
</a>
</g>
</g>
<!-- Node8 -->
<g id="Node000008" class="node">
<title>Node8</title>
<g id="a_Node000008"><a xlink:href="classLGE_1_1Camera.html#afe7a80145ef68192e659e41a1c3ce8de" target="_top" xlink:title=" ">
<polygon fill="white" stroke="#666666" points="128.12,-96 4.12,-96 4.12,-76 128.12,-76 128.12,-96"/>
<text xml:space="preserve" text-anchor="middle" x="66.12" y="-82.5" font-family="Helvetica,sans-Serif" font-size="10.00">LGE::Camera::SetTarget</text>
</a>
</g>
</g>
<!-- Node1&#45;&gt;Node8 -->
<g id="edge7_Node000001_Node000008" class="edge">
<title>Node1&#45;&gt;Node8</title>
<g id="a_edge7_Node000001_Node000008"><a xlink:title=" ">
<path fill="none" stroke="#63b8ff" d="M220.08,-146.4C196.94,-134.06 163.12,-116.98 132.25,-105 124.23,-101.89 115.49,-99.01 107.1,-96.48"/>
<polygon fill="#63b8ff" stroke="#63b8ff" points="218.12,-149.32 228.58,-150.98 221.44,-143.15 218.12,-149.32"/>
</a>
</g>
</g>
<!-- Node9 -->
<g id="Node000009" class="node">
<title>Node9</title>
<g id="a_Node000009"><a xlink:href="classLGE_1_1Camera.html#a700457ffe743b6ac539cc759226d74fe" target="_top" xlink:title=" ">
<polygon fill="white" stroke="#666666" points="121,-58 11.25,-58 11.25,-38 121,-38 121,-58"/>
<text xml:space="preserve" text-anchor="middle" x="66.12" y="-44.5" font-family="Helvetica,sans-Serif" font-size="10.00">LGE::Camera::SetUp</text>
</a>
</g>
</g>
<!-- Node1&#45;&gt;Node9 -->
<g id="edge8_Node000001_Node000009" class="edge">
<title>Node1&#45;&gt;Node9</title>
<g id="a_edge8_Node000001_Node000009"><a xlink:title=" ">
<path fill="none" stroke="#63b8ff" d="M230.66,-143.55C209.22,-122.24 171.14,-87.48 132.25,-67 125.89,-63.65 118.87,-60.82 111.85,-58.45"/>
<polygon fill="#63b8ff" stroke="#63b8ff" points="227.95,-145.79 237.46,-150.45 232.93,-140.87 227.95,-145.79"/>
</a>
</g>
</g>
<!-- Node10 -->
<g id="Node000010" class="node">
<title>Node10</title>
<g id="a_Node000010"><a xlink:href="classLGE_1_1Camera.html#a7e607e1498972216da33a69b621dad00" target="_top" xlink:title=" ">
<polygon fill="white" stroke="#666666" points="119.5,-20 12.75,-20 12.75,0 119.5,0 119.5,-20"/>
<text xml:space="preserve" text-anchor="middle" x="66.12" y="-6.5" font-family="Helvetica,sans-Serif" font-size="10.00">LGE::Camera::Zoom</text>
</a>
</g>
</g>
<!-- Node1&#45;&gt;Node10 -->
<g id="edge9_Node000001_Node000010" class="edge">
<title>Node1&#45;&gt;Node10</title>
<g id="a_edge9_Node000001_Node000010"><a xlink:title=" ">
<path fill="none" stroke="#63b8ff" d="M236.29,-142.03C217.61,-112.86 178.95,-58.83 132.25,-29 126.89,-25.58 120.89,-22.75 114.77,-20.43"/>
<polygon fill="#63b8ff" stroke="#63b8ff" points="233.18,-143.66 241.44,-150.28 239.11,-139.95 233.18,-143.66"/>
</a>
</g>
</g>
</g>
</svg>
