<?xml version="1.0" encoding="UTF-8" standalone="no"?>
<!DOCTYPE svg PUBLIC "-//W3C//DTD SVG 1.1//EN"
 "http://www.w3.org/Graphics/SVG/1.1/DTD/svg11.dtd">
<!-- Generated by graphviz version 14.0.2 (20251019.1705)
 -->
<!-- Title: LGE::MaterialComponent Pages: 1 -->
<svg width="134pt" height="159pt"
 viewBox="0.00 0.00 134.00 159.00" xmlns="http://www.w3.org/2000/svg" xmlns:xlink="http://www.w3.org/1999/xlink">
<g id="graph0" class="graph" transform="scale(1 1) rotate(0) translate(4 155)">
<title>LGE::MaterialComponent</title>
<!-- Node1 -->
<g id="Node000001" class="node">
<title>Node1</title>
<g id="a_Node000001"><a xlink:title=" ">
<polygon fill="#999999" stroke="#666666" points="126.25,-20 0,-20 0,0 126.25,0 126.25,-20"/>
<text xml:space="preserve" text-anchor="middle" x="63.12" y="-6.5" font-family="Helvetica,sans-Serif" font-size="10.00">LGE::MaterialComponent</text>
</a>
</g>
</g>
<!-- Node2 -->
<g id="Node000002" class="node">
<title>Node2</title>
<g id="a_Node000002"><a xlink:href="classLGE_1_1Component.html" target="_top" xlink:title=" ">
<polygon fill="white" stroke="#666666" points="109,-77 17.25,-77 17.25,-57 109,-57 109,-77"/>
<text xml:space="preserve" text-anchor="middle" x="63.12" y="-63.5" font-family="Helvetica,sans-Serif" font-size="10.00">LGE::Component</text>
</a>
</g>
</g>
<!-- Node2&#45;&gt;Node1 -->
<g id="edge1_Node000001_Node000002" class="edge">
<title>Node2&#45;&gt;Node1</title>
<g id="a_edge1_Node000001_Node000002"><a xlink:title=" ">
<path fill="none" stroke="#63b8ff" d="M63.12,-45.69C63.12,-36.97 63.12,-27.22 63.12,-20.28"/>
<polygon fill="#63b8ff" stroke="#63b8ff" points="59.63,-45.4 63.13,-55.4 66.63,-45.4 59.63,-45.4"/>
</a>
</g>
</g>
<!-- Node3 -->
<g id="Node000003" class="node">
<title>Node3</title>
<g id="a_Node000003"><a xlink:href="classLGE_1_1GameObject.html" target="_top" xlink:title=" ">
<polygon fill="white" stroke="#666666" points="111.25,-151 15,-151 15,-131 111.25,-131 111.25,-151"/>
<text xml:space="preserve" text-anchor="middle" x="63.12" y="-137.5" font-family="Helvetica,sans-Serif" font-size="10.00">LGE::GameObject</text>
</a>
</g>
</g>
<!-- Node3&#45;&gt;Node2 -->
<g id="edge2_Node000002_Node000003" class="edge">
<title>Node3&#45;&gt;Node2</title>
<g id="a_edge2_Node000002_Node000003"><a xlink:title=" ">
<path fill="none" stroke="#9a32cd" stroke-dasharray="5,2" d="M63.12,-119.18C63.12,-105.29 63.12,-87.71 63.12,-77.19"/>
<polygon fill="#9a32cd" stroke="#9a32cd" points="59.63,-119.07 63.13,-129.07 66.63,-119.07 59.63,-119.07"/>
</a>
</g>
<text xml:space="preserve" text-anchor="start" x="66.12" y="-100.5" font-family="Helvetica,sans-Serif" font-size="10.00" fill="grey">m_Owner</text>
</g>
</g>
</svg>
