<?xml version="1.0" encoding="UTF-8" standalone="no"?>
<!DOCTYPE svg PUBLIC "-//W3C//DTD SVG 1.1//EN"
 "http://www.w3.org/Graphics/SVG/1.1/DTD/svg11.dtd">
<!-- Generated by graphviz version 14.0.2 (20251019.1705)
 -->
<!-- Title: LGE::AssetFactory::CreateAsset Pages: 1 -->
<svg width="543pt" height="475pt"
 viewBox="0.00 0.00 543.00 475.00" xmlns="http://www.w3.org/2000/svg" xmlns:xlink="http://www.w3.org/1999/xlink">
<g id="graph0" class="graph" transform="scale(1 1) rotate(0) translate(4 470.71)">
<title>LGE::AssetFactory::CreateAsset</title>
<!-- Node1 -->
<g id="Node000001" class="node">
<title>Node1</title>
<g id="a_Node000001"><a xlink:title=" ">
<polygon fill="#999999" stroke="#666666" points="106,-250.92 0,-250.92 0,-218.92 106,-218.92 106,-250.92"/>
<text xml:space="preserve" text-anchor="start" x="8" y="-237.42" font-family="Helvetica,sans-Serif" font-size="10.00">LGE::AssetFactory::</text>
<text xml:space="preserve" text-anchor="middle" x="53" y="-225.42" font-family="Helvetica,sans-Serif" font-size="10.00">CreateAsset</text>
</a>
</g>
</g>
<!-- Node2 -->
<g id="Node000002" class="node">
<title>Node2</title>
<g id="a_Node000002"><a xlink:href="classLGE_1_1AssetFactory.html#a39f7050f69be7a0aa3650d07fe1fc763" target="_top" xlink:title=" ">
<polygon fill="white" stroke="#666666" points="248,-359.92 142,-359.92 142,-327.92 248,-327.92 248,-359.92"/>
<text xml:space="preserve" text-anchor="start" x="150" y="-346.42" font-family="Helvetica,sans-Serif" font-size="10.00">LGE::AssetFactory::</text>
<text xml:space="preserve" text-anchor="middle" x="195" y="-334.42" font-family="Helvetica,sans-Serif" font-size="10.00">CreateFolder</text>
</a>
</g>
</g>
<!-- Node1&#45;&gt;Node2 -->
<g id="edge1_Node000001_Node000002" class="edge">
<title>Node1&#45;&gt;Node2</title>
<g id="a_edge1_Node000001_Node000002"><a xlink:title=" ">
<path fill="none" stroke="#63b8ff" d="M74.96,-251.24C98.57,-269.62 137.13,-299.65 163.95,-320.52"/>
<polygon fill="#63b8ff" stroke="#63b8ff" points="161.66,-323.18 171.7,-326.56 165.96,-317.66 161.66,-323.18"/>
</a>
</g>
</g>
<!-- Node3 -->
<g id="Node000003" class="node">
<title>Node3</title>
<g id="a_Node000003"><a xlink:href="classLGE_1_1Log.html#a53f3f4b8797ffd18145739c9e66d690a" target="_top" xlink:title=" ">
<polygon fill="white" stroke="#666666" points="523.38,-239.92 439.12,-239.92 439.12,-219.92 523.38,-219.92 523.38,-239.92"/>
<text xml:space="preserve" text-anchor="middle" x="481.25" y="-226.42" font-family="Helvetica,sans-Serif" font-size="10.00">LGE::Log::Error</text>
</a>
</g>
</g>
<!-- Node1&#45;&gt;Node3 -->
<g id="edge25_Node000001_Node000003" class="edge">
<title>Node1&#45;&gt;Node3</title>
<g id="a_edge25_Node000001_Node000003"><a xlink:title=" ">
<path fill="none" stroke="#63b8ff" d="M61.23,-251.37C74.02,-278.84 103,-334.45 142,-368.92 228.29,-445.2 295.46,-502.48 391.5,-438.92 456.13,-396.15 473.83,-295.82 478.57,-251.55"/>
<polygon fill="#63b8ff" stroke="#63b8ff" points="482.05,-251.98 479.49,-241.7 475.08,-251.33 482.05,-251.98"/>
</a>
</g>
</g>
<!-- Node8 -->
<g id="Node000008" class="node">
<title>Node8</title>
<g id="a_Node000008"><a xlink:href="classLGE_1_1AssetFactory.html#a0b31104c56510df0545f2ea38c59845a" target="_top" xlink:title=" ">
<polygon fill="white" stroke="#666666" points="248,-276.92 142,-276.92 142,-244.92 248,-244.92 248,-276.92"/>
<text xml:space="preserve" text-anchor="start" x="150" y="-263.42" font-family="Helvetica,sans-Serif" font-size="10.00">LGE::AssetFactory::</text>
<text xml:space="preserve" text-anchor="middle" x="195" y="-251.42" font-family="Helvetica,sans-Serif" font-size="10.00">CreateMaterial</text>
</a>
</g>
</g>
<!-- Node1&#45;&gt;Node8 -->
<g id="edge9_Node000001_Node000008" class="edge">
<title>Node1&#45;&gt;Node8</title>
<g id="a_edge9_Node000001_Node000008"><a xlink:title=" ">
<path fill="none" stroke="#63b8ff" d="M106.13,-244.6C114.15,-246.09 122.5,-247.64 130.73,-249.17"/>
<polygon fill="#63b8ff" stroke="#63b8ff" points="129.87,-252.57 140.34,-250.96 131.14,-245.69 129.87,-252.57"/>
</a>
</g>
</g>
<!-- Node9 -->
<g id="Node000009" class="node">
<title>Node9</title>
<g id="a_Node000009"><a xlink:href="classLGE_1_1AssetFactory.html#a4e5a8c90645624ae5832320655d01fe6" target="_top" xlink:title=" ">
<polygon fill="white" stroke="#666666" points="248,-225.92 142,-225.92 142,-193.92 248,-193.92 248,-225.92"/>
<text xml:space="preserve" text-anchor="start" x="150" y="-212.42" font-family="Helvetica,sans-Serif" font-size="10.00">LGE::AssetFactory::</text>
<text xml:space="preserve" text-anchor="middle" x="195" y="-200.42" font-family="Helvetica,sans-Serif" font-size="10.00">CreateScene</text>
</a>
</g>
</g>
<!-- Node1&#45;&gt;Node9 -->
<g id="edge13_Node000001_Node000009" class="edge">
<title>Node1&#45;&gt;Node9</title>
<g id="a_edge13_Node000001_Node000009"><a xlink:title=" ">
<path fill="none" stroke="#63b8ff" d="M106.13,-225.61C114.15,-224.18 122.5,-222.69 130.73,-221.22"/>
<polygon fill="#63b8ff" stroke="#63b8ff" points="131.11,-224.71 140.34,-219.51 129.88,-217.82 131.11,-224.71"/>
</a>
</g>
</g>
<!-- Node10 -->
<g id="Node000010" class="node">
<title>Node10</title>
<g id="a_Node000010"><a xlink:href="classLGE_1_1AssetFactory.html#a67aa46ee91385e105dcdf48edacd6197" target="_top" xlink:title=" ">
<polygon fill="white" stroke="#666666" points="248,-173.92 142,-173.92 142,-141.92 248,-141.92 248,-173.92"/>
<text xml:space="preserve" text-anchor="start" x="150" y="-160.42" font-family="Helvetica,sans-Serif" font-size="10.00">LGE::AssetFactory::</text>
<text xml:space="preserve" text-anchor="middle" x="195" y="-148.42" font-family="Helvetica,sans-Serif" font-size="10.00">CreateScript</text>
</a>
</g>
</g>
<!-- Node1&#45;&gt;Node10 -->
<g id="edge17_Node000001_Node000010" class="edge">
<title>Node1&#45;&gt;Node10</title>
<g id="a_edge17_Node000001_Node000010"><a xlink:title=" ">
<path fill="none" stroke="#63b8ff" d="M82.38,-218.44C99.55,-208.55 121.93,-195.83 142,-184.92 145.22,-183.17 148.56,-181.38 151.92,-179.6"/>
<polygon fill="#63b8ff" stroke="#63b8ff" points="153.44,-182.75 160.66,-175 150.18,-176.56 153.44,-182.75"/>
</a>
</g>
</g>
<!-- Node11 -->
<g id="Node000011" class="node">
<title>Node11</title>
<g id="a_Node000011"><a xlink:href="classLGE_1_1AssetFactory.html#a19538e58cc1f63d8973cccda81e534b3" target="_top" xlink:title=" ">
<polygon fill="white" stroke="#666666" points="248,-120.92 142,-120.92 142,-88.92 248,-88.92 248,-120.92"/>
<text xml:space="preserve" text-anchor="start" x="150" y="-107.42" font-family="Helvetica,sans-Serif" font-size="10.00">LGE::AssetFactory::</text>
<text xml:space="preserve" text-anchor="middle" x="195" y="-95.42" font-family="Helvetica,sans-Serif" font-size="10.00">CreateShader</text>
</a>
</g>
</g>
<!-- Node1&#45;&gt;Node11 -->
<g id="edge21_Node000001_Node000011" class="edge">
<title>Node1&#45;&gt;Node11</title>
<g id="a_edge21_Node000001_Node000011"><a xlink:title=" ">
<path fill="none" stroke="#63b8ff" d="M65.27,-218.45C80.68,-196.8 110.08,-158.55 142,-132.92 144.39,-131 146.93,-129.15 149.56,-127.37"/>
<polygon fill="#63b8ff" stroke="#63b8ff" points="151.39,-130.36 158.02,-122.1 147.68,-124.42 151.39,-130.36"/>
</a>
</g>
</g>
<!-- Node2&#45;&gt;Node3 -->
<g id="edge2_Node000002_Node000003" class="edge">
<title>Node2&#45;&gt;Node3</title>
<g id="a_edge2_Node000002_Node000003"><a xlink:title=" ">
<path fill="none" stroke="#63b8ff" d="M242.27,-360.39C283.76,-372.22 345.07,-382.23 391.5,-357.92 434.86,-335.23 461.27,-280.65 473.02,-250.61"/>
<polygon fill="#63b8ff" stroke="#63b8ff" points="476.21,-252.09 476.41,-241.5 469.64,-249.65 476.21,-252.09"/>
</a>
</g>
</g>
<!-- Node4 -->
<g id="Node000004" class="node">
<title>Node4</title>
<g id="a_Node000004"><a xlink:href="classLGE_1_1Log.html#ab0265ee050b8873a2fd31fbdb696ced0" target="_top" xlink:title=" ">
<polygon fill="white" stroke="#666666" points="521.12,-113.92 441.38,-113.92 441.38,-93.92 521.12,-93.92 521.12,-113.92"/>
<text xml:space="preserve" text-anchor="middle" x="481.25" y="-100.42" font-family="Helvetica,sans-Serif" font-size="10.00">LGE::Log::Info</text>
</a>
</g>
</g>
<!-- Node2&#45;&gt;Node4 -->
<g id="edge3_Node000002_Node000004" class="edge">
<title>Node2&#45;&gt;Node4</title>
<g id="a_edge3_Node000002_Node000004"><a xlink:title=" ">
<path fill="none" stroke="#63b8ff" d="M248.28,-328.62C291.64,-313.56 352.33,-286.68 391.5,-244.92 419.29,-215.3 405.38,-194.99 427.5,-160.92 436.77,-146.64 449.72,-132.59 460.48,-122"/>
<polygon fill="#63b8ff" stroke="#63b8ff" points="462.61,-124.81 467.42,-115.37 457.77,-119.75 462.61,-124.81"/>
</a>
</g>
</g>
<!-- Node5 -->
<g id="Node000005" class="node">
<title>Node5</title>
<g id="a_Node000005"><a xlink:href="classLGE_1_1AssetMetadata.html#a8a8b6d8fda2392f3a9f5ae9731abf374" target="_top" xlink:title=" ">
<polygon fill="white" stroke="#666666" points="391.5,-201.92 284,-201.92 284,-169.92 391.5,-169.92 391.5,-201.92"/>
<text xml:space="preserve" text-anchor="start" x="292" y="-188.42" font-family="Helvetica,sans-Serif" font-size="10.00">LGE::AssetMetadata</text>
<text xml:space="preserve" text-anchor="middle" x="337.75" y="-176.42" font-family="Helvetica,sans-Serif" font-size="10.00">::SaveMetadata</text>
</a>
</g>
</g>
<!-- Node2&#45;&gt;Node5 -->
<g id="edge4_Node000002_Node000005" class="edge">
<title>Node2&#45;&gt;Node5</title>
<g id="a_edge4_Node000002_Node000005"><a xlink:title=" ">
<path fill="none" stroke="#63b8ff" d="M210.82,-327.44C221.23,-315.84 235.49,-299.95 248,-285.92 270.88,-260.27 296.99,-230.83 314.93,-210.58"/>
<polygon fill="#63b8ff" stroke="#63b8ff" points="317.31,-213.17 321.32,-203.36 312.07,-208.53 317.31,-213.17"/>
</a>
</g>
</g>
<!-- Node7 -->
<g id="Node000007" class="node">
<title>Node7</title>
<g id="a_Node000007"><a xlink:href="classLGE_1_1Log.html#aa6f98018af29c23dd7f574d3df5dda5e" target="_top" xlink:title=" ">
<polygon fill="white" stroke="#666666" points="380.62,-429.92 294.88,-429.92 294.88,-409.92 380.62,-409.92 380.62,-429.92"/>
<text xml:space="preserve" text-anchor="middle" x="337.75" y="-416.42" font-family="Helvetica,sans-Serif" font-size="10.00">LGE::Log::Warn</text>
</a>
</g>
</g>
<!-- Node2&#45;&gt;Node7 -->
<g id="edge8_Node000002_Node000007" class="edge">
<title>Node2&#45;&gt;Node7</title>
<g id="a_edge8_Node000002_Node000007"><a xlink:title=" ">
<path fill="none" stroke="#63b8ff" d="M222.16,-360.37C239.44,-371 262.75,-384.85 284,-395.92 289.83,-398.96 296.12,-402.01 302.26,-404.87"/>
<polygon fill="#63b8ff" stroke="#63b8ff" points="300.4,-407.87 310.95,-408.84 303.31,-401.5 300.4,-407.87"/>
</a>
</g>
</g>
<!-- Node5&#45;&gt;Node3 -->
<g id="edge5_Node000005_Node000003" class="edge">
<title>Node5&#45;&gt;Node3</title>
<g id="a_edge5_Node000005_Node000003"><a xlink:title=" ">
<path fill="none" stroke="#63b8ff" d="M391.44,-202.31C406.07,-206.86 421.81,-211.75 435.91,-216.13"/>
<polygon fill="#63b8ff" stroke="#63b8ff" points="434.78,-219.45 445.37,-219.08 436.86,-212.77 434.78,-219.45"/>
</a>
</g>
</g>
<!-- Node5&#45;&gt;Node4 -->
<g id="edge7_Node000005_Node000004" class="edge">
<title>Node5&#45;&gt;Node4</title>
<g id="a_edge7_Node000005_Node000004"><a xlink:title=" ">
<path fill="none" stroke="#63b8ff" d="M367.04,-169.53C391.89,-155.13 427.81,-134.31 452.49,-120.01"/>
<polygon fill="#63b8ff" stroke="#63b8ff" points="454.1,-123.12 461,-115.08 450.59,-117.06 454.1,-123.12"/>
</a>
</g>
</g>
<!-- Node6 -->
<g id="Node000006" class="node">
<title>Node6</title>
<g id="a_Node000006"><a xlink:href="classLGE_1_1AssetMetadata.html#a546a8696546f1cbdf15765a424cdc5d5" target="_top" xlink:title=" ">
<polygon fill="white" stroke="#666666" points="535,-201.92 427.5,-201.92 427.5,-169.92 535,-169.92 535,-201.92"/>
<text xml:space="preserve" text-anchor="start" x="435.5" y="-188.42" font-family="Helvetica,sans-Serif" font-size="10.00">LGE::AssetMetadata</text>
<text xml:space="preserve" text-anchor="middle" x="481.25" y="-176.42" font-family="Helvetica,sans-Serif" font-size="10.00">::GetMetadataPath</text>
</a>
</g>
</g>
<!-- Node5&#45;&gt;Node6 -->
<g id="edge6_Node000005_Node000006" class="edge">
<title>Node5&#45;&gt;Node6</title>
<g id="a_edge6_Node000005_Node000006"><a xlink:title=" ">
<path fill="none" stroke="#63b8ff" d="M391.84,-185.92C399.73,-185.92 407.93,-185.92 416.02,-185.92"/>
<polygon fill="#63b8ff" stroke="#63b8ff" points="415.82,-189.42 425.82,-185.92 415.82,-182.42 415.82,-189.42"/>
</a>
</g>
</g>
<!-- Node8&#45;&gt;Node3 -->
<g id="edge10_Node000008_Node000003" class="edge">
<title>Node8&#45;&gt;Node3</title>
<g id="a_edge10_Node000008_Node000003"><a xlink:title=" ">
<path fill="none" stroke="#63b8ff" d="M248.28,-276.86C288.13,-286.54 344.06,-294.8 391.5,-281.92 416.42,-275.16 441.51,-259.44 458.62,-247.05"/>
<polygon fill="#63b8ff" stroke="#63b8ff" points="460.61,-249.93 466.5,-241.13 456.4,-244.34 460.61,-249.93"/>
</a>
</g>
</g>
<!-- Node8&#45;&gt;Node4 -->
<g id="edge11_Node000008_Node000004" class="edge">
<title>Node8&#45;&gt;Node4</title>
<g id="a_edge11_Node000008_Node000004"><a xlink:title=" ">
<path fill="none" stroke="#63b8ff" d="M248.16,-257.33C290.02,-252.28 348.67,-240.14 391.5,-210.92 414.12,-195.49 410.17,-182.12 427.5,-160.92 438.54,-147.41 451.9,-133 462.41,-122.04"/>
<polygon fill="#63b8ff" stroke="#63b8ff" points="464.63,-124.78 469.08,-115.17 459.6,-119.91 464.63,-124.78"/>
</a>
</g>
</g>
<!-- Node8&#45;&gt;Node5 -->
<g id="edge12_Node000008_Node000005" class="edge">
<title>Node8&#45;&gt;Node5</title>
<g id="a_edge12_Node000008_Node000005"><a xlink:title=" ">
<path fill="none" stroke="#63b8ff" d="M229.39,-244.48C235.6,-241.35 242.01,-238.07 248,-234.92 264.49,-226.26 282.51,-216.38 297.98,-207.78"/>
<polygon fill="#63b8ff" stroke="#63b8ff" points="299.38,-211 306.41,-203.07 295.97,-204.89 299.38,-211"/>
</a>
</g>
</g>
<!-- Node9&#45;&gt;Node3 -->
<g id="edge14_Node000009_Node000003" class="edge">
<title>Node9&#45;&gt;Node3</title>
<g id="a_edge14_Node000009_Node000003"><a xlink:title=" ">
<path fill="none" stroke="#63b8ff" d="M248.47,-213.61C299.36,-217.2 376.19,-222.6 427.26,-226.19"/>
<polygon fill="#63b8ff" stroke="#63b8ff" points="426.97,-229.68 437.2,-226.89 427.47,-222.7 426.97,-229.68"/>
</a>
</g>
</g>
<!-- Node9&#45;&gt;Node4 -->
<g id="edge15_Node000009_Node000004" class="edge">
<title>Node9&#45;&gt;Node4</title>
<g id="a_edge15_Node000009_Node000004"><a xlink:title=" ">
<path fill="none" stroke="#63b8ff" d="M228.36,-193.56C234.91,-190.13 241.71,-186.47 248,-182.92 264.33,-173.71 266.85,-168.49 284,-160.92 331.81,-139.82 389.58,-124.13 430.02,-114.61"/>
<polygon fill="#63b8ff" stroke="#63b8ff" points="430.76,-118.03 439.72,-112.37 429.19,-111.21 430.76,-118.03"/>
</a>
</g>
</g>
<!-- Node9&#45;&gt;Node5 -->
<g id="edge16_Node000009_Node000005" class="edge">
<title>Node9&#45;&gt;Node5</title>
<g id="a_edge16_Node000009_Node000005"><a xlink:title=" ">
<path fill="none" stroke="#63b8ff" d="M248.41,-200.99C256.27,-199.65 264.46,-198.25 272.53,-196.87"/>
<polygon fill="#63b8ff" stroke="#63b8ff" points="273.07,-200.33 282.33,-195.2 271.89,-193.43 273.07,-200.33"/>
</a>
</g>
</g>
<!-- Node10&#45;&gt;Node3 -->
<g id="edge18_Node000010_Node000003" class="edge">
<title>Node10&#45;&gt;Node3</title>
<g id="a_edge18_Node000010_Node000003"><a xlink:title=" ">
<path fill="none" stroke="#63b8ff" d="M248.09,-146.53C289.37,-140.27 347.26,-137.83 391.5,-160.92 415.78,-173.59 405.64,-194.43 427.5,-210.92 429.05,-212.09 430.68,-213.19 432.36,-214.23"/>
<polygon fill="#63b8ff" stroke="#63b8ff" points="430.66,-217.29 441.14,-218.81 433.89,-211.08 430.66,-217.29"/>
</a>
</g>
</g>
<!-- Node10&#45;&gt;Node4 -->
<g id="edge19_Node000010_Node000004" class="edge">
<title>Node10&#45;&gt;Node4</title>
<g id="a_edge19_Node000010_Node000004"><a xlink:title=" ">
<path fill="none" stroke="#63b8ff" d="M233.63,-141.53C238.86,-138.19 243.86,-134.33 248,-129.92 274.15,-102.11 251.84,-72.5 284,-51.92 339.6,-16.35 418.87,-60.65 457.43,-87"/>
<polygon fill="#63b8ff" stroke="#63b8ff" points="455.32,-89.79 465.51,-92.69 459.35,-84.07 455.32,-89.79"/>
</a>
</g>
</g>
<!-- Node10&#45;&gt;Node5 -->
<g id="edge20_Node000010_Node000005" class="edge">
<title>Node10&#45;&gt;Node5</title>
<g id="a_edge20_Node000010_Node000005"><a xlink:title=" ">
<path fill="none" stroke="#63b8ff" d="M248.41,-168.35C256.36,-169.93 264.64,-171.58 272.81,-173.2"/>
<polygon fill="#63b8ff" stroke="#63b8ff" points="271.85,-176.58 282.34,-175.1 273.22,-169.72 271.85,-176.58"/>
</a>
</g>
</g>
<!-- Node11&#45;&gt;Node3 -->
<g id="edge22_Node000011_Node000003" class="edge">
<title>Node11&#45;&gt;Node3</title>
<g id="a_edge22_Node000011_Node000003"><a xlink:title=" ">
<path fill="none" stroke="#63b8ff" d="M248.35,-101.35C290.88,-101.14 350.36,-107.3 391.5,-137.92 420.52,-159.52 400.52,-186.82 427.5,-210.92 428.58,-211.89 429.72,-212.81 430.89,-213.68"/>
<polygon fill="#63b8ff" stroke="#63b8ff" points="428.93,-216.58 439.31,-218.73 432.54,-210.58 428.93,-216.58"/>
</a>
</g>
</g>
<!-- Node11&#45;&gt;Node4 -->
<g id="edge23_Node000011_Node000004" class="edge">
<title>Node11&#45;&gt;Node4</title>
<g id="a_edge23_Node000011_Node000004"><a xlink:title=" ">
<path fill="none" stroke="#63b8ff" d="M205.74,-88.61C219.83,-66.8 248.19,-29.11 284,-13.92 327.99,4.73 347.42,4.52 391.5,-13.92 425.4,-28.11 452.93,-62.25 467.91,-84.17"/>
<polygon fill="#63b8ff" stroke="#63b8ff" points="464.82,-85.83 473.23,-92.27 470.67,-81.99 464.82,-85.83"/>
</a>
</g>
</g>
<!-- Node11&#45;&gt;Node5 -->
<g id="edge24_Node000011_Node000005" class="edge">
<title>Node11&#45;&gt;Node5</title>
<g id="a_edge24_Node000011_Node000005"><a xlink:title=" ">
<path fill="none" stroke="#63b8ff" d="M226.92,-121.28C233.89,-125.05 241.22,-129.08 248,-132.92 265.45,-142.82 284.58,-154.19 300.6,-163.84"/>
<polygon fill="#63b8ff" stroke="#63b8ff" points="298.47,-166.64 308.84,-168.82 302.09,-160.65 298.47,-166.64"/>
</a>
</g>
</g>
</g>
</svg>
