<?xml version="1.0" encoding="UTF-8" standalone="no"?>
<!DOCTYPE svg PUBLIC "-//W3C//DTD SVG 1.1//EN"
 "http://www.w3.org/Graphics/SVG/1.1/DTD/svg11.dtd">
<!-- Generated by graphviz version 14.0.2 (20251019.1705)
 -->
<!-- Title: LGE::AssetMetadata::DeleteMetadata Pages: 1 -->
<svg width="259pt" height="116pt"
 viewBox="0.00 0.00 259.00 116.00" xmlns="http://www.w3.org/2000/svg" xmlns:xlink="http://www.w3.org/1999/xlink">
<g id="graph0" class="graph" transform="scale(1 1) rotate(0) translate(4 112)">
<title>LGE::AssetMetadata::DeleteMetadata</title>
<!-- Node1 -->
<g id="Node000001" class="node">
<title>Node1</title>
<g id="a_Node000001"><a xlink:title=" ">
<polygon fill="#999999" stroke="#666666" points="107.5,-70 0,-70 0,-38 107.5,-38 107.5,-70"/>
<text xml:space="preserve" text-anchor="start" x="8" y="-56.5" font-family="Helvetica,sans-Serif" font-size="10.00">LGE::AssetMetadata</text>
<text xml:space="preserve" text-anchor="middle" x="53.75" y="-44.5" font-family="Helvetica,sans-Serif" font-size="10.00">::DeleteMetadata</text>
</a>
</g>
</g>
<!-- Node2 -->
<g id="Node000002" class="node">
<title>Node2</title>
<g id="a_Node000002"><a xlink:href="classLGE_1_1Log.html#a53f3f4b8797ffd18145739c9e66d690a" target="_top" xlink:title=" ">
<polygon fill="white" stroke="#666666" points="239.38,-108 155.12,-108 155.12,-88 239.38,-88 239.38,-108"/>
<text xml:space="preserve" text-anchor="middle" x="197.25" y="-94.5" font-family="Helvetica,sans-Serif" font-size="10.00">LGE::Log::Error</text>
</a>
</g>
</g>
<!-- Node1&#45;&gt;Node2 -->
<g id="edge1_Node000001_Node000002" class="edge">
<title>Node1&#45;&gt;Node2</title>
<g id="a_edge1_Node000001_Node000002"><a xlink:title=" ">
<path fill="none" stroke="#63b8ff" d="M107.44,-70.38C122.07,-74.93 137.81,-79.83 151.91,-84.21"/>
<polygon fill="#63b8ff" stroke="#63b8ff" points="150.78,-87.53 161.37,-87.15 152.86,-80.84 150.78,-87.53"/>
</a>
</g>
</g>
<!-- Node3 -->
<g id="Node000003" class="node">
<title>Node3</title>
<g id="a_Node000003"><a xlink:href="classLGE_1_1AssetMetadata.html#a546a8696546f1cbdf15765a424cdc5d5" target="_top" xlink:title=" ">
<polygon fill="white" stroke="#666666" points="251,-70 143.5,-70 143.5,-38 251,-38 251,-70"/>
<text xml:space="preserve" text-anchor="start" x="151.5" y="-56.5" font-family="Helvetica,sans-Serif" font-size="10.00">LGE::AssetMetadata</text>
<text xml:space="preserve" text-anchor="middle" x="197.25" y="-44.5" font-family="Helvetica,sans-Serif" font-size="10.00">::GetMetadataPath</text>
</a>
</g>
</g>
<!-- Node1&#45;&gt;Node3 -->
<g id="edge2_Node000001_Node000003" class="edge">
<title>Node1&#45;&gt;Node3</title>
<g id="a_edge2_Node000001_Node000003"><a xlink:title=" ">
<path fill="none" stroke="#63b8ff" d="M107.84,-54C115.73,-54 123.93,-54 132.02,-54"/>
<polygon fill="#63b8ff" stroke="#63b8ff" points="131.82,-57.5 141.82,-54 131.82,-50.5 131.82,-57.5"/>
</a>
</g>
</g>
<!-- Node4 -->
<g id="Node000004" class="node">
<title>Node4</title>
<g id="a_Node000004"><a xlink:href="classLGE_1_1Log.html#ab0265ee050b8873a2fd31fbdb696ced0" target="_top" xlink:title=" ">
<polygon fill="white" stroke="#666666" points="237.12,-20 157.38,-20 157.38,0 237.12,0 237.12,-20"/>
<text xml:space="preserve" text-anchor="middle" x="197.25" y="-6.5" font-family="Helvetica,sans-Serif" font-size="10.00">LGE::Log::Info</text>
</a>
</g>
</g>
<!-- Node1&#45;&gt;Node4 -->
<g id="edge3_Node000001_Node000004" class="edge">
<title>Node1&#45;&gt;Node4</title>
<g id="a_edge3_Node000001_Node000004"><a xlink:title=" ">
<path fill="none" stroke="#63b8ff" d="M107.44,-37.62C122.07,-33.07 137.81,-28.17 151.91,-23.79"/>
<polygon fill="#63b8ff" stroke="#63b8ff" points="152.86,-27.16 161.37,-20.85 150.78,-20.47 152.86,-27.16"/>
</a>
</g>
</g>
</g>
</svg>
