<?xml version="1.0" encoding="UTF-8" standalone="no"?>
<!DOCTYPE svg PUBLIC "-//W3C//DTD SVG 1.1//EN"
 "http://www.w3.org/Graphics/SVG/1.1/DTD/svg11.dtd">
<!-- Generated by graphviz version 14.0.2 (20251019.1705)
 -->
<!-- Title: ExampleApp::Initialize Pages: 1 -->
<svg width="662pt" height="392pt"
 viewBox="0.00 0.00 662.00 392.00" xmlns="http://www.w3.org/2000/svg" xmlns:xlink="http://www.w3.org/1999/xlink">
<g id="graph0" class="graph" transform="scale(1 1) rotate(0) translate(4 388)">
<title>ExampleApp::Initialize</title>
<!-- Node1 -->
<g id="Node000001" class="node">
<title>Node1</title>
<g id="a_Node000001"><a xlink:title=" ">
<polygon fill="#999999" stroke="#666666" points="113.5,-270 0,-270 0,-250 113.5,-250 113.5,-270"/>
<text xml:space="preserve" text-anchor="middle" x="56.75" y="-256.5" font-family="Helvetica,sans-Serif" font-size="10.00">ExampleApp::Initialize</text>
</a>
</g>
</g>
<!-- Node2 -->
<g id="Node000002" class="node">
<title>Node2</title>
<g id="a_Node000002"><a xlink:href="classLGE_1_1ExporterRegistry.html#a23f61658469ecc64b4fd7c638c2a330c" target="_top" xlink:title=" ">
<polygon fill="white" stroke="#666666" points="286.25,-384 149.5,-384 149.5,-364 286.25,-364 286.25,-384"/>
<text xml:space="preserve" text-anchor="middle" x="217.88" y="-370.5" font-family="Helvetica,sans-Serif" font-size="10.00">LGE::ExporterRegistry::Get</text>
</a>
</g>
</g>
<!-- Node1&#45;&gt;Node2 -->
<g id="edge1_Node000001_Node000002" class="edge">
<title>Node1&#45;&gt;Node2</title>
<g id="a_edge1_Node000001_Node000002"><a xlink:title=" ">
<path fill="none" stroke="#63b8ff" d="M64.78,-270.3C78.66,-289.83 111.52,-332.29 149.5,-355 152.1,-356.55 154.83,-357.99 157.65,-359.3"/>
<polygon fill="#63b8ff" stroke="#63b8ff" points="156.12,-362.46 166.7,-363.02 158.78,-355.99 156.12,-362.46"/>
</a>
</g>
</g>
<!-- Node3 -->
<g id="Node000003" class="node">
<title>Node3</title>
<g id="a_Node000003"><a xlink:href="classLGE_1_1ImporterRegistry.html#ae32195eae32f4eb6c04f7c01d95fc621" target="_top" xlink:title=" ">
<polygon fill="white" stroke="#666666" points="285.88,-346 149.88,-346 149.88,-326 285.88,-326 285.88,-346"/>
<text xml:space="preserve" text-anchor="middle" x="217.88" y="-332.5" font-family="Helvetica,sans-Serif" font-size="10.00">LGE::ImporterRegistry::Get</text>
</a>
</g>
</g>
<!-- Node1&#45;&gt;Node3 -->
<g id="edge2_Node000001_Node000003" class="edge">
<title>Node1&#45;&gt;Node3</title>
<g id="a_edge2_Node000001_Node000003"><a xlink:title=" ">
<path fill="none" stroke="#63b8ff" d="M74.2,-270.48C92.22,-281.68 122.19,-299.51 149.5,-312 157.03,-315.44 165.21,-318.72 173.19,-321.69"/>
<polygon fill="#63b8ff" stroke="#63b8ff" points="171.85,-324.92 182.44,-325.01 174.21,-318.34 171.85,-324.92"/>
</a>
</g>
</g>
<!-- Node4 -->
<g id="Node000004" class="node">
<title>Node4</title>
<g id="a_Node000004"><a xlink:href="classLGE_1_1Log.html#ab0265ee050b8873a2fd31fbdb696ced0" target="_top" xlink:title=" ">
<polygon fill="white" stroke="#666666" points="612.25,-251 532.5,-251 532.5,-231 612.25,-231 612.25,-251"/>
<text xml:space="preserve" text-anchor="middle" x="572.38" y="-237.5" font-family="Helvetica,sans-Serif" font-size="10.00">LGE::Log::Info</text>
</a>
</g>
</g>
<!-- Node1&#45;&gt;Node4 -->
<g id="edge3_Node000001_Node000004" class="edge">
<title>Node1&#45;&gt;Node4</title>
<g id="a_edge3_Node000001_Node000004"><a xlink:title=" ">
<path fill="none" stroke="#63b8ff" d="M113.78,-269.86C191.1,-281.85 334.66,-298.23 455.25,-279 483.33,-274.52 513.85,-264.31 536.55,-255.6"/>
<polygon fill="#63b8ff" stroke="#63b8ff" points="537.59,-258.96 545.61,-252.03 535.02,-252.44 537.59,-258.96"/>
</a>
</g>
</g>
<!-- Node5 -->
<g id="Node000005" class="node">
<title>Node5</title>
<g id="a_Node000005"><a xlink:href="classLGE_1_1Application.html#a79cbcce064217e14d9598a40b734249a" target="_top" xlink:title=" ">
<polygon fill="white" stroke="#666666" points="283.62,-194 152.12,-194 152.12,-174 283.62,-174 283.62,-194"/>
<text xml:space="preserve" text-anchor="middle" x="217.88" y="-180.5" font-family="Helvetica,sans-Serif" font-size="10.00">LGE::Application::Initialize</text>
</a>
</g>
</g>
<!-- Node1&#45;&gt;Node5 -->
<g id="edge4_Node000001_Node000005" class="edge">
<title>Node1&#45;&gt;Node5</title>
<g id="a_edge4_Node000001_Node000005"><a xlink:title=" ">
<path fill="none" stroke="#63b8ff" d="M79.54,-249.59C106.72,-236.61 153.43,-214.3 184.72,-199.36"/>
<polygon fill="#63b8ff" stroke="#63b8ff" points="186.21,-202.52 193.73,-195.06 183.19,-196.21 186.21,-202.52"/>
</a>
</g>
</g>
<!-- Node14 -->
<g id="Node000014" class="node">
<title>Node14</title>
<g id="a_Node000014"><a xlink:href="namespaceLGE_1_1ThreadPool.html#a195c56ed6932a2153e04e325015d3c54" target="_top" xlink:title=" ">
<polygon fill="white" stroke="#666666" points="455.25,-270 322.25,-270 322.25,-250 455.25,-250 455.25,-270"/>
<text xml:space="preserve" text-anchor="middle" x="388.75" y="-256.5" font-family="Helvetica,sans-Serif" font-size="10.00">LGE::ThreadPool::Initialize</text>
</a>
</g>
</g>
<!-- Node1&#45;&gt;Node14 -->
<g id="edge16_Node000001_Node000014" class="edge">
<title>Node1&#45;&gt;Node14</title>
<g id="a_edge16_Node000001_Node000014"><a xlink:title=" ">
<path fill="none" stroke="#63b8ff" d="M113.73,-260C167.8,-260 250.15,-260 310.46,-260"/>
<polygon fill="#63b8ff" stroke="#63b8ff" points="310.31,-263.5 320.31,-260 310.31,-256.5 310.31,-263.5"/>
</a>
</g>
</g>
<!-- Node15 -->
<g id="Node000015" class="node">
<title>Node15</title>
<g id="a_Node000015"><a xlink:href="classLGE_1_1ExporterRegistry.html#adf0d7b10b4865956beb7a9a9c0632ef1" target="_top" xlink:title=" ">
<polygon fill="white" stroke="#666666" points="275.38,-156 160.38,-156 160.38,-124 275.38,-124 275.38,-156"/>
<text xml:space="preserve" text-anchor="start" x="168.38" y="-142.5" font-family="Helvetica,sans-Serif" font-size="10.00">LGE::ExporterRegistry</text>
<text xml:space="preserve" text-anchor="middle" x="217.88" y="-130.5" font-family="Helvetica,sans-Serif" font-size="10.00">::RegisterExporter</text>
</a>
</g>
</g>
<!-- Node1&#45;&gt;Node15 -->
<g id="edge19_Node000001_Node000015" class="edge">
<title>Node1&#45;&gt;Node15</title>
<g id="a_edge19_Node000001_Node000015"><a xlink:title=" ">
<path fill="none" stroke="#63b8ff" d="M65.18,-249.67C79.47,-230.48 112.65,-189.09 149.5,-165 151.34,-163.8 153.25,-162.64 155.2,-161.53"/>
<polygon fill="#63b8ff" stroke="#63b8ff" points="156.64,-164.73 163.95,-157.05 153.45,-158.5 156.64,-164.73"/>
</a>
</g>
</g>
<!-- Node16 -->
<g id="Node000016" class="node">
<title>Node16</title>
<g id="a_Node000016"><a xlink:href="classLGE_1_1ImporterRegistry.html#a5a68839dbdb180c208d906375da1ac1c" target="_top" xlink:title=" ">
<polygon fill="white" stroke="#666666" points="275,-106 160.75,-106 160.75,-74 275,-74 275,-106"/>
<text xml:space="preserve" text-anchor="start" x="168.75" y="-92.5" font-family="Helvetica,sans-Serif" font-size="10.00">LGE::ImporterRegistry</text>
<text xml:space="preserve" text-anchor="middle" x="217.88" y="-80.5" font-family="Helvetica,sans-Serif" font-size="10.00">::RegisterImporter</text>
</a>
</g>
</g>
<!-- Node1&#45;&gt;Node16 -->
<g id="edge20_Node000001_Node000016" class="edge">
<title>Node1&#45;&gt;Node16</title>
<g id="a_edge20_Node000001_Node000016"><a xlink:title=" ">
<path fill="none" stroke="#63b8ff" d="M61.57,-249.61C71.76,-223.3 102.05,-153.45 149.5,-115 150.62,-114.09 151.77,-113.22 152.96,-112.37"/>
<polygon fill="#63b8ff" stroke="#63b8ff" points="154.58,-115.49 161.25,-107.26 150.9,-109.53 154.58,-115.49"/>
</a>
</g>
</g>
<!-- Node5&#45;&gt;Node4 -->
<g id="edge11_Node000005_Node000004" class="edge">
<title>Node5&#45;&gt;Node4</title>
<g id="a_edge11_Node000005_Node000004"><a xlink:title=" ">
<path fill="none" stroke="#63b8ff" d="M274.08,-194.47C289.64,-197.33 306.59,-200.37 322.25,-203 390.9,-214.54 470.45,-226.42 520.83,-233.75"/>
<polygon fill="#63b8ff" stroke="#63b8ff" points="520.15,-237.19 530.55,-235.16 521.16,-230.26 520.15,-237.19"/>
</a>
</g>
</g>
<!-- Node6 -->
<g id="Node000006" class="node">
<title>Node6</title>
<g id="a_Node000006"><a xlink:href="classLGE_1_1Renderer.html#a877283a2b6b1d662f9b65a201446cbb1" target="_top" xlink:title=" ">
<polygon fill="white" stroke="#666666" points="447,-156 330.5,-156 330.5,-136 447,-136 447,-156"/>
<text xml:space="preserve" text-anchor="middle" x="388.75" y="-142.5" font-family="Helvetica,sans-Serif" font-size="10.00">LGE::Renderer::Create</text>
</a>
</g>
</g>
<!-- Node5&#45;&gt;Node6 -->
<g id="edge5_Node000005_Node000006" class="edge">
<title>Node5&#45;&gt;Node6</title>
<g id="a_edge5_Node000005_Node000006"><a xlink:title=" ">
<path fill="none" stroke="#63b8ff" d="M265.47,-173.52C285.49,-169.01 309.1,-163.7 330.21,-158.95"/>
<polygon fill="#63b8ff" stroke="#63b8ff" points="330.84,-162.39 339.83,-156.78 329.31,-155.56 330.84,-162.39"/>
</a>
</g>
</g>
<!-- Node7 -->
<g id="Node000007" class="node">
<title>Node7</title>
<g id="a_Node000007"><a xlink:href="classLGE_1_1Log.html#a53f3f4b8797ffd18145739c9e66d690a" target="_top" xlink:title=" ">
<polygon fill="white" stroke="#666666" points="614.5,-137 530.25,-137 530.25,-117 614.5,-117 614.5,-137"/>
<text xml:space="preserve" text-anchor="middle" x="572.38" y="-123.5" font-family="Helvetica,sans-Serif" font-size="10.00">LGE::Log::Error</text>
</a>
</g>
</g>
<!-- Node5&#45;&gt;Node7 -->
<g id="edge9_Node000005_Node000007" class="edge">
<title>Node5&#45;&gt;Node7</title>
<g id="a_edge9_Node000005_Node000007"><a xlink:title=" ">
<path fill="none" stroke="#63b8ff" d="M268.03,-173.52C274.39,-171.2 280.63,-168.39 286.25,-165 306.16,-152.97 300.88,-136.19 322.25,-127 385.6,-99.75 466.67,-106.45 518.82,-115.37"/>
<polygon fill="#63b8ff" stroke="#63b8ff" points="518.18,-118.81 528.65,-117.15 519.43,-111.92 518.18,-118.81"/>
</a>
</g>
</g>
<!-- Node9 -->
<g id="Node000009" class="node">
<title>Node9</title>
<g id="a_Node000009"><a xlink:href="classLGE_1_1Renderer.html#ab686b11e3cebf89e6c87e929e1eb4678" target="_top" xlink:title=" ">
<polygon fill="white" stroke="#666666" points="448.5,-194 329,-194 329,-174 448.5,-174 448.5,-194"/>
<text xml:space="preserve" text-anchor="middle" x="388.75" y="-180.5" font-family="Helvetica,sans-Serif" font-size="10.00">LGE::Renderer::GetAPI</text>
</a>
</g>
</g>
<!-- Node5&#45;&gt;Node9 -->
<g id="edge10_Node000005_Node000009" class="edge">
<title>Node5&#45;&gt;Node9</title>
<g id="a_edge10_Node000005_Node000009"><a xlink:title=" ">
<path fill="none" stroke="#63b8ff" d="M283.68,-184C294.66,-184 306.1,-184 317.22,-184"/>
<polygon fill="#63b8ff" stroke="#63b8ff" points="317.14,-187.5 327.14,-184 317.14,-180.5 317.14,-187.5"/>
</a>
</g>
</g>
<!-- Node10 -->
<g id="Node000010" class="node">
<title>Node10</title>
<g id="a_Node000010"><a xlink:href="classLGE_1_1UI.html#a8654b6ea7732d4cdef595431bd0bffc7" target="_top" xlink:title=" ">
<polygon fill="white" stroke="#666666" points="435.75,-42 341.75,-42 341.75,-22 435.75,-22 435.75,-42"/>
<text xml:space="preserve" text-anchor="middle" x="388.75" y="-28.5" font-family="Helvetica,sans-Serif" font-size="10.00">LGE::UI::Initialize</text>
</a>
</g>
</g>
<!-- Node5&#45;&gt;Node10 -->
<g id="edge12_Node000005_Node000010" class="edge">
<title>Node5&#45;&gt;Node10</title>
<g id="a_edge12_Node000005_Node000010"><a xlink:title=" ">
<path fill="none" stroke="#63b8ff" d="M274.05,-173.65C278.51,-171.31 282.67,-168.47 286.25,-165 324.4,-128.02 284.24,-88.13 322.25,-51 324.92,-48.39 327.92,-46.14 331.14,-44.2"/>
<polygon fill="#63b8ff" stroke="#63b8ff" points="332.49,-47.43 339.94,-39.89 329.42,-41.14 332.49,-47.43"/>
</a>
</g>
</g>
<!-- Node13 -->
<g id="Node000013" class="node">
<title>Node13</title>
<g id="a_Node000013"><a xlink:href="classLGE_1_1Renderer.html#afa2787dc0a5661e663a2b7f18fe66f54" target="_top" xlink:title=" ">
<polygon fill="white" stroke="#666666" points="448.12,-80 329.38,-80 329.38,-60 448.12,-60 448.12,-80"/>
<text xml:space="preserve" text-anchor="middle" x="388.75" y="-66.5" font-family="Helvetica,sans-Serif" font-size="10.00">LGE::Renderer::SetAPI</text>
</a>
</g>
</g>
<!-- Node5&#45;&gt;Node13 -->
<g id="edge15_Node000005_Node000013" class="edge">
<title>Node5&#45;&gt;Node13</title>
<g id="a_edge15_Node000005_Node000013"><a xlink:title=" ">
<path fill="none" stroke="#63b8ff" d="M272.13,-173.63C277.2,-171.31 282.03,-168.47 286.25,-165 313.58,-142.53 295.8,-117.5 322.25,-94 326.02,-90.65 330.29,-87.76 334.81,-85.26"/>
<polygon fill="#63b8ff" stroke="#63b8ff" points="336.1,-88.52 343.62,-81.05 333.08,-82.2 336.1,-88.52"/>
</a>
</g>
</g>
<!-- Node6&#45;&gt;Node4 -->
<g id="edge7_Node000006_Node000004" class="edge">
<title>Node6&#45;&gt;Node4</title>
<g id="a_edge7_Node000006_Node000004"><a xlink:title=" ">
<path fill="none" stroke="#63b8ff" d="M438.93,-156.43C444.69,-158.75 450.28,-161.57 455.25,-165 477.19,-180.16 469.73,-197.25 491.25,-213 500.16,-219.52 510.73,-224.63 521.21,-228.58"/>
<polygon fill="#63b8ff" stroke="#63b8ff" points="520.01,-231.87 530.6,-231.81 522.28,-225.25 520.01,-231.87"/>
</a>
</g>
</g>
<!-- Node6&#45;&gt;Node7 -->
<g id="edge6_Node000006_Node000007" class="edge">
<title>Node6&#45;&gt;Node7</title>
<g id="a_edge6_Node000006_Node000007"><a xlink:title=" ">
<path fill="none" stroke="#63b8ff" d="M447.47,-139.96C470.29,-137.57 496.34,-134.85 518.65,-132.52"/>
<polygon fill="#63b8ff" stroke="#63b8ff" points="518.85,-136.01 528.43,-131.49 518.12,-129.05 518.85,-136.01"/>
</a>
</g>
</g>
<!-- Node8 -->
<g id="Node000008" class="node">
<title>Node8</title>
<g id="a_Node000008"><a xlink:href="classLGE_1_1Log.html#aa6f98018af29c23dd7f574d3df5dda5e" target="_top" xlink:title=" ">
<polygon fill="white" stroke="#666666" points="615.25,-204 529.5,-204 529.5,-184 615.25,-184 615.25,-204"/>
<text xml:space="preserve" text-anchor="middle" x="572.38" y="-190.5" font-family="Helvetica,sans-Serif" font-size="10.00">LGE::Log::Warn</text>
</a>
</g>
</g>
<!-- Node6&#45;&gt;Node8 -->
<g id="edge8_Node000006_Node000008" class="edge">
<title>Node6&#45;&gt;Node8</title>
<g id="a_edge8_Node000006_Node000008"><a xlink:title=" ">
<path fill="none" stroke="#63b8ff" d="M429.16,-156.42C455.96,-163.5 491.67,-172.94 520.6,-180.58"/>
<polygon fill="#63b8ff" stroke="#63b8ff" points="519.7,-183.96 530.27,-183.14 521.49,-177.2 519.7,-183.96"/>
</a>
</g>
</g>
<!-- Node11 -->
<g id="Node000011" class="node">
<title>Node11</title>
<g id="a_Node000011"><a xlink:href="classLGE_1_1UITheme.html#aef391e7b2adc251c63268db540539c3c" target="_top" xlink:title=" ">
<polygon fill="white" stroke="#666666" points="644.88,-70 499.88,-70 499.88,-38 644.88,-38 644.88,-70"/>
<text xml:space="preserve" text-anchor="start" x="507.88" y="-56.5" font-family="Helvetica,sans-Serif" font-size="10.00">LGE::UITheme::ApplyModern</text>
<text xml:space="preserve" text-anchor="middle" x="572.38" y="-44.5" font-family="Helvetica,sans-Serif" font-size="10.00">Theme</text>
</a>
</g>
</g>
<!-- Node10&#45;&gt;Node11 -->
<g id="edge13_Node000010_Node000011" class="edge">
<title>Node10&#45;&gt;Node11</title>
<g id="a_edge13_Node000010_Node000011"><a xlink:title=" ">
<path fill="none" stroke="#63b8ff" d="M436.05,-37.61C451.9,-39.53 470.16,-41.74 488.03,-43.9"/>
<polygon fill="#63b8ff" stroke="#63b8ff" points="487.53,-47.37 497.88,-45.1 488.37,-40.42 487.53,-47.37"/>
</a>
</g>
</g>
<!-- Node12 -->
<g id="Node000012" class="node">
<title>Node12</title>
<g id="a_Node000012"><a xlink:href="classLGE_1_1Window.html#a2181342e775ab5b5a060f6386042a97d" target="_top" xlink:title=" ">
<polygon fill="white" stroke="#666666" points="653.5,-20 491.25,-20 491.25,0 653.5,0 653.5,-20"/>
<text xml:space="preserve" text-anchor="middle" x="572.38" y="-6.5" font-family="Helvetica,sans-Serif" font-size="10.00">LGE::Window::GetNativeWindow</text>
</a>
</g>
</g>
<!-- Node10&#45;&gt;Node12 -->
<g id="edge14_Node000010_Node000012" class="edge">
<title>Node10&#45;&gt;Node12</title>
<g id="a_edge14_Node000010_Node000012"><a xlink:title=" ">
<path fill="none" stroke="#63b8ff" d="M436.05,-26.39C449.5,-24.76 464.68,-22.92 479.88,-21.08"/>
<polygon fill="#63b8ff" stroke="#63b8ff" points="479.92,-24.6 489.43,-19.93 479.08,-17.65 479.92,-24.6"/>
</a>
</g>
</g>
<!-- Node14&#45;&gt;Node4 -->
<g id="edge17_Node000014_Node000004" class="edge">
<title>Node14&#45;&gt;Node4</title>
<g id="a_edge17_Node000014_Node000004"><a xlink:title=" ">
<path fill="none" stroke="#63b8ff" d="M455.58,-253.11C477.15,-250.86 500.76,-248.39 521,-246.27"/>
<polygon fill="#63b8ff" stroke="#63b8ff" points="521.09,-249.78 530.67,-245.26 520.36,-242.82 521.09,-249.78"/>
</a>
</g>
</g>
<!-- Node14&#45;&gt;Node8 -->
<g id="edge18_Node000014_Node000008" class="edge">
<title>Node14&#45;&gt;Node8</title>
<g id="a_edge18_Node000014_Node000008"><a xlink:title=" ">
<path fill="none" stroke="#63b8ff" d="M417.26,-249.51C437.64,-241.79 466.13,-231.09 491.25,-222 503.9,-217.42 517.71,-212.55 530.25,-208.18"/>
<polygon fill="#63b8ff" stroke="#63b8ff" points="531.16,-211.57 539.45,-204.98 528.86,-204.96 531.16,-211.57"/>
</a>
</g>
</g>
</g>
</svg>
