<?xml version="1.0" encoding="UTF-8" standalone="no"?>
<!DOCTYPE svg PUBLIC "-//W3C//DTD SVG 1.1//EN"
 "http://www.w3.org/Graphics/SVG/1.1/DTD/svg11.dtd">
<!-- Generated by graphviz version 14.0.2 (20251019.1705)
 -->
<!-- Title: LGE::SearchQuery::Text Pages: 1 -->
<svg width="342pt" height="123pt"
 viewBox="0.00 0.00 342.00 123.00" xmlns="http://www.w3.org/2000/svg" xmlns:xlink="http://www.w3.org/1999/xlink">
<g id="graph0" class="graph" transform="scale(1 1) rotate(0) translate(4 119)">
<title>LGE::SearchQuery::Text</title>
<!-- Node1 -->
<g id="Node000001" class="node">
<title>Node1</title>
<g id="a_Node000001"><a xlink:title=" ">
<polygon fill="#999999" stroke="#666666" points="333.75,-77 210.5,-77 210.5,-57 333.75,-57 333.75,-77"/>
<text xml:space="preserve" text-anchor="middle" x="272.12" y="-63.5" font-family="Helvetica,sans-Serif" font-size="10.00">LGE::SearchQuery::Text</text>
</a>
</g>
</g>
<!-- Node2 -->
<g id="Node000002" class="node">
<title>Node2</title>
<g id="a_Node000002"><a xlink:href="TestSearch_8cpp.html#a33500ac4fe5ec5aabbfb97635e04b1a5" target="_top" xlink:title=" ">
<polygon fill="white" stroke="#666666" points="146.75,-115 105.25,-115 105.25,-95 146.75,-95 146.75,-115"/>
<text xml:space="preserve" text-anchor="middle" x="126" y="-101.5" font-family="Helvetica,sans-Serif" font-size="10.00">TEST</text>
</a>
</g>
</g>
<!-- Node1&#45;&gt;Node2 -->
<g id="edge1_Node000001_Node000002" class="edge">
<title>Node1&#45;&gt;Node2</title>
<g id="a_edge1_Node000001_Node000002"><a xlink:title=" ">
<path fill="none" stroke="#63b8ff" d="M220.45,-80.36C195.19,-87.02 166.09,-94.69 147.16,-99.69"/>
<polygon fill="#63b8ff" stroke="#63b8ff" points="221.12,-83.8 229.9,-77.87 219.34,-77.04 221.12,-83.8"/>
</a>
</g>
</g>
<!-- Node3 -->
<g id="Node000003" class="node">
<title>Node3</title>
<g id="a_Node000003"><a xlink:href="TestSearch_8cpp.html#a13cb3cdd7534423f0d92329cf16ceaf7" target="_top" xlink:title=" ">
<polygon fill="white" stroke="#666666" points="146.75,-77 105.25,-77 105.25,-57 146.75,-57 146.75,-77"/>
<text xml:space="preserve" text-anchor="middle" x="126" y="-63.5" font-family="Helvetica,sans-Serif" font-size="10.00">TEST</text>
</a>
</g>
</g>
<!-- Node1&#45;&gt;Node3 -->
<g id="edge2_Node000001_Node000003" class="edge">
<title>Node1&#45;&gt;Node3</title>
<g id="a_edge2_Node000001_Node000003"><a xlink:title=" ">
<path fill="none" stroke="#63b8ff" d="M198.56,-67C179.59,-67 160.68,-67 147.06,-67"/>
<polygon fill="#63b8ff" stroke="#63b8ff" points="198.49,-70.5 208.49,-67 198.49,-63.5 198.49,-70.5"/>
</a>
</g>
</g>
<!-- Node4 -->
<g id="Node000004" class="node">
<title>Node4</title>
<g id="a_Node000004"><a xlink:href="namespaceLGE_1_1Search.html#ae1b3505236cfc60a02f36a0c1a06d9bd" target="_top" xlink:title=" ">
<polygon fill="white" stroke="#666666" points="174.5,-39 77.5,-39 77.5,-19 174.5,-19 174.5,-39"/>
<text xml:space="preserve" text-anchor="middle" x="126" y="-25.5" font-family="Helvetica,sans-Serif" font-size="10.00">LGE::Search::Text</text>
</a>
</g>
</g>
<!-- Node1&#45;&gt;Node4 -->
<g id="edge3_Node000001_Node000004" class="edge">
<title>Node1&#45;&gt;Node4</title>
<g id="a_edge3_Node000001_Node000004"><a xlink:title=" ">
<path fill="none" stroke="#63b8ff" d="M220.38,-53.62C202.74,-48.97 183.24,-43.83 166.63,-39.45"/>
<polygon fill="#63b8ff" stroke="#63b8ff" points="219.34,-56.96 229.9,-56.13 221.12,-50.2 219.34,-56.96"/>
</a>
</g>
</g>
<!-- Node5 -->
<g id="Node000005" class="node">
<title>Node5</title>
<g id="a_Node000005"><a xlink:href="TestSearch_8cpp.html#a726a0578ed58faaeb0201d967dbce4be" target="_top" xlink:title=" ">
<polygon fill="white" stroke="#666666" points="41.5,-58 0,-58 0,-38 41.5,-38 41.5,-58"/>
<text xml:space="preserve" text-anchor="middle" x="20.75" y="-44.5" font-family="Helvetica,sans-Serif" font-size="10.00">TEST</text>
</a>
</g>
</g>
<!-- Node4&#45;&gt;Node5 -->
<g id="edge4_Node000004_Node000005" class="edge">
<title>Node4&#45;&gt;Node5</title>
<g id="a_edge4_Node000004_Node000005"><a xlink:title=" ">
<path fill="none" stroke="#63b8ff" d="M65.93,-39.87C57.26,-41.47 48.87,-43.01 41.77,-44.32"/>
<polygon fill="#63b8ff" stroke="#63b8ff" points="66.31,-43.36 75.51,-38.11 65.05,-36.47 66.31,-43.36"/>
</a>
</g>
</g>
<!-- Node6 -->
<g id="Node000006" class="node">
<title>Node6</title>
<g id="a_Node000006"><a xlink:href="TestSearch_8cpp.html#a7120a1bbfb46623c11b708a8ab750d82" target="_top" xlink:title=" ">
<polygon fill="white" stroke="#666666" points="41.5,-20 0,-20 0,0 41.5,0 41.5,-20"/>
<text xml:space="preserve" text-anchor="middle" x="20.75" y="-6.5" font-family="Helvetica,sans-Serif" font-size="10.00">TEST</text>
</a>
</g>
</g>
<!-- Node4&#45;&gt;Node6 -->
<g id="edge5_Node000004_Node000006" class="edge">
<title>Node4&#45;&gt;Node6</title>
<g id="a_edge5_Node000004_Node000006"><a xlink:title=" ">
<path fill="none" stroke="#63b8ff" d="M65.93,-18.13C57.26,-16.53 48.87,-14.99 41.77,-13.68"/>
<polygon fill="#63b8ff" stroke="#63b8ff" points="65.05,-21.53 75.51,-19.89 66.31,-14.64 65.05,-21.53"/>
</a>
</g>
</g>
</g>
</svg>
