<?xml version="1.0" encoding="UTF-8" standalone="no"?>
<!DOCTYPE svg PUBLIC "-//W3C//DTD SVG 1.1//EN"
 "http://www.w3.org/Graphics/SVG/1.1/DTD/svg11.dtd">
<!-- Generated by graphviz version 14.0.2 (20251019.1705)
 -->
<!-- Title: LGE::ExporterRegistry::Get Pages: 1 -->
<svg width="461pt" height="178pt"
 viewBox="0.00 0.00 461.00 178.00" xmlns="http://www.w3.org/2000/svg" xmlns:xlink="http://www.w3.org/1999/xlink">
<g id="graph0" class="graph" transform="scale(1 1) rotate(0) translate(4 174)">
<title>LGE::ExporterRegistry::Get</title>
<!-- Node1 -->
<g id="Node000001" class="node">
<title>Node1</title>
<g id="a_Node000001"><a xlink:title=" ">
<polygon fill="#999999" stroke="#666666" points="453,-89 316.25,-89 316.25,-69 453,-69 453,-89"/>
<text xml:space="preserve" text-anchor="middle" x="384.62" y="-75.5" font-family="Helvetica,sans-Serif" font-size="10.00">LGE::ExporterRegistry::Get</text>
</a>
</g>
</g>
<!-- Node2 -->
<g id="Node000002" class="node">
<title>Node2</title>
<g id="a_Node000002"><a xlink:href="namespaceLGE_1_1ImportExport.html#a389b387b263bd0aa87865967d605dcda" target="_top" xlink:title=" ">
<polygon fill="white" stroke="#666666" points="261.88,-170 158.12,-170 158.12,-138 261.88,-138 261.88,-170"/>
<text xml:space="preserve" text-anchor="start" x="166.12" y="-156.5" font-family="Helvetica,sans-Serif" font-size="10.00">LGE::ImportExport::</text>
<text xml:space="preserve" text-anchor="middle" x="210" y="-144.5" font-family="Helvetica,sans-Serif" font-size="10.00">CanExport</text>
</a>
</g>
</g>
<!-- Node1&#45;&gt;Node2 -->
<g id="edge1_Node000001_Node000002" class="edge">
<title>Node1&#45;&gt;Node2</title>
<g id="a_edge1_Node000001_Node000002"><a xlink:title=" ">
<path fill="none" stroke="#63b8ff" d="M353.46,-94.62C333.04,-104.93 305.33,-118.44 280.25,-129 273.3,-131.93 265.87,-134.83 258.56,-137.57"/>
<polygon fill="#63b8ff" stroke="#63b8ff" points="355.03,-97.74 362.36,-90.09 351.86,-91.51 355.03,-97.74"/>
</a>
</g>
</g>
<!-- Node3 -->
<g id="Node000003" class="node">
<title>Node3</title>
<g id="a_Node000003"><a xlink:href="namespaceLGE_1_1ImportExport.html#aee6be1efe068881b5c6d41e8011b729c" target="_top" xlink:title=" ">
<polygon fill="white" stroke="#666666" points="261.88,-120 158.12,-120 158.12,-88 261.88,-88 261.88,-120"/>
<text xml:space="preserve" text-anchor="start" x="166.12" y="-106.5" font-family="Helvetica,sans-Serif" font-size="10.00">LGE::ImportExport::</text>
<text xml:space="preserve" text-anchor="middle" x="210" y="-94.5" font-family="Helvetica,sans-Serif" font-size="10.00">ExportAsset</text>
</a>
</g>
</g>
<!-- Node1&#45;&gt;Node3 -->
<g id="edge2_Node000001_Node000003" class="edge">
<title>Node1&#45;&gt;Node3</title>
<g id="a_edge2_Node000001_Node000003"><a xlink:title=" ">
<path fill="none" stroke="#63b8ff" d="M304.91,-90.4C290.43,-92.5 275.66,-94.64 262.25,-96.58"/>
<polygon fill="#63b8ff" stroke="#63b8ff" points="305,-93.92 314.4,-89.03 304,-87 305,-93.92"/>
</a>
</g>
</g>
<!-- Node5 -->
<g id="Node000005" class="node">
<title>Node5</title>
<g id="a_Node000005"><a xlink:href="namespaceLGE_1_1ImportExport.html#a968f8e6b9f6cbc50d68c187ae306273c" target="_top" xlink:title=" ">
<polygon fill="white" stroke="#666666" points="280.25,-70 139.75,-70 139.75,-38 280.25,-38 280.25,-70"/>
<text xml:space="preserve" text-anchor="start" x="147.75" y="-56.5" font-family="Helvetica,sans-Serif" font-size="10.00">LGE::ImportExport::</text>
<text xml:space="preserve" text-anchor="middle" x="210" y="-44.5" font-family="Helvetica,sans-Serif" font-size="10.00">GetSupportedExportFormats</text>
</a>
</g>
</g>
<!-- Node1&#45;&gt;Node5 -->
<g id="edge4_Node000001_Node000005" class="edge">
<title>Node1&#45;&gt;Node5</title>
<g id="a_edge4_Node000001_Node000005"><a xlink:title=" ">
<path fill="none" stroke="#63b8ff" d="M304.61,-67.56C296.57,-66.39 288.45,-65.22 280.52,-64.07"/>
<polygon fill="#63b8ff" stroke="#63b8ff" points="304,-71 314.4,-68.97 305,-64.08 304,-71"/>
</a>
</g>
</g>
<!-- Node6 -->
<g id="Node000006" class="node">
<title>Node6</title>
<g id="a_Node000006"><a xlink:href="classExampleApp.html#aeefc835a3f3b1d9eb6e8ff4322174c0e" target="_top" xlink:title=" ">
<polygon fill="white" stroke="#666666" points="266.75,-20 153.25,-20 153.25,0 266.75,0 266.75,-20"/>
<text xml:space="preserve" text-anchor="middle" x="210" y="-6.5" font-family="Helvetica,sans-Serif" font-size="10.00">ExampleApp::Initialize</text>
</a>
</g>
</g>
<!-- Node1&#45;&gt;Node6 -->
<g id="edge5_Node000001_Node000006" class="edge">
<title>Node1&#45;&gt;Node6</title>
<g id="a_edge5_Node000001_Node000006"><a xlink:title=" ">
<path fill="none" stroke="#63b8ff" d="M354.75,-63.27C334.36,-52.6 306.16,-38.73 280.25,-29 271.85,-25.85 262.69,-22.96 253.87,-20.45"/>
<polygon fill="#63b8ff" stroke="#63b8ff" points="352.84,-66.22 363.32,-67.81 356.12,-60.04 352.84,-66.22"/>
</a>
</g>
</g>
<!-- Node4 -->
<g id="Node000004" class="node">
<title>Node4</title>
<g id="a_Node000004"><a xlink:href="namespaceLGE_1_1ImportExport.html#a9f66230255c444c6b3c439ce3c1459f6" target="_top" xlink:title=" ">
<polygon fill="white" stroke="#666666" points="103.75,-120 0,-120 0,-88 103.75,-88 103.75,-120"/>
<text xml:space="preserve" text-anchor="start" x="8" y="-106.5" font-family="Helvetica,sans-Serif" font-size="10.00">LGE::ImportExport::</text>
<text xml:space="preserve" text-anchor="middle" x="51.88" y="-94.5" font-family="Helvetica,sans-Serif" font-size="10.00">ExportAssets</text>
</a>
</g>
</g>
<!-- Node3&#45;&gt;Node4 -->
<g id="edge3_Node000003_Node000004" class="edge">
<title>Node3&#45;&gt;Node4</title>
<g id="a_edge3_Node000003_Node000004"><a xlink:title=" ">
<path fill="none" stroke="#63b8ff" d="M146.73,-104C132.59,-104 117.73,-104 104.11,-104"/>
<polygon fill="#63b8ff" stroke="#63b8ff" points="146.37,-107.5 156.37,-104 146.37,-100.5 146.37,-107.5"/>
</a>
</g>
</g>
<!-- Node7 -->
<g id="Node000007" class="node">
<title>Node7</title>
<g id="a_Node000007"><a xlink:href="main_8cpp.html#ae66f6b31b5ad750f1fe042a706a4e3d4" target="_top" xlink:title=" ">
<polygon fill="white" stroke="#666666" points="70.38,-20 33.38,-20 33.38,0 70.38,0 70.38,-20"/>
<text xml:space="preserve" text-anchor="middle" x="51.88" y="-6.5" font-family="Helvetica,sans-Serif" font-size="10.00">main</text>
</a>
</g>
</g>
<!-- Node6&#45;&gt;Node7 -->
<g id="edge6_Node000006_Node000007" class="edge">
<title>Node6&#45;&gt;Node7</title>
<g id="a_edge6_Node000006_Node000007"><a xlink:title=" ">
<path fill="none" stroke="#63b8ff" d="M141.66,-10C115.61,-10 87.95,-10 70.55,-10"/>
<polygon fill="#63b8ff" stroke="#63b8ff" points="141.56,-13.5 151.56,-10 141.56,-6.5 141.56,-13.5"/>
</a>
</g>
</g>
</g>
</svg>
