<?xml version="1.0" encoding="UTF-8" standalone="no"?>
<!DOCTYPE svg PUBLIC "-//W3C//DTD SVG 1.1//EN"
 "http://www.w3.org/Graphics/SVG/1.1/DTD/svg11.dtd">
<!-- Generated by graphviz version 14.0.2 (20251019.1705)
 -->
<!-- Title: LGE::OpenGLRenderer::Init Pages: 1 -->
<svg width="279pt" height="154pt"
 viewBox="0.00 0.00 279.00 154.00" xmlns="http://www.w3.org/2000/svg" xmlns:xlink="http://www.w3.org/1999/xlink">
<g id="graph0" class="graph" transform="scale(1 1) rotate(0) translate(4 150)">
<title>LGE::OpenGLRenderer::Init</title>
<!-- Node1 -->
<g id="Node000001" class="node">
<title>Node1</title>
<g id="a_Node000001"><a xlink:title=" ">
<polygon fill="#999999" stroke="#666666" points="117.25,-92 0,-92 0,-60 117.25,-60 117.25,-92"/>
<text xml:space="preserve" text-anchor="start" x="8" y="-78.5" font-family="Helvetica,sans-Serif" font-size="10.00">LGE::OpenGLRenderer</text>
<text xml:space="preserve" text-anchor="middle" x="58.62" y="-66.5" font-family="Helvetica,sans-Serif" font-size="10.00">::Init</text>
</a>
</g>
</g>
<!-- Node2 -->
<g id="Node000002" class="node">
<title>Node2</title>
<g id="a_Node000002"><a xlink:href="classLGE_1_1Log.html#a13a00291892b477b27722730121ec0af" target="_top" xlink:title=" ">
<polygon fill="white" stroke="#666666" points="254.38,-146 169.38,-146 169.38,-126 254.38,-126 254.38,-146"/>
<text xml:space="preserve" text-anchor="middle" x="211.88" y="-132.5" font-family="Helvetica,sans-Serif" font-size="10.00">LGE::Log::Fatal</text>
</a>
</g>
</g>
<!-- Node1&#45;&gt;Node2 -->
<g id="edge1_Node000001_Node000002" class="edge">
<title>Node1&#45;&gt;Node2</title>
<g id="a_edge1_Node000001_Node000002"><a xlink:title=" ">
<path fill="none" stroke="#63b8ff" d="M94.87,-92.37C112.28,-100.22 133.7,-109.51 153.25,-117 157.62,-118.67 162.21,-120.34 166.81,-121.95"/>
<polygon fill="#63b8ff" stroke="#63b8ff" points="165.44,-125.18 176.04,-125.09 167.7,-118.55 165.44,-125.18"/>
</a>
</g>
</g>
<!-- Node3 -->
<g id="Node000003" class="node">
<title>Node3</title>
<g id="a_Node000003"><a xlink:href="classLGE_1_1Log.html#ab0265ee050b8873a2fd31fbdb696ced0" target="_top" xlink:title=" ">
<polygon fill="white" stroke="#666666" points="251.75,-108 172,-108 172,-88 251.75,-88 251.75,-108"/>
<text xml:space="preserve" text-anchor="middle" x="211.88" y="-94.5" font-family="Helvetica,sans-Serif" font-size="10.00">LGE::Log::Info</text>
</a>
</g>
</g>
<!-- Node1&#45;&gt;Node3 -->
<g id="edge2_Node000001_Node000003" class="edge">
<title>Node1&#45;&gt;Node3</title>
<g id="a_edge2_Node000001_Node000003"><a xlink:title=" ">
<path fill="none" stroke="#63b8ff" d="M117.67,-84.44C131.86,-86.51 146.92,-88.7 160.71,-90.7"/>
<polygon fill="#63b8ff" stroke="#63b8ff" points="160.04,-94.14 170.44,-92.12 161.05,-87.22 160.04,-94.14"/>
</a>
</g>
</g>
<!-- Node4 -->
<g id="Node000004" class="node">
<title>Node4</title>
<g id="a_Node000004"><a xlink:href="classLGE_1_1OpenGLRenderer.html#a89584b4d7bd2f1a64eb7b069f1c20ab8" target="_top" xlink:title=" ">
<polygon fill="white" stroke="#666666" points="270.5,-70 153.25,-70 153.25,-38 270.5,-38 270.5,-70"/>
<text xml:space="preserve" text-anchor="start" x="161.25" y="-56.5" font-family="Helvetica,sans-Serif" font-size="10.00">LGE::OpenGLRenderer</text>
<text xml:space="preserve" text-anchor="middle" x="211.88" y="-44.5" font-family="Helvetica,sans-Serif" font-size="10.00">::SetViewport</text>
</a>
</g>
</g>
<!-- Node1&#45;&gt;Node4 -->
<g id="edge3_Node000001_Node000004" class="edge">
<title>Node1&#45;&gt;Node4</title>
<g id="a_edge3_Node000001_Node000004"><a xlink:title=" ">
<path fill="none" stroke="#63b8ff" d="M117.67,-67.56C125.6,-66.4 133.8,-65.21 141.89,-64.03"/>
<polygon fill="#63b8ff" stroke="#63b8ff" points="142.35,-67.5 151.74,-62.6 141.34,-60.58 142.35,-67.5"/>
</a>
</g>
</g>
<!-- Node5 -->
<g id="Node000005" class="node">
<title>Node5</title>
<g id="a_Node000005"><a xlink:href="classLGE_1_1Log.html#aa6f98018af29c23dd7f574d3df5dda5e" target="_top" xlink:title=" ">
<polygon fill="white" stroke="#666666" points="254.75,-20 169,-20 169,0 254.75,0 254.75,-20"/>
<text xml:space="preserve" text-anchor="middle" x="211.88" y="-6.5" font-family="Helvetica,sans-Serif" font-size="10.00">LGE::Log::Warn</text>
</a>
</g>
</g>
<!-- Node1&#45;&gt;Node5 -->
<g id="edge4_Node000001_Node000005" class="edge">
<title>Node1&#45;&gt;Node5</title>
<g id="a_edge4_Node000001_Node000005"><a xlink:title=" ">
<path fill="none" stroke="#63b8ff" d="M89.46,-59.61C107.6,-50.01 131.4,-38.03 153.25,-29 157.3,-27.33 161.55,-25.7 165.83,-24.14"/>
<polygon fill="#63b8ff" stroke="#63b8ff" points="166.73,-27.53 175.02,-20.93 164.42,-20.93 166.73,-27.53"/>
</a>
</g>
</g>
</g>
</svg>
