<?xml version="1.0" encoding="UTF-8" standalone="no"?>
<!DOCTYPE svg PUBLIC "-//W3C//DTD SVG 1.1//EN"
 "http://www.w3.org/Graphics/SVG/1.1/DTD/svg11.dtd">
<!-- Generated by graphviz version 14.0.2 (20251019.1705)
 -->
<!-- Title: LGE::FileSystemWatcher::WatchDirectory Pages: 1 -->
<svg width="414pt" height="116pt"
 viewBox="0.00 0.00 414.00 116.00" xmlns="http://www.w3.org/2000/svg" xmlns:xlink="http://www.w3.org/1999/xlink">
<g id="graph0" class="graph" transform="scale(1 1) rotate(0) translate(4 112)">
<title>LGE::FileSystemWatcher::WatchDirectory</title>
<!-- Node1 -->
<g id="Node000001" class="node">
<title>Node1</title>
<g id="a_Node000001"><a xlink:title=" ">
<polygon fill="#999999" stroke="#666666" points="127,-76 0,-76 0,-44 127,-44 127,-76"/>
<text xml:space="preserve" text-anchor="start" x="8" y="-62.5" font-family="Helvetica,sans-Serif" font-size="10.00">LGE::FileSystemWatcher</text>
<text xml:space="preserve" text-anchor="middle" x="63.5" y="-50.5" font-family="Helvetica,sans-Serif" font-size="10.00">::WatchDirectory</text>
</a>
</g>
</g>
<!-- Node2 -->
<g id="Node000002" class="node">
<title>Node2</title>
<g id="a_Node000002"><a xlink:href="classLGE_1_1Log.html#a53f3f4b8797ffd18145739c9e66d690a" target="_top" xlink:title=" ">
<polygon fill="white" stroke="#666666" points="268.62,-108 184.38,-108 184.38,-88 268.62,-88 268.62,-108"/>
<text xml:space="preserve" text-anchor="middle" x="226.5" y="-94.5" font-family="Helvetica,sans-Serif" font-size="10.00">LGE::Log::Error</text>
</a>
</g>
</g>
<!-- Node1&#45;&gt;Node2 -->
<g id="edge1_Node000001_Node000002" class="edge">
<title>Node1&#45;&gt;Node2</title>
<g id="a_edge1_Node000001_Node000002"><a xlink:title=" ">
<path fill="none" stroke="#63b8ff" d="M127.21,-74.8C142.41,-78.39 158.49,-82.18 173.16,-85.65"/>
<polygon fill="#63b8ff" stroke="#63b8ff" points="172.04,-88.98 182.58,-87.87 173.65,-82.17 172.04,-88.98"/>
</a>
</g>
</g>
<!-- Node3 -->
<g id="Node000003" class="node">
<title>Node3</title>
<g id="a_Node000003"><a xlink:href="classLGE_1_1Log.html#ab0265ee050b8873a2fd31fbdb696ced0" target="_top" xlink:title=" ">
<polygon fill="white" stroke="#666666" points="405.75,-48 326,-48 326,-28 405.75,-28 405.75,-48"/>
<text xml:space="preserve" text-anchor="middle" x="365.88" y="-34.5" font-family="Helvetica,sans-Serif" font-size="10.00">LGE::Log::Info</text>
</a>
</g>
</g>
<!-- Node1&#45;&gt;Node3 -->
<g id="edge2_Node000001_Node000003" class="edge">
<title>Node1&#45;&gt;Node3</title>
<g id="a_edge2_Node000001_Node000003"><a xlink:title=" ">
<path fill="none" stroke="#63b8ff" d="M127.47,-55.39C183.01,-51.32 262.9,-45.47 314.35,-41.7"/>
<polygon fill="#63b8ff" stroke="#63b8ff" points="314.61,-45.19 324.32,-40.97 314.09,-38.21 314.61,-45.19"/>
</a>
</g>
</g>
<!-- Node4 -->
<g id="Node000004" class="node">
<title>Node4</title>
<g id="a_Node000004"><a xlink:href="classLGE_1_1FileSystemWatcher.html#a581c03ee7cbe92f7ecc14b8f6b9afdf7" target="_top" xlink:title=" ">
<polygon fill="white" stroke="#666666" points="290,-32 163,-32 163,0 290,0 290,-32"/>
<text xml:space="preserve" text-anchor="start" x="171" y="-18.5" font-family="Helvetica,sans-Serif" font-size="10.00">LGE::FileSystemWatcher</text>
<text xml:space="preserve" text-anchor="middle" x="226.5" y="-6.5" font-family="Helvetica,sans-Serif" font-size="10.00">::StopWatching</text>
</a>
</g>
</g>
<!-- Node1&#45;&gt;Node4 -->
<g id="edge3_Node000001_Node000004" class="edge">
<title>Node1&#45;&gt;Node4</title>
<g id="a_edge3_Node000001_Node000004"><a xlink:title=" ">
<path fill="none" stroke="#63b8ff" d="M124.45,-43.62C134.13,-40.97 144.23,-38.21 154.15,-35.5"/>
<polygon fill="#63b8ff" stroke="#63b8ff" points="155.05,-38.88 163.77,-32.87 153.2,-32.13 155.05,-38.88"/>
</a>
</g>
</g>
<!-- Node4&#45;&gt;Node3 -->
<g id="edge4_Node000004_Node000003" class="edge">
<title>Node4&#45;&gt;Node3</title>
<g id="a_edge4_Node000004_Node000003"><a xlink:title=" ">
<path fill="none" stroke="#63b8ff" d="M290.16,-26.03C298.24,-27.33 306.43,-28.64 314.29,-29.9"/>
<polygon fill="#63b8ff" stroke="#63b8ff" points="313.58,-33.33 324.01,-31.46 314.69,-26.42 313.58,-33.33"/>
</a>
</g>
</g>
</g>
</svg>
