<?xml version="1.0" encoding="UTF-8" standalone="no"?>
<!DOCTYPE svg PUBLIC "-//W3C//DTD SVG 1.1//EN"
 "http://www.w3.org/Graphics/SVG/1.1/DTD/svg11.dtd">
<!-- Generated by graphviz version 14.0.2 (20251019.1705)
 -->
<!-- Title: LGE::ImporterRegistry::GetImporterForExtension Pages: 1 -->
<svg width="436pt" height="140pt"
 viewBox="0.00 0.00 436.00 140.00" xmlns="http://www.w3.org/2000/svg" xmlns:xlink="http://www.w3.org/1999/xlink">
<g id="graph0" class="graph" transform="scale(1 1) rotate(0) translate(4 136)">
<title>LGE::ImporterRegistry::GetImporterForExtension</title>
<!-- Node1 -->
<g id="Node000001" class="node">
<title>Node1</title>
<g id="a_Node000001"><a xlink:title=" ">
<polygon fill="#999999" stroke="#666666" points="428.25,-82 296.75,-82 296.75,-50 428.25,-50 428.25,-82"/>
<text xml:space="preserve" text-anchor="start" x="304.75" y="-68.5" font-family="Helvetica,sans-Serif" font-size="10.00">LGE::ImporterRegistry</text>
<text xml:space="preserve" text-anchor="middle" x="362.5" y="-56.5" font-family="Helvetica,sans-Serif" font-size="10.00">::GetImporterForExtension</text>
</a>
</g>
</g>
<!-- Node2 -->
<g id="Node000002" class="node">
<title>Node2</title>
<g id="a_Node000002"><a xlink:href="classLGE_1_1ImporterRegistry.html#a257b599e47f36d4dba7752b72f128c30" target="_top" xlink:title=" ">
<polygon fill="white" stroke="#666666" points="260.75,-82 146.5,-82 146.5,-50 260.75,-50 260.75,-82"/>
<text xml:space="preserve" text-anchor="start" x="154.5" y="-68.5" font-family="Helvetica,sans-Serif" font-size="10.00">LGE::ImporterRegistry</text>
<text xml:space="preserve" text-anchor="middle" x="203.62" y="-56.5" font-family="Helvetica,sans-Serif" font-size="10.00">::GetImporterForFile</text>
</a>
</g>
</g>
<!-- Node1&#45;&gt;Node2 -->
<g id="edge1_Node000001_Node000002" class="edge">
<title>Node1&#45;&gt;Node2</title>
<g id="a_edge1_Node000001_Node000002"><a xlink:title=" ">
<path fill="none" stroke="#63b8ff" d="M284.92,-66C276.81,-66 268.67,-66 260.85,-66"/>
<polygon fill="#63b8ff" stroke="#63b8ff" points="284.82,-69.5 294.82,-66 284.82,-62.5 284.82,-69.5"/>
</a>
</g>
</g>
<!-- Node3 -->
<g id="Node000003" class="node">
<title>Node3</title>
<g id="a_Node000003"><a xlink:href="namespaceLGE_1_1ImportExport.html#aff295e2bb7b5b1d768b0a567aebdf800" target="_top" xlink:title=" ">
<polygon fill="white" stroke="#666666" points="107.12,-132 3.38,-132 3.38,-100 107.12,-100 107.12,-132"/>
<text xml:space="preserve" text-anchor="start" x="11.38" y="-118.5" font-family="Helvetica,sans-Serif" font-size="10.00">LGE::ImportExport::</text>
<text xml:space="preserve" text-anchor="middle" x="55.25" y="-106.5" font-family="Helvetica,sans-Serif" font-size="10.00">CanImport</text>
</a>
</g>
</g>
<!-- Node2&#45;&gt;Node3 -->
<g id="edge2_Node000002_Node000003" class="edge">
<title>Node2&#45;&gt;Node3</title>
<g id="a_edge2_Node000002_Node000003"><a xlink:title=" ">
<path fill="none" stroke="#63b8ff" d="M143.85,-86.08C130.71,-90.56 116.93,-95.27 104.29,-99.59"/>
<polygon fill="#63b8ff" stroke="#63b8ff" points="144.93,-89.41 153.26,-82.86 142.67,-82.78 144.93,-89.41"/>
</a>
</g>
</g>
<!-- Node4 -->
<g id="Node000004" class="node">
<title>Node4</title>
<g id="a_Node000004"><a xlink:href="classLGE_1_1AssetManager.html#a0aa918f6bcc7fc31eac48828d5b5d18e" target="_top" xlink:title=" ">
<polygon fill="white" stroke="#666666" points="110.5,-82 0,-82 0,-50 110.5,-50 110.5,-82"/>
<text xml:space="preserve" text-anchor="start" x="8" y="-68.5" font-family="Helvetica,sans-Serif" font-size="10.00">LGE::AssetManager::</text>
<text xml:space="preserve" text-anchor="middle" x="55.25" y="-56.5" font-family="Helvetica,sans-Serif" font-size="10.00">ImportFile</text>
</a>
</g>
</g>
<!-- Node2&#45;&gt;Node4 -->
<g id="edge3_Node000002_Node000004" class="edge">
<title>Node2&#45;&gt;Node4</title>
<g id="a_edge3_Node000002_Node000004"><a xlink:title=" ">
<path fill="none" stroke="#63b8ff" d="M134.76,-66C126.72,-66 118.59,-66 110.77,-66"/>
<polygon fill="#63b8ff" stroke="#63b8ff" points="134.52,-69.5 144.52,-66 134.52,-62.5 134.52,-69.5"/>
</a>
</g>
</g>
<!-- Node5 -->
<g id="Node000005" class="node">
<title>Node5</title>
<g id="a_Node000005"><a xlink:href="classLGE_1_1AssetManager.html#a74b13575741ae0db7cec3b1c45e6dcc0" target="_top" xlink:title=" ">
<polygon fill="white" stroke="#666666" points="110.5,-32 0,-32 0,0 110.5,0 110.5,-32"/>
<text xml:space="preserve" text-anchor="start" x="8" y="-18.5" font-family="Helvetica,sans-Serif" font-size="10.00">LGE::AssetManager::</text>
<text xml:space="preserve" text-anchor="middle" x="55.25" y="-6.5" font-family="Helvetica,sans-Serif" font-size="10.00">ReimportAsset</text>
</a>
</g>
</g>
<!-- Node2&#45;&gt;Node5 -->
<g id="edge4_Node000002_Node000005" class="edge">
<title>Node2&#45;&gt;Node5</title>
<g id="a_edge4_Node000002_Node000005"><a xlink:title=" ">
<path fill="none" stroke="#63b8ff" d="M143.85,-45.92C130.71,-41.44 116.93,-36.73 104.29,-32.41"/>
<polygon fill="#63b8ff" stroke="#63b8ff" points="142.67,-49.22 153.26,-49.14 144.93,-42.59 142.67,-49.22"/>
</a>
</g>
</g>
</g>
</svg>
