<?xml version="1.0" encoding="UTF-8" standalone="no"?>
<!DOCTYPE svg PUBLIC "-//W3C//DTD SVG 1.1//EN"
 "http://www.w3.org/Graphics/SVG/1.1/DTD/svg11.dtd">
<!-- Generated by graphviz version 14.0.2 (20251019.1705)
 -->
<!-- Title: LGE::AssetManager::ScanAssets Pages: 1 -->
<svg width="239pt" height="66pt"
 viewBox="0.00 0.00 239.00 66.00" xmlns="http://www.w3.org/2000/svg" xmlns:xlink="http://www.w3.org/1999/xlink">
<g id="graph0" class="graph" transform="scale(1 1) rotate(0) translate(4 62)">
<title>LGE::AssetManager::ScanAssets</title>
<!-- Node1 -->
<g id="Node000001" class="node">
<title>Node1</title>
<g id="a_Node000001"><a xlink:title=" ">
<polygon fill="#999999" stroke="#666666" points="110.5,-45 0,-45 0,-13 110.5,-13 110.5,-45"/>
<text xml:space="preserve" text-anchor="start" x="8" y="-31.5" font-family="Helvetica,sans-Serif" font-size="10.00">LGE::AssetManager::</text>
<text xml:space="preserve" text-anchor="middle" x="55.25" y="-19.5" font-family="Helvetica,sans-Serif" font-size="10.00">ScanAssets</text>
</a>
</g>
</g>
<!-- Node2 -->
<g id="Node000002" class="node">
<title>Node2</title>
<g id="a_Node000002"><a xlink:href="classLGE_1_1Log.html#a53f3f4b8797ffd18145739c9e66d690a" target="_top" xlink:title=" ">
<polygon fill="white" stroke="#666666" points="230.75,-58 146.5,-58 146.5,-38 230.75,-38 230.75,-58"/>
<text xml:space="preserve" text-anchor="middle" x="188.62" y="-44.5" font-family="Helvetica,sans-Serif" font-size="10.00">LGE::Log::Error</text>
</a>
</g>
</g>
<!-- Node1&#45;&gt;Node2 -->
<g id="edge1_Node000001_Node000002" class="edge">
<title>Node1&#45;&gt;Node2</title>
<g id="a_edge1_Node000001_Node000002"><a xlink:title=" ">
<path fill="none" stroke="#63b8ff" d="M110.82,-36.89C118.78,-38.04 126.96,-39.23 134.88,-40.37"/>
<polygon fill="#63b8ff" stroke="#63b8ff" points="134.35,-43.83 144.75,-41.8 135.35,-36.9 134.35,-43.83"/>
</a>
</g>
</g>
<!-- Node3 -->
<g id="Node000003" class="node">
<title>Node3</title>
<g id="a_Node000003"><a xlink:href="classLGE_1_1Log.html#ab0265ee050b8873a2fd31fbdb696ced0" target="_top" xlink:title=" ">
<polygon fill="white" stroke="#666666" points="228.5,-20 148.75,-20 148.75,0 228.5,0 228.5,-20"/>
<text xml:space="preserve" text-anchor="middle" x="188.62" y="-6.5" font-family="Helvetica,sans-Serif" font-size="10.00">LGE::Log::Info</text>
</a>
</g>
</g>
<!-- Node1&#45;&gt;Node3 -->
<g id="edge2_Node000001_Node000003" class="edge">
<title>Node1&#45;&gt;Node3</title>
<g id="a_edge2_Node000001_Node000003"><a xlink:title=" ">
<path fill="none" stroke="#63b8ff" d="M110.82,-21.11C119.65,-19.83 128.75,-18.52 137.46,-17.26"/>
<polygon fill="#63b8ff" stroke="#63b8ff" points="137.74,-20.75 147.14,-15.86 136.74,-13.82 137.74,-20.75"/>
</a>
</g>
</g>
</g>
</svg>
