<?xml version="1.0" encoding="UTF-8" standalone="no"?>
<!DOCTYPE svg PUBLIC "-//W3C//DTD SVG 1.1//EN"
 "http://www.w3.org/Graphics/SVG/1.1/DTD/svg11.dtd">
<!-- Generated by graphviz version 14.0.2 (20251019.1705)
 -->
<!-- Title: ExampleApp::OnUpdate Pages: 1 -->
<svg width="1617pt" height="755pt"
 viewBox="0.00 0.00 1617.00 755.00" xmlns="http://www.w3.org/2000/svg" xmlns:xlink="http://www.w3.org/1999/xlink">
<g id="graph0" class="graph" transform="scale(1 1) rotate(0) translate(4 750.74)">
<title>ExampleApp::OnUpdate</title>
<!-- Node1 -->
<g id="Node000001" class="node">
<title>Node1</title>
<g id="a_Node000001"><a xlink:title=" ">
<polygon fill="#999999" stroke="#666666" points="121.75,-157.74 0,-157.74 0,-137.74 121.75,-137.74 121.75,-157.74"/>
<text xml:space="preserve" text-anchor="middle" x="60.88" y="-144.24" font-family="Helvetica,sans-Serif" font-size="10.00">ExampleApp::OnUpdate</text>
</a>
</g>
</g>
<!-- Node2 -->
<g id="Node000002" class="node">
<title>Node2</title>
<g id="a_Node000002"><a xlink:href="namespaceLGE_1_1Thumbs.html#aff11822502a43d83cc911490abbf316b" target="_top" xlink:title=" ">
<polygon fill="white" stroke="#666666" points="311.75,-163.74 157.75,-163.74 157.75,-131.74 311.75,-131.74 311.75,-163.74"/>
<text xml:space="preserve" text-anchor="start" x="165.75" y="-150.24" font-family="Helvetica,sans-Serif" font-size="10.00">LGE::Thumbs::ProcessPending</text>
<text xml:space="preserve" text-anchor="middle" x="234.75" y="-138.24" font-family="Helvetica,sans-Serif" font-size="10.00">Builds</text>
</a>
</g>
</g>
<!-- Node1&#45;&gt;Node2 -->
<g id="edge1_Node000001_Node000002" class="edge">
<title>Node1&#45;&gt;Node2</title>
<g id="a_edge1_Node000001_Node000002"><a xlink:title=" ">
<path fill="none" stroke="#63b8ff" d="M121.99,-147.74C129.75,-147.74 137.83,-147.74 145.92,-147.74"/>
<polygon fill="#63b8ff" stroke="#63b8ff" points="145.84,-151.24 155.84,-147.74 145.84,-144.24 145.84,-151.24"/>
</a>
</g>
</g>
<!-- Node27 -->
<g id="Node000027" class="node">
<title>Node27</title>
<g id="a_Node000027"><a xlink:href="namespaceLGE_1_1EditorBus.html#a5bfb00ceb7f6c52c8051a62581c8dc3e" target="_top" xlink:title=" ">
<polygon fill="white" stroke="#666666" points="1320.88,-24.74 1205.12,-24.74 1205.12,-4.74 1320.88,-4.74 1320.88,-24.74"/>
<text xml:space="preserve" text-anchor="middle" x="1263" y="-11.24" font-family="Helvetica,sans-Serif" font-size="10.00">LGE::EditorBus::Pump</text>
</a>
</g>
</g>
<!-- Node1&#45;&gt;Node27 -->
<g id="edge47_Node000001_Node000027" class="edge">
<title>Node1&#45;&gt;Node27</title>
<g id="a_edge47_Node000001_Node000027"><a xlink:title=" ">
<path fill="none" stroke="#63b8ff" d="M76.51,-137.31C121.95,-105.95 265.61,-14.74 399,-14.74 399,-14.74 399,-14.74 925.62,-14.74 1018.37,-14.74 1125.5,-14.74 1193.47,-14.74"/>
<polygon fill="#63b8ff" stroke="#63b8ff" points="1193.35,-18.24 1203.35,-14.74 1193.35,-11.24 1193.35,-18.24"/>
</a>
</g>
</g>
<!-- Node28 -->
<g id="Node000028" class="node">
<title>Node28</title>
<g id="a_Node000028"><a xlink:href="namespaceLGE_1_1FSWatch.html#ad9cad2b4dce2fbcee3bd83e0f1aefc3c" target="_top" xlink:title=" ">
<polygon fill="white" stroke="#666666" points="1160.5,-328.74 1047,-328.74 1047,-308.74 1160.5,-308.74 1160.5,-328.74"/>
<text xml:space="preserve" text-anchor="middle" x="1103.75" y="-315.24" font-family="Helvetica,sans-Serif" font-size="10.00">LGE::FSWatch::Pump</text>
</a>
</g>
</g>
<!-- Node1&#45;&gt;Node28 -->
<g id="edge49_Node000001_Node000028" class="edge">
<title>Node1&#45;&gt;Node28</title>
<g id="a_edge49_Node000001_Node000028"><a xlink:title=" ">
<path fill="none" stroke="#63b8ff" d="M76.51,-158.18C121.95,-189.53 265.61,-280.74 399,-280.74 399,-280.74 399,-280.74 727.75,-280.74 851.93,-280.74 883.4,-283.47 1006.5,-299.74 1018.91,-301.39 1032.13,-303.65 1044.67,-306.05"/>
<polygon fill="#63b8ff" stroke="#63b8ff" points="1043.98,-309.48 1054.47,-307.98 1045.33,-302.61 1043.98,-309.48"/>
</a>
</g>
</g>
<!-- Node3 -->
<g id="Node000003" class="node">
<title>Node3</title>
<g id="a_Node000003"><a xlink:href="namespaceLGE_1_1Thumbs.html#a20e7c9fbfb16b84f63099872c64f241d" target="_top" xlink:title=" ">
<polygon fill="white" stroke="#666666" points="452.25,-252.74 347.75,-252.74 347.75,-232.74 452.25,-232.74 452.25,-252.74"/>
<text xml:space="preserve" text-anchor="middle" x="400" y="-239.24" font-family="Helvetica,sans-Serif" font-size="10.00">LGE::Thumbs::Build</text>
</a>
</g>
</g>
<!-- Node2&#45;&gt;Node3 -->
<g id="edge2_Node000002_Node000003" class="edge">
<title>Node2&#45;&gt;Node3</title>
<g id="a_edge2_Node000002_Node000003"><a xlink:title=" ">
<path fill="none" stroke="#63b8ff" d="M263.81,-164.08C293.99,-181.63 341.64,-209.37 371.57,-226.78"/>
<polygon fill="#63b8ff" stroke="#63b8ff" points="369.64,-229.71 380.05,-231.72 373.17,-223.66 369.64,-229.71"/>
</a>
</g>
</g>
<!-- Node26 -->
<g id="Node000026" class="node">
<title>Node26</title>
<g id="a_Node000026"><a xlink:href="namespaceLGE_1_1ThreadPool.html#a021546e8addfc60c039b0019c00a8b7a" target="_top" xlink:title=" ">
<polygon fill="white" stroke="#666666" points="1488.75,-62.74 1361,-62.74 1361,-42.74 1488.75,-42.74 1488.75,-62.74"/>
<text xml:space="preserve" text-anchor="middle" x="1424.88" y="-49.24" font-family="Helvetica,sans-Serif" font-size="10.00">LGE::ThreadPool::Submit</text>
</a>
</g>
</g>
<!-- Node2&#45;&gt;Node26 -->
<g id="edge45_Node000002_Node000026" class="edge">
<title>Node2&#45;&gt;Node26</title>
<g id="a_edge45_Node000002_Node000026"><a xlink:title=" ">
<path fill="none" stroke="#63b8ff" d="M267.2,-131.41C322.52,-104.25 441.53,-52.74 548.5,-52.74 548.5,-52.74 548.5,-52.74 1104.75,-52.74 1188.51,-52.74 1284.63,-52.74 1349.3,-52.74"/>
<polygon fill="#63b8ff" stroke="#63b8ff" points="1349.09,-56.24 1359.09,-52.74 1349.09,-49.24 1349.09,-56.24"/>
</a>
</g>
</g>
<!-- Node4 -->
<g id="Node000004" class="node">
<title>Node4</title>
<g id="a_Node000004"><a xlink:href="namespaceLGE_1_1LxFile.html#ab62abe452536badcfc9ab15647d6df2b" target="_top" xlink:title=" ">
<polygon fill="white" stroke="#666666" points="973.12,-138.74 876.12,-138.74 876.12,-118.74 973.12,-118.74 973.12,-138.74"/>
<text xml:space="preserve" text-anchor="middle" x="924.62" y="-125.24" font-family="Helvetica,sans-Serif" font-size="10.00">LGE::LxFile::Copy</text>
</a>
</g>
</g>
<!-- Node3&#45;&gt;Node4 -->
<g id="edge3_Node000003_Node000004" class="edge">
<title>Node3&#45;&gt;Node4</title>
<g id="a_edge3_Node000003_Node000004"><a xlink:title=" ">
<path fill="none" stroke="#63b8ff" d="M407.12,-232.55C419.54,-212.92 449.84,-170.27 488.25,-152.74 612.5,-96.06 777.83,-107.35 864.65,-118.96"/>
<polygon fill="#63b8ff" stroke="#63b8ff" points="863.97,-122.4 874.36,-120.31 864.94,-115.46 863.97,-122.4"/>
</a>
</g>
</g>
<!-- Node5 -->
<g id="Node000005" class="node">
<title>Node5</title>
<g id="a_Node000005"><a xlink:href="classLGE_1_1Log.html#a53f3f4b8797ffd18145739c9e66d690a" target="_top" xlink:title=" ">
<polygon fill="white" stroke="#666666" points="1609,-271.74 1524.75,-271.74 1524.75,-251.74 1609,-251.74 1609,-271.74"/>
<text xml:space="preserve" text-anchor="middle" x="1566.88" y="-258.24" font-family="Helvetica,sans-Serif" font-size="10.00">LGE::Log::Error</text>
</a>
</g>
</g>
<!-- Node3&#45;&gt;Node5 -->
<g id="edge13_Node000003_Node000005" class="edge">
<title>Node3&#45;&gt;Node5</title>
<g id="a_edge13_Node000003_Node000005"><a xlink:title=" ">
<path fill="none" stroke="#63b8ff" d="M404.47,-232.43C413.58,-207.11 440.84,-141.93 488.25,-113.74 579.41,-59.56 619.7,-90.74 725.75,-90.74 725.75,-90.74 725.75,-90.74 1264,-90.74 1371.44,-90.74 1399.87,-119.39 1488.75,-179.74 1514.12,-196.98 1537.37,-223.9 1551.57,-242.15"/>
<polygon fill="#63b8ff" stroke="#63b8ff" points="1548.74,-244.21 1557.56,-250.08 1554.32,-239.99 1548.74,-244.21"/>
</a>
</g>
</g>
<!-- Node9 -->
<g id="Node000009" class="node">
<title>Node9</title>
<g id="a_Node000009"><a xlink:href="namespaceLGE_1_1LxFile.html#a7a3f0b3462a34877039001eb0aaac788" target="_top" xlink:title=" ">
<polygon fill="white" stroke="#666666" points="996,-214.74 853.25,-214.74 853.25,-194.74 996,-194.74 996,-214.74"/>
<text xml:space="preserve" text-anchor="middle" x="924.62" y="-201.24" font-family="Helvetica,sans-Serif" font-size="10.00">LGE::LxFile::CreateDirectory</text>
</a>
</g>
</g>
<!-- Node3&#45;&gt;Node9 -->
<g id="edge10_Node000003_Node000009" class="edge">
<title>Node3&#45;&gt;Node9</title>
<g id="a_edge10_Node000003_Node000009"><a xlink:title=" ">
<path fill="none" stroke="#63b8ff" d="M442.02,-232.3C456.53,-229.01 473.03,-225.72 488.25,-223.74 610.5,-207.88 753.5,-204.52 841.31,-204.16"/>
<polygon fill="#63b8ff" stroke="#63b8ff" points="841.3,-207.66 851.29,-204.14 841.28,-200.66 841.3,-207.66"/>
</a>
</g>
</g>
<!-- Node10 -->
<g id="Node000010" class="node">
<title>Node10</title>
<g id="a_Node000010"><a xlink:href="namespaceLGE_1_1LxFile.html#a11e62876b312a11b881b484bb3a5ee71" target="_top" xlink:title=" ">
<polygon fill="white" stroke="#666666" points="777.5,-708.74 676,-708.74 676,-688.74 777.5,-688.74 777.5,-708.74"/>
<text xml:space="preserve" text-anchor="middle" x="726.75" y="-695.24" font-family="Helvetica,sans-Serif" font-size="10.00">LGE::LxFile::Exists</text>
</a>
</g>
</g>
<!-- Node3&#45;&gt;Node10 -->
<g id="edge14_Node000003_Node000010" class="edge">
<title>Node3&#45;&gt;Node10</title>
<g id="a_edge14_Node000003_Node000010"><a xlink:title=" ">
<path fill="none" stroke="#63b8ff" d="M402.26,-252.98C408.79,-304.42 440.34,-534.33 488.25,-584.74 527.52,-626.07 564.79,-589.02 610.75,-622.74 633.41,-639.37 624.04,-658.18 646.75,-674.74 652.37,-678.85 658.71,-682.26 665.28,-685.09"/>
<polygon fill="#63b8ff" stroke="#63b8ff" points="663.73,-688.24 674.32,-688.54 666.22,-681.7 663.73,-688.24"/>
</a>
</g>
</g>
<!-- Node11 -->
<g id="Node000011" class="node">
<title>Node11</title>
<g id="a_Node000011"><a xlink:href="namespaceLGE_1_1LxPath.html#aefae4d45f84718077f5218f64d2f074c" target="_top" xlink:title=" ">
<polygon fill="white" stroke="#666666" points="1165,-176.74 1042.5,-176.74 1042.5,-156.74 1165,-156.74 1165,-176.74"/>
<text xml:space="preserve" text-anchor="middle" x="1103.75" y="-163.24" font-family="Helvetica,sans-Serif" font-size="10.00">LGE::LxPath::GetParent</text>
</a>
</g>
</g>
<!-- Node3&#45;&gt;Node11 -->
<g id="edge15_Node000003_Node000011" class="edge">
<title>Node3&#45;&gt;Node11</title>
<g id="a_edge15_Node000003_Node000011"><a xlink:title=" ">
<path fill="none" stroke="#63b8ff" d="M421.56,-232.34C438.87,-224.12 464.54,-213.15 488.25,-207.74 680.7,-163.89 915.13,-161.96 1030.93,-164.3"/>
<polygon fill="#63b8ff" stroke="#63b8ff" points="1030.5,-167.79 1040.58,-164.51 1030.66,-160.79 1030.5,-167.79"/>
</a>
</g>
</g>
<!-- Node12 -->
<g id="Node000012" class="node">
<title>Node12</title>
<g id="a_Node000012"><a xlink:href="classLGE_1_1Log.html#ab0265ee050b8873a2fd31fbdb696ced0" target="_top" xlink:title=" ">
<polygon fill="white" stroke="#666666" points="964.5,-480.74 884.75,-480.74 884.75,-460.74 964.5,-460.74 964.5,-480.74"/>
<text xml:space="preserve" text-anchor="middle" x="924.62" y="-467.24" font-family="Helvetica,sans-Serif" font-size="10.00">LGE::Log::Info</text>
</a>
</g>
</g>
<!-- Node3&#45;&gt;Node12 -->
<g id="edge17_Node000003_Node000012" class="edge">
<title>Node3&#45;&gt;Node12</title>
<g id="a_edge17_Node000003_Node000012"><a xlink:title=" ">
<path fill="none" stroke="#63b8ff" d="M408.92,-253.12C436.78,-288.7 534.7,-406.13 646.75,-451.74 721.06,-482 815.85,-480.93 873.04,-476.49"/>
<polygon fill="#63b8ff" stroke="#63b8ff" points="873.12,-480 882.79,-475.66 872.53,-473.02 873.12,-480"/>
</a>
</g>
</g>
<!-- Node13 -->
<g id="Node000013" class="node">
<title>Node13</title>
<g id="a_Node000013"><a xlink:href="namespaceLGE_1_1MetaDB.html#a9f494f7c23ef0715fa5881a46b93c940" target="_top" xlink:title=" ">
<polygon fill="white" stroke="#666666" points="601.75,-575.74 497.25,-575.74 497.25,-555.74 601.75,-555.74 601.75,-575.74"/>
<text xml:space="preserve" text-anchor="middle" x="549.5" y="-562.24" font-family="Helvetica,sans-Serif" font-size="10.00">LGE::MetaDB::Load</text>
</a>
</g>
</g>
<!-- Node3&#45;&gt;Node13 -->
<g id="edge18_Node000003_Node000013" class="edge">
<title>Node3&#45;&gt;Node13</title>
<g id="a_edge18_Node000003_Node000013"><a xlink:title=" ">
<path fill="none" stroke="#63b8ff" d="M403.5,-252.87C412.16,-286.96 442.82,-400.15 488.25,-484.74 500.47,-507.51 518.59,-530.91 531.77,-546.67"/>
<polygon fill="#63b8ff" stroke="#63b8ff" points="529.1,-548.94 538.26,-554.27 534.43,-544.39 529.1,-548.94"/>
</a>
</g>
</g>
<!-- Node22 -->
<g id="Node000022" class="node">
<title>Node22</title>
<g id="a_Node000022"><a xlink:href="classLGE_1_1Log.html#aa6f98018af29c23dd7f574d3df5dda5e" target="_top" xlink:title=" ">
<polygon fill="white" stroke="#666666" points="769.62,-746.74 683.88,-746.74 683.88,-726.74 769.62,-726.74 769.62,-746.74"/>
<text xml:space="preserve" text-anchor="middle" x="726.75" y="-733.24" font-family="Helvetica,sans-Serif" font-size="10.00">LGE::Log::Warn</text>
</a>
</g>
</g>
<!-- Node3&#45;&gt;Node22 -->
<g id="edge44_Node000003_Node000022" class="edge">
<title>Node3&#45;&gt;Node22</title>
<g id="a_edge44_Node000003_Node000022"><a xlink:title=" ">
<path fill="none" stroke="#63b8ff" d="M401.82,-253.19C406.57,-311.51 432.43,-596.55 488.25,-660.74 534.39,-713.82 617.61,-730.14 672.26,-734.98"/>
<polygon fill="#63b8ff" stroke="#63b8ff" points="671.72,-738.45 681.96,-735.73 672.26,-731.47 671.72,-738.45"/>
</a>
</g>
</g>
<!-- Node23 -->
<g id="Node000023" class="node">
<title>Node23</title>
<g id="a_Node000023"><a xlink:href="namespaceLGE_1_1Thumbs.html#af6d6795b0cb72f1c01c05f781bd1f581" target="_top" xlink:title=" ">
<polygon fill="white" stroke="#666666" points="601,-252.74 498,-252.74 498,-232.74 601,-232.74 601,-252.74"/>
<text xml:space="preserve" text-anchor="middle" x="549.5" y="-239.24" font-family="Helvetica,sans-Serif" font-size="10.00">LGE::Thumbs::Path</text>
</a>
</g>
</g>
<!-- Node3&#45;&gt;Node23 -->
<g id="edge40_Node000003_Node000023" class="edge">
<title>Node3&#45;&gt;Node23</title>
<g id="a_edge40_Node000003_Node000023"><a xlink:title=" ">
<path fill="none" stroke="#63b8ff" d="M452.59,-242.74C463.44,-242.74 475,-242.74 486.19,-242.74"/>
<polygon fill="#63b8ff" stroke="#63b8ff" points="486.17,-246.24 496.17,-242.74 486.17,-239.24 486.17,-246.24"/>
</a>
</g>
</g>
<!-- Node25 -->
<g id="Node000025" class="node">
<title>Node25</title>
<g id="a_Node000025"><a xlink:href="namespaceLGE_1_1EditorBus.html#afb16024ff4209b3205a89d71e61cadca" target="_top" xlink:title=" ">
<polygon fill="white" stroke="#666666" points="610.75,-651.74 488.25,-651.74 488.25,-631.74 610.75,-631.74 610.75,-651.74"/>
<text xml:space="preserve" text-anchor="middle" x="549.5" y="-638.24" font-family="Helvetica,sans-Serif" font-size="10.00">LGE::EditorBus::Publish</text>
</a>
</g>
</g>
<!-- Node3&#45;&gt;Node25 -->
<g id="edge43_Node000003_Node000025" class="edge">
<title>Node3&#45;&gt;Node25</title>
<g id="a_edge43_Node000003_Node000025"><a xlink:title=" ">
<path fill="none" stroke="#63b8ff" d="M402.12,-253.15C408.17,-307.65 438.57,-559.96 488.25,-617.74 490.82,-620.74 493.82,-623.36 497.08,-625.66"/>
<polygon fill="#63b8ff" stroke="#63b8ff" points="495.11,-628.56 505.51,-630.56 498.62,-622.51 495.11,-628.56"/>
</a>
</g>
</g>
<!-- Node4&#45;&gt;Node5 -->
<g id="edge4_Node000004_Node000005" class="edge">
<title>Node4&#45;&gt;Node5</title>
<g id="a_edge4_Node000004_Node000005"><a xlink:title=" ">
<path fill="none" stroke="#63b8ff" d="M973.56,-130.42C1022.07,-132.61 1099.1,-137.45 1165,-147.74 1311.03,-170.55 1349.62,-173.87 1488.75,-223.74 1505.6,-229.78 1523.58,-238.5 1537.94,-246.06"/>
<polygon fill="#63b8ff" stroke="#63b8ff" points="1535.89,-248.94 1546.36,-250.59 1539.21,-242.77 1535.89,-248.94"/>
</a>
</g>
</g>
<!-- Node6 -->
<g id="Node000006" class="node">
<title>Node6</title>
<g id="a_Node000006"><a xlink:href="namespaceLGE_1_1VFS.html#abb5d35abfe80efe2f7a07394ad5b706a" target="_top" xlink:title=" ">
<polygon fill="white" stroke="#666666" points="1163.12,-290.74 1044.38,-290.74 1044.38,-270.74 1163.12,-270.74 1163.12,-290.74"/>
<text xml:space="preserve" text-anchor="middle" x="1103.75" y="-277.24" font-family="Helvetica,sans-Serif" font-size="10.00">LGE::VFS::IsReadOnly</text>
</a>
</g>
</g>
<!-- Node4&#45;&gt;Node6 -->
<g id="edge5_Node000004_Node000006" class="edge">
<title>Node4&#45;&gt;Node6</title>
<g id="a_edge5_Node000004_Node000006"><a xlink:title=" ">
<path fill="none" stroke="#63b8ff" d="M946.15,-139.24C963.99,-149.2 989.58,-165.64 1006.5,-185.74 1030.57,-214.34 1014.33,-237.19 1042.5,-261.74 1043.74,-262.83 1045.04,-263.85 1046.39,-264.81"/>
<polygon fill="#63b8ff" stroke="#63b8ff" points="1044.21,-267.58 1054.61,-269.59 1047.73,-261.53 1044.21,-267.58"/>
</a>
</g>
</g>
<!-- Node7 -->
<g id="Node000007" class="node">
<title>Node7</title>
<g id="a_Node000007"><a xlink:href="namespaceLGE_1_1LxPath.html#ab664986e94ce09aa029f9eb2fcf50133" target="_top" xlink:title=" ">
<polygon fill="white" stroke="#666666" points="1325,-328.74 1201,-328.74 1201,-308.74 1325,-308.74 1325,-328.74"/>
<text xml:space="preserve" text-anchor="middle" x="1263" y="-315.24" font-family="Helvetica,sans-Serif" font-size="10.00">LGE::LxPath::IsSubPath</text>
</a>
</g>
</g>
<!-- Node6&#45;&gt;Node7 -->
<g id="edge6_Node000006_Node000007" class="edge">
<title>Node6&#45;&gt;Node7</title>
<g id="a_edge6_Node000006_Node000007"><a xlink:title=" ">
<path fill="none" stroke="#63b8ff" d="M1148.14,-291.23C1166.53,-295.67 1188.16,-300.9 1207.6,-305.6"/>
<polygon fill="#63b8ff" stroke="#63b8ff" points="1206.74,-308.99 1217.28,-307.94 1208.39,-302.19 1206.74,-308.99"/>
</a>
</g>
</g>
<!-- Node8 -->
<g id="Node000008" class="node">
<title>Node8</title>
<g id="a_Node000008"><a xlink:href="namespaceLGE_1_1LxPath.html#a314a60ce690c90f4ee0b4e64c0199408" target="_top" xlink:title=" ">
<polygon fill="white" stroke="#666666" points="1486.12,-271.74 1363.62,-271.74 1363.62,-251.74 1486.12,-251.74 1486.12,-271.74"/>
<text xml:space="preserve" text-anchor="middle" x="1424.88" y="-258.24" font-family="Helvetica,sans-Serif" font-size="10.00">LGE::LxPath::Normalize</text>
</a>
</g>
</g>
<!-- Node6&#45;&gt;Node8 -->
<g id="edge9_Node000006_Node000008" class="edge">
<title>Node6&#45;&gt;Node8</title>
<g id="a_edge9_Node000006_Node000008"><a xlink:title=" ">
<path fill="none" stroke="#63b8ff" d="M1163.28,-277.26C1216.39,-274.1 1294.88,-269.42 1351.82,-266.03"/>
<polygon fill="#63b8ff" stroke="#63b8ff" points="1351.99,-269.53 1361.76,-265.44 1351.57,-262.54 1351.99,-269.53"/>
</a>
</g>
</g>
<!-- Node7&#45;&gt;Node8 -->
<g id="edge7_Node000007_Node000008" class="edge">
<title>Node7&#45;&gt;Node8</title>
<g id="a_edge7_Node000007_Node000008"><a xlink:title=" ">
<path fill="none" stroke="#63b8ff" d="M1293.32,-308.29C1318.71,-299.24 1355.67,-286.06 1383.78,-276.04"/>
<polygon fill="#63b8ff" stroke="#63b8ff" points="1384.8,-279.39 1393.04,-272.74 1382.45,-272.8 1384.8,-279.39"/>
</a>
</g>
</g>
<!-- Node8&#45;&gt;Node5 -->
<g id="edge8_Node000008_Node000005" class="edge">
<title>Node8&#45;&gt;Node5</title>
<g id="a_edge8_Node000008_Node000005"><a xlink:title=" ">
<path fill="none" stroke="#63b8ff" d="M1486.47,-261.74C1495.41,-261.74 1504.56,-261.74 1513.32,-261.74"/>
<polygon fill="#63b8ff" stroke="#63b8ff" points="1513.04,-265.24 1523.04,-261.74 1513.04,-258.24 1513.04,-265.24"/>
</a>
</g>
</g>
<!-- Node9&#45;&gt;Node5 -->
<g id="edge11_Node000009_Node000005" class="edge">
<title>Node9&#45;&gt;Node5</title>
<g id="a_edge11_Node000009_Node000005"><a xlink:title=" ">
<path fill="none" stroke="#63b8ff" d="M996.29,-205.57C1103.41,-207.72 1313.02,-215.38 1488.75,-242.74 1498.35,-244.24 1508.5,-246.35 1518.18,-248.62"/>
<polygon fill="#63b8ff" stroke="#63b8ff" points="1517.25,-252 1527.79,-250.98 1518.92,-245.2 1517.25,-252"/>
</a>
</g>
</g>
<!-- Node9&#45;&gt;Node6 -->
<g id="edge12_Node000009_Node000006" class="edge">
<title>Node9&#45;&gt;Node6</title>
<g id="a_edge12_Node000009_Node000006"><a xlink:title=" ">
<path fill="none" stroke="#63b8ff" d="M944.67,-215.12C967.48,-227.29 1007.06,-247.61 1042.5,-261.74 1046.8,-263.46 1051.32,-265.12 1055.86,-266.71"/>
<polygon fill="#63b8ff" stroke="#63b8ff" points="1054.41,-269.92 1065.01,-269.77 1056.64,-263.28 1054.41,-269.92"/>
</a>
</g>
</g>
<!-- Node11&#45;&gt;Node8 -->
<g id="edge16_Node000011_Node000008" class="edge">
<title>Node11&#45;&gt;Node8</title>
<g id="a_edge16_Node000011_Node000008"><a xlink:title=" ">
<path fill="none" stroke="#63b8ff" d="M1139.81,-177.18C1197.7,-194.42 1313.26,-228.82 1377.72,-248"/>
<polygon fill="#63b8ff" stroke="#63b8ff" points="1376.72,-251.36 1387.3,-250.86 1378.72,-244.65 1376.72,-251.36"/>
</a>
</g>
</g>
<!-- Node13&#45;&gt;Node5 -->
<g id="edge19_Node000013_Node000005" class="edge">
<title>Node13&#45;&gt;Node5</title>
<g id="a_edge19_Node000013_Node000005"><a xlink:title=" ">
<path fill="none" stroke="#63b8ff" d="M592.27,-576.21C613.17,-581.36 636.22,-586.85 646.75,-588.74 768.76,-610.74 799.65,-622.74 923.62,-622.74 923.62,-622.74 923.62,-622.74 1264,-622.74 1383.6,-622.74 1414.67,-568.64 1488.75,-474.74 1535.67,-415.27 1555.65,-324.71 1562.66,-283.51"/>
<polygon fill="#63b8ff" stroke="#63b8ff" points="1566.11,-284.11 1564.23,-273.68 1559.2,-283.01 1566.11,-284.11"/>
</a>
</g>
</g>
<!-- Node13&#45;&gt;Node10 -->
<g id="edge20_Node000013_Node000010" class="edge">
<title>Node13&#45;&gt;Node10</title>
<g id="a_edge20_Node000013_Node000010"><a xlink:title=" ">
<path fill="none" stroke="#63b8ff" d="M589.84,-576.19C597.45,-579.57 604.88,-584 610.75,-589.74 640.07,-618.44 616.25,-647.31 646.75,-674.74 652.07,-679.53 658.31,-683.35 664.91,-686.42"/>
<polygon fill="#63b8ff" stroke="#63b8ff" points="663.52,-689.64 674.11,-690.08 666.11,-683.13 663.52,-689.64"/>
</a>
</g>
</g>
<!-- Node14 -->
<g id="Node000014" class="node">
<title>Node14</title>
<g id="a_Node000014"><a xlink:href="namespaceLGE_1_1MetaDB.html#ac399a4083a7e189046618cbf3142dbbe" target="_top" xlink:title=" ">
<polygon fill="white" stroke="#666666" points="994.5,-328.74 854.75,-328.74 854.75,-308.74 994.5,-308.74 994.5,-328.74"/>
<text xml:space="preserve" text-anchor="middle" x="924.62" y="-315.24" font-family="Helvetica,sans-Serif" font-size="10.00">LGE::MetaDB::MetaPathFor</text>
</a>
</g>
</g>
<!-- Node13&#45;&gt;Node14 -->
<g id="edge21_Node000013_Node000014" class="edge">
<title>Node13&#45;&gt;Node14</title>
<g id="a_edge21_Node000013_Node000014"><a xlink:title=" ">
<path fill="none" stroke="#63b8ff" d="M554.39,-555.29C565.01,-528.13 597.05,-454.61 646.75,-413.74 703.17,-367.36 783.52,-343.11 843.14,-330.77"/>
<polygon fill="#63b8ff" stroke="#63b8ff" points="843.79,-334.21 852.91,-328.82 842.42,-327.34 843.79,-334.21"/>
</a>
</g>
</g>
<!-- Node15 -->
<g id="Node000015" class="node">
<title>Node15</title>
<g id="a_Node000015"><a xlink:href="namespaceLGE_1_1Migration.html#a47ee5b06f8c57da1952156f69f9582b7" target="_top" xlink:title=" ">
<polygon fill="white" stroke="#666666" points="806.75,-556.74 646.75,-556.74 646.75,-536.74 806.75,-536.74 806.75,-556.74"/>
<text xml:space="preserve" text-anchor="middle" x="726.75" y="-543.24" font-family="Helvetica,sans-Serif" font-size="10.00">LGE::Migration::MigrateMetadata</text>
</a>
</g>
</g>
<!-- Node13&#45;&gt;Node15 -->
<g id="edge22_Node000013_Node000015" class="edge">
<title>Node13&#45;&gt;Node15</title>
<g id="a_edge22_Node000013_Node000015"><a xlink:title=" ">
<path fill="none" stroke="#63b8ff" d="M602.13,-560.15C612.58,-559.01 623.86,-557.79 635.2,-556.56"/>
<polygon fill="#63b8ff" stroke="#63b8ff" points="635.47,-560.05 645.03,-555.5 634.71,-553.09 635.47,-560.05"/>
</a>
</g>
</g>
<!-- Node16 -->
<g id="Node000016" class="node">
<title>Node16</title>
<g id="a_Node000016"><a xlink:href="namespaceLGE_1_1Migration.html#ae8f608f31e72e26c06b1eb0f62dedfb1" target="_top" xlink:title=" ">
<polygon fill="white" stroke="#666666" points="1002.38,-594.74 846.88,-594.74 846.88,-574.74 1002.38,-574.74 1002.38,-594.74"/>
<text xml:space="preserve" text-anchor="middle" x="924.62" y="-581.24" font-family="Helvetica,sans-Serif" font-size="10.00">LGE::Migration::NeedsMigration</text>
</a>
</g>
</g>
<!-- Node13&#45;&gt;Node16 -->
<g id="edge27_Node000013_Node000016" class="edge">
<title>Node13&#45;&gt;Node16</title>
<g id="a_edge27_Node000013_Node000016"><a xlink:title=" ">
<path fill="none" stroke="#63b8ff" d="M601.99,-568.37C662.05,-571.42 762.37,-576.53 835.02,-580.23"/>
<polygon fill="#63b8ff" stroke="#63b8ff" points="834.75,-583.72 844.92,-580.74 835.11,-576.73 834.75,-583.72"/>
</a>
</g>
</g>
<!-- Node18 -->
<g id="Node000018" class="node">
<title>Node18</title>
<g id="a_Node000018"><a xlink:href="namespaceLGE_1_1LxFile.html#ac0a61f0e1f49fdcf553f007750c1ba37" target="_top" xlink:title=" ">
<polygon fill="white" stroke="#666666" points="1317.12,-670.74 1208.88,-670.74 1208.88,-650.74 1317.12,-650.74 1317.12,-670.74"/>
<text xml:space="preserve" text-anchor="middle" x="1263" y="-657.24" font-family="Helvetica,sans-Serif" font-size="10.00">LGE::LxFile::ReadAll</text>
</a>
</g>
</g>
<!-- Node13&#45;&gt;Node18 -->
<g id="edge28_Node000013_Node000018" class="edge">
<title>Node13&#45;&gt;Node18</title>
<g id="a_edge28_Node000013_Node000018"><a xlink:title=" ">
<path fill="none" stroke="#63b8ff" d="M602.02,-575.63C605.09,-577.1 608.03,-578.8 610.75,-580.74 634.8,-597.98 621.06,-622.06 646.75,-636.74 739.05,-689.5 1059.35,-674.76 1197.62,-665.57"/>
<polygon fill="#63b8ff" stroke="#63b8ff" points="1197.59,-669.08 1207.33,-664.91 1197.12,-662.09 1197.59,-669.08"/>
</a>
</g>
</g>
<!-- Node19 -->
<g id="Node000019" class="node">
<title>Node19</title>
<g id="a_Node000019"><a xlink:href="namespaceLGE_1_1MetaDB.html#a93501266bbc2bb77874f90247fcc90ba" target="_top" xlink:title=" ">
<polygon fill="white" stroke="#666666" points="779.75,-442.74 673.75,-442.74 673.75,-422.74 779.75,-422.74 779.75,-442.74"/>
<text xml:space="preserve" text-anchor="middle" x="726.75" y="-429.24" font-family="Helvetica,sans-Serif" font-size="10.00">LGE::MetaDB::Save</text>
</a>
</g>
</g>
<!-- Node13&#45;&gt;Node19 -->
<g id="edge30_Node000013_Node000019" class="edge">
<title>Node13&#45;&gt;Node19</title>
<g id="a_edge30_Node000013_Node000019"><a xlink:title=" ">
<path fill="none" stroke="#63b8ff" d="M564.25,-555.31C594.32,-532.49 666.19,-477.95 703.07,-449.96"/>
<polygon fill="#63b8ff" stroke="#63b8ff" points="705.01,-452.88 710.86,-444.05 700.77,-447.3 705.01,-452.88"/>
</a>
</g>
</g>
<!-- Node13&#45;&gt;Node22 -->
<g id="edge39_Node000013_Node000022" class="edge">
<title>Node13&#45;&gt;Node22</title>
<g id="a_edge39_Node000013_Node000022"><a xlink:title=" ">
<path fill="none" stroke="#63b8ff" d="M564.68,-576.08C578.14,-586.54 598.14,-603.81 610.75,-622.74 635.78,-660.32 612.87,-687.89 646.75,-717.74 654.05,-724.18 663.16,-728.53 672.56,-731.44"/>
<polygon fill="#63b8ff" stroke="#63b8ff" points="671.63,-734.82 682.19,-733.88 673.35,-728.03 671.63,-734.82"/>
</a>
</g>
</g>
<!-- Node15&#45;&gt;Node5 -->
<g id="edge23_Node000015_Node000005" class="edge">
<title>Node15&#45;&gt;Node5</title>
<g id="a_edge23_Node000015_Node000005"><a xlink:title=" ">
<path fill="none" stroke="#63b8ff" d="M807.12,-546.74C883.03,-546.74 1000.7,-546.74 1102.75,-546.74 1102.75,-546.74 1102.75,-546.74 1264,-546.74 1418,-546.74 1525.23,-348.2 1556.48,-282.54"/>
<polygon fill="#63b8ff" stroke="#63b8ff" points="1559.59,-284.14 1560.64,-273.6 1553.25,-281.19 1559.59,-284.14"/>
</a>
</g>
</g>
<!-- Node15&#45;&gt;Node12 -->
<g id="edge24_Node000015_Node000012" class="edge">
<title>Node15&#45;&gt;Node12</title>
<g id="a_edge24_Node000015_Node000012"><a xlink:title=" ">
<path fill="none" stroke="#63b8ff" d="M745.51,-536.33C767.63,-523.75 806.9,-502.65 842.75,-489.74 852.52,-486.23 863.18,-483.19 873.47,-480.63"/>
<polygon fill="#63b8ff" stroke="#63b8ff" points="874.03,-484.1 882.96,-478.4 872.42,-477.29 874.03,-484.1"/>
</a>
</g>
</g>
<!-- Node15&#45;&gt;Node16 -->
<g id="edge25_Node000015_Node000016" class="edge">
<title>Node15&#45;&gt;Node16</title>
<g id="a_edge25_Node000015_Node000016"><a xlink:title=" ">
<path fill="none" stroke="#63b8ff" d="M781.79,-557.23C805.56,-561.84 833.67,-567.29 858.57,-572.12"/>
<polygon fill="#63b8ff" stroke="#63b8ff" points="857.79,-575.54 868.27,-574.01 859.12,-568.67 857.79,-575.54"/>
</a>
</g>
</g>
<!-- Node17 -->
<g id="Node000017" class="node">
<title>Node17</title>
<g id="a_Node000017"><a xlink:href="namespaceLGE_1_1MetaDB.html#ad37cdebb704d7ca276bbb10e84d94f1a" target="_top" xlink:title=" ">
<polygon fill="white" stroke="#666666" points="1006.5,-518.74 842.75,-518.74 842.75,-498.74 1006.5,-498.74 1006.5,-518.74"/>
<text xml:space="preserve" text-anchor="middle" x="924.62" y="-505.24" font-family="Helvetica,sans-Serif" font-size="10.00">LGE::MetaDB::UpdateTimestamp</text>
</a>
</g>
</g>
<!-- Node15&#45;&gt;Node17 -->
<g id="edge26_Node000015_Node000017" class="edge">
<title>Node15&#45;&gt;Node17</title>
<g id="a_edge26_Node000015_Node000017"><a xlink:title=" ">
<path fill="none" stroke="#63b8ff" d="M781.79,-536.26C805.56,-531.65 833.67,-526.2 858.57,-521.37"/>
<polygon fill="#63b8ff" stroke="#63b8ff" points="859.12,-524.82 868.27,-519.48 857.79,-517.95 859.12,-524.82"/>
</a>
</g>
</g>
<!-- Node18&#45;&gt;Node5 -->
<g id="edge29_Node000018_Node000005" class="edge">
<title>Node18&#45;&gt;Node5</title>
<g id="a_edge29_Node000018_Node000005"><a xlink:title=" ">
<path fill="none" stroke="#63b8ff" d="M1317.41,-671.21C1367.99,-677.8 1442.85,-678.42 1488.75,-636.74 1541.79,-588.59 1560.19,-355.65 1564.68,-283.26"/>
<polygon fill="#63b8ff" stroke="#63b8ff" points="1568.16,-283.73 1565.25,-273.54 1561.17,-283.32 1568.16,-283.73"/>
</a>
</g>
</g>
<!-- Node19&#45;&gt;Node5 -->
<g id="edge31_Node000019_Node000005" class="edge">
<title>Node19&#45;&gt;Node5</title>
<g id="a_edge31_Node000019_Node000005"><a xlink:title=" ">
<path fill="none" stroke="#63b8ff" d="M780.23,-432.74C852.74,-432.74 987.68,-432.74 1102.75,-432.74 1102.75,-432.74 1102.75,-432.74 1264,-432.74 1386.56,-432.74 1505.01,-324.71 1548.45,-280.38"/>
<polygon fill="#63b8ff" stroke="#63b8ff" points="1550.87,-282.91 1555.29,-273.27 1545.83,-278.05 1550.87,-282.91"/>
</a>
</g>
</g>
<!-- Node19&#45;&gt;Node12 -->
<g id="edge33_Node000019_Node000012" class="edge">
<title>Node19&#45;&gt;Node12</title>
<g id="a_edge33_Node000019_Node000012"><a xlink:title=" ">
<path fill="none" stroke="#63b8ff" d="M780.24,-442.93C809.15,-448.54 844.85,-455.46 873.4,-461"/>
<polygon fill="#63b8ff" stroke="#63b8ff" points="872.39,-464.37 882.87,-462.84 873.72,-457.5 872.39,-464.37"/>
</a>
</g>
</g>
<!-- Node19&#45;&gt;Node14 -->
<g id="edge34_Node000019_Node000014" class="edge">
<title>Node19&#45;&gt;Node14</title>
<g id="a_edge34_Node000019_Node000014"><a xlink:title=" ">
<path fill="none" stroke="#63b8ff" d="M741.71,-422.31C757.7,-410.23 784.55,-389.58 806.75,-370.74 823.3,-356.7 823.56,-347.89 842.75,-337.74 846,-336.03 849.41,-334.46 852.91,-333.04"/>
<polygon fill="#63b8ff" stroke="#63b8ff" points="853.97,-336.37 862.19,-329.68 851.59,-329.79 853.97,-336.37"/>
</a>
</g>
</g>
<!-- Node19&#45;&gt;Node17 -->
<g id="edge35_Node000019_Node000017" class="edge">
<title>Node19&#45;&gt;Node17</title>
<g id="a_edge35_Node000019_Node000017"><a xlink:title=" ">
<path fill="none" stroke="#63b8ff" d="M745.51,-443.16C767.63,-455.74 806.9,-476.84 842.75,-489.74 848.43,-491.79 854.42,-493.67 860.46,-495.4"/>
<polygon fill="#63b8ff" stroke="#63b8ff" points="859.31,-498.71 869.88,-497.93 861.13,-491.95 859.31,-498.71"/>
</a>
</g>
</g>
<!-- Node20 -->
<g id="Node000020" class="node">
<title>Node20</title>
<g id="a_Node000020"><a xlink:href="namespaceLGE_1_1MetaDB.html#aa5218c5875c7c064fac11782f4ca1783" target="_top" xlink:title=" ">
<polygon fill="white" stroke="#666666" points="999,-404.74 850.25,-404.74 850.25,-384.74 999,-384.74 999,-404.74"/>
<text xml:space="preserve" text-anchor="middle" x="924.62" y="-391.24" font-family="Helvetica,sans-Serif" font-size="10.00">LGE::MetaDB::GenerateGUID</text>
</a>
</g>
</g>
<!-- Node19&#45;&gt;Node20 -->
<g id="edge32_Node000019_Node000020" class="edge">
<title>Node19&#45;&gt;Node20</title>
<g id="a_edge32_Node000019_Node000020"><a xlink:title=" ">
<path fill="none" stroke="#63b8ff" d="M780.24,-422.56C804.33,-417.89 833.13,-412.3 858.57,-407.36"/>
<polygon fill="#63b8ff" stroke="#63b8ff" points="858.99,-410.85 868.14,-405.51 857.65,-403.98 858.99,-410.85"/>
</a>
</g>
</g>
<!-- Node21 -->
<g id="Node000021" class="node">
<title>Node21</title>
<g id="a_Node000021"><a xlink:href="namespaceLGE_1_1LxFile.html#a06d0b8c5590da8bc48cf22d321fc4074" target="_top" xlink:title=" ">
<polygon fill="white" stroke="#666666" points="978.38,-366.74 870.88,-366.74 870.88,-346.74 978.38,-346.74 978.38,-366.74"/>
<text xml:space="preserve" text-anchor="middle" x="924.62" y="-353.24" font-family="Helvetica,sans-Serif" font-size="10.00">LGE::LxFile::WriteAll</text>
</a>
</g>
</g>
<!-- Node19&#45;&gt;Node21 -->
<g id="edge36_Node000019_Node000021" class="edge">
<title>Node19&#45;&gt;Node21</title>
<g id="a_edge36_Node000019_Node000021"><a xlink:title=" ">
<path fill="none" stroke="#63b8ff" d="M745.51,-422.33C767.63,-409.75 806.9,-388.65 842.75,-375.74 848.43,-373.7 854.42,-371.81 860.46,-370.09"/>
<polygon fill="#63b8ff" stroke="#63b8ff" points="861.13,-373.54 869.88,-367.56 859.31,-366.78 861.13,-373.54"/>
</a>
</g>
</g>
<!-- Node21&#45;&gt;Node5 -->
<g id="edge37_Node000021_Node000005" class="edge">
<title>Node21&#45;&gt;Node5</title>
<g id="a_edge37_Node000021_Node000005"><a xlink:title=" ">
<path fill="none" stroke="#63b8ff" d="M978.76,-358.54C1055.75,-360.17 1202.51,-359.6 1325,-337.74 1399.73,-324.41 1483.55,-294.35 1529.98,-276.29"/>
<polygon fill="#63b8ff" stroke="#63b8ff" points="1530.97,-279.66 1539,-272.75 1528.41,-273.15 1530.97,-279.66"/>
</a>
</g>
</g>
<!-- Node21&#45;&gt;Node6 -->
<g id="edge38_Node000021_Node000006" class="edge">
<title>Node21&#45;&gt;Node6</title>
<g id="a_edge38_Node000021_Node000006"><a xlink:title=" ">
<path fill="none" stroke="#63b8ff" d="M978.65,-348.96C988.3,-346.26 998,-342.63 1006.5,-337.74 1026.67,-326.15 1022.78,-312.08 1042.5,-299.74 1044.78,-298.32 1047.17,-297 1049.63,-295.76"/>
<polygon fill="#63b8ff" stroke="#63b8ff" points="1050.91,-299.03 1058.67,-291.81 1048.1,-292.61 1050.91,-299.03"/>
</a>
</g>
</g>
<!-- Node24 -->
<g id="Node000024" class="node">
<title>Node24</title>
<g id="a_Node000024"><a xlink:href="namespaceLGE_1_1LxPath.html#a94ec3bdfd6948ddc25cda5d18154d4cf" target="_top" xlink:title=" ">
<polygon fill="white" stroke="#666666" points="1151.88,-252.74 1055.62,-252.74 1055.62,-232.74 1151.88,-232.74 1151.88,-252.74"/>
<text xml:space="preserve" text-anchor="middle" x="1103.75" y="-239.24" font-family="Helvetica,sans-Serif" font-size="10.00">LGE::LxPath::Join</text>
</a>
</g>
</g>
<!-- Node23&#45;&gt;Node24 -->
<g id="edge41_Node000023_Node000024" class="edge">
<title>Node23&#45;&gt;Node24</title>
<g id="a_edge41_Node000023_Node000024"><a xlink:title=" ">
<path fill="none" stroke="#63b8ff" d="M601.46,-242.74C704.13,-242.74 935.29,-242.74 1044.07,-242.74"/>
<polygon fill="#63b8ff" stroke="#63b8ff" points="1043.94,-246.24 1053.94,-242.74 1043.94,-239.24 1043.94,-246.24"/>
</a>
</g>
</g>
<!-- Node24&#45;&gt;Node8 -->
<g id="edge42_Node000024_Node000008" class="edge">
<title>Node24&#45;&gt;Node8</title>
<g id="a_edge42_Node000024_Node000008"><a xlink:title=" ">
<path fill="none" stroke="#63b8ff" d="M1152.18,-245.57C1204.95,-248.71 1290.8,-253.82 1351.87,-257.46"/>
<polygon fill="#63b8ff" stroke="#63b8ff" points="1351.65,-260.95 1361.84,-258.05 1352.07,-253.96 1351.65,-260.95"/>
</a>
</g>
</g>
<!-- Node26&#45;&gt;Node5 -->
<g id="edge46_Node000026_Node000005" class="edge">
<title>Node26&#45;&gt;Node5</title>
<g id="a_edge46_Node000026_Node000005"><a xlink:title=" ">
<path fill="none" stroke="#63b8ff" d="M1467.6,-63.18C1475.31,-66.55 1482.8,-70.97 1488.75,-76.74 1536.1,-122.68 1555.61,-202.03 1562.55,-240.12"/>
<polygon fill="#63b8ff" stroke="#63b8ff" points="1559.08,-240.57 1564.2,-249.85 1565.98,-239.41 1559.08,-240.57"/>
</a>
</g>
</g>
<!-- Node27&#45;&gt;Node5 -->
<g id="edge48_Node000027_Node000005" class="edge">
<title>Node27&#45;&gt;Node5</title>
<g id="a_edge48_Node000027_Node000005"><a xlink:title=" ">
<path fill="none" stroke="#63b8ff" d="M1315.71,-4.26C1365.38,2.69 1439.89,4.53 1488.75,-33.74 1554,-84.86 1564.44,-193.64 1565.83,-240.04"/>
<polygon fill="#63b8ff" stroke="#63b8ff" points="1562.33,-239.92 1566,-249.86 1569.33,-239.8 1562.33,-239.92"/>
</a>
</g>
</g>
<!-- Node28&#45;&gt;Node7 -->
<g id="edge50_Node000028_Node000007" class="edge">
<title>Node28&#45;&gt;Node7</title>
<g id="a_edge50_Node000028_Node000007"><a xlink:title=" ">
<path fill="none" stroke="#63b8ff" d="M1160.63,-318.74C1169.96,-318.74 1179.75,-318.74 1189.43,-318.74"/>
<polygon fill="#63b8ff" stroke="#63b8ff" points="1189.17,-322.24 1199.17,-318.74 1189.17,-315.24 1189.17,-322.24"/>
</a>
</g>
</g>
</g>
</svg>
