<?xml version="1.0" encoding="UTF-8" standalone="no"?>
<!DOCTYPE svg PUBLIC "-//W3C//DTD SVG 1.1//EN"
 "http://www.w3.org/Graphics/SVG/1.1/DTD/svg11.dtd">
<!-- Generated by graphviz version 14.0.2 (20251019.1705)
 -->
<!-- Title: LGE::AssetFactory::CreateFolder Pages: 1 -->
<svg width="401pt" height="154pt"
 viewBox="0.00 0.00 401.00 154.00" xmlns="http://www.w3.org/2000/svg" xmlns:xlink="http://www.w3.org/1999/xlink">
<g id="graph0" class="graph" transform="scale(1 1) rotate(0) translate(4 150)">
<title>LGE::AssetFactory::CreateFolder</title>
<!-- Node1 -->
<g id="Node000001" class="node">
<title>Node1</title>
<g id="a_Node000001"><a xlink:title=" ">
<polygon fill="#999999" stroke="#666666" points="106,-86 0,-86 0,-54 106,-54 106,-86"/>
<text xml:space="preserve" text-anchor="start" x="8" y="-72.5" font-family="Helvetica,sans-Serif" font-size="10.00">LGE::AssetFactory::</text>
<text xml:space="preserve" text-anchor="middle" x="53" y="-60.5" font-family="Helvetica,sans-Serif" font-size="10.00">CreateFolder</text>
</a>
</g>
</g>
<!-- Node2 -->
<g id="Node000002" class="node">
<title>Node2</title>
<g id="a_Node000002"><a xlink:href="classLGE_1_1Log.html#a53f3f4b8797ffd18145739c9e66d690a" target="_top" xlink:title=" ">
<polygon fill="white" stroke="#666666" points="381.38,-146 297.12,-146 297.12,-126 381.38,-126 381.38,-146"/>
<text xml:space="preserve" text-anchor="middle" x="339.25" y="-132.5" font-family="Helvetica,sans-Serif" font-size="10.00">LGE::Log::Error</text>
</a>
</g>
</g>
<!-- Node1&#45;&gt;Node2 -->
<g id="edge1_Node000001_Node000002" class="edge">
<title>Node1&#45;&gt;Node2</title>
<g id="a_edge1_Node000001_Node000002"><a xlink:title=" ">
<path fill="none" stroke="#63b8ff" d="M78.27,-86.34C95.34,-96.97 119.12,-110.08 142,-117 189.12,-131.24 245.23,-135.48 285.36,-136.46"/>
<polygon fill="#63b8ff" stroke="#63b8ff" points="285.18,-139.95 295.24,-136.63 285.3,-132.96 285.18,-139.95"/>
</a>
</g>
</g>
<!-- Node3 -->
<g id="Node000003" class="node">
<title>Node3</title>
<g id="a_Node000003"><a xlink:href="classLGE_1_1Log.html#ab0265ee050b8873a2fd31fbdb696ced0" target="_top" xlink:title=" ">
<polygon fill="white" stroke="#666666" points="379.12,-58 299.38,-58 299.38,-38 379.12,-38 379.12,-58"/>
<text xml:space="preserve" text-anchor="middle" x="339.25" y="-44.5" font-family="Helvetica,sans-Serif" font-size="10.00">LGE::Log::Info</text>
</a>
</g>
</g>
<!-- Node1&#45;&gt;Node3 -->
<g id="edge2_Node000001_Node000003" class="edge">
<title>Node1&#45;&gt;Node3</title>
<g id="a_edge2_Node000001_Node000003"><a xlink:title=" ">
<path fill="none" stroke="#63b8ff" d="M106.47,-65.94C158.11,-61.94 236.44,-55.88 287.49,-51.93"/>
<polygon fill="#63b8ff" stroke="#63b8ff" points="287.68,-55.42 297.38,-51.16 287.14,-48.45 287.68,-55.42"/>
</a>
</g>
</g>
<!-- Node4 -->
<g id="Node000004" class="node">
<title>Node4</title>
<g id="a_Node000004"><a xlink:href="classLGE_1_1AssetMetadata.html#a8a8b6d8fda2392f3a9f5ae9731abf374" target="_top" xlink:title=" ">
<polygon fill="white" stroke="#666666" points="249.5,-108 142,-108 142,-76 249.5,-76 249.5,-108"/>
<text xml:space="preserve" text-anchor="start" x="150" y="-94.5" font-family="Helvetica,sans-Serif" font-size="10.00">LGE::AssetMetadata</text>
<text xml:space="preserve" text-anchor="middle" x="195.75" y="-82.5" font-family="Helvetica,sans-Serif" font-size="10.00">::SaveMetadata</text>
</a>
</g>
</g>
<!-- Node1&#45;&gt;Node4 -->
<g id="edge3_Node000001_Node000004" class="edge">
<title>Node1&#45;&gt;Node4</title>
<g id="a_edge3_Node000001_Node000004"><a xlink:title=" ">
<path fill="none" stroke="#63b8ff" d="M106.41,-78.19C114.27,-79.42 122.46,-80.7 130.53,-81.96"/>
<polygon fill="#63b8ff" stroke="#63b8ff" points="129.91,-85.41 140.33,-83.49 130.99,-78.49 129.91,-85.41"/>
</a>
</g>
</g>
<!-- Node6 -->
<g id="Node000006" class="node">
<title>Node6</title>
<g id="a_Node000006"><a xlink:href="classLGE_1_1Log.html#aa6f98018af29c23dd7f574d3df5dda5e" target="_top" xlink:title=" ">
<polygon fill="white" stroke="#666666" points="238.62,-20 152.88,-20 152.88,0 238.62,0 238.62,-20"/>
<text xml:space="preserve" text-anchor="middle" x="195.75" y="-6.5" font-family="Helvetica,sans-Serif" font-size="10.00">LGE::Log::Warn</text>
</a>
</g>
</g>
<!-- Node1&#45;&gt;Node6 -->
<g id="edge7_Node000001_Node000006" class="edge">
<title>Node1&#45;&gt;Node6</title>
<g id="a_edge7_Node000001_Node000006"><a xlink:title=" ">
<path fill="none" stroke="#63b8ff" d="M92.46,-53.6C113.57,-44.6 139.55,-33.53 160.04,-24.8"/>
<polygon fill="#63b8ff" stroke="#63b8ff" points="161.28,-28.07 169.1,-20.93 158.53,-21.64 161.28,-28.07"/>
</a>
</g>
</g>
<!-- Node4&#45;&gt;Node2 -->
<g id="edge4_Node000004_Node000002" class="edge">
<title>Node4&#45;&gt;Node2</title>
<g id="a_edge4_Node000004_Node000002"><a xlink:title=" ">
<path fill="none" stroke="#63b8ff" d="M249.44,-108.38C264.07,-112.93 279.81,-117.83 293.91,-122.21"/>
<polygon fill="#63b8ff" stroke="#63b8ff" points="292.78,-125.53 303.37,-125.15 294.86,-118.84 292.78,-125.53"/>
</a>
</g>
</g>
<!-- Node4&#45;&gt;Node3 -->
<g id="edge6_Node000004_Node000003" class="edge">
<title>Node4&#45;&gt;Node3</title>
<g id="a_edge6_Node000004_Node000003"><a xlink:title=" ">
<path fill="none" stroke="#63b8ff" d="M249.44,-75.62C264.07,-71.07 279.81,-66.17 293.91,-61.79"/>
<polygon fill="#63b8ff" stroke="#63b8ff" points="294.86,-65.16 303.37,-58.85 292.78,-58.47 294.86,-65.16"/>
</a>
</g>
</g>
<!-- Node5 -->
<g id="Node000005" class="node">
<title>Node5</title>
<g id="a_Node000005"><a xlink:href="classLGE_1_1AssetMetadata.html#a546a8696546f1cbdf15765a424cdc5d5" target="_top" xlink:title=" ">
<polygon fill="white" stroke="#666666" points="393,-108 285.5,-108 285.5,-76 393,-76 393,-108"/>
<text xml:space="preserve" text-anchor="start" x="293.5" y="-94.5" font-family="Helvetica,sans-Serif" font-size="10.00">LGE::AssetMetadata</text>
<text xml:space="preserve" text-anchor="middle" x="339.25" y="-82.5" font-family="Helvetica,sans-Serif" font-size="10.00">::GetMetadataPath</text>
</a>
</g>
</g>
<!-- Node4&#45;&gt;Node5 -->
<g id="edge5_Node000004_Node000005" class="edge">
<title>Node4&#45;&gt;Node5</title>
<g id="a_edge5_Node000004_Node000005"><a xlink:title=" ">
<path fill="none" stroke="#63b8ff" d="M249.84,-92C257.73,-92 265.93,-92 274.02,-92"/>
<polygon fill="#63b8ff" stroke="#63b8ff" points="273.82,-95.5 283.82,-92 273.82,-88.5 273.82,-95.5"/>
</a>
</g>
</g>
</g>
</svg>
