<?xml version="1.0" encoding="UTF-8" standalone="no"?>
<!DOCTYPE svg PUBLIC "-//W3C//DTD SVG 1.1//EN"
 "http://www.w3.org/Graphics/SVG/1.1/DTD/svg11.dtd">
<!-- Generated by graphviz version 14.0.2 (20251019.1705)
 -->
<!-- Title: LGE::Material::SetTexture Pages: 1 -->
<svg width="320pt" height="378pt"
 viewBox="0.00 0.00 320.00 378.00" xmlns="http://www.w3.org/2000/svg" xmlns:xlink="http://www.w3.org/1999/xlink">
<g id="graph0" class="graph" transform="scale(1 1) rotate(0) translate(4 374)">
<title>LGE::Material::SetTexture</title>
<!-- Node1 -->
<g id="Node000001" class="node">
<title>Node1</title>
<g id="a_Node000001"><a xlink:title=" ">
<polygon fill="#999999" stroke="#666666" points="311.75,-201 182.5,-201 182.5,-181 311.75,-181 311.75,-201"/>
<text xml:space="preserve" text-anchor="middle" x="247.12" y="-187.5" font-family="Helvetica,sans-Serif" font-size="10.00">LGE::Material::SetTexture</text>
</a>
</g>
</g>
<!-- Node2 -->
<g id="Node000002" class="node">
<title>Node2</title>
<g id="a_Node000002"><a xlink:href="classLGE_1_1Material.html#a2b83a3543f8f4bd786291ce69655a811" target="_top" xlink:title=" ">
<polygon fill="white" stroke="#666666" points="145,-370 1.5,-370 1.5,-350 145,-350 145,-370"/>
<text xml:space="preserve" text-anchor="middle" x="73.25" y="-356.5" font-family="Helvetica,sans-Serif" font-size="10.00">LGE::Material::SetAOTexture</text>
</a>
</g>
</g>
<!-- Node1&#45;&gt;Node2 -->
<g id="edge1_Node000001_Node000002" class="edge">
<title>Node1&#45;&gt;Node2</title>
<g id="a_edge1_Node000001_Node000002"><a xlink:title=" ">
<path fill="none" stroke="#63b8ff" d="M238.1,-211.79C224.41,-244.44 193.38,-307.47 146.5,-341 141.65,-344.47 136.21,-347.31 130.54,-349.63"/>
<polygon fill="#63b8ff" stroke="#63b8ff" points="241.29,-213.23 241.79,-202.65 234.8,-210.61 241.29,-213.23"/>
</a>
</g>
</g>
<!-- Node3 -->
<g id="Node000003" class="node">
<title>Node3</title>
<g id="a_Node000003"><a xlink:href="classLGE_1_1Material.html#a3c1b8dfc92fade5e27b378f41a9657e3" target="_top" xlink:title=" ">
<polygon fill="white" stroke="#666666" points="144.62,-332 1.88,-332 1.88,-300 144.62,-300 144.62,-332"/>
<text xml:space="preserve" text-anchor="start" x="9.88" y="-318.5" font-family="Helvetica,sans-Serif" font-size="10.00">LGE::Material::SetBaseColor</text>
<text xml:space="preserve" text-anchor="middle" x="73.25" y="-306.5" font-family="Helvetica,sans-Serif" font-size="10.00">Texture</text>
</a>
</g>
</g>
<!-- Node1&#45;&gt;Node3 -->
<g id="edge2_Node000001_Node000003" class="edge">
<title>Node1&#45;&gt;Node3</title>
<g id="a_edge2_Node000001_Node000003"><a xlink:title=" ">
<path fill="none" stroke="#63b8ff" d="M231.58,-210.18C213.76,-232.47 181.58,-268.99 146.5,-291 141.44,-294.17 135.93,-297 130.28,-299.51"/>
<polygon fill="#63b8ff" stroke="#63b8ff" points="234.18,-212.54 237.58,-202.5 228.66,-208.23 234.18,-212.54"/>
</a>
</g>
</g>
<!-- Node4 -->
<g id="Node000004" class="node">
<title>Node4</title>
<g id="a_Node000004"><a xlink:href="classLGE_1_1Material.html#a0b7692624f3f916d4cc12a41412276ec" target="_top" xlink:title=" ">
<polygon fill="white" stroke="#666666" points="142,-282 4.5,-282 4.5,-250 142,-250 142,-282"/>
<text xml:space="preserve" text-anchor="start" x="12.5" y="-268.5" font-family="Helvetica,sans-Serif" font-size="10.00">LGE::Material::SetEmissive</text>
<text xml:space="preserve" text-anchor="middle" x="73.25" y="-256.5" font-family="Helvetica,sans-Serif" font-size="10.00">Texture</text>
</a>
</g>
</g>
<!-- Node1&#45;&gt;Node4 -->
<g id="edge3_Node000001_Node000004" class="edge">
<title>Node1&#45;&gt;Node4</title>
<g id="a_edge3_Node000001_Node000004"><a xlink:title=" ">
<path fill="none" stroke="#63b8ff" d="M217.26,-206.76C197.62,-217.16 170.87,-230.72 146.5,-241 139.41,-243.99 131.82,-246.91 124.32,-249.64"/>
<polygon fill="#63b8ff" stroke="#63b8ff" points="218.88,-209.86 226.04,-202.06 215.57,-203.69 218.88,-209.86"/>
</a>
</g>
</g>
<!-- Node5 -->
<g id="Node000005" class="node">
<title>Node5</title>
<g id="a_Node000005"><a xlink:href="classLGE_1_1Material.html#a2691c3955ef28262ddc2a91b5149e3ab" target="_top" xlink:title=" ">
<polygon fill="white" stroke="#666666" points="136,-232 10.5,-232 10.5,-200 136,-200 136,-232"/>
<text xml:space="preserve" text-anchor="start" x="18.5" y="-218.5" font-family="Helvetica,sans-Serif" font-size="10.00">LGE::Material::SetHeight</text>
<text xml:space="preserve" text-anchor="middle" x="73.25" y="-206.5" font-family="Helvetica,sans-Serif" font-size="10.00">Texture</text>
</a>
</g>
</g>
<!-- Node1&#45;&gt;Node5 -->
<g id="edge4_Node000001_Node000005" class="edge">
<title>Node1&#45;&gt;Node5</title>
<g id="a_edge4_Node000001_Node000005"><a xlink:title=" ">
<path fill="none" stroke="#63b8ff" d="M170.74,-201.97C159.24,-203.64 147.48,-205.35 136.3,-206.97"/>
<polygon fill="#63b8ff" stroke="#63b8ff" points="171.24,-205.43 180.63,-200.53 170.23,-198.5 171.24,-205.43"/>
</a>
</g>
</g>
<!-- Node6 -->
<g id="Node000006" class="node">
<title>Node6</title>
<g id="a_Node000006"><a xlink:href="classLGE_1_1Material.html#ab2e6a84acbdb7cc232fdeda9c39b5ea9" target="_top" xlink:title=" ">
<polygon fill="white" stroke="#666666" points="138.62,-182 7.88,-182 7.88,-150 138.62,-150 138.62,-182"/>
<text xml:space="preserve" text-anchor="start" x="15.88" y="-168.5" font-family="Helvetica,sans-Serif" font-size="10.00">LGE::Material::SetMetallic</text>
<text xml:space="preserve" text-anchor="middle" x="73.25" y="-156.5" font-family="Helvetica,sans-Serif" font-size="10.00">Texture</text>
</a>
</g>
</g>
<!-- Node1&#45;&gt;Node6 -->
<g id="edge5_Node000001_Node000006" class="edge">
<title>Node1&#45;&gt;Node6</title>
<g id="a_edge5_Node000001_Node000006"><a xlink:title=" ">
<path fill="none" stroke="#63b8ff" d="M171.06,-180.08C160.33,-178.52 149.38,-176.93 138.88,-175.4"/>
<polygon fill="#63b8ff" stroke="#63b8ff" points="170.23,-183.5 180.63,-181.47 171.24,-176.57 170.23,-183.5"/>
</a>
</g>
</g>
<!-- Node7 -->
<g id="Node000007" class="node">
<title>Node7</title>
<g id="a_Node000007"><a xlink:href="classLGE_1_1Material.html#a85acd09ef6d09503fbe67aed060bfe94" target="_top" xlink:title=" ">
<polygon fill="white" stroke="#666666" points="137.5,-132 9,-132 9,-100 137.5,-100 137.5,-132"/>
<text xml:space="preserve" text-anchor="start" x="17" y="-118.5" font-family="Helvetica,sans-Serif" font-size="10.00">LGE::Material::SetNormal</text>
<text xml:space="preserve" text-anchor="middle" x="73.25" y="-106.5" font-family="Helvetica,sans-Serif" font-size="10.00">Texture</text>
</a>
</g>
</g>
<!-- Node1&#45;&gt;Node7 -->
<g id="edge6_Node000001_Node000007" class="edge">
<title>Node1&#45;&gt;Node7</title>
<g id="a_edge6_Node000001_Node000007"><a xlink:title=" ">
<path fill="none" stroke="#63b8ff" d="M217.26,-175.24C197.62,-164.84 170.87,-151.28 146.5,-141 139.41,-138.01 131.82,-135.09 124.32,-132.36"/>
<polygon fill="#63b8ff" stroke="#63b8ff" points="215.57,-178.31 226.04,-179.94 218.88,-172.14 215.57,-178.31"/>
</a>
</g>
</g>
<!-- Node8 -->
<g id="Node000008" class="node">
<title>Node8</title>
<g id="a_Node000008"><a xlink:href="classLGE_1_1Material.html#a39dfc4c5d53049dcfe10d53106d23b2c" target="_top" xlink:title=" ">
<polygon fill="white" stroke="#666666" points="138.62,-82 7.88,-82 7.88,-50 138.62,-50 138.62,-82"/>
<text xml:space="preserve" text-anchor="start" x="15.88" y="-68.5" font-family="Helvetica,sans-Serif" font-size="10.00">LGE::Material::SetOpacity</text>
<text xml:space="preserve" text-anchor="middle" x="73.25" y="-56.5" font-family="Helvetica,sans-Serif" font-size="10.00">Texture</text>
</a>
</g>
</g>
<!-- Node1&#45;&gt;Node8 -->
<g id="edge7_Node000001_Node000008" class="edge">
<title>Node1&#45;&gt;Node8</title>
<g id="a_edge7_Node000001_Node000008"><a xlink:title=" ">
<path fill="none" stroke="#63b8ff" d="M231.58,-171.82C213.76,-149.53 181.58,-113.01 146.5,-91 141.44,-87.83 135.93,-85 130.28,-82.49"/>
<polygon fill="#63b8ff" stroke="#63b8ff" points="228.66,-173.77 237.58,-179.5 234.18,-169.46 228.66,-173.77"/>
</a>
</g>
</g>
<!-- Node9 -->
<g id="Node000009" class="node">
<title>Node9</title>
<g id="a_Node000009"><a xlink:href="classLGE_1_1Material.html#a8c562f113d6fc8428691ba372a997fc8" target="_top" xlink:title=" ">
<polygon fill="white" stroke="#666666" points="146.5,-32 0,-32 0,0 146.5,0 146.5,-32"/>
<text xml:space="preserve" text-anchor="start" x="8" y="-18.5" font-family="Helvetica,sans-Serif" font-size="10.00">LGE::Material::SetRoughness</text>
<text xml:space="preserve" text-anchor="middle" x="73.25" y="-6.5" font-family="Helvetica,sans-Serif" font-size="10.00">Texture</text>
</a>
</g>
</g>
<!-- Node1&#45;&gt;Node9 -->
<g id="edge8_Node000001_Node000009" class="edge">
<title>Node1&#45;&gt;Node9</title>
<g id="a_edge8_Node000001_Node000009"><a xlink:title=" ">
<path fill="none" stroke="#63b8ff" d="M237.59,-170.16C223.37,-137.94 191.85,-76.11 146.5,-41 142.3,-37.75 137.65,-34.9 132.79,-32.42"/>
<polygon fill="#63b8ff" stroke="#63b8ff" points="234.3,-171.37 241.44,-179.19 240.74,-168.62 234.3,-171.37"/>
</a>
</g>
</g>
</g>
</svg>
