<?xml version="1.0" encoding="UTF-8" standalone="no"?>
<!DOCTYPE svg PUBLIC "-//W3C//DTD SVG 1.1//EN"
 "http://www.w3.org/Graphics/SVG/1.1/DTD/svg11.dtd">
<!-- Generated by graphviz version 14.0.2 (20251019.1705)
 -->
<!-- Title: LGE::Texture::LoadEXR Pages: 1 -->
<svg width="316pt" height="46pt"
 viewBox="0.00 0.00 316.00 46.00" xmlns="http://www.w3.org/2000/svg" xmlns:xlink="http://www.w3.org/1999/xlink">
<g id="graph0" class="graph" transform="scale(1 1) rotate(0) translate(4 42)">
<title>LGE::Texture::LoadEXR</title>
<!-- Node1 -->
<g id="Node000001" class="node">
<title>Node1</title>
<g id="a_Node000001"><a xlink:title=" ">
<polygon fill="#999999" stroke="#666666" points="308,-20 186.25,-20 186.25,0 308,0 308,-20"/>
<text xml:space="preserve" text-anchor="middle" x="247.12" y="-6.5" font-family="Helvetica,sans-Serif" font-size="10.00">LGE::Texture::LoadEXR</text>
</a>
</g>
</g>
<!-- Node1&#45;&gt;Node1 -->
<g id="edge1_Node000001_Node000001" class="edge">
<title>Node1&#45;&gt;Node1</title>
<g id="a_edge1_Node000001_Node000001"><a xlink:title=" ">
<path fill="none" stroke="#63b8ff" d="M277.85,-31.11C274.18,-35.14 263.94,-38 247.12,-38 217.23,-38 208.12,-28.98 219.8,-20.34"/>
<polygon fill="#63b8ff" stroke="#63b8ff" points="281.25,-30.27 274.91,-21.78 274.57,-32.37 281.25,-30.27"/>
</a>
</g>
</g>
<!-- Node2 -->
<g id="Node000002" class="node">
<title>Node2</title>
<g id="a_Node000002"><a xlink:href="classLGE_1_1Texture.html#abcaa819923ebe73eb5c6b0d207ede247" target="_top" xlink:title=" ">
<polygon fill="white" stroke="#666666" points="150.25,-20 0,-20 0,0 150.25,0 150.25,-20"/>
<text xml:space="preserve" text-anchor="middle" x="75.12" y="-6.5" font-family="Helvetica,sans-Serif" font-size="10.00">LGE::Texture::LoadHDRImage</text>
</a>
</g>
</g>
<!-- Node1&#45;&gt;Node2 -->
<g id="edge2_Node000001_Node000002" class="edge">
<title>Node1&#45;&gt;Node2</title>
<g id="a_edge2_Node000001_Node000002"><a xlink:title=" ">
<path fill="none" stroke="#63b8ff" d="M174.71,-10C166.78,-10 158.68,-10 150.71,-10"/>
<polygon fill="#63b8ff" stroke="#63b8ff" points="174.68,-13.5 184.68,-10 174.68,-6.5 174.68,-13.5"/>
</a>
</g>
</g>
</g>
</svg>
