<?xml version="1.0" encoding="UTF-8" standalone="no"?>
<!DOCTYPE svg PUBLIC "-//W3C//DTD SVG 1.1//EN"
 "http://www.w3.org/Graphics/SVG/1.1/DTD/svg11.dtd">
<!-- Generated by graphviz version 14.0.2 (20251019.1705)
 -->
<!-- Title: LGE::ThumbnailGenerator::DeleteThumbnail Pages: 1 -->
<svg width="303pt" height="116pt"
 viewBox="0.00 0.00 303.00 116.00" xmlns="http://www.w3.org/2000/svg" xmlns:xlink="http://www.w3.org/1999/xlink">
<g id="graph0" class="graph" transform="scale(1 1) rotate(0) translate(4 112)">
<title>LGE::ThumbnailGenerator::DeleteThumbnail</title>
<!-- Node1 -->
<g id="Node000001" class="node">
<title>Node1</title>
<g id="a_Node000001"><a xlink:title=" ">
<polygon fill="#999999" stroke="#666666" points="129.25,-70 0,-70 0,-38 129.25,-38 129.25,-70"/>
<text xml:space="preserve" text-anchor="start" x="8" y="-56.5" font-family="Helvetica,sans-Serif" font-size="10.00">LGE::ThumbnailGenerator</text>
<text xml:space="preserve" text-anchor="middle" x="64.62" y="-44.5" font-family="Helvetica,sans-Serif" font-size="10.00">::DeleteThumbnail</text>
</a>
</g>
</g>
<!-- Node2 -->
<g id="Node000002" class="node">
<title>Node2</title>
<g id="a_Node000002"><a xlink:href="classLGE_1_1Log.html#a53f3f4b8797ffd18145739c9e66d690a" target="_top" xlink:title=" ">
<polygon fill="white" stroke="#666666" points="272,-108 187.75,-108 187.75,-88 272,-88 272,-108"/>
<text xml:space="preserve" text-anchor="middle" x="229.88" y="-94.5" font-family="Helvetica,sans-Serif" font-size="10.00">LGE::Log::Error</text>
</a>
</g>
</g>
<!-- Node1&#45;&gt;Node2 -->
<g id="edge1_Node000001_Node000002" class="edge">
<title>Node1&#45;&gt;Node2</title>
<g id="a_edge1_Node000001_Node000002"><a xlink:title=" ">
<path fill="none" stroke="#63b8ff" d="M126.41,-70.38C143.96,-75.11 162.89,-80.22 179.64,-84.73"/>
<polygon fill="#63b8ff" stroke="#63b8ff" points="178.28,-87.99 188.84,-87.21 180.1,-81.23 178.28,-87.99"/>
</a>
</g>
</g>
<!-- Node3 -->
<g id="Node000003" class="node">
<title>Node3</title>
<g id="a_Node000003"><a xlink:href="classLGE_1_1ThumbnailGenerator.html#a3adbc95141ad8f6a806d5cfa793f28d3" target="_top" xlink:title=" ">
<polygon fill="white" stroke="#666666" points="294.5,-70 165.25,-70 165.25,-38 294.5,-38 294.5,-70"/>
<text xml:space="preserve" text-anchor="start" x="173.25" y="-56.5" font-family="Helvetica,sans-Serif" font-size="10.00">LGE::ThumbnailGenerator</text>
<text xml:space="preserve" text-anchor="middle" x="229.88" y="-44.5" font-family="Helvetica,sans-Serif" font-size="10.00">::GetThumbnailPath</text>
</a>
</g>
</g>
<!-- Node1&#45;&gt;Node3 -->
<g id="edge2_Node000001_Node000003" class="edge">
<title>Node1&#45;&gt;Node3</title>
<g id="a_edge2_Node000001_Node000003"><a xlink:title=" ">
<path fill="none" stroke="#63b8ff" d="M129.68,-54C137.57,-54 145.69,-54 153.73,-54"/>
<polygon fill="#63b8ff" stroke="#63b8ff" points="153.49,-57.5 163.49,-54 153.49,-50.5 153.49,-57.5"/>
</a>
</g>
</g>
<!-- Node4 -->
<g id="Node000004" class="node">
<title>Node4</title>
<g id="a_Node000004"><a xlink:href="classLGE_1_1Log.html#ab0265ee050b8873a2fd31fbdb696ced0" target="_top" xlink:title=" ">
<polygon fill="white" stroke="#666666" points="269.75,-20 190,-20 190,0 269.75,0 269.75,-20"/>
<text xml:space="preserve" text-anchor="middle" x="229.88" y="-6.5" font-family="Helvetica,sans-Serif" font-size="10.00">LGE::Log::Info</text>
</a>
</g>
</g>
<!-- Node1&#45;&gt;Node4 -->
<g id="edge3_Node000001_Node000004" class="edge">
<title>Node1&#45;&gt;Node4</title>
<g id="a_edge3_Node000001_Node000004"><a xlink:title=" ">
<path fill="none" stroke="#63b8ff" d="M126.41,-37.62C143.96,-32.89 162.89,-27.78 179.64,-23.27"/>
<polygon fill="#63b8ff" stroke="#63b8ff" points="180.1,-26.77 188.84,-20.79 178.28,-20.01 180.1,-26.77"/>
</a>
</g>
</g>
</g>
</svg>
