<?xml version="1.0" encoding="UTF-8" standalone="no"?>
<!DOCTYPE svg PUBLIC "-//W3C//DTD SVG 1.1//EN"
 "http://www.w3.org/Graphics/SVG/1.1/DTD/svg11.dtd">
<!-- Generated by graphviz version 14.0.2 (20251019.1705)
 -->
<!-- Title: LGE::ProjectManager::SaveProjectConfig Pages: 1 -->
<svg width="271pt" height="128pt"
 viewBox="0.00 0.00 271.00 128.00" xmlns="http://www.w3.org/2000/svg" xmlns:xlink="http://www.w3.org/1999/xlink">
<g id="graph0" class="graph" transform="scale(1 1) rotate(0) translate(4 124)">
<title>LGE::ProjectManager::SaveProjectConfig</title>
<!-- Node1 -->
<g id="Node000001" class="node">
<title>Node1</title>
<g id="a_Node000001"><a xlink:title=" ">
<polygon fill="#999999" stroke="#666666" points="109.75,-82 0,-82 0,-50 109.75,-50 109.75,-82"/>
<text xml:space="preserve" text-anchor="start" x="8" y="-68.5" font-family="Helvetica,sans-Serif" font-size="10.00">LGE::ProjectManager</text>
<text xml:space="preserve" text-anchor="middle" x="54.88" y="-56.5" font-family="Helvetica,sans-Serif" font-size="10.00">::SaveProjectConfig</text>
</a>
</g>
</g>
<!-- Node2 -->
<g id="Node000002" class="node">
<title>Node2</title>
<g id="a_Node000002"><a xlink:href="classLGE_1_1Log.html#a53f3f4b8797ffd18145739c9e66d690a" target="_top" xlink:title=" ">
<polygon fill="white" stroke="#666666" points="246.5,-120 162.25,-120 162.25,-100 246.5,-100 246.5,-120"/>
<text xml:space="preserve" text-anchor="middle" x="204.38" y="-106.5" font-family="Helvetica,sans-Serif" font-size="10.00">LGE::Log::Error</text>
</a>
</g>
</g>
<!-- Node1&#45;&gt;Node2 -->
<g id="edge1_Node000001_Node000002" class="edge">
<title>Node1&#45;&gt;Node2</title>
<g id="a_edge1_Node000001_Node000002"><a xlink:title=" ">
<path fill="none" stroke="#63b8ff" d="M109.96,-82.13C125.71,-86.83 142.74,-91.91 157.9,-96.44"/>
<polygon fill="#63b8ff" stroke="#63b8ff" points="156.53,-99.68 167.11,-99.18 158.53,-92.97 156.53,-99.68"/>
</a>
</g>
</g>
<!-- Node3 -->
<g id="Node000003" class="node">
<title>Node3</title>
<g id="a_Node000003"><a xlink:href="classLGE_1_1ProjectManager.html#a9621676627f1701a53614374eafb54b8" target="_top" xlink:title=" ">
<polygon fill="white" stroke="#666666" points="263,-82 145.75,-82 145.75,-50 263,-50 263,-82"/>
<text xml:space="preserve" text-anchor="start" x="153.75" y="-68.5" font-family="Helvetica,sans-Serif" font-size="10.00">LGE::ProjectManager</text>
<text xml:space="preserve" text-anchor="middle" x="204.38" y="-56.5" font-family="Helvetica,sans-Serif" font-size="10.00">::GetProjectConfigPath</text>
</a>
</g>
</g>
<!-- Node1&#45;&gt;Node3 -->
<g id="edge2_Node000001_Node000003" class="edge">
<title>Node1&#45;&gt;Node3</title>
<g id="a_edge2_Node000001_Node000003"><a xlink:title=" ">
<path fill="none" stroke="#63b8ff" d="M109.96,-66C117.78,-66 125.93,-66 134,-66"/>
<polygon fill="#63b8ff" stroke="#63b8ff" points="133.81,-69.5 143.81,-66 133.81,-62.5 133.81,-69.5"/>
</a>
</g>
</g>
<!-- Node4 -->
<g id="Node000004" class="node">
<title>Node4</title>
<g id="a_Node000004"><a xlink:href="classLGE_1_1ProjectManager.html#a00a2064c1e64792fce70dcd5ade3062e" target="_top" xlink:title=" ">
<polygon fill="white" stroke="#666666" points="261.12,-32 147.62,-32 147.62,0 261.12,0 261.12,-32"/>
<text xml:space="preserve" text-anchor="start" x="155.62" y="-18.5" font-family="Helvetica,sans-Serif" font-size="10.00">LGE::ProjectManager</text>
<text xml:space="preserve" text-anchor="middle" x="204.38" y="-6.5" font-family="Helvetica,sans-Serif" font-size="10.00">::GraphicsAPIToString</text>
</a>
</g>
</g>
<!-- Node1&#45;&gt;Node4 -->
<g id="edge3_Node000001_Node000004" class="edge">
<title>Node1&#45;&gt;Node4</title>
<g id="a_edge3_Node000001_Node000004"><a xlink:title=" ">
<path fill="none" stroke="#63b8ff" d="M104.17,-49.63C116.84,-45.33 130.65,-40.65 143.83,-36.18"/>
<polygon fill="#63b8ff" stroke="#63b8ff" points="144.94,-39.51 153.28,-32.98 142.69,-32.88 144.94,-39.51"/>
</a>
</g>
</g>
</g>
</svg>
