<?xml version="1.0" encoding="UTF-8" standalone="no"?>
<!DOCTYPE svg PUBLIC "-//W3C//DTD SVG 1.1//EN"
 "http://www.w3.org/Graphics/SVG/1.1/DTD/svg11.dtd">
<!-- Generated by graphviz version 14.0.2 (20251019.1705)
 -->
<!-- Title: LGE::ThumbnailGenerator::GetThumbnailPath Pages: 1 -->
<svg width="303pt" height="90pt"
 viewBox="0.00 0.00 303.00 90.00" xmlns="http://www.w3.org/2000/svg" xmlns:xlink="http://www.w3.org/1999/xlink">
<g id="graph0" class="graph" transform="scale(1 1) rotate(0) translate(4 86)">
<title>LGE::ThumbnailGenerator::GetThumbnailPath</title>
<!-- Node1 -->
<g id="Node000001" class="node">
<title>Node1</title>
<g id="a_Node000001"><a xlink:title=" ">
<polygon fill="#999999" stroke="#666666" points="294.5,-57 165.25,-57 165.25,-25 294.5,-25 294.5,-57"/>
<text xml:space="preserve" text-anchor="start" x="173.25" y="-43.5" font-family="Helvetica,sans-Serif" font-size="10.00">LGE::ThumbnailGenerator</text>
<text xml:space="preserve" text-anchor="middle" x="229.88" y="-31.5" font-family="Helvetica,sans-Serif" font-size="10.00">::GetThumbnailPath</text>
</a>
</g>
</g>
<!-- Node2 -->
<g id="Node000002" class="node">
<title>Node2</title>
<g id="a_Node000002"><a xlink:href="classLGE_1_1ThumbnailGenerator.html#aed1365034dcb81d0a7da1e7fc8592767" target="_top" xlink:title=" ">
<polygon fill="white" stroke="#666666" points="129.25,-82 0,-82 0,-50 129.25,-50 129.25,-82"/>
<text xml:space="preserve" text-anchor="start" x="8" y="-68.5" font-family="Helvetica,sans-Serif" font-size="10.00">LGE::ThumbnailGenerator</text>
<text xml:space="preserve" text-anchor="middle" x="64.62" y="-56.5" font-family="Helvetica,sans-Serif" font-size="10.00">::DeleteThumbnail</text>
</a>
</g>
</g>
<!-- Node1&#45;&gt;Node2 -->
<g id="edge1_Node000001_Node000002" class="edge">
<title>Node1&#45;&gt;Node2</title>
<g id="a_edge1_Node000001_Node000002"><a xlink:title=" ">
<path fill="none" stroke="#63b8ff" d="M153.54,-52.54C145.5,-53.77 137.38,-55.01 129.49,-56.22"/>
<polygon fill="#63b8ff" stroke="#63b8ff" points="153.97,-56.01 163.33,-51.04 152.91,-49.09 153.97,-56.01"/>
</a>
</g>
</g>
<!-- Node3 -->
<g id="Node000003" class="node">
<title>Node3</title>
<g id="a_Node000003"><a xlink:href="classLGE_1_1ThumbnailGenerator.html#aa3d61100aa3671ae8a1dbf5be67e1c29" target="_top" xlink:title=" ">
<polygon fill="white" stroke="#666666" points="129.25,-32 0,-32 0,0 129.25,0 129.25,-32"/>
<text xml:space="preserve" text-anchor="start" x="8" y="-18.5" font-family="Helvetica,sans-Serif" font-size="10.00">LGE::ThumbnailGenerator</text>
<text xml:space="preserve" text-anchor="middle" x="64.62" y="-6.5" font-family="Helvetica,sans-Serif" font-size="10.00">::ThumbnailExists</text>
</a>
</g>
</g>
<!-- Node1&#45;&gt;Node3 -->
<g id="edge2_Node000001_Node000003" class="edge">
<title>Node1&#45;&gt;Node3</title>
<g id="a_edge2_Node000001_Node000003"><a xlink:title=" ">
<path fill="none" stroke="#63b8ff" d="M153.54,-29.46C145.5,-28.23 137.38,-26.99 129.49,-25.78"/>
<polygon fill="#63b8ff" stroke="#63b8ff" points="152.91,-32.91 163.33,-30.96 153.97,-25.99 152.91,-32.91"/>
</a>
</g>
</g>
</g>
</svg>
