<?xml version="1.0" encoding="UTF-8" standalone="no"?>
<!DOCTYPE svg PUBLIC "-//W3C//DTD SVG 1.1//EN"
 "http://www.w3.org/Graphics/SVG/1.1/DTD/svg11.dtd">
<!-- Generated by graphviz version 14.0.2 (20251019.1705)
 -->
<!-- Title: LGE::SceneViewport::OnUIRender Pages: 1 -->
<svg width="433pt" height="78pt"
 viewBox="0.00 0.00 433.00 78.00" xmlns="http://www.w3.org/2000/svg" xmlns:xlink="http://www.w3.org/1999/xlink">
<g id="graph0" class="graph" transform="scale(1 1) rotate(0) translate(4 74)">
<title>LGE::SceneViewport::OnUIRender</title>
<!-- Node1 -->
<g id="Node000001" class="node">
<title>Node1</title>
<g id="a_Node000001"><a xlink:title=" ">
<polygon fill="#999999" stroke="#666666" points="107.5,-48 0,-48 0,-16 107.5,-16 107.5,-48"/>
<text xml:space="preserve" text-anchor="start" x="8" y="-34.5" font-family="Helvetica,sans-Serif" font-size="10.00">LGE::SceneViewport</text>
<text xml:space="preserve" text-anchor="middle" x="53.75" y="-22.5" font-family="Helvetica,sans-Serif" font-size="10.00">::OnUIRender</text>
</a>
</g>
</g>
<!-- Node2 -->
<g id="Node000002" class="node">
<title>Node2</title>
<g id="a_Node000002"><a xlink:href="classLGE_1_1SceneViewport.html#af0b053de6a0e83ef376c8323d1240974" target="_top" xlink:title=" ">
<polygon fill="white" stroke="#666666" points="269.38,-70 161.88,-70 161.88,-38 269.38,-38 269.38,-70"/>
<text xml:space="preserve" text-anchor="start" x="169.88" y="-56.5" font-family="Helvetica,sans-Serif" font-size="10.00">LGE::SceneViewport</text>
<text xml:space="preserve" text-anchor="middle" x="215.62" y="-44.5" font-family="Helvetica,sans-Serif" font-size="10.00">::RenderImGuizmo</text>
</a>
</g>
</g>
<!-- Node1&#45;&gt;Node2 -->
<g id="edge1_Node000001_Node000002" class="edge">
<title>Node1&#45;&gt;Node2</title>
<g id="a_edge1_Node000001_Node000002"><a xlink:title=" ">
<path fill="none" stroke="#63b8ff" d="M107.99,-39.33C121.6,-41.2 136.39,-43.23 150.49,-45.17"/>
<polygon fill="#63b8ff" stroke="#63b8ff" points="149.74,-48.6 160.12,-46.5 150.69,-41.67 149.74,-48.6"/>
</a>
</g>
</g>
<!-- Node4 -->
<g id="Node000004" class="node">
<title>Node4</title>
<g id="a_Node000004"><a xlink:href="classLGE_1_1UI.html#a8c0368deddbc08219a4882e17d98cf70" target="_top" xlink:title=" ">
<polygon fill="white" stroke="#666666" points="287.75,-20 143.5,-20 143.5,0 287.75,0 287.75,-20"/>
<text xml:space="preserve" text-anchor="middle" x="215.62" y="-6.5" font-family="Helvetica,sans-Serif" font-size="10.00">LGE::UI::WantCaptureMouse</text>
</a>
</g>
</g>
<!-- Node1&#45;&gt;Node4 -->
<g id="edge3_Node000001_Node000004" class="edge">
<title>Node1&#45;&gt;Node4</title>
<g id="a_edge3_Node000001_Node000004"><a xlink:title=" ">
<path fill="none" stroke="#63b8ff" d="M107.99,-24.67C115.64,-23.62 123.67,-22.52 131.73,-21.41"/>
<polygon fill="#63b8ff" stroke="#63b8ff" points="132.2,-24.88 141.63,-20.05 131.24,-17.94 132.2,-24.88"/>
</a>
</g>
</g>
<!-- Node3 -->
<g id="Node000003" class="node">
<title>Node3</title>
<g id="a_Node000003"><a xlink:href="structLGE_1_1Math_1_1Matrix4.html#a16cc54a35dce0dd92101cd7df7d29fc8" target="_top" xlink:title=" ">
<polygon fill="white" stroke="#666666" points="425.25,-70 323.75,-70 323.75,-38 425.25,-38 425.25,-70"/>
<text xml:space="preserve" text-anchor="start" x="331.75" y="-56.5" font-family="Helvetica,sans-Serif" font-size="10.00">LGE::Math::Matrix4</text>
<text xml:space="preserve" text-anchor="middle" x="374.5" y="-44.5" font-family="Helvetica,sans-Serif" font-size="10.00">::GetData</text>
</a>
</g>
</g>
<!-- Node2&#45;&gt;Node3 -->
<g id="edge2_Node000002_Node000003" class="edge">
<title>Node2&#45;&gt;Node3</title>
<g id="a_edge2_Node000002_Node000003"><a xlink:title=" ">
<path fill="none" stroke="#63b8ff" d="M269.74,-54C283.28,-54 297.95,-54 311.87,-54"/>
<polygon fill="#63b8ff" stroke="#63b8ff" points="311.84,-57.5 321.84,-54 311.84,-50.5 311.84,-57.5"/>
</a>
</g>
</g>
</g>
</svg>
