<?xml version="1.0" encoding="UTF-8" standalone="no"?>
<!DOCTYPE svg PUBLIC "-//W3C//DTD SVG 1.1//EN"
 "http://www.w3.org/Graphics/SVG/1.1/DTD/svg11.dtd">
<!-- Generated by graphviz version 14.0.2 (20251019.1705)
 -->
<!-- Title: LGE::Skybox::LoadHDR Pages: 1 -->
<svg width="252pt" height="66pt"
 viewBox="0.00 0.00 252.00 66.00" xmlns="http://www.w3.org/2000/svg" xmlns:xlink="http://www.w3.org/1999/xlink">
<g id="graph0" class="graph" transform="scale(1 1) rotate(0) translate(4 62)">
<title>LGE::Skybox::LoadHDR</title>
<!-- Node1 -->
<g id="Node000001" class="node">
<title>Node1</title>
<g id="a_Node000001"><a xlink:title=" ">
<polygon fill="#999999" stroke="#666666" points="124,-39 0,-39 0,-19 124,-19 124,-39"/>
<text xml:space="preserve" text-anchor="middle" x="62" y="-25.5" font-family="Helvetica,sans-Serif" font-size="10.00">LGE::Skybox::LoadHDR</text>
</a>
</g>
</g>
<!-- Node2 -->
<g id="Node000002" class="node">
<title>Node2</title>
<g id="a_Node000002"><a xlink:href="classLGE_1_1Log.html#a53f3f4b8797ffd18145739c9e66d690a" target="_top" xlink:title=" ">
<polygon fill="white" stroke="#666666" points="244.25,-58 160,-58 160,-38 244.25,-38 244.25,-58"/>
<text xml:space="preserve" text-anchor="middle" x="202.12" y="-44.5" font-family="Helvetica,sans-Serif" font-size="10.00">LGE::Log::Error</text>
</a>
</g>
</g>
<!-- Node1&#45;&gt;Node2 -->
<g id="edge1_Node000001_Node000002" class="edge">
<title>Node1&#45;&gt;Node2</title>
<g id="a_edge1_Node000001_Node000002"><a xlink:title=" ">
<path fill="none" stroke="#63b8ff" d="M124.39,-37.44C132.42,-38.55 140.6,-39.67 148.47,-40.76"/>
<polygon fill="#63b8ff" stroke="#63b8ff" points="147.86,-44.21 158.24,-42.1 148.81,-37.27 147.86,-44.21"/>
</a>
</g>
</g>
<!-- Node3 -->
<g id="Node000003" class="node">
<title>Node3</title>
<g id="a_Node000003"><a xlink:href="classLGE_1_1Log.html#ab0265ee050b8873a2fd31fbdb696ced0" target="_top" xlink:title=" ">
<polygon fill="white" stroke="#666666" points="242,-20 162.25,-20 162.25,0 242,0 242,-20"/>
<text xml:space="preserve" text-anchor="middle" x="202.12" y="-6.5" font-family="Helvetica,sans-Serif" font-size="10.00">LGE::Log::Info</text>
</a>
</g>
</g>
<!-- Node1&#45;&gt;Node3 -->
<g id="edge2_Node000001_Node000003" class="edge">
<title>Node1&#45;&gt;Node3</title>
<g id="a_edge2_Node000001_Node000003"><a xlink:title=" ">
<path fill="none" stroke="#63b8ff" d="M124.39,-20.56C133.21,-19.34 142.19,-18.11 150.76,-16.93"/>
<polygon fill="#63b8ff" stroke="#63b8ff" points="151.21,-20.4 160.64,-15.57 150.25,-13.46 151.21,-20.4"/>
</a>
</g>
</g>
</g>
</svg>
