<?xml version="1.0" encoding="UTF-8" standalone="no"?>
<!DOCTYPE svg PUBLIC "-//W3C//DTD SVG 1.1//EN"
 "http://www.w3.org/Graphics/SVG/1.1/DTD/svg11.dtd">
<!-- Generated by graphviz version 14.0.2 (20251019.1705)
 -->
<!-- Title: LGE::TextureImporter::Reimport Pages: 1 -->
<svg width="409pt" height="116pt"
 viewBox="0.00 0.00 409.00 116.00" xmlns="http://www.w3.org/2000/svg" xmlns:xlink="http://www.w3.org/1999/xlink">
<g id="graph0" class="graph" transform="scale(1 1) rotate(0) translate(4 112)">
<title>LGE::TextureImporter::Reimport</title>
<!-- Node1 -->
<g id="Node000001" class="node">
<title>Node1</title>
<g id="a_Node000001"><a xlink:title=" ">
<polygon fill="#999999" stroke="#666666" points="109.75,-92 0,-92 0,-60 109.75,-60 109.75,-92"/>
<text xml:space="preserve" text-anchor="start" x="8" y="-78.5" font-family="Helvetica,sans-Serif" font-size="10.00">LGE::TextureImporter</text>
<text xml:space="preserve" text-anchor="middle" x="54.88" y="-66.5" font-family="Helvetica,sans-Serif" font-size="10.00">::Reimport</text>
</a>
</g>
</g>
<!-- Node2 -->
<g id="Node000002" class="node">
<title>Node2</title>
<g id="a_Node000002"><a xlink:href="classLGE_1_1Log.html#a53f3f4b8797ffd18145739c9e66d690a" target="_top" xlink:title=" ">
<polygon fill="white" stroke="#666666" points="388.5,-108 304.25,-108 304.25,-88 388.5,-88 388.5,-108"/>
<text xml:space="preserve" text-anchor="middle" x="346.38" y="-94.5" font-family="Helvetica,sans-Serif" font-size="10.00">LGE::Log::Error</text>
</a>
</g>
</g>
<!-- Node1&#45;&gt;Node2 -->
<g id="edge1_Node000001_Node000002" class="edge">
<title>Node1&#45;&gt;Node2</title>
<g id="a_edge1_Node000001_Node000002"><a xlink:title=" ">
<path fill="none" stroke="#63b8ff" d="M109.99,-80.11C162.33,-84.09 241.12,-90.08 292.9,-94.01"/>
<polygon fill="#63b8ff" stroke="#63b8ff" points="292.42,-97.49 302.65,-94.75 292.95,-90.51 292.42,-97.49"/>
</a>
</g>
</g>
<!-- Node3 -->
<g id="Node000003" class="node">
<title>Node3</title>
<g id="a_Node000003"><a xlink:href="classLGE_1_1TextureImporter.html#a9030a51244bc2030340fdfba8d9b8d06" target="_top" xlink:title=" ">
<polygon fill="white" stroke="#666666" points="255.5,-70 145.75,-70 145.75,-38 255.5,-38 255.5,-70"/>
<text xml:space="preserve" text-anchor="start" x="153.75" y="-56.5" font-family="Helvetica,sans-Serif" font-size="10.00">LGE::TextureImporter</text>
<text xml:space="preserve" text-anchor="middle" x="200.62" y="-44.5" font-family="Helvetica,sans-Serif" font-size="10.00">::Import</text>
</a>
</g>
</g>
<!-- Node1&#45;&gt;Node3 -->
<g id="edge2_Node000001_Node000003" class="edge">
<title>Node1&#45;&gt;Node3</title>
<g id="a_edge2_Node000001_Node000003"><a xlink:title=" ">
<path fill="none" stroke="#63b8ff" d="M110.22,-67.68C118.11,-66.48 126.3,-65.22 134.38,-63.99"/>
<polygon fill="#63b8ff" stroke="#63b8ff" points="134.83,-67.46 144.18,-62.49 133.77,-60.54 134.83,-67.46"/>
</a>
</g>
</g>
<!-- Node3&#45;&gt;Node2 -->
<g id="edge3_Node000003_Node000002" class="edge">
<title>Node3&#45;&gt;Node2</title>
<g id="a_edge3_Node000003_Node000002"><a xlink:title=" ">
<path fill="none" stroke="#63b8ff" d="M255.15,-70.38C270.16,-74.98 286.32,-79.92 300.76,-84.34"/>
<polygon fill="#63b8ff" stroke="#63b8ff" points="299.38,-87.58 309.96,-87.16 301.43,-80.89 299.38,-87.58"/>
</a>
</g>
</g>
<!-- Node4 -->
<g id="Node000004" class="node">
<title>Node4</title>
<g id="a_Node000004"><a xlink:href="classLGE_1_1TextureImporter.html#aab758e1b2970a6749572c5938a7374e5" target="_top" xlink:title=" ">
<polygon fill="white" stroke="#666666" points="401.25,-70 291.5,-70 291.5,-38 401.25,-38 401.25,-70"/>
<text xml:space="preserve" text-anchor="start" x="299.5" y="-56.5" font-family="Helvetica,sans-Serif" font-size="10.00">LGE::TextureImporter</text>
<text xml:space="preserve" text-anchor="middle" x="346.38" y="-44.5" font-family="Helvetica,sans-Serif" font-size="10.00">::GetName</text>
</a>
</g>
</g>
<!-- Node3&#45;&gt;Node4 -->
<g id="edge4_Node000003_Node000004" class="edge">
<title>Node3&#45;&gt;Node4</title>
<g id="a_edge4_Node000003_Node000004"><a xlink:title=" ">
<path fill="none" stroke="#63b8ff" d="M255.97,-54C263.86,-54 272.05,-54 280.13,-54"/>
<polygon fill="#63b8ff" stroke="#63b8ff" points="279.92,-57.5 289.92,-54 279.92,-50.5 279.92,-57.5"/>
</a>
</g>
</g>
<!-- Node5 -->
<g id="Node000005" class="node">
<title>Node5</title>
<g id="a_Node000005"><a xlink:href="classLGE_1_1Log.html#ab0265ee050b8873a2fd31fbdb696ced0" target="_top" xlink:title=" ">
<polygon fill="white" stroke="#666666" points="386.25,-20 306.5,-20 306.5,0 386.25,0 386.25,-20"/>
<text xml:space="preserve" text-anchor="middle" x="346.38" y="-6.5" font-family="Helvetica,sans-Serif" font-size="10.00">LGE::Log::Info</text>
</a>
</g>
</g>
<!-- Node3&#45;&gt;Node5 -->
<g id="edge5_Node000003_Node000005" class="edge">
<title>Node3&#45;&gt;Node5</title>
<g id="a_edge5_Node000003_Node000005"><a xlink:title=" ">
<path fill="none" stroke="#63b8ff" d="M255.15,-37.62C270.16,-33.02 286.32,-28.08 300.76,-23.66"/>
<polygon fill="#63b8ff" stroke="#63b8ff" points="301.43,-27.11 309.96,-20.84 299.38,-20.42 301.43,-27.11"/>
</a>
</g>
</g>
</g>
</svg>
