<?xml version="1.0" encoding="UTF-8" standalone="no"?>
<!DOCTYPE svg PUBLIC "-//W3C//DTD SVG 1.1//EN"
 "http://www.w3.org/Graphics/SVG/1.1/DTD/svg11.dtd">
<!-- Generated by graphviz version 14.0.2 (20251019.1705)
 -->
<!-- Title: LGE::Camera::UpdateViewProjectionMatrix Pages: 1 -->
<svg width="375pt" height="408pt"
 viewBox="0.00 0.00 375.00 408.00" xmlns="http://www.w3.org/2000/svg" xmlns:xlink="http://www.w3.org/1999/xlink">
<g id="graph0" class="graph" transform="scale(1 1) rotate(0) translate(4 404)">
<title>LGE::Camera::UpdateViewProjectionMatrix</title>
<!-- Node1 -->
<g id="Node000001" class="node">
<title>Node1</title>
<g id="a_Node000001"><a xlink:title=" ">
<polygon fill="#999999" stroke="#666666" points="367.25,-216 188.5,-216 188.5,-184 367.25,-184 367.25,-216"/>
<text xml:space="preserve" text-anchor="start" x="196.5" y="-202.5" font-family="Helvetica,sans-Serif" font-size="10.00">LGE::Camera::UpdateViewProjection</text>
<text xml:space="preserve" text-anchor="middle" x="277.88" y="-190.5" font-family="Helvetica,sans-Serif" font-size="10.00">Matrix</text>
</a>
</g>
</g>
<!-- Node2 -->
<g id="Node000002" class="node">
<title>Node2</title>
<g id="a_Node000002"><a xlink:href="classLGE_1_1Camera.html#a842bfb86269f40482bf133ca862cc4fd" target="_top" xlink:title=" ">
<polygon fill="white" stroke="#666666" points="134.5,-400 18,-400 18,-380 134.5,-380 134.5,-400"/>
<text xml:space="preserve" text-anchor="middle" x="76.25" y="-386.5" font-family="Helvetica,sans-Serif" font-size="10.00">LGE::Camera::Camera</text>
</a>
</g>
</g>
<!-- Node1&#45;&gt;Node2 -->
<g id="edge1_Node000001_Node000002" class="edge">
<title>Node1&#45;&gt;Node2</title>
<g id="a_edge1_Node000001_Node000002"><a xlink:title=" ">
<path fill="none" stroke="#63b8ff" d="M264.9,-226.63C246.38,-264.67 207.16,-334.03 152.5,-371 147.14,-374.62 141.15,-377.56 134.95,-379.93"/>
<polygon fill="#63b8ff" stroke="#63b8ff" points="268,-228.25 269.12,-217.71 261.68,-225.25 268,-228.25"/>
</a>
</g>
</g>
<!-- Node3 -->
<g id="Node000003" class="node">
<title>Node3</title>
<g id="a_Node000003"><a xlink:href="classLGE_1_1Camera.html#ad4075b70f0c958317eff76cf7b0e54e3" target="_top" xlink:title=" ">
<polygon fill="white" stroke="#666666" points="134.5,-362 18,-362 18,-342 134.5,-342 134.5,-362"/>
<text xml:space="preserve" text-anchor="middle" x="76.25" y="-348.5" font-family="Helvetica,sans-Serif" font-size="10.00">LGE::Camera::Camera</text>
</a>
</g>
</g>
<!-- Node1&#45;&gt;Node3 -->
<g id="edge2_Node000001_Node000003" class="edge">
<title>Node1&#45;&gt;Node3</title>
<g id="a_edge2_Node000001_Node000003"><a xlink:title=" ">
<path fill="none" stroke="#63b8ff" d="M260.07,-225.41C238.7,-255.68 198.93,-305.6 152.5,-333 146.7,-336.42 140.29,-339.24 133.74,-341.54"/>
<polygon fill="#63b8ff" stroke="#63b8ff" points="262.68,-227.78 265.49,-217.57 256.93,-223.8 262.68,-227.78"/>
</a>
</g>
</g>
<!-- Node4 -->
<g id="Node000004" class="node">
<title>Node4</title>
<g id="a_Node000004"><a xlink:href="classLGE_1_1Camera.html#a060ca8af832029265a1ac071af3821ad" target="_top" xlink:title=" ">
<polygon fill="white" stroke="#666666" points="129.25,-324 23.25,-324 23.25,-304 129.25,-304 129.25,-324"/>
<text xml:space="preserve" text-anchor="middle" x="76.25" y="-310.5" font-family="Helvetica,sans-Serif" font-size="10.00">LGE::Camera::Move</text>
</a>
</g>
</g>
<!-- Node1&#45;&gt;Node4 -->
<g id="edge3_Node000001_Node000004" class="edge">
<title>Node1&#45;&gt;Node4</title>
<g id="a_edge3_Node000001_Node000004"><a xlink:title=" ">
<path fill="none" stroke="#63b8ff" d="M251.86,-224.07C228.11,-245.65 190.47,-276.67 152.5,-295 145.34,-298.46 137.48,-301.33 129.63,-303.7"/>
<polygon fill="#63b8ff" stroke="#63b8ff" points="254.18,-226.69 259.15,-217.33 249.43,-221.55 254.18,-226.69"/>
</a>
</g>
</g>
<!-- Node5 -->
<g id="Node000005" class="node">
<title>Node5</title>
<g id="a_Node000005"><a xlink:href="classLGE_1_1Camera.html#a33ef78a211ae82690a64a041b7f86de0" target="_top" xlink:title=" ">
<polygon fill="white" stroke="#666666" points="125.88,-286 26.62,-286 26.62,-266 125.88,-266 125.88,-286"/>
<text xml:space="preserve" text-anchor="middle" x="76.25" y="-272.5" font-family="Helvetica,sans-Serif" font-size="10.00">LGE::Camera::Pan</text>
</a>
</g>
</g>
<!-- Node1&#45;&gt;Node5 -->
<g id="edge4_Node000001_Node000005" class="edge">
<title>Node1&#45;&gt;Node5</title>
<g id="a_edge4_Node000001_Node000005"><a xlink:title=" ">
<path fill="none" stroke="#63b8ff" d="M235.24,-221.39C211.45,-233.03 180.8,-247.04 152.5,-257 143.48,-260.18 133.67,-263.05 124.21,-265.55"/>
<polygon fill="#63b8ff" stroke="#63b8ff" points="236.56,-224.65 243.97,-217.08 233.45,-218.37 236.56,-224.65"/>
</a>
</g>
</g>
<!-- Node6 -->
<g id="Node000006" class="node">
<title>Node6</title>
<g id="a_Node000006"><a xlink:href="classLGE_1_1Camera.html#a2c965db23abafe500f48e4d87f63291e" target="_top" xlink:title=" ">
<polygon fill="white" stroke="#666666" points="131.88,-248 20.62,-248 20.62,-228 131.88,-228 131.88,-248"/>
<text xml:space="preserve" text-anchor="middle" x="76.25" y="-234.5" font-family="Helvetica,sans-Serif" font-size="10.00">LGE::Camera::Rotate</text>
</a>
</g>
</g>
<!-- Node1&#45;&gt;Node6 -->
<g id="edge5_Node000001_Node000006" class="edge">
<title>Node1&#45;&gt;Node6</title>
<g id="a_edge5_Node000001_Node000006"><a xlink:title=" ">
<path fill="none" stroke="#63b8ff" d="M179.28,-218.58C163.06,-221.67 146.76,-224.77 132.09,-227.56"/>
<polygon fill="#63b8ff" stroke="#63b8ff" points="179.82,-222.04 188.99,-216.73 178.51,-215.16 179.82,-222.04"/>
</a>
</g>
</g>
<!-- Node7 -->
<g id="Node000007" class="node">
<title>Node7</title>
<g id="a_Node000007"><a xlink:href="classLGE_1_1Camera.html#aad4df9d93875b8c3f10f862a7b2125bc" target="_top" xlink:title=" ">
<polygon fill="white" stroke="#666666" points="152.5,-210 0,-210 0,-190 152.5,-190 152.5,-210"/>
<text xml:space="preserve" text-anchor="middle" x="76.25" y="-196.5" font-family="Helvetica,sans-Serif" font-size="10.00">LGE::Camera::SetOrthographic</text>
</a>
</g>
</g>
<!-- Node1&#45;&gt;Node7 -->
<g id="edge6_Node000001_Node000007" class="edge">
<title>Node1&#45;&gt;Node7</title>
<g id="a_edge6_Node000001_Node000007"><a xlink:title=" ">
<path fill="none" stroke="#63b8ff" d="M176.8,-200C168.76,-200 160.72,-200 152.89,-200"/>
<polygon fill="#63b8ff" stroke="#63b8ff" points="176.64,-203.5 186.64,-200 176.64,-196.5 176.64,-203.5"/>
</a>
</g>
</g>
<!-- Node8 -->
<g id="Node000008" class="node">
<title>Node8</title>
<g id="a_Node000008"><a xlink:href="classLGE_1_1Camera.html#ab526ae7270ea41978b6c76368d830eae" target="_top" xlink:title=" ">
<polygon fill="white" stroke="#666666" points="150.62,-172 1.88,-172 1.88,-152 150.62,-152 150.62,-172"/>
<text xml:space="preserve" text-anchor="middle" x="76.25" y="-158.5" font-family="Helvetica,sans-Serif" font-size="10.00">LGE::Camera::SetPerspective</text>
</a>
</g>
</g>
<!-- Node1&#45;&gt;Node8 -->
<g id="edge7_Node000001_Node000008" class="edge">
<title>Node1&#45;&gt;Node8</title>
<g id="a_edge7_Node000001_Node000008"><a xlink:title=" ">
<path fill="none" stroke="#63b8ff" d="M179.34,-181.43C163.2,-178.36 146.99,-175.27 132.38,-172.49"/>
<polygon fill="#63b8ff" stroke="#63b8ff" points="178.51,-184.84 188.99,-183.27 179.82,-177.96 178.51,-184.84"/>
</a>
</g>
</g>
<!-- Node9 -->
<g id="Node000009" class="node">
<title>Node9</title>
<g id="a_Node000009"><a xlink:href="classLGE_1_1Camera.html#abfbd1978fbb836d9d7b958527a8c2aee" target="_top" xlink:title=" ">
<polygon fill="white" stroke="#666666" points="142.38,-134 10.12,-134 10.12,-114 142.38,-114 142.38,-134"/>
<text xml:space="preserve" text-anchor="middle" x="76.25" y="-120.5" font-family="Helvetica,sans-Serif" font-size="10.00">LGE::Camera::SetPosition</text>
</a>
</g>
</g>
<!-- Node1&#45;&gt;Node9 -->
<g id="edge8_Node000001_Node000009" class="edge">
<title>Node1&#45;&gt;Node9</title>
<g id="a_edge8_Node000001_Node000009"><a xlink:title=" ">
<path fill="none" stroke="#63b8ff" d="M235.24,-178.61C211.45,-166.97 180.8,-152.96 152.5,-143 143.48,-139.82 133.67,-136.95 124.21,-134.45"/>
<polygon fill="#63b8ff" stroke="#63b8ff" points="233.45,-181.63 243.97,-182.92 236.56,-175.35 233.45,-181.63"/>
</a>
</g>
</g>
<!-- Node10 -->
<g id="Node000010" class="node">
<title>Node10</title>
<g id="a_Node000010"><a xlink:href="classLGE_1_1Camera.html#afe7a80145ef68192e659e41a1c3ce8de" target="_top" xlink:title=" ">
<polygon fill="white" stroke="#666666" points="138.25,-96 14.25,-96 14.25,-76 138.25,-76 138.25,-96"/>
<text xml:space="preserve" text-anchor="middle" x="76.25" y="-82.5" font-family="Helvetica,sans-Serif" font-size="10.00">LGE::Camera::SetTarget</text>
</a>
</g>
</g>
<!-- Node1&#45;&gt;Node10 -->
<g id="edge9_Node000001_Node000010" class="edge">
<title>Node1&#45;&gt;Node10</title>
<g id="a_edge9_Node000001_Node000010"><a xlink:title=" ">
<path fill="none" stroke="#63b8ff" d="M251.86,-175.93C228.11,-154.35 190.47,-123.33 152.5,-105 145.46,-101.6 137.75,-98.77 130.03,-96.42"/>
<polygon fill="#63b8ff" stroke="#63b8ff" points="249.43,-178.45 259.15,-182.67 254.18,-173.31 249.43,-178.45"/>
</a>
</g>
</g>
<!-- Node11 -->
<g id="Node000011" class="node">
<title>Node11</title>
<g id="a_Node000011"><a xlink:href="classLGE_1_1Camera.html#a700457ffe743b6ac539cc759226d74fe" target="_top" xlink:title=" ">
<polygon fill="white" stroke="#666666" points="131.12,-58 21.38,-58 21.38,-38 131.12,-38 131.12,-58"/>
<text xml:space="preserve" text-anchor="middle" x="76.25" y="-44.5" font-family="Helvetica,sans-Serif" font-size="10.00">LGE::Camera::SetUp</text>
</a>
</g>
</g>
<!-- Node1&#45;&gt;Node11 -->
<g id="edge10_Node000001_Node000011" class="edge">
<title>Node1&#45;&gt;Node11</title>
<g id="a_edge10_Node000001_Node000011"><a xlink:title=" ">
<path fill="none" stroke="#63b8ff" d="M260.07,-174.59C238.7,-144.32 198.93,-94.4 152.5,-67 146,-63.17 138.75,-60.1 131.37,-57.65"/>
<polygon fill="#63b8ff" stroke="#63b8ff" points="256.93,-176.2 265.49,-182.43 262.68,-172.22 256.93,-176.2"/>
</a>
</g>
</g>
<!-- Node12 -->
<g id="Node000012" class="node">
<title>Node12</title>
<g id="a_Node000012"><a xlink:href="classLGE_1_1Camera.html#a7e607e1498972216da33a69b621dad00" target="_top" xlink:title=" ">
<polygon fill="white" stroke="#666666" points="129.62,-20 22.88,-20 22.88,0 129.62,0 129.62,-20"/>
<text xml:space="preserve" text-anchor="middle" x="76.25" y="-6.5" font-family="Helvetica,sans-Serif" font-size="10.00">LGE::Camera::Zoom</text>
</a>
</g>
</g>
<!-- Node1&#45;&gt;Node12 -->
<g id="edge11_Node000001_Node000012" class="edge">
<title>Node1&#45;&gt;Node12</title>
<g id="a_edge11_Node000001_Node000012"><a xlink:title=" ">
<path fill="none" stroke="#63b8ff" d="M264.9,-173.37C246.38,-135.33 207.16,-65.97 152.5,-29 145.69,-24.4 137.86,-20.91 129.87,-18.26"/>
<polygon fill="#63b8ff" stroke="#63b8ff" points="261.68,-174.75 269.12,-182.29 268,-171.75 261.68,-174.75"/>
</a>
</g>
</g>
</g>
</svg>
