<?xml version="1.0" encoding="UTF-8" standalone="no"?>
<!DOCTYPE svg PUBLIC "-//W3C//DTD SVG 1.1//EN"
 "http://www.w3.org/Graphics/SVG/1.1/DTD/svg11.dtd">
<!-- Generated by graphviz version 14.0.2 (20251019.1705)
 -->
<!-- Title: LGE::Renderer::Create Pages: 1 -->
<svg width="515pt" height="28pt"
 viewBox="0.00 0.00 515.00 28.00" xmlns="http://www.w3.org/2000/svg" xmlns:xlink="http://www.w3.org/1999/xlink">
<g id="graph0" class="graph" transform="scale(1 1) rotate(0) translate(4 24)">
<title>LGE::Renderer::Create</title>
<!-- Node1 -->
<g id="Node000001" class="node">
<title>Node1</title>
<g id="a_Node000001"><a xlink:title=" ">
<polygon fill="#999999" stroke="#666666" points="506.5,-20 390,-20 390,0 506.5,0 506.5,-20"/>
<text xml:space="preserve" text-anchor="middle" x="448.25" y="-6.5" font-family="Helvetica,sans-Serif" font-size="10.00">LGE::Renderer::Create</text>
</a>
</g>
</g>
<!-- Node2 -->
<g id="Node000002" class="node">
<title>Node2</title>
<g id="a_Node000002"><a xlink:href="classLGE_1_1Application.html#a79cbcce064217e14d9598a40b734249a" target="_top" xlink:title=" ">
<polygon fill="white" stroke="#666666" points="354,-20 222.5,-20 222.5,0 354,0 354,-20"/>
<text xml:space="preserve" text-anchor="middle" x="288.25" y="-6.5" font-family="Helvetica,sans-Serif" font-size="10.00">LGE::Application::Initialize</text>
</a>
</g>
</g>
<!-- Node1&#45;&gt;Node2 -->
<g id="edge1_Node000001_Node000002" class="edge">
<title>Node1&#45;&gt;Node2</title>
<g id="a_edge1_Node000001_Node000002"><a xlink:title=" ">
<path fill="none" stroke="#63b8ff" d="M378.3,-10C370.38,-10 362.32,-10 354.46,-10"/>
<polygon fill="#63b8ff" stroke="#63b8ff" points="378.25,-13.5 388.25,-10 378.25,-6.5 378.25,-13.5"/>
</a>
</g>
</g>
<!-- Node3 -->
<g id="Node000003" class="node">
<title>Node3</title>
<g id="a_Node000003"><a xlink:href="classExampleApp.html#aeefc835a3f3b1d9eb6e8ff4322174c0e" target="_top" xlink:title=" ">
<polygon fill="white" stroke="#666666" points="186.5,-20 73,-20 73,0 186.5,0 186.5,-20"/>
<text xml:space="preserve" text-anchor="middle" x="129.75" y="-6.5" font-family="Helvetica,sans-Serif" font-size="10.00">ExampleApp::Initialize</text>
</a>
</g>
</g>
<!-- Node2&#45;&gt;Node3 -->
<g id="edge2_Node000002_Node000003" class="edge">
<title>Node2&#45;&gt;Node3</title>
<g id="a_edge2_Node000002_Node000003"><a xlink:title=" ">
<path fill="none" stroke="#63b8ff" d="M210.85,-10C202.76,-10 194.64,-10 186.84,-10"/>
<polygon fill="#63b8ff" stroke="#63b8ff" points="210.73,-13.5 220.73,-10 210.73,-6.5 210.73,-13.5"/>
</a>
</g>
</g>
<!-- Node4 -->
<g id="Node000004" class="node">
<title>Node4</title>
<g id="a_Node000004"><a xlink:href="main_8cpp.html#ae66f6b31b5ad750f1fe042a706a4e3d4" target="_top" xlink:title=" ">
<polygon fill="white" stroke="#666666" points="37,-20 0,-20 0,0 37,0 37,-20"/>
<text xml:space="preserve" text-anchor="middle" x="18.5" y="-6.5" font-family="Helvetica,sans-Serif" font-size="10.00">main</text>
</a>
</g>
</g>
<!-- Node3&#45;&gt;Node4 -->
<g id="edge3_Node000003_Node000004" class="edge">
<title>Node3&#45;&gt;Node4</title>
<g id="a_edge3_Node000003_Node000004"><a xlink:title=" ">
<path fill="none" stroke="#63b8ff" d="M61.27,-10C52.52,-10 44.24,-10 37.39,-10"/>
<polygon fill="#63b8ff" stroke="#63b8ff" points="61.01,-13.5 71.01,-10 61.01,-6.5 61.01,-13.5"/>
</a>
</g>
</g>
</g>
</svg>
