<?xml version="1.0" encoding="UTF-8" standalone="no"?>
<!DOCTYPE svg PUBLIC "-//W3C//DTD SVG 1.1//EN"
 "http://www.w3.org/Graphics/SVG/1.1/DTD/svg11.dtd">
<!-- Generated by graphviz version 14.0.2 (20251019.1705)
 -->
<!-- Title: LGE::Camera::Camera Pages: 1 -->
<svg width="614pt" height="181pt"
 viewBox="0.00 0.00 614.00 181.00" xmlns="http://www.w3.org/2000/svg" xmlns:xlink="http://www.w3.org/1999/xlink">
<g id="graph0" class="graph" transform="scale(1 1) rotate(0) translate(4 177)">
<title>LGE::Camera::Camera</title>
<!-- Node1 -->
<g id="Node000001" class="node">
<title>Node1</title>
<g id="a_Node000001"><a xlink:title=" ">
<polygon fill="#999999" stroke="#666666" points="116.5,-70 0,-70 0,-50 116.5,-50 116.5,-70"/>
<text xml:space="preserve" text-anchor="middle" x="58.25" y="-56.5" font-family="Helvetica,sans-Serif" font-size="10.00">LGE::Camera::Camera</text>
</a>
</g>
</g>
<!-- Node2 -->
<g id="Node000002" class="node">
<title>Node2</title>
<g id="a_Node000002"><a xlink:href="classLGE_1_1Camera.html#a8d884fa85bbeff3acc43266a8f908fce" target="_top" xlink:title=" ">
<polygon fill="white" stroke="#666666" points="320.38,-123 163.38,-123 163.38,-91 320.38,-91 320.38,-123"/>
<text xml:space="preserve" text-anchor="start" x="171.38" y="-109.5" font-family="Helvetica,sans-Serif" font-size="10.00">LGE::Camera::UpdateProjection</text>
<text xml:space="preserve" text-anchor="middle" x="241.88" y="-97.5" font-family="Helvetica,sans-Serif" font-size="10.00">Matrix</text>
</a>
</g>
</g>
<!-- Node1&#45;&gt;Node2 -->
<g id="edge1_Node000001_Node000002" class="edge">
<title>Node1&#45;&gt;Node2</title>
<g id="a_edge1_Node000001_Node000002"><a xlink:title=" ">
<path fill="none" stroke="#63b8ff" d="M99.56,-70.43C119.14,-75.5 143.31,-81.75 166.09,-87.65"/>
<polygon fill="#63b8ff" stroke="#63b8ff" points="165.11,-91.01 175.67,-90.13 166.87,-84.23 165.11,-91.01"/>
</a>
</g>
</g>
<!-- Node6 -->
<g id="Node000006" class="node">
<title>Node6</title>
<g id="a_Node000006"><a xlink:href="classLGE_1_1Camera.html#a11d25fd3a204f4506304ab9510eb1762" target="_top" xlink:title=" ">
<polygon fill="white" stroke="#666666" points="323,-70 160.75,-70 160.75,-50 323,-50 323,-70"/>
<text xml:space="preserve" text-anchor="middle" x="241.88" y="-56.5" font-family="Helvetica,sans-Serif" font-size="10.00">LGE::Camera::UpdateViewMatrix</text>
</a>
</g>
</g>
<!-- Node1&#45;&gt;Node6 -->
<g id="edge6_Node000001_Node000006" class="edge">
<title>Node1&#45;&gt;Node6</title>
<g id="a_edge6_Node000001_Node000006"><a xlink:title=" ">
<path fill="none" stroke="#63b8ff" d="M116.97,-60C127.22,-60 138.13,-60 149.05,-60"/>
<polygon fill="#63b8ff" stroke="#63b8ff" points="148.9,-63.5 158.9,-60 148.9,-56.5 148.9,-63.5"/>
</a>
</g>
</g>
<!-- Node8 -->
<g id="Node000008" class="node">
<title>Node8</title>
<g id="a_Node000008"><a xlink:href="classLGE_1_1Camera.html#ad5762d9f21d46ca4961b6371dca6f5db" target="_top" xlink:title=" ">
<polygon fill="white" stroke="#666666" points="331.25,-32 152.5,-32 152.5,0 331.25,0 331.25,-32"/>
<text xml:space="preserve" text-anchor="start" x="160.5" y="-18.5" font-family="Helvetica,sans-Serif" font-size="10.00">LGE::Camera::UpdateViewProjection</text>
<text xml:space="preserve" text-anchor="middle" x="241.88" y="-6.5" font-family="Helvetica,sans-Serif" font-size="10.00">Matrix</text>
</a>
</g>
</g>
<!-- Node1&#45;&gt;Node8 -->
<g id="edge9_Node000001_Node000008" class="edge">
<title>Node1&#45;&gt;Node8</title>
<g id="a_edge9_Node000001_Node000008"><a xlink:title=" ">
<path fill="none" stroke="#63b8ff" d="M102.29,-49.57C120.17,-45.24 141.49,-40.08 161.99,-35.11"/>
<polygon fill="#63b8ff" stroke="#63b8ff" points="162.57,-38.57 171.46,-32.82 160.92,-31.77 162.57,-38.57"/>
</a>
</g>
</g>
<!-- Node3 -->
<g id="Node000003" class="node">
<title>Node3</title>
<g id="a_Node000003"><a xlink:href="structLGE_1_1Math_1_1Matrix4.html#acaadbb2fff7609f792ce190240110ac5" target="_top" xlink:title=" ">
<polygon fill="white" stroke="#666666" points="468.75,-173 367.25,-173 367.25,-141 468.75,-141 468.75,-173"/>
<text xml:space="preserve" text-anchor="start" x="375.25" y="-159.5" font-family="Helvetica,sans-Serif" font-size="10.00">LGE::Math::Matrix4</text>
<text xml:space="preserve" text-anchor="middle" x="418" y="-147.5" font-family="Helvetica,sans-Serif" font-size="10.00">::Orthographic</text>
</a>
</g>
</g>
<!-- Node2&#45;&gt;Node3 -->
<g id="edge2_Node000002_Node000003" class="edge">
<title>Node2&#45;&gt;Node3</title>
<g id="a_edge2_Node000002_Node000003"><a xlink:title=" ">
<path fill="none" stroke="#63b8ff" d="M299.89,-123.37C317.88,-128.54 337.82,-134.26 356.07,-139.51"/>
<polygon fill="#63b8ff" stroke="#63b8ff" points="354.86,-142.8 365.44,-142.19 356.79,-136.07 354.86,-142.8"/>
</a>
</g>
</g>
<!-- Node5 -->
<g id="Node000005" class="node">
<title>Node5</title>
<g id="a_Node000005"><a xlink:href="structLGE_1_1Math_1_1Matrix4.html#aaa8e7cbf99003770c579766b31515f61" target="_top" xlink:title=" ">
<polygon fill="white" stroke="#666666" points="468.75,-123 367.25,-123 367.25,-91 468.75,-91 468.75,-123"/>
<text xml:space="preserve" text-anchor="start" x="375.25" y="-109.5" font-family="Helvetica,sans-Serif" font-size="10.00">LGE::Math::Matrix4</text>
<text xml:space="preserve" text-anchor="middle" x="418" y="-97.5" font-family="Helvetica,sans-Serif" font-size="10.00">::Perspective</text>
</a>
</g>
</g>
<!-- Node2&#45;&gt;Node5 -->
<g id="edge4_Node000002_Node000005" class="edge">
<title>Node2&#45;&gt;Node5</title>
<g id="a_edge4_Node000002_Node000005"><a xlink:title=" ">
<path fill="none" stroke="#63b8ff" d="M320.77,-107C332.46,-107 344.38,-107 355.66,-107"/>
<polygon fill="#63b8ff" stroke="#63b8ff" points="355.64,-110.5 365.64,-107 355.64,-103.5 355.64,-110.5"/>
</a>
</g>
</g>
<!-- Node4 -->
<g id="Node000004" class="node">
<title>Node4</title>
<g id="a_Node000004"><a xlink:href="structLGE_1_1Math_1_1Matrix4.html#a02dc0417ebe852f1ef2ac703f5d5711e" target="_top" xlink:title=" ">
<polygon fill="white" stroke="#666666" points="606.25,-123 504.75,-123 504.75,-91 606.25,-91 606.25,-123"/>
<text xml:space="preserve" text-anchor="start" x="512.75" y="-109.5" font-family="Helvetica,sans-Serif" font-size="10.00">LGE::Math::Matrix4</text>
<text xml:space="preserve" text-anchor="middle" x="555.5" y="-97.5" font-family="Helvetica,sans-Serif" font-size="10.00">::Matrix4</text>
</a>
</g>
</g>
<!-- Node3&#45;&gt;Node4 -->
<g id="edge3_Node000003_Node000004" class="edge">
<title>Node3&#45;&gt;Node4</title>
<g id="a_edge3_Node000003_Node000004"><a xlink:title=" ">
<path fill="none" stroke="#63b8ff" d="M463.37,-140.63C474.83,-136.4 487.31,-131.79 499.26,-127.38"/>
<polygon fill="#63b8ff" stroke="#63b8ff" points="500.44,-130.68 508.61,-123.93 498.02,-124.11 500.44,-130.68"/>
</a>
</g>
</g>
<!-- Node5&#45;&gt;Node4 -->
<g id="edge5_Node000005_Node000004" class="edge">
<title>Node5&#45;&gt;Node4</title>
<g id="a_edge5_Node000005_Node000004"><a xlink:title=" ">
<path fill="none" stroke="#63b8ff" d="M469.07,-107C476.96,-107 485.2,-107 493.31,-107"/>
<polygon fill="#63b8ff" stroke="#63b8ff" points="493.12,-110.5 503.12,-107 493.12,-103.5 493.12,-110.5"/>
</a>
</g>
</g>
<!-- Node7 -->
<g id="Node000007" class="node">
<title>Node7</title>
<g id="a_Node000007"><a xlink:href="structLGE_1_1Math_1_1Matrix4.html#af83a1273cd30fbd76f827b132a1c4e94" target="_top" xlink:title=" ">
<polygon fill="white" stroke="#666666" points="468.75,-73 367.25,-73 367.25,-41 468.75,-41 468.75,-73"/>
<text xml:space="preserve" text-anchor="start" x="375.25" y="-59.5" font-family="Helvetica,sans-Serif" font-size="10.00">LGE::Math::Matrix4</text>
<text xml:space="preserve" text-anchor="middle" x="418" y="-47.5" font-family="Helvetica,sans-Serif" font-size="10.00">::LookAt</text>
</a>
</g>
</g>
<!-- Node6&#45;&gt;Node7 -->
<g id="edge7_Node000006_Node000007" class="edge">
<title>Node6&#45;&gt;Node7</title>
<g id="a_edge7_Node000006_Node000007"><a xlink:title=" ">
<path fill="none" stroke="#63b8ff" d="M323.31,-58.61C334.31,-58.42 345.44,-58.23 356.01,-58.05"/>
<polygon fill="#63b8ff" stroke="#63b8ff" points="355.78,-61.56 365.71,-57.88 355.65,-54.56 355.78,-61.56"/>
</a>
</g>
</g>
<!-- Node7&#45;&gt;Node4 -->
<g id="edge8_Node000007_Node000004" class="edge">
<title>Node7&#45;&gt;Node4</title>
<g id="a_edge8_Node000007_Node000004"><a xlink:title=" ">
<path fill="none" stroke="#63b8ff" d="M463.37,-73.37C474.83,-77.6 487.31,-82.21 499.26,-86.62"/>
<polygon fill="#63b8ff" stroke="#63b8ff" points="498.02,-89.89 508.61,-90.07 500.44,-83.32 498.02,-89.89"/>
</a>
</g>
</g>
</g>
</svg>
