<?xml version="1.0" encoding="UTF-8" standalone="no"?>
<!DOCTYPE svg PUBLIC "-//W3C//DTD SVG 1.1//EN"
 "http://www.w3.org/Graphics/SVG/1.1/DTD/svg11.dtd">
<!-- Generated by graphviz version 14.0.2 (20251019.1705)
 -->
<!-- Title: LGE::ProjectManager::LoadProjectConfig Pages: 1 -->
<svg width="271pt" height="166pt"
 viewBox="0.00 0.00 271.00 166.00" xmlns="http://www.w3.org/2000/svg" xmlns:xlink="http://www.w3.org/1999/xlink">
<g id="graph0" class="graph" transform="scale(1 1) rotate(0) translate(4 162)">
<title>LGE::ProjectManager::LoadProjectConfig</title>
<!-- Node1 -->
<g id="Node000001" class="node">
<title>Node1</title>
<g id="a_Node000001"><a xlink:title=" ">
<polygon fill="#999999" stroke="#666666" points="109.75,-104 0,-104 0,-72 109.75,-72 109.75,-104"/>
<text xml:space="preserve" text-anchor="start" x="8" y="-90.5" font-family="Helvetica,sans-Serif" font-size="10.00">LGE::ProjectManager</text>
<text xml:space="preserve" text-anchor="middle" x="54.88" y="-78.5" font-family="Helvetica,sans-Serif" font-size="10.00">::LoadProjectConfig</text>
</a>
</g>
</g>
<!-- Node2 -->
<g id="Node000002" class="node">
<title>Node2</title>
<g id="a_Node000002"><a xlink:href="classLGE_1_1Log.html#a53f3f4b8797ffd18145739c9e66d690a" target="_top" xlink:title=" ">
<polygon fill="white" stroke="#666666" points="246.5,-158 162.25,-158 162.25,-138 246.5,-138 246.5,-158"/>
<text xml:space="preserve" text-anchor="middle" x="204.38" y="-144.5" font-family="Helvetica,sans-Serif" font-size="10.00">LGE::Log::Error</text>
</a>
</g>
</g>
<!-- Node1&#45;&gt;Node2 -->
<g id="edge1_Node000001_Node000002" class="edge">
<title>Node1&#45;&gt;Node2</title>
<g id="a_edge1_Node000001_Node000002"><a xlink:title=" ">
<path fill="none" stroke="#63b8ff" d="M89.64,-104.46C106.34,-112.33 126.91,-121.62 145.75,-129 150.05,-130.69 154.57,-132.35 159.11,-133.95"/>
<polygon fill="#63b8ff" stroke="#63b8ff" points="157.61,-137.14 168.2,-137.07 159.88,-130.52 157.61,-137.14"/>
</a>
</g>
</g>
<!-- Node3 -->
<g id="Node000003" class="node">
<title>Node3</title>
<g id="a_Node000003"><a xlink:href="namespaceLGE_1_1LxFile.html#a11e62876b312a11b881b484bb3a5ee71" target="_top" xlink:title=" ">
<polygon fill="white" stroke="#666666" points="255.12,-120 153.62,-120 153.62,-100 255.12,-100 255.12,-120"/>
<text xml:space="preserve" text-anchor="middle" x="204.38" y="-106.5" font-family="Helvetica,sans-Serif" font-size="10.00">LGE::LxFile::Exists</text>
</a>
</g>
</g>
<!-- Node1&#45;&gt;Node3 -->
<g id="edge2_Node000001_Node000003" class="edge">
<title>Node1&#45;&gt;Node3</title>
<g id="a_edge2_Node000001_Node000003"><a xlink:title=" ">
<path fill="none" stroke="#63b8ff" d="M109.96,-96.07C120.35,-97.62 131.29,-99.25 141.89,-100.83"/>
<polygon fill="#63b8ff" stroke="#63b8ff" points="141.31,-104.28 151.72,-102.29 142.34,-97.36 141.31,-104.28"/>
</a>
</g>
</g>
<!-- Node4 -->
<g id="Node000004" class="node">
<title>Node4</title>
<g id="a_Node000004"><a xlink:href="classLGE_1_1ProjectManager.html#a9621676627f1701a53614374eafb54b8" target="_top" xlink:title=" ">
<polygon fill="white" stroke="#666666" points="263,-82 145.75,-82 145.75,-50 263,-50 263,-82"/>
<text xml:space="preserve" text-anchor="start" x="153.75" y="-68.5" font-family="Helvetica,sans-Serif" font-size="10.00">LGE::ProjectManager</text>
<text xml:space="preserve" text-anchor="middle" x="204.38" y="-56.5" font-family="Helvetica,sans-Serif" font-size="10.00">::GetProjectConfigPath</text>
</a>
</g>
</g>
<!-- Node1&#45;&gt;Node4 -->
<g id="edge3_Node000001_Node000004" class="edge">
<title>Node1&#45;&gt;Node4</title>
<g id="a_edge3_Node000001_Node000004"><a xlink:title=" ">
<path fill="none" stroke="#63b8ff" d="M109.96,-79.93C117.78,-78.77 125.93,-77.55 134,-76.35"/>
<polygon fill="#63b8ff" stroke="#63b8ff" points="134.45,-79.82 143.83,-74.88 133.42,-72.9 134.45,-79.82"/>
</a>
</g>
</g>
<!-- Node5 -->
<g id="Node000005" class="node">
<title>Node5</title>
<g id="a_Node000005"><a xlink:href="classLGE_1_1ProjectManager.html#a571126a16516a7d443affd9339814e36" target="_top" xlink:title=" ">
<polygon fill="white" stroke="#666666" points="261.12,-32 147.62,-32 147.62,0 261.12,0 261.12,-32"/>
<text xml:space="preserve" text-anchor="start" x="155.62" y="-18.5" font-family="Helvetica,sans-Serif" font-size="10.00">LGE::ProjectManager</text>
<text xml:space="preserve" text-anchor="middle" x="204.38" y="-6.5" font-family="Helvetica,sans-Serif" font-size="10.00">::StringToGraphicsAPI</text>
</a>
</g>
</g>
<!-- Node1&#45;&gt;Node5 -->
<g id="edge4_Node000001_Node000005" class="edge">
<title>Node1&#45;&gt;Node5</title>
<g id="a_edge4_Node000001_Node000005"><a xlink:title=" ">
<path fill="none" stroke="#63b8ff" d="M85.97,-71.57C103.29,-62.28 125.57,-50.64 145.75,-41 148.47,-39.7 151.27,-38.39 154.11,-37.09"/>
<polygon fill="#63b8ff" stroke="#63b8ff" points="155.4,-40.35 163.07,-33.05 152.52,-33.97 155.4,-40.35"/>
</a>
</g>
</g>
</g>
</svg>
