<?xml version="1.0" encoding="UTF-8" standalone="no"?>
<!DOCTYPE svg PUBLIC "-//W3C//DTD SVG 1.1//EN"
 "http://www.w3.org/Graphics/SVG/1.1/DTD/svg11.dtd">
<!-- Generated by graphviz version 14.0.2 (20251019.1705)
 -->
<!-- Title: LGE::SearchQuery::Mount Pages: 1 -->
<svg width="367pt" height="28pt"
 viewBox="0.00 0.00 367.00 28.00" xmlns="http://www.w3.org/2000/svg" xmlns:xlink="http://www.w3.org/1999/xlink">
<g id="graph0" class="graph" transform="scale(1 1) rotate(0) translate(4 24)">
<title>LGE::SearchQuery::Mount</title>
<!-- Node1 -->
<g id="Node000001" class="node">
<title>Node1</title>
<g id="a_Node000001"><a xlink:title=" ">
<polygon fill="#999999" stroke="#666666" points="358.5,-20 227,-20 227,0 358.5,0 358.5,-20"/>
<text xml:space="preserve" text-anchor="middle" x="292.75" y="-6.5" font-family="Helvetica,sans-Serif" font-size="10.00">LGE::SearchQuery::Mount</text>
</a>
</g>
</g>
<!-- Node2 -->
<g id="Node000002" class="node">
<title>Node2</title>
<g id="a_Node000002"><a xlink:href="namespaceLGE_1_1Search.html#a075f20f5304570afa55e5ef522765e72" target="_top" xlink:title=" ">
<polygon fill="white" stroke="#666666" points="191,-20 77.5,-20 77.5,0 191,0 191,-20"/>
<text xml:space="preserve" text-anchor="middle" x="134.25" y="-6.5" font-family="Helvetica,sans-Serif" font-size="10.00">LGE::Search::InMount</text>
</a>
</g>
</g>
<!-- Node1&#45;&gt;Node2 -->
<g id="edge1_Node000001_Node000002" class="edge">
<title>Node1&#45;&gt;Node2</title>
<g id="a_edge1_Node000001_Node000002"><a xlink:title=" ">
<path fill="none" stroke="#63b8ff" d="M215.35,-10C207.26,-10 199.14,-10 191.34,-10"/>
<polygon fill="#63b8ff" stroke="#63b8ff" points="215.23,-13.5 225.23,-10 215.23,-6.5 215.23,-13.5"/>
</a>
</g>
</g>
<!-- Node3 -->
<g id="Node000003" class="node">
<title>Node3</title>
<g id="a_Node000003"><a xlink:href="TestSearch_8cpp.html#ad770bade109d5488d8747315303c5509" target="_top" xlink:title=" ">
<polygon fill="white" stroke="#666666" points="41.5,-20 0,-20 0,0 41.5,0 41.5,-20"/>
<text xml:space="preserve" text-anchor="middle" x="20.75" y="-6.5" font-family="Helvetica,sans-Serif" font-size="10.00">TEST</text>
</a>
</g>
</g>
<!-- Node2&#45;&gt;Node3 -->
<g id="edge2_Node000002_Node000003" class="edge">
<title>Node2&#45;&gt;Node3</title>
<g id="a_edge2_Node000002_Node000003"><a xlink:title=" ">
<path fill="none" stroke="#63b8ff" d="M65.95,-10C57.2,-10 48.84,-10 41.8,-10"/>
<polygon fill="#63b8ff" stroke="#63b8ff" points="65.66,-13.5 75.66,-10 65.66,-6.5 65.66,-13.5"/>
</a>
</g>
</g>
</g>
</svg>
