<?xml version="1.0" encoding="UTF-8" standalone="no"?>
<!DOCTYPE svg PUBLIC "-//W3C//DTD SVG 1.1//EN"
 "http://www.w3.org/Graphics/SVG/1.1/DTD/svg11.dtd">
<!-- Generated by graphviz version 14.0.2 (20251019.1705)
 -->
<!-- Title: LGE::ExporterRegistry::GetExportersForAssetType Pages: 1 -->
<svg width="605pt" height="140pt"
 viewBox="0.00 0.00 605.00 140.00" xmlns="http://www.w3.org/2000/svg" xmlns:xlink="http://www.w3.org/1999/xlink">
<g id="graph0" class="graph" transform="scale(1 1) rotate(0) translate(4 136)">
<title>LGE::ExporterRegistry::GetExportersForAssetType</title>
<!-- Node1 -->
<g id="Node000001" class="node">
<title>Node1</title>
<g id="a_Node000001"><a xlink:title=" ">
<polygon fill="#999999" stroke="#666666" points="596.5,-82 456,-82 456,-50 596.5,-50 596.5,-82"/>
<text xml:space="preserve" text-anchor="start" x="464" y="-68.5" font-family="Helvetica,sans-Serif" font-size="10.00">LGE::ExporterRegistry</text>
<text xml:space="preserve" text-anchor="middle" x="526.25" y="-56.5" font-family="Helvetica,sans-Serif" font-size="10.00">::GetExportersForAssetType</text>
</a>
</g>
</g>
<!-- Node2 -->
<g id="Node000002" class="node">
<title>Node2</title>
<g id="a_Node000002"><a xlink:href="classLGE_1_1ExporterRegistry.html#ad82dc9d8af6fd8db1fd26334c3d4c936" target="_top" xlink:title=" ">
<polygon fill="white" stroke="#666666" points="407.25,-132 292.25,-132 292.25,-100 407.25,-100 407.25,-132"/>
<text xml:space="preserve" text-anchor="start" x="300.25" y="-118.5" font-family="Helvetica,sans-Serif" font-size="10.00">LGE::ExporterRegistry</text>
<text xml:space="preserve" text-anchor="middle" x="349.75" y="-106.5" font-family="Helvetica,sans-Serif" font-size="10.00">::CanExport</text>
</a>
</g>
</g>
<!-- Node1&#45;&gt;Node2 -->
<g id="edge1_Node000001_Node000002" class="edge">
<title>Node1&#45;&gt;Node2</title>
<g id="a_edge1_Node000001_Node000002"><a xlink:title=" ">
<path fill="none" stroke="#63b8ff" d="M457.47,-85.42C441.03,-90.13 423.61,-95.12 407.72,-99.68"/>
<polygon fill="#63b8ff" stroke="#63b8ff" points="458.01,-88.91 466.66,-82.79 456.08,-82.18 458.01,-88.91"/>
</a>
</g>
</g>
<!-- Node4 -->
<g id="Node000004" class="node">
<title>Node4</title>
<g id="a_Node000004"><a xlink:href="classLGE_1_1ExporterRegistry.html#afebfc7dc6cbc135a46cc8e4d543074e6" target="_top" xlink:title=" ">
<polygon fill="white" stroke="#666666" points="407.25,-82 292.25,-82 292.25,-50 407.25,-50 407.25,-82"/>
<text xml:space="preserve" text-anchor="start" x="300.25" y="-68.5" font-family="Helvetica,sans-Serif" font-size="10.00">LGE::ExporterRegistry</text>
<text xml:space="preserve" text-anchor="middle" x="349.75" y="-56.5" font-family="Helvetica,sans-Serif" font-size="10.00">::GetExporterForAsset</text>
</a>
</g>
</g>
<!-- Node1&#45;&gt;Node4 -->
<g id="edge3_Node000001_Node000004" class="edge">
<title>Node1&#45;&gt;Node4</title>
<g id="a_edge3_Node000001_Node000004"><a xlink:title=" ">
<path fill="none" stroke="#63b8ff" d="M444.21,-66C431.8,-66 419.23,-66 407.49,-66"/>
<polygon fill="#63b8ff" stroke="#63b8ff" points="444.02,-69.5 454.02,-66 444.02,-62.5 444.02,-69.5"/>
</a>
</g>
</g>
<!-- Node7 -->
<g id="Node000007" class="node">
<title>Node7</title>
<g id="a_Node000007"><a xlink:href="namespaceLGE_1_1ImportExport.html#a968f8e6b9f6cbc50d68c187ae306273c" target="_top" xlink:title=" ">
<polygon fill="white" stroke="#666666" points="420,-32 279.5,-32 279.5,0 420,0 420,-32"/>
<text xml:space="preserve" text-anchor="start" x="287.5" y="-18.5" font-family="Helvetica,sans-Serif" font-size="10.00">LGE::ImportExport::</text>
<text xml:space="preserve" text-anchor="middle" x="349.75" y="-6.5" font-family="Helvetica,sans-Serif" font-size="10.00">GetSupportedExportFormats</text>
</a>
</g>
</g>
<!-- Node1&#45;&gt;Node7 -->
<g id="edge6_Node000001_Node000007" class="edge">
<title>Node1&#45;&gt;Node7</title>
<g id="a_edge6_Node000001_Node000007"><a xlink:title=" ">
<path fill="none" stroke="#63b8ff" d="M457.12,-46.48C440.98,-41.85 423.93,-36.97 408.31,-32.49"/>
<polygon fill="#63b8ff" stroke="#63b8ff" points="456.08,-49.82 466.66,-49.21 458.01,-43.09 456.08,-49.82"/>
</a>
</g>
</g>
<!-- Node3 -->
<g id="Node000003" class="node">
<title>Node3</title>
<g id="a_Node000003"><a xlink:href="namespaceLGE_1_1ImportExport.html#a389b387b263bd0aa87865967d605dcda" target="_top" xlink:title=" ">
<polygon fill="white" stroke="#666666" points="243.5,-132 139.75,-132 139.75,-100 243.5,-100 243.5,-132"/>
<text xml:space="preserve" text-anchor="start" x="147.75" y="-118.5" font-family="Helvetica,sans-Serif" font-size="10.00">LGE::ImportExport::</text>
<text xml:space="preserve" text-anchor="middle" x="191.62" y="-106.5" font-family="Helvetica,sans-Serif" font-size="10.00">CanExport</text>
</a>
</g>
</g>
<!-- Node2&#45;&gt;Node3 -->
<g id="edge2_Node000002_Node000003" class="edge">
<title>Node2&#45;&gt;Node3</title>
<g id="a_edge2_Node000002_Node000003"><a xlink:title=" ">
<path fill="none" stroke="#63b8ff" d="M280.74,-116C268.4,-116 255.71,-116 243.95,-116"/>
<polygon fill="#63b8ff" stroke="#63b8ff" points="280.43,-119.5 290.43,-116 280.43,-112.5 280.43,-119.5"/>
</a>
</g>
</g>
<!-- Node5 -->
<g id="Node000005" class="node">
<title>Node5</title>
<g id="a_Node000005"><a xlink:href="namespaceLGE_1_1ImportExport.html#aee6be1efe068881b5c6d41e8011b729c" target="_top" xlink:title=" ">
<polygon fill="white" stroke="#666666" points="243.5,-82 139.75,-82 139.75,-50 243.5,-50 243.5,-82"/>
<text xml:space="preserve" text-anchor="start" x="147.75" y="-68.5" font-family="Helvetica,sans-Serif" font-size="10.00">LGE::ImportExport::</text>
<text xml:space="preserve" text-anchor="middle" x="191.62" y="-56.5" font-family="Helvetica,sans-Serif" font-size="10.00">ExportAsset</text>
</a>
</g>
</g>
<!-- Node4&#45;&gt;Node5 -->
<g id="edge4_Node000004_Node000005" class="edge">
<title>Node4&#45;&gt;Node5</title>
<g id="a_edge4_Node000004_Node000005"><a xlink:title=" ">
<path fill="none" stroke="#63b8ff" d="M280.74,-66C268.4,-66 255.71,-66 243.95,-66"/>
<polygon fill="#63b8ff" stroke="#63b8ff" points="280.43,-69.5 290.43,-66 280.43,-62.5 280.43,-69.5"/>
</a>
</g>
</g>
<!-- Node6 -->
<g id="Node000006" class="node">
<title>Node6</title>
<g id="a_Node000006"><a xlink:href="namespaceLGE_1_1ImportExport.html#a9f66230255c444c6b3c439ce3c1459f6" target="_top" xlink:title=" ">
<polygon fill="white" stroke="#666666" points="103.75,-82 0,-82 0,-50 103.75,-50 103.75,-82"/>
<text xml:space="preserve" text-anchor="start" x="8" y="-68.5" font-family="Helvetica,sans-Serif" font-size="10.00">LGE::ImportExport::</text>
<text xml:space="preserve" text-anchor="middle" x="51.88" y="-56.5" font-family="Helvetica,sans-Serif" font-size="10.00">ExportAssets</text>
</a>
</g>
</g>
<!-- Node5&#45;&gt;Node6 -->
<g id="edge5_Node000005_Node000006" class="edge">
<title>Node5&#45;&gt;Node6</title>
<g id="a_edge5_Node000005_Node000006"><a xlink:title=" ">
<path fill="none" stroke="#63b8ff" d="M127.86,-66C119.95,-66 111.92,-66 104.21,-66"/>
<polygon fill="#63b8ff" stroke="#63b8ff" points="127.82,-69.5 137.82,-66 127.82,-62.5 127.82,-69.5"/>
</a>
</g>
</g>
</g>
</svg>
