<?xml version="1.0" encoding="UTF-8" standalone="no"?>
<!DOCTYPE svg PUBLIC "-//W3C//DTD SVG 1.1//EN"
 "http://www.w3.org/Graphics/SVG/1.1/DTD/svg11.dtd">
<!-- Generated by graphviz version 14.0.2 (20251019.1705)
 -->
<!-- Title: LGE::Application::Initialize Pages: 1 -->
<svg width="493pt" height="218pt"
 viewBox="0.00 0.00 493.00 218.00" xmlns="http://www.w3.org/2000/svg" xmlns:xlink="http://www.w3.org/1999/xlink">
<g id="graph0" class="graph" transform="scale(1 1) rotate(0) translate(4 214)">
<title>LGE::Application::Initialize</title>
<!-- Node1 -->
<g id="Node000001" class="node">
<title>Node1</title>
<g id="a_Node000001"><a xlink:title=" ">
<polygon fill="#999999" stroke="#666666" points="131.5,-115 0,-115 0,-95 131.5,-95 131.5,-115"/>
<text xml:space="preserve" text-anchor="middle" x="65.75" y="-101.5" font-family="Helvetica,sans-Serif" font-size="10.00">LGE::Application::Initialize</text>
</a>
</g>
</g>
<!-- Node2 -->
<g id="Node000002" class="node">
<title>Node2</title>
<g id="a_Node000002"><a xlink:href="classLGE_1_1Renderer.html#a877283a2b6b1d662f9b65a201446cbb1" target="_top" xlink:title=" ">
<polygon fill="white" stroke="#666666" points="285.5,-172 169,-172 169,-152 285.5,-152 285.5,-172"/>
<text xml:space="preserve" text-anchor="middle" x="227.25" y="-158.5" font-family="Helvetica,sans-Serif" font-size="10.00">LGE::Renderer::Create</text>
</a>
</g>
</g>
<!-- Node1&#45;&gt;Node2 -->
<g id="edge1_Node000001_Node000002" class="edge">
<title>Node1&#45;&gt;Node2</title>
<g id="a_edge1_Node000001_Node000002"><a xlink:title=" ">
<path fill="none" stroke="#63b8ff" d="M96,-115.45C121.33,-124.51 158.2,-137.68 186.25,-147.71"/>
<polygon fill="#63b8ff" stroke="#63b8ff" points="184.89,-150.94 195.49,-151.01 187.25,-144.34 184.89,-150.94"/>
</a>
</g>
</g>
<!-- Node3 -->
<g id="Node000003" class="node">
<title>Node3</title>
<g id="a_Node000003"><a xlink:href="classLGE_1_1Log.html#a53f3f4b8797ffd18145739c9e66d690a" target="_top" xlink:title=" ">
<polygon fill="white" stroke="#666666" points="446.25,-210 362,-210 362,-190 446.25,-190 446.25,-210"/>
<text xml:space="preserve" text-anchor="middle" x="404.12" y="-196.5" font-family="Helvetica,sans-Serif" font-size="10.00">LGE::Log::Error</text>
</a>
</g>
</g>
<!-- Node1&#45;&gt;Node3 -->
<g id="edge5_Node000001_Node000003" class="edge">
<title>Node1&#45;&gt;Node3</title>
<g id="a_edge5_Node000001_Node000003"><a xlink:title=" ">
<path fill="none" stroke="#63b8ff" d="M76.42,-115.41C93.1,-132.6 129.2,-166.44 167.5,-181 227.16,-203.69 301.3,-205.82 350.3,-204"/>
<polygon fill="#63b8ff" stroke="#63b8ff" points="350.24,-207.51 360.07,-203.56 349.93,-200.51 350.24,-207.51"/>
</a>
</g>
</g>
<!-- Node4 -->
<g id="Node000004" class="node">
<title>Node4</title>
<g id="a_Node000004"><a xlink:href="classLGE_1_1Log.html#ab0265ee050b8873a2fd31fbdb696ced0" target="_top" xlink:title=" ">
<polygon fill="white" stroke="#666666" points="444,-134 364.25,-134 364.25,-114 444,-114 444,-134"/>
<text xml:space="preserve" text-anchor="middle" x="404.12" y="-120.5" font-family="Helvetica,sans-Serif" font-size="10.00">LGE::Log::Info</text>
</a>
</g>
</g>
<!-- Node1&#45;&gt;Node4 -->
<g id="edge7_Node000001_Node000004" class="edge">
<title>Node1&#45;&gt;Node4</title>
<g id="a_edge7_Node000001_Node000004"><a xlink:title=" ">
<path fill="none" stroke="#63b8ff" d="M131.61,-108.66C196.22,-112.31 294.05,-117.84 352.95,-121.17"/>
<polygon fill="#63b8ff" stroke="#63b8ff" points="352.5,-124.65 362.68,-121.72 352.89,-117.66 352.5,-124.65"/>
</a>
</g>
</g>
<!-- Node6 -->
<g id="Node000006" class="node">
<title>Node6</title>
<g id="a_Node000006"><a xlink:href="classLGE_1_1Renderer.html#ab686b11e3cebf89e6c87e929e1eb4678" target="_top" xlink:title=" ">
<polygon fill="white" stroke="#666666" points="287,-96 167.5,-96 167.5,-76 287,-76 287,-96"/>
<text xml:space="preserve" text-anchor="middle" x="227.25" y="-82.5" font-family="Helvetica,sans-Serif" font-size="10.00">LGE::Renderer::GetAPI</text>
</a>
</g>
</g>
<!-- Node1&#45;&gt;Node6 -->
<g id="edge6_Node000001_Node000006" class="edge">
<title>Node1&#45;&gt;Node6</title>
<g id="a_edge6_Node000001_Node000006"><a xlink:title=" ">
<path fill="none" stroke="#63b8ff" d="M131.62,-97.27C139.6,-96.32 147.78,-95.35 155.82,-94.39"/>
<polygon fill="#63b8ff" stroke="#63b8ff" points="156.07,-97.89 165.58,-93.23 155.24,-90.93 156.07,-97.89"/>
</a>
</g>
</g>
<!-- Node7 -->
<g id="Node000007" class="node">
<title>Node7</title>
<g id="a_Node000007"><a xlink:href="classLGE_1_1UI.html#a8654b6ea7732d4cdef595431bd0bffc7" target="_top" xlink:title=" ">
<polygon fill="white" stroke="#666666" points="274.25,-58 180.25,-58 180.25,-38 274.25,-38 274.25,-58"/>
<text xml:space="preserve" text-anchor="middle" x="227.25" y="-44.5" font-family="Helvetica,sans-Serif" font-size="10.00">LGE::UI::Initialize</text>
</a>
</g>
</g>
<!-- Node1&#45;&gt;Node7 -->
<g id="edge8_Node000001_Node000007" class="edge">
<title>Node1&#45;&gt;Node7</title>
<g id="a_edge8_Node000001_Node000007"><a xlink:title=" ">
<path fill="none" stroke="#63b8ff" d="M93.14,-94.65C113.39,-86.81 142.09,-75.89 167.5,-67 172.24,-65.34 177.21,-63.65 182.17,-62"/>
<polygon fill="#63b8ff" stroke="#63b8ff" points="183.07,-65.39 191.47,-58.95 180.88,-58.74 183.07,-65.39"/>
</a>
</g>
</g>
<!-- Node10 -->
<g id="Node000010" class="node">
<title>Node10</title>
<g id="a_Node000010"><a xlink:href="classLGE_1_1Renderer.html#afa2787dc0a5661e663a2b7f18fe66f54" target="_top" xlink:title=" ">
<polygon fill="white" stroke="#666666" points="286.62,-20 167.88,-20 167.88,0 286.62,0 286.62,-20"/>
<text xml:space="preserve" text-anchor="middle" x="227.25" y="-6.5" font-family="Helvetica,sans-Serif" font-size="10.00">LGE::Renderer::SetAPI</text>
</a>
</g>
</g>
<!-- Node1&#45;&gt;Node10 -->
<g id="edge11_Node000001_Node000010" class="edge">
<title>Node1&#45;&gt;Node10</title>
<g id="a_edge11_Node000001_Node000010"><a xlink:title=" ">
<path fill="none" stroke="#63b8ff" d="M77.69,-94.76C95.33,-78.72 131.73,-47.6 167.5,-29 170.54,-27.42 173.74,-25.94 177.01,-24.55"/>
<polygon fill="#63b8ff" stroke="#63b8ff" points="178.1,-27.88 186.16,-21.01 175.57,-21.35 178.1,-27.88"/>
</a>
</g>
</g>
<!-- Node2&#45;&gt;Node3 -->
<g id="edge2_Node000002_Node000003" class="edge">
<title>Node2&#45;&gt;Node3</title>
<g id="a_edge2_Node000002_Node000003"><a xlink:title=" ">
<path fill="none" stroke="#63b8ff" d="M276.5,-172.48C299.43,-177.47 326.91,-183.44 350.39,-188.54"/>
<polygon fill="#63b8ff" stroke="#63b8ff" points="349.57,-191.94 360.09,-190.65 351.06,-185.1 349.57,-191.94"/>
</a>
</g>
</g>
<!-- Node2&#45;&gt;Node4 -->
<g id="edge3_Node000002_Node000004" class="edge">
<title>Node2&#45;&gt;Node4</title>
<g id="a_edge3_Node000002_Node000004"><a xlink:title=" ">
<path fill="none" stroke="#63b8ff" d="M276.5,-151.52C300.24,-146.36 328.84,-140.14 352.84,-134.93"/>
<polygon fill="#63b8ff" stroke="#63b8ff" points="353.36,-138.4 362.39,-132.85 351.87,-131.56 353.36,-138.4"/>
</a>
</g>
</g>
<!-- Node5 -->
<g id="Node000005" class="node">
<title>Node5</title>
<g id="a_Node000005"><a xlink:href="classLGE_1_1Log.html#aa6f98018af29c23dd7f574d3df5dda5e" target="_top" xlink:title=" ">
<polygon fill="white" stroke="#666666" points="447,-172 361.25,-172 361.25,-152 447,-152 447,-172"/>
<text xml:space="preserve" text-anchor="middle" x="404.12" y="-158.5" font-family="Helvetica,sans-Serif" font-size="10.00">LGE::Log::Warn</text>
</a>
</g>
</g>
<!-- Node2&#45;&gt;Node5 -->
<g id="edge4_Node000002_Node000005" class="edge">
<title>Node2&#45;&gt;Node5</title>
<g id="a_edge4_Node000002_Node000005"><a xlink:title=" ">
<path fill="none" stroke="#63b8ff" d="M286,-162C306.45,-162 329.37,-162 349.48,-162"/>
<polygon fill="#63b8ff" stroke="#63b8ff" points="349.43,-165.5 359.43,-162 349.43,-158.5 349.43,-165.5"/>
</a>
</g>
</g>
<!-- Node8 -->
<g id="Node000008" class="node">
<title>Node8</title>
<g id="a_Node000008"><a xlink:href="classLGE_1_1UITheme.html#aef391e7b2adc251c63268db540539c3c" target="_top" xlink:title=" ">
<polygon fill="white" stroke="#666666" points="476.62,-80 331.62,-80 331.62,-48 476.62,-48 476.62,-80"/>
<text xml:space="preserve" text-anchor="start" x="339.62" y="-66.5" font-family="Helvetica,sans-Serif" font-size="10.00">LGE::UITheme::ApplyModern</text>
<text xml:space="preserve" text-anchor="middle" x="404.12" y="-54.5" font-family="Helvetica,sans-Serif" font-size="10.00">Theme</text>
</a>
</g>
</g>
<!-- Node7&#45;&gt;Node8 -->
<g id="edge9_Node000007_Node000008" class="edge">
<title>Node7&#45;&gt;Node8</title>
<g id="a_edge9_Node000007_Node000008"><a xlink:title=" ">
<path fill="none" stroke="#63b8ff" d="M274.65,-52.25C288.66,-53.53 304.48,-54.97 320.11,-56.4"/>
<polygon fill="#63b8ff" stroke="#63b8ff" points="319.65,-59.88 329.93,-57.3 320.29,-52.91 319.65,-59.88"/>
</a>
</g>
</g>
<!-- Node9 -->
<g id="Node000009" class="node">
<title>Node9</title>
<g id="a_Node000009"><a xlink:href="classLGE_1_1Window.html#a2181342e775ab5b5a060f6386042a97d" target="_top" xlink:title=" ">
<polygon fill="white" stroke="#666666" points="485.25,-30 323,-30 323,-10 485.25,-10 485.25,-30"/>
<text xml:space="preserve" text-anchor="middle" x="404.12" y="-16.5" font-family="Helvetica,sans-Serif" font-size="10.00">LGE::Window::GetNativeWindow</text>
</a>
</g>
</g>
<!-- Node7&#45;&gt;Node9 -->
<g id="edge10_Node000007_Node000009" class="edge">
<title>Node7&#45;&gt;Node9</title>
<g id="a_edge10_Node000007_Node000009"><a xlink:title=" ">
<path fill="none" stroke="#63b8ff" d="M274.65,-40.57C290.58,-38.02 308.86,-35.09 326.54,-32.26"/>
<polygon fill="#63b8ff" stroke="#63b8ff" points="326.93,-35.75 336.25,-30.71 325.82,-28.83 326.93,-35.75"/>
</a>
</g>
</g>
</g>
</svg>
