<?xml version="1.0" encoding="UTF-8" standalone="no"?>
<!DOCTYPE svg PUBLIC "-//W3C//DTD SVG 1.1//EN"
 "http://www.w3.org/Graphics/SVG/1.1/DTD/svg11.dtd">
<!-- Generated by graphviz version 14.0.2 (20251019.1705)
 -->
<!-- Title: LGE::AssetManager::Initialize Pages: 1 -->
<svg width="385pt" height="69pt"
 viewBox="0.00 0.00 385.00 69.00" xmlns="http://www.w3.org/2000/svg" xmlns:xlink="http://www.w3.org/1999/xlink">
<g id="graph0" class="graph" transform="scale(1 1) rotate(0) translate(4 65)">
<title>LGE::AssetManager::Initialize</title>
<!-- Node1 -->
<g id="Node000001" class="node">
<title>Node1</title>
<g id="a_Node000001"><a xlink:title=" ">
<polygon fill="#999999" stroke="#666666" points="110.5,-47 0,-47 0,-15 110.5,-15 110.5,-47"/>
<text xml:space="preserve" text-anchor="start" x="8" y="-33.5" font-family="Helvetica,sans-Serif" font-size="10.00">LGE::AssetManager::</text>
<text xml:space="preserve" text-anchor="middle" x="55.25" y="-21.5" font-family="Helvetica,sans-Serif" font-size="10.00">Initialize</text>
</a>
</g>
</g>
<!-- Node2 -->
<g id="Node000002" class="node">
<title>Node2</title>
<g id="a_Node000002"><a xlink:href="classLGE_1_1Log.html#a53f3f4b8797ffd18145739c9e66d690a" target="_top" xlink:title=" ">
<polygon fill="white" stroke="#666666" points="377.25,-61 293,-61 293,-41 377.25,-41 377.25,-61"/>
<text xml:space="preserve" text-anchor="middle" x="335.12" y="-47.5" font-family="Helvetica,sans-Serif" font-size="10.00">LGE::Log::Error</text>
</a>
</g>
</g>
<!-- Node1&#45;&gt;Node2 -->
<g id="edge1_Node000001_Node000002" class="edge">
<title>Node1&#45;&gt;Node2</title>
<g id="a_edge1_Node000001_Node000002"><a xlink:title=" ">
<path fill="none" stroke="#63b8ff" d="M106.34,-47.46C119.28,-50.99 133.29,-54.2 146.5,-56 195.16,-62.62 207.91,-57.59 257,-56 264.84,-55.75 273.12,-55.35 281.23,-54.88"/>
<polygon fill="#63b8ff" stroke="#63b8ff" points="281.24,-58.39 291.01,-54.28 280.82,-51.4 281.24,-58.39"/>
</a>
</g>
</g>
<!-- Node3 -->
<g id="Node000003" class="node">
<title>Node3</title>
<g id="a_Node000003"><a xlink:href="classLGE_1_1Log.html#ab0265ee050b8873a2fd31fbdb696ced0" target="_top" xlink:title=" ">
<polygon fill="white" stroke="#666666" points="375,-20 295.25,-20 295.25,0 375,0 375,-20"/>
<text xml:space="preserve" text-anchor="middle" x="335.12" y="-6.5" font-family="Helvetica,sans-Serif" font-size="10.00">LGE::Log::Info</text>
</a>
</g>
</g>
<!-- Node1&#45;&gt;Node3 -->
<g id="edge2_Node000001_Node000003" class="edge">
<title>Node1&#45;&gt;Node3</title>
<g id="a_edge2_Node000001_Node000003"><a xlink:title=" ">
<path fill="none" stroke="#63b8ff" d="M106.34,-14.54C119.28,-11.01 133.29,-7.8 146.5,-6 195.16,0.62 207.91,-4.73 257,-6 265.57,-6.22 274.68,-6.58 283.51,-7"/>
<polygon fill="#63b8ff" stroke="#63b8ff" points="283.23,-10.49 293.39,-7.5 283.58,-3.5 283.23,-10.49"/>
</a>
</g>
</g>
<!-- Node4 -->
<g id="Node000004" class="node">
<title>Node4</title>
<g id="a_Node000004"><a xlink:href="classLGE_1_1AssetManager.html#a016bb2d3a7522cd9cb54c9d743ec0446" target="_top" xlink:title=" ">
<polygon fill="white" stroke="#666666" points="257,-47 146.5,-47 146.5,-15 257,-15 257,-47"/>
<text xml:space="preserve" text-anchor="start" x="154.5" y="-33.5" font-family="Helvetica,sans-Serif" font-size="10.00">LGE::AssetManager::</text>
<text xml:space="preserve" text-anchor="middle" x="201.75" y="-21.5" font-family="Helvetica,sans-Serif" font-size="10.00">ScanAssets</text>
</a>
</g>
</g>
<!-- Node1&#45;&gt;Node4 -->
<g id="edge3_Node000001_Node000004" class="edge">
<title>Node1&#45;&gt;Node4</title>
<g id="a_edge3_Node000001_Node000004"><a xlink:title=" ">
<path fill="none" stroke="#63b8ff" d="M110.88,-31C118.61,-31 126.63,-31 134.55,-31"/>
<polygon fill="#63b8ff" stroke="#63b8ff" points="134.53,-34.5 144.53,-31 134.53,-27.5 134.53,-34.5"/>
</a>
</g>
</g>
<!-- Node4&#45;&gt;Node2 -->
<g id="edge4_Node000004_Node000002" class="edge">
<title>Node4&#45;&gt;Node2</title>
<g id="a_edge4_Node000004_Node000002"><a xlink:title=" ">
<path fill="none" stroke="#63b8ff" d="M257.32,-39.31C265.28,-40.52 273.46,-41.77 281.38,-42.97"/>
<polygon fill="#63b8ff" stroke="#63b8ff" points="280.83,-46.43 291.25,-44.47 281.89,-39.51 280.83,-46.43"/>
</a>
</g>
</g>
<!-- Node4&#45;&gt;Node3 -->
<g id="edge5_Node000004_Node000003" class="edge">
<title>Node4&#45;&gt;Node3</title>
<g id="a_edge5_Node000004_Node000003"><a xlink:title=" ">
<path fill="none" stroke="#63b8ff" d="M257.32,-22.28C266.15,-20.87 275.25,-19.41 283.96,-18.02"/>
<polygon fill="#63b8ff" stroke="#63b8ff" points="284.32,-21.51 293.64,-16.47 283.21,-14.59 284.32,-21.51"/>
</a>
</g>
</g>
</g>
</svg>
