<?xml version="1.0" encoding="UTF-8" standalone="no"?>
<!DOCTYPE svg PUBLIC "-//W3C//DTD SVG 1.1//EN"
 "http://www.w3.org/Graphics/SVG/1.1/DTD/svg11.dtd">
<!-- Generated by graphviz version 14.0.2 (20251019.1705)
 -->
<!-- Title: LGE::Application Pages: 1 -->
<svg width="319pt" height="288pt"
 viewBox="0.00 0.00 319.00 288.00" xmlns="http://www.w3.org/2000/svg" xmlns:xlink="http://www.w3.org/1999/xlink">
<g id="graph0" class="graph" transform="scale(1 1) rotate(0) translate(4 284)">
<title>LGE::Application</title>
<!-- Node1 -->
<g id="Node000001" class="node">
<title>Node1</title>
<g id="a_Node000001"><a xlink:title=" ">
<polygon fill="#999999" stroke="#666666" points="206.25,-20 116.75,-20 116.75,0 206.25,0 206.25,-20"/>
<text xml:space="preserve" text-anchor="middle" x="161.5" y="-6.5" font-family="Helvetica,sans-Serif" font-size="10.00">LGE::Application</text>
</a>
</g>
</g>
<!-- Node2 -->
<g id="Node000002" class="node">
<title>Node2</title>
<g id="a_Node000002"><a xlink:title=" ">
<polygon fill="white" stroke="#666666" points="109,-156 0,-156 0,-124 109,-124 109,-156"/>
<text xml:space="preserve" text-anchor="start" x="8" y="-142.5" font-family="Helvetica,sans-Serif" font-size="10.00">std::unique_ptr&lt; LGE</text>
<text xml:space="preserve" text-anchor="middle" x="54.5" y="-130.5" font-family="Helvetica,sans-Serif" font-size="10.00">::Window &gt;</text>
</a>
</g>
</g>
<!-- Node2&#45;&gt;Node1 -->
<g id="edge1_Node000001_Node000002" class="edge">
<title>Node2&#45;&gt;Node1</title>
<g id="a_edge1_Node000001_Node000002"><a xlink:title=" ">
<path fill="none" stroke="#9a32cd" stroke-dasharray="5,2" d="M42.06,-113.4C37.79,-100.78 35.66,-85.78 42.75,-74 59.83,-45.6 94.5,-29.32 121.99,-20.46"/>
<polygon fill="#9a32cd" stroke="#9a32cd" points="38.66,-114.34 45.62,-122.34 45.17,-111.75 38.66,-114.34"/>
</a>
</g>
<text xml:space="preserve" text-anchor="start" x="45.75" y="-86.5" font-family="Helvetica,sans-Serif" font-size="10.00" fill="grey">m_Window</text>
</g>
<!-- Node3 -->
<g id="Node000003" class="node">
<title>Node3</title>
<g id="a_Node000003"><a xlink:href="classLGE_1_1Window.html" target="_top" xlink:title=" ">
<polygon fill="white" stroke="#666666" points="125.88,-280 49.12,-280 49.12,-260 125.88,-260 125.88,-280"/>
<text xml:space="preserve" text-anchor="middle" x="87.5" y="-266.5" font-family="Helvetica,sans-Serif" font-size="10.00">LGE::Window</text>
</a>
</g>
</g>
<!-- Node3&#45;&gt;Node2 -->
<g id="edge2_Node000002_Node000003" class="edge">
<title>Node3&#45;&gt;Node2</title>
<g id="a_edge2_Node000002_Node000003"><a xlink:title=" ">
<path fill="none" stroke="#9a32cd" stroke-dasharray="5,2" d="M82.3,-248.81C75.67,-223.13 64.39,-179.35 58.44,-156.27"/>
<polygon fill="#9a32cd" stroke="#9a32cd" points="78.86,-249.52 84.75,-258.33 85.64,-247.77 78.86,-249.52"/>
</a>
</g>
<text xml:space="preserve" text-anchor="start" x="83.37" y="-229.5" font-family="Helvetica,sans-Serif" font-size="10.00" fill="grey">ptr</text>
</g>
<!-- Node5 -->
<g id="Node000005" class="node">
<title>Node5</title>
<g id="a_Node000005"><a xlink:href="classLGE_1_1Renderer.html" target="_top" xlink:title=" ">
<polygon fill="white" stroke="#666666" points="191.12,-200 109.88,-200 109.88,-180 191.12,-180 191.12,-200"/>
<text xml:space="preserve" text-anchor="middle" x="150.5" y="-186.5" font-family="Helvetica,sans-Serif" font-size="10.00">LGE::Renderer</text>
</a>
</g>
</g>
<!-- Node3&#45;&gt;Node5 -->
<g id="edge5_Node000005_Node000003" class="edge">
<title>Node3&#45;&gt;Node5</title>
<g id="a_edge5_Node000005_Node000003"><a xlink:title=" ">
<path fill="none" stroke="#9a32cd" stroke-dasharray="5,2" d="M102.14,-250.87C114.94,-235.03 133,-212.67 143.04,-200.24"/>
<polygon fill="#9a32cd" stroke="#9a32cd" points="99.49,-248.59 95.93,-258.57 104.93,-252.99 99.49,-248.59"/>
</a>
</g>
<text xml:space="preserve" text-anchor="start" x="125.77" y="-229.5" font-family="Helvetica,sans-Serif" font-size="10.00" fill="grey">m_Window</text>
</g>
<!-- Node4 -->
<g id="Node000004" class="node">
<title>Node4</title>
<g id="a_Node000004"><a xlink:title=" ">
<polygon fill="white" stroke="#666666" points="216,-106 107,-106 107,-74 216,-74 216,-106"/>
<text xml:space="preserve" text-anchor="start" x="115" y="-92.5" font-family="Helvetica,sans-Serif" font-size="10.00">std::unique_ptr&lt; LGE</text>
<text xml:space="preserve" text-anchor="middle" x="161.5" y="-80.5" font-family="Helvetica,sans-Serif" font-size="10.00">::Renderer &gt;</text>
</a>
</g>
</g>
<!-- Node4&#45;&gt;Node1 -->
<g id="edge3_Node000001_Node000004" class="edge">
<title>Node4&#45;&gt;Node1</title>
<g id="a_edge3_Node000001_Node000004"><a xlink:title=" ">
<path fill="none" stroke="#9a32cd" stroke-dasharray="5,2" d="M161.5,-62.23C161.5,-47.77 161.5,-30.81 161.5,-20.49"/>
<polygon fill="#9a32cd" stroke="#9a32cd" points="158,-62.08 161.5,-72.08 165,-62.08 158,-62.08"/>
</a>
</g>
<text xml:space="preserve" text-anchor="start" x="164.5" y="-43.5" font-family="Helvetica,sans-Serif" font-size="10.00" fill="grey">m_Renderer</text>
</g>
<!-- Node5&#45;&gt;Node4 -->
<g id="edge4_Node000004_Node000005" class="edge">
<title>Node5&#45;&gt;Node4</title>
<g id="a_edge4_Node000004_Node000005"><a xlink:title=" ">
<path fill="none" stroke="#9a32cd" stroke-dasharray="5,2" d="M152.82,-168.3C154.91,-149.73 157.92,-122.93 159.79,-106.26"/>
<polygon fill="#9a32cd" stroke="#9a32cd" points="149.36,-167.77 151.72,-178.1 156.32,-168.55 149.36,-167.77"/>
</a>
</g>
<text xml:space="preserve" text-anchor="start" x="160.63" y="-136.5" font-family="Helvetica,sans-Serif" font-size="10.00" fill="grey">ptr</text>
</g>
<!-- Node6 -->
<g id="Node000006" class="node">
<title>Node6</title>
<g id="a_Node000006"><a xlink:title=" ">
<polygon fill="white" stroke="#666666" points="293.25,-100 233.75,-100 233.75,-80 293.25,-80 293.25,-100"/>
<text xml:space="preserve" text-anchor="middle" x="263.5" y="-86.5" font-family="Helvetica,sans-Serif" font-size="10.00">std::string</text>
</a>
</g>
</g>
<!-- Node6&#45;&gt;Node1 -->
<g id="edge6_Node000001_Node000006" class="edge">
<title>Node6&#45;&gt;Node1</title>
<g id="a_edge6_Node000001_Node000006"><a xlink:title=" ">
<path fill="none" stroke="#9a32cd" stroke-dasharray="5,2" d="M252.36,-69.95C245.43,-59.41 235.71,-46.73 224.5,-38 214.92,-30.54 202.97,-24.74 192.07,-20.46"/>
<polygon fill="#9a32cd" stroke="#9a32cd" points="249.27,-71.6 257.52,-78.25 255.22,-67.91 249.27,-71.6"/>
</a>
</g>
<text xml:space="preserve" text-anchor="start" x="244.77" y="-43.5" font-family="Helvetica,sans-Serif" font-size="10.00" fill="grey">m_Name</text>
</g>
<!-- Node7 -->
<g id="Node000007" class="node">
<title>Node7</title>
<g id="a_Node000007"><a xlink:title=" ">
<polygon fill="white" stroke="#666666" points="310.5,-206 216.5,-206 216.5,-174 310.5,-174 310.5,-206"/>
<text xml:space="preserve" text-anchor="start" x="224.5" y="-192.5" font-family="Helvetica,sans-Serif" font-size="10.00">std::basic_string&lt;</text>
<text xml:space="preserve" text-anchor="middle" x="263.5" y="-180.5" font-family="Helvetica,sans-Serif" font-size="10.00"> Char &gt;</text>
</a>
</g>
</g>
<!-- Node7&#45;&gt;Node6 -->
<g id="edge7_Node000006_Node000007" class="edge">
<title>Node7&#45;&gt;Node6</title>
<g id="a_edge7_Node000006_Node000007"><a xlink:title=" ">
<path fill="none" stroke="#63b8ff" d="M263.5,-162.19C263.5,-141.6 263.5,-114.38 263.5,-100.31"/>
<polygon fill="#63b8ff" stroke="#63b8ff" points="260,-162.17 263.5,-172.17 267,-162.17 260,-162.17"/>
</a>
</g>
</g>
</g>
</svg>
