<?xml version="1.0" encoding="UTF-8" standalone="no"?>
<!DOCTYPE svg PUBLIC "-//W3C//DTD SVG 1.1//EN"
 "http://www.w3.org/Graphics/SVG/1.1/DTD/svg11.dtd">
<!-- Generated by graphviz version 14.0.2 (20251019.1705)
 -->
<!-- Title: LGE::Texture::LoadHDRImage Pages: 1 -->
<svg width="438pt" height="97pt"
 viewBox="0.00 0.00 438.00 97.00" xmlns="http://www.w3.org/2000/svg" xmlns:xlink="http://www.w3.org/1999/xlink">
<g id="graph0" class="graph" transform="scale(1 1) rotate(0) translate(4 93.47)">
<title>LGE::Texture::LoadHDRImage</title>
<!-- Node1 -->
<g id="Node000001" class="node">
<title>Node1</title>
<g id="a_Node000001"><a xlink:title=" ">
<polygon fill="#999999" stroke="#666666" points="150.25,-76 0,-76 0,-56 150.25,-56 150.25,-76"/>
<text xml:space="preserve" text-anchor="middle" x="75.12" y="-62.5" font-family="Helvetica,sans-Serif" font-size="10.00">LGE::Texture::LoadHDRImage</text>
</a>
</g>
</g>
<!-- Node2 -->
<g id="Node000002" class="node">
<title>Node2</title>
<g id="a_Node000002"><a xlink:href="classLGE_1_1Log.html#a53f3f4b8797ffd18145739c9e66d690a" target="_top" xlink:title=" ">
<polygon fill="white" stroke="#666666" points="429.75,-76 345.5,-76 345.5,-56 429.75,-56 429.75,-76"/>
<text xml:space="preserve" text-anchor="middle" x="387.62" y="-62.5" font-family="Helvetica,sans-Serif" font-size="10.00">LGE::Log::Error</text>
</a>
</g>
</g>
<!-- Node1&#45;&gt;Node2 -->
<g id="edge1_Node000001_Node000002" class="edge">
<title>Node1&#45;&gt;Node2</title>
<g id="a_edge1_Node000001_Node000002"><a xlink:title=" ">
<path fill="none" stroke="#63b8ff" d="M126.05,-76.47C144.83,-79.92 166.44,-83.3 186.25,-85 240.83,-89.67 255.12,-91.6 309.5,-85 319.85,-83.74 330.82,-81.57 341.14,-79.13"/>
<polygon fill="#63b8ff" stroke="#63b8ff" points="341.7,-82.6 350.55,-76.78 340,-75.81 341.7,-82.6"/>
</a>
</g>
</g>
<!-- Node3 -->
<g id="Node000003" class="node">
<title>Node3</title>
<g id="a_Node000003"><a xlink:href="classLGE_1_1Texture.html#a12b6e15cc5933afa86ef1364c2d329a5" target="_top" xlink:title=" ">
<polygon fill="white" stroke="#666666" points="308.75,-20 187,-20 187,0 308.75,0 308.75,-20"/>
<text xml:space="preserve" text-anchor="middle" x="247.88" y="-6.5" font-family="Helvetica,sans-Serif" font-size="10.00">LGE::Texture::LoadEXR</text>
</a>
</g>
</g>
<!-- Node1&#45;&gt;Node3 -->
<g id="edge2_Node000001_Node000003" class="edge">
<title>Node1&#45;&gt;Node3</title>
<g id="a_edge2_Node000001_Node000003"><a xlink:title=" ">
<path fill="none" stroke="#63b8ff" d="M107.84,-55.6C135.07,-46.67 174.55,-33.72 204.48,-23.9"/>
<polygon fill="#63b8ff" stroke="#63b8ff" points="205.19,-27.35 213.6,-20.91 203.01,-20.7 205.19,-27.35"/>
</a>
</g>
</g>
<!-- Node5 -->
<g id="Node000005" class="node">
<title>Node5</title>
<g id="a_Node000005"><a xlink:href="classLGE_1_1Texture.html#a71c3fce3209f046c3b01f501ac317ba1" target="_top" xlink:title=" ">
<polygon fill="white" stroke="#666666" points="309.5,-76 186.25,-76 186.25,-56 309.5,-56 309.5,-76"/>
<text xml:space="preserve" text-anchor="middle" x="247.88" y="-62.5" font-family="Helvetica,sans-Serif" font-size="10.00">LGE::Texture::LoadHDR</text>
</a>
</g>
</g>
<!-- Node1&#45;&gt;Node5 -->
<g id="edge6_Node000001_Node000005" class="edge">
<title>Node1&#45;&gt;Node5</title>
<g id="a_edge6_Node000001_Node000005"><a xlink:title=" ">
<path fill="none" stroke="#63b8ff" d="M150.52,-66C158.43,-66 166.47,-66 174.36,-66"/>
<polygon fill="#63b8ff" stroke="#63b8ff" points="174.26,-69.5 184.26,-66 174.26,-62.5 174.26,-69.5"/>
</a>
</g>
</g>
<!-- Node3&#45;&gt;Node2 -->
<g id="edge3_Node000003_Node000002" class="edge">
<title>Node3&#45;&gt;Node2</title>
<g id="a_edge3_Node000003_Node000002"><a xlink:title=" ">
<path fill="none" stroke="#63b8ff" d="M274.46,-20.4C295.92,-29.12 326.8,-41.68 350.73,-51.41"/>
<polygon fill="#63b8ff" stroke="#63b8ff" points="349.19,-54.56 359.77,-55.08 351.83,-48.08 349.19,-54.56"/>
</a>
</g>
</g>
<!-- Node3&#45;&gt;Node3 -->
<g id="edge5_Node000003_Node000003" class="edge">
<title>Node3&#45;&gt;Node3</title>
<g id="a_edge5_Node000003_Node000003"><a xlink:title=" ">
<path fill="none" stroke="#63b8ff" d="M225.67,-20.34C216.18,-28.98 223.58,-38 247.88,-38 261.16,-38 269.39,-35.3 272.58,-31.44"/>
<polygon fill="#63b8ff" stroke="#63b8ff" points="276.02,-30.8 270.41,-21.82 269.19,-32.34 276.02,-30.8"/>
</a>
</g>
</g>
<!-- Node4 -->
<g id="Node000004" class="node">
<title>Node4</title>
<g id="a_Node000004"><a xlink:href="classLGE_1_1Log.html#ab0265ee050b8873a2fd31fbdb696ced0" target="_top" xlink:title=" ">
<polygon fill="white" stroke="#666666" points="427.5,-29 347.75,-29 347.75,-9 427.5,-9 427.5,-29"/>
<text xml:space="preserve" text-anchor="middle" x="387.62" y="-15.5" font-family="Helvetica,sans-Serif" font-size="10.00">LGE::Log::Info</text>
</a>
</g>
</g>
<!-- Node3&#45;&gt;Node4 -->
<g id="edge4_Node000003_Node000004" class="edge">
<title>Node3&#45;&gt;Node4</title>
<g id="a_edge4_Node000003_Node000004"><a xlink:title=" ">
<path fill="none" stroke="#63b8ff" d="M308.89,-13.92C317.97,-14.51 327.25,-15.12 336.1,-15.7"/>
<polygon fill="#63b8ff" stroke="#63b8ff" points="335.7,-19.18 345.91,-16.34 336.16,-12.2 335.7,-19.18"/>
</a>
</g>
</g>
<!-- Node5&#45;&gt;Node2 -->
<g id="edge7_Node000005_Node000002" class="edge">
<title>Node5&#45;&gt;Node2</title>
<g id="a_edge7_Node000005_Node000002"><a xlink:title=" ">
<path fill="none" stroke="#63b8ff" d="M309.7,-66C317.73,-66 325.92,-66 333.81,-66"/>
<polygon fill="#63b8ff" stroke="#63b8ff" points="333.59,-69.5 343.59,-66 333.59,-62.5 333.59,-69.5"/>
</a>
</g>
</g>
<!-- Node5&#45;&gt;Node4 -->
<g id="edge8_Node000005_Node000004" class="edge">
<title>Node5&#45;&gt;Node4</title>
<g id="a_edge8_Node000005_Node000004"><a xlink:title=" ">
<path fill="none" stroke="#63b8ff" d="M283.27,-55.51C291.86,-52.81 301.04,-49.86 309.5,-47 322.23,-42.7 336.06,-37.76 348.44,-33.24"/>
<polygon fill="#63b8ff" stroke="#63b8ff" points="349.28,-36.66 357.46,-29.93 346.87,-30.09 349.28,-36.66"/>
</a>
</g>
</g>
</g>
</svg>
