<?xml version="1.0" encoding="UTF-8" standalone="no"?>
<!DOCTYPE svg PUBLIC "-//W3C//DTD SVG 1.1//EN"
 "http://www.w3.org/Graphics/SVG/1.1/DTD/svg11.dtd">
<!-- Generated by graphviz version 14.0.2 (20251019.1705)
 -->
<!-- Title: LGE::Application::~Application Pages: 1 -->
<svg width="416pt" height="66pt"
 viewBox="0.00 0.00 416.00 66.00" xmlns="http://www.w3.org/2000/svg" xmlns:xlink="http://www.w3.org/1999/xlink">
<g id="graph0" class="graph" transform="scale(1 1) rotate(0) translate(4 62)">
<title>LGE::Application::~Application</title>
<!-- Node1 -->
<g id="Node000001" class="node">
<title>Node1</title>
<g id="a_Node000001"><a xlink:title=" ">
<polygon fill="#999999" stroke="#666666" points="95.5,-45 0,-45 0,-13 95.5,-13 95.5,-45"/>
<text xml:space="preserve" text-anchor="start" x="8" y="-31.5" font-family="Helvetica,sans-Serif" font-size="10.00">LGE::Application::</text>
<text xml:space="preserve" text-anchor="middle" x="47.75" y="-19.5" font-family="Helvetica,sans-Serif" font-size="10.00">~Application</text>
</a>
</g>
</g>
<!-- Node2 -->
<g id="Node000002" class="node">
<title>Node2</title>
<g id="a_Node000002"><a xlink:href="classLGE_1_1Application.html#a0ade72b35c9529406f7650156968813f" target="_top" xlink:title=" ">
<polygon fill="white" stroke="#666666" points="270.5,-39 131.5,-39 131.5,-19 270.5,-19 270.5,-39"/>
<text xml:space="preserve" text-anchor="middle" x="201" y="-25.5" font-family="Helvetica,sans-Serif" font-size="10.00">LGE::Application::Shutdown</text>
</a>
</g>
</g>
<!-- Node1&#45;&gt;Node2 -->
<g id="edge1_Node000001_Node000002" class="edge">
<title>Node1&#45;&gt;Node2</title>
<g id="a_edge1_Node000001_Node000002"><a xlink:title=" ">
<path fill="none" stroke="#63b8ff" d="M95.78,-29C103.38,-29 111.44,-29 119.57,-29"/>
<polygon fill="#63b8ff" stroke="#63b8ff" points="119.56,-32.5 129.56,-29 119.56,-25.5 119.56,-32.5"/>
</a>
</g>
</g>
<!-- Node3 -->
<g id="Node000003" class="node">
<title>Node3</title>
<g id="a_Node000003"><a xlink:href="classLGE_1_1Log.html#ab0265ee050b8873a2fd31fbdb696ced0" target="_top" xlink:title=" ">
<polygon fill="white" stroke="#666666" points="397.12,-58 317.38,-58 317.38,-38 397.12,-38 397.12,-58"/>
<text xml:space="preserve" text-anchor="middle" x="357.25" y="-44.5" font-family="Helvetica,sans-Serif" font-size="10.00">LGE::Log::Info</text>
</a>
</g>
</g>
<!-- Node2&#45;&gt;Node3 -->
<g id="edge2_Node000002_Node000003" class="edge">
<title>Node2&#45;&gt;Node3</title>
<g id="a_edge2_Node000002_Node000003"><a xlink:title=" ">
<path fill="none" stroke="#63b8ff" d="M270.55,-37.44C282.38,-38.9 294.47,-40.39 305.71,-41.78"/>
<polygon fill="#63b8ff" stroke="#63b8ff" points="305.21,-45.24 315.56,-42.99 306.07,-38.29 305.21,-45.24"/>
</a>
</g>
</g>
<!-- Node4 -->
<g id="Node000004" class="node">
<title>Node4</title>
<g id="a_Node000004"><a xlink:href="classLGE_1_1UI.html#a9684e81b95e3586446017c107e0798dc" target="_top" xlink:title=" ">
<polygon fill="white" stroke="#666666" points="408,-20 306.5,-20 306.5,0 408,0 408,-20"/>
<text xml:space="preserve" text-anchor="middle" x="357.25" y="-6.5" font-family="Helvetica,sans-Serif" font-size="10.00">LGE::UI::Shutdown</text>
</a>
</g>
</g>
<!-- Node2&#45;&gt;Node4 -->
<g id="edge3_Node000002_Node000004" class="edge">
<title>Node2&#45;&gt;Node4</title>
<g id="a_edge3_Node000002_Node000004"><a xlink:title=" ">
<path fill="none" stroke="#63b8ff" d="M270.55,-20.56C278.76,-19.55 287.09,-18.52 295.18,-17.52"/>
<polygon fill="#63b8ff" stroke="#63b8ff" points="295.41,-21.02 304.91,-16.32 294.56,-14.07 295.41,-21.02"/>
</a>
</g>
</g>
</g>
</svg>
