<?xml version="1.0" encoding="UTF-8" standalone="no"?>
<!DOCTYPE svg PUBLIC "-//W3C//DTD SVG 1.1//EN"
 "http://www.w3.org/Graphics/SVG/1.1/DTD/svg11.dtd">
<!-- Generated by graphviz version 14.0.2 (20251019.1705)
 -->
<!-- Title: LGE::ProjectManager::SaveRecentProject Pages: 1 -->
<svg width="425pt" height="119pt"
 viewBox="0.00 0.00 425.00 119.00" xmlns="http://www.w3.org/2000/svg" xmlns:xlink="http://www.w3.org/1999/xlink">
<g id="graph0" class="graph" transform="scale(1 1) rotate(0) translate(4 115)">
<title>LGE::ProjectManager::SaveRecentProject</title>
<!-- Node1 -->
<g id="Node000001" class="node">
<title>Node1</title>
<g id="a_Node000001"><a xlink:title=" ">
<polygon fill="#999999" stroke="#666666" points="109.75,-76 0,-76 0,-44 109.75,-44 109.75,-76"/>
<text xml:space="preserve" text-anchor="start" x="8" y="-62.5" font-family="Helvetica,sans-Serif" font-size="10.00">LGE::ProjectManager</text>
<text xml:space="preserve" text-anchor="middle" x="54.88" y="-50.5" font-family="Helvetica,sans-Serif" font-size="10.00">::SaveRecentProject</text>
</a>
</g>
</g>
<!-- Node2 -->
<g id="Node000002" class="node">
<title>Node2</title>
<g id="a_Node000002"><a xlink:href="classLGE_1_1Log.html#a53f3f4b8797ffd18145739c9e66d690a" target="_top" xlink:title=" ">
<polygon fill="white" stroke="#666666" points="396.38,-111 312.12,-111 312.12,-91 396.38,-91 396.38,-111"/>
<text xml:space="preserve" text-anchor="middle" x="354.25" y="-97.5" font-family="Helvetica,sans-Serif" font-size="10.00">LGE::Log::Error</text>
</a>
</g>
</g>
<!-- Node1&#45;&gt;Node2 -->
<g id="edge1_Node000001_Node000002" class="edge">
<title>Node1&#45;&gt;Node2</title>
<g id="a_edge1_Node000001_Node000002"><a xlink:title=" ">
<path fill="none" stroke="#63b8ff" d="M108.23,-76.41C120.44,-79.72 133.47,-82.84 145.75,-85 197.96,-94.18 258.47,-98.1 300.63,-99.76"/>
<polygon fill="#63b8ff" stroke="#63b8ff" points="300.38,-103.26 310.5,-100.12 300.63,-96.26 300.38,-103.26"/>
</a>
</g>
</g>
<!-- Node3 -->
<g id="Node000003" class="node">
<title>Node3</title>
<g id="a_Node000003"><a xlink:href="classLGE_1_1ProjectManager.html#af60364a6575a847f63d3a36d07e1beab" target="_top" xlink:title=" ">
<polygon fill="white" stroke="#666666" points="255.5,-76 145.75,-76 145.75,-44 255.5,-44 255.5,-76"/>
<text xml:space="preserve" text-anchor="start" x="153.75" y="-62.5" font-family="Helvetica,sans-Serif" font-size="10.00">LGE::ProjectManager</text>
<text xml:space="preserve" text-anchor="middle" x="200.62" y="-50.5" font-family="Helvetica,sans-Serif" font-size="10.00">::GetRecentProjects</text>
</a>
</g>
</g>
<!-- Node1&#45;&gt;Node3 -->
<g id="edge2_Node000001_Node000003" class="edge">
<title>Node1&#45;&gt;Node3</title>
<g id="a_edge2_Node000001_Node000003"><a xlink:title=" ">
<path fill="none" stroke="#63b8ff" d="M110.22,-60C118.11,-60 126.3,-60 134.38,-60"/>
<polygon fill="#63b8ff" stroke="#63b8ff" points="134.17,-63.5 144.17,-60 134.17,-56.5 134.17,-63.5"/>
</a>
</g>
</g>
<!-- Node5 -->
<g id="Node000005" class="node">
<title>Node5</title>
<g id="a_Node000005"><a xlink:href="classLGE_1_1ProjectManager.html#af3b70e8bd5daac16f673530afc4010f1" target="_top" xlink:title=" ">
<polygon fill="white" stroke="#666666" points="417,-32 291.5,-32 291.5,0 417,0 417,-32"/>
<text xml:space="preserve" text-anchor="start" x="299.5" y="-18.5" font-family="Helvetica,sans-Serif" font-size="10.00">LGE::ProjectManager</text>
<text xml:space="preserve" text-anchor="middle" x="354.25" y="-6.5" font-family="Helvetica,sans-Serif" font-size="10.00">::GetRecentProjectsPath</text>
</a>
</g>
</g>
<!-- Node1&#45;&gt;Node5 -->
<g id="edge6_Node000001_Node000005" class="edge">
<title>Node1&#45;&gt;Node5</title>
<g id="a_edge6_Node000001_Node000005"><a xlink:title=" ">
<path fill="none" stroke="#63b8ff" d="M108.73,-43.59C120.8,-40.32 133.64,-37.22 145.75,-35 189.89,-26.91 239.97,-22.2 279.88,-19.49"/>
<polygon fill="#63b8ff" stroke="#63b8ff" points="279.85,-23 289.6,-18.86 279.4,-16.01 279.85,-23"/>
</a>
</g>
</g>
<!-- Node3&#45;&gt;Node2 -->
<g id="edge3_Node000003_Node000002" class="edge">
<title>Node3&#45;&gt;Node2</title>
<g id="a_edge3_Node000003_Node000002"><a xlink:title=" ">
<path fill="none" stroke="#63b8ff" d="M255.94,-74.69C271.53,-78.9 288.44,-83.48 303.73,-87.61"/>
<polygon fill="#63b8ff" stroke="#63b8ff" points="302.5,-90.9 313.06,-90.13 304.32,-84.14 302.5,-90.9"/>
</a>
</g>
</g>
<!-- Node4 -->
<g id="Node000004" class="node">
<title>Node4</title>
<g id="a_Node000004"><a xlink:href="namespaceLGE_1_1LxFile.html#a11e62876b312a11b881b484bb3a5ee71" target="_top" xlink:title=" ">
<polygon fill="white" stroke="#666666" points="405,-70 303.5,-70 303.5,-50 405,-50 405,-70"/>
<text xml:space="preserve" text-anchor="middle" x="354.25" y="-56.5" font-family="Helvetica,sans-Serif" font-size="10.00">LGE::LxFile::Exists</text>
</a>
</g>
</g>
<!-- Node3&#45;&gt;Node4 -->
<g id="edge4_Node000003_Node000004" class="edge">
<title>Node3&#45;&gt;Node4</title>
<g id="a_edge4_Node000003_Node000004"><a xlink:title=" ">
<path fill="none" stroke="#63b8ff" d="M255.94,-60C267.59,-60 279.99,-60 291.89,-60"/>
<polygon fill="#63b8ff" stroke="#63b8ff" points="291.59,-63.5 301.59,-60 291.59,-56.5 291.59,-63.5"/>
</a>
</g>
</g>
<!-- Node3&#45;&gt;Node5 -->
<g id="edge5_Node000003_Node000005" class="edge">
<title>Node3&#45;&gt;Node5</title>
<g id="a_edge5_Node000003_Node000005"><a xlink:title=" ">
<path fill="none" stroke="#63b8ff" d="M255.94,-44.24C265.51,-41.46 275.57,-38.54 285.46,-35.67"/>
<polygon fill="#63b8ff" stroke="#63b8ff" points="286.42,-39.04 295.05,-32.89 284.47,-32.31 286.42,-39.04"/>
</a>
</g>
</g>
</g>
</svg>
