<?xml version="1.0" encoding="UTF-8" standalone="no"?>
<!DOCTYPE svg PUBLIC "-//W3C//DTD SVG 1.1//EN"
 "http://www.w3.org/Graphics/SVG/1.1/DTD/svg11.dtd">
<!-- Generated by graphviz version 14.0.2 (20251019.1705)
 -->
<!-- Title: LGE::Inspector::OnUIRender Pages: 1 -->
<svg width="271pt" height="66pt"
 viewBox="0.00 0.00 271.00 66.00" xmlns="http://www.w3.org/2000/svg" xmlns:xlink="http://www.w3.org/1999/xlink">
<g id="graph0" class="graph" transform="scale(1 1) rotate(0) translate(4 62)">
<title>LGE::Inspector::OnUIRender</title>
<!-- Node1 -->
<g id="Node000001" class="node">
<title>Node1</title>
<g id="a_Node000001"><a xlink:title=" ">
<polygon fill="#999999" stroke="#666666" points="142.75,-39 0,-39 0,-19 142.75,-19 142.75,-39"/>
<text xml:space="preserve" text-anchor="middle" x="71.38" y="-25.5" font-family="Helvetica,sans-Serif" font-size="10.00">LGE::Inspector::OnUIRender</text>
</a>
</g>
</g>
<!-- Node2 -->
<g id="Node000002" class="node">
<title>Node2</title>
<g id="a_Node000002"><a xlink:href="classLGE_1_1Log.html#a53f3f4b8797ffd18145739c9e66d690a" target="_top" xlink:title=" ">
<polygon fill="white" stroke="#666666" points="263,-58 178.75,-58 178.75,-38 263,-38 263,-58"/>
<text xml:space="preserve" text-anchor="middle" x="220.88" y="-44.5" font-family="Helvetica,sans-Serif" font-size="10.00">LGE::Log::Error</text>
</a>
</g>
</g>
<!-- Node1&#45;&gt;Node2 -->
<g id="edge1_Node000001_Node000002" class="edge">
<title>Node1&#45;&gt;Node2</title>
<g id="a_edge1_Node000001_Node000002"><a xlink:title=" ">
<path fill="none" stroke="#63b8ff" d="M143.1,-38.11C151.25,-39.16 159.44,-40.22 167.29,-41.23"/>
<polygon fill="#63b8ff" stroke="#63b8ff" points="166.62,-44.67 176.99,-42.48 167.52,-37.73 166.62,-44.67"/>
</a>
</g>
</g>
<!-- Node3 -->
<g id="Node000003" class="node">
<title>Node3</title>
<g id="a_Node000003"><a xlink:href="classLGE_1_1Log.html#ab0265ee050b8873a2fd31fbdb696ced0" target="_top" xlink:title=" ">
<polygon fill="white" stroke="#666666" points="260.75,-20 181,-20 181,0 260.75,0 260.75,-20"/>
<text xml:space="preserve" text-anchor="middle" x="220.88" y="-6.5" font-family="Helvetica,sans-Serif" font-size="10.00">LGE::Log::Info</text>
</a>
</g>
</g>
<!-- Node1&#45;&gt;Node3 -->
<g id="edge2_Node000001_Node000003" class="edge">
<title>Node1&#45;&gt;Node3</title>
<g id="a_edge2_Node000001_Node000003"><a xlink:title=" ">
<path fill="none" stroke="#63b8ff" d="M143.1,-19.89C152.05,-18.74 161.05,-17.58 169.59,-16.48"/>
<polygon fill="#63b8ff" stroke="#63b8ff" points="169.92,-19.96 179.39,-15.21 169.03,-13.02 169.92,-19.96"/>
</a>
</g>
</g>
</g>
</svg>
