<?xml version="1.0" encoding="UTF-8" standalone="no"?>
<!DOCTYPE svg PUBLIC "-//W3C//DTD SVG 1.1//EN"
 "http://www.w3.org/Graphics/SVG/1.1/DTD/svg11.dtd">
<!-- Generated by graphviz version 14.0.2 (20251019.1705)
 -->
<!-- Title: LGE::MaterialInstance::Bind Pages: 1 -->
<svg width="277pt" height="540pt"
 viewBox="0.00 0.00 277.00 540.00" xmlns="http://www.w3.org/2000/svg" xmlns:xlink="http://www.w3.org/1999/xlink">
<g id="graph0" class="graph" transform="scale(1 1) rotate(0) translate(4 536)">
<title>LGE::MaterialInstance::Bind</title>
<!-- Node1 -->
<g id="Node000001" class="node">
<title>Node1</title>
<g id="a_Node000001"><a xlink:title=" ">
<polygon fill="#999999" stroke="#666666" points="113.5,-282 0,-282 0,-250 113.5,-250 113.5,-282"/>
<text xml:space="preserve" text-anchor="start" x="8" y="-268.5" font-family="Helvetica,sans-Serif" font-size="10.00">LGE::MaterialInstance</text>
<text xml:space="preserve" text-anchor="middle" x="56.75" y="-256.5" font-family="Helvetica,sans-Serif" font-size="10.00">::Bind</text>
</a>
</g>
</g>
<!-- Node2 -->
<g id="Node000002" class="node">
<title>Node2</title>
<g id="a_Node000002"><a xlink:href="classLGE_1_1MaterialInstance.html#a4ba82989742877c1dc2da74d5f7b35d7" target="_top" xlink:title=" ">
<polygon fill="white" stroke="#666666" points="266,-532 152.5,-532 152.5,-500 266,-500 266,-532"/>
<text xml:space="preserve" text-anchor="start" x="160.5" y="-518.5" font-family="Helvetica,sans-Serif" font-size="10.00">LGE::MaterialInstance</text>
<text xml:space="preserve" text-anchor="middle" x="209.25" y="-506.5" font-family="Helvetica,sans-Serif" font-size="10.00">::GetAOTexture</text>
</a>
</g>
</g>
<!-- Node1&#45;&gt;Node2 -->
<g id="edge1_Node000001_Node000002" class="edge">
<title>Node1&#45;&gt;Node2</title>
<g id="a_edge1_Node000001_Node000002"><a xlink:title=" ">
<path fill="none" stroke="#63b8ff" d="M60.09,-282.49C66.7,-323.22 89.11,-429.69 149.5,-491 150.1,-491.61 150.71,-492.2 151.34,-492.78"/>
<polygon fill="#63b8ff" stroke="#63b8ff" points="149,-495.39 159.08,-498.65 153.23,-489.82 149,-495.39"/>
</a>
</g>
</g>
<!-- Node3 -->
<g id="Node000003" class="node">
<title>Node3</title>
<g id="a_Node000003"><a xlink:href="classLGE_1_1MaterialInstance.html#a69c7a18f08d47604635410b7d6c6314a" target="_top" xlink:title=" ">
<polygon fill="white" stroke="#666666" points="267.12,-482 151.38,-482 151.38,-450 267.12,-450 267.12,-482"/>
<text xml:space="preserve" text-anchor="start" x="159.38" y="-468.5" font-family="Helvetica,sans-Serif" font-size="10.00">LGE::MaterialInstance</text>
<text xml:space="preserve" text-anchor="middle" x="209.25" y="-456.5" font-family="Helvetica,sans-Serif" font-size="10.00">::GetBaseColorTexture</text>
</a>
</g>
</g>
<!-- Node1&#45;&gt;Node3 -->
<g id="edge2_Node000001_Node000003" class="edge">
<title>Node1&#45;&gt;Node3</title>
<g id="a_edge2_Node000001_Node000003"><a xlink:title=" ">
<path fill="none" stroke="#63b8ff" d="M62.21,-282.3C72.27,-316.25 99.83,-395.18 149.5,-441 150.27,-441.71 151.06,-442.4 151.87,-443.07"/>
<polygon fill="#63b8ff" stroke="#63b8ff" points="149.75,-445.86 159.95,-448.72 153.76,-440.12 149.75,-445.86"/>
</a>
</g>
</g>
<!-- Node4 -->
<g id="Node000004" class="node">
<title>Node4</title>
<g id="a_Node000004"><a xlink:href="classLGE_1_1MaterialInstance.html#a67089251635a8e89c2e0b9ddeebaccc5" target="_top" xlink:title=" ">
<polygon fill="white" stroke="#666666" points="266,-432 152.5,-432 152.5,-400 266,-400 266,-432"/>
<text xml:space="preserve" text-anchor="start" x="160.5" y="-418.5" font-family="Helvetica,sans-Serif" font-size="10.00">LGE::MaterialInstance</text>
<text xml:space="preserve" text-anchor="middle" x="209.25" y="-406.5" font-family="Helvetica,sans-Serif" font-size="10.00">::GetBlendMode</text>
</a>
</g>
</g>
<!-- Node1&#45;&gt;Node4 -->
<g id="edge3_Node000001_Node000004" class="edge">
<title>Node1&#45;&gt;Node4</title>
<g id="a_edge3_Node000001_Node000004"><a xlink:title=" ">
<path fill="none" stroke="#63b8ff" d="M66,-282.38C79.93,-308.57 110.46,-360.08 149.5,-391 150.62,-391.89 151.78,-392.75 152.98,-393.59"/>
<polygon fill="#63b8ff" stroke="#63b8ff" points="150.94,-396.45 161.29,-398.73 154.62,-390.5 150.94,-396.45"/>
</a>
</g>
</g>
<!-- Node5 -->
<g id="Node000005" class="node">
<title>Node5</title>
<g id="a_Node000005"><a xlink:href="classLGE_1_1MaterialInstance.html#a0434b72cec5e2ed38a34527a75ef96db" target="_top" xlink:title=" ">
<polygon fill="white" stroke="#666666" points="266,-382 152.5,-382 152.5,-350 266,-350 266,-382"/>
<text xml:space="preserve" text-anchor="start" x="160.5" y="-368.5" font-family="Helvetica,sans-Serif" font-size="10.00">LGE::MaterialInstance</text>
<text xml:space="preserve" text-anchor="middle" x="209.25" y="-356.5" font-family="Helvetica,sans-Serif" font-size="10.00">::GetCullMode</text>
</a>
</g>
</g>
<!-- Node1&#45;&gt;Node5 -->
<g id="edge4_Node000001_Node000005" class="edge">
<title>Node1&#45;&gt;Node5</title>
<g id="a_edge4_Node000001_Node000005"><a xlink:title=" ">
<path fill="none" stroke="#63b8ff" d="M74.57,-282.24C92.17,-298.62 121.15,-323.86 149.5,-341 151.39,-342.14 153.33,-343.25 155.32,-344.34"/>
<polygon fill="#63b8ff" stroke="#63b8ff" points="153.64,-347.41 164.15,-348.82 156.81,-341.17 153.64,-347.41"/>
</a>
</g>
</g>
<!-- Node6 -->
<g id="Node000006" class="node">
<title>Node6</title>
<g id="a_Node000006"><a xlink:href="classLGE_1_1MaterialInstance.html#a4caec9b4a372e8fbd2083e35e86bbcbd" target="_top" xlink:title=" ">
<polygon fill="white" stroke="#666666" points="266,-332 152.5,-332 152.5,-300 266,-300 266,-332"/>
<text xml:space="preserve" text-anchor="start" x="160.5" y="-318.5" font-family="Helvetica,sans-Serif" font-size="10.00">LGE::MaterialInstance</text>
<text xml:space="preserve" text-anchor="middle" x="209.25" y="-306.5" font-family="Helvetica,sans-Serif" font-size="10.00">::GetDepthWrite</text>
</a>
</g>
</g>
<!-- Node1&#45;&gt;Node6 -->
<g id="edge5_Node000001_Node000006" class="edge">
<title>Node1&#45;&gt;Node6</title>
<g id="a_edge5_Node000001_Node000006"><a xlink:title=" ">
<path fill="none" stroke="#63b8ff" d="M107.03,-282.37C120.08,-286.71 134.33,-291.44 147.9,-295.95"/>
<polygon fill="#63b8ff" stroke="#63b8ff" points="146.57,-299.2 157.17,-299.03 148.78,-292.55 146.57,-299.2"/>
</a>
</g>
</g>
<!-- Node7 -->
<g id="Node000007" class="node">
<title>Node7</title>
<g id="a_Node000007"><a xlink:href="classLGE_1_1MaterialInstance.html#afec4bddb7793cb2435c22125aeac0ba8" target="_top" xlink:title=" ">
<polygon fill="white" stroke="#666666" points="266,-282 152.5,-282 152.5,-250 266,-250 266,-282"/>
<text xml:space="preserve" text-anchor="start" x="160.5" y="-268.5" font-family="Helvetica,sans-Serif" font-size="10.00">LGE::MaterialInstance</text>
<text xml:space="preserve" text-anchor="middle" x="209.25" y="-256.5" font-family="Helvetica,sans-Serif" font-size="10.00">::GetEmissiveTexture</text>
</a>
</g>
</g>
<!-- Node1&#45;&gt;Node7 -->
<g id="edge6_Node000001_Node000007" class="edge">
<title>Node1&#45;&gt;Node7</title>
<g id="a_edge6_Node000001_Node000007"><a xlink:title=" ">
<path fill="none" stroke="#63b8ff" d="M113.79,-266C122.6,-266 131.8,-266 140.83,-266"/>
<polygon fill="#63b8ff" stroke="#63b8ff" points="140.65,-269.5 150.65,-266 140.65,-262.5 140.65,-269.5"/>
</a>
</g>
</g>
<!-- Node8 -->
<g id="Node000008" class="node">
<title>Node8</title>
<g id="a_Node000008"><a xlink:href="classLGE_1_1MaterialInstance.html#ac4b729325a38127b4f3de075bf9445a6" target="_top" xlink:title=" ">
<polygon fill="white" stroke="#666666" points="266,-232 152.5,-232 152.5,-200 266,-200 266,-232"/>
<text xml:space="preserve" text-anchor="start" x="160.5" y="-218.5" font-family="Helvetica,sans-Serif" font-size="10.00">LGE::MaterialInstance</text>
<text xml:space="preserve" text-anchor="middle" x="209.25" y="-206.5" font-family="Helvetica,sans-Serif" font-size="10.00">::GetHeightTexture</text>
</a>
</g>
</g>
<!-- Node1&#45;&gt;Node8 -->
<g id="edge7_Node000001_Node000008" class="edge">
<title>Node1&#45;&gt;Node8</title>
<g id="a_edge7_Node000001_Node000008"><a xlink:title=" ">
<path fill="none" stroke="#63b8ff" d="M107.03,-249.63C120.08,-245.29 134.33,-240.56 147.9,-236.05"/>
<polygon fill="#63b8ff" stroke="#63b8ff" points="148.78,-239.45 157.17,-232.97 146.57,-232.8 148.78,-239.45"/>
</a>
</g>
</g>
<!-- Node9 -->
<g id="Node000009" class="node">
<title>Node9</title>
<g id="a_Node000009"><a xlink:href="classLGE_1_1MaterialInstance.html#afab9da46c0eb79a288af6e86bfe9e2a0" target="_top" xlink:title=" ">
<polygon fill="white" stroke="#666666" points="266,-182 152.5,-182 152.5,-150 266,-150 266,-182"/>
<text xml:space="preserve" text-anchor="start" x="160.5" y="-168.5" font-family="Helvetica,sans-Serif" font-size="10.00">LGE::MaterialInstance</text>
<text xml:space="preserve" text-anchor="middle" x="209.25" y="-156.5" font-family="Helvetica,sans-Serif" font-size="10.00">::GetMetallicTexture</text>
</a>
</g>
</g>
<!-- Node1&#45;&gt;Node9 -->
<g id="edge8_Node000001_Node000009" class="edge">
<title>Node1&#45;&gt;Node9</title>
<g id="a_edge8_Node000001_Node000009"><a xlink:title=" ">
<path fill="none" stroke="#63b8ff" d="M74.57,-249.76C92.17,-233.38 121.15,-208.14 149.5,-191 151.39,-189.86 153.33,-188.75 155.32,-187.66"/>
<polygon fill="#63b8ff" stroke="#63b8ff" points="156.81,-190.83 164.15,-183.18 153.64,-184.59 156.81,-190.83"/>
</a>
</g>
</g>
<!-- Node10 -->
<g id="Node000010" class="node">
<title>Node10</title>
<g id="a_Node000010"><a xlink:href="classLGE_1_1MaterialInstance.html#a9078d0075406b3b56c366bdd8c3ecc98" target="_top" xlink:title=" ">
<polygon fill="white" stroke="#666666" points="266,-132 152.5,-132 152.5,-100 266,-100 266,-132"/>
<text xml:space="preserve" text-anchor="start" x="160.5" y="-118.5" font-family="Helvetica,sans-Serif" font-size="10.00">LGE::MaterialInstance</text>
<text xml:space="preserve" text-anchor="middle" x="209.25" y="-106.5" font-family="Helvetica,sans-Serif" font-size="10.00">::GetNormalTexture</text>
</a>
</g>
</g>
<!-- Node1&#45;&gt;Node10 -->
<g id="edge9_Node000001_Node000010" class="edge">
<title>Node1&#45;&gt;Node10</title>
<g id="a_edge9_Node000001_Node000010"><a xlink:title=" ">
<path fill="none" stroke="#63b8ff" d="M66,-249.62C79.93,-223.43 110.46,-171.92 149.5,-141 150.62,-140.11 151.78,-139.25 152.98,-138.41"/>
<polygon fill="#63b8ff" stroke="#63b8ff" points="154.62,-141.5 161.29,-133.27 150.94,-135.55 154.62,-141.5"/>
</a>
</g>
</g>
<!-- Node11 -->
<g id="Node000011" class="node">
<title>Node11</title>
<g id="a_Node000011"><a xlink:href="classLGE_1_1MaterialInstance.html#a67238a3db24363e10fb080dd1b939bc9" target="_top" xlink:title=" ">
<polygon fill="white" stroke="#666666" points="266,-82 152.5,-82 152.5,-50 266,-50 266,-82"/>
<text xml:space="preserve" text-anchor="start" x="160.5" y="-68.5" font-family="Helvetica,sans-Serif" font-size="10.00">LGE::MaterialInstance</text>
<text xml:space="preserve" text-anchor="middle" x="209.25" y="-56.5" font-family="Helvetica,sans-Serif" font-size="10.00">::GetOpacityTexture</text>
</a>
</g>
</g>
<!-- Node1&#45;&gt;Node11 -->
<g id="edge10_Node000001_Node000011" class="edge">
<title>Node1&#45;&gt;Node11</title>
<g id="a_edge10_Node000001_Node000011"><a xlink:title=" ">
<path fill="none" stroke="#63b8ff" d="M62.21,-249.7C72.27,-215.75 99.83,-136.82 149.5,-91 150.27,-90.29 151.06,-89.6 151.87,-88.93"/>
<polygon fill="#63b8ff" stroke="#63b8ff" points="153.76,-91.88 159.95,-83.28 149.75,-86.14 153.76,-91.88"/>
</a>
</g>
</g>
<!-- Node12 -->
<g id="Node000012" class="node">
<title>Node12</title>
<g id="a_Node000012"><a xlink:href="classLGE_1_1MaterialInstance.html#a3417417183d98f2ef387f9beb4f398bd" target="_top" xlink:title=" ">
<polygon fill="white" stroke="#666666" points="269,-32 149.5,-32 149.5,0 269,0 269,-32"/>
<text xml:space="preserve" text-anchor="start" x="157.5" y="-18.5" font-family="Helvetica,sans-Serif" font-size="10.00">LGE::MaterialInstance</text>
<text xml:space="preserve" text-anchor="middle" x="209.25" y="-6.5" font-family="Helvetica,sans-Serif" font-size="10.00">::GetRoughnessTexture</text>
</a>
</g>
</g>
<!-- Node1&#45;&gt;Node12 -->
<g id="edge11_Node000001_Node000012" class="edge">
<title>Node1&#45;&gt;Node12</title>
<g id="a_edge11_Node000001_Node000012"><a xlink:title=" ">
<path fill="none" stroke="#63b8ff" d="M60.09,-249.51C66.7,-208.78 89.11,-102.31 149.5,-41 150.1,-40.39 150.71,-39.8 151.34,-39.22"/>
<polygon fill="#63b8ff" stroke="#63b8ff" points="153.23,-42.18 159.08,-33.35 149,-36.61 153.23,-42.18"/>
</a>
</g>
</g>
</g>
</svg>
