<?xml version="1.0" encoding="UTF-8" standalone="no"?>
<!DOCTYPE svg PUBLIC "-//W3C//DTD SVG 1.1//EN"
 "http://www.w3.org/Graphics/SVG/1.1/DTD/svg11.dtd">
<!-- Generated by graphviz version 14.0.2 (20251019.1705)
 -->
<!-- Title: LGE::Camera::Move Pages: 1 -->
<svg width="604pt" height="84pt"
 viewBox="0.00 0.00 604.00 84.00" xmlns="http://www.w3.org/2000/svg" xmlns:xlink="http://www.w3.org/1999/xlink">
<g id="graph0" class="graph" transform="scale(1 1) rotate(0) translate(4 80)">
<title>LGE::Camera::Move</title>
<!-- Node1 -->
<g id="Node000001" class="node">
<title>Node1</title>
<g id="a_Node000001"><a xlink:title=" ">
<polygon fill="#999999" stroke="#666666" points="106,-48 0,-48 0,-28 106,-28 106,-48"/>
<text xml:space="preserve" text-anchor="middle" x="53" y="-34.5" font-family="Helvetica,sans-Serif" font-size="10.00">LGE::Camera::Move</text>
</a>
</g>
</g>
<!-- Node2 -->
<g id="Node000002" class="node">
<title>Node2</title>
<g id="a_Node000002"><a xlink:href="classLGE_1_1Camera.html#a11d25fd3a204f4506304ab9510eb1762" target="_top" xlink:title=" ">
<polygon fill="white" stroke="#666666" points="312.5,-70 150.25,-70 150.25,-50 312.5,-50 312.5,-70"/>
<text xml:space="preserve" text-anchor="middle" x="231.38" y="-56.5" font-family="Helvetica,sans-Serif" font-size="10.00">LGE::Camera::UpdateViewMatrix</text>
</a>
</g>
</g>
<!-- Node1&#45;&gt;Node2 -->
<g id="edge1_Node000001_Node000002" class="edge">
<title>Node1&#45;&gt;Node2</title>
<g id="a_edge1_Node000001_Node000002"><a xlink:title=" ">
<path fill="none" stroke="#63b8ff" d="M106.44,-44.54C116.72,-45.82 127.78,-47.2 138.91,-48.59"/>
<polygon fill="#63b8ff" stroke="#63b8ff" points="138.18,-52.03 148.54,-49.79 139.05,-45.08 138.18,-52.03"/>
</a>
</g>
</g>
<!-- Node5 -->
<g id="Node000005" class="node">
<title>Node5</title>
<g id="a_Node000005"><a xlink:href="classLGE_1_1Camera.html#ad5762d9f21d46ca4961b6371dca6f5db" target="_top" xlink:title=" ">
<polygon fill="white" stroke="#666666" points="320.75,-32 142,-32 142,0 320.75,0 320.75,-32"/>
<text xml:space="preserve" text-anchor="start" x="150" y="-18.5" font-family="Helvetica,sans-Serif" font-size="10.00">LGE::Camera::UpdateViewProjection</text>
<text xml:space="preserve" text-anchor="middle" x="231.38" y="-6.5" font-family="Helvetica,sans-Serif" font-size="10.00">Matrix</text>
</a>
</g>
</g>
<!-- Node1&#45;&gt;Node5 -->
<g id="edge4_Node000001_Node000005" class="edge">
<title>Node1&#45;&gt;Node5</title>
<g id="a_edge4_Node000001_Node000005"><a xlink:title=" ">
<path fill="none" stroke="#63b8ff" d="M106.44,-31.46C114.12,-30.5 122.23,-29.49 130.49,-28.46"/>
<polygon fill="#63b8ff" stroke="#63b8ff" points="130.81,-31.95 140.3,-27.24 129.94,-25 130.81,-31.95"/>
</a>
</g>
</g>
<!-- Node3 -->
<g id="Node000003" class="node">
<title>Node3</title>
<g id="a_Node000003"><a xlink:href="structLGE_1_1Math_1_1Matrix4.html#af83a1273cd30fbd76f827b132a1c4e94" target="_top" xlink:title=" ">
<polygon fill="white" stroke="#666666" points="458.25,-76 356.75,-76 356.75,-44 458.25,-44 458.25,-76"/>
<text xml:space="preserve" text-anchor="start" x="364.75" y="-62.5" font-family="Helvetica,sans-Serif" font-size="10.00">LGE::Math::Matrix4</text>
<text xml:space="preserve" text-anchor="middle" x="407.5" y="-50.5" font-family="Helvetica,sans-Serif" font-size="10.00">::LookAt</text>
</a>
</g>
</g>
<!-- Node2&#45;&gt;Node3 -->
<g id="edge2_Node000002_Node000003" class="edge">
<title>Node2&#45;&gt;Node3</title>
<g id="a_edge2_Node000002_Node000003"><a xlink:title=" ">
<path fill="none" stroke="#63b8ff" d="M312.81,-60C323.81,-60 334.94,-60 345.51,-60"/>
<polygon fill="#63b8ff" stroke="#63b8ff" points="345.21,-63.5 355.21,-60 345.21,-56.5 345.21,-63.5"/>
</a>
</g>
</g>
<!-- Node4 -->
<g id="Node000004" class="node">
<title>Node4</title>
<g id="a_Node000004"><a xlink:href="structLGE_1_1Math_1_1Matrix4.html#a02dc0417ebe852f1ef2ac703f5d5711e" target="_top" xlink:title=" ">
<polygon fill="white" stroke="#666666" points="595.75,-76 494.25,-76 494.25,-44 595.75,-44 595.75,-76"/>
<text xml:space="preserve" text-anchor="start" x="502.25" y="-62.5" font-family="Helvetica,sans-Serif" font-size="10.00">LGE::Math::Matrix4</text>
<text xml:space="preserve" text-anchor="middle" x="545" y="-50.5" font-family="Helvetica,sans-Serif" font-size="10.00">::Matrix4</text>
</a>
</g>
</g>
<!-- Node3&#45;&gt;Node4 -->
<g id="edge3_Node000003_Node000004" class="edge">
<title>Node3&#45;&gt;Node4</title>
<g id="a_edge3_Node000003_Node000004"><a xlink:title=" ">
<path fill="none" stroke="#63b8ff" d="M458.57,-60C466.46,-60 474.7,-60 482.81,-60"/>
<polygon fill="#63b8ff" stroke="#63b8ff" points="482.62,-63.5 492.62,-60 482.62,-56.5 482.62,-63.5"/>
</a>
</g>
</g>
</g>
</svg>
