<?xml version="1.0" encoding="UTF-8" standalone="no"?>
<!DOCTYPE svg PUBLIC "-//W3C//DTD SVG 1.1//EN"
 "http://www.w3.org/Graphics/SVG/1.1/DTD/svg11.dtd">
<!-- Generated by graphviz version 14.0.2 (20251019.1705)
 -->
<!-- Title: LGE::AssetMetadata::GetMetadataPath Pages: 1 -->
<svg width="548pt" height="340pt"
 viewBox="0.00 0.00 548.00 340.00" xmlns="http://www.w3.org/2000/svg" xmlns:xlink="http://www.w3.org/1999/xlink">
<g id="graph0" class="graph" transform="scale(1 1) rotate(0) translate(4 336)">
<title>LGE::AssetMetadata::GetMetadataPath</title>
<!-- Node1 -->
<g id="Node000001" class="node">
<title>Node1</title>
<g id="a_Node000001"><a xlink:title=" ">
<polygon fill="#999999" stroke="#666666" points="539.5,-257 432,-257 432,-225 539.5,-225 539.5,-257"/>
<text xml:space="preserve" text-anchor="start" x="440" y="-243.5" font-family="Helvetica,sans-Serif" font-size="10.00">LGE::AssetMetadata</text>
<text xml:space="preserve" text-anchor="middle" x="485.75" y="-231.5" font-family="Helvetica,sans-Serif" font-size="10.00">::GetMetadataPath</text>
</a>
</g>
</g>
<!-- Node2 -->
<g id="Node000002" class="node">
<title>Node2</title>
<g id="a_Node000002"><a xlink:href="classLGE_1_1AssetMetadata.html#a8c062a2561e1119b1273fc16d99d6469" target="_top" xlink:title=" ">
<polygon fill="white" stroke="#666666" points="396,-332 288.5,-332 288.5,-300 396,-300 396,-332"/>
<text xml:space="preserve" text-anchor="start" x="296.5" y="-318.5" font-family="Helvetica,sans-Serif" font-size="10.00">LGE::AssetMetadata</text>
<text xml:space="preserve" text-anchor="middle" x="342.25" y="-306.5" font-family="Helvetica,sans-Serif" font-size="10.00">::DeleteMetadata</text>
</a>
</g>
</g>
<!-- Node1&#45;&gt;Node2 -->
<g id="edge1_Node000001_Node000002" class="edge">
<title>Node1&#45;&gt;Node2</title>
<g id="a_edge1_Node000001_Node000002"><a xlink:title=" ">
<path fill="none" stroke="#63b8ff" d="M447.19,-262.94C431.5,-271.89 413,-282.19 396,-291 390.51,-293.84 384.64,-296.75 378.89,-299.53"/>
<polygon fill="#63b8ff" stroke="#63b8ff" points="448.8,-266.04 455.73,-258.03 445.32,-259.97 448.8,-266.04"/>
</a>
</g>
</g>
<!-- Node3 -->
<g id="Node000003" class="node">
<title>Node3</title>
<g id="a_Node000003"><a xlink:href="classLGE_1_1AssetMetadata.html#a4444d3c7f3768e38e8d72c81c003ae4c" target="_top" xlink:title=" ">
<polygon fill="white" stroke="#666666" points="396,-282 288.5,-282 288.5,-250 396,-250 396,-282"/>
<text xml:space="preserve" text-anchor="start" x="296.5" y="-268.5" font-family="Helvetica,sans-Serif" font-size="10.00">LGE::AssetMetadata</text>
<text xml:space="preserve" text-anchor="middle" x="342.25" y="-256.5" font-family="Helvetica,sans-Serif" font-size="10.00">::LoadMetadata</text>
</a>
</g>
</g>
<!-- Node1&#45;&gt;Node3 -->
<g id="edge2_Node000001_Node000003" class="edge">
<title>Node1&#45;&gt;Node3</title>
<g id="a_edge2_Node000001_Node000003"><a xlink:title=" ">
<path fill="none" stroke="#63b8ff" d="M420.34,-252.38C412.25,-253.81 404.05,-255.26 396.17,-256.65"/>
<polygon fill="#63b8ff" stroke="#63b8ff" points="420.93,-255.83 430.17,-250.64 419.71,-248.94 420.93,-255.83"/>
</a>
</g>
</g>
<!-- Node4 -->
<g id="Node000004" class="node">
<title>Node4</title>
<g id="a_Node000004"><a xlink:href="classLGE_1_1AssetMetadata.html#a8ac6fe667502e2ff58a5bfe57d0b63b2" target="_top" xlink:title=" ">
<polygon fill="white" stroke="#666666" points="396,-232 288.5,-232 288.5,-200 396,-200 396,-232"/>
<text xml:space="preserve" text-anchor="start" x="296.5" y="-218.5" font-family="Helvetica,sans-Serif" font-size="10.00">LGE::AssetMetadata</text>
<text xml:space="preserve" text-anchor="middle" x="342.25" y="-206.5" font-family="Helvetica,sans-Serif" font-size="10.00">::MetadataExists</text>
</a>
</g>
</g>
<!-- Node1&#45;&gt;Node4 -->
<g id="edge3_Node000001_Node000004" class="edge">
<title>Node1&#45;&gt;Node4</title>
<g id="a_edge3_Node000001_Node000004"><a xlink:title=" ">
<path fill="none" stroke="#63b8ff" d="M420.34,-229.62C412.25,-228.19 404.05,-226.74 396.17,-225.35"/>
<polygon fill="#63b8ff" stroke="#63b8ff" points="419.71,-233.06 430.17,-231.36 420.93,-226.17 419.71,-233.06"/>
</a>
</g>
</g>
<!-- Node5 -->
<g id="Node000005" class="node">
<title>Node5</title>
<g id="a_Node000005"><a xlink:href="classLGE_1_1AssetMetadata.html#a8a8b6d8fda2392f3a9f5ae9731abf374" target="_top" xlink:title=" ">
<polygon fill="white" stroke="#666666" points="396,-182 288.5,-182 288.5,-150 396,-150 396,-182"/>
<text xml:space="preserve" text-anchor="start" x="296.5" y="-168.5" font-family="Helvetica,sans-Serif" font-size="10.00">LGE::AssetMetadata</text>
<text xml:space="preserve" text-anchor="middle" x="342.25" y="-156.5" font-family="Helvetica,sans-Serif" font-size="10.00">::SaveMetadata</text>
</a>
</g>
</g>
<!-- Node1&#45;&gt;Node5 -->
<g id="edge4_Node000001_Node000005" class="edge">
<title>Node1&#45;&gt;Node5</title>
<g id="a_edge4_Node000001_Node000005"><a xlink:title=" ">
<path fill="none" stroke="#63b8ff" d="M447.19,-219.06C431.5,-210.11 413,-199.81 396,-191 390.51,-188.16 384.64,-185.25 378.89,-182.47"/>
<polygon fill="#63b8ff" stroke="#63b8ff" points="445.32,-222.03 455.73,-223.97 448.8,-215.96 445.32,-222.03"/>
</a>
</g>
</g>
<!-- Node6 -->
<g id="Node000006" class="node">
<title>Node6</title>
<g id="a_Node000006"><a xlink:href="classLGE_1_1AssetFactory.html#a39f7050f69be7a0aa3650d07fe1fc763" target="_top" xlink:title=" ">
<polygon fill="white" stroke="#666666" points="250.25,-332 144.25,-332 144.25,-300 250.25,-300 250.25,-332"/>
<text xml:space="preserve" text-anchor="start" x="152.25" y="-318.5" font-family="Helvetica,sans-Serif" font-size="10.00">LGE::AssetFactory::</text>
<text xml:space="preserve" text-anchor="middle" x="197.25" y="-306.5" font-family="Helvetica,sans-Serif" font-size="10.00">CreateFolder</text>
</a>
</g>
</g>
<!-- Node5&#45;&gt;Node6 -->
<g id="edge5_Node000005_Node000006" class="edge">
<title>Node5&#45;&gt;Node6</title>
<g id="a_edge5_Node000005_Node000006"><a xlink:title=" ">
<path fill="none" stroke="#63b8ff" d="M289.91,-189.51C289.43,-190 288.96,-190.5 288.5,-191 256.76,-225.98 284.43,-256.19 252.5,-291 249.56,-294.21 246.12,-297.04 242.43,-299.53"/>
<polygon fill="#63b8ff" stroke="#63b8ff" points="291.87,-192.43 297.38,-183.38 287.43,-187.02 291.87,-192.43"/>
</a>
</g>
</g>
<!-- Node8 -->
<g id="Node000008" class="node">
<title>Node8</title>
<g id="a_Node000008"><a xlink:href="classLGE_1_1AssetFactory.html#a0b31104c56510df0545f2ea38c59845a" target="_top" xlink:title=" ">
<polygon fill="white" stroke="#666666" points="250.25,-282 144.25,-282 144.25,-250 250.25,-250 250.25,-282"/>
<text xml:space="preserve" text-anchor="start" x="152.25" y="-268.5" font-family="Helvetica,sans-Serif" font-size="10.00">LGE::AssetFactory::</text>
<text xml:space="preserve" text-anchor="middle" x="197.25" y="-256.5" font-family="Helvetica,sans-Serif" font-size="10.00">CreateMaterial</text>
</a>
</g>
</g>
<!-- Node5&#45;&gt;Node8 -->
<g id="edge7_Node000005_Node000008" class="edge">
<title>Node5&#45;&gt;Node8</title>
<g id="a_edge7_Node000005_Node000008"><a xlink:title=" ">
<path fill="none" stroke="#63b8ff" d="M291.44,-188.67C290.44,-189.43 289.45,-190.21 288.5,-191 267.46,-208.53 273.63,-223.58 252.5,-241 248.66,-244.17 244.35,-247.02 239.89,-249.58"/>
<polygon fill="#63b8ff" stroke="#63b8ff" points="293.34,-191.61 299.78,-183.2 289.5,-185.76 293.34,-191.61"/>
</a>
</g>
</g>
<!-- Node9 -->
<g id="Node000009" class="node">
<title>Node9</title>
<g id="a_Node000009"><a xlink:href="classLGE_1_1AssetFactory.html#a4e5a8c90645624ae5832320655d01fe6" target="_top" xlink:title=" ">
<polygon fill="white" stroke="#666666" points="250.25,-232 144.25,-232 144.25,-200 250.25,-200 250.25,-232"/>
<text xml:space="preserve" text-anchor="start" x="152.25" y="-218.5" font-family="Helvetica,sans-Serif" font-size="10.00">LGE::AssetFactory::</text>
<text xml:space="preserve" text-anchor="middle" x="197.25" y="-206.5" font-family="Helvetica,sans-Serif" font-size="10.00">CreateScene</text>
</a>
</g>
</g>
<!-- Node5&#45;&gt;Node9 -->
<g id="edge9_Node000005_Node000009" class="edge">
<title>Node5&#45;&gt;Node9</title>
<g id="a_edge9_Node000005_Node000009"><a xlink:title=" ">
<path fill="none" stroke="#63b8ff" d="M283.83,-186.08C271,-190.56 257.53,-195.27 245.18,-199.59"/>
<polygon fill="#63b8ff" stroke="#63b8ff" points="284.71,-189.48 293,-182.87 282.4,-182.87 284.71,-189.48"/>
</a>
</g>
</g>
<!-- Node10 -->
<g id="Node000010" class="node">
<title>Node10</title>
<g id="a_Node000010"><a xlink:href="classLGE_1_1AssetFactory.html#a67aa46ee91385e105dcdf48edacd6197" target="_top" xlink:title=" ">
<polygon fill="white" stroke="#666666" points="250.25,-182 144.25,-182 144.25,-150 250.25,-150 250.25,-182"/>
<text xml:space="preserve" text-anchor="start" x="152.25" y="-168.5" font-family="Helvetica,sans-Serif" font-size="10.00">LGE::AssetFactory::</text>
<text xml:space="preserve" text-anchor="middle" x="197.25" y="-156.5" font-family="Helvetica,sans-Serif" font-size="10.00">CreateScript</text>
</a>
</g>
</g>
<!-- Node5&#45;&gt;Node10 -->
<g id="edge11_Node000005_Node000010" class="edge">
<title>Node5&#45;&gt;Node10</title>
<g id="a_edge11_Node000005_Node000010"><a xlink:title=" ">
<path fill="none" stroke="#63b8ff" d="M276.66,-166C267.93,-166 259.07,-166 250.59,-166"/>
<polygon fill="#63b8ff" stroke="#63b8ff" points="276.49,-169.5 286.49,-166 276.49,-162.5 276.49,-169.5"/>
</a>
</g>
</g>
<!-- Node11 -->
<g id="Node000011" class="node">
<title>Node11</title>
<g id="a_Node000011"><a xlink:href="classLGE_1_1AssetFactory.html#a19538e58cc1f63d8973cccda81e534b3" target="_top" xlink:title=" ">
<polygon fill="white" stroke="#666666" points="250.25,-132 144.25,-132 144.25,-100 250.25,-100 250.25,-132"/>
<text xml:space="preserve" text-anchor="start" x="152.25" y="-118.5" font-family="Helvetica,sans-Serif" font-size="10.00">LGE::AssetFactory::</text>
<text xml:space="preserve" text-anchor="middle" x="197.25" y="-106.5" font-family="Helvetica,sans-Serif" font-size="10.00">CreateShader</text>
</a>
</g>
</g>
<!-- Node5&#45;&gt;Node11 -->
<g id="edge13_Node000005_Node000011" class="edge">
<title>Node5&#45;&gt;Node11</title>
<g id="a_edge13_Node000005_Node000011"><a xlink:title=" ">
<path fill="none" stroke="#63b8ff" d="M283.83,-145.92C271,-141.44 257.53,-136.73 245.18,-132.41"/>
<polygon fill="#63b8ff" stroke="#63b8ff" points="282.4,-149.13 293,-149.13 284.71,-142.52 282.4,-149.13"/>
</a>
</g>
</g>
<!-- Node12 -->
<g id="Node000012" class="node">
<title>Node12</title>
<g id="a_Node000012"><a xlink:href="classLGE_1_1AssetManager.html#a0aa918f6bcc7fc31eac48828d5b5d18e" target="_top" xlink:title=" ">
<polygon fill="white" stroke="#666666" points="252.5,-82 142,-82 142,-50 252.5,-50 252.5,-82"/>
<text xml:space="preserve" text-anchor="start" x="150" y="-68.5" font-family="Helvetica,sans-Serif" font-size="10.00">LGE::AssetManager::</text>
<text xml:space="preserve" text-anchor="middle" x="197.25" y="-56.5" font-family="Helvetica,sans-Serif" font-size="10.00">ImportFile</text>
</a>
</g>
</g>
<!-- Node5&#45;&gt;Node12 -->
<g id="edge15_Node000005_Node000012" class="edge">
<title>Node5&#45;&gt;Node12</title>
<g id="a_edge15_Node000005_Node000012"><a xlink:title=" ">
<path fill="none" stroke="#63b8ff" d="M316.38,-141.81C299.33,-126.05 275.69,-105.76 252.5,-91 247.69,-87.94 242.44,-85.04 237.16,-82.37"/>
<polygon fill="#63b8ff" stroke="#63b8ff" points="313.87,-144.25 323.55,-148.54 318.66,-139.15 313.87,-144.25"/>
</a>
</g>
</g>
<!-- Node13 -->
<g id="Node000013" class="node">
<title>Node13</title>
<g id="a_Node000013"><a xlink:href="classLGE_1_1AssetManager.html#a74b13575741ae0db7cec3b1c45e6dcc0" target="_top" xlink:title=" ">
<polygon fill="white" stroke="#666666" points="252.5,-32 142,-32 142,0 252.5,0 252.5,-32"/>
<text xml:space="preserve" text-anchor="start" x="150" y="-18.5" font-family="Helvetica,sans-Serif" font-size="10.00">LGE::AssetManager::</text>
<text xml:space="preserve" text-anchor="middle" x="197.25" y="-6.5" font-family="Helvetica,sans-Serif" font-size="10.00">ReimportAsset</text>
</a>
</g>
</g>
<!-- Node5&#45;&gt;Node13 -->
<g id="edge16_Node000005_Node000013" class="edge">
<title>Node5&#45;&gt;Node13</title>
<g id="a_edge16_Node000005_Node000013"><a xlink:title=" ">
<path fill="none" stroke="#63b8ff" d="M327.93,-139.63C312.84,-111.97 285.95,-68.76 252.5,-41 248.67,-37.82 244.37,-34.96 239.91,-32.4"/>
<polygon fill="#63b8ff" stroke="#63b8ff" points="324.81,-141.22 332.59,-148.41 330.99,-137.93 324.81,-141.22"/>
</a>
</g>
</g>
<!-- Node7 -->
<g id="Node000007" class="node">
<title>Node7</title>
<g id="a_Node000007"><a xlink:href="classLGE_1_1AssetFactory.html#aff9736af9072e61f6b8d76eeb2239d87" target="_top" xlink:title=" ">
<polygon fill="white" stroke="#666666" points="106,-232 0,-232 0,-200 106,-200 106,-232"/>
<text xml:space="preserve" text-anchor="start" x="8" y="-218.5" font-family="Helvetica,sans-Serif" font-size="10.00">LGE::AssetFactory::</text>
<text xml:space="preserve" text-anchor="middle" x="53" y="-206.5" font-family="Helvetica,sans-Serif" font-size="10.00">CreateAsset</text>
</a>
</g>
</g>
<!-- Node6&#45;&gt;Node7 -->
<g id="edge6_Node000006_Node000007" class="edge">
<title>Node6&#45;&gt;Node7</title>
<g id="a_edge6_Node000006_Node000007"><a xlink:title=" ">
<path fill="none" stroke="#63b8ff" d="M147,-294.05C145.29,-293.05 143.62,-292.04 142,-291 114.94,-273.7 87.33,-248.73 70.43,-232.43"/>
<polygon fill="#63b8ff" stroke="#63b8ff" points="145.25,-297.08 155.71,-298.78 148.59,-290.93 145.25,-297.08"/>
</a>
</g>
</g>
<!-- Node8&#45;&gt;Node7 -->
<g id="edge8_Node000008_Node000007" class="edge">
<title>Node8&#45;&gt;Node7</title>
<g id="a_edge8_Node000008_Node000007"><a xlink:title=" ">
<path fill="none" stroke="#63b8ff" d="M139.13,-245.92C126.36,-241.44 112.97,-236.73 100.68,-232.41"/>
<polygon fill="#63b8ff" stroke="#63b8ff" points="137.65,-249.11 148.24,-249.13 139.97,-242.51 137.65,-249.11"/>
</a>
</g>
</g>
<!-- Node9&#45;&gt;Node7 -->
<g id="edge10_Node000009_Node000007" class="edge">
<title>Node9&#45;&gt;Node7</title>
<g id="a_edge10_Node000009_Node000007"><a xlink:title=" ">
<path fill="none" stroke="#63b8ff" d="M132.6,-216C123.76,-216 114.76,-216 106.15,-216"/>
<polygon fill="#63b8ff" stroke="#63b8ff" points="132.58,-219.5 142.58,-216 132.58,-212.5 132.58,-219.5"/>
</a>
</g>
</g>
<!-- Node10&#45;&gt;Node7 -->
<g id="edge12_Node000010_Node000007" class="edge">
<title>Node10&#45;&gt;Node7</title>
<g id="a_edge12_Node000010_Node000007"><a xlink:title=" ">
<path fill="none" stroke="#63b8ff" d="M139.13,-186.08C126.36,-190.56 112.97,-195.27 100.68,-199.59"/>
<polygon fill="#63b8ff" stroke="#63b8ff" points="139.97,-189.49 148.24,-182.87 137.65,-182.89 139.97,-189.49"/>
</a>
</g>
</g>
<!-- Node11&#45;&gt;Node7 -->
<g id="edge14_Node000011_Node000007" class="edge">
<title>Node11&#45;&gt;Node7</title>
<g id="a_edge14_Node000011_Node000007"><a xlink:title=" ">
<path fill="none" stroke="#63b8ff" d="M147,-137.95C145.29,-138.95 143.62,-139.96 142,-141 114.94,-158.3 87.33,-183.27 70.43,-199.57"/>
<polygon fill="#63b8ff" stroke="#63b8ff" points="148.59,-141.07 155.71,-133.22 145.25,-134.92 148.59,-141.07"/>
</a>
</g>
</g>
</g>
</svg>
