<?xml version="1.0" encoding="UTF-8" standalone="no"?>
<!DOCTYPE svg PUBLIC "-//W3C//DTD SVG 1.1//EN"
 "http://www.w3.org/Graphics/SVG/1.1/DTD/svg11.dtd">
<!-- Generated by graphviz version 14.0.2 (20251019.1705)
 -->
<!-- Title: LGE::UITheme::ApplyModernTheme Pages: 1 -->
<svg width="673pt" height="40pt"
 viewBox="0.00 0.00 673.00 40.00" xmlns="http://www.w3.org/2000/svg" xmlns:xlink="http://www.w3.org/1999/xlink">
<g id="graph0" class="graph" transform="scale(1 1) rotate(0) translate(4 36)">
<title>LGE::UITheme::ApplyModernTheme</title>
<!-- Node1 -->
<g id="Node000001" class="node">
<title>Node1</title>
<g id="a_Node000001"><a xlink:title=" ">
<polygon fill="#999999" stroke="#666666" points="665,-32 520,-32 520,0 665,0 665,-32"/>
<text xml:space="preserve" text-anchor="start" x="528" y="-18.5" font-family="Helvetica,sans-Serif" font-size="10.00">LGE::UITheme::ApplyModern</text>
<text xml:space="preserve" text-anchor="middle" x="592.5" y="-6.5" font-family="Helvetica,sans-Serif" font-size="10.00">Theme</text>
</a>
</g>
</g>
<!-- Node2 -->
<g id="Node000002" class="node">
<title>Node2</title>
<g id="a_Node000002"><a xlink:href="classLGE_1_1UI.html#a8654b6ea7732d4cdef595431bd0bffc7" target="_top" xlink:title=" ">
<polygon fill="white" stroke="#666666" points="484,-26 390,-26 390,-6 484,-6 484,-26"/>
<text xml:space="preserve" text-anchor="middle" x="437" y="-12.5" font-family="Helvetica,sans-Serif" font-size="10.00">LGE::UI::Initialize</text>
</a>
</g>
</g>
<!-- Node1&#45;&gt;Node2 -->
<g id="edge1_Node000001_Node000002" class="edge">
<title>Node1&#45;&gt;Node2</title>
<g id="a_edge1_Node000001_Node000002"><a xlink:title=" ">
<path fill="none" stroke="#63b8ff" d="M508.42,-16C500.17,-16 492.01,-16 484.34,-16"/>
<polygon fill="#63b8ff" stroke="#63b8ff" points="508.18,-19.5 518.18,-16 508.18,-12.5 508.18,-19.5"/>
</a>
</g>
</g>
<!-- Node3 -->
<g id="Node000003" class="node">
<title>Node3</title>
<g id="a_Node000003"><a xlink:href="classLGE_1_1Application.html#a79cbcce064217e14d9598a40b734249a" target="_top" xlink:title=" ">
<polygon fill="white" stroke="#666666" points="354,-26 222.5,-26 222.5,-6 354,-6 354,-26"/>
<text xml:space="preserve" text-anchor="middle" x="288.25" y="-12.5" font-family="Helvetica,sans-Serif" font-size="10.00">LGE::Application::Initialize</text>
</a>
</g>
</g>
<!-- Node2&#45;&gt;Node3 -->
<g id="edge2_Node000002_Node000003" class="edge">
<title>Node2&#45;&gt;Node3</title>
<g id="a_edge2_Node000002_Node000003"><a xlink:title=" ">
<path fill="none" stroke="#63b8ff" d="M378.31,-16C370.47,-16 362.38,-16 354.42,-16"/>
<polygon fill="#63b8ff" stroke="#63b8ff" points="378.05,-19.5 388.05,-16 378.05,-12.5 378.05,-19.5"/>
</a>
</g>
</g>
<!-- Node4 -->
<g id="Node000004" class="node">
<title>Node4</title>
<g id="a_Node000004"><a xlink:href="classExampleApp.html#aeefc835a3f3b1d9eb6e8ff4322174c0e" target="_top" xlink:title=" ">
<polygon fill="white" stroke="#666666" points="186.5,-26 73,-26 73,-6 186.5,-6 186.5,-26"/>
<text xml:space="preserve" text-anchor="middle" x="129.75" y="-12.5" font-family="Helvetica,sans-Serif" font-size="10.00">ExampleApp::Initialize</text>
</a>
</g>
</g>
<!-- Node3&#45;&gt;Node4 -->
<g id="edge3_Node000003_Node000004" class="edge">
<title>Node3&#45;&gt;Node4</title>
<g id="a_edge3_Node000003_Node000004"><a xlink:title=" ">
<path fill="none" stroke="#63b8ff" d="M210.85,-16C202.76,-16 194.64,-16 186.84,-16"/>
<polygon fill="#63b8ff" stroke="#63b8ff" points="210.73,-19.5 220.73,-16 210.73,-12.5 210.73,-19.5"/>
</a>
</g>
</g>
<!-- Node5 -->
<g id="Node000005" class="node">
<title>Node5</title>
<g id="a_Node000005"><a xlink:href="main_8cpp.html#ae66f6b31b5ad750f1fe042a706a4e3d4" target="_top" xlink:title=" ">
<polygon fill="white" stroke="#666666" points="37,-26 0,-26 0,-6 37,-6 37,-26"/>
<text xml:space="preserve" text-anchor="middle" x="18.5" y="-12.5" font-family="Helvetica,sans-Serif" font-size="10.00">main</text>
</a>
</g>
</g>
<!-- Node4&#45;&gt;Node5 -->
<g id="edge4_Node000004_Node000005" class="edge">
<title>Node4&#45;&gt;Node5</title>
<g id="a_edge4_Node000004_Node000005"><a xlink:title=" ">
<path fill="none" stroke="#63b8ff" d="M61.27,-16C52.52,-16 44.24,-16 37.39,-16"/>
<polygon fill="#63b8ff" stroke="#63b8ff" points="61.01,-19.5 71.01,-16 61.01,-12.5 61.01,-19.5"/>
</a>
</g>
</g>
</g>
</svg>
