<?xml version="1.0" encoding="UTF-8" standalone="no"?>
<!DOCTYPE svg PUBLIC "-//W3C//DTD SVG 1.1//EN"
 "http://www.w3.org/Graphics/SVG/1.1/DTD/svg11.dtd">
<!-- Generated by graphviz version 14.0.2 (20251019.1705)
 -->
<!-- Title: LGE::Skybox::Init Pages: 1 -->
<svg width="394pt" height="80pt"
 viewBox="0.00 0.00 394.00 80.00" xmlns="http://www.w3.org/2000/svg" xmlns:xlink="http://www.w3.org/1999/xlink">
<g id="graph0" class="graph" transform="scale(1 1) rotate(0) translate(4 76.36)">
<title>LGE::Skybox::Init</title>
<!-- Node1 -->
<g id="Node000001" class="node">
<title>Node1</title>
<g id="a_Node000001"><a xlink:title=" ">
<polygon fill="#999999" stroke="#666666" points="94,-58 0,-58 0,-38 94,-38 94,-58"/>
<text xml:space="preserve" text-anchor="middle" x="47" y="-44.5" font-family="Helvetica,sans-Serif" font-size="10.00">LGE::Skybox::Init</text>
</a>
</g>
</g>
<!-- Node2 -->
<g id="Node000002" class="node">
<title>Node2</title>
<g id="a_Node000002"><a xlink:href="classLGE_1_1Log.html#a53f3f4b8797ffd18145739c9e66d690a" target="_top" xlink:title=" ">
<polygon fill="white" stroke="#666666" points="386.25,-58 302,-58 302,-38 386.25,-38 386.25,-58"/>
<text xml:space="preserve" text-anchor="middle" x="344.12" y="-44.5" font-family="Helvetica,sans-Serif" font-size="10.00">LGE::Log::Error</text>
</a>
</g>
</g>
<!-- Node1&#45;&gt;Node2 -->
<g id="edge1_Node000001_Node000002" class="edge">
<title>Node1&#45;&gt;Node2</title>
<g id="a_edge1_Node000001_Node000002"><a xlink:title=" ">
<path fill="none" stroke="#63b8ff" d="M84.83,-58.42C98.85,-61.88 115.05,-65.29 130,-67 190.05,-73.87 206,-74.28 266,-67 276.35,-65.74 287.32,-63.57 297.64,-61.13"/>
<polygon fill="#63b8ff" stroke="#63b8ff" points="298.2,-64.6 307.05,-58.78 296.5,-57.81 298.2,-64.6"/>
</a>
</g>
</g>
<!-- Node3 -->
<g id="Node000003" class="node">
<title>Node3</title>
<g id="a_Node000003"><a xlink:href="classLGE_1_1Log.html#ab0265ee050b8873a2fd31fbdb696ced0" target="_top" xlink:title=" ">
<polygon fill="white" stroke="#666666" points="237.88,-58 158.12,-58 158.12,-38 237.88,-38 237.88,-58"/>
<text xml:space="preserve" text-anchor="middle" x="198" y="-44.5" font-family="Helvetica,sans-Serif" font-size="10.00">LGE::Log::Info</text>
</a>
</g>
</g>
<!-- Node1&#45;&gt;Node3 -->
<g id="edge2_Node000001_Node000003" class="edge">
<title>Node1&#45;&gt;Node3</title>
<g id="a_edge2_Node000001_Node000003"><a xlink:title=" ">
<path fill="none" stroke="#63b8ff" d="M94.33,-48C110.85,-48 129.53,-48 146.4,-48"/>
<polygon fill="#63b8ff" stroke="#63b8ff" points="146.21,-51.5 156.21,-48 146.21,-44.5 146.21,-51.5"/>
</a>
</g>
</g>
<!-- Node4 -->
<g id="Node000004" class="node">
<title>Node4</title>
<g id="a_Node000004"><a xlink:href="classLGE_1_1FileSystem.html#aeae9855420d588ff0391b77b6674e02b" target="_top" xlink:title=" ">
<polygon fill="white" stroke="#666666" points="266,-20 130,-20 130,0 266,0 266,-20"/>
<text xml:space="preserve" text-anchor="middle" x="198" y="-6.5" font-family="Helvetica,sans-Serif" font-size="10.00">LGE::FileSystem::ReadFile</text>
</a>
</g>
</g>
<!-- Node1&#45;&gt;Node4 -->
<g id="edge3_Node000001_Node000004" class="edge">
<title>Node1&#45;&gt;Node4</title>
<g id="a_edge3_Node000001_Node000004"><a xlink:title=" ">
<path fill="none" stroke="#63b8ff" d="M89.11,-37.52C106.37,-33.11 126.65,-27.94 144.94,-23.28"/>
<polygon fill="#63b8ff" stroke="#63b8ff" points="145.73,-26.69 154.56,-20.82 144,-19.9 145.73,-26.69"/>
</a>
</g>
</g>
<!-- Node4&#45;&gt;Node2 -->
<g id="edge4_Node000004_Node000002" class="edge">
<title>Node4&#45;&gt;Node2</title>
<g id="a_edge4_Node000004_Node000002"><a xlink:title=" ">
<path fill="none" stroke="#63b8ff" d="M238.76,-20.48C255.38,-24.87 274.89,-30.01 292.52,-34.66"/>
<polygon fill="#63b8ff" stroke="#63b8ff" points="291.47,-38 302.03,-37.16 293.25,-31.23 291.47,-38"/>
</a>
</g>
</g>
</g>
</svg>
