<?xml version="1.0" encoding="UTF-8" standalone="no"?>
<!DOCTYPE svg PUBLIC "-//W3C//DTD SVG 1.1//EN"
 "http://www.w3.org/Graphics/SVG/1.1/DTD/svg11.dtd">
<!-- Generated by graphviz version 14.0.2 (20251019.1705)
 -->
<!-- Title: LGE::Camera::UpdateProjectionMatrix Pages: 1 -->
<svg width="440pt" height="90pt"
 viewBox="0.00 0.00 440.00 90.00" xmlns="http://www.w3.org/2000/svg" xmlns:xlink="http://www.w3.org/1999/xlink">
<g id="graph0" class="graph" transform="scale(1 1) rotate(0) translate(4 86)">
<title>LGE::Camera::UpdateProjectionMatrix</title>
<!-- Node1 -->
<g id="Node000001" class="node">
<title>Node1</title>
<g id="a_Node000001"><a xlink:title=" ">
<polygon fill="#999999" stroke="#666666" points="157,-57 0,-57 0,-25 157,-25 157,-57"/>
<text xml:space="preserve" text-anchor="start" x="8" y="-43.5" font-family="Helvetica,sans-Serif" font-size="10.00">LGE::Camera::UpdateProjection</text>
<text xml:space="preserve" text-anchor="middle" x="78.5" y="-31.5" font-family="Helvetica,sans-Serif" font-size="10.00">Matrix</text>
</a>
</g>
</g>
<!-- Node2 -->
<g id="Node000002" class="node">
<title>Node2</title>
<g id="a_Node000002"><a xlink:href="structLGE_1_1Math_1_1Matrix4.html#acaadbb2fff7609f792ce190240110ac5" target="_top" xlink:title=" ">
<polygon fill="white" stroke="#666666" points="294.5,-82 193,-82 193,-50 294.5,-50 294.5,-82"/>
<text xml:space="preserve" text-anchor="start" x="201" y="-68.5" font-family="Helvetica,sans-Serif" font-size="10.00">LGE::Math::Matrix4</text>
<text xml:space="preserve" text-anchor="middle" x="243.75" y="-56.5" font-family="Helvetica,sans-Serif" font-size="10.00">::Orthographic</text>
</a>
</g>
</g>
<!-- Node1&#45;&gt;Node2 -->
<g id="edge1_Node000001_Node000002" class="edge">
<title>Node1&#45;&gt;Node2</title>
<g id="a_edge1_Node000001_Node000002"><a xlink:title=" ">
<path fill="none" stroke="#63b8ff" d="M157.3,-52.91C165.36,-54.15 173.46,-55.39 181.3,-56.59"/>
<polygon fill="#63b8ff" stroke="#63b8ff" points="180.65,-60.03 191.07,-58.09 181.71,-53.11 180.65,-60.03"/>
</a>
</g>
</g>
<!-- Node4 -->
<g id="Node000004" class="node">
<title>Node4</title>
<g id="a_Node000004"><a xlink:href="structLGE_1_1Math_1_1Matrix4.html#aaa8e7cbf99003770c579766b31515f61" target="_top" xlink:title=" ">
<polygon fill="white" stroke="#666666" points="294.5,-32 193,-32 193,0 294.5,0 294.5,-32"/>
<text xml:space="preserve" text-anchor="start" x="201" y="-18.5" font-family="Helvetica,sans-Serif" font-size="10.00">LGE::Math::Matrix4</text>
<text xml:space="preserve" text-anchor="middle" x="243.75" y="-6.5" font-family="Helvetica,sans-Serif" font-size="10.00">::Perspective</text>
</a>
</g>
</g>
<!-- Node1&#45;&gt;Node4 -->
<g id="edge3_Node000001_Node000004" class="edge">
<title>Node1&#45;&gt;Node4</title>
<g id="a_edge3_Node000001_Node000004"><a xlink:title=" ">
<path fill="none" stroke="#63b8ff" d="M157.3,-29.09C165.36,-27.85 173.46,-26.61 181.3,-25.41"/>
<polygon fill="#63b8ff" stroke="#63b8ff" points="181.71,-28.89 191.07,-23.91 180.65,-21.97 181.71,-28.89"/>
</a>
</g>
</g>
<!-- Node3 -->
<g id="Node000003" class="node">
<title>Node3</title>
<g id="a_Node000003"><a xlink:href="structLGE_1_1Math_1_1Matrix4.html#a02dc0417ebe852f1ef2ac703f5d5711e" target="_top" xlink:title=" ">
<polygon fill="white" stroke="#666666" points="432,-57 330.5,-57 330.5,-25 432,-25 432,-57"/>
<text xml:space="preserve" text-anchor="start" x="338.5" y="-43.5" font-family="Helvetica,sans-Serif" font-size="10.00">LGE::Math::Matrix4</text>
<text xml:space="preserve" text-anchor="middle" x="381.25" y="-31.5" font-family="Helvetica,sans-Serif" font-size="10.00">::Matrix4</text>
</a>
</g>
</g>
<!-- Node2&#45;&gt;Node3 -->
<g id="edge2_Node000002_Node000003" class="edge">
<title>Node2&#45;&gt;Node3</title>
<g id="a_edge2_Node000002_Node000003"><a xlink:title=" ">
<path fill="none" stroke="#63b8ff" d="M294.82,-56.76C302.8,-55.29 311.14,-53.75 319.33,-52.24"/>
<polygon fill="#63b8ff" stroke="#63b8ff" points="319.7,-55.73 328.9,-50.47 318.43,-48.85 319.7,-55.73"/>
</a>
</g>
</g>
<!-- Node4&#45;&gt;Node3 -->
<g id="edge4_Node000004_Node000003" class="edge">
<title>Node4&#45;&gt;Node3</title>
<g id="a_edge4_Node000004_Node000003"><a xlink:title=" ">
<path fill="none" stroke="#63b8ff" d="M294.82,-25.24C302.8,-26.71 311.14,-28.25 319.33,-29.76"/>
<polygon fill="#63b8ff" stroke="#63b8ff" points="318.43,-33.15 328.9,-31.53 319.7,-26.27 318.43,-33.15"/>
</a>
</g>
</g>
</g>
</svg>
