<?xml version="1.0" encoding="UTF-8" standalone="no"?>
<!DOCTYPE svg PUBLIC "-//W3C//DTD SVG 1.1//EN"
 "http://www.w3.org/Graphics/SVG/1.1/DTD/svg11.dtd">
<!-- Generated by graphviz version 14.0.2 (20251019.1705)
 -->
<!-- Title: LGE::SearchQuery::SearchQuery Pages: 1 -->
<svg width="593pt" height="470pt"
 viewBox="0.00 0.00 593.00 470.00" xmlns="http://www.w3.org/2000/svg" xmlns:xlink="http://www.w3.org/1999/xlink">
<g id="graph0" class="graph" transform="scale(1 1) rotate(0) translate(4 466)">
<title>LGE::SearchQuery::SearchQuery</title>
<!-- Node1 -->
<g id="Node000001" class="node">
<title>Node1</title>
<g id="a_Node000001"><a xlink:title=" ">
<polygon fill="#999999" stroke="#666666" points="585.25,-259 450,-259 450,-227 585.25,-227 585.25,-259"/>
<text xml:space="preserve" text-anchor="start" x="458" y="-245.5" font-family="Helvetica,sans-Serif" font-size="10.00">LGE::SearchQuery::Search</text>
<text xml:space="preserve" text-anchor="middle" x="517.62" y="-233.5" font-family="Helvetica,sans-Serif" font-size="10.00">Query</text>
</a>
</g>
</g>
<!-- Node2 -->
<g id="Node000002" class="node">
<title>Node2</title>
<g id="a_Node000002"><a xlink:href="classLGE_1_1SearchQuery.html#a36f18b8db7c10527bf128ff041ba16fd" target="_top" xlink:title=" ">
<polygon fill="white" stroke="#666666" points="411,-462 242.75,-462 242.75,-442 411,-442 411,-462"/>
<text xml:space="preserve" text-anchor="middle" x="326.88" y="-448.5" font-family="Helvetica,sans-Serif" font-size="10.00">LGE::SearchQuery::CaseSensitive</text>
</a>
</g>
</g>
<!-- Node1&#45;&gt;Node2 -->
<g id="edge1_Node000001_Node000002" class="edge">
<title>Node1&#45;&gt;Node2</title>
<g id="a_edge1_Node000001_Node000002"><a xlink:title=" ">
<path fill="none" stroke="#63b8ff" d="M509.78,-270.23C497.78,-312.05 468.87,-391.6 414,-433 409.48,-436.41 404.46,-439.23 399.19,-441.57"/>
<polygon fill="#63b8ff" stroke="#63b8ff" points="513.12,-271.29 512.38,-260.72 506.36,-269.44 513.12,-271.29"/>
</a>
</g>
</g>
<!-- Node3 -->
<g id="Node000003" class="node">
<title>Node3</title>
<g id="a_Node000003"><a xlink:href="classLGE_1_1SearchQuery.html#a54ac81189147cdc7394bcd1ad3697d37" target="_top" xlink:title=" ">
<polygon fill="white" stroke="#666666" points="403.88,-424 249.88,-424 249.88,-404 403.88,-404 403.88,-424"/>
<text xml:space="preserve" text-anchor="middle" x="326.88" y="-410.5" font-family="Helvetica,sans-Serif" font-size="10.00">LGE::SearchQuery::DateRange</text>
</a>
</g>
</g>
<!-- Node1&#45;&gt;Node3 -->
<g id="edge2_Node000001_Node000003" class="edge">
<title>Node1&#45;&gt;Node3</title>
<g id="a_edge2_Node000001_Node000003"><a xlink:title=" ">
<path fill="none" stroke="#63b8ff" d="M506.16,-269.58C491.14,-304.11 460.1,-363.66 414,-395 408.93,-398.44 403.35,-401.27 397.53,-403.6"/>
<polygon fill="#63b8ff" stroke="#63b8ff" points="509.24,-271.29 509.89,-260.71 502.78,-268.58 509.24,-271.29"/>
</a>
</g>
</g>
<!-- Node4 -->
<g id="Node000004" class="node">
<title>Node4</title>
<g id="a_Node000004"><a xlink:href="classLGE_1_1SearchQuery.html#af6eb6f82936d435b08fd8c8acbcb4582" target="_top" xlink:title=" ">
<polygon fill="white" stroke="#666666" points="392.62,-386 261.12,-386 261.12,-366 392.62,-366 392.62,-386"/>
<text xml:space="preserve" text-anchor="middle" x="326.88" y="-372.5" font-family="Helvetica,sans-Serif" font-size="10.00">LGE::SearchQuery::Fuzzy</text>
</a>
</g>
</g>
<!-- Node1&#45;&gt;Node4 -->
<g id="edge3_Node000001_Node000004" class="edge">
<title>Node1&#45;&gt;Node4</title>
<g id="a_edge3_Node000001_Node000004"><a xlink:title=" ">
<path fill="none" stroke="#63b8ff" d="M500.73,-268.48C482.92,-294.83 451.54,-335.13 414,-357 407.52,-360.78 400.36,-363.8 393.03,-366.23"/>
<polygon fill="#63b8ff" stroke="#63b8ff" points="503.48,-270.67 506.05,-260.39 497.63,-266.82 503.48,-270.67"/>
</a>
</g>
</g>
<!-- Node6 -->
<g id="Node000006" class="node">
<title>Node6</title>
<g id="a_Node000006"><a xlink:href="classLGE_1_1SearchQuery.html#a626a3f325c0d2af053be92754c8a6397" target="_top" xlink:title=" ">
<polygon fill="white" stroke="#666666" points="414,-348 239.75,-348 239.75,-328 414,-328 414,-348"/>
<text xml:space="preserve" text-anchor="middle" x="326.88" y="-334.5" font-family="Helvetica,sans-Serif" font-size="10.00">LGE::SearchQuery::FuzzyThreshold</text>
</a>
</g>
</g>
<!-- Node1&#45;&gt;Node6 -->
<g id="edge5_Node000001_Node000006" class="edge">
<title>Node1&#45;&gt;Node6</title>
<g id="a_edge5_Node000001_Node000006"><a xlink:title=" ">
<path fill="none" stroke="#63b8ff" d="M491.19,-266.64C471.53,-283.66 442.87,-305.85 414,-319 406.47,-322.43 398.29,-325.25 390.06,-327.58"/>
<polygon fill="#63b8ff" stroke="#63b8ff" points="493.26,-269.49 498.43,-260.24 488.62,-264.24 493.26,-269.49"/>
</a>
</g>
</g>
<!-- Node7 -->
<g id="Node000007" class="node">
<title>Node7</title>
<g id="a_Node000007"><a xlink:href="classLGE_1_1SearchQuery.html#adbbef77188703d0df9f20960568f2d17" target="_top" xlink:title=" ">
<polygon fill="white" stroke="#666666" points="405.38,-234 248.38,-234 248.38,-214 405.38,-214 405.38,-234"/>
<text xml:space="preserve" text-anchor="middle" x="326.88" y="-220.5" font-family="Helvetica,sans-Serif" font-size="10.00">LGE::SearchQuery::MaxResults</text>
</a>
</g>
</g>
<!-- Node1&#45;&gt;Node7 -->
<g id="edge7_Node000001_Node000007" class="edge">
<title>Node1&#45;&gt;Node7</title>
<g id="a_edge7_Node000001_Node000007"><a xlink:title=" ">
<path fill="none" stroke="#63b8ff" d="M438.41,-235.13C427.6,-234.04 416.49,-232.92 405.69,-231.83"/>
<polygon fill="#63b8ff" stroke="#63b8ff" points="437.74,-238.58 448.04,-236.1 438.44,-231.61 437.74,-238.58"/>
</a>
</g>
</g>
<!-- Node18 -->
<g id="Node000018" class="node">
<title>Node18</title>
<g id="a_Node000018"><a xlink:href="classLGE_1_1SearchQuery.html#a9b4a91edbe0bc1d31952ed0caec64fab" target="_top" xlink:title=" ">
<polygon fill="white" stroke="#666666" points="397.5,-82 256.25,-82 256.25,-50 397.5,-50 397.5,-82"/>
<text xml:space="preserve" text-anchor="start" x="264.25" y="-68.5" font-family="Helvetica,sans-Serif" font-size="10.00">LGE::SearchQuery::Modified</text>
<text xml:space="preserve" text-anchor="middle" x="326.88" y="-56.5" font-family="Helvetica,sans-Serif" font-size="10.00">After</text>
</a>
</g>
</g>
<!-- Node1&#45;&gt;Node18 -->
<g id="edge18_Node000001_Node000018" class="edge">
<title>Node1&#45;&gt;Node18</title>
<g id="a_edge18_Node000001_Node000018"><a xlink:title=" ">
<path fill="none" stroke="#63b8ff" d="M505.84,-216.87C490.47,-182.83 459.05,-123.83 414,-91 408.97,-87.33 403.4,-84.2 397.6,-81.53"/>
<polygon fill="#63b8ff" stroke="#63b8ff" points="502.44,-217.83 509.66,-225.59 508.86,-215.02 502.44,-217.83"/>
</a>
</g>
</g>
<!-- Node19 -->
<g id="Node000019" class="node">
<title>Node19</title>
<g id="a_Node000019"><a xlink:href="classLGE_1_1SearchQuery.html#af2b241f58709cb2003e8a60f9b3908d2" target="_top" xlink:title=" ">
<polygon fill="white" stroke="#666666" points="397.5,-32 256.25,-32 256.25,0 397.5,0 397.5,-32"/>
<text xml:space="preserve" text-anchor="start" x="264.25" y="-18.5" font-family="Helvetica,sans-Serif" font-size="10.00">LGE::SearchQuery::Modified</text>
<text xml:space="preserve" text-anchor="middle" x="326.88" y="-6.5" font-family="Helvetica,sans-Serif" font-size="10.00">Before</text>
</a>
</g>
</g>
<!-- Node1&#45;&gt;Node19 -->
<g id="edge19_Node000001_Node000019" class="edge">
<title>Node1&#45;&gt;Node19</title>
<g id="a_edge19_Node000001_Node000019"><a xlink:title=" ">
<path fill="none" stroke="#63b8ff" d="M510.19,-215.46C498.57,-171.91 469.94,-87.32 414,-41 409.08,-36.93 403.53,-33.52 397.68,-30.67"/>
<polygon fill="#63b8ff" stroke="#63b8ff" points="506.79,-216.3 512.65,-225.13 513.57,-214.57 506.79,-216.3"/>
</a>
</g>
</g>
<!-- Node20 -->
<g id="Node000020" class="node">
<title>Node20</title>
<g id="a_Node000020"><a xlink:href="classLGE_1_1SearchQuery.html#a93e3fbb6b079a9a97d9a6824ec4b46fb" target="_top" xlink:title=" ">
<polygon fill="white" stroke="#666666" points="392.62,-120 261.12,-120 261.12,-100 392.62,-100 392.62,-120"/>
<text xml:space="preserve" text-anchor="middle" x="326.88" y="-106.5" font-family="Helvetica,sans-Serif" font-size="10.00">LGE::SearchQuery::Mount</text>
</a>
</g>
</g>
<!-- Node1&#45;&gt;Node20 -->
<g id="edge20_Node000001_Node000020" class="edge">
<title>Node1&#45;&gt;Node20</title>
<g id="a_edge20_Node000001_Node000020"><a xlink:title=" ">
<path fill="none" stroke="#63b8ff" d="M500.73,-217.52C482.92,-191.17 451.54,-150.87 414,-129 407.52,-125.22 400.36,-122.2 393.03,-119.77"/>
<polygon fill="#63b8ff" stroke="#63b8ff" points="497.63,-219.18 506.05,-225.61 503.48,-215.33 497.63,-219.18"/>
</a>
</g>
</g>
<!-- Node21 -->
<g id="Node000021" class="node">
<title>Node21</title>
<g id="a_Node000021"><a xlink:href="classLGE_1_1SearchQuery.html#a4c48ee0174b03b605573d0c2d7ee9216" target="_top" xlink:title=" ">
<polygon fill="white" stroke="#666666" points="402,-158 251.75,-158 251.75,-138 402,-138 402,-158"/>
<text xml:space="preserve" text-anchor="middle" x="326.88" y="-144.5" font-family="Helvetica,sans-Serif" font-size="10.00">LGE::SearchQuery::PathPrefix</text>
</a>
</g>
</g>
<!-- Node1&#45;&gt;Node21 -->
<g id="edge22_Node000001_Node000021" class="edge">
<title>Node1&#45;&gt;Node21</title>
<g id="a_edge22_Node000001_Node000021"><a xlink:title=" ">
<path fill="none" stroke="#63b8ff" d="M491.19,-219.36C471.53,-202.34 442.87,-180.15 414,-167 406.47,-163.57 398.29,-160.75 390.06,-158.42"/>
<polygon fill="#63b8ff" stroke="#63b8ff" points="488.62,-221.76 498.43,-225.76 493.26,-216.51 488.62,-221.76"/>
</a>
</g>
</g>
<!-- Node22 -->
<g id="Node000022" class="node">
<title>Node22</title>
<g id="a_Node000022"><a xlink:href="classLGE_1_1SearchQuery.html#ab6024fdbc4fcc6247c64805a478c3ea4" target="_top" xlink:title=" ">
<polygon fill="white" stroke="#666666" points="389.62,-196 264.12,-196 264.12,-176 389.62,-176 389.62,-196"/>
<text xml:space="preserve" text-anchor="middle" x="326.88" y="-182.5" font-family="Helvetica,sans-Serif" font-size="10.00">LGE::SearchQuery::Tags</text>
</a>
</g>
</g>
<!-- Node1&#45;&gt;Node22 -->
<g id="edge24_Node000001_Node000022" class="edge">
<title>Node1&#45;&gt;Node22</title>
<g id="a_edge24_Node000001_Node000022"><a xlink:title=" ">
<path fill="none" stroke="#63b8ff" d="M465.68,-222.56C449.33,-216.43 431.05,-210.01 414,-205 403.28,-201.85 391.66,-198.95 380.54,-196.41"/>
<polygon fill="#63b8ff" stroke="#63b8ff" points="464.1,-225.71 474.69,-225.99 466.59,-219.17 464.1,-225.71"/>
</a>
</g>
</g>
<!-- Node23 -->
<g id="Node000023" class="node">
<title>Node23</title>
<g id="a_Node000023"><a xlink:href="classLGE_1_1SearchQuery.html#a0cd5062e7f10380477917d78c516b810" target="_top" xlink:title=" ">
<polygon fill="white" stroke="#666666" points="388.5,-310 265.25,-310 265.25,-290 388.5,-290 388.5,-310"/>
<text xml:space="preserve" text-anchor="middle" x="326.88" y="-296.5" font-family="Helvetica,sans-Serif" font-size="10.00">LGE::SearchQuery::Text</text>
</a>
</g>
</g>
<!-- Node1&#45;&gt;Node23 -->
<g id="edge26_Node000001_Node000023" class="edge">
<title>Node1&#45;&gt;Node23</title>
<g id="a_edge26_Node000001_Node000023"><a xlink:title=" ">
<path fill="none" stroke="#63b8ff" d="M465.68,-263.44C449.33,-269.57 431.05,-275.99 414,-281 403.28,-284.15 391.66,-287.05 380.54,-289.59"/>
<polygon fill="#63b8ff" stroke="#63b8ff" points="466.59,-266.83 474.69,-260.01 464.1,-260.29 466.59,-266.83"/>
</a>
</g>
</g>
<!-- Node24 -->
<g id="Node000024" class="node">
<title>Node24</title>
<g id="a_Node000024"><a xlink:href="classLGE_1_1SearchQuery.html#ad2724b530a7354ae59dc81defaf096bc" target="_top" xlink:title=" ">
<polygon fill="white" stroke="#666666" points="389.62,-272 264.12,-272 264.12,-252 389.62,-252 389.62,-272"/>
<text xml:space="preserve" text-anchor="middle" x="326.88" y="-258.5" font-family="Helvetica,sans-Serif" font-size="10.00">LGE::SearchQuery::Type</text>
</a>
</g>
</g>
<!-- Node1&#45;&gt;Node24 -->
<g id="edge30_Node000001_Node000024" class="edge">
<title>Node1&#45;&gt;Node24</title>
<g id="a_edge30_Node000001_Node000024"><a xlink:title=" ">
<path fill="none" stroke="#63b8ff" d="M438.49,-250.87C422.32,-252.49 405.51,-254.19 390.01,-255.75"/>
<polygon fill="#63b8ff" stroke="#63b8ff" points="438.44,-254.39 448.04,-249.9 437.74,-247.42 438.44,-254.39"/>
</a>
</g>
</g>
<!-- Node5 -->
<g id="Node000005" class="node">
<title>Node5</title>
<g id="a_Node000005"><a xlink:href="TestSearch_8cpp.html#a33500ac4fe5ec5aabbfb97635e04b1a5" target="_top" xlink:title=" ">
<polygon fill="white" stroke="#666666" points="161.38,-348 119.88,-348 119.88,-328 161.38,-328 161.38,-348"/>
<text xml:space="preserve" text-anchor="middle" x="140.62" y="-334.5" font-family="Helvetica,sans-Serif" font-size="10.00">TEST</text>
</a>
</g>
</g>
<!-- Node4&#45;&gt;Node5 -->
<g id="edge4_Node000004_Node000005" class="edge">
<title>Node4&#45;&gt;Node5</title>
<g id="a_edge4_Node000004_Node000005"><a xlink:title=" ">
<path fill="none" stroke="#63b8ff" d="M264.22,-363.28C228.55,-355.93 186.02,-347.16 161.58,-342.12"/>
<polygon fill="#63b8ff" stroke="#63b8ff" points="263.06,-366.62 273.56,-365.21 264.47,-359.76 263.06,-366.62"/>
</a>
</g>
</g>
<!-- Node6&#45;&gt;Node5 -->
<g id="edge6_Node000006_Node000005" class="edge">
<title>Node6&#45;&gt;Node5</title>
<g id="a_edge6_Node000006_Node000005"><a xlink:title=" ">
<path fill="none" stroke="#63b8ff" d="M228.19,-338C202.94,-338 178.25,-338 161.74,-338"/>
<polygon fill="#63b8ff" stroke="#63b8ff" points="227.9,-341.5 237.9,-338 227.9,-334.5 227.9,-341.5"/>
</a>
</g>
</g>
<!-- Node8 -->
<g id="Node000008" class="node">
<title>Node8</title>
<g id="a_Node000008"><a xlink:href="namespaceLGE_1_1Search.html#a986ef43372fd62cf1c0880fb0025804e" target="_top" xlink:title=" ">
<polygon fill="white" stroke="#666666" points="196.25,-196 85,-196 85,-176 196.25,-176 196.25,-196"/>
<text xml:space="preserve" text-anchor="middle" x="140.62" y="-182.5" font-family="Helvetica,sans-Serif" font-size="10.00">LGE::Search::ByTags</text>
</a>
</g>
</g>
<!-- Node7&#45;&gt;Node8 -->
<g id="edge8_Node000007_Node000008" class="edge">
<title>Node7&#45;&gt;Node8</title>
<g id="a_edge8_Node000007_Node000008"><a xlink:title=" ">
<path fill="none" stroke="#63b8ff" d="M263.87,-211.21C240.59,-206.41 214.43,-201.01 192.29,-196.45"/>
<polygon fill="#63b8ff" stroke="#63b8ff" points="263.06,-214.62 273.56,-213.21 264.47,-207.76 263.06,-214.62"/>
</a>
</g>
</g>
<!-- Node9 -->
<g id="Node000009" class="node">
<title>Node9</title>
<g id="a_Node000009"><a xlink:href="namespaceLGE_1_1Search.html#ae0069f2eac2970bc78f0f8725f450eb0" target="_top" xlink:title=" ">
<polygon fill="white" stroke="#666666" points="196.25,-234 85,-234 85,-214 196.25,-214 196.25,-234"/>
<text xml:space="preserve" text-anchor="middle" x="140.62" y="-220.5" font-family="Helvetica,sans-Serif" font-size="10.00">LGE::Search::ByType</text>
</a>
</g>
</g>
<!-- Node7&#45;&gt;Node9 -->
<g id="edge9_Node000007_Node000009" class="edge">
<title>Node7&#45;&gt;Node9</title>
<g id="a_edge9_Node000007_Node000009"><a xlink:title=" ">
<path fill="none" stroke="#63b8ff" d="M236.59,-224C222.94,-224 209.21,-224 196.6,-224"/>
<polygon fill="#63b8ff" stroke="#63b8ff" points="236.49,-227.5 246.49,-224 236.49,-220.5 236.49,-227.5"/>
</a>
</g>
</g>
<!-- Node11 -->
<g id="Node000011" class="node">
<title>Node11</title>
<g id="a_Node000011"><a xlink:href="namespaceLGE_1_1Search.html#a7d936a851b082cc41474bf6bad6c2fe8" target="_top" xlink:title=" ">
<polygon fill="white" stroke="#666666" points="203.75,-158 77.5,-158 77.5,-138 203.75,-138 203.75,-158"/>
<text xml:space="preserve" text-anchor="middle" x="140.62" y="-144.5" font-family="Helvetica,sans-Serif" font-size="10.00">LGE::Search::InDirectory</text>
</a>
</g>
</g>
<!-- Node7&#45;&gt;Node11 -->
<g id="edge11_Node000007_Node000011" class="edge">
<title>Node7&#45;&gt;Node11</title>
<g id="a_edge11_Node000007_Node000011"><a xlink:title=" ">
<path fill="none" stroke="#63b8ff" d="M249.02,-209.61C245.82,-208.21 242.72,-206.68 239.75,-205 219.5,-193.55 223.53,-179.25 203.75,-167 198.28,-163.61 192.17,-160.79 185.97,-158.46"/>
<polygon fill="#63b8ff" stroke="#63b8ff" points="247.47,-212.76 258.06,-213.08 249.98,-206.23 247.47,-212.76"/>
</a>
</g>
</g>
<!-- Node12 -->
<g id="Node000012" class="node">
<title>Node12</title>
<g id="a_Node000012"><a xlink:href="namespaceLGE_1_1Search.html#a075f20f5304570afa55e5ef522765e72" target="_top" xlink:title=" ">
<polygon fill="white" stroke="#666666" points="197.38,-120 83.88,-120 83.88,-100 197.38,-100 197.38,-120"/>
<text xml:space="preserve" text-anchor="middle" x="140.62" y="-106.5" font-family="Helvetica,sans-Serif" font-size="10.00">LGE::Search::InMount</text>
</a>
</g>
</g>
<!-- Node7&#45;&gt;Node12 -->
<g id="edge12_Node000007_Node000012" class="edge">
<title>Node7&#45;&gt;Node12</title>
<g id="a_edge12_Node000007_Node000012"><a xlink:title=" ">
<path fill="none" stroke="#63b8ff" d="M243.93,-208.05C242.49,-207.09 241.1,-206.07 239.75,-205 210.52,-181.71 232.03,-153.44 203.75,-129 199.74,-125.53 195.11,-122.7 190.22,-120.38"/>
<polygon fill="#63b8ff" stroke="#63b8ff" points="242.17,-211.08 252.61,-212.89 245.58,-204.97 242.17,-211.08"/>
</a>
</g>
</g>
<!-- Node14 -->
<g id="Node000014" class="node">
<title>Node14</title>
<g id="a_Node000014"><a xlink:href="TestSearch_8cpp.html#a13cb3cdd7534423f0d92329cf16ceaf7" target="_top" xlink:title=" ">
<polygon fill="white" stroke="#666666" points="161.38,-272 119.88,-272 119.88,-252 161.38,-252 161.38,-272"/>
<text xml:space="preserve" text-anchor="middle" x="140.62" y="-258.5" font-family="Helvetica,sans-Serif" font-size="10.00">TEST</text>
</a>
</g>
</g>
<!-- Node7&#45;&gt;Node14 -->
<g id="edge14_Node000007_Node000014" class="edge">
<title>Node7&#45;&gt;Node14</title>
<g id="a_edge14_Node000007_Node000014"><a xlink:title=" ">
<path fill="none" stroke="#63b8ff" d="M264.22,-236.72C228.55,-244.07 186.02,-252.84 161.58,-257.88"/>
<polygon fill="#63b8ff" stroke="#63b8ff" points="264.47,-240.24 273.56,-234.79 263.06,-233.38 264.47,-240.24"/>
</a>
</g>
</g>
<!-- Node15 -->
<g id="Node000015" class="node">
<title>Node15</title>
<g id="a_Node000015"><a xlink:href="namespaceLGE_1_1Search.html#ae1b3505236cfc60a02f36a0c1a06d9bd" target="_top" xlink:title=" ">
<polygon fill="white" stroke="#666666" points="189.12,-310 92.12,-310 92.12,-290 189.12,-290 189.12,-310"/>
<text xml:space="preserve" text-anchor="middle" x="140.62" y="-296.5" font-family="Helvetica,sans-Serif" font-size="10.00">LGE::Search::Text</text>
</a>
</g>
</g>
<!-- Node7&#45;&gt;Node15 -->
<g id="edge15_Node000007_Node000015" class="edge">
<title>Node7&#45;&gt;Node15</title>
<g id="a_edge15_Node000007_Node000015"><a xlink:title=" ">
<path fill="none" stroke="#63b8ff" d="M249.02,-238.39C245.82,-239.79 242.72,-241.32 239.75,-243 219.5,-254.45 223.53,-268.75 203.75,-281 198.28,-284.39 192.17,-287.21 185.97,-289.54"/>
<polygon fill="#63b8ff" stroke="#63b8ff" points="249.98,-241.77 258.06,-234.92 247.47,-235.24 249.98,-241.77"/>
</a>
</g>
</g>
<!-- Node10 -->
<g id="Node000010" class="node">
<title>Node10</title>
<g id="a_Node000010"><a xlink:href="TestSearch_8cpp.html#aec262fa1aeb82f0a2ec9fca22e3d2374" target="_top" xlink:title=" ">
<polygon fill="white" stroke="#666666" points="41.5,-234 0,-234 0,-214 41.5,-214 41.5,-234"/>
<text xml:space="preserve" text-anchor="middle" x="20.75" y="-220.5" font-family="Helvetica,sans-Serif" font-size="10.00">TEST</text>
</a>
</g>
</g>
<!-- Node9&#45;&gt;Node10 -->
<g id="edge10_Node000009_Node000010" class="edge">
<title>Node9&#45;&gt;Node10</title>
<g id="a_edge10_Node000009_Node000010"><a xlink:title=" ">
<path fill="none" stroke="#63b8ff" d="M73.64,-224C62.02,-224 50.78,-224 41.75,-224"/>
<polygon fill="#63b8ff" stroke="#63b8ff" points="73.31,-227.5 83.31,-224 73.31,-220.5 73.31,-227.5"/>
</a>
</g>
</g>
<!-- Node13 -->
<g id="Node000013" class="node">
<title>Node13</title>
<g id="a_Node000013"><a xlink:href="TestSearch_8cpp.html#ad770bade109d5488d8747315303c5509" target="_top" xlink:title=" ">
<polygon fill="white" stroke="#666666" points="41.5,-120 0,-120 0,-100 41.5,-100 41.5,-120"/>
<text xml:space="preserve" text-anchor="middle" x="20.75" y="-106.5" font-family="Helvetica,sans-Serif" font-size="10.00">TEST</text>
</a>
</g>
</g>
<!-- Node12&#45;&gt;Node13 -->
<g id="edge13_Node000012_Node000013" class="edge">
<title>Node12&#45;&gt;Node13</title>
<g id="a_edge13_Node000012_Node000013"><a xlink:title=" ">
<path fill="none" stroke="#63b8ff" d="M72.26,-110C61.14,-110 50.44,-110 41.76,-110"/>
<polygon fill="#63b8ff" stroke="#63b8ff" points="71.94,-113.5 81.94,-110 71.94,-106.5 71.94,-113.5"/>
</a>
</g>
</g>
<!-- Node16 -->
<g id="Node000016" class="node">
<title>Node16</title>
<g id="a_Node000016"><a xlink:href="TestSearch_8cpp.html#a726a0578ed58faaeb0201d967dbce4be" target="_top" xlink:title=" ">
<polygon fill="white" stroke="#666666" points="41.5,-329 0,-329 0,-309 41.5,-309 41.5,-329"/>
<text xml:space="preserve" text-anchor="middle" x="20.75" y="-315.5" font-family="Helvetica,sans-Serif" font-size="10.00">TEST</text>
</a>
</g>
</g>
<!-- Node15&#45;&gt;Node16 -->
<g id="edge16_Node000015_Node000016" class="edge">
<title>Node15&#45;&gt;Node16</title>
<g id="a_edge16_Node000015_Node000016"><a xlink:title=" ">
<path fill="none" stroke="#63b8ff" d="M80.51,-309.53C66.51,-311.78 52.53,-314.04 41.71,-315.78"/>
<polygon fill="#63b8ff" stroke="#63b8ff" points="80.87,-313.02 90.19,-307.97 79.76,-306.1 80.87,-313.02"/>
</a>
</g>
</g>
<!-- Node17 -->
<g id="Node000017" class="node">
<title>Node17</title>
<g id="a_Node000017"><a xlink:href="TestSearch_8cpp.html#a7120a1bbfb46623c11b708a8ab750d82" target="_top" xlink:title=" ">
<polygon fill="white" stroke="#666666" points="41.5,-291 0,-291 0,-271 41.5,-271 41.5,-291"/>
<text xml:space="preserve" text-anchor="middle" x="20.75" y="-277.5" font-family="Helvetica,sans-Serif" font-size="10.00">TEST</text>
</a>
</g>
</g>
<!-- Node15&#45;&gt;Node17 -->
<g id="edge17_Node000015_Node000017" class="edge">
<title>Node15&#45;&gt;Node17</title>
<g id="a_edge17_Node000015_Node000017"><a xlink:title=" ">
<path fill="none" stroke="#63b8ff" d="M80.51,-290.47C66.51,-288.22 52.53,-285.96 41.71,-284.22"/>
<polygon fill="#63b8ff" stroke="#63b8ff" points="79.76,-293.9 90.19,-292.03 80.87,-286.98 79.76,-293.9"/>
</a>
</g>
</g>
<!-- Node20&#45;&gt;Node12 -->
<g id="edge21_Node000020_Node000012" class="edge">
<title>Node20&#45;&gt;Node12</title>
<g id="a_edge21_Node000020_Node000012"><a xlink:title=" ">
<path fill="none" stroke="#63b8ff" d="M249.39,-110C232.03,-110 213.91,-110 197.59,-110"/>
<polygon fill="#63b8ff" stroke="#63b8ff" points="249.14,-113.5 259.14,-110 249.14,-106.5 249.14,-113.5"/>
</a>
</g>
</g>
<!-- Node21&#45;&gt;Node11 -->
<g id="edge23_Node000021_Node000011" class="edge">
<title>Node21&#45;&gt;Node11</title>
<g id="a_edge23_Node000021_Node000011"><a xlink:title=" ">
<path fill="none" stroke="#63b8ff" d="M239.97,-148C227.91,-148 215.71,-148 204.2,-148"/>
<polygon fill="#63b8ff" stroke="#63b8ff" points="239.95,-151.5 249.95,-148 239.95,-144.5 239.95,-151.5"/>
</a>
</g>
</g>
<!-- Node22&#45;&gt;Node8 -->
<g id="edge25_Node000022_Node000008" class="edge">
<title>Node22&#45;&gt;Node8</title>
<g id="a_edge25_Node000022_Node000008"><a xlink:title=" ">
<path fill="none" stroke="#63b8ff" d="M252.36,-186C233.79,-186 214.16,-186 196.68,-186"/>
<polygon fill="#63b8ff" stroke="#63b8ff" points="252.24,-189.5 262.24,-186 252.24,-182.5 252.24,-189.5"/>
</a>
</g>
</g>
<!-- Node23&#45;&gt;Node5 -->
<g id="edge27_Node000023_Node000005" class="edge">
<title>Node23&#45;&gt;Node5</title>
<g id="a_edge27_Node000023_Node000005"><a xlink:title=" ">
<path fill="none" stroke="#63b8ff" d="M264.22,-312.72C228.55,-320.07 186.02,-328.84 161.58,-333.88"/>
<polygon fill="#63b8ff" stroke="#63b8ff" points="264.47,-316.24 273.56,-310.79 263.06,-309.38 264.47,-316.24"/>
</a>
</g>
</g>
<!-- Node23&#45;&gt;Node14 -->
<g id="edge28_Node000023_Node000014" class="edge">
<title>Node23&#45;&gt;Node14</title>
<g id="a_edge28_Node000023_Node000014"><a xlink:title=" ">
<path fill="none" stroke="#63b8ff" d="M264.22,-287.28C228.55,-279.93 186.02,-271.16 161.58,-266.12"/>
<polygon fill="#63b8ff" stroke="#63b8ff" points="263.06,-290.62 273.56,-289.21 264.47,-283.76 263.06,-290.62"/>
</a>
</g>
</g>
<!-- Node23&#45;&gt;Node15 -->
<g id="edge29_Node000023_Node000015" class="edge">
<title>Node23&#45;&gt;Node15</title>
<g id="a_edge29_Node000023_Node000015"><a xlink:title=" ">
<path fill="none" stroke="#63b8ff" d="M253.37,-300C231.9,-300 208.93,-300 189.44,-300"/>
<polygon fill="#63b8ff" stroke="#63b8ff" points="253.26,-303.5 263.26,-300 253.26,-296.5 253.26,-303.5"/>
</a>
</g>
</g>
<!-- Node24&#45;&gt;Node9 -->
<g id="edge31_Node000024_Node000009" class="edge">
<title>Node24&#45;&gt;Node9</title>
<g id="a_edge31_Node000024_Node000009"><a xlink:title=" ">
<path fill="none" stroke="#63b8ff" d="M263.87,-249.21C240.59,-244.41 214.43,-239.01 192.29,-234.45"/>
<polygon fill="#63b8ff" stroke="#63b8ff" points="263.06,-252.62 273.56,-251.21 264.47,-245.76 263.06,-252.62"/>
</a>
</g>
</g>
<!-- Node24&#45;&gt;Node14 -->
<g id="edge32_Node000024_Node000014" class="edge">
<title>Node24&#45;&gt;Node14</title>
<g id="a_edge32_Node000024_Node000014"><a xlink:title=" ">
<path fill="none" stroke="#63b8ff" d="M252.32,-262C219.53,-262 183.46,-262 161.69,-262"/>
<polygon fill="#63b8ff" stroke="#63b8ff" points="252.24,-265.5 262.24,-262 252.24,-258.5 252.24,-265.5"/>
</a>
</g>
</g>
</g>
</svg>
