<?xml version="1.0" encoding="UTF-8" standalone="no"?>
<!DOCTYPE svg PUBLIC "-//W3C//DTD SVG 1.1//EN"
 "http://www.w3.org/Graphics/SVG/1.1/DTD/svg11.dtd">
<!-- Generated by graphviz version 14.0.2 (20251019.1705)
 -->
<!-- Title: LGE::SearchQuery::MaxResults Pages: 1 -->
<svg width="405pt" height="237pt"
 viewBox="0.00 0.00 405.00 237.00" xmlns="http://www.w3.org/2000/svg" xmlns:xlink="http://www.w3.org/1999/xlink">
<g id="graph0" class="graph" transform="scale(1 1) rotate(0) translate(4 233)">
<title>LGE::SearchQuery::MaxResults</title>
<!-- Node1 -->
<g id="Node000001" class="node">
<title>Node1</title>
<g id="a_Node000001"><a xlink:title=" ">
<polygon fill="#999999" stroke="#666666" points="396.75,-134 239.75,-134 239.75,-114 396.75,-114 396.75,-134"/>
<text xml:space="preserve" text-anchor="middle" x="318.25" y="-120.5" font-family="Helvetica,sans-Serif" font-size="10.00">LGE::SearchQuery::MaxResults</text>
</a>
</g>
</g>
<!-- Node2 -->
<g id="Node000002" class="node">
<title>Node2</title>
<g id="a_Node000002"><a xlink:href="namespaceLGE_1_1Search.html#a986ef43372fd62cf1c0880fb0025804e" target="_top" xlink:title=" ">
<polygon fill="white" stroke="#666666" points="196.25,-229 85,-229 85,-209 196.25,-209 196.25,-229"/>
<text xml:space="preserve" text-anchor="middle" x="140.62" y="-215.5" font-family="Helvetica,sans-Serif" font-size="10.00">LGE::Search::ByTags</text>
</a>
</g>
</g>
<!-- Node1&#45;&gt;Node2 -->
<g id="edge1_Node000001_Node000002" class="edge">
<title>Node1&#45;&gt;Node2</title>
<g id="a_edge1_Node000001_Node000002"><a xlink:title=" ">
<path fill="none" stroke="#63b8ff" d="M295.55,-141.37C273.53,-158.29 237.9,-183.78 203.75,-200 196.92,-203.24 189.42,-206.09 182.05,-208.52"/>
<polygon fill="#63b8ff" stroke="#63b8ff" points="297.46,-144.32 303.2,-135.4 293.16,-138.8 297.46,-144.32"/>
</a>
</g>
</g>
<!-- Node3 -->
<g id="Node000003" class="node">
<title>Node3</title>
<g id="a_Node000003"><a xlink:href="namespaceLGE_1_1Search.html#ae0069f2eac2970bc78f0f8725f450eb0" target="_top" xlink:title=" ">
<polygon fill="white" stroke="#666666" points="196.25,-191 85,-191 85,-171 196.25,-171 196.25,-191"/>
<text xml:space="preserve" text-anchor="middle" x="140.62" y="-177.5" font-family="Helvetica,sans-Serif" font-size="10.00">LGE::Search::ByType</text>
</a>
</g>
</g>
<!-- Node1&#45;&gt;Node3 -->
<g id="edge2_Node000001_Node000003" class="edge">
<title>Node1&#45;&gt;Node3</title>
<g id="a_edge2_Node000001_Node000003"><a xlink:title=" ">
<path fill="none" stroke="#63b8ff" d="M276.24,-138.02C254.7,-145.31 227.85,-154.28 203.75,-162 194.94,-164.82 185.4,-167.78 176.5,-170.51"/>
<polygon fill="#63b8ff" stroke="#63b8ff" points="277.19,-141.39 285.54,-134.86 274.94,-134.76 277.19,-141.39"/>
</a>
</g>
</g>
<!-- Node5 -->
<g id="Node000005" class="node">
<title>Node5</title>
<g id="a_Node000005"><a xlink:href="namespaceLGE_1_1Search.html#a7d936a851b082cc41474bf6bad6c2fe8" target="_top" xlink:title=" ">
<polygon fill="white" stroke="#666666" points="203.75,-153 77.5,-153 77.5,-133 203.75,-133 203.75,-153"/>
<text xml:space="preserve" text-anchor="middle" x="140.62" y="-139.5" font-family="Helvetica,sans-Serif" font-size="10.00">LGE::Search::InDirectory</text>
</a>
</g>
</g>
<!-- Node1&#45;&gt;Node5 -->
<g id="edge4_Node000001_Node000005" class="edge">
<title>Node1&#45;&gt;Node5</title>
<g id="a_edge4_Node000001_Node000005"><a xlink:title=" ">
<path fill="none" stroke="#63b8ff" d="M228.03,-133.65C219.94,-134.53 211.87,-135.4 204.08,-136.24"/>
<polygon fill="#63b8ff" stroke="#63b8ff" points="228.38,-137.13 237.95,-132.58 227.63,-130.18 228.38,-137.13"/>
</a>
</g>
</g>
<!-- Node6 -->
<g id="Node000006" class="node">
<title>Node6</title>
<g id="a_Node000006"><a xlink:href="namespaceLGE_1_1Search.html#a075f20f5304570afa55e5ef522765e72" target="_top" xlink:title=" ">
<polygon fill="white" stroke="#666666" points="197.38,-115 83.88,-115 83.88,-95 197.38,-95 197.38,-115"/>
<text xml:space="preserve" text-anchor="middle" x="140.62" y="-101.5" font-family="Helvetica,sans-Serif" font-size="10.00">LGE::Search::InMount</text>
</a>
</g>
</g>
<!-- Node1&#45;&gt;Node6 -->
<g id="edge5_Node000001_Node000006" class="edge">
<title>Node1&#45;&gt;Node6</title>
<g id="a_edge5_Node000001_Node000006"><a xlink:title=" ">
<path fill="none" stroke="#63b8ff" d="M228.22,-114.37C217.85,-113.25 207.5,-112.13 197.76,-111.07"/>
<polygon fill="#63b8ff" stroke="#63b8ff" points="227.63,-117.82 237.95,-115.42 228.38,-110.87 227.63,-117.82"/>
</a>
</g>
</g>
<!-- Node8 -->
<g id="Node000008" class="node">
<title>Node8</title>
<g id="a_Node000008"><a xlink:href="TestSearch_8cpp.html#a13cb3cdd7534423f0d92329cf16ceaf7" target="_top" xlink:title=" ">
<polygon fill="white" stroke="#666666" points="161.38,-77 119.88,-77 119.88,-57 161.38,-57 161.38,-77"/>
<text xml:space="preserve" text-anchor="middle" x="140.62" y="-63.5" font-family="Helvetica,sans-Serif" font-size="10.00">TEST</text>
</a>
</g>
</g>
<!-- Node1&#45;&gt;Node8 -->
<g id="edge7_Node000001_Node000008" class="edge">
<title>Node1&#45;&gt;Node8</title>
<g id="a_edge7_Node000001_Node000008"><a xlink:title=" ">
<path fill="none" stroke="#63b8ff" d="M276.24,-109.98C254.7,-102.69 227.85,-93.72 203.75,-86 189.79,-81.53 173.98,-76.7 161.81,-73.03"/>
<polygon fill="#63b8ff" stroke="#63b8ff" points="274.94,-113.24 285.54,-113.14 277.19,-106.61 274.94,-113.24"/>
</a>
</g>
</g>
<!-- Node9 -->
<g id="Node000009" class="node">
<title>Node9</title>
<g id="a_Node000009"><a xlink:href="namespaceLGE_1_1Search.html#ae1b3505236cfc60a02f36a0c1a06d9bd" target="_top" xlink:title=" ">
<polygon fill="white" stroke="#666666" points="189.12,-39 92.12,-39 92.12,-19 189.12,-19 189.12,-39"/>
<text xml:space="preserve" text-anchor="middle" x="140.62" y="-25.5" font-family="Helvetica,sans-Serif" font-size="10.00">LGE::Search::Text</text>
</a>
</g>
</g>
<!-- Node1&#45;&gt;Node9 -->
<g id="edge8_Node000001_Node000009" class="edge">
<title>Node1&#45;&gt;Node9</title>
<g id="a_edge8_Node000001_Node000009"><a xlink:title=" ">
<path fill="none" stroke="#63b8ff" d="M295.55,-106.63C273.53,-89.71 237.9,-64.22 203.75,-48 196.92,-44.76 189.42,-41.91 182.05,-39.48"/>
<polygon fill="#63b8ff" stroke="#63b8ff" points="293.16,-109.2 303.2,-112.6 297.46,-103.68 293.16,-109.2"/>
</a>
</g>
</g>
<!-- Node4 -->
<g id="Node000004" class="node">
<title>Node4</title>
<g id="a_Node000004"><a xlink:href="TestSearch_8cpp.html#aec262fa1aeb82f0a2ec9fca22e3d2374" target="_top" xlink:title=" ">
<polygon fill="white" stroke="#666666" points="41.5,-191 0,-191 0,-171 41.5,-171 41.5,-191"/>
<text xml:space="preserve" text-anchor="middle" x="20.75" y="-177.5" font-family="Helvetica,sans-Serif" font-size="10.00">TEST</text>
</a>
</g>
</g>
<!-- Node3&#45;&gt;Node4 -->
<g id="edge3_Node000003_Node000004" class="edge">
<title>Node3&#45;&gt;Node4</title>
<g id="a_edge3_Node000003_Node000004"><a xlink:title=" ">
<path fill="none" stroke="#63b8ff" d="M73.64,-181C62.02,-181 50.78,-181 41.75,-181"/>
<polygon fill="#63b8ff" stroke="#63b8ff" points="73.31,-184.5 83.31,-181 73.31,-177.5 73.31,-184.5"/>
</a>
</g>
</g>
<!-- Node7 -->
<g id="Node000007" class="node">
<title>Node7</title>
<g id="a_Node000007"><a xlink:href="TestSearch_8cpp.html#ad770bade109d5488d8747315303c5509" target="_top" xlink:title=" ">
<polygon fill="white" stroke="#666666" points="41.5,-115 0,-115 0,-95 41.5,-95 41.5,-115"/>
<text xml:space="preserve" text-anchor="middle" x="20.75" y="-101.5" font-family="Helvetica,sans-Serif" font-size="10.00">TEST</text>
</a>
</g>
</g>
<!-- Node6&#45;&gt;Node7 -->
<g id="edge6_Node000006_Node000007" class="edge">
<title>Node6&#45;&gt;Node7</title>
<g id="a_edge6_Node000006_Node000007"><a xlink:title=" ">
<path fill="none" stroke="#63b8ff" d="M72.26,-105C61.14,-105 50.44,-105 41.76,-105"/>
<polygon fill="#63b8ff" stroke="#63b8ff" points="71.94,-108.5 81.94,-105 71.94,-101.5 71.94,-108.5"/>
</a>
</g>
</g>
<!-- Node10 -->
<g id="Node000010" class="node">
<title>Node10</title>
<g id="a_Node000010"><a xlink:href="TestSearch_8cpp.html#a726a0578ed58faaeb0201d967dbce4be" target="_top" xlink:title=" ">
<polygon fill="white" stroke="#666666" points="41.5,-58 0,-58 0,-38 41.5,-38 41.5,-58"/>
<text xml:space="preserve" text-anchor="middle" x="20.75" y="-44.5" font-family="Helvetica,sans-Serif" font-size="10.00">TEST</text>
</a>
</g>
</g>
<!-- Node9&#45;&gt;Node10 -->
<g id="edge9_Node000009_Node000010" class="edge">
<title>Node9&#45;&gt;Node10</title>
<g id="a_edge9_Node000009_Node000010"><a xlink:title=" ">
<path fill="none" stroke="#63b8ff" d="M80.51,-38.53C66.51,-40.78 52.53,-43.04 41.71,-44.78"/>
<polygon fill="#63b8ff" stroke="#63b8ff" points="80.87,-42.02 90.19,-36.97 79.76,-35.1 80.87,-42.02"/>
</a>
</g>
</g>
<!-- Node11 -->
<g id="Node000011" class="node">
<title>Node11</title>
<g id="a_Node000011"><a xlink:href="TestSearch_8cpp.html#a7120a1bbfb46623c11b708a8ab750d82" target="_top" xlink:title=" ">
<polygon fill="white" stroke="#666666" points="41.5,-20 0,-20 0,0 41.5,0 41.5,-20"/>
<text xml:space="preserve" text-anchor="middle" x="20.75" y="-6.5" font-family="Helvetica,sans-Serif" font-size="10.00">TEST</text>
</a>
</g>
</g>
<!-- Node9&#45;&gt;Node11 -->
<g id="edge10_Node000009_Node000011" class="edge">
<title>Node9&#45;&gt;Node11</title>
<g id="a_edge10_Node000009_Node000011"><a xlink:title=" ">
<path fill="none" stroke="#63b8ff" d="M80.51,-19.47C66.51,-17.22 52.53,-14.96 41.71,-13.22"/>
<polygon fill="#63b8ff" stroke="#63b8ff" points="79.76,-22.9 90.19,-21.03 80.87,-15.98 79.76,-22.9"/>
</a>
</g>
</g>
</g>
</svg>
