<?xml version="1.0" encoding="UTF-8" standalone="no"?>
<!DOCTYPE svg PUBLIC "-//W3C//DTD SVG 1.1//EN"
 "http://www.w3.org/Graphics/SVG/1.1/DTD/svg11.dtd">
<!-- Generated by graphviz version 14.0.2 (20251019.1705)
 -->
<!-- Title: LGE::SearchQuery::Type Pages: 1 -->
<svg width="358pt" height="66pt"
 viewBox="0.00 0.00 358.00 66.00" xmlns="http://www.w3.org/2000/svg" xmlns:xlink="http://www.w3.org/1999/xlink">
<g id="graph0" class="graph" transform="scale(1 1) rotate(0) translate(4 62)">
<title>LGE::SearchQuery::Type</title>
<!-- Node1 -->
<g id="Node000001" class="node">
<title>Node1</title>
<g id="a_Node000001"><a xlink:title=" ">
<polygon fill="#999999" stroke="#666666" points="350.25,-39 224.75,-39 224.75,-19 350.25,-19 350.25,-39"/>
<text xml:space="preserve" text-anchor="middle" x="287.5" y="-25.5" font-family="Helvetica,sans-Serif" font-size="10.00">LGE::SearchQuery::Type</text>
</a>
</g>
</g>
<!-- Node2 -->
<g id="Node000002" class="node">
<title>Node2</title>
<g id="a_Node000002"><a xlink:href="namespaceLGE_1_1Search.html#ae0069f2eac2970bc78f0f8725f450eb0" target="_top" xlink:title=" ">
<polygon fill="white" stroke="#666666" points="188.75,-58 77.5,-58 77.5,-38 188.75,-38 188.75,-58"/>
<text xml:space="preserve" text-anchor="middle" x="133.12" y="-44.5" font-family="Helvetica,sans-Serif" font-size="10.00">LGE::Search::ByType</text>
</a>
</g>
</g>
<!-- Node1&#45;&gt;Node2 -->
<g id="edge1_Node000001_Node000002" class="edge">
<title>Node1&#45;&gt;Node2</title>
<g id="a_edge1_Node000001_Node000002"><a xlink:title=" ">
<path fill="none" stroke="#63b8ff" d="M213.18,-38.14C205.1,-39.15 196.99,-40.16 189.19,-41.13"/>
<polygon fill="#63b8ff" stroke="#63b8ff" points="213.53,-41.63 223.02,-36.92 212.67,-34.68 213.53,-41.63"/>
</a>
</g>
</g>
<!-- Node4 -->
<g id="Node000004" class="node">
<title>Node4</title>
<g id="a_Node000004"><a xlink:href="TestSearch_8cpp.html#a13cb3cdd7534423f0d92329cf16ceaf7" target="_top" xlink:title=" ">
<polygon fill="white" stroke="#666666" points="153.88,-20 112.38,-20 112.38,0 153.88,0 153.88,-20"/>
<text xml:space="preserve" text-anchor="middle" x="133.12" y="-6.5" font-family="Helvetica,sans-Serif" font-size="10.00">TEST</text>
</a>
</g>
</g>
<!-- Node1&#45;&gt;Node4 -->
<g id="edge3_Node000001_Node000004" class="edge">
<title>Node1&#45;&gt;Node4</title>
<g id="a_edge3_Node000001_Node000004"><a xlink:title=" ">
<path fill="none" stroke="#63b8ff" d="M213.27,-19.87C191.61,-17.17 169.64,-14.43 154.36,-12.52"/>
<polygon fill="#63b8ff" stroke="#63b8ff" points="212.67,-23.32 223.02,-21.08 213.53,-16.37 212.67,-23.32"/>
</a>
</g>
</g>
<!-- Node3 -->
<g id="Node000003" class="node">
<title>Node3</title>
<g id="a_Node000003"><a xlink:href="TestSearch_8cpp.html#aec262fa1aeb82f0a2ec9fca22e3d2374" target="_top" xlink:title=" ">
<polygon fill="white" stroke="#666666" points="41.5,-58 0,-58 0,-38 41.5,-38 41.5,-58"/>
<text xml:space="preserve" text-anchor="middle" x="20.75" y="-44.5" font-family="Helvetica,sans-Serif" font-size="10.00">TEST</text>
</a>
</g>
</g>
<!-- Node2&#45;&gt;Node3 -->
<g id="edge2_Node000002_Node000003" class="edge">
<title>Node2&#45;&gt;Node3</title>
<g id="a_edge2_Node000002_Node000003"><a xlink:title=" ">
<path fill="none" stroke="#63b8ff" d="M65.76,-48C57.12,-48 48.86,-48 41.88,-48"/>
<polygon fill="#63b8ff" stroke="#63b8ff" points="65.75,-51.5 75.75,-48 65.75,-44.5 65.75,-51.5"/>
</a>
</g>
</g>
</g>
</svg>
