<?xml version="1.0" encoding="UTF-8" standalone="no"?>
<!DOCTYPE svg PUBLIC "-//W3C//DTD SVG 1.1//EN"
 "http://www.w3.org/Graphics/SVG/1.1/DTD/svg11.dtd">
<!-- Generated by graphviz version 14.0.2 (20251019.1705)
 -->
<!-- Title: LGE::Camera::UpdateViewMatrix Pages: 1 -->
<svg width="445pt" height="40pt"
 viewBox="0.00 0.00 445.00 40.00" xmlns="http://www.w3.org/2000/svg" xmlns:xlink="http://www.w3.org/1999/xlink">
<g id="graph0" class="graph" transform="scale(1 1) rotate(0) translate(4 36)">
<title>LGE::Camera::UpdateViewMatrix</title>
<!-- Node1 -->
<g id="Node000001" class="node">
<title>Node1</title>
<g id="a_Node000001"><a xlink:title=" ">
<polygon fill="#999999" stroke="#666666" points="162.25,-26 0,-26 0,-6 162.25,-6 162.25,-26"/>
<text xml:space="preserve" text-anchor="middle" x="81.12" y="-12.5" font-family="Helvetica,sans-Serif" font-size="10.00">LGE::Camera::UpdateViewMatrix</text>
</a>
</g>
</g>
<!-- Node2 -->
<g id="Node000002" class="node">
<title>Node2</title>
<g id="a_Node000002"><a xlink:href="structLGE_1_1Math_1_1Matrix4.html#af83a1273cd30fbd76f827b132a1c4e94" target="_top" xlink:title=" ">
<polygon fill="white" stroke="#666666" points="299.75,-32 198.25,-32 198.25,0 299.75,0 299.75,-32"/>
<text xml:space="preserve" text-anchor="start" x="206.25" y="-18.5" font-family="Helvetica,sans-Serif" font-size="10.00">LGE::Math::Matrix4</text>
<text xml:space="preserve" text-anchor="middle" x="249" y="-6.5" font-family="Helvetica,sans-Serif" font-size="10.00">::LookAt</text>
</a>
</g>
</g>
<!-- Node1&#45;&gt;Node2 -->
<g id="edge1_Node000001_Node000002" class="edge">
<title>Node1&#45;&gt;Node2</title>
<g id="a_edge1_Node000001_Node000002"><a xlink:title=" ">
<path fill="none" stroke="#63b8ff" d="M162.63,-16C170.73,-16 178.86,-16 186.71,-16"/>
<polygon fill="#63b8ff" stroke="#63b8ff" points="186.46,-19.5 196.46,-16 186.46,-12.5 186.46,-19.5"/>
</a>
</g>
</g>
<!-- Node3 -->
<g id="Node000003" class="node">
<title>Node3</title>
<g id="a_Node000003"><a xlink:href="structLGE_1_1Math_1_1Matrix4.html#a02dc0417ebe852f1ef2ac703f5d5711e" target="_top" xlink:title=" ">
<polygon fill="white" stroke="#666666" points="437.25,-32 335.75,-32 335.75,0 437.25,0 437.25,-32"/>
<text xml:space="preserve" text-anchor="start" x="343.75" y="-18.5" font-family="Helvetica,sans-Serif" font-size="10.00">LGE::Math::Matrix4</text>
<text xml:space="preserve" text-anchor="middle" x="386.5" y="-6.5" font-family="Helvetica,sans-Serif" font-size="10.00">::Matrix4</text>
</a>
</g>
</g>
<!-- Node2&#45;&gt;Node3 -->
<g id="edge2_Node000002_Node000003" class="edge">
<title>Node2&#45;&gt;Node3</title>
<g id="a_edge2_Node000002_Node000003"><a xlink:title=" ">
<path fill="none" stroke="#63b8ff" d="M300.07,-16C307.96,-16 316.2,-16 324.31,-16"/>
<polygon fill="#63b8ff" stroke="#63b8ff" points="324.12,-19.5 334.12,-16 324.12,-12.5 324.12,-19.5"/>
</a>
</g>
</g>
</g>
</svg>
