<?xml version="1.0" encoding="UTF-8" standalone="no"?>
<!DOCTYPE svg PUBLIC "-//W3C//DTD SVG 1.1//EN"
 "http://www.w3.org/Graphics/SVG/1.1/DTD/svg11.dtd">
<!-- Generated by graphviz version 14.0.2 (20251019.1705)
 -->
<!-- Title: LGE::Camera::SetPerspective Pages: 1 -->
<svg width="647pt" height="115pt"
 viewBox="0.00 0.00 647.00 115.00" xmlns="http://www.w3.org/2000/svg" xmlns:xlink="http://www.w3.org/1999/xlink">
<g id="graph0" class="graph" transform="scale(1 1) rotate(0) translate(4 111)">
<title>LGE::Camera::SetPerspective</title>
<!-- Node1 -->
<g id="Node000001" class="node">
<title>Node1</title>
<g id="a_Node000001"><a xlink:title=" ">
<polygon fill="#999999" stroke="#666666" points="148.75,-51 0,-51 0,-31 148.75,-31 148.75,-51"/>
<text xml:space="preserve" text-anchor="middle" x="74.38" y="-37.5" font-family="Helvetica,sans-Serif" font-size="10.00">LGE::Camera::SetPerspective</text>
</a>
</g>
</g>
<!-- Node2 -->
<g id="Node000002" class="node">
<title>Node2</title>
<g id="a_Node000002"><a xlink:href="classLGE_1_1Camera.html#a8d884fa85bbeff3acc43266a8f908fce" target="_top" xlink:title=" ">
<polygon fill="white" stroke="#666666" points="352.62,-82 195.62,-82 195.62,-50 352.62,-50 352.62,-82"/>
<text xml:space="preserve" text-anchor="start" x="203.62" y="-68.5" font-family="Helvetica,sans-Serif" font-size="10.00">LGE::Camera::UpdateProjection</text>
<text xml:space="preserve" text-anchor="middle" x="274.12" y="-56.5" font-family="Helvetica,sans-Serif" font-size="10.00">Matrix</text>
</a>
</g>
</g>
<!-- Node1&#45;&gt;Node2 -->
<g id="edge1_Node000001_Node000002" class="edge">
<title>Node1&#45;&gt;Node2</title>
<g id="a_edge1_Node000001_Node000002"><a xlink:title=" ">
<path fill="none" stroke="#63b8ff" d="M149.01,-50.31C160.49,-51.76 172.46,-53.27 184.24,-54.76"/>
<polygon fill="#63b8ff" stroke="#63b8ff" points="183.6,-58.21 193.96,-55.99 184.47,-51.26 183.6,-58.21"/>
</a>
</g>
</g>
<!-- Node6 -->
<g id="Node000006" class="node">
<title>Node6</title>
<g id="a_Node000006"><a xlink:href="classLGE_1_1Camera.html#ad5762d9f21d46ca4961b6371dca6f5db" target="_top" xlink:title=" ">
<polygon fill="white" stroke="#666666" points="363.5,-32 184.75,-32 184.75,0 363.5,0 363.5,-32"/>
<text xml:space="preserve" text-anchor="start" x="192.75" y="-18.5" font-family="Helvetica,sans-Serif" font-size="10.00">LGE::Camera::UpdateViewProjection</text>
<text xml:space="preserve" text-anchor="middle" x="274.12" y="-6.5" font-family="Helvetica,sans-Serif" font-size="10.00">Matrix</text>
</a>
</g>
</g>
<!-- Node1&#45;&gt;Node6 -->
<g id="edge6_Node000001_Node000006" class="edge">
<title>Node1&#45;&gt;Node6</title>
<g id="a_edge6_Node000001_Node000006"><a xlink:title=" ">
<path fill="none" stroke="#63b8ff" d="M149.01,-31.69C156.85,-30.7 164.91,-29.68 172.99,-28.66"/>
<polygon fill="#63b8ff" stroke="#63b8ff" points="173.4,-32.14 182.88,-27.41 172.52,-25.19 173.4,-32.14"/>
</a>
</g>
</g>
<!-- Node3 -->
<g id="Node000003" class="node">
<title>Node3</title>
<g id="a_Node000003"><a xlink:href="structLGE_1_1Math_1_1Matrix4.html#acaadbb2fff7609f792ce190240110ac5" target="_top" xlink:title=" ">
<polygon fill="white" stroke="#666666" points="501,-107 399.5,-107 399.5,-75 501,-75 501,-107"/>
<text xml:space="preserve" text-anchor="start" x="407.5" y="-93.5" font-family="Helvetica,sans-Serif" font-size="10.00">LGE::Math::Matrix4</text>
<text xml:space="preserve" text-anchor="middle" x="450.25" y="-81.5" font-family="Helvetica,sans-Serif" font-size="10.00">::Orthographic</text>
</a>
</g>
</g>
<!-- Node2&#45;&gt;Node3 -->
<g id="edge2_Node000002_Node000003" class="edge">
<title>Node2&#45;&gt;Node3</title>
<g id="a_edge2_Node000002_Node000003"><a xlink:title=" ">
<path fill="none" stroke="#63b8ff" d="M353.02,-77.18C364.84,-78.88 376.88,-80.61 388.27,-82.24"/>
<polygon fill="#63b8ff" stroke="#63b8ff" points="387.51,-85.67 397.91,-83.63 388.51,-78.74 387.51,-85.67"/>
</a>
</g>
</g>
<!-- Node5 -->
<g id="Node000005" class="node">
<title>Node5</title>
<g id="a_Node000005"><a xlink:href="structLGE_1_1Math_1_1Matrix4.html#aaa8e7cbf99003770c579766b31515f61" target="_top" xlink:title=" ">
<polygon fill="white" stroke="#666666" points="501,-57 399.5,-57 399.5,-25 501,-25 501,-57"/>
<text xml:space="preserve" text-anchor="start" x="407.5" y="-43.5" font-family="Helvetica,sans-Serif" font-size="10.00">LGE::Math::Matrix4</text>
<text xml:space="preserve" text-anchor="middle" x="450.25" y="-31.5" font-family="Helvetica,sans-Serif" font-size="10.00">::Perspective</text>
</a>
</g>
</g>
<!-- Node2&#45;&gt;Node5 -->
<g id="edge4_Node000002_Node000005" class="edge">
<title>Node2&#45;&gt;Node5</title>
<g id="a_edge4_Node000002_Node000005"><a xlink:title=" ">
<path fill="none" stroke="#63b8ff" d="M353.02,-54.82C364.84,-53.12 376.88,-51.39 388.27,-49.76"/>
<polygon fill="#63b8ff" stroke="#63b8ff" points="388.51,-53.26 397.91,-48.37 387.51,-46.33 388.51,-53.26"/>
</a>
</g>
</g>
<!-- Node4 -->
<g id="Node000004" class="node">
<title>Node4</title>
<g id="a_Node000004"><a xlink:href="structLGE_1_1Math_1_1Matrix4.html#a02dc0417ebe852f1ef2ac703f5d5711e" target="_top" xlink:title=" ">
<polygon fill="white" stroke="#666666" points="638.5,-82 537,-82 537,-50 638.5,-50 638.5,-82"/>
<text xml:space="preserve" text-anchor="start" x="545" y="-68.5" font-family="Helvetica,sans-Serif" font-size="10.00">LGE::Math::Matrix4</text>
<text xml:space="preserve" text-anchor="middle" x="587.75" y="-56.5" font-family="Helvetica,sans-Serif" font-size="10.00">::Matrix4</text>
</a>
</g>
</g>
<!-- Node3&#45;&gt;Node4 -->
<g id="edge3_Node000003_Node000004" class="edge">
<title>Node3&#45;&gt;Node4</title>
<g id="a_edge3_Node000003_Node000004"><a xlink:title=" ">
<path fill="none" stroke="#63b8ff" d="M501.32,-81.76C509.3,-80.29 517.64,-78.75 525.83,-77.24"/>
<polygon fill="#63b8ff" stroke="#63b8ff" points="526.2,-80.73 535.4,-75.47 524.93,-73.85 526.2,-80.73"/>
</a>
</g>
</g>
<!-- Node5&#45;&gt;Node4 -->
<g id="edge5_Node000005_Node000004" class="edge">
<title>Node5&#45;&gt;Node4</title>
<g id="a_edge5_Node000005_Node000004"><a xlink:title=" ">
<path fill="none" stroke="#63b8ff" d="M501.32,-50.24C509.3,-51.71 517.64,-53.25 525.83,-54.76"/>
<polygon fill="#63b8ff" stroke="#63b8ff" points="524.93,-58.15 535.4,-56.53 526.2,-51.27 524.93,-58.15"/>
</a>
</g>
</g>
</g>
</svg>
