<?xml version="1.0" encoding="UTF-8" standalone="no"?>
<!DOCTYPE svg PUBLIC "-//W3C//DTD SVG 1.1//EN"
 "http://www.w3.org/Graphics/SVG/1.1/DTD/svg11.dtd">
<!-- Generated by graphviz version 14.0.2 (20251019.1705)
 -->
<!-- Title: LGE::Camera::Zoom Pages: 1 -->
<svg width="605pt" height="84pt"
 viewBox="0.00 0.00 605.00 84.00" xmlns="http://www.w3.org/2000/svg" xmlns:xlink="http://www.w3.org/1999/xlink">
<g id="graph0" class="graph" transform="scale(1 1) rotate(0) translate(4 80)">
<title>LGE::Camera::Zoom</title>
<!-- Node1 -->
<g id="Node000001" class="node">
<title>Node1</title>
<g id="a_Node000001"><a xlink:title=" ">
<polygon fill="#999999" stroke="#666666" points="106.75,-48 0,-48 0,-28 106.75,-28 106.75,-48"/>
<text xml:space="preserve" text-anchor="middle" x="53.38" y="-34.5" font-family="Helvetica,sans-Serif" font-size="10.00">LGE::Camera::Zoom</text>
</a>
</g>
</g>
<!-- Node2 -->
<g id="Node000002" class="node">
<title>Node2</title>
<g id="a_Node000002"><a xlink:href="classLGE_1_1Camera.html#a11d25fd3a204f4506304ab9510eb1762" target="_top" xlink:title=" ">
<polygon fill="white" stroke="#666666" points="313.25,-70 151,-70 151,-50 313.25,-50 313.25,-70"/>
<text xml:space="preserve" text-anchor="middle" x="232.12" y="-56.5" font-family="Helvetica,sans-Serif" font-size="10.00">LGE::Camera::UpdateViewMatrix</text>
</a>
</g>
</g>
<!-- Node1&#45;&gt;Node2 -->
<g id="edge1_Node000001_Node000002" class="edge">
<title>Node1&#45;&gt;Node2</title>
<g id="a_edge1_Node000001_Node000002"><a xlink:title=" ">
<path fill="none" stroke="#63b8ff" d="M106.93,-44.54C117.23,-45.82 128.32,-47.2 139.47,-48.59"/>
<polygon fill="#63b8ff" stroke="#63b8ff" points="138.76,-52.03 149.12,-49.79 139.63,-45.08 138.76,-52.03"/>
</a>
</g>
</g>
<!-- Node5 -->
<g id="Node000005" class="node">
<title>Node5</title>
<g id="a_Node000005"><a xlink:href="classLGE_1_1Camera.html#ad5762d9f21d46ca4961b6371dca6f5db" target="_top" xlink:title=" ">
<polygon fill="white" stroke="#666666" points="321.5,-32 142.75,-32 142.75,0 321.5,0 321.5,-32"/>
<text xml:space="preserve" text-anchor="start" x="150.75" y="-18.5" font-family="Helvetica,sans-Serif" font-size="10.00">LGE::Camera::UpdateViewProjection</text>
<text xml:space="preserve" text-anchor="middle" x="232.12" y="-6.5" font-family="Helvetica,sans-Serif" font-size="10.00">Matrix</text>
</a>
</g>
</g>
<!-- Node1&#45;&gt;Node5 -->
<g id="edge4_Node000001_Node000005" class="edge">
<title>Node1&#45;&gt;Node5</title>
<g id="a_edge4_Node000001_Node000005"><a xlink:title=" ">
<path fill="none" stroke="#63b8ff" d="M106.93,-31.46C114.62,-30.5 122.75,-29.49 131.03,-28.46"/>
<polygon fill="#63b8ff" stroke="#63b8ff" points="131.37,-31.94 140.86,-27.24 130.51,-25 131.37,-31.94"/>
</a>
</g>
</g>
<!-- Node3 -->
<g id="Node000003" class="node">
<title>Node3</title>
<g id="a_Node000003"><a xlink:href="structLGE_1_1Math_1_1Matrix4.html#af83a1273cd30fbd76f827b132a1c4e94" target="_top" xlink:title=" ">
<polygon fill="white" stroke="#666666" points="459,-76 357.5,-76 357.5,-44 459,-44 459,-76"/>
<text xml:space="preserve" text-anchor="start" x="365.5" y="-62.5" font-family="Helvetica,sans-Serif" font-size="10.00">LGE::Math::Matrix4</text>
<text xml:space="preserve" text-anchor="middle" x="408.25" y="-50.5" font-family="Helvetica,sans-Serif" font-size="10.00">::LookAt</text>
</a>
</g>
</g>
<!-- Node2&#45;&gt;Node3 -->
<g id="edge2_Node000002_Node000003" class="edge">
<title>Node2&#45;&gt;Node3</title>
<g id="a_edge2_Node000002_Node000003"><a xlink:title=" ">
<path fill="none" stroke="#63b8ff" d="M313.56,-60C324.56,-60 335.69,-60 346.26,-60"/>
<polygon fill="#63b8ff" stroke="#63b8ff" points="345.96,-63.5 355.96,-60 345.96,-56.5 345.96,-63.5"/>
</a>
</g>
</g>
<!-- Node4 -->
<g id="Node000004" class="node">
<title>Node4</title>
<g id="a_Node000004"><a xlink:href="structLGE_1_1Math_1_1Matrix4.html#a02dc0417ebe852f1ef2ac703f5d5711e" target="_top" xlink:title=" ">
<polygon fill="white" stroke="#666666" points="596.5,-76 495,-76 495,-44 596.5,-44 596.5,-76"/>
<text xml:space="preserve" text-anchor="start" x="503" y="-62.5" font-family="Helvetica,sans-Serif" font-size="10.00">LGE::Math::Matrix4</text>
<text xml:space="preserve" text-anchor="middle" x="545.75" y="-50.5" font-family="Helvetica,sans-Serif" font-size="10.00">::Matrix4</text>
</a>
</g>
</g>
<!-- Node3&#45;&gt;Node4 -->
<g id="edge3_Node000003_Node000004" class="edge">
<title>Node3&#45;&gt;Node4</title>
<g id="a_edge3_Node000003_Node000004"><a xlink:title=" ">
<path fill="none" stroke="#63b8ff" d="M459.32,-60C467.21,-60 475.45,-60 483.56,-60"/>
<polygon fill="#63b8ff" stroke="#63b8ff" points="483.37,-63.5 493.37,-60 483.37,-56.5 483.37,-63.5"/>
</a>
</g>
</g>
</g>
</svg>
