<?xml version="1.0" encoding="UTF-8" standalone="no"?>
<!DOCTYPE svg PUBLIC "-//W3C//DTD SVG 1.1//EN"
 "http://www.w3.org/Graphics/SVG/1.1/DTD/svg11.dtd">
<!-- Generated by graphviz version 14.0.2 (20251019.1705)
 -->
<!-- Title: ExampleApp::Shutdown Pages: 1 -->
<svg width="443pt" height="104pt"
 viewBox="0.00 0.00 443.00 104.00" xmlns="http://www.w3.org/2000/svg" xmlns:xlink="http://www.w3.org/1999/xlink">
<g id="graph0" class="graph" transform="scale(1 1) rotate(0) translate(4 100)">
<title>ExampleApp::Shutdown</title>
<!-- Node1 -->
<g id="Node000001" class="node">
<title>Node1</title>
<g id="a_Node000001"><a xlink:title=" ">
<polygon fill="#999999" stroke="#666666" points="121,-58 0,-58 0,-38 121,-38 121,-58"/>
<text xml:space="preserve" text-anchor="middle" x="60.5" y="-44.5" font-family="Helvetica,sans-Serif" font-size="10.00">ExampleApp::Shutdown</text>
</a>
</g>
</g>
<!-- Node2 -->
<g id="Node000002" class="node">
<title>Node2</title>
<g id="a_Node000002"><a xlink:href="namespaceLGE_1_1EditorBus.html#a3c9491beeaaf4b880411d45aecf888e6" target="_top" xlink:title=" ">
<polygon fill="white" stroke="#666666" points="284,-96 170.5,-96 170.5,-76 284,-76 284,-96"/>
<text xml:space="preserve" text-anchor="middle" x="227.25" y="-82.5" font-family="Helvetica,sans-Serif" font-size="10.00">LGE::EditorBus::Clear</text>
</a>
</g>
</g>
<!-- Node1&#45;&gt;Node2 -->
<g id="edge1_Node000001_Node000002" class="edge">
<title>Node1&#45;&gt;Node2</title>
<g id="a_edge1_Node000001_Node000002"><a xlink:title=" ">
<path fill="none" stroke="#63b8ff" d="M106.95,-58.48C126.4,-62.97 149.31,-68.25 169.83,-72.99"/>
<polygon fill="#63b8ff" stroke="#63b8ff" points="168.94,-76.37 179.47,-75.21 170.51,-69.55 168.94,-76.37"/>
</a>
</g>
</g>
<!-- Node3 -->
<g id="Node000003" class="node">
<title>Node3</title>
<g id="a_Node000003"><a xlink:href="classLGE_1_1Application.html#a0ade72b35c9529406f7650156968813f" target="_top" xlink:title=" ">
<polygon fill="white" stroke="#666666" points="296.75,-20 157.75,-20 157.75,0 296.75,0 296.75,-20"/>
<text xml:space="preserve" text-anchor="middle" x="227.25" y="-6.5" font-family="Helvetica,sans-Serif" font-size="10.00">LGE::Application::Shutdown</text>
</a>
</g>
</g>
<!-- Node1&#45;&gt;Node3 -->
<g id="edge2_Node000001_Node000003" class="edge">
<title>Node1&#45;&gt;Node3</title>
<g id="a_edge2_Node000001_Node000003"><a xlink:title=" ">
<path fill="none" stroke="#63b8ff" d="M106.95,-37.52C126.4,-33.03 149.31,-27.75 169.83,-23.01"/>
<polygon fill="#63b8ff" stroke="#63b8ff" points="170.51,-26.45 179.47,-20.79 168.94,-19.63 170.51,-26.45"/>
</a>
</g>
</g>
<!-- Node6 -->
<g id="Node000006" class="node">
<title>Node6</title>
<g id="a_Node000006"><a xlink:href="namespaceLGE_1_1ThreadPool.html#a1e02ab4b847873210025bbb4524e5380" target="_top" xlink:title=" ">
<polygon fill="white" stroke="#666666" points="297.5,-58 157,-58 157,-38 297.5,-38 297.5,-58"/>
<text xml:space="preserve" text-anchor="middle" x="227.25" y="-44.5" font-family="Helvetica,sans-Serif" font-size="10.00">LGE::ThreadPool::Shutdown</text>
</a>
</g>
</g>
<!-- Node1&#45;&gt;Node6 -->
<g id="edge5_Node000001_Node000006" class="edge">
<title>Node1&#45;&gt;Node6</title>
<g id="a_edge5_Node000001_Node000006"><a xlink:title=" ">
<path fill="none" stroke="#63b8ff" d="M121.44,-48C129.2,-48 137.24,-48 145.26,-48"/>
<polygon fill="#63b8ff" stroke="#63b8ff" points="145.05,-51.5 155.05,-48 145.05,-44.5 145.05,-51.5"/>
</a>
</g>
</g>
<!-- Node4 -->
<g id="Node000004" class="node">
<title>Node4</title>
<g id="a_Node000004"><a xlink:href="classLGE_1_1Log.html#ab0265ee050b8873a2fd31fbdb696ced0" target="_top" xlink:title=" ">
<polygon fill="white" stroke="#666666" points="424.12,-58 344.38,-58 344.38,-38 424.12,-38 424.12,-58"/>
<text xml:space="preserve" text-anchor="middle" x="384.25" y="-44.5" font-family="Helvetica,sans-Serif" font-size="10.00">LGE::Log::Info</text>
</a>
</g>
</g>
<!-- Node3&#45;&gt;Node4 -->
<g id="edge3_Node000003_Node000004" class="edge">
<title>Node3&#45;&gt;Node4</title>
<g id="a_edge3_Node000003_Node000004"><a xlink:title=" ">
<path fill="none" stroke="#63b8ff" d="M271.01,-20.48C290.21,-25.19 312.98,-30.77 332.98,-35.68"/>
<polygon fill="#63b8ff" stroke="#63b8ff" points="332.06,-39.05 342.61,-38.04 333.73,-32.25 332.06,-39.05"/>
</a>
</g>
</g>
<!-- Node5 -->
<g id="Node000005" class="node">
<title>Node5</title>
<g id="a_Node000005"><a xlink:href="classLGE_1_1UI.html#a9684e81b95e3586446017c107e0798dc" target="_top" xlink:title=" ">
<polygon fill="white" stroke="#666666" points="435,-20 333.5,-20 333.5,0 435,0 435,-20"/>
<text xml:space="preserve" text-anchor="middle" x="384.25" y="-6.5" font-family="Helvetica,sans-Serif" font-size="10.00">LGE::UI::Shutdown</text>
</a>
</g>
</g>
<!-- Node3&#45;&gt;Node5 -->
<g id="edge4_Node000003_Node000005" class="edge">
<title>Node3&#45;&gt;Node5</title>
<g id="a_edge4_Node000003_Node000005"><a xlink:title=" ">
<path fill="none" stroke="#63b8ff" d="M297.14,-10C305.38,-10 313.76,-10 321.88,-10"/>
<polygon fill="#63b8ff" stroke="#63b8ff" points="321.65,-13.5 331.65,-10 321.65,-6.5 321.65,-13.5"/>
</a>
</g>
</g>
<!-- Node6&#45;&gt;Node4 -->
<g id="edge6_Node000006_Node000004" class="edge">
<title>Node6&#45;&gt;Node4</title>
<g id="a_edge6_Node000006_Node000004"><a xlink:title=" ">
<path fill="none" stroke="#63b8ff" d="M297.59,-48C309.43,-48 321.54,-48 332.77,-48"/>
<polygon fill="#63b8ff" stroke="#63b8ff" points="332.61,-51.5 342.61,-48 332.61,-44.5 332.61,-51.5"/>
</a>
</g>
</g>
</g>
</svg>
