<?xml version="1.0" encoding="UTF-8" standalone="no"?>
<!DOCTYPE svg PUBLIC "-//W3C//DTD SVG 1.1//EN"
 "http://www.w3.org/Graphics/SVG/1.1/DTD/svg11.dtd">
<!-- Generated by graphviz version 14.0.2 (20251019.1705)
 -->
<!-- Title: LGE::Material::CreateDefaultLitMaterial Pages: 1 -->
<svg width="443pt" height="53pt"
 viewBox="0.00 0.00 443.00 53.00" xmlns="http://www.w3.org/2000/svg" xmlns:xlink="http://www.w3.org/1999/xlink">
<g id="graph0" class="graph" transform="scale(1 1) rotate(0) translate(4 49)">
<title>LGE::Material::CreateDefaultLitMaterial</title>
<!-- Node1 -->
<g id="Node000001" class="node">
<title>Node1</title>
<g id="a_Node000001"><a xlink:title=" ">
<polygon fill="#999999" stroke="#666666" points="142.75,-45 0,-45 0,-13 142.75,-13 142.75,-45"/>
<text xml:space="preserve" text-anchor="start" x="8" y="-31.5" font-family="Helvetica,sans-Serif" font-size="10.00">LGE::Material::CreateDefault</text>
<text xml:space="preserve" text-anchor="middle" x="71.38" y="-19.5" font-family="Helvetica,sans-Serif" font-size="10.00">LitMaterial</text>
</a>
</g>
</g>
<!-- Node2 -->
<g id="Node000002" class="node">
<title>Node2</title>
<g id="a_Node000002"><a xlink:href="classLGE_1_1Log.html#a53f3f4b8797ffd18145739c9e66d690a" target="_top" xlink:title=" ">
<polygon fill="white" stroke="#666666" points="435,-39 350.75,-39 350.75,-19 435,-19 435,-39"/>
<text xml:space="preserve" text-anchor="middle" x="392.88" y="-25.5" font-family="Helvetica,sans-Serif" font-size="10.00">LGE::Log::Error</text>
</a>
</g>
</g>
<!-- Node1&#45;&gt;Node2 -->
<g id="edge1_Node000001_Node000002" class="edge">
<title>Node1&#45;&gt;Node2</title>
<g id="a_edge1_Node000001_Node000002"><a xlink:title=" ">
<path fill="none" stroke="#63b8ff" d="M142.89,-29C202.12,-29 285.46,-29 339.08,-29"/>
<polygon fill="#63b8ff" stroke="#63b8ff" points="338.87,-32.5 348.87,-29 338.86,-25.5 338.87,-32.5"/>
</a>
</g>
</g>
<!-- Node3 -->
<g id="Node000003" class="node">
<title>Node3</title>
<g id="a_Node000003"><a xlink:href="classLGE_1_1FileSystem.html#aeae9855420d588ff0391b77b6674e02b" target="_top" xlink:title=" ">
<polygon fill="white" stroke="#666666" points="314.75,-20 178.75,-20 178.75,0 314.75,0 314.75,-20"/>
<text xml:space="preserve" text-anchor="middle" x="246.75" y="-6.5" font-family="Helvetica,sans-Serif" font-size="10.00">LGE::FileSystem::ReadFile</text>
</a>
</g>
</g>
<!-- Node1&#45;&gt;Node3 -->
<g id="edge2_Node000001_Node000003" class="edge">
<title>Node1&#45;&gt;Node3</title>
<g id="a_edge2_Node000001_Node000003"><a xlink:title=" ">
<path fill="none" stroke="#63b8ff" d="M143.14,-21.24C151.03,-20.38 159.11,-19.49 167.09,-18.62"/>
<polygon fill="#63b8ff" stroke="#63b8ff" points="167.22,-22.13 176.78,-17.56 166.46,-15.17 167.22,-22.13"/>
</a>
</g>
</g>
<!-- Node3&#45;&gt;Node2 -->
<g id="edge3_Node000003_Node000002" class="edge">
<title>Node3&#45;&gt;Node2</title>
<g id="a_edge3_Node000003_Node000002"><a xlink:title=" ">
<path fill="none" stroke="#63b8ff" d="M315.17,-18.89C323.24,-19.95 331.39,-21.03 339.21,-22.06"/>
<polygon fill="#63b8ff" stroke="#63b8ff" points="338.52,-25.5 348.89,-23.33 339.43,-18.56 338.52,-25.5"/>
</a>
</g>
</g>
</g>
</svg>
