<?xml version="1.0" encoding="UTF-8" standalone="no"?>
<!DOCTYPE svg PUBLIC "-//W3C//DTD SVG 1.1//EN"
 "http://www.w3.org/Graphics/SVG/1.1/DTD/svg11.dtd">
<!-- Generated by graphviz version 14.0.2 (20251019.1705)
 -->
<!-- Title: LGE::AssetStream::Open Pages: 1 -->
<svg width="297pt" height="192pt"
 viewBox="0.00 0.00 297.00 192.00" xmlns="http://www.w3.org/2000/svg" xmlns:xlink="http://www.w3.org/1999/xlink">
<g id="graph0" class="graph" transform="scale(1 1) rotate(0) translate(4 188)">
<title>LGE::AssetStream::Open</title>
<!-- Node1 -->
<g id="Node000001" class="node">
<title>Node1</title>
<g id="a_Node000001"><a xlink:title=" ">
<polygon fill="#999999" stroke="#666666" points="127.75,-102 0,-102 0,-82 127.75,-82 127.75,-102"/>
<text xml:space="preserve" text-anchor="middle" x="63.88" y="-88.5" font-family="Helvetica,sans-Serif" font-size="10.00">LGE::AssetStream::Open</text>
</a>
</g>
</g>
<!-- Node2 -->
<g id="Node000002" class="node">
<title>Node2</title>
<g id="a_Node000002"><a xlink:href="classLGE_1_1Log.html#a53f3f4b8797ffd18145739c9e66d690a" target="_top" xlink:title=" ">
<polygon fill="white" stroke="#666666" points="268.25,-184 184,-184 184,-164 268.25,-164 268.25,-184"/>
<text xml:space="preserve" text-anchor="middle" x="226.12" y="-170.5" font-family="Helvetica,sans-Serif" font-size="10.00">LGE::Log::Error</text>
</a>
</g>
</g>
<!-- Node1&#45;&gt;Node2 -->
<g id="edge1_Node000001_Node000002" class="edge">
<title>Node1&#45;&gt;Node2</title>
<g id="a_edge1_Node000001_Node000002"><a xlink:title=" ">
<path fill="none" stroke="#63b8ff" d="M78.6,-102.43C97.09,-116.09 131.43,-140.03 163.75,-155 167.46,-156.72 171.37,-158.33 175.34,-159.84"/>
<polygon fill="#63b8ff" stroke="#63b8ff" points="173.88,-163.04 184.47,-163.07 176.21,-156.44 173.88,-163.04"/>
</a>
</g>
</g>
<!-- Node3 -->
<g id="Node000003" class="node">
<title>Node3</title>
<g id="a_Node000003"><a xlink:href="namespaceLGE_1_1LxFile.html#a11e62876b312a11b881b484bb3a5ee71" target="_top" xlink:title=" ">
<polygon fill="white" stroke="#666666" points="276.88,-146 175.38,-146 175.38,-126 276.88,-126 276.88,-146"/>
<text xml:space="preserve" text-anchor="middle" x="226.12" y="-132.5" font-family="Helvetica,sans-Serif" font-size="10.00">LGE::LxFile::Exists</text>
</a>
</g>
</g>
<!-- Node1&#45;&gt;Node3 -->
<g id="edge2_Node000001_Node000003" class="edge">
<title>Node1&#45;&gt;Node3</title>
<g id="a_edge2_Node000001_Node000003"><a xlink:title=" ">
<path fill="none" stroke="#63b8ff" d="M102.85,-102.43C124.82,-108.46 152.71,-116.12 176.3,-122.59"/>
<polygon fill="#63b8ff" stroke="#63b8ff" points="175.11,-125.9 185.68,-125.17 176.97,-119.15 175.11,-125.9"/>
</a>
</g>
</g>
<!-- Node4 -->
<g id="Node000004" class="node">
<title>Node4</title>
<g id="a_Node000004"><a xlink:href="namespaceLGE_1_1AssetRegistry.html#a9e672f9e3c8c62076b9156d1695e48b8" target="_top" xlink:title=" ">
<polygon fill="white" stroke="#666666" points="278,-108 174.25,-108 174.25,-76 278,-76 278,-108"/>
<text xml:space="preserve" text-anchor="start" x="182.25" y="-94.5" font-family="Helvetica,sans-Serif" font-size="10.00">LGE::AssetRegistry</text>
<text xml:space="preserve" text-anchor="middle" x="226.12" y="-82.5" font-family="Helvetica,sans-Serif" font-size="10.00">::FindByGUID</text>
</a>
</g>
</g>
<!-- Node1&#45;&gt;Node4 -->
<g id="edge3_Node000001_Node000004" class="edge">
<title>Node1&#45;&gt;Node4</title>
<g id="a_edge3_Node000001_Node000004"><a xlink:title=" ">
<path fill="none" stroke="#63b8ff" d="M128.21,-92C139.44,-92 151.14,-92 162.35,-92"/>
<polygon fill="#63b8ff" stroke="#63b8ff" points="162.32,-95.5 172.32,-92 162.32,-88.5 162.32,-95.5"/>
</a>
</g>
</g>
<!-- Node5 -->
<g id="Node000005" class="node">
<title>Node5</title>
<g id="a_Node000005"><a xlink:href="namespaceLGE_1_1LxFile.html#a40751ea42c228d8e2c6f6b0788e24aa7" target="_top" xlink:title=" ">
<polygon fill="white" stroke="#666666" points="288.5,-58 163.75,-58 163.75,-38 288.5,-38 288.5,-58"/>
<text xml:space="preserve" text-anchor="middle" x="226.12" y="-44.5" font-family="Helvetica,sans-Serif" font-size="10.00">LGE::LxFile::GetFileSize</text>
</a>
</g>
</g>
<!-- Node1&#45;&gt;Node5 -->
<g id="edge4_Node000001_Node000005" class="edge">
<title>Node1&#45;&gt;Node5</title>
<g id="a_edge4_Node000001_Node000005"><a xlink:title=" ">
<path fill="none" stroke="#63b8ff" d="M102.85,-81.57C124.82,-75.54 152.71,-67.88 176.3,-61.41"/>
<polygon fill="#63b8ff" stroke="#63b8ff" points="176.97,-64.85 185.68,-58.83 175.11,-58.1 176.97,-64.85"/>
</a>
</g>
</g>
<!-- Node6 -->
<g id="Node000006" class="node">
<title>Node6</title>
<g id="a_Node000006"><a xlink:href="classLGE_1_1Log.html#ab0265ee050b8873a2fd31fbdb696ced0" target="_top" xlink:title=" ">
<polygon fill="white" stroke="#666666" points="266,-20 186.25,-20 186.25,0 266,0 266,-20"/>
<text xml:space="preserve" text-anchor="middle" x="226.12" y="-6.5" font-family="Helvetica,sans-Serif" font-size="10.00">LGE::Log::Info</text>
</a>
</g>
</g>
<!-- Node1&#45;&gt;Node6 -->
<g id="edge5_Node000001_Node000006" class="edge">
<title>Node1&#45;&gt;Node6</title>
<g id="a_edge5_Node000001_Node000006"><a xlink:title=" ">
<path fill="none" stroke="#63b8ff" d="M78.6,-81.57C97.09,-67.91 131.43,-43.97 163.75,-29 167.46,-27.28 171.37,-25.67 175.34,-24.16"/>
<polygon fill="#63b8ff" stroke="#63b8ff" points="176.21,-27.56 184.47,-20.93 173.88,-20.96 176.21,-27.56"/>
</a>
</g>
</g>
</g>
</svg>
