<?xml version="1.0" encoding="UTF-8" standalone="no"?>
<!DOCTYPE svg PUBLIC "-//W3C//DTD SVG 1.1//EN"
 "http://www.w3.org/Graphics/SVG/1.1/DTD/svg11.dtd">
<!-- Generated by graphviz version 14.0.2 (20251019.1705)
 -->
<!-- Title: Component.h Pages: 1 -->
<svg width="406pt" height="140pt"
 viewBox="0.00 0.00 406.00 140.00" xmlns="http://www.w3.org/2000/svg" xmlns:xlink="http://www.w3.org/1999/xlink">
<g id="graph0" class="graph" transform="scale(1 1) rotate(0) translate(4 136)">
<title>Component.h</title>
<!-- Node1 -->
<g id="Node000001" class="node">
<title>Node1</title>
<g id="a_Node000001"><a xlink:title=" ">
<polygon fill="#999999" stroke="#666666" points="184.75,-132 110.25,-132 110.25,-112 184.75,-112 184.75,-132"/>
<text xml:space="preserve" text-anchor="middle" x="147.5" y="-118.5" font-family="Helvetica,sans-Serif" font-size="10.00">Component.h</text>
</a>
</g>
</g>
<!-- Node2 -->
<g id="Node000002" class="node">
<title>Node2</title>
<g id="a_Node000002"><a xlink:href="Component_8cpp.html" target="_top" xlink:title=" ">
<polygon fill="white" stroke="#666666" points="85,-76 0,-76 0,-56 85,-56 85,-76"/>
<text xml:space="preserve" text-anchor="middle" x="42.5" y="-62.5" font-family="Helvetica,sans-Serif" font-size="10.00">Component.cpp</text>
</a>
</g>
</g>
<!-- Node1&#45;&gt;Node2 -->
<g id="edge1_Node000001_Node000002" class="edge">
<title>Node1&#45;&gt;Node2</title>
<g id="a_edge1_Node000001_Node000002"><a xlink:title=" ">
<path fill="none" stroke="#63b8ff" d="M119.01,-106.35C100.53,-96.84 76.99,-84.74 60.93,-76.48"/>
<polygon fill="#63b8ff" stroke="#63b8ff" points="117.37,-109.44 127.86,-110.9 120.57,-103.22 117.37,-109.44"/>
</a>
</g>
</g>
<!-- Node3 -->
<g id="Node000003" class="node">
<title>Node3</title>
<g id="a_Node000003"><a xlink:href="GameObject_8cpp.html" target="_top" xlink:title=" ">
<polygon fill="white" stroke="#666666" points="192.25,-76 102.75,-76 102.75,-56 192.25,-56 192.25,-76"/>
<text xml:space="preserve" text-anchor="middle" x="147.5" y="-62.5" font-family="Helvetica,sans-Serif" font-size="10.00">GameObject.cpp</text>
</a>
</g>
</g>
<!-- Node1&#45;&gt;Node3 -->
<g id="edge2_Node000001_Node000003" class="edge">
<title>Node1&#45;&gt;Node3</title>
<g id="a_edge2_Node000001_Node000003"><a xlink:title=" ">
<path fill="none" stroke="#63b8ff" d="M147.5,-100.13C147.5,-91.9 147.5,-82.85 147.5,-76.3"/>
<polygon fill="#63b8ff" stroke="#63b8ff" points="144,-100.08 147.5,-110.08 151,-100.08 144,-100.08"/>
</a>
</g>
</g>
<!-- Node4 -->
<g id="Node000004" class="node">
<title>Node4</title>
<g id="a_Node000004"><a xlink:href="MaterialComponent_8h.html" target="_top" xlink:title=" ">
<polygon fill="white" stroke="#666666" points="319,-76 210,-76 210,-56 319,-56 319,-76"/>
<text xml:space="preserve" text-anchor="middle" x="264.5" y="-62.5" font-family="Helvetica,sans-Serif" font-size="10.00">MaterialComponent.h</text>
</a>
</g>
</g>
<!-- Node1&#45;&gt;Node4 -->
<g id="edge3_Node000001_Node000004" class="edge">
<title>Node1&#45;&gt;Node4</title>
<g id="a_edge3_Node000001_Node000004"><a xlink:title=" ">
<path fill="none" stroke="#63b8ff" d="M178.1,-106.88C198.86,-97.3 225.74,-84.89 243.96,-76.48"/>
<polygon fill="#63b8ff" stroke="#63b8ff" points="176.87,-103.59 169.25,-110.96 179.8,-109.95 176.87,-103.59"/>
</a>
</g>
</g>
<!-- Node5 -->
<g id="Node000005" class="node">
<title>Node5</title>
<g id="a_Node000005"><a xlink:href="Inspector_8cpp.html" target="_top" xlink:title=" ">
<polygon fill="white" stroke="#666666" points="187.12,-20 111.88,-20 111.88,0 187.12,0 187.12,-20"/>
<text xml:space="preserve" text-anchor="middle" x="149.5" y="-6.5" font-family="Helvetica,sans-Serif" font-size="10.00">Inspector.cpp</text>
</a>
</g>
</g>
<!-- Node4&#45;&gt;Node5 -->
<g id="edge4_Node000004_Node000005" class="edge">
<title>Node4&#45;&gt;Node5</title>
<g id="a_edge4_Node000004_Node000005"><a xlink:title=" ">
<path fill="none" stroke="#63b8ff" d="M234.14,-50.75C213.78,-41.18 187.52,-28.85 169.69,-20.48"/>
<polygon fill="#63b8ff" stroke="#63b8ff" points="232.56,-53.87 243.1,-54.95 235.53,-47.53 232.56,-53.87"/>
</a>
</g>
</g>
<!-- Node6 -->
<g id="Node000006" class="node">
<title>Node6</title>
<g id="a_Node000006"><a xlink:href="MaterialComponent_8cpp.html" target="_top" xlink:title=" ">
<polygon fill="white" stroke="#666666" points="324.25,-20 204.75,-20 204.75,0 324.25,0 324.25,-20"/>
<text xml:space="preserve" text-anchor="middle" x="264.5" y="-6.5" font-family="Helvetica,sans-Serif" font-size="10.00">MaterialComponent.cpp</text>
</a>
</g>
</g>
<!-- Node4&#45;&gt;Node6 -->
<g id="edge5_Node000004_Node000006" class="edge">
<title>Node4&#45;&gt;Node6</title>
<g id="a_edge5_Node000004_Node000006"><a xlink:title=" ">
<path fill="none" stroke="#63b8ff" d="M264.5,-44.13C264.5,-35.9 264.5,-26.85 264.5,-20.3"/>
<polygon fill="#63b8ff" stroke="#63b8ff" points="261,-44.08 264.5,-54.08 268,-44.08 261,-44.08"/>
</a>
</g>
</g>
<!-- Node7 -->
<g id="Node000007" class="node">
<title>Node7</title>
<g id="a_Node000007"><a xlink:href="main_8cpp.html" target="_top" xlink:title=" ">
<polygon fill="white" stroke="#666666" points="398.38,-20 342.62,-20 342.62,0 398.38,0 398.38,-20"/>
<text xml:space="preserve" text-anchor="middle" x="370.5" y="-6.5" font-family="Helvetica,sans-Serif" font-size="10.00">main.cpp</text>
</a>
</g>
</g>
<!-- Node4&#45;&gt;Node7 -->
<g id="edge6_Node000004_Node000007" class="edge">
<title>Node4&#45;&gt;Node7</title>
<g id="a_edge6_Node000004_Node000007"><a xlink:title=" ">
<path fill="none" stroke="#63b8ff" d="M293,-50.48C311.7,-40.96 335.61,-28.78 351.89,-20.48"/>
<polygon fill="#63b8ff" stroke="#63b8ff" points="291.63,-47.25 284.31,-54.91 294.81,-53.49 291.63,-47.25"/>
</a>
</g>
</g>
</g>
</svg>
