<?xml version="1.0" encoding="UTF-8" standalone="no"?>
<!DOCTYPE svg PUBLIC "-//W3C//DTD SVG 1.1//EN"
 "http://www.w3.org/Graphics/SVG/1.1/DTD/svg11.dtd">
<!-- Generated by graphviz version 14.0.2 (20251019.1705)
 -->
<!-- Title: Compression.cpp Pages: 1 -->
<svg width="737pt" height="196pt"
 viewBox="0.00 0.00 737.00 196.00" xmlns="http://www.w3.org/2000/svg" xmlns:xlink="http://www.w3.org/1999/xlink">
<g id="graph0" class="graph" transform="scale(1 1) rotate(0) translate(4 192)">
<title>Compression.cpp</title>
<!-- Node1 -->
<g id="Node000001" class="node">
<title>Node1</title>
<g id="a_Node000001"><a xlink:title=" ">
<polygon fill="#999999" stroke="#666666" points="486,-188 393.5,-188 393.5,-168 486,-168 486,-188"/>
<text xml:space="preserve" text-anchor="middle" x="439.75" y="-174.5" font-family="Helvetica,sans-Serif" font-size="10.00">Compression.cpp</text>
</a>
</g>
</g>
<!-- Node2 -->
<g id="Node000002" class="node">
<title>Node2</title>
<g id="a_Node000002"><a xlink:href="Compression_8h.html" target="_top" xlink:title=" ">
<polygon fill="white" stroke="#666666" points="391.62,-132 275.88,-132 275.88,-112 391.62,-112 391.62,-132"/>
<text xml:space="preserve" text-anchor="middle" x="333.75" y="-118.5" font-family="Helvetica,sans-Serif" font-size="10.00">LGE/fs/Compression.h</text>
</a>
</g>
</g>
<!-- Node1&#45;&gt;Node2 -->
<g id="edge1_Node000001_Node000002" class="edge">
<title>Node1&#45;&gt;Node2</title>
<g id="a_edge1_Node000001_Node000002"><a xlink:title=" ">
<path fill="none" stroke="#63b8ff" d="M421.29,-167.59C405.05,-159.32 381.14,-147.14 362.42,-137.6"/>
<polygon fill="#63b8ff" stroke="#63b8ff" points="364.21,-134.59 353.71,-133.17 361.03,-140.82 364.21,-134.59"/>
</a>
</g>
</g>
<!-- Node3 -->
<g id="Node000003" class="node">
<title>Node3</title>
<g id="a_Node000003"><a xlink:href="FileIO_8h.html" target="_top" xlink:title=" ">
<polygon fill="white" stroke="#666666" points="289.88,-76 205.62,-76 205.62,-56 289.88,-56 289.88,-76"/>
<text xml:space="preserve" text-anchor="middle" x="247.75" y="-62.5" font-family="Helvetica,sans-Serif" font-size="10.00">LGE/fs/FileIO.h</text>
</a>
</g>
</g>
<!-- Node1&#45;&gt;Node3 -->
<g id="edge10_Node000001_Node000003" class="edge">
<title>Node1&#45;&gt;Node3</title>
<g id="a_edge10_Node000001_Node000003"><a xlink:title=" ">
<path fill="none" stroke="#63b8ff" d="M393.29,-176.97C354.52,-174.43 300.38,-164.64 266.75,-132 254.87,-120.47 250.31,-101.97 248.61,-87.65"/>
<polygon fill="#63b8ff" stroke="#63b8ff" points="252.12,-87.63 247.86,-77.93 245.14,-88.17 252.12,-87.63"/>
</a>
</g>
</g>
<!-- Node9 -->
<g id="Node000009" class="node">
<title>Node9</title>
<g id="a_Node000009"><a xlink:href="Path_8h.html" target="_top" xlink:title=" ">
<polygon fill="white" stroke="#666666" points="187.88,-76 109.62,-76 109.62,-56 187.88,-56 187.88,-76"/>
<text xml:space="preserve" text-anchor="middle" x="148.75" y="-62.5" font-family="Helvetica,sans-Serif" font-size="10.00">LGE/fs/Path.h</text>
</a>
</g>
</g>
<!-- Node1&#45;&gt;Node9 -->
<g id="edge11_Node000001_Node000009" class="edge">
<title>Node1&#45;&gt;Node9</title>
<g id="a_edge11_Node000001_Node000009"><a xlink:title=" ">
<path fill="none" stroke="#63b8ff" d="M393.34,-170.39C354.22,-163.79 297.34,-151.73 250.75,-132 220.64,-119.25 189.43,-97.97 169.59,-83.25"/>
<polygon fill="#63b8ff" stroke="#63b8ff" points="171.86,-80.58 161.78,-77.33 167.64,-86.16 171.86,-80.58"/>
</a>
</g>
</g>
<!-- Node10 -->
<g id="Node000010" class="node">
<title>Node10</title>
<g id="a_Node000010"><a xlink:href="Log_8h.html" target="_top" xlink:title=" ">
<polygon fill="white" stroke="#666666" points="123.88,-132 39.62,-132 39.62,-112 123.88,-112 123.88,-132"/>
<text xml:space="preserve" text-anchor="middle" x="81.75" y="-118.5" font-family="Helvetica,sans-Serif" font-size="10.00">LGE/core/Log.h</text>
</a>
</g>
</g>
<!-- Node1&#45;&gt;Node10 -->
<g id="edge14_Node000001_Node000010" class="edge">
<title>Node1&#45;&gt;Node10</title>
<g id="a_edge14_Node000001_Node000010"><a xlink:title=" ">
<path fill="none" stroke="#63b8ff" d="M393.31,-170C327.01,-159.99 205.48,-141.66 135.41,-131.09"/>
<polygon fill="#63b8ff" stroke="#63b8ff" points="136.11,-127.66 125.7,-129.63 135.06,-134.58 136.11,-127.66"/>
</a>
</g>
</g>
<!-- Node12 -->
<g id="Node000012" class="node">
<title>Node12</title>
<g id="a_Node000012"><a xlink:title=" ">
<polygon fill="#e0e0e0" stroke="#999999" points="470.25,-132 409.25,-132 409.25,-112 470.25,-112 470.25,-132"/>
<text xml:space="preserve" text-anchor="middle" x="439.75" y="-118.5" font-family="Helvetica,sans-Serif" font-size="10.00">filesystem</text>
</a>
</g>
</g>
<!-- Node1&#45;&gt;Node12 -->
<g id="edge17_Node000001_Node000012" class="edge">
<title>Node1&#45;&gt;Node12</title>
<g id="a_edge17_Node000001_Node000012"><a xlink:title=" ">
<path fill="none" stroke="#63b8ff" d="M439.75,-167.59C439.75,-161.01 439.75,-151.96 439.75,-143.73"/>
<polygon fill="#63b8ff" stroke="#63b8ff" points="443.25,-143.81 439.75,-133.81 436.25,-143.81 443.25,-143.81"/>
</a>
</g>
</g>
<!-- Node13 -->
<g id="Node000013" class="node">
<title>Node13</title>
<g id="a_Node000013"><a xlink:title=" ">
<polygon fill="#e0e0e0" stroke="#999999" points="537.25,-132 488.25,-132 488.25,-112 537.25,-112 537.25,-132"/>
<text xml:space="preserve" text-anchor="middle" x="512.75" y="-118.5" font-family="Helvetica,sans-Serif" font-size="10.00">fstream</text>
</a>
</g>
</g>
<!-- Node1&#45;&gt;Node13 -->
<g id="edge18_Node000001_Node000013" class="edge">
<title>Node1&#45;&gt;Node13</title>
<g id="a_edge18_Node000001_Node000013"><a xlink:title=" ">
<path fill="none" stroke="#63b8ff" d="M452.47,-167.59C463.14,-159.7 478.63,-148.24 491.23,-138.92"/>
<polygon fill="#63b8ff" stroke="#63b8ff" points="493.01,-141.96 498.96,-133.2 488.84,-136.33 493.01,-141.96"/>
</a>
</g>
</g>
<!-- Node14 -->
<g id="Node000014" class="node">
<title>Node14</title>
<g id="a_Node000014"><a xlink:title=" ">
<polygon fill="#e0e0e0" stroke="#999999" points="600.38,-132 555.12,-132 555.12,-112 600.38,-112 600.38,-132"/>
<text xml:space="preserve" text-anchor="middle" x="577.75" y="-118.5" font-family="Helvetica,sans-Serif" font-size="10.00">chrono</text>
</a>
</g>
</g>
<!-- Node1&#45;&gt;Node14 -->
<g id="edge19_Node000001_Node000014" class="edge">
<title>Node1&#45;&gt;Node14</title>
<g id="a_edge19_Node000001_Node000014"><a xlink:title=" ">
<path fill="none" stroke="#63b8ff" d="M463.79,-167.59C486.12,-158.85 519.58,-145.76 544.48,-136.02"/>
<polygon fill="#63b8ff" stroke="#63b8ff" points="545.46,-139.39 553.49,-132.49 542.91,-132.88 545.46,-139.39"/>
</a>
</g>
</g>
<!-- Node15 -->
<g id="Node000015" class="node">
<title>Node15</title>
<g id="a_Node000015"><a xlink:title=" ">
<polygon fill="#e0e0e0" stroke="#999999" points="674.62,-132 618.88,-132 618.88,-112 674.62,-112 674.62,-132"/>
<text xml:space="preserve" text-anchor="middle" x="646.75" y="-118.5" font-family="Helvetica,sans-Serif" font-size="10.00">algorithm</text>
</a>
</g>
</g>
<!-- Node1&#45;&gt;Node15 -->
<g id="edge20_Node000001_Node000015" class="edge">
<title>Node1&#45;&gt;Node15</title>
<g id="a_edge20_Node000001_Node000015"><a xlink:title=" ">
<path fill="none" stroke="#63b8ff" d="M475.81,-167.59C512.55,-158.01 569.37,-143.19 607.3,-133.29"/>
<polygon fill="#63b8ff" stroke="#63b8ff" points="608.16,-136.68 616.95,-130.77 606.39,-129.91 608.16,-136.68"/>
</a>
</g>
</g>
<!-- Node16 -->
<g id="Node000016" class="node">
<title>Node16</title>
<g id="a_Node000016"><a xlink:title=" ">
<polygon fill="#e0e0e0" stroke="#999999" points="729.25,-132 692.25,-132 692.25,-112 729.25,-112 729.25,-132"/>
<text xml:space="preserve" text-anchor="middle" x="710.75" y="-118.5" font-family="Helvetica,sans-Serif" font-size="10.00">zip.h</text>
</a>
</g>
</g>
<!-- Node1&#45;&gt;Node16 -->
<g id="edge21_Node000001_Node000016" class="edge">
<title>Node1&#45;&gt;Node16</title>
<g id="a_edge21_Node000001_Node000016"><a xlink:title=" ">
<path fill="none" stroke="#63b8ff" d="M486.49,-170.36C533.6,-163.23 608.53,-150.7 681.26,-132.38"/>
<polygon fill="#63b8ff" stroke="#63b8ff" points="681.68,-135.88 690.5,-130.01 679.95,-129.1 681.68,-135.88"/>
</a>
</g>
</g>
<!-- Node2&#45;&gt;Node3 -->
<g id="edge2_Node000002_Node000003" class="edge">
<title>Node2&#45;&gt;Node3</title>
<g id="a_edge2_Node000002_Node000003"><a xlink:title=" ">
<path fill="none" stroke="#63b8ff" d="M318.77,-111.59C306.02,-103.59 287.46,-91.93 272.51,-82.54"/>
<polygon fill="#63b8ff" stroke="#63b8ff" points="274.46,-79.64 264.13,-77.28 270.74,-85.57 274.46,-79.64"/>
</a>
</g>
</g>
<!-- Node4 -->
<g id="Node000004" class="node">
<title>Node4</title>
<g id="a_Node000004"><a xlink:title=" ">
<polygon fill="#e0e0e0" stroke="#999999" points="182.75,-20 142.75,-20 142.75,0 182.75,0 182.75,-20"/>
<text xml:space="preserve" text-anchor="middle" x="162.75" y="-6.5" font-family="Helvetica,sans-Serif" font-size="10.00">string</text>
</a>
</g>
</g>
<!-- Node2&#45;&gt;Node4 -->
<g id="edge5_Node000002_Node000004" class="edge">
<title>Node2&#45;&gt;Node4</title>
<g id="a_edge5_Node000002_Node000004"><a xlink:title=" ">
<path fill="none" stroke="#63b8ff" d="M331.15,-111.61C326.77,-97.52 316.62,-71 298.75,-56 282.75,-42.57 229.17,-27.39 194.23,-18.53"/>
<polygon fill="#63b8ff" stroke="#63b8ff" points="195.2,-15.17 184.65,-16.15 193.51,-21.96 195.2,-15.17"/>
</a>
</g>
</g>
<!-- Node5 -->
<g id="Node000005" class="node">
<title>Node5</title>
<g id="a_Node000005"><a xlink:title=" ">
<polygon fill="#e0e0e0" stroke="#999999" points="280.5,-20 215,-20 215,0 280.5,0 280.5,-20"/>
<text xml:space="preserve" text-anchor="middle" x="247.75" y="-6.5" font-family="Helvetica,sans-Serif" font-size="10.00">string_view</text>
</a>
</g>
</g>
<!-- Node2&#45;&gt;Node5 -->
<g id="edge6_Node000002_Node000005" class="edge">
<title>Node2&#45;&gt;Node5</title>
<g id="a_edge6_Node000002_Node000005"><a xlink:title=" ">
<path fill="none" stroke="#63b8ff" d="M391.33,-111.5C445.96,-101.91 521.01,-86.98 529.75,-76 535.29,-69.05 535.52,-62.76 529.75,-56 499.77,-20.85 363.97,-13.03 292.33,-11.38"/>
<polygon fill="#63b8ff" stroke="#63b8ff" points="292.57,-7.88 282.5,-11.18 292.43,-14.88 292.57,-7.88"/>
</a>
</g>
</g>
<!-- Node6 -->
<g id="Node000006" class="node">
<title>Node6</title>
<g id="a_Node000006"><a xlink:title=" ">
<polygon fill="#e0e0e0" stroke="#999999" points="389.25,-76 346.25,-76 346.25,-56 389.25,-56 389.25,-76"/>
<text xml:space="preserve" text-anchor="middle" x="367.75" y="-62.5" font-family="Helvetica,sans-Serif" font-size="10.00">vector</text>
</a>
</g>
</g>
<!-- Node2&#45;&gt;Node6 -->
<g id="edge7_Node000002_Node000006" class="edge">
<title>Node2&#45;&gt;Node6</title>
<g id="a_edge7_Node000002_Node000006"><a xlink:title=" ">
<path fill="none" stroke="#63b8ff" d="M339.67,-111.59C344.11,-104.55 350.33,-94.67 355.79,-86"/>
<polygon fill="#63b8ff" stroke="#63b8ff" points="358.72,-87.91 361.09,-77.58 352.8,-84.18 358.72,-87.91"/>
</a>
</g>
</g>
<!-- Node7 -->
<g id="Node000007" class="node">
<title>Node7</title>
<g id="a_Node000007"><a xlink:title=" ">
<polygon fill="#e0e0e0" stroke="#999999" points="456.62,-76 406.88,-76 406.88,-56 456.62,-56 456.62,-76"/>
<text xml:space="preserve" text-anchor="middle" x="431.75" y="-62.5" font-family="Helvetica,sans-Serif" font-size="10.00">optional</text>
</a>
</g>
</g>
<!-- Node2&#45;&gt;Node7 -->
<g id="edge8_Node000002_Node000007" class="edge">
<title>Node2&#45;&gt;Node7</title>
<g id="a_edge8_Node000002_Node000007"><a xlink:title=" ">
<path fill="none" stroke="#63b8ff" d="M350.82,-111.59C365.63,-103.44 387.32,-91.48 404.52,-82"/>
<polygon fill="#63b8ff" stroke="#63b8ff" points="406.15,-85.1 413.22,-77.21 402.77,-78.97 406.15,-85.1"/>
</a>
</g>
</g>
<!-- Node8 -->
<g id="Node000008" class="node">
<title>Node8</title>
<g id="a_Node000008"><a xlink:title=" ">
<polygon fill="#e0e0e0" stroke="#999999" points="520.38,-76 475.12,-76 475.12,-56 520.38,-56 520.38,-76"/>
<text xml:space="preserve" text-anchor="middle" x="497.75" y="-62.5" font-family="Helvetica,sans-Serif" font-size="10.00">cstdint</text>
</a>
</g>
</g>
<!-- Node2&#45;&gt;Node8 -->
<g id="edge9_Node000002_Node000008" class="edge">
<title>Node2&#45;&gt;Node8</title>
<g id="a_edge9_Node000002_Node000008"><a xlink:title=" ">
<path fill="none" stroke="#63b8ff" d="M362.32,-111.59C390.64,-102.27 434.01,-87.99 464.01,-78.11"/>
<polygon fill="#63b8ff" stroke="#63b8ff" points="464.95,-81.48 473.36,-75.03 462.76,-74.83 464.95,-81.48"/>
</a>
</g>
</g>
<!-- Node3&#45;&gt;Node4 -->
<g id="edge3_Node000003_Node000004" class="edge">
<title>Node3&#45;&gt;Node4</title>
<g id="a_edge3_Node000003_Node000004"><a xlink:title=" ">
<path fill="none" stroke="#63b8ff" d="M232.94,-55.59C220.35,-47.59 202,-35.93 187.22,-26.54"/>
<polygon fill="#63b8ff" stroke="#63b8ff" points="189.27,-23.7 178.95,-21.29 185.51,-29.61 189.27,-23.7"/>
</a>
</g>
</g>
<!-- Node3&#45;&gt;Node5 -->
<g id="edge4_Node000003_Node000005" class="edge">
<title>Node3&#45;&gt;Node5</title>
<g id="a_edge4_Node000003_Node000005"><a xlink:title=" ">
<path fill="none" stroke="#63b8ff" d="M247.75,-55.59C247.75,-49.01 247.75,-39.96 247.75,-31.73"/>
<polygon fill="#63b8ff" stroke="#63b8ff" points="251.25,-31.81 247.75,-21.81 244.25,-31.81 251.25,-31.81"/>
</a>
</g>
</g>
<!-- Node9&#45;&gt;Node4 -->
<g id="edge12_Node000009_Node000004" class="edge">
<title>Node9&#45;&gt;Node4</title>
<g id="a_edge12_Node000009_Node000004"><a xlink:title=" ">
<path fill="none" stroke="#63b8ff" d="M151.19,-55.59C152.92,-48.93 155.3,-39.75 157.45,-31.44"/>
<polygon fill="#63b8ff" stroke="#63b8ff" points="160.84,-32.32 159.96,-21.76 154.06,-30.56 160.84,-32.32"/>
</a>
</g>
</g>
<!-- Node9&#45;&gt;Node5 -->
<g id="edge13_Node000009_Node000005" class="edge">
<title>Node9&#45;&gt;Node5</title>
<g id="a_edge13_Node000009_Node000005"><a xlink:title=" ">
<path fill="none" stroke="#63b8ff" d="M165.99,-55.59C181.09,-47.36 203.28,-35.26 220.73,-25.74"/>
<polygon fill="#63b8ff" stroke="#63b8ff" points="221.94,-29.07 229.04,-21.2 218.59,-22.92 221.94,-29.07"/>
</a>
</g>
</g>
<!-- Node10&#45;&gt;Node4 -->
<g id="edge16_Node000010_Node000004" class="edge">
<title>Node10&#45;&gt;Node4</title>
<g id="a_edge16_Node000010_Node000004"><a xlink:title=" ">
<path fill="none" stroke="#63b8ff" d="M82.56,-111.79C84.12,-98.41 88.56,-73.3 100.75,-56 109.31,-43.85 122.2,-33.74 134.02,-26.19"/>
<polygon fill="#63b8ff" stroke="#63b8ff" points="135.5,-29.39 142.28,-21.25 131.9,-23.38 135.5,-29.39"/>
</a>
</g>
</g>
<!-- Node11 -->
<g id="Node000011" class="node">
<title>Node11</title>
<g id="a_Node000011"><a xlink:title=" ">
<polygon fill="#e0e0e0" stroke="#999999" points="53.5,-76 0,-76 0,-56 53.5,-56 53.5,-76"/>
<text xml:space="preserve" text-anchor="middle" x="26.75" y="-62.5" font-family="Helvetica,sans-Serif" font-size="10.00">iostream</text>
</a>
</g>
</g>
<!-- Node10&#45;&gt;Node11 -->
<g id="edge15_Node000010_Node000011" class="edge">
<title>Node10&#45;&gt;Node11</title>
<g id="a_edge15_Node000010_Node000011"><a xlink:title=" ">
<path fill="none" stroke="#63b8ff" d="M72.17,-111.59C64.52,-104.08 53.59,-93.35 44.37,-84.3"/>
<polygon fill="#63b8ff" stroke="#63b8ff" points="46.89,-81.87 37.3,-77.36 41.98,-86.86 46.89,-81.87"/>
</a>
</g>
</g>
</g>
</svg>
