<?xml version="1.0" encoding="UTF-8" standalone="no"?>
<!DOCTYPE svg PUBLIC "-//W3C//DTD SVG 1.1//EN"
 "http://www.w3.org/Graphics/SVG/1.1/DTD/svg11.dtd">
<!-- Generated by graphviz version 14.0.2 (20251019.1705)
 -->
<!-- Title: Compression.h Pages: 1 -->
<svg width="387pt" height="84pt"
 viewBox="0.00 0.00 387.00 84.00" xmlns="http://www.w3.org/2000/svg" xmlns:xlink="http://www.w3.org/1999/xlink">
<g id="graph0" class="graph" transform="scale(1 1) rotate(0) translate(4 80)">
<title>Compression.h</title>
<!-- Node1 -->
<g id="Node000001" class="node">
<title>Node1</title>
<g id="a_Node000001"><a xlink:title=" ">
<polygon fill="#999999" stroke="#666666" points="217.62,-76 135.62,-76 135.62,-56 217.62,-56 217.62,-76"/>
<text xml:space="preserve" text-anchor="middle" x="176.62" y="-62.5" font-family="Helvetica,sans-Serif" font-size="10.00">Compression.h</text>
</a>
</g>
</g>
<!-- Node2 -->
<g id="Node000002" class="node">
<title>Node2</title>
<g id="a_Node000002"><a xlink:href="Analytics_8cpp.html" target="_top" xlink:title=" ">
<polygon fill="white" stroke="#666666" points="75.25,-20 0,-20 0,0 75.25,0 75.25,-20"/>
<text xml:space="preserve" text-anchor="middle" x="37.62" y="-6.5" font-family="Helvetica,sans-Serif" font-size="10.00">Analytics.cpp</text>
</a>
</g>
</g>
<!-- Node1&#45;&gt;Node2 -->
<g id="edge1_Node000001_Node000002" class="edge">
<title>Node1&#45;&gt;Node2</title>
<g id="a_edge1_Node000001_Node000002"><a xlink:title=" ">
<path fill="none" stroke="#63b8ff" d="M141.96,-51.53C117.08,-41.87 84.18,-29.08 62.03,-20.48"/>
<polygon fill="#63b8ff" stroke="#63b8ff" points="140.41,-54.69 151,-55.05 142.95,-48.16 140.41,-54.69"/>
</a>
</g>
</g>
<!-- Node3 -->
<g id="Node000003" class="node">
<title>Node3</title>
<g id="a_Node000003"><a xlink:href="Backup_8cpp.html" target="_top" xlink:title=" ">
<polygon fill="white" stroke="#666666" points="161.5,-20 93.75,-20 93.75,0 161.5,0 161.5,-20"/>
<text xml:space="preserve" text-anchor="middle" x="127.62" y="-6.5" font-family="Helvetica,sans-Serif" font-size="10.00">Backup.cpp</text>
</a>
</g>
</g>
<!-- Node1&#45;&gt;Node3 -->
<g id="edge2_Node000001_Node000003" class="edge">
<title>Node1&#45;&gt;Node3</title>
<g id="a_edge2_Node000001_Node000003"><a xlink:title=" ">
<path fill="none" stroke="#63b8ff" d="M160.55,-47.29C152.38,-38.28 142.78,-27.7 136.06,-20.3"/>
<polygon fill="#63b8ff" stroke="#63b8ff" points="157.76,-49.42 167.07,-54.47 162.94,-44.72 157.76,-49.42"/>
</a>
</g>
</g>
<!-- Node4 -->
<g id="Node000004" class="node">
<title>Node4</title>
<g id="a_Node000004"><a xlink:href="Compression_8cpp.html" target="_top" xlink:title=" ">
<polygon fill="white" stroke="#666666" points="271.88,-20 179.38,-20 179.38,0 271.88,0 271.88,-20"/>
<text xml:space="preserve" text-anchor="middle" x="225.62" y="-6.5" font-family="Helvetica,sans-Serif" font-size="10.00">Compression.cpp</text>
</a>
</g>
</g>
<!-- Node1&#45;&gt;Node4 -->
<g id="edge3_Node000001_Node000004" class="edge">
<title>Node1&#45;&gt;Node4</title>
<g id="a_edge3_Node000001_Node000004"><a xlink:title=" ">
<path fill="none" stroke="#63b8ff" d="M192.7,-47.29C200.87,-38.28 210.47,-27.7 217.19,-20.3"/>
<polygon fill="#63b8ff" stroke="#63b8ff" points="190.31,-44.72 186.18,-54.47 195.49,-49.42 190.31,-44.72"/>
</a>
</g>
</g>
<!-- Node5 -->
<g id="Node000005" class="node">
<title>Node5</title>
<g id="a_Node000005"><a xlink:href="Optimization_8cpp.html" target="_top" xlink:title=" ">
<polygon fill="white" stroke="#666666" points="379.38,-20 289.88,-20 289.88,0 379.38,0 379.38,-20"/>
<text xml:space="preserve" text-anchor="middle" x="334.62" y="-6.5" font-family="Helvetica,sans-Serif" font-size="10.00">Optimization.cpp</text>
</a>
</g>
</g>
<!-- Node1&#45;&gt;Node5 -->
<g id="edge4_Node000001_Node000005" class="edge">
<title>Node1&#45;&gt;Node5</title>
<g id="a_edge4_Node000001_Node000005"><a xlink:title=" ">
<path fill="none" stroke="#63b8ff" d="M214.89,-51.92C243.3,-42.21 281.37,-29.2 306.89,-20.48"/>
<polygon fill="#63b8ff" stroke="#63b8ff" points="213.91,-48.56 205.58,-55.1 216.17,-55.18 213.91,-48.56"/>
</a>
</g>
</g>
</g>
</svg>
