<?xml version="1.0" encoding="UTF-8" standalone="no"?>
<!DOCTYPE svg PUBLIC "-//W3C//DTD SVG 1.1//EN"
 "http://www.w3.org/Graphics/SVG/1.1/DTD/svg11.dtd">
<!-- Generated by graphviz version 14.0.2 (20251019.1705)
 -->
<!-- Title: ContentBrowser.h Pages: 1 -->
<svg width="895pt" height="252pt"
 viewBox="0.00 0.00 895.00 252.00" xmlns="http://www.w3.org/2000/svg" xmlns:xlink="http://www.w3.org/1999/xlink">
<g id="graph0" class="graph" transform="scale(1 1) rotate(0) translate(4 248)">
<title>ContentBrowser.h</title>
<!-- Node1 -->
<g id="Node000001" class="node">
<title>Node1</title>
<g id="a_Node000001"><a xlink:title=" ">
<polygon fill="#999999" stroke="#666666" points="376.63,-244 281.88,-244 281.88,-224 376.63,-224 376.63,-244"/>
<text xml:space="preserve" text-anchor="middle" x="329.25" y="-230.5" font-family="Helvetica,sans-Serif" font-size="10.00">ContentBrowser.h</text>
</a>
</g>
</g>
<!-- Node2 -->
<g id="Node000002" class="node">
<title>Node2</title>
<g id="a_Node000002"><a xlink:href="AssetMeta_8h.html" target="_top" xlink:title=" ">
<polygon fill="white" stroke="#666666" points="149.38,-76 23.13,-76 23.13,-56 149.38,-56 149.38,-76"/>
<text xml:space="preserve" text-anchor="middle" x="86.25" y="-62.5" font-family="Helvetica,sans-Serif" font-size="10.00">LGE/assets/AssetMeta.h</text>
</a>
</g>
</g>
<!-- Node1&#45;&gt;Node2 -->
<g id="edge1_Node000001_Node000002" class="edge">
<title>Node1&#45;&gt;Node2</title>
<g id="a_edge1_Node000001_Node000002"><a xlink:title=" ">
<path fill="none" stroke="#63b8ff" d="M315.49,-223.6C275.48,-196.26 158.86,-116.6 109.14,-82.63"/>
<polygon fill="#63b8ff" stroke="#63b8ff" points="111.34,-79.9 101.11,-77.15 107.39,-85.68 111.34,-79.9"/>
</a>
</g>
</g>
<!-- Node3 -->
<g id="Node000003" class="node">
<title>Node3</title>
<g id="a_Node000003"><a xlink:title=" ">
<polygon fill="#e0e0e0" stroke="#999999" points="106.25,-20 66.25,-20 66.25,0 106.25,0 106.25,-20"/>
<text xml:space="preserve" text-anchor="middle" x="86.25" y="-6.5" font-family="Helvetica,sans-Serif" font-size="10.00">string</text>
</a>
</g>
</g>
<!-- Node1&#45;&gt;Node3 -->
<g id="edge25_Node000001_Node000003" class="edge">
<title>Node1&#45;&gt;Node3</title>
<g id="a_edge25_Node000001_Node000003"><a xlink:title=" ">
<path fill="none" stroke="#63b8ff" d="M281.52,-224.17C222.72,-211.5 121.84,-183.77 50.25,-132 18.62,-109.13 -13.45,-89.69 6.25,-56 16.79,-37.97 37.51,-26.61 55.22,-19.81"/>
<polygon fill="#63b8ff" stroke="#63b8ff" points="56.28,-23.15 64.58,-16.56 53.98,-16.54 56.28,-23.15"/>
</a>
</g>
</g>
<!-- Node5 -->
<g id="Node000005" class="node">
<title>Node5</title>
<g id="a_Node000005"><a xlink:href="Search_8h.html" target="_top" xlink:title=" ">
<polygon fill="white" stroke="#666666" points="373.63,-188 284.88,-188 284.88,-168 373.63,-168 373.63,-188"/>
<text xml:space="preserve" text-anchor="middle" x="329.25" y="-174.5" font-family="Helvetica,sans-Serif" font-size="10.00">LGE/fs/Search.h</text>
</a>
</g>
</g>
<!-- Node1&#45;&gt;Node5 -->
<g id="edge4_Node000001_Node000005" class="edge">
<title>Node1&#45;&gt;Node5</title>
<g id="a_edge4_Node000001_Node000005"><a xlink:title=" ">
<path fill="none" stroke="#63b8ff" d="M329.25,-223.59C329.25,-217.01 329.25,-207.96 329.25,-199.73"/>
<polygon fill="#63b8ff" stroke="#63b8ff" points="332.75,-199.81 329.25,-189.81 325.75,-199.81 332.75,-199.81"/>
</a>
</g>
</g>
<!-- Node9 -->
<g id="Node000009" class="node">
<title>Node9</title>
<g id="a_Node000009"><a xlink:title=" ">
<polygon fill="#e0e0e0" stroke="#999999" points="771.75,-20 728.75,-20 728.75,0 771.75,0 771.75,-20"/>
<text xml:space="preserve" text-anchor="middle" x="750.25" y="-6.5" font-family="Helvetica,sans-Serif" font-size="10.00">vector</text>
</a>
</g>
</g>
<!-- Node1&#45;&gt;Node9 -->
<g id="edge26_Node000001_Node000009" class="edge">
<title>Node1&#45;&gt;Node9</title>
<g id="a_edge26_Node000001_Node000009"><a xlink:title=" ">
<path fill="none" stroke="#63b8ff" d="M365.88,-223.54C422.91,-208.15 535.68,-175.02 625.25,-132 667.04,-111.93 681.29,-109.58 713.25,-76 725.84,-62.77 735.76,-44.47 742.15,-30.65"/>
<polygon fill="#63b8ff" stroke="#63b8ff" points="745.27,-32.26 746.06,-21.7 738.85,-29.46 745.27,-32.26"/>
</a>
</g>
</g>
<!-- Node13 -->
<g id="Node000013" class="node">
<title>Node13</title>
<g id="a_Node000013"><a xlink:title=" ">
<polygon fill="#e0e0e0" stroke="#999999" points="886.88,-188 835.63,-188 835.63,-168 886.88,-168 886.88,-188"/>
<text xml:space="preserve" text-anchor="middle" x="861.25" y="-174.5" font-family="Helvetica,sans-Serif" font-size="10.00">memory</text>
</a>
</g>
</g>
<!-- Node1&#45;&gt;Node13 -->
<g id="edge24_Node000001_Node000013" class="edge">
<title>Node1&#45;&gt;Node13</title>
<g id="a_edge24_Node000001_Node000013"><a xlink:title=" ">
<path fill="none" stroke="#63b8ff" d="M377,-230.7C465.2,-226 659.42,-213.5 821.25,-188 822.27,-187.84 823.29,-187.67 824.33,-187.49"/>
<polygon fill="#63b8ff" stroke="#63b8ff" points="824.89,-190.95 834.04,-185.6 823.55,-184.08 824.89,-190.95"/>
</a>
</g>
</g>
<!-- Node2&#45;&gt;Node3 -->
<g id="edge2_Node000002_Node000003" class="edge">
<title>Node2&#45;&gt;Node3</title>
<g id="a_edge2_Node000002_Node000003"><a xlink:title=" ">
<path fill="none" stroke="#63b8ff" d="M86.25,-55.59C86.25,-49.01 86.25,-39.96 86.25,-31.73"/>
<polygon fill="#63b8ff" stroke="#63b8ff" points="89.75,-31.81 86.25,-21.81 82.75,-31.81 89.75,-31.81"/>
</a>
</g>
</g>
<!-- Node4 -->
<g id="Node000004" class="node">
<title>Node4</title>
<g id="a_Node000004"><a xlink:title=" ">
<polygon fill="#e0e0e0" stroke="#999999" points="275.88,-20 230.63,-20 230.63,0 275.88,0 275.88,-20"/>
<text xml:space="preserve" text-anchor="middle" x="253.25" y="-6.5" font-family="Helvetica,sans-Serif" font-size="10.00">cstdint</text>
</a>
</g>
</g>
<!-- Node2&#45;&gt;Node4 -->
<g id="edge3_Node000002_Node000004" class="edge">
<title>Node2&#45;&gt;Node4</title>
<g id="a_edge3_Node000002_Node000004"><a xlink:title=" ">
<path fill="none" stroke="#63b8ff" d="M115.34,-55.59C144.39,-46.2 188.99,-31.78 219.56,-21.89"/>
<polygon fill="#63b8ff" stroke="#63b8ff" points="220.26,-25.35 228.69,-18.94 218.1,-18.69 220.26,-25.35"/>
</a>
</g>
</g>
<!-- Node5&#45;&gt;Node3 -->
<g id="edge19_Node000005_Node000003" class="edge">
<title>Node5&#45;&gt;Node3</title>
<g id="a_edge19_Node000005_Node000003"><a xlink:title=" ">
<path fill="none" stroke="#63b8ff" d="M284.45,-177.81C213.49,-176.36 76.87,-161.83 14.25,-76 -1.36,-54.6 29.41,-34.95 55.45,-22.99"/>
<polygon fill="#63b8ff" stroke="#63b8ff" points="56.64,-26.29 64.42,-19.1 53.85,-19.86 56.64,-26.29"/>
</a>
</g>
</g>
<!-- Node5&#45;&gt;Node4 -->
<g id="edge23_Node000005_Node000004" class="edge">
<title>Node5&#45;&gt;Node4</title>
<g id="a_edge23_Node000005_Node000004"><a xlink:title=" ">
<path fill="none" stroke="#63b8ff" d="M322.16,-167.73C315.63,-158.88 305.96,-145.02 299.25,-132 281.73,-97.99 267.17,-55.7 259.38,-31.19"/>
<polygon fill="#63b8ff" stroke="#63b8ff" points="262.79,-30.37 256.48,-21.86 256.11,-32.45 262.79,-30.37"/>
</a>
</g>
</g>
<!-- Node6 -->
<g id="Node000006" class="node">
<title>Node6</title>
<g id="a_Node000006"><a xlink:href="AssetRegistry_8h.html" target="_top" xlink:title=" ">
<polygon fill="white" stroke="#666666" points="465,-132 345.5,-132 345.5,-112 465,-112 465,-132"/>
<text xml:space="preserve" text-anchor="middle" x="405.25" y="-118.5" font-family="Helvetica,sans-Serif" font-size="10.00">LGE/fs/AssetRegistry.h</text>
</a>
</g>
</g>
<!-- Node5&#45;&gt;Node6 -->
<g id="edge5_Node000005_Node000006" class="edge">
<title>Node5&#45;&gt;Node6</title>
<g id="a_edge5_Node000005_Node000006"><a xlink:title=" ">
<path fill="none" stroke="#63b8ff" d="M342.49,-167.59C353.54,-159.74 369.53,-148.38 382.61,-139.09"/>
<polygon fill="#63b8ff" stroke="#63b8ff" points="384.55,-142 390.68,-133.36 380.5,-136.3 384.55,-142"/>
</a>
</g>
</g>
<!-- Node8 -->
<g id="Node000008" class="node">
<title>Node8</title>
<g id="a_Node000008"><a xlink:title=" ">
<polygon fill="#e0e0e0" stroke="#999999" points="688,-20 622.5,-20 622.5,0 688,0 688,-20"/>
<text xml:space="preserve" text-anchor="middle" x="655.25" y="-6.5" font-family="Helvetica,sans-Serif" font-size="10.00">string_view</text>
</a>
</g>
</g>
<!-- Node5&#45;&gt;Node8 -->
<g id="edge20_Node000005_Node000008" class="edge">
<title>Node5&#45;&gt;Node8</title>
<g id="a_edge20_Node000005_Node000008"><a xlink:title=" ">
<path fill="none" stroke="#63b8ff" d="M373.99,-169.83C455.38,-155.76 622.39,-121.9 656.25,-76 665.58,-63.36 664.47,-45.24 661.51,-31.34"/>
<polygon fill="#63b8ff" stroke="#63b8ff" points="664.96,-30.71 659.04,-21.93 658.19,-32.49 664.96,-30.71"/>
</a>
</g>
</g>
<!-- Node5&#45;&gt;Node9 -->
<g id="edge21_Node000005_Node000009" class="edge">
<title>Node5&#45;&gt;Node9</title>
<g id="a_edge21_Node000005_Node000009"><a xlink:title=" ">
<path fill="none" stroke="#63b8ff" d="M373.75,-173.76C426.09,-168.93 515.01,-157.51 587.25,-132 635.65,-114.91 647.63,-107.37 688.25,-76 706.3,-62.06 723.96,-42.83 735.79,-28.91"/>
<polygon fill="#63b8ff" stroke="#63b8ff" points="738.32,-31.34 742.01,-21.41 732.93,-26.87 738.32,-31.34"/>
</a>
</g>
</g>
<!-- Node10 -->
<g id="Node000010" class="node">
<title>Node10</title>
<g id="a_Node000010"><a xlink:title=" ">
<polygon fill="#e0e0e0" stroke="#999999" points="430.13,-20 380.38,-20 380.38,0 430.13,0 430.13,-20"/>
<text xml:space="preserve" text-anchor="middle" x="405.25" y="-6.5" font-family="Helvetica,sans-Serif" font-size="10.00">optional</text>
</a>
</g>
</g>
<!-- Node5&#45;&gt;Node10 -->
<g id="edge22_Node000005_Node000010" class="edge">
<title>Node5&#45;&gt;Node10</title>
<g id="a_edge22_Node000005_Node000010"><a xlink:title=" ">
<path fill="none" stroke="#63b8ff" d="M323.83,-167.65C312.14,-146.11 287.39,-92.12 310.25,-56 323.16,-35.61 348.08,-24.28 369.16,-18.08"/>
<polygon fill="#63b8ff" stroke="#63b8ff" points="369.81,-21.53 378.59,-15.61 368.03,-14.76 369.81,-21.53"/>
</a>
</g>
</g>
<!-- Node6&#45;&gt;Node3 -->
<g id="edge12_Node000006_Node000003" class="edge">
<title>Node6&#45;&gt;Node3</title>
<g id="a_edge12_Node000006_Node000003"><a xlink:title=" ">
<path fill="none" stroke="#63b8ff" d="M377.78,-111.53C318.59,-91.12 179.39,-43.12 117.2,-21.67"/>
<polygon fill="#63b8ff" stroke="#63b8ff" points="118.55,-18.44 107.95,-18.48 116.27,-25.05 118.55,-18.44"/>
</a>
</g>
</g>
<!-- Node6&#45;&gt;Node4 -->
<g id="edge18_Node000006_Node000004" class="edge">
<title>Node6&#45;&gt;Node4</title>
<g id="a_edge18_Node000006_Node000004"><a xlink:title=" ">
<path fill="none" stroke="#63b8ff" d="M378.24,-111.63C358.28,-103.92 331.08,-91.72 310.25,-76 292.9,-62.9 276.94,-43.82 266.34,-29.71"/>
<polygon fill="#63b8ff" stroke="#63b8ff" points="269.24,-27.74 260.53,-21.71 263.57,-31.85 269.24,-27.74"/>
</a>
</g>
</g>
<!-- Node7 -->
<g id="Node000007" class="node">
<title>Node7</title>
<g id="a_Node000007"><a xlink:href="MetaDB_8h.html" target="_top" xlink:title=" ">
<polygon fill="white" stroke="#666666" points="627.25,-76 533.25,-76 533.25,-56 627.25,-56 627.25,-76"/>
<text xml:space="preserve" text-anchor="middle" x="580.25" y="-62.5" font-family="Helvetica,sans-Serif" font-size="10.00">LGE/fs/MetaDB.h</text>
</a>
</g>
</g>
<!-- Node6&#45;&gt;Node7 -->
<g id="edge6_Node000006_Node000007" class="edge">
<title>Node6&#45;&gt;Node7</title>
<g id="a_edge6_Node000006_Node000007"><a xlink:title=" ">
<path fill="none" stroke="#63b8ff" d="M435.73,-111.59C464.29,-102.78 507.2,-89.54 538.85,-79.78"/>
<polygon fill="#63b8ff" stroke="#63b8ff" points="539.56,-83.22 548.08,-76.93 537.5,-76.53 539.56,-83.22"/>
</a>
</g>
</g>
<!-- Node6&#45;&gt;Node8 -->
<g id="edge13_Node000006_Node000008" class="edge">
<title>Node6&#45;&gt;Node8</title>
<g id="a_edge13_Node000006_Node000008"><a xlink:title=" ">
<path fill="none" stroke="#63b8ff" d="M465.37,-116.33C525.26,-110.47 611.72,-98.37 636.25,-76 648.61,-64.73 653.1,-45.9 654.65,-31.4"/>
<polygon fill="#63b8ff" stroke="#63b8ff" points="658.13,-31.79 655.28,-21.58 651.15,-31.34 658.13,-31.79"/>
</a>
</g>
</g>
<!-- Node6&#45;&gt;Node9 -->
<g id="edge14_Node000006_Node000009" class="edge">
<title>Node6&#45;&gt;Node9</title>
<g id="a_edge14_Node000006_Node000009"><a xlink:title=" ">
<path fill="none" stroke="#63b8ff" d="M465.32,-117.43C517.47,-112.68 594.14,-101.62 656.25,-76 684.83,-64.21 713.45,-42.69 731.47,-27.65"/>
<polygon fill="#63b8ff" stroke="#63b8ff" points="733.39,-30.61 738.72,-21.45 728.84,-25.29 733.39,-30.61"/>
</a>
</g>
</g>
<!-- Node6&#45;&gt;Node10 -->
<g id="edge16_Node000006_Node000010" class="edge">
<title>Node6&#45;&gt;Node10</title>
<g id="a_edge16_Node000006_Node000010"><a xlink:title=" ">
<path fill="none" stroke="#63b8ff" d="M405.25,-111.62C405.25,-94.01 405.25,-55.59 405.25,-31.65"/>
<polygon fill="#63b8ff" stroke="#63b8ff" points="408.75,-31.87 405.25,-21.87 401.75,-31.87 408.75,-31.87"/>
</a>
</g>
</g>
<!-- Node11 -->
<g id="Node000011" class="node">
<title>Node11</title>
<g id="a_Node000011"><a xlink:title=" ">
<polygon fill="#e0e0e0" stroke="#999999" points="515.63,-76 432.88,-76 432.88,-56 515.63,-56 515.63,-76"/>
<text xml:space="preserve" text-anchor="middle" x="474.25" y="-62.5" font-family="Helvetica,sans-Serif" font-size="10.00">unordered_map</text>
</a>
</g>
</g>
<!-- Node6&#45;&gt;Node11 -->
<g id="edge15_Node000006_Node000011" class="edge">
<title>Node6&#45;&gt;Node11</title>
<g id="a_edge15_Node000006_Node000011"><a xlink:title=" ">
<path fill="none" stroke="#63b8ff" d="M417.27,-111.59C427.26,-103.77 441.71,-92.46 453.56,-83.19"/>
<polygon fill="#63b8ff" stroke="#63b8ff" points="455.46,-86.15 461.18,-77.23 451.15,-80.64 455.46,-86.15"/>
</a>
</g>
</g>
<!-- Node12 -->
<g id="Node000012" class="node">
<title>Node12</title>
<g id="a_Node000012"><a xlink:title=" ">
<polygon fill="#e0e0e0" stroke="#999999" points="377.25,-76 319.25,-76 319.25,-56 377.25,-56 377.25,-76"/>
<text xml:space="preserve" text-anchor="middle" x="348.25" y="-62.5" font-family="Helvetica,sans-Serif" font-size="10.00">functional</text>
</a>
</g>
</g>
<!-- Node6&#45;&gt;Node12 -->
<g id="edge17_Node000006_Node000012" class="edge">
<title>Node6&#45;&gt;Node12</title>
<g id="a_edge17_Node000006_Node000012"><a xlink:title=" ">
<path fill="none" stroke="#63b8ff" d="M395.32,-111.59C387.31,-104.01 375.84,-93.13 366.22,-84.02"/>
<polygon fill="#63b8ff" stroke="#63b8ff" points="368.83,-81.68 359.16,-77.34 364.02,-86.76 368.83,-81.68"/>
</a>
</g>
</g>
<!-- Node7&#45;&gt;Node3 -->
<g id="edge7_Node000007_Node000003" class="edge">
<title>Node7&#45;&gt;Node3</title>
<g id="a_edge7_Node000007_Node000003"><a xlink:title=" ">
<path fill="none" stroke="#63b8ff" d="M532.92,-57.2C529.99,-56.78 527.08,-56.37 524.25,-56 372.37,-36.01 189.86,-19.74 117.76,-13.62"/>
<polygon fill="#63b8ff" stroke="#63b8ff" points="118.15,-10.14 107.89,-12.78 117.56,-17.11 118.15,-10.14"/>
</a>
</g>
</g>
<!-- Node7&#45;&gt;Node4 -->
<g id="edge11_Node000007_Node000004" class="edge">
<title>Node7&#45;&gt;Node4</title>
<g id="a_edge11_Node000007_Node000004"><a xlink:title=" ">
<path fill="none" stroke="#63b8ff" d="M533.05,-57.21C466.37,-46.19 346.17,-26.34 287.43,-16.64"/>
<polygon fill="#63b8ff" stroke="#63b8ff" points="288.13,-13.21 277.7,-15.04 286.99,-20.12 288.13,-13.21"/>
</a>
</g>
</g>
<!-- Node7&#45;&gt;Node8 -->
<g id="edge8_Node000007_Node000008" class="edge">
<title>Node7&#45;&gt;Node8</title>
<g id="a_edge8_Node000007_Node000008"><a xlink:title=" ">
<path fill="none" stroke="#63b8ff" d="M593.31,-55.59C604.22,-47.74 620,-36.38 632.91,-27.09"/>
<polygon fill="#63b8ff" stroke="#63b8ff" points="634.79,-30.05 640.86,-21.36 630.7,-24.37 634.79,-30.05"/>
</a>
</g>
</g>
<!-- Node7&#45;&gt;Node9 -->
<g id="edge9_Node000007_Node000009" class="edge">
<title>Node7&#45;&gt;Node9</title>
<g id="a_edge9_Node000007_Node000009"><a xlink:title=" ">
<path fill="none" stroke="#63b8ff" d="M609.86,-55.59C639.94,-46.04 686.4,-31.28 717.55,-21.39"/>
<polygon fill="#63b8ff" stroke="#63b8ff" points="718.36,-24.8 726.83,-18.44 716.24,-18.13 718.36,-24.8"/>
</a>
</g>
</g>
<!-- Node7&#45;&gt;Node10 -->
<g id="edge10_Node000007_Node000010" class="edge">
<title>Node7&#45;&gt;Node10</title>
<g id="a_edge10_Node000007_Node000010"><a xlink:title=" ">
<path fill="none" stroke="#63b8ff" d="M549.77,-55.59C519.55,-46.27 473.25,-31.98 441.24,-22.11"/>
<polygon fill="#63b8ff" stroke="#63b8ff" points="442.6,-18.86 432.01,-19.26 440.53,-25.55 442.6,-18.86"/>
</a>
</g>
</g>
</g>
</svg>
