<?xml version="1.0" encoding="UTF-8" standalone="no"?>
<!DOCTYPE svg PUBLIC "-//W3C//DTD SVG 1.1//EN"
 "http://www.w3.org/Graphics/SVG/1.1/DTD/svg11.dtd">
<!-- Generated by graphviz version 14.0.2 (20251019.1705)
 -->
<!-- Title: Dependencies.h Pages: 1 -->
<svg width="688pt" height="196pt"
 viewBox="0.00 0.00 688.00 196.00" xmlns="http://www.w3.org/2000/svg" xmlns:xlink="http://www.w3.org/1999/xlink">
<g id="graph0" class="graph" transform="scale(1 1) rotate(0) translate(4 192)">
<title>Dependencies.h</title>
<!-- Node1 -->
<g id="Node000001" class="node">
<title>Node1</title>
<g id="a_Node000001"><a xlink:title=" ">
<polygon fill="#999999" stroke="#666666" points="510.25,-188 423.75,-188 423.75,-168 510.25,-168 510.25,-188"/>
<text xml:space="preserve" text-anchor="middle" x="467" y="-174.5" font-family="Helvetica,sans-Serif" font-size="10.00">Dependencies.h</text>
</a>
</g>
</g>
<!-- Node2 -->
<g id="Node000002" class="node">
<title>Node2</title>
<g id="a_Node000002"><a xlink:href="AssetRegistry_8h.html" target="_top" xlink:title=" ">
<polygon fill="white" stroke="#666666" points="344.75,-132 225.25,-132 225.25,-112 344.75,-112 344.75,-132"/>
<text xml:space="preserve" text-anchor="middle" x="285" y="-118.5" font-family="Helvetica,sans-Serif" font-size="10.00">LGE/fs/AssetRegistry.h</text>
</a>
</g>
</g>
<!-- Node1&#45;&gt;Node2 -->
<g id="edge1_Node000001_Node000002" class="edge">
<title>Node1&#45;&gt;Node2</title>
<g id="a_edge1_Node000001_Node000002"><a xlink:title=" ">
<path fill="none" stroke="#63b8ff" d="M435.3,-167.59C405.47,-158.74 360.58,-145.43 327.63,-135.65"/>
<polygon fill="#63b8ff" stroke="#63b8ff" points="328.98,-132.4 318.4,-132.91 326.99,-139.11 328.98,-132.4"/>
</a>
</g>
</g>
<!-- Node4 -->
<g id="Node000004" class="node">
<title>Node4</title>
<g id="a_Node000004"><a xlink:title=" ">
<polygon fill="#e0e0e0" stroke="#999999" points="40,-20 0,-20 0,0 40,0 40,-20"/>
<text xml:space="preserve" text-anchor="middle" x="20" y="-6.5" font-family="Helvetica,sans-Serif" font-size="10.00">string</text>
</a>
</g>
</g>
<!-- Node1&#45;&gt;Node4 -->
<g id="edge15_Node000001_Node000004" class="edge">
<title>Node1&#45;&gt;Node4</title>
<g id="a_edge15_Node000001_Node000004"><a xlink:title=" ">
<path fill="none" stroke="#63b8ff" d="M423.45,-177.9C357.09,-177.82 227.75,-171.91 127,-132 87.32,-116.28 75.96,-109.08 49,-76 38.13,-62.67 30.51,-44.61 25.81,-30.91"/>
<polygon fill="#63b8ff" stroke="#63b8ff" points="29.24,-30.15 22.89,-21.67 22.57,-32.26 29.24,-30.15"/>
</a>
</g>
</g>
<!-- Node5 -->
<g id="Node000005" class="node">
<title>Node5</title>
<g id="a_Node000005"><a xlink:title=" ">
<polygon fill="#e0e0e0" stroke="#999999" points="204.75,-20 139.25,-20 139.25,0 204.75,0 204.75,-20"/>
<text xml:space="preserve" text-anchor="middle" x="172" y="-6.5" font-family="Helvetica,sans-Serif" font-size="10.00">string_view</text>
</a>
</g>
</g>
<!-- Node1&#45;&gt;Node5 -->
<g id="edge16_Node000001_Node000005" class="edge">
<title>Node1&#45;&gt;Node5</title>
<g id="a_edge16_Node000001_Node000005"><a xlink:title=" ">
<path fill="none" stroke="#63b8ff" d="M423.4,-172.79C330,-162.71 115.94,-133.68 77,-76 60.22,-51.15 95.74,-33.1 128.02,-22.42"/>
<polygon fill="#63b8ff" stroke="#63b8ff" points="128.81,-25.84 137.32,-19.53 126.73,-19.15 128.81,-25.84"/>
</a>
</g>
</g>
<!-- Node6 -->
<g id="Node000006" class="node">
<title>Node6</title>
<g id="a_Node000006"><a xlink:title=" ">
<polygon fill="#e0e0e0" stroke="#999999" points="432.5,-20 389.5,-20 389.5,0 432.5,0 432.5,-20"/>
<text xml:space="preserve" text-anchor="middle" x="411" y="-6.5" font-family="Helvetica,sans-Serif" font-size="10.00">vector</text>
</a>
</g>
</g>
<!-- Node1&#45;&gt;Node6 -->
<g id="edge17_Node000001_Node000006" class="edge">
<title>Node1&#45;&gt;Node6</title>
<g id="a_edge17_Node000001_Node000006"><a xlink:title=" ">
<path fill="none" stroke="#63b8ff" d="M501.72,-167.54C519.48,-160.75 539.52,-149.61 550,-132 567.28,-102.98 569.87,-83.32 550,-56 525.95,-22.93 477.07,-13.67 444.17,-11.34"/>
<polygon fill="#63b8ff" stroke="#63b8ff" points="444.52,-7.85 434.36,-10.84 444.17,-14.84 444.52,-7.85"/>
</a>
</g>
</g>
<!-- Node7 -->
<g id="Node000007" class="node">
<title>Node7</title>
<g id="a_Node000007"><a xlink:title=" ">
<polygon fill="#e0e0e0" stroke="#999999" points="371.88,-20 322.12,-20 322.12,0 371.88,0 371.88,-20"/>
<text xml:space="preserve" text-anchor="middle" x="347" y="-6.5" font-family="Helvetica,sans-Serif" font-size="10.00">optional</text>
</a>
</g>
</g>
<!-- Node1&#45;&gt;Node7 -->
<g id="edge20_Node000001_Node000007" class="edge">
<title>Node1&#45;&gt;Node7</title>
<g id="a_edge20_Node000001_Node000007"><a xlink:title=" ">
<path fill="none" stroke="#63b8ff" d="M476.79,-167.66C498.15,-146.15 544.87,-92.2 517,-56 517,-56 432.97,-33.76 383.07,-20.55"/>
<polygon fill="#63b8ff" stroke="#63b8ff" points="384.11,-17.2 373.55,-18.03 382.32,-23.97 384.11,-17.2"/>
</a>
</g>
</g>
<!-- Node9 -->
<g id="Node000009" class="node">
<title>Node9</title>
<g id="a_Node000009"><a xlink:title=" ">
<polygon fill="#e0e0e0" stroke="#999999" points="508.38,-76 425.62,-76 425.62,-56 508.38,-56 508.38,-76"/>
<text xml:space="preserve" text-anchor="middle" x="467" y="-62.5" font-family="Helvetica,sans-Serif" font-size="10.00">unordered_map</text>
</a>
</g>
</g>
<!-- Node1&#45;&gt;Node9 -->
<g id="edge19_Node000001_Node000009" class="edge">
<title>Node1&#45;&gt;Node9</title>
<g id="a_edge19_Node000001_Node000009"><a xlink:title=" ">
<path fill="none" stroke="#63b8ff" d="M467,-167.62C467,-150.01 467,-111.59 467,-87.65"/>
<polygon fill="#63b8ff" stroke="#63b8ff" points="470.5,-87.87 467,-77.87 463.5,-87.87 470.5,-87.87"/>
</a>
</g>
</g>
<!-- Node11 -->
<g id="Node000011" class="node">
<title>Node11</title>
<g id="a_Node000011"><a xlink:title=" ">
<polygon fill="#e0e0e0" stroke="#999999" points="679.75,-132 602.25,-132 602.25,-112 679.75,-112 679.75,-132"/>
<text xml:space="preserve" text-anchor="middle" x="641" y="-118.5" font-family="Helvetica,sans-Serif" font-size="10.00">unordered_set</text>
</a>
</g>
</g>
<!-- Node1&#45;&gt;Node11 -->
<g id="edge18_Node000001_Node000011" class="edge">
<title>Node1&#45;&gt;Node11</title>
<g id="a_edge18_Node000001_Node000011"><a xlink:title=" ">
<path fill="none" stroke="#63b8ff" d="M497.31,-167.59C525.7,-158.78 568.37,-145.54 599.83,-135.78"/>
<polygon fill="#63b8ff" stroke="#63b8ff" points="600.5,-139.23 609.01,-132.93 598.42,-132.55 600.5,-139.23"/>
</a>
</g>
</g>
<!-- Node3 -->
<g id="Node000003" class="node">
<title>Node3</title>
<g id="a_Node000003"><a xlink:href="MetaDB_8h.html" target="_top" xlink:title=" ">
<polygon fill="white" stroke="#666666" points="332,-76 238,-76 238,-56 332,-56 332,-76"/>
<text xml:space="preserve" text-anchor="middle" x="285" y="-62.5" font-family="Helvetica,sans-Serif" font-size="10.00">LGE/fs/MetaDB.h</text>
</a>
</g>
</g>
<!-- Node2&#45;&gt;Node3 -->
<g id="edge2_Node000002_Node000003" class="edge">
<title>Node2&#45;&gt;Node3</title>
<g id="a_edge2_Node000002_Node000003"><a xlink:title=" ">
<path fill="none" stroke="#63b8ff" d="M285,-111.59C285,-105.01 285,-95.96 285,-87.73"/>
<polygon fill="#63b8ff" stroke="#63b8ff" points="288.5,-87.81 285,-77.81 281.5,-87.81 288.5,-87.81"/>
</a>
</g>
</g>
<!-- Node2&#45;&gt;Node4 -->
<g id="edge8_Node000002_Node000004" class="edge">
<title>Node2&#45;&gt;Node4</title>
<g id="a_edge8_Node000002_Node000004"><a xlink:title=" ">
<path fill="none" stroke="#63b8ff" d="M224.89,-118.01C181.27,-113.55 122.21,-102.61 77,-76 57.66,-64.62 41.47,-44.36 31.35,-29.48"/>
<polygon fill="#63b8ff" stroke="#63b8ff" points="34.54,-27.97 26.17,-21.48 28.66,-31.77 34.54,-27.97"/>
</a>
</g>
</g>
<!-- Node2&#45;&gt;Node5 -->
<g id="edge9_Node000002_Node000005" class="edge">
<title>Node2&#45;&gt;Node5</title>
<g id="a_edge9_Node000002_Node000005"><a xlink:title=" ">
<path fill="none" stroke="#63b8ff" d="M269.57,-111.53C256.44,-103.09 237.46,-89.93 223,-76 208.35,-61.89 194.27,-43.46 184.64,-29.83"/>
<polygon fill="#63b8ff" stroke="#63b8ff" points="187.62,-27.98 179.06,-21.74 181.85,-31.96 187.62,-27.98"/>
</a>
</g>
</g>
<!-- Node2&#45;&gt;Node6 -->
<g id="edge10_Node000002_Node000006" class="edge">
<title>Node2&#45;&gt;Node6</title>
<g id="a_edge10_Node000002_Node000006"><a xlink:title=" ">
<path fill="none" stroke="#63b8ff" d="M303.85,-111.65C319.32,-103.47 341.32,-90.62 358,-76 373.86,-62.1 388.74,-43.12 398.67,-29.26"/>
<polygon fill="#63b8ff" stroke="#63b8ff" points="401.26,-31.67 404.11,-21.46 395.52,-27.66 401.26,-31.67"/>
</a>
</g>
</g>
<!-- Node2&#45;&gt;Node7 -->
<g id="edge12_Node000002_Node000007" class="edge">
<title>Node2&#45;&gt;Node7</title>
<g id="a_edge12_Node000002_Node000007"><a xlink:title=" ">
<path fill="none" stroke="#63b8ff" d="M303.17,-111.62C316.08,-103.91 332.56,-91.71 341,-76 348.23,-62.53 349.51,-45.21 349.1,-31.84"/>
<polygon fill="#63b8ff" stroke="#63b8ff" points="352.6,-31.73 348.43,-21.99 345.62,-32.2 352.6,-31.73"/>
</a>
</g>
</g>
<!-- Node8 -->
<g id="Node000008" class="node">
<title>Node8</title>
<g id="a_Node000008"><a xlink:title=" ">
<polygon fill="#e0e0e0" stroke="#999999" points="292.62,-20 247.38,-20 247.38,0 292.62,0 292.62,-20"/>
<text xml:space="preserve" text-anchor="middle" x="270" y="-6.5" font-family="Helvetica,sans-Serif" font-size="10.00">cstdint</text>
</a>
</g>
</g>
<!-- Node2&#45;&gt;Node8 -->
<g id="edge14_Node000002_Node000008" class="edge">
<title>Node2&#45;&gt;Node8</title>
<g id="a_edge14_Node000002_Node000008"><a xlink:title=" ">
<path fill="none" stroke="#63b8ff" d="M265.85,-111.52C252.82,-103.9 236.6,-91.86 229,-76 220.69,-58.66 234.73,-40.25 248.58,-27.46"/>
<polygon fill="#63b8ff" stroke="#63b8ff" points="250.5,-30.43 255.84,-21.27 245.96,-25.1 250.5,-30.43"/>
</a>
</g>
</g>
<!-- Node2&#45;&gt;Node9 -->
<g id="edge11_Node000002_Node000009" class="edge">
<title>Node2&#45;&gt;Node9</title>
<g id="a_edge11_Node000002_Node000009"><a xlink:title=" ">
<path fill="none" stroke="#63b8ff" d="M316.7,-111.59C346.53,-102.74 391.42,-89.43 424.37,-79.65"/>
<polygon fill="#63b8ff" stroke="#63b8ff" points="425.01,-83.11 433.6,-76.91 423.02,-76.4 425.01,-83.11"/>
</a>
</g>
</g>
<!-- Node10 -->
<g id="Node000010" class="node">
<title>Node10</title>
<g id="a_Node000010"><a xlink:title=" ">
<polygon fill="#e0e0e0" stroke="#999999" points="144,-76 86,-76 86,-56 144,-56 144,-76"/>
<text xml:space="preserve" text-anchor="middle" x="115" y="-62.5" font-family="Helvetica,sans-Serif" font-size="10.00">functional</text>
</a>
</g>
</g>
<!-- Node2&#45;&gt;Node10 -->
<g id="edge13_Node000002_Node000010" class="edge">
<title>Node2&#45;&gt;Node10</title>
<g id="a_edge13_Node000002_Node000010"><a xlink:title=" ">
<path fill="none" stroke="#63b8ff" d="M255.39,-111.59C227.6,-102.77 185.82,-89.5 155.06,-79.72"/>
<polygon fill="#63b8ff" stroke="#63b8ff" points="156.31,-76.45 145.71,-76.76 154.19,-83.12 156.31,-76.45"/>
</a>
</g>
</g>
<!-- Node3&#45;&gt;Node4 -->
<g id="edge3_Node000003_Node000004" class="edge">
<title>Node3&#45;&gt;Node4</title>
<g id="a_edge3_Node000003_Node000004"><a xlink:title=" ">
<path fill="none" stroke="#63b8ff" d="M238.54,-55.53C184.87,-44.6 98.03,-26.9 51.63,-17.44"/>
<polygon fill="#63b8ff" stroke="#63b8ff" points="52.46,-14.04 41.96,-15.47 51.06,-20.9 52.46,-14.04"/>
</a>
</g>
</g>
<!-- Node3&#45;&gt;Node5 -->
<g id="edge4_Node000003_Node000005" class="edge">
<title>Node3&#45;&gt;Node5</title>
<g id="a_edge4_Node000003_Node000005"><a xlink:title=" ">
<path fill="none" stroke="#63b8ff" d="M265.32,-55.59C247.84,-47.24 222.05,-34.92 202,-25.34"/>
<polygon fill="#63b8ff" stroke="#63b8ff" points="203.73,-22.29 193.2,-21.13 200.72,-28.6 203.73,-22.29"/>
</a>
</g>
</g>
<!-- Node3&#45;&gt;Node6 -->
<g id="edge5_Node000003_Node000006" class="edge">
<title>Node3&#45;&gt;Node6</title>
<g id="a_edge5_Node000003_Node000006"><a xlink:title=" ">
<path fill="none" stroke="#63b8ff" d="M306.95,-55.59C326.82,-47.08 356.35,-34.42 378.88,-24.77"/>
<polygon fill="#63b8ff" stroke="#63b8ff" points="380.1,-28.05 387.91,-20.89 377.34,-21.62 380.1,-28.05"/>
</a>
</g>
</g>
<!-- Node3&#45;&gt;Node7 -->
<g id="edge6_Node000003_Node000007" class="edge">
<title>Node3&#45;&gt;Node7</title>
<g id="a_edge6_Node000003_Node000007"><a xlink:title=" ">
<path fill="none" stroke="#63b8ff" d="M295.8,-55.59C304.6,-47.93 317.25,-36.91 327.77,-27.75"/>
<polygon fill="#63b8ff" stroke="#63b8ff" points="329.94,-30.5 335.18,-21.29 325.34,-25.22 329.94,-30.5"/>
</a>
</g>
</g>
<!-- Node3&#45;&gt;Node8 -->
<g id="edge7_Node000003_Node000008" class="edge">
<title>Node3&#45;&gt;Node8</title>
<g id="a_edge7_Node000003_Node000008"><a xlink:title=" ">
<path fill="none" stroke="#63b8ff" d="M282.39,-55.59C280.52,-48.86 277.93,-39.53 275.6,-31.15"/>
<polygon fill="#63b8ff" stroke="#63b8ff" points="279.04,-30.46 272.99,-21.76 272.29,-32.33 279.04,-30.46"/>
</a>
</g>
</g>
</g>
</svg>
