<?xml version="1.0" encoding="UTF-8" standalone="no"?>
<!DOCTYPE svg PUBLIC "-//W3C//DTD SVG 1.1//EN"
 "http://www.w3.org/Graphics/SVG/1.1/DTD/svg11.dtd">
<!-- Generated by graphviz version 14.0.2 (20251019.1705)
 -->
<!-- Title: Dependencies.h Pages: 1 -->
<svg width="698pt" height="84pt"
 viewBox="0.00 0.00 698.00 84.00" xmlns="http://www.w3.org/2000/svg" xmlns:xlink="http://www.w3.org/1999/xlink">
<g id="graph0" class="graph" transform="scale(1 1) rotate(0) translate(4 80)">
<title>Dependencies.h</title>
<!-- Node1 -->
<g id="Node000001" class="node">
<title>Node1</title>
<g id="a_Node000001"><a xlink:title=" ">
<polygon fill="#999999" stroke="#666666" points="385.88,-76 299.38,-76 299.38,-56 385.88,-56 385.88,-76"/>
<text xml:space="preserve" text-anchor="middle" x="342.62" y="-62.5" font-family="Helvetica,sans-Serif" font-size="10.00">Dependencies.h</text>
</a>
</g>
</g>
<!-- Node2 -->
<g id="Node000002" class="node">
<title>Node2</title>
<g id="a_Node000002"><a xlink:href="Analytics_8cpp.html" target="_top" xlink:title=" ">
<polygon fill="white" stroke="#666666" points="75.25,-20 0,-20 0,0 75.25,0 75.25,-20"/>
<text xml:space="preserve" text-anchor="middle" x="37.62" y="-6.5" font-family="Helvetica,sans-Serif" font-size="10.00">Analytics.cpp</text>
</a>
</g>
</g>
<!-- Node1&#45;&gt;Node2 -->
<g id="edge1_Node000001_Node000002" class="edge">
<title>Node1&#45;&gt;Node2</title>
<g id="a_edge1_Node000001_Node000002"><a xlink:title=" ">
<path fill="none" stroke="#63b8ff" d="M287.87,-55.72C235.61,-46.8 154.69,-32.82 84.62,-20 81.68,-19.46 78.64,-18.9 75.58,-18.32"/>
<polygon fill="#63b8ff" stroke="#63b8ff" points="287.28,-59.17 297.73,-57.4 288.46,-52.27 287.28,-59.17"/>
</a>
</g>
</g>
<!-- Node3 -->
<g id="Node000003" class="node">
<title>Node3</title>
<g id="a_Node000003"><a xlink:href="Bundles_8cpp.html" target="_top" xlink:title=" ">
<polygon fill="white" stroke="#666666" points="163.62,-20 93.62,-20 93.62,0 163.62,0 163.62,-20"/>
<text xml:space="preserve" text-anchor="middle" x="128.62" y="-6.5" font-family="Helvetica,sans-Serif" font-size="10.00">Bundles.cpp</text>
</a>
</g>
</g>
<!-- Node1&#45;&gt;Node3 -->
<g id="edge2_Node000001_Node000003" class="edge">
<title>Node1&#45;&gt;Node3</title>
<g id="a_edge2_Node000001_Node000003"><a xlink:title=" ">
<path fill="none" stroke="#63b8ff" d="M294.37,-52.82C254.79,-42.84 199.66,-28.92 164.05,-19.94"/>
<polygon fill="#63b8ff" stroke="#63b8ff" points="293.33,-56.17 303.88,-55.22 295.04,-49.38 293.33,-56.17"/>
</a>
</g>
</g>
<!-- Node4 -->
<g id="Node000004" class="node">
<title>Node4</title>
<g id="a_Node000004"><a xlink:href="Dependencies_8cpp.html" target="_top" xlink:title=" ">
<polygon fill="white" stroke="#666666" points="279.12,-20 182.12,-20 182.12,0 279.12,0 279.12,-20"/>
<text xml:space="preserve" text-anchor="middle" x="230.62" y="-6.5" font-family="Helvetica,sans-Serif" font-size="10.00">Dependencies.cpp</text>
</a>
</g>
</g>
<!-- Node1&#45;&gt;Node4 -->
<g id="edge3_Node000001_Node000004" class="edge">
<title>Node1&#45;&gt;Node4</title>
<g id="a_edge3_Node000001_Node000004"><a xlink:title=" ">
<path fill="none" stroke="#63b8ff" d="M312.79,-50.61C292.99,-41.07 267.57,-28.81 250.29,-20.48"/>
<polygon fill="#63b8ff" stroke="#63b8ff" points="311.22,-53.75 321.75,-54.94 314.27,-47.44 311.22,-53.75"/>
</a>
</g>
</g>
<!-- Node5 -->
<g id="Node000005" class="node">
<title>Node5</title>
<g id="a_Node000005"><a xlink:href="ImportExport_8cpp.html" target="_top" xlink:title=" ">
<polygon fill="white" stroke="#666666" points="388.12,-20 297.12,-20 297.12,0 388.12,0 388.12,-20"/>
<text xml:space="preserve" text-anchor="middle" x="342.62" y="-6.5" font-family="Helvetica,sans-Serif" font-size="10.00">ImportExport.cpp</text>
</a>
</g>
</g>
<!-- Node1&#45;&gt;Node5 -->
<g id="edge4_Node000001_Node000005" class="edge">
<title>Node1&#45;&gt;Node5</title>
<g id="a_edge4_Node000001_Node000005"><a xlink:title=" ">
<path fill="none" stroke="#63b8ff" d="M342.62,-44.13C342.62,-35.9 342.62,-26.85 342.62,-20.3"/>
<polygon fill="#63b8ff" stroke="#63b8ff" points="339.13,-44.08 342.63,-54.08 346.13,-44.08 339.13,-44.08"/>
</a>
</g>
</g>
<!-- Node6 -->
<g id="Node000006" class="node">
<title>Node6</title>
<g id="a_Node000006"><a xlink:href="TestDependencies_8cpp.html" target="_top" xlink:title=" ">
<polygon fill="white" stroke="#666666" points="521.5,-20 405.75,-20 405.75,0 521.5,0 521.5,-20"/>
<text xml:space="preserve" text-anchor="middle" x="463.62" y="-6.5" font-family="Helvetica,sans-Serif" font-size="10.00">TestDependencies.cpp</text>
</a>
</g>
</g>
<!-- Node1&#45;&gt;Node6 -->
<g id="edge5_Node000001_Node000006" class="edge">
<title>Node1&#45;&gt;Node6</title>
<g id="a_edge5_Node000001_Node000006"><a xlink:title=" ">
<path fill="none" stroke="#63b8ff" d="M373.97,-51.01C395.48,-41.41 423.45,-28.93 442.38,-20.48"/>
<polygon fill="#63b8ff" stroke="#63b8ff" points="372.79,-47.71 365.08,-54.98 375.64,-54.1 372.79,-47.71"/>
</a>
</g>
</g>
<!-- Node7 -->
<g id="Node000007" class="node">
<title>Node7</title>
<g id="a_Node000007"><a xlink:href="Validation_8cpp.html" target="_top" xlink:title=" ">
<polygon fill="white" stroke="#666666" points="616,-20 539.25,-20 539.25,0 616,0 616,-20"/>
<text xml:space="preserve" text-anchor="middle" x="577.62" y="-6.5" font-family="Helvetica,sans-Serif" font-size="10.00">Validation.cpp</text>
</a>
</g>
</g>
<!-- Node1&#45;&gt;Node7 -->
<g id="edge6_Node000001_Node000007" class="edge">
<title>Node1&#45;&gt;Node7</title>
<g id="a_edge6_Node000001_Node000007"><a xlink:title=" ">
<path fill="none" stroke="#63b8ff" d="M394.78,-53.02C438.34,-43.01 499.47,-28.96 538.81,-19.92"/>
<polygon fill="#63b8ff" stroke="#63b8ff" points="394.27,-49.54 385.3,-55.19 395.83,-56.36 394.27,-49.54"/>
</a>
</g>
</g>
<!-- Node8 -->
<g id="Node000008" class="node">
<title>Node8</title>
<g id="a_Node000008"><a xlink:href="main_8cpp.html" target="_top" xlink:title=" ">
<polygon fill="white" stroke="#666666" points="689.5,-20 633.75,-20 633.75,0 689.5,0 689.5,-20"/>
<text xml:space="preserve" text-anchor="middle" x="661.62" y="-6.5" font-family="Helvetica,sans-Serif" font-size="10.00">main.cpp</text>
</a>
</g>
</g>
<!-- Node1&#45;&gt;Node8 -->
<g id="edge7_Node000001_Node000008" class="edge">
<title>Node1&#45;&gt;Node8</title>
<g id="a_edge7_Node000001_Node000008"><a xlink:title=" ">
<path fill="none" stroke="#63b8ff" d="M397.57,-57.57C454.57,-49.54 546.19,-35.77 624.62,-20 627.48,-19.43 630.44,-18.78 633.4,-18.11"/>
<polygon fill="#63b8ff" stroke="#63b8ff" points="397.22,-54.08 387.8,-58.93 398.19,-61.01 397.22,-54.08"/>
</a>
</g>
</g>
</g>
</svg>
