<?xml version="1.0" encoding="UTF-8" standalone="no"?>
<!DOCTYPE svg PUBLIC "-//W3C//DTD SVG 1.1//EN"
 "http://www.w3.org/Graphics/SVG/1.1/DTD/svg11.dtd">
<!-- Generated by graphviz version 14.0.2 (20251019.1705)
 -->
<!-- Title: Details.cpp Pages: 1 -->
<svg width="162pt" height="84pt"
 viewBox="0.00 0.00 162.00 84.00" xmlns="http://www.w3.org/2000/svg" xmlns:xlink="http://www.w3.org/1999/xlink">
<g id="graph0" class="graph" transform="scale(1 1) rotate(0) translate(4 80)">
<title>Details.cpp</title>
<!-- Node1 -->
<g id="Node000001" class="node">
<title>Node1</title>
<g id="a_Node000001"><a xlink:title=" ">
<polygon fill="#999999" stroke="#666666" points="119.75,-76 54.25,-76 54.25,-56 119.75,-56 119.75,-76"/>
<text xml:space="preserve" text-anchor="middle" x="87" y="-62.5" font-family="Helvetica,sans-Serif" font-size="10.00">Details.cpp</text>
</a>
</g>
</g>
<!-- Node2 -->
<g id="Node000002" class="node">
<title>Node2</title>
<g id="a_Node000002"><a xlink:href="Details_8h.html" target="_top" xlink:title=" ">
<polygon fill="white" stroke="#666666" points="88,-20 0,-20 0,0 88,0 88,-20"/>
<text xml:space="preserve" text-anchor="middle" x="44" y="-6.5" font-family="Helvetica,sans-Serif" font-size="10.00">LGE/ui/Details.h</text>
</a>
</g>
</g>
<!-- Node1&#45;&gt;Node2 -->
<g id="edge1_Node000001_Node000002" class="edge">
<title>Node1&#45;&gt;Node2</title>
<g id="a_edge1_Node000001_Node000002"><a xlink:title=" ">
<path fill="none" stroke="#63b8ff" d="M79.51,-55.59C73.71,-48.32 65.51,-38.02 58.45,-29.15"/>
<polygon fill="#63b8ff" stroke="#63b8ff" points="61.31,-27.12 52.35,-21.48 55.84,-31.49 61.31,-27.12"/>
</a>
</g>
</g>
<!-- Node3 -->
<g id="Node000003" class="node">
<title>Node3</title>
<g id="a_Node000003"><a xlink:title=" ">
<polygon fill="#e0e0e0" stroke="#999999" points="153.75,-20 106.25,-20 106.25,0 153.75,0 153.75,-20"/>
<text xml:space="preserve" text-anchor="middle" x="130" y="-6.5" font-family="Helvetica,sans-Serif" font-size="10.00">imgui.h</text>
</a>
</g>
</g>
<!-- Node1&#45;&gt;Node3 -->
<g id="edge2_Node000001_Node000003" class="edge">
<title>Node1&#45;&gt;Node3</title>
<g id="a_edge2_Node000001_Node000003"><a xlink:title=" ">
<path fill="none" stroke="#63b8ff" d="M94.49,-55.59C100.29,-48.32 108.49,-38.02 115.55,-29.15"/>
<polygon fill="#63b8ff" stroke="#63b8ff" points="118.16,-31.49 121.65,-21.48 112.69,-27.12 118.16,-31.49"/>
</a>
</g>
</g>
</g>
</svg>
