<?xml version="1.0" encoding="UTF-8" standalone="no"?>
<!DOCTYPE svg PUBLIC "-//W3C//DTD SVG 1.1//EN"
 "http://www.w3.org/Graphics/SVG/1.1/DTD/svg11.dtd">
<!-- Generated by graphviz version 14.0.2 (20251019.1705)
 -->
<!-- Title: EditorBus.h Pages: 1 -->
<svg width="336pt" height="140pt"
 viewBox="0.00 0.00 336.00 140.00" xmlns="http://www.w3.org/2000/svg" xmlns:xlink="http://www.w3.org/1999/xlink">
<g id="graph0" class="graph" transform="scale(1 1) rotate(0) translate(4 136)">
<title>EditorBus.h</title>
<!-- Node1 -->
<g id="Node000001" class="node">
<title>Node1</title>
<g id="a_Node000001"><a xlink:title=" ">
<polygon fill="#999999" stroke="#666666" points="206.12,-132 139.12,-132 139.12,-112 206.12,-112 206.12,-132"/>
<text xml:space="preserve" text-anchor="middle" x="172.62" y="-118.5" font-family="Helvetica,sans-Serif" font-size="10.00">EditorBus.h</text>
</a>
</g>
</g>
<!-- Node2 -->
<g id="Node000002" class="node">
<title>Node2</title>
<g id="a_Node000002"><a xlink:href="Analytics_8h.html" target="_top" xlink:title=" ">
<polygon fill="white" stroke="#666666" points="70,-76 5.25,-76 5.25,-56 70,-56 70,-76"/>
<text xml:space="preserve" text-anchor="middle" x="37.62" y="-62.5" font-family="Helvetica,sans-Serif" font-size="10.00">Analytics.h</text>
</a>
</g>
</g>
<!-- Node1&#45;&gt;Node2 -->
<g id="edge1_Node000001_Node000002" class="edge">
<title>Node1&#45;&gt;Node2</title>
<g id="a_edge1_Node000001_Node000002"><a xlink:title=" ">
<path fill="none" stroke="#63b8ff" d="M138.63,-107.4C114.51,-97.75 82.74,-85.05 61.32,-76.48"/>
<polygon fill="#63b8ff" stroke="#63b8ff" points="137.12,-110.57 147.7,-111.03 139.72,-104.07 137.12,-110.57"/>
</a>
</g>
</g>
<!-- Node4 -->
<g id="Node000004" class="node">
<title>Node4</title>
<g id="a_Node000004"><a xlink:href="EditorBus_8cpp.html" target="_top" xlink:title=" ">
<polygon fill="white" stroke="#666666" points="165.38,-76 87.88,-76 87.88,-56 165.38,-56 165.38,-76"/>
<text xml:space="preserve" text-anchor="middle" x="126.62" y="-62.5" font-family="Helvetica,sans-Serif" font-size="10.00">EditorBus.cpp</text>
</a>
</g>
</g>
<!-- Node1&#45;&gt;Node4 -->
<g id="edge3_Node000001_Node000004" class="edge">
<title>Node1&#45;&gt;Node4</title>
<g id="a_edge3_Node000001_Node000004"><a xlink:title=" ">
<path fill="none" stroke="#63b8ff" d="M157.29,-103C149.67,-94.06 140.79,-83.62 134.55,-76.3"/>
<polygon fill="#63b8ff" stroke="#63b8ff" points="154.48,-105.1 163.63,-110.44 159.81,-100.56 154.48,-105.1"/>
</a>
</g>
</g>
<!-- Node5 -->
<g id="Node000005" class="node">
<title>Node5</title>
<g id="a_Node000005"><a xlink:href="Thumbs_8cpp.html" target="_top" xlink:title=" ">
<polygon fill="white" stroke="#666666" points="253.62,-76 183.62,-76 183.62,-56 253.62,-56 253.62,-76"/>
<text xml:space="preserve" text-anchor="middle" x="218.62" y="-62.5" font-family="Helvetica,sans-Serif" font-size="10.00">Thumbs.cpp</text>
</a>
</g>
</g>
<!-- Node1&#45;&gt;Node5 -->
<g id="edge4_Node000001_Node000005" class="edge">
<title>Node1&#45;&gt;Node5</title>
<g id="a_edge4_Node000001_Node000005"><a xlink:title=" ">
<path fill="none" stroke="#63b8ff" d="M187.96,-103C195.58,-94.06 204.46,-83.62 210.7,-76.3"/>
<polygon fill="#63b8ff" stroke="#63b8ff" points="185.44,-100.56 181.62,-110.44 190.77,-105.1 185.44,-100.56"/>
</a>
</g>
</g>
<!-- Node6 -->
<g id="Node000006" class="node">
<title>Node6</title>
<g id="a_Node000006"><a xlink:href="main_8cpp.html" target="_top" xlink:title=" ">
<polygon fill="white" stroke="#666666" points="327.5,-76 271.75,-76 271.75,-56 327.5,-56 327.5,-76"/>
<text xml:space="preserve" text-anchor="middle" x="299.62" y="-62.5" font-family="Helvetica,sans-Serif" font-size="10.00">main.cpp</text>
</a>
</g>
</g>
<!-- Node1&#45;&gt;Node6 -->
<g id="edge5_Node000001_Node000006" class="edge">
<title>Node1&#45;&gt;Node6</title>
<g id="a_edge5_Node000001_Node000006"><a xlink:title=" ">
<path fill="none" stroke="#63b8ff" d="M205.22,-107.14C227.84,-97.52 257.37,-84.97 277.33,-76.48"/>
<polygon fill="#63b8ff" stroke="#63b8ff" points="203.97,-103.87 196.14,-111 206.71,-110.31 203.97,-103.87"/>
</a>
</g>
</g>
<!-- Node3 -->
<g id="Node000003" class="node">
<title>Node3</title>
<g id="a_Node000003"><a xlink:href="Analytics_8cpp.html" target="_top" xlink:title=" ">
<polygon fill="white" stroke="#666666" points="75.25,-20 0,-20 0,0 75.25,0 75.25,-20"/>
<text xml:space="preserve" text-anchor="middle" x="37.62" y="-6.5" font-family="Helvetica,sans-Serif" font-size="10.00">Analytics.cpp</text>
</a>
</g>
</g>
<!-- Node2&#45;&gt;Node3 -->
<g id="edge2_Node000002_Node000003" class="edge">
<title>Node2&#45;&gt;Node3</title>
<g id="a_edge2_Node000002_Node000003"><a xlink:title=" ">
<path fill="none" stroke="#63b8ff" d="M37.62,-44.13C37.62,-35.9 37.62,-26.85 37.62,-20.3"/>
<polygon fill="#63b8ff" stroke="#63b8ff" points="34.13,-44.08 37.63,-54.08 41.13,-44.08 34.13,-44.08"/>
</a>
</g>
</g>
</g>
</svg>
