<?xml version="1.0" encoding="UTF-8" standalone="no"?>
<!DOCTYPE svg PUBLIC "-//W3C//DTD SVG 1.1//EN"
 "http://www.w3.org/Graphics/SVG/1.1/DTD/svg11.dtd">
<!-- Generated by graphviz version 14.0.2 (20251019.1705)
 -->
<!-- Title: ExporterRegistry.h Pages: 1 -->
<svg width="421pt" height="84pt"
 viewBox="0.00 0.00 421.00 84.00" xmlns="http://www.w3.org/2000/svg" xmlns:xlink="http://www.w3.org/1999/xlink">
<g id="graph0" class="graph" transform="scale(1 1) rotate(0) translate(4 80)">
<title>ExporterRegistry.h</title>
<!-- Node1 -->
<g id="Node000001" class="node">
<title>Node1</title>
<g id="a_Node000001"><a xlink:title=" ">
<polygon fill="#999999" stroke="#666666" points="283.12,-76 186.12,-76 186.12,-56 283.12,-56 283.12,-76"/>
<text xml:space="preserve" text-anchor="middle" x="234.62" y="-62.5" font-family="Helvetica,sans-Serif" font-size="10.00">ExporterRegistry.h</text>
</a>
</g>
</g>
<!-- Node2 -->
<g id="Node000002" class="node">
<title>Node2</title>
<g id="a_Node000002"><a xlink:href="ContentBrowser_8cpp.html" target="_top" xlink:title=" ">
<polygon fill="white" stroke="#666666" points="105.25,-20 0,-20 0,0 105.25,0 105.25,-20"/>
<text xml:space="preserve" text-anchor="middle" x="52.62" y="-6.5" font-family="Helvetica,sans-Serif" font-size="10.00">ContentBrowser.cpp</text>
</a>
</g>
</g>
<!-- Node1&#45;&gt;Node2 -->
<g id="edge1_Node000001_Node000002" class="edge">
<title>Node1&#45;&gt;Node2</title>
<g id="a_edge1_Node000001_Node000002"><a xlink:title=" ">
<path fill="none" stroke="#63b8ff" d="M192.27,-52.43C159.38,-42.67 114.49,-29.35 84.57,-20.48"/>
<polygon fill="#63b8ff" stroke="#63b8ff" points="190.89,-55.67 201.47,-55.16 192.88,-48.96 190.89,-55.67"/>
</a>
</g>
</g>
<!-- Node3 -->
<g id="Node000003" class="node">
<title>Node3</title>
<g id="a_Node000003"><a xlink:href="ExporterRegistry_8cpp.html" target="_top" xlink:title=" ">
<polygon fill="white" stroke="#666666" points="230.38,-20 122.88,-20 122.88,0 230.38,0 230.38,-20"/>
<text xml:space="preserve" text-anchor="middle" x="176.62" y="-6.5" font-family="Helvetica,sans-Serif" font-size="10.00">ExporterRegistry.cpp</text>
</a>
</g>
</g>
<!-- Node1&#45;&gt;Node3 -->
<g id="edge2_Node000001_Node000003" class="edge">
<title>Node1&#45;&gt;Node3</title>
<g id="a_edge2_Node000001_Node000003"><a xlink:title=" ">
<path fill="none" stroke="#63b8ff" d="M216.2,-47.85C206.4,-38.72 194.73,-27.86 186.61,-20.3"/>
<polygon fill="#63b8ff" stroke="#63b8ff" points="213.71,-50.31 223.41,-54.56 218.48,-45.19 213.71,-50.31"/>
</a>
</g>
</g>
<!-- Node4 -->
<g id="Node000004" class="node">
<title>Node4</title>
<g id="a_Node000004"><a xlink:href="ImportExport_8cpp.html" target="_top" xlink:title=" ">
<polygon fill="white" stroke="#666666" points="339.12,-20 248.12,-20 248.12,0 339.12,0 339.12,-20"/>
<text xml:space="preserve" text-anchor="middle" x="293.62" y="-6.5" font-family="Helvetica,sans-Serif" font-size="10.00">ImportExport.cpp</text>
</a>
</g>
</g>
<!-- Node1&#45;&gt;Node4 -->
<g id="edge3_Node000001_Node000004" class="edge">
<title>Node1&#45;&gt;Node4</title>
<g id="a_edge3_Node000001_Node000004"><a xlink:title=" ">
<path fill="none" stroke="#63b8ff" d="M253.37,-47.85C263.34,-38.72 275.21,-27.86 283.47,-20.3"/>
<polygon fill="#63b8ff" stroke="#63b8ff" points="251.03,-45.24 246.02,-54.57 255.76,-50.4 251.03,-45.24"/>
</a>
</g>
</g>
<!-- Node5 -->
<g id="Node000005" class="node">
<title>Node5</title>
<g id="a_Node000005"><a xlink:href="main_8cpp.html" target="_top" xlink:title=" ">
<polygon fill="white" stroke="#666666" points="412.5,-20 356.75,-20 356.75,0 412.5,0 412.5,-20"/>
<text xml:space="preserve" text-anchor="middle" x="384.62" y="-6.5" font-family="Helvetica,sans-Serif" font-size="10.00">main.cpp</text>
</a>
</g>
</g>
<!-- Node1&#45;&gt;Node5 -->
<g id="edge4_Node000001_Node000005" class="edge">
<title>Node1&#45;&gt;Node5</title>
<g id="a_edge4_Node000001_Node000005"><a xlink:title=" ">
<path fill="none" stroke="#63b8ff" d="M271.32,-51.79C298.24,-42.1 334.18,-29.16 358.29,-20.48"/>
<polygon fill="#63b8ff" stroke="#63b8ff" points="270.4,-48.4 262.18,-55.08 272.77,-54.99 270.4,-48.4"/>
</a>
</g>
</g>
</g>
</svg>
