<?xml version="1.0" encoding="UTF-8" standalone="no"?>
<!DOCTYPE svg PUBLIC "-//W3C//DTD SVG 1.1//EN"
 "http://www.w3.org/Graphics/SVG/1.1/DTD/svg11.dtd">
<!-- Generated by graphviz version 14.0.2 (20251019.1705)
 -->
<!-- Title: ExporterRegistry.cpp Pages: 1 -->
<svg width="442pt" height="252pt"
 viewBox="0.00 0.00 442.00 252.00" xmlns="http://www.w3.org/2000/svg" xmlns:xlink="http://www.w3.org/1999/xlink">
<g id="graph0" class="graph" transform="scale(1 1) rotate(0) translate(4 248)">
<title>ExporterRegistry.cpp</title>
<!-- Node1 -->
<g id="Node000001" class="node">
<title>Node1</title>
<g id="a_Node000001"><a xlink:title=" ">
<polygon fill="#999999" stroke="#666666" points="373.88,-244 266.38,-244 266.38,-224 373.88,-224 373.88,-244"/>
<text xml:space="preserve" text-anchor="middle" x="320.12" y="-230.5" font-family="Helvetica,sans-Serif" font-size="10.00">ExporterRegistry.cpp</text>
</a>
</g>
</g>
<!-- Node2 -->
<g id="Node000002" class="node">
<title>Node2</title>
<g id="a_Node000002"><a xlink:href="ExporterRegistry_8h.html" target="_top" xlink:title=" ">
<polygon fill="white" stroke="#666666" points="335,-188 183.25,-188 183.25,-168 335,-168 335,-188"/>
<text xml:space="preserve" text-anchor="middle" x="259.12" y="-174.5" font-family="Helvetica,sans-Serif" font-size="10.00">LGE/assets/ExporterRegistry.h</text>
</a>
</g>
</g>
<!-- Node1&#45;&gt;Node2 -->
<g id="edge1_Node000001_Node000002" class="edge">
<title>Node1&#45;&gt;Node2</title>
<g id="a_edge1_Node000001_Node000002"><a xlink:title=" ">
<path fill="none" stroke="#63b8ff" d="M309.5,-223.59C300.84,-215.93 288.39,-204.91 278.04,-195.75"/>
<polygon fill="#63b8ff" stroke="#63b8ff" points="280.57,-193.31 270.76,-189.3 275.93,-198.55 280.57,-193.31"/>
</a>
</g>
</g>
<!-- Node10 -->
<g id="Node000010" class="node">
<title>Node10</title>
<g id="a_Node000010"><a xlink:title=" ">
<polygon fill="#e0e0e0" stroke="#999999" points="409,-188 353.25,-188 353.25,-168 409,-168 409,-188"/>
<text xml:space="preserve" text-anchor="middle" x="381.12" y="-174.5" font-family="Helvetica,sans-Serif" font-size="10.00">algorithm</text>
</a>
</g>
</g>
<!-- Node1&#45;&gt;Node10 -->
<g id="edge14_Node000001_Node000010" class="edge">
<title>Node1&#45;&gt;Node10</title>
<g id="a_edge14_Node000001_Node000010"><a xlink:title=" ">
<path fill="none" stroke="#63b8ff" d="M330.75,-223.59C339.41,-215.93 351.86,-204.91 362.21,-195.75"/>
<polygon fill="#63b8ff" stroke="#63b8ff" points="364.32,-198.55 369.49,-189.3 359.68,-193.31 364.32,-198.55"/>
</a>
</g>
</g>
<!-- Node3 -->
<g id="Node000003" class="node">
<title>Node3</title>
<g id="a_Node000003"><a xlink:href="Exporter_8h.html" target="_top" xlink:title=" ">
<polygon fill="white" stroke="#666666" points="212,-132 96.25,-132 96.25,-112 212,-112 212,-132"/>
<text xml:space="preserve" text-anchor="middle" x="154.12" y="-118.5" font-family="Helvetica,sans-Serif" font-size="10.00">LGE/assets/Exporter.h</text>
</a>
</g>
</g>
<!-- Node2&#45;&gt;Node3 -->
<g id="edge2_Node000002_Node000003" class="edge">
<title>Node2&#45;&gt;Node3</title>
<g id="a_edge2_Node000002_Node000003"><a xlink:title=" ">
<path fill="none" stroke="#63b8ff" d="M240.84,-167.59C224.82,-159.36 201.29,-147.26 182.78,-137.74"/>
<polygon fill="#63b8ff" stroke="#63b8ff" points="184.4,-134.63 173.9,-133.17 181.2,-140.86 184.4,-134.63"/>
</a>
</g>
</g>
<!-- Node4 -->
<g id="Node000004" class="node">
<title>Node4</title>
<g id="a_Node000004"><a xlink:href="AssetMeta_8h.html" target="_top" xlink:title=" ">
<polygon fill="white" stroke="#666666" points="126.25,-76 0,-76 0,-56 126.25,-56 126.25,-76"/>
<text xml:space="preserve" text-anchor="middle" x="63.12" y="-62.5" font-family="Helvetica,sans-Serif" font-size="10.00">LGE/assets/AssetMeta.h</text>
</a>
</g>
</g>
<!-- Node2&#45;&gt;Node4 -->
<g id="edge9_Node000002_Node000004" class="edge">
<title>Node2&#45;&gt;Node4</title>
<g id="a_edge9_Node000002_Node000004"><a xlink:title=" ">
<path fill="none" stroke="#63b8ff" d="M183.13,-172.64C150.15,-167.14 113.19,-155.64 87.12,-132 74.58,-120.63 68.58,-102.11 65.71,-87.74"/>
<polygon fill="#63b8ff" stroke="#63b8ff" points="69.18,-87.29 64.15,-77.96 62.27,-88.39 69.18,-87.29"/>
</a>
</g>
</g>
<!-- Node5 -->
<g id="Node000005" class="node">
<title>Node5</title>
<g id="a_Node000005"><a xlink:title=" ">
<polygon fill="#e0e0e0" stroke="#999999" points="174.12,-20 134.12,-20 134.12,0 174.12,0 174.12,-20"/>
<text xml:space="preserve" text-anchor="middle" x="154.12" y="-6.5" font-family="Helvetica,sans-Serif" font-size="10.00">string</text>
</a>
</g>
</g>
<!-- Node2&#45;&gt;Node5 -->
<g id="edge10_Node000002_Node000005" class="edge">
<title>Node2&#45;&gt;Node5</title>
<g id="a_edge10_Node000002_Node000005"><a xlink:title=" ">
<path fill="none" stroke="#63b8ff" d="M268.19,-167.65C287.94,-146.12 331.02,-92.14 304.12,-56 276.93,-19.45 221.07,-11.47 185.73,-10.31"/>
<polygon fill="#63b8ff" stroke="#63b8ff" points="186.16,-6.82 176.11,-10.18 186.06,-13.82 186.16,-6.82"/>
</a>
</g>
</g>
<!-- Node7 -->
<g id="Node000007" class="node">
<title>Node7</title>
<g id="a_Node000007"><a xlink:title=" ">
<polygon fill="#e0e0e0" stroke="#999999" points="225.62,-76 182.62,-76 182.62,-56 225.62,-56 225.62,-76"/>
<text xml:space="preserve" text-anchor="middle" x="204.12" y="-62.5" font-family="Helvetica,sans-Serif" font-size="10.00">vector</text>
</a>
</g>
</g>
<!-- Node2&#45;&gt;Node7 -->
<g id="edge11_Node000002_Node000007" class="edge">
<title>Node2&#45;&gt;Node7</title>
<g id="a_edge11_Node000002_Node000007"><a xlink:title=" ">
<path fill="none" stroke="#63b8ff" d="M254.44,-167.62C245.47,-149.68 225.71,-110.17 213.8,-86.35"/>
<polygon fill="#63b8ff" stroke="#63b8ff" points="217.08,-85.09 209.48,-77.71 210.82,-88.22 217.08,-85.09"/>
</a>
</g>
</g>
<!-- Node8 -->
<g id="Node000008" class="node">
<title>Node8</title>
<g id="a_Node000008"><a xlink:title=" ">
<polygon fill="#e0e0e0" stroke="#999999" points="294.75,-76 243.5,-76 243.5,-56 294.75,-56 294.75,-76"/>
<text xml:space="preserve" text-anchor="middle" x="269.12" y="-62.5" font-family="Helvetica,sans-Serif" font-size="10.00">memory</text>
</a>
</g>
</g>
<!-- Node2&#45;&gt;Node8 -->
<g id="edge12_Node000002_Node000008" class="edge">
<title>Node2&#45;&gt;Node8</title>
<g id="a_edge12_Node000002_Node000008"><a xlink:title=" ">
<path fill="none" stroke="#63b8ff" d="M259.98,-167.62C261.58,-150.01 265.07,-111.59 267.25,-87.65"/>
<polygon fill="#63b8ff" stroke="#63b8ff" points="270.72,-88.14 268.14,-77.86 263.75,-87.5 270.72,-88.14"/>
</a>
</g>
</g>
<!-- Node9 -->
<g id="Node000009" class="node">
<title>Node9</title>
<g id="a_Node000009"><a xlink:title=" ">
<polygon fill="#e0e0e0" stroke="#999999" points="433.5,-132 350.75,-132 350.75,-112 433.5,-112 433.5,-132"/>
<text xml:space="preserve" text-anchor="middle" x="392.12" y="-118.5" font-family="Helvetica,sans-Serif" font-size="10.00">unordered_map</text>
</a>
</g>
</g>
<!-- Node2&#45;&gt;Node9 -->
<g id="edge13_Node000002_Node000009" class="edge">
<title>Node2&#45;&gt;Node9</title>
<g id="a_edge13_Node000002_Node000009"><a xlink:title=" ">
<path fill="none" stroke="#63b8ff" d="M282.29,-167.59C303.33,-159.05 334.62,-146.35 358.43,-136.68"/>
<polygon fill="#63b8ff" stroke="#63b8ff" points="359.43,-140.05 367.38,-133.05 356.79,-133.57 359.43,-140.05"/>
</a>
</g>
</g>
<!-- Node3&#45;&gt;Node4 -->
<g id="edge3_Node000003_Node000004" class="edge">
<title>Node3&#45;&gt;Node4</title>
<g id="a_edge3_Node000003_Node000004"><a xlink:title=" ">
<path fill="none" stroke="#63b8ff" d="M138.27,-111.59C124.66,-103.51 104.76,-91.71 88.86,-82.27"/>
<polygon fill="#63b8ff" stroke="#63b8ff" points="90.79,-79.35 80.4,-77.25 87.22,-85.37 90.79,-79.35"/>
</a>
</g>
</g>
<!-- Node3&#45;&gt;Node5 -->
<g id="edge6_Node000003_Node000005" class="edge">
<title>Node3&#45;&gt;Node5</title>
<g id="a_edge6_Node000003_Node000005"><a xlink:title=" ">
<path fill="none" stroke="#63b8ff" d="M154.12,-111.62C154.12,-94.01 154.12,-55.59 154.12,-31.65"/>
<polygon fill="#63b8ff" stroke="#63b8ff" points="157.63,-31.87 154.13,-21.87 150.63,-31.87 157.63,-31.87"/>
</a>
</g>
</g>
<!-- Node3&#45;&gt;Node7 -->
<g id="edge7_Node000003_Node000007" class="edge">
<title>Node3&#45;&gt;Node7</title>
<g id="a_edge7_Node000003_Node000007"><a xlink:title=" ">
<path fill="none" stroke="#63b8ff" d="M162.83,-111.59C169.72,-104.16 179.52,-93.58 187.84,-84.58"/>
<polygon fill="#63b8ff" stroke="#63b8ff" points="190.26,-87.12 194.49,-77.41 185.12,-82.37 190.26,-87.12"/>
</a>
</g>
</g>
<!-- Node3&#45;&gt;Node8 -->
<g id="edge8_Node000003_Node000008" class="edge">
<title>Node3&#45;&gt;Node8</title>
<g id="a_edge8_Node000003_Node000008"><a xlink:title=" ">
<path fill="none" stroke="#63b8ff" d="M174.16,-111.59C191.94,-103.24 218.19,-90.92 238.59,-81.34"/>
<polygon fill="#63b8ff" stroke="#63b8ff" points="240,-84.54 247.57,-77.12 237.03,-78.21 240,-84.54"/>
</a>
</g>
</g>
<!-- Node4&#45;&gt;Node5 -->
<g id="edge4_Node000004_Node000005" class="edge">
<title>Node4&#45;&gt;Node5</title>
<g id="a_edge4_Node000004_Node000005"><a xlink:title=" ">
<path fill="none" stroke="#63b8ff" d="M78.98,-55.59C92.59,-47.51 112.49,-35.71 128.39,-26.27"/>
<polygon fill="#63b8ff" stroke="#63b8ff" points="130.03,-29.37 136.85,-21.25 126.46,-23.35 130.03,-29.37"/>
</a>
</g>
</g>
<!-- Node6 -->
<g id="Node000006" class="node">
<title>Node6</title>
<g id="a_Node000006"><a xlink:title=" ">
<polygon fill="#e0e0e0" stroke="#999999" points="85.75,-20 40.5,-20 40.5,0 85.75,0 85.75,-20"/>
<text xml:space="preserve" text-anchor="middle" x="63.12" y="-6.5" font-family="Helvetica,sans-Serif" font-size="10.00">cstdint</text>
</a>
</g>
</g>
<!-- Node4&#45;&gt;Node6 -->
<g id="edge5_Node000004_Node000006" class="edge">
<title>Node4&#45;&gt;Node6</title>
<g id="a_edge5_Node000004_Node000006"><a xlink:title=" ">
<path fill="none" stroke="#63b8ff" d="M63.12,-55.59C63.12,-49.01 63.12,-39.96 63.12,-31.73"/>
<polygon fill="#63b8ff" stroke="#63b8ff" points="66.63,-31.81 63.13,-21.81 59.63,-31.81 66.63,-31.81"/>
</a>
</g>
</g>
</g>
</svg>
