<?xml version="1.0" encoding="UTF-8" standalone="no"?>
<!DOCTYPE svg PUBLIC "-//W3C//DTD SVG 1.1//EN"
 "http://www.w3.org/Graphics/SVG/1.1/DTD/svg11.dtd">
<!-- Generated by graphviz version 14.0.2 (20251019.1705)
 -->
<!-- Title: FileIO.cpp Pages: 1 -->
<svg width="1172pt" height="196pt"
 viewBox="0.00 0.00 1172.00 196.00" xmlns="http://www.w3.org/2000/svg" xmlns:xlink="http://www.w3.org/1999/xlink">
<g id="graph0" class="graph" transform="scale(1 1) rotate(0) translate(4 192)">
<title>FileIO.cpp</title>
<!-- Node1 -->
<g id="Node000001" class="node">
<title>Node1</title>
<g id="a_Node000001"><a xlink:title=" ">
<polygon fill="#999999" stroke="#666666" points="711.62,-188 650.62,-188 650.62,-168 711.62,-168 711.62,-188"/>
<text xml:space="preserve" text-anchor="middle" x="681.12" y="-174.5" font-family="Helvetica,sans-Serif" font-size="10.00">FileIO.cpp</text>
</a>
</g>
</g>
<!-- Node2 -->
<g id="Node000002" class="node">
<title>Node2</title>
<g id="a_Node000002"><a xlink:href="FileIO_8h.html" target="_top" xlink:title=" ">
<polygon fill="white" stroke="#666666" points="180.25,-76 96,-76 96,-56 180.25,-56 180.25,-76"/>
<text xml:space="preserve" text-anchor="middle" x="138.12" y="-62.5" font-family="Helvetica,sans-Serif" font-size="10.00">LGE/fs/FileIO.h</text>
</a>
</g>
</g>
<!-- Node1&#45;&gt;Node2 -->
<g id="edge1_Node000001_Node000002" class="edge">
<title>Node1&#45;&gt;Node2</title>
<g id="a_edge1_Node000001_Node000002"><a xlink:title=" ">
<path fill="none" stroke="#63b8ff" d="M650.39,-176.37C559.78,-174.16 295.08,-164.97 216.12,-132 190.83,-121.44 167.49,-99.73 153.06,-84.31"/>
<polygon fill="#63b8ff" stroke="#63b8ff" points="155.96,-82.29 146.66,-77.21 150.76,-86.98 155.96,-82.29"/>
</a>
</g>
</g>
<!-- Node5 -->
<g id="Node000005" class="node">
<title>Node5</title>
<g id="a_Node000005"><a xlink:href="Path_8h.html" target="_top" xlink:title=" ">
<polygon fill="white" stroke="#666666" points="78.25,-76 0,-76 0,-56 78.25,-56 78.25,-76"/>
<text xml:space="preserve" text-anchor="middle" x="39.12" y="-62.5" font-family="Helvetica,sans-Serif" font-size="10.00">LGE/fs/Path.h</text>
</a>
</g>
</g>
<!-- Node1&#45;&gt;Node5 -->
<g id="edge4_Node000001_Node000005" class="edge">
<title>Node1&#45;&gt;Node5</title>
<g id="a_edge4_Node000001_Node000005"><a xlink:title=" ">
<path fill="none" stroke="#63b8ff" d="M650.14,-175.59C555.39,-171.05 270.52,-155.74 181.12,-132 138.37,-120.65 92.43,-97.36 64.74,-81.97"/>
<polygon fill="#63b8ff" stroke="#63b8ff" points="66.81,-79.12 56.38,-77.24 63.36,-85.21 66.81,-79.12"/>
</a>
</g>
</g>
<!-- Node6 -->
<g id="Node000006" class="node">
<title>Node6</title>
<g id="a_Node000006"><a xlink:href="VFS_8h.html" target="_top" xlink:title=" ">
<polygon fill="white" stroke="#666666" points="434.88,-132 357.38,-132 357.38,-112 434.88,-112 434.88,-132"/>
<text xml:space="preserve" text-anchor="middle" x="396.12" y="-118.5" font-family="Helvetica,sans-Serif" font-size="10.00">LGE/fs/VFS.h</text>
</a>
</g>
</g>
<!-- Node1&#45;&gt;Node6 -->
<g id="edge7_Node000001_Node000006" class="edge">
<title>Node1&#45;&gt;Node6</title>
<g id="a_edge7_Node000001_Node000006"><a xlink:title=" ">
<path fill="none" stroke="#63b8ff" d="M650.35,-171.17C601.37,-161.89 505.19,-143.66 446.19,-132.49"/>
<polygon fill="#63b8ff" stroke="#63b8ff" points="446.87,-129.05 436.4,-130.63 445.57,-135.93 446.87,-129.05"/>
</a>
</g>
</g>
<!-- Node9 -->
<g id="Node000009" class="node">
<title>Node9</title>
<g id="a_Node000009"><a xlink:href="Project_8h.html" target="_top" xlink:title=" ">
<polygon fill="white" stroke="#666666" points="541.5,-132 452.75,-132 452.75,-112 541.5,-112 541.5,-132"/>
<text xml:space="preserve" text-anchor="middle" x="497.12" y="-118.5" font-family="Helvetica,sans-Serif" font-size="10.00">LGE/fs/Project.h</text>
</a>
</g>
</g>
<!-- Node1&#45;&gt;Node9 -->
<g id="edge12_Node000001_Node000009" class="edge">
<title>Node1&#45;&gt;Node9</title>
<g id="a_edge12_Node000001_Node000009"><a xlink:title=" ">
<path fill="none" stroke="#63b8ff" d="M650.33,-167.96C620.18,-159.11 573.98,-145.56 540.2,-135.64"/>
<polygon fill="#63b8ff" stroke="#63b8ff" points="541.29,-132.32 530.71,-132.86 539.32,-139.03 541.29,-132.32"/>
</a>
</g>
</g>
<!-- Node10 -->
<g id="Node000010" class="node">
<title>Node10</title>
<g id="a_Node000010"><a xlink:title=" ">
<polygon fill="#e0e0e0" stroke="#999999" points="605.62,-76 544.62,-76 544.62,-56 605.62,-56 605.62,-76"/>
<text xml:space="preserve" text-anchor="middle" x="575.12" y="-62.5" font-family="Helvetica,sans-Serif" font-size="10.00">filesystem</text>
</a>
</g>
</g>
<!-- Node1&#45;&gt;Node10 -->
<g id="edge24_Node000001_Node000010" class="edge">
<title>Node1&#45;&gt;Node10</title>
<g id="a_edge24_Node000001_Node000010"><a xlink:title=" ">
<path fill="none" stroke="#63b8ff" d="M650.17,-169.75C629.49,-163.29 603.39,-151.71 588.12,-132 578.42,-119.46 575.39,-101.58 574.67,-87.75"/>
<polygon fill="#63b8ff" stroke="#63b8ff" points="578.17,-87.92 574.55,-77.97 571.17,-88.01 578.17,-87.92"/>
</a>
</g>
</g>
<!-- Node11 -->
<g id="Node000011" class="node">
<title>Node11</title>
<g id="a_Node000011"><a xlink:href="Recycle_8h.html" target="_top" xlink:title=" ">
<polygon fill="white" stroke="#666666" points="319.12,-132 225.12,-132 225.12,-112 319.12,-112 319.12,-132"/>
<text xml:space="preserve" text-anchor="middle" x="272.12" y="-118.5" font-family="Helvetica,sans-Serif" font-size="10.00">LGE/fs/Recycle.h</text>
</a>
</g>
</g>
<!-- Node1&#45;&gt;Node11 -->
<g id="edge15_Node000001_Node000011" class="edge">
<title>Node1&#45;&gt;Node11</title>
<g id="a_edge15_Node000001_Node000011"><a xlink:title=" ">
<path fill="none" stroke="#63b8ff" d="M650.38,-172.94C582.56,-163.99 419.11,-142.41 330.92,-130.76"/>
<polygon fill="#63b8ff" stroke="#63b8ff" points="331.38,-127.29 321.01,-129.45 330.46,-134.23 331.38,-127.29"/>
</a>
</g>
</g>
<!-- Node13 -->
<g id="Node000013" class="node">
<title>Node13</title>
<g id="a_Node000013"><a xlink:href="Log_8h.html" target="_top" xlink:title=" ">
<polygon fill="white" stroke="#666666" points="681.25,-132 597,-132 597,-112 681.25,-112 681.25,-132"/>
<text xml:space="preserve" text-anchor="middle" x="639.12" y="-118.5" font-family="Helvetica,sans-Serif" font-size="10.00">LGE/core/Log.h</text>
</a>
</g>
</g>
<!-- Node1&#45;&gt;Node13 -->
<g id="edge20_Node000001_Node000013" class="edge">
<title>Node1&#45;&gt;Node13</title>
<g id="a_edge20_Node000001_Node000013"><a xlink:title=" ">
<path fill="none" stroke="#63b8ff" d="M673.81,-167.59C668.15,-160.32 660.14,-150.02 653.24,-141.15"/>
<polygon fill="#63b8ff" stroke="#63b8ff" points="656.19,-139.24 647.29,-133.49 650.66,-143.54 656.19,-139.24"/>
</a>
</g>
</g>
<!-- Node15 -->
<g id="Node000015" class="node">
<title>Node15</title>
<g id="a_Node000015"><a xlink:title=" ">
<polygon fill="#e0e0e0" stroke="#999999" points="748.62,-132 699.62,-132 699.62,-112 748.62,-112 748.62,-132"/>
<text xml:space="preserve" text-anchor="middle" x="724.12" y="-118.5" font-family="Helvetica,sans-Serif" font-size="10.00">fstream</text>
</a>
</g>
</g>
<!-- Node1&#45;&gt;Node15 -->
<g id="edge23_Node000001_Node000015" class="edge">
<title>Node1&#45;&gt;Node15</title>
<g id="a_edge23_Node000001_Node000015"><a xlink:title=" ">
<path fill="none" stroke="#63b8ff" d="M688.62,-167.59C694.41,-160.32 702.61,-150.02 709.67,-141.15"/>
<polygon fill="#63b8ff" stroke="#63b8ff" points="712.29,-143.49 715.78,-133.48 706.81,-139.12 712.29,-143.49"/>
</a>
</g>
</g>
<!-- Node16 -->
<g id="Node000016" class="node">
<title>Node16</title>
<g id="a_Node000016"><a xlink:title=" ">
<polygon fill="#e0e0e0" stroke="#999999" points="822,-132 766.25,-132 766.25,-112 822,-112 822,-132"/>
<text xml:space="preserve" text-anchor="middle" x="794.12" y="-118.5" font-family="Helvetica,sans-Serif" font-size="10.00">algorithm</text>
</a>
</g>
</g>
<!-- Node1&#45;&gt;Node16 -->
<g id="edge25_Node000001_Node000016" class="edge">
<title>Node1&#45;&gt;Node16</title>
<g id="a_edge25_Node000001_Node000016"><a xlink:title=" ">
<path fill="none" stroke="#63b8ff" d="M700.81,-167.59C718.28,-159.24 744.08,-146.92 764.12,-137.34"/>
<polygon fill="#63b8ff" stroke="#63b8ff" points="765.41,-140.6 772.92,-133.13 762.39,-134.29 765.41,-140.6"/>
</a>
</g>
</g>
<!-- Node17 -->
<g id="Node000017" class="node">
<title>Node17</title>
<g id="a_Node000017"><a xlink:title=" ">
<polygon fill="#e0e0e0" stroke="#999999" points="885.75,-132 840.5,-132 840.5,-112 885.75,-112 885.75,-132"/>
<text xml:space="preserve" text-anchor="middle" x="863.12" y="-118.5" font-family="Helvetica,sans-Serif" font-size="10.00">cstring</text>
</a>
</g>
</g>
<!-- Node1&#45;&gt;Node17 -->
<g id="edge26_Node000001_Node000017" class="edge">
<title>Node1&#45;&gt;Node17</title>
<g id="a_edge26_Node000001_Node000017"><a xlink:title=" ">
<path fill="none" stroke="#63b8ff" d="M712,-167.84C744.62,-158.16 795.9,-142.95 829.51,-132.97"/>
<polygon fill="#63b8ff" stroke="#63b8ff" points="830.14,-136.44 838.74,-130.24 828.15,-129.73 830.14,-136.44"/>
</a>
</g>
</g>
<!-- Node18 -->
<g id="Node000018" class="node">
<title>Node18</title>
<g id="a_Node000018"><a xlink:title=" ">
<polygon fill="#e0e0e0" stroke="#999999" points="948.75,-132 903.5,-132 903.5,-112 948.75,-112 948.75,-132"/>
<text xml:space="preserve" text-anchor="middle" x="926.12" y="-118.5" font-family="Helvetica,sans-Serif" font-size="10.00">chrono</text>
</a>
</g>
</g>
<!-- Node1&#45;&gt;Node18 -->
<g id="edge27_Node000001_Node000018" class="edge">
<title>Node1&#45;&gt;Node18</title>
<g id="a_edge27_Node000001_Node000018"><a xlink:title=" ">
<path fill="none" stroke="#63b8ff" d="M712.12,-171.24C751.78,-163.71 822.8,-149.68 892.06,-132.64"/>
<polygon fill="#63b8ff" stroke="#63b8ff" points="892.83,-136.05 901.69,-130.24 891.14,-129.26 892.83,-136.05"/>
</a>
</g>
</g>
<!-- Node19 -->
<g id="Node000019" class="node">
<title>Node19</title>
<g id="a_Node000019"><a xlink:title=" ">
<polygon fill="#e0e0e0" stroke="#999999" points="1017.75,-132 966.5,-132 966.5,-112 1017.75,-112 1017.75,-132"/>
<text xml:space="preserve" text-anchor="middle" x="992.12" y="-118.5" font-family="Helvetica,sans-Serif" font-size="10.00">sstream</text>
</a>
</g>
</g>
<!-- Node1&#45;&gt;Node19 -->
<g id="edge28_Node000001_Node000019" class="edge">
<title>Node1&#45;&gt;Node19</title>
<g id="a_edge28_Node000001_Node000019"><a xlink:title=" ">
<path fill="none" stroke="#63b8ff" d="M712.05,-172.98C761.47,-166.34 861.49,-152.03 955.11,-132.49"/>
<polygon fill="#63b8ff" stroke="#63b8ff" points="955.66,-135.95 964.72,-130.46 954.21,-129.1 955.66,-135.95"/>
</a>
</g>
</g>
<!-- Node20 -->
<g id="Node000020" class="node">
<title>Node20</title>
<g id="a_Node000020"><a xlink:title=" ">
<polygon fill="#e0e0e0" stroke="#999999" points="1086.38,-132 1035.88,-132 1035.88,-112 1086.38,-112 1086.38,-132"/>
<text xml:space="preserve" text-anchor="middle" x="1061.12" y="-118.5" font-family="Helvetica,sans-Serif" font-size="10.00">unistd.h</text>
</a>
</g>
</g>
<!-- Node1&#45;&gt;Node20 -->
<g id="edge29_Node000001_Node000020" class="edge">
<title>Node1&#45;&gt;Node20</title>
<g id="a_edge29_Node000001_Node000020"><a xlink:title=" ">
<path fill="none" stroke="#63b8ff" d="M711.89,-174.35C770.73,-168.99 903.46,-155.51 1024.31,-132.34"/>
<polygon fill="#63b8ff" stroke="#63b8ff" points="1024.96,-135.78 1034.1,-130.43 1023.62,-128.91 1024.96,-135.78"/>
</a>
</g>
</g>
<!-- Node21 -->
<g id="Node000021" class="node">
<title>Node21</title>
<g id="a_Node000021"><a xlink:title=" ">
<polygon fill="#e0e0e0" stroke="#999999" points="1163.88,-132 1104.38,-132 1104.38,-112 1163.88,-112 1163.88,-132"/>
<text xml:space="preserve" text-anchor="middle" x="1134.12" y="-118.5" font-family="Helvetica,sans-Serif" font-size="10.00">sys/stat.h</text>
</a>
</g>
</g>
<!-- Node1&#45;&gt;Node21 -->
<g id="edge30_Node000001_Node000021" class="edge">
<title>Node1&#45;&gt;Node21</title>
<g id="a_edge30_Node000001_Node000021"><a xlink:title=" ">
<path fill="none" stroke="#63b8ff" d="M711.94,-174.91C779.24,-170.07 944.57,-156.72 1092.86,-132.2"/>
<polygon fill="#63b8ff" stroke="#63b8ff" points="1093.19,-135.69 1102.47,-130.58 1092.03,-128.79 1093.19,-135.69"/>
</a>
</g>
</g>
<!-- Node3 -->
<g id="Node000003" class="node">
<title>Node3</title>
<g id="a_Node000003"><a xlink:title=" ">
<polygon fill="#e0e0e0" stroke="#999999" points="361.12,-20 321.12,-20 321.12,0 361.12,0 361.12,-20"/>
<text xml:space="preserve" text-anchor="middle" x="341.12" y="-6.5" font-family="Helvetica,sans-Serif" font-size="10.00">string</text>
</a>
</g>
</g>
<!-- Node2&#45;&gt;Node3 -->
<g id="edge2_Node000002_Node000003" class="edge">
<title>Node2&#45;&gt;Node3</title>
<g id="a_edge2_Node000002_Node000003"><a xlink:title=" ">
<path fill="none" stroke="#63b8ff" d="M173.48,-55.59C211.92,-45.37 272.78,-29.18 309.63,-19.38"/>
<polygon fill="#63b8ff" stroke="#63b8ff" points="310.46,-22.78 319.23,-16.82 308.66,-16.01 310.46,-22.78"/>
</a>
</g>
</g>
<!-- Node4 -->
<g id="Node000004" class="node">
<title>Node4</title>
<g id="a_Node000004"><a xlink:title=" ">
<polygon fill="#e0e0e0" stroke="#999999" points="170.88,-20 105.38,-20 105.38,0 170.88,0 170.88,-20"/>
<text xml:space="preserve" text-anchor="middle" x="138.12" y="-6.5" font-family="Helvetica,sans-Serif" font-size="10.00">string_view</text>
</a>
</g>
</g>
<!-- Node2&#45;&gt;Node4 -->
<g id="edge3_Node000002_Node000004" class="edge">
<title>Node2&#45;&gt;Node4</title>
<g id="a_edge3_Node000002_Node000004"><a xlink:title=" ">
<path fill="none" stroke="#63b8ff" d="M138.12,-55.59C138.12,-49.01 138.12,-39.96 138.12,-31.73"/>
<polygon fill="#63b8ff" stroke="#63b8ff" points="141.63,-31.81 138.13,-21.81 134.63,-31.81 141.63,-31.81"/>
</a>
</g>
</g>
<!-- Node5&#45;&gt;Node3 -->
<g id="edge5_Node000005_Node000003" class="edge">
<title>Node5&#45;&gt;Node3</title>
<g id="a_edge5_Node000005_Node000003"><a xlink:title=" ">
<path fill="none" stroke="#63b8ff" d="M78.67,-57.55C81.53,-57.02 84.37,-56.5 87.12,-56 167.14,-41.41 261.46,-24.87 309.51,-16.5"/>
<polygon fill="#63b8ff" stroke="#63b8ff" points="309.96,-19.97 319.21,-14.81 308.76,-13.08 309.96,-19.97"/>
</a>
</g>
</g>
<!-- Node5&#45;&gt;Node4 -->
<g id="edge6_Node000005_Node000004" class="edge">
<title>Node5&#45;&gt;Node4</title>
<g id="a_edge6_Node000005_Node000004"><a xlink:title=" ">
<path fill="none" stroke="#63b8ff" d="M56.37,-55.59C71.47,-47.36 93.65,-35.26 111.11,-25.74"/>
<polygon fill="#63b8ff" stroke="#63b8ff" points="112.31,-29.07 119.42,-21.2 108.96,-22.92 112.31,-29.07"/>
</a>
</g>
</g>
<!-- Node6&#45;&gt;Node3 -->
<g id="edge8_Node000006_Node000003" class="edge">
<title>Node6&#45;&gt;Node3</title>
<g id="a_edge8_Node000006_Node000003"><a xlink:title=" ">
<path fill="none" stroke="#63b8ff" d="M396.46,-111.62C396.56,-98.47 395.31,-74.13 386.12,-56 380.64,-45.17 371.58,-35.35 363.02,-27.67"/>
<polygon fill="#63b8ff" stroke="#63b8ff" points="365.52,-25.2 355.61,-21.45 361.02,-30.56 365.52,-25.2"/>
</a>
</g>
</g>
<!-- Node6&#45;&gt;Node4 -->
<g id="edge9_Node000006_Node000004" class="edge">
<title>Node6&#45;&gt;Node4</title>
<g id="a_edge9_Node000006_Node000004"><a xlink:title=" ">
<path fill="none" stroke="#63b8ff" d="M392.72,-111.79C386.93,-97.44 373.72,-69.98 353.12,-56 301.89,-21.23 229.16,-12.46 182.81,-10.7"/>
<polygon fill="#63b8ff" stroke="#63b8ff" points="182.94,-7.2 172.85,-10.43 182.75,-14.2 182.94,-7.2"/>
</a>
</g>
</g>
<!-- Node7 -->
<g id="Node000007" class="node">
<title>Node7</title>
<g id="a_Node000007"><a xlink:title=" ">
<polygon fill="#e0e0e0" stroke="#999999" points="343.62,-76 300.62,-76 300.62,-56 343.62,-56 343.62,-76"/>
<text xml:space="preserve" text-anchor="middle" x="322.12" y="-62.5" font-family="Helvetica,sans-Serif" font-size="10.00">vector</text>
</a>
</g>
</g>
<!-- Node6&#45;&gt;Node7 -->
<g id="edge10_Node000006_Node000007" class="edge">
<title>Node6&#45;&gt;Node7</title>
<g id="a_edge10_Node000006_Node000007"><a xlink:title=" ">
<path fill="none" stroke="#63b8ff" d="M383.24,-111.59C372.41,-103.7 356.71,-92.24 343.94,-82.92"/>
<polygon fill="#63b8ff" stroke="#63b8ff" points="346.23,-80.26 336.09,-77.19 342.1,-85.91 346.23,-80.26"/>
</a>
</g>
</g>
<!-- Node8 -->
<g id="Node000008" class="node">
<title>Node8</title>
<g id="a_Node000008"><a xlink:title=" ">
<polygon fill="#e0e0e0" stroke="#999999" points="488,-76 438.25,-76 438.25,-56 488,-56 488,-76"/>
<text xml:space="preserve" text-anchor="middle" x="463.12" y="-62.5" font-family="Helvetica,sans-Serif" font-size="10.00">optional</text>
</a>
</g>
</g>
<!-- Node6&#45;&gt;Node8 -->
<g id="edge11_Node000006_Node000008" class="edge">
<title>Node6&#45;&gt;Node8</title>
<g id="a_edge11_Node000006_Node000008"><a xlink:title=" ">
<path fill="none" stroke="#63b8ff" d="M407.8,-111.59C417.4,-103.85 431.25,-92.69 442.69,-83.47"/>
<polygon fill="#63b8ff" stroke="#63b8ff" points="444.82,-86.25 450.41,-77.25 440.43,-80.8 444.82,-86.25"/>
</a>
</g>
</g>
<!-- Node9&#45;&gt;Node3 -->
<g id="edge13_Node000009_Node000003" class="edge">
<title>Node9&#45;&gt;Node3</title>
<g id="a_edge13_Node000009_Node000003"><a xlink:title=" ">
<path fill="none" stroke="#63b8ff" d="M500.35,-111.51C504.38,-97.77 509.34,-72.23 497.12,-56 482.2,-36.16 413.98,-22.32 372.86,-15.62"/>
<polygon fill="#63b8ff" stroke="#63b8ff" points="373.47,-12.17 363.04,-14.07 372.38,-19.08 373.47,-12.17"/>
</a>
</g>
</g>
<!-- Node9&#45;&gt;Node10 -->
<g id="edge14_Node000009_Node000010" class="edge">
<title>Node9&#45;&gt;Node10</title>
<g id="a_edge14_Node000009_Node000010"><a xlink:title=" ">
<path fill="none" stroke="#63b8ff" d="M510.71,-111.59C522.16,-103.67 538.79,-92.16 552.28,-82.82"/>
<polygon fill="#63b8ff" stroke="#63b8ff" points="553.96,-85.91 560.19,-77.34 549.97,-80.16 553.96,-85.91"/>
</a>
</g>
</g>
<!-- Node11&#45;&gt;Node2 -->
<g id="edge16_Node000011_Node000002" class="edge">
<title>Node11&#45;&gt;Node2</title>
<g id="a_edge16_Node000011_Node000002"><a xlink:title=" ">
<path fill="none" stroke="#63b8ff" d="M248.78,-111.59C227.59,-103.05 196.06,-90.35 172.07,-80.68"/>
<polygon fill="#63b8ff" stroke="#63b8ff" points="173.64,-77.54 163.05,-77.05 171.02,-84.03 173.64,-77.54"/>
</a>
</g>
</g>
<!-- Node11&#45;&gt;Node3 -->
<g id="edge17_Node000011_Node000003" class="edge">
<title>Node11&#45;&gt;Node3</title>
<g id="a_edge17_Node000011_Node000003"><a xlink:title=" ">
<path fill="none" stroke="#63b8ff" d="M273.44,-111.52C275.62,-98.25 280.9,-73.77 292.12,-56 299.06,-45.01 309.37,-34.99 318.74,-27.21"/>
<polygon fill="#63b8ff" stroke="#63b8ff" points="320.74,-30.08 326.45,-21.16 316.42,-24.58 320.74,-30.08"/>
</a>
</g>
</g>
<!-- Node11&#45;&gt;Node7 -->
<g id="edge18_Node000011_Node000007" class="edge">
<title>Node11&#45;&gt;Node7</title>
<g id="a_edge18_Node000011_Node000007"><a xlink:title=" ">
<path fill="none" stroke="#63b8ff" d="M280.83,-111.59C287.72,-104.16 297.52,-93.58 305.84,-84.58"/>
<polygon fill="#63b8ff" stroke="#63b8ff" points="308.26,-87.12 312.49,-77.41 303.12,-82.37 308.26,-87.12"/>
</a>
</g>
</g>
<!-- Node12 -->
<g id="Node000012" class="node">
<title>Node12</title>
<g id="a_Node000012"><a xlink:title=" ">
<polygon fill="#e0e0e0" stroke="#999999" points="243.75,-76 198.5,-76 198.5,-56 243.75,-56 243.75,-76"/>
<text xml:space="preserve" text-anchor="middle" x="221.12" y="-62.5" font-family="Helvetica,sans-Serif" font-size="10.00">cstdint</text>
</a>
</g>
</g>
<!-- Node11&#45;&gt;Node12 -->
<g id="edge19_Node000011_Node000012" class="edge">
<title>Node11&#45;&gt;Node12</title>
<g id="a_edge19_Node000011_Node000012"><a xlink:title=" ">
<path fill="none" stroke="#63b8ff" d="M263.24,-111.59C256.22,-104.16 246.22,-93.58 237.73,-84.58"/>
<polygon fill="#63b8ff" stroke="#63b8ff" points="240.36,-82.27 230.95,-77.4 235.27,-87.07 240.36,-82.27"/>
</a>
</g>
</g>
<!-- Node13&#45;&gt;Node3 -->
<g id="edge22_Node000013_Node000003" class="edge">
<title>Node13&#45;&gt;Node3</title>
<g id="a_edge22_Node000013_Node000003"><a xlink:title=" ">
<path fill="none" stroke="#63b8ff" d="M638.55,-111.81C637.13,-97.5 632.2,-70.09 615.12,-56 578.62,-25.88 436.93,-15.49 372.88,-12.28"/>
<polygon fill="#63b8ff" stroke="#63b8ff" points="373.18,-8.79 363.02,-11.82 372.85,-15.79 373.18,-8.79"/>
</a>
</g>
</g>
<!-- Node14 -->
<g id="Node000014" class="node">
<title>Node14</title>
<g id="a_Node000014"><a xlink:title=" ">
<polygon fill="#e0e0e0" stroke="#999999" points="715.88,-76 662.38,-76 662.38,-56 715.88,-56 715.88,-76"/>
<text xml:space="preserve" text-anchor="middle" x="689.12" y="-62.5" font-family="Helvetica,sans-Serif" font-size="10.00">iostream</text>
</a>
</g>
</g>
<!-- Node13&#45;&gt;Node14 -->
<g id="edge21_Node000013_Node000014" class="edge">
<title>Node13&#45;&gt;Node14</title>
<g id="a_edge21_Node000013_Node000014"><a xlink:title=" ">
<path fill="none" stroke="#63b8ff" d="M647.83,-111.59C654.72,-104.16 664.52,-93.58 672.84,-84.58"/>
<polygon fill="#63b8ff" stroke="#63b8ff" points="675.26,-87.12 679.49,-77.41 670.12,-82.37 675.26,-87.12"/>
</a>
</g>
</g>
</g>
</svg>
