<?xml version="1.0" encoding="UTF-8" standalone="no"?>
<!DOCTYPE svg PUBLIC "-//W3C//DTD SVG 1.1//EN"
 "http://www.w3.org/Graphics/SVG/1.1/DTD/svg11.dtd">
<!-- Generated by graphviz version 14.0.2 (20251019.1705)
 -->
<!-- Title: FileSystemWatcher.h Pages: 1 -->
<svg width="440pt" height="84pt"
 viewBox="0.00 0.00 440.00 84.00" xmlns="http://www.w3.org/2000/svg" xmlns:xlink="http://www.w3.org/1999/xlink">
<g id="graph0" class="graph" transform="scale(1 1) rotate(0) translate(4 80)">
<title>FileSystemWatcher.h</title>
<!-- Node1 -->
<g id="Node000001" class="node">
<title>Node1</title>
<g id="a_Node000001"><a xlink:title=" ">
<polygon fill="#999999" stroke="#666666" points="279.88,-76 170.12,-76 170.12,-56 279.88,-56 279.88,-76"/>
<text xml:space="preserve" text-anchor="middle" x="225" y="-62.5" font-family="Helvetica,sans-Serif" font-size="10.00">FileSystemWatcher.h</text>
</a>
</g>
</g>
<!-- Node2 -->
<g id="Node000002" class="node">
<title>Node2</title>
<g id="a_Node000002"><a xlink:title=" ">
<polygon fill="#e0e0e0" stroke="#999999" points="40,-20 0,-20 0,0 40,0 40,-20"/>
<text xml:space="preserve" text-anchor="middle" x="20" y="-6.5" font-family="Helvetica,sans-Serif" font-size="10.00">string</text>
</a>
</g>
</g>
<!-- Node1&#45;&gt;Node2 -->
<g id="edge1_Node000001_Node000002" class="edge">
<title>Node1&#45;&gt;Node2</title>
<g id="a_edge1_Node000001_Node000002"><a xlink:title=" ">
<path fill="none" stroke="#63b8ff" d="M185.7,-55.56C152.31,-47.4 102.85,-35 51.28,-20.54"/>
<polygon fill="#63b8ff" stroke="#63b8ff" points="52.27,-17.19 41.7,-17.84 50.37,-23.92 52.27,-17.19"/>
</a>
</g>
</g>
<!-- Node3 -->
<g id="Node000003" class="node">
<title>Node3</title>
<g id="a_Node000003"><a xlink:title=" ">
<polygon fill="#e0e0e0" stroke="#999999" points="116,-20 58,-20 58,0 116,0 116,-20"/>
<text xml:space="preserve" text-anchor="middle" x="87" y="-6.5" font-family="Helvetica,sans-Serif" font-size="10.00">functional</text>
</a>
</g>
</g>
<!-- Node1&#45;&gt;Node3 -->
<g id="edge2_Node000001_Node000003" class="edge">
<title>Node1&#45;&gt;Node3</title>
<g id="a_edge2_Node000001_Node000003"><a xlink:title=" ">
<path fill="none" stroke="#63b8ff" d="M200.96,-55.59C179.03,-47.01 146.37,-34.23 121.63,-24.55"/>
<polygon fill="#63b8ff" stroke="#63b8ff" points="123.22,-21.42 112.63,-21.03 120.67,-27.93 123.22,-21.42"/>
</a>
</g>
</g>
<!-- Node4 -->
<g id="Node000004" class="node">
<title>Node4</title>
<g id="a_Node000004"><a xlink:title=" ">
<polygon fill="#e0e0e0" stroke="#999999" points="185.62,-20 134.38,-20 134.38,0 185.62,0 185.62,-20"/>
<text xml:space="preserve" text-anchor="middle" x="160" y="-6.5" font-family="Helvetica,sans-Serif" font-size="10.00">memory</text>
</a>
</g>
</g>
<!-- Node1&#45;&gt;Node4 -->
<g id="edge3_Node000001_Node000004" class="edge">
<title>Node1&#45;&gt;Node4</title>
<g id="a_edge3_Node000001_Node000004"><a xlink:title=" ">
<path fill="none" stroke="#63b8ff" d="M213.68,-55.59C204.36,-47.85 190.92,-36.69 179.82,-27.47"/>
<polygon fill="#63b8ff" stroke="#63b8ff" points="182.29,-24.96 172.36,-21.27 177.81,-30.35 182.29,-24.96"/>
</a>
</g>
</g>
<!-- Node5 -->
<g id="Node000005" class="node">
<title>Node5</title>
<g id="a_Node000005"><a xlink:title=" ">
<polygon fill="#e0e0e0" stroke="#999999" points="246.5,-20 203.5,-20 203.5,0 246.5,0 246.5,-20"/>
<text xml:space="preserve" text-anchor="middle" x="225" y="-6.5" font-family="Helvetica,sans-Serif" font-size="10.00">vector</text>
</a>
</g>
</g>
<!-- Node1&#45;&gt;Node5 -->
<g id="edge4_Node000001_Node000005" class="edge">
<title>Node1&#45;&gt;Node5</title>
<g id="a_edge4_Node000001_Node000005"><a xlink:title=" ">
<path fill="none" stroke="#63b8ff" d="M225,-55.59C225,-49.01 225,-39.96 225,-31.73"/>
<polygon fill="#63b8ff" stroke="#63b8ff" points="228.5,-31.81 225,-21.81 221.5,-31.81 228.5,-31.81"/>
</a>
</g>
</g>
<!-- Node6 -->
<g id="Node000006" class="node">
<title>Node6</title>
<g id="a_Node000006"><a xlink:title=" ">
<polygon fill="#e0e0e0" stroke="#999999" points="307.5,-20 264.5,-20 264.5,0 307.5,0 307.5,-20"/>
<text xml:space="preserve" text-anchor="middle" x="286" y="-6.5" font-family="Helvetica,sans-Serif" font-size="10.00">thread</text>
</a>
</g>
</g>
<!-- Node1&#45;&gt;Node6 -->
<g id="edge5_Node000001_Node000006" class="edge">
<title>Node1&#45;&gt;Node6</title>
<g id="a_edge5_Node000001_Node000006"><a xlink:title=" ">
<path fill="none" stroke="#63b8ff" d="M235.63,-55.59C244.28,-47.93 256.73,-36.91 267.08,-27.75"/>
<polygon fill="#63b8ff" stroke="#63b8ff" points="269.2,-30.55 274.36,-21.3 264.56,-25.31 269.2,-30.55"/>
</a>
</g>
</g>
<!-- Node7 -->
<g id="Node000007" class="node">
<title>Node7</title>
<g id="a_Node000007"><a xlink:title=" ">
<polygon fill="#e0e0e0" stroke="#999999" points="370.62,-20 325.38,-20 325.38,0 370.62,0 370.62,-20"/>
<text xml:space="preserve" text-anchor="middle" x="348" y="-6.5" font-family="Helvetica,sans-Serif" font-size="10.00">atomic</text>
</a>
</g>
</g>
<!-- Node1&#45;&gt;Node7 -->
<g id="edge6_Node000001_Node000007" class="edge">
<title>Node1&#45;&gt;Node7</title>
<g id="a_edge6_Node000001_Node000007"><a xlink:title=" ">
<path fill="none" stroke="#63b8ff" d="M246.42,-55.59C265.62,-47.17 294.04,-34.69 315.94,-25.07"/>
<polygon fill="#63b8ff" stroke="#63b8ff" points="317.27,-28.31 325.02,-21.09 314.46,-21.9 317.27,-28.31"/>
</a>
</g>
</g>
<!-- Node8 -->
<g id="Node000008" class="node">
<title>Node8</title>
<g id="a_Node000008"><a xlink:title=" ">
<polygon fill="#e0e0e0" stroke="#999999" points="431.5,-20 388.5,-20 388.5,0 431.5,0 431.5,-20"/>
<text xml:space="preserve" text-anchor="middle" x="410" y="-6.5" font-family="Helvetica,sans-Serif" font-size="10.00">mutex</text>
</a>
</g>
</g>
<!-- Node1&#45;&gt;Node8 -->
<g id="edge7_Node000001_Node000008" class="edge">
<title>Node1&#45;&gt;Node8</title>
<g id="a_edge7_Node000001_Node000008"><a xlink:title=" ">
<path fill="none" stroke="#63b8ff" d="M257.98,-55.52C287.11,-47.12 331.01,-34.42 377.22,-20.81"/>
<polygon fill="#63b8ff" stroke="#63b8ff" points="378,-24.22 386.6,-18.04 376.02,-17.51 378,-24.22"/>
</a>
</g>
</g>
</g>
</svg>
