<?xml version="1.0" encoding="UTF-8" standalone="no"?>
<!DOCTYPE svg PUBLIC "-//W3C//DTD SVG 1.1//EN"
 "http://www.w3.org/Graphics/SVG/1.1/DTD/svg11.dtd">
<!-- Generated by graphviz version 14.0.2 (20251019.1705)
 -->
<!-- Title: FileSystemWatcher.cpp Pages: 1 -->
<svg width="825pt" height="140pt"
 viewBox="0.00 0.00 825.00 140.00" xmlns="http://www.w3.org/2000/svg" xmlns:xlink="http://www.w3.org/1999/xlink">
<g id="graph0" class="graph" transform="scale(1 1) rotate(0) translate(4 136)">
<title>FileSystemWatcher.cpp</title>
<!-- Node1 -->
<g id="Node000001" class="node">
<title>Node1</title>
<g id="a_Node000001"><a xlink:title=" ">
<polygon fill="#999999" stroke="#666666" points="634.12,-132 513.88,-132 513.88,-112 634.12,-112 634.12,-132"/>
<text xml:space="preserve" text-anchor="middle" x="574" y="-118.5" font-family="Helvetica,sans-Serif" font-size="10.00">FileSystemWatcher.cpp</text>
</a>
</g>
</g>
<!-- Node2 -->
<g id="Node000002" class="node">
<title>Node2</title>
<g id="a_Node000002"><a xlink:href="FileSystemWatcher_8h.html" target="_top" xlink:title=" ">
<polygon fill="white" stroke="#666666" points="331.25,-76 166.75,-76 166.75,-56 331.25,-56 331.25,-76"/>
<text xml:space="preserve" text-anchor="middle" x="249" y="-62.5" font-family="Helvetica,sans-Serif" font-size="10.00">LGE/assets/FileSystemWatcher.h</text>
</a>
</g>
</g>
<!-- Node1&#45;&gt;Node2 -->
<g id="edge1_Node000001_Node000002" class="edge">
<title>Node1&#45;&gt;Node2</title>
<g id="a_edge1_Node000001_Node000002"><a xlink:title=" ">
<path fill="none" stroke="#63b8ff" d="M517.02,-111.53C461.26,-102.27 376.31,-88.15 317.04,-78.31"/>
<polygon fill="#63b8ff" stroke="#63b8ff" points="317.85,-74.89 307.41,-76.71 316.7,-81.8 317.85,-74.89"/>
</a>
</g>
</g>
<!-- Node10 -->
<g id="Node000010" class="node">
<title>Node10</title>
<g id="a_Node000010"><a xlink:href="Log_8h.html" target="_top" xlink:title=" ">
<polygon fill="white" stroke="#666666" points="454.12,-76 369.88,-76 369.88,-56 454.12,-56 454.12,-76"/>
<text xml:space="preserve" text-anchor="middle" x="412" y="-62.5" font-family="Helvetica,sans-Serif" font-size="10.00">LGE/core/Log.h</text>
</a>
</g>
</g>
<!-- Node1&#45;&gt;Node10 -->
<g id="edge9_Node000001_Node000010" class="edge">
<title>Node1&#45;&gt;Node10</title>
<g id="a_edge9_Node000001_Node000010"><a xlink:title=" ">
<path fill="none" stroke="#63b8ff" d="M545.78,-111.59C519.58,-102.86 480.32,-89.77 451.1,-80.03"/>
<polygon fill="#63b8ff" stroke="#63b8ff" points="452.47,-76.8 441.87,-76.96 450.25,-83.44 452.47,-76.8"/>
</a>
</g>
</g>
<!-- Node12 -->
<g id="Node000012" class="node">
<title>Node12</title>
<g id="a_Node000012"><a xlink:title=" ">
<polygon fill="#e0e0e0" stroke="#999999" points="533.5,-76 472.5,-76 472.5,-56 533.5,-56 533.5,-76"/>
<text xml:space="preserve" text-anchor="middle" x="503" y="-62.5" font-family="Helvetica,sans-Serif" font-size="10.00">filesystem</text>
</a>
</g>
</g>
<!-- Node1&#45;&gt;Node12 -->
<g id="edge12_Node000001_Node000012" class="edge">
<title>Node1&#45;&gt;Node12</title>
<g id="a_edge12_Node000001_Node000012"><a xlink:title=" ">
<path fill="none" stroke="#63b8ff" d="M561.63,-111.59C551.35,-103.77 536.48,-92.46 524.29,-83.19"/>
<polygon fill="#63b8ff" stroke="#63b8ff" points="526.51,-80.48 516.43,-77.21 522.27,-86.05 526.51,-80.48"/>
</a>
</g>
</g>
<!-- Node13 -->
<g id="Node000013" class="node">
<title>Node13</title>
<g id="a_Node000013"><a xlink:title=" ">
<polygon fill="#e0e0e0" stroke="#999999" points="596.62,-76 551.38,-76 551.38,-56 596.62,-56 596.62,-76"/>
<text xml:space="preserve" text-anchor="middle" x="574" y="-62.5" font-family="Helvetica,sans-Serif" font-size="10.00">chrono</text>
</a>
</g>
</g>
<!-- Node1&#45;&gt;Node13 -->
<g id="edge13_Node000001_Node000013" class="edge">
<title>Node1&#45;&gt;Node13</title>
<g id="a_edge13_Node000001_Node000013"><a xlink:title=" ">
<path fill="none" stroke="#63b8ff" d="M574,-111.59C574,-105.01 574,-95.96 574,-87.73"/>
<polygon fill="#63b8ff" stroke="#63b8ff" points="577.5,-87.81 574,-77.81 570.5,-87.81 577.5,-87.81"/>
</a>
</g>
</g>
<!-- Node14 -->
<g id="Node000014" class="node">
<title>Node14</title>
<g id="a_Node000014"><a xlink:title=" ">
<polygon fill="#e0e0e0" stroke="#999999" points="670.88,-76 615.12,-76 615.12,-56 670.88,-56 670.88,-76"/>
<text xml:space="preserve" text-anchor="middle" x="643" y="-62.5" font-family="Helvetica,sans-Serif" font-size="10.00">algorithm</text>
</a>
</g>
</g>
<!-- Node1&#45;&gt;Node14 -->
<g id="edge14_Node000001_Node000014" class="edge">
<title>Node1&#45;&gt;Node14</title>
<g id="a_edge14_Node000001_Node000014"><a xlink:title=" ">
<path fill="none" stroke="#63b8ff" d="M586.02,-111.59C596.01,-103.77 610.46,-92.46 622.31,-83.19"/>
<polygon fill="#63b8ff" stroke="#63b8ff" points="624.21,-86.15 629.93,-77.23 619.89,-80.64 624.21,-86.15"/>
</a>
</g>
</g>
<!-- Node15 -->
<g id="Node000015" class="node">
<title>Node15</title>
<g id="a_Node000015"><a xlink:title=" ">
<polygon fill="#e0e0e0" stroke="#999999" points="748.75,-76 689.25,-76 689.25,-56 748.75,-56 748.75,-76"/>
<text xml:space="preserve" text-anchor="middle" x="719" y="-62.5" font-family="Helvetica,sans-Serif" font-size="10.00">sys/stat.h</text>
</a>
</g>
</g>
<!-- Node1&#45;&gt;Node15 -->
<g id="edge15_Node000001_Node000015" class="edge">
<title>Node1&#45;&gt;Node15</title>
<g id="a_edge15_Node000001_Node000015"><a xlink:title=" ">
<path fill="none" stroke="#63b8ff" d="M599.26,-111.59C622.4,-102.97 656.92,-90.12 682.96,-80.42"/>
<polygon fill="#63b8ff" stroke="#63b8ff" points="683.98,-83.78 692.13,-77.01 681.53,-77.22 683.98,-83.78"/>
</a>
</g>
</g>
<!-- Node16 -->
<g id="Node000016" class="node">
<title>Node16</title>
<g id="a_Node000016"><a xlink:title=" ">
<polygon fill="#e0e0e0" stroke="#999999" points="817.25,-76 766.75,-76 766.75,-56 817.25,-56 817.25,-76"/>
<text xml:space="preserve" text-anchor="middle" x="792" y="-62.5" font-family="Helvetica,sans-Serif" font-size="10.00">unistd.h</text>
</a>
</g>
</g>
<!-- Node1&#45;&gt;Node16 -->
<g id="edge16_Node000001_Node000016" class="edge">
<title>Node1&#45;&gt;Node16</title>
<g id="a_edge16_Node000001_Node000016"><a xlink:title=" ">
<path fill="none" stroke="#63b8ff" d="M613.54,-111.56C648.5,-103.16 701.18,-90.38 755.51,-76.6"/>
<polygon fill="#63b8ff" stroke="#63b8ff" points="756.1,-80.06 764.93,-74.21 754.37,-73.28 756.1,-80.06"/>
</a>
</g>
</g>
<!-- Node3 -->
<g id="Node000003" class="node">
<title>Node3</title>
<g id="a_Node000003"><a xlink:title=" ">
<polygon fill="#e0e0e0" stroke="#999999" points="432,-20 392,-20 392,0 432,0 432,-20"/>
<text xml:space="preserve" text-anchor="middle" x="412" y="-6.5" font-family="Helvetica,sans-Serif" font-size="10.00">string</text>
</a>
</g>
</g>
<!-- Node2&#45;&gt;Node3 -->
<g id="edge2_Node000002_Node000003" class="edge">
<title>Node2&#45;&gt;Node3</title>
<g id="a_edge2_Node000002_Node000003"><a xlink:title=" ">
<path fill="none" stroke="#63b8ff" d="M277.39,-55.59C306.35,-46 351.14,-31.16 381,-21.27"/>
<polygon fill="#63b8ff" stroke="#63b8ff" points="381.83,-24.68 390.22,-18.22 379.62,-18.04 381.83,-24.68"/>
</a>
</g>
</g>
<!-- Node4 -->
<g id="Node000004" class="node">
<title>Node4</title>
<g id="a_Node000004"><a xlink:title=" ">
<polygon fill="#e0e0e0" stroke="#999999" points="58,-20 0,-20 0,0 58,0 58,-20"/>
<text xml:space="preserve" text-anchor="middle" x="29" y="-6.5" font-family="Helvetica,sans-Serif" font-size="10.00">functional</text>
</a>
</g>
</g>
<!-- Node2&#45;&gt;Node4 -->
<g id="edge3_Node000002_Node000004" class="edge">
<title>Node2&#45;&gt;Node4</title>
<g id="a_edge3_Node000002_Node000004"><a xlink:title=" ">
<path fill="none" stroke="#63b8ff" d="M210.43,-55.53C170.86,-45.82 109.58,-30.78 69.37,-20.91"/>
<polygon fill="#63b8ff" stroke="#63b8ff" points="70.39,-17.55 59.84,-18.57 68.72,-24.35 70.39,-17.55"/>
</a>
</g>
</g>
<!-- Node5 -->
<g id="Node000005" class="node">
<title>Node5</title>
<g id="a_Node000005"><a xlink:title=" ">
<polygon fill="#e0e0e0" stroke="#999999" points="127.62,-20 76.38,-20 76.38,0 127.62,0 127.62,-20"/>
<text xml:space="preserve" text-anchor="middle" x="102" y="-6.5" font-family="Helvetica,sans-Serif" font-size="10.00">memory</text>
</a>
</g>
</g>
<!-- Node2&#45;&gt;Node5 -->
<g id="edge4_Node000002_Node000005" class="edge">
<title>Node2&#45;&gt;Node5</title>
<g id="a_edge4_Node000002_Node000005"><a xlink:title=" ">
<path fill="none" stroke="#63b8ff" d="M223.39,-55.59C199.93,-46.97 164.93,-34.12 138.53,-24.42"/>
<polygon fill="#63b8ff" stroke="#63b8ff" points="139.82,-21.16 129.23,-21 137.41,-27.73 139.82,-21.16"/>
</a>
</g>
</g>
<!-- Node6 -->
<g id="Node000006" class="node">
<title>Node6</title>
<g id="a_Node000006"><a xlink:title=" ">
<polygon fill="#e0e0e0" stroke="#999999" points="188.5,-20 145.5,-20 145.5,0 188.5,0 188.5,-20"/>
<text xml:space="preserve" text-anchor="middle" x="167" y="-6.5" font-family="Helvetica,sans-Serif" font-size="10.00">vector</text>
</a>
</g>
</g>
<!-- Node2&#45;&gt;Node6 -->
<g id="edge5_Node000002_Node000006" class="edge">
<title>Node2&#45;&gt;Node6</title>
<g id="a_edge5_Node000002_Node000006"><a xlink:title=" ">
<path fill="none" stroke="#63b8ff" d="M234.72,-55.59C222.56,-47.59 204.86,-35.93 190.6,-26.54"/>
<polygon fill="#63b8ff" stroke="#63b8ff" points="192.94,-23.89 182.66,-21.31 189.09,-29.73 192.94,-23.89"/>
</a>
</g>
</g>
<!-- Node7 -->
<g id="Node000007" class="node">
<title>Node7</title>
<g id="a_Node000007"><a xlink:title=" ">
<polygon fill="#e0e0e0" stroke="#999999" points="249.5,-20 206.5,-20 206.5,0 249.5,0 249.5,-20"/>
<text xml:space="preserve" text-anchor="middle" x="228" y="-6.5" font-family="Helvetica,sans-Serif" font-size="10.00">thread</text>
</a>
</g>
</g>
<!-- Node2&#45;&gt;Node7 -->
<g id="edge6_Node000002_Node000007" class="edge">
<title>Node2&#45;&gt;Node7</title>
<g id="a_edge6_Node000002_Node000007"><a xlink:title=" ">
<path fill="none" stroke="#63b8ff" d="M245.34,-55.59C242.69,-48.78 239.01,-39.32 235.72,-30.86"/>
<polygon fill="#63b8ff" stroke="#63b8ff" points="239.05,-29.76 232.16,-21.71 232.53,-32.3 239.05,-29.76"/>
</a>
</g>
</g>
<!-- Node8 -->
<g id="Node000008" class="node">
<title>Node8</title>
<g id="a_Node000008"><a xlink:title=" ">
<polygon fill="#e0e0e0" stroke="#999999" points="312.62,-20 267.38,-20 267.38,0 312.62,0 312.62,-20"/>
<text xml:space="preserve" text-anchor="middle" x="290" y="-6.5" font-family="Helvetica,sans-Serif" font-size="10.00">atomic</text>
</a>
</g>
</g>
<!-- Node2&#45;&gt;Node8 -->
<g id="edge7_Node000002_Node000008" class="edge">
<title>Node2&#45;&gt;Node8</title>
<g id="a_edge7_Node000002_Node000008"><a xlink:title=" ">
<path fill="none" stroke="#63b8ff" d="M256.14,-55.59C261.61,-48.39 269.32,-38.23 276.01,-29.43"/>
<polygon fill="#63b8ff" stroke="#63b8ff" points="278.77,-31.58 282.02,-21.5 273.19,-27.35 278.77,-31.58"/>
</a>
</g>
</g>
<!-- Node9 -->
<g id="Node000009" class="node">
<title>Node9</title>
<g id="a_Node000009"><a xlink:title=" ">
<polygon fill="#e0e0e0" stroke="#999999" points="373.5,-20 330.5,-20 330.5,0 373.5,0 373.5,-20"/>
<text xml:space="preserve" text-anchor="middle" x="352" y="-6.5" font-family="Helvetica,sans-Serif" font-size="10.00">mutex</text>
</a>
</g>
</g>
<!-- Node2&#45;&gt;Node9 -->
<g id="edge8_Node000002_Node000009" class="edge">
<title>Node2&#45;&gt;Node9</title>
<g id="a_edge8_Node000002_Node000009"><a xlink:title=" ">
<path fill="none" stroke="#63b8ff" d="M266.94,-55.59C282.65,-47.36 305.73,-35.26 323.89,-25.74"/>
<polygon fill="#63b8ff" stroke="#63b8ff" points="325.35,-28.93 332.58,-21.18 322.1,-22.73 325.35,-28.93"/>
</a>
</g>
</g>
<!-- Node10&#45;&gt;Node3 -->
<g id="edge11_Node000010_Node000003" class="edge">
<title>Node10&#45;&gt;Node3</title>
<g id="a_edge11_Node000010_Node000003"><a xlink:title=" ">
<path fill="none" stroke="#63b8ff" d="M412,-55.59C412,-49.01 412,-39.96 412,-31.73"/>
<polygon fill="#63b8ff" stroke="#63b8ff" points="415.5,-31.81 412,-21.81 408.5,-31.81 415.5,-31.81"/>
</a>
</g>
</g>
<!-- Node11 -->
<g id="Node000011" class="node">
<title>Node11</title>
<g id="a_Node000011"><a xlink:title=" ">
<polygon fill="#e0e0e0" stroke="#999999" points="503.75,-20 450.25,-20 450.25,0 503.75,0 503.75,-20"/>
<text xml:space="preserve" text-anchor="middle" x="477" y="-6.5" font-family="Helvetica,sans-Serif" font-size="10.00">iostream</text>
</a>
</g>
</g>
<!-- Node10&#45;&gt;Node11 -->
<g id="edge10_Node000010_Node000011" class="edge">
<title>Node10&#45;&gt;Node11</title>
<g id="a_edge10_Node000010_Node000011"><a xlink:title=" ">
<path fill="none" stroke="#63b8ff" d="M423.32,-55.59C432.64,-47.85 446.08,-36.69 457.18,-27.47"/>
<polygon fill="#63b8ff" stroke="#63b8ff" points="459.19,-30.35 464.64,-21.27 454.71,-24.96 459.19,-30.35"/>
</a>
</g>
</g>
</g>
</svg>
