<?xml version="1.0" encoding="UTF-8" standalone="no"?>
<!DOCTYPE svg PUBLIC "-//W3C//DTD SVG 1.1//EN"
 "http://www.w3.org/Graphics/SVG/1.1/DTD/svg11.dtd">
<!-- Generated by graphviz version 14.0.2 (20251019.1705)
 -->
<!-- Title: FileIO.h Pages: 1 -->
<svg width="2187pt" height="140pt"
 viewBox="0.00 0.00 2187.00 140.00" xmlns="http://www.w3.org/2000/svg" xmlns:xlink="http://www.w3.org/1999/xlink">
<g id="graph0" class="graph" transform="scale(1 1) rotate(0) translate(4 136)">
<title>FileIO.h</title>
<!-- Node1 -->
<g id="Node000001" class="node">
<title>Node1</title>
<g id="a_Node000001"><a xlink:title=" ">
<polygon fill="#999999" stroke="#666666" points="1052.88,-132 1002.38,-132 1002.38,-112 1052.88,-112 1052.88,-132"/>
<text xml:space="preserve" text-anchor="middle" x="1027.62" y="-118.5" font-family="Helvetica,sans-Serif" font-size="10.00">FileIO.h</text>
</a>
</g>
</g>
<!-- Node2 -->
<g id="Node000002" class="node">
<title>Node2</title>
<g id="a_Node000002"><a xlink:href="Analytics_8cpp.html" target="_top" xlink:title=" ">
<polygon fill="white" stroke="#666666" points="75.25,-20 0,-20 0,0 75.25,0 75.25,-20"/>
<text xml:space="preserve" text-anchor="middle" x="37.62" y="-6.5" font-family="Helvetica,sans-Serif" font-size="10.00">Analytics.cpp</text>
</a>
</g>
</g>
<!-- Node1&#45;&gt;Node2 -->
<g id="edge1_Node000001_Node000002" class="edge">
<title>Node1&#45;&gt;Node2</title>
<g id="a_edge1_Node000001_Node000002"><a xlink:title=" ">
<path fill="none" stroke="#63b8ff" d="M991.01,-120.58C830.96,-118.54 197.1,-108.48 114.62,-76 84.35,-64.08 57.42,-35.17 44.96,-20.25"/>
<polygon fill="#63b8ff" stroke="#63b8ff" points="990.56,-124.07 1000.61,-120.7 990.65,-117.07 990.56,-124.07"/>
</a>
</g>
</g>
<!-- Node3 -->
<g id="Node000003" class="node">
<title>Node3</title>
<g id="a_Node000003"><a xlink:href="AssetRegistry_8cpp.html" target="_top" xlink:title=" ">
<polygon fill="white" stroke="#666666" points="407.75,-76 311.5,-76 311.5,-56 407.75,-56 407.75,-76"/>
<text xml:space="preserve" text-anchor="middle" x="359.62" y="-62.5" font-family="Helvetica,sans-Serif" font-size="10.00">AssetRegistry.cpp</text>
</a>
</g>
</g>
<!-- Node1&#45;&gt;Node3 -->
<g id="edge2_Node000001_Node000003" class="edge">
<title>Node1&#45;&gt;Node3</title>
<g id="a_edge2_Node000001_Node000003"><a xlink:title=" ">
<path fill="none" stroke="#63b8ff" d="M990.7,-119.31C895.53,-114.74 634.14,-100.74 417.62,-76 414.49,-75.64 411.26,-75.24 408.01,-74.8"/>
<polygon fill="#63b8ff" stroke="#63b8ff" points="990.32,-122.8 1000.47,-119.78 990.65,-115.81 990.32,-122.8"/>
</a>
</g>
</g>
<!-- Node4 -->
<g id="Node000004" class="node">
<title>Node4</title>
<g id="a_Node000004"><a xlink:href="Backup_8cpp.html" target="_top" xlink:title=" ">
<polygon fill="white" stroke="#666666" points="161.5,-20 93.75,-20 93.75,0 161.5,0 161.5,-20"/>
<text xml:space="preserve" text-anchor="middle" x="127.62" y="-6.5" font-family="Helvetica,sans-Serif" font-size="10.00">Backup.cpp</text>
</a>
</g>
</g>
<!-- Node1&#45;&gt;Node4 -->
<g id="edge3_Node000001_Node000004" class="edge">
<title>Node1&#45;&gt;Node4</title>
<g id="a_edge3_Node000001_Node000004"><a xlink:title=" ">
<path fill="none" stroke="#63b8ff" d="M990.64,-120.56C824.85,-118.41 156.87,-107.79 126.62,-76 112.47,-61.12 118.95,-34.54 123.87,-20.42"/>
<polygon fill="#63b8ff" stroke="#63b8ff" points="990.57,-124.06 1000.61,-120.69 990.66,-117.06 990.57,-124.06"/>
</a>
</g>
</g>
<!-- Node5 -->
<g id="Node000005" class="node">
<title>Node5</title>
<g id="a_Node000005"><a xlink:href="BenchmarkFS_8cpp.html" target="_top" xlink:title=" ">
<polygon fill="white" stroke="#666666" points="523.12,-76 426.12,-76 426.12,-56 523.12,-56 523.12,-76"/>
<text xml:space="preserve" text-anchor="middle" x="474.62" y="-62.5" font-family="Helvetica,sans-Serif" font-size="10.00">BenchmarkFS.cpp</text>
</a>
</g>
</g>
<!-- Node1&#45;&gt;Node5 -->
<g id="edge4_Node000001_Node000005" class="edge">
<title>Node1&#45;&gt;Node5</title>
<g id="a_edge4_Node000001_Node000005"><a xlink:title=" ">
<path fill="none" stroke="#63b8ff" d="M990.58,-118.44C908.12,-112.56 703.27,-96.97 532.62,-76 529.59,-75.63 526.47,-75.22 523.33,-74.79"/>
<polygon fill="#63b8ff" stroke="#63b8ff" points="990.33,-121.93 1000.55,-119.14 990.82,-114.95 990.33,-121.93"/>
</a>
</g>
</g>
<!-- Node6 -->
<g id="Node000006" class="node">
<title>Node6</title>
<g id="a_Node000006"><a xlink:href="Bundles_8cpp.html" target="_top" xlink:title=" ">
<polygon fill="white" stroke="#666666" points="611.62,-76 541.62,-76 541.62,-56 611.62,-56 611.62,-76"/>
<text xml:space="preserve" text-anchor="middle" x="576.62" y="-62.5" font-family="Helvetica,sans-Serif" font-size="10.00">Bundles.cpp</text>
</a>
</g>
</g>
<!-- Node1&#45;&gt;Node6 -->
<g id="edge5_Node000001_Node000006" class="edge">
<title>Node1&#45;&gt;Node6</title>
<g id="a_edge5_Node000001_Node000006"><a xlink:title=" ">
<path fill="none" stroke="#63b8ff" d="M991.23,-118.1C919.87,-112.17 756.67,-97.39 620.62,-76 617.85,-75.56 614.99,-75.07 612.12,-74.55"/>
<polygon fill="#63b8ff" stroke="#63b8ff" points="990.51,-121.56 1000.77,-118.89 991.09,-114.58 990.51,-121.56"/>
</a>
</g>
</g>
<!-- Node7 -->
<g id="Node000007" class="node">
<title>Node7</title>
<g id="a_Node000007"><a xlink:href="Cache_8cpp.html" target="_top" xlink:title=" ">
<polygon fill="white" stroke="#666666" points="693.25,-76 630,-76 630,-56 693.25,-56 693.25,-76"/>
<text xml:space="preserve" text-anchor="middle" x="661.62" y="-62.5" font-family="Helvetica,sans-Serif" font-size="10.00">Cache.cpp</text>
</a>
</g>
</g>
<!-- Node1&#45;&gt;Node7 -->
<g id="edge6_Node000001_Node000007" class="edge">
<title>Node1&#45;&gt;Node7</title>
<g id="a_edge6_Node000001_Node000007"><a xlink:title=" ">
<path fill="none" stroke="#63b8ff" d="M991.04,-116.88C930.73,-109.89 806.71,-94.6 702.62,-76 699.61,-75.46 696.48,-74.86 693.36,-74.22"/>
<polygon fill="#63b8ff" stroke="#63b8ff" points="990.4,-120.33 1000.73,-118 991.2,-113.38 990.4,-120.33"/>
</a>
</g>
</g>
<!-- Node8 -->
<g id="Node000008" class="node">
<title>Node8</title>
<g id="a_Node000008"><a xlink:href="Compression_8cpp.html" target="_top" xlink:title=" ">
<polygon fill="white" stroke="#666666" points="271.88,-20 179.38,-20 179.38,0 271.88,0 271.88,-20"/>
<text xml:space="preserve" text-anchor="middle" x="225.62" y="-6.5" font-family="Helvetica,sans-Serif" font-size="10.00">Compression.cpp</text>
</a>
</g>
</g>
<!-- Node1&#45;&gt;Node8 -->
<g id="edge7_Node000001_Node000008" class="edge">
<title>Node1&#45;&gt;Node8</title>
<g id="a_edge7_Node000001_Node000008"><a xlink:title=" ">
<path fill="none" stroke="#63b8ff" d="M990.76,-120.22C850.9,-117.07 357.78,-104.04 293.62,-76 265.79,-63.83 242.51,-35.03 231.85,-20.19"/>
<polygon fill="#63b8ff" stroke="#63b8ff" points="990.48,-123.72 1000.55,-120.44 990.63,-116.72 990.48,-123.72"/>
</a>
</g>
</g>
<!-- Node9 -->
<g id="Node000009" class="node">
<title>Node9</title>
<g id="a_Node000009"><a xlink:href="Compression_8h.html" target="_top" xlink:title=" ">
<polygon fill="white" stroke="#666666" points="217.62,-76 135.62,-76 135.62,-56 217.62,-56 217.62,-76"/>
<text xml:space="preserve" text-anchor="middle" x="176.62" y="-62.5" font-family="Helvetica,sans-Serif" font-size="10.00">Compression.h</text>
</a>
</g>
</g>
<!-- Node1&#45;&gt;Node9 -->
<g id="edge8_Node000001_Node000009" class="edge">
<title>Node1&#45;&gt;Node9</title>
<g id="a_edge8_Node000001_Node000009"><a xlink:title=" ">
<path fill="none" stroke="#63b8ff" d="M990.67,-120.3C877.06,-117.85 523.01,-107.99 231.62,-76 227.2,-75.51 222.59,-74.91 218,-74.25"/>
<polygon fill="#63b8ff" stroke="#63b8ff" points="990.53,-123.8 1000.6,-120.51 990.67,-116.8 990.53,-123.8"/>
</a>
</g>
</g>
<!-- Node10 -->
<g id="Node000010" class="node">
<title>Node10</title>
<g id="a_Node000010"><a xlink:href="Optimization_8cpp.html" target="_top" xlink:title=" ">
<polygon fill="white" stroke="#666666" points="379.38,-20 289.88,-20 289.88,0 379.38,0 379.38,-20"/>
<text xml:space="preserve" text-anchor="middle" x="334.62" y="-6.5" font-family="Helvetica,sans-Serif" font-size="10.00">Optimization.cpp</text>
</a>
</g>
</g>
<!-- Node1&#45;&gt;Node10 -->
<g id="edge24_Node000001_Node000010" class="edge">
<title>Node1&#45;&gt;Node10</title>
<g id="a_edge24_Node000001_Node000010"><a xlink:title=" ">
<path fill="none" stroke="#63b8ff" d="M990.66,-120.1C846.18,-116.38 326.41,-101.31 302.62,-76 287.12,-59.5 309.24,-34.07 323.74,-20.42"/>
<polygon fill="#63b8ff" stroke="#63b8ff" points="990.34,-123.59 1000.42,-120.34 990.52,-116.59 990.34,-123.59"/>
</a>
</g>
</g>
<!-- Node11 -->
<g id="Node000011" class="node">
<title>Node11</title>
<g id="a_Node000011"><a xlink:href="FSOps_8cpp.html" target="_top" xlink:title=" ">
<polygon fill="white" stroke="#666666" points="790.38,-20 724.88,-20 724.88,0 790.38,0 790.38,-20"/>
<text xml:space="preserve" text-anchor="middle" x="757.62" y="-6.5" font-family="Helvetica,sans-Serif" font-size="10.00">FSOps.cpp</text>
</a>
</g>
</g>
<!-- Node1&#45;&gt;Node11 -->
<g id="edge13_Node000001_Node000011" class="edge">
<title>Node1&#45;&gt;Node11</title>
<g id="a_edge13_Node000001_Node000011"><a xlink:title=" ">
<path fill="none" stroke="#63b8ff" d="M990.68,-119.78C946.76,-116.88 872.51,-107.3 817.62,-76 793.08,-62 772.82,-34.55 763.37,-20.21"/>
<polygon fill="#63b8ff" stroke="#63b8ff" points="990.26,-123.26 1000.44,-120.33 990.66,-116.27 990.26,-123.26"/>
</a>
</g>
</g>
<!-- Node12 -->
<g id="Node000012" class="node">
<title>Node12</title>
<g id="a_Node000012"><a xlink:href="FSOps_8h.html" target="_top" xlink:title=" ">
<polygon fill="white" stroke="#666666" points="881.12,-76 826.12,-76 826.12,-56 881.12,-56 881.12,-76"/>
<text xml:space="preserve" text-anchor="middle" x="853.62" y="-62.5" font-family="Helvetica,sans-Serif" font-size="10.00">FSOps.h</text>
</a>
</g>
</g>
<!-- Node1&#45;&gt;Node12 -->
<g id="edge14_Node000001_Node000012" class="edge">
<title>Node1&#45;&gt;Node12</title>
<g id="a_edge14_Node000001_Node000012"><a xlink:title=" ">
<path fill="none" stroke="#63b8ff" d="M991.04,-109.65C958.34,-99.5 911.12,-84.84 881.42,-75.63"/>
<polygon fill="#63b8ff" stroke="#63b8ff" points="989.92,-112.96 1000.51,-112.58 991.99,-106.28 989.92,-112.96"/>
</a>
</g>
</g>
<!-- Node15 -->
<g id="Node000015" class="node">
<title>Node15</title>
<g id="a_Node000015"><a xlink:href="FileIO_8cpp.html" target="_top" xlink:title=" ">
<polygon fill="white" stroke="#666666" points="1190.12,-20 1129.12,-20 1129.12,0 1190.12,0 1190.12,-20"/>
<text xml:space="preserve" text-anchor="middle" x="1159.62" y="-6.5" font-family="Helvetica,sans-Serif" font-size="10.00">FileIO.cpp</text>
</a>
</g>
</g>
<!-- Node1&#45;&gt;Node15 -->
<g id="edge18_Node000001_Node000015" class="edge">
<title>Node1&#45;&gt;Node15</title>
<g id="a_edge18_Node000001_Node000015"><a xlink:title=" ">
<path fill="none" stroke="#63b8ff" d="M1047.26,-104.29C1062.78,-91.11 1085.02,-72.3 1104.62,-56 1119.62,-43.54 1137.05,-29.32 1148.21,-20.26"/>
<polygon fill="#63b8ff" stroke="#63b8ff" points="1045.05,-101.57 1039.7,-110.71 1049.59,-106.9 1045.05,-101.57"/>
</a>
</g>
</g>
<!-- Node16 -->
<g id="Node000016" class="node">
<title>Node16</title>
<g id="a_Node000016"><a xlink:href="ImportExport_8h.html" target="_top" xlink:title=" ">
<polygon fill="white" stroke="#666666" points="979.88,-76 899.38,-76 899.38,-56 979.88,-56 979.88,-76"/>
<text xml:space="preserve" text-anchor="middle" x="939.62" y="-62.5" font-family="Helvetica,sans-Serif" font-size="10.00">ImportExport.h</text>
</a>
</g>
</g>
<!-- Node1&#45;&gt;Node16 -->
<g id="edge19_Node000001_Node000016" class="edge">
<title>Node1&#45;&gt;Node16</title>
<g id="a_edge19_Node000001_Node000016"><a xlink:title=" ">
<path fill="none" stroke="#63b8ff" d="M1002.87,-105.81C987.52,-96.39 968.28,-84.58 955.07,-76.48"/>
<polygon fill="#63b8ff" stroke="#63b8ff" points="1000.65,-108.56 1011.01,-110.8 1004.31,-102.59 1000.65,-108.56"/>
</a>
</g>
</g>
<!-- Node17 -->
<g id="Node000017" class="node">
<title>Node17</title>
<g id="a_Node000017"><a xlink:href="MetaDB_8cpp.html" target="_top" xlink:title=" ">
<polygon fill="white" stroke="#666666" points="1184,-76 1113.25,-76 1113.25,-56 1184,-56 1184,-76"/>
<text xml:space="preserve" text-anchor="middle" x="1148.62" y="-62.5" font-family="Helvetica,sans-Serif" font-size="10.00">MetaDB.cpp</text>
</a>
</g>
</g>
<!-- Node1&#45;&gt;Node17 -->
<g id="edge22_Node000001_Node000017" class="edge">
<title>Node1&#45;&gt;Node17</title>
<g id="a_edge22_Node000001_Node000017"><a xlink:title=" ">
<path fill="none" stroke="#63b8ff" d="M1058.97,-107.01C1080.48,-97.41 1108.45,-84.93 1127.38,-76.48"/>
<polygon fill="#63b8ff" stroke="#63b8ff" points="1057.79,-103.71 1050.08,-110.98 1060.64,-110.1 1057.79,-103.71"/>
</a>
</g>
</g>
<!-- Node18 -->
<g id="Node000018" class="node">
<title>Node18</title>
<g id="a_Node000018"><a xlink:href="Migration_8cpp.html" target="_top" xlink:title=" ">
<polygon fill="white" stroke="#666666" points="1276.88,-76 1202.38,-76 1202.38,-56 1276.88,-56 1276.88,-76"/>
<text xml:space="preserve" text-anchor="middle" x="1239.62" y="-62.5" font-family="Helvetica,sans-Serif" font-size="10.00">Migration.cpp</text>
</a>
</g>
</g>
<!-- Node1&#45;&gt;Node18 -->
<g id="edge23_Node000001_Node000018" class="edge">
<title>Node1&#45;&gt;Node18</title>
<g id="a_edge23_Node000001_Node000018"><a xlink:title=" ">
<path fill="none" stroke="#63b8ff" d="M1063.96,-111.74C1102.66,-101.89 1163.59,-86.37 1202.56,-76.44"/>
<polygon fill="#63b8ff" stroke="#63b8ff" points="1063.49,-108.25 1054.66,-114.11 1065.22,-115.04 1063.49,-108.25"/>
</a>
</g>
</g>
<!-- Node19 -->
<g id="Node000019" class="node">
<title>Node19</title>
<g id="a_Node000019"><a xlink:href="fs_2PackageManager_8cpp.html" target="_top" xlink:title=" ">
<polygon fill="white" stroke="#666666" points="1359.88,-20 1249.38,-20 1249.38,0 1359.88,0 1359.88,-20"/>
<text xml:space="preserve" text-anchor="middle" x="1304.62" y="-6.5" font-family="Helvetica,sans-Serif" font-size="10.00">PackageManager.cpp</text>
</a>
</g>
</g>
<!-- Node1&#45;&gt;Node19 -->
<g id="edge25_Node000001_Node000019" class="edge">
<title>Node1&#45;&gt;Node19</title>
<g id="a_edge25_Node000001_Node000019"><a xlink:title=" ">
<path fill="none" stroke="#63b8ff" d="M1064.51,-119.27C1127.84,-115.55 1253.54,-104.68 1285.62,-76 1301.75,-61.58 1304.51,-34.31 1304.79,-20.11"/>
<polygon fill="#63b8ff" stroke="#63b8ff" points="1064.39,-115.77 1054.59,-119.82 1064.77,-122.76 1064.39,-115.77"/>
</a>
</g>
</g>
<!-- Node20 -->
<g id="Node000020" class="node">
<title>Node20</title>
<g id="a_Node000020"><a xlink:href="fs_2PackageManager_8h.html" target="_top" xlink:title=" ">
<polygon fill="white" stroke="#666666" points="1432.62,-76 1332.62,-76 1332.62,-56 1432.62,-56 1432.62,-76"/>
<text xml:space="preserve" text-anchor="middle" x="1382.62" y="-62.5" font-family="Helvetica,sans-Serif" font-size="10.00">PackageManager.h</text>
</a>
</g>
</g>
<!-- Node1&#45;&gt;Node20 -->
<g id="edge26_Node000001_Node000020" class="edge">
<title>Node1&#45;&gt;Node20</title>
<g id="a_edge26_Node000001_Node000020"><a xlink:title=" ">
<path fill="none" stroke="#63b8ff" d="M1064.26,-115.43C1128.14,-105.71 1259.99,-85.65 1332.36,-74.65"/>
<polygon fill="#63b8ff" stroke="#63b8ff" points="1064.01,-111.92 1054.65,-116.89 1065.06,-118.85 1064.01,-111.92"/>
</a>
</g>
</g>
<!-- Node22 -->
<g id="Node000022" class="node">
<title>Node22</title>
<g id="a_Node000022"><a xlink:href="Policies_8h.html" target="_top" xlink:title=" ">
<polygon fill="white" stroke="#666666" points="770,-76 711.25,-76 711.25,-56 770,-56 770,-76"/>
<text xml:space="preserve" text-anchor="middle" x="740.62" y="-62.5" font-family="Helvetica,sans-Serif" font-size="10.00">Policies.h</text>
</a>
</g>
</g>
<!-- Node1&#45;&gt;Node22 -->
<g id="edge29_Node000001_Node000022" class="edge">
<title>Node1&#45;&gt;Node22</title>
<g id="a_edge29_Node000001_Node000022"><a xlink:title=" ">
<path fill="none" stroke="#63b8ff" d="M990.63,-114.46C942.78,-105.94 856.87,-90.42 783.62,-76 779.28,-75.15 774.7,-74.22 770.21,-73.29"/>
<polygon fill="#63b8ff" stroke="#63b8ff" points="989.99,-117.9 1000.45,-116.21 991.22,-111.01 989.99,-117.9"/>
</a>
</g>
</g>
<!-- Node24 -->
<g id="Node000024" class="node">
<title>Node24</title>
<g id="a_Node000024"><a xlink:href="ProjectManager_8cpp.html" target="_top" xlink:title=" ">
<polygon fill="white" stroke="#666666" points="1554.12,-76 1451.12,-76 1451.12,-56 1554.12,-56 1554.12,-76"/>
<text xml:space="preserve" text-anchor="middle" x="1502.62" y="-62.5" font-family="Helvetica,sans-Serif" font-size="10.00">ProjectManager.cpp</text>
</a>
</g>
</g>
<!-- Node1&#45;&gt;Node24 -->
<g id="edge32_Node000001_Node000024" class="edge">
<title>Node1&#45;&gt;Node24</title>
<g id="a_edge32_Node000001_Node000024"><a xlink:title=" ">
<path fill="none" stroke="#63b8ff" d="M1064.55,-117.46C1136.97,-110.42 1302.71,-93.79 1441.62,-76 1444.6,-75.62 1447.65,-75.21 1450.73,-74.79"/>
<polygon fill="#63b8ff" stroke="#63b8ff" points="1064.47,-113.96 1054.85,-118.4 1065.14,-120.92 1064.47,-113.96"/>
</a>
</g>
</g>
<!-- Node25 -->
<g id="Node000025" class="node">
<title>Node25</title>
<g id="a_Node000025"><a xlink:href="Recycle_8h.html" target="_top" xlink:title=" ">
<polygon fill="white" stroke="#666666" points="1057.75,-76 997.5,-76 997.5,-56 1057.75,-56 1057.75,-76"/>
<text xml:space="preserve" text-anchor="middle" x="1027.62" y="-62.5" font-family="Helvetica,sans-Serif" font-size="10.00">Recycle.h</text>
</a>
</g>
</g>
<!-- Node1&#45;&gt;Node25 -->
<g id="edge33_Node000001_Node000025" class="edge">
<title>Node1&#45;&gt;Node25</title>
<g id="a_edge33_Node000001_Node000025"><a xlink:title=" ">
<path fill="none" stroke="#63b8ff" d="M1027.62,-100.13C1027.62,-91.9 1027.62,-82.85 1027.62,-76.3"/>
<polygon fill="#63b8ff" stroke="#63b8ff" points="1024.13,-100.08 1027.63,-110.08 1031.13,-100.08 1024.13,-100.08"/>
</a>
</g>
</g>
<!-- Node27 -->
<g id="Node000027" class="node">
<title>Node27</title>
<g id="a_Node000027"><a xlink:href="Streaming_8cpp.html" target="_top" xlink:title=" ">
<polygon fill="white" stroke="#666666" points="1651.12,-76 1572.12,-76 1572.12,-56 1651.12,-56 1651.12,-76"/>
<text xml:space="preserve" text-anchor="middle" x="1611.62" y="-62.5" font-family="Helvetica,sans-Serif" font-size="10.00">Streaming.cpp</text>
</a>
</g>
</g>
<!-- Node1&#45;&gt;Node27 -->
<g id="edge38_Node000001_Node000027" class="edge">
<title>Node1&#45;&gt;Node27</title>
<g id="a_edge38_Node000001_Node000027"><a xlink:title=" ">
<path fill="none" stroke="#63b8ff" d="M1064.47,-119.2C1151.58,-114.66 1376.92,-101.27 1563.62,-76 1566.31,-75.64 1569.08,-75.22 1571.86,-74.78"/>
<polygon fill="#63b8ff" stroke="#63b8ff" points="1064.43,-115.7 1054.63,-119.7 1064.79,-122.69 1064.43,-115.7"/>
</a>
</g>
</g>
<!-- Node28 -->
<g id="Node000028" class="node">
<title>Node28</title>
<g id="a_Node000028"><a xlink:href="Sync_8cpp.html" target="_top" xlink:title=" ">
<polygon fill="white" stroke="#666666" points="1726.25,-76 1669,-76 1669,-56 1726.25,-56 1726.25,-76"/>
<text xml:space="preserve" text-anchor="middle" x="1697.62" y="-62.5" font-family="Helvetica,sans-Serif" font-size="10.00">Sync.cpp</text>
</a>
</g>
</g>
<!-- Node1&#45;&gt;Node28 -->
<g id="edge39_Node000001_Node000028" class="edge">
<title>Node1&#45;&gt;Node28</title>
<g id="a_edge39_Node000001_Node000028"><a xlink:title=" ">
<path fill="none" stroke="#63b8ff" d="M1064.41,-120.53C1162.11,-118.84 1435.96,-111.06 1660.62,-76 1663.24,-75.59 1665.94,-75.09 1668.63,-74.54"/>
<polygon fill="#63b8ff" stroke="#63b8ff" points="1064.58,-117.03 1054.64,-120.69 1064.69,-124.03 1064.58,-117.03"/>
</a>
</g>
</g>
<!-- Node29 -->
<g id="Node000029" class="node">
<title>Node29</title>
<g id="a_Node000029"><a xlink:href="TestFileIO_8cpp.html" target="_top" xlink:title=" ">
<polygon fill="white" stroke="#666666" points="1824.5,-76 1744.75,-76 1744.75,-56 1824.5,-56 1824.5,-76"/>
<text xml:space="preserve" text-anchor="middle" x="1784.62" y="-62.5" font-family="Helvetica,sans-Serif" font-size="10.00">TestFileIO.cpp</text>
</a>
</g>
</g>
<!-- Node1&#45;&gt;Node29 -->
<g id="edge40_Node000001_Node000029" class="edge">
<title>Node1&#45;&gt;Node29</title>
<g id="a_edge40_Node000001_Node000029"><a xlink:title=" ">
<path fill="none" stroke="#63b8ff" d="M1064.34,-120.2C1169.36,-117.57 1479.91,-107.5 1735.62,-76 1738.46,-75.65 1741.37,-75.24 1744.31,-74.8"/>
<polygon fill="#63b8ff" stroke="#63b8ff" points="1064.55,-116.69 1054.64,-120.43 1064.72,-123.69 1064.55,-116.69"/>
</a>
</g>
</g>
<!-- Node30 -->
<g id="Node000030" class="node">
<title>Node30</title>
<g id="a_Node000030"><a xlink:href="Thumbs_8cpp.html" target="_top" xlink:title=" ">
<polygon fill="white" stroke="#666666" points="1912.62,-76 1842.62,-76 1842.62,-56 1912.62,-56 1912.62,-76"/>
<text xml:space="preserve" text-anchor="middle" x="1877.62" y="-62.5" font-family="Helvetica,sans-Serif" font-size="10.00">Thumbs.cpp</text>
</a>
</g>
</g>
<!-- Node1&#45;&gt;Node30 -->
<g id="edge41_Node000001_Node000030" class="edge">
<title>Node1&#45;&gt;Node30</title>
<g id="a_edge41_Node000001_Node000030"><a xlink:title=" ">
<path fill="none" stroke="#63b8ff" d="M1064.37,-120.85C1178.78,-119.99 1538.64,-114.2 1833.62,-76 1836.41,-75.64 1839.28,-75.2 1842.16,-74.72"/>
<polygon fill="#63b8ff" stroke="#63b8ff" points="1064.65,-117.35 1054.67,-120.92 1064.7,-124.35 1064.65,-117.35"/>
</a>
</g>
</g>
<!-- Node31 -->
<g id="Node000031" class="node">
<title>Node31</title>
<g id="a_Node000031"><a xlink:href="Validation_8cpp.html" target="_top" xlink:title=" ">
<polygon fill="white" stroke="#666666" points="2007,-76 1930.25,-76 1930.25,-56 2007,-56 2007,-76"/>
<text xml:space="preserve" text-anchor="middle" x="1968.62" y="-62.5" font-family="Helvetica,sans-Serif" font-size="10.00">Validation.cpp</text>
</a>
</g>
</g>
<!-- Node1&#45;&gt;Node31 -->
<g id="edge42_Node000001_Node000031" class="edge">
<title>Node1&#45;&gt;Node31</title>
<g id="a_edge42_Node000001_Node000031"><a xlink:title=" ">
<path fill="none" stroke="#63b8ff" d="M1064.63,-120.97C1187.2,-120.5 1590.88,-115.8 1921.62,-76 1924.35,-75.67 1927.15,-75.28 1929.96,-74.84"/>
<polygon fill="#63b8ff" stroke="#63b8ff" points="1064.84,-117.47 1054.85,-121 1064.86,-124.47 1064.84,-117.47"/>
</a>
</g>
</g>
<!-- Node32 -->
<g id="Node000032" class="node">
<title>Node32</title>
<g id="a_Node000032"><a xlink:href="Versioning_8cpp.html" target="_top" xlink:title=" ">
<polygon fill="white" stroke="#666666" points="2104.5,-76 2024.75,-76 2024.75,-56 2104.5,-56 2104.5,-76"/>
<text xml:space="preserve" text-anchor="middle" x="2064.62" y="-62.5" font-family="Helvetica,sans-Serif" font-size="10.00">Versioning.cpp</text>
</a>
</g>
</g>
<!-- Node1&#45;&gt;Node32 -->
<g id="edge43_Node000001_Node000032" class="edge">
<title>Node1&#45;&gt;Node32</title>
<g id="a_edge43_Node000001_Node000032"><a xlink:title=" ">
<path fill="none" stroke="#63b8ff" d="M1064.57,-121.13C1195.05,-121.19 1646.29,-118.13 2015.62,-76 2018.46,-75.68 2021.38,-75.29 2024.31,-74.85"/>
<polygon fill="#63b8ff" stroke="#63b8ff" points="1064.81,-117.63 1054.81,-121.11 1064.81,-124.63 1064.81,-117.63"/>
</a>
</g>
</g>
<!-- Node33 -->
<g id="Node000033" class="node">
<title>Node33</title>
<g id="a_Node000033"><a xlink:href="main_8cpp.html" target="_top" xlink:title=" ">
<polygon fill="white" stroke="#666666" points="2178.5,-76 2122.75,-76 2122.75,-56 2178.5,-56 2178.5,-76"/>
<text xml:space="preserve" text-anchor="middle" x="2150.62" y="-62.5" font-family="Helvetica,sans-Serif" font-size="10.00">main.cpp</text>
</a>
</g>
</g>
<!-- Node1&#45;&gt;Node33 -->
<g id="edge44_Node000001_Node000033" class="edge">
<title>Node1&#45;&gt;Node33</title>
<g id="a_edge44_Node000001_Node000033"><a xlink:title=" ">
<path fill="none" stroke="#63b8ff" d="M1064.71,-120.45C1230.46,-117.82 1904.44,-105.48 2113.62,-76 2116.51,-75.59 2119.49,-75.06 2122.45,-74.46"/>
<polygon fill="#63b8ff" stroke="#63b8ff" points="1064.69,-116.95 1054.75,-120.6 1064.8,-123.94 1064.69,-116.95"/>
</a>
</g>
</g>
<!-- Node9&#45;&gt;Node2 -->
<g id="edge9_Node000009_Node000002" class="edge">
<title>Node9&#45;&gt;Node2</title>
<g id="a_edge9_Node000009_Node000002"><a xlink:title=" ">
<path fill="none" stroke="#63b8ff" d="M141.96,-51.53C117.08,-41.87 84.18,-29.08 62.03,-20.48"/>
<polygon fill="#63b8ff" stroke="#63b8ff" points="140.41,-54.69 151,-55.05 142.95,-48.16 140.41,-54.69"/>
</a>
</g>
</g>
<!-- Node9&#45;&gt;Node4 -->
<g id="edge10_Node000009_Node000004" class="edge">
<title>Node9&#45;&gt;Node4</title>
<g id="a_edge10_Node000009_Node000004"><a xlink:title=" ">
<path fill="none" stroke="#63b8ff" d="M160.55,-47.29C152.38,-38.28 142.78,-27.7 136.06,-20.3"/>
<polygon fill="#63b8ff" stroke="#63b8ff" points="157.76,-49.42 167.07,-54.47 162.94,-44.72 157.76,-49.42"/>
</a>
</g>
</g>
<!-- Node9&#45;&gt;Node8 -->
<g id="edge11_Node000009_Node000008" class="edge">
<title>Node9&#45;&gt;Node8</title>
<g id="a_edge11_Node000009_Node000008"><a xlink:title=" ">
<path fill="none" stroke="#63b8ff" d="M192.7,-47.29C200.87,-38.28 210.47,-27.7 217.19,-20.3"/>
<polygon fill="#63b8ff" stroke="#63b8ff" points="190.31,-44.72 186.18,-54.47 195.49,-49.42 190.31,-44.72"/>
</a>
</g>
</g>
<!-- Node9&#45;&gt;Node10 -->
<g id="edge12_Node000009_Node000010" class="edge">
<title>Node9&#45;&gt;Node10</title>
<g id="a_edge12_Node000009_Node000010"><a xlink:title=" ">
<path fill="none" stroke="#63b8ff" d="M214.89,-51.92C243.3,-42.21 281.37,-29.2 306.89,-20.48"/>
<polygon fill="#63b8ff" stroke="#63b8ff" points="213.91,-48.56 205.58,-55.1 216.17,-55.18 213.91,-48.56"/>
</a>
</g>
</g>
<!-- Node12&#45;&gt;Node11 -->
<g id="edge16_Node000012_Node000011" class="edge">
<title>Node12&#45;&gt;Node11</title>
<g id="a_edge16_Node000012_Node000011"><a xlink:title=" ">
<path fill="none" stroke="#63b8ff" d="M827.1,-50.08C810.28,-40.62 789.02,-28.66 774.48,-20.48"/>
<polygon fill="#63b8ff" stroke="#63b8ff" points="825.15,-53 835.58,-54.85 828.58,-46.9 825.15,-53"/>
</a>
</g>
</g>
<!-- Node13 -->
<g id="Node000013" class="node">
<title>Node13</title>
<g id="a_Node000013"><a xlink:href="ContentBrowser_8cpp.html" target="_top" xlink:title=" ">
<polygon fill="white" stroke="#666666" points="1022.25,-20 917,-20 917,0 1022.25,0 1022.25,-20"/>
<text xml:space="preserve" text-anchor="middle" x="969.62" y="-6.5" font-family="Helvetica,sans-Serif" font-size="10.00">ContentBrowser.cpp</text>
</a>
</g>
</g>
<!-- Node12&#45;&gt;Node13 -->
<g id="edge15_Node000012_Node000013" class="edge">
<title>Node12&#45;&gt;Node13</title>
<g id="a_edge15_Node000012_Node000013"><a xlink:title=" ">
<path fill="none" stroke="#63b8ff" d="M884.25,-50.75C904.79,-41.18 931.27,-28.85 949.26,-20.48"/>
<polygon fill="#63b8ff" stroke="#63b8ff" points="882.79,-47.56 875.2,-54.96 885.75,-53.91 882.79,-47.56"/>
</a>
</g>
</g>
<!-- Node14 -->
<g id="Node000014" class="node">
<title>Node14</title>
<g id="a_Node000014"><a xlink:href="ImportExport_8cpp.html" target="_top" xlink:title=" ">
<polygon fill="white" stroke="#666666" points="899.12,-20 808.12,-20 808.12,0 899.12,0 899.12,-20"/>
<text xml:space="preserve" text-anchor="middle" x="853.62" y="-6.5" font-family="Helvetica,sans-Serif" font-size="10.00">ImportExport.cpp</text>
</a>
</g>
</g>
<!-- Node12&#45;&gt;Node14 -->
<g id="edge17_Node000012_Node000014" class="edge">
<title>Node12&#45;&gt;Node14</title>
<g id="a_edge17_Node000012_Node000014"><a xlink:title=" ">
<path fill="none" stroke="#63b8ff" d="M853.62,-44.13C853.62,-35.9 853.62,-26.85 853.62,-20.3"/>
<polygon fill="#63b8ff" stroke="#63b8ff" points="850.13,-44.08 853.63,-54.08 857.13,-44.08 850.13,-44.08"/>
</a>
</g>
</g>
<!-- Node16&#45;&gt;Node13 -->
<g id="edge20_Node000016_Node000013" class="edge">
<title>Node16&#45;&gt;Node13</title>
<g id="a_edge20_Node000016_Node000013"><a xlink:title=" ">
<path fill="none" stroke="#63b8ff" d="M950.41,-45.58C955.2,-36.97 960.6,-27.24 964.46,-20.3"/>
<polygon fill="#63b8ff" stroke="#63b8ff" points="947.38,-43.83 945.59,-54.27 953.5,-47.23 947.38,-43.83"/>
</a>
</g>
</g>
<!-- Node16&#45;&gt;Node14 -->
<g id="edge21_Node000016_Node000014" class="edge">
<title>Node16&#45;&gt;Node14</title>
<g id="a_edge21_Node000016_Node000014"><a xlink:title=" ">
<path fill="none" stroke="#63b8ff" d="M915.01,-49.54C900.08,-40.17 881.5,-28.51 868.72,-20.48"/>
<polygon fill="#63b8ff" stroke="#63b8ff" points="913.03,-52.44 923.36,-54.79 916.76,-46.51 913.03,-52.44"/>
</a>
</g>
</g>
<!-- Node20&#45;&gt;Node19 -->
<g id="edge27_Node000020_Node000019" class="edge">
<title>Node20&#45;&gt;Node19</title>
<g id="a_edge27_Node000020_Node000019"><a xlink:title=" ">
<path fill="none" stroke="#63b8ff" d="M1359.91,-49.27C1346.43,-39.94 1329.8,-28.43 1318.32,-20.48"/>
<polygon fill="#63b8ff" stroke="#63b8ff" points="1357.58,-51.92 1367.79,-54.73 1361.56,-46.16 1357.58,-51.92"/>
</a>
</g>
</g>
<!-- Node21 -->
<g id="Node000021" class="node">
<title>Node21</title>
<g id="a_Node000021"><a xlink:href="ui_2PackageManager_8cpp.html" target="_top" xlink:title=" ">
<polygon fill="white" stroke="#666666" points="1488.88,-20 1378.38,-20 1378.38,0 1488.88,0 1488.88,-20"/>
<text xml:space="preserve" text-anchor="middle" x="1433.62" y="-6.5" font-family="Helvetica,sans-Serif" font-size="10.00">PackageManager.cpp</text>
</a>
</g>
</g>
<!-- Node20&#45;&gt;Node21 -->
<g id="edge28_Node000020_Node000021" class="edge">
<title>Node20&#45;&gt;Node21</title>
<g id="a_edge28_Node000020_Node000021"><a xlink:title=" ">
<path fill="none" stroke="#63b8ff" d="M1399.36,-47.29C1407.86,-38.28 1417.85,-27.7 1424.84,-20.3"/>
<polygon fill="#63b8ff" stroke="#63b8ff" points="1396.87,-44.82 1392.55,-54.49 1401.96,-49.63 1396.87,-44.82"/>
</a>
</g>
</g>
<!-- Node22&#45;&gt;Node11 -->
<g id="edge30_Node000022_Node000011" class="edge">
<title>Node22&#45;&gt;Node11</title>
<g id="a_edge30_Node000022_Node000011"><a xlink:title=" ">
<path fill="none" stroke="#63b8ff" d="M747.01,-44.71C749.65,-36.32 752.59,-27.01 754.7,-20.3"/>
<polygon fill="#63b8ff" stroke="#63b8ff" points="743.71,-43.56 744.04,-54.15 750.38,-45.66 743.71,-43.56"/>
</a>
</g>
</g>
<!-- Node23 -->
<g id="Node000023" class="node">
<title>Node23</title>
<g id="a_Node000023"><a xlink:href="Policies_8cpp.html" target="_top" xlink:title=" ">
<polygon fill="white" stroke="#666666" points="707.25,-20 638,-20 638,0 707.25,0 707.25,-20"/>
<text xml:space="preserve" text-anchor="middle" x="672.62" y="-6.5" font-family="Helvetica,sans-Serif" font-size="10.00">Policies.cpp</text>
</a>
</g>
</g>
<!-- Node22&#45;&gt;Node23 -->
<g id="edge31_Node000022_Node000023" class="edge">
<title>Node22&#45;&gt;Node23</title>
<g id="a_edge31_Node000022_Node000023"><a xlink:title=" ">
<path fill="none" stroke="#63b8ff" d="M720.07,-48.68C708.37,-39.39 694.14,-28.09 684.33,-20.3"/>
<polygon fill="#63b8ff" stroke="#63b8ff" points="717.59,-51.17 727.6,-54.65 721.94,-45.69 717.59,-51.17"/>
</a>
</g>
</g>
<!-- Node25&#45;&gt;Node11 -->
<g id="edge35_Node000025_Node000011" class="edge">
<title>Node25&#45;&gt;Node11</title>
<g id="a_edge35_Node000025_Node000011"><a xlink:title=" ">
<path fill="none" stroke="#63b8ff" d="M986.39,-55.59C903.08,-38.24 880,-36.26 799.62,-20 796.7,-19.41 793.67,-18.78 790.63,-18.15"/>
<polygon fill="#63b8ff" stroke="#63b8ff" points="985.43,-58.97 995.94,-57.6 986.87,-52.12 985.43,-58.97"/>
</a>
</g>
</g>
<!-- Node25&#45;&gt;Node13 -->
<g id="edge34_Node000025_Node000013" class="edge">
<title>Node25&#45;&gt;Node13</title>
<g id="a_edge34_Node000025_Node000013"><a xlink:title=" ">
<path fill="none" stroke="#63b8ff" d="M1009.2,-47.85C999.4,-38.72 987.73,-27.86 979.61,-20.3"/>
<polygon fill="#63b8ff" stroke="#63b8ff" points="1006.71,-50.31 1016.41,-54.56 1011.48,-45.19 1006.71,-50.31"/>
</a>
</g>
</g>
<!-- Node25&#45;&gt;Node15 -->
<g id="edge36_Node000025_Node000015" class="edge">
<title>Node25&#45;&gt;Node15</title>
<g id="a_edge36_Node000025_Node000015"><a xlink:title=" ">
<path fill="none" stroke="#63b8ff" d="M1061.18,-51.27C1084.73,-41.64 1115.61,-29.01 1136.45,-20.48"/>
<polygon fill="#63b8ff" stroke="#63b8ff" points="1059.95,-48 1052.02,-55.02 1062.6,-54.47 1059.95,-48"/>
</a>
</g>
</g>
<!-- Node26 -->
<g id="Node000026" class="node">
<title>Node26</title>
<g id="a_Node000026"><a xlink:href="Recycle_8cpp.html" target="_top" xlink:title=" ">
<polygon fill="white" stroke="#666666" points="1111,-20 1040.25,-20 1040.25,0 1111,0 1111,-20"/>
<text xml:space="preserve" text-anchor="middle" x="1075.62" y="-6.5" font-family="Helvetica,sans-Serif" font-size="10.00">Recycle.cpp</text>
</a>
</g>
</g>
<!-- Node25&#45;&gt;Node26 -->
<g id="edge37_Node000025_Node000026" class="edge">
<title>Node25&#45;&gt;Node26</title>
<g id="a_edge37_Node000025_Node000026"><a xlink:title=" ">
<path fill="none" stroke="#63b8ff" d="M1043.62,-47C1051.57,-38.06 1060.85,-27.62 1067.36,-20.3"/>
<polygon fill="#63b8ff" stroke="#63b8ff" points="1041.02,-44.66 1036.99,-54.46 1046.25,-49.31 1041.02,-44.66"/>
</a>
</g>
</g>
</g>
</svg>
