<?xml version="1.0" encoding="UTF-8" standalone="no"?>
<!DOCTYPE svg PUBLIC "-//W3C//DTD SVG 1.1//EN"
 "http://www.w3.org/Graphics/SVG/1.1/DTD/svg11.dtd">
<!-- Generated by graphviz version 14.0.2 (20251019.1705)
 -->
<!-- Title: Framebuffer.cpp Pages: 1 -->
<svg width="230pt" height="140pt"
 viewBox="0.00 0.00 230.00 140.00" xmlns="http://www.w3.org/2000/svg" xmlns:xlink="http://www.w3.org/1999/xlink">
<g id="graph0" class="graph" transform="scale(1 1) rotate(0) translate(4 136)">
<title>Framebuffer.cpp</title>
<!-- Node1 -->
<g id="Node000001" class="node">
<title>Node1</title>
<g id="a_Node000001"><a xlink:title=" ">
<polygon fill="#999999" stroke="#666666" points="173.88,-132 87.38,-132 87.38,-112 173.88,-112 173.88,-132"/>
<text xml:space="preserve" text-anchor="middle" x="130.62" y="-118.5" font-family="Helvetica,sans-Serif" font-size="10.00">Framebuffer.cpp</text>
</a>
</g>
</g>
<!-- Node2 -->
<g id="Node000002" class="node">
<title>Node2</title>
<g id="a_Node000002"><a xlink:href="Framebuffer_8h.html" target="_top" xlink:title=" ">
<polygon fill="white" stroke="#666666" points="141.25,-76 0,-76 0,-56 141.25,-56 141.25,-76"/>
<text xml:space="preserve" text-anchor="middle" x="70.62" y="-62.5" font-family="Helvetica,sans-Serif" font-size="10.00">LGE/rendering/Framebuffer.h</text>
</a>
</g>
</g>
<!-- Node1&#45;&gt;Node2 -->
<g id="edge1_Node000001_Node000002" class="edge">
<title>Node1&#45;&gt;Node2</title>
<g id="a_edge1_Node000001_Node000002"><a xlink:title=" ">
<path fill="none" stroke="#63b8ff" d="M120.17,-111.59C111.66,-103.93 99.41,-92.91 89.23,-83.75"/>
<polygon fill="#63b8ff" stroke="#63b8ff" points="91.86,-81.4 82.08,-77.31 87.17,-86.6 91.86,-81.4"/>
</a>
</g>
</g>
<!-- Node4 -->
<g id="Node000004" class="node">
<title>Node4</title>
<g id="a_Node000004"><a xlink:title=" ">
<polygon fill="#e0e0e0" stroke="#999999" points="222.25,-76 159,-76 159,-56 222.25,-56 222.25,-76"/>
<text xml:space="preserve" text-anchor="middle" x="190.62" y="-62.5" font-family="Helvetica,sans-Serif" font-size="10.00">glad/glad.h</text>
</a>
</g>
</g>
<!-- Node1&#45;&gt;Node4 -->
<g id="edge3_Node000001_Node000004" class="edge">
<title>Node1&#45;&gt;Node4</title>
<g id="a_edge3_Node000001_Node000004"><a xlink:title=" ">
<path fill="none" stroke="#63b8ff" d="M141.08,-111.59C149.59,-103.93 161.84,-92.91 172.02,-83.75"/>
<polygon fill="#63b8ff" stroke="#63b8ff" points="174.08,-86.6 179.17,-77.31 169.39,-81.4 174.08,-86.6"/>
</a>
</g>
</g>
<!-- Node3 -->
<g id="Node000003" class="node">
<title>Node3</title>
<g id="a_Node000003"><a xlink:title=" ">
<polygon fill="#e0e0e0" stroke="#999999" points="93.25,-20 48,-20 48,0 93.25,0 93.25,-20"/>
<text xml:space="preserve" text-anchor="middle" x="70.62" y="-6.5" font-family="Helvetica,sans-Serif" font-size="10.00">cstdint</text>
</a>
</g>
</g>
<!-- Node2&#45;&gt;Node3 -->
<g id="edge2_Node000002_Node000003" class="edge">
<title>Node2&#45;&gt;Node3</title>
<g id="a_edge2_Node000002_Node000003"><a xlink:title=" ">
<path fill="none" stroke="#63b8ff" d="M70.62,-55.59C70.62,-49.01 70.62,-39.96 70.62,-31.73"/>
<polygon fill="#63b8ff" stroke="#63b8ff" points="74.13,-31.81 70.63,-21.81 67.13,-31.81 74.13,-31.81"/>
</a>
</g>
</g>
</g>
</svg>
