<?xml version="1.0" encoding="UTF-8" standalone="no"?>
<!DOCTYPE svg PUBLIC "-//W3C//DTD SVG 1.1//EN"
 "http://www.w3.org/Graphics/SVG/1.1/DTD/svg11.dtd">
<!-- Generated by graphviz version 14.0.2 (20251019.1705)
 -->
<!-- Title: Framebuffer.h Pages: 1 -->
<svg width="233pt" height="140pt"
 viewBox="0.00 0.00 233.00 140.00" xmlns="http://www.w3.org/2000/svg" xmlns:xlink="http://www.w3.org/1999/xlink">
<g id="graph0" class="graph" transform="scale(1 1) rotate(0) translate(4 136)">
<title>Framebuffer.h</title>
<!-- Node1 -->
<g id="Node000001" class="node">
<title>Node1</title>
<g id="a_Node000001"><a xlink:title=" ">
<polygon fill="#999999" stroke="#666666" points="134.25,-132 58.25,-132 58.25,-112 134.25,-112 134.25,-132"/>
<text xml:space="preserve" text-anchor="middle" x="96.25" y="-118.5" font-family="Helvetica,sans-Serif" font-size="10.00">Framebuffer.h</text>
</a>
</g>
</g>
<!-- Node2 -->
<g id="Node000002" class="node">
<title>Node2</title>
<g id="a_Node000002"><a xlink:href="Framebuffer_8cpp.html" target="_top" xlink:title=" ">
<polygon fill="white" stroke="#666666" points="86.5,-76 0,-76 0,-56 86.5,-56 86.5,-76"/>
<text xml:space="preserve" text-anchor="middle" x="43.25" y="-62.5" font-family="Helvetica,sans-Serif" font-size="10.00">Framebuffer.cpp</text>
</a>
</g>
</g>
<!-- Node1&#45;&gt;Node2 -->
<g id="edge1_Node000001_Node000002" class="edge">
<title>Node1&#45;&gt;Node2</title>
<g id="a_edge1_Node000001_Node000002"><a xlink:title=" ">
<path fill="none" stroke="#63b8ff" d="M79.14,-103.57C70.24,-94.5 59.72,-83.78 52.38,-76.3"/>
<polygon fill="#63b8ff" stroke="#63b8ff" points="76.46,-105.83 85.96,-110.51 81.45,-100.93 76.46,-105.83"/>
</a>
</g>
</g>
<!-- Node3 -->
<g id="Node000003" class="node">
<title>Node3</title>
<g id="a_Node000003"><a xlink:href="SceneViewport_8h.html" target="_top" xlink:title=" ">
<polygon fill="white" stroke="#666666" points="194.38,-76 104.12,-76 104.12,-56 194.38,-56 194.38,-76"/>
<text xml:space="preserve" text-anchor="middle" x="149.25" y="-62.5" font-family="Helvetica,sans-Serif" font-size="10.00">SceneViewport.h</text>
</a>
</g>
</g>
<!-- Node1&#45;&gt;Node3 -->
<g id="edge2_Node000001_Node000003" class="edge">
<title>Node1&#45;&gt;Node3</title>
<g id="a_edge2_Node000001_Node000003"><a xlink:title=" ">
<path fill="none" stroke="#63b8ff" d="M113.36,-103.57C122.26,-94.5 132.78,-83.78 140.12,-76.3"/>
<polygon fill="#63b8ff" stroke="#63b8ff" points="111.05,-100.93 106.54,-110.51 116.04,-105.83 111.05,-100.93"/>
</a>
</g>
</g>
<!-- Node4 -->
<g id="Node000004" class="node">
<title>Node4</title>
<g id="a_Node000004"><a xlink:href="SceneViewport_8cpp.html" target="_top" xlink:title=" ">
<polygon fill="white" stroke="#666666" points="151.62,-20 50.88,-20 50.88,0 151.62,0 151.62,-20"/>
<text xml:space="preserve" text-anchor="middle" x="101.25" y="-6.5" font-family="Helvetica,sans-Serif" font-size="10.00">SceneViewport.cpp</text>
</a>
</g>
</g>
<!-- Node3&#45;&gt;Node4 -->
<g id="edge3_Node000003_Node000004" class="edge">
<title>Node3&#45;&gt;Node4</title>
<g id="a_edge3_Node000003_Node000004"><a xlink:title=" ">
<path fill="none" stroke="#63b8ff" d="M133.25,-47C125.3,-38.06 116.03,-27.62 109.52,-20.3"/>
<polygon fill="#63b8ff" stroke="#63b8ff" points="130.62,-49.31 139.88,-54.46 135.86,-44.66 130.62,-49.31"/>
</a>
</g>
</g>
<!-- Node5 -->
<g id="Node000005" class="node">
<title>Node5</title>
<g id="a_Node000005"><a xlink:href="main_8cpp.html" target="_top" xlink:title=" ">
<polygon fill="white" stroke="#666666" points="225.12,-20 169.38,-20 169.38,0 225.12,0 225.12,-20"/>
<text xml:space="preserve" text-anchor="middle" x="197.25" y="-6.5" font-family="Helvetica,sans-Serif" font-size="10.00">main.cpp</text>
</a>
</g>
</g>
<!-- Node3&#45;&gt;Node5 -->
<g id="edge4_Node000003_Node000005" class="edge">
<title>Node3&#45;&gt;Node5</title>
<g id="a_edge4_Node000003_Node000005"><a xlink:title=" ">
<path fill="none" stroke="#63b8ff" d="M165.25,-47C173.2,-38.06 182.47,-27.62 188.98,-20.3"/>
<polygon fill="#63b8ff" stroke="#63b8ff" points="162.64,-44.66 158.62,-54.46 167.88,-49.31 162.64,-44.66"/>
</a>
</g>
</g>
</g>
</svg>
