<?xml version="1.0" encoding="UTF-8" standalone="no"?>
<!DOCTYPE svg PUBLIC "-//W3C//DTD SVG 1.1//EN"
 "http://www.w3.org/Graphics/SVG/1.1/DTD/svg11.dtd">
<!-- Generated by graphviz version 14.0.2 (20251019.1705)
 -->
<!-- Title: PackageManager.h Pages: 1 -->
<svg width="337pt" height="140pt"
 viewBox="0.00 0.00 337.00 140.00" xmlns="http://www.w3.org/2000/svg" xmlns:xlink="http://www.w3.org/1999/xlink">
<g id="graph0" class="graph" transform="scale(1 1) rotate(0) translate(4 136)">
<title>PackageManager.h</title>
<!-- Node1 -->
<g id="Node000001" class="node">
<title>Node1</title>
<g id="a_Node000001"><a xlink:title=" ">
<polygon fill="#999999" stroke="#666666" points="201.38,-132 101.38,-132 101.38,-112 201.38,-112 201.38,-132"/>
<text xml:space="preserve" text-anchor="middle" x="151.38" y="-118.5" font-family="Helvetica,sans-Serif" font-size="10.00">PackageManager.h</text>
</a>
</g>
</g>
<!-- Node2 -->
<g id="Node000002" class="node">
<title>Node2</title>
<g id="a_Node000002"><a xlink:href="FileIO_8h.html" target="_top" xlink:title=" ">
<polygon fill="white" stroke="#666666" points="98.51,-76 14.26,-76 14.26,-56 98.51,-56 98.51,-76"/>
<text xml:space="preserve" text-anchor="middle" x="56.38" y="-62.5" font-family="Helvetica,sans-Serif" font-size="10.00">LGE/fs/FileIO.h</text>
</a>
</g>
</g>
<!-- Node1&#45;&gt;Node2 -->
<g id="edge1_Node000001_Node000002" class="edge">
<title>Node1&#45;&gt;Node2</title>
<g id="a_edge1_Node000001_Node000002"><a xlink:title=" ">
<path fill="none" stroke="#63b8ff" d="M134.83,-111.59C120.48,-103.44 99.45,-91.48 82.78,-82"/>
<polygon fill="#63b8ff" stroke="#63b8ff" points="84.8,-79.13 74.37,-77.23 81.34,-85.21 84.8,-79.13"/>
</a>
</g>
</g>
<!-- Node3 -->
<g id="Node000003" class="node">
<title>Node3</title>
<g id="a_Node000003"><a xlink:title=" ">
<polygon fill="#e0e0e0" stroke="#999999" points="40.38,-20 0.38,-20 0.38,0 40.38,0 40.38,-20"/>
<text xml:space="preserve" text-anchor="middle" x="20.38" y="-6.5" font-family="Helvetica,sans-Serif" font-size="10.00">string</text>
</a>
</g>
</g>
<!-- Node1&#45;&gt;Node3 -->
<g id="edge4_Node000001_Node000003" class="edge">
<title>Node1&#45;&gt;Node3</title>
<g id="a_edge4_Node000001_Node000003"><a xlink:title=" ">
<path fill="none" stroke="#63b8ff" d="M101.13,-119.94C68.14,-116.3 27.2,-105.55 5.38,-76 -4.39,-62.77 1.3,-44.21 8.3,-30.31"/>
<polygon fill="#63b8ff" stroke="#63b8ff" points="11.31,-32.1 13.18,-21.67 5.22,-28.65 11.31,-32.1"/>
</a>
</g>
</g>
<!-- Node4 -->
<g id="Node000004" class="node">
<title>Node4</title>
<g id="a_Node000004"><a xlink:title=" ">
<polygon fill="#e0e0e0" stroke="#999999" points="141.13,-20 75.63,-20 75.63,0 141.13,0 141.13,-20"/>
<text xml:space="preserve" text-anchor="middle" x="108.38" y="-6.5" font-family="Helvetica,sans-Serif" font-size="10.00">string_view</text>
</a>
</g>
</g>
<!-- Node1&#45;&gt;Node4 -->
<g id="edge5_Node000001_Node000004" class="edge">
<title>Node1&#45;&gt;Node4</title>
<g id="a_edge5_Node000001_Node000004"><a xlink:title=" ">
<path fill="none" stroke="#63b8ff" d="M147.71,-111.62C140.76,-93.84 125.54,-54.88 116.2,-31"/>
<polygon fill="#63b8ff" stroke="#63b8ff" points="119.49,-29.8 112.59,-21.76 112.97,-32.35 119.49,-29.8"/>
</a>
</g>
</g>
<!-- Node5 -->
<g id="Node000005" class="node">
<title>Node5</title>
<g id="a_Node000005"><a xlink:title=" ">
<polygon fill="#e0e0e0" stroke="#999999" points="197.88,-76 154.88,-76 154.88,-56 197.88,-56 197.88,-76"/>
<text xml:space="preserve" text-anchor="middle" x="176.38" y="-62.5" font-family="Helvetica,sans-Serif" font-size="10.00">vector</text>
</a>
</g>
</g>
<!-- Node1&#45;&gt;Node5 -->
<g id="edge6_Node000001_Node000005" class="edge">
<title>Node1&#45;&gt;Node5</title>
<g id="a_edge6_Node000001_Node000005"><a xlink:title=" ">
<path fill="none" stroke="#63b8ff" d="M155.74,-111.59C158.93,-104.7 163.37,-95.1 167.32,-86.57"/>
<polygon fill="#63b8ff" stroke="#63b8ff" points="170.42,-88.22 171.44,-77.67 164.06,-85.28 170.42,-88.22"/>
</a>
</g>
</g>
<!-- Node6 -->
<g id="Node000006" class="node">
<title>Node6</title>
<g id="a_Node000006"><a xlink:title=" ">
<polygon fill="#e0e0e0" stroke="#999999" points="261.01,-76 215.76,-76 215.76,-56 261.01,-56 261.01,-76"/>
<text xml:space="preserve" text-anchor="middle" x="238.38" y="-62.5" font-family="Helvetica,sans-Serif" font-size="10.00">cstdint</text>
</a>
</g>
</g>
<!-- Node1&#45;&gt;Node6 -->
<g id="edge7_Node000001_Node000006" class="edge">
<title>Node1&#45;&gt;Node6</title>
<g id="a_edge7_Node000001_Node000006"><a xlink:title=" ">
<path fill="none" stroke="#63b8ff" d="M166.54,-111.59C179.43,-103.59 198.21,-91.93 213.34,-82.54"/>
<polygon fill="#63b8ff" stroke="#63b8ff" points="215.17,-85.53 221.82,-77.28 211.48,-79.58 215.17,-85.53"/>
</a>
</g>
</g>
<!-- Node7 -->
<g id="Node000007" class="node">
<title>Node7</title>
<g id="a_Node000007"><a xlink:title=" ">
<polygon fill="#e0e0e0" stroke="#999999" points="329.26,-76 279.51,-76 279.51,-56 329.26,-56 329.26,-76"/>
<text xml:space="preserve" text-anchor="middle" x="304.38" y="-62.5" font-family="Helvetica,sans-Serif" font-size="10.00">optional</text>
</a>
</g>
</g>
<!-- Node1&#45;&gt;Node7 -->
<g id="edge8_Node000001_Node000007" class="edge">
<title>Node1&#45;&gt;Node7</title>
<g id="a_edge8_Node000001_Node000007"><a xlink:title=" ">
<path fill="none" stroke="#63b8ff" d="M178.03,-111.59C203.01,-102.78 240.56,-89.53 268.23,-79.76"/>
<polygon fill="#63b8ff" stroke="#63b8ff" points="269.36,-83.07 277.62,-76.44 267.03,-76.47 269.36,-83.07"/>
</a>
</g>
</g>
<!-- Node2&#45;&gt;Node3 -->
<g id="edge2_Node000002_Node000003" class="edge">
<title>Node2&#45;&gt;Node3</title>
<g id="a_edge2_Node000002_Node000003"><a xlink:title=" ">
<path fill="none" stroke="#63b8ff" d="M50.11,-55.59C45.36,-48.47 38.68,-38.45 32.86,-29.72"/>
<polygon fill="#63b8ff" stroke="#63b8ff" points="35.88,-27.94 27.42,-21.56 30.05,-31.82 35.88,-27.94"/>
</a>
</g>
</g>
<!-- Node2&#45;&gt;Node4 -->
<g id="edge3_Node000002_Node000004" class="edge">
<title>Node2&#45;&gt;Node4</title>
<g id="a_edge3_Node000002_Node000004"><a xlink:title=" ">
<path fill="none" stroke="#63b8ff" d="M65.44,-55.59C72.6,-48.16 82.79,-37.58 91.45,-28.58"/>
<polygon fill="#63b8ff" stroke="#63b8ff" points="93.96,-31.02 98.38,-21.39 88.92,-26.16 93.96,-31.02"/>
</a>
</g>
</g>
</g>
</svg>
