<?xml version="1.0" encoding="UTF-8" standalone="no"?>
<!DOCTYPE svg PUBLIC "-//W3C//DTD SVG 1.1//EN"
 "http://www.w3.org/Graphics/SVG/1.1/DTD/svg11.dtd">
<!-- Generated by graphviz version 14.0.2 (20251019.1705)
 -->
<!-- Title: PackageManager.cpp Pages: 1 -->
<svg width="1212pt" height="196pt"
 viewBox="0.00 0.00 1212.00 196.00" xmlns="http://www.w3.org/2000/svg" xmlns:xlink="http://www.w3.org/1999/xlink">
<g id="graph0" class="graph" transform="scale(1 1) rotate(0) translate(4 192)">
<title>PackageManager.cpp</title>
<!-- Node1 -->
<g id="Node000001" class="node">
<title>Node1</title>
<g id="a_Node000001"><a xlink:title=" ">
<polygon fill="#999999" stroke="#666666" points="755.38,-188 644.88,-188 644.88,-168 755.38,-168 755.38,-188"/>
<text xml:space="preserve" text-anchor="middle" x="700.12" y="-174.5" font-family="Helvetica,sans-Serif" font-size="10.00">PackageManager.cpp</text>
</a>
</g>
</g>
<!-- Node2 -->
<g id="Node000002" class="node">
<title>Node2</title>
<g id="a_Node000002"><a xlink:href="fs_2PackageManager_8h.html" target="_top" xlink:title=" ">
<polygon fill="white" stroke="#666666" points="432,-132 298.25,-132 298.25,-112 432,-112 432,-132"/>
<text xml:space="preserve" text-anchor="middle" x="365.12" y="-118.5" font-family="Helvetica,sans-Serif" font-size="10.00">LGE/fs/PackageManager.h</text>
</a>
</g>
</g>
<!-- Node1&#45;&gt;Node2 -->
<g id="edge1_Node000001_Node000002" class="edge">
<title>Node1&#45;&gt;Node2</title>
<g id="a_edge1_Node000001_Node000002"><a xlink:title=" ">
<path fill="none" stroke="#63b8ff" d="M644.43,-168.02C587.07,-158.78 497.51,-144.34 435.33,-134.32"/>
<polygon fill="#63b8ff" stroke="#63b8ff" points="435.98,-130.88 425.55,-132.74 434.87,-137.79 435.98,-130.88"/>
</a>
</g>
</g>
<!-- Node3 -->
<g id="Node000003" class="node">
<title>Node3</title>
<g id="a_Node000003"><a xlink:href="FileIO_8h.html" target="_top" xlink:title=" ">
<polygon fill="white" stroke="#666666" points="298.25,-76 214,-76 214,-56 298.25,-56 298.25,-76"/>
<text xml:space="preserve" text-anchor="middle" x="256.12" y="-62.5" font-family="Helvetica,sans-Serif" font-size="10.00">LGE/fs/FileIO.h</text>
</a>
</g>
</g>
<!-- Node1&#45;&gt;Node3 -->
<g id="edge21_Node000001_Node000003" class="edge">
<title>Node1&#45;&gt;Node3</title>
<g id="a_edge21_Node000001_Node000003"><a xlink:title=" ">
<path fill="none" stroke="#63b8ff" d="M644.61,-177.31C546.02,-176.83 345.43,-170.94 289.12,-132 274.01,-121.55 265.43,-102.05 260.83,-87.12"/>
<polygon fill="#63b8ff" stroke="#63b8ff" points="264.31,-86.6 258.34,-77.85 257.55,-88.42 264.31,-86.6"/>
</a>
</g>
</g>
<!-- Node9 -->
<g id="Node000009" class="node">
<title>Node9</title>
<g id="a_Node000009"><a xlink:href="Project_8h.html" target="_top" xlink:title=" ">
<polygon fill="white" stroke="#666666" points="242.5,-132 153.75,-132 153.75,-112 242.5,-112 242.5,-132"/>
<text xml:space="preserve" text-anchor="middle" x="198.12" y="-118.5" font-family="Helvetica,sans-Serif" font-size="10.00">LGE/fs/Project.h</text>
</a>
</g>
</g>
<!-- Node1&#45;&gt;Node9 -->
<g id="edge10_Node000001_Node000009" class="edge">
<title>Node1&#45;&gt;Node9</title>
<g id="a_edge10_Node000001_Node000009"><a xlink:title=" ">
<path fill="none" stroke="#63b8ff" d="M644.64,-172.33C560.49,-165.02 395.61,-149.88 256.12,-132 255.45,-131.91 254.76,-131.82 254.08,-131.73"/>
<polygon fill="#63b8ff" stroke="#63b8ff" points="254.62,-128.28 244.24,-130.37 253.67,-135.21 254.62,-128.28"/>
</a>
</g>
</g>
<!-- Node10 -->
<g id="Node000010" class="node">
<title>Node10</title>
<g id="a_Node000010"><a xlink:title=" ">
<polygon fill="#e0e0e0" stroke="#999999" points="157.62,-76 96.62,-76 96.62,-56 157.62,-56 157.62,-76"/>
<text xml:space="preserve" text-anchor="middle" x="127.12" y="-62.5" font-family="Helvetica,sans-Serif" font-size="10.00">filesystem</text>
</a>
</g>
</g>
<!-- Node1&#45;&gt;Node10 -->
<g id="edge32_Node000001_Node000010" class="edge">
<title>Node1&#45;&gt;Node10</title>
<g id="a_edge32_Node000001_Node000010"><a xlink:title=" ">
<path fill="none" stroke="#63b8ff" d="M644.46,-176.05C511.38,-173.29 183.03,-163.33 145.12,-132 132.15,-121.28 128.07,-102.1 126.99,-87.35"/>
<polygon fill="#63b8ff" stroke="#63b8ff" points="130.5,-87.68 126.7,-77.79 123.5,-87.89 130.5,-87.68"/>
</a>
</g>
</g>
<!-- Node11 -->
<g id="Node000011" class="node">
<title>Node11</title>
<g id="a_Node000011"><a xlink:href="Path_8h.html" target="_top" xlink:title=" ">
<polygon fill="white" stroke="#666666" points="78.25,-76 0,-76 0,-56 78.25,-56 78.25,-76"/>
<text xml:space="preserve" text-anchor="middle" x="39.12" y="-62.5" font-family="Helvetica,sans-Serif" font-size="10.00">LGE/fs/Path.h</text>
</a>
</g>
</g>
<!-- Node1&#45;&gt;Node11 -->
<g id="edge13_Node000001_Node000011" class="edge">
<title>Node1&#45;&gt;Node11</title>
<g id="a_edge13_Node000001_Node000011"><a xlink:title=" ">
<path fill="none" stroke="#63b8ff" d="M644.8,-176.47C520.34,-174.66 221.89,-166.72 128.12,-132 99.97,-121.57 72.88,-99.5 56.14,-83.98"/>
<polygon fill="#63b8ff" stroke="#63b8ff" points="58.7,-81.59 49.06,-77.2 53.86,-86.64 58.7,-81.59"/>
</a>
</g>
</g>
<!-- Node12 -->
<g id="Node000012" class="node">
<title>Node12</title>
<g id="a_Node000012"><a xlink:href="VFS_8h.html" target="_top" xlink:title=" ">
<polygon fill="white" stroke="#666666" points="639.88,-132 562.38,-132 562.38,-112 639.88,-112 639.88,-132"/>
<text xml:space="preserve" text-anchor="middle" x="601.12" y="-118.5" font-family="Helvetica,sans-Serif" font-size="10.00">LGE/fs/VFS.h</text>
</a>
</g>
</g>
<!-- Node1&#45;&gt;Node12 -->
<g id="edge16_Node000001_Node000012" class="edge">
<title>Node1&#45;&gt;Node12</title>
<g id="a_edge16_Node000001_Node000012"><a xlink:title=" ">
<path fill="none" stroke="#63b8ff" d="M682.88,-167.59C667.78,-159.36 645.6,-147.26 628.14,-137.74"/>
<polygon fill="#63b8ff" stroke="#63b8ff" points="630.29,-134.92 619.83,-133.2 626.94,-141.07 630.29,-134.92"/>
</a>
</g>
</g>
<!-- Node13 -->
<g id="Node000013" class="node">
<title>Node13</title>
<g id="a_Node000013"><a xlink:href="MetaDB_8h.html" target="_top" xlink:title=" ">
<polygon fill="white" stroke="#666666" points="544.12,-132 450.12,-132 450.12,-112 544.12,-112 544.12,-132"/>
<text xml:space="preserve" text-anchor="middle" x="497.12" y="-118.5" font-family="Helvetica,sans-Serif" font-size="10.00">LGE/fs/MetaDB.h</text>
</a>
</g>
</g>
<!-- Node1&#45;&gt;Node13 -->
<g id="edge22_Node000001_Node000013" class="edge">
<title>Node1&#45;&gt;Node13</title>
<g id="a_edge22_Node000001_Node000013"><a xlink:title=" ">
<path fill="none" stroke="#63b8ff" d="M664.77,-167.59C631.2,-158.67 580.56,-145.19 543.72,-135.39"/>
<polygon fill="#63b8ff" stroke="#63b8ff" points="544.79,-132.06 534.22,-132.87 542.99,-138.82 544.79,-132.06"/>
</a>
</g>
</g>
<!-- Node14 -->
<g id="Node000014" class="node">
<title>Node14</title>
<g id="a_Node000014"><a xlink:href="Log_8h.html" target="_top" xlink:title=" ">
<polygon fill="white" stroke="#666666" points="742.25,-132 658,-132 658,-112 742.25,-112 742.25,-132"/>
<text xml:space="preserve" text-anchor="middle" x="700.12" y="-118.5" font-family="Helvetica,sans-Serif" font-size="10.00">LGE/core/Log.h</text>
</a>
</g>
</g>
<!-- Node1&#45;&gt;Node14 -->
<g id="edge28_Node000001_Node000014" class="edge">
<title>Node1&#45;&gt;Node14</title>
<g id="a_edge28_Node000001_Node000014"><a xlink:title=" ">
<path fill="none" stroke="#63b8ff" d="M700.12,-167.59C700.12,-161.01 700.12,-151.96 700.12,-143.73"/>
<polygon fill="#63b8ff" stroke="#63b8ff" points="703.63,-143.81 700.13,-133.81 696.63,-143.81 703.63,-143.81"/>
</a>
</g>
</g>
<!-- Node16 -->
<g id="Node000016" class="node">
<title>Node16</title>
<g id="a_Node000016"><a xlink:title=" ">
<polygon fill="#e0e0e0" stroke="#999999" points="797.62,-132 760.62,-132 760.62,-112 797.62,-112 797.62,-132"/>
<text xml:space="preserve" text-anchor="middle" x="779.12" y="-118.5" font-family="Helvetica,sans-Serif" font-size="10.00">zip.h</text>
</a>
</g>
</g>
<!-- Node1&#45;&gt;Node16 -->
<g id="edge31_Node000001_Node000016" class="edge">
<title>Node1&#45;&gt;Node16</title>
<g id="a_edge31_Node000001_Node000016"><a xlink:title=" ">
<path fill="none" stroke="#63b8ff" d="M713.89,-167.59C725.48,-159.67 742.32,-148.16 755.99,-138.82"/>
<polygon fill="#63b8ff" stroke="#63b8ff" points="757.73,-141.87 764.01,-133.33 753.78,-136.09 757.73,-141.87"/>
</a>
</g>
</g>
<!-- Node17 -->
<g id="Node000017" class="node">
<title>Node17</title>
<g id="a_Node000017"><a xlink:title=" ">
<polygon fill="#e0e0e0" stroke="#999999" points="864.62,-132 815.62,-132 815.62,-112 864.62,-112 864.62,-132"/>
<text xml:space="preserve" text-anchor="middle" x="840.12" y="-118.5" font-family="Helvetica,sans-Serif" font-size="10.00">fstream</text>
</a>
</g>
</g>
<!-- Node1&#45;&gt;Node17 -->
<g id="edge33_Node000001_Node000017" class="edge">
<title>Node1&#45;&gt;Node17</title>
<g id="a_edge33_Node000001_Node000017"><a xlink:title=" ">
<path fill="none" stroke="#63b8ff" d="M724.51,-167.59C746.76,-159.01 779.89,-146.23 804.99,-136.55"/>
<polygon fill="#63b8ff" stroke="#63b8ff" points="806.07,-139.89 814.14,-133.02 803.55,-133.36 806.07,-139.89"/>
</a>
</g>
</g>
<!-- Node18 -->
<g id="Node000018" class="node">
<title>Node18</title>
<g id="a_Node000018"><a xlink:title=" ">
<polygon fill="#e0e0e0" stroke="#999999" points="933.75,-132 882.5,-132 882.5,-112 933.75,-112 933.75,-132"/>
<text xml:space="preserve" text-anchor="middle" x="908.12" y="-118.5" font-family="Helvetica,sans-Serif" font-size="10.00">sstream</text>
</a>
</g>
</g>
<!-- Node1&#45;&gt;Node18 -->
<g id="edge34_Node000001_Node000018" class="edge">
<title>Node1&#45;&gt;Node18</title>
<g id="a_edge34_Node000001_Node000018"><a xlink:title=" ">
<path fill="none" stroke="#63b8ff" d="M736.8,-167.58C769.69,-159.12 819.55,-146.25 871.12,-132.78"/>
<polygon fill="#63b8ff" stroke="#63b8ff" points="871.89,-136.19 880.68,-130.28 870.12,-129.42 871.89,-136.19"/>
</a>
</g>
</g>
<!-- Node19 -->
<g id="Node000019" class="node">
<title>Node19</title>
<g id="a_Node000019"><a xlink:title=" ">
<polygon fill="#e0e0e0" stroke="#999999" points="1002,-132 952.25,-132 952.25,-112 1002,-112 1002,-132"/>
<text xml:space="preserve" text-anchor="middle" x="977.12" y="-118.5" font-family="Helvetica,sans-Serif" font-size="10.00">iomanip</text>
</a>
</g>
</g>
<!-- Node1&#45;&gt;Node19 -->
<g id="edge35_Node000001_Node000019" class="edge">
<title>Node1&#45;&gt;Node19</title>
<g id="a_edge35_Node000001_Node000019"><a xlink:title=" ">
<path fill="none" stroke="#63b8ff" d="M755.86,-167.91C802.76,-159.99 871.83,-147.67 940.85,-132.38"/>
<polygon fill="#63b8ff" stroke="#63b8ff" points="941.46,-135.83 950.45,-130.23 939.93,-129 941.46,-135.83"/>
</a>
</g>
</g>
<!-- Node20 -->
<g id="Node000020" class="node">
<title>Node20</title>
<g id="a_Node000020"><a xlink:title=" ">
<polygon fill="#e0e0e0" stroke="#999999" points="1065.75,-132 1020.5,-132 1020.5,-112 1065.75,-112 1065.75,-132"/>
<text xml:space="preserve" text-anchor="middle" x="1043.12" y="-118.5" font-family="Helvetica,sans-Serif" font-size="10.00">chrono</text>
</a>
</g>
</g>
<!-- Node1&#45;&gt;Node20 -->
<g id="edge36_Node000001_Node000020" class="edge">
<title>Node1&#45;&gt;Node20</title>
<g id="a_edge36_Node000001_Node000020"><a xlink:title=" ">
<path fill="none" stroke="#63b8ff" d="M755.85,-171.16C816,-164.36 914.78,-151.76 1008.98,-132.21"/>
<polygon fill="#63b8ff" stroke="#63b8ff" points="1009.6,-135.65 1018.66,-130.16 1008.15,-128.8 1009.6,-135.65"/>
</a>
</g>
</g>
<!-- Node21 -->
<g id="Node000021" class="node">
<title>Node21</title>
<g id="a_Node000021"><a xlink:title=" ">
<polygon fill="#e0e0e0" stroke="#999999" points="1140,-132 1084.25,-132 1084.25,-112 1140,-112 1140,-132"/>
<text xml:space="preserve" text-anchor="middle" x="1112.12" y="-118.5" font-family="Helvetica,sans-Serif" font-size="10.00">algorithm</text>
</a>
</g>
</g>
<!-- Node1&#45;&gt;Node21 -->
<g id="edge37_Node000001_Node000021" class="edge">
<title>Node1&#45;&gt;Node21</title>
<g id="a_edge37_Node000001_Node000021"><a xlink:title=" ">
<path fill="none" stroke="#63b8ff" d="M755.71,-172.42C826.97,-166.08 954.51,-153.19 1072.86,-132.22"/>
<polygon fill="#63b8ff" stroke="#63b8ff" points="1073.2,-135.71 1082.43,-130.5 1071.97,-128.82 1073.2,-135.71"/>
</a>
</g>
</g>
<!-- Node22 -->
<g id="Node000022" class="node">
<title>Node22</title>
<g id="a_Node000022"><a xlink:title=" ">
<polygon fill="#e0e0e0" stroke="#999999" points="1203.75,-132 1158.5,-132 1158.5,-112 1203.75,-112 1203.75,-132"/>
<text xml:space="preserve" text-anchor="middle" x="1181.12" y="-118.5" font-family="Helvetica,sans-Serif" font-size="10.00">cstring</text>
</a>
</g>
</g>
<!-- Node1&#45;&gt;Node22 -->
<g id="edge38_Node000001_Node000022" class="edge">
<title>Node1&#45;&gt;Node22</title>
<g id="a_edge38_Node000001_Node000022"><a xlink:title=" ">
<path fill="none" stroke="#63b8ff" d="M755.87,-174.54C839.11,-170.18 1000.88,-159.07 1147.21,-132.03"/>
<polygon fill="#63b8ff" stroke="#63b8ff" points="1147.5,-135.54 1156.68,-130.25 1146.2,-128.66 1147.5,-135.54"/>
</a>
</g>
</g>
<!-- Node2&#45;&gt;Node3 -->
<g id="edge2_Node000002_Node000003" class="edge">
<title>Node2&#45;&gt;Node3</title>
<g id="a_edge2_Node000002_Node000003"><a xlink:title=" ">
<path fill="none" stroke="#63b8ff" d="M346.14,-111.59C329.36,-103.28 304.63,-91.03 285.34,-81.47"/>
<polygon fill="#63b8ff" stroke="#63b8ff" points="287.13,-78.45 276.62,-77.15 284.02,-84.73 287.13,-78.45"/>
</a>
</g>
</g>
<!-- Node4 -->
<g id="Node000004" class="node">
<title>Node4</title>
<g id="a_Node000004"><a xlink:title=" ">
<polygon fill="#e0e0e0" stroke="#999999" points="400.12,-20 360.12,-20 360.12,0 400.12,0 400.12,-20"/>
<text xml:space="preserve" text-anchor="middle" x="380.12" y="-6.5" font-family="Helvetica,sans-Serif" font-size="10.00">string</text>
</a>
</g>
</g>
<!-- Node2&#45;&gt;Node4 -->
<g id="edge5_Node000002_Node000004" class="edge">
<title>Node2&#45;&gt;Node4</title>
<g id="a_edge5_Node000002_Node000004"><a xlink:title=" ">
<path fill="none" stroke="#63b8ff" d="M366.4,-111.62C368.81,-94.01 374.04,-55.59 377.31,-31.65"/>
<polygon fill="#63b8ff" stroke="#63b8ff" points="380.76,-32.24 378.64,-21.85 373.83,-31.29 380.76,-32.24"/>
</a>
</g>
</g>
<!-- Node5 -->
<g id="Node000005" class="node">
<title>Node5</title>
<g id="a_Node000005"><a xlink:title=" ">
<polygon fill="#e0e0e0" stroke="#999999" points="341.88,-20 276.38,-20 276.38,0 341.88,0 341.88,-20"/>
<text xml:space="preserve" text-anchor="middle" x="309.12" y="-6.5" font-family="Helvetica,sans-Serif" font-size="10.00">string_view</text>
</a>
</g>
</g>
<!-- Node2&#45;&gt;Node5 -->
<g id="edge6_Node000002_Node000005" class="edge">
<title>Node2&#45;&gt;Node5</title>
<g id="a_edge6_Node000002_Node000005"><a xlink:title=" ">
<path fill="none" stroke="#63b8ff" d="M360.35,-111.62C351.22,-93.68 331.1,-54.17 318.97,-30.35"/>
<polygon fill="#63b8ff" stroke="#63b8ff" points="322.23,-29.03 314.57,-21.7 315.99,-32.2 322.23,-29.03"/>
</a>
</g>
</g>
<!-- Node6 -->
<g id="Node000006" class="node">
<title>Node6</title>
<g id="a_Node000006"><a xlink:title=" ">
<polygon fill="#e0e0e0" stroke="#999999" points="498.62,-76 455.62,-76 455.62,-56 498.62,-56 498.62,-76"/>
<text xml:space="preserve" text-anchor="middle" x="477.12" y="-62.5" font-family="Helvetica,sans-Serif" font-size="10.00">vector</text>
</a>
</g>
</g>
<!-- Node2&#45;&gt;Node6 -->
<g id="edge7_Node000002_Node000006" class="edge">
<title>Node2&#45;&gt;Node6</title>
<g id="a_edge7_Node000002_Node000006"><a xlink:title=" ">
<path fill="none" stroke="#63b8ff" d="M384.63,-111.59C401.87,-103.28 427.28,-91.03 447.11,-81.47"/>
<polygon fill="#63b8ff" stroke="#63b8ff" points="448.61,-84.63 456.1,-77.14 445.57,-78.33 448.61,-84.63"/>
</a>
</g>
</g>
<!-- Node7 -->
<g id="Node000007" class="node">
<title>Node7</title>
<g id="a_Node000007"><a xlink:title=" ">
<polygon fill="#e0e0e0" stroke="#999999" points="437.75,-76 392.5,-76 392.5,-56 437.75,-56 437.75,-76"/>
<text xml:space="preserve" text-anchor="middle" x="415.12" y="-62.5" font-family="Helvetica,sans-Serif" font-size="10.00">cstdint</text>
</a>
</g>
</g>
<!-- Node2&#45;&gt;Node7 -->
<g id="edge8_Node000002_Node000007" class="edge">
<title>Node2&#45;&gt;Node7</title>
<g id="a_edge8_Node000002_Node000007"><a xlink:title=" ">
<path fill="none" stroke="#63b8ff" d="M373.83,-111.59C380.72,-104.16 390.52,-93.58 398.84,-84.58"/>
<polygon fill="#63b8ff" stroke="#63b8ff" points="401.26,-87.12 405.49,-77.41 396.12,-82.37 401.26,-87.12"/>
</a>
</g>
</g>
<!-- Node8 -->
<g id="Node000008" class="node">
<title>Node8</title>
<g id="a_Node000008"><a xlink:title=" ">
<polygon fill="#e0e0e0" stroke="#999999" points="566,-76 516.25,-76 516.25,-56 566,-56 566,-76"/>
<text xml:space="preserve" text-anchor="middle" x="541.12" y="-62.5" font-family="Helvetica,sans-Serif" font-size="10.00">optional</text>
</a>
</g>
</g>
<!-- Node2&#45;&gt;Node8 -->
<g id="edge9_Node000002_Node000008" class="edge">
<title>Node2&#45;&gt;Node8</title>
<g id="a_edge9_Node000002_Node000008"><a xlink:title=" ">
<path fill="none" stroke="#63b8ff" d="M395.78,-111.59C426.26,-102.24 473.01,-87.9 505.21,-78.02"/>
<polygon fill="#63b8ff" stroke="#63b8ff" points="505.96,-81.45 514.5,-75.17 503.91,-74.76 505.96,-81.45"/>
</a>
</g>
</g>
<!-- Node3&#45;&gt;Node4 -->
<g id="edge3_Node000003_Node000004" class="edge">
<title>Node3&#45;&gt;Node4</title>
<g id="a_edge3_Node000003_Node000004"><a xlink:title=" ">
<path fill="none" stroke="#63b8ff" d="M277.72,-55.59C297.64,-46.92 327.41,-33.96 349.72,-24.24"/>
<polygon fill="#63b8ff" stroke="#63b8ff" points="350.85,-27.57 358.62,-20.37 348.05,-21.15 350.85,-27.57"/>
</a>
</g>
</g>
<!-- Node3&#45;&gt;Node5 -->
<g id="edge4_Node000003_Node000005" class="edge">
<title>Node3&#45;&gt;Node5</title>
<g id="a_edge4_Node000003_Node000005"><a xlink:title=" ">
<path fill="none" stroke="#63b8ff" d="M265.36,-55.59C272.73,-48.08 283.26,-37.35 292.14,-28.3"/>
<polygon fill="#63b8ff" stroke="#63b8ff" points="294.43,-30.97 298.94,-21.38 289.44,-26.06 294.43,-30.97"/>
</a>
</g>
</g>
<!-- Node9&#45;&gt;Node4 -->
<g id="edge11_Node000009_Node000004" class="edge">
<title>Node9&#45;&gt;Node4</title>
<g id="a_edge11_Node000009_Node000004"><a xlink:title=" ">
<path fill="none" stroke="#63b8ff" d="M196.13,-111.75C193.73,-97.85 191.53,-71.56 205.12,-56 246.87,-8.23 282.9,-34.85 349.01,-20.18"/>
<polygon fill="#63b8ff" stroke="#63b8ff" points="349.57,-23.64 358.42,-17.82 347.87,-16.85 349.57,-23.64"/>
</a>
</g>
</g>
<!-- Node9&#45;&gt;Node10 -->
<g id="edge12_Node000009_Node000010" class="edge">
<title>Node9&#45;&gt;Node10</title>
<g id="a_edge12_Node000009_Node000010"><a xlink:title=" ">
<path fill="none" stroke="#63b8ff" d="M185.76,-111.59C175.48,-103.77 160.61,-92.46 148.41,-83.19"/>
<polygon fill="#63b8ff" stroke="#63b8ff" points="150.63,-80.48 140.56,-77.21 146.4,-86.05 150.63,-80.48"/>
</a>
</g>
</g>
<!-- Node11&#45;&gt;Node4 -->
<g id="edge14_Node000011_Node000004" class="edge">
<title>Node11&#45;&gt;Node4</title>
<g id="a_edge14_Node000011_Node000004"><a xlink:title=" ">
<path fill="none" stroke="#63b8ff" d="M78.68,-57.58C81.87,-57.02 85.05,-56.49 88.12,-56 201.09,-37.9 233.98,-45.1 348.66,-20.24"/>
<polygon fill="#63b8ff" stroke="#63b8ff" points="349.15,-23.71 358.16,-18.14 347.65,-16.88 349.15,-23.71"/>
</a>
</g>
</g>
<!-- Node11&#45;&gt;Node5 -->
<g id="edge15_Node000011_Node000005" class="edge">
<title>Node11&#45;&gt;Node5</title>
<g id="a_edge15_Node000011_Node000005"><a xlink:title=" ">
<path fill="none" stroke="#63b8ff" d="M78.67,-57.09C128.38,-47.15 213.43,-30.14 265.13,-19.8"/>
<polygon fill="#63b8ff" stroke="#63b8ff" points="265.66,-23.26 274.78,-17.87 264.29,-16.4 265.66,-23.26"/>
</a>
</g>
</g>
<!-- Node12&#45;&gt;Node4 -->
<g id="edge17_Node000012_Node000004" class="edge">
<title>Node12&#45;&gt;Node4</title>
<g id="a_edge17_Node000012_Node000004"><a xlink:title=" ">
<path fill="none" stroke="#63b8ff" d="M609.88,-111.61C621.49,-98.01 638.98,-72.64 625.12,-56 598.32,-23.83 471.87,-14.58 411.87,-11.98"/>
<polygon fill="#63b8ff" stroke="#63b8ff" points="412.11,-8.49 401.98,-11.59 411.84,-15.48 412.11,-8.49"/>
</a>
</g>
</g>
<!-- Node12&#45;&gt;Node5 -->
<g id="edge18_Node000012_Node000005" class="edge">
<title>Node12&#45;&gt;Node5</title>
<g id="a_edge18_Node000012_Node000005"><a xlink:title=" ">
<path fill="none" stroke="#63b8ff" d="M602.96,-111.54C605.1,-97.37 606.71,-70.74 592.12,-56 556.12,-19.61 420.44,-28.5 353.07,-19.94"/>
<polygon fill="#63b8ff" stroke="#63b8ff" points="354.01,-16.55 343.6,-18.5 352.96,-23.47 354.01,-16.55"/>
</a>
</g>
</g>
<!-- Node12&#45;&gt;Node6 -->
<g id="edge19_Node000012_Node000006" class="edge">
<title>Node12&#45;&gt;Node6</title>
<g id="a_edge19_Node000012_Node000006"><a xlink:title=" ">
<path fill="none" stroke="#63b8ff" d="M579.53,-111.59C560.17,-103.17 531.52,-90.69 509.44,-81.07"/>
<polygon fill="#63b8ff" stroke="#63b8ff" points="510.85,-77.87 500.28,-77.08 508.05,-84.29 510.85,-77.87"/>
</a>
</g>
</g>
<!-- Node12&#45;&gt;Node8 -->
<g id="edge20_Node000012_Node000008" class="edge">
<title>Node12&#45;&gt;Node8</title>
<g id="a_edge20_Node000012_Node000008"><a xlink:title=" ">
<path fill="none" stroke="#63b8ff" d="M590.67,-111.59C582.16,-103.93 569.91,-92.91 559.73,-83.75"/>
<polygon fill="#63b8ff" stroke="#63b8ff" points="562.36,-81.4 552.58,-77.31 557.67,-86.6 562.36,-81.4"/>
</a>
</g>
</g>
<!-- Node13&#45;&gt;Node4 -->
<g id="edge23_Node000013_Node000004" class="edge">
<title>Node13&#45;&gt;Node4</title>
<g id="a_edge23_Node000013_Node000004"><a xlink:title=" ">
<path fill="none" stroke="#63b8ff" d="M544.07,-111.51C583.6,-101.4 630.39,-83.09 608.12,-56 583.61,-26.17 468.32,-15.79 411.68,-12.45"/>
<polygon fill="#63b8ff" stroke="#63b8ff" points="412.23,-8.98 402.05,-11.93 411.84,-15.97 412.23,-8.98"/>
</a>
</g>
</g>
<!-- Node13&#45;&gt;Node5 -->
<g id="edge24_Node000013_Node000005" class="edge">
<title>Node13&#45;&gt;Node5</title>
<g id="a_edge24_Node000013_Node000005"><a xlink:title=" ">
<path fill="none" stroke="#63b8ff" d="M524.46,-111.54C554.03,-99.86 594.5,-78.74 575.12,-56 544.34,-19.87 416.92,-28.09 353.22,-19.96"/>
<polygon fill="#63b8ff" stroke="#63b8ff" points="354.02,-16.54 343.6,-18.47 352.95,-23.46 354.02,-16.54"/>
</a>
</g>
</g>
<!-- Node13&#45;&gt;Node6 -->
<g id="edge25_Node000013_Node000006" class="edge">
<title>Node13&#45;&gt;Node6</title>
<g id="a_edge25_Node000013_Node000006"><a xlink:title=" ">
<path fill="none" stroke="#63b8ff" d="M493.64,-111.59C491.12,-104.78 487.61,-95.32 484.48,-86.86"/>
<polygon fill="#63b8ff" stroke="#63b8ff" points="487.85,-85.88 481.09,-77.72 481.29,-88.31 487.85,-85.88"/>
</a>
</g>
</g>
<!-- Node13&#45;&gt;Node7 -->
<g id="edge27_Node000013_Node000007" class="edge">
<title>Node13&#45;&gt;Node7</title>
<g id="a_edge27_Node000013_Node000007"><a xlink:title=" ">
<path fill="none" stroke="#63b8ff" d="M482.84,-111.59C470.69,-103.59 452.99,-91.93 438.73,-82.54"/>
<polygon fill="#63b8ff" stroke="#63b8ff" points="441.06,-79.89 430.78,-77.31 437.21,-85.73 441.06,-79.89"/>
</a>
</g>
</g>
<!-- Node13&#45;&gt;Node8 -->
<g id="edge26_Node000013_Node000008" class="edge">
<title>Node13&#45;&gt;Node8</title>
<g id="a_edge26_Node000013_Node000008"><a xlink:title=" ">
<path fill="none" stroke="#63b8ff" d="M504.79,-111.59C510.72,-104.32 519.11,-94.02 526.34,-85.15"/>
<polygon fill="#63b8ff" stroke="#63b8ff" points="528.99,-87.43 532.59,-77.47 523.56,-83.01 528.99,-87.43"/>
</a>
</g>
</g>
<!-- Node14&#45;&gt;Node4 -->
<g id="edge30_Node000014_Node000004" class="edge">
<title>Node14&#45;&gt;Node4</title>
<g id="a_edge30_Node000014_Node000004"><a xlink:title=" ">
<path fill="none" stroke="#63b8ff" d="M694.72,-111.67C685.78,-97.17 666.46,-69.49 642.12,-56 602.86,-34.24 471.98,-19.56 411.4,-13.77"/>
<polygon fill="#63b8ff" stroke="#63b8ff" points="412.05,-10.32 401.77,-12.87 411.4,-17.29 412.05,-10.32"/>
</a>
</g>
</g>
<!-- Node15 -->
<g id="Node000015" class="node">
<title>Node15</title>
<g id="a_Node000015"><a xlink:title=" ">
<polygon fill="#e0e0e0" stroke="#999999" points="827.88,-76 774.38,-76 774.38,-56 827.88,-56 827.88,-76"/>
<text xml:space="preserve" text-anchor="middle" x="801.12" y="-62.5" font-family="Helvetica,sans-Serif" font-size="10.00">iostream</text>
</a>
</g>
</g>
<!-- Node14&#45;&gt;Node15 -->
<g id="edge29_Node000014_Node000015" class="edge">
<title>Node14&#45;&gt;Node15</title>
<g id="a_edge29_Node000014_Node000015"><a xlink:title=" ">
<path fill="none" stroke="#63b8ff" d="M717.72,-111.59C733.05,-103.4 755.54,-91.37 773.31,-81.87"/>
<polygon fill="#63b8ff" stroke="#63b8ff" points="774.89,-84.99 782.06,-77.19 771.59,-78.82 774.89,-84.99"/>
</a>
</g>
</g>
</g>
</svg>
