<?xml version="1.0" encoding="UTF-8" standalone="no"?>
<!DOCTYPE svg PUBLIC "-//W3C//DTD SVG 1.1//EN"
 "http://www.w3.org/Graphics/SVG/1.1/DTD/svg11.dtd">
<!-- Generated by graphviz version 14.0.2 (20251019.1705)
 -->
<!-- Title: FSOps.cpp Pages: 1 -->
<svg width="1154pt" height="196pt"
 viewBox="0.00 0.00 1154.00 196.00" xmlns="http://www.w3.org/2000/svg" xmlns:xlink="http://www.w3.org/1999/xlink">
<g id="graph0" class="graph" transform="scale(1 1) rotate(0) translate(4 192)">
<title>FSOps.cpp</title>
<!-- Node1 -->
<g id="Node000001" class="node">
<title>Node1</title>
<g id="a_Node000001"><a xlink:title=" ">
<polygon fill="#999999" stroke="#666666" points="585.26,-188 519.76,-188 519.76,-168 585.26,-168 585.26,-188"/>
<text xml:space="preserve" text-anchor="middle" x="552.51" y="-174.5" font-family="Helvetica,sans-Serif" font-size="10.00">FSOps.cpp</text>
</a>
</g>
</g>
<!-- Node2 -->
<g id="Node000002" class="node">
<title>Node2</title>
<g id="a_Node000002"><a xlink:href="FSOps_8h.html" target="_top" xlink:title=" ">
<polygon fill="white" stroke="#666666" points="170.88,-132 82.13,-132 82.13,-112 170.88,-112 170.88,-132"/>
<text xml:space="preserve" text-anchor="middle" x="126.51" y="-118.5" font-family="Helvetica,sans-Serif" font-size="10.00">LGE/fs/FSOps.h</text>
</a>
</g>
</g>
<!-- Node1&#45;&gt;Node2 -->
<g id="edge1_Node000001_Node000002" class="edge">
<title>Node1&#45;&gt;Node2</title>
<g id="a_edge1_Node000001_Node000002"><a xlink:title=" ">
<path fill="none" stroke="#63b8ff" d="M519.44,-172.81C446.77,-163.6 272.52,-141.51 182.48,-130.09"/>
<polygon fill="#63b8ff" stroke="#63b8ff" points="183,-126.63 172.64,-128.85 182.12,-133.58 183,-126.63"/>
</a>
</g>
</g>
<!-- Node3 -->
<g id="Node000003" class="node">
<title>Node3</title>
<g id="a_Node000003"><a xlink:href="FileIO_8h.html" target="_top" xlink:title=" ">
<polygon fill="white" stroke="#666666" points="233.63,-76 149.38,-76 149.38,-56 233.63,-56 233.63,-76"/>
<text xml:space="preserve" text-anchor="middle" x="191.51" y="-62.5" font-family="Helvetica,sans-Serif" font-size="10.00">LGE/fs/FileIO.h</text>
</a>
</g>
</g>
<!-- Node1&#45;&gt;Node3 -->
<g id="edge16_Node000001_Node000003" class="edge">
<title>Node1&#45;&gt;Node3</title>
<g id="a_edge16_Node000001_Node000003"><a xlink:title=" ">
<path fill="none" stroke="#63b8ff" d="M519.41,-175.18C449.84,-170.88 291.05,-158.39 244.51,-132 225.76,-121.36 210.97,-101.29 201.83,-86.25"/>
<polygon fill="#63b8ff" stroke="#63b8ff" points="204.95,-84.66 196.95,-77.71 198.87,-88.13 204.95,-84.66"/>
</a>
</g>
</g>
<!-- Node6 -->
<g id="Node000006" class="node">
<title>Node6</title>
<g id="a_Node000006"><a xlink:href="Path_8h.html" target="_top" xlink:title=" ">
<polygon fill="white" stroke="#666666" points="93.63,-76 15.38,-76 15.38,-56 93.63,-56 93.63,-76"/>
<text xml:space="preserve" text-anchor="middle" x="54.51" y="-62.5" font-family="Helvetica,sans-Serif" font-size="10.00">LGE/fs/Path.h</text>
</a>
</g>
</g>
<!-- Node1&#45;&gt;Node6 -->
<g id="edge15_Node000001_Node000006" class="edge">
<title>Node1&#45;&gt;Node6</title>
<g id="a_edge15_Node000001_Node000006"><a xlink:title=" ">
<path fill="none" stroke="#63b8ff" d="M519.41,-176.01C416.63,-172.66 107.81,-160.31 73.51,-132 60.48,-121.24 56.09,-102.07 54.75,-87.33"/>
<polygon fill="#63b8ff" stroke="#63b8ff" points="58.26,-87.6 54.29,-77.78 51.27,-87.93 58.26,-87.6"/>
</a>
</g>
</g>
<!-- Node7 -->
<g id="Node000007" class="node">
<title>Node7</title>
<g id="a_Node000007"><a xlink:href="VFS_8h.html" target="_top" xlink:title=" ">
<polygon fill="white" stroke="#666666" points="629.26,-76 551.76,-76 551.76,-56 629.26,-56 629.26,-76"/>
<text xml:space="preserve" text-anchor="middle" x="590.51" y="-62.5" font-family="Helvetica,sans-Serif" font-size="10.00">LGE/fs/VFS.h</text>
</a>
</g>
</g>
<!-- Node1&#45;&gt;Node7 -->
<g id="edge10_Node000001_Node000007" class="edge">
<title>Node1&#45;&gt;Node7</title>
<g id="a_edge10_Node000001_Node000007"><a xlink:title=" ">
<path fill="none" stroke="#63b8ff" d="M556.76,-167.81C560.83,-158.81 567.02,-144.62 571.51,-132 576.77,-117.23 581.7,-100.2 585.23,-87.29"/>
<polygon fill="#63b8ff" stroke="#63b8ff" points="588.55,-88.39 587.75,-77.83 581.79,-86.59 588.55,-88.39"/>
</a>
</g>
</g>
<!-- Node10 -->
<g id="Node000010" class="node">
<title>Node10</title>
<g id="a_Node000010"><a xlink:href="MetaDB_8h.html" target="_top" xlink:title=" ">
<polygon fill="white" stroke="#666666" points="817.51,-76 723.51,-76 723.51,-56 817.51,-56 817.51,-76"/>
<text xml:space="preserve" text-anchor="middle" x="770.51" y="-62.5" font-family="Helvetica,sans-Serif" font-size="10.00">LGE/fs/MetaDB.h</text>
</a>
</g>
</g>
<!-- Node1&#45;&gt;Node10 -->
<g id="edge17_Node000001_Node000010" class="edge">
<title>Node1&#45;&gt;Node10</title>
<g id="a_edge17_Node000001_Node000010"><a xlink:title=" ">
<path fill="none" stroke="#63b8ff" d="M571.1,-167.62C609.23,-148.38 696.52,-104.34 741.91,-81.43"/>
<polygon fill="#63b8ff" stroke="#63b8ff" points="743.27,-84.67 750.62,-77.04 740.11,-78.42 743.27,-84.67"/>
</a>
</g>
</g>
<!-- Node12 -->
<g id="Node000012" class="node">
<title>Node12</title>
<g id="a_Node000012"><a xlink:href="AssetRegistry_8h.html" target="_top" xlink:title=" ">
<polygon fill="white" stroke="#666666" points="816.26,-132 696.76,-132 696.76,-112 816.26,-112 816.26,-132"/>
<text xml:space="preserve" text-anchor="middle" x="756.51" y="-118.5" font-family="Helvetica,sans-Serif" font-size="10.00">LGE/fs/AssetRegistry.h</text>
</a>
</g>
</g>
<!-- Node1&#45;&gt;Node12 -->
<g id="edge23_Node000001_Node000012" class="edge">
<title>Node1&#45;&gt;Node12</title>
<g id="a_edge23_Node000001_Node000012"><a xlink:title=" ">
<path fill="none" stroke="#63b8ff" d="M585.74,-168.2C619.55,-159.25 672.22,-145.31 710.13,-135.28"/>
<polygon fill="#63b8ff" stroke="#63b8ff" points="710.66,-138.76 719.43,-132.82 708.87,-131.99 710.66,-138.76"/>
</a>
</g>
</g>
<!-- Node15 -->
<g id="Node000015" class="node">
<title>Node15</title>
<g id="a_Node000015"><a xlink:href="Recycle_8h.html" target="_top" xlink:title=" ">
<polygon fill="white" stroke="#666666" points="562.51,-132 468.51,-132 468.51,-112 562.51,-112 562.51,-132"/>
<text xml:space="preserve" text-anchor="middle" x="515.51" y="-118.5" font-family="Helvetica,sans-Serif" font-size="10.00">LGE/fs/Recycle.h</text>
</a>
</g>
</g>
<!-- Node1&#45;&gt;Node15 -->
<g id="edge32_Node000001_Node000015" class="edge">
<title>Node1&#45;&gt;Node15</title>
<g id="a_edge32_Node000001_Node000015"><a xlink:title=" ">
<path fill="none" stroke="#63b8ff" d="M546.06,-167.59C541.18,-160.47 534.32,-150.45 528.33,-141.72"/>
<polygon fill="#63b8ff" stroke="#63b8ff" points="531.28,-139.82 522.74,-133.55 525.5,-143.77 531.28,-139.82"/>
</a>
</g>
</g>
<!-- Node16 -->
<g id="Node000016" class="node">
<title>Node16</title>
<g id="a_Node000016"><a xlink:href="Policies_8h.html" target="_top" xlink:title=" ">
<polygon fill="white" stroke="#666666" points="345.76,-132 253.26,-132 253.26,-112 345.76,-112 345.76,-132"/>
<text xml:space="preserve" text-anchor="middle" x="299.51" y="-118.5" font-family="Helvetica,sans-Serif" font-size="10.00">LGE/fs/Policies.h</text>
</a>
</g>
</g>
<!-- Node1&#45;&gt;Node16 -->
<g id="edge37_Node000001_Node000016" class="edge">
<title>Node1&#45;&gt;Node16</title>
<g id="a_edge37_Node000001_Node000016"><a xlink:title=" ">
<path fill="none" stroke="#63b8ff" d="M519.43,-169.94C477.59,-161.01 404.94,-145.5 354.65,-134.77"/>
<polygon fill="#63b8ff" stroke="#63b8ff" points="355.64,-131.4 345.13,-132.74 354.18,-138.25 355.64,-131.4"/>
</a>
</g>
</g>
<!-- Node17 -->
<g id="Node000017" class="node">
<title>Node17</title>
<g id="a_Node000017"><a xlink:href="Log_8h.html" target="_top" xlink:title=" ">
<polygon fill="white" stroke="#666666" points="450.63,-132 366.38,-132 366.38,-112 450.63,-112 450.63,-132"/>
<text xml:space="preserve" text-anchor="middle" x="408.51" y="-118.5" font-family="Helvetica,sans-Serif" font-size="10.00">LGE/core/Log.h</text>
</a>
</g>
</g>
<!-- Node1&#45;&gt;Node17 -->
<g id="edge42_Node000001_Node000017" class="edge">
<title>Node1&#45;&gt;Node17</title>
<g id="a_edge42_Node000001_Node000017"><a xlink:title=" ">
<path fill="none" stroke="#63b8ff" d="M527.43,-167.59C504.44,-158.97 470.16,-146.12 444.3,-136.42"/>
<polygon fill="#63b8ff" stroke="#63b8ff" points="445.8,-133.25 435.2,-133.01 443.34,-139.8 445.8,-133.25"/>
</a>
</g>
</g>
<!-- Node19 -->
<g id="Node000019" class="node">
<title>Node19</title>
<g id="a_Node000019"><a xlink:title=" ">
<polygon fill="#e0e0e0" stroke="#999999" points="895.01,-132 834.01,-132 834.01,-112 895.01,-112 895.01,-132"/>
<text xml:space="preserve" text-anchor="middle" x="864.51" y="-118.5" font-family="Helvetica,sans-Serif" font-size="10.00">filesystem</text>
</a>
</g>
</g>
<!-- Node1&#45;&gt;Node19 -->
<g id="edge45_Node000001_Node000019" class="edge">
<title>Node1&#45;&gt;Node19</title>
<g id="a_edge45_Node000001_Node000019"><a xlink:title=" ">
<path fill="none" stroke="#63b8ff" d="M585.41,-172.27C634.82,-165.01 731.35,-150.25 822.77,-132.45"/>
<polygon fill="#63b8ff" stroke="#63b8ff" points="823.27,-135.91 832.41,-130.55 821.92,-129.05 823.27,-135.91"/>
</a>
</g>
</g>
<!-- Node20 -->
<g id="Node000020" class="node">
<title>Node20</title>
<g id="a_Node000020"><a xlink:title=" ">
<polygon fill="#e0e0e0" stroke="#999999" points="968.38,-132 912.63,-132 912.63,-112 968.38,-112 968.38,-132"/>
<text xml:space="preserve" text-anchor="middle" x="940.51" y="-118.5" font-family="Helvetica,sans-Serif" font-size="10.00">algorithm</text>
</a>
</g>
</g>
<!-- Node1&#45;&gt;Node20 -->
<g id="edge46_Node000001_Node000020" class="edge">
<title>Node1&#45;&gt;Node20</title>
<g id="a_edge46_Node000001_Node000020"><a xlink:title=" ">
<path fill="none" stroke="#63b8ff" d="M585.71,-174.07C646.49,-168.43 779.86,-154.74 900.98,-132.5"/>
<polygon fill="#63b8ff" stroke="#63b8ff" points="901.6,-135.94 910.79,-130.67 900.32,-129.06 901.6,-135.94"/>
</a>
</g>
</g>
<!-- Node21 -->
<g id="Node000021" class="node">
<title>Node21</title>
<g id="a_Node000021"><a xlink:title=" ">
<polygon fill="#e0e0e0" stroke="#999999" points="1032.13,-132 986.88,-132 986.88,-112 1032.13,-112 1032.13,-132"/>
<text xml:space="preserve" text-anchor="middle" x="1009.51" y="-118.5" font-family="Helvetica,sans-Serif" font-size="10.00">cstring</text>
</a>
</g>
</g>
<!-- Node1&#45;&gt;Node21 -->
<g id="edge47_Node000001_Node000021" class="edge">
<title>Node1&#45;&gt;Node21</title>
<g id="a_edge47_Node000001_Node000021"><a xlink:title=" ">
<path fill="none" stroke="#63b8ff" d="M585.58,-175.4C655.7,-171.6 824.54,-160.32 975.27,-132.11"/>
<polygon fill="#63b8ff" stroke="#63b8ff" points="975.89,-135.55 985.06,-130.24 974.58,-128.68 975.89,-135.55"/>
</a>
</g>
</g>
<!-- Node2&#45;&gt;Node3 -->
<g id="edge2_Node000002_Node000003" class="edge">
<title>Node2&#45;&gt;Node3</title>
<g id="a_edge2_Node000002_Node000003"><a xlink:title=" ">
<path fill="none" stroke="#63b8ff" d="M137.83,-111.59C147.15,-103.85 160.59,-92.69 171.69,-83.47"/>
<polygon fill="#63b8ff" stroke="#63b8ff" points="173.7,-86.35 179.15,-77.27 169.22,-80.96 173.7,-86.35"/>
</a>
</g>
</g>
<!-- Node4 -->
<g id="Node000004" class="node">
<title>Node4</title>
<g id="a_Node000004"><a xlink:title=" ">
<polygon fill="#e0e0e0" stroke="#999999" points="429.51,-20 389.51,-20 389.51,0 429.51,0 429.51,-20"/>
<text xml:space="preserve" text-anchor="middle" x="409.51" y="-6.5" font-family="Helvetica,sans-Serif" font-size="10.00">string</text>
</a>
</g>
</g>
<!-- Node2&#45;&gt;Node4 -->
<g id="edge8_Node000002_Node000004" class="edge">
<title>Node2&#45;&gt;Node4</title>
<g id="a_edge8_Node000002_Node000004"><a xlink:title=" ">
<path fill="none" stroke="#63b8ff" d="M125.56,-111.95C124.63,-97.83 125.15,-70.67 140.51,-56 157.55,-39.73 310.72,-21.56 378.02,-14.27"/>
<polygon fill="#63b8ff" stroke="#63b8ff" points="378.09,-17.79 387.67,-13.24 377.35,-10.83 378.09,-17.79"/>
</a>
</g>
</g>
<!-- Node5 -->
<g id="Node000005" class="node">
<title>Node5</title>
<g id="a_Node000005"><a xlink:title=" ">
<polygon fill="#e0e0e0" stroke="#999999" points="294.26,-20 228.76,-20 228.76,0 294.26,0 294.26,-20"/>
<text xml:space="preserve" text-anchor="middle" x="261.51" y="-6.5" font-family="Helvetica,sans-Serif" font-size="10.00">string_view</text>
</a>
</g>
</g>
<!-- Node2&#45;&gt;Node5 -->
<g id="edge9_Node000002_Node000005" class="edge">
<title>Node2&#45;&gt;Node5</title>
<g id="a_edge9_Node000002_Node000005"><a xlink:title=" ">
<path fill="none" stroke="#63b8ff" d="M81.88,-113.47C38.15,-104.18 -18.54,-85.86 6.51,-56 32.88,-24.57 151.3,-15.08 217.08,-12.22"/>
<polygon fill="#63b8ff" stroke="#63b8ff" points="216.97,-15.73 226.82,-11.84 216.69,-8.74 216.97,-15.73"/>
</a>
</g>
</g>
<!-- Node2&#45;&gt;Node6 -->
<g id="edge5_Node000002_Node000006" class="edge">
<title>Node2&#45;&gt;Node6</title>
<g id="a_edge5_Node000002_Node000006"><a xlink:title=" ">
<path fill="none" stroke="#63b8ff" d="M113.97,-111.59C103.54,-103.77 88.46,-92.46 76.1,-83.19"/>
<polygon fill="#63b8ff" stroke="#63b8ff" points="78.22,-80.41 68.12,-77.21 74.02,-86.01 78.22,-80.41"/>
</a>
</g>
</g>
<!-- Node3&#45;&gt;Node4 -->
<g id="edge3_Node000003_Node000004" class="edge">
<title>Node3&#45;&gt;Node4</title>
<g id="a_edge3_Node000003_Node000004"><a xlink:title=" ">
<path fill="none" stroke="#63b8ff" d="M229.73,-55.53C271.87,-45.09 338.89,-28.49 378.09,-18.78"/>
<polygon fill="#63b8ff" stroke="#63b8ff" points="378.74,-22.23 387.61,-16.43 377.06,-15.43 378.74,-22.23"/>
</a>
</g>
</g>
<!-- Node3&#45;&gt;Node5 -->
<g id="edge4_Node000003_Node000005" class="edge">
<title>Node3&#45;&gt;Node5</title>
<g id="a_edge4_Node000003_Node000005"><a xlink:title=" ">
<path fill="none" stroke="#63b8ff" d="M203.7,-55.59C213.84,-47.77 228.5,-36.46 240.52,-27.19"/>
<polygon fill="#63b8ff" stroke="#63b8ff" points="242.48,-30.1 248.26,-21.22 238.2,-24.56 242.48,-30.1"/>
</a>
</g>
</g>
<!-- Node6&#45;&gt;Node4 -->
<g id="edge6_Node000006_Node000004" class="edge">
<title>Node6&#45;&gt;Node4</title>
<g id="a_edge6_Node000006_Node000004"><a xlink:title=" ">
<path fill="none" stroke="#63b8ff" d="M93.86,-58.23C98.46,-57.46 103.09,-56.71 107.51,-56 206.06,-40.29 322.99,-23.35 377.97,-15.49"/>
<polygon fill="#63b8ff" stroke="#63b8ff" points="378.44,-18.95 387.84,-14.07 377.45,-12.02 378.44,-18.95"/>
</a>
</g>
</g>
<!-- Node6&#45;&gt;Node5 -->
<g id="edge7_Node000006_Node000005" class="edge">
<title>Node6&#45;&gt;Node5</title>
<g id="a_edge7_Node000006_Node000005"><a xlink:title=" ">
<path fill="none" stroke="#63b8ff" d="M90.57,-55.59C125.99,-46.35 180.08,-32.24 217.9,-22.38"/>
<polygon fill="#63b8ff" stroke="#63b8ff" points="218.34,-25.88 227.13,-19.97 216.57,-19.11 218.34,-25.88"/>
</a>
</g>
</g>
<!-- Node7&#45;&gt;Node4 -->
<g id="edge11_Node000007_Node000004" class="edge">
<title>Node7&#45;&gt;Node4</title>
<g id="a_edge11_Node000007_Node000004"><a xlink:title=" ">
<path fill="none" stroke="#63b8ff" d="M558.98,-55.59C525.82,-45.7 473.95,-30.23 440.86,-20.35"/>
<polygon fill="#63b8ff" stroke="#63b8ff" points="442.03,-17.05 431.45,-17.55 440.03,-23.76 442.03,-17.05"/>
</a>
</g>
</g>
<!-- Node7&#45;&gt;Node5 -->
<g id="edge12_Node000007_Node000005" class="edge">
<title>Node7&#45;&gt;Node5</title>
<g id="a_edge12_Node000007_Node000005"><a xlink:title=" ">
<path fill="none" stroke="#63b8ff" d="M551.44,-58.34C546.75,-57.54 542.02,-56.75 537.51,-56 455.86,-42.41 360.55,-26.96 305.99,-18.16"/>
<polygon fill="#63b8ff" stroke="#63b8ff" points="306.58,-14.71 296.15,-16.57 305.47,-21.62 306.58,-14.71"/>
</a>
</g>
</g>
<!-- Node8 -->
<g id="Node000008" class="node">
<title>Node8</title>
<g id="a_Node000008"><a xlink:title=" ">
<polygon fill="#e0e0e0" stroke="#999999" points="679.01,-20 636.01,-20 636.01,0 679.01,0 679.01,-20"/>
<text xml:space="preserve" text-anchor="middle" x="657.51" y="-6.5" font-family="Helvetica,sans-Serif" font-size="10.00">vector</text>
</a>
</g>
</g>
<!-- Node7&#45;&gt;Node8 -->
<g id="edge13_Node000007_Node000008" class="edge">
<title>Node7&#45;&gt;Node8</title>
<g id="a_edge13_Node000007_Node000008"><a xlink:title=" ">
<path fill="none" stroke="#63b8ff" d="M602.18,-55.59C611.79,-47.85 625.64,-36.69 637.08,-27.47"/>
<polygon fill="#63b8ff" stroke="#63b8ff" points="639.2,-30.25 644.79,-21.25 634.81,-24.8 639.2,-30.25"/>
</a>
</g>
</g>
<!-- Node9 -->
<g id="Node000009" class="node">
<title>Node9</title>
<g id="a_Node000009"><a xlink:title=" ">
<polygon fill="#e0e0e0" stroke="#999999" points="795.38,-20 745.63,-20 745.63,0 795.38,0 795.38,-20"/>
<text xml:space="preserve" text-anchor="middle" x="770.51" y="-6.5" font-family="Helvetica,sans-Serif" font-size="10.00">optional</text>
</a>
</g>
</g>
<!-- Node7&#45;&gt;Node9 -->
<g id="edge14_Node000007_Node000009" class="edge">
<title>Node7&#45;&gt;Node9</title>
<g id="a_edge14_Node000007_Node000009"><a xlink:title=" ">
<path fill="none" stroke="#63b8ff" d="M621.86,-55.59C653.22,-46.19 701.39,-31.73 734.35,-21.85"/>
<polygon fill="#63b8ff" stroke="#63b8ff" points="735.29,-25.22 743.87,-18.99 733.28,-18.51 735.29,-25.22"/>
</a>
</g>
</g>
<!-- Node10&#45;&gt;Node4 -->
<g id="edge18_Node000010_Node000004" class="edge">
<title>Node10&#45;&gt;Node4</title>
<g id="a_edge18_Node000010_Node000004"><a xlink:title=" ">
<path fill="none" stroke="#63b8ff" d="M723.31,-57.94C648.44,-46.74 504.43,-25.2 440.92,-15.7"/>
<polygon fill="#63b8ff" stroke="#63b8ff" points="441.58,-12.26 431.18,-14.24 440.55,-19.18 441.58,-12.26"/>
</a>
</g>
</g>
<!-- Node10&#45;&gt;Node5 -->
<g id="edge19_Node000010_Node000005" class="edge">
<title>Node10&#45;&gt;Node5</title>
<g id="a_edge19_Node000010_Node000005"><a xlink:title=" ">
<path fill="none" stroke="#63b8ff" d="M723.08,-59.97C625,-49.56 401.08,-25.81 305.77,-15.7"/>
<polygon fill="#63b8ff" stroke="#63b8ff" points="306.36,-12.24 296.04,-14.66 305.62,-19.2 306.36,-12.24"/>
</a>
</g>
</g>
<!-- Node10&#45;&gt;Node8 -->
<g id="edge20_Node000010_Node000008" class="edge">
<title>Node10&#45;&gt;Node8</title>
<g id="a_edge20_Node000010_Node000008"><a xlink:title=" ">
<path fill="none" stroke="#63b8ff" d="M750.83,-55.59C733.35,-47.24 707.56,-34.92 687.51,-25.34"/>
<polygon fill="#63b8ff" stroke="#63b8ff" points="689.24,-22.29 678.71,-21.13 686.23,-28.6 689.24,-22.29"/>
</a>
</g>
</g>
<!-- Node10&#45;&gt;Node9 -->
<g id="edge21_Node000010_Node000009" class="edge">
<title>Node10&#45;&gt;Node9</title>
<g id="a_edge21_Node000010_Node000009"><a xlink:title=" ">
<path fill="none" stroke="#63b8ff" d="M770.51,-55.59C770.51,-49.01 770.51,-39.96 770.51,-31.73"/>
<polygon fill="#63b8ff" stroke="#63b8ff" points="774.01,-31.81 770.51,-21.81 767.01,-31.81 774.01,-31.81"/>
</a>
</g>
</g>
<!-- Node11 -->
<g id="Node000011" class="node">
<title>Node11</title>
<g id="a_Node000011"><a xlink:title=" ">
<polygon fill="#e0e0e0" stroke="#999999" points="906.13,-20 860.88,-20 860.88,0 906.13,0 906.13,-20"/>
<text xml:space="preserve" text-anchor="middle" x="883.51" y="-6.5" font-family="Helvetica,sans-Serif" font-size="10.00">cstdint</text>
</a>
</g>
</g>
<!-- Node10&#45;&gt;Node11 -->
<g id="edge22_Node000010_Node000011" class="edge">
<title>Node10&#45;&gt;Node11</title>
<g id="a_edge22_Node000010_Node000011"><a xlink:title=" ">
<path fill="none" stroke="#63b8ff" d="M790.19,-55.59C807.67,-47.24 833.46,-34.92 853.5,-25.34"/>
<polygon fill="#63b8ff" stroke="#63b8ff" points="854.79,-28.6 862.31,-21.13 851.78,-22.29 854.79,-28.6"/>
</a>
</g>
</g>
<!-- Node12&#45;&gt;Node4 -->
<g id="edge25_Node000012_Node000004" class="edge">
<title>Node12&#45;&gt;Node4</title>
<g id="a_edge25_Node000012_Node000004"><a xlink:title=" ">
<path fill="none" stroke="#63b8ff" d="M743.01,-111.73C721.75,-97.56 678.73,-70.63 638.51,-56 570.67,-31.33 486.34,-19.2 441.33,-14.11"/>
<polygon fill="#63b8ff" stroke="#63b8ff" points="441.81,-10.64 431.49,-13.04 441.05,-17.6 441.81,-10.64"/>
</a>
</g>
</g>
<!-- Node12&#45;&gt;Node5 -->
<g id="edge26_Node000012_Node000005" class="edge">
<title>Node12&#45;&gt;Node5</title>
<g id="a_edge26_Node000012_Node000005"><a xlink:title=" ">
<path fill="none" stroke="#63b8ff" d="M710.11,-111.52C666.73,-102.6 600.16,-88.73 542.51,-76 458.52,-57.46 360.72,-34.53 305.46,-21.45"/>
<polygon fill="#63b8ff" stroke="#63b8ff" points="306.35,-18.07 295.81,-19.17 304.74,-24.88 306.35,-18.07"/>
</a>
</g>
</g>
<!-- Node12&#45;&gt;Node8 -->
<g id="edge27_Node000012_Node000008" class="edge">
<title>Node12&#45;&gt;Node8</title>
<g id="a_edge27_Node000012_Node000008"><a xlink:title=" ">
<path fill="none" stroke="#63b8ff" d="M780.25,-111.7C806.75,-99.93 843.79,-78.49 826.51,-56 810.07,-34.61 735.02,-21.23 690.65,-15.05"/>
<polygon fill="#63b8ff" stroke="#63b8ff" points="691.16,-11.59 680.79,-13.73 690.24,-18.53 691.16,-11.59"/>
</a>
</g>
</g>
<!-- Node12&#45;&gt;Node9 -->
<g id="edge29_Node000012_Node000009" class="edge">
<title>Node12&#45;&gt;Node9</title>
<g id="a_edge29_Node000012_Node000009"><a xlink:title=" ">
<path fill="none" stroke="#63b8ff" d="M806.52,-111.58C826.52,-105.09 847.6,-94.21 859.51,-76 876.14,-50.58 837.91,-31.69 806.47,-21"/>
<polygon fill="#63b8ff" stroke="#63b8ff" points="807.76,-17.74 797.17,-18.03 805.63,-24.41 807.76,-17.74"/>
</a>
</g>
</g>
<!-- Node12&#45;&gt;Node10 -->
<g id="edge24_Node000012_Node000010" class="edge">
<title>Node12&#45;&gt;Node10</title>
<g id="a_edge24_Node000012_Node000010"><a xlink:title=" ">
<path fill="none" stroke="#63b8ff" d="M758.95,-111.59C760.67,-104.93 763.06,-95.75 765.21,-87.44"/>
<polygon fill="#63b8ff" stroke="#63b8ff" points="768.6,-88.32 767.72,-77.76 761.82,-86.56 768.6,-88.32"/>
</a>
</g>
</g>
<!-- Node12&#45;&gt;Node11 -->
<g id="edge31_Node000012_Node000011" class="edge">
<title>Node12&#45;&gt;Node11</title>
<g id="a_edge31_Node000012_Node000011"><a xlink:title=" ">
<path fill="none" stroke="#63b8ff" d="M816.61,-111.63C838.37,-105.19 861.11,-94.32 875.51,-76 885.3,-63.54 886.8,-45.39 886.14,-31.43"/>
<polygon fill="#63b8ff" stroke="#63b8ff" points="889.63,-31.22 885.23,-21.58 882.66,-31.86 889.63,-31.22"/>
</a>
</g>
</g>
<!-- Node13 -->
<g id="Node000013" class="node">
<title>Node13</title>
<g id="a_Node000013"><a xlink:title=" ">
<polygon fill="#e0e0e0" stroke="#999999" points="1145.88,-76 1063.13,-76 1063.13,-56 1145.88,-56 1145.88,-76"/>
<text xml:space="preserve" text-anchor="middle" x="1104.51" y="-62.5" font-family="Helvetica,sans-Serif" font-size="10.00">unordered_map</text>
</a>
</g>
</g>
<!-- Node12&#45;&gt;Node13 -->
<g id="edge28_Node000012_Node000013" class="edge">
<title>Node12&#45;&gt;Node13</title>
<g id="a_edge28_Node000012_Node000013"><a xlink:title=" ">
<path fill="none" stroke="#63b8ff" d="M816.52,-112.45C874.29,-104.1 964.41,-90.77 1051.61,-76.45"/>
<polygon fill="#63b8ff" stroke="#63b8ff" points="1051.99,-79.93 1061.29,-74.85 1050.85,-73.02 1051.99,-79.93"/>
</a>
</g>
</g>
<!-- Node14 -->
<g id="Node000014" class="node">
<title>Node14</title>
<g id="a_Node000014"><a xlink:title=" ">
<polygon fill="#e0e0e0" stroke="#999999" points="1045.51,-76 987.51,-76 987.51,-56 1045.51,-56 1045.51,-76"/>
<text xml:space="preserve" text-anchor="middle" x="1016.51" y="-62.5" font-family="Helvetica,sans-Serif" font-size="10.00">functional</text>
</a>
</g>
</g>
<!-- Node12&#45;&gt;Node14 -->
<g id="edge30_Node000012_Node000014" class="edge">
<title>Node12&#45;&gt;Node14</title>
<g id="a_edge30_Node000012_Node000014"><a xlink:title=" ">
<path fill="none" stroke="#63b8ff" d="M802.24,-111.54C846.15,-102.45 914.37,-88.32 973.51,-76 974.49,-75.8 975.48,-75.59 976.48,-75.38"/>
<polygon fill="#63b8ff" stroke="#63b8ff" points="976.81,-78.89 985.88,-73.42 975.38,-72.03 976.81,-78.89"/>
</a>
</g>
</g>
<!-- Node15&#45;&gt;Node3 -->
<g id="edge33_Node000015_Node000003" class="edge">
<title>Node15&#45;&gt;Node3</title>
<g id="a_edge33_Node000015_Node000003"><a xlink:title=" ">
<path fill="none" stroke="#63b8ff" d="M468.05,-113.09C408.65,-103.19 307.17,-86.28 245.05,-75.92"/>
<polygon fill="#63b8ff" stroke="#63b8ff" points="245.86,-72.51 235.42,-74.32 244.71,-79.42 245.86,-72.51"/>
</a>
</g>
</g>
<!-- Node15&#45;&gt;Node4 -->
<g id="edge34_Node000015_Node000004" class="edge">
<title>Node15&#45;&gt;Node4</title>
<g id="a_edge34_Node000015_Node000004"><a xlink:title=" ">
<path fill="none" stroke="#63b8ff" d="M506.47,-111.62C488.71,-93.19 449.03,-52.01 426.32,-28.44"/>
<polygon fill="#63b8ff" stroke="#63b8ff" points="429.03,-26.22 419.57,-21.44 423.99,-31.07 429.03,-26.22"/>
</a>
</g>
</g>
<!-- Node15&#45;&gt;Node8 -->
<g id="edge35_Node000015_Node000008" class="edge">
<title>Node15&#45;&gt;Node8</title>
<g id="a_edge35_Node000015_Node000008"><a xlink:title=" ">
<path fill="none" stroke="#63b8ff" d="M563,-114.23C588.59,-108.24 618.86,-97 638.51,-76 649.82,-63.92 654.43,-45.47 656.3,-31.31"/>
<polygon fill="#63b8ff" stroke="#63b8ff" points="659.75,-32.03 657.19,-21.74 652.78,-31.38 659.75,-32.03"/>
</a>
</g>
</g>
<!-- Node15&#45;&gt;Node11 -->
<g id="edge36_Node000015_Node000011" class="edge">
<title>Node15&#45;&gt;Node11</title>
<g id="a_edge36_Node000015_Node000011"><a xlink:title=" ">
<path fill="none" stroke="#63b8ff" d="M562.85,-118.15C638.34,-112.96 781.98,-100.17 826.51,-76 846.23,-65.3 862.36,-44.93 872.36,-29.83"/>
<polygon fill="#63b8ff" stroke="#63b8ff" points="875.12,-32.02 877.47,-21.69 869.19,-28.3 875.12,-32.02"/>
</a>
</g>
</g>
<!-- Node16&#45;&gt;Node3 -->
<g id="edge38_Node000016_Node000003" class="edge">
<title>Node16&#45;&gt;Node3</title>
<g id="a_edge38_Node000016_Node000003"><a xlink:title=" ">
<path fill="none" stroke="#63b8ff" d="M280.7,-111.59C264.15,-103.32 239.8,-91.14 220.72,-81.6"/>
<polygon fill="#63b8ff" stroke="#63b8ff" points="222.33,-78.5 211.82,-77.16 219.2,-84.76 222.33,-78.5"/>
</a>
</g>
</g>
<!-- Node16&#45;&gt;Node4 -->
<g id="edge39_Node000016_Node000004" class="edge">
<title>Node16&#45;&gt;Node4</title>
<g id="a_edge39_Node000016_Node000004"><a xlink:title=" ">
<path fill="none" stroke="#63b8ff" d="M299.94,-111.5C301.04,-97.76 304.91,-72.21 318.51,-56 333.85,-37.71 358.42,-26.18 378.17,-19.37"/>
<polygon fill="#63b8ff" stroke="#63b8ff" points="379.22,-22.72 387.69,-16.36 377.1,-16.04 379.22,-22.72"/>
</a>
</g>
</g>
<!-- Node16&#45;&gt;Node5 -->
<g id="edge40_Node000016_Node000005" class="edge">
<title>Node16&#45;&gt;Node5</title>
<g id="a_edge40_Node000016_Node000005"><a xlink:title=" ">
<path fill="none" stroke="#63b8ff" d="M296.27,-111.62C290.13,-93.84 276.67,-54.88 268.42,-31"/>
<polygon fill="#63b8ff" stroke="#63b8ff" points="271.81,-30.09 265.24,-21.79 265.19,-32.38 271.81,-30.09"/>
</a>
</g>
</g>
<!-- Node16&#45;&gt;Node8 -->
<g id="edge41_Node000016_Node000008" class="edge">
<title>Node16&#45;&gt;Node8</title>
<g id="a_edge41_Node000016_Node000008"><a xlink:title=" ">
<path fill="none" stroke="#63b8ff" d="M330.34,-111.53C397.5,-90.89 556.45,-42.05 625.06,-20.97"/>
<polygon fill="#63b8ff" stroke="#63b8ff" points="625.67,-24.45 634.2,-18.16 623.61,-17.75 625.67,-24.45"/>
</a>
</g>
</g>
<!-- Node17&#45;&gt;Node4 -->
<g id="edge44_Node000017_Node000004" class="edge">
<title>Node17&#45;&gt;Node4</title>
<g id="a_edge44_Node000017_Node000004"><a xlink:title=" ">
<path fill="none" stroke="#63b8ff" d="M408.59,-111.62C408.75,-94.01 409.1,-55.59 409.32,-31.65"/>
<polygon fill="#63b8ff" stroke="#63b8ff" points="412.82,-31.9 409.41,-21.87 405.82,-31.84 412.82,-31.9"/>
</a>
</g>
</g>
<!-- Node18 -->
<g id="Node000018" class="node">
<title>Node18</title>
<g id="a_Node000018"><a xlink:title=" ">
<polygon fill="#e0e0e0" stroke="#999999" points="381.26,-76 327.76,-76 327.76,-56 381.26,-56 381.26,-76"/>
<text xml:space="preserve" text-anchor="middle" x="354.51" y="-62.5" font-family="Helvetica,sans-Serif" font-size="10.00">iostream</text>
</a>
</g>
</g>
<!-- Node17&#45;&gt;Node18 -->
<g id="edge43_Node000017_Node000018" class="edge">
<title>Node17&#45;&gt;Node18</title>
<g id="a_edge43_Node000017_Node000018"><a xlink:title=" ">
<path fill="none" stroke="#63b8ff" d="M399.1,-111.59C391.59,-104.08 380.86,-93.35 371.81,-84.3"/>
<polygon fill="#63b8ff" stroke="#63b8ff" points="374.42,-81.96 364.88,-77.37 369.47,-86.91 374.42,-81.96"/>
</a>
</g>
</g>
</g>
</svg>
