<?xml version="1.0" encoding="UTF-8" standalone="no"?>
<!DOCTYPE svg PUBLIC "-//W3C//DTD SVG 1.1//EN"
 "http://www.w3.org/Graphics/SVG/1.1/DTD/svg11.dtd">
<!-- Generated by graphviz version 14.0.2 (20251019.1705)
 -->
<!-- Title: FSOps.h Pages: 1 -->
<svg width="214pt" height="140pt"
 viewBox="0.00 0.00 214.00 140.00" xmlns="http://www.w3.org/2000/svg" xmlns:xlink="http://www.w3.org/1999/xlink">
<g id="graph0" class="graph" transform="scale(1 1) rotate(0) translate(4 136)">
<title>FSOps.h</title>
<!-- Node1 -->
<g id="Node000001" class="node">
<title>Node1</title>
<g id="a_Node000001"><a xlink:title=" ">
<polygon fill="#999999" stroke="#666666" points="131.36,-132 76.36,-132 76.36,-112 131.36,-112 131.36,-132"/>
<text xml:space="preserve" text-anchor="middle" x="103.86" y="-118.5" font-family="Helvetica,sans-Serif" font-size="10.00">FSOps.h</text>
</a>
</g>
</g>
<!-- Node2 -->
<g id="Node000002" class="node">
<title>Node2</title>
<g id="a_Node000002"><a xlink:href="FileIO_8h.html" target="_top" xlink:title=" ">
<polygon fill="white" stroke="#666666" points="96.98,-76 12.73,-76 12.73,-56 96.98,-56 96.98,-76"/>
<text xml:space="preserve" text-anchor="middle" x="54.86" y="-62.5" font-family="Helvetica,sans-Serif" font-size="10.00">LGE/fs/FileIO.h</text>
</a>
</g>
</g>
<!-- Node1&#45;&gt;Node2 -->
<g id="edge1_Node000001_Node000002" class="edge">
<title>Node1&#45;&gt;Node2</title>
<g id="a_edge1_Node000001_Node000002"><a xlink:title=" ">
<path fill="none" stroke="#63b8ff" d="M95.32,-111.59C88.58,-104.16 78.97,-93.58 70.81,-84.58"/>
<polygon fill="#63b8ff" stroke="#63b8ff" points="73.62,-82.47 64.31,-77.42 68.44,-87.18 73.62,-82.47"/>
</a>
</g>
</g>
<!-- Node3 -->
<g id="Node000003" class="node">
<title>Node3</title>
<g id="a_Node000003"><a xlink:title=" ">
<polygon fill="#e0e0e0" stroke="#999999" points="74.86,-20 34.86,-20 34.86,0 74.86,0 74.86,-20"/>
<text xml:space="preserve" text-anchor="middle" x="54.86" y="-6.5" font-family="Helvetica,sans-Serif" font-size="10.00">string</text>
</a>
</g>
</g>
<!-- Node1&#45;&gt;Node3 -->
<g id="edge7_Node000001_Node000003" class="edge">
<title>Node1&#45;&gt;Node3</title>
<g id="a_edge7_Node000001_Node000003"><a xlink:title=" ">
<path fill="none" stroke="#63b8ff" d="M76,-116.89C52.3,-111.76 19.67,-100.46 3.86,-76 -7.62,-58.26 11,-39.41 28.88,-26.6"/>
<polygon fill="#63b8ff" stroke="#63b8ff" points="30.38,-29.81 36.74,-21.34 26.49,-24 30.38,-29.81"/>
</a>
</g>
</g>
<!-- Node4 -->
<g id="Node000004" class="node">
<title>Node4</title>
<g id="a_Node000004"><a xlink:title=" ">
<polygon fill="#e0e0e0" stroke="#999999" points="186.61,-20 121.11,-20 121.11,0 186.61,0 186.61,-20"/>
<text xml:space="preserve" text-anchor="middle" x="153.86" y="-6.5" font-family="Helvetica,sans-Serif" font-size="10.00">string_view</text>
</a>
</g>
</g>
<!-- Node1&#45;&gt;Node4 -->
<g id="edge8_Node000001_Node000004" class="edge">
<title>Node1&#45;&gt;Node4</title>
<g id="a_edge8_Node000001_Node000004"><a xlink:title=" ">
<path fill="none" stroke="#63b8ff" d="M131.63,-116.61C154.83,-111.33 186.5,-99.96 201.86,-76 212.97,-58.66 195.55,-39.83 178.67,-26.93"/>
<polygon fill="#63b8ff" stroke="#63b8ff" points="180.94,-24.24 170.76,-21.29 176.87,-29.94 180.94,-24.24"/>
</a>
</g>
</g>
<!-- Node5 -->
<g id="Node000005" class="node">
<title>Node5</title>
<g id="a_Node000005"><a xlink:href="Path_8h.html" target="_top" xlink:title=" ">
<polygon fill="white" stroke="#666666" points="192.98,-76 114.73,-76 114.73,-56 192.98,-56 192.98,-76"/>
<text xml:space="preserve" text-anchor="middle" x="153.86" y="-62.5" font-family="Helvetica,sans-Serif" font-size="10.00">LGE/fs/Path.h</text>
</a>
</g>
</g>
<!-- Node1&#45;&gt;Node5 -->
<g id="edge4_Node000001_Node000005" class="edge">
<title>Node1&#45;&gt;Node5</title>
<g id="a_edge4_Node000001_Node000005"><a xlink:title=" ">
<path fill="none" stroke="#63b8ff" d="M112.57,-111.59C119.45,-104.16 129.25,-93.58 137.57,-84.58"/>
<polygon fill="#63b8ff" stroke="#63b8ff" points="139.99,-87.12 144.22,-77.41 134.86,-82.37 139.99,-87.12"/>
</a>
</g>
</g>
<!-- Node2&#45;&gt;Node3 -->
<g id="edge2_Node000002_Node000003" class="edge">
<title>Node2&#45;&gt;Node3</title>
<g id="a_edge2_Node000002_Node000003"><a xlink:title=" ">
<path fill="none" stroke="#63b8ff" d="M54.86,-55.59C54.86,-49.01 54.86,-39.96 54.86,-31.73"/>
<polygon fill="#63b8ff" stroke="#63b8ff" points="58.36,-31.81 54.86,-21.81 51.36,-31.81 58.36,-31.81"/>
</a>
</g>
</g>
<!-- Node2&#45;&gt;Node4 -->
<g id="edge3_Node000002_Node000004" class="edge">
<title>Node2&#45;&gt;Node4</title>
<g id="a_edge3_Node000002_Node000004"><a xlink:title=" ">
<path fill="none" stroke="#63b8ff" d="M72.1,-55.59C87.2,-47.36 109.38,-35.26 126.84,-25.74"/>
<polygon fill="#63b8ff" stroke="#63b8ff" points="128.05,-29.07 135.15,-21.2 124.69,-22.92 128.05,-29.07"/>
</a>
</g>
</g>
<!-- Node5&#45;&gt;Node3 -->
<g id="edge5_Node000005_Node000003" class="edge">
<title>Node5&#45;&gt;Node3</title>
<g id="a_edge5_Node000005_Node000003"><a xlink:title=" ">
<path fill="none" stroke="#63b8ff" d="M136.61,-55.59C121.51,-47.36 99.33,-35.26 81.87,-25.74"/>
<polygon fill="#63b8ff" stroke="#63b8ff" points="84.02,-22.92 73.56,-21.2 80.67,-29.07 84.02,-22.92"/>
</a>
</g>
</g>
<!-- Node5&#45;&gt;Node4 -->
<g id="edge6_Node000005_Node000004" class="edge">
<title>Node5&#45;&gt;Node4</title>
<g id="a_edge6_Node000005_Node000004"><a xlink:title=" ">
<path fill="none" stroke="#63b8ff" d="M153.86,-55.59C153.86,-49.01 153.86,-39.96 153.86,-31.73"/>
<polygon fill="#63b8ff" stroke="#63b8ff" points="157.36,-31.81 153.86,-21.81 150.36,-31.81 157.36,-31.81"/>
</a>
</g>
</g>
</g>
</svg>
