<?xml version="1.0" encoding="UTF-8" standalone="no"?>
<!DOCTYPE svg PUBLIC "-//W3C//DTD SVG 1.1//EN"
 "http://www.w3.org/Graphics/SVG/1.1/DTD/svg11.dtd">
<!-- Generated by graphviz version 14.0.2 (20251019.1705)
 -->
<!-- Title: FSWatch.cpp Pages: 1 -->
<svg width="975pt" height="140pt"
 viewBox="0.00 0.00 975.00 140.00" xmlns="http://www.w3.org/2000/svg" xmlns:xlink="http://www.w3.org/1999/xlink">
<g id="graph0" class="graph" transform="scale(1 1) rotate(0) translate(4 136)">
<title>FSWatch.cpp</title>
<!-- Node1 -->
<g id="Node000001" class="node">
<title>Node1</title>
<g id="a_Node000001"><a xlink:title=" ">
<polygon fill="#999999" stroke="#666666" points="660.5,-132 585.25,-132 585.25,-112 660.5,-112 660.5,-132"/>
<text xml:space="preserve" text-anchor="middle" x="622.88" y="-118.5" font-family="Helvetica,sans-Serif" font-size="10.00">FSWatch.cpp</text>
</a>
</g>
</g>
<!-- Node2 -->
<g id="Node000002" class="node">
<title>Node2</title>
<g id="a_Node000002"><a xlink:href="FSWatch_8h.html" target="_top" xlink:title=" ">
<polygon fill="white" stroke="#666666" points="345.12,-76 246.62,-76 246.62,-56 345.12,-56 345.12,-76"/>
<text xml:space="preserve" text-anchor="middle" x="295.88" y="-62.5" font-family="Helvetica,sans-Serif" font-size="10.00">LGE/fs/FSWatch.h</text>
</a>
</g>
</g>
<!-- Node1&#45;&gt;Node2 -->
<g id="edge1_Node000001_Node000002" class="edge">
<title>Node1&#45;&gt;Node2</title>
<g id="a_edge1_Node000001_Node000002"><a xlink:title=" ">
<path fill="none" stroke="#63b8ff" d="M585.04,-114.75C529.1,-105.51 423.74,-88.11 356.82,-77.06"/>
<polygon fill="#63b8ff" stroke="#63b8ff" points="357.54,-73.64 347.1,-75.46 356.4,-80.54 357.54,-73.64"/>
</a>
</g>
</g>
<!-- Node8 -->
<g id="Node000008" class="node">
<title>Node8</title>
<g id="a_Node000008"><a xlink:href="VFS_8h.html" target="_top" xlink:title=" ">
<polygon fill="white" stroke="#666666" points="132.62,-76 55.12,-76 55.12,-56 132.62,-56 132.62,-76"/>
<text xml:space="preserve" text-anchor="middle" x="93.88" y="-62.5" font-family="Helvetica,sans-Serif" font-size="10.00">LGE/fs/VFS.h</text>
</a>
</g>
</g>
<!-- Node1&#45;&gt;Node8 -->
<g id="edge7_Node000001_Node000008" class="edge">
<title>Node1&#45;&gt;Node8</title>
<g id="a_edge7_Node000001_Node000008"><a xlink:title=" ">
<path fill="none" stroke="#63b8ff" d="M585.01,-118.65C505.38,-113.45 314.56,-99.64 144.3,-76.22"/>
<polygon fill="#63b8ff" stroke="#63b8ff" points="145.01,-72.78 134.62,-74.87 144.04,-79.72 145.01,-72.78"/>
</a>
</g>
</g>
<!-- Node10 -->
<g id="Node000010" class="node">
<title>Node10</title>
<g id="a_Node000010"><a xlink:href="Path_8h.html" target="_top" xlink:title=" ">
<polygon fill="white" stroke="#666666" points="229,-76 150.75,-76 150.75,-56 229,-56 229,-76"/>
<text xml:space="preserve" text-anchor="middle" x="189.88" y="-62.5" font-family="Helvetica,sans-Serif" font-size="10.00">LGE/fs/Path.h</text>
</a>
</g>
</g>
<!-- Node1&#45;&gt;Node10 -->
<g id="edge12_Node000001_Node000010" class="edge">
<title>Node1&#45;&gt;Node10</title>
<g id="a_edge12_Node000001_Node000010"><a xlink:title=" ">
<path fill="none" stroke="#63b8ff" d="M584.78,-117.43C517.42,-110.92 372.65,-96.08 240.5,-76.31"/>
<polygon fill="#63b8ff" stroke="#63b8ff" points="241.3,-72.89 230.89,-74.86 240.25,-79.81 241.3,-72.89"/>
</a>
</g>
</g>
<!-- Node11 -->
<g id="Node000011" class="node">
<title>Node11</title>
<g id="a_Node000011"><a xlink:href="FileSystemWatcher_8h.html" target="_top" xlink:title=" ">
<polygon fill="white" stroke="#666666" points="528.12,-76 363.62,-76 363.62,-56 528.12,-56 528.12,-76"/>
<text xml:space="preserve" text-anchor="middle" x="445.88" y="-62.5" font-family="Helvetica,sans-Serif" font-size="10.00">LGE/assets/FileSystemWatcher.h</text>
</a>
</g>
</g>
<!-- Node1&#45;&gt;Node11 -->
<g id="edge15_Node000001_Node000011" class="edge">
<title>Node1&#45;&gt;Node11</title>
<g id="a_edge15_Node000001_Node000011"><a xlink:title=" ">
<path fill="none" stroke="#63b8ff" d="M592.04,-111.59C563.16,-102.78 519.76,-89.54 487.75,-79.78"/>
<polygon fill="#63b8ff" stroke="#63b8ff" points="488.98,-76.49 478.39,-76.92 486.94,-83.19 488.98,-76.49"/>
</a>
</g>
</g>
<!-- Node15 -->
<g id="Node000015" class="node">
<title>Node15</title>
<g id="a_Node000015"><a xlink:title=" ">
<polygon fill="#e0e0e0" stroke="#999999" points="717.38,-20 674.38,-20 674.38,0 717.38,0 717.38,-20"/>
<text xml:space="preserve" text-anchor="middle" x="695.88" y="-6.5" font-family="Helvetica,sans-Serif" font-size="10.00">mutex</text>
</a>
</g>
</g>
<!-- Node1&#45;&gt;Node15 -->
<g id="edge28_Node000001_Node000015" class="edge">
<title>Node1&#45;&gt;Node15</title>
<g id="a_edge28_Node000001_Node000015"><a xlink:title=" ">
<path fill="none" stroke="#63b8ff" d="M629.1,-111.62C641.11,-93.52 667.7,-53.45 683.46,-29.7"/>
<polygon fill="#63b8ff" stroke="#63b8ff" points="686.22,-31.88 688.83,-21.62 680.38,-28.01 686.22,-31.88"/>
</a>
</g>
</g>
<!-- Node16 -->
<g id="Node000016" class="node">
<title>Node16</title>
<g id="a_Node000016"><a xlink:href="Log_8h.html" target="_top" xlink:title=" ">
<polygon fill="white" stroke="#666666" points="630,-76 545.75,-76 545.75,-56 630,-56 630,-76"/>
<text xml:space="preserve" text-anchor="middle" x="587.88" y="-62.5" font-family="Helvetica,sans-Serif" font-size="10.00">LGE/core/Log.h</text>
</a>
</g>
</g>
<!-- Node1&#45;&gt;Node16 -->
<g id="edge23_Node000001_Node000016" class="edge">
<title>Node1&#45;&gt;Node16</title>
<g id="a_edge23_Node000001_Node000016"><a xlink:title=" ">
<path fill="none" stroke="#63b8ff" d="M616.78,-111.59C612.16,-104.47 605.67,-94.45 600.01,-85.72"/>
<polygon fill="#63b8ff" stroke="#63b8ff" points="603.1,-84.06 594.72,-77.57 597.23,-87.86 603.1,-84.06"/>
</a>
</g>
</g>
<!-- Node18 -->
<g id="Node000018" class="node">
<title>Node18</title>
<g id="a_Node000018"><a xlink:title=" ">
<polygon fill="#e0e0e0" stroke="#999999" points="768.25,-76 685.5,-76 685.5,-56 768.25,-56 768.25,-76"/>
<text xml:space="preserve" text-anchor="middle" x="726.88" y="-62.5" font-family="Helvetica,sans-Serif" font-size="10.00">unordered_map</text>
</a>
</g>
</g>
<!-- Node1&#45;&gt;Node18 -->
<g id="edge26_Node000001_Node000018" class="edge">
<title>Node1&#45;&gt;Node18</title>
<g id="a_edge26_Node000001_Node000018"><a xlink:title=" ">
<path fill="none" stroke="#63b8ff" d="M640.99,-111.59C656.85,-103.36 680.16,-91.26 698.49,-81.74"/>
<polygon fill="#63b8ff" stroke="#63b8ff" points="700.01,-84.89 707.27,-77.18 696.79,-78.68 700.01,-84.89"/>
</a>
</g>
</g>
<!-- Node19 -->
<g id="Node000019" class="node">
<title>Node19</title>
<g id="a_Node000019"><a xlink:title=" ">
<polygon fill="#e0e0e0" stroke="#999999" points="829,-76 786.75,-76 786.75,-56 829,-56 829,-76"/>
<text xml:space="preserve" text-anchor="middle" x="807.88" y="-62.5" font-family="Helvetica,sans-Serif" font-size="10.00">queue</text>
</a>
</g>
</g>
<!-- Node1&#45;&gt;Node19 -->
<g id="edge27_Node000001_Node000019" class="edge">
<title>Node1&#45;&gt;Node19</title>
<g id="a_edge27_Node000001_Node000019"><a xlink:title=" ">
<path fill="none" stroke="#63b8ff" d="M655.1,-111.59C688.95,-101.71 741.89,-86.26 775.72,-76.39"/>
<polygon fill="#63b8ff" stroke="#63b8ff" points="776.33,-79.85 784.95,-73.69 774.37,-73.13 776.33,-79.85"/>
</a>
</g>
</g>
<!-- Node20 -->
<g id="Node000020" class="node">
<title>Node20</title>
<g id="a_Node000020"><a xlink:title=" ">
<polygon fill="#e0e0e0" stroke="#999999" points="892.5,-76 847.25,-76 847.25,-56 892.5,-56 892.5,-76"/>
<text xml:space="preserve" text-anchor="middle" x="869.88" y="-62.5" font-family="Helvetica,sans-Serif" font-size="10.00">chrono</text>
</a>
</g>
</g>
<!-- Node1&#45;&gt;Node20 -->
<g id="edge29_Node000001_Node000020" class="edge">
<title>Node1&#45;&gt;Node20</title>
<g id="a_edge29_Node000001_Node000020"><a xlink:title=" ">
<path fill="none" stroke="#63b8ff" d="M660.72,-113.89C701.62,-106.02 768.93,-92.56 836.08,-76.31"/>
<polygon fill="#63b8ff" stroke="#63b8ff" points="836.5,-79.81 845.38,-74.04 834.84,-73.01 836.5,-79.81"/>
</a>
</g>
</g>
<!-- Node21 -->
<g id="Node000021" class="node">
<title>Node21</title>
<g id="a_Node000021"><a xlink:title=" ">
<polygon fill="#e0e0e0" stroke="#999999" points="966.75,-76 911,-76 911,-56 966.75,-56 966.75,-76"/>
<text xml:space="preserve" text-anchor="middle" x="938.88" y="-62.5" font-family="Helvetica,sans-Serif" font-size="10.00">algorithm</text>
</a>
</g>
</g>
<!-- Node1&#45;&gt;Node21 -->
<g id="edge30_Node000001_Node000021" class="edge">
<title>Node1&#45;&gt;Node21</title>
<g id="a_edge30_Node000001_Node000021"><a xlink:title=" ">
<path fill="none" stroke="#63b8ff" d="M660.95,-115.83C712.72,-108.58 808.42,-94.45 899.56,-76.34"/>
<polygon fill="#63b8ff" stroke="#63b8ff" points="900.05,-79.81 909.16,-74.41 898.67,-72.95 900.05,-79.81"/>
</a>
</g>
</g>
<!-- Node3 -->
<g id="Node000003" class="node">
<title>Node3</title>
<g id="a_Node000003"><a xlink:title=" ">
<polygon fill="#e0e0e0" stroke="#999999" points="315.88,-20 275.88,-20 275.88,0 315.88,0 315.88,-20"/>
<text xml:space="preserve" text-anchor="middle" x="295.88" y="-6.5" font-family="Helvetica,sans-Serif" font-size="10.00">string</text>
</a>
</g>
</g>
<!-- Node2&#45;&gt;Node3 -->
<g id="edge2_Node000002_Node000003" class="edge">
<title>Node2&#45;&gt;Node3</title>
<g id="a_edge2_Node000002_Node000003"><a xlink:title=" ">
<path fill="none" stroke="#63b8ff" d="M295.88,-55.59C295.88,-49.01 295.88,-39.96 295.88,-31.73"/>
<polygon fill="#63b8ff" stroke="#63b8ff" points="299.38,-31.81 295.88,-21.81 292.38,-31.81 299.38,-31.81"/>
</a>
</g>
</g>
<!-- Node4 -->
<g id="Node000004" class="node">
<title>Node4</title>
<g id="a_Node000004"><a xlink:title=" ">
<polygon fill="#e0e0e0" stroke="#999999" points="133.62,-20 68.12,-20 68.12,0 133.62,0 133.62,-20"/>
<text xml:space="preserve" text-anchor="middle" x="100.88" y="-6.5" font-family="Helvetica,sans-Serif" font-size="10.00">string_view</text>
</a>
</g>
</g>
<!-- Node2&#45;&gt;Node4 -->
<g id="edge3_Node000002_Node000004" class="edge">
<title>Node2&#45;&gt;Node4</title>
<g id="a_edge3_Node000002_Node000004"><a xlink:title=" ">
<path fill="none" stroke="#63b8ff" d="M261.91,-55.59C229.42,-46.6 180.25,-32.98 144.79,-23.16"/>
<polygon fill="#63b8ff" stroke="#63b8ff" points="145.83,-19.82 135.26,-20.52 143.96,-26.56 145.83,-19.82"/>
</a>
</g>
</g>
<!-- Node5 -->
<g id="Node000005" class="node">
<title>Node5</title>
<g id="a_Node000005"><a xlink:title=" ">
<polygon fill="#e0e0e0" stroke="#999999" points="391.88,-20 333.88,-20 333.88,0 391.88,0 391.88,-20"/>
<text xml:space="preserve" text-anchor="middle" x="362.88" y="-6.5" font-family="Helvetica,sans-Serif" font-size="10.00">functional</text>
</a>
</g>
</g>
<!-- Node2&#45;&gt;Node5 -->
<g id="edge4_Node000002_Node000005" class="edge">
<title>Node2&#45;&gt;Node5</title>
<g id="a_edge4_Node000002_Node000005"><a xlink:title=" ">
<path fill="none" stroke="#63b8ff" d="M307.55,-55.59C317.15,-47.85 331,-36.69 342.44,-27.47"/>
<polygon fill="#63b8ff" stroke="#63b8ff" points="344.57,-30.25 350.16,-21.25 340.18,-24.8 344.57,-30.25"/>
</a>
</g>
</g>
<!-- Node6 -->
<g id="Node000006" class="node">
<title>Node6</title>
<g id="a_Node000006"><a xlink:title=" ">
<polygon fill="#e0e0e0" stroke="#999999" points="194.38,-20 151.38,-20 151.38,0 194.38,0 194.38,-20"/>
<text xml:space="preserve" text-anchor="middle" x="172.88" y="-6.5" font-family="Helvetica,sans-Serif" font-size="10.00">vector</text>
</a>
</g>
</g>
<!-- Node2&#45;&gt;Node6 -->
<g id="edge5_Node000002_Node000006" class="edge">
<title>Node2&#45;&gt;Node6</title>
<g id="a_edge5_Node000002_Node000006"><a xlink:title=" ">
<path fill="none" stroke="#63b8ff" d="M274.45,-55.59C255.25,-47.17 226.83,-34.69 204.93,-25.07"/>
<polygon fill="#63b8ff" stroke="#63b8ff" points="206.42,-21.9 195.85,-21.09 203.6,-28.31 206.42,-21.9"/>
</a>
</g>
</g>
<!-- Node7 -->
<g id="Node000007" class="node">
<title>Node7</title>
<g id="a_Node000007"><a xlink:title=" ">
<polygon fill="#e0e0e0" stroke="#999999" points="257.5,-20 212.25,-20 212.25,0 257.5,0 257.5,-20"/>
<text xml:space="preserve" text-anchor="middle" x="234.88" y="-6.5" font-family="Helvetica,sans-Serif" font-size="10.00">cstdint</text>
</a>
</g>
</g>
<!-- Node2&#45;&gt;Node7 -->
<g id="edge6_Node000002_Node000007" class="edge">
<title>Node2&#45;&gt;Node7</title>
<g id="a_edge6_Node000002_Node000007"><a xlink:title=" ">
<path fill="none" stroke="#63b8ff" d="M285.25,-55.59C276.59,-47.93 264.14,-36.91 253.79,-27.75"/>
<polygon fill="#63b8ff" stroke="#63b8ff" points="256.32,-25.31 246.51,-21.3 251.68,-30.55 256.32,-25.31"/>
</a>
</g>
</g>
<!-- Node8&#45;&gt;Node3 -->
<g id="edge8_Node000008_Node000003" class="edge">
<title>Node8&#45;&gt;Node3</title>
<g id="a_edge8_Node000008_Node000003"><a xlink:title=" ">
<path fill="none" stroke="#63b8ff" d="M132.49,-55.5C165.31,-47.31 213.92,-34.89 264.75,-20.51"/>
<polygon fill="#63b8ff" stroke="#63b8ff" points="265.51,-23.93 274.17,-17.83 263.6,-17.2 265.51,-23.93"/>
</a>
</g>
</g>
<!-- Node8&#45;&gt;Node4 -->
<g id="edge9_Node000008_Node000004" class="edge">
<title>Node8&#45;&gt;Node4</title>
<g id="a_edge9_Node000008_Node000004"><a xlink:title=" ">
<path fill="none" stroke="#63b8ff" d="M95.09,-55.59C95.96,-48.93 97.15,-39.75 98.23,-31.44"/>
<polygon fill="#63b8ff" stroke="#63b8ff" points="101.66,-32.17 99.48,-21.8 94.72,-31.27 101.66,-32.17"/>
</a>
</g>
</g>
<!-- Node8&#45;&gt;Node6 -->
<g id="edge10_Node000008_Node000006" class="edge">
<title>Node8&#45;&gt;Node6</title>
<g id="a_edge10_Node000008_Node000006"><a xlink:title=" ">
<path fill="none" stroke="#63b8ff" d="M107.64,-55.59C119.23,-47.67 136.07,-36.16 149.74,-26.82"/>
<polygon fill="#63b8ff" stroke="#63b8ff" points="151.48,-29.87 157.76,-21.33 147.53,-24.09 151.48,-29.87"/>
</a>
</g>
</g>
<!-- Node9 -->
<g id="Node000009" class="node">
<title>Node9</title>
<g id="a_Node000009"><a xlink:title=" ">
<polygon fill="#e0e0e0" stroke="#999999" points="49.75,-20 0,-20 0,0 49.75,0 49.75,-20"/>
<text xml:space="preserve" text-anchor="middle" x="24.88" y="-6.5" font-family="Helvetica,sans-Serif" font-size="10.00">optional</text>
</a>
</g>
</g>
<!-- Node8&#45;&gt;Node9 -->
<g id="edge11_Node000008_Node000009" class="edge">
<title>Node8&#45;&gt;Node9</title>
<g id="a_edge11_Node000008_Node000009"><a xlink:title=" ">
<path fill="none" stroke="#63b8ff" d="M81.86,-55.59C71.86,-47.77 57.41,-36.46 45.57,-27.19"/>
<polygon fill="#63b8ff" stroke="#63b8ff" points="47.98,-24.64 37.95,-21.23 43.67,-30.15 47.98,-24.64"/>
</a>
</g>
</g>
<!-- Node10&#45;&gt;Node3 -->
<g id="edge13_Node000010_Node000003" class="edge">
<title>Node10&#45;&gt;Node3</title>
<g id="a_edge13_Node000010_Node000003"><a xlink:title=" ">
<path fill="none" stroke="#63b8ff" d="M208.34,-55.59C224.58,-47.32 248.48,-35.14 267.21,-25.6"/>
<polygon fill="#63b8ff" stroke="#63b8ff" points="268.6,-28.82 275.92,-21.17 265.42,-22.59 268.6,-28.82"/>
</a>
</g>
</g>
<!-- Node10&#45;&gt;Node4 -->
<g id="edge14_Node000010_Node000004" class="edge">
<title>Node10&#45;&gt;Node4</title>
<g id="a_edge14_Node000010_Node000004"><a xlink:title=" ">
<path fill="none" stroke="#63b8ff" d="M174.37,-55.59C161.05,-47.51 141.6,-35.71 126.05,-26.27"/>
<polygon fill="#63b8ff" stroke="#63b8ff" points="128.16,-23.46 117.79,-21.26 124.53,-29.44 128.16,-23.46"/>
</a>
</g>
</g>
<!-- Node11&#45;&gt;Node3 -->
<g id="edge16_Node000011_Node000003" class="edge">
<title>Node11&#45;&gt;Node3</title>
<g id="a_edge16_Node000011_Node000003"><a xlink:title=" ">
<path fill="none" stroke="#63b8ff" d="M419.75,-55.59C393.78,-46.25 353.97,-31.91 326.52,-22.03"/>
<polygon fill="#63b8ff" stroke="#63b8ff" points="327.97,-18.83 317.37,-18.74 325.6,-25.42 327.97,-18.83"/>
</a>
</g>
</g>
<!-- Node11&#45;&gt;Node5 -->
<g id="edge17_Node000011_Node000005" class="edge">
<title>Node11&#45;&gt;Node5</title>
<g id="a_edge17_Node000011_Node000005"><a xlink:title=" ">
<path fill="none" stroke="#63b8ff" d="M431.42,-55.59C419.12,-47.59 401.2,-35.93 386.77,-26.54"/>
<polygon fill="#63b8ff" stroke="#63b8ff" points="389,-23.82 378.71,-21.3 385.19,-29.69 389,-23.82"/>
</a>
</g>
</g>
<!-- Node11&#45;&gt;Node6 -->
<g id="edge19_Node000011_Node000006" class="edge">
<title>Node11&#45;&gt;Node6</title>
<g id="a_edge19_Node000011_Node000006"><a xlink:title=" ">
<path fill="none" stroke="#63b8ff" d="M384.57,-55.54C337.81,-47.89 271.61,-36.15 205.75,-20.51"/>
<polygon fill="#63b8ff" stroke="#63b8ff" points="206.77,-17.16 196.23,-18.22 205.13,-23.96 206.77,-17.16"/>
</a>
</g>
</g>
<!-- Node12 -->
<g id="Node000012" class="node">
<title>Node12</title>
<g id="a_Node000012"><a xlink:title=" ">
<polygon fill="#e0e0e0" stroke="#999999" points="461.5,-20 410.25,-20 410.25,0 461.5,0 461.5,-20"/>
<text xml:space="preserve" text-anchor="middle" x="435.88" y="-6.5" font-family="Helvetica,sans-Serif" font-size="10.00">memory</text>
</a>
</g>
</g>
<!-- Node11&#45;&gt;Node12 -->
<g id="edge18_Node000011_Node000012" class="edge">
<title>Node11&#45;&gt;Node12</title>
<g id="a_edge18_Node000011_Node000012"><a xlink:title=" ">
<path fill="none" stroke="#63b8ff" d="M444.13,-55.59C442.9,-48.93 441.2,-39.75 439.66,-31.44"/>
<polygon fill="#63b8ff" stroke="#63b8ff" points="443.13,-30.98 437.87,-21.79 436.25,-32.26 443.13,-30.98"/>
</a>
</g>
</g>
<!-- Node13 -->
<g id="Node000013" class="node">
<title>Node13</title>
<g id="a_Node000013"><a xlink:title=" ">
<polygon fill="#e0e0e0" stroke="#999999" points="522.38,-20 479.38,-20 479.38,0 522.38,0 522.38,-20"/>
<text xml:space="preserve" text-anchor="middle" x="500.88" y="-6.5" font-family="Helvetica,sans-Serif" font-size="10.00">thread</text>
</a>
</g>
</g>
<!-- Node11&#45;&gt;Node13 -->
<g id="edge20_Node000011_Node000013" class="edge">
<title>Node11&#45;&gt;Node13</title>
<g id="a_edge20_Node000011_Node000013"><a xlink:title=" ">
<path fill="none" stroke="#63b8ff" d="M455.46,-55.59C463.11,-48.08 474.03,-37.35 483.25,-28.3"/>
<polygon fill="#63b8ff" stroke="#63b8ff" points="485.64,-30.86 490.32,-21.36 480.74,-25.87 485.64,-30.86"/>
</a>
</g>
</g>
<!-- Node14 -->
<g id="Node000014" class="node">
<title>Node14</title>
<g id="a_Node000014"><a xlink:title=" ">
<polygon fill="#e0e0e0" stroke="#999999" points="585.5,-20 540.25,-20 540.25,0 585.5,0 585.5,-20"/>
<text xml:space="preserve" text-anchor="middle" x="562.88" y="-6.5" font-family="Helvetica,sans-Serif" font-size="10.00">atomic</text>
</a>
</g>
</g>
<!-- Node11&#45;&gt;Node14 -->
<g id="edge21_Node000011_Node000014" class="edge">
<title>Node11&#45;&gt;Node14</title>
<g id="a_edge21_Node000011_Node000014"><a xlink:title=" ">
<path fill="none" stroke="#63b8ff" d="M466.25,-55.59C484.43,-47.21 511.3,-34.8 532.09,-25.21"/>
<polygon fill="#63b8ff" stroke="#63b8ff" points="533.35,-28.48 540.96,-21.11 530.42,-22.13 533.35,-28.48"/>
</a>
</g>
</g>
<!-- Node11&#45;&gt;Node15 -->
<g id="edge22_Node000011_Node000015" class="edge">
<title>Node11&#45;&gt;Node15</title>
<g id="a_edge22_Node000011_Node000015"><a xlink:title=" ">
<path fill="none" stroke="#63b8ff" d="M499.08,-55.5C541.29,-47.66 602,-35.68 663,-20.57"/>
<polygon fill="#63b8ff" stroke="#63b8ff" points="663.67,-24.01 672.51,-18.18 661.96,-17.22 663.67,-24.01"/>
</a>
</g>
</g>
<!-- Node16&#45;&gt;Node3 -->
<g id="edge25_Node000016_Node000003" class="edge">
<title>Node16&#45;&gt;Node3</title>
<g id="a_edge25_Node000016_Node000003"><a xlink:title=" ">
<path fill="none" stroke="#63b8ff" d="M545.3,-57.47C542.45,-56.97 539.62,-56.48 536.88,-56 446.2,-40.3 419.77,-42.05 327.08,-20.27"/>
<polygon fill="#63b8ff" stroke="#63b8ff" points="328.07,-16.9 317.53,-17.99 326.45,-23.71 328.07,-16.9"/>
</a>
</g>
</g>
<!-- Node17 -->
<g id="Node000017" class="node">
<title>Node17</title>
<g id="a_Node000017"><a xlink:title=" ">
<polygon fill="#e0e0e0" stroke="#999999" points="656.62,-20 603.12,-20 603.12,0 656.62,0 656.62,-20"/>
<text xml:space="preserve" text-anchor="middle" x="629.88" y="-6.5" font-family="Helvetica,sans-Serif" font-size="10.00">iostream</text>
</a>
</g>
</g>
<!-- Node16&#45;&gt;Node17 -->
<g id="edge24_Node000016_Node000017" class="edge">
<title>Node16&#45;&gt;Node17</title>
<g id="a_edge24_Node000016_Node000017"><a xlink:title=" ">
<path fill="none" stroke="#63b8ff" d="M595.19,-55.59C600.85,-48.32 608.86,-38.02 615.76,-29.15"/>
<polygon fill="#63b8ff" stroke="#63b8ff" points="618.34,-31.54 621.71,-21.49 612.81,-27.24 618.34,-31.54"/>
</a>
</g>
</g>
</g>
</svg>
