<?xml version="1.0" encoding="UTF-8" standalone="no"?>
<!DOCTYPE svg PUBLIC "-//W3C//DTD SVG 1.1//EN"
 "http://www.w3.org/Graphics/SVG/1.1/DTD/svg11.dtd">
<!-- Generated by graphviz version 14.0.2 (20251019.1705)
 -->
<!-- Title: FSWatch.h Pages: 1 -->
<svg width="333pt" height="84pt"
 viewBox="0.00 0.00 333.00 84.00" xmlns="http://www.w3.org/2000/svg" xmlns:xlink="http://www.w3.org/1999/xlink">
<g id="graph0" class="graph" transform="scale(1 1) rotate(0) translate(4 80)">
<title>FSWatch.h</title>
<!-- Node1 -->
<g id="Node000001" class="node">
<title>Node1</title>
<g id="a_Node000001"><a xlink:title=" ">
<polygon fill="#999999" stroke="#666666" points="203.38,-76 138.62,-76 138.62,-56 203.38,-56 203.38,-76"/>
<text xml:space="preserve" text-anchor="middle" x="171" y="-62.5" font-family="Helvetica,sans-Serif" font-size="10.00">FSWatch.h</text>
</a>
</g>
</g>
<!-- Node2 -->
<g id="Node000002" class="node">
<title>Node2</title>
<g id="a_Node000002"><a xlink:title=" ">
<polygon fill="#e0e0e0" stroke="#999999" points="40,-20 0,-20 0,0 40,0 40,-20"/>
<text xml:space="preserve" text-anchor="middle" x="20" y="-6.5" font-family="Helvetica,sans-Serif" font-size="10.00">string</text>
</a>
</g>
</g>
<!-- Node1&#45;&gt;Node2 -->
<g id="edge1_Node000001_Node000002" class="edge">
<title>Node1&#45;&gt;Node2</title>
<g id="a_edge1_Node000001_Node000002"><a xlink:title=" ">
<path fill="none" stroke="#63b8ff" d="M144.7,-55.59C118.56,-46.25 78.48,-31.91 50.85,-22.03"/>
<polygon fill="#63b8ff" stroke="#63b8ff" points="52.23,-18.81 41.63,-18.74 49.87,-25.4 52.23,-18.81"/>
</a>
</g>
</g>
<!-- Node3 -->
<g id="Node000003" class="node">
<title>Node3</title>
<g id="a_Node000003"><a xlink:title=" ">
<polygon fill="#e0e0e0" stroke="#999999" points="123.75,-20 58.25,-20 58.25,0 123.75,0 123.75,-20"/>
<text xml:space="preserve" text-anchor="middle" x="91" y="-6.5" font-family="Helvetica,sans-Serif" font-size="10.00">string_view</text>
</a>
</g>
</g>
<!-- Node1&#45;&gt;Node3 -->
<g id="edge2_Node000001_Node000003" class="edge">
<title>Node1&#45;&gt;Node3</title>
<g id="a_edge2_Node000001_Node000003"><a xlink:title=" ">
<path fill="none" stroke="#63b8ff" d="M157.07,-55.59C145.32,-47.67 128.27,-36.16 114.43,-26.82"/>
<polygon fill="#63b8ff" stroke="#63b8ff" points="116.54,-24.02 106.3,-21.33 112.63,-29.82 116.54,-24.02"/>
</a>
</g>
</g>
<!-- Node4 -->
<g id="Node000004" class="node">
<title>Node4</title>
<g id="a_Node000004"><a xlink:title=" ">
<polygon fill="#e0e0e0" stroke="#999999" points="200,-20 142,-20 142,0 200,0 200,-20"/>
<text xml:space="preserve" text-anchor="middle" x="171" y="-6.5" font-family="Helvetica,sans-Serif" font-size="10.00">functional</text>
</a>
</g>
</g>
<!-- Node1&#45;&gt;Node4 -->
<g id="edge3_Node000001_Node000004" class="edge">
<title>Node1&#45;&gt;Node4</title>
<g id="a_edge3_Node000001_Node000004"><a xlink:title=" ">
<path fill="none" stroke="#63b8ff" d="M171,-55.59C171,-49.01 171,-39.96 171,-31.73"/>
<polygon fill="#63b8ff" stroke="#63b8ff" points="174.5,-31.81 171,-21.81 167.5,-31.81 174.5,-31.81"/>
</a>
</g>
</g>
<!-- Node5 -->
<g id="Node000005" class="node">
<title>Node5</title>
<g id="a_Node000005"><a xlink:title=" ">
<polygon fill="#e0e0e0" stroke="#999999" points="261.5,-20 218.5,-20 218.5,0 261.5,0 261.5,-20"/>
<text xml:space="preserve" text-anchor="middle" x="240" y="-6.5" font-family="Helvetica,sans-Serif" font-size="10.00">vector</text>
</a>
</g>
</g>
<!-- Node1&#45;&gt;Node5 -->
<g id="edge4_Node000001_Node000005" class="edge">
<title>Node1&#45;&gt;Node5</title>
<g id="a_edge4_Node000001_Node000005"><a xlink:title=" ">
<path fill="none" stroke="#63b8ff" d="M183.02,-55.59C193.01,-47.77 207.46,-36.46 219.31,-27.19"/>
<polygon fill="#63b8ff" stroke="#63b8ff" points="221.21,-30.15 226.93,-21.23 216.89,-24.64 221.21,-30.15"/>
</a>
</g>
</g>
<!-- Node6 -->
<g id="Node000006" class="node">
<title>Node6</title>
<g id="a_Node000006"><a xlink:title=" ">
<polygon fill="#e0e0e0" stroke="#999999" points="324.62,-20 279.38,-20 279.38,0 324.62,0 324.62,-20"/>
<text xml:space="preserve" text-anchor="middle" x="302" y="-6.5" font-family="Helvetica,sans-Serif" font-size="10.00">cstdint</text>
</a>
</g>
</g>
<!-- Node1&#45;&gt;Node6 -->
<g id="edge5_Node000001_Node000006" class="edge">
<title>Node1&#45;&gt;Node6</title>
<g id="a_edge5_Node000001_Node000006"><a xlink:title=" ">
<path fill="none" stroke="#63b8ff" d="M193.82,-55.59C214.45,-47.09 245.08,-34.46 268.49,-24.81"/>
<polygon fill="#63b8ff" stroke="#63b8ff" points="269.69,-28.1 277.6,-21.06 267.02,-21.63 269.69,-28.1"/>
</a>
</g>
</g>
</g>
</svg>
