<?xml version="1.0" encoding="UTF-8" standalone="no"?>
<!DOCTYPE svg PUBLIC "-//W3C//DTD SVG 1.1//EN"
 "http://www.w3.org/Graphics/SVG/1.1/DTD/svg11.dtd">
<!-- Generated by graphviz version 14.0.2 (20251019.1705)
 -->
<!-- Title: GameObject.h Pages: 1 -->
<svg width="435pt" height="196pt"
 viewBox="0.00 0.00 435.00 196.00" xmlns="http://www.w3.org/2000/svg" xmlns:xlink="http://www.w3.org/1999/xlink">
<g id="graph0" class="graph" transform="scale(1 1) rotate(0) translate(4 192)">
<title>GameObject.h</title>
<!-- Node1 -->
<g id="Node000001" class="node">
<title>Node1</title>
<g id="a_Node000001"><a xlink:title=" ">
<polygon fill="#999999" stroke="#666666" points="283.12,-188 204.12,-188 204.12,-168 283.12,-168 283.12,-188"/>
<text xml:space="preserve" text-anchor="middle" x="243.62" y="-174.5" font-family="Helvetica,sans-Serif" font-size="10.00">GameObject.h</text>
</a>
</g>
</g>
<!-- Node2 -->
<g id="Node000002" class="node">
<title>Node2</title>
<g id="a_Node000002"><a xlink:href="Vector_8h.html" target="_top" xlink:title=" ">
<polygon fill="white" stroke="#666666" points="99.25,-76 0,-76 0,-56 99.25,-56 99.25,-76"/>
<text xml:space="preserve" text-anchor="middle" x="49.62" y="-62.5" font-family="Helvetica,sans-Serif" font-size="10.00">LGE/math/Vector.h</text>
</a>
</g>
</g>
<!-- Node1&#45;&gt;Node2 -->
<g id="edge1_Node000001_Node000002" class="edge">
<title>Node1&#45;&gt;Node2</title>
<g id="a_edge1_Node000001_Node000002"><a xlink:title=" ">
<path fill="none" stroke="#63b8ff" d="M203.84,-177.5C164.41,-175.81 104.8,-167.02 68.62,-132 56.73,-120.49 52.17,-101.99 50.48,-87.66"/>
<polygon fill="#63b8ff" stroke="#63b8ff" points="53.99,-87.63 49.73,-77.93 47.01,-88.17 53.99,-87.63"/>
</a>
</g>
</g>
<!-- Node4 -->
<g id="Node000004" class="node">
<title>Node4</title>
<g id="a_Node000004"><a xlink:href="Matrix_8h.html" target="_top" xlink:title=" ">
<polygon fill="white" stroke="#666666" points="175.88,-132 77.38,-132 77.38,-112 175.88,-112 175.88,-132"/>
<text xml:space="preserve" text-anchor="middle" x="126.62" y="-118.5" font-family="Helvetica,sans-Serif" font-size="10.00">LGE/math/Matrix.h</text>
</a>
</g>
</g>
<!-- Node1&#45;&gt;Node4 -->
<g id="edge3_Node000001_Node000004" class="edge">
<title>Node1&#45;&gt;Node4</title>
<g id="a_edge3_Node000001_Node000004"><a xlink:title=" ">
<path fill="none" stroke="#63b8ff" d="M223.25,-167.59C205.07,-159.21 178.2,-146.8 157.41,-137.21"/>
<polygon fill="#63b8ff" stroke="#63b8ff" points="159.08,-134.13 148.54,-133.11 156.15,-140.48 159.08,-134.13"/>
</a>
</g>
</g>
<!-- Node6 -->
<g id="Node000006" class="node">
<title>Node6</title>
<g id="a_Node000006"><a xlink:title=" ">
<polygon fill="#e0e0e0" stroke="#999999" points="233.62,-132 193.62,-132 193.62,-112 233.62,-112 233.62,-132"/>
<text xml:space="preserve" text-anchor="middle" x="213.62" y="-118.5" font-family="Helvetica,sans-Serif" font-size="10.00">string</text>
</a>
</g>
</g>
<!-- Node1&#45;&gt;Node6 -->
<g id="edge6_Node000001_Node000006" class="edge">
<title>Node1&#45;&gt;Node6</title>
<g id="a_edge6_Node000001_Node000006"><a xlink:title=" ">
<path fill="none" stroke="#63b8ff" d="M238.4,-167.59C234.53,-160.63 229.12,-150.89 224.34,-142.29"/>
<polygon fill="#63b8ff" stroke="#63b8ff" points="227.44,-140.66 219.53,-133.62 221.32,-144.06 227.44,-140.66"/>
</a>
</g>
</g>
<!-- Node7 -->
<g id="Node000007" class="node">
<title>Node7</title>
<g id="a_Node000007"><a xlink:title=" ">
<polygon fill="#e0e0e0" stroke="#999999" points="297.25,-132 252,-132 252,-112 297.25,-112 297.25,-132"/>
<text xml:space="preserve" text-anchor="middle" x="274.62" y="-118.5" font-family="Helvetica,sans-Serif" font-size="10.00">cstdint</text>
</a>
</g>
</g>
<!-- Node1&#45;&gt;Node7 -->
<g id="edge7_Node000001_Node000007" class="edge">
<title>Node1&#45;&gt;Node7</title>
<g id="a_edge7_Node000001_Node000007"><a xlink:title=" ">
<path fill="none" stroke="#63b8ff" d="M249.02,-167.59C253.07,-160.55 258.74,-150.67 263.72,-142"/>
<polygon fill="#63b8ff" stroke="#63b8ff" points="266.59,-144.03 268.53,-133.61 260.52,-140.54 266.59,-144.03"/>
</a>
</g>
</g>
<!-- Node8 -->
<g id="Node000008" class="node">
<title>Node8</title>
<g id="a_Node000008"><a xlink:title=" ">
<polygon fill="#e0e0e0" stroke="#999999" points="358.12,-132 315.12,-132 315.12,-112 358.12,-112 358.12,-132"/>
<text xml:space="preserve" text-anchor="middle" x="336.62" y="-118.5" font-family="Helvetica,sans-Serif" font-size="10.00">vector</text>
</a>
</g>
</g>
<!-- Node1&#45;&gt;Node8 -->
<g id="edge8_Node000001_Node000008" class="edge">
<title>Node1&#45;&gt;Node8</title>
<g id="a_edge8_Node000001_Node000008"><a xlink:title=" ">
<path fill="none" stroke="#63b8ff" d="M259.82,-167.59C273.87,-159.44 294.46,-147.48 310.78,-138"/>
<polygon fill="#63b8ff" stroke="#63b8ff" points="312.1,-141.29 318.99,-133.24 308.58,-135.23 312.1,-141.29"/>
</a>
</g>
</g>
<!-- Node9 -->
<g id="Node000009" class="node">
<title>Node9</title>
<g id="a_Node000009"><a xlink:title=" ">
<polygon fill="#e0e0e0" stroke="#999999" points="427.25,-132 376,-132 376,-112 427.25,-112 427.25,-132"/>
<text xml:space="preserve" text-anchor="middle" x="401.62" y="-118.5" font-family="Helvetica,sans-Serif" font-size="10.00">memory</text>
</a>
</g>
</g>
<!-- Node1&#45;&gt;Node9 -->
<g id="edge9_Node000001_Node000009" class="edge">
<title>Node1&#45;&gt;Node9</title>
<g id="a_edge9_Node000001_Node000009"><a xlink:title=" ">
<path fill="none" stroke="#63b8ff" d="M271.15,-167.59C297.14,-158.71 336.3,-145.33 364.94,-135.54"/>
<polygon fill="#63b8ff" stroke="#63b8ff" points="365.97,-138.89 374.3,-132.34 363.7,-132.26 365.97,-138.89"/>
</a>
</g>
</g>
<!-- Node3 -->
<g id="Node000003" class="node">
<title>Node3</title>
<g id="a_Node000003"><a xlink:title=" ">
<polygon fill="#e0e0e0" stroke="#999999" points="71.12,-20 28.12,-20 28.12,0 71.12,0 71.12,-20"/>
<text xml:space="preserve" text-anchor="middle" x="49.62" y="-6.5" font-family="Helvetica,sans-Serif" font-size="10.00">cmath</text>
</a>
</g>
</g>
<!-- Node2&#45;&gt;Node3 -->
<g id="edge2_Node000002_Node000003" class="edge">
<title>Node2&#45;&gt;Node3</title>
<g id="a_edge2_Node000002_Node000003"><a xlink:title=" ">
<path fill="none" stroke="#63b8ff" d="M49.62,-55.59C49.62,-49.01 49.62,-39.96 49.62,-31.73"/>
<polygon fill="#63b8ff" stroke="#63b8ff" points="53.13,-31.81 49.63,-21.81 46.13,-31.81 53.13,-31.81"/>
</a>
</g>
</g>
<!-- Node4&#45;&gt;Node2 -->
<g id="edge4_Node000004_Node000002" class="edge">
<title>Node4&#45;&gt;Node2</title>
<g id="a_edge4_Node000004_Node000002"><a xlink:title=" ">
<path fill="none" stroke="#63b8ff" d="M113.21,-111.59C102.02,-103.74 85.81,-92.38 72.57,-83.09"/>
<polygon fill="#63b8ff" stroke="#63b8ff" points="74.58,-80.22 64.38,-77.35 70.56,-85.96 74.58,-80.22"/>
</a>
</g>
</g>
<!-- Node5 -->
<g id="Node000005" class="node">
<title>Node5</title>
<g id="a_Node000005"><a xlink:title=" ">
<polygon fill="#e0e0e0" stroke="#999999" points="155.5,-76 117.75,-76 117.75,-56 155.5,-56 155.5,-76"/>
<text xml:space="preserve" text-anchor="middle" x="136.62" y="-62.5" font-family="Helvetica,sans-Serif" font-size="10.00">array</text>
</a>
</g>
</g>
<!-- Node4&#45;&gt;Node5 -->
<g id="edge5_Node000004_Node000005" class="edge">
<title>Node4&#45;&gt;Node5</title>
<g id="a_edge5_Node000004_Node000005"><a xlink:title=" ">
<path fill="none" stroke="#63b8ff" d="M128.37,-111.59C129.6,-104.93 131.3,-95.75 132.84,-87.44"/>
<polygon fill="#63b8ff" stroke="#63b8ff" points="136.25,-88.26 134.63,-77.79 129.37,-86.98 136.25,-88.26"/>
</a>
</g>
</g>
</g>
</svg>
