<?xml version="1.0" encoding="UTF-8" standalone="no"?>
<!DOCTYPE svg PUBLIC "-//W3C//DTD SVG 1.1//EN"
 "http://www.w3.org/Graphics/SVG/1.1/DTD/svg11.dtd">
<!-- Generated by graphviz version 14.0.2 (20251019.1705)
 -->
<!-- Title: GameObject.cpp Pages: 1 -->
<svg width="428pt" height="252pt"
 viewBox="0.00 0.00 428.00 252.00" xmlns="http://www.w3.org/2000/svg" xmlns:xlink="http://www.w3.org/1999/xlink">
<g id="graph0" class="graph" transform="scale(1 1) rotate(0) translate(4 248)">
<title>GameObject.cpp</title>
<!-- Node1 -->
<g id="Node000001" class="node">
<title>Node1</title>
<g id="a_Node000001"><a xlink:title=" ">
<polygon fill="#999999" stroke="#666666" points="393.38,-244 303.88,-244 303.88,-224 393.38,-224 393.38,-244"/>
<text xml:space="preserve" text-anchor="middle" x="348.62" y="-230.5" font-family="Helvetica,sans-Serif" font-size="10.00">GameObject.cpp</text>
</a>
</g>
</g>
<!-- Node2 -->
<g id="Node000002" class="node">
<title>Node2</title>
<g id="a_Node000002"><a xlink:href="GameObject_8h.html" target="_top" xlink:title=" ">
<polygon fill="white" stroke="#666666" points="271.25,-188 148,-188 148,-168 271.25,-168 271.25,-188"/>
<text xml:space="preserve" text-anchor="middle" x="209.62" y="-174.5" font-family="Helvetica,sans-Serif" font-size="10.00">LGE/core/GameObject.h</text>
</a>
</g>
</g>
<!-- Node1&#45;&gt;Node2 -->
<g id="edge1_Node000001_Node000002" class="edge">
<title>Node1&#45;&gt;Node2</title>
<g id="a_edge1_Node000001_Node000002"><a xlink:title=" ">
<path fill="none" stroke="#63b8ff" d="M324.41,-223.59C302.32,-215.01 269.43,-202.23 244.5,-192.55"/>
<polygon fill="#63b8ff" stroke="#63b8ff" points="246.03,-189.39 235.44,-189.03 243.49,-195.91 246.03,-189.39"/>
</a>
</g>
</g>
<!-- Node4 -->
<g id="Node000004" class="node">
<title>Node4</title>
<g id="a_Node000004"><a xlink:title=" ">
<polygon fill="#e0e0e0" stroke="#999999" points="264.12,-20 221.12,-20 221.12,0 264.12,0 264.12,-20"/>
<text xml:space="preserve" text-anchor="middle" x="242.62" y="-6.5" font-family="Helvetica,sans-Serif" font-size="10.00">cmath</text>
</a>
</g>
</g>
<!-- Node1&#45;&gt;Node4 -->
<g id="edge13_Node000001_Node000004" class="edge">
<title>Node1&#45;&gt;Node4</title>
<g id="a_edge13_Node000001_Node000004"><a xlink:title=" ">
<path fill="none" stroke="#63b8ff" d="M373.78,-223.63C389.16,-216.43 407.58,-204.83 416.62,-188 428.42,-166.06 404.3,-120.6 397.62,-112 364.96,-69.93 309.57,-39.98 274.6,-24.1"/>
<polygon fill="#63b8ff" stroke="#63b8ff" points="276.4,-21.07 265.84,-20.24 273.58,-27.48 276.4,-21.07"/>
</a>
</g>
</g>
<!-- Node11 -->
<g id="Node000011" class="node">
<title>Node11</title>
<g id="a_Node000011"><a xlink:href="Component_8h.html" target="_top" xlink:title=" ">
<polygon fill="white" stroke="#666666" points="408,-188 289.25,-188 289.25,-168 408,-168 408,-188"/>
<text xml:space="preserve" text-anchor="middle" x="348.62" y="-174.5" font-family="Helvetica,sans-Serif" font-size="10.00">LGE/core/Component.h</text>
</a>
</g>
</g>
<!-- Node1&#45;&gt;Node11 -->
<g id="edge11_Node000001_Node000011" class="edge">
<title>Node1&#45;&gt;Node11</title>
<g id="a_edge11_Node000001_Node000011"><a xlink:title=" ">
<path fill="none" stroke="#63b8ff" d="M348.62,-223.59C348.62,-217.01 348.62,-207.96 348.62,-199.73"/>
<polygon fill="#63b8ff" stroke="#63b8ff" points="352.13,-199.81 348.63,-189.81 345.13,-199.81 352.13,-199.81"/>
</a>
</g>
</g>
<!-- Node3 -->
<g id="Node000003" class="node">
<title>Node3</title>
<g id="a_Node000003"><a xlink:href="Vector_8h.html" target="_top" xlink:title=" ">
<polygon fill="white" stroke="#666666" points="99.25,-76 0,-76 0,-56 99.25,-56 99.25,-76"/>
<text xml:space="preserve" text-anchor="middle" x="49.62" y="-62.5" font-family="Helvetica,sans-Serif" font-size="10.00">LGE/math/Vector.h</text>
</a>
</g>
</g>
<!-- Node2&#45;&gt;Node3 -->
<g id="edge2_Node000002_Node000003" class="edge">
<title>Node2&#45;&gt;Node3</title>
<g id="a_edge2_Node000002_Node000003"><a xlink:title=" ">
<path fill="none" stroke="#63b8ff" d="M147.91,-169.69C101.77,-162.81 44.24,-150.72 29.62,-132 19.1,-118.52 26.89,-99.49 35.63,-85.5"/>
<polygon fill="#63b8ff" stroke="#63b8ff" points="38.28,-87.82 41.07,-77.6 32.52,-83.86 38.28,-87.82"/>
</a>
</g>
</g>
<!-- Node5 -->
<g id="Node000005" class="node">
<title>Node5</title>
<g id="a_Node000005"><a xlink:href="Matrix_8h.html" target="_top" xlink:title=" ">
<polygon fill="white" stroke="#666666" points="136.88,-132 38.37,-132 38.37,-112 136.88,-112 136.88,-132"/>
<text xml:space="preserve" text-anchor="middle" x="87.62" y="-118.5" font-family="Helvetica,sans-Serif" font-size="10.00">LGE/math/Matrix.h</text>
</a>
</g>
</g>
<!-- Node2&#45;&gt;Node5 -->
<g id="edge4_Node000002_Node000005" class="edge">
<title>Node2&#45;&gt;Node5</title>
<g id="a_edge4_Node000002_Node000005"><a xlink:title=" ">
<path fill="none" stroke="#63b8ff" d="M188.37,-167.59C169.34,-159.17 141.15,-146.69 119.42,-137.07"/>
<polygon fill="#63b8ff" stroke="#63b8ff" points="120.99,-133.94 110.43,-133.09 118.15,-140.34 120.99,-133.94"/>
</a>
</g>
</g>
<!-- Node7 -->
<g id="Node000007" class="node">
<title>Node7</title>
<g id="a_Node000007"><a xlink:title=" ">
<polygon fill="#e0e0e0" stroke="#999999" points="388.62,-132 348.62,-132 348.62,-112 388.62,-112 388.62,-132"/>
<text xml:space="preserve" text-anchor="middle" x="368.62" y="-118.5" font-family="Helvetica,sans-Serif" font-size="10.00">string</text>
</a>
</g>
</g>
<!-- Node2&#45;&gt;Node7 -->
<g id="edge7_Node000002_Node000007" class="edge">
<title>Node2&#45;&gt;Node7</title>
<g id="a_edge7_Node000002_Node000007"><a xlink:title=" ">
<path fill="none" stroke="#63b8ff" d="M237.32,-167.59C265.28,-158.1 308.39,-143.46 337.52,-133.57"/>
<polygon fill="#63b8ff" stroke="#63b8ff" points="338.53,-136.92 346.87,-130.39 336.28,-130.29 338.53,-136.92"/>
</a>
</g>
</g>
<!-- Node8 -->
<g id="Node000008" class="node">
<title>Node8</title>
<g id="a_Node000008"><a xlink:title=" ">
<polygon fill="#e0e0e0" stroke="#999999" points="200.25,-132 155,-132 155,-112 200.25,-112 200.25,-132"/>
<text xml:space="preserve" text-anchor="middle" x="177.62" y="-118.5" font-family="Helvetica,sans-Serif" font-size="10.00">cstdint</text>
</a>
</g>
</g>
<!-- Node2&#45;&gt;Node8 -->
<g id="edge8_Node000002_Node000008" class="edge">
<title>Node2&#45;&gt;Node8</title>
<g id="a_edge8_Node000002_Node000008"><a xlink:title=" ">
<path fill="none" stroke="#63b8ff" d="M204.05,-167.59C199.88,-160.55 194.02,-150.67 188.88,-142"/>
<polygon fill="#63b8ff" stroke="#63b8ff" points="192.02,-140.42 183.91,-133.6 185.99,-143.99 192.02,-140.42"/>
</a>
</g>
</g>
<!-- Node9 -->
<g id="Node000009" class="node">
<title>Node9</title>
<g id="a_Node000009"><a xlink:title=" ">
<polygon fill="#e0e0e0" stroke="#999999" points="261.12,-132 218.12,-132 218.12,-112 261.12,-112 261.12,-132"/>
<text xml:space="preserve" text-anchor="middle" x="239.62" y="-118.5" font-family="Helvetica,sans-Serif" font-size="10.00">vector</text>
</a>
</g>
</g>
<!-- Node2&#45;&gt;Node9 -->
<g id="edge9_Node000002_Node000009" class="edge">
<title>Node2&#45;&gt;Node9</title>
<g id="a_edge9_Node000002_Node000009"><a xlink:title=" ">
<path fill="none" stroke="#63b8ff" d="M214.85,-167.59C218.72,-160.63 224.13,-150.89 228.91,-142.29"/>
<polygon fill="#63b8ff" stroke="#63b8ff" points="231.93,-144.06 233.72,-133.62 225.81,-140.66 231.93,-144.06"/>
</a>
</g>
</g>
<!-- Node10 -->
<g id="Node000010" class="node">
<title>Node10</title>
<g id="a_Node000010"><a xlink:title=" ">
<polygon fill="#e0e0e0" stroke="#999999" points="330.25,-132 279,-132 279,-112 330.25,-112 330.25,-132"/>
<text xml:space="preserve" text-anchor="middle" x="304.62" y="-118.5" font-family="Helvetica,sans-Serif" font-size="10.00">memory</text>
</a>
</g>
</g>
<!-- Node2&#45;&gt;Node10 -->
<g id="edge10_Node000002_Node000010" class="edge">
<title>Node2&#45;&gt;Node10</title>
<g id="a_edge10_Node000002_Node000010"><a xlink:title=" ">
<path fill="none" stroke="#63b8ff" d="M226.17,-167.59C240.52,-159.44 261.55,-147.48 278.23,-138"/>
<polygon fill="#63b8ff" stroke="#63b8ff" points="279.67,-141.21 286.63,-133.23 276.21,-135.13 279.67,-141.21"/>
</a>
</g>
</g>
<!-- Node3&#45;&gt;Node4 -->
<g id="edge3_Node000003_Node000004" class="edge">
<title>Node3&#45;&gt;Node4</title>
<g id="a_edge3_Node000003_Node000004"><a xlink:title=" ">
<path fill="none" stroke="#63b8ff" d="M83.24,-55.59C118.91,-45.61 174.88,-29.95 210.12,-20.1"/>
<polygon fill="#63b8ff" stroke="#63b8ff" points="210.63,-23.59 219.32,-17.52 208.75,-16.84 210.63,-23.59"/>
</a>
</g>
</g>
<!-- Node5&#45;&gt;Node3 -->
<g id="edge5_Node000005_Node000003" class="edge">
<title>Node5&#45;&gt;Node3</title>
<g id="a_edge5_Node000005_Node000003"><a xlink:title=" ">
<path fill="none" stroke="#63b8ff" d="M81.01,-111.59C75.94,-104.39 68.79,-94.23 62.6,-85.43"/>
<polygon fill="#63b8ff" stroke="#63b8ff" points="65.66,-83.7 57.04,-77.54 59.93,-87.73 65.66,-83.7"/>
</a>
</g>
</g>
<!-- Node6 -->
<g id="Node000006" class="node">
<title>Node6</title>
<g id="a_Node000006"><a xlink:title=" ">
<polygon fill="#e0e0e0" stroke="#999999" points="155.5,-76 117.75,-76 117.75,-56 155.5,-56 155.5,-76"/>
<text xml:space="preserve" text-anchor="middle" x="136.62" y="-62.5" font-family="Helvetica,sans-Serif" font-size="10.00">array</text>
</a>
</g>
</g>
<!-- Node5&#45;&gt;Node6 -->
<g id="edge6_Node000005_Node000006" class="edge">
<title>Node5&#45;&gt;Node6</title>
<g id="a_edge6_Node000005_Node000006"><a xlink:title=" ">
<path fill="none" stroke="#63b8ff" d="M96.16,-111.59C102.91,-104.16 112.51,-93.58 120.67,-84.58"/>
<polygon fill="#63b8ff" stroke="#63b8ff" points="123.04,-87.18 127.17,-77.42 117.86,-82.47 123.04,-87.18"/>
</a>
</g>
</g>
<!-- Node11&#45;&gt;Node7 -->
<g id="edge12_Node000011_Node000007" class="edge">
<title>Node11&#45;&gt;Node7</title>
<g id="a_edge12_Node000011_Node000007"><a xlink:title=" ">
<path fill="none" stroke="#63b8ff" d="M352.11,-167.59C354.63,-160.78 358.14,-151.32 361.27,-142.86"/>
<polygon fill="#63b8ff" stroke="#63b8ff" points="364.46,-144.31 364.66,-133.72 357.9,-141.88 364.46,-144.31"/>
</a>
</g>
</g>
</g>
</svg>
