<?xml version="1.0" encoding="UTF-8" standalone="no"?>
<!DOCTYPE svg PUBLIC "-//W3C//DTD SVG 1.1//EN"
 "http://www.w3.org/Graphics/SVG/1.1/DTD/svg11.dtd">
<!-- Generated by graphviz version 14.0.2 (20251019.1705)
 -->
<!-- Title: GameObject.h Pages: 1 -->
<svg width="615pt" height="84pt"
 viewBox="0.00 0.00 615.00 84.00" xmlns="http://www.w3.org/2000/svg" xmlns:xlink="http://www.w3.org/1999/xlink">
<g id="graph0" class="graph" transform="scale(1 1) rotate(0) translate(4 80)">
<title>GameObject.h</title>
<!-- Node1 -->
<g id="Node000001" class="node">
<title>Node1</title>
<g id="a_Node000001"><a xlink:title=" ">
<polygon fill="#999999" stroke="#666666" points="336.25,-76 257.25,-76 257.25,-56 336.25,-56 336.25,-76"/>
<text xml:space="preserve" text-anchor="middle" x="296.75" y="-62.5" font-family="Helvetica,sans-Serif" font-size="10.00">GameObject.h</text>
</a>
</g>
</g>
<!-- Node2 -->
<g id="Node000002" class="node">
<title>Node2</title>
<g id="a_Node000002"><a xlink:href="GameObject_8cpp.html" target="_top" xlink:title=" ">
<polygon fill="white" stroke="#666666" points="89.5,-20 0,-20 0,0 89.5,0 89.5,-20"/>
<text xml:space="preserve" text-anchor="middle" x="44.75" y="-6.5" font-family="Helvetica,sans-Serif" font-size="10.00">GameObject.cpp</text>
</a>
</g>
</g>
<!-- Node1&#45;&gt;Node2 -->
<g id="edge1_Node000001_Node000002" class="edge">
<title>Node1&#45;&gt;Node2</title>
<g id="a_edge1_Node000001_Node000002"><a xlink:title=" ">
<path fill="none" stroke="#63b8ff" d="M245.58,-54.04C199.49,-44.16 132.46,-29.79 88.73,-20.42"/>
<polygon fill="#63b8ff" stroke="#63b8ff" points="244.83,-57.45 255.34,-56.13 246.3,-50.61 244.83,-57.45"/>
</a>
</g>
</g>
<!-- Node3 -->
<g id="Node000003" class="node">
<title>Node3</title>
<g id="a_Node000003"><a xlink:href="Hierarchy_8cpp.html" target="_top" xlink:title=" ">
<polygon fill="white" stroke="#666666" points="183.75,-20 107.75,-20 107.75,0 183.75,0 183.75,-20"/>
<text xml:space="preserve" text-anchor="middle" x="145.75" y="-6.5" font-family="Helvetica,sans-Serif" font-size="10.00">Hierarchy.cpp</text>
</a>
</g>
</g>
<!-- Node1&#45;&gt;Node3 -->
<g id="edge2_Node000001_Node000003" class="edge">
<title>Node1&#45;&gt;Node3</title>
<g id="a_edge2_Node000001_Node000003"><a xlink:title=" ">
<path fill="none" stroke="#63b8ff" d="M259.81,-51.79C232.71,-42.1 196.54,-29.16 172.26,-20.48"/>
<polygon fill="#63b8ff" stroke="#63b8ff" points="258.43,-55.01 269.02,-55.08 260.79,-48.42 258.43,-55.01"/>
</a>
</g>
</g>
<!-- Node4 -->
<g id="Node000004" class="node">
<title>Node4</title>
<g id="a_Node000004"><a xlink:href="Inspector_8cpp.html" target="_top" xlink:title=" ">
<polygon fill="white" stroke="#666666" points="277.38,-20 202.12,-20 202.12,0 277.38,0 277.38,-20"/>
<text xml:space="preserve" text-anchor="middle" x="239.75" y="-6.5" font-family="Helvetica,sans-Serif" font-size="10.00">Inspector.cpp</text>
</a>
</g>
</g>
<!-- Node1&#45;&gt;Node4 -->
<g id="edge3_Node000001_Node000004" class="edge">
<title>Node1&#45;&gt;Node4</title>
<g id="a_edge3_Node000001_Node000004"><a xlink:title=" ">
<path fill="none" stroke="#63b8ff" d="M278.64,-47.85C269.01,-38.72 257.54,-27.86 249.56,-20.3"/>
<polygon fill="#63b8ff" stroke="#63b8ff" points="276.06,-50.22 285.72,-54.55 280.87,-45.13 276.06,-50.22"/>
</a>
</g>
</g>
<!-- Node5 -->
<g id="Node000005" class="node">
<title>Node5</title>
<g id="a_Node000005"><a xlink:href="MaterialComponent_8cpp.html" target="_top" xlink:title=" ">
<polygon fill="white" stroke="#666666" points="414.5,-20 295,-20 295,0 414.5,0 414.5,-20"/>
<text xml:space="preserve" text-anchor="middle" x="354.75" y="-6.5" font-family="Helvetica,sans-Serif" font-size="10.00">MaterialComponent.cpp</text>
</a>
</g>
</g>
<!-- Node1&#45;&gt;Node5 -->
<g id="edge4_Node000001_Node000005" class="edge">
<title>Node1&#45;&gt;Node5</title>
<g id="a_edge4_Node000001_Node000005"><a xlink:title=" ">
<path fill="none" stroke="#63b8ff" d="M315.17,-47.85C324.98,-38.72 336.65,-27.86 344.76,-20.3"/>
<polygon fill="#63b8ff" stroke="#63b8ff" points="312.89,-45.19 307.96,-54.56 317.66,-50.31 312.89,-45.19"/>
</a>
</g>
</g>
<!-- Node6 -->
<g id="Node000006" class="node">
<title>Node6</title>
<g id="a_Node000006"><a xlink:href="SceneViewport_8cpp.html" target="_top" xlink:title=" ">
<polygon fill="white" stroke="#666666" points="533.12,-20 432.38,-20 432.38,0 533.12,0 533.12,-20"/>
<text xml:space="preserve" text-anchor="middle" x="482.75" y="-6.5" font-family="Helvetica,sans-Serif" font-size="10.00">SceneViewport.cpp</text>
</a>
</g>
</g>
<!-- Node1&#45;&gt;Node6 -->
<g id="edge5_Node000001_Node000006" class="edge">
<title>Node1&#45;&gt;Node6</title>
<g id="a_edge5_Node000001_Node000006"><a xlink:title=" ">
<path fill="none" stroke="#63b8ff" d="M340.04,-52.43C373.65,-42.67 419.53,-29.35 450.1,-20.48"/>
<polygon fill="#63b8ff" stroke="#63b8ff" points="339.23,-49.02 330.6,-55.17 341.18,-55.74 339.23,-49.02"/>
</a>
</g>
</g>
<!-- Node7 -->
<g id="Node000007" class="node">
<title>Node7</title>
<g id="a_Node000007"><a xlink:href="main_8cpp.html" target="_top" xlink:title=" ">
<polygon fill="white" stroke="#666666" points="606.62,-20 550.88,-20 550.88,0 606.62,0 606.62,-20"/>
<text xml:space="preserve" text-anchor="middle" x="578.75" y="-6.5" font-family="Helvetica,sans-Serif" font-size="10.00">main.cpp</text>
</a>
</g>
</g>
<!-- Node1&#45;&gt;Node7 -->
<g id="edge6_Node000001_Node000007" class="edge">
<title>Node1&#45;&gt;Node7</title>
<g id="a_edge6_Node000001_Node000007"><a xlink:title=" ">
<path fill="none" stroke="#63b8ff" d="M347.42,-56.56C397.09,-48.08 474.85,-34.27 541.75,-20 544.59,-19.39 547.55,-18.73 550.51,-18.05"/>
<polygon fill="#63b8ff" stroke="#63b8ff" points="347.11,-53.06 337.84,-58.19 348.29,-59.96 347.11,-53.06"/>
</a>
</g>
</g>
</g>
</svg>
