<?xml version="1.0" encoding="UTF-8" standalone="no"?>
<!DOCTYPE svg PUBLIC "-//W3C//DTD SVG 1.1//EN"
 "http://www.w3.org/Graphics/SVG/1.1/DTD/svg11.dtd">
<!-- Generated by graphviz version 14.0.2 (20251019.1705)
 -->
<!-- Title: Hierarchy.cpp Pages: 1 -->
<svg width="397pt" height="252pt"
 viewBox="0.00 0.00 397.00 252.00" xmlns="http://www.w3.org/2000/svg" xmlns:xlink="http://www.w3.org/1999/xlink">
<g id="graph0" class="graph" transform="scale(1 1) rotate(0) translate(4 248)">
<title>Hierarchy.cpp</title>
<!-- Node1 -->
<g id="Node000001" class="node">
<title>Node1</title>
<g id="a_Node000001"><a xlink:title=" ">
<polygon fill="#999999" stroke="#666666" points="218.5,-244 142.5,-244 142.5,-224 218.5,-224 218.5,-244"/>
<text xml:space="preserve" text-anchor="middle" x="180.5" y="-230.5" font-family="Helvetica,sans-Serif" font-size="10.00">Hierarchy.cpp</text>
</a>
</g>
</g>
<!-- Node2 -->
<g id="Node000002" class="node">
<title>Node2</title>
<g id="a_Node000002"><a xlink:href="Hierarchy_8h.html" target="_top" xlink:title=" ">
<polygon fill="white" stroke="#666666" points="100.75,-188 2.25,-188 2.25,-168 100.75,-168 100.75,-188"/>
<text xml:space="preserve" text-anchor="middle" x="51.5" y="-174.5" font-family="Helvetica,sans-Serif" font-size="10.00">LGE/ui/Hierarchy.h</text>
</a>
</g>
</g>
<!-- Node1&#45;&gt;Node2 -->
<g id="edge1_Node000001_Node000002" class="edge">
<title>Node1&#45;&gt;Node2</title>
<g id="a_edge1_Node000001_Node000002"><a xlink:title=" ">
<path fill="none" stroke="#63b8ff" d="M158.03,-223.59C137.71,-215.09 107.55,-202.46 84.49,-192.81"/>
<polygon fill="#63b8ff" stroke="#63b8ff" points="86.12,-189.7 75.54,-189.06 83.41,-196.15 86.12,-189.7"/>
</a>
</g>
</g>
<!-- Node5 -->
<g id="Node000005" class="node">
<title>Node5</title>
<g id="a_Node000005"><a xlink:href="GameObject_8h.html" target="_top" xlink:title=" ">
<polygon fill="white" stroke="#666666" points="242.12,-188 118.88,-188 118.88,-168 242.12,-168 242.12,-188"/>
<text xml:space="preserve" text-anchor="middle" x="180.5" y="-174.5" font-family="Helvetica,sans-Serif" font-size="10.00">LGE/core/GameObject.h</text>
</a>
</g>
</g>
<!-- Node1&#45;&gt;Node5 -->
<g id="edge4_Node000001_Node000005" class="edge">
<title>Node1&#45;&gt;Node5</title>
<g id="a_edge4_Node000001_Node000005"><a xlink:title=" ">
<path fill="none" stroke="#63b8ff" d="M180.5,-223.59C180.5,-217.01 180.5,-207.96 180.5,-199.73"/>
<polygon fill="#63b8ff" stroke="#63b8ff" points="184,-199.81 180.5,-189.81 177,-199.81 184,-199.81"/>
</a>
</g>
</g>
<!-- Node12 -->
<g id="Node000012" class="node">
<title>Node12</title>
<g id="a_Node000012"><a xlink:title=" ">
<polygon fill="#e0e0e0" stroke="#999999" points="307.25,-188 259.75,-188 259.75,-168 307.25,-168 307.25,-188"/>
<text xml:space="preserve" text-anchor="middle" x="283.5" y="-174.5" font-family="Helvetica,sans-Serif" font-size="10.00">imgui.h</text>
</a>
</g>
</g>
<!-- Node1&#45;&gt;Node12 -->
<g id="edge14_Node000001_Node000012" class="edge">
<title>Node1&#45;&gt;Node12</title>
<g id="a_edge14_Node000001_Node000012"><a xlink:title=" ">
<path fill="none" stroke="#63b8ff" d="M198.44,-223.59C214.15,-215.36 237.23,-203.26 255.39,-193.74"/>
<polygon fill="#63b8ff" stroke="#63b8ff" points="256.85,-196.93 264.08,-189.18 253.6,-190.73 256.85,-196.93"/>
</a>
</g>
</g>
<!-- Node3 -->
<g id="Node000003" class="node">
<title>Node3</title>
<g id="a_Node000003"><a xlink:title=" ">
<polygon fill="#e0e0e0" stroke="#999999" points="43,-132 0,-132 0,-112 43,-112 43,-132"/>
<text xml:space="preserve" text-anchor="middle" x="21.5" y="-118.5" font-family="Helvetica,sans-Serif" font-size="10.00">vector</text>
</a>
</g>
</g>
<!-- Node2&#45;&gt;Node3 -->
<g id="edge2_Node000002_Node000003" class="edge">
<title>Node2&#45;&gt;Node3</title>
<g id="a_edge2_Node000002_Node000003"><a xlink:title=" ">
<path fill="none" stroke="#63b8ff" d="M46.27,-167.59C42.4,-160.63 36.99,-150.89 32.22,-142.29"/>
<polygon fill="#63b8ff" stroke="#63b8ff" points="35.32,-140.66 27.4,-133.62 29.2,-144.06 35.32,-140.66"/>
</a>
</g>
</g>
<!-- Node4 -->
<g id="Node000004" class="node">
<title>Node4</title>
<g id="a_Node000004"><a xlink:title=" ">
<polygon fill="#e0e0e0" stroke="#999999" points="112.12,-132 60.88,-132 60.88,-112 112.12,-112 112.12,-132"/>
<text xml:space="preserve" text-anchor="middle" x="86.5" y="-118.5" font-family="Helvetica,sans-Serif" font-size="10.00">memory</text>
</a>
</g>
</g>
<!-- Node2&#45;&gt;Node4 -->
<g id="edge3_Node000002_Node000004" class="edge">
<title>Node2&#45;&gt;Node4</title>
<g id="a_edge3_Node000002_Node000004"><a xlink:title=" ">
<path fill="none" stroke="#63b8ff" d="M57.6,-167.59C62.21,-160.47 68.71,-150.45 74.37,-141.72"/>
<polygon fill="#63b8ff" stroke="#63b8ff" points="77.15,-143.86 79.65,-133.57 71.27,-140.06 77.15,-143.86"/>
</a>
</g>
</g>
<!-- Node5&#45;&gt;Node3 -->
<g id="edge12_Node000005_Node000003" class="edge">
<title>Node5&#45;&gt;Node3</title>
<g id="a_edge12_Node000005_Node000003"><a xlink:title=" ">
<path fill="none" stroke="#63b8ff" d="M152.8,-167.59C125.31,-158.26 83.18,-143.95 54.09,-134.07"/>
<polygon fill="#63b8ff" stroke="#63b8ff" points="55.29,-130.78 44.7,-130.88 53.04,-137.41 55.29,-130.78"/>
</a>
</g>
</g>
<!-- Node5&#45;&gt;Node4 -->
<g id="edge13_Node000005_Node000004" class="edge">
<title>Node5&#45;&gt;Node4</title>
<g id="a_edge13_Node000005_Node000004"><a xlink:title=" ">
<path fill="none" stroke="#63b8ff" d="M164.13,-167.59C149.93,-159.44 129.12,-147.48 112.62,-138"/>
<polygon fill="#63b8ff" stroke="#63b8ff" points="114.73,-135.18 104.31,-133.23 111.24,-141.25 114.73,-135.18"/>
</a>
</g>
</g>
<!-- Node6 -->
<g id="Node000006" class="node">
<title>Node6</title>
<g id="a_Node000006"><a xlink:href="Vector_8h.html" target="_top" xlink:title=" ">
<polygon fill="white" stroke="#666666" points="312.12,-76 212.88,-76 212.88,-56 312.12,-56 312.12,-76"/>
<text xml:space="preserve" text-anchor="middle" x="262.5" y="-62.5" font-family="Helvetica,sans-Serif" font-size="10.00">LGE/math/Vector.h</text>
</a>
</g>
</g>
<!-- Node5&#45;&gt;Node6 -->
<g id="edge5_Node000005_Node000006" class="edge">
<title>Node5&#45;&gt;Node6</title>
<g id="a_edge5_Node000005_Node000006"><a xlink:title=" ">
<path fill="none" stroke="#63b8ff" d="M199.98,-167.6C214.02,-159.88 232.37,-147.67 243.5,-132 252.88,-118.79 257.67,-100.97 260.09,-87.32"/>
<polygon fill="#63b8ff" stroke="#63b8ff" points="263.51,-88.12 261.49,-77.72 256.58,-87.11 263.51,-88.12"/>
</a>
</g>
</g>
<!-- Node8 -->
<g id="Node000008" class="node">
<title>Node8</title>
<g id="a_Node000008"><a xlink:href="Matrix_8h.html" target="_top" xlink:title=" ">
<polygon fill="white" stroke="#666666" points="388.75,-132 290.25,-132 290.25,-112 388.75,-112 388.75,-132"/>
<text xml:space="preserve" text-anchor="middle" x="339.5" y="-118.5" font-family="Helvetica,sans-Serif" font-size="10.00">LGE/math/Matrix.h</text>
</a>
</g>
</g>
<!-- Node5&#45;&gt;Node8 -->
<g id="edge7_Node000005_Node000008" class="edge">
<title>Node5&#45;&gt;Node8</title>
<g id="a_edge7_Node000005_Node000008"><a xlink:title=" ">
<path fill="none" stroke="#63b8ff" d="M208.2,-167.59C233.8,-158.9 272.11,-145.89 300.75,-136.16"/>
<polygon fill="#63b8ff" stroke="#63b8ff" points="301.81,-139.5 310.16,-132.97 299.56,-132.87 301.81,-139.5"/>
</a>
</g>
</g>
<!-- Node10 -->
<g id="Node000010" class="node">
<title>Node10</title>
<g id="a_Node000010"><a xlink:title=" ">
<polygon fill="#e0e0e0" stroke="#999999" points="170.5,-132 130.5,-132 130.5,-112 170.5,-112 170.5,-132"/>
<text xml:space="preserve" text-anchor="middle" x="150.5" y="-118.5" font-family="Helvetica,sans-Serif" font-size="10.00">string</text>
</a>
</g>
</g>
<!-- Node5&#45;&gt;Node10 -->
<g id="edge10_Node000005_Node000010" class="edge">
<title>Node5&#45;&gt;Node10</title>
<g id="a_edge10_Node000005_Node000010"><a xlink:title=" ">
<path fill="none" stroke="#63b8ff" d="M175.27,-167.59C171.4,-160.63 165.99,-150.89 161.22,-142.29"/>
<polygon fill="#63b8ff" stroke="#63b8ff" points="164.32,-140.66 156.4,-133.62 158.2,-144.06 164.32,-140.66"/>
</a>
</g>
</g>
<!-- Node11 -->
<g id="Node000011" class="node">
<title>Node11</title>
<g id="a_Node000011"><a xlink:title=" ">
<polygon fill="#e0e0e0" stroke="#999999" points="234.12,-132 188.88,-132 188.88,-112 234.12,-112 234.12,-132"/>
<text xml:space="preserve" text-anchor="middle" x="211.5" y="-118.5" font-family="Helvetica,sans-Serif" font-size="10.00">cstdint</text>
</a>
</g>
</g>
<!-- Node5&#45;&gt;Node11 -->
<g id="edge11_Node000005_Node000011" class="edge">
<title>Node5&#45;&gt;Node11</title>
<g id="a_edge11_Node000005_Node000011"><a xlink:title=" ">
<path fill="none" stroke="#63b8ff" d="M185.9,-167.59C189.94,-160.55 195.62,-150.67 200.59,-142"/>
<polygon fill="#63b8ff" stroke="#63b8ff" points="203.47,-144.03 205.41,-133.61 197.39,-140.54 203.47,-144.03"/>
</a>
</g>
</g>
<!-- Node7 -->
<g id="Node000007" class="node">
<title>Node7</title>
<g id="a_Node000007"><a xlink:title=" ">
<polygon fill="#e0e0e0" stroke="#999999" points="284,-20 241,-20 241,0 284,0 284,-20"/>
<text xml:space="preserve" text-anchor="middle" x="262.5" y="-6.5" font-family="Helvetica,sans-Serif" font-size="10.00">cmath</text>
</a>
</g>
</g>
<!-- Node6&#45;&gt;Node7 -->
<g id="edge6_Node000006_Node000007" class="edge">
<title>Node6&#45;&gt;Node7</title>
<g id="a_edge6_Node000006_Node000007"><a xlink:title=" ">
<path fill="none" stroke="#63b8ff" d="M262.5,-55.59C262.5,-49.01 262.5,-39.96 262.5,-31.73"/>
<polygon fill="#63b8ff" stroke="#63b8ff" points="266,-31.81 262.5,-21.81 259,-31.81 266,-31.81"/>
</a>
</g>
</g>
<!-- Node8&#45;&gt;Node6 -->
<g id="edge8_Node000008_Node000006" class="edge">
<title>Node8&#45;&gt;Node6</title>
<g id="a_edge8_Node000008_Node000006"><a xlink:title=" ">
<path fill="none" stroke="#63b8ff" d="M326.09,-111.59C314.89,-103.74 298.69,-92.38 285.44,-83.09"/>
<polygon fill="#63b8ff" stroke="#63b8ff" points="287.45,-80.22 277.26,-77.35 283.43,-85.96 287.45,-80.22"/>
</a>
</g>
</g>
<!-- Node9 -->
<g id="Node000009" class="node">
<title>Node9</title>
<g id="a_Node000009"><a xlink:title=" ">
<polygon fill="#e0e0e0" stroke="#999999" points="368.38,-76 330.62,-76 330.62,-56 368.38,-56 368.38,-76"/>
<text xml:space="preserve" text-anchor="middle" x="349.5" y="-62.5" font-family="Helvetica,sans-Serif" font-size="10.00">array</text>
</a>
</g>
</g>
<!-- Node8&#45;&gt;Node9 -->
<g id="edge9_Node000008_Node000009" class="edge">
<title>Node8&#45;&gt;Node9</title>
<g id="a_edge9_Node000008_Node000009"><a xlink:title=" ">
<path fill="none" stroke="#63b8ff" d="M341.24,-111.59C342.48,-104.93 344.18,-95.75 345.71,-87.44"/>
<polygon fill="#63b8ff" stroke="#63b8ff" points="349.12,-88.26 347.5,-77.79 342.24,-86.98 349.12,-88.26"/>
</a>
</g>
</g>
</g>
</svg>
