<?xml version="1.0" encoding="UTF-8" standalone="no"?>
<!DOCTYPE svg PUBLIC "-//W3C//DTD SVG 1.1//EN"
 "http://www.w3.org/Graphics/SVG/1.1/DTD/svg11.dtd">
<!-- Generated by graphviz version 14.0.2 (20251019.1705)
 -->
<!-- Title: Hierarchy.h Pages: 1 -->
<svg width="158pt" height="84pt"
 viewBox="0.00 0.00 158.00 84.00" xmlns="http://www.w3.org/2000/svg" xmlns:xlink="http://www.w3.org/1999/xlink">
<g id="graph0" class="graph" transform="scale(1 1) rotate(0) translate(4 80)">
<title>Hierarchy.h</title>
<!-- Node1 -->
<g id="Node000001" class="node">
<title>Node1</title>
<g id="a_Node000001"><a xlink:title=" ">
<polygon fill="#999999" stroke="#666666" points="112.75,-76 47.25,-76 47.25,-56 112.75,-56 112.75,-76"/>
<text xml:space="preserve" text-anchor="middle" x="80" y="-62.5" font-family="Helvetica,sans-Serif" font-size="10.00">Hierarchy.h</text>
</a>
</g>
</g>
<!-- Node2 -->
<g id="Node000002" class="node">
<title>Node2</title>
<g id="a_Node000002"><a xlink:href="Hierarchy_8cpp.html" target="_top" xlink:title=" ">
<polygon fill="white" stroke="#666666" points="76,-20 0,-20 0,0 76,0 76,-20"/>
<text xml:space="preserve" text-anchor="middle" x="38" y="-6.5" font-family="Helvetica,sans-Serif" font-size="10.00">Hierarchy.cpp</text>
</a>
</g>
</g>
<!-- Node1&#45;&gt;Node2 -->
<g id="edge1_Node000001_Node000002" class="edge">
<title>Node1&#45;&gt;Node2</title>
<g id="a_edge1_Node000001_Node000002"><a xlink:title=" ">
<path fill="none" stroke="#63b8ff" d="M65.78,-46.72C58.87,-37.84 50.87,-27.55 45.23,-20.3"/>
<polygon fill="#63b8ff" stroke="#63b8ff" points="62.85,-48.65 71.75,-54.4 68.38,-44.36 62.85,-48.65"/>
</a>
</g>
</g>
<!-- Node3 -->
<g id="Node000003" class="node">
<title>Node3</title>
<g id="a_Node000003"><a xlink:href="main_8cpp.html" target="_top" xlink:title=" ">
<polygon fill="white" stroke="#666666" points="149.88,-20 94.12,-20 94.12,0 149.88,0 149.88,-20"/>
<text xml:space="preserve" text-anchor="middle" x="122" y="-6.5" font-family="Helvetica,sans-Serif" font-size="10.00">main.cpp</text>
</a>
</g>
</g>
<!-- Node1&#45;&gt;Node3 -->
<g id="edge2_Node000001_Node000003" class="edge">
<title>Node1&#45;&gt;Node3</title>
<g id="a_edge2_Node000001_Node000003"><a xlink:title=" ">
<path fill="none" stroke="#63b8ff" d="M94.22,-46.72C101.13,-37.84 109.13,-27.55 114.77,-20.3"/>
<polygon fill="#63b8ff" stroke="#63b8ff" points="91.62,-44.36 88.25,-54.4 97.15,-48.65 91.62,-44.36"/>
</a>
</g>
</g>
</g>
</svg>
