<?xml version="1.0" encoding="UTF-8" standalone="no"?>
<!DOCTYPE svg PUBLIC "-//W3C//DTD SVG 1.1//EN"
 "http://www.w3.org/Graphics/SVG/1.1/DTD/svg11.dtd">
<!-- Generated by graphviz version 14.0.2 (20251019.1705)
 -->
<!-- Title: ImporterRegistry.h Pages: 1 -->
<svg width="513pt" height="140pt"
 viewBox="0.00 0.00 513.00 140.00" xmlns="http://www.w3.org/2000/svg" xmlns:xlink="http://www.w3.org/1999/xlink">
<g id="graph0" class="graph" transform="scale(1 1) rotate(0) translate(4 136)">
<title>ImporterRegistry.h</title>
<!-- Node1 -->
<g id="Node000001" class="node">
<title>Node1</title>
<g id="a_Node000001"><a xlink:title=" ">
<polygon fill="#999999" stroke="#666666" points="346,-132 249.75,-132 249.75,-112 346,-112 346,-132"/>
<text xml:space="preserve" text-anchor="middle" x="297.88" y="-118.5" font-family="Helvetica,sans-Serif" font-size="10.00">ImporterRegistry.h</text>
</a>
</g>
</g>
<!-- Node2 -->
<g id="Node000002" class="node">
<title>Node2</title>
<g id="a_Node000002"><a xlink:href="AssetManager_8h.html" target="_top" xlink:title=" ">
<polygon fill="white" stroke="#666666" points="225.5,-76 138.25,-76 138.25,-56 225.5,-56 225.5,-76"/>
<text xml:space="preserve" text-anchor="middle" x="181.88" y="-62.5" font-family="Helvetica,sans-Serif" font-size="10.00">AssetManager.h</text>
</a>
</g>
</g>
<!-- Node1&#45;&gt;Node2 -->
<g id="edge1_Node000001_Node000002" class="edge">
<title>Node1&#45;&gt;Node2</title>
<g id="a_edge1_Node000001_Node000002"><a xlink:title=" ">
<path fill="none" stroke="#63b8ff" d="M267.25,-106.75C246.71,-97.18 220.23,-84.85 202.24,-76.48"/>
<polygon fill="#63b8ff" stroke="#63b8ff" points="265.75,-109.91 276.3,-110.96 268.71,-103.56 265.75,-109.91"/>
</a>
</g>
</g>
<!-- Node5 -->
<g id="Node000005" class="node">
<title>Node5</title>
<g id="a_Node000005"><a xlink:href="main_8cpp.html" target="_top" xlink:title=" ">
<polygon fill="white" stroke="#666666" points="295.75,-20 240,-20 240,0 295.75,0 295.75,-20"/>
<text xml:space="preserve" text-anchor="middle" x="267.88" y="-6.5" font-family="Helvetica,sans-Serif" font-size="10.00">main.cpp</text>
</a>
</g>
</g>
<!-- Node1&#45;&gt;Node5 -->
<g id="edge7_Node000001_Node000005" class="edge">
<title>Node1&#45;&gt;Node5</title>
<g id="a_edge7_Node000001_Node000005"><a xlink:title=" ">
<path fill="none" stroke="#63b8ff" d="M289.63,-101.28C286.58,-93.5 283.29,-84.42 280.88,-76 275.29,-56.53 271.24,-33.11 269.25,-20.37"/>
<polygon fill="#63b8ff" stroke="#63b8ff" points="286.34,-102.49 293.34,-110.44 292.82,-99.86 286.34,-102.49"/>
</a>
</g>
</g>
<!-- Node6 -->
<g id="Node000006" class="node">
<title>Node6</title>
<g id="a_Node000006"><a xlink:href="ImportExport_8cpp.html" target="_top" xlink:title=" ">
<polygon fill="white" stroke="#666666" points="380.38,-76 289.38,-76 289.38,-56 380.38,-56 380.38,-76"/>
<text xml:space="preserve" text-anchor="middle" x="334.88" y="-62.5" font-family="Helvetica,sans-Serif" font-size="10.00">ImportExport.cpp</text>
</a>
</g>
</g>
<!-- Node1&#45;&gt;Node6 -->
<g id="edge5_Node000001_Node000006" class="edge">
<title>Node1&#45;&gt;Node6</title>
<g id="a_edge5_Node000001_Node000006"><a xlink:title=" ">
<path fill="none" stroke="#63b8ff" d="M310.79,-102.15C316.78,-93.4 323.64,-83.39 328.5,-76.3"/>
<polygon fill="#63b8ff" stroke="#63b8ff" points="307.94,-100.12 305.18,-110.35 313.72,-104.07 307.94,-100.12"/>
</a>
</g>
</g>
<!-- Node7 -->
<g id="Node000007" class="node">
<title>Node7</title>
<g id="a_Node000007"><a xlink:href="ImporterRegistry_8cpp.html" target="_top" xlink:title=" ">
<polygon fill="white" stroke="#666666" points="505.25,-76 398.5,-76 398.5,-56 505.25,-56 505.25,-76"/>
<text xml:space="preserve" text-anchor="middle" x="451.88" y="-62.5" font-family="Helvetica,sans-Serif" font-size="10.00">ImporterRegistry.cpp</text>
</a>
</g>
</g>
<!-- Node1&#45;&gt;Node7 -->
<g id="edge6_Node000001_Node000007" class="edge">
<title>Node1&#45;&gt;Node7</title>
<g id="a_edge6_Node000001_Node000007"><a xlink:title=" ">
<path fill="none" stroke="#63b8ff" d="M335.54,-107.79C363.19,-98.1 400.08,-85.16 424.84,-76.48"/>
<polygon fill="#63b8ff" stroke="#63b8ff" points="334.41,-104.48 326.13,-111.09 336.72,-111.09 334.41,-104.48"/>
</a>
</g>
</g>
<!-- Node3 -->
<g id="Node000003" class="node">
<title>Node3</title>
<g id="a_Node000003"><a xlink:href="AssetManager_8cpp.html" target="_top" xlink:title=" ">
<polygon fill="white" stroke="#666666" points="97.75,-20 0,-20 0,0 97.75,0 97.75,-20"/>
<text xml:space="preserve" text-anchor="middle" x="48.88" y="-6.5" font-family="Helvetica,sans-Serif" font-size="10.00">AssetManager.cpp</text>
</a>
</g>
</g>
<!-- Node2&#45;&gt;Node3 -->
<g id="edge2_Node000002_Node000003" class="edge">
<title>Node2&#45;&gt;Node3</title>
<g id="a_edge2_Node000002_Node000003"><a xlink:title=" ">
<path fill="none" stroke="#63b8ff" d="M148.06,-51.27C124.34,-41.64 93.23,-29.01 72.22,-20.48"/>
<polygon fill="#63b8ff" stroke="#63b8ff" points="146.72,-54.51 157.31,-55.02 149.36,-48.02 146.72,-54.51"/>
</a>
</g>
</g>
<!-- Node4 -->
<g id="Node000004" class="node">
<title>Node4</title>
<g id="a_Node000004"><a xlink:href="ContentBrowser_8cpp.html" target="_top" xlink:title=" ">
<polygon fill="white" stroke="#666666" points="221.5,-20 116.25,-20 116.25,0 221.5,0 221.5,-20"/>
<text xml:space="preserve" text-anchor="middle" x="168.88" y="-6.5" font-family="Helvetica,sans-Serif" font-size="10.00">ContentBrowser.cpp</text>
</a>
</g>
</g>
<!-- Node2&#45;&gt;Node4 -->
<g id="edge3_Node000002_Node000004" class="edge">
<title>Node2&#45;&gt;Node4</title>
<g id="a_edge3_Node000002_Node000004"><a xlink:title=" ">
<path fill="none" stroke="#63b8ff" d="M176.92,-44.43C174.92,-36.11 172.71,-26.93 171.11,-20.3"/>
<polygon fill="#63b8ff" stroke="#63b8ff" points="173.51,-45.22 179.26,-54.12 180.32,-43.58 173.51,-45.22"/>
</a>
</g>
</g>
<!-- Node2&#45;&gt;Node5 -->
<g id="edge4_Node000002_Node000005" class="edge">
<title>Node2&#45;&gt;Node5</title>
<g id="a_edge4_Node000002_Node000005"><a xlink:title=" ">
<path fill="none" stroke="#63b8ff" d="M206.49,-49.54C221.42,-40.17 240,-28.51 252.78,-20.48"/>
<polygon fill="#63b8ff" stroke="#63b8ff" points="204.74,-46.51 198.14,-54.79 208.47,-52.44 204.74,-46.51"/>
</a>
</g>
</g>
</g>
</svg>
