<?xml version="1.0" encoding="UTF-8" standalone="no"?>
<!DOCTYPE svg PUBLIC "-//W3C//DTD SVG 1.1//EN"
 "http://www.w3.org/Graphics/SVG/1.1/DTD/svg11.dtd">
<!-- Generated by graphviz version 14.0.2 (20251019.1705)
 -->
<!-- Title: ImportExport.cpp Pages: 1 -->
<svg width="1971pt" height="252pt"
 viewBox="0.00 0.00 1971.00 252.00" xmlns="http://www.w3.org/2000/svg" xmlns:xlink="http://www.w3.org/1999/xlink">
<g id="graph0" class="graph" transform="scale(1 1) rotate(0) translate(4 248)">
<title>ImportExport.cpp</title>
<!-- Node1 -->
<g id="Node000001" class="node">
<title>Node1</title>
<g id="a_Node000001"><a xlink:title=" ">
<polygon fill="#999999" stroke="#666666" points="1038.32,-244 947.32,-244 947.32,-224 1038.32,-224 1038.32,-244"/>
<text xml:space="preserve" text-anchor="middle" x="992.82" y="-230.5" font-family="Helvetica,sans-Serif" font-size="10.00">ImportExport.cpp</text>
</a>
</g>
</g>
<!-- Node2 -->
<g id="Node000002" class="node">
<title>Node2</title>
<g id="a_Node000002"><a xlink:href="ImportExport_8h.html" target="_top" xlink:title=" ">
<polygon fill="white" stroke="#666666" points="537.94,-188 423.69,-188 423.69,-168 537.94,-168 537.94,-188"/>
<text xml:space="preserve" text-anchor="middle" x="480.82" y="-174.5" font-family="Helvetica,sans-Serif" font-size="10.00">LGE/fs/ImportExport.h</text>
</a>
</g>
</g>
<!-- Node1&#45;&gt;Node2 -->
<g id="edge1_Node000001_Node000002" class="edge">
<title>Node1&#45;&gt;Node2</title>
<g id="a_edge1_Node000001_Node000002"><a xlink:title=" ">
<path fill="none" stroke="#63b8ff" d="M946.93,-228.16C856.7,-218.64 655.76,-197.45 549.59,-186.25"/>
<polygon fill="#63b8ff" stroke="#63b8ff" points="550.19,-182.8 539.88,-185.23 549.46,-189.76 550.19,-182.8"/>
</a>
</g>
</g>
<!-- Node6 -->
<g id="Node000006" class="node">
<title>Node6</title>
<g id="a_Node000006"><a xlink:href="AssetRegistry_8h.html" target="_top" xlink:title=" ">
<polygon fill="white" stroke="#666666" points="935.57,-132 816.07,-132 816.07,-112 935.57,-112 935.57,-132"/>
<text xml:space="preserve" text-anchor="middle" x="875.82" y="-118.5" font-family="Helvetica,sans-Serif" font-size="10.00">LGE/fs/AssetRegistry.h</text>
</a>
</g>
</g>
<!-- Node1&#45;&gt;Node6 -->
<g id="edge25_Node000001_Node000006" class="edge">
<title>Node1&#45;&gt;Node6</title>
<g id="a_edge25_Node000001_Node000006"><a xlink:title=" ">
<path fill="none" stroke="#63b8ff" d="M974.85,-223.65C960.15,-215.47 939.32,-202.62 923.82,-188 909.18,-174.19 895.88,-155.45 887.01,-141.64"/>
<polygon fill="#63b8ff" stroke="#63b8ff" points="890.19,-140.13 881.94,-133.49 884.25,-143.83 890.19,-140.13"/>
</a>
</g>
</g>
<!-- Node7 -->
<g id="Node000007" class="node">
<title>Node7</title>
<g id="a_Node000007"><a xlink:href="MetaDB_8h.html" target="_top" xlink:title=" ">
<polygon fill="white" stroke="#666666" points="942.82,-76 848.82,-76 848.82,-56 942.82,-56 942.82,-76"/>
<text xml:space="preserve" text-anchor="middle" x="895.82" y="-62.5" font-family="Helvetica,sans-Serif" font-size="10.00">LGE/fs/MetaDB.h</text>
</a>
</g>
</g>
<!-- Node1&#45;&gt;Node7 -->
<g id="edge26_Node000001_Node000007" class="edge">
<title>Node1&#45;&gt;Node7</title>
<g id="a_edge26_Node000001_Node000007"><a xlink:title=" ">
<path fill="none" stroke="#63b8ff" d="M949.6,-223.52C904.64,-211.06 836.71,-184.32 806.82,-132 793.39,-108.5 821.96,-91.13 850.23,-80.29"/>
<polygon fill="#63b8ff" stroke="#63b8ff" points="851.29,-83.62 859.53,-76.96 848.94,-77.03 851.29,-83.62"/>
</a>
</g>
</g>
<!-- Node13 -->
<g id="Node000013" class="node">
<title>Node13</title>
<g id="a_Node000013"><a xlink:href="VFS_8h.html" target="_top" xlink:title=" ">
<polygon fill="white" stroke="#666666" points="412.57,-76 335.07,-76 335.07,-56 412.57,-56 412.57,-76"/>
<text xml:space="preserve" text-anchor="middle" x="373.82" y="-62.5" font-family="Helvetica,sans-Serif" font-size="10.00">LGE/fs/VFS.h</text>
</a>
</g>
</g>
<!-- Node1&#45;&gt;Node13 -->
<g id="edge27_Node000001_Node000013" class="edge">
<title>Node1&#45;&gt;Node13</title>
<g id="a_edge27_Node000001_Node000013"><a xlink:title=" ">
<path fill="none" stroke="#63b8ff" d="M947.12,-232.3C817.89,-229.91 456.48,-220.4 414.82,-188 383.83,-163.91 376.09,-115.3 374.27,-87.59"/>
<polygon fill="#63b8ff" stroke="#63b8ff" points="377.77,-87.52 373.84,-77.68 370.77,-87.82 377.77,-87.52"/>
</a>
</g>
</g>
<!-- Node14 -->
<g id="Node000014" class="node">
<title>Node14</title>
<g id="a_Node000014"><a xlink:href="Path_8h.html" target="_top" xlink:title=" ">
<polygon fill="white" stroke="#666666" points="100.94,-76 22.69,-76 22.69,-56 100.94,-56 100.94,-76"/>
<text xml:space="preserve" text-anchor="middle" x="61.82" y="-62.5" font-family="Helvetica,sans-Serif" font-size="10.00">LGE/fs/Path.h</text>
</a>
</g>
</g>
<!-- Node1&#45;&gt;Node14 -->
<g id="edge32_Node000001_Node000014" class="edge">
<title>Node1&#45;&gt;Node14</title>
<g id="a_edge32_Node000001_Node000014"><a xlink:title=" ">
<path fill="none" stroke="#63b8ff" d="M946.99,-233.06C797.21,-232.87 323.37,-228.96 176.82,-188 125.88,-173.76 102.41,-175.14 71.82,-132 62.72,-119.16 60.51,-101.31 60.42,-87.56"/>
<polygon fill="#63b8ff" stroke="#63b8ff" points="63.91,-87.98 60.74,-77.86 56.92,-87.74 63.91,-87.98"/>
</a>
</g>
</g>
<!-- Node15 -->
<g id="Node000015" class="node">
<title>Node15</title>
<g id="a_Node000015"><a xlink:href="Dependencies_8h.html" target="_top" xlink:title=" ">
<polygon fill="white" stroke="#666666" points="1052.94,-188 932.69,-188 932.69,-168 1052.94,-168 1052.94,-188"/>
<text xml:space="preserve" text-anchor="middle" x="992.82" y="-174.5" font-family="Helvetica,sans-Serif" font-size="10.00">LGE/fs/Dependencies.h</text>
</a>
</g>
</g>
<!-- Node1&#45;&gt;Node15 -->
<g id="edge35_Node000001_Node000015" class="edge">
<title>Node1&#45;&gt;Node15</title>
<g id="a_edge35_Node000001_Node000015"><a xlink:title=" ">
<path fill="none" stroke="#63b8ff" d="M992.82,-223.59C992.82,-217.01 992.82,-207.96 992.82,-199.73"/>
<polygon fill="#63b8ff" stroke="#63b8ff" points="996.32,-199.81 992.82,-189.81 989.32,-199.81 996.32,-199.81"/>
</a>
</g>
</g>
<!-- Node17 -->
<g id="Node000017" class="node">
<title>Node17</title>
<g id="a_Node000017"><a xlink:href="Thumbs_8h.html" target="_top" xlink:title=" ">
<polygon fill="white" stroke="#666666" points="640.44,-132 547.19,-132 547.19,-112 640.44,-112 640.44,-132"/>
<text xml:space="preserve" text-anchor="middle" x="593.82" y="-118.5" font-family="Helvetica,sans-Serif" font-size="10.00">LGE/fs/Thumbs.h</text>
</a>
</g>
</g>
<!-- Node1&#45;&gt;Node17 -->
<g id="edge43_Node000001_Node000017" class="edge">
<title>Node1&#45;&gt;Node17</title>
<g id="a_edge43_Node000001_Node000017"><a xlink:title=" ">
<path fill="none" stroke="#63b8ff" d="M947.06,-225.58C902.43,-217.87 832.85,-204.63 773.82,-188 721.65,-173.3 662.88,-150.94 627.1,-136.66"/>
<polygon fill="#63b8ff" stroke="#63b8ff" points="628.76,-133.55 618.17,-133.06 626.14,-140.04 628.76,-133.55"/>
</a>
</g>
</g>
<!-- Node19 -->
<g id="Node000019" class="node">
<title>Node19</title>
<g id="a_Node000019"><a xlink:href="FSOps_8h.html" target="_top" xlink:title=" ">
<polygon fill="white" stroke="#666666" points="169.19,-132 80.44,-132 80.44,-112 169.19,-112 169.19,-132"/>
<text xml:space="preserve" text-anchor="middle" x="124.82" y="-118.5" font-family="Helvetica,sans-Serif" font-size="10.00">LGE/fs/FSOps.h</text>
</a>
</g>
</g>
<!-- Node1&#45;&gt;Node19 -->
<g id="edge48_Node000001_Node000019" class="edge">
<title>Node1&#45;&gt;Node19</title>
<g id="a_edge48_Node000001_Node000019"><a xlink:title=" ">
<path fill="none" stroke="#63b8ff" d="M947.02,-233.5C802.31,-234.57 356.47,-233.97 220.82,-188 190.78,-177.82 161.36,-155.56 143.17,-139.93"/>
<polygon fill="#63b8ff" stroke="#63b8ff" points="145.68,-137.48 135.87,-133.47 141.04,-142.72 145.68,-137.48"/>
</a>
</g>
</g>
<!-- Node20 -->
<g id="Node000020" class="node">
<title>Node20</title>
<g id="a_Node000020"><a xlink:href="ImporterRegistry_8h.html" target="_top" xlink:title=" ">
<polygon fill="white" stroke="#666666" points="1378.32,-188 1227.32,-188 1227.32,-168 1378.32,-168 1378.32,-188"/>
<text xml:space="preserve" text-anchor="middle" x="1302.82" y="-174.5" font-family="Helvetica,sans-Serif" font-size="10.00">LGE/assets/ImporterRegistry.h</text>
</a>
</g>
</g>
<!-- Node1&#45;&gt;Node20 -->
<g id="edge53_Node000001_Node000020" class="edge">
<title>Node1&#45;&gt;Node20</title>
<g id="a_edge53_Node000001_Node000020"><a xlink:title=" ">
<path fill="none" stroke="#63b8ff" d="M1038.56,-225.03C1091.09,-215.88 1177.68,-200.8 1237.35,-190.4"/>
<polygon fill="#63b8ff" stroke="#63b8ff" points="1237.79,-193.88 1247.04,-188.72 1236.59,-186.98 1237.79,-193.88"/>
</a>
</g>
</g>
<!-- Node22 -->
<g id="Node000022" class="node">
<title>Node22</title>
<g id="a_Node000022"><a xlink:href="AssetMeta_8h.html" target="_top" xlink:title=" ">
<polygon fill="white" stroke="#666666" points="1560.94,-76 1434.69,-76 1434.69,-56 1560.94,-56 1560.94,-76"/>
<text xml:space="preserve" text-anchor="middle" x="1497.82" y="-62.5" font-family="Helvetica,sans-Serif" font-size="10.00">LGE/assets/AssetMeta.h</text>
</a>
</g>
</g>
<!-- Node1&#45;&gt;Node22 -->
<g id="edge76_Node000001_Node000022" class="edge">
<title>Node1&#45;&gt;Node22</title>
<g id="a_edge76_Node000001_Node000022"><a xlink:title=" ">
<path fill="none" stroke="#63b8ff" d="M1038.51,-231.8C1129.07,-228.78 1327.76,-218.75 1387.82,-188 1433.55,-164.58 1469.6,-113.8 1486.79,-86.05"/>
<polygon fill="#63b8ff" stroke="#63b8ff" points="1489.7,-88.01 1491.85,-77.63 1483.7,-84.41 1489.7,-88.01"/>
</a>
</g>
</g>
<!-- Node23 -->
<g id="Node000023" class="node">
<title>Node23</title>
<g id="a_Node000023"><a xlink:href="ExporterRegistry_8h.html" target="_top" xlink:title=" ">
<polygon fill="white" stroke="#666666" points="1644.69,-188 1492.94,-188 1492.94,-168 1644.69,-168 1644.69,-188"/>
<text xml:space="preserve" text-anchor="middle" x="1568.82" y="-174.5" font-family="Helvetica,sans-Serif" font-size="10.00">LGE/assets/ExporterRegistry.h</text>
</a>
</g>
</g>
<!-- Node1&#45;&gt;Node23 -->
<g id="edge65_Node000001_Node000023" class="edge">
<title>Node1&#45;&gt;Node23</title>
<g id="a_edge65_Node000001_Node000023"><a xlink:title=" ">
<path fill="none" stroke="#63b8ff" d="M1038.73,-228.86C1124.97,-221.06 1317.08,-203.57 1478.82,-188 1479.67,-187.92 1480.52,-187.84 1481.38,-187.75"/>
<polygon fill="#63b8ff" stroke="#63b8ff" points="1481.59,-191.25 1491.2,-186.8 1480.91,-184.28 1481.59,-191.25"/>
</a>
</g>
</g>
<!-- Node25 -->
<g id="Node000025" class="node">
<title>Node25</title>
<g id="a_Node000025"><a xlink:href="Log_8h.html" target="_top" xlink:title=" ">
<polygon fill="white" stroke="#666666" points="1746.94,-188 1662.69,-188 1662.69,-168 1746.94,-168 1746.94,-188"/>
<text xml:space="preserve" text-anchor="middle" x="1704.82" y="-174.5" font-family="Helvetica,sans-Serif" font-size="10.00">LGE/core/Log.h</text>
</a>
</g>
</g>
<!-- Node1&#45;&gt;Node25 -->
<g id="edge77_Node000001_Node000025" class="edge">
<title>Node1&#45;&gt;Node25</title>
<g id="a_edge77_Node000001_Node000025"><a xlink:title=" ">
<path fill="none" stroke="#63b8ff" d="M1038.65,-231.56C1144.66,-227.88 1415.12,-216.42 1651.08,-188.21"/>
<polygon fill="#63b8ff" stroke="#63b8ff" points="1651.28,-191.71 1660.79,-187.04 1650.44,-184.76 1651.28,-191.71"/>
</a>
</g>
</g>
<!-- Node27 -->
<g id="Node000027" class="node">
<title>Node27</title>
<g id="a_Node000027"><a xlink:title=" ">
<polygon fill="#e0e0e0" stroke="#999999" points="1826.32,-188 1765.32,-188 1765.32,-168 1826.32,-168 1826.32,-188"/>
<text xml:space="preserve" text-anchor="middle" x="1795.82" y="-174.5" font-family="Helvetica,sans-Serif" font-size="10.00">filesystem</text>
</a>
</g>
</g>
<!-- Node1&#45;&gt;Node27 -->
<g id="edge80_Node000001_Node000027" class="edge">
<title>Node1&#45;&gt;Node27</title>
<g id="a_edge80_Node000001_Node000027"><a xlink:title=" ">
<path fill="none" stroke="#63b8ff" d="M1038.65,-232.88C1156.05,-232.03 1477.18,-226.24 1753.83,-188.03"/>
<polygon fill="#63b8ff" stroke="#63b8ff" points="1753.98,-191.54 1763.4,-186.69 1753.01,-184.61 1753.98,-191.54"/>
</a>
</g>
</g>
<!-- Node28 -->
<g id="Node000028" class="node">
<title>Node28</title>
<g id="a_Node000028"><a xlink:title=" ">
<polygon fill="#e0e0e0" stroke="#999999" points="1899.69,-188 1843.94,-188 1843.94,-168 1899.69,-168 1899.69,-188"/>
<text xml:space="preserve" text-anchor="middle" x="1871.82" y="-174.5" font-family="Helvetica,sans-Serif" font-size="10.00">algorithm</text>
</a>
</g>
</g>
<!-- Node1&#45;&gt;Node28 -->
<g id="edge81_Node000001_Node000028" class="edge">
<title>Node1&#45;&gt;Node28</title>
<g id="a_edge81_Node000001_Node000028"><a xlink:title=" ">
<path fill="none" stroke="#63b8ff" d="M1038.36,-233.62C1163.82,-234.69 1525.02,-233.39 1832.26,-188.28"/>
<polygon fill="#63b8ff" stroke="#63b8ff" points="1832.75,-191.75 1842.12,-186.81 1831.72,-184.83 1832.75,-191.75"/>
</a>
</g>
</g>
<!-- Node29 -->
<g id="Node000029" class="node">
<title>Node29</title>
<g id="a_Node000029"><a xlink:title=" ">
<polygon fill="#e0e0e0" stroke="#999999" points="1963.44,-188 1918.19,-188 1918.19,-168 1963.44,-168 1963.44,-188"/>
<text xml:space="preserve" text-anchor="middle" x="1940.82" y="-174.5" font-family="Helvetica,sans-Serif" font-size="10.00">chrono</text>
</a>
</g>
</g>
<!-- Node1&#45;&gt;Node29 -->
<g id="edge82_Node000001_Node000029" class="edge">
<title>Node1&#45;&gt;Node29</title>
<g id="a_edge82_Node000001_Node000029"><a xlink:title=" ">
<path fill="none" stroke="#63b8ff" d="M1038.8,-232.11C1196.72,-228.84 1717.1,-216.29 1906.68,-187.88"/>
<polygon fill="#63b8ff" stroke="#63b8ff" points="1907.05,-191.36 1916.39,-186.35 1905.97,-184.45 1907.05,-191.36"/>
</a>
</g>
</g>
<!-- Node3 -->
<g id="Node000003" class="node">
<title>Node3</title>
<g id="a_Node000003"><a xlink:href="FileIO_8h.html" target="_top" xlink:title=" ">
<polygon fill="white" stroke="#666666" points="202.94,-76 118.69,-76 118.69,-56 202.94,-56 202.94,-76"/>
<text xml:space="preserve" text-anchor="middle" x="160.82" y="-62.5" font-family="Helvetica,sans-Serif" font-size="10.00">LGE/fs/FileIO.h</text>
</a>
</g>
</g>
<!-- Node2&#45;&gt;Node3 -->
<g id="edge2_Node000002_Node000003" class="edge">
<title>Node2&#45;&gt;Node3</title>
<g id="a_edge2_Node000002_Node000003"><a xlink:title=" ">
<path fill="none" stroke="#63b8ff" d="M423.39,-171.51C377.49,-165.68 312.22,-154.13 258.82,-132 229.42,-119.82 199.5,-98.38 180.59,-83.47"/>
<polygon fill="#63b8ff" stroke="#63b8ff" points="182.92,-80.86 172.94,-77.3 178.52,-86.31 182.92,-80.86"/>
</a>
</g>
</g>
<!-- Node4 -->
<g id="Node000004" class="node">
<title>Node4</title>
<g id="a_Node000004"><a xlink:title=" ">
<polygon fill="#e0e0e0" stroke="#999999" points="1028.82,-20 988.82,-20 988.82,0 1028.82,0 1028.82,-20"/>
<text xml:space="preserve" text-anchor="middle" x="1008.82" y="-6.5" font-family="Helvetica,sans-Serif" font-size="10.00">string</text>
</a>
</g>
</g>
<!-- Node2&#45;&gt;Node4 -->
<g id="edge19_Node000002_Node000004" class="edge">
<title>Node2&#45;&gt;Node4</title>
<g id="a_edge19_Node000002_Node000004"><a xlink:title=" ">
<path fill="none" stroke="#63b8ff" d="M487.48,-167.86C497.46,-154.58 517.31,-129.59 537.82,-112 573.01,-81.82 582.14,-71.54 625.82,-56 634.1,-53.05 886.74,-24.64 977.08,-14.54"/>
<polygon fill="#63b8ff" stroke="#63b8ff" points="977.42,-18.02 986.97,-13.43 976.64,-11.07 977.42,-18.02"/>
</a>
</g>
</g>
<!-- Node5 -->
<g id="Node000005" class="node">
<title>Node5</title>
<g id="a_Node000005"><a xlink:title=" ">
<polygon fill="#e0e0e0" stroke="#999999" points="301.57,-20 236.07,-20 236.07,0 301.57,0 301.57,-20"/>
<text xml:space="preserve" text-anchor="middle" x="268.82" y="-6.5" font-family="Helvetica,sans-Serif" font-size="10.00">string_view</text>
</a>
</g>
</g>
<!-- Node2&#45;&gt;Node5 -->
<g id="edge20_Node000002_Node000005" class="edge">
<title>Node2&#45;&gt;Node5</title>
<g id="a_edge20_Node000002_Node000005"><a xlink:title=" ">
<path fill="none" stroke="#63b8ff" d="M423.44,-174.72C326.28,-170.2 133.85,-158.17 71.82,-132 35.74,-116.78 20.53,-111.41 3.82,-76 0.02,-67.96 -1.92,-62.79 3.82,-56 31.57,-23.14 156.75,-14.27 224.67,-11.88"/>
<polygon fill="#63b8ff" stroke="#63b8ff" points="224.45,-15.39 234.34,-11.57 224.23,-8.39 224.45,-15.39"/>
</a>
</g>
</g>
<!-- Node2&#45;&gt;Node6 -->
<g id="edge5_Node000002_Node000006" class="edge">
<title>Node2&#45;&gt;Node6</title>
<g id="a_edge5_Node000002_Node000006"><a xlink:title=" ">
<path fill="none" stroke="#63b8ff" d="M538.25,-169.15C608.67,-159.52 728.03,-143.2 804.32,-132.77"/>
<polygon fill="#63b8ff" stroke="#63b8ff" points="804.79,-136.24 814.22,-131.42 803.84,-129.31 804.79,-136.24"/>
</a>
</g>
</g>
<!-- Node8 -->
<g id="Node000008" class="node">
<title>Node8</title>
<g id="a_Node000008"><a xlink:title=" ">
<polygon fill="#e0e0e0" stroke="#999999" points="1144.32,-20 1101.32,-20 1101.32,0 1144.32,0 1144.32,-20"/>
<text xml:space="preserve" text-anchor="middle" x="1122.82" y="-6.5" font-family="Helvetica,sans-Serif" font-size="10.00">vector</text>
</a>
</g>
</g>
<!-- Node2&#45;&gt;Node8 -->
<g id="edge21_Node000002_Node000008" class="edge">
<title>Node2&#45;&gt;Node8</title>
<g id="a_edge21_Node000002_Node000008"><a xlink:title=" ">
<path fill="none" stroke="#63b8ff" d="M538.29,-173.54C573.78,-168.74 618.39,-157.6 649.82,-132 679.09,-108.15 656.75,-77.47 687.82,-56 752.13,-11.54 960.05,-28.12 1037.82,-20 1054.99,-18.21 1074.11,-16.19 1089.86,-14.51"/>
<polygon fill="#63b8ff" stroke="#63b8ff" points="1090.08,-18.01 1099.65,-13.47 1089.34,-11.05 1090.08,-18.01"/>
</a>
</g>
</g>
<!-- Node9 -->
<g id="Node000009" class="node">
<title>Node9</title>
<g id="a_Node000009"><a xlink:title=" ">
<polygon fill="#e0e0e0" stroke="#999999" points="503.69,-20 453.94,-20 453.94,0 503.69,0 503.69,-20"/>
<text xml:space="preserve" text-anchor="middle" x="478.82" y="-6.5" font-family="Helvetica,sans-Serif" font-size="10.00">optional</text>
</a>
</g>
</g>
<!-- Node2&#45;&gt;Node9 -->
<g id="edge23_Node000002_Node000009" class="edge">
<title>Node2&#45;&gt;Node9</title>
<g id="a_edge23_Node000002_Node000009"><a xlink:title=" ">
<path fill="none" stroke="#63b8ff" d="M447.92,-167.52C391.71,-149.65 286.85,-108.07 325.82,-56 339.81,-37.3 401.83,-23.7 442.48,-16.6"/>
<polygon fill="#63b8ff" stroke="#63b8ff" points="442.81,-20.1 452.09,-14.98 441.64,-13.19 442.81,-20.1"/>
</a>
</g>
</g>
<!-- Node10 -->
<g id="Node000010" class="node">
<title>Node10</title>
<g id="a_Node000010"><a xlink:title=" ">
<polygon fill="#e0e0e0" stroke="#999999" points="918.44,-20 873.19,-20 873.19,0 918.44,0 918.44,-20"/>
<text xml:space="preserve" text-anchor="middle" x="895.82" y="-6.5" font-family="Helvetica,sans-Serif" font-size="10.00">cstdint</text>
</a>
</g>
</g>
<!-- Node2&#45;&gt;Node10 -->
<g id="edge24_Node000002_Node000010" class="edge">
<title>Node2&#45;&gt;Node10</title>
<g id="a_edge24_Node000002_Node000010"><a xlink:title=" ">
<path fill="none" stroke="#63b8ff" d="M474.81,-167.8C466.93,-154.42 455.35,-129.33 466.82,-112 501.99,-58.86 537.5,-73.35 598.82,-56 691.85,-29.67 805.9,-17.88 861.73,-13.37"/>
<polygon fill="#63b8ff" stroke="#63b8ff" points="861.84,-16.87 871.54,-12.61 861.3,-9.9 861.84,-16.87"/>
</a>
</g>
</g>
<!-- Node12 -->
<g id="Node000012" class="node">
<title>Node12</title>
<g id="a_Node000012"><a xlink:title=" ">
<polygon fill="#e0e0e0" stroke="#999999" points="754.82,-76 696.82,-76 696.82,-56 754.82,-56 754.82,-76"/>
<text xml:space="preserve" text-anchor="middle" x="725.82" y="-62.5" font-family="Helvetica,sans-Serif" font-size="10.00">functional</text>
</a>
</g>
</g>
<!-- Node2&#45;&gt;Node12 -->
<g id="edge22_Node000002_Node000012" class="edge">
<title>Node2&#45;&gt;Node12</title>
<g id="a_edge22_Node000002_Node000012"><a xlink:title=" ">
<path fill="none" stroke="#63b8ff" d="M538.06,-175.58C581.2,-171.98 640.05,-161.43 682.82,-132 699.16,-120.75 710.89,-101.07 717.93,-86.3"/>
<polygon fill="#63b8ff" stroke="#63b8ff" points="720.94,-88.13 721.78,-77.57 714.54,-85.3 720.94,-88.13"/>
</a>
</g>
</g>
<!-- Node3&#45;&gt;Node4 -->
<g id="edge3_Node000003_Node000004" class="edge">
<title>Node3&#45;&gt;Node4</title>
<g id="a_edge3_Node000003_Node000004"><a xlink:title=" ">
<path fill="none" stroke="#63b8ff" d="M203.25,-62.64C353.59,-54.26 855.63,-26.12 927.82,-20 944.17,-18.61 962.33,-16.63 977.31,-14.89"/>
<polygon fill="#63b8ff" stroke="#63b8ff" points="977.52,-18.39 987.04,-13.73 976.69,-11.44 977.52,-18.39"/>
</a>
</g>
</g>
<!-- Node3&#45;&gt;Node5 -->
<g id="edge4_Node000003_Node000005" class="edge">
<title>Node3&#45;&gt;Node5</title>
<g id="a_edge4_Node000003_Node000005"><a xlink:title=" ">
<path fill="none" stroke="#63b8ff" d="M179.63,-55.59C196.17,-47.32 220.53,-35.14 239.61,-25.6"/>
<polygon fill="#63b8ff" stroke="#63b8ff" points="241.12,-28.76 248.5,-21.16 237.99,-22.5 241.12,-28.76"/>
</a>
</g>
</g>
<!-- Node6&#45;&gt;Node4 -->
<g id="edge12_Node000006_Node000004" class="edge">
<title>Node6&#45;&gt;Node4</title>
<g id="a_edge12_Node000006_Node000004"><a xlink:title=" ">
<path fill="none" stroke="#63b8ff" d="M904.8,-111.58C924.25,-104.19 949.56,-92.39 967.82,-76 982.07,-63.2 993.24,-44.31 1000.29,-30.18"/>
<polygon fill="#63b8ff" stroke="#63b8ff" points="1003.31,-31.99 1004.4,-21.46 996.98,-29.01 1003.31,-31.99"/>
</a>
</g>
</g>
<!-- Node6&#45;&gt;Node5 -->
<g id="edge13_Node000006_Node000005" class="edge">
<title>Node6&#45;&gt;Node5</title>
<g id="a_edge13_Node000006_Node000005"><a xlink:title=" ">
<path fill="none" stroke="#63b8ff" d="M859.1,-111.65C843.05,-102.64 818.18,-88.56 796.82,-76 782.03,-67.31 780.11,-61.36 763.82,-56 721.61,-42.12 426.91,-21.45 313.32,-13.89"/>
<polygon fill="#63b8ff" stroke="#63b8ff" points="313.68,-10.41 303.47,-13.24 313.22,-17.4 313.68,-10.41"/>
</a>
</g>
</g>
<!-- Node6&#45;&gt;Node7 -->
<g id="edge6_Node000006_Node000007" class="edge">
<title>Node6&#45;&gt;Node7</title>
<g id="a_edge6_Node000006_Node000007"><a xlink:title=" ">
<path fill="none" stroke="#63b8ff" d="M879.3,-111.59C881.82,-104.78 885.33,-95.32 888.46,-86.86"/>
<polygon fill="#63b8ff" stroke="#63b8ff" points="891.66,-88.31 891.85,-77.72 885.09,-85.88 891.66,-88.31"/>
</a>
</g>
</g>
<!-- Node6&#45;&gt;Node8 -->
<g id="edge14_Node000006_Node000008" class="edge">
<title>Node6&#45;&gt;Node8</title>
<g id="a_edge14_Node000006_Node000008"><a xlink:title=" ">
<path fill="none" stroke="#63b8ff" d="M901.41,-111.56C924.67,-102.82 959.83,-89.22 989.82,-76 1026.61,-59.78 1068.1,-39.11 1094.81,-25.49"/>
<polygon fill="#63b8ff" stroke="#63b8ff" points="1096.31,-28.65 1103.61,-20.98 1093.11,-22.42 1096.31,-28.65"/>
</a>
</g>
</g>
<!-- Node6&#45;&gt;Node9 -->
<g id="edge16_Node000006_Node000009" class="edge">
<title>Node6&#45;&gt;Node9</title>
<g id="a_edge16_Node000006_Node000009"><a xlink:title=" ">
<path fill="none" stroke="#63b8ff" d="M867.68,-111.59C854.45,-96.98 826.73,-69.16 796.82,-56 746.9,-34.04 587.6,-19.36 515.22,-13.66"/>
<polygon fill="#63b8ff" stroke="#63b8ff" points="515.72,-10.19 505.48,-12.91 515.19,-17.17 515.72,-10.19"/>
</a>
</g>
</g>
<!-- Node6&#45;&gt;Node10 -->
<g id="edge18_Node000006_Node000010" class="edge">
<title>Node6&#45;&gt;Node10</title>
<g id="a_edge18_Node000006_Node000010"><a xlink:title=" ">
<path fill="none" stroke="#63b8ff" d="M905.75,-111.61C922.5,-104.65 941.94,-93.32 951.82,-76 962.56,-57.16 942.96,-38.72 924.06,-26.32"/>
<polygon fill="#63b8ff" stroke="#63b8ff" points="926.06,-23.44 915.7,-21.21 922.41,-29.41 926.06,-23.44"/>
</a>
</g>
</g>
<!-- Node11 -->
<g id="Node000011" class="node">
<title>Node11</title>
<g id="a_Node000011"><a xlink:title=" ">
<polygon fill="#e0e0e0" stroke="#999999" points="1233.19,-76 1150.44,-76 1150.44,-56 1233.19,-56 1233.19,-76"/>
<text xml:space="preserve" text-anchor="middle" x="1191.82" y="-62.5" font-family="Helvetica,sans-Serif" font-size="10.00">unordered_map</text>
</a>
</g>
</g>
<!-- Node6&#45;&gt;Node11 -->
<g id="edge15_Node000006_Node000011" class="edge">
<title>Node6&#45;&gt;Node11</title>
<g id="a_edge15_Node000006_Node000011"><a xlink:title=" ">
<path fill="none" stroke="#63b8ff" d="M931.22,-111.53C989.8,-101.52 1081.52,-85.85 1139.07,-76.01"/>
<polygon fill="#63b8ff" stroke="#63b8ff" points="1139.35,-79.52 1148.62,-74.38 1138.17,-72.62 1139.35,-79.52"/>
</a>
</g>
</g>
<!-- Node6&#45;&gt;Node12 -->
<g id="edge17_Node000006_Node000012" class="edge">
<title>Node6&#45;&gt;Node12</title>
<g id="a_edge17_Node000006_Node000012"><a xlink:title=" ">
<path fill="none" stroke="#63b8ff" d="M849.69,-111.59C825.64,-102.94 789.71,-90 762.73,-80.29"/>
<polygon fill="#63b8ff" stroke="#63b8ff" points="764.17,-77.09 753.57,-76.99 761.8,-83.67 764.17,-77.09"/>
</a>
</g>
</g>
<!-- Node7&#45;&gt;Node4 -->
<g id="edge7_Node000007_Node000004" class="edge">
<title>Node7&#45;&gt;Node4</title>
<g id="a_edge7_Node000007_Node000004"><a xlink:title=" ">
<path fill="none" stroke="#63b8ff" d="M915.5,-55.59C932.97,-47.24 958.77,-34.92 978.81,-25.34"/>
<polygon fill="#63b8ff" stroke="#63b8ff" points="980.1,-28.6 987.61,-21.13 977.08,-22.29 980.1,-28.6"/>
</a>
</g>
</g>
<!-- Node7&#45;&gt;Node5 -->
<g id="edge8_Node000007_Node000005" class="edge">
<title>Node7&#45;&gt;Node5</title>
<g id="a_edge8_Node000007_Node000005"><a xlink:title=" ">
<path fill="none" stroke="#63b8ff" d="M848.49,-60.64C832.12,-59.15 813.66,-57.48 796.82,-56 617.49,-40.21 403.83,-22.27 313.08,-14.69"/>
<polygon fill="#63b8ff" stroke="#63b8ff" points="313.64,-11.22 303.38,-13.88 313.06,-18.2 313.64,-11.22"/>
</a>
</g>
</g>
<!-- Node7&#45;&gt;Node8 -->
<g id="edge9_Node000007_Node000008" class="edge">
<title>Node7&#45;&gt;Node8</title>
<g id="a_edge9_Node000007_Node000008"><a xlink:title=" ">
<path fill="none" stroke="#63b8ff" d="M935.62,-55.53C979.46,-45.1 1049.14,-28.53 1089.98,-18.81"/>
<polygon fill="#63b8ff" stroke="#63b8ff" points="1090.55,-22.27 1099.46,-16.56 1088.93,-15.46 1090.55,-22.27"/>
</a>
</g>
</g>
<!-- Node7&#45;&gt;Node9 -->
<g id="edge10_Node000007_Node000009" class="edge">
<title>Node7&#45;&gt;Node9</title>
<g id="a_edge10_Node000007_Node000009"><a xlink:title=" ">
<path fill="none" stroke="#63b8ff" d="M848.54,-57.93C843.91,-57.26 839.27,-56.61 834.82,-56 718.03,-40 579.39,-23.07 515.01,-15.32"/>
<polygon fill="#63b8ff" stroke="#63b8ff" points="515.72,-11.88 505.38,-14.17 514.89,-18.83 515.72,-11.88"/>
</a>
</g>
</g>
<!-- Node7&#45;&gt;Node10 -->
<g id="edge11_Node000007_Node000010" class="edge">
<title>Node7&#45;&gt;Node10</title>
<g id="a_edge11_Node000007_Node000010"><a xlink:title=" ">
<path fill="none" stroke="#63b8ff" d="M895.82,-55.59C895.82,-49.01 895.82,-39.96 895.82,-31.73"/>
<polygon fill="#63b8ff" stroke="#63b8ff" points="899.32,-31.81 895.82,-21.81 892.32,-31.81 899.32,-31.81"/>
</a>
</g>
</g>
<!-- Node13&#45;&gt;Node4 -->
<g id="edge28_Node000013_Node000004" class="edge">
<title>Node13&#45;&gt;Node4</title>
<g id="a_edge28_Node000013_Node000004"><a xlink:title=" ">
<path fill="none" stroke="#63b8ff" d="M412.81,-62.23C503.33,-55.72 734.75,-38.56 927.82,-20 944.15,-18.43 962.31,-16.43 977.29,-14.72"/>
<polygon fill="#63b8ff" stroke="#63b8ff" points="977.49,-18.22 987.02,-13.6 976.69,-11.27 977.49,-18.22"/>
</a>
</g>
</g>
<!-- Node13&#45;&gt;Node5 -->
<g id="edge29_Node000013_Node000005" class="edge">
<title>Node13&#45;&gt;Node5</title>
<g id="a_edge29_Node000013_Node000005"><a xlink:title=" ">
<path fill="none" stroke="#63b8ff" d="M355.53,-55.59C339.51,-47.36 315.98,-35.26 297.47,-25.74"/>
<polygon fill="#63b8ff" stroke="#63b8ff" points="299.09,-22.63 288.59,-21.17 295.89,-28.86 299.09,-22.63"/>
</a>
</g>
</g>
<!-- Node13&#45;&gt;Node8 -->
<g id="edge30_Node000013_Node000008" class="edge">
<title>Node13&#45;&gt;Node8</title>
<g id="a_edge30_Node000013_Node000008"><a xlink:title=" ">
<path fill="none" stroke="#63b8ff" d="M412.77,-62.88C515.23,-57.18 800.69,-40.58 1037.82,-20 1054.9,-18.52 1073.88,-16.54 1089.56,-14.82"/>
<polygon fill="#63b8ff" stroke="#63b8ff" points="1089.77,-18.31 1099.32,-13.73 1088.99,-11.36 1089.77,-18.31"/>
</a>
</g>
</g>
<!-- Node13&#45;&gt;Node9 -->
<g id="edge31_Node000013_Node000009" class="edge">
<title>Node13&#45;&gt;Node9</title>
<g id="a_edge31_Node000013_Node000009"><a xlink:title=" ">
<path fill="none" stroke="#63b8ff" d="M392.11,-55.59C408.12,-47.36 431.65,-35.26 450.16,-25.74"/>
<polygon fill="#63b8ff" stroke="#63b8ff" points="451.75,-28.86 459.04,-21.17 448.54,-22.63 451.75,-28.86"/>
</a>
</g>
</g>
<!-- Node14&#45;&gt;Node4 -->
<g id="edge33_Node000014_Node000004" class="edge">
<title>Node14&#45;&gt;Node4</title>
<g id="a_edge33_Node000014_Node000004"><a xlink:title=" ">
<path fill="none" stroke="#63b8ff" d="M101.3,-57.14C104.18,-56.71 107.04,-56.32 109.82,-56 471.33,-14.36 565,-48.11 927.82,-20 944.18,-18.73 962.34,-16.77 977.32,-14.99"/>
<polygon fill="#63b8ff" stroke="#63b8ff" points="977.54,-18.49 987.04,-13.81 976.69,-11.54 977.54,-18.49"/>
</a>
</g>
</g>
<!-- Node14&#45;&gt;Node5 -->
<g id="edge34_Node000014_Node000005" class="edge">
<title>Node14&#45;&gt;Node5</title>
<g id="a_edge34_Node000014_Node000005"><a xlink:title=" ">
<path fill="none" stroke="#63b8ff" d="M97.87,-55.59C133.3,-46.35 187.39,-32.24 225.21,-22.38"/>
<polygon fill="#63b8ff" stroke="#63b8ff" points="225.64,-25.88 234.44,-19.97 223.88,-19.11 225.64,-25.88"/>
</a>
</g>
</g>
<!-- Node15&#45;&gt;Node4 -->
<g id="edge37_Node000015_Node000004" class="edge">
<title>Node15&#45;&gt;Node4</title>
<g id="a_edge37_Node000015_Node000004"><a xlink:title=" ">
<path fill="none" stroke="#63b8ff" d="M1008.11,-167.69C1019.51,-159.79 1034.19,-147.3 1040.82,-132 1055.79,-97.44 1035.81,-54.2 1021.35,-29.89"/>
<polygon fill="#63b8ff" stroke="#63b8ff" points="1024.5,-28.32 1016.23,-21.71 1018.57,-32.04 1024.5,-28.32"/>
</a>
</g>
</g>
<!-- Node15&#45;&gt;Node5 -->
<g id="edge38_Node000015_Node000005" class="edge">
<title>Node15&#45;&gt;Node5</title>
<g id="a_edge38_Node000015_Node000005"><a xlink:title=" ">
<path fill="none" stroke="#63b8ff" d="M932.29,-174.42C841.01,-169.83 662.93,-158.16 513.82,-132 416.13,-114.86 373.51,-140.07 297.82,-76 284.26,-64.52 276.78,-45.44 272.83,-30.91"/>
<polygon fill="#63b8ff" stroke="#63b8ff" points="276.32,-30.46 270.63,-21.52 269.51,-32.06 276.32,-30.46"/>
</a>
</g>
</g>
<!-- Node15&#45;&gt;Node6 -->
<g id="edge36_Node000015_Node000006" class="edge">
<title>Node15&#45;&gt;Node6</title>
<g id="a_edge36_Node000015_Node000006"><a xlink:title=" ">
<path fill="none" stroke="#63b8ff" d="M972.44,-167.59C954.26,-159.21 927.39,-146.8 906.6,-137.21"/>
<polygon fill="#63b8ff" stroke="#63b8ff" points="908.28,-134.13 897.73,-133.11 905.34,-140.48 908.28,-134.13"/>
</a>
</g>
</g>
<!-- Node15&#45;&gt;Node8 -->
<g id="edge39_Node000015_Node000008" class="edge">
<title>Node15&#45;&gt;Node8</title>
<g id="a_edge39_Node000015_Node000008"><a xlink:title=" ">
<path fill="none" stroke="#63b8ff" d="M1010.51,-167.57C1024.39,-159.52 1043.52,-146.9 1056.82,-132 1084.46,-101.02 1104.95,-56.45 1115.29,-30.94"/>
<polygon fill="#63b8ff" stroke="#63b8ff" points="1118.48,-32.38 1118.87,-21.8 1111.96,-29.83 1118.48,-32.38"/>
</a>
</g>
</g>
<!-- Node15&#45;&gt;Node9 -->
<g id="edge42_Node000015_Node000009" class="edge">
<title>Node15&#45;&gt;Node9</title>
<g id="a_edge42_Node000015_Node000009"><a xlink:title=" ">
<path fill="none" stroke="#63b8ff" d="M932.59,-174.3C816.32,-168.6 569.54,-154.07 537.82,-132 503.71,-108.27 488.52,-59.15 482.42,-31.34"/>
<polygon fill="#63b8ff" stroke="#63b8ff" points="485.89,-30.85 480.52,-21.72 479.03,-32.21 485.89,-30.85"/>
</a>
</g>
</g>
<!-- Node15&#45;&gt;Node11 -->
<g id="edge41_Node000015_Node000011" class="edge">
<title>Node15&#45;&gt;Node11</title>
<g id="a_edge41_Node000015_Node000011"><a xlink:title=" ">
<path fill="none" stroke="#63b8ff" d="M1026.16,-167.56C1050.75,-159.86 1084.53,-147.69 1111.82,-132 1135.42,-118.43 1159.22,-98.03 1174.65,-83.71"/>
<polygon fill="#63b8ff" stroke="#63b8ff" points="1176.75,-86.54 1181.61,-77.12 1171.94,-81.46 1176.75,-86.54"/>
</a>
</g>
</g>
<!-- Node16 -->
<g id="Node000016" class="node">
<title>Node16</title>
<g id="a_Node000016"><a xlink:title=" ">
<polygon fill="#e0e0e0" stroke="#999999" points="1031.57,-132 954.07,-132 954.07,-112 1031.57,-112 1031.57,-132"/>
<text xml:space="preserve" text-anchor="middle" x="992.82" y="-118.5" font-family="Helvetica,sans-Serif" font-size="10.00">unordered_set</text>
</a>
</g>
</g>
<!-- Node15&#45;&gt;Node16 -->
<g id="edge40_Node000015_Node000016" class="edge">
<title>Node15&#45;&gt;Node16</title>
<g id="a_edge40_Node000015_Node000016"><a xlink:title=" ">
<path fill="none" stroke="#63b8ff" d="M992.82,-167.59C992.82,-161.01 992.82,-151.96 992.82,-143.73"/>
<polygon fill="#63b8ff" stroke="#63b8ff" points="996.32,-143.81 992.82,-133.81 989.32,-143.81 996.32,-143.81"/>
</a>
</g>
</g>
<!-- Node17&#45;&gt;Node4 -->
<g id="edge44_Node000017_Node000004" class="edge">
<title>Node17&#45;&gt;Node4</title>
<g id="a_edge44_Node000017_Node000004"><a xlink:title=" ">
<path fill="none" stroke="#63b8ff" d="M599.56,-111.54C609.04,-96.86 629.45,-68.94 654.82,-56 662,-52.34 891.71,-24.86 977.19,-14.73"/>
<polygon fill="#63b8ff" stroke="#63b8ff" points="977.46,-18.23 986.98,-13.57 976.64,-11.27 977.46,-18.23"/>
</a>
</g>
</g>
<!-- Node17&#45;&gt;Node5 -->
<g id="edge45_Node000017_Node000005" class="edge">
<title>Node17&#45;&gt;Node5</title>
<g id="a_edge45_Node000017_Node000005"><a xlink:title=" ">
<path fill="none" stroke="#63b8ff" d="M546.79,-116.92C480.33,-110.52 362.9,-96.68 325.82,-76 306.22,-65.07 290.07,-44.74 280.03,-29.72"/>
<polygon fill="#63b8ff" stroke="#63b8ff" points="283.2,-28.19 274.89,-21.62 277.29,-31.94 283.2,-28.19"/>
</a>
</g>
</g>
<!-- Node17&#45;&gt;Node10 -->
<g id="edge47_Node000017_Node000010" class="edge">
<title>Node17&#45;&gt;Node10</title>
<g id="a_edge47_Node000017_Node000010"><a xlink:title=" ">
<path fill="none" stroke="#63b8ff" d="M594.24,-111.82C595.42,-97.52 599.9,-70.11 616.82,-56 653.43,-25.45 795.32,-15.35 861.49,-12.26"/>
<polygon fill="#63b8ff" stroke="#63b8ff" points="861.57,-15.76 871.41,-11.82 861.26,-8.76 861.57,-15.76"/>
</a>
</g>
</g>
<!-- Node18 -->
<g id="Node000018" class="node">
<title>Node18</title>
<g id="a_Node000018"><a xlink:title=" ">
<polygon fill="#e0e0e0" stroke="#999999" points="1416.44,-76 1365.19,-76 1365.19,-56 1416.44,-56 1416.44,-76"/>
<text xml:space="preserve" text-anchor="middle" x="1390.82" y="-62.5" font-family="Helvetica,sans-Serif" font-size="10.00">memory</text>
</a>
</g>
</g>
<!-- Node17&#45;&gt;Node18 -->
<g id="edge46_Node000017_Node000018" class="edge">
<title>Node17&#45;&gt;Node18</title>
<g id="a_edge46_Node000017_Node000018"><a xlink:title=" ">
<path fill="none" stroke="#63b8ff" d="M640.7,-117.82C785.33,-108.02 1222.72,-78.39 1353.5,-69.53"/>
<polygon fill="#63b8ff" stroke="#63b8ff" points="1353.58,-73.03 1363.32,-68.86 1353.1,-66.05 1353.58,-73.03"/>
</a>
</g>
</g>
<!-- Node19&#45;&gt;Node3 -->
<g id="edge49_Node000019_Node000003" class="edge">
<title>Node19&#45;&gt;Node3</title>
<g id="a_edge49_Node000019_Node000003"><a xlink:title=" ">
<path fill="none" stroke="#63b8ff" d="M131.09,-111.59C135.84,-104.47 142.51,-94.45 148.34,-85.72"/>
<polygon fill="#63b8ff" stroke="#63b8ff" points="151.14,-87.82 153.78,-77.56 145.32,-83.94 151.14,-87.82"/>
</a>
</g>
</g>
<!-- Node19&#45;&gt;Node4 -->
<g id="edge51_Node000019_Node000004" class="edge">
<title>Node19&#45;&gt;Node4</title>
<g id="a_edge51_Node000019_Node000004"><a xlink:title=" ">
<path fill="none" stroke="#63b8ff" d="M169.52,-114C250.85,-101.41 428.47,-74.51 578.82,-56 733.58,-36.95 772.77,-36.61 927.82,-20 944.13,-18.25 962.29,-16.24 977.28,-14.56"/>
<polygon fill="#63b8ff" stroke="#63b8ff" points="977.46,-18.06 987.01,-13.47 976.68,-11.11 977.46,-18.06"/>
</a>
</g>
</g>
<!-- Node19&#45;&gt;Node5 -->
<g id="edge52_Node000019_Node000005" class="edge">
<title>Node19&#45;&gt;Node5</title>
<g id="a_edge52_Node000019_Node000005"><a xlink:title=" ">
<path fill="none" stroke="#63b8ff" d="M80.01,-111.98C39.95,-101.92 -9.15,-83.37 13.82,-56 40.19,-24.57 158.6,-15.08 224.39,-12.22"/>
<polygon fill="#63b8ff" stroke="#63b8ff" points="224.27,-15.73 234.13,-11.84 224,-8.74 224.27,-15.73"/>
</a>
</g>
</g>
<!-- Node19&#45;&gt;Node14 -->
<g id="edge50_Node000019_Node000014" class="edge">
<title>Node19&#45;&gt;Node14</title>
<g id="a_edge50_Node000019_Node000014"><a xlink:title=" ">
<path fill="none" stroke="#63b8ff" d="M113.84,-111.59C104.9,-103.93 92.05,-92.91 81.35,-83.75"/>
<polygon fill="#63b8ff" stroke="#63b8ff" points="83.68,-81.13 73.81,-77.28 79.13,-86.45 83.68,-81.13"/>
</a>
</g>
</g>
<!-- Node20&#45;&gt;Node4 -->
<g id="edge61_Node000020_Node000004" class="edge">
<title>Node20&#45;&gt;Node4</title>
<g id="a_edge61_Node000020_Node000004"><a xlink:title=" ">
<path fill="none" stroke="#63b8ff" d="M1294.64,-167.52C1287.38,-158.76 1276.88,-145.14 1269.82,-132 1252.78,-100.29 1269.25,-79.31 1241.82,-56 1226.55,-43.03 1099.94,-23.79 1040.02,-15.29"/>
<polygon fill="#63b8ff" stroke="#63b8ff" points="1040.87,-11.88 1030.48,-13.95 1039.9,-18.81 1040.87,-11.88"/>
</a>
</g>
</g>
<!-- Node20&#45;&gt;Node8 -->
<g id="edge62_Node000020_Node000008" class="edge">
<title>Node20&#45;&gt;Node8</title>
<g id="a_edge62_Node000020_Node000008"><a xlink:title=" ">
<path fill="none" stroke="#63b8ff" d="M1378.45,-173.5C1484.98,-167.78 1668.57,-154.74 1688.82,-132 1694.73,-125.36 1692.52,-120.08 1688.82,-112 1672.93,-77.34 1658.93,-70.86 1623.82,-56 1538.99,-20.1 1253.77,-12.81 1156.02,-11.35"/>
<polygon fill="#63b8ff" stroke="#63b8ff" points="1156.35,-7.86 1146.31,-11.22 1156.26,-14.86 1156.35,-7.86"/>
</a>
</g>
</g>
<!-- Node20&#45;&gt;Node11 -->
<g id="edge64_Node000020_Node000011" class="edge">
<title>Node20&#45;&gt;Node11</title>
<g id="a_edge64_Node000020_Node000011"><a xlink:title=" ">
<path fill="none" stroke="#63b8ff" d="M1253.47,-167.53C1233,-161.01 1211,-150.12 1197.82,-132 1188.63,-119.37 1187.59,-101.5 1188.6,-87.69"/>
<polygon fill="#63b8ff" stroke="#63b8ff" points="1192.05,-88.27 1189.74,-77.93 1185.1,-87.45 1192.05,-88.27"/>
</a>
</g>
</g>
<!-- Node20&#45;&gt;Node18 -->
<g id="edge63_Node000020_Node000018" class="edge">
<title>Node20&#45;&gt;Node18</title>
<g id="a_edge63_Node000020_Node000018"><a xlink:title=" ">
<path fill="none" stroke="#63b8ff" d="M1350.37,-167.56C1370.1,-161.05 1391.08,-150.15 1402.82,-132 1411.58,-118.45 1407.09,-100.17 1401.27,-86.45"/>
<polygon fill="#63b8ff" stroke="#63b8ff" points="1404.48,-85.05 1396.98,-77.56 1398.18,-88.09 1404.48,-85.05"/>
</a>
</g>
</g>
<!-- Node21 -->
<g id="Node000021" class="node">
<title>Node21</title>
<g id="a_Node000021"><a xlink:href="Importer_8h.html" target="_top" xlink:title=" ">
<polygon fill="white" stroke="#666666" points="1393.32,-132 1278.32,-132 1278.32,-112 1393.32,-112 1393.32,-132"/>
<text xml:space="preserve" text-anchor="middle" x="1335.82" y="-118.5" font-family="Helvetica,sans-Serif" font-size="10.00">LGE/assets/Importer.h</text>
</a>
</g>
</g>
<!-- Node20&#45;&gt;Node21 -->
<g id="edge54_Node000020_Node000021" class="edge">
<title>Node20&#45;&gt;Node21</title>
<g id="a_edge54_Node000020_Node000021"><a xlink:title=" ">
<path fill="none" stroke="#63b8ff" d="M1308.56,-167.59C1312.87,-160.55 1318.91,-150.67 1324.2,-142"/>
<polygon fill="#63b8ff" stroke="#63b8ff" points="1327.12,-143.95 1329.34,-133.59 1321.14,-140.3 1327.12,-143.95"/>
</a>
</g>
</g>
<!-- Node21&#45;&gt;Node4 -->
<g id="edge58_Node000021_Node000004" class="edge">
<title>Node21&#45;&gt;Node4</title>
<g id="a_edge58_Node000021_Node000004"><a xlink:title=" ">
<path fill="none" stroke="#63b8ff" d="M1330.01,-111.66C1320.44,-97.15 1299.91,-69.46 1274.82,-56 1254.37,-45.03 1106.19,-24.08 1040.28,-15.17"/>
<polygon fill="#63b8ff" stroke="#63b8ff" points="1040.86,-11.72 1030.48,-13.86 1039.92,-18.66 1040.86,-11.72"/>
</a>
</g>
</g>
<!-- Node21&#45;&gt;Node8 -->
<g id="edge59_Node000021_Node000008" class="edge">
<title>Node21&#45;&gt;Node8</title>
<g id="a_edge59_Node000021_Node000008"><a xlink:title=" ">
<path fill="none" stroke="#63b8ff" d="M1335.27,-111.96C1333.92,-97.86 1329.2,-70.71 1312.82,-56 1289.91,-35.44 1203.88,-21.4 1155.82,-14.98"/>
<polygon fill="#63b8ff" stroke="#63b8ff" points="1156.35,-11.52 1145.98,-13.71 1155.45,-18.46 1156.35,-11.52"/>
</a>
</g>
</g>
<!-- Node21&#45;&gt;Node18 -->
<g id="edge60_Node000021_Node000018" class="edge">
<title>Node21&#45;&gt;Node18</title>
<g id="a_edge60_Node000021_Node000018"><a xlink:title=" ">
<path fill="none" stroke="#63b8ff" d="M1345.4,-111.59C1353.05,-104.08 1363.97,-93.35 1373.19,-84.3"/>
<polygon fill="#63b8ff" stroke="#63b8ff" points="1375.58,-86.86 1380.27,-77.36 1370.68,-81.87 1375.58,-86.86"/>
</a>
</g>
</g>
<!-- Node21&#45;&gt;Node22 -->
<g id="edge55_Node000021_Node000022" class="edge">
<title>Node21&#45;&gt;Node22</title>
<g id="a_edge55_Node000021_Node000022"><a xlink:title=" ">
<path fill="none" stroke="#63b8ff" d="M1364.03,-111.59C1390.24,-102.86 1429.5,-89.77 1458.72,-80.03"/>
<polygon fill="#63b8ff" stroke="#63b8ff" points="1459.56,-83.44 1467.94,-76.96 1457.35,-76.8 1459.56,-83.44"/>
</a>
</g>
</g>
<!-- Node22&#45;&gt;Node4 -->
<g id="edge56_Node000022_Node000004" class="edge">
<title>Node22&#45;&gt;Node4</title>
<g id="a_edge56_Node000022_Node000004"><a xlink:title=" ">
<path fill="none" stroke="#63b8ff" d="M1434.22,-56.99C1431.38,-56.65 1428.57,-56.32 1425.82,-56 1406.7,-53.77 1134.59,-24.52 1040.53,-14.41"/>
<polygon fill="#63b8ff" stroke="#63b8ff" points="1041.04,-10.94 1030.73,-13.35 1040.3,-17.9 1041.04,-10.94"/>
</a>
</g>
</g>
<!-- Node22&#45;&gt;Node10 -->
<g id="edge57_Node000022_Node000010" class="edge">
<title>Node22&#45;&gt;Node10</title>
<g id="a_edge57_Node000022_Node000010"><a xlink:title=" ">
<path fill="none" stroke="#63b8ff" d="M1434.23,-56.9C1431.39,-56.58 1428.57,-56.28 1425.82,-56 1227.99,-35.66 1177.81,-38.59 979.82,-20 963.29,-18.45 944.96,-16.51 929.66,-14.83"/>
<polygon fill="#63b8ff" stroke="#63b8ff" points="930.45,-11.4 920.12,-13.77 929.67,-18.35 930.45,-11.4"/>
</a>
</g>
</g>
<!-- Node23&#45;&gt;Node4 -->
<g id="edge72_Node000023_Node000004" class="edge">
<title>Node23&#45;&gt;Node4</title>
<g id="a_edge72_Node000023_Node000004"><a xlink:title=" ">
<path fill="none" stroke="#63b8ff" d="M1627.66,-167.52C1665.81,-158.44 1705.54,-141.6 1688.82,-112 1665.08,-70 1641.81,-70.57 1595.82,-56 1488.98,-22.16 1204.44,-29.97 1092.82,-20 1075.47,-18.45 1056.15,-16.4 1040.41,-14.65"/>
<polygon fill="#63b8ff" stroke="#63b8ff" points="1041,-11.2 1030.67,-13.55 1040.21,-18.15 1041,-11.2"/>
</a>
</g>
</g>
<!-- Node23&#45;&gt;Node8 -->
<g id="edge73_Node000023_Node000008" class="edge">
<title>Node23&#45;&gt;Node8</title>
<g id="a_edge73_Node000023_Node000008"><a xlink:title=" ">
<path fill="none" stroke="#63b8ff" d="M1645.04,-169.02C1667.98,-162.64 1690.76,-151.45 1704.82,-132 1729.63,-97.65 1678.55,-67.13 1656.82,-56 1568.78,-10.93 1258.66,-9.68 1156.05,-10.56"/>
<polygon fill="#63b8ff" stroke="#63b8ff" points="1156.08,-7.06 1146.11,-10.65 1156.15,-14.06 1156.08,-7.06"/>
</a>
</g>
</g>
<!-- Node23&#45;&gt;Node11 -->
<g id="edge75_Node000023_Node000011" class="edge">
<title>Node23&#45;&gt;Node11</title>
<g id="a_edge75_Node000023_Node000011"><a xlink:title=" ">
<path fill="none" stroke="#63b8ff" d="M1492.54,-176.75C1430.15,-173.96 1340.93,-163.93 1269.82,-132 1245.08,-120.89 1221.91,-99.67 1207.36,-84.49"/>
<polygon fill="#63b8ff" stroke="#63b8ff" points="1210.23,-82.44 1200.86,-77.49 1205.09,-87.2 1210.23,-82.44"/>
</a>
</g>
</g>
<!-- Node23&#45;&gt;Node18 -->
<g id="edge74_Node000023_Node000018" class="edge">
<title>Node23&#45;&gt;Node18</title>
<g id="a_edge74_Node000023_Node000018"><a xlink:title=" ">
<path fill="none" stroke="#63b8ff" d="M1553.64,-167.62C1522.9,-148.63 1453.03,-105.45 1415.59,-82.31"/>
<polygon fill="#63b8ff" stroke="#63b8ff" points="1417.59,-79.43 1407.24,-77.15 1413.91,-85.38 1417.59,-79.43"/>
</a>
</g>
</g>
<!-- Node23&#45;&gt;Node22 -->
<g id="edge71_Node000023_Node000022" class="edge">
<title>Node23&#45;&gt;Node22</title>
<g id="a_edge71_Node000023_Node000022"><a xlink:title=" ">
<path fill="none" stroke="#63b8ff" d="M1562.76,-167.62C1551.13,-149.6 1525.45,-109.81 1510.09,-86.02"/>
<polygon fill="#63b8ff" stroke="#63b8ff" points="1513.04,-84.13 1504.67,-77.63 1507.16,-87.93 1513.04,-84.13"/>
</a>
</g>
</g>
<!-- Node24 -->
<g id="Node000024" class="node">
<title>Node24</title>
<g id="a_Node000024"><a xlink:href="Exporter_8h.html" target="_top" xlink:title=" ">
<polygon fill="white" stroke="#666666" points="1679.69,-132 1563.94,-132 1563.94,-112 1679.69,-112 1679.69,-132"/>
<text xml:space="preserve" text-anchor="middle" x="1621.82" y="-118.5" font-family="Helvetica,sans-Serif" font-size="10.00">LGE/assets/Exporter.h</text>
</a>
</g>
</g>
<!-- Node23&#45;&gt;Node24 -->
<g id="edge66_Node000023_Node000024" class="edge">
<title>Node23&#45;&gt;Node24</title>
<g id="a_edge66_Node000023_Node000024"><a xlink:title=" ">
<path fill="none" stroke="#63b8ff" d="M1578.05,-167.59C1585.42,-160.08 1595.95,-149.35 1604.83,-140.3"/>
<polygon fill="#63b8ff" stroke="#63b8ff" points="1607.12,-142.97 1611.63,-133.38 1602.13,-138.06 1607.12,-142.97"/>
</a>
</g>
</g>
<!-- Node24&#45;&gt;Node4 -->
<g id="edge68_Node000024_Node000004" class="edge">
<title>Node24&#45;&gt;Node4</title>
<g id="a_edge68_Node000024_Node000004"><a xlink:title=" ">
<path fill="none" stroke="#63b8ff" d="M1617.61,-111.89C1610.27,-97.18 1593.59,-68.55 1569.82,-56 1475.81,-6.38 1198.68,-29.66 1092.82,-20 1075.47,-18.42 1056.15,-16.37 1040.41,-14.62"/>
<polygon fill="#63b8ff" stroke="#63b8ff" points="1041,-11.17 1030.67,-13.53 1040.22,-18.12 1041,-11.17"/>
</a>
</g>
</g>
<!-- Node24&#45;&gt;Node8 -->
<g id="edge69_Node000024_Node000008" class="edge">
<title>Node24&#45;&gt;Node8</title>
<g id="a_edge69_Node000024_Node000008"><a xlink:title=" ">
<path fill="none" stroke="#63b8ff" d="M1622.11,-111.73C1622.02,-97.32 1619.5,-69.77 1602.82,-56 1568.43,-27.62 1258.79,-15.31 1155.89,-11.98"/>
<polygon fill="#63b8ff" stroke="#63b8ff" points="1156.29,-8.49 1146.18,-11.67 1156.07,-15.49 1156.29,-8.49"/>
</a>
</g>
</g>
<!-- Node24&#45;&gt;Node18 -->
<g id="edge70_Node000024_Node000018" class="edge">
<title>Node24&#45;&gt;Node18</title>
<g id="a_edge70_Node000024_Node000018"><a xlink:title=" ">
<path fill="none" stroke="#63b8ff" d="M1579.3,-111.57C1541.88,-103.2 1485.64,-90.44 1427.64,-76.4"/>
<polygon fill="#63b8ff" stroke="#63b8ff" points="1428.81,-73.08 1418.26,-74.12 1427.15,-79.88 1428.81,-73.08"/>
</a>
</g>
</g>
<!-- Node24&#45;&gt;Node22 -->
<g id="edge67_Node000024_Node000022" class="edge">
<title>Node24&#45;&gt;Node22</title>
<g id="a_edge67_Node000024_Node000022"><a xlink:title=" ">
<path fill="none" stroke="#63b8ff" d="M1600.22,-111.59C1580.87,-103.17 1552.21,-90.69 1530.14,-81.07"/>
<polygon fill="#63b8ff" stroke="#63b8ff" points="1531.54,-77.87 1520.97,-77.08 1528.74,-84.29 1531.54,-77.87"/>
</a>
</g>
</g>
<!-- Node25&#45;&gt;Node4 -->
<g id="edge79_Node000025_Node000004" class="edge">
<title>Node25&#45;&gt;Node4</title>
<g id="a_edge79_Node000025_Node000004"><a xlink:title=" ">
<path fill="none" stroke="#63b8ff" d="M1707.17,-167.65C1709.96,-154.53 1713.26,-130.23 1704.82,-112 1688.65,-77.09 1674.47,-70.44 1638.82,-56 1526.11,-10.36 1213.96,-30.48 1092.82,-20 1075.47,-18.5 1056.14,-16.45 1040.4,-14.69"/>
<polygon fill="#63b8ff" stroke="#63b8ff" points="1041,-11.24 1030.67,-13.59 1040.21,-18.19 1041,-11.24"/>
</a>
</g>
</g>
<!-- Node26 -->
<g id="Node000026" class="node">
<title>Node26</title>
<g id="a_Node000026"><a xlink:title=" ">
<polygon fill="#e0e0e0" stroke="#999999" points="1903.57,-132 1850.07,-132 1850.07,-112 1903.57,-112 1903.57,-132"/>
<text xml:space="preserve" text-anchor="middle" x="1876.82" y="-118.5" font-family="Helvetica,sans-Serif" font-size="10.00">iostream</text>
</a>
</g>
</g>
<!-- Node25&#45;&gt;Node26 -->
<g id="edge78_Node000025_Node000026" class="edge">
<title>Node25&#45;&gt;Node26</title>
<g id="a_edge78_Node000025_Node000026"><a xlink:title=" ">
<path fill="none" stroke="#63b8ff" d="M1734.78,-167.59C1763.66,-158.52 1807.49,-144.76 1838.82,-134.93"/>
<polygon fill="#63b8ff" stroke="#63b8ff" points="1839.81,-138.29 1848.3,-131.95 1837.71,-131.61 1839.81,-138.29"/>
</a>
</g>
</g>
</g>
</svg>
