<?xml version="1.0" encoding="UTF-8" standalone="no"?>
<!DOCTYPE svg PUBLIC "-//W3C//DTD SVG 1.1//EN"
 "http://www.w3.org/Graphics/SVG/1.1/DTD/svg11.dtd">
<!-- Generated by graphviz version 14.0.2 (20251019.1705)
 -->
<!-- Title: Inspector.cpp Pages: 1 -->
<svg width="1436pt" height="308pt"
 viewBox="0.00 0.00 1436.00 308.00" xmlns="http://www.w3.org/2000/svg" xmlns:xlink="http://www.w3.org/1999/xlink">
<g id="graph0" class="graph" transform="scale(1 1) rotate(0) translate(4 304)">
<title>Inspector.cpp</title>
<!-- Node1 -->
<g id="Node000001" class="node">
<title>Node1</title>
<g id="a_Node000001"><a xlink:title=" ">
<polygon fill="#999999" stroke="#666666" points="1121.5,-300 1046.25,-300 1046.25,-280 1121.5,-280 1121.5,-300"/>
<text xml:space="preserve" text-anchor="middle" x="1083.88" y="-286.5" font-family="Helvetica,sans-Serif" font-size="10.00">Inspector.cpp</text>
</a>
</g>
</g>
<!-- Node2 -->
<g id="Node000002" class="node">
<title>Node2</title>
<g id="a_Node000002"><a xlink:href="Inspector_8h.html" target="_top" xlink:title=" ">
<polygon fill="white" stroke="#666666" points="97.75,-244 0,-244 0,-224 97.75,-224 97.75,-244"/>
<text xml:space="preserve" text-anchor="middle" x="48.88" y="-230.5" font-family="Helvetica,sans-Serif" font-size="10.00">LGE/ui/Inspector.h</text>
</a>
</g>
</g>
<!-- Node1&#45;&gt;Node2 -->
<g id="edge1_Node000001_Node000002" class="edge">
<title>Node1&#45;&gt;Node2</title>
<g id="a_edge1_Node000001_Node000002"><a xlink:title=" ">
<path fill="none" stroke="#63b8ff" d="M1045.8,-288.55C915.33,-286.71 474.31,-278.2 111.88,-244 111.03,-243.92 110.18,-243.84 109.32,-243.75"/>
<polygon fill="#63b8ff" stroke="#63b8ff" points="109.83,-240.29 99.51,-242.65 109.05,-247.24 109.83,-240.29"/>
</a>
</g>
</g>
<!-- Node3 -->
<g id="Node000003" class="node">
<title>Node3</title>
<g id="a_Node000003"><a xlink:href="GameObject_8h.html" target="_top" xlink:title=" ">
<polygon fill="white" stroke="#666666" points="472.5,-188 349.25,-188 349.25,-168 472.5,-168 472.5,-188"/>
<text xml:space="preserve" text-anchor="middle" x="410.88" y="-174.5" font-family="Helvetica,sans-Serif" font-size="10.00">LGE/core/GameObject.h</text>
</a>
</g>
</g>
<!-- Node1&#45;&gt;Node3 -->
<g id="edge2_Node000001_Node000003" class="edge">
<title>Node1&#45;&gt;Node3</title>
<g id="a_edge2_Node000001_Node000003"><a xlink:title=" ">
<path fill="none" stroke="#63b8ff" d="M1046.06,-289.19C931.3,-289.31 588.72,-286.03 486.88,-244 461.92,-233.7 439.24,-211.94 425.28,-196.43"/>
<polygon fill="#63b8ff" stroke="#63b8ff" points="428.3,-194.57 419.11,-189.3 423.01,-199.15 428.3,-194.57"/>
</a>
</g>
</g>
<!-- Node4 -->
<g id="Node000004" class="node">
<title>Node4</title>
<g id="a_Node000004"><a xlink:href="Vector_8h.html" target="_top" xlink:title=" ">
<polygon fill="white" stroke="#666666" points="364.5,-76 265.25,-76 265.25,-56 364.5,-56 364.5,-76"/>
<text xml:space="preserve" text-anchor="middle" x="314.88" y="-62.5" font-family="Helvetica,sans-Serif" font-size="10.00">LGE/math/Vector.h</text>
</a>
</g>
</g>
<!-- Node1&#45;&gt;Node4 -->
<g id="edge44_Node000001_Node000004" class="edge">
<title>Node1&#45;&gt;Node4</title>
<g id="a_edge44_Node000001_Node000004"><a xlink:title=" ">
<path fill="none" stroke="#63b8ff" d="M1045.81,-289.38C883.19,-290.06 250.33,-282.89 144.88,-132 139.78,-124.71 139.45,-119.04 144.88,-112 158.29,-94.57 210.48,-82.5 253.54,-75.28"/>
<polygon fill="#63b8ff" stroke="#63b8ff" points="254.02,-78.75 263.33,-73.7 252.9,-71.84 254.02,-78.75"/>
</a>
</g>
</g>
<!-- Node8 -->
<g id="Node000008" class="node">
<title>Node8</title>
<g id="a_Node000008"><a xlink:title=" ">
<polygon fill="#e0e0e0" stroke="#999999" points="989.88,-20 949.88,-20 949.88,0 989.88,0 989.88,-20"/>
<text xml:space="preserve" text-anchor="middle" x="969.88" y="-6.5" font-family="Helvetica,sans-Serif" font-size="10.00">string</text>
</a>
</g>
</g>
<!-- Node1&#45;&gt;Node8 -->
<g id="edge46_Node000001_Node000008" class="edge">
<title>Node1&#45;&gt;Node8</title>
<g id="a_edge46_Node000001_Node000008"><a xlink:title=" ">
<path fill="none" stroke="#63b8ff" d="M1082.82,-279.55C1080.9,-257.82 1078.99,-203.44 1102.88,-168 1120.26,-142.21 1147.55,-159.06 1162.88,-132 1167.25,-124.26 1167.48,-119.6 1162.88,-112 1127.55,-53.64 1046.19,-27.38 1001.2,-16.96"/>
<polygon fill="#63b8ff" stroke="#63b8ff" points="1002.06,-13.56 991.55,-14.85 1000.57,-20.4 1002.06,-13.56"/>
</a>
</g>
</g>
<!-- Node12 -->
<g id="Node000012" class="node">
<title>Node12</title>
<g id="a_Node000012"><a xlink:href="MaterialComponent_8h.html" target="_top" xlink:title=" ">
<polygon fill="white" stroke="#666666" points="917.5,-244 764.25,-244 764.25,-224 917.5,-224 917.5,-244"/>
<text xml:space="preserve" text-anchor="middle" x="840.88" y="-230.5" font-family="Helvetica,sans-Serif" font-size="10.00">LGE/core/MaterialComponent.h</text>
</a>
</g>
</g>
<!-- Node1&#45;&gt;Node12 -->
<g id="edge12_Node000001_Node000012" class="edge">
<title>Node1&#45;&gt;Node12</title>
<g id="a_edge12_Node000001_Node000012"><a xlink:title=" ">
<path fill="none" stroke="#63b8ff" d="M1045.91,-280.56C1005.3,-271.54 940.56,-257.15 894.71,-246.96"/>
<polygon fill="#63b8ff" stroke="#63b8ff" points="895.48,-243.55 884.96,-244.8 893.96,-250.38 895.48,-243.55"/>
</a>
</g>
</g>
<!-- Node17 -->
<g id="Node000017" class="node">
<title>Node17</title>
<g id="a_Node000017"><a xlink:href="Texture_8h.html" target="_top" xlink:title=" ">
<polygon fill="white" stroke="#666666" points="619.75,-76 498,-76 498,-56 619.75,-56 619.75,-76"/>
<text xml:space="preserve" text-anchor="middle" x="558.88" y="-62.5" font-family="Helvetica,sans-Serif" font-size="10.00">LGE/rendering/Texture.h</text>
</a>
</g>
</g>
<!-- Node1&#45;&gt;Node17 -->
<g id="edge38_Node000001_Node000017" class="edge">
<title>Node1&#45;&gt;Node17</title>
<g id="a_edge38_Node000001_Node000017"><a xlink:title=" ">
<path fill="none" stroke="#63b8ff" d="M1045.96,-288C983.76,-285.44 856.81,-276.33 754.88,-244 665.42,-215.63 627.26,-210.53 575.88,-132 567.07,-118.55 562.82,-100.74 560.77,-87.17"/>
<polygon fill="#63b8ff" stroke="#63b8ff" points="564.3,-87.15 559.62,-77.64 557.35,-87.99 564.3,-87.15"/>
</a>
</g>
</g>
<!-- Node20 -->
<g id="Node000020" class="node">
<title>Node20</title>
<g id="a_Node000020"><a xlink:href="FileSystem_8h.html" target="_top" xlink:title=" ">
<polygon fill="white" stroke="#666666" points="1229.88,-188 1111.88,-188 1111.88,-168 1229.88,-168 1229.88,-188"/>
<text xml:space="preserve" text-anchor="middle" x="1170.88" y="-174.5" font-family="Helvetica,sans-Serif" font-size="10.00">LGE/core/FileSystem.h</text>
</a>
</g>
</g>
<!-- Node1&#45;&gt;Node20 -->
<g id="edge39_Node000001_Node000020" class="edge">
<title>Node1&#45;&gt;Node20</title>
<g id="a_edge39_Node000001_Node000020"><a xlink:title=" ">
<path fill="none" stroke="#63b8ff" d="M1091.29,-279.62C1105.67,-261.44 1137.58,-221.09 1156.33,-197.38"/>
<polygon fill="#63b8ff" stroke="#63b8ff" points="1159.08,-199.56 1162.54,-189.54 1153.59,-195.21 1159.08,-199.56"/>
</a>
</g>
</g>
<!-- Node21 -->
<g id="Node000021" class="node">
<title>Node21</title>
<g id="a_Node000021"><a xlink:href="Log_8h.html" target="_top" xlink:title=" ">
<polygon fill="white" stroke="#666666" points="1234,-244 1149.75,-244 1149.75,-224 1234,-224 1234,-244"/>
<text xml:space="preserve" text-anchor="middle" x="1191.88" y="-230.5" font-family="Helvetica,sans-Serif" font-size="10.00">LGE/core/Log.h</text>
</a>
</g>
</g>
<!-- Node1&#45;&gt;Node21 -->
<g id="edge41_Node000001_Node000021" class="edge">
<title>Node1&#45;&gt;Node21</title>
<g id="a_edge41_Node000001_Node000021"><a xlink:title=" ">
<path fill="none" stroke="#63b8ff" d="M1102.69,-279.59C1119.23,-271.32 1143.59,-259.14 1162.67,-249.6"/>
<polygon fill="#63b8ff" stroke="#63b8ff" points="1164.18,-252.76 1171.56,-245.16 1161.05,-246.5 1164.18,-252.76"/>
</a>
</g>
</g>
<!-- Node23 -->
<g id="Node000023" class="node">
<title>Node23</title>
<g id="a_Node000023"><a xlink:title=" ">
<polygon fill="#e0e0e0" stroke="#999999" points="1299.62,-244 1252.12,-244 1252.12,-224 1299.62,-224 1299.62,-244"/>
<text xml:space="preserve" text-anchor="middle" x="1275.88" y="-230.5" font-family="Helvetica,sans-Serif" font-size="10.00">imgui.h</text>
</a>
</g>
</g>
<!-- Node1&#45;&gt;Node23 -->
<g id="edge45_Node000001_Node000023" class="edge">
<title>Node1&#45;&gt;Node23</title>
<g id="a_edge45_Node000001_Node000023"><a xlink:title=" ">
<path fill="none" stroke="#63b8ff" d="M1117.32,-279.59C1152.03,-269.83 1206.06,-254.64 1241.21,-244.75"/>
<polygon fill="#63b8ff" stroke="#63b8ff" points="1241.77,-248.23 1250.45,-242.15 1239.88,-241.49 1241.77,-248.23"/>
</a>
</g>
</g>
<!-- Node24 -->
<g id="Node000024" class="node">
<title>Node24</title>
<g id="a_Node000024"><a xlink:title=" ">
<polygon fill="#e0e0e0" stroke="#999999" points="1352.25,-244 1317.5,-244 1317.5,-224 1352.25,-224 1352.25,-244"/>
<text xml:space="preserve" text-anchor="middle" x="1334.88" y="-230.5" font-family="Helvetica,sans-Serif" font-size="10.00">map</text>
</a>
</g>
</g>
<!-- Node1&#45;&gt;Node24 -->
<g id="edge47_Node000001_Node000024" class="edge">
<title>Node1&#45;&gt;Node24</title>
<g id="a_edge47_Node000001_Node000024"><a xlink:title=" ">
<path fill="none" stroke="#63b8ff" d="M1121.66,-283.06C1164.46,-275.97 1236.44,-263 1306.33,-244.42"/>
<polygon fill="#63b8ff" stroke="#63b8ff" points="1306.87,-247.9 1315.61,-241.91 1305.04,-241.15 1306.87,-247.9"/>
</a>
</g>
</g>
<!-- Node25 -->
<g id="Node000025" class="node">
<title>Node25</title>
<g id="a_Node000025"><a xlink:title=" ">
<polygon fill="#e0e0e0" stroke="#999999" points="1427.88,-244 1369.88,-244 1369.88,-224 1427.88,-224 1427.88,-244"/>
<text xml:space="preserve" text-anchor="middle" x="1398.88" y="-230.5" font-family="Helvetica,sans-Serif" font-size="10.00">functional</text>
</a>
</g>
</g>
<!-- Node1&#45;&gt;Node25 -->
<g id="edge48_Node000001_Node000025" class="edge">
<title>Node1&#45;&gt;Node25</title>
<g id="a_edge48_Node000001_Node000025"><a xlink:title=" ">
<path fill="none" stroke="#63b8ff" d="M1121.66,-283.74C1172.99,-276.4 1267.84,-262.16 1358.18,-244.42"/>
<polygon fill="#63b8ff" stroke="#63b8ff" points="1358.85,-247.86 1367.98,-242.48 1357.49,-240.99 1358.85,-247.86"/>
</a>
</g>
</g>
<!-- Node3&#45;&gt;Node4 -->
<g id="edge3_Node000003_Node000004" class="edge">
<title>Node3&#45;&gt;Node4</title>
<g id="a_edge3_Node000003_Node000004"><a xlink:title=" ">
<path fill="none" stroke="#63b8ff" d="M352.8,-167.53C332.25,-161.08 311.2,-150.23 298.88,-132 289.63,-118.32 295.57,-99.82 302.69,-86.05"/>
<polygon fill="#63b8ff" stroke="#63b8ff" points="305.65,-87.92 307.63,-77.51 299.59,-84.42 305.65,-87.92"/>
</a>
</g>
</g>
<!-- Node6 -->
<g id="Node000006" class="node">
<title>Node6</title>
<g id="a_Node000006"><a xlink:href="Matrix_8h.html" target="_top" xlink:title=" ">
<polygon fill="white" stroke="#666666" points="252.12,-132 153.62,-132 153.62,-112 252.12,-112 252.12,-132"/>
<text xml:space="preserve" text-anchor="middle" x="202.88" y="-118.5" font-family="Helvetica,sans-Serif" font-size="10.00">LGE/math/Matrix.h</text>
</a>
</g>
</g>
<!-- Node3&#45;&gt;Node6 -->
<g id="edge5_Node000003_Node000006" class="edge">
<title>Node3&#45;&gt;Node6</title>
<g id="a_edge5_Node000003_Node000006"><a xlink:title=" ">
<path fill="none" stroke="#63b8ff" d="M374.64,-167.59C340.11,-158.63 287.91,-145.08 250.13,-135.27"/>
<polygon fill="#63b8ff" stroke="#63b8ff" points="251.41,-131.99 240.85,-132.86 249.65,-138.76 251.41,-131.99"/>
</a>
</g>
</g>
<!-- Node3&#45;&gt;Node8 -->
<g id="edge8_Node000003_Node000008" class="edge">
<title>Node3&#45;&gt;Node8</title>
<g id="a_edge8_Node000003_Node000008"><a xlink:title=" ">
<path fill="none" stroke="#63b8ff" d="M413.71,-167.67C421.41,-144.19 445.08,-82.59 488.88,-56 527.24,-32.7 837.72,-16.9 938.45,-12.35"/>
<polygon fill="#63b8ff" stroke="#63b8ff" points="938.31,-15.86 948.15,-11.92 938,-8.87 938.31,-15.86"/>
</a>
</g>
</g>
<!-- Node9 -->
<g id="Node000009" class="node">
<title>Node9</title>
<g id="a_Node000009"><a xlink:title=" ">
<polygon fill="#e0e0e0" stroke="#999999" points="581.5,-20 536.25,-20 536.25,0 581.5,0 581.5,-20"/>
<text xml:space="preserve" text-anchor="middle" x="558.88" y="-6.5" font-family="Helvetica,sans-Serif" font-size="10.00">cstdint</text>
</a>
</g>
</g>
<!-- Node3&#45;&gt;Node9 -->
<g id="edge9_Node000003_Node000009" class="edge">
<title>Node3&#45;&gt;Node9</title>
<g id="a_edge9_Node000003_Node000009"><a xlink:title=" ">
<path fill="none" stroke="#63b8ff" d="M410.55,-167.82C410.26,-145.7 412.61,-88.89 441.88,-56 463.17,-32.07 498.67,-20.78 524.99,-15.51"/>
<polygon fill="#63b8ff" stroke="#63b8ff" points="525.27,-19.01 534.5,-13.81 524.04,-12.12 525.27,-19.01"/>
</a>
</g>
</g>
<!-- Node10 -->
<g id="Node000010" class="node">
<title>Node10</title>
<g id="a_Node000010"><a xlink:title=" ">
<polygon fill="#e0e0e0" stroke="#999999" points="351.38,-132 308.38,-132 308.38,-112 351.38,-112 351.38,-132"/>
<text xml:space="preserve" text-anchor="middle" x="329.88" y="-118.5" font-family="Helvetica,sans-Serif" font-size="10.00">vector</text>
</a>
</g>
</g>
<!-- Node3&#45;&gt;Node10 -->
<g id="edge10_Node000003_Node000010" class="edge">
<title>Node3&#45;&gt;Node10</title>
<g id="a_edge10_Node000003_Node000010"><a xlink:title=" ">
<path fill="none" stroke="#63b8ff" d="M396.77,-167.59C384.88,-159.67 367.61,-148.16 353.6,-138.82"/>
<polygon fill="#63b8ff" stroke="#63b8ff" points="355.62,-135.95 345.35,-133.32 351.73,-141.78 355.62,-135.95"/>
</a>
</g>
</g>
<!-- Node11 -->
<g id="Node000011" class="node">
<title>Node11</title>
<g id="a_Node000011"><a xlink:title=" ">
<polygon fill="#e0e0e0" stroke="#999999" points="903.5,-76 852.25,-76 852.25,-56 903.5,-56 903.5,-76"/>
<text xml:space="preserve" text-anchor="middle" x="877.88" y="-62.5" font-family="Helvetica,sans-Serif" font-size="10.00">memory</text>
</a>
</g>
</g>
<!-- Node3&#45;&gt;Node11 -->
<g id="edge11_Node000003_Node000011" class="edge">
<title>Node3&#45;&gt;Node11</title>
<g id="a_edge11_Node000003_Node000011"><a xlink:title=" ">
<path fill="none" stroke="#63b8ff" d="M472.77,-176.86C545.55,-174.97 669.07,-166.34 768.88,-132 777.87,-128.91 824.3,-100.42 853.59,-82.2"/>
<polygon fill="#63b8ff" stroke="#63b8ff" points="855.23,-85.31 861.86,-77.04 851.53,-79.37 855.23,-85.31"/>
</a>
</g>
</g>
<!-- Node5 -->
<g id="Node000005" class="node">
<title>Node5</title>
<g id="a_Node000005"><a xlink:title=" ">
<polygon fill="#e0e0e0" stroke="#999999" points="336.38,-20 293.38,-20 293.38,0 336.38,0 336.38,-20"/>
<text xml:space="preserve" text-anchor="middle" x="314.88" y="-6.5" font-family="Helvetica,sans-Serif" font-size="10.00">cmath</text>
</a>
</g>
</g>
<!-- Node4&#45;&gt;Node5 -->
<g id="edge4_Node000004_Node000005" class="edge">
<title>Node4&#45;&gt;Node5</title>
<g id="a_edge4_Node000004_Node000005"><a xlink:title=" ">
<path fill="none" stroke="#63b8ff" d="M314.88,-55.59C314.88,-49.01 314.88,-39.96 314.88,-31.73"/>
<polygon fill="#63b8ff" stroke="#63b8ff" points="318.38,-31.81 314.88,-21.81 311.38,-31.81 318.38,-31.81"/>
</a>
</g>
</g>
<!-- Node6&#45;&gt;Node4 -->
<g id="edge6_Node000006_Node000004" class="edge">
<title>Node6&#45;&gt;Node4</title>
<g id="a_edge6_Node000006_Node000004"><a xlink:title=" ">
<path fill="none" stroke="#63b8ff" d="M222.38,-111.59C239.62,-103.28 265.03,-91.03 284.86,-81.47"/>
<polygon fill="#63b8ff" stroke="#63b8ff" points="286.36,-84.63 293.85,-77.14 283.32,-78.33 286.36,-84.63"/>
</a>
</g>
</g>
<!-- Node7 -->
<g id="Node000007" class="node">
<title>Node7</title>
<g id="a_Node000007"><a xlink:title=" ">
<polygon fill="#e0e0e0" stroke="#999999" points="221.75,-76 184,-76 184,-56 221.75,-56 221.75,-76"/>
<text xml:space="preserve" text-anchor="middle" x="202.88" y="-62.5" font-family="Helvetica,sans-Serif" font-size="10.00">array</text>
</a>
</g>
</g>
<!-- Node6&#45;&gt;Node7 -->
<g id="edge7_Node000006_Node000007" class="edge">
<title>Node6&#45;&gt;Node7</title>
<g id="a_edge7_Node000006_Node000007"><a xlink:title=" ">
<path fill="none" stroke="#63b8ff" d="M202.88,-111.59C202.88,-105.01 202.88,-95.96 202.88,-87.73"/>
<polygon fill="#63b8ff" stroke="#63b8ff" points="206.38,-87.81 202.88,-77.81 199.38,-87.81 206.38,-87.81"/>
</a>
</g>
</g>
<!-- Node12&#45;&gt;Node4 -->
<g id="edge36_Node000012_Node000004" class="edge">
<title>Node12&#45;&gt;Node4</title>
<g id="a_edge36_Node000012_Node000004"><a xlink:title=" ">
<path fill="none" stroke="#63b8ff" d="M792.62,-223.51C753.1,-215.33 695.93,-202.57 646.88,-188 535.83,-155.02 407.97,-104.86 348.51,-80.81"/>
<polygon fill="#63b8ff" stroke="#63b8ff" points="349.88,-77.58 339.3,-77.06 347.25,-84.07 349.88,-77.58"/>
</a>
</g>
</g>
<!-- Node12&#45;&gt;Node11 -->
<g id="edge37_Node000012_Node000011" class="edge">
<title>Node12&#45;&gt;Node11</title>
<g id="a_edge37_Node000012_Node000011"><a xlink:title=" ">
<path fill="none" stroke="#63b8ff" d="M880.29,-223.66C899.05,-217.02 919.76,-205.98 930.88,-188 952.26,-153.4 918.58,-108.67 895.87,-84.45"/>
<polygon fill="#63b8ff" stroke="#63b8ff" points="898.39,-82.02 888.89,-77.32 893.38,-86.92 898.39,-82.02"/>
</a>
</g>
</g>
<!-- Node13 -->
<g id="Node000013" class="node">
<title>Node13</title>
<g id="a_Node000013"><a xlink:href="Component_8h.html" target="_top" xlink:title=" ">
<polygon fill="white" stroke="#666666" points="1154.25,-132 1035.5,-132 1035.5,-112 1154.25,-112 1154.25,-132"/>
<text xml:space="preserve" text-anchor="middle" x="1094.88" y="-118.5" font-family="Helvetica,sans-Serif" font-size="10.00">LGE/core/Component.h</text>
</a>
</g>
</g>
<!-- Node12&#45;&gt;Node13 -->
<g id="edge13_Node000012_Node000013" class="edge">
<title>Node12&#45;&gt;Node13</title>
<g id="a_edge13_Node000012_Node000013"><a xlink:title=" ">
<path fill="none" stroke="#63b8ff" d="M911.63,-223.58C946.29,-216.97 987.8,-205.98 1021.88,-188 1044.74,-175.93 1066.25,-155.2 1079.92,-140.4"/>
<polygon fill="#63b8ff" stroke="#63b8ff" points="1082.29,-142.99 1086.34,-133.2 1077.07,-138.33 1082.29,-142.99"/>
</a>
</g>
</g>
<!-- Node14 -->
<g id="Node000014" class="node">
<title>Node14</title>
<g id="a_Node000014"><a xlink:href="Material_8h.html" target="_top" xlink:title=" ">
<polygon fill="white" stroke="#666666" points="759.88,-132 635.88,-132 635.88,-112 759.88,-112 759.88,-132"/>
<text xml:space="preserve" text-anchor="middle" x="697.88" y="-118.5" font-family="Helvetica,sans-Serif" font-size="10.00">LGE/rendering/Material.h</text>
</a>
</g>
</g>
<!-- Node12&#45;&gt;Node14 -->
<g id="edge15_Node000012_Node000014" class="edge">
<title>Node12&#45;&gt;Node14</title>
<g id="a_edge15_Node000012_Node000014"><a xlink:title=" ">
<path fill="none" stroke="#63b8ff" d="M815.15,-223.56C796.17,-215.83 770.37,-203.61 750.88,-188 734.41,-174.82 719.61,-155.74 709.86,-141.67"/>
<polygon fill="#63b8ff" stroke="#63b8ff" points="713.01,-140.08 704.55,-133.71 707.19,-143.97 713.01,-140.08"/>
</a>
</g>
</g>
<!-- Node12&#45;&gt;Node17 -->
<g id="edge35_Node000012_Node000017" class="edge">
<title>Node12&#45;&gt;Node17</title>
<g id="a_edge35_Node000012_Node000017"><a xlink:title=" ">
<path fill="none" stroke="#63b8ff" d="M793.89,-223.53C740.51,-210.72 653.37,-183.31 595.88,-132 582.1,-119.71 572.21,-101.02 566.14,-86.83"/>
<polygon fill="#63b8ff" stroke="#63b8ff" points="569.43,-85.63 562.5,-77.62 562.92,-88.2 569.43,-85.63"/>
</a>
</g>
</g>
<!-- Node18 -->
<g id="Node000018" class="node">
<title>Node18</title>
<g id="a_Node000018"><a xlink:href="MaterialInstance_8h.html" target="_top" xlink:title=" ">
<polygon fill="white" stroke="#666666" points="921.62,-188 760.12,-188 760.12,-168 921.62,-168 921.62,-188"/>
<text xml:space="preserve" text-anchor="middle" x="840.88" y="-174.5" font-family="Helvetica,sans-Serif" font-size="10.00">LGE/rendering/MaterialInstance.h</text>
</a>
</g>
</g>
<!-- Node12&#45;&gt;Node18 -->
<g id="edge27_Node000012_Node000018" class="edge">
<title>Node12&#45;&gt;Node18</title>
<g id="a_edge27_Node000012_Node000018"><a xlink:title=" ">
<path fill="none" stroke="#63b8ff" d="M840.88,-223.59C840.88,-217.01 840.88,-207.96 840.88,-199.73"/>
<polygon fill="#63b8ff" stroke="#63b8ff" points="844.38,-199.81 840.88,-189.81 837.38,-199.81 844.38,-199.81"/>
</a>
</g>
</g>
<!-- Node13&#45;&gt;Node8 -->
<g id="edge14_Node000013_Node000008" class="edge">
<title>Node13&#45;&gt;Node8</title>
<g id="a_edge14_Node000013_Node000008"><a xlink:title=" ">
<path fill="none" stroke="#63b8ff" d="M1084.22,-111.62C1063.09,-93.03 1015.65,-51.28 988.99,-27.82"/>
<polygon fill="#63b8ff" stroke="#63b8ff" points="991.46,-25.33 981.64,-21.35 986.84,-30.59 991.46,-25.33"/>
</a>
</g>
</g>
<!-- Node14&#45;&gt;Node4 -->
<g id="edge23_Node000014_Node000004" class="edge">
<title>Node14&#45;&gt;Node4</title>
<g id="a_edge23_Node000014_Node000004"><a xlink:title=" ">
<path fill="none" stroke="#63b8ff" d="M635.49,-112.2C563.76,-102.09 446.79,-85.6 375.72,-75.58"/>
<polygon fill="#63b8ff" stroke="#63b8ff" points="376.61,-72.17 366.22,-74.24 375.63,-79.1 376.61,-72.17"/>
</a>
</g>
</g>
<!-- Node14&#45;&gt;Node8 -->
<g id="edge25_Node000014_Node000008" class="edge">
<title>Node14&#45;&gt;Node8</title>
<g id="a_edge25_Node000014_Node000008"><a xlink:title=" ">
<path fill="none" stroke="#63b8ff" d="M721.93,-111.57C743.79,-102.85 776.81,-89.26 804.88,-76 822.13,-67.85 825.39,-63.65 842.88,-56 874.98,-41.95 913.01,-28.93 939.03,-20.55"/>
<polygon fill="#63b8ff" stroke="#63b8ff" points="939.82,-23.97 948.29,-17.6 937.7,-17.3 939.82,-23.97"/>
</a>
</g>
</g>
<!-- Node14&#45;&gt;Node11 -->
<g id="edge24_Node000014_Node000011" class="edge">
<title>Node14&#45;&gt;Node11</title>
<g id="a_edge24_Node000014_Node000011"><a xlink:title=" ">
<path fill="none" stroke="#63b8ff" d="M729.23,-111.59C760.31,-102.27 807.93,-87.98 840.86,-78.11"/>
<polygon fill="#63b8ff" stroke="#63b8ff" points="841.82,-81.47 850.39,-75.25 839.81,-74.77 841.82,-81.47"/>
</a>
</g>
</g>
<!-- Node15 -->
<g id="Node000015" class="node">
<title>Node15</title>
<g id="a_Node000015"><a xlink:href="Shader_8h.html" target="_top" xlink:title=" ">
<polygon fill="white" stroke="#666666" points="796,-76 675.75,-76 675.75,-56 796,-56 796,-76"/>
<text xml:space="preserve" text-anchor="middle" x="735.88" y="-62.5" font-family="Helvetica,sans-Serif" font-size="10.00">LGE/rendering/Shader.h</text>
</a>
</g>
</g>
<!-- Node14&#45;&gt;Node15 -->
<g id="edge16_Node000014_Node000015" class="edge">
<title>Node14&#45;&gt;Node15</title>
<g id="a_edge16_Node000014_Node000015"><a xlink:title=" ">
<path fill="none" stroke="#63b8ff" d="M704.49,-111.59C709.56,-104.39 716.71,-94.23 722.9,-85.43"/>
<polygon fill="#63b8ff" stroke="#63b8ff" points="725.57,-87.73 728.46,-77.54 719.84,-83.7 725.57,-87.73"/>
</a>
</g>
</g>
<!-- Node16 -->
<g id="Node000016" class="node">
<title>Node16</title>
<g id="a_Node000016"><a xlink:title=" ">
<polygon fill="#e0e0e0" stroke="#999999" points="777.25,-20 694.5,-20 694.5,0 777.25,0 777.25,-20"/>
<text xml:space="preserve" text-anchor="middle" x="735.88" y="-6.5" font-family="Helvetica,sans-Serif" font-size="10.00">unordered_map</text>
</a>
</g>
</g>
<!-- Node14&#45;&gt;Node16 -->
<g id="edge26_Node000014_Node000016" class="edge">
<title>Node14&#45;&gt;Node16</title>
<g id="a_edge26_Node000014_Node000016"><a xlink:title=" ">
<path fill="none" stroke="#63b8ff" d="M687.61,-111.59C674.98,-98.82 656.39,-75.35 666.88,-56 674.08,-42.7 687.1,-32.71 699.91,-25.57"/>
<polygon fill="#63b8ff" stroke="#63b8ff" points="701.33,-28.77 708.67,-21.12 698.17,-22.53 701.33,-28.77"/>
</a>
</g>
</g>
<!-- Node14&#45;&gt;Node17 -->
<g id="edge20_Node000014_Node000017" class="edge">
<title>Node14&#45;&gt;Node17</title>
<g id="a_edge20_Node000014_Node000017"><a xlink:title=" ">
<path fill="none" stroke="#63b8ff" d="M673.66,-111.59C651.57,-103.01 618.68,-90.23 593.75,-80.55"/>
<polygon fill="#63b8ff" stroke="#63b8ff" points="595.28,-77.39 584.69,-77.03 592.74,-83.91 595.28,-77.39"/>
</a>
</g>
</g>
<!-- Node15&#45;&gt;Node8 -->
<g id="edge17_Node000015_Node000008" class="edge">
<title>Node15&#45;&gt;Node8</title>
<g id="a_edge17_Node000015_Node000008"><a xlink:title=" ">
<path fill="none" stroke="#63b8ff" d="M776.9,-55.53C822.93,-44.91 896.6,-27.91 938.34,-18.28"/>
<polygon fill="#63b8ff" stroke="#63b8ff" points="939.03,-21.71 947.99,-16.05 937.45,-14.89 939.03,-21.71"/>
</a>
</g>
</g>
<!-- Node15&#45;&gt;Node9 -->
<g id="edge19_Node000015_Node000009" class="edge">
<title>Node15&#45;&gt;Node9</title>
<g id="a_edge19_Node000015_Node000009"><a xlink:title=" ">
<path fill="none" stroke="#63b8ff" d="M705.04,-55.59C673.59,-46 624.92,-31.15 592.5,-21.26"/>
<polygon fill="#63b8ff" stroke="#63b8ff" points="593.79,-17.99 583.21,-18.42 591.75,-24.69 593.79,-17.99"/>
</a>
</g>
</g>
<!-- Node15&#45;&gt;Node16 -->
<g id="edge18_Node000015_Node000016" class="edge">
<title>Node15&#45;&gt;Node16</title>
<g id="a_edge18_Node000015_Node000016"><a xlink:title=" ">
<path fill="none" stroke="#63b8ff" d="M735.88,-55.59C735.88,-49.01 735.88,-39.96 735.88,-31.73"/>
<polygon fill="#63b8ff" stroke="#63b8ff" points="739.38,-31.81 735.88,-21.81 732.38,-31.81 739.38,-31.81"/>
</a>
</g>
</g>
<!-- Node17&#45;&gt;Node8 -->
<g id="edge22_Node000017_Node000008" class="edge">
<title>Node17&#45;&gt;Node8</title>
<g id="a_edge22_Node000017_Node000008"><a xlink:title=" ">
<path fill="none" stroke="#63b8ff" d="M619.96,-56.97C708.77,-45.31 870.35,-24.08 938.36,-15.14"/>
<polygon fill="#63b8ff" stroke="#63b8ff" points="938.61,-18.64 948.06,-13.87 937.69,-11.7 938.61,-18.64"/>
</a>
</g>
</g>
<!-- Node17&#45;&gt;Node9 -->
<g id="edge21_Node000017_Node000009" class="edge">
<title>Node17&#45;&gt;Node9</title>
<g id="a_edge21_Node000017_Node000009"><a xlink:title=" ">
<path fill="none" stroke="#63b8ff" d="M558.88,-55.59C558.88,-49.01 558.88,-39.96 558.88,-31.73"/>
<polygon fill="#63b8ff" stroke="#63b8ff" points="562.38,-31.81 558.88,-21.81 555.38,-31.81 562.38,-31.81"/>
</a>
</g>
</g>
<!-- Node18&#45;&gt;Node4 -->
<g id="edge30_Node000018_Node000004" class="edge">
<title>Node18&#45;&gt;Node4</title>
<g id="a_edge30_Node000018_Node000004"><a xlink:title=" ">
<path fill="none" stroke="#63b8ff" d="M785.27,-167.53C735.52,-158.89 660.66,-145.44 595.88,-132 514.46,-115.12 420.43,-92.79 364.41,-79.18"/>
<polygon fill="#63b8ff" stroke="#63b8ff" points="365.4,-75.82 354.86,-76.85 363.75,-82.62 365.4,-75.82"/>
</a>
</g>
</g>
<!-- Node18&#45;&gt;Node8 -->
<g id="edge32_Node000018_Node000008" class="edge">
<title>Node18&#45;&gt;Node8</title>
<g id="a_edge32_Node000018_Node000008"><a xlink:title=" ">
<path fill="none" stroke="#63b8ff" d="M864.09,-167.62C880.37,-160.05 901.68,-148.02 915.88,-132 942.36,-102.11 957.76,-57.12 964.92,-31.25"/>
<polygon fill="#63b8ff" stroke="#63b8ff" points="968.28,-32.26 967.41,-21.7 961.5,-30.5 968.28,-32.26"/>
</a>
</g>
</g>
<!-- Node18&#45;&gt;Node11 -->
<g id="edge31_Node000018_Node000011" class="edge">
<title>Node18&#45;&gt;Node11</title>
<g id="a_edge31_Node000018_Node000011"><a xlink:title=" ">
<path fill="none" stroke="#63b8ff" d="M850.65,-167.68C858.78,-159.24 869.82,-146 874.88,-132 880.05,-117.67 880.61,-100.39 879.97,-87.26"/>
<polygon fill="#63b8ff" stroke="#63b8ff" points="883.49,-87.37 879.23,-77.67 876.51,-87.91 883.49,-87.37"/>
</a>
</g>
</g>
<!-- Node18&#45;&gt;Node14 -->
<g id="edge28_Node000018_Node000014" class="edge">
<title>Node18&#45;&gt;Node14</title>
<g id="a_edge28_Node000018_Node000014"><a xlink:title=" ">
<path fill="none" stroke="#63b8ff" d="M815.97,-167.59C793.14,-158.97 759.09,-146.12 733.41,-136.42"/>
<polygon fill="#63b8ff" stroke="#63b8ff" points="734.99,-133.27 724.39,-133.01 732.51,-139.82 734.99,-133.27"/>
</a>
</g>
</g>
<!-- Node18&#45;&gt;Node16 -->
<g id="edge33_Node000018_Node000016" class="edge">
<title>Node18&#45;&gt;Node16</title>
<g id="a_edge33_Node000018_Node000016"><a xlink:title=" ">
<path fill="none" stroke="#63b8ff" d="M854.01,-167.7C882.06,-146.74 942.89,-94.59 912.88,-56 897.68,-36.46 835.19,-24.02 788.74,-17.28"/>
<polygon fill="#63b8ff" stroke="#63b8ff" points="789.5,-13.85 779.11,-15.94 788.53,-20.79 789.5,-13.85"/>
</a>
</g>
</g>
<!-- Node18&#45;&gt;Node17 -->
<g id="edge29_Node000018_Node000017" class="edge">
<title>Node18&#45;&gt;Node17</title>
<g id="a_edge29_Node000018_Node000017"><a xlink:title=" ">
<path fill="none" stroke="#63b8ff" d="M759.78,-170.63C718.17,-164.78 667.77,-153.55 626.88,-132 605.07,-120.51 585.34,-99.97 572.81,-85.05"/>
<polygon fill="#63b8ff" stroke="#63b8ff" points="575.63,-82.97 566.63,-77.39 570.19,-87.37 575.63,-82.97"/>
</a>
</g>
</g>
<!-- Node19 -->
<g id="Node000019" class="node">
<title>Node19</title>
<g id="a_Node000019"><a xlink:title=" ">
<polygon fill="#e0e0e0" stroke="#999999" points="865.75,-132 816,-132 816,-112 865.75,-112 865.75,-132"/>
<text xml:space="preserve" text-anchor="middle" x="840.88" y="-118.5" font-family="Helvetica,sans-Serif" font-size="10.00">optional</text>
</a>
</g>
</g>
<!-- Node18&#45;&gt;Node19 -->
<g id="edge34_Node000018_Node000019" class="edge">
<title>Node18&#45;&gt;Node19</title>
<g id="a_edge34_Node000018_Node000019"><a xlink:title=" ">
<path fill="none" stroke="#63b8ff" d="M840.88,-167.59C840.88,-161.01 840.88,-151.96 840.88,-143.73"/>
<polygon fill="#63b8ff" stroke="#63b8ff" points="844.38,-143.81 840.88,-133.81 837.38,-143.81 844.38,-143.81"/>
</a>
</g>
</g>
<!-- Node20&#45;&gt;Node8 -->
<g id="edge40_Node000020_Node000008" class="edge">
<title>Node20&#45;&gt;Node8</title>
<g id="a_edge40_Node000020_Node000008"><a xlink:title=" ">
<path fill="none" stroke="#63b8ff" d="M1177.41,-167.59C1191.9,-145.47 1223.36,-89.5 1195.88,-56 1171.64,-26.47 1057.78,-15.95 1001.51,-12.52"/>
<polygon fill="#63b8ff" stroke="#63b8ff" points="1001.81,-9.03 991.62,-11.96 1001.41,-16.02 1001.81,-9.03"/>
</a>
</g>
</g>
<!-- Node21&#45;&gt;Node8 -->
<g id="edge43_Node000021_Node000008" class="edge">
<title>Node21&#45;&gt;Node8</title>
<g id="a_edge43_Node000021_Node000008"><a xlink:title=" ">
<path fill="none" stroke="#63b8ff" d="M1230.42,-223.51C1261.43,-215 1301.36,-201.77 1310.88,-188 1315.93,-180.69 1313.96,-176.34 1310.88,-168 1288.13,-106.51 1271.71,-88.68 1214.88,-56 1146.27,-16.55 1050.56,-10.5 1001.55,-10.27"/>
<polygon fill="#63b8ff" stroke="#63b8ff" points="1001.64,-6.77 991.65,-10.31 1001.67,-13.77 1001.64,-6.77"/>
</a>
</g>
</g>
<!-- Node22 -->
<g id="Node000022" class="node">
<title>Node22</title>
<g id="a_Node000022"><a xlink:title=" ">
<polygon fill="#e0e0e0" stroke="#999999" points="1301.62,-188 1248.12,-188 1248.12,-168 1301.62,-168 1301.62,-188"/>
<text xml:space="preserve" text-anchor="middle" x="1274.88" y="-174.5" font-family="Helvetica,sans-Serif" font-size="10.00">iostream</text>
</a>
</g>
</g>
<!-- Node21&#45;&gt;Node22 -->
<g id="edge42_Node000021_Node000022" class="edge">
<title>Node21&#45;&gt;Node22</title>
<g id="a_edge42_Node000021_Node000022"><a xlink:title=" ">
<path fill="none" stroke="#63b8ff" d="M1206.33,-223.59C1218.63,-215.59 1236.55,-203.93 1250.98,-194.54"/>
<polygon fill="#63b8ff" stroke="#63b8ff" points="1252.56,-197.69 1259.04,-189.3 1248.75,-191.82 1252.56,-197.69"/>
</a>
</g>
</g>
</g>
</svg>
