<?xml version="1.0" encoding="UTF-8" standalone="no"?>
<!DOCTYPE svg PUBLIC "-//W3C//DTD SVG 1.1//EN"
 "http://www.w3.org/Graphics/SVG/1.1/DTD/svg11.dtd">
<!-- Generated by graphviz version 14.0.2 (20251019.1705)
 -->
<!-- Title: MainMenuBar.cpp Pages: 1 -->
<svg width="190pt" height="140pt"
 viewBox="0.00 0.00 190.00 140.00" xmlns="http://www.w3.org/2000/svg" xmlns:xlink="http://www.w3.org/1999/xlink">
<g id="graph0" class="graph" transform="scale(1 1) rotate(0) translate(4 136)">
<title>MainMenuBar.cpp</title>
<!-- Node1 -->
<g id="Node000001" class="node">
<title>Node1</title>
<g id="a_Node000001"><a xlink:title=" ">
<polygon fill="#999999" stroke="#666666" points="156,-132 61.25,-132 61.25,-112 156,-112 156,-132"/>
<text xml:space="preserve" text-anchor="middle" x="108.62" y="-118.5" font-family="Helvetica,sans-Serif" font-size="10.00">MainMenuBar.cpp</text>
</a>
</g>
</g>
<!-- Node2 -->
<g id="Node000002" class="node">
<title>Node2</title>
<g id="a_Node000002"><a xlink:href="MainMenuBar_8h.html" target="_top" xlink:title=" ">
<polygon fill="white" stroke="#666666" points="117.25,-76 0,-76 0,-56 117.25,-56 117.25,-76"/>
<text xml:space="preserve" text-anchor="middle" x="58.62" y="-62.5" font-family="Helvetica,sans-Serif" font-size="10.00">LGE/ui/MainMenuBar.h</text>
</a>
</g>
</g>
<!-- Node1&#45;&gt;Node2 -->
<g id="edge1_Node000001_Node000002" class="edge">
<title>Node1&#45;&gt;Node2</title>
<g id="a_edge1_Node000001_Node000002"><a xlink:title=" ">
<path fill="none" stroke="#63b8ff" d="M99.92,-111.59C93.03,-104.16 83.23,-93.58 74.91,-84.58"/>
<polygon fill="#63b8ff" stroke="#63b8ff" points="77.63,-82.37 68.26,-77.41 72.49,-87.12 77.63,-82.37"/>
</a>
</g>
</g>
<!-- Node4 -->
<g id="Node000004" class="node">
<title>Node4</title>
<g id="a_Node000004"><a xlink:title=" ">
<polygon fill="#e0e0e0" stroke="#999999" points="182.38,-76 134.88,-76 134.88,-56 182.38,-56 182.38,-76"/>
<text xml:space="preserve" text-anchor="middle" x="158.62" y="-62.5" font-family="Helvetica,sans-Serif" font-size="10.00">imgui.h</text>
</a>
</g>
</g>
<!-- Node1&#45;&gt;Node4 -->
<g id="edge3_Node000001_Node000004" class="edge">
<title>Node1&#45;&gt;Node4</title>
<g id="a_edge3_Node000001_Node000004"><a xlink:title=" ">
<path fill="none" stroke="#63b8ff" d="M117.33,-111.59C124.22,-104.16 134.02,-93.58 142.34,-84.58"/>
<polygon fill="#63b8ff" stroke="#63b8ff" points="144.76,-87.12 148.99,-77.41 139.62,-82.37 144.76,-87.12"/>
</a>
</g>
</g>
<!-- Node3 -->
<g id="Node000003" class="node">
<title>Node3</title>
<g id="a_Node000003"><a xlink:title=" ">
<polygon fill="#e0e0e0" stroke="#999999" points="87.62,-20 29.62,-20 29.62,0 87.62,0 87.62,-20"/>
<text xml:space="preserve" text-anchor="middle" x="58.62" y="-6.5" font-family="Helvetica,sans-Serif" font-size="10.00">functional</text>
</a>
</g>
</g>
<!-- Node2&#45;&gt;Node3 -->
<g id="edge2_Node000002_Node000003" class="edge">
<title>Node2&#45;&gt;Node3</title>
<g id="a_edge2_Node000002_Node000003"><a xlink:title=" ">
<path fill="none" stroke="#63b8ff" d="M58.62,-55.59C58.62,-49.01 58.62,-39.96 58.62,-31.73"/>
<polygon fill="#63b8ff" stroke="#63b8ff" points="62.13,-31.81 58.63,-21.81 55.13,-31.81 62.13,-31.81"/>
</a>
</g>
</g>
</g>
</svg>
