<?xml version="1.0" encoding="UTF-8" standalone="no"?>
<!DOCTYPE svg PUBLIC "-//W3C//DTD SVG 1.1//EN"
 "http://www.w3.org/Graphics/SVG/1.1/DTD/svg11.dtd">
<!-- Generated by graphviz version 14.0.2 (20251019.1705)
 -->
<!-- Title: MaterialComponent.cpp Pages: 1 -->
<svg width="882pt" height="308pt"
 viewBox="0.00 0.00 882.00 308.00" xmlns="http://www.w3.org/2000/svg" xmlns:xlink="http://www.w3.org/1999/xlink">
<g id="graph0" class="graph" transform="scale(1 1) rotate(0) translate(4 304)">
<title>MaterialComponent.cpp</title>
<!-- Node1 -->
<g id="Node000001" class="node">
<title>Node1</title>
<g id="a_Node000001"><a xlink:title=" ">
<polygon fill="#999999" stroke="#666666" points="516.47,-300 396.97,-300 396.97,-280 516.47,-280 516.47,-300"/>
<text xml:space="preserve" text-anchor="middle" x="456.72" y="-286.5" font-family="Helvetica,sans-Serif" font-size="10.00">MaterialComponent.cpp</text>
</a>
</g>
</g>
<!-- Node2 -->
<g id="Node000002" class="node">
<title>Node2</title>
<g id="a_Node000002"><a xlink:href="MaterialComponent_8h.html" target="_top" xlink:title=" ">
<polygon fill="white" stroke="#666666" points="481.34,-244 328.09,-244 328.09,-224 481.34,-224 481.34,-244"/>
<text xml:space="preserve" text-anchor="middle" x="404.72" y="-230.5" font-family="Helvetica,sans-Serif" font-size="10.00">LGE/core/MaterialComponent.h</text>
</a>
</g>
</g>
<!-- Node1&#45;&gt;Node2 -->
<g id="edge1_Node000001_Node000002" class="edge">
<title>Node1&#45;&gt;Node2</title>
<g id="a_edge1_Node000001_Node000002"><a xlink:title=" ">
<path fill="none" stroke="#63b8ff" d="M447.66,-279.59C440.5,-272.16 430.31,-261.58 421.65,-252.58"/>
<polygon fill="#63b8ff" stroke="#63b8ff" points="424.18,-250.16 414.72,-245.39 419.14,-255.02 424.18,-250.16"/>
</a>
</g>
</g>
<!-- Node15 -->
<g id="Node000015" class="node">
<title>Node15</title>
<g id="a_Node000015"><a xlink:href="GameObject_8h.html" target="_top" xlink:title=" ">
<polygon fill="white" stroke="#666666" points="749.34,-188 626.09,-188 626.09,-168 749.34,-168 749.34,-188"/>
<text xml:space="preserve" text-anchor="middle" x="687.72" y="-174.5" font-family="Helvetica,sans-Serif" font-size="10.00">LGE/core/GameObject.h</text>
</a>
</g>
</g>
<!-- Node1&#45;&gt;Node15 -->
<g id="edge28_Node000001_Node000015" class="edge">
<title>Node1&#45;&gt;Node15</title>
<g id="a_edge28_Node000001_Node000015"><a xlink:title=" ">
<path fill="none" stroke="#63b8ff" d="M476.41,-279.62C516.9,-260.34 609.7,-216.15 657.71,-193.29"/>
<polygon fill="#63b8ff" stroke="#63b8ff" points="659.18,-196.46 666.71,-189.01 656.17,-190.14 659.18,-196.46"/>
</a>
</g>
</g>
<!-- Node3 -->
<g id="Node000003" class="node">
<title>Node3</title>
<g id="a_Node000003"><a xlink:href="Component_8h.html" target="_top" xlink:title=" ">
<polygon fill="white" stroke="#666666" points="551.09,-188 432.34,-188 432.34,-168 551.09,-168 551.09,-188"/>
<text xml:space="preserve" text-anchor="middle" x="491.72" y="-174.5" font-family="Helvetica,sans-Serif" font-size="10.00">LGE/core/Component.h</text>
</a>
</g>
</g>
<!-- Node2&#45;&gt;Node3 -->
<g id="edge2_Node000002_Node000003" class="edge">
<title>Node2&#45;&gt;Node3</title>
<g id="a_edge2_Node000002_Node000003"><a xlink:title=" ">
<path fill="none" stroke="#63b8ff" d="M419.87,-223.59C432.77,-215.59 451.55,-203.93 466.67,-194.54"/>
<polygon fill="#63b8ff" stroke="#63b8ff" points="468.51,-197.53 475.16,-189.28 464.82,-191.58 468.51,-197.53"/>
</a>
</g>
</g>
<!-- Node5 -->
<g id="Node000005" class="node">
<title>Node5</title>
<g id="a_Node000005"><a xlink:href="Material_8h.html" target="_top" xlink:title=" ">
<polygon fill="white" stroke="#666666" points="248.72,-132 124.72,-132 124.72,-112 248.72,-112 248.72,-132"/>
<text xml:space="preserve" text-anchor="middle" x="186.72" y="-118.5" font-family="Helvetica,sans-Serif" font-size="10.00">LGE/rendering/Material.h</text>
</a>
</g>
</g>
<!-- Node2&#45;&gt;Node5 -->
<g id="edge4_Node000002_Node000005" class="edge">
<title>Node2&#45;&gt;Node5</title>
<g id="a_edge4_Node000002_Node000005"><a xlink:title=" ">
<path fill="none" stroke="#63b8ff" d="M327.68,-223.72C279.55,-216.42 223.46,-204.68 205.72,-188 193.66,-176.67 189.12,-158.14 187.47,-143.76"/>
<polygon fill="#63b8ff" stroke="#63b8ff" points="190.98,-143.71 186.76,-133.99 183.99,-144.22 190.98,-143.71"/>
</a>
</g>
</g>
<!-- Node9 -->
<g id="Node000009" class="node">
<title>Node9</title>
<g id="a_Node000009"><a xlink:href="Texture_8h.html" target="_top" xlink:title=" ">
<polygon fill="white" stroke="#666666" points="135.59,-76 13.84,-76 13.84,-56 135.59,-56 135.59,-76"/>
<text xml:space="preserve" text-anchor="middle" x="74.72" y="-62.5" font-family="Helvetica,sans-Serif" font-size="10.00">LGE/rendering/Texture.h</text>
</a>
</g>
</g>
<!-- Node2&#45;&gt;Node9 -->
<g id="edge25_Node000002_Node000009" class="edge">
<title>Node2&#45;&gt;Node9</title>
<g id="a_edge25_Node000002_Node000009"><a xlink:title=" ">
<path fill="none" stroke="#63b8ff" d="M330.04,-223.52C287.64,-216.65 234.13,-205.44 188.72,-188 142.61,-170.29 122.86,-171.13 92.72,-132 82.87,-119.22 78.41,-101.36 76.39,-87.6"/>
<polygon fill="#63b8ff" stroke="#63b8ff" points="79.89,-87.42 75.3,-77.87 72.93,-88.2 79.89,-87.42"/>
</a>
</g>
</g>
<!-- Node10 -->
<g id="Node000010" class="node">
<title>Node10</title>
<g id="a_Node000010"><a xlink:href="Vector_8h.html" target="_top" xlink:title=" ">
<polygon fill="white" stroke="#666666" points="624.34,-76 525.09,-76 525.09,-56 624.34,-56 624.34,-76"/>
<text xml:space="preserve" text-anchor="middle" x="574.72" y="-62.5" font-family="Helvetica,sans-Serif" font-size="10.00">LGE/math/Vector.h</text>
</a>
</g>
</g>
<!-- Node2&#45;&gt;Node10 -->
<g id="edge26_Node000002_Node000010" class="edge">
<title>Node2&#45;&gt;Node10</title>
<g id="a_edge26_Node000002_Node000010"><a xlink:title=" ">
<path fill="none" stroke="#63b8ff" d="M481.76,-228.12C510.28,-222.32 540.36,-210.71 559.72,-188 583.67,-159.89 581.94,-113.9 578.41,-87.46"/>
<polygon fill="#63b8ff" stroke="#63b8ff" points="581.89,-87.03 576.87,-77.7 574.97,-88.12 581.89,-87.03"/>
</a>
</g>
</g>
<!-- Node12 -->
<g id="Node000012" class="node">
<title>Node12</title>
<g id="a_Node000012"><a xlink:title=" ">
<polygon fill="#e0e0e0" stroke="#999999" points="457.34,-76 406.09,-76 406.09,-56 457.34,-56 457.34,-76"/>
<text xml:space="preserve" text-anchor="middle" x="431.72" y="-62.5" font-family="Helvetica,sans-Serif" font-size="10.00">memory</text>
</a>
</g>
</g>
<!-- Node2&#45;&gt;Node12 -->
<g id="edge27_Node000002_Node000012" class="edge">
<title>Node2&#45;&gt;Node12</title>
<g id="a_edge27_Node000002_Node000012"><a xlink:title=" ">
<path fill="none" stroke="#63b8ff" d="M406.25,-223.6C410.5,-197.46 422.53,-123.48 428.41,-87.36"/>
<polygon fill="#63b8ff" stroke="#63b8ff" points="431.81,-88.22 429.96,-77.79 424.9,-87.1 431.81,-88.22"/>
</a>
</g>
</g>
<!-- Node13 -->
<g id="Node000013" class="node">
<title>Node13</title>
<g id="a_Node000013"><a xlink:href="MaterialInstance_8h.html" target="_top" xlink:title=" ">
<polygon fill="white" stroke="#666666" points="376.47,-188 214.97,-188 214.97,-168 376.47,-168 376.47,-188"/>
<text xml:space="preserve" text-anchor="middle" x="295.72" y="-174.5" font-family="Helvetica,sans-Serif" font-size="10.00">LGE/rendering/MaterialInstance.h</text>
</a>
</g>
</g>
<!-- Node2&#45;&gt;Node13 -->
<g id="edge17_Node000002_Node000013" class="edge">
<title>Node2&#45;&gt;Node13</title>
<g id="a_edge17_Node000002_Node000013"><a xlink:title=" ">
<path fill="none" stroke="#63b8ff" d="M385.73,-223.59C368.95,-215.28 344.22,-203.03 324.93,-193.47"/>
<polygon fill="#63b8ff" stroke="#63b8ff" points="326.72,-190.45 316.21,-189.15 323.61,-196.73 326.72,-190.45"/>
</a>
</g>
</g>
<!-- Node4 -->
<g id="Node000004" class="node">
<title>Node4</title>
<g id="a_Node000004"><a xlink:title=" ">
<polygon fill="#e0e0e0" stroke="#999999" points="378.72,-20 338.72,-20 338.72,0 378.72,0 378.72,-20"/>
<text xml:space="preserve" text-anchor="middle" x="358.72" y="-6.5" font-family="Helvetica,sans-Serif" font-size="10.00">string</text>
</a>
</g>
</g>
<!-- Node3&#45;&gt;Node4 -->
<g id="edge3_Node000003_Node000004" class="edge">
<title>Node3&#45;&gt;Node4</title>
<g id="a_edge3_Node000003_Node000004"><a xlink:title=" ">
<path fill="none" stroke="#63b8ff" d="M492.53,-167.58C493.92,-145.44 494.29,-89.42 466.72,-56 447.61,-32.84 414.56,-21.42 390.04,-15.91"/>
<polygon fill="#63b8ff" stroke="#63b8ff" points="390.76,-12.49 380.27,-13.95 389.39,-19.35 390.76,-12.49"/>
</a>
</g>
</g>
<!-- Node5&#45;&gt;Node4 -->
<g id="edge15_Node000005_Node000004" class="edge">
<title>Node5&#45;&gt;Node4</title>
<g id="a_edge15_Node000005_Node000004"><a xlink:title=" ">
<path fill="none" stroke="#63b8ff" d="M242.96,-111.55C268.79,-104.98 298.54,-94.04 320.72,-76 335.28,-64.15 345.46,-45.14 351.6,-30.73"/>
<polygon fill="#63b8ff" stroke="#63b8ff" points="354.71,-32.39 355.1,-21.8 348.19,-29.83 354.71,-32.39"/>
</a>
</g>
</g>
<!-- Node6 -->
<g id="Node000006" class="node">
<title>Node6</title>
<g id="a_Node000006"><a xlink:href="Shader_8h.html" target="_top" xlink:title=" ">
<polygon fill="white" stroke="#666666" points="311.84,-76 191.59,-76 191.59,-56 311.84,-56 311.84,-76"/>
<text xml:space="preserve" text-anchor="middle" x="251.72" y="-62.5" font-family="Helvetica,sans-Serif" font-size="10.00">LGE/rendering/Shader.h</text>
</a>
</g>
</g>
<!-- Node5&#45;&gt;Node6 -->
<g id="edge5_Node000005_Node000006" class="edge">
<title>Node5&#45;&gt;Node6</title>
<g id="a_edge5_Node000005_Node000006"><a xlink:title=" ">
<path fill="none" stroke="#63b8ff" d="M198.04,-111.59C207.36,-103.85 220.8,-92.69 231.89,-83.47"/>
<polygon fill="#63b8ff" stroke="#63b8ff" points="233.9,-86.35 239.36,-77.27 229.43,-80.96 233.9,-86.35"/>
</a>
</g>
</g>
<!-- Node7 -->
<g id="Node000007" class="node">
<title>Node7</title>
<g id="a_Node000007"><a xlink:title=" ">
<polygon fill="#e0e0e0" stroke="#999999" points="205.09,-20 122.34,-20 122.34,0 205.09,0 205.09,-20"/>
<text xml:space="preserve" text-anchor="middle" x="163.72" y="-6.5" font-family="Helvetica,sans-Serif" font-size="10.00">unordered_map</text>
</a>
</g>
</g>
<!-- Node5&#45;&gt;Node7 -->
<g id="edge16_Node000005_Node000007" class="edge">
<title>Node5&#45;&gt;Node7</title>
<g id="a_edge16_Node000005_Node000007"><a xlink:title=" ">
<path fill="none" stroke="#63b8ff" d="M184.76,-111.62C181.06,-93.92 172.97,-55.24 167.97,-31.32"/>
<polygon fill="#63b8ff" stroke="#63b8ff" points="171.46,-30.91 165.98,-21.84 164.6,-32.34 171.46,-30.91"/>
</a>
</g>
</g>
<!-- Node5&#45;&gt;Node9 -->
<g id="edge9_Node000005_Node000009" class="edge">
<title>Node5&#45;&gt;Node9</title>
<g id="a_edge9_Node000005_Node000009"><a xlink:title=" ">
<path fill="none" stroke="#63b8ff" d="M167.21,-111.59C149.97,-103.28 124.56,-91.03 104.73,-81.47"/>
<polygon fill="#63b8ff" stroke="#63b8ff" points="106.27,-78.33 95.74,-77.14 103.23,-84.63 106.27,-78.33"/>
</a>
</g>
</g>
<!-- Node5&#45;&gt;Node10 -->
<g id="edge12_Node000005_Node000010" class="edge">
<title>Node5&#45;&gt;Node10</title>
<g id="a_edge12_Node000005_Node000010"><a xlink:title=" ">
<path fill="none" stroke="#63b8ff" d="M249.06,-112.32C321.85,-102.19 441.47,-85.54 513.7,-75.49"/>
<polygon fill="#63b8ff" stroke="#63b8ff" points="513.95,-78.99 523.37,-74.15 512.98,-72.06 513.95,-78.99"/>
</a>
</g>
</g>
<!-- Node5&#45;&gt;Node12 -->
<g id="edge14_Node000005_Node000012" class="edge">
<title>Node5&#45;&gt;Node12</title>
<g id="a_edge14_Node000005_Node000012"><a xlink:title=" ">
<path fill="none" stroke="#63b8ff" d="M229.67,-111.53C276.41,-101.23 350.37,-84.93 394.65,-75.17"/>
<polygon fill="#63b8ff" stroke="#63b8ff" points="395.28,-78.61 404.29,-73.04 393.77,-71.78 395.28,-78.61"/>
</a>
</g>
</g>
<!-- Node6&#45;&gt;Node4 -->
<g id="edge6_Node000006_Node000004" class="edge">
<title>Node6&#45;&gt;Node4</title>
<g id="a_edge6_Node000006_Node000004"><a xlink:title=" ">
<path fill="none" stroke="#63b8ff" d="M270.35,-55.59C286.75,-47.32 310.88,-35.14 329.78,-25.6"/>
<polygon fill="#63b8ff" stroke="#63b8ff" points="331.23,-28.79 338.58,-21.16 328.08,-22.54 331.23,-28.79"/>
</a>
</g>
</g>
<!-- Node6&#45;&gt;Node7 -->
<g id="edge7_Node000006_Node000007" class="edge">
<title>Node6&#45;&gt;Node7</title>
<g id="a_edge7_Node000006_Node000007"><a xlink:title=" ">
<path fill="none" stroke="#63b8ff" d="M236.39,-55.59C223.22,-47.51 203.98,-35.71 188.61,-26.27"/>
<polygon fill="#63b8ff" stroke="#63b8ff" points="190.81,-23.52 180.45,-21.27 187.15,-29.48 190.81,-23.52"/>
</a>
</g>
</g>
<!-- Node8 -->
<g id="Node000008" class="node">
<title>Node8</title>
<g id="a_Node000008"><a xlink:title=" ">
<polygon fill="#e0e0e0" stroke="#999999" points="274.34,-20 229.09,-20 229.09,0 274.34,0 274.34,-20"/>
<text xml:space="preserve" text-anchor="middle" x="251.72" y="-6.5" font-family="Helvetica,sans-Serif" font-size="10.00">cstdint</text>
</a>
</g>
</g>
<!-- Node6&#45;&gt;Node8 -->
<g id="edge8_Node000006_Node000008" class="edge">
<title>Node6&#45;&gt;Node8</title>
<g id="a_edge8_Node000006_Node000008"><a xlink:title=" ">
<path fill="none" stroke="#63b8ff" d="M251.72,-55.59C251.72,-49.01 251.72,-39.96 251.72,-31.73"/>
<polygon fill="#63b8ff" stroke="#63b8ff" points="255.22,-31.81 251.72,-21.81 248.22,-31.81 255.22,-31.81"/>
</a>
</g>
</g>
<!-- Node9&#45;&gt;Node4 -->
<g id="edge11_Node000009_Node000004" class="edge">
<title>Node9&#45;&gt;Node4</title>
<g id="a_edge11_Node000009_Node000004"><a xlink:title=" ">
<path fill="none" stroke="#63b8ff" d="M124.51,-55.53C183,-44.41 278.27,-26.3 327.33,-16.97"/>
<polygon fill="#63b8ff" stroke="#63b8ff" points="327.81,-20.44 336.98,-15.13 326.51,-13.56 327.81,-20.44"/>
</a>
</g>
</g>
<!-- Node9&#45;&gt;Node8 -->
<g id="edge10_Node000009_Node000008" class="edge">
<title>Node9&#45;&gt;Node8</title>
<g id="a_edge10_Node000009_Node000008"><a xlink:title=" ">
<path fill="none" stroke="#63b8ff" d="M105.55,-55.59C137,-46 185.67,-31.15 218.09,-21.26"/>
<polygon fill="#63b8ff" stroke="#63b8ff" points="218.84,-24.69 227.38,-18.42 216.8,-17.99 218.84,-24.69"/>
</a>
</g>
</g>
<!-- Node11 -->
<g id="Node000011" class="node">
<title>Node11</title>
<g id="a_Node000011"><a xlink:title=" ">
<polygon fill="#e0e0e0" stroke="#999999" points="596.22,-20 553.22,-20 553.22,0 596.22,0 596.22,-20"/>
<text xml:space="preserve" text-anchor="middle" x="574.72" y="-6.5" font-family="Helvetica,sans-Serif" font-size="10.00">cmath</text>
</a>
</g>
</g>
<!-- Node10&#45;&gt;Node11 -->
<g id="edge13_Node000010_Node000011" class="edge">
<title>Node10&#45;&gt;Node11</title>
<g id="a_edge13_Node000010_Node000011"><a xlink:title=" ">
<path fill="none" stroke="#63b8ff" d="M574.72,-55.59C574.72,-49.01 574.72,-39.96 574.72,-31.73"/>
<polygon fill="#63b8ff" stroke="#63b8ff" points="578.22,-31.81 574.72,-21.81 571.22,-31.81 578.22,-31.81"/>
</a>
</g>
</g>
<!-- Node13&#45;&gt;Node4 -->
<g id="edge22_Node000013_Node000004" class="edge">
<title>Node13&#45;&gt;Node4</title>
<g id="a_edge22_Node000013_Node000004"><a xlink:title=" ">
<path fill="none" stroke="#63b8ff" d="M302.96,-167.8C309.6,-159.02 319.35,-145.19 325.72,-132 341.83,-98.6 351.11,-56.09 355.52,-31.37"/>
<polygon fill="#63b8ff" stroke="#63b8ff" points="358.94,-32.14 357.14,-21.7 352.03,-30.98 358.94,-32.14"/>
</a>
</g>
</g>
<!-- Node13&#45;&gt;Node5 -->
<g id="edge18_Node000013_Node000005" class="edge">
<title>Node13&#45;&gt;Node5</title>
<g id="a_edge18_Node000013_Node000005"><a xlink:title=" ">
<path fill="none" stroke="#63b8ff" d="M276.73,-167.59C259.95,-159.28 235.22,-147.03 215.93,-137.47"/>
<polygon fill="#63b8ff" stroke="#63b8ff" points="217.72,-134.45 207.21,-133.15 214.61,-140.73 217.72,-134.45"/>
</a>
</g>
</g>
<!-- Node13&#45;&gt;Node7 -->
<g id="edge23_Node000013_Node000007" class="edge">
<title>Node13&#45;&gt;Node7</title>
<g id="a_edge23_Node000013_Node000007"><a xlink:title=" ">
<path fill="none" stroke="#63b8ff" d="M224.82,-167.51C184.97,-160.66 134.91,-149.46 92.72,-132 49.88,-114.27 27.02,-116.64 4.72,-76 -19.26,-32.31 55.82,-17.96 110.85,-13.27"/>
<polygon fill="#63b8ff" stroke="#63b8ff" points="111.03,-16.76 120.74,-12.52 110.5,-9.78 111.03,-16.76"/>
</a>
</g>
</g>
<!-- Node13&#45;&gt;Node9 -->
<g id="edge19_Node000013_Node000009" class="edge">
<title>Node13&#45;&gt;Node9</title>
<g id="a_edge19_Node000013_Node000009"><a xlink:title=" ">
<path fill="none" stroke="#63b8ff" d="M214.87,-170.06C181.69,-164.01 144.42,-152.78 115.72,-132 100.02,-120.64 88.94,-101.26 82.29,-86.61"/>
<polygon fill="#63b8ff" stroke="#63b8ff" points="85.57,-85.39 78.49,-77.51 79.12,-88.09 85.57,-85.39"/>
</a>
</g>
</g>
<!-- Node13&#45;&gt;Node10 -->
<g id="edge20_Node000013_Node000010" class="edge">
<title>Node13&#45;&gt;Node10</title>
<g id="a_edge20_Node000013_Node000010"><a xlink:title=" ">
<path fill="none" stroke="#63b8ff" d="M319.5,-167.62C368.92,-148.14 482.86,-103.22 540.29,-80.57"/>
<polygon fill="#63b8ff" stroke="#63b8ff" points="541.56,-83.83 549.58,-76.91 538.99,-77.32 541.56,-83.83"/>
</a>
</g>
</g>
<!-- Node13&#45;&gt;Node12 -->
<g id="edge21_Node000013_Node000012" class="edge">
<title>Node13&#45;&gt;Node12</title>
<g id="a_edge21_Node000013_Node000012"><a xlink:title=" ">
<path fill="none" stroke="#63b8ff" d="M309.8,-167.58C322.78,-158.75 342.44,-145 358.72,-132 378.26,-116.39 399.5,-97.21 414.01,-83.74"/>
<polygon fill="#63b8ff" stroke="#63b8ff" points="416.07,-86.6 420.98,-77.21 411.29,-81.49 416.07,-86.6"/>
</a>
</g>
</g>
<!-- Node14 -->
<g id="Node000014" class="node">
<title>Node14</title>
<g id="a_Node000014"><a xlink:title=" ">
<polygon fill="#e0e0e0" stroke="#999999" points="316.59,-132 266.84,-132 266.84,-112 316.59,-112 316.59,-132"/>
<text xml:space="preserve" text-anchor="middle" x="291.72" y="-118.5" font-family="Helvetica,sans-Serif" font-size="10.00">optional</text>
</a>
</g>
</g>
<!-- Node13&#45;&gt;Node14 -->
<g id="edge24_Node000013_Node000014" class="edge">
<title>Node13&#45;&gt;Node14</title>
<g id="a_edge24_Node000013_Node000014"><a xlink:title=" ">
<path fill="none" stroke="#63b8ff" d="M295.02,-167.59C294.53,-161.01 293.86,-151.96 293.25,-143.73"/>
<polygon fill="#63b8ff" stroke="#63b8ff" points="296.75,-143.52 292.52,-133.81 289.77,-144.04 296.75,-143.52"/>
</a>
</g>
</g>
<!-- Node15&#45;&gt;Node4 -->
<g id="edge33_Node000015_Node000004" class="edge">
<title>Node15&#45;&gt;Node4</title>
<g id="a_edge33_Node000015_Node000004"><a xlink:title=" ">
<path fill="none" stroke="#63b8ff" d="M728.03,-167.61C746.87,-160.98 767.56,-149.97 778.72,-132 796.54,-103.31 801.29,-81.12 778.72,-56 765.72,-41.53 485.76,-20.14 390.29,-13.23"/>
<polygon fill="#63b8ff" stroke="#63b8ff" points="390.82,-9.76 380.59,-12.54 390.32,-16.74 390.82,-9.76"/>
</a>
</g>
</g>
<!-- Node15&#45;&gt;Node8 -->
<g id="edge34_Node000015_Node000008" class="edge">
<title>Node15&#45;&gt;Node8</title>
<g id="a_edge34_Node000015_Node000008"><a xlink:title=" ">
<path fill="none" stroke="#63b8ff" d="M707.82,-167.52C721.26,-159.98 737.87,-148.02 745.72,-132 759.82,-103.2 716.33,-56.41 715.72,-56 643.94,-8.36 415.4,-28.94 329.72,-20 315.35,-18.5 299.51,-16.7 285.89,-15.11"/>
<polygon fill="#63b8ff" stroke="#63b8ff" points="286.41,-11.64 276.07,-13.95 285.59,-18.6 286.41,-11.64"/>
</a>
</g>
</g>
<!-- Node15&#45;&gt;Node10 -->
<g id="edge29_Node000015_Node000010" class="edge">
<title>Node15&#45;&gt;Node10</title>
<g id="a_edge29_Node000015_Node000010"><a xlink:title=" ">
<path fill="none" stroke="#63b8ff" d="M674.18,-167.73C662,-159.11 643.89,-145.58 629.72,-132 614.43,-117.35 599.03,-98.74 588.43,-85.2"/>
<polygon fill="#63b8ff" stroke="#63b8ff" points="591.43,-83.35 582.56,-77.55 585.88,-87.62 591.43,-83.35"/>
</a>
</g>
</g>
<!-- Node15&#45;&gt;Node12 -->
<g id="edge36_Node000015_Node000012" class="edge">
<title>Node15&#45;&gt;Node12</title>
<g id="a_edge36_Node000015_Node000012"><a xlink:title=" ">
<path fill="none" stroke="#63b8ff" d="M665.89,-167.62C620.74,-148.22 516.87,-103.59 463.97,-80.86"/>
<polygon fill="#63b8ff" stroke="#63b8ff" points="465.45,-77.68 454.88,-76.95 462.68,-84.12 465.45,-77.68"/>
</a>
</g>
</g>
<!-- Node16 -->
<g id="Node000016" class="node">
<title>Node16</title>
<g id="a_Node000016"><a xlink:href="Matrix_8h.html" target="_top" xlink:title=" ">
<polygon fill="white" stroke="#666666" points="736.97,-132 638.47,-132 638.47,-112 736.97,-112 736.97,-132"/>
<text xml:space="preserve" text-anchor="middle" x="687.72" y="-118.5" font-family="Helvetica,sans-Serif" font-size="10.00">LGE/math/Matrix.h</text>
</a>
</g>
</g>
<!-- Node15&#45;&gt;Node16 -->
<g id="edge30_Node000015_Node000016" class="edge">
<title>Node15&#45;&gt;Node16</title>
<g id="a_edge30_Node000015_Node000016"><a xlink:title=" ">
<path fill="none" stroke="#63b8ff" d="M687.72,-167.59C687.72,-161.01 687.72,-151.96 687.72,-143.73"/>
<polygon fill="#63b8ff" stroke="#63b8ff" points="691.22,-143.81 687.72,-133.81 684.22,-143.81 691.22,-143.81"/>
</a>
</g>
</g>
<!-- Node18 -->
<g id="Node000018" class="node">
<title>Node18</title>
<g id="a_Node000018"><a xlink:title=" ">
<polygon fill="#e0e0e0" stroke="#999999" points="874.22,-132 831.22,-132 831.22,-112 874.22,-112 874.22,-132"/>
<text xml:space="preserve" text-anchor="middle" x="852.72" y="-118.5" font-family="Helvetica,sans-Serif" font-size="10.00">vector</text>
</a>
</g>
</g>
<!-- Node15&#45;&gt;Node18 -->
<g id="edge35_Node000015_Node000018" class="edge">
<title>Node15&#45;&gt;Node18</title>
<g id="a_edge35_Node000015_Node000018"><a xlink:title=" ">
<path fill="none" stroke="#63b8ff" d="M716.46,-167.59C745.44,-158.11 790.1,-143.49 820.32,-133.6"/>
<polygon fill="#63b8ff" stroke="#63b8ff" points="821.28,-136.97 829.7,-130.53 819.1,-130.32 821.28,-136.97"/>
</a>
</g>
</g>
<!-- Node16&#45;&gt;Node10 -->
<g id="edge31_Node000016_Node000010" class="edge">
<title>Node16&#45;&gt;Node10</title>
<g id="a_edge31_Node000016_Node000010"><a xlink:title=" ">
<path fill="none" stroke="#63b8ff" d="M668.03,-111.59C650.56,-103.24 624.77,-90.92 604.72,-81.34"/>
<polygon fill="#63b8ff" stroke="#63b8ff" points="606.45,-78.29 595.92,-77.13 603.43,-84.6 606.45,-78.29"/>
</a>
</g>
</g>
<!-- Node17 -->
<g id="Node000017" class="node">
<title>Node17</title>
<g id="a_Node000017"><a xlink:title=" ">
<polygon fill="#e0e0e0" stroke="#999999" points="706.59,-76 668.84,-76 668.84,-56 706.59,-56 706.59,-76"/>
<text xml:space="preserve" text-anchor="middle" x="687.72" y="-62.5" font-family="Helvetica,sans-Serif" font-size="10.00">array</text>
</a>
</g>
</g>
<!-- Node16&#45;&gt;Node17 -->
<g id="edge32_Node000016_Node000017" class="edge">
<title>Node16&#45;&gt;Node17</title>
<g id="a_edge32_Node000016_Node000017"><a xlink:title=" ">
<path fill="none" stroke="#63b8ff" d="M687.72,-111.59C687.72,-105.01 687.72,-95.96 687.72,-87.73"/>
<polygon fill="#63b8ff" stroke="#63b8ff" points="691.22,-87.81 687.72,-77.81 684.22,-87.81 691.22,-87.81"/>
</a>
</g>
</g>
</g>
</svg>
