<?xml version="1.0" encoding="UTF-8" standalone="no"?>
<!DOCTYPE svg PUBLIC "-//W3C//DTD SVG 1.1//EN"
 "http://www.w3.org/Graphics/SVG/1.1/DTD/svg11.dtd">
<!-- Generated by graphviz version 14.0.2 (20251019.1705)
 -->
<!-- Title: Material.h Pages: 1 -->
<svg width="374pt" height="196pt"
 viewBox="0.00 0.00 374.00 196.00" xmlns="http://www.w3.org/2000/svg" xmlns:xlink="http://www.w3.org/1999/xlink">
<g id="graph0" class="graph" transform="scale(1 1) rotate(0) translate(4 192)">
<title>Material.h</title>
<!-- Node1 -->
<g id="Node000001" class="node">
<title>Node1</title>
<g id="a_Node000001"><a xlink:title=" ">
<polygon fill="#999999" stroke="#666666" points="146,-188 87.25,-188 87.25,-168 146,-168 146,-188"/>
<text xml:space="preserve" text-anchor="middle" x="116.62" y="-174.5" font-family="Helvetica,sans-Serif" font-size="10.00">Material.h</text>
</a>
</g>
</g>
<!-- Node2 -->
<g id="Node000002" class="node">
<title>Node2</title>
<g id="a_Node000002"><a xlink:href="Material_8cpp.html" target="_top" xlink:title=" ">
<polygon fill="white" stroke="#666666" points="69.25,-132 0,-132 0,-112 69.25,-112 69.25,-132"/>
<text xml:space="preserve" text-anchor="middle" x="34.62" y="-118.5" font-family="Helvetica,sans-Serif" font-size="10.00">Material.cpp</text>
</a>
</g>
</g>
<!-- Node1&#45;&gt;Node2 -->
<g id="edge1_Node000001_Node000002" class="edge">
<title>Node1&#45;&gt;Node2</title>
<g id="a_edge1_Node000001_Node000002"><a xlink:title=" ">
<path fill="none" stroke="#63b8ff" d="M92.74,-161.27C78.58,-151.94 61.09,-140.43 49.02,-132.48"/>
<polygon fill="#63b8ff" stroke="#63b8ff" points="90.8,-164.18 101.08,-166.76 94.65,-158.34 90.8,-164.18"/>
</a>
</g>
</g>
<!-- Node3 -->
<g id="Node000003" class="node">
<title>Node3</title>
<g id="a_Node000003"><a xlink:href="MaterialComponent_8h.html" target="_top" xlink:title=" ">
<polygon fill="white" stroke="#666666" points="241.12,-76 132.12,-76 132.12,-56 241.12,-56 241.12,-76"/>
<text xml:space="preserve" text-anchor="middle" x="186.62" y="-62.5" font-family="Helvetica,sans-Serif" font-size="10.00">MaterialComponent.h</text>
</a>
</g>
</g>
<!-- Node1&#45;&gt;Node3 -->
<g id="edge2_Node000001_Node000003" class="edge">
<title>Node1&#45;&gt;Node3</title>
<g id="a_edge2_Node000001_Node000003"><a xlink:title=" ">
<path fill="none" stroke="#63b8ff" d="M127.24,-157.82C134.63,-144.73 144.87,-127.1 154.62,-112 162.74,-99.44 172.85,-85.48 179.51,-76.48"/>
<polygon fill="#63b8ff" stroke="#63b8ff" points="124.35,-155.83 122.52,-166.26 130.46,-159.24 124.35,-155.83"/>
</a>
</g>
</g>
<!-- Node6 -->
<g id="Node000006" class="node">
<title>Node6</title>
<g id="a_Node000006"><a xlink:href="main_8cpp.html" target="_top" xlink:title=" ">
<polygon fill="white" stroke="#666666" points="114.5,-20 58.75,-20 58.75,0 114.5,0 114.5,-20"/>
<text xml:space="preserve" text-anchor="middle" x="86.62" y="-6.5" font-family="Helvetica,sans-Serif" font-size="10.00">main.cpp</text>
</a>
</g>
</g>
<!-- Node1&#45;&gt;Node6 -->
<g id="edge9_Node000001_Node000006" class="edge">
<title>Node1&#45;&gt;Node6</title>
<g id="a_edge9_Node000001_Node000006"><a xlink:title=" ">
<path fill="none" stroke="#63b8ff" d="M112.92,-156.5C106.37,-120.27 93.01,-46.31 88.31,-20.3"/>
<polygon fill="#63b8ff" stroke="#63b8ff" points="109.43,-156.89 114.66,-166.11 116.32,-155.65 109.43,-156.89"/>
</a>
</g>
</g>
<!-- Node7 -->
<g id="Node000007" class="node">
<title>Node7</title>
<g id="a_Node000007"><a xlink:href="MaterialInstance_8h.html" target="_top" xlink:title=" ">
<polygon fill="white" stroke="#666666" points="259.75,-132 163.5,-132 163.5,-112 259.75,-112 259.75,-132"/>
<text xml:space="preserve" text-anchor="middle" x="211.62" y="-118.5" font-family="Helvetica,sans-Serif" font-size="10.00">MaterialInstance.h</text>
</a>
</g>
</g>
<!-- Node1&#45;&gt;Node7 -->
<g id="edge6_Node000001_Node000007" class="edge">
<title>Node1&#45;&gt;Node7</title>
<g id="a_edge6_Node000001_Node000007"><a xlink:title=" ">
<path fill="none" stroke="#63b8ff" d="M142.87,-162.08C159.52,-152.62 180.56,-140.66 194.95,-132.48"/>
<polygon fill="#63b8ff" stroke="#63b8ff" points="141.45,-158.86 134.49,-166.85 144.91,-164.95 141.45,-158.86"/>
</a>
</g>
</g>
<!-- Node4 -->
<g id="Node000004" class="node">
<title>Node4</title>
<g id="a_Node000004"><a xlink:href="Inspector_8cpp.html" target="_top" xlink:title=" ">
<polygon fill="white" stroke="#666666" points="345.25,-20 270,-20 270,0 345.25,0 345.25,-20"/>
<text xml:space="preserve" text-anchor="middle" x="307.62" y="-6.5" font-family="Helvetica,sans-Serif" font-size="10.00">Inspector.cpp</text>
</a>
</g>
</g>
<!-- Node3&#45;&gt;Node4 -->
<g id="edge3_Node000003_Node000004" class="edge">
<title>Node3&#45;&gt;Node4</title>
<g id="a_edge3_Node000003_Node000004"><a xlink:title=" ">
<path fill="none" stroke="#63b8ff" d="M217.97,-51.01C239.48,-41.41 267.45,-28.93 286.38,-20.48"/>
<polygon fill="#63b8ff" stroke="#63b8ff" points="216.79,-47.71 209.08,-54.98 219.64,-54.1 216.79,-47.71"/>
</a>
</g>
</g>
<!-- Node5 -->
<g id="Node000005" class="node">
<title>Node5</title>
<g id="a_Node000005"><a xlink:href="MaterialComponent_8cpp.html" target="_top" xlink:title=" ">
<polygon fill="white" stroke="#666666" points="252.38,-20 132.88,-20 132.88,0 252.38,0 252.38,-20"/>
<text xml:space="preserve" text-anchor="middle" x="192.62" y="-6.5" font-family="Helvetica,sans-Serif" font-size="10.00">MaterialComponent.cpp</text>
</a>
</g>
</g>
<!-- Node3&#45;&gt;Node5 -->
<g id="edge4_Node000003_Node000005" class="edge">
<title>Node3&#45;&gt;Node5</title>
<g id="a_edge4_Node000003_Node000005"><a xlink:title=" ">
<path fill="none" stroke="#63b8ff" d="M188.91,-44.43C189.84,-36.11 190.85,-26.93 191.59,-20.3"/>
<polygon fill="#63b8ff" stroke="#63b8ff" points="185.46,-43.76 187.84,-54.09 192.42,-44.54 185.46,-43.76"/>
</a>
</g>
</g>
<!-- Node3&#45;&gt;Node6 -->
<g id="edge5_Node000003_Node000006" class="edge">
<title>Node3&#45;&gt;Node6</title>
<g id="a_edge5_Node000003_Node000006"><a xlink:title=" ">
<path fill="none" stroke="#63b8ff" d="M159.49,-50.35C141.89,-40.84 119.47,-28.74 104.18,-20.48"/>
<polygon fill="#63b8ff" stroke="#63b8ff" points="157.41,-53.2 167.87,-54.87 160.74,-47.04 157.41,-53.2"/>
</a>
</g>
</g>
<!-- Node7&#45;&gt;Node3 -->
<g id="edge7_Node000007_Node000003" class="edge">
<title>Node7&#45;&gt;Node3</title>
<g id="a_edge7_Node000007_Node000003"><a xlink:title=" ">
<path fill="none" stroke="#63b8ff" d="M202.5,-101.29C198.55,-92.75 194.11,-83.16 190.93,-76.3"/>
<polygon fill="#63b8ff" stroke="#63b8ff" points="199.26,-102.62 206.63,-110.22 205.61,-99.68 199.26,-102.62"/>
</a>
</g>
</g>
<!-- Node8 -->
<g id="Node000008" class="node">
<title>Node8</title>
<g id="a_Node000008"><a xlink:href="MaterialInstance_8cpp.html" target="_top" xlink:title=" ">
<polygon fill="white" stroke="#666666" points="366,-76 259.25,-76 259.25,-56 366,-56 366,-76"/>
<text xml:space="preserve" text-anchor="middle" x="312.62" y="-62.5" font-family="Helvetica,sans-Serif" font-size="10.00">MaterialInstance.cpp</text>
</a>
</g>
</g>
<!-- Node7&#45;&gt;Node8 -->
<g id="edge8_Node000007_Node000008" class="edge">
<title>Node7&#45;&gt;Node8</title>
<g id="a_edge8_Node000007_Node000008"><a xlink:title=" ">
<path fill="none" stroke="#63b8ff" d="M239.03,-106.35C256.81,-96.84 279.45,-84.74 294.89,-76.48"/>
<polygon fill="#63b8ff" stroke="#63b8ff" points="237.72,-103.08 230.55,-110.88 241.02,-109.25 237.72,-103.08"/>
</a>
</g>
</g>
</g>
</svg>
