<?xml version="1.0" encoding="UTF-8" standalone="no"?>
<!DOCTYPE svg PUBLIC "-//W3C//DTD SVG 1.1//EN"
 "http://www.w3.org/Graphics/SVG/1.1/DTD/svg11.dtd">
<!-- Generated by graphviz version 14.0.2 (20251019.1705)
 -->
<!-- Title: MaterialInstance.h Pages: 1 -->
<svg width="583pt" height="196pt"
 viewBox="0.00 0.00 583.00 196.00" xmlns="http://www.w3.org/2000/svg" xmlns:xlink="http://www.w3.org/1999/xlink">
<g id="graph0" class="graph" transform="scale(1 1) rotate(0) translate(4 192)">
<title>MaterialInstance.h</title>
<!-- Node1 -->
<g id="Node000001" class="node">
<title>Node1</title>
<g id="a_Node000001"><a xlink:title=" ">
<polygon fill="#999999" stroke="#666666" points="426.46,-188 330.21,-188 330.21,-168 426.46,-168 426.46,-188"/>
<text xml:space="preserve" text-anchor="middle" x="378.33" y="-174.5" font-family="Helvetica,sans-Serif" font-size="10.00">MaterialInstance.h</text>
</a>
</g>
</g>
<!-- Node2 -->
<g id="Node000002" class="node">
<title>Node2</title>
<g id="a_Node000002"><a xlink:href="Material_8h.html" target="_top" xlink:title=" ">
<polygon fill="white" stroke="#666666" points="350.33,-132 226.33,-132 226.33,-112 350.33,-112 350.33,-132"/>
<text xml:space="preserve" text-anchor="middle" x="288.33" y="-118.5" font-family="Helvetica,sans-Serif" font-size="10.00">LGE/rendering/Material.h</text>
</a>
</g>
</g>
<!-- Node1&#45;&gt;Node2 -->
<g id="edge1_Node000001_Node000002" class="edge">
<title>Node1&#45;&gt;Node2</title>
<g id="a_edge1_Node000001_Node000002"><a xlink:title=" ">
<path fill="none" stroke="#63b8ff" d="M362.66,-167.59C349.19,-159.51 329.51,-147.71 313.79,-138.27"/>
<polygon fill="#63b8ff" stroke="#63b8ff" points="315.81,-135.4 305.43,-133.26 312.2,-141.4 315.81,-135.4"/>
</a>
</g>
</g>
<!-- Node4 -->
<g id="Node000004" class="node">
<title>Node4</title>
<g id="a_Node000004"><a xlink:title=" ">
<polygon fill="#e0e0e0" stroke="#999999" points="140.33,-20 100.33,-20 100.33,0 140.33,0 140.33,-20"/>
<text xml:space="preserve" text-anchor="middle" x="120.33" y="-6.5" font-family="Helvetica,sans-Serif" font-size="10.00">string</text>
</a>
</g>
</g>
<!-- Node1&#45;&gt;Node4 -->
<g id="edge17_Node000001_Node000004" class="edge">
<title>Node1&#45;&gt;Node4</title>
<g id="a_edge17_Node000001_Node000004"><a xlink:title=" ">
<path fill="none" stroke="#63b8ff" d="M329.92,-171.44C237.78,-159.71 42.99,-129.08 5.33,-76 -18.39,-42.56 47.1,-24.13 88.77,-16.05"/>
<polygon fill="#63b8ff" stroke="#63b8ff" points="89.36,-19.5 98.57,-14.27 88.1,-12.61 89.36,-19.5"/>
</a>
</g>
</g>
<!-- Node5 -->
<g id="Node000005" class="node">
<title>Node5</title>
<g id="a_Node000005"><a xlink:title=" ">
<polygon fill="#e0e0e0" stroke="#999999" points="381.71,-20 298.96,-20 298.96,0 381.71,0 381.71,-20"/>
<text xml:space="preserve" text-anchor="middle" x="340.33" y="-6.5" font-family="Helvetica,sans-Serif" font-size="10.00">unordered_map</text>
</a>
</g>
</g>
<!-- Node1&#45;&gt;Node5 -->
<g id="edge18_Node000001_Node000005" class="edge">
<title>Node1&#45;&gt;Node5</title>
<g id="a_edge18_Node000001_Node000005"><a xlink:title=" ">
<path fill="none" stroke="#63b8ff" d="M376.18,-167.6C370.2,-141.46 353.26,-67.48 344.99,-31.36"/>
<polygon fill="#63b8ff" stroke="#63b8ff" points="348.44,-30.74 342.8,-21.77 341.62,-32.3 348.44,-30.74"/>
</a>
</g>
</g>
<!-- Node7 -->
<g id="Node000007" class="node">
<title>Node7</title>
<g id="a_Node000007"><a xlink:href="Texture_8h.html" target="_top" xlink:title=" ">
<polygon fill="white" stroke="#666666" points="136.21,-76 14.46,-76 14.46,-56 136.21,-56 136.21,-76"/>
<text xml:space="preserve" text-anchor="middle" x="75.33" y="-62.5" font-family="Helvetica,sans-Serif" font-size="10.00">LGE/rendering/Texture.h</text>
</a>
</g>
</g>
<!-- Node1&#45;&gt;Node7 -->
<g id="edge14_Node000001_Node000007" class="edge">
<title>Node1&#45;&gt;Node7</title>
<g id="a_edge14_Node000001_Node000007"><a xlink:title=" ">
<path fill="none" stroke="#63b8ff" d="M337.75,-167.53C304.86,-159.41 257.53,-146.72 217.33,-132 176.7,-117.12 131.53,-95.53 103.28,-81.38"/>
<polygon fill="#63b8ff" stroke="#63b8ff" points="105.19,-78.42 94.68,-77.03 102.03,-84.67 105.19,-78.42"/>
</a>
</g>
</g>
<!-- Node8 -->
<g id="Node000008" class="node">
<title>Node8</title>
<g id="a_Node000008"><a xlink:href="Vector_8h.html" target="_top" xlink:title=" ">
<polygon fill="white" stroke="#666666" points="505.96,-76 406.71,-76 406.71,-56 505.96,-56 505.96,-76"/>
<text xml:space="preserve" text-anchor="middle" x="456.33" y="-62.5" font-family="Helvetica,sans-Serif" font-size="10.00">LGE/math/Vector.h</text>
</a>
</g>
</g>
<!-- Node1&#45;&gt;Node8 -->
<g id="edge15_Node000001_Node000008" class="edge">
<title>Node1&#45;&gt;Node8</title>
<g id="a_edge15_Node000001_Node000008"><a xlink:title=" ">
<path fill="none" stroke="#63b8ff" d="M384.98,-167.62C397.82,-149.52 426.23,-109.45 443.07,-85.7"/>
<polygon fill="#63b8ff" stroke="#63b8ff" points="445.9,-87.77 448.82,-77.59 440.19,-83.72 445.9,-87.77"/>
</a>
</g>
</g>
<!-- Node10 -->
<g id="Node000010" class="node">
<title>Node10</title>
<g id="a_Node000010"><a xlink:title=" ">
<polygon fill="#e0e0e0" stroke="#999999" points="574.96,-76 523.71,-76 523.71,-56 574.96,-56 574.96,-76"/>
<text xml:space="preserve" text-anchor="middle" x="549.33" y="-62.5" font-family="Helvetica,sans-Serif" font-size="10.00">memory</text>
</a>
</g>
</g>
<!-- Node1&#45;&gt;Node10 -->
<g id="edge16_Node000001_Node000010" class="edge">
<title>Node1&#45;&gt;Node10</title>
<g id="a_edge16_Node000001_Node000010"><a xlink:title=" ">
<path fill="none" stroke="#63b8ff" d="M391.37,-167.68C409.51,-154.8 443.5,-131.01 473.33,-112 489.57,-101.66 508.15,-90.64 522.88,-82.09"/>
<polygon fill="#63b8ff" stroke="#63b8ff" points="524.61,-85.13 531.53,-77.11 521.12,-79.07 524.61,-85.13"/>
</a>
</g>
</g>
<!-- Node11 -->
<g id="Node000011" class="node">
<title>Node11</title>
<g id="a_Node000011"><a xlink:title=" ">
<polygon fill="#e0e0e0" stroke="#999999" points="532.21,-132 482.46,-132 482.46,-112 532.21,-112 532.21,-132"/>
<text xml:space="preserve" text-anchor="middle" x="507.33" y="-118.5" font-family="Helvetica,sans-Serif" font-size="10.00">optional</text>
</a>
</g>
</g>
<!-- Node1&#45;&gt;Node11 -->
<g id="edge19_Node000001_Node000011" class="edge">
<title>Node1&#45;&gt;Node11</title>
<g id="a_edge19_Node000001_Node000011"><a xlink:title=" ">
<path fill="none" stroke="#63b8ff" d="M400.8,-167.59C421.12,-159.09 451.29,-146.46 474.34,-136.81"/>
<polygon fill="#63b8ff" stroke="#63b8ff" points="475.42,-140.15 483.29,-133.06 472.72,-133.7 475.42,-140.15"/>
</a>
</g>
</g>
<!-- Node3 -->
<g id="Node000003" class="node">
<title>Node3</title>
<g id="a_Node000003"><a xlink:href="Shader_8h.html" target="_top" xlink:title=" ">
<polygon fill="white" stroke="#666666" points="312.46,-76 192.21,-76 192.21,-56 312.46,-56 312.46,-76"/>
<text xml:space="preserve" text-anchor="middle" x="252.33" y="-62.5" font-family="Helvetica,sans-Serif" font-size="10.00">LGE/rendering/Shader.h</text>
</a>
</g>
</g>
<!-- Node2&#45;&gt;Node3 -->
<g id="edge2_Node000002_Node000003" class="edge">
<title>Node2&#45;&gt;Node3</title>
<g id="a_edge2_Node000002_Node000003"><a xlink:title=" ">
<path fill="none" stroke="#63b8ff" d="M282.06,-111.59C277.31,-104.47 270.63,-94.45 264.81,-85.72"/>
<polygon fill="#63b8ff" stroke="#63b8ff" points="267.83,-83.94 259.37,-77.56 262.01,-87.82 267.83,-83.94"/>
</a>
</g>
</g>
<!-- Node2&#45;&gt;Node4 -->
<g id="edge12_Node000002_Node000004" class="edge">
<title>Node2&#45;&gt;Node4</title>
<g id="a_edge12_Node000002_Node000004"><a xlink:title=" ">
<path fill="none" stroke="#63b8ff" d="M257.75,-111.52C235.88,-103.9 206.37,-91.86 183.33,-76 164.19,-62.82 146.14,-43.18 134.31,-28.94"/>
<polygon fill="#63b8ff" stroke="#63b8ff" points="137.13,-26.85 128.13,-21.27 131.68,-31.25 137.13,-26.85"/>
</a>
</g>
</g>
<!-- Node2&#45;&gt;Node5 -->
<g id="edge13_Node000002_Node000005" class="edge">
<title>Node2&#45;&gt;Node5</title>
<g id="a_edge13_Node000002_Node000005"><a xlink:title=" ">
<path fill="none" stroke="#63b8ff" d="M296.73,-111.63C304.13,-102.95 314.73,-89.38 321.33,-76 328.35,-61.78 333.25,-44.5 336.31,-31.33"/>
<polygon fill="#63b8ff" stroke="#63b8ff" points="339.71,-32.19 338.38,-21.68 332.86,-30.72 339.71,-32.19"/>
</a>
</g>
</g>
<!-- Node2&#45;&gt;Node7 -->
<g id="edge6_Node000002_Node000007" class="edge">
<title>Node2&#45;&gt;Node7</title>
<g id="a_edge6_Node000002_Node000007"><a xlink:title=" ">
<path fill="none" stroke="#63b8ff" d="M251.23,-111.59C215.87,-102.63 162.42,-89.08 123.72,-79.27"/>
<polygon fill="#63b8ff" stroke="#63b8ff" points="124.75,-75.92 114.19,-76.85 123.03,-82.7 124.75,-75.92"/>
</a>
</g>
</g>
<!-- Node2&#45;&gt;Node8 -->
<g id="edge9_Node000002_Node000008" class="edge">
<title>Node2&#45;&gt;Node8</title>
<g id="a_edge9_Node000002_Node000008"><a xlink:title=" ">
<path fill="none" stroke="#63b8ff" d="M317.6,-111.59C344.89,-102.82 385.84,-89.66 416.19,-79.9"/>
<polygon fill="#63b8ff" stroke="#63b8ff" points="416.95,-83.33 425.4,-76.94 414.81,-76.67 416.95,-83.33"/>
</a>
</g>
</g>
<!-- Node2&#45;&gt;Node10 -->
<g id="edge11_Node000002_Node000010" class="edge">
<title>Node2&#45;&gt;Node10</title>
<g id="a_edge11_Node000002_Node000010"><a xlink:title=" ">
<path fill="none" stroke="#63b8ff" d="M340.83,-111.57C384.44,-103.51 448.37,-91.2 512.3,-76.6"/>
<polygon fill="#63b8ff" stroke="#63b8ff" points="512.95,-80.04 521.91,-74.39 511.38,-73.22 512.95,-80.04"/>
</a>
</g>
</g>
<!-- Node3&#45;&gt;Node4 -->
<g id="edge3_Node000003_Node000004" class="edge">
<title>Node3&#45;&gt;Node4</title>
<g id="a_edge3_Node000003_Node000004"><a xlink:title=" ">
<path fill="none" stroke="#63b8ff" d="M229.34,-55.59C207.66,-46.72 175.01,-33.37 151.1,-23.59"/>
<polygon fill="#63b8ff" stroke="#63b8ff" points="152.45,-20.36 141.87,-19.81 149.8,-26.84 152.45,-20.36"/>
</a>
</g>
</g>
<!-- Node3&#45;&gt;Node5 -->
<g id="edge4_Node000003_Node000005" class="edge">
<title>Node3&#45;&gt;Node5</title>
<g id="a_edge4_Node000003_Node000005"><a xlink:title=" ">
<path fill="none" stroke="#63b8ff" d="M267.66,-55.59C280.83,-47.51 300.07,-35.71 315.44,-26.27"/>
<polygon fill="#63b8ff" stroke="#63b8ff" points="316.9,-29.48 323.6,-21.27 313.24,-23.52 316.9,-29.48"/>
</a>
</g>
</g>
<!-- Node6 -->
<g id="Node000006" class="node">
<title>Node6</title>
<g id="a_Node000006"><a xlink:title=" ">
<polygon fill="#e0e0e0" stroke="#999999" points="261.96,-20 216.71,-20 216.71,0 261.96,0 261.96,-20"/>
<text xml:space="preserve" text-anchor="middle" x="239.33" y="-6.5" font-family="Helvetica,sans-Serif" font-size="10.00">cstdint</text>
</a>
</g>
</g>
<!-- Node3&#45;&gt;Node6 -->
<g id="edge5_Node000003_Node000006" class="edge">
<title>Node3&#45;&gt;Node6</title>
<g id="a_edge5_Node000003_Node000006"><a xlink:title=" ">
<path fill="none" stroke="#63b8ff" d="M250.07,-55.59C248.47,-48.93 246.25,-39.75 244.25,-31.44"/>
<polygon fill="#63b8ff" stroke="#63b8ff" points="247.67,-30.67 241.93,-21.77 240.86,-32.31 247.67,-30.67"/>
</a>
</g>
</g>
<!-- Node7&#45;&gt;Node4 -->
<g id="edge8_Node000007_Node000004" class="edge">
<title>Node7&#45;&gt;Node4</title>
<g id="a_edge8_Node000007_Node000004"><a xlink:title=" ">
<path fill="none" stroke="#63b8ff" d="M83.17,-55.59C89.3,-48.24 98,-37.8 105.45,-28.87"/>
<polygon fill="#63b8ff" stroke="#63b8ff" points="107.9,-31.38 111.62,-21.46 102.53,-26.9 107.9,-31.38"/>
</a>
</g>
</g>
<!-- Node7&#45;&gt;Node6 -->
<g id="edge7_Node000007_Node000006" class="edge">
<title>Node7&#45;&gt;Node6</title>
<g id="a_edge7_Node000007_Node000006"><a xlink:title=" ">
<path fill="none" stroke="#63b8ff" d="M103.9,-55.59C132.22,-46.27 175.6,-31.99 205.6,-22.11"/>
<polygon fill="#63b8ff" stroke="#63b8ff" points="206.54,-25.48 214.94,-19.03 204.35,-18.83 206.54,-25.48"/>
</a>
</g>
</g>
<!-- Node9 -->
<g id="Node000009" class="node">
<title>Node9</title>
<g id="a_Node000009"><a xlink:title=" ">
<polygon fill="#e0e0e0" stroke="#999999" points="477.83,-20 434.83,-20 434.83,0 477.83,0 477.83,-20"/>
<text xml:space="preserve" text-anchor="middle" x="456.33" y="-6.5" font-family="Helvetica,sans-Serif" font-size="10.00">cmath</text>
</a>
</g>
</g>
<!-- Node8&#45;&gt;Node9 -->
<g id="edge10_Node000008_Node000009" class="edge">
<title>Node8&#45;&gt;Node9</title>
<g id="a_edge10_Node000008_Node000009"><a xlink:title=" ">
<path fill="none" stroke="#63b8ff" d="M456.33,-55.59C456.33,-49.01 456.33,-39.96 456.33,-31.73"/>
<polygon fill="#63b8ff" stroke="#63b8ff" points="459.83,-31.81 456.33,-21.81 452.83,-31.81 459.83,-31.81"/>
</a>
</g>
</g>
</g>
</svg>
