<?xml version="1.0" encoding="UTF-8" standalone="no"?>
<!DOCTYPE svg PUBLIC "-//W3C//DTD SVG 1.1//EN"
 "http://www.w3.org/Graphics/SVG/1.1/DTD/svg11.dtd">
<!-- Generated by graphviz version 14.0.2 (20251019.1705)
 -->
<!-- Title: Material.h Pages: 1 -->
<svg width="507pt" height="140pt"
 viewBox="0.00 0.00 507.00 140.00" xmlns="http://www.w3.org/2000/svg" xmlns:xlink="http://www.w3.org/1999/xlink">
<g id="graph0" class="graph" transform="scale(1 1) rotate(0) translate(4 136)">
<title>Material.h</title>
<!-- Node1 -->
<g id="Node000001" class="node">
<title>Node1</title>
<g id="a_Node000001"><a xlink:title=" ">
<polygon fill="#999999" stroke="#666666" points="287.37,-132 228.62,-132 228.62,-112 287.37,-112 287.37,-132"/>
<text xml:space="preserve" text-anchor="middle" x="258" y="-118.5" font-family="Helvetica,sans-Serif" font-size="10.00">Material.h</text>
</a>
</g>
</g>
<!-- Node2 -->
<g id="Node000002" class="node">
<title>Node2</title>
<g id="a_Node000002"><a xlink:href="Shader_8h.html" target="_top" xlink:title=" ">
<polygon fill="white" stroke="#666666" points="274.12,-76 153.87,-76 153.87,-56 274.12,-56 274.12,-76"/>
<text xml:space="preserve" text-anchor="middle" x="214" y="-62.5" font-family="Helvetica,sans-Serif" font-size="10.00">LGE/rendering/Shader.h</text>
</a>
</g>
</g>
<!-- Node1&#45;&gt;Node2 -->
<g id="edge1_Node000001_Node000002" class="edge">
<title>Node1&#45;&gt;Node2</title>
<g id="a_edge1_Node000001_Node000002"><a xlink:title=" ">
<path fill="none" stroke="#63b8ff" d="M250.33,-111.59C244.4,-104.32 236.01,-94.02 228.78,-85.15"/>
<polygon fill="#63b8ff" stroke="#63b8ff" points="231.56,-83.01 222.53,-77.47 226.13,-87.43 231.56,-83.01"/>
</a>
</g>
</g>
<!-- Node3 -->
<g id="Node000003" class="node">
<title>Node3</title>
<g id="a_Node000003"><a xlink:title=" ">
<polygon fill="#e0e0e0" stroke="#999999" points="95,-20 55,-20 55,0 95,0 95,-20"/>
<text xml:space="preserve" text-anchor="middle" x="75" y="-6.5" font-family="Helvetica,sans-Serif" font-size="10.00">string</text>
</a>
</g>
</g>
<!-- Node1&#45;&gt;Node3 -->
<g id="edge11_Node000001_Node000003" class="edge">
<title>Node1&#45;&gt;Node3</title>
<g id="a_edge11_Node000001_Node000003"><a xlink:title=" ">
<path fill="none" stroke="#63b8ff" d="M228.37,-120.3C167.83,-118.17 33.22,-109.68 5,-76 -11.76,-56 18.52,-36.03 44.34,-23.61"/>
<polygon fill="#63b8ff" stroke="#63b8ff" points="45.6,-26.88 53.26,-19.56 42.7,-20.51 45.6,-26.88"/>
</a>
</g>
</g>
<!-- Node4 -->
<g id="Node000004" class="node">
<title>Node4</title>
<g id="a_Node000004"><a xlink:title=" ">
<polygon fill="#e0e0e0" stroke="#999999" points="319.37,-20 236.62,-20 236.62,0 319.37,0 319.37,-20"/>
<text xml:space="preserve" text-anchor="middle" x="278" y="-6.5" font-family="Helvetica,sans-Serif" font-size="10.00">unordered_map</text>
</a>
</g>
</g>
<!-- Node1&#45;&gt;Node4 -->
<g id="edge12_Node000001_Node000004" class="edge">
<title>Node1&#45;&gt;Node4</title>
<g id="a_edge12_Node000001_Node000004"><a xlink:title=" ">
<path fill="none" stroke="#63b8ff" d="M265.1,-111.61C271.2,-102.9 279.54,-89.32 283,-76 286.78,-61.39 285.27,-44.36 282.94,-31.4"/>
<polygon fill="#63b8ff" stroke="#63b8ff" points="286.43,-30.96 280.93,-21.91 279.58,-32.42 286.43,-30.96"/>
</a>
</g>
</g>
<!-- Node6 -->
<g id="Node000006" class="node">
<title>Node6</title>
<g id="a_Node000006"><a xlink:href="Texture_8h.html" target="_top" xlink:title=" ">
<polygon fill="white" stroke="#666666" points="135.87,-76 14.12,-76 14.12,-56 135.87,-56 135.87,-76"/>
<text xml:space="preserve" text-anchor="middle" x="75" y="-62.5" font-family="Helvetica,sans-Serif" font-size="10.00">LGE/rendering/Texture.h</text>
</a>
</g>
</g>
<!-- Node1&#45;&gt;Node6 -->
<g id="edge5_Node000001_Node000006" class="edge">
<title>Node1&#45;&gt;Node6</title>
<g id="a_edge5_Node000001_Node000006"><a xlink:title=" ">
<path fill="none" stroke="#63b8ff" d="M228.19,-112.2C198.25,-103.37 151.82,-89.67 117.92,-79.67"/>
<polygon fill="#63b8ff" stroke="#63b8ff" points="118.98,-76.33 108.4,-76.86 117,-83.04 118.98,-76.33"/>
</a>
</g>
</g>
<!-- Node7 -->
<g id="Node000007" class="node">
<title>Node7</title>
<g id="a_Node000007"><a xlink:href="Vector_8h.html" target="_top" xlink:title=" ">
<polygon fill="white" stroke="#666666" points="429.62,-76 330.37,-76 330.37,-56 429.62,-56 429.62,-76"/>
<text xml:space="preserve" text-anchor="middle" x="380" y="-62.5" font-family="Helvetica,sans-Serif" font-size="10.00">LGE/math/Vector.h</text>
</a>
</g>
</g>
<!-- Node1&#45;&gt;Node7 -->
<g id="edge8_Node000001_Node000007" class="edge">
<title>Node1&#45;&gt;Node7</title>
<g id="a_edge8_Node000001_Node000007"><a xlink:title=" ">
<path fill="none" stroke="#63b8ff" d="M279.25,-111.59C298.29,-103.17 326.48,-90.69 348.2,-81.07"/>
<polygon fill="#63b8ff" stroke="#63b8ff" points="349.47,-84.34 357.2,-77.09 346.63,-77.94 349.47,-84.34"/>
</a>
</g>
</g>
<!-- Node9 -->
<g id="Node000009" class="node">
<title>Node9</title>
<g id="a_Node000009"><a xlink:title=" ">
<polygon fill="#e0e0e0" stroke="#999999" points="498.62,-76 447.37,-76 447.37,-56 498.62,-56 498.62,-76"/>
<text xml:space="preserve" text-anchor="middle" x="473" y="-62.5" font-family="Helvetica,sans-Serif" font-size="10.00">memory</text>
</a>
</g>
</g>
<!-- Node1&#45;&gt;Node9 -->
<g id="edge10_Node000001_Node000009" class="edge">
<title>Node1&#45;&gt;Node9</title>
<g id="a_edge10_Node000001_Node000009"><a xlink:title=" ">
<path fill="none" stroke="#63b8ff" d="M287.82,-113.73C321.55,-105.48 378.41,-91.47 435.9,-76.77"/>
<polygon fill="#63b8ff" stroke="#63b8ff" points="436.73,-80.17 445.55,-74.3 435,-73.39 436.73,-80.17"/>
</a>
</g>
</g>
<!-- Node2&#45;&gt;Node3 -->
<g id="edge2_Node000002_Node000003" class="edge">
<title>Node2&#45;&gt;Node3</title>
<g id="a_edge2_Node000002_Node000003"><a xlink:title=" ">
<path fill="none" stroke="#63b8ff" d="M189.78,-55.59C166.48,-46.54 131.13,-32.81 105.82,-22.98"/>
<polygon fill="#63b8ff" stroke="#63b8ff" points="107.32,-19.8 96.73,-19.44 104.78,-26.33 107.32,-19.8"/>
</a>
</g>
</g>
<!-- Node2&#45;&gt;Node4 -->
<g id="edge3_Node000002_Node000004" class="edge">
<title>Node2&#45;&gt;Node4</title>
<g id="a_edge3_Node000002_Node000004"><a xlink:title=" ">
<path fill="none" stroke="#63b8ff" d="M225.14,-55.59C234.32,-47.85 247.55,-36.69 258.48,-27.47"/>
<polygon fill="#63b8ff" stroke="#63b8ff" points="260.43,-30.4 265.82,-21.27 255.92,-25.05 260.43,-30.4"/>
</a>
</g>
</g>
<!-- Node5 -->
<g id="Node000005" class="node">
<title>Node5</title>
<g id="a_Node000005"><a xlink:title=" ">
<polygon fill="#e0e0e0" stroke="#999999" points="197.62,-20 152.37,-20 152.37,0 197.62,0 197.62,-20"/>
<text xml:space="preserve" text-anchor="middle" x="175" y="-6.5" font-family="Helvetica,sans-Serif" font-size="10.00">cstdint</text>
</a>
</g>
</g>
<!-- Node2&#45;&gt;Node5 -->
<g id="edge4_Node000002_Node000005" class="edge">
<title>Node2&#45;&gt;Node5</title>
<g id="a_edge4_Node000002_Node000005"><a xlink:title=" ">
<path fill="none" stroke="#63b8ff" d="M207.2,-55.59C202,-48.39 194.66,-38.23 188.31,-29.43"/>
<polygon fill="#63b8ff" stroke="#63b8ff" points="191.29,-27.58 182.6,-21.53 185.61,-31.68 191.29,-27.58"/>
</a>
</g>
</g>
<!-- Node6&#45;&gt;Node3 -->
<g id="edge7_Node000006_Node000003" class="edge">
<title>Node6&#45;&gt;Node3</title>
<g id="a_edge7_Node000006_Node000003"><a xlink:title=" ">
<path fill="none" stroke="#63b8ff" d="M75,-55.59C75,-49.01 75,-39.96 75,-31.73"/>
<polygon fill="#63b8ff" stroke="#63b8ff" points="78.5,-31.81 75,-21.81 71.5,-31.81 78.5,-31.81"/>
</a>
</g>
</g>
<!-- Node6&#45;&gt;Node5 -->
<g id="edge6_Node000006_Node000005" class="edge">
<title>Node6&#45;&gt;Node5</title>
<g id="a_edge6_Node000006_Node000005"><a xlink:title=" ">
<path fill="none" stroke="#63b8ff" d="M92.41,-55.59C107.66,-47.36 130.08,-35.26 147.7,-25.74"/>
<polygon fill="#63b8ff" stroke="#63b8ff" points="148.97,-29.03 156.11,-21.2 145.65,-22.87 148.97,-29.03"/>
</a>
</g>
</g>
<!-- Node8 -->
<g id="Node000008" class="node">
<title>Node8</title>
<g id="a_Node000008"><a xlink:title=" ">
<polygon fill="#e0e0e0" stroke="#999999" points="401.5,-20 358.5,-20 358.5,0 401.5,0 401.5,-20"/>
<text xml:space="preserve" text-anchor="middle" x="380" y="-6.5" font-family="Helvetica,sans-Serif" font-size="10.00">cmath</text>
</a>
</g>
</g>
<!-- Node7&#45;&gt;Node8 -->
<g id="edge9_Node000007_Node000008" class="edge">
<title>Node7&#45;&gt;Node8</title>
<g id="a_edge9_Node000007_Node000008"><a xlink:title=" ">
<path fill="none" stroke="#63b8ff" d="M380,-55.59C380,-49.01 380,-39.96 380,-31.73"/>
<polygon fill="#63b8ff" stroke="#63b8ff" points="383.5,-31.81 380,-21.81 376.5,-31.81 383.5,-31.81"/>
</a>
</g>
</g>
</g>
</svg>
