<?xml version="1.0" encoding="UTF-8" standalone="no"?>
<!DOCTYPE svg PUBLIC "-//W3C//DTD SVG 1.1//EN"
 "http://www.w3.org/Graphics/SVG/1.1/DTD/svg11.dtd">
<!-- Generated by graphviz version 14.0.2 (20251019.1705)
 -->
<!-- Title: Matrix.h Pages: 1 -->
<svg width="922pt" height="196pt"
 viewBox="0.00 0.00 922.00 196.00" xmlns="http://www.w3.org/2000/svg" xmlns:xlink="http://www.w3.org/1999/xlink">
<g id="graph0" class="graph" transform="scale(1 1) rotate(0) translate(4 192)">
<title>Matrix.h</title>
<!-- Node1 -->
<g id="Node000001" class="node">
<title>Node1</title>
<g id="a_Node000001"><a xlink:title=" ">
<polygon fill="#999999" stroke="#666666" points="419.32,-188 368.07,-188 368.07,-168 419.32,-168 419.32,-188"/>
<text xml:space="preserve" text-anchor="middle" x="393.7" y="-174.5" font-family="Helvetica,sans-Serif" font-size="10.00">Matrix.h</text>
</a>
</g>
</g>
<!-- Node2 -->
<g id="Node000002" class="node">
<title>Node2</title>
<g id="a_Node000002"><a xlink:href="Camera_8h.html" target="_top" xlink:title=" ">
<polygon fill="white" stroke="#666666" points="313.07,-132 254.32,-132 254.32,-112 313.07,-112 313.07,-132"/>
<text xml:space="preserve" text-anchor="middle" x="283.7" y="-118.5" font-family="Helvetica,sans-Serif" font-size="10.00">Camera.h</text>
</a>
</g>
</g>
<!-- Node1&#45;&gt;Node2 -->
<g id="edge1_Node000001_Node000002" class="edge">
<title>Node1&#45;&gt;Node2</title>
<g id="a_edge1_Node000001_Node000002"><a xlink:title=" ">
<path fill="none" stroke="#63b8ff" d="M364.39,-162.61C344.95,-153.07 319.98,-140.81 303.01,-132.48"/>
<polygon fill="#63b8ff" stroke="#63b8ff" points="362.66,-165.66 373.18,-166.93 365.74,-159.38 362.66,-165.66"/>
</a>
</g>
</g>
<!-- Node7 -->
<g id="Node000007" class="node">
<title>Node7</title>
<g id="a_Node000007"><a xlink:href="SceneViewport_8cpp.html" target="_top" xlink:title=" ">
<polygon fill="white" stroke="#666666" points="444.07,-76 343.32,-76 343.32,-56 444.07,-56 444.07,-76"/>
<text xml:space="preserve" text-anchor="middle" x="393.7" y="-62.5" font-family="Helvetica,sans-Serif" font-size="10.00">SceneViewport.cpp</text>
</a>
</g>
</g>
<!-- Node1&#45;&gt;Node7 -->
<g id="edge17_Node000001_Node000007" class="edge">
<title>Node1&#45;&gt;Node7</title>
<g id="a_edge17_Node000001_Node000007"><a xlink:title=" ">
<path fill="none" stroke="#63b8ff" d="M393.7,-156.31C393.7,-132.36 393.7,-93.95 393.7,-76.35"/>
<polygon fill="#63b8ff" stroke="#63b8ff" points="390.2,-156.11 393.7,-166.11 397.2,-156.11 390.2,-156.11"/>
</a>
</g>
</g>
<!-- Node9 -->
<g id="Node000009" class="node">
<title>Node9</title>
<g id="a_Node000009"><a xlink:href="GameObject_8h.html" target="_top" xlink:title=" ">
<polygon fill="white" stroke="#666666" points="544.2,-132 465.2,-132 465.2,-112 544.2,-112 544.2,-132"/>
<text xml:space="preserve" text-anchor="middle" x="504.7" y="-118.5" font-family="Helvetica,sans-Serif" font-size="10.00">GameObject.h</text>
</a>
</g>
</g>
<!-- Node1&#45;&gt;Node9 -->
<g id="edge9_Node000001_Node000009" class="edge">
<title>Node1&#45;&gt;Node9</title>
<g id="a_edge9_Node000001_Node000009"><a xlink:title=" ">
<path fill="none" stroke="#63b8ff" d="M423.27,-162.61C442.89,-153.07 468.08,-140.81 485.21,-132.48"/>
<polygon fill="#63b8ff" stroke="#63b8ff" points="421.85,-159.41 414.39,-166.93 424.92,-165.7 421.85,-159.41"/>
</a>
</g>
</g>
<!-- Node14 -->
<g id="Node000014" class="node">
<title>Node14</title>
<g id="a_Node000014"><a xlink:href="Matrix_8cpp.html" target="_top" xlink:title=" ">
<polygon fill="white" stroke="#666666" points="623.57,-132 561.82,-132 561.82,-112 623.57,-112 623.57,-132"/>
<text xml:space="preserve" text-anchor="middle" x="592.7" y="-118.5" font-family="Helvetica,sans-Serif" font-size="10.00">Matrix.cpp</text>
</a>
</g>
</g>
<!-- Node1&#45;&gt;Node14 -->
<g id="edge16_Node000001_Node000014" class="edge">
<title>Node1&#45;&gt;Node14</title>
<g id="a_edge16_Node000001_Node000014"><a xlink:title=" ">
<path fill="none" stroke="#63b8ff" d="M430.7,-166.96C468.34,-156.75 526.01,-141.1 561.43,-131.48"/>
<polygon fill="#63b8ff" stroke="#63b8ff" points="429.91,-163.55 421.17,-169.54 431.74,-170.3 429.91,-163.55"/>
</a>
</g>
</g>
<!-- Node15 -->
<g id="Node000015" class="node">
<title>Node15</title>
<g id="a_Node000015"><a xlink:href="Skybox_8h.html" target="_top" xlink:title=" ">
<polygon fill="white" stroke="#666666" points="76.32,-132 19.07,-132 19.07,-112 76.32,-112 76.32,-132"/>
<text xml:space="preserve" text-anchor="middle" x="47.7" y="-118.5" font-family="Helvetica,sans-Serif" font-size="10.00">Skybox.h</text>
</a>
</g>
</g>
<!-- Node1&#45;&gt;Node15 -->
<g id="edge18_Node000001_Node000015" class="edge">
<title>Node1&#45;&gt;Node15</title>
<g id="a_edge18_Node000001_Node000015"><a xlink:title=" ">
<path fill="none" stroke="#63b8ff" d="M356.45,-171.19C286.94,-160.34 138.86,-137.23 76.42,-127.48"/>
<polygon fill="#63b8ff" stroke="#63b8ff" points="355.77,-174.62 366.19,-172.71 356.85,-167.71 355.77,-174.62"/>
</a>
</g>
</g>
<!-- Node3 -->
<g id="Node000003" class="node">
<title>Node3</title>
<g id="a_Node000003"><a xlink:href="Camera_8cpp.html" target="_top" xlink:title=" ">
<polygon fill="white" stroke="#666666" points="287.32,-76 218.07,-76 218.07,-56 287.32,-56 287.32,-76"/>
<text xml:space="preserve" text-anchor="middle" x="252.7" y="-62.5" font-family="Helvetica,sans-Serif" font-size="10.00">Camera.cpp</text>
</a>
</g>
</g>
<!-- Node2&#45;&gt;Node3 -->
<g id="edge2_Node000002_Node000003" class="edge">
<title>Node2&#45;&gt;Node3</title>
<g id="a_edge2_Node000002_Node000003"><a xlink:title=" ">
<path fill="none" stroke="#63b8ff" d="M272.71,-101.87C267.73,-93.19 262.06,-83.32 258.03,-76.3"/>
<polygon fill="#63b8ff" stroke="#63b8ff" points="269.53,-103.35 277.54,-110.28 275.6,-99.87 269.53,-103.35"/>
</a>
</g>
</g>
<!-- Node4 -->
<g id="Node000004" class="node">
<title>Node4</title>
<g id="a_Node000004"><a xlink:href="CameraController_8h.html" target="_top" xlink:title=" ">
<polygon fill="white" stroke="#666666" points="200.07,-76 99.32,-76 99.32,-56 200.07,-56 200.07,-76"/>
<text xml:space="preserve" text-anchor="middle" x="149.7" y="-62.5" font-family="Helvetica,sans-Serif" font-size="10.00">CameraController.h</text>
</a>
</g>
</g>
<!-- Node2&#45;&gt;Node4 -->
<g id="edge3_Node000002_Node000004" class="edge">
<title>Node2&#45;&gt;Node4</title>
<g id="a_edge3_Node000002_Node000004"><a xlink:title=" ">
<path fill="none" stroke="#63b8ff" d="M249.95,-107.4C226.01,-97.75 194.48,-85.05 173.22,-76.48"/>
<polygon fill="#63b8ff" stroke="#63b8ff" points="248.37,-110.54 258.95,-111.03 250.98,-104.04 248.37,-110.54"/>
</a>
</g>
</g>
<!-- Node6 -->
<g id="Node000006" class="node">
<title>Node6</title>
<g id="a_Node000006"><a xlink:href="main_8cpp.html" target="_top" xlink:title=" ">
<polygon fill="white" stroke="#666666" points="311.57,-20 255.82,-20 255.82,0 311.57,0 311.57,-20"/>
<text xml:space="preserve" text-anchor="middle" x="283.7" y="-6.5" font-family="Helvetica,sans-Serif" font-size="10.00">main.cpp</text>
</a>
</g>
</g>
<!-- Node2&#45;&gt;Node6 -->
<g id="edge8_Node000002_Node000006" class="edge">
<title>Node2&#45;&gt;Node6</title>
<g id="a_edge8_Node000002_Node000006"><a xlink:title=" ">
<path fill="none" stroke="#63b8ff" d="M291.27,-101.01C295.23,-88.2 298.85,-71.2 296.7,-56 294.92,-43.44 290.48,-29.48 287.28,-20.49"/>
<polygon fill="#63b8ff" stroke="#63b8ff" points="287.99,-99.77 288.04,-110.37 294.61,-102.06 287.99,-99.77"/>
</a>
</g>
</g>
<!-- Node2&#45;&gt;Node7 -->
<g id="edge6_Node000002_Node000007" class="edge">
<title>Node2&#45;&gt;Node7</title>
<g id="a_edge6_Node000002_Node000007"><a xlink:title=" ">
<path fill="none" stroke="#63b8ff" d="M313,-106.61C332.44,-97.07 357.41,-84.81 374.39,-76.48"/>
<polygon fill="#63b8ff" stroke="#63b8ff" points="311.65,-103.38 304.22,-110.93 314.73,-109.66 311.65,-103.38"/>
</a>
</g>
</g>
<!-- Node8 -->
<g id="Node000008" class="node">
<title>Node8</title>
<g id="a_Node000008"><a xlink:href="Skybox_8cpp.html" target="_top" xlink:title=" ">
<polygon fill="white" stroke="#666666" points="81.57,-76 13.82,-76 13.82,-56 81.57,-56 81.57,-76"/>
<text xml:space="preserve" text-anchor="middle" x="47.7" y="-62.5" font-family="Helvetica,sans-Serif" font-size="10.00">Skybox.cpp</text>
</a>
</g>
</g>
<!-- Node2&#45;&gt;Node8 -->
<g id="edge7_Node000002_Node000008" class="edge">
<title>Node2&#45;&gt;Node8</title>
<g id="a_edge7_Node000002_Node000008"><a xlink:title=" ">
<path fill="none" stroke="#63b8ff" d="M243.33,-111.76C197.77,-101.34 124.44,-84.56 81.69,-74.78"/>
<polygon fill="#63b8ff" stroke="#63b8ff" points="242.28,-115.11 252.81,-113.93 243.84,-108.29 242.28,-115.11"/>
</a>
</g>
</g>
<!-- Node5 -->
<g id="Node000005" class="node">
<title>Node5</title>
<g id="a_Node000005"><a xlink:href="CameraController_8cpp.html" target="_top" xlink:title=" ">
<polygon fill="white" stroke="#666666" points="205.32,-20 94.07,-20 94.07,0 205.32,0 205.32,-20"/>
<text xml:space="preserve" text-anchor="middle" x="149.7" y="-6.5" font-family="Helvetica,sans-Serif" font-size="10.00">CameraController.cpp</text>
</a>
</g>
</g>
<!-- Node4&#45;&gt;Node5 -->
<g id="edge4_Node000004_Node000005" class="edge">
<title>Node4&#45;&gt;Node5</title>
<g id="a_edge4_Node000004_Node000005"><a xlink:title=" ">
<path fill="none" stroke="#63b8ff" d="M149.7,-44.13C149.7,-35.9 149.7,-26.85 149.7,-20.3"/>
<polygon fill="#63b8ff" stroke="#63b8ff" points="146.2,-44.08 149.7,-54.08 153.2,-44.08 146.2,-44.08"/>
</a>
</g>
</g>
<!-- Node4&#45;&gt;Node6 -->
<g id="edge5_Node000004_Node000006" class="edge">
<title>Node4&#45;&gt;Node6</title>
<g id="a_edge5_Node000004_Node000006"><a xlink:title=" ">
<path fill="none" stroke="#63b8ff" d="M183.44,-51.4C207.38,-41.75 238.92,-29.05 260.17,-20.48"/>
<polygon fill="#63b8ff" stroke="#63b8ff" points="182.41,-48.04 174.44,-55.03 185.02,-54.54 182.41,-48.04"/>
</a>
</g>
</g>
<!-- Node9&#45;&gt;Node6 -->
<g id="edge15_Node000009_Node000006" class="edge">
<title>Node9&#45;&gt;Node6</title>
<g id="a_edge15_Node000009_Node000006"><a xlink:title=" ">
<path fill="none" stroke="#63b8ff" d="M494.32,-102.31C485.2,-87.6 470.62,-67.69 452.7,-56 408.83,-27.38 347.35,-16.9 311.91,-13.1"/>
<polygon fill="#63b8ff" stroke="#63b8ff" points="491.11,-103.76 499.19,-110.61 497.14,-100.22 491.11,-103.76"/>
</a>
</g>
</g>
<!-- Node9&#45;&gt;Node7 -->
<g id="edge14_Node000009_Node000007" class="edge">
<title>Node9&#45;&gt;Node7</title>
<g id="a_edge14_Node000009_Node000007"><a xlink:title=" ">
<path fill="none" stroke="#63b8ff" d="M475.12,-106.61C455.51,-97.07 430.31,-84.81 413.18,-76.48"/>
<polygon fill="#63b8ff" stroke="#63b8ff" points="473.48,-109.7 484,-110.93 476.54,-103.41 473.48,-109.7"/>
</a>
</g>
</g>
<!-- Node10 -->
<g id="Node000010" class="node">
<title>Node10</title>
<g id="a_Node000010"><a xlink:href="GameObject_8cpp.html" target="_top" xlink:title=" ">
<polygon fill="white" stroke="#666666" points="914.45,-76 824.95,-76 824.95,-56 914.45,-56 914.45,-76"/>
<text xml:space="preserve" text-anchor="middle" x="869.7" y="-62.5" font-family="Helvetica,sans-Serif" font-size="10.00">GameObject.cpp</text>
</a>
</g>
</g>
<!-- Node9&#45;&gt;Node10 -->
<g id="edge10_Node000009_Node000010" class="edge">
<title>Node9&#45;&gt;Node10</title>
<g id="a_edge10_Node000009_Node000010"><a xlink:title=" ">
<path fill="none" stroke="#63b8ff" d="M555.55,-111.6C671.05,-93.14 702.58,-93.16 815.7,-76 818.61,-75.56 821.61,-75.09 824.63,-74.61"/>
<polygon fill="#63b8ff" stroke="#63b8ff" points="555.29,-108.1 545.98,-113.14 556.41,-115.01 555.29,-108.1"/>
</a>
</g>
</g>
<!-- Node11 -->
<g id="Node000011" class="node">
<title>Node11</title>
<g id="a_Node000011"><a xlink:href="Hierarchy_8cpp.html" target="_top" xlink:title=" ">
<polygon fill="white" stroke="#666666" points="575.7,-76 499.7,-76 499.7,-56 575.7,-56 575.7,-76"/>
<text xml:space="preserve" text-anchor="middle" x="537.7" y="-62.5" font-family="Helvetica,sans-Serif" font-size="10.00">Hierarchy.cpp</text>
</a>
</g>
</g>
<!-- Node9&#45;&gt;Node11 -->
<g id="edge11_Node000009_Node000011" class="edge">
<title>Node9&#45;&gt;Node11</title>
<g id="a_edge11_Node000009_Node000011"><a xlink:title=" ">
<path fill="none" stroke="#63b8ff" d="M516.39,-101.87C521.69,-93.19 527.73,-83.32 532.01,-76.3"/>
<polygon fill="#63b8ff" stroke="#63b8ff" points="513.46,-99.94 511.23,-110.3 519.44,-103.59 513.46,-99.94"/>
</a>
</g>
</g>
<!-- Node12 -->
<g id="Node000012" class="node">
<title>Node12</title>
<g id="a_Node000012"><a xlink:href="Inspector_8cpp.html" target="_top" xlink:title=" ">
<polygon fill="white" stroke="#666666" points="669.32,-76 594.07,-76 594.07,-56 669.32,-56 669.32,-76"/>
<text xml:space="preserve" text-anchor="middle" x="631.7" y="-62.5" font-family="Helvetica,sans-Serif" font-size="10.00">Inspector.cpp</text>
</a>
</g>
</g>
<!-- Node9&#45;&gt;Node12 -->
<g id="edge12_Node000009_Node000012" class="edge">
<title>Node9&#45;&gt;Node12</title>
<g id="a_edge12_Node000009_Node000012"><a xlink:title=" ">
<path fill="none" stroke="#63b8ff" d="M537.29,-107.14C559.91,-97.52 589.44,-84.97 609.4,-76.48"/>
<polygon fill="#63b8ff" stroke="#63b8ff" points="536.04,-103.87 528.21,-111 538.78,-110.31 536.04,-103.87"/>
</a>
</g>
</g>
<!-- Node13 -->
<g id="Node000013" class="node">
<title>Node13</title>
<g id="a_Node000013"><a xlink:href="MaterialComponent_8cpp.html" target="_top" xlink:title=" ">
<polygon fill="white" stroke="#666666" points="806.45,-76 686.95,-76 686.95,-56 806.45,-56 806.45,-76"/>
<text xml:space="preserve" text-anchor="middle" x="746.7" y="-62.5" font-family="Helvetica,sans-Serif" font-size="10.00">MaterialComponent.cpp</text>
</a>
</g>
</g>
<!-- Node9&#45;&gt;Node13 -->
<g id="edge13_Node000009_Node000013" class="edge">
<title>Node9&#45;&gt;Node13</title>
<g id="a_edge13_Node000009_Node000013"><a xlink:title=" ">
<path fill="none" stroke="#63b8ff" d="M555.72,-109.61C599.82,-99.77 662.83,-85.71 704.23,-76.48"/>
<polygon fill="#63b8ff" stroke="#63b8ff" points="555.13,-106.16 546.14,-111.75 556.66,-112.99 555.13,-106.16"/>
</a>
</g>
</g>
<!-- Node15&#45;&gt;Node6 -->
<g id="edge20_Node000015_Node000006" class="edge">
<title>Node15&#45;&gt;Node6</title>
<g id="a_edge20_Node000015_Node000006"><a xlink:title=" ">
<path fill="none" stroke="#63b8ff" d="M24.98,-104.79C8.6,-91.16 -8.48,-71.47 4.7,-56 8.77,-51.21 185.23,-25.24 255.37,-15.08"/>
<polygon fill="#63b8ff" stroke="#63b8ff" points="22.57,-107.36 32.61,-110.75 26.88,-101.84 22.57,-107.36"/>
</a>
</g>
</g>
<!-- Node15&#45;&gt;Node8 -->
<g id="edge19_Node000015_Node000008" class="edge">
<title>Node15&#45;&gt;Node8</title>
<g id="a_edge19_Node000015_Node000008"><a xlink:title=" ">
<path fill="none" stroke="#63b8ff" d="M47.7,-100.13C47.7,-91.9 47.7,-82.85 47.7,-76.3"/>
<polygon fill="#63b8ff" stroke="#63b8ff" points="44.2,-100.08 47.7,-110.08 51.2,-100.08 44.2,-100.08"/>
</a>
</g>
</g>
</g>
</svg>
