<?xml version="1.0" encoding="UTF-8" standalone="no"?>
<!DOCTYPE svg PUBLIC "-//W3C//DTD SVG 1.1//EN"
 "http://www.w3.org/Graphics/SVG/1.1/DTD/svg11.dtd">
<!-- Generated by graphviz version 14.0.2 (20251019.1705)
 -->
<!-- Title: MetaDB.cpp Pages: 1 -->
<svg width="1167pt" height="196pt"
 viewBox="0.00 0.00 1167.00 196.00" xmlns="http://www.w3.org/2000/svg" xmlns:xlink="http://www.w3.org/1999/xlink">
<g id="graph0" class="graph" transform="scale(1 1) rotate(0) translate(4 192)">
<title>MetaDB.cpp</title>
<!-- Node1 -->
<g id="Node000001" class="node">
<title>Node1</title>
<g id="a_Node000001"><a xlink:title=" ">
<polygon fill="#999999" stroke="#666666" points="789.25,-188 718.5,-188 718.5,-168 789.25,-168 789.25,-188"/>
<text xml:space="preserve" text-anchor="middle" x="753.88" y="-174.5" font-family="Helvetica,sans-Serif" font-size="10.00">MetaDB.cpp</text>
</a>
</g>
</g>
<!-- Node2 -->
<g id="Node000002" class="node">
<title>Node2</title>
<g id="a_Node000002"><a xlink:href="MetaDB_8h.html" target="_top" xlink:title=" ">
<polygon fill="white" stroke="#666666" points="137.88,-76 43.87,-76 43.87,-56 137.88,-56 137.88,-76"/>
<text xml:space="preserve" text-anchor="middle" x="90.88" y="-62.5" font-family="Helvetica,sans-Serif" font-size="10.00">LGE/fs/MetaDB.h</text>
</a>
</g>
</g>
<!-- Node1&#45;&gt;Node2 -->
<g id="edge1_Node000001_Node000002" class="edge">
<title>Node1&#45;&gt;Node2</title>
<g id="a_edge1_Node000001_Node000002"><a xlink:title=" ">
<path fill="none" stroke="#63b8ff" d="M718.05,-175.8C613.87,-172.03 312.38,-159.01 217.88,-132 179.32,-120.98 138.75,-97.91 114.12,-82.43"/>
<polygon fill="#63b8ff" stroke="#63b8ff" points="116.18,-79.59 105.87,-77.14 112.4,-85.48 116.18,-79.59"/>
</a>
</g>
</g>
<!-- Node8 -->
<g id="Node000008" class="node">
<title>Node8</title>
<g id="a_Node000008"><a xlink:href="Migration_8h.html" target="_top" xlink:title=" ">
<polygon fill="white" stroke="#666666" points="324.75,-132 227,-132 227,-112 324.75,-112 324.75,-132"/>
<text xml:space="preserve" text-anchor="middle" x="275.88" y="-118.5" font-family="Helvetica,sans-Serif" font-size="10.00">LGE/fs/Migration.h</text>
</a>
</g>
</g>
<!-- Node1&#45;&gt;Node8 -->
<g id="edge7_Node000001_Node000008" class="edge">
<title>Node1&#45;&gt;Node8</title>
<g id="a_edge7_Node000001_Node000008"><a xlink:title=" ">
<path fill="none" stroke="#63b8ff" d="M718.34,-172.99C637.09,-163.81 437,-141.2 336.11,-129.8"/>
<polygon fill="#63b8ff" stroke="#63b8ff" points="336.73,-126.35 326.4,-128.71 335.94,-133.31 336.73,-126.35"/>
</a>
</g>
</g>
<!-- Node12 -->
<g id="Node000012" class="node">
<title>Node12</title>
<g id="a_Node000012"><a xlink:href="FileIO_8h.html" target="_top" xlink:title=" ">
<polygon fill="white" stroke="#666666" points="632,-76 547.75,-76 547.75,-56 632,-56 632,-76"/>
<text xml:space="preserve" text-anchor="middle" x="589.88" y="-62.5" font-family="Helvetica,sans-Serif" font-size="10.00">LGE/fs/FileIO.h</text>
</a>
</g>
</g>
<!-- Node1&#45;&gt;Node12 -->
<g id="edge16_Node000001_Node000012" class="edge">
<title>Node1&#45;&gt;Node12</title>
<g id="a_edge16_Node000001_Node000012"><a xlink:title=" ">
<path fill="none" stroke="#63b8ff" d="M718.1,-172.64C673.21,-166.35 600.12,-153.11 583.88,-132 574.05,-119.23 576.99,-100.59 581.54,-86.55"/>
<polygon fill="#63b8ff" stroke="#63b8ff" points="584.71,-88.06 584.97,-77.47 578.16,-85.59 584.71,-88.06"/>
</a>
</g>
</g>
<!-- Node13 -->
<g id="Node000013" class="node">
<title>Node13</title>
<g id="a_Node000013"><a xlink:href="Path_8h.html" target="_top" xlink:title=" ">
<polygon fill="white" stroke="#666666" points="492,-76 413.75,-76 413.75,-56 492,-56 492,-76"/>
<text xml:space="preserve" text-anchor="middle" x="452.88" y="-62.5" font-family="Helvetica,sans-Serif" font-size="10.00">LGE/fs/Path.h</text>
</a>
</g>
</g>
<!-- Node1&#45;&gt;Node13 -->
<g id="edge19_Node000001_Node000013" class="edge">
<title>Node1&#45;&gt;Node13</title>
<g id="a_edge19_Node000001_Node000013"><a xlink:title=" ">
<path fill="none" stroke="#63b8ff" d="M718.24,-170.8C681.33,-163.76 622.4,-150.76 573.88,-132 538.81,-118.44 501.04,-96.93 477.2,-82.4"/>
<polygon fill="#63b8ff" stroke="#63b8ff" points="479.21,-79.53 468.87,-77.26 475.54,-85.49 479.21,-79.53"/>
</a>
</g>
</g>
<!-- Node14 -->
<g id="Node000014" class="node">
<title>Node14</title>
<g id="a_Node000014"><a xlink:href="Log_8h.html" target="_top" xlink:title=" ">
<polygon fill="white" stroke="#666666" points="677,-132 592.75,-132 592.75,-112 677,-112 677,-132"/>
<text xml:space="preserve" text-anchor="middle" x="634.88" y="-118.5" font-family="Helvetica,sans-Serif" font-size="10.00">LGE/core/Log.h</text>
</a>
</g>
</g>
<!-- Node1&#45;&gt;Node14 -->
<g id="edge22_Node000001_Node000014" class="edge">
<title>Node1&#45;&gt;Node14</title>
<g id="a_edge22_Node000001_Node000014"><a xlink:title=" ">
<path fill="none" stroke="#63b8ff" d="M733.15,-167.59C714.66,-159.21 687.33,-146.8 666.18,-137.21"/>
<polygon fill="#63b8ff" stroke="#63b8ff" points="667.7,-134.05 657.14,-133.1 664.8,-140.42 667.7,-134.05"/>
</a>
</g>
</g>
<!-- Node16 -->
<g id="Node000016" class="node">
<title>Node16</title>
<g id="a_Node000016"><a xlink:title=" ">
<polygon fill="#e0e0e0" stroke="#999999" points="744.38,-132 695.38,-132 695.38,-112 744.38,-112 744.38,-132"/>
<text xml:space="preserve" text-anchor="middle" x="719.88" y="-118.5" font-family="Helvetica,sans-Serif" font-size="10.00">fstream</text>
</a>
</g>
</g>
<!-- Node1&#45;&gt;Node16 -->
<g id="edge25_Node000001_Node000016" class="edge">
<title>Node1&#45;&gt;Node16</title>
<g id="a_edge25_Node000001_Node000016"><a xlink:title=" ">
<path fill="none" stroke="#63b8ff" d="M747.95,-167.59C743.52,-160.55 737.3,-150.67 731.84,-142"/>
<polygon fill="#63b8ff" stroke="#63b8ff" points="734.83,-140.18 726.54,-133.58 728.9,-143.91 734.83,-140.18"/>
</a>
</g>
</g>
<!-- Node17 -->
<g id="Node000017" class="node">
<title>Node17</title>
<g id="a_Node000017"><a xlink:title=" ">
<polygon fill="#e0e0e0" stroke="#999999" points="813.5,-132 762.25,-132 762.25,-112 813.5,-112 813.5,-132"/>
<text xml:space="preserve" text-anchor="middle" x="787.88" y="-118.5" font-family="Helvetica,sans-Serif" font-size="10.00">sstream</text>
</a>
</g>
</g>
<!-- Node1&#45;&gt;Node17 -->
<g id="edge26_Node000001_Node000017" class="edge">
<title>Node1&#45;&gt;Node17</title>
<g id="a_edge26_Node000001_Node000017"><a xlink:title=" ">
<path fill="none" stroke="#63b8ff" d="M759.8,-167.59C764.23,-160.55 770.45,-150.67 775.91,-142"/>
<polygon fill="#63b8ff" stroke="#63b8ff" points="778.85,-143.91 781.21,-133.58 772.92,-140.18 778.85,-143.91"/>
</a>
</g>
</g>
<!-- Node18 -->
<g id="Node000018" class="node">
<title>Node18</title>
<g id="a_Node000018"><a xlink:title=" ">
<polygon fill="#e0e0e0" stroke="#999999" points="881.75,-132 832,-132 832,-112 881.75,-112 881.75,-132"/>
<text xml:space="preserve" text-anchor="middle" x="856.88" y="-118.5" font-family="Helvetica,sans-Serif" font-size="10.00">iomanip</text>
</a>
</g>
</g>
<!-- Node1&#45;&gt;Node18 -->
<g id="edge27_Node000001_Node000018" class="edge">
<title>Node1&#45;&gt;Node18</title>
<g id="a_edge27_Node000001_Node000018"><a xlink:title=" ">
<path fill="none" stroke="#63b8ff" d="M771.82,-167.59C787.52,-159.36 810.61,-147.26 828.76,-137.74"/>
<polygon fill="#63b8ff" stroke="#63b8ff" points="830.22,-140.93 837.45,-133.18 826.97,-134.73 830.22,-140.93"/>
</a>
</g>
</g>
<!-- Node19 -->
<g id="Node000019" class="node">
<title>Node19</title>
<g id="a_Node000019"><a xlink:title=" ">
<polygon fill="#e0e0e0" stroke="#999999" points="939.88,-132 899.88,-132 899.88,-112 939.88,-112 939.88,-132"/>
<text xml:space="preserve" text-anchor="middle" x="919.88" y="-118.5" font-family="Helvetica,sans-Serif" font-size="10.00">ctime</text>
</a>
</g>
</g>
<!-- Node1&#45;&gt;Node19 -->
<g id="edge28_Node000001_Node000019" class="edge">
<title>Node1&#45;&gt;Node19</title>
<g id="a_edge28_Node000001_Node000019"><a xlink:title=" ">
<path fill="none" stroke="#63b8ff" d="M782.79,-167.59C812.44,-157.95 858.41,-143 888.82,-133.1"/>
<polygon fill="#63b8ff" stroke="#63b8ff" points="889.78,-136.47 898.21,-130.05 887.61,-129.81 889.78,-136.47"/>
</a>
</g>
</g>
<!-- Node20 -->
<g id="Node000020" class="node">
<title>Node20</title>
<g id="a_Node000020"><a xlink:title=" ">
<polygon fill="#e0e0e0" stroke="#999999" points="1013.75,-132 958,-132 958,-112 1013.75,-112 1013.75,-132"/>
<text xml:space="preserve" text-anchor="middle" x="985.88" y="-118.5" font-family="Helvetica,sans-Serif" font-size="10.00">algorithm</text>
</a>
</g>
</g>
<!-- Node1&#45;&gt;Node20 -->
<g id="edge29_Node000001_Node000020" class="edge">
<title>Node1&#45;&gt;Node20</title>
<g id="a_edge29_Node000001_Node000020"><a xlink:title=" ">
<path fill="none" stroke="#63b8ff" d="M789.49,-168.91C826.39,-160.51 886.02,-146.84 946.67,-132.5"/>
<polygon fill="#63b8ff" stroke="#63b8ff" points="947.2,-135.97 956.13,-130.26 945.59,-129.16 947.2,-135.97"/>
</a>
</g>
</g>
<!-- Node21 -->
<g id="Node000021" class="node">
<title>Node21</title>
<g id="a_Node000021"><a xlink:title=" ">
<polygon fill="#e0e0e0" stroke="#999999" points="1077.5,-132 1032.25,-132 1032.25,-112 1077.5,-112 1077.5,-132"/>
<text xml:space="preserve" text-anchor="middle" x="1054.88" y="-118.5" font-family="Helvetica,sans-Serif" font-size="10.00">chrono</text>
</a>
</g>
</g>
<!-- Node1&#45;&gt;Node21 -->
<g id="edge30_Node000001_Node000021" class="edge">
<title>Node1&#45;&gt;Node21</title>
<g id="a_edge30_Node000001_Node000021"><a xlink:title=" ">
<path fill="none" stroke="#63b8ff" d="M789.36,-172.31C838.98,-165.49 932.09,-151.71 1020.8,-132.25"/>
<polygon fill="#63b8ff" stroke="#63b8ff" points="1021.4,-135.71 1030.4,-130.12 1019.88,-128.87 1021.4,-135.71"/>
</a>
</g>
</g>
<!-- Node22 -->
<g id="Node000022" class="node">
<title>Node22</title>
<g id="a_Node000022"><a xlink:title=" ">
<polygon fill="#e0e0e0" stroke="#999999" points="1158.5,-132 1095.25,-132 1095.25,-112 1158.5,-112 1158.5,-132"/>
<text xml:space="preserve" text-anchor="middle" x="1126.88" y="-118.5" font-family="Helvetica,sans-Serif" font-size="10.00">uuid/uuid.h</text>
</a>
</g>
</g>
<!-- Node1&#45;&gt;Node22 -->
<g id="edge31_Node000001_Node000022" class="edge">
<title>Node1&#45;&gt;Node22</title>
<g id="a_edge31_Node000001_Node000022"><a xlink:title=" ">
<path fill="none" stroke="#63b8ff" d="M789.52,-173.21C848.66,-166.71 971,-152.32 1083.81,-132.43"/>
<polygon fill="#63b8ff" stroke="#63b8ff" points="1084.33,-135.89 1093.56,-130.69 1083.1,-129 1084.33,-135.89"/>
</a>
</g>
</g>
<!-- Node3 -->
<g id="Node000003" class="node">
<title>Node3</title>
<g id="a_Node000003"><a xlink:title=" ">
<polygon fill="#e0e0e0" stroke="#999999" points="505.88,-20 465.88,-20 465.88,0 505.88,0 505.88,-20"/>
<text xml:space="preserve" text-anchor="middle" x="485.88" y="-6.5" font-family="Helvetica,sans-Serif" font-size="10.00">string</text>
</a>
</g>
</g>
<!-- Node2&#45;&gt;Node3 -->
<g id="edge2_Node000002_Node000003" class="edge">
<title>Node2&#45;&gt;Node3</title>
<g id="a_edge2_Node000002_Node000003"><a xlink:title=" ">
<path fill="none" stroke="#63b8ff" d="M138.13,-58.54C219.82,-47.37 385.32,-24.75 454.43,-15.3"/>
<polygon fill="#63b8ff" stroke="#63b8ff" points="454.49,-18.82 463.93,-14 453.55,-11.89 454.49,-18.82"/>
</a>
</g>
</g>
<!-- Node4 -->
<g id="Node000004" class="node">
<title>Node4</title>
<g id="a_Node000004"><a xlink:title=" ">
<polygon fill="#e0e0e0" stroke="#999999" points="257.62,-20 192.12,-20 192.12,0 257.62,0 257.62,-20"/>
<text xml:space="preserve" text-anchor="middle" x="224.88" y="-6.5" font-family="Helvetica,sans-Serif" font-size="10.00">string_view</text>
</a>
</g>
</g>
<!-- Node2&#45;&gt;Node4 -->
<g id="edge3_Node000002_Node000004" class="edge">
<title>Node2&#45;&gt;Node4</title>
<g id="a_edge3_Node000002_Node000004"><a xlink:title=" ">
<path fill="none" stroke="#63b8ff" d="M114.22,-55.59C135.41,-47.05 166.94,-34.35 190.93,-24.68"/>
<polygon fill="#63b8ff" stroke="#63b8ff" points="191.98,-28.03 199.95,-21.05 189.36,-21.54 191.98,-28.03"/>
</a>
</g>
</g>
<!-- Node5 -->
<g id="Node000005" class="node">
<title>Node5</title>
<g id="a_Node000005"><a xlink:title=" ">
<polygon fill="#e0e0e0" stroke="#999999" points="174.38,-20 131.38,-20 131.38,0 174.38,0 174.38,-20"/>
<text xml:space="preserve" text-anchor="middle" x="152.88" y="-6.5" font-family="Helvetica,sans-Serif" font-size="10.00">vector</text>
</a>
</g>
</g>
<!-- Node2&#45;&gt;Node5 -->
<g id="edge4_Node000002_Node000005" class="edge">
<title>Node2&#45;&gt;Node5</title>
<g id="a_edge4_Node000002_Node000005"><a xlink:title=" ">
<path fill="none" stroke="#63b8ff" d="M101.67,-55.59C110.48,-47.93 123.13,-36.91 133.65,-27.75"/>
<polygon fill="#63b8ff" stroke="#63b8ff" points="135.82,-30.5 141.06,-21.29 131.22,-25.22 135.82,-30.5"/>
</a>
</g>
</g>
<!-- Node6 -->
<g id="Node000006" class="node">
<title>Node6</title>
<g id="a_Node000006"><a xlink:title=" ">
<polygon fill="#e0e0e0" stroke="#999999" points="49.75,-20 0,-20 0,0 49.75,0 49.75,-20"/>
<text xml:space="preserve" text-anchor="middle" x="24.88" y="-6.5" font-family="Helvetica,sans-Serif" font-size="10.00">optional</text>
</a>
</g>
</g>
<!-- Node2&#45;&gt;Node6 -->
<g id="edge5_Node000002_Node000006" class="edge">
<title>Node2&#45;&gt;Node6</title>
<g id="a_edge5_Node000002_Node000006"><a xlink:title=" ">
<path fill="none" stroke="#63b8ff" d="M79.38,-55.59C69.91,-47.85 56.27,-36.69 45,-27.47"/>
<polygon fill="#63b8ff" stroke="#63b8ff" points="47.37,-24.88 37.41,-21.26 42.93,-30.3 47.37,-24.88"/>
</a>
</g>
</g>
<!-- Node7 -->
<g id="Node000007" class="node">
<title>Node7</title>
<g id="a_Node000007"><a xlink:title=" ">
<polygon fill="#e0e0e0" stroke="#999999" points="113.5,-20 68.25,-20 68.25,0 113.5,0 113.5,-20"/>
<text xml:space="preserve" text-anchor="middle" x="90.88" y="-6.5" font-family="Helvetica,sans-Serif" font-size="10.00">cstdint</text>
</a>
</g>
</g>
<!-- Node2&#45;&gt;Node7 -->
<g id="edge6_Node000002_Node000007" class="edge">
<title>Node2&#45;&gt;Node7</title>
<g id="a_edge6_Node000002_Node000007"><a xlink:title=" ">
<path fill="none" stroke="#63b8ff" d="M90.88,-55.59C90.88,-49.01 90.88,-39.96 90.88,-31.73"/>
<polygon fill="#63b8ff" stroke="#63b8ff" points="94.38,-31.81 90.88,-21.81 87.38,-31.81 94.38,-31.81"/>
</a>
</g>
</g>
<!-- Node8&#45;&gt;Node2 -->
<g id="edge8_Node000008_Node000002" class="edge">
<title>Node8&#45;&gt;Node2</title>
<g id="a_edge8_Node000008_Node000002"><a xlink:title=" ">
<path fill="none" stroke="#63b8ff" d="M243.65,-111.59C213.33,-102.74 167.7,-89.43 134.21,-79.65"/>
<polygon fill="#63b8ff" stroke="#63b8ff" points="135.38,-76.35 124.8,-76.9 133.42,-83.07 135.38,-76.35"/>
</a>
</g>
</g>
<!-- Node8&#45;&gt;Node3 -->
<g id="edge12_Node000008_Node000003" class="edge">
<title>Node8&#45;&gt;Node3</title>
<g id="a_edge12_Node000008_Node000003"><a xlink:title=" ">
<path fill="none" stroke="#63b8ff" d="M325.12,-118.24C384.51,-113.77 479.09,-102.57 500.88,-76 511.52,-63.01 505.29,-43.88 497.89,-29.73"/>
<polygon fill="#63b8ff" stroke="#63b8ff" points="501.08,-28.25 493.02,-21.38 495.03,-31.78 501.08,-28.25"/>
</a>
</g>
</g>
<!-- Node8&#45;&gt;Node4 -->
<g id="edge13_Node000008_Node000004" class="edge">
<title>Node8&#45;&gt;Node4</title>
<g id="a_edge13_Node000008_Node000004"><a xlink:title=" ">
<path fill="none" stroke="#63b8ff" d="M258.25,-111.59C245.81,-103.87 230.12,-91.66 222.88,-76 216.48,-62.18 217.38,-44.88 219.66,-31.6"/>
<polygon fill="#63b8ff" stroke="#63b8ff" points="223.08,-32.34 221.76,-21.83 216.24,-30.87 223.08,-32.34"/>
</a>
</g>
</g>
<!-- Node8&#45;&gt;Node5 -->
<g id="edge15_Node000008_Node000005" class="edge">
<title>Node8&#45;&gt;Node5</title>
<g id="a_edge15_Node000008_Node000005"><a xlink:title=" ">
<path fill="none" stroke="#63b8ff" d="M261.26,-111.54C248.3,-102.9 229.14,-89.46 213.88,-76 197.08,-61.2 179.8,-42.38 167.93,-28.8"/>
<polygon fill="#63b8ff" stroke="#63b8ff" points="170.82,-26.79 161.65,-21.5 165.52,-31.36 170.82,-26.79"/>
</a>
</g>
</g>
<!-- Node9 -->
<g id="Node000009" class="node">
<title>Node9</title>
<g id="a_Node000009"><a xlink:href="Project_8h.html" target="_top" xlink:title=" ">
<polygon fill="white" stroke="#666666" points="320.25,-76 231.5,-76 231.5,-56 320.25,-56 320.25,-76"/>
<text xml:space="preserve" text-anchor="middle" x="275.88" y="-62.5" font-family="Helvetica,sans-Serif" font-size="10.00">LGE/fs/Project.h</text>
</a>
</g>
</g>
<!-- Node8&#45;&gt;Node9 -->
<g id="edge9_Node000008_Node000009" class="edge">
<title>Node8&#45;&gt;Node9</title>
<g id="a_edge9_Node000008_Node000009"><a xlink:title=" ">
<path fill="none" stroke="#63b8ff" d="M275.88,-111.59C275.88,-105.01 275.88,-95.96 275.88,-87.73"/>
<polygon fill="#63b8ff" stroke="#63b8ff" points="279.38,-87.81 275.88,-77.81 272.38,-87.81 279.38,-87.81"/>
</a>
</g>
</g>
<!-- Node11 -->
<g id="Node000011" class="node">
<title>Node11</title>
<g id="a_Node000011"><a xlink:title=" ">
<polygon fill="#e0e0e0" stroke="#999999" points="395.88,-76 337.88,-76 337.88,-56 395.88,-56 395.88,-76"/>
<text xml:space="preserve" text-anchor="middle" x="366.88" y="-62.5" font-family="Helvetica,sans-Serif" font-size="10.00">functional</text>
</a>
</g>
</g>
<!-- Node8&#45;&gt;Node11 -->
<g id="edge14_Node000008_Node000011" class="edge">
<title>Node8&#45;&gt;Node11</title>
<g id="a_edge14_Node000008_Node000011"><a xlink:title=" ">
<path fill="none" stroke="#63b8ff" d="M291.73,-111.59C305.34,-103.51 325.24,-91.71 341.14,-82.27"/>
<polygon fill="#63b8ff" stroke="#63b8ff" points="342.78,-85.37 349.6,-77.25 339.21,-79.35 342.78,-85.37"/>
</a>
</g>
</g>
<!-- Node9&#45;&gt;Node3 -->
<g id="edge10_Node000009_Node000003" class="edge">
<title>Node9&#45;&gt;Node3</title>
<g id="a_edge10_Node000009_Node000003"><a xlink:title=" ">
<path fill="none" stroke="#63b8ff" d="M312.45,-55.59C352.71,-45.24 416.73,-28.78 454.69,-19.02"/>
<polygon fill="#63b8ff" stroke="#63b8ff" points="455.31,-22.47 464.12,-16.59 453.56,-15.7 455.31,-22.47"/>
</a>
</g>
</g>
<!-- Node10 -->
<g id="Node000010" class="node">
<title>Node10</title>
<g id="a_Node000010"><a xlink:title=" ">
<polygon fill="#e0e0e0" stroke="#999999" points="336.38,-20 275.38,-20 275.38,0 336.38,0 336.38,-20"/>
<text xml:space="preserve" text-anchor="middle" x="305.88" y="-6.5" font-family="Helvetica,sans-Serif" font-size="10.00">filesystem</text>
</a>
</g>
</g>
<!-- Node9&#45;&gt;Node10 -->
<g id="edge11_Node000009_Node000010" class="edge">
<title>Node9&#45;&gt;Node10</title>
<g id="a_edge11_Node000009_Node000010"><a xlink:title=" ">
<path fill="none" stroke="#63b8ff" d="M281.1,-55.59C284.97,-48.63 290.38,-38.89 295.16,-30.29"/>
<polygon fill="#63b8ff" stroke="#63b8ff" points="298.18,-32.06 299.97,-21.62 292.06,-28.66 298.18,-32.06"/>
</a>
</g>
</g>
<!-- Node12&#45;&gt;Node3 -->
<g id="edge17_Node000012_Node000003" class="edge">
<title>Node12&#45;&gt;Node3</title>
<g id="a_edge17_Node000012_Node000003"><a xlink:title=" ">
<path fill="none" stroke="#63b8ff" d="M571.76,-55.59C555.9,-47.36 532.59,-35.26 514.26,-25.74"/>
<polygon fill="#63b8ff" stroke="#63b8ff" points="515.96,-22.68 505.48,-21.18 512.74,-28.89 515.96,-22.68"/>
</a>
</g>
</g>
<!-- Node12&#45;&gt;Node4 -->
<g id="edge18_Node000012_Node000004" class="edge">
<title>Node12&#45;&gt;Node4</title>
<g id="a_edge18_Node000012_Node000004"><a xlink:title=" ">
<path fill="none" stroke="#63b8ff" d="M547.25,-60.16C487.26,-53.1 374.28,-38.96 269.09,-20.47"/>
<polygon fill="#63b8ff" stroke="#63b8ff" points="269.9,-17.06 259.44,-18.76 268.67,-23.95 269.9,-17.06"/>
</a>
</g>
</g>
<!-- Node13&#45;&gt;Node3 -->
<g id="edge20_Node000013_Node000003" class="edge">
<title>Node13&#45;&gt;Node3</title>
<g id="a_edge20_Node000013_Node000003"><a xlink:title=" ">
<path fill="none" stroke="#63b8ff" d="M458.62,-55.59C462.93,-48.55 468.97,-38.67 474.26,-30"/>
<polygon fill="#63b8ff" stroke="#63b8ff" points="477.18,-31.95 479.4,-21.59 471.2,-28.3 477.18,-31.95"/>
</a>
</g>
</g>
<!-- Node13&#45;&gt;Node4 -->
<g id="edge21_Node000013_Node000004" class="edge">
<title>Node13&#45;&gt;Node4</title>
<g id="a_edge21_Node000013_Node000004"><a xlink:title=" ">
<path fill="none" stroke="#63b8ff" d="M413.42,-55.66C373.14,-46.12 310.75,-31.34 268.9,-21.43"/>
<polygon fill="#63b8ff" stroke="#63b8ff" points="269.94,-18.08 259.41,-19.18 268.33,-24.89 269.94,-18.08"/>
</a>
</g>
</g>
<!-- Node14&#45;&gt;Node3 -->
<g id="edge24_Node000014_Node000003" class="edge">
<title>Node14&#45;&gt;Node3</title>
<g id="a_edge24_Node000014_Node000003"><a xlink:title=" ">
<path fill="none" stroke="#63b8ff" d="M639.39,-111.53C645.18,-97.82 653.12,-72.31 640.88,-56 626.06,-36.27 558.27,-22.39 517.41,-15.65"/>
<polygon fill="#63b8ff" stroke="#63b8ff" points="518.09,-12.21 507.66,-14.1 516.99,-19.13 518.09,-12.21"/>
</a>
</g>
</g>
<!-- Node15 -->
<g id="Node000015" class="node">
<title>Node15</title>
<g id="a_Node000015"><a xlink:title=" ">
<polygon fill="#e0e0e0" stroke="#999999" points="741.62,-76 688.12,-76 688.12,-56 741.62,-56 741.62,-76"/>
<text xml:space="preserve" text-anchor="middle" x="714.88" y="-62.5" font-family="Helvetica,sans-Serif" font-size="10.00">iostream</text>
</a>
</g>
</g>
<!-- Node14&#45;&gt;Node15 -->
<g id="edge23_Node000014_Node000015" class="edge">
<title>Node14&#45;&gt;Node15</title>
<g id="a_edge23_Node000014_Node000015"><a xlink:title=" ">
<path fill="none" stroke="#63b8ff" d="M648.81,-111.59C660.55,-103.67 677.61,-92.16 691.44,-82.82"/>
<polygon fill="#63b8ff" stroke="#63b8ff" points="693.25,-85.82 699.58,-77.33 689.33,-80.02 693.25,-85.82"/>
</a>
</g>
</g>
</g>
</svg>
