<?xml version="1.0" encoding="UTF-8" standalone="no"?>
<!DOCTYPE svg PUBLIC "-//W3C//DTD SVG 1.1//EN"
 "http://www.w3.org/Graphics/SVG/1.1/DTD/svg11.dtd">
<!-- Generated by graphviz version 14.0.2 (20251019.1705)
 -->
<!-- Title: Migration.cpp Pages: 1 -->
<svg width="1030pt" height="196pt"
 viewBox="0.00 0.00 1030.00 196.00" xmlns="http://www.w3.org/2000/svg" xmlns:xlink="http://www.w3.org/1999/xlink">
<g id="graph0" class="graph" transform="scale(1 1) rotate(0) translate(4 192)">
<title>Migration.cpp</title>
<!-- Node1 -->
<g id="Node000001" class="node">
<title>Node1</title>
<g id="a_Node000001"><a xlink:title=" ">
<polygon fill="#999999" stroke="#666666" points="530.64,-188 456.14,-188 456.14,-168 530.64,-168 530.64,-188"/>
<text xml:space="preserve" text-anchor="middle" x="493.39" y="-174.5" font-family="Helvetica,sans-Serif" font-size="10.00">Migration.cpp</text>
</a>
</g>
</g>
<!-- Node2 -->
<g id="Node000002" class="node">
<title>Node2</title>
<g id="a_Node000002"><a xlink:href="Migration_8h.html" target="_top" xlink:title=" ">
<polygon fill="white" stroke="#666666" points="454.27,-132 356.52,-132 356.52,-112 454.27,-112 454.27,-132"/>
<text xml:space="preserve" text-anchor="middle" x="405.39" y="-118.5" font-family="Helvetica,sans-Serif" font-size="10.00">LGE/fs/Migration.h</text>
</a>
</g>
</g>
<!-- Node1&#45;&gt;Node2 -->
<g id="edge1_Node000001_Node000002" class="edge">
<title>Node1&#45;&gt;Node2</title>
<g id="a_edge1_Node000001_Node000002"><a xlink:title=" ">
<path fill="none" stroke="#63b8ff" d="M478.06,-167.59C464.89,-159.51 445.66,-147.71 430.28,-138.27"/>
<polygon fill="#63b8ff" stroke="#63b8ff" points="432.48,-135.52 422.13,-133.27 428.82,-141.48 432.48,-135.52"/>
</a>
</g>
</g>
<!-- Node3 -->
<g id="Node000003" class="node">
<title>Node3</title>
<g id="a_Node000003"><a xlink:href="MetaDB_8h.html" target="_top" xlink:title=" ">
<polygon fill="white" stroke="#666666" points="641.39,-76 547.39,-76 547.39,-56 641.39,-56 641.39,-76"/>
<text xml:space="preserve" text-anchor="middle" x="594.39" y="-62.5" font-family="Helvetica,sans-Serif" font-size="10.00">LGE/fs/MetaDB.h</text>
</a>
</g>
</g>
<!-- Node1&#45;&gt;Node3 -->
<g id="edge15_Node000001_Node000003" class="edge">
<title>Node1&#45;&gt;Node3</title>
<g id="a_edge15_Node000001_Node000003"><a xlink:title=" ">
<path fill="none" stroke="#63b8ff" d="M502,-167.62C518.85,-149.27 556.41,-108.37 578.09,-84.75"/>
<polygon fill="#63b8ff" stroke="#63b8ff" points="580.59,-87.2 584.78,-77.47 575.44,-82.47 580.59,-87.2"/>
</a>
</g>
</g>
<!-- Node9 -->
<g id="Node000009" class="node">
<title>Node9</title>
<g id="a_Node000009"><a xlink:href="Project_8h.html" target="_top" xlink:title=" ">
<polygon fill="white" stroke="#666666" points="204.77,-76 116.02,-76 116.02,-56 204.77,-56 204.77,-76"/>
<text xml:space="preserve" text-anchor="middle" x="160.39" y="-62.5" font-family="Helvetica,sans-Serif" font-size="10.00">LGE/fs/Project.h</text>
</a>
</g>
</g>
<!-- Node1&#45;&gt;Node9 -->
<g id="edge16_Node000001_Node000009" class="edge">
<title>Node1&#45;&gt;Node9</title>
<g id="a_edge16_Node000001_Node000009"><a xlink:title=" ">
<path fill="none" stroke="#63b8ff" d="M455.67,-169.38C418.9,-161.52 361.65,-148.17 313.39,-132 269.52,-117.3 220.6,-95.52 190.15,-81.29"/>
<polygon fill="#63b8ff" stroke="#63b8ff" points="191.72,-78.16 181.18,-77.07 188.74,-84.5 191.72,-78.16"/>
</a>
</g>
</g>
<!-- Node10 -->
<g id="Node000010" class="node">
<title>Node10</title>
<g id="a_Node000010"><a xlink:title=" ">
<polygon fill="#e0e0e0" stroke="#999999" points="103.89,-20 42.89,-20 42.89,0 103.89,0 103.89,-20"/>
<text xml:space="preserve" text-anchor="middle" x="73.39" y="-6.5" font-family="Helvetica,sans-Serif" font-size="10.00">filesystem</text>
</a>
</g>
</g>
<!-- Node1&#45;&gt;Node10 -->
<g id="edge35_Node000001_Node000010" class="edge">
<title>Node1&#45;&gt;Node10</title>
<g id="a_edge35_Node000001_Node000010"><a xlink:title=" ">
<path fill="none" stroke="#63b8ff" d="M455.82,-175.42C350.78,-170.13 58.28,-148.96 4.39,-76 -10.15,-56.31 15.5,-37.55 39.55,-25.3"/>
<polygon fill="#63b8ff" stroke="#63b8ff" points="40.77,-28.59 48.27,-21.11 37.74,-22.28 40.77,-28.59"/>
</a>
</g>
</g>
<!-- Node12 -->
<g id="Node000012" class="node">
<title>Node12</title>
<g id="a_Node000012"><a xlink:href="Path_8h.html" target="_top" xlink:title=" ">
<polygon fill="white" stroke="#666666" points="301.52,-76 223.27,-76 223.27,-56 301.52,-56 301.52,-76"/>
<text xml:space="preserve" text-anchor="middle" x="262.39" y="-62.5" font-family="Helvetica,sans-Serif" font-size="10.00">LGE/fs/Path.h</text>
</a>
</g>
</g>
<!-- Node1&#45;&gt;Node12 -->
<g id="edge17_Node000001_Node000012" class="edge">
<title>Node1&#45;&gt;Node12</title>
<g id="a_edge17_Node000001_Node000012"><a xlink:title=" ">
<path fill="none" stroke="#63b8ff" d="M455.68,-169.26C425.34,-162.13 382.17,-149.92 347.39,-132 322.03,-118.93 296.51,-98.15 280.15,-83.62"/>
<polygon fill="#63b8ff" stroke="#63b8ff" points="282.94,-81.42 273.18,-77.29 278.23,-86.6 282.94,-81.42"/>
</a>
</g>
</g>
<!-- Node13 -->
<g id="Node000013" class="node">
<title>Node13</title>
<g id="a_Node000013"><a xlink:href="FileIO_8h.html" target="_top" xlink:title=" ">
<polygon fill="white" stroke="#666666" points="97.52,-76 13.27,-76 13.27,-56 97.52,-56 97.52,-76"/>
<text xml:space="preserve" text-anchor="middle" x="55.39" y="-62.5" font-family="Helvetica,sans-Serif" font-size="10.00">LGE/fs/FileIO.h</text>
</a>
</g>
</g>
<!-- Node1&#45;&gt;Node13 -->
<g id="edge20_Node000001_Node000013" class="edge">
<title>Node1&#45;&gt;Node13</title>
<g id="a_edge20_Node000001_Node000013"><a xlink:title=" ">
<path fill="none" stroke="#63b8ff" d="M456.05,-171.28C409.43,-163.81 327.43,-149.59 258.39,-132 199.39,-116.96 132.38,-94.41 92.02,-80.21"/>
<polygon fill="#63b8ff" stroke="#63b8ff" points="93.4,-76.98 82.8,-76.94 91.06,-83.58 93.4,-76.98"/>
</a>
</g>
</g>
<!-- Node14 -->
<g id="Node000014" class="node">
<title>Node14</title>
<g id="a_Node000014"><a xlink:href="AssetRegistry_8h.html" target="_top" xlink:title=" ">
<polygon fill="white" stroke="#666666" points="729.14,-132 609.64,-132 609.64,-112 729.14,-112 729.14,-132"/>
<text xml:space="preserve" text-anchor="middle" x="669.39" y="-118.5" font-family="Helvetica,sans-Serif" font-size="10.00">LGE/fs/AssetRegistry.h</text>
</a>
</g>
</g>
<!-- Node1&#45;&gt;Node14 -->
<g id="edge23_Node000001_Node000014" class="edge">
<title>Node1&#45;&gt;Node14</title>
<g id="a_edge23_Node000001_Node000014"><a xlink:title=" ">
<path fill="none" stroke="#63b8ff" d="M524.05,-167.59C552.77,-158.78 595.92,-145.54 627.75,-135.78"/>
<polygon fill="#63b8ff" stroke="#63b8ff" points="628.52,-139.2 637.05,-132.92 626.46,-132.51 628.52,-139.2"/>
</a>
</g>
</g>
<!-- Node15 -->
<g id="Node000015" class="node">
<title>Node15</title>
<g id="a_Node000015"><a xlink:title=" ">
<polygon fill="#e0e0e0" stroke="#999999" points="893.77,-76 811.02,-76 811.02,-56 893.77,-56 893.77,-76"/>
<text xml:space="preserve" text-anchor="middle" x="852.39" y="-62.5" font-family="Helvetica,sans-Serif" font-size="10.00">unordered_map</text>
</a>
</g>
</g>
<!-- Node1&#45;&gt;Node15 -->
<g id="edge36_Node000001_Node000015" class="edge">
<title>Node1&#45;&gt;Node15</title>
<g id="a_edge36_Node000001_Node000015"><a xlink:title=" ">
<path fill="none" stroke="#63b8ff" d="M530.94,-174.05C579.92,-169.32 667.7,-157.8 738.39,-132 772.36,-119.61 808.02,-97.6 830.22,-82.66"/>
<polygon fill="#63b8ff" stroke="#63b8ff" points="831.91,-85.75 838.17,-77.21 827.95,-79.98 831.91,-85.75"/>
</a>
</g>
</g>
<!-- Node16 -->
<g id="Node000016" class="node">
<title>Node16</title>
<g id="a_Node000016"><a xlink:href="Log_8h.html" target="_top" xlink:title=" ">
<polygon fill="white" stroke="#666666" points="948.52,-132 864.27,-132 864.27,-112 948.52,-112 948.52,-132"/>
<text xml:space="preserve" text-anchor="middle" x="906.39" y="-118.5" font-family="Helvetica,sans-Serif" font-size="10.00">LGE/core/Log.h</text>
</a>
</g>
</g>
<!-- Node1&#45;&gt;Node16 -->
<g id="edge32_Node000001_Node000016" class="edge">
<title>Node1&#45;&gt;Node16</title>
<g id="a_edge32_Node000001_Node000016"><a xlink:title=" ">
<path fill="none" stroke="#63b8ff" d="M531.14,-172.06C604.81,-162.43 767.97,-141.1 852.81,-130.01"/>
<polygon fill="#63b8ff" stroke="#63b8ff" points="853.03,-133.51 862.49,-128.74 852.12,-126.57 853.03,-133.51"/>
</a>
</g>
</g>
<!-- Node18 -->
<g id="Node000018" class="node">
<title>Node18</title>
<g id="a_Node000018"><a xlink:title=" ">
<polygon fill="#e0e0e0" stroke="#999999" points="1022.27,-132 966.52,-132 966.52,-112 1022.27,-112 1022.27,-132"/>
<text xml:space="preserve" text-anchor="middle" x="994.39" y="-118.5" font-family="Helvetica,sans-Serif" font-size="10.00">algorithm</text>
</a>
</g>
</g>
<!-- Node1&#45;&gt;Node18 -->
<g id="edge37_Node000001_Node000018" class="edge">
<title>Node1&#45;&gt;Node18</title>
<g id="a_edge37_Node000001_Node000018"><a xlink:title=" ">
<path fill="none" stroke="#63b8ff" d="M530.92,-175.17C608.38,-171.01 791.71,-159.15 954.97,-132.18"/>
<polygon fill="#63b8ff" stroke="#63b8ff" points="955.42,-135.65 964.7,-130.55 954.26,-128.75 955.42,-135.65"/>
</a>
</g>
</g>
<!-- Node2&#45;&gt;Node3 -->
<g id="edge2_Node000002_Node000003" class="edge">
<title>Node2&#45;&gt;Node3</title>
<g id="a_edge2_Node000002_Node000003"><a xlink:title=" ">
<path fill="none" stroke="#63b8ff" d="M438.31,-111.59C469.42,-102.71 516.31,-89.31 550.57,-79.52"/>
<polygon fill="#63b8ff" stroke="#63b8ff" points="551.1,-83.01 559.76,-76.9 549.18,-76.28 551.1,-83.01"/>
</a>
</g>
</g>
<!-- Node4 -->
<g id="Node000004" class="node">
<title>Node4</title>
<g id="a_Node000004"><a xlink:title=" ">
<polygon fill="#e0e0e0" stroke="#999999" points="403.39,-20 363.39,-20 363.39,0 403.39,0 403.39,-20"/>
<text xml:space="preserve" text-anchor="middle" x="383.39" y="-6.5" font-family="Helvetica,sans-Serif" font-size="10.00">string</text>
</a>
</g>
</g>
<!-- Node2&#45;&gt;Node4 -->
<g id="edge11_Node000002_Node000004" class="edge">
<title>Node2&#45;&gt;Node4</title>
<g id="a_edge11_Node000002_Node000004"><a xlink:title=" ">
<path fill="none" stroke="#63b8ff" d="M402,-111.82C398.81,-102.82 394.11,-88.64 391.39,-76 388.23,-61.33 386.2,-44.5 384.98,-31.65"/>
<polygon fill="#63b8ff" stroke="#63b8ff" points="388.48,-31.52 384.14,-21.85 381.51,-32.11 388.48,-31.52"/>
</a>
</g>
</g>
<!-- Node5 -->
<g id="Node000005" class="node">
<title>Node5</title>
<g id="a_Node000005"><a xlink:title=" ">
<polygon fill="#e0e0e0" stroke="#999999" points="345.14,-20 279.64,-20 279.64,0 345.14,0 345.14,-20"/>
<text xml:space="preserve" text-anchor="middle" x="312.39" y="-6.5" font-family="Helvetica,sans-Serif" font-size="10.00">string_view</text>
</a>
</g>
</g>
<!-- Node2&#45;&gt;Node5 -->
<g id="edge12_Node000002_Node000005" class="edge">
<title>Node2&#45;&gt;Node5</title>
<g id="a_edge12_Node000002_Node000005"><a xlink:title=" ">
<path fill="none" stroke="#63b8ff" d="M397.46,-111.62C382.02,-93.36 347.68,-52.73 327.67,-29.07"/>
<polygon fill="#63b8ff" stroke="#63b8ff" points="330.41,-26.89 321.28,-21.51 325.06,-31.41 330.41,-26.89"/>
</a>
</g>
</g>
<!-- Node6 -->
<g id="Node000006" class="node">
<title>Node6</title>
<g id="a_Node000006"><a xlink:title=" ">
<polygon fill="#e0e0e0" stroke="#999999" points="615.89,-20 572.89,-20 572.89,0 615.89,0 615.89,-20"/>
<text xml:space="preserve" text-anchor="middle" x="594.39" y="-6.5" font-family="Helvetica,sans-Serif" font-size="10.00">vector</text>
</a>
</g>
</g>
<!-- Node2&#45;&gt;Node6 -->
<g id="edge14_Node000002_Node000006" class="edge">
<title>Node2&#45;&gt;Node6</title>
<g id="a_edge14_Node000002_Node000006"><a xlink:title=" ">
<path fill="none" stroke="#63b8ff" d="M405.4,-111.59C405.93,-97.49 409.07,-70.94 424.39,-56 461.18,-20.14 523.07,-11.98 561.15,-10.6"/>
<polygon fill="#63b8ff" stroke="#63b8ff" points="561.18,-14.1 571.11,-10.39 561.04,-7.1 561.18,-14.1"/>
</a>
</g>
</g>
<!-- Node2&#45;&gt;Node9 -->
<g id="edge8_Node000002_Node000009" class="edge">
<title>Node2&#45;&gt;Node9</title>
<g id="a_edge8_Node000002_Node000009"><a xlink:title=" ">
<path fill="none" stroke="#63b8ff" d="M362.44,-111.53C321.28,-102.46 259.02,-88.74 214.5,-78.93"/>
<polygon fill="#63b8ff" stroke="#63b8ff" points="215.3,-75.52 204.78,-76.78 213.79,-82.35 215.3,-75.52"/>
</a>
</g>
</g>
<!-- Node11 -->
<g id="Node000011" class="node">
<title>Node11</title>
<g id="a_Node000011"><a xlink:title=" ">
<polygon fill="#e0e0e0" stroke="#999999" points="491.39,-76 433.39,-76 433.39,-56 491.39,-56 491.39,-76"/>
<text xml:space="preserve" text-anchor="middle" x="462.39" y="-62.5" font-family="Helvetica,sans-Serif" font-size="10.00">functional</text>
</a>
</g>
</g>
<!-- Node2&#45;&gt;Node11 -->
<g id="edge13_Node000002_Node000011" class="edge">
<title>Node2&#45;&gt;Node11</title>
<g id="a_edge13_Node000002_Node000011"><a xlink:title=" ">
<path fill="none" stroke="#63b8ff" d="M415.32,-111.59C423.33,-104.01 434.81,-93.13 444.42,-84.02"/>
<polygon fill="#63b8ff" stroke="#63b8ff" points="446.63,-86.76 451.48,-77.34 441.81,-81.68 446.63,-86.76"/>
</a>
</g>
</g>
<!-- Node3&#45;&gt;Node4 -->
<g id="edge3_Node000003_Node000004" class="edge">
<title>Node3&#45;&gt;Node4</title>
<g id="a_edge3_Node000003_Node000004"><a xlink:title=" ">
<path fill="none" stroke="#63b8ff" d="M557.64,-55.59C517.19,-45.24 452.87,-28.78 414.72,-19.02"/>
<polygon fill="#63b8ff" stroke="#63b8ff" points="415.8,-15.68 405.25,-16.59 414.07,-22.46 415.8,-15.68"/>
</a>
</g>
</g>
<!-- Node3&#45;&gt;Node5 -->
<g id="edge4_Node000003_Node000005" class="edge">
<title>Node3&#45;&gt;Node5</title>
<g id="a_edge4_Node000003_Node000005"><a xlink:title=" ">
<path fill="none" stroke="#63b8ff" d="M546.96,-56.48C500.87,-48.11 428.59,-34.78 356.49,-20.38"/>
<polygon fill="#63b8ff" stroke="#63b8ff" points="357.37,-16.99 346.87,-18.45 355.99,-23.85 357.37,-16.99"/>
</a>
</g>
</g>
<!-- Node3&#45;&gt;Node6 -->
<g id="edge5_Node000003_Node000006" class="edge">
<title>Node3&#45;&gt;Node6</title>
<g id="a_edge5_Node000003_Node000006"><a xlink:title=" ">
<path fill="none" stroke="#63b8ff" d="M594.39,-55.59C594.39,-49.01 594.39,-39.96 594.39,-31.73"/>
<polygon fill="#63b8ff" stroke="#63b8ff" points="597.89,-31.81 594.39,-21.81 590.89,-31.81 597.89,-31.81"/>
</a>
</g>
</g>
<!-- Node7 -->
<g id="Node000007" class="node">
<title>Node7</title>
<g id="a_Node000007"><a xlink:title=" ">
<polygon fill="#e0e0e0" stroke="#999999" points="712.27,-20 662.52,-20 662.52,0 712.27,0 712.27,-20"/>
<text xml:space="preserve" text-anchor="middle" x="687.39" y="-6.5" font-family="Helvetica,sans-Serif" font-size="10.00">optional</text>
</a>
</g>
</g>
<!-- Node3&#45;&gt;Node7 -->
<g id="edge6_Node000003_Node000007" class="edge">
<title>Node3&#45;&gt;Node7</title>
<g id="a_edge6_Node000003_Node000007"><a xlink:title=" ">
<path fill="none" stroke="#63b8ff" d="M610.59,-55.59C624.64,-47.44 645.23,-35.48 661.55,-26"/>
<polygon fill="#63b8ff" stroke="#63b8ff" points="662.87,-29.29 669.76,-21.24 659.35,-23.23 662.87,-29.29"/>
</a>
</g>
</g>
<!-- Node8 -->
<g id="Node000008" class="node">
<title>Node8</title>
<g id="a_Node000008"><a xlink:title=" ">
<polygon fill="#e0e0e0" stroke="#999999" points="791.02,-20 745.77,-20 745.77,0 791.02,0 791.02,-20"/>
<text xml:space="preserve" text-anchor="middle" x="768.39" y="-6.5" font-family="Helvetica,sans-Serif" font-size="10.00">cstdint</text>
</a>
</g>
</g>
<!-- Node3&#45;&gt;Node8 -->
<g id="edge7_Node000003_Node000008" class="edge">
<title>Node3&#45;&gt;Node8</title>
<g id="a_edge7_Node000003_Node000008"><a xlink:title=" ">
<path fill="none" stroke="#63b8ff" d="M624.7,-55.59C655.31,-46.09 702.51,-31.45 734.38,-21.56"/>
<polygon fill="#63b8ff" stroke="#63b8ff" points="735.41,-24.9 743.92,-18.59 733.34,-18.21 735.41,-24.9"/>
</a>
</g>
</g>
<!-- Node9&#45;&gt;Node4 -->
<g id="edge9_Node000009_Node000004" class="edge">
<title>Node9&#45;&gt;Node4</title>
<g id="a_edge9_Node000009_Node000004"><a xlink:title=" ">
<path fill="none" stroke="#63b8ff" d="M204.93,-55.64C242.01,-47.63 296.41,-35.38 352.34,-20.41"/>
<polygon fill="#63b8ff" stroke="#63b8ff" points="352.96,-23.87 361.7,-17.88 351.14,-17.11 352.96,-23.87"/>
</a>
</g>
</g>
<!-- Node9&#45;&gt;Node10 -->
<g id="edge10_Node000009_Node000010" class="edge">
<title>Node9&#45;&gt;Node10</title>
<g id="a_edge10_Node000009_Node000010"><a xlink:title=" ">
<path fill="none" stroke="#63b8ff" d="M145.24,-55.59C132.34,-47.59 113.56,-35.93 98.43,-26.54"/>
<polygon fill="#63b8ff" stroke="#63b8ff" points="100.29,-23.58 89.95,-21.28 96.6,-29.53 100.29,-23.58"/>
</a>
</g>
</g>
<!-- Node12&#45;&gt;Node4 -->
<g id="edge18_Node000012_Node000004" class="edge">
<title>Node12&#45;&gt;Node4</title>
<g id="a_edge18_Node000012_Node000004"><a xlink:title=" ">
<path fill="none" stroke="#63b8ff" d="M283.47,-55.59C302.58,-47.06 331,-34.38 352.64,-24.72"/>
<polygon fill="#63b8ff" stroke="#63b8ff" points="353.87,-28.01 361.58,-20.74 351.02,-21.61 353.87,-28.01"/>
</a>
</g>
</g>
<!-- Node12&#45;&gt;Node5 -->
<g id="edge19_Node000012_Node000005" class="edge">
<title>Node12&#45;&gt;Node5</title>
<g id="a_edge19_Node000012_Node000005"><a xlink:title=" ">
<path fill="none" stroke="#63b8ff" d="M271.1,-55.59C277.98,-48.16 287.78,-37.58 296.11,-28.58"/>
<polygon fill="#63b8ff" stroke="#63b8ff" points="298.53,-31.12 302.75,-21.41 293.39,-26.37 298.53,-31.12"/>
</a>
</g>
</g>
<!-- Node13&#45;&gt;Node4 -->
<g id="edge21_Node000013_Node000004" class="edge">
<title>Node13&#45;&gt;Node4</title>
<g id="a_edge21_Node000013_Node000004"><a xlink:title=" ">
<path fill="none" stroke="#63b8ff" d="M97.94,-57.54C101.14,-57.01 104.32,-56.49 107.39,-56 213.42,-39.1 244.23,-44.15 351.89,-20.28"/>
<polygon fill="#63b8ff" stroke="#63b8ff" points="352.44,-23.74 361.43,-18.13 350.9,-16.91 352.44,-23.74"/>
</a>
</g>
</g>
<!-- Node13&#45;&gt;Node5 -->
<g id="edge22_Node000013_Node000005" class="edge">
<title>Node13&#45;&gt;Node5</title>
<g id="a_edge22_Node000013_Node000005"><a xlink:title=" ">
<path fill="none" stroke="#63b8ff" d="M97.83,-56.08C144.85,-46.2 220.32,-30.35 268.08,-20.31"/>
<polygon fill="#63b8ff" stroke="#63b8ff" points="268.75,-23.75 277.82,-18.26 267.31,-16.9 268.75,-23.75"/>
</a>
</g>
</g>
<!-- Node14&#45;&gt;Node3 -->
<g id="edge24_Node000014_Node000003" class="edge">
<title>Node14&#45;&gt;Node3</title>
<g id="a_edge24_Node000014_Node000003"><a xlink:title=" ">
<path fill="none" stroke="#63b8ff" d="M656.33,-111.59C645.43,-103.74 629.64,-92.38 616.74,-83.09"/>
<polygon fill="#63b8ff" stroke="#63b8ff" points="618.95,-80.37 608.79,-77.36 614.86,-86.05 618.95,-80.37"/>
</a>
</g>
</g>
<!-- Node14&#45;&gt;Node4 -->
<g id="edge25_Node000014_Node000004" class="edge">
<title>Node14&#45;&gt;Node4</title>
<g id="a_edge25_Node000014_Node000004"><a xlink:title=" ">
<path fill="none" stroke="#63b8ff" d="M669.57,-111.88C669.3,-97.66 666.56,-70.37 650.39,-56 615.98,-25.41 477.92,-15.29 414.96,-12.22"/>
<polygon fill="#63b8ff" stroke="#63b8ff" points="415.44,-8.74 405.29,-11.78 415.12,-15.73 415.44,-8.74"/>
</a>
</g>
</g>
<!-- Node14&#45;&gt;Node5 -->
<g id="edge26_Node000014_Node000005" class="edge">
<title>Node14&#45;&gt;Node5</title>
<g id="a_edge26_Node000014_Node000005"><a xlink:title=" ">
<path fill="none" stroke="#63b8ff" d="M637.38,-111.52C610.53,-103.21 571.4,-90.25 538.39,-76 520.87,-68.43 518.26,-62.72 500.39,-56 486.99,-50.96 407.96,-32.65 356.73,-21"/>
<polygon fill="#63b8ff" stroke="#63b8ff" points="357.62,-17.61 347.09,-18.81 356.07,-24.44 357.62,-17.61"/>
</a>
</g>
</g>
<!-- Node14&#45;&gt;Node6 -->
<g id="edge27_Node000014_Node000006" class="edge">
<title>Node14&#45;&gt;Node6</title>
<g id="a_edge27_Node000014_Node000006"><a xlink:title=" ">
<path fill="none" stroke="#63b8ff" d="M675.24,-111.9C682.93,-98.64 694.28,-73.7 683.39,-56 671.13,-36.06 646.99,-24.63 626.94,-18.28"/>
<polygon fill="#63b8ff" stroke="#63b8ff" points="628.06,-14.96 617.49,-15.6 626.15,-21.69 628.06,-14.96"/>
</a>
</g>
</g>
<!-- Node14&#45;&gt;Node7 -->
<g id="edge29_Node000014_Node000007" class="edge">
<title>Node14&#45;&gt;Node7</title>
<g id="a_edge29_Node000014_Node000007"><a xlink:title=" ">
<path fill="none" stroke="#63b8ff" d="M686.69,-111.51C698.9,-103.75 714.29,-91.53 721.39,-76 728.96,-59.44 717.47,-41.1 705.84,-28.13"/>
<polygon fill="#63b8ff" stroke="#63b8ff" points="708.55,-25.9 699.06,-21.19 703.54,-30.79 708.55,-25.9"/>
</a>
</g>
</g>
<!-- Node14&#45;&gt;Node8 -->
<g id="edge31_Node000014_Node000008" class="edge">
<title>Node14&#45;&gt;Node8</title>
<g id="a_edge31_Node000014_Node000008"><a xlink:title=" ">
<path fill="none" stroke="#63b8ff" d="M688.71,-111.58C703.3,-103.7 723.02,-91.3 736.39,-76 747.92,-62.82 756.37,-44.75 761.69,-31.01"/>
<polygon fill="#63b8ff" stroke="#63b8ff" points="764.94,-32.3 765.03,-21.7 758.35,-29.93 764.94,-32.3"/>
</a>
</g>
</g>
<!-- Node14&#45;&gt;Node11 -->
<g id="edge30_Node000014_Node000011" class="edge">
<title>Node14&#45;&gt;Node11</title>
<g id="a_edge30_Node000014_Node000011"><a xlink:title=" ">
<path fill="none" stroke="#63b8ff" d="M633.34,-111.59C596.91,-102.09 540.74,-87.44 502.83,-77.55"/>
<polygon fill="#63b8ff" stroke="#63b8ff" points="503.71,-74.16 493.15,-75.02 501.94,-80.93 503.71,-74.16"/>
</a>
</g>
</g>
<!-- Node14&#45;&gt;Node15 -->
<g id="edge28_Node000014_Node000015" class="edge">
<title>Node14&#45;&gt;Node15</title>
<g id="a_edge28_Node000014_Node000015"><a xlink:title=" ">
<path fill="none" stroke="#63b8ff" d="M701.27,-111.59C731.26,-102.74 776.39,-89.43 809.53,-79.65"/>
<polygon fill="#63b8ff" stroke="#63b8ff" points="810.21,-83.09 818.82,-76.91 808.23,-76.38 810.21,-83.09"/>
</a>
</g>
</g>
<!-- Node16&#45;&gt;Node4 -->
<g id="edge34_Node000016_Node000004" class="edge">
<title>Node16&#45;&gt;Node4</title>
<g id="a_edge34_Node000016_Node000004"><a xlink:title=" ">
<path fill="none" stroke="#63b8ff" d="M928.8,-111.68C955.35,-99.38 993.71,-76.84 974.39,-56 964.79,-45.64 536.37,-19.92 415.08,-12.83"/>
<polygon fill="#63b8ff" stroke="#63b8ff" points="415.4,-9.34 405.21,-12.26 414.99,-16.33 415.4,-9.34"/>
</a>
</g>
</g>
<!-- Node17 -->
<g id="Node000017" class="node">
<title>Node17</title>
<g id="a_Node000017"><a xlink:title=" ">
<polygon fill="#e0e0e0" stroke="#999999" points="965.14,-76 911.64,-76 911.64,-56 965.14,-56 965.14,-76"/>
<text xml:space="preserve" text-anchor="middle" x="938.39" y="-62.5" font-family="Helvetica,sans-Serif" font-size="10.00">iostream</text>
</a>
</g>
</g>
<!-- Node16&#45;&gt;Node17 -->
<g id="edge33_Node000016_Node000017" class="edge">
<title>Node16&#45;&gt;Node17</title>
<g id="a_edge33_Node000016_Node000017"><a xlink:title=" ">
<path fill="none" stroke="#63b8ff" d="M911.97,-111.59C916.14,-104.55 921.99,-94.67 927.13,-86"/>
<polygon fill="#63b8ff" stroke="#63b8ff" points="930.02,-87.99 932.11,-77.6 924,-84.42 930.02,-87.99"/>
</a>
</g>
</g>
</g>
</svg>
