<?xml version="1.0" encoding="UTF-8" standalone="no"?>
<!DOCTYPE svg PUBLIC "-//W3C//DTD SVG 1.1//EN"
 "http://www.w3.org/Graphics/SVG/1.1/DTD/svg11.dtd">
<!-- Generated by graphviz version 14.0.2 (20251019.1705)
 -->
<!-- Title: Migration.h Pages: 1 -->
<svg width="255pt" height="84pt"
 viewBox="0.00 0.00 255.00 84.00" xmlns="http://www.w3.org/2000/svg" xmlns:xlink="http://www.w3.org/1999/xlink">
<g id="graph0" class="graph" transform="scale(1 1) rotate(0) translate(4 80)">
<title>Migration.h</title>
<!-- Node1 -->
<g id="Node000001" class="node">
<title>Node1</title>
<g id="a_Node000001"><a xlink:title=" ">
<polygon fill="#999999" stroke="#666666" points="158.38,-76 94.38,-76 94.38,-56 158.38,-56 158.38,-76"/>
<text xml:space="preserve" text-anchor="middle" x="126.38" y="-62.5" font-family="Helvetica,sans-Serif" font-size="10.00">Migration.h</text>
</a>
</g>
</g>
<!-- Node2 -->
<g id="Node000002" class="node">
<title>Node2</title>
<g id="a_Node000002"><a xlink:href="MetaDB_8cpp.html" target="_top" xlink:title=" ">
<polygon fill="white" stroke="#666666" points="70.75,-20 0,-20 0,0 70.75,0 70.75,-20"/>
<text xml:space="preserve" text-anchor="middle" x="35.38" y="-6.5" font-family="Helvetica,sans-Serif" font-size="10.00">MetaDB.cpp</text>
</a>
</g>
</g>
<!-- Node1&#45;&gt;Node2 -->
<g id="edge1_Node000001_Node000002" class="edge">
<title>Node1&#45;&gt;Node2</title>
<g id="a_edge1_Node000001_Node000002"><a xlink:title=" ">
<path fill="none" stroke="#63b8ff" d="M100.78,-49.81C84.91,-40.39 65.01,-28.58 51.35,-20.48"/>
<polygon fill="#63b8ff" stroke="#63b8ff" points="98.84,-52.73 109.22,-54.82 102.41,-46.71 98.84,-52.73"/>
</a>
</g>
</g>
<!-- Node3 -->
<g id="Node000003" class="node">
<title>Node3</title>
<g id="a_Node000003"><a xlink:href="Migration_8cpp.html" target="_top" xlink:title=" ">
<polygon fill="white" stroke="#666666" points="163.62,-20 89.12,-20 89.12,0 163.62,0 163.62,-20"/>
<text xml:space="preserve" text-anchor="middle" x="126.38" y="-6.5" font-family="Helvetica,sans-Serif" font-size="10.00">Migration.cpp</text>
</a>
</g>
</g>
<!-- Node1&#45;&gt;Node3 -->
<g id="edge2_Node000001_Node000003" class="edge">
<title>Node1&#45;&gt;Node3</title>
<g id="a_edge2_Node000001_Node000003"><a xlink:title=" ">
<path fill="none" stroke="#63b8ff" d="M126.38,-44.13C126.38,-35.9 126.38,-26.85 126.38,-20.3"/>
<polygon fill="#63b8ff" stroke="#63b8ff" points="122.88,-44.08 126.38,-54.08 129.88,-44.08 122.88,-44.08"/>
</a>
</g>
</g>
<!-- Node4 -->
<g id="Node000004" class="node">
<title>Node4</title>
<g id="a_Node000004"><a xlink:href="Project_8cpp.html" target="_top" xlink:title=" ">
<polygon fill="white" stroke="#666666" points="247.12,-20 181.62,-20 181.62,0 247.12,0 247.12,-20"/>
<text xml:space="preserve" text-anchor="middle" x="214.38" y="-6.5" font-family="Helvetica,sans-Serif" font-size="10.00">Project.cpp</text>
</a>
</g>
</g>
<!-- Node1&#45;&gt;Node4 -->
<g id="edge3_Node000001_Node000004" class="edge">
<title>Node1&#45;&gt;Node4</title>
<g id="a_edge3_Node000001_Node000004"><a xlink:title=" ">
<path fill="none" stroke="#63b8ff" d="M151.13,-49.81C166.48,-40.39 185.72,-28.58 198.93,-20.48"/>
<polygon fill="#63b8ff" stroke="#63b8ff" points="149.69,-46.59 142.99,-54.8 153.35,-52.56 149.69,-46.59"/>
</a>
</g>
</g>
</g>
</svg>
