<?xml version="1.0" encoding="UTF-8" standalone="no"?>
<!DOCTYPE svg PUBLIC "-//W3C//DTD SVG 1.1//EN"
 "http://www.w3.org/Graphics/SVG/1.1/DTD/svg11.dtd">
<!-- Generated by graphviz version 14.0.2 (20251019.1705)
 -->
<!-- Title: Migration.h Pages: 1 -->
<svg width="415pt" height="140pt"
 viewBox="0.00 0.00 415.00 140.00" xmlns="http://www.w3.org/2000/svg" xmlns:xlink="http://www.w3.org/1999/xlink">
<g id="graph0" class="graph" transform="scale(1 1) rotate(0) translate(4 136)">
<title>Migration.h</title>
<!-- Node1 -->
<g id="Node000001" class="node">
<title>Node1</title>
<g id="a_Node000001"><a xlink:title=" ">
<polygon fill="#999999" stroke="#666666" points="239.5,-132 175.5,-132 175.5,-112 239.5,-112 239.5,-132"/>
<text xml:space="preserve" text-anchor="middle" x="207.5" y="-118.5" font-family="Helvetica,sans-Serif" font-size="10.00">Migration.h</text>
</a>
</g>
</g>
<!-- Node2 -->
<g id="Node000002" class="node">
<title>Node2</title>
<g id="a_Node000002"><a xlink:href="MetaDB_8h.html" target="_top" xlink:title=" ">
<polygon fill="white" stroke="#666666" points="292.5,-76 198.5,-76 198.5,-56 292.5,-56 292.5,-76"/>
<text xml:space="preserve" text-anchor="middle" x="245.5" y="-62.5" font-family="Helvetica,sans-Serif" font-size="10.00">LGE/fs/MetaDB.h</text>
</a>
</g>
</g>
<!-- Node1&#45;&gt;Node2 -->
<g id="edge1_Node000001_Node000002" class="edge">
<title>Node1&#45;&gt;Node2</title>
<g id="a_edge1_Node000001_Node000002"><a xlink:title=" ">
<path fill="none" stroke="#63b8ff" d="M214.12,-111.59C219.19,-104.39 226.34,-94.23 232.53,-85.43"/>
<polygon fill="#63b8ff" stroke="#63b8ff" points="235.19,-87.73 238.09,-77.54 229.47,-83.7 235.19,-87.73"/>
</a>
</g>
</g>
<!-- Node3 -->
<g id="Node000003" class="node">
<title>Node3</title>
<g id="a_Node000003"><a xlink:title=" ">
<polygon fill="#e0e0e0" stroke="#999999" points="119.5,-20 79.5,-20 79.5,0 119.5,0 119.5,-20"/>
<text xml:space="preserve" text-anchor="middle" x="99.5" y="-6.5" font-family="Helvetica,sans-Serif" font-size="10.00">string</text>
</a>
</g>
</g>
<!-- Node1&#45;&gt;Node3 -->
<g id="edge10_Node000001_Node000003" class="edge">
<title>Node1&#45;&gt;Node3</title>
<g id="a_edge10_Node000001_Node000003"><a xlink:title=" ">
<path fill="none" stroke="#63b8ff" d="M198.29,-111.62C180.2,-93.19 139.76,-52.01 116.62,-28.44"/>
<polygon fill="#63b8ff" stroke="#63b8ff" points="119.25,-26.12 109.75,-21.43 114.25,-31.02 119.25,-26.12"/>
</a>
</g>
</g>
<!-- Node4 -->
<g id="Node000004" class="node">
<title>Node4</title>
<g id="a_Node000004"><a xlink:title=" ">
<polygon fill="#e0e0e0" stroke="#999999" points="203.25,-20 137.75,-20 137.75,0 203.25,0 203.25,-20"/>
<text xml:space="preserve" text-anchor="middle" x="170.5" y="-6.5" font-family="Helvetica,sans-Serif" font-size="10.00">string_view</text>
</a>
</g>
</g>
<!-- Node1&#45;&gt;Node4 -->
<g id="edge11_Node000001_Node000004" class="edge">
<title>Node1&#45;&gt;Node4</title>
<g id="a_edge11_Node000001_Node000004"><a xlink:title=" ">
<path fill="none" stroke="#63b8ff" d="M203.51,-111.79C199.68,-102.76 193.84,-88.57 189.5,-76 184.38,-61.18 179.44,-44.16 175.88,-31.25"/>
<polygon fill="#63b8ff" stroke="#63b8ff" points="179.31,-30.55 173.32,-21.81 172.56,-32.37 179.31,-30.55"/>
</a>
</g>
</g>
<!-- Node5 -->
<g id="Node000005" class="node">
<title>Node5</title>
<g id="a_Node000005"><a xlink:title=" ">
<polygon fill="#e0e0e0" stroke="#999999" points="396,-20 353,-20 353,0 396,0 396,-20"/>
<text xml:space="preserve" text-anchor="middle" x="374.5" y="-6.5" font-family="Helvetica,sans-Serif" font-size="10.00">vector</text>
</a>
</g>
</g>
<!-- Node1&#45;&gt;Node5 -->
<g id="edge13_Node000001_Node000005" class="edge">
<title>Node1&#45;&gt;Node5</title>
<g id="a_edge13_Node000001_Node000005"><a xlink:title=" ">
<path fill="none" stroke="#63b8ff" d="M231.67,-111.65C251.27,-103.55 279.2,-90.83 301.5,-76 322.56,-61.99 343.85,-42.26 357.95,-28.22"/>
<polygon fill="#63b8ff" stroke="#63b8ff" points="360.15,-30.97 364.68,-21.39 355.17,-26.06 360.15,-30.97"/>
</a>
</g>
</g>
<!-- Node8 -->
<g id="Node000008" class="node">
<title>Node8</title>
<g id="a_Node000008"><a xlink:href="Project_8h.html" target="_top" xlink:title=" ">
<polygon fill="white" stroke="#666666" points="104.88,-76 16.12,-76 16.12,-56 104.88,-56 104.88,-76"/>
<text xml:space="preserve" text-anchor="middle" x="60.5" y="-62.5" font-family="Helvetica,sans-Serif" font-size="10.00">LGE/fs/Project.h</text>
</a>
</g>
</g>
<!-- Node1&#45;&gt;Node8 -->
<g id="edge7_Node000001_Node000008" class="edge">
<title>Node1&#45;&gt;Node8</title>
<g id="a_edge7_Node000001_Node000008"><a xlink:title=" ">
<path fill="none" stroke="#63b8ff" d="M181.89,-111.59C158.43,-102.97 123.43,-90.12 97.03,-80.42"/>
<polygon fill="#63b8ff" stroke="#63b8ff" points="98.32,-77.16 87.73,-77 95.91,-83.73 98.32,-77.16"/>
</a>
</g>
</g>
<!-- Node10 -->
<g id="Node000010" class="node">
<title>Node10</title>
<g id="a_Node000010"><a xlink:title=" ">
<polygon fill="#e0e0e0" stroke="#999999" points="406.5,-76 348.5,-76 348.5,-56 406.5,-56 406.5,-76"/>
<text xml:space="preserve" text-anchor="middle" x="377.5" y="-62.5" font-family="Helvetica,sans-Serif" font-size="10.00">functional</text>
</a>
</g>
</g>
<!-- Node1&#45;&gt;Node10 -->
<g id="edge12_Node000001_Node000010" class="edge">
<title>Node1&#45;&gt;Node10</title>
<g id="a_edge12_Node000001_Node000010"><a xlink:title=" ">
<path fill="none" stroke="#63b8ff" d="M237.11,-111.59C264.9,-102.77 306.68,-89.5 337.44,-79.72"/>
<polygon fill="#63b8ff" stroke="#63b8ff" points="338.31,-83.12 346.79,-76.76 336.19,-76.45 338.31,-83.12"/>
</a>
</g>
</g>
<!-- Node2&#45;&gt;Node3 -->
<g id="edge2_Node000002_Node000003" class="edge">
<title>Node2&#45;&gt;Node3</title>
<g id="a_edge2_Node000002_Node000003"><a xlink:title=" ">
<path fill="none" stroke="#63b8ff" d="M220.07,-55.59C195.19,-46.39 157.26,-32.36 130.6,-22.5"/>
<polygon fill="#63b8ff" stroke="#63b8ff" points="131.95,-19.27 121.35,-19.08 129.52,-25.83 131.95,-19.27"/>
</a>
</g>
</g>
<!-- Node2&#45;&gt;Node4 -->
<g id="edge3_Node000002_Node000004" class="edge">
<title>Node2&#45;&gt;Node4</title>
<g id="a_edge3_Node000002_Node000004"><a xlink:title=" ">
<path fill="none" stroke="#63b8ff" d="M232.44,-55.59C221.53,-47.74 205.75,-36.38 192.84,-27.09"/>
<polygon fill="#63b8ff" stroke="#63b8ff" points="195.05,-24.37 184.89,-21.36 190.96,-30.05 195.05,-24.37"/>
</a>
</g>
</g>
<!-- Node2&#45;&gt;Node5 -->
<g id="edge4_Node000002_Node000005" class="edge">
<title>Node2&#45;&gt;Node5</title>
<g id="a_edge4_Node000002_Node000005"><a xlink:title=" ">
<path fill="none" stroke="#63b8ff" d="M267.97,-55.59C288.53,-46.99 319.2,-34.15 342.35,-24.46"/>
<polygon fill="#63b8ff" stroke="#63b8ff" points="343.45,-27.79 351.32,-20.7 340.75,-21.34 343.45,-27.79"/>
</a>
</g>
</g>
<!-- Node6 -->
<g id="Node000006" class="node">
<title>Node6</title>
<g id="a_Node000006"><a xlink:title=" ">
<polygon fill="#e0e0e0" stroke="#999999" points="271.38,-20 221.62,-20 221.62,0 271.38,0 271.38,-20"/>
<text xml:space="preserve" text-anchor="middle" x="246.5" y="-6.5" font-family="Helvetica,sans-Serif" font-size="10.00">optional</text>
</a>
</g>
</g>
<!-- Node2&#45;&gt;Node6 -->
<g id="edge5_Node000002_Node000006" class="edge">
<title>Node2&#45;&gt;Node6</title>
<g id="a_edge5_Node000002_Node000006"><a xlink:title=" ">
<path fill="none" stroke="#63b8ff" d="M245.67,-55.59C245.8,-49.01 245.96,-39.96 246.12,-31.73"/>
<polygon fill="#63b8ff" stroke="#63b8ff" points="249.61,-31.87 246.3,-21.81 242.62,-31.75 249.61,-31.87"/>
</a>
</g>
</g>
<!-- Node7 -->
<g id="Node000007" class="node">
<title>Node7</title>
<g id="a_Node000007"><a xlink:title=" ">
<polygon fill="#e0e0e0" stroke="#999999" points="335.12,-20 289.88,-20 289.88,0 335.12,0 335.12,-20"/>
<text xml:space="preserve" text-anchor="middle" x="312.5" y="-6.5" font-family="Helvetica,sans-Serif" font-size="10.00">cstdint</text>
</a>
</g>
</g>
<!-- Node2&#45;&gt;Node7 -->
<g id="edge6_Node000002_Node000007" class="edge">
<title>Node2&#45;&gt;Node7</title>
<g id="a_edge6_Node000002_Node000007"><a xlink:title=" ">
<path fill="none" stroke="#63b8ff" d="M257.17,-55.59C266.78,-47.85 280.63,-36.69 292.07,-27.47"/>
<polygon fill="#63b8ff" stroke="#63b8ff" points="294.2,-30.25 299.78,-21.25 289.8,-24.8 294.2,-30.25"/>
</a>
</g>
</g>
<!-- Node8&#45;&gt;Node3 -->
<g id="edge8_Node000008_Node000003" class="edge">
<title>Node8&#45;&gt;Node3</title>
<g id="a_edge8_Node000008_Node000003"><a xlink:title=" ">
<path fill="none" stroke="#63b8ff" d="M67.29,-55.59C72.49,-48.39 79.83,-38.23 86.19,-29.43"/>
<polygon fill="#63b8ff" stroke="#63b8ff" points="88.88,-31.68 91.9,-21.53 83.21,-27.58 88.88,-31.68"/>
</a>
</g>
</g>
<!-- Node9 -->
<g id="Node000009" class="node">
<title>Node9</title>
<g id="a_Node000009"><a xlink:title=" ">
<polygon fill="#e0e0e0" stroke="#999999" points="61,-20 0,-20 0,0 61,0 61,-20"/>
<text xml:space="preserve" text-anchor="middle" x="30.5" y="-6.5" font-family="Helvetica,sans-Serif" font-size="10.00">filesystem</text>
</a>
</g>
</g>
<!-- Node8&#45;&gt;Node9 -->
<g id="edge9_Node000008_Node000009" class="edge">
<title>Node8&#45;&gt;Node9</title>
<g id="a_edge9_Node000008_Node000009"><a xlink:title=" ">
<path fill="none" stroke="#63b8ff" d="M55.27,-55.59C51.4,-48.63 45.99,-38.89 41.22,-30.29"/>
<polygon fill="#63b8ff" stroke="#63b8ff" points="44.32,-28.66 36.4,-21.62 38.2,-32.06 44.32,-28.66"/>
</a>
</g>
</g>
</g>
</svg>
