<?xml version="1.0" encoding="UTF-8" standalone="no"?>
<!DOCTYPE svg PUBLIC "-//W3C//DTD SVG 1.1//EN"
 "http://www.w3.org/Graphics/SVG/1.1/DTD/svg11.dtd">
<!-- Generated by graphviz version 14.0.2 (20251019.1705)
 -->
<!-- Title: LGE::Thumbs::Delete Pages: 1 -->
<svg width="1015pt" height="273pt"
 viewBox="0.00 0.00 1015.00 273.00" xmlns="http://www.w3.org/2000/svg" xmlns:xlink="http://www.w3.org/1999/xlink">
<g id="graph0" class="graph" transform="scale(1 1) rotate(0) translate(4 269.4)">
<title>LGE::Thumbs::Delete</title>
<!-- Node1 -->
<g id="Node000001" class="node">
<title>Node1</title>
<g id="a_Node000001"><a xlink:title=" ">
<polygon fill="#999999" stroke="#666666" points="111.25,-58 0,-58 0,-38 111.25,-38 111.25,-58"/>
<text xml:space="preserve" text-anchor="middle" x="55.62" y="-44.5" font-family="Helvetica,sans-Serif" font-size="10.00">LGE::Thumbs::Delete</text>
</a>
</g>
</g>
<!-- Node2 -->
<g id="Node000002" class="node">
<title>Node2</title>
<g id="a_Node000002"><a xlink:href="namespaceLGE_1_1LxFile.html#a495ab310e479d036634c3628390f80a0" target="_top" xlink:title=" ">
<polygon fill="white" stroke="#666666" points="249.88,-134 147.62,-134 147.62,-114 249.88,-114 249.88,-134"/>
<text xml:space="preserve" text-anchor="middle" x="198.75" y="-120.5" font-family="Helvetica,sans-Serif" font-size="10.00">LGE::LxFile::Delete</text>
</a>
</g>
</g>
<!-- Node1&#45;&gt;Node2 -->
<g id="edge1_Node000001_Node000002" class="edge">
<title>Node1&#45;&gt;Node2</title>
<g id="a_edge1_Node000001_Node000002"><a xlink:title=" ">
<path fill="none" stroke="#63b8ff" d="M75.95,-58.41C99.92,-71.31 140.98,-93.43 168.74,-108.38"/>
<polygon fill="#63b8ff" stroke="#63b8ff" points="166.86,-111.34 177.32,-113 170.18,-105.18 166.86,-111.34"/>
</a>
</g>
</g>
<!-- Node12 -->
<g id="Node000012" class="node">
<title>Node12</title>
<g id="a_Node000012"><a xlink:href="namespaceLGE_1_1LxFile.html#a11e62876b312a11b881b484bb3a5ee71" target="_top" xlink:title=" ">
<polygon fill="white" stroke="#666666" points="249.5,-20 148,-20 148,0 249.5,0 249.5,-20"/>
<text xml:space="preserve" text-anchor="middle" x="198.75" y="-6.5" font-family="Helvetica,sans-Serif" font-size="10.00">LGE::LxFile::Exists</text>
</a>
</g>
</g>
<!-- Node1&#45;&gt;Node12 -->
<g id="edge17_Node000001_Node000012" class="edge">
<title>Node1&#45;&gt;Node12</title>
<g id="a_edge17_Node000001_Node000012"><a xlink:title=" ">
<path fill="none" stroke="#63b8ff" d="M95.56,-37.52C111.76,-33.15 130.76,-28.04 147.95,-23.41"/>
<polygon fill="#63b8ff" stroke="#63b8ff" points="148.73,-26.82 157.48,-20.84 146.91,-20.06 148.73,-26.82"/>
</a>
</g>
</g>
<!-- Node13 -->
<g id="Node000013" class="node">
<title>Node13</title>
<g id="a_Node000013"><a xlink:href="namespaceLGE_1_1Thumbs.html#af6d6795b0cb72f1c01c05f781bd1f581" target="_top" xlink:title=" ">
<polygon fill="white" stroke="#666666" points="250.25,-58 147.25,-58 147.25,-38 250.25,-38 250.25,-58"/>
<text xml:space="preserve" text-anchor="middle" x="198.75" y="-44.5" font-family="Helvetica,sans-Serif" font-size="10.00">LGE::Thumbs::Path</text>
</a>
</g>
</g>
<!-- Node1&#45;&gt;Node13 -->
<g id="edge18_Node000001_Node000013" class="edge">
<title>Node1&#45;&gt;Node13</title>
<g id="a_edge18_Node000001_Node000013"><a xlink:title=" ">
<path fill="none" stroke="#63b8ff" d="M111.59,-48C119.39,-48 127.46,-48 135.39,-48"/>
<polygon fill="#63b8ff" stroke="#63b8ff" points="135.34,-51.5 145.34,-48 135.34,-44.5 135.34,-51.5"/>
</a>
</g>
</g>
<!-- Node3 -->
<g id="Node000003" class="node">
<title>Node3</title>
<g id="a_Node000003"><a xlink:href="classLGE_1_1Log.html#a53f3f4b8797ffd18145739c9e66d690a" target="_top" xlink:title=" ">
<polygon fill="white" stroke="#666666" points="1006.75,-191 922.5,-191 922.5,-171 1006.75,-171 1006.75,-191"/>
<text xml:space="preserve" text-anchor="middle" x="964.62" y="-177.5" font-family="Helvetica,sans-Serif" font-size="10.00">LGE::Log::Error</text>
</a>
</g>
</g>
<!-- Node2&#45;&gt;Node3 -->
<g id="edge2_Node000002_Node000003" class="edge">
<title>Node2&#45;&gt;Node3</title>
<g id="a_edge2_Node000002_Node000003"><a xlink:title=" ">
<path fill="none" stroke="#63b8ff" d="M203.96,-134.18C214.14,-157.35 242.53,-213.87 286.25,-238 371.4,-285 406.99,-257 504.25,-257 504.25,-257 504.25,-257 667,-257 764.73,-257 875.06,-217.81 929.5,-195.71"/>
<polygon fill="#63b8ff" stroke="#63b8ff" points="930.62,-199.04 938.53,-191.99 927.95,-192.56 930.62,-199.04"/>
</a>
</g>
</g>
<!-- Node4 -->
<g id="Node000004" class="node">
<title>Node4</title>
<g id="a_Node000004"><a xlink:href="classLGE_1_1Log.html#ab0265ee050b8873a2fd31fbdb696ced0" target="_top" xlink:title=" ">
<polygon fill="white" stroke="#666666" points="386.25,-115 306.5,-115 306.5,-95 386.25,-95 386.25,-115"/>
<text xml:space="preserve" text-anchor="middle" x="346.38" y="-101.5" font-family="Helvetica,sans-Serif" font-size="10.00">LGE::Log::Info</text>
</a>
</g>
</g>
<!-- Node2&#45;&gt;Node4 -->
<g id="edge3_Node000002_Node000004" class="edge">
<title>Node2&#45;&gt;Node4</title>
<g id="a_edge3_Node000002_Node000004"><a xlink:title=" ">
<path fill="none" stroke="#63b8ff" d="M250.27,-117.41C264.79,-115.51 280.62,-113.45 295.13,-111.56"/>
<polygon fill="#63b8ff" stroke="#63b8ff" points="295.46,-115.04 304.92,-110.28 294.55,-108.1 295.46,-115.04"/>
</a>
</g>
</g>
<!-- Node5 -->
<g id="Node000005" class="node">
<title>Node5</title>
<g id="a_Node000005"><a xlink:href="namespaceLGE_1_1LxFS.html#a5684a30f3fa2906f4dafed0258a79166" target="_top" xlink:title=" ">
<polygon fill="white" stroke="#666666" points="406.5,-77 286.25,-77 286.25,-57 406.5,-57 406.5,-77"/>
<text xml:space="preserve" text-anchor="middle" x="346.38" y="-63.5" font-family="Helvetica,sans-Serif" font-size="10.00">LGE::LxFS::IsInitialized</text>
</a>
</g>
</g>
<!-- Node2&#45;&gt;Node5 -->
<g id="edge4_Node000002_Node000005" class="edge">
<title>Node2&#45;&gt;Node5</title>
<g id="a_edge4_Node000002_Node000005"><a xlink:title=" ">
<path fill="none" stroke="#63b8ff" d="M221.89,-113.52C239.21,-105.5 264.01,-94.43 286.25,-86 290.67,-84.32 295.32,-82.66 299.98,-81.06"/>
<polygon fill="#63b8ff" stroke="#63b8ff" points="300.96,-84.42 309.34,-77.94 298.75,-77.78 300.96,-84.42"/>
</a>
</g>
</g>
<!-- Node6 -->
<g id="Node000006" class="node">
<title>Node6</title>
<g id="a_Node000006"><a xlink:href="namespaceLGE_1_1VFS.html#abb5d35abfe80efe2f7a07394ad5b706a" target="_top" xlink:title=" ">
<polygon fill="white" stroke="#666666" points="564.62,-153 445.88,-153 445.88,-133 564.62,-133 564.62,-153"/>
<text xml:space="preserve" text-anchor="middle" x="505.25" y="-139.5" font-family="Helvetica,sans-Serif" font-size="10.00">LGE::VFS::IsReadOnly</text>
</a>
</g>
</g>
<!-- Node2&#45;&gt;Node6 -->
<g id="edge5_Node000002_Node000006" class="edge">
<title>Node2&#45;&gt;Node6</title>
<g id="a_edge5_Node000002_Node000006"><a xlink:title=" ">
<path fill="none" stroke="#63b8ff" d="M250.37,-127.16C300.61,-130.29 378,-135.12 434.14,-138.63"/>
<polygon fill="#63b8ff" stroke="#63b8ff" points="433.71,-142.11 443.91,-139.23 434.15,-135.12 433.71,-142.11"/>
</a>
</g>
</g>
<!-- Node9 -->
<g id="Node000009" class="node">
<title>Node9</title>
<g id="a_Node000009"><a xlink:href="namespaceLGE_1_1LxFS.html#a12aeb6699602f14153953dceb4284914" target="_top" xlink:title=" ">
<polygon fill="white" stroke="#666666" points="394.5,-229 298.25,-229 298.25,-209 394.5,-209 394.5,-229"/>
<text xml:space="preserve" text-anchor="middle" x="346.38" y="-215.5" font-family="Helvetica,sans-Serif" font-size="10.00">LGE::LxFS::Paths</text>
</a>
</g>
</g>
<!-- Node2&#45;&gt;Node9 -->
<g id="edge10_Node000002_Node000009" class="edge">
<title>Node2&#45;&gt;Node9</title>
<g id="a_edge10_Node000002_Node000009"><a xlink:title=" ">
<path fill="none" stroke="#63b8ff" d="M208.84,-134.35C223.57,-150.53 254.26,-181.85 286.25,-200 289.02,-201.57 291.94,-203.03 294.93,-204.39"/>
<polygon fill="#63b8ff" stroke="#63b8ff" points="293.32,-207.51 303.9,-208.03 295.95,-201.03 293.32,-207.51"/>
</a>
</g>
</g>
<!-- Node10 -->
<g id="Node000010" class="node">
<title>Node10</title>
<g id="a_Node000010"><a xlink:href="namespaceLGE_1_1VFS.html#aee891612cc393155878775a61e486c0b" target="_top" xlink:title=" ">
<polygon fill="white" stroke="#666666" points="568,-77 442.5,-77 442.5,-57 568,-57 568,-77"/>
<text xml:space="preserve" text-anchor="middle" x="505.25" y="-63.5" font-family="Helvetica,sans-Serif" font-size="10.00">LGE::VFS::ToVirtualPath</text>
</a>
</g>
</g>
<!-- Node2&#45;&gt;Node10 -->
<g id="edge11_Node000002_Node000010" class="edge">
<title>Node2&#45;&gt;Node10</title>
<g id="a_edge11_Node000002_Node000010"><a xlink:title=" ">
<path fill="none" stroke="#63b8ff" d="M207.37,-113.57C220.92,-96.03 251.08,-61.25 286.25,-48 345.24,-25.77 419.35,-40.34 464.19,-53.34"/>
<polygon fill="#63b8ff" stroke="#63b8ff" points="462.9,-56.61 473.49,-56.16 464.93,-49.91 462.9,-56.61"/>
</a>
</g>
</g>
<!-- Node11 -->
<g id="Node000011" class="node">
<title>Node11</title>
<g id="a_Node000011"><a xlink:href="namespaceLGE_1_1LxFile.html#a06d0b8c5590da8bc48cf22d321fc4074" target="_top" xlink:title=" ">
<polygon fill="white" stroke="#666666" points="400.12,-191 292.62,-191 292.62,-171 400.12,-171 400.12,-191"/>
<text xml:space="preserve" text-anchor="middle" x="346.38" y="-177.5" font-family="Helvetica,sans-Serif" font-size="10.00">LGE::LxFile::WriteAll</text>
</a>
</g>
</g>
<!-- Node2&#45;&gt;Node11 -->
<g id="edge14_Node000002_Node000011" class="edge">
<title>Node2&#45;&gt;Node11</title>
<g id="a_edge14_Node000002_Node000011"><a xlink:title=" ">
<path fill="none" stroke="#63b8ff" d="M226.46,-134.45C249.45,-143.45 282.86,-156.53 308.42,-166.53"/>
<polygon fill="#63b8ff" stroke="#63b8ff" points="306.84,-169.67 317.43,-170.06 309.39,-163.16 306.84,-169.67"/>
</a>
</g>
</g>
<!-- Node7 -->
<g id="Node000007" class="node">
<title>Node7</title>
<g id="a_Node000007"><a xlink:href="namespaceLGE_1_1LxPath.html#ab664986e94ce09aa029f9eb2fcf50133" target="_top" xlink:title=" ">
<polygon fill="white" stroke="#666666" points="728,-115 604,-115 604,-95 728,-95 728,-115"/>
<text xml:space="preserve" text-anchor="middle" x="666" y="-101.5" font-family="Helvetica,sans-Serif" font-size="10.00">LGE::LxPath::IsSubPath</text>
</a>
</g>
</g>
<!-- Node6&#45;&gt;Node7 -->
<g id="edge6_Node000006_Node000007" class="edge">
<title>Node6&#45;&gt;Node7</title>
<g id="a_edge6_Node000006_Node000007"><a xlink:title=" ">
<path fill="none" stroke="#63b8ff" d="M550.05,-132.52C568.7,-128.05 590.66,-122.79 610.36,-118.08"/>
<polygon fill="#63b8ff" stroke="#63b8ff" points="610.96,-121.53 619.87,-115.8 609.33,-114.73 610.96,-121.53"/>
</a>
</g>
</g>
<!-- Node8 -->
<g id="Node000008" class="node">
<title>Node8</title>
<g id="a_Node000008"><a xlink:href="namespaceLGE_1_1LxPath.html#a314a60ce690c90f4ee0b4e64c0199408" target="_top" xlink:title=" ">
<polygon fill="white" stroke="#666666" points="886.5,-115 764,-115 764,-95 886.5,-95 886.5,-115"/>
<text xml:space="preserve" text-anchor="middle" x="825.25" y="-101.5" font-family="Helvetica,sans-Serif" font-size="10.00">LGE::LxPath::Normalize</text>
</a>
</g>
</g>
<!-- Node6&#45;&gt;Node8 -->
<g id="edge9_Node000006_Node000008" class="edge">
<title>Node6&#45;&gt;Node8</title>
<g id="a_edge9_Node000006_Node000008"><a xlink:title=" ">
<path fill="none" stroke="#63b8ff" d="M564.81,-139.74C609.63,-136.81 672.91,-131.77 728,-124 740.27,-122.27 753.33,-119.99 765.75,-117.61"/>
<polygon fill="#63b8ff" stroke="#63b8ff" points="766.32,-121.07 775.45,-115.7 764.97,-114.2 766.32,-121.07"/>
</a>
</g>
</g>
<!-- Node7&#45;&gt;Node8 -->
<g id="edge7_Node000007_Node000008" class="edge">
<title>Node7&#45;&gt;Node8</title>
<g id="a_edge7_Node000007_Node000008"><a xlink:title=" ">
<path fill="none" stroke="#63b8ff" d="M728.25,-105C736.16,-105 744.32,-105 752.38,-105"/>
<polygon fill="#63b8ff" stroke="#63b8ff" points="752.17,-108.5 762.17,-105 752.17,-101.5 752.17,-108.5"/>
</a>
</g>
</g>
<!-- Node8&#45;&gt;Node3 -->
<g id="edge8_Node000008_Node000003" class="edge">
<title>Node8&#45;&gt;Node3</title>
<g id="a_edge8_Node000008_Node000003"><a xlink:title=" ">
<path fill="none" stroke="#63b8ff" d="M845.06,-115.41C868.29,-128.26 908.02,-150.24 935.02,-165.18"/>
<polygon fill="#63b8ff" stroke="#63b8ff" points="933.27,-168.21 943.71,-169.98 936.66,-162.08 933.27,-168.21"/>
</a>
</g>
</g>
<!-- Node10&#45;&gt;Node7 -->
<g id="edge12_Node000010_Node000007" class="edge">
<title>Node10&#45;&gt;Node7</title>
<g id="a_edge12_Node000010_Node000007"><a xlink:title=" ">
<path fill="none" stroke="#63b8ff" d="M550.05,-77.48C568.7,-81.95 590.66,-87.21 610.36,-91.92"/>
<polygon fill="#63b8ff" stroke="#63b8ff" points="609.33,-95.27 619.87,-94.2 610.96,-88.47 609.33,-95.27"/>
</a>
</g>
</g>
<!-- Node10&#45;&gt;Node8 -->
<g id="edge13_Node000010_Node000008" class="edge">
<title>Node10&#45;&gt;Node8</title>
<g id="a_edge13_Node000010_Node000008"><a xlink:title=" ">
<path fill="none" stroke="#63b8ff" d="M568.11,-70.48C612.7,-73.43 674.24,-78.41 728,-86 740.27,-87.73 753.33,-90.01 765.75,-92.39"/>
<polygon fill="#63b8ff" stroke="#63b8ff" points="764.97,-95.8 775.45,-94.3 766.32,-88.93 764.97,-95.8"/>
</a>
</g>
</g>
<!-- Node11&#45;&gt;Node3 -->
<g id="edge15_Node000011_Node000003" class="edge">
<title>Node11&#45;&gt;Node3</title>
<g id="a_edge15_Node000011_Node000003"><a xlink:title=" ">
<path fill="none" stroke="#63b8ff" d="M400.45,-181C517.02,-181 794.29,-181 910.71,-181"/>
<polygon fill="#63b8ff" stroke="#63b8ff" points="910.61,-184.5 920.61,-181 910.61,-177.5 910.61,-184.5"/>
</a>
</g>
</g>
<!-- Node11&#45;&gt;Node6 -->
<g id="edge16_Node000011_Node000006" class="edge">
<title>Node11&#45;&gt;Node6</title>
<g id="a_edge16_Node000011_Node000006"><a xlink:title=" ">
<path fill="none" stroke="#63b8ff" d="M390.66,-170.52C409,-166.07 430.59,-160.84 449.98,-156.15"/>
<polygon fill="#63b8ff" stroke="#63b8ff" points="450.74,-159.56 459.64,-153.81 449.1,-152.76 450.74,-159.56"/>
</a>
</g>
</g>
<!-- Node14 -->
<g id="Node000014" class="node">
<title>Node14</title>
<g id="a_Node000014"><a xlink:href="namespaceLGE_1_1LxPath.html#a94ec3bdfd6948ddc25cda5d18154d4cf" target="_top" xlink:title=" ">
<polygon fill="white" stroke="#666666" points="714.12,-20 617.88,-20 617.88,0 714.12,0 714.12,-20"/>
<text xml:space="preserve" text-anchor="middle" x="666" y="-6.5" font-family="Helvetica,sans-Serif" font-size="10.00">LGE::LxPath::Join</text>
</a>
</g>
</g>
<!-- Node13&#45;&gt;Node14 -->
<g id="edge19_Node000013_Node000014" class="edge">
<title>Node13&#45;&gt;Node14</title>
<g id="a_edge19_Node000013_Node000014"><a xlink:title=" ">
<path fill="none" stroke="#63b8ff" d="M250.36,-37.54C262.1,-35.42 274.58,-33.41 286.25,-32 398.9,-18.36 531.47,-13.12 606.12,-11.14"/>
<polygon fill="#63b8ff" stroke="#63b8ff" points="606.17,-14.64 616.08,-10.89 606,-7.65 606.17,-14.64"/>
</a>
</g>
</g>
<!-- Node14&#45;&gt;Node8 -->
<g id="edge20_Node000014_Node000008" class="edge">
<title>Node14&#45;&gt;Node8</title>
<g id="a_edge20_Node000014_Node000008"><a xlink:title=" ">
<path fill="none" stroke="#63b8ff" d="M684.13,-20.35C711.42,-36.84 765,-69.21 797.42,-88.79"/>
<polygon fill="#63b8ff" stroke="#63b8ff" points="795.48,-91.71 805.85,-93.88 799.1,-85.72 795.48,-91.71"/>
</a>
</g>
</g>
</g>
</svg>
