<?xml version="1.0" encoding="UTF-8" standalone="no"?>
<!DOCTYPE svg PUBLIC "-//W3C//DTD SVG 1.1//EN"
 "http://www.w3.org/Graphics/SVG/1.1/DTD/svg11.dtd">
<!-- Generated by graphviz version 14.0.2 (20251019.1705)
 -->
<!-- Title: LGE::Cache::Remove Pages: 1 -->
<svg width="638pt" height="180pt"
 viewBox="0.00 0.00 638.00 180.00" xmlns="http://www.w3.org/2000/svg" xmlns:xlink="http://www.w3.org/1999/xlink">
<g id="graph0" class="graph" transform="scale(1 1) rotate(0) translate(4 176)">
<title>LGE::Cache::Remove</title>
<!-- Node1 -->
<g id="Node000001" class="node">
<title>Node1</title>
<g id="a_Node000001"><a xlink:title=" ">
<polygon fill="#999999" stroke="#666666" points="629.5,-115 516.75,-115 516.75,-95 629.5,-95 629.5,-115"/>
<text xml:space="preserve" text-anchor="middle" x="573.12" y="-101.5" font-family="Helvetica,sans-Serif" font-size="10.00">LGE::Cache::Remove</text>
</a>
</g>
</g>
<!-- Node2 -->
<g id="Node000002" class="node">
<title>Node2</title>
<g id="a_Node000002"><a xlink:href="namespaceLGE_1_1Cache.html#a3912d3186850bf82562c73381a563fb2" target="_top" xlink:title=" ">
<polygon fill="white" stroke="#666666" points="464.25,-172 365,-172 365,-152 464.25,-152 464.25,-172"/>
<text xml:space="preserve" text-anchor="middle" x="414.62" y="-158.5" font-family="Helvetica,sans-Serif" font-size="10.00">LGE::Cache::Clear</text>
</a>
</g>
</g>
<!-- Node1&#45;&gt;Node2 -->
<g id="edge1_Node000001_Node000002" class="edge">
<title>Node1&#45;&gt;Node2</title>
<g id="a_edge1_Node000001_Node000002"><a xlink:title=" ">
<path fill="none" stroke="#63b8ff" d="M539.01,-119.81C521.81,-127.23 500.34,-136.09 480.75,-143 472.2,-146.02 462.9,-148.94 454.07,-151.55"/>
<polygon fill="#63b8ff" stroke="#63b8ff" points="539.96,-123.21 547.73,-116 537.16,-116.79 539.96,-123.21"/>
</a>
</g>
</g>
<!-- Node3 -->
<g id="Node000003" class="node">
<title>Node3</title>
<g id="a_Node000003"><a xlink:href="namespaceLGE_1_1Cache.html#a4f57ae5a103f786f3623c8dd436702c5" target="_top" xlink:title=" ">
<polygon fill="white" stroke="#666666" points="480.75,-134 348.5,-134 348.5,-114 480.75,-114 480.75,-134"/>
<text xml:space="preserve" text-anchor="middle" x="414.62" y="-120.5" font-family="Helvetica,sans-Serif" font-size="10.00">LGE::Cache::ClearExpired</text>
</a>
</g>
</g>
<!-- Node1&#45;&gt;Node3 -->
<g id="edge2_Node000001_Node000003" class="edge">
<title>Node1&#45;&gt;Node3</title>
<g id="a_edge2_Node000001_Node000003"><a xlink:title=" ">
<path fill="none" stroke="#63b8ff" d="M505.35,-113.11C497.36,-114.08 489.2,-115.07 481.23,-116.04"/>
<polygon fill="#63b8ff" stroke="#63b8ff" points="505.5,-116.61 515.01,-111.93 504.66,-109.67 505.5,-116.61"/>
</a>
</g>
</g>
<!-- Node5 -->
<g id="Node000005" class="node">
<title>Node5</title>
<g id="a_Node000005"><a xlink:href="namespaceLGE_1_1Cache.html#ac4168ca043cafc48a69e3d31db03a75c" target="_top" xlink:title=" ">
<polygon fill="white" stroke="#666666" points="472.12,-96 357.12,-96 357.12,-76 472.12,-76 472.12,-96"/>
<text xml:space="preserve" text-anchor="middle" x="414.62" y="-82.5" font-family="Helvetica,sans-Serif" font-size="10.00">LGE::Cache::Contains</text>
</a>
</g>
</g>
<!-- Node1&#45;&gt;Node5 -->
<g id="edge4_Node000001_Node000005" class="edge">
<title>Node1&#45;&gt;Node5</title>
<g id="a_edge4_Node000001_Node000005"><a xlink:title=" ">
<path fill="none" stroke="#63b8ff" d="M505.25,-96.88C494.3,-95.55 483.05,-94.19 472.38,-92.89"/>
<polygon fill="#63b8ff" stroke="#63b8ff" points="504.66,-100.33 515.01,-98.07 505.5,-93.39 504.66,-100.33"/>
</a>
</g>
</g>
<!-- Node11 -->
<g id="Node000011" class="node">
<title>Node11</title>
<g id="a_Node000011"><a xlink:href="namespaceLGE_1_1Cache.html#aa007182beb1ed83740278fc2573f681a" target="_top" xlink:title=" ">
<polygon fill="white" stroke="#666666" points="460.5,-58 368.75,-58 368.75,-38 460.5,-38 460.5,-58"/>
<text xml:space="preserve" text-anchor="middle" x="414.62" y="-44.5" font-family="Helvetica,sans-Serif" font-size="10.00">LGE::Cache::Get</text>
</a>
</g>
</g>
<!-- Node1&#45;&gt;Node11 -->
<g id="edge10_Node000001_Node000011" class="edge">
<title>Node1&#45;&gt;Node11</title>
<g id="a_edge10_Node000001_Node000011"><a xlink:title=" ">
<path fill="none" stroke="#63b8ff" d="M539.01,-90.19C521.81,-82.77 500.34,-73.91 480.75,-67 472.2,-63.98 462.9,-61.06 454.07,-58.45"/>
<polygon fill="#63b8ff" stroke="#63b8ff" points="537.16,-93.21 547.73,-94 539.96,-86.79 537.16,-93.21"/>
</a>
</g>
</g>
<!-- Node4 -->
<g id="Node000004" class="node">
<title>Node4</title>
<g id="a_Node000004"><a xlink:href="namespaceLGE_1_1Cache.html#a0bf95dea9f0f136e94a1db94006a0b51" target="_top" xlink:title=" ">
<polygon fill="white" stroke="#666666" points="296,-172 176.5,-172 176.5,-152 296,-152 296,-172"/>
<text xml:space="preserve" text-anchor="middle" x="236.25" y="-158.5" font-family="Helvetica,sans-Serif" font-size="10.00">LGE::Cache::Shutdown</text>
</a>
</g>
</g>
<!-- Node3&#45;&gt;Node4 -->
<g id="edge3_Node000003_Node000004" class="edge">
<title>Node3&#45;&gt;Node4</title>
<g id="a_edge3_Node000003_Node000004"><a xlink:title=" ">
<path fill="none" stroke="#63b8ff" d="M353.97,-136.85C331.76,-141.64 306.84,-147.01 285.75,-151.55"/>
<polygon fill="#63b8ff" stroke="#63b8ff" points="354.44,-140.33 363.48,-134.8 352.97,-133.49 354.44,-140.33"/>
</a>
</g>
</g>
<!-- Node6 -->
<g id="Node000006" class="node">
<title>Node6</title>
<g id="a_Node000006"><a xlink:href="namespaceLGE_1_1Cache.html#a724dfd01b50407489a2a9e93b83b4756" target="_top" xlink:title=" ">
<polygon fill="white" stroke="#666666" points="290.75,-134 181.75,-134 181.75,-114 290.75,-114 290.75,-134"/>
<text xml:space="preserve" text-anchor="middle" x="236.25" y="-120.5" font-family="Helvetica,sans-Serif" font-size="10.00">LGE::Cache::Preload</text>
</a>
</g>
</g>
<!-- Node5&#45;&gt;Node6 -->
<g id="edge5_Node000005_Node000006" class="edge">
<title>Node5&#45;&gt;Node6</title>
<g id="a_edge5_Node000005_Node000006"><a xlink:title=" ">
<path fill="none" stroke="#63b8ff" d="M353.97,-98.85C331.76,-103.64 306.84,-109.01 285.75,-113.55"/>
<polygon fill="#63b8ff" stroke="#63b8ff" points="354.44,-102.33 363.48,-96.8 352.97,-95.49 354.44,-102.33"/>
</a>
</g>
</g>
<!-- Node7 -->
<g id="Node000007" class="node">
<title>Node7</title>
<g id="a_Node000007"><a xlink:href="namespaceLGE_1_1Analytics.html#aaf456d4625dee9c3239538500608b674" target="_top" xlink:title=" ">
<polygon fill="white" stroke="#666666" points="312.5,-96 160,-96 160,-76 312.5,-76 312.5,-96"/>
<text xml:space="preserve" text-anchor="middle" x="236.25" y="-82.5" font-family="Helvetica,sans-Serif" font-size="10.00">LGE::Analytics::RecordAccess</text>
</a>
</g>
</g>
<!-- Node5&#45;&gt;Node7 -->
<g id="edge6_Node000005_Node000007" class="edge">
<title>Node5&#45;&gt;Node7</title>
<g id="a_edge6_Node000005_Node000007"><a xlink:title=" ">
<path fill="none" stroke="#63b8ff" d="M345.47,-86C334.8,-86 323.72,-86 312.9,-86"/>
<polygon fill="#63b8ff" stroke="#63b8ff" points="345.33,-89.5 355.33,-86 345.33,-82.5 345.33,-89.5"/>
</a>
</g>
</g>
<!-- Node9 -->
<g id="Node000009" class="node">
<title>Node9</title>
<g id="a_Node000009"><a xlink:href="namespaceLGE_1_1Analytics.html#a646505ba9a00636247ce3fcefffb1838" target="_top" xlink:title=" ">
<polygon fill="white" stroke="#666666" points="306.5,-58 166,-58 166,-38 306.5,-38 306.5,-58"/>
<text xml:space="preserve" text-anchor="middle" x="236.25" y="-44.5" font-family="Helvetica,sans-Serif" font-size="10.00">LGE::Analytics::RecordLoad</text>
</a>
</g>
</g>
<!-- Node5&#45;&gt;Node9 -->
<g id="edge8_Node000005_Node000009" class="edge">
<title>Node5&#45;&gt;Node9</title>
<g id="a_edge8_Node000005_Node000009"><a xlink:title=" ">
<path fill="none" stroke="#63b8ff" d="M353.97,-73.15C331.76,-68.36 306.84,-62.99 285.75,-58.45"/>
<polygon fill="#63b8ff" stroke="#63b8ff" points="352.97,-76.51 363.48,-75.2 354.44,-69.67 352.97,-76.51"/>
</a>
</g>
</g>
<!-- Node10 -->
<g id="Node000010" class="node">
<title>Node10</title>
<g id="a_Node000010"><a xlink:href="namespaceLGE_1_1Analytics.html#a3ebeb1a9afaf7f7756e8097e0a301901" target="_top" xlink:title=" ">
<polygon fill="white" stroke="#666666" points="311.38,-20 161.12,-20 161.12,0 311.38,0 311.38,-20"/>
<text xml:space="preserve" text-anchor="middle" x="236.25" y="-6.5" font-family="Helvetica,sans-Serif" font-size="10.00">LGE::Analytics::RecordUnload</text>
</a>
</g>
</g>
<!-- Node5&#45;&gt;Node10 -->
<g id="edge9_Node000005_Node000010" class="edge">
<title>Node5&#45;&gt;Node10</title>
<g id="a_edge9_Node000005_Node000010"><a xlink:title=" ">
<path fill="none" stroke="#63b8ff" d="M356.22,-71.18C353.55,-69.89 350.96,-68.5 348.5,-67 328.64,-54.88 332.57,-40.76 312.5,-29 306.69,-25.59 300.27,-22.8 293.72,-20.49"/>
<polygon fill="#63b8ff" stroke="#63b8ff" points="354.82,-74.39 365.4,-75.04 357.54,-67.94 354.82,-74.39"/>
</a>
</g>
</g>
<!-- Node8 -->
<g id="Node000008" class="node">
<title>Node8</title>
<g id="a_Node000008"><a xlink:href="namespaceLGE_1_1Analytics.html#a2e264bb005b5ce7c21123364bfbad823" target="_top" xlink:title=" ">
<polygon fill="white" stroke="#666666" points="124,-96 0,-96 0,-76 124,-76 124,-96"/>
<text xml:space="preserve" text-anchor="middle" x="62" y="-82.5" font-family="Helvetica,sans-Serif" font-size="10.00">LGE::Analytics::Initialize</text>
</a>
</g>
</g>
<!-- Node7&#45;&gt;Node8 -->
<g id="edge7_Node000007_Node000008" class="edge">
<title>Node7&#45;&gt;Node8</title>
<g id="a_edge7_Node000007_Node000008"><a xlink:title=" ">
<path fill="none" stroke="#63b8ff" d="M148.27,-86C140.16,-86 132.07,-86 124.28,-86"/>
<polygon fill="#63b8ff" stroke="#63b8ff" points="148.19,-89.5 158.19,-86 148.19,-82.5 148.19,-89.5"/>
</a>
</g>
</g>
</g>
</svg>
