<?xml version="1.0" encoding="UTF-8" standalone="no"?>
<!DOCTYPE svg PUBLIC "-//W3C//DTD SVG 1.1//EN"
 "http://www.w3.org/Graphics/SVG/1.1/DTD/svg11.dtd">
<!-- Generated by graphviz version 14.0.2 (20251019.1705)
 -->
<!-- Title: LGE::Dependencies::ValidateAssetReferences Pages: 1 -->
<svg width="617pt" height="242pt"
 viewBox="0.00 0.00 617.00 242.00" xmlns="http://www.w3.org/2000/svg" xmlns:xlink="http://www.w3.org/1999/xlink">
<g id="graph0" class="graph" transform="scale(1 1) rotate(0) translate(4 238)">
<title>LGE::Dependencies::ValidateAssetReferences</title>
<!-- Node1 -->
<g id="Node000001" class="node">
<title>Node1</title>
<g id="a_Node000001"><a xlink:title=" ">
<polygon fill="#999999" stroke="#666666" points="608.5,-190 482.25,-190 482.25,-158 608.5,-158 608.5,-190"/>
<text xml:space="preserve" text-anchor="start" x="490.25" y="-176.5" font-family="Helvetica,sans-Serif" font-size="10.00">LGE::Dependencies::</text>
<text xml:space="preserve" text-anchor="middle" x="545.38" y="-164.5" font-family="Helvetica,sans-Serif" font-size="10.00">ValidateAssetReferences</text>
</a>
</g>
</g>
<!-- Node2 -->
<g id="Node000002" class="node">
<title>Node2</title>
<g id="a_Node000002"><a xlink:href="namespaceLGE_1_1Validation.html#a5ed2957323e8381437806ac0d0fd02cf" target="_top" xlink:title=" ">
<polygon fill="white" stroke="#666666" points="286.25,-184 139.75,-184 139.75,-164 286.25,-164 286.25,-184"/>
<text xml:space="preserve" text-anchor="middle" x="213" y="-170.5" font-family="Helvetica,sans-Serif" font-size="10.00">LGE::Validation::CheckHealth</text>
</a>
</g>
</g>
<!-- Node1&#45;&gt;Node2 -->
<g id="edge1_Node000001_Node000002" class="edge">
<title>Node1&#45;&gt;Node2</title>
<g id="a_edge1_Node000001_Node000002"><a xlink:title=" ">
<path fill="none" stroke="#63b8ff" d="M470.45,-174C415.6,-174 341.18,-174 286.63,-174"/>
<polygon fill="#63b8ff" stroke="#63b8ff" points="470.33,-177.5 480.33,-174 470.33,-170.5 470.33,-177.5"/>
</a>
</g>
</g>
<!-- Node3 -->
<g id="Node000003" class="node">
<title>Node3</title>
<g id="a_Node000003"><a xlink:href="namespaceLGE_1_1ImportExport.html#af78ec4a5e430226c5054a220cedc76b1" target="_top" xlink:title=" ">
<polygon fill="white" stroke="#666666" points="436.12,-234 332.38,-234 332.38,-202 436.12,-202 436.12,-234"/>
<text xml:space="preserve" text-anchor="start" x="340.38" y="-220.5" font-family="Helvetica,sans-Serif" font-size="10.00">LGE::ImportExport::</text>
<text xml:space="preserve" text-anchor="middle" x="384.25" y="-208.5" font-family="Helvetica,sans-Serif" font-size="10.00">ImportFile</text>
</a>
</g>
</g>
<!-- Node1&#45;&gt;Node3 -->
<g id="edge2_Node000001_Node000003" class="edge">
<title>Node1&#45;&gt;Node3</title>
<g id="a_edge2_Node000001_Node000003"><a xlink:title=" ">
<path fill="none" stroke="#63b8ff" d="M474.1,-193.43C461.44,-196.93 448.45,-200.53 436.45,-203.84"/>
<polygon fill="#63b8ff" stroke="#63b8ff" points="474.96,-196.83 483.66,-190.79 473.09,-190.08 474.96,-196.83"/>
</a>
</g>
</g>
<!-- Node6 -->
<g id="Node000006" class="node">
<title>Node6</title>
<g id="a_Node000006"><a xlink:href="namespaceLGE_1_1Validation.html#ae388b93a917b4462203ff6011eb925db" target="_top" xlink:title=" ">
<polygon fill="white" stroke="#666666" points="446.25,-127 322.25,-127 322.25,-95 446.25,-95 446.25,-127"/>
<text xml:space="preserve" text-anchor="start" x="330.25" y="-113.5" font-family="Helvetica,sans-Serif" font-size="10.00">LGE::Validation::Validate</text>
<text xml:space="preserve" text-anchor="middle" x="384.25" y="-101.5" font-family="Helvetica,sans-Serif" font-size="10.00">Asset</text>
</a>
</g>
</g>
<!-- Node1&#45;&gt;Node6 -->
<g id="edge5_Node000001_Node000006" class="edge">
<title>Node1&#45;&gt;Node6</title>
<g id="a_edge5_Node000001_Node000006"><a xlink:title=" ">
<path fill="none" stroke="#63b8ff" d="M492.47,-153.45C471.15,-145.01 446.81,-135.37 426.71,-127.42"/>
<polygon fill="#63b8ff" stroke="#63b8ff" points="490.99,-156.63 501.57,-157.05 493.57,-150.12 490.99,-156.63"/>
</a>
</g>
</g>
<!-- Node4 -->
<g id="Node000004" class="node">
<title>Node4</title>
<g id="a_Node000004"><a xlink:href="namespaceLGE_1_1ImportExport.html#ae8496d7d19ac15289295442d11349580" target="_top" xlink:title=" ">
<polygon fill="white" stroke="#666666" points="264.88,-234 161.12,-234 161.12,-202 264.88,-202 264.88,-234"/>
<text xml:space="preserve" text-anchor="start" x="169.12" y="-220.5" font-family="Helvetica,sans-Serif" font-size="10.00">LGE::ImportExport::</text>
<text xml:space="preserve" text-anchor="middle" x="213" y="-208.5" font-family="Helvetica,sans-Serif" font-size="10.00">ImportFiles</text>
</a>
</g>
</g>
<!-- Node3&#45;&gt;Node4 -->
<g id="edge3_Node000003_Node000004" class="edge">
<title>Node3&#45;&gt;Node4</title>
<g id="a_edge3_Node000003_Node000004"><a xlink:title=" ">
<path fill="none" stroke="#63b8ff" d="M320.61,-218C302.42,-218 282.77,-218 265.36,-218"/>
<polygon fill="#63b8ff" stroke="#63b8ff" points="320.5,-221.5 330.5,-218 320.5,-214.5 320.5,-221.5"/>
</a>
</g>
</g>
<!-- Node5 -->
<g id="Node000005" class="node">
<title>Node5</title>
<g id="a_Node000005"><a xlink:href="namespaceLGE_1_1ImportExport.html#a8220fcef46f5c3ab8c10c64fd5860668" target="_top" xlink:title=" ">
<polygon fill="white" stroke="#666666" points="103.75,-234 0,-234 0,-202 103.75,-202 103.75,-234"/>
<text xml:space="preserve" text-anchor="start" x="8" y="-220.5" font-family="Helvetica,sans-Serif" font-size="10.00">LGE::ImportExport::</text>
<text xml:space="preserve" text-anchor="middle" x="51.88" y="-208.5" font-family="Helvetica,sans-Serif" font-size="10.00">ImportDirectory</text>
</a>
</g>
</g>
<!-- Node4&#45;&gt;Node5 -->
<g id="edge4_Node000004_Node000005" class="edge">
<title>Node4&#45;&gt;Node5</title>
<g id="a_edge4_Node000004_Node000005"><a xlink:title=" ">
<path fill="none" stroke="#63b8ff" d="M149.46,-218C134.4,-218 118.48,-218 104,-218"/>
<polygon fill="#63b8ff" stroke="#63b8ff" points="149.26,-221.5 159.26,-218 149.26,-214.5 149.26,-221.5"/>
</a>
</g>
</g>
<!-- Node6&#45;&gt;Node2 -->
<g id="edge6_Node000006_Node000002" class="edge">
<title>Node6&#45;&gt;Node2</title>
<g id="a_edge6_Node000006_Node000002"><a xlink:title=" ">
<path fill="none" stroke="#63b8ff" d="M340.6,-132.23C323.91,-140.03 304.43,-148.54 286.25,-155 277.45,-158.13 267.89,-161 258.68,-163.51"/>
<polygon fill="#63b8ff" stroke="#63b8ff" points="341.7,-135.58 349.23,-128.13 338.7,-129.26 341.7,-135.58"/>
</a>
</g>
</g>
<!-- Node7 -->
<g id="Node000007" class="node">
<title>Node7</title>
<g id="a_Node000007"><a xlink:href="namespaceLGE_1_1Bundles.html#aa9d4c4452f76b1187a963bea3168be71" target="_top" xlink:title=" ">
<polygon fill="white" stroke="#666666" points="284,-58 142,-58 142,-38 284,-38 284,-58"/>
<text xml:space="preserve" text-anchor="middle" x="213" y="-44.5" font-family="Helvetica,sans-Serif" font-size="10.00">LGE::Bundles::CreateBundle</text>
</a>
</g>
</g>
<!-- Node6&#45;&gt;Node7 -->
<g id="edge7_Node000006_Node000007" class="edge">
<title>Node6&#45;&gt;Node7</title>
<g id="a_edge7_Node000006_Node000007"><a xlink:title=" ">
<path fill="none" stroke="#63b8ff" d="M340.6,-89.77C323.91,-81.97 304.43,-73.46 286.25,-67 277.45,-63.87 267.89,-61 258.68,-58.49"/>
<polygon fill="#63b8ff" stroke="#63b8ff" points="338.7,-92.74 349.23,-93.87 341.7,-86.42 338.7,-92.74"/>
</a>
</g>
</g>
<!-- Node8 -->
<g id="Node000008" class="node">
<title>Node8</title>
<g id="a_Node000008"><a xlink:href="namespaceLGE_1_1Validation.html#a467a0168bbefb71a643b4764f249c376" target="_top" xlink:title=" ">
<polygon fill="white" stroke="#666666" points="284.75,-20 141.25,-20 141.25,0 284.75,0 284.75,-20"/>
<text xml:space="preserve" text-anchor="middle" x="213" y="-6.5" font-family="Helvetica,sans-Serif" font-size="10.00">LGE::Validation::RepairAsset</text>
</a>
</g>
</g>
<!-- Node6&#45;&gt;Node8 -->
<g id="edge8_Node000006_Node000008" class="edge">
<title>Node6&#45;&gt;Node8</title>
<g id="a_edge8_Node000006_Node000008"><a xlink:title=" ">
<path fill="none" stroke="#63b8ff" d="M360.62,-86.7C342.23,-68.33 314.75,-43.82 286.25,-29 279.69,-25.59 272.47,-22.76 265.21,-20.41"/>
<polygon fill="#63b8ff" stroke="#63b8ff" points="357.84,-88.87 367.34,-93.57 362.85,-83.97 357.84,-88.87"/>
</a>
</g>
</g>
<!-- Node9 -->
<g id="Node000009" class="node">
<title>Node9</title>
<g id="a_Node000009"><a xlink:href="namespaceLGE_1_1Validation.html#ab5e87b018ce35925ea7bc7cd1f6b6a87" target="_top" xlink:title=" ">
<polygon fill="white" stroke="#666666" points="280.62,-146 145.38,-146 145.38,-126 280.62,-126 280.62,-146"/>
<text xml:space="preserve" text-anchor="middle" x="213" y="-132.5" font-family="Helvetica,sans-Serif" font-size="10.00">LGE::Validation::ValidateAll</text>
</a>
</g>
</g>
<!-- Node6&#45;&gt;Node9 -->
<g id="edge9_Node000006_Node000009" class="edge">
<title>Node6&#45;&gt;Node9</title>
<g id="a_edge9_Node000006_Node000009"><a xlink:title=" ">
<path fill="none" stroke="#63b8ff" d="M311.03,-121.67C301.08,-123.14 290.89,-124.64 281.03,-126.1"/>
<polygon fill="#63b8ff" stroke="#63b8ff" points="311.27,-125.17 320.65,-120.25 310.25,-118.25 311.27,-125.17"/>
</a>
</g>
</g>
<!-- Node10 -->
<g id="Node000010" class="node">
<title>Node10</title>
<g id="a_Node000010"><a xlink:href="namespaceLGE_1_1Validation.html#a79589cf3c193492d81b8c87268350ce5" target="_top" xlink:title=" ">
<polygon fill="white" stroke="#666666" points="275,-108 151,-108 151,-76 275,-76 275,-108"/>
<text xml:space="preserve" text-anchor="start" x="159" y="-94.5" font-family="Helvetica,sans-Serif" font-size="10.00">LGE::Validation::Validate</text>
<text xml:space="preserve" text-anchor="middle" x="213" y="-82.5" font-family="Helvetica,sans-Serif" font-size="10.00">Assets</text>
</a>
</g>
</g>
<!-- Node6&#45;&gt;Node10 -->
<g id="edge10_Node000006_Node000010" class="edge">
<title>Node6&#45;&gt;Node10</title>
<g id="a_edge10_Node000006_Node000010"><a xlink:title=" ">
<path fill="none" stroke="#63b8ff" d="M310.91,-102.88C299.05,-101.55 286.86,-100.18 275.3,-98.88"/>
<polygon fill="#63b8ff" stroke="#63b8ff" points="310.31,-106.33 320.64,-103.97 311.1,-99.38 310.31,-106.33"/>
</a>
</g>
</g>
</g>
</svg>
