<?xml version="1.0" encoding="UTF-8" standalone="no"?>
<!DOCTYPE svg PUBLIC "-//W3C//DTD SVG 1.1//EN"
 "http://www.w3.org/Graphics/SVG/1.1/DTD/svg11.dtd">
<!-- Generated by graphviz version 14.0.2 (20251019.1705)
 -->
<!-- Title: LGE::VFS::MountPath Pages: 1 -->
<svg width="401pt" height="80pt"
 viewBox="0.00 0.00 401.00 80.00" xmlns="http://www.w3.org/2000/svg" xmlns:xlink="http://www.w3.org/1999/xlink">
<g id="graph0" class="graph" transform="scale(1 1) rotate(0) translate(4 75.66)">
<title>LGE::VFS::MountPath</title>
<!-- Node1 -->
<g id="Node000001" class="node">
<title>Node1</title>
<g id="a_Node000001"><a xlink:title=" ">
<polygon fill="#999999" stroke="#666666" points="114.25,-58 0,-58 0,-38 114.25,-38 114.25,-58"/>
<text xml:space="preserve" text-anchor="middle" x="57.12" y="-44.5" font-family="Helvetica,sans-Serif" font-size="10.00">LGE::VFS::MountPath</text>
</a>
</g>
</g>
<!-- Node2 -->
<g id="Node000002" class="node">
<title>Node2</title>
<g id="a_Node000002"><a xlink:href="classLGE_1_1Log.html#a53f3f4b8797ffd18145739c9e66d690a" target="_top" xlink:title=" ">
<polygon fill="white" stroke="#666666" points="393,-58 308.75,-58 308.75,-38 393,-38 393,-58"/>
<text xml:space="preserve" text-anchor="middle" x="350.88" y="-44.5" font-family="Helvetica,sans-Serif" font-size="10.00">LGE::Log::Error</text>
</a>
</g>
</g>
<!-- Node1&#45;&gt;Node2 -->
<g id="edge1_Node000001_Node000002" class="edge">
<title>Node1&#45;&gt;Node2</title>
<g id="a_edge1_Node000001_Node000002"><a xlink:title=" ">
<path fill="none" stroke="#63b8ff" d="M99.58,-58.42C115.33,-61.88 133.52,-65.29 150.25,-67 204.41,-72.53 218.7,-73.56 272.75,-67 283.1,-65.74 294.07,-63.57 304.39,-61.13"/>
<polygon fill="#63b8ff" stroke="#63b8ff" points="304.95,-64.6 313.8,-58.78 303.25,-57.81 304.95,-64.6"/>
</a>
</g>
</g>
<!-- Node3 -->
<g id="Node000003" class="node">
<title>Node3</title>
<g id="a_Node000003"><a xlink:href="classLGE_1_1Log.html#ab0265ee050b8873a2fd31fbdb696ced0" target="_top" xlink:title=" ">
<polygon fill="white" stroke="#666666" points="251.38,-58 171.62,-58 171.62,-38 251.38,-38 251.38,-58"/>
<text xml:space="preserve" text-anchor="middle" x="211.5" y="-44.5" font-family="Helvetica,sans-Serif" font-size="10.00">LGE::Log::Info</text>
</a>
</g>
</g>
<!-- Node1&#45;&gt;Node3 -->
<g id="edge2_Node000001_Node000003" class="edge">
<title>Node1&#45;&gt;Node3</title>
<g id="a_edge2_Node000001_Node000003"><a xlink:title=" ">
<path fill="none" stroke="#63b8ff" d="M114.43,-48C129.42,-48 145.5,-48 160.15,-48"/>
<polygon fill="#63b8ff" stroke="#63b8ff" points="160.02,-51.5 170.02,-48 160.02,-44.5 160.02,-51.5"/>
</a>
</g>
</g>
<!-- Node4 -->
<g id="Node000004" class="node">
<title>Node4</title>
<g id="a_Node000004"><a xlink:href="namespaceLGE_1_1LxPath.html#a314a60ce690c90f4ee0b4e64c0199408" target="_top" xlink:title=" ">
<polygon fill="white" stroke="#666666" points="272.75,-20 150.25,-20 150.25,0 272.75,0 272.75,-20"/>
<text xml:space="preserve" text-anchor="middle" x="211.5" y="-6.5" font-family="Helvetica,sans-Serif" font-size="10.00">LGE::LxPath::Normalize</text>
</a>
</g>
</g>
<!-- Node1&#45;&gt;Node4 -->
<g id="edge3_Node000001_Node000004" class="edge">
<title>Node1&#45;&gt;Node4</title>
<g id="a_edge3_Node000001_Node000004"><a xlink:title=" ">
<path fill="none" stroke="#63b8ff" d="M100.17,-37.52C117.9,-33.09 138.75,-27.89 157.52,-23.21"/>
<polygon fill="#63b8ff" stroke="#63b8ff" points="158.27,-26.63 167.13,-20.82 156.58,-19.84 158.27,-26.63"/>
</a>
</g>
</g>
<!-- Node4&#45;&gt;Node2 -->
<g id="edge4_Node000004_Node000002" class="edge">
<title>Node4&#45;&gt;Node2</title>
<g id="a_edge4_Node000004_Node000002"><a xlink:title=" ">
<path fill="none" stroke="#63b8ff" d="M250.4,-20.48C266.17,-24.85 284.66,-29.96 301.4,-34.59"/>
<polygon fill="#63b8ff" stroke="#63b8ff" points="300.07,-37.85 310.64,-37.15 301.93,-31.11 300.07,-37.85"/>
</a>
</g>
</g>
</g>
</svg>
