<?xml version="1.0" encoding="UTF-8" standalone="no"?>
<!DOCTYPE svg PUBLIC "-//W3C//DTD SVG 1.1//EN"
 "http://www.w3.org/Graphics/SVG/1.1/DTD/svg11.dtd">
<!-- Generated by graphviz version 14.0.2 (20251019.1705)
 -->
<!-- Title: LGE::VFS::MountPath Pages: 1 -->
<svg width="725pt" height="872pt"
 viewBox="0.00 0.00 725.00 872.00" xmlns="http://www.w3.org/2000/svg" xmlns:xlink="http://www.w3.org/1999/xlink">
<g id="graph0" class="graph" transform="scale(1 1) rotate(0) translate(4 868)">
<title>LGE::VFS::MountPath</title>
<!-- Node1 -->
<g id="Node000001" class="node">
<title>Node1</title>
<g id="a_Node000001"><a xlink:title=" ">
<polygon fill="#999999" stroke="#666666" points="716.75,-299 602.5,-299 602.5,-279 716.75,-279 716.75,-299"/>
<text xml:space="preserve" text-anchor="middle" x="659.62" y="-285.5" font-family="Helvetica,sans-Serif" font-size="10.00">LGE::VFS::MountPath</text>
</a>
</g>
</g>
<!-- Node2 -->
<g id="Node000002" class="node">
<title>Node2</title>
<g id="a_Node000002"><a xlink:href="namespaceLGE_1_1VFS.html#a5cea8543475162be752c71971f1f4e85" target="_top" xlink:title=" ">
<polygon fill="white" stroke="#666666" points="566.5,-406 432,-406 432,-374 566.5,-374 566.5,-406"/>
<text xml:space="preserve" text-anchor="start" x="440" y="-392.5" font-family="Helvetica,sans-Serif" font-size="10.00">LGE::VFS::InitializeDefault</text>
<text xml:space="preserve" text-anchor="middle" x="499.25" y="-380.5" font-family="Helvetica,sans-Serif" font-size="10.00">Mounts</text>
</a>
</g>
</g>
<!-- Node1&#45;&gt;Node2 -->
<g id="edge1_Node000001_Node000002" class="edge">
<title>Node1&#45;&gt;Node2</title>
<g id="a_edge1_Node000001_Node000002"><a xlink:title=" ">
<path fill="none" stroke="#63b8ff" d="M640.19,-307.36C622.51,-324.16 594.45,-348.8 566.5,-365 561.08,-368.14 555.18,-371.03 549.22,-373.63"/>
<polygon fill="#63b8ff" stroke="#63b8ff" points="642.6,-309.9 647.34,-300.43 637.73,-304.87 642.6,-309.9"/>
</a>
</g>
</g>
<!-- Node27 -->
<g id="Node000027" class="node">
<title>Node27</title>
<g id="a_Node000027"><a xlink:href="TestVFS_8cpp.html#afd6aae8be69e6568f133f370a1cbc6f5" target="_top" xlink:title=" ">
<polygon fill="white" stroke="#666666" points="520,-356 478.5,-356 478.5,-336 520,-336 520,-356"/>
<text xml:space="preserve" text-anchor="middle" x="499.25" y="-342.5" font-family="Helvetica,sans-Serif" font-size="10.00">TEST</text>
</a>
</g>
</g>
<!-- Node1&#45;&gt;Node27 -->
<g id="edge30_Node000001_Node000027" class="edge">
<title>Node1&#45;&gt;Node27</title>
<g id="a_edge30_Node000001_Node000027"><a xlink:title=" ">
<path fill="none" stroke="#63b8ff" d="M625.24,-303.83C607.9,-311.26 586.25,-320.12 566.5,-327 551.25,-332.31 533.66,-337.31 520.44,-340.84"/>
<polygon fill="#63b8ff" stroke="#63b8ff" points="626.25,-307.2 634.04,-300.02 623.47,-300.78 626.25,-307.2"/>
</a>
</g>
</g>
<!-- Node28 -->
<g id="Node000028" class="node">
<title>Node28</title>
<g id="a_Node000028"><a xlink:href="TestVFS_8cpp.html#a38c81668e929b8e631ac7f8565168f65" target="_top" xlink:title=" ">
<polygon fill="white" stroke="#666666" points="520,-318 478.5,-318 478.5,-298 520,-298 520,-318"/>
<text xml:space="preserve" text-anchor="middle" x="499.25" y="-304.5" font-family="Helvetica,sans-Serif" font-size="10.00">TEST</text>
</a>
</g>
</g>
<!-- Node1&#45;&gt;Node28 -->
<g id="edge31_Node000001_Node000028" class="edge">
<title>Node1&#45;&gt;Node28</title>
<g id="a_edge31_Node000001_Node000028"><a xlink:title=" ">
<path fill="none" stroke="#63b8ff" d="M591.09,-297.1C565.41,-300.18 538.07,-303.46 520.17,-305.61"/>
<polygon fill="#63b8ff" stroke="#63b8ff" points="591.33,-300.6 600.84,-295.93 590.49,-293.65 591.33,-300.6"/>
</a>
</g>
</g>
<!-- Node29 -->
<g id="Node000029" class="node">
<title>Node29</title>
<g id="a_Node000029"><a xlink:href="TestVFS_8cpp.html#a1cc06d54f74c901bab66b63fa9bcdca8" target="_top" xlink:title=" ">
<polygon fill="white" stroke="#666666" points="520,-280 478.5,-280 478.5,-260 520,-260 520,-280"/>
<text xml:space="preserve" text-anchor="middle" x="499.25" y="-266.5" font-family="Helvetica,sans-Serif" font-size="10.00">TEST</text>
</a>
</g>
</g>
<!-- Node1&#45;&gt;Node29 -->
<g id="edge32_Node000001_Node000029" class="edge">
<title>Node1&#45;&gt;Node29</title>
<g id="a_edge32_Node000001_Node000029"><a xlink:title=" ">
<path fill="none" stroke="#63b8ff" d="M591.09,-280.9C565.41,-277.82 538.07,-274.54 520.17,-272.39"/>
<polygon fill="#63b8ff" stroke="#63b8ff" points="590.49,-284.35 600.84,-282.07 591.33,-277.4 590.49,-284.35"/>
</a>
</g>
</g>
<!-- Node30 -->
<g id="Node000030" class="node">
<title>Node30</title>
<g id="a_Node000030"><a xlink:href="TestVFS_8cpp.html#a177f4e713104598ca9f9a731092df9a3" target="_top" xlink:title=" ">
<polygon fill="white" stroke="#666666" points="520,-242 478.5,-242 478.5,-222 520,-222 520,-242"/>
<text xml:space="preserve" text-anchor="middle" x="499.25" y="-228.5" font-family="Helvetica,sans-Serif" font-size="10.00">TEST</text>
</a>
</g>
</g>
<!-- Node1&#45;&gt;Node30 -->
<g id="edge33_Node000001_Node000030" class="edge">
<title>Node1&#45;&gt;Node30</title>
<g id="a_edge33_Node000001_Node000030"><a xlink:title=" ">
<path fill="none" stroke="#63b8ff" d="M625.24,-274.17C607.9,-266.74 586.25,-257.88 566.5,-251 551.25,-245.69 533.66,-240.69 520.44,-237.16"/>
<polygon fill="#63b8ff" stroke="#63b8ff" points="623.47,-277.22 634.04,-277.98 626.25,-270.8 623.47,-277.22"/>
</a>
</g>
</g>
<!-- Node31 -->
<g id="Node000031" class="node">
<title>Node31</title>
<g id="a_Node000031"><a xlink:href="TestVFS_8cpp.html#ad1c2f1a3661bf49370ca76e5c43c8ef8" target="_top" xlink:title=" ">
<polygon fill="white" stroke="#666666" points="520,-204 478.5,-204 478.5,-184 520,-184 520,-204"/>
<text xml:space="preserve" text-anchor="middle" x="499.25" y="-190.5" font-family="Helvetica,sans-Serif" font-size="10.00">TEST</text>
</a>
</g>
</g>
<!-- Node1&#45;&gt;Node31 -->
<g id="edge34_Node000001_Node000031" class="edge">
<title>Node1&#45;&gt;Node31</title>
<g id="a_edge34_Node000001_Node000031"><a xlink:title=" ">
<path fill="none" stroke="#63b8ff" d="M640.77,-270.39C623.32,-253.21 595.25,-228.13 566.5,-213 551.99,-205.36 534.04,-200.46 520.48,-197.55"/>
<polygon fill="#63b8ff" stroke="#63b8ff" points="638.28,-272.85 647.81,-277.49 643.25,-267.92 638.28,-272.85"/>
</a>
</g>
</g>
<!-- Node3 -->
<g id="Node000003" class="node">
<title>Node3</title>
<g id="a_Node000003"><a xlink:href="BenchmarkFS_8cpp.html#ab029f67ffb106edc6d219aadc7aee238" target="_top" xlink:title=" ">
<polygon fill="white" stroke="#666666" points="374.62,-864 267.12,-864 267.12,-832 374.62,-832 374.62,-864"/>
<text xml:space="preserve" text-anchor="start" x="275.12" y="-850.5" font-family="Helvetica,sans-Serif" font-size="10.00">Benchmark_Registry</text>
<text xml:space="preserve" text-anchor="middle" x="320.88" y="-838.5" font-family="Helvetica,sans-Serif" font-size="10.00">_Scan_Large</text>
</a>
</g>
</g>
<!-- Node2&#45;&gt;Node3 -->
<g id="edge2_Node000002_Node000003" class="edge">
<title>Node2&#45;&gt;Node3</title>
<g id="a_edge2_Node000002_Node000003"><a xlink:title=" ">
<path fill="none" stroke="#63b8ff" d="M495.26,-417.37C485.4,-502.76 451.4,-762.17 396,-823 390.24,-829.33 382.82,-834.05 374.92,-837.58"/>
<polygon fill="#63b8ff" stroke="#63b8ff" points="498.72,-417.91 496.36,-407.58 491.76,-417.13 498.72,-417.91"/>
</a>
</g>
</g>
<!-- Node4 -->
<g id="Node000004" class="node">
<title>Node4</title>
<g id="a_Node000004"><a xlink:href="BenchmarkFS_8cpp.html#ab9a728100bf27df8671c37d3a29bbea1" target="_top" xlink:title=" ">
<polygon fill="white" stroke="#666666" points="374.62,-814 267.12,-814 267.12,-782 374.62,-782 374.62,-814"/>
<text xml:space="preserve" text-anchor="start" x="275.12" y="-800.5" font-family="Helvetica,sans-Serif" font-size="10.00">Benchmark_Registry</text>
<text xml:space="preserve" text-anchor="middle" x="320.88" y="-788.5" font-family="Helvetica,sans-Serif" font-size="10.00">_Scan_Medium</text>
</a>
</g>
</g>
<!-- Node2&#45;&gt;Node4 -->
<g id="edge3_Node000002_Node000004" class="edge">
<title>Node2&#45;&gt;Node4</title>
<g id="a_edge3_Node000002_Node000004"><a xlink:title=" ">
<path fill="none" stroke="#63b8ff" d="M499.19,-417.59C499.99,-486.91 492.36,-670.22 396,-773 390.15,-779.24 382.69,-783.93 374.76,-787.44"/>
<polygon fill="#63b8ff" stroke="#63b8ff" points="502.69,-417.82 499,-407.89 495.69,-417.95 502.69,-417.82"/>
</a>
</g>
</g>
<!-- Node7 -->
<g id="Node000007" class="node">
<title>Node7</title>
<g id="a_Node000007"><a xlink:href="BenchmarkFS_8cpp.html#aa44cb85b0759f1cfddf700acff100f97" target="_top" xlink:title=" ">
<polygon fill="white" stroke="#666666" points="374.62,-764 267.12,-764 267.12,-732 374.62,-732 374.62,-764"/>
<text xml:space="preserve" text-anchor="start" x="275.12" y="-750.5" font-family="Helvetica,sans-Serif" font-size="10.00">Benchmark_Registry</text>
<text xml:space="preserve" text-anchor="middle" x="320.88" y="-738.5" font-family="Helvetica,sans-Serif" font-size="10.00">_Scan_Small</text>
</a>
</g>
</g>
<!-- Node2&#45;&gt;Node7 -->
<g id="edge6_Node000002_Node000007" class="edge">
<title>Node2&#45;&gt;Node7</title>
<g id="a_edge6_Node000002_Node000007"><a xlink:title=" ">
<path fill="none" stroke="#63b8ff" d="M497.84,-417.8C495.4,-480.86 480.61,-636.04 396,-723 390.13,-729.03 382.75,-733.61 374.95,-737.09"/>
<polygon fill="#63b8ff" stroke="#63b8ff" points="501.34,-418.07 498.14,-407.97 494.34,-417.86 501.34,-418.07"/>
</a>
</g>
</g>
<!-- Node8 -->
<g id="Node000008" class="node">
<title>Node8</title>
<g id="a_Node000008"><a xlink:href="BenchmarkFS_8cpp.html#a3442e7b685b914cc8075873db73300d8" target="_top" xlink:title=" ">
<polygon fill="white" stroke="#666666" points="374.62,-714 267.12,-714 267.12,-682 374.62,-682 374.62,-714"/>
<text xml:space="preserve" text-anchor="start" x="275.12" y="-700.5" font-family="Helvetica,sans-Serif" font-size="10.00">Benchmark_Registry</text>
<text xml:space="preserve" text-anchor="middle" x="320.88" y="-688.5" font-family="Helvetica,sans-Serif" font-size="10.00">_Search_Fuzzy</text>
</a>
</g>
</g>
<!-- Node2&#45;&gt;Node8 -->
<g id="edge8_Node000002_Node000008" class="edge">
<title>Node2&#45;&gt;Node8</title>
<g id="a_edge8_Node000002_Node000008"><a xlink:title=" ">
<path fill="none" stroke="#63b8ff" d="M496.06,-417.81C490.17,-473.93 469.06,-601.49 396,-673 390.08,-678.79 382.77,-683.25 375.07,-686.67"/>
<polygon fill="#63b8ff" stroke="#63b8ff" points="499.55,-418.15 497.01,-407.86 492.58,-417.48 499.55,-418.15"/>
</a>
</g>
</g>
<!-- Node9 -->
<g id="Node000009" class="node">
<title>Node9</title>
<g id="a_Node000009"><a xlink:href="BenchmarkFS_8cpp.html#a6e215b65128db1abca9661a02a708fe7" target="_top" xlink:title=" ">
<polygon fill="white" stroke="#666666" points="374.62,-664 267.12,-664 267.12,-632 374.62,-632 374.62,-664"/>
<text xml:space="preserve" text-anchor="start" x="275.12" y="-650.5" font-family="Helvetica,sans-Serif" font-size="10.00">Benchmark_Registry</text>
<text xml:space="preserve" text-anchor="middle" x="320.88" y="-638.5" font-family="Helvetica,sans-Serif" font-size="10.00">_Search_GUID</text>
</a>
</g>
</g>
<!-- Node2&#45;&gt;Node9 -->
<g id="edge10_Node000002_Node000009" class="edge">
<title>Node2&#45;&gt;Node9</title>
<g id="a_edge10_Node000002_Node000009"><a xlink:title=" ">
<path fill="none" stroke="#63b8ff" d="M493.63,-417.6C484.09,-466.02 457.73,-566.49 396,-623 389.99,-628.5 382.72,-632.8 375.12,-636.15"/>
<polygon fill="#63b8ff" stroke="#63b8ff" points="497.03,-418.43 495.42,-407.96 490.15,-417.15 497.03,-418.43"/>
</a>
</g>
</g>
<!-- Node10 -->
<g id="Node000010" class="node">
<title>Node10</title>
<g id="a_Node000010"><a xlink:href="BenchmarkFS_8cpp.html#a1d7ed07006c36462715eb9e933bb0bac" target="_top" xlink:title=" ">
<polygon fill="white" stroke="#666666" points="374.62,-614 267.12,-614 267.12,-582 374.62,-582 374.62,-614"/>
<text xml:space="preserve" text-anchor="start" x="275.12" y="-600.5" font-family="Helvetica,sans-Serif" font-size="10.00">Benchmark_Registry</text>
<text xml:space="preserve" text-anchor="middle" x="320.88" y="-588.5" font-family="Helvetica,sans-Serif" font-size="10.00">_Search_Path</text>
</a>
</g>
</g>
<!-- Node2&#45;&gt;Node10 -->
<g id="edge12_Node000002_Node000010" class="edge">
<title>Node2&#45;&gt;Node10</title>
<g id="a_edge12_Node000002_Node000010"><a xlink:title=" ">
<path fill="none" stroke="#63b8ff" d="M490.14,-417C476.84,-456.75 446.7,-530.88 396,-573 389.84,-578.12 382.58,-582.21 375.05,-585.47"/>
<polygon fill="#63b8ff" stroke="#63b8ff" points="493.39,-418.33 493.12,-407.73 486.72,-416.18 493.39,-418.33"/>
</a>
</g>
</g>
<!-- Node11 -->
<g id="Node000011" class="node">
<title>Node11</title>
<g id="a_Node000011"><a xlink:href="classExampleApp.html#a535c41a1b822be3f2c6fd96e3f80f4b7" target="_top" xlink:title=" ">
<polygon fill="white" stroke="#666666" points="396,-564 245.75,-564 245.75,-532 396,-532 396,-564"/>
<text xml:space="preserve" text-anchor="start" x="253.75" y="-550.5" font-family="Helvetica,sans-Serif" font-size="10.00">ExampleApp::CompleteProject</text>
<text xml:space="preserve" text-anchor="middle" x="320.88" y="-538.5" font-family="Helvetica,sans-Serif" font-size="10.00">Loading</text>
</a>
</g>
</g>
<!-- Node2&#45;&gt;Node11 -->
<g id="edge14_Node000002_Node000011" class="edge">
<title>Node2&#45;&gt;Node11</title>
<g id="a_edge14_Node000002_Node000011"><a xlink:title=" ">
<path fill="none" stroke="#63b8ff" d="M484.48,-416.17C467.47,-446.07 435.85,-494.53 396,-523 391.47,-526.24 386.49,-529.08 381.32,-531.57"/>
<polygon fill="#63b8ff" stroke="#63b8ff" points="487.35,-418.2 489.14,-407.75 481.23,-414.81 487.35,-418.2"/>
</a>
</g>
</g>
<!-- Node13 -->
<g id="Node000013" class="node">
<title>Node13</title>
<g id="a_Node000013"><a xlink:href="namespaceLGE_1_1PackageMgr.html#a91e95886b10309daf8daf9a58c8a96fd" target="_top" xlink:title=" ">
<polygon fill="white" stroke="#666666" points="385.12,-514 256.62,-514 256.62,-494 385.12,-494 385.12,-514"/>
<text xml:space="preserve" text-anchor="middle" x="320.88" y="-500.5" font-family="Helvetica,sans-Serif" font-size="10.00">LGE::PackageMgr::Install</text>
</a>
</g>
</g>
<!-- Node2&#45;&gt;Node13 -->
<g id="edge16_Node000002_Node000013" class="edge">
<title>Node2&#45;&gt;Node13</title>
<g id="a_edge16_Node000002_Node000013"><a xlink:title=" ">
<path fill="none" stroke="#63b8ff" d="M477.76,-415.08C458.76,-436.72 428.57,-467.22 396,-485 389.7,-488.44 382.77,-491.27 375.74,-493.6"/>
<polygon fill="#63b8ff" stroke="#63b8ff" points="480.36,-417.43 484.21,-407.56 475.04,-412.87 480.36,-417.43"/>
</a>
</g>
</g>
<!-- Node14 -->
<g id="Node000014" class="node">
<title>Node14</title>
<g id="a_Node000014"><a xlink:href="namespaceLGE_1_1PackageMgr.html#aa1524a16034a31837f9821c520d5ed6f" target="_top" xlink:title=" ">
<polygon fill="white" stroke="#666666" points="385.12,-476 256.62,-476 256.62,-456 385.12,-456 385.12,-476"/>
<text xml:space="preserve" text-anchor="middle" x="320.88" y="-462.5" font-family="Helvetica,sans-Serif" font-size="10.00">LGE::PackageMgr::Install</text>
</a>
</g>
</g>
<!-- Node2&#45;&gt;Node14 -->
<g id="edge17_Node000002_Node000014" class="edge">
<title>Node2&#45;&gt;Node14</title>
<g id="a_edge17_Node000002_Node000014"><a xlink:title=" ">
<path fill="none" stroke="#63b8ff" d="M463.55,-412.29C444.26,-423.92 419.47,-437.63 396,-447 387.86,-450.25 378.99,-453.09 370.3,-455.51"/>
<polygon fill="#63b8ff" stroke="#63b8ff" points="465.12,-415.44 471.81,-407.23 461.46,-409.47 465.12,-415.44"/>
</a>
</g>
</g>
<!-- Node15 -->
<g id="Node000015" class="node">
<title>Node15</title>
<g id="a_Node000015"><a xlink:href="TestDependencies_8cpp.html#a27d08683b47752be5bf0771792fe84e1" target="_top" xlink:title=" ">
<polygon fill="white" stroke="#666666" points="341.62,-438 300.12,-438 300.12,-418 341.62,-418 341.62,-438"/>
<text xml:space="preserve" text-anchor="middle" x="320.88" y="-424.5" font-family="Helvetica,sans-Serif" font-size="10.00">TEST</text>
</a>
</g>
</g>
<!-- Node2&#45;&gt;Node15 -->
<g id="edge18_Node000002_Node000015" class="edge">
<title>Node2&#45;&gt;Node15</title>
<g id="a_edge18_Node000002_Node000015"><a xlink:title=" ">
<path fill="none" stroke="#63b8ff" d="M420.57,-406.74C391.6,-412.98 361.09,-419.55 341.8,-423.71"/>
<polygon fill="#63b8ff" stroke="#63b8ff" points="421.05,-410.21 430.09,-404.68 419.58,-403.37 421.05,-410.21"/>
</a>
</g>
</g>
<!-- Node16 -->
<g id="Node000016" class="node">
<title>Node16</title>
<g id="a_Node000016"><a xlink:href="TestDependencies_8cpp.html#a73f01e5c160074ed2ad795bd2b1ac7a2" target="_top" xlink:title=" ">
<polygon fill="white" stroke="#666666" points="341.62,-400 300.12,-400 300.12,-380 341.62,-380 341.62,-400"/>
<text xml:space="preserve" text-anchor="middle" x="320.88" y="-386.5" font-family="Helvetica,sans-Serif" font-size="10.00">TEST</text>
</a>
</g>
</g>
<!-- Node2&#45;&gt;Node16 -->
<g id="edge19_Node000002_Node000016" class="edge">
<title>Node2&#45;&gt;Node16</title>
<g id="a_edge19_Node000002_Node000016"><a xlink:title=" ">
<path fill="none" stroke="#63b8ff" d="M420.18,-390C391.33,-390 361,-390 341.8,-390"/>
<polygon fill="#63b8ff" stroke="#63b8ff" points="420.06,-393.5 430.06,-390 420.06,-386.5 420.06,-393.5"/>
</a>
</g>
</g>
<!-- Node17 -->
<g id="Node000017" class="node">
<title>Node17</title>
<g id="a_Node000017"><a xlink:href="TestDependencies_8cpp.html#ac7d0213aa008a4537d2b739ca96728af" target="_top" xlink:title=" ">
<polygon fill="white" stroke="#666666" points="341.62,-362 300.12,-362 300.12,-342 341.62,-342 341.62,-362"/>
<text xml:space="preserve" text-anchor="middle" x="320.88" y="-348.5" font-family="Helvetica,sans-Serif" font-size="10.00">TEST</text>
</a>
</g>
</g>
<!-- Node2&#45;&gt;Node17 -->
<g id="edge20_Node000002_Node000017" class="edge">
<title>Node2&#45;&gt;Node17</title>
<g id="a_edge20_Node000002_Node000017"><a xlink:title=" ">
<path fill="none" stroke="#63b8ff" d="M420.57,-373.26C391.6,-367.02 361.09,-360.45 341.8,-356.29"/>
<polygon fill="#63b8ff" stroke="#63b8ff" points="419.58,-376.63 430.09,-375.32 421.05,-369.79 419.58,-376.63"/>
</a>
</g>
</g>
<!-- Node18 -->
<g id="Node000018" class="node">
<title>Node18</title>
<g id="a_Node000018"><a xlink:href="TestDependencies_8cpp.html#a3eed8aa25f31b84b211af1815819d59e" target="_top" xlink:title=" ">
<polygon fill="white" stroke="#666666" points="341.62,-324 300.12,-324 300.12,-304 341.62,-304 341.62,-324"/>
<text xml:space="preserve" text-anchor="middle" x="320.88" y="-310.5" font-family="Helvetica,sans-Serif" font-size="10.00">TEST</text>
</a>
</g>
</g>
<!-- Node2&#45;&gt;Node18 -->
<g id="edge21_Node000002_Node000018" class="edge">
<title>Node2&#45;&gt;Node18</title>
<g id="a_edge21_Node000002_Node000018"><a xlink:title=" ">
<path fill="none" stroke="#63b8ff" d="M438.23,-368.52C436.1,-367.39 434.01,-366.22 432,-365 413.68,-353.93 414.9,-343.05 396,-333 378.99,-323.95 357.47,-319.06 342,-316.52"/>
<polygon fill="#63b8ff" stroke="#63b8ff" points="436.58,-371.62 447.1,-372.85 439.64,-365.32 436.58,-371.62"/>
</a>
</g>
</g>
<!-- Node19 -->
<g id="Node000019" class="node">
<title>Node19</title>
<g id="a_Node000019"><a xlink:href="TestDependencies_8cpp.html#ad6e5e8e9ab7331c10f47c0adead790ec" target="_top" xlink:title=" ">
<polygon fill="white" stroke="#666666" points="341.62,-286 300.12,-286 300.12,-266 341.62,-266 341.62,-286"/>
<text xml:space="preserve" text-anchor="middle" x="320.88" y="-272.5" font-family="Helvetica,sans-Serif" font-size="10.00">TEST</text>
</a>
</g>
</g>
<!-- Node2&#45;&gt;Node19 -->
<g id="edge22_Node000002_Node000019" class="edge">
<title>Node2&#45;&gt;Node19</title>
<g id="a_edge22_Node000002_Node000019"><a xlink:title=" ">
<path fill="none" stroke="#63b8ff" d="M434.84,-367.38C433.86,-366.61 432.92,-365.82 432,-365 405.89,-341.71 423.35,-316.82 396,-295 380.63,-282.74 358.26,-278.3 342.11,-276.74"/>
<polygon fill="#63b8ff" stroke="#63b8ff" points="432.67,-370.14 442.93,-372.79 436.56,-364.32 432.67,-370.14"/>
</a>
</g>
</g>
<!-- Node20 -->
<g id="Node000020" class="node">
<title>Node20</title>
<g id="a_Node000020"><a xlink:href="TestSearch_8cpp.html#aec262fa1aeb82f0a2ec9fca22e3d2374" target="_top" xlink:title=" ">
<polygon fill="white" stroke="#666666" points="341.62,-248 300.12,-248 300.12,-228 341.62,-228 341.62,-248"/>
<text xml:space="preserve" text-anchor="middle" x="320.88" y="-234.5" font-family="Helvetica,sans-Serif" font-size="10.00">TEST</text>
</a>
</g>
</g>
<!-- Node2&#45;&gt;Node20 -->
<g id="edge23_Node000002_Node000020" class="edge">
<title>Node2&#45;&gt;Node20</title>
<g id="a_edge23_Node000002_Node000020"><a xlink:title=" ">
<path fill="none" stroke="#63b8ff" d="M433.82,-366.8C433.2,-366.21 432.59,-365.61 432,-365 396.93,-328.53 433.02,-291.49 396,-257 381.42,-243.42 358.48,-239.23 341.98,-238.09"/>
<polygon fill="#63b8ff" stroke="#63b8ff" points="431.42,-369.36 441.47,-372.69 435.69,-363.82 431.42,-369.36"/>
</a>
</g>
</g>
<!-- Node21 -->
<g id="Node000021" class="node">
<title>Node21</title>
<g id="a_Node000021"><a xlink:href="TestSearch_8cpp.html#a33500ac4fe5ec5aabbfb97635e04b1a5" target="_top" xlink:title=" ">
<polygon fill="white" stroke="#666666" points="341.62,-210 300.12,-210 300.12,-190 341.62,-190 341.62,-210"/>
<text xml:space="preserve" text-anchor="middle" x="320.88" y="-196.5" font-family="Helvetica,sans-Serif" font-size="10.00">TEST</text>
</a>
</g>
</g>
<!-- Node2&#45;&gt;Node21 -->
<g id="edge24_Node000002_Node000021" class="edge">
<title>Node2&#45;&gt;Node21</title>
<g id="a_edge24_Node000002_Node000021"><a xlink:title=" ">
<path fill="none" stroke="#63b8ff" d="M433.41,-366.52C432.93,-366.02 432.46,-365.52 432,-365 387.64,-315.01 443.04,-266.47 396,-219 381.88,-204.75 358.63,-200.7 341.93,-199.78"/>
<polygon fill="#63b8ff" stroke="#63b8ff" points="430.97,-369.04 440.9,-372.71 435.43,-363.64 430.97,-369.04"/>
</a>
</g>
</g>
<!-- Node22 -->
<g id="Node000022" class="node">
<title>Node22</title>
<g id="a_Node000022"><a xlink:href="TestSearch_8cpp.html#ad770bade109d5488d8747315303c5509" target="_top" xlink:title=" ">
<polygon fill="white" stroke="#666666" points="341.62,-172 300.12,-172 300.12,-152 341.62,-152 341.62,-172"/>
<text xml:space="preserve" text-anchor="middle" x="320.88" y="-158.5" font-family="Helvetica,sans-Serif" font-size="10.00">TEST</text>
</a>
</g>
</g>
<!-- Node2&#45;&gt;Node22 -->
<g id="edge25_Node000002_Node000022" class="edge">
<title>Node2&#45;&gt;Node22</title>
<g id="a_edge25_Node000002_Node000022"><a xlink:title=" ">
<path fill="none" stroke="#63b8ff" d="M433.06,-366.21C432.7,-365.81 432.35,-365.41 432,-365 378.22,-301.35 453.2,-241.6 396,-181 382.23,-166.41 358.92,-162.42 342.11,-161.6"/>
<polygon fill="#63b8ff" stroke="#63b8ff" points="430.6,-368.71 440.44,-372.63 435.19,-363.43 430.6,-368.71"/>
</a>
</g>
</g>
<!-- Node23 -->
<g id="Node000023" class="node">
<title>Node23</title>
<g id="a_Node000023"><a xlink:href="TestSearch_8cpp.html#a13cb3cdd7534423f0d92329cf16ceaf7" target="_top" xlink:title=" ">
<polygon fill="white" stroke="#666666" points="341.62,-134 300.12,-134 300.12,-114 341.62,-114 341.62,-134"/>
<text xml:space="preserve" text-anchor="middle" x="320.88" y="-120.5" font-family="Helvetica,sans-Serif" font-size="10.00">TEST</text>
</a>
</g>
</g>
<!-- Node2&#45;&gt;Node23 -->
<g id="edge26_Node000002_Node000023" class="edge">
<title>Node2&#45;&gt;Node23</title>
<g id="a_edge26_Node000002_Node000023"><a xlink:title=" ">
<path fill="none" stroke="#63b8ff" d="M432.76,-365.9C432.5,-365.6 432.25,-365.3 432,-365 368.73,-287.62 463.42,-216.79 396,-143 382.38,-128.09 358.8,-124.19 341.89,-123.48"/>
<polygon fill="#63b8ff" stroke="#63b8ff" points="430.28,-368.38 440.04,-372.49 434.97,-363.19 430.28,-368.38"/>
</a>
</g>
</g>
<!-- Node24 -->
<g id="Node000024" class="node">
<title>Node24</title>
<g id="a_Node000024"><a xlink:href="TestSearch_8cpp.html#a726a0578ed58faaeb0201d967dbce4be" target="_top" xlink:title=" ">
<polygon fill="white" stroke="#666666" points="341.62,-96 300.12,-96 300.12,-76 341.62,-76 341.62,-96"/>
<text xml:space="preserve" text-anchor="middle" x="320.88" y="-82.5" font-family="Helvetica,sans-Serif" font-size="10.00">TEST</text>
</a>
</g>
</g>
<!-- Node2&#45;&gt;Node24 -->
<g id="edge27_Node000002_Node000024" class="edge">
<title>Node2&#45;&gt;Node24</title>
<g id="a_edge27_Node000002_Node000024"><a xlink:title=" ">
<path fill="none" stroke="#63b8ff" d="M432.75,-365.91C432.49,-365.61 432.24,-365.31 432,-365 359.21,-273.83 473.69,-192.03 396,-105 382.55,-89.94 358.94,-86.06 341.98,-85.4"/>
<polygon fill="#63b8ff" stroke="#63b8ff" points="430.24,-368.35 439.97,-372.55 434.98,-363.2 430.24,-368.35"/>
</a>
</g>
</g>
<!-- Node25 -->
<g id="Node000025" class="node">
<title>Node25</title>
<g id="a_Node000025"><a xlink:href="TestSearch_8cpp.html#a7120a1bbfb46623c11b708a8ab750d82" target="_top" xlink:title=" ">
<polygon fill="white" stroke="#666666" points="341.62,-58 300.12,-58 300.12,-38 341.62,-38 341.62,-58"/>
<text xml:space="preserve" text-anchor="middle" x="320.88" y="-44.5" font-family="Helvetica,sans-Serif" font-size="10.00">TEST</text>
</a>
</g>
</g>
<!-- Node2&#45;&gt;Node25 -->
<g id="edge28_Node000002_Node000025" class="edge">
<title>Node2&#45;&gt;Node25</title>
<g id="a_edge28_Node000002_Node000025"><a xlink:title=" ">
<path fill="none" stroke="#63b8ff" d="M432.74,-365.91C432.49,-365.61 432.24,-365.31 432,-365 349.67,-260.03 483.97,-167.29 396,-67 382.68,-51.82 359.05,-47.97 342.04,-47.34"/>
<polygon fill="#63b8ff" stroke="#63b8ff" points="430.21,-368.34 439.91,-372.59 434.98,-363.22 430.21,-368.34"/>
</a>
</g>
</g>
<!-- Node26 -->
<g id="Node000026" class="node">
<title>Node26</title>
<g id="a_Node000026"><a xlink:href="namespaceLGE_1_1PackageMgr.html#a5fa80ee6187608019aeeb27bcf591cf7" target="_top" xlink:title=" ">
<polygon fill="white" stroke="#666666" points="391.12,-20 250.62,-20 250.62,0 391.12,0 391.12,-20"/>
<text xml:space="preserve" text-anchor="middle" x="320.88" y="-6.5" font-family="Helvetica,sans-Serif" font-size="10.00">LGE::PackageMgr::Uninstall</text>
</a>
</g>
</g>
<!-- Node2&#45;&gt;Node26 -->
<g id="edge29_Node000002_Node000026" class="edge">
<title>Node2&#45;&gt;Node26</title>
<g id="a_edge29_Node000002_Node000026"><a xlink:title=" ">
<path fill="none" stroke="#63b8ff" d="M432.73,-365.92C432.48,-365.62 432.24,-365.31 432,-365 340.11,-246.2 494.27,-142.57 396,-29 393.04,-25.58 389.57,-22.74 385.76,-20.38"/>
<polygon fill="#63b8ff" stroke="#63b8ff" points="430.18,-368.32 439.86,-372.63 434.98,-363.23 430.18,-368.32"/>
</a>
</g>
</g>
<!-- Node5 -->
<g id="Node000005" class="node">
<title>Node5</title>
<g id="a_Node000005"><a xlink:href="BenchmarkFS_8cpp.html#abd2bf074780e72b3c554bb5eb58ff96a" target="_top" xlink:title=" ">
<polygon fill="white" stroke="#666666" points="209.75,-708 73,-708 73,-688 209.75,-688 209.75,-708"/>
<text xml:space="preserve" text-anchor="middle" x="141.38" y="-694.5" font-family="Helvetica,sans-Serif" font-size="10.00">RunFilesystemBenchmarks</text>
</a>
</g>
</g>
<!-- Node4&#45;&gt;Node5 -->
<g id="edge4_Node000004_Node000005" class="edge">
<title>Node4&#45;&gt;Node5</title>
<g id="a_edge4_Node000004_Node000005"><a xlink:title=" ">
<path fill="none" stroke="#63b8ff" d="M256.4,-778.04C252.75,-776.45 249.17,-774.77 245.75,-773 209.69,-754.39 172.36,-724.06 154,-708.28"/>
<polygon fill="#63b8ff" stroke="#63b8ff" points="254.84,-781.19 265.42,-781.73 257.49,-774.71 254.84,-781.19"/>
</a>
</g>
</g>
<!-- Node6 -->
<g id="Node000006" class="node">
<title>Node6</title>
<g id="a_Node000006"><a xlink:href="BenchmarkRunner_8cpp.html#a0ddf1224851353fc92bfbff6f499fa97" target="_top" xlink:title=" ">
<polygon fill="white" stroke="#666666" points="37,-708 0,-708 0,-688 37,-688 37,-708"/>
<text xml:space="preserve" text-anchor="middle" x="18.5" y="-694.5" font-family="Helvetica,sans-Serif" font-size="10.00">main</text>
</a>
</g>
</g>
<!-- Node5&#45;&gt;Node6 -->
<g id="edge5_Node000005_Node000006" class="edge">
<title>Node5&#45;&gt;Node6</title>
<g id="a_edge5_Node000005_Node000006"><a xlink:title=" ">
<path fill="none" stroke="#63b8ff" d="M61.01,-698C52.14,-698 43.86,-698 37.08,-698"/>
<polygon fill="#63b8ff" stroke="#63b8ff" points="61,-701.5 71,-698 61,-694.5 61,-701.5"/>
</a>
</g>
</g>
<!-- Node7&#45;&gt;Node5 -->
<g id="edge7_Node000007_Node000005" class="edge">
<title>Node7&#45;&gt;Node5</title>
<g id="a_edge7_Node000007_Node000005"><a xlink:title=" ">
<path fill="none" stroke="#63b8ff" d="M256.28,-730.09C230.52,-722.83 201.68,-714.71 179.47,-708.45"/>
<polygon fill="#63b8ff" stroke="#63b8ff" points="255.07,-733.38 265.64,-732.72 256.97,-726.64 255.07,-733.38"/>
</a>
</g>
</g>
<!-- Node8&#45;&gt;Node5 -->
<g id="edge9_Node000008_Node000005" class="edge">
<title>Node8&#45;&gt;Node5</title>
<g id="a_edge9_Node000008_Node000005"><a xlink:title=" ">
<path fill="none" stroke="#63b8ff" d="M255.94,-698C241.05,-698 225.15,-698 210.1,-698"/>
<polygon fill="#63b8ff" stroke="#63b8ff" points="255.59,-701.5 265.59,-698 255.59,-694.5 255.59,-701.5"/>
</a>
</g>
</g>
<!-- Node9&#45;&gt;Node5 -->
<g id="edge11_Node000009_Node000005" class="edge">
<title>Node9&#45;&gt;Node5</title>
<g id="a_edge11_Node000009_Node000005"><a xlink:title=" ">
<path fill="none" stroke="#63b8ff" d="M256.28,-665.91C230.52,-673.17 201.68,-681.29 179.47,-687.55"/>
<polygon fill="#63b8ff" stroke="#63b8ff" points="256.97,-669.36 265.64,-663.28 255.07,-662.62 256.97,-669.36"/>
</a>
</g>
</g>
<!-- Node10&#45;&gt;Node5 -->
<g id="edge13_Node000010_Node000005" class="edge">
<title>Node10&#45;&gt;Node5</title>
<g id="a_edge13_Node000010_Node000005"><a xlink:title=" ">
<path fill="none" stroke="#63b8ff" d="M256.4,-617.96C252.75,-619.55 249.17,-621.23 245.75,-623 209.69,-641.61 172.36,-671.94 154,-687.72"/>
<polygon fill="#63b8ff" stroke="#63b8ff" points="257.49,-621.29 265.42,-614.27 254.84,-614.81 257.49,-621.29"/>
</a>
</g>
</g>
<!-- Node12 -->
<g id="Node000012" class="node">
<title>Node12</title>
<g id="a_Node000012"><a xlink:href="classExampleApp.html#a51a63c4107ac16f6c82cda225b2dccea" target="_top" xlink:title=" ">
<polygon fill="white" stroke="#666666" points="202.25,-558 80.5,-558 80.5,-538 202.25,-538 202.25,-558"/>
<text xml:space="preserve" text-anchor="middle" x="141.38" y="-544.5" font-family="Helvetica,sans-Serif" font-size="10.00">ExampleApp::OnRender</text>
</a>
</g>
</g>
<!-- Node11&#45;&gt;Node12 -->
<g id="edge15_Node000011_Node000012" class="edge">
<title>Node11&#45;&gt;Node12</title>
<g id="a_edge15_Node000011_Node000012"><a xlink:title=" ">
<path fill="none" stroke="#63b8ff" d="M233.95,-548C223.38,-548 212.76,-548 202.69,-548"/>
<polygon fill="#63b8ff" stroke="#63b8ff" points="233.86,-551.5 243.86,-548 233.86,-544.5 233.86,-551.5"/>
</a>
</g>
</g>
</g>
</svg>
