<?xml version="1.0" encoding="UTF-8" standalone="no"?>
<!DOCTYPE svg PUBLIC "-//W3C//DTD SVG 1.1//EN"
 "http://www.w3.org/Graphics/SVG/1.1/DTD/svg11.dtd">
<!-- Generated by graphviz version 14.0.2 (20251019.1705)
 -->
<!-- Title: LGE::Policies::CheckCyclicSymlink Pages: 1 -->
<svg width="308pt" height="104pt"
 viewBox="0.00 0.00 308.00 104.00" xmlns="http://www.w3.org/2000/svg" xmlns:xlink="http://www.w3.org/1999/xlink">
<g id="graph0" class="graph" transform="scale(1 1) rotate(0) translate(4 100)">
<title>LGE::Policies::CheckCyclicSymlink</title>
<!-- Node1 -->
<g id="Node000001" class="node">
<title>Node1</title>
<g id="a_Node000001"><a xlink:title=" ">
<polygon fill="#999999" stroke="#666666" points="299.75,-64 161.5,-64 161.5,-32 299.75,-32 299.75,-64"/>
<text xml:space="preserve" text-anchor="start" x="169.5" y="-50.5" font-family="Helvetica,sans-Serif" font-size="10.00">LGE::Policies::CheckCyclic</text>
<text xml:space="preserve" text-anchor="middle" x="230.62" y="-38.5" font-family="Helvetica,sans-Serif" font-size="10.00">Symlink</text>
</a>
</g>
</g>
<!-- Node2 -->
<g id="Node000002" class="node">
<title>Node2</title>
<g id="a_Node000002"><a xlink:href="namespaceLGE_1_1FSOps.html#a8d90a8bd4f3c45deff002d5c191bf872" target="_top" xlink:title=" ">
<polygon fill="white" stroke="#666666" points="113.88,-96 11.62,-96 11.62,-76 113.88,-76 113.88,-96"/>
<text xml:space="preserve" text-anchor="middle" x="62.75" y="-82.5" font-family="Helvetica,sans-Serif" font-size="10.00">LGE::FSOps::Move</text>
</a>
</g>
</g>
<!-- Node1&#45;&gt;Node2 -->
<g id="edge1_Node000001_Node000002" class="edge">
<title>Node1&#45;&gt;Node2</title>
<g id="a_edge1_Node000001_Node000002"><a xlink:title=" ">
<path fill="none" stroke="#63b8ff" d="M150.04,-66.23C136.06,-69.43 121.95,-72.67 109.3,-75.56"/>
<polygon fill="#63b8ff" stroke="#63b8ff" points="150.76,-69.66 159.72,-64.01 149.2,-62.83 150.76,-69.66"/>
</a>
</g>
</g>
<!-- Node3 -->
<g id="Node000003" class="node">
<title>Node3</title>
<g id="a_Node000003"><a xlink:href="namespaceLGE_1_1FSOps.html#a7f1957de8291a7a7d914feb628c6a85b" target="_top" xlink:title=" ">
<polygon fill="white" stroke="#666666" points="125.5,-58 0,-58 0,-38 125.5,-38 125.5,-58"/>
<text xml:space="preserve" text-anchor="middle" x="62.75" y="-44.5" font-family="Helvetica,sans-Serif" font-size="10.00">LGE::FSOps::NewFolder</text>
</a>
</g>
</g>
<!-- Node1&#45;&gt;Node3 -->
<g id="edge2_Node000001_Node000003" class="edge">
<title>Node1&#45;&gt;Node3</title>
<g id="a_edge2_Node000001_Node000003"><a xlink:title=" ">
<path fill="none" stroke="#63b8ff" d="M149.88,-48C141.82,-48 133.73,-48 125.9,-48"/>
<polygon fill="#63b8ff" stroke="#63b8ff" points="149.69,-51.5 159.69,-48 149.69,-44.5 149.69,-51.5"/>
</a>
</g>
</g>
<!-- Node4 -->
<g id="Node000004" class="node">
<title>Node4</title>
<g id="a_Node000004"><a xlink:href="namespaceLGE_1_1FSOps.html#a73a5f7725534ee44eab8e17badf96f9f" target="_top" xlink:title=" ">
<polygon fill="white" stroke="#666666" points="120.25,-20 5.25,-20 5.25,0 120.25,0 120.25,-20"/>
<text xml:space="preserve" text-anchor="middle" x="62.75" y="-6.5" font-family="Helvetica,sans-Serif" font-size="10.00">LGE::FSOps::Rename</text>
</a>
</g>
</g>
<!-- Node1&#45;&gt;Node4 -->
<g id="edge3_Node000001_Node000004" class="edge">
<title>Node1&#45;&gt;Node4</title>
<g id="a_edge3_Node000001_Node000004"><a xlink:title=" ">
<path fill="none" stroke="#63b8ff" d="M150.04,-29.77C136.06,-26.57 121.95,-23.33 109.3,-20.44"/>
<polygon fill="#63b8ff" stroke="#63b8ff" points="149.2,-33.17 159.72,-31.99 150.76,-26.34 149.2,-33.17"/>
</a>
</g>
</g>
</g>
</svg>
