<?xml version="1.0" encoding="UTF-8" standalone="no"?>
<!DOCTYPE svg PUBLIC "-//W3C//DTD SVG 1.1//EN"
 "http://www.w3.org/Graphics/SVG/1.1/DTD/svg11.dtd">
<!-- Generated by graphviz version 14.0.2 (20251019.1705)
 -->
<!-- Title: LGE::MetaDB::Save Pages: 1 -->
<svg width="907pt" height="215pt"
 viewBox="0.00 0.00 907.00 215.00" xmlns="http://www.w3.org/2000/svg" xmlns:xlink="http://www.w3.org/1999/xlink">
<g id="graph0" class="graph" transform="scale(1 1) rotate(0) translate(4 211.21)">
<title>LGE::MetaDB::Save</title>
<!-- Node1 -->
<g id="Node000001" class="node">
<title>Node1</title>
<g id="a_Node000001"><a xlink:title=" ">
<polygon fill="#999999" stroke="#666666" points="106,-115 0,-115 0,-95 106,-95 106,-115"/>
<text xml:space="preserve" text-anchor="middle" x="53" y="-101.5" font-family="Helvetica,sans-Serif" font-size="10.00">LGE::MetaDB::Save</text>
</a>
</g>
</g>
<!-- Node2 -->
<g id="Node000002" class="node">
<title>Node2</title>
<g id="a_Node000002"><a xlink:href="classLGE_1_1Log.html#a53f3f4b8797ffd18145739c9e66d690a" target="_top" xlink:title=" ">
<polygon fill="white" stroke="#666666" points="899.25,-77 815,-77 815,-57 899.25,-57 899.25,-77"/>
<text xml:space="preserve" text-anchor="middle" x="857.12" y="-63.5" font-family="Helvetica,sans-Serif" font-size="10.00">LGE::Log::Error</text>
</a>
</g>
</g>
<!-- Node1&#45;&gt;Node2 -->
<g id="edge1_Node000001_Node000002" class="edge">
<title>Node1&#45;&gt;Node2</title>
<g id="a_edge1_Node000001_Node000002"><a xlink:title=" ">
<path fill="none" stroke="#63b8ff" d="M62.13,-115.44C76.25,-132.66 107.13,-166.55 142,-181 248.27,-225.04 285.09,-200 400.12,-200 400.12,-200 400.12,-200 559.5,-200 671.2,-200 787.49,-120.5 834.5,-84.43"/>
<polygon fill="#63b8ff" stroke="#63b8ff" points="836.53,-87.28 842.26,-78.37 832.22,-81.77 836.53,-87.28"/>
</a>
</g>
</g>
<!-- Node3 -->
<g id="Node000003" class="node">
<title>Node3</title>
<g id="a_Node000003"><a xlink:href="namespaceLGE_1_1MetaDB.html#aa5218c5875c7c064fac11782f4ca1783" target="_top" xlink:title=" ">
<polygon fill="white" stroke="#666666" points="298.25,-172 149.5,-172 149.5,-152 298.25,-152 298.25,-172"/>
<text xml:space="preserve" text-anchor="middle" x="223.88" y="-158.5" font-family="Helvetica,sans-Serif" font-size="10.00">LGE::MetaDB::GenerateGUID</text>
</a>
</g>
</g>
<!-- Node1&#45;&gt;Node3 -->
<g id="edge2_Node000001_Node000003" class="edge">
<title>Node1&#45;&gt;Node3</title>
<g id="a_edge2_Node000001_Node000003"><a xlink:title=" ">
<path fill="none" stroke="#63b8ff" d="M75.29,-115.46C92.86,-123.78 118.61,-135.27 142,-143 148.14,-145.03 154.61,-146.93 161.11,-148.69"/>
<polygon fill="#63b8ff" stroke="#63b8ff" points="159.99,-152.01 170.55,-151.12 161.74,-145.24 159.99,-152.01"/>
</a>
</g>
</g>
<!-- Node4 -->
<g id="Node000004" class="node">
<title>Node4</title>
<g id="a_Node000004"><a xlink:href="classLGE_1_1Log.html#ab0265ee050b8873a2fd31fbdb696ced0" target="_top" xlink:title=" ">
<polygon fill="white" stroke="#666666" points="263.75,-134 184,-134 184,-114 263.75,-114 263.75,-134"/>
<text xml:space="preserve" text-anchor="middle" x="223.88" y="-120.5" font-family="Helvetica,sans-Serif" font-size="10.00">LGE::Log::Info</text>
</a>
</g>
</g>
<!-- Node1&#45;&gt;Node4 -->
<g id="edge3_Node000001_Node000004" class="edge">
<title>Node1&#45;&gt;Node4</title>
<g id="a_edge3_Node000001_Node000004"><a xlink:title=" ">
<path fill="none" stroke="#63b8ff" d="M106.05,-110.86C127.14,-113.23 151.42,-115.96 172.36,-118.32"/>
<polygon fill="#63b8ff" stroke="#63b8ff" points="171.77,-121.77 182.1,-119.41 172.56,-114.82 171.77,-121.77"/>
</a>
</g>
</g>
<!-- Node5 -->
<g id="Node000005" class="node">
<title>Node5</title>
<g id="a_Node000005"><a xlink:href="namespaceLGE_1_1MetaDB.html#ac399a4083a7e189046618cbf3142dbbe" target="_top" xlink:title=" ">
<polygon fill="white" stroke="#666666" points="293.75,-96 154,-96 154,-76 293.75,-76 293.75,-96"/>
<text xml:space="preserve" text-anchor="middle" x="223.88" y="-82.5" font-family="Helvetica,sans-Serif" font-size="10.00">LGE::MetaDB::MetaPathFor</text>
</a>
</g>
</g>
<!-- Node1&#45;&gt;Node5 -->
<g id="edge4_Node000001_Node000005" class="edge">
<title>Node1&#45;&gt;Node5</title>
<g id="a_edge4_Node000001_Node000005"><a xlink:title=" ">
<path fill="none" stroke="#63b8ff" d="M106.05,-99.14C117.55,-97.85 129.99,-96.45 142.33,-95.06"/>
<polygon fill="#63b8ff" stroke="#63b8ff" points="142.54,-98.56 152.09,-93.96 141.76,-91.6 142.54,-98.56"/>
</a>
</g>
</g>
<!-- Node6 -->
<g id="Node000006" class="node">
<title>Node6</title>
<g id="a_Node000006"><a xlink:href="namespaceLGE_1_1MetaDB.html#ad37cdebb704d7ca276bbb10e84d94f1a" target="_top" xlink:title=" ">
<polygon fill="white" stroke="#666666" points="305.75,-58 142,-58 142,-38 305.75,-38 305.75,-58"/>
<text xml:space="preserve" text-anchor="middle" x="223.88" y="-44.5" font-family="Helvetica,sans-Serif" font-size="10.00">LGE::MetaDB::UpdateTimestamp</text>
</a>
</g>
</g>
<!-- Node1&#45;&gt;Node6 -->
<g id="edge5_Node000001_Node000006" class="edge">
<title>Node1&#45;&gt;Node6</title>
<g id="a_edge5_Node000001_Node000006"><a xlink:title=" ">
<path fill="none" stroke="#63b8ff" d="M75.29,-94.54C92.86,-86.22 118.61,-74.73 142,-67 148.14,-64.97 154.61,-63.07 161.11,-61.31"/>
<polygon fill="#63b8ff" stroke="#63b8ff" points="161.74,-64.76 170.55,-58.88 159.99,-57.99 161.74,-64.76"/>
</a>
</g>
</g>
<!-- Node7 -->
<g id="Node000007" class="node">
<title>Node7</title>
<g id="a_Node000007"><a xlink:href="namespaceLGE_1_1LxFile.html#a06d0b8c5590da8bc48cf22d321fc4074" target="_top" xlink:title=" ">
<polygon fill="white" stroke="#666666" points="277.62,-20 170.12,-20 170.12,0 277.62,0 277.62,-20"/>
<text xml:space="preserve" text-anchor="middle" x="223.88" y="-6.5" font-family="Helvetica,sans-Serif" font-size="10.00">LGE::LxFile::WriteAll</text>
</a>
</g>
</g>
<!-- Node1&#45;&gt;Node7 -->
<g id="edge6_Node000001_Node000007" class="edge">
<title>Node1&#45;&gt;Node7</title>
<g id="a_edge6_Node000001_Node000007"><a xlink:title=" ">
<path fill="none" stroke="#63b8ff" d="M62.87,-94.62C77.59,-78.1 108.73,-45.96 142,-29 147.38,-26.26 153.16,-23.9 159.08,-21.88"/>
<polygon fill="#63b8ff" stroke="#63b8ff" points="159.81,-25.32 168.35,-19.04 157.76,-18.62 159.81,-25.32"/>
</a>
</g>
</g>
<!-- Node7&#45;&gt;Node2 -->
<g id="edge7_Node000007_Node000002" class="edge">
<title>Node7&#45;&gt;Node2</title>
<g id="a_edge7_Node000007_Node000002"><a xlink:title=" ">
<path fill="none" stroke="#63b8ff" d="M278.04,-19.09C298,-22.39 320.89,-26.02 341.75,-29 410.35,-38.78 427.47,-41.95 496.5,-48 605.35,-57.55 733.19,-62.91 803.36,-65.36"/>
<polygon fill="#63b8ff" stroke="#63b8ff" points="802.9,-68.84 813.01,-65.69 803.14,-61.85 802.9,-68.84"/>
</a>
</g>
</g>
<!-- Node8 -->
<g id="Node000008" class="node">
<title>Node8</title>
<g id="a_Node000008"><a xlink:href="namespaceLGE_1_1VFS.html#abb5d35abfe80efe2f7a07394ad5b706a" target="_top" xlink:title=" ">
<polygon fill="white" stroke="#666666" points="460.5,-20 341.75,-20 341.75,0 460.5,0 460.5,-20"/>
<text xml:space="preserve" text-anchor="middle" x="401.12" y="-6.5" font-family="Helvetica,sans-Serif" font-size="10.00">LGE::VFS::IsReadOnly</text>
</a>
</g>
</g>
<!-- Node7&#45;&gt;Node8 -->
<g id="edge8_Node000007_Node000008" class="edge">
<title>Node7&#45;&gt;Node8</title>
<g id="a_edge8_Node000007_Node000008"><a xlink:title=" ">
<path fill="none" stroke="#63b8ff" d="M277.93,-10C294.38,-10 312.76,-10 330.17,-10"/>
<polygon fill="#63b8ff" stroke="#63b8ff" points="329.92,-13.5 339.92,-10 329.92,-6.5 329.92,-13.5"/>
</a>
</g>
</g>
<!-- Node9 -->
<g id="Node000009" class="node">
<title>Node9</title>
<g id="a_Node000009"><a xlink:href="namespaceLGE_1_1LxPath.html#ab664986e94ce09aa029f9eb2fcf50133" target="_top" xlink:title=" ">
<polygon fill="white" stroke="#666666" points="620.5,-39 496.5,-39 496.5,-19 620.5,-19 620.5,-39"/>
<text xml:space="preserve" text-anchor="middle" x="558.5" y="-25.5" font-family="Helvetica,sans-Serif" font-size="10.00">LGE::LxPath::IsSubPath</text>
</a>
</g>
</g>
<!-- Node8&#45;&gt;Node9 -->
<g id="edge9_Node000008_Node000009" class="edge">
<title>Node8&#45;&gt;Node9</title>
<g id="a_edge9_Node000008_Node000009"><a xlink:title=" ">
<path fill="none" stroke="#63b8ff" d="M460.87,-17.18C468.69,-18.14 476.79,-19.13 484.82,-20.11"/>
<polygon fill="#63b8ff" stroke="#63b8ff" points="484.23,-23.57 494.59,-21.31 485.08,-16.62 484.23,-23.57"/>
</a>
</g>
</g>
<!-- Node10 -->
<g id="Node000010" class="node">
<title>Node10</title>
<g id="a_Node000010"><a xlink:href="namespaceLGE_1_1LxPath.html#a314a60ce690c90f4ee0b4e64c0199408" target="_top" xlink:title=" ">
<polygon fill="white" stroke="#666666" points="779,-39 656.5,-39 656.5,-19 779,-19 779,-39"/>
<text xml:space="preserve" text-anchor="middle" x="717.75" y="-25.5" font-family="Helvetica,sans-Serif" font-size="10.00">LGE::LxPath::Normalize</text>
</a>
</g>
</g>
<!-- Node8&#45;&gt;Node10 -->
<g id="edge12_Node000008_Node000010" class="edge">
<title>Node8&#45;&gt;Node10</title>
<g id="a_edge12_Node000008_Node000010"><a xlink:title=" ">
<path fill="none" stroke="#63b8ff" d="M460.67,-6.92C504.73,-5.34 566.54,-4.73 620.5,-10 634.14,-11.33 648.72,-13.71 662.29,-16.33"/>
<polygon fill="#63b8ff" stroke="#63b8ff" points="661.44,-19.73 671.93,-18.28 662.82,-12.87 661.44,-19.73"/>
</a>
</g>
</g>
<!-- Node9&#45;&gt;Node10 -->
<g id="edge10_Node000009_Node000010" class="edge">
<title>Node9&#45;&gt;Node10</title>
<g id="a_edge10_Node000009_Node000010"><a xlink:title=" ">
<path fill="none" stroke="#63b8ff" d="M620.75,-29C628.66,-29 636.82,-29 644.88,-29"/>
<polygon fill="#63b8ff" stroke="#63b8ff" points="644.67,-32.5 654.67,-29 644.67,-25.5 644.67,-32.5"/>
</a>
</g>
</g>
<!-- Node10&#45;&gt;Node2 -->
<g id="edge11_Node000010_Node000002" class="edge">
<title>Node10&#45;&gt;Node2</title>
<g id="a_edge11_Node000010_Node000002"><a xlink:title=" ">
<path fill="none" stroke="#63b8ff" d="M756.65,-39.48C772.42,-43.85 790.91,-48.96 807.65,-53.59"/>
<polygon fill="#63b8ff" stroke="#63b8ff" points="806.32,-56.85 816.89,-56.15 808.18,-50.11 806.32,-56.85"/>
</a>
</g>
</g>
</g>
</svg>
