<?xml version="1.0" encoding="UTF-8" standalone="no"?>
<!DOCTYPE svg PUBLIC "-//W3C//DTD SVG 1.1//EN"
 "http://www.w3.org/Graphics/SVG/1.1/DTD/svg11.dtd">
<!-- Generated by graphviz version 14.0.2 (20251019.1705)
 -->
<!-- Title: LGE::Dependencies::GetStats Pages: 1 -->
<svg width="195pt" height="66pt"
 viewBox="0.00 0.00 195.00 66.00" xmlns="http://www.w3.org/2000/svg" xmlns:xlink="http://www.w3.org/1999/xlink">
<g id="graph0" class="graph" transform="scale(1 1) rotate(0) translate(4 62)">
<title>LGE::Dependencies::GetStats</title>
<!-- Node1 -->
<g id="Node000001" class="node">
<title>Node1</title>
<g id="a_Node000001"><a xlink:title=" ">
<polygon fill="#999999" stroke="#666666" points="187.25,-45 77.5,-45 77.5,-13 187.25,-13 187.25,-45"/>
<text xml:space="preserve" text-anchor="start" x="85.5" y="-31.5" font-family="Helvetica,sans-Serif" font-size="10.00">LGE::Dependencies::</text>
<text xml:space="preserve" text-anchor="middle" x="132.38" y="-19.5" font-family="Helvetica,sans-Serif" font-size="10.00">GetStats</text>
</a>
</g>
</g>
<!-- Node2 -->
<g id="Node000002" class="node">
<title>Node2</title>
<g id="a_Node000002"><a xlink:href="TestDependencies_8cpp.html#ac7d0213aa008a4537d2b739ca96728af" target="_top" xlink:title=" ">
<polygon fill="white" stroke="#666666" points="41.5,-58 0,-58 0,-38 41.5,-38 41.5,-58"/>
<text xml:space="preserve" text-anchor="middle" x="20.75" y="-44.5" font-family="Helvetica,sans-Serif" font-size="10.00">TEST</text>
</a>
</g>
</g>
<!-- Node1&#45;&gt;Node2 -->
<g id="edge1_Node000001_Node000002" class="edge">
<title>Node1&#45;&gt;Node2</title>
<g id="a_edge1_Node000001_Node000002"><a xlink:title=" ">
<path fill="none" stroke="#63b8ff" d="M66.02,-40.33C57.29,-41.84 48.93,-43.29 41.88,-44.51"/>
<polygon fill="#63b8ff" stroke="#63b8ff" points="66.46,-43.8 75.71,-38.65 65.26,-36.91 66.46,-43.8"/>
</a>
</g>
</g>
<!-- Node3 -->
<g id="Node000003" class="node">
<title>Node3</title>
<g id="a_Node000003"><a xlink:href="TestDependencies_8cpp.html#a3eed8aa25f31b84b211af1815819d59e" target="_top" xlink:title=" ">
<polygon fill="white" stroke="#666666" points="41.5,-20 0,-20 0,0 41.5,0 41.5,-20"/>
<text xml:space="preserve" text-anchor="middle" x="20.75" y="-6.5" font-family="Helvetica,sans-Serif" font-size="10.00">TEST</text>
</a>
</g>
</g>
<!-- Node1&#45;&gt;Node3 -->
<g id="edge2_Node000001_Node000003" class="edge">
<title>Node1&#45;&gt;Node3</title>
<g id="a_edge2_Node000001_Node000003"><a xlink:title=" ">
<path fill="none" stroke="#63b8ff" d="M66.02,-17.67C57.29,-16.16 48.93,-14.71 41.88,-13.49"/>
<polygon fill="#63b8ff" stroke="#63b8ff" points="65.26,-21.09 75.71,-19.35 66.46,-14.2 65.26,-21.09"/>
</a>
</g>
</g>
</g>
</svg>
