<?xml version="1.0" encoding="UTF-8" standalone="no"?>
<!DOCTYPE svg PUBLIC "-//W3C//DTD SVG 1.1//EN"
 "http://www.w3.org/Graphics/SVG/1.1/DTD/svg11.dtd">
<!-- Generated by graphviz version 14.0.2 (20251019.1705)
 -->
<!-- Title: LGE::Analytics::ExportReportToJSON Pages: 1 -->
<svg width="970pt" height="212pt"
 viewBox="0.00 0.00 970.00 212.00" xmlns="http://www.w3.org/2000/svg" xmlns:xlink="http://www.w3.org/1999/xlink">
<g id="graph0" class="graph" transform="scale(1 1) rotate(0) translate(4 208.23)">
<title>LGE::Analytics::ExportReportToJSON</title>
<!-- Node1 -->
<g id="Node000001" class="node">
<title>Node1</title>
<g id="a_Node000001"><a xlink:title=" ">
<polygon fill="#999999" stroke="#666666" points="145.75,-115.25 0,-115.25 0,-83.25 145.75,-83.25 145.75,-115.25"/>
<text xml:space="preserve" text-anchor="start" x="8" y="-101.75" font-family="Helvetica,sans-Serif" font-size="10.00">LGE::Analytics::ExportReport</text>
<text xml:space="preserve" text-anchor="middle" x="72.88" y="-89.75" font-family="Helvetica,sans-Serif" font-size="10.00">ToJSON</text>
</a>
</g>
</g>
<!-- Node2 -->
<g id="Node000002" class="node">
<title>Node2</title>
<g id="a_Node000002"><a xlink:href="namespaceLGE_1_1Analytics.html#a48141e1b0c652df26e4f5d2b83710c4b" target="_top" xlink:title=" ">
<polygon fill="white" stroke="#666666" points="314.75,-147.25 181.75,-147.25 181.75,-127.25 314.75,-127.25 314.75,-147.25"/>
<text xml:space="preserve" text-anchor="middle" x="248.25" y="-133.75" font-family="Helvetica,sans-Serif" font-size="10.00">LGE::Analytics::GetReport</text>
</a>
</g>
</g>
<!-- Node1&#45;&gt;Node2 -->
<g id="edge1_Node000001_Node000002" class="edge">
<title>Node1&#45;&gt;Node2</title>
<g id="a_edge1_Node000001_Node000002"><a xlink:title=" ">
<path fill="none" stroke="#63b8ff" d="M146.15,-115.09C160.23,-118.18 174.83,-121.38 188.42,-124.36"/>
<polygon fill="#63b8ff" stroke="#63b8ff" points="187.56,-127.75 198.07,-126.48 189.06,-120.92 187.56,-127.75"/>
</a>
</g>
</g>
<!-- Node7 -->
<g id="Node000007" class="node">
<title>Node7</title>
<g id="a_Node000007"><a xlink:href="classLGE_1_1Log.html#ab0265ee050b8873a2fd31fbdb696ced0" target="_top" xlink:title=" ">
<polygon fill="white" stroke="#666666" points="288.12,-109.25 208.38,-109.25 208.38,-89.25 288.12,-89.25 288.12,-109.25"/>
<text xml:space="preserve" text-anchor="middle" x="248.25" y="-95.75" font-family="Helvetica,sans-Serif" font-size="10.00">LGE::Log::Info</text>
</a>
</g>
</g>
<!-- Node1&#45;&gt;Node7 -->
<g id="edge8_Node000001_Node000007" class="edge">
<title>Node1&#45;&gt;Node7</title>
<g id="a_edge8_Node000001_Node000007"><a xlink:title=" ">
<path fill="none" stroke="#63b8ff" d="M146.15,-99.25C163.19,-99.25 181.01,-99.25 196.85,-99.25"/>
<polygon fill="#63b8ff" stroke="#63b8ff" points="196.48,-102.75 206.48,-99.25 196.48,-95.75 196.48,-102.75"/>
</a>
</g>
</g>
<!-- Node8 -->
<g id="Node000008" class="node">
<title>Node8</title>
<g id="a_Node000008"><a xlink:href="namespaceLGE_1_1LxFile.html#a06d0b8c5590da8bc48cf22d321fc4074" target="_top" xlink:title=" ">
<polygon fill="white" stroke="#666666" points="302,-71.25 194.5,-71.25 194.5,-51.25 302,-51.25 302,-71.25"/>
<text xml:space="preserve" text-anchor="middle" x="248.25" y="-57.75" font-family="Helvetica,sans-Serif" font-size="10.00">LGE::LxFile::WriteAll</text>
</a>
</g>
</g>
<!-- Node1&#45;&gt;Node8 -->
<g id="edge9_Node000001_Node000008" class="edge">
<title>Node1&#45;&gt;Node8</title>
<g id="a_edge9_Node000001_Node000008"><a xlink:title=" ">
<path fill="none" stroke="#63b8ff" d="M146.15,-83.41C160.23,-80.33 174.83,-77.13 188.42,-74.15"/>
<polygon fill="#63b8ff" stroke="#63b8ff" points="189.06,-77.59 198.07,-72.03 187.56,-70.75 189.06,-77.59"/>
</a>
</g>
</g>
<!-- Node3 -->
<g id="Node000003" class="node">
<title>Node3</title>
<g id="a_Node000003"><a xlink:href="namespaceLGE_1_1Analytics.html#ae1e6e06df633fb6399a4606c618ba3de" target="_top" xlink:title=" ">
<polygon fill="white" stroke="#666666" points="683.5,-185.25 545.25,-185.25 545.25,-165.25 683.5,-165.25 683.5,-185.25"/>
<text xml:space="preserve" text-anchor="middle" x="614.38" y="-171.75" font-family="Helvetica,sans-Serif" font-size="10.00">LGE::Analytics::GetAllStats</text>
</a>
</g>
</g>
<!-- Node2&#45;&gt;Node3 -->
<g id="edge2_Node000002_Node000003" class="edge">
<title>Node2&#45;&gt;Node3</title>
<g id="a_edge2_Node000002_Node000003"><a xlink:title=" ">
<path fill="none" stroke="#63b8ff" d="M262.39,-147.6C280.87,-161.42 316.14,-185.2 350.75,-194.25 423.06,-213.17 510.13,-200.17 563.61,-188.31"/>
<polygon fill="#63b8ff" stroke="#63b8ff" points="564.39,-191.72 573.35,-186.07 562.82,-184.9 564.39,-191.72"/>
</a>
</g>
</g>
<!-- Node4 -->
<g id="Node000004" class="node">
<title>Node4</title>
<g id="a_Node000004"><a xlink:href="namespaceLGE_1_1Analytics.html#ac01bf208b68bb666b625a0f45ee9a77e" target="_top" xlink:title=" ">
<polygon fill="white" stroke="#666666" points="509.25,-185.25 350.75,-185.25 350.75,-165.25 509.25,-165.25 509.25,-185.25"/>
<text xml:space="preserve" text-anchor="middle" x="430" y="-171.75" font-family="Helvetica,sans-Serif" font-size="10.00">LGE::Analytics::TopByLoadTime</text>
</a>
</g>
</g>
<!-- Node2&#45;&gt;Node4 -->
<g id="edge3_Node000002_Node000004" class="edge">
<title>Node2&#45;&gt;Node4</title>
<g id="a_edge3_Node000002_Node000004"><a xlink:title=" ">
<path fill="none" stroke="#63b8ff" d="M298.84,-147.74C320.36,-152.29 345.75,-157.65 368.37,-162.44"/>
<polygon fill="#63b8ff" stroke="#63b8ff" points="367.58,-165.85 378.09,-164.49 369.03,-159 367.58,-165.85"/>
</a>
</g>
</g>
<!-- Node5 -->
<g id="Node000005" class="node">
<title>Node5</title>
<g id="a_Node000005"><a xlink:href="namespaceLGE_1_1Analytics.html#a3aae299f8b7bb1fa18ce5b42f81813cf" target="_top" xlink:title=" ">
<polygon fill="white" stroke="#666666" points="497.62,-147.25 362.38,-147.25 362.38,-127.25 497.62,-127.25 497.62,-147.25"/>
<text xml:space="preserve" text-anchor="middle" x="430" y="-133.75" font-family="Helvetica,sans-Serif" font-size="10.00">LGE::Analytics::TopBySize</text>
</a>
</g>
</g>
<!-- Node2&#45;&gt;Node5 -->
<g id="edge5_Node000002_Node000005" class="edge">
<title>Node2&#45;&gt;Node5</title>
<g id="a_edge5_Node000002_Node000005"><a xlink:title=" ">
<path fill="none" stroke="#63b8ff" d="M315.16,-137.25C326.7,-137.25 338.81,-137.25 350.65,-137.25"/>
<polygon fill="#63b8ff" stroke="#63b8ff" points="350.38,-140.75 360.38,-137.25 350.38,-133.75 350.38,-140.75"/>
</a>
</g>
</g>
<!-- Node6 -->
<g id="Node000006" class="node">
<title>Node6</title>
<g id="a_Node000006"><a xlink:href="namespaceLGE_1_1Analytics.html#aaedc4ccd5bf4308afc83cb289b4d3eba" target="_top" xlink:title=" ">
<polygon fill="white" stroke="#666666" points="503.25,-109.25 356.75,-109.25 356.75,-89.25 503.25,-89.25 503.25,-109.25"/>
<text xml:space="preserve" text-anchor="middle" x="430" y="-95.75" font-family="Helvetica,sans-Serif" font-size="10.00">LGE::Analytics::UnusedSince</text>
</a>
</g>
</g>
<!-- Node2&#45;&gt;Node6 -->
<g id="edge7_Node000002_Node000006" class="edge">
<title>Node2&#45;&gt;Node6</title>
<g id="a_edge7_Node000002_Node000006"><a xlink:title=" ">
<path fill="none" stroke="#63b8ff" d="M298.84,-126.77C320.36,-122.22 345.75,-116.85 368.37,-112.07"/>
<polygon fill="#63b8ff" stroke="#63b8ff" points="369.03,-115.51 378.09,-110.02 367.58,-108.66 369.03,-115.51"/>
</a>
</g>
</g>
<!-- Node4&#45;&gt;Node3 -->
<g id="edge4_Node000004_Node000003" class="edge">
<title>Node4&#45;&gt;Node3</title>
<g id="a_edge4_Node000004_Node000003"><a xlink:title=" ">
<path fill="none" stroke="#63b8ff" d="M509.67,-175.25C517.57,-175.25 525.6,-175.25 533.51,-175.25"/>
<polygon fill="#63b8ff" stroke="#63b8ff" points="533.48,-178.75 543.48,-175.25 533.48,-171.75 533.48,-178.75"/>
</a>
</g>
</g>
<!-- Node5&#45;&gt;Node3 -->
<g id="edge6_Node000005_Node000003" class="edge">
<title>Node5&#45;&gt;Node3</title>
<g id="a_edge6_Node000005_Node000003"><a xlink:title=" ">
<path fill="none" stroke="#63b8ff" d="M481.32,-147.74C503.24,-152.31 529.15,-157.7 552.18,-162.5"/>
<polygon fill="#63b8ff" stroke="#63b8ff" points="551.24,-165.88 561.74,-164.49 552.66,-159.03 551.24,-165.88"/>
</a>
</g>
</g>
<!-- Node9 -->
<g id="Node000009" class="node">
<title>Node9</title>
<g id="a_Node000009"><a xlink:href="classLGE_1_1Log.html#a53f3f4b8797ffd18145739c9e66d690a" target="_top" xlink:title=" ">
<polygon fill="white" stroke="#666666" points="962.25,-52.25 878,-52.25 878,-32.25 962.25,-32.25 962.25,-52.25"/>
<text xml:space="preserve" text-anchor="middle" x="920.12" y="-38.75" font-family="Helvetica,sans-Serif" font-size="10.00">LGE::Log::Error</text>
</a>
</g>
</g>
<!-- Node8&#45;&gt;Node9 -->
<g id="edge10_Node000008_Node000009" class="edge">
<title>Node8&#45;&gt;Node9</title>
<g id="a_edge10_Node000008_Node000009"><a xlink:title=" ">
<path fill="none" stroke="#63b8ff" d="M302.37,-59.75C427.83,-56.19 741.31,-47.3 866.39,-43.75"/>
<polygon fill="#63b8ff" stroke="#63b8ff" points="866.48,-47.25 876.38,-43.47 866.28,-40.25 866.48,-47.25"/>
</a>
</g>
</g>
<!-- Node10 -->
<g id="Node000010" class="node">
<title>Node10</title>
<g id="a_Node000010"><a xlink:href="namespaceLGE_1_1VFS.html#abb5d35abfe80efe2f7a07394ad5b706a" target="_top" xlink:title=" ">
<polygon fill="white" stroke="#666666" points="489.38,-33.25 370.62,-33.25 370.62,-13.25 489.38,-13.25 489.38,-33.25"/>
<text xml:space="preserve" text-anchor="middle" x="430" y="-19.75" font-family="Helvetica,sans-Serif" font-size="10.00">LGE::VFS::IsReadOnly</text>
</a>
</g>
</g>
<!-- Node8&#45;&gt;Node10 -->
<g id="edge11_Node000008_Node000010" class="edge">
<title>Node8&#45;&gt;Node10</title>
<g id="a_edge11_Node000008_Node000010"><a xlink:title=" ">
<path fill="none" stroke="#63b8ff" d="M298.84,-50.77C320.36,-46.22 345.75,-40.85 368.37,-36.07"/>
<polygon fill="#63b8ff" stroke="#63b8ff" points="369.03,-39.51 378.09,-34.02 367.58,-32.66 369.03,-39.51"/>
</a>
</g>
</g>
<!-- Node11 -->
<g id="Node000011" class="node">
<title>Node11</title>
<g id="a_Node000011"><a xlink:href="namespaceLGE_1_1LxPath.html#ab664986e94ce09aa029f9eb2fcf50133" target="_top" xlink:title=" ">
<polygon fill="white" stroke="#666666" points="676.38,-33.25 552.38,-33.25 552.38,-13.25 676.38,-13.25 676.38,-33.25"/>
<text xml:space="preserve" text-anchor="middle" x="614.38" y="-19.75" font-family="Helvetica,sans-Serif" font-size="10.00">LGE::LxPath::IsSubPath</text>
</a>
</g>
</g>
<!-- Node10&#45;&gt;Node11 -->
<g id="edge12_Node000010_Node000011" class="edge">
<title>Node10&#45;&gt;Node11</title>
<g id="a_edge12_Node000010_Node000011"><a xlink:title=" ">
<path fill="none" stroke="#63b8ff" d="M489.71,-23.25C505.87,-23.25 523.59,-23.25 540.45,-23.25"/>
<polygon fill="#63b8ff" stroke="#63b8ff" points="540.44,-26.75 550.44,-23.25 540.44,-19.75 540.44,-26.75"/>
</a>
</g>
</g>
<!-- Node12 -->
<g id="Node000012" class="node">
<title>Node12</title>
<g id="a_Node000012"><a xlink:href="namespaceLGE_1_1LxPath.html#a314a60ce690c90f4ee0b4e64c0199408" target="_top" xlink:title=" ">
<polygon fill="white" stroke="#666666" points="842,-33.25 719.5,-33.25 719.5,-13.25 842,-13.25 842,-33.25"/>
<text xml:space="preserve" text-anchor="middle" x="780.75" y="-19.75" font-family="Helvetica,sans-Serif" font-size="10.00">LGE::LxPath::Normalize</text>
</a>
</g>
</g>
<!-- Node10&#45;&gt;Node12 -->
<g id="edge15_Node000010_Node000012" class="edge">
<title>Node10&#45;&gt;Node12</title>
<g id="a_edge15_Node000010_Node000012"><a xlink:title=" ">
<path fill="none" stroke="#63b8ff" d="M482.82,-12.78C502.3,-9.33 524.71,-5.95 545.25,-4.25 606.49,0.8 622.35,1.72 683.5,-4.25 697.14,-5.59 711.72,-7.96 725.29,-10.59"/>
<polygon fill="#63b8ff" stroke="#63b8ff" points="724.44,-13.98 734.93,-12.53 725.82,-7.12 724.44,-13.98"/>
</a>
</g>
</g>
<!-- Node11&#45;&gt;Node12 -->
<g id="edge13_Node000011_Node000012" class="edge">
<title>Node11&#45;&gt;Node12</title>
<g id="a_edge13_Node000011_Node000012"><a xlink:title=" ">
<path fill="none" stroke="#63b8ff" d="M676.58,-23.25C686.77,-23.25 697.42,-23.25 707.85,-23.25"/>
<polygon fill="#63b8ff" stroke="#63b8ff" points="707.53,-26.75 717.53,-23.25 707.53,-19.75 707.53,-26.75"/>
</a>
</g>
</g>
<!-- Node12&#45;&gt;Node9 -->
<g id="edge14_Node000012_Node000009" class="edge">
<title>Node12&#45;&gt;Node9</title>
<g id="a_edge14_Node000012_Node000009"><a xlink:title=" ">
<path fill="none" stroke="#63b8ff" d="M842.4,-31.64C850.42,-32.75 858.59,-33.88 866.45,-34.97"/>
<polygon fill="#63b8ff" stroke="#63b8ff" points="865.83,-38.42 876.22,-36.32 866.79,-31.48 865.83,-38.42"/>
</a>
</g>
</g>
</g>
</svg>
