<?xml version="1.0" encoding="UTF-8" standalone="no"?>
<!DOCTYPE svg PUBLIC "-//W3C//DTD SVG 1.1//EN"
 "http://www.w3.org/Graphics/SVG/1.1/DTD/svg11.dtd">
<!-- Generated by graphviz version 14.0.2 (20251019.1705)
 -->
<!-- Title: LGE::Analytics::Initialize Pages: 1 -->
<svg width="1538pt" height="293pt"
 viewBox="0.00 0.00 1538.00 293.00" xmlns="http://www.w3.org/2000/svg" xmlns:xlink="http://www.w3.org/1999/xlink">
<g id="graph0" class="graph" transform="scale(1 1) rotate(0) translate(4 288.52)">
<title>LGE::Analytics::Initialize</title>
<!-- Node1 -->
<g id="Node000001" class="node">
<title>Node1</title>
<g id="a_Node000001"><a xlink:title=" ">
<polygon fill="#999999" stroke="#666666" points="124,-208.52 0,-208.52 0,-188.52 124,-188.52 124,-208.52"/>
<text xml:space="preserve" text-anchor="middle" x="62" y="-195.02" font-family="Helvetica,sans-Serif" font-size="10.00">LGE::Analytics::Initialize</text>
</a>
</g>
</g>
<!-- Node2 -->
<g id="Node000002" class="node">
<title>Node2</title>
<g id="a_Node000002"><a xlink:href="namespaceLGE_1_1LxFile.html#a7a3f0b3462a34877039001eb0aaac788" target="_top" xlink:title=" ">
<polygon fill="white" stroke="#666666" points="929.25,-284.52 786.5,-284.52 786.5,-264.52 929.25,-264.52 929.25,-284.52"/>
<text xml:space="preserve" text-anchor="middle" x="857.88" y="-271.02" font-family="Helvetica,sans-Serif" font-size="10.00">LGE::LxFile::CreateDirectory</text>
</a>
</g>
</g>
<!-- Node1&#45;&gt;Node2 -->
<g id="edge1_Node000001_Node000002" class="edge">
<title>Node1&#45;&gt;Node2</title>
<g id="a_edge1_Node000001_Node000002"><a xlink:title=" ">
<path fill="none" stroke="#63b8ff" d="M84.84,-209.01C104.18,-217.87 133.38,-230.26 160,-237.52 266.25,-266.48 294.88,-274.52 405,-274.52 405,-274.52 405,-274.52 556.88,-274.52 630.64,-274.52 714.6,-274.52 774.9,-274.52"/>
<polygon fill="#63b8ff" stroke="#63b8ff" points="774.75,-278.02 784.75,-274.52 774.75,-271.02 774.75,-278.02"/>
</a>
</g>
</g>
<!-- Node7 -->
<g id="Node000007" class="node">
<title>Node7</title>
<g id="a_Node000007"><a xlink:href="namespaceLGE_1_1LxFile.html#a11e62876b312a11b881b484bb3a5ee71" target="_top" xlink:title=" ">
<polygon fill="white" stroke="#666666" points="750.12,-170.52 648.62,-170.52 648.62,-150.52 750.12,-150.52 750.12,-170.52"/>
<text xml:space="preserve" text-anchor="middle" x="699.38" y="-157.02" font-family="Helvetica,sans-Serif" font-size="10.00">LGE::LxFile::Exists</text>
</a>
</g>
</g>
<!-- Node1&#45;&gt;Node7 -->
<g id="edge8_Node000001_Node000007" class="edge">
<title>Node1&#45;&gt;Node7</title>
<g id="a_edge8_Node000001_Node000007"><a xlink:title=" ">
<path fill="none" stroke="#63b8ff" d="M124.13,-198.19C225.73,-197.11 435.65,-192.67 612.25,-174.52 620.33,-173.69 628.81,-172.59 637.15,-171.38"/>
<polygon fill="#63b8ff" stroke="#63b8ff" points="637.56,-174.85 646.92,-169.89 636.5,-167.93 637.56,-174.85"/>
</a>
</g>
</g>
<!-- Node8 -->
<g id="Node000008" class="node">
<title>Node8</title>
<g id="a_Node000008"><a xlink:href="classLGE_1_1Log.html#ab0265ee050b8873a2fd31fbdb696ced0" target="_top" xlink:title=" ">
<polygon fill="white" stroke="#666666" points="897.75,-246.52 818,-246.52 818,-226.52 897.75,-226.52 897.75,-246.52"/>
<text xml:space="preserve" text-anchor="middle" x="857.88" y="-233.02" font-family="Helvetica,sans-Serif" font-size="10.00">LGE::Log::Info</text>
</a>
</g>
</g>
<!-- Node1&#45;&gt;Node8 -->
<g id="edge9_Node000001_Node000008" class="edge">
<title>Node1&#45;&gt;Node8</title>
<g id="a_edge9_Node000001_Node000008"><a xlink:title=" ">
<path fill="none" stroke="#63b8ff" d="M121.48,-209C189.4,-220.25 304.93,-236.52 405,-236.52 405,-236.52 405,-236.52 556.88,-236.52 644.52,-236.52 746.57,-236.52 806.22,-236.52"/>
<polygon fill="#63b8ff" stroke="#63b8ff" points="806.05,-240.02 816.05,-236.52 806.05,-233.02 806.05,-240.02"/>
</a>
</g>
</g>
<!-- Node9 -->
<g id="Node000009" class="node">
<title>Node9</title>
<g id="a_Node000009"><a xlink:href="namespaceLGE_1_1Analytics.html#aaf456d4625dee9c3239538500608b674" target="_top" xlink:title=" ">
<polygon fill="white" stroke="#666666" points="312.5,-170.52 160,-170.52 160,-150.52 312.5,-150.52 312.5,-170.52"/>
<text xml:space="preserve" text-anchor="middle" x="236.25" y="-157.02" font-family="Helvetica,sans-Serif" font-size="10.00">LGE::Analytics::RecordAccess</text>
</a>
</g>
</g>
<!-- Node1&#45;&gt;Node9 -->
<g id="edge10_Node000001_Node000009" class="edge">
<title>Node1&#45;&gt;Node9</title>
<g id="a_edge10_Node000001_Node000009"><a xlink:title=" ">
<path fill="none" stroke="#63b8ff" d="M110.52,-188.03C131.05,-183.51 155.25,-178.17 176.86,-173.4"/>
<polygon fill="#63b8ff" stroke="#63b8ff" points="177.39,-176.87 186.4,-171.29 175.88,-170.03 177.39,-176.87"/>
</a>
</g>
</g>
<!-- Node18 -->
<g id="Node000018" class="node">
<title>Node18</title>
<g id="a_Node000018"><a xlink:href="namespaceLGE_1_1EditorBus.html#a373b3abc9d26c3781a34351eea99880c" target="_top" xlink:title=" ">
<polygon fill="white" stroke="#666666" points="303.12,-132.52 169.38,-132.52 169.38,-112.52 303.12,-112.52 303.12,-132.52"/>
<text xml:space="preserve" text-anchor="middle" x="236.25" y="-119.02" font-family="Helvetica,sans-Serif" font-size="10.00">LGE::EditorBus::Subscribe</text>
</a>
</g>
</g>
<!-- Node1&#45;&gt;Node18 -->
<g id="edge28_Node000001_Node000018" class="edge">
<title>Node1&#45;&gt;Node18</title>
<g id="a_edge28_Node000001_Node000018"><a xlink:title=" ">
<path fill="none" stroke="#63b8ff" d="M77.76,-188.03C96.2,-175.37 129.1,-154.19 160,-141.52 164.68,-139.6 169.62,-137.83 174.62,-136.21"/>
<polygon fill="#63b8ff" stroke="#63b8ff" points="175.6,-139.57 184.17,-133.35 173.59,-132.87 175.6,-139.57"/>
</a>
</g>
</g>
<!-- Node3 -->
<g id="Node000003" class="node">
<title>Node3</title>
<g id="a_Node000003"><a xlink:href="classLGE_1_1Log.html#a53f3f4b8797ffd18145739c9e66d690a" target="_top" xlink:title=" ">
<polygon fill="white" stroke="#666666" points="1529.5,-94.52 1445.25,-94.52 1445.25,-74.52 1529.5,-74.52 1529.5,-94.52"/>
<text xml:space="preserve" text-anchor="middle" x="1487.38" y="-81.02" font-family="Helvetica,sans-Serif" font-size="10.00">LGE::Log::Error</text>
</a>
</g>
</g>
<!-- Node2&#45;&gt;Node3 -->
<g id="edge2_Node000002_Node000003" class="edge">
<title>Node2&#45;&gt;Node3</title>
<g id="a_edge2_Node000002_Node000003"><a xlink:title=" ">
<path fill="none" stroke="#63b8ff" d="M908.84,-264.06C1006.71,-242.84 1229.78,-190.9 1409.25,-122.52 1425.7,-116.25 1443.36,-107.69 1457.63,-100.28"/>
<polygon fill="#63b8ff" stroke="#63b8ff" points="1459.26,-103.38 1466.46,-95.61 1455.99,-97.19 1459.26,-103.38"/>
</a>
</g>
</g>
<!-- Node4 -->
<g id="Node000004" class="node">
<title>Node4</title>
<g id="a_Node000004"><a xlink:href="namespaceLGE_1_1VFS.html#abb5d35abfe80efe2f7a07394ad5b706a" target="_top" xlink:title=" ">
<polygon fill="white" stroke="#666666" points="1087.38,-94.52 968.62,-94.52 968.62,-74.52 1087.38,-74.52 1087.38,-94.52"/>
<text xml:space="preserve" text-anchor="middle" x="1028" y="-81.02" font-family="Helvetica,sans-Serif" font-size="10.00">LGE::VFS::IsReadOnly</text>
</a>
</g>
</g>
<!-- Node2&#45;&gt;Node4 -->
<g id="edge3_Node000002_Node000004" class="edge">
<title>Node2&#45;&gt;Node4</title>
<g id="a_edge3_Node000002_Node000004"><a xlink:title=" ">
<path fill="none" stroke="#63b8ff" d="M917.78,-264.16C922,-261.82 925.9,-258.97 929.25,-255.52 977.57,-205.67 917.8,-154.2 965.25,-103.52 965.85,-102.87 966.48,-102.25 967.12,-101.65"/>
<polygon fill="#63b8ff" stroke="#63b8ff" points="969.14,-104.51 975.21,-95.83 965.05,-98.83 969.14,-104.51"/>
</a>
</g>
</g>
<!-- Node5 -->
<g id="Node000005" class="node">
<title>Node5</title>
<g id="a_Node000005"><a xlink:href="namespaceLGE_1_1LxPath.html#ab664986e94ce09aa029f9eb2fcf50133" target="_top" xlink:title=" ">
<polygon fill="white" stroke="#666666" points="1250.75,-132.52 1126.75,-132.52 1126.75,-112.52 1250.75,-112.52 1250.75,-132.52"/>
<text xml:space="preserve" text-anchor="middle" x="1188.75" y="-119.02" font-family="Helvetica,sans-Serif" font-size="10.00">LGE::LxPath::IsSubPath</text>
</a>
</g>
</g>
<!-- Node4&#45;&gt;Node5 -->
<g id="edge4_Node000004_Node000005" class="edge">
<title>Node4&#45;&gt;Node5</title>
<g id="a_edge4_Node000004_Node000005"><a xlink:title=" ">
<path fill="none" stroke="#63b8ff" d="M1072.8,-95C1091.45,-99.47 1113.41,-104.72 1133.11,-109.44"/>
<polygon fill="#63b8ff" stroke="#63b8ff" points="1132.08,-112.79 1142.62,-111.72 1133.71,-105.98 1132.08,-112.79"/>
</a>
</g>
</g>
<!-- Node6 -->
<g id="Node000006" class="node">
<title>Node6</title>
<g id="a_Node000006"><a xlink:href="namespaceLGE_1_1LxPath.html#a314a60ce690c90f4ee0b4e64c0199408" target="_top" xlink:title=" ">
<polygon fill="white" stroke="#666666" points="1409.25,-113.52 1286.75,-113.52 1286.75,-93.52 1409.25,-93.52 1409.25,-113.52"/>
<text xml:space="preserve" text-anchor="middle" x="1348" y="-100.02" font-family="Helvetica,sans-Serif" font-size="10.00">LGE::LxPath::Normalize</text>
</a>
</g>
</g>
<!-- Node4&#45;&gt;Node6 -->
<g id="edge7_Node000004_Node000006" class="edge">
<title>Node4&#45;&gt;Node6</title>
<g id="a_edge7_Node000004_Node000006"><a xlink:title=" ">
<path fill="none" stroke="#63b8ff" d="M1087.7,-88.02C1140.58,-91.18 1218.49,-95.84 1275.1,-99.22"/>
<polygon fill="#63b8ff" stroke="#63b8ff" points="1274.78,-102.71 1284.97,-99.81 1275.2,-95.72 1274.78,-102.71"/>
</a>
</g>
</g>
<!-- Node5&#45;&gt;Node6 -->
<g id="edge5_Node000005_Node000006" class="edge">
<title>Node5&#45;&gt;Node6</title>
<g id="a_edge5_Node000005_Node000006"><a xlink:title=" ">
<path fill="none" stroke="#63b8ff" d="M1251,-115.12C1258.91,-114.16 1267.07,-113.18 1275.13,-112.2"/>
<polygon fill="#63b8ff" stroke="#63b8ff" points="1275.43,-115.69 1284.93,-111.02 1274.59,-108.74 1275.43,-115.69"/>
</a>
</g>
</g>
<!-- Node6&#45;&gt;Node3 -->
<g id="edge6_Node000006_Node000003" class="edge">
<title>Node6&#45;&gt;Node3</title>
<g id="a_edge6_Node000006_Node000003"><a xlink:title=" ">
<path fill="none" stroke="#63b8ff" d="M1409.65,-95.13C1417.67,-94.02 1425.84,-92.89 1433.7,-91.8"/>
<polygon fill="#63b8ff" stroke="#63b8ff" points="1434.04,-95.29 1443.47,-90.45 1433.08,-88.36 1434.04,-95.29"/>
</a>
</g>
</g>
<!-- Node10 -->
<g id="Node000010" class="node">
<title>Node10</title>
<g id="a_Node000010"><a xlink:href="namespaceLGE_1_1Cache.html#ac4168ca043cafc48a69e3d31db03a75c" target="_top" xlink:title=" ">
<polygon fill="white" stroke="#666666" points="463.5,-170.52 348.5,-170.52 348.5,-150.52 463.5,-150.52 463.5,-170.52"/>
<text xml:space="preserve" text-anchor="middle" x="406" y="-157.02" font-family="Helvetica,sans-Serif" font-size="10.00">LGE::Cache::Contains</text>
</a>
</g>
</g>
<!-- Node9&#45;&gt;Node10 -->
<g id="edge11_Node000009_Node000010" class="edge">
<title>Node9&#45;&gt;Node10</title>
<g id="a_edge11_Node000009_Node000010"><a xlink:title=" ">
<path fill="none" stroke="#63b8ff" d="M312.78,-160.52C320.85,-160.52 329.01,-160.52 336.98,-160.52"/>
<polygon fill="#63b8ff" stroke="#63b8ff" points="336.97,-164.02 346.97,-160.52 336.97,-157.02 336.97,-164.02"/>
</a>
</g>
</g>
<!-- Node17 -->
<g id="Node000017" class="node">
<title>Node17</title>
<g id="a_Node000017"><a xlink:href="namespaceLGE_1_1Dependencies.html#a85bc0b8290df03cc1da7671f578785b1" target="_top" xlink:title=" ">
<polygon fill="white" stroke="#666666" points="460.88,-132.52 351.12,-132.52 351.12,-100.52 460.88,-100.52 460.88,-132.52"/>
<text xml:space="preserve" text-anchor="start" x="359.12" y="-119.02" font-family="Helvetica,sans-Serif" font-size="10.00">LGE::Dependencies::</text>
<text xml:space="preserve" text-anchor="middle" x="406" y="-107.02" font-family="Helvetica,sans-Serif" font-size="10.00">GetDependents</text>
</a>
</g>
</g>
<!-- Node9&#45;&gt;Node17 -->
<g id="edge27_Node000009_Node000017" class="edge">
<title>Node9&#45;&gt;Node17</title>
<g id="a_edge27_Node000009_Node000017"><a xlink:title=" ">
<path fill="none" stroke="#63b8ff" d="M279.07,-150.09C289.97,-147.34 301.68,-144.35 312.5,-141.52 321.31,-139.21 330.58,-136.75 339.72,-134.31"/>
<polygon fill="#63b8ff" stroke="#63b8ff" points="340.54,-137.71 349.29,-131.74 338.72,-130.95 340.54,-137.71"/>
</a>
</g>
</g>
<!-- Node10&#45;&gt;Node7 -->
<g id="edge12_Node000010_Node000007" class="edge">
<title>Node10&#45;&gt;Node7</title>
<g id="a_edge12_Node000010_Node000007"><a xlink:title=" ">
<path fill="none" stroke="#63b8ff" d="M463.87,-160.52C513.76,-160.52 586.11,-160.52 637.23,-160.52"/>
<polygon fill="#63b8ff" stroke="#63b8ff" points="636.93,-164.02 646.93,-160.52 636.93,-157.02 636.93,-164.02"/>
</a>
</g>
</g>
<!-- Node11 -->
<g id="Node000011" class="node">
<title>Node11</title>
<g id="a_Node000011"><a xlink:href="namespaceLGE_1_1Cache.html#ad8e41893a6ca4a8bea160fd1a6351f21" target="_top" xlink:title=" ">
<polygon fill="white" stroke="#666666" points="612.25,-132.52 499.5,-132.52 499.5,-112.52 612.25,-112.52 612.25,-132.52"/>
<text xml:space="preserve" text-anchor="middle" x="555.88" y="-119.02" font-family="Helvetica,sans-Serif" font-size="10.00">LGE::Cache::Remove</text>
</a>
</g>
</g>
<!-- Node10&#45;&gt;Node11 -->
<g id="edge13_Node000010_Node000011" class="edge">
<title>Node10&#45;&gt;Node11</title>
<g id="a_edge13_Node000010_Node000011"><a xlink:title=" ">
<path fill="none" stroke="#63b8ff" d="M447.8,-150.03C464.93,-145.63 485.06,-140.46 503.21,-135.79"/>
<polygon fill="#63b8ff" stroke="#63b8ff" points="503.93,-139.22 512.74,-133.34 502.19,-132.44 503.93,-139.22"/>
</a>
</g>
</g>
<!-- Node11&#45;&gt;Node7 -->
<g id="edge26_Node000011_Node000007" class="edge">
<title>Node11&#45;&gt;Node7</title>
<g id="a_edge26_Node000011_Node000007"><a xlink:title=" ">
<path fill="none" stroke="#63b8ff" d="M595.92,-133C612.15,-137.36 631.2,-142.48 648.44,-147.11"/>
<polygon fill="#63b8ff" stroke="#63b8ff" points="647.43,-150.46 658,-149.67 649.25,-143.7 647.43,-150.46"/>
</a>
</g>
</g>
<!-- Node12 -->
<g id="Node000012" class="node">
<title>Node12</title>
<g id="a_Node000012"><a xlink:href="namespaceLGE_1_1LxFile.html#a495ab310e479d036634c3628390f80a0" target="_top" xlink:title=" ">
<polygon fill="white" stroke="#666666" points="750.5,-132.52 648.25,-132.52 648.25,-112.52 750.5,-112.52 750.5,-132.52"/>
<text xml:space="preserve" text-anchor="middle" x="699.38" y="-119.02" font-family="Helvetica,sans-Serif" font-size="10.00">LGE::LxFile::Delete</text>
</a>
</g>
</g>
<!-- Node11&#45;&gt;Node12 -->
<g id="edge14_Node000011_Node000012" class="edge">
<title>Node11&#45;&gt;Node12</title>
<g id="a_edge14_Node000011_Node000012"><a xlink:title=" ">
<path fill="none" stroke="#63b8ff" d="M612.39,-122.52C620.39,-122.52 628.66,-122.52 636.77,-122.52"/>
<polygon fill="#63b8ff" stroke="#63b8ff" points="636.57,-126.02 646.57,-122.52 636.57,-119.02 636.57,-126.02"/>
</a>
</g>
</g>
<!-- Node12&#45;&gt;Node3 -->
<g id="edge15_Node000012_Node000003" class="edge">
<title>Node12&#45;&gt;Node3</title>
<g id="a_edge15_Node000012_Node000003"><a xlink:title=" ">
<path fill="none" stroke="#63b8ff" d="M706.08,-112.17C717.96,-91.76 747.54,-46.66 786.5,-27.52 882.74,19.76 919.78,-8.52 1027,-8.52 1027,-8.52 1027,-8.52 1189.75,-8.52 1287.48,-8.52 1397.81,-47.71 1452.25,-69.8"/>
<polygon fill="#63b8ff" stroke="#63b8ff" points="1450.7,-72.95 1461.28,-73.53 1453.37,-66.48 1450.7,-72.95"/>
</a>
</g>
</g>
<!-- Node12&#45;&gt;Node4 -->
<g id="edge18_Node000012_Node000004" class="edge">
<title>Node12&#45;&gt;Node4</title>
<g id="a_edge18_Node000012_Node000004"><a xlink:title=" ">
<path fill="none" stroke="#63b8ff" d="M750.69,-116.66C805.95,-110.23 895.05,-99.87 957.08,-92.65"/>
<polygon fill="#63b8ff" stroke="#63b8ff" points="957.3,-96.15 966.83,-91.52 956.49,-89.2 957.3,-96.15"/>
</a>
</g>
</g>
<!-- Node12&#45;&gt;Node8 -->
<g id="edge16_Node000012_Node000008" class="edge">
<title>Node12&#45;&gt;Node8</title>
<g id="a_edge16_Node000012_Node000008"><a xlink:title=" ">
<path fill="none" stroke="#63b8ff" d="M737.85,-132.97C742.44,-135.29 746.81,-138.11 750.5,-141.52 777.96,-166.87 757.82,-193.55 786.5,-217.52 792.37,-222.42 799.4,-226.07 806.7,-228.78"/>
<polygon fill="#63b8ff" stroke="#63b8ff" points="805.47,-232.07 816.06,-231.68 807.54,-225.38 805.47,-232.07"/>
</a>
</g>
</g>
<!-- Node13 -->
<g id="Node000013" class="node">
<title>Node13</title>
<g id="a_Node000013"><a xlink:href="namespaceLGE_1_1LxFS.html#a5684a30f3fa2906f4dafed0258a79166" target="_top" xlink:title=" ">
<polygon fill="white" stroke="#666666" points="918,-208.52 797.75,-208.52 797.75,-188.52 918,-188.52 918,-208.52"/>
<text xml:space="preserve" text-anchor="middle" x="857.88" y="-195.02" font-family="Helvetica,sans-Serif" font-size="10.00">LGE::LxFS::IsInitialized</text>
</a>
</g>
</g>
<!-- Node12&#45;&gt;Node13 -->
<g id="edge17_Node000012_Node000013" class="edge">
<title>Node12&#45;&gt;Node13</title>
<g id="a_edge17_Node000012_Node000013"><a xlink:title=" ">
<path fill="none" stroke="#63b8ff" d="M734.3,-132.98C739.93,-135.38 745.54,-138.22 750.5,-141.52 769.87,-154.41 766.52,-167.6 786.5,-179.52 789.11,-181.08 791.85,-182.51 794.67,-183.82"/>
<polygon fill="#63b8ff" stroke="#63b8ff" points="793.18,-187 803.76,-187.54 795.83,-180.52 793.18,-187"/>
</a>
</g>
</g>
<!-- Node14 -->
<g id="Node000014" class="node">
<title>Node14</title>
<g id="a_Node000014"><a xlink:href="namespaceLGE_1_1LxFS.html#a12aeb6699602f14153953dceb4284914" target="_top" xlink:title=" ">
<polygon fill="white" stroke="#666666" points="906,-170.52 809.75,-170.52 809.75,-150.52 906,-150.52 906,-170.52"/>
<text xml:space="preserve" text-anchor="middle" x="857.88" y="-157.02" font-family="Helvetica,sans-Serif" font-size="10.00">LGE::LxFS::Paths</text>
</a>
</g>
</g>
<!-- Node12&#45;&gt;Node14 -->
<g id="edge19_Node000012_Node000014" class="edge">
<title>Node12&#45;&gt;Node14</title>
<g id="a_edge19_Node000012_Node000014"><a xlink:title=" ">
<path fill="none" stroke="#63b8ff" d="M743.55,-133C761.86,-137.45 783.39,-142.67 802.74,-147.37"/>
<polygon fill="#63b8ff" stroke="#63b8ff" points="801.82,-150.75 812.37,-149.71 803.47,-143.95 801.82,-150.75"/>
</a>
</g>
</g>
<!-- Node15 -->
<g id="Node000015" class="node">
<title>Node15</title>
<g id="a_Node000015"><a xlink:href="namespaceLGE_1_1VFS.html#aee891612cc393155878775a61e486c0b" target="_top" xlink:title=" ">
<polygon fill="white" stroke="#666666" points="1090.75,-132.52 965.25,-132.52 965.25,-112.52 1090.75,-112.52 1090.75,-132.52"/>
<text xml:space="preserve" text-anchor="middle" x="1028" y="-119.02" font-family="Helvetica,sans-Serif" font-size="10.00">LGE::VFS::ToVirtualPath</text>
</a>
</g>
</g>
<!-- Node12&#45;&gt;Node15 -->
<g id="edge20_Node000012_Node000015" class="edge">
<title>Node12&#45;&gt;Node15</title>
<g id="a_edge20_Node000012_Node000015"><a xlink:title=" ">
<path fill="none" stroke="#63b8ff" d="M750.69,-122.52C804.94,-122.52 891.81,-122.52 953.65,-122.52"/>
<polygon fill="#63b8ff" stroke="#63b8ff" points="953.38,-126.02 963.38,-122.52 953.38,-119.02 953.38,-126.02"/>
</a>
</g>
</g>
<!-- Node16 -->
<g id="Node000016" class="node">
<title>Node16</title>
<g id="a_Node000016"><a xlink:href="namespaceLGE_1_1LxFile.html#a06d0b8c5590da8bc48cf22d321fc4074" target="_top" xlink:title=" ">
<polygon fill="white" stroke="#666666" points="911.62,-56.52 804.12,-56.52 804.12,-36.52 911.62,-36.52 911.62,-56.52"/>
<text xml:space="preserve" text-anchor="middle" x="857.88" y="-43.02" font-family="Helvetica,sans-Serif" font-size="10.00">LGE::LxFile::WriteAll</text>
</a>
</g>
</g>
<!-- Node12&#45;&gt;Node16 -->
<g id="edge23_Node000012_Node000016" class="edge">
<title>Node12&#45;&gt;Node16</title>
<g id="a_edge23_Node000012_Node000016"><a xlink:title=" ">
<path fill="none" stroke="#63b8ff" d="M715.38,-112.09C732.15,-100.77 760.38,-82.69 786.5,-70.52 794.23,-66.92 802.66,-63.58 810.9,-60.6"/>
<polygon fill="#63b8ff" stroke="#63b8ff" points="811.84,-63.98 820.14,-57.41 809.55,-57.37 811.84,-63.98"/>
</a>
</g>
</g>
<!-- Node15&#45;&gt;Node5 -->
<g id="edge21_Node000015_Node000005" class="edge">
<title>Node15&#45;&gt;Node5</title>
<g id="a_edge21_Node000015_Node000005"><a xlink:title=" ">
<path fill="none" stroke="#63b8ff" d="M1090.83,-122.52C1098.76,-122.52 1106.94,-122.52 1115.02,-122.52"/>
<polygon fill="#63b8ff" stroke="#63b8ff" points="1114.83,-126.02 1124.83,-122.52 1114.83,-119.02 1114.83,-126.02"/>
</a>
</g>
</g>
<!-- Node15&#45;&gt;Node6 -->
<g id="edge22_Node000015_Node000006" class="edge">
<title>Node15&#45;&gt;Node6</title>
<g id="a_edge22_Node000015_Node000006"><a xlink:title=" ">
<path fill="none" stroke="#63b8ff" d="M1071.45,-132.97C1116.34,-142.43 1189.07,-153.25 1250.75,-141.52 1273.76,-137.14 1298.31,-127.36 1316.85,-118.82"/>
<polygon fill="#63b8ff" stroke="#63b8ff" points="1318.12,-122.09 1325.65,-114.63 1315.12,-115.77 1318.12,-122.09"/>
</a>
</g>
</g>
<!-- Node16&#45;&gt;Node3 -->
<g id="edge24_Node000016_Node000003" class="edge">
<title>Node16&#45;&gt;Node3</title>
<g id="a_edge24_Node000016_Node000003"><a xlink:title=" ">
<path fill="none" stroke="#63b8ff" d="M912.1,-49.74C1030.67,-56.92 1315.33,-74.16 1433.53,-81.32"/>
<polygon fill="#63b8ff" stroke="#63b8ff" points="1433.07,-84.8 1443.27,-81.91 1433.5,-77.81 1433.07,-84.8"/>
</a>
</g>
</g>
<!-- Node16&#45;&gt;Node4 -->
<g id="edge25_Node000016_Node000004" class="edge">
<title>Node16&#45;&gt;Node4</title>
<g id="a_edge25_Node000016_Node000004"><a xlink:title=" ">
<path fill="none" stroke="#63b8ff" d="M905.26,-57C925.2,-61.51 948.7,-66.82 969.71,-71.57"/>
<polygon fill="#63b8ff" stroke="#63b8ff" points="968.76,-74.94 979.29,-73.73 970.31,-68.12 968.76,-74.94"/>
</a>
</g>
</g>
</g>
</svg>
