<?xml version="1.0" encoding="UTF-8" standalone="no"?>
<!DOCTYPE svg PUBLIC "-//W3C//DTD SVG 1.1//EN"
 "http://www.w3.org/Graphics/SVG/1.1/DTD/svg11.dtd">
<!-- Generated by graphviz version 14.0.2 (20251019.1705)
 -->
<!-- Title: LGE::Recycle::Clear Pages: 1 -->
<svg width="1188pt" height="284pt"
 viewBox="0.00 0.00 1188.00 284.00" xmlns="http://www.w3.org/2000/svg" xmlns:xlink="http://www.w3.org/1999/xlink">
<g id="graph0" class="graph" transform="scale(1 1) rotate(0) translate(4 280)">
<title>LGE::Recycle::Clear</title>
<!-- Node1 -->
<g id="Node000001" class="node">
<title>Node1</title>
<g id="a_Node000001"><a xlink:title=" ">
<polygon fill="#999999" stroke="#666666" points="106.75,-165 0,-165 0,-145 106.75,-145 106.75,-165"/>
<text xml:space="preserve" text-anchor="middle" x="53.38" y="-151.5" font-family="Helvetica,sans-Serif" font-size="10.00">LGE::Recycle::Clear</text>
</a>
</g>
</g>
<!-- Node2 -->
<g id="Node000002" class="node">
<title>Node2</title>
<g id="a_Node000002"><a xlink:href="classLGE_1_1Log.html#ab0265ee050b8873a2fd31fbdb696ced0" target="_top" xlink:title=" ">
<polygon fill="white" stroke="#666666" points="559,-276 479.25,-276 479.25,-256 559,-256 559,-276"/>
<text xml:space="preserve" text-anchor="middle" x="519.12" y="-262.5" font-family="Helvetica,sans-Serif" font-size="10.00">LGE::Log::Info</text>
</a>
</g>
</g>
<!-- Node1&#45;&gt;Node2 -->
<g id="edge1_Node000001_Node000002" class="edge">
<title>Node1&#45;&gt;Node2</title>
<g id="a_edge1_Node000001_Node000002"><a xlink:title=" ">
<path fill="none" stroke="#63b8ff" d="M86.57,-165.48C131.34,-179.8 215.09,-205.68 287.75,-223 349.23,-237.66 420.92,-250.36 467.79,-258.08"/>
<polygon fill="#63b8ff" stroke="#63b8ff" points="467.23,-261.53 477.66,-259.69 468.36,-254.63 467.23,-261.53"/>
</a>
</g>
</g>
<!-- Node3 -->
<g id="Node000003" class="node">
<title>Node3</title>
<g id="a_Node000003"><a xlink:href="namespaceLGE_1_1Recycle.html#afebbeb7ce2524043df381b041f2b5e68" target="_top" xlink:title=" ">
<polygon fill="white" stroke="#666666" points="246.88,-105 147.62,-105 147.62,-85 246.88,-85 246.88,-105"/>
<text xml:space="preserve" text-anchor="middle" x="197.25" y="-91.5" font-family="Helvetica,sans-Serif" font-size="10.00">LGE::Recycle::List</text>
</a>
</g>
</g>
<!-- Node1&#45;&gt;Node3 -->
<g id="edge2_Node000001_Node000003" class="edge">
<title>Node1&#45;&gt;Node3</title>
<g id="a_edge2_Node000001_Node000003"><a xlink:title=" ">
<path fill="none" stroke="#63b8ff" d="M79.09,-144.55C101.87,-134.91 135.93,-120.51 161.46,-109.71"/>
<polygon fill="#63b8ff" stroke="#63b8ff" points="162.58,-113.04 170.43,-105.92 159.85,-106.59 162.58,-113.04"/>
</a>
</g>
</g>
<!-- Node9 -->
<g id="Node000009" class="node">
<title>Node9</title>
<g id="a_Node000009"><a xlink:href="namespaceLGE_1_1Recycle.html#a647d391c374ada2f84976a33bf399bad" target="_top" xlink:title=" ">
<polygon fill="white" stroke="#666666" points="251.75,-165 142.75,-165 142.75,-145 251.75,-145 251.75,-165"/>
<text xml:space="preserve" text-anchor="middle" x="197.25" y="-151.5" font-family="Helvetica,sans-Serif" font-size="10.00">LGE::Recycle::Purge</text>
</a>
</g>
</g>
<!-- Node1&#45;&gt;Node9 -->
<g id="edge8_Node000001_Node000009" class="edge">
<title>Node1&#45;&gt;Node9</title>
<g id="a_edge8_Node000001_Node000009"><a xlink:title=" ">
<path fill="none" stroke="#63b8ff" d="M107.2,-155C115.02,-155 123.15,-155 131.19,-155"/>
<polygon fill="#63b8ff" stroke="#63b8ff" points="130.92,-158.5 140.92,-155 130.92,-151.5 130.92,-158.5"/>
</a>
</g>
</g>
<!-- Node4 -->
<g id="Node000004" class="node">
<title>Node4</title>
<g id="a_Node000004"><a xlink:href="classLGE_1_1Log.html#a53f3f4b8797ffd18145739c9e66d690a" target="_top" xlink:title=" ">
<polygon fill="white" stroke="#666666" points="1179.5,-124 1095.25,-124 1095.25,-104 1179.5,-104 1179.5,-124"/>
<text xml:space="preserve" text-anchor="middle" x="1137.38" y="-110.5" font-family="Helvetica,sans-Serif" font-size="10.00">LGE::Log::Error</text>
</a>
</g>
</g>
<!-- Node3&#45;&gt;Node4 -->
<g id="edge3_Node000003_Node000004" class="edge">
<title>Node3&#45;&gt;Node4</title>
<g id="a_edge3_Node000003_Node000004"><a xlink:title=" ">
<path fill="none" stroke="#63b8ff" d="M214.76,-84.53C232.26,-73.87 260.99,-57.6 287.75,-48 386.19,-12.68 413.54,0 518.12,0 518.12,0 518.12,0 839.75,0 947.14,0 1062.71,-65.91 1111.94,-97.5"/>
<polygon fill="#63b8ff" stroke="#63b8ff" points="1109.85,-100.32 1120.14,-102.85 1113.68,-94.46 1109.85,-100.32"/>
</a>
</g>
</g>
<!-- Node5 -->
<g id="Node000005" class="node">
<title>Node5</title>
<g id="a_Node000005"><a xlink:href="namespaceLGE_1_1LxFile.html#a11e62876b312a11b881b484bb3a5ee71" target="_top" xlink:title=" ">
<polygon fill="white" stroke="#666666" points="406.12,-127 304.62,-127 304.62,-107 406.12,-107 406.12,-127"/>
<text xml:space="preserve" text-anchor="middle" x="355.38" y="-113.5" font-family="Helvetica,sans-Serif" font-size="10.00">LGE::LxFile::Exists</text>
</a>
</g>
</g>
<!-- Node3&#45;&gt;Node5 -->
<g id="edge4_Node000003_Node000005" class="edge">
<title>Node3&#45;&gt;Node5</title>
<g id="a_edge4_Node000003_Node000005"><a xlink:title=" ">
<path fill="none" stroke="#63b8ff" d="M247.22,-101.9C261.69,-103.94 277.71,-106.2 292.86,-108.33"/>
<polygon fill="#63b8ff" stroke="#63b8ff" points="292.34,-111.79 302.73,-109.72 293.32,-104.86 292.34,-111.79"/>
</a>
</g>
</g>
<!-- Node6 -->
<g id="Node000006" class="node">
<title>Node6</title>
<g id="a_Node000006"><a xlink:href="namespaceLGE_1_1Recycle.html#a6b2b1d5c0fd3a02630fc333108cf01d4" target="_top" xlink:title=" ">
<polygon fill="white" stroke="#666666" points="423,-89 287.75,-89 287.75,-57 423,-57 423,-89"/>
<text xml:space="preserve" text-anchor="start" x="295.75" y="-75.5" font-family="Helvetica,sans-Serif" font-size="10.00">LGE::Recycle::GetRecycle</text>
<text xml:space="preserve" text-anchor="middle" x="355.38" y="-63.5" font-family="Helvetica,sans-Serif" font-size="10.00">BinPath</text>
</a>
</g>
</g>
<!-- Node3&#45;&gt;Node6 -->
<g id="edge5_Node000003_Node000006" class="edge">
<title>Node3&#45;&gt;Node6</title>
<g id="a_edge5_Node000003_Node000006"><a xlink:title=" ">
<path fill="none" stroke="#63b8ff" d="M247.22,-88.1C256.45,-86.8 266.31,-85.41 276.17,-84.02"/>
<polygon fill="#63b8ff" stroke="#63b8ff" points="276.36,-87.53 285.77,-82.67 275.38,-80.6 276.36,-87.53"/>
</a>
</g>
</g>
<!-- Node7 -->
<g id="Node000007" class="node">
<title>Node7</title>
<g id="a_Node000007"><a xlink:href="namespaceLGE_1_1LxFS.html#a5684a30f3fa2906f4dafed0258a79166" target="_top" xlink:title=" ">
<polygon fill="white" stroke="#666666" points="579.25,-86 459,-86 459,-66 579.25,-66 579.25,-86"/>
<text xml:space="preserve" text-anchor="middle" x="519.12" y="-72.5" font-family="Helvetica,sans-Serif" font-size="10.00">LGE::LxFS::IsInitialized</text>
</a>
</g>
</g>
<!-- Node6&#45;&gt;Node7 -->
<g id="edge6_Node000006_Node000007" class="edge">
<title>Node6&#45;&gt;Node7</title>
<g id="a_edge6_Node000006_Node000007"><a xlink:title=" ">
<path fill="none" stroke="#63b8ff" d="M423.1,-74.24C431.08,-74.39 439.26,-74.54 447.3,-74.69"/>
<polygon fill="#63b8ff" stroke="#63b8ff" points="446.97,-78.18 457.03,-74.87 447.1,-71.18 446.97,-78.18"/>
</a>
</g>
</g>
<!-- Node8 -->
<g id="Node000008" class="node">
<title>Node8</title>
<g id="a_Node000008"><a xlink:href="namespaceLGE_1_1LxFS.html#a12aeb6699602f14153953dceb4284914" target="_top" xlink:title=" ">
<polygon fill="white" stroke="#666666" points="567.25,-48 471,-48 471,-28 567.25,-28 567.25,-48"/>
<text xml:space="preserve" text-anchor="middle" x="519.12" y="-34.5" font-family="Helvetica,sans-Serif" font-size="10.00">LGE::LxFS::Paths</text>
</a>
</g>
</g>
<!-- Node6&#45;&gt;Node8 -->
<g id="edge7_Node000006_Node000008" class="edge">
<title>Node6&#45;&gt;Node8</title>
<g id="a_edge7_Node000006_Node000008"><a xlink:title=" ">
<path fill="none" stroke="#63b8ff" d="M423.1,-58.56C435.23,-55.94 447.81,-53.22 459.68,-50.65"/>
<polygon fill="#63b8ff" stroke="#63b8ff" points="460.3,-54.09 469.33,-48.56 458.82,-47.25 460.3,-54.09"/>
</a>
</g>
</g>
<!-- Node9&#45;&gt;Node2 -->
<g id="edge26_Node000009_Node000002" class="edge">
<title>Node9&#45;&gt;Node2</title>
<g id="a_edge26_Node000009_Node000002"><a xlink:title=" ">
<path fill="none" stroke="#63b8ff" d="M228.34,-165.44C285.97,-185.44 411.98,-229.17 477.2,-251.8"/>
<polygon fill="#63b8ff" stroke="#63b8ff" points="475.85,-255.04 486.45,-255.01 478.15,-248.42 475.85,-255.04"/>
</a>
</g>
</g>
<!-- Node9&#45;&gt;Node5 -->
<g id="edge25_Node000009_Node000005" class="edge">
<title>Node9&#45;&gt;Node5</title>
<g id="a_edge25_Node000009_Node000005"><a xlink:title=" ">
<path fill="none" stroke="#63b8ff" d="M241.33,-144.52C259.58,-140.07 281.06,-134.84 300.37,-130.15"/>
<polygon fill="#63b8ff" stroke="#63b8ff" points="301.08,-133.57 309.97,-127.81 299.43,-126.77 301.08,-133.57"/>
</a>
</g>
</g>
<!-- Node10 -->
<g id="Node000010" class="node">
<title>Node10</title>
<g id="a_Node000010"><a xlink:href="namespaceLGE_1_1LxFile.html#a495ab310e479d036634c3628390f80a0" target="_top" xlink:title=" ">
<polygon fill="white" stroke="#666666" points="406.5,-165 304.25,-165 304.25,-145 406.5,-145 406.5,-165"/>
<text xml:space="preserve" text-anchor="middle" x="355.38" y="-151.5" font-family="Helvetica,sans-Serif" font-size="10.00">LGE::LxFile::Delete</text>
</a>
</g>
</g>
<!-- Node9&#45;&gt;Node10 -->
<g id="edge9_Node000009_Node000010" class="edge">
<title>Node9&#45;&gt;Node10</title>
<g id="a_edge9_Node000009_Node000010"><a xlink:title=" ">
<path fill="none" stroke="#63b8ff" d="M251.98,-155C265.14,-155 279.33,-155 292.83,-155"/>
<polygon fill="#63b8ff" stroke="#63b8ff" points="292.45,-158.5 302.45,-155 292.45,-151.5 292.45,-158.5"/>
</a>
</g>
</g>
<!-- Node10&#45;&gt;Node2 -->
<g id="edge11_Node000010_Node000002" class="edge">
<title>Node10&#45;&gt;Node2</title>
<g id="a_edge11_Node000010_Node000002"><a xlink:title=" ">
<path fill="none" stroke="#63b8ff" d="M377.49,-165.47C391.28,-172.89 409.23,-183.69 423,-196 442.36,-213.3 438.27,-226.37 459,-242 463.36,-245.29 468.23,-248.2 473.26,-250.76"/>
<polygon fill="#63b8ff" stroke="#63b8ff" points="471.75,-253.91 482.3,-254.89 474.66,-247.55 471.75,-253.91"/>
</a>
</g>
</g>
<!-- Node10&#45;&gt;Node4 -->
<g id="edge10_Node000010_Node000004" class="edge">
<title>Node10&#45;&gt;Node4</title>
<g id="a_edge10_Node000010_Node000004"><a xlink:title=" ">
<path fill="none" stroke="#63b8ff" d="M383.35,-165.46C437.92,-185.64 565.68,-228 677,-228 677,-228 677,-228 839.75,-228 947.14,-228 1062.71,-162.09 1111.94,-130.5"/>
<polygon fill="#63b8ff" stroke="#63b8ff" points="1113.68,-133.54 1120.14,-125.15 1109.85,-127.68 1113.68,-133.54"/>
</a>
</g>
</g>
<!-- Node10&#45;&gt;Node7 -->
<g id="edge12_Node000010_Node000007" class="edge">
<title>Node10&#45;&gt;Node7</title>
<g id="a_edge12_Node000010_Node000007"><a xlink:title=" ">
<path fill="none" stroke="#63b8ff" d="M405.45,-144.53C411.6,-142.22 417.61,-139.41 423,-136 443.49,-123.04 438.72,-108.3 459,-95 461.09,-93.63 463.28,-92.35 465.54,-91.16"/>
<polygon fill="#63b8ff" stroke="#63b8ff" points="466.78,-94.45 474.43,-87.11 463.88,-88.08 466.78,-94.45"/>
</a>
</g>
</g>
<!-- Node10&#45;&gt;Node8 -->
<g id="edge18_Node000010_Node000008" class="edge">
<title>Node10&#45;&gt;Node8</title>
<g id="a_edge18_Node000010_Node000008"><a xlink:title=" ">
<path fill="none" stroke="#63b8ff" d="M406.84,-145.8C412.69,-143.29 418.26,-140.08 423,-136 452.25,-110.83 430.17,-82.65 459,-57 460.09,-56.03 461.22,-55.11 462.4,-54.24"/>
<polygon fill="#63b8ff" stroke="#63b8ff" points="464.03,-57.35 470.82,-49.21 460.44,-51.34 464.03,-57.35"/>
</a>
</g>
</g>
<!-- Node11 -->
<g id="Node000011" class="node">
<title>Node11</title>
<g id="a_Node000011"><a xlink:href="namespaceLGE_1_1VFS.html#abb5d35abfe80efe2f7a07394ad5b706a" target="_top" xlink:title=" ">
<polygon fill="white" stroke="#666666" points="737.38,-143 618.62,-143 618.62,-123 737.38,-123 737.38,-143"/>
<text xml:space="preserve" text-anchor="middle" x="678" y="-129.5" font-family="Helvetica,sans-Serif" font-size="10.00">LGE::VFS::IsReadOnly</text>
</a>
</g>
</g>
<!-- Node10&#45;&gt;Node11 -->
<g id="edge13_Node000010_Node000011" class="edge">
<title>Node10&#45;&gt;Node11</title>
<g id="a_edge13_Node000010_Node000011"><a xlink:title=" ">
<path fill="none" stroke="#63b8ff" d="M406.83,-151.54C460.67,-147.84 546.37,-141.96 606.79,-137.82"/>
<polygon fill="#63b8ff" stroke="#63b8ff" points="606.9,-141.32 616.63,-137.14 606.42,-134.34 606.9,-141.32"/>
</a>
</g>
</g>
<!-- Node14 -->
<g id="Node000014" class="node">
<title>Node14</title>
<g id="a_Node000014"><a xlink:href="namespaceLGE_1_1VFS.html#aee891612cc393155878775a61e486c0b" target="_top" xlink:title=" ">
<polygon fill="white" stroke="#666666" points="740.75,-200 615.25,-200 615.25,-180 740.75,-180 740.75,-200"/>
<text xml:space="preserve" text-anchor="middle" x="678" y="-186.5" font-family="Helvetica,sans-Serif" font-size="10.00">LGE::VFS::ToVirtualPath</text>
</a>
</g>
</g>
<!-- Node10&#45;&gt;Node14 -->
<g id="edge19_Node000010_Node000014" class="edge">
<title>Node10&#45;&gt;Node14</title>
<g id="a_edge19_Node000010_Node000014"><a xlink:title=" ">
<path fill="none" stroke="#63b8ff" d="M406.83,-160.51C459.68,-166.28 543.22,-175.4 603.42,-181.97"/>
<polygon fill="#63b8ff" stroke="#63b8ff" points="602.93,-185.43 613.25,-183.04 603.69,-178.48 602.93,-185.43"/>
</a>
</g>
</g>
<!-- Node15 -->
<g id="Node000015" class="node">
<title>Node15</title>
<g id="a_Node000015"><a xlink:href="namespaceLGE_1_1LxFile.html#a06d0b8c5590da8bc48cf22d321fc4074" target="_top" xlink:title=" ">
<polygon fill="white" stroke="#666666" points="572.88,-124 465.38,-124 465.38,-104 572.88,-104 572.88,-124"/>
<text xml:space="preserve" text-anchor="middle" x="519.12" y="-110.5" font-family="Helvetica,sans-Serif" font-size="10.00">LGE::LxFile::WriteAll</text>
</a>
</g>
</g>
<!-- Node10&#45;&gt;Node15 -->
<g id="edge22_Node000010_Node000015" class="edge">
<title>Node10&#45;&gt;Node15</title>
<g id="a_edge22_Node000010_Node000015"><a xlink:title=" ">
<path fill="none" stroke="#63b8ff" d="M397.61,-144.55C418.43,-139.27 443.9,-132.81 466.06,-127.2"/>
<polygon fill="#63b8ff" stroke="#63b8ff" points="466.66,-130.65 475.5,-124.8 464.94,-123.87 466.66,-130.65"/>
</a>
</g>
</g>
<!-- Node12 -->
<g id="Node000012" class="node">
<title>Node12</title>
<g id="a_Node000012"><a xlink:href="namespaceLGE_1_1LxPath.html#ab664986e94ce09aa029f9eb2fcf50133" target="_top" xlink:title=" ">
<polygon fill="white" stroke="#666666" points="900.75,-162 776.75,-162 776.75,-142 900.75,-142 900.75,-162"/>
<text xml:space="preserve" text-anchor="middle" x="838.75" y="-148.5" font-family="Helvetica,sans-Serif" font-size="10.00">LGE::LxPath::IsSubPath</text>
</a>
</g>
</g>
<!-- Node11&#45;&gt;Node12 -->
<g id="edge14_Node000011_Node000012" class="edge">
<title>Node11&#45;&gt;Node12</title>
<g id="a_edge14_Node000011_Node000012"><a xlink:title=" ">
<path fill="none" stroke="#63b8ff" d="M737.66,-140.02C746.64,-141.1 756,-142.22 765.24,-143.32"/>
<polygon fill="#63b8ff" stroke="#63b8ff" points="764.56,-146.76 774.9,-144.48 765.39,-139.81 764.56,-146.76"/>
</a>
</g>
</g>
<!-- Node13 -->
<g id="Node000013" class="node">
<title>Node13</title>
<g id="a_Node000013"><a xlink:href="namespaceLGE_1_1LxPath.html#a314a60ce690c90f4ee0b4e64c0199408" target="_top" xlink:title=" ">
<polygon fill="white" stroke="#666666" points="1059.25,-143 936.75,-143 936.75,-123 1059.25,-123 1059.25,-143"/>
<text xml:space="preserve" text-anchor="middle" x="998" y="-129.5" font-family="Helvetica,sans-Serif" font-size="10.00">LGE::LxPath::Normalize</text>
</a>
</g>
</g>
<!-- Node11&#45;&gt;Node13 -->
<g id="edge17_Node000011_Node000013" class="edge">
<title>Node11&#45;&gt;Node13</title>
<g id="a_edge17_Node000011_Node000013"><a xlink:title=" ">
<path fill="none" stroke="#63b8ff" d="M737.7,-133C790.58,-133 868.49,-133 925.1,-133"/>
<polygon fill="#63b8ff" stroke="#63b8ff" points="924.97,-136.5 934.97,-133 924.97,-129.5 924.97,-136.5"/>
</a>
</g>
</g>
<!-- Node12&#45;&gt;Node13 -->
<g id="edge15_Node000012_Node000013" class="edge">
<title>Node12&#45;&gt;Node13</title>
<g id="a_edge15_Node000012_Node000013"><a xlink:title=" ">
<path fill="none" stroke="#63b8ff" d="M901,-144.6C908.91,-143.64 917.07,-142.66 925.13,-141.68"/>
<polygon fill="#63b8ff" stroke="#63b8ff" points="925.43,-145.17 934.93,-140.5 924.59,-138.22 925.43,-145.17"/>
</a>
</g>
</g>
<!-- Node13&#45;&gt;Node4 -->
<g id="edge16_Node000013_Node000004" class="edge">
<title>Node13&#45;&gt;Node4</title>
<g id="a_edge16_Node000013_Node000004"><a xlink:title=" ">
<path fill="none" stroke="#63b8ff" d="M1059.65,-124.61C1067.67,-123.5 1075.84,-122.37 1083.7,-121.28"/>
<polygon fill="#63b8ff" stroke="#63b8ff" points="1084.04,-124.77 1093.47,-119.93 1083.08,-117.84 1084.04,-124.77"/>
</a>
</g>
</g>
<!-- Node14&#45;&gt;Node12 -->
<g id="edge20_Node000014_Node000012" class="edge">
<title>Node14&#45;&gt;Node12</title>
<g id="a_edge20_Node000014_Node000012"><a xlink:title=" ">
<path fill="none" stroke="#63b8ff" d="M722.8,-179.52C741.45,-175.05 763.41,-169.79 783.11,-165.08"/>
<polygon fill="#63b8ff" stroke="#63b8ff" points="783.71,-168.53 792.62,-162.8 782.08,-161.73 783.71,-168.53"/>
</a>
</g>
</g>
<!-- Node14&#45;&gt;Node13 -->
<g id="edge21_Node000014_Node000013" class="edge">
<title>Node14&#45;&gt;Node13</title>
<g id="a_edge21_Node000014_Node000013"><a xlink:title=" ">
<path fill="none" stroke="#63b8ff" d="M740.93,-189.49C785.83,-187.96 847.71,-183.46 900.75,-171 923.01,-165.77 946.94,-156.34 965.36,-148.19"/>
<polygon fill="#63b8ff" stroke="#63b8ff" points="966.76,-151.4 974.41,-144.08 963.86,-145.03 966.76,-151.4"/>
</a>
</g>
</g>
<!-- Node15&#45;&gt;Node4 -->
<g id="edge23_Node000015_Node000004" class="edge">
<title>Node15&#45;&gt;Node4</title>
<g id="a_edge23_Node000015_Node000004"><a xlink:title=" ">
<path fill="none" stroke="#63b8ff" d="M573.2,-114C689.77,-114 967.04,-114 1083.46,-114"/>
<polygon fill="#63b8ff" stroke="#63b8ff" points="1083.36,-117.5 1093.36,-114 1083.36,-110.5 1083.36,-117.5"/>
</a>
</g>
</g>
<!-- Node15&#45;&gt;Node11 -->
<g id="edge24_Node000015_Node000011" class="edge">
<title>Node15&#45;&gt;Node11</title>
<g id="a_edge24_Node000015_Node000011"><a xlink:title=" ">
<path fill="none" stroke="#63b8ff" d="M573.24,-120.43C584.1,-121.75 595.7,-123.15 607.05,-124.53"/>
<polygon fill="#63b8ff" stroke="#63b8ff" points="606.43,-127.98 616.78,-125.71 607.28,-121.03 606.43,-127.98"/>
</a>
</g>
</g>
</g>
</svg>
