<?xml version="1.0" encoding="UTF-8" standalone="no"?>
<!DOCTYPE svg PUBLIC "-//W3C//DTD SVG 1.1//EN"
 "http://www.w3.org/Graphics/SVG/1.1/DTD/svg11.dtd">
<!-- Generated by graphviz version 14.0.2 (20251019.1705)
 -->
<!-- Title: LGE::MetaDB::UpdateTimestamp Pages: 1 -->
<svg width="1070pt" height="489pt"
 viewBox="0.00 0.00 1070.00 489.00" xmlns="http://www.w3.org/2000/svg" xmlns:xlink="http://www.w3.org/1999/xlink">
<g id="graph0" class="graph" transform="scale(1 1) rotate(0) translate(4 484.51)">
<title>LGE::MetaDB::UpdateTimestamp</title>
<!-- Node1 -->
<g id="Node000001" class="node">
<title>Node1</title>
<g id="a_Node000001"><a xlink:title=" ">
<polygon fill="#999999" stroke="#666666" points="1062,-176.51 898.25,-176.51 898.25,-156.51 1062,-156.51 1062,-176.51"/>
<text xml:space="preserve" text-anchor="middle" x="980.12" y="-163.01" font-family="Helvetica,sans-Serif" font-size="10.00">LGE::MetaDB::UpdateTimestamp</text>
</a>
</g>
</g>
<!-- Node2 -->
<g id="Node000002" class="node">
<title>Node2</title>
<g id="a_Node000002"><a xlink:href="namespaceLGE_1_1FSOps.html#a7c3c8bb77f4634c4667e4896b11d66ad" target="_top" xlink:title=" ">
<polygon fill="white" stroke="#666666" points="665.12,-328.51 543.38,-328.51 543.38,-308.51 665.12,-308.51 665.12,-328.51"/>
<text xml:space="preserve" text-anchor="middle" x="604.25" y="-315.01" font-family="Helvetica,sans-Serif" font-size="10.00">LGE::FSOps::ImportFile</text>
</a>
</g>
</g>
<!-- Node1&#45;&gt;Node2 -->
<g id="edge1_Node000001_Node000002" class="edge">
<title>Node1&#45;&gt;Node2</title>
<g id="a_edge1_Node000001_Node000002"><a xlink:title=" ">
<path fill="none" stroke="#63b8ff" d="M949.57,-181.94C926.17,-193.91 892.49,-210.58 862.25,-223.51 782.2,-257.72 685.27,-291.56 636.5,-308.08"/>
<polygon fill="#63b8ff" stroke="#63b8ff" points="950.92,-185.18 958.21,-177.49 947.71,-178.96 950.92,-185.18"/>
</a>
</g>
</g>
<!-- Node6 -->
<g id="Node000006" class="node">
<title>Node6</title>
<g id="a_Node000006"><a xlink:href="namespaceLGE_1_1Migration.html#a47ee5b06f8c57da1952156f69f9582b7" target="_top" xlink:title=" ">
<polygon fill="white" stroke="#666666" points="862.25,-214.51 702.25,-214.51 702.25,-194.51 862.25,-194.51 862.25,-214.51"/>
<text xml:space="preserve" text-anchor="middle" x="782.25" y="-201.01" font-family="Helvetica,sans-Serif" font-size="10.00">LGE::Migration::MigrateMetadata</text>
</a>
</g>
</g>
<!-- Node1&#45;&gt;Node6 -->
<g id="edge5_Node000001_Node000006" class="edge">
<title>Node1&#45;&gt;Node6</title>
<g id="a_edge5_Node000001_Node000006"><a xlink:title=" ">
<path fill="none" stroke="#63b8ff" d="M913.89,-179.16C888.97,-184 860.86,-189.45 837.12,-194.06"/>
<polygon fill="#63b8ff" stroke="#63b8ff" points="914.45,-182.62 923.6,-177.28 913.11,-175.75 914.45,-182.62"/>
</a>
</g>
</g>
<!-- Node21 -->
<g id="Node000021" class="node">
<title>Node21</title>
<g id="a_Node000021"><a xlink:href="namespaceLGE_1_1Validation.html#a467a0168bbefb71a643b4764f249c376" target="_top" xlink:title=" ">
<polygon fill="white" stroke="#666666" points="306.5,-22.51 163,-22.51 163,-2.51 306.5,-2.51 306.5,-22.51"/>
<text xml:space="preserve" text-anchor="middle" x="234.75" y="-9.01" font-family="Helvetica,sans-Serif" font-size="10.00">LGE::Validation::RepairAsset</text>
</a>
</g>
</g>
<!-- Node1&#45;&gt;Node21 -->
<g id="edge27_Node000001_Node000021" class="edge">
<title>Node1&#45;&gt;Node21</title>
<g id="a_edge27_Node000001_Node000021"><a xlink:title=" ">
<path fill="none" stroke="#63b8ff" d="M960.59,-148.35C938.83,-128.06 900.8,-95.69 862.25,-77.51 677.05,9.83 427.59,4.18 306.96,-5.15"/>
<polygon fill="#63b8ff" stroke="#63b8ff" points="958.11,-150.83 967.77,-155.18 962.94,-145.75 958.11,-150.83"/>
</a>
</g>
</g>
<!-- Node25 -->
<g id="Node000025" class="node">
<title>Node25</title>
<g id="a_Node000025"><a xlink:href="namespaceLGE_1_1FSOps.html#af18c06e20bfe14f2a2de43ea8bddefc1" target="_top" xlink:title=" ">
<polygon fill="white" stroke="#666666" points="666.25,-60.51 542.25,-60.51 542.25,-40.51 666.25,-40.51 666.25,-60.51"/>
<text xml:space="preserve" text-anchor="middle" x="604.25" y="-47.01" font-family="Helvetica,sans-Serif" font-size="10.00">LGE::FSOps::NewAsset</text>
</a>
</g>
</g>
<!-- Node1&#45;&gt;Node25 -->
<g id="edge26_Node000001_Node000025" class="edge">
<title>Node1&#45;&gt;Node25</title>
<g id="a_edge26_Node000001_Node000025"><a xlink:title=" ">
<path fill="none" stroke="#63b8ff" d="M934.7,-152.72C859.01,-129.24 706.71,-81.98 639.01,-60.98"/>
<polygon fill="#63b8ff" stroke="#63b8ff" points="933.25,-155.94 943.84,-155.56 935.33,-149.25 933.25,-155.94"/>
</a>
</g>
</g>
<!-- Node26 -->
<g id="Node000026" class="node">
<title>Node26</title>
<g id="a_Node000026"><a xlink:href="namespaceLGE_1_1MetaDB.html#a93501266bbc2bb77874f90247fcc90ba" target="_top" xlink:title=" ">
<polygon fill="white" stroke="#666666" points="835.25,-176.51 729.25,-176.51 729.25,-156.51 835.25,-156.51 835.25,-176.51"/>
<text xml:space="preserve" text-anchor="middle" x="782.25" y="-163.01" font-family="Helvetica,sans-Serif" font-size="10.00">LGE::MetaDB::Save</text>
</a>
</g>
</g>
<!-- Node1&#45;&gt;Node26 -->
<g id="edge28_Node000001_Node000026" class="edge">
<title>Node1&#45;&gt;Node26</title>
<g id="a_edge28_Node000001_Node000026"><a xlink:title=" ">
<path fill="none" stroke="#63b8ff" d="M886.35,-166.51C868.9,-166.51 851.23,-166.51 835.57,-166.51"/>
<polygon fill="#63b8ff" stroke="#63b8ff" points="886.24,-170.01 896.24,-166.51 886.24,-163.01 886.24,-170.01"/>
</a>
</g>
</g>
<!-- Node3 -->
<g id="Node000003" class="node">
<title>Node3</title>
<g id="a_Node000003"><a xlink:href="namespaceLGE_1_1ImportExport.html#af78ec4a5e430226c5054a220cedc76b1" target="_top" xlink:title=" ">
<polygon fill="white" stroke="#666666" points="478.88,-480.51 375.12,-480.51 375.12,-448.51 478.88,-448.51 478.88,-480.51"/>
<text xml:space="preserve" text-anchor="start" x="383.12" y="-467.01" font-family="Helvetica,sans-Serif" font-size="10.00">LGE::ImportExport::</text>
<text xml:space="preserve" text-anchor="middle" x="427" y="-455.01" font-family="Helvetica,sans-Serif" font-size="10.00">ImportFile</text>
</a>
</g>
</g>
<!-- Node2&#45;&gt;Node3 -->
<g id="edge2_Node000002_Node000003" class="edge">
<title>Node2&#45;&gt;Node3</title>
<g id="a_edge2_Node000002_Node000003"><a xlink:title=" ">
<path fill="none" stroke="#63b8ff" d="M592.13,-338.81C576.43,-365.66 545.25,-412.7 506.25,-439.51 498.14,-445.08 488.72,-449.47 479.28,-452.9"/>
<polygon fill="#63b8ff" stroke="#63b8ff" points="595.08,-340.7 596.98,-330.28 589,-337.25 595.08,-340.7"/>
</a>
</g>
</g>
<!-- Node4 -->
<g id="Node000004" class="node">
<title>Node4</title>
<g id="a_Node000004"><a xlink:href="namespaceLGE_1_1ImportExport.html#ae8496d7d19ac15289295442d11349580" target="_top" xlink:title=" ">
<polygon fill="white" stroke="#666666" points="286.62,-480.51 182.88,-480.51 182.88,-448.51 286.62,-448.51 286.62,-480.51"/>
<text xml:space="preserve" text-anchor="start" x="190.88" y="-467.01" font-family="Helvetica,sans-Serif" font-size="10.00">LGE::ImportExport::</text>
<text xml:space="preserve" text-anchor="middle" x="234.75" y="-455.01" font-family="Helvetica,sans-Serif" font-size="10.00">ImportFiles</text>
</a>
</g>
</g>
<!-- Node3&#45;&gt;Node4 -->
<g id="edge3_Node000003_Node000004" class="edge">
<title>Node3&#45;&gt;Node4</title>
<g id="a_edge3_Node000003_Node000004"><a xlink:title=" ">
<path fill="none" stroke="#63b8ff" d="M363.3,-464.51C338.59,-464.51 310.55,-464.51 287.08,-464.51"/>
<polygon fill="#63b8ff" stroke="#63b8ff" points="363.25,-468.01 373.25,-464.51 363.25,-461.01 363.25,-468.01"/>
</a>
</g>
</g>
<!-- Node5 -->
<g id="Node000005" class="node">
<title>Node5</title>
<g id="a_Node000005"><a xlink:href="namespaceLGE_1_1ImportExport.html#a8220fcef46f5c3ab8c10c64fd5860668" target="_top" xlink:title=" ">
<polygon fill="white" stroke="#666666" points="112.75,-480.51 9,-480.51 9,-448.51 112.75,-448.51 112.75,-480.51"/>
<text xml:space="preserve" text-anchor="start" x="17" y="-467.01" font-family="Helvetica,sans-Serif" font-size="10.00">LGE::ImportExport::</text>
<text xml:space="preserve" text-anchor="middle" x="60.88" y="-455.01" font-family="Helvetica,sans-Serif" font-size="10.00">ImportDirectory</text>
</a>
</g>
</g>
<!-- Node4&#45;&gt;Node5 -->
<g id="edge4_Node000004_Node000005" class="edge">
<title>Node4&#45;&gt;Node5</title>
<g id="a_edge4_Node000004_Node000005"><a xlink:title=" ">
<path fill="none" stroke="#63b8ff" d="M171.3,-464.51C152.17,-464.51 131.36,-464.51 113.08,-464.51"/>
<polygon fill="#63b8ff" stroke="#63b8ff" points="171.13,-468.01 181.13,-464.51 171.13,-461.01 171.13,-468.01"/>
</a>
</g>
</g>
<!-- Node7 -->
<g id="Node000007" class="node">
<title>Node7</title>
<g id="a_Node000007"><a xlink:href="namespaceLGE_1_1MetaDB.html#a9f494f7c23ef0715fa5881a46b93c940" target="_top" xlink:title=" ">
<polygon fill="white" stroke="#666666" points="656.5,-214.51 552,-214.51 552,-194.51 656.5,-194.51 656.5,-214.51"/>
<text xml:space="preserve" text-anchor="middle" x="604.25" y="-201.01" font-family="Helvetica,sans-Serif" font-size="10.00">LGE::MetaDB::Load</text>
</a>
</g>
</g>
<!-- Node6&#45;&gt;Node7 -->
<g id="edge6_Node000006_Node000007" class="edge">
<title>Node6&#45;&gt;Node7</title>
<g id="a_edge6_Node000006_Node000007"><a xlink:title=" ">
<path fill="none" stroke="#63b8ff" d="M690.83,-204.51C679.17,-204.51 667.56,-204.51 656.83,-204.51"/>
<polygon fill="#63b8ff" stroke="#63b8ff" points="690.49,-208.01 700.49,-204.51 690.49,-201.01 690.49,-208.01"/>
</a>
</g>
</g>
<!-- Node16 -->
<g id="Node000016" class="node">
<title>Node16</title>
<g id="a_Node000016"><a xlink:href="namespaceLGE_1_1Migration.html#aab471190f199928c6dc7f32f6e042b72" target="_top" xlink:title=" ">
<polygon fill="white" stroke="#666666" points="492.38,-430.51 361.62,-430.51 361.62,-398.51 492.38,-398.51 492.38,-430.51"/>
<text xml:space="preserve" text-anchor="start" x="369.62" y="-417.01" font-family="Helvetica,sans-Serif" font-size="10.00">LGE::Migration::MigrateAll</text>
<text xml:space="preserve" text-anchor="middle" x="427" y="-405.01" font-family="Helvetica,sans-Serif" font-size="10.00">Metadata</text>
</a>
</g>
</g>
<!-- Node6&#45;&gt;Node16 -->
<g id="edge25_Node000006_Node000016" class="edge">
<title>Node6&#45;&gt;Node16</title>
<g id="a_edge25_Node000006_Node000016"><a xlink:title=" ">
<path fill="none" stroke="#63b8ff" d="M702.41,-220.63C682.58,-233.8 683.19,-245.73 666.25,-256.51 617.03,-287.81 584.45,-259.23 542.25,-299.51 511.08,-329.25 537.78,-360.15 506.25,-389.51 502.18,-393.3 497.53,-396.51 492.58,-399.24"/>
<polygon fill="#63b8ff" stroke="#63b8ff" points="704.07,-223.72 710.96,-215.67 700.56,-217.66 704.07,-223.72"/>
</a>
</g>
</g>
<!-- Node8 -->
<g id="Node000008" class="node">
<title>Node8</title>
<g id="a_Node000008"><a xlink:href="namespaceLGE_1_1Thumbs.html#a20e7c9fbfb16b84f63099872c64f241d" target="_top" xlink:title=" ">
<polygon fill="white" stroke="#666666" points="479.25,-280.51 374.75,-280.51 374.75,-260.51 479.25,-260.51 479.25,-280.51"/>
<text xml:space="preserve" text-anchor="middle" x="427" y="-267.01" font-family="Helvetica,sans-Serif" font-size="10.00">LGE::Thumbs::Build</text>
</a>
</g>
</g>
<!-- Node7&#45;&gt;Node8 -->
<g id="edge7_Node000007_Node000008" class="edge">
<title>Node7&#45;&gt;Node8</title>
<g id="a_edge7_Node000007_Node000008"><a xlink:title=" ">
<path fill="none" stroke="#63b8ff" d="M562.62,-219.22C555.72,-222.08 548.7,-225.21 542.25,-228.51 525.34,-237.13 523.71,-244.05 506.25,-251.51 497.89,-255.07 488.73,-258.05 479.72,-260.51"/>
<polygon fill="#63b8ff" stroke="#63b8ff" points="563.87,-222.49 571.86,-215.54 561.28,-215.98 563.87,-222.49"/>
</a>
</g>
</g>
<!-- Node11 -->
<g id="Node000011" class="node">
<title>Node11</title>
<g id="a_Node000011"><a xlink:href="namespaceLGE_1_1Validation.html#afc0cd19e558fa12673f3bdb03934e3cc" target="_top" xlink:title=" ">
<polygon fill="white" stroke="#666666" points="503.62,-192.51 350.38,-192.51 350.38,-172.51 503.62,-172.51 503.62,-192.51"/>
<text xml:space="preserve" text-anchor="middle" x="427" y="-179.01" font-family="Helvetica,sans-Serif" font-size="10.00">LGE::Validation::CheckIntegrity</text>
</a>
</g>
</g>
<!-- Node7&#45;&gt;Node11 -->
<g id="edge10_Node000007_Node000011" class="edge">
<title>Node7&#45;&gt;Node11</title>
<g id="a_edge10_Node000007_Node000011"><a xlink:title=" ">
<path fill="none" stroke="#63b8ff" d="M540.49,-196.63C528.65,-195.14 516.14,-193.57 503.94,-192.04"/>
<polygon fill="#63b8ff" stroke="#63b8ff" points="539.76,-200.06 550.12,-197.84 540.63,-193.12 539.76,-200.06"/>
</a>
</g>
</g>
<!-- Node13 -->
<g id="Node000013" class="node">
<title>Node13</title>
<g id="a_Node000013"><a xlink:href="namespaceLGE_1_1Validation.html#a8a95594c50b28ddc8bbe656af6ff9385" target="_top" xlink:title=" ">
<polygon fill="white" stroke="#666666" points="506.25,-380.51 347.75,-380.51 347.75,-348.51 506.25,-348.51 506.25,-380.51"/>
<text xml:space="preserve" text-anchor="start" x="355.75" y="-367.01" font-family="Helvetica,sans-Serif" font-size="10.00">LGE::Validation::CheckMetadata</text>
<text xml:space="preserve" text-anchor="middle" x="427" y="-355.01" font-family="Helvetica,sans-Serif" font-size="10.00">Matches</text>
</a>
</g>
</g>
<!-- Node7&#45;&gt;Node13 -->
<g id="edge12_Node000007_Node000013" class="edge">
<title>Node7&#45;&gt;Node13</title>
<g id="a_edge12_Node000007_Node000013"><a xlink:title=" ">
<path fill="none" stroke="#63b8ff" d="M552.09,-220.38C548.49,-222.73 545.15,-225.42 542.25,-228.51 506.72,-266.28 543,-302.91 506.25,-339.51 502.91,-342.83 499.14,-345.71 495.09,-348.2"/>
<polygon fill="#63b8ff" stroke="#63b8ff" points="553.66,-223.51 560.75,-215.64 550.3,-217.37 553.66,-223.51"/>
</a>
</g>
</g>
<!-- Node14 -->
<g id="Node000014" class="node">
<title>Node14</title>
<g id="a_Node000014"><a xlink:href="namespaceLGE_1_1ImportExport.html#aee6be1efe068881b5c6d41e8011b729c" target="_top" xlink:title=" ">
<polygon fill="white" stroke="#666666" points="478.88,-330.51 375.12,-330.51 375.12,-298.51 478.88,-298.51 478.88,-330.51"/>
<text xml:space="preserve" text-anchor="start" x="383.12" y="-317.01" font-family="Helvetica,sans-Serif" font-size="10.00">LGE::ImportExport::</text>
<text xml:space="preserve" text-anchor="middle" x="427" y="-305.01" font-family="Helvetica,sans-Serif" font-size="10.00">ExportAsset</text>
</a>
</g>
</g>
<!-- Node7&#45;&gt;Node14 -->
<g id="edge13_Node000007_Node000014" class="edge">
<title>Node7&#45;&gt;Node14</title>
<g id="a_edge13_Node000007_Node000014"><a xlink:title=" ">
<path fill="none" stroke="#63b8ff" d="M555.03,-219.85C550.46,-222.35 546.1,-225.22 542.25,-228.51 518.3,-248.94 530.86,-269.87 506.25,-289.51 498.33,-295.82 488.79,-300.56 479.13,-304.1"/>
<polygon fill="#63b8ff" stroke="#63b8ff" points="556.39,-223.08 563.9,-215.61 553.37,-216.77 556.39,-223.08"/>
</a>
</g>
</g>
<!-- Node7&#45;&gt;Node16 -->
<g id="edge15_Node000007_Node000016" class="edge">
<title>Node7&#45;&gt;Node16</title>
<g id="a_edge15_Node000007_Node000016"><a xlink:title=" ">
<path fill="none" stroke="#63b8ff" d="M551.02,-220.61C547.78,-222.9 544.81,-225.52 542.25,-228.51 494.57,-284.21 555.73,-335.4 506.25,-389.51 502.3,-393.82 497.61,-397.4 492.52,-400.35"/>
<polygon fill="#63b8ff" stroke="#63b8ff" points="552.52,-223.79 559.4,-215.73 549,-217.74 552.52,-223.79"/>
</a>
</g>
</g>
<!-- Node17 -->
<g id="Node000017" class="node">
<title>Node17</title>
<g id="a_Node000017"><a xlink:href="namespaceLGE_1_1FSOps.html#af7986867af7965c5a24f0751897ccb06" target="_top" xlink:title=" ">
<polygon fill="white" stroke="#666666" points="486,-104.51 368,-104.51 368,-84.51 486,-84.51 486,-104.51"/>
<text xml:space="preserve" text-anchor="middle" x="427" y="-91.01" font-family="Helvetica,sans-Serif" font-size="10.00">LGE::FSOps::Reimport</text>
</a>
</g>
</g>
<!-- Node7&#45;&gt;Node17 -->
<g id="edge16_Node000007_Node000017" class="edge">
<title>Node7&#45;&gt;Node17</title>
<g id="a_edge16_Node000007_Node000017"><a xlink:title=" ">
<path fill="none" stroke="#63b8ff" d="M567.19,-188.99C558.42,-184.19 549.49,-178.33 542.25,-171.51 520.17,-150.7 530.82,-131.3 506.25,-113.51 500.25,-109.16 493.38,-105.8 486.26,-103.2"/>
<polygon fill="#63b8ff" stroke="#63b8ff" points="565.44,-192.03 575.94,-193.46 568.62,-185.8 565.44,-192.03"/>
</a>
</g>
</g>
<!-- Node19 -->
<g id="Node000019" class="node">
<title>Node19</title>
<g id="a_Node000019"><a xlink:href="namespaceLGE_1_1Validation.html#ae388b93a917b4462203ff6011eb925db" target="_top" xlink:title=" ">
<polygon fill="white" stroke="#666666" points="489,-154.51 365,-154.51 365,-122.51 489,-122.51 489,-154.51"/>
<text xml:space="preserve" text-anchor="start" x="373" y="-141.01" font-family="Helvetica,sans-Serif" font-size="10.00">LGE::Validation::Validate</text>
<text xml:space="preserve" text-anchor="middle" x="427" y="-129.01" font-family="Helvetica,sans-Serif" font-size="10.00">Asset</text>
</a>
</g>
</g>
<!-- Node7&#45;&gt;Node19 -->
<g id="edge18_Node000007_Node000019" class="edge">
<title>Node7&#45;&gt;Node19</title>
<g id="a_edge18_Node000007_Node000019"><a xlink:title=" ">
<path fill="none" stroke="#63b8ff" d="M570.06,-189.59C551.46,-181.46 527.75,-171.47 506.25,-163.51 498.36,-160.58 489.95,-157.68 481.68,-154.94"/>
<polygon fill="#63b8ff" stroke="#63b8ff" points="568.41,-192.69 578.97,-193.53 571.24,-186.29 568.41,-192.69"/>
</a>
</g>
</g>
<!-- Node24 -->
<g id="Node000024" class="node">
<title>Node24</title>
<g id="a_Node000024"><a xlink:href="namespaceLGE_1_1Validation.html#a3a3151866b20f58b56467e0f10604685" target="_top" xlink:title=" ">
<polygon fill="white" stroke="#666666" points="489,-242.51 365,-242.51 365,-210.51 489,-210.51 489,-242.51"/>
<text xml:space="preserve" text-anchor="start" x="373" y="-229.01" font-family="Helvetica,sans-Serif" font-size="10.00">LGE::Validation::Validate</text>
<text xml:space="preserve" text-anchor="middle" x="427" y="-217.01" font-family="Helvetica,sans-Serif" font-size="10.00">Metadata</text>
</a>
</g>
</g>
<!-- Node7&#45;&gt;Node24 -->
<g id="edge24_Node000007_Node000024" class="edge">
<title>Node7&#45;&gt;Node24</title>
<g id="a_edge24_Node000007_Node000024"><a xlink:title=" ">
<path fill="none" stroke="#63b8ff" d="M540.39,-212.4C523.82,-214.48 505.96,-216.72 489.47,-218.79"/>
<polygon fill="#63b8ff" stroke="#63b8ff" points="540.63,-215.89 550.12,-211.18 539.76,-208.95 540.63,-215.89"/>
</a>
</g>
</g>
<!-- Node9 -->
<g id="Node000009" class="node">
<title>Node9</title>
<g id="a_Node000009"><a xlink:href="namespaceLGE_1_1Thumbs.html#aff11822502a43d83cc911490abbf316b" target="_top" xlink:title=" ">
<polygon fill="white" stroke="#666666" points="311.75,-286.51 157.75,-286.51 157.75,-254.51 311.75,-254.51 311.75,-286.51"/>
<text xml:space="preserve" text-anchor="start" x="165.75" y="-273.01" font-family="Helvetica,sans-Serif" font-size="10.00">LGE::Thumbs::ProcessPending</text>
<text xml:space="preserve" text-anchor="middle" x="234.75" y="-261.01" font-family="Helvetica,sans-Serif" font-size="10.00">Builds</text>
</a>
</g>
</g>
<!-- Node8&#45;&gt;Node9 -->
<g id="edge8_Node000008_Node000009" class="edge">
<title>Node8&#45;&gt;Node9</title>
<g id="a_edge8_Node000008_Node000009"><a xlink:title=" ">
<path fill="none" stroke="#63b8ff" d="M363.21,-270.51C346.86,-270.51 329.07,-270.51 312.11,-270.51"/>
<polygon fill="#63b8ff" stroke="#63b8ff" points="362.75,-274.01 372.75,-270.51 362.75,-267.01 362.75,-274.01"/>
</a>
</g>
</g>
<!-- Node10 -->
<g id="Node000010" class="node">
<title>Node10</title>
<g id="a_Node000010"><a xlink:href="classExampleApp.html#a69ab083ae73184bfc9bafca1c9310771" target="_top" xlink:title=" ">
<polygon fill="white" stroke="#666666" points="121.75,-280.51 0,-280.51 0,-260.51 121.75,-260.51 121.75,-280.51"/>
<text xml:space="preserve" text-anchor="middle" x="60.88" y="-267.01" font-family="Helvetica,sans-Serif" font-size="10.00">ExampleApp::OnUpdate</text>
</a>
</g>
</g>
<!-- Node9&#45;&gt;Node10 -->
<g id="edge9_Node000009_Node000010" class="edge">
<title>Node9&#45;&gt;Node10</title>
<g id="a_edge9_Node000009_Node000010"><a xlink:title=" ">
<path fill="none" stroke="#63b8ff" d="M145.94,-270.51C137.86,-270.51 129.79,-270.51 122.04,-270.51"/>
<polygon fill="#63b8ff" stroke="#63b8ff" points="145.85,-274.01 155.85,-270.51 145.85,-267.01 145.85,-274.01"/>
</a>
</g>
</g>
<!-- Node12 -->
<g id="Node000012" class="node">
<title>Node12</title>
<g id="a_Node000012"><a xlink:href="namespaceLGE_1_1Validation.html#a5ed2957323e8381437806ac0d0fd02cf" target="_top" xlink:title=" ">
<polygon fill="white" stroke="#666666" points="308,-236.51 161.5,-236.51 161.5,-216.51 308,-216.51 308,-236.51"/>
<text xml:space="preserve" text-anchor="middle" x="234.75" y="-223.01" font-family="Helvetica,sans-Serif" font-size="10.00">LGE::Validation::CheckHealth</text>
</a>
</g>
</g>
<!-- Node11&#45;&gt;Node12 -->
<g id="edge11_Node000011_Node000012" class="edge">
<title>Node11&#45;&gt;Node12</title>
<g id="a_edge11_Node000011_Node000012"><a xlink:title=" ">
<path fill="none" stroke="#63b8ff" d="M369.93,-195.47C341.54,-202.04 307.52,-209.91 280.84,-216.08"/>
<polygon fill="#63b8ff" stroke="#63b8ff" points="370.48,-198.94 379.44,-193.27 368.91,-192.12 370.48,-198.94"/>
</a>
</g>
</g>
<!-- Node15 -->
<g id="Node000015" class="node">
<title>Node15</title>
<g id="a_Node000015"><a xlink:href="namespaceLGE_1_1ImportExport.html#a9f66230255c444c6b3c439ce3c1459f6" target="_top" xlink:title=" ">
<polygon fill="white" stroke="#666666" points="286.62,-336.51 182.88,-336.51 182.88,-304.51 286.62,-304.51 286.62,-336.51"/>
<text xml:space="preserve" text-anchor="start" x="190.88" y="-323.01" font-family="Helvetica,sans-Serif" font-size="10.00">LGE::ImportExport::</text>
<text xml:space="preserve" text-anchor="middle" x="234.75" y="-311.01" font-family="Helvetica,sans-Serif" font-size="10.00">ExportAssets</text>
</a>
</g>
</g>
<!-- Node14&#45;&gt;Node15 -->
<g id="edge14_Node000014_Node000015" class="edge">
<title>Node14&#45;&gt;Node15</title>
<g id="a_edge14_Node000014_Node000015"><a xlink:title=" ">
<path fill="none" stroke="#63b8ff" d="M363.3,-316.48C338.59,-317.26 310.55,-318.15 287.08,-318.89"/>
<polygon fill="#63b8ff" stroke="#63b8ff" points="363.37,-319.98 373.25,-316.17 363.15,-312.99 363.37,-319.98"/>
</a>
</g>
</g>
<!-- Node18 -->
<g id="Node000018" class="node">
<title>Node18</title>
<g id="a_Node000018"><a xlink:href="namespaceLGE_1_1ImportExport.html#aa73ba2a6e02f5350668e8a28ecea64c2" target="_top" xlink:title=" ">
<polygon fill="white" stroke="#666666" points="286.62,-72.51 182.88,-72.51 182.88,-40.51 286.62,-40.51 286.62,-72.51"/>
<text xml:space="preserve" text-anchor="start" x="190.88" y="-59.01" font-family="Helvetica,sans-Serif" font-size="10.00">LGE::ImportExport::</text>
<text xml:space="preserve" text-anchor="middle" x="234.75" y="-47.01" font-family="Helvetica,sans-Serif" font-size="10.00">ReimportAsset</text>
</a>
</g>
</g>
<!-- Node17&#45;&gt;Node18 -->
<g id="edge17_Node000017_Node000018" class="edge">
<title>Node17&#45;&gt;Node18</title>
<g id="a_edge17_Node000017_Node000018"><a xlink:title=" ">
<path fill="none" stroke="#63b8ff" d="M362.5,-81.82C337.98,-76.93 310.3,-71.4 287.08,-66.76"/>
<polygon fill="#63b8ff" stroke="#63b8ff" points="361.53,-85.2 372.03,-83.73 362.9,-78.33 361.53,-85.2"/>
</a>
</g>
</g>
<!-- Node19&#45;&gt;Node12 -->
<g id="edge19_Node000019_Node000012" class="edge">
<title>Node19&#45;&gt;Node12</title>
<g id="a_edge19_Node000019_Node000012"><a xlink:title=" ">
<path fill="none" stroke="#63b8ff" d="M354.31,-159.44C352.05,-160.72 349.86,-162.07 347.75,-163.51 326.86,-177.71 333.09,-193.98 311.75,-207.51 306.35,-210.93 300.37,-213.73 294.21,-216.04"/>
<polygon fill="#63b8ff" stroke="#63b8ff" points="355.85,-162.58 363.21,-154.96 352.71,-156.33 355.85,-162.58"/>
</a>
</g>
</g>
<!-- Node20 -->
<g id="Node000020" class="node">
<title>Node20</title>
<g id="a_Node000020"><a xlink:href="namespaceLGE_1_1Bundles.html#aa9d4c4452f76b1187a963bea3168be71" target="_top" xlink:title=" ">
<polygon fill="white" stroke="#666666" points="305.75,-148.51 163.75,-148.51 163.75,-128.51 305.75,-128.51 305.75,-148.51"/>
<text xml:space="preserve" text-anchor="middle" x="234.75" y="-135.01" font-family="Helvetica,sans-Serif" font-size="10.00">LGE::Bundles::CreateBundle</text>
</a>
</g>
</g>
<!-- Node19&#45;&gt;Node20 -->
<g id="edge20_Node000019_Node000020" class="edge">
<title>Node19&#45;&gt;Node20</title>
<g id="a_edge20_Node000019_Node000020"><a xlink:title=" ">
<path fill="none" stroke="#63b8ff" d="M353.61,-138.51C338.05,-138.51 321.63,-138.51 306.14,-138.51"/>
<polygon fill="#63b8ff" stroke="#63b8ff" points="353.24,-142.01 363.24,-138.51 353.24,-135.01 353.24,-142.01"/>
</a>
</g>
</g>
<!-- Node19&#45;&gt;Node21 -->
<g id="edge21_Node000019_Node000021" class="edge">
<title>Node19&#45;&gt;Node21</title>
<g id="a_edge21_Node000019_Node000021"><a xlink:title=" ">
<path fill="none" stroke="#63b8ff" d="M354.71,-118.94C352.26,-117.28 349.93,-115.47 347.75,-113.51 318.17,-86.87 342.17,-57.18 311.75,-31.51 307.7,-28.08 303.11,-25.26 298.26,-22.94"/>
<polygon fill="#63b8ff" stroke="#63b8ff" points="352.93,-121.96 363.34,-123.94 356.44,-115.9 352.93,-121.96"/>
</a>
</g>
</g>
<!-- Node22 -->
<g id="Node000022" class="node">
<title>Node22</title>
<g id="a_Node000022"><a xlink:href="namespaceLGE_1_1Validation.html#ab5e87b018ce35925ea7bc7cd1f6b6a87" target="_top" xlink:title=" ">
<polygon fill="white" stroke="#666666" points="302.38,-110.51 167.12,-110.51 167.12,-90.51 302.38,-90.51 302.38,-110.51"/>
<text xml:space="preserve" text-anchor="middle" x="234.75" y="-97.01" font-family="Helvetica,sans-Serif" font-size="10.00">LGE::Validation::ValidateAll</text>
</a>
</g>
</g>
<!-- Node19&#45;&gt;Node22 -->
<g id="edge22_Node000019_Node000022" class="edge">
<title>Node19&#45;&gt;Node22</title>
<g id="a_edge22_Node000019_Node000022"><a xlink:title=" ">
<path fill="none" stroke="#63b8ff" d="M353.57,-124.04C331.84,-119.7 308.43,-115.02 288.25,-110.99"/>
<polygon fill="#63b8ff" stroke="#63b8ff" points="352.78,-127.45 363.27,-125.98 354.15,-120.59 352.78,-127.45"/>
</a>
</g>
</g>
<!-- Node23 -->
<g id="Node000023" class="node">
<title>Node23</title>
<g id="a_Node000023"><a xlink:href="namespaceLGE_1_1Validation.html#a79589cf3c193492d81b8c87268350ce5" target="_top" xlink:title=" ">
<polygon fill="white" stroke="#666666" points="296.75,-198.51 172.75,-198.51 172.75,-166.51 296.75,-166.51 296.75,-198.51"/>
<text xml:space="preserve" text-anchor="start" x="180.75" y="-185.01" font-family="Helvetica,sans-Serif" font-size="10.00">LGE::Validation::Validate</text>
<text xml:space="preserve" text-anchor="middle" x="234.75" y="-173.01" font-family="Helvetica,sans-Serif" font-size="10.00">Assets</text>
</a>
</g>
</g>
<!-- Node19&#45;&gt;Node23 -->
<g id="edge23_Node000019_Node000023" class="edge">
<title>Node19&#45;&gt;Node23</title>
<g id="a_edge23_Node000019_Node000023"><a xlink:title=" ">
<path fill="none" stroke="#63b8ff" d="M353.66,-155.24C335.05,-159.54 315.2,-164.13 297.2,-168.29"/>
<polygon fill="#63b8ff" stroke="#63b8ff" points="354.33,-158.67 363.28,-153.01 352.75,-151.85 354.33,-158.67"/>
</a>
</g>
</g>
<!-- Node26&#45;&gt;Node2 -->
<g id="edge29_Node000026_Node000002" class="edge">
<title>Node26&#45;&gt;Node2</title>
<g id="a_edge29_Node000026_Node000002"><a xlink:title=" ">
<path fill="none" stroke="#63b8ff" d="M718.37,-176.14C712.59,-178.61 707.09,-181.68 702.25,-185.51 674.49,-207.44 686.9,-227.78 666.25,-256.51 651.8,-276.61 630.83,-296.4 617.62,-308.03"/>
<polygon fill="#63b8ff" stroke="#63b8ff" points="719.35,-179.51 727.58,-172.84 716.99,-172.92 719.35,-179.51"/>
</a>
</g>
</g>
<!-- Node26&#45;&gt;Node7 -->
<g id="edge30_Node000026_Node000007" class="edge">
<title>Node26&#45;&gt;Node7</title>
<g id="a_edge30_Node000026_Node000007"><a xlink:title=" ">
<path fill="none" stroke="#63b8ff" d="M721.72,-179.36C699.56,-184.14 674.7,-189.51 653.65,-194.06"/>
<polygon fill="#63b8ff" stroke="#63b8ff" points="722.18,-182.84 731.21,-177.31 720.7,-176 722.18,-182.84"/>
</a>
</g>
</g>
<!-- Node26&#45;&gt;Node16 -->
<g id="edge31_Node000026_Node000016" class="edge">
<title>Node26&#45;&gt;Node16</title>
<g id="a_edge31_Node000026_Node000016"><a xlink:title=" ">
<path fill="none" stroke="#63b8ff" d="M718.2,-178.1C712.64,-180.18 707.24,-182.62 702.25,-185.51 682.11,-197.15 686.25,-211.62 666.25,-223.51 617.23,-252.64 582.66,-216.27 542.25,-256.51 498.86,-299.72 548.57,-345.24 506.25,-389.51 502.31,-393.63 497.69,-397.07 492.7,-399.95"/>
<polygon fill="#63b8ff" stroke="#63b8ff" points="719.18,-181.46 727.59,-175.02 717,-174.81 719.18,-181.46"/>
</a>
</g>
</g>
<!-- Node26&#45;&gt;Node17 -->
<g id="edge33_Node000026_Node000017" class="edge">
<title>Node26&#45;&gt;Node17</title>
<g id="a_edge33_Node000026_Node000017"><a xlink:title=" ">
<path fill="none" stroke="#63b8ff" d="M718.89,-153.8C650.76,-139.91 542.9,-117.92 479.43,-104.99"/>
<polygon fill="#63b8ff" stroke="#63b8ff" points="717.9,-157.17 728.4,-155.73 719.3,-150.31 717.9,-157.17"/>
</a>
</g>
</g>
<!-- Node26&#45;&gt;Node21 -->
<g id="edge34_Node000026_Node000021" class="edge">
<title>Node26&#45;&gt;Node21</title>
<g id="a_edge34_Node000026_Node000021"><a xlink:title=" ">
<path fill="none" stroke="#63b8ff" d="M751.74,-150.92C728.89,-139.35 696.21,-123.85 666.25,-113.51 538.36,-69.34 382.51,-38.11 297.82,-22.95"/>
<polygon fill="#63b8ff" stroke="#63b8ff" points="749.96,-153.94 760.45,-155.4 753.15,-147.72 749.96,-153.94"/>
</a>
</g>
</g>
<!-- Node26&#45;&gt;Node25 -->
<g id="edge32_Node000026_Node000025" class="edge">
<title>Node26&#45;&gt;Node25</title>
<g id="a_edge32_Node000026_Node000025"><a xlink:title=" ">
<path fill="none" stroke="#63b8ff" d="M753.08,-150.4C737.42,-140.87 717.98,-128.03 702.25,-114.51 684.11,-98.91 685.9,-88.14 666.25,-74.51 658.3,-68.99 648.91,-64.49 639.9,-60.95"/>
<polygon fill="#63b8ff" stroke="#63b8ff" points="751.07,-153.28 761.45,-155.39 754.66,-147.27 751.07,-153.28"/>
</a>
</g>
</g>
</g>
</svg>
