<?xml version="1.0" encoding="UTF-8" standalone="no"?>
<!DOCTYPE svg PUBLIC "-//W3C//DTD SVG 1.1//EN"
 "http://www.w3.org/Graphics/SVG/1.1/DTD/svg11.dtd">
<!-- Generated by graphviz version 14.0.2 (20251019.1705)
 -->
<!-- Title: LGE::Versioning::GetHistory Pages: 1 -->
<svg width="682pt" height="318pt"
 viewBox="0.00 0.00 682.00 318.00" xmlns="http://www.w3.org/2000/svg" xmlns:xlink="http://www.w3.org/1999/xlink">
<g id="graph0" class="graph" transform="scale(1 1) rotate(0) translate(4 314)">
<title>LGE::Versioning::GetHistory</title>
<!-- Node1 -->
<g id="Node000001" class="node">
<title>Node1</title>
<g id="a_Node000001"><a xlink:title=" ">
<polygon fill="#999999" stroke="#666666" points="673.75,-177 534,-177 534,-157 673.75,-157 673.75,-177"/>
<text xml:space="preserve" text-anchor="middle" x="603.88" y="-163.5" font-family="Helvetica,sans-Serif" font-size="10.00">LGE::Versioning::GetHistory</text>
</a>
</g>
</g>
<!-- Node2 -->
<g id="Node000002" class="node">
<title>Node2</title>
<g id="a_Node000002"><a xlink:href="namespaceLGE_1_1Versioning.html#a42afe545de4dfbdb9b395f9b93c1f79c" target="_top" xlink:title=" ">
<polygon fill="white" stroke="#666666" points="498,-310 344.75,-310 344.75,-290 498,-290 498,-310"/>
<text xml:space="preserve" text-anchor="middle" x="421.38" y="-296.5" font-family="Helvetica,sans-Serif" font-size="10.00">LGE::Versioning::DeleteVersion</text>
</a>
</g>
</g>
<!-- Node1&#45;&gt;Node2 -->
<g id="edge1_Node000001_Node000002" class="edge">
<title>Node1&#45;&gt;Node2</title>
<g id="a_edge1_Node000001_Node000002"><a xlink:title=" ">
<path fill="none" stroke="#63b8ff" d="M589.17,-186.32C570.97,-210.6 536.62,-252 498,-276 488.87,-281.67 478.29,-286.11 467.98,-289.55"/>
<polygon fill="#63b8ff" stroke="#63b8ff" points="591.76,-188.71 594.84,-178.57 586.11,-184.57 591.76,-188.71"/>
</a>
</g>
</g>
<!-- Node3 -->
<g id="Node000003" class="node">
<title>Node3</title>
<g id="a_Node000003"><a xlink:href="namespaceLGE_1_1Versioning.html#ae0e5177fa7183c5b0046c8af354eb3f9" target="_top" xlink:title=" ">
<polygon fill="white" stroke="#666666" points="308.75,-302 168.25,-302 168.25,-270 308.75,-270 308.75,-302"/>
<text xml:space="preserve" text-anchor="start" x="176.25" y="-288.5" font-family="Helvetica,sans-Serif" font-size="10.00">LGE::Versioning::GetCurrent</text>
<text xml:space="preserve" text-anchor="middle" x="238.5" y="-276.5" font-family="Helvetica,sans-Serif" font-size="10.00">Version</text>
</a>
</g>
</g>
<!-- Node1&#45;&gt;Node3 -->
<g id="edge2_Node000001_Node000003" class="edge">
<title>Node1&#45;&gt;Node3</title>
<g id="a_edge2_Node000001_Node000003"><a xlink:title=" ">
<path fill="none" stroke="#63b8ff" d="M583.91,-185C564.09,-202.72 531.31,-229.07 498,-243 437.24,-268.4 362.55,-278.82 309.1,-283.09"/>
<polygon fill="#63b8ff" stroke="#63b8ff" points="586.17,-187.68 591.18,-178.34 581.44,-182.52 586.17,-187.68"/>
</a>
</g>
</g>
<!-- Node5 -->
<g id="Node000005" class="node">
<title>Node5</title>
<g id="a_Node000005"><a xlink:href="namespaceLGE_1_1Versioning.html#aa1c58557187af6c680c697decb83bdf3" target="_top" xlink:title=" ">
<polygon fill="white" stroke="#666666" points="306.12,-202 170.88,-202 170.88,-170 306.12,-170 306.12,-202"/>
<text xml:space="preserve" text-anchor="start" x="178.88" y="-188.5" font-family="Helvetica,sans-Serif" font-size="10.00">LGE::Versioning::GetLatest</text>
<text xml:space="preserve" text-anchor="middle" x="238.5" y="-176.5" font-family="Helvetica,sans-Serif" font-size="10.00">Version</text>
</a>
</g>
</g>
<!-- Node1&#45;&gt;Node5 -->
<g id="edge4_Node000001_Node000005" class="edge">
<title>Node1&#45;&gt;Node5</title>
<g id="a_edge4_Node000001_Node000005"><a xlink:title=" ">
<path fill="none" stroke="#63b8ff" d="M522.28,-171.21C457.49,-174.6 367.53,-179.31 306.6,-182.49"/>
<polygon fill="#63b8ff" stroke="#63b8ff" points="522.36,-174.71 532.16,-170.7 521.99,-167.72 522.36,-174.71"/>
</a>
</g>
</g>
<!-- Node6 -->
<g id="Node000006" class="node">
<title>Node6</title>
<g id="a_Node000006"><a xlink:href="namespaceLGE_1_1Versioning.html#a2b3bdabf3de80322380d4c126e574290" target="_top" xlink:title=" ">
<polygon fill="white" stroke="#666666" points="491.62,-234 351.12,-234 351.12,-214 491.62,-214 491.62,-234"/>
<text xml:space="preserve" text-anchor="middle" x="421.38" y="-220.5" font-family="Helvetica,sans-Serif" font-size="10.00">LGE::Versioning::GetVersion</text>
</a>
</g>
</g>
<!-- Node1&#45;&gt;Node6 -->
<g id="edge5_Node000001_Node000006" class="edge">
<title>Node1&#45;&gt;Node6</title>
<g id="a_edge5_Node000001_Node000006"><a xlink:title=" ">
<path fill="none" stroke="#63b8ff" d="M558.98,-180.86C527.1,-190.93 484.65,-204.33 455.58,-213.52"/>
<polygon fill="#63b8ff" stroke="#63b8ff" points="559.84,-184.26 568.33,-177.91 557.74,-177.58 559.84,-184.26"/>
</a>
</g>
</g>
<!-- Node8 -->
<g id="Node000008" class="node">
<title>Node8</title>
<g id="a_Node000008"><a xlink:href="namespaceLGE_1_1Versioning.html#a4e977862f93d7ccde20aba7b6343b982" target="_top" xlink:title=" ">
<polygon fill="white" stroke="#666666" points="308.75,-152 168.25,-152 168.25,-132 308.75,-132 308.75,-152"/>
<text xml:space="preserve" text-anchor="middle" x="238.5" y="-138.5" font-family="Helvetica,sans-Serif" font-size="10.00">LGE::Versioning::TagVersion</text>
</a>
</g>
</g>
<!-- Node1&#45;&gt;Node8 -->
<g id="edge14_Node000001_Node000008" class="edge">
<title>Node1&#45;&gt;Node8</title>
<g id="a_edge14_Node000001_Node000008"><a xlink:title=" ">
<path fill="none" stroke="#63b8ff" d="M522.43,-161.47C458.49,-157.07 369.97,-150.98 309.06,-146.79"/>
<polygon fill="#63b8ff" stroke="#63b8ff" points="521.94,-164.94 532.16,-162.13 522.43,-157.96 521.94,-164.94"/>
</a>
</g>
</g>
<!-- Node9 -->
<g id="Node000009" class="node">
<title>Node9</title>
<g id="a_Node000009"><a xlink:href="namespaceLGE_1_1Versioning.html#a6bd5d2fbb10d5955414a062ed6a406f5" target="_top" xlink:title=" ">
<polygon fill="white" stroke="#666666" points="494.25,-120 348.5,-120 348.5,-88 494.25,-88 494.25,-120"/>
<text xml:space="preserve" text-anchor="start" x="356.5" y="-106.5" font-family="Helvetica,sans-Serif" font-size="10.00">LGE::Versioning::GetVersions</text>
<text xml:space="preserve" text-anchor="middle" x="421.38" y="-94.5" font-family="Helvetica,sans-Serif" font-size="10.00">ByTag</text>
</a>
</g>
</g>
<!-- Node1&#45;&gt;Node9 -->
<g id="edge11_Node000001_Node000009" class="edge">
<title>Node1&#45;&gt;Node9</title>
<g id="a_edge11_Node000001_Node000009"><a xlink:title=" ">
<path fill="none" stroke="#63b8ff" d="M562.25,-152.82C534.75,-143.22 498.32,-130.51 469.54,-120.46"/>
<polygon fill="#63b8ff" stroke="#63b8ff" points="561.05,-156.11 571.64,-156.1 563.35,-149.5 561.05,-156.11"/>
</a>
</g>
</g>
<!-- Node10 -->
<g id="Node000010" class="node">
<title>Node10</title>
<g id="a_Node000010"><a xlink:href="namespaceLGE_1_1Versioning.html#a1dc091c00f9bab2b27acd38bc4d7f0cb" target="_top" xlink:title=" ">
<polygon fill="white" stroke="#666666" points="494.25,-70 348.5,-70 348.5,-50 494.25,-50 494.25,-70"/>
<text xml:space="preserve" text-anchor="middle" x="421.38" y="-56.5" font-family="Helvetica,sans-Serif" font-size="10.00">LGE::Versioning::ListVersions</text>
</a>
</g>
</g>
<!-- Node1&#45;&gt;Node10 -->
<g id="edge12_Node000001_Node000010" class="edge">
<title>Node1&#45;&gt;Node10</title>
<g id="a_edge12_Node000001_Node000010"><a xlink:title=" ">
<path fill="none" stroke="#63b8ff" d="M585.7,-148.22C566.3,-128.15 532.88,-96.81 498,-79 491.37,-75.61 484.1,-72.81 476.76,-70.48"/>
<polygon fill="#63b8ff" stroke="#63b8ff" points="583.13,-150.6 592.54,-155.46 588.22,-145.79 583.13,-150.6"/>
</a>
</g>
</g>
<!-- Node11 -->
<g id="Node000011" class="node">
<title>Node11</title>
<g id="a_Node000011"><a xlink:href="namespaceLGE_1_1Versioning.html#a271878f2ecd89c44ea35b6adabe9e02a" target="_top" xlink:title=" ">
<polygon fill="white" stroke="#666666" points="484.88,-32 357.88,-32 357.88,0 484.88,0 484.88,-32"/>
<text xml:space="preserve" text-anchor="start" x="365.88" y="-18.5" font-family="Helvetica,sans-Serif" font-size="10.00">LGE::Versioning::Restore</text>
<text xml:space="preserve" text-anchor="middle" x="421.38" y="-6.5" font-family="Helvetica,sans-Serif" font-size="10.00">Version</text>
</a>
</g>
</g>
<!-- Node1&#45;&gt;Node11 -->
<g id="edge13_Node000001_Node000011" class="edge">
<title>Node1&#45;&gt;Node11</title>
<g id="a_edge13_Node000001_Node000011"><a xlink:title=" ">
<path fill="none" stroke="#63b8ff" d="M591.1,-146.72C574,-118.99 539.74,-69.43 498,-41 493.2,-37.73 487.94,-34.86 482.5,-32.35"/>
<polygon fill="#63b8ff" stroke="#63b8ff" points="588.05,-148.44 596.2,-155.21 594.05,-144.84 588.05,-148.44"/>
</a>
</g>
</g>
<!-- Node4 -->
<g id="Node000004" class="node">
<title>Node4</title>
<g id="a_Node000004"><a xlink:href="namespaceLGE_1_1Versioning.html#a149d710231fa56d6d8b64e29741e029a" target="_top" xlink:title=" ">
<polygon fill="white" stroke="#666666" points="132.25,-277 0,-277 0,-245 132.25,-245 132.25,-277"/>
<text xml:space="preserve" text-anchor="start" x="8" y="-263.5" font-family="Helvetica,sans-Serif" font-size="10.00">LGE::Versioning::Compare</text>
<text xml:space="preserve" text-anchor="middle" x="66.12" y="-251.5" font-family="Helvetica,sans-Serif" font-size="10.00">WithVersion</text>
</a>
</g>
</g>
<!-- Node3&#45;&gt;Node4 -->
<g id="edge3_Node000003_Node000004" class="edge">
<title>Node3&#45;&gt;Node4</title>
<g id="a_edge3_Node000003_Node000004"><a xlink:title=" ">
<path fill="none" stroke="#63b8ff" d="M157.05,-274.2C148.83,-272.99 140.54,-271.77 132.51,-270.59"/>
<polygon fill="#63b8ff" stroke="#63b8ff" points="156.3,-277.62 166.7,-275.61 157.32,-270.7 156.3,-277.62"/>
</a>
</g>
</g>
<!-- Node6&#45;&gt;Node3 -->
<g id="edge8_Node000006_Node000003" class="edge">
<title>Node6&#45;&gt;Node3</title>
<g id="a_edge8_Node000006_Node000003"><a xlink:title=" ">
<path fill="none" stroke="#63b8ff" d="M375.64,-237.88C365.46,-241.12 354.71,-244.62 344.75,-248 328.64,-253.46 324.75,-255.22 308.75,-261 301.06,-263.78 292.88,-266.73 284.95,-269.59"/>
<polygon fill="#63b8ff" stroke="#63b8ff" points="376.48,-241.28 384.96,-234.93 374.37,-234.61 376.48,-241.28"/>
</a>
</g>
</g>
<!-- Node6&#45;&gt;Node5 -->
<g id="edge9_Node000006_Node000005" class="edge">
<title>Node6&#45;&gt;Node5</title>
<g id="a_edge9_Node000006_Node000005"><a xlink:title=" ">
<path fill="none" stroke="#63b8ff" d="M359.53,-211.22C342.5,-207.64 323.88,-203.73 306.51,-200.08"/>
<polygon fill="#63b8ff" stroke="#63b8ff" points="358.48,-214.57 368.99,-213.2 359.92,-207.72 358.48,-214.57"/>
</a>
</g>
</g>
<!-- Node7 -->
<g id="Node000007" class="node">
<title>Node7</title>
<g id="a_Node000007"><a xlink:href="namespaceLGE_1_1Versioning.html#ac503d4eba950c0b6ed7c705ec481e22f" target="_top" xlink:title=" ">
<polygon fill="white" stroke="#666666" points="304.62,-252 172.38,-252 172.38,-220 304.62,-220 304.62,-252"/>
<text xml:space="preserve" text-anchor="start" x="180.38" y="-238.5" font-family="Helvetica,sans-Serif" font-size="10.00">LGE::Versioning::Compare</text>
<text xml:space="preserve" text-anchor="middle" x="238.5" y="-226.5" font-family="Helvetica,sans-Serif" font-size="10.00">Versions</text>
</a>
</g>
</g>
<!-- Node6&#45;&gt;Node7 -->
<g id="edge6_Node000006_Node000007" class="edge">
<title>Node6&#45;&gt;Node7</title>
<g id="a_edge6_Node000006_Node000007"><a xlink:title=" ">
<path fill="none" stroke="#63b8ff" d="M339.31,-229.38C327.82,-230.14 316.12,-230.92 304.98,-231.66"/>
<polygon fill="#63b8ff" stroke="#63b8ff" points="339.45,-232.88 349.19,-228.72 338.98,-225.89 339.45,-232.88"/>
</a>
</g>
</g>
<!-- Node6&#45;&gt;Node8 -->
<g id="edge10_Node000006_Node000008" class="edge">
<title>Node6&#45;&gt;Node8</title>
<g id="a_edge10_Node000006_Node000008"><a xlink:title=" ">
<path fill="none" stroke="#63b8ff" d="M395.16,-207.38C373.1,-193.44 339.83,-173.81 308.75,-161 300.91,-157.77 292.35,-154.92 284.01,-152.47"/>
<polygon fill="#63b8ff" stroke="#63b8ff" points="393.15,-210.25 403.46,-212.71 396.93,-204.36 393.15,-210.25"/>
</a>
</g>
</g>
<!-- Node7&#45;&gt;Node4 -->
<g id="edge7_Node000007_Node000004" class="edge">
<title>Node7&#45;&gt;Node4</title>
<g id="a_edge7_Node000007_Node000004"><a xlink:title=" ">
<path fill="none" stroke="#63b8ff" d="M160.75,-247.26C151.36,-248.64 141.82,-250.04 132.62,-251.39"/>
<polygon fill="#63b8ff" stroke="#63b8ff" points="161.23,-250.73 170.62,-245.81 160.22,-243.8 161.23,-250.73"/>
</a>
</g>
</g>
</g>
</svg>
