<?xml version="1.0" encoding="UTF-8" standalone="no"?>
<!DOCTYPE svg PUBLIC "-//W3C//DTD SVG 1.1//EN"
 "http://www.w3.org/Graphics/SVG/1.1/DTD/svg11.dtd">
<!-- Generated by graphviz version 14.0.2 (20251019.1705)
 -->
<!-- Title: LGE::Optimization::OptimizeAssets Pages: 1 -->
<svg width="1216pt" height="464pt"
 viewBox="0.00 0.00 1216.00 464.00" xmlns="http://www.w3.org/2000/svg" xmlns:xlink="http://www.w3.org/1999/xlink">
<g id="graph0" class="graph" transform="scale(1 1) rotate(0) translate(4 459.8)">
<title>LGE::Optimization::OptimizeAssets</title>
<!-- Node1 -->
<g id="Node000001" class="node">
<title>Node1</title>
<g id="a_Node000001"><a xlink:title=" ">
<polygon fill="#999999" stroke="#666666" points="102.25,-364.14 0,-364.14 0,-332.14 102.25,-332.14 102.25,-364.14"/>
<text xml:space="preserve" text-anchor="start" x="8" y="-350.64" font-family="Helvetica,sans-Serif" font-size="10.00">LGE::Optimization::</text>
<text xml:space="preserve" text-anchor="middle" x="51.12" y="-338.64" font-family="Helvetica,sans-Serif" font-size="10.00">OptimizeAssets</text>
</a>
</g>
</g>
<!-- Node2 -->
<g id="Node000002" class="node">
<title>Node2</title>
<g id="a_Node000002"><a xlink:href="classLGE_1_1Log.html#ab0265ee050b8873a2fd31fbdb696ced0" target="_top" xlink:title=" ">
<polygon fill="white" stroke="#666666" points="586.38,-396.14 506.62,-396.14 506.62,-376.14 586.38,-376.14 586.38,-396.14"/>
<text xml:space="preserve" text-anchor="middle" x="546.5" y="-382.64" font-family="Helvetica,sans-Serif" font-size="10.00">LGE::Log::Info</text>
</a>
</g>
</g>
<!-- Node1&#45;&gt;Node2 -->
<g id="edge1_Node000001_Node000002" class="edge">
<title>Node1&#45;&gt;Node2</title>
<g id="a_edge1_Node000001_Node000002"><a xlink:title=" ">
<path fill="none" stroke="#63b8ff" d="M80.32,-364.47C121.71,-387.41 202.09,-428.03 276.5,-443.14 348.8,-457.82 371.07,-461.59 442.5,-443.14 472.46,-435.4 503.02,-416.88 522.98,-403.03"/>
<polygon fill="#63b8ff" stroke="#63b8ff" points="524.8,-406.03 530.9,-397.37 520.73,-400.33 524.8,-406.03"/>
</a>
</g>
</g>
<!-- Node3 -->
<g id="Node000003" class="node">
<title>Node3</title>
<g id="a_Node000003"><a xlink:href="namespaceLGE_1_1Optimization.html#af2494f8684e1126f12c084d070ae77d7" target="_top" xlink:title=" ">
<polygon fill="white" stroke="#666666" points="240.5,-269.14 138.25,-269.14 138.25,-237.14 240.5,-237.14 240.5,-269.14"/>
<text xml:space="preserve" text-anchor="start" x="146.25" y="-255.64" font-family="Helvetica,sans-Serif" font-size="10.00">LGE::Optimization::</text>
<text xml:space="preserve" text-anchor="middle" x="189.38" y="-243.64" font-family="Helvetica,sans-Serif" font-size="10.00">OptimizeAsset</text>
</a>
</g>
</g>
<!-- Node1&#45;&gt;Node3 -->
<g id="edge2_Node000001_Node000003" class="edge">
<title>Node1&#45;&gt;Node3</title>
<g id="a_edge2_Node000001_Node000003"><a xlink:title=" ">
<path fill="none" stroke="#63b8ff" d="M75.55,-331.81C97.58,-316.45 130.78,-293.3 155.47,-276.08"/>
<polygon fill="#63b8ff" stroke="#63b8ff" points="157.36,-279.03 163.56,-270.44 153.36,-273.29 157.36,-279.03"/>
</a>
</g>
</g>
<!-- Node3&#45;&gt;Node2 -->
<g id="edge29_Node000003_Node000002" class="edge">
<title>Node3&#45;&gt;Node2</title>
<g id="a_edge29_Node000003_Node000002"><a xlink:title=" ">
<path fill="none" stroke="#63b8ff" d="M198.6,-269.51C211.55,-293.38 239.13,-337.05 276.5,-357.14 345.4,-394.18 438.49,-395.3 495.14,-391.56"/>
<polygon fill="#63b8ff" stroke="#63b8ff" points="495.09,-395.07 504.8,-390.84 494.57,-388.09 495.09,-395.07"/>
</a>
</g>
</g>
<!-- Node4 -->
<g id="Node000004" class="node">
<title>Node4</title>
<g id="a_Node000004"><a xlink:href="namespaceLGE_1_1Compression.html#af75ab8caccca9d202274ad756caddf9c" target="_top" xlink:title=" ">
<polygon fill="white" stroke="#666666" points="442.5,-320.14 276.5,-320.14 276.5,-300.14 442.5,-300.14 442.5,-320.14"/>
<text xml:space="preserve" text-anchor="middle" x="359.5" y="-306.64" font-family="Helvetica,sans-Serif" font-size="10.00">LGE::Compression::CompressFile</text>
</a>
</g>
</g>
<!-- Node3&#45;&gt;Node4 -->
<g id="edge3_Node000003_Node000004" class="edge">
<title>Node3&#45;&gt;Node4</title>
<g id="a_edge3_Node000003_Node000004"><a xlink:title=" ">
<path fill="none" stroke="#63b8ff" d="M231.31,-269.6C245.52,-275.11 261.63,-281.12 276.5,-286.14 287.04,-289.69 298.43,-293.22 309.28,-296.44"/>
<polygon fill="#63b8ff" stroke="#63b8ff" points="308.3,-299.8 318.88,-299.24 310.26,-293.08 308.3,-299.8"/>
</a>
</g>
</g>
<!-- Node5 -->
<g id="Node000005" class="node">
<title>Node5</title>
<g id="a_Node000005"><a xlink:href="namespaceLGE_1_1LxFile.html#ab62abe452536badcfc9ab15647d6df2b" target="_top" xlink:title=" ">
<polygon fill="white" stroke="#666666" points="595,-358.14 498,-358.14 498,-338.14 595,-338.14 595,-358.14"/>
<text xml:space="preserve" text-anchor="middle" x="546.5" y="-344.64" font-family="Helvetica,sans-Serif" font-size="10.00">LGE::LxFile::Copy</text>
</a>
</g>
</g>
<!-- Node3&#45;&gt;Node5 -->
<g id="edge19_Node000003_Node000005" class="edge">
<title>Node3&#45;&gt;Node5</title>
<g id="a_edge19_Node000003_Node000005"><a xlink:title=" ">
<path fill="none" stroke="#63b8ff" d="M202.96,-269.32C218.17,-287.51 245.6,-316.19 276.5,-329.14 344.37,-357.58 430.3,-358.26 486.53,-354.54"/>
<polygon fill="#63b8ff" stroke="#63b8ff" points="486.48,-358.06 496.2,-353.83 485.97,-351.08 486.48,-358.06"/>
</a>
</g>
</g>
<!-- Node10 -->
<g id="Node000010" class="node">
<title>Node10</title>
<g id="a_Node000010"><a xlink:href="namespaceLGE_1_1LxFile.html#a11e62876b312a11b881b484bb3a5ee71" target="_top" xlink:title=" ">
<polygon fill="white" stroke="#666666" points="597.25,-232.14 495.75,-232.14 495.75,-212.14 597.25,-212.14 597.25,-232.14"/>
<text xml:space="preserve" text-anchor="middle" x="546.5" y="-218.64" font-family="Helvetica,sans-Serif" font-size="10.00">LGE::LxFile::Exists</text>
</a>
</g>
</g>
<!-- Node3&#45;&gt;Node10 -->
<g id="edge20_Node000003_Node000010" class="edge">
<title>Node3&#45;&gt;Node10</title>
<g id="a_edge20_Node000003_Node000010"><a xlink:title=" ">
<path fill="none" stroke="#63b8ff" d="M240.86,-255.49C291.95,-257.09 373.08,-257.47 442.5,-248.14 453.2,-246.7 475.66,-241.14 496.88,-235.53"/>
<polygon fill="#63b8ff" stroke="#63b8ff" points="497.58,-238.96 506.34,-233 495.77,-232.2 497.58,-238.96"/>
</a>
</g>
</g>
<!-- Node13 -->
<g id="Node000013" class="node">
<title>Node13</title>
<g id="a_Node000013"><a xlink:href="namespaceLGE_1_1LxFile.html#a40751ea42c228d8e2c6f6b0788e24aa7" target="_top" xlink:title=" ">
<polygon fill="white" stroke="#666666" points="608.88,-194.14 484.12,-194.14 484.12,-174.14 608.88,-174.14 608.88,-194.14"/>
<text xml:space="preserve" text-anchor="middle" x="546.5" y="-180.64" font-family="Helvetica,sans-Serif" font-size="10.00">LGE::LxFile::GetFileSize</text>
</a>
</g>
</g>
<!-- Node3&#45;&gt;Node13 -->
<g id="edge24_Node000003_Node000013" class="edge">
<title>Node3&#45;&gt;Node13</title>
<g id="a_edge24_Node000003_Node000013"><a xlink:title=" ">
<path fill="none" stroke="#63b8ff" d="M240.62,-248.15C291.85,-242.45 373.42,-231.73 442.5,-215.14 458.9,-211.2 462.38,-208.11 478.5,-203.14 484.35,-201.34 490.51,-199.5 496.62,-197.72"/>
<polygon fill="#63b8ff" stroke="#63b8ff" points="497.4,-201.14 506.04,-195.01 495.47,-194.41 497.4,-201.14"/>
</a>
</g>
</g>
<!-- Node15 -->
<g id="Node000015" class="node">
<title>Node15</title>
<g id="a_Node000015"><a xlink:href="namespaceLGE_1_1AssetRegistry.html#a9e672f9e3c8c62076b9156d1695e48b8" target="_top" xlink:title=" ">
<polygon fill="white" stroke="#666666" points="411.38,-206.14 307.62,-206.14 307.62,-174.14 411.38,-174.14 411.38,-206.14"/>
<text xml:space="preserve" text-anchor="start" x="315.62" y="-192.64" font-family="Helvetica,sans-Serif" font-size="10.00">LGE::AssetRegistry</text>
<text xml:space="preserve" text-anchor="middle" x="359.5" y="-180.64" font-family="Helvetica,sans-Serif" font-size="10.00">::FindByGUID</text>
</a>
</g>
</g>
<!-- Node3&#45;&gt;Node15 -->
<g id="edge21_Node000003_Node000015" class="edge">
<title>Node3&#45;&gt;Node15</title>
<g id="a_edge21_Node000003_Node000015"><a xlink:title=" ">
<path fill="none" stroke="#63b8ff" d="M232.82,-236.73C246.72,-231.39 262.25,-225.47 276.5,-220.14 284.98,-216.96 293.96,-213.64 302.76,-210.4"/>
<polygon fill="#63b8ff" stroke="#63b8ff" points="303.74,-213.77 311.92,-207.04 301.33,-207.2 303.74,-213.77"/>
</a>
</g>
</g>
<!-- Node16 -->
<g id="Node000016" class="node">
<title>Node16</title>
<g id="a_Node000016"><a xlink:href="namespaceLGE_1_1LxPath.html#a442709c353add1504cfb1d9d496f3014" target="_top" xlink:title=" ">
<polygon fill="white" stroke="#666666" points="428.25,-156.14 290.75,-156.14 290.75,-136.14 428.25,-136.14 428.25,-156.14"/>
<text xml:space="preserve" text-anchor="middle" x="359.5" y="-142.64" font-family="Helvetica,sans-Serif" font-size="10.00">LGE::LxPath::GetExtension</text>
</a>
</g>
</g>
<!-- Node3&#45;&gt;Node16 -->
<g id="edge22_Node000003_Node000016" class="edge">
<title>Node3&#45;&gt;Node16</title>
<g id="a_edge22_Node000003_Node000016"><a xlink:title=" ">
<path fill="none" stroke="#63b8ff" d="M201.75,-236.75C216.59,-216.68 244.45,-183.15 276.5,-165.14 279.37,-163.53 282.36,-162.05 285.44,-160.7"/>
<polygon fill="#63b8ff" stroke="#63b8ff" points="286.69,-163.98 294.77,-157.12 284.18,-157.44 286.69,-163.98"/>
</a>
</g>
</g>
<!-- Node17 -->
<g id="Node000017" class="node">
<title>Node17</title>
<g id="a_Node000017"><a xlink:href="namespaceLGE_1_1LxPath.html#aefae4d45f84718077f5218f64d2f074c" target="_top" xlink:title=" ">
<polygon fill="white" stroke="#666666" points="928.5,-80.14 806,-80.14 806,-60.14 928.5,-60.14 928.5,-80.14"/>
<text xml:space="preserve" text-anchor="middle" x="867.25" y="-66.64" font-family="Helvetica,sans-Serif" font-size="10.00">LGE::LxPath::GetParent</text>
</a>
</g>
</g>
<!-- Node3&#45;&gt;Node17 -->
<g id="edge25_Node000003_Node000017" class="edge">
<title>Node3&#45;&gt;Node17</title>
<g id="a_edge25_Node000003_Node000017"><a xlink:title=" ">
<path fill="none" stroke="#63b8ff" d="M193.38,-236.64C200.64,-202.16 222.68,-122.86 276.5,-89.14 360.83,-36.3 656.85,-52.72 794.66,-63.71"/>
<polygon fill="#63b8ff" stroke="#63b8ff" points="794.14,-67.18 804.39,-64.5 794.71,-60.2 794.14,-67.18"/>
</a>
</g>
</g>
<!-- Node18 -->
<g id="Node000018" class="node">
<title>Node18</title>
<g id="a_Node000018"><a xlink:href="namespaceLGE_1_1LxPath.html#a1086a0acffe2b8597d4240d926c32b39" target="_top" xlink:title=" ">
<polygon fill="white" stroke="#666666" points="418.12,-118.14 300.88,-118.14 300.88,-98.14 418.12,-98.14 418.12,-118.14"/>
<text xml:space="preserve" text-anchor="middle" x="359.5" y="-104.64" font-family="Helvetica,sans-Serif" font-size="10.00">LGE::LxPath::GetStem</text>
</a>
</g>
</g>
<!-- Node3&#45;&gt;Node18 -->
<g id="edge27_Node000003_Node000018" class="edge">
<title>Node3&#45;&gt;Node18</title>
<g id="a_edge27_Node000003_Node000018"><a xlink:title=" ">
<path fill="none" stroke="#63b8ff" d="M196.86,-236.71C208.49,-209.44 235.59,-155.09 276.5,-127.14 280.69,-124.28 285.24,-121.85 289.99,-119.78"/>
<polygon fill="#63b8ff" stroke="#63b8ff" points="291.07,-123.11 299.21,-116.33 288.62,-116.55 291.07,-123.11"/>
</a>
</g>
</g>
<!-- Node19 -->
<g id="Node000019" class="node">
<title>Node19</title>
<g id="a_Node000019"><a xlink:href="namespaceLGE_1_1LxPath.html#a94ec3bdfd6948ddc25cda5d18154d4cf" target="_top" xlink:title=" ">
<polygon fill="white" stroke="#666666" points="758,-42.14 661.75,-42.14 661.75,-22.14 758,-22.14 758,-42.14"/>
<text xml:space="preserve" text-anchor="middle" x="709.88" y="-28.64" font-family="Helvetica,sans-Serif" font-size="10.00">LGE::LxPath::Join</text>
</a>
</g>
</g>
<!-- Node3&#45;&gt;Node19 -->
<g id="edge30_Node000003_Node000019" class="edge">
<title>Node3&#45;&gt;Node19</title>
<g id="a_edge30_Node000003_Node000019"><a xlink:title=" ">
<path fill="none" stroke="#63b8ff" d="M191.92,-236.86C196.58,-197.91 214.26,-99.36 276.5,-56.14 392.47,24.41 571.01,-0.31 657.88,-19.2"/>
<polygon fill="#63b8ff" stroke="#63b8ff" points="657.01,-22.59 667.54,-21.37 658.55,-15.76 657.01,-22.59"/>
</a>
</g>
</g>
<!-- Node20 -->
<g id="Node000020" class="node">
<title>Node20</title>
<g id="a_Node000020"><a xlink:href="classLGE_1_1Log.html#aa6f98018af29c23dd7f574d3df5dda5e" target="_top" xlink:title=" ">
<polygon fill="white" stroke="#666666" points="402.38,-434.14 316.62,-434.14 316.62,-414.14 402.38,-414.14 402.38,-434.14"/>
<text xml:space="preserve" text-anchor="middle" x="359.5" y="-420.64" font-family="Helvetica,sans-Serif" font-size="10.00">LGE::Log::Warn</text>
</a>
</g>
</g>
<!-- Node3&#45;&gt;Node20 -->
<g id="edge32_Node000003_Node000020" class="edge">
<title>Node3&#45;&gt;Node20</title>
<g id="a_edge32_Node000003_Node000020"><a xlink:title=" ">
<path fill="none" stroke="#63b8ff" d="M195.44,-269.56C205.67,-299.98 231.73,-365.2 276.5,-400.14 285,-406.78 295.3,-411.58 305.67,-415.06"/>
<polygon fill="#63b8ff" stroke="#63b8ff" points="304.41,-418.33 314.99,-417.79 306.38,-411.62 304.41,-418.33"/>
</a>
</g>
</g>
<!-- Node4&#45;&gt;Node2 -->
<g id="edge16_Node000004_Node000002" class="edge">
<title>Node4&#45;&gt;Node2</title>
<g id="a_edge16_Node000004_Node000002"><a xlink:title=" ">
<path fill="none" stroke="#63b8ff" d="M379.26,-320.46C402.17,-332.77 442.35,-353.4 478.5,-367.14 483.87,-369.18 489.56,-371.12 495.26,-372.92"/>
<polygon fill="#63b8ff" stroke="#63b8ff" points="494.12,-376.24 504.71,-375.78 496.15,-369.53 494.12,-376.24"/>
</a>
</g>
</g>
<!-- Node4&#45;&gt;Node5 -->
<g id="edge4_Node000004_Node000005" class="edge">
<title>Node4&#45;&gt;Node5</title>
<g id="a_edge4_Node000004_Node000005"><a xlink:title=" ">
<path fill="none" stroke="#63b8ff" d="M411.54,-320.62C434.81,-325.4 462.49,-331.09 486.63,-336.05"/>
<polygon fill="#63b8ff" stroke="#63b8ff" points="485.82,-339.45 496.32,-338.04 487.23,-332.6 485.82,-339.45"/>
</a>
</g>
</g>
<!-- Node4&#45;&gt;Node10 -->
<g id="edge11_Node000004_Node000010" class="edge">
<title>Node4&#45;&gt;Node10</title>
<g id="a_edge11_Node000004_Node000010"><a xlink:title=" ">
<path fill="none" stroke="#63b8ff" d="M413.8,-299.7C423.83,-296.33 433.87,-291.92 442.5,-286.14 463.78,-271.88 457.16,-255.31 478.5,-241.14 480.59,-239.75 482.77,-238.47 485.03,-237.27"/>
<polygon fill="#63b8ff" stroke="#63b8ff" points="486.26,-240.56 493.92,-233.24 483.37,-234.19 486.26,-240.56"/>
</a>
</g>
</g>
<!-- Node11 -->
<g id="Node000011" class="node">
<title>Node11</title>
<g id="a_Node000011"><a xlink:href="namespaceLGE_1_1Compression.html#a7d42ab993dbaa3b8a82b82e5d0d6ea8a" target="_top" xlink:title=" ">
<polygon fill="white" stroke="#666666" points="614.5,-282.14 478.5,-282.14 478.5,-250.14 614.5,-250.14 614.5,-282.14"/>
<text xml:space="preserve" text-anchor="start" x="486.5" y="-268.64" font-family="Helvetica,sans-Serif" font-size="10.00">LGE::Compression::Format</text>
<text xml:space="preserve" text-anchor="middle" x="546.5" y="-256.64" font-family="Helvetica,sans-Serif" font-size="10.00">ToString</text>
</a>
</g>
</g>
<!-- Node4&#45;&gt;Node11 -->
<g id="edge12_Node000004_Node000011" class="edge">
<title>Node4&#45;&gt;Node11</title>
<g id="a_edge12_Node000004_Node000011"><a xlink:title=" ">
<path fill="none" stroke="#63b8ff" d="M404.34,-299.71C423.09,-295.25 445.56,-289.91 467,-284.81"/>
<polygon fill="#63b8ff" stroke="#63b8ff" points="467.7,-288.24 476.62,-282.52 466.08,-281.43 467.7,-288.24"/>
</a>
</g>
</g>
<!-- Node12 -->
<g id="Node000012" class="node">
<title>Node12</title>
<g id="a_Node000012"><a xlink:href="namespaceLGE_1_1LxPath.html#a282200340a7ec214f14f5d64e9e41396" target="_top" xlink:title=" ">
<polygon fill="white" stroke="#666666" points="613.38,-156.14 479.62,-156.14 479.62,-136.14 613.38,-136.14 613.38,-156.14"/>
<text xml:space="preserve" text-anchor="middle" x="546.5" y="-142.64" font-family="Helvetica,sans-Serif" font-size="10.00">LGE::LxPath::GetFilename</text>
</a>
</g>
</g>
<!-- Node4&#45;&gt;Node12 -->
<g id="edge13_Node000004_Node000012" class="edge">
<title>Node4&#45;&gt;Node12</title>
<g id="a_edge13_Node000004_Node000012"><a xlink:title=" ">
<path fill="none" stroke="#63b8ff" d="M369.91,-299.85C385.48,-282.69 417.4,-246.95 442.5,-215.14 459.46,-193.64 456.08,-180.86 478.5,-165.14 480.43,-163.78 482.46,-162.52 484.56,-161.35"/>
<polygon fill="#63b8ff" stroke="#63b8ff" points="485.88,-164.6 493.42,-157.15 482.88,-158.28 485.88,-164.6"/>
</a>
</g>
</g>
<!-- Node4&#45;&gt;Node13 -->
<g id="edge15_Node000004_Node000013" class="edge">
<title>Node4&#45;&gt;Node13</title>
<g id="a_edge15_Node000004_Node000013"><a xlink:title=" ">
<path fill="none" stroke="#63b8ff" d="M376.53,-299.78C393.77,-288.26 421.52,-268.55 442.5,-248.14 460.86,-230.28 457.16,-217.31 478.5,-203.14 480.59,-201.75 482.77,-200.47 485.03,-199.27"/>
<polygon fill="#63b8ff" stroke="#63b8ff" points="486.26,-202.56 493.92,-195.24 483.37,-196.19 486.26,-202.56"/>
</a>
</g>
</g>
<!-- Node14 -->
<g id="Node000014" class="node">
<title>Node14</title>
<g id="a_Node000014"><a xlink:href="namespaceLGE_1_1LxFile.html#ac0a61f0e1f49fdcf553f007750c1ba37" target="_top" xlink:title=" ">
<polygon fill="white" stroke="#666666" points="1080.62,-301.14 972.38,-301.14 972.38,-281.14 1080.62,-281.14 1080.62,-301.14"/>
<text xml:space="preserve" text-anchor="middle" x="1026.5" y="-287.64" font-family="Helvetica,sans-Serif" font-size="10.00">LGE::LxFile::ReadAll</text>
</a>
</g>
</g>
<!-- Node4&#45;&gt;Node14 -->
<g id="edge17_Node000004_Node000014" class="edge">
<title>Node4&#45;&gt;Node14</title>
<g id="a_edge17_Node000004_Node000014"><a xlink:title=" ">
<path fill="none" stroke="#63b8ff" d="M442.71,-307.79C576.69,-303.96 839.38,-296.46 960.94,-292.98"/>
<polygon fill="#63b8ff" stroke="#63b8ff" points="960.85,-296.49 970.75,-292.7 960.65,-289.49 960.85,-296.49"/>
</a>
</g>
</g>
<!-- Node6 -->
<g id="Node000006" class="node">
<title>Node6</title>
<g id="a_Node000006"><a xlink:href="classLGE_1_1Log.html#a53f3f4b8797ffd18145739c9e66d690a" target="_top" xlink:title=" ">
<polygon fill="white" stroke="#666666" points="1208,-301.14 1123.75,-301.14 1123.75,-281.14 1208,-281.14 1208,-301.14"/>
<text xml:space="preserve" text-anchor="middle" x="1165.88" y="-287.64" font-family="Helvetica,sans-Serif" font-size="10.00">LGE::Log::Error</text>
</a>
</g>
</g>
<!-- Node5&#45;&gt;Node6 -->
<g id="edge5_Node000005_Node000006" class="edge">
<title>Node5&#45;&gt;Node6</title>
<g id="a_edge5_Node000005_Node000006"><a xlink:title=" ">
<path fill="none" stroke="#63b8ff" d="M595.48,-358.63C668.19,-372.9 810.4,-394.46 929.25,-374.14 1004.72,-361.24 1088.15,-326.66 1132.68,-306.44"/>
<polygon fill="#63b8ff" stroke="#63b8ff" points="1134.13,-309.62 1141.76,-302.26 1131.21,-303.26 1134.13,-309.62"/>
</a>
</g>
</g>
<!-- Node7 -->
<g id="Node000007" class="node">
<title>Node7</title>
<g id="a_Node000007"><a xlink:href="namespaceLGE_1_1VFS.html#abb5d35abfe80efe2f7a07394ad5b706a" target="_top" xlink:title=" ">
<polygon fill="white" stroke="#666666" points="769.25,-358.14 650.5,-358.14 650.5,-338.14 769.25,-338.14 769.25,-358.14"/>
<text xml:space="preserve" text-anchor="middle" x="709.88" y="-344.64" font-family="Helvetica,sans-Serif" font-size="10.00">LGE::VFS::IsReadOnly</text>
</a>
</g>
</g>
<!-- Node5&#45;&gt;Node7 -->
<g id="edge6_Node000005_Node000007" class="edge">
<title>Node5&#45;&gt;Node7</title>
<g id="a_edge6_Node000005_Node000007"><a xlink:title=" ">
<path fill="none" stroke="#63b8ff" d="M595.48,-348.14C609.18,-348.14 624.39,-348.14 639.1,-348.14"/>
<polygon fill="#63b8ff" stroke="#63b8ff" points="638.72,-351.64 648.72,-348.14 638.72,-344.64 638.72,-351.64"/>
</a>
</g>
</g>
<!-- Node8 -->
<g id="Node000008" class="node">
<title>Node8</title>
<g id="a_Node000008"><a xlink:href="namespaceLGE_1_1LxPath.html#ab664986e94ce09aa029f9eb2fcf50133" target="_top" xlink:title=" ">
<polygon fill="white" stroke="#666666" points="929.25,-339.14 805.25,-339.14 805.25,-319.14 929.25,-319.14 929.25,-339.14"/>
<text xml:space="preserve" text-anchor="middle" x="867.25" y="-325.64" font-family="Helvetica,sans-Serif" font-size="10.00">LGE::LxPath::IsSubPath</text>
</a>
</g>
</g>
<!-- Node7&#45;&gt;Node8 -->
<g id="edge7_Node000007_Node000008" class="edge">
<title>Node7&#45;&gt;Node8</title>
<g id="a_edge7_Node000007_Node000008"><a xlink:title=" ">
<path fill="none" stroke="#63b8ff" d="M769.62,-340.96C777.44,-340 785.54,-339.01 793.57,-338.03"/>
<polygon fill="#63b8ff" stroke="#63b8ff" points="793.83,-341.52 803.34,-336.83 792.98,-334.57 793.83,-341.52"/>
</a>
</g>
</g>
<!-- Node9 -->
<g id="Node000009" class="node">
<title>Node9</title>
<g id="a_Node000009"><a xlink:href="namespaceLGE_1_1LxPath.html#a314a60ce690c90f4ee0b4e64c0199408" target="_top" xlink:title=" ">
<polygon fill="white" stroke="#666666" points="1087.75,-219.14 965.25,-219.14 965.25,-199.14 1087.75,-199.14 1087.75,-219.14"/>
<text xml:space="preserve" text-anchor="middle" x="1026.5" y="-205.64" font-family="Helvetica,sans-Serif" font-size="10.00">LGE::LxPath::Normalize</text>
</a>
</g>
</g>
<!-- Node7&#45;&gt;Node9 -->
<g id="edge10_Node000007_Node000009" class="edge">
<title>Node7&#45;&gt;Node9</title>
<g id="a_edge10_Node000007_Node000009"><a xlink:title=" ">
<path fill="none" stroke="#63b8ff" d="M745,-358.59C790.79,-370.44 872.87,-383.82 929.25,-348.14 960.83,-328.15 944.06,-302.93 965.25,-272.14 976.82,-255.32 992.92,-238.74 1005.57,-226.81"/>
<polygon fill="#63b8ff" stroke="#63b8ff" points="1007.58,-229.72 1012.56,-220.38 1002.83,-224.57 1007.58,-229.72"/>
</a>
</g>
</g>
<!-- Node8&#45;&gt;Node9 -->
<g id="edge8_Node000008_Node000009" class="edge">
<title>Node8&#45;&gt;Node9</title>
<g id="a_edge8_Node000008_Node000009"><a xlink:title=" ">
<path fill="none" stroke="#63b8ff" d="M881.93,-318.7C909.13,-297.94 970.24,-251.31 1003.28,-226.09"/>
<polygon fill="#63b8ff" stroke="#63b8ff" points="1005.16,-229.07 1010.98,-220.22 1000.91,-223.5 1005.16,-229.07"/>
</a>
</g>
</g>
<!-- Node9&#45;&gt;Node6 -->
<g id="edge9_Node000009_Node000006" class="edge">
<title>Node9&#45;&gt;Node6</title>
<g id="a_edge9_Node000009_Node000006"><a xlink:title=" ">
<path fill="none" stroke="#63b8ff" d="M1044.9,-219.52C1068.33,-233.51 1110.26,-258.54 1137.83,-274.99"/>
<polygon fill="#63b8ff" stroke="#63b8ff" points="1135.94,-277.94 1146.32,-280.06 1139.53,-271.93 1135.94,-277.94"/>
</a>
</g>
</g>
<!-- Node12&#45;&gt;Node9 -->
<g id="edge14_Node000012_Node000009" class="edge">
<title>Node12&#45;&gt;Node9</title>
<g id="a_edge14_Node000012_Node000009"><a xlink:title=" ">
<path fill="none" stroke="#63b8ff" d="M613.71,-154.87C703.03,-166.64 861.51,-187.53 953.64,-199.67"/>
<polygon fill="#63b8ff" stroke="#63b8ff" points="952.94,-203.11 963.31,-200.94 953.86,-196.17 952.94,-203.11"/>
</a>
</g>
</g>
<!-- Node14&#45;&gt;Node6 -->
<g id="edge18_Node000014_Node000006" class="edge">
<title>Node14&#45;&gt;Node6</title>
<g id="a_edge18_Node000014_Node000006"><a xlink:title=" ">
<path fill="none" stroke="#63b8ff" d="M1081.01,-291.14C1091.3,-291.14 1102.07,-291.14 1112.33,-291.14"/>
<polygon fill="#63b8ff" stroke="#63b8ff" points="1112.13,-294.64 1122.13,-291.14 1112.13,-287.64 1112.13,-294.64"/>
</a>
</g>
</g>
<!-- Node16&#45;&gt;Node12 -->
<g id="edge23_Node000016_Node000012" class="edge">
<title>Node16&#45;&gt;Node12</title>
<g id="a_edge23_Node000016_Node000012"><a xlink:title=" ">
<path fill="none" stroke="#63b8ff" d="M428.6,-146.14C441.43,-146.14 454.93,-146.14 468.02,-146.14"/>
<polygon fill="#63b8ff" stroke="#63b8ff" points="467.88,-149.64 477.88,-146.14 467.88,-142.64 467.88,-149.64"/>
</a>
</g>
</g>
<!-- Node17&#45;&gt;Node9 -->
<g id="edge26_Node000017_Node000009" class="edge">
<title>Node17&#45;&gt;Node9</title>
<g id="a_edge26_Node000017_Node000009"><a xlink:title=" ">
<path fill="none" stroke="#63b8ff" d="M880.07,-80.59C906.84,-104.25 972.34,-162.15 1005.53,-191.48"/>
<polygon fill="#63b8ff" stroke="#63b8ff" points="1003.03,-193.95 1012.84,-197.95 1007.66,-188.7 1003.03,-193.95"/>
</a>
</g>
</g>
<!-- Node18&#45;&gt;Node12 -->
<g id="edge28_Node000018_Node000012" class="edge">
<title>Node18&#45;&gt;Node12</title>
<g id="a_edge28_Node000018_Node000012"><a xlink:title=" ">
<path fill="none" stroke="#63b8ff" d="M411.54,-118.62C433.78,-123.19 460.06,-128.59 483.42,-133.39"/>
<polygon fill="#63b8ff" stroke="#63b8ff" points="482.64,-136.8 493.14,-135.38 484.05,-129.94 482.64,-136.8"/>
</a>
</g>
</g>
<!-- Node19&#45;&gt;Node9 -->
<g id="edge31_Node000019_Node000009" class="edge">
<title>Node19&#45;&gt;Node9</title>
<g id="a_edge31_Node000019_Node000009"><a xlink:title=" ">
<path fill="none" stroke="#63b8ff" d="M758.14,-24.61C805.14,-19.65 877.51,-19.04 929.25,-51.14 980.28,-82.79 1008.11,-152.48 1019.41,-187.77"/>
<polygon fill="#63b8ff" stroke="#63b8ff" points="1016.03,-188.7 1022.29,-197.25 1022.73,-186.66 1016.03,-188.7"/>
</a>
</g>
</g>
</g>
</svg>
