<?xml version="1.0" encoding="UTF-8" standalone="no"?>
<!DOCTYPE svg PUBLIC "-//W3C//DTD SVG 1.1//EN"
 "http://www.w3.org/Graphics/SVG/1.1/DTD/svg11.dtd">
<!-- Generated by graphviz version 14.0.2 (20251019.1705)
 -->
<!-- Title: LGE::LxFile::Delete Pages: 1 -->
<svg width="867pt" height="253pt"
 viewBox="0.00 0.00 867.00 253.00" xmlns="http://www.w3.org/2000/svg" xmlns:xlink="http://www.w3.org/1999/xlink">
<g id="graph0" class="graph" transform="scale(1 1) rotate(0) translate(4 248.88)">
<title>LGE::LxFile::Delete</title>
<!-- Node1 -->
<g id="Node000001" class="node">
<title>Node1</title>
<g id="a_Node000001"><a xlink:title=" ">
<polygon fill="#999999" stroke="#666666" points="102.25,-134 0,-134 0,-114 102.25,-114 102.25,-134"/>
<text xml:space="preserve" text-anchor="middle" x="51.12" y="-120.5" font-family="Helvetica,sans-Serif" font-size="10.00">LGE::LxFile::Delete</text>
</a>
</g>
</g>
<!-- Node2 -->
<g id="Node000002" class="node">
<title>Node2</title>
<g id="a_Node000002"><a xlink:href="classLGE_1_1Log.html#a53f3f4b8797ffd18145739c9e66d690a" target="_top" xlink:title=" ">
<polygon fill="white" stroke="#666666" points="858.75,-96 774.5,-96 774.5,-76 858.75,-76 858.75,-96"/>
<text xml:space="preserve" text-anchor="middle" x="816.62" y="-82.5" font-family="Helvetica,sans-Serif" font-size="10.00">LGE::Log::Error</text>
</a>
</g>
</g>
<!-- Node1&#45;&gt;Node2 -->
<g id="edge1_Node000001_Node000002" class="edge">
<title>Node1&#45;&gt;Node2</title>
<g id="a_edge1_Node000001_Node000002"><a xlink:title=" ">
<path fill="none" stroke="#63b8ff" d="M57.84,-134.32C69.75,-154.68 99.36,-199.7 138.25,-219 225.37,-262.23 258.99,-238 356.25,-238 356.25,-238 356.25,-238 519,-238 635.15,-238 751.52,-144.55 796.35,-104.2"/>
<polygon fill="#63b8ff" stroke="#63b8ff" points="798.69,-106.81 803.69,-97.47 793.96,-101.65 798.69,-106.81"/>
</a>
</g>
</g>
<!-- Node3 -->
<g id="Node000003" class="node">
<title>Node3</title>
<g id="a_Node000003"><a xlink:href="classLGE_1_1Log.html#ab0265ee050b8873a2fd31fbdb696ced0" target="_top" xlink:title=" ">
<polygon fill="white" stroke="#666666" points="238.25,-210 158.5,-210 158.5,-190 238.25,-190 238.25,-210"/>
<text xml:space="preserve" text-anchor="middle" x="198.38" y="-196.5" font-family="Helvetica,sans-Serif" font-size="10.00">LGE::Log::Info</text>
</a>
</g>
</g>
<!-- Node1&#45;&gt;Node3 -->
<g id="edge2_Node000001_Node000003" class="edge">
<title>Node1&#45;&gt;Node3</title>
<g id="a_edge2_Node000001_Node000003"><a xlink:title=" ">
<path fill="none" stroke="#63b8ff" d="M65.16,-134.29C81.47,-146.75 110.61,-167.72 138.25,-181 141.71,-182.66 145.35,-184.23 149.05,-185.69"/>
<polygon fill="#63b8ff" stroke="#63b8ff" points="147.54,-188.87 158.13,-189.03 149.95,-182.3 147.54,-188.87"/>
</a>
</g>
</g>
<!-- Node4 -->
<g id="Node000004" class="node">
<title>Node4</title>
<g id="a_Node000004"><a xlink:href="namespaceLGE_1_1LxFS.html#a5684a30f3fa2906f4dafed0258a79166" target="_top" xlink:title=" ">
<polygon fill="white" stroke="#666666" points="258.5,-172 138.25,-172 138.25,-152 258.5,-152 258.5,-172"/>
<text xml:space="preserve" text-anchor="middle" x="198.38" y="-158.5" font-family="Helvetica,sans-Serif" font-size="10.00">LGE::LxFS::IsInitialized</text>
</a>
</g>
</g>
<!-- Node1&#45;&gt;Node4 -->
<g id="edge3_Node000001_Node000004" class="edge">
<title>Node1&#45;&gt;Node4</title>
<g id="a_edge3_Node000001_Node000004"><a xlink:title=" ">
<path fill="none" stroke="#63b8ff" d="M92.2,-134.48C108.95,-138.87 128.61,-144.01 146.37,-148.66"/>
<polygon fill="#63b8ff" stroke="#63b8ff" points="145.41,-152.02 155.97,-151.17 147.18,-145.25 145.41,-152.02"/>
</a>
</g>
</g>
<!-- Node5 -->
<g id="Node000005" class="node">
<title>Node5</title>
<g id="a_Node000005"><a xlink:href="namespaceLGE_1_1VFS.html#abb5d35abfe80efe2f7a07394ad5b706a" target="_top" xlink:title=" ">
<polygon fill="white" stroke="#666666" points="416.62,-58 297.88,-58 297.88,-38 416.62,-38 416.62,-58"/>
<text xml:space="preserve" text-anchor="middle" x="357.25" y="-44.5" font-family="Helvetica,sans-Serif" font-size="10.00">LGE::VFS::IsReadOnly</text>
</a>
</g>
</g>
<!-- Node1&#45;&gt;Node5 -->
<g id="edge4_Node000001_Node000005" class="edge">
<title>Node1&#45;&gt;Node5</title>
<g id="a_edge4_Node000001_Node000005"><a xlink:title=" ">
<path fill="none" stroke="#63b8ff" d="M63.64,-113.6C79.26,-100.18 108.62,-77.34 138.25,-67 185.83,-50.39 242.63,-45.9 286.32,-45.42"/>
<polygon fill="#63b8ff" stroke="#63b8ff" points="286.2,-48.92 296.19,-45.38 286.18,-41.92 286.2,-48.92"/>
</a>
</g>
</g>
<!-- Node8 -->
<g id="Node000008" class="node">
<title>Node8</title>
<g id="a_Node000008"><a xlink:href="namespaceLGE_1_1LxFS.html#a12aeb6699602f14153953dceb4284914" target="_top" xlink:title=" ">
<polygon fill="white" stroke="#666666" points="246.5,-96 150.25,-96 150.25,-76 246.5,-76 246.5,-96"/>
<text xml:space="preserve" text-anchor="middle" x="198.38" y="-82.5" font-family="Helvetica,sans-Serif" font-size="10.00">LGE::LxFS::Paths</text>
</a>
</g>
</g>
<!-- Node1&#45;&gt;Node8 -->
<g id="edge9_Node000001_Node000008" class="edge">
<title>Node1&#45;&gt;Node8</title>
<g id="a_edge9_Node000001_Node000008"><a xlink:title=" ">
<path fill="none" stroke="#63b8ff" d="M92.2,-113.52C108.95,-109.13 128.61,-103.99 146.37,-99.34"/>
<polygon fill="#63b8ff" stroke="#63b8ff" points="147.18,-102.75 155.97,-96.83 145.41,-95.98 147.18,-102.75"/>
</a>
</g>
</g>
<!-- Node9 -->
<g id="Node000009" class="node">
<title>Node9</title>
<g id="a_Node000009"><a xlink:href="namespaceLGE_1_1VFS.html#aee891612cc393155878775a61e486c0b" target="_top" xlink:title=" ">
<polygon fill="white" stroke="#666666" points="420,-134 294.5,-134 294.5,-114 420,-114 420,-134"/>
<text xml:space="preserve" text-anchor="middle" x="357.25" y="-120.5" font-family="Helvetica,sans-Serif" font-size="10.00">LGE::VFS::ToVirtualPath</text>
</a>
</g>
</g>
<!-- Node1&#45;&gt;Node9 -->
<g id="edge10_Node000001_Node000009" class="edge">
<title>Node1&#45;&gt;Node9</title>
<g id="a_edge10_Node000001_Node000009"><a xlink:title=" ">
<path fill="none" stroke="#63b8ff" d="M102.69,-124C151.91,-124 227.25,-124 283.02,-124"/>
<polygon fill="#63b8ff" stroke="#63b8ff" points="282.74,-127.5 292.74,-124 282.74,-120.5 282.74,-127.5"/>
</a>
</g>
</g>
<!-- Node10 -->
<g id="Node000010" class="node">
<title>Node10</title>
<g id="a_Node000010"><a xlink:href="namespaceLGE_1_1LxFile.html#a06d0b8c5590da8bc48cf22d321fc4074" target="_top" xlink:title=" ">
<polygon fill="white" stroke="#666666" points="252.12,-20 144.62,-20 144.62,0 252.12,0 252.12,-20"/>
<text xml:space="preserve" text-anchor="middle" x="198.38" y="-6.5" font-family="Helvetica,sans-Serif" font-size="10.00">LGE::LxFile::WriteAll</text>
</a>
</g>
</g>
<!-- Node1&#45;&gt;Node10 -->
<g id="edge13_Node000001_Node000010" class="edge">
<title>Node1&#45;&gt;Node10</title>
<g id="a_edge13_Node000001_Node000010"><a xlink:title=" ">
<path fill="none" stroke="#63b8ff" d="M59.57,-113.74C73.28,-95.48 104.26,-57.08 138.25,-34 143.23,-30.62 148.77,-27.59 154.39,-24.91"/>
<polygon fill="#63b8ff" stroke="#63b8ff" points="155.37,-28.31 163.13,-21.1 152.57,-21.89 155.37,-28.31"/>
</a>
</g>
</g>
<!-- Node6 -->
<g id="Node000006" class="node">
<title>Node6</title>
<g id="a_Node000006"><a xlink:href="namespaceLGE_1_1LxPath.html#ab664986e94ce09aa029f9eb2fcf50133" target="_top" xlink:title=" ">
<polygon fill="white" stroke="#666666" points="580,-96 456,-96 456,-76 580,-76 580,-96"/>
<text xml:space="preserve" text-anchor="middle" x="518" y="-82.5" font-family="Helvetica,sans-Serif" font-size="10.00">LGE::LxPath::IsSubPath</text>
</a>
</g>
</g>
<!-- Node5&#45;&gt;Node6 -->
<g id="edge5_Node000005_Node000006" class="edge">
<title>Node5&#45;&gt;Node6</title>
<g id="a_edge5_Node000005_Node000006"><a xlink:title=" ">
<path fill="none" stroke="#63b8ff" d="M402.05,-58.48C420.7,-62.95 442.66,-68.21 462.36,-72.92"/>
<polygon fill="#63b8ff" stroke="#63b8ff" points="461.33,-76.27 471.87,-75.2 462.96,-69.47 461.33,-76.27"/>
</a>
</g>
</g>
<!-- Node7 -->
<g id="Node000007" class="node">
<title>Node7</title>
<g id="a_Node000007"><a xlink:href="namespaceLGE_1_1LxPath.html#a314a60ce690c90f4ee0b4e64c0199408" target="_top" xlink:title=" ">
<polygon fill="white" stroke="#666666" points="738.5,-96 616,-96 616,-76 738.5,-76 738.5,-96"/>
<text xml:space="preserve" text-anchor="middle" x="677.25" y="-82.5" font-family="Helvetica,sans-Serif" font-size="10.00">LGE::LxPath::Normalize</text>
</a>
</g>
</g>
<!-- Node5&#45;&gt;Node7 -->
<g id="edge8_Node000005_Node000007" class="edge">
<title>Node5&#45;&gt;Node7</title>
<g id="a_edge8_Node000005_Node000007"><a xlink:title=" ">
<path fill="none" stroke="#63b8ff" d="M416.81,-51.26C461.63,-54.19 524.91,-59.23 580,-67 592.27,-68.73 605.33,-71.01 617.75,-73.39"/>
<polygon fill="#63b8ff" stroke="#63b8ff" points="616.97,-76.8 627.45,-75.3 618.32,-69.93 616.97,-76.8"/>
</a>
</g>
</g>
<!-- Node6&#45;&gt;Node7 -->
<g id="edge6_Node000006_Node000007" class="edge">
<title>Node6&#45;&gt;Node7</title>
<g id="a_edge6_Node000006_Node000007"><a xlink:title=" ">
<path fill="none" stroke="#63b8ff" d="M580.25,-86C588.16,-86 596.32,-86 604.38,-86"/>
<polygon fill="#63b8ff" stroke="#63b8ff" points="604.17,-89.5 614.17,-86 604.17,-82.5 604.17,-89.5"/>
</a>
</g>
</g>
<!-- Node7&#45;&gt;Node2 -->
<g id="edge7_Node000007_Node000002" class="edge">
<title>Node7&#45;&gt;Node2</title>
<g id="a_edge7_Node000007_Node000002"><a xlink:title=" ">
<path fill="none" stroke="#63b8ff" d="M738.9,-86C746.92,-86 755.09,-86 762.95,-86"/>
<polygon fill="#63b8ff" stroke="#63b8ff" points="762.7,-89.5 772.7,-86 762.7,-82.5 762.7,-89.5"/>
</a>
</g>
</g>
<!-- Node9&#45;&gt;Node6 -->
<g id="edge11_Node000009_Node000006" class="edge">
<title>Node9&#45;&gt;Node6</title>
<g id="a_edge11_Node000009_Node000006"><a xlink:title=" ">
<path fill="none" stroke="#63b8ff" d="M402.05,-113.52C420.7,-109.05 442.66,-103.79 462.36,-99.08"/>
<polygon fill="#63b8ff" stroke="#63b8ff" points="462.96,-102.53 471.87,-96.8 461.33,-95.73 462.96,-102.53"/>
</a>
</g>
</g>
<!-- Node9&#45;&gt;Node7 -->
<g id="edge12_Node000009_Node000007" class="edge">
<title>Node9&#45;&gt;Node7</title>
<g id="a_edge12_Node000009_Node000007"><a xlink:title=" ">
<path fill="none" stroke="#63b8ff" d="M420.11,-120.52C464.7,-117.57 526.24,-112.59 580,-105 592.27,-103.27 605.33,-100.99 617.75,-98.61"/>
<polygon fill="#63b8ff" stroke="#63b8ff" points="618.32,-102.07 627.45,-96.7 616.97,-95.2 618.32,-102.07"/>
</a>
</g>
</g>
<!-- Node10&#45;&gt;Node2 -->
<g id="edge14_Node000010_Node000002" class="edge">
<title>Node10&#45;&gt;Node2</title>
<g id="a_edge14_Node000010_Node000002"><a xlink:title=" ">
<path fill="none" stroke="#63b8ff" d="M252.55,-12.98C349.7,-19 562.1,-34.87 738.5,-67 747.57,-68.65 757.16,-70.74 766.38,-72.91"/>
<polygon fill="#63b8ff" stroke="#63b8ff" points="765.37,-76.27 775.91,-75.24 767.02,-69.47 765.37,-76.27"/>
</a>
</g>
</g>
<!-- Node10&#45;&gt;Node5 -->
<g id="edge15_Node000010_Node000005" class="edge">
<title>Node10&#45;&gt;Node5</title>
<g id="a_edge15_Node000010_Node000005"><a xlink:title=" ">
<path fill="none" stroke="#63b8ff" d="M242.66,-20.48C261,-24.93 282.59,-30.16 301.98,-34.85"/>
<polygon fill="#63b8ff" stroke="#63b8ff" points="301.1,-38.24 311.64,-37.19 302.74,-31.44 301.1,-38.24"/>
</a>
</g>
</g>
</g>
</svg>
