<?xml version="1.0" encoding="UTF-8" standalone="no"?>
<!DOCTYPE svg PUBLIC "-//W3C//DTD SVG 1.1//EN"
 "http://www.w3.org/Graphics/SVG/1.1/DTD/svg11.dtd">
<!-- Generated by graphviz version 14.0.2 (20251019.1705)
 -->
<!-- Title: LGE::Search::ByType Pages: 1 -->
<svg width="484pt" height="110pt"
 viewBox="0.00 0.00 484.00 110.00" xmlns="http://www.w3.org/2000/svg" xmlns:xlink="http://www.w3.org/1999/xlink">
<g id="graph0" class="graph" transform="scale(1 1) rotate(0) translate(4 106)">
<title>LGE::Search::ByType</title>
<!-- Node1 -->
<g id="Node000001" class="node">
<title>Node1</title>
<g id="a_Node000001"><a xlink:title=" ">
<polygon fill="#999999" stroke="#666666" points="111.25,-58 0,-58 0,-38 111.25,-38 111.25,-58"/>
<text xml:space="preserve" text-anchor="middle" x="55.62" y="-44.5" font-family="Helvetica,sans-Serif" font-size="10.00">LGE::Search::ByType</text>
</a>
</g>
</g>
<!-- Node2 -->
<g id="Node000002" class="node">
<title>Node2</title>
<g id="a_Node000002"><a xlink:href="classLGE_1_1SearchQuery.html#a36037a1b2c62d4ffbeb673e1ec702cb7" target="_top" xlink:title=" ">
<polygon fill="white" stroke="#666666" points="296,-96 155.5,-96 155.5,-76 296,-76 296,-96"/>
<text xml:space="preserve" text-anchor="middle" x="225.75" y="-82.5" font-family="Helvetica,sans-Serif" font-size="10.00">LGE::SearchQuery::Execute</text>
</a>
</g>
</g>
<!-- Node1&#45;&gt;Node2 -->
<g id="edge1_Node000001_Node000002" class="edge">
<title>Node1&#45;&gt;Node2</title>
<g id="a_edge1_Node000001_Node000002"><a xlink:title=" ">
<path fill="none" stroke="#63b8ff" d="M103.01,-58.48C122.95,-62.99 146.45,-68.3 167.46,-73.05"/>
<polygon fill="#63b8ff" stroke="#63b8ff" points="166.51,-76.43 177.04,-75.22 168.06,-69.6 166.51,-76.43"/>
</a>
</g>
</g>
<!-- Node4 -->
<g id="Node000004" class="node">
<title>Node4</title>
<g id="a_Node000004"><a xlink:href="classLGE_1_1SearchQuery.html#adbbef77188703d0df9f20960568f2d17" target="_top" xlink:title=" ">
<polygon fill="white" stroke="#666666" points="304.25,-58 147.25,-58 147.25,-38 304.25,-38 304.25,-58"/>
<text xml:space="preserve" text-anchor="middle" x="225.75" y="-44.5" font-family="Helvetica,sans-Serif" font-size="10.00">LGE::SearchQuery::MaxResults</text>
</a>
</g>
</g>
<!-- Node1&#45;&gt;Node4 -->
<g id="edge3_Node000001_Node000004" class="edge">
<title>Node1&#45;&gt;Node4</title>
<g id="a_edge3_Node000001_Node000004"><a xlink:title=" ">
<path fill="none" stroke="#63b8ff" d="M111.68,-48C119.36,-48 127.41,-48 135.52,-48"/>
<polygon fill="#63b8ff" stroke="#63b8ff" points="135.49,-51.5 145.49,-48 135.49,-44.5 135.49,-51.5"/>
</a>
</g>
</g>
<!-- Node6 -->
<g id="Node000006" class="node">
<title>Node6</title>
<g id="a_Node000006"><a xlink:href="classLGE_1_1SearchQuery.html#ad2724b530a7354ae59dc81defaf096bc" target="_top" xlink:title=" ">
<polygon fill="white" stroke="#666666" points="288.5,-20 163,-20 163,0 288.5,0 288.5,-20"/>
<text xml:space="preserve" text-anchor="middle" x="225.75" y="-6.5" font-family="Helvetica,sans-Serif" font-size="10.00">LGE::SearchQuery::Type</text>
</a>
</g>
</g>
<!-- Node1&#45;&gt;Node6 -->
<g id="edge5_Node000001_Node000006" class="edge">
<title>Node1&#45;&gt;Node6</title>
<g id="a_edge5_Node000001_Node000006"><a xlink:title=" ">
<path fill="none" stroke="#63b8ff" d="M103.01,-37.52C122.95,-33.01 146.45,-27.7 167.46,-22.95"/>
<polygon fill="#63b8ff" stroke="#63b8ff" points="168.06,-26.4 177.04,-20.78 166.51,-19.57 168.06,-26.4"/>
</a>
</g>
</g>
<!-- Node3 -->
<g id="Node000003" class="node">
<title>Node3</title>
<g id="a_Node000003"><a xlink:href="namespaceLGE_1_1AssetRegistry.html#ac9aa62a1e0c929e88bec00618b489988" target="_top" xlink:title=" ">
<polygon fill="white" stroke="#666666" points="459.75,-102 356,-102 356,-70 459.75,-70 459.75,-102"/>
<text xml:space="preserve" text-anchor="start" x="364" y="-88.5" font-family="Helvetica,sans-Serif" font-size="10.00">LGE::AssetRegistry</text>
<text xml:space="preserve" text-anchor="middle" x="407.88" y="-76.5" font-family="Helvetica,sans-Serif" font-size="10.00">::GetAllAssets</text>
</a>
</g>
</g>
<!-- Node2&#45;&gt;Node3 -->
<g id="edge2_Node000002_Node000003" class="edge">
<title>Node2&#45;&gt;Node3</title>
<g id="a_edge2_Node000002_Node000003"><a xlink:title=" ">
<path fill="none" stroke="#63b8ff" d="M296.39,-86C312.09,-86 328.66,-86 344.06,-86"/>
<polygon fill="#63b8ff" stroke="#63b8ff" points="344.06,-89.5 354.06,-86 344.06,-82.5 344.06,-89.5"/>
</a>
</g>
</g>
<!-- Node5 -->
<g id="Node000005" class="node">
<title>Node5</title>
<g id="a_Node000005"><a xlink:href="classLGE_1_1SearchQuery.html#a8a2cf5c9494b59e14b3956728ed4caa7" target="_top" xlink:title=" ">
<polygon fill="white" stroke="#666666" points="475.5,-39 340.25,-39 340.25,-7 475.5,-7 475.5,-39"/>
<text xml:space="preserve" text-anchor="start" x="348.25" y="-25.5" font-family="Helvetica,sans-Serif" font-size="10.00">LGE::SearchQuery::Search</text>
<text xml:space="preserve" text-anchor="middle" x="407.88" y="-13.5" font-family="Helvetica,sans-Serif" font-size="10.00">Query</text>
</a>
</g>
</g>
<!-- Node4&#45;&gt;Node5 -->
<g id="edge4_Node000004_Node000005" class="edge">
<title>Node4&#45;&gt;Node5</title>
<g id="a_edge4_Node000004_Node000005"><a xlink:title=" ">
<path fill="none" stroke="#63b8ff" d="M302.36,-37.51C310.99,-36.31 319.81,-35.08 328.48,-33.88"/>
<polygon fill="#63b8ff" stroke="#63b8ff" points="328.84,-37.36 338.27,-32.52 327.88,-30.43 328.84,-37.36"/>
</a>
</g>
</g>
<!-- Node6&#45;&gt;Node5 -->
<g id="edge6_Node000006_Node000005" class="edge">
<title>Node6&#45;&gt;Node5</title>
<g id="a_edge6_Node000006_Node000005"><a xlink:title=" ">
<path fill="none" stroke="#63b8ff" d="M288.99,-14.49C301.86,-15.42 315.57,-16.41 328.92,-17.37"/>
<polygon fill="#63b8ff" stroke="#63b8ff" points="328.29,-20.84 338.51,-18.07 328.79,-13.86 328.29,-20.84"/>
</a>
</g>
</g>
</g>
</svg>
