<?xml version="1.0" encoding="UTF-8" standalone="no"?>
<!DOCTYPE svg PUBLIC "-//W3C//DTD SVG 1.1//EN"
 "http://www.w3.org/Graphics/SVG/1.1/DTD/svg11.dtd">
<!-- Generated by graphviz version 14.0.2 (20251019.1705)
 -->
<!-- Title: LGE::LxPath::GetStem Pages: 1 -->
<svg width="574pt" height="28pt"
 viewBox="0.00 0.00 574.00 28.00" xmlns="http://www.w3.org/2000/svg" xmlns:xlink="http://www.w3.org/1999/xlink">
<g id="graph0" class="graph" transform="scale(1 1) rotate(0) translate(4 24)">
<title>LGE::LxPath::GetStem</title>
<!-- Node1 -->
<g id="Node000001" class="node">
<title>Node1</title>
<g id="a_Node000001"><a xlink:title=" ">
<polygon fill="#999999" stroke="#666666" points="117.25,-20 0,-20 0,0 117.25,0 117.25,-20"/>
<text xml:space="preserve" text-anchor="middle" x="58.62" y="-6.5" font-family="Helvetica,sans-Serif" font-size="10.00">LGE::LxPath::GetStem</text>
</a>
</g>
</g>
<!-- Node2 -->
<g id="Node000002" class="node">
<title>Node2</title>
<g id="a_Node000002"><a xlink:href="namespaceLGE_1_1LxPath.html#a282200340a7ec214f14f5d64e9e41396" target="_top" xlink:title=" ">
<polygon fill="white" stroke="#666666" points="287,-20 153.25,-20 153.25,0 287,0 287,-20"/>
<text xml:space="preserve" text-anchor="middle" x="220.12" y="-6.5" font-family="Helvetica,sans-Serif" font-size="10.00">LGE::LxPath::GetFilename</text>
</a>
</g>
</g>
<!-- Node1&#45;&gt;Node2 -->
<g id="edge1_Node000001_Node000002" class="edge">
<title>Node1&#45;&gt;Node2</title>
<g id="a_edge1_Node000001_Node000002"><a xlink:title=" ">
<path fill="none" stroke="#63b8ff" d="M117.66,-10C125.41,-10 133.45,-10 141.47,-10"/>
<polygon fill="#63b8ff" stroke="#63b8ff" points="141.24,-13.5 151.24,-10 141.24,-6.5 141.24,-13.5"/>
</a>
</g>
</g>
<!-- Node3 -->
<g id="Node000003" class="node">
<title>Node3</title>
<g id="a_Node000003"><a xlink:href="namespaceLGE_1_1LxPath.html#a314a60ce690c90f4ee0b4e64c0199408" target="_top" xlink:title=" ">
<polygon fill="white" stroke="#666666" points="445.5,-20 323,-20 323,0 445.5,0 445.5,-20"/>
<text xml:space="preserve" text-anchor="middle" x="384.25" y="-6.5" font-family="Helvetica,sans-Serif" font-size="10.00">LGE::LxPath::Normalize</text>
</a>
</g>
</g>
<!-- Node2&#45;&gt;Node3 -->
<g id="edge2_Node000002_Node000003" class="edge">
<title>Node2&#45;&gt;Node3</title>
<g id="a_edge2_Node000002_Node000003"><a xlink:title=" ">
<path fill="none" stroke="#63b8ff" d="M287.07,-10C295.05,-10 303.24,-10 311.3,-10"/>
<polygon fill="#63b8ff" stroke="#63b8ff" points="311.08,-13.5 321.08,-10 311.08,-6.5 311.08,-13.5"/>
</a>
</g>
</g>
<!-- Node4 -->
<g id="Node000004" class="node">
<title>Node4</title>
<g id="a_Node000004"><a xlink:href="classLGE_1_1Log.html#a53f3f4b8797ffd18145739c9e66d690a" target="_top" xlink:title=" ">
<polygon fill="white" stroke="#666666" points="565.75,-20 481.5,-20 481.5,0 565.75,0 565.75,-20"/>
<text xml:space="preserve" text-anchor="middle" x="523.62" y="-6.5" font-family="Helvetica,sans-Serif" font-size="10.00">LGE::Log::Error</text>
</a>
</g>
</g>
<!-- Node3&#45;&gt;Node4 -->
<g id="edge3_Node000003_Node000004" class="edge">
<title>Node3&#45;&gt;Node4</title>
<g id="a_edge3_Node000003_Node000004"><a xlink:title=" ">
<path fill="none" stroke="#63b8ff" d="M445.9,-10C453.92,-10 462.09,-10 469.95,-10"/>
<polygon fill="#63b8ff" stroke="#63b8ff" points="469.7,-13.5 479.7,-10 469.7,-6.5 469.7,-13.5"/>
</a>
</g>
</g>
</g>
</svg>
