<?xml version="1.0" encoding="UTF-8" standalone="no"?>
<!DOCTYPE svg PUBLIC "-//W3C//DTD SVG 1.1//EN"
 "http://www.w3.org/Graphics/SVG/1.1/DTD/svg11.dtd">
<!-- Generated by graphviz version 14.0.2 (20251019.1705)
 -->
<!-- Title: LGE::Dependencies::Initialize Pages: 1 -->
<svg width="1032pt" height="254pt"
 viewBox="0.00 0.00 1032.00 254.00" xmlns="http://www.w3.org/2000/svg" xmlns:xlink="http://www.w3.org/1999/xlink">
<g id="graph0" class="graph" transform="scale(1 1) rotate(0) translate(4 250)">
<title>LGE::Dependencies::Initialize</title>
<!-- Node1 -->
<g id="Node000001" class="node">
<title>Node1</title>
<g id="a_Node000001"><a xlink:title=" ">
<polygon fill="#999999" stroke="#666666" points="109.75,-230 0,-230 0,-198 109.75,-198 109.75,-230"/>
<text xml:space="preserve" text-anchor="start" x="8" y="-216.5" font-family="Helvetica,sans-Serif" font-size="10.00">LGE::Dependencies::</text>
<text xml:space="preserve" text-anchor="middle" x="54.88" y="-204.5" font-family="Helvetica,sans-Serif" font-size="10.00">Initialize</text>
</a>
</g>
</g>
<!-- Node2 -->
<g id="Node000002" class="node">
<title>Node2</title>
<g id="a_Node000002"><a xlink:href="classLGE_1_1Log.html#ab0265ee050b8873a2fd31fbdb696ced0" target="_top" xlink:title=" ">
<polygon fill="white" stroke="#666666" points="396.75,-246 317,-246 317,-226 396.75,-226 396.75,-246"/>
<text xml:space="preserve" text-anchor="middle" x="356.88" y="-232.5" font-family="Helvetica,sans-Serif" font-size="10.00">LGE::Log::Info</text>
</a>
</g>
</g>
<!-- Node1&#45;&gt;Node2 -->
<g id="edge1_Node000001_Node000002" class="edge">
<title>Node1&#45;&gt;Node2</title>
<g id="a_edge1_Node000001_Node000002"><a xlink:title=" ">
<path fill="none" stroke="#63b8ff" d="M110.2,-217.98C165.73,-222.06 251.29,-228.33 305.38,-232.3"/>
<polygon fill="#63b8ff" stroke="#63b8ff" points="305.02,-235.78 315.25,-233.02 305.53,-228.8 305.02,-235.78"/>
</a>
</g>
</g>
<!-- Node3 -->
<g id="Node000003" class="node">
<title>Node3</title>
<g id="a_Node000003"><a xlink:href="namespaceLGE_1_1Dependencies.html#abb2932854a8edbd61c21b2b3c846396f" target="_top" xlink:title=" ">
<polygon fill="white" stroke="#666666" points="255.5,-208 145.75,-208 145.75,-176 255.5,-176 255.5,-208"/>
<text xml:space="preserve" text-anchor="start" x="153.75" y="-194.5" font-family="Helvetica,sans-Serif" font-size="10.00">LGE::Dependencies::</text>
<text xml:space="preserve" text-anchor="middle" x="200.62" y="-182.5" font-family="Helvetica,sans-Serif" font-size="10.00">RebuildGraph</text>
</a>
</g>
</g>
<!-- Node1&#45;&gt;Node3 -->
<g id="edge2_Node000001_Node000003" class="edge">
<title>Node1&#45;&gt;Node3</title>
<g id="a_edge2_Node000001_Node000003"><a xlink:title=" ">
<path fill="none" stroke="#63b8ff" d="M110.22,-205.68C118.11,-204.48 126.3,-203.22 134.38,-201.99"/>
<polygon fill="#63b8ff" stroke="#63b8ff" points="134.83,-205.46 144.18,-200.49 133.77,-198.54 134.83,-205.46"/>
</a>
</g>
</g>
<!-- Node3&#45;&gt;Node2 -->
<g id="edge5_Node000003_Node000002" class="edge">
<title>Node3&#45;&gt;Node2</title>
<g id="a_edge5_Node000003_Node000002"><a xlink:title=" ">
<path fill="none" stroke="#63b8ff" d="M255.57,-207.39C272.82,-212.31 291.77,-217.71 308.51,-222.49"/>
<polygon fill="#63b8ff" stroke="#63b8ff" points="307.12,-225.73 317.7,-225.11 309.04,-219 307.12,-225.73"/>
</a>
</g>
</g>
<!-- Node4 -->
<g id="Node000004" class="node">
<title>Node4</title>
<g id="a_Node000004"><a xlink:href="namespaceLGE_1_1Dependencies.html#a5cf2c869b83ca6a67386d4e44f83512c" target="_top" xlink:title=" ">
<polygon fill="white" stroke="#666666" points="422.25,-208 291.5,-208 291.5,-176 422.25,-176 422.25,-208"/>
<text xml:space="preserve" text-anchor="start" x="299.5" y="-194.5" font-family="Helvetica,sans-Serif" font-size="10.00">LGE::Dependencies::</text>
<text xml:space="preserve" text-anchor="middle" x="356.88" y="-182.5" font-family="Helvetica,sans-Serif" font-size="10.00">FindCircularDependencies</text>
</a>
</g>
</g>
<!-- Node3&#45;&gt;Node4 -->
<g id="edge3_Node000003_Node000004" class="edge">
<title>Node3&#45;&gt;Node4</title>
<g id="a_edge3_Node000003_Node000004"><a xlink:title=" ">
<path fill="none" stroke="#63b8ff" d="M255.57,-192C263.37,-192 271.51,-192 279.64,-192"/>
<polygon fill="#63b8ff" stroke="#63b8ff" points="279.57,-195.5 289.57,-192 279.57,-188.5 279.57,-195.5"/>
</a>
</g>
</g>
<!-- Node5 -->
<g id="Node000005" class="node">
<title>Node5</title>
<g id="a_Node000005"><a xlink:href="namespaceLGE_1_1AssetRegistry.html#ac9aa62a1e0c929e88bec00618b489988" target="_top" xlink:title=" ">
<polygon fill="white" stroke="#666666" points="408.75,-158 305,-158 305,-126 408.75,-126 408.75,-158"/>
<text xml:space="preserve" text-anchor="start" x="313" y="-144.5" font-family="Helvetica,sans-Serif" font-size="10.00">LGE::AssetRegistry</text>
<text xml:space="preserve" text-anchor="middle" x="356.88" y="-132.5" font-family="Helvetica,sans-Serif" font-size="10.00">::GetAllAssets</text>
</a>
</g>
</g>
<!-- Node3&#45;&gt;Node5 -->
<g id="edge4_Node000003_Node000005" class="edge">
<title>Node3&#45;&gt;Node5</title>
<g id="a_edge4_Node000003_Node000005"><a xlink:title=" ">
<path fill="none" stroke="#63b8ff" d="M252.13,-175.63C265.65,-171.25 280.4,-166.46 294.43,-161.92"/>
<polygon fill="#63b8ff" stroke="#63b8ff" points="295.12,-165.37 303.55,-158.96 292.96,-158.72 295.12,-165.37"/>
</a>
</g>
</g>
<!-- Node6 -->
<g id="Node000006" class="node">
<title>Node6</title>
<g id="a_Node000006"><a xlink:href="namespaceLGE_1_1Dependencies.html#ab8088cfc8ddddf32d237f13042e6310d" target="_top" xlink:title=" ">
<polygon fill="white" stroke="#666666" points="411.75,-108 302,-108 302,-76 411.75,-76 411.75,-108"/>
<text xml:space="preserve" text-anchor="start" x="310" y="-94.5" font-family="Helvetica,sans-Serif" font-size="10.00">LGE::Dependencies::</text>
<text xml:space="preserve" text-anchor="middle" x="356.88" y="-82.5" font-family="Helvetica,sans-Serif" font-size="10.00">ValidateReference</text>
</a>
</g>
</g>
<!-- Node3&#45;&gt;Node6 -->
<g id="edge6_Node000003_Node000006" class="edge">
<title>Node3&#45;&gt;Node6</title>
<g id="a_edge6_Node000003_Node000006"><a xlink:title=" ">
<path fill="none" stroke="#63b8ff" d="M217.93,-175.55C235.04,-159 263.32,-133.62 291.5,-117 293.64,-115.74 295.85,-114.52 298.12,-113.34"/>
<polygon fill="#63b8ff" stroke="#63b8ff" points="299.43,-116.59 306.91,-109.1 296.39,-110.29 299.43,-116.59"/>
</a>
</g>
</g>
<!-- Node7 -->
<g id="Node000007" class="node">
<title>Node7</title>
<g id="a_Node000007"><a xlink:href="namespaceLGE_1_1AssetRegistry.html#a9e672f9e3c8c62076b9156d1695e48b8" target="_top" xlink:title=" ">
<polygon fill="white" stroke="#666666" points="742.25,-149 638.5,-149 638.5,-117 742.25,-117 742.25,-149"/>
<text xml:space="preserve" text-anchor="start" x="646.5" y="-135.5" font-family="Helvetica,sans-Serif" font-size="10.00">LGE::AssetRegistry</text>
<text xml:space="preserve" text-anchor="middle" x="690.38" y="-123.5" font-family="Helvetica,sans-Serif" font-size="10.00">::FindByGUID</text>
</a>
</g>
</g>
<!-- Node6&#45;&gt;Node7 -->
<g id="edge7_Node000006_Node000007" class="edge">
<title>Node6&#45;&gt;Node7</title>
<g id="a_edge7_Node000006_Node000007"><a xlink:title=" ">
<path fill="none" stroke="#63b8ff" d="M412.22,-107.38C427.04,-111.06 443.17,-114.62 458.25,-117 514.84,-125.94 580,-129.88 626.68,-131.62"/>
<polygon fill="#63b8ff" stroke="#63b8ff" points="626.51,-135.12 636.62,-131.97 626.75,-128.12 626.51,-135.12"/>
</a>
</g>
</g>
<!-- Node8 -->
<g id="Node000008" class="node">
<title>Node8</title>
<g id="a_Node000008"><a xlink:href="namespaceLGE_1_1AssetRegistry.html#ac315fdb87be485fe8103d455b7e8a464" target="_top" xlink:title=" ">
<polygon fill="white" stroke="#666666" points="580.75,-108 477,-108 477,-76 580.75,-76 580.75,-108"/>
<text xml:space="preserve" text-anchor="start" x="485" y="-94.5" font-family="Helvetica,sans-Serif" font-size="10.00">LGE::AssetRegistry</text>
<text xml:space="preserve" text-anchor="middle" x="528.88" y="-82.5" font-family="Helvetica,sans-Serif" font-size="10.00">::FindByPath</text>
</a>
</g>
</g>
<!-- Node6&#45;&gt;Node8 -->
<g id="edge8_Node000006_Node000008" class="edge">
<title>Node6&#45;&gt;Node8</title>
<g id="a_edge8_Node000006_Node000008"><a xlink:title=" ">
<path fill="none" stroke="#63b8ff" d="M412.13,-92C429.11,-92 447.98,-92 465.47,-92"/>
<polygon fill="#63b8ff" stroke="#63b8ff" points="465.22,-95.5 475.22,-92 465.22,-88.5 465.22,-95.5"/>
</a>
</g>
</g>
<!-- Node9 -->
<g id="Node000009" class="node">
<title>Node9</title>
<g id="a_Node000009"><a xlink:href="namespaceLGE_1_1VFS.html#a9eb41e42c96a4f5358c79e30afb579cc" target="_top" xlink:title=" ">
<polygon fill="white" stroke="#666666" points="599.5,-58 458.25,-58 458.25,-38 599.5,-38 599.5,-58"/>
<text xml:space="preserve" text-anchor="middle" x="528.88" y="-44.5" font-family="Helvetica,sans-Serif" font-size="10.00">LGE::VFS::ResolveAbsolute</text>
</a>
</g>
</g>
<!-- Node6&#45;&gt;Node9 -->
<g id="edge10_Node000006_Node000009" class="edge">
<title>Node6&#45;&gt;Node9</title>
<g id="a_edge10_Node000006_Node000009"><a xlink:title=" ">
<path fill="none" stroke="#63b8ff" d="M412.13,-77.96C432.71,-72.63 456.07,-66.59 476.38,-61.33"/>
<polygon fill="#63b8ff" stroke="#63b8ff" points="477.05,-64.77 485.86,-58.88 475.3,-57.99 477.05,-64.77"/>
</a>
</g>
</g>
<!-- Node8&#45;&gt;Node7 -->
<g id="edge9_Node000008_Node000007" class="edge">
<title>Node8&#45;&gt;Node7</title>
<g id="a_edge9_Node000008_Node000007"><a xlink:title=" ">
<path fill="none" stroke="#63b8ff" d="M581.22,-105.2C595.88,-108.97 612,-113.11 627.23,-117.03"/>
<polygon fill="#63b8ff" stroke="#63b8ff" points="626.1,-120.35 636.66,-119.45 627.85,-113.57 626.1,-120.35"/>
</a>
</g>
</g>
<!-- Node10 -->
<g id="Node000010" class="node">
<title>Node10</title>
<g id="a_Node000010"><a xlink:href="namespaceLGE_1_1VFS.html#a0566c02123208c6b867418e914f9574b" target="_top" xlink:title=" ">
<polygon fill="white" stroke="#666666" points="745.25,-96 635.5,-96 635.5,-76 745.25,-76 745.25,-96"/>
<text xml:space="preserve" text-anchor="middle" x="690.38" y="-82.5" font-family="Helvetica,sans-Serif" font-size="10.00">LGE::VFS::GetMount</text>
</a>
</g>
</g>
<!-- Node9&#45;&gt;Node10 -->
<g id="edge11_Node000009_Node000010" class="edge">
<title>Node9&#45;&gt;Node10</title>
<g id="a_edge11_Node000009_Node000010"><a xlink:title=" ">
<path fill="none" stroke="#63b8ff" d="M573.88,-58.48C592.62,-62.95 614.68,-68.21 634.48,-72.92"/>
<polygon fill="#63b8ff" stroke="#63b8ff" points="633.5,-76.29 644.04,-75.2 635.12,-69.48 633.5,-76.29"/>
</a>
</g>
</g>
<!-- Node11 -->
<g id="Node000011" class="node">
<title>Node11</title>
<g id="a_Node000011"><a xlink:href="namespaceLGE_1_1LxPath.html#a94ec3bdfd6948ddc25cda5d18154d4cf" target="_top" xlink:title=" ">
<polygon fill="white" stroke="#666666" points="738.5,-58 642.25,-58 642.25,-38 738.5,-38 738.5,-58"/>
<text xml:space="preserve" text-anchor="middle" x="690.38" y="-44.5" font-family="Helvetica,sans-Serif" font-size="10.00">LGE::LxPath::Join</text>
</a>
</g>
</g>
<!-- Node9&#45;&gt;Node11 -->
<g id="edge12_Node000009_Node000011" class="edge">
<title>Node9&#45;&gt;Node11</title>
<g id="a_edge12_Node000009_Node000011"><a xlink:title=" ">
<path fill="none" stroke="#63b8ff" d="M599.83,-48C610.06,-48 620.51,-48 630.48,-48"/>
<polygon fill="#63b8ff" stroke="#63b8ff" points="630.43,-51.5 640.43,-48 630.43,-44.5 630.43,-51.5"/>
</a>
</g>
</g>
<!-- Node14 -->
<g id="Node000014" class="node">
<title>Node14</title>
<g id="a_Node000014"><a xlink:href="classLGE_1_1Log.html#aa6f98018af29c23dd7f574d3df5dda5e" target="_top" xlink:title=" ">
<polygon fill="white" stroke="#666666" points="733.25,-20 647.5,-20 647.5,0 733.25,0 733.25,-20"/>
<text xml:space="preserve" text-anchor="middle" x="690.38" y="-6.5" font-family="Helvetica,sans-Serif" font-size="10.00">LGE::Log::Warn</text>
</a>
</g>
</g>
<!-- Node9&#45;&gt;Node14 -->
<g id="edge15_Node000009_Node000014" class="edge">
<title>Node9&#45;&gt;Node14</title>
<g id="a_edge15_Node000009_Node000014"><a xlink:title=" ">
<path fill="none" stroke="#63b8ff" d="M573.88,-37.52C593.18,-32.92 615.99,-27.48 636.22,-22.66"/>
<polygon fill="#63b8ff" stroke="#63b8ff" points="636.77,-26.13 645.69,-20.41 635.15,-19.32 636.77,-26.13"/>
</a>
</g>
</g>
<!-- Node12 -->
<g id="Node000012" class="node">
<title>Node12</title>
<g id="a_Node000012"><a xlink:href="namespaceLGE_1_1LxPath.html#a314a60ce690c90f4ee0b4e64c0199408" target="_top" xlink:title=" ">
<polygon fill="white" stroke="#666666" points="903.75,-58 781.25,-58 781.25,-38 903.75,-38 903.75,-58"/>
<text xml:space="preserve" text-anchor="middle" x="842.5" y="-44.5" font-family="Helvetica,sans-Serif" font-size="10.00">LGE::LxPath::Normalize</text>
</a>
</g>
</g>
<!-- Node11&#45;&gt;Node12 -->
<g id="edge13_Node000011_Node000012" class="edge">
<title>Node11&#45;&gt;Node12</title>
<g id="a_edge13_Node000011_Node000012"><a xlink:title=" ">
<path fill="none" stroke="#63b8ff" d="M738.88,-48C748.65,-48 759.16,-48 769.58,-48"/>
<polygon fill="#63b8ff" stroke="#63b8ff" points="769.3,-51.5 779.3,-48 769.3,-44.5 769.3,-51.5"/>
</a>
</g>
</g>
<!-- Node13 -->
<g id="Node000013" class="node">
<title>Node13</title>
<g id="a_Node000013"><a xlink:href="classLGE_1_1Log.html#a53f3f4b8797ffd18145739c9e66d690a" target="_top" xlink:title=" ">
<polygon fill="white" stroke="#666666" points="1024,-58 939.75,-58 939.75,-38 1024,-38 1024,-58"/>
<text xml:space="preserve" text-anchor="middle" x="981.88" y="-44.5" font-family="Helvetica,sans-Serif" font-size="10.00">LGE::Log::Error</text>
</a>
</g>
</g>
<!-- Node12&#45;&gt;Node13 -->
<g id="edge14_Node000012_Node000013" class="edge">
<title>Node12&#45;&gt;Node13</title>
<g id="a_edge14_Node000012_Node000013"><a xlink:title=" ">
<path fill="none" stroke="#63b8ff" d="M904.15,-48C912.17,-48 920.34,-48 928.2,-48"/>
<polygon fill="#63b8ff" stroke="#63b8ff" points="927.95,-51.5 937.95,-48 927.95,-44.5 927.95,-51.5"/>
</a>
</g>
</g>
</g>
</svg>
