<?xml version="1.0" encoding="UTF-8" standalone="no"?>
<!DOCTYPE svg PUBLIC "-//W3C//DTD SVG 1.1//EN"
 "http://www.w3.org/Graphics/SVG/1.1/DTD/svg11.dtd">
<!-- Generated by graphviz version 14.0.2 (20251019.1705)
 -->
<!-- Title: LGE::LxPath::GetExtension Pages: 1 -->
<svg width="1033pt" height="583pt"
 viewBox="0.00 0.00 1033.00 583.00" xmlns="http://www.w3.org/2000/svg" xmlns:xlink="http://www.w3.org/1999/xlink">
<g id="graph0" class="graph" transform="scale(1 1) rotate(0) translate(4 579)">
<title>LGE::LxPath::GetExtension</title>
<!-- Node1 -->
<g id="Node000001" class="node">
<title>Node1</title>
<g id="a_Node000001"><a xlink:title=" ">
<polygon fill="#999999" stroke="#666666" points="1025.25,-237 887.75,-237 887.75,-217 1025.25,-217 1025.25,-237"/>
<text xml:space="preserve" text-anchor="middle" x="956.5" y="-223.5" font-family="Helvetica,sans-Serif" font-size="10.00">LGE::LxPath::GetExtension</text>
</a>
</g>
</g>
<!-- Node2 -->
<g id="Node000002" class="node">
<title>Node2</title>
<g id="a_Node000002"><a xlink:href="namespaceLGE_1_1ImportExport.html#a9f66230255c444c6b3c439ce3c1459f6" target="_top" xlink:title=" ">
<polygon fill="white" stroke="#666666" points="822.12,-441 718.38,-441 718.38,-409 822.12,-409 822.12,-441"/>
<text xml:space="preserve" text-anchor="start" x="726.38" y="-427.5" font-family="Helvetica,sans-Serif" font-size="10.00">LGE::ImportExport::</text>
<text xml:space="preserve" text-anchor="middle" x="770.25" y="-415.5" font-family="Helvetica,sans-Serif" font-size="10.00">ExportAssets</text>
</a>
</g>
</g>
<!-- Node1&#45;&gt;Node2 -->
<g id="edge1_Node000001_Node000002" class="edge">
<title>Node1&#45;&gt;Node2</title>
<g id="a_edge1_Node000001_Node000002"><a xlink:title=" ">
<path fill="none" stroke="#63b8ff" d="M948.53,-248.13C935.44,-284.56 903.71,-359.18 851.75,-400 843.23,-406.69 832.91,-411.6 822.55,-415.2"/>
<polygon fill="#63b8ff" stroke="#63b8ff" points="951.8,-249.37 951.76,-238.78 945.19,-247.09 951.8,-249.37"/>
</a>
</g>
</g>
<!-- Node3 -->
<g id="Node000003" class="node">
<title>Node3</title>
<g id="a_Node000003"><a xlink:href="namespaceLGE_1_1MetaDB.html#ac3c89a17fca31198d7c110a55749d8a8" target="_top" xlink:title=" ">
<polygon fill="white" stroke="#666666" points="843.12,-243 697.38,-243 697.38,-211 843.12,-211 843.12,-243"/>
<text xml:space="preserve" text-anchor="start" x="705.38" y="-229.5" font-family="Helvetica,sans-Serif" font-size="10.00">LGE::MetaDB::GetAssetType</text>
<text xml:space="preserve" text-anchor="middle" x="770.25" y="-217.5" font-family="Helvetica,sans-Serif" font-size="10.00">FromExtension</text>
</a>
</g>
</g>
<!-- Node1&#45;&gt;Node3 -->
<g id="edge2_Node000001_Node000003" class="edge">
<title>Node1&#45;&gt;Node3</title>
<g id="a_edge2_Node000001_Node000003"><a xlink:title=" ">
<path fill="none" stroke="#63b8ff" d="M876.17,-227C865.28,-227 854.14,-227 843.38,-227"/>
<polygon fill="#63b8ff" stroke="#63b8ff" points="875.9,-230.5 885.9,-227 875.9,-223.5 875.9,-230.5"/>
</a>
</g>
</g>
<!-- Node8 -->
<g id="Node000008" class="node">
<title>Node8</title>
<g id="a_Node000008"><a xlink:href="namespaceLGE_1_1Compression.html#a5cb00aa30da7aad66c9fcf19d8ba51e5" target="_top" xlink:title=" ">
<polygon fill="white" stroke="#666666" points="846.12,-391 694.38,-391 694.38,-359 846.12,-359 846.12,-391"/>
<text xml:space="preserve" text-anchor="start" x="702.38" y="-377.5" font-family="Helvetica,sans-Serif" font-size="10.00">LGE::Compression::GetFormat</text>
<text xml:space="preserve" text-anchor="middle" x="770.25" y="-365.5" font-family="Helvetica,sans-Serif" font-size="10.00">FromExtension</text>
</a>
</g>
</g>
<!-- Node1&#45;&gt;Node8 -->
<g id="edge7_Node000001_Node000008" class="edge">
<title>Node1&#45;&gt;Node8</title>
<g id="a_edge7_Node000001_Node000008"><a xlink:title=" ">
<path fill="none" stroke="#63b8ff" d="M933.81,-244.42C897.88,-273.29 826.5,-330.62 791.52,-358.72"/>
<polygon fill="#63b8ff" stroke="#63b8ff" points="935.76,-247.35 941.36,-238.35 931.38,-241.89 935.76,-247.35"/>
</a>
</g>
</g>
<!-- Node17 -->
<g id="Node000017" class="node">
<title>Node17</title>
<g id="a_Node000017"><a xlink:href="namespaceLGE_1_1Optimization.html#af2494f8684e1126f12c084d070ae77d7" target="_top" xlink:title=" ">
<polygon fill="white" stroke="#666666" points="821.38,-293 719.12,-293 719.12,-261 821.38,-261 821.38,-293"/>
<text xml:space="preserve" text-anchor="start" x="727.12" y="-279.5" font-family="Helvetica,sans-Serif" font-size="10.00">LGE::Optimization::</text>
<text xml:space="preserve" text-anchor="middle" x="770.25" y="-267.5" font-family="Helvetica,sans-Serif" font-size="10.00">OptimizeAsset</text>
</a>
</g>
</g>
<!-- Node1&#45;&gt;Node17 -->
<g id="edge17_Node000001_Node000017" class="edge">
<title>Node1&#45;&gt;Node17</title>
<g id="a_edge17_Node000001_Node000017"><a xlink:title=" ">
<path fill="none" stroke="#63b8ff" d="M906.08,-240.41C879.97,-247.5 847.99,-256.17 821.73,-263.3"/>
<polygon fill="#63b8ff" stroke="#63b8ff" points="906.68,-243.87 915.41,-237.88 904.85,-237.12 906.68,-243.87"/>
</a>
</g>
</g>
<!-- Node21 -->
<g id="Node000021" class="node">
<title>Node21</title>
<g id="a_Node000021"><a xlink:href="namespaceLGE_1_1FSOps.html#a73a5f7725534ee44eab8e17badf96f9f" target="_top" xlink:title=" ">
<polygon fill="white" stroke="#666666" points="827.75,-193 712.75,-193 712.75,-173 827.75,-173 827.75,-193"/>
<text xml:space="preserve" text-anchor="middle" x="770.25" y="-179.5" font-family="Helvetica,sans-Serif" font-size="10.00">LGE::FSOps::Rename</text>
</a>
</g>
</g>
<!-- Node1&#45;&gt;Node21 -->
<g id="edge21_Node000001_Node000021" class="edge">
<title>Node1&#45;&gt;Node21</title>
<g id="a_edge21_Node000001_Node000021"><a xlink:title=" ">
<path fill="none" stroke="#63b8ff" d="M901.55,-213.95C885.52,-210.09 867.93,-205.86 851.75,-202 840.02,-199.2 827.32,-196.19 815.55,-193.42"/>
<polygon fill="#63b8ff" stroke="#63b8ff" points="900.34,-217.26 910.88,-216.2 901.98,-210.45 900.34,-217.26"/>
</a>
</g>
</g>
<!-- Node22 -->
<g id="Node000022" class="node">
<title>Node22</title>
<g id="a_Node000022"><a xlink:href="namespaceLGE_1_1MetaDB.html#acf585df19a673c62d6b82587160ef8d6" target="_top" xlink:title=" ">
<polygon fill="white" stroke="#666666" points="851.75,-155 688.75,-155 688.75,-135 851.75,-135 851.75,-155"/>
<text xml:space="preserve" text-anchor="middle" x="770.25" y="-141.5" font-family="Helvetica,sans-Serif" font-size="10.00">LGE::MetaDB::RequiresMetadata</text>
</a>
</g>
</g>
<!-- Node1&#45;&gt;Node22 -->
<g id="edge22_Node000001_Node000022" class="edge">
<title>Node1&#45;&gt;Node22</title>
<g id="a_edge22_Node000001_Node000022"><a xlink:title=" ">
<path fill="none" stroke="#63b8ff" d="M932.14,-209.86C911.82,-195.7 881.11,-176.03 851.75,-164 843.64,-160.68 834.83,-157.86 826.11,-155.5"/>
<polygon fill="#63b8ff" stroke="#63b8ff" points="930.08,-212.69 940.26,-215.63 934.13,-206.98 930.08,-212.69"/>
</a>
</g>
</g>
<!-- Node32 -->
<g id="Node000032" class="node">
<title>Node32</title>
<g id="a_Node000032"><a xlink:href="TestPath_8cpp.html#a29a1bd17710ea24758be0eb83ef1b24e" target="_top" xlink:title=" ">
<polygon fill="white" stroke="#666666" points="791,-117 749.5,-117 749.5,-97 791,-97 791,-117"/>
<text xml:space="preserve" text-anchor="middle" x="770.25" y="-103.5" font-family="Helvetica,sans-Serif" font-size="10.00">TEST</text>
</a>
</g>
</g>
<!-- Node1&#45;&gt;Node32 -->
<g id="edge34_Node000001_Node000032" class="edge">
<title>Node1&#45;&gt;Node32</title>
<g id="a_edge34_Node000001_Node000032"><a xlink:title=" ">
<path fill="none" stroke="#63b8ff" d="M941.13,-207.68C922.92,-184.63 889.35,-146.63 851.75,-126 832.74,-115.57 808.15,-110.83 791.17,-108.7"/>
<polygon fill="#63b8ff" stroke="#63b8ff" points="938.16,-209.56 947.03,-215.35 943.7,-205.29 938.16,-209.56"/>
</a>
</g>
</g>
<!-- Node4 -->
<g id="Node000004" class="node">
<title>Node4</title>
<g id="a_Node000004"><a xlink:href="namespaceLGE_1_1FSOps.html#a7c3c8bb77f4634c4667e4896b11d66ad" target="_top" xlink:title=" ">
<polygon fill="white" stroke="#666666" points="625.38,-237 503.62,-237 503.62,-217 625.38,-217 625.38,-237"/>
<text xml:space="preserve" text-anchor="middle" x="564.5" y="-223.5" font-family="Helvetica,sans-Serif" font-size="10.00">LGE::FSOps::ImportFile</text>
</a>
</g>
</g>
<!-- Node3&#45;&gt;Node4 -->
<g id="edge3_Node000003_Node000004" class="edge">
<title>Node3&#45;&gt;Node4</title>
<g id="a_edge3_Node000003_Node000004"><a xlink:title=" ">
<path fill="none" stroke="#63b8ff" d="M685.75,-227C665.65,-227 644.55,-227 625.74,-227"/>
<polygon fill="#63b8ff" stroke="#63b8ff" points="685.62,-230.5 695.62,-227 685.62,-223.5 685.62,-230.5"/>
</a>
</g>
</g>
<!-- Node5 -->
<g id="Node000005" class="node">
<title>Node5</title>
<g id="a_Node000005"><a xlink:href="namespaceLGE_1_1ImportExport.html#af78ec4a5e430226c5054a220cedc76b1" target="_top" xlink:title=" ">
<polygon fill="white" stroke="#666666" points="411.75,-240 308,-240 308,-208 411.75,-208 411.75,-240"/>
<text xml:space="preserve" text-anchor="start" x="316" y="-226.5" font-family="Helvetica,sans-Serif" font-size="10.00">LGE::ImportExport::</text>
<text xml:space="preserve" text-anchor="middle" x="359.88" y="-214.5" font-family="Helvetica,sans-Serif" font-size="10.00">ImportFile</text>
</a>
</g>
</g>
<!-- Node4&#45;&gt;Node5 -->
<g id="edge4_Node000004_Node000005" class="edge">
<title>Node4&#45;&gt;Node5</title>
<g id="a_edge4_Node000004_Node000005"><a xlink:title=" ">
<path fill="none" stroke="#63b8ff" d="M491.78,-225.94C465.43,-225.55 436.16,-225.11 411.99,-224.76"/>
<polygon fill="#63b8ff" stroke="#63b8ff" points="491.69,-229.44 501.74,-226.09 491.79,-222.44 491.69,-229.44"/>
</a>
</g>
</g>
<!-- Node6 -->
<g id="Node000006" class="node">
<title>Node6</title>
<g id="a_Node000006"><a xlink:href="namespaceLGE_1_1ImportExport.html#ae8496d7d19ac15289295442d11349580" target="_top" xlink:title=" ">
<polygon fill="white" stroke="#666666" points="243.5,-240 139.75,-240 139.75,-208 243.5,-208 243.5,-240"/>
<text xml:space="preserve" text-anchor="start" x="147.75" y="-226.5" font-family="Helvetica,sans-Serif" font-size="10.00">LGE::ImportExport::</text>
<text xml:space="preserve" text-anchor="middle" x="191.62" y="-214.5" font-family="Helvetica,sans-Serif" font-size="10.00">ImportFiles</text>
</a>
</g>
</g>
<!-- Node5&#45;&gt;Node6 -->
<g id="edge5_Node000005_Node000006" class="edge">
<title>Node5&#45;&gt;Node6</title>
<g id="a_edge5_Node000005_Node000006"><a xlink:title=" ">
<path fill="none" stroke="#63b8ff" d="M296.48,-224C279.17,-224 260.58,-224 243.98,-224"/>
<polygon fill="#63b8ff" stroke="#63b8ff" points="296.12,-227.5 306.12,-224 296.12,-220.5 296.12,-227.5"/>
</a>
</g>
</g>
<!-- Node7 -->
<g id="Node000007" class="node">
<title>Node7</title>
<g id="a_Node000007"><a xlink:href="namespaceLGE_1_1ImportExport.html#a8220fcef46f5c3ab8c10c64fd5860668" target="_top" xlink:title=" ">
<polygon fill="white" stroke="#666666" points="103.75,-240 0,-240 0,-208 103.75,-208 103.75,-240"/>
<text xml:space="preserve" text-anchor="start" x="8" y="-226.5" font-family="Helvetica,sans-Serif" font-size="10.00">LGE::ImportExport::</text>
<text xml:space="preserve" text-anchor="middle" x="51.88" y="-214.5" font-family="Helvetica,sans-Serif" font-size="10.00">ImportDirectory</text>
</a>
</g>
</g>
<!-- Node6&#45;&gt;Node7 -->
<g id="edge6_Node000006_Node000007" class="edge">
<title>Node6&#45;&gt;Node7</title>
<g id="a_edge6_Node000006_Node000007"><a xlink:title=" ">
<path fill="none" stroke="#63b8ff" d="M127.86,-224C119.95,-224 111.92,-224 104.21,-224"/>
<polygon fill="#63b8ff" stroke="#63b8ff" points="127.82,-227.5 137.82,-224 127.82,-220.5 127.82,-227.5"/>
</a>
</g>
</g>
<!-- Node9 -->
<g id="Node000009" class="node">
<title>Node9</title>
<g id="a_Node000009"><a xlink:href="namespaceLGE_1_1Backup.html#a8db5be221811de56211321d119281ce0" target="_top" xlink:title=" ">
<polygon fill="white" stroke="#666666" points="635.88,-530 493.12,-530 493.12,-510 635.88,-510 635.88,-530"/>
<text xml:space="preserve" text-anchor="middle" x="564.5" y="-516.5" font-family="Helvetica,sans-Serif" font-size="10.00">LGE::Backup::CreateBackup</text>
</a>
</g>
</g>
<!-- Node8&#45;&gt;Node9 -->
<g id="edge8_Node000008_Node000009" class="edge">
<title>Node8&#45;&gt;Node9</title>
<g id="a_edge8_Node000008_Node000009"><a xlink:title=" ">
<path fill="none" stroke="#63b8ff" d="M690.69,-398.22C690.03,-398.8 689.38,-399.39 688.75,-400 654.36,-432.99 688.53,-469.53 652.75,-501 647.86,-505.3 642.23,-508.7 636.23,-511.38"/>
<polygon fill="#63b8ff" stroke="#63b8ff" points="692.71,-401.08 698.75,-392.37 688.6,-395.42 692.71,-401.08"/>
</a>
</g>
</g>
<!-- Node12 -->
<g id="Node000012" class="node">
<title>Node12</title>
<g id="a_Node000012"><a xlink:href="namespaceLGE_1_1Compression.html#a2846e365c47a6e243106be9db7c25cd0" target="_top" xlink:title=" ">
<polygon fill="white" stroke="#666666" points="644.88,-492 484.12,-492 484.12,-460 644.88,-460 644.88,-492"/>
<text xml:space="preserve" text-anchor="start" x="492.12" y="-478.5" font-family="Helvetica,sans-Serif" font-size="10.00">LGE::Compression::Decompress</text>
<text xml:space="preserve" text-anchor="middle" x="564.5" y="-466.5" font-family="Helvetica,sans-Serif" font-size="10.00">Archive</text>
</a>
</g>
</g>
<!-- Node8&#45;&gt;Node12 -->
<g id="edge11_Node000008_Node000012" class="edge">
<title>Node8&#45;&gt;Node12</title>
<g id="a_edge11_Node000008_Node000012"><a xlink:title=" ">
<path fill="none" stroke="#63b8ff" d="M693.74,-396.8C692.03,-397.82 690.36,-398.89 688.75,-400 667.38,-414.74 673.89,-430.94 652.75,-446 645.18,-451.39 636.57,-455.88 627.76,-459.6"/>
<polygon fill="#63b8ff" stroke="#63b8ff" points="695.35,-399.91 702.57,-392.15 692.09,-393.71 695.35,-399.91"/>
</a>
</g>
</g>
<!-- Node13 -->
<g id="Node000013" class="node">
<title>Node13</title>
<g id="a_Node000013"><a xlink:href="namespaceLGE_1_1Backup.html#a2e9fa2883a6f23a0dbcb35478ae5dfcc" target="_top" xlink:title=" ">
<polygon fill="white" stroke="#666666" points="433.88,-464 285.88,-464 285.88,-444 433.88,-444 433.88,-464"/>
<text xml:space="preserve" text-anchor="middle" x="359.88" y="-450.5" font-family="Helvetica,sans-Serif" font-size="10.00">LGE::Backup::RestoreBackup</text>
</a>
</g>
</g>
<!-- Node8&#45;&gt;Node13 -->
<g id="edge16_Node000008_Node000013" class="edge">
<title>Node8&#45;&gt;Node13</title>
<g id="a_edge16_Node000008_Node000013"><a xlink:title=" ">
<path fill="none" stroke="#63b8ff" d="M704.24,-394.91C698.99,-396.6 693.77,-398.31 688.75,-400 672.62,-405.41 669.26,-408.91 652.75,-413 579.49,-431.16 493.76,-442.01 434.24,-447.94"/>
<polygon fill="#63b8ff" stroke="#63b8ff" points="705.11,-398.31 713.57,-391.93 702.98,-391.64 705.11,-398.31"/>
</a>
</g>
</g>
<!-- Node14 -->
<g id="Node000014" class="node">
<title>Node14</title>
<g id="a_Node000014"><a xlink:href="namespaceLGE_1_1Compression.html#ae182fd3025fdd53ab51abcd4bf351ad9" target="_top" xlink:title=" ">
<polygon fill="white" stroke="#666666" points="652.75,-404 476.25,-404 476.25,-384 652.75,-384 652.75,-404"/>
<text xml:space="preserve" text-anchor="middle" x="564.5" y="-390.5" font-family="Helvetica,sans-Serif" font-size="10.00">LGE::Compression::DecompressFile</text>
</a>
</g>
</g>
<!-- Node8&#45;&gt;Node14 -->
<g id="edge13_Node000008_Node000014" class="edge">
<title>Node8&#45;&gt;Node14</title>
<g id="a_edge13_Node000008_Node000014"><a xlink:title=" ">
<path fill="none" stroke="#63b8ff" d="M682.64,-383.08C672.9,-383.98 662.97,-384.91 653.22,-385.82"/>
<polygon fill="#63b8ff" stroke="#63b8ff" points="682.82,-386.57 692.45,-382.16 682.17,-379.61 682.82,-386.57"/>
</a>
</g>
</g>
<!-- Node15 -->
<g id="Node000015" class="node">
<title>Node15</title>
<g id="a_Node000015"><a xlink:href="namespaceLGE_1_1Compression.html#a0eef9f36d7ea805268fd03a4fe5f9202" target="_top" xlink:title=" ">
<polygon fill="white" stroke="#666666" points="651.25,-366 477.75,-366 477.75,-346 651.25,-346 651.25,-366"/>
<text xml:space="preserve" text-anchor="middle" x="564.5" y="-352.5" font-family="Helvetica,sans-Serif" font-size="10.00">LGE::Compression::GetOriginalSize</text>
</a>
</g>
</g>
<!-- Node8&#45;&gt;Node15 -->
<g id="edge14_Node000008_Node000015" class="edge">
<title>Node8&#45;&gt;Node15</title>
<g id="a_edge14_Node000008_Node000015"><a xlink:title=" ">
<path fill="none" stroke="#63b8ff" d="M682.81,-366.94C672.44,-365.97 661.85,-364.98 651.48,-364.02"/>
<polygon fill="#63b8ff" stroke="#63b8ff" points="682.17,-370.39 692.45,-367.84 682.82,-363.43 682.17,-370.39"/>
</a>
</g>
</g>
<!-- Node16 -->
<g id="Node000016" class="node">
<title>Node16</title>
<g id="a_Node000016"><a xlink:href="namespaceLGE_1_1Compression.html#a6657e322929a91e8d6c77bd50bc93dc5" target="_top" xlink:title=" ">
<polygon fill="white" stroke="#666666" points="649,-328 480,-328 480,-308 649,-308 649,-328"/>
<text xml:space="preserve" text-anchor="middle" x="564.5" y="-314.5" font-family="Helvetica,sans-Serif" font-size="10.00">LGE::Compression::IsCompressed</text>
</a>
</g>
</g>
<!-- Node8&#45;&gt;Node16 -->
<g id="edge15_Node000008_Node000016" class="edge">
<title>Node8&#45;&gt;Node16</title>
<g id="a_edge15_Node000008_Node000016"><a xlink:title=" ">
<path fill="none" stroke="#63b8ff" d="M711.8,-354.99C693.09,-348.81 672.15,-342.26 652.75,-337 641.53,-333.96 629.39,-331.07 617.84,-328.5"/>
<polygon fill="#63b8ff" stroke="#63b8ff" points="710.5,-358.24 721.09,-358.09 712.71,-351.6 710.5,-358.24"/>
</a>
</g>
</g>
<!-- Node10 -->
<g id="Node000010" class="node">
<title>Node10</title>
<g id="a_Node000010"><a xlink:href="namespaceLGE_1_1Backup.html#ad6294b6da335fe274372b3821fe490b4" target="_top" xlink:title=" ">
<polygon fill="white" stroke="#666666" points="440.25,-525 279.5,-525 279.5,-493 440.25,-493 440.25,-525"/>
<text xml:space="preserve" text-anchor="start" x="287.5" y="-511.5" font-family="Helvetica,sans-Serif" font-size="10.00">LGE::Backup::CreateIncremental</text>
<text xml:space="preserve" text-anchor="middle" x="359.88" y="-499.5" font-family="Helvetica,sans-Serif" font-size="10.00">Backup</text>
</a>
</g>
</g>
<!-- Node9&#45;&gt;Node10 -->
<g id="edge9_Node000009_Node000010" class="edge">
<title>Node9&#45;&gt;Node10</title>
<g id="a_edge9_Node000009_Node000010"><a xlink:title=" ">
<path fill="none" stroke="#63b8ff" d="M481.47,-515.55C468.02,-514.82 454.1,-514.06 440.71,-513.33"/>
<polygon fill="#63b8ff" stroke="#63b8ff" points="480.95,-519.02 491.12,-516.07 481.32,-512.03 480.95,-519.02"/>
</a>
</g>
</g>
<!-- Node11 -->
<g id="Node000011" class="node">
<title>Node11</title>
<g id="a_Node000011"><a xlink:href="namespaceLGE_1_1Backup.html#a7de11ff292510de53398d602090fa1fe" target="_top" xlink:title=" ">
<polygon fill="white" stroke="#666666" points="440.25,-575 279.5,-575 279.5,-543 440.25,-543 440.25,-575"/>
<text xml:space="preserve" text-anchor="start" x="287.5" y="-561.5" font-family="Helvetica,sans-Serif" font-size="10.00">LGE::Backup::PerformScheduled</text>
<text xml:space="preserve" text-anchor="middle" x="359.88" y="-549.5" font-family="Helvetica,sans-Serif" font-size="10.00">Backup</text>
</a>
</g>
</g>
<!-- Node9&#45;&gt;Node11 -->
<g id="edge10_Node000009_Node000011" class="edge">
<title>Node9&#45;&gt;Node11</title>
<g id="a_edge10_Node000009_Node000011"><a xlink:title=" ">
<path fill="none" stroke="#63b8ff" d="M498.04,-532.6C479.69,-536.13 459.55,-540.01 440.48,-543.68"/>
<polygon fill="#63b8ff" stroke="#63b8ff" points="498.56,-536.06 507.71,-530.74 497.23,-529.19 498.56,-536.06"/>
</a>
</g>
</g>
<!-- Node12&#45;&gt;Node13 -->
<g id="edge12_Node000012_Node000013" class="edge">
<title>Node12&#45;&gt;Node13</title>
<g id="a_edge12_Node000012_Node000013"><a xlink:title=" ">
<path fill="none" stroke="#63b8ff" d="M472.54,-466.12C459.75,-464.74 446.74,-463.32 434.33,-461.97"/>
<polygon fill="#63b8ff" stroke="#63b8ff" points="471.88,-469.57 482.2,-467.17 472.64,-462.61 471.88,-469.57"/>
</a>
</g>
</g>
<!-- Node18 -->
<g id="Node000018" class="node">
<title>Node18</title>
<g id="a_Node000018"><a xlink:href="namespaceLGE_1_1Optimization.html#a4c0768d9dc75e187bbd8af99c6ea56eb" target="_top" xlink:title=" ">
<polygon fill="white" stroke="#666666" points="615.62,-290 513.38,-290 513.38,-258 615.62,-258 615.62,-290"/>
<text xml:space="preserve" text-anchor="start" x="521.38" y="-276.5" font-family="Helvetica,sans-Serif" font-size="10.00">LGE::Optimization::</text>
<text xml:space="preserve" text-anchor="middle" x="564.5" y="-264.5" font-family="Helvetica,sans-Serif" font-size="10.00">OptimizeAssets</text>
</a>
</g>
</g>
<!-- Node17&#45;&gt;Node18 -->
<g id="edge18_Node000017_Node000018" class="edge">
<title>Node17&#45;&gt;Node18</title>
<g id="a_edge18_Node000017_Node000018"><a xlink:title=" ">
<path fill="none" stroke="#63b8ff" d="M707.53,-276.09C678.24,-275.66 643.69,-275.15 615.99,-274.74"/>
<polygon fill="#63b8ff" stroke="#63b8ff" points="707.32,-279.59 717.37,-276.24 707.42,-272.59 707.32,-279.59"/>
</a>
</g>
</g>
<!-- Node19 -->
<g id="Node000019" class="node">
<title>Node19</title>
<g id="a_Node000019"><a xlink:href="namespaceLGE_1_1Optimization.html#a96a2816b3db7b7ceb04dc110827b7c47" target="_top" xlink:title=" ">
<polygon fill="white" stroke="#666666" points="411,-290 308.75,-290 308.75,-258 411,-258 411,-290"/>
<text xml:space="preserve" text-anchor="start" x="316.75" y="-276.5" font-family="Helvetica,sans-Serif" font-size="10.00">LGE::Optimization::</text>
<text xml:space="preserve" text-anchor="middle" x="359.88" y="-264.5" font-family="Helvetica,sans-Serif" font-size="10.00">OptimizeByType</text>
</a>
</g>
</g>
<!-- Node18&#45;&gt;Node19 -->
<g id="edge19_Node000018_Node000019" class="edge">
<title>Node18&#45;&gt;Node19</title>
<g id="a_edge19_Node000018_Node000019"><a xlink:title=" ">
<path fill="none" stroke="#63b8ff" d="M501.65,-274C472.66,-274 438.56,-274 411.19,-274"/>
<polygon fill="#63b8ff" stroke="#63b8ff" points="501.38,-277.5 511.38,-274 501.38,-270.5 501.38,-277.5"/>
</a>
</g>
</g>
<!-- Node20 -->
<g id="Node000020" class="node">
<title>Node20</title>
<g id="a_Node000020"><a xlink:href="namespaceLGE_1_1Optimization.html#a87d1a414b80a1ae2aeb6f10efe6c4e34" target="_top" xlink:title=" ">
<polygon fill="white" stroke="#666666" points="411,-340 308.75,-340 308.75,-308 411,-308 411,-340"/>
<text xml:space="preserve" text-anchor="start" x="316.75" y="-326.5" font-family="Helvetica,sans-Serif" font-size="10.00">LGE::Optimization::</text>
<text xml:space="preserve" text-anchor="middle" x="359.88" y="-314.5" font-family="Helvetica,sans-Serif" font-size="10.00">OptimizeDirectory</text>
</a>
</g>
</g>
<!-- Node18&#45;&gt;Node20 -->
<g id="edge20_Node000018_Node000020" class="edge">
<title>Node18&#45;&gt;Node20</title>
<g id="a_edge20_Node000018_Node000020"><a xlink:title=" ">
<path fill="none" stroke="#63b8ff" d="M502.03,-289.17C472.96,-296.34 438.68,-304.8 411.19,-311.58"/>
<polygon fill="#63b8ff" stroke="#63b8ff" points="502.55,-292.64 511.42,-286.85 500.88,-285.85 502.55,-292.64"/>
</a>
</g>
</g>
<!-- Node22&#45;&gt;Node4 -->
<g id="edge26_Node000022_Node000004" class="edge">
<title>Node22&#45;&gt;Node4</title>
<g id="a_edge26_Node000022_Node000004"><a xlink:title=" ">
<path fill="none" stroke="#63b8ff" d="M695.96,-159.99C693.47,-161.22 691.06,-162.56 688.75,-164 667.32,-177.39 674.29,-194.8 652.75,-208 644.55,-213.02 635.21,-216.73 625.76,-219.46"/>
<polygon fill="#63b8ff" stroke="#63b8ff" points="697.3,-163.22 705.12,-156.06 694.55,-156.79 697.3,-163.22"/>
</a>
</g>
</g>
<!-- Node23 -->
<g id="Node000023" class="node">
<title>Node23</title>
<g id="a_Node000023"><a xlink:href="namespaceLGE_1_1Validation.html#afc0cd19e558fa12673f3bdb03934e3cc" target="_top" xlink:title=" ">
<polygon fill="white" stroke="#666666" points="641.12,-199 487.88,-199 487.88,-179 641.12,-179 641.12,-199"/>
<text xml:space="preserve" text-anchor="middle" x="564.5" y="-185.5" font-family="Helvetica,sans-Serif" font-size="10.00">LGE::Validation::CheckIntegrity</text>
</a>
</g>
</g>
<!-- Node22&#45;&gt;Node23 -->
<g id="edge23_Node000022_Node000023" class="edge">
<title>Node22&#45;&gt;Node23</title>
<g id="a_edge23_Node000022_Node000023"><a xlink:title=" ">
<path fill="none" stroke="#63b8ff" d="M709.79,-157.84C679.35,-164.41 642.75,-172.32 614.03,-178.52"/>
<polygon fill="#63b8ff" stroke="#63b8ff" points="710.19,-161.33 719.23,-155.8 708.71,-154.49 710.19,-161.33"/>
</a>
</g>
</g>
<!-- Node25 -->
<g id="Node000025" class="node">
<title>Node25</title>
<g id="a_Node000025"><a xlink:href="namespaceLGE_1_1Validation.html#a8a95594c50b28ddc8bbe656af6ff9385" target="_top" xlink:title=" ">
<polygon fill="white" stroke="#666666" points="643.75,-161 485.25,-161 485.25,-129 643.75,-129 643.75,-161"/>
<text xml:space="preserve" text-anchor="start" x="493.25" y="-147.5" font-family="Helvetica,sans-Serif" font-size="10.00">LGE::Validation::CheckMetadata</text>
<text xml:space="preserve" text-anchor="middle" x="564.5" y="-135.5" font-family="Helvetica,sans-Serif" font-size="10.00">Matches</text>
</a>
</g>
</g>
<!-- Node22&#45;&gt;Node25 -->
<g id="edge25_Node000022_Node000025" class="edge">
<title>Node22&#45;&gt;Node25</title>
<g id="a_edge25_Node000022_Node000025"><a xlink:title=" ">
<path fill="none" stroke="#63b8ff" d="M677.07,-145C666.11,-145 654.98,-145 644.23,-145"/>
<polygon fill="#63b8ff" stroke="#63b8ff" points="676.92,-148.5 686.92,-145 676.92,-141.5 676.92,-148.5"/>
</a>
</g>
</g>
<!-- Node26 -->
<g id="Node000026" class="node">
<title>Node26</title>
<g id="a_Node000026"><a xlink:href="namespaceLGE_1_1Validation.html#ae388b93a917b4462203ff6011eb925db" target="_top" xlink:title=" ">
<polygon fill="white" stroke="#666666" points="626.5,-111 502.5,-111 502.5,-79 626.5,-79 626.5,-111"/>
<text xml:space="preserve" text-anchor="start" x="510.5" y="-97.5" font-family="Helvetica,sans-Serif" font-size="10.00">LGE::Validation::Validate</text>
<text xml:space="preserve" text-anchor="middle" x="564.5" y="-85.5" font-family="Helvetica,sans-Serif" font-size="10.00">Asset</text>
</a>
</g>
</g>
<!-- Node22&#45;&gt;Node26 -->
<g id="edge27_Node000022_Node000026" class="edge">
<title>Node22&#45;&gt;Node26</title>
<g id="a_edge27_Node000022_Node000026"><a xlink:title=" ">
<path fill="none" stroke="#63b8ff" d="M713.39,-131.93C705.12,-129.96 696.71,-127.94 688.75,-126 668.6,-121.09 646.63,-115.6 626.89,-110.63"/>
<polygon fill="#63b8ff" stroke="#63b8ff" points="712.5,-135.31 723.04,-134.21 714.12,-128.5 712.5,-135.31"/>
</a>
</g>
</g>
<!-- Node31 -->
<g id="Node000031" class="node">
<title>Node31</title>
<g id="a_Node000031"><a xlink:href="namespaceLGE_1_1Validation.html#a3a3151866b20f58b56467e0f10604685" target="_top" xlink:title=" ">
<polygon fill="white" stroke="#666666" points="626.5,-61 502.5,-61 502.5,-29 626.5,-29 626.5,-61"/>
<text xml:space="preserve" text-anchor="start" x="510.5" y="-47.5" font-family="Helvetica,sans-Serif" font-size="10.00">LGE::Validation::Validate</text>
<text xml:space="preserve" text-anchor="middle" x="564.5" y="-35.5" font-family="Helvetica,sans-Serif" font-size="10.00">Metadata</text>
</a>
</g>
</g>
<!-- Node22&#45;&gt;Node31 -->
<g id="edge33_Node000022_Node000031" class="edge">
<title>Node22&#45;&gt;Node31</title>
<g id="a_edge33_Node000022_Node000031"><a xlink:title=" ">
<path fill="none" stroke="#63b8ff" d="M694.51,-129.66C692.52,-128.52 690.6,-127.31 688.75,-126 664.59,-108.91 676.5,-87.65 652.75,-70 645.04,-64.27 636.04,-59.84 626.82,-56.44"/>
<polygon fill="#63b8ff" stroke="#63b8ff" points="692.97,-132.8 703.5,-134.01 696.02,-126.5 692.97,-132.8"/>
</a>
</g>
</g>
<!-- Node24 -->
<g id="Node000024" class="node">
<title>Node24</title>
<g id="a_Node000024"><a xlink:href="namespaceLGE_1_1Validation.html#a5ed2957323e8381437806ac0d0fd02cf" target="_top" xlink:title=" ">
<polygon fill="white" stroke="#666666" points="433.12,-186 286.62,-186 286.62,-166 433.12,-166 433.12,-186"/>
<text xml:space="preserve" text-anchor="middle" x="359.88" y="-172.5" font-family="Helvetica,sans-Serif" font-size="10.00">LGE::Validation::CheckHealth</text>
</a>
</g>
</g>
<!-- Node23&#45;&gt;Node24 -->
<g id="edge24_Node000023_Node000024" class="edge">
<title>Node23&#45;&gt;Node24</title>
<g id="a_edge24_Node000023_Node000024"><a xlink:title=" ">
<path fill="none" stroke="#63b8ff" d="M476.12,-183.39C461.84,-182.48 447.17,-181.54 433.3,-180.65"/>
<polygon fill="#63b8ff" stroke="#63b8ff" points="475.76,-186.88 485.96,-184.03 476.21,-179.89 475.76,-186.88"/>
</a>
</g>
</g>
<!-- Node26&#45;&gt;Node24 -->
<g id="edge28_Node000026_Node000024" class="edge">
<title>Node26&#45;&gt;Node24</title>
<g id="a_edge28_Node000026_Node000024"><a xlink:title=" ">
<path fill="none" stroke="#63b8ff" d="M491.79,-112.36C486.4,-114.62 481.15,-117.16 476.25,-120 456.94,-131.19 459.67,-144.01 440.25,-155 432.56,-159.35 423.94,-162.83 415.29,-165.6"/>
<polygon fill="#63b8ff" stroke="#63b8ff" points="492.8,-115.73 500.89,-108.89 490.3,-109.19 492.8,-115.73"/>
</a>
</g>
</g>
<!-- Node27 -->
<g id="Node000027" class="node">
<title>Node27</title>
<g id="a_Node000027"><a xlink:href="namespaceLGE_1_1Bundles.html#aa9d4c4452f76b1187a963bea3168be71" target="_top" xlink:title=" ">
<polygon fill="white" stroke="#666666" points="430.88,-20 288.88,-20 288.88,0 430.88,0 430.88,-20"/>
<text xml:space="preserve" text-anchor="middle" x="359.88" y="-6.5" font-family="Helvetica,sans-Serif" font-size="10.00">LGE::Bundles::CreateBundle</text>
</a>
</g>
</g>
<!-- Node26&#45;&gt;Node27 -->
<g id="edge29_Node000026_Node000027" class="edge">
<title>Node26&#45;&gt;Node27</title>
<g id="a_edge29_Node000026_Node000027"><a xlink:title=" ">
<path fill="none" stroke="#63b8ff" d="M491.81,-78.18C486.37,-75.8 481.12,-73.08 476.25,-70 455.76,-57.02 461.02,-41.52 440.25,-29 434.55,-25.56 428.26,-22.74 421.8,-20.44"/>
<polygon fill="#63b8ff" stroke="#63b8ff" points="490.43,-81.4 501.02,-81.82 493,-74.89 490.43,-81.4"/>
</a>
</g>
</g>
<!-- Node28 -->
<g id="Node000028" class="node">
<title>Node28</title>
<g id="a_Node000028"><a xlink:href="namespaceLGE_1_1Validation.html#a467a0168bbefb71a643b4764f249c376" target="_top" xlink:title=" ">
<polygon fill="white" stroke="#666666" points="431.62,-146 288.12,-146 288.12,-126 431.62,-126 431.62,-146"/>
<text xml:space="preserve" text-anchor="middle" x="359.88" y="-132.5" font-family="Helvetica,sans-Serif" font-size="10.00">LGE::Validation::RepairAsset</text>
</a>
</g>
</g>
<!-- Node26&#45;&gt;Node28 -->
<g id="edge30_Node000026_Node000028" class="edge">
<title>Node26&#45;&gt;Node28</title>
<g id="a_edge30_Node000026_Node000028"><a xlink:title=" ">
<path fill="none" stroke="#63b8ff" d="M491.19,-109.63C465.17,-114.9 436.35,-120.73 412.45,-125.56"/>
<polygon fill="#63b8ff" stroke="#63b8ff" points="491.57,-113.13 500.67,-107.71 490.18,-106.27 491.57,-113.13"/>
</a>
</g>
</g>
<!-- Node29 -->
<g id="Node000029" class="node">
<title>Node29</title>
<g id="a_Node000029"><a xlink:href="namespaceLGE_1_1Validation.html#ab5e87b018ce35925ea7bc7cd1f6b6a87" target="_top" xlink:title=" ">
<polygon fill="white" stroke="#666666" points="427.5,-108 292.25,-108 292.25,-88 427.5,-88 427.5,-108"/>
<text xml:space="preserve" text-anchor="middle" x="359.88" y="-94.5" font-family="Helvetica,sans-Serif" font-size="10.00">LGE::Validation::ValidateAll</text>
</a>
</g>
</g>
<!-- Node26&#45;&gt;Node29 -->
<g id="edge31_Node000026_Node000029" class="edge">
<title>Node26&#45;&gt;Node29</title>
<g id="a_edge31_Node000026_Node000029"><a xlink:title=" ">
<path fill="none" stroke="#63b8ff" d="M490.9,-96.07C470.28,-96.38 447.92,-96.71 427.66,-97.01"/>
<polygon fill="#63b8ff" stroke="#63b8ff" points="490.7,-99.58 500.64,-95.93 490.59,-92.58 490.7,-99.58"/>
</a>
</g>
</g>
<!-- Node30 -->
<g id="Node000030" class="node">
<title>Node30</title>
<g id="a_Node000030"><a xlink:href="namespaceLGE_1_1Validation.html#a79589cf3c193492d81b8c87268350ce5" target="_top" xlink:title=" ">
<polygon fill="white" stroke="#666666" points="421.88,-70 297.88,-70 297.88,-38 421.88,-38 421.88,-70"/>
<text xml:space="preserve" text-anchor="start" x="305.88" y="-56.5" font-family="Helvetica,sans-Serif" font-size="10.00">LGE::Validation::Validate</text>
<text xml:space="preserve" text-anchor="middle" x="359.88" y="-44.5" font-family="Helvetica,sans-Serif" font-size="10.00">Assets</text>
</a>
</g>
</g>
<!-- Node26&#45;&gt;Node30 -->
<g id="edge32_Node000026_Node000030" class="edge">
<title>Node26&#45;&gt;Node30</title>
<g id="a_edge32_Node000026_Node000030"><a xlink:title=" ">
<path fill="none" stroke="#63b8ff" d="M490.97,-80.32C468.51,-75.78 444,-70.82 422.36,-66.44"/>
<polygon fill="#63b8ff" stroke="#63b8ff" points="490.18,-83.73 500.67,-82.29 491.57,-76.87 490.18,-83.73"/>
</a>
</g>
</g>
</g>
</svg>
