<?xml version="1.0" encoding="UTF-8" standalone="no"?>
<!DOCTYPE svg PUBLIC "-//W3C//DTD SVG 1.1//EN"
 "http://www.w3.org/Graphics/SVG/1.1/DTD/svg11.dtd">
<!-- Generated by graphviz version 14.0.2 (20251019.1705)
 -->
<!-- Title: LGE::Versioning::CreateVersion Pages: 1 -->
<svg width="938pt" height="324pt"
 viewBox="0.00 0.00 938.00 324.00" xmlns="http://www.w3.org/2000/svg" xmlns:xlink="http://www.w3.org/1999/xlink">
<g id="graph0" class="graph" transform="scale(1 1) rotate(0) translate(4 320.27)">
<title>LGE::Versioning::CreateVersion</title>
<!-- Node1 -->
<g id="Node000001" class="node">
<title>Node1</title>
<g id="a_Node000001"><a xlink:title=" ">
<polygon fill="#999999" stroke="#666666" points="154,-165 0,-165 0,-145 154,-145 154,-165"/>
<text xml:space="preserve" text-anchor="middle" x="77" y="-151.5" font-family="Helvetica,sans-Serif" font-size="10.00">LGE::Versioning::CreateVersion</text>
</a>
</g>
</g>
<!-- Node2 -->
<g id="Node000002" class="node">
<title>Node2</title>
<g id="a_Node000002"><a xlink:href="namespaceLGE_1_1LxFile.html#ab62abe452536badcfc9ab15647d6df2b" target="_top" xlink:title=" ">
<polygon fill="white" stroke="#666666" points="309.88,-260 212.88,-260 212.88,-240 309.88,-240 309.88,-260"/>
<text xml:space="preserve" text-anchor="middle" x="261.38" y="-246.5" font-family="Helvetica,sans-Serif" font-size="10.00">LGE::LxFile::Copy</text>
</a>
</g>
</g>
<!-- Node1&#45;&gt;Node2 -->
<g id="edge1_Node000001_Node000002" class="edge">
<title>Node1&#45;&gt;Node2</title>
<g id="a_edge1_Node000001_Node000002"><a xlink:title=" ">
<path fill="none" stroke="#63b8ff" d="M91.87,-165.32C112.44,-180.27 152.63,-208.09 190,-226 197.44,-229.57 205.56,-232.85 213.55,-235.77"/>
<polygon fill="#63b8ff" stroke="#63b8ff" points="212.26,-239.02 222.85,-239.01 214.56,-232.41 212.26,-239.02"/>
</a>
</g>
</g>
<!-- Node3 -->
<g id="Node000003" class="node">
<title>Node3</title>
<g id="a_Node000003"><a xlink:href="classLGE_1_1Log.html#a53f3f4b8797ffd18145739c9e66d690a" target="_top" xlink:title=" ">
<polygon fill="white" stroke="#666666" points="930,-269 845.75,-269 845.75,-249 930,-249 930,-269"/>
<text xml:space="preserve" text-anchor="middle" x="887.88" y="-255.5" font-family="Helvetica,sans-Serif" font-size="10.00">LGE::Log::Error</text>
</a>
</g>
</g>
<!-- Node1&#45;&gt;Node3 -->
<g id="edge11_Node000001_Node000003" class="edge">
<title>Node1&#45;&gt;Node3</title>
<g id="a_edge11_Node000001_Node000003"><a xlink:title=" ">
<path fill="none" stroke="#63b8ff" d="M84.72,-165.2C100.27,-187.9 141.15,-242.68 190,-269 285.3,-320.35 320.74,-316 429,-316 429,-316 429,-316 590.25,-316 681.69,-316 786.19,-289.55 843.53,-272.69"/>
<polygon fill="#63b8ff" stroke="#63b8ff" points="844.32,-276.11 852.9,-269.89 842.31,-269.4 844.32,-276.11"/>
</a>
</g>
</g>
<!-- Node7 -->
<g id="Node000007" class="node">
<title>Node7</title>
<g id="a_Node000007"><a xlink:href="namespaceLGE_1_1LxFile.html#a7a3f0b3462a34877039001eb0aaac788" target="_top" xlink:title=" ">
<polygon fill="white" stroke="#666666" points="332.75,-184 190,-184 190,-164 332.75,-164 332.75,-184"/>
<text xml:space="preserve" text-anchor="middle" x="261.38" y="-170.5" font-family="Helvetica,sans-Serif" font-size="10.00">LGE::LxFile::CreateDirectory</text>
</a>
</g>
</g>
<!-- Node1&#45;&gt;Node7 -->
<g id="edge8_Node000001_Node000007" class="edge">
<title>Node1&#45;&gt;Node7</title>
<g id="a_edge8_Node000001_Node000007"><a xlink:title=" ">
<path fill="none" stroke="#63b8ff" d="M154.29,-162.95C162.25,-163.78 170.36,-164.62 178.39,-165.46"/>
<polygon fill="#63b8ff" stroke="#63b8ff" points="177.82,-168.92 188.13,-166.47 178.55,-161.96 177.82,-168.92"/>
</a>
</g>
</g>
<!-- Node8 -->
<g id="Node000008" class="node">
<title>Node8</title>
<g id="a_Node000008"><a xlink:href="namespaceLGE_1_1LxFile.html#a11e62876b312a11b881b484bb3a5ee71" target="_top" xlink:title=" ">
<polygon fill="white" stroke="#666666" points="312.12,-146 210.62,-146 210.62,-126 312.12,-126 312.12,-146"/>
<text xml:space="preserve" text-anchor="middle" x="261.38" y="-132.5" font-family="Helvetica,sans-Serif" font-size="10.00">LGE::LxFile::Exists</text>
</a>
</g>
</g>
<!-- Node1&#45;&gt;Node8 -->
<g id="edge12_Node000001_Node000008" class="edge">
<title>Node1&#45;&gt;Node8</title>
<g id="a_edge12_Node000001_Node000008"><a xlink:title=" ">
<path fill="none" stroke="#63b8ff" d="M154.29,-147.05C169.23,-145.5 184.72,-143.88 199.09,-142.38"/>
<polygon fill="#63b8ff" stroke="#63b8ff" points="199.26,-145.89 208.85,-141.37 198.54,-138.92 199.26,-145.89"/>
</a>
</g>
</g>
<!-- Node9 -->
<g id="Node000009" class="node">
<title>Node9</title>
<g id="a_Node000009"><a xlink:href="namespaceLGE_1_1AssetRegistry.html#a9e672f9e3c8c62076b9156d1695e48b8" target="_top" xlink:title=" ">
<polygon fill="white" stroke="#666666" points="313.25,-108 209.5,-108 209.5,-76 313.25,-76 313.25,-108"/>
<text xml:space="preserve" text-anchor="start" x="217.5" y="-94.5" font-family="Helvetica,sans-Serif" font-size="10.00">LGE::AssetRegistry</text>
<text xml:space="preserve" text-anchor="middle" x="261.38" y="-82.5" font-family="Helvetica,sans-Serif" font-size="10.00">::FindByGUID</text>
</a>
</g>
</g>
<!-- Node1&#45;&gt;Node9 -->
<g id="edge13_Node000001_Node000009" class="edge">
<title>Node1&#45;&gt;Node9</title>
<g id="a_edge13_Node000001_Node000009"><a xlink:title=" ">
<path fill="none" stroke="#63b8ff" d="M108.12,-144.6C133.55,-135.81 170.71,-122.98 201.95,-112.18"/>
<polygon fill="#63b8ff" stroke="#63b8ff" points="202.98,-115.53 211.29,-108.96 200.7,-108.91 202.98,-115.53"/>
</a>
</g>
</g>
<!-- Node10 -->
<g id="Node000010" class="node">
<title>Node10</title>
<g id="a_Node000010"><a xlink:href="namespaceLGE_1_1LxFile.html#a40751ea42c228d8e2c6f6b0788e24aa7" target="_top" xlink:title=" ">
<polygon fill="white" stroke="#666666" points="323.75,-58 199,-58 199,-38 323.75,-38 323.75,-58"/>
<text xml:space="preserve" text-anchor="middle" x="261.38" y="-44.5" font-family="Helvetica,sans-Serif" font-size="10.00">LGE::LxFile::GetFileSize</text>
</a>
</g>
</g>
<!-- Node1&#45;&gt;Node10 -->
<g id="edge14_Node000001_Node000010" class="edge">
<title>Node1&#45;&gt;Node10</title>
<g id="a_edge14_Node000001_Node000010"><a xlink:title=" ">
<path fill="none" stroke="#63b8ff" d="M88.12,-144.67C106.65,-126.33 148,-88.06 190,-67 193.44,-65.27 197.06,-63.69 200.76,-62.24"/>
<polygon fill="#63b8ff" stroke="#63b8ff" points="201.66,-65.63 209.92,-59 199.33,-59.03 201.66,-65.63"/>
</a>
</g>
</g>
<!-- Node11 -->
<g id="Node000011" class="node">
<title>Node11</title>
<g id="a_Node000011"><a xlink:href="namespaceLGE_1_1LxPath.html#aefae4d45f84718077f5218f64d2f074c" target="_top" xlink:title=" ">
<polygon fill="white" stroke="#666666" points="491.25,-174 368.75,-174 368.75,-154 491.25,-154 491.25,-174"/>
<text xml:space="preserve" text-anchor="middle" x="430" y="-160.5" font-family="Helvetica,sans-Serif" font-size="10.00">LGE::LxPath::GetParent</text>
</a>
</g>
</g>
<!-- Node1&#45;&gt;Node11 -->
<g id="edge15_Node000001_Node000011" class="edge">
<title>Node1&#45;&gt;Node11</title>
<g id="a_edge15_Node000001_Node000011"><a xlink:title=" ">
<path fill="none" stroke="#63b8ff" d="M101.45,-165.48C123.72,-174.81 158.4,-187.78 190,-193 252.6,-203.33 269.98,-202.25 332.75,-193 352.62,-190.07 374.09,-183.91 391.69,-178.02"/>
<polygon fill="#63b8ff" stroke="#63b8ff" points="392.37,-181.49 400.67,-174.91 390.08,-174.88 392.37,-181.49"/>
</a>
</g>
</g>
<!-- Node12 -->
<g id="Node000012" class="node">
<title>Node12</title>
<g id="a_Node000012"><a xlink:href="classLGE_1_1Log.html#ab0265ee050b8873a2fd31fbdb696ced0" target="_top" xlink:title=" ">
<polygon fill="white" stroke="#666666" points="301.25,-20 221.5,-20 221.5,0 301.25,0 301.25,-20"/>
<text xml:space="preserve" text-anchor="middle" x="261.38" y="-6.5" font-family="Helvetica,sans-Serif" font-size="10.00">LGE::Log::Info</text>
</a>
</g>
</g>
<!-- Node1&#45;&gt;Node12 -->
<g id="edge17_Node000001_Node000012" class="edge">
<title>Node1&#45;&gt;Node12</title>
<g id="a_edge17_Node000001_Node000012"><a xlink:title=" ">
<path fill="none" stroke="#63b8ff" d="M84.14,-144.7C99.05,-120.57 139.72,-60.1 190,-29 196.22,-25.15 203.21,-22.08 210.32,-19.62"/>
<polygon fill="#63b8ff" stroke="#63b8ff" points="211.1,-23.04 219.65,-16.78 209.07,-16.34 211.1,-23.04"/>
</a>
</g>
</g>
<!-- Node2&#45;&gt;Node3 -->
<g id="edge2_Node000002_Node000003" class="edge">
<title>Node2&#45;&gt;Node3</title>
<g id="a_edge2_Node000002_Node000003"><a xlink:title=" ">
<path fill="none" stroke="#63b8ff" d="M310.21,-252.11C363.25,-254.34 451.34,-257.71 527.25,-259 636.35,-260.85 764.1,-260.18 834.18,-259.56"/>
<polygon fill="#63b8ff" stroke="#63b8ff" points="833.86,-263.06 843.83,-259.47 833.79,-256.06 833.86,-263.06"/>
</a>
</g>
</g>
<!-- Node4 -->
<g id="Node000004" class="node">
<title>Node4</title>
<g id="a_Node000004"><a xlink:href="namespaceLGE_1_1VFS.html#abb5d35abfe80efe2f7a07394ad5b706a" target="_top" xlink:title=" ">
<polygon fill="white" stroke="#666666" points="489.38,-231 370.62,-231 370.62,-211 489.38,-211 489.38,-231"/>
<text xml:space="preserve" text-anchor="middle" x="430" y="-217.5" font-family="Helvetica,sans-Serif" font-size="10.00">LGE::VFS::IsReadOnly</text>
</a>
</g>
</g>
<!-- Node2&#45;&gt;Node4 -->
<g id="edge3_Node000002_Node000004" class="edge">
<title>Node2&#45;&gt;Node4</title>
<g id="a_edge3_Node000002_Node000004"><a xlink:title=" ">
<path fill="none" stroke="#63b8ff" d="M310.12,-241.69C325.36,-239.04 342.55,-236.05 359.03,-233.18"/>
<polygon fill="#63b8ff" stroke="#63b8ff" points="359.54,-236.64 368.79,-231.48 358.34,-229.75 359.54,-236.64"/>
</a>
</g>
</g>
<!-- Node5 -->
<g id="Node000005" class="node">
<title>Node5</title>
<g id="a_Node000005"><a xlink:href="namespaceLGE_1_1LxPath.html#ab664986e94ce09aa029f9eb2fcf50133" target="_top" xlink:title=" ">
<polygon fill="white" stroke="#666666" points="651.25,-250 527.25,-250 527.25,-230 651.25,-230 651.25,-250"/>
<text xml:space="preserve" text-anchor="middle" x="589.25" y="-236.5" font-family="Helvetica,sans-Serif" font-size="10.00">LGE::LxPath::IsSubPath</text>
</a>
</g>
</g>
<!-- Node4&#45;&gt;Node5 -->
<g id="edge4_Node000004_Node000005" class="edge">
<title>Node4&#45;&gt;Node5</title>
<g id="a_edge4_Node000004_Node000005"><a xlink:title=" ">
<path fill="none" stroke="#63b8ff" d="M489.55,-228.07C497.99,-229.09 506.76,-230.15 515.44,-231.2"/>
<polygon fill="#63b8ff" stroke="#63b8ff" points="514.9,-234.66 525.25,-232.39 515.74,-227.71 514.9,-234.66"/>
</a>
</g>
</g>
<!-- Node6 -->
<g id="Node000006" class="node">
<title>Node6</title>
<g id="a_Node000006"><a xlink:href="namespaceLGE_1_1LxPath.html#a314a60ce690c90f4ee0b4e64c0199408" target="_top" xlink:title=" ">
<polygon fill="white" stroke="#666666" points="809.75,-231 687.25,-231 687.25,-211 809.75,-211 809.75,-231"/>
<text xml:space="preserve" text-anchor="middle" x="748.5" y="-217.5" font-family="Helvetica,sans-Serif" font-size="10.00">LGE::LxPath::Normalize</text>
</a>
</g>
</g>
<!-- Node4&#45;&gt;Node6 -->
<g id="edge7_Node000004_Node000006" class="edge">
<title>Node4&#45;&gt;Node6</title>
<g id="a_edge7_Node000004_Node000006"><a xlink:title=" ">
<path fill="none" stroke="#63b8ff" d="M489.79,-221C542.3,-221 619.39,-221 675.57,-221"/>
<polygon fill="#63b8ff" stroke="#63b8ff" points="675.36,-224.5 685.36,-221 675.36,-217.5 675.36,-224.5"/>
</a>
</g>
</g>
<!-- Node5&#45;&gt;Node6 -->
<g id="edge5_Node000005_Node000006" class="edge">
<title>Node5&#45;&gt;Node6</title>
<g id="a_edge5_Node000005_Node000006"><a xlink:title=" ">
<path fill="none" stroke="#63b8ff" d="M651.5,-232.6C659.41,-231.64 667.57,-230.66 675.63,-229.68"/>
<polygon fill="#63b8ff" stroke="#63b8ff" points="675.93,-233.17 685.43,-228.5 675.09,-226.22 675.93,-233.17"/>
</a>
</g>
</g>
<!-- Node6&#45;&gt;Node3 -->
<g id="edge6_Node000006_Node000003" class="edge">
<title>Node6&#45;&gt;Node3</title>
<g id="a_edge6_Node000006_Node000003"><a xlink:title=" ">
<path fill="none" stroke="#63b8ff" d="M787.4,-231.48C803.17,-235.85 821.66,-240.96 838.4,-245.59"/>
<polygon fill="#63b8ff" stroke="#63b8ff" points="837.07,-248.85 847.64,-248.15 838.93,-242.11 837.07,-248.85"/>
</a>
</g>
</g>
<!-- Node7&#45;&gt;Node3 -->
<g id="edge9_Node000007_Node000003" class="edge">
<title>Node7&#45;&gt;Node3</title>
<g id="a_edge9_Node000007_Node000003"><a xlink:title=" ">
<path fill="none" stroke="#63b8ff" d="M301.11,-163.6C311.4,-160.82 322.5,-157.81 332.75,-155 348.77,-150.61 352.3,-147.24 368.75,-145 422.7,-137.65 437.02,-140.19 491.25,-145 634.49,-157.72 677.68,-145.1 809.75,-202 831.78,-211.49 853.45,-228.36 868.18,-241.29"/>
<polygon fill="#63b8ff" stroke="#63b8ff" points="865.51,-243.6 875.27,-247.71 870.21,-238.41 865.51,-243.6"/>
</a>
</g>
</g>
<!-- Node7&#45;&gt;Node4 -->
<g id="edge10_Node000007_Node000004" class="edge">
<title>Node7&#45;&gt;Node4</title>
<g id="a_edge10_Node000007_Node000004"><a xlink:title=" ">
<path fill="none" stroke="#63b8ff" d="M299.35,-184.43C323.43,-191.22 355.08,-200.15 381.08,-207.48"/>
<polygon fill="#63b8ff" stroke="#63b8ff" points="379.8,-210.76 390.38,-210.11 381.71,-204.02 379.8,-210.76"/>
</a>
</g>
</g>
<!-- Node11&#45;&gt;Node6 -->
<g id="edge16_Node000011_Node000006" class="edge">
<title>Node11&#45;&gt;Node6</title>
<g id="a_edge16_Node000011_Node000006"><a xlink:title=" ">
<path fill="none" stroke="#63b8ff" d="M489.05,-174.45C542.42,-184.07 621.62,-198.33 678.27,-208.53"/>
<polygon fill="#63b8ff" stroke="#63b8ff" points="677.33,-211.92 687.79,-210.25 678.57,-205.03 677.33,-211.92"/>
</a>
</g>
</g>
</g>
</svg>
