<?xml version="1.0" encoding="UTF-8" standalone="no"?>
<!DOCTYPE svg PUBLIC "-//W3C//DTD SVG 1.1//EN"
 "http://www.w3.org/Graphics/SVG/1.1/DTD/svg11.dtd">
<!-- Generated by graphviz version 14.0.2 (20251019.1705)
 -->
<!-- Title: LGE::Policies::IsPackagesPath Pages: 1 -->
<svg width="788pt" height="104pt"
 viewBox="0.00 0.00 788.00 104.00" xmlns="http://www.w3.org/2000/svg" xmlns:xlink="http://www.w3.org/1999/xlink">
<g id="graph0" class="graph" transform="scale(1 1) rotate(0) translate(4 100)">
<title>LGE::Policies::IsPackagesPath</title>
<!-- Node1 -->
<g id="Node000001" class="node">
<title>Node1</title>
<g id="a_Node000001"><a xlink:title=" ">
<polygon fill="#999999" stroke="#666666" points="154,-58 0,-58 0,-38 154,-38 154,-58"/>
<text xml:space="preserve" text-anchor="middle" x="77" y="-44.5" font-family="Helvetica,sans-Serif" font-size="10.00">LGE::Policies::IsPackagesPath</text>
</a>
</g>
</g>
<!-- Node2 -->
<g id="Node000002" class="node">
<title>Node2</title>
<g id="a_Node000002"><a xlink:href="namespaceLGE_1_1Policies.html#ac1cfbc23c43ff5fb2cafb1b357967d4f" target="_top" xlink:title=" ">
<polygon fill="white" stroke="#666666" points="341,-58 190,-58 190,-38 341,-38 341,-58"/>
<text xml:space="preserve" text-anchor="middle" x="265.5" y="-44.5" font-family="Helvetica,sans-Serif" font-size="10.00">LGE::Policies::GetMountName</text>
</a>
</g>
</g>
<!-- Node1&#45;&gt;Node2 -->
<g id="edge1_Node000001_Node000002" class="edge">
<title>Node1&#45;&gt;Node2</title>
<g id="a_edge1_Node000001_Node000002"><a xlink:title=" ">
<path fill="none" stroke="#63b8ff" d="M154.39,-48C162.33,-48 170.43,-48 178.45,-48"/>
<polygon fill="#63b8ff" stroke="#63b8ff" points="178.22,-51.5 188.22,-48 178.22,-44.5 178.22,-51.5"/>
</a>
</g>
</g>
<!-- Node3 -->
<g id="Node000003" class="node">
<title>Node3</title>
<g id="a_Node000003"><a xlink:href="namespaceLGE_1_1LxPath.html#ab664986e94ce09aa029f9eb2fcf50133" target="_top" xlink:title=" ">
<polygon fill="white" stroke="#666666" points="501,-96 377,-96 377,-76 501,-76 501,-96"/>
<text xml:space="preserve" text-anchor="middle" x="439" y="-82.5" font-family="Helvetica,sans-Serif" font-size="10.00">LGE::LxPath::IsSubPath</text>
</a>
</g>
</g>
<!-- Node2&#45;&gt;Node3 -->
<g id="edge2_Node000002_Node000003" class="edge">
<title>Node2&#45;&gt;Node3</title>
<g id="a_edge2_Node000002_Node000003"><a xlink:title=" ">
<path fill="none" stroke="#63b8ff" d="M313.82,-58.48C334.25,-63.01 358.35,-68.35 379.86,-73.12"/>
<polygon fill="#63b8ff" stroke="#63b8ff" points="378.84,-76.48 389.36,-75.22 380.35,-69.64 378.84,-76.48"/>
</a>
</g>
</g>
<!-- Node4 -->
<g id="Node000004" class="node">
<title>Node4</title>
<g id="a_Node000004"><a xlink:href="namespaceLGE_1_1LxPath.html#a314a60ce690c90f4ee0b4e64c0199408" target="_top" xlink:title=" ">
<polygon fill="white" stroke="#666666" points="659.5,-77 537,-77 537,-57 659.5,-57 659.5,-77"/>
<text xml:space="preserve" text-anchor="middle" x="598.25" y="-63.5" font-family="Helvetica,sans-Serif" font-size="10.00">LGE::LxPath::Normalize</text>
</a>
</g>
</g>
<!-- Node2&#45;&gt;Node4 -->
<g id="edge6_Node000002_Node000004" class="edge">
<title>Node2&#45;&gt;Node4</title>
<g id="a_edge6_Node000002_Node000004"><a xlink:title=" ">
<path fill="none" stroke="#63b8ff" d="M341.14,-52.29C396.28,-55.46 470.92,-59.74 525.39,-62.87"/>
<polygon fill="#63b8ff" stroke="#63b8ff" points="525,-66.36 535.18,-63.43 525.4,-59.37 525,-66.36"/>
</a>
</g>
</g>
<!-- Node6 -->
<g id="Node000006" class="node">
<title>Node6</title>
<g id="a_Node000006"><a xlink:href="namespaceLGE_1_1VFS.html#a2c64330fbe1cbd5f66e79c29b43c3e87" target="_top" xlink:title=" ">
<polygon fill="white" stroke="#666666" points="496.5,-20 381.5,-20 381.5,0 496.5,0 496.5,-20"/>
<text xml:space="preserve" text-anchor="middle" x="439" y="-6.5" font-family="Helvetica,sans-Serif" font-size="10.00">LGE::VFS::ListMounts</text>
</a>
</g>
</g>
<!-- Node2&#45;&gt;Node6 -->
<g id="edge5_Node000002_Node000006" class="edge">
<title>Node2&#45;&gt;Node6</title>
<g id="a_edge5_Node000002_Node000006"><a xlink:title=" ">
<path fill="none" stroke="#63b8ff" d="M313.82,-37.52C334.25,-32.99 358.35,-27.65 379.86,-22.88"/>
<polygon fill="#63b8ff" stroke="#63b8ff" points="380.35,-26.36 389.36,-20.78 378.84,-19.52 380.35,-26.36"/>
</a>
</g>
</g>
<!-- Node3&#45;&gt;Node4 -->
<g id="edge3_Node000003_Node000004" class="edge">
<title>Node3&#45;&gt;Node4</title>
<g id="a_edge3_Node000003_Node000004"><a xlink:title=" ">
<path fill="none" stroke="#63b8ff" d="M501.25,-78.6C509.16,-77.64 517.32,-76.66 525.38,-75.68"/>
<polygon fill="#63b8ff" stroke="#63b8ff" points="525.68,-79.17 535.18,-74.5 524.84,-72.22 525.68,-79.17"/>
</a>
</g>
</g>
<!-- Node5 -->
<g id="Node000005" class="node">
<title>Node5</title>
<g id="a_Node000005"><a xlink:href="classLGE_1_1Log.html#a53f3f4b8797ffd18145739c9e66d690a" target="_top" xlink:title=" ">
<polygon fill="white" stroke="#666666" points="779.75,-77 695.5,-77 695.5,-57 779.75,-57 779.75,-77"/>
<text xml:space="preserve" text-anchor="middle" x="737.62" y="-63.5" font-family="Helvetica,sans-Serif" font-size="10.00">LGE::Log::Error</text>
</a>
</g>
</g>
<!-- Node4&#45;&gt;Node5 -->
<g id="edge4_Node000004_Node000005" class="edge">
<title>Node4&#45;&gt;Node5</title>
<g id="a_edge4_Node000004_Node000005"><a xlink:title=" ">
<path fill="none" stroke="#63b8ff" d="M659.9,-67C667.92,-67 676.09,-67 683.95,-67"/>
<polygon fill="#63b8ff" stroke="#63b8ff" points="683.7,-70.5 693.7,-67 683.7,-63.5 683.7,-70.5"/>
</a>
</g>
</g>
</g>
</svg>
