<?xml version="1.0" encoding="UTF-8" standalone="no"?>
<!DOCTYPE svg PUBLIC "-//W3C//DTD SVG 1.1//EN"
 "http://www.w3.org/Graphics/SVG/1.1/DTD/svg11.dtd">
<!-- Generated by graphviz version 14.0.2 (20251019.1705)
 -->
<!-- Title: LGE::LxFile::CreateDirectory Pages: 1 -->
<svg width="702pt" height="514pt"
 viewBox="0.00 0.00 702.00 514.00" xmlns="http://www.w3.org/2000/svg" xmlns:xlink="http://www.w3.org/1999/xlink">
<g id="graph0" class="graph" transform="scale(1 1) rotate(0) translate(4 510)">
<title>LGE::LxFile::CreateDirectory</title>
<!-- Node1 -->
<g id="Node000001" class="node">
<title>Node1</title>
<g id="a_Node000001"><a xlink:title=" ">
<polygon fill="#999999" stroke="#666666" points="694,-248 551.25,-248 551.25,-228 694,-228 694,-248"/>
<text xml:space="preserve" text-anchor="middle" x="622.62" y="-234.5" font-family="Helvetica,sans-Serif" font-size="10.00">LGE::LxFile::CreateDirectory</text>
</a>
</g>
</g>
<!-- Node2 -->
<g id="Node000002" class="node">
<title>Node2</title>
<g id="a_Node000002"><a xlink:href="namespaceLGE_1_1Thumbs.html#a20e7c9fbfb16b84f63099872c64f241d" target="_top" xlink:title=" ">
<polygon fill="white" stroke="#666666" points="487.12,-494 382.62,-494 382.62,-474 487.12,-474 487.12,-494"/>
<text xml:space="preserve" text-anchor="middle" x="434.88" y="-480.5" font-family="Helvetica,sans-Serif" font-size="10.00">LGE::Thumbs::Build</text>
</a>
</g>
</g>
<!-- Node1&#45;&gt;Node2 -->
<g id="edge1_Node000001_Node000002" class="edge">
<title>Node1&#45;&gt;Node2</title>
<g id="a_edge1_Node000001_Node000002"><a xlink:title=" ">
<path fill="none" stroke="#63b8ff" d="M617.32,-259.33C607.35,-303.24 578.53,-404.2 515.25,-459 507.28,-465.9 497.4,-470.9 487.35,-474.52"/>
<polygon fill="#63b8ff" stroke="#63b8ff" points="620.74,-260.08 619.42,-249.57 613.9,-258.61 620.74,-260.08"/>
</a>
</g>
</g>
<!-- Node5 -->
<g id="Node000005" class="node">
<title>Node5</title>
<g id="a_Node000005"><a xlink:href="namespaceLGE_1_1Backup.html#a8db5be221811de56211321d119281ce0" target="_top" xlink:title=" ">
<polygon fill="white" stroke="#666666" points="506.25,-450 363.5,-450 363.5,-430 506.25,-430 506.25,-450"/>
<text xml:space="preserve" text-anchor="middle" x="434.88" y="-436.5" font-family="Helvetica,sans-Serif" font-size="10.00">LGE::Backup::CreateBackup</text>
</a>
</g>
</g>
<!-- Node1&#45;&gt;Node5 -->
<g id="edge4_Node000001_Node000005" class="edge">
<title>Node1&#45;&gt;Node5</title>
<g id="a_edge4_Node000001_Node000005"><a xlink:title=" ">
<path fill="none" stroke="#63b8ff" d="M615.48,-259.12C603.16,-297.6 571.65,-379.04 515.25,-421 510.59,-424.47 505.38,-427.31 499.93,-429.64"/>
<polygon fill="#63b8ff" stroke="#63b8ff" points="618.79,-260.27 618.37,-249.69 612.1,-258.22 618.79,-260.27"/>
</a>
</g>
</g>
<!-- Node8 -->
<g id="Node000008" class="node">
<title>Node8</title>
<g id="a_Node000008"><a xlink:href="namespaceLGE_1_1Bundles.html#aa9d4c4452f76b1187a963bea3168be71" target="_top" xlink:title=" ">
<polygon fill="white" stroke="#666666" points="505.88,-412 363.88,-412 363.88,-392 505.88,-392 505.88,-412"/>
<text xml:space="preserve" text-anchor="middle" x="434.88" y="-398.5" font-family="Helvetica,sans-Serif" font-size="10.00">LGE::Bundles::CreateBundle</text>
</a>
</g>
</g>
<!-- Node1&#45;&gt;Node8 -->
<g id="edge7_Node000001_Node000008" class="edge">
<title>Node1&#45;&gt;Node8</title>
<g id="a_edge7_Node000001_Node000008"><a xlink:title=" ">
<path fill="none" stroke="#63b8ff" d="M612.34,-258.69C596.92,-290.56 562.96,-351.3 515.25,-383 510.06,-386.45 504.3,-389.28 498.34,-391.59"/>
<polygon fill="#63b8ff" stroke="#63b8ff" points="615.46,-260.27 616.53,-249.73 609.12,-257.31 615.46,-260.27"/>
</a>
</g>
</g>
<!-- Node9 -->
<g id="Node000009" class="node">
<title>Node9</title>
<g id="a_Node000009"><a xlink:href="namespaceLGE_1_1Versioning.html#a775af9b7b8c6d3c3d09ef0384e301e14" target="_top" xlink:title=" ">
<polygon fill="white" stroke="#666666" points="511.88,-374 357.88,-374 357.88,-354 511.88,-354 511.88,-374"/>
<text xml:space="preserve" text-anchor="middle" x="434.88" y="-360.5" font-family="Helvetica,sans-Serif" font-size="10.00">LGE::Versioning::CreateVersion</text>
</a>
</g>
</g>
<!-- Node1&#45;&gt;Node9 -->
<g id="edge8_Node000001_Node000009" class="edge">
<title>Node1&#45;&gt;Node9</title>
<g id="a_edge8_Node000001_Node000009"><a xlink:title=" ">
<path fill="none" stroke="#63b8ff" d="M607.84,-257.39C589.51,-281.68 554.8,-322.79 515.25,-345 509.07,-348.47 502.28,-351.31 495.35,-353.63"/>
<polygon fill="#63b8ff" stroke="#63b8ff" points="610.44,-259.75 613.55,-249.62 604.81,-255.6 610.44,-259.75"/>
</a>
</g>
</g>
<!-- Node10 -->
<g id="Node000010" class="node">
<title>Node10</title>
<g id="a_Node000010"><a xlink:href="namespaceLGE_1_1Compression.html#a2846e365c47a6e243106be9db7c25cd0" target="_top" xlink:title=" ">
<polygon fill="white" stroke="#666666" points="515.25,-336 354.5,-336 354.5,-304 515.25,-304 515.25,-336"/>
<text xml:space="preserve" text-anchor="start" x="362.5" y="-322.5" font-family="Helvetica,sans-Serif" font-size="10.00">LGE::Compression::Decompress</text>
<text xml:space="preserve" text-anchor="middle" x="434.88" y="-310.5" font-family="Helvetica,sans-Serif" font-size="10.00">Archive</text>
</a>
</g>
</g>
<!-- Node1&#45;&gt;Node10 -->
<g id="edge9_Node000001_Node000010" class="edge">
<title>Node1&#45;&gt;Node10</title>
<g id="a_edge9_Node000001_Node000010"><a xlink:title=" ">
<path fill="none" stroke="#63b8ff" d="M594.95,-254.1C573.84,-266.39 543.33,-283.18 515.25,-295 508.06,-298.03 500.37,-300.89 492.71,-303.52"/>
<polygon fill="#63b8ff" stroke="#63b8ff" points="596.65,-257.16 603.49,-249.07 593.09,-251.13 596.65,-257.16"/>
</a>
</g>
</g>
<!-- Node12 -->
<g id="Node000012" class="node">
<title>Node12</title>
<g id="a_Node000012"><a xlink:href="namespaceLGE_1_1Analytics.html#a2e264bb005b5ce7c21123364bfbad823" target="_top" xlink:title=" ">
<polygon fill="white" stroke="#666666" points="496.88,-286 372.88,-286 372.88,-266 496.88,-266 496.88,-286"/>
<text xml:space="preserve" text-anchor="middle" x="434.88" y="-272.5" font-family="Helvetica,sans-Serif" font-size="10.00">LGE::Analytics::Initialize</text>
</a>
</g>
</g>
<!-- Node1&#45;&gt;Node12 -->
<g id="edge11_Node000001_Node000012" class="edge">
<title>Node1&#45;&gt;Node12</title>
<g id="a_edge11_Node000001_Node000012"><a xlink:title=" ">
<path fill="none" stroke="#63b8ff" d="M559.12,-250.79C535.65,-255.59 509.27,-260.99 486.96,-265.55"/>
<polygon fill="#63b8ff" stroke="#63b8ff" points="559.8,-254.22 568.89,-248.79 558.39,-247.36 559.8,-254.22"/>
</a>
</g>
</g>
<!-- Node13 -->
<g id="Node000013" class="node">
<title>Node13</title>
<g id="a_Node000013"><a xlink:href="namespaceLGE_1_1Backup.html#ae534ce4bdbde8e6e2a5030a8af02c952" target="_top" xlink:title=" ">
<polygon fill="white" stroke="#666666" points="493.12,-248 376.62,-248 376.62,-228 493.12,-228 493.12,-248"/>
<text xml:space="preserve" text-anchor="middle" x="434.88" y="-234.5" font-family="Helvetica,sans-Serif" font-size="10.00">LGE::Backup::Initialize</text>
</a>
</g>
</g>
<!-- Node1&#45;&gt;Node13 -->
<g id="edge12_Node000001_Node000013" class="edge">
<title>Node1&#45;&gt;Node13</title>
<g id="a_edge12_Node000001_Node000013"><a xlink:title=" ">
<path fill="none" stroke="#63b8ff" d="M539.63,-238C524.06,-238 508.08,-238 493.47,-238"/>
<polygon fill="#63b8ff" stroke="#63b8ff" points="539.36,-241.5 549.36,-238 539.36,-234.5 539.36,-241.5"/>
</a>
</g>
</g>
<!-- Node14 -->
<g id="Node000014" class="node">
<title>Node14</title>
<g id="a_Node000014"><a xlink:href="namespaceLGE_1_1Cache.html#ab2f0fc20d916d186a43c53dead4028f3" target="_top" xlink:title=" ">
<polygon fill="white" stroke="#666666" points="490.88,-210 378.88,-210 378.88,-190 490.88,-190 490.88,-210"/>
<text xml:space="preserve" text-anchor="middle" x="434.88" y="-196.5" font-family="Helvetica,sans-Serif" font-size="10.00">LGE::Cache::Initialize</text>
</a>
</g>
</g>
<!-- Node1&#45;&gt;Node14 -->
<g id="edge13_Node000001_Node000014" class="edge">
<title>Node1&#45;&gt;Node14</title>
<g id="a_edge13_Node000001_Node000014"><a xlink:title=" ">
<path fill="none" stroke="#63b8ff" d="M559.12,-225.21C535.65,-220.41 509.27,-215.01 486.96,-210.45"/>
<polygon fill="#63b8ff" stroke="#63b8ff" points="558.39,-228.64 568.89,-227.21 559.8,-221.78 558.39,-228.64"/>
</a>
</g>
</g>
<!-- Node15 -->
<g id="Node000015" class="node">
<title>Node15</title>
<g id="a_Node000015"><a xlink:href="namespaceLGE_1_1Versioning.html#ad2dbf36d77040b5b7d043d3aa3f6ec9f" target="_top" xlink:title=" ">
<polygon fill="white" stroke="#666666" points="499.12,-172 370.62,-172 370.62,-152 499.12,-152 499.12,-172"/>
<text xml:space="preserve" text-anchor="middle" x="434.88" y="-158.5" font-family="Helvetica,sans-Serif" font-size="10.00">LGE::Versioning::Initialize</text>
</a>
</g>
</g>
<!-- Node1&#45;&gt;Node15 -->
<g id="edge14_Node000001_Node000015" class="edge">
<title>Node1&#45;&gt;Node15</title>
<g id="a_edge14_Node000001_Node000015"><a xlink:title=" ">
<path fill="none" stroke="#63b8ff" d="M595.54,-221.57C574.54,-208.95 543.9,-191.9 515.25,-181 506.64,-177.73 497.29,-174.89 488.12,-172.48"/>
<polygon fill="#63b8ff" stroke="#63b8ff" points="593.66,-224.52 604.01,-226.74 597.31,-218.54 593.66,-224.52"/>
</a>
</g>
</g>
<!-- Node16 -->
<g id="Node000016" class="node">
<title>Node16</title>
<g id="a_Node000016"><a xlink:href="namespaceLGE_1_1FSOps.html#a7f1957de8291a7a7d914feb628c6a85b" target="_top" xlink:title=" ">
<polygon fill="white" stroke="#666666" points="497.62,-134 372.12,-134 372.12,-114 497.62,-114 497.62,-134"/>
<text xml:space="preserve" text-anchor="middle" x="434.88" y="-120.5" font-family="Helvetica,sans-Serif" font-size="10.00">LGE::FSOps::NewFolder</text>
</a>
</g>
</g>
<!-- Node1&#45;&gt;Node16 -->
<g id="edge15_Node000001_Node000016" class="edge">
<title>Node1&#45;&gt;Node16</title>
<g id="a_edge15_Node000001_Node000016"><a xlink:title=" ">
<path fill="none" stroke="#63b8ff" d="M605.67,-218.92C586.45,-197.22 552.14,-162.3 515.25,-143 508.72,-139.58 501.57,-136.77 494.32,-134.46"/>
<polygon fill="#63b8ff" stroke="#63b8ff" points="602.99,-221.17 612.17,-226.45 608.28,-216.6 602.99,-221.17"/>
</a>
</g>
</g>
<!-- Node17 -->
<g id="Node000017" class="node">
<title>Node17</title>
<g id="a_Node000017"><a xlink:href="namespaceLGE_1_1Recycle.html#a07682188a7ba9ac8cc063a99019fcadf" target="_top" xlink:title=" ">
<polygon fill="white" stroke="#666666" points="493.88,-96 375.88,-96 375.88,-76 493.88,-76 493.88,-96"/>
<text xml:space="preserve" text-anchor="middle" x="434.88" y="-82.5" font-family="Helvetica,sans-Serif" font-size="10.00">LGE::Recycle::Restore</text>
</a>
</g>
</g>
<!-- Node1&#45;&gt;Node17 -->
<g id="edge16_Node000001_Node000017" class="edge">
<title>Node1&#45;&gt;Node17</title>
<g id="a_edge16_Node000001_Node000017"><a xlink:title=" ">
<path fill="none" stroke="#63b8ff" d="M611.19,-217.77C594.86,-188.22 560.41,-133.66 515.25,-105 508.79,-100.9 501.52,-97.68 494.08,-95.16"/>
<polygon fill="#63b8ff" stroke="#63b8ff" points="608.02,-219.27 615.83,-226.43 614.19,-215.97 608.02,-219.27"/>
</a>
</g>
</g>
<!-- Node18 -->
<g id="Node000018" class="node">
<title>Node18</title>
<g id="a_Node000018"><a xlink:href="TestFileIO_8cpp.html#ac70ac0177498fa1e835921a9a55ebbcf" target="_top" xlink:title=" ">
<polygon fill="white" stroke="#666666" points="455.62,-58 414.12,-58 414.12,-38 455.62,-38 455.62,-58"/>
<text xml:space="preserve" text-anchor="middle" x="434.88" y="-44.5" font-family="Helvetica,sans-Serif" font-size="10.00">TEST</text>
</a>
</g>
</g>
<!-- Node1&#45;&gt;Node18 -->
<g id="edge17_Node000001_Node000018" class="edge">
<title>Node1&#45;&gt;Node18</title>
<g id="a_edge17_Node000001_Node000018"><a xlink:title=" ">
<path fill="none" stroke="#63b8ff" d="M614.53,-216.74C601.18,-180.17 568.76,-105.58 515.25,-67 497.78,-54.4 473.07,-50.07 455.88,-48.62"/>
<polygon fill="#63b8ff" stroke="#63b8ff" points="611.21,-217.87 617.82,-226.15 617.82,-215.56 611.21,-217.87"/>
</a>
</g>
</g>
<!-- Node19 -->
<g id="Node000019" class="node">
<title>Node19</title>
<g id="a_Node000019"><a xlink:href="TestFileIO_8cpp.html#ae7bbde57a64295eafd0b77fe833911b2" target="_top" xlink:title=" ">
<polygon fill="white" stroke="#666666" points="455.62,-20 414.12,-20 414.12,0 455.62,0 455.62,-20"/>
<text xml:space="preserve" text-anchor="middle" x="434.88" y="-6.5" font-family="Helvetica,sans-Serif" font-size="10.00">TEST</text>
</a>
</g>
</g>
<!-- Node1&#45;&gt;Node19 -->
<g id="edge18_Node000001_Node000019" class="edge">
<title>Node1&#45;&gt;Node19</title>
<g id="a_edge18_Node000001_Node000019"><a xlink:title=" ">
<path fill="none" stroke="#63b8ff" d="M617.05,-216.6C606.76,-173.94 577.69,-78.21 515.25,-29 498.22,-15.58 473.2,-11.41 455.81,-10.23"/>
<polygon fill="#63b8ff" stroke="#63b8ff" points="613.63,-217.36 619.27,-226.33 620.45,-215.8 613.63,-217.36"/>
</a>
</g>
</g>
<!-- Node3 -->
<g id="Node000003" class="node">
<title>Node3</title>
<g id="a_Node000003"><a xlink:href="namespaceLGE_1_1Thumbs.html#aff11822502a43d83cc911490abbf316b" target="_top" xlink:title=" ">
<polygon fill="white" stroke="#666666" points="315.12,-506 161.12,-506 161.12,-474 315.12,-474 315.12,-506"/>
<text xml:space="preserve" text-anchor="start" x="169.12" y="-492.5" font-family="Helvetica,sans-Serif" font-size="10.00">LGE::Thumbs::ProcessPending</text>
<text xml:space="preserve" text-anchor="middle" x="238.12" y="-480.5" font-family="Helvetica,sans-Serif" font-size="10.00">Builds</text>
</a>
</g>
</g>
<!-- Node2&#45;&gt;Node3 -->
<g id="edge2_Node000002_Node000003" class="edge">
<title>Node2&#45;&gt;Node3</title>
<g id="a_edge2_Node000002_Node000003"><a xlink:title=" ">
<path fill="none" stroke="#63b8ff" d="M370.9,-485.94C353.28,-486.48 333.93,-487.08 315.62,-487.64"/>
<polygon fill="#63b8ff" stroke="#63b8ff" points="370.8,-489.45 380.68,-485.64 370.58,-482.45 370.8,-489.45"/>
</a>
</g>
</g>
<!-- Node4 -->
<g id="Node000004" class="node">
<title>Node4</title>
<g id="a_Node000004"><a xlink:href="classExampleApp.html#a69ab083ae73184bfc9bafca1c9310771" target="_top" xlink:title=" ">
<polygon fill="white" stroke="#666666" points="121.75,-500 0,-500 0,-480 121.75,-480 121.75,-500"/>
<text xml:space="preserve" text-anchor="middle" x="60.88" y="-486.5" font-family="Helvetica,sans-Serif" font-size="10.00">ExampleApp::OnUpdate</text>
</a>
</g>
</g>
<!-- Node3&#45;&gt;Node4 -->
<g id="edge3_Node000003_Node000004" class="edge">
<title>Node3&#45;&gt;Node4</title>
<g id="a_edge3_Node000003_Node000004"><a xlink:title=" ">
<path fill="none" stroke="#63b8ff" d="M149.51,-490C140.26,-490 131.02,-490 122.18,-490"/>
<polygon fill="#63b8ff" stroke="#63b8ff" points="149.25,-493.5 159.25,-490 149.25,-486.5 149.25,-493.5"/>
</a>
</g>
</g>
<!-- Node6 -->
<g id="Node000006" class="node">
<title>Node6</title>
<g id="a_Node000006"><a xlink:href="namespaceLGE_1_1Backup.html#ad6294b6da335fe274372b3821fe490b4" target="_top" xlink:title=" ">
<polygon fill="white" stroke="#666666" points="318.5,-456 157.75,-456 157.75,-424 318.5,-424 318.5,-456"/>
<text xml:space="preserve" text-anchor="start" x="165.75" y="-442.5" font-family="Helvetica,sans-Serif" font-size="10.00">LGE::Backup::CreateIncremental</text>
<text xml:space="preserve" text-anchor="middle" x="238.12" y="-430.5" font-family="Helvetica,sans-Serif" font-size="10.00">Backup</text>
</a>
</g>
</g>
<!-- Node5&#45;&gt;Node6 -->
<g id="edge5_Node000005_Node000006" class="edge">
<title>Node5&#45;&gt;Node6</title>
<g id="a_edge5_Node000005_Node000006"><a xlink:title=" ">
<path fill="none" stroke="#63b8ff" d="M351.77,-440C340.86,-440 329.7,-440 318.83,-440"/>
<polygon fill="#63b8ff" stroke="#63b8ff" points="351.5,-443.5 361.5,-440 351.5,-436.5 351.5,-443.5"/>
</a>
</g>
</g>
<!-- Node7 -->
<g id="Node000007" class="node">
<title>Node7</title>
<g id="a_Node000007"><a xlink:href="namespaceLGE_1_1Backup.html#a7de11ff292510de53398d602090fa1fe" target="_top" xlink:title=" ">
<polygon fill="white" stroke="#666666" points="318.5,-406 157.75,-406 157.75,-374 318.5,-374 318.5,-406"/>
<text xml:space="preserve" text-anchor="start" x="165.75" y="-392.5" font-family="Helvetica,sans-Serif" font-size="10.00">LGE::Backup::PerformScheduled</text>
<text xml:space="preserve" text-anchor="middle" x="238.12" y="-380.5" font-family="Helvetica,sans-Serif" font-size="10.00">Backup</text>
</a>
</g>
</g>
<!-- Node5&#45;&gt;Node7 -->
<g id="edge6_Node000005_Node000007" class="edge">
<title>Node5&#45;&gt;Node7</title>
<g id="a_edge6_Node000005_Node000007"><a xlink:title=" ">
<path fill="none" stroke="#63b8ff" d="M378.2,-426.88C370.24,-424.94 362.15,-422.94 354.5,-421 336.51,-416.43 316.99,-411.27 299.22,-406.48"/>
<polygon fill="#63b8ff" stroke="#63b8ff" points="377.31,-430.26 387.85,-429.21 378.95,-423.46 377.31,-430.26"/>
</a>
</g>
</g>
<!-- Node11 -->
<g id="Node000011" class="node">
<title>Node11</title>
<g id="a_Node000011"><a xlink:href="namespaceLGE_1_1Backup.html#a2e9fa2883a6f23a0dbcb35478ae5dfcc" target="_top" xlink:title=" ">
<polygon fill="white" stroke="#666666" points="312.12,-330 164.12,-330 164.12,-310 312.12,-310 312.12,-330"/>
<text xml:space="preserve" text-anchor="middle" x="238.12" y="-316.5" font-family="Helvetica,sans-Serif" font-size="10.00">LGE::Backup::RestoreBackup</text>
</a>
</g>
</g>
<!-- Node10&#45;&gt;Node11 -->
<g id="edge10_Node000010_Node000011" class="edge">
<title>Node10&#45;&gt;Node11</title>
<g id="a_edge10_Node000010_Node000011"><a xlink:title=" ">
<path fill="none" stroke="#63b8ff" d="M342.73,-320C332.6,-320 322.38,-320 312.51,-320"/>
<polygon fill="#63b8ff" stroke="#63b8ff" points="342.59,-323.5 352.59,-320 342.59,-316.5 342.59,-323.5"/>
</a>
</g>
</g>
</g>
</svg>
