<?xml version="1.0" encoding="UTF-8" standalone="no"?>
<!DOCTYPE svg PUBLIC "-//W3C//DTD SVG 1.1//EN"
 "http://www.w3.org/Graphics/SVG/1.1/DTD/svg11.dtd">
<!-- Generated by graphviz version 14.0.2 (20251019.1705)
 -->
<!-- Title: LGE::Backup::CreateIncrementalBackup Pages: 1 -->
<svg width="1158pt" height="470pt"
 viewBox="0.00 0.00 1158.00 470.00" xmlns="http://www.w3.org/2000/svg" xmlns:xlink="http://www.w3.org/1999/xlink">
<g id="graph0" class="graph" transform="scale(1 1) rotate(0) translate(4 466)">
<title>LGE::Backup::CreateIncrementalBackup</title>
<!-- Node1 -->
<g id="Node000001" class="node">
<title>Node1</title>
<g id="a_Node000001"><a xlink:title=" ">
<polygon fill="#999999" stroke="#666666" points="160.75,-152 0,-152 0,-120 160.75,-120 160.75,-152"/>
<text xml:space="preserve" text-anchor="start" x="8" y="-138.5" font-family="Helvetica,sans-Serif" font-size="10.00">LGE::Backup::CreateIncremental</text>
<text xml:space="preserve" text-anchor="middle" x="80.38" y="-126.5" font-family="Helvetica,sans-Serif" font-size="10.00">Backup</text>
</a>
</g>
</g>
<!-- Node2 -->
<g id="Node000002" class="node">
<title>Node2</title>
<g id="a_Node000002"><a xlink:href="namespaceLGE_1_1Backup.html#a8db5be221811de56211321d119281ce0" target="_top" xlink:title=" ">
<polygon fill="white" stroke="#666666" points="339.5,-184 196.75,-184 196.75,-164 339.5,-164 339.5,-184"/>
<text xml:space="preserve" text-anchor="middle" x="268.12" y="-170.5" font-family="Helvetica,sans-Serif" font-size="10.00">LGE::Backup::CreateBackup</text>
</a>
</g>
</g>
<!-- Node1&#45;&gt;Node2 -->
<g id="edge1_Node000001_Node000002" class="edge">
<title>Node1&#45;&gt;Node2</title>
<g id="a_edge1_Node000001_Node000002"><a xlink:title=" ">
<path fill="none" stroke="#63b8ff" d="M161.23,-152.34C175.89,-155.34 191,-158.43 205.04,-161.3"/>
<polygon fill="#63b8ff" stroke="#63b8ff" points="204.07,-164.67 214.57,-163.25 205.47,-157.82 204.07,-164.67"/>
</a>
</g>
</g>
<!-- Node21 -->
<g id="Node000021" class="node">
<title>Node21</title>
<g id="a_Node000021"><a xlink:href="namespaceLGE_1_1Backup.html#a87132da026cf31e6a63ac04ec2fc09b7" target="_top" xlink:title=" ">
<polygon fill="white" stroke="#666666" points="332.75,-146 203.5,-146 203.5,-126 332.75,-126 332.75,-146"/>
<text xml:space="preserve" text-anchor="middle" x="268.12" y="-132.5" font-family="Helvetica,sans-Serif" font-size="10.00">LGE::Backup::GetBackup</text>
</a>
</g>
</g>
<!-- Node1&#45;&gt;Node21 -->
<g id="edge28_Node000001_Node000021" class="edge">
<title>Node1&#45;&gt;Node21</title>
<g id="a_edge28_Node000001_Node000021"><a xlink:title=" ">
<path fill="none" stroke="#63b8ff" d="M161.23,-136C171.37,-136 181.73,-136 191.8,-136"/>
<polygon fill="#63b8ff" stroke="#63b8ff" points="191.51,-139.5 201.51,-136 191.51,-132.5 191.51,-139.5"/>
</a>
</g>
</g>
<!-- Node22 -->
<g id="Node000022" class="node">
<title>Node22</title>
<g id="a_Node000022"><a xlink:href="classLGE_1_1Log.html#aa6f98018af29c23dd7f574d3df5dda5e" target="_top" xlink:title=" ">
<polygon fill="white" stroke="#666666" points="311,-108 225.25,-108 225.25,-88 311,-88 311,-108"/>
<text xml:space="preserve" text-anchor="middle" x="268.12" y="-94.5" font-family="Helvetica,sans-Serif" font-size="10.00">LGE::Log::Warn</text>
</a>
</g>
</g>
<!-- Node1&#45;&gt;Node22 -->
<g id="edge29_Node000001_Node000022" class="edge">
<title>Node1&#45;&gt;Node22</title>
<g id="a_edge29_Node000001_Node000022"><a xlink:title=" ">
<path fill="none" stroke="#63b8ff" d="M161.23,-119.66C179.04,-116.02 197.51,-112.24 213.94,-108.88"/>
<polygon fill="#63b8ff" stroke="#63b8ff" points="214.38,-112.36 223.47,-106.93 212.97,-105.51 214.38,-112.36"/>
</a>
</g>
</g>
<!-- Node3 -->
<g id="Node000003" class="node">
<title>Node3</title>
<g id="a_Node000003"><a xlink:href="namespaceLGE_1_1Compression.html#af7ed5c9910b095705473adc945a804a4" target="_top" xlink:title=" ">
<polygon fill="white" stroke="#666666" points="526.88,-348 376.62,-348 376.62,-316 526.88,-316 526.88,-348"/>
<text xml:space="preserve" text-anchor="start" x="384.62" y="-334.5" font-family="Helvetica,sans-Serif" font-size="10.00">LGE::Compression::Compress</text>
<text xml:space="preserve" text-anchor="middle" x="451.75" y="-322.5" font-family="Helvetica,sans-Serif" font-size="10.00">Files</text>
</a>
</g>
</g>
<!-- Node2&#45;&gt;Node3 -->
<g id="edge2_Node000002_Node000003" class="edge">
<title>Node2&#45;&gt;Node3</title>
<g id="a_edge2_Node000002_Node000003"><a xlink:title=" ">
<path fill="none" stroke="#63b8ff" d="M279,-184.28C297.34,-203.19 338.19,-244.44 375.5,-276 389.04,-287.45 404.67,-299.29 418.17,-309.12"/>
<polygon fill="#63b8ff" stroke="#63b8ff" points="415.73,-311.68 425.89,-314.68 419.83,-306 415.73,-311.68"/>
</a>
</g>
</g>
<!-- Node4 -->
<g id="Node000004" class="node">
<title>Node4</title>
<g id="a_Node000004"><a xlink:href="namespaceLGE_1_1LxFile.html#a11e62876b312a11b881b484bb3a5ee71" target="_top" xlink:title=" ">
<polygon fill="white" stroke="#666666" points="683.5,-462 582,-462 582,-442 683.5,-442 683.5,-462"/>
<text xml:space="preserve" text-anchor="middle" x="632.75" y="-448.5" font-family="Helvetica,sans-Serif" font-size="10.00">LGE::LxFile::Exists</text>
</a>
</g>
</g>
<!-- Node2&#45;&gt;Node4 -->
<g id="edge18_Node000002_Node000004" class="edge">
<title>Node2&#45;&gt;Node4</title>
<g id="a_edge18_Node000002_Node000004"><a xlink:title=" ">
<path fill="none" stroke="#63b8ff" d="M272.4,-184.27C282.63,-214.84 316.89,-306.24 375.5,-357 431.37,-405.38 514.12,-430.06 570.36,-441.97"/>
<polygon fill="#63b8ff" stroke="#63b8ff" points="569.6,-445.38 580.1,-443.95 571,-438.53 569.6,-445.38"/>
</a>
</g>
</g>
<!-- Node10 -->
<g id="Node000010" class="node">
<title>Node10</title>
<g id="a_Node000010"><a xlink:href="classLGE_1_1Log.html#ab0265ee050b8873a2fd31fbdb696ced0" target="_top" xlink:title=" ">
<polygon fill="white" stroke="#666666" points="672.62,-260 592.88,-260 592.88,-240 672.62,-240 672.62,-260"/>
<text xml:space="preserve" text-anchor="middle" x="632.75" y="-246.5" font-family="Helvetica,sans-Serif" font-size="10.00">LGE::Log::Info</text>
</a>
</g>
</g>
<!-- Node2&#45;&gt;Node10 -->
<g id="edge26_Node000002_Node000010" class="edge">
<title>Node2&#45;&gt;Node10</title>
<g id="a_edge26_Node000002_Node000010"><a xlink:title=" ">
<path fill="none" stroke="#63b8ff" d="M280.46,-184.45C298.79,-200.59 336.82,-230.98 375.5,-243 444.25,-264.37 528.43,-261.53 581.09,-256.54"/>
<polygon fill="#63b8ff" stroke="#63b8ff" points="581.38,-260.03 590.97,-255.53 580.67,-253.06 581.38,-260.03"/>
</a>
</g>
</g>
<!-- Node12 -->
<g id="Node000012" class="node">
<title>Node12</title>
<g id="a_Node000012"><a xlink:href="namespaceLGE_1_1LxFile.html#a7a3f0b3462a34877039001eb0aaac788" target="_top" xlink:title=" ">
<polygon fill="white" stroke="#666666" points="523.12,-146 380.38,-146 380.38,-126 523.12,-126 523.12,-146"/>
<text xml:space="preserve" text-anchor="middle" x="451.75" y="-132.5" font-family="Helvetica,sans-Serif" font-size="10.00">LGE::LxFile::CreateDirectory</text>
</a>
</g>
</g>
<!-- Node2&#45;&gt;Node12 -->
<g id="edge12_Node000002_Node000012" class="edge">
<title>Node2&#45;&gt;Node12</title>
<g id="a_edge12_Node000002_Node000012"><a xlink:title=" ">
<path fill="none" stroke="#63b8ff" d="M319.24,-163.52C341.07,-158.95 366.87,-153.55 389.8,-148.75"/>
<polygon fill="#63b8ff" stroke="#63b8ff" points="390.25,-152.23 399.32,-146.76 388.82,-145.38 390.25,-152.23"/>
</a>
</g>
</g>
<!-- Node15 -->
<g id="Node000015" class="node">
<title>Node15</title>
<g id="a_Node000015"><a xlink:href="namespaceLGE_1_1AssetRegistry.html#ac9aa62a1e0c929e88bec00618b489988" target="_top" xlink:title=" ">
<polygon fill="white" stroke="#666666" points="503.62,-108 399.88,-108 399.88,-76 503.62,-76 503.62,-108"/>
<text xml:space="preserve" text-anchor="start" x="407.88" y="-94.5" font-family="Helvetica,sans-Serif" font-size="10.00">LGE::AssetRegistry</text>
<text xml:space="preserve" text-anchor="middle" x="451.75" y="-82.5" font-family="Helvetica,sans-Serif" font-size="10.00">::GetAllAssets</text>
</a>
</g>
</g>
<!-- Node2&#45;&gt;Node15 -->
<g id="edge19_Node000002_Node000015" class="edge">
<title>Node2&#45;&gt;Node15</title>
<g id="a_edge19_Node000002_Node000015"><a xlink:title=" ">
<path fill="none" stroke="#63b8ff" d="M320.83,-163.59C327.35,-161.27 333.74,-158.44 339.5,-155 359.48,-143.08 355.87,-129.49 375.5,-117 379.73,-114.31 384.28,-111.88 388.97,-109.69"/>
<polygon fill="#63b8ff" stroke="#63b8ff" points="390.17,-112.98 398.01,-105.86 387.44,-106.53 390.17,-112.98"/>
</a>
</g>
</g>
<!-- Node16 -->
<g id="Node000016" class="node">
<title>Node16</title>
<g id="a_Node000016"><a xlink:href="namespaceLGE_1_1Validation.html#a46e1902a0c3b1c2317095688b8aa647b" target="_top" xlink:title=" ">
<polygon fill="white" stroke="#666666" points="528,-58 375.5,-58 375.5,-38 528,-38 528,-58"/>
<text xml:space="preserve" text-anchor="middle" x="451.75" y="-44.5" font-family="Helvetica,sans-Serif" font-size="10.00">LGE::Validation::GetChecksum</text>
</a>
</g>
</g>
<!-- Node2&#45;&gt;Node16 -->
<g id="edge20_Node000002_Node000016" class="edge">
<title>Node2&#45;&gt;Node16</title>
<g id="a_edge20_Node000002_Node000016"><a xlink:title=" ">
<path fill="none" stroke="#63b8ff" d="M326.43,-163.57C331.16,-161.25 335.61,-158.43 339.5,-155 371.18,-127.04 343.59,-94.7 375.5,-67 376.62,-66.03 377.77,-65.11 378.97,-64.24"/>
<polygon fill="#63b8ff" stroke="#63b8ff" points="380.67,-67.3 387.46,-59.16 377.08,-61.29 380.67,-67.3"/>
</a>
</g>
</g>
<!-- Node17 -->
<g id="Node000017" class="node">
<title>Node17</title>
<g id="a_Node000017"><a xlink:href="namespaceLGE_1_1Compression.html#a5cb00aa30da7aad66c9fcf19d8ba51e5" target="_top" xlink:title=" ">
<polygon fill="white" stroke="#666666" points="527.62,-234 375.88,-234 375.88,-202 527.62,-202 527.62,-234"/>
<text xml:space="preserve" text-anchor="start" x="383.88" y="-220.5" font-family="Helvetica,sans-Serif" font-size="10.00">LGE::Compression::GetFormat</text>
<text xml:space="preserve" text-anchor="middle" x="451.75" y="-208.5" font-family="Helvetica,sans-Serif" font-size="10.00">FromExtension</text>
</a>
</g>
</g>
<!-- Node2&#45;&gt;Node17 -->
<g id="edge21_Node000002_Node000017" class="edge">
<title>Node2&#45;&gt;Node17</title>
<g id="a_edge21_Node000002_Node000017"><a xlink:title=" ">
<path fill="none" stroke="#63b8ff" d="M312.17,-184.43C330.04,-188.76 351.36,-193.92 371.86,-198.89"/>
<polygon fill="#63b8ff" stroke="#63b8ff" points="370.8,-202.23 381.34,-201.18 372.45,-195.43 370.8,-202.23"/>
</a>
</g>
</g>
<!-- Node19 -->
<g id="Node000019" class="node">
<title>Node19</title>
<g id="a_Node000019"><a xlink:href="namespaceLGE_1_1LxPath.html#aefae4d45f84718077f5218f64d2f074c" target="_top" xlink:title=" ">
<polygon fill="white" stroke="#666666" points="865.62,-222 743.12,-222 743.12,-202 865.62,-202 865.62,-222"/>
<text xml:space="preserve" text-anchor="middle" x="804.38" y="-208.5" font-family="Helvetica,sans-Serif" font-size="10.00">LGE::LxPath::GetParent</text>
</a>
</g>
</g>
<!-- Node2&#45;&gt;Node19 -->
<g id="edge24_Node000002_Node000019" class="edge">
<title>Node2&#45;&gt;Node19</title>
<g id="a_edge24_Node000002_Node000019"><a xlink:title=" ">
<path fill="none" stroke="#63b8ff" d="M339.76,-174.07C425.57,-174.85 574.6,-178.45 701.5,-193 715.32,-194.58 730.09,-196.95 743.97,-199.47"/>
<polygon fill="#63b8ff" stroke="#63b8ff" points="742.91,-202.83 753.39,-201.24 744.21,-195.95 742.91,-202.83"/>
</a>
</g>
</g>
<!-- Node20 -->
<g id="Node000020" class="node">
<title>Node20</title>
<g id="a_Node000020"><a xlink:href="namespaceLGE_1_1MetaDB.html#ac399a4083a7e189046618cbf3142dbbe" target="_top" xlink:title=" ">
<polygon fill="white" stroke="#666666" points="521.62,-20 381.88,-20 381.88,0 521.62,0 521.62,-20"/>
<text xml:space="preserve" text-anchor="middle" x="451.75" y="-6.5" font-family="Helvetica,sans-Serif" font-size="10.00">LGE::MetaDB::MetaPathFor</text>
</a>
</g>
</g>
<!-- Node2&#45;&gt;Node20 -->
<g id="edge27_Node000002_Node000020" class="edge">
<title>Node2&#45;&gt;Node20</title>
<g id="a_edge27_Node000002_Node000020"><a xlink:title=" ">
<path fill="none" stroke="#63b8ff" d="M327.52,-163.66C331.91,-161.31 335.98,-158.46 339.5,-155 380.98,-114.12 333.68,-69.54 375.5,-29 376.26,-28.26 377.05,-27.55 377.86,-26.87"/>
<polygon fill="#63b8ff" stroke="#63b8ff" points="379.69,-29.85 386.01,-21.35 375.77,-24.05 379.69,-29.85"/>
</a>
</g>
</g>
<!-- Node3&#45;&gt;Node4 -->
<g id="edge3_Node000003_Node000004" class="edge">
<title>Node3&#45;&gt;Node4</title>
<g id="a_edge3_Node000003_Node000004"><a xlink:title=" ">
<path fill="none" stroke="#63b8ff" d="M471.03,-348.45C486.29,-362.2 508.6,-382.34 528,-400 544.05,-414.61 545.03,-422.45 564,-433 566.85,-434.59 569.85,-436.05 572.92,-437.4"/>
<polygon fill="#63b8ff" stroke="#63b8ff" points="571.61,-440.64 582.2,-441 574.14,-434.12 571.61,-440.64"/>
</a>
</g>
</g>
<!-- Node5 -->
<g id="Node000005" class="node">
<title>Node5</title>
<g id="a_Node000005"><a xlink:href="namespaceLGE_1_1Compression.html#a7d42ab993dbaa3b8a82b82e5d0d6ea8a" target="_top" xlink:title=" ">
<polygon fill="white" stroke="#666666" points="700.75,-348 564.75,-348 564.75,-316 700.75,-316 700.75,-348"/>
<text xml:space="preserve" text-anchor="start" x="572.75" y="-334.5" font-family="Helvetica,sans-Serif" font-size="10.00">LGE::Compression::Format</text>
<text xml:space="preserve" text-anchor="middle" x="632.75" y="-322.5" font-family="Helvetica,sans-Serif" font-size="10.00">ToString</text>
</a>
</g>
</g>
<!-- Node3&#45;&gt;Node5 -->
<g id="edge4_Node000003_Node000005" class="edge">
<title>Node3&#45;&gt;Node5</title>
<g id="a_edge4_Node000003_Node000005"><a xlink:title=" ">
<path fill="none" stroke="#63b8ff" d="M527.37,-332C535.81,-332 544.43,-332 552.92,-332"/>
<polygon fill="#63b8ff" stroke="#63b8ff" points="552.88,-335.5 562.88,-332 552.88,-328.5 552.88,-335.5"/>
</a>
</g>
</g>
<!-- Node6 -->
<g id="Node000006" class="node">
<title>Node6</title>
<g id="a_Node000006"><a xlink:href="namespaceLGE_1_1LxPath.html#a282200340a7ec214f14f5d64e9e41396" target="_top" xlink:title=" ">
<polygon fill="white" stroke="#666666" points="871.25,-260 737.5,-260 737.5,-240 871.25,-240 871.25,-260"/>
<text xml:space="preserve" text-anchor="middle" x="804.38" y="-246.5" font-family="Helvetica,sans-Serif" font-size="10.00">LGE::LxPath::GetFilename</text>
</a>
</g>
</g>
<!-- Node3&#45;&gt;Node6 -->
<g id="edge5_Node000003_Node000006" class="edge">
<title>Node3&#45;&gt;Node6</title>
<g id="a_edge5_Node000003_Node000006"><a xlink:title=" ">
<path fill="none" stroke="#63b8ff" d="M523.28,-315.5C589.36,-300.05 686.81,-277.26 747.62,-263.04"/>
<polygon fill="#63b8ff" stroke="#63b8ff" points="748.11,-266.52 757.05,-260.83 746.52,-259.7 748.11,-266.52"/>
</a>
</g>
</g>
<!-- Node9 -->
<g id="Node000009" class="node">
<title>Node9</title>
<g id="a_Node000009"><a xlink:href="namespaceLGE_1_1LxFile.html#a40751ea42c228d8e2c6f6b0788e24aa7" target="_top" xlink:title=" ">
<polygon fill="white" stroke="#666666" points="695.12,-424 570.38,-424 570.38,-404 695.12,-404 695.12,-424"/>
<text xml:space="preserve" text-anchor="middle" x="632.75" y="-410.5" font-family="Helvetica,sans-Serif" font-size="10.00">LGE::LxFile::GetFileSize</text>
</a>
</g>
</g>
<!-- Node3&#45;&gt;Node9 -->
<g id="edge8_Node000003_Node000009" class="edge">
<title>Node3&#45;&gt;Node9</title>
<g id="a_edge8_Node000003_Node000009"><a xlink:title=" ">
<path fill="none" stroke="#63b8ff" d="M481.49,-348.4C503.64,-360.7 535.24,-377.48 564,-390 571.88,-393.43 580.41,-396.75 588.69,-399.77"/>
<polygon fill="#63b8ff" stroke="#63b8ff" points="587.32,-403 597.91,-403.05 589.66,-396.4 587.32,-403"/>
</a>
</g>
</g>
<!-- Node3&#45;&gt;Node10 -->
<g id="edge9_Node000003_Node000010" class="edge">
<title>Node3&#45;&gt;Node10</title>
<g id="a_edge9_Node000003_Node000010"><a xlink:title=" ">
<path fill="none" stroke="#63b8ff" d="M481.49,-315.6C503.64,-303.3 535.24,-286.52 564,-274 571.88,-270.57 580.41,-267.25 588.69,-264.23"/>
<polygon fill="#63b8ff" stroke="#63b8ff" points="589.66,-267.6 597.91,-260.95 587.32,-261 589.66,-267.6"/>
</a>
</g>
</g>
<!-- Node11 -->
<g id="Node000011" class="node">
<title>Node11</title>
<g id="a_Node000011"><a xlink:href="namespaceLGE_1_1LxFile.html#ac0a61f0e1f49fdcf553f007750c1ba37" target="_top" xlink:title=" ">
<polygon fill="white" stroke="#666666" points="1022.62,-313 914.38,-313 914.38,-293 1022.62,-293 1022.62,-313"/>
<text xml:space="preserve" text-anchor="middle" x="968.5" y="-299.5" font-family="Helvetica,sans-Serif" font-size="10.00">LGE::LxFile::ReadAll</text>
</a>
</g>
</g>
<!-- Node3&#45;&gt;Node11 -->
<g id="edge10_Node000003_Node000011" class="edge">
<title>Node3&#45;&gt;Node11</title>
<g id="a_edge10_Node000003_Node000011"><a xlink:title=" ">
<path fill="none" stroke="#63b8ff" d="M514.71,-348.47C530.65,-352 547.87,-355.21 564,-357 693.96,-371.42 846.81,-336.8 921.6,-316.48"/>
<polygon fill="#63b8ff" stroke="#63b8ff" points="922.32,-319.92 931.02,-313.88 920.45,-313.17 922.32,-319.92"/>
</a>
</g>
</g>
<!-- Node7 -->
<g id="Node000007" class="node">
<title>Node7</title>
<g id="a_Node000007"><a xlink:href="namespaceLGE_1_1LxPath.html#a314a60ce690c90f4ee0b4e64c0199408" target="_top" xlink:title=" ">
<polygon fill="white" stroke="#666666" points="1029.75,-203 907.25,-203 907.25,-183 1029.75,-183 1029.75,-203"/>
<text xml:space="preserve" text-anchor="middle" x="968.5" y="-189.5" font-family="Helvetica,sans-Serif" font-size="10.00">LGE::LxPath::Normalize</text>
</a>
</g>
</g>
<!-- Node6&#45;&gt;Node7 -->
<g id="edge6_Node000006_Node000007" class="edge">
<title>Node6&#45;&gt;Node7</title>
<g id="a_edge6_Node000006_Node000007"><a xlink:title=" ">
<path fill="none" stroke="#63b8ff" d="M843.88,-239.56C852.91,-236.93 862.46,-233.99 871.25,-231 891.67,-224.04 914.11,-215.25 932.18,-207.88"/>
<polygon fill="#63b8ff" stroke="#63b8ff" points="933.5,-211.12 941.41,-204.07 930.83,-204.65 933.5,-211.12"/>
</a>
</g>
</g>
<!-- Node8 -->
<g id="Node000008" class="node">
<title>Node8</title>
<g id="a_Node000008"><a xlink:href="classLGE_1_1Log.html#a53f3f4b8797ffd18145739c9e66d690a" target="_top" xlink:title=" ">
<polygon fill="white" stroke="#666666" points="1150,-203 1065.75,-203 1065.75,-183 1150,-183 1150,-203"/>
<text xml:space="preserve" text-anchor="middle" x="1107.88" y="-189.5" font-family="Helvetica,sans-Serif" font-size="10.00">LGE::Log::Error</text>
</a>
</g>
</g>
<!-- Node7&#45;&gt;Node8 -->
<g id="edge7_Node000007_Node000008" class="edge">
<title>Node7&#45;&gt;Node8</title>
<g id="a_edge7_Node000007_Node000008"><a xlink:title=" ">
<path fill="none" stroke="#63b8ff" d="M1030.15,-193C1038.17,-193 1046.34,-193 1054.2,-193"/>
<polygon fill="#63b8ff" stroke="#63b8ff" points="1053.95,-196.5 1063.95,-193 1053.95,-189.5 1053.95,-196.5"/>
</a>
</g>
</g>
<!-- Node11&#45;&gt;Node8 -->
<g id="edge11_Node000011_Node000008" class="edge">
<title>Node11&#45;&gt;Node8</title>
<g id="a_edge11_Node000011_Node000008"><a xlink:title=" ">
<path fill="none" stroke="#63b8ff" d="M982.42,-292.65C1005.95,-273.82 1055.99,-233.74 1084.94,-210.56"/>
<polygon fill="#63b8ff" stroke="#63b8ff" points="1087.09,-213.33 1092.7,-204.35 1082.71,-207.87 1087.09,-213.33"/>
</a>
</g>
</g>
<!-- Node12&#45;&gt;Node8 -->
<g id="edge13_Node000012_Node000008" class="edge">
<title>Node12&#45;&gt;Node8</title>
<g id="a_edge13_Node000012_Node000008"><a xlink:title=" ">
<path fill="none" stroke="#63b8ff" d="M503.19,-125.53C522.17,-122.08 543.99,-118.7 564,-117 700.28,-105.45 736.52,-110.51 871.25,-134 938.17,-145.67 1014.17,-166.01 1061.32,-179.49"/>
<polygon fill="#63b8ff" stroke="#63b8ff" points="1060.05,-182.77 1070.63,-182.18 1061.99,-176.04 1060.05,-182.77"/>
</a>
</g>
</g>
<!-- Node13 -->
<g id="Node000013" class="node">
<title>Node13</title>
<g id="a_Node000013"><a xlink:href="namespaceLGE_1_1VFS.html#abb5d35abfe80efe2f7a07394ad5b706a" target="_top" xlink:title=" ">
<polygon fill="white" stroke="#666666" points="692.12,-146 573.38,-146 573.38,-126 692.12,-126 692.12,-146"/>
<text xml:space="preserve" text-anchor="middle" x="632.75" y="-132.5" font-family="Helvetica,sans-Serif" font-size="10.00">LGE::VFS::IsReadOnly</text>
</a>
</g>
</g>
<!-- Node12&#45;&gt;Node13 -->
<g id="edge14_Node000012_Node000013" class="edge">
<title>Node12&#45;&gt;Node13</title>
<g id="a_edge14_Node000012_Node000013"><a xlink:title=" ">
<path fill="none" stroke="#63b8ff" d="M523.5,-136C536.07,-136 549.15,-136 561.7,-136"/>
<polygon fill="#63b8ff" stroke="#63b8ff" points="561.53,-139.5 571.53,-136 561.53,-132.5 561.53,-139.5"/>
</a>
</g>
</g>
<!-- Node13&#45;&gt;Node7 -->
<g id="edge17_Node000013_Node000007" class="edge">
<title>Node13&#45;&gt;Node7</title>
<g id="a_edge17_Node000013_Node000007"><a xlink:title=" ">
<path fill="none" stroke="#63b8ff" d="M692.56,-135.89C741.08,-136.95 811.41,-141.12 871.25,-155 893.53,-160.17 917.45,-169.59 935.87,-177.76"/>
<polygon fill="#63b8ff" stroke="#63b8ff" points="934.37,-180.92 944.92,-181.88 937.27,-174.55 934.37,-180.92"/>
</a>
</g>
</g>
<!-- Node14 -->
<g id="Node000014" class="node">
<title>Node14</title>
<g id="a_Node000014"><a xlink:href="namespaceLGE_1_1LxPath.html#ab664986e94ce09aa029f9eb2fcf50133" target="_top" xlink:title=" ">
<polygon fill="white" stroke="#666666" points="866.38,-184 742.38,-184 742.38,-164 866.38,-164 866.38,-184"/>
<text xml:space="preserve" text-anchor="middle" x="804.38" y="-170.5" font-family="Helvetica,sans-Serif" font-size="10.00">LGE::LxPath::IsSubPath</text>
</a>
</g>
</g>
<!-- Node13&#45;&gt;Node14 -->
<g id="edge15_Node000013_Node000014" class="edge">
<title>Node13&#45;&gt;Node14</title>
<g id="a_edge15_Node000013_Node000014"><a xlink:title=" ">
<path fill="none" stroke="#63b8ff" d="M680.55,-146.48C700.67,-150.99 724.38,-156.3 745.58,-161.05"/>
<polygon fill="#63b8ff" stroke="#63b8ff" points="744.73,-164.45 755.25,-163.22 746.26,-157.62 744.73,-164.45"/>
</a>
</g>
</g>
<!-- Node14&#45;&gt;Node7 -->
<g id="edge16_Node000014_Node000007" class="edge">
<title>Node14&#45;&gt;Node7</title>
<g id="a_edge16_Node000014_Node000007"><a xlink:title=" ">
<path fill="none" stroke="#63b8ff" d="M866.67,-181.18C876.14,-182.29 886,-183.45 895.68,-184.58"/>
<polygon fill="#63b8ff" stroke="#63b8ff" points="895.08,-188.04 905.42,-185.73 895.9,-181.08 895.08,-188.04"/>
</a>
</g>
</g>
<!-- Node18 -->
<g id="Node000018" class="node">
<title>Node18</title>
<g id="a_Node000018"><a xlink:href="namespaceLGE_1_1LxPath.html#a442709c353add1504cfb1d9d496f3014" target="_top" xlink:title=" ">
<polygon fill="white" stroke="#666666" points="701.5,-222 564,-222 564,-202 701.5,-202 701.5,-222"/>
<text xml:space="preserve" text-anchor="middle" x="632.75" y="-208.5" font-family="Helvetica,sans-Serif" font-size="10.00">LGE::LxPath::GetExtension</text>
</a>
</g>
</g>
<!-- Node17&#45;&gt;Node18 -->
<g id="edge22_Node000017_Node000018" class="edge">
<title>Node17&#45;&gt;Node18</title>
<g id="a_edge22_Node000017_Node000018"><a xlink:title=" ">
<path fill="none" stroke="#63b8ff" d="M527.88,-215.48C535.95,-215.21 544.17,-214.94 552.28,-214.66"/>
<polygon fill="#63b8ff" stroke="#63b8ff" points="552.26,-218.17 562.14,-214.33 552.02,-211.17 552.26,-218.17"/>
</a>
</g>
</g>
<!-- Node18&#45;&gt;Node6 -->
<g id="edge23_Node000018_Node000006" class="edge">
<title>Node18&#45;&gt;Node6</title>
<g id="a_edge23_Node000018_Node000006"><a xlink:title=" ">
<path fill="none" stroke="#63b8ff" d="M680.55,-222.48C700.67,-226.99 724.38,-232.3 745.58,-237.05"/>
<polygon fill="#63b8ff" stroke="#63b8ff" points="744.73,-240.45 755.25,-239.22 746.26,-233.62 744.73,-240.45"/>
</a>
</g>
</g>
<!-- Node19&#45;&gt;Node7 -->
<g id="edge25_Node000019_Node000007" class="edge">
<title>Node19&#45;&gt;Node7</title>
<g id="a_edge25_Node000019_Node000007"><a xlink:title=" ">
<path fill="none" stroke="#63b8ff" d="M865.74,-204.93C875.49,-203.78 885.66,-202.59 895.65,-201.42"/>
<polygon fill="#63b8ff" stroke="#63b8ff" points="895.78,-204.93 905.31,-200.29 894.97,-197.98 895.78,-204.93"/>
</a>
</g>
</g>
</g>
</svg>
