<?xml version="1.0" encoding="UTF-8" standalone="no"?>
<!DOCTYPE svg PUBLIC "-//W3C//DTD SVG 1.1//EN"
 "http://www.w3.org/Graphics/SVG/1.1/DTD/svg11.dtd">
<!-- Generated by graphviz version 14.0.2 (20251019.1705)
 -->
<!-- Title: LGE::LxPath::ToAbsolute Pages: 1 -->
<svg width="716pt" height="218pt"
 viewBox="0.00 0.00 716.00 218.00" xmlns="http://www.w3.org/2000/svg" xmlns:xlink="http://www.w3.org/1999/xlink">
<g id="graph0" class="graph" transform="scale(1 1) rotate(0) translate(4 214)">
<title>LGE::LxPath::ToAbsolute</title>
<!-- Node1 -->
<g id="Node000001" class="node">
<title>Node1</title>
<g id="a_Node000001"><a xlink:title=" ">
<polygon fill="#999999" stroke="#666666" points="707.75,-115 580.75,-115 580.75,-95 707.75,-95 707.75,-115"/>
<text xml:space="preserve" text-anchor="middle" x="644.25" y="-101.5" font-family="Helvetica,sans-Serif" font-size="10.00">LGE::LxPath::ToAbsolute</text>
</a>
</g>
</g>
<!-- Node2 -->
<g id="Node000002" class="node">
<title>Node2</title>
<g id="a_Node000002"><a xlink:href="namespaceLGE_1_1FSOps.html#a7dec5f5335c8f592bf2d74d7832654de" target="_top" xlink:title=" ">
<polygon fill="white" stroke="#666666" points="535.38,-210 428.62,-210 428.62,-190 535.38,-190 535.38,-210"/>
<text xml:space="preserve" text-anchor="middle" x="482" y="-196.5" font-family="Helvetica,sans-Serif" font-size="10.00">LGE::FSOps::Delete</text>
</a>
</g>
</g>
<!-- Node1&#45;&gt;Node2 -->
<g id="edge1_Node000001_Node000002" class="edge">
<title>Node1&#45;&gt;Node2</title>
<g id="a_edge1_Node000001_Node000002"><a xlink:title=" ">
<path fill="none" stroke="#63b8ff" d="M624.37,-122.95C605.52,-139.99 575.08,-165.29 544.75,-181 538.38,-184.3 531.33,-187.14 524.34,-189.54"/>
<polygon fill="#63b8ff" stroke="#63b8ff" points="626.54,-125.7 631.52,-116.34 621.8,-120.55 626.54,-125.7"/>
</a>
</g>
</g>
<!-- Node3 -->
<g id="Node000003" class="node">
<title>Node3</title>
<g id="a_Node000003"><a xlink:href="namespaceLGE_1_1FSOps.html#a7c3c8bb77f4634c4667e4896b11d66ad" target="_top" xlink:title=" ">
<polygon fill="white" stroke="#666666" points="542.88,-172 421.12,-172 421.12,-152 542.88,-152 542.88,-172"/>
<text xml:space="preserve" text-anchor="middle" x="482" y="-158.5" font-family="Helvetica,sans-Serif" font-size="10.00">LGE::FSOps::ImportFile</text>
</a>
</g>
</g>
<!-- Node1&#45;&gt;Node3 -->
<g id="edge2_Node000001_Node000003" class="edge">
<title>Node1&#45;&gt;Node3</title>
<g id="a_edge2_Node000001_Node000003"><a xlink:title=" ">
<path fill="none" stroke="#63b8ff" d="M606.9,-119.72C588.4,-127.03 565.5,-135.81 544.75,-143 536.27,-145.94 527.06,-148.89 518.4,-151.57"/>
<polygon fill="#63b8ff" stroke="#63b8ff" points="608.11,-123.01 616.1,-116.06 605.52,-116.5 608.11,-123.01"/>
</a>
</g>
</g>
<!-- Node7 -->
<g id="Node000007" class="node">
<title>Node7</title>
<g id="a_Node000007"><a xlink:href="namespaceLGE_1_1FSOps.html#a8d90a8bd4f3c45deff002d5c191bf872" target="_top" xlink:title=" ">
<polygon fill="white" stroke="#666666" points="533.12,-134 430.88,-134 430.88,-114 533.12,-114 533.12,-134"/>
<text xml:space="preserve" text-anchor="middle" x="482" y="-120.5" font-family="Helvetica,sans-Serif" font-size="10.00">LGE::FSOps::Move</text>
</a>
</g>
</g>
<!-- Node1&#45;&gt;Node7 -->
<g id="edge6_Node000001_Node000007" class="edge">
<title>Node1&#45;&gt;Node7</title>
<g id="a_edge6_Node000001_Node000007"><a xlink:title=" ">
<path fill="none" stroke="#63b8ff" d="M568.97,-113.81C556.99,-115.23 544.83,-116.67 533.58,-118"/>
<polygon fill="#63b8ff" stroke="#63b8ff" points="569.35,-117.29 578.87,-112.63 568.53,-110.33 569.35,-117.29"/>
</a>
</g>
</g>
<!-- Node8 -->
<g id="Node000008" class="node">
<title>Node8</title>
<g id="a_Node000008"><a xlink:href="namespaceLGE_1_1FSOps.html#af18c06e20bfe14f2a2de43ea8bddefc1" target="_top" xlink:title=" ">
<polygon fill="white" stroke="#666666" points="544,-96 420,-96 420,-76 544,-76 544,-96"/>
<text xml:space="preserve" text-anchor="middle" x="482" y="-82.5" font-family="Helvetica,sans-Serif" font-size="10.00">LGE::FSOps::NewAsset</text>
</a>
</g>
</g>
<!-- Node1&#45;&gt;Node8 -->
<g id="edge7_Node000001_Node000008" class="edge">
<title>Node1&#45;&gt;Node8</title>
<g id="a_edge7_Node000001_Node000008"><a xlink:title=" ">
<path fill="none" stroke="#63b8ff" d="M569.16,-96.22C560.87,-95.23 552.49,-94.24 544.38,-93.28"/>
<polygon fill="#63b8ff" stroke="#63b8ff" points="568.53,-99.67 578.87,-97.37 569.35,-92.71 568.53,-99.67"/>
</a>
</g>
</g>
<!-- Node9 -->
<g id="Node000009" class="node">
<title>Node9</title>
<g id="a_Node000009"><a xlink:href="namespaceLGE_1_1FSOps.html#a7f1957de8291a7a7d914feb628c6a85b" target="_top" xlink:title=" ">
<polygon fill="white" stroke="#666666" points="544.75,-58 419.25,-58 419.25,-38 544.75,-38 544.75,-58"/>
<text xml:space="preserve" text-anchor="middle" x="482" y="-44.5" font-family="Helvetica,sans-Serif" font-size="10.00">LGE::FSOps::NewFolder</text>
</a>
</g>
</g>
<!-- Node1&#45;&gt;Node9 -->
<g id="edge8_Node000001_Node000009" class="edge">
<title>Node1&#45;&gt;Node9</title>
<g id="a_edge8_Node000001_Node000009"><a xlink:title=" ">
<path fill="none" stroke="#63b8ff" d="M606.9,-90.28C588.4,-82.97 565.5,-74.19 544.75,-67 536.27,-64.06 527.06,-61.11 518.4,-58.43"/>
<polygon fill="#63b8ff" stroke="#63b8ff" points="605.52,-93.5 616.1,-93.94 608.11,-86.99 605.52,-93.5"/>
</a>
</g>
</g>
<!-- Node10 -->
<g id="Node000010" class="node">
<title>Node10</title>
<g id="a_Node000010"><a xlink:href="namespaceLGE_1_1FSOps.html#a73a5f7725534ee44eab8e17badf96f9f" target="_top" xlink:title=" ">
<polygon fill="white" stroke="#666666" points="539.5,-20 424.5,-20 424.5,0 539.5,0 539.5,-20"/>
<text xml:space="preserve" text-anchor="middle" x="482" y="-6.5" font-family="Helvetica,sans-Serif" font-size="10.00">LGE::FSOps::Rename</text>
</a>
</g>
</g>
<!-- Node1&#45;&gt;Node10 -->
<g id="edge9_Node000001_Node000010" class="edge">
<title>Node1&#45;&gt;Node10</title>
<g id="a_edge9_Node000001_Node000010"><a xlink:title=" ">
<path fill="none" stroke="#63b8ff" d="M624.37,-87.05C605.52,-70.01 575.08,-44.71 544.75,-29 538.38,-25.7 531.33,-22.86 524.34,-20.46"/>
<polygon fill="#63b8ff" stroke="#63b8ff" points="621.8,-89.45 631.52,-93.66 626.54,-84.3 621.8,-89.45"/>
</a>
</g>
</g>
<!-- Node4 -->
<g id="Node000004" class="node">
<title>Node4</title>
<g id="a_Node000004"><a xlink:href="namespaceLGE_1_1ImportExport.html#af78ec4a5e430226c5054a220cedc76b1" target="_top" xlink:title=" ">
<polygon fill="white" stroke="#666666" points="383.25,-178 279.5,-178 279.5,-146 383.25,-146 383.25,-178"/>
<text xml:space="preserve" text-anchor="start" x="287.5" y="-164.5" font-family="Helvetica,sans-Serif" font-size="10.00">LGE::ImportExport::</text>
<text xml:space="preserve" text-anchor="middle" x="331.38" y="-152.5" font-family="Helvetica,sans-Serif" font-size="10.00">ImportFile</text>
</a>
</g>
</g>
<!-- Node3&#45;&gt;Node4 -->
<g id="edge3_Node000003_Node000004" class="edge">
<title>Node3&#45;&gt;Node4</title>
<g id="a_edge3_Node000003_Node000004"><a xlink:title=" ">
<path fill="none" stroke="#63b8ff" d="M409.52,-162C400.76,-162 391.94,-162 383.55,-162"/>
<polygon fill="#63b8ff" stroke="#63b8ff" points="409.46,-165.5 419.46,-162 409.46,-158.5 409.46,-165.5"/>
</a>
</g>
</g>
<!-- Node5 -->
<g id="Node000005" class="node">
<title>Node5</title>
<g id="a_Node000005"><a xlink:href="namespaceLGE_1_1ImportExport.html#ae8496d7d19ac15289295442d11349580" target="_top" xlink:title=" ">
<polygon fill="white" stroke="#666666" points="243.5,-178 139.75,-178 139.75,-146 243.5,-146 243.5,-178"/>
<text xml:space="preserve" text-anchor="start" x="147.75" y="-164.5" font-family="Helvetica,sans-Serif" font-size="10.00">LGE::ImportExport::</text>
<text xml:space="preserve" text-anchor="middle" x="191.62" y="-152.5" font-family="Helvetica,sans-Serif" font-size="10.00">ImportFiles</text>
</a>
</g>
</g>
<!-- Node4&#45;&gt;Node5 -->
<g id="edge4_Node000004_Node000005" class="edge">
<title>Node4&#45;&gt;Node5</title>
<g id="a_edge4_Node000004_Node000005"><a xlink:title=" ">
<path fill="none" stroke="#63b8ff" d="M267.61,-162C259.7,-162 251.67,-162 243.96,-162"/>
<polygon fill="#63b8ff" stroke="#63b8ff" points="267.57,-165.5 277.57,-162 267.57,-158.5 267.57,-165.5"/>
</a>
</g>
</g>
<!-- Node6 -->
<g id="Node000006" class="node">
<title>Node6</title>
<g id="a_Node000006"><a xlink:href="namespaceLGE_1_1ImportExport.html#a8220fcef46f5c3ab8c10c64fd5860668" target="_top" xlink:title=" ">
<polygon fill="white" stroke="#666666" points="103.75,-178 0,-178 0,-146 103.75,-146 103.75,-178"/>
<text xml:space="preserve" text-anchor="start" x="8" y="-164.5" font-family="Helvetica,sans-Serif" font-size="10.00">LGE::ImportExport::</text>
<text xml:space="preserve" text-anchor="middle" x="51.88" y="-152.5" font-family="Helvetica,sans-Serif" font-size="10.00">ImportDirectory</text>
</a>
</g>
</g>
<!-- Node5&#45;&gt;Node6 -->
<g id="edge5_Node000005_Node000006" class="edge">
<title>Node5&#45;&gt;Node6</title>
<g id="a_edge5_Node000005_Node000006"><a xlink:title=" ">
<path fill="none" stroke="#63b8ff" d="M127.86,-162C119.95,-162 111.92,-162 104.21,-162"/>
<polygon fill="#63b8ff" stroke="#63b8ff" points="127.82,-165.5 137.82,-162 127.82,-158.5 127.82,-165.5"/>
</a>
</g>
</g>
</g>
</svg>
