<?xml version="1.0" encoding="UTF-8" standalone="no"?>
<!DOCTYPE svg PUBLIC "-//W3C//DTD SVG 1.1//EN"
 "http://www.w3.org/Graphics/SVG/1.1/DTD/svg11.dtd">
<!-- Generated by graphviz version 14.0.2 (20251019.1705)
 -->
<!-- Title: LGE::Thumbs::Exists Pages: 1 -->
<svg width="717pt" height="90pt"
 viewBox="0.00 0.00 717.00 90.00" xmlns="http://www.w3.org/2000/svg" xmlns:xlink="http://www.w3.org/1999/xlink">
<g id="graph0" class="graph" transform="scale(1 1) rotate(0) translate(4 86)">
<title>LGE::Thumbs::Exists</title>
<!-- Node1 -->
<g id="Node000001" class="node">
<title>Node1</title>
<g id="a_Node000001"><a xlink:title=" ">
<polygon fill="#999999" stroke="#666666" points="708.5,-51 598,-51 598,-31 708.5,-31 708.5,-51"/>
<text xml:space="preserve" text-anchor="middle" x="653.25" y="-37.5" font-family="Helvetica,sans-Serif" font-size="10.00">LGE::Thumbs::Exists</text>
</a>
</g>
</g>
<!-- Node2 -->
<g id="Node000002" class="node">
<title>Node2</title>
<g id="a_Node000002"><a xlink:href="namespaceLGE_1_1Thumbs.html#af9db774f4905bcd6eb8b65b89cdd349b" target="_top" xlink:title=" ">
<polygon fill="white" stroke="#666666" points="562,-51 419.25,-51 419.25,-31 562,-31 562,-51"/>
<text xml:space="preserve" text-anchor="middle" x="490.62" y="-37.5" font-family="Helvetica,sans-Serif" font-size="10.00">LGE::Thumbs::EnqueueBuild</text>
</a>
</g>
</g>
<!-- Node1&#45;&gt;Node2 -->
<g id="edge1_Node000001_Node000002" class="edge">
<title>Node1&#45;&gt;Node2</title>
<g id="a_edge1_Node000001_Node000002"><a xlink:title=" ">
<path fill="none" stroke="#63b8ff" d="M586.46,-41C578.55,-41 570.44,-41 562.46,-41"/>
<polygon fill="#63b8ff" stroke="#63b8ff" points="586.36,-44.5 596.36,-41 586.36,-37.5 586.36,-44.5"/>
</a>
</g>
</g>
<!-- Node3 -->
<g id="Node000003" class="node">
<title>Node3</title>
<g id="a_Node000003"><a xlink:href="namespaceLGE_1_1ImportExport.html#af78ec4a5e430226c5054a220cedc76b1" target="_top" xlink:title=" ">
<polygon fill="white" stroke="#666666" points="383.25,-82 279.5,-82 279.5,-50 383.25,-50 383.25,-82"/>
<text xml:space="preserve" text-anchor="start" x="287.5" y="-68.5" font-family="Helvetica,sans-Serif" font-size="10.00">LGE::ImportExport::</text>
<text xml:space="preserve" text-anchor="middle" x="331.38" y="-56.5" font-family="Helvetica,sans-Serif" font-size="10.00">ImportFile</text>
</a>
</g>
</g>
<!-- Node2&#45;&gt;Node3 -->
<g id="edge2_Node000002_Node000003" class="edge">
<title>Node2&#45;&gt;Node3</title>
<g id="a_edge2_Node000002_Node000003"><a xlink:title=" ">
<path fill="none" stroke="#63b8ff" d="M412.72,-53.23C402.82,-54.8 392.88,-56.38 383.54,-57.87"/>
<polygon fill="#63b8ff" stroke="#63b8ff" points="413.03,-56.72 422.35,-51.7 411.93,-49.81 413.03,-56.72"/>
</a>
</g>
</g>
<!-- Node6 -->
<g id="Node000006" class="node">
<title>Node6</title>
<g id="a_Node000006"><a xlink:href="namespaceLGE_1_1ImportExport.html#aa73ba2a6e02f5350668e8a28ecea64c2" target="_top" xlink:title=" ">
<polygon fill="white" stroke="#666666" points="383.25,-32 279.5,-32 279.5,0 383.25,0 383.25,-32"/>
<text xml:space="preserve" text-anchor="start" x="287.5" y="-18.5" font-family="Helvetica,sans-Serif" font-size="10.00">LGE::ImportExport::</text>
<text xml:space="preserve" text-anchor="middle" x="331.38" y="-6.5" font-family="Helvetica,sans-Serif" font-size="10.00">ReimportAsset</text>
</a>
</g>
</g>
<!-- Node2&#45;&gt;Node6 -->
<g id="edge5_Node000002_Node000006" class="edge">
<title>Node2&#45;&gt;Node6</title>
<g id="a_edge5_Node000002_Node000006"><a xlink:title=" ">
<path fill="none" stroke="#63b8ff" d="M412.72,-28.77C402.82,-27.2 392.88,-25.62 383.54,-24.13"/>
<polygon fill="#63b8ff" stroke="#63b8ff" points="411.93,-32.19 422.35,-30.3 413.03,-25.28 411.93,-32.19"/>
</a>
</g>
</g>
<!-- Node4 -->
<g id="Node000004" class="node">
<title>Node4</title>
<g id="a_Node000004"><a xlink:href="namespaceLGE_1_1ImportExport.html#ae8496d7d19ac15289295442d11349580" target="_top" xlink:title=" ">
<polygon fill="white" stroke="#666666" points="243.5,-82 139.75,-82 139.75,-50 243.5,-50 243.5,-82"/>
<text xml:space="preserve" text-anchor="start" x="147.75" y="-68.5" font-family="Helvetica,sans-Serif" font-size="10.00">LGE::ImportExport::</text>
<text xml:space="preserve" text-anchor="middle" x="191.62" y="-56.5" font-family="Helvetica,sans-Serif" font-size="10.00">ImportFiles</text>
</a>
</g>
</g>
<!-- Node3&#45;&gt;Node4 -->
<g id="edge3_Node000003_Node000004" class="edge">
<title>Node3&#45;&gt;Node4</title>
<g id="a_edge3_Node000003_Node000004"><a xlink:title=" ">
<path fill="none" stroke="#63b8ff" d="M267.61,-66C259.7,-66 251.67,-66 243.96,-66"/>
<polygon fill="#63b8ff" stroke="#63b8ff" points="267.57,-69.5 277.57,-66 267.57,-62.5 267.57,-69.5"/>
</a>
</g>
</g>
<!-- Node5 -->
<g id="Node000005" class="node">
<title>Node5</title>
<g id="a_Node000005"><a xlink:href="namespaceLGE_1_1ImportExport.html#a8220fcef46f5c3ab8c10c64fd5860668" target="_top" xlink:title=" ">
<polygon fill="white" stroke="#666666" points="103.75,-82 0,-82 0,-50 103.75,-50 103.75,-82"/>
<text xml:space="preserve" text-anchor="start" x="8" y="-68.5" font-family="Helvetica,sans-Serif" font-size="10.00">LGE::ImportExport::</text>
<text xml:space="preserve" text-anchor="middle" x="51.88" y="-56.5" font-family="Helvetica,sans-Serif" font-size="10.00">ImportDirectory</text>
</a>
</g>
</g>
<!-- Node4&#45;&gt;Node5 -->
<g id="edge4_Node000004_Node000005" class="edge">
<title>Node4&#45;&gt;Node5</title>
<g id="a_edge4_Node000004_Node000005"><a xlink:title=" ">
<path fill="none" stroke="#63b8ff" d="M127.86,-66C119.95,-66 111.92,-66 104.21,-66"/>
<polygon fill="#63b8ff" stroke="#63b8ff" points="127.82,-69.5 137.82,-66 127.82,-62.5 127.82,-69.5"/>
</a>
</g>
</g>
</g>
</svg>
