<?xml version="1.0" encoding="UTF-8" standalone="no"?>
<!DOCTYPE svg PUBLIC "-//W3C//DTD SVG 1.1//EN"
 "http://www.w3.org/Graphics/SVG/1.1/DTD/svg11.dtd">
<!-- Generated by graphviz version 14.0.2 (20251019.1705)
 -->
<!-- Title: LGE::Versioning::GetCurrentVersion Pages: 1 -->
<svg width="501pt" height="53pt"
 viewBox="0.00 0.00 501.00 53.00" xmlns="http://www.w3.org/2000/svg" xmlns:xlink="http://www.w3.org/1999/xlink">
<g id="graph0" class="graph" transform="scale(1 1) rotate(0) translate(4 49)">
<title>LGE::Versioning::GetCurrentVersion</title>
<!-- Node1 -->
<g id="Node000001" class="node">
<title>Node1</title>
<g id="a_Node000001"><a xlink:title=" ">
<polygon fill="#999999" stroke="#666666" points="140.5,-45 0,-45 0,-13 140.5,-13 140.5,-45"/>
<text xml:space="preserve" text-anchor="start" x="8" y="-31.5" font-family="Helvetica,sans-Serif" font-size="10.00">LGE::Versioning::GetCurrent</text>
<text xml:space="preserve" text-anchor="middle" x="70.25" y="-19.5" font-family="Helvetica,sans-Serif" font-size="10.00">Version</text>
</a>
</g>
</g>
<!-- Node2 -->
<g id="Node000002" class="node">
<title>Node2</title>
<g id="a_Node000002"><a xlink:href="namespaceLGE_1_1Versioning.html#a5911708ac1014650bae2a5d64a4be527" target="_top" xlink:title=" ">
<polygon fill="white" stroke="#666666" points="492.75,-39 353,-39 353,-19 492.75,-19 492.75,-39"/>
<text xml:space="preserve" text-anchor="middle" x="422.88" y="-25.5" font-family="Helvetica,sans-Serif" font-size="10.00">LGE::Versioning::GetHistory</text>
</a>
</g>
</g>
<!-- Node1&#45;&gt;Node2 -->
<g id="edge1_Node000001_Node000002" class="edge">
<title>Node1&#45;&gt;Node2</title>
<g id="a_edge1_Node000001_Node000002"><a xlink:title=" ">
<path fill="none" stroke="#63b8ff" d="M140.94,-29C198.63,-29 280.66,-29 341.19,-29"/>
<polygon fill="#63b8ff" stroke="#63b8ff" points="341.1,-32.5 351.1,-29 341.1,-25.5 341.1,-32.5"/>
</a>
</g>
</g>
<!-- Node3 -->
<g id="Node000003" class="node">
<title>Node3</title>
<g id="a_Node000003"><a xlink:href="namespaceLGE_1_1Versioning.html#a2b3bdabf3de80322380d4c126e574290" target="_top" xlink:title=" ">
<polygon fill="white" stroke="#666666" points="317,-20 176.5,-20 176.5,0 317,0 317,-20"/>
<text xml:space="preserve" text-anchor="middle" x="246.75" y="-6.5" font-family="Helvetica,sans-Serif" font-size="10.00">LGE::Versioning::GetVersion</text>
</a>
</g>
</g>
<!-- Node1&#45;&gt;Node3 -->
<g id="edge2_Node000001_Node000003" class="edge">
<title>Node1&#45;&gt;Node3</title>
<g id="a_edge2_Node000001_Node000003"><a xlink:title=" ">
<path fill="none" stroke="#63b8ff" d="M140.97,-21.41C148.84,-20.55 156.91,-19.67 164.91,-18.8"/>
<polygon fill="#63b8ff" stroke="#63b8ff" points="165.07,-22.3 174.64,-17.74 164.32,-15.35 165.07,-22.3"/>
</a>
</g>
</g>
<!-- Node3&#45;&gt;Node2 -->
<g id="edge3_Node000003_Node000002" class="edge">
<title>Node3&#45;&gt;Node2</title>
<g id="a_edge3_Node000003_Node000002"><a xlink:title=" ">
<path fill="none" stroke="#63b8ff" d="M317.32,-17.59C325.24,-18.46 333.36,-19.34 341.4,-20.22"/>
<polygon fill="#63b8ff" stroke="#63b8ff" points="340.87,-23.68 351.2,-21.29 341.63,-16.72 340.87,-23.68"/>
</a>
</g>
</g>
</g>
</svg>
