<?xml version="1.0" encoding="UTF-8" standalone="no"?>
<!DOCTYPE svg PUBLIC "-//W3C//DTD SVG 1.1//EN"
 "http://www.w3.org/Graphics/SVG/1.1/DTD/svg11.dtd">
<!-- Generated by graphviz version 14.0.2 (20251019.1705)
 -->
<!-- Title: LGE::Analytics::GetReport Pages: 1 -->
<svg width="510pt" height="119pt"
 viewBox="0.00 0.00 510.00 119.00" xmlns="http://www.w3.org/2000/svg" xmlns:xlink="http://www.w3.org/1999/xlink">
<g id="graph0" class="graph" transform="scale(1 1) rotate(0) translate(4 115.36)">
<title>LGE::Analytics::GetReport</title>
<!-- Node1 -->
<g id="Node000001" class="node">
<title>Node1</title>
<g id="a_Node000001"><a xlink:title=" ">
<polygon fill="#999999" stroke="#666666" points="133,-77 0,-77 0,-57 133,-57 133,-77"/>
<text xml:space="preserve" text-anchor="middle" x="66.5" y="-63.5" font-family="Helvetica,sans-Serif" font-size="10.00">LGE::Analytics::GetReport</text>
</a>
</g>
</g>
<!-- Node2 -->
<g id="Node000002" class="node">
<title>Node2</title>
<g id="a_Node000002"><a xlink:href="namespaceLGE_1_1Analytics.html#ae1e6e06df633fb6399a4606c618ba3de" target="_top" xlink:title=" ">
<polygon fill="white" stroke="#666666" points="501.75,-96 363.5,-96 363.5,-76 501.75,-76 501.75,-96"/>
<text xml:space="preserve" text-anchor="middle" x="432.62" y="-82.5" font-family="Helvetica,sans-Serif" font-size="10.00">LGE::Analytics::GetAllStats</text>
</a>
</g>
</g>
<!-- Node1&#45;&gt;Node2 -->
<g id="edge1_Node000001_Node000002" class="edge">
<title>Node1&#45;&gt;Node2</title>
<g id="a_edge1_Node000001_Node000002"><a xlink:title=" ">
<path fill="none" stroke="#63b8ff" d="M88.64,-77.47C108.74,-86.8 140.12,-99.77 169,-105 238.36,-117.56 319.44,-108.1 372.96,-98.58"/>
<polygon fill="#63b8ff" stroke="#63b8ff" points="373.59,-102.03 382.79,-96.77 372.32,-95.14 373.59,-102.03"/>
</a>
</g>
</g>
<!-- Node3 -->
<g id="Node000003" class="node">
<title>Node3</title>
<g id="a_Node000003"><a xlink:href="namespaceLGE_1_1Analytics.html#ac01bf208b68bb666b625a0f45ee9a77e" target="_top" xlink:title=" ">
<polygon fill="white" stroke="#666666" points="327.5,-96 169,-96 169,-76 327.5,-76 327.5,-96"/>
<text xml:space="preserve" text-anchor="middle" x="248.25" y="-82.5" font-family="Helvetica,sans-Serif" font-size="10.00">LGE::Analytics::TopByLoadTime</text>
</a>
</g>
</g>
<!-- Node1&#45;&gt;Node3 -->
<g id="edge2_Node000001_Node000003" class="edge">
<title>Node1&#45;&gt;Node3</title>
<g id="a_edge2_Node000001_Node000003"><a xlink:title=" ">
<path fill="none" stroke="#63b8ff" d="M133.41,-73.97C141.18,-74.79 149.2,-75.64 157.22,-76.48"/>
<polygon fill="#63b8ff" stroke="#63b8ff" points="156.72,-79.95 167.03,-77.52 157.45,-72.99 156.72,-79.95"/>
</a>
</g>
</g>
<!-- Node4 -->
<g id="Node000004" class="node">
<title>Node4</title>
<g id="a_Node000004"><a xlink:href="namespaceLGE_1_1Analytics.html#a3aae299f8b7bb1fa18ce5b42f81813cf" target="_top" xlink:title=" ">
<polygon fill="white" stroke="#666666" points="315.88,-58 180.62,-58 180.62,-38 315.88,-38 315.88,-58"/>
<text xml:space="preserve" text-anchor="middle" x="248.25" y="-44.5" font-family="Helvetica,sans-Serif" font-size="10.00">LGE::Analytics::TopBySize</text>
</a>
</g>
</g>
<!-- Node1&#45;&gt;Node4 -->
<g id="edge4_Node000001_Node000004" class="edge">
<title>Node1&#45;&gt;Node4</title>
<g id="a_edge4_Node000001_Node000004"><a xlink:title=" ">
<path fill="none" stroke="#63b8ff" d="M133.41,-60.03C144.95,-58.81 157.06,-57.53 168.9,-56.28"/>
<polygon fill="#63b8ff" stroke="#63b8ff" points="169.06,-59.78 178.64,-55.25 168.32,-52.82 169.06,-59.78"/>
</a>
</g>
</g>
<!-- Node5 -->
<g id="Node000005" class="node">
<title>Node5</title>
<g id="a_Node000005"><a xlink:href="namespaceLGE_1_1Analytics.html#aaedc4ccd5bf4308afc83cb289b4d3eba" target="_top" xlink:title=" ">
<polygon fill="white" stroke="#666666" points="321.5,-20 175,-20 175,0 321.5,0 321.5,-20"/>
<text xml:space="preserve" text-anchor="middle" x="248.25" y="-6.5" font-family="Helvetica,sans-Serif" font-size="10.00">LGE::Analytics::UnusedSince</text>
</a>
</g>
</g>
<!-- Node1&#45;&gt;Node5 -->
<g id="edge6_Node000001_Node000005" class="edge">
<title>Node1&#45;&gt;Node5</title>
<g id="a_edge6_Node000001_Node000005"><a xlink:title=" ">
<path fill="none" stroke="#63b8ff" d="M92.65,-56.62C113.02,-48.45 142.56,-37.13 169,-29 175.58,-26.98 182.52,-25.03 189.44,-23.21"/>
<polygon fill="#63b8ff" stroke="#63b8ff" points="189.96,-26.69 198.78,-20.82 188.22,-19.9 189.96,-26.69"/>
</a>
</g>
</g>
<!-- Node3&#45;&gt;Node2 -->
<g id="edge3_Node000003_Node000002" class="edge">
<title>Node3&#45;&gt;Node2</title>
<g id="a_edge3_Node000003_Node000002"><a xlink:title=" ">
<path fill="none" stroke="#63b8ff" d="M327.92,-86C335.82,-86 343.85,-86 351.76,-86"/>
<polygon fill="#63b8ff" stroke="#63b8ff" points="351.73,-89.5 361.73,-86 351.73,-82.5 351.73,-89.5"/>
</a>
</g>
</g>
<!-- Node4&#45;&gt;Node2 -->
<g id="edge5_Node000004_Node000002" class="edge">
<title>Node4&#45;&gt;Node2</title>
<g id="a_edge5_Node000004_Node000002"><a xlink:title=" ">
<path fill="none" stroke="#63b8ff" d="M299.57,-58.48C321.49,-63.05 347.4,-68.45 370.43,-73.25"/>
<polygon fill="#63b8ff" stroke="#63b8ff" points="369.49,-76.63 379.99,-75.24 370.91,-69.77 369.49,-76.63"/>
</a>
</g>
</g>
</g>
</svg>
