<?xml version="1.0" encoding="UTF-8" standalone="no"?>
<!DOCTYPE svg PUBLIC "-//W3C//DTD SVG 1.1//EN"
 "http://www.w3.org/Graphics/SVG/1.1/DTD/svg11.dtd">
<!-- Generated by graphviz version 14.0.2 (20251019.1705)
 -->
<!-- Title: LGE::Sync::SyncAsset Pages: 1 -->
<svg width="575pt" height="230pt"
 viewBox="0.00 0.00 575.00 230.00" xmlns="http://www.w3.org/2000/svg" xmlns:xlink="http://www.w3.org/1999/xlink">
<g id="graph0" class="graph" transform="scale(1 1) rotate(0) translate(4 226)">
<title>LGE::Sync::SyncAsset</title>
<!-- Node1 -->
<g id="Node000001" class="node">
<title>Node1</title>
<g id="a_Node000001"><a xlink:title=" ">
<polygon fill="#999999" stroke="#666666" points="118,-115 0,-115 0,-95 118,-95 118,-115"/>
<text xml:space="preserve" text-anchor="middle" x="59" y="-101.5" font-family="Helvetica,sans-Serif" font-size="10.00">LGE::Sync::SyncAsset</text>
</a>
</g>
</g>
<!-- Node2 -->
<g id="Node000002" class="node">
<title>Node2</title>
<g id="a_Node000002"><a xlink:href="namespaceLGE_1_1LxFile.html#a11e62876b312a11b881b484bb3a5ee71" target="_top" xlink:title=" ">
<polygon fill="white" stroke="#666666" points="271.62,-222 170.12,-222 170.12,-202 271.62,-202 271.62,-222"/>
<text xml:space="preserve" text-anchor="middle" x="220.88" y="-208.5" font-family="Helvetica,sans-Serif" font-size="10.00">LGE::LxFile::Exists</text>
</a>
</g>
</g>
<!-- Node1&#45;&gt;Node2 -->
<g id="edge1_Node000001_Node000002" class="edge">
<title>Node1&#45;&gt;Node2</title>
<g id="a_edge1_Node000001_Node000002"><a xlink:title=" ">
<path fill="none" stroke="#63b8ff" d="M68.16,-115.35C83.18,-133.71 117.07,-172.02 154,-193 156.81,-194.6 159.77,-196.07 162.81,-197.43"/>
<polygon fill="#63b8ff" stroke="#63b8ff" points="161.39,-200.63 171.98,-201.05 163.96,-194.12 161.39,-200.63"/>
</a>
</g>
</g>
<!-- Node3 -->
<g id="Node000003" class="node">
<title>Node3</title>
<g id="a_Node000003"><a xlink:href="namespaceLGE_1_1AssetRegistry.html#a9e672f9e3c8c62076b9156d1695e48b8" target="_top" xlink:title=" ">
<polygon fill="white" stroke="#666666" points="272.75,-184 169,-184 169,-152 272.75,-152 272.75,-184"/>
<text xml:space="preserve" text-anchor="start" x="177" y="-170.5" font-family="Helvetica,sans-Serif" font-size="10.00">LGE::AssetRegistry</text>
<text xml:space="preserve" text-anchor="middle" x="220.88" y="-158.5" font-family="Helvetica,sans-Serif" font-size="10.00">::FindByGUID</text>
</a>
</g>
</g>
<!-- Node1&#45;&gt;Node3 -->
<g id="edge2_Node000001_Node000003" class="edge">
<title>Node1&#45;&gt;Node3</title>
<g id="a_edge2_Node000001_Node000003"><a xlink:title=" ">
<path fill="none" stroke="#63b8ff" d="M85.47,-115.47C104.35,-123.19 130.73,-133.88 154,-143 157.81,-144.49 161.75,-146.02 165.72,-147.56"/>
<polygon fill="#63b8ff" stroke="#63b8ff" points="164.24,-150.73 174.83,-151.05 166.74,-144.2 164.24,-150.73"/>
</a>
</g>
</g>
<!-- Node4 -->
<g id="Node000004" class="node">
<title>Node4</title>
<g id="a_Node000004"><a xlink:href="namespaceLGE_1_1LxPath.html#a282200340a7ec214f14f5d64e9e41396" target="_top" xlink:title=" ">
<polygon fill="white" stroke="#666666" points="287.75,-134 154,-134 154,-114 287.75,-114 287.75,-134"/>
<text xml:space="preserve" text-anchor="middle" x="220.88" y="-120.5" font-family="Helvetica,sans-Serif" font-size="10.00">LGE::LxPath::GetFilename</text>
</a>
</g>
</g>
<!-- Node1&#45;&gt;Node4 -->
<g id="edge3_Node000001_Node000004" class="edge">
<title>Node1&#45;&gt;Node4</title>
<g id="a_edge3_Node000001_Node000004"><a xlink:title=" ">
<path fill="none" stroke="#63b8ff" d="M118.17,-111.91C126,-112.84 134.13,-113.81 142.23,-114.77"/>
<polygon fill="#63b8ff" stroke="#63b8ff" points="141.77,-118.24 152.12,-115.95 142.6,-111.29 141.77,-118.24"/>
</a>
</g>
</g>
<!-- Node7 -->
<g id="Node000007" class="node">
<title>Node7</title>
<g id="a_Node000007"><a xlink:href="namespaceLGE_1_1LxFile.html#a40751ea42c228d8e2c6f6b0788e24aa7" target="_top" xlink:title=" ">
<polygon fill="white" stroke="#666666" points="283.25,-96 158.5,-96 158.5,-76 283.25,-76 283.25,-96"/>
<text xml:space="preserve" text-anchor="middle" x="220.88" y="-82.5" font-family="Helvetica,sans-Serif" font-size="10.00">LGE::LxFile::GetFileSize</text>
</a>
</g>
</g>
<!-- Node1&#45;&gt;Node7 -->
<g id="edge6_Node000001_Node000007" class="edge">
<title>Node1&#45;&gt;Node7</title>
<g id="a_edge6_Node000001_Node000007"><a xlink:title=" ">
<path fill="none" stroke="#63b8ff" d="M118.17,-98.09C127.54,-96.97 137.34,-95.81 147,-94.66"/>
<polygon fill="#63b8ff" stroke="#63b8ff" points="147.23,-98.16 156.74,-93.5 146.4,-91.21 147.23,-98.16"/>
</a>
</g>
</g>
<!-- Node8 -->
<g id="Node000008" class="node">
<title>Node8</title>
<g id="a_Node000008"><a xlink:href="classLGE_1_1Log.html#ab0265ee050b8873a2fd31fbdb696ced0" target="_top" xlink:title=" ">
<polygon fill="white" stroke="#666666" points="260.75,-58 181,-58 181,-38 260.75,-38 260.75,-58"/>
<text xml:space="preserve" text-anchor="middle" x="220.88" y="-44.5" font-family="Helvetica,sans-Serif" font-size="10.00">LGE::Log::Info</text>
</a>
</g>
</g>
<!-- Node1&#45;&gt;Node8 -->
<g id="edge7_Node000001_Node000008" class="edge">
<title>Node1&#45;&gt;Node8</title>
<g id="a_edge7_Node000001_Node000008"><a xlink:title=" ">
<path fill="none" stroke="#63b8ff" d="M83.7,-94.63C102.55,-86.57 129.71,-75.39 154,-67 159.28,-65.18 164.84,-63.38 170.39,-61.67"/>
<polygon fill="#63b8ff" stroke="#63b8ff" points="170.98,-65.15 179.55,-58.92 168.97,-58.44 170.98,-65.15"/>
</a>
</g>
</g>
<!-- Node9 -->
<g id="Node000009" class="node">
<title>Node9</title>
<g id="a_Node000009"><a xlink:href="namespaceLGE_1_1LxPath.html#a94ec3bdfd6948ddc25cda5d18154d4cf" target="_top" xlink:title=" ">
<polygon fill="white" stroke="#666666" points="269,-20 172.75,-20 172.75,0 269,0 269,-20"/>
<text xml:space="preserve" text-anchor="middle" x="220.88" y="-6.5" font-family="Helvetica,sans-Serif" font-size="10.00">LGE::LxPath::Join</text>
</a>
</g>
</g>
<!-- Node1&#45;&gt;Node9 -->
<g id="edge8_Node000001_Node000009" class="edge">
<title>Node1&#45;&gt;Node9</title>
<g id="a_edge8_Node000001_Node000009"><a xlink:title=" ">
<path fill="none" stroke="#63b8ff" d="M70,-94.58C86.18,-78.3 119.76,-46.84 154,-29 157.22,-27.32 160.61,-25.77 164.08,-24.35"/>
<polygon fill="#63b8ff" stroke="#63b8ff" points="165.06,-27.72 173.23,-20.96 162.63,-21.15 165.06,-27.72"/>
</a>
</g>
</g>
<!-- Node5 -->
<g id="Node000005" class="node">
<title>Node5</title>
<g id="a_Node000005"><a xlink:href="namespaceLGE_1_1LxPath.html#a314a60ce690c90f4ee0b4e64c0199408" target="_top" xlink:title=" ">
<polygon fill="white" stroke="#666666" points="446.25,-77 323.75,-77 323.75,-57 446.25,-57 446.25,-77"/>
<text xml:space="preserve" text-anchor="middle" x="385" y="-63.5" font-family="Helvetica,sans-Serif" font-size="10.00">LGE::LxPath::Normalize</text>
</a>
</g>
</g>
<!-- Node4&#45;&gt;Node5 -->
<g id="edge4_Node000004_Node000005" class="edge">
<title>Node4&#45;&gt;Node5</title>
<g id="a_edge4_Node000004_Node000005"><a xlink:title=" ">
<path fill="none" stroke="#63b8ff" d="M260.38,-113.56C269.41,-110.93 278.96,-107.99 287.75,-105 308.17,-98.04 330.61,-89.25 348.68,-81.88"/>
<polygon fill="#63b8ff" stroke="#63b8ff" points="350,-85.12 357.91,-78.07 347.33,-78.65 350,-85.12"/>
</a>
</g>
</g>
<!-- Node6 -->
<g id="Node000006" class="node">
<title>Node6</title>
<g id="a_Node000006"><a xlink:href="classLGE_1_1Log.html#a53f3f4b8797ffd18145739c9e66d690a" target="_top" xlink:title=" ">
<polygon fill="white" stroke="#666666" points="566.5,-77 482.25,-77 482.25,-57 566.5,-57 566.5,-77"/>
<text xml:space="preserve" text-anchor="middle" x="524.38" y="-63.5" font-family="Helvetica,sans-Serif" font-size="10.00">LGE::Log::Error</text>
</a>
</g>
</g>
<!-- Node5&#45;&gt;Node6 -->
<g id="edge5_Node000005_Node000006" class="edge">
<title>Node5&#45;&gt;Node6</title>
<g id="a_edge5_Node000005_Node000006"><a xlink:title=" ">
<path fill="none" stroke="#63b8ff" d="M446.65,-67C454.67,-67 462.84,-67 470.7,-67"/>
<polygon fill="#63b8ff" stroke="#63b8ff" points="470.45,-70.5 480.45,-67 470.45,-63.5 470.45,-70.5"/>
</a>
</g>
</g>
<!-- Node9&#45;&gt;Node5 -->
<g id="edge9_Node000009_Node000005" class="edge">
<title>Node9&#45;&gt;Node5</title>
<g id="a_edge9_Node000009_Node000005"><a xlink:title=" ">
<path fill="none" stroke="#63b8ff" d="M260.38,-20.44C269.41,-23.07 278.96,-26.01 287.75,-29 308.17,-35.96 330.61,-44.75 348.68,-52.12"/>
<polygon fill="#63b8ff" stroke="#63b8ff" points="347.33,-55.35 357.91,-55.93 350,-48.88 347.33,-55.35"/>
</a>
</g>
</g>
</g>
</svg>
