<?xml version="1.0" encoding="UTF-8" standalone="no"?>
<!DOCTYPE svg PUBLIC "-//W3C//DTD SVG 1.1//EN"
 "http://www.w3.org/Graphics/SVG/1.1/DTD/svg11.dtd">
<!-- Generated by graphviz version 14.0.2 (20251019.1705)
 -->
<!-- Title: LGE::PackageMgr::GetPackageInfo Pages: 1 -->
<svg width="659pt" height="66pt"
 viewBox="0.00 0.00 659.00 66.00" xmlns="http://www.w3.org/2000/svg" xmlns:xlink="http://www.w3.org/1999/xlink">
<g id="graph0" class="graph" transform="scale(1 1) rotate(0) translate(4 62)">
<title>LGE::PackageMgr::GetPackageInfo</title>
<!-- Node1 -->
<g id="Node000001" class="node">
<title>Node1</title>
<g id="a_Node000001"><a xlink:title=" ">
<polygon fill="#999999" stroke="#666666" points="172.75,-39 0,-39 0,-19 172.75,-19 172.75,-39"/>
<text xml:space="preserve" text-anchor="middle" x="86.38" y="-25.5" font-family="Helvetica,sans-Serif" font-size="10.00">LGE::PackageMgr::GetPackageInfo</text>
</a>
</g>
</g>
<!-- Node2 -->
<g id="Node000002" class="node">
<title>Node2</title>
<g id="a_Node000002"><a xlink:href="namespaceLGE_1_1PackageMgr.html#a65e753b96208ba0e5e3864bb774bb917" target="_top" xlink:title=" ">
<polygon fill="white" stroke="#666666" points="386.75,-39 208.75,-39 208.75,-19 386.75,-19 386.75,-39"/>
<text xml:space="preserve" text-anchor="middle" x="297.75" y="-25.5" font-family="Helvetica,sans-Serif" font-size="10.00">LGE::PackageMgr::LoadPackageInfo</text>
</a>
</g>
</g>
<!-- Node1&#45;&gt;Node2 -->
<g id="edge1_Node000001_Node000002" class="edge">
<title>Node1&#45;&gt;Node2</title>
<g id="a_edge1_Node000001_Node000002"><a xlink:title=" ">
<path fill="none" stroke="#63b8ff" d="M173.14,-29C181.05,-29 189.1,-29 197.12,-29"/>
<polygon fill="#63b8ff" stroke="#63b8ff" points="196.89,-32.5 206.89,-29 196.89,-25.5 196.89,-32.5"/>
</a>
</g>
</g>
<!-- Node3 -->
<g id="Node000003" class="node">
<title>Node3</title>
<g id="a_Node000003"><a xlink:href="namespaceLGE_1_1LxFile.html#a11e62876b312a11b881b484bb3a5ee71" target="_top" xlink:title=" ">
<polygon fill="white" stroke="#666666" points="527.62,-58 426.12,-58 426.12,-38 527.62,-38 527.62,-58"/>
<text xml:space="preserve" text-anchor="middle" x="476.88" y="-44.5" font-family="Helvetica,sans-Serif" font-size="10.00">LGE::LxFile::Exists</text>
</a>
</g>
</g>
<!-- Node2&#45;&gt;Node3 -->
<g id="edge2_Node000002_Node000003" class="edge">
<title>Node2&#45;&gt;Node3</title>
<g id="a_edge2_Node000002_Node000003"><a xlink:title=" ">
<path fill="none" stroke="#63b8ff" d="M387.05,-38.47C396.33,-39.47 405.61,-40.46 414.49,-41.42"/>
<polygon fill="#63b8ff" stroke="#63b8ff" points="414.08,-44.89 424.39,-42.48 414.82,-37.93 414.08,-44.89"/>
</a>
</g>
</g>
<!-- Node4 -->
<g id="Node000004" class="node">
<title>Node4</title>
<g id="a_Node000004"><a xlink:href="namespaceLGE_1_1LxFile.html#ac0a61f0e1f49fdcf553f007750c1ba37" target="_top" xlink:title=" ">
<polygon fill="white" stroke="#666666" points="531,-20 422.75,-20 422.75,0 531,0 531,-20"/>
<text xml:space="preserve" text-anchor="middle" x="476.88" y="-6.5" font-family="Helvetica,sans-Serif" font-size="10.00">LGE::LxFile::ReadAll</text>
</a>
</g>
</g>
<!-- Node2&#45;&gt;Node4 -->
<g id="edge3_Node000002_Node000004" class="edge">
<title>Node2&#45;&gt;Node4</title>
<g id="a_edge3_Node000002_Node000004"><a xlink:title=" ">
<path fill="none" stroke="#63b8ff" d="M387.05,-19.53C395.2,-18.65 403.36,-17.78 411.24,-16.93"/>
<polygon fill="#63b8ff" stroke="#63b8ff" points="411.48,-20.43 421.05,-15.88 410.74,-13.47 411.48,-20.43"/>
</a>
</g>
</g>
<!-- Node5 -->
<g id="Node000005" class="node">
<title>Node5</title>
<g id="a_Node000005"><a xlink:href="classLGE_1_1Log.html#a53f3f4b8797ffd18145739c9e66d690a" target="_top" xlink:title=" ">
<polygon fill="white" stroke="#666666" points="651.25,-20 567,-20 567,0 651.25,0 651.25,-20"/>
<text xml:space="preserve" text-anchor="middle" x="609.12" y="-6.5" font-family="Helvetica,sans-Serif" font-size="10.00">LGE::Log::Error</text>
</a>
</g>
</g>
<!-- Node4&#45;&gt;Node5 -->
<g id="edge4_Node000004_Node000005" class="edge">
<title>Node4&#45;&gt;Node5</title>
<g id="a_edge4_Node000004_Node000005"><a xlink:title=" ">
<path fill="none" stroke="#63b8ff" d="M531.23,-10C539.16,-10 547.33,-10 555.25,-10"/>
<polygon fill="#63b8ff" stroke="#63b8ff" points="555.1,-13.5 565.1,-10 555.1,-6.5 555.1,-13.5"/>
</a>
</g>
</g>
</g>
</svg>
