<?xml version="1.0" encoding="UTF-8" standalone="no"?>
<!DOCTYPE svg PUBLIC "-//W3C//DTD SVG 1.1//EN"
 "http://www.w3.org/Graphics/SVG/1.1/DTD/svg11.dtd">
<!-- Generated by graphviz version 14.0.2 (20251019.1705)
 -->
<!-- Title: LGE::LxFile::IsFile Pages: 1 -->
<svg width="738pt" height="400pt"
 viewBox="0.00 0.00 738.00 400.00" xmlns="http://www.w3.org/2000/svg" xmlns:xlink="http://www.w3.org/1999/xlink">
<g id="graph0" class="graph" transform="scale(1 1) rotate(0) translate(4 396)">
<title>LGE::LxFile::IsFile</title>
<!-- Node1 -->
<g id="Node000001" class="node">
<title>Node1</title>
<g id="a_Node000001"><a xlink:title=" ">
<polygon fill="#999999" stroke="#666666" points="729.5,-247 631.75,-247 631.75,-227 729.5,-227 729.5,-247"/>
<text xml:space="preserve" text-anchor="middle" x="680.62" y="-233.5" font-family="Helvetica,sans-Serif" font-size="10.00">LGE::LxFile::IsFile</text>
</a>
</g>
</g>
<!-- Node2 -->
<g id="Node000002" class="node">
<title>Node2</title>
<g id="a_Node000002"><a xlink:href="namespaceLGE_1_1Validation.html#a3e91f836d8f212f4bdfdf803a166397a" target="_top" xlink:title=" ">
<polygon fill="white" stroke="#666666" points="595.75,-392 462,-392 462,-360 595.75,-360 595.75,-392"/>
<text xml:space="preserve" text-anchor="start" x="470" y="-378.5" font-family="Helvetica,sans-Serif" font-size="10.00">LGE::Validation::CheckFile</text>
<text xml:space="preserve" text-anchor="middle" x="528.88" y="-366.5" font-family="Helvetica,sans-Serif" font-size="10.00">Exists</text>
</a>
</g>
</g>
<!-- Node1&#45;&gt;Node2 -->
<g id="edge1_Node000001_Node000002" class="edge">
<title>Node1&#45;&gt;Node2</title>
<g id="a_edge1_Node000001_Node000002"><a xlink:title=" ">
<path fill="none" stroke="#63b8ff" d="M669.44,-257.3C655.84,-282.53 629.5,-325.37 595.75,-351 591.46,-354.26 586.71,-357.13 581.76,-359.66"/>
<polygon fill="#63b8ff" stroke="#63b8ff" points="672.4,-259.2 673.93,-248.71 666.2,-255.96 672.4,-259.2"/>
</a>
</g>
</g>
<!-- Node3 -->
<g id="Node000003" class="node">
<title>Node3</title>
<g id="a_Node000003"><a xlink:href="namespaceLGE_1_1FSOps.html#a7dec5f5335c8f592bf2d74d7832654de" target="_top" xlink:title=" ">
<polygon fill="white" stroke="#666666" points="582.25,-342 475.5,-342 475.5,-322 582.25,-322 582.25,-342"/>
<text xml:space="preserve" text-anchor="middle" x="528.88" y="-328.5" font-family="Helvetica,sans-Serif" font-size="10.00">LGE::FSOps::Delete</text>
</a>
</g>
</g>
<!-- Node1&#45;&gt;Node3 -->
<g id="edge2_Node000001_Node000003" class="edge">
<title>Node1&#45;&gt;Node3</title>
<g id="a_edge2_Node000001_Node000003"><a xlink:title=" ">
<path fill="none" stroke="#63b8ff" d="M663.69,-255.67C648.04,-272.9 622.64,-298.01 595.75,-313 589.72,-316.36 583.04,-319.17 576.32,-321.52"/>
<polygon fill="#63b8ff" stroke="#63b8ff" points="665.94,-258.42 669.94,-248.61 660.69,-253.78 665.94,-258.42"/>
</a>
</g>
</g>
<!-- Node4 -->
<g id="Node000004" class="node">
<title>Node4</title>
<g id="a_Node000004"><a xlink:href="namespaceLGE_1_1FSOps.html#a7c3c8bb77f4634c4667e4896b11d66ad" target="_top" xlink:title=" ">
<polygon fill="white" stroke="#666666" points="589.75,-304 468,-304 468,-284 589.75,-284 589.75,-304"/>
<text xml:space="preserve" text-anchor="middle" x="528.88" y="-290.5" font-family="Helvetica,sans-Serif" font-size="10.00">LGE::FSOps::ImportFile</text>
</a>
</g>
</g>
<!-- Node1&#45;&gt;Node4 -->
<g id="edge3_Node000001_Node000004" class="edge">
<title>Node1&#45;&gt;Node4</title>
<g id="a_edge3_Node000001_Node000004"><a xlink:title=" ">
<path fill="none" stroke="#63b8ff" d="M642.95,-251.66C628.3,-257.46 611.26,-264.12 595.75,-270 583.8,-274.53 570.57,-279.38 559.12,-283.53"/>
<polygon fill="#63b8ff" stroke="#63b8ff" points="644.21,-254.93 652.22,-247.99 641.63,-248.42 644.21,-254.93"/>
</a>
</g>
</g>
<!-- Node5 -->
<g id="Node000005" class="node">
<title>Node5</title>
<g id="a_Node000005"><a xlink:href="namespaceLGE_1_1ImportExport.html#af78ec4a5e430226c5054a220cedc76b1" target="_top" xlink:title=" ">
<polygon fill="white" stroke="#666666" points="404.62,-291 300.88,-291 300.88,-259 404.62,-259 404.62,-291"/>
<text xml:space="preserve" text-anchor="start" x="308.88" y="-277.5" font-family="Helvetica,sans-Serif" font-size="10.00">LGE::ImportExport::</text>
<text xml:space="preserve" text-anchor="middle" x="352.75" y="-265.5" font-family="Helvetica,sans-Serif" font-size="10.00">ImportFile</text>
</a>
</g>
</g>
<!-- Node1&#45;&gt;Node5 -->
<g id="edge7_Node000001_Node000005" class="edge">
<title>Node1&#45;&gt;Node5</title>
<g id="a_edge7_Node000001_Node000005"><a xlink:title=" ">
<path fill="none" stroke="#63b8ff" d="M620.45,-243.9C558.88,-251.08 463.45,-262.21 404.99,-269.02"/>
<polygon fill="#63b8ff" stroke="#63b8ff" points="620.51,-247.42 630.04,-242.78 619.7,-240.46 620.51,-247.42"/>
</a>
</g>
</g>
<!-- Node8 -->
<g id="Node000008" class="node">
<title>Node8</title>
<g id="a_Node000008"><a xlink:href="namespaceLGE_1_1FSOps.html#a8d90a8bd4f3c45deff002d5c191bf872" target="_top" xlink:title=" ">
<polygon fill="white" stroke="#666666" points="580,-228 477.75,-228 477.75,-208 580,-208 580,-228"/>
<text xml:space="preserve" text-anchor="middle" x="528.88" y="-214.5" font-family="Helvetica,sans-Serif" font-size="10.00">LGE::FSOps::Move</text>
</a>
</g>
</g>
<!-- Node1&#45;&gt;Node8 -->
<g id="edge8_Node000001_Node000008" class="edge">
<title>Node1&#45;&gt;Node8</title>
<g id="a_edge8_Node000001_Node000008"><a xlink:title=" ">
<path fill="none" stroke="#63b8ff" d="M620.06,-229.44C606.9,-227.77 593.07,-226.02 580.31,-224.4"/>
<polygon fill="#63b8ff" stroke="#63b8ff" points="619.56,-232.91 629.92,-230.69 620.44,-225.96 619.56,-232.91"/>
</a>
</g>
</g>
<!-- Node9 -->
<g id="Node000009" class="node">
<title>Node9</title>
<g id="a_Node000009"><a xlink:href="namespaceLGE_1_1FSOps.html#a73a5f7725534ee44eab8e17badf96f9f" target="_top" xlink:title=" ">
<polygon fill="white" stroke="#666666" points="586.38,-190 471.38,-190 471.38,-170 586.38,-170 586.38,-190"/>
<text xml:space="preserve" text-anchor="middle" x="528.88" y="-176.5" font-family="Helvetica,sans-Serif" font-size="10.00">LGE::FSOps::Rename</text>
</a>
</g>
</g>
<!-- Node1&#45;&gt;Node9 -->
<g id="edge9_Node000001_Node000009" class="edge">
<title>Node1&#45;&gt;Node9</title>
<g id="a_edge9_Node000001_Node000009"><a xlink:title=" ">
<path fill="none" stroke="#63b8ff" d="M648.78,-221.73C633.12,-214.32 613.67,-205.6 595.75,-199 587.37,-195.91 578.25,-193 569.54,-190.43"/>
<polygon fill="#63b8ff" stroke="#63b8ff" points="647.06,-224.79 657.58,-225.96 650.09,-218.48 647.06,-224.79"/>
</a>
</g>
</g>
<!-- Node10 -->
<g id="Node000010" class="node">
<title>Node10</title>
<g id="a_Node000010"><a xlink:href="TestFileIO_8cpp.html#ae7bbde57a64295eafd0b77fe833911b2" target="_top" xlink:title=" ">
<polygon fill="white" stroke="#666666" points="549.62,-152 508.12,-152 508.12,-132 549.62,-132 549.62,-152"/>
<text xml:space="preserve" text-anchor="middle" x="528.88" y="-138.5" font-family="Helvetica,sans-Serif" font-size="10.00">TEST</text>
</a>
</g>
</g>
<!-- Node1&#45;&gt;Node10 -->
<g id="edge10_Node000001_Node000010" class="edge">
<title>Node1&#45;&gt;Node10</title>
<g id="a_edge10_Node000001_Node000010"><a xlink:title=" ">
<path fill="none" stroke="#63b8ff" d="M663.69,-218.33C648.04,-201.1 622.64,-175.99 595.75,-161 581.51,-153.06 563.64,-148.18 550.11,-145.35"/>
<polygon fill="#63b8ff" stroke="#63b8ff" points="660.69,-220.22 669.94,-225.39 665.94,-215.58 660.69,-220.22"/>
</a>
</g>
</g>
<!-- Node11 -->
<g id="Node000011" class="node">
<title>Node11</title>
<g id="a_Node000011"><a xlink:href="namespaceLGE_1_1Validation.html#ae388b93a917b4462203ff6011eb925db" target="_top" xlink:title=" ">
<polygon fill="white" stroke="#666666" points="590.88,-114 466.88,-114 466.88,-82 590.88,-82 590.88,-114"/>
<text xml:space="preserve" text-anchor="start" x="474.88" y="-100.5" font-family="Helvetica,sans-Serif" font-size="10.00">LGE::Validation::Validate</text>
<text xml:space="preserve" text-anchor="middle" x="528.88" y="-88.5" font-family="Helvetica,sans-Serif" font-size="10.00">Asset</text>
</a>
</g>
</g>
<!-- Node1&#45;&gt;Node11 -->
<g id="edge11_Node000001_Node000011" class="edge">
<title>Node1&#45;&gt;Node11</title>
<g id="a_edge11_Node000001_Node000011"><a xlink:title=" ">
<path fill="none" stroke="#63b8ff" d="M669.44,-216.7C655.84,-191.47 629.5,-148.63 595.75,-123 591.46,-119.74 586.71,-116.87 581.76,-114.34"/>
<polygon fill="#63b8ff" stroke="#63b8ff" points="666.2,-218.04 673.93,-225.29 672.4,-214.8 666.2,-218.04"/>
</a>
</g>
</g>
<!-- Node4&#45;&gt;Node5 -->
<g id="edge4_Node000004_Node000005" class="edge">
<title>Node4&#45;&gt;Node5</title>
<g id="a_edge4_Node000004_Node000005"><a xlink:title=" ">
<path fill="none" stroke="#63b8ff" d="M456.74,-286.24C439.43,-284.35 421.26,-282.37 405.08,-280.6"/>
<polygon fill="#63b8ff" stroke="#63b8ff" points="456.13,-289.69 466.45,-287.3 456.89,-282.73 456.13,-289.69"/>
</a>
</g>
</g>
<!-- Node6 -->
<g id="Node000006" class="node">
<title>Node6</title>
<g id="a_Node000006"><a xlink:href="namespaceLGE_1_1ImportExport.html#ae8496d7d19ac15289295442d11349580" target="_top" xlink:title=" ">
<polygon fill="white" stroke="#666666" points="243.5,-291 139.75,-291 139.75,-259 243.5,-259 243.5,-291"/>
<text xml:space="preserve" text-anchor="start" x="147.75" y="-277.5" font-family="Helvetica,sans-Serif" font-size="10.00">LGE::ImportExport::</text>
<text xml:space="preserve" text-anchor="middle" x="191.62" y="-265.5" font-family="Helvetica,sans-Serif" font-size="10.00">ImportFiles</text>
</a>
</g>
</g>
<!-- Node5&#45;&gt;Node6 -->
<g id="edge5_Node000005_Node000006" class="edge">
<title>Node5&#45;&gt;Node6</title>
<g id="a_edge5_Node000005_Node000006"><a xlink:title=" ">
<path fill="none" stroke="#63b8ff" d="M289.21,-275C274.15,-275 258.23,-275 243.75,-275"/>
<polygon fill="#63b8ff" stroke="#63b8ff" points="289.01,-278.5 299.01,-275 289.01,-271.5 289.01,-278.5"/>
</a>
</g>
</g>
<!-- Node7 -->
<g id="Node000007" class="node">
<title>Node7</title>
<g id="a_Node000007"><a xlink:href="namespaceLGE_1_1ImportExport.html#a8220fcef46f5c3ab8c10c64fd5860668" target="_top" xlink:title=" ">
<polygon fill="white" stroke="#666666" points="103.75,-291 0,-291 0,-259 103.75,-259 103.75,-291"/>
<text xml:space="preserve" text-anchor="start" x="8" y="-277.5" font-family="Helvetica,sans-Serif" font-size="10.00">LGE::ImportExport::</text>
<text xml:space="preserve" text-anchor="middle" x="51.88" y="-265.5" font-family="Helvetica,sans-Serif" font-size="10.00">ImportDirectory</text>
</a>
</g>
</g>
<!-- Node6&#45;&gt;Node7 -->
<g id="edge6_Node000006_Node000007" class="edge">
<title>Node6&#45;&gt;Node7</title>
<g id="a_edge6_Node000006_Node000007"><a xlink:title=" ">
<path fill="none" stroke="#63b8ff" d="M127.86,-275C119.95,-275 111.92,-275 104.21,-275"/>
<polygon fill="#63b8ff" stroke="#63b8ff" points="127.82,-278.5 137.82,-275 127.82,-271.5 127.82,-278.5"/>
</a>
</g>
</g>
<!-- Node12 -->
<g id="Node000012" class="node">
<title>Node12</title>
<g id="a_Node000012"><a xlink:href="namespaceLGE_1_1Validation.html#a5ed2957323e8381437806ac0d0fd02cf" target="_top" xlink:title=" ">
<polygon fill="white" stroke="#666666" points="426,-184 279.5,-184 279.5,-164 426,-164 426,-184"/>
<text xml:space="preserve" text-anchor="middle" x="352.75" y="-170.5" font-family="Helvetica,sans-Serif" font-size="10.00">LGE::Validation::CheckHealth</text>
</a>
</g>
</g>
<!-- Node11&#45;&gt;Node12 -->
<g id="edge12_Node000011_Node000012" class="edge">
<title>Node11&#45;&gt;Node12</title>
<g id="a_edge12_Node000011_Node000012"><a xlink:title=" ">
<path fill="none" stroke="#63b8ff" d="M468.58,-119.28C466.33,-120.47 464.13,-121.71 462,-123 443.69,-134.09 444.87,-144.89 426,-155 419.6,-158.43 412.54,-161.27 405.42,-163.61"/>
<polygon fill="#63b8ff" stroke="#63b8ff" points="469.89,-122.53 477.36,-115.02 466.83,-116.24 469.89,-122.53"/>
</a>
</g>
</g>
<!-- Node13 -->
<g id="Node000013" class="node">
<title>Node13</title>
<g id="a_Node000013"><a xlink:href="namespaceLGE_1_1Bundles.html#aa9d4c4452f76b1187a963bea3168be71" target="_top" xlink:title=" ">
<polygon fill="white" stroke="#666666" points="423.75,-146 281.75,-146 281.75,-126 423.75,-126 423.75,-146"/>
<text xml:space="preserve" text-anchor="middle" x="352.75" y="-132.5" font-family="Helvetica,sans-Serif" font-size="10.00">LGE::Bundles::CreateBundle</text>
</a>
</g>
</g>
<!-- Node11&#45;&gt;Node13 -->
<g id="edge13_Node000011_Node000013" class="edge">
<title>Node11&#45;&gt;Node13</title>
<g id="a_edge13_Node000011_Node000013"><a xlink:title=" ">
<path fill="none" stroke="#63b8ff" d="M455.36,-113.83C437.27,-117.77 418.31,-121.91 401.74,-125.53"/>
<polygon fill="#63b8ff" stroke="#63b8ff" points="455.98,-117.27 465.01,-111.72 454.49,-110.43 455.98,-117.27"/>
</a>
</g>
</g>
<!-- Node14 -->
<g id="Node000014" class="node">
<title>Node14</title>
<g id="a_Node000014"><a xlink:href="namespaceLGE_1_1Validation.html#a467a0168bbefb71a643b4764f249c376" target="_top" xlink:title=" ">
<polygon fill="white" stroke="#666666" points="424.5,-108 281,-108 281,-88 424.5,-88 424.5,-108"/>
<text xml:space="preserve" text-anchor="middle" x="352.75" y="-94.5" font-family="Helvetica,sans-Serif" font-size="10.00">LGE::Validation::RepairAsset</text>
</a>
</g>
</g>
<!-- Node11&#45;&gt;Node14 -->
<g id="edge14_Node000011_Node000014" class="edge">
<title>Node11&#45;&gt;Node14</title>
<g id="a_edge14_Node000011_Node000014"><a xlink:title=" ">
<path fill="none" stroke="#63b8ff" d="M455.23,-98C445.13,-98 434.77,-98 424.7,-98"/>
<polygon fill="#63b8ff" stroke="#63b8ff" points="454.97,-101.5 464.97,-98 454.97,-94.5 454.97,-101.5"/>
</a>
</g>
</g>
<!-- Node15 -->
<g id="Node000015" class="node">
<title>Node15</title>
<g id="a_Node000015"><a xlink:href="namespaceLGE_1_1Validation.html#ab5e87b018ce35925ea7bc7cd1f6b6a87" target="_top" xlink:title=" ">
<polygon fill="white" stroke="#666666" points="420.38,-70 285.12,-70 285.12,-50 420.38,-50 420.38,-70"/>
<text xml:space="preserve" text-anchor="middle" x="352.75" y="-56.5" font-family="Helvetica,sans-Serif" font-size="10.00">LGE::Validation::ValidateAll</text>
</a>
</g>
</g>
<!-- Node11&#45;&gt;Node15 -->
<g id="edge15_Node000011_Node000015" class="edge">
<title>Node11&#45;&gt;Node15</title>
<g id="a_edge15_Node000011_Node000015"><a xlink:title=" ">
<path fill="none" stroke="#63b8ff" d="M455.36,-82.17C437.27,-78.23 418.31,-74.09 401.74,-70.47"/>
<polygon fill="#63b8ff" stroke="#63b8ff" points="454.49,-85.57 465.01,-84.28 455.98,-78.73 454.49,-85.57"/>
</a>
</g>
</g>
<!-- Node16 -->
<g id="Node000016" class="node">
<title>Node16</title>
<g id="a_Node000016"><a xlink:href="namespaceLGE_1_1Validation.html#a79589cf3c193492d81b8c87268350ce5" target="_top" xlink:title=" ">
<polygon fill="white" stroke="#666666" points="414.75,-32 290.75,-32 290.75,0 414.75,0 414.75,-32"/>
<text xml:space="preserve" text-anchor="start" x="298.75" y="-18.5" font-family="Helvetica,sans-Serif" font-size="10.00">LGE::Validation::Validate</text>
<text xml:space="preserve" text-anchor="middle" x="352.75" y="-6.5" font-family="Helvetica,sans-Serif" font-size="10.00">Assets</text>
</a>
</g>
</g>
<!-- Node11&#45;&gt;Node16 -->
<g id="edge16_Node000011_Node000016" class="edge">
<title>Node11&#45;&gt;Node16</title>
<g id="a_edge16_Node000011_Node000016"><a xlink:title=" ">
<path fill="none" stroke="#63b8ff" d="M491.93,-75.83C472.78,-64.55 448.57,-51.12 426,-41 419.22,-37.96 411.95,-35.05 404.72,-32.36"/>
<polygon fill="#63b8ff" stroke="#63b8ff" points="490.05,-78.78 500.43,-80.9 493.63,-72.77 490.05,-78.78"/>
</a>
</g>
</g>
</g>
</svg>
