<?xml version="1.0" encoding="UTF-8" standalone="no"?>
<!DOCTYPE svg PUBLIC "-//W3C//DTD SVG 1.1//EN"
 "http://www.w3.org/Graphics/SVG/1.1/DTD/svg11.dtd">
<!-- Generated by graphviz version 14.0.2 (20251019.1705)
 -->
<!-- Title: LGE::PackageMgr::GetPackagePath Pages: 1 -->
<svg width="559pt" height="142pt"
 viewBox="0.00 0.00 559.00 142.00" xmlns="http://www.w3.org/2000/svg" xmlns:xlink="http://www.w3.org/1999/xlink">
<g id="graph0" class="graph" transform="scale(1 1) rotate(0) translate(4 138)">
<title>LGE::PackageMgr::GetPackagePath</title>
<!-- Node1 -->
<g id="Node000001" class="node">
<title>Node1</title>
<g id="a_Node000001"><a xlink:title=" ">
<polygon fill="#999999" stroke="#666666" points="550.5,-39 374,-39 374,-19 550.5,-19 550.5,-39"/>
<text xml:space="preserve" text-anchor="middle" x="462.25" y="-25.5" font-family="Helvetica,sans-Serif" font-size="10.00">LGE::PackageMgr::GetPackagePath</text>
</a>
</g>
</g>
<!-- Node2 -->
<g id="Node000002" class="node">
<title>Node2</title>
<g id="a_Node000002"><a xlink:href="namespaceLGE_1_1PackageMgr.html#a4477becfa2c6a4400116b840de1382c4" target="_top" xlink:title=" ">
<polygon fill="white" stroke="#666666" points="338,-58 190.75,-58 190.75,-38 338,-38 338,-58"/>
<text xml:space="preserve" text-anchor="middle" x="264.38" y="-44.5" font-family="Helvetica,sans-Serif" font-size="10.00">LGE::PackageMgr::IsInstalled</text>
</a>
</g>
</g>
<!-- Node1&#45;&gt;Node2 -->
<g id="edge1_Node000001_Node000002" class="edge">
<title>Node1&#45;&gt;Node2</title>
<g id="a_edge1_Node000001_Node000002"><a xlink:title=" ">
<path fill="none" stroke="#63b8ff" d="M362.23,-38.6C354.16,-39.39 346.1,-40.17 338.27,-40.93"/>
<polygon fill="#63b8ff" stroke="#63b8ff" points="362.5,-42.1 372.12,-37.65 361.83,-35.13 362.5,-42.1"/>
</a>
</g>
</g>
<!-- Node6 -->
<g id="Node000006" class="node">
<title>Node6</title>
<g id="a_Node000006"><a xlink:href="namespaceLGE_1_1PackageMgr.html#a5fa80ee6187608019aeeb27bcf591cf7" target="_top" xlink:title=" ">
<polygon fill="white" stroke="#666666" points="147.62,-20 7.12,-20 7.12,0 147.62,0 147.62,-20"/>
<text xml:space="preserve" text-anchor="middle" x="77.38" y="-6.5" font-family="Helvetica,sans-Serif" font-size="10.00">LGE::PackageMgr::Uninstall</text>
</a>
</g>
</g>
<!-- Node1&#45;&gt;Node6 -->
<g id="edge6_Node000001_Node000006" class="edge">
<title>Node1&#45;&gt;Node6</title>
<g id="a_edge6_Node000001_Node000006"><a xlink:title=" ">
<path fill="none" stroke="#63b8ff" d="M362.43,-24.1C295.16,-20.76 207.8,-16.42 147.82,-13.45"/>
<polygon fill="#63b8ff" stroke="#63b8ff" points="362.22,-27.59 372.38,-24.59 362.56,-20.6 362.22,-27.59"/>
</a>
</g>
</g>
<!-- Node3 -->
<g id="Node000003" class="node">
<title>Node3</title>
<g id="a_Node000003"><a xlink:href="namespaceLGE_1_1PackageMgr.html#a91e95886b10309daf8daf9a58c8a96fd" target="_top" xlink:title=" ">
<polygon fill="white" stroke="#666666" points="141.62,-134 13.12,-134 13.12,-114 141.62,-114 141.62,-134"/>
<text xml:space="preserve" text-anchor="middle" x="77.38" y="-120.5" font-family="Helvetica,sans-Serif" font-size="10.00">LGE::PackageMgr::Install</text>
</a>
</g>
</g>
<!-- Node2&#45;&gt;Node3 -->
<g id="edge2_Node000002_Node000003" class="edge">
<title>Node2&#45;&gt;Node3</title>
<g id="a_edge2_Node000002_Node000003"><a xlink:title=" ">
<path fill="none" stroke="#63b8ff" d="M236.96,-64.16C215.46,-76.74 184,-93.87 154.75,-105 146.19,-108.26 136.88,-111.11 127.8,-113.55"/>
<polygon fill="#63b8ff" stroke="#63b8ff" points="238.55,-67.29 245.36,-59.17 234.97,-61.27 238.55,-67.29"/>
</a>
</g>
</g>
<!-- Node4 -->
<g id="Node000004" class="node">
<title>Node4</title>
<g id="a_Node000004"><a xlink:href="namespaceLGE_1_1PackageMgr.html#aa1524a16034a31837f9821c520d5ed6f" target="_top" xlink:title=" ">
<polygon fill="white" stroke="#666666" points="141.62,-96 13.12,-96 13.12,-76 141.62,-76 141.62,-96"/>
<text xml:space="preserve" text-anchor="middle" x="77.38" y="-82.5" font-family="Helvetica,sans-Serif" font-size="10.00">LGE::PackageMgr::Install</text>
</a>
</g>
</g>
<!-- Node2&#45;&gt;Node4 -->
<g id="edge3_Node000002_Node000004" class="edge">
<title>Node2&#45;&gt;Node4</title>
<g id="a_edge3_Node000002_Node000004"><a xlink:title=" ">
<path fill="none" stroke="#63b8ff" d="M201.12,-60.79C177.74,-65.59 151.47,-70.99 129.25,-75.55"/>
<polygon fill="#63b8ff" stroke="#63b8ff" points="201.76,-64.23 210.85,-58.79 200.35,-57.37 201.76,-64.23"/>
</a>
</g>
</g>
<!-- Node5 -->
<g id="Node000005" class="node">
<title>Node5</title>
<g id="a_Node000005"><a xlink:href="namespaceLGE_1_1PackageMgr.html#a88088679eaf853c3987cd76ee5bd19a0" target="_top" xlink:title=" ">
<polygon fill="white" stroke="#666666" points="154.75,-58 0,-58 0,-38 154.75,-38 154.75,-58"/>
<text xml:space="preserve" text-anchor="middle" x="77.38" y="-44.5" font-family="Helvetica,sans-Serif" font-size="10.00">LGE::PackageMgr::ListInstalled</text>
</a>
</g>
</g>
<!-- Node2&#45;&gt;Node5 -->
<g id="edge4_Node000002_Node000005" class="edge">
<title>Node2&#45;&gt;Node5</title>
<g id="a_edge4_Node000002_Node000005"><a xlink:title=" ">
<path fill="none" stroke="#63b8ff" d="M178.82,-48C170.95,-48 163.01,-48 155.22,-48"/>
<polygon fill="#63b8ff" stroke="#63b8ff" points="178.74,-51.5 188.74,-48 178.74,-44.5 178.74,-51.5"/>
</a>
</g>
</g>
<!-- Node2&#45;&gt;Node6 -->
<g id="edge5_Node000002_Node000006" class="edge">
<title>Node2&#45;&gt;Node6</title>
<g id="a_edge5_Node000002_Node000006"><a xlink:title=" ">
<path fill="none" stroke="#63b8ff" d="M201.12,-35.21C177.74,-30.41 151.47,-25.01 129.25,-20.45"/>
<polygon fill="#63b8ff" stroke="#63b8ff" points="200.35,-38.63 210.85,-37.21 201.76,-31.77 200.35,-38.63"/>
</a>
</g>
</g>
</g>
</svg>
