<?xml version="1.0" encoding="UTF-8" standalone="no"?>
<!DOCTYPE svg PUBLIC "-//W3C//DTD SVG 1.1//EN"
 "http://www.w3.org/Graphics/SVG/1.1/DTD/svg11.dtd">
<!-- Generated by graphviz version 14.0.2 (20251019.1705)
 -->
<!-- Title: LGE::FSOps::Rename Pages: 1 -->
<svg width="1136pt" height="779pt"
 viewBox="0.00 0.00 1136.00 779.00" xmlns="http://www.w3.org/2000/svg" xmlns:xlink="http://www.w3.org/1999/xlink">
<g id="graph0" class="graph" transform="scale(1 1) rotate(0) translate(4 775)">
<title>LGE::FSOps::Rename</title>
<!-- Node1 -->
<g id="Node000001" class="node">
<title>Node1</title>
<g id="a_Node000001"><a xlink:title=" ">
<polygon fill="#999999" stroke="#666666" points="115,-379 0,-379 0,-359 115,-359 115,-379"/>
<text xml:space="preserve" text-anchor="middle" x="57.5" y="-365.5" font-family="Helvetica,sans-Serif" font-size="10.00">LGE::FSOps::Rename</text>
</a>
</g>
</g>
<!-- Node2 -->
<g id="Node000002" class="node">
<title>Node2</title>
<g id="a_Node000002"><a xlink:href="namespaceLGE_1_1AssetRegistry.html#ad149a48ca6d3fb38debc8c384f1e0b18" target="_top" xlink:title=" ">
<polygon fill="white" stroke="#666666" points="281,-524 177.25,-524 177.25,-492 281,-492 281,-524"/>
<text xml:space="preserve" text-anchor="start" x="185.25" y="-510.5" font-family="Helvetica,sans-Serif" font-size="10.00">LGE::AssetRegistry</text>
<text xml:space="preserve" text-anchor="middle" x="229.12" y="-498.5" font-family="Helvetica,sans-Serif" font-size="10.00">::AddOrUpdate</text>
</a>
</g>
</g>
<!-- Node1&#45;&gt;Node2 -->
<g id="edge1_Node000001_Node000002" class="edge">
<title>Node1&#45;&gt;Node2</title>
<g id="a_edge1_Node000001_Node000002"><a xlink:title=" ">
<path fill="none" stroke="#63b8ff" d="M63.99,-379.17C76.48,-401.34 109.18,-454.31 151,-483 155.74,-486.25 160.93,-489.1 166.3,-491.6"/>
<polygon fill="#63b8ff" stroke="#63b8ff" points="164.82,-494.77 175.4,-495.38 167.52,-488.31 164.82,-494.77"/>
</a>
</g>
</g>
<!-- Node6 -->
<g id="Node000006" class="node">
<title>Node6</title>
<g id="a_Node000006"><a xlink:href="classLGE_1_1Log.html#ab0265ee050b8873a2fd31fbdb696ced0" target="_top" xlink:title=" ">
<polygon fill="white" stroke="#666666" points="643.75,-562 564,-562 564,-542 643.75,-542 643.75,-562"/>
<text xml:space="preserve" text-anchor="middle" x="603.88" y="-548.5" font-family="Helvetica,sans-Serif" font-size="10.00">LGE::Log::Info</text>
</a>
</g>
</g>
<!-- Node1&#45;&gt;Node6 -->
<g id="edge26_Node000001_Node000006" class="edge">
<title>Node1&#45;&gt;Node6</title>
<g id="a_edge26_Node000001_Node000006"><a xlink:title=" ">
<path fill="none" stroke="#63b8ff" d="M60.62,-379.08C67.48,-408.92 92.19,-496.97 151,-533 216.92,-573.38 448.78,-562.88 552.3,-555.88"/>
<polygon fill="#63b8ff" stroke="#63b8ff" points="552.44,-559.38 562.17,-555.2 551.95,-552.4 552.44,-559.38"/>
</a>
</g>
</g>
<!-- Node9 -->
<g id="Node000009" class="node">
<title>Node9</title>
<g id="a_Node000009"><a xlink:href="namespaceLGE_1_1LxPath.html#a94ec3bdfd6948ddc25cda5d18154d4cf" target="_top" xlink:title=" ">
<polygon fill="white" stroke="#666666" points="827.75,-638 731.5,-638 731.5,-618 827.75,-618 827.75,-638"/>
<text xml:space="preserve" text-anchor="middle" x="779.62" y="-624.5" font-family="Helvetica,sans-Serif" font-size="10.00">LGE::LxPath::Join</text>
</a>
</g>
</g>
<!-- Node1&#45;&gt;Node9 -->
<g id="edge31_Node000001_Node000009" class="edge">
<title>Node1&#45;&gt;Node9</title>
<g id="a_edge31_Node000001_Node000009"><a xlink:title=" ">
<path fill="none" stroke="#63b8ff" d="M58.46,-379.34C58.9,-419.77 66.41,-568.14 151,-634 242.82,-705.49 558.73,-658.79 674.5,-647 689.36,-645.49 705.28,-643.02 720.09,-640.35"/>
<polygon fill="#63b8ff" stroke="#63b8ff" points="720.48,-643.84 729.67,-638.57 719.2,-636.96 720.48,-643.84"/>
</a>
</g>
</g>
<!-- Node11 -->
<g id="Node000011" class="node">
<title>Node11</title>
<g id="a_Node000011"><a xlink:href="classLGE_1_1Log.html#a53f3f4b8797ffd18145739c9e66d690a" target="_top" xlink:title=" ">
<polygon fill="white" stroke="#666666" points="1127.5,-339 1043.25,-339 1043.25,-319 1127.5,-319 1127.5,-339"/>
<text xml:space="preserve" text-anchor="middle" x="1085.38" y="-325.5" font-family="Helvetica,sans-Serif" font-size="10.00">LGE::Log::Error</text>
</a>
</g>
</g>
<!-- Node1&#45;&gt;Node11 -->
<g id="edge19_Node000001_Node000011" class="edge">
<title>Node1&#45;&gt;Node11</title>
<g id="a_edge19_Node000001_Node000011"><a xlink:title=" ">
<path fill="none" stroke="#63b8ff" d="M59.61,-358.75C63.92,-324.61 82.84,-214.24 151,-167 249.24,-98.92 299.73,-148 419.25,-148 419.25,-148 419.25,-148 780.62,-148 906.4,-148 1025.41,-263.94 1067.92,-310.23"/>
<polygon fill="#63b8ff" stroke="#63b8ff" points="1065.29,-312.54 1074.59,-317.63 1070.49,-307.85 1065.29,-312.54"/>
</a>
</g>
</g>
<!-- Node12 -->
<g id="Node000012" class="node">
<title>Node12</title>
<g id="a_Node000012"><a xlink:href="classLGE_1_1Log.html#aa6f98018af29c23dd7f574d3df5dda5e" target="_top" xlink:title=" ">
<polygon fill="white" stroke="#666666" points="822.5,-600 736.75,-600 736.75,-580 822.5,-580 822.5,-600"/>
<text xml:space="preserve" text-anchor="middle" x="779.62" y="-586.5" font-family="Helvetica,sans-Serif" font-size="10.00">LGE::Log::Warn</text>
</a>
</g>
</g>
<!-- Node1&#45;&gt;Node12 -->
<g id="edge47_Node000001_Node000012" class="edge">
<title>Node1&#45;&gt;Node12</title>
<g id="a_edge47_Node000001_Node000012"><a xlink:title=" ">
<path fill="none" stroke="#63b8ff" d="M59.87,-379.21C64.88,-412.22 85.53,-516.47 151,-561 243.57,-623.96 591.21,-604.6 725.35,-594.45"/>
<polygon fill="#63b8ff" stroke="#63b8ff" points="725.32,-597.97 735.02,-593.71 724.78,-590.99 725.32,-597.97"/>
</a>
</g>
</g>
<!-- Node15 -->
<g id="Node000015" class="node">
<title>Node15</title>
<g id="a_Node000015"><a xlink:href="namespaceLGE_1_1Policies.html#aec96f17ab2aa3152c9165b97acd6614f" target="_top" xlink:title=" ">
<polygon fill="white" stroke="#666666" points="848.75,-284 710.5,-284 710.5,-252 848.75,-252 848.75,-284"/>
<text xml:space="preserve" text-anchor="start" x="718.5" y="-270.5" font-family="Helvetica,sans-Serif" font-size="10.00">LGE::Policies::CheckCyclic</text>
<text xml:space="preserve" text-anchor="middle" x="779.62" y="-258.5" font-family="Helvetica,sans-Serif" font-size="10.00">Symlink</text>
</a>
</g>
</g>
<!-- Node1&#45;&gt;Node15 -->
<g id="edge16_Node000001_Node000015" class="edge">
<title>Node1&#45;&gt;Node15</title>
<g id="a_edge16_Node000001_Node000015"><a xlink:title=" ">
<path fill="none" stroke="#63b8ff" d="M66.88,-358.7C81.71,-341.37 114.48,-306.9 151,-293 248.9,-255.73 553.34,-260.32 699.18,-264.93"/>
<polygon fill="#63b8ff" stroke="#63b8ff" points="698.62,-268.41 708.73,-265.24 698.85,-261.42 698.62,-268.41"/>
</a>
</g>
</g>
<!-- Node16 -->
<g id="Node000016" class="node">
<title>Node16</title>
<g id="a_Node000016"><a xlink:href="namespaceLGE_1_1LxFile.html#a11e62876b312a11b881b484bb3a5ee71" target="_top" xlink:title=" ">
<polygon fill="white" stroke="#666666" points="279.88,-474 178.38,-474 178.38,-454 279.88,-454 279.88,-474"/>
<text xml:space="preserve" text-anchor="middle" x="229.12" y="-460.5" font-family="Helvetica,sans-Serif" font-size="10.00">LGE::LxFile::Exists</text>
</a>
</g>
</g>
<!-- Node1&#45;&gt;Node16 -->
<g id="edge20_Node000001_Node000016" class="edge">
<title>Node1&#45;&gt;Node16</title>
<g id="a_edge20_Node000001_Node000016"><a xlink:title=" ">
<path fill="none" stroke="#63b8ff" d="M69.29,-379.37C85.7,-394.63 118.47,-423.14 151,-440 158.28,-443.77 166.25,-447.07 174.22,-449.92"/>
<polygon fill="#63b8ff" stroke="#63b8ff" points="173,-453.2 183.59,-453.04 175.21,-446.56 173,-453.2"/>
</a>
</g>
</g>
<!-- Node17 -->
<g id="Node000017" class="node">
<title>Node17</title>
<g id="a_Node000017"><a xlink:href="namespaceLGE_1_1LxPath.html#a442709c353add1504cfb1d9d496f3014" target="_top" xlink:title=" ">
<polygon fill="white" stroke="#666666" points="297.88,-322 160.38,-322 160.38,-302 297.88,-302 297.88,-322"/>
<text xml:space="preserve" text-anchor="middle" x="229.12" y="-308.5" font-family="Helvetica,sans-Serif" font-size="10.00">LGE::LxPath::GetExtension</text>
</a>
</g>
</g>
<!-- Node1&#45;&gt;Node17 -->
<g id="edge21_Node000001_Node000017" class="edge">
<title>Node1&#45;&gt;Node17</title>
<g id="a_edge21_Node000001_Node000017"><a xlink:title=" ">
<path fill="none" stroke="#63b8ff" d="M81.33,-358.51C99.84,-350.28 126.74,-338.92 151,-331 157.13,-329 163.59,-327.09 170.07,-325.32"/>
<polygon fill="#63b8ff" stroke="#63b8ff" points="170.67,-328.78 179.44,-322.84 168.88,-322.01 170.67,-328.78"/>
</a>
</g>
</g>
<!-- Node19 -->
<g id="Node000019" class="node">
<title>Node19</title>
<g id="a_Node000019"><a xlink:href="namespaceLGE_1_1LxPath.html#aefae4d45f84718077f5218f64d2f074c" target="_top" xlink:title=" ">
<polygon fill="white" stroke="#666666" points="481.5,-714 359,-714 359,-694 481.5,-694 481.5,-714"/>
<text xml:space="preserve" text-anchor="middle" x="420.25" y="-700.5" font-family="Helvetica,sans-Serif" font-size="10.00">LGE::LxPath::GetParent</text>
</a>
</g>
</g>
<!-- Node1&#45;&gt;Node19 -->
<g id="edge24_Node000001_Node000019" class="edge">
<title>Node1&#45;&gt;Node19</title>
<g id="a_edge24_Node000001_Node000019"><a xlink:title=" ">
<path fill="none" stroke="#63b8ff" d="M60.03,-379.48C67.51,-429.11 101.83,-639.79 151,-680 209.32,-727.69 300.48,-724.86 360.05,-716.21"/>
<polygon fill="#63b8ff" stroke="#63b8ff" points="360.32,-719.71 369.66,-714.71 359.24,-712.79 360.32,-719.71"/>
</a>
</g>
</g>
<!-- Node20 -->
<g id="Node000020" class="node">
<title>Node20</title>
<g id="a_Node000020"><a xlink:href="namespaceLGE_1_1LxFile.html#a16bd14fd1af0cad0e89bcd8d5841e7fd" target="_top" xlink:title=" ">
<polygon fill="white" stroke="#666666" points="278,-360 180.25,-360 180.25,-340 278,-340 278,-360"/>
<text xml:space="preserve" text-anchor="middle" x="229.12" y="-346.5" font-family="Helvetica,sans-Serif" font-size="10.00">LGE::LxFile::IsFile</text>
</a>
</g>
</g>
<!-- Node1&#45;&gt;Node20 -->
<g id="edge27_Node000001_Node000020" class="edge">
<title>Node1&#45;&gt;Node20</title>
<g id="a_edge27_Node000001_Node000020"><a xlink:title=" ">
<path fill="none" stroke="#63b8ff" d="M115.45,-362.62C132.59,-360.7 151.43,-358.59 168.71,-356.65"/>
<polygon fill="#63b8ff" stroke="#63b8ff" points="168.76,-360.17 178.31,-355.58 167.98,-353.21 168.76,-360.17"/>
</a>
</g>
</g>
<!-- Node21 -->
<g id="Node000021" class="node">
<title>Node21</title>
<g id="a_Node000021"><a xlink:href="namespaceLGE_1_1VFS.html#abb5d35abfe80efe2f7a07394ad5b706a" target="_top" xlink:title=" ">
<polygon fill="white" stroke="#666666" points="663.25,-398 544.5,-398 544.5,-378 663.25,-378 663.25,-398"/>
<text xml:space="preserve" text-anchor="middle" x="603.88" y="-384.5" font-family="Helvetica,sans-Serif" font-size="10.00">LGE::VFS::IsReadOnly</text>
</a>
</g>
</g>
<!-- Node1&#45;&gt;Node21 -->
<g id="edge28_Node000001_Node000021" class="edge">
<title>Node1&#45;&gt;Node21</title>
<g id="a_edge28_Node000001_Node000021"><a xlink:title=" ">
<path fill="none" stroke="#63b8ff" d="M115.47,-370.99C215.93,-374.49 424.22,-381.76 533.12,-385.57"/>
<polygon fill="#63b8ff" stroke="#63b8ff" points="532.67,-389.05 542.78,-385.9 532.91,-382.06 532.67,-389.05"/>
</a>
</g>
</g>
<!-- Node22 -->
<g id="Node000022" class="node">
<title>Node22</title>
<g id="a_Node000022"><a xlink:href="namespaceLGE_1_1LxFile.html#a3f0ccc958d65ff868a0929079cb2686b" target="_top" xlink:title=" ">
<polygon fill="white" stroke="#666666" points="469.12,-436 371.38,-436 371.38,-416 469.12,-416 469.12,-436"/>
<text xml:space="preserve" text-anchor="middle" x="420.25" y="-422.5" font-family="Helvetica,sans-Serif" font-size="10.00">LGE::LxFile::Move</text>
</a>
</g>
</g>
<!-- Node1&#45;&gt;Node22 -->
<g id="edge32_Node000001_Node000022" class="edge">
<title>Node1&#45;&gt;Node22</title>
<g id="a_edge32_Node000001_Node000022"><a xlink:title=" ">
<path fill="none" stroke="#63b8ff" d="M82.35,-379.4C100.75,-386.96 127.02,-396.74 151,-402 221.78,-417.53 305.17,-423.05 359.97,-424.99"/>
<polygon fill="#63b8ff" stroke="#63b8ff" points="359.59,-428.48 369.7,-425.3 359.81,-421.48 359.59,-428.48"/>
</a>
</g>
</g>
<!-- Node23 -->
<g id="Node000023" class="node">
<title>Node23</title>
<g id="a_Node000023"><a xlink:href="namespaceLGE_1_1AssetRegistry.html#a0d24d4f767306e5ac5406f57ec1c5080" target="_top" xlink:title=" ">
<polygon fill="white" stroke="#666666" points="281,-246 177.25,-246 177.25,-214 281,-214 281,-246"/>
<text xml:space="preserve" text-anchor="start" x="185.25" y="-232.5" font-family="Helvetica,sans-Serif" font-size="10.00">LGE::AssetRegistry</text>
<text xml:space="preserve" text-anchor="middle" x="229.12" y="-220.5" font-family="Helvetica,sans-Serif" font-size="10.00">::Remove</text>
</a>
</g>
</g>
<!-- Node1&#45;&gt;Node23 -->
<g id="edge36_Node000001_Node000023" class="edge">
<title>Node1&#45;&gt;Node23</title>
<g id="a_edge36_Node000001_Node000023"><a xlink:title=" ">
<path fill="none" stroke="#63b8ff" d="M64.63,-358.82C77.87,-337.62 111.18,-288.37 151,-260 155.9,-256.51 161.26,-253.36 166.8,-250.53"/>
<polygon fill="#63b8ff" stroke="#63b8ff" points="167.97,-253.84 175.53,-246.42 164.99,-247.51 167.97,-253.84"/>
</a>
</g>
</g>
<!-- Node24 -->
<g id="Node000024" class="node">
<title>Node24</title>
<g id="a_Node000024"><a xlink:href="namespaceLGE_1_1LxPath.html#af4c0730f4c661bbb606d50ecf60daedc" target="_top" xlink:title=" ">
<polygon fill="white" stroke="#666666" points="305.75,-196 152.5,-196 152.5,-176 305.75,-176 305.75,-196"/>
<text xml:space="preserve" text-anchor="middle" x="229.12" y="-182.5" font-family="Helvetica,sans-Serif" font-size="10.00">LGE::LxPath::SanitizeFilename</text>
</a>
</g>
</g>
<!-- Node1&#45;&gt;Node24 -->
<g id="edge37_Node000001_Node000024" class="edge">
<title>Node1&#45;&gt;Node24</title>
<g id="a_edge37_Node000001_Node000024"><a xlink:title=" ">
<path fill="none" stroke="#63b8ff" d="M61.21,-358.62C69.37,-329.48 96.59,-246.31 151,-205 152.55,-203.82 154.16,-202.72 155.82,-201.69"/>
<polygon fill="#63b8ff" stroke="#63b8ff" points="157.24,-204.89 164.49,-197.16 154,-198.69 157.24,-204.89"/>
</a>
</g>
</g>
<!-- Node25 -->
<g id="Node000025" class="node">
<title>Node25</title>
<g id="a_Node000025"><a xlink:href="namespaceLGE_1_1LxPath.html#a30bfeffc37846007936752889ffa7a8c" target="_top" xlink:title=" ">
<polygon fill="white" stroke="#666666" points="667.38,-638 540.38,-638 540.38,-618 667.38,-618 667.38,-638"/>
<text xml:space="preserve" text-anchor="middle" x="603.88" y="-624.5" font-family="Helvetica,sans-Serif" font-size="10.00">LGE::LxPath::ToAbsolute</text>
</a>
</g>
</g>
<!-- Node1&#45;&gt;Node25 -->
<g id="edge38_Node000001_Node000025" class="edge">
<title>Node1&#45;&gt;Node25</title>
<g id="a_edge38_Node000001_Node000025"><a xlink:title=" ">
<path fill="none" stroke="#63b8ff" d="M58.88,-379.3C60.9,-417 73.45,-548.12 151,-604 209.46,-646.13 416.18,-640.2 528.65,-633.46"/>
<polygon fill="#63b8ff" stroke="#63b8ff" points="528.62,-636.97 538.39,-632.86 528.19,-629.98 528.62,-636.97"/>
</a>
</g>
</g>
<!-- Node29 -->
<g id="Node000029" class="node">
<title>Node29</title>
<g id="a_Node000029"><a xlink:href="namespaceLGE_1_1Policies.html#a00f8eda6c5f0e8b5773b4ff1abf1516a" target="_top" xlink:title=" ">
<polygon fill="white" stroke="#666666" points="307.25,-120 151,-120 151,-100 307.25,-100 307.25,-120"/>
<text xml:space="preserve" text-anchor="middle" x="229.12" y="-106.5" font-family="Helvetica,sans-Serif" font-size="10.00">LGE::Policies::ValidateFilename</text>
</a>
</g>
</g>
<!-- Node1&#45;&gt;Node29 -->
<g id="edge44_Node000001_Node000029" class="edge">
<title>Node1&#45;&gt;Node29</title>
<g id="a_edge44_Node000001_Node000029"><a xlink:title=" ">
<path fill="none" stroke="#63b8ff" d="M59.43,-358.81C63.3,-322.59 81.3,-198.77 151,-134 154.52,-130.72 158.49,-127.9 162.71,-125.45"/>
<polygon fill="#63b8ff" stroke="#63b8ff" points="164.16,-128.64 171.6,-121.09 161.08,-122.36 164.16,-128.64"/>
</a>
</g>
</g>
<!-- Node30 -->
<g id="Node000030" class="node">
<title>Node30</title>
<g id="a_Node000030"><a xlink:href="namespaceLGE_1_1Policies.html#a0e2710b0aac21ef7cbf72499f1318715" target="_top" xlink:title=" ">
<polygon fill="white" stroke="#666666" points="288.88,-82 169.38,-82 169.38,-50 288.88,-50 288.88,-82"/>
<text xml:space="preserve" text-anchor="start" x="177.38" y="-68.5" font-family="Helvetica,sans-Serif" font-size="10.00">LGE::Policies::Violation</text>
<text xml:space="preserve" text-anchor="middle" x="229.12" y="-56.5" font-family="Helvetica,sans-Serif" font-size="10.00">Message</text>
</a>
</g>
</g>
<!-- Node1&#45;&gt;Node30 -->
<g id="edge45_Node000001_Node000030" class="edge">
<title>Node1&#45;&gt;Node30</title>
<g id="a_edge45_Node000001_Node000030"><a xlink:title=" ">
<path fill="none" stroke="#63b8ff" d="M58.76,-358.73C60.35,-318.48 71.57,-169.82 151,-91 153.52,-88.5 156.28,-86.26 159.23,-84.23"/>
<polygon fill="#63b8ff" stroke="#63b8ff" points="160.93,-87.29 167.84,-79.26 157.43,-81.23 160.93,-87.29"/>
</a>
</g>
</g>
<!-- Node31 -->
<g id="Node000031" class="node">
<title>Node31</title>
<g id="a_Node000031"><a xlink:href="namespaceLGE_1_1Policies.html#a13f6a37ce35d3c7a341392ff21c45d49" target="_top" xlink:title=" ">
<polygon fill="white" stroke="#666666" points="288.88,-32 169.38,-32 169.38,0 288.88,0 288.88,-32"/>
<text xml:space="preserve" text-anchor="start" x="177.38" y="-18.5" font-family="Helvetica,sans-Serif" font-size="10.00">LGE::Policies::Violation</text>
<text xml:space="preserve" text-anchor="middle" x="229.12" y="-6.5" font-family="Helvetica,sans-Serif" font-size="10.00">ToError</text>
</a>
</g>
</g>
<!-- Node1&#45;&gt;Node31 -->
<g id="edge46_Node000001_Node000031" class="edge">
<title>Node1&#45;&gt;Node31</title>
<g id="a_edge46_Node000001_Node000031"><a xlink:title=" ">
<path fill="none" stroke="#63b8ff" d="M58.15,-358.79C57.23,-314.4 59.52,-136.08 151,-41 153.46,-38.45 156.18,-36.15 159.09,-34.09"/>
<polygon fill="#63b8ff" stroke="#63b8ff" points="160.79,-37.15 167.62,-29.05 157.23,-31.12 160.79,-37.15"/>
</a>
</g>
</g>
<!-- Node3 -->
<g id="Node000003" class="node">
<title>Node3</title>
<g id="a_Node000003"><a xlink:href="namespaceLGE_1_1AssetRegistry.html#abf12143e6f506efd22e4ec9ef670134a" target="_top" xlink:title=" ">
<polygon fill="white" stroke="#666666" points="497.25,-524 343.25,-524 343.25,-492 497.25,-492 497.25,-524"/>
<text xml:space="preserve" text-anchor="start" x="351.25" y="-510.5" font-family="Helvetica,sans-Serif" font-size="10.00">LGE::AssetRegistry</text>
<text xml:space="preserve" text-anchor="middle" x="420.25" y="-498.5" font-family="Helvetica,sans-Serif" font-size="10.00">::BuildReverseDependencyMap</text>
</a>
</g>
</g>
<!-- Node2&#45;&gt;Node3 -->
<g id="edge2_Node000002_Node000003" class="edge">
<title>Node2&#45;&gt;Node3</title>
<g id="a_edge2_Node000002_Node000003"><a xlink:title=" ">
<path fill="none" stroke="#63b8ff" d="M281.3,-508C296.83,-508 314.35,-508 331.56,-508"/>
<polygon fill="#63b8ff" stroke="#63b8ff" points="331.29,-511.5 341.29,-508 331.29,-504.5 331.29,-511.5"/>
</a>
</g>
</g>
<!-- Node13 -->
<g id="Node000013" class="node">
<title>Node13</title>
<g id="a_Node000013"><a xlink:href="namespaceLGE_1_1VFS.html#aee891612cc393155878775a61e486c0b" target="_top" xlink:title=" ">
<polygon fill="white" stroke="#666666" points="666.62,-436 541.12,-436 541.12,-416 666.62,-416 666.62,-436"/>
<text xml:space="preserve" text-anchor="middle" x="603.88" y="-422.5" font-family="Helvetica,sans-Serif" font-size="10.00">LGE::VFS::ToVirtualPath</text>
</a>
</g>
</g>
<!-- Node2&#45;&gt;Node13 -->
<g id="edge12_Node000002_Node000013" class="edge">
<title>Node2&#45;&gt;Node13</title>
<g id="a_edge12_Node000002_Node000013"><a xlink:title=" ">
<path fill="none" stroke="#63b8ff" d="M281.37,-496.66C300.75,-492.37 323.02,-487.46 343.25,-483 412.11,-467.83 491.25,-450.47 543.88,-438.93"/>
<polygon fill="#63b8ff" stroke="#63b8ff" points="544.52,-442.37 553.54,-436.81 543.02,-435.53 544.52,-442.37"/>
</a>
</g>
</g>
<!-- Node4 -->
<g id="Node000004" class="node">
<title>Node4</title>
<g id="a_Node000004"><a xlink:href="namespaceLGE_1_1AssetRegistry.html#ac315fdb87be485fe8103d455b7e8a464" target="_top" xlink:title=" ">
<polygon fill="white" stroke="#666666" points="655.75,-486 552,-486 552,-454 655.75,-454 655.75,-486"/>
<text xml:space="preserve" text-anchor="start" x="560" y="-472.5" font-family="Helvetica,sans-Serif" font-size="10.00">LGE::AssetRegistry</text>
<text xml:space="preserve" text-anchor="middle" x="603.88" y="-460.5" font-family="Helvetica,sans-Serif" font-size="10.00">::FindByPath</text>
</a>
</g>
</g>
<!-- Node3&#45;&gt;Node4 -->
<g id="edge3_Node000003_Node000004" class="edge">
<title>Node3&#45;&gt;Node4</title>
<g id="a_edge3_Node000003_Node000004"><a xlink:title=" ">
<path fill="none" stroke="#63b8ff" d="M497.75,-491.99C512.13,-488.99 527,-485.87 540.88,-482.97"/>
<polygon fill="#63b8ff" stroke="#63b8ff" points="541.2,-486.48 550.28,-481 539.77,-479.63 541.2,-486.48"/>
</a>
</g>
</g>
<!-- Node3&#45;&gt;Node6 -->
<g id="edge5_Node000003_Node000006" class="edge">
<title>Node3&#45;&gt;Node6</title>
<g id="a_edge5_Node000003_Node000006"><a xlink:title=" ">
<path fill="none" stroke="#63b8ff" d="M489.14,-524.45C510.11,-529.53 532.83,-535.03 552.41,-539.77"/>
<polygon fill="#63b8ff" stroke="#63b8ff" points="551.52,-543.16 562.06,-542.11 553.17,-536.36 551.52,-543.16"/>
</a>
</g>
</g>
<!-- Node7 -->
<g id="Node000007" class="node">
<title>Node7</title>
<g id="a_Node000007"><a xlink:href="namespaceLGE_1_1VFS.html#a9eb41e42c96a4f5358c79e30afb579cc" target="_top" xlink:title=" ">
<polygon fill="white" stroke="#666666" points="674.5,-524 533.25,-524 533.25,-504 674.5,-504 674.5,-524"/>
<text xml:space="preserve" text-anchor="middle" x="603.88" y="-510.5" font-family="Helvetica,sans-Serif" font-size="10.00">LGE::VFS::ResolveAbsolute</text>
</a>
</g>
</g>
<!-- Node3&#45;&gt;Node7 -->
<g id="edge6_Node000003_Node000007" class="edge">
<title>Node3&#45;&gt;Node7</title>
<g id="a_edge6_Node000003_Node000007"><a xlink:title=" ">
<path fill="none" stroke="#63b8ff" d="M497.75,-510.53C505.57,-510.79 513.53,-511.05 521.39,-511.31"/>
<polygon fill="#63b8ff" stroke="#63b8ff" points="521.2,-514.8 531.31,-511.64 521.43,-507.81 521.2,-514.8"/>
</a>
</g>
</g>
<!-- Node5 -->
<g id="Node000005" class="node">
<title>Node5</title>
<g id="a_Node000005"><a xlink:href="namespaceLGE_1_1AssetRegistry.html#a9e672f9e3c8c62076b9156d1695e48b8" target="_top" xlink:title=" ">
<polygon fill="white" stroke="#666666" points="831.5,-524 727.75,-524 727.75,-492 831.5,-492 831.5,-524"/>
<text xml:space="preserve" text-anchor="start" x="735.75" y="-510.5" font-family="Helvetica,sans-Serif" font-size="10.00">LGE::AssetRegistry</text>
<text xml:space="preserve" text-anchor="middle" x="779.62" y="-498.5" font-family="Helvetica,sans-Serif" font-size="10.00">::FindByGUID</text>
</a>
</g>
</g>
<!-- Node4&#45;&gt;Node5 -->
<g id="edge4_Node000004_Node000005" class="edge">
<title>Node4&#45;&gt;Node5</title>
<g id="a_edge4_Node000004_Node000005"><a xlink:title=" ">
<path fill="none" stroke="#63b8ff" d="M656.07,-481.2C674.98,-485.33 696.63,-490.07 716.42,-494.39"/>
<polygon fill="#63b8ff" stroke="#63b8ff" points="715.5,-497.78 726.02,-496.5 717,-490.94 715.5,-497.78"/>
</a>
</g>
</g>
<!-- Node8 -->
<g id="Node000008" class="node">
<title>Node8</title>
<g id="a_Node000008"><a xlink:href="namespaceLGE_1_1VFS.html#a0566c02123208c6b867418e914f9574b" target="_top" xlink:title=" ">
<polygon fill="white" stroke="#666666" points="834.5,-562 724.75,-562 724.75,-542 834.5,-542 834.5,-562"/>
<text xml:space="preserve" text-anchor="middle" x="779.62" y="-548.5" font-family="Helvetica,sans-Serif" font-size="10.00">LGE::VFS::GetMount</text>
</a>
</g>
</g>
<!-- Node7&#45;&gt;Node8 -->
<g id="edge7_Node000007_Node000008" class="edge">
<title>Node7&#45;&gt;Node8</title>
<g id="a_edge7_Node000007_Node000008"><a xlink:title=" ">
<path fill="none" stroke="#63b8ff" d="M652.81,-524.48C673.51,-529.01 697.93,-534.35 719.72,-539.12"/>
<polygon fill="#63b8ff" stroke="#63b8ff" points="718.85,-542.51 729.36,-541.23 720.34,-535.67 718.85,-542.51"/>
</a>
</g>
</g>
<!-- Node7&#45;&gt;Node9 -->
<g id="edge8_Node000007_Node000009" class="edge">
<title>Node7&#45;&gt;Node9</title>
<g id="a_edge8_Node000007_Node000009"><a xlink:title=" ">
<path fill="none" stroke="#63b8ff" d="M660.69,-524.39C665.66,-526.71 670.37,-529.54 674.5,-533 703.15,-557 681.92,-584.92 710.5,-609 713.69,-611.69 717.24,-614 720.99,-615.99"/>
<polygon fill="#63b8ff" stroke="#63b8ff" points="719.34,-619.08 729.9,-619.9 722.15,-612.67 719.34,-619.08"/>
</a>
</g>
</g>
<!-- Node7&#45;&gt;Node12 -->
<g id="edge11_Node000007_Node000012" class="edge">
<title>Node7&#45;&gt;Node12</title>
<g id="a_edge11_Node000007_Node000012"><a xlink:title=" ">
<path fill="none" stroke="#63b8ff" d="M656.03,-524.46C662.48,-526.78 668.8,-529.59 674.5,-533 694.46,-544.95 690.57,-558.99 710.5,-571 715.31,-573.9 720.57,-576.36 725.97,-578.46"/>
<polygon fill="#63b8ff" stroke="#63b8ff" points="724.42,-581.63 735.01,-581.57 726.69,-575.01 724.42,-581.63"/>
</a>
</g>
</g>
<!-- Node10 -->
<g id="Node000010" class="node">
<title>Node10</title>
<g id="a_Node000010"><a xlink:href="namespaceLGE_1_1LxPath.html#a314a60ce690c90f4ee0b4e64c0199408" target="_top" xlink:title=" ">
<polygon fill="white" stroke="#666666" points="1007.25,-417 884.75,-417 884.75,-397 1007.25,-397 1007.25,-417"/>
<text xml:space="preserve" text-anchor="middle" x="946" y="-403.5" font-family="Helvetica,sans-Serif" font-size="10.00">LGE::LxPath::Normalize</text>
</a>
</g>
</g>
<!-- Node9&#45;&gt;Node10 -->
<g id="edge9_Node000009_Node000010" class="edge">
<title>Node9&#45;&gt;Node10</title>
<g id="a_edge9_Node000009_Node000010"><a xlink:title=" ">
<path fill="none" stroke="#63b8ff" d="M827.95,-620.5C835.47,-617.77 842.73,-614.06 848.75,-609 906.42,-560.52 931.95,-469.56 940.94,-428.31"/>
<polygon fill="#63b8ff" stroke="#63b8ff" points="944.33,-429.19 942.91,-418.69 937.48,-427.78 944.33,-429.19"/>
</a>
</g>
</g>
<!-- Node10&#45;&gt;Node11 -->
<g id="edge10_Node000010_Node000011" class="edge">
<title>Node10&#45;&gt;Node11</title>
<g id="a_edge10_Node000010_Node000011"><a xlink:title=" ">
<path fill="none" stroke="#63b8ff" d="M965.24,-396.64C988.54,-383.41 1029.1,-360.39 1056.33,-344.92"/>
<polygon fill="#63b8ff" stroke="#63b8ff" points="1057.77,-348.13 1064.74,-340.15 1054.32,-342.04 1057.77,-348.13"/>
</a>
</g>
</g>
<!-- Node13&#45;&gt;Node10 -->
<g id="edge15_Node000013_Node000010" class="edge">
<title>Node13&#45;&gt;Node10</title>
<g id="a_edge15_Node000013_Node000010"><a xlink:title=" ">
<path fill="none" stroke="#63b8ff" d="M649.32,-436.46C698.5,-446.42 779.91,-458.1 848.75,-445 871.76,-440.62 896.31,-430.84 914.85,-422.3"/>
<polygon fill="#63b8ff" stroke="#63b8ff" points="916.12,-425.57 923.65,-418.12 913.12,-419.25 916.12,-425.57"/>
</a>
</g>
</g>
<!-- Node14 -->
<g id="Node000014" class="node">
<title>Node14</title>
<g id="a_Node000014"><a xlink:href="namespaceLGE_1_1LxPath.html#ab664986e94ce09aa029f9eb2fcf50133" target="_top" xlink:title=" ">
<polygon fill="white" stroke="#666666" points="841.62,-436 717.62,-436 717.62,-416 841.62,-416 841.62,-436"/>
<text xml:space="preserve" text-anchor="middle" x="779.62" y="-422.5" font-family="Helvetica,sans-Serif" font-size="10.00">LGE::LxPath::IsSubPath</text>
</a>
</g>
</g>
<!-- Node13&#45;&gt;Node14 -->
<g id="edge13_Node000013_Node000014" class="edge">
<title>Node13&#45;&gt;Node14</title>
<g id="a_edge13_Node000013_Node000014"><a xlink:title=" ">
<path fill="none" stroke="#63b8ff" d="M667.11,-426C679.76,-426 693.18,-426 706.15,-426"/>
<polygon fill="#63b8ff" stroke="#63b8ff" points="705.89,-429.5 715.89,-426 705.89,-422.5 705.89,-429.5"/>
</a>
</g>
</g>
<!-- Node14&#45;&gt;Node10 -->
<g id="edge14_Node000014_Node000010" class="edge">
<title>Node14&#45;&gt;Node10</title>
<g id="a_edge14_Node000014_Node000010"><a xlink:title=" ">
<path fill="none" stroke="#63b8ff" d="M841.83,-418.93C852.02,-417.75 862.67,-416.52 873.1,-415.31"/>
<polygon fill="#63b8ff" stroke="#63b8ff" points="873.25,-418.82 882.79,-414.19 872.45,-411.86 873.25,-418.82"/>
</a>
</g>
</g>
<!-- Node15&#45;&gt;Node10 -->
<g id="edge18_Node000015_Node000010" class="edge">
<title>Node15&#45;&gt;Node10</title>
<g id="a_edge18_Node000015_Node000010"><a xlink:title=" ">
<path fill="none" stroke="#63b8ff" d="M825.4,-284.39C833.52,-288.27 841.66,-292.81 848.75,-298 883.55,-323.43 914.74,-363.42 931.66,-387.24"/>
<polygon fill="#63b8ff" stroke="#63b8ff" points="928.76,-389.2 937.34,-395.41 934.51,-385.2 928.76,-389.2"/>
</a>
</g>
</g>
<!-- Node15&#45;&gt;Node11 -->
<g id="edge17_Node000015_Node000011" class="edge">
<title>Node15&#45;&gt;Node11</title>
<g id="a_edge17_Node000015_Node000011"><a xlink:title=" ">
<path fill="none" stroke="#63b8ff" d="M849.17,-281.77C904.64,-292.91 981.6,-308.36 1032.16,-318.51"/>
<polygon fill="#63b8ff" stroke="#63b8ff" points="1031.18,-321.89 1041.67,-320.42 1032.56,-315.02 1031.18,-321.89"/>
</a>
</g>
</g>
<!-- Node18 -->
<g id="Node000018" class="node">
<title>Node18</title>
<g id="a_Node000018"><a xlink:href="namespaceLGE_1_1LxPath.html#a282200340a7ec214f14f5d64e9e41396" target="_top" xlink:title=" ">
<polygon fill="white" stroke="#666666" points="487.12,-322 353.38,-322 353.38,-302 487.12,-302 487.12,-322"/>
<text xml:space="preserve" text-anchor="middle" x="420.25" y="-308.5" font-family="Helvetica,sans-Serif" font-size="10.00">LGE::LxPath::GetFilename</text>
</a>
</g>
</g>
<!-- Node17&#45;&gt;Node18 -->
<g id="edge22_Node000017_Node000018" class="edge">
<title>Node17&#45;&gt;Node18</title>
<g id="a_edge22_Node000017_Node000018"><a xlink:title=" ">
<path fill="none" stroke="#63b8ff" d="M298.14,-312C312.26,-312 327.24,-312 341.67,-312"/>
<polygon fill="#63b8ff" stroke="#63b8ff" points="341.59,-315.5 351.59,-312 341.59,-308.5 341.59,-315.5"/>
</a>
</g>
</g>
<!-- Node18&#45;&gt;Node10 -->
<g id="edge23_Node000018_Node000010" class="edge">
<title>Node18&#45;&gt;Node10</title>
<g id="a_edge23_Node000018_Node000010"><a xlink:title=" ">
<path fill="none" stroke="#63b8ff" d="M479.05,-322.48C576.23,-340.11 771.94,-375.61 876.1,-394.5"/>
<polygon fill="#63b8ff" stroke="#63b8ff" points="875.47,-397.95 885.93,-396.29 876.72,-391.06 875.47,-397.95"/>
</a>
</g>
</g>
<!-- Node19&#45;&gt;Node10 -->
<g id="edge25_Node000019_Node000010" class="edge">
<title>Node19&#45;&gt;Node10</title>
<g id="a_edge25_Node000019_Node000010"><a xlink:title=" ">
<path fill="none" stroke="#63b8ff" d="M481.75,-714.21C572.3,-725.87 743.65,-733.44 848.75,-647 917.83,-590.19 937.68,-476.44 943.09,-428.79"/>
<polygon fill="#63b8ff" stroke="#63b8ff" points="946.56,-429.25 944.09,-418.95 939.6,-428.55 946.56,-429.25"/>
</a>
</g>
</g>
<!-- Node21&#45;&gt;Node10 -->
<g id="edge30_Node000021_Node000010" class="edge">
<title>Node21&#45;&gt;Node10</title>
<g id="a_edge30_Node000021_Node000010"><a xlink:title=" ">
<path fill="none" stroke="#63b8ff" d="M663.73,-391.29C721.82,-394.53 810.72,-399.5 872.98,-402.98"/>
<polygon fill="#63b8ff" stroke="#63b8ff" points="872.6,-406.46 882.78,-403.52 872.99,-399.47 872.6,-406.46"/>
</a>
</g>
</g>
<!-- Node21&#45;&gt;Node14 -->
<g id="edge29_Node000021_Node000014" class="edge">
<title>Node21&#45;&gt;Node14</title>
<g id="a_edge29_Node000021_Node000014"><a xlink:title=" ">
<path fill="none" stroke="#63b8ff" d="M652.81,-398.48C673.51,-403.01 697.93,-408.35 719.72,-413.12"/>
<polygon fill="#63b8ff" stroke="#63b8ff" points="718.85,-416.51 729.36,-415.23 720.34,-409.67 718.85,-416.51"/>
</a>
</g>
</g>
<!-- Node22&#45;&gt;Node11 -->
<g id="edge33_Node000022_Node000011" class="edge">
<title>Node22&#45;&gt;Node11</title>
<g id="a_edge33_Node000022_Node000011"><a xlink:title=" ">
<path fill="none" stroke="#63b8ff" d="M436.75,-415.57C457.64,-402.12 496.47,-379.24 533.25,-369 710.82,-319.55 932.31,-321.8 1031.75,-325.99"/>
<polygon fill="#63b8ff" stroke="#63b8ff" points="1031.32,-329.48 1041.47,-326.43 1031.64,-322.49 1031.32,-329.48"/>
</a>
</g>
</g>
<!-- Node22&#45;&gt;Node13 -->
<g id="edge35_Node000022_Node000013" class="edge">
<title>Node22&#45;&gt;Node13</title>
<g id="a_edge35_Node000022_Node000013"><a xlink:title=" ">
<path fill="none" stroke="#63b8ff" d="M469.45,-426C487.8,-426 509.17,-426 529.35,-426"/>
<polygon fill="#63b8ff" stroke="#63b8ff" points="529.22,-429.5 539.22,-426 529.22,-422.5 529.22,-429.5"/>
</a>
</g>
</g>
<!-- Node22&#45;&gt;Node21 -->
<g id="edge34_Node000022_Node000021" class="edge">
<title>Node22&#45;&gt;Node21</title>
<g id="a_edge34_Node000022_Node000021"><a xlink:title=" ">
<path fill="none" stroke="#63b8ff" d="M469.45,-415.92C491.67,-411.27 518.31,-405.69 541.91,-400.76"/>
<polygon fill="#63b8ff" stroke="#63b8ff" points="542.32,-404.25 551.39,-398.77 540.88,-397.39 542.32,-404.25"/>
</a>
</g>
</g>
<!-- Node25&#45;&gt;Node9 -->
<g id="edge42_Node000025_Node000009" class="edge">
<title>Node25&#45;&gt;Node9</title>
<g id="a_edge42_Node000025_Node000009"><a xlink:title=" ">
<path fill="none" stroke="#63b8ff" d="M667.6,-628C684.66,-628 703.07,-628 719.9,-628"/>
<polygon fill="#63b8ff" stroke="#63b8ff" points="719.75,-631.5 729.75,-628 719.75,-624.5 719.75,-631.5"/>
</a>
</g>
</g>
<!-- Node25&#45;&gt;Node12 -->
<g id="edge43_Node000025_Node000012" class="edge">
<title>Node25&#45;&gt;Node12</title>
<g id="a_edge43_Node000025_Node000012"><a xlink:title=" ">
<path fill="none" stroke="#63b8ff" d="M652.81,-617.52C675.34,-612.59 702.28,-606.7 725.44,-601.63"/>
<polygon fill="#63b8ff" stroke="#63b8ff" points="725.96,-605.1 734.99,-599.54 724.47,-598.26 725.96,-605.1"/>
</a>
</g>
</g>
<!-- Node26 -->
<g id="Node000026" class="node">
<title>Node26</title>
<g id="a_Node000026"><a xlink:href="namespaceLGE_1_1LxPath.html#a012b60f3a9d31adc62694d2a4617c604" target="_top" xlink:title=" ">
<polygon fill="white" stroke="#666666" points="847.25,-752 712,-752 712,-732 847.25,-732 847.25,-752"/>
<text xml:space="preserve" text-anchor="middle" x="779.62" y="-738.5" font-family="Helvetica,sans-Serif" font-size="10.00">LGE::LxPath::GetRootPath</text>
</a>
</g>
</g>
<!-- Node25&#45;&gt;Node26 -->
<g id="edge39_Node000025_Node000026" class="edge">
<title>Node25&#45;&gt;Node26</title>
<g id="a_edge39_Node000025_Node000026"><a xlink:title=" ">
<path fill="none" stroke="#63b8ff" d="M620.6,-638.32C650.76,-658.11 716.97,-701.55 753.38,-725.44"/>
<polygon fill="#63b8ff" stroke="#63b8ff" points="751.26,-728.23 761.54,-730.79 755.1,-722.38 751.26,-728.23"/>
</a>
</g>
</g>
<!-- Node27 -->
<g id="Node000027" class="node">
<title>Node27</title>
<g id="a_Node000027"><a xlink:href="namespaceLGE_1_1LxFS.html#a5684a30f3fa2906f4dafed0258a79166" target="_top" xlink:title=" ">
<polygon fill="white" stroke="#666666" points="1006.12,-771 885.88,-771 885.88,-751 1006.12,-751 1006.12,-771"/>
<text xml:space="preserve" text-anchor="middle" x="946" y="-757.5" font-family="Helvetica,sans-Serif" font-size="10.00">LGE::LxFS::IsInitialized</text>
</a>
</g>
</g>
<!-- Node26&#45;&gt;Node27 -->
<g id="edge40_Node000026_Node000027" class="edge">
<title>Node26&#45;&gt;Node27</title>
<g id="a_edge40_Node000026_Node000027"><a xlink:title=" ">
<path fill="none" stroke="#63b8ff" d="M847.48,-749.73C856.36,-750.75 865.48,-751.81 874.41,-752.84"/>
<polygon fill="#63b8ff" stroke="#63b8ff" points="873.76,-756.29 884.1,-753.96 874.56,-749.33 873.76,-756.29"/>
</a>
</g>
</g>
<!-- Node28 -->
<g id="Node000028" class="node">
<title>Node28</title>
<g id="a_Node000028"><a xlink:href="namespaceLGE_1_1LxFS.html#a12aeb6699602f14153953dceb4284914" target="_top" xlink:title=" ">
<polygon fill="white" stroke="#666666" points="994.12,-733 897.88,-733 897.88,-713 994.12,-713 994.12,-733"/>
<text xml:space="preserve" text-anchor="middle" x="946" y="-719.5" font-family="Helvetica,sans-Serif" font-size="10.00">LGE::LxFS::Paths</text>
</a>
</g>
</g>
<!-- Node26&#45;&gt;Node28 -->
<g id="edge41_Node000026_Node000028" class="edge">
<title>Node26&#45;&gt;Node28</title>
<g id="a_edge41_Node000026_Node000028"><a xlink:title=" ">
<path fill="none" stroke="#63b8ff" d="M847.48,-734.27C860.41,-732.78 873.87,-731.22 886.5,-729.76"/>
<polygon fill="#63b8ff" stroke="#63b8ff" points="886.81,-733.25 896.34,-728.62 886,-726.3 886.81,-733.25"/>
</a>
</g>
</g>
</g>
</svg>
