<?xml version="1.0" encoding="UTF-8" standalone="no"?>
<!DOCTYPE svg PUBLIC "-//W3C//DTD SVG 1.1//EN"
 "http://www.w3.org/Graphics/SVG/1.1/DTD/svg11.dtd">
<!-- Generated by graphviz version 14.0.2 (20251019.1705)
 -->
<!-- Title: LGE::Search::InMount Pages: 1 -->
<svg width="486pt" height="110pt"
 viewBox="0.00 0.00 486.00 110.00" xmlns="http://www.w3.org/2000/svg" xmlns:xlink="http://www.w3.org/1999/xlink">
<g id="graph0" class="graph" transform="scale(1 1) rotate(0) translate(4 106)">
<title>LGE::Search::InMount</title>
<!-- Node1 -->
<g id="Node000001" class="node">
<title>Node1</title>
<g id="a_Node000001"><a xlink:title=" ">
<polygon fill="#999999" stroke="#666666" points="113.5,-58 0,-58 0,-38 113.5,-38 113.5,-58"/>
<text xml:space="preserve" text-anchor="middle" x="56.75" y="-44.5" font-family="Helvetica,sans-Serif" font-size="10.00">LGE::Search::InMount</text>
</a>
</g>
</g>
<!-- Node2 -->
<g id="Node000002" class="node">
<title>Node2</title>
<g id="a_Node000002"><a xlink:href="classLGE_1_1SearchQuery.html#a36037a1b2c62d4ffbeb673e1ec702cb7" target="_top" xlink:title=" ">
<polygon fill="white" stroke="#666666" points="298.25,-96 157.75,-96 157.75,-76 298.25,-76 298.25,-96"/>
<text xml:space="preserve" text-anchor="middle" x="228" y="-82.5" font-family="Helvetica,sans-Serif" font-size="10.00">LGE::SearchQuery::Execute</text>
</a>
</g>
</g>
<!-- Node1&#45;&gt;Node2 -->
<g id="edge1_Node000001_Node000002" class="edge">
<title>Node1&#45;&gt;Node2</title>
<g id="a_edge1_Node000001_Node000002"><a xlink:title=" ">
<path fill="none" stroke="#63b8ff" d="M104.45,-58.48C124.52,-62.99 148.18,-68.3 169.33,-73.05"/>
<polygon fill="#63b8ff" stroke="#63b8ff" points="168.46,-76.44 178.98,-75.22 169.99,-69.61 168.46,-76.44"/>
</a>
</g>
</g>
<!-- Node4 -->
<g id="Node000004" class="node">
<title>Node4</title>
<g id="a_Node000004"><a xlink:href="classLGE_1_1SearchQuery.html#adbbef77188703d0df9f20960568f2d17" target="_top" xlink:title=" ">
<polygon fill="white" stroke="#666666" points="306.5,-58 149.5,-58 149.5,-38 306.5,-38 306.5,-58"/>
<text xml:space="preserve" text-anchor="middle" x="228" y="-44.5" font-family="Helvetica,sans-Serif" font-size="10.00">LGE::SearchQuery::MaxResults</text>
</a>
</g>
</g>
<!-- Node1&#45;&gt;Node4 -->
<g id="edge3_Node000001_Node000004" class="edge">
<title>Node1&#45;&gt;Node4</title>
<g id="a_edge3_Node000001_Node000004"><a xlink:title=" ">
<path fill="none" stroke="#63b8ff" d="M113.64,-48C121.45,-48 129.63,-48 137.87,-48"/>
<polygon fill="#63b8ff" stroke="#63b8ff" points="137.6,-51.5 147.6,-48 137.6,-44.5 137.6,-51.5"/>
</a>
</g>
</g>
<!-- Node6 -->
<g id="Node000006" class="node">
<title>Node6</title>
<g id="a_Node000006"><a xlink:href="classLGE_1_1SearchQuery.html#a93e3fbb6b079a9a97d9a6824ec4b46fb" target="_top" xlink:title=" ">
<polygon fill="white" stroke="#666666" points="293.75,-20 162.25,-20 162.25,0 293.75,0 293.75,-20"/>
<text xml:space="preserve" text-anchor="middle" x="228" y="-6.5" font-family="Helvetica,sans-Serif" font-size="10.00">LGE::SearchQuery::Mount</text>
</a>
</g>
</g>
<!-- Node1&#45;&gt;Node6 -->
<g id="edge5_Node000001_Node000006" class="edge">
<title>Node1&#45;&gt;Node6</title>
<g id="a_edge5_Node000001_Node000006"><a xlink:title=" ">
<path fill="none" stroke="#63b8ff" d="M104.45,-37.52C124.52,-33.01 148.18,-27.7 169.33,-22.95"/>
<polygon fill="#63b8ff" stroke="#63b8ff" points="169.99,-26.39 178.98,-20.78 168.46,-19.56 169.99,-26.39"/>
</a>
</g>
</g>
<!-- Node3 -->
<g id="Node000003" class="node">
<title>Node3</title>
<g id="a_Node000003"><a xlink:href="namespaceLGE_1_1AssetRegistry.html#ac9aa62a1e0c929e88bec00618b489988" target="_top" xlink:title=" ">
<polygon fill="white" stroke="#666666" points="462,-102 358.25,-102 358.25,-70 462,-70 462,-102"/>
<text xml:space="preserve" text-anchor="start" x="366.25" y="-88.5" font-family="Helvetica,sans-Serif" font-size="10.00">LGE::AssetRegistry</text>
<text xml:space="preserve" text-anchor="middle" x="410.12" y="-76.5" font-family="Helvetica,sans-Serif" font-size="10.00">::GetAllAssets</text>
</a>
</g>
</g>
<!-- Node2&#45;&gt;Node3 -->
<g id="edge2_Node000002_Node000003" class="edge">
<title>Node2&#45;&gt;Node3</title>
<g id="a_edge2_Node000002_Node000003"><a xlink:title=" ">
<path fill="none" stroke="#63b8ff" d="M298.64,-86C314.34,-86 330.91,-86 346.31,-86"/>
<polygon fill="#63b8ff" stroke="#63b8ff" points="346.31,-89.5 356.31,-86 346.31,-82.5 346.31,-89.5"/>
</a>
</g>
</g>
<!-- Node5 -->
<g id="Node000005" class="node">
<title>Node5</title>
<g id="a_Node000005"><a xlink:href="classLGE_1_1SearchQuery.html#a8a2cf5c9494b59e14b3956728ed4caa7" target="_top" xlink:title=" ">
<polygon fill="white" stroke="#666666" points="477.75,-39 342.5,-39 342.5,-7 477.75,-7 477.75,-39"/>
<text xml:space="preserve" text-anchor="start" x="350.5" y="-25.5" font-family="Helvetica,sans-Serif" font-size="10.00">LGE::SearchQuery::Search</text>
<text xml:space="preserve" text-anchor="middle" x="410.12" y="-13.5" font-family="Helvetica,sans-Serif" font-size="10.00">Query</text>
</a>
</g>
</g>
<!-- Node4&#45;&gt;Node5 -->
<g id="edge4_Node000004_Node000005" class="edge">
<title>Node4&#45;&gt;Node5</title>
<g id="a_edge4_Node000004_Node000005"><a xlink:title=" ">
<path fill="none" stroke="#63b8ff" d="M304.61,-37.51C313.24,-36.31 322.06,-35.08 330.73,-33.88"/>
<polygon fill="#63b8ff" stroke="#63b8ff" points="331.09,-37.36 340.52,-32.52 330.13,-30.43 331.09,-37.36"/>
</a>
</g>
</g>
<!-- Node6&#45;&gt;Node5 -->
<g id="edge6_Node000006_Node000005" class="edge">
<title>Node6&#45;&gt;Node5</title>
<g id="a_edge6_Node000006_Node000005"><a xlink:title=" ">
<path fill="none" stroke="#63b8ff" d="M294.03,-14.69C305.99,-15.56 318.59,-16.47 330.89,-17.35"/>
<polygon fill="#63b8ff" stroke="#63b8ff" points="330.33,-20.82 340.56,-18.05 330.84,-13.84 330.33,-20.82"/>
</a>
</g>
</g>
</g>
</svg>
