<?xml version="1.0" encoding="UTF-8" standalone="no"?>
<!DOCTYPE svg PUBLIC "-//W3C//DTD SVG 1.1//EN"
 "http://www.w3.org/Graphics/SVG/1.1/DTD/svg11.dtd">
<!-- Generated by graphviz version 14.0.2 (20251019.1705)
 -->
<!-- Title: LGE::Policies::GetMountName Pages: 1 -->
<svg width="598pt" height="104pt"
 viewBox="0.00 0.00 598.00 104.00" xmlns="http://www.w3.org/2000/svg" xmlns:xlink="http://www.w3.org/1999/xlink">
<g id="graph0" class="graph" transform="scale(1 1) rotate(0) translate(4 100)">
<title>LGE::Policies::GetMountName</title>
<!-- Node1 -->
<g id="Node000001" class="node">
<title>Node1</title>
<g id="a_Node000001"><a xlink:title=" ">
<polygon fill="#999999" stroke="#666666" points="151,-58 0,-58 0,-38 151,-38 151,-58"/>
<text xml:space="preserve" text-anchor="middle" x="75.5" y="-44.5" font-family="Helvetica,sans-Serif" font-size="10.00">LGE::Policies::GetMountName</text>
</a>
</g>
</g>
<!-- Node2 -->
<g id="Node000002" class="node">
<title>Node2</title>
<g id="a_Node000002"><a xlink:href="namespaceLGE_1_1LxPath.html#ab664986e94ce09aa029f9eb2fcf50133" target="_top" xlink:title=" ">
<polygon fill="white" stroke="#666666" points="311,-96 187,-96 187,-76 311,-76 311,-96"/>
<text xml:space="preserve" text-anchor="middle" x="249" y="-82.5" font-family="Helvetica,sans-Serif" font-size="10.00">LGE::LxPath::IsSubPath</text>
</a>
</g>
</g>
<!-- Node1&#45;&gt;Node2 -->
<g id="edge1_Node000001_Node000002" class="edge">
<title>Node1&#45;&gt;Node2</title>
<g id="a_edge1_Node000001_Node000002"><a xlink:title=" ">
<path fill="none" stroke="#63b8ff" d="M123.82,-58.48C144.25,-63.01 168.35,-68.35 189.86,-73.12"/>
<polygon fill="#63b8ff" stroke="#63b8ff" points="188.84,-76.48 199.36,-75.22 190.35,-69.64 188.84,-76.48"/>
</a>
</g>
</g>
<!-- Node3 -->
<g id="Node000003" class="node">
<title>Node3</title>
<g id="a_Node000003"><a xlink:href="namespaceLGE_1_1LxPath.html#a314a60ce690c90f4ee0b4e64c0199408" target="_top" xlink:title=" ">
<polygon fill="white" stroke="#666666" points="469.5,-77 347,-77 347,-57 469.5,-57 469.5,-77"/>
<text xml:space="preserve" text-anchor="middle" x="408.25" y="-63.5" font-family="Helvetica,sans-Serif" font-size="10.00">LGE::LxPath::Normalize</text>
</a>
</g>
</g>
<!-- Node1&#45;&gt;Node3 -->
<g id="edge5_Node000001_Node000003" class="edge">
<title>Node1&#45;&gt;Node3</title>
<g id="a_edge5_Node000001_Node000003"><a xlink:title=" ">
<path fill="none" stroke="#63b8ff" d="M151.14,-52.29C206.28,-55.46 280.92,-59.74 335.39,-62.87"/>
<polygon fill="#63b8ff" stroke="#63b8ff" points="335,-66.36 345.18,-63.43 335.4,-59.37 335,-66.36"/>
</a>
</g>
</g>
<!-- Node5 -->
<g id="Node000005" class="node">
<title>Node5</title>
<g id="a_Node000005"><a xlink:href="namespaceLGE_1_1VFS.html#a2c64330fbe1cbd5f66e79c29b43c3e87" target="_top" xlink:title=" ">
<polygon fill="white" stroke="#666666" points="306.5,-20 191.5,-20 191.5,0 306.5,0 306.5,-20"/>
<text xml:space="preserve" text-anchor="middle" x="249" y="-6.5" font-family="Helvetica,sans-Serif" font-size="10.00">LGE::VFS::ListMounts</text>
</a>
</g>
</g>
<!-- Node1&#45;&gt;Node5 -->
<g id="edge4_Node000001_Node000005" class="edge">
<title>Node1&#45;&gt;Node5</title>
<g id="a_edge4_Node000001_Node000005"><a xlink:title=" ">
<path fill="none" stroke="#63b8ff" d="M123.82,-37.52C144.25,-32.99 168.35,-27.65 189.86,-22.88"/>
<polygon fill="#63b8ff" stroke="#63b8ff" points="190.35,-26.36 199.36,-20.78 188.84,-19.52 190.35,-26.36"/>
</a>
</g>
</g>
<!-- Node2&#45;&gt;Node3 -->
<g id="edge2_Node000002_Node000003" class="edge">
<title>Node2&#45;&gt;Node3</title>
<g id="a_edge2_Node000002_Node000003"><a xlink:title=" ">
<path fill="none" stroke="#63b8ff" d="M311.25,-78.6C319.16,-77.64 327.32,-76.66 335.38,-75.68"/>
<polygon fill="#63b8ff" stroke="#63b8ff" points="335.68,-79.17 345.18,-74.5 334.84,-72.22 335.68,-79.17"/>
</a>
</g>
</g>
<!-- Node4 -->
<g id="Node000004" class="node">
<title>Node4</title>
<g id="a_Node000004"><a xlink:href="classLGE_1_1Log.html#a53f3f4b8797ffd18145739c9e66d690a" target="_top" xlink:title=" ">
<polygon fill="white" stroke="#666666" points="589.75,-77 505.5,-77 505.5,-57 589.75,-57 589.75,-77"/>
<text xml:space="preserve" text-anchor="middle" x="547.62" y="-63.5" font-family="Helvetica,sans-Serif" font-size="10.00">LGE::Log::Error</text>
</a>
</g>
</g>
<!-- Node3&#45;&gt;Node4 -->
<g id="edge3_Node000003_Node000004" class="edge">
<title>Node3&#45;&gt;Node4</title>
<g id="a_edge3_Node000003_Node000004"><a xlink:title=" ">
<path fill="none" stroke="#63b8ff" d="M469.9,-67C477.92,-67 486.09,-67 493.95,-67"/>
<polygon fill="#63b8ff" stroke="#63b8ff" points="493.7,-70.5 503.7,-67 493.7,-63.5 493.7,-70.5"/>
</a>
</g>
</g>
</g>
</svg>
