<?xml version="1.0" encoding="UTF-8" standalone="no"?>
<!DOCTYPE svg PUBLIC "-//W3C//DTD SVG 1.1//EN"
 "http://www.w3.org/Graphics/SVG/1.1/DTD/svg11.dtd">
<!-- Generated by graphviz version 14.0.2 (20251019.1705)
 -->
<!-- Title: LGE::ImportExport::CanExport Pages: 1 -->
<svg width="461pt" height="166pt"
 viewBox="0.00 0.00 461.00 166.00" xmlns="http://www.w3.org/2000/svg" xmlns:xlink="http://www.w3.org/1999/xlink">
<g id="graph0" class="graph" transform="scale(1 1) rotate(0) translate(4 162)">
<title>LGE::ImportExport::CanExport</title>
<!-- Node1 -->
<g id="Node000001" class="node">
<title>Node1</title>
<g id="a_Node000001"><a xlink:title=" ">
<polygon fill="#999999" stroke="#666666" points="103.75,-86 0,-86 0,-54 103.75,-54 103.75,-86"/>
<text xml:space="preserve" text-anchor="start" x="8" y="-72.5" font-family="Helvetica,sans-Serif" font-size="10.00">LGE::ImportExport::</text>
<text xml:space="preserve" text-anchor="middle" x="51.88" y="-60.5" font-family="Helvetica,sans-Serif" font-size="10.00">CanExport</text>
</a>
</g>
</g>
<!-- Node2 -->
<g id="Node000002" class="node">
<title>Node2</title>
<g id="a_Node000002"><a xlink:href="classLGE_1_1ExporterRegistry.html#ad82dc9d8af6fd8db1fd26334c3d4c936" target="_top" xlink:title=" ">
<polygon fill="white" stroke="#666666" points="265.62,-158 150.62,-158 150.62,-126 265.62,-126 265.62,-158"/>
<text xml:space="preserve" text-anchor="start" x="158.62" y="-144.5" font-family="Helvetica,sans-Serif" font-size="10.00">LGE::ExporterRegistry</text>
<text xml:space="preserve" text-anchor="middle" x="208.12" y="-132.5" font-family="Helvetica,sans-Serif" font-size="10.00">::CanExport</text>
</a>
</g>
</g>
<!-- Node1&#45;&gt;Node2 -->
<g id="edge1_Node000001_Node000002" class="edge">
<title>Node1&#45;&gt;Node2</title>
<g id="a_edge1_Node000001_Node000002"><a xlink:title=" ">
<path fill="none" stroke="#63b8ff" d="M80.93,-86.48C97.7,-96 119.6,-107.87 139.75,-117 143.05,-118.49 146.46,-119.97 149.92,-121.41"/>
<polygon fill="#63b8ff" stroke="#63b8ff" points="148.4,-124.57 158.98,-125.06 151.01,-118.08 148.4,-124.57"/>
</a>
</g>
</g>
<!-- Node4 -->
<g id="Node000004" class="node">
<title>Node4</title>
<g id="a_Node000004"><a xlink:href="namespaceLGE_1_1AssetRegistry.html#a9e672f9e3c8c62076b9156d1695e48b8" target="_top" xlink:title=" ">
<polygon fill="white" stroke="#666666" points="260,-108 156.25,-108 156.25,-76 260,-76 260,-108"/>
<text xml:space="preserve" text-anchor="start" x="164.25" y="-94.5" font-family="Helvetica,sans-Serif" font-size="10.00">LGE::AssetRegistry</text>
<text xml:space="preserve" text-anchor="middle" x="208.12" y="-82.5" font-family="Helvetica,sans-Serif" font-size="10.00">::FindByGUID</text>
</a>
</g>
</g>
<!-- Node1&#45;&gt;Node4 -->
<g id="edge3_Node000001_Node000004" class="edge">
<title>Node1&#45;&gt;Node4</title>
<g id="a_edge3_Node000001_Node000004"><a xlink:title=" ">
<path fill="none" stroke="#63b8ff" d="M104.24,-77.33C117.25,-79.18 131.36,-81.19 144.85,-83.12"/>
<polygon fill="#63b8ff" stroke="#63b8ff" points="144.09,-86.55 154.49,-84.49 145.08,-79.62 144.09,-86.55"/>
</a>
</g>
</g>
<!-- Node5 -->
<g id="Node000005" class="node">
<title>Node5</title>
<g id="a_Node000005"><a xlink:href="classLGE_1_1ExporterRegistry.html#a23f61658469ecc64b4fd7c638c2a330c" target="_top" xlink:title=" ">
<polygon fill="white" stroke="#666666" points="276.5,-58 139.75,-58 139.75,-38 276.5,-38 276.5,-58"/>
<text xml:space="preserve" text-anchor="middle" x="208.12" y="-44.5" font-family="Helvetica,sans-Serif" font-size="10.00">LGE::ExporterRegistry::Get</text>
</a>
</g>
</g>
<!-- Node1&#45;&gt;Node5 -->
<g id="edge4_Node000001_Node000005" class="edge">
<title>Node1&#45;&gt;Node5</title>
<g id="a_edge4_Node000001_Node000005"><a xlink:title=" ">
<path fill="none" stroke="#63b8ff" d="M104.24,-62.67C112.01,-61.57 120.18,-60.4 128.37,-59.23"/>
<polygon fill="#63b8ff" stroke="#63b8ff" points="128.62,-62.73 138.02,-57.86 127.63,-55.8 128.62,-62.73"/>
</a>
</g>
</g>
<!-- Node6 -->
<g id="Node000006" class="node">
<title>Node6</title>
<g id="a_Node000006"><a xlink:href="namespaceLGE.html#a756324f7bbe6e8b9c4b0fb212254d1d3" target="_top" xlink:title=" ">
<polygon fill="white" stroke="#666666" points="270.12,-20 146.12,-20 146.12,0 270.12,0 270.12,-20"/>
<text xml:space="preserve" text-anchor="middle" x="208.12" y="-6.5" font-family="Helvetica,sans-Serif" font-size="10.00">LGE::StringToAssetType</text>
</a>
</g>
</g>
<!-- Node1&#45;&gt;Node6 -->
<g id="edge5_Node000001_Node000006" class="edge">
<title>Node1&#45;&gt;Node6</title>
<g id="a_edge5_Node000001_Node000006"><a xlink:title=" ">
<path fill="none" stroke="#63b8ff" d="M84.51,-53.52C100.74,-45.46 121,-36.01 139.75,-29 144.68,-27.15 149.88,-25.39 155.1,-23.73"/>
<polygon fill="#63b8ff" stroke="#63b8ff" points="155.8,-27.18 164.35,-20.92 153.77,-20.48 155.8,-27.18"/>
</a>
</g>
</g>
<!-- Node3 -->
<g id="Node000003" class="node">
<title>Node3</title>
<g id="a_Node000003"><a xlink:href="classLGE_1_1ExporterRegistry.html#a34ccac1306410699c4b3199ea7ef3f11" target="_top" xlink:title=" ">
<polygon fill="white" stroke="#666666" points="453,-158 312.5,-158 312.5,-126 453,-126 453,-158"/>
<text xml:space="preserve" text-anchor="start" x="320.5" y="-144.5" font-family="Helvetica,sans-Serif" font-size="10.00">LGE::ExporterRegistry</text>
<text xml:space="preserve" text-anchor="middle" x="382.75" y="-132.5" font-family="Helvetica,sans-Serif" font-size="10.00">::GetExportersForAssetType</text>
</a>
</g>
</g>
<!-- Node2&#45;&gt;Node3 -->
<g id="edge2_Node000002_Node000003" class="edge">
<title>Node2&#45;&gt;Node3</title>
<g id="a_edge2_Node000002_Node000003"><a xlink:title=" ">
<path fill="none" stroke="#63b8ff" d="M265.65,-142C276.9,-142 288.92,-142 300.81,-142"/>
<polygon fill="#63b8ff" stroke="#63b8ff" points="300.62,-145.5 310.62,-142 300.62,-138.5 300.62,-145.5"/>
</a>
</g>
</g>
</g>
</svg>
