<?xml version="1.0" encoding="UTF-8" standalone="no"?>
<!DOCTYPE svg PUBLIC "-//W3C//DTD SVG 1.1//EN"
 "http://www.w3.org/Graphics/SVG/1.1/DTD/svg11.dtd">
<!-- Generated by graphviz version 14.0.2 (20251019.1705)
 -->
<!-- Title: LGE::Analytics::Flush Pages: 1 -->
<svg width="840pt" height="169pt"
 viewBox="0.00 0.00 840.00 169.00" xmlns="http://www.w3.org/2000/svg" xmlns:xlink="http://www.w3.org/1999/xlink">
<g id="graph0" class="graph" transform="scale(1 1) rotate(0) translate(4 164.98)">
<title>LGE::Analytics::Flush</title>
<!-- Node1 -->
<g id="Node000001" class="node">
<title>Node1</title>
<g id="a_Node000001"><a xlink:title=" ">
<polygon fill="#999999" stroke="#666666" points="112,-58 0,-58 0,-38 112,-38 112,-58"/>
<text xml:space="preserve" text-anchor="middle" x="56" y="-44.5" font-family="Helvetica,sans-Serif" font-size="10.00">LGE::Analytics::Flush</text>
</a>
</g>
</g>
<!-- Node2 -->
<g id="Node000002" class="node">
<title>Node2</title>
<g id="a_Node000002"><a xlink:href="namespaceLGE_1_1Analytics.html#ac633f5df3491555e50bc77bc40ab0417" target="_top" xlink:title=" ">
<polygon fill="white" stroke="#666666" points="293.75,-108 148,-108 148,-76 293.75,-76 293.75,-108"/>
<text xml:space="preserve" text-anchor="start" x="156" y="-94.5" font-family="Helvetica,sans-Serif" font-size="10.00">LGE::Analytics::ExportReport</text>
<text xml:space="preserve" text-anchor="middle" x="220.88" y="-82.5" font-family="Helvetica,sans-Serif" font-size="10.00">ToCSV</text>
</a>
</g>
</g>
<!-- Node1&#45;&gt;Node2 -->
<g id="edge1_Node000001_Node000002" class="edge">
<title>Node1&#45;&gt;Node2</title>
<g id="a_edge1_Node000001_Node000002"><a xlink:title=" ">
<path fill="none" stroke="#63b8ff" d="M95.6,-58.43C111.26,-62.66 129.87,-67.69 147.86,-72.55"/>
<polygon fill="#63b8ff" stroke="#63b8ff" points="146.92,-75.92 157.49,-75.15 148.75,-69.16 146.92,-75.92"/>
</a>
</g>
</g>
<!-- Node9 -->
<g id="Node000009" class="node">
<title>Node9</title>
<g id="a_Node000009"><a xlink:href="classLGE_1_1Log.html#ab0265ee050b8873a2fd31fbdb696ced0" target="_top" xlink:title=" ">
<polygon fill="white" stroke="#666666" points="436.12,-61 356.38,-61 356.38,-41 436.12,-41 436.12,-61"/>
<text xml:space="preserve" text-anchor="middle" x="396.25" y="-47.5" font-family="Helvetica,sans-Serif" font-size="10.00">LGE::Log::Info</text>
</a>
</g>
</g>
<!-- Node1&#45;&gt;Node9 -->
<g id="edge11_Node000001_Node000009" class="edge">
<title>Node1&#45;&gt;Node9</title>
<g id="a_edge11_Node000001_Node000009"><a xlink:title=" ">
<path fill="none" stroke="#63b8ff" d="M112.48,-48.49C176.92,-49.06 282.34,-50 344.63,-50.55"/>
<polygon fill="#63b8ff" stroke="#63b8ff" points="344.57,-54.05 354.6,-50.64 344.63,-47.05 344.57,-54.05"/>
</a>
</g>
</g>
<!-- Node10 -->
<g id="Node000010" class="node">
<title>Node10</title>
<g id="a_Node000010"><a xlink:href="namespaceLGE_1_1LxPath.html#a94ec3bdfd6948ddc25cda5d18154d4cf" target="_top" xlink:title=" ">
<polygon fill="white" stroke="#666666" points="269,-20 172.75,-20 172.75,0 269,0 269,-20"/>
<text xml:space="preserve" text-anchor="middle" x="220.88" y="-6.5" font-family="Helvetica,sans-Serif" font-size="10.00">LGE::LxPath::Join</text>
</a>
</g>
</g>
<!-- Node1&#45;&gt;Node10 -->
<g id="edge12_Node000001_Node000010" class="edge">
<title>Node1&#45;&gt;Node10</title>
<g id="a_edge12_Node000001_Node000010"><a xlink:title=" ">
<path fill="none" stroke="#63b8ff" d="M101.94,-37.52C121.16,-33.03 143.81,-27.75 164.1,-23.01"/>
<polygon fill="#63b8ff" stroke="#63b8ff" points="164.67,-26.47 173.61,-20.79 163.08,-19.66 164.67,-26.47"/>
</a>
</g>
</g>
<!-- Node3 -->
<g id="Node000003" class="node">
<title>Node3</title>
<g id="a_Node000003"><a xlink:href="namespaceLGE_1_1AssetRegistry.html#a9e672f9e3c8c62076b9156d1695e48b8" target="_top" xlink:title=" ">
<polygon fill="white" stroke="#666666" points="448.12,-150 344.38,-150 344.38,-118 448.12,-118 448.12,-150"/>
<text xml:space="preserve" text-anchor="start" x="352.38" y="-136.5" font-family="Helvetica,sans-Serif" font-size="10.00">LGE::AssetRegistry</text>
<text xml:space="preserve" text-anchor="middle" x="396.25" y="-124.5" font-family="Helvetica,sans-Serif" font-size="10.00">::FindByGUID</text>
</a>
</g>
</g>
<!-- Node2&#45;&gt;Node3 -->
<g id="edge2_Node000002_Node000003" class="edge">
<title>Node2&#45;&gt;Node3</title>
<g id="a_edge2_Node000002_Node000003"><a xlink:title=" ">
<path fill="none" stroke="#63b8ff" d="M289.9,-108.48C304.12,-111.92 319.05,-115.54 333.05,-118.93"/>
<polygon fill="#63b8ff" stroke="#63b8ff" points="332.03,-122.29 342.57,-121.24 333.68,-115.48 332.03,-122.29"/>
</a>
</g>
</g>
<!-- Node4 -->
<g id="Node000004" class="node">
<title>Node4</title>
<g id="a_Node000004"><a xlink:href="namespaceLGE_1_1Analytics.html#a48141e1b0c652df26e4f5d2b83710c4b" target="_top" xlink:title=" ">
<polygon fill="white" stroke="#666666" points="462.75,-100 329.75,-100 329.75,-80 462.75,-80 462.75,-100"/>
<text xml:space="preserve" text-anchor="middle" x="396.25" y="-86.5" font-family="Helvetica,sans-Serif" font-size="10.00">LGE::Analytics::GetReport</text>
</a>
</g>
</g>
<!-- Node2&#45;&gt;Node4 -->
<g id="edge3_Node000002_Node000004" class="edge">
<title>Node2&#45;&gt;Node4</title>
<g id="a_edge3_Node000002_Node000004"><a xlink:title=" ">
<path fill="none" stroke="#63b8ff" d="M294.15,-91.17C302.01,-91.08 310.04,-90.98 317.96,-90.89"/>
<polygon fill="#63b8ff" stroke="#63b8ff" points="317.99,-94.39 327.95,-90.78 317.91,-87.39 317.99,-94.39"/>
</a>
</g>
</g>
<!-- Node2&#45;&gt;Node9 -->
<g id="edge10_Node000002_Node000009" class="edge">
<title>Node2&#45;&gt;Node9</title>
<g id="a_edge10_Node000002_Node000009"><a xlink:title=" ">
<path fill="none" stroke="#63b8ff" d="M291.39,-75.56C309.31,-71.32 328.24,-66.85 344.96,-62.89"/>
<polygon fill="#63b8ff" stroke="#63b8ff" points="345.74,-66.3 354.67,-60.6 344.13,-59.49 345.74,-66.3"/>
</a>
</g>
</g>
<!-- Node5 -->
<g id="Node000005" class="node">
<title>Node5</title>
<g id="a_Node000005"><a xlink:href="namespaceLGE_1_1Analytics.html#ae1e6e06df633fb6399a4606c618ba3de" target="_top" xlink:title=" ">
<polygon fill="white" stroke="#666666" points="831.5,-136 693.25,-136 693.25,-116 831.5,-116 831.5,-136"/>
<text xml:space="preserve" text-anchor="middle" x="762.38" y="-122.5" font-family="Helvetica,sans-Serif" font-size="10.00">LGE::Analytics::GetAllStats</text>
</a>
</g>
</g>
<!-- Node4&#45;&gt;Node5 -->
<g id="edge4_Node000004_Node000005" class="edge">
<title>Node4&#45;&gt;Node5</title>
<g id="a_edge4_Node000004_Node000005"><a xlink:title=" ">
<path fill="none" stroke="#63b8ff" d="M444.27,-100.49C450.7,-102.82 457.04,-105.63 462.75,-109 482.23,-120.51 477.84,-136.34 498.75,-145 572.53,-175.56 667.9,-155.57 721.05,-139.78"/>
<polygon fill="#63b8ff" stroke="#63b8ff" points="722.06,-143.13 730.59,-136.84 720,-136.44 722.06,-143.13"/>
</a>
</g>
</g>
<!-- Node6 -->
<g id="Node000006" class="node">
<title>Node6</title>
<g id="a_Node000006"><a xlink:href="namespaceLGE_1_1Analytics.html#ac01bf208b68bb666b625a0f45ee9a77e" target="_top" xlink:title=" ">
<polygon fill="white" stroke="#666666" points="657.25,-136 498.75,-136 498.75,-116 657.25,-116 657.25,-136"/>
<text xml:space="preserve" text-anchor="middle" x="578" y="-122.5" font-family="Helvetica,sans-Serif" font-size="10.00">LGE::Analytics::TopByLoadTime</text>
</a>
</g>
</g>
<!-- Node4&#45;&gt;Node6 -->
<g id="edge5_Node000004_Node000006" class="edge">
<title>Node4&#45;&gt;Node6</title>
<g id="a_edge5_Node000004_Node000006"><a xlink:title=" ">
<path fill="none" stroke="#63b8ff" d="M449.24,-100.41C469.37,-104.44 492.6,-109.1 513.68,-113.32"/>
<polygon fill="#63b8ff" stroke="#63b8ff" points="512.84,-116.72 523.33,-115.25 514.21,-109.86 512.84,-116.72"/>
</a>
</g>
</g>
<!-- Node7 -->
<g id="Node000007" class="node">
<title>Node7</title>
<g id="a_Node000007"><a xlink:href="namespaceLGE_1_1Analytics.html#a3aae299f8b7bb1fa18ce5b42f81813cf" target="_top" xlink:title=" ">
<polygon fill="white" stroke="#666666" points="645.62,-98 510.38,-98 510.38,-78 645.62,-78 645.62,-98"/>
<text xml:space="preserve" text-anchor="middle" x="578" y="-84.5" font-family="Helvetica,sans-Serif" font-size="10.00">LGE::Analytics::TopBySize</text>
</a>
</g>
</g>
<!-- Node4&#45;&gt;Node7 -->
<g id="edge7_Node000004_Node000007" class="edge">
<title>Node4&#45;&gt;Node7</title>
<g id="a_edge7_Node000004_Node000007"><a xlink:title=" ">
<path fill="none" stroke="#63b8ff" d="M463.16,-89.27C474.7,-89.14 486.81,-89 498.65,-88.87"/>
<polygon fill="#63b8ff" stroke="#63b8ff" points="498.42,-92.37 508.38,-88.76 498.34,-85.38 498.42,-92.37"/>
</a>
</g>
</g>
<!-- Node8 -->
<g id="Node000008" class="node">
<title>Node8</title>
<g id="a_Node000008"><a xlink:href="namespaceLGE_1_1Analytics.html#aaedc4ccd5bf4308afc83cb289b4d3eba" target="_top" xlink:title=" ">
<polygon fill="white" stroke="#666666" points="651.25,-60 504.75,-60 504.75,-40 651.25,-40 651.25,-60"/>
<text xml:space="preserve" text-anchor="middle" x="578" y="-46.5" font-family="Helvetica,sans-Serif" font-size="10.00">LGE::Analytics::UnusedSince</text>
</a>
</g>
</g>
<!-- Node4&#45;&gt;Node8 -->
<g id="edge9_Node000004_Node000008" class="edge">
<title>Node4&#45;&gt;Node8</title>
<g id="a_edge9_Node000004_Node000008"><a xlink:title=" ">
<path fill="none" stroke="#63b8ff" d="M444.01,-79.59C466.82,-74.52 494.48,-68.36 518.66,-62.98"/>
<polygon fill="#63b8ff" stroke="#63b8ff" points="519.37,-66.41 528.37,-60.82 517.85,-59.58 519.37,-66.41"/>
</a>
</g>
</g>
<!-- Node6&#45;&gt;Node5 -->
<g id="edge6_Node000006_Node000005" class="edge">
<title>Node6&#45;&gt;Node5</title>
<g id="a_edge6_Node000006_Node000005"><a xlink:title=" ">
<path fill="none" stroke="#63b8ff" d="M657.67,-126C665.57,-126 673.6,-126 681.51,-126"/>
<polygon fill="#63b8ff" stroke="#63b8ff" points="681.48,-129.5 691.48,-126 681.48,-122.5 681.48,-129.5"/>
</a>
</g>
</g>
<!-- Node7&#45;&gt;Node5 -->
<g id="edge8_Node000007_Node000005" class="edge">
<title>Node7&#45;&gt;Node5</title>
<g id="a_edge8_Node000007_Node000005"><a xlink:title=" ">
<path fill="none" stroke="#63b8ff" d="M629.32,-98.48C651.24,-103.05 677.15,-108.45 700.18,-113.25"/>
<polygon fill="#63b8ff" stroke="#63b8ff" points="699.24,-116.63 709.74,-115.24 700.66,-109.77 699.24,-116.63"/>
</a>
</g>
</g>
<!-- Node11 -->
<g id="Node000011" class="node">
<title>Node11</title>
<g id="a_Node000011"><a xlink:href="namespaceLGE_1_1LxPath.html#a314a60ce690c90f4ee0b4e64c0199408" target="_top" xlink:title=" ">
<polygon fill="white" stroke="#666666" points="457.5,-20 335,-20 335,0 457.5,0 457.5,-20"/>
<text xml:space="preserve" text-anchor="middle" x="396.25" y="-6.5" font-family="Helvetica,sans-Serif" font-size="10.00">LGE::LxPath::Normalize</text>
</a>
</g>
</g>
<!-- Node10&#45;&gt;Node11 -->
<g id="edge13_Node000010_Node000011" class="edge">
<title>Node10&#45;&gt;Node11</title>
<g id="a_edge13_Node000010_Node000011"><a xlink:title=" ">
<path fill="none" stroke="#63b8ff" d="M269.25,-10C285.86,-10 304.91,-10 323.09,-10"/>
<polygon fill="#63b8ff" stroke="#63b8ff" points="323.05,-13.5 333.05,-10 323.05,-6.5 323.05,-13.5"/>
</a>
</g>
</g>
<!-- Node12 -->
<g id="Node000012" class="node">
<title>Node12</title>
<g id="a_Node000012"><a xlink:href="classLGE_1_1Log.html#a53f3f4b8797ffd18145739c9e66d690a" target="_top" xlink:title=" ">
<polygon fill="white" stroke="#666666" points="620.12,-20 535.88,-20 535.88,0 620.12,0 620.12,-20"/>
<text xml:space="preserve" text-anchor="middle" x="578" y="-6.5" font-family="Helvetica,sans-Serif" font-size="10.00">LGE::Log::Error</text>
</a>
</g>
</g>
<!-- Node11&#45;&gt;Node12 -->
<g id="edge14_Node000011_Node000012" class="edge">
<title>Node11&#45;&gt;Node12</title>
<g id="a_edge14_Node000011_Node000012"><a xlink:title=" ">
<path fill="none" stroke="#63b8ff" d="M457.85,-10C479.34,-10 503.33,-10 524.12,-10"/>
<polygon fill="#63b8ff" stroke="#63b8ff" points="524.11,-13.5 534.11,-10 524.11,-6.5 524.11,-13.5"/>
</a>
</g>
</g>
</g>
</svg>
