<?xml version="1.0" encoding="UTF-8" standalone="no"?>
<!DOCTYPE svg PUBLIC "-//W3C//DTD SVG 1.1//EN"
 "http://www.w3.org/Graphics/SVG/1.1/DTD/svg11.dtd">
<!-- Generated by graphviz version 14.0.2 (20251019.1705)
 -->
<!-- Title: LGE::Backup::PerformScheduledBackup Pages: 1 -->
<svg width="1158pt" height="403pt"
 viewBox="0.00 0.00 1158.00 403.00" xmlns="http://www.w3.org/2000/svg" xmlns:xlink="http://www.w3.org/1999/xlink">
<g id="graph0" class="graph" transform="scale(1 1) rotate(0) translate(4 399)">
<title>LGE::Backup::PerformScheduledBackup</title>
<!-- Node1 -->
<g id="Node000001" class="node">
<title>Node1</title>
<g id="a_Node000001"><a xlink:title=" ">
<polygon fill="#999999" stroke="#666666" points="160.75,-303 0,-303 0,-271 160.75,-271 160.75,-303"/>
<text xml:space="preserve" text-anchor="start" x="8" y="-289.5" font-family="Helvetica,sans-Serif" font-size="10.00">LGE::Backup::PerformScheduled</text>
<text xml:space="preserve" text-anchor="middle" x="80.38" y="-277.5" font-family="Helvetica,sans-Serif" font-size="10.00">Backup</text>
</a>
</g>
</g>
<!-- Node2 -->
<g id="Node000002" class="node">
<title>Node2</title>
<g id="a_Node000002"><a xlink:href="namespaceLGE_1_1Backup.html#a8db5be221811de56211321d119281ce0" target="_top" xlink:title=" ">
<polygon fill="white" stroke="#666666" points="339.5,-215 196.75,-215 196.75,-195 339.5,-195 339.5,-215"/>
<text xml:space="preserve" text-anchor="middle" x="268.12" y="-201.5" font-family="Helvetica,sans-Serif" font-size="10.00">LGE::Backup::CreateBackup</text>
</a>
</g>
</g>
<!-- Node1&#45;&gt;Node2 -->
<g id="edge1_Node000001_Node000002" class="edge">
<title>Node1&#45;&gt;Node2</title>
<g id="a_edge1_Node000001_Node000002"><a xlink:title=" ">
<path fill="none" stroke="#63b8ff" d="M118.52,-270.6C152,-255.82 200.82,-234.27 233.25,-219.95"/>
<polygon fill="#63b8ff" stroke="#63b8ff" points="234.46,-223.25 242.19,-216.01 231.63,-216.84 234.46,-223.25"/>
</a>
</g>
</g>
<!-- Node10 -->
<g id="Node000010" class="node">
<title>Node10</title>
<g id="a_Node000010"><a xlink:href="classLGE_1_1Log.html#ab0265ee050b8873a2fd31fbdb696ced0" target="_top" xlink:title=" ">
<polygon fill="white" stroke="#666666" points="672.62,-395 592.88,-395 592.88,-375 672.62,-375 672.62,-395"/>
<text xml:space="preserve" text-anchor="middle" x="632.75" y="-381.5" font-family="Helvetica,sans-Serif" font-size="10.00">LGE::Log::Info</text>
</a>
</g>
</g>
<!-- Node1&#45;&gt;Node10 -->
<g id="edge28_Node000001_Node000010" class="edge">
<title>Node1&#45;&gt;Node10</title>
<g id="a_edge28_Node000001_Node000010"><a xlink:title=" ">
<path fill="none" stroke="#63b8ff" d="M137.24,-303.46C196.03,-320.16 291.5,-345.56 375.5,-360 446.35,-372.18 529.32,-378.92 581.22,-382.25"/>
<polygon fill="#63b8ff" stroke="#63b8ff" points="580.73,-385.73 590.93,-382.86 581.17,-378.74 580.73,-385.73"/>
</a>
</g>
</g>
<!-- Node3 -->
<g id="Node000003" class="node">
<title>Node3</title>
<g id="a_Node000003"><a xlink:href="namespaceLGE_1_1Compression.html#af7ed5c9910b095705473adc945a804a4" target="_top" xlink:title=" ">
<polygon fill="white" stroke="#666666" points="526.88,-284 376.62,-284 376.62,-252 526.88,-252 526.88,-284"/>
<text xml:space="preserve" text-anchor="start" x="384.62" y="-270.5" font-family="Helvetica,sans-Serif" font-size="10.00">LGE::Compression::Compress</text>
<text xml:space="preserve" text-anchor="middle" x="451.75" y="-258.5" font-family="Helvetica,sans-Serif" font-size="10.00">Files</text>
</a>
</g>
</g>
<!-- Node2&#45;&gt;Node3 -->
<g id="edge2_Node000002_Node000003" class="edge">
<title>Node2&#45;&gt;Node3</title>
<g id="a_edge2_Node000002_Node000003"><a xlink:title=" ">
<path fill="none" stroke="#63b8ff" d="M297.96,-215.5C319.32,-223.23 349.17,-233.93 375.5,-243 380.24,-244.63 385.15,-246.31 390.1,-247.98"/>
<polygon fill="#63b8ff" stroke="#63b8ff" points="388.88,-251.26 399.48,-251.13 391.11,-244.63 388.88,-251.26"/>
</a>
</g>
</g>
<!-- Node4 -->
<g id="Node000004" class="node">
<title>Node4</title>
<g id="a_Node000004"><a xlink:href="namespaceLGE_1_1LxFile.html#a11e62876b312a11b881b484bb3a5ee71" target="_top" xlink:title=" ">
<polygon fill="white" stroke="#666666" points="683.5,-357 582,-357 582,-337 683.5,-337 683.5,-357"/>
<text xml:space="preserve" text-anchor="middle" x="632.75" y="-343.5" font-family="Helvetica,sans-Serif" font-size="10.00">LGE::LxFile::Exists</text>
</a>
</g>
</g>
<!-- Node2&#45;&gt;Node4 -->
<g id="edge18_Node000002_Node000004" class="edge">
<title>Node2&#45;&gt;Node4</title>
<g id="a_edge18_Node000002_Node000004"><a xlink:title=" ">
<path fill="none" stroke="#63b8ff" d="M278.24,-215.29C295.35,-233.91 334.27,-273.11 375.5,-293 409.25,-309.28 505.8,-326.99 570.27,-337.53"/>
<polygon fill="#63b8ff" stroke="#63b8ff" points="569.59,-340.97 580.02,-339.11 570.7,-334.06 569.59,-340.97"/>
</a>
</g>
</g>
<!-- Node2&#45;&gt;Node10 -->
<g id="edge26_Node000002_Node000010" class="edge">
<title>Node2&#45;&gt;Node10</title>
<g id="a_edge26_Node000002_Node000010"><a xlink:title=" ">
<path fill="none" stroke="#63b8ff" d="M275.09,-215.27C289.27,-238.71 327.44,-296.34 375.5,-325 409.84,-345.48 516.97,-366 581.33,-376.93"/>
<polygon fill="#63b8ff" stroke="#63b8ff" points="580.5,-380.34 590.94,-378.54 581.66,-373.44 580.5,-380.34"/>
</a>
</g>
</g>
<!-- Node12 -->
<g id="Node000012" class="node">
<title>Node12</title>
<g id="a_Node000012"><a xlink:href="namespaceLGE_1_1LxFile.html#a7a3f0b3462a34877039001eb0aaac788" target="_top" xlink:title=" ">
<polygon fill="white" stroke="#666666" points="523.12,-20 380.38,-20 380.38,0 523.12,0 523.12,-20"/>
<text xml:space="preserve" text-anchor="middle" x="451.75" y="-6.5" font-family="Helvetica,sans-Serif" font-size="10.00">LGE::LxFile::CreateDirectory</text>
</a>
</g>
</g>
<!-- Node2&#45;&gt;Node12 -->
<g id="edge12_Node000002_Node000012" class="edge">
<title>Node2&#45;&gt;Node12</title>
<g id="a_edge12_Node000002_Node000012"><a xlink:title=" ">
<path fill="none" stroke="#63b8ff" d="M272.22,-194.75C281.95,-164.32 314.95,-73.82 375.5,-29 377.25,-27.71 379.07,-26.5 380.96,-25.38"/>
<polygon fill="#63b8ff" stroke="#63b8ff" points="382.12,-28.71 389.48,-21.09 378.97,-22.46 382.12,-28.71"/>
</a>
</g>
</g>
<!-- Node15 -->
<g id="Node000015" class="node">
<title>Node15</title>
<g id="a_Node000015"><a xlink:href="namespaceLGE_1_1AssetRegistry.html#ac9aa62a1e0c929e88bec00618b489988" target="_top" xlink:title=" ">
<polygon fill="white" stroke="#666666" points="503.62,-108 399.88,-108 399.88,-76 503.62,-76 503.62,-108"/>
<text xml:space="preserve" text-anchor="start" x="407.88" y="-94.5" font-family="Helvetica,sans-Serif" font-size="10.00">LGE::AssetRegistry</text>
<text xml:space="preserve" text-anchor="middle" x="451.75" y="-82.5" font-family="Helvetica,sans-Serif" font-size="10.00">::GetAllAssets</text>
</a>
</g>
</g>
<!-- Node2&#45;&gt;Node15 -->
<g id="edge19_Node000002_Node000015" class="edge">
<title>Node2&#45;&gt;Node15</title>
<g id="a_edge19_Node000002_Node000015"><a xlink:title=" ">
<path fill="none" stroke="#63b8ff" d="M279.03,-194.58C296.78,-176.46 335.88,-138.95 375.5,-117 379.82,-114.61 384.4,-112.4 389.09,-110.36"/>
<polygon fill="#63b8ff" stroke="#63b8ff" points="390.09,-113.73 398.06,-106.75 387.48,-107.24 390.09,-113.73"/>
</a>
</g>
</g>
<!-- Node16 -->
<g id="Node000016" class="node">
<title>Node16</title>
<g id="a_Node000016"><a xlink:href="namespaceLGE_1_1Validation.html#a46e1902a0c3b1c2317095688b8aa647b" target="_top" xlink:title=" ">
<polygon fill="white" stroke="#666666" points="528,-58 375.5,-58 375.5,-38 528,-38 528,-58"/>
<text xml:space="preserve" text-anchor="middle" x="451.75" y="-44.5" font-family="Helvetica,sans-Serif" font-size="10.00">LGE::Validation::GetChecksum</text>
</a>
</g>
</g>
<!-- Node2&#45;&gt;Node16 -->
<g id="edge20_Node000002_Node000016" class="edge">
<title>Node2&#45;&gt;Node16</title>
<g id="a_edge20_Node000002_Node000016"><a xlink:title=" ">
<path fill="none" stroke="#63b8ff" d="M273.94,-194.8C286.63,-169.05 323.65,-101.02 375.5,-67 377.73,-65.53 380.07,-64.18 382.49,-62.93"/>
<polygon fill="#63b8ff" stroke="#63b8ff" points="383.66,-66.24 391.38,-58.98 380.82,-59.84 383.66,-66.24"/>
</a>
</g>
</g>
<!-- Node17 -->
<g id="Node000017" class="node">
<title>Node17</title>
<g id="a_Node000017"><a xlink:href="namespaceLGE_1_1Compression.html#a5cb00aa30da7aad66c9fcf19d8ba51e5" target="_top" xlink:title=" ">
<polygon fill="white" stroke="#666666" points="527.62,-158 375.88,-158 375.88,-126 527.62,-126 527.62,-158"/>
<text xml:space="preserve" text-anchor="start" x="383.88" y="-144.5" font-family="Helvetica,sans-Serif" font-size="10.00">LGE::Compression::GetFormat</text>
<text xml:space="preserve" text-anchor="middle" x="451.75" y="-132.5" font-family="Helvetica,sans-Serif" font-size="10.00">FromExtension</text>
</a>
</g>
</g>
<!-- Node2&#45;&gt;Node17 -->
<g id="edge21_Node000002_Node000017" class="edge">
<title>Node2&#45;&gt;Node17</title>
<g id="a_edge21_Node000002_Node000017"><a xlink:title=" ">
<path fill="none" stroke="#63b8ff" d="M299.12,-194.6C324.44,-185.81 361.45,-172.98 392.56,-162.18"/>
<polygon fill="#63b8ff" stroke="#63b8ff" points="393.56,-165.54 401.86,-158.96 391.27,-158.93 393.56,-165.54"/>
</a>
</g>
</g>
<!-- Node19 -->
<g id="Node000019" class="node">
<title>Node19</title>
<g id="a_Node000019"><a xlink:href="namespaceLGE_1_1LxPath.html#aefae4d45f84718077f5218f64d2f074c" target="_top" xlink:title=" ">
<polygon fill="white" stroke="#666666" points="865.62,-151 743.12,-151 743.12,-131 865.62,-131 865.62,-151"/>
<text xml:space="preserve" text-anchor="middle" x="804.38" y="-137.5" font-family="Helvetica,sans-Serif" font-size="10.00">LGE::LxPath::GetParent</text>
</a>
</g>
</g>
<!-- Node2&#45;&gt;Node19 -->
<g id="edge24_Node000002_Node000019" class="edge">
<title>Node2&#45;&gt;Node19</title>
<g id="a_edge24_Node000002_Node000019"><a xlink:title=" ">
<path fill="none" stroke="#63b8ff" d="M339.72,-196.28C399.44,-188.93 487.31,-178.17 564,-169 620.23,-162.28 683.91,-154.84 731.45,-149.32"/>
<polygon fill="#63b8ff" stroke="#63b8ff" points="731.83,-152.8 741.36,-148.17 731.02,-145.84 731.83,-152.8"/>
</a>
</g>
</g>
<!-- Node20 -->
<g id="Node000020" class="node">
<title>Node20</title>
<g id="a_Node000020"><a xlink:href="namespaceLGE_1_1MetaDB.html#ac399a4083a7e189046618cbf3142dbbe" target="_top" xlink:title=" ">
<polygon fill="white" stroke="#666666" points="521.62,-234 381.88,-234 381.88,-214 521.62,-214 521.62,-234"/>
<text xml:space="preserve" text-anchor="middle" x="451.75" y="-220.5" font-family="Helvetica,sans-Serif" font-size="10.00">LGE::MetaDB::MetaPathFor</text>
</a>
</g>
</g>
<!-- Node2&#45;&gt;Node20 -->
<g id="edge27_Node000002_Node000020" class="edge">
<title>Node2&#45;&gt;Node20</title>
<g id="a_edge27_Node000002_Node000020"><a xlink:title=" ">
<path fill="none" stroke="#63b8ff" d="M339.87,-212.4C349.78,-213.44 360.03,-214.51 370.11,-215.56"/>
<polygon fill="#63b8ff" stroke="#63b8ff" points="369.58,-219.03 379.89,-216.59 370.31,-212.07 369.58,-219.03"/>
</a>
</g>
</g>
<!-- Node3&#45;&gt;Node4 -->
<g id="edge3_Node000003_Node000004" class="edge">
<title>Node3&#45;&gt;Node4</title>
<g id="a_edge3_Node000003_Node000004"><a xlink:title=" ">
<path fill="none" stroke="#63b8ff" d="M498.87,-284.46C508.68,-288.49 518.83,-293.07 528,-298 545.16,-307.22 546.67,-314.11 564,-323 570.86,-326.52 578.36,-329.74 585.79,-332.6"/>
<polygon fill="#63b8ff" stroke="#63b8ff" points="584.52,-335.86 595.12,-336 586.92,-329.28 584.52,-335.86"/>
</a>
</g>
</g>
<!-- Node5 -->
<g id="Node000005" class="node">
<title>Node5</title>
<g id="a_Node000005"><a xlink:href="namespaceLGE_1_1Compression.html#a7d42ab993dbaa3b8a82b82e5d0d6ea8a" target="_top" xlink:title=" ">
<polygon fill="white" stroke="#666666" points="700.75,-243 564.75,-243 564.75,-211 700.75,-211 700.75,-243"/>
<text xml:space="preserve" text-anchor="start" x="572.75" y="-229.5" font-family="Helvetica,sans-Serif" font-size="10.00">LGE::Compression::Format</text>
<text xml:space="preserve" text-anchor="middle" x="632.75" y="-217.5" font-family="Helvetica,sans-Serif" font-size="10.00">ToString</text>
</a>
</g>
</g>
<!-- Node3&#45;&gt;Node5 -->
<g id="edge4_Node000003_Node000005" class="edge">
<title>Node3&#45;&gt;Node5</title>
<g id="a_edge4_Node000003_Node000005"><a xlink:title=" ">
<path fill="none" stroke="#63b8ff" d="M524.78,-251.5C534.21,-249.34 543.9,-247.12 553.43,-244.94"/>
<polygon fill="#63b8ff" stroke="#63b8ff" points="554.06,-248.39 563.03,-242.74 552.5,-241.56 554.06,-248.39"/>
</a>
</g>
</g>
<!-- Node6 -->
<g id="Node000006" class="node">
<title>Node6</title>
<g id="a_Node000006"><a xlink:href="namespaceLGE_1_1LxPath.html#a282200340a7ec214f14f5d64e9e41396" target="_top" xlink:title=" ">
<polygon fill="white" stroke="#666666" points="871.25,-189 737.5,-189 737.5,-169 871.25,-169 871.25,-189"/>
<text xml:space="preserve" text-anchor="middle" x="804.38" y="-175.5" font-family="Helvetica,sans-Serif" font-size="10.00">LGE::LxPath::GetFilename</text>
</a>
</g>
</g>
<!-- Node3&#45;&gt;Node6 -->
<g id="edge5_Node000003_Node000006" class="edge">
<title>Node3&#45;&gt;Node6</title>
<g id="a_edge5_Node000003_Node000006"><a xlink:title=" ">
<path fill="none" stroke="#63b8ff" d="M512.1,-251.67C517.67,-249.15 523.07,-246.27 528,-243 548.21,-229.6 542.41,-213.05 564,-202 613.63,-176.6 676.62,-171.44 725.53,-172.32"/>
<polygon fill="#63b8ff" stroke="#63b8ff" points="725.4,-175.82 735.49,-172.6 725.59,-168.82 725.4,-175.82"/>
</a>
</g>
</g>
<!-- Node9 -->
<g id="Node000009" class="node">
<title>Node9</title>
<g id="a_Node000009"><a xlink:href="namespaceLGE_1_1LxFile.html#a40751ea42c228d8e2c6f6b0788e24aa7" target="_top" xlink:title=" ">
<polygon fill="white" stroke="#666666" points="695.12,-281 570.38,-281 570.38,-261 695.12,-261 695.12,-281"/>
<text xml:space="preserve" text-anchor="middle" x="632.75" y="-267.5" font-family="Helvetica,sans-Serif" font-size="10.00">LGE::LxFile::GetFileSize</text>
</a>
</g>
</g>
<!-- Node3&#45;&gt;Node9 -->
<g id="edge8_Node000003_Node000009" class="edge">
<title>Node3&#45;&gt;Node9</title>
<g id="a_edge8_Node000003_Node000009"><a xlink:title=" ">
<path fill="none" stroke="#63b8ff" d="M527.37,-269.25C537.68,-269.42 548.27,-269.6 558.56,-269.77"/>
<polygon fill="#63b8ff" stroke="#63b8ff" points="558.45,-273.27 568.5,-269.94 558.56,-266.27 558.45,-273.27"/>
</a>
</g>
</g>
<!-- Node3&#45;&gt;Node10 -->
<g id="edge9_Node000003_Node000010" class="edge">
<title>Node3&#45;&gt;Node10</title>
<g id="a_edge9_Node000003_Node000010"><a xlink:title=" ">
<path fill="none" stroke="#63b8ff" d="M471,-284.46C501.18,-311.61 558.69,-363.11 564,-366 569.64,-369.06 575.82,-371.67 582.07,-373.88"/>
<polygon fill="#63b8ff" stroke="#63b8ff" points="580.57,-377.07 591.16,-376.77 582.69,-370.4 580.57,-377.07"/>
</a>
</g>
</g>
<!-- Node11 -->
<g id="Node000011" class="node">
<title>Node11</title>
<g id="a_Node000011"><a xlink:href="namespaceLGE_1_1LxFile.html#ac0a61f0e1f49fdcf553f007750c1ba37" target="_top" xlink:title=" ">
<polygon fill="white" stroke="#666666" points="1022.62,-244 914.38,-244 914.38,-224 1022.62,-224 1022.62,-244"/>
<text xml:space="preserve" text-anchor="middle" x="968.5" y="-230.5" font-family="Helvetica,sans-Serif" font-size="10.00">LGE::LxFile::ReadAll</text>
</a>
</g>
</g>
<!-- Node3&#45;&gt;Node11 -->
<g id="edge10_Node000003_Node000011" class="edge">
<title>Node3&#45;&gt;Node11</title>
<g id="a_edge10_Node000003_Node000011"><a xlink:title=" ">
<path fill="none" stroke="#63b8ff" d="M525.46,-284.49C538.24,-286.78 551.46,-288.77 564,-290 624.82,-295.96 640.72,-296.33 701.5,-290 778.47,-281.99 865.96,-261.26 918.93,-247.4"/>
<polygon fill="#63b8ff" stroke="#63b8ff" points="919.77,-250.8 928.55,-244.86 917.98,-244.03 919.77,-250.8"/>
</a>
</g>
</g>
<!-- Node7 -->
<g id="Node000007" class="node">
<title>Node7</title>
<g id="a_Node000007"><a xlink:href="namespaceLGE_1_1LxPath.html#a314a60ce690c90f4ee0b4e64c0199408" target="_top" xlink:title=" ">
<polygon fill="white" stroke="#666666" points="1029.75,-132 907.25,-132 907.25,-112 1029.75,-112 1029.75,-132"/>
<text xml:space="preserve" text-anchor="middle" x="968.5" y="-118.5" font-family="Helvetica,sans-Serif" font-size="10.00">LGE::LxPath::Normalize</text>
</a>
</g>
</g>
<!-- Node6&#45;&gt;Node7 -->
<g id="edge6_Node000006_Node000007" class="edge">
<title>Node6&#45;&gt;Node7</title>
<g id="a_edge6_Node000006_Node000007"><a xlink:title=" ">
<path fill="none" stroke="#63b8ff" d="M843.88,-168.56C852.91,-165.93 862.46,-162.99 871.25,-160 891.67,-153.04 914.11,-144.25 932.18,-136.88"/>
<polygon fill="#63b8ff" stroke="#63b8ff" points="933.5,-140.12 941.41,-133.07 930.83,-133.65 933.5,-140.12"/>
</a>
</g>
</g>
<!-- Node8 -->
<g id="Node000008" class="node">
<title>Node8</title>
<g id="a_Node000008"><a xlink:href="classLGE_1_1Log.html#a53f3f4b8797ffd18145739c9e66d690a" target="_top" xlink:title=" ">
<polygon fill="white" stroke="#666666" points="1150,-132 1065.75,-132 1065.75,-112 1150,-112 1150,-132"/>
<text xml:space="preserve" text-anchor="middle" x="1107.88" y="-118.5" font-family="Helvetica,sans-Serif" font-size="10.00">LGE::Log::Error</text>
</a>
</g>
</g>
<!-- Node7&#45;&gt;Node8 -->
<g id="edge7_Node000007_Node000008" class="edge">
<title>Node7&#45;&gt;Node8</title>
<g id="a_edge7_Node000007_Node000008"><a xlink:title=" ">
<path fill="none" stroke="#63b8ff" d="M1030.15,-122C1038.17,-122 1046.34,-122 1054.2,-122"/>
<polygon fill="#63b8ff" stroke="#63b8ff" points="1053.95,-125.5 1063.95,-122 1053.95,-118.5 1053.95,-125.5"/>
</a>
</g>
</g>
<!-- Node11&#45;&gt;Node8 -->
<g id="edge11_Node000011_Node000008" class="edge">
<title>Node11&#45;&gt;Node8</title>
<g id="a_edge11_Node000011_Node000008"><a xlink:title=" ">
<path fill="none" stroke="#63b8ff" d="M982.18,-223.66C1005.79,-204.41 1056.74,-162.88 1085.67,-139.29"/>
<polygon fill="#63b8ff" stroke="#63b8ff" points="1087.52,-142.3 1093.05,-133.27 1083.09,-136.87 1087.52,-142.3"/>
</a>
</g>
</g>
<!-- Node12&#45;&gt;Node8 -->
<g id="edge13_Node000012_Node000008" class="edge">
<title>Node12&#45;&gt;Node8</title>
<g id="a_edge13_Node000012_Node000008"><a xlink:title=" ">
<path fill="none" stroke="#63b8ff" d="M523.41,-11.22C607.18,-13.78 750.62,-21.68 871.25,-46 943.65,-60.59 1025.02,-89.84 1070.69,-107.49"/>
<polygon fill="#63b8ff" stroke="#63b8ff" points="1069.24,-110.68 1079.83,-111.05 1071.78,-104.16 1069.24,-110.68"/>
</a>
</g>
</g>
<!-- Node13 -->
<g id="Node000013" class="node">
<title>Node13</title>
<g id="a_Node000013"><a xlink:href="namespaceLGE_1_1VFS.html#abb5d35abfe80efe2f7a07394ad5b706a" target="_top" xlink:title=" ">
<polygon fill="white" stroke="#666666" points="692.12,-75 573.38,-75 573.38,-55 692.12,-55 692.12,-75"/>
<text xml:space="preserve" text-anchor="middle" x="632.75" y="-61.5" font-family="Helvetica,sans-Serif" font-size="10.00">LGE::VFS::IsReadOnly</text>
</a>
</g>
</g>
<!-- Node12&#45;&gt;Node13 -->
<g id="edge14_Node000012_Node000013" class="edge">
<title>Node12&#45;&gt;Node13</title>
<g id="a_edge14_Node000012_Node000013"><a xlink:title=" ">
<path fill="none" stroke="#63b8ff" d="M496.7,-20.41C507.01,-23.05 517.93,-25.99 528,-29 549.78,-35.52 573.79,-43.77 593.21,-50.74"/>
<polygon fill="#63b8ff" stroke="#63b8ff" points="591.76,-53.93 602.36,-54.04 594.14,-47.35 591.76,-53.93"/>
</a>
</g>
</g>
<!-- Node13&#45;&gt;Node7 -->
<g id="edge17_Node000013_Node000007" class="edge">
<title>Node13&#45;&gt;Node7</title>
<g id="a_edge17_Node000013_Node000007"><a xlink:title=" ">
<path fill="none" stroke="#63b8ff" d="M689.99,-75.48C705.38,-78.3 722.08,-81.31 737.5,-84 790.43,-93.22 850.31,-103.09 895.7,-110.47"/>
<polygon fill="#63b8ff" stroke="#63b8ff" points="894.99,-113.9 905.43,-112.04 896.11,-106.99 894.99,-113.9"/>
</a>
</g>
</g>
<!-- Node14 -->
<g id="Node000014" class="node">
<title>Node14</title>
<g id="a_Node000014"><a xlink:href="namespaceLGE_1_1LxPath.html#ab664986e94ce09aa029f9eb2fcf50133" target="_top" xlink:title=" ">
<polygon fill="white" stroke="#666666" points="866.38,-75 742.38,-75 742.38,-55 866.38,-55 866.38,-75"/>
<text xml:space="preserve" text-anchor="middle" x="804.38" y="-61.5" font-family="Helvetica,sans-Serif" font-size="10.00">LGE::LxPath::IsSubPath</text>
</a>
</g>
</g>
<!-- Node13&#45;&gt;Node14 -->
<g id="edge15_Node000013_Node000014" class="edge">
<title>Node13&#45;&gt;Node14</title>
<g id="a_edge15_Node000013_Node000014"><a xlink:title=" ">
<path fill="none" stroke="#63b8ff" d="M692.6,-65C704.84,-65 717.87,-65 730.54,-65"/>
<polygon fill="#63b8ff" stroke="#63b8ff" points="730.52,-68.5 740.52,-65 730.52,-61.5 730.52,-68.5"/>
</a>
</g>
</g>
<!-- Node14&#45;&gt;Node7 -->
<g id="edge16_Node000014_Node000007" class="edge">
<title>Node14&#45;&gt;Node7</title>
<g id="a_edge16_Node000014_Node000007"><a xlink:title=" ">
<path fill="none" stroke="#63b8ff" d="M835.11,-75.45C860.86,-84.51 898.33,-97.68 926.85,-107.71"/>
<polygon fill="#63b8ff" stroke="#63b8ff" points="925.66,-111 936.25,-111.01 927.98,-104.39 925.66,-111"/>
</a>
</g>
</g>
<!-- Node18 -->
<g id="Node000018" class="node">
<title>Node18</title>
<g id="a_Node000018"><a xlink:href="namespaceLGE_1_1LxPath.html#a442709c353add1504cfb1d9d496f3014" target="_top" xlink:title=" ">
<polygon fill="white" stroke="#666666" points="701.5,-117 564,-117 564,-97 701.5,-97 701.5,-117"/>
<text xml:space="preserve" text-anchor="middle" x="632.75" y="-103.5" font-family="Helvetica,sans-Serif" font-size="10.00">LGE::LxPath::GetExtension</text>
</a>
</g>
</g>
<!-- Node17&#45;&gt;Node18 -->
<g id="edge22_Node000017_Node000018" class="edge">
<title>Node17&#45;&gt;Node18</title>
<g id="a_edge22_Node000017_Node000018"><a xlink:title=" ">
<path fill="none" stroke="#63b8ff" d="M527.88,-127.31C540.98,-124.75 554.5,-122.1 567.28,-119.61"/>
<polygon fill="#63b8ff" stroke="#63b8ff" points="567.66,-123.1 576.8,-117.74 566.32,-116.23 567.66,-123.1"/>
</a>
</g>
</g>
<!-- Node18&#45;&gt;Node6 -->
<g id="edge23_Node000018_Node000006" class="edge">
<title>Node18&#45;&gt;Node6</title>
<g id="a_edge23_Node000018_Node000006"><a xlink:title=" ">
<path fill="none" stroke="#63b8ff" d="M651.63,-117.47C671.92,-129.03 706.28,-147.65 737.5,-160 742.11,-161.82 746.96,-163.55 751.85,-165.18"/>
<polygon fill="#63b8ff" stroke="#63b8ff" points="750.52,-168.43 761.11,-168.09 752.62,-161.75 750.52,-168.43"/>
</a>
</g>
</g>
<!-- Node19&#45;&gt;Node7 -->
<g id="edge25_Node000019_Node000007" class="edge">
<title>Node19&#45;&gt;Node7</title>
<g id="a_edge25_Node000019_Node000007"><a xlink:title=" ">
<path fill="none" stroke="#63b8ff" d="M865.74,-133.93C875.49,-132.78 885.66,-131.59 895.65,-130.42"/>
<polygon fill="#63b8ff" stroke="#63b8ff" points="895.78,-133.93 905.31,-129.29 894.97,-126.98 895.78,-133.93"/>
</a>
</g>
</g>
</g>
</svg>
