<?xml version="1.0" encoding="UTF-8" standalone="no"?>
<!DOCTYPE svg PUBLIC "-//W3C//DTD SVG 1.1//EN"
 "http://www.w3.org/Graphics/SVG/1.1/DTD/svg11.dtd">
<!-- Generated by graphviz version 14.0.2 (20251019.1705)
 -->
<!-- Title: LGE::Compression::GetFormatFromExtension Pages: 1 -->
<svg width="569pt" height="275pt"
 viewBox="0.00 0.00 569.00 275.00" xmlns="http://www.w3.org/2000/svg" xmlns:xlink="http://www.w3.org/1999/xlink">
<g id="graph0" class="graph" transform="scale(1 1) rotate(0) translate(4 271)">
<title>LGE::Compression::GetFormatFromExtension</title>
<!-- Node1 -->
<g id="Node000001" class="node">
<title>Node1</title>
<g id="a_Node000001"><a xlink:title=" ">
<polygon fill="#999999" stroke="#666666" points="561,-121 409.25,-121 409.25,-89 561,-89 561,-121"/>
<text xml:space="preserve" text-anchor="start" x="417.25" y="-107.5" font-family="Helvetica,sans-Serif" font-size="10.00">LGE::Compression::GetFormat</text>
<text xml:space="preserve" text-anchor="middle" x="485.12" y="-95.5" font-family="Helvetica,sans-Serif" font-size="10.00">FromExtension</text>
</a>
</g>
</g>
<!-- Node2 -->
<g id="Node000002" class="node">
<title>Node2</title>
<g id="a_Node000002"><a xlink:href="namespaceLGE_1_1Backup.html#a8db5be221811de56211321d119281ce0" target="_top" xlink:title=" ">
<polygon fill="white" stroke="#666666" points="356.38,-222 213.62,-222 213.62,-202 356.38,-202 356.38,-222"/>
<text xml:space="preserve" text-anchor="middle" x="285" y="-208.5" font-family="Helvetica,sans-Serif" font-size="10.00">LGE::Backup::CreateBackup</text>
</a>
</g>
</g>
<!-- Node1&#45;&gt;Node2 -->
<g id="edge1_Node000001_Node000002" class="edge">
<title>Node1&#45;&gt;Node2</title>
<g id="a_edge1_Node000001_Node000002"><a xlink:title=" ">
<path fill="none" stroke="#63b8ff" d="M460.46,-129.18C439.41,-149.28 406.82,-177.09 373.25,-193 365.97,-196.45 358.04,-199.29 350.04,-201.61"/>
<polygon fill="#63b8ff" stroke="#63b8ff" points="462.68,-131.9 467.4,-122.41 457.8,-126.89 462.68,-131.9"/>
</a>
</g>
</g>
<!-- Node5 -->
<g id="Node000005" class="node">
<title>Node5</title>
<g id="a_Node000005"><a xlink:href="namespaceLGE_1_1Compression.html#a2846e365c47a6e243106be9db7c25cd0" target="_top" xlink:title=" ">
<polygon fill="white" stroke="#666666" points="365.38,-184 204.62,-184 204.62,-152 365.38,-152 365.38,-184"/>
<text xml:space="preserve" text-anchor="start" x="212.62" y="-170.5" font-family="Helvetica,sans-Serif" font-size="10.00">LGE::Compression::Decompress</text>
<text xml:space="preserve" text-anchor="middle" x="285" y="-158.5" font-family="Helvetica,sans-Serif" font-size="10.00">Archive</text>
</a>
</g>
</g>
<!-- Node1&#45;&gt;Node5 -->
<g id="edge4_Node000001_Node000005" class="edge">
<title>Node1&#45;&gt;Node5</title>
<g id="a_edge4_Node000001_Node000005"><a xlink:title=" ">
<path fill="none" stroke="#63b8ff" d="M421.46,-124.93C394.53,-133.49 363.44,-143.38 337.84,-151.52"/>
<polygon fill="#63b8ff" stroke="#63b8ff" points="422.42,-128.29 430.89,-121.93 420.3,-121.62 422.42,-128.29"/>
</a>
</g>
</g>
<!-- Node6 -->
<g id="Node000006" class="node">
<title>Node6</title>
<g id="a_Node000006"><a xlink:href="namespaceLGE_1_1Backup.html#a2e9fa2883a6f23a0dbcb35478ae5dfcc" target="_top" xlink:title=" ">
<polygon fill="white" stroke="#666666" points="154.38,-156 6.38,-156 6.38,-136 154.38,-136 154.38,-156"/>
<text xml:space="preserve" text-anchor="middle" x="80.38" y="-142.5" font-family="Helvetica,sans-Serif" font-size="10.00">LGE::Backup::RestoreBackup</text>
</a>
</g>
</g>
<!-- Node1&#45;&gt;Node6 -->
<g id="edge9_Node000001_Node000006" class="edge">
<title>Node1&#45;&gt;Node6</title>
<g id="a_edge9_Node000001_Node000006"><a xlink:title=" ">
<path fill="none" stroke="#63b8ff" d="M397.49,-113.82C325.08,-121.19 222.97,-131.59 154.59,-138.55"/>
<polygon fill="#63b8ff" stroke="#63b8ff" points="397.74,-117.31 407.34,-112.82 397.03,-110.35 397.74,-117.31"/>
</a>
</g>
</g>
<!-- Node7 -->
<g id="Node000007" class="node">
<title>Node7</title>
<g id="a_Node000007"><a xlink:href="namespaceLGE_1_1Compression.html#ae182fd3025fdd53ab51abcd4bf351ad9" target="_top" xlink:title=" ">
<polygon fill="white" stroke="#666666" points="373.25,-96 196.75,-96 196.75,-76 373.25,-76 373.25,-96"/>
<text xml:space="preserve" text-anchor="middle" x="285" y="-82.5" font-family="Helvetica,sans-Serif" font-size="10.00">LGE::Compression::DecompressFile</text>
</a>
</g>
</g>
<!-- Node1&#45;&gt;Node7 -->
<g id="edge6_Node000001_Node000007" class="edge">
<title>Node1&#45;&gt;Node7</title>
<g id="a_edge6_Node000001_Node000007"><a xlink:title=" ">
<path fill="none" stroke="#63b8ff" d="M397.67,-96.71C389.63,-95.94 381.47,-95.16 373.42,-94.38"/>
<polygon fill="#63b8ff" stroke="#63b8ff" points="397.14,-100.17 407.43,-97.65 397.81,-93.21 397.14,-100.17"/>
</a>
</g>
</g>
<!-- Node8 -->
<g id="Node000008" class="node">
<title>Node8</title>
<g id="a_Node000008"><a xlink:href="namespaceLGE_1_1Compression.html#a0eef9f36d7ea805268fd03a4fe5f9202" target="_top" xlink:title=" ">
<polygon fill="white" stroke="#666666" points="371.75,-58 198.25,-58 198.25,-38 371.75,-38 371.75,-58"/>
<text xml:space="preserve" text-anchor="middle" x="285" y="-44.5" font-family="Helvetica,sans-Serif" font-size="10.00">LGE::Compression::GetOriginalSize</text>
</a>
</g>
</g>
<!-- Node1&#45;&gt;Node8 -->
<g id="edge7_Node000001_Node000008" class="edge">
<title>Node1&#45;&gt;Node8</title>
<g id="a_edge7_Node000001_Node000008"><a xlink:title=" ">
<path fill="none" stroke="#63b8ff" d="M429.25,-84.79C411.51,-78.63 391.67,-72.14 373.25,-67 362.2,-63.91 350.25,-61.03 338.84,-58.48"/>
<polygon fill="#63b8ff" stroke="#63b8ff" points="427.96,-88.04 438.56,-88.06 430.28,-81.44 427.96,-88.04"/>
</a>
</g>
</g>
<!-- Node9 -->
<g id="Node000009" class="node">
<title>Node9</title>
<g id="a_Node000009"><a xlink:href="namespaceLGE_1_1Compression.html#a6657e322929a91e8d6c77bd50bc93dc5" target="_top" xlink:title=" ">
<polygon fill="white" stroke="#666666" points="369.5,-20 200.5,-20 200.5,0 369.5,0 369.5,-20"/>
<text xml:space="preserve" text-anchor="middle" x="285" y="-6.5" font-family="Helvetica,sans-Serif" font-size="10.00">LGE::Compression::IsCompressed</text>
</a>
</g>
</g>
<!-- Node1&#45;&gt;Node9 -->
<g id="edge8_Node000001_Node000009" class="edge">
<title>Node1&#45;&gt;Node9</title>
<g id="a_edge8_Node000001_Node000009"><a xlink:title=" ">
<path fill="none" stroke="#63b8ff" d="M456.62,-81.64C435.21,-64.62 404.04,-42.3 373.25,-29 365.42,-25.62 356.93,-22.81 348.42,-20.49"/>
<polygon fill="#63b8ff" stroke="#63b8ff" points="454.31,-84.27 464.28,-87.85 458.72,-78.83 454.31,-84.27"/>
</a>
</g>
</g>
<!-- Node3 -->
<g id="Node000003" class="node">
<title>Node3</title>
<g id="a_Node000003"><a xlink:href="namespaceLGE_1_1Backup.html#ad6294b6da335fe274372b3821fe490b4" target="_top" xlink:title=" ">
<polygon fill="white" stroke="#666666" points="160.75,-267 0,-267 0,-235 160.75,-235 160.75,-267"/>
<text xml:space="preserve" text-anchor="start" x="8" y="-253.5" font-family="Helvetica,sans-Serif" font-size="10.00">LGE::Backup::CreateIncremental</text>
<text xml:space="preserve" text-anchor="middle" x="80.38" y="-241.5" font-family="Helvetica,sans-Serif" font-size="10.00">Backup</text>
</a>
</g>
</g>
<!-- Node2&#45;&gt;Node3 -->
<g id="edge2_Node000002_Node000003" class="edge">
<title>Node2&#45;&gt;Node3</title>
<g id="a_edge2_Node000002_Node000003"><a xlink:title=" ">
<path fill="none" stroke="#63b8ff" d="M218.54,-224.6C200.19,-228.13 180.05,-232.01 160.98,-235.68"/>
<polygon fill="#63b8ff" stroke="#63b8ff" points="219.06,-228.06 228.21,-222.74 217.73,-221.19 219.06,-228.06"/>
</a>
</g>
</g>
<!-- Node4 -->
<g id="Node000004" class="node">
<title>Node4</title>
<g id="a_Node000004"><a xlink:href="namespaceLGE_1_1Backup.html#a7de11ff292510de53398d602090fa1fe" target="_top" xlink:title=" ">
<polygon fill="white" stroke="#666666" points="160.75,-217 0,-217 0,-185 160.75,-185 160.75,-217"/>
<text xml:space="preserve" text-anchor="start" x="8" y="-203.5" font-family="Helvetica,sans-Serif" font-size="10.00">LGE::Backup::PerformScheduled</text>
<text xml:space="preserve" text-anchor="middle" x="80.38" y="-191.5" font-family="Helvetica,sans-Serif" font-size="10.00">Backup</text>
</a>
</g>
</g>
<!-- Node2&#45;&gt;Node4 -->
<g id="edge3_Node000002_Node000004" class="edge">
<title>Node2&#45;&gt;Node4</title>
<g id="a_edge3_Node000002_Node000004"><a xlink:title=" ">
<path fill="none" stroke="#63b8ff" d="M201.97,-207.55C188.52,-206.82 174.6,-206.06 161.21,-205.33"/>
<polygon fill="#63b8ff" stroke="#63b8ff" points="201.45,-211.02 211.62,-208.07 201.82,-204.03 201.45,-211.02"/>
</a>
</g>
</g>
<!-- Node5&#45;&gt;Node6 -->
<g id="edge5_Node000005_Node000006" class="edge">
<title>Node5&#45;&gt;Node6</title>
<g id="a_edge5_Node000005_Node000006"><a xlink:title=" ">
<path fill="none" stroke="#63b8ff" d="M193.04,-158.12C180.25,-156.74 167.24,-155.32 154.83,-153.97"/>
<polygon fill="#63b8ff" stroke="#63b8ff" points="192.38,-161.57 202.7,-159.17 193.14,-154.61 192.38,-161.57"/>
</a>
</g>
</g>
</g>
</svg>
