<?xml version="1.0" encoding="UTF-8" standalone="no"?>
<!DOCTYPE svg PUBLIC "-//W3C//DTD SVG 1.1//EN"
 "http://www.w3.org/Graphics/SVG/1.1/DTD/svg11.dtd">
<!-- Generated by graphviz version 14.0.2 (20251019.1705)
 -->
<!-- Title: LGE::Migration::MigrateMetadata Pages: 1 -->
<svg width="851pt" height="398pt"
 viewBox="0.00 0.00 851.00 398.00" xmlns="http://www.w3.org/2000/svg" xmlns:xlink="http://www.w3.org/1999/xlink">
<g id="graph0" class="graph" transform="scale(1 1) rotate(0) translate(4 394)">
<title>LGE::Migration::MigrateMetadata</title>
<!-- Node1 -->
<g id="Node000001" class="node">
<title>Node1</title>
<g id="a_Node000001"><a xlink:title=" ">
<polygon fill="#999999" stroke="#666666" points="842.75,-95 682.75,-95 682.75,-75 842.75,-75 842.75,-95"/>
<text xml:space="preserve" text-anchor="middle" x="762.75" y="-81.5" font-family="Helvetica,sans-Serif" font-size="10.00">LGE::Migration::MigrateMetadata</text>
</a>
</g>
</g>
<!-- Node2 -->
<g id="Node000002" class="node">
<title>Node2</title>
<g id="a_Node000002"><a xlink:href="namespaceLGE_1_1MetaDB.html#a9f494f7c23ef0715fa5881a46b93c940" target="_top" xlink:title=" ">
<polygon fill="white" stroke="#666666" points="646.75,-164 542.25,-164 542.25,-144 646.75,-144 646.75,-164"/>
<text xml:space="preserve" text-anchor="middle" x="594.5" y="-150.5" font-family="Helvetica,sans-Serif" font-size="10.00">LGE::MetaDB::Load</text>
</a>
</g>
</g>
<!-- Node1&#45;&gt;Node2 -->
<g id="edge1_Node000001_Node000002" class="edge">
<title>Node1&#45;&gt;Node2</title>
<g id="a_edge1_Node000001_Node000002"><a xlink:title=" ">
<path fill="none" stroke="#63b8ff" d="M725.91,-99.88C694.2,-113.04 648.73,-131.91 620.71,-143.54"/>
<polygon fill="#63b8ff" stroke="#63b8ff" points="727.21,-103.13 735.1,-96.06 724.52,-96.66 727.21,-103.13"/>
</a>
</g>
</g>
<!-- Node11 -->
<g id="Node000011" class="node">
<title>Node11</title>
<g id="a_Node000011"><a xlink:href="namespaceLGE_1_1Migration.html#aab471190f199928c6dc7f32f6e042b72" target="_top" xlink:title=" ">
<polygon fill="white" stroke="#666666" points="492.38,-32 361.62,-32 361.62,0 492.38,0 492.38,-32"/>
<text xml:space="preserve" text-anchor="start" x="369.62" y="-18.5" font-family="Helvetica,sans-Serif" font-size="10.00">LGE::Migration::MigrateAll</text>
<text xml:space="preserve" text-anchor="middle" x="427" y="-6.5" font-family="Helvetica,sans-Serif" font-size="10.00">Metadata</text>
</a>
</g>
</g>
<!-- Node1&#45;&gt;Node11 -->
<g id="edge20_Node000001_Node000011" class="edge">
<title>Node1&#45;&gt;Node11</title>
<g id="a_edge20_Node000001_Node000011"><a xlink:title=" ">
<path fill="none" stroke="#63b8ff" d="M700.05,-72.24C641.09,-60.05 552.56,-41.75 492.65,-29.36"/>
<polygon fill="#63b8ff" stroke="#63b8ff" points="699.08,-75.62 709.58,-74.21 700.49,-68.76 699.08,-75.62"/>
</a>
</g>
</g>
<!-- Node3 -->
<g id="Node000003" class="node">
<title>Node3</title>
<g id="a_Node000003"><a xlink:href="namespaceLGE_1_1Thumbs.html#a20e7c9fbfb16b84f63099872c64f241d" target="_top" xlink:title=" ">
<polygon fill="white" stroke="#666666" points="479.25,-373 374.75,-373 374.75,-353 479.25,-353 479.25,-373"/>
<text xml:space="preserve" text-anchor="middle" x="427" y="-359.5" font-family="Helvetica,sans-Serif" font-size="10.00">LGE::Thumbs::Build</text>
</a>
</g>
</g>
<!-- Node2&#45;&gt;Node3 -->
<g id="edge2_Node000002_Node000003" class="edge">
<title>Node2&#45;&gt;Node3</title>
<g id="a_edge2_Node000002_Node000003"><a xlink:title=" ">
<path fill="none" stroke="#63b8ff" d="M588.69,-174.96C579.17,-211.87 554.57,-288.73 506.25,-333 496.7,-341.75 484.34,-348.04 472.26,-352.52"/>
<polygon fill="#63b8ff" stroke="#63b8ff" points="592.01,-176.1 590.99,-165.55 585.21,-174.43 592.01,-176.1"/>
</a>
</g>
</g>
<!-- Node6 -->
<g id="Node000006" class="node">
<title>Node6</title>
<g id="a_Node000006"><a xlink:href="namespaceLGE_1_1Validation.html#afc0cd19e558fa12673f3bdb03934e3cc" target="_top" xlink:title=" ">
<polygon fill="white" stroke="#666666" points="503.62,-324 350.38,-324 350.38,-304 503.62,-304 503.62,-324"/>
<text xml:space="preserve" text-anchor="middle" x="427" y="-310.5" font-family="Helvetica,sans-Serif" font-size="10.00">LGE::Validation::CheckIntegrity</text>
</a>
</g>
</g>
<!-- Node2&#45;&gt;Node6 -->
<g id="edge5_Node000002_Node000006" class="edge">
<title>Node2&#45;&gt;Node6</title>
<g id="a_edge5_Node000002_Node000006"><a xlink:title=" ">
<path fill="none" stroke="#63b8ff" d="M583.54,-174.76C569.61,-201.91 541.94,-249.48 506.25,-279 493.18,-289.81 476.23,-297.94 461.45,-303.62"/>
<polygon fill="#63b8ff" stroke="#63b8ff" points="586.66,-176.35 587.98,-165.84 580.39,-173.23 586.66,-176.35"/>
</a>
</g>
</g>
<!-- Node8 -->
<g id="Node000008" class="node">
<title>Node8</title>
<g id="a_Node000008"><a xlink:href="namespaceLGE_1_1Validation.html#a8a95594c50b28ddc8bbe656af6ff9385" target="_top" xlink:title=" ">
<polygon fill="white" stroke="#666666" points="506.25,-220 347.75,-220 347.75,-188 506.25,-188 506.25,-220"/>
<text xml:space="preserve" text-anchor="start" x="355.75" y="-206.5" font-family="Helvetica,sans-Serif" font-size="10.00">LGE::Validation::CheckMetadata</text>
<text xml:space="preserve" text-anchor="middle" x="427" y="-194.5" font-family="Helvetica,sans-Serif" font-size="10.00">Matches</text>
</a>
</g>
</g>
<!-- Node2&#45;&gt;Node8 -->
<g id="edge7_Node000002_Node000008" class="edge">
<title>Node2&#45;&gt;Node8</title>
<g id="a_edge7_Node000002_Node000008"><a xlink:title=" ">
<path fill="none" stroke="#63b8ff" d="M547.98,-167.75C527.73,-173.87 503.72,-181.12 482.52,-187.53"/>
<polygon fill="#63b8ff" stroke="#63b8ff" points="548.8,-171.16 557.36,-164.92 546.77,-164.46 548.8,-171.16"/>
</a>
</g>
</g>
<!-- Node9 -->
<g id="Node000009" class="node">
<title>Node9</title>
<g id="a_Node000009"><a xlink:href="namespaceLGE_1_1ImportExport.html#aee6be1efe068881b5c6d41e8011b729c" target="_top" xlink:title=" ">
<polygon fill="white" stroke="#666666" points="478.88,-170 375.12,-170 375.12,-138 478.88,-138 478.88,-170"/>
<text xml:space="preserve" text-anchor="start" x="383.12" y="-156.5" font-family="Helvetica,sans-Serif" font-size="10.00">LGE::ImportExport::</text>
<text xml:space="preserve" text-anchor="middle" x="427" y="-144.5" font-family="Helvetica,sans-Serif" font-size="10.00">ExportAsset</text>
</a>
</g>
</g>
<!-- Node2&#45;&gt;Node9 -->
<g id="edge8_Node000002_Node000009" class="edge">
<title>Node2&#45;&gt;Node9</title>
<g id="a_edge8_Node000002_Node000009"><a xlink:title=" ">
<path fill="none" stroke="#63b8ff" d="M531,-154C513.89,-154 495.54,-154 479.14,-154"/>
<polygon fill="#63b8ff" stroke="#63b8ff" points="530.53,-157.5 540.53,-154 530.53,-150.5 530.53,-157.5"/>
</a>
</g>
</g>
<!-- Node2&#45;&gt;Node11 -->
<g id="edge10_Node000002_Node000011" class="edge">
<title>Node2&#45;&gt;Node11</title>
<g id="a_edge10_Node000002_Node000011"><a xlink:title=" ">
<path fill="none" stroke="#63b8ff" d="M580.37,-134.23C560.9,-105.42 524.69,-53.92 506.25,-41 501.58,-37.73 496.46,-34.86 491.14,-32.37"/>
<polygon fill="#63b8ff" stroke="#63b8ff" points="577.41,-136.09 585.88,-142.45 583.22,-132.19 577.41,-136.09"/>
</a>
</g>
</g>
<!-- Node12 -->
<g id="Node000012" class="node">
<title>Node12</title>
<g id="a_Node000012"><a xlink:href="namespaceLGE_1_1FSOps.html#af7986867af7965c5a24f0751897ccb06" target="_top" xlink:title=" ">
<polygon fill="white" stroke="#666666" points="486,-120 368,-120 368,-100 486,-100 486,-120"/>
<text xml:space="preserve" text-anchor="middle" x="427" y="-106.5" font-family="Helvetica,sans-Serif" font-size="10.00">LGE::FSOps::Reimport</text>
</a>
</g>
</g>
<!-- Node2&#45;&gt;Node12 -->
<g id="edge11_Node000002_Node000012" class="edge">
<title>Node2&#45;&gt;Node12</title>
<g id="a_edge11_Node000002_Node000012"><a xlink:title=" ">
<path fill="none" stroke="#63b8ff" d="M547.54,-140.45C534.25,-136.63 519.7,-132.56 506.25,-129 495.3,-126.1 483.45,-123.14 472.36,-120.44"/>
<polygon fill="#63b8ff" stroke="#63b8ff" points="546.32,-143.74 556.9,-143.16 548.27,-137.02 546.32,-143.74"/>
</a>
</g>
</g>
<!-- Node14 -->
<g id="Node000014" class="node">
<title>Node14</title>
<g id="a_Node000014"><a xlink:href="namespaceLGE_1_1Validation.html#ae388b93a917b4462203ff6011eb925db" target="_top" xlink:title=" ">
<polygon fill="white" stroke="#666666" points="489,-270 365,-270 365,-238 489,-238 489,-270"/>
<text xml:space="preserve" text-anchor="start" x="373" y="-256.5" font-family="Helvetica,sans-Serif" font-size="10.00">LGE::Validation::Validate</text>
<text xml:space="preserve" text-anchor="middle" x="427" y="-244.5" font-family="Helvetica,sans-Serif" font-size="10.00">Asset</text>
</a>
</g>
</g>
<!-- Node2&#45;&gt;Node14 -->
<g id="edge13_Node000002_Node000014" class="edge">
<title>Node2&#45;&gt;Node14</title>
<g id="a_edge13_Node000002_Node000014"><a xlink:title=" ">
<path fill="none" stroke="#63b8ff" d="M576.36,-172.49C559.84,-189.32 533.42,-213.81 506.25,-229 500.52,-232.2 494.33,-235.06 488.02,-237.59"/>
<polygon fill="#63b8ff" stroke="#63b8ff" points="578.61,-175.2 583,-165.56 573.55,-170.36 578.61,-175.2"/>
</a>
</g>
</g>
<!-- Node19 -->
<g id="Node000019" class="node">
<title>Node19</title>
<g id="a_Node000019"><a xlink:href="namespaceLGE_1_1Validation.html#a3a3151866b20f58b56467e0f10604685" target="_top" xlink:title=" ">
<polygon fill="white" stroke="#666666" points="489,-82 365,-82 365,-50 489,-50 489,-82"/>
<text xml:space="preserve" text-anchor="start" x="373" y="-68.5" font-family="Helvetica,sans-Serif" font-size="10.00">LGE::Validation::Validate</text>
<text xml:space="preserve" text-anchor="middle" x="427" y="-56.5" font-family="Helvetica,sans-Serif" font-size="10.00">Metadata</text>
</a>
</g>
</g>
<!-- Node2&#45;&gt;Node19 -->
<g id="edge19_Node000002_Node000019" class="edge">
<title>Node2&#45;&gt;Node19</title>
<g id="a_edge19_Node000002_Node000019"><a xlink:title=" ">
<path fill="none" stroke="#63b8ff" d="M573.37,-136.61C556.41,-122.7 531.02,-103.5 506.25,-91 500.01,-87.85 493.29,-84.99 486.51,-82.43"/>
<polygon fill="#63b8ff" stroke="#63b8ff" points="570.79,-139.02 580.7,-142.76 575.28,-133.65 570.79,-139.02"/>
</a>
</g>
</g>
<!-- Node4 -->
<g id="Node000004" class="node">
<title>Node4</title>
<g id="a_Node000004"><a xlink:href="namespaceLGE_1_1Thumbs.html#aff11822502a43d83cc911490abbf316b" target="_top" xlink:title=" ">
<polygon fill="white" stroke="#666666" points="311.75,-390 157.75,-390 157.75,-358 311.75,-358 311.75,-390"/>
<text xml:space="preserve" text-anchor="start" x="165.75" y="-376.5" font-family="Helvetica,sans-Serif" font-size="10.00">LGE::Thumbs::ProcessPending</text>
<text xml:space="preserve" text-anchor="middle" x="234.75" y="-364.5" font-family="Helvetica,sans-Serif" font-size="10.00">Builds</text>
</a>
</g>
</g>
<!-- Node3&#45;&gt;Node4 -->
<g id="edge3_Node000003_Node000004" class="edge">
<title>Node3&#45;&gt;Node4</title>
<g id="a_edge3_Node000003_Node000004"><a xlink:title=" ">
<path fill="none" stroke="#63b8ff" d="M363.21,-366.63C346.86,-367.58 329.07,-368.6 312.11,-369.58"/>
<polygon fill="#63b8ff" stroke="#63b8ff" points="362.97,-370.15 372.75,-366.08 362.57,-363.16 362.97,-370.15"/>
</a>
</g>
</g>
<!-- Node5 -->
<g id="Node000005" class="node">
<title>Node5</title>
<g id="a_Node000005"><a xlink:href="classExampleApp.html#a69ab083ae73184bfc9bafca1c9310771" target="_top" xlink:title=" ">
<polygon fill="white" stroke="#666666" points="121.75,-384 0,-384 0,-364 121.75,-364 121.75,-384"/>
<text xml:space="preserve" text-anchor="middle" x="60.88" y="-370.5" font-family="Helvetica,sans-Serif" font-size="10.00">ExampleApp::OnUpdate</text>
</a>
</g>
</g>
<!-- Node4&#45;&gt;Node5 -->
<g id="edge4_Node000004_Node000005" class="edge">
<title>Node4&#45;&gt;Node5</title>
<g id="a_edge4_Node000004_Node000005"><a xlink:title=" ">
<path fill="none" stroke="#63b8ff" d="M145.94,-374C137.86,-374 129.79,-374 122.04,-374"/>
<polygon fill="#63b8ff" stroke="#63b8ff" points="145.85,-377.5 155.85,-374 145.85,-370.5 145.85,-377.5"/>
</a>
</g>
</g>
<!-- Node7 -->
<g id="Node000007" class="node">
<title>Node7</title>
<g id="a_Node000007"><a xlink:href="namespaceLGE_1_1Validation.html#a5ed2957323e8381437806ac0d0fd02cf" target="_top" xlink:title=" ">
<polygon fill="white" stroke="#666666" points="308,-340 161.5,-340 161.5,-320 308,-320 308,-340"/>
<text xml:space="preserve" text-anchor="middle" x="234.75" y="-326.5" font-family="Helvetica,sans-Serif" font-size="10.00">LGE::Validation::CheckHealth</text>
</a>
</g>
</g>
<!-- Node6&#45;&gt;Node7 -->
<g id="edge6_Node000006_Node000007" class="edge">
<title>Node6&#45;&gt;Node7</title>
<g id="a_edge6_Node000006_Node000007"><a xlink:title=" ">
<path fill="none" stroke="#63b8ff" d="M338.6,-321.35C328.44,-322.2 318.16,-323.07 308.24,-323.9"/>
<polygon fill="#63b8ff" stroke="#63b8ff" points="338.81,-324.85 348.48,-320.52 338.22,-317.87 338.81,-324.85"/>
</a>
</g>
</g>
<!-- Node10 -->
<g id="Node000010" class="node">
<title>Node10</title>
<g id="a_Node000010"><a xlink:href="namespaceLGE_1_1ImportExport.html#a9f66230255c444c6b3c439ce3c1459f6" target="_top" xlink:title=" ">
<polygon fill="white" stroke="#666666" points="286.62,-138 182.88,-138 182.88,-106 286.62,-106 286.62,-138"/>
<text xml:space="preserve" text-anchor="start" x="190.88" y="-124.5" font-family="Helvetica,sans-Serif" font-size="10.00">LGE::ImportExport::</text>
<text xml:space="preserve" text-anchor="middle" x="234.75" y="-112.5" font-family="Helvetica,sans-Serif" font-size="10.00">ExportAssets</text>
</a>
</g>
</g>
<!-- Node9&#45;&gt;Node10 -->
<g id="edge9_Node000009_Node000010" class="edge">
<title>Node9&#45;&gt;Node10</title>
<g id="a_edge9_Node000009_Node000010"><a xlink:title=" ">
<path fill="none" stroke="#63b8ff" d="M363.64,-143.51C338.84,-139.34 310.66,-134.6 287.08,-130.63"/>
<polygon fill="#63b8ff" stroke="#63b8ff" points="362.83,-146.92 373.27,-145.13 363.99,-140.02 362.83,-146.92"/>
</a>
</g>
</g>
<!-- Node13 -->
<g id="Node000013" class="node">
<title>Node13</title>
<g id="a_Node000013"><a xlink:href="namespaceLGE_1_1ImportExport.html#aa73ba2a6e02f5350668e8a28ecea64c2" target="_top" xlink:title=" ">
<polygon fill="white" stroke="#666666" points="286.62,-88 182.88,-88 182.88,-56 286.62,-56 286.62,-88"/>
<text xml:space="preserve" text-anchor="start" x="190.88" y="-74.5" font-family="Helvetica,sans-Serif" font-size="10.00">LGE::ImportExport::</text>
<text xml:space="preserve" text-anchor="middle" x="234.75" y="-62.5" font-family="Helvetica,sans-Serif" font-size="10.00">ReimportAsset</text>
</a>
</g>
</g>
<!-- Node12&#45;&gt;Node13 -->
<g id="edge12_Node000012_Node000013" class="edge">
<title>Node12&#45;&gt;Node13</title>
<g id="a_edge12_Node000012_Node000013"><a xlink:title=" ">
<path fill="none" stroke="#63b8ff" d="M362.5,-97.32C337.98,-92.42 310.3,-86.89 287.08,-82.25"/>
<polygon fill="#63b8ff" stroke="#63b8ff" points="361.53,-100.69 372.03,-99.22 362.9,-93.83 361.53,-100.69"/>
</a>
</g>
</g>
<!-- Node14&#45;&gt;Node7 -->
<g id="edge14_Node000014_Node000007" class="edge">
<title>Node14&#45;&gt;Node7</title>
<g id="a_edge14_Node000014_Node000007"><a xlink:title=" ">
<path fill="none" stroke="#63b8ff" d="M385.14,-275.56C358.54,-289.37 326.18,-305.67 311.75,-311 302.95,-314.25 293.37,-317.13 284.07,-319.6"/>
<polygon fill="#63b8ff" stroke="#63b8ff" points="386.42,-278.84 393.67,-271.11 383.18,-272.63 386.42,-278.84"/>
</a>
</g>
</g>
<!-- Node15 -->
<g id="Node000015" class="node">
<title>Node15</title>
<g id="a_Node000015"><a xlink:href="namespaceLGE_1_1Bundles.html#aa9d4c4452f76b1187a963bea3168be71" target="_top" xlink:title=" ">
<polygon fill="white" stroke="#666666" points="305.75,-302 163.75,-302 163.75,-282 305.75,-282 305.75,-302"/>
<text xml:space="preserve" text-anchor="middle" x="234.75" y="-288.5" font-family="Helvetica,sans-Serif" font-size="10.00">LGE::Bundles::CreateBundle</text>
</a>
</g>
</g>
<!-- Node14&#45;&gt;Node15 -->
<g id="edge15_Node000014_Node000015" class="edge">
<title>Node14&#45;&gt;Node15</title>
<g id="a_edge15_Node000014_Node000015"><a xlink:title=" ">
<path fill="none" stroke="#63b8ff" d="M353.57,-268.47C331.84,-272.81 308.43,-277.48 288.25,-281.51"/>
<polygon fill="#63b8ff" stroke="#63b8ff" points="354.15,-271.92 363.27,-266.53 352.78,-265.06 354.15,-271.92"/>
</a>
</g>
</g>
<!-- Node16 -->
<g id="Node000016" class="node">
<title>Node16</title>
<g id="a_Node000016"><a xlink:href="namespaceLGE_1_1Validation.html#a467a0168bbefb71a643b4764f249c376" target="_top" xlink:title=" ">
<polygon fill="white" stroke="#666666" points="306.5,-264 163,-264 163,-244 306.5,-244 306.5,-264"/>
<text xml:space="preserve" text-anchor="middle" x="234.75" y="-250.5" font-family="Helvetica,sans-Serif" font-size="10.00">LGE::Validation::RepairAsset</text>
</a>
</g>
</g>
<!-- Node14&#45;&gt;Node16 -->
<g id="edge16_Node000014_Node000016" class="edge">
<title>Node14&#45;&gt;Node16</title>
<g id="a_edge16_Node000014_Node000016"><a xlink:title=" ">
<path fill="none" stroke="#63b8ff" d="M353.29,-254C338.05,-254 322,-254 306.82,-254"/>
<polygon fill="#63b8ff" stroke="#63b8ff" points="353.24,-257.5 363.24,-254 353.24,-250.5 353.24,-257.5"/>
</a>
</g>
</g>
<!-- Node17 -->
<g id="Node000017" class="node">
<title>Node17</title>
<g id="a_Node000017"><a xlink:href="namespaceLGE_1_1Validation.html#ab5e87b018ce35925ea7bc7cd1f6b6a87" target="_top" xlink:title=" ">
<polygon fill="white" stroke="#666666" points="302.38,-226 167.12,-226 167.12,-206 302.38,-206 302.38,-226"/>
<text xml:space="preserve" text-anchor="middle" x="234.75" y="-212.5" font-family="Helvetica,sans-Serif" font-size="10.00">LGE::Validation::ValidateAll</text>
</a>
</g>
</g>
<!-- Node14&#45;&gt;Node17 -->
<g id="edge17_Node000014_Node000017" class="edge">
<title>Node14&#45;&gt;Node17</title>
<g id="a_edge17_Node000014_Node000017"><a xlink:title=" ">
<path fill="none" stroke="#63b8ff" d="M353.57,-239.53C331.84,-235.19 308.43,-230.52 288.25,-226.49"/>
<polygon fill="#63b8ff" stroke="#63b8ff" points="352.78,-242.94 363.27,-241.47 354.15,-236.08 352.78,-242.94"/>
</a>
</g>
</g>
<!-- Node18 -->
<g id="Node000018" class="node">
<title>Node18</title>
<g id="a_Node000018"><a xlink:href="namespaceLGE_1_1Validation.html#a79589cf3c193492d81b8c87268350ce5" target="_top" xlink:title=" ">
<polygon fill="white" stroke="#666666" points="296.75,-188 172.75,-188 172.75,-156 296.75,-156 296.75,-188"/>
<text xml:space="preserve" text-anchor="start" x="180.75" y="-174.5" font-family="Helvetica,sans-Serif" font-size="10.00">LGE::Validation::Validate</text>
<text xml:space="preserve" text-anchor="middle" x="234.75" y="-162.5" font-family="Helvetica,sans-Serif" font-size="10.00">Assets</text>
</a>
</g>
</g>
<!-- Node14&#45;&gt;Node18 -->
<g id="edge18_Node000014_Node000018" class="edge">
<title>Node14&#45;&gt;Node18</title>
<g id="a_edge18_Node000014_Node000018"><a xlink:title=" ">
<path fill="none" stroke="#63b8ff" d="M355.03,-232.84C352.54,-231.62 350.1,-230.34 347.75,-229 329.15,-218.4 330.3,-207.68 311.75,-197 306.21,-193.81 300.21,-190.96 294.09,-188.43"/>
<polygon fill="#63b8ff" stroke="#63b8ff" points="353.58,-236.02 364.14,-236.9 356.43,-229.63 353.58,-236.02"/>
</a>
</g>
</g>
</g>
</svg>
