<?xml version="1.0" encoding="UTF-8" standalone="no"?>
<!DOCTYPE svg PUBLIC "-//W3C//DTD SVG 1.1//EN"
 "http://www.w3.org/Graphics/SVG/1.1/DTD/svg11.dtd">
<!-- Generated by graphviz version 14.0.2 (20251019.1705)
 -->
<!-- Title: LGE::Migration::NeedsMigration Pages: 1 -->
<svg width="1042pt" height="398pt"
 viewBox="0.00 0.00 1042.00 398.00" xmlns="http://www.w3.org/2000/svg" xmlns:xlink="http://www.w3.org/1999/xlink">
<g id="graph0" class="graph" transform="scale(1 1) rotate(0) translate(4 394)">
<title>LGE::Migration::NeedsMigration</title>
<!-- Node1 -->
<g id="Node000001" class="node">
<title>Node1</title>
<g id="a_Node000001"><a xlink:title=" ">
<polygon fill="#999999" stroke="#666666" points="1034.25,-99 878.75,-99 878.75,-79 1034.25,-79 1034.25,-99"/>
<text xml:space="preserve" text-anchor="middle" x="956.5" y="-85.5" font-family="Helvetica,sans-Serif" font-size="10.00">LGE::Migration::NeedsMigration</text>
</a>
</g>
</g>
<!-- Node2 -->
<g id="Node000002" class="node">
<title>Node2</title>
<g id="a_Node000002"><a xlink:href="namespaceLGE_1_1MetaDB.html#a9f494f7c23ef0715fa5881a46b93c940" target="_top" xlink:title=" ">
<polygon fill="white" stroke="#666666" points="646.75,-142 542.25,-142 542.25,-122 646.75,-122 646.75,-142"/>
<text xml:space="preserve" text-anchor="middle" x="594.5" y="-128.5" font-family="Helvetica,sans-Serif" font-size="10.00">LGE::MetaDB::Load</text>
</a>
</g>
</g>
<!-- Node1&#45;&gt;Node2 -->
<g id="edge1_Node000001_Node000002" class="edge">
<title>Node1&#45;&gt;Node2</title>
<g id="a_edge1_Node000001_Node000002"><a xlink:title=" ">
<path fill="none" stroke="#63b8ff" d="M887,-101.33C872.42,-103.74 857.1,-106.1 842.75,-108 775.41,-116.93 697.35,-123.96 647.24,-128.04"/>
<polygon fill="#63b8ff" stroke="#63b8ff" points="887.19,-104.85 896.48,-99.75 886.04,-97.95 887.19,-104.85"/>
</a>
</g>
</g>
<!-- Node11 -->
<g id="Node000011" class="node">
<title>Node11</title>
<g id="a_Node000011"><a xlink:href="namespaceLGE_1_1Migration.html#aab471190f199928c6dc7f32f6e042b72" target="_top" xlink:title=" ">
<polygon fill="white" stroke="#666666" points="492.38,-32 361.62,-32 361.62,0 492.38,0 492.38,-32"/>
<text xml:space="preserve" text-anchor="start" x="369.62" y="-18.5" font-family="Helvetica,sans-Serif" font-size="10.00">LGE::Migration::MigrateAll</text>
<text xml:space="preserve" text-anchor="middle" x="427" y="-6.5" font-family="Helvetica,sans-Serif" font-size="10.00">Metadata</text>
</a>
</g>
</g>
<!-- Node1&#45;&gt;Node11 -->
<g id="edge20_Node000001_Node000011" class="edge">
<title>Node1&#45;&gt;Node11</title>
<g id="a_edge20_Node000001_Node000011"><a xlink:title=" ">
<path fill="none" stroke="#63b8ff" d="M884.86,-76.68C870.92,-74.36 856.38,-72.04 842.75,-70 719.22,-51.56 574.46,-33.52 492.76,-23.67"/>
<polygon fill="#63b8ff" stroke="#63b8ff" points="883.95,-80.07 894.39,-78.27 885.1,-73.17 883.95,-80.07"/>
</a>
</g>
</g>
<!-- Node20 -->
<g id="Node000020" class="node">
<title>Node20</title>
<g id="a_Node000020"><a xlink:href="namespaceLGE_1_1Migration.html#a47ee5b06f8c57da1952156f69f9582b7" target="_top" xlink:title=" ">
<polygon fill="white" stroke="#666666" points="842.75,-99 682.75,-99 682.75,-79 842.75,-79 842.75,-99"/>
<text xml:space="preserve" text-anchor="middle" x="762.75" y="-85.5" font-family="Helvetica,sans-Serif" font-size="10.00">LGE::Migration::MigrateMetadata</text>
</a>
</g>
</g>
<!-- Node1&#45;&gt;Node20 -->
<g id="edge21_Node000001_Node000020" class="edge">
<title>Node1&#45;&gt;Node20</title>
<g id="a_edge21_Node000001_Node000020"><a xlink:title=" ">
<path fill="none" stroke="#63b8ff" d="M867.04,-89C859,-89 850.9,-89 842.94,-89"/>
<polygon fill="#63b8ff" stroke="#63b8ff" points="866.82,-92.5 876.82,-89 866.82,-85.5 866.82,-92.5"/>
</a>
</g>
</g>
<!-- Node3 -->
<g id="Node000003" class="node">
<title>Node3</title>
<g id="a_Node000003"><a xlink:href="namespaceLGE_1_1Thumbs.html#a20e7c9fbfb16b84f63099872c64f241d" target="_top" xlink:title=" ">
<polygon fill="white" stroke="#666666" points="479.25,-373 374.75,-373 374.75,-353 479.25,-353 479.25,-373"/>
<text xml:space="preserve" text-anchor="middle" x="427" y="-359.5" font-family="Helvetica,sans-Serif" font-size="10.00">LGE::Thumbs::Build</text>
</a>
</g>
</g>
<!-- Node2&#45;&gt;Node3 -->
<g id="edge2_Node000002_Node000003" class="edge">
<title>Node2&#45;&gt;Node3</title>
<g id="a_edge2_Node000002_Node000003"><a xlink:title=" ">
<path fill="none" stroke="#63b8ff" d="M589.84,-153.54C581.85,-194.12 559.18,-282.32 506.25,-333 497,-341.85 484.87,-348.17 472.92,-352.64"/>
<polygon fill="#63b8ff" stroke="#63b8ff" points="593.25,-154.32 591.62,-143.85 586.37,-153.05 593.25,-154.32"/>
</a>
</g>
</g>
<!-- Node6 -->
<g id="Node000006" class="node">
<title>Node6</title>
<g id="a_Node000006"><a xlink:href="namespaceLGE_1_1Validation.html#afc0cd19e558fa12673f3bdb03934e3cc" target="_top" xlink:title=" ">
<polygon fill="white" stroke="#666666" points="503.62,-324 350.38,-324 350.38,-304 503.62,-304 503.62,-324"/>
<text xml:space="preserve" text-anchor="middle" x="427" y="-310.5" font-family="Helvetica,sans-Serif" font-size="10.00">LGE::Validation::CheckIntegrity</text>
</a>
</g>
</g>
<!-- Node2&#45;&gt;Node6 -->
<g id="edge5_Node000002_Node000006" class="edge">
<title>Node2&#45;&gt;Node6</title>
<g id="a_edge5_Node000002_Node000006"><a xlink:title=" ">
<path fill="none" stroke="#63b8ff" d="M585.91,-152.85C573.6,-184.07 546.53,-243.11 506.25,-279 493.92,-289.99 477.57,-298.03 463,-303.61"/>
<polygon fill="#63b8ff" stroke="#63b8ff" points="589.08,-154.36 589.36,-143.77 582.53,-151.88 589.08,-154.36"/>
</a>
</g>
</g>
<!-- Node8 -->
<g id="Node000008" class="node">
<title>Node8</title>
<g id="a_Node000008"><a xlink:href="namespaceLGE_1_1Validation.html#a8a95594c50b28ddc8bbe656af6ff9385" target="_top" xlink:title=" ">
<polygon fill="white" stroke="#666666" points="506.25,-220 347.75,-220 347.75,-188 506.25,-188 506.25,-220"/>
<text xml:space="preserve" text-anchor="start" x="355.75" y="-206.5" font-family="Helvetica,sans-Serif" font-size="10.00">LGE::Validation::CheckMetadata</text>
<text xml:space="preserve" text-anchor="middle" x="427" y="-194.5" font-family="Helvetica,sans-Serif" font-size="10.00">Matches</text>
</a>
</g>
</g>
<!-- Node2&#45;&gt;Node8 -->
<g id="edge7_Node000002_Node000008" class="edge">
<title>Node2&#45;&gt;Node8</title>
<g id="a_edge7_Node000002_Node000008"><a xlink:title=" ">
<path fill="none" stroke="#63b8ff" d="M566.82,-148.04C549.87,-157.81 527.23,-170.09 506.25,-179 499.03,-182.07 491.3,-184.97 483.61,-187.64"/>
<polygon fill="#63b8ff" stroke="#63b8ff" points="568.41,-151.16 575.28,-143.09 564.88,-145.12 568.41,-151.16"/>
</a>
</g>
</g>
<!-- Node9 -->
<g id="Node000009" class="node">
<title>Node9</title>
<g id="a_Node000009"><a xlink:href="namespaceLGE_1_1ImportExport.html#aee6be1efe068881b5c6d41e8011b729c" target="_top" xlink:title=" ">
<polygon fill="white" stroke="#666666" points="478.88,-170 375.12,-170 375.12,-138 478.88,-138 478.88,-170"/>
<text xml:space="preserve" text-anchor="start" x="383.12" y="-156.5" font-family="Helvetica,sans-Serif" font-size="10.00">LGE::ImportExport::</text>
<text xml:space="preserve" text-anchor="middle" x="427" y="-144.5" font-family="Helvetica,sans-Serif" font-size="10.00">ExportAsset</text>
</a>
</g>
</g>
<!-- Node2&#45;&gt;Node9 -->
<g id="edge8_Node000002_Node000009" class="edge">
<title>Node2&#45;&gt;Node9</title>
<g id="a_edge8_Node000002_Node000009"><a xlink:title=" ">
<path fill="none" stroke="#63b8ff" d="M531,-140.31C513.89,-142.58 495.54,-145.02 479.14,-147.2"/>
<polygon fill="#63b8ff" stroke="#63b8ff" points="531.09,-143.83 540.54,-139.04 530.17,-136.89 531.09,-143.83"/>
</a>
</g>
</g>
<!-- Node2&#45;&gt;Node11 -->
<g id="edge10_Node000002_Node000011" class="edge">
<title>Node2&#45;&gt;Node11</title>
<g id="a_edge10_Node000002_Node000011"><a xlink:title=" ">
<path fill="none" stroke="#63b8ff" d="M567.45,-115.27C558.92,-109.14 549.72,-101.78 542.25,-94 522.54,-73.45 529.06,-58.04 506.25,-41 501.91,-37.76 497.13,-34.92 492.14,-32.45"/>
<polygon fill="#63b8ff" stroke="#63b8ff" points="565.21,-117.98 575.43,-120.77 569.18,-112.22 565.21,-117.98"/>
</a>
</g>
</g>
<!-- Node12 -->
<g id="Node000012" class="node">
<title>Node12</title>
<g id="a_Node000012"><a xlink:href="namespaceLGE_1_1FSOps.html#af7986867af7965c5a24f0751897ccb06" target="_top" xlink:title=" ">
<polygon fill="white" stroke="#666666" points="486,-120 368,-120 368,-100 486,-100 486,-120"/>
<text xml:space="preserve" text-anchor="middle" x="427" y="-106.5" font-family="Helvetica,sans-Serif" font-size="10.00">LGE::FSOps::Reimport</text>
</a>
</g>
</g>
<!-- Node2&#45;&gt;Node12 -->
<g id="edge11_Node000002_Node000012" class="edge">
<title>Node2&#45;&gt;Node12</title>
<g id="a_edge11_Node000002_Node000012"><a xlink:title=" ">
<path fill="none" stroke="#63b8ff" d="M531.04,-123.7C516.39,-121.75 500.83,-119.68 486.36,-117.76"/>
<polygon fill="#63b8ff" stroke="#63b8ff" points="530.17,-127.11 540.54,-124.96 531.09,-120.17 530.17,-127.11"/>
</a>
</g>
</g>
<!-- Node14 -->
<g id="Node000014" class="node">
<title>Node14</title>
<g id="a_Node000014"><a xlink:href="namespaceLGE_1_1Validation.html#ae388b93a917b4462203ff6011eb925db" target="_top" xlink:title=" ">
<polygon fill="white" stroke="#666666" points="489,-270 365,-270 365,-238 489,-238 489,-270"/>
<text xml:space="preserve" text-anchor="start" x="373" y="-256.5" font-family="Helvetica,sans-Serif" font-size="10.00">LGE::Validation::Validate</text>
<text xml:space="preserve" text-anchor="middle" x="427" y="-244.5" font-family="Helvetica,sans-Serif" font-size="10.00">Asset</text>
</a>
</g>
</g>
<!-- Node2&#45;&gt;Node14 -->
<g id="edge13_Node000002_Node000014" class="edge">
<title>Node2&#45;&gt;Node14</title>
<g id="a_edge13_Node000002_Node000014"><a xlink:title=" ">
<path fill="none" stroke="#63b8ff" d="M580.61,-151.73C565.34,-173.61 537.95,-208.52 506.25,-229 500.98,-232.41 495.21,-235.38 489.27,-237.97"/>
<polygon fill="#63b8ff" stroke="#63b8ff" points="583.35,-153.91 586.07,-143.67 577.56,-149.99 583.35,-153.91"/>
</a>
</g>
</g>
<!-- Node19 -->
<g id="Node000019" class="node">
<title>Node19</title>
<g id="a_Node000019"><a xlink:href="namespaceLGE_1_1Validation.html#a3a3151866b20f58b56467e0f10604685" target="_top" xlink:title=" ">
<polygon fill="white" stroke="#666666" points="489,-82 365,-82 365,-50 489,-50 489,-82"/>
<text xml:space="preserve" text-anchor="start" x="373" y="-68.5" font-family="Helvetica,sans-Serif" font-size="10.00">LGE::Validation::Validate</text>
<text xml:space="preserve" text-anchor="middle" x="427" y="-56.5" font-family="Helvetica,sans-Serif" font-size="10.00">Metadata</text>
</a>
</g>
</g>
<!-- Node2&#45;&gt;Node19 -->
<g id="edge19_Node000002_Node000019" class="edge">
<title>Node2&#45;&gt;Node19</title>
<g id="a_edge19_Node000002_Node000019"><a xlink:title=" ">
<path fill="none" stroke="#63b8ff" d="M563.18,-116.56C546.6,-108.42 525.55,-98.58 506.25,-91 498.68,-88.03 490.61,-85.14 482.62,-82.45"/>
<polygon fill="#63b8ff" stroke="#63b8ff" points="561.51,-119.64 572.02,-120.96 564.62,-113.37 561.51,-119.64"/>
</a>
</g>
</g>
<!-- Node4 -->
<g id="Node000004" class="node">
<title>Node4</title>
<g id="a_Node000004"><a xlink:href="namespaceLGE_1_1Thumbs.html#aff11822502a43d83cc911490abbf316b" target="_top" xlink:title=" ">
<polygon fill="white" stroke="#666666" points="311.75,-390 157.75,-390 157.75,-358 311.75,-358 311.75,-390"/>
<text xml:space="preserve" text-anchor="start" x="165.75" y="-376.5" font-family="Helvetica,sans-Serif" font-size="10.00">LGE::Thumbs::ProcessPending</text>
<text xml:space="preserve" text-anchor="middle" x="234.75" y="-364.5" font-family="Helvetica,sans-Serif" font-size="10.00">Builds</text>
</a>
</g>
</g>
<!-- Node3&#45;&gt;Node4 -->
<g id="edge3_Node000003_Node000004" class="edge">
<title>Node3&#45;&gt;Node4</title>
<g id="a_edge3_Node000003_Node000004"><a xlink:title=" ">
<path fill="none" stroke="#63b8ff" d="M363.21,-366.63C346.86,-367.58 329.07,-368.6 312.11,-369.58"/>
<polygon fill="#63b8ff" stroke="#63b8ff" points="362.97,-370.15 372.75,-366.08 362.57,-363.16 362.97,-370.15"/>
</a>
</g>
</g>
<!-- Node5 -->
<g id="Node000005" class="node">
<title>Node5</title>
<g id="a_Node000005"><a xlink:href="classExampleApp.html#a69ab083ae73184bfc9bafca1c9310771" target="_top" xlink:title=" ">
<polygon fill="white" stroke="#666666" points="121.75,-384 0,-384 0,-364 121.75,-364 121.75,-384"/>
<text xml:space="preserve" text-anchor="middle" x="60.88" y="-370.5" font-family="Helvetica,sans-Serif" font-size="10.00">ExampleApp::OnUpdate</text>
</a>
</g>
</g>
<!-- Node4&#45;&gt;Node5 -->
<g id="edge4_Node000004_Node000005" class="edge">
<title>Node4&#45;&gt;Node5</title>
<g id="a_edge4_Node000004_Node000005"><a xlink:title=" ">
<path fill="none" stroke="#63b8ff" d="M145.94,-374C137.86,-374 129.79,-374 122.04,-374"/>
<polygon fill="#63b8ff" stroke="#63b8ff" points="145.85,-377.5 155.85,-374 145.85,-370.5 145.85,-377.5"/>
</a>
</g>
</g>
<!-- Node7 -->
<g id="Node000007" class="node">
<title>Node7</title>
<g id="a_Node000007"><a xlink:href="namespaceLGE_1_1Validation.html#a5ed2957323e8381437806ac0d0fd02cf" target="_top" xlink:title=" ">
<polygon fill="white" stroke="#666666" points="308,-340 161.5,-340 161.5,-320 308,-320 308,-340"/>
<text xml:space="preserve" text-anchor="middle" x="234.75" y="-326.5" font-family="Helvetica,sans-Serif" font-size="10.00">LGE::Validation::CheckHealth</text>
</a>
</g>
</g>
<!-- Node6&#45;&gt;Node7 -->
<g id="edge6_Node000006_Node000007" class="edge">
<title>Node6&#45;&gt;Node7</title>
<g id="a_edge6_Node000006_Node000007"><a xlink:title=" ">
<path fill="none" stroke="#63b8ff" d="M338.6,-321.35C328.44,-322.2 318.16,-323.07 308.24,-323.9"/>
<polygon fill="#63b8ff" stroke="#63b8ff" points="338.81,-324.85 348.48,-320.52 338.22,-317.87 338.81,-324.85"/>
</a>
</g>
</g>
<!-- Node10 -->
<g id="Node000010" class="node">
<title>Node10</title>
<g id="a_Node000010"><a xlink:href="namespaceLGE_1_1ImportExport.html#a9f66230255c444c6b3c439ce3c1459f6" target="_top" xlink:title=" ">
<polygon fill="white" stroke="#666666" points="286.62,-138 182.88,-138 182.88,-106 286.62,-106 286.62,-138"/>
<text xml:space="preserve" text-anchor="start" x="190.88" y="-124.5" font-family="Helvetica,sans-Serif" font-size="10.00">LGE::ImportExport::</text>
<text xml:space="preserve" text-anchor="middle" x="234.75" y="-112.5" font-family="Helvetica,sans-Serif" font-size="10.00">ExportAssets</text>
</a>
</g>
</g>
<!-- Node9&#45;&gt;Node10 -->
<g id="edge9_Node000009_Node000010" class="edge">
<title>Node9&#45;&gt;Node10</title>
<g id="a_edge9_Node000009_Node000010"><a xlink:title=" ">
<path fill="none" stroke="#63b8ff" d="M363.64,-143.51C338.84,-139.34 310.66,-134.6 287.08,-130.63"/>
<polygon fill="#63b8ff" stroke="#63b8ff" points="362.83,-146.92 373.27,-145.13 363.99,-140.02 362.83,-146.92"/>
</a>
</g>
</g>
<!-- Node13 -->
<g id="Node000013" class="node">
<title>Node13</title>
<g id="a_Node000013"><a xlink:href="namespaceLGE_1_1ImportExport.html#aa73ba2a6e02f5350668e8a28ecea64c2" target="_top" xlink:title=" ">
<polygon fill="white" stroke="#666666" points="286.62,-88 182.88,-88 182.88,-56 286.62,-56 286.62,-88"/>
<text xml:space="preserve" text-anchor="start" x="190.88" y="-74.5" font-family="Helvetica,sans-Serif" font-size="10.00">LGE::ImportExport::</text>
<text xml:space="preserve" text-anchor="middle" x="234.75" y="-62.5" font-family="Helvetica,sans-Serif" font-size="10.00">ReimportAsset</text>
</a>
</g>
</g>
<!-- Node12&#45;&gt;Node13 -->
<g id="edge12_Node000012_Node000013" class="edge">
<title>Node12&#45;&gt;Node13</title>
<g id="a_edge12_Node000012_Node000013"><a xlink:title=" ">
<path fill="none" stroke="#63b8ff" d="M362.5,-97.32C337.98,-92.42 310.3,-86.89 287.08,-82.25"/>
<polygon fill="#63b8ff" stroke="#63b8ff" points="361.53,-100.69 372.03,-99.22 362.9,-93.83 361.53,-100.69"/>
</a>
</g>
</g>
<!-- Node14&#45;&gt;Node7 -->
<g id="edge14_Node000014_Node000007" class="edge">
<title>Node14&#45;&gt;Node7</title>
<g id="a_edge14_Node000014_Node000007"><a xlink:title=" ">
<path fill="none" stroke="#63b8ff" d="M385.14,-275.56C358.54,-289.37 326.18,-305.67 311.75,-311 302.95,-314.25 293.37,-317.13 284.07,-319.6"/>
<polygon fill="#63b8ff" stroke="#63b8ff" points="386.42,-278.84 393.67,-271.11 383.18,-272.63 386.42,-278.84"/>
</a>
</g>
</g>
<!-- Node15 -->
<g id="Node000015" class="node">
<title>Node15</title>
<g id="a_Node000015"><a xlink:href="namespaceLGE_1_1Bundles.html#aa9d4c4452f76b1187a963bea3168be71" target="_top" xlink:title=" ">
<polygon fill="white" stroke="#666666" points="305.75,-302 163.75,-302 163.75,-282 305.75,-282 305.75,-302"/>
<text xml:space="preserve" text-anchor="middle" x="234.75" y="-288.5" font-family="Helvetica,sans-Serif" font-size="10.00">LGE::Bundles::CreateBundle</text>
</a>
</g>
</g>
<!-- Node14&#45;&gt;Node15 -->
<g id="edge15_Node000014_Node000015" class="edge">
<title>Node14&#45;&gt;Node15</title>
<g id="a_edge15_Node000014_Node000015"><a xlink:title=" ">
<path fill="none" stroke="#63b8ff" d="M353.57,-268.47C331.84,-272.81 308.43,-277.48 288.25,-281.51"/>
<polygon fill="#63b8ff" stroke="#63b8ff" points="354.15,-271.92 363.27,-266.53 352.78,-265.06 354.15,-271.92"/>
</a>
</g>
</g>
<!-- Node16 -->
<g id="Node000016" class="node">
<title>Node16</title>
<g id="a_Node000016"><a xlink:href="namespaceLGE_1_1Validation.html#a467a0168bbefb71a643b4764f249c376" target="_top" xlink:title=" ">
<polygon fill="white" stroke="#666666" points="306.5,-264 163,-264 163,-244 306.5,-244 306.5,-264"/>
<text xml:space="preserve" text-anchor="middle" x="234.75" y="-250.5" font-family="Helvetica,sans-Serif" font-size="10.00">LGE::Validation::RepairAsset</text>
</a>
</g>
</g>
<!-- Node14&#45;&gt;Node16 -->
<g id="edge16_Node000014_Node000016" class="edge">
<title>Node14&#45;&gt;Node16</title>
<g id="a_edge16_Node000014_Node000016"><a xlink:title=" ">
<path fill="none" stroke="#63b8ff" d="M353.29,-254C338.05,-254 322,-254 306.82,-254"/>
<polygon fill="#63b8ff" stroke="#63b8ff" points="353.24,-257.5 363.24,-254 353.24,-250.5 353.24,-257.5"/>
</a>
</g>
</g>
<!-- Node17 -->
<g id="Node000017" class="node">
<title>Node17</title>
<g id="a_Node000017"><a xlink:href="namespaceLGE_1_1Validation.html#ab5e87b018ce35925ea7bc7cd1f6b6a87" target="_top" xlink:title=" ">
<polygon fill="white" stroke="#666666" points="302.38,-226 167.12,-226 167.12,-206 302.38,-206 302.38,-226"/>
<text xml:space="preserve" text-anchor="middle" x="234.75" y="-212.5" font-family="Helvetica,sans-Serif" font-size="10.00">LGE::Validation::ValidateAll</text>
</a>
</g>
</g>
<!-- Node14&#45;&gt;Node17 -->
<g id="edge17_Node000014_Node000017" class="edge">
<title>Node14&#45;&gt;Node17</title>
<g id="a_edge17_Node000014_Node000017"><a xlink:title=" ">
<path fill="none" stroke="#63b8ff" d="M353.57,-239.53C331.84,-235.19 308.43,-230.52 288.25,-226.49"/>
<polygon fill="#63b8ff" stroke="#63b8ff" points="352.78,-242.94 363.27,-241.47 354.15,-236.08 352.78,-242.94"/>
</a>
</g>
</g>
<!-- Node18 -->
<g id="Node000018" class="node">
<title>Node18</title>
<g id="a_Node000018"><a xlink:href="namespaceLGE_1_1Validation.html#a79589cf3c193492d81b8c87268350ce5" target="_top" xlink:title=" ">
<polygon fill="white" stroke="#666666" points="296.75,-188 172.75,-188 172.75,-156 296.75,-156 296.75,-188"/>
<text xml:space="preserve" text-anchor="start" x="180.75" y="-174.5" font-family="Helvetica,sans-Serif" font-size="10.00">LGE::Validation::Validate</text>
<text xml:space="preserve" text-anchor="middle" x="234.75" y="-162.5" font-family="Helvetica,sans-Serif" font-size="10.00">Assets</text>
</a>
</g>
</g>
<!-- Node14&#45;&gt;Node18 -->
<g id="edge18_Node000014_Node000018" class="edge">
<title>Node14&#45;&gt;Node18</title>
<g id="a_edge18_Node000014_Node000018"><a xlink:title=" ">
<path fill="none" stroke="#63b8ff" d="M355.03,-232.84C352.54,-231.62 350.1,-230.34 347.75,-229 329.15,-218.4 330.3,-207.68 311.75,-197 306.21,-193.81 300.21,-190.96 294.09,-188.43"/>
<polygon fill="#63b8ff" stroke="#63b8ff" points="353.58,-236.02 364.14,-236.9 356.43,-229.63 353.58,-236.02"/>
</a>
</g>
</g>
<!-- Node20&#45;&gt;Node2 -->
<g id="edge22_Node000020_Node000002" class="edge">
<title>Node20&#45;&gt;Node2</title>
<g id="a_edge22_Node000020_Node000002"><a xlink:title=" ">
<path fill="none" stroke="#63b8ff" d="M710.47,-102.26C686.51,-108.46 658.38,-115.74 635.95,-121.54"/>
<polygon fill="#63b8ff" stroke="#63b8ff" points="711.24,-105.68 720.04,-99.79 709.48,-98.9 711.24,-105.68"/>
</a>
</g>
</g>
<!-- Node20&#45;&gt;Node11 -->
<g id="edge23_Node000020_Node000011" class="edge">
<title>Node20&#45;&gt;Node11</title>
<g id="a_edge23_Node000020_Node000011"><a xlink:title=" ">
<path fill="none" stroke="#63b8ff" d="M670.97,-78.44C631.12,-72.8 584,-64.76 542.25,-54 525.78,-49.75 522.35,-46.48 506.25,-41 497.88,-38.15 488.97,-35.22 480.28,-32.41"/>
<polygon fill="#63b8ff" stroke="#63b8ff" points="670.39,-81.89 680.78,-79.79 671.35,-74.96 670.39,-81.89"/>
</a>
</g>
</g>
</g>
</svg>
