<?xml version="1.0" encoding="UTF-8" standalone="no"?>
<!DOCTYPE svg PUBLIC "-//W3C//DTD SVG 1.1//EN"
 "http://www.w3.org/Graphics/SVG/1.1/DTD/svg11.dtd">
<!-- Generated by graphviz version 14.0.2 (20251019.1705)
 -->
<!-- Title: LGE::LxFS::InitializeProject Pages: 1 -->
<svg width="578pt" height="858pt"
 viewBox="0.00 0.00 578.00 858.00" xmlns="http://www.w3.org/2000/svg" xmlns:xlink="http://www.w3.org/1999/xlink">
<g id="graph0" class="graph" transform="scale(1 1) rotate(0) translate(4 854)">
<title>LGE::LxFS::InitializeProject</title>
<!-- Node1 -->
<g id="Node000001" class="node">
<title>Node1</title>
<g id="a_Node000001"><a xlink:title=" ">
<polygon fill="#999999" stroke="#666666" points="569.5,-381 432,-381 432,-361 569.5,-361 569.5,-381"/>
<text xml:space="preserve" text-anchor="middle" x="500.75" y="-367.5" font-family="Helvetica,sans-Serif" font-size="10.00">LGE::LxFS::InitializeProject</text>
</a>
</g>
</g>
<!-- Node2 -->
<g id="Node000002" class="node">
<title>Node2</title>
<g id="a_Node000002"><a xlink:href="BenchmarkFS_8cpp.html#ab029f67ffb106edc6d219aadc7aee238" target="_top" xlink:title=" ">
<polygon fill="white" stroke="#666666" points="374.62,-850 267.12,-850 267.12,-818 374.62,-818 374.62,-850"/>
<text xml:space="preserve" text-anchor="start" x="275.12" y="-836.5" font-family="Helvetica,sans-Serif" font-size="10.00">Benchmark_Registry</text>
<text xml:space="preserve" text-anchor="middle" x="320.88" y="-824.5" font-family="Helvetica,sans-Serif" font-size="10.00">_Scan_Large</text>
</a>
</g>
</g>
<!-- Node1&#45;&gt;Node2 -->
<g id="edge1_Node000001_Node000002" class="edge">
<title>Node1&#45;&gt;Node2</title>
<g id="a_edge1_Node000001_Node000002"><a xlink:title=" ">
<path fill="none" stroke="#63b8ff" d="M497.41,-392.55C488.38,-471.83 453.47,-745.94 396,-809 390.24,-815.32 382.82,-820.05 374.91,-823.58"/>
<polygon fill="#63b8ff" stroke="#63b8ff" points="500.88,-393.02 498.5,-382.69 493.92,-392.25 500.88,-393.02"/>
</a>
</g>
</g>
<!-- Node3 -->
<g id="Node000003" class="node">
<title>Node3</title>
<g id="a_Node000003"><a xlink:href="BenchmarkFS_8cpp.html#ab9a728100bf27df8671c37d3a29bbea1" target="_top" xlink:title=" ">
<polygon fill="white" stroke="#666666" points="374.62,-800 267.12,-800 267.12,-768 374.62,-768 374.62,-800"/>
<text xml:space="preserve" text-anchor="start" x="275.12" y="-786.5" font-family="Helvetica,sans-Serif" font-size="10.00">Benchmark_Registry</text>
<text xml:space="preserve" text-anchor="middle" x="320.88" y="-774.5" font-family="Helvetica,sans-Serif" font-size="10.00">_Scan_Medium</text>
</a>
</g>
</g>
<!-- Node1&#45;&gt;Node3 -->
<g id="edge2_Node000001_Node000003" class="edge">
<title>Node1&#45;&gt;Node3</title>
<g id="a_edge2_Node000001_Node000003"><a xlink:title=" ">
<path fill="none" stroke="#63b8ff" d="M500.58,-392.43C501.89,-456.94 496.85,-651.48 396,-759 390.15,-765.24 382.68,-769.92 374.76,-773.44"/>
<polygon fill="#63b8ff" stroke="#63b8ff" points="504.09,-392.73 500.31,-382.84 497.1,-392.94 504.09,-392.73"/>
</a>
</g>
</g>
<!-- Node6 -->
<g id="Node000006" class="node">
<title>Node6</title>
<g id="a_Node000006"><a xlink:href="BenchmarkFS_8cpp.html#aa44cb85b0759f1cfddf700acff100f97" target="_top" xlink:title=" ">
<polygon fill="white" stroke="#666666" points="374.62,-750 267.12,-750 267.12,-718 374.62,-718 374.62,-750"/>
<text xml:space="preserve" text-anchor="start" x="275.12" y="-736.5" font-family="Helvetica,sans-Serif" font-size="10.00">Benchmark_Registry</text>
<text xml:space="preserve" text-anchor="middle" x="320.88" y="-724.5" font-family="Helvetica,sans-Serif" font-size="10.00">_Scan_Small</text>
</a>
</g>
</g>
<!-- Node1&#45;&gt;Node6 -->
<g id="edge5_Node000001_Node000006" class="edge">
<title>Node1&#45;&gt;Node6</title>
<g id="a_edge5_Node000001_Node000006"><a xlink:title=" ">
<path fill="none" stroke="#63b8ff" d="M499.57,-392.35C497.91,-451.2 485.13,-617.39 396,-709 390.13,-715.04 382.75,-719.61 374.95,-723.09"/>
<polygon fill="#63b8ff" stroke="#63b8ff" points="503.06,-392.78 499.75,-382.72 496.06,-392.65 503.06,-392.78"/>
</a>
</g>
</g>
<!-- Node7 -->
<g id="Node000007" class="node">
<title>Node7</title>
<g id="a_Node000007"><a xlink:href="BenchmarkFS_8cpp.html#a3442e7b685b914cc8075873db73300d8" target="_top" xlink:title=" ">
<polygon fill="white" stroke="#666666" points="374.62,-700 267.12,-700 267.12,-668 374.62,-668 374.62,-700"/>
<text xml:space="preserve" text-anchor="start" x="275.12" y="-686.5" font-family="Helvetica,sans-Serif" font-size="10.00">Benchmark_Registry</text>
<text xml:space="preserve" text-anchor="middle" x="320.88" y="-674.5" font-family="Helvetica,sans-Serif" font-size="10.00">_Search_Fuzzy</text>
</a>
</g>
</g>
<!-- Node1&#45;&gt;Node7 -->
<g id="edge7_Node000001_Node000007" class="edge">
<title>Node1&#45;&gt;Node7</title>
<g id="a_edge7_Node000001_Node000007"><a xlink:title=" ">
<path fill="none" stroke="#63b8ff" d="M498.21,-392.66C493.29,-445.69 473.33,-583.24 396,-659 390.08,-664.8 382.78,-669.25 375.08,-672.67"/>
<polygon fill="#63b8ff" stroke="#63b8ff" points="501.69,-393.11 499.02,-382.86 494.71,-392.53 501.69,-393.11"/>
</a>
</g>
</g>
<!-- Node8 -->
<g id="Node000008" class="node">
<title>Node8</title>
<g id="a_Node000008"><a xlink:href="BenchmarkFS_8cpp.html#a6e215b65128db1abca9661a02a708fe7" target="_top" xlink:title=" ">
<polygon fill="white" stroke="#666666" points="374.62,-650 267.12,-650 267.12,-618 374.62,-618 374.62,-650"/>
<text xml:space="preserve" text-anchor="start" x="275.12" y="-636.5" font-family="Helvetica,sans-Serif" font-size="10.00">Benchmark_Registry</text>
<text xml:space="preserve" text-anchor="middle" x="320.88" y="-624.5" font-family="Helvetica,sans-Serif" font-size="10.00">_Search_GUID</text>
</a>
</g>
</g>
<!-- Node1&#45;&gt;Node8 -->
<g id="edge9_Node000001_Node000008" class="edge">
<title>Node1&#45;&gt;Node8</title>
<g id="a_edge9_Node000001_Node000008"><a xlink:title=" ">
<path fill="none" stroke="#63b8ff" d="M496.36,-392.58C487.95,-438.9 461.87,-548.55 396,-609 389.9,-614.6 382.49,-618.95 374.76,-622.33"/>
<polygon fill="#63b8ff" stroke="#63b8ff" points="499.8,-393.22 498.02,-382.78 492.9,-392.05 499.8,-393.22"/>
</a>
</g>
</g>
<!-- Node9 -->
<g id="Node000009" class="node">
<title>Node9</title>
<g id="a_Node000009"><a xlink:href="BenchmarkFS_8cpp.html#a1d7ed07006c36462715eb9e933bb0bac" target="_top" xlink:title=" ">
<polygon fill="white" stroke="#666666" points="374.62,-600 267.12,-600 267.12,-568 374.62,-568 374.62,-600"/>
<text xml:space="preserve" text-anchor="start" x="275.12" y="-586.5" font-family="Helvetica,sans-Serif" font-size="10.00">Benchmark_Registry</text>
<text xml:space="preserve" text-anchor="middle" x="320.88" y="-574.5" font-family="Helvetica,sans-Serif" font-size="10.00">_Search_Path</text>
</a>
</g>
</g>
<!-- Node1&#45;&gt;Node9 -->
<g id="edge11_Node000001_Node000009" class="edge">
<title>Node1&#45;&gt;Node9</title>
<g id="a_edge11_Node000001_Node000009"><a xlink:title=" ">
<path fill="none" stroke="#63b8ff" d="M493.71,-392.2C481.6,-430.91 450.73,-513.28 396,-559 389.85,-564.14 382.6,-568.23 375.08,-571.5"/>
<polygon fill="#63b8ff" stroke="#63b8ff" points="497.03,-393.3 496.55,-382.71 490.33,-391.29 497.03,-393.3"/>
</a>
</g>
</g>
<!-- Node10 -->
<g id="Node000010" class="node">
<title>Node10</title>
<g id="a_Node000010"><a xlink:href="classExampleApp.html#a535c41a1b822be3f2c6fd96e3f80f4b7" target="_top" xlink:title=" ">
<polygon fill="white" stroke="#666666" points="396,-550 245.75,-550 245.75,-518 396,-518 396,-550"/>
<text xml:space="preserve" text-anchor="start" x="253.75" y="-536.5" font-family="Helvetica,sans-Serif" font-size="10.00">ExampleApp::CompleteProject</text>
<text xml:space="preserve" text-anchor="middle" x="320.88" y="-524.5" font-family="Helvetica,sans-Serif" font-size="10.00">Loading</text>
</a>
</g>
</g>
<!-- Node1&#45;&gt;Node10 -->
<g id="edge13_Node000001_Node000010" class="edge">
<title>Node1&#45;&gt;Node10</title>
<g id="a_edge13_Node000001_Node000010"><a xlink:title=" ">
<path fill="none" stroke="#63b8ff" d="M489.55,-391.47C473.59,-421.46 439.95,-477.24 396,-509 391.49,-512.26 386.52,-515.12 381.35,-517.62"/>
<polygon fill="#63b8ff" stroke="#63b8ff" points="492.61,-393.17 494.09,-382.68 486.39,-389.96 492.61,-393.17"/>
</a>
</g>
</g>
<!-- Node12 -->
<g id="Node000012" class="node">
<title>Node12</title>
<g id="a_Node000012"><a xlink:href="classLGE_1_1ProjectManager.html#afb94d990b89ca20eb8a925d09bbf2027" target="_top" xlink:title=" ">
<polygon fill="white" stroke="#666666" points="375.75,-500 266,-500 266,-468 375.75,-468 375.75,-500"/>
<text xml:space="preserve" text-anchor="start" x="274" y="-486.5" font-family="Helvetica,sans-Serif" font-size="10.00">LGE::ProjectManager</text>
<text xml:space="preserve" text-anchor="middle" x="320.88" y="-474.5" font-family="Helvetica,sans-Serif" font-size="10.00">::CreateProject</text>
</a>
</g>
</g>
<!-- Node1&#45;&gt;Node12 -->
<g id="edge15_Node000001_Node000012" class="edge">
<title>Node1&#45;&gt;Node12</title>
<g id="a_edge15_Node000001_Node000012"><a xlink:title=" ">
<path fill="none" stroke="#63b8ff" d="M482.21,-389.58C462.78,-409.23 429.7,-439.95 396,-459 389.73,-462.54 382.88,-465.69 375.96,-468.45"/>
<polygon fill="#63b8ff" stroke="#63b8ff" points="484.63,-392.11 489.08,-382.5 479.61,-387.24 484.63,-392.11"/>
</a>
</g>
</g>
<!-- Node13 -->
<g id="Node000013" class="node">
<title>Node13</title>
<g id="a_Node000013"><a xlink:href="classLGE_1_1ProjectManager.html#ab0dd7eacf589a308b45f280d146cd415" target="_top" xlink:title=" ">
<polygon fill="white" stroke="#666666" points="375.75,-450 266,-450 266,-418 375.75,-418 375.75,-450"/>
<text xml:space="preserve" text-anchor="start" x="274" y="-436.5" font-family="Helvetica,sans-Serif" font-size="10.00">LGE::ProjectManager</text>
<text xml:space="preserve" text-anchor="middle" x="320.88" y="-424.5" font-family="Helvetica,sans-Serif" font-size="10.00">::OpenProject</text>
</a>
</g>
</g>
<!-- Node1&#45;&gt;Node13 -->
<g id="edge16_Node000001_Node000013" class="edge">
<title>Node1&#45;&gt;Node13</title>
<g id="a_edge16_Node000001_Node000013"><a xlink:title=" ">
<path fill="none" stroke="#63b8ff" d="M461.45,-385.3C441.91,-392.52 417.73,-401.36 396,-409 388.06,-411.79 379.61,-414.7 371.38,-417.5"/>
<polygon fill="#63b8ff" stroke="#63b8ff" points="462.5,-388.64 470.66,-381.88 460.07,-382.08 462.5,-388.64"/>
</a>
</g>
</g>
<!-- Node14 -->
<g id="Node000014" class="node">
<title>Node14</title>
<g id="a_Node000014"><a xlink:href="TestDependencies_8cpp.html#a27d08683b47752be5bf0771792fe84e1" target="_top" xlink:title=" ">
<polygon fill="white" stroke="#666666" points="341.62,-400 300.12,-400 300.12,-380 341.62,-380 341.62,-400"/>
<text xml:space="preserve" text-anchor="middle" x="320.88" y="-386.5" font-family="Helvetica,sans-Serif" font-size="10.00">TEST</text>
</a>
</g>
</g>
<!-- Node1&#45;&gt;Node14 -->
<g id="edge17_Node000001_Node000014" class="edge">
<title>Node1&#45;&gt;Node14</title>
<g id="a_edge17_Node000001_Node000014"><a xlink:title=" ">
<path fill="none" stroke="#63b8ff" d="M420.3,-379.49C391.32,-382.58 360.98,-385.82 341.78,-387.87"/>
<polygon fill="#63b8ff" stroke="#63b8ff" points="420.67,-382.97 430.24,-378.43 419.92,-376.01 420.67,-382.97"/>
</a>
</g>
</g>
<!-- Node15 -->
<g id="Node000015" class="node">
<title>Node15</title>
<g id="a_Node000015"><a xlink:href="TestDependencies_8cpp.html#a73f01e5c160074ed2ad795bd2b1ac7a2" target="_top" xlink:title=" ">
<polygon fill="white" stroke="#666666" points="341.62,-362 300.12,-362 300.12,-342 341.62,-342 341.62,-362"/>
<text xml:space="preserve" text-anchor="middle" x="320.88" y="-348.5" font-family="Helvetica,sans-Serif" font-size="10.00">TEST</text>
</a>
</g>
</g>
<!-- Node1&#45;&gt;Node15 -->
<g id="edge18_Node000001_Node000015" class="edge">
<title>Node1&#45;&gt;Node15</title>
<g id="a_edge18_Node000001_Node000015"><a xlink:title=" ">
<path fill="none" stroke="#63b8ff" d="M420.3,-362.51C391.32,-359.42 360.98,-356.18 341.78,-354.13"/>
<polygon fill="#63b8ff" stroke="#63b8ff" points="419.92,-365.99 430.24,-363.57 420.67,-359.03 419.92,-365.99"/>
</a>
</g>
</g>
<!-- Node16 -->
<g id="Node000016" class="node">
<title>Node16</title>
<g id="a_Node000016"><a xlink:href="TestDependencies_8cpp.html#ac7d0213aa008a4537d2b739ca96728af" target="_top" xlink:title=" ">
<polygon fill="white" stroke="#666666" points="341.62,-324 300.12,-324 300.12,-304 341.62,-304 341.62,-324"/>
<text xml:space="preserve" text-anchor="middle" x="320.88" y="-310.5" font-family="Helvetica,sans-Serif" font-size="10.00">TEST</text>
</a>
</g>
</g>
<!-- Node1&#45;&gt;Node16 -->
<g id="edge19_Node000001_Node000016" class="edge">
<title>Node1&#45;&gt;Node16</title>
<g id="a_edge19_Node000001_Node000016"><a xlink:title=" ">
<path fill="none" stroke="#63b8ff" d="M462.9,-356.48C443.21,-348.98 418.46,-339.97 396,-333 377.86,-327.37 356.85,-322.1 341.85,-318.55"/>
<polygon fill="#63b8ff" stroke="#63b8ff" points="461.56,-359.72 472.15,-360.04 464.07,-353.18 461.56,-359.72"/>
</a>
</g>
</g>
<!-- Node17 -->
<g id="Node000017" class="node">
<title>Node17</title>
<g id="a_Node000017"><a xlink:href="TestDependencies_8cpp.html#a3eed8aa25f31b84b211af1815819d59e" target="_top" xlink:title=" ">
<polygon fill="white" stroke="#666666" points="341.62,-286 300.12,-286 300.12,-266 341.62,-266 341.62,-286"/>
<text xml:space="preserve" text-anchor="middle" x="320.88" y="-272.5" font-family="Helvetica,sans-Serif" font-size="10.00">TEST</text>
</a>
</g>
</g>
<!-- Node1&#45;&gt;Node17 -->
<g id="edge20_Node000001_Node000017" class="edge">
<title>Node1&#45;&gt;Node17</title>
<g id="a_edge20_Node000001_Node000017"><a xlink:title=" ">
<path fill="none" stroke="#63b8ff" d="M480.12,-353.02C460.28,-335.76 428.06,-310.16 396,-295 378.7,-286.82 357.41,-281.83 342.09,-279.03"/>
<polygon fill="#63b8ff" stroke="#63b8ff" points="477.63,-355.49 487.43,-359.51 482.27,-350.25 477.63,-355.49"/>
</a>
</g>
</g>
<!-- Node18 -->
<g id="Node000018" class="node">
<title>Node18</title>
<g id="a_Node000018"><a xlink:href="TestDependencies_8cpp.html#ad6e5e8e9ab7331c10f47c0adead790ec" target="_top" xlink:title=" ">
<polygon fill="white" stroke="#666666" points="341.62,-248 300.12,-248 300.12,-228 341.62,-228 341.62,-248"/>
<text xml:space="preserve" text-anchor="middle" x="320.88" y="-234.5" font-family="Helvetica,sans-Serif" font-size="10.00">TEST</text>
</a>
</g>
</g>
<!-- Node1&#45;&gt;Node18 -->
<g id="edge21_Node000001_Node000018" class="edge">
<title>Node1&#45;&gt;Node18</title>
<g id="a_edge21_Node000001_Node000018"><a xlink:title=" ">
<path fill="none" stroke="#63b8ff" d="M487.19,-351.19C469.84,-325.5 436.11,-281.13 396,-257 379.38,-247 357.61,-242.23 341.97,-239.97"/>
<polygon fill="#63b8ff" stroke="#63b8ff" points="484.15,-352.94 492.57,-359.38 490,-349.1 484.15,-352.94"/>
</a>
</g>
</g>
<!-- Node19 -->
<g id="Node000019" class="node">
<title>Node19</title>
<g id="a_Node000019"><a xlink:href="TestSearch_8cpp.html#aec262fa1aeb82f0a2ec9fca22e3d2374" target="_top" xlink:title=" ">
<polygon fill="white" stroke="#666666" points="341.62,-210 300.12,-210 300.12,-190 341.62,-190 341.62,-210"/>
<text xml:space="preserve" text-anchor="middle" x="320.88" y="-196.5" font-family="Helvetica,sans-Serif" font-size="10.00">TEST</text>
</a>
</g>
</g>
<!-- Node1&#45;&gt;Node19 -->
<g id="edge22_Node000001_Node000019" class="edge">
<title>Node1&#45;&gt;Node19</title>
<g id="a_edge22_Node000001_Node000019"><a xlink:title=" ">
<path fill="none" stroke="#63b8ff" d="M491.44,-350.33C477.09,-317.32 444.44,-252.96 396,-219 380.01,-207.79 357.94,-203.19 342.05,-201.3"/>
<polygon fill="#63b8ff" stroke="#63b8ff" points="488.07,-351.34 495.17,-359.2 494.52,-348.63 488.07,-351.34"/>
</a>
</g>
</g>
<!-- Node20 -->
<g id="Node000020" class="node">
<title>Node20</title>
<g id="a_Node000020"><a xlink:href="TestSearch_8cpp.html#a33500ac4fe5ec5aabbfb97635e04b1a5" target="_top" xlink:title=" ">
<polygon fill="white" stroke="#666666" points="341.62,-172 300.12,-172 300.12,-152 341.62,-152 341.62,-172"/>
<text xml:space="preserve" text-anchor="middle" x="320.88" y="-158.5" font-family="Helvetica,sans-Serif" font-size="10.00">TEST</text>
</a>
</g>
</g>
<!-- Node1&#45;&gt;Node20 -->
<g id="edge23_Node000001_Node000020" class="edge">
<title>Node1&#45;&gt;Node20</title>
<g id="a_edge23_Node000001_Node000020"><a xlink:title=" ">
<path fill="none" stroke="#63b8ff" d="M494.33,-350C483.03,-310.57 453.15,-225.44 396,-181 380.48,-168.93 358.13,-164.47 342.03,-162.85"/>
<polygon fill="#63b8ff" stroke="#63b8ff" points="490.89,-350.69 496.9,-359.42 497.64,-348.85 490.89,-350.69"/>
</a>
</g>
</g>
<!-- Node21 -->
<g id="Node000021" class="node">
<title>Node21</title>
<g id="a_Node000021"><a xlink:href="TestSearch_8cpp.html#ad770bade109d5488d8747315303c5509" target="_top" xlink:title=" ">
<polygon fill="white" stroke="#666666" points="341.62,-134 300.12,-134 300.12,-114 341.62,-114 341.62,-134"/>
<text xml:space="preserve" text-anchor="middle" x="320.88" y="-120.5" font-family="Helvetica,sans-Serif" font-size="10.00">TEST</text>
</a>
</g>
</g>
<!-- Node1&#45;&gt;Node21 -->
<g id="edge24_Node000001_Node000021" class="edge">
<title>Node1&#45;&gt;Node21</title>
<g id="a_edge24_Node000001_Node000021"><a xlink:title=" ">
<path fill="none" stroke="#63b8ff" d="M496.34,-349.66C487.95,-304.37 461.98,-198.28 396,-143 380.83,-130.29 358.21,-125.94 341.95,-124.52"/>
<polygon fill="#63b8ff" stroke="#63b8ff" points="492.88,-350.21 498.04,-359.47 499.78,-349.02 492.88,-350.21"/>
</a>
</g>
</g>
<!-- Node22 -->
<g id="Node000022" class="node">
<title>Node22</title>
<g id="a_Node000022"><a xlink:href="TestSearch_8cpp.html#a13cb3cdd7534423f0d92329cf16ceaf7" target="_top" xlink:title=" ">
<polygon fill="white" stroke="#666666" points="341.62,-96 300.12,-96 300.12,-76 341.62,-76 341.62,-96"/>
<text xml:space="preserve" text-anchor="middle" x="320.88" y="-82.5" font-family="Helvetica,sans-Serif" font-size="10.00">TEST</text>
</a>
</g>
</g>
<!-- Node1&#45;&gt;Node22 -->
<g id="edge25_Node000001_Node000022" class="edge">
<title>Node1&#45;&gt;Node22</title>
<g id="a_edge25_Node000001_Node000022"><a xlink:title=" ">
<path fill="none" stroke="#63b8ff" d="M497.85,-349.29C492.2,-298.53 470.92,-171.37 396,-105 381.08,-91.79 358.2,-87.53 341.8,-86.28"/>
<polygon fill="#63b8ff" stroke="#63b8ff" points="494.36,-349.61 498.84,-359.21 501.33,-348.91 494.36,-349.61"/>
</a>
</g>
</g>
<!-- Node23 -->
<g id="Node000023" class="node">
<title>Node23</title>
<g id="a_Node000023"><a xlink:href="TestSearch_8cpp.html#a726a0578ed58faaeb0201d967dbce4be" target="_top" xlink:title=" ">
<polygon fill="white" stroke="#666666" points="341.62,-58 300.12,-58 300.12,-38 341.62,-38 341.62,-58"/>
<text xml:space="preserve" text-anchor="middle" x="320.88" y="-44.5" font-family="Helvetica,sans-Serif" font-size="10.00">TEST</text>
</a>
</g>
</g>
<!-- Node1&#45;&gt;Node23 -->
<g id="edge26_Node000001_Node000023" class="edge">
<title>Node1&#45;&gt;Node23</title>
<g id="a_edge26_Node000001_Node000023"><a xlink:title=" ">
<path fill="none" stroke="#63b8ff" d="M499.07,-349.63C496.12,-294.25 480.32,-144.99 396,-67 381.37,-53.47 358.44,-49.27 341.95,-48.12"/>
<polygon fill="#63b8ff" stroke="#63b8ff" points="495.56,-349.43 499.49,-359.27 502.55,-349.13 495.56,-349.43"/>
</a>
</g>
</g>
<!-- Node24 -->
<g id="Node000024" class="node">
<title>Node24</title>
<g id="a_Node000024"><a xlink:href="TestSearch_8cpp.html#a7120a1bbfb46623c11b708a8ab750d82" target="_top" xlink:title=" ">
<polygon fill="white" stroke="#666666" points="341.62,-20 300.12,-20 300.12,0 341.62,0 341.62,-20"/>
<text xml:space="preserve" text-anchor="middle" x="320.88" y="-6.5" font-family="Helvetica,sans-Serif" font-size="10.00">TEST</text>
</a>
</g>
</g>
<!-- Node1&#45;&gt;Node24 -->
<g id="edge27_Node000001_Node000024" class="edge">
<title>Node1&#45;&gt;Node24</title>
<g id="a_edge27_Node000001_Node000024"><a xlink:title=" ">
<path fill="none" stroke="#63b8ff" d="M500.01,-349.04C499.47,-288.6 489.33,-118.34 396,-29 381.61,-15.22 358.63,-11.07 342.07,-9.99"/>
<polygon fill="#63b8ff" stroke="#63b8ff" points="496.51,-348.98 500,-358.99 503.51,-348.99 496.51,-348.98"/>
</a>
</g>
</g>
<!-- Node4 -->
<g id="Node000004" class="node">
<title>Node4</title>
<g id="a_Node000004"><a xlink:href="BenchmarkFS_8cpp.html#abd2bf074780e72b3c554bb5eb58ff96a" target="_top" xlink:title=" ">
<polygon fill="white" stroke="#666666" points="209.75,-694 73,-694 73,-674 209.75,-674 209.75,-694"/>
<text xml:space="preserve" text-anchor="middle" x="141.38" y="-680.5" font-family="Helvetica,sans-Serif" font-size="10.00">RunFilesystemBenchmarks</text>
</a>
</g>
</g>
<!-- Node3&#45;&gt;Node4 -->
<g id="edge3_Node000003_Node000004" class="edge">
<title>Node3&#45;&gt;Node4</title>
<g id="a_edge3_Node000003_Node000004"><a xlink:title=" ">
<path fill="none" stroke="#63b8ff" d="M256.4,-764.04C252.75,-762.45 249.17,-760.77 245.75,-759 209.69,-740.39 172.36,-710.06 154,-694.28"/>
<polygon fill="#63b8ff" stroke="#63b8ff" points="254.84,-767.19 265.42,-767.73 257.49,-760.71 254.84,-767.19"/>
</a>
</g>
</g>
<!-- Node5 -->
<g id="Node000005" class="node">
<title>Node5</title>
<g id="a_Node000005"><a xlink:href="BenchmarkRunner_8cpp.html#a0ddf1224851353fc92bfbff6f499fa97" target="_top" xlink:title=" ">
<polygon fill="white" stroke="#666666" points="37,-694 0,-694 0,-674 37,-674 37,-694"/>
<text xml:space="preserve" text-anchor="middle" x="18.5" y="-680.5" font-family="Helvetica,sans-Serif" font-size="10.00">main</text>
</a>
</g>
</g>
<!-- Node4&#45;&gt;Node5 -->
<g id="edge4_Node000004_Node000005" class="edge">
<title>Node4&#45;&gt;Node5</title>
<g id="a_edge4_Node000004_Node000005"><a xlink:title=" ">
<path fill="none" stroke="#63b8ff" d="M61.01,-684C52.14,-684 43.86,-684 37.08,-684"/>
<polygon fill="#63b8ff" stroke="#63b8ff" points="61,-687.5 71,-684 61,-680.5 61,-687.5"/>
</a>
</g>
</g>
<!-- Node6&#45;&gt;Node4 -->
<g id="edge6_Node000006_Node000004" class="edge">
<title>Node6&#45;&gt;Node4</title>
<g id="a_edge6_Node000006_Node000004"><a xlink:title=" ">
<path fill="none" stroke="#63b8ff" d="M256.28,-716.09C230.52,-708.83 201.68,-700.71 179.47,-694.45"/>
<polygon fill="#63b8ff" stroke="#63b8ff" points="255.07,-719.38 265.64,-718.72 256.97,-712.64 255.07,-719.38"/>
</a>
</g>
</g>
<!-- Node7&#45;&gt;Node4 -->
<g id="edge8_Node000007_Node000004" class="edge">
<title>Node7&#45;&gt;Node4</title>
<g id="a_edge8_Node000007_Node000004"><a xlink:title=" ">
<path fill="none" stroke="#63b8ff" d="M255.94,-684C241.05,-684 225.15,-684 210.1,-684"/>
<polygon fill="#63b8ff" stroke="#63b8ff" points="255.59,-687.5 265.59,-684 255.59,-680.5 255.59,-687.5"/>
</a>
</g>
</g>
<!-- Node8&#45;&gt;Node4 -->
<g id="edge10_Node000008_Node000004" class="edge">
<title>Node8&#45;&gt;Node4</title>
<g id="a_edge10_Node000008_Node000004"><a xlink:title=" ">
<path fill="none" stroke="#63b8ff" d="M256.28,-651.91C230.52,-659.17 201.68,-667.29 179.47,-673.55"/>
<polygon fill="#63b8ff" stroke="#63b8ff" points="256.97,-655.36 265.64,-649.28 255.07,-648.62 256.97,-655.36"/>
</a>
</g>
</g>
<!-- Node9&#45;&gt;Node4 -->
<g id="edge12_Node000009_Node000004" class="edge">
<title>Node9&#45;&gt;Node4</title>
<g id="a_edge12_Node000009_Node000004"><a xlink:title=" ">
<path fill="none" stroke="#63b8ff" d="M256.4,-603.96C252.75,-605.55 249.17,-607.23 245.75,-609 209.69,-627.61 172.36,-657.94 154,-673.72"/>
<polygon fill="#63b8ff" stroke="#63b8ff" points="257.49,-607.29 265.42,-600.27 254.84,-600.81 257.49,-607.29"/>
</a>
</g>
</g>
<!-- Node11 -->
<g id="Node000011" class="node">
<title>Node11</title>
<g id="a_Node000011"><a xlink:href="classExampleApp.html#a51a63c4107ac16f6c82cda225b2dccea" target="_top" xlink:title=" ">
<polygon fill="white" stroke="#666666" points="202.25,-544 80.5,-544 80.5,-524 202.25,-524 202.25,-544"/>
<text xml:space="preserve" text-anchor="middle" x="141.38" y="-530.5" font-family="Helvetica,sans-Serif" font-size="10.00">ExampleApp::OnRender</text>
</a>
</g>
</g>
<!-- Node10&#45;&gt;Node11 -->
<g id="edge14_Node000010_Node000011" class="edge">
<title>Node10&#45;&gt;Node11</title>
<g id="a_edge14_Node000010_Node000011"><a xlink:title=" ">
<path fill="none" stroke="#63b8ff" d="M233.95,-534C223.38,-534 212.76,-534 202.69,-534"/>
<polygon fill="#63b8ff" stroke="#63b8ff" points="233.86,-537.5 243.86,-534 233.86,-530.5 233.86,-537.5"/>
</a>
</g>
</g>
</g>
</svg>
