<?xml version="1.0" encoding="UTF-8" standalone="no"?>
<!DOCTYPE svg PUBLIC "-//W3C//DTD SVG 1.1//EN"
 "http://www.w3.org/Graphics/SVG/1.1/DTD/svg11.dtd">
<!-- Generated by graphviz version 14.0.2 (20251019.1705)
 -->
<!-- Title: LGE::Thumbs::Path Pages: 1 -->
<svg width="522pt" height="28pt"
 viewBox="0.00 0.00 522.00 28.00" xmlns="http://www.w3.org/2000/svg" xmlns:xlink="http://www.w3.org/1999/xlink">
<g id="graph0" class="graph" transform="scale(1 1) rotate(0) translate(4 24)">
<title>LGE::Thumbs::Path</title>
<!-- Node1 -->
<g id="Node000001" class="node">
<title>Node1</title>
<g id="a_Node000001"><a xlink:title=" ">
<polygon fill="#999999" stroke="#666666" points="103,-20 0,-20 0,0 103,0 103,-20"/>
<text xml:space="preserve" text-anchor="middle" x="51.5" y="-6.5" font-family="Helvetica,sans-Serif" font-size="10.00">LGE::Thumbs::Path</text>
</a>
</g>
</g>
<!-- Node2 -->
<g id="Node000002" class="node">
<title>Node2</title>
<g id="a_Node000002"><a xlink:href="namespaceLGE_1_1LxPath.html#a94ec3bdfd6948ddc25cda5d18154d4cf" target="_top" xlink:title=" ">
<polygon fill="white" stroke="#666666" points="235.25,-20 139,-20 139,0 235.25,0 235.25,-20"/>
<text xml:space="preserve" text-anchor="middle" x="187.12" y="-6.5" font-family="Helvetica,sans-Serif" font-size="10.00">LGE::LxPath::Join</text>
</a>
</g>
</g>
<!-- Node1&#45;&gt;Node2 -->
<g id="edge1_Node000001_Node000002" class="edge">
<title>Node1&#45;&gt;Node2</title>
<g id="a_edge1_Node000001_Node000002"><a xlink:title=" ">
<path fill="none" stroke="#63b8ff" d="M103.4,-10C111.32,-10 119.56,-10 127.63,-10"/>
<polygon fill="#63b8ff" stroke="#63b8ff" points="127.37,-13.5 137.37,-10 127.37,-6.5 127.37,-13.5"/>
</a>
</g>
</g>
<!-- Node3 -->
<g id="Node000003" class="node">
<title>Node3</title>
<g id="a_Node000003"><a xlink:href="namespaceLGE_1_1LxPath.html#a314a60ce690c90f4ee0b4e64c0199408" target="_top" xlink:title=" ">
<polygon fill="white" stroke="#666666" points="393.75,-20 271.25,-20 271.25,0 393.75,0 393.75,-20"/>
<text xml:space="preserve" text-anchor="middle" x="332.5" y="-6.5" font-family="Helvetica,sans-Serif" font-size="10.00">LGE::LxPath::Normalize</text>
</a>
</g>
</g>
<!-- Node2&#45;&gt;Node3 -->
<g id="edge2_Node000002_Node000003" class="edge">
<title>Node2&#45;&gt;Node3</title>
<g id="a_edge2_Node000002_Node000003"><a xlink:title=" ">
<path fill="none" stroke="#63b8ff" d="M235.47,-10C243.17,-10 251.31,-10 259.45,-10"/>
<polygon fill="#63b8ff" stroke="#63b8ff" points="259.4,-13.5 269.4,-10 259.4,-6.5 259.4,-13.5"/>
</a>
</g>
</g>
<!-- Node4 -->
<g id="Node000004" class="node">
<title>Node4</title>
<g id="a_Node000004"><a xlink:href="classLGE_1_1Log.html#a53f3f4b8797ffd18145739c9e66d690a" target="_top" xlink:title=" ">
<polygon fill="white" stroke="#666666" points="514,-20 429.75,-20 429.75,0 514,0 514,-20"/>
<text xml:space="preserve" text-anchor="middle" x="471.88" y="-6.5" font-family="Helvetica,sans-Serif" font-size="10.00">LGE::Log::Error</text>
</a>
</g>
</g>
<!-- Node3&#45;&gt;Node4 -->
<g id="edge3_Node000003_Node000004" class="edge">
<title>Node3&#45;&gt;Node4</title>
<g id="a_edge3_Node000003_Node000004"><a xlink:title=" ">
<path fill="none" stroke="#63b8ff" d="M394.15,-10C402.17,-10 410.34,-10 418.2,-10"/>
<polygon fill="#63b8ff" stroke="#63b8ff" points="417.95,-13.5 427.95,-10 417.95,-6.5 417.95,-13.5"/>
</a>
</g>
</g>
</g>
</svg>
