<?xml version="1.0" encoding="UTF-8" standalone="no"?>
<!DOCTYPE svg PUBLIC "-//W3C//DTD SVG 1.1//EN"
 "http://www.w3.org/Graphics/SVG/1.1/DTD/svg11.dtd">
<!-- Generated by graphviz version 14.0.2 (20251019.1705)
 -->
<!-- Title: LGE::Cache::Contains Pages: 1 -->
<svg width="1167pt" height="258pt"
 viewBox="0.00 0.00 1167.00 258.00" xmlns="http://www.w3.org/2000/svg" xmlns:xlink="http://www.w3.org/1999/xlink">
<g id="graph0" class="graph" transform="scale(1 1) rotate(0) translate(4 253.99)">
<title>LGE::Cache::Contains</title>
<!-- Node1 -->
<g id="Node000001" class="node">
<title>Node1</title>
<g id="a_Node000001"><a xlink:title=" ">
<polygon fill="#999999" stroke="#666666" points="115,-153 0,-153 0,-133 115,-133 115,-153"/>
<text xml:space="preserve" text-anchor="middle" x="57.5" y="-139.5" font-family="Helvetica,sans-Serif" font-size="10.00">LGE::Cache::Contains</text>
</a>
</g>
</g>
<!-- Node2 -->
<g id="Node000002" class="node">
<title>Node2</title>
<g id="a_Node000002"><a xlink:href="namespaceLGE_1_1LxFile.html#a11e62876b312a11b881b484bb3a5ee71" target="_top" xlink:title=" ">
<polygon fill="white" stroke="#666666" points="401.62,-172 300.12,-172 300.12,-152 401.62,-152 401.62,-172"/>
<text xml:space="preserve" text-anchor="middle" x="350.88" y="-158.5" font-family="Helvetica,sans-Serif" font-size="10.00">LGE::LxFile::Exists</text>
</a>
</g>
</g>
<!-- Node1&#45;&gt;Node2 -->
<g id="edge1_Node000001_Node000002" class="edge">
<title>Node1&#45;&gt;Node2</title>
<g id="a_edge1_Node000001_Node000002"><a xlink:title=" ">
<path fill="none" stroke="#63b8ff" d="M115.37,-146.71C165.26,-149.96 237.61,-154.68 288.73,-158.01"/>
<polygon fill="#63b8ff" stroke="#63b8ff" points="288.23,-161.49 298.44,-158.65 288.68,-154.5 288.23,-161.49"/>
</a>
</g>
</g>
<!-- Node3 -->
<g id="Node000003" class="node">
<title>Node3</title>
<g id="a_Node000003"><a xlink:href="namespaceLGE_1_1Cache.html#ad8e41893a6ca4a8bea160fd1a6351f21" target="_top" xlink:title=" ">
<polygon fill="white" stroke="#666666" points="263.75,-134 151,-134 151,-114 263.75,-114 263.75,-134"/>
<text xml:space="preserve" text-anchor="middle" x="207.38" y="-120.5" font-family="Helvetica,sans-Serif" font-size="10.00">LGE::Cache::Remove</text>
</a>
</g>
</g>
<!-- Node1&#45;&gt;Node3 -->
<g id="edge2_Node000001_Node000003" class="edge">
<title>Node1&#45;&gt;Node3</title>
<g id="a_edge2_Node000001_Node000003"><a xlink:title=" ">
<path fill="none" stroke="#63b8ff" d="M115.25,-135.71C123.11,-134.7 131.25,-133.65 139.27,-132.62"/>
<polygon fill="#63b8ff" stroke="#63b8ff" points="139.54,-136.12 149.01,-131.37 138.64,-129.17 139.54,-136.12"/>
</a>
</g>
</g>
<!-- Node3&#45;&gt;Node2 -->
<g id="edge19_Node000003_Node000002" class="edge">
<title>Node3&#45;&gt;Node2</title>
<g id="a_edge19_Node000003_Node000002"><a xlink:title=" ">
<path fill="none" stroke="#63b8ff" d="M247.42,-134.48C263.65,-138.85 282.7,-143.96 299.94,-148.59"/>
<polygon fill="#63b8ff" stroke="#63b8ff" points="298.93,-151.94 309.5,-151.16 300.75,-145.18 298.93,-151.94"/>
</a>
</g>
</g>
<!-- Node4 -->
<g id="Node000004" class="node">
<title>Node4</title>
<g id="a_Node000004"><a xlink:href="namespaceLGE_1_1LxFile.html#a495ab310e479d036634c3628390f80a0" target="_top" xlink:title=" ">
<polygon fill="white" stroke="#666666" points="402,-134 299.75,-134 299.75,-114 402,-114 402,-134"/>
<text xml:space="preserve" text-anchor="middle" x="350.88" y="-120.5" font-family="Helvetica,sans-Serif" font-size="10.00">LGE::LxFile::Delete</text>
</a>
</g>
</g>
<!-- Node3&#45;&gt;Node4 -->
<g id="edge3_Node000003_Node000004" class="edge">
<title>Node3&#45;&gt;Node4</title>
<g id="a_edge3_Node000003_Node000004"><a xlink:title=" ">
<path fill="none" stroke="#63b8ff" d="M263.89,-124C271.89,-124 280.16,-124 288.27,-124"/>
<polygon fill="#63b8ff" stroke="#63b8ff" points="288.07,-127.5 298.07,-124 288.07,-120.5 288.07,-127.5"/>
</a>
</g>
</g>
<!-- Node5 -->
<g id="Node000005" class="node">
<title>Node5</title>
<g id="a_Node000005"><a xlink:href="classLGE_1_1Log.html#a53f3f4b8797ffd18145739c9e66d690a" target="_top" xlink:title=" ">
<polygon fill="white" stroke="#666666" points="1158.5,-96 1074.25,-96 1074.25,-76 1158.5,-76 1158.5,-96"/>
<text xml:space="preserve" text-anchor="middle" x="1116.38" y="-82.5" font-family="Helvetica,sans-Serif" font-size="10.00">LGE::Log::Error</text>
</a>
</g>
</g>
<!-- Node4&#45;&gt;Node5 -->
<g id="edge4_Node000004_Node000005" class="edge">
<title>Node4&#45;&gt;Node5</title>
<g id="a_edge4_Node000004_Node000005"><a xlink:title=" ">
<path fill="none" stroke="#63b8ff" d="M389.35,-134.45C393.94,-136.78 398.31,-139.59 402,-143 429.46,-168.35 407.32,-197.66 438,-219 517.84,-274.53 558.74,-238 656,-238 656,-238 656,-238 818.75,-238 934.9,-238 1051.27,-144.55 1096.1,-104.2"/>
<polygon fill="#63b8ff" stroke="#63b8ff" points="1098.44,-106.81 1103.44,-97.47 1093.71,-101.65 1098.44,-106.81"/>
</a>
</g>
</g>
<!-- Node6 -->
<g id="Node000006" class="node">
<title>Node6</title>
<g id="a_Node000006"><a xlink:href="classLGE_1_1Log.html#ab0265ee050b8873a2fd31fbdb696ced0" target="_top" xlink:title=" ">
<polygon fill="white" stroke="#666666" points="538,-210 458.25,-210 458.25,-190 538,-190 538,-210"/>
<text xml:space="preserve" text-anchor="middle" x="498.12" y="-196.5" font-family="Helvetica,sans-Serif" font-size="10.00">LGE::Log::Info</text>
</a>
</g>
</g>
<!-- Node4&#45;&gt;Node6 -->
<g id="edge5_Node000004_Node000006" class="edge">
<title>Node4&#45;&gt;Node6</title>
<g id="a_edge5_Node000004_Node000006"><a xlink:title=" ">
<path fill="none" stroke="#63b8ff" d="M385.8,-134.46C391.43,-136.86 397.04,-139.7 402,-143 421.37,-155.89 418.31,-168.61 438,-181 441.06,-182.92 444.33,-184.67 447.7,-186.25"/>
<polygon fill="#63b8ff" stroke="#63b8ff" points="446.05,-189.36 456.63,-189.94 448.72,-182.89 446.05,-189.36"/>
</a>
</g>
</g>
<!-- Node7 -->
<g id="Node000007" class="node">
<title>Node7</title>
<g id="a_Node000007"><a xlink:href="namespaceLGE_1_1LxFS.html#a5684a30f3fa2906f4dafed0258a79166" target="_top" xlink:title=" ">
<polygon fill="white" stroke="#666666" points="558.25,-172 438,-172 438,-152 558.25,-152 558.25,-172"/>
<text xml:space="preserve" text-anchor="middle" x="498.12" y="-158.5" font-family="Helvetica,sans-Serif" font-size="10.00">LGE::LxFS::IsInitialized</text>
</a>
</g>
</g>
<!-- Node4&#45;&gt;Node7 -->
<g id="edge6_Node000004_Node000007" class="edge">
<title>Node4&#45;&gt;Node7</title>
<g id="a_edge6_Node000004_Node000007"><a xlink:title=" ">
<path fill="none" stroke="#63b8ff" d="M391.95,-134.48C408.7,-138.87 428.36,-144.01 446.12,-148.66"/>
<polygon fill="#63b8ff" stroke="#63b8ff" points="445.16,-152.02 455.72,-151.17 446.93,-145.25 445.16,-152.02"/>
</a>
</g>
</g>
<!-- Node8 -->
<g id="Node000008" class="node">
<title>Node8</title>
<g id="a_Node000008"><a xlink:href="namespaceLGE_1_1VFS.html#abb5d35abfe80efe2f7a07394ad5b706a" target="_top" xlink:title=" ">
<polygon fill="white" stroke="#666666" points="716.38,-58 597.62,-58 597.62,-38 716.38,-38 716.38,-58"/>
<text xml:space="preserve" text-anchor="middle" x="657" y="-44.5" font-family="Helvetica,sans-Serif" font-size="10.00">LGE::VFS::IsReadOnly</text>
</a>
</g>
</g>
<!-- Node4&#45;&gt;Node8 -->
<g id="edge7_Node000004_Node000008" class="edge">
<title>Node4&#45;&gt;Node8</title>
<g id="a_edge7_Node000004_Node000008"><a xlink:title=" ">
<path fill="none" stroke="#63b8ff" d="M363.39,-113.6C379.01,-100.18 408.37,-77.34 438,-67 485.58,-50.39 542.38,-45.9 586.07,-45.42"/>
<polygon fill="#63b8ff" stroke="#63b8ff" points="585.95,-48.92 595.94,-45.38 585.93,-41.92 585.95,-48.92"/>
</a>
</g>
</g>
<!-- Node11 -->
<g id="Node000011" class="node">
<title>Node11</title>
<g id="a_Node000011"><a xlink:href="namespaceLGE_1_1LxFS.html#a12aeb6699602f14153953dceb4284914" target="_top" xlink:title=" ">
<polygon fill="white" stroke="#666666" points="546.25,-96 450,-96 450,-76 546.25,-76 546.25,-96"/>
<text xml:space="preserve" text-anchor="middle" x="498.12" y="-82.5" font-family="Helvetica,sans-Serif" font-size="10.00">LGE::LxFS::Paths</text>
</a>
</g>
</g>
<!-- Node4&#45;&gt;Node11 -->
<g id="edge12_Node000004_Node000011" class="edge">
<title>Node4&#45;&gt;Node11</title>
<g id="a_edge12_Node000004_Node000011"><a xlink:title=" ">
<path fill="none" stroke="#63b8ff" d="M391.95,-113.52C408.7,-109.13 428.36,-103.99 446.12,-99.34"/>
<polygon fill="#63b8ff" stroke="#63b8ff" points="446.93,-102.75 455.72,-96.83 445.16,-95.98 446.93,-102.75"/>
</a>
</g>
</g>
<!-- Node12 -->
<g id="Node000012" class="node">
<title>Node12</title>
<g id="a_Node000012"><a xlink:href="namespaceLGE_1_1VFS.html#aee891612cc393155878775a61e486c0b" target="_top" xlink:title=" ">
<polygon fill="white" stroke="#666666" points="719.75,-134 594.25,-134 594.25,-114 719.75,-114 719.75,-134"/>
<text xml:space="preserve" text-anchor="middle" x="657" y="-120.5" font-family="Helvetica,sans-Serif" font-size="10.00">LGE::VFS::ToVirtualPath</text>
</a>
</g>
</g>
<!-- Node4&#45;&gt;Node12 -->
<g id="edge13_Node000004_Node000012" class="edge">
<title>Node4&#45;&gt;Node12</title>
<g id="a_edge13_Node000004_Node000012"><a xlink:title=" ">
<path fill="none" stroke="#63b8ff" d="M402.44,-124C451.66,-124 527,-124 582.77,-124"/>
<polygon fill="#63b8ff" stroke="#63b8ff" points="582.49,-127.5 592.49,-124 582.49,-120.5 582.49,-127.5"/>
</a>
</g>
</g>
<!-- Node13 -->
<g id="Node000013" class="node">
<title>Node13</title>
<g id="a_Node000013"><a xlink:href="namespaceLGE_1_1LxFile.html#a06d0b8c5590da8bc48cf22d321fc4074" target="_top" xlink:title=" ">
<polygon fill="white" stroke="#666666" points="551.88,-20 444.38,-20 444.38,0 551.88,0 551.88,-20"/>
<text xml:space="preserve" text-anchor="middle" x="498.12" y="-6.5" font-family="Helvetica,sans-Serif" font-size="10.00">LGE::LxFile::WriteAll</text>
</a>
</g>
</g>
<!-- Node4&#45;&gt;Node13 -->
<g id="edge16_Node000004_Node000013" class="edge">
<title>Node4&#45;&gt;Node13</title>
<g id="a_edge16_Node000004_Node000013"><a xlink:title=" ">
<path fill="none" stroke="#63b8ff" d="M359.32,-113.74C373.03,-95.48 404.01,-57.08 438,-34 442.98,-30.62 448.52,-27.59 454.14,-24.91"/>
<polygon fill="#63b8ff" stroke="#63b8ff" points="455.12,-28.31 462.88,-21.1 452.32,-21.89 455.12,-28.31"/>
</a>
</g>
</g>
<!-- Node9 -->
<g id="Node000009" class="node">
<title>Node9</title>
<g id="a_Node000009"><a xlink:href="namespaceLGE_1_1LxPath.html#ab664986e94ce09aa029f9eb2fcf50133" target="_top" xlink:title=" ">
<polygon fill="white" stroke="#666666" points="879.75,-96 755.75,-96 755.75,-76 879.75,-76 879.75,-96"/>
<text xml:space="preserve" text-anchor="middle" x="817.75" y="-82.5" font-family="Helvetica,sans-Serif" font-size="10.00">LGE::LxPath::IsSubPath</text>
</a>
</g>
</g>
<!-- Node8&#45;&gt;Node9 -->
<g id="edge8_Node000008_Node000009" class="edge">
<title>Node8&#45;&gt;Node9</title>
<g id="a_edge8_Node000008_Node000009"><a xlink:title=" ">
<path fill="none" stroke="#63b8ff" d="M701.8,-58.48C720.45,-62.95 742.41,-68.21 762.11,-72.92"/>
<polygon fill="#63b8ff" stroke="#63b8ff" points="761.08,-76.27 771.62,-75.2 762.71,-69.47 761.08,-76.27"/>
</a>
</g>
</g>
<!-- Node10 -->
<g id="Node000010" class="node">
<title>Node10</title>
<g id="a_Node000010"><a xlink:href="namespaceLGE_1_1LxPath.html#a314a60ce690c90f4ee0b4e64c0199408" target="_top" xlink:title=" ">
<polygon fill="white" stroke="#666666" points="1038.25,-96 915.75,-96 915.75,-76 1038.25,-76 1038.25,-96"/>
<text xml:space="preserve" text-anchor="middle" x="977" y="-82.5" font-family="Helvetica,sans-Serif" font-size="10.00">LGE::LxPath::Normalize</text>
</a>
</g>
</g>
<!-- Node8&#45;&gt;Node10 -->
<g id="edge11_Node000008_Node000010" class="edge">
<title>Node8&#45;&gt;Node10</title>
<g id="a_edge11_Node000008_Node000010"><a xlink:title=" ">
<path fill="none" stroke="#63b8ff" d="M716.56,-51.26C761.38,-54.19 824.66,-59.23 879.75,-67 892.02,-68.73 905.08,-71.01 917.5,-73.39"/>
<polygon fill="#63b8ff" stroke="#63b8ff" points="916.72,-76.8 927.2,-75.3 918.07,-69.93 916.72,-76.8"/>
</a>
</g>
</g>
<!-- Node9&#45;&gt;Node10 -->
<g id="edge9_Node000009_Node000010" class="edge">
<title>Node9&#45;&gt;Node10</title>
<g id="a_edge9_Node000009_Node000010"><a xlink:title=" ">
<path fill="none" stroke="#63b8ff" d="M880,-86C887.91,-86 896.07,-86 904.13,-86"/>
<polygon fill="#63b8ff" stroke="#63b8ff" points="903.92,-89.5 913.92,-86 903.92,-82.5 903.92,-89.5"/>
</a>
</g>
</g>
<!-- Node10&#45;&gt;Node5 -->
<g id="edge10_Node000010_Node000005" class="edge">
<title>Node10&#45;&gt;Node5</title>
<g id="a_edge10_Node000010_Node000005"><a xlink:title=" ">
<path fill="none" stroke="#63b8ff" d="M1038.65,-86C1046.67,-86 1054.84,-86 1062.7,-86"/>
<polygon fill="#63b8ff" stroke="#63b8ff" points="1062.45,-89.5 1072.45,-86 1062.45,-82.5 1062.45,-89.5"/>
</a>
</g>
</g>
<!-- Node12&#45;&gt;Node9 -->
<g id="edge14_Node000012_Node000009" class="edge">
<title>Node12&#45;&gt;Node9</title>
<g id="a_edge14_Node000012_Node000009"><a xlink:title=" ">
<path fill="none" stroke="#63b8ff" d="M701.8,-113.52C720.45,-109.05 742.41,-103.79 762.11,-99.08"/>
<polygon fill="#63b8ff" stroke="#63b8ff" points="762.71,-102.53 771.62,-96.8 761.08,-95.73 762.71,-102.53"/>
</a>
</g>
</g>
<!-- Node12&#45;&gt;Node10 -->
<g id="edge15_Node000012_Node000010" class="edge">
<title>Node12&#45;&gt;Node10</title>
<g id="a_edge15_Node000012_Node000010"><a xlink:title=" ">
<path fill="none" stroke="#63b8ff" d="M719.86,-120.52C764.45,-117.57 825.99,-112.59 879.75,-105 892.02,-103.27 905.08,-100.99 917.5,-98.61"/>
<polygon fill="#63b8ff" stroke="#63b8ff" points="918.07,-102.07 927.2,-96.7 916.72,-95.2 918.07,-102.07"/>
</a>
</g>
</g>
<!-- Node13&#45;&gt;Node5 -->
<g id="edge17_Node000013_Node000005" class="edge">
<title>Node13&#45;&gt;Node5</title>
<g id="a_edge17_Node000013_Node000005"><a xlink:title=" ">
<path fill="none" stroke="#63b8ff" d="M552.3,-12.98C649.45,-19 861.85,-34.87 1038.25,-67 1047.32,-68.65 1056.91,-70.74 1066.13,-72.91"/>
<polygon fill="#63b8ff" stroke="#63b8ff" points="1065.12,-76.27 1075.66,-75.24 1066.77,-69.47 1065.12,-76.27"/>
</a>
</g>
</g>
<!-- Node13&#45;&gt;Node8 -->
<g id="edge18_Node000013_Node000008" class="edge">
<title>Node13&#45;&gt;Node8</title>
<g id="a_edge18_Node000013_Node000008"><a xlink:title=" ">
<path fill="none" stroke="#63b8ff" d="M542.41,-20.48C560.75,-24.93 582.34,-30.16 601.73,-34.85"/>
<polygon fill="#63b8ff" stroke="#63b8ff" points="600.85,-38.24 611.39,-37.19 602.49,-31.44 600.85,-38.24"/>
</a>
</g>
</g>
</g>
</svg>
