<?xml version="1.0" encoding="UTF-8" standalone="no"?>
<!DOCTYPE svg PUBLIC "-//W3C//DTD SVG 1.1//EN"
 "http://www.w3.org/Graphics/SVG/1.1/DTD/svg11.dtd">
<!-- Generated by graphviz version 14.0.2 (20251019.1705)
 -->
<!-- Title: LGE::Cache::Shutdown Pages: 1 -->
<svg width="1339pt" height="256pt"
 viewBox="0.00 0.00 1339.00 256.00" xmlns="http://www.w3.org/2000/svg" xmlns:xlink="http://www.w3.org/1999/xlink">
<g id="graph0" class="graph" transform="scale(1 1) rotate(0) translate(4 252)">
<title>LGE::Cache::Shutdown</title>
<!-- Node1 -->
<g id="Node000001" class="node">
<title>Node1</title>
<g id="a_Node000001"><a xlink:title=" ">
<polygon fill="#999999" stroke="#666666" points="119.5,-229 0,-229 0,-209 119.5,-209 119.5,-229"/>
<text xml:space="preserve" text-anchor="middle" x="59.75" y="-215.5" font-family="Helvetica,sans-Serif" font-size="10.00">LGE::Cache::Shutdown</text>
</a>
</g>
</g>
<!-- Node2 -->
<g id="Node000002" class="node">
<title>Node2</title>
<g id="a_Node000002"><a xlink:href="namespaceLGE_1_1Cache.html#a4f57ae5a103f786f3623c8dd436702c5" target="_top" xlink:title=" ">
<polygon fill="white" stroke="#666666" points="287.75,-210 155.5,-210 155.5,-190 287.75,-190 287.75,-210"/>
<text xml:space="preserve" text-anchor="middle" x="221.62" y="-196.5" font-family="Helvetica,sans-Serif" font-size="10.00">LGE::Cache::ClearExpired</text>
</a>
</g>
</g>
<!-- Node1&#45;&gt;Node2 -->
<g id="edge1_Node000001_Node000002" class="edge">
<title>Node1&#45;&gt;Node2</title>
<g id="a_edge1_Node000001_Node000002"><a xlink:title=" ">
<path fill="none" stroke="#63b8ff" d="M119.83,-211.98C127.63,-211.05 135.71,-210.09 143.75,-209.14"/>
<polygon fill="#63b8ff" stroke="#63b8ff" points="144.04,-212.63 153.56,-207.97 143.22,-205.68 144.04,-212.63"/>
</a>
</g>
</g>
<!-- Node3 -->
<g id="Node000003" class="node">
<title>Node3</title>
<g id="a_Node000003"><a xlink:href="classLGE_1_1Log.html#ab0265ee050b8873a2fd31fbdb696ced0" target="_top" xlink:title=" ">
<polygon fill="white" stroke="#666666" points="710.75,-248 631,-248 631,-228 710.75,-228 710.75,-248"/>
<text xml:space="preserve" text-anchor="middle" x="670.88" y="-234.5" font-family="Helvetica,sans-Serif" font-size="10.00">LGE::Log::Info</text>
</a>
</g>
</g>
<!-- Node1&#45;&gt;Node3 -->
<g id="edge21_Node000001_Node000003" class="edge">
<title>Node1&#45;&gt;Node3</title>
<g id="a_edge21_Node000001_Node000003"><a xlink:title=" ">
<path fill="none" stroke="#63b8ff" d="M119.99,-220.85C239.53,-224.58 507.73,-232.94 619.49,-236.43"/>
<polygon fill="#63b8ff" stroke="#63b8ff" points="619.14,-239.92 629.24,-236.73 619.35,-232.92 619.14,-239.92"/>
</a>
</g>
</g>
<!-- Node2&#45;&gt;Node3 -->
<g id="edge2_Node000002_Node000003" class="edge">
<title>Node2&#45;&gt;Node3</title>
<g id="a_edge2_Node000002_Node000003"><a xlink:title=" ">
<path fill="none" stroke="#63b8ff" d="M287.98,-202.93C358.78,-206.45 474.99,-213.28 574.75,-224 589.29,-225.56 605.01,-227.69 619.41,-229.82"/>
<polygon fill="#63b8ff" stroke="#63b8ff" points="618.72,-233.26 629.13,-231.29 619.76,-226.34 618.72,-233.26"/>
</a>
</g>
</g>
<!-- Node4 -->
<g id="Node000004" class="node">
<title>Node4</title>
<g id="a_Node000004"><a xlink:href="namespaceLGE_1_1Cache.html#ad8e41893a6ca4a8bea160fd1a6351f21" target="_top" xlink:title=" ">
<polygon fill="white" stroke="#666666" points="436.5,-172 323.75,-172 323.75,-152 436.5,-152 436.5,-172"/>
<text xml:space="preserve" text-anchor="middle" x="380.12" y="-158.5" font-family="Helvetica,sans-Serif" font-size="10.00">LGE::Cache::Remove</text>
</a>
</g>
</g>
<!-- Node2&#45;&gt;Node4 -->
<g id="edge3_Node000002_Node000004" class="edge">
<title>Node2&#45;&gt;Node4</title>
<g id="a_edge3_Node000002_Node000004"><a xlink:title=" ">
<path fill="none" stroke="#63b8ff" d="M265.8,-189.52C284.11,-185.07 305.64,-179.84 324.99,-175.15"/>
<polygon fill="#63b8ff" stroke="#63b8ff" points="325.72,-178.57 334.62,-172.81 324.07,-171.77 325.72,-178.57"/>
</a>
</g>
</g>
<!-- Node5 -->
<g id="Node000005" class="node">
<title>Node5</title>
<g id="a_Node000005"><a xlink:href="namespaceLGE_1_1LxFile.html#a495ab310e479d036634c3628390f80a0" target="_top" xlink:title=" ">
<polygon fill="white" stroke="#666666" points="574.75,-134 472.5,-134 472.5,-114 574.75,-114 574.75,-134"/>
<text xml:space="preserve" text-anchor="middle" x="523.62" y="-120.5" font-family="Helvetica,sans-Serif" font-size="10.00">LGE::LxFile::Delete</text>
</a>
</g>
</g>
<!-- Node4&#45;&gt;Node5 -->
<g id="edge4_Node000004_Node000005" class="edge">
<title>Node4&#45;&gt;Node5</title>
<g id="a_edge4_Node000004_Node000005"><a xlink:title=" ">
<path fill="none" stroke="#63b8ff" d="M420.17,-151.52C436.4,-147.15 455.45,-142.04 472.69,-137.41"/>
<polygon fill="#63b8ff" stroke="#63b8ff" points="473.5,-140.82 482.25,-134.84 471.68,-134.06 473.5,-140.82"/>
</a>
</g>
</g>
<!-- Node14 -->
<g id="Node000014" class="node">
<title>Node14</title>
<g id="a_Node000014"><a xlink:href="namespaceLGE_1_1LxFile.html#a11e62876b312a11b881b484bb3a5ee71" target="_top" xlink:title=" ">
<polygon fill="white" stroke="#666666" points="574.38,-172 472.88,-172 472.88,-152 574.38,-152 574.38,-172"/>
<text xml:space="preserve" text-anchor="middle" x="523.62" y="-158.5" font-family="Helvetica,sans-Serif" font-size="10.00">LGE::LxFile::Exists</text>
</a>
</g>
</g>
<!-- Node4&#45;&gt;Node14 -->
<g id="edge20_Node000004_Node000014" class="edge">
<title>Node4&#45;&gt;Node14</title>
<g id="a_edge20_Node000004_Node000014"><a xlink:title=" ">
<path fill="none" stroke="#63b8ff" d="M436.64,-162C444.75,-162 453.13,-162 461.34,-162"/>
<polygon fill="#63b8ff" stroke="#63b8ff" points="461.28,-165.5 471.28,-162 461.28,-158.5 461.28,-165.5"/>
</a>
</g>
</g>
<!-- Node5&#45;&gt;Node3 -->
<g id="edge6_Node000005_Node000003" class="edge">
<title>Node5&#45;&gt;Node3</title>
<g id="a_edge6_Node000005_Node000003"><a xlink:title=" ">
<path fill="none" stroke="#63b8ff" d="M561.76,-134.42C566.46,-136.75 570.94,-139.58 574.75,-143 601.07,-166.64 584.71,-190.05 610.75,-214 614.24,-217.21 618.21,-220.01 622.4,-222.46"/>
<polygon fill="#63b8ff" stroke="#63b8ff" points="620.62,-225.48 631.13,-226.86 623.78,-219.23 620.62,-225.48"/>
</a>
</g>
</g>
<!-- Node6 -->
<g id="Node000006" class="node">
<title>Node6</title>
<g id="a_Node000006"><a xlink:href="classLGE_1_1Log.html#a53f3f4b8797ffd18145739c9e66d690a" target="_top" xlink:title=" ">
<polygon fill="white" stroke="#666666" points="1331.25,-172 1247,-172 1247,-152 1331.25,-152 1331.25,-172"/>
<text xml:space="preserve" text-anchor="middle" x="1289.12" y="-158.5" font-family="Helvetica,sans-Serif" font-size="10.00">LGE::Log::Error</text>
</a>
</g>
</g>
<!-- Node5&#45;&gt;Node6 -->
<g id="edge5_Node000005_Node000006" class="edge">
<title>Node5&#45;&gt;Node6</title>
<g id="a_edge5_Node000005_Node000006"><a xlink:title=" ">
<path fill="none" stroke="#63b8ff" d="M558.55,-134.46C564.18,-136.86 569.79,-139.7 574.75,-143 594.12,-155.89 589.8,-170.89 610.75,-181 698.34,-223.27 731.49,-200 828.75,-200 828.75,-200 828.75,-200 991.5,-200 1077.41,-200 1176.19,-184.12 1235.31,-172.9"/>
<polygon fill="#63b8ff" stroke="#63b8ff" points="1235.94,-176.34 1245.1,-171 1234.62,-169.46 1235.94,-176.34"/>
</a>
</g>
</g>
<!-- Node7 -->
<g id="Node000007" class="node">
<title>Node7</title>
<g id="a_Node000007"><a xlink:href="namespaceLGE_1_1LxFS.html#a5684a30f3fa2906f4dafed0258a79166" target="_top" xlink:title=" ">
<polygon fill="white" stroke="#666666" points="731,-58 610.75,-58 610.75,-38 731,-38 731,-58"/>
<text xml:space="preserve" text-anchor="middle" x="670.88" y="-44.5" font-family="Helvetica,sans-Serif" font-size="10.00">LGE::LxFS::IsInitialized</text>
</a>
</g>
</g>
<!-- Node5&#45;&gt;Node7 -->
<g id="edge7_Node000005_Node000007" class="edge">
<title>Node5&#45;&gt;Node7</title>
<g id="a_edge7_Node000005_Node000007"><a xlink:title=" ">
<path fill="none" stroke="#63b8ff" d="M540.08,-113.65C557,-102.56 585.14,-84.83 610.75,-72 617.19,-68.78 624.16,-65.64 630.99,-62.76"/>
<polygon fill="#63b8ff" stroke="#63b8ff" points="632.17,-66.06 640.1,-59.04 629.52,-59.58 632.17,-66.06"/>
</a>
</g>
</g>
<!-- Node8 -->
<g id="Node000008" class="node">
<title>Node8</title>
<g id="a_Node000008"><a xlink:href="namespaceLGE_1_1VFS.html#abb5d35abfe80efe2f7a07394ad5b706a" target="_top" xlink:title=" ">
<polygon fill="white" stroke="#666666" points="889.12,-134 770.38,-134 770.38,-114 889.12,-114 889.12,-134"/>
<text xml:space="preserve" text-anchor="middle" x="829.75" y="-120.5" font-family="Helvetica,sans-Serif" font-size="10.00">LGE::VFS::IsReadOnly</text>
</a>
</g>
</g>
<!-- Node5&#45;&gt;Node8 -->
<g id="edge8_Node000005_Node000008" class="edge">
<title>Node5&#45;&gt;Node8</title>
<g id="a_edge8_Node000005_Node000008"><a xlink:title=" ">
<path fill="none" stroke="#63b8ff" d="M575.19,-124C625.36,-124 702.66,-124 758.72,-124"/>
<polygon fill="#63b8ff" stroke="#63b8ff" points="758.48,-127.5 768.48,-124 758.48,-120.5 758.48,-127.5"/>
</a>
</g>
</g>
<!-- Node11 -->
<g id="Node000011" class="node">
<title>Node11</title>
<g id="a_Node000011"><a xlink:href="namespaceLGE_1_1LxFS.html#a12aeb6699602f14153953dceb4284914" target="_top" xlink:title=" ">
<polygon fill="white" stroke="#666666" points="719,-20 622.75,-20 622.75,0 719,0 719,-20"/>
<text xml:space="preserve" text-anchor="middle" x="670.88" y="-6.5" font-family="Helvetica,sans-Serif" font-size="10.00">LGE::LxFS::Paths</text>
</a>
</g>
</g>
<!-- Node5&#45;&gt;Node11 -->
<g id="edge13_Node000005_Node000011" class="edge">
<title>Node5&#45;&gt;Node11</title>
<g id="a_edge13_Node000005_Node000011"><a xlink:title=" ">
<path fill="none" stroke="#63b8ff" d="M531.14,-113.8C544.03,-94.45 574.64,-52.28 610.75,-29 612.89,-27.62 615.13,-26.34 617.44,-25.14"/>
<polygon fill="#63b8ff" stroke="#63b8ff" points="618.85,-28.35 626.53,-21.06 615.98,-21.96 618.85,-28.35"/>
</a>
</g>
</g>
<!-- Node12 -->
<g id="Node000012" class="node">
<title>Node12</title>
<g id="a_Node000012"><a xlink:href="namespaceLGE_1_1VFS.html#aee891612cc393155878775a61e486c0b" target="_top" xlink:title=" ">
<polygon fill="white" stroke="#666666" points="892.5,-96 767,-96 767,-76 892.5,-76 892.5,-96"/>
<text xml:space="preserve" text-anchor="middle" x="829.75" y="-82.5" font-family="Helvetica,sans-Serif" font-size="10.00">LGE::VFS::ToVirtualPath</text>
</a>
</g>
</g>
<!-- Node5&#45;&gt;Node12 -->
<g id="edge14_Node000005_Node000012" class="edge">
<title>Node5&#45;&gt;Node12</title>
<g id="a_edge14_Node000005_Node000012"><a xlink:title=" ">
<path fill="none" stroke="#63b8ff" d="M575.19,-117.68C624.41,-111.53 699.75,-102.12 755.52,-95.15"/>
<polygon fill="#63b8ff" stroke="#63b8ff" points="755.77,-98.65 765.25,-93.93 754.9,-91.7 755.77,-98.65"/>
</a>
</g>
</g>
<!-- Node13 -->
<g id="Node000013" class="node">
<title>Node13</title>
<g id="a_Node000013"><a xlink:href="namespaceLGE_1_1LxFile.html#a06d0b8c5590da8bc48cf22d321fc4074" target="_top" xlink:title=" ">
<polygon fill="white" stroke="#666666" points="724.62,-172 617.12,-172 617.12,-152 724.62,-152 724.62,-172"/>
<text xml:space="preserve" text-anchor="middle" x="670.88" y="-158.5" font-family="Helvetica,sans-Serif" font-size="10.00">LGE::LxFile::WriteAll</text>
</a>
</g>
</g>
<!-- Node5&#45;&gt;Node13 -->
<g id="edge17_Node000005_Node000013" class="edge">
<title>Node5&#45;&gt;Node13</title>
<g id="a_edge17_Node000005_Node000013"><a xlink:title=" ">
<path fill="none" stroke="#63b8ff" d="M564.7,-134.48C581.45,-138.87 601.11,-144.01 618.87,-148.66"/>
<polygon fill="#63b8ff" stroke="#63b8ff" points="617.91,-152.02 628.47,-151.17 619.68,-145.25 617.91,-152.02"/>
</a>
</g>
</g>
<!-- Node9 -->
<g id="Node000009" class="node">
<title>Node9</title>
<g id="a_Node000009"><a xlink:href="namespaceLGE_1_1LxPath.html#ab664986e94ce09aa029f9eb2fcf50133" target="_top" xlink:title=" ">
<polygon fill="white" stroke="#666666" points="1052.5,-96 928.5,-96 928.5,-76 1052.5,-76 1052.5,-96"/>
<text xml:space="preserve" text-anchor="middle" x="990.5" y="-82.5" font-family="Helvetica,sans-Serif" font-size="10.00">LGE::LxPath::IsSubPath</text>
</a>
</g>
</g>
<!-- Node8&#45;&gt;Node9 -->
<g id="edge9_Node000008_Node000009" class="edge">
<title>Node8&#45;&gt;Node9</title>
<g id="a_edge9_Node000008_Node000009"><a xlink:title=" ">
<path fill="none" stroke="#63b8ff" d="M874.55,-113.52C893.2,-109.05 915.16,-103.79 934.86,-99.08"/>
<polygon fill="#63b8ff" stroke="#63b8ff" points="935.46,-102.53 944.37,-96.8 933.83,-95.73 935.46,-102.53"/>
</a>
</g>
</g>
<!-- Node10 -->
<g id="Node000010" class="node">
<title>Node10</title>
<g id="a_Node000010"><a xlink:href="namespaceLGE_1_1LxPath.html#a314a60ce690c90f4ee0b4e64c0199408" target="_top" xlink:title=" ">
<polygon fill="white" stroke="#666666" points="1211,-115 1088.5,-115 1088.5,-95 1211,-95 1211,-115"/>
<text xml:space="preserve" text-anchor="middle" x="1149.75" y="-101.5" font-family="Helvetica,sans-Serif" font-size="10.00">LGE::LxPath::Normalize</text>
</a>
</g>
</g>
<!-- Node8&#45;&gt;Node10 -->
<g id="edge12_Node000008_Node000010" class="edge">
<title>Node8&#45;&gt;Node10</title>
<g id="a_edge12_Node000008_Node000010"><a xlink:title=" ">
<path fill="none" stroke="#63b8ff" d="M889.45,-120.49C942.33,-117.33 1020.24,-112.68 1076.85,-109.3"/>
<polygon fill="#63b8ff" stroke="#63b8ff" points="1076.95,-112.8 1086.72,-108.71 1076.53,-105.81 1076.95,-112.8"/>
</a>
</g>
</g>
<!-- Node9&#45;&gt;Node10 -->
<g id="edge10_Node000009_Node000010" class="edge">
<title>Node9&#45;&gt;Node10</title>
<g id="a_edge10_Node000009_Node000010"><a xlink:title=" ">
<path fill="none" stroke="#63b8ff" d="M1052.75,-93.4C1060.66,-94.36 1068.82,-95.34 1076.88,-96.32"/>
<polygon fill="#63b8ff" stroke="#63b8ff" points="1076.34,-99.78 1086.68,-97.5 1077.18,-92.83 1076.34,-99.78"/>
</a>
</g>
</g>
<!-- Node10&#45;&gt;Node6 -->
<g id="edge11_Node000010_Node000006" class="edge">
<title>Node10&#45;&gt;Node6</title>
<g id="a_edge11_Node000010_Node000006"><a xlink:title=" ">
<path fill="none" stroke="#63b8ff" d="M1175.95,-115.45C1197.44,-124.37 1228.59,-137.3 1252.61,-147.26"/>
<polygon fill="#63b8ff" stroke="#63b8ff" points="1251.11,-150.43 1261.69,-151.03 1253.79,-143.97 1251.11,-150.43"/>
</a>
</g>
</g>
<!-- Node12&#45;&gt;Node9 -->
<g id="edge15_Node000012_Node000009" class="edge">
<title>Node12&#45;&gt;Node9</title>
<g id="a_edge15_Node000012_Node000009"><a xlink:title=" ">
<path fill="none" stroke="#63b8ff" d="M892.58,-86C900.51,-86 908.69,-86 916.77,-86"/>
<polygon fill="#63b8ff" stroke="#63b8ff" points="916.58,-89.5 926.58,-86 916.58,-82.5 916.58,-89.5"/>
</a>
</g>
</g>
<!-- Node12&#45;&gt;Node10 -->
<g id="edge16_Node000012_Node000010" class="edge">
<title>Node12&#45;&gt;Node10</title>
<g id="a_edge16_Node000012_Node000010"><a xlink:title=" ">
<path fill="none" stroke="#63b8ff" d="M873.2,-75.55C918.09,-66.08 990.82,-55.26 1052.5,-67 1075.51,-71.38 1100.06,-81.16 1118.6,-89.7"/>
<polygon fill="#63b8ff" stroke="#63b8ff" points="1116.87,-92.75 1127.4,-93.88 1119.87,-86.43 1116.87,-92.75"/>
</a>
</g>
</g>
<!-- Node13&#45;&gt;Node6 -->
<g id="edge18_Node000013_Node000006" class="edge">
<title>Node13&#45;&gt;Node6</title>
<g id="a_edge18_Node000013_Node000006"><a xlink:title=" ">
<path fill="none" stroke="#63b8ff" d="M724.95,-162C841.52,-162 1118.79,-162 1235.21,-162"/>
<polygon fill="#63b8ff" stroke="#63b8ff" points="1235.11,-165.5 1245.11,-162 1235.11,-158.5 1235.11,-165.5"/>
</a>
</g>
</g>
<!-- Node13&#45;&gt;Node8 -->
<g id="edge19_Node000013_Node000008" class="edge">
<title>Node13&#45;&gt;Node8</title>
<g id="a_edge19_Node000013_Node000008"><a xlink:title=" ">
<path fill="none" stroke="#63b8ff" d="M715.16,-151.52C733.5,-147.07 755.09,-141.84 774.48,-137.15"/>
<polygon fill="#63b8ff" stroke="#63b8ff" points="775.24,-140.56 784.14,-134.81 773.6,-133.76 775.24,-140.56"/>
</a>
</g>
</g>
</g>
</svg>
