<?xml version="1.0" encoding="UTF-8" standalone="no"?>
<!DOCTYPE svg PUBLIC "-//W3C//DTD SVG 1.1//EN"
 "http://www.w3.org/Graphics/SVG/1.1/DTD/svg11.dtd">
<!-- Generated by graphviz version 14.0.2 (20251019.1705)
 -->
<!-- Title: LGE::Bundles::GetBundleAssets Pages: 1 -->
<svg width="337pt" height="46pt"
 viewBox="0.00 0.00 337.00 46.00" xmlns="http://www.w3.org/2000/svg" xmlns:xlink="http://www.w3.org/1999/xlink">
<g id="graph0" class="graph" transform="scale(1 1) rotate(0) translate(4 42)">
<title>LGE::Bundles::GetBundleAssets</title>
<!-- Node1 -->
<g id="Node000001" class="node">
<title>Node1</title>
<g id="a_Node000001"><a xlink:title=" ">
<polygon fill="#999999" stroke="#666666" points="329,-20 169.75,-20 169.75,0 329,0 329,-20"/>
<text xml:space="preserve" text-anchor="middle" x="249.38" y="-6.5" font-family="Helvetica,sans-Serif" font-size="10.00">LGE::Bundles::GetBundleAssets</text>
</a>
</g>
</g>
<!-- Node2 -->
<g id="Node000002" class="node">
<title>Node2</title>
<g id="a_Node000002"><a xlink:href="namespaceLGE_1_1Bundles.html#a7eac06d1dd3b550a0bd5615c8eb1b952" target="_top" xlink:title=" ">
<polygon fill="white" stroke="#666666" points="133.75,-20 0,-20 0,0 133.75,0 133.75,-20"/>
<text xml:space="preserve" text-anchor="middle" x="66.88" y="-6.5" font-family="Helvetica,sans-Serif" font-size="10.00">LGE::Bundles::LoadBundle</text>
</a>
</g>
</g>
<!-- Node1&#45;&gt;Node2 -->
<g id="edge1_Node000001_Node000002" class="edge">
<title>Node1&#45;&gt;Node2</title>
<g id="a_edge1_Node000001_Node000002"><a xlink:title=" ">
<path fill="none" stroke="#63b8ff" d="M158.11,-10C150.06,-10 142.01,-10 134.21,-10"/>
<polygon fill="#63b8ff" stroke="#63b8ff" points="157.95,-13.5 167.95,-10 157.95,-6.5 157.95,-13.5"/>
</a>
</g>
</g>
<!-- Node2&#45;&gt;Node2 -->
<g id="edge2_Node000002_Node000002" class="edge">
<title>Node2&#45;&gt;Node2</title>
<g id="a_edge2_Node000002_Node000002"><a xlink:title=" ">
<path fill="none" stroke="#63b8ff" d="M99.47,-31.11C95.58,-35.14 84.72,-38 66.88,-38 35.15,-38 25.49,-28.98 37.88,-20.34"/>
<polygon fill="#63b8ff" stroke="#63b8ff" points="102.84,-30.15 96.35,-21.77 96.2,-32.37 102.84,-30.15"/>
</a>
</g>
</g>
</g>
</svg>
