<?xml version="1.0" encoding="UTF-8" standalone="no"?>
<!DOCTYPE svg PUBLIC "-//W3C//DTD SVG 1.1//EN"
 "http://www.w3.org/Graphics/SVG/1.1/DTD/svg11.dtd">
<!-- Generated by graphviz version 14.0.2 (20251019.1705)
 -->
<!-- Title: LGE::Versioning::GetVersion Pages: 1 -->
<svg width="493pt" height="178pt"
 viewBox="0.00 0.00 493.00 178.00" xmlns="http://www.w3.org/2000/svg" xmlns:xlink="http://www.w3.org/1999/xlink">
<g id="graph0" class="graph" transform="scale(1 1) rotate(0) translate(4 174)">
<title>LGE::Versioning::GetVersion</title>
<!-- Node1 -->
<g id="Node000001" class="node">
<title>Node1</title>
<g id="a_Node000001"><a xlink:title=" ">
<polygon fill="#999999" stroke="#666666" points="485.25,-89 344.75,-89 344.75,-69 485.25,-69 485.25,-89"/>
<text xml:space="preserve" text-anchor="middle" x="415" y="-75.5" font-family="Helvetica,sans-Serif" font-size="10.00">LGE::Versioning::GetVersion</text>
</a>
</g>
</g>
<!-- Node2 -->
<g id="Node000002" class="node">
<title>Node2</title>
<g id="a_Node000002"><a xlink:href="namespaceLGE_1_1Versioning.html#ac503d4eba950c0b6ed7c705ec481e22f" target="_top" xlink:title=" ">
<polygon fill="white" stroke="#666666" points="304.62,-170 172.38,-170 172.38,-138 304.62,-138 304.62,-170"/>
<text xml:space="preserve" text-anchor="start" x="180.38" y="-156.5" font-family="Helvetica,sans-Serif" font-size="10.00">LGE::Versioning::Compare</text>
<text xml:space="preserve" text-anchor="middle" x="238.5" y="-144.5" font-family="Helvetica,sans-Serif" font-size="10.00">Versions</text>
</a>
</g>
</g>
<!-- Node1&#45;&gt;Node2 -->
<g id="edge1_Node000001_Node000002" class="edge">
<title>Node1&#45;&gt;Node2</title>
<g id="a_edge1_Node000001_Node000002"><a xlink:title=" ">
<path fill="none" stroke="#63b8ff" d="M383.54,-94.43C362.72,-104.75 334.35,-118.33 308.75,-129 301.79,-131.9 294.36,-134.79 287.04,-137.53"/>
<polygon fill="#63b8ff" stroke="#63b8ff" points="384.95,-97.64 392.34,-90.04 381.83,-91.38 384.95,-97.64"/>
</a>
</g>
</g>
<!-- Node4 -->
<g id="Node000004" class="node">
<title>Node4</title>
<g id="a_Node000004"><a xlink:href="namespaceLGE_1_1Versioning.html#ae0e5177fa7183c5b0046c8af354eb3f9" target="_top" xlink:title=" ">
<polygon fill="white" stroke="#666666" points="308.75,-120 168.25,-120 168.25,-88 308.75,-88 308.75,-120"/>
<text xml:space="preserve" text-anchor="start" x="176.25" y="-106.5" font-family="Helvetica,sans-Serif" font-size="10.00">LGE::Versioning::GetCurrent</text>
<text xml:space="preserve" text-anchor="middle" x="238.5" y="-94.5" font-family="Helvetica,sans-Serif" font-size="10.00">Version</text>
</a>
</g>
</g>
<!-- Node1&#45;&gt;Node4 -->
<g id="edge3_Node000001_Node000004" class="edge">
<title>Node1&#45;&gt;Node4</title>
<g id="a_edge3_Node000001_Node000004"><a xlink:title=" ">
<path fill="none" stroke="#63b8ff" d="M333.05,-90.6C325.05,-91.74 316.98,-92.9 309.11,-94.03"/>
<polygon fill="#63b8ff" stroke="#63b8ff" points="333.38,-94.09 342.78,-89.2 332.39,-87.16 333.38,-94.09"/>
</a>
</g>
</g>
<!-- Node5 -->
<g id="Node000005" class="node">
<title>Node5</title>
<g id="a_Node000005"><a xlink:href="namespaceLGE_1_1Versioning.html#aa1c58557187af6c680c697decb83bdf3" target="_top" xlink:title=" ">
<polygon fill="white" stroke="#666666" points="306.12,-70 170.88,-70 170.88,-38 306.12,-38 306.12,-70"/>
<text xml:space="preserve" text-anchor="start" x="178.88" y="-56.5" font-family="Helvetica,sans-Serif" font-size="10.00">LGE::Versioning::GetLatest</text>
<text xml:space="preserve" text-anchor="middle" x="238.5" y="-44.5" font-family="Helvetica,sans-Serif" font-size="10.00">Version</text>
</a>
</g>
</g>
<!-- Node1&#45;&gt;Node5 -->
<g id="edge5_Node000001_Node000005" class="edge">
<title>Node1&#45;&gt;Node5</title>
<g id="a_edge5_Node000001_Node000005"><a xlink:title=" ">
<path fill="none" stroke="#63b8ff" d="M333.1,-67.41C324.22,-66.14 315.24,-64.85 306.55,-63.61"/>
<polygon fill="#63b8ff" stroke="#63b8ff" points="332.39,-70.84 342.78,-68.8 333.38,-63.91 332.39,-70.84"/>
</a>
</g>
</g>
<!-- Node6 -->
<g id="Node000006" class="node">
<title>Node6</title>
<g id="a_Node000006"><a xlink:href="namespaceLGE_1_1Versioning.html#a4e977862f93d7ccde20aba7b6343b982" target="_top" xlink:title=" ">
<polygon fill="white" stroke="#666666" points="308.75,-20 168.25,-20 168.25,0 308.75,0 308.75,-20"/>
<text xml:space="preserve" text-anchor="middle" x="238.5" y="-6.5" font-family="Helvetica,sans-Serif" font-size="10.00">LGE::Versioning::TagVersion</text>
</a>
</g>
</g>
<!-- Node1&#45;&gt;Node6 -->
<g id="edge6_Node000001_Node000006" class="edge">
<title>Node1&#45;&gt;Node6</title>
<g id="a_edge6_Node000001_Node000006"><a xlink:title=" ">
<path fill="none" stroke="#63b8ff" d="M384.57,-63.3C363.79,-52.65 335.07,-38.78 308.75,-29 300.34,-25.87 291.18,-23 282.36,-20.49"/>
<polygon fill="#63b8ff" stroke="#63b8ff" points="382.83,-66.34 393.32,-67.85 386.06,-60.13 382.83,-66.34"/>
</a>
</g>
</g>
<!-- Node3 -->
<g id="Node000003" class="node">
<title>Node3</title>
<g id="a_Node000003"><a xlink:href="namespaceLGE_1_1Versioning.html#a149d710231fa56d6d8b64e29741e029a" target="_top" xlink:title=" ">
<polygon fill="white" stroke="#666666" points="132.25,-145 0,-145 0,-113 132.25,-113 132.25,-145"/>
<text xml:space="preserve" text-anchor="start" x="8" y="-131.5" font-family="Helvetica,sans-Serif" font-size="10.00">LGE::Versioning::Compare</text>
<text xml:space="preserve" text-anchor="middle" x="66.12" y="-119.5" font-family="Helvetica,sans-Serif" font-size="10.00">WithVersion</text>
</a>
</g>
</g>
<!-- Node2&#45;&gt;Node3 -->
<g id="edge2_Node000002_Node000003" class="edge">
<title>Node2&#45;&gt;Node3</title>
<g id="a_edge2_Node000002_Node000003"><a xlink:title=" ">
<path fill="none" stroke="#63b8ff" d="M160.75,-142.74C151.36,-141.36 141.82,-139.96 132.62,-138.61"/>
<polygon fill="#63b8ff" stroke="#63b8ff" points="160.22,-146.2 170.62,-144.19 161.23,-139.27 160.22,-146.2"/>
</a>
</g>
</g>
<!-- Node4&#45;&gt;Node3 -->
<g id="edge4_Node000004_Node000003" class="edge">
<title>Node4&#45;&gt;Node3</title>
<g id="a_edge4_Node000004_Node000003"><a xlink:title=" ">
<path fill="none" stroke="#63b8ff" d="M157.05,-115.8C148.83,-117.01 140.54,-118.23 132.51,-119.41"/>
<polygon fill="#63b8ff" stroke="#63b8ff" points="157.32,-119.3 166.7,-114.39 156.3,-112.38 157.32,-119.3"/>
</a>
</g>
</g>
</g>
</svg>
