<?xml version="1.0" encoding="UTF-8" standalone="no"?>
<!DOCTYPE svg PUBLIC "-//W3C//DTD SVG 1.1//EN"
 "http://www.w3.org/Graphics/SVG/1.1/DTD/svg11.dtd">
<!-- Generated by graphviz version 14.0.2 (20251019.1705)
 -->
<!-- Title: LGE::AssetRegistry::FindByPath Pages: 1 -->
<svg width="1118pt" height="922pt"
 viewBox="0.00 0.00 1118.00 922.00" xmlns="http://www.w3.org/2000/svg" xmlns:xlink="http://www.w3.org/1999/xlink">
<g id="graph0" class="graph" transform="scale(1 1) rotate(0) translate(4 918)">
<title>LGE::AssetRegistry::FindByPath</title>
<!-- Node1 -->
<g id="Node000001" class="node">
<title>Node1</title>
<g id="a_Node000001"><a xlink:title=" ">
<polygon fill="#999999" stroke="#666666" points="1109.5,-548 1005.75,-548 1005.75,-516 1109.5,-516 1109.5,-548"/>
<text xml:space="preserve" text-anchor="start" x="1013.75" y="-534.5" font-family="Helvetica,sans-Serif" font-size="10.00">LGE::AssetRegistry</text>
<text xml:space="preserve" text-anchor="middle" x="1057.62" y="-522.5" font-family="Helvetica,sans-Serif" font-size="10.00">::FindByPath</text>
</a>
</g>
</g>
<!-- Node2 -->
<g id="Node000002" class="node">
<title>Node2</title>
<g id="a_Node000002"><a xlink:href="BenchmarkFS_8cpp.html#a1d7ed07006c36462715eb9e933bb0bac" target="_top" xlink:title=" ">
<polygon fill="white" stroke="#666666" points="441.38,-750 333.88,-750 333.88,-718 441.38,-718 441.38,-750"/>
<text xml:space="preserve" text-anchor="start" x="341.88" y="-736.5" font-family="Helvetica,sans-Serif" font-size="10.00">Benchmark_Registry</text>
<text xml:space="preserve" text-anchor="middle" x="387.62" y="-724.5" font-family="Helvetica,sans-Serif" font-size="10.00">_Search_Path</text>
</a>
</g>
</g>
<!-- Node1&#45;&gt;Node2 -->
<g id="edge1_Node000001_Node000002" class="edge">
<title>Node1&#45;&gt;Node2</title>
<g id="a_edge1_Node000001_Node000002"><a xlink:title=" ">
<path fill="none" stroke="#63b8ff" d="M994.14,-532.04C864.5,-533.4 572.28,-543.51 498.75,-606 461.8,-637.4 497.23,-674.9 462.75,-709 456.76,-714.92 449.33,-719.44 441.5,-722.89"/>
<polygon fill="#63b8ff" stroke="#63b8ff" points="993.94,-535.54 1003.9,-531.95 993.87,-528.54 993.94,-535.54"/>
</a>
</g>
</g>
<!-- Node5 -->
<g id="Node000005" class="node">
<title>Node5</title>
<g id="a_Node000005"><a xlink:href="namespaceLGE_1_1AssetRegistry.html#abf12143e6f506efd22e4ec9ef670134a" target="_top" xlink:title=" ">
<polygon fill="white" stroke="#666666" points="967.5,-592 813.5,-592 813.5,-560 967.5,-560 967.5,-592"/>
<text xml:space="preserve" text-anchor="start" x="821.5" y="-578.5" font-family="Helvetica,sans-Serif" font-size="10.00">LGE::AssetRegistry</text>
<text xml:space="preserve" text-anchor="middle" x="890.5" y="-566.5" font-family="Helvetica,sans-Serif" font-size="10.00">::BuildReverseDependencyMap</text>
</a>
</g>
</g>
<!-- Node1&#45;&gt;Node5 -->
<g id="edge4_Node000001_Node000005" class="edge">
<title>Node1&#45;&gt;Node5</title>
<g id="a_edge4_Node000001_Node000005"><a xlink:title=" ">
<path fill="none" stroke="#63b8ff" d="M994.23,-548.63C980.81,-552.2 966.64,-555.98 953.25,-559.54"/>
<polygon fill="#63b8ff" stroke="#63b8ff" points="995.06,-552.03 1003.82,-546.07 993.26,-545.26 995.06,-552.03"/>
</a>
</g>
</g>
<!-- Node8 -->
<g id="Node000008" class="node">
<title>Node8</title>
<g id="a_Node000008"><a xlink:href="namespaceLGE_1_1ImportExport.html#af78ec4a5e430226c5054a220cedc76b1" target="_top" xlink:title=" ">
<polygon fill="white" stroke="#666666" points="439.5,-800 335.75,-800 335.75,-768 439.5,-768 439.5,-800"/>
<text xml:space="preserve" text-anchor="start" x="343.75" y="-786.5" font-family="Helvetica,sans-Serif" font-size="10.00">LGE::ImportExport::</text>
<text xml:space="preserve" text-anchor="middle" x="387.62" y="-774.5" font-family="Helvetica,sans-Serif" font-size="10.00">ImportFile</text>
</a>
</g>
</g>
<!-- Node1&#45;&gt;Node8 -->
<g id="edge42_Node000001_Node000008" class="edge">
<title>Node1&#45;&gt;Node8</title>
<g id="a_edge42_Node000001_Node000008"><a xlink:title=" ">
<path fill="none" stroke="#63b8ff" d="M1034.01,-556.26C1017.77,-571.97 994.47,-591.25 969.75,-601 872.07,-639.55 580.41,-572.98 498.75,-639 455.45,-674.01 501.45,-718.97 462.75,-759 456.43,-765.54 448.33,-770.37 439.83,-773.94"/>
<polygon fill="#63b8ff" stroke="#63b8ff" points="1036.16,-559.06 1040.76,-549.51 1031.21,-554.11 1036.16,-559.06"/>
</a>
</g>
</g>
<!-- Node37 -->
<g id="Node000037" class="node">
<title>Node37</title>
<g id="a_Node000037"><a xlink:href="namespaceLGE_1_1Validation.html#a8a95594c50b28ddc8bbe656af6ff9385" target="_top" xlink:title=" ">
<polygon fill="white" stroke="#666666" points="969.75,-504 811.25,-504 811.25,-472 969.75,-472 969.75,-504"/>
<text xml:space="preserve" text-anchor="start" x="819.25" y="-490.5" font-family="Helvetica,sans-Serif" font-size="10.00">LGE::Validation::CheckMetadata</text>
<text xml:space="preserve" text-anchor="middle" x="890.5" y="-478.5" font-family="Helvetica,sans-Serif" font-size="10.00">Matches</text>
</a>
</g>
</g>
<!-- Node1&#45;&gt;Node37 -->
<g id="edge41_Node000001_Node000037" class="edge">
<title>Node1&#45;&gt;Node37</title>
<g id="a_edge41_Node000001_Node000037"><a xlink:title=" ">
<path fill="none" stroke="#63b8ff" d="M994.23,-515.37C980.81,-511.8 966.64,-508.02 953.25,-504.46"/>
<polygon fill="#63b8ff" stroke="#63b8ff" points="993.26,-518.74 1003.82,-517.93 995.06,-511.97 993.26,-518.74"/>
</a>
</g>
</g>
<!-- Node38 -->
<g id="Node000038" class="node">
<title>Node38</title>
<g id="a_Node000038"><a xlink:href="namespaceLGE_1_1Dependencies.html#ab8088cfc8ddddf32d237f13042e6310d" target="_top" xlink:title=" ">
<polygon fill="white" stroke="#666666" points="945.38,-123 835.62,-123 835.62,-91 945.38,-91 945.38,-123"/>
<text xml:space="preserve" text-anchor="start" x="843.62" y="-109.5" font-family="Helvetica,sans-Serif" font-size="10.00">LGE::Dependencies::</text>
<text xml:space="preserve" text-anchor="middle" x="890.5" y="-97.5" font-family="Helvetica,sans-Serif" font-size="10.00">ValidateReference</text>
</a>
</g>
</g>
<!-- Node1&#45;&gt;Node38 -->
<g id="edge43_Node000001_Node000038" class="edge">
<title>Node1&#45;&gt;Node38</title>
<g id="a_edge43_Node000001_Node000038"><a xlink:title=" ">
<path fill="none" stroke="#63b8ff" d="M1046.27,-505.36C1015.1,-425.11 922.71,-187.32 897.76,-123.12"/>
<polygon fill="#63b8ff" stroke="#63b8ff" points="1042.82,-506.14 1049.7,-514.19 1049.35,-503.6 1042.82,-506.14"/>
</a>
</g>
</g>
<!-- Node3 -->
<g id="Node000003" class="node">
<title>Node3</title>
<g id="a_Node000003"><a xlink:href="BenchmarkFS_8cpp.html#abd2bf074780e72b3c554bb5eb58ff96a" target="_top" xlink:title=" ">
<polygon fill="white" stroke="#666666" points="276.5,-644 139.75,-644 139.75,-624 276.5,-624 276.5,-644"/>
<text xml:space="preserve" text-anchor="middle" x="208.12" y="-630.5" font-family="Helvetica,sans-Serif" font-size="10.00">RunFilesystemBenchmarks</text>
</a>
</g>
</g>
<!-- Node2&#45;&gt;Node3 -->
<g id="edge2_Node000002_Node000003" class="edge">
<title>Node2&#45;&gt;Node3</title>
<g id="a_edge2_Node000002_Node000003"><a xlink:title=" ">
<path fill="none" stroke="#63b8ff" d="M323.15,-714.04C319.5,-712.45 315.92,-710.77 312.5,-709 276.44,-690.39 239.11,-660.06 220.75,-644.28"/>
<polygon fill="#63b8ff" stroke="#63b8ff" points="321.59,-717.19 332.17,-717.73 324.24,-710.71 321.59,-717.19"/>
</a>
</g>
</g>
<!-- Node4 -->
<g id="Node000004" class="node">
<title>Node4</title>
<g id="a_Node000004"><a xlink:href="BenchmarkRunner_8cpp.html#a0ddf1224851353fc92bfbff6f499fa97" target="_top" xlink:title=" ">
<polygon fill="white" stroke="#666666" points="70.38,-644 33.38,-644 33.38,-624 70.38,-624 70.38,-644"/>
<text xml:space="preserve" text-anchor="middle" x="51.88" y="-630.5" font-family="Helvetica,sans-Serif" font-size="10.00">main</text>
</a>
</g>
</g>
<!-- Node3&#45;&gt;Node4 -->
<g id="edge3_Node000003_Node000004" class="edge">
<title>Node3&#45;&gt;Node4</title>
<g id="a_edge3_Node000003_Node000004"><a xlink:title=" ">
<path fill="none" stroke="#63b8ff" d="M128.17,-634C106.52,-634 85.07,-634 70.63,-634"/>
<polygon fill="#63b8ff" stroke="#63b8ff" points="127.96,-637.5 137.96,-634 127.96,-630.5 127.96,-637.5"/>
</a>
</g>
</g>
<!-- Node6 -->
<g id="Node000006" class="node">
<title>Node6</title>
<g id="a_Node000006"><a xlink:href="namespaceLGE_1_1AssetRegistry.html#ad149a48ca6d3fb38debc8c384f1e0b18" target="_top" xlink:title=" ">
<polygon fill="white" stroke="#666666" points="772.25,-781 668.5,-781 668.5,-749 772.25,-749 772.25,-781"/>
<text xml:space="preserve" text-anchor="start" x="676.5" y="-767.5" font-family="Helvetica,sans-Serif" font-size="10.00">LGE::AssetRegistry</text>
<text xml:space="preserve" text-anchor="middle" x="720.38" y="-755.5" font-family="Helvetica,sans-Serif" font-size="10.00">::AddOrUpdate</text>
</a>
</g>
</g>
<!-- Node5&#45;&gt;Node6 -->
<g id="edge5_Node000005_Node000006" class="edge">
<title>Node5&#45;&gt;Node6</title>
<g id="a_edge5_Node000005_Node000006"><a xlink:title=" ">
<path fill="none" stroke="#63b8ff" d="M867.53,-600.69C832.61,-639.96 765.35,-715.56 735.85,-748.73"/>
<polygon fill="#63b8ff" stroke="#63b8ff" points="869.84,-603.37 873.87,-593.57 864.61,-598.72 869.84,-603.37"/>
</a>
</g>
</g>
<!-- Node18 -->
<g id="Node000018" class="node">
<title>Node18</title>
<g id="a_Node000018"><a xlink:href="namespaceLGE_1_1AssetRegistry.html#af9345d56722e55e0a02cc2b1c421da76" target="_top" xlink:title=" ">
<polygon fill="white" stroke="#666666" points="616,-404 512.25,-404 512.25,-372 616,-372 616,-404"/>
<text xml:space="preserve" text-anchor="start" x="520.25" y="-390.5" font-family="Helvetica,sans-Serif" font-size="10.00">LGE::AssetRegistry</text>
<text xml:space="preserve" text-anchor="middle" x="564.12" y="-378.5" font-family="Helvetica,sans-Serif" font-size="10.00">::FullScan</text>
</a>
</g>
</g>
<!-- Node5&#45;&gt;Node18 -->
<g id="edge17_Node000005_Node000018" class="edge">
<title>Node5&#45;&gt;Node18</title>
<g id="a_edge17_Node000005_Node000018"><a xlink:title=" ">
<path fill="none" stroke="#63b8ff" d="M851.72,-554.1C785.98,-516 652,-438.35 593.51,-404.45"/>
<polygon fill="#63b8ff" stroke="#63b8ff" points="849.56,-556.9 859.97,-558.89 853.07,-550.84 849.56,-556.9"/>
</a>
</g>
</g>
<!-- Node7 -->
<g id="Node000007" class="node">
<title>Node7</title>
<g id="a_Node000007"><a xlink:href="namespaceLGE_1_1FSOps.html#a7c3c8bb77f4634c4667e4896b11d66ad" target="_top" xlink:title=" ">
<polygon fill="white" stroke="#666666" points="625,-794 503.25,-794 503.25,-774 625,-774 625,-794"/>
<text xml:space="preserve" text-anchor="middle" x="564.12" y="-780.5" font-family="Helvetica,sans-Serif" font-size="10.00">LGE::FSOps::ImportFile</text>
</a>
</g>
</g>
<!-- Node6&#45;&gt;Node7 -->
<g id="edge6_Node000006_Node000007" class="edge">
<title>Node6&#45;&gt;Node7</title>
<g id="a_edge6_Node000006_Node000007"><a xlink:title=" ">
<path fill="none" stroke="#63b8ff" d="M656.9,-772.7C646.48,-773.98 635.7,-775.31 625.35,-776.58"/>
<polygon fill="#63b8ff" stroke="#63b8ff" points="657.01,-776.21 666.51,-771.51 656.16,-769.26 657.01,-776.21"/>
</a>
</g>
</g>
<!-- Node11 -->
<g id="Node000011" class="node">
<title>Node11</title>
<g id="a_Node000011"><a xlink:href="namespaceLGE_1_1Migration.html#aab471190f199928c6dc7f32f6e042b72" target="_top" xlink:title=" ">
<polygon fill="white" stroke="#666666" points="629.5,-680 498.75,-680 498.75,-648 629.5,-648 629.5,-680"/>
<text xml:space="preserve" text-anchor="start" x="506.75" y="-666.5" font-family="Helvetica,sans-Serif" font-size="10.00">LGE::Migration::MigrateAll</text>
<text xml:space="preserve" text-anchor="middle" x="564.12" y="-654.5" font-family="Helvetica,sans-Serif" font-size="10.00">Metadata</text>
</a>
</g>
</g>
<!-- Node6&#45;&gt;Node11 -->
<g id="edge10_Node000006_Node000011" class="edge">
<title>Node6&#45;&gt;Node11</title>
<g id="a_edge10_Node000006_Node000011"><a xlink:title=" ">
<path fill="none" stroke="#63b8ff" d="M695.6,-741.06C678.39,-724.74 653.96,-703.53 629.5,-689 624.24,-685.88 618.53,-683.01 612.74,-680.41"/>
<polygon fill="#63b8ff" stroke="#63b8ff" points="692.72,-743.14 702.34,-747.57 697.58,-738.11 692.72,-743.14"/>
</a>
</g>
</g>
<!-- Node12 -->
<g id="Node000012" class="node">
<title>Node12</title>
<g id="a_Node000012"><a xlink:href="namespaceLGE_1_1FSOps.html#a8d90a8bd4f3c45deff002d5c191bf872" target="_top" xlink:title=" ">
<polygon fill="white" stroke="#666666" points="615.25,-870 513,-870 513,-850 615.25,-850 615.25,-870"/>
<text xml:space="preserve" text-anchor="middle" x="564.12" y="-856.5" font-family="Helvetica,sans-Serif" font-size="10.00">LGE::FSOps::Move</text>
</a>
</g>
</g>
<!-- Node6&#45;&gt;Node12 -->
<g id="edge11_Node000006_Node000012" class="edge">
<title>Node6&#45;&gt;Node12</title>
<g id="a_edge11_Node000006_Node000012"><a xlink:title=" ">
<path fill="none" stroke="#63b8ff" d="M696.59,-788.98C679.53,-805.68 654.85,-827.33 629.5,-841 623.24,-844.37 616.31,-847.22 609.39,-849.59"/>
<polygon fill="#63b8ff" stroke="#63b8ff" points="698.67,-791.85 703.26,-782.3 693.71,-786.9 698.67,-791.85"/>
</a>
</g>
</g>
<!-- Node13 -->
<g id="Node000013" class="node">
<title>Node13</title>
<g id="a_Node000013"><a xlink:href="namespaceLGE_1_1FSOps.html#af18c06e20bfe14f2a2de43ea8bddefc1" target="_top" xlink:title=" ">
<polygon fill="white" stroke="#666666" points="626.12,-832 502.12,-832 502.12,-812 626.12,-812 626.12,-832"/>
<text xml:space="preserve" text-anchor="middle" x="564.12" y="-818.5" font-family="Helvetica,sans-Serif" font-size="10.00">LGE::FSOps::NewAsset</text>
</a>
</g>
</g>
<!-- Node6&#45;&gt;Node13 -->
<g id="edge12_Node000006_Node000013" class="edge">
<title>Node6&#45;&gt;Node13</title>
<g id="a_edge12_Node000006_Node000013"><a xlink:title=" ">
<path fill="none" stroke="#63b8ff" d="M672.78,-785.88C658.97,-791.75 643.74,-797.91 629.5,-803 621.05,-806.02 611.86,-808.94 603.14,-811.56"/>
<polygon fill="#63b8ff" stroke="#63b8ff" points="673.82,-789.24 681.62,-782.08 671.05,-782.81 673.82,-789.24"/>
</a>
</g>
</g>
<!-- Node14 -->
<g id="Node000014" class="node">
<title>Node14</title>
<g id="a_Node000014"><a xlink:href="namespaceLGE_1_1FSOps.html#af7986867af7965c5a24f0751897ccb06" target="_top" xlink:title=" ">
<polygon fill="white" stroke="#666666" points="623.12,-908 505.12,-908 505.12,-888 623.12,-888 623.12,-908"/>
<text xml:space="preserve" text-anchor="middle" x="564.12" y="-894.5" font-family="Helvetica,sans-Serif" font-size="10.00">LGE::FSOps::Reimport</text>
</a>
</g>
</g>
<!-- Node6&#45;&gt;Node14 -->
<g id="edge13_Node000006_Node000014" class="edge">
<title>Node6&#45;&gt;Node14</title>
<g id="a_edge13_Node000006_Node000014"><a xlink:title=" ">
<path fill="none" stroke="#63b8ff" d="M705.27,-791.13C689.93,-817.11 663.07,-856.28 629.5,-879 624.48,-882.4 618.85,-885.2 613.05,-887.5"/>
<polygon fill="#63b8ff" stroke="#63b8ff" points="708.26,-792.95 710.18,-782.53 702.18,-789.47 708.26,-792.95"/>
</a>
</g>
</g>
<!-- Node16 -->
<g id="Node000016" class="node">
<title>Node16</title>
<g id="a_Node000016"><a xlink:href="namespaceLGE_1_1FSOps.html#a73a5f7725534ee44eab8e17badf96f9f" target="_top" xlink:title=" ">
<polygon fill="white" stroke="#666666" points="621.62,-756 506.62,-756 506.62,-736 621.62,-736 621.62,-756"/>
<text xml:space="preserve" text-anchor="middle" x="564.12" y="-742.5" font-family="Helvetica,sans-Serif" font-size="10.00">LGE::FSOps::Rename</text>
</a>
</g>
</g>
<!-- Node6&#45;&gt;Node16 -->
<g id="edge15_Node000006_Node000016" class="edge">
<title>Node6&#45;&gt;Node16</title>
<g id="a_edge15_Node000006_Node000016"><a xlink:title=" ">
<path fill="none" stroke="#63b8ff" d="M656.74,-757.29C645.29,-755.87 633.39,-754.41 622.11,-753.02"/>
<polygon fill="#63b8ff" stroke="#63b8ff" points="656.16,-760.74 666.51,-758.49 657.01,-753.79 656.16,-760.74"/>
</a>
</g>
</g>
<!-- Node17 -->
<g id="Node000017" class="node">
<title>Node17</title>
<g id="a_Node000017"><a xlink:href="namespaceLGE_1_1Recycle.html#a07682188a7ba9ac8cc063a99019fcadf" target="_top" xlink:title=" ">
<polygon fill="white" stroke="#666666" points="623.12,-718 505.12,-718 505.12,-698 623.12,-698 623.12,-718"/>
<text xml:space="preserve" text-anchor="middle" x="564.12" y="-704.5" font-family="Helvetica,sans-Serif" font-size="10.00">LGE::Recycle::Restore</text>
</a>
</g>
</g>
<!-- Node6&#45;&gt;Node17 -->
<g id="edge16_Node000006_Node000017" class="edge">
<title>Node6&#45;&gt;Node17</title>
<g id="a_edge16_Node000006_Node000017"><a xlink:title=" ">
<path fill="none" stroke="#63b8ff" d="M672.78,-744.12C658.97,-738.25 643.74,-732.09 629.5,-727 621.05,-723.98 611.86,-721.06 603.14,-718.44"/>
<polygon fill="#63b8ff" stroke="#63b8ff" points="671.05,-747.19 681.62,-747.92 673.82,-740.76 671.05,-747.19"/>
</a>
</g>
</g>
<!-- Node7&#45;&gt;Node8 -->
<g id="edge7_Node000007_Node000008" class="edge">
<title>Node7&#45;&gt;Node8</title>
<g id="a_edge7_Node000007_Node000008"><a xlink:title=" ">
<path fill="none" stroke="#63b8ff" d="M491.78,-784C474.35,-784 456.05,-784 439.78,-784"/>
<polygon fill="#63b8ff" stroke="#63b8ff" points="491.56,-787.5 501.56,-784 491.56,-780.5 491.56,-787.5"/>
</a>
</g>
</g>
<!-- Node9 -->
<g id="Node000009" class="node">
<title>Node9</title>
<g id="a_Node000009"><a xlink:href="namespaceLGE_1_1ImportExport.html#ae8496d7d19ac15289295442d11349580" target="_top" xlink:title=" ">
<polygon fill="white" stroke="#666666" points="260,-800 156.25,-800 156.25,-768 260,-768 260,-800"/>
<text xml:space="preserve" text-anchor="start" x="164.25" y="-786.5" font-family="Helvetica,sans-Serif" font-size="10.00">LGE::ImportExport::</text>
<text xml:space="preserve" text-anchor="middle" x="208.12" y="-774.5" font-family="Helvetica,sans-Serif" font-size="10.00">ImportFiles</text>
</a>
</g>
</g>
<!-- Node8&#45;&gt;Node9 -->
<g id="edge8_Node000008_Node000009" class="edge">
<title>Node8&#45;&gt;Node9</title>
<g id="a_edge8_Node000008_Node000009"><a xlink:title=" ">
<path fill="none" stroke="#63b8ff" d="M323.96,-784C303.14,-784 280.21,-784 260.35,-784"/>
<polygon fill="#63b8ff" stroke="#63b8ff" points="323.77,-787.5 333.77,-784 323.77,-780.5 323.77,-787.5"/>
</a>
</g>
</g>
<!-- Node10 -->
<g id="Node000010" class="node">
<title>Node10</title>
<g id="a_Node000010"><a xlink:href="namespaceLGE_1_1ImportExport.html#a8220fcef46f5c3ab8c10c64fd5860668" target="_top" xlink:title=" ">
<polygon fill="white" stroke="#666666" points="103.75,-800 0,-800 0,-768 103.75,-768 103.75,-800"/>
<text xml:space="preserve" text-anchor="start" x="8" y="-786.5" font-family="Helvetica,sans-Serif" font-size="10.00">LGE::ImportExport::</text>
<text xml:space="preserve" text-anchor="middle" x="51.88" y="-774.5" font-family="Helvetica,sans-Serif" font-size="10.00">ImportDirectory</text>
</a>
</g>
</g>
<!-- Node9&#45;&gt;Node10 -->
<g id="edge9_Node000009_Node000010" class="edge">
<title>Node9&#45;&gt;Node10</title>
<g id="a_edge9_Node000009_Node000010"><a xlink:title=" ">
<path fill="none" stroke="#63b8ff" d="M144.61,-784C131.12,-784 117.01,-784 104.01,-784"/>
<polygon fill="#63b8ff" stroke="#63b8ff" points="144.25,-787.5 154.25,-784 144.25,-780.5 144.25,-787.5"/>
</a>
</g>
</g>
<!-- Node15 -->
<g id="Node000015" class="node">
<title>Node15</title>
<g id="a_Node000015"><a xlink:href="namespaceLGE_1_1ImportExport.html#aa73ba2a6e02f5350668e8a28ecea64c2" target="_top" xlink:title=" ">
<polygon fill="white" stroke="#666666" points="439.5,-914 335.75,-914 335.75,-882 439.5,-882 439.5,-914"/>
<text xml:space="preserve" text-anchor="start" x="343.75" y="-900.5" font-family="Helvetica,sans-Serif" font-size="10.00">LGE::ImportExport::</text>
<text xml:space="preserve" text-anchor="middle" x="387.62" y="-888.5" font-family="Helvetica,sans-Serif" font-size="10.00">ReimportAsset</text>
</a>
</g>
</g>
<!-- Node14&#45;&gt;Node15 -->
<g id="edge14_Node000014_Node000015" class="edge">
<title>Node14&#45;&gt;Node15</title>
<g id="a_edge14_Node000014_Node000015"><a xlink:title=" ">
<path fill="none" stroke="#63b8ff" d="M493.68,-898C475.67,-898 456.61,-898 439.74,-898"/>
<polygon fill="#63b8ff" stroke="#63b8ff" points="493.51,-901.5 503.51,-898 493.51,-894.5 493.51,-901.5"/>
</a>
</g>
</g>
<!-- Node18&#45;&gt;Node2 -->
<g id="edge27_Node000018_Node000002" class="edge">
<title>Node18&#45;&gt;Node2</title>
<g id="a_edge27_Node000018_Node000002"><a xlink:title=" ">
<path fill="none" stroke="#63b8ff" d="M547.66,-413.88C533,-439.49 511.4,-480.22 498.75,-518 471.33,-599.92 519.44,-643.82 462.75,-709 457.05,-715.56 449.56,-720.4 441.54,-723.97"/>
<polygon fill="#63b8ff" stroke="#63b8ff" points="550.52,-415.92 552.52,-405.51 544.47,-412.4 550.52,-415.92"/>
</a>
</g>
</g>
<!-- Node19 -->
<g id="Node000019" class="node">
<title>Node19</title>
<g id="a_Node000019"><a xlink:href="BenchmarkFS_8cpp.html#ab029f67ffb106edc6d219aadc7aee238" target="_top" xlink:title=" ">
<polygon fill="white" stroke="#666666" points="441.38,-322 333.88,-322 333.88,-290 441.38,-290 441.38,-322"/>
<text xml:space="preserve" text-anchor="start" x="341.88" y="-308.5" font-family="Helvetica,sans-Serif" font-size="10.00">Benchmark_Registry</text>
<text xml:space="preserve" text-anchor="middle" x="387.62" y="-296.5" font-family="Helvetica,sans-Serif" font-size="10.00">_Scan_Large</text>
</a>
</g>
</g>
<!-- Node18&#45;&gt;Node19 -->
<g id="edge18_Node000018_Node000019" class="edge">
<title>Node18&#45;&gt;Node19</title>
<g id="a_edge18_Node000018_Node000019"><a xlink:title=" ">
<path fill="none" stroke="#63b8ff" d="M527.78,-365.73C508.93,-354.42 485.08,-340.99 462.75,-331 455.93,-327.95 448.62,-325.05 441.35,-322.39"/>
<polygon fill="#63b8ff" stroke="#63b8ff" points="525.77,-368.6 536.13,-370.8 529.4,-362.61 525.77,-368.6"/>
</a>
</g>
</g>
<!-- Node20 -->
<g id="Node000020" class="node">
<title>Node20</title>
<g id="a_Node000020"><a xlink:href="BenchmarkFS_8cpp.html#ab9a728100bf27df8671c37d3a29bbea1" target="_top" xlink:title=" ">
<polygon fill="white" stroke="#666666" points="441.38,-272 333.88,-272 333.88,-240 441.38,-240 441.38,-272"/>
<text xml:space="preserve" text-anchor="start" x="341.88" y="-258.5" font-family="Helvetica,sans-Serif" font-size="10.00">Benchmark_Registry</text>
<text xml:space="preserve" text-anchor="middle" x="387.62" y="-246.5" font-family="Helvetica,sans-Serif" font-size="10.00">_Scan_Medium</text>
</a>
</g>
</g>
<!-- Node18&#45;&gt;Node20 -->
<g id="edge19_Node000018_Node000020" class="edge">
<title>Node18&#45;&gt;Node20</title>
<g id="a_edge19_Node000018_Node000020"><a xlink:title=" ">
<path fill="none" stroke="#63b8ff" d="M545.21,-362.62C526.98,-338.51 496.65,-302.79 462.75,-281 456.24,-276.81 448.95,-273.25 441.56,-270.25"/>
<polygon fill="#63b8ff" stroke="#63b8ff" points="542.38,-364.68 551.14,-370.65 548.01,-360.52 542.38,-364.68"/>
</a>
</g>
</g>
<!-- Node21 -->
<g id="Node000021" class="node">
<title>Node21</title>
<g id="a_Node000021"><a xlink:href="BenchmarkFS_8cpp.html#aa44cb85b0759f1cfddf700acff100f97" target="_top" xlink:title=" ">
<polygon fill="white" stroke="#666666" points="441.38,-700 333.88,-700 333.88,-668 441.38,-668 441.38,-700"/>
<text xml:space="preserve" text-anchor="start" x="341.88" y="-686.5" font-family="Helvetica,sans-Serif" font-size="10.00">Benchmark_Registry</text>
<text xml:space="preserve" text-anchor="middle" x="387.62" y="-674.5" font-family="Helvetica,sans-Serif" font-size="10.00">_Scan_Small</text>
</a>
</g>
</g>
<!-- Node18&#45;&gt;Node21 -->
<g id="edge21_Node000018_Node000021" class="edge">
<title>Node18&#45;&gt;Node21</title>
<g id="a_edge21_Node000018_Node000021"><a xlink:title=" ">
<path fill="none" stroke="#63b8ff" d="M548.18,-414.06C533.91,-439.81 512.59,-480.64 498.75,-518 476.28,-578.65 506.73,-611.58 462.75,-659 456.93,-665.27 449.49,-669.97 441.57,-673.49"/>
<polygon fill="#63b8ff" stroke="#63b8ff" points="551.06,-416.08 552.9,-405.65 544.95,-412.66 551.06,-416.08"/>
</a>
</g>
</g>
<!-- Node22 -->
<g id="Node000022" class="node">
<title>Node22</title>
<g id="a_Node000022"><a xlink:href="BenchmarkFS_8cpp.html#a3442e7b685b914cc8075873db73300d8" target="_top" xlink:title=" ">
<polygon fill="white" stroke="#666666" points="441.38,-650 333.88,-650 333.88,-618 441.38,-618 441.38,-650"/>
<text xml:space="preserve" text-anchor="start" x="341.88" y="-636.5" font-family="Helvetica,sans-Serif" font-size="10.00">Benchmark_Registry</text>
<text xml:space="preserve" text-anchor="middle" x="387.62" y="-624.5" font-family="Helvetica,sans-Serif" font-size="10.00">_Search_Fuzzy</text>
</a>
</g>
</g>
<!-- Node18&#45;&gt;Node22 -->
<g id="edge23_Node000018_Node000022" class="edge">
<title>Node18&#45;&gt;Node22</title>
<g id="a_edge23_Node000018_Node000022"><a xlink:title=" ">
<path fill="none" stroke="#63b8ff" d="M549.25,-414.4C535.74,-440.45 514.95,-481.55 498.75,-518 481.08,-557.75 494.29,-579.05 462.75,-609 456.74,-614.71 449.39,-619.11 441.67,-622.51"/>
<polygon fill="#63b8ff" stroke="#63b8ff" points="552.34,-416.04 553.85,-405.55 546.13,-412.8 552.34,-416.04"/>
</a>
</g>
</g>
<!-- Node23 -->
<g id="Node000023" class="node">
<title>Node23</title>
<g id="a_Node000023"><a xlink:href="BenchmarkFS_8cpp.html#a6e215b65128db1abca9661a02a708fe7" target="_top" xlink:title=" ">
<polygon fill="white" stroke="#666666" points="441.38,-600 333.88,-600 333.88,-568 441.38,-568 441.38,-600"/>
<text xml:space="preserve" text-anchor="start" x="341.88" y="-586.5" font-family="Helvetica,sans-Serif" font-size="10.00">Benchmark_Registry</text>
<text xml:space="preserve" text-anchor="middle" x="387.62" y="-574.5" font-family="Helvetica,sans-Serif" font-size="10.00">_Search_GUID</text>
</a>
</g>
</g>
<!-- Node18&#45;&gt;Node23 -->
<g id="edge25_Node000018_Node000023" class="edge">
<title>Node18&#45;&gt;Node23</title>
<g id="a_edge25_Node000018_Node000023"><a xlink:title=" ">
<path fill="none" stroke="#63b8ff" d="M550.38,-414.64C529.45,-457.44 487.63,-538.77 462.75,-559 456.53,-564.05 449.24,-568.11 441.71,-571.35"/>
<polygon fill="#63b8ff" stroke="#63b8ff" points="553.47,-416.29 554.69,-405.76 547.17,-413.23 553.47,-416.29"/>
</a>
</g>
</g>
<!-- Node24 -->
<g id="Node000024" class="node">
<title>Node24</title>
<g id="a_Node000024"><a xlink:href="classExampleApp.html#a535c41a1b822be3f2c6fd96e3f80f4b7" target="_top" xlink:title=" ">
<polygon fill="white" stroke="#666666" points="462.75,-222 312.5,-222 312.5,-190 462.75,-190 462.75,-222"/>
<text xml:space="preserve" text-anchor="start" x="320.5" y="-208.5" font-family="Helvetica,sans-Serif" font-size="10.00">ExampleApp::CompleteProject</text>
<text xml:space="preserve" text-anchor="middle" x="387.62" y="-196.5" font-family="Helvetica,sans-Serif" font-size="10.00">Loading</text>
</a>
</g>
</g>
<!-- Node18&#45;&gt;Node24 -->
<g id="edge28_Node000018_Node000024" class="edge">
<title>Node18&#45;&gt;Node24</title>
<g id="a_edge28_Node000018_Node000024"><a xlink:title=" ">
<path fill="none" stroke="#63b8ff" d="M552.75,-361.3C537.9,-326.47 507.36,-265.88 462.75,-231 458.58,-227.74 453.96,-224.89 449.12,-222.4"/>
<polygon fill="#63b8ff" stroke="#63b8ff" points="549.39,-362.33 556.44,-370.24 555.86,-359.66 549.39,-362.33"/>
</a>
</g>
</g>
<!-- Node26 -->
<g id="Node000026" class="node">
<title>Node26</title>
<g id="a_Node000026"><a xlink:href="TestDependencies_8cpp.html#a27d08683b47752be5bf0771792fe84e1" target="_top" xlink:title=" ">
<polygon fill="white" stroke="#666666" points="408.38,-172 366.88,-172 366.88,-152 408.38,-152 408.38,-172"/>
<text xml:space="preserve" text-anchor="middle" x="387.62" y="-158.5" font-family="Helvetica,sans-Serif" font-size="10.00">TEST</text>
</a>
</g>
</g>
<!-- Node18&#45;&gt;Node26 -->
<g id="edge30_Node000018_Node000026" class="edge">
<title>Node18&#45;&gt;Node26</title>
<g id="a_edge30_Node000018_Node000026"><a xlink:title=" ">
<path fill="none" stroke="#63b8ff" d="M557.61,-360.54C547.18,-315.93 520.26,-227.99 462.75,-181 447.42,-168.47 424.83,-164.09 408.62,-162.62"/>
<polygon fill="#63b8ff" stroke="#63b8ff" points="554.16,-361.17 559.74,-370.18 561,-359.66 554.16,-361.17"/>
</a>
</g>
</g>
<!-- Node27 -->
<g id="Node000027" class="node">
<title>Node27</title>
<g id="a_Node000027"><a xlink:href="TestDependencies_8cpp.html#a73f01e5c160074ed2ad795bd2b1ac7a2" target="_top" xlink:title=" ">
<polygon fill="white" stroke="#666666" points="408.38,-134 366.88,-134 366.88,-114 408.38,-114 408.38,-134"/>
<text xml:space="preserve" text-anchor="middle" x="387.62" y="-120.5" font-family="Helvetica,sans-Serif" font-size="10.00">TEST</text>
</a>
</g>
</g>
<!-- Node18&#45;&gt;Node27 -->
<g id="edge31_Node000018_Node000027" class="edge">
<title>Node18&#45;&gt;Node27</title>
<g id="a_edge31_Node000018_Node000027"><a xlink:title=" ">
<path fill="none" stroke="#63b8ff" d="M559.89,-360.34C552.42,-309.44 529.2,-200.87 462.75,-143 447.82,-130 425.16,-125.7 408.82,-124.37"/>
<polygon fill="#63b8ff" stroke="#63b8ff" points="556.41,-360.76 561.22,-370.2 563.35,-359.82 556.41,-360.76"/>
</a>
</g>
</g>
<!-- Node28 -->
<g id="Node000028" class="node">
<title>Node28</title>
<g id="a_Node000028"><a xlink:href="TestDependencies_8cpp.html#ac7d0213aa008a4537d2b739ca96728af" target="_top" xlink:title=" ">
<polygon fill="white" stroke="#666666" points="408.38,-96 366.88,-96 366.88,-76 408.38,-76 408.38,-96"/>
<text xml:space="preserve" text-anchor="middle" x="387.62" y="-82.5" font-family="Helvetica,sans-Serif" font-size="10.00">TEST</text>
</a>
</g>
</g>
<!-- Node18&#45;&gt;Node28 -->
<g id="edge32_Node000018_Node000028" class="edge">
<title>Node18&#45;&gt;Node28</title>
<g id="a_edge32_Node000018_Node000028"><a xlink:title=" ">
<path fill="none" stroke="#63b8ff" d="M561.64,-360.51C557.05,-303.96 538.4,-174.13 462.75,-105 448.04,-91.56 425.12,-87.34 408.66,-86.16"/>
<polygon fill="#63b8ff" stroke="#63b8ff" points="558.13,-360.48 562.33,-370.21 565.11,-359.99 558.13,-360.48"/>
</a>
</g>
</g>
<!-- Node29 -->
<g id="Node000029" class="node">
<title>Node29</title>
<g id="a_Node000029"><a xlink:href="TestDependencies_8cpp.html#a3eed8aa25f31b84b211af1815819d59e" target="_top" xlink:title=" ">
<polygon fill="white" stroke="#666666" points="408.38,-58 366.88,-58 366.88,-38 408.38,-38 408.38,-58"/>
<text xml:space="preserve" text-anchor="middle" x="387.62" y="-44.5" font-family="Helvetica,sans-Serif" font-size="10.00">TEST</text>
</a>
</g>
</g>
<!-- Node18&#45;&gt;Node29 -->
<g id="edge33_Node000018_Node000029" class="edge">
<title>Node18&#45;&gt;Node29</title>
<g id="a_edge33_Node000018_Node000029"><a xlink:title=" ">
<path fill="none" stroke="#63b8ff" d="M558.14,-360.87C544.81,-291.17 506.39,-108.42 462.75,-67 448.3,-53.28 425.33,-49.12 408.79,-48.02"/>
<polygon fill="#63b8ff" stroke="#63b8ff" points="554.63,-361.11 559.92,-370.29 561.5,-359.81 554.63,-361.11"/>
</a>
</g>
</g>
<!-- Node30 -->
<g id="Node000030" class="node">
<title>Node30</title>
<g id="a_Node000030"><a xlink:href="TestDependencies_8cpp.html#ad6e5e8e9ab7331c10f47c0adead790ec" target="_top" xlink:title=" ">
<polygon fill="white" stroke="#666666" points="408.38,-20 366.88,-20 366.88,0 408.38,0 408.38,-20"/>
<text xml:space="preserve" text-anchor="middle" x="387.62" y="-6.5" font-family="Helvetica,sans-Serif" font-size="10.00">TEST</text>
</a>
</g>
</g>
<!-- Node18&#45;&gt;Node30 -->
<g id="edge34_Node000018_Node000030" class="edge">
<title>Node18&#45;&gt;Node30</title>
<g id="a_edge34_Node000018_Node000030"><a xlink:title=" ">
<path fill="none" stroke="#63b8ff" d="M556.29,-360.72C535.72,-278.99 475,-40.99 462.75,-29 448.41,-14.97 425.2,-10.88 408.57,-9.89"/>
<polygon fill="#63b8ff" stroke="#63b8ff" points="552.88,-361.5 558.71,-370.35 559.67,-359.79 552.88,-361.5"/>
</a>
</g>
</g>
<!-- Node31 -->
<g id="Node000031" class="node">
<title>Node31</title>
<g id="a_Node000031"><a xlink:href="TestSearch_8cpp.html#aec262fa1aeb82f0a2ec9fca22e3d2374" target="_top" xlink:title=" ">
<polygon fill="white" stroke="#666666" points="408.38,-550 366.88,-550 366.88,-530 408.38,-530 408.38,-550"/>
<text xml:space="preserve" text-anchor="middle" x="387.62" y="-536.5" font-family="Helvetica,sans-Serif" font-size="10.00">TEST</text>
</a>
</g>
</g>
<!-- Node18&#45;&gt;Node31 -->
<g id="edge35_Node000018_Node000031" class="edge">
<title>Node18&#45;&gt;Node31</title>
<g id="a_edge35_Node000018_Node000031"><a xlink:title=" ">
<path fill="none" stroke="#63b8ff" d="M550.34,-414.22C534.17,-444.58 503.45,-493.89 462.75,-521 446.5,-531.83 424.47,-536.48 408.66,-538.49"/>
<polygon fill="#63b8ff" stroke="#63b8ff" points="553.27,-416.17 554.75,-405.68 547.05,-412.96 553.27,-416.17"/>
</a>
</g>
</g>
<!-- Node32 -->
<g id="Node000032" class="node">
<title>Node32</title>
<g id="a_Node000032"><a xlink:href="TestSearch_8cpp.html#a33500ac4fe5ec5aabbfb97635e04b1a5" target="_top" xlink:title=" ">
<polygon fill="white" stroke="#666666" points="408.38,-512 366.88,-512 366.88,-492 408.38,-492 408.38,-512"/>
<text xml:space="preserve" text-anchor="middle" x="387.62" y="-498.5" font-family="Helvetica,sans-Serif" font-size="10.00">TEST</text>
</a>
</g>
</g>
<!-- Node18&#45;&gt;Node32 -->
<g id="edge36_Node000018_Node000032" class="edge">
<title>Node18&#45;&gt;Node32</title>
<g id="a_edge36_Node000018_Node000032"><a xlink:title=" ">
<path fill="none" stroke="#63b8ff" d="M543.11,-413.09C524.51,-434.74 494.91,-465.24 462.75,-483 445.89,-492.31 424.35,-497.17 408.84,-499.63"/>
<polygon fill="#63b8ff" stroke="#63b8ff" points="545.66,-415.49 549.41,-405.58 540.3,-410.99 545.66,-415.49"/>
</a>
</g>
</g>
<!-- Node33 -->
<g id="Node000033" class="node">
<title>Node33</title>
<g id="a_Node000033"><a xlink:href="TestSearch_8cpp.html#ad770bade109d5488d8747315303c5509" target="_top" xlink:title=" ">
<polygon fill="white" stroke="#666666" points="408.38,-474 366.88,-474 366.88,-454 408.38,-454 408.38,-474"/>
<text xml:space="preserve" text-anchor="middle" x="387.62" y="-460.5" font-family="Helvetica,sans-Serif" font-size="10.00">TEST</text>
</a>
</g>
</g>
<!-- Node18&#45;&gt;Node33 -->
<g id="edge37_Node000018_Node000033" class="edge">
<title>Node18&#45;&gt;Node33</title>
<g id="a_edge37_Node000018_Node000033"><a xlink:title=" ">
<path fill="none" stroke="#63b8ff" d="M528.85,-410.48C509.97,-422.09 485.75,-435.72 462.75,-445 445.01,-452.16 423.77,-457.28 408.59,-460.38"/>
<polygon fill="#63b8ff" stroke="#63b8ff" points="530.58,-413.53 537.2,-405.26 526.86,-407.6 530.58,-413.53"/>
</a>
</g>
</g>
<!-- Node34 -->
<g id="Node000034" class="node">
<title>Node34</title>
<g id="a_Node000034"><a xlink:href="TestSearch_8cpp.html#a13cb3cdd7534423f0d92329cf16ceaf7" target="_top" xlink:title=" ">
<polygon fill="white" stroke="#666666" points="408.38,-436 366.88,-436 366.88,-416 408.38,-416 408.38,-436"/>
<text xml:space="preserve" text-anchor="middle" x="387.62" y="-422.5" font-family="Helvetica,sans-Serif" font-size="10.00">TEST</text>
</a>
</g>
</g>
<!-- Node18&#45;&gt;Node34 -->
<g id="edge38_Node000018_Node000034" class="edge">
<title>Node18&#45;&gt;Node34</title>
<g id="a_edge38_Node000018_Node000034"><a xlink:title=" ">
<path fill="none" stroke="#63b8ff" d="M500.96,-401.54C468.53,-408.6 431.05,-416.76 408.63,-421.64"/>
<polygon fill="#63b8ff" stroke="#63b8ff" points="501.68,-404.96 510.7,-399.42 500.19,-398.12 501.68,-404.96"/>
</a>
</g>
</g>
<!-- Node35 -->
<g id="Node000035" class="node">
<title>Node35</title>
<g id="a_Node000035"><a xlink:href="TestSearch_8cpp.html#a726a0578ed58faaeb0201d967dbce4be" target="_top" xlink:title=" ">
<polygon fill="white" stroke="#666666" points="408.38,-398 366.88,-398 366.88,-378 408.38,-378 408.38,-398"/>
<text xml:space="preserve" text-anchor="middle" x="387.62" y="-384.5" font-family="Helvetica,sans-Serif" font-size="10.00">TEST</text>
</a>
</g>
</g>
<!-- Node18&#45;&gt;Node35 -->
<g id="edge39_Node000018_Node000035" class="edge">
<title>Node18&#45;&gt;Node35</title>
<g id="a_edge39_Node000018_Node000035"><a xlink:title=" ">
<path fill="none" stroke="#63b8ff" d="M500.96,-388C468.53,-388 431.05,-388 408.63,-388"/>
<polygon fill="#63b8ff" stroke="#63b8ff" points="500.67,-391.5 510.67,-388 500.67,-384.5 500.67,-391.5"/>
</a>
</g>
</g>
<!-- Node36 -->
<g id="Node000036" class="node">
<title>Node36</title>
<g id="a_Node000036"><a xlink:href="TestSearch_8cpp.html#a7120a1bbfb46623c11b708a8ab750d82" target="_top" xlink:title=" ">
<polygon fill="white" stroke="#666666" points="408.38,-360 366.88,-360 366.88,-340 408.38,-340 408.38,-360"/>
<text xml:space="preserve" text-anchor="middle" x="387.62" y="-346.5" font-family="Helvetica,sans-Serif" font-size="10.00">TEST</text>
</a>
</g>
</g>
<!-- Node18&#45;&gt;Node36 -->
<g id="edge40_Node000018_Node000036" class="edge">
<title>Node18&#45;&gt;Node36</title>
<g id="a_edge40_Node000018_Node000036"><a xlink:title=" ">
<path fill="none" stroke="#63b8ff" d="M500.96,-374.46C468.53,-367.4 431.05,-359.24 408.63,-354.36"/>
<polygon fill="#63b8ff" stroke="#63b8ff" points="500.19,-377.88 510.7,-376.58 501.68,-371.04 500.19,-377.88"/>
</a>
</g>
</g>
<!-- Node20&#45;&gt;Node3 -->
<g id="edge20_Node000020_Node000003" class="edge">
<title>Node20&#45;&gt;Node3</title>
<g id="a_edge20_Node000020_Node000003"><a xlink:title=" ">
<path fill="none" stroke="#63b8ff" d="M323.6,-272.09C319.54,-274.63 315.78,-277.58 312.5,-281 213.42,-384.17 208.58,-577.06 208.92,-623.67"/>
<polygon fill="#63b8ff" stroke="#63b8ff" points="324.95,-275.33 332.15,-267.56 321.67,-269.15 324.95,-275.33"/>
</a>
</g>
</g>
<!-- Node21&#45;&gt;Node3 -->
<g id="edge22_Node000021_Node000003" class="edge">
<title>Node21&#45;&gt;Node3</title>
<g id="a_edge22_Node000021_Node000003"><a xlink:title=" ">
<path fill="none" stroke="#63b8ff" d="M323.03,-666.09C297.27,-658.83 268.43,-650.71 246.22,-644.45"/>
<polygon fill="#63b8ff" stroke="#63b8ff" points="321.82,-669.38 332.39,-668.72 323.72,-662.64 321.82,-669.38"/>
</a>
</g>
</g>
<!-- Node22&#45;&gt;Node3 -->
<g id="edge24_Node000022_Node000003" class="edge">
<title>Node22&#45;&gt;Node3</title>
<g id="a_edge24_Node000022_Node000003"><a xlink:title=" ">
<path fill="none" stroke="#63b8ff" d="M322.69,-634C307.8,-634 291.9,-634 276.85,-634"/>
<polygon fill="#63b8ff" stroke="#63b8ff" points="322.34,-637.5 332.34,-634 322.34,-630.5 322.34,-637.5"/>
</a>
</g>
</g>
<!-- Node23&#45;&gt;Node3 -->
<g id="edge26_Node000023_Node000003" class="edge">
<title>Node23&#45;&gt;Node3</title>
<g id="a_edge26_Node000023_Node000003"><a xlink:title=" ">
<path fill="none" stroke="#63b8ff" d="M323.03,-601.91C297.27,-609.17 268.43,-617.29 246.22,-623.55"/>
<polygon fill="#63b8ff" stroke="#63b8ff" points="323.72,-605.36 332.39,-599.28 321.82,-598.62 323.72,-605.36"/>
</a>
</g>
</g>
<!-- Node25 -->
<g id="Node000025" class="node">
<title>Node25</title>
<g id="a_Node000025"><a xlink:href="classExampleApp.html#a51a63c4107ac16f6c82cda225b2dccea" target="_top" xlink:title=" ">
<polygon fill="white" stroke="#666666" points="269,-216 147.25,-216 147.25,-196 269,-196 269,-216"/>
<text xml:space="preserve" text-anchor="middle" x="208.12" y="-202.5" font-family="Helvetica,sans-Serif" font-size="10.00">ExampleApp::OnRender</text>
</a>
</g>
</g>
<!-- Node24&#45;&gt;Node25 -->
<g id="edge29_Node000024_Node000025" class="edge">
<title>Node24&#45;&gt;Node25</title>
<g id="a_edge29_Node000024_Node000025"><a xlink:title=" ">
<path fill="none" stroke="#63b8ff" d="M300.7,-206C290.13,-206 279.51,-206 269.44,-206"/>
<polygon fill="#63b8ff" stroke="#63b8ff" points="300.61,-209.5 310.61,-206 300.61,-202.5 300.61,-209.5"/>
</a>
</g>
</g>
<!-- Node38&#45;&gt;Node30 -->
<g id="edge52_Node000038_Node000030" class="edge">
<title>Node38&#45;&gt;Node30</title>
<g id="a_edge52_Node000038_Node000030"><a xlink:title=" ">
<path fill="none" stroke="#63b8ff" d="M824.34,-92.37C808.31,-88.88 791.18,-85.22 775.25,-82 635.39,-53.68 466.2,-23.61 408.79,-13.53"/>
<polygon fill="#63b8ff" stroke="#63b8ff" points="823.24,-95.71 833.76,-94.44 824.74,-88.88 823.24,-95.71"/>
</a>
</g>
</g>
<!-- Node39 -->
<g id="Node000039" class="node">
<title>Node39</title>
<g id="a_Node000039"><a xlink:href="namespaceLGE_1_1Dependencies.html#abb2932854a8edbd61c21b2b3c846396f" target="_top" xlink:title=" ">
<polygon fill="white" stroke="#666666" points="775.25,-123 665.5,-123 665.5,-91 775.25,-91 775.25,-123"/>
<text xml:space="preserve" text-anchor="start" x="673.5" y="-109.5" font-family="Helvetica,sans-Serif" font-size="10.00">LGE::Dependencies::</text>
<text xml:space="preserve" text-anchor="middle" x="720.38" y="-97.5" font-family="Helvetica,sans-Serif" font-size="10.00">RebuildGraph</text>
</a>
</g>
</g>
<!-- Node38&#45;&gt;Node39 -->
<g id="edge44_Node000038_Node000039" class="edge">
<title>Node38&#45;&gt;Node39</title>
<g id="a_edge44_Node000038_Node000039"><a xlink:title=" ">
<path fill="none" stroke="#63b8ff" d="M823.95,-107C807.98,-107 791.07,-107 775.68,-107"/>
<polygon fill="#63b8ff" stroke="#63b8ff" points="823.87,-110.5 833.87,-107 823.87,-103.5 823.87,-110.5"/>
</a>
</g>
</g>
<!-- Node40 -->
<g id="Node000040" class="node">
<title>Node40</title>
<g id="a_Node000040"><a xlink:href="namespaceLGE_1_1Dependencies.html#a507f7e03e282ce1ac7c9326017bccae8" target="_top" xlink:title=" ">
<polygon fill="white" stroke="#666666" points="619,-123 509.25,-123 509.25,-91 619,-91 619,-123"/>
<text xml:space="preserve" text-anchor="start" x="517.25" y="-109.5" font-family="Helvetica,sans-Serif" font-size="10.00">LGE::Dependencies::</text>
<text xml:space="preserve" text-anchor="middle" x="564.12" y="-97.5" font-family="Helvetica,sans-Serif" font-size="10.00">Initialize</text>
</a>
</g>
</g>
<!-- Node39&#45;&gt;Node40 -->
<g id="edge45_Node000039_Node000040" class="edge">
<title>Node39&#45;&gt;Node40</title>
<g id="a_edge45_Node000039_Node000040"><a xlink:title=" ">
<path fill="none" stroke="#63b8ff" d="M654.02,-107C642.45,-107 630.52,-107 619.3,-107"/>
<polygon fill="#63b8ff" stroke="#63b8ff" points="653.91,-110.5 663.91,-107 653.91,-103.5 653.91,-110.5"/>
</a>
</g>
</g>
<!-- Node40&#45;&gt;Node24 -->
<g id="edge46_Node000040_Node000024" class="edge">
<title>Node40&#45;&gt;Node24</title>
<g id="a_edge46_Node000040_Node000024"><a xlink:title=" ">
<path fill="none" stroke="#63b8ff" d="M536.11,-130.53C516.73,-146.48 489.44,-167.1 462.75,-181 456.73,-184.14 450.23,-187 443.67,-189.58"/>
<polygon fill="#63b8ff" stroke="#63b8ff" points="538.1,-133.43 543.53,-124.33 533.61,-128.06 538.1,-133.43"/>
</a>
</g>
</g>
<!-- Node40&#45;&gt;Node26 -->
<g id="edge47_Node000040_Node000026" class="edge">
<title>Node40&#45;&gt;Node26</title>
<g id="a_edge47_Node000040_Node000026"><a xlink:title=" ">
<path fill="none" stroke="#63b8ff" d="M509.31,-127.35C494.33,-132.72 477.99,-138.33 462.75,-143 444.59,-148.57 423.59,-153.85 408.59,-157.42"/>
<polygon fill="#63b8ff" stroke="#63b8ff" points="510.32,-130.7 518.52,-124 507.93,-124.12 510.32,-130.7"/>
</a>
</g>
</g>
<!-- Node40&#45;&gt;Node27 -->
<g id="edge48_Node000040_Node000027" class="edge">
<title>Node40&#45;&gt;Node27</title>
<g id="a_edge48_Node000040_Node000027"><a xlink:title=" ">
<path fill="none" stroke="#63b8ff" d="M497.46,-113.4C465.9,-116.47 430.33,-119.94 408.7,-122.04"/>
<polygon fill="#63b8ff" stroke="#63b8ff" points="497.75,-116.89 507.36,-112.43 497.07,-109.92 497.75,-116.89"/>
</a>
</g>
</g>
<!-- Node40&#45;&gt;Node28 -->
<g id="edge49_Node000040_Node000028" class="edge">
<title>Node40&#45;&gt;Node28</title>
<g id="a_edge49_Node000040_Node000028"><a xlink:title=" ">
<path fill="none" stroke="#63b8ff" d="M497.46,-99.1C465.9,-95.3 430.33,-91.02 408.7,-88.42"/>
<polygon fill="#63b8ff" stroke="#63b8ff" points="497.02,-102.57 507.37,-100.29 497.86,-95.62 497.02,-102.57"/>
</a>
</g>
</g>
<!-- Node40&#45;&gt;Node29 -->
<g id="edge50_Node000040_Node000029" class="edge">
<title>Node40&#45;&gt;Node29</title>
<g id="a_edge50_Node000040_Node000029"><a xlink:title=" ">
<path fill="none" stroke="#63b8ff" d="M514.98,-86.36C498.57,-79.72 480.01,-72.63 462.75,-67 444.69,-61.11 423.68,-55.87 408.64,-52.4"/>
<polygon fill="#63b8ff" stroke="#63b8ff" points="513.43,-89.51 524.01,-90.07 516.09,-83.03 513.43,-89.51"/>
</a>
</g>
</g>
<!-- Node40&#45;&gt;Node30 -->
<g id="edge51_Node000040_Node000030" class="edge">
<title>Node40&#45;&gt;Node30</title>
<g id="a_edge51_Node000040_Node000030"><a xlink:title=" ">
<path fill="none" stroke="#63b8ff" d="M538.06,-82.74C518.87,-65.42 490.98,-42.84 462.75,-29 445.45,-20.52 423.97,-15.55 408.59,-12.84"/>
<polygon fill="#63b8ff" stroke="#63b8ff" points="535.65,-85.28 545.37,-89.49 540.4,-80.14 535.65,-85.28"/>
</a>
</g>
</g>
</g>
</svg>
