<?xml version="1.0" encoding="UTF-8" standalone="no"?>
<!DOCTYPE svg PUBLIC "-//W3C//DTD SVG 1.1//EN"
 "http://www.w3.org/Graphics/SVG/1.1/DTD/svg11.dtd">
<!-- Generated by graphviz version 14.0.2 (20251019.1705)
 -->
<!-- Title: LGE::Policies::CheckCyclicSymlink Pages: 1 -->
<svg width="425pt" height="53pt"
 viewBox="0.00 0.00 425.00 53.00" xmlns="http://www.w3.org/2000/svg" xmlns:xlink="http://www.w3.org/1999/xlink">
<g id="graph0" class="graph" transform="scale(1 1) rotate(0) translate(4 49)">
<title>LGE::Policies::CheckCyclicSymlink</title>
<!-- Node1 -->
<g id="Node000001" class="node">
<title>Node1</title>
<g id="a_Node000001"><a xlink:title=" ">
<polygon fill="#999999" stroke="#666666" points="138.25,-45 0,-45 0,-13 138.25,-13 138.25,-45"/>
<text xml:space="preserve" text-anchor="start" x="8" y="-31.5" font-family="Helvetica,sans-Serif" font-size="10.00">LGE::Policies::CheckCyclic</text>
<text xml:space="preserve" text-anchor="middle" x="69.12" y="-19.5" font-family="Helvetica,sans-Serif" font-size="10.00">Symlink</text>
</a>
</g>
</g>
<!-- Node2 -->
<g id="Node000002" class="node">
<title>Node2</title>
<g id="a_Node000002"><a xlink:href="classLGE_1_1Log.html#a53f3f4b8797ffd18145739c9e66d690a" target="_top" xlink:title=" ">
<polygon fill="white" stroke="#666666" points="417,-39 332.75,-39 332.75,-19 417,-19 417,-39"/>
<text xml:space="preserve" text-anchor="middle" x="374.88" y="-25.5" font-family="Helvetica,sans-Serif" font-size="10.00">LGE::Log::Error</text>
</a>
</g>
</g>
<!-- Node1&#45;&gt;Node2 -->
<g id="edge1_Node000001_Node000002" class="edge">
<title>Node1&#45;&gt;Node2</title>
<g id="a_edge1_Node000001_Node000002"><a xlink:title=" ">
<path fill="none" stroke="#63b8ff" d="M138.67,-29C194.03,-29 270.77,-29 321.34,-29"/>
<polygon fill="#63b8ff" stroke="#63b8ff" points="321.15,-32.5 331.15,-29 321.15,-25.5 321.15,-32.5"/>
</a>
</g>
</g>
<!-- Node3 -->
<g id="Node000003" class="node">
<title>Node3</title>
<g id="a_Node000003"><a xlink:href="namespaceLGE_1_1LxPath.html#a314a60ce690c90f4ee0b4e64c0199408" target="_top" xlink:title=" ">
<polygon fill="white" stroke="#666666" points="296.75,-20 174.25,-20 174.25,0 296.75,0 296.75,-20"/>
<text xml:space="preserve" text-anchor="middle" x="235.5" y="-6.5" font-family="Helvetica,sans-Serif" font-size="10.00">LGE::LxPath::Normalize</text>
</a>
</g>
</g>
<!-- Node1&#45;&gt;Node3 -->
<g id="edge2_Node000001_Node000003" class="edge">
<title>Node1&#45;&gt;Node3</title>
<g id="a_edge2_Node000001_Node000003"><a xlink:title=" ">
<path fill="none" stroke="#63b8ff" d="M138.41,-21.11C146.38,-20.19 154.53,-19.24 162.56,-18.32"/>
<polygon fill="#63b8ff" stroke="#63b8ff" points="162.74,-21.82 172.27,-17.19 161.94,-14.86 162.74,-21.82"/>
</a>
</g>
</g>
<!-- Node3&#45;&gt;Node2 -->
<g id="edge3_Node000003_Node000002" class="edge">
<title>Node3&#45;&gt;Node2</title>
<g id="a_edge3_Node000003_Node000002"><a xlink:title=" ">
<path fill="none" stroke="#63b8ff" d="M297.15,-18.39C305.17,-19.5 313.34,-20.63 321.2,-21.72"/>
<polygon fill="#63b8ff" stroke="#63b8ff" points="320.58,-25.16 330.97,-23.07 321.54,-18.23 320.58,-25.16"/>
</a>
</g>
</g>
</g>
</svg>
