<?xml version="1.0" encoding="UTF-8" standalone="no"?>
<!DOCTYPE svg PUBLIC "-//W3C//DTD SVG 1.1//EN"
 "http://www.w3.org/Graphics/SVG/1.1/DTD/svg11.dtd">
<!-- Generated by graphviz version 14.0.2 (20251019.1705)
 -->
<!-- Title: LGE::Versioning::RestoreVersion Pages: 1 -->
<svg width="904pt" height="282pt"
 viewBox="0.00 0.00 904.00 282.00" xmlns="http://www.w3.org/2000/svg" xmlns:xlink="http://www.w3.org/1999/xlink">
<g id="graph0" class="graph" transform="scale(1 1) rotate(0) translate(4 278.2)">
<title>LGE::Versioning::RestoreVersion</title>
<!-- Node1 -->
<g id="Node000001" class="node">
<title>Node1</title>
<g id="a_Node000001"><a xlink:title=" ">
<polygon fill="#999999" stroke="#666666" points="127,-130 0,-130 0,-98 127,-98 127,-130"/>
<text xml:space="preserve" text-anchor="start" x="8" y="-116.5" font-family="Helvetica,sans-Serif" font-size="10.00">LGE::Versioning::Restore</text>
<text xml:space="preserve" text-anchor="middle" x="63.5" y="-104.5" font-family="Helvetica,sans-Serif" font-size="10.00">Version</text>
</a>
</g>
</g>
<!-- Node2 -->
<g id="Node000002" class="node">
<title>Node2</title>
<g id="a_Node000002"><a xlink:href="namespaceLGE_1_1LxFile.html#ab62abe452536badcfc9ab15647d6df2b" target="_top" xlink:title=" ">
<polygon fill="white" stroke="#666666" points="281.38,-241 184.38,-241 184.38,-221 281.38,-221 281.38,-241"/>
<text xml:space="preserve" text-anchor="middle" x="232.88" y="-227.5" font-family="Helvetica,sans-Serif" font-size="10.00">LGE::LxFile::Copy</text>
</a>
</g>
</g>
<!-- Node1&#45;&gt;Node2 -->
<g id="edge1_Node000001_Node000002" class="edge">
<title>Node1&#45;&gt;Node2</title>
<g id="a_edge1_Node000001_Node000002"><a xlink:title=" ">
<path fill="none" stroke="#63b8ff" d="M85.25,-130.41C104.93,-145.78 135.48,-169.13 163,-188 176.48,-197.25 191.89,-206.94 204.7,-214.78"/>
<polygon fill="#63b8ff" stroke="#63b8ff" points="202.68,-217.65 213.05,-219.84 206.31,-211.66 202.68,-217.65"/>
</a>
</g>
</g>
<!-- Node3 -->
<g id="Node000003" class="node">
<title>Node3</title>
<g id="a_Node000003"><a xlink:href="classLGE_1_1Log.html#a53f3f4b8797ffd18145739c9e66d690a" target="_top" xlink:title=" ">
<polygon fill="white" stroke="#666666" points="896.25,-241 812,-241 812,-221 896.25,-221 896.25,-241"/>
<text xml:space="preserve" text-anchor="middle" x="854.12" y="-227.5" font-family="Helvetica,sans-Serif" font-size="10.00">LGE::Log::Error</text>
</a>
</g>
</g>
<!-- Node1&#45;&gt;Node3 -->
<g id="edge8_Node000001_Node000003" class="edge">
<title>Node1&#45;&gt;Node3</title>
<g id="a_edge8_Node000001_Node000003"><a xlink:title=" ">
<path fill="none" stroke="#63b8ff" d="M96.47,-130.31C115.33,-139.17 139.96,-149.42 163,-155 264.46,-179.58 292.73,-174 397.12,-174 397.12,-174 397.12,-174 556.5,-174 647.94,-174 752.44,-200.45 809.78,-217.31"/>
<polygon fill="#63b8ff" stroke="#63b8ff" points="808.56,-220.6 819.15,-220.11 810.57,-213.89 808.56,-220.6"/>
</a>
</g>
</g>
<!-- Node7 -->
<g id="Node000007" class="node">
<title>Node7</title>
<g id="a_Node000007"><a xlink:href="namespaceLGE_1_1LxFile.html#a11e62876b312a11b881b484bb3a5ee71" target="_top" xlink:title=" ">
<polygon fill="white" stroke="#666666" points="283.62,-146 182.12,-146 182.12,-126 283.62,-126 283.62,-146"/>
<text xml:space="preserve" text-anchor="middle" x="232.88" y="-132.5" font-family="Helvetica,sans-Serif" font-size="10.00">LGE::LxFile::Exists</text>
</a>
</g>
</g>
<!-- Node1&#45;&gt;Node7 -->
<g id="edge9_Node000001_Node000007" class="edge">
<title>Node1&#45;&gt;Node7</title>
<g id="a_edge9_Node000001_Node000007"><a xlink:title=" ">
<path fill="none" stroke="#63b8ff" d="M127.3,-122.25C141.5,-124.12 156.56,-126.1 170.69,-127.96"/>
<polygon fill="#63b8ff" stroke="#63b8ff" points="169.92,-131.39 180.29,-129.22 170.83,-124.45 169.92,-131.39"/>
</a>
</g>
</g>
<!-- Node8 -->
<g id="Node000008" class="node">
<title>Node8</title>
<g id="a_Node000008"><a xlink:href="namespaceLGE_1_1AssetRegistry.html#a9e672f9e3c8c62076b9156d1695e48b8" target="_top" xlink:title=" ">
<polygon fill="white" stroke="#666666" points="284.75,-108 181,-108 181,-76 284.75,-76 284.75,-108"/>
<text xml:space="preserve" text-anchor="start" x="189" y="-94.5" font-family="Helvetica,sans-Serif" font-size="10.00">LGE::AssetRegistry</text>
<text xml:space="preserve" text-anchor="middle" x="232.88" y="-82.5" font-family="Helvetica,sans-Serif" font-size="10.00">::FindByGUID</text>
</a>
</g>
</g>
<!-- Node1&#45;&gt;Node8 -->
<g id="edge10_Node000001_Node000008" class="edge">
<title>Node1&#45;&gt;Node8</title>
<g id="a_edge10_Node000001_Node000008"><a xlink:title=" ">
<path fill="none" stroke="#63b8ff" d="M127.3,-105.75C141.07,-103.94 155.64,-102.02 169.4,-100.21"/>
<polygon fill="#63b8ff" stroke="#63b8ff" points="169.77,-103.69 179.23,-98.92 168.86,-96.75 169.77,-103.69"/>
</a>
</g>
</g>
<!-- Node9 -->
<g id="Node000009" class="node">
<title>Node9</title>
<g id="a_Node000009"><a xlink:href="namespaceLGE_1_1Versioning.html#a5911708ac1014650bae2a5d64a4be527" target="_top" xlink:title=" ">
<polygon fill="white" stroke="#666666" points="302.75,-58 163,-58 163,-38 302.75,-38 302.75,-58"/>
<text xml:space="preserve" text-anchor="middle" x="232.88" y="-44.5" font-family="Helvetica,sans-Serif" font-size="10.00">LGE::Versioning::GetHistory</text>
</a>
</g>
</g>
<!-- Node1&#45;&gt;Node9 -->
<g id="edge11_Node000001_Node000009" class="edge">
<title>Node1&#45;&gt;Node9</title>
<g id="a_edge11_Node000001_Node000009"><a xlink:title=" ">
<path fill="none" stroke="#63b8ff" d="M95.39,-97.53C114.5,-87.78 139.75,-75.68 163,-67 167.97,-65.15 173.2,-63.38 178.46,-61.73"/>
<polygon fill="#63b8ff" stroke="#63b8ff" points="179.22,-65.15 187.8,-58.93 177.21,-58.45 179.22,-65.15"/>
</a>
</g>
</g>
<!-- Node10 -->
<g id="Node000010" class="node">
<title>Node10</title>
<g id="a_Node000010"><a xlink:href="classLGE_1_1Log.html#ab0265ee050b8873a2fd31fbdb696ced0" target="_top" xlink:title=" ">
<polygon fill="white" stroke="#666666" points="272.75,-20 193,-20 193,0 272.75,0 272.75,-20"/>
<text xml:space="preserve" text-anchor="middle" x="232.88" y="-6.5" font-family="Helvetica,sans-Serif" font-size="10.00">LGE::Log::Info</text>
</a>
</g>
</g>
<!-- Node1&#45;&gt;Node10 -->
<g id="edge12_Node000001_Node000010" class="edge">
<title>Node1&#45;&gt;Node10</title>
<g id="a_edge12_Node000001_Node000010"><a xlink:title=" ">
<path fill="none" stroke="#63b8ff" d="M78.91,-97.79C96.81,-78.64 129.13,-47.09 163,-29 168.89,-25.86 175.34,-23.19 181.87,-20.95"/>
<polygon fill="#63b8ff" stroke="#63b8ff" points="182.86,-24.31 191.38,-18.01 180.79,-17.62 182.86,-24.31"/>
</a>
</g>
</g>
<!-- Node2&#45;&gt;Node3 -->
<g id="edge2_Node000002_Node000003" class="edge">
<title>Node2&#45;&gt;Node3</title>
<g id="a_edge2_Node000002_Node000003"><a xlink:title=" ">
<path fill="none" stroke="#63b8ff" d="M281.81,-240.28C299.65,-243.57 320.09,-247.17 338.75,-250 530.88,-279.17 584.82,-284.87 776,-250 785.07,-248.35 794.65,-246.26 803.87,-244.08"/>
<polygon fill="#63b8ff" stroke="#63b8ff" points="804.52,-247.53 813.41,-241.76 802.86,-240.73 804.52,-247.53"/>
</a>
</g>
</g>
<!-- Node4 -->
<g id="Node000004" class="node">
<title>Node4</title>
<g id="a_Node000004"><a xlink:href="namespaceLGE_1_1VFS.html#abb5d35abfe80efe2f7a07394ad5b706a" target="_top" xlink:title=" ">
<polygon fill="white" stroke="#666666" points="457.5,-241 338.75,-241 338.75,-221 457.5,-221 457.5,-241"/>
<text xml:space="preserve" text-anchor="middle" x="398.12" y="-227.5" font-family="Helvetica,sans-Serif" font-size="10.00">LGE::VFS::IsReadOnly</text>
</a>
</g>
</g>
<!-- Node2&#45;&gt;Node4 -->
<g id="edge3_Node000002_Node000004" class="edge">
<title>Node2&#45;&gt;Node4</title>
<g id="a_edge3_Node000002_Node000004"><a xlink:title=" ">
<path fill="none" stroke="#63b8ff" d="M281.53,-231C295.85,-231 311.85,-231 327.29,-231"/>
<polygon fill="#63b8ff" stroke="#63b8ff" points="326.88,-234.5 336.88,-231 326.88,-227.5 326.88,-234.5"/>
</a>
</g>
</g>
<!-- Node5 -->
<g id="Node000005" class="node">
<title>Node5</title>
<g id="a_Node000005"><a xlink:href="namespaceLGE_1_1LxPath.html#ab664986e94ce09aa029f9eb2fcf50133" target="_top" xlink:title=" ">
<polygon fill="white" stroke="#666666" points="617.5,-260 493.5,-260 493.5,-240 617.5,-240 617.5,-260"/>
<text xml:space="preserve" text-anchor="middle" x="555.5" y="-246.5" font-family="Helvetica,sans-Serif" font-size="10.00">LGE::LxPath::IsSubPath</text>
</a>
</g>
</g>
<!-- Node4&#45;&gt;Node5 -->
<g id="edge4_Node000004_Node000005" class="edge">
<title>Node4&#45;&gt;Node5</title>
<g id="a_edge4_Node000004_Node000005"><a xlink:title=" ">
<path fill="none" stroke="#63b8ff" d="M457.87,-238.18C465.69,-239.14 473.79,-240.13 481.82,-241.11"/>
<polygon fill="#63b8ff" stroke="#63b8ff" points="481.23,-244.57 491.59,-242.31 482.08,-237.62 481.23,-244.57"/>
</a>
</g>
</g>
<!-- Node6 -->
<g id="Node000006" class="node">
<title>Node6</title>
<g id="a_Node000006"><a xlink:href="namespaceLGE_1_1LxPath.html#a314a60ce690c90f4ee0b4e64c0199408" target="_top" xlink:title=" ">
<polygon fill="white" stroke="#666666" points="776,-241 653.5,-241 653.5,-221 776,-221 776,-241"/>
<text xml:space="preserve" text-anchor="middle" x="714.75" y="-227.5" font-family="Helvetica,sans-Serif" font-size="10.00">LGE::LxPath::Normalize</text>
</a>
</g>
</g>
<!-- Node4&#45;&gt;Node6 -->
<g id="edge7_Node000004_Node000006" class="edge">
<title>Node4&#45;&gt;Node6</title>
<g id="a_edge7_Node000004_Node000006"><a xlink:title=" ">
<path fill="none" stroke="#63b8ff" d="M457.93,-231C510.02,-231 586.2,-231 641.88,-231"/>
<polygon fill="#63b8ff" stroke="#63b8ff" points="641.57,-234.5 651.57,-231 641.57,-227.5 641.57,-234.5"/>
</a>
</g>
</g>
<!-- Node5&#45;&gt;Node6 -->
<g id="edge5_Node000005_Node000006" class="edge">
<title>Node5&#45;&gt;Node6</title>
<g id="a_edge5_Node000005_Node000006"><a xlink:title=" ">
<path fill="none" stroke="#63b8ff" d="M617.75,-242.6C625.66,-241.64 633.82,-240.66 641.88,-239.68"/>
<polygon fill="#63b8ff" stroke="#63b8ff" points="642.18,-243.17 651.68,-238.5 641.34,-236.22 642.18,-243.17"/>
</a>
</g>
</g>
<!-- Node6&#45;&gt;Node3 -->
<g id="edge6_Node000006_Node000003" class="edge">
<title>Node6&#45;&gt;Node3</title>
<g id="a_edge6_Node000006_Node000003"><a xlink:title=" ">
<path fill="none" stroke="#63b8ff" d="M776.4,-231C784.42,-231 792.59,-231 800.45,-231"/>
<polygon fill="#63b8ff" stroke="#63b8ff" points="800.2,-234.5 810.2,-231 800.2,-227.5 800.2,-234.5"/>
</a>
</g>
</g>
</g>
</svg>
