<?xml version="1.0" encoding="UTF-8" standalone="no"?>
<!DOCTYPE svg PUBLIC "-//W3C//DTD SVG 1.1//EN"
 "http://www.w3.org/Graphics/SVG/1.1/DTD/svg11.dtd">
<!-- Generated by graphviz version 14.0.2 (20251019.1705)
 -->
<!-- Title: LGE::ImportExport::ExportAsset Pages: 1 -->
<svg width="1274pt" height="507pt"
 viewBox="0.00 0.00 1274.00 507.00" xmlns="http://www.w3.org/2000/svg" xmlns:xlink="http://www.w3.org/1999/xlink">
<g id="graph0" class="graph" transform="scale(1 1) rotate(0) translate(4 503.36)">
<title>LGE::ImportExport::ExportAsset</title>
<!-- Node1 -->
<g id="Node000001" class="node">
<title>Node1</title>
<g id="a_Node000001"><a xlink:title=" ">
<polygon fill="#999999" stroke="#666666" points="103.75,-303.36 0,-303.36 0,-271.36 103.75,-271.36 103.75,-303.36"/>
<text xml:space="preserve" text-anchor="start" x="8" y="-289.86" font-family="Helvetica,sans-Serif" font-size="10.00">LGE::ImportExport::</text>
<text xml:space="preserve" text-anchor="middle" x="51.88" y="-277.86" font-family="Helvetica,sans-Serif" font-size="10.00">ExportAsset</text>
</a>
</g>
</g>
<!-- Node2 -->
<g id="Node000002" class="node">
<title>Node2</title>
<g id="a_Node000002"><a xlink:href="namespaceLGE_1_1LxFile.html#ab62abe452536badcfc9ab15647d6df2b" target="_top" xlink:title=" ">
<polygon fill="white" stroke="#666666" points="638.88,-31.36 541.88,-31.36 541.88,-11.36 638.88,-11.36 638.88,-31.36"/>
<text xml:space="preserve" text-anchor="middle" x="590.38" y="-17.86" font-family="Helvetica,sans-Serif" font-size="10.00">LGE::LxFile::Copy</text>
</a>
</g>
</g>
<!-- Node1&#45;&gt;Node2 -->
<g id="edge1_Node000001_Node000002" class="edge">
<title>Node1&#45;&gt;Node2</title>
<g id="a_edge1_Node000001_Node000002"><a xlink:title=" ">
<path fill="none" stroke="#63b8ff" d="M59.98,-271.03C72.35,-244.43 100.37,-191.77 139.75,-162.36 259.97,-72.58 438.71,-39.07 530.41,-27.28"/>
<polygon fill="#63b8ff" stroke="#63b8ff" points="530.7,-30.78 540.19,-26.07 529.84,-23.83 530.7,-30.78"/>
</a>
</g>
</g>
<!-- Node7 -->
<g id="Node000007" class="node">
<title>Node7</title>
<g id="a_Node000007"><a xlink:href="namespaceLGE_1_1LxFile.html#a11e62876b312a11b881b484bb3a5ee71" target="_top" xlink:title=" ">
<polygon fill="white" stroke="#666666" points="443.25,-449.36 341.75,-449.36 341.75,-429.36 443.25,-429.36 443.25,-449.36"/>
<text xml:space="preserve" text-anchor="middle" x="392.5" y="-435.86" font-family="Helvetica,sans-Serif" font-size="10.00">LGE::LxFile::Exists</text>
</a>
</g>
</g>
<!-- Node1&#45;&gt;Node7 -->
<g id="edge8_Node000001_Node000007" class="edge">
<title>Node1&#45;&gt;Node7</title>
<g id="a_edge8_Node000001_Node000007"><a xlink:title=" ">
<path fill="none" stroke="#63b8ff" d="M61.05,-303.47C74.15,-327.49 102.24,-372.24 139.75,-394.36 198.18,-428.82 276.54,-438.17 330.23,-440.12"/>
<polygon fill="#63b8ff" stroke="#63b8ff" points="330.02,-443.61 340.12,-440.39 330.22,-436.62 330.02,-443.61"/>
</a>
</g>
</g>
<!-- Node8 -->
<g id="Node000008" class="node">
<title>Node8</title>
<g id="a_Node000008"><a xlink:href="namespaceLGE_1_1AssetRegistry.html#a9e672f9e3c8c62076b9156d1695e48b8" target="_top" xlink:title=" ">
<polygon fill="white" stroke="#666666" points="260,-385.36 156.25,-385.36 156.25,-353.36 260,-353.36 260,-385.36"/>
<text xml:space="preserve" text-anchor="start" x="164.25" y="-371.86" font-family="Helvetica,sans-Serif" font-size="10.00">LGE::AssetRegistry</text>
<text xml:space="preserve" text-anchor="middle" x="208.12" y="-359.86" font-family="Helvetica,sans-Serif" font-size="10.00">::FindByGUID</text>
</a>
</g>
</g>
<!-- Node1&#45;&gt;Node8 -->
<g id="edge9_Node000001_Node000008" class="edge">
<title>Node1&#45;&gt;Node8</title>
<g id="a_edge9_Node000001_Node000008"><a xlink:title=" ">
<path fill="none" stroke="#63b8ff" d="M74.9,-303.81C91.98,-316.07 116.57,-332.64 139.75,-344.36 142.47,-345.74 145.29,-347.08 148.16,-348.38"/>
<polygon fill="#63b8ff" stroke="#63b8ff" points="146.75,-351.58 157.32,-352.31 149.51,-345.15 146.75,-351.58"/>
</a>
</g>
</g>
<!-- Node9 -->
<g id="Node000009" class="node">
<title>Node9</title>
<g id="a_Node000009"><a xlink:href="classLGE_1_1ExporterRegistry.html#a23f61658469ecc64b4fd7c638c2a330c" target="_top" xlink:title=" ">
<polygon fill="white" stroke="#666666" points="276.5,-335.36 139.75,-335.36 139.75,-315.36 276.5,-315.36 276.5,-335.36"/>
<text xml:space="preserve" text-anchor="middle" x="208.12" y="-321.86" font-family="Helvetica,sans-Serif" font-size="10.00">LGE::ExporterRegistry::Get</text>
</a>
</g>
</g>
<!-- Node1&#45;&gt;Node9 -->
<g id="edge10_Node000001_Node000009" class="edge">
<title>Node1&#45;&gt;Node9</title>
<g id="a_edge10_Node000001_Node000009"><a xlink:title=" ">
<path fill="none" stroke="#63b8ff" d="M104.24,-300.01C120.19,-303.94 137.8,-308.28 153.88,-312.24"/>
<polygon fill="#63b8ff" stroke="#63b8ff" points="152.7,-315.56 163.25,-314.55 154.38,-308.76 152.7,-315.56"/>
</a>
</g>
</g>
<!-- Node10 -->
<g id="Node000010" class="node">
<title>Node10</title>
<g id="a_Node000010"><a xlink:href="classLGE_1_1ExporterRegistry.html#afebfc7dc6cbc135a46cc8e4d543074e6" target="_top" xlink:title=" ">
<polygon fill="white" stroke="#666666" points="265.62,-492.36 150.62,-492.36 150.62,-460.36 265.62,-460.36 265.62,-492.36"/>
<text xml:space="preserve" text-anchor="start" x="158.62" y="-478.86" font-family="Helvetica,sans-Serif" font-size="10.00">LGE::ExporterRegistry</text>
<text xml:space="preserve" text-anchor="middle" x="208.12" y="-466.86" font-family="Helvetica,sans-Serif" font-size="10.00">::GetExporterForAsset</text>
</a>
</g>
</g>
<!-- Node1&#45;&gt;Node10 -->
<g id="edge11_Node000001_Node000010" class="edge">
<title>Node1&#45;&gt;Node10</title>
<g id="a_edge11_Node000001_Node000010"><a xlink:title=" ">
<path fill="none" stroke="#63b8ff" d="M59.44,-303.44C71.79,-332.19 100.75,-393.12 139.75,-433.36 147.2,-441.04 156.27,-448 165.31,-453.97"/>
<polygon fill="#63b8ff" stroke="#63b8ff" points="163.42,-456.91 173.76,-459.24 167.13,-450.98 163.42,-456.91"/>
</a>
</g>
</g>
<!-- Node12 -->
<g id="Node000012" class="node">
<title>Node12</title>
<g id="a_Node000012"><a xlink:href="namespaceLGE_1_1LxFile.html#a40751ea42c228d8e2c6f6b0788e24aa7" target="_top" xlink:title=" ">
<polygon fill="white" stroke="#666666" points="270.5,-259.36 145.75,-259.36 145.75,-239.36 270.5,-239.36 270.5,-259.36"/>
<text xml:space="preserve" text-anchor="middle" x="208.12" y="-245.86" font-family="Helvetica,sans-Serif" font-size="10.00">LGE::LxFile::GetFileSize</text>
</a>
</g>
</g>
<!-- Node1&#45;&gt;Node12 -->
<g id="edge13_Node000001_Node000012" class="edge">
<title>Node1&#45;&gt;Node12</title>
<g id="a_edge13_Node000001_Node000012"><a xlink:title=" ">
<path fill="none" stroke="#63b8ff" d="M104.24,-274.7C120.19,-270.78 137.8,-266.44 153.88,-262.48"/>
<polygon fill="#63b8ff" stroke="#63b8ff" points="154.38,-265.96 163.25,-260.17 152.7,-259.16 154.38,-265.96"/>
</a>
</g>
</g>
<!-- Node13 -->
<g id="Node000013" class="node">
<title>Node13</title>
<g id="a_Node000013"><a xlink:href="classLGE_1_1Log.html#ab0265ee050b8873a2fd31fbdb696ced0" target="_top" xlink:title=" ">
<polygon fill="white" stroke="#666666" points="630.25,-107.36 550.5,-107.36 550.5,-87.36 630.25,-87.36 630.25,-107.36"/>
<text xml:space="preserve" text-anchor="middle" x="590.38" y="-93.86" font-family="Helvetica,sans-Serif" font-size="10.00">LGE::Log::Info</text>
</a>
</g>
</g>
<!-- Node1&#45;&gt;Node13 -->
<g id="edge14_Node000001_Node000013" class="edge">
<title>Node1&#45;&gt;Node13</title>
<g id="a_edge14_Node000001_Node000013"><a xlink:title=" ">
<path fill="none" stroke="#63b8ff" d="M75.46,-271.04C92.63,-259.01 117.08,-242.67 139.75,-230.36 213.46,-190.32 232.59,-179.85 312.5,-154.36 389.92,-129.66 483.03,-113.07 539.14,-104.42"/>
<polygon fill="#63b8ff" stroke="#63b8ff" points="539.33,-107.94 548.69,-102.98 538.28,-101.01 539.33,-107.94"/>
</a>
</g>
</g>
<!-- Node14 -->
<g id="Node000014" class="node">
<title>Node14</title>
<g id="a_Node000014"><a xlink:href="namespaceLGE_1_1MetaDB.html#a9f494f7c23ef0715fa5881a46b93c940" target="_top" xlink:title=" ">
<polygon fill="white" stroke="#666666" points="260.38,-297.36 155.88,-297.36 155.88,-277.36 260.38,-277.36 260.38,-297.36"/>
<text xml:space="preserve" text-anchor="middle" x="208.12" y="-283.86" font-family="Helvetica,sans-Serif" font-size="10.00">LGE::MetaDB::Load</text>
</a>
</g>
</g>
<!-- Node1&#45;&gt;Node14 -->
<g id="edge15_Node000001_Node000014" class="edge">
<title>Node1&#45;&gt;Node14</title>
<g id="a_edge15_Node000001_Node000014"><a xlink:title=" ">
<path fill="none" stroke="#63b8ff" d="M104.24,-287.36C116.98,-287.36 130.78,-287.36 144.02,-287.36"/>
<polygon fill="#63b8ff" stroke="#63b8ff" points="143.95,-290.86 153.95,-287.36 143.95,-283.86 143.95,-290.86"/>
</a>
</g>
</g>
<!-- Node24 -->
<g id="Node000024" class="node">
<title>Node24</title>
<g id="a_Node000024"><a xlink:href="namespaceLGE.html#a756324f7bbe6e8b9c4b0fb212254d1d3" target="_top" xlink:title=" ">
<polygon fill="white" stroke="#666666" points="270.12,-69.36 146.12,-69.36 146.12,-49.36 270.12,-49.36 270.12,-69.36"/>
<text xml:space="preserve" text-anchor="middle" x="208.12" y="-55.86" font-family="Helvetica,sans-Serif" font-size="10.00">LGE::StringToAssetType</text>
</a>
</g>
</g>
<!-- Node1&#45;&gt;Node24 -->
<g id="edge37_Node000001_Node000024" class="edge">
<title>Node1&#45;&gt;Node24</title>
<g id="a_edge37_Node000001_Node000024"><a xlink:title=" ">
<path fill="none" stroke="#63b8ff" d="M55.28,-271.07C61.77,-232.86 83.13,-136.66 139.75,-83.36 143.21,-80.1 147.14,-77.28 151.32,-74.84"/>
<polygon fill="#63b8ff" stroke="#63b8ff" points="152.68,-78.08 160.08,-70.49 149.57,-71.81 152.68,-78.08"/>
</a>
</g>
</g>
<!-- Node3 -->
<g id="Node000003" class="node">
<title>Node3</title>
<g id="a_Node000003"><a xlink:href="classLGE_1_1Log.html#a53f3f4b8797ffd18145739c9e66d690a" target="_top" xlink:title=" ">
<polygon fill="white" stroke="#666666" points="1265.75,-183.36 1181.5,-183.36 1181.5,-163.36 1265.75,-163.36 1265.75,-183.36"/>
<text xml:space="preserve" text-anchor="middle" x="1223.62" y="-169.86" font-family="Helvetica,sans-Serif" font-size="10.00">LGE::Log::Error</text>
</a>
</g>
</g>
<!-- Node2&#45;&gt;Node3 -->
<g id="edge2_Node000002_Node000003" class="edge">
<title>Node2&#45;&gt;Node3</title>
<g id="a_edge2_Node000002_Node000003"><a xlink:title=" ">
<path fill="none" stroke="#63b8ff" d="M639.25,-13.04C741.22,2.04 983.68,23.57 1145.5,-78.36 1175.18,-97.05 1198.66,-131.15 1211.59,-153"/>
<polygon fill="#63b8ff" stroke="#63b8ff" points="1208.48,-154.62 1216.47,-161.58 1214.56,-151.16 1208.48,-154.62"/>
</a>
</g>
</g>
<!-- Node4 -->
<g id="Node000004" class="node">
<title>Node4</title>
<g id="a_Node000004"><a xlink:href="namespaceLGE_1_1VFS.html#abb5d35abfe80efe2f7a07394ad5b706a" target="_top" xlink:title=" ">
<polygon fill="white" stroke="#666666" points="827,-88.36 708.25,-88.36 708.25,-68.36 827,-68.36 827,-88.36"/>
<text xml:space="preserve" text-anchor="middle" x="767.62" y="-74.86" font-family="Helvetica,sans-Serif" font-size="10.00">LGE::VFS::IsReadOnly</text>
</a>
</g>
</g>
<!-- Node2&#45;&gt;Node4 -->
<g id="edge3_Node000002_Node000004" class="edge">
<title>Node2&#45;&gt;Node4</title>
<g id="a_edge3_Node000002_Node000004"><a xlink:title=" ">
<path fill="none" stroke="#63b8ff" d="M639.17,-31.32C650.13,-33.95 661.66,-37 672.25,-40.36 692.89,-46.9 715.4,-55.88 733.25,-63.48"/>
<polygon fill="#63b8ff" stroke="#63b8ff" points="731.76,-66.64 742.32,-67.39 734.53,-60.21 731.76,-66.64"/>
</a>
</g>
</g>
<!-- Node5 -->
<g id="Node000005" class="node">
<title>Node5</title>
<g id="a_Node000005"><a xlink:href="namespaceLGE_1_1LxPath.html#ab664986e94ce09aa029f9eb2fcf50133" target="_top" xlink:title=" ">
<polygon fill="white" stroke="#666666" points="987,-69.36 863,-69.36 863,-49.36 987,-49.36 987,-69.36"/>
<text xml:space="preserve" text-anchor="middle" x="925" y="-55.86" font-family="Helvetica,sans-Serif" font-size="10.00">LGE::LxPath::IsSubPath</text>
</a>
</g>
</g>
<!-- Node4&#45;&gt;Node5 -->
<g id="edge4_Node000004_Node000005" class="edge">
<title>Node4&#45;&gt;Node5</title>
<g id="a_edge4_Node000004_Node000005"><a xlink:title=" ">
<path fill="none" stroke="#63b8ff" d="M827.37,-71.17C835.19,-70.22 843.29,-69.23 851.32,-68.25"/>
<polygon fill="#63b8ff" stroke="#63b8ff" points="851.58,-71.74 861.09,-67.05 850.73,-64.79 851.58,-71.74"/>
</a>
</g>
</g>
<!-- Node6 -->
<g id="Node000006" class="node">
<title>Node6</title>
<g id="a_Node000006"><a xlink:href="namespaceLGE_1_1LxPath.html#a314a60ce690c90f4ee0b4e64c0199408" target="_top" xlink:title=" ">
<polygon fill="white" stroke="#666666" points="1145.5,-107.36 1023,-107.36 1023,-87.36 1145.5,-87.36 1145.5,-107.36"/>
<text xml:space="preserve" text-anchor="middle" x="1084.25" y="-93.86" font-family="Helvetica,sans-Serif" font-size="10.00">LGE::LxPath::Normalize</text>
</a>
</g>
</g>
<!-- Node4&#45;&gt;Node6 -->
<g id="edge7_Node000004_Node000006" class="edge">
<title>Node4&#45;&gt;Node6</title>
<g id="a_edge7_Node000004_Node000006"><a xlink:title=" ">
<path fill="none" stroke="#63b8ff" d="M827.43,-81.91C879.52,-85.05 955.7,-89.66 1011.38,-93.02"/>
<polygon fill="#63b8ff" stroke="#63b8ff" points="1010.88,-96.49 1021.07,-93.6 1011.3,-89.51 1010.88,-96.49"/>
</a>
</g>
</g>
<!-- Node5&#45;&gt;Node6 -->
<g id="edge5_Node000005_Node000006" class="edge">
<title>Node5&#45;&gt;Node6</title>
<g id="a_edge5_Node000005_Node000006"><a xlink:title=" ">
<path fill="none" stroke="#63b8ff" d="M969.39,-69.84C987.78,-74.29 1009.41,-79.51 1028.85,-84.21"/>
<polygon fill="#63b8ff" stroke="#63b8ff" points="1027.99,-87.61 1038.53,-86.55 1029.64,-80.8 1027.99,-87.61"/>
</a>
</g>
</g>
<!-- Node6&#45;&gt;Node3 -->
<g id="edge6_Node000006_Node000003" class="edge">
<title>Node6&#45;&gt;Node3</title>
<g id="a_edge6_Node000006_Node000003"><a xlink:title=" ">
<path fill="none" stroke="#63b8ff" d="M1115.24,-107.85C1125.08,-111.67 1135.94,-116.31 1145.5,-121.36 1164.83,-131.57 1185.28,-145.52 1200.26,-156.4"/>
<polygon fill="#63b8ff" stroke="#63b8ff" points="1197.91,-159.01 1208.03,-162.14 1202.06,-153.38 1197.91,-159.01"/>
</a>
</g>
</g>
<!-- Node11 -->
<g id="Node000011" class="node">
<title>Node11</title>
<g id="a_Node000011"><a xlink:href="classLGE_1_1ExporterRegistry.html#a34ccac1306410699c4b3199ea7ef3f11" target="_top" xlink:title=" ">
<polygon fill="white" stroke="#666666" points="462.75,-499.36 322.25,-499.36 322.25,-467.36 462.75,-467.36 462.75,-499.36"/>
<text xml:space="preserve" text-anchor="start" x="330.25" y="-485.86" font-family="Helvetica,sans-Serif" font-size="10.00">LGE::ExporterRegistry</text>
<text xml:space="preserve" text-anchor="middle" x="392.5" y="-473.86" font-family="Helvetica,sans-Serif" font-size="10.00">::GetExportersForAssetType</text>
</a>
</g>
</g>
<!-- Node10&#45;&gt;Node11 -->
<g id="edge12_Node000010_Node000011" class="edge">
<title>Node10&#45;&gt;Node11</title>
<g id="a_edge12_Node000010_Node000011"><a xlink:title=" ">
<path fill="none" stroke="#63b8ff" d="M265.83,-478.53C279.99,-479.08 295.46,-479.67 310.55,-480.25"/>
<polygon fill="#63b8ff" stroke="#63b8ff" points="310.35,-483.75 320.47,-480.63 310.62,-476.75 310.35,-483.75"/>
</a>
</g>
</g>
<!-- Node14&#45;&gt;Node3 -->
<g id="edge16_Node000014_Node000003" class="edge">
<title>Node14&#45;&gt;Node3</title>
<g id="a_edge16_Node000014_Node000003"><a xlink:title=" ">
<path fill="none" stroke="#63b8ff" d="M258.28,-297.84C264.64,-300.16 270.88,-302.96 276.5,-306.36 296.41,-318.39 291.46,-334.44 312.5,-344.36 424.07,-396.95 466.03,-363.36 589.38,-363.36 589.38,-363.36 589.38,-363.36 926,-363.36 1033.57,-363.36 1059.41,-325.87 1145.5,-261.36 1171.41,-241.94 1194.95,-212.6 1209.03,-193.21"/>
<polygon fill="#63b8ff" stroke="#63b8ff" points="1211.87,-195.26 1214.79,-185.07 1206.15,-191.21 1211.87,-195.26"/>
</a>
</g>
</g>
<!-- Node14&#45;&gt;Node7 -->
<g id="edge17_Node000014_Node000007" class="edge">
<title>Node14&#45;&gt;Node7</title>
<g id="a_edge17_Node000014_Node000007"><a xlink:title=" ">
<path fill="none" stroke="#63b8ff" d="M260.59,-296C266.44,-298.61 271.93,-301.99 276.5,-306.36 313.36,-341.63 275.99,-379.72 312.5,-415.36 317.88,-420.61 324.36,-424.71 331.28,-427.92"/>
<polygon fill="#63b8ff" stroke="#63b8ff" points="329.64,-431.04 340.23,-431.46 332.21,-424.53 329.64,-431.04"/>
</a>
</g>
</g>
<!-- Node15 -->
<g id="Node000015" class="node">
<title>Node15</title>
<g id="a_Node000015"><a xlink:href="namespaceLGE_1_1MetaDB.html#ac399a4083a7e189046618cbf3142dbbe" target="_top" xlink:title=" ">
<polygon fill="white" stroke="#666666" points="660.25,-221.36 520.5,-221.36 520.5,-201.36 660.25,-201.36 660.25,-221.36"/>
<text xml:space="preserve" text-anchor="middle" x="590.38" y="-207.86" font-family="Helvetica,sans-Serif" font-size="10.00">LGE::MetaDB::MetaPathFor</text>
</a>
</g>
</g>
<!-- Node14&#45;&gt;Node15 -->
<g id="edge18_Node000014_Node000015" class="edge">
<title>Node14&#45;&gt;Node15</title>
<g id="a_edge18_Node000014_Node000015"><a xlink:title=" ">
<path fill="none" stroke="#63b8ff" d="M258.28,-276.88C264.64,-274.56 270.88,-271.75 276.5,-268.36 296.41,-256.32 291.46,-240.28 312.5,-230.36 373.89,-201.42 451.55,-198.58 508.99,-201.87"/>
<polygon fill="#63b8ff" stroke="#63b8ff" points="508.47,-205.34 518.68,-202.51 508.93,-198.36 508.47,-205.34"/>
</a>
</g>
</g>
<!-- Node16 -->
<g id="Node000016" class="node">
<title>Node16</title>
<g id="a_Node000016"><a xlink:href="namespaceLGE_1_1Migration.html#a47ee5b06f8c57da1952156f69f9582b7" target="_top" xlink:title=" ">
<polygon fill="white" stroke="#666666" points="472.5,-259.36 312.5,-259.36 312.5,-239.36 472.5,-239.36 472.5,-259.36"/>
<text xml:space="preserve" text-anchor="middle" x="392.5" y="-245.86" font-family="Helvetica,sans-Serif" font-size="10.00">LGE::Migration::MigrateMetadata</text>
</a>
</g>
</g>
<!-- Node14&#45;&gt;Node16 -->
<g id="edge19_Node000014_Node000016" class="edge">
<title>Node14&#45;&gt;Node16</title>
<g id="a_edge19_Node000014_Node000016"><a xlink:title=" ">
<path fill="none" stroke="#63b8ff" d="M259.44,-276.87C281.37,-272.31 307.27,-266.91 330.3,-262.11"/>
<polygon fill="#63b8ff" stroke="#63b8ff" points="330.79,-265.58 339.86,-260.12 329.36,-258.73 330.79,-265.58"/>
</a>
</g>
</g>
<!-- Node17 -->
<g id="Node000017" class="node">
<title>Node17</title>
<g id="a_Node000017"><a xlink:href="namespaceLGE_1_1Migration.html#ae8f608f31e72e26c06b1eb0f62dedfb1" target="_top" xlink:title=" ">
<polygon fill="white" stroke="#666666" points="668.12,-335.36 512.62,-335.36 512.62,-315.36 668.12,-315.36 668.12,-335.36"/>
<text xml:space="preserve" text-anchor="middle" x="590.38" y="-321.86" font-family="Helvetica,sans-Serif" font-size="10.00">LGE::Migration::NeedsMigration</text>
</a>
</g>
</g>
<!-- Node14&#45;&gt;Node17 -->
<g id="edge24_Node000014_Node000017" class="edge">
<title>Node14&#45;&gt;Node17</title>
<g id="a_edge24_Node000014_Node000017"><a xlink:title=" ">
<path fill="none" stroke="#63b8ff" d="M260.73,-289.72C313.92,-292.47 399.19,-297.77 472.5,-306.36 487.94,-308.17 504.47,-310.57 520.08,-313.05"/>
<polygon fill="#63b8ff" stroke="#63b8ff" points="519.33,-316.47 529.76,-314.62 520.45,-309.56 519.33,-316.47"/>
</a>
</g>
</g>
<!-- Node19 -->
<g id="Node000019" class="node">
<title>Node19</title>
<g id="a_Node000019"><a xlink:href="namespaceLGE_1_1LxFile.html#ac0a61f0e1f49fdcf553f007750c1ba37" target="_top" xlink:title=" ">
<polygon fill="white" stroke="#666666" points="821.75,-411.36 713.5,-411.36 713.5,-391.36 821.75,-391.36 821.75,-411.36"/>
<text xml:space="preserve" text-anchor="middle" x="767.62" y="-397.86" font-family="Helvetica,sans-Serif" font-size="10.00">LGE::LxFile::ReadAll</text>
</a>
</g>
</g>
<!-- Node14&#45;&gt;Node19 -->
<g id="edge25_Node000014_Node000019" class="edge">
<title>Node14&#45;&gt;Node19</title>
<g id="a_edge25_Node000014_Node000019"><a xlink:title=" ">
<path fill="none" stroke="#63b8ff" d="M260.68,-296.97C266.38,-299.42 271.81,-302.5 276.5,-306.36 303.83,-328.83 282.85,-358.05 312.5,-377.36 374.96,-418.03 592.33,-411.76 702.12,-405.67"/>
<polygon fill="#63b8ff" stroke="#63b8ff" points="702.06,-409.18 711.85,-405.11 701.66,-402.19 702.06,-409.18"/>
</a>
</g>
</g>
<!-- Node20 -->
<g id="Node000020" class="node">
<title>Node20</title>
<g id="a_Node000020"><a xlink:href="namespaceLGE_1_1MetaDB.html#a93501266bbc2bb77874f90247fcc90ba" target="_top" xlink:title=" ">
<polygon fill="white" stroke="#666666" points="445.5,-183.36 339.5,-183.36 339.5,-163.36 445.5,-163.36 445.5,-183.36"/>
<text xml:space="preserve" text-anchor="middle" x="392.5" y="-169.86" font-family="Helvetica,sans-Serif" font-size="10.00">LGE::MetaDB::Save</text>
</a>
</g>
</g>
<!-- Node14&#45;&gt;Node20 -->
<g id="edge27_Node000014_Node000020" class="edge">
<title>Node14&#45;&gt;Node20</title>
<g id="a_edge27_Node000014_Node000020"><a xlink:title=" ">
<path fill="none" stroke="#63b8ff" d="M260.68,-277.75C266.38,-275.29 271.81,-272.22 276.5,-268.36 303.83,-245.89 285.4,-220.1 312.5,-197.36 317.3,-193.33 322.77,-189.97 328.54,-187.18"/>
<polygon fill="#63b8ff" stroke="#63b8ff" points="329.89,-190.41 337.77,-183.32 327.19,-183.95 329.89,-190.41"/>
</a>
</g>
</g>
<!-- Node23 -->
<g id="Node000023" class="node">
<title>Node23</title>
<g id="a_Node000023"><a xlink:href="classLGE_1_1Log.html#aa6f98018af29c23dd7f574d3df5dda5e" target="_top" xlink:title=" ">
<polygon fill="white" stroke="#666666" points="435.38,-335.36 349.62,-335.36 349.62,-315.36 435.38,-315.36 435.38,-335.36"/>
<text xml:space="preserve" text-anchor="middle" x="392.5" y="-321.86" font-family="Helvetica,sans-Serif" font-size="10.00">LGE::Log::Warn</text>
</a>
</g>
</g>
<!-- Node14&#45;&gt;Node23 -->
<g id="edge36_Node000014_Node000023" class="edge">
<title>Node14&#45;&gt;Node23</title>
<g id="a_edge36_Node000014_Node000023"><a xlink:title=" ">
<path fill="none" stroke="#63b8ff" d="M259.44,-297.84C283.95,-302.95 313.41,-309.09 338.29,-314.27"/>
<polygon fill="#63b8ff" stroke="#63b8ff" points="337.38,-317.66 347.88,-316.27 338.8,-310.8 337.38,-317.66"/>
</a>
</g>
</g>
<!-- Node16&#45;&gt;Node3 -->
<g id="edge20_Node000016_Node000003" class="edge">
<title>Node16&#45;&gt;Node3</title>
<g id="a_edge20_Node000016_Node000003"><a xlink:title=" ">
<path fill="none" stroke="#63b8ff" d="M450.68,-259.85C469.09,-262.95 489.61,-266.11 508.5,-268.36 622.72,-281.97 651.59,-287.36 766.62,-287.36 766.62,-287.36 766.62,-287.36 926,-287.36 1033.39,-287.36 1148.96,-221.45 1198.19,-189.86"/>
<polygon fill="#63b8ff" stroke="#63b8ff" points="1199.93,-192.9 1206.39,-184.5 1196.1,-187.04 1199.93,-192.9"/>
</a>
</g>
</g>
<!-- Node16&#45;&gt;Node13 -->
<g id="edge21_Node000016_Node000013" class="edge">
<title>Node16&#45;&gt;Node13</title>
<g id="a_edge21_Node000016_Node000013"><a xlink:title=" ">
<path fill="none" stroke="#63b8ff" d="M413.2,-238.96C430.64,-228.94 455.84,-212.38 472.5,-192.36 496.41,-163.63 479.43,-139.85 508.5,-116.36 517.16,-109.36 527.95,-104.86 538.8,-101.98"/>
<polygon fill="#63b8ff" stroke="#63b8ff" points="539.53,-105.4 548.56,-99.85 538.04,-98.56 539.53,-105.4"/>
</a>
</g>
</g>
<!-- Node16&#45;&gt;Node17 -->
<g id="edge22_Node000016_Node000017" class="edge">
<title>Node16&#45;&gt;Node17</title>
<g id="a_edge22_Node000016_Node000017"><a xlink:title=" ">
<path fill="none" stroke="#63b8ff" d="M438.09,-259.8C449.63,-263.33 461.81,-267.82 472.5,-273.36 490.5,-282.68 490.47,-292.09 508.5,-301.36 516.02,-305.22 524.26,-308.56 532.51,-311.42"/>
<polygon fill="#63b8ff" stroke="#63b8ff" points="531.27,-314.7 541.86,-314.44 533.42,-308.04 531.27,-314.7"/>
</a>
</g>
</g>
<!-- Node18 -->
<g id="Node000018" class="node">
<title>Node18</title>
<g id="a_Node000018"><a xlink:href="namespaceLGE_1_1MetaDB.html#ad37cdebb704d7ca276bbb10e84d94f1a" target="_top" xlink:title=" ">
<polygon fill="white" stroke="#666666" points="672.25,-259.36 508.5,-259.36 508.5,-239.36 672.25,-239.36 672.25,-259.36"/>
<text xml:space="preserve" text-anchor="middle" x="590.38" y="-245.86" font-family="Helvetica,sans-Serif" font-size="10.00">LGE::MetaDB::UpdateTimestamp</text>
</a>
</g>
</g>
<!-- Node16&#45;&gt;Node18 -->
<g id="edge23_Node000016_Node000018" class="edge">
<title>Node16&#45;&gt;Node18</title>
<g id="a_edge23_Node000016_Node000018"><a xlink:title=" ">
<path fill="none" stroke="#63b8ff" d="M472.89,-249.36C480.82,-249.36 488.91,-249.36 496.96,-249.36"/>
<polygon fill="#63b8ff" stroke="#63b8ff" points="496.77,-252.86 506.77,-249.36 496.77,-245.86 496.77,-252.86"/>
</a>
</g>
</g>
<!-- Node19&#45;&gt;Node3 -->
<g id="edge26_Node000019_Node000003" class="edge">
<title>Node19&#45;&gt;Node3</title>
<g id="a_edge26_Node000019_Node000003"><a xlink:title=" ">
<path fill="none" stroke="#63b8ff" d="M809.41,-411.83C884.15,-428.45 1044.66,-451.88 1145.5,-377.36 1204.96,-333.42 1218.58,-237.82 1221.7,-194.94"/>
<polygon fill="#63b8ff" stroke="#63b8ff" points="1225.18,-195.35 1222.27,-185.17 1218.19,-194.95 1225.18,-195.35"/>
</a>
</g>
</g>
<!-- Node20&#45;&gt;Node3 -->
<g id="edge28_Node000020_Node000003" class="edge">
<title>Node20&#45;&gt;Node3</title>
<g id="a_edge28_Node000020_Node000003"><a xlink:title=" ">
<path fill="none" stroke="#63b8ff" d="M445.72,-173.36C517.87,-173.36 652.13,-173.36 766.62,-173.36 766.62,-173.36 766.62,-173.36 926,-173.36 1011.45,-173.36 1110.75,-173.36 1170.05,-173.36"/>
<polygon fill="#63b8ff" stroke="#63b8ff" points="1169.84,-176.86 1179.84,-173.36 1169.84,-169.86 1169.84,-176.86"/>
</a>
</g>
</g>
<!-- Node20&#45;&gt;Node13 -->
<g id="edge30_Node000020_Node000013" class="edge">
<title>Node20&#45;&gt;Node13</title>
<g id="a_edge30_Node000020_Node000013"><a xlink:title=" ">
<path fill="none" stroke="#63b8ff" d="M440.05,-162.98C451.09,-159.52 462.54,-155.04 472.5,-149.36 491.35,-138.6 489.31,-126.5 508.5,-116.36 517.86,-111.41 528.51,-107.73 538.93,-105.01"/>
<polygon fill="#63b8ff" stroke="#63b8ff" points="539.66,-108.43 548.61,-102.76 538.08,-101.62 539.66,-108.43"/>
</a>
</g>
</g>
<!-- Node20&#45;&gt;Node15 -->
<g id="edge31_Node000020_Node000015" class="edge">
<title>Node20&#45;&gt;Node15</title>
<g id="a_edge31_Node000020_Node000015"><a xlink:title=" ">
<path fill="none" stroke="#63b8ff" d="M445.99,-183.54C470.08,-188.21 498.88,-193.8 524.32,-198.74"/>
<polygon fill="#63b8ff" stroke="#63b8ff" points="523.4,-202.12 533.89,-200.59 524.74,-195.25 523.4,-202.12"/>
</a>
</g>
</g>
<!-- Node20&#45;&gt;Node18 -->
<g id="edge32_Node000020_Node000018" class="edge">
<title>Node20&#45;&gt;Node18</title>
<g id="a_edge32_Node000020_Node000018"><a xlink:title=" ">
<path fill="none" stroke="#63b8ff" d="M411.26,-183.77C433.38,-196.36 472.65,-217.46 508.5,-230.36 514.18,-232.4 520.17,-234.29 526.21,-236.01"/>
<polygon fill="#63b8ff" stroke="#63b8ff" points="525.06,-239.32 535.63,-238.54 526.88,-232.56 525.06,-239.32"/>
</a>
</g>
</g>
<!-- Node21 -->
<g id="Node000021" class="node">
<title>Node21</title>
<g id="a_Node000021"><a xlink:href="namespaceLGE_1_1MetaDB.html#aa5218c5875c7c064fac11782f4ca1783" target="_top" xlink:title=" ">
<polygon fill="white" stroke="#666666" points="664.75,-69.36 516,-69.36 516,-49.36 664.75,-49.36 664.75,-69.36"/>
<text xml:space="preserve" text-anchor="middle" x="590.38" y="-55.86" font-family="Helvetica,sans-Serif" font-size="10.00">LGE::MetaDB::GenerateGUID</text>
</a>
</g>
</g>
<!-- Node20&#45;&gt;Node21 -->
<g id="edge29_Node000020_Node000021" class="edge">
<title>Node20&#45;&gt;Node21</title>
<g id="a_edge29_Node000020_Node000021"><a xlink:title=" ">
<path fill="none" stroke="#63b8ff" d="M407.46,-162.92C423.45,-150.84 450.3,-130.2 472.5,-111.36 489.05,-97.31 489.31,-88.5 508.5,-78.36 511.75,-76.64 515.16,-75.07 518.66,-73.65"/>
<polygon fill="#63b8ff" stroke="#63b8ff" points="519.72,-76.99 527.94,-70.3 517.34,-70.4 519.72,-76.99"/>
</a>
</g>
</g>
<!-- Node22 -->
<g id="Node000022" class="node">
<title>Node22</title>
<g id="a_Node000022"><a xlink:href="namespaceLGE_1_1LxFile.html#a06d0b8c5590da8bc48cf22d321fc4074" target="_top" xlink:title=" ">
<polygon fill="white" stroke="#666666" points="644.12,-145.36 536.62,-145.36 536.62,-125.36 644.12,-125.36 644.12,-145.36"/>
<text xml:space="preserve" text-anchor="middle" x="590.38" y="-131.86" font-family="Helvetica,sans-Serif" font-size="10.00">LGE::LxFile::WriteAll</text>
</a>
</g>
</g>
<!-- Node20&#45;&gt;Node22 -->
<g id="edge33_Node000020_Node000022" class="edge">
<title>Node20&#45;&gt;Node22</title>
<g id="a_edge33_Node000020_Node000022"><a xlink:title=" ">
<path fill="none" stroke="#63b8ff" d="M445.99,-163.17C470.37,-158.44 499.58,-152.78 525.26,-147.8"/>
<polygon fill="#63b8ff" stroke="#63b8ff" points="525.76,-151.26 534.91,-145.92 524.43,-144.39 525.76,-151.26"/>
</a>
</g>
</g>
<!-- Node22&#45;&gt;Node3 -->
<g id="edge34_Node000022_Node000003" class="edge">
<title>Node22&#45;&gt;Node3</title>
<g id="a_edge34_Node000022_Node000003"><a xlink:title=" ">
<path fill="none" stroke="#63b8ff" d="M644.28,-135.26C743.08,-135.6 962.24,-138.85 1145.5,-159.36 1153.41,-160.24 1161.72,-161.45 1169.85,-162.79"/>
<polygon fill="#63b8ff" stroke="#63b8ff" points="1169.21,-166.24 1179.66,-164.5 1170.41,-159.34 1169.21,-166.24"/>
</a>
</g>
</g>
<!-- Node22&#45;&gt;Node4 -->
<g id="edge35_Node000022_Node000004" class="edge">
<title>Node22&#45;&gt;Node4</title>
<g id="a_edge35_Node000022_Node000004"><a xlink:title=" ">
<path fill="none" stroke="#63b8ff" d="M641.31,-124.88C651.62,-122.37 662.35,-119.49 672.25,-116.36 692.89,-109.82 715.4,-100.83 733.25,-93.24"/>
<polygon fill="#63b8ff" stroke="#63b8ff" points="734.53,-96.5 742.32,-89.33 731.76,-90.07 734.53,-96.5"/>
</a>
</g>
</g>
</g>
</svg>
