<?xml version="1.0" encoding="UTF-8" standalone="no"?>
<!DOCTYPE svg PUBLIC "-//W3C//DTD SVG 1.1//EN"
 "http://www.w3.org/Graphics/SVG/1.1/DTD/svg11.dtd">
<!-- Generated by graphviz version 14.0.2 (20251019.1705)
 -->
<!-- Title: LGE::Sync::SyncAssets Pages: 1 -->
<svg width="300pt" height="66pt"
 viewBox="0.00 0.00 300.00 66.00" xmlns="http://www.w3.org/2000/svg" xmlns:xlink="http://www.w3.org/1999/xlink">
<g id="graph0" class="graph" transform="scale(1 1) rotate(0) translate(4 62)">
<title>LGE::Sync::SyncAssets</title>
<!-- Node1 -->
<g id="Node000001" class="node">
<title>Node1</title>
<g id="a_Node000001"><a xlink:title=" ">
<polygon fill="#999999" stroke="#666666" points="291.5,-39 168.25,-39 168.25,-19 291.5,-19 291.5,-39"/>
<text xml:space="preserve" text-anchor="middle" x="229.88" y="-25.5" font-family="Helvetica,sans-Serif" font-size="10.00">LGE::Sync::SyncAssets</text>
</a>
</g>
</g>
<!-- Node1&#45;&gt;Node1 -->
<g id="edge1_Node000001_Node000001" class="edge">
<title>Node1&#45;&gt;Node1</title>
<g id="a_edge1_Node000001_Node000001"><a xlink:title=" ">
<path fill="none" stroke="#63b8ff" d="M258.82,-50.44C255.09,-54.3 245.44,-57 229.88,-57 201.41,-57 192.74,-47.98 203.86,-39.34"/>
<polygon fill="#63b8ff" stroke="#63b8ff" points="262.21,-49.58 256.28,-40.8 255.44,-51.36 262.21,-49.58"/>
</a>
</g>
</g>
<!-- Node2 -->
<g id="Node000002" class="node">
<title>Node2</title>
<g id="a_Node000002"><a xlink:href="namespaceLGE_1_1Sync.html#abf0ae0279fac131771f0a8baf36f1ed5" target="_top" xlink:title=" ">
<polygon fill="white" stroke="#666666" points="128.88,-58 3.38,-58 3.38,-38 128.88,-38 128.88,-58"/>
<text xml:space="preserve" text-anchor="middle" x="66.12" y="-44.5" font-family="Helvetica,sans-Serif" font-size="10.00">LGE::Sync::SyncByType</text>
</a>
</g>
</g>
<!-- Node1&#45;&gt;Node2 -->
<g id="edge2_Node000001_Node000002" class="edge">
<title>Node1&#45;&gt;Node2</title>
<g id="a_edge2_Node000001_Node000002"><a xlink:title=" ">
<path fill="none" stroke="#63b8ff" d="M157,-37.44C147.74,-38.53 138.32,-39.64 129.23,-40.7"/>
<polygon fill="#63b8ff" stroke="#63b8ff" points="157.16,-40.95 166.68,-36.31 156.34,-34 157.16,-40.95"/>
</a>
</g>
</g>
<!-- Node3 -->
<g id="Node000003" class="node">
<title>Node3</title>
<g id="a_Node000003"><a xlink:href="namespaceLGE_1_1Sync.html#a077b26ef6639f1098a24cb2228fbc4e8" target="_top" xlink:title=" ">
<polygon fill="white" stroke="#666666" points="132.25,-20 0,-20 0,0 132.25,0 132.25,-20"/>
<text xml:space="preserve" text-anchor="middle" x="66.12" y="-6.5" font-family="Helvetica,sans-Serif" font-size="10.00">LGE::Sync::SyncDirectory</text>
</a>
</g>
</g>
<!-- Node1&#45;&gt;Node3 -->
<g id="edge3_Node000001_Node000003" class="edge">
<title>Node1&#45;&gt;Node3</title>
<g id="a_edge3_Node000001_Node000003"><a xlink:title=" ">
<path fill="none" stroke="#63b8ff" d="M156.84,-20.54C148.73,-19.59 140.5,-18.62 132.49,-17.68"/>
<polygon fill="#63b8ff" stroke="#63b8ff" points="156.34,-24 166.68,-21.69 157.16,-17.05 156.34,-24"/>
</a>
</g>
</g>
</g>
</svg>
