<?xml version="1.0" encoding="UTF-8" standalone="no"?>
<!DOCTYPE svg PUBLIC "-//W3C//DTD SVG 1.1//EN"
 "http://www.w3.org/Graphics/SVG/1.1/DTD/svg11.dtd">
<!-- Generated by graphviz version 14.0.2 (20251019.1705)
 -->
<!-- Title: LGE::Versioning::CompareWithVersion Pages: 1 -->
<svg width="669pt" height="90pt"
 viewBox="0.00 0.00 669.00 90.00" xmlns="http://www.w3.org/2000/svg" xmlns:xlink="http://www.w3.org/1999/xlink">
<g id="graph0" class="graph" transform="scale(1 1) rotate(0) translate(4 86)">
<title>LGE::Versioning::CompareWithVersion</title>
<!-- Node1 -->
<g id="Node000001" class="node">
<title>Node1</title>
<g id="a_Node000001"><a xlink:title=" ">
<polygon fill="#999999" stroke="#666666" points="132.25,-57 0,-57 0,-25 132.25,-25 132.25,-57"/>
<text xml:space="preserve" text-anchor="start" x="8" y="-43.5" font-family="Helvetica,sans-Serif" font-size="10.00">LGE::Versioning::Compare</text>
<text xml:space="preserve" text-anchor="middle" x="66.12" y="-31.5" font-family="Helvetica,sans-Serif" font-size="10.00">WithVersion</text>
</a>
</g>
</g>
<!-- Node2 -->
<g id="Node000002" class="node">
<title>Node2</title>
<g id="a_Node000002"><a xlink:href="namespaceLGE_1_1Versioning.html#ac503d4eba950c0b6ed7c705ec481e22f" target="_top" xlink:title=" ">
<polygon fill="white" stroke="#666666" points="304.62,-82 172.38,-82 172.38,-50 304.62,-50 304.62,-82"/>
<text xml:space="preserve" text-anchor="start" x="180.38" y="-68.5" font-family="Helvetica,sans-Serif" font-size="10.00">LGE::Versioning::Compare</text>
<text xml:space="preserve" text-anchor="middle" x="238.5" y="-56.5" font-family="Helvetica,sans-Serif" font-size="10.00">Versions</text>
</a>
</g>
</g>
<!-- Node1&#45;&gt;Node2 -->
<g id="edge1_Node000001_Node000002" class="edge">
<title>Node1&#45;&gt;Node2</title>
<g id="a_edge1_Node000001_Node000002"><a xlink:title=" ">
<path fill="none" stroke="#63b8ff" d="M132.51,-50.59C141.72,-51.95 151.25,-53.34 160.65,-54.72"/>
<polygon fill="#63b8ff" stroke="#63b8ff" points="160.11,-58.18 170.51,-56.17 161.13,-51.26 160.11,-58.18"/>
</a>
</g>
</g>
<!-- Node5 -->
<g id="Node000005" class="node">
<title>Node5</title>
<g id="a_Node000005"><a xlink:href="namespaceLGE_1_1Versioning.html#ae0e5177fa7183c5b0046c8af354eb3f9" target="_top" xlink:title=" ">
<polygon fill="white" stroke="#666666" points="308.75,-32 168.25,-32 168.25,0 308.75,0 308.75,-32"/>
<text xml:space="preserve" text-anchor="start" x="176.25" y="-18.5" font-family="Helvetica,sans-Serif" font-size="10.00">LGE::Versioning::GetCurrent</text>
<text xml:space="preserve" text-anchor="middle" x="238.5" y="-6.5" font-family="Helvetica,sans-Serif" font-size="10.00">Version</text>
</a>
</g>
</g>
<!-- Node1&#45;&gt;Node5 -->
<g id="edge4_Node000001_Node000005" class="edge">
<title>Node1&#45;&gt;Node5</title>
<g id="a_edge4_Node000001_Node000005"><a xlink:title=" ">
<path fill="none" stroke="#63b8ff" d="M132.51,-31.41C140.35,-30.25 148.44,-29.07 156.47,-27.89"/>
<polygon fill="#63b8ff" stroke="#63b8ff" points="156.88,-31.37 166.27,-26.45 155.86,-24.44 156.88,-31.37"/>
</a>
</g>
</g>
<!-- Node3 -->
<g id="Node000003" class="node">
<title>Node3</title>
<g id="a_Node000003"><a xlink:href="namespaceLGE_1_1Versioning.html#a2b3bdabf3de80322380d4c126e574290" target="_top" xlink:title=" ">
<polygon fill="white" stroke="#666666" points="485.25,-64 344.75,-64 344.75,-44 485.25,-44 485.25,-64"/>
<text xml:space="preserve" text-anchor="middle" x="415" y="-50.5" font-family="Helvetica,sans-Serif" font-size="10.00">LGE::Versioning::GetVersion</text>
</a>
</g>
</g>
<!-- Node2&#45;&gt;Node3 -->
<g id="edge2_Node000002_Node000003" class="edge">
<title>Node2&#45;&gt;Node3</title>
<g id="a_edge2_Node000002_Node000003"><a xlink:title=" ">
<path fill="none" stroke="#63b8ff" d="M304.97,-61.5C314.12,-60.87 323.6,-60.22 332.99,-59.57"/>
<polygon fill="#63b8ff" stroke="#63b8ff" points="333.12,-63.07 342.86,-58.89 332.64,-56.09 333.12,-63.07"/>
</a>
</g>
</g>
<!-- Node4 -->
<g id="Node000004" class="node">
<title>Node4</title>
<g id="a_Node000004"><a xlink:href="namespaceLGE_1_1Versioning.html#a5911708ac1014650bae2a5d64a4be527" target="_top" xlink:title=" ">
<polygon fill="white" stroke="#666666" points="661,-45 521.25,-45 521.25,-25 661,-25 661,-45"/>
<text xml:space="preserve" text-anchor="middle" x="591.12" y="-31.5" font-family="Helvetica,sans-Serif" font-size="10.00">LGE::Versioning::GetHistory</text>
</a>
</g>
</g>
<!-- Node3&#45;&gt;Node4 -->
<g id="edge3_Node000003_Node000004" class="edge">
<title>Node3&#45;&gt;Node4</title>
<g id="a_edge3_Node000003_Node000004"><a xlink:title=" ">
<path fill="none" stroke="#63b8ff" d="M485.57,-46.41C493.49,-45.54 501.61,-44.66 509.65,-43.78"/>
<polygon fill="#63b8ff" stroke="#63b8ff" points="509.88,-47.28 519.45,-42.71 509.12,-40.32 509.88,-47.28"/>
</a>
</g>
</g>
<!-- Node5&#45;&gt;Node3 -->
<g id="edge6_Node000005_Node000003" class="edge">
<title>Node5&#45;&gt;Node3</title>
<g id="a_edge6_Node000005_Node000003"><a xlink:title=" ">
<path fill="none" stroke="#63b8ff" d="M309.22,-31.18C324.35,-34.48 340.21,-37.93 354.89,-41.13"/>
<polygon fill="#63b8ff" stroke="#63b8ff" points="353.85,-44.48 364.37,-43.19 355.34,-37.64 353.85,-44.48"/>
</a>
</g>
</g>
<!-- Node5&#45;&gt;Node4 -->
<g id="edge5_Node000005_Node000004" class="edge">
<title>Node5&#45;&gt;Node4</title>
<g id="a_edge5_Node000005_Node000004"><a xlink:title=" ">
<path fill="none" stroke="#63b8ff" d="M309.19,-19.78C366.88,-22.9 448.91,-27.35 509.44,-30.63"/>
<polygon fill="#63b8ff" stroke="#63b8ff" points="509.18,-34.12 519.35,-31.16 509.56,-27.13 509.18,-34.12"/>
</a>
</g>
</g>
</g>
</svg>
