<?xml version="1.0" encoding="UTF-8" standalone="no"?>
<!DOCTYPE svg PUBLIC "-//W3C//DTD SVG 1.1//EN"
 "http://www.w3.org/Graphics/SVG/1.1/DTD/svg11.dtd">
<!-- Generated by graphviz version 14.0.2 (20251019.1705)
 -->
<!-- Title: LGE::Analytics::RecordUnload Pages: 1 -->
<svg width="1353pt" height="258pt"
 viewBox="0.00 0.00 1353.00 258.00" xmlns="http://www.w3.org/2000/svg" xmlns:xlink="http://www.w3.org/1999/xlink">
<g id="graph0" class="graph" transform="scale(1 1) rotate(0) translate(4 253.99)">
<title>LGE::Analytics::RecordUnload</title>
<!-- Node1 -->
<g id="Node000001" class="node">
<title>Node1</title>
<g id="a_Node000001"><a xlink:title=" ">
<polygon fill="#999999" stroke="#666666" points="150.25,-153 0,-153 0,-133 150.25,-133 150.25,-153"/>
<text xml:space="preserve" text-anchor="middle" x="75.12" y="-139.5" font-family="Helvetica,sans-Serif" font-size="10.00">LGE::Analytics::RecordUnload</text>
</a>
</g>
</g>
<!-- Node2 -->
<g id="Node000002" class="node">
<title>Node2</title>
<g id="a_Node000002"><a xlink:href="namespaceLGE_1_1Cache.html#ac4168ca043cafc48a69e3d31db03a75c" target="_top" xlink:title=" ">
<polygon fill="white" stroke="#666666" points="301.25,-153 186.25,-153 186.25,-133 301.25,-133 301.25,-153"/>
<text xml:space="preserve" text-anchor="middle" x="243.75" y="-139.5" font-family="Helvetica,sans-Serif" font-size="10.00">LGE::Cache::Contains</text>
</a>
</g>
</g>
<!-- Node1&#45;&gt;Node2 -->
<g id="edge1_Node000001_Node000002" class="edge">
<title>Node1&#45;&gt;Node2</title>
<g id="a_edge1_Node000001_Node000002"><a xlink:title=" ">
<path fill="none" stroke="#63b8ff" d="M150.67,-143C158.58,-143 166.61,-143 174.45,-143"/>
<polygon fill="#63b8ff" stroke="#63b8ff" points="174.26,-146.5 184.26,-143 174.26,-139.5 174.26,-146.5"/>
</a>
</g>
</g>
<!-- Node3 -->
<g id="Node000003" class="node">
<title>Node3</title>
<g id="a_Node000003"><a xlink:href="namespaceLGE_1_1LxFile.html#a11e62876b312a11b881b484bb3a5ee71" target="_top" xlink:title=" ">
<polygon fill="white" stroke="#666666" points="587.88,-172 486.38,-172 486.38,-152 587.88,-152 587.88,-172"/>
<text xml:space="preserve" text-anchor="middle" x="537.12" y="-158.5" font-family="Helvetica,sans-Serif" font-size="10.00">LGE::LxFile::Exists</text>
</a>
</g>
</g>
<!-- Node2&#45;&gt;Node3 -->
<g id="edge2_Node000002_Node000003" class="edge">
<title>Node2&#45;&gt;Node3</title>
<g id="a_edge2_Node000002_Node000003"><a xlink:title=" ">
<path fill="none" stroke="#63b8ff" d="M301.62,-146.71C351.51,-149.96 423.86,-154.68 474.98,-158.01"/>
<polygon fill="#63b8ff" stroke="#63b8ff" points="474.48,-161.49 484.69,-158.65 474.93,-154.5 474.48,-161.49"/>
</a>
</g>
</g>
<!-- Node4 -->
<g id="Node000004" class="node">
<title>Node4</title>
<g id="a_Node000004"><a xlink:href="namespaceLGE_1_1Cache.html#ad8e41893a6ca4a8bea160fd1a6351f21" target="_top" xlink:title=" ">
<polygon fill="white" stroke="#666666" points="450,-134 337.25,-134 337.25,-114 450,-114 450,-134"/>
<text xml:space="preserve" text-anchor="middle" x="393.62" y="-120.5" font-family="Helvetica,sans-Serif" font-size="10.00">LGE::Cache::Remove</text>
</a>
</g>
</g>
<!-- Node2&#45;&gt;Node4 -->
<g id="edge3_Node000002_Node000004" class="edge">
<title>Node2&#45;&gt;Node4</title>
<g id="a_edge3_Node000002_Node000004"><a xlink:title=" ">
<path fill="none" stroke="#63b8ff" d="M301.5,-135.71C309.36,-134.7 317.5,-133.65 325.52,-132.62"/>
<polygon fill="#63b8ff" stroke="#63b8ff" points="325.79,-136.12 335.26,-131.37 324.89,-129.17 325.79,-136.12"/>
</a>
</g>
</g>
<!-- Node4&#45;&gt;Node3 -->
<g id="edge20_Node000004_Node000003" class="edge">
<title>Node4&#45;&gt;Node3</title>
<g id="a_edge20_Node000004_Node000003"><a xlink:title=" ">
<path fill="none" stroke="#63b8ff" d="M433.67,-134.48C449.9,-138.85 468.95,-143.96 486.19,-148.59"/>
<polygon fill="#63b8ff" stroke="#63b8ff" points="485.18,-151.94 495.75,-151.16 487,-145.18 485.18,-151.94"/>
</a>
</g>
</g>
<!-- Node5 -->
<g id="Node000005" class="node">
<title>Node5</title>
<g id="a_Node000005"><a xlink:href="namespaceLGE_1_1LxFile.html#a495ab310e479d036634c3628390f80a0" target="_top" xlink:title=" ">
<polygon fill="white" stroke="#666666" points="588.25,-134 486,-134 486,-114 588.25,-114 588.25,-134"/>
<text xml:space="preserve" text-anchor="middle" x="537.12" y="-120.5" font-family="Helvetica,sans-Serif" font-size="10.00">LGE::LxFile::Delete</text>
</a>
</g>
</g>
<!-- Node4&#45;&gt;Node5 -->
<g id="edge4_Node000004_Node000005" class="edge">
<title>Node4&#45;&gt;Node5</title>
<g id="a_edge4_Node000004_Node000005"><a xlink:title=" ">
<path fill="none" stroke="#63b8ff" d="M450.14,-124C458.14,-124 466.41,-124 474.52,-124"/>
<polygon fill="#63b8ff" stroke="#63b8ff" points="474.32,-127.5 484.32,-124 474.32,-120.5 474.32,-127.5"/>
</a>
</g>
</g>
<!-- Node6 -->
<g id="Node000006" class="node">
<title>Node6</title>
<g id="a_Node000006"><a xlink:href="classLGE_1_1Log.html#a53f3f4b8797ffd18145739c9e66d690a" target="_top" xlink:title=" ">
<polygon fill="white" stroke="#666666" points="1344.75,-96 1260.5,-96 1260.5,-76 1344.75,-76 1344.75,-96"/>
<text xml:space="preserve" text-anchor="middle" x="1302.62" y="-82.5" font-family="Helvetica,sans-Serif" font-size="10.00">LGE::Log::Error</text>
</a>
</g>
</g>
<!-- Node5&#45;&gt;Node6 -->
<g id="edge5_Node000005_Node000006" class="edge">
<title>Node5&#45;&gt;Node6</title>
<g id="a_edge5_Node000005_Node000006"><a xlink:title=" ">
<path fill="none" stroke="#63b8ff" d="M575.6,-134.45C580.19,-136.78 584.56,-139.59 588.25,-143 615.71,-168.35 593.57,-197.66 624.25,-219 704.09,-274.53 744.99,-238 842.25,-238 842.25,-238 842.25,-238 1005,-238 1121.15,-238 1237.52,-144.55 1282.35,-104.2"/>
<polygon fill="#63b8ff" stroke="#63b8ff" points="1284.69,-106.81 1289.69,-97.47 1279.96,-101.65 1284.69,-106.81"/>
</a>
</g>
</g>
<!-- Node7 -->
<g id="Node000007" class="node">
<title>Node7</title>
<g id="a_Node000007"><a xlink:href="classLGE_1_1Log.html#ab0265ee050b8873a2fd31fbdb696ced0" target="_top" xlink:title=" ">
<polygon fill="white" stroke="#666666" points="724.25,-210 644.5,-210 644.5,-190 724.25,-190 724.25,-210"/>
<text xml:space="preserve" text-anchor="middle" x="684.38" y="-196.5" font-family="Helvetica,sans-Serif" font-size="10.00">LGE::Log::Info</text>
</a>
</g>
</g>
<!-- Node5&#45;&gt;Node7 -->
<g id="edge6_Node000005_Node000007" class="edge">
<title>Node5&#45;&gt;Node7</title>
<g id="a_edge6_Node000005_Node000007"><a xlink:title=" ">
<path fill="none" stroke="#63b8ff" d="M572.05,-134.46C577.68,-136.86 583.29,-139.7 588.25,-143 607.62,-155.89 604.56,-168.61 624.25,-181 627.31,-182.92 630.58,-184.67 633.95,-186.25"/>
<polygon fill="#63b8ff" stroke="#63b8ff" points="632.3,-189.36 642.88,-189.94 634.97,-182.89 632.3,-189.36"/>
</a>
</g>
</g>
<!-- Node8 -->
<g id="Node000008" class="node">
<title>Node8</title>
<g id="a_Node000008"><a xlink:href="namespaceLGE_1_1LxFS.html#a5684a30f3fa2906f4dafed0258a79166" target="_top" xlink:title=" ">
<polygon fill="white" stroke="#666666" points="744.5,-172 624.25,-172 624.25,-152 744.5,-152 744.5,-172"/>
<text xml:space="preserve" text-anchor="middle" x="684.38" y="-158.5" font-family="Helvetica,sans-Serif" font-size="10.00">LGE::LxFS::IsInitialized</text>
</a>
</g>
</g>
<!-- Node5&#45;&gt;Node8 -->
<g id="edge7_Node000005_Node000008" class="edge">
<title>Node5&#45;&gt;Node8</title>
<g id="a_edge7_Node000005_Node000008"><a xlink:title=" ">
<path fill="none" stroke="#63b8ff" d="M578.2,-134.48C594.95,-138.87 614.61,-144.01 632.37,-148.66"/>
<polygon fill="#63b8ff" stroke="#63b8ff" points="631.41,-152.02 641.97,-151.17 633.18,-145.25 631.41,-152.02"/>
</a>
</g>
</g>
<!-- Node9 -->
<g id="Node000009" class="node">
<title>Node9</title>
<g id="a_Node000009"><a xlink:href="namespaceLGE_1_1VFS.html#abb5d35abfe80efe2f7a07394ad5b706a" target="_top" xlink:title=" ">
<polygon fill="white" stroke="#666666" points="902.62,-58 783.88,-58 783.88,-38 902.62,-38 902.62,-58"/>
<text xml:space="preserve" text-anchor="middle" x="843.25" y="-44.5" font-family="Helvetica,sans-Serif" font-size="10.00">LGE::VFS::IsReadOnly</text>
</a>
</g>
</g>
<!-- Node5&#45;&gt;Node9 -->
<g id="edge8_Node000005_Node000009" class="edge">
<title>Node5&#45;&gt;Node9</title>
<g id="a_edge8_Node000005_Node000009"><a xlink:title=" ">
<path fill="none" stroke="#63b8ff" d="M549.64,-113.6C565.26,-100.18 594.62,-77.34 624.25,-67 671.83,-50.39 728.63,-45.9 772.32,-45.42"/>
<polygon fill="#63b8ff" stroke="#63b8ff" points="772.2,-48.92 782.19,-45.38 772.18,-41.92 772.2,-48.92"/>
</a>
</g>
</g>
<!-- Node12 -->
<g id="Node000012" class="node">
<title>Node12</title>
<g id="a_Node000012"><a xlink:href="namespaceLGE_1_1LxFS.html#a12aeb6699602f14153953dceb4284914" target="_top" xlink:title=" ">
<polygon fill="white" stroke="#666666" points="732.5,-96 636.25,-96 636.25,-76 732.5,-76 732.5,-96"/>
<text xml:space="preserve" text-anchor="middle" x="684.38" y="-82.5" font-family="Helvetica,sans-Serif" font-size="10.00">LGE::LxFS::Paths</text>
</a>
</g>
</g>
<!-- Node5&#45;&gt;Node12 -->
<g id="edge13_Node000005_Node000012" class="edge">
<title>Node5&#45;&gt;Node12</title>
<g id="a_edge13_Node000005_Node000012"><a xlink:title=" ">
<path fill="none" stroke="#63b8ff" d="M578.2,-113.52C594.95,-109.13 614.61,-103.99 632.37,-99.34"/>
<polygon fill="#63b8ff" stroke="#63b8ff" points="633.18,-102.75 641.97,-96.83 631.41,-95.98 633.18,-102.75"/>
</a>
</g>
</g>
<!-- Node13 -->
<g id="Node000013" class="node">
<title>Node13</title>
<g id="a_Node000013"><a xlink:href="namespaceLGE_1_1VFS.html#aee891612cc393155878775a61e486c0b" target="_top" xlink:title=" ">
<polygon fill="white" stroke="#666666" points="906,-134 780.5,-134 780.5,-114 906,-114 906,-134"/>
<text xml:space="preserve" text-anchor="middle" x="843.25" y="-120.5" font-family="Helvetica,sans-Serif" font-size="10.00">LGE::VFS::ToVirtualPath</text>
</a>
</g>
</g>
<!-- Node5&#45;&gt;Node13 -->
<g id="edge14_Node000005_Node000013" class="edge">
<title>Node5&#45;&gt;Node13</title>
<g id="a_edge14_Node000005_Node000013"><a xlink:title=" ">
<path fill="none" stroke="#63b8ff" d="M588.69,-124C637.91,-124 713.25,-124 769.02,-124"/>
<polygon fill="#63b8ff" stroke="#63b8ff" points="768.74,-127.5 778.74,-124 768.74,-120.5 768.74,-127.5"/>
</a>
</g>
</g>
<!-- Node14 -->
<g id="Node000014" class="node">
<title>Node14</title>
<g id="a_Node000014"><a xlink:href="namespaceLGE_1_1LxFile.html#a06d0b8c5590da8bc48cf22d321fc4074" target="_top" xlink:title=" ">
<polygon fill="white" stroke="#666666" points="738.12,-20 630.62,-20 630.62,0 738.12,0 738.12,-20"/>
<text xml:space="preserve" text-anchor="middle" x="684.38" y="-6.5" font-family="Helvetica,sans-Serif" font-size="10.00">LGE::LxFile::WriteAll</text>
</a>
</g>
</g>
<!-- Node5&#45;&gt;Node14 -->
<g id="edge17_Node000005_Node000014" class="edge">
<title>Node5&#45;&gt;Node14</title>
<g id="a_edge17_Node000005_Node000014"><a xlink:title=" ">
<path fill="none" stroke="#63b8ff" d="M545.57,-113.74C559.28,-95.48 590.26,-57.08 624.25,-34 629.23,-30.62 634.77,-27.59 640.39,-24.91"/>
<polygon fill="#63b8ff" stroke="#63b8ff" points="641.37,-28.31 649.13,-21.1 638.57,-21.89 641.37,-28.31"/>
</a>
</g>
</g>
<!-- Node10 -->
<g id="Node000010" class="node">
<title>Node10</title>
<g id="a_Node000010"><a xlink:href="namespaceLGE_1_1LxPath.html#ab664986e94ce09aa029f9eb2fcf50133" target="_top" xlink:title=" ">
<polygon fill="white" stroke="#666666" points="1066,-96 942,-96 942,-76 1066,-76 1066,-96"/>
<text xml:space="preserve" text-anchor="middle" x="1004" y="-82.5" font-family="Helvetica,sans-Serif" font-size="10.00">LGE::LxPath::IsSubPath</text>
</a>
</g>
</g>
<!-- Node9&#45;&gt;Node10 -->
<g id="edge9_Node000009_Node000010" class="edge">
<title>Node9&#45;&gt;Node10</title>
<g id="a_edge9_Node000009_Node000010"><a xlink:title=" ">
<path fill="none" stroke="#63b8ff" d="M888.05,-58.48C906.7,-62.95 928.66,-68.21 948.36,-72.92"/>
<polygon fill="#63b8ff" stroke="#63b8ff" points="947.33,-76.27 957.87,-75.2 948.96,-69.47 947.33,-76.27"/>
</a>
</g>
</g>
<!-- Node11 -->
<g id="Node000011" class="node">
<title>Node11</title>
<g id="a_Node000011"><a xlink:href="namespaceLGE_1_1LxPath.html#a314a60ce690c90f4ee0b4e64c0199408" target="_top" xlink:title=" ">
<polygon fill="white" stroke="#666666" points="1224.5,-96 1102,-96 1102,-76 1224.5,-76 1224.5,-96"/>
<text xml:space="preserve" text-anchor="middle" x="1163.25" y="-82.5" font-family="Helvetica,sans-Serif" font-size="10.00">LGE::LxPath::Normalize</text>
</a>
</g>
</g>
<!-- Node9&#45;&gt;Node11 -->
<g id="edge12_Node000009_Node000011" class="edge">
<title>Node9&#45;&gt;Node11</title>
<g id="a_edge12_Node000009_Node000011"><a xlink:title=" ">
<path fill="none" stroke="#63b8ff" d="M902.81,-51.26C947.63,-54.19 1010.91,-59.23 1066,-67 1078.27,-68.73 1091.33,-71.01 1103.75,-73.39"/>
<polygon fill="#63b8ff" stroke="#63b8ff" points="1102.97,-76.8 1113.45,-75.3 1104.32,-69.93 1102.97,-76.8"/>
</a>
</g>
</g>
<!-- Node10&#45;&gt;Node11 -->
<g id="edge10_Node000010_Node000011" class="edge">
<title>Node10&#45;&gt;Node11</title>
<g id="a_edge10_Node000010_Node000011"><a xlink:title=" ">
<path fill="none" stroke="#63b8ff" d="M1066.25,-86C1074.16,-86 1082.32,-86 1090.38,-86"/>
<polygon fill="#63b8ff" stroke="#63b8ff" points="1090.17,-89.5 1100.17,-86 1090.17,-82.5 1090.17,-89.5"/>
</a>
</g>
</g>
<!-- Node11&#45;&gt;Node6 -->
<g id="edge11_Node000011_Node000006" class="edge">
<title>Node11&#45;&gt;Node6</title>
<g id="a_edge11_Node000011_Node000006"><a xlink:title=" ">
<path fill="none" stroke="#63b8ff" d="M1224.9,-86C1232.92,-86 1241.09,-86 1248.95,-86"/>
<polygon fill="#63b8ff" stroke="#63b8ff" points="1248.7,-89.5 1258.7,-86 1248.7,-82.5 1248.7,-89.5"/>
</a>
</g>
</g>
<!-- Node13&#45;&gt;Node10 -->
<g id="edge15_Node000013_Node000010" class="edge">
<title>Node13&#45;&gt;Node10</title>
<g id="a_edge15_Node000013_Node000010"><a xlink:title=" ">
<path fill="none" stroke="#63b8ff" d="M888.05,-113.52C906.7,-109.05 928.66,-103.79 948.36,-99.08"/>
<polygon fill="#63b8ff" stroke="#63b8ff" points="948.96,-102.53 957.87,-96.8 947.33,-95.73 948.96,-102.53"/>
</a>
</g>
</g>
<!-- Node13&#45;&gt;Node11 -->
<g id="edge16_Node000013_Node000011" class="edge">
<title>Node13&#45;&gt;Node11</title>
<g id="a_edge16_Node000013_Node000011"><a xlink:title=" ">
<path fill="none" stroke="#63b8ff" d="M906.11,-120.52C950.7,-117.57 1012.24,-112.59 1066,-105 1078.27,-103.27 1091.33,-100.99 1103.75,-98.61"/>
<polygon fill="#63b8ff" stroke="#63b8ff" points="1104.32,-102.07 1113.45,-96.7 1102.97,-95.2 1104.32,-102.07"/>
</a>
</g>
</g>
<!-- Node14&#45;&gt;Node6 -->
<g id="edge18_Node000014_Node000006" class="edge">
<title>Node14&#45;&gt;Node6</title>
<g id="a_edge18_Node000014_Node000006"><a xlink:title=" ">
<path fill="none" stroke="#63b8ff" d="M738.55,-12.98C835.7,-19 1048.1,-34.87 1224.5,-67 1233.57,-68.65 1243.16,-70.74 1252.38,-72.91"/>
<polygon fill="#63b8ff" stroke="#63b8ff" points="1251.37,-76.27 1261.91,-75.24 1253.02,-69.47 1251.37,-76.27"/>
</a>
</g>
</g>
<!-- Node14&#45;&gt;Node9 -->
<g id="edge19_Node000014_Node000009" class="edge">
<title>Node14&#45;&gt;Node9</title>
<g id="a_edge19_Node000014_Node000009"><a xlink:title=" ">
<path fill="none" stroke="#63b8ff" d="M728.66,-20.48C747,-24.93 768.59,-30.16 787.98,-34.85"/>
<polygon fill="#63b8ff" stroke="#63b8ff" points="787.1,-38.24 797.64,-37.19 788.74,-31.44 787.1,-38.24"/>
</a>
</g>
</g>
</g>
</svg>
