<?xml version="1.0" encoding="UTF-8" standalone="no"?>
<!DOCTYPE svg PUBLIC "-//W3C//DTD SVG 1.1//EN"
 "http://www.w3.org/Graphics/SVG/1.1/DTD/svg11.dtd">
<!-- Generated by graphviz version 14.0.2 (20251019.1705)
 -->
<!-- Title: LGE::Analytics::RecordAccess Pages: 1 -->
<svg width="1355pt" height="258pt"
 viewBox="0.00 0.00 1355.00 258.00" xmlns="http://www.w3.org/2000/svg" xmlns:xlink="http://www.w3.org/1999/xlink">
<g id="graph0" class="graph" transform="scale(1 1) rotate(0) translate(4 253.99)">
<title>LGE::Analytics::RecordAccess</title>
<!-- Node1 -->
<g id="Node000001" class="node">
<title>Node1</title>
<g id="a_Node000001"><a xlink:title=" ">
<polygon fill="#999999" stroke="#666666" points="152.5,-131 0,-131 0,-111 152.5,-111 152.5,-131"/>
<text xml:space="preserve" text-anchor="middle" x="76.25" y="-117.5" font-family="Helvetica,sans-Serif" font-size="10.00">LGE::Analytics::RecordAccess</text>
</a>
</g>
</g>
<!-- Node2 -->
<g id="Node000002" class="node">
<title>Node2</title>
<g id="a_Node000002"><a xlink:href="namespaceLGE_1_1Cache.html#ac4168ca043cafc48a69e3d31db03a75c" target="_top" xlink:title=" ">
<polygon fill="white" stroke="#666666" points="303.5,-153 188.5,-153 188.5,-133 303.5,-133 303.5,-153"/>
<text xml:space="preserve" text-anchor="middle" x="246" y="-139.5" font-family="Helvetica,sans-Serif" font-size="10.00">LGE::Cache::Contains</text>
</a>
</g>
</g>
<!-- Node1&#45;&gt;Node2 -->
<g id="edge1_Node000001_Node000002" class="edge">
<title>Node1&#45;&gt;Node2</title>
<g id="a_edge1_Node000001_Node000002"><a xlink:title=" ">
<path fill="none" stroke="#63b8ff" d="M152.78,-130.91C160.94,-131.98 169.2,-133.06 177.26,-134.12"/>
<polygon fill="#63b8ff" stroke="#63b8ff" points="176.61,-137.56 186.98,-135.39 177.52,-130.62 176.61,-137.56"/>
</a>
</g>
</g>
<!-- Node15 -->
<g id="Node000015" class="node">
<title>Node15</title>
<g id="a_Node000015"><a xlink:href="namespaceLGE_1_1Dependencies.html#a85bc0b8290df03cc1da7671f578785b1" target="_top" xlink:title=" ">
<polygon fill="white" stroke="#666666" points="300.88,-115 191.12,-115 191.12,-83 300.88,-83 300.88,-115"/>
<text xml:space="preserve" text-anchor="start" x="199.12" y="-101.5" font-family="Helvetica,sans-Serif" font-size="10.00">LGE::Dependencies::</text>
<text xml:space="preserve" text-anchor="middle" x="246" y="-89.5" font-family="Helvetica,sans-Serif" font-size="10.00">GetDependents</text>
</a>
</g>
</g>
<!-- Node1&#45;&gt;Node15 -->
<g id="edge21_Node000001_Node000015" class="edge">
<title>Node1&#45;&gt;Node15</title>
<g id="a_edge21_Node000001_Node000015"><a xlink:title=" ">
<path fill="none" stroke="#63b8ff" d="M152.78,-111.09C161.73,-109.92 170.81,-108.73 179.6,-107.58"/>
<polygon fill="#63b8ff" stroke="#63b8ff" points="180,-111.05 189.46,-106.28 179.09,-104.11 180,-111.05"/>
</a>
</g>
</g>
<!-- Node3 -->
<g id="Node000003" class="node">
<title>Node3</title>
<g id="a_Node000003"><a xlink:href="namespaceLGE_1_1LxFile.html#a11e62876b312a11b881b484bb3a5ee71" target="_top" xlink:title=" ">
<polygon fill="white" stroke="#666666" points="590.12,-172 488.62,-172 488.62,-152 590.12,-152 590.12,-172"/>
<text xml:space="preserve" text-anchor="middle" x="539.38" y="-158.5" font-family="Helvetica,sans-Serif" font-size="10.00">LGE::LxFile::Exists</text>
</a>
</g>
</g>
<!-- Node2&#45;&gt;Node3 -->
<g id="edge2_Node000002_Node000003" class="edge">
<title>Node2&#45;&gt;Node3</title>
<g id="a_edge2_Node000002_Node000003"><a xlink:title=" ">
<path fill="none" stroke="#63b8ff" d="M303.87,-146.71C353.76,-149.96 426.11,-154.68 477.23,-158.01"/>
<polygon fill="#63b8ff" stroke="#63b8ff" points="476.73,-161.49 486.94,-158.65 477.18,-154.5 476.73,-161.49"/>
</a>
</g>
</g>
<!-- Node4 -->
<g id="Node000004" class="node">
<title>Node4</title>
<g id="a_Node000004"><a xlink:href="namespaceLGE_1_1Cache.html#ad8e41893a6ca4a8bea160fd1a6351f21" target="_top" xlink:title=" ">
<polygon fill="white" stroke="#666666" points="452.25,-134 339.5,-134 339.5,-114 452.25,-114 452.25,-134"/>
<text xml:space="preserve" text-anchor="middle" x="395.88" y="-120.5" font-family="Helvetica,sans-Serif" font-size="10.00">LGE::Cache::Remove</text>
</a>
</g>
</g>
<!-- Node2&#45;&gt;Node4 -->
<g id="edge3_Node000002_Node000004" class="edge">
<title>Node2&#45;&gt;Node4</title>
<g id="a_edge3_Node000002_Node000004"><a xlink:title=" ">
<path fill="none" stroke="#63b8ff" d="M303.75,-135.71C311.61,-134.7 319.75,-133.65 327.77,-132.62"/>
<polygon fill="#63b8ff" stroke="#63b8ff" points="328.04,-136.12 337.51,-131.37 327.14,-129.17 328.04,-136.12"/>
</a>
</g>
</g>
<!-- Node4&#45;&gt;Node3 -->
<g id="edge20_Node000004_Node000003" class="edge">
<title>Node4&#45;&gt;Node3</title>
<g id="a_edge20_Node000004_Node000003"><a xlink:title=" ">
<path fill="none" stroke="#63b8ff" d="M435.92,-134.48C452.15,-138.85 471.2,-143.96 488.44,-148.59"/>
<polygon fill="#63b8ff" stroke="#63b8ff" points="487.43,-151.94 498,-151.16 489.25,-145.18 487.43,-151.94"/>
</a>
</g>
</g>
<!-- Node5 -->
<g id="Node000005" class="node">
<title>Node5</title>
<g id="a_Node000005"><a xlink:href="namespaceLGE_1_1LxFile.html#a495ab310e479d036634c3628390f80a0" target="_top" xlink:title=" ">
<polygon fill="white" stroke="#666666" points="590.5,-134 488.25,-134 488.25,-114 590.5,-114 590.5,-134"/>
<text xml:space="preserve" text-anchor="middle" x="539.38" y="-120.5" font-family="Helvetica,sans-Serif" font-size="10.00">LGE::LxFile::Delete</text>
</a>
</g>
</g>
<!-- Node4&#45;&gt;Node5 -->
<g id="edge4_Node000004_Node000005" class="edge">
<title>Node4&#45;&gt;Node5</title>
<g id="a_edge4_Node000004_Node000005"><a xlink:title=" ">
<path fill="none" stroke="#63b8ff" d="M452.39,-124C460.39,-124 468.66,-124 476.77,-124"/>
<polygon fill="#63b8ff" stroke="#63b8ff" points="476.57,-127.5 486.57,-124 476.57,-120.5 476.57,-127.5"/>
</a>
</g>
</g>
<!-- Node6 -->
<g id="Node000006" class="node">
<title>Node6</title>
<g id="a_Node000006"><a xlink:href="classLGE_1_1Log.html#a53f3f4b8797ffd18145739c9e66d690a" target="_top" xlink:title=" ">
<polygon fill="white" stroke="#666666" points="1347,-96 1262.75,-96 1262.75,-76 1347,-76 1347,-96"/>
<text xml:space="preserve" text-anchor="middle" x="1304.88" y="-82.5" font-family="Helvetica,sans-Serif" font-size="10.00">LGE::Log::Error</text>
</a>
</g>
</g>
<!-- Node5&#45;&gt;Node6 -->
<g id="edge5_Node000005_Node000006" class="edge">
<title>Node5&#45;&gt;Node6</title>
<g id="a_edge5_Node000005_Node000006"><a xlink:title=" ">
<path fill="none" stroke="#63b8ff" d="M577.85,-134.45C582.44,-136.78 586.81,-139.59 590.5,-143 617.96,-168.35 595.82,-197.66 626.5,-219 706.34,-274.53 747.24,-238 844.5,-238 844.5,-238 844.5,-238 1007.25,-238 1123.4,-238 1239.77,-144.55 1284.6,-104.2"/>
<polygon fill="#63b8ff" stroke="#63b8ff" points="1286.94,-106.81 1291.94,-97.47 1282.21,-101.65 1286.94,-106.81"/>
</a>
</g>
</g>
<!-- Node7 -->
<g id="Node000007" class="node">
<title>Node7</title>
<g id="a_Node000007"><a xlink:href="classLGE_1_1Log.html#ab0265ee050b8873a2fd31fbdb696ced0" target="_top" xlink:title=" ">
<polygon fill="white" stroke="#666666" points="726.5,-210 646.75,-210 646.75,-190 726.5,-190 726.5,-210"/>
<text xml:space="preserve" text-anchor="middle" x="686.62" y="-196.5" font-family="Helvetica,sans-Serif" font-size="10.00">LGE::Log::Info</text>
</a>
</g>
</g>
<!-- Node5&#45;&gt;Node7 -->
<g id="edge6_Node000005_Node000007" class="edge">
<title>Node5&#45;&gt;Node7</title>
<g id="a_edge6_Node000005_Node000007"><a xlink:title=" ">
<path fill="none" stroke="#63b8ff" d="M574.3,-134.46C579.93,-136.86 585.54,-139.7 590.5,-143 609.87,-155.89 606.81,-168.61 626.5,-181 629.56,-182.92 632.83,-184.67 636.2,-186.25"/>
<polygon fill="#63b8ff" stroke="#63b8ff" points="634.55,-189.36 645.13,-189.94 637.22,-182.89 634.55,-189.36"/>
</a>
</g>
</g>
<!-- Node8 -->
<g id="Node000008" class="node">
<title>Node8</title>
<g id="a_Node000008"><a xlink:href="namespaceLGE_1_1LxFS.html#a5684a30f3fa2906f4dafed0258a79166" target="_top" xlink:title=" ">
<polygon fill="white" stroke="#666666" points="746.75,-172 626.5,-172 626.5,-152 746.75,-152 746.75,-172"/>
<text xml:space="preserve" text-anchor="middle" x="686.62" y="-158.5" font-family="Helvetica,sans-Serif" font-size="10.00">LGE::LxFS::IsInitialized</text>
</a>
</g>
</g>
<!-- Node5&#45;&gt;Node8 -->
<g id="edge7_Node000005_Node000008" class="edge">
<title>Node5&#45;&gt;Node8</title>
<g id="a_edge7_Node000005_Node000008"><a xlink:title=" ">
<path fill="none" stroke="#63b8ff" d="M580.45,-134.48C597.2,-138.87 616.86,-144.01 634.62,-148.66"/>
<polygon fill="#63b8ff" stroke="#63b8ff" points="633.66,-152.02 644.22,-151.17 635.43,-145.25 633.66,-152.02"/>
</a>
</g>
</g>
<!-- Node9 -->
<g id="Node000009" class="node">
<title>Node9</title>
<g id="a_Node000009"><a xlink:href="namespaceLGE_1_1VFS.html#abb5d35abfe80efe2f7a07394ad5b706a" target="_top" xlink:title=" ">
<polygon fill="white" stroke="#666666" points="904.88,-58 786.12,-58 786.12,-38 904.88,-38 904.88,-58"/>
<text xml:space="preserve" text-anchor="middle" x="845.5" y="-44.5" font-family="Helvetica,sans-Serif" font-size="10.00">LGE::VFS::IsReadOnly</text>
</a>
</g>
</g>
<!-- Node5&#45;&gt;Node9 -->
<g id="edge8_Node000005_Node000009" class="edge">
<title>Node5&#45;&gt;Node9</title>
<g id="a_edge8_Node000005_Node000009"><a xlink:title=" ">
<path fill="none" stroke="#63b8ff" d="M551.89,-113.6C567.51,-100.18 596.87,-77.34 626.5,-67 674.08,-50.39 730.88,-45.9 774.57,-45.42"/>
<polygon fill="#63b8ff" stroke="#63b8ff" points="774.45,-48.92 784.44,-45.38 774.43,-41.92 774.45,-48.92"/>
</a>
</g>
</g>
<!-- Node12 -->
<g id="Node000012" class="node">
<title>Node12</title>
<g id="a_Node000012"><a xlink:href="namespaceLGE_1_1LxFS.html#a12aeb6699602f14153953dceb4284914" target="_top" xlink:title=" ">
<polygon fill="white" stroke="#666666" points="734.75,-96 638.5,-96 638.5,-76 734.75,-76 734.75,-96"/>
<text xml:space="preserve" text-anchor="middle" x="686.62" y="-82.5" font-family="Helvetica,sans-Serif" font-size="10.00">LGE::LxFS::Paths</text>
</a>
</g>
</g>
<!-- Node5&#45;&gt;Node12 -->
<g id="edge13_Node000005_Node000012" class="edge">
<title>Node5&#45;&gt;Node12</title>
<g id="a_edge13_Node000005_Node000012"><a xlink:title=" ">
<path fill="none" stroke="#63b8ff" d="M580.45,-113.52C597.2,-109.13 616.86,-103.99 634.62,-99.34"/>
<polygon fill="#63b8ff" stroke="#63b8ff" points="635.43,-102.75 644.22,-96.83 633.66,-95.98 635.43,-102.75"/>
</a>
</g>
</g>
<!-- Node13 -->
<g id="Node000013" class="node">
<title>Node13</title>
<g id="a_Node000013"><a xlink:href="namespaceLGE_1_1VFS.html#aee891612cc393155878775a61e486c0b" target="_top" xlink:title=" ">
<polygon fill="white" stroke="#666666" points="908.25,-134 782.75,-134 782.75,-114 908.25,-114 908.25,-134"/>
<text xml:space="preserve" text-anchor="middle" x="845.5" y="-120.5" font-family="Helvetica,sans-Serif" font-size="10.00">LGE::VFS::ToVirtualPath</text>
</a>
</g>
</g>
<!-- Node5&#45;&gt;Node13 -->
<g id="edge14_Node000005_Node000013" class="edge">
<title>Node5&#45;&gt;Node13</title>
<g id="a_edge14_Node000005_Node000013"><a xlink:title=" ">
<path fill="none" stroke="#63b8ff" d="M590.94,-124C640.16,-124 715.5,-124 771.27,-124"/>
<polygon fill="#63b8ff" stroke="#63b8ff" points="770.99,-127.5 780.99,-124 770.99,-120.5 770.99,-127.5"/>
</a>
</g>
</g>
<!-- Node14 -->
<g id="Node000014" class="node">
<title>Node14</title>
<g id="a_Node000014"><a xlink:href="namespaceLGE_1_1LxFile.html#a06d0b8c5590da8bc48cf22d321fc4074" target="_top" xlink:title=" ">
<polygon fill="white" stroke="#666666" points="740.38,-20 632.88,-20 632.88,0 740.38,0 740.38,-20"/>
<text xml:space="preserve" text-anchor="middle" x="686.62" y="-6.5" font-family="Helvetica,sans-Serif" font-size="10.00">LGE::LxFile::WriteAll</text>
</a>
</g>
</g>
<!-- Node5&#45;&gt;Node14 -->
<g id="edge17_Node000005_Node000014" class="edge">
<title>Node5&#45;&gt;Node14</title>
<g id="a_edge17_Node000005_Node000014"><a xlink:title=" ">
<path fill="none" stroke="#63b8ff" d="M547.82,-113.74C561.53,-95.48 592.51,-57.08 626.5,-34 631.48,-30.62 637.02,-27.59 642.64,-24.91"/>
<polygon fill="#63b8ff" stroke="#63b8ff" points="643.62,-28.31 651.38,-21.1 640.82,-21.89 643.62,-28.31"/>
</a>
</g>
</g>
<!-- Node10 -->
<g id="Node000010" class="node">
<title>Node10</title>
<g id="a_Node000010"><a xlink:href="namespaceLGE_1_1LxPath.html#ab664986e94ce09aa029f9eb2fcf50133" target="_top" xlink:title=" ">
<polygon fill="white" stroke="#666666" points="1068.25,-96 944.25,-96 944.25,-76 1068.25,-76 1068.25,-96"/>
<text xml:space="preserve" text-anchor="middle" x="1006.25" y="-82.5" font-family="Helvetica,sans-Serif" font-size="10.00">LGE::LxPath::IsSubPath</text>
</a>
</g>
</g>
<!-- Node9&#45;&gt;Node10 -->
<g id="edge9_Node000009_Node000010" class="edge">
<title>Node9&#45;&gt;Node10</title>
<g id="a_edge9_Node000009_Node000010"><a xlink:title=" ">
<path fill="none" stroke="#63b8ff" d="M890.3,-58.48C908.95,-62.95 930.91,-68.21 950.61,-72.92"/>
<polygon fill="#63b8ff" stroke="#63b8ff" points="949.58,-76.27 960.12,-75.2 951.21,-69.47 949.58,-76.27"/>
</a>
</g>
</g>
<!-- Node11 -->
<g id="Node000011" class="node">
<title>Node11</title>
<g id="a_Node000011"><a xlink:href="namespaceLGE_1_1LxPath.html#a314a60ce690c90f4ee0b4e64c0199408" target="_top" xlink:title=" ">
<polygon fill="white" stroke="#666666" points="1226.75,-96 1104.25,-96 1104.25,-76 1226.75,-76 1226.75,-96"/>
<text xml:space="preserve" text-anchor="middle" x="1165.5" y="-82.5" font-family="Helvetica,sans-Serif" font-size="10.00">LGE::LxPath::Normalize</text>
</a>
</g>
</g>
<!-- Node9&#45;&gt;Node11 -->
<g id="edge12_Node000009_Node000011" class="edge">
<title>Node9&#45;&gt;Node11</title>
<g id="a_edge12_Node000009_Node000011"><a xlink:title=" ">
<path fill="none" stroke="#63b8ff" d="M905.06,-51.26C949.88,-54.19 1013.16,-59.23 1068.25,-67 1080.52,-68.73 1093.58,-71.01 1106,-73.39"/>
<polygon fill="#63b8ff" stroke="#63b8ff" points="1105.22,-76.8 1115.7,-75.3 1106.57,-69.93 1105.22,-76.8"/>
</a>
</g>
</g>
<!-- Node10&#45;&gt;Node11 -->
<g id="edge10_Node000010_Node000011" class="edge">
<title>Node10&#45;&gt;Node11</title>
<g id="a_edge10_Node000010_Node000011"><a xlink:title=" ">
<path fill="none" stroke="#63b8ff" d="M1068.5,-86C1076.41,-86 1084.57,-86 1092.63,-86"/>
<polygon fill="#63b8ff" stroke="#63b8ff" points="1092.42,-89.5 1102.42,-86 1092.42,-82.5 1092.42,-89.5"/>
</a>
</g>
</g>
<!-- Node11&#45;&gt;Node6 -->
<g id="edge11_Node000011_Node000006" class="edge">
<title>Node11&#45;&gt;Node6</title>
<g id="a_edge11_Node000011_Node000006"><a xlink:title=" ">
<path fill="none" stroke="#63b8ff" d="M1227.15,-86C1235.17,-86 1243.34,-86 1251.2,-86"/>
<polygon fill="#63b8ff" stroke="#63b8ff" points="1250.95,-89.5 1260.95,-86 1250.95,-82.5 1250.95,-89.5"/>
</a>
</g>
</g>
<!-- Node13&#45;&gt;Node10 -->
<g id="edge15_Node000013_Node000010" class="edge">
<title>Node13&#45;&gt;Node10</title>
<g id="a_edge15_Node000013_Node000010"><a xlink:title=" ">
<path fill="none" stroke="#63b8ff" d="M890.3,-113.52C908.95,-109.05 930.91,-103.79 950.61,-99.08"/>
<polygon fill="#63b8ff" stroke="#63b8ff" points="951.21,-102.53 960.12,-96.8 949.58,-95.73 951.21,-102.53"/>
</a>
</g>
</g>
<!-- Node13&#45;&gt;Node11 -->
<g id="edge16_Node000013_Node000011" class="edge">
<title>Node13&#45;&gt;Node11</title>
<g id="a_edge16_Node000013_Node000011"><a xlink:title=" ">
<path fill="none" stroke="#63b8ff" d="M908.36,-120.52C952.95,-117.57 1014.49,-112.59 1068.25,-105 1080.52,-103.27 1093.58,-100.99 1106,-98.61"/>
<polygon fill="#63b8ff" stroke="#63b8ff" points="1106.57,-102.07 1115.7,-96.7 1105.22,-95.2 1106.57,-102.07"/>
</a>
</g>
</g>
<!-- Node14&#45;&gt;Node6 -->
<g id="edge18_Node000014_Node000006" class="edge">
<title>Node14&#45;&gt;Node6</title>
<g id="a_edge18_Node000014_Node000006"><a xlink:title=" ">
<path fill="none" stroke="#63b8ff" d="M740.8,-12.98C837.95,-19 1050.35,-34.87 1226.75,-67 1235.82,-68.65 1245.41,-70.74 1254.63,-72.91"/>
<polygon fill="#63b8ff" stroke="#63b8ff" points="1253.62,-76.27 1264.16,-75.24 1255.27,-69.47 1253.62,-76.27"/>
</a>
</g>
</g>
<!-- Node14&#45;&gt;Node9 -->
<g id="edge19_Node000014_Node000009" class="edge">
<title>Node14&#45;&gt;Node9</title>
<g id="a_edge19_Node000014_Node000009"><a xlink:title=" ">
<path fill="none" stroke="#63b8ff" d="M730.91,-20.48C749.25,-24.93 770.84,-30.16 790.23,-34.85"/>
<polygon fill="#63b8ff" stroke="#63b8ff" points="789.35,-38.24 799.89,-37.19 790.99,-31.44 789.35,-38.24"/>
</a>
</g>
</g>
</g>
</svg>
