<?xml version="1.0" encoding="UTF-8" standalone="no"?>
<!DOCTYPE svg PUBLIC "-//W3C//DTD SVG 1.1//EN"
 "http://www.w3.org/Graphics/SVG/1.1/DTD/svg11.dtd">
<!-- Generated by graphviz version 14.0.2 (20251019.1705)
 -->
<!-- Title: LGE::Sync::SyncAssets Pages: 1 -->
<svg width="734pt" height="230pt"
 viewBox="0.00 0.00 734.00 230.00" xmlns="http://www.w3.org/2000/svg" xmlns:xlink="http://www.w3.org/1999/xlink">
<g id="graph0" class="graph" transform="scale(1 1) rotate(0) translate(4 226)">
<title>LGE::Sync::SyncAssets</title>
<!-- Node1 -->
<g id="Node000001" class="node">
<title>Node1</title>
<g id="a_Node000001"><a xlink:title=" ">
<polygon fill="#999999" stroke="#666666" points="123.25,-159 0,-159 0,-139 123.25,-139 123.25,-159"/>
<text xml:space="preserve" text-anchor="middle" x="61.62" y="-145.5" font-family="Helvetica,sans-Serif" font-size="10.00">LGE::Sync::SyncAssets</text>
</a>
</g>
</g>
<!-- Node2 -->
<g id="Node000002" class="node">
<title>Node2</title>
<g id="a_Node000002"><a xlink:href="classLGE_1_1Log.html#ab0265ee050b8873a2fd31fbdb696ced0" target="_top" xlink:title=" ">
<polygon fill="white" stroke="#666666" points="420,-222 340.25,-222 340.25,-202 420,-202 420,-222"/>
<text xml:space="preserve" text-anchor="middle" x="380.12" y="-208.5" font-family="Helvetica,sans-Serif" font-size="10.00">LGE::Log::Info</text>
</a>
</g>
</g>
<!-- Node1&#45;&gt;Node2 -->
<g id="edge1_Node000001_Node000002" class="edge">
<title>Node1&#45;&gt;Node2</title>
<g id="a_edge1_Node000001_Node000002"><a xlink:title=" ">
<path fill="none" stroke="#63b8ff" d="M115.24,-159.47C174.57,-171.28 270.34,-190.35 328.74,-201.97"/>
<polygon fill="#63b8ff" stroke="#63b8ff" points="327.92,-205.38 338.41,-203.9 329.29,-198.51 327.92,-205.38"/>
</a>
</g>
</g>
<!-- Node3 -->
<g id="Node000003" class="node">
<title>Node3</title>
<g id="a_Node000003"><a xlink:href="namespaceLGE_1_1Sync.html#a48fdda73c66562db90bf3f61f40cca62" target="_top" xlink:title=" ">
<polygon fill="white" stroke="#666666" points="277.25,-140 159.25,-140 159.25,-120 277.25,-120 277.25,-140"/>
<text xml:space="preserve" text-anchor="middle" x="218.25" y="-126.5" font-family="Helvetica,sans-Serif" font-size="10.00">LGE::Sync::SyncAsset</text>
</a>
</g>
</g>
<!-- Node1&#45;&gt;Node3 -->
<g id="edge2_Node000001_Node000003" class="edge">
<title>Node1&#45;&gt;Node3</title>
<g id="a_edge2_Node000001_Node000003"><a xlink:title=" ">
<path fill="none" stroke="#63b8ff" d="M123.74,-141.49C131.6,-140.52 139.69,-139.53 147.67,-138.55"/>
<polygon fill="#63b8ff" stroke="#63b8ff" points="147.85,-142.05 157.35,-137.36 147,-135.11 147.85,-142.05"/>
</a>
</g>
</g>
<!-- Node3&#45;&gt;Node2 -->
<g id="edge9_Node000003_Node000002" class="edge">
<title>Node3&#45;&gt;Node2</title>
<g id="a_edge9_Node000003_Node000002"><a xlink:title=" ">
<path fill="none" stroke="#63b8ff" d="M231.87,-140.34C249.23,-154.1 281.9,-178.41 313.25,-193 318.38,-195.39 323.87,-197.54 329.42,-199.47"/>
<polygon fill="#63b8ff" stroke="#63b8ff" points="328.05,-202.7 338.64,-202.44 330.19,-196.04 328.05,-202.7"/>
</a>
</g>
</g>
<!-- Node4 -->
<g id="Node000004" class="node">
<title>Node4</title>
<g id="a_Node000004"><a xlink:href="namespaceLGE_1_1LxFile.html#a11e62876b312a11b881b484bb3a5ee71" target="_top" xlink:title=" ">
<polygon fill="white" stroke="#666666" points="430.88,-184 329.38,-184 329.38,-164 430.88,-164 430.88,-184"/>
<text xml:space="preserve" text-anchor="middle" x="380.12" y="-170.5" font-family="Helvetica,sans-Serif" font-size="10.00">LGE::LxFile::Exists</text>
</a>
</g>
</g>
<!-- Node3&#45;&gt;Node4 -->
<g id="edge3_Node000003_Node000004" class="edge">
<title>Node3&#45;&gt;Node4</title>
<g id="a_edge3_Node000003_Node000004"><a xlink:title=" ">
<path fill="none" stroke="#63b8ff" d="M257.14,-140.43C279.06,-146.46 306.88,-154.12 330.41,-160.59"/>
<polygon fill="#63b8ff" stroke="#63b8ff" points="329.2,-163.89 339.77,-163.17 331.06,-157.14 329.2,-163.89"/>
</a>
</g>
</g>
<!-- Node5 -->
<g id="Node000005" class="node">
<title>Node5</title>
<g id="a_Node000005"><a xlink:href="namespaceLGE_1_1AssetRegistry.html#a9e672f9e3c8c62076b9156d1695e48b8" target="_top" xlink:title=" ">
<polygon fill="white" stroke="#666666" points="432,-146 328.25,-146 328.25,-114 432,-114 432,-146"/>
<text xml:space="preserve" text-anchor="start" x="336.25" y="-132.5" font-family="Helvetica,sans-Serif" font-size="10.00">LGE::AssetRegistry</text>
<text xml:space="preserve" text-anchor="middle" x="380.12" y="-120.5" font-family="Helvetica,sans-Serif" font-size="10.00">::FindByGUID</text>
</a>
</g>
</g>
<!-- Node3&#45;&gt;Node5 -->
<g id="edge4_Node000003_Node000005" class="edge">
<title>Node3&#45;&gt;Node5</title>
<g id="a_edge4_Node000003_Node000005"><a xlink:title=" ">
<path fill="none" stroke="#63b8ff" d="M277.42,-130C290.2,-130 303.77,-130 316.71,-130"/>
<polygon fill="#63b8ff" stroke="#63b8ff" points="316.36,-133.5 326.36,-130 316.36,-126.5 316.36,-133.5"/>
</a>
</g>
</g>
<!-- Node6 -->
<g id="Node000006" class="node">
<title>Node6</title>
<g id="a_Node000006"><a xlink:href="namespaceLGE_1_1LxPath.html#a282200340a7ec214f14f5d64e9e41396" target="_top" xlink:title=" ">
<polygon fill="white" stroke="#666666" points="447,-96 313.25,-96 313.25,-76 447,-76 447,-96"/>
<text xml:space="preserve" text-anchor="middle" x="380.12" y="-82.5" font-family="Helvetica,sans-Serif" font-size="10.00">LGE::LxPath::GetFilename</text>
</a>
</g>
</g>
<!-- Node3&#45;&gt;Node6 -->
<g id="edge5_Node000003_Node000006" class="edge">
<title>Node3&#45;&gt;Node6</title>
<g id="a_edge5_Node000003_Node000006"><a xlink:title=" ">
<path fill="none" stroke="#63b8ff" d="M257.14,-119.57C279.06,-113.54 306.88,-105.88 330.41,-99.41"/>
<polygon fill="#63b8ff" stroke="#63b8ff" points="331.06,-102.86 339.77,-96.83 329.2,-96.11 331.06,-102.86"/>
</a>
</g>
</g>
<!-- Node9 -->
<g id="Node000009" class="node">
<title>Node9</title>
<g id="a_Node000009"><a xlink:href="namespaceLGE_1_1LxFile.html#a40751ea42c228d8e2c6f6b0788e24aa7" target="_top" xlink:title=" ">
<polygon fill="white" stroke="#666666" points="442.5,-58 317.75,-58 317.75,-38 442.5,-38 442.5,-58"/>
<text xml:space="preserve" text-anchor="middle" x="380.12" y="-44.5" font-family="Helvetica,sans-Serif" font-size="10.00">LGE::LxFile::GetFileSize</text>
</a>
</g>
</g>
<!-- Node3&#45;&gt;Node9 -->
<g id="edge8_Node000003_Node000009" class="edge">
<title>Node3&#45;&gt;Node9</title>
<g id="a_edge8_Node000003_Node000009"><a xlink:title=" ">
<path fill="none" stroke="#63b8ff" d="M231.87,-119.66C249.23,-105.9 281.9,-81.59 313.25,-67 316.98,-65.27 320.9,-63.65 324.89,-62.16"/>
<polygon fill="#63b8ff" stroke="#63b8ff" points="325.8,-65.55 334.12,-58.99 323.52,-58.93 325.8,-65.55"/>
</a>
</g>
</g>
<!-- Node10 -->
<g id="Node000010" class="node">
<title>Node10</title>
<g id="a_Node000010"><a xlink:href="namespaceLGE_1_1LxPath.html#a94ec3bdfd6948ddc25cda5d18154d4cf" target="_top" xlink:title=" ">
<polygon fill="white" stroke="#666666" points="428.25,-20 332,-20 332,0 428.25,0 428.25,-20"/>
<text xml:space="preserve" text-anchor="middle" x="380.12" y="-6.5" font-family="Helvetica,sans-Serif" font-size="10.00">LGE::LxPath::Join</text>
</a>
</g>
</g>
<!-- Node3&#45;&gt;Node10 -->
<g id="edge10_Node000003_Node000010" class="edge">
<title>Node3&#45;&gt;Node10</title>
<g id="a_edge10_Node000003_Node000010"><a xlink:title=" ">
<path fill="none" stroke="#63b8ff" d="M225.94,-119.69C239.74,-99.26 273.45,-53.46 313.25,-29 315.82,-27.42 318.53,-25.96 321.33,-24.63"/>
<polygon fill="#63b8ff" stroke="#63b8ff" points="322.45,-27.95 330.33,-20.86 319.75,-21.49 322.45,-27.95"/>
</a>
</g>
</g>
<!-- Node7 -->
<g id="Node000007" class="node">
<title>Node7</title>
<g id="a_Node000007"><a xlink:href="namespaceLGE_1_1LxPath.html#a314a60ce690c90f4ee0b4e64c0199408" target="_top" xlink:title=" ">
<polygon fill="white" stroke="#666666" points="605.5,-58 483,-58 483,-38 605.5,-38 605.5,-58"/>
<text xml:space="preserve" text-anchor="middle" x="544.25" y="-44.5" font-family="Helvetica,sans-Serif" font-size="10.00">LGE::LxPath::Normalize</text>
</a>
</g>
</g>
<!-- Node6&#45;&gt;Node7 -->
<g id="edge6_Node000006_Node000007" class="edge">
<title>Node6&#45;&gt;Node7</title>
<g id="a_edge6_Node000006_Node000007"><a xlink:title=" ">
<path fill="none" stroke="#63b8ff" d="M425.86,-75.52C444.99,-71.03 467.54,-65.75 487.73,-61.01"/>
<polygon fill="#63b8ff" stroke="#63b8ff" points="488.25,-64.49 497.19,-58.8 486.66,-57.67 488.25,-64.49"/>
</a>
</g>
</g>
<!-- Node8 -->
<g id="Node000008" class="node">
<title>Node8</title>
<g id="a_Node000008"><a xlink:href="classLGE_1_1Log.html#a53f3f4b8797ffd18145739c9e66d690a" target="_top" xlink:title=" ">
<polygon fill="white" stroke="#666666" points="725.75,-58 641.5,-58 641.5,-38 725.75,-38 725.75,-58"/>
<text xml:space="preserve" text-anchor="middle" x="683.62" y="-44.5" font-family="Helvetica,sans-Serif" font-size="10.00">LGE::Log::Error</text>
</a>
</g>
</g>
<!-- Node7&#45;&gt;Node8 -->
<g id="edge7_Node000007_Node000008" class="edge">
<title>Node7&#45;&gt;Node8</title>
<g id="a_edge7_Node000007_Node000008"><a xlink:title=" ">
<path fill="none" stroke="#63b8ff" d="M605.9,-48C613.92,-48 622.09,-48 629.95,-48"/>
<polygon fill="#63b8ff" stroke="#63b8ff" points="629.7,-51.5 639.7,-48 629.7,-44.5 629.7,-51.5"/>
</a>
</g>
</g>
<!-- Node10&#45;&gt;Node7 -->
<g id="edge11_Node000010_Node000007" class="edge">
<title>Node10&#45;&gt;Node7</title>
<g id="a_edge11_Node000010_Node000007"><a xlink:title=" ">
<path fill="none" stroke="#63b8ff" d="M425.86,-20.48C444.99,-24.97 467.54,-30.25 487.73,-34.99"/>
<polygon fill="#63b8ff" stroke="#63b8ff" points="486.66,-38.33 497.19,-37.2 488.25,-31.51 486.66,-38.33"/>
</a>
</g>
</g>
</g>
</svg>
