<?xml version="1.0" encoding="UTF-8" standalone="no"?>
<!DOCTYPE svg PUBLIC "-//W3C//DTD SVG 1.1//EN"
 "http://www.w3.org/Graphics/SVG/1.1/DTD/svg11.dtd">
<!-- Generated by graphviz version 14.0.2 (20251019.1705)
 -->
<!-- Title: LGE::Cache::PutFromFile Pages: 1 -->
<svg width="1013pt" height="117pt"
 viewBox="0.00 0.00 1013.00 117.00" xmlns="http://www.w3.org/2000/svg" xmlns:xlink="http://www.w3.org/1999/xlink">
<g id="graph0" class="graph" transform="scale(1 1) rotate(0) translate(4 113.21)">
<title>LGE::Cache::PutFromFile</title>
<!-- Node1 -->
<g id="Node000001" class="node">
<title>Node1</title>
<g id="a_Node000001"><a xlink:title=" ">
<polygon fill="#999999" stroke="#666666" points="129.25,-70 0,-70 0,-50 129.25,-50 129.25,-70"/>
<text xml:space="preserve" text-anchor="middle" x="64.62" y="-56.5" font-family="Helvetica,sans-Serif" font-size="10.00">LGE::Cache::PutFromFile</text>
</a>
</g>
</g>
<!-- Node2 -->
<g id="Node000002" class="node">
<title>Node2</title>
<g id="a_Node000002"><a xlink:href="namespaceLGE_1_1LxFile.html#a11e62876b312a11b881b484bb3a5ee71" target="_top" xlink:title=" ">
<polygon fill="white" stroke="#666666" points="266.75,-108 165.25,-108 165.25,-88 266.75,-88 266.75,-108"/>
<text xml:space="preserve" text-anchor="middle" x="216" y="-94.5" font-family="Helvetica,sans-Serif" font-size="10.00">LGE::LxFile::Exists</text>
</a>
</g>
</g>
<!-- Node1&#45;&gt;Node2 -->
<g id="edge1_Node000001_Node000002" class="edge">
<title>Node1&#45;&gt;Node2</title>
<g id="a_edge1_Node000001_Node000002"><a xlink:title=" ">
<path fill="none" stroke="#63b8ff" d="M106.84,-70.48C124.14,-74.89 144.47,-80.06 162.81,-84.72"/>
<polygon fill="#63b8ff" stroke="#63b8ff" points="161.9,-88.1 172.45,-87.18 163.63,-81.32 161.9,-88.1"/>
</a>
</g>
</g>
<!-- Node3 -->
<g id="Node000003" class="node">
<title>Node3</title>
<g id="a_Node000003"><a xlink:href="namespaceLGE_1_1Cache.html#afe77bb5dbd07433353a9dfa47d5153c8" target="_top" xlink:title=" ">
<polygon fill="white" stroke="#666666" points="261.5,-70 170.5,-70 170.5,-50 261.5,-50 261.5,-70"/>
<text xml:space="preserve" text-anchor="middle" x="216" y="-56.5" font-family="Helvetica,sans-Serif" font-size="10.00">LGE::Cache::Put</text>
</a>
</g>
</g>
<!-- Node1&#45;&gt;Node3 -->
<g id="edge2_Node000001_Node000003" class="edge">
<title>Node1&#45;&gt;Node3</title>
<g id="a_edge2_Node000001_Node000003"><a xlink:title=" ">
<path fill="none" stroke="#63b8ff" d="M129.41,-60C139.22,-60 149.28,-60 158.91,-60"/>
<polygon fill="#63b8ff" stroke="#63b8ff" points="158.87,-63.5 168.87,-60 158.87,-56.5 158.87,-63.5"/>
</a>
</g>
</g>
<!-- Node9 -->
<g id="Node000009" class="node">
<title>Node9</title>
<g id="a_Node000009"><a xlink:href="namespaceLGE_1_1LxFile.html#ac0a61f0e1f49fdcf553f007750c1ba37" target="_top" xlink:title=" ">
<polygon fill="white" stroke="#666666" points="411,-20 302.75,-20 302.75,0 411,0 411,-20"/>
<text xml:space="preserve" text-anchor="middle" x="356.88" y="-6.5" font-family="Helvetica,sans-Serif" font-size="10.00">LGE::LxFile::ReadAll</text>
</a>
</g>
</g>
<!-- Node1&#45;&gt;Node9 -->
<g id="edge10_Node000001_Node000009" class="edge">
<title>Node1&#45;&gt;Node9</title>
<g id="a_edge10_Node000001_Node000009"><a xlink:title=" ">
<path fill="none" stroke="#63b8ff" d="M119.09,-49.53C134.01,-46.68 150.25,-43.65 165.25,-41 207.14,-33.6 254.33,-25.92 291.28,-20.06"/>
<polygon fill="#63b8ff" stroke="#63b8ff" points="291.57,-23.55 300.91,-18.53 290.48,-16.64 291.57,-23.55"/>
</a>
</g>
</g>
<!-- Node4 -->
<g id="Node000004" class="node">
<title>Node4</title>
<g id="a_Node000004"><a xlink:href="namespaceLGE_1_1LxFile.html#a06d0b8c5590da8bc48cf22d321fc4074" target="_top" xlink:title=" ">
<polygon fill="white" stroke="#666666" points="410.62,-75 303.12,-75 303.12,-55 410.62,-55 410.62,-75"/>
<text xml:space="preserve" text-anchor="middle" x="356.88" y="-61.5" font-family="Helvetica,sans-Serif" font-size="10.00">LGE::LxFile::WriteAll</text>
</a>
</g>
</g>
<!-- Node3&#45;&gt;Node4 -->
<g id="edge3_Node000003_Node000004" class="edge">
<title>Node3&#45;&gt;Node4</title>
<g id="a_edge3_Node000003_Node000004"><a xlink:title=" ">
<path fill="none" stroke="#63b8ff" d="M261.71,-61.61C271.27,-61.95 281.55,-62.32 291.69,-62.69"/>
<polygon fill="#63b8ff" stroke="#63b8ff" points="291.38,-66.18 301.5,-63.04 291.64,-59.18 291.38,-66.18"/>
</a>
</g>
</g>
<!-- Node5 -->
<g id="Node000005" class="node">
<title>Node5</title>
<g id="a_Node000005"><a xlink:href="classLGE_1_1Log.html#a53f3f4b8797ffd18145739c9e66d690a" target="_top" xlink:title=" ">
<polygon fill="white" stroke="#666666" points="1004.5,-75 920.25,-75 920.25,-55 1004.5,-55 1004.5,-75"/>
<text xml:space="preserve" text-anchor="middle" x="962.38" y="-61.5" font-family="Helvetica,sans-Serif" font-size="10.00">LGE::Log::Error</text>
</a>
</g>
</g>
<!-- Node4&#45;&gt;Node5 -->
<g id="edge4_Node000004_Node000005" class="edge">
<title>Node4&#45;&gt;Node5</title>
<g id="a_edge4_Node000004_Node000005"><a xlink:title=" ">
<path fill="none" stroke="#63b8ff" d="M403.07,-75.44C417.1,-78.46 432.65,-81.59 447,-84 638.66,-116.13 693.07,-118.87 884.25,-84 893.32,-82.35 902.9,-80.26 912.12,-78.08"/>
<polygon fill="#63b8ff" stroke="#63b8ff" points="912.77,-81.53 921.66,-75.76 911.11,-74.73 912.77,-81.53"/>
</a>
</g>
</g>
<!-- Node6 -->
<g id="Node000006" class="node">
<title>Node6</title>
<g id="a_Node000006"><a xlink:href="namespaceLGE_1_1VFS.html#abb5d35abfe80efe2f7a07394ad5b706a" target="_top" xlink:title=" ">
<polygon fill="white" stroke="#666666" points="565.75,-75 447,-75 447,-55 565.75,-55 565.75,-75"/>
<text xml:space="preserve" text-anchor="middle" x="506.38" y="-61.5" font-family="Helvetica,sans-Serif" font-size="10.00">LGE::VFS::IsReadOnly</text>
</a>
</g>
</g>
<!-- Node4&#45;&gt;Node6 -->
<g id="edge5_Node000004_Node000006" class="edge">
<title>Node4&#45;&gt;Node6</title>
<g id="a_edge5_Node000004_Node000006"><a xlink:title=" ">
<path fill="none" stroke="#63b8ff" d="M410.71,-65C418.72,-65 427.09,-65 435.4,-65"/>
<polygon fill="#63b8ff" stroke="#63b8ff" points="435.14,-68.5 445.14,-65 435.14,-61.5 435.14,-68.5"/>
</a>
</g>
</g>
<!-- Node7 -->
<g id="Node000007" class="node">
<title>Node7</title>
<g id="a_Node000007"><a xlink:href="namespaceLGE_1_1LxPath.html#ab664986e94ce09aa029f9eb2fcf50133" target="_top" xlink:title=" ">
<polygon fill="white" stroke="#666666" points="725.75,-94 601.75,-94 601.75,-74 725.75,-74 725.75,-94"/>
<text xml:space="preserve" text-anchor="middle" x="663.75" y="-80.5" font-family="Helvetica,sans-Serif" font-size="10.00">LGE::LxPath::IsSubPath</text>
</a>
</g>
</g>
<!-- Node6&#45;&gt;Node7 -->
<g id="edge6_Node000006_Node000007" class="edge">
<title>Node6&#45;&gt;Node7</title>
<g id="a_edge6_Node000006_Node000007"><a xlink:title=" ">
<path fill="none" stroke="#63b8ff" d="M566.12,-72.18C573.94,-73.14 582.04,-74.13 590.07,-75.11"/>
<polygon fill="#63b8ff" stroke="#63b8ff" points="589.48,-78.57 599.84,-76.31 590.33,-71.62 589.48,-78.57"/>
</a>
</g>
</g>
<!-- Node8 -->
<g id="Node000008" class="node">
<title>Node8</title>
<g id="a_Node000008"><a xlink:href="namespaceLGE_1_1LxPath.html#a314a60ce690c90f4ee0b4e64c0199408" target="_top" xlink:title=" ">
<polygon fill="white" stroke="#666666" points="884.25,-75 761.75,-75 761.75,-55 884.25,-55 884.25,-75"/>
<text xml:space="preserve" text-anchor="middle" x="823" y="-61.5" font-family="Helvetica,sans-Serif" font-size="10.00">LGE::LxPath::Normalize</text>
</a>
</g>
</g>
<!-- Node6&#45;&gt;Node8 -->
<g id="edge9_Node000006_Node000008" class="edge">
<title>Node6&#45;&gt;Node8</title>
<g id="a_edge9_Node000006_Node000008"><a xlink:title=" ">
<path fill="none" stroke="#63b8ff" d="M566.18,-65C618.27,-65 694.45,-65 750.13,-65"/>
<polygon fill="#63b8ff" stroke="#63b8ff" points="749.82,-68.5 759.82,-65 749.82,-61.5 749.82,-68.5"/>
</a>
</g>
</g>
<!-- Node7&#45;&gt;Node8 -->
<g id="edge7_Node000007_Node000008" class="edge">
<title>Node7&#45;&gt;Node8</title>
<g id="a_edge7_Node000007_Node000008"><a xlink:title=" ">
<path fill="none" stroke="#63b8ff" d="M726,-76.6C733.91,-75.64 742.07,-74.66 750.13,-73.68"/>
<polygon fill="#63b8ff" stroke="#63b8ff" points="750.43,-77.17 759.93,-72.5 749.59,-70.22 750.43,-77.17"/>
</a>
</g>
</g>
<!-- Node8&#45;&gt;Node5 -->
<g id="edge8_Node000008_Node000005" class="edge">
<title>Node8&#45;&gt;Node5</title>
<g id="a_edge8_Node000008_Node000005"><a xlink:title=" ">
<path fill="none" stroke="#63b8ff" d="M884.65,-65C892.67,-65 900.84,-65 908.7,-65"/>
<polygon fill="#63b8ff" stroke="#63b8ff" points="908.45,-68.5 918.45,-65 908.45,-61.5 908.45,-68.5"/>
</a>
</g>
</g>
<!-- Node9&#45;&gt;Node5 -->
<g id="edge11_Node000009_Node000005" class="edge">
<title>Node9&#45;&gt;Node5</title>
<g id="a_edge11_Node000009_Node000005"><a xlink:title=" ">
<path fill="none" stroke="#63b8ff" d="M411.26,-10.6C506.73,-12.36 712.75,-19.22 884.25,-46 893.75,-47.48 903.79,-49.57 913.38,-51.82"/>
<polygon fill="#63b8ff" stroke="#63b8ff" points="912.36,-55.17 922.9,-54.15 914.02,-48.37 912.36,-55.17"/>
</a>
</g>
</g>
</g>
</svg>
