<?xml version="1.0" encoding="UTF-8" standalone="no"?>
<!DOCTYPE svg PUBLIC "-//W3C//DTD SVG 1.1//EN"
 "http://www.w3.org/Graphics/SVG/1.1/DTD/svg11.dtd">
<!-- Generated by graphviz version 14.0.2 (20251019.1705)
 -->
<!-- Title: LGE::Migration::MigrateManifest Pages: 1 -->
<svg width="354pt" height="116pt"
 viewBox="0.00 0.00 354.00 116.00" xmlns="http://www.w3.org/2000/svg" xmlns:xlink="http://www.w3.org/1999/xlink">
<g id="graph0" class="graph" transform="scale(1 1) rotate(0) translate(4 112)">
<title>LGE::Migration::MigrateManifest</title>
<!-- Node1 -->
<g id="Node000001" class="node">
<title>Node1</title>
<g id="a_Node000001"><a xlink:title=" ">
<polygon fill="#999999" stroke="#666666" points="157,-70 0,-70 0,-50 157,-50 157,-70"/>
<text xml:space="preserve" text-anchor="middle" x="78.5" y="-56.5" font-family="Helvetica,sans-Serif" font-size="10.00">LGE::Migration::MigrateManifest</text>
</a>
</g>
</g>
<!-- Node2 -->
<g id="Node000002" class="node">
<title>Node2</title>
<g id="a_Node000002"><a xlink:href="namespaceLGE_1_1MetaDB.html#aa5218c5875c7c064fac11782f4ca1783" target="_top" xlink:title=" ">
<polygon fill="white" stroke="#666666" points="344,-108 195.25,-108 195.25,-88 344,-88 344,-108"/>
<text xml:space="preserve" text-anchor="middle" x="269.62" y="-94.5" font-family="Helvetica,sans-Serif" font-size="10.00">LGE::MetaDB::GenerateGUID</text>
</a>
</g>
</g>
<!-- Node1&#45;&gt;Node2 -->
<g id="edge1_Node000001_Node000002" class="edge">
<title>Node1&#45;&gt;Node2</title>
<g id="a_edge1_Node000001_Node000002"><a xlink:title=" ">
<path fill="none" stroke="#63b8ff" d="M131.68,-70.48C154.52,-75.07 181.52,-80.5 205.49,-85.31"/>
<polygon fill="#63b8ff" stroke="#63b8ff" points="204.64,-88.71 215.13,-87.25 206.02,-81.85 204.64,-88.71"/>
</a>
</g>
</g>
<!-- Node3 -->
<g id="Node000003" class="node">
<title>Node3</title>
<g id="a_Node000003"><a xlink:href="classLGE_1_1Log.html#ab0265ee050b8873a2fd31fbdb696ced0" target="_top" xlink:title=" ">
<polygon fill="white" stroke="#666666" points="309.5,-70 229.75,-70 229.75,-50 309.5,-50 309.5,-70"/>
<text xml:space="preserve" text-anchor="middle" x="269.62" y="-56.5" font-family="Helvetica,sans-Serif" font-size="10.00">LGE::Log::Info</text>
</a>
</g>
</g>
<!-- Node1&#45;&gt;Node3 -->
<g id="edge2_Node000001_Node000003" class="edge">
<title>Node1&#45;&gt;Node3</title>
<g id="a_edge2_Node000001_Node000003"><a xlink:title=" ">
<path fill="none" stroke="#63b8ff" d="M157.24,-60C177.73,-60 199.31,-60 217.96,-60"/>
<polygon fill="#63b8ff" stroke="#63b8ff" points="217.94,-63.5 227.94,-60 217.94,-56.5 217.94,-63.5"/>
</a>
</g>
</g>
<!-- Node4 -->
<g id="Node000004" class="node">
<title>Node4</title>
<g id="a_Node000004"><a xlink:href="namespaceLGE_1_1Migration.html#ad2e0aa4e3fa0c4300ecf31c7f53a5d29" target="_top" xlink:title=" ">
<polygon fill="white" stroke="#666666" points="346.25,-32 193,-32 193,0 346.25,0 346.25,-32"/>
<text xml:space="preserve" text-anchor="start" x="201" y="-18.5" font-family="Helvetica,sans-Serif" font-size="10.00">LGE::Migration::NeedsManifest</text>
<text xml:space="preserve" text-anchor="middle" x="269.62" y="-6.5" font-family="Helvetica,sans-Serif" font-size="10.00">Migration</text>
</a>
</g>
</g>
<!-- Node1&#45;&gt;Node4 -->
<g id="edge3_Node000001_Node000004" class="edge">
<title>Node1&#45;&gt;Node4</title>
<g id="a_edge3_Node000001_Node000004"><a xlink:title=" ">
<path fill="none" stroke="#63b8ff" d="M124.32,-49.57C143.02,-45.22 165.34,-40.03 186.78,-35.04"/>
<polygon fill="#63b8ff" stroke="#63b8ff" points="187.46,-38.48 196.41,-32.8 185.87,-31.66 187.46,-38.48"/>
</a>
</g>
</g>
</g>
</svg>
