<?xml version="1.0" encoding="UTF-8" standalone="no"?>
<!DOCTYPE svg PUBLIC "-//W3C//DTD SVG 1.1//EN"
 "http://www.w3.org/Graphics/SVG/1.1/DTD/svg11.dtd">
<!-- Generated by graphviz version 14.0.2 (20251019.1705)
 -->
<!-- Title: LGE::Recycle::List Pages: 1 -->
<svg width="435pt" height="129pt"
 viewBox="0.00 0.00 435.00 129.00" xmlns="http://www.w3.org/2000/svg" xmlns:xlink="http://www.w3.org/1999/xlink">
<g id="graph0" class="graph" transform="scale(1 1) rotate(0) translate(4 125)">
<title>LGE::Recycle::List</title>
<!-- Node1 -->
<g id="Node000001" class="node">
<title>Node1</title>
<g id="a_Node000001"><a xlink:title=" ">
<polygon fill="#999999" stroke="#666666" points="99.25,-83 0,-83 0,-63 99.25,-63 99.25,-83"/>
<text xml:space="preserve" text-anchor="middle" x="49.62" y="-69.5" font-family="Helvetica,sans-Serif" font-size="10.00">LGE::Recycle::List</text>
</a>
</g>
</g>
<!-- Node2 -->
<g id="Node000002" class="node">
<title>Node2</title>
<g id="a_Node000002"><a xlink:href="classLGE_1_1Log.html#a53f3f4b8797ffd18145739c9e66d690a" target="_top" xlink:title=" ">
<polygon fill="white" stroke="#666666" points="245,-121 160.75,-121 160.75,-101 245,-101 245,-121"/>
<text xml:space="preserve" text-anchor="middle" x="202.88" y="-107.5" font-family="Helvetica,sans-Serif" font-size="10.00">LGE::Log::Error</text>
</a>
</g>
</g>
<!-- Node1&#45;&gt;Node2 -->
<g id="edge1_Node000001_Node000002" class="edge">
<title>Node1&#45;&gt;Node2</title>
<g id="a_edge1_Node000001_Node000002"><a xlink:title=" ">
<path fill="none" stroke="#63b8ff" d="M92.36,-83.48C109.96,-87.91 130.66,-93.11 149.29,-97.79"/>
<polygon fill="#63b8ff" stroke="#63b8ff" points="148.26,-101.14 158.81,-100.18 149.97,-94.35 148.26,-101.14"/>
</a>
</g>
</g>
<!-- Node3 -->
<g id="Node000003" class="node">
<title>Node3</title>
<g id="a_Node000003"><a xlink:href="namespaceLGE_1_1LxFile.html#a11e62876b312a11b881b484bb3a5ee71" target="_top" xlink:title=" ">
<polygon fill="white" stroke="#666666" points="253.62,-83 152.12,-83 152.12,-63 253.62,-63 253.62,-83"/>
<text xml:space="preserve" text-anchor="middle" x="202.88" y="-69.5" font-family="Helvetica,sans-Serif" font-size="10.00">LGE::LxFile::Exists</text>
</a>
</g>
</g>
<!-- Node1&#45;&gt;Node3 -->
<g id="edge2_Node000001_Node000003" class="edge">
<title>Node1&#45;&gt;Node3</title>
<g id="a_edge2_Node000001_Node000003"><a xlink:title=" ">
<path fill="none" stroke="#63b8ff" d="M99.73,-73C112.74,-73 126.94,-73 140.51,-73"/>
<polygon fill="#63b8ff" stroke="#63b8ff" points="140.21,-76.5 150.21,-73 140.2,-69.5 140.21,-76.5"/>
</a>
</g>
</g>
<!-- Node4 -->
<g id="Node000004" class="node">
<title>Node4</title>
<g id="a_Node000004"><a xlink:href="namespaceLGE_1_1Recycle.html#a6b2b1d5c0fd3a02630fc333108cf01d4" target="_top" xlink:title=" ">
<polygon fill="white" stroke="#666666" points="270.5,-45 135.25,-45 135.25,-13 270.5,-13 270.5,-45"/>
<text xml:space="preserve" text-anchor="start" x="143.25" y="-31.5" font-family="Helvetica,sans-Serif" font-size="10.00">LGE::Recycle::GetRecycle</text>
<text xml:space="preserve" text-anchor="middle" x="202.88" y="-19.5" font-family="Helvetica,sans-Serif" font-size="10.00">BinPath</text>
</a>
</g>
</g>
<!-- Node1&#45;&gt;Node4 -->
<g id="edge3_Node000001_Node000004" class="edge">
<title>Node1&#45;&gt;Node4</title>
<g id="a_edge3_Node000001_Node000004"><a xlink:title=" ">
<path fill="none" stroke="#63b8ff" d="M86.47,-62.57C100.87,-58.38 117.97,-53.41 134.53,-48.59"/>
<polygon fill="#63b8ff" stroke="#63b8ff" points="135.22,-52.04 143.84,-45.88 133.27,-45.31 135.22,-52.04"/>
</a>
</g>
</g>
<!-- Node5 -->
<g id="Node000005" class="node">
<title>Node5</title>
<g id="a_Node000005"><a xlink:href="namespaceLGE_1_1LxFS.html#a5684a30f3fa2906f4dafed0258a79166" target="_top" xlink:title=" ">
<polygon fill="white" stroke="#666666" points="426.75,-58 306.5,-58 306.5,-38 426.75,-38 426.75,-58"/>
<text xml:space="preserve" text-anchor="middle" x="366.62" y="-44.5" font-family="Helvetica,sans-Serif" font-size="10.00">LGE::LxFS::IsInitialized</text>
</a>
</g>
</g>
<!-- Node4&#45;&gt;Node5 -->
<g id="edge4_Node000004_Node000005" class="edge">
<title>Node4&#45;&gt;Node5</title>
<g id="a_edge4_Node000004_Node000005"><a xlink:title=" ">
<path fill="none" stroke="#63b8ff" d="M270.6,-36.84C278.58,-37.78 286.76,-38.74 294.8,-39.68"/>
<polygon fill="#63b8ff" stroke="#63b8ff" points="294.2,-43.13 304.54,-40.82 295.02,-36.18 294.2,-43.13"/>
</a>
</g>
</g>
<!-- Node6 -->
<g id="Node000006" class="node">
<title>Node6</title>
<g id="a_Node000006"><a xlink:href="namespaceLGE_1_1LxFS.html#a12aeb6699602f14153953dceb4284914" target="_top" xlink:title=" ">
<polygon fill="white" stroke="#666666" points="414.75,-20 318.5,-20 318.5,0 414.75,0 414.75,-20"/>
<text xml:space="preserve" text-anchor="middle" x="366.62" y="-6.5" font-family="Helvetica,sans-Serif" font-size="10.00">LGE::LxFS::Paths</text>
</a>
</g>
</g>
<!-- Node4&#45;&gt;Node6 -->
<g id="edge5_Node000004_Node000006" class="edge">
<title>Node4&#45;&gt;Node6</title>
<g id="a_edge5_Node000004_Node000006"><a xlink:title=" ">
<path fill="none" stroke="#63b8ff" d="M270.6,-21.16C282.73,-19.74 295.31,-18.26 307.18,-16.87"/>
<polygon fill="#63b8ff" stroke="#63b8ff" points="307.28,-20.38 316.81,-15.73 306.47,-13.43 307.28,-20.38"/>
</a>
</g>
</g>
</g>
</svg>
