<?xml version="1.0" encoding="UTF-8" standalone="no"?>
<!DOCTYPE svg PUBLIC "-//W3C//DTD SVG 1.1//EN"
 "http://www.w3.org/Graphics/SVG/1.1/DTD/svg11.dtd">
<!-- Generated by graphviz version 14.0.2 (20251019.1705)
 -->
<!-- Title: LGE::Migration::MigrateAllMetadata Pages: 1 -->
<svg width="1293pt" height="724pt"
 viewBox="0.00 0.00 1293.00 724.00" xmlns="http://www.w3.org/2000/svg" xmlns:xlink="http://www.w3.org/1999/xlink">
<g id="graph0" class="graph" transform="scale(1 1) rotate(0) translate(4 720)">
<title>LGE::Migration::MigrateAllMetadata</title>
<!-- Node1 -->
<g id="Node000001" class="node">
<title>Node1</title>
<g id="a_Node000001"><a xlink:title=" ">
<polygon fill="#999999" stroke="#666666" points="130.75,-320 0,-320 0,-288 130.75,-288 130.75,-320"/>
<text xml:space="preserve" text-anchor="start" x="8" y="-306.5" font-family="Helvetica,sans-Serif" font-size="10.00">LGE::Migration::MigrateAll</text>
<text xml:space="preserve" text-anchor="middle" x="65.38" y="-294.5" font-family="Helvetica,sans-Serif" font-size="10.00">Metadata</text>
</a>
</g>
</g>
<!-- Node2 -->
<g id="Node000002" class="node">
<title>Node2</title>
<g id="a_Node000002"><a xlink:href="namespaceLGE_1_1AssetRegistry.html#ad149a48ca6d3fb38debc8c384f1e0b18" target="_top" xlink:title=" ">
<polygon fill="white" stroke="#666666" points="279.5,-640 175.75,-640 175.75,-608 279.5,-608 279.5,-640"/>
<text xml:space="preserve" text-anchor="start" x="183.75" y="-626.5" font-family="Helvetica,sans-Serif" font-size="10.00">LGE::AssetRegistry</text>
<text xml:space="preserve" text-anchor="middle" x="227.62" y="-614.5" font-family="Helvetica,sans-Serif" font-size="10.00">::AddOrUpdate</text>
</a>
</g>
</g>
<!-- Node1&#45;&gt;Node2 -->
<g id="edge1_Node000001_Node000002" class="edge">
<title>Node1&#45;&gt;Node2</title>
<g id="a_edge1_Node000001_Node000002"><a xlink:title=" ">
<path fill="none" stroke="#63b8ff" d="M67.75,-320.23C72.6,-367.95 92.82,-509.67 166.75,-594 169.01,-596.58 171.55,-598.97 174.27,-601.17"/>
<polygon fill="#63b8ff" stroke="#63b8ff" points="172.02,-603.87 182.23,-606.72 176.03,-598.12 172.02,-603.87"/>
</a>
</g>
</g>
<!-- Node6 -->
<g id="Node000006" class="node">
<title>Node6</title>
<g id="a_Node000006"><a xlink:href="classLGE_1_1Log.html#ab0265ee050b8873a2fd31fbdb696ced0" target="_top" xlink:title=" ">
<polygon fill="white" stroke="#666666" points="642.25,-552 562.5,-552 562.5,-532 642.25,-532 642.25,-552"/>
<text xml:space="preserve" text-anchor="middle" x="602.38" y="-538.5" font-family="Helvetica,sans-Serif" font-size="10.00">LGE::Log::Info</text>
</a>
</g>
</g>
<!-- Node1&#45;&gt;Node6 -->
<g id="edge18_Node000001_Node000006" class="edge">
<title>Node1&#45;&gt;Node6</title>
<g id="a_edge18_Node000001_Node000006"><a xlink:title=" ">
<path fill="none" stroke="#63b8ff" d="M87.5,-320.39C107.28,-335.27 138.01,-357.24 166.75,-373 316.48,-455.12 358.18,-469.95 520.5,-523 530.37,-526.22 541.08,-529.14 551.38,-531.66"/>
<polygon fill="#63b8ff" stroke="#63b8ff" points="550.33,-535.01 560.86,-533.89 551.93,-528.19 550.33,-535.01"/>
</a>
</g>
</g>
<!-- Node11 -->
<g id="Node000011" class="node">
<title>Node11</title>
<g id="a_Node000011"><a xlink:href="classLGE_1_1Log.html#a53f3f4b8797ffd18145739c9e66d690a" target="_top" xlink:title=" ">
<polygon fill="white" stroke="#666666" points="1284.5,-438 1200.25,-438 1200.25,-418 1284.5,-418 1284.5,-438"/>
<text xml:space="preserve" text-anchor="middle" x="1242.38" y="-424.5" font-family="Helvetica,sans-Serif" font-size="10.00">LGE::Log::Error</text>
</a>
</g>
</g>
<!-- Node1&#45;&gt;Node11 -->
<g id="edge16_Node000001_Node000011" class="edge">
<title>Node1&#45;&gt;Node11</title>
<g id="a_edge16_Node000001_Node000011"><a xlink:title=" ">
<path fill="none" stroke="#63b8ff" d="M77.42,-320.14C94.38,-344 128.87,-388.96 166.75,-418 301.34,-521.17 353.09,-533.96 520.5,-561 592.35,-572.6 617.39,-589.76 684.25,-561 705.62,-551.81 699.53,-533.58 720.25,-523 808.89,-477.72 1068.71,-491.93 1164.25,-464 1181.09,-459.08 1198.9,-450.98 1213.16,-443.7"/>
<polygon fill="#63b8ff" stroke="#63b8ff" points="1214.73,-446.83 1221.95,-439.08 1211.47,-440.64 1214.73,-446.83"/>
</a>
</g>
</g>
<!-- Node12 -->
<g id="Node000012" class="node">
<title>Node12</title>
<g id="a_Node000012"><a xlink:href="classLGE_1_1Log.html#aa6f98018af29c23dd7f574d3df5dda5e" target="_top" xlink:title=" ">
<polygon fill="white" stroke="#666666" points="825.88,-248 740.12,-248 740.12,-228 825.88,-228 825.88,-248"/>
<text xml:space="preserve" text-anchor="middle" x="783" y="-234.5" font-family="Helvetica,sans-Serif" font-size="10.00">LGE::Log::Warn</text>
</a>
</g>
</g>
<!-- Node1&#45;&gt;Node12 -->
<g id="edge47_Node000001_Node000012" class="edge">
<title>Node1&#45;&gt;Node12</title>
<g id="a_edge47_Node000001_Node000012"><a xlink:title=" ">
<path fill="none" stroke="#63b8ff" d="M69.36,-287.64C77.37,-248.95 103.17,-151.71 166.75,-107 224.56,-66.35 253.97,-91.45 324.5,-87 395.47,-82.52 415.1,-71.49 484.5,-87 580.25,-108.4 597.4,-135.35 684.25,-181 708.87,-193.94 736.15,-210 755.62,-221.77"/>
<polygon fill="#63b8ff" stroke="#63b8ff" points="753.65,-224.66 764.01,-226.87 757.28,-218.68 753.65,-224.66"/>
</a>
</g>
</g>
<!-- Node15 -->
<g id="Node000015" class="node">
<title>Node15</title>
<g id="a_Node000015"><a xlink:href="namespaceLGE_1_1LxFile.html#a11e62876b312a11b881b484bb3a5ee71" target="_top" xlink:title=" ">
<polygon fill="white" stroke="#666666" points="455.25,-134 353.75,-134 353.75,-114 455.25,-114 455.25,-134"/>
<text xml:space="preserve" text-anchor="middle" x="404.5" y="-120.5" font-family="Helvetica,sans-Serif" font-size="10.00">LGE::LxFile::Exists</text>
</a>
</g>
</g>
<!-- Node1&#45;&gt;Node15 -->
<g id="edge17_Node000001_Node000015" class="edge">
<title>Node1&#45;&gt;Node15</title>
<g id="a_edge17_Node000001_Node000015"><a xlink:title=" ">
<path fill="none" stroke="#63b8ff" d="M89.15,-287.54C132.87,-256.56 232.43,-189.03 324.5,-148 332.97,-144.22 342.2,-140.82 351.28,-137.85"/>
<polygon fill="#63b8ff" stroke="#63b8ff" points="352.25,-141.21 360.75,-134.89 350.16,-134.53 352.25,-141.21"/>
</a>
</g>
</g>
<!-- Node16 -->
<g id="Node000016" class="node">
<title>Node16</title>
<g id="a_Node000016"><a xlink:href="namespaceLGE_1_1LxFile.html#aefeac425ba46d16739c0873b3740191c" target="_top" xlink:title=" ">
<polygon fill="white" stroke="#666666" points="288.5,-20 166.75,-20 166.75,0 288.5,0 288.5,-20"/>
<text xml:space="preserve" text-anchor="middle" x="227.62" y="-6.5" font-family="Helvetica,sans-Serif" font-size="10.00">LGE::LxFile::IsDirectory</text>
</a>
</g>
</g>
<!-- Node1&#45;&gt;Node16 -->
<g id="edge19_Node000001_Node000016" class="edge">
<title>Node1&#45;&gt;Node16</title>
<g id="a_edge19_Node000001_Node000016"><a xlink:title=" ">
<path fill="none" stroke="#63b8ff" d="M67.9,-287.61C73.06,-241.44 93.78,-108.84 166.75,-34 169.83,-30.84 173.38,-28.09 177.18,-25.69"/>
<polygon fill="#63b8ff" stroke="#63b8ff" points="178.52,-28.94 185.68,-21.14 175.22,-22.77 178.52,-28.94"/>
</a>
</g>
</g>
<!-- Node17 -->
<g id="Node000017" class="node">
<title>Node17</title>
<g id="a_Node000017"><a xlink:href="namespaceLGE_1_1MetaDB.html#a9f494f7c23ef0715fa5881a46b93c940" target="_top" xlink:title=" ">
<polygon fill="white" stroke="#666666" points="279.88,-286 175.38,-286 175.38,-266 279.88,-266 279.88,-286"/>
<text xml:space="preserve" text-anchor="middle" x="227.62" y="-272.5" font-family="Helvetica,sans-Serif" font-size="10.00">LGE::MetaDB::Load</text>
</a>
</g>
</g>
<!-- Node1&#45;&gt;Node17 -->
<g id="edge20_Node000001_Node000017" class="edge">
<title>Node1&#45;&gt;Node17</title>
<g id="a_edge20_Node000001_Node000017"><a xlink:title=" ">
<path fill="none" stroke="#63b8ff" d="M131.09,-292.69C141.92,-290.8 153.15,-288.84 163.92,-286.96"/>
<polygon fill="#63b8ff" stroke="#63b8ff" points="164.22,-290.46 173.47,-285.29 163.02,-283.56 164.22,-290.46"/>
</a>
</g>
</g>
<!-- Node19 -->
<g id="Node000019" class="node">
<title>Node19</title>
<g id="a_Node000019"><a xlink:href="namespaceLGE_1_1Migration.html#a47ee5b06f8c57da1952156f69f9582b7" target="_top" xlink:title=" ">
<polygon fill="white" stroke="#666666" points="484.5,-362 324.5,-362 324.5,-342 484.5,-342 484.5,-362"/>
<text xml:space="preserve" text-anchor="middle" x="404.5" y="-348.5" font-family="Helvetica,sans-Serif" font-size="10.00">LGE::Migration::MigrateMetadata</text>
</a>
</g>
</g>
<!-- Node1&#45;&gt;Node19 -->
<g id="edge44_Node000001_Node000019" class="edge">
<title>Node1&#45;&gt;Node19</title>
<g id="a_edge44_Node000001_Node000019"><a xlink:title=" ">
<path fill="none" stroke="#63b8ff" d="M130.98,-313.2C184.3,-320.79 260.4,-331.63 318.63,-339.92"/>
<polygon fill="#63b8ff" stroke="#63b8ff" points="318.14,-343.38 328.53,-341.33 319.13,-336.45 318.14,-343.38"/>
</a>
</g>
</g>
<!-- Node20 -->
<g id="Node000020" class="node">
<title>Node20</title>
<g id="a_Node000020"><a xlink:href="namespaceLGE_1_1Migration.html#ae8f608f31e72e26c06b1eb0f62dedfb1" target="_top" xlink:title=" ">
<polygon fill="white" stroke="#666666" points="680.12,-210 524.62,-210 524.62,-190 680.12,-190 680.12,-210"/>
<text xml:space="preserve" text-anchor="middle" x="602.38" y="-196.5" font-family="Helvetica,sans-Serif" font-size="10.00">LGE::Migration::NeedsMigration</text>
</a>
</g>
</g>
<!-- Node1&#45;&gt;Node20 -->
<g id="edge45_Node000001_Node000020" class="edge">
<title>Node1&#45;&gt;Node20</title>
<g id="a_edge45_Node000001_Node000020"><a xlink:title=" ">
<path fill="none" stroke="#63b8ff" d="M73.63,-287.94C87.58,-258.79 120.88,-196.95 166.75,-162 226.05,-116.82 251.07,-117.86 324.5,-105 394.55,-92.73 417.49,-81.2 484.5,-105 526.95,-120.08 565.19,-157.88 585.67,-181"/>
<polygon fill="#63b8ff" stroke="#63b8ff" points="582.92,-183.17 592.1,-188.47 588.23,-178.61 582.92,-183.17"/>
</a>
</g>
</g>
<!-- Node23 -->
<g id="Node000023" class="node">
<title>Node23</title>
<g id="a_Node000023"><a xlink:href="namespaceLGE_1_1MetaDB.html#a93501266bbc2bb77874f90247fcc90ba" target="_top" xlink:title=" ">
<polygon fill="white" stroke="#666666" points="457.5,-419 351.5,-419 351.5,-399 457.5,-399 457.5,-419"/>
<text xml:space="preserve" text-anchor="middle" x="404.5" y="-405.5" font-family="Helvetica,sans-Serif" font-size="10.00">LGE::MetaDB::Save</text>
</a>
</g>
</g>
<!-- Node1&#45;&gt;Node23 -->
<g id="edge46_Node000001_Node000023" class="edge">
<title>Node1&#45;&gt;Node23</title>
<g id="a_edge46_Node000001_Node000023"><a xlink:title=" ">
<path fill="none" stroke="#63b8ff" d="M108.62,-320.36C126.46,-327.06 147.51,-334.7 166.75,-341 230.34,-361.82 304.63,-382.59 352.79,-395.6"/>
<polygon fill="#63b8ff" stroke="#63b8ff" points="351.83,-398.96 362.39,-398.18 353.64,-392.2 351.83,-398.96"/>
</a>
</g>
</g>
<!-- Node3 -->
<g id="Node000003" class="node">
<title>Node3</title>
<g id="a_Node000003"><a xlink:href="namespaceLGE_1_1AssetRegistry.html#abf12143e6f506efd22e4ec9ef670134a" target="_top" xlink:title=" ">
<polygon fill="white" stroke="#666666" points="481.5,-640 327.5,-640 327.5,-608 481.5,-608 481.5,-640"/>
<text xml:space="preserve" text-anchor="start" x="335.5" y="-626.5" font-family="Helvetica,sans-Serif" font-size="10.00">LGE::AssetRegistry</text>
<text xml:space="preserve" text-anchor="middle" x="404.5" y="-614.5" font-family="Helvetica,sans-Serif" font-size="10.00">::BuildReverseDependencyMap</text>
</a>
</g>
</g>
<!-- Node2&#45;&gt;Node3 -->
<g id="edge2_Node000002_Node000003" class="edge">
<title>Node2&#45;&gt;Node3</title>
<g id="a_edge2_Node000002_Node000003"><a xlink:title=" ">
<path fill="none" stroke="#63b8ff" d="M279.68,-624C291.02,-624 303.36,-624 315.71,-624"/>
<polygon fill="#63b8ff" stroke="#63b8ff" points="315.52,-627.5 325.52,-624 315.52,-620.5 315.52,-627.5"/>
</a>
</g>
</g>
<!-- Node13 -->
<g id="Node000013" class="node">
<title>Node13</title>
<g id="a_Node000013"><a xlink:href="namespaceLGE_1_1VFS.html#aee891612cc393155878775a61e486c0b" target="_top" xlink:title=" ">
<polygon fill="white" stroke="#666666" points="845.75,-716 720.25,-716 720.25,-696 845.75,-696 845.75,-716"/>
<text xml:space="preserve" text-anchor="middle" x="783" y="-702.5" font-family="Helvetica,sans-Serif" font-size="10.00">LGE::VFS::ToVirtualPath</text>
</a>
</g>
</g>
<!-- Node2&#45;&gt;Node13 -->
<g id="edge12_Node000002_Node000013" class="edge">
<title>Node2&#45;&gt;Node13</title>
<g id="a_edge12_Node000002_Node000013"><a xlink:title=" ">
<path fill="none" stroke="#63b8ff" d="M279.73,-637.97C294.16,-641.74 309.91,-645.69 324.5,-649 411.03,-668.65 432.54,-675.32 520.5,-687 583.77,-695.4 656.18,-700.3 708.73,-703.01"/>
<polygon fill="#63b8ff" stroke="#63b8ff" points="708.3,-706.49 718.46,-703.5 708.65,-699.5 708.3,-706.49"/>
</a>
</g>
</g>
<!-- Node4 -->
<g id="Node000004" class="node">
<title>Node4</title>
<g id="a_Node000004"><a xlink:href="namespaceLGE_1_1AssetRegistry.html#ac315fdb87be485fe8103d455b7e8a464" target="_top" xlink:title=" ">
<polygon fill="white" stroke="#666666" points="654.25,-678 550.5,-678 550.5,-646 654.25,-646 654.25,-678"/>
<text xml:space="preserve" text-anchor="start" x="558.5" y="-664.5" font-family="Helvetica,sans-Serif" font-size="10.00">LGE::AssetRegistry</text>
<text xml:space="preserve" text-anchor="middle" x="602.38" y="-652.5" font-family="Helvetica,sans-Serif" font-size="10.00">::FindByPath</text>
</a>
</g>
</g>
<!-- Node3&#45;&gt;Node4 -->
<g id="edge3_Node000003_Node000004" class="edge">
<title>Node3&#45;&gt;Node4</title>
<g id="a_edge3_Node000003_Node000004"><a xlink:title=" ">
<path fill="none" stroke="#63b8ff" d="M481.79,-638.8C500.74,-642.48 520.82,-646.37 539.01,-649.9"/>
<polygon fill="#63b8ff" stroke="#63b8ff" points="538.1,-653.29 548.58,-651.76 539.43,-646.42 538.1,-653.29"/>
</a>
</g>
</g>
<!-- Node3&#45;&gt;Node6 -->
<g id="edge5_Node000003_Node000006" class="edge">
<title>Node3&#45;&gt;Node6</title>
<g id="a_edge5_Node000003_Node000006"><a xlink:title=" ">
<path fill="none" stroke="#63b8ff" d="M444.67,-607.6C480.13,-592.76 531.9,-571.08 566.1,-556.77"/>
<polygon fill="#63b8ff" stroke="#63b8ff" points="567.27,-560.07 575.15,-552.98 564.57,-553.61 567.27,-560.07"/>
</a>
</g>
</g>
<!-- Node7 -->
<g id="Node000007" class="node">
<title>Node7</title>
<g id="a_Node000007"><a xlink:href="namespaceLGE_1_1VFS.html#a9eb41e42c96a4f5358c79e30afb579cc" target="_top" xlink:title=" ">
<polygon fill="white" stroke="#666666" points="673,-628 531.75,-628 531.75,-608 673,-608 673,-628"/>
<text xml:space="preserve" text-anchor="middle" x="602.38" y="-614.5" font-family="Helvetica,sans-Serif" font-size="10.00">LGE::VFS::ResolveAbsolute</text>
</a>
</g>
</g>
<!-- Node3&#45;&gt;Node7 -->
<g id="edge6_Node000003_Node000007" class="edge">
<title>Node3&#45;&gt;Node7</title>
<g id="a_edge6_Node000003_Node000007"><a xlink:title=" ">
<path fill="none" stroke="#63b8ff" d="M481.79,-621.66C494.29,-621.28 507.29,-620.88 519.91,-620.5"/>
<polygon fill="#63b8ff" stroke="#63b8ff" points="519.97,-624 529.86,-620.19 519.75,-617 519.97,-624"/>
</a>
</g>
</g>
<!-- Node5 -->
<g id="Node000005" class="node">
<title>Node5</title>
<g id="a_Node000005"><a xlink:href="namespaceLGE_1_1AssetRegistry.html#a9e672f9e3c8c62076b9156d1695e48b8" target="_top" xlink:title=" ">
<polygon fill="white" stroke="#666666" points="834.88,-678 731.12,-678 731.12,-646 834.88,-646 834.88,-678"/>
<text xml:space="preserve" text-anchor="start" x="739.12" y="-664.5" font-family="Helvetica,sans-Serif" font-size="10.00">LGE::AssetRegistry</text>
<text xml:space="preserve" text-anchor="middle" x="783" y="-652.5" font-family="Helvetica,sans-Serif" font-size="10.00">::FindByGUID</text>
</a>
</g>
</g>
<!-- Node4&#45;&gt;Node5 -->
<g id="edge4_Node000004_Node000005" class="edge">
<title>Node4&#45;&gt;Node5</title>
<g id="a_edge4_Node000004_Node000005"><a xlink:title=" ">
<path fill="none" stroke="#63b8ff" d="M654.56,-662C674.74,-662 698.12,-662 719.3,-662"/>
<polygon fill="#63b8ff" stroke="#63b8ff" points="719.29,-665.5 729.29,-662 719.29,-658.5 719.29,-665.5"/>
</a>
</g>
</g>
<!-- Node8 -->
<g id="Node000008" class="node">
<title>Node8</title>
<g id="a_Node000008"><a xlink:href="namespaceLGE_1_1VFS.html#a0566c02123208c6b867418e914f9574b" target="_top" xlink:title=" ">
<polygon fill="white" stroke="#666666" points="837.88,-628 728.12,-628 728.12,-608 837.88,-608 837.88,-628"/>
<text xml:space="preserve" text-anchor="middle" x="783" y="-614.5" font-family="Helvetica,sans-Serif" font-size="10.00">LGE::VFS::GetMount</text>
</a>
</g>
</g>
<!-- Node7&#45;&gt;Node8 -->
<g id="edge7_Node000007_Node000008" class="edge">
<title>Node7&#45;&gt;Node8</title>
<g id="a_edge7_Node000007_Node000008"><a xlink:title=" ">
<path fill="none" stroke="#63b8ff" d="M673.46,-618C687.59,-618 702.39,-618 716.35,-618"/>
<polygon fill="#63b8ff" stroke="#63b8ff" points="716.34,-621.5 726.34,-618 716.34,-614.5 716.34,-621.5"/>
</a>
</g>
</g>
<!-- Node9 -->
<g id="Node000009" class="node">
<title>Node9</title>
<g id="a_Node000009"><a xlink:href="namespaceLGE_1_1LxPath.html#a94ec3bdfd6948ddc25cda5d18154d4cf" target="_top" xlink:title=" ">
<polygon fill="white" stroke="#666666" points="991.88,-590 895.62,-590 895.62,-570 991.88,-570 991.88,-590"/>
<text xml:space="preserve" text-anchor="middle" x="943.75" y="-576.5" font-family="Helvetica,sans-Serif" font-size="10.00">LGE::LxPath::Join</text>
</a>
</g>
</g>
<!-- Node7&#45;&gt;Node9 -->
<g id="edge8_Node000007_Node000009" class="edge">
<title>Node7&#45;&gt;Node9</title>
<g id="a_edge8_Node000007_Node000009"><a xlink:title=" ">
<path fill="none" stroke="#63b8ff" d="M662.41,-607.51C680.89,-604.46 701.38,-601.34 720.25,-599 775.64,-592.14 839.1,-586.99 884.03,-583.79"/>
<polygon fill="#63b8ff" stroke="#63b8ff" points="884.09,-587.3 893.82,-583.11 883.6,-580.31 884.09,-587.3"/>
</a>
</g>
</g>
<!-- Node7&#45;&gt;Node12 -->
<g id="edge11_Node000007_Node000012" class="edge">
<title>Node7&#45;&gt;Node12</title>
<g id="a_edge11_Node000007_Node000012"><a xlink:title=" ">
<path fill="none" stroke="#63b8ff" d="M625.73,-607.52C643.99,-597.87 669.17,-581.89 684.25,-561 754.58,-463.6 774.96,-314.99 780.28,-259.71"/>
<polygon fill="#63b8ff" stroke="#63b8ff" points="783.77,-260.06 781.16,-249.79 776.79,-259.45 783.77,-260.06"/>
</a>
</g>
</g>
<!-- Node10 -->
<g id="Node000010" class="node">
<title>Node10</title>
<g id="a_Node000010"><a xlink:href="namespaceLGE_1_1LxPath.html#a314a60ce690c90f4ee0b4e64c0199408" target="_top" xlink:title=" ">
<polygon fill="white" stroke="#666666" points="1164.25,-590 1041.75,-590 1041.75,-570 1164.25,-570 1164.25,-590"/>
<text xml:space="preserve" text-anchor="middle" x="1103" y="-576.5" font-family="Helvetica,sans-Serif" font-size="10.00">LGE::LxPath::Normalize</text>
</a>
</g>
</g>
<!-- Node9&#45;&gt;Node10 -->
<g id="edge9_Node000009_Node000010" class="edge">
<title>Node9&#45;&gt;Node10</title>
<g id="a_edge9_Node000009_Node000010"><a xlink:title=" ">
<path fill="none" stroke="#63b8ff" d="M992.36,-580C1004.31,-580 1017.41,-580 1030.26,-580"/>
<polygon fill="#63b8ff" stroke="#63b8ff" points="1029.93,-583.5 1039.93,-580 1029.93,-576.5 1029.93,-583.5"/>
</a>
</g>
</g>
<!-- Node10&#45;&gt;Node11 -->
<g id="edge10_Node000010_Node000011" class="edge">
<title>Node10&#45;&gt;Node11</title>
<g id="a_edge10_Node000010_Node000011"><a xlink:title=" ">
<path fill="none" stroke="#63b8ff" d="M1114.44,-569.66C1126.62,-557.51 1147.25,-536.62 1164.25,-518 1186.1,-494.06 1210.27,-465.5 1225.62,-447.07"/>
<polygon fill="#63b8ff" stroke="#63b8ff" points="1228.13,-449.53 1231.82,-439.6 1222.74,-445.06 1228.13,-449.53"/>
</a>
</g>
</g>
<!-- Node13&#45;&gt;Node10 -->
<g id="edge15_Node000013_Node000010" class="edge">
<title>Node13&#45;&gt;Node10</title>
<g id="a_edge15_Node000013_Node000010"><a xlink:title=" ">
<path fill="none" stroke="#63b8ff" d="M817.98,-695.57C827.01,-692.8 836.75,-689.79 845.75,-687 916.91,-664.93 937.69,-667.3 1005.75,-637 1031.32,-625.62 1058.6,-608.99 1077.56,-596.63"/>
<polygon fill="#63b8ff" stroke="#63b8ff" points="1079.25,-599.7 1085.66,-591.27 1075.39,-593.87 1079.25,-599.7"/>
</a>
</g>
</g>
<!-- Node14 -->
<g id="Node000014" class="node">
<title>Node14</title>
<g id="a_Node000014"><a xlink:href="namespaceLGE_1_1LxPath.html#ab664986e94ce09aa029f9eb2fcf50133" target="_top" xlink:title=" ">
<polygon fill="white" stroke="#666666" points="1005.75,-628 881.75,-628 881.75,-608 1005.75,-608 1005.75,-628"/>
<text xml:space="preserve" text-anchor="middle" x="943.75" y="-614.5" font-family="Helvetica,sans-Serif" font-size="10.00">LGE::LxPath::IsSubPath</text>
</a>
</g>
</g>
<!-- Node13&#45;&gt;Node14 -->
<g id="edge13_Node000013_Node000014" class="edge">
<title>Node13&#45;&gt;Node14</title>
<g id="a_edge13_Node000013_Node000014"><a xlink:title=" ">
<path fill="none" stroke="#63b8ff" d="M824.58,-695.55C831.79,-693.13 839.11,-690.28 845.75,-687 874.16,-672.98 903.32,-651.01 922.15,-635.64"/>
<polygon fill="#63b8ff" stroke="#63b8ff" points="924.39,-638.34 929.84,-629.25 919.91,-632.95 924.39,-638.34"/>
</a>
</g>
</g>
<!-- Node14&#45;&gt;Node10 -->
<g id="edge14_Node000014_Node000010" class="edge">
<title>Node14&#45;&gt;Node10</title>
<g id="a_edge14_Node000014_Node000010"><a xlink:title=" ">
<path fill="none" stroke="#63b8ff" d="M988.14,-607.52C1006.53,-603.07 1028.16,-597.84 1047.6,-593.15"/>
<polygon fill="#63b8ff" stroke="#63b8ff" points="1048.39,-596.56 1057.28,-590.81 1046.74,-589.75 1048.39,-596.56"/>
</a>
</g>
</g>
<!-- Node17&#45;&gt;Node11 -->
<g id="edge21_Node000017_Node000011" class="edge">
<title>Node17&#45;&gt;Node11</title>
<g id="a_edge21_Node000017_Node000011"><a xlink:title=" ">
<path fill="none" stroke="#63b8ff" d="M237.16,-265.78C252.56,-248.13 286.9,-212.29 324.5,-196 438.26,-146.72 477.4,-162 601.38,-162 601.38,-162 601.38,-162 944.75,-162 1059.05,-162 1084.21,-214.4 1164.25,-296 1196.94,-329.32 1221.11,-379.16 1233.04,-407.1"/>
<polygon fill="#63b8ff" stroke="#63b8ff" points="1229.76,-408.31 1236.82,-416.21 1236.23,-405.64 1229.76,-408.31"/>
</a>
</g>
</g>
<!-- Node17&#45;&gt;Node12 -->
<g id="edge43_Node000017_Node000012" class="edge">
<title>Node17&#45;&gt;Node12</title>
<g id="a_edge43_Node000017_Node000012"><a xlink:title=" ">
<path fill="none" stroke="#63b8ff" d="M280.26,-267.56C294.56,-265.47 310.1,-263.43 324.5,-262 470.02,-247.59 642.49,-241.5 728.14,-239.21"/>
<polygon fill="#63b8ff" stroke="#63b8ff" points="728.22,-242.71 738.13,-238.95 728.04,-235.71 728.22,-242.71"/>
</a>
</g>
</g>
<!-- Node17&#45;&gt;Node15 -->
<g id="edge22_Node000017_Node000015" class="edge">
<title>Node17&#45;&gt;Node15</title>
<g id="a_edge22_Node000017_Node000015"><a xlink:title=" ">
<path fill="none" stroke="#63b8ff" d="M236.19,-265.72C258.31,-235.69 321.5,-150.1 324.5,-148 330.2,-144 336.58,-140.66 343.18,-137.87"/>
<polygon fill="#63b8ff" stroke="#63b8ff" points="344.12,-141.25 352.24,-134.44 341.65,-134.7 344.12,-141.25"/>
</a>
</g>
</g>
<!-- Node18 -->
<g id="Node000018" class="node">
<title>Node18</title>
<g id="a_Node000018"><a xlink:href="namespaceLGE_1_1MetaDB.html#ac399a4083a7e189046618cbf3142dbbe" target="_top" xlink:title=" ">
<polygon fill="white" stroke="#666666" points="672.25,-324 532.5,-324 532.5,-304 672.25,-304 672.25,-324"/>
<text xml:space="preserve" text-anchor="middle" x="602.38" y="-310.5" font-family="Helvetica,sans-Serif" font-size="10.00">LGE::MetaDB::MetaPathFor</text>
</a>
</g>
</g>
<!-- Node17&#45;&gt;Node18 -->
<g id="edge23_Node000017_Node000018" class="edge">
<title>Node17&#45;&gt;Node18</title>
<g id="a_edge23_Node000017_Node000018"><a xlink:title=" ">
<path fill="none" stroke="#63b8ff" d="M280.3,-284.11C294.6,-286.2 310.13,-288.33 324.5,-290 390.52,-297.68 465.66,-304.04 520.99,-308.28"/>
<polygon fill="#63b8ff" stroke="#63b8ff" points="520.39,-311.75 530.63,-309.01 520.92,-304.77 520.39,-311.75"/>
</a>
</g>
</g>
<!-- Node17&#45;&gt;Node19 -->
<g id="edge24_Node000017_Node000019" class="edge">
<title>Node17&#45;&gt;Node19</title>
<g id="a_edge24_Node000017_Node000019"><a xlink:title=" ">
<path fill="none" stroke="#63b8ff" d="M245.43,-286.47C264.18,-297.83 295.67,-315.95 324.5,-328 333.44,-331.74 343.16,-335.17 352.63,-338.2"/>
<polygon fill="#63b8ff" stroke="#63b8ff" points="351.53,-341.53 362.12,-341.13 353.59,-334.84 351.53,-341.53"/>
</a>
</g>
</g>
<!-- Node17&#45;&gt;Node20 -->
<g id="edge29_Node000017_Node000020" class="edge">
<title>Node17&#45;&gt;Node20</title>
<g id="a_edge29_Node000017_Node000020"><a xlink:title=" ">
<path fill="none" stroke="#63b8ff" d="M243.06,-265.69C261.13,-253.39 293.49,-233.31 324.5,-224 385.78,-205.6 457.87,-199.82 513.13,-198.53"/>
<polygon fill="#63b8ff" stroke="#63b8ff" points="512.85,-202.03 522.78,-198.35 512.72,-195.03 512.85,-202.03"/>
</a>
</g>
</g>
<!-- Node22 -->
<g id="Node000022" class="node">
<title>Node22</title>
<g id="a_Node000022"><a xlink:href="namespaceLGE_1_1LxFile.html#ac0a61f0e1f49fdcf553f007750c1ba37" target="_top" xlink:title=" ">
<polygon fill="white" stroke="#666666" points="997.88,-305 889.62,-305 889.62,-285 997.88,-285 997.88,-305"/>
<text xml:space="preserve" text-anchor="middle" x="943.75" y="-291.5" font-family="Helvetica,sans-Serif" font-size="10.00">LGE::LxFile::ReadAll</text>
</a>
</g>
</g>
<!-- Node17&#45;&gt;Node22 -->
<g id="edge30_Node000017_Node000022" class="edge">
<title>Node17&#45;&gt;Node22</title>
<g id="a_edge30_Node000017_Node000022"><a xlink:title=" ">
<path fill="none" stroke="#63b8ff" d="M280.27,-277.37C407.88,-280.77 737.87,-289.55 878.13,-293.28"/>
<polygon fill="#63b8ff" stroke="#63b8ff" points="877.9,-296.78 887.99,-293.54 878.09,-289.78 877.9,-296.78"/>
</a>
</g>
</g>
<!-- Node17&#45;&gt;Node23 -->
<g id="edge32_Node000017_Node000023" class="edge">
<title>Node17&#45;&gt;Node23</title>
<g id="a_edge32_Node000017_Node000023"><a xlink:title=" ">
<path fill="none" stroke="#63b8ff" d="M236.96,-286.27C252.56,-305.01 287.93,-345.19 324.5,-371 337.16,-379.93 352.24,-387.77 365.82,-393.97"/>
<polygon fill="#63b8ff" stroke="#63b8ff" points="364.36,-397.15 374.92,-397.97 367.17,-390.74 364.36,-397.15"/>
</a>
</g>
</g>
<!-- Node19&#45;&gt;Node6 -->
<g id="edge26_Node000019_Node000006" class="edge">
<title>Node19&#45;&gt;Node6</title>
<g id="a_edge26_Node000019_Node000006"><a xlink:title=" ">
<path fill="none" stroke="#63b8ff" d="M442.84,-362.42C457.71,-368.3 473.8,-377.12 484.5,-390 523.64,-437.1 476.48,-480.43 520.5,-523 528.82,-531.05 539.87,-535.91 551.12,-538.81"/>
<polygon fill="#63b8ff" stroke="#63b8ff" points="550.37,-542.23 560.87,-540.78 551.76,-535.37 550.37,-542.23"/>
</a>
</g>
</g>
<!-- Node19&#45;&gt;Node11 -->
<g id="edge25_Node000019_Node000011" class="edge">
<title>Node19&#45;&gt;Node11</title>
<g id="a_edge25_Node000019_Node000011"><a xlink:title=" ">
<path fill="none" stroke="#63b8ff" d="M484.83,-352C561.02,-352 679.38,-352 782,-352 782,-352 782,-352 944.75,-352 1042.48,-352 1152.81,-391.19 1207.25,-413.29"/>
<polygon fill="#63b8ff" stroke="#63b8ff" points="1205.7,-416.44 1216.28,-417.01 1208.37,-409.96 1205.7,-416.44"/>
</a>
</g>
</g>
<!-- Node19&#45;&gt;Node20 -->
<g id="edge27_Node000019_Node000020" class="edge">
<title>Node19&#45;&gt;Node20</title>
<g id="a_edge27_Node000019_Node000020"><a xlink:title=" ">
<path fill="none" stroke="#63b8ff" d="M418.96,-341.55C452.17,-315.78 538.25,-248.98 579.16,-217.24"/>
<polygon fill="#63b8ff" stroke="#63b8ff" points="581.13,-220.14 586.88,-211.25 576.83,-214.61 581.13,-220.14"/>
</a>
</g>
</g>
<!-- Node21 -->
<g id="Node000021" class="node">
<title>Node21</title>
<g id="a_Node000021"><a xlink:href="namespaceLGE_1_1MetaDB.html#ad37cdebb704d7ca276bbb10e84d94f1a" target="_top" xlink:title=" ">
<polygon fill="white" stroke="#666666" points="684.25,-400 520.5,-400 520.5,-380 684.25,-380 684.25,-400"/>
<text xml:space="preserve" text-anchor="middle" x="602.38" y="-386.5" font-family="Helvetica,sans-Serif" font-size="10.00">LGE::MetaDB::UpdateTimestamp</text>
</a>
</g>
</g>
<!-- Node19&#45;&gt;Node21 -->
<g id="edge28_Node000019_Node000021" class="edge">
<title>Node19&#45;&gt;Node21</title>
<g id="a_edge28_Node000019_Node000021"><a xlink:title=" ">
<path fill="none" stroke="#63b8ff" d="M459.54,-362.48C483.31,-367.09 511.42,-372.55 536.32,-377.38"/>
<polygon fill="#63b8ff" stroke="#63b8ff" points="535.54,-380.79 546.02,-379.26 536.87,-373.92 535.54,-380.79"/>
</a>
</g>
</g>
<!-- Node22&#45;&gt;Node11 -->
<g id="edge31_Node000022_Node000011" class="edge">
<title>Node22&#45;&gt;Node11</title>
<g id="a_edge31_Node000022_Node000011"><a xlink:title=" ">
<path fill="none" stroke="#63b8ff" d="M998.29,-295.78C1044.99,-298.62 1113.09,-308.17 1164.25,-338 1193.31,-354.95 1216.71,-386.96 1229.83,-407.88"/>
<polygon fill="#63b8ff" stroke="#63b8ff" points="1226.79,-409.61 1234.94,-416.37 1232.78,-406 1226.79,-409.61"/>
</a>
</g>
</g>
<!-- Node23&#45;&gt;Node6 -->
<g id="edge35_Node000023_Node000006" class="edge">
<title>Node23&#45;&gt;Node6</title>
<g id="a_edge35_Node000023_Node000006"><a xlink:title=" ">
<path fill="none" stroke="#63b8ff" d="M417.7,-419.3C433.6,-432.89 462.02,-457.82 484.5,-481 501.62,-498.65 499.49,-510.22 520.5,-523 529.74,-528.62 540.5,-532.58 551.1,-535.36"/>
<polygon fill="#63b8ff" stroke="#63b8ff" points="550.02,-538.7 560.54,-537.53 551.58,-531.88 550.02,-538.7"/>
</a>
</g>
</g>
<!-- Node23&#45;&gt;Node11 -->
<g id="edge33_Node000023_Node000011" class="edge">
<title>Node23&#45;&gt;Node11</title>
<g id="a_edge33_Node000023_Node000011"><a xlink:title=" ">
<path fill="none" stroke="#63b8ff" d="M457.84,-413.31C530.52,-418.92 666.16,-428 782,-428 782,-428 782,-428 944.75,-428 1030.2,-428 1129.5,-428 1188.8,-428"/>
<polygon fill="#63b8ff" stroke="#63b8ff" points="1188.59,-431.5 1198.59,-428 1188.59,-424.5 1188.59,-431.5"/>
</a>
</g>
</g>
<!-- Node23&#45;&gt;Node18 -->
<g id="edge36_Node000023_Node000018" class="edge">
<title>Node23&#45;&gt;Node18</title>
<g id="a_edge36_Node000023_Node000018"><a xlink:title=" ">
<path fill="none" stroke="#63b8ff" d="M427.31,-398.55C443.18,-390.93 465.19,-380.35 484.5,-371 513.57,-356.92 546.66,-340.77 570.19,-329.27"/>
<polygon fill="#63b8ff" stroke="#63b8ff" points="571.47,-332.53 578.92,-325 568.4,-326.25 571.47,-332.53"/>
</a>
</g>
</g>
<!-- Node23&#45;&gt;Node21 -->
<g id="edge37_Node000023_Node000021" class="edge">
<title>Node23&#45;&gt;Node21</title>
<g id="a_edge37_Node000023_Node000021"><a xlink:title=" ">
<path fill="none" stroke="#63b8ff" d="M457.99,-403.91C473.7,-402.38 491.42,-400.67 508.9,-398.97"/>
<polygon fill="#63b8ff" stroke="#63b8ff" points="509.21,-402.46 518.82,-398.01 508.53,-395.49 509.21,-402.46"/>
</a>
</g>
</g>
<!-- Node24 -->
<g id="Node000024" class="node">
<title>Node24</title>
<g id="a_Node000024"><a xlink:href="namespaceLGE_1_1MetaDB.html#aa5218c5875c7c064fac11782f4ca1783" target="_top" xlink:title=" ">
<polygon fill="white" stroke="#666666" points="676.75,-476 528,-476 528,-456 676.75,-456 676.75,-476"/>
<text xml:space="preserve" text-anchor="middle" x="602.38" y="-462.5" font-family="Helvetica,sans-Serif" font-size="10.00">LGE::MetaDB::GenerateGUID</text>
</a>
</g>
</g>
<!-- Node23&#45;&gt;Node24 -->
<g id="edge34_Node000023_Node000024" class="edge">
<title>Node23&#45;&gt;Node24</title>
<g id="a_edge34_Node000023_Node000024"><a xlink:title=" ">
<path fill="none" stroke="#63b8ff" d="M441.43,-419.45C473.22,-428.71 519.82,-442.27 554.53,-452.37"/>
<polygon fill="#63b8ff" stroke="#63b8ff" points="553.31,-455.66 563.89,-455.09 555.27,-448.94 553.31,-455.66"/>
</a>
</g>
</g>
<!-- Node25 -->
<g id="Node000025" class="node">
<title>Node25</title>
<g id="a_Node000025"><a xlink:href="namespaceLGE_1_1LxFile.html#a06d0b8c5590da8bc48cf22d321fc4074" target="_top" xlink:title=" ">
<polygon fill="white" stroke="#666666" points="656.12,-514 548.62,-514 548.62,-494 656.12,-494 656.12,-514"/>
<text xml:space="preserve" text-anchor="middle" x="602.38" y="-500.5" font-family="Helvetica,sans-Serif" font-size="10.00">LGE::LxFile::WriteAll</text>
</a>
</g>
</g>
<!-- Node23&#45;&gt;Node25 -->
<g id="edge38_Node000023_Node000025" class="edge">
<title>Node23&#45;&gt;Node25</title>
<g id="a_edge38_Node000023_Node000025"><a xlink:title=" ">
<path fill="none" stroke="#63b8ff" d="M417.75,-419.25C437.9,-435.58 479.85,-467.46 520.5,-485 525.96,-487.36 531.76,-489.45 537.65,-491.3"/>
<polygon fill="#63b8ff" stroke="#63b8ff" points="536.27,-494.54 546.84,-493.95 538.21,-487.81 536.27,-494.54"/>
</a>
</g>
</g>
<!-- Node25&#45;&gt;Node11 -->
<g id="edge39_Node000025_Node000011" class="edge">
<title>Node25&#45;&gt;Node11</title>
<g id="a_edge39_Node000025_Node000011"><a xlink:title=" ">
<path fill="none" stroke="#63b8ff" d="M656.6,-497.49C676.56,-495.09 699.44,-492.37 720.25,-490 917.46,-467.53 967.81,-470.41 1164.25,-442 1172.12,-440.86 1180.42,-439.51 1188.54,-438.11"/>
<polygon fill="#63b8ff" stroke="#63b8ff" points="1189.11,-441.56 1198.35,-436.37 1187.89,-434.67 1189.11,-441.56"/>
</a>
</g>
</g>
<!-- Node26 -->
<g id="Node000026" class="node">
<title>Node26</title>
<g id="a_Node000026"><a xlink:href="namespaceLGE_1_1VFS.html#abb5d35abfe80efe2f7a07394ad5b706a" target="_top" xlink:title=" ">
<polygon fill="white" stroke="#666666" points="842.38,-552 723.62,-552 723.62,-532 842.38,-532 842.38,-552"/>
<text xml:space="preserve" text-anchor="middle" x="783" y="-538.5" font-family="Helvetica,sans-Serif" font-size="10.00">LGE::VFS::IsReadOnly</text>
</a>
</g>
</g>
<!-- Node25&#45;&gt;Node26 -->
<g id="edge40_Node000025_Node000026" class="edge">
<title>Node25&#45;&gt;Node26</title>
<g id="a_edge40_Node000025_Node000026"><a xlink:title=" ">
<path fill="none" stroke="#63b8ff" d="M652.66,-514.48C674.04,-519.03 699.27,-524.4 721.75,-529.18"/>
<polygon fill="#63b8ff" stroke="#63b8ff" points="720.89,-532.58 731.4,-531.24 722.34,-525.73 720.89,-532.58"/>
</a>
</g>
</g>
<!-- Node26&#45;&gt;Node10 -->
<g id="edge42_Node000026_Node000010" class="edge">
<title>Node26&#45;&gt;Node10</title>
<g id="a_edge42_Node000026_Node000010"><a xlink:title=" ">
<path fill="none" stroke="#63b8ff" d="M842.56,-545.26C887.38,-548.19 950.66,-553.23 1005.75,-561 1018.02,-562.73 1031.08,-565.01 1043.5,-567.39"/>
<polygon fill="#63b8ff" stroke="#63b8ff" points="1042.72,-570.8 1053.2,-569.3 1044.07,-563.93 1042.72,-570.8"/>
</a>
</g>
</g>
<!-- Node26&#45;&gt;Node14 -->
<g id="edge41_Node000026_Node000014" class="edge">
<title>Node26&#45;&gt;Node14</title>
<g id="a_edge41_Node000026_Node000014"><a xlink:title=" ">
<path fill="none" stroke="#63b8ff" d="M799.34,-552.42C818.11,-564.82 851.19,-585.54 881.75,-599 885.58,-600.69 889.6,-602.29 893.68,-603.79"/>
<polygon fill="#63b8ff" stroke="#63b8ff" points="892.49,-607.09 903.08,-607.05 894.78,-600.47 892.49,-607.09"/>
</a>
</g>
</g>
</g>
</svg>
