<?xml version="1.0" encoding="UTF-8" standalone="no"?>
<!DOCTYPE svg PUBLIC "-//W3C//DTD SVG 1.1//EN"
 "http://www.w3.org/Graphics/SVG/1.1/DTD/svg11.dtd">
<!-- Generated by graphviz version 14.0.2 (20251019.1705)
 -->
<!-- Title: LGE::FSOps::ImportFile Pages: 1 -->
<svg width="1145pt" height="797pt"
 viewBox="0.00 0.00 1145.00 797.00" xmlns="http://www.w3.org/2000/svg" xmlns:xlink="http://www.w3.org/1999/xlink">
<g id="graph0" class="graph" transform="scale(1 1) rotate(0) translate(4 792.61)">
<title>LGE::FSOps::ImportFile</title>
<!-- Node1 -->
<g id="Node000001" class="node">
<title>Node1</title>
<g id="a_Node000001"><a xlink:title=" ">
<polygon fill="#999999" stroke="#666666" points="121.75,-388 0,-388 0,-368 121.75,-368 121.75,-388"/>
<text xml:space="preserve" text-anchor="middle" x="60.88" y="-374.5" font-family="Helvetica,sans-Serif" font-size="10.00">LGE::FSOps::ImportFile</text>
</a>
</g>
</g>
<!-- Node2 -->
<g id="Node000002" class="node">
<title>Node2</title>
<g id="a_Node000002"><a xlink:href="namespaceLGE_1_1AssetRegistry.html#ad149a48ca6d3fb38debc8c384f1e0b18" target="_top" xlink:title=" ">
<polygon fill="white" stroke="#666666" points="291.12,-640 187.38,-640 187.38,-608 291.12,-608 291.12,-640"/>
<text xml:space="preserve" text-anchor="start" x="195.38" y="-626.5" font-family="Helvetica,sans-Serif" font-size="10.00">LGE::AssetRegistry</text>
<text xml:space="preserve" text-anchor="middle" x="239.25" y="-614.5" font-family="Helvetica,sans-Serif" font-size="10.00">::AddOrUpdate</text>
</a>
</g>
</g>
<!-- Node1&#45;&gt;Node2 -->
<g id="edge1_Node000001_Node000002" class="edge">
<title>Node1&#45;&gt;Node2</title>
<g id="a_edge1_Node000001_Node000002"><a xlink:title=" ">
<path fill="none" stroke="#63b8ff" d="M63.52,-388.2C69.55,-422.29 93.5,-533.56 157.75,-594 163.3,-599.22 169.83,-603.55 176.74,-607.14"/>
<polygon fill="#63b8ff" stroke="#63b8ff" points="175.14,-610.25 185.69,-611.25 178.07,-603.89 175.14,-610.25"/>
</a>
</g>
</g>
<!-- Node6 -->
<g id="Node000006" class="node">
<title>Node6</title>
<g id="a_Node000006"><a xlink:href="classLGE_1_1Log.html#ab0265ee050b8873a2fd31fbdb696ced0" target="_top" xlink:title=" ">
<polygon fill="white" stroke="#666666" points="667,-552 587.25,-552 587.25,-532 667,-532 667,-552"/>
<text xml:space="preserve" text-anchor="middle" x="627.12" y="-538.5" font-family="Helvetica,sans-Serif" font-size="10.00">LGE::Log::Info</text>
</a>
</g>
</g>
<!-- Node1&#45;&gt;Node6 -->
<g id="edge32_Node000001_Node000006" class="edge">
<title>Node1&#45;&gt;Node6</title>
<g id="a_edge32_Node000001_Node000006"><a xlink:title=" ">
<path fill="none" stroke="#63b8ff" d="M63.95,-388.09C70.88,-418.84 96.3,-511.58 157.75,-550 294.52,-635.51 359.84,-575.33 520.5,-561 538.77,-559.37 558.6,-556.18 576.1,-552.88"/>
<polygon fill="#63b8ff" stroke="#63b8ff" points="576.59,-556.35 585.74,-551 575.25,-549.48 576.59,-556.35"/>
</a>
</g>
</g>
<!-- Node9 -->
<g id="Node000009" class="node">
<title>Node9</title>
<g id="a_Node000009"><a xlink:href="namespaceLGE_1_1LxPath.html#a94ec3bdfd6948ddc25cda5d18154d4cf" target="_top" xlink:title=" ">
<polygon fill="white" stroke="#666666" points="843.88,-552 747.62,-552 747.62,-532 843.88,-532 843.88,-552"/>
<text xml:space="preserve" text-anchor="middle" x="795.75" y="-538.5" font-family="Helvetica,sans-Serif" font-size="10.00">LGE::LxPath::Join</text>
</a>
</g>
</g>
<!-- Node1&#45;&gt;Node9 -->
<g id="edge36_Node000001_Node000009" class="edge">
<title>Node1&#45;&gt;Node9</title>
<g id="a_edge36_Node000001_Node000009"><a xlink:title=" ">
<path fill="none" stroke="#63b8ff" d="M69.15,-388.35C83.52,-407.85 117.66,-449.73 157.75,-468 377.27,-568.05 459.13,-487.55 697.75,-523 710.35,-524.87 723.81,-527.26 736.55,-529.7"/>
<polygon fill="#63b8ff" stroke="#63b8ff" points="735.57,-533.07 746.05,-531.56 736.91,-526.2 735.57,-533.07"/>
</a>
</g>
</g>
<!-- Node11 -->
<g id="Node000011" class="node">
<title>Node11</title>
<g id="a_Node000011"><a xlink:href="classLGE_1_1Log.html#a53f3f4b8797ffd18145739c9e66d690a" target="_top" xlink:title=" ">
<polygon fill="white" stroke="#666666" points="1136.5,-457 1052.25,-457 1052.25,-437 1136.5,-437 1136.5,-457"/>
<text xml:space="preserve" text-anchor="middle" x="1094.38" y="-443.5" font-family="Helvetica,sans-Serif" font-size="10.00">LGE::Log::Error</text>
</a>
</g>
</g>
<!-- Node1&#45;&gt;Node11 -->
<g id="edge21_Node000001_Node000011" class="edge">
<title>Node1&#45;&gt;Node11</title>
<g id="a_edge21_Node000001_Node000011"><a xlink:title=" ">
<path fill="none" stroke="#63b8ff" d="M61.58,-388.28C60.89,-432.99 64.23,-612.42 157.75,-706 249.37,-797.68 308.01,-788 437.62,-788 437.62,-788 437.62,-788 796.75,-788 967.33,-788 1062.11,-542.09 1086.81,-467.92"/>
<polygon fill="#63b8ff" stroke="#63b8ff" points="1090.06,-469.24 1089.82,-458.65 1083.41,-467.08 1090.06,-469.24"/>
</a>
</g>
</g>
<!-- Node15 -->
<g id="Node000015" class="node">
<title>Node15</title>
<g id="a_Node000015"><a xlink:href="namespaceLGE_1_1LxFile.html#ab62abe452536badcfc9ab15647d6df2b" target="_top" xlink:title=" ">
<polygon fill="white" stroke="#666666" points="487.12,-552 390.12,-552 390.12,-532 487.12,-532 487.12,-552"/>
<text xml:space="preserve" text-anchor="middle" x="438.62" y="-538.5" font-family="Helvetica,sans-Serif" font-size="10.00">LGE::LxFile::Copy</text>
</a>
</g>
</g>
<!-- Node1&#45;&gt;Node15 -->
<g id="edge16_Node000001_Node000015" class="edge">
<title>Node1&#45;&gt;Node15</title>
<g id="a_edge16_Node000001_Node000015"><a xlink:title=" ">
<path fill="none" stroke="#63b8ff" d="M65.42,-388.44C75.19,-415.41 105.33,-487.43 157.75,-518 225.53,-557.52 318.65,-556.85 378.49,-550.89"/>
<polygon fill="#63b8ff" stroke="#63b8ff" points="378.57,-554.4 388.13,-549.85 377.81,-547.45 378.57,-554.4"/>
</a>
</g>
</g>
<!-- Node17 -->
<g id="Node000017" class="node">
<title>Node17</title>
<g id="a_Node000017"><a xlink:href="namespaceLGE_1_1LxFile.html#a11e62876b312a11b881b484bb3a5ee71" target="_top" xlink:title=" ">
<polygon fill="white" stroke="#666666" points="290,-58 188.5,-58 188.5,-38 290,-38 290,-58"/>
<text xml:space="preserve" text-anchor="middle" x="239.25" y="-44.5" font-family="Helvetica,sans-Serif" font-size="10.00">LGE::LxFile::Exists</text>
</a>
</g>
</g>
<!-- Node1&#45;&gt;Node17 -->
<g id="edge22_Node000001_Node000017" class="edge">
<title>Node1&#45;&gt;Node17</title>
<g id="a_edge22_Node000001_Node000017"><a xlink:title=" ">
<path fill="none" stroke="#63b8ff" d="M61.85,-367.54C62.31,-324.42 69.95,-158.59 157.75,-72 163.4,-66.43 170.28,-62.15 177.61,-58.85"/>
<polygon fill="#63b8ff" stroke="#63b8ff" points="178.69,-62.19 186.78,-55.36 176.19,-55.64 178.69,-62.19"/>
</a>
</g>
</g>
<!-- Node18 -->
<g id="Node000018" class="node">
<title>Node18</title>
<g id="a_Node000018"><a xlink:href="namespaceLGE_1_1MetaDB.html#aa5218c5875c7c064fac11782f4ca1783" target="_top" xlink:title=" ">
<polygon fill="white" stroke="#666666" points="513,-172 364.25,-172 364.25,-152 513,-152 513,-172"/>
<text xml:space="preserve" text-anchor="middle" x="438.62" y="-158.5" font-family="Helvetica,sans-Serif" font-size="10.00">LGE::MetaDB::GenerateGUID</text>
</a>
</g>
</g>
<!-- Node1&#45;&gt;Node18 -->
<g id="edge23_Node000001_Node000018" class="edge">
<title>Node1&#45;&gt;Node18</title>
<g id="a_edge23_Node000001_Node000018"><a xlink:title=" ">
<path fill="none" stroke="#63b8ff" d="M64.82,-367.82C73.64,-339.24 102.71,-257.84 157.75,-219 214.56,-178.91 293.09,-165.64 352.52,-161.83"/>
<polygon fill="#63b8ff" stroke="#63b8ff" points="352.46,-165.34 362.25,-161.29 352.07,-158.35 352.46,-165.34"/>
</a>
</g>
</g>
<!-- Node19 -->
<g id="Node000019" class="node">
<title>Node19</title>
<g id="a_Node000019"><a xlink:href="namespaceLGE_1_1MetaDB.html#ac3c89a17fca31198d7c110a55749d8a8" target="_top" xlink:title=" ">
<polygon fill="white" stroke="#666666" points="312.12,-438 166.38,-438 166.38,-406 312.12,-406 312.12,-438"/>
<text xml:space="preserve" text-anchor="start" x="174.38" y="-424.5" font-family="Helvetica,sans-Serif" font-size="10.00">LGE::MetaDB::GetAssetType</text>
<text xml:space="preserve" text-anchor="middle" x="239.25" y="-412.5" font-family="Helvetica,sans-Serif" font-size="10.00">FromExtension</text>
</a>
</g>
</g>
<!-- Node1&#45;&gt;Node19 -->
<g id="edge24_Node000001_Node000019" class="edge">
<title>Node1&#45;&gt;Node19</title>
<g id="a_edge24_Node000001_Node000019"><a xlink:title=" ">
<path fill="none" stroke="#63b8ff" d="M103.67,-388.43C120.95,-392.74 141.55,-397.88 161.37,-402.82"/>
<polygon fill="#63b8ff" stroke="#63b8ff" points="160.26,-406.15 170.81,-405.17 161.95,-399.36 160.26,-406.15"/>
</a>
</g>
</g>
<!-- Node21 -->
<g id="Node000021" class="node">
<title>Node21</title>
<g id="a_Node000021"><a xlink:href="namespaceLGE_1_1LxPath.html#a282200340a7ec214f14f5d64e9e41396" target="_top" xlink:title=" ">
<polygon fill="white" stroke="#666666" points="694,-362 560.25,-362 560.25,-342 694,-342 694,-362"/>
<text xml:space="preserve" text-anchor="middle" x="627.12" y="-348.5" font-family="Helvetica,sans-Serif" font-size="10.00">LGE::LxPath::GetFilename</text>
</a>
</g>
</g>
<!-- Node1&#45;&gt;Node21 -->
<g id="edge28_Node000001_Node000021" class="edge">
<title>Node1&#45;&gt;Node21</title>
<g id="a_edge28_Node000001_Node000021"><a xlink:title=" ">
<path fill="none" stroke="#63b8ff" d="M106.01,-367.52C122.19,-364.14 140.71,-360.8 157.75,-359 294.78,-344.52 455.59,-346.14 548.68,-348.89"/>
<polygon fill="#63b8ff" stroke="#63b8ff" points="548.35,-352.38 558.46,-349.19 548.57,-345.39 548.35,-352.38"/>
</a>
</g>
</g>
<!-- Node22 -->
<g id="Node000022" class="node">
<title>Node22</title>
<g id="a_Node000022"><a xlink:href="namespaceLGE_1_1LxPath.html#a012b60f3a9d31adc62694d2a4617c604" target="_top" xlink:title=" ">
<polygon fill="white" stroke="#666666" points="694.75,-286 559.5,-286 559.5,-266 694.75,-266 694.75,-286"/>
<text xml:space="preserve" text-anchor="middle" x="627.12" y="-272.5" font-family="Helvetica,sans-Serif" font-size="10.00">LGE::LxPath::GetRootPath</text>
</a>
</g>
</g>
<!-- Node1&#45;&gt;Node22 -->
<g id="edge29_Node000001_Node000022" class="edge">
<title>Node1&#45;&gt;Node22</title>
<g id="a_edge29_Node000001_Node000022"><a xlink:title=" ">
<path fill="none" stroke="#63b8ff" d="M61.83,-367.7C62.25,-326.78 69.88,-174.81 157.75,-111 222.99,-63.63 450.09,-65.73 520.5,-105 578.8,-137.51 608.95,-216.92 620.47,-254.98"/>
<polygon fill="#63b8ff" stroke="#63b8ff" points="617.02,-255.67 623.15,-264.32 623.75,-253.74 617.02,-255.67"/>
</a>
</g>
</g>
<!-- Node25 -->
<g id="Node000025" class="node">
<title>Node25</title>
<g id="a_Node000025"><a xlink:href="namespaceLGE_1_1LxFile.html#a16bd14fd1af0cad0e89bcd8d5841e7fd" target="_top" xlink:title=" ">
<polygon fill="white" stroke="#666666" points="288.12,-20 190.38,-20 190.38,0 288.12,0 288.12,-20"/>
<text xml:space="preserve" text-anchor="middle" x="239.25" y="-6.5" font-family="Helvetica,sans-Serif" font-size="10.00">LGE::LxFile::IsFile</text>
</a>
</g>
</g>
<!-- Node1&#45;&gt;Node25 -->
<g id="edge33_Node000001_Node000025" class="edge">
<title>Node1&#45;&gt;Node25</title>
<g id="a_edge33_Node000001_Node000025"><a xlink:title=" ">
<path fill="none" stroke="#63b8ff" d="M63.26,-367.83C70.58,-315.67 106.3,-78.61 157.75,-29 163.86,-23.11 171.44,-18.93 179.48,-15.97"/>
<polygon fill="#63b8ff" stroke="#63b8ff" points="180.21,-19.41 188.79,-13.2 178.21,-12.7 180.21,-19.41"/>
</a>
</g>
</g>
<!-- Node26 -->
<g id="Node000026" class="node">
<title>Node26</title>
<g id="a_Node000026"><a xlink:href="namespaceLGE_1_1VFS.html#a3b77204931f0358cf094d1a0ffaa3bdd" target="_top" xlink:title=" ">
<polygon fill="white" stroke="#666666" points="312.12,-697 166.38,-697 166.38,-677 312.12,-677 312.12,-697"/>
<text xml:space="preserve" text-anchor="middle" x="239.25" y="-683.5" font-family="Helvetica,sans-Serif" font-size="10.00">LGE::VFS::IsMountReadOnly</text>
</a>
</g>
</g>
<!-- Node1&#45;&gt;Node26 -->
<g id="edge34_Node000001_Node000026" class="edge">
<title>Node1&#45;&gt;Node26</title>
<g id="a_edge34_Node000001_Node000026"><a xlink:title=" ">
<path fill="none" stroke="#63b8ff" d="M62.71,-388.27C66.4,-427.24 84.47,-567.91 157.75,-649 166.73,-658.93 178.85,-666.49 190.95,-672.15"/>
<polygon fill="#63b8ff" stroke="#63b8ff" points="189.54,-675.36 200.12,-676.05 192.29,-668.92 189.54,-675.36"/>
</a>
</g>
</g>
<!-- Node27 -->
<g id="Node000027" class="node">
<title>Node27</title>
<g id="a_Node000027"><a xlink:href="namespaceLGE_1_1MetaDB.html#acf585df19a673c62d6b82587160ef8d6" target="_top" xlink:title=" ">
<polygon fill="white" stroke="#666666" points="320.75,-388 157.75,-388 157.75,-368 320.75,-368 320.75,-388"/>
<text xml:space="preserve" text-anchor="middle" x="239.25" y="-374.5" font-family="Helvetica,sans-Serif" font-size="10.00">LGE::MetaDB::RequiresMetadata</text>
</a>
</g>
</g>
<!-- Node1&#45;&gt;Node27 -->
<g id="edge37_Node000001_Node000027" class="edge">
<title>Node1&#45;&gt;Node27</title>
<g id="a_edge37_Node000001_Node000027"><a xlink:title=" ">
<path fill="none" stroke="#63b8ff" d="M122.08,-378C129.81,-378 137.87,-378 145.96,-378"/>
<polygon fill="#63b8ff" stroke="#63b8ff" points="145.9,-381.5 155.9,-378 145.9,-374.5 145.9,-381.5"/>
</a>
</g>
</g>
<!-- Node28 -->
<g id="Node000028" class="node">
<title>Node28</title>
<g id="a_Node000028"><a xlink:href="namespaceLGE_1_1MetaDB.html#a93501266bbc2bb77874f90247fcc90ba" target="_top" xlink:title=" ">
<polygon fill="white" stroke="#666666" points="292.25,-248 186.25,-248 186.25,-228 292.25,-228 292.25,-248"/>
<text xml:space="preserve" text-anchor="middle" x="239.25" y="-234.5" font-family="Helvetica,sans-Serif" font-size="10.00">LGE::MetaDB::Save</text>
</a>
</g>
</g>
<!-- Node1&#45;&gt;Node28 -->
<g id="edge39_Node000001_Node000028" class="edge">
<title>Node1&#45;&gt;Node28</title>
<g id="a_edge39_Node000001_Node000028"><a xlink:title=" ">
<path fill="none" stroke="#63b8ff" d="M71.64,-367.58C88.34,-350.04 123.89,-314 157.75,-288 174.13,-275.42 193.8,-263.16 209.59,-253.93"/>
<polygon fill="#63b8ff" stroke="#63b8ff" points="211.1,-257.1 218.03,-249.08 207.61,-251.03 211.1,-257.1"/>
</a>
</g>
</g>
<!-- Node30 -->
<g id="Node000030" class="node">
<title>Node30</title>
<g id="a_Node000030"><a xlink:href="namespaceLGE_1_1MetaDB.html#ad37cdebb704d7ca276bbb10e84d94f1a" target="_top" xlink:title=" ">
<polygon fill="white" stroke="#666666" points="520.5,-134 356.75,-134 356.75,-114 520.5,-114 520.5,-134"/>
<text xml:space="preserve" text-anchor="middle" x="438.62" y="-120.5" font-family="Helvetica,sans-Serif" font-size="10.00">LGE::MetaDB::UpdateTimestamp</text>
</a>
</g>
</g>
<!-- Node1&#45;&gt;Node30 -->
<g id="edge58_Node000001_Node000030" class="edge">
<title>Node1&#45;&gt;Node30</title>
<g id="a_edge58_Node000001_Node000030"><a xlink:title=" ">
<path fill="none" stroke="#63b8ff" d="M62.95,-367.67C67.25,-332.16 86.56,-214.35 157.75,-161 210.9,-121.17 286.21,-113.14 345.32,-114.4"/>
<polygon fill="#63b8ff" stroke="#63b8ff" points="344.92,-117.89 355.02,-114.71 345.14,-110.9 344.92,-117.89"/>
</a>
</g>
</g>
<!-- Node32 -->
<g id="Node000032" class="node">
<title>Node32</title>
<g id="a_Node000032"><a xlink:href="namespaceLGE_1_1LxPath.html#a30bfeffc37846007936752889ffa7a8c" target="_top" xlink:title=" ">
<polygon fill="white" stroke="#666666" points="502.12,-438 375.12,-438 375.12,-418 502.12,-418 502.12,-438"/>
<text xml:space="preserve" text-anchor="middle" x="438.62" y="-424.5" font-family="Helvetica,sans-Serif" font-size="10.00">LGE::LxPath::ToAbsolute</text>
</a>
</g>
</g>
<!-- Node1&#45;&gt;Node32 -->
<g id="edge48_Node000001_Node000032" class="edge">
<title>Node1&#45;&gt;Node32</title>
<g id="a_edge48_Node000001_Node000032"><a xlink:title=" ">
<path fill="none" stroke="#63b8ff" d="M71.58,-388.29C87.65,-404.51 121.64,-435.36 157.75,-447 237.11,-472.59 335.5,-455.45 391.97,-441.29"/>
<polygon fill="#63b8ff" stroke="#63b8ff" points="392.76,-444.71 401.56,-438.81 391,-437.93 392.76,-444.71"/>
</a>
</g>
</g>
<!-- Node33 -->
<g id="Node000033" class="node">
<title>Node33</title>
<g id="a_Node000033"><a xlink:href="namespaceLGE_1_1LxPath.html#a0dcbf836da613a26147396028c0dce05" target="_top" xlink:title=" ">
<polygon fill="white" stroke="#666666" points="689.5,-324 564.75,-324 564.75,-304 689.5,-304 689.5,-324"/>
<text xml:space="preserve" text-anchor="middle" x="627.12" y="-310.5" font-family="Helvetica,sans-Serif" font-size="10.00">LGE::LxPath::ToRelative</text>
</a>
</g>
</g>
<!-- Node1&#45;&gt;Node33 -->
<g id="edge52_Node000001_Node000033" class="edge">
<title>Node1&#45;&gt;Node33</title>
<g id="a_edge52_Node000001_Node000033"><a xlink:title=" ">
<path fill="none" stroke="#63b8ff" d="M86.21,-367.61C105.29,-359.96 132.73,-350.04 157.75,-345 295.46,-317.26 460.08,-312.82 552.93,-312.88"/>
<polygon fill="#63b8ff" stroke="#63b8ff" points="552.92,-316.38 562.93,-312.91 552.94,-309.38 552.92,-316.38"/>
</a>
</g>
</g>
<!-- Node3 -->
<g id="Node000003" class="node">
<title>Node3</title>
<g id="a_Node000003"><a xlink:href="namespaceLGE_1_1AssetRegistry.html#abf12143e6f506efd22e4ec9ef670134a" target="_top" xlink:title=" ">
<polygon fill="white" stroke="#666666" points="515.62,-678 361.62,-678 361.62,-646 515.62,-646 515.62,-678"/>
<text xml:space="preserve" text-anchor="start" x="369.62" y="-664.5" font-family="Helvetica,sans-Serif" font-size="10.00">LGE::AssetRegistry</text>
<text xml:space="preserve" text-anchor="middle" x="438.62" y="-652.5" font-family="Helvetica,sans-Serif" font-size="10.00">::BuildReverseDependencyMap</text>
</a>
</g>
</g>
<!-- Node2&#45;&gt;Node3 -->
<g id="edge2_Node000002_Node000003" class="edge">
<title>Node2&#45;&gt;Node3</title>
<g id="a_edge2_Node000002_Node000003"><a xlink:title=" ">
<path fill="none" stroke="#63b8ff" d="M291.59,-633.88C309.52,-637.34 330.18,-641.31 350.2,-645.17"/>
<polygon fill="#63b8ff" stroke="#63b8ff" points="349.28,-648.56 359.76,-647.01 350.6,-641.68 349.28,-648.56"/>
</a>
</g>
</g>
<!-- Node13 -->
<g id="Node000013" class="node">
<title>Node13</title>
<g id="a_Node000013"><a xlink:href="namespaceLGE_1_1VFS.html#aee891612cc393155878775a61e486c0b" target="_top" xlink:title=" ">
<polygon fill="white" stroke="#666666" points="689.88,-590 564.38,-590 564.38,-570 689.88,-570 689.88,-590"/>
<text xml:space="preserve" text-anchor="middle" x="627.12" y="-576.5" font-family="Helvetica,sans-Serif" font-size="10.00">LGE::VFS::ToVirtualPath</text>
</a>
</g>
</g>
<!-- Node2&#45;&gt;Node13 -->
<g id="edge12_Node000002_Node000013" class="edge">
<title>Node2&#45;&gt;Node13</title>
<g id="a_edge12_Node000002_Node000013"><a xlink:title=" ">
<path fill="none" stroke="#63b8ff" d="M291.43,-618.91C347.65,-613.23 440.58,-603.57 520.5,-594 530.93,-592.75 541.93,-591.37 552.73,-589.97"/>
<polygon fill="#63b8ff" stroke="#63b8ff" points="552.92,-593.48 562.38,-588.71 552.01,-586.53 552.92,-593.48"/>
</a>
</g>
</g>
<!-- Node4 -->
<g id="Node000004" class="node">
<title>Node4</title>
<g id="a_Node000004"><a xlink:href="namespaceLGE_1_1AssetRegistry.html#ac315fdb87be485fe8103d455b7e8a464" target="_top" xlink:title=" ">
<polygon fill="white" stroke="#666666" points="679,-760 575.25,-760 575.25,-728 679,-728 679,-760"/>
<text xml:space="preserve" text-anchor="start" x="583.25" y="-746.5" font-family="Helvetica,sans-Serif" font-size="10.00">LGE::AssetRegistry</text>
<text xml:space="preserve" text-anchor="middle" x="627.12" y="-734.5" font-family="Helvetica,sans-Serif" font-size="10.00">::FindByPath</text>
</a>
</g>
</g>
<!-- Node3&#45;&gt;Node4 -->
<g id="edge3_Node000003_Node000004" class="edge">
<title>Node3&#45;&gt;Node4</title>
<g id="a_edge3_Node000003_Node000004"><a xlink:title=" ">
<path fill="none" stroke="#63b8ff" d="M476.92,-678.4C506.14,-691.25 547,-709.21 578.58,-723.09"/>
<polygon fill="#63b8ff" stroke="#63b8ff" points="576.95,-726.2 587.51,-727.02 579.77,-719.79 576.95,-726.2"/>
</a>
</g>
</g>
<!-- Node3&#45;&gt;Node6 -->
<g id="edge5_Node000003_Node000006" class="edge">
<title>Node3&#45;&gt;Node6</title>
<g id="a_edge5_Node000003_Node000006"><a xlink:title=" ">
<path fill="none" stroke="#63b8ff" d="M459.44,-645.74C475.93,-632.11 499.96,-612.03 520.5,-594 536.81,-579.68 537.5,-571.49 556.5,-561 562.62,-557.62 569.38,-554.82 576.21,-552.49"/>
<polygon fill="#63b8ff" stroke="#63b8ff" points="576.92,-555.93 585.46,-549.66 574.88,-549.24 576.92,-555.93"/>
</a>
</g>
</g>
<!-- Node7 -->
<g id="Node000007" class="node">
<title>Node7</title>
<g id="a_Node000007"><a xlink:href="namespaceLGE_1_1VFS.html#a9eb41e42c96a4f5358c79e30afb579cc" target="_top" xlink:title=" ">
<polygon fill="white" stroke="#666666" points="697.75,-628 556.5,-628 556.5,-608 697.75,-608 697.75,-628"/>
<text xml:space="preserve" text-anchor="middle" x="627.12" y="-614.5" font-family="Helvetica,sans-Serif" font-size="10.00">LGE::VFS::ResolveAbsolute</text>
</a>
</g>
</g>
<!-- Node3&#45;&gt;Node7 -->
<g id="edge6_Node000003_Node000007" class="edge">
<title>Node3&#45;&gt;Node7</title>
<g id="a_edge6_Node000003_Node000007"><a xlink:title=" ">
<path fill="none" stroke="#63b8ff" d="M509.34,-645.55C529.57,-640.78 551.4,-635.63 570.64,-631.09"/>
<polygon fill="#63b8ff" stroke="#63b8ff" points="571.23,-634.55 580.16,-628.84 569.62,-627.73 571.23,-634.55"/>
</a>
</g>
</g>
<!-- Node5 -->
<g id="Node000005" class="node">
<title>Node5</title>
<g id="a_Node000005"><a xlink:href="namespaceLGE_1_1AssetRegistry.html#a9e672f9e3c8c62076b9156d1695e48b8" target="_top" xlink:title=" ">
<polygon fill="white" stroke="#666666" points="847.62,-760 743.88,-760 743.88,-728 847.62,-728 847.62,-760"/>
<text xml:space="preserve" text-anchor="start" x="751.88" y="-746.5" font-family="Helvetica,sans-Serif" font-size="10.00">LGE::AssetRegistry</text>
<text xml:space="preserve" text-anchor="middle" x="795.75" y="-734.5" font-family="Helvetica,sans-Serif" font-size="10.00">::FindByGUID</text>
</a>
</g>
</g>
<!-- Node4&#45;&gt;Node5 -->
<g id="edge4_Node000004_Node000005" class="edge">
<title>Node4&#45;&gt;Node5</title>
<g id="a_edge4_Node000004_Node000005"><a xlink:title=" ">
<path fill="none" stroke="#63b8ff" d="M679.48,-744C696.19,-744 714.91,-744 732.34,-744"/>
<polygon fill="#63b8ff" stroke="#63b8ff" points="732.05,-747.5 742.05,-744 732.05,-740.5 732.05,-747.5"/>
</a>
</g>
</g>
<!-- Node8 -->
<g id="Node000008" class="node">
<title>Node8</title>
<g id="a_Node000008"><a xlink:href="namespaceLGE_1_1VFS.html#a0566c02123208c6b867418e914f9574b" target="_top" xlink:title=" ">
<polygon fill="white" stroke="#666666" points="850.62,-710 740.88,-710 740.88,-690 850.62,-690 850.62,-710"/>
<text xml:space="preserve" text-anchor="middle" x="795.75" y="-696.5" font-family="Helvetica,sans-Serif" font-size="10.00">LGE::VFS::GetMount</text>
</a>
</g>
</g>
<!-- Node7&#45;&gt;Node8 -->
<g id="edge7_Node000007_Node000008" class="edge">
<title>Node7&#45;&gt;Node8</title>
<g id="a_edge7_Node000007_Node000008"><a xlink:title=" ">
<path fill="none" stroke="#63b8ff" d="M649.23,-628.39C678.07,-642.58 730.02,-668.15 763.42,-684.58"/>
<polygon fill="#63b8ff" stroke="#63b8ff" points="761.68,-687.63 772.2,-688.9 764.77,-681.35 761.68,-687.63"/>
</a>
</g>
</g>
<!-- Node7&#45;&gt;Node9 -->
<g id="edge8_Node000007_Node000009" class="edge">
<title>Node7&#45;&gt;Node9</title>
<g id="a_edge8_Node000007_Node000009"><a xlink:title=" ">
<path fill="none" stroke="#63b8ff" d="M673.29,-607.55C681.56,-605.12 690.01,-602.26 697.75,-599 723.84,-588 751.48,-571.19 770.56,-558.67"/>
<polygon fill="#63b8ff" stroke="#63b8ff" points="772.32,-561.7 778.69,-553.23 768.43,-555.87 772.32,-561.7"/>
</a>
</g>
</g>
<!-- Node12 -->
<g id="Node000012" class="node">
<title>Node12</title>
<g id="a_Node000012"><a xlink:href="classLGE_1_1Log.html#aa6f98018af29c23dd7f574d3df5dda5e" target="_top" xlink:title=" ">
<polygon fill="white" stroke="#666666" points="838.62,-514 752.88,-514 752.88,-494 838.62,-494 838.62,-514"/>
<text xml:space="preserve" text-anchor="middle" x="795.75" y="-500.5" font-family="Helvetica,sans-Serif" font-size="10.00">LGE::Log::Warn</text>
</a>
</g>
</g>
<!-- Node7&#45;&gt;Node12 -->
<g id="edge11_Node000007_Node000012" class="edge">
<title>Node7&#45;&gt;Node12</title>
<g id="a_edge11_Node000007_Node000012"><a xlink:title=" ">
<path fill="none" stroke="#63b8ff" d="M683.94,-607.61C688.91,-605.29 693.62,-602.46 697.75,-599 726.4,-575 705.53,-547.51 733.75,-523 736.39,-520.71 739.3,-518.7 742.37,-516.92"/>
<polygon fill="#63b8ff" stroke="#63b8ff" points="743.74,-520.15 751.27,-512.7 740.74,-513.83 743.74,-520.15"/>
</a>
</g>
</g>
<!-- Node10 -->
<g id="Node000010" class="node">
<title>Node10</title>
<g id="a_Node000010"><a xlink:href="namespaceLGE_1_1LxPath.html#a314a60ce690c90f4ee0b4e64c0199408" target="_top" xlink:title=" ">
<polygon fill="white" stroke="#666666" points="1016.25,-457 893.75,-457 893.75,-437 1016.25,-437 1016.25,-457"/>
<text xml:space="preserve" text-anchor="middle" x="955" y="-443.5" font-family="Helvetica,sans-Serif" font-size="10.00">LGE::LxPath::Normalize</text>
</a>
</g>
</g>
<!-- Node9&#45;&gt;Node10 -->
<g id="edge9_Node000009_Node000010" class="edge">
<title>Node9&#45;&gt;Node10</title>
<g id="a_edge9_Node000009_Node000010"><a xlink:title=" ">
<path fill="none" stroke="#63b8ff" d="M837.62,-531.56C844.52,-529.15 851.47,-526.31 857.75,-523 887.4,-507.37 916.97,-482.23 935.36,-465.18"/>
<polygon fill="#63b8ff" stroke="#63b8ff" points="937.71,-467.77 942.57,-458.36 932.9,-462.69 937.71,-467.77"/>
</a>
</g>
</g>
<!-- Node10&#45;&gt;Node11 -->
<g id="edge10_Node000010_Node000011" class="edge">
<title>Node10&#45;&gt;Node11</title>
<g id="a_edge10_Node000010_Node000011"><a xlink:title=" ">
<path fill="none" stroke="#63b8ff" d="M1016.65,-447C1024.67,-447 1032.84,-447 1040.7,-447"/>
<polygon fill="#63b8ff" stroke="#63b8ff" points="1040.45,-450.5 1050.45,-447 1040.45,-443.5 1040.45,-450.5"/>
</a>
</g>
</g>
<!-- Node13&#45;&gt;Node10 -->
<g id="edge15_Node000013_Node000010" class="edge">
<title>Node13&#45;&gt;Node10</title>
<g id="a_edge15_Node000013_Node000010"><a xlink:title=" ">
<path fill="none" stroke="#63b8ff" d="M690.13,-587.32C738.45,-590.18 805.84,-587.77 857.75,-561 898.42,-540.03 928.79,-493.71 943.71,-467.02"/>
<polygon fill="#63b8ff" stroke="#63b8ff" points="946.61,-469.02 948.27,-458.55 940.45,-465.7 946.61,-469.02"/>
</a>
</g>
</g>
<!-- Node14 -->
<g id="Node000014" class="node">
<title>Node14</title>
<g id="a_Node000014"><a xlink:href="namespaceLGE_1_1LxPath.html#ab664986e94ce09aa029f9eb2fcf50133" target="_top" xlink:title=" ">
<polygon fill="white" stroke="#666666" points="857.75,-476 733.75,-476 733.75,-456 857.75,-456 857.75,-476"/>
<text xml:space="preserve" text-anchor="middle" x="795.75" y="-462.5" font-family="Helvetica,sans-Serif" font-size="10.00">LGE::LxPath::IsSubPath</text>
</a>
</g>
</g>
<!-- Node13&#45;&gt;Node14 -->
<g id="edge13_Node000013_Node000014" class="edge">
<title>Node13&#45;&gt;Node14</title>
<g id="a_edge13_Node000013_Node000014"><a xlink:title=" ">
<path fill="none" stroke="#63b8ff" d="M683.94,-569.61C688.91,-567.29 693.62,-564.46 697.75,-561 726.4,-537 705.53,-509.51 733.75,-485 734.86,-484.04 736.01,-483.13 737.21,-482.26"/>
<polygon fill="#63b8ff" stroke="#63b8ff" points="738.88,-485.33 745.73,-477.25 735.34,-479.3 738.88,-485.33"/>
</a>
</g>
</g>
<!-- Node14&#45;&gt;Node10 -->
<g id="edge14_Node000014_Node000010" class="edge">
<title>Node14&#45;&gt;Node10</title>
<g id="a_edge14_Node000014_Node000010"><a xlink:title=" ">
<path fill="none" stroke="#63b8ff" d="M858,-458.6C865.91,-457.64 874.07,-456.66 882.13,-455.68"/>
<polygon fill="#63b8ff" stroke="#63b8ff" points="882.43,-459.17 891.93,-454.5 881.59,-452.22 882.43,-459.17"/>
</a>
</g>
</g>
<!-- Node15&#45;&gt;Node11 -->
<g id="edge17_Node000015_Node000011" class="edge">
<title>Node15&#45;&gt;Node11</title>
<g id="a_edge17_Node000015_Node000011"><a xlink:title=" ">
<path fill="none" stroke="#63b8ff" d="M447.92,-552.38C465.35,-573.27 508.2,-619.85 556.5,-637 615.66,-658.01 635.66,-646.29 697.75,-637 771.3,-625.99 789.79,-618.2 857.75,-588 939.65,-551.6 1028.33,-492.62 1069.67,-463.86"/>
<polygon fill="#63b8ff" stroke="#63b8ff" points="1071.48,-466.86 1077.66,-458.26 1067.46,-461.13 1071.48,-466.86"/>
</a>
</g>
</g>
<!-- Node16 -->
<g id="Node000016" class="node">
<title>Node16</title>
<g id="a_Node000016"><a xlink:href="namespaceLGE_1_1VFS.html#abb5d35abfe80efe2f7a07394ad5b706a" target="_top" xlink:title=" ">
<polygon fill="white" stroke="#666666" points="686.5,-400 567.75,-400 567.75,-380 686.5,-380 686.5,-400"/>
<text xml:space="preserve" text-anchor="middle" x="627.12" y="-386.5" font-family="Helvetica,sans-Serif" font-size="10.00">LGE::VFS::IsReadOnly</text>
</a>
</g>
</g>
<!-- Node15&#45;&gt;Node16 -->
<g id="edge18_Node000015_Node000016" class="edge">
<title>Node15&#45;&gt;Node16</title>
<g id="a_edge18_Node000015_Node000016"><a xlink:title=" ">
<path fill="none" stroke="#63b8ff" d="M452.44,-531.55C484.14,-505.72 566.42,-438.66 605.25,-407.01"/>
<polygon fill="#63b8ff" stroke="#63b8ff" points="606.99,-410.11 612.53,-401.08 602.57,-404.68 606.99,-410.11"/>
</a>
</g>
</g>
<!-- Node16&#45;&gt;Node10 -->
<g id="edge20_Node000016_Node000010" class="edge">
<title>Node16&#45;&gt;Node10</title>
<g id="a_edge20_Node000016_Node000010"><a xlink:title=" ">
<path fill="none" stroke="#63b8ff" d="M686.76,-400.26C741.85,-409.89 824.38,-424.33 883.13,-434.6"/>
<polygon fill="#63b8ff" stroke="#63b8ff" points="882.24,-438 892.69,-436.28 883.44,-431.11 882.24,-438"/>
</a>
</g>
</g>
<!-- Node16&#45;&gt;Node14 -->
<g id="edge19_Node000016_Node000014" class="edge">
<title>Node16&#45;&gt;Node14</title>
<g id="a_edge19_Node000016_Node000014"><a xlink:title=" ">
<path fill="none" stroke="#63b8ff" d="M665.58,-400.39C676.28,-404.03 687.74,-408.58 697.75,-414 715.57,-423.66 716.14,-431.96 733.75,-442 739.78,-445.44 746.41,-448.6 753,-451.43"/>
<polygon fill="#63b8ff" stroke="#63b8ff" points="751.25,-454.49 761.83,-455.01 753.88,-448.01 751.25,-454.49"/>
</a>
</g>
</g>
<!-- Node20 -->
<g id="Node000020" class="node">
<title>Node20</title>
<g id="a_Node000020"><a xlink:href="namespaceLGE_1_1LxPath.html#a442709c353add1504cfb1d9d496f3014" target="_top" xlink:title=" ">
<polygon fill="white" stroke="#666666" points="507.38,-400 369.88,-400 369.88,-380 507.38,-380 507.38,-400"/>
<text xml:space="preserve" text-anchor="middle" x="438.62" y="-386.5" font-family="Helvetica,sans-Serif" font-size="10.00">LGE::LxPath::GetExtension</text>
</a>
</g>
</g>
<!-- Node19&#45;&gt;Node20 -->
<g id="edge25_Node000019_Node000020" class="edge">
<title>Node19&#45;&gt;Node20</title>
<g id="a_edge25_Node000019_Node000020"><a xlink:title=" ">
<path fill="none" stroke="#63b8ff" d="M312.62,-410.27C328.71,-407.66 345.81,-404.89 362.03,-402.26"/>
<polygon fill="#63b8ff" stroke="#63b8ff" points="362.29,-405.76 371.6,-400.71 361.17,-398.85 362.29,-405.76"/>
</a>
</g>
</g>
<!-- Node20&#45;&gt;Node21 -->
<g id="edge26_Node000020_Node000021" class="edge">
<title>Node20&#45;&gt;Node21</title>
<g id="a_edge26_Node000020_Node000021"><a xlink:title=" ">
<path fill="none" stroke="#63b8ff" d="M491.08,-379.52C513.61,-374.93 540.23,-369.5 563.86,-364.69"/>
<polygon fill="#63b8ff" stroke="#63b8ff" points="564.25,-368.18 573.35,-362.75 562.86,-361.32 564.25,-368.18"/>
</a>
</g>
</g>
<!-- Node21&#45;&gt;Node10 -->
<g id="edge27_Node000021_Node000010" class="edge">
<title>Node21&#45;&gt;Node10</title>
<g id="a_edge27_Node000021_Node000010"><a xlink:title=" ">
<path fill="none" stroke="#63b8ff" d="M684.55,-362.45C731.49,-371.81 799.77,-386.99 857.75,-406 879.82,-413.24 903.87,-423.48 922.4,-431.91"/>
<polygon fill="#63b8ff" stroke="#63b8ff" points="920.7,-434.98 931.24,-436 923.64,-428.63 920.7,-434.98"/>
</a>
</g>
</g>
<!-- Node23 -->
<g id="Node000023" class="node">
<title>Node23</title>
<g id="a_Node000023"><a xlink:href="namespaceLGE_1_1LxFS.html#a5684a30f3fa2906f4dafed0258a79166" target="_top" xlink:title=" ">
<polygon fill="white" stroke="#666666" points="855.88,-324 735.62,-324 735.62,-304 855.88,-304 855.88,-324"/>
<text xml:space="preserve" text-anchor="middle" x="795.75" y="-310.5" font-family="Helvetica,sans-Serif" font-size="10.00">LGE::LxFS::IsInitialized</text>
</a>
</g>
</g>
<!-- Node22&#45;&gt;Node23 -->
<g id="edge30_Node000022_Node000023" class="edge">
<title>Node22&#45;&gt;Node23</title>
<g id="a_edge30_Node000022_Node000023"><a xlink:title=" ">
<path fill="none" stroke="#63b8ff" d="M674.1,-286.48C693.86,-290.99 717.15,-296.3 737.97,-301.05"/>
<polygon fill="#63b8ff" stroke="#63b8ff" points="736.92,-304.4 747.45,-303.21 738.48,-297.58 736.92,-304.4"/>
</a>
</g>
</g>
<!-- Node24 -->
<g id="Node000024" class="node">
<title>Node24</title>
<g id="a_Node000024"><a xlink:href="namespaceLGE_1_1LxFS.html#a12aeb6699602f14153953dceb4284914" target="_top" xlink:title=" ">
<polygon fill="white" stroke="#666666" points="843.88,-286 747.62,-286 747.62,-266 843.88,-266 843.88,-286"/>
<text xml:space="preserve" text-anchor="middle" x="795.75" y="-272.5" font-family="Helvetica,sans-Serif" font-size="10.00">LGE::LxFS::Paths</text>
</a>
</g>
</g>
<!-- Node22&#45;&gt;Node24 -->
<g id="edge31_Node000022_Node000024" class="edge">
<title>Node22&#45;&gt;Node24</title>
<g id="a_edge31_Node000022_Node000024"><a xlink:title=" ">
<path fill="none" stroke="#63b8ff" d="M694.94,-276C708.45,-276 722.57,-276 735.79,-276"/>
<polygon fill="#63b8ff" stroke="#63b8ff" points="735.63,-279.5 745.63,-276 735.63,-272.5 735.63,-279.5"/>
</a>
</g>
</g>
<!-- Node26&#45;&gt;Node8 -->
<g id="edge35_Node000026_Node000008" class="edge">
<title>Node26&#45;&gt;Node8</title>
<g id="a_edge35_Node000026_Node000008"><a xlink:title=" ">
<path fill="none" stroke="#63b8ff" d="M312.46,-688.69C421.01,-691.24 624.66,-696.01 729.18,-698.46"/>
<polygon fill="#63b8ff" stroke="#63b8ff" points="728.92,-701.96 739,-698.69 729.08,-694.96 728.92,-701.96"/>
</a>
</g>
</g>
<!-- Node27&#45;&gt;Node20 -->
<g id="edge38_Node000027_Node000020" class="edge">
<title>Node27&#45;&gt;Node20</title>
<g id="a_edge38_Node000027_Node000020"><a xlink:title=" ">
<path fill="none" stroke="#63b8ff" d="M321.1,-382.92C333.41,-383.66 346.1,-384.44 358.37,-385.18"/>
<polygon fill="#63b8ff" stroke="#63b8ff" points="357.8,-388.65 367.99,-385.77 358.22,-381.67 357.8,-388.65"/>
</a>
</g>
</g>
<!-- Node28&#45;&gt;Node6 -->
<g id="edge42_Node000028_Node000006" class="edge">
<title>Node28&#45;&gt;Node6</title>
<g id="a_edge42_Node000028_Node000006"><a xlink:title=" ">
<path fill="none" stroke="#63b8ff" d="M248.09,-248.24C263.41,-268.57 297.81,-315.76 320.75,-359 340.55,-396.33 326.14,-417.86 356.75,-447 388.82,-477.53 507.2,-511.69 575.89,-529.56"/>
<polygon fill="#63b8ff" stroke="#63b8ff" points="574.86,-532.91 585.41,-532.01 576.6,-526.13 574.86,-532.91"/>
</a>
</g>
</g>
<!-- Node28&#45;&gt;Node11 -->
<g id="edge40_Node000028_Node000011" class="edge">
<title>Node28&#45;&gt;Node11</title>
<g id="a_edge40_Node000028_Node000011"><a xlink:title=" ">
<path fill="none" stroke="#63b8ff" d="M292.59,-228.42C312.61,-225.03 335.68,-221.46 356.75,-219 475.96,-205.1 506.11,-200 626.12,-200 626.12,-200 626.12,-200 796.75,-200 899.15,-200 940.24,-201.39 1016.25,-270 1063.42,-312.58 1083.02,-389.16 1090.02,-426.03"/>
<polygon fill="#63b8ff" stroke="#63b8ff" points="1086.49,-426.17 1091.67,-435.42 1093.38,-424.96 1086.49,-426.17"/>
</a>
</g>
</g>
<!-- Node28&#45;&gt;Node18 -->
<g id="edge41_Node000028_Node000018" class="edge">
<title>Node28&#45;&gt;Node18</title>
<g id="a_edge41_Node000028_Node000018"><a xlink:title=" ">
<path fill="none" stroke="#63b8ff" d="M261.37,-227.56C284.45,-216.39 322.68,-198.6 356.75,-186 366.64,-182.34 377.36,-178.85 387.66,-175.71"/>
<polygon fill="#63b8ff" stroke="#63b8ff" points="388.58,-179.09 397.16,-172.88 386.58,-172.38 388.58,-179.09"/>
</a>
</g>
</g>
<!-- Node29 -->
<g id="Node000029" class="node">
<title>Node29</title>
<g id="a_Node000029"><a xlink:href="namespaceLGE_1_1MetaDB.html#ac399a4083a7e189046618cbf3142dbbe" target="_top" xlink:title=" ">
<polygon fill="white" stroke="#666666" points="508.5,-286 368.75,-286 368.75,-266 508.5,-266 508.5,-286"/>
<text xml:space="preserve" text-anchor="middle" x="438.62" y="-272.5" font-family="Helvetica,sans-Serif" font-size="10.00">LGE::MetaDB::MetaPathFor</text>
</a>
</g>
</g>
<!-- Node28&#45;&gt;Node29 -->
<g id="edge43_Node000028_Node000029" class="edge">
<title>Node28&#45;&gt;Node29</title>
<g id="a_edge43_Node000028_Node000029"><a xlink:title=" ">
<path fill="none" stroke="#63b8ff" d="M292.62,-248.08C317,-252.78 346.25,-258.41 372.07,-263.38"/>
<polygon fill="#63b8ff" stroke="#63b8ff" points="371.31,-266.8 381.8,-265.25 372.64,-259.92 371.31,-266.8"/>
</a>
</g>
</g>
<!-- Node28&#45;&gt;Node30 -->
<g id="edge44_Node000028_Node000030" class="edge">
<title>Node28&#45;&gt;Node30</title>
<g id="a_edge44_Node000028_Node000030"><a xlink:title=" ">
<path fill="none" stroke="#63b8ff" d="M249.73,-227.61C268.29,-207.94 311.56,-165.24 356.75,-143 360.46,-141.17 364.36,-139.52 368.35,-138.02"/>
<polygon fill="#63b8ff" stroke="#63b8ff" points="369.29,-141.39 377.65,-134.88 367.05,-134.76 369.29,-141.39"/>
</a>
</g>
</g>
<!-- Node31 -->
<g id="Node000031" class="node">
<title>Node31</title>
<g id="a_Node000031"><a xlink:href="namespaceLGE_1_1LxFile.html#a06d0b8c5590da8bc48cf22d321fc4074" target="_top" xlink:title=" ">
<polygon fill="white" stroke="#666666" points="492.38,-248 384.88,-248 384.88,-228 492.38,-228 492.38,-248"/>
<text xml:space="preserve" text-anchor="middle" x="438.62" y="-234.5" font-family="Helvetica,sans-Serif" font-size="10.00">LGE::LxFile::WriteAll</text>
</a>
</g>
</g>
<!-- Node28&#45;&gt;Node31 -->
<g id="edge45_Node000028_Node000031" class="edge">
<title>Node28&#45;&gt;Node31</title>
<g id="a_edge45_Node000028_Node000031"><a xlink:title=" ">
<path fill="none" stroke="#63b8ff" d="M292.62,-238C317.4,-238 347.2,-238 373.33,-238"/>
<polygon fill="#63b8ff" stroke="#63b8ff" points="373.15,-241.5 383.15,-238 373.15,-234.5 373.15,-241.5"/>
</a>
</g>
</g>
<!-- Node31&#45;&gt;Node11 -->
<g id="edge46_Node000031_Node000011" class="edge">
<title>Node31&#45;&gt;Node11</title>
<g id="a_edge46_Node000031_Node000011"><a xlink:title=" ">
<path fill="none" stroke="#63b8ff" d="M492.56,-230.18C574.04,-220.37 733.73,-210.03 857.75,-257 955.11,-293.87 1042.9,-387.47 1077.62,-427.91"/>
<polygon fill="#63b8ff" stroke="#63b8ff" points="1074.82,-430.02 1083.94,-435.4 1080.16,-425.5 1074.82,-430.02"/>
</a>
</g>
</g>
<!-- Node31&#45;&gt;Node16 -->
<g id="edge47_Node000031_Node000016" class="edge">
<title>Node31&#45;&gt;Node16</title>
<g id="a_edge47_Node000031_Node000016"><a xlink:title=" ">
<path fill="none" stroke="#63b8ff" d="M492.69,-242.27C502.89,-245.22 512.78,-249.84 520.5,-257 559.46,-293.13 518.2,-334.18 556.5,-371 557.4,-371.87 558.34,-372.7 559.31,-373.49"/>
<polygon fill="#63b8ff" stroke="#63b8ff" points="557.23,-376.31 567.52,-378.84 561.05,-370.45 557.23,-376.31"/>
</a>
</g>
</g>
<!-- Node32&#45;&gt;Node9 -->
<g id="edge50_Node000032_Node000009" class="edge">
<title>Node32&#45;&gt;Node9</title>
<g id="a_edge50_Node000032_Node000009"><a xlink:title=" ">
<path fill="none" stroke="#63b8ff" d="M488.95,-438.45C558.6,-453.42 679.39,-480.23 697.75,-490 716.91,-500.19 714.93,-512.18 733.75,-523 736.41,-524.53 739.2,-525.95 742.07,-527.27"/>
<polygon fill="#63b8ff" stroke="#63b8ff" points="740.72,-530.49 751.3,-531.02 743.36,-524.01 740.72,-530.49"/>
</a>
</g>
</g>
<!-- Node32&#45;&gt;Node12 -->
<g id="edge51_Node000032_Node000012" class="edge">
<title>Node32&#45;&gt;Node12</title>
<g id="a_edge51_Node000032_Node000012"><a xlink:title=" ">
<path fill="none" stroke="#63b8ff" d="M502.38,-422.92C556.46,-421.03 635.42,-424.36 697.75,-452 717.59,-460.8 714.93,-474.18 733.75,-485 736.41,-486.53 739.2,-487.95 742.07,-489.27"/>
<polygon fill="#63b8ff" stroke="#63b8ff" points="740.72,-492.49 751.3,-493.02 743.36,-486.01 740.72,-492.49"/>
</a>
</g>
</g>
<!-- Node32&#45;&gt;Node22 -->
<g id="edge49_Node000032_Node000022" class="edge">
<title>Node32&#45;&gt;Node22</title>
<g id="a_edge49_Node000032_Node000022"><a xlink:title=" ">
<path fill="none" stroke="#63b8ff" d="M502.58,-420.25C509.16,-417.47 515.32,-413.81 520.5,-409 559.46,-372.87 518.2,-331.82 556.5,-295 557.4,-294.13 558.34,-293.3 559.31,-292.51"/>
<polygon fill="#63b8ff" stroke="#63b8ff" points="561.05,-295.55 567.52,-287.16 557.23,-289.69 561.05,-295.55"/>
</a>
</g>
</g>
<!-- Node33&#45;&gt;Node10 -->
<g id="edge55_Node000033_Node000010" class="edge">
<title>Node33&#45;&gt;Node10</title>
<g id="a_edge55_Node000033_Node000010"><a xlink:title=" ">
<path fill="none" stroke="#63b8ff" d="M684.36,-324.5C742.1,-335.8 827.65,-354.16 857.75,-369 888.59,-384.2 918.44,-410.83 936.51,-428.69"/>
<polygon fill="#63b8ff" stroke="#63b8ff" points="933.81,-430.93 943.33,-435.59 938.79,-426.01 933.81,-430.93"/>
</a>
</g>
</g>
<!-- Node33&#45;&gt;Node12 -->
<g id="edge57_Node000033_Node000012" class="edge">
<title>Node33&#45;&gt;Node12</title>
<g id="a_edge57_Node000033_Node000012"><a xlink:title=" ">
<path fill="none" stroke="#63b8ff" d="M686.4,-324.42C690.58,-326.75 694.44,-329.58 697.75,-333 746,-382.91 686.39,-434.24 733.75,-485 736.28,-487.72 739.2,-490.05 742.35,-492.05"/>
<polygon fill="#63b8ff" stroke="#63b8ff" points="740.53,-495.05 751.04,-496.43 743.68,-488.8 740.53,-495.05"/>
</a>
</g>
</g>
<!-- Node33&#45;&gt;Node14 -->
<g id="edge54_Node000033_Node000014" class="edge">
<title>Node33&#45;&gt;Node14</title>
<g id="a_edge54_Node000033_Node000014"><a xlink:title=" ">
<path fill="none" stroke="#63b8ff" d="M681.52,-324.49C687.26,-326.79 692.8,-329.59 697.75,-333 719.83,-348.22 761.67,-412.61 782.43,-445.89"/>
<polygon fill="#63b8ff" stroke="#63b8ff" points="779.34,-447.56 787.58,-454.22 785.3,-443.87 779.34,-447.56"/>
</a>
</g>
</g>
<!-- Node33&#45;&gt;Node23 -->
<g id="edge53_Node000033_Node000023" class="edge">
<title>Node33&#45;&gt;Node23</title>
<g id="a_edge53_Node000033_Node000023"><a xlink:title=" ">
<path fill="none" stroke="#63b8ff" d="M689.7,-314C700.89,-314 712.65,-314 724.08,-314"/>
<polygon fill="#63b8ff" stroke="#63b8ff" points="723.86,-317.5 733.86,-314 723.86,-310.5 723.86,-317.5"/>
</a>
</g>
</g>
<!-- Node33&#45;&gt;Node24 -->
<g id="edge56_Node000033_Node000024" class="edge">
<title>Node33&#45;&gt;Node24</title>
<g id="a_edge56_Node000033_Node000024"><a xlink:title=" ">
<path fill="none" stroke="#63b8ff" d="M674.1,-303.52C693.86,-299.01 717.15,-293.7 737.97,-288.95"/>
<polygon fill="#63b8ff" stroke="#63b8ff" points="738.48,-292.42 747.45,-286.79 736.92,-285.6 738.48,-292.42"/>
</a>
</g>
</g>
</g>
</svg>
