<?xml version="1.0" encoding="UTF-8" standalone="no"?>
<!DOCTYPE svg PUBLIC "-//W3C//DTD SVG 1.1//EN"
 "http://www.w3.org/Graphics/SVG/1.1/DTD/svg11.dtd">
<!-- Generated by graphviz version 14.0.2 (20251019.1705)
 -->
<!-- Title: LGE::Sync::SyncByType Pages: 1 -->
<svg width="433pt" height="102pt"
 viewBox="0.00 0.00 433.00 102.00" xmlns="http://www.w3.org/2000/svg" xmlns:xlink="http://www.w3.org/1999/xlink">
<g id="graph0" class="graph" transform="scale(1 1) rotate(0) translate(4 98)">
<title>LGE::Sync::SyncByType</title>
<!-- Node1 -->
<g id="Node000001" class="node">
<title>Node1</title>
<g id="a_Node000001"><a xlink:title=" ">
<polygon fill="#999999" stroke="#666666" points="125.5,-57 0,-57 0,-37 125.5,-37 125.5,-57"/>
<text xml:space="preserve" text-anchor="middle" x="62.75" y="-43.5" font-family="Helvetica,sans-Serif" font-size="10.00">LGE::Sync::SyncByType</text>
</a>
</g>
</g>
<!-- Node2 -->
<g id="Node000002" class="node">
<title>Node2</title>
<g id="a_Node000002"><a xlink:href="namespaceLGE_1_1AssetRegistry.html#aae475c8a7866694ae2268254e8cfca06" target="_top" xlink:title=" ">
<polygon fill="white" stroke="#666666" points="275,-94 171.25,-94 171.25,-62 275,-62 275,-94"/>
<text xml:space="preserve" text-anchor="start" x="179.25" y="-80.5" font-family="Helvetica,sans-Serif" font-size="10.00">LGE::AssetRegistry</text>
<text xml:space="preserve" text-anchor="middle" x="223.12" y="-68.5" font-family="Helvetica,sans-Serif" font-size="10.00">::QueryByType</text>
</a>
</g>
</g>
<!-- Node1&#45;&gt;Node2 -->
<g id="edge1_Node000001_Node000002" class="edge">
<title>Node1&#45;&gt;Node2</title>
<g id="a_edge1_Node000001_Node000002"><a xlink:title=" ">
<path fill="none" stroke="#63b8ff" d="M117.37,-57.5C131.03,-60.17 145.84,-63.07 159.9,-65.82"/>
<polygon fill="#63b8ff" stroke="#63b8ff" points="159,-69.21 169.49,-67.7 160.34,-62.34 159,-69.21"/>
</a>
</g>
</g>
<!-- Node3 -->
<g id="Node000003" class="node">
<title>Node3</title>
<g id="a_Node000003"><a xlink:href="namespaceLGE_1_1Sync.html#ad4102812e07cccff15b3249960defaad" target="_top" xlink:title=" ">
<polygon fill="white" stroke="#666666" points="284.75,-26 161.5,-26 161.5,-6 284.75,-6 284.75,-26"/>
<text xml:space="preserve" text-anchor="middle" x="223.12" y="-12.5" font-family="Helvetica,sans-Serif" font-size="10.00">LGE::Sync::SyncAssets</text>
</a>
</g>
</g>
<!-- Node1&#45;&gt;Node3 -->
<g id="edge2_Node000001_Node000003" class="edge">
<title>Node1&#45;&gt;Node3</title>
<g id="a_edge2_Node000001_Node000003"><a xlink:title=" ">
<path fill="none" stroke="#63b8ff" d="M117.37,-36.5C130.27,-33.98 144.18,-31.26 157.52,-28.64"/>
<polygon fill="#63b8ff" stroke="#63b8ff" points="157.93,-32.13 167.08,-26.78 156.59,-25.26 157.93,-32.13"/>
</a>
</g>
</g>
<!-- Node3&#45;&gt;Node3 -->
<g id="edge4_Node000003_Node000003" class="edge">
<title>Node3&#45;&gt;Node3</title>
<g id="a_edge4_Node000003_Node000003"><a xlink:title=" ">
<path fill="none" stroke="#63b8ff" d="M199.37,-26.34C189.22,-34.98 197.14,-44 223.12,-44 237.34,-44 246.14,-41.3 249.55,-37.44"/>
<polygon fill="#63b8ff" stroke="#63b8ff" points="252.97,-36.72 247.23,-27.81 246.17,-38.35 252.97,-36.72"/>
</a>
</g>
</g>
<!-- Node4 -->
<g id="Node000004" class="node">
<title>Node4</title>
<g id="a_Node000004"><a xlink:href="namespaceLGE_1_1AssetRegistry.html#ac9aa62a1e0c929e88bec00618b489988" target="_top" xlink:title=" ">
<polygon fill="white" stroke="#666666" points="424.5,-32 320.75,-32 320.75,0 424.5,0 424.5,-32"/>
<text xml:space="preserve" text-anchor="start" x="328.75" y="-18.5" font-family="Helvetica,sans-Serif" font-size="10.00">LGE::AssetRegistry</text>
<text xml:space="preserve" text-anchor="middle" x="372.62" y="-6.5" font-family="Helvetica,sans-Serif" font-size="10.00">::GetAllAssets</text>
</a>
</g>
</g>
<!-- Node3&#45;&gt;Node4 -->
<g id="edge3_Node000003_Node000004" class="edge">
<title>Node3&#45;&gt;Node4</title>
<g id="a_edge3_Node000003_Node000004"><a xlink:title=" ">
<path fill="none" stroke="#63b8ff" d="M284.97,-16C292.86,-16 300.96,-16 308.88,-16"/>
<polygon fill="#63b8ff" stroke="#63b8ff" points="308.8,-19.5 318.8,-16 308.8,-12.5 308.8,-19.5"/>
</a>
</g>
</g>
</g>
</svg>
