<?xml version="1.0" encoding="UTF-8" standalone="no"?>
<!DOCTYPE svg PUBLIC "-//W3C//DTD SVG 1.1//EN"
 "http://www.w3.org/Graphics/SVG/1.1/DTD/svg11.dtd">
<!-- Generated by graphviz version 14.0.2 (20251019.1705)
 -->
<!-- Title: LGE::AssetRegistry::AddOrUpdate Pages: 1 -->
<svg width="918pt" height="230pt"
 viewBox="0.00 0.00 918.00 230.00" xmlns="http://www.w3.org/2000/svg" xmlns:xlink="http://www.w3.org/1999/xlink">
<g id="graph0" class="graph" transform="scale(1 1) rotate(0) translate(4 226)">
<title>LGE::AssetRegistry::AddOrUpdate</title>
<!-- Node1 -->
<g id="Node000001" class="node">
<title>Node1</title>
<g id="a_Node000001"><a xlink:title=" ">
<polygon fill="#999999" stroke="#666666" points="103.75,-121 0,-121 0,-89 103.75,-89 103.75,-121"/>
<text xml:space="preserve" text-anchor="start" x="8" y="-107.5" font-family="Helvetica,sans-Serif" font-size="10.00">LGE::AssetRegistry</text>
<text xml:space="preserve" text-anchor="middle" x="51.88" y="-95.5" font-family="Helvetica,sans-Serif" font-size="10.00">::AddOrUpdate</text>
</a>
</g>
</g>
<!-- Node2 -->
<g id="Node000002" class="node">
<title>Node2</title>
<g id="a_Node000002"><a xlink:href="namespaceLGE_1_1AssetRegistry.html#abf12143e6f506efd22e4ec9ef670134a" target="_top" xlink:title=" ">
<polygon fill="white" stroke="#666666" points="293.75,-159 139.75,-159 139.75,-127 293.75,-127 293.75,-159"/>
<text xml:space="preserve" text-anchor="start" x="147.75" y="-145.5" font-family="Helvetica,sans-Serif" font-size="10.00">LGE::AssetRegistry</text>
<text xml:space="preserve" text-anchor="middle" x="216.75" y="-133.5" font-family="Helvetica,sans-Serif" font-size="10.00">::BuildReverseDependencyMap</text>
</a>
</g>
</g>
<!-- Node1&#45;&gt;Node2 -->
<g id="edge1_Node000001_Node000002" class="edge">
<title>Node1&#45;&gt;Node2</title>
<g id="a_edge1_Node000001_Node000002"><a xlink:title=" ">
<path fill="none" stroke="#63b8ff" d="M103.96,-116.92C113.55,-119.16 123.8,-121.55 134.05,-123.94"/>
<polygon fill="#63b8ff" stroke="#63b8ff" points="133.14,-127.32 143.68,-126.18 134.73,-120.5 133.14,-127.32"/>
</a>
</g>
</g>
<!-- Node12 -->
<g id="Node000012" class="node">
<title>Node12</title>
<g id="a_Node000012"><a xlink:href="namespaceLGE_1_1VFS.html#aee891612cc393155878775a61e486c0b" target="_top" xlink:title=" ">
<polygon fill="white" stroke="#666666" points="463.12,-58 337.62,-58 337.62,-38 463.12,-38 463.12,-58"/>
<text xml:space="preserve" text-anchor="middle" x="400.38" y="-44.5" font-family="Helvetica,sans-Serif" font-size="10.00">LGE::VFS::ToVirtualPath</text>
</a>
</g>
</g>
<!-- Node1&#45;&gt;Node12 -->
<g id="edge11_Node000001_Node000012" class="edge">
<title>Node1&#45;&gt;Node12</title>
<g id="a_edge11_Node000001_Node000012"><a xlink:title=" ">
<path fill="none" stroke="#63b8ff" d="M104,-96.59C162.64,-86.94 259.25,-71.05 325.93,-60.08"/>
<polygon fill="#63b8ff" stroke="#63b8ff" points="326.39,-63.55 335.69,-58.48 325.26,-56.65 326.39,-63.55"/>
</a>
</g>
</g>
<!-- Node3 -->
<g id="Node000003" class="node">
<title>Node3</title>
<g id="a_Node000003"><a xlink:href="namespaceLGE_1_1AssetRegistry.html#ac315fdb87be485fe8103d455b7e8a464" target="_top" xlink:title=" ">
<polygon fill="white" stroke="#666666" points="452.25,-222 348.5,-222 348.5,-190 452.25,-190 452.25,-222"/>
<text xml:space="preserve" text-anchor="start" x="356.5" y="-208.5" font-family="Helvetica,sans-Serif" font-size="10.00">LGE::AssetRegistry</text>
<text xml:space="preserve" text-anchor="middle" x="400.38" y="-196.5" font-family="Helvetica,sans-Serif" font-size="10.00">::FindByPath</text>
</a>
</g>
</g>
<!-- Node2&#45;&gt;Node3 -->
<g id="edge2_Node000002_Node000003" class="edge">
<title>Node2&#45;&gt;Node3</title>
<g id="a_edge2_Node000002_Node000003"><a xlink:title=" ">
<path fill="none" stroke="#63b8ff" d="M265,-159.39C288.34,-167.49 316.73,-177.33 341.38,-185.88"/>
<polygon fill="#63b8ff" stroke="#63b8ff" points="340.03,-189.12 350.62,-189.09 342.32,-182.5 340.03,-189.12"/>
</a>
</g>
</g>
<!-- Node5 -->
<g id="Node000005" class="node">
<title>Node5</title>
<g id="a_Node000005"><a xlink:href="classLGE_1_1Log.html#ab0265ee050b8873a2fd31fbdb696ced0" target="_top" xlink:title=" ">
<polygon fill="white" stroke="#666666" points="440.25,-172 360.5,-172 360.5,-152 440.25,-152 440.25,-172"/>
<text xml:space="preserve" text-anchor="middle" x="400.38" y="-158.5" font-family="Helvetica,sans-Serif" font-size="10.00">LGE::Log::Info</text>
</a>
</g>
</g>
<!-- Node2&#45;&gt;Node5 -->
<g id="edge4_Node000002_Node000005" class="edge">
<title>Node2&#45;&gt;Node5</title>
<g id="a_edge4_Node000002_Node000005"><a xlink:title=" ">
<path fill="none" stroke="#63b8ff" d="M294.25,-151C312.68,-152.93 331.92,-154.94 348.83,-156.71"/>
<polygon fill="#63b8ff" stroke="#63b8ff" points="348.3,-160.18 358.61,-157.74 349.03,-153.21 348.3,-160.18"/>
</a>
</g>
</g>
<!-- Node6 -->
<g id="Node000006" class="node">
<title>Node6</title>
<g id="a_Node000006"><a xlink:href="namespaceLGE_1_1VFS.html#a9eb41e42c96a4f5358c79e30afb579cc" target="_top" xlink:title=" ">
<polygon fill="white" stroke="#666666" points="471,-134 329.75,-134 329.75,-114 471,-114 471,-134"/>
<text xml:space="preserve" text-anchor="middle" x="400.38" y="-120.5" font-family="Helvetica,sans-Serif" font-size="10.00">LGE::VFS::ResolveAbsolute</text>
</a>
</g>
</g>
<!-- Node2&#45;&gt;Node6 -->
<g id="edge5_Node000002_Node000006" class="edge">
<title>Node2&#45;&gt;Node6</title>
<g id="a_edge5_Node000002_Node000006"><a xlink:title=" ">
<path fill="none" stroke="#63b8ff" d="M294.25,-135C302.07,-134.18 310.03,-133.35 317.89,-132.52"/>
<polygon fill="#63b8ff" stroke="#63b8ff" points="318.24,-136.01 327.82,-131.49 317.51,-129.05 318.24,-136.01"/>
</a>
</g>
</g>
<!-- Node4 -->
<g id="Node000004" class="node">
<title>Node4</title>
<g id="a_Node000004"><a xlink:href="namespaceLGE_1_1AssetRegistry.html#a9e672f9e3c8c62076b9156d1695e48b8" target="_top" xlink:title=" ">
<polygon fill="white" stroke="#666666" points="620.88,-222 517.12,-222 517.12,-190 620.88,-190 620.88,-222"/>
<text xml:space="preserve" text-anchor="start" x="525.12" y="-208.5" font-family="Helvetica,sans-Serif" font-size="10.00">LGE::AssetRegistry</text>
<text xml:space="preserve" text-anchor="middle" x="569" y="-196.5" font-family="Helvetica,sans-Serif" font-size="10.00">::FindByGUID</text>
</a>
</g>
</g>
<!-- Node3&#45;&gt;Node4 -->
<g id="edge3_Node000003_Node000004" class="edge">
<title>Node3&#45;&gt;Node4</title>
<g id="a_edge3_Node000003_Node000004"><a xlink:title=" ">
<path fill="none" stroke="#63b8ff" d="M452.73,-206C469.44,-206 488.16,-206 505.59,-206"/>
<polygon fill="#63b8ff" stroke="#63b8ff" points="505.3,-209.5 515.3,-206 505.3,-202.5 505.3,-209.5"/>
</a>
</g>
</g>
<!-- Node7 -->
<g id="Node000007" class="node">
<title>Node7</title>
<g id="a_Node000007"><a xlink:href="namespaceLGE_1_1VFS.html#a0566c02123208c6b867418e914f9574b" target="_top" xlink:title=" ">
<polygon fill="white" stroke="#666666" points="623.88,-172 514.12,-172 514.12,-152 623.88,-152 623.88,-172"/>
<text xml:space="preserve" text-anchor="middle" x="569" y="-158.5" font-family="Helvetica,sans-Serif" font-size="10.00">LGE::VFS::GetMount</text>
</a>
</g>
</g>
<!-- Node6&#45;&gt;Node7 -->
<g id="edge6_Node000006_Node000007" class="edge">
<title>Node6&#45;&gt;Node7</title>
<g id="a_edge6_Node000006_Node000007"><a xlink:title=" ">
<path fill="none" stroke="#63b8ff" d="M447.35,-134.48C467.11,-138.99 490.4,-144.3 511.22,-149.05"/>
<polygon fill="#63b8ff" stroke="#63b8ff" points="510.17,-152.4 520.7,-151.21 511.73,-145.58 510.17,-152.4"/>
</a>
</g>
</g>
<!-- Node8 -->
<g id="Node000008" class="node">
<title>Node8</title>
<g id="a_Node000008"><a xlink:href="namespaceLGE_1_1LxPath.html#a94ec3bdfd6948ddc25cda5d18154d4cf" target="_top" xlink:title=" ">
<polygon fill="white" stroke="#666666" points="617.12,-134 520.88,-134 520.88,-114 617.12,-114 617.12,-134"/>
<text xml:space="preserve" text-anchor="middle" x="569" y="-120.5" font-family="Helvetica,sans-Serif" font-size="10.00">LGE::LxPath::Join</text>
</a>
</g>
</g>
<!-- Node6&#45;&gt;Node8 -->
<g id="edge7_Node000006_Node000008" class="edge">
<title>Node6&#45;&gt;Node8</title>
<g id="a_edge7_Node000006_Node000008"><a xlink:title=" ">
<path fill="none" stroke="#63b8ff" d="M471.07,-124C483.91,-124 497.19,-124 509.65,-124"/>
<polygon fill="#63b8ff" stroke="#63b8ff" points="509.31,-127.5 519.31,-124 509.31,-120.5 509.31,-127.5"/>
</a>
</g>
</g>
<!-- Node11 -->
<g id="Node000011" class="node">
<title>Node11</title>
<g id="a_Node000011"><a xlink:href="classLGE_1_1Log.html#aa6f98018af29c23dd7f574d3df5dda5e" target="_top" xlink:title=" ">
<polygon fill="white" stroke="#666666" points="611.88,-96 526.12,-96 526.12,-76 611.88,-76 611.88,-96"/>
<text xml:space="preserve" text-anchor="middle" x="569" y="-82.5" font-family="Helvetica,sans-Serif" font-size="10.00">LGE::Log::Warn</text>
</a>
</g>
</g>
<!-- Node6&#45;&gt;Node11 -->
<g id="edge10_Node000006_Node000011" class="edge">
<title>Node6&#45;&gt;Node11</title>
<g id="a_edge10_Node000006_Node000011"><a xlink:title=" ">
<path fill="none" stroke="#63b8ff" d="M447.35,-113.52C468.26,-108.75 493.14,-103.07 514.86,-98.12"/>
<polygon fill="#63b8ff" stroke="#63b8ff" points="515.44,-101.58 524.41,-95.94 513.88,-94.75 515.44,-101.58"/>
</a>
</g>
</g>
<!-- Node9 -->
<g id="Node000009" class="node">
<title>Node9</title>
<g id="a_Node000009"><a xlink:href="namespaceLGE_1_1LxPath.html#a314a60ce690c90f4ee0b4e64c0199408" target="_top" xlink:title=" ">
<polygon fill="white" stroke="#666666" points="789.5,-58 667,-58 667,-38 789.5,-38 789.5,-58"/>
<text xml:space="preserve" text-anchor="middle" x="728.25" y="-44.5" font-family="Helvetica,sans-Serif" font-size="10.00">LGE::LxPath::Normalize</text>
</a>
</g>
</g>
<!-- Node8&#45;&gt;Node9 -->
<g id="edge8_Node000008_Node000009" class="edge">
<title>Node8&#45;&gt;Node9</title>
<g id="a_edge8_Node000008_Node000009"><a xlink:title=" ">
<path fill="none" stroke="#63b8ff" d="M608.25,-113.59C615.91,-111.09 623.8,-108.2 631,-105 656.57,-93.63 683.85,-77 702.82,-64.63"/>
<polygon fill="#63b8ff" stroke="#63b8ff" points="704.51,-67.71 710.91,-59.27 700.64,-61.88 704.51,-67.71"/>
</a>
</g>
</g>
<!-- Node10 -->
<g id="Node000010" class="node">
<title>Node10</title>
<g id="a_Node000010"><a xlink:href="classLGE_1_1Log.html#a53f3f4b8797ffd18145739c9e66d690a" target="_top" xlink:title=" ">
<polygon fill="white" stroke="#666666" points="909.75,-58 825.5,-58 825.5,-38 909.75,-38 909.75,-58"/>
<text xml:space="preserve" text-anchor="middle" x="867.62" y="-44.5" font-family="Helvetica,sans-Serif" font-size="10.00">LGE::Log::Error</text>
</a>
</g>
</g>
<!-- Node9&#45;&gt;Node10 -->
<g id="edge9_Node000009_Node000010" class="edge">
<title>Node9&#45;&gt;Node10</title>
<g id="a_edge9_Node000009_Node000010"><a xlink:title=" ">
<path fill="none" stroke="#63b8ff" d="M789.9,-48C797.92,-48 806.09,-48 813.95,-48"/>
<polygon fill="#63b8ff" stroke="#63b8ff" points="813.7,-51.5 823.7,-48 813.7,-44.5 813.7,-51.5"/>
</a>
</g>
</g>
<!-- Node12&#45;&gt;Node9 -->
<g id="edge14_Node000012_Node000009" class="edge">
<title>Node12&#45;&gt;Node9</title>
<g id="a_edge14_Node000012_Node000009"><a xlink:title=" ">
<path fill="none" stroke="#63b8ff" d="M463.44,-48C518.14,-48 597.87,-48 655.34,-48"/>
<polygon fill="#63b8ff" stroke="#63b8ff" points="655.01,-51.5 665.01,-48 655.01,-44.5 655.01,-51.5"/>
</a>
</g>
</g>
<!-- Node13 -->
<g id="Node000013" class="node">
<title>Node13</title>
<g id="a_Node000013"><a xlink:href="namespaceLGE_1_1LxPath.html#ab664986e94ce09aa029f9eb2fcf50133" target="_top" xlink:title=" ">
<polygon fill="white" stroke="#666666" points="631,-20 507,-20 507,0 631,0 631,-20"/>
<text xml:space="preserve" text-anchor="middle" x="569" y="-6.5" font-family="Helvetica,sans-Serif" font-size="10.00">LGE::LxPath::IsSubPath</text>
</a>
</g>
</g>
<!-- Node12&#45;&gt;Node13 -->
<g id="edge12_Node000012_Node000013" class="edge">
<title>Node12&#45;&gt;Node13</title>
<g id="a_edge12_Node000012_Node000013"><a xlink:title=" ">
<path fill="none" stroke="#63b8ff" d="M447.35,-37.52C467.11,-33.01 490.4,-27.7 511.22,-22.95"/>
<polygon fill="#63b8ff" stroke="#63b8ff" points="511.73,-26.42 520.7,-20.79 510.17,-19.6 511.73,-26.42"/>
</a>
</g>
</g>
<!-- Node13&#45;&gt;Node9 -->
<g id="edge13_Node000013_Node000009" class="edge">
<title>Node13&#45;&gt;Node9</title>
<g id="a_edge13_Node000013_Node000009"><a xlink:title=" ">
<path fill="none" stroke="#63b8ff" d="M613.39,-20.48C631.78,-24.93 653.41,-30.16 672.85,-34.85"/>
<polygon fill="#63b8ff" stroke="#63b8ff" points="671.99,-38.25 682.53,-37.19 673.64,-31.44 671.99,-38.25"/>
</a>
</g>
</g>
</g>
</svg>
