<?xml version="1.0" encoding="UTF-8" standalone="no"?>
<!DOCTYPE svg PUBLIC "-//W3C//DTD SVG 1.1//EN"
 "http://www.w3.org/Graphics/SVG/1.1/DTD/svg11.dtd">
<!-- Generated by graphviz version 14.0.2 (20251019.1705)
 -->
<!-- Title: LGE::LxFile::Move Pages: 1 -->
<svg width="706pt" height="98pt"
 viewBox="0.00 0.00 706.00 98.00" xmlns="http://www.w3.org/2000/svg" xmlns:xlink="http://www.w3.org/1999/xlink">
<g id="graph0" class="graph" transform="scale(1 1) rotate(0) translate(4 93.89)">
<title>LGE::LxFile::Move</title>
<!-- Node1 -->
<g id="Node000001" class="node">
<title>Node1</title>
<g id="a_Node000001"><a xlink:title=" ">
<polygon fill="#999999" stroke="#666666" points="97.75,-72.43 0,-72.43 0,-52.43 97.75,-52.43 97.75,-72.43"/>
<text xml:space="preserve" text-anchor="middle" x="48.88" y="-58.93" font-family="Helvetica,sans-Serif" font-size="10.00">LGE::LxFile::Move</text>
</a>
</g>
</g>
<!-- Node2 -->
<g id="Node000002" class="node">
<title>Node2</title>
<g id="a_Node000002"><a xlink:href="classLGE_1_1Log.html#a53f3f4b8797ffd18145739c9e66d690a" target="_top" xlink:title=" ">
<polygon fill="white" stroke="#666666" points="698,-72.43 613.75,-72.43 613.75,-52.43 698,-52.43 698,-72.43"/>
<text xml:space="preserve" text-anchor="middle" x="655.88" y="-58.93" font-family="Helvetica,sans-Serif" font-size="10.00">LGE::Log::Error</text>
</a>
</g>
</g>
<!-- Node1&#45;&gt;Node2 -->
<g id="edge1_Node000001_Node000002" class="edge">
<title>Node1&#45;&gt;Node2</title>
<g id="a_edge1_Node000001_Node000002"><a xlink:title=" ">
<path fill="none" stroke="#63b8ff" d="M87.57,-72.85C101.9,-76.32 118.47,-79.72 133.75,-81.43 304.33,-100.51 508.08,-80.91 602.3,-69.46"/>
<polygon fill="#63b8ff" stroke="#63b8ff" points="602.51,-72.96 612.01,-68.26 601.65,-66.01 602.51,-72.96"/>
</a>
</g>
</g>
<!-- Node3 -->
<g id="Node000003" class="node">
<title>Node3</title>
<g id="a_Node000003"><a xlink:href="namespaceLGE_1_1VFS.html#abb5d35abfe80efe2f7a07394ad5b706a" target="_top" xlink:title=" ">
<polygon fill="white" stroke="#666666" points="255.88,-72.43 137.12,-72.43 137.12,-52.43 255.88,-52.43 255.88,-72.43"/>
<text xml:space="preserve" text-anchor="middle" x="196.5" y="-58.93" font-family="Helvetica,sans-Serif" font-size="10.00">LGE::VFS::IsReadOnly</text>
</a>
</g>
</g>
<!-- Node1&#45;&gt;Node3 -->
<g id="edge2_Node000001_Node000003" class="edge">
<title>Node1&#45;&gt;Node3</title>
<g id="a_edge2_Node000001_Node000003"><a xlink:title=" ">
<path fill="none" stroke="#63b8ff" d="M97.96,-62.43C106.8,-62.43 116.18,-62.43 125.51,-62.43"/>
<polygon fill="#63b8ff" stroke="#63b8ff" points="125.29,-65.93 135.29,-62.43 125.29,-58.93 125.29,-65.93"/>
</a>
</g>
</g>
<!-- Node6 -->
<g id="Node000006" class="node">
<title>Node6</title>
<g id="a_Node000006"><a xlink:href="namespaceLGE_1_1VFS.html#aee891612cc393155878775a61e486c0b" target="_top" xlink:title=" ">
<polygon fill="white" stroke="#666666" points="259.25,-34.43 133.75,-34.43 133.75,-14.43 259.25,-14.43 259.25,-34.43"/>
<text xml:space="preserve" text-anchor="middle" x="196.5" y="-20.93" font-family="Helvetica,sans-Serif" font-size="10.00">LGE::VFS::ToVirtualPath</text>
</a>
</g>
</g>
<!-- Node1&#45;&gt;Node6 -->
<g id="edge7_Node000001_Node000006" class="edge">
<title>Node1&#45;&gt;Node6</title>
<g id="a_edge7_Node000001_Node000006"><a xlink:title=" ">
<path fill="none" stroke="#63b8ff" d="M90.05,-51.95C106.85,-47.57 126.56,-42.42 144.37,-37.78"/>
<polygon fill="#63b8ff" stroke="#63b8ff" points="145.2,-41.18 153.99,-35.27 143.43,-34.4 145.2,-41.18"/>
</a>
</g>
</g>
<!-- Node4 -->
<g id="Node000004" class="node">
<title>Node4</title>
<g id="a_Node000004"><a xlink:href="namespaceLGE_1_1LxPath.html#ab664986e94ce09aa029f9eb2fcf50133" target="_top" xlink:title=" ">
<polygon fill="white" stroke="#666666" points="419.25,-34.43 295.25,-34.43 295.25,-14.43 419.25,-14.43 419.25,-34.43"/>
<text xml:space="preserve" text-anchor="middle" x="357.25" y="-20.93" font-family="Helvetica,sans-Serif" font-size="10.00">LGE::LxPath::IsSubPath</text>
</a>
</g>
</g>
<!-- Node3&#45;&gt;Node4 -->
<g id="edge3_Node000003_Node000004" class="edge">
<title>Node3&#45;&gt;Node4</title>
<g id="a_edge3_Node000003_Node000004"><a xlink:title=" ">
<path fill="none" stroke="#63b8ff" d="M241.3,-51.95C259.95,-47.49 281.91,-42.23 301.61,-37.51"/>
<polygon fill="#63b8ff" stroke="#63b8ff" points="302.21,-40.97 311.12,-35.24 300.58,-34.16 302.21,-40.97"/>
</a>
</g>
</g>
<!-- Node5 -->
<g id="Node000005" class="node">
<title>Node5</title>
<g id="a_Node000005"><a xlink:href="namespaceLGE_1_1LxPath.html#a314a60ce690c90f4ee0b4e64c0199408" target="_top" xlink:title=" ">
<polygon fill="white" stroke="#666666" points="577.75,-53.43 455.25,-53.43 455.25,-33.43 577.75,-33.43 577.75,-53.43"/>
<text xml:space="preserve" text-anchor="middle" x="516.5" y="-39.93" font-family="Helvetica,sans-Serif" font-size="10.00">LGE::LxPath::Normalize</text>
</a>
</g>
</g>
<!-- Node3&#45;&gt;Node5 -->
<g id="edge6_Node000003_Node000005" class="edge">
<title>Node3&#45;&gt;Node5</title>
<g id="a_edge6_Node000003_Node000005"><a xlink:title=" ">
<path fill="none" stroke="#63b8ff" d="M256.2,-58.93C309.08,-55.77 386.99,-51.11 443.6,-47.73"/>
<polygon fill="#63b8ff" stroke="#63b8ff" points="443.7,-51.23 453.47,-47.14 443.28,-44.24 443.7,-51.23"/>
</a>
</g>
</g>
<!-- Node4&#45;&gt;Node5 -->
<g id="edge4_Node000004_Node000005" class="edge">
<title>Node4&#45;&gt;Node5</title>
<g id="a_edge4_Node000004_Node000005"><a xlink:title=" ">
<path fill="none" stroke="#63b8ff" d="M419.5,-31.83C427.41,-32.79 435.57,-33.78 443.63,-34.75"/>
<polygon fill="#63b8ff" stroke="#63b8ff" points="443.09,-38.21 453.43,-35.94 443.93,-31.26 443.09,-38.21"/>
</a>
</g>
</g>
<!-- Node5&#45;&gt;Node2 -->
<g id="edge5_Node000005_Node000002" class="edge">
<title>Node5&#45;&gt;Node2</title>
<g id="a_edge5_Node000005_Node000002"><a xlink:title=" ">
<path fill="none" stroke="#63b8ff" d="M578.15,-51.82C586.17,-52.93 594.34,-54.06 602.2,-55.15"/>
<polygon fill="#63b8ff" stroke="#63b8ff" points="601.58,-58.6 611.97,-56.5 602.54,-51.66 601.58,-58.6"/>
</a>
</g>
</g>
<!-- Node6&#45;&gt;Node4 -->
<g id="edge8_Node000006_Node000004" class="edge">
<title>Node6&#45;&gt;Node4</title>
<g id="a_edge8_Node000006_Node000004"><a xlink:title=" ">
<path fill="none" stroke="#63b8ff" d="M259.33,-24.43C267.26,-24.43 275.44,-24.43 283.52,-24.43"/>
<polygon fill="#63b8ff" stroke="#63b8ff" points="283.33,-27.93 293.33,-24.43 283.33,-20.93 283.33,-27.93"/>
</a>
</g>
</g>
<!-- Node6&#45;&gt;Node5 -->
<g id="edge9_Node000006_Node000005" class="edge">
<title>Node6&#45;&gt;Node5</title>
<g id="a_edge9_Node000006_Node000005"><a xlink:title=" ">
<path fill="none" stroke="#63b8ff" d="M239.95,-13.99C284.84,-4.52 357.57,6.3 419.25,-5.43 442.26,-9.81 466.81,-19.59 485.35,-28.13"/>
<polygon fill="#63b8ff" stroke="#63b8ff" points="483.62,-31.18 494.15,-32.32 486.62,-24.86 483.62,-31.18"/>
</a>
</g>
</g>
</g>
</svg>
