<?xml version="1.0" encoding="UTF-8" standalone="no"?>
<!DOCTYPE svg PUBLIC "-//W3C//DTD SVG 1.1//EN"
 "http://www.w3.org/Graphics/SVG/1.1/DTD/svg11.dtd">
<!-- Generated by graphviz version 14.0.2 (20251019.1705)
 -->
<!-- Title: LGE::AssetRegistry::GetAllAssets Pages: 1 -->
<svg width="831pt" height="690pt"
 viewBox="0.00 0.00 831.00 690.00" xmlns="http://www.w3.org/2000/svg" xmlns:xlink="http://www.w3.org/1999/xlink">
<g id="graph0" class="graph" transform="scale(1 1) rotate(0) translate(4 686)">
<title>LGE::AssetRegistry::GetAllAssets</title>
<!-- Node1 -->
<g id="Node000001" class="node">
<title>Node1</title>
<g id="a_Node000001"><a xlink:title=" ">
<polygon fill="#999999" stroke="#666666" points="823.25,-246 719.5,-246 719.5,-214 823.25,-214 823.25,-246"/>
<text xml:space="preserve" text-anchor="start" x="727.5" y="-232.5" font-family="Helvetica,sans-Serif" font-size="10.00">LGE::AssetRegistry</text>
<text xml:space="preserve" text-anchor="middle" x="771.38" y="-220.5" font-family="Helvetica,sans-Serif" font-size="10.00">::GetAllAssets</text>
</a>
</g>
</g>
<!-- Node2 -->
<g id="Node000002" class="node">
<title>Node2</title>
<g id="a_Node000002"><a xlink:href="BenchmarkFS_8cpp.html#a6e215b65128db1abca9661a02a708fe7" target="_top" xlink:title=" ">
<polygon fill="white" stroke="#666666" points="665.88,-663 558.38,-663 558.38,-631 665.88,-631 665.88,-663"/>
<text xml:space="preserve" text-anchor="start" x="566.38" y="-649.5" font-family="Helvetica,sans-Serif" font-size="10.00">Benchmark_Registry</text>
<text xml:space="preserve" text-anchor="middle" x="612.12" y="-637.5" font-family="Helvetica,sans-Serif" font-size="10.00">_Search_GUID</text>
</a>
</g>
</g>
<!-- Node1&#45;&gt;Node2 -->
<g id="edge1_Node000001_Node000002" class="edge">
<title>Node1&#45;&gt;Node2</title>
<g id="a_edge1_Node000001_Node000002"><a xlink:title=" ">
<path fill="none" stroke="#63b8ff" d="M770.27,-257.47C768.76,-322.25 757.38,-487.31 683.5,-597 674.12,-610.92 659.48,-622.23 645.97,-630.55"/>
<polygon fill="#63b8ff" stroke="#63b8ff" points="773.77,-257.81 770.43,-247.75 766.77,-257.7 773.77,-257.81"/>
</a>
</g>
</g>
<!-- Node5 -->
<g id="Node000005" class="node">
<title>Node5</title>
<g id="a_Node000005"><a xlink:href="namespaceLGE_1_1Backup.html#a8db5be221811de56211321d119281ce0" target="_top" xlink:title=" ">
<polygon fill="white" stroke="#666666" points="683.5,-588 540.75,-588 540.75,-568 683.5,-568 683.5,-588"/>
<text xml:space="preserve" text-anchor="middle" x="612.12" y="-574.5" font-family="Helvetica,sans-Serif" font-size="10.00">LGE::Backup::CreateBackup</text>
</a>
</g>
</g>
<!-- Node1&#45;&gt;Node5 -->
<g id="edge4_Node000001_Node000005" class="edge">
<title>Node1&#45;&gt;Node5</title>
<g id="a_edge4_Node000001_Node000005"><a xlink:title=" ">
<path fill="none" stroke="#63b8ff" d="M758.32,-256.67C726.11,-327.95 639.05,-520.63 617.83,-567.58"/>
<polygon fill="#63b8ff" stroke="#63b8ff" points="761.45,-258.25 762.38,-247.7 755.07,-255.37 761.45,-258.25"/>
</a>
</g>
</g>
<!-- Node8 -->
<g id="Node000008" class="node">
<title>Node8</title>
<g id="a_Node000008"><a xlink:href="namespaceLGE_1_1Sync.html#a31fd315f7ca54650d6363bd0d307c5ca" target="_top" xlink:title=" ">
<polygon fill="white" stroke="#666666" points="681.25,-411 543,-411 543,-391 681.25,-391 681.25,-411"/>
<text xml:space="preserve" text-anchor="middle" x="612.12" y="-397.5" font-family="Helvetica,sans-Serif" font-size="10.00">LGE::Sync::DetectConflicts</text>
</a>
</g>
</g>
<!-- Node1&#45;&gt;Node8 -->
<g id="edge7_Node000001_Node000008" class="edge">
<title>Node1&#45;&gt;Node8</title>
<g id="a_edge7_Node000001_Node000008"><a xlink:title=" ">
<path fill="none" stroke="#63b8ff" d="M762.29,-256.67C750.53,-290.87 725.43,-349.62 683.5,-382 678.99,-385.48 673.9,-388.33 668.56,-390.65"/>
<polygon fill="#63b8ff" stroke="#63b8ff" points="765.5,-258.12 765.3,-247.52 758.85,-255.93 765.5,-258.12"/>
</a>
</g>
</g>
<!-- Node9 -->
<g id="Node000009" class="node">
<title>Node9</title>
<g id="a_Node000009"><a xlink:href="classLGE_1_1SearchQuery.html#a36037a1b2c62d4ffbeb673e1ec702cb7" target="_top" xlink:title=" ">
<polygon fill="white" stroke="#666666" points="682.38,-373 541.88,-373 541.88,-353 682.38,-353 682.38,-373"/>
<text xml:space="preserve" text-anchor="middle" x="612.12" y="-359.5" font-family="Helvetica,sans-Serif" font-size="10.00">LGE::SearchQuery::Execute</text>
</a>
</g>
</g>
<!-- Node1&#45;&gt;Node9 -->
<g id="edge8_Node000001_Node000009" class="edge">
<title>Node1&#45;&gt;Node9</title>
<g id="a_edge8_Node000001_Node000009"><a xlink:title=" ">
<path fill="none" stroke="#63b8ff" d="M742.39,-253.67C707.76,-282.96 650.3,-331.56 625.33,-352.67"/>
<polygon fill="#63b8ff" stroke="#63b8ff" points="744.56,-256.42 749.94,-247.29 740.04,-251.07 744.56,-256.42"/>
</a>
</g>
</g>
<!-- Node22 -->
<g id="Node000022" class="node">
<title>Node22</title>
<g id="a_Node000022"><a xlink:href="namespaceLGE_1_1Optimization.html#a01bf8b655877d654b875c7078622bb1f" target="_top" xlink:title=" ">
<polygon fill="white" stroke="#666666" points="668.88,-290 555.38,-290 555.38,-258 668.88,-258 668.88,-290"/>
<text xml:space="preserve" text-anchor="start" x="563.38" y="-276.5" font-family="Helvetica,sans-Serif" font-size="10.00">LGE::Optimization::</text>
<text xml:space="preserve" text-anchor="middle" x="612.12" y="-264.5" font-family="Helvetica,sans-Serif" font-size="10.00">GetRecommendations</text>
</a>
</g>
</g>
<!-- Node1&#45;&gt;Node22 -->
<g id="edge21_Node000001_Node000022" class="edge">
<title>Node1&#45;&gt;Node22</title>
<g id="a_edge21_Node000001_Node000022"><a xlink:title=" ">
<path fill="none" stroke="#63b8ff" d="M708.24,-247.39C695.41,-250.98 681.97,-254.74 669.36,-258.26"/>
<polygon fill="#63b8ff" stroke="#63b8ff" points="709.18,-250.76 717.86,-244.69 707.29,-244.02 709.18,-250.76"/>
</a>
</g>
</g>
<!-- Node23 -->
<g id="Node000023" class="node">
<title>Node23</title>
<g id="a_Node000023"><a xlink:href="namespaceLGE_1_1Dependencies.html#abb2932854a8edbd61c21b2b3c846396f" target="_top" xlink:title=" ">
<polygon fill="white" stroke="#666666" points="667,-202 557.25,-202 557.25,-170 667,-170 667,-202"/>
<text xml:space="preserve" text-anchor="start" x="565.25" y="-188.5" font-family="Helvetica,sans-Serif" font-size="10.00">LGE::Dependencies::</text>
<text xml:space="preserve" text-anchor="middle" x="612.12" y="-176.5" font-family="Helvetica,sans-Serif" font-size="10.00">RebuildGraph</text>
</a>
</g>
</g>
<!-- Node1&#45;&gt;Node23 -->
<g id="edge22_Node000001_Node000023" class="edge">
<title>Node1&#45;&gt;Node23</title>
<g id="a_edge22_Node000001_Node000023"><a xlink:title=" ">
<path fill="none" stroke="#63b8ff" d="M708.6,-212.72C695.01,-208.91 680.72,-204.91 667.44,-201.2"/>
<polygon fill="#63b8ff" stroke="#63b8ff" points="707.29,-215.98 717.86,-215.31 709.18,-209.24 707.29,-215.98"/>
</a>
</g>
</g>
<!-- Node27 -->
<g id="Node000027" class="node">
<title>Node27</title>
<g id="a_Node000027"><a xlink:href="TestDependencies_8cpp.html#a27d08683b47752be5bf0771792fe84e1" target="_top" xlink:title=" ">
<polygon fill="white" stroke="#666666" points="253.62,-284 212.12,-284 212.12,-264 253.62,-264 253.62,-284"/>
<text xml:space="preserve" text-anchor="middle" x="232.88" y="-270.5" font-family="Helvetica,sans-Serif" font-size="10.00">TEST</text>
</a>
</g>
</g>
<!-- Node1&#45;&gt;Node27 -->
<g id="edge35_Node000001_Node000027" class="edge">
<title>Node1&#45;&gt;Node27</title>
<g id="a_edge35_Node000001_Node000027"><a xlink:title=" ">
<path fill="none" stroke="#63b8ff" d="M707.95,-229.3C624.6,-229.17 472.52,-231.69 344,-249 312.13,-253.29 275.9,-262.34 253.97,-268.3"/>
<polygon fill="#63b8ff" stroke="#63b8ff" points="707.72,-232.8 717.73,-229.34 707.75,-225.8 707.72,-232.8"/>
</a>
</g>
</g>
<!-- Node28 -->
<g id="Node000028" class="node">
<title>Node28</title>
<g id="a_Node000028"><a xlink:href="TestDependencies_8cpp.html#a73f01e5c160074ed2ad795bd2b1ac7a2" target="_top" xlink:title=" ">
<polygon fill="white" stroke="#666666" points="253.62,-120 212.12,-120 212.12,-100 253.62,-100 253.62,-120"/>
<text xml:space="preserve" text-anchor="middle" x="232.88" y="-106.5" font-family="Helvetica,sans-Serif" font-size="10.00">TEST</text>
</a>
</g>
</g>
<!-- Node1&#45;&gt;Node28 -->
<g id="edge36_Node000001_Node000028" class="edge">
<title>Node1&#45;&gt;Node28</title>
<g id="a_edge36_Node000001_Node000028"><a xlink:title=" ">
<path fill="none" stroke="#63b8ff" d="M747.66,-205.99C731.37,-190.4 708.05,-171.15 683.5,-161 643.3,-144.38 336.06,-118.34 253.98,-111.62"/>
<polygon fill="#63b8ff" stroke="#63b8ff" points="744.85,-208.14 754.42,-212.68 749.77,-203.16 744.85,-208.14"/>
</a>
</g>
</g>
<!-- Node31 -->
<g id="Node000031" class="node">
<title>Node31</title>
<g id="a_Node000031"><a xlink:href="TestDependencies_8cpp.html#ad6e5e8e9ab7331c10f47c0adead790ec" target="_top" xlink:title=" ">
<polygon fill="white" stroke="#666666" points="253.62,-82 212.12,-82 212.12,-62 253.62,-62 253.62,-82"/>
<text xml:space="preserve" text-anchor="middle" x="232.88" y="-68.5" font-family="Helvetica,sans-Serif" font-size="10.00">TEST</text>
</a>
</g>
</g>
<!-- Node1&#45;&gt;Node31 -->
<g id="edge37_Node000001_Node000031" class="edge">
<title>Node1&#45;&gt;Node31</title>
<g id="a_edge37_Node000001_Node000031"><a xlink:title=" ">
<path fill="none" stroke="#63b8ff" d="M754.01,-204.1C738.64,-182.14 713.53,-151.75 683.5,-136 606.87,-95.8 331.1,-77.49 254.02,-73.08"/>
<polygon fill="#63b8ff" stroke="#63b8ff" points="751.03,-205.94 759.53,-212.27 756.83,-202.02 751.03,-205.94"/>
</a>
</g>
</g>
<!-- Node32 -->
<g id="Node000032" class="node">
<title>Node32</title>
<g id="a_Node000032"><a xlink:href="namespaceLGE_1_1Sync.html#ad4102812e07cccff15b3249960defaad" target="_top" xlink:title=" ">
<polygon fill="white" stroke="#666666" points="673.75,-58 550.5,-58 550.5,-38 673.75,-38 673.75,-58"/>
<text xml:space="preserve" text-anchor="middle" x="612.12" y="-44.5" font-family="Helvetica,sans-Serif" font-size="10.00">LGE::Sync::SyncAssets</text>
</a>
</g>
</g>
<!-- Node1&#45;&gt;Node32 -->
<g id="edge31_Node000001_Node000032" class="edge">
<title>Node1&#45;&gt;Node32</title>
<g id="a_edge31_Node000001_Node000032"><a xlink:title=" ">
<path fill="none" stroke="#63b8ff" d="M758.64,-203.38C744.3,-173.12 717.66,-123.57 683.5,-90 669.9,-76.64 651.26,-65.75 636.58,-58.42"/>
<polygon fill="#63b8ff" stroke="#63b8ff" points="755.35,-204.61 762.73,-212.22 761.71,-201.67 755.35,-204.61"/>
</a>
</g>
</g>
<!-- Node35 -->
<g id="Node000035" class="node">
<title>Node35</title>
<g id="a_Node000035"><a xlink:href="namespaceLGE_1_1Validation.html#ab5e87b018ce35925ea7bc7cd1f6b6a87" target="_top" xlink:title=" ">
<polygon fill="white" stroke="#666666" points="679.75,-20 544.5,-20 544.5,0 679.75,0 679.75,-20"/>
<text xml:space="preserve" text-anchor="middle" x="612.12" y="-6.5" font-family="Helvetica,sans-Serif" font-size="10.00">LGE::Validation::ValidateAll</text>
</a>
</g>
</g>
<!-- Node1&#45;&gt;Node35 -->
<g id="edge38_Node000001_Node000035" class="edge">
<title>Node1&#45;&gt;Node35</title>
<g id="a_edge38_Node000001_Node000035"><a xlink:title=" ">
<path fill="none" stroke="#63b8ff" d="M766.26,-202.56C758.29,-159.17 736.58,-74.93 683.5,-29 679.48,-25.52 674.89,-22.67 670.01,-20.34"/>
<polygon fill="#63b8ff" stroke="#63b8ff" points="762.77,-202.89 767.91,-212.16 769.67,-201.71 762.77,-202.89"/>
</a>
</g>
</g>
<!-- Node3 -->
<g id="Node000003" class="node">
<title>Node3</title>
<g id="a_Node000003"><a xlink:href="BenchmarkFS_8cpp.html#abd2bf074780e72b3c554bb5eb58ff96a" target="_top" xlink:title=" ">
<polygon fill="white" stroke="#666666" points="492.75,-682 356,-682 356,-662 492.75,-662 492.75,-682"/>
<text xml:space="preserve" text-anchor="middle" x="424.38" y="-668.5" font-family="Helvetica,sans-Serif" font-size="10.00">RunFilesystemBenchmarks</text>
</a>
</g>
</g>
<!-- Node2&#45;&gt;Node3 -->
<g id="edge2_Node000002_Node000003" class="edge">
<title>Node2&#45;&gt;Node3</title>
<g id="a_edge2_Node000002_Node000003"><a xlink:title=" ">
<path fill="none" stroke="#63b8ff" d="M546.76,-655.66C529.46,-657.99 510.69,-660.52 493.2,-662.87"/>
<polygon fill="#63b8ff" stroke="#63b8ff" points="546.95,-659.17 556.4,-654.37 546.02,-652.23 546.95,-659.17"/>
</a>
</g>
</g>
<!-- Node4 -->
<g id="Node000004" class="node">
<title>Node4</title>
<g id="a_Node000004"><a xlink:href="BenchmarkRunner_8cpp.html#a0ddf1224851353fc92bfbff6f499fa97" target="_top" xlink:title=" ">
<polygon fill="white" stroke="#666666" points="251.38,-682 214.38,-682 214.38,-662 251.38,-662 251.38,-682"/>
<text xml:space="preserve" text-anchor="middle" x="232.88" y="-668.5" font-family="Helvetica,sans-Serif" font-size="10.00">main</text>
</a>
</g>
</g>
<!-- Node3&#45;&gt;Node4 -->
<g id="edge3_Node000003_Node000004" class="edge">
<title>Node3&#45;&gt;Node4</title>
<g id="a_edge3_Node000003_Node000004"><a xlink:title=" ">
<path fill="none" stroke="#63b8ff" d="M344.27,-672C309.97,-672 272.86,-672 251.59,-672"/>
<polygon fill="#63b8ff" stroke="#63b8ff" points="344.25,-675.5 354.25,-672 344.25,-668.5 344.25,-675.5"/>
</a>
</g>
</g>
<!-- Node6 -->
<g id="Node000006" class="node">
<title>Node6</title>
<g id="a_Node000006"><a xlink:href="namespaceLGE_1_1Backup.html#ad6294b6da335fe274372b3821fe490b4" target="_top" xlink:title=" ">
<polygon fill="white" stroke="#666666" points="504.75,-594 344,-594 344,-562 504.75,-562 504.75,-594"/>
<text xml:space="preserve" text-anchor="start" x="352" y="-580.5" font-family="Helvetica,sans-Serif" font-size="10.00">LGE::Backup::CreateIncremental</text>
<text xml:space="preserve" text-anchor="middle" x="424.38" y="-568.5" font-family="Helvetica,sans-Serif" font-size="10.00">Backup</text>
</a>
</g>
</g>
<!-- Node5&#45;&gt;Node6 -->
<g id="edge5_Node000005_Node000006" class="edge">
<title>Node5&#45;&gt;Node6</title>
<g id="a_edge5_Node000005_Node000006"><a xlink:title=" ">
<path fill="none" stroke="#63b8ff" d="M528.94,-578C521.07,-578 513.09,-578 505.24,-578"/>
<polygon fill="#63b8ff" stroke="#63b8ff" points="528.86,-581.5 538.86,-578 528.86,-574.5 528.86,-581.5"/>
</a>
</g>
</g>
<!-- Node7 -->
<g id="Node000007" class="node">
<title>Node7</title>
<g id="a_Node000007"><a xlink:href="namespaceLGE_1_1Backup.html#a7de11ff292510de53398d602090fa1fe" target="_top" xlink:title=" ">
<polygon fill="white" stroke="#666666" points="504.75,-644 344,-644 344,-612 504.75,-612 504.75,-644"/>
<text xml:space="preserve" text-anchor="start" x="352" y="-630.5" font-family="Helvetica,sans-Serif" font-size="10.00">LGE::Backup::PerformScheduled</text>
<text xml:space="preserve" text-anchor="middle" x="424.38" y="-618.5" font-family="Helvetica,sans-Serif" font-size="10.00">Backup</text>
</a>
</g>
</g>
<!-- Node5&#45;&gt;Node7 -->
<g id="edge6_Node000005_Node000007" class="edge">
<title>Node5&#45;&gt;Node7</title>
<g id="a_edge6_Node000005_Node000007"><a xlink:title=" ">
<path fill="none" stroke="#63b8ff" d="M561.3,-591.41C538.31,-597.6 510.8,-605 486.57,-611.53"/>
<polygon fill="#63b8ff" stroke="#63b8ff" points="561.98,-594.85 570.72,-588.88 560.16,-588.09 561.98,-594.85"/>
</a>
</g>
</g>
<!-- Node10 -->
<g id="Node000010" class="node">
<title>Node10</title>
<g id="a_Node000010"><a xlink:href="namespaceLGE_1_1Search.html#a2a81de9fb1ad3634d83b437a3c1823e2" target="_top" xlink:title=" ">
<polygon fill="white" stroke="#666666" points="485.25,-430 363.5,-430 363.5,-410 485.25,-410 485.25,-430"/>
<text xml:space="preserve" text-anchor="middle" x="424.38" y="-416.5" font-family="Helvetica,sans-Serif" font-size="10.00">LGE::Search::Advanced</text>
</a>
</g>
</g>
<!-- Node9&#45;&gt;Node10 -->
<g id="edge9_Node000009_Node000010" class="edge">
<title>Node9&#45;&gt;Node10</title>
<g id="a_edge9_Node000009_Node000010"><a xlink:title=" ">
<path fill="none" stroke="#63b8ff" d="M555.39,-376.81C550.39,-378.42 545.45,-380.15 540.75,-382 523.91,-388.62 521.68,-394.62 504.75,-401 496,-404.3 486.48,-407.16 477.18,-409.59"/>
<polygon fill="#63b8ff" stroke="#63b8ff" points="556.34,-380.18 564.89,-373.93 554.31,-373.48 556.34,-380.18"/>
</a>
</g>
</g>
<!-- Node11 -->
<g id="Node000011" class="node">
<title>Node11</title>
<g id="a_Node000011"><a xlink:href="namespaceLGE_1_1Search.html#a986ef43372fd62cf1c0880fb0025804e" target="_top" xlink:title=" ">
<polygon fill="white" stroke="#666666" points="480,-392 368.75,-392 368.75,-372 480,-372 480,-392"/>
<text xml:space="preserve" text-anchor="middle" x="424.38" y="-378.5" font-family="Helvetica,sans-Serif" font-size="10.00">LGE::Search::ByTags</text>
</a>
</g>
</g>
<!-- Node9&#45;&gt;Node11 -->
<g id="edge10_Node000009_Node000011" class="edge">
<title>Node9&#45;&gt;Node11</title>
<g id="a_edge10_Node000009_Node000011"><a xlink:title=" ">
<path fill="none" stroke="#63b8ff" d="M530.43,-371.25C513.53,-372.98 496.08,-374.77 480.37,-376.37"/>
<polygon fill="#63b8ff" stroke="#63b8ff" points="530.33,-374.78 539.92,-370.28 529.62,-367.82 530.33,-374.78"/>
</a>
</g>
</g>
<!-- Node12 -->
<g id="Node000012" class="node">
<title>Node12</title>
<g id="a_Node000012"><a xlink:href="namespaceLGE_1_1Search.html#ae0069f2eac2970bc78f0f8725f450eb0" target="_top" xlink:title=" ">
<polygon fill="white" stroke="#666666" points="480,-354 368.75,-354 368.75,-334 480,-334 480,-354"/>
<text xml:space="preserve" text-anchor="middle" x="424.38" y="-340.5" font-family="Helvetica,sans-Serif" font-size="10.00">LGE::Search::ByType</text>
</a>
</g>
</g>
<!-- Node9&#45;&gt;Node12 -->
<g id="edge11_Node000009_Node000012" class="edge">
<title>Node9&#45;&gt;Node12</title>
<g id="a_edge11_Node000009_Node000012"><a xlink:title=" ">
<path fill="none" stroke="#63b8ff" d="M530.43,-354.75C513.53,-353.02 496.08,-351.23 480.37,-349.63"/>
<polygon fill="#63b8ff" stroke="#63b8ff" points="529.62,-358.18 539.92,-355.72 530.33,-351.22 529.62,-358.18"/>
</a>
</g>
</g>
<!-- Node14 -->
<g id="Node000014" class="node">
<title>Node14</title>
<g id="a_Node000014"><a xlink:href="namespaceLGE_1_1Search.html#a7d936a851b082cc41474bf6bad6c2fe8" target="_top" xlink:title=" ">
<polygon fill="white" stroke="#666666" points="487.5,-316 361.25,-316 361.25,-296 487.5,-296 487.5,-316"/>
<text xml:space="preserve" text-anchor="middle" x="424.38" y="-302.5" font-family="Helvetica,sans-Serif" font-size="10.00">LGE::Search::InDirectory</text>
</a>
</g>
</g>
<!-- Node9&#45;&gt;Node14 -->
<g id="edge13_Node000009_Node000014" class="edge">
<title>Node9&#45;&gt;Node14</title>
<g id="a_edge13_Node000009_Node000014"><a xlink:title=" ">
<path fill="none" stroke="#63b8ff" d="M573.64,-348.49C553.41,-340.94 527.91,-331.89 504.75,-325 494.43,-321.93 483.24,-319.01 472.61,-316.42"/>
<polygon fill="#63b8ff" stroke="#63b8ff" points="572.28,-351.72 582.87,-351.97 574.74,-345.17 572.28,-351.72"/>
</a>
</g>
</g>
<!-- Node15 -->
<g id="Node000015" class="node">
<title>Node15</title>
<g id="a_Node000015"><a xlink:href="namespaceLGE_1_1Search.html#a075f20f5304570afa55e5ef522765e72" target="_top" xlink:title=" ">
<polygon fill="white" stroke="#666666" points="481.12,-278 367.62,-278 367.62,-258 481.12,-258 481.12,-278"/>
<text xml:space="preserve" text-anchor="middle" x="424.38" y="-264.5" font-family="Helvetica,sans-Serif" font-size="10.00">LGE::Search::InMount</text>
</a>
</g>
</g>
<!-- Node9&#45;&gt;Node15 -->
<g id="edge14_Node000009_Node000015" class="edge">
<title>Node9&#45;&gt;Node15</title>
<g id="a_edge14_Node000009_Node000015"><a xlink:title=" ">
<path fill="none" stroke="#63b8ff" d="M591.3,-345.21C570.96,-327.89 537.73,-302.03 504.75,-287 497.27,-283.59 489.11,-280.75 480.95,-278.4"/>
<polygon fill="#63b8ff" stroke="#63b8ff" points="588.95,-347.81 598.79,-351.73 593.54,-342.53 588.95,-347.81"/>
</a>
</g>
</g>
<!-- Node17 -->
<g id="Node000017" class="node">
<title>Node17</title>
<g id="a_Node000017"><a xlink:href="TestSearch_8cpp.html#a33500ac4fe5ec5aabbfb97635e04b1a5" target="_top" xlink:title=" ">
<polygon fill="white" stroke="#666666" points="445.12,-544 403.62,-544 403.62,-524 445.12,-524 445.12,-544"/>
<text xml:space="preserve" text-anchor="middle" x="424.38" y="-530.5" font-family="Helvetica,sans-Serif" font-size="10.00">TEST</text>
</a>
</g>
</g>
<!-- Node9&#45;&gt;Node17 -->
<g id="edge16_Node000009_Node000017" class="edge">
<title>Node9&#45;&gt;Node17</title>
<g id="a_edge16_Node000009_Node000017"><a xlink:title=" ">
<path fill="none" stroke="#63b8ff" d="M543.06,-379.85C542.26,-380.54 541.49,-381.26 540.75,-382 497.43,-425.29 548.68,-472.34 504.75,-515 488.99,-530.3 463.22,-534.04 445.33,-534.61"/>
<polygon fill="#63b8ff" stroke="#63b8ff" points="544.83,-382.88 551.09,-374.33 540.87,-377.11 544.83,-382.88"/>
</a>
</g>
</g>
<!-- Node18 -->
<g id="Node000018" class="node">
<title>Node18</title>
<g id="a_Node000018"><a xlink:href="TestSearch_8cpp.html#a13cb3cdd7534423f0d92329cf16ceaf7" target="_top" xlink:title=" ">
<polygon fill="white" stroke="#666666" points="445.12,-506 403.62,-506 403.62,-486 445.12,-486 445.12,-506"/>
<text xml:space="preserve" text-anchor="middle" x="424.38" y="-492.5" font-family="Helvetica,sans-Serif" font-size="10.00">TEST</text>
</a>
</g>
</g>
<!-- Node9&#45;&gt;Node18 -->
<g id="edge17_Node000009_Node000018" class="edge">
<title>Node9&#45;&gt;Node18</title>
<g id="a_edge17_Node000009_Node000018"><a xlink:title=" ">
<path fill="none" stroke="#63b8ff" d="M543.66,-379.56C542.66,-380.34 541.69,-381.15 540.75,-382 507.29,-412.32 538.64,-447.17 504.75,-477 488.37,-491.42 462.97,-495.36 445.34,-496.22"/>
<polygon fill="#63b8ff" stroke="#63b8ff" points="545.47,-382.56 552.1,-374.3 541.76,-376.62 545.47,-382.56"/>
</a>
</g>
</g>
<!-- Node19 -->
<g id="Node000019" class="node">
<title>Node19</title>
<g id="a_Node000019"><a xlink:href="namespaceLGE_1_1Search.html#ae1b3505236cfc60a02f36a0c1a06d9bd" target="_top" xlink:title=" ">
<polygon fill="white" stroke="#666666" points="472.88,-468 375.88,-468 375.88,-448 472.88,-448 472.88,-468"/>
<text xml:space="preserve" text-anchor="middle" x="424.38" y="-454.5" font-family="Helvetica,sans-Serif" font-size="10.00">LGE::Search::Text</text>
</a>
</g>
</g>
<!-- Node9&#45;&gt;Node19 -->
<g id="edge18_Node000009_Node000019" class="edge">
<title>Node9&#45;&gt;Node19</title>
<g id="a_edge18_Node000009_Node000019"><a xlink:title=" ">
<path fill="none" stroke="#63b8ff" d="M546.25,-378.37C544.35,-379.5 542.51,-380.7 540.75,-382 516.64,-399.79 529.12,-421.56 504.75,-439 495.53,-445.6 484.32,-449.93 473.27,-452.76"/>
<polygon fill="#63b8ff" stroke="#63b8ff" points="547.47,-381.68 554.85,-374.08 544.34,-375.41 547.47,-381.68"/>
</a>
</g>
</g>
<!-- Node13 -->
<g id="Node000013" class="node">
<title>Node13</title>
<g id="a_Node000013"><a xlink:href="TestSearch_8cpp.html#aec262fa1aeb82f0a2ec9fca22e3d2374" target="_top" xlink:title=" ">
<polygon fill="white" stroke="#666666" points="253.62,-360 212.12,-360 212.12,-340 253.62,-340 253.62,-360"/>
<text xml:space="preserve" text-anchor="middle" x="232.88" y="-346.5" font-family="Helvetica,sans-Serif" font-size="10.00">TEST</text>
</a>
</g>
</g>
<!-- Node12&#45;&gt;Node13 -->
<g id="edge12_Node000012_Node000013" class="edge">
<title>Node12&#45;&gt;Node13</title>
<g id="a_edge12_Node000012_Node000013"><a xlink:title=" ">
<path fill="none" stroke="#63b8ff" d="M357.24,-346.09C320.83,-347.25 278.2,-348.6 253.79,-349.37"/>
<polygon fill="#63b8ff" stroke="#63b8ff" points="356.91,-349.61 366.8,-345.79 356.69,-342.61 356.91,-349.61"/>
</a>
</g>
</g>
<!-- Node16 -->
<g id="Node000016" class="node">
<title>Node16</title>
<g id="a_Node000016"><a xlink:href="TestSearch_8cpp.html#ad770bade109d5488d8747315303c5509" target="_top" xlink:title=" ">
<polygon fill="white" stroke="#666666" points="253.62,-322 212.12,-322 212.12,-302 253.62,-302 253.62,-322"/>
<text xml:space="preserve" text-anchor="middle" x="232.88" y="-308.5" font-family="Helvetica,sans-Serif" font-size="10.00">TEST</text>
</a>
</g>
</g>
<!-- Node15&#45;&gt;Node16 -->
<g id="edge15_Node000015_Node000016" class="edge">
<title>Node15&#45;&gt;Node16</title>
<g id="a_edge15_Node000015_Node000016"><a xlink:title=" ">
<path fill="none" stroke="#63b8ff" d="M367.49,-280.98C329.31,-289.84 280.94,-301.07 254.12,-307.3"/>
<polygon fill="#63b8ff" stroke="#63b8ff" points="368.04,-284.44 376.99,-278.77 366.46,-277.62 368.04,-284.44"/>
</a>
</g>
</g>
<!-- Node20 -->
<g id="Node000020" class="node">
<title>Node20</title>
<g id="a_Node000020"><a xlink:href="TestSearch_8cpp.html#a726a0578ed58faaeb0201d967dbce4be" target="_top" xlink:title=" ">
<polygon fill="white" stroke="#666666" points="253.62,-449 212.12,-449 212.12,-429 253.62,-429 253.62,-449"/>
<text xml:space="preserve" text-anchor="middle" x="232.88" y="-435.5" font-family="Helvetica,sans-Serif" font-size="10.00">TEST</text>
</a>
</g>
</g>
<!-- Node19&#45;&gt;Node20 -->
<g id="edge19_Node000019_Node000020" class="edge">
<title>Node19&#45;&gt;Node20</title>
<g id="a_edge19_Node000019_Node000020"><a xlink:title=" ">
<path fill="none" stroke="#63b8ff" d="M364.17,-452.06C326.47,-448.28 279.98,-443.62 253.96,-441.01"/>
<polygon fill="#63b8ff" stroke="#63b8ff" points="363.75,-455.54 374.05,-453.05 364.45,-448.57 363.75,-455.54"/>
</a>
</g>
</g>
<!-- Node21 -->
<g id="Node000021" class="node">
<title>Node21</title>
<g id="a_Node000021"><a xlink:href="TestSearch_8cpp.html#a7120a1bbfb46623c11b708a8ab750d82" target="_top" xlink:title=" ">
<polygon fill="white" stroke="#666666" points="253.62,-487 212.12,-487 212.12,-467 253.62,-467 253.62,-487"/>
<text xml:space="preserve" text-anchor="middle" x="232.88" y="-473.5" font-family="Helvetica,sans-Serif" font-size="10.00">TEST</text>
</a>
</g>
</g>
<!-- Node19&#45;&gt;Node21 -->
<g id="edge20_Node000019_Node000021" class="edge">
<title>Node19&#45;&gt;Node21</title>
<g id="a_edge20_Node000019_Node000021"><a xlink:title=" ">
<path fill="none" stroke="#63b8ff" d="M364.17,-463.94C326.47,-467.72 279.98,-472.38 253.96,-474.99"/>
<polygon fill="#63b8ff" stroke="#63b8ff" points="364.45,-467.43 374.05,-462.95 363.75,-460.46 364.45,-467.43"/>
</a>
</g>
</g>
<!-- Node24 -->
<g id="Node000024" class="node">
<title>Node24</title>
<g id="a_Node000024"><a xlink:href="namespaceLGE_1_1Dependencies.html#a507f7e03e282ce1ac7c9326017bccae8" target="_top" xlink:title=" ">
<polygon fill="white" stroke="#666666" points="479.25,-202 369.5,-202 369.5,-170 479.25,-170 479.25,-202"/>
<text xml:space="preserve" text-anchor="start" x="377.5" y="-188.5" font-family="Helvetica,sans-Serif" font-size="10.00">LGE::Dependencies::</text>
<text xml:space="preserve" text-anchor="middle" x="424.38" y="-176.5" font-family="Helvetica,sans-Serif" font-size="10.00">Initialize</text>
</a>
</g>
</g>
<!-- Node23&#45;&gt;Node24 -->
<g id="edge23_Node000023_Node000024" class="edge">
<title>Node23&#45;&gt;Node24</title>
<g id="a_edge23_Node000023_Node000024"><a xlink:title=" ">
<path fill="none" stroke="#63b8ff" d="M545.52,-186C523.97,-186 500.28,-186 479.67,-186"/>
<polygon fill="#63b8ff" stroke="#63b8ff" points="545.39,-189.5 555.39,-186 545.39,-182.5 545.39,-189.5"/>
</a>
</g>
</g>
<!-- Node25 -->
<g id="Node000025" class="node">
<title>Node25</title>
<g id="a_Node000025"><a xlink:href="classExampleApp.html#a535c41a1b822be3f2c6fd96e3f80f4b7" target="_top" xlink:title=" ">
<polygon fill="white" stroke="#666666" points="308,-246 157.75,-246 157.75,-214 308,-214 308,-246"/>
<text xml:space="preserve" text-anchor="start" x="165.75" y="-232.5" font-family="Helvetica,sans-Serif" font-size="10.00">ExampleApp::CompleteProject</text>
<text xml:space="preserve" text-anchor="middle" x="232.88" y="-220.5" font-family="Helvetica,sans-Serif" font-size="10.00">Loading</text>
</a>
</g>
</g>
<!-- Node24&#45;&gt;Node25 -->
<g id="edge24_Node000024_Node000025" class="edge">
<title>Node24&#45;&gt;Node25</title>
<g id="a_edge24_Node000024_Node000025"><a xlink:title=" ">
<path fill="none" stroke="#63b8ff" d="M358.02,-201.17C340.85,-205.16 322.26,-209.48 304.81,-213.53"/>
<polygon fill="#63b8ff" stroke="#63b8ff" points="358.65,-204.62 367.6,-198.95 357.07,-197.8 358.65,-204.62"/>
</a>
</g>
</g>
<!-- Node24&#45;&gt;Node27 -->
<g id="edge26_Node000024_Node000027" class="edge">
<title>Node24&#45;&gt;Node27</title>
<g id="a_edge26_Node000024_Node000027"><a xlink:title=" ">
<path fill="none" stroke="#63b8ff" d="M359.23,-207.2C353.92,-209.86 348.76,-212.79 344,-216 324.44,-229.19 328.25,-242.91 308,-255 291.35,-264.94 269.58,-269.72 253.95,-272"/>
<polygon fill="#63b8ff" stroke="#63b8ff" points="360.61,-210.42 368.22,-203.05 357.67,-204.06 360.61,-210.42"/>
</a>
</g>
</g>
<!-- Node24&#45;&gt;Node28 -->
<g id="edge27_Node000024_Node000028" class="edge">
<title>Node24&#45;&gt;Node28</title>
<g id="a_edge27_Node000024_Node000028"><a xlink:title=" ">
<path fill="none" stroke="#63b8ff" d="M363.01,-165.25C356.47,-162.4 350.02,-159.31 344,-156 326.47,-146.37 326.03,-137.65 308,-129 290.75,-120.73 269.45,-115.75 254.12,-112.98"/>
<polygon fill="#63b8ff" stroke="#63b8ff" points="361.32,-168.34 371.89,-168.95 364.01,-161.88 361.32,-168.34"/>
</a>
</g>
</g>
<!-- Node29 -->
<g id="Node000029" class="node">
<title>Node29</title>
<g id="a_Node000029"><a xlink:href="TestDependencies_8cpp.html#ac7d0213aa008a4537d2b739ca96728af" target="_top" xlink:title=" ">
<polygon fill="white" stroke="#666666" points="253.62,-196 212.12,-196 212.12,-176 253.62,-176 253.62,-196"/>
<text xml:space="preserve" text-anchor="middle" x="232.88" y="-182.5" font-family="Helvetica,sans-Serif" font-size="10.00">TEST</text>
</a>
</g>
</g>
<!-- Node24&#45;&gt;Node29 -->
<g id="edge28_Node000024_Node000029" class="edge">
<title>Node24&#45;&gt;Node29</title>
<g id="a_edge28_Node000024_Node000029"><a xlink:title=" ">
<path fill="none" stroke="#63b8ff" d="M357.98,-186C321.5,-186 278.56,-186 253.95,-186"/>
<polygon fill="#63b8ff" stroke="#63b8ff" points="357.56,-189.5 367.56,-186 357.56,-182.5 357.56,-189.5"/>
</a>
</g>
</g>
<!-- Node30 -->
<g id="Node000030" class="node">
<title>Node30</title>
<g id="a_Node000030"><a xlink:href="TestDependencies_8cpp.html#a3eed8aa25f31b84b211af1815819d59e" target="_top" xlink:title=" ">
<polygon fill="white" stroke="#666666" points="253.62,-158 212.12,-158 212.12,-138 253.62,-138 253.62,-158"/>
<text xml:space="preserve" text-anchor="middle" x="232.88" y="-144.5" font-family="Helvetica,sans-Serif" font-size="10.00">TEST</text>
</a>
</g>
</g>
<!-- Node24&#45;&gt;Node30 -->
<g id="edge29_Node000024_Node000030" class="edge">
<title>Node24&#45;&gt;Node30</title>
<g id="a_edge29_Node000024_Node000030"><a xlink:title=" ">
<path fill="none" stroke="#63b8ff" d="M357.98,-172.89C321.5,-165.57 278.56,-156.96 253.95,-152.03"/>
<polygon fill="#63b8ff" stroke="#63b8ff" points="357.09,-176.28 367.59,-174.81 358.47,-169.42 357.09,-176.28"/>
</a>
</g>
</g>
<!-- Node24&#45;&gt;Node31 -->
<g id="edge30_Node000024_Node000031" class="edge">
<title>Node24&#45;&gt;Node31</title>
<g id="a_edge30_Node000024_Node000031"><a xlink:title=" ">
<path fill="none" stroke="#63b8ff" d="M396,-162.4C365.09,-135.91 317.79,-95.97 308,-91 290.82,-82.28 269.33,-77.34 253.91,-74.7"/>
<polygon fill="#63b8ff" stroke="#63b8ff" points="393.61,-164.96 403.48,-168.82 398.17,-159.65 393.61,-164.96"/>
</a>
</g>
</g>
<!-- Node26 -->
<g id="Node000026" class="node">
<title>Node26</title>
<g id="a_Node000026"><a xlink:href="classExampleApp.html#a51a63c4107ac16f6c82cda225b2dccea" target="_top" xlink:title=" ">
<polygon fill="white" stroke="#666666" points="121.75,-240 0,-240 0,-220 121.75,-220 121.75,-240"/>
<text xml:space="preserve" text-anchor="middle" x="60.88" y="-226.5" font-family="Helvetica,sans-Serif" font-size="10.00">ExampleApp::OnRender</text>
</a>
</g>
</g>
<!-- Node25&#45;&gt;Node26 -->
<g id="edge25_Node000025_Node000026" class="edge">
<title>Node25&#45;&gt;Node26</title>
<g id="a_edge25_Node000025_Node000026"><a xlink:title=" ">
<path fill="none" stroke="#63b8ff" d="M145.94,-230C137.88,-230 129.84,-230 122.09,-230"/>
<polygon fill="#63b8ff" stroke="#63b8ff" points="145.8,-233.5 155.8,-230 145.8,-226.5 145.8,-233.5"/>
</a>
</g>
</g>
<!-- Node32&#45;&gt;Node32 -->
<g id="edge32_Node000032_Node000032" class="edge">
<title>Node32&#45;&gt;Node32</title>
<g id="a_edge32_Node000032_Node000032"><a xlink:title=" ">
<path fill="none" stroke="#63b8ff" d="M640.27,-69.44C636.65,-73.3 627.26,-76 612.12,-76 584.44,-76 576.01,-66.98 586.82,-58.34"/>
<polygon fill="#63b8ff" stroke="#63b8ff" points="643.68,-68.62 637.8,-59.8 636.89,-70.36 643.68,-68.62"/>
</a>
</g>
</g>
<!-- Node33 -->
<g id="Node000033" class="node">
<title>Node33</title>
<g id="a_Node000033"><a xlink:href="namespaceLGE_1_1Sync.html#abf0ae0279fac131771f0a8baf36f1ed5" target="_top" xlink:title=" ">
<polygon fill="white" stroke="#666666" points="487.12,-29 361.62,-29 361.62,-9 487.12,-9 487.12,-29"/>
<text xml:space="preserve" text-anchor="middle" x="424.38" y="-15.5" font-family="Helvetica,sans-Serif" font-size="10.00">LGE::Sync::SyncByType</text>
</a>
</g>
</g>
<!-- Node32&#45;&gt;Node33 -->
<g id="edge33_Node000032_Node000033" class="edge">
<title>Node32&#45;&gt;Node33</title>
<g id="a_edge33_Node000032_Node000033"><a xlink:title=" ">
<path fill="none" stroke="#63b8ff" d="M539.02,-36.74C521.99,-34.08 503.98,-31.27 487.44,-28.69"/>
<polygon fill="#63b8ff" stroke="#63b8ff" points="538.13,-40.15 548.55,-38.23 539.21,-33.23 538.13,-40.15"/>
</a>
</g>
</g>
<!-- Node34 -->
<g id="Node000034" class="node">
<title>Node34</title>
<g id="a_Node000034"><a xlink:href="namespaceLGE_1_1Sync.html#a077b26ef6639f1098a24cb2228fbc4e8" target="_top" xlink:title=" ">
<polygon fill="white" stroke="#666666" points="490.5,-67 358.25,-67 358.25,-47 490.5,-47 490.5,-67"/>
<text xml:space="preserve" text-anchor="middle" x="424.38" y="-53.5" font-family="Helvetica,sans-Serif" font-size="10.00">LGE::Sync::SyncDirectory</text>
</a>
</g>
</g>
<!-- Node32&#45;&gt;Node34 -->
<g id="edge34_Node000032_Node000034" class="edge">
<title>Node32&#45;&gt;Node34</title>
<g id="a_edge34_Node000032_Node000034"><a xlink:title=" ">
<path fill="none" stroke="#63b8ff" d="M538.75,-51.51C523.01,-52.27 506.43,-53.07 490.97,-53.82"/>
<polygon fill="#63b8ff" stroke="#63b8ff" points="538.72,-55.01 548.53,-51.03 538.38,-48.02 538.72,-55.01"/>
</a>
</g>
</g>
</g>
</svg>
