<?xml version="1.0" encoding="UTF-8" standalone="no"?>
<!DOCTYPE svg PUBLIC "-//W3C//DTD SVG 1.1//EN"
 "http://www.w3.org/Graphics/SVG/1.1/DTD/svg11.dtd">
<!-- Generated by graphviz version 14.0.2 (20251019.1705)
 -->
<!-- Title: LGE::PackageMgr::VerifyChecksum Pages: 1 -->
<svg width="599pt" height="66pt"
 viewBox="0.00 0.00 599.00 66.00" xmlns="http://www.w3.org/2000/svg" xmlns:xlink="http://www.w3.org/1999/xlink">
<g id="graph0" class="graph" transform="scale(1 1) rotate(0) translate(4 62)">
<title>LGE::PackageMgr::VerifyChecksum</title>
<!-- Node1 -->
<g id="Node000001" class="node">
<title>Node1</title>
<g id="a_Node000001"><a xlink:title=" ">
<polygon fill="#999999" stroke="#666666" points="174.25,-39 0,-39 0,-19 174.25,-19 174.25,-39"/>
<text xml:space="preserve" text-anchor="middle" x="87.12" y="-25.5" font-family="Helvetica,sans-Serif" font-size="10.00">LGE::PackageMgr::VerifyChecksum</text>
</a>
</g>
</g>
<!-- Node2 -->
<g id="Node000002" class="node">
<title>Node2</title>
<g id="a_Node000002"><a xlink:href="namespaceLGE_1_1LxFile.html#a11e62876b312a11b881b484bb3a5ee71" target="_top" xlink:title=" ">
<polygon fill="white" stroke="#666666" points="311.75,-58 210.25,-58 210.25,-38 311.75,-38 311.75,-58"/>
<text xml:space="preserve" text-anchor="middle" x="261" y="-44.5" font-family="Helvetica,sans-Serif" font-size="10.00">LGE::LxFile::Exists</text>
</a>
</g>
</g>
<!-- Node1&#45;&gt;Node2 -->
<g id="edge1_Node000001_Node000002" class="edge">
<title>Node1&#45;&gt;Node2</title>
<g id="a_edge1_Node000001_Node000002"><a xlink:title=" ">
<path fill="none" stroke="#63b8ff" d="M174.57,-38.56C182.77,-39.46 190.96,-40.37 198.85,-41.24"/>
<polygon fill="#63b8ff" stroke="#63b8ff" points="198.33,-44.7 208.65,-42.32 199.1,-37.75 198.33,-44.7"/>
</a>
</g>
</g>
<!-- Node3 -->
<g id="Node000003" class="node">
<title>Node3</title>
<g id="a_Node000003"><a xlink:href="namespaceLGE_1_1LxPath.html#a94ec3bdfd6948ddc25cda5d18154d4cf" target="_top" xlink:title=" ">
<polygon fill="white" stroke="#666666" points="309.12,-20 212.88,-20 212.88,0 309.12,0 309.12,-20"/>
<text xml:space="preserve" text-anchor="middle" x="261" y="-6.5" font-family="Helvetica,sans-Serif" font-size="10.00">LGE::LxPath::Join</text>
</a>
</g>
</g>
<!-- Node1&#45;&gt;Node3 -->
<g id="edge2_Node000001_Node000003" class="edge">
<title>Node1&#45;&gt;Node3</title>
<g id="a_edge2_Node000001_Node000003"><a xlink:title=" ">
<path fill="none" stroke="#63b8ff" d="M174.57,-19.44C183.53,-18.45 192.49,-17.46 201.05,-16.52"/>
<polygon fill="#63b8ff" stroke="#63b8ff" points="201.38,-20 210.94,-15.42 200.61,-13.04 201.38,-20"/>
</a>
</g>
</g>
<!-- Node4 -->
<g id="Node000004" class="node">
<title>Node4</title>
<g id="a_Node000004"><a xlink:href="namespaceLGE_1_1LxPath.html#a314a60ce690c90f4ee0b4e64c0199408" target="_top" xlink:title=" ">
<polygon fill="white" stroke="#666666" points="470.25,-20 347.75,-20 347.75,0 470.25,0 470.25,-20"/>
<text xml:space="preserve" text-anchor="middle" x="409" y="-6.5" font-family="Helvetica,sans-Serif" font-size="10.00">LGE::LxPath::Normalize</text>
</a>
</g>
</g>
<!-- Node3&#45;&gt;Node4 -->
<g id="edge3_Node000003_Node000004" class="edge">
<title>Node3&#45;&gt;Node4</title>
<g id="a_edge3_Node000003_Node000004"><a xlink:title=" ">
<path fill="none" stroke="#63b8ff" d="M309.4,-10C317.89,-10 326.91,-10 335.91,-10"/>
<polygon fill="#63b8ff" stroke="#63b8ff" points="335.74,-13.5 345.74,-10 335.74,-6.5 335.74,-13.5"/>
</a>
</g>
</g>
<!-- Node5 -->
<g id="Node000005" class="node">
<title>Node5</title>
<g id="a_Node000005"><a xlink:href="classLGE_1_1Log.html#a53f3f4b8797ffd18145739c9e66d690a" target="_top" xlink:title=" ">
<polygon fill="white" stroke="#666666" points="590.5,-20 506.25,-20 506.25,0 590.5,0 590.5,-20"/>
<text xml:space="preserve" text-anchor="middle" x="548.38" y="-6.5" font-family="Helvetica,sans-Serif" font-size="10.00">LGE::Log::Error</text>
</a>
</g>
</g>
<!-- Node4&#45;&gt;Node5 -->
<g id="edge4_Node000004_Node000005" class="edge">
<title>Node4&#45;&gt;Node5</title>
<g id="a_edge4_Node000004_Node000005"><a xlink:title=" ">
<path fill="none" stroke="#63b8ff" d="M470.65,-10C478.67,-10 486.84,-10 494.7,-10"/>
<polygon fill="#63b8ff" stroke="#63b8ff" points="494.45,-13.5 504.45,-10 494.45,-6.5 494.45,-13.5"/>
</a>
</g>
</g>
</g>
</svg>
