<?xml version="1.0" encoding="UTF-8" standalone="no"?>
<!DOCTYPE svg PUBLIC "-//W3C//DTD SVG 1.1//EN"
 "http://www.w3.org/Graphics/SVG/1.1/DTD/svg11.dtd">
<!-- Generated by graphviz version 14.0.2 (20251019.1705)
 -->
<!-- Title: LGE::Backup::Initialize Pages: 1 -->
<svg width="897pt" height="142pt"
 viewBox="0.00 0.00 897.00 142.00" xmlns="http://www.w3.org/2000/svg" xmlns:xlink="http://www.w3.org/1999/xlink">
<g id="graph0" class="graph" transform="scale(1 1) rotate(0) translate(4 138)">
<title>LGE::Backup::Initialize</title>
<!-- Node1 -->
<g id="Node000001" class="node">
<title>Node1</title>
<g id="a_Node000001"><a xlink:title=" ">
<polygon fill="#999999" stroke="#666666" points="116.5,-77 0,-77 0,-57 116.5,-57 116.5,-77"/>
<text xml:space="preserve" text-anchor="middle" x="58.25" y="-63.5" font-family="Helvetica,sans-Serif" font-size="10.00">LGE::Backup::Initialize</text>
</a>
</g>
</g>
<!-- Node2 -->
<g id="Node000002" class="node">
<title>Node2</title>
<g id="a_Node000002"><a xlink:href="namespaceLGE_1_1LxFile.html#a7a3f0b3462a34877039001eb0aaac788" target="_top" xlink:title=" ">
<polygon fill="white" stroke="#666666" points="295.25,-134 152.5,-134 152.5,-114 295.25,-114 295.25,-134"/>
<text xml:space="preserve" text-anchor="middle" x="223.88" y="-120.5" font-family="Helvetica,sans-Serif" font-size="10.00">LGE::LxFile::CreateDirectory</text>
</a>
</g>
</g>
<!-- Node1&#45;&gt;Node2 -->
<g id="edge1_Node000001_Node000002" class="edge">
<title>Node1&#45;&gt;Node2</title>
<g id="a_edge1_Node000001_Node000002"><a xlink:title=" ">
<path fill="none" stroke="#63b8ff" d="M82.33,-77.33C101.02,-85.48 128.15,-96.79 152.5,-105 158.2,-106.92 164.2,-108.78 170.2,-110.54"/>
<polygon fill="#63b8ff" stroke="#63b8ff" points="168.91,-113.81 179.49,-113.18 170.82,-107.08 168.91,-113.81"/>
</a>
</g>
</g>
<!-- Node7 -->
<g id="Node000007" class="node">
<title>Node7</title>
<g id="a_Node000007"><a xlink:href="namespaceLGE_1_1LxFile.html#a11e62876b312a11b881b484bb3a5ee71" target="_top" xlink:title=" ">
<polygon fill="white" stroke="#666666" points="274.62,-96 173.12,-96 173.12,-76 274.62,-76 274.62,-96"/>
<text xml:space="preserve" text-anchor="middle" x="223.88" y="-82.5" font-family="Helvetica,sans-Serif" font-size="10.00">LGE::LxFile::Exists</text>
</a>
</g>
</g>
<!-- Node1&#45;&gt;Node7 -->
<g id="edge8_Node000001_Node000007" class="edge">
<title>Node1&#45;&gt;Node7</title>
<g id="a_edge8_Node000001_Node000007"><a xlink:title=" ">
<path fill="none" stroke="#63b8ff" d="M116.94,-73.7C131.46,-75.38 147.09,-77.2 161.76,-78.9"/>
<polygon fill="#63b8ff" stroke="#63b8ff" points="160.93,-82.33 171.27,-80.01 161.74,-75.38 160.93,-82.33"/>
</a>
</g>
</g>
<!-- Node8 -->
<g id="Node000008" class="node">
<title>Node8</title>
<g id="a_Node000008"><a xlink:href="classLGE_1_1Log.html#ab0265ee050b8873a2fd31fbdb696ced0" target="_top" xlink:title=" ">
<polygon fill="white" stroke="#666666" points="263.75,-58 184,-58 184,-38 263.75,-38 263.75,-58"/>
<text xml:space="preserve" text-anchor="middle" x="223.88" y="-44.5" font-family="Helvetica,sans-Serif" font-size="10.00">LGE::Log::Info</text>
</a>
</g>
</g>
<!-- Node1&#45;&gt;Node8 -->
<g id="edge9_Node000001_Node000008" class="edge">
<title>Node1&#45;&gt;Node8</title>
<g id="a_edge9_Node000001_Node000008"><a xlink:title=" ">
<path fill="none" stroke="#63b8ff" d="M116.94,-60.3C134.97,-58.21 154.71,-55.92 172.22,-53.88"/>
<polygon fill="#63b8ff" stroke="#63b8ff" points="172.61,-57.36 182.14,-52.73 171.8,-50.41 172.61,-57.36"/>
</a>
</g>
</g>
<!-- Node9 -->
<g id="Node000009" class="node">
<title>Node9</title>
<g id="a_Node000009"><a xlink:href="namespaceLGE_1_1LxFile.html#aefeac425ba46d16739c0873b3740191c" target="_top" xlink:title=" ">
<polygon fill="white" stroke="#666666" points="284.75,-20 163,-20 163,0 284.75,0 284.75,-20"/>
<text xml:space="preserve" text-anchor="middle" x="223.88" y="-6.5" font-family="Helvetica,sans-Serif" font-size="10.00">LGE::LxFile::IsDirectory</text>
</a>
</g>
</g>
<!-- Node1&#45;&gt;Node9 -->
<g id="edge10_Node000001_Node000009" class="edge">
<title>Node1&#45;&gt;Node9</title>
<g id="a_edge10_Node000001_Node000009"><a xlink:title=" ">
<path fill="none" stroke="#63b8ff" d="M82.33,-56.67C101.02,-48.52 128.15,-37.21 152.5,-29 158.2,-27.08 164.2,-25.22 170.2,-23.46"/>
<polygon fill="#63b8ff" stroke="#63b8ff" points="170.82,-26.92 179.49,-20.82 168.91,-20.19 170.82,-26.92"/>
</a>
</g>
</g>
<!-- Node3 -->
<g id="Node000003" class="node">
<title>Node3</title>
<g id="a_Node000003"><a xlink:href="classLGE_1_1Log.html#a53f3f4b8797ffd18145739c9e66d690a" target="_top" xlink:title=" ">
<polygon fill="white" stroke="#666666" points="888.75,-134 804.5,-134 804.5,-114 888.75,-114 888.75,-134"/>
<text xml:space="preserve" text-anchor="middle" x="846.62" y="-120.5" font-family="Helvetica,sans-Serif" font-size="10.00">LGE::Log::Error</text>
</a>
</g>
</g>
<!-- Node2&#45;&gt;Node3 -->
<g id="edge2_Node000002_Node000003" class="edge">
<title>Node2&#45;&gt;Node3</title>
<g id="a_edge2_Node000002_Node000003"><a xlink:title=" ">
<path fill="none" stroke="#63b8ff" d="M295.48,-124C421.31,-124 681.58,-124 793.07,-124"/>
<polygon fill="#63b8ff" stroke="#63b8ff" points="792.82,-127.5 802.82,-124 792.82,-120.5 792.82,-127.5"/>
</a>
</g>
</g>
<!-- Node4 -->
<g id="Node000004" class="node">
<title>Node4</title>
<g id="a_Node000004"><a xlink:href="namespaceLGE_1_1VFS.html#abb5d35abfe80efe2f7a07394ad5b706a" target="_top" xlink:title=" ">
<polygon fill="white" stroke="#666666" points="450,-115 331.25,-115 331.25,-95 450,-95 450,-115"/>
<text xml:space="preserve" text-anchor="middle" x="390.62" y="-101.5" font-family="Helvetica,sans-Serif" font-size="10.00">LGE::VFS::IsReadOnly</text>
</a>
</g>
</g>
<!-- Node2&#45;&gt;Node4 -->
<g id="edge3_Node000002_Node000004" class="edge">
<title>Node2&#45;&gt;Node4</title>
<g id="a_edge3_Node000002_Node000004"><a xlink:title=" ">
<path fill="none" stroke="#63b8ff" d="M295.7,-115.83C303.61,-114.92 311.67,-113.99 319.57,-113.08"/>
<polygon fill="#63b8ff" stroke="#63b8ff" points="319.96,-116.56 329.49,-111.93 319.16,-109.6 319.96,-116.56"/>
</a>
</g>
</g>
<!-- Node5 -->
<g id="Node000005" class="node">
<title>Node5</title>
<g id="a_Node000005"><a xlink:href="namespaceLGE_1_1LxPath.html#ab664986e94ce09aa029f9eb2fcf50133" target="_top" xlink:title=" ">
<polygon fill="white" stroke="#666666" points="610,-115 486,-115 486,-95 610,-95 610,-115"/>
<text xml:space="preserve" text-anchor="middle" x="548" y="-101.5" font-family="Helvetica,sans-Serif" font-size="10.00">LGE::LxPath::IsSubPath</text>
</a>
</g>
</g>
<!-- Node4&#45;&gt;Node5 -->
<g id="edge4_Node000004_Node000005" class="edge">
<title>Node4&#45;&gt;Node5</title>
<g id="a_edge4_Node000004_Node000005"><a xlink:title=" ">
<path fill="none" stroke="#63b8ff" d="M450.37,-105C458.19,-105 466.29,-105 474.32,-105"/>
<polygon fill="#63b8ff" stroke="#63b8ff" points="474.07,-108.5 484.07,-105 474.07,-101.5 474.07,-108.5"/>
</a>
</g>
</g>
<!-- Node6 -->
<g id="Node000006" class="node">
<title>Node6</title>
<g id="a_Node000006"><a xlink:href="namespaceLGE_1_1LxPath.html#a314a60ce690c90f4ee0b4e64c0199408" target="_top" xlink:title=" ">
<polygon fill="white" stroke="#666666" points="768.5,-115 646,-115 646,-95 768.5,-95 768.5,-115"/>
<text xml:space="preserve" text-anchor="middle" x="707.25" y="-101.5" font-family="Helvetica,sans-Serif" font-size="10.00">LGE::LxPath::Normalize</text>
</a>
</g>
</g>
<!-- Node4&#45;&gt;Node6 -->
<g id="edge7_Node000004_Node000006" class="edge">
<title>Node4&#45;&gt;Node6</title>
<g id="a_edge7_Node000004_Node000006"><a xlink:title=" ">
<path fill="none" stroke="#63b8ff" d="M434.11,-94.58C450.25,-91.12 468.87,-87.71 486,-86 540.84,-80.53 555.15,-80.64 610,-86 623.64,-87.33 638.22,-89.71 651.79,-92.33"/>
<polygon fill="#63b8ff" stroke="#63b8ff" points="650.94,-95.73 661.43,-94.28 652.32,-88.87 650.94,-95.73"/>
</a>
</g>
</g>
<!-- Node5&#45;&gt;Node6 -->
<g id="edge5_Node000005_Node000006" class="edge">
<title>Node5&#45;&gt;Node6</title>
<g id="a_edge5_Node000005_Node000006"><a xlink:title=" ">
<path fill="none" stroke="#63b8ff" d="M610.25,-105C618.16,-105 626.32,-105 634.38,-105"/>
<polygon fill="#63b8ff" stroke="#63b8ff" points="634.17,-108.5 644.17,-105 634.17,-101.5 634.17,-108.5"/>
</a>
</g>
</g>
<!-- Node6&#45;&gt;Node3 -->
<g id="edge6_Node000006_Node000003" class="edge">
<title>Node6&#45;&gt;Node3</title>
<g id="a_edge6_Node000006_Node000003"><a xlink:title=" ">
<path fill="none" stroke="#63b8ff" d="M768.9,-113.39C776.92,-114.5 785.09,-115.63 792.95,-116.72"/>
<polygon fill="#63b8ff" stroke="#63b8ff" points="792.33,-120.16 802.72,-118.07 793.29,-113.23 792.33,-120.16"/>
</a>
</g>
</g>
</g>
</svg>
