<?xml version="1.0" encoding="UTF-8" standalone="no"?>
<!DOCTYPE svg PUBLIC "-//W3C//DTD SVG 1.1//EN"
 "http://www.w3.org/Graphics/SVG/1.1/DTD/svg11.dtd">
<!-- Generated by graphviz version 14.0.2 (20251019.1705)
 -->
<!-- Title: LGE::LxPath::GetStem Pages: 1 -->
<svg width="540pt" height="103pt"
 viewBox="0.00 0.00 540.00 103.00" xmlns="http://www.w3.org/2000/svg" xmlns:xlink="http://www.w3.org/1999/xlink">
<g id="graph0" class="graph" transform="scale(1 1) rotate(0) translate(4 99)">
<title>LGE::LxPath::GetStem</title>
<!-- Node1 -->
<g id="Node000001" class="node">
<title>Node1</title>
<g id="a_Node000001"><a xlink:title=" ">
<polygon fill="#999999" stroke="#666666" points="532,-42 414.75,-42 414.75,-22 532,-22 532,-42"/>
<text xml:space="preserve" text-anchor="middle" x="473.38" y="-28.5" font-family="Helvetica,sans-Serif" font-size="10.00">LGE::LxPath::GetStem</text>
</a>
</g>
</g>
<!-- Node2 -->
<g id="Node000002" class="node">
<title>Node2</title>
<g id="a_Node000002"><a xlink:href="namespaceLGE_1_1Optimization.html#af2494f8684e1126f12c084d070ae77d7" target="_top" xlink:title=" ">
<polygon fill="white" stroke="#666666" points="378.75,-70 276.5,-70 276.5,-38 378.75,-38 378.75,-70"/>
<text xml:space="preserve" text-anchor="start" x="284.5" y="-56.5" font-family="Helvetica,sans-Serif" font-size="10.00">LGE::Optimization::</text>
<text xml:space="preserve" text-anchor="middle" x="327.62" y="-44.5" font-family="Helvetica,sans-Serif" font-size="10.00">OptimizeAsset</text>
</a>
</g>
</g>
<!-- Node1&#45;&gt;Node2 -->
<g id="edge1_Node000001_Node000002" class="edge">
<title>Node1&#45;&gt;Node2</title>
<g id="a_edge1_Node000001_Node000002"><a xlink:title=" ">
<path fill="none" stroke="#63b8ff" d="M402.98,-42.62C394.9,-43.86 386.79,-45.1 379.04,-46.28"/>
<polygon fill="#63b8ff" stroke="#63b8ff" points="403.47,-46.09 412.82,-41.11 402.41,-39.17 403.47,-46.09"/>
</a>
</g>
</g>
<!-- Node6 -->
<g id="Node000006" class="node">
<title>Node6</title>
<g id="a_Node000006"><a xlink:href="TestPath_8cpp.html#adb9e8d65cbf0c41b00e57cc63bc41174" target="_top" xlink:title=" ">
<polygon fill="white" stroke="#666666" points="348.38,-20 306.88,-20 306.88,0 348.38,0 348.38,-20"/>
<text xml:space="preserve" text-anchor="middle" x="327.62" y="-6.5" font-family="Helvetica,sans-Serif" font-size="10.00">TEST</text>
</a>
</g>
</g>
<!-- Node1&#45;&gt;Node6 -->
<g id="edge5_Node000001_Node000006" class="edge">
<title>Node1&#45;&gt;Node6</title>
<g id="a_edge5_Node000001_Node000006"><a xlink:title=" ">
<path fill="none" stroke="#63b8ff" d="M403.05,-21.39C383.23,-18.36 363.15,-15.28 348.85,-13.1"/>
<polygon fill="#63b8ff" stroke="#63b8ff" points="402.41,-24.83 412.82,-22.89 403.47,-17.91 402.41,-24.83"/>
</a>
</g>
</g>
<!-- Node3 -->
<g id="Node000003" class="node">
<title>Node3</title>
<g id="a_Node000003"><a xlink:href="namespaceLGE_1_1Optimization.html#a4c0768d9dc75e187bbd8af99c6ea56eb" target="_top" xlink:title=" ">
<polygon fill="white" stroke="#666666" points="240.5,-70 138.25,-70 138.25,-38 240.5,-38 240.5,-70"/>
<text xml:space="preserve" text-anchor="start" x="146.25" y="-56.5" font-family="Helvetica,sans-Serif" font-size="10.00">LGE::Optimization::</text>
<text xml:space="preserve" text-anchor="middle" x="189.38" y="-44.5" font-family="Helvetica,sans-Serif" font-size="10.00">OptimizeAssets</text>
</a>
</g>
</g>
<!-- Node2&#45;&gt;Node3 -->
<g id="edge2_Node000002_Node000003" class="edge">
<title>Node2&#45;&gt;Node3</title>
<g id="a_edge2_Node000002_Node000003"><a xlink:title=" ">
<path fill="none" stroke="#63b8ff" d="M265.03,-54C256.98,-54 248.81,-54 240.97,-54"/>
<polygon fill="#63b8ff" stroke="#63b8ff" points="264.76,-57.5 274.76,-54 264.76,-50.5 264.76,-57.5"/>
</a>
</g>
</g>
<!-- Node4 -->
<g id="Node000004" class="node">
<title>Node4</title>
<g id="a_Node000004"><a xlink:href="namespaceLGE_1_1Optimization.html#a96a2816b3db7b7ceb04dc110827b7c47" target="_top" xlink:title=" ">
<polygon fill="white" stroke="#666666" points="102.25,-95 0,-95 0,-63 102.25,-63 102.25,-95"/>
<text xml:space="preserve" text-anchor="start" x="8" y="-81.5" font-family="Helvetica,sans-Serif" font-size="10.00">LGE::Optimization::</text>
<text xml:space="preserve" text-anchor="middle" x="51.12" y="-69.5" font-family="Helvetica,sans-Serif" font-size="10.00">OptimizeByType</text>
</a>
</g>
</g>
<!-- Node3&#45;&gt;Node4 -->
<g id="edge3_Node000003_Node000004" class="edge">
<title>Node3&#45;&gt;Node4</title>
<g id="a_edge3_Node000003_Node000004"><a xlink:title=" ">
<path fill="none" stroke="#63b8ff" d="M126.78,-65.3C118.73,-66.78 110.56,-68.28 102.72,-69.72"/>
<polygon fill="#63b8ff" stroke="#63b8ff" points="127.33,-68.76 136.54,-63.51 126.07,-61.87 127.33,-68.76"/>
</a>
</g>
</g>
<!-- Node5 -->
<g id="Node000005" class="node">
<title>Node5</title>
<g id="a_Node000005"><a xlink:href="namespaceLGE_1_1Optimization.html#a87d1a414b80a1ae2aeb6f10efe6c4e34" target="_top" xlink:title=" ">
<polygon fill="white" stroke="#666666" points="102.25,-45 0,-45 0,-13 102.25,-13 102.25,-45"/>
<text xml:space="preserve" text-anchor="start" x="8" y="-31.5" font-family="Helvetica,sans-Serif" font-size="10.00">LGE::Optimization::</text>
<text xml:space="preserve" text-anchor="middle" x="51.12" y="-19.5" font-family="Helvetica,sans-Serif" font-size="10.00">OptimizeDirectory</text>
</a>
</g>
</g>
<!-- Node3&#45;&gt;Node5 -->
<g id="edge4_Node000003_Node000005" class="edge">
<title>Node3&#45;&gt;Node5</title>
<g id="a_edge4_Node000003_Node000005"><a xlink:title=" ">
<path fill="none" stroke="#63b8ff" d="M126.78,-42.7C118.73,-41.22 110.56,-39.72 102.72,-38.28"/>
<polygon fill="#63b8ff" stroke="#63b8ff" points="126.07,-46.13 136.54,-44.49 127.33,-39.24 126.07,-46.13"/>
</a>
</g>
</g>
</g>
</svg>
