<?xml version="1.0" encoding="UTF-8" standalone="no"?>
<!DOCTYPE svg PUBLIC "-//W3C//DTD SVG 1.1//EN"
 "http://www.w3.org/Graphics/SVG/1.1/DTD/svg11.dtd">
<!-- Generated by graphviz version 14.0.2 (20251019.1705)
 -->
<!-- Title: LGE::LxFile::Move Pages: 1 -->
<svg width="260pt" height="142pt"
 viewBox="0.00 0.00 260.00 142.00" xmlns="http://www.w3.org/2000/svg" xmlns:xlink="http://www.w3.org/1999/xlink">
<g id="graph0" class="graph" transform="scale(1 1) rotate(0) translate(4 138)">
<title>LGE::LxFile::Move</title>
<!-- Node1 -->
<g id="Node000001" class="node">
<title>Node1</title>
<g id="a_Node000001"><a xlink:title=" ">
<polygon fill="#999999" stroke="#666666" points="251.75,-77 154,-77 154,-57 251.75,-57 251.75,-77"/>
<text xml:space="preserve" text-anchor="middle" x="202.88" y="-63.5" font-family="Helvetica,sans-Serif" font-size="10.00">LGE::LxFile::Move</text>
</a>
</g>
</g>
<!-- Node2 -->
<g id="Node000002" class="node">
<title>Node2</title>
<g id="a_Node000002"><a xlink:href="namespaceLGE_1_1FSOps.html#a8d90a8bd4f3c45deff002d5c191bf872" target="_top" xlink:title=" ">
<polygon fill="white" stroke="#666666" points="110.12,-134 7.88,-134 7.88,-114 110.12,-114 110.12,-134"/>
<text xml:space="preserve" text-anchor="middle" x="59" y="-120.5" font-family="Helvetica,sans-Serif" font-size="10.00">LGE::FSOps::Move</text>
</a>
</g>
</g>
<!-- Node1&#45;&gt;Node2 -->
<g id="edge1_Node000001_Node000002" class="edge">
<title>Node1&#45;&gt;Node2</title>
<g id="a_edge1_Node000001_Node000002"><a xlink:title=" ">
<path fill="none" stroke="#63b8ff" d="M170.28,-82.3C154.71,-89.58 135.55,-98.17 118,-105 110.3,-108 101.9,-110.93 93.96,-113.56"/>
<polygon fill="#63b8ff" stroke="#63b8ff" points="171.52,-85.58 179.06,-78.14 168.52,-79.26 171.52,-85.58"/>
</a>
</g>
</g>
<!-- Node3 -->
<g id="Node000003" class="node">
<title>Node3</title>
<g id="a_Node000003"><a xlink:href="namespaceLGE_1_1FSOps.html#a73a5f7725534ee44eab8e17badf96f9f" target="_top" xlink:title=" ">
<polygon fill="white" stroke="#666666" points="116.5,-96 1.5,-96 1.5,-76 116.5,-76 116.5,-96"/>
<text xml:space="preserve" text-anchor="middle" x="59" y="-82.5" font-family="Helvetica,sans-Serif" font-size="10.00">LGE::FSOps::Rename</text>
</a>
</g>
</g>
<!-- Node1&#45;&gt;Node3 -->
<g id="edge2_Node000001_Node000003" class="edge">
<title>Node1&#45;&gt;Node3</title>
<g id="a_edge2_Node000001_Node000003"><a xlink:title=" ">
<path fill="none" stroke="#63b8ff" d="M142.45,-74.96C133.96,-76.09 125.25,-77.26 116.81,-78.39"/>
<polygon fill="#63b8ff" stroke="#63b8ff" points="142.9,-78.43 152.34,-73.63 141.97,-71.49 142.9,-78.43"/>
</a>
</g>
</g>
<!-- Node4 -->
<g id="Node000004" class="node">
<title>Node4</title>
<g id="a_Node000004"><a xlink:href="namespaceLGE_1_1Recycle.html#a07682188a7ba9ac8cc063a99019fcadf" target="_top" xlink:title=" ">
<polygon fill="white" stroke="#666666" points="118,-58 0,-58 0,-38 118,-38 118,-58"/>
<text xml:space="preserve" text-anchor="middle" x="59" y="-44.5" font-family="Helvetica,sans-Serif" font-size="10.00">LGE::Recycle::Restore</text>
</a>
</g>
</g>
<!-- Node1&#45;&gt;Node4 -->
<g id="edge3_Node000001_Node000004" class="edge">
<title>Node1&#45;&gt;Node4</title>
<g id="a_edge3_Node000001_Node000004"><a xlink:title=" ">
<path fill="none" stroke="#63b8ff" d="M142.65,-59.07C134.6,-57.99 126.34,-56.88 118.31,-55.81"/>
<polygon fill="#63b8ff" stroke="#63b8ff" points="141.97,-62.51 152.34,-60.37 142.9,-55.57 141.97,-62.51"/>
</a>
</g>
</g>
<!-- Node5 -->
<g id="Node000005" class="node">
<title>Node5</title>
<g id="a_Node000005"><a xlink:href="TestFileIO_8cpp.html#ae388eb4d350b39a1fa3c6bc2f434c5f5" target="_top" xlink:title=" ">
<polygon fill="white" stroke="#666666" points="79.75,-20 38.25,-20 38.25,0 79.75,0 79.75,-20"/>
<text xml:space="preserve" text-anchor="middle" x="59" y="-6.5" font-family="Helvetica,sans-Serif" font-size="10.00">TEST</text>
</a>
</g>
</g>
<!-- Node1&#45;&gt;Node5 -->
<g id="edge4_Node000001_Node000005" class="edge">
<title>Node1&#45;&gt;Node5</title>
<g id="a_edge4_Node000001_Node000005"><a xlink:title=" ">
<path fill="none" stroke="#63b8ff" d="M170.28,-51.7C154.71,-44.42 135.55,-35.83 118,-29 105.56,-24.16 91.31,-19.48 80.05,-15.98"/>
<polygon fill="#63b8ff" stroke="#63b8ff" points="168.52,-54.74 179.06,-55.86 171.52,-48.42 168.52,-54.74"/>
</a>
</g>
</g>
</g>
</svg>
