<?xml version="1.0" encoding="UTF-8" standalone="no"?>
<!DOCTYPE svg PUBLIC "-//W3C//DTD SVG 1.1//EN"
 "http://www.w3.org/Graphics/SVG/1.1/DTD/svg11.dtd">
<!-- Generated by graphviz version 14.0.2 (20251019.1705)
 -->
<!-- Title: LGE::Recycle::List Pages: 1 -->
<svg width="276pt" height="78pt"
 viewBox="0.00 0.00 276.00 78.00" xmlns="http://www.w3.org/2000/svg" xmlns:xlink="http://www.w3.org/1999/xlink">
<g id="graph0" class="graph" transform="scale(1 1) rotate(0) translate(4 74)">
<title>LGE::Recycle::List</title>
<!-- Node1 -->
<g id="Node000001" class="node">
<title>Node1</title>
<g id="a_Node000001"><a xlink:title=" ">
<polygon fill="#999999" stroke="#666666" points="267.5,-48 168.25,-48 168.25,-28 267.5,-28 267.5,-48"/>
<text xml:space="preserve" text-anchor="middle" x="217.88" y="-34.5" font-family="Helvetica,sans-Serif" font-size="10.00">LGE::Recycle::List</text>
</a>
</g>
</g>
<!-- Node2 -->
<g id="Node000002" class="node">
<title>Node2</title>
<g id="a_Node000002"><a xlink:href="namespaceLGE_1_1Recycle.html#ab1ccd9c9ba66cf1ba490a6564e417040" target="_top" xlink:title=" ">
<polygon fill="white" stroke="#666666" points="119.5,-70 12.75,-70 12.75,-50 119.5,-50 119.5,-70"/>
<text xml:space="preserve" text-anchor="middle" x="66.12" y="-56.5" font-family="Helvetica,sans-Serif" font-size="10.00">LGE::Recycle::Clear</text>
</a>
</g>
</g>
<!-- Node1&#45;&gt;Node2 -->
<g id="edge1_Node000001_Node000002" class="edge">
<title>Node1&#45;&gt;Node2</title>
<g id="a_edge1_Node000001_Node000002"><a xlink:title=" ">
<path fill="none" stroke="#63b8ff" d="M156.81,-46.82C144.59,-48.62 131.82,-50.49 119.88,-52.25"/>
<polygon fill="#63b8ff" stroke="#63b8ff" points="156.96,-50.34 166.34,-45.42 155.94,-43.41 156.96,-50.34"/>
</a>
</g>
</g>
<!-- Node3 -->
<g id="Node000003" class="node">
<title>Node3</title>
<g id="a_Node000003"><a xlink:href="namespaceLGE_1_1Recycle.html#a4d5822d3e3bcef39ee0280869b78ec43" target="_top" xlink:title=" ">
<polygon fill="white" stroke="#666666" points="132.25,-32 0,-32 0,0 132.25,0 132.25,-32"/>
<text xml:space="preserve" text-anchor="start" x="8" y="-18.5" font-family="Helvetica,sans-Serif" font-size="10.00">LGE::Recycle::PurgeOlder</text>
<text xml:space="preserve" text-anchor="middle" x="66.12" y="-6.5" font-family="Helvetica,sans-Serif" font-size="10.00">ThanDays</text>
</a>
</g>
</g>
<!-- Node1&#45;&gt;Node3 -->
<g id="edge2_Node000001_Node000003" class="edge">
<title>Node1&#45;&gt;Node3</title>
<g id="a_edge2_Node000001_Node000003"><a xlink:title=" ">
<path fill="none" stroke="#63b8ff" d="M156.51,-29.13C148.64,-27.98 140.55,-26.79 132.6,-25.62"/>
<polygon fill="#63b8ff" stroke="#63b8ff" points="155.94,-32.59 166.34,-30.58 156.96,-25.66 155.94,-32.59"/>
</a>
</g>
</g>
</g>
</svg>
