<?xml version="1.0" encoding="UTF-8" standalone="no"?>
<!DOCTYPE svg PUBLIC "-//W3C//DTD SVG 1.1//EN"
 "http://www.w3.org/Graphics/SVG/1.1/DTD/svg11.dtd">
<!-- Generated by graphviz version 14.0.2 (20251019.1705)
 -->
<!-- Title: LGE::EditorBus::Publish Pages: 1 -->
<svg width="797pt" height="160pt"
 viewBox="0.00 0.00 797.00 160.00" xmlns="http://www.w3.org/2000/svg" xmlns:xlink="http://www.w3.org/1999/xlink">
<g id="graph0" class="graph" transform="scale(1 1) rotate(0) translate(4 156)">
<title>LGE::EditorBus::Publish</title>
<!-- Node1 -->
<g id="Node000001" class="node">
<title>Node1</title>
<g id="a_Node000001"><a xlink:title=" ">
<polygon fill="#999999" stroke="#666666" points="788.75,-77 666.25,-77 666.25,-57 788.75,-57 788.75,-77"/>
<text xml:space="preserve" text-anchor="middle" x="727.5" y="-63.5" font-family="Helvetica,sans-Serif" font-size="10.00">LGE::EditorBus::Publish</text>
</a>
</g>
</g>
<!-- Node2 -->
<g id="Node000002" class="node">
<title>Node2</title>
<g id="a_Node000002"><a xlink:href="namespaceLGE_1_1Thumbs.html#a20e7c9fbfb16b84f63099872c64f241d" target="_top" xlink:title=" ">
<polygon fill="white" stroke="#666666" points="611.12,-140 506.62,-140 506.62,-120 611.12,-120 611.12,-140"/>
<text xml:space="preserve" text-anchor="middle" x="558.88" y="-126.5" font-family="Helvetica,sans-Serif" font-size="10.00">LGE::Thumbs::Build</text>
</a>
</g>
</g>
<!-- Node1&#45;&gt;Node2 -->
<g id="edge1_Node000001_Node000002" class="edge">
<title>Node1&#45;&gt;Node2</title>
<g id="a_edge1_Node000001_Node000002"><a xlink:title=" ">
<path fill="none" stroke="#63b8ff" d="M690.24,-81.66C672.26,-88.84 650.17,-97.53 630.25,-105 617.14,-109.92 602.56,-115.13 590.1,-119.52"/>
<polygon fill="#63b8ff" stroke="#63b8ff" points="691.47,-84.94 699.45,-77.97 688.87,-78.44 691.47,-84.94"/>
</a>
</g>
</g>
<!-- Node5 -->
<g id="Node000005" class="node">
<title>Node5</title>
<g id="a_Node000005"><a xlink:href="namespaceLGE_1_1Thumbs.html#af9db774f4905bcd6eb8b65b89cdd349b" target="_top" xlink:title=" ">
<polygon fill="white" stroke="#666666" points="630.25,-96 487.5,-96 487.5,-76 630.25,-76 630.25,-96"/>
<text xml:space="preserve" text-anchor="middle" x="558.88" y="-82.5" font-family="Helvetica,sans-Serif" font-size="10.00">LGE::Thumbs::EnqueueBuild</text>
</a>
</g>
</g>
<!-- Node1&#45;&gt;Node5 -->
<g id="edge4_Node000001_Node000005" class="edge">
<title>Node1&#45;&gt;Node5</title>
<g id="a_edge4_Node000001_Node000005"><a xlink:title=" ">
<path fill="none" stroke="#63b8ff" d="M654.44,-75.22C646.55,-76.12 638.52,-77.03 630.64,-77.93"/>
<polygon fill="#63b8ff" stroke="#63b8ff" points="654.83,-78.7 664.37,-74.08 654.04,-71.74 654.83,-78.7"/>
</a>
</g>
</g>
<!-- Node10 -->
<g id="Node000010" class="node">
<title>Node10</title>
<g id="a_Node000010"><a xlink:href="namespaceLGE_1_1EditorBus.html#af0d2706e7a8d359ee2161d2d5526cd7a" target="_top" xlink:title=" ">
<polygon fill="white" stroke="#666666" points="620.12,-58 497.62,-58 497.62,-38 620.12,-38 620.12,-58"/>
<text xml:space="preserve" text-anchor="middle" x="558.88" y="-44.5" font-family="Helvetica,sans-Serif" font-size="10.00">LGE::EditorBus::Publish</text>
</a>
</g>
</g>
<!-- Node1&#45;&gt;Node10 -->
<g id="edge9_Node000001_Node000010" class="edge">
<title>Node1&#45;&gt;Node10</title>
<g id="a_edge9_Node000001_Node000010"><a xlink:title=" ">
<path fill="none" stroke="#63b8ff" d="M654.62,-58.8C643.23,-57.5 631.55,-56.17 620.46,-54.91"/>
<polygon fill="#63b8ff" stroke="#63b8ff" points="654.04,-62.26 664.37,-59.92 654.83,-55.3 654.04,-62.26"/>
</a>
</g>
</g>
<!-- Node11 -->
<g id="Node000011" class="node">
<title>Node11</title>
<g id="a_Node000011"><a xlink:href="namespaceLGE_1_1Analytics.html#a646505ba9a00636247ce3fcefffb1838" target="_top" xlink:title=" ">
<polygon fill="white" stroke="#666666" points="629.12,-20 488.62,-20 488.62,0 629.12,0 629.12,-20"/>
<text xml:space="preserve" text-anchor="middle" x="558.88" y="-6.5" font-family="Helvetica,sans-Serif" font-size="10.00">LGE::Analytics::RecordLoad</text>
</a>
</g>
</g>
<!-- Node1&#45;&gt;Node11 -->
<g id="edge10_Node000001_Node000011" class="edge">
<title>Node1&#45;&gt;Node11</title>
<g id="a_edge10_Node000001_Node000011"><a xlink:title=" ">
<path fill="none" stroke="#63b8ff" d="M691.86,-52.23C673.69,-44.77 650.97,-35.86 630.25,-29 621.12,-25.98 611.21,-23.07 601.78,-20.49"/>
<polygon fill="#63b8ff" stroke="#63b8ff" points="690.28,-55.36 700.85,-55.97 692.96,-48.9 690.28,-55.36"/>
</a>
</g>
</g>
<!-- Node3 -->
<g id="Node000003" class="node">
<title>Node3</title>
<g id="a_Node000003"><a xlink:href="namespaceLGE_1_1Thumbs.html#aff11822502a43d83cc911490abbf316b" target="_top" xlink:title=" ">
<polygon fill="white" stroke="#666666" points="451.5,-152 297.5,-152 297.5,-120 451.5,-120 451.5,-152"/>
<text xml:space="preserve" text-anchor="start" x="305.5" y="-138.5" font-family="Helvetica,sans-Serif" font-size="10.00">LGE::Thumbs::ProcessPending</text>
<text xml:space="preserve" text-anchor="middle" x="374.5" y="-126.5" font-family="Helvetica,sans-Serif" font-size="10.00">Builds</text>
</a>
</g>
</g>
<!-- Node2&#45;&gt;Node3 -->
<g id="edge2_Node000002_Node000003" class="edge">
<title>Node2&#45;&gt;Node3</title>
<g id="a_edge2_Node000002_Node000003"><a xlink:title=" ">
<path fill="none" stroke="#63b8ff" d="M495.16,-132.06C481.24,-132.52 466.34,-133.01 451.94,-133.49"/>
<polygon fill="#63b8ff" stroke="#63b8ff" points="495.2,-135.56 505.08,-131.74 494.97,-128.57 495.2,-135.56"/>
</a>
</g>
</g>
<!-- Node4 -->
<g id="Node000004" class="node">
<title>Node4</title>
<g id="a_Node000004"><a xlink:href="classExampleApp.html#a69ab083ae73184bfc9bafca1c9310771" target="_top" xlink:title=" ">
<polygon fill="white" stroke="#666666" points="261.5,-146 139.75,-146 139.75,-126 261.5,-126 261.5,-146"/>
<text xml:space="preserve" text-anchor="middle" x="200.62" y="-132.5" font-family="Helvetica,sans-Serif" font-size="10.00">ExampleApp::OnUpdate</text>
</a>
</g>
</g>
<!-- Node3&#45;&gt;Node4 -->
<g id="edge3_Node000003_Node000004" class="edge">
<title>Node3&#45;&gt;Node4</title>
<g id="a_edge3_Node000003_Node000004"><a xlink:title=" ">
<path fill="none" stroke="#63b8ff" d="M285.69,-136C277.61,-136 269.54,-136 261.79,-136"/>
<polygon fill="#63b8ff" stroke="#63b8ff" points="285.6,-139.5 295.6,-136 285.6,-132.5 285.6,-139.5"/>
</a>
</g>
</g>
<!-- Node6 -->
<g id="Node000006" class="node">
<title>Node6</title>
<g id="a_Node000006"><a xlink:href="namespaceLGE_1_1ImportExport.html#af78ec4a5e430226c5054a220cedc76b1" target="_top" xlink:title=" ">
<polygon fill="white" stroke="#666666" points="426.38,-102 322.62,-102 322.62,-70 426.38,-70 426.38,-102"/>
<text xml:space="preserve" text-anchor="start" x="330.62" y="-88.5" font-family="Helvetica,sans-Serif" font-size="10.00">LGE::ImportExport::</text>
<text xml:space="preserve" text-anchor="middle" x="374.5" y="-76.5" font-family="Helvetica,sans-Serif" font-size="10.00">ImportFile</text>
</a>
</g>
</g>
<!-- Node5&#45;&gt;Node6 -->
<g id="edge5_Node000005_Node000006" class="edge">
<title>Node5&#45;&gt;Node6</title>
<g id="a_edge5_Node000005_Node000006"><a xlink:title=" ">
<path fill="none" stroke="#63b8ff" d="M475.66,-86C459,-86 441.94,-86 426.73,-86"/>
<polygon fill="#63b8ff" stroke="#63b8ff" points="475.59,-89.5 485.59,-86 475.59,-82.5 475.59,-89.5"/>
</a>
</g>
</g>
<!-- Node9 -->
<g id="Node000009" class="node">
<title>Node9</title>
<g id="a_Node000009"><a xlink:href="namespaceLGE_1_1ImportExport.html#aa73ba2a6e02f5350668e8a28ecea64c2" target="_top" xlink:title=" ">
<polygon fill="white" stroke="#666666" points="426.38,-52 322.62,-52 322.62,-20 426.38,-20 426.38,-52"/>
<text xml:space="preserve" text-anchor="start" x="330.62" y="-38.5" font-family="Helvetica,sans-Serif" font-size="10.00">LGE::ImportExport::</text>
<text xml:space="preserve" text-anchor="middle" x="374.5" y="-26.5" font-family="Helvetica,sans-Serif" font-size="10.00">ReimportAsset</text>
</a>
</g>
</g>
<!-- Node5&#45;&gt;Node9 -->
<g id="edge8_Node000005_Node000009" class="edge">
<title>Node5&#45;&gt;Node9</title>
<g id="a_edge8_Node000005_Node000009"><a xlink:title=" ">
<path fill="none" stroke="#63b8ff" d="M508.31,-72.66C501.32,-70.77 494.23,-68.84 487.5,-67 467.65,-61.57 445.84,-55.55 426.78,-50.27"/>
<polygon fill="#63b8ff" stroke="#63b8ff" points="507.12,-75.96 517.68,-75.2 508.94,-69.21 507.12,-75.96"/>
</a>
</g>
</g>
<!-- Node7 -->
<g id="Node000007" class="node">
<title>Node7</title>
<g id="a_Node000007"><a xlink:href="namespaceLGE_1_1ImportExport.html#ae8496d7d19ac15289295442d11349580" target="_top" xlink:title=" ">
<polygon fill="white" stroke="#666666" points="252.5,-102 148.75,-102 148.75,-70 252.5,-70 252.5,-102"/>
<text xml:space="preserve" text-anchor="start" x="156.75" y="-88.5" font-family="Helvetica,sans-Serif" font-size="10.00">LGE::ImportExport::</text>
<text xml:space="preserve" text-anchor="middle" x="200.62" y="-76.5" font-family="Helvetica,sans-Serif" font-size="10.00">ImportFiles</text>
</a>
</g>
</g>
<!-- Node6&#45;&gt;Node7 -->
<g id="edge6_Node000006_Node000007" class="edge">
<title>Node6&#45;&gt;Node7</title>
<g id="a_edge6_Node000006_Node000007"><a xlink:title=" ">
<path fill="none" stroke="#63b8ff" d="M311.05,-86C291.92,-86 271.11,-86 252.83,-86"/>
<polygon fill="#63b8ff" stroke="#63b8ff" points="310.88,-89.5 320.88,-86 310.88,-82.5 310.88,-89.5"/>
</a>
</g>
</g>
<!-- Node8 -->
<g id="Node000008" class="node">
<title>Node8</title>
<g id="a_Node000008"><a xlink:href="namespaceLGE_1_1ImportExport.html#a8220fcef46f5c3ab8c10c64fd5860668" target="_top" xlink:title=" ">
<polygon fill="white" stroke="#666666" points="103.75,-102 0,-102 0,-70 103.75,-70 103.75,-102"/>
<text xml:space="preserve" text-anchor="start" x="8" y="-88.5" font-family="Helvetica,sans-Serif" font-size="10.00">LGE::ImportExport::</text>
<text xml:space="preserve" text-anchor="middle" x="51.88" y="-76.5" font-family="Helvetica,sans-Serif" font-size="10.00">ImportDirectory</text>
</a>
</g>
</g>
<!-- Node7&#45;&gt;Node8 -->
<g id="edge7_Node000007_Node000008" class="edge">
<title>Node7&#45;&gt;Node8</title>
<g id="a_edge7_Node000007_Node000008"><a xlink:title=" ">
<path fill="none" stroke="#63b8ff" d="M136.97,-86C125.94,-86 114.59,-86 103.92,-86"/>
<polygon fill="#63b8ff" stroke="#63b8ff" points="136.79,-89.5 146.79,-86 136.79,-82.5 136.79,-89.5"/>
</a>
</g>
</g>
</g>
</svg>
