<?xml version="1.0" encoding="UTF-8" standalone="no"?>
<!DOCTYPE svg PUBLIC "-//W3C//DTD SVG 1.1//EN"
 "http://www.w3.org/Graphics/SVG/1.1/DTD/svg11.dtd">
<!-- Generated by graphviz version 14.0.2 (20251019.1705)
 -->
<!-- Title: LGE::Cache::Get Pages: 1 -->
<svg width="1143pt" height="253pt"
 viewBox="0.00 0.00 1143.00 253.00" xmlns="http://www.w3.org/2000/svg" xmlns:xlink="http://www.w3.org/1999/xlink">
<g id="graph0" class="graph" transform="scale(1 1) rotate(0) translate(4 248.88)">
<title>LGE::Cache::Get</title>
<!-- Node1 -->
<g id="Node000001" class="node">
<title>Node1</title>
<g id="a_Node000001"><a xlink:title=" ">
<polygon fill="#999999" stroke="#666666" points="91.75,-115 0,-115 0,-95 91.75,-95 91.75,-115"/>
<text xml:space="preserve" text-anchor="middle" x="45.88" y="-101.5" font-family="Helvetica,sans-Serif" font-size="10.00">LGE::Cache::Get</text>
</a>
</g>
</g>
<!-- Node2 -->
<g id="Node000002" class="node">
<title>Node2</title>
<g id="a_Node000002"><a xlink:href="namespaceLGE_1_1Cache.html#ad8e41893a6ca4a8bea160fd1a6351f21" target="_top" xlink:title=" ">
<polygon fill="white" stroke="#666666" points="240.5,-115 127.75,-115 127.75,-95 240.5,-95 240.5,-115"/>
<text xml:space="preserve" text-anchor="middle" x="184.12" y="-101.5" font-family="Helvetica,sans-Serif" font-size="10.00">LGE::Cache::Remove</text>
</a>
</g>
</g>
<!-- Node1&#45;&gt;Node2 -->
<g id="edge1_Node000001_Node000002" class="edge">
<title>Node1&#45;&gt;Node2</title>
<g id="a_edge1_Node000001_Node000002"><a xlink:title=" ">
<path fill="none" stroke="#63b8ff" d="M92.24,-105C99.93,-105 108.04,-105 116.14,-105"/>
<polygon fill="#63b8ff" stroke="#63b8ff" points="116.01,-108.5 126.01,-105 116.01,-101.5 116.01,-108.5"/>
</a>
</g>
</g>
<!-- Node3 -->
<g id="Node000003" class="node">
<title>Node3</title>
<g id="a_Node000003"><a xlink:href="namespaceLGE_1_1LxFile.html#a495ab310e479d036634c3628390f80a0" target="_top" xlink:title=" ">
<polygon fill="white" stroke="#666666" points="378.75,-134 276.5,-134 276.5,-114 378.75,-114 378.75,-134"/>
<text xml:space="preserve" text-anchor="middle" x="327.62" y="-120.5" font-family="Helvetica,sans-Serif" font-size="10.00">LGE::LxFile::Delete</text>
</a>
</g>
</g>
<!-- Node2&#45;&gt;Node3 -->
<g id="edge2_Node000002_Node000003" class="edge">
<title>Node2&#45;&gt;Node3</title>
<g id="a_edge2_Node000002_Node000003"><a xlink:title=" ">
<path fill="none" stroke="#63b8ff" d="M240.64,-112.45C248.64,-113.53 256.91,-114.64 265.02,-115.73"/>
<polygon fill="#63b8ff" stroke="#63b8ff" points="264.46,-119.18 274.83,-117.05 265.39,-112.25 264.46,-119.18"/>
</a>
</g>
</g>
<!-- Node13 -->
<g id="Node000013" class="node">
<title>Node13</title>
<g id="a_Node000013"><a xlink:href="namespaceLGE_1_1LxFile.html#a11e62876b312a11b881b484bb3a5ee71" target="_top" xlink:title=" ">
<polygon fill="white" stroke="#666666" points="378.38,-96 276.88,-96 276.88,-76 378.38,-76 378.38,-96"/>
<text xml:space="preserve" text-anchor="middle" x="327.62" y="-82.5" font-family="Helvetica,sans-Serif" font-size="10.00">LGE::LxFile::Exists</text>
</a>
</g>
</g>
<!-- Node2&#45;&gt;Node13 -->
<g id="edge18_Node000002_Node000013" class="edge">
<title>Node2&#45;&gt;Node13</title>
<g id="a_edge18_Node000002_Node000013"><a xlink:title=" ">
<path fill="none" stroke="#63b8ff" d="M240.64,-97.55C248.84,-96.44 257.32,-95.31 265.63,-94.19"/>
<polygon fill="#63b8ff" stroke="#63b8ff" points="265.84,-97.69 275.29,-92.89 264.91,-90.76 265.84,-97.69"/>
</a>
</g>
</g>
<!-- Node4 -->
<g id="Node000004" class="node">
<title>Node4</title>
<g id="a_Node000004"><a xlink:href="classLGE_1_1Log.html#a53f3f4b8797ffd18145739c9e66d690a" target="_top" xlink:title=" ">
<polygon fill="white" stroke="#666666" points="1135.25,-96 1051,-96 1051,-76 1135.25,-76 1135.25,-96"/>
<text xml:space="preserve" text-anchor="middle" x="1093.12" y="-82.5" font-family="Helvetica,sans-Serif" font-size="10.00">LGE::Log::Error</text>
</a>
</g>
</g>
<!-- Node3&#45;&gt;Node4 -->
<g id="edge3_Node000003_Node000004" class="edge">
<title>Node3&#45;&gt;Node4</title>
<g id="a_edge3_Node000003_Node000004"><a xlink:title=" ">
<path fill="none" stroke="#63b8ff" d="M334.34,-134.32C346.25,-154.68 375.86,-199.7 414.75,-219 501.87,-262.23 535.49,-238 632.75,-238 632.75,-238 632.75,-238 795.5,-238 911.65,-238 1028.02,-144.55 1072.85,-104.2"/>
<polygon fill="#63b8ff" stroke="#63b8ff" points="1075.19,-106.81 1080.19,-97.47 1070.46,-101.65 1075.19,-106.81"/>
</a>
</g>
</g>
<!-- Node5 -->
<g id="Node000005" class="node">
<title>Node5</title>
<g id="a_Node000005"><a xlink:href="classLGE_1_1Log.html#ab0265ee050b8873a2fd31fbdb696ced0" target="_top" xlink:title=" ">
<polygon fill="white" stroke="#666666" points="514.75,-210 435,-210 435,-190 514.75,-190 514.75,-210"/>
<text xml:space="preserve" text-anchor="middle" x="474.88" y="-196.5" font-family="Helvetica,sans-Serif" font-size="10.00">LGE::Log::Info</text>
</a>
</g>
</g>
<!-- Node3&#45;&gt;Node5 -->
<g id="edge4_Node000003_Node000005" class="edge">
<title>Node3&#45;&gt;Node5</title>
<g id="a_edge4_Node000003_Node000005"><a xlink:title=" ">
<path fill="none" stroke="#63b8ff" d="M341.66,-134.29C357.97,-146.75 387.11,-167.72 414.75,-181 418.21,-182.66 421.85,-184.23 425.55,-185.69"/>
<polygon fill="#63b8ff" stroke="#63b8ff" points="424.04,-188.87 434.63,-189.03 426.45,-182.3 424.04,-188.87"/>
</a>
</g>
</g>
<!-- Node6 -->
<g id="Node000006" class="node">
<title>Node6</title>
<g id="a_Node000006"><a xlink:href="namespaceLGE_1_1LxFS.html#a5684a30f3fa2906f4dafed0258a79166" target="_top" xlink:title=" ">
<polygon fill="white" stroke="#666666" points="535,-172 414.75,-172 414.75,-152 535,-152 535,-172"/>
<text xml:space="preserve" text-anchor="middle" x="474.88" y="-158.5" font-family="Helvetica,sans-Serif" font-size="10.00">LGE::LxFS::IsInitialized</text>
</a>
</g>
</g>
<!-- Node3&#45;&gt;Node6 -->
<g id="edge5_Node000003_Node000006" class="edge">
<title>Node3&#45;&gt;Node6</title>
<g id="a_edge5_Node000003_Node000006"><a xlink:title=" ">
<path fill="none" stroke="#63b8ff" d="M368.7,-134.48C385.45,-138.87 405.11,-144.01 422.87,-148.66"/>
<polygon fill="#63b8ff" stroke="#63b8ff" points="421.91,-152.02 432.47,-151.17 423.68,-145.25 421.91,-152.02"/>
</a>
</g>
</g>
<!-- Node7 -->
<g id="Node000007" class="node">
<title>Node7</title>
<g id="a_Node000007"><a xlink:href="namespaceLGE_1_1VFS.html#abb5d35abfe80efe2f7a07394ad5b706a" target="_top" xlink:title=" ">
<polygon fill="white" stroke="#666666" points="693.12,-58 574.38,-58 574.38,-38 693.12,-38 693.12,-58"/>
<text xml:space="preserve" text-anchor="middle" x="633.75" y="-44.5" font-family="Helvetica,sans-Serif" font-size="10.00">LGE::VFS::IsReadOnly</text>
</a>
</g>
</g>
<!-- Node3&#45;&gt;Node7 -->
<g id="edge6_Node000003_Node000007" class="edge">
<title>Node3&#45;&gt;Node7</title>
<g id="a_edge6_Node000003_Node000007"><a xlink:title=" ">
<path fill="none" stroke="#63b8ff" d="M362.55,-113.54C368.18,-111.14 373.79,-108.3 378.75,-105 398.12,-92.11 393.8,-77.11 414.75,-67 460.7,-44.82 518.44,-40.68 562.95,-41.76"/>
<polygon fill="#63b8ff" stroke="#63b8ff" points="562.63,-45.25 572.75,-42.1 562.87,-38.26 562.63,-45.25"/>
</a>
</g>
</g>
<!-- Node10 -->
<g id="Node000010" class="node">
<title>Node10</title>
<g id="a_Node000010"><a xlink:href="namespaceLGE_1_1LxFS.html#a12aeb6699602f14153953dceb4284914" target="_top" xlink:title=" ">
<polygon fill="white" stroke="#666666" points="523,-96 426.75,-96 426.75,-76 523,-76 523,-96"/>
<text xml:space="preserve" text-anchor="middle" x="474.88" y="-82.5" font-family="Helvetica,sans-Serif" font-size="10.00">LGE::LxFS::Paths</text>
</a>
</g>
</g>
<!-- Node3&#45;&gt;Node10 -->
<g id="edge11_Node000003_Node000010" class="edge">
<title>Node3&#45;&gt;Node10</title>
<g id="a_edge11_Node000003_Node000010"><a xlink:title=" ">
<path fill="none" stroke="#63b8ff" d="M368.7,-113.52C385.45,-109.13 405.11,-103.99 422.87,-99.34"/>
<polygon fill="#63b8ff" stroke="#63b8ff" points="423.68,-102.75 432.47,-96.83 421.91,-95.98 423.68,-102.75"/>
</a>
</g>
</g>
<!-- Node11 -->
<g id="Node000011" class="node">
<title>Node11</title>
<g id="a_Node000011"><a xlink:href="namespaceLGE_1_1VFS.html#aee891612cc393155878775a61e486c0b" target="_top" xlink:title=" ">
<polygon fill="white" stroke="#666666" points="696.5,-134 571,-134 571,-114 696.5,-114 696.5,-134"/>
<text xml:space="preserve" text-anchor="middle" x="633.75" y="-120.5" font-family="Helvetica,sans-Serif" font-size="10.00">LGE::VFS::ToVirtualPath</text>
</a>
</g>
</g>
<!-- Node3&#45;&gt;Node11 -->
<g id="edge12_Node000003_Node000011" class="edge">
<title>Node3&#45;&gt;Node11</title>
<g id="a_edge12_Node000003_Node000011"><a xlink:title=" ">
<path fill="none" stroke="#63b8ff" d="M379.19,-124C428.41,-124 503.75,-124 559.52,-124"/>
<polygon fill="#63b8ff" stroke="#63b8ff" points="559.24,-127.5 569.24,-124 559.24,-120.5 559.24,-127.5"/>
</a>
</g>
</g>
<!-- Node12 -->
<g id="Node000012" class="node">
<title>Node12</title>
<g id="a_Node000012"><a xlink:href="namespaceLGE_1_1LxFile.html#a06d0b8c5590da8bc48cf22d321fc4074" target="_top" xlink:title=" ">
<polygon fill="white" stroke="#666666" points="528.62,-20 421.12,-20 421.12,0 528.62,0 528.62,-20"/>
<text xml:space="preserve" text-anchor="middle" x="474.88" y="-6.5" font-family="Helvetica,sans-Serif" font-size="10.00">LGE::LxFile::WriteAll</text>
</a>
</g>
</g>
<!-- Node3&#45;&gt;Node12 -->
<g id="edge15_Node000003_Node000012" class="edge">
<title>Node3&#45;&gt;Node12</title>
<g id="a_edge15_Node000003_Node000012"><a xlink:title=" ">
<path fill="none" stroke="#63b8ff" d="M365.76,-113.58C370.46,-111.25 374.94,-108.42 378.75,-105 405.07,-81.36 388.71,-57.95 414.75,-34 418.24,-30.79 422.21,-27.99 426.4,-25.54"/>
<polygon fill="#63b8ff" stroke="#63b8ff" points="427.78,-28.77 435.13,-21.14 424.62,-22.52 427.78,-28.77"/>
</a>
</g>
</g>
<!-- Node8 -->
<g id="Node000008" class="node">
<title>Node8</title>
<g id="a_Node000008"><a xlink:href="namespaceLGE_1_1LxPath.html#ab664986e94ce09aa029f9eb2fcf50133" target="_top" xlink:title=" ">
<polygon fill="white" stroke="#666666" points="856.5,-96 732.5,-96 732.5,-76 856.5,-76 856.5,-96"/>
<text xml:space="preserve" text-anchor="middle" x="794.5" y="-82.5" font-family="Helvetica,sans-Serif" font-size="10.00">LGE::LxPath::IsSubPath</text>
</a>
</g>
</g>
<!-- Node7&#45;&gt;Node8 -->
<g id="edge7_Node000007_Node000008" class="edge">
<title>Node7&#45;&gt;Node8</title>
<g id="a_edge7_Node000007_Node000008"><a xlink:title=" ">
<path fill="none" stroke="#63b8ff" d="M678.55,-58.48C697.2,-62.95 719.16,-68.21 738.86,-72.92"/>
<polygon fill="#63b8ff" stroke="#63b8ff" points="737.83,-76.27 748.37,-75.2 739.46,-69.47 737.83,-76.27"/>
</a>
</g>
</g>
<!-- Node9 -->
<g id="Node000009" class="node">
<title>Node9</title>
<g id="a_Node000009"><a xlink:href="namespaceLGE_1_1LxPath.html#a314a60ce690c90f4ee0b4e64c0199408" target="_top" xlink:title=" ">
<polygon fill="white" stroke="#666666" points="1015,-96 892.5,-96 892.5,-76 1015,-76 1015,-96"/>
<text xml:space="preserve" text-anchor="middle" x="953.75" y="-82.5" font-family="Helvetica,sans-Serif" font-size="10.00">LGE::LxPath::Normalize</text>
</a>
</g>
</g>
<!-- Node7&#45;&gt;Node9 -->
<g id="edge10_Node000007_Node000009" class="edge">
<title>Node7&#45;&gt;Node9</title>
<g id="a_edge10_Node000007_Node000009"><a xlink:title=" ">
<path fill="none" stroke="#63b8ff" d="M693.31,-51.26C738.13,-54.19 801.41,-59.23 856.5,-67 868.77,-68.73 881.83,-71.01 894.25,-73.39"/>
<polygon fill="#63b8ff" stroke="#63b8ff" points="893.47,-76.8 903.95,-75.3 894.82,-69.93 893.47,-76.8"/>
</a>
</g>
</g>
<!-- Node8&#45;&gt;Node9 -->
<g id="edge8_Node000008_Node000009" class="edge">
<title>Node8&#45;&gt;Node9</title>
<g id="a_edge8_Node000008_Node000009"><a xlink:title=" ">
<path fill="none" stroke="#63b8ff" d="M856.75,-86C864.66,-86 872.82,-86 880.88,-86"/>
<polygon fill="#63b8ff" stroke="#63b8ff" points="880.67,-89.5 890.67,-86 880.67,-82.5 880.67,-89.5"/>
</a>
</g>
</g>
<!-- Node9&#45;&gt;Node4 -->
<g id="edge9_Node000009_Node000004" class="edge">
<title>Node9&#45;&gt;Node4</title>
<g id="a_edge9_Node000009_Node000004"><a xlink:title=" ">
<path fill="none" stroke="#63b8ff" d="M1015.4,-86C1023.42,-86 1031.59,-86 1039.45,-86"/>
<polygon fill="#63b8ff" stroke="#63b8ff" points="1039.2,-89.5 1049.2,-86 1039.2,-82.5 1039.2,-89.5"/>
</a>
</g>
</g>
<!-- Node11&#45;&gt;Node8 -->
<g id="edge13_Node000011_Node000008" class="edge">
<title>Node11&#45;&gt;Node8</title>
<g id="a_edge13_Node000011_Node000008"><a xlink:title=" ">
<path fill="none" stroke="#63b8ff" d="M678.55,-113.52C697.2,-109.05 719.16,-103.79 738.86,-99.08"/>
<polygon fill="#63b8ff" stroke="#63b8ff" points="739.46,-102.53 748.37,-96.8 737.83,-95.73 739.46,-102.53"/>
</a>
</g>
</g>
<!-- Node11&#45;&gt;Node9 -->
<g id="edge14_Node000011_Node000009" class="edge">
<title>Node11&#45;&gt;Node9</title>
<g id="a_edge14_Node000011_Node000009"><a xlink:title=" ">
<path fill="none" stroke="#63b8ff" d="M696.61,-120.52C741.2,-117.57 802.74,-112.59 856.5,-105 868.77,-103.27 881.83,-100.99 894.25,-98.61"/>
<polygon fill="#63b8ff" stroke="#63b8ff" points="894.82,-102.07 903.95,-96.7 893.47,-95.2 894.82,-102.07"/>
</a>
</g>
</g>
<!-- Node12&#45;&gt;Node4 -->
<g id="edge16_Node000012_Node000004" class="edge">
<title>Node12&#45;&gt;Node4</title>
<g id="a_edge16_Node000012_Node000004"><a xlink:title=" ">
<path fill="none" stroke="#63b8ff" d="M529.05,-12.98C626.2,-19 838.6,-34.87 1015,-67 1024.07,-68.65 1033.66,-70.74 1042.88,-72.91"/>
<polygon fill="#63b8ff" stroke="#63b8ff" points="1041.87,-76.27 1052.41,-75.24 1043.52,-69.47 1041.87,-76.27"/>
</a>
</g>
</g>
<!-- Node12&#45;&gt;Node7 -->
<g id="edge17_Node000012_Node000007" class="edge">
<title>Node12&#45;&gt;Node7</title>
<g id="a_edge17_Node000012_Node000007"><a xlink:title=" ">
<path fill="none" stroke="#63b8ff" d="M519.16,-20.48C537.5,-24.93 559.09,-30.16 578.48,-34.85"/>
<polygon fill="#63b8ff" stroke="#63b8ff" points="577.6,-38.24 588.14,-37.19 579.24,-31.44 577.6,-38.24"/>
</a>
</g>
</g>
</g>
</svg>
