<?xml version="1.0" encoding="UTF-8" standalone="no"?>
<!DOCTYPE svg PUBLIC "-//W3C//DTD SVG 1.1//EN"
 "http://www.w3.org/Graphics/SVG/1.1/DTD/svg11.dtd">
<!-- Generated by graphviz version 14.0.2 (20251019.1705)
 -->
<!-- Title: LGE::Versioning::DeleteAllVersions Pages: 1 -->
<svg width="1065pt" height="370pt"
 viewBox="0.00 0.00 1065.00 370.00" xmlns="http://www.w3.org/2000/svg" xmlns:xlink="http://www.w3.org/1999/xlink">
<g id="graph0" class="graph" transform="scale(1 1) rotate(0) translate(4 366)">
<title>LGE::Versioning::DeleteAllVersions</title>
<!-- Node1 -->
<g id="Node000001" class="node">
<title>Node1</title>
<g id="a_Node000001"><a xlink:title=" ">
<polygon fill="#999999" stroke="#666666" points="132.25,-102 0,-102 0,-70 132.25,-70 132.25,-102"/>
<text xml:space="preserve" text-anchor="start" x="8" y="-88.5" font-family="Helvetica,sans-Serif" font-size="10.00">LGE::Versioning::DeleteAll</text>
<text xml:space="preserve" text-anchor="middle" x="66.12" y="-76.5" font-family="Helvetica,sans-Serif" font-size="10.00">Versions</text>
</a>
</g>
</g>
<!-- Node2 -->
<g id="Node000002" class="node">
<title>Node2</title>
<g id="a_Node000002"><a xlink:href="namespaceLGE_1_1LxFile.html#a495ab310e479d036634c3628390f80a0" target="_top" xlink:title=" ">
<polygon fill="white" stroke="#666666" points="270.5,-191 168.25,-191 168.25,-171 270.5,-171 270.5,-191"/>
<text xml:space="preserve" text-anchor="middle" x="219.38" y="-177.5" font-family="Helvetica,sans-Serif" font-size="10.00">LGE::LxFile::Delete</text>
</a>
</g>
</g>
<!-- Node1&#45;&gt;Node2 -->
<g id="edge1_Node000001_Node000002" class="edge">
<title>Node1&#45;&gt;Node2</title>
<g id="a_edge1_Node000001_Node000002"><a xlink:title=" ">
<path fill="none" stroke="#63b8ff" d="M93.13,-102.33C120.96,-119.81 164.85,-147.38 192.6,-164.81"/>
<polygon fill="#63b8ff" stroke="#63b8ff" points="190.42,-167.57 200.75,-169.93 194.14,-161.64 190.42,-167.57"/>
</a>
</g>
</g>
<!-- Node4 -->
<g id="Node000004" class="node">
<title>Node4</title>
<g id="a_Node000004"><a xlink:href="classLGE_1_1Log.html#ab0265ee050b8873a2fd31fbdb696ced0" target="_top" xlink:title=" ">
<polygon fill="white" stroke="#666666" points="421.5,-96 341.75,-96 341.75,-76 421.5,-76 421.5,-96"/>
<text xml:space="preserve" text-anchor="middle" x="381.62" y="-82.5" font-family="Helvetica,sans-Serif" font-size="10.00">LGE::Log::Info</text>
</a>
</g>
</g>
<!-- Node1&#45;&gt;Node4 -->
<g id="edge20_Node000001_Node000004" class="edge">
<title>Node1&#45;&gt;Node4</title>
<g id="a_edge20_Node000001_Node000004"><a xlink:title=" ">
<path fill="none" stroke="#63b8ff" d="M132.46,-86C191.31,-86 276.58,-86 330.28,-86"/>
<polygon fill="#63b8ff" stroke="#63b8ff" points="330.06,-89.5 340.06,-86 330.06,-82.5 330.06,-89.5"/>
</a>
</g>
</g>
<!-- Node12 -->
<g id="Node000012" class="node">
<title>Node12</title>
<g id="a_Node000012"><a xlink:href="namespaceLGE_1_1LxFile.html#a11e62876b312a11b881b484bb3a5ee71" target="_top" xlink:title=" ">
<polygon fill="white" stroke="#666666" points="270.12,-20 168.62,-20 168.62,0 270.12,0 270.12,-20"/>
<text xml:space="preserve" text-anchor="middle" x="219.38" y="-6.5" font-family="Helvetica,sans-Serif" font-size="10.00">LGE::LxFile::Exists</text>
</a>
</g>
</g>
<!-- Node1&#45;&gt;Node12 -->
<g id="edge17_Node000001_Node000012" class="edge">
<title>Node1&#45;&gt;Node12</title>
<g id="a_edge17_Node000001_Node000012"><a xlink:title=" ">
<path fill="none" stroke="#63b8ff" d="M98.44,-69.61C118.36,-59.25 144.73,-45.67 168.25,-34 173.98,-31.16 180.09,-28.18 186.02,-25.33"/>
<polygon fill="#63b8ff" stroke="#63b8ff" points="187.48,-28.51 194.98,-21.03 184.45,-22.2 187.48,-28.51"/>
</a>
</g>
</g>
<!-- Node13 -->
<g id="Node000013" class="node">
<title>Node13</title>
<g id="a_Node000013"><a xlink:href="namespaceLGE_1_1LxPath.html#aefae4d45f84718077f5218f64d2f074c" target="_top" xlink:title=" ">
<polygon fill="white" stroke="#666666" points="777.5,-96 655,-96 655,-76 777.5,-76 777.5,-96"/>
<text xml:space="preserve" text-anchor="middle" x="716.25" y="-82.5" font-family="Helvetica,sans-Serif" font-size="10.00">LGE::LxPath::GetParent</text>
</a>
</g>
</g>
<!-- Node1&#45;&gt;Node13 -->
<g id="edge18_Node000001_Node000013" class="edge">
<title>Node1&#45;&gt;Node13</title>
<g id="a_edge18_Node000001_Node000013"><a xlink:title=" ">
<path fill="none" stroke="#63b8ff" d="M132.57,-79.4C180.64,-74.89 247.56,-69.34 306.5,-67 373.23,-64.36 390.02,-64.55 456.75,-67 519.88,-69.32 591.51,-74.81 643.33,-79.29"/>
<polygon fill="#63b8ff" stroke="#63b8ff" points="642.96,-82.77 653.22,-80.16 643.57,-75.8 642.96,-82.77"/>
</a>
</g>
</g>
<!-- Node14 -->
<g id="Node000014" class="node">
<title>Node14</title>
<g id="a_Node000014"><a xlink:href="namespaceLGE_1_1LxFile.html#a9c5f9c037c80b4bdd885c4e690be3e14" target="_top" xlink:title=" ">
<polygon fill="white" stroke="#666666" points="456.75,-362 306.5,-362 306.5,-342 456.75,-342 456.75,-362"/>
<text xml:space="preserve" text-anchor="middle" x="381.62" y="-348.5" font-family="Helvetica,sans-Serif" font-size="10.00">LGE::LxFile::RemoveDirectory</text>
</a>
</g>
</g>
<!-- Node1&#45;&gt;Node14 -->
<g id="edge21_Node000001_Node000014" class="edge">
<title>Node1&#45;&gt;Node14</title>
<g id="a_edge21_Node000001_Node000014"><a xlink:title=" ">
<path fill="none" stroke="#63b8ff" d="M78.48,-102.41C109.59,-146.1 200.96,-266.16 306.5,-328 312.86,-331.72 319.86,-334.95 326.95,-337.72"/>
<polygon fill="#63b8ff" stroke="#63b8ff" points="325.69,-340.98 336.28,-341.07 328.05,-334.4 325.69,-340.98"/>
</a>
</g>
</g>
<!-- Node3 -->
<g id="Node000003" class="node">
<title>Node3</title>
<g id="a_Node000003"><a xlink:href="classLGE_1_1Log.html#a53f3f4b8797ffd18145739c9e66d690a" target="_top" xlink:title=" ">
<polygon fill="white" stroke="#666666" points="1057,-305 972.75,-305 972.75,-285 1057,-285 1057,-305"/>
<text xml:space="preserve" text-anchor="middle" x="1014.88" y="-291.5" font-family="Helvetica,sans-Serif" font-size="10.00">LGE::Log::Error</text>
</a>
</g>
</g>
<!-- Node2&#45;&gt;Node3 -->
<g id="edge2_Node000002_Node000003" class="edge">
<title>Node2&#45;&gt;Node3</title>
<g id="a_edge2_Node000002_Node000003"><a xlink:title=" ">
<path fill="none" stroke="#63b8ff" d="M243.5,-191.44C252.85,-196.57 263.14,-203.49 270.5,-212 296.8,-242.41 273.75,-271.67 306.5,-295 396.53,-359.14 443.95,-314 554.5,-314 554.5,-314 554.5,-314 717.25,-314 802.88,-314 902.13,-306.02 961.36,-300.4"/>
<polygon fill="#63b8ff" stroke="#63b8ff" points="961.54,-303.9 971.15,-299.46 960.86,-296.93 961.54,-303.9"/>
</a>
</g>
</g>
<!-- Node2&#45;&gt;Node4 -->
<g id="edge3_Node000002_Node000004" class="edge">
<title>Node2&#45;&gt;Node4</title>
<g id="a_edge3_Node000002_Node000004"><a xlink:title=" ">
<path fill="none" stroke="#63b8ff" d="M229.05,-170.69C243.44,-154.27 273.9,-122.26 306.5,-105 313.85,-101.11 322.03,-97.99 330.2,-95.49"/>
<polygon fill="#63b8ff" stroke="#63b8ff" points="331.08,-98.88 339.8,-92.85 329.23,-92.13 331.08,-98.88"/>
</a>
</g>
</g>
<!-- Node5 -->
<g id="Node000005" class="node">
<title>Node5</title>
<g id="a_Node000005"><a xlink:href="namespaceLGE_1_1LxFS.html#a5684a30f3fa2906f4dafed0258a79166" target="_top" xlink:title=" ">
<polygon fill="white" stroke="#666666" points="441.75,-286 321.5,-286 321.5,-266 441.75,-266 441.75,-286"/>
<text xml:space="preserve" text-anchor="middle" x="381.62" y="-272.5" font-family="Helvetica,sans-Serif" font-size="10.00">LGE::LxFS::IsInitialized</text>
</a>
</g>
</g>
<!-- Node2&#45;&gt;Node5 -->
<g id="edge4_Node000002_Node000005" class="edge">
<title>Node2&#45;&gt;Node5</title>
<g id="a_edge4_Node000002_Node000005"><a xlink:title=" ">
<path fill="none" stroke="#63b8ff" d="M229.05,-191.31C243.44,-207.73 273.9,-239.74 306.5,-257 309.73,-258.71 313.12,-260.27 316.6,-261.7"/>
<polygon fill="#63b8ff" stroke="#63b8ff" points="315.22,-264.92 325.81,-265.06 317.62,-258.34 315.22,-264.92"/>
</a>
</g>
</g>
<!-- Node6 -->
<g id="Node000006" class="node">
<title>Node6</title>
<g id="a_Node000006"><a xlink:href="namespaceLGE_1_1VFS.html#abb5d35abfe80efe2f7a07394ad5b706a" target="_top" xlink:title=" ">
<polygon fill="white" stroke="#666666" points="614.88,-248 496.12,-248 496.12,-228 614.88,-228 614.88,-248"/>
<text xml:space="preserve" text-anchor="middle" x="555.5" y="-234.5" font-family="Helvetica,sans-Serif" font-size="10.00">LGE::VFS::IsReadOnly</text>
</a>
</g>
</g>
<!-- Node2&#45;&gt;Node6 -->
<g id="edge5_Node000002_Node000006" class="edge">
<title>Node2&#45;&gt;Node6</title>
<g id="a_edge5_Node000002_Node000006"><a xlink:title=" ">
<path fill="none" stroke="#63b8ff" d="M270.72,-188.61C318.63,-195.96 392.7,-207.63 456.75,-219 467.86,-220.97 479.65,-223.17 491.06,-225.36"/>
<polygon fill="#63b8ff" stroke="#63b8ff" points="490.34,-228.78 500.82,-227.24 491.67,-221.91 490.34,-228.78"/>
</a>
</g>
</g>
<!-- Node9 -->
<g id="Node000009" class="node">
<title>Node9</title>
<g id="a_Node000009"><a xlink:href="namespaceLGE_1_1LxFS.html#a12aeb6699602f14153953dceb4284914" target="_top" xlink:title=" ">
<polygon fill="white" stroke="#666666" points="429.75,-134 333.5,-134 333.5,-114 429.75,-114 429.75,-134"/>
<text xml:space="preserve" text-anchor="middle" x="381.62" y="-120.5" font-family="Helvetica,sans-Serif" font-size="10.00">LGE::LxFS::Paths</text>
</a>
</g>
</g>
<!-- Node2&#45;&gt;Node9 -->
<g id="edge10_Node000002_Node000009" class="edge">
<title>Node2&#45;&gt;Node9</title>
<g id="a_edge10_Node000002_Node000009"><a xlink:title=" ">
<path fill="none" stroke="#63b8ff" d="M246.63,-170.53C263.62,-163.85 286.27,-155.15 306.5,-148 316.04,-144.63 326.34,-141.18 336.14,-137.98"/>
<polygon fill="#63b8ff" stroke="#63b8ff" points="337.04,-141.37 345.48,-134.96 334.89,-134.71 337.04,-141.37"/>
</a>
</g>
</g>
<!-- Node10 -->
<g id="Node000010" class="node">
<title>Node10</title>
<g id="a_Node000010"><a xlink:href="namespaceLGE_1_1VFS.html#aee891612cc393155878775a61e486c0b" target="_top" xlink:title=" ">
<polygon fill="white" stroke="#666666" points="618.25,-172 492.75,-172 492.75,-152 618.25,-152 618.25,-172"/>
<text xml:space="preserve" text-anchor="middle" x="555.5" y="-158.5" font-family="Helvetica,sans-Serif" font-size="10.00">LGE::VFS::ToVirtualPath</text>
</a>
</g>
</g>
<!-- Node2&#45;&gt;Node10 -->
<g id="edge11_Node000002_Node000010" class="edge">
<title>Node2&#45;&gt;Node10</title>
<g id="a_edge11_Node000002_Node000010"><a xlink:title=" ">
<path fill="none" stroke="#63b8ff" d="M270.76,-178.13C326.65,-174.96 417.35,-169.8 481.13,-166.17"/>
<polygon fill="#63b8ff" stroke="#63b8ff" points="481.01,-169.68 490.8,-165.62 480.62,-162.7 481.01,-169.68"/>
</a>
</g>
</g>
<!-- Node11 -->
<g id="Node000011" class="node">
<title>Node11</title>
<g id="a_Node000011"><a xlink:href="namespaceLGE_1_1LxFile.html#a06d0b8c5590da8bc48cf22d321fc4074" target="_top" xlink:title=" ">
<polygon fill="white" stroke="#666666" points="435.38,-248 327.88,-248 327.88,-228 435.38,-228 435.38,-248"/>
<text xml:space="preserve" text-anchor="middle" x="381.62" y="-234.5" font-family="Helvetica,sans-Serif" font-size="10.00">LGE::LxFile::WriteAll</text>
</a>
</g>
</g>
<!-- Node2&#45;&gt;Node11 -->
<g id="edge14_Node000002_Node000011" class="edge">
<title>Node2&#45;&gt;Node11</title>
<g id="a_edge14_Node000002_Node000011"><a xlink:title=" ">
<path fill="none" stroke="#63b8ff" d="M246.63,-191.47C263.62,-198.15 286.27,-206.85 306.5,-214 316.04,-217.37 326.34,-220.82 336.14,-224.02"/>
<polygon fill="#63b8ff" stroke="#63b8ff" points="334.89,-227.29 345.48,-227.04 337.04,-220.63 334.89,-227.29"/>
</a>
</g>
</g>
<!-- Node7 -->
<g id="Node000007" class="node">
<title>Node7</title>
<g id="a_Node000007"><a xlink:href="namespaceLGE_1_1LxPath.html#ab664986e94ce09aa029f9eb2fcf50133" target="_top" xlink:title=" ">
<polygon fill="white" stroke="#666666" points="778.25,-210 654.25,-210 654.25,-190 778.25,-190 778.25,-210"/>
<text xml:space="preserve" text-anchor="middle" x="716.25" y="-196.5" font-family="Helvetica,sans-Serif" font-size="10.00">LGE::LxPath::IsSubPath</text>
</a>
</g>
</g>
<!-- Node6&#45;&gt;Node7 -->
<g id="edge6_Node000006_Node000007" class="edge">
<title>Node6&#45;&gt;Node7</title>
<g id="a_edge6_Node000006_Node000007"><a xlink:title=" ">
<path fill="none" stroke="#63b8ff" d="M600.3,-227.52C618.95,-223.05 640.91,-217.79 660.61,-213.08"/>
<polygon fill="#63b8ff" stroke="#63b8ff" points="661.21,-216.53 670.12,-210.8 659.58,-209.73 661.21,-216.53"/>
</a>
</g>
</g>
<!-- Node8 -->
<g id="Node000008" class="node">
<title>Node8</title>
<g id="a_Node000008"><a xlink:href="namespaceLGE_1_1LxPath.html#a314a60ce690c90f4ee0b4e64c0199408" target="_top" xlink:title=" ">
<polygon fill="white" stroke="#666666" points="936.75,-210 814.25,-210 814.25,-190 936.75,-190 936.75,-210"/>
<text xml:space="preserve" text-anchor="middle" x="875.5" y="-196.5" font-family="Helvetica,sans-Serif" font-size="10.00">LGE::LxPath::Normalize</text>
</a>
</g>
</g>
<!-- Node6&#45;&gt;Node8 -->
<g id="edge9_Node000006_Node000008" class="edge">
<title>Node6&#45;&gt;Node8</title>
<g id="a_edge9_Node000006_Node000008"><a xlink:title=" ">
<path fill="none" stroke="#63b8ff" d="M615.06,-234.74C659.88,-231.81 723.16,-226.77 778.25,-219 790.52,-217.27 803.58,-214.99 816,-212.61"/>
<polygon fill="#63b8ff" stroke="#63b8ff" points="816.57,-216.07 825.7,-210.7 815.22,-209.2 816.57,-216.07"/>
</a>
</g>
</g>
<!-- Node7&#45;&gt;Node8 -->
<g id="edge7_Node000007_Node000008" class="edge">
<title>Node7&#45;&gt;Node8</title>
<g id="a_edge7_Node000007_Node000008"><a xlink:title=" ">
<path fill="none" stroke="#63b8ff" d="M778.5,-200C786.41,-200 794.57,-200 802.63,-200"/>
<polygon fill="#63b8ff" stroke="#63b8ff" points="802.42,-203.5 812.42,-200 802.42,-196.5 802.42,-203.5"/>
</a>
</g>
</g>
<!-- Node8&#45;&gt;Node3 -->
<g id="edge8_Node000008_Node000003" class="edge">
<title>Node8&#45;&gt;Node3</title>
<g id="a_edge8_Node000008_Node000003"><a xlink:title=" ">
<path fill="none" stroke="#63b8ff" d="M891.46,-210.35C915.1,-226.69 961.31,-258.65 989.7,-278.28"/>
<polygon fill="#63b8ff" stroke="#63b8ff" points="987.47,-281 997.69,-283.8 991.45,-275.24 987.47,-281"/>
</a>
</g>
</g>
<!-- Node10&#45;&gt;Node7 -->
<g id="edge12_Node000010_Node000007" class="edge">
<title>Node10&#45;&gt;Node7</title>
<g id="a_edge12_Node000010_Node000007"><a xlink:title=" ">
<path fill="none" stroke="#63b8ff" d="M600.3,-172.48C618.95,-176.95 640.91,-182.21 660.61,-186.92"/>
<polygon fill="#63b8ff" stroke="#63b8ff" points="659.58,-190.27 670.12,-189.2 661.21,-183.47 659.58,-190.27"/>
</a>
</g>
</g>
<!-- Node10&#45;&gt;Node8 -->
<g id="edge13_Node000010_Node000008" class="edge">
<title>Node10&#45;&gt;Node8</title>
<g id="a_edge13_Node000010_Node000008"><a xlink:title=" ">
<path fill="none" stroke="#63b8ff" d="M618.36,-165.48C662.95,-168.43 724.49,-173.41 778.25,-181 790.52,-182.73 803.58,-185.01 816,-187.39"/>
<polygon fill="#63b8ff" stroke="#63b8ff" points="815.22,-190.8 825.7,-189.3 816.57,-183.93 815.22,-190.8"/>
</a>
</g>
</g>
<!-- Node11&#45;&gt;Node3 -->
<g id="edge15_Node000011_Node000003" class="edge">
<title>Node11&#45;&gt;Node3</title>
<g id="a_edge15_Node000011_Node000003"><a xlink:title=" ">
<path fill="none" stroke="#63b8ff" d="M435.68,-248.24C453.74,-251.43 474.07,-254.71 492.75,-257 663.29,-277.88 866.73,-288.66 961.04,-292.86"/>
<polygon fill="#63b8ff" stroke="#63b8ff" points="960.88,-296.36 971.02,-293.3 961.18,-289.36 960.88,-296.36"/>
</a>
</g>
</g>
<!-- Node11&#45;&gt;Node6 -->
<g id="edge16_Node000011_Node000006" class="edge">
<title>Node11&#45;&gt;Node6</title>
<g id="a_edge16_Node000011_Node000006"><a xlink:title=" ">
<path fill="none" stroke="#63b8ff" d="M435.6,-238C451.06,-238 468.21,-238 484.56,-238"/>
<polygon fill="#63b8ff" stroke="#63b8ff" points="484.2,-241.5 494.2,-238 484.2,-234.5 484.2,-241.5"/>
</a>
</g>
</g>
<!-- Node13&#45;&gt;Node8 -->
<g id="edge19_Node000013_Node000008" class="edge">
<title>Node13&#45;&gt;Node8</title>
<g id="a_edge19_Node000013_Node000008"><a xlink:title=" ">
<path fill="none" stroke="#63b8ff" d="M731.48,-96.32C758.73,-116.07 818.49,-159.39 851.48,-183.31"/>
<polygon fill="#63b8ff" stroke="#63b8ff" points="849.04,-185.86 859.19,-188.9 853.15,-180.2 849.04,-185.86"/>
</a>
</g>
</g>
<!-- Node14&#45;&gt;Node3 -->
<g id="edge22_Node000014_Node000003" class="edge">
<title>Node14&#45;&gt;Node3</title>
<g id="a_edge22_Node000014_Node000003"><a xlink:title=" ">
<path fill="none" stroke="#63b8ff" d="M457.25,-357.17C564.73,-362.75 768.68,-366.25 936.75,-328 953.27,-324.24 970.71,-317.08 984.81,-310.39"/>
<polygon fill="#63b8ff" stroke="#63b8ff" points="986.1,-313.66 993.52,-306.1 983,-307.38 986.1,-313.66"/>
</a>
</g>
</g>
<!-- Node14&#45;&gt;Node6 -->
<g id="edge23_Node000014_Node000006" class="edge">
<title>Node14&#45;&gt;Node6</title>
<g id="a_edge23_Node000014_Node000006"><a xlink:title=" ">
<path fill="none" stroke="#63b8ff" d="M398.18,-341.68C428.09,-321.84 493.84,-278.23 529.8,-254.38"/>
<polygon fill="#63b8ff" stroke="#63b8ff" points="531.44,-257.49 537.84,-249.05 527.57,-251.66 531.44,-257.49"/>
</a>
</g>
</g>
</g>
</svg>
