<?xml version="1.0" encoding="UTF-8" standalone="no"?>
<!DOCTYPE svg PUBLIC "-//W3C//DTD SVG 1.1//EN"
 "http://www.w3.org/Graphics/SVG/1.1/DTD/svg11.dtd">
<!-- Generated by graphviz version 14.0.2 (20251019.1705)
 -->
<!-- Title: LGE::ImportExport::CanImport Pages: 1 -->
<svg width="451pt" height="78pt"
 viewBox="0.00 0.00 451.00 78.00" xmlns="http://www.w3.org/2000/svg" xmlns:xlink="http://www.w3.org/1999/xlink">
<g id="graph0" class="graph" transform="scale(1 1) rotate(0) translate(4 74)">
<title>LGE::ImportExport::CanImport</title>
<!-- Node1 -->
<g id="Node000001" class="node">
<title>Node1</title>
<g id="a_Node000001"><a xlink:title=" ">
<polygon fill="#999999" stroke="#666666" points="103.75,-54 0,-54 0,-22 103.75,-22 103.75,-54"/>
<text xml:space="preserve" text-anchor="start" x="8" y="-40.5" font-family="Helvetica,sans-Serif" font-size="10.00">LGE::ImportExport::</text>
<text xml:space="preserve" text-anchor="middle" x="51.88" y="-28.5" font-family="Helvetica,sans-Serif" font-size="10.00">CanImport</text>
</a>
</g>
</g>
<!-- Node2 -->
<g id="Node000002" class="node">
<title>Node2</title>
<g id="a_Node000002"><a xlink:href="classLGE_1_1ImporterRegistry.html#ae32195eae32f4eb6c04f7c01d95fc621" target="_top" xlink:title=" ">
<polygon fill="white" stroke="#666666" points="275.75,-70 139.75,-70 139.75,-50 275.75,-50 275.75,-70"/>
<text xml:space="preserve" text-anchor="middle" x="207.75" y="-56.5" font-family="Helvetica,sans-Serif" font-size="10.00">LGE::ImporterRegistry::Get</text>
</a>
</g>
</g>
<!-- Node1&#45;&gt;Node2 -->
<g id="edge1_Node000001_Node000002" class="edge">
<title>Node1&#45;&gt;Node2</title>
<g id="a_edge1_Node000001_Node000002"><a xlink:title=" ">
<path fill="none" stroke="#63b8ff" d="M104.11,-45.33C111.87,-46.43 120.01,-47.6 128.19,-48.77"/>
<polygon fill="#63b8ff" stroke="#63b8ff" points="127.42,-52.19 137.81,-50.14 128.41,-45.26 127.42,-52.19"/>
</a>
</g>
</g>
<!-- Node3 -->
<g id="Node000003" class="node">
<title>Node3</title>
<g id="a_Node000003"><a xlink:href="classLGE_1_1ImporterRegistry.html#a257b599e47f36d4dba7752b72f128c30" target="_top" xlink:title=" ">
<polygon fill="white" stroke="#666666" points="264.88,-32 150.62,-32 150.62,0 264.88,0 264.88,-32"/>
<text xml:space="preserve" text-anchor="start" x="158.62" y="-18.5" font-family="Helvetica,sans-Serif" font-size="10.00">LGE::ImporterRegistry</text>
<text xml:space="preserve" text-anchor="middle" x="207.75" y="-6.5" font-family="Helvetica,sans-Serif" font-size="10.00">::GetImporterForFile</text>
</a>
</g>
</g>
<!-- Node1&#45;&gt;Node3 -->
<g id="edge2_Node000001_Node000003" class="edge">
<title>Node1&#45;&gt;Node3</title>
<g id="a_edge2_Node000001_Node000003"><a xlink:title=" ">
<path fill="none" stroke="#63b8ff" d="M104.11,-30.67C115.31,-29.07 127.33,-27.36 139.05,-25.68"/>
<polygon fill="#63b8ff" stroke="#63b8ff" points="139.27,-29.18 148.67,-24.3 138.28,-22.25 139.27,-29.18"/>
</a>
</g>
</g>
<!-- Node4 -->
<g id="Node000004" class="node">
<title>Node4</title>
<g id="a_Node000004"><a xlink:href="classLGE_1_1ImporterRegistry.html#a92729de6d0106ae180080087ae1b762f" target="_top" xlink:title=" ">
<polygon fill="white" stroke="#666666" points="443.25,-32 311.75,-32 311.75,0 443.25,0 443.25,-32"/>
<text xml:space="preserve" text-anchor="start" x="319.75" y="-18.5" font-family="Helvetica,sans-Serif" font-size="10.00">LGE::ImporterRegistry</text>
<text xml:space="preserve" text-anchor="middle" x="377.5" y="-6.5" font-family="Helvetica,sans-Serif" font-size="10.00">::GetImporterForExtension</text>
</a>
</g>
</g>
<!-- Node3&#45;&gt;Node4 -->
<g id="edge3_Node000003_Node000004" class="edge">
<title>Node3&#45;&gt;Node4</title>
<g id="a_edge3_Node000003_Node000004"><a xlink:title=" ">
<path fill="none" stroke="#63b8ff" d="M265.07,-16C276.33,-16 288.32,-16 300.12,-16"/>
<polygon fill="#63b8ff" stroke="#63b8ff" points="299.83,-19.5 309.83,-16 299.83,-12.5 299.83,-19.5"/>
</a>
</g>
</g>
</g>
</svg>
