<?xml version="1.0" encoding="UTF-8" standalone="no"?>
<!DOCTYPE svg PUBLIC "-//W3C//DTD SVG 1.1//EN"
 "http://www.w3.org/Graphics/SVG/1.1/DTD/svg11.dtd">
<!-- Generated by graphviz version 14.0.2 (20251019.1705)
 -->
<!-- Title: LGE::Dependencies::ValidateReference Pages: 1 -->
<svg width="753pt" height="230pt"
 viewBox="0.00 0.00 753.00 230.00" xmlns="http://www.w3.org/2000/svg" xmlns:xlink="http://www.w3.org/1999/xlink">
<g id="graph0" class="graph" transform="scale(1 1) rotate(0) translate(4 226)">
<title>LGE::Dependencies::ValidateReference</title>
<!-- Node1 -->
<g id="Node000001" class="node">
<title>Node1</title>
<g id="a_Node000001"><a xlink:title=" ">
<polygon fill="#999999" stroke="#666666" points="745.25,-72 635.5,-72 635.5,-40 745.25,-40 745.25,-72"/>
<text xml:space="preserve" text-anchor="start" x="643.5" y="-58.5" font-family="Helvetica,sans-Serif" font-size="10.00">LGE::Dependencies::</text>
<text xml:space="preserve" text-anchor="middle" x="690.38" y="-46.5" font-family="Helvetica,sans-Serif" font-size="10.00">ValidateReference</text>
</a>
</g>
</g>
<!-- Node2 -->
<g id="Node000002" class="node">
<title>Node2</title>
<g id="a_Node000002"><a xlink:href="namespaceLGE_1_1Dependencies.html#abb2932854a8edbd61c21b2b3c846396f" target="_top" xlink:title=" ">
<polygon fill="white" stroke="#666666" points="599.5,-86 489.75,-86 489.75,-54 599.5,-54 599.5,-86"/>
<text xml:space="preserve" text-anchor="start" x="497.75" y="-72.5" font-family="Helvetica,sans-Serif" font-size="10.00">LGE::Dependencies::</text>
<text xml:space="preserve" text-anchor="middle" x="544.62" y="-60.5" font-family="Helvetica,sans-Serif" font-size="10.00">RebuildGraph</text>
</a>
</g>
</g>
<!-- Node1&#45;&gt;Node2 -->
<g id="edge1_Node000001_Node000002" class="edge">
<title>Node1&#45;&gt;Node2</title>
<g id="a_edge1_Node000001_Node000002"><a xlink:title=" ">
<path fill="none" stroke="#63b8ff" d="M623.72,-62.39C615.64,-63.18 607.45,-63.98 599.57,-64.75"/>
<polygon fill="#63b8ff" stroke="#63b8ff" points="623.91,-65.89 633.52,-61.44 623.23,-58.93 623.91,-65.89"/>
</a>
</g>
</g>
<!-- Node10 -->
<g id="Node000010" class="node">
<title>Node10</title>
<g id="a_Node000010"><a xlink:href="TestDependencies_8cpp.html#ad6e5e8e9ab7331c10f47c0adead790ec" target="_top" xlink:title=" ">
<polygon fill="white" stroke="#666666" points="253.62,-20 212.12,-20 212.12,0 253.62,0 253.62,-20"/>
<text xml:space="preserve" text-anchor="middle" x="232.88" y="-6.5" font-family="Helvetica,sans-Serif" font-size="10.00">TEST</text>
</a>
</g>
</g>
<!-- Node1&#45;&gt;Node10 -->
<g id="edge10_Node000001_Node000010" class="edge">
<title>Node1&#45;&gt;Node10</title>
<g id="a_edge10_Node000001_Node000010"><a xlink:title=" ">
<path fill="none" stroke="#63b8ff" d="M624.05,-47.8C615.79,-46.82 607.45,-45.87 599.5,-45 467.96,-30.66 309.45,-16.57 254.11,-11.75"/>
<polygon fill="#63b8ff" stroke="#63b8ff" points="623.37,-51.24 633.72,-48.96 624.21,-44.29 623.37,-51.24"/>
</a>
</g>
</g>
<!-- Node3 -->
<g id="Node000003" class="node">
<title>Node3</title>
<g id="a_Node000003"><a xlink:href="namespaceLGE_1_1Dependencies.html#a507f7e03e282ce1ac7c9326017bccae8" target="_top" xlink:title=" ">
<polygon fill="white" stroke="#666666" points="453.75,-102 344,-102 344,-70 453.75,-70 453.75,-102"/>
<text xml:space="preserve" text-anchor="start" x="352" y="-88.5" font-family="Helvetica,sans-Serif" font-size="10.00">LGE::Dependencies::</text>
<text xml:space="preserve" text-anchor="middle" x="398.88" y="-76.5" font-family="Helvetica,sans-Serif" font-size="10.00">Initialize</text>
</a>
</g>
</g>
<!-- Node2&#45;&gt;Node3 -->
<g id="edge2_Node000002_Node000003" class="edge">
<title>Node2&#45;&gt;Node3</title>
<g id="a_edge2_Node000002_Node000003"><a xlink:title=" ">
<path fill="none" stroke="#63b8ff" d="M477.97,-77.31C469.89,-78.21 461.7,-79.12 453.82,-80"/>
<polygon fill="#63b8ff" stroke="#63b8ff" points="478.22,-80.8 487.78,-76.22 477.45,-73.84 478.22,-80.8"/>
</a>
</g>
</g>
<!-- Node4 -->
<g id="Node000004" class="node">
<title>Node4</title>
<g id="a_Node000004"><a xlink:href="classExampleApp.html#a535c41a1b822be3f2c6fd96e3f80f4b7" target="_top" xlink:title=" ">
<polygon fill="white" stroke="#666666" points="308,-222 157.75,-222 157.75,-190 308,-190 308,-222"/>
<text xml:space="preserve" text-anchor="start" x="165.75" y="-208.5" font-family="Helvetica,sans-Serif" font-size="10.00">ExampleApp::CompleteProject</text>
<text xml:space="preserve" text-anchor="middle" x="232.88" y="-196.5" font-family="Helvetica,sans-Serif" font-size="10.00">Loading</text>
</a>
</g>
</g>
<!-- Node3&#45;&gt;Node4 -->
<g id="edge3_Node000003_Node000004" class="edge">
<title>Node3&#45;&gt;Node4</title>
<g id="a_edge3_Node000003_Node000004"><a xlink:title=" ">
<path fill="none" stroke="#63b8ff" d="M379.46,-111.56C362.92,-132.83 336.86,-162.54 308,-181 302.97,-184.22 297.47,-187.07 291.83,-189.59"/>
<polygon fill="#63b8ff" stroke="#63b8ff" points="382.2,-113.73 385.45,-103.65 376.62,-109.51 382.2,-113.73"/>
</a>
</g>
</g>
<!-- Node6 -->
<g id="Node000006" class="node">
<title>Node6</title>
<g id="a_Node000006"><a xlink:href="TestDependencies_8cpp.html#a27d08683b47752be5bf0771792fe84e1" target="_top" xlink:title=" ">
<polygon fill="white" stroke="#666666" points="253.62,-172 212.12,-172 212.12,-152 253.62,-152 253.62,-172"/>
<text xml:space="preserve" text-anchor="middle" x="232.88" y="-158.5" font-family="Helvetica,sans-Serif" font-size="10.00">TEST</text>
</a>
</g>
</g>
<!-- Node3&#45;&gt;Node6 -->
<g id="edge5_Node000003_Node000006" class="edge">
<title>Node3&#45;&gt;Node6</title>
<g id="a_edge5_Node000003_Node000006"><a xlink:title=" ">
<path fill="none" stroke="#63b8ff" d="M367.15,-108.9C350.38,-120.5 328.84,-133.99 308,-143 290.44,-150.59 269.18,-155.65 253.94,-158.63"/>
<polygon fill="#63b8ff" stroke="#63b8ff" points="369.05,-111.84 375.19,-103.21 365.01,-106.13 369.05,-111.84"/>
</a>
</g>
</g>
<!-- Node7 -->
<g id="Node000007" class="node">
<title>Node7</title>
<g id="a_Node000007"><a xlink:href="TestDependencies_8cpp.html#a73f01e5c160074ed2ad795bd2b1ac7a2" target="_top" xlink:title=" ">
<polygon fill="white" stroke="#666666" points="253.62,-134 212.12,-134 212.12,-114 253.62,-114 253.62,-134"/>
<text xml:space="preserve" text-anchor="middle" x="232.88" y="-120.5" font-family="Helvetica,sans-Serif" font-size="10.00">TEST</text>
</a>
</g>
</g>
<!-- Node3&#45;&gt;Node7 -->
<g id="edge6_Node000003_Node000007" class="edge">
<title>Node3&#45;&gt;Node7</title>
<g id="a_edge6_Node000003_Node000007"><a xlink:title=" ">
<path fill="none" stroke="#63b8ff" d="M332.68,-101.11C304.52,-107.63 273.6,-114.8 253.98,-119.34"/>
<polygon fill="#63b8ff" stroke="#63b8ff" points="333.29,-104.56 342.25,-98.89 331.71,-97.74 333.29,-104.56"/>
</a>
</g>
</g>
<!-- Node8 -->
<g id="Node000008" class="node">
<title>Node8</title>
<g id="a_Node000008"><a xlink:href="TestDependencies_8cpp.html#ac7d0213aa008a4537d2b739ca96728af" target="_top" xlink:title=" ">
<polygon fill="white" stroke="#666666" points="253.62,-96 212.12,-96 212.12,-76 253.62,-76 253.62,-96"/>
<text xml:space="preserve" text-anchor="middle" x="232.88" y="-82.5" font-family="Helvetica,sans-Serif" font-size="10.00">TEST</text>
</a>
</g>
</g>
<!-- Node3&#45;&gt;Node8 -->
<g id="edge7_Node000003_Node000008" class="edge">
<title>Node3&#45;&gt;Node8</title>
<g id="a_edge7_Node000003_Node000008"><a xlink:title=" ">
<path fill="none" stroke="#63b8ff" d="M332.31,-86C304.25,-86 273.51,-86 253.98,-86"/>
<polygon fill="#63b8ff" stroke="#63b8ff" points="332.21,-89.5 342.21,-86 332.21,-82.5 332.21,-89.5"/>
</a>
</g>
</g>
<!-- Node9 -->
<g id="Node000009" class="node">
<title>Node9</title>
<g id="a_Node000009"><a xlink:href="TestDependencies_8cpp.html#a3eed8aa25f31b84b211af1815819d59e" target="_top" xlink:title=" ">
<polygon fill="white" stroke="#666666" points="253.62,-58 212.12,-58 212.12,-38 253.62,-38 253.62,-58"/>
<text xml:space="preserve" text-anchor="middle" x="232.88" y="-44.5" font-family="Helvetica,sans-Serif" font-size="10.00">TEST</text>
</a>
</g>
</g>
<!-- Node3&#45;&gt;Node9 -->
<g id="edge8_Node000003_Node000009" class="edge">
<title>Node3&#45;&gt;Node9</title>
<g id="a_edge8_Node000003_Node000009"><a xlink:title=" ">
<path fill="none" stroke="#63b8ff" d="M332.68,-70.89C304.52,-64.37 273.6,-57.2 253.98,-52.66"/>
<polygon fill="#63b8ff" stroke="#63b8ff" points="331.71,-74.26 342.25,-73.11 333.29,-67.44 331.71,-74.26"/>
</a>
</g>
</g>
<!-- Node3&#45;&gt;Node10 -->
<g id="edge9_Node000003_Node000010" class="edge">
<title>Node3&#45;&gt;Node10</title>
<g id="a_edge9_Node000003_Node000010"><a xlink:title=" ">
<path fill="none" stroke="#63b8ff" d="M367.15,-63.1C350.38,-51.5 328.84,-38.01 308,-29 290.44,-21.41 269.18,-16.35 253.94,-13.37"/>
<polygon fill="#63b8ff" stroke="#63b8ff" points="365.01,-65.87 375.19,-68.79 369.05,-60.16 365.01,-65.87"/>
</a>
</g>
</g>
<!-- Node5 -->
<g id="Node000005" class="node">
<title>Node5</title>
<g id="a_Node000005"><a xlink:href="classExampleApp.html#a51a63c4107ac16f6c82cda225b2dccea" target="_top" xlink:title=" ">
<polygon fill="white" stroke="#666666" points="121.75,-216 0,-216 0,-196 121.75,-196 121.75,-216"/>
<text xml:space="preserve" text-anchor="middle" x="60.88" y="-202.5" font-family="Helvetica,sans-Serif" font-size="10.00">ExampleApp::OnRender</text>
</a>
</g>
</g>
<!-- Node4&#45;&gt;Node5 -->
<g id="edge4_Node000004_Node000005" class="edge">
<title>Node4&#45;&gt;Node5</title>
<g id="a_edge4_Node000004_Node000005"><a xlink:title=" ">
<path fill="none" stroke="#63b8ff" d="M145.94,-206C137.88,-206 129.84,-206 122.09,-206"/>
<polygon fill="#63b8ff" stroke="#63b8ff" points="145.8,-209.5 155.8,-206 145.8,-202.5 145.8,-209.5"/>
</a>
</g>
</g>
</g>
</svg>
