<?xml version="1.0" encoding="UTF-8" standalone="no"?>
<!DOCTYPE svg PUBLIC "-//W3C//DTD SVG 1.1//EN"
 "http://www.w3.org/Graphics/SVG/1.1/DTD/svg11.dtd">
<!-- Generated by graphviz version 14.0.2 (20251019.1705)
 -->
<!-- Title: LGE::AssetRegistry::FullScan Pages: 1 -->
<svg width="544pt" height="758pt"
 viewBox="0.00 0.00 544.00 758.00" xmlns="http://www.w3.org/2000/svg" xmlns:xlink="http://www.w3.org/1999/xlink">
<g id="graph0" class="graph" transform="scale(1 1) rotate(0) translate(4 754)">
<title>LGE::AssetRegistry::FullScan</title>
<!-- Node1 -->
<g id="Node000001" class="node">
<title>Node1</title>
<g id="a_Node000001"><a xlink:title=" ">
<polygon fill="#999999" stroke="#666666" points="535.75,-349 432,-349 432,-317 535.75,-317 535.75,-349"/>
<text xml:space="preserve" text-anchor="start" x="440" y="-335.5" font-family="Helvetica,sans-Serif" font-size="10.00">LGE::AssetRegistry</text>
<text xml:space="preserve" text-anchor="middle" x="483.88" y="-323.5" font-family="Helvetica,sans-Serif" font-size="10.00">::FullScan</text>
</a>
</g>
</g>
<!-- Node2 -->
<g id="Node000002" class="node">
<title>Node2</title>
<g id="a_Node000002"><a xlink:href="BenchmarkFS_8cpp.html#ab029f67ffb106edc6d219aadc7aee238" target="_top" xlink:title=" ">
<polygon fill="white" stroke="#666666" points="374.62,-750 267.12,-750 267.12,-718 374.62,-718 374.62,-750"/>
<text xml:space="preserve" text-anchor="start" x="275.12" y="-736.5" font-family="Helvetica,sans-Serif" font-size="10.00">Benchmark_Registry</text>
<text xml:space="preserve" text-anchor="middle" x="320.88" y="-724.5" font-family="Helvetica,sans-Serif" font-size="10.00">_Scan_Large</text>
</a>
</g>
</g>
<!-- Node1&#45;&gt;Node2 -->
<g id="edge1_Node000001_Node000002" class="edge">
<title>Node1&#45;&gt;Node2</title>
<g id="a_edge1_Node000001_Node000002"><a xlink:title=" ">
<path fill="none" stroke="#63b8ff" d="M480.02,-360.25C471.38,-437.72 443.19,-656.93 396,-709 390.25,-715.34 382.85,-720.07 374.94,-723.61"/>
<polygon fill="#63b8ff" stroke="#63b8ff" points="483.47,-360.91 481.07,-350.59 476.51,-360.15 483.47,-360.91"/>
</a>
</g>
</g>
<!-- Node3 -->
<g id="Node000003" class="node">
<title>Node3</title>
<g id="a_Node000003"><a xlink:href="BenchmarkFS_8cpp.html#ab9a728100bf27df8671c37d3a29bbea1" target="_top" xlink:title=" ">
<polygon fill="white" stroke="#666666" points="374.62,-700 267.12,-700 267.12,-668 374.62,-668 374.62,-700"/>
<text xml:space="preserve" text-anchor="start" x="275.12" y="-686.5" font-family="Helvetica,sans-Serif" font-size="10.00">Benchmark_Registry</text>
<text xml:space="preserve" text-anchor="middle" x="320.88" y="-674.5" font-family="Helvetica,sans-Serif" font-size="10.00">_Scan_Medium</text>
</a>
</g>
</g>
<!-- Node1&#45;&gt;Node3 -->
<g id="edge2_Node000001_Node000003" class="edge">
<title>Node1&#45;&gt;Node3</title>
<g id="a_edge2_Node000001_Node000003"><a xlink:title=" ">
<path fill="none" stroke="#63b8ff" d="M483.72,-360.56C484.08,-422.39 476.17,-573.46 396,-659 390.15,-665.24 382.69,-669.93 374.77,-673.44"/>
<polygon fill="#63b8ff" stroke="#63b8ff" points="487.23,-360.89 483.58,-350.94 480.23,-360.99 487.23,-360.89"/>
</a>
</g>
</g>
<!-- Node6 -->
<g id="Node000006" class="node">
<title>Node6</title>
<g id="a_Node000006"><a xlink:href="BenchmarkFS_8cpp.html#aa44cb85b0759f1cfddf700acff100f97" target="_top" xlink:title=" ">
<polygon fill="white" stroke="#666666" points="374.62,-650 267.12,-650 267.12,-618 374.62,-618 374.62,-650"/>
<text xml:space="preserve" text-anchor="start" x="275.12" y="-636.5" font-family="Helvetica,sans-Serif" font-size="10.00">Benchmark_Registry</text>
<text xml:space="preserve" text-anchor="middle" x="320.88" y="-624.5" font-family="Helvetica,sans-Serif" font-size="10.00">_Scan_Small</text>
</a>
</g>
</g>
<!-- Node1&#45;&gt;Node6 -->
<g id="edge5_Node000001_Node000006" class="edge">
<title>Node1&#45;&gt;Node6</title>
<g id="a_edge5_Node000001_Node000006"><a xlink:title=" ">
<path fill="none" stroke="#63b8ff" d="M482.12,-360.43C479.11,-415.22 464.64,-538.95 396,-609 390.11,-615.01 382.72,-619.58 374.91,-623.05"/>
<polygon fill="#63b8ff" stroke="#63b8ff" points="485.6,-360.89 482.55,-350.75 478.61,-360.58 485.6,-360.89"/>
</a>
</g>
</g>
<!-- Node7 -->
<g id="Node000007" class="node">
<title>Node7</title>
<g id="a_Node000007"><a xlink:href="BenchmarkFS_8cpp.html#a3442e7b685b914cc8075873db73300d8" target="_top" xlink:title=" ">
<polygon fill="white" stroke="#666666" points="374.62,-600 267.12,-600 267.12,-568 374.62,-568 374.62,-600"/>
<text xml:space="preserve" text-anchor="start" x="275.12" y="-586.5" font-family="Helvetica,sans-Serif" font-size="10.00">Benchmark_Registry</text>
<text xml:space="preserve" text-anchor="middle" x="320.88" y="-574.5" font-family="Helvetica,sans-Serif" font-size="10.00">_Search_Fuzzy</text>
</a>
</g>
</g>
<!-- Node1&#45;&gt;Node7 -->
<g id="edge7_Node000001_Node000007" class="edge">
<title>Node1&#45;&gt;Node7</title>
<g id="a_edge7_Node000001_Node000007"><a xlink:title=" ">
<path fill="none" stroke="#63b8ff" d="M479.83,-360.65C473.19,-407.87 453.09,-504.24 396,-559 390.02,-564.73 382.68,-569.16 374.97,-572.56"/>
<polygon fill="#63b8ff" stroke="#63b8ff" points="483.3,-361.1 481.12,-350.73 476.36,-360.2 483.3,-361.1"/>
</a>
</g>
</g>
<!-- Node8 -->
<g id="Node000008" class="node">
<title>Node8</title>
<g id="a_Node000008"><a xlink:href="BenchmarkFS_8cpp.html#a6e215b65128db1abca9661a02a708fe7" target="_top" xlink:title=" ">
<polygon fill="white" stroke="#666666" points="374.62,-550 267.12,-550 267.12,-518 374.62,-518 374.62,-550"/>
<text xml:space="preserve" text-anchor="start" x="275.12" y="-536.5" font-family="Helvetica,sans-Serif" font-size="10.00">Benchmark_Registry</text>
<text xml:space="preserve" text-anchor="middle" x="320.88" y="-524.5" font-family="Helvetica,sans-Serif" font-size="10.00">_Search_GUID</text>
</a>
</g>
</g>
<!-- Node1&#45;&gt;Node8 -->
<g id="edge9_Node000001_Node000008" class="edge">
<title>Node1&#45;&gt;Node8</title>
<g id="a_edge9_Node000001_Node000008"><a xlink:title=" ">
<path fill="none" stroke="#63b8ff" d="M476.41,-360.55C465.98,-399.11 441.8,-468.93 396,-509 389.87,-514.37 382.54,-518.59 374.91,-521.91"/>
<polygon fill="#63b8ff" stroke="#63b8ff" points="479.79,-361.45 478.9,-350.9 473.02,-359.71 479.79,-361.45"/>
</a>
</g>
</g>
<!-- Node9 -->
<g id="Node000009" class="node">
<title>Node9</title>
<g id="a_Node000009"><a xlink:href="BenchmarkFS_8cpp.html#a1d7ed07006c36462715eb9e933bb0bac" target="_top" xlink:title=" ">
<polygon fill="white" stroke="#666666" points="374.62,-500 267.12,-500 267.12,-468 374.62,-468 374.62,-500"/>
<text xml:space="preserve" text-anchor="start" x="275.12" y="-486.5" font-family="Helvetica,sans-Serif" font-size="10.00">Benchmark_Registry</text>
<text xml:space="preserve" text-anchor="middle" x="320.88" y="-474.5" font-family="Helvetica,sans-Serif" font-size="10.00">_Search_Path</text>
</a>
</g>
</g>
<!-- Node1&#45;&gt;Node9 -->
<g id="edge11_Node000001_Node000009" class="edge">
<title>Node1&#45;&gt;Node9</title>
<g id="a_edge11_Node000001_Node000009"><a xlink:title=" ">
<path fill="none" stroke="#63b8ff" d="M471,-359.47C456.95,-387.93 430.99,-432.61 396,-459 389.71,-463.74 382.47,-467.62 375.02,-470.78"/>
<polygon fill="#63b8ff" stroke="#63b8ff" points="473.99,-361.33 475.14,-350.8 467.67,-358.32 473.99,-361.33"/>
</a>
</g>
</g>
<!-- Node10 -->
<g id="Node000010" class="node">
<title>Node10</title>
<g id="a_Node000010"><a xlink:href="classExampleApp.html#a535c41a1b822be3f2c6fd96e3f80f4b7" target="_top" xlink:title=" ">
<polygon fill="white" stroke="#666666" points="396,-450 245.75,-450 245.75,-418 396,-418 396,-450"/>
<text xml:space="preserve" text-anchor="start" x="253.75" y="-436.5" font-family="Helvetica,sans-Serif" font-size="10.00">ExampleApp::CompleteProject</text>
<text xml:space="preserve" text-anchor="middle" x="320.88" y="-424.5" font-family="Helvetica,sans-Serif" font-size="10.00">Loading</text>
</a>
</g>
</g>
<!-- Node1&#45;&gt;Node10 -->
<g id="edge13_Node000001_Node000010" class="edge">
<title>Node1&#45;&gt;Node10</title>
<g id="a_edge13_Node000001_Node000010"><a xlink:title=" ">
<path fill="none" stroke="#63b8ff" d="M460.08,-357.48C443.62,-373.96 420.11,-395.13 396,-409 390.47,-412.18 384.47,-415.04 378.36,-417.58"/>
<polygon fill="#63b8ff" stroke="#63b8ff" points="462.48,-360.04 466.96,-350.44 457.47,-355.15 462.48,-360.04"/>
</a>
</g>
</g>
<!-- Node12 -->
<g id="Node000012" class="node">
<title>Node12</title>
<g id="a_Node000012"><a xlink:href="TestDependencies_8cpp.html#a27d08683b47752be5bf0771792fe84e1" target="_top" xlink:title=" ">
<polygon fill="white" stroke="#666666" points="341.62,-400 300.12,-400 300.12,-380 341.62,-380 341.62,-400"/>
<text xml:space="preserve" text-anchor="middle" x="320.88" y="-386.5" font-family="Helvetica,sans-Serif" font-size="10.00">TEST</text>
</a>
</g>
</g>
<!-- Node1&#45;&gt;Node12 -->
<g id="edge15_Node000001_Node000012" class="edge">
<title>Node1&#45;&gt;Node12</title>
<g id="a_edge15_Node000001_Node000012"><a xlink:title=" ">
<path fill="none" stroke="#63b8ff" d="M438.31,-354.14C424.89,-360.05 410,-366.18 396,-371 378.04,-377.19 357.01,-382.39 341.95,-385.78"/>
<polygon fill="#63b8ff" stroke="#63b8ff" points="439.65,-357.37 447.34,-350.08 436.78,-350.99 439.65,-357.37"/>
</a>
</g>
</g>
<!-- Node13 -->
<g id="Node000013" class="node">
<title>Node13</title>
<g id="a_Node000013"><a xlink:href="TestDependencies_8cpp.html#a73f01e5c160074ed2ad795bd2b1ac7a2" target="_top" xlink:title=" ">
<polygon fill="white" stroke="#666666" points="341.62,-362 300.12,-362 300.12,-342 341.62,-342 341.62,-362"/>
<text xml:space="preserve" text-anchor="middle" x="320.88" y="-348.5" font-family="Helvetica,sans-Serif" font-size="10.00">TEST</text>
</a>
</g>
</g>
<!-- Node1&#45;&gt;Node13 -->
<g id="edge16_Node000001_Node000013" class="edge">
<title>Node1&#45;&gt;Node13</title>
<g id="a_edge16_Node000001_Node000013"><a xlink:title=" ">
<path fill="none" stroke="#63b8ff" d="M420.57,-340.35C392.56,-343.66 361.44,-347.33 341.78,-349.65"/>
<polygon fill="#63b8ff" stroke="#63b8ff" points="420.91,-343.84 430.43,-339.19 420.09,-336.89 420.91,-343.84"/>
</a>
</g>
</g>
<!-- Node14 -->
<g id="Node000014" class="node">
<title>Node14</title>
<g id="a_Node000014"><a xlink:href="TestDependencies_8cpp.html#ac7d0213aa008a4537d2b739ca96728af" target="_top" xlink:title=" ">
<polygon fill="white" stroke="#666666" points="341.62,-324 300.12,-324 300.12,-304 341.62,-304 341.62,-324"/>
<text xml:space="preserve" text-anchor="middle" x="320.88" y="-310.5" font-family="Helvetica,sans-Serif" font-size="10.00">TEST</text>
</a>
</g>
</g>
<!-- Node1&#45;&gt;Node14 -->
<g id="edge17_Node000001_Node000014" class="edge">
<title>Node1&#45;&gt;Node14</title>
<g id="a_edge17_Node000001_Node000014"><a xlink:title=" ">
<path fill="none" stroke="#63b8ff" d="M420.57,-325.65C392.56,-322.34 361.44,-318.67 341.78,-316.35"/>
<polygon fill="#63b8ff" stroke="#63b8ff" points="420.09,-329.11 430.43,-326.81 420.91,-322.16 420.09,-329.11"/>
</a>
</g>
</g>
<!-- Node15 -->
<g id="Node000015" class="node">
<title>Node15</title>
<g id="a_Node000015"><a xlink:href="TestDependencies_8cpp.html#a3eed8aa25f31b84b211af1815819d59e" target="_top" xlink:title=" ">
<polygon fill="white" stroke="#666666" points="341.62,-286 300.12,-286 300.12,-266 341.62,-266 341.62,-286"/>
<text xml:space="preserve" text-anchor="middle" x="320.88" y="-272.5" font-family="Helvetica,sans-Serif" font-size="10.00">TEST</text>
</a>
</g>
</g>
<!-- Node1&#45;&gt;Node15 -->
<g id="edge18_Node000001_Node000015" class="edge">
<title>Node1&#45;&gt;Node15</title>
<g id="a_edge18_Node000001_Node000015"><a xlink:title=" ">
<path fill="none" stroke="#63b8ff" d="M438.31,-311.86C424.89,-305.95 410,-299.82 396,-295 378.04,-288.81 357.01,-283.61 341.95,-280.22"/>
<polygon fill="#63b8ff" stroke="#63b8ff" points="436.78,-315.01 447.34,-315.92 439.65,-308.63 436.78,-315.01"/>
</a>
</g>
</g>
<!-- Node16 -->
<g id="Node000016" class="node">
<title>Node16</title>
<g id="a_Node000016"><a xlink:href="TestDependencies_8cpp.html#ad6e5e8e9ab7331c10f47c0adead790ec" target="_top" xlink:title=" ">
<polygon fill="white" stroke="#666666" points="341.62,-248 300.12,-248 300.12,-228 341.62,-228 341.62,-248"/>
<text xml:space="preserve" text-anchor="middle" x="320.88" y="-234.5" font-family="Helvetica,sans-Serif" font-size="10.00">TEST</text>
</a>
</g>
</g>
<!-- Node1&#45;&gt;Node16 -->
<g id="edge19_Node000001_Node000016" class="edge">
<title>Node1&#45;&gt;Node16</title>
<g id="a_edge19_Node000001_Node000016"><a xlink:title=" ">
<path fill="none" stroke="#63b8ff" d="M460.7,-308.26C444.36,-291.47 420.76,-270.04 396,-257 378.96,-248.02 357.44,-243.12 341.98,-240.56"/>
<polygon fill="#63b8ff" stroke="#63b8ff" points="458.09,-310.59 467.5,-315.44 463.17,-305.78 458.09,-310.59"/>
</a>
</g>
</g>
<!-- Node17 -->
<g id="Node000017" class="node">
<title>Node17</title>
<g id="a_Node000017"><a xlink:href="TestSearch_8cpp.html#aec262fa1aeb82f0a2ec9fca22e3d2374" target="_top" xlink:title=" ">
<polygon fill="white" stroke="#666666" points="341.62,-210 300.12,-210 300.12,-190 341.62,-190 341.62,-210"/>
<text xml:space="preserve" text-anchor="middle" x="320.88" y="-196.5" font-family="Helvetica,sans-Serif" font-size="10.00">TEST</text>
</a>
</g>
</g>
<!-- Node1&#45;&gt;Node17 -->
<g id="edge20_Node000001_Node000017" class="edge">
<title>Node1&#45;&gt;Node17</title>
<g id="a_edge20_Node000001_Node000017"><a xlink:title=" ">
<path fill="none" stroke="#63b8ff" d="M469.62,-306.62C455.09,-280.44 429.36,-241.11 396,-219 379.72,-208.21 357.7,-203.55 341.89,-201.53"/>
<polygon fill="#63b8ff" stroke="#63b8ff" points="466.45,-308.12 474.26,-315.28 472.62,-304.81 466.45,-308.12"/>
</a>
</g>
</g>
<!-- Node18 -->
<g id="Node000018" class="node">
<title>Node18</title>
<g id="a_Node000018"><a xlink:href="TestSearch_8cpp.html#a33500ac4fe5ec5aabbfb97635e04b1a5" target="_top" xlink:title=" ">
<polygon fill="white" stroke="#666666" points="341.62,-172 300.12,-172 300.12,-152 341.62,-152 341.62,-172"/>
<text xml:space="preserve" text-anchor="middle" x="320.88" y="-158.5" font-family="Helvetica,sans-Serif" font-size="10.00">TEST</text>
</a>
</g>
</g>
<!-- Node1&#45;&gt;Node18 -->
<g id="edge21_Node000001_Node000018" class="edge">
<title>Node1&#45;&gt;Node18</title>
<g id="a_edge21_Node000001_Node000018"><a xlink:title=" ">
<path fill="none" stroke="#63b8ff" d="M474.85,-306.25C463.17,-271.96 438.13,-213.11 396,-181 380.36,-169.08 358.03,-164.59 341.97,-162.93"/>
<polygon fill="#63b8ff" stroke="#63b8ff" points="471.41,-307 477.84,-315.42 478.07,-304.83 471.41,-307"/>
</a>
</g>
</g>
<!-- Node19 -->
<g id="Node000019" class="node">
<title>Node19</title>
<g id="a_Node000019"><a xlink:href="TestSearch_8cpp.html#ad770bade109d5488d8747315303c5509" target="_top" xlink:title=" ">
<polygon fill="white" stroke="#666666" points="341.62,-134 300.12,-134 300.12,-114 341.62,-114 341.62,-134"/>
<text xml:space="preserve" text-anchor="middle" x="320.88" y="-120.5" font-family="Helvetica,sans-Serif" font-size="10.00">TEST</text>
</a>
</g>
</g>
<!-- Node1&#45;&gt;Node19 -->
<g id="edge22_Node000001_Node000019" class="edge">
<title>Node1&#45;&gt;Node19</title>
<g id="a_edge22_Node000001_Node000019"><a xlink:title=" ">
<path fill="none" stroke="#63b8ff" d="M478.06,-305.5C469.31,-263.93 446.78,-185.46 396,-143 380.81,-130.3 358.2,-125.95 341.94,-124.53"/>
<polygon fill="#63b8ff" stroke="#63b8ff" points="474.6,-306.04 479.97,-315.17 481.47,-304.69 474.6,-306.04"/>
</a>
</g>
</g>
<!-- Node20 -->
<g id="Node000020" class="node">
<title>Node20</title>
<g id="a_Node000020"><a xlink:href="TestSearch_8cpp.html#a13cb3cdd7534423f0d92329cf16ceaf7" target="_top" xlink:title=" ">
<polygon fill="white" stroke="#666666" points="341.62,-96 300.12,-96 300.12,-76 341.62,-76 341.62,-96"/>
<text xml:space="preserve" text-anchor="middle" x="320.88" y="-82.5" font-family="Helvetica,sans-Serif" font-size="10.00">TEST</text>
</a>
</g>
</g>
<!-- Node1&#45;&gt;Node20 -->
<g id="edge23_Node000001_Node000020" class="edge">
<title>Node1&#45;&gt;Node20</title>
<g id="a_edge23_Node000001_Node000020"><a xlink:title=" ">
<path fill="none" stroke="#63b8ff" d="M480.41,-305.31C474.62,-257.23 455.73,-158.33 396,-105 381.14,-91.73 358.24,-87.49 341.83,-86.25"/>
<polygon fill="#63b8ff" stroke="#63b8ff" points="476.92,-305.58 481.48,-315.15 483.88,-304.83 476.92,-305.58"/>
</a>
</g>
</g>
<!-- Node21 -->
<g id="Node000021" class="node">
<title>Node21</title>
<g id="a_Node000021"><a xlink:href="TestSearch_8cpp.html#a726a0578ed58faaeb0201d967dbce4be" target="_top" xlink:title=" ">
<polygon fill="white" stroke="#666666" points="341.62,-58 300.12,-58 300.12,-38 341.62,-38 341.62,-58"/>
<text xml:space="preserve" text-anchor="middle" x="320.88" y="-44.5" font-family="Helvetica,sans-Serif" font-size="10.00">TEST</text>
</a>
</g>
</g>
<!-- Node1&#45;&gt;Node21 -->
<g id="edge24_Node000001_Node000021" class="edge">
<title>Node1&#45;&gt;Node21</title>
<g id="a_edge24_Node000001_Node000021"><a xlink:title=" ">
<path fill="none" stroke="#63b8ff" d="M482.17,-305.39C479.25,-251.42 464.89,-131.57 396,-67 381.46,-53.37 358.51,-49.19 342,-48.07"/>
<polygon fill="#63b8ff" stroke="#63b8ff" points="478.67,-305.4 482.6,-315.24 485.66,-305.09 478.67,-305.4"/>
</a>
</g>
</g>
<!-- Node22 -->
<g id="Node000022" class="node">
<title>Node22</title>
<g id="a_Node000022"><a xlink:href="TestSearch_8cpp.html#a7120a1bbfb46623c11b708a8ab750d82" target="_top" xlink:title=" ">
<polygon fill="white" stroke="#666666" points="341.62,-20 300.12,-20 300.12,0 341.62,0 341.62,-20"/>
<text xml:space="preserve" text-anchor="middle" x="320.88" y="-6.5" font-family="Helvetica,sans-Serif" font-size="10.00">TEST</text>
</a>
</g>
</g>
<!-- Node1&#45;&gt;Node22 -->
<g id="edge25_Node000001_Node000022" class="edge">
<title>Node1&#45;&gt;Node22</title>
<g id="a_edge25_Node000001_Node000022"><a xlink:title=" ">
<path fill="none" stroke="#63b8ff" d="M483.51,-305.28C483.3,-245.75 474.05,-104.94 396,-29 381.62,-15.01 358.42,-10.91 341.8,-9.91"/>
<polygon fill="#63b8ff" stroke="#63b8ff" points="480.02,-305.16 483.45,-315.18 487.02,-305.2 480.02,-305.16"/>
</a>
</g>
</g>
<!-- Node4 -->
<g id="Node000004" class="node">
<title>Node4</title>
<g id="a_Node000004"><a xlink:href="BenchmarkFS_8cpp.html#abd2bf074780e72b3c554bb5eb58ff96a" target="_top" xlink:title=" ">
<polygon fill="white" stroke="#666666" points="209.75,-594 73,-594 73,-574 209.75,-574 209.75,-594"/>
<text xml:space="preserve" text-anchor="middle" x="141.38" y="-580.5" font-family="Helvetica,sans-Serif" font-size="10.00">RunFilesystemBenchmarks</text>
</a>
</g>
</g>
<!-- Node3&#45;&gt;Node4 -->
<g id="edge3_Node000003_Node000004" class="edge">
<title>Node3&#45;&gt;Node4</title>
<g id="a_edge3_Node000003_Node000004"><a xlink:title=" ">
<path fill="none" stroke="#63b8ff" d="M256.4,-664.04C252.75,-662.45 249.17,-660.77 245.75,-659 209.69,-640.39 172.36,-610.06 154,-594.28"/>
<polygon fill="#63b8ff" stroke="#63b8ff" points="254.84,-667.19 265.42,-667.73 257.49,-660.71 254.84,-667.19"/>
</a>
</g>
</g>
<!-- Node5 -->
<g id="Node000005" class="node">
<title>Node5</title>
<g id="a_Node000005"><a xlink:href="BenchmarkRunner_8cpp.html#a0ddf1224851353fc92bfbff6f499fa97" target="_top" xlink:title=" ">
<polygon fill="white" stroke="#666666" points="37,-594 0,-594 0,-574 37,-574 37,-594"/>
<text xml:space="preserve" text-anchor="middle" x="18.5" y="-580.5" font-family="Helvetica,sans-Serif" font-size="10.00">main</text>
</a>
</g>
</g>
<!-- Node4&#45;&gt;Node5 -->
<g id="edge4_Node000004_Node000005" class="edge">
<title>Node4&#45;&gt;Node5</title>
<g id="a_edge4_Node000004_Node000005"><a xlink:title=" ">
<path fill="none" stroke="#63b8ff" d="M61.01,-584C52.14,-584 43.86,-584 37.08,-584"/>
<polygon fill="#63b8ff" stroke="#63b8ff" points="61,-587.5 71,-584 61,-580.5 61,-587.5"/>
</a>
</g>
</g>
<!-- Node6&#45;&gt;Node4 -->
<g id="edge6_Node000006_Node000004" class="edge">
<title>Node6&#45;&gt;Node4</title>
<g id="a_edge6_Node000006_Node000004"><a xlink:title=" ">
<path fill="none" stroke="#63b8ff" d="M256.28,-616.09C230.52,-608.83 201.68,-600.71 179.47,-594.45"/>
<polygon fill="#63b8ff" stroke="#63b8ff" points="255.07,-619.38 265.64,-618.72 256.97,-612.64 255.07,-619.38"/>
</a>
</g>
</g>
<!-- Node7&#45;&gt;Node4 -->
<g id="edge8_Node000007_Node000004" class="edge">
<title>Node7&#45;&gt;Node4</title>
<g id="a_edge8_Node000007_Node000004"><a xlink:title=" ">
<path fill="none" stroke="#63b8ff" d="M255.94,-584C241.05,-584 225.15,-584 210.1,-584"/>
<polygon fill="#63b8ff" stroke="#63b8ff" points="255.59,-587.5 265.59,-584 255.59,-580.5 255.59,-587.5"/>
</a>
</g>
</g>
<!-- Node8&#45;&gt;Node4 -->
<g id="edge10_Node000008_Node000004" class="edge">
<title>Node8&#45;&gt;Node4</title>
<g id="a_edge10_Node000008_Node000004"><a xlink:title=" ">
<path fill="none" stroke="#63b8ff" d="M256.28,-551.91C230.52,-559.17 201.68,-567.29 179.47,-573.55"/>
<polygon fill="#63b8ff" stroke="#63b8ff" points="256.97,-555.36 265.64,-549.28 255.07,-548.62 256.97,-555.36"/>
</a>
</g>
</g>
<!-- Node9&#45;&gt;Node4 -->
<g id="edge12_Node000009_Node000004" class="edge">
<title>Node9&#45;&gt;Node4</title>
<g id="a_edge12_Node000009_Node000004"><a xlink:title=" ">
<path fill="none" stroke="#63b8ff" d="M256.4,-503.96C252.75,-505.55 249.17,-507.23 245.75,-509 209.69,-527.61 172.36,-557.94 154,-573.72"/>
<polygon fill="#63b8ff" stroke="#63b8ff" points="257.49,-507.29 265.42,-500.27 254.84,-500.81 257.49,-507.29"/>
</a>
</g>
</g>
<!-- Node11 -->
<g id="Node000011" class="node">
<title>Node11</title>
<g id="a_Node000011"><a xlink:href="classExampleApp.html#a51a63c4107ac16f6c82cda225b2dccea" target="_top" xlink:title=" ">
<polygon fill="white" stroke="#666666" points="202.25,-444 80.5,-444 80.5,-424 202.25,-424 202.25,-444"/>
<text xml:space="preserve" text-anchor="middle" x="141.38" y="-430.5" font-family="Helvetica,sans-Serif" font-size="10.00">ExampleApp::OnRender</text>
</a>
</g>
</g>
<!-- Node10&#45;&gt;Node11 -->
<g id="edge14_Node000010_Node000011" class="edge">
<title>Node10&#45;&gt;Node11</title>
<g id="a_edge14_Node000010_Node000011"><a xlink:title=" ">
<path fill="none" stroke="#63b8ff" d="M233.95,-434C223.38,-434 212.76,-434 202.69,-434"/>
<polygon fill="#63b8ff" stroke="#63b8ff" points="233.86,-437.5 243.86,-434 233.86,-430.5 233.86,-437.5"/>
</a>
</g>
</g>
</g>
</svg>
