<?xml version="1.0" encoding="UTF-8" standalone="no"?>
<!DOCTYPE svg PUBLIC "-//W3C//DTD SVG 1.1//EN"
 "http://www.w3.org/Graphics/SVG/1.1/DTD/svg11.dtd">
<!-- Generated by graphviz version 14.0.2 (20251019.1705)
 -->
<!-- Title: LGE::Thumbs::ProcessPendingBuilds Pages: 1 -->
<svg width="1459pt" height="658pt"
 viewBox="0.00 0.00 1459.00 658.00" xmlns="http://www.w3.org/2000/svg" xmlns:xlink="http://www.w3.org/1999/xlink">
<g id="graph0" class="graph" transform="scale(1 1) rotate(0) translate(4 653.52)">
<title>LGE::Thumbs::ProcessPendingBuilds</title>
<!-- Node1 -->
<g id="Node000001" class="node">
<title>Node1</title>
<g id="a_Node000001"><a xlink:title=" ">
<polygon fill="#999999" stroke="#666666" points="154,-259.38 0,-259.38 0,-227.38 154,-227.38 154,-259.38"/>
<text xml:space="preserve" text-anchor="start" x="8" y="-245.88" font-family="Helvetica,sans-Serif" font-size="10.00">LGE::Thumbs::ProcessPending</text>
<text xml:space="preserve" text-anchor="middle" x="77" y="-233.88" font-family="Helvetica,sans-Serif" font-size="10.00">Builds</text>
</a>
</g>
</g>
<!-- Node2 -->
<g id="Node000002" class="node">
<title>Node2</title>
<g id="a_Node000002"><a xlink:href="namespaceLGE_1_1Thumbs.html#a20e7c9fbfb16b84f63099872c64f241d" target="_top" xlink:title=" ">
<polygon fill="white" stroke="#666666" points="294.5,-462.38 190,-462.38 190,-442.38 294.5,-442.38 294.5,-462.38"/>
<text xml:space="preserve" text-anchor="middle" x="242.25" y="-448.88" font-family="Helvetica,sans-Serif" font-size="10.00">LGE::Thumbs::Build</text>
</a>
</g>
</g>
<!-- Node1&#45;&gt;Node2 -->
<g id="edge1_Node000001_Node000002" class="edge">
<title>Node1&#45;&gt;Node2</title>
<g id="a_edge1_Node000001_Node000002"><a xlink:title=" ">
<path fill="none" stroke="#63b8ff" d="M90.81,-259.78C120.67,-298 194.76,-392.85 226.47,-433.45"/>
<polygon fill="#63b8ff" stroke="#63b8ff" points="223.55,-435.4 232.47,-441.13 229.07,-431.09 223.55,-435.4"/>
</a>
</g>
</g>
<!-- Node25 -->
<g id="Node000025" class="node">
<title>Node25</title>
<g id="a_Node000025"><a xlink:href="namespaceLGE_1_1ThreadPool.html#a021546e8addfc60c039b0019c00a8b7a" target="_top" xlink:title=" ">
<polygon fill="white" stroke="#666666" points="1012.5,-44.38 884.75,-44.38 884.75,-24.38 1012.5,-24.38 1012.5,-44.38"/>
<text xml:space="preserve" text-anchor="middle" x="948.62" y="-30.88" font-family="Helvetica,sans-Serif" font-size="10.00">LGE::ThreadPool::Submit</text>
</a>
</g>
</g>
<!-- Node1&#45;&gt;Node25 -->
<g id="edge44_Node000001_Node000025" class="edge">
<title>Node1&#45;&gt;Node25</title>
<g id="a_edge44_Node000001_Node000025"><a xlink:title=" ">
<path fill="none" stroke="#63b8ff" d="M90.27,-226.98C128.68,-177.71 252.3,-34.38 390.75,-34.38 390.75,-34.38 390.75,-34.38 570,-34.38 675.23,-34.38 796.96,-34.38 873.12,-34.38"/>
<polygon fill="#63b8ff" stroke="#63b8ff" points="872.97,-37.88 882.97,-34.38 872.97,-30.88 872.97,-37.88"/>
</a>
</g>
</g>
<!-- Node3 -->
<g id="Node000003" class="node">
<title>Node3</title>
<g id="a_Node000003"><a xlink:href="namespaceLGE_1_1LxFile.html#ab62abe452536badcfc9ab15647d6df2b" target="_top" xlink:title=" ">
<polygon fill="white" stroke="#666666" points="815.38,-614.38 718.38,-614.38 718.38,-594.38 815.38,-594.38 815.38,-614.38"/>
<text xml:space="preserve" text-anchor="middle" x="766.88" y="-600.88" font-family="Helvetica,sans-Serif" font-size="10.00">LGE::LxFile::Copy</text>
</a>
</g>
</g>
<!-- Node2&#45;&gt;Node3 -->
<g id="edge2_Node000002_Node000003" class="edge">
<title>Node2&#45;&gt;Node3</title>
<g id="a_edge2_Node000002_Node000003"><a xlink:title=" ">
<path fill="none" stroke="#63b8ff" d="M246.4,-462.78C254.94,-488.94 281.28,-557.4 330.5,-585.38 393.1,-620.96 603.34,-614.13 707.04,-608.29"/>
<polygon fill="#63b8ff" stroke="#63b8ff" points="706.94,-611.8 716.72,-607.73 706.54,-604.81 706.94,-611.8"/>
</a>
</g>
</g>
<!-- Node4 -->
<g id="Node000004" class="node">
<title>Node4</title>
<g id="a_Node000004"><a xlink:href="classLGE_1_1Log.html#a53f3f4b8797ffd18145739c9e66d690a" target="_top" xlink:title=" ">
<polygon fill="white" stroke="#666666" points="1451.25,-367.38 1367,-367.38 1367,-347.38 1451.25,-347.38 1451.25,-367.38"/>
<text xml:space="preserve" text-anchor="middle" x="1409.12" y="-353.88" font-family="Helvetica,sans-Serif" font-size="10.00">LGE::Log::Error</text>
</a>
</g>
</g>
<!-- Node2&#45;&gt;Node4 -->
<g id="edge12_Node000002_Node000004" class="edge">
<title>Node2&#45;&gt;Node4</title>
<g id="a_edge12_Node000002_Node000004"><a xlink:title=" ">
<path fill="none" stroke="#63b8ff" d="M245.5,-462.73C252.39,-491.77 276.16,-574.25 330.5,-611.38 418.4,-671.43 461.55,-642.38 568,-642.38 568,-642.38 568,-642.38 1111.5,-642.38 1215.8,-642.38 1257.13,-633.01 1331,-559.38 1382.21,-508.33 1400.02,-419.74 1405.7,-379.01"/>
<polygon fill="#63b8ff" stroke="#63b8ff" points="1409.15,-379.64 1406.93,-369.28 1402.2,-378.76 1409.15,-379.64"/>
</a>
</g>
</g>
<!-- Node8 -->
<g id="Node000008" class="node">
<title>Node8</title>
<g id="a_Node000008"><a xlink:href="namespaceLGE_1_1LxFile.html#a7a3f0b3462a34877039001eb0aaac788" target="_top" xlink:title=" ">
<polygon fill="white" stroke="#666666" points="838.25,-538.38 695.5,-538.38 695.5,-518.38 838.25,-518.38 838.25,-538.38"/>
<text xml:space="preserve" text-anchor="middle" x="766.88" y="-524.88" font-family="Helvetica,sans-Serif" font-size="10.00">LGE::LxFile::CreateDirectory</text>
</a>
</g>
</g>
<!-- Node2&#45;&gt;Node8 -->
<g id="edge9_Node000002_Node000008" class="edge">
<title>Node2&#45;&gt;Node8</title>
<g id="a_edge9_Node000002_Node000008"><a xlink:title=" ">
<path fill="none" stroke="#63b8ff" d="M254.6,-462.74C270.31,-476.34 300.18,-499.63 330.5,-509.38 448.84,-547.43 594.61,-544.47 683.86,-537.46"/>
<polygon fill="#63b8ff" stroke="#63b8ff" points="684.07,-540.95 693.75,-536.64 683.5,-533.98 684.07,-540.95"/>
</a>
</g>
</g>
<!-- Node9 -->
<g id="Node000009" class="node">
<title>Node9</title>
<g id="a_Node000009"><a xlink:href="namespaceLGE_1_1LxFile.html#a11e62876b312a11b881b484bb3a5ee71" target="_top" xlink:title=" ">
<polygon fill="white" stroke="#666666" points="619.75,-348.38 518.25,-348.38 518.25,-328.38 619.75,-328.38 619.75,-348.38"/>
<text xml:space="preserve" text-anchor="middle" x="569" y="-334.88" font-family="Helvetica,sans-Serif" font-size="10.00">LGE::LxFile::Exists</text>
</a>
</g>
</g>
<!-- Node2&#45;&gt;Node9 -->
<g id="edge13_Node000002_Node000009" class="edge">
<title>Node2&#45;&gt;Node9</title>
<g id="a_edge13_Node000002_Node000009"><a xlink:title=" ">
<path fill="none" stroke="#63b8ff" d="M251.36,-441.96C265.41,-424.72 296.12,-390.56 330.5,-374.38 386.33,-348.09 456.97,-340.17 506.65,-338.16"/>
<polygon fill="#63b8ff" stroke="#63b8ff" points="506.46,-341.67 516.34,-337.84 506.23,-334.67 506.46,-341.67"/>
</a>
</g>
</g>
<!-- Node10 -->
<g id="Node000010" class="node">
<title>Node10</title>
<g id="a_Node000010"><a xlink:href="namespaceLGE_1_1LxPath.html#aefae4d45f84718077f5218f64d2f074c" target="_top" xlink:title=" ">
<polygon fill="white" stroke="#666666" points="1171.75,-424.38 1049.25,-424.38 1049.25,-404.38 1171.75,-404.38 1171.75,-424.38"/>
<text xml:space="preserve" text-anchor="middle" x="1110.5" y="-410.88" font-family="Helvetica,sans-Serif" font-size="10.00">LGE::LxPath::GetParent</text>
</a>
</g>
</g>
<!-- Node2&#45;&gt;Node10 -->
<g id="edge14_Node000002_Node000010" class="edge">
<title>Node2&#45;&gt;Node10</title>
<g id="a_edge14_Node000002_Node000010"><a xlink:title=" ">
<path fill="none" stroke="#63b8ff" d="M295,-452.38C359.08,-452.38 471.59,-452.38 568,-452.38 568,-452.38 568,-452.38 767.88,-452.38 862.56,-452.38 971.11,-437.78 1039.96,-426.68"/>
<polygon fill="#63b8ff" stroke="#63b8ff" points="1040.28,-430.17 1049.59,-425.1 1039.16,-423.26 1040.28,-430.17"/>
</a>
</g>
</g>
<!-- Node11 -->
<g id="Node000011" class="node">
<title>Node11</title>
<g id="a_Node000011"><a xlink:href="classLGE_1_1Log.html#ab0265ee050b8873a2fd31fbdb696ced0" target="_top" xlink:title=" ">
<polygon fill="white" stroke="#666666" points="806.75,-424.38 727,-424.38 727,-404.38 806.75,-404.38 806.75,-424.38"/>
<text xml:space="preserve" text-anchor="middle" x="766.88" y="-410.88" font-family="Helvetica,sans-Serif" font-size="10.00">LGE::Log::Info</text>
</a>
</g>
</g>
<!-- Node2&#45;&gt;Node11 -->
<g id="edge16_Node000002_Node000011" class="edge">
<title>Node2&#45;&gt;Node11</title>
<g id="a_edge16_Node000002_Node000011"><a xlink:title=" ">
<path fill="none" stroke="#63b8ff" d="M294.8,-443.19C306.51,-441.36 318.91,-439.62 330.5,-438.38 469.31,-423.45 634.08,-417.58 715.36,-415.46"/>
<polygon fill="#63b8ff" stroke="#63b8ff" points="715.32,-418.96 725.22,-415.21 715.14,-411.96 715.32,-418.96"/>
</a>
</g>
</g>
<!-- Node12 -->
<g id="Node000012" class="node">
<title>Node12</title>
<g id="a_Node000012"><a xlink:href="namespaceLGE_1_1MetaDB.html#a9f494f7c23ef0715fa5881a46b93c940" target="_top" xlink:title=" ">
<polygon fill="white" stroke="#666666" points="444,-272.38 339.5,-272.38 339.5,-252.38 444,-252.38 444,-272.38"/>
<text xml:space="preserve" text-anchor="middle" x="391.75" y="-258.88" font-family="Helvetica,sans-Serif" font-size="10.00">LGE::MetaDB::Load</text>
</a>
</g>
</g>
<!-- Node2&#45;&gt;Node12 -->
<g id="edge17_Node000002_Node000012" class="edge">
<title>Node2&#45;&gt;Node12</title>
<g id="a_edge17_Node000002_Node000012"><a xlink:title=" ">
<path fill="none" stroke="#63b8ff" d="M249.47,-441.99C263.05,-419.64 296.82,-365.62 330.5,-324.38 343.18,-308.85 359.03,-292.64 371.29,-280.7"/>
<polygon fill="#63b8ff" stroke="#63b8ff" points="373.61,-283.32 378.4,-273.87 368.76,-278.27 373.61,-283.32"/>
</a>
</g>
</g>
<!-- Node21 -->
<g id="Node000021" class="node">
<title>Node21</title>
<g id="a_Node000021"><a xlink:href="classLGE_1_1Log.html#aa6f98018af29c23dd7f574d3df5dda5e" target="_top" xlink:title=" ">
<polygon fill="white" stroke="#666666" points="611.88,-386.38 526.12,-386.38 526.12,-366.38 611.88,-366.38 611.88,-386.38"/>
<text xml:space="preserve" text-anchor="middle" x="569" y="-372.88" font-family="Helvetica,sans-Serif" font-size="10.00">LGE::Log::Warn</text>
</a>
</g>
</g>
<!-- Node2&#45;&gt;Node21 -->
<g id="edge43_Node000002_Node000021" class="edge">
<title>Node2&#45;&gt;Node21</title>
<g id="a_edge43_Node000002_Node000021"><a xlink:title=" ">
<path fill="none" stroke="#63b8ff" d="M256.54,-441.9C272.9,-429.63 302.04,-409.78 330.5,-400.38 391.34,-380.28 465.32,-375.7 514.37,-375.23"/>
<polygon fill="#63b8ff" stroke="#63b8ff" points="514.17,-378.73 524.16,-375.19 514.15,-371.73 514.17,-378.73"/>
</a>
</g>
</g>
<!-- Node22 -->
<g id="Node000022" class="node">
<title>Node22</title>
<g id="a_Node000022"><a xlink:href="namespaceLGE_1_1Thumbs.html#af6d6795b0cb72f1c01c05f781bd1f581" target="_top" xlink:title=" ">
<polygon fill="white" stroke="#666666" points="443.25,-500.38 340.25,-500.38 340.25,-480.38 443.25,-480.38 443.25,-500.38"/>
<text xml:space="preserve" text-anchor="middle" x="391.75" y="-486.88" font-family="Helvetica,sans-Serif" font-size="10.00">LGE::Thumbs::Path</text>
</a>
</g>
</g>
<!-- Node2&#45;&gt;Node22 -->
<g id="edge39_Node000002_Node000022" class="edge">
<title>Node2&#45;&gt;Node22</title>
<g id="a_edge39_Node000002_Node000022"><a xlink:title=" ">
<path fill="none" stroke="#63b8ff" d="M283.95,-462.86C301.03,-467.26 321.11,-472.43 339.21,-477.1"/>
<polygon fill="#63b8ff" stroke="#63b8ff" points="338.16,-480.44 348.72,-479.55 339.91,-473.66 338.16,-480.44"/>
</a>
</g>
</g>
<!-- Node24 -->
<g id="Node000024" class="node">
<title>Node24</title>
<g id="a_Node000024"><a xlink:href="namespaceLGE_1_1EditorBus.html#afb16024ff4209b3205a89d71e61cadca" target="_top" xlink:title=" ">
<polygon fill="white" stroke="#666666" points="453,-576.38 330.5,-576.38 330.5,-556.38 453,-556.38 453,-576.38"/>
<text xml:space="preserve" text-anchor="middle" x="391.75" y="-562.88" font-family="Helvetica,sans-Serif" font-size="10.00">LGE::EditorBus::Publish</text>
</a>
</g>
</g>
<!-- Node2&#45;&gt;Node24 -->
<g id="edge42_Node000002_Node000024" class="edge">
<title>Node2&#45;&gt;Node24</title>
<g id="a_edge42_Node000002_Node000024"><a xlink:title=" ">
<path fill="none" stroke="#63b8ff" d="M250.81,-462.65C264.72,-480.94 296.14,-519.37 330.5,-542.38 335.59,-545.78 341.23,-548.82 346.97,-551.5"/>
<polygon fill="#63b8ff" stroke="#63b8ff" points="345.33,-554.61 355.9,-555.34 348.09,-548.18 345.33,-554.61"/>
</a>
</g>
</g>
<!-- Node3&#45;&gt;Node4 -->
<g id="edge3_Node000003_Node000004" class="edge">
<title>Node3&#45;&gt;Node4</title>
<g id="a_edge3_Node000003_Node000004"><a xlink:title=" ">
<path fill="none" stroke="#63b8ff" d="M815.84,-611.36C921.89,-623.97 1178.94,-638.61 1331,-512.38 1373.64,-476.98 1394.86,-412.18 1403.4,-378.68"/>
<polygon fill="#63b8ff" stroke="#63b8ff" points="1406.71,-379.88 1405.64,-369.34 1399.91,-378.25 1406.71,-379.88"/>
</a>
</g>
</g>
<!-- Node5 -->
<g id="Node000005" class="node">
<title>Node5</title>
<g id="a_Node000005"><a xlink:href="namespaceLGE_1_1VFS.html#abb5d35abfe80efe2f7a07394ad5b706a" target="_top" xlink:title=" ">
<polygon fill="white" stroke="#666666" points="1008,-538.38 889.25,-538.38 889.25,-518.38 1008,-518.38 1008,-538.38"/>
<text xml:space="preserve" text-anchor="middle" x="948.62" y="-524.88" font-family="Helvetica,sans-Serif" font-size="10.00">LGE::VFS::IsReadOnly</text>
</a>
</g>
</g>
<!-- Node3&#45;&gt;Node5 -->
<g id="edge4_Node000003_Node000005" class="edge">
<title>Node3&#45;&gt;Node5</title>
<g id="a_edge4_Node000003_Node000005"><a xlink:title=" ">
<path fill="none" stroke="#63b8ff" d="M792.49,-593.97C823.6,-580.82 877.34,-558.09 912.68,-543.15"/>
<polygon fill="#63b8ff" stroke="#63b8ff" points="913.78,-546.49 921.62,-539.37 911.05,-540.04 913.78,-546.49"/>
</a>
</g>
</g>
<!-- Node6 -->
<g id="Node000006" class="node">
<title>Node6</title>
<g id="a_Node000006"><a xlink:href="namespaceLGE_1_1LxPath.html#ab664986e94ce09aa029f9eb2fcf50133" target="_top" xlink:title=" ">
<polygon fill="white" stroke="#666666" points="1172.5,-500.38 1048.5,-500.38 1048.5,-480.38 1172.5,-480.38 1172.5,-500.38"/>
<text xml:space="preserve" text-anchor="middle" x="1110.5" y="-486.88" font-family="Helvetica,sans-Serif" font-size="10.00">LGE::LxPath::IsSubPath</text>
</a>
</g>
</g>
<!-- Node5&#45;&gt;Node6 -->
<g id="edge5_Node000005_Node000006" class="edge">
<title>Node5&#45;&gt;Node6</title>
<g id="a_edge5_Node000005_Node000006"><a xlink:title=" ">
<path fill="none" stroke="#63b8ff" d="M993.73,-517.89C1012.52,-513.43 1034.63,-508.17 1054.47,-503.46"/>
<polygon fill="#63b8ff" stroke="#63b8ff" points="1055.14,-506.89 1064.06,-501.18 1053.52,-500.08 1055.14,-506.89"/>
</a>
</g>
</g>
<!-- Node7 -->
<g id="Node000007" class="node">
<title>Node7</title>
<g id="a_Node000007"><a xlink:href="namespaceLGE_1_1LxPath.html#a314a60ce690c90f4ee0b4e64c0199408" target="_top" xlink:title=" ">
<polygon fill="white" stroke="#666666" points="1331,-462.38 1208.5,-462.38 1208.5,-442.38 1331,-442.38 1331,-462.38"/>
<text xml:space="preserve" text-anchor="middle" x="1269.75" y="-448.88" font-family="Helvetica,sans-Serif" font-size="10.00">LGE::LxPath::Normalize</text>
</a>
</g>
</g>
<!-- Node5&#45;&gt;Node7 -->
<g id="edge8_Node000005_Node000007" class="edge">
<title>Node5&#45;&gt;Node7</title>
<g id="a_edge8_Node000005_Node000007"><a xlink:title=" ">
<path fill="none" stroke="#63b8ff" d="M1008.27,-530.44C1054.05,-530.39 1118.69,-526.61 1172.5,-509.38 1199.94,-500.59 1227.89,-482.85 1246.56,-469.48"/>
<polygon fill="#63b8ff" stroke="#63b8ff" points="1248.47,-472.42 1254.44,-463.67 1244.32,-466.78 1248.47,-472.42"/>
</a>
</g>
</g>
<!-- Node6&#45;&gt;Node7 -->
<g id="edge6_Node000006_Node000007" class="edge">
<title>Node6&#45;&gt;Node7</title>
<g id="a_edge6_Node000006_Node000007"><a xlink:title=" ">
<path fill="none" stroke="#63b8ff" d="M1154.89,-479.89C1173.28,-475.45 1194.91,-470.22 1214.35,-465.52"/>
<polygon fill="#63b8ff" stroke="#63b8ff" points="1215.14,-468.93 1224.03,-463.18 1213.49,-462.13 1215.14,-468.93"/>
</a>
</g>
</g>
<!-- Node7&#45;&gt;Node4 -->
<g id="edge7_Node000007_Node000004" class="edge">
<title>Node7&#45;&gt;Node4</title>
<g id="a_edge7_Node000007_Node000004"><a xlink:title=" ">
<path fill="none" stroke="#63b8ff" d="M1285.71,-442.03C1309.35,-425.68 1355.56,-393.73 1383.95,-374.1"/>
<polygon fill="#63b8ff" stroke="#63b8ff" points="1385.7,-377.14 1391.94,-368.57 1381.72,-371.38 1385.7,-377.14"/>
</a>
</g>
</g>
<!-- Node8&#45;&gt;Node4 -->
<g id="edge10_Node000008_Node000004" class="edge">
<title>Node8&#45;&gt;Node4</title>
<g id="a_edge10_Node000008_Node000004"><a xlink:title=" ">
<path fill="none" stroke="#63b8ff" d="M820.89,-538.85C840.83,-542.3 863.75,-545.68 884.75,-547.38 1012.37,-557.68 1047.83,-562.58 1172.5,-533.38 1246.15,-516.13 1271.92,-518.61 1331,-471.38 1363.05,-445.76 1386.8,-403.22 1398.97,-377.98"/>
<polygon fill="#63b8ff" stroke="#63b8ff" points="1402.06,-379.65 1403.1,-369.1 1395.71,-376.7 1402.06,-379.65"/>
</a>
</g>
</g>
<!-- Node8&#45;&gt;Node5 -->
<g id="edge11_Node000008_Node000005" class="edge">
<title>Node8&#45;&gt;Node5</title>
<g id="a_edge11_Node000008_Node000005"><a xlink:title=" ">
<path fill="none" stroke="#63b8ff" d="M838.66,-528.38C851.37,-528.38 864.62,-528.38 877.32,-528.38"/>
<polygon fill="#63b8ff" stroke="#63b8ff" points="877.28,-531.88 887.28,-528.38 877.28,-524.88 877.28,-531.88"/>
</a>
</g>
</g>
<!-- Node10&#45;&gt;Node7 -->
<g id="edge15_Node000010_Node000007" class="edge">
<title>Node10&#45;&gt;Node7</title>
<g id="a_edge15_Node000010_Node000007"><a xlink:title=" ">
<path fill="none" stroke="#63b8ff" d="M1154.89,-424.86C1173.28,-429.3 1194.91,-434.53 1214.35,-439.23"/>
<polygon fill="#63b8ff" stroke="#63b8ff" points="1213.49,-442.62 1224.03,-441.57 1215.14,-435.82 1213.49,-442.62"/>
</a>
</g>
</g>
<!-- Node12&#45;&gt;Node4 -->
<g id="edge18_Node000012_Node000004" class="edge">
<title>Node12&#45;&gt;Node4</title>
<g id="a_edge18_Node000012_Node000004"><a xlink:title=" ">
<path fill="none" stroke="#63b8ff" d="M399.22,-251.94C412.91,-230.82 447.04,-183.11 489,-160.38 598.95,-100.81 640.83,-110.38 765.88,-110.38 765.88,-110.38 765.88,-110.38 1111.5,-110.38 1217.45,-110.38 1253.74,-130.88 1331,-203.38 1371.02,-240.93 1393.3,-303.8 1402.71,-336.38"/>
<polygon fill="#63b8ff" stroke="#63b8ff" points="1399.27,-337.09 1405.29,-345.81 1406.02,-335.24 1399.27,-337.09"/>
</a>
</g>
</g>
<!-- Node12&#45;&gt;Node9 -->
<g id="edge19_Node000012_Node000009" class="edge">
<title>Node12&#45;&gt;Node9</title>
<g id="a_edge19_Node000012_Node000009"><a xlink:title=" ">
<path fill="none" stroke="#63b8ff" d="M407.04,-272.7C425.24,-285.41 458.05,-306.82 489,-319.38 494.72,-321.7 500.79,-323.78 506.93,-325.64"/>
<polygon fill="#63b8ff" stroke="#63b8ff" points="505.95,-329 516.52,-328.33 507.84,-322.26 505.95,-329"/>
</a>
</g>
</g>
<!-- Node13 -->
<g id="Node000013" class="node">
<title>Node13</title>
<g id="a_Node000013"><a xlink:href="namespaceLGE_1_1MetaDB.html#ac399a4083a7e189046618cbf3142dbbe" target="_top" xlink:title=" ">
<polygon fill="white" stroke="#666666" points="836.75,-272.38 697,-272.38 697,-252.38 836.75,-252.38 836.75,-272.38"/>
<text xml:space="preserve" text-anchor="middle" x="766.88" y="-258.88" font-family="Helvetica,sans-Serif" font-size="10.00">LGE::MetaDB::MetaPathFor</text>
</a>
</g>
</g>
<!-- Node12&#45;&gt;Node13 -->
<g id="edge20_Node000012_Node000013" class="edge">
<title>Node12&#45;&gt;Node13</title>
<g id="a_edge20_Node000012_Node000013"><a xlink:title=" ">
<path fill="none" stroke="#63b8ff" d="M444.24,-262.38C506.48,-262.38 611.96,-262.38 685.07,-262.38"/>
<polygon fill="#63b8ff" stroke="#63b8ff" points="685.01,-265.88 695.01,-262.38 685.01,-258.88 685.01,-265.88"/>
</a>
</g>
</g>
<!-- Node14 -->
<g id="Node000014" class="node">
<title>Node14</title>
<g id="a_Node000014"><a xlink:href="namespaceLGE_1_1Migration.html#a47ee5b06f8c57da1952156f69f9582b7" target="_top" xlink:title=" ">
<polygon fill="white" stroke="#666666" points="649,-234.38 489,-234.38 489,-214.38 649,-214.38 649,-234.38"/>
<text xml:space="preserve" text-anchor="middle" x="569" y="-220.88" font-family="Helvetica,sans-Serif" font-size="10.00">LGE::Migration::MigrateMetadata</text>
</a>
</g>
</g>
<!-- Node12&#45;&gt;Node14 -->
<g id="edge21_Node000012_Node000014" class="edge">
<title>Node12&#45;&gt;Node14</title>
<g id="a_edge21_Node000012_Node000014"><a xlink:title=" ">
<path fill="none" stroke="#63b8ff" d="M441.1,-251.89C461.98,-247.36 486.61,-242.02 508.59,-237.26"/>
<polygon fill="#63b8ff" stroke="#63b8ff" points="509.3,-240.69 518.33,-235.15 507.81,-233.85 509.3,-240.69"/>
</a>
</g>
</g>
<!-- Node15 -->
<g id="Node000015" class="node">
<title>Node15</title>
<g id="a_Node000015"><a xlink:href="namespaceLGE_1_1Migration.html#ae8f608f31e72e26c06b1eb0f62dedfb1" target="_top" xlink:title=" ">
<polygon fill="white" stroke="#666666" points="844.62,-158.38 689.12,-158.38 689.12,-138.38 844.62,-138.38 844.62,-158.38"/>
<text xml:space="preserve" text-anchor="middle" x="766.88" y="-144.88" font-family="Helvetica,sans-Serif" font-size="10.00">LGE::Migration::NeedsMigration</text>
</a>
</g>
</g>
<!-- Node12&#45;&gt;Node15 -->
<g id="edge26_Node000012_Node000015" class="edge">
<title>Node12&#45;&gt;Node15</title>
<g id="a_edge26_Node000012_Node000015"><a xlink:title=" ">
<path fill="none" stroke="#63b8ff" d="M406.97,-251.88C425.1,-239.01 457.84,-217.42 489,-205.38 549.81,-181.87 622.07,-167.41 677.52,-158.94"/>
<polygon fill="#63b8ff" stroke="#63b8ff" points="677.86,-162.43 687.23,-157.49 676.83,-155.5 677.86,-162.43"/>
</a>
</g>
</g>
<!-- Node17 -->
<g id="Node000017" class="node">
<title>Node17</title>
<g id="a_Node000017"><a xlink:href="namespaceLGE_1_1LxFile.html#ac0a61f0e1f49fdcf553f007750c1ba37" target="_top" xlink:title=" ">
<polygon fill="white" stroke="#666666" points="1323.88,-82.38 1215.62,-82.38 1215.62,-62.38 1323.88,-62.38 1323.88,-82.38"/>
<text xml:space="preserve" text-anchor="middle" x="1269.75" y="-68.88" font-family="Helvetica,sans-Serif" font-size="10.00">LGE::LxFile::ReadAll</text>
</a>
</g>
</g>
<!-- Node12&#45;&gt;Node17 -->
<g id="edge27_Node000012_Node000017" class="edge">
<title>Node12&#45;&gt;Node17</title>
<g id="a_edge27_Node000012_Node000017"><a xlink:title=" ">
<path fill="none" stroke="#63b8ff" d="M395.13,-252.29C402.75,-222.4 429.67,-134.07 489,-96.38 593.26,-30.15 642.36,-72.38 765.88,-72.38 765.88,-72.38 765.88,-72.38 949.62,-72.38 1037.82,-72.38 1139.73,-72.38 1204.2,-72.38"/>
<polygon fill="#63b8ff" stroke="#63b8ff" points="1203.88,-75.88 1213.88,-72.38 1203.88,-68.88 1203.88,-75.88"/>
</a>
</g>
</g>
<!-- Node18 -->
<g id="Node000018" class="node">
<title>Node18</title>
<g id="a_Node000018"><a xlink:href="namespaceLGE_1_1MetaDB.html#a93501266bbc2bb77874f90247fcc90ba" target="_top" xlink:title=" ">
<polygon fill="white" stroke="#666666" points="622,-310.38 516,-310.38 516,-290.38 622,-290.38 622,-310.38"/>
<text xml:space="preserve" text-anchor="middle" x="569" y="-296.88" font-family="Helvetica,sans-Serif" font-size="10.00">LGE::MetaDB::Save</text>
</a>
</g>
</g>
<!-- Node12&#45;&gt;Node18 -->
<g id="edge29_Node000012_Node000018" class="edge">
<title>Node12&#45;&gt;Node18</title>
<g id="a_edge29_Node000012_Node000018"><a xlink:title=" ">
<path fill="none" stroke="#63b8ff" d="M441.1,-272.86C461.98,-277.39 486.61,-282.73 508.59,-287.49"/>
<polygon fill="#63b8ff" stroke="#63b8ff" points="507.81,-290.91 518.33,-289.61 509.3,-284.07 507.81,-290.91"/>
</a>
</g>
</g>
<!-- Node12&#45;&gt;Node21 -->
<g id="edge38_Node000012_Node000021" class="edge">
<title>Node12&#45;&gt;Node21</title>
<g id="a_edge38_Node000012_Node000021"><a xlink:title=" ">
<path fill="none" stroke="#63b8ff" d="M400.17,-272.8C414.8,-292.54 449.4,-335.36 489,-357.38 496.98,-361.81 505.97,-365.22 514.95,-367.83"/>
<polygon fill="#63b8ff" stroke="#63b8ff" points="513.81,-371.15 524.37,-370.27 515.56,-364.38 513.81,-371.15"/>
</a>
</g>
</g>
<!-- Node14&#45;&gt;Node4 -->
<g id="edge22_Node000014_Node000004" class="edge">
<title>Node14&#45;&gt;Node4</title>
<g id="a_edge22_Node000014_Node000004"><a xlink:title=" ">
<path fill="none" stroke="#63b8ff" d="M626.88,-213.92C645.37,-210.81 666.01,-207.63 685,-205.38 801.21,-191.6 830.6,-186.38 947.62,-186.38 947.62,-186.38 947.62,-186.38 1111.5,-186.38 1232.45,-186.38 1348.53,-294.41 1391.07,-338.74"/>
<polygon fill="#63b8ff" stroke="#63b8ff" points="1388.35,-340.96 1397.75,-345.83 1393.44,-336.16 1388.35,-340.96"/>
</a>
</g>
</g>
<!-- Node14&#45;&gt;Node11 -->
<g id="edge23_Node000014_Node000011" class="edge">
<title>Node14&#45;&gt;Node11</title>
<g id="a_edge23_Node000014_Node000011"><a xlink:title=" ">
<path fill="none" stroke="#63b8ff" d="M591.42,-234.83C609.24,-244.57 634.04,-260.68 649,-281.38 680.12,-324.44 646.04,-359.24 685,-395.38 693.41,-403.17 704.39,-407.96 715.54,-410.85"/>
<polygon fill="#63b8ff" stroke="#63b8ff" points="714.68,-414.25 725.18,-412.85 716.1,-407.4 714.68,-414.25"/>
</a>
</g>
</g>
<!-- Node14&#45;&gt;Node15 -->
<g id="edge24_Node000014_Node000015" class="edge">
<title>Node14&#45;&gt;Node15</title>
<g id="a_edge24_Node000014_Node000015"><a xlink:title=" ">
<path fill="none" stroke="#63b8ff" d="M590.83,-213.92C613.6,-202.73 651.33,-184.92 685,-172.38 694.88,-168.7 705.59,-165.19 715.9,-162.05"/>
<polygon fill="#63b8ff" stroke="#63b8ff" points="716.81,-165.43 725.4,-159.22 714.82,-158.72 716.81,-165.43"/>
</a>
</g>
</g>
<!-- Node16 -->
<g id="Node000016" class="node">
<title>Node16</title>
<g id="a_Node000016"><a xlink:href="namespaceLGE_1_1MetaDB.html#ad37cdebb704d7ca276bbb10e84d94f1a" target="_top" xlink:title=" ">
<polygon fill="white" stroke="#666666" points="848.75,-234.38 685,-234.38 685,-214.38 848.75,-214.38 848.75,-234.38"/>
<text xml:space="preserve" text-anchor="middle" x="766.88" y="-220.88" font-family="Helvetica,sans-Serif" font-size="10.00">LGE::MetaDB::UpdateTimestamp</text>
</a>
</g>
</g>
<!-- Node14&#45;&gt;Node16 -->
<g id="edge25_Node000014_Node000016" class="edge">
<title>Node14&#45;&gt;Node16</title>
<g id="a_edge25_Node000014_Node000016"><a xlink:title=" ">
<path fill="none" stroke="#63b8ff" d="M649.39,-224.38C657.32,-224.38 665.41,-224.38 673.46,-224.38"/>
<polygon fill="#63b8ff" stroke="#63b8ff" points="673.27,-227.88 683.27,-224.38 673.27,-220.88 673.27,-227.88"/>
</a>
</g>
</g>
<!-- Node17&#45;&gt;Node4 -->
<g id="edge28_Node000017_Node000004" class="edge">
<title>Node17&#45;&gt;Node4</title>
<g id="a_edge28_Node000017_Node000004"><a xlink:title=" ">
<path fill="none" stroke="#63b8ff" d="M1311.54,-82.75C1318.78,-86.12 1325.69,-90.55 1331,-96.38 1394.87,-166.39 1406,-286.91 1407.83,-335.82"/>
<polygon fill="#63b8ff" stroke="#63b8ff" points="1404.32,-335.71 1408.08,-345.61 1411.32,-335.52 1404.32,-335.71"/>
</a>
</g>
</g>
<!-- Node18&#45;&gt;Node4 -->
<g id="edge30_Node000018_Node000004" class="edge">
<title>Node18&#45;&gt;Node4</title>
<g id="a_edge30_Node000018_Node000004"><a xlink:title=" ">
<path fill="none" stroke="#63b8ff" d="M622.24,-310.04C641.86,-313.4 664.4,-316.93 685,-319.38 801.21,-333.15 830.6,-338.38 947.62,-338.38 947.62,-338.38 947.62,-338.38 1111.5,-338.38 1197.13,-338.38 1296.38,-346.36 1355.61,-351.98"/>
<polygon fill="#63b8ff" stroke="#63b8ff" points="1355.11,-355.44 1365.4,-352.92 1355.79,-348.48 1355.11,-355.44"/>
</a>
</g>
</g>
<!-- Node18&#45;&gt;Node11 -->
<g id="edge32_Node000018_Node000011" class="edge">
<title>Node18&#45;&gt;Node11</title>
<g id="a_edge32_Node000018_Node000011"><a xlink:title=" ">
<path fill="none" stroke="#63b8ff" d="M622.37,-306.03C631.96,-308.91 641.34,-313.15 649,-319.38 678.01,-342.94 655.93,-371.89 685,-395.38 693.66,-402.37 704.45,-406.88 715.3,-409.76"/>
<polygon fill="#63b8ff" stroke="#63b8ff" points="714.54,-413.17 725.06,-411.88 716.03,-406.33 714.54,-413.17"/>
</a>
</g>
</g>
<!-- Node18&#45;&gt;Node13 -->
<g id="edge33_Node000018_Node000013" class="edge">
<title>Node18&#45;&gt;Node13</title>
<g id="a_edge33_Node000018_Node000013"><a xlink:title=" ">
<path fill="none" stroke="#63b8ff" d="M622.49,-290.19C646.58,-285.52 675.38,-279.93 700.82,-275"/>
<polygon fill="#63b8ff" stroke="#63b8ff" points="701.24,-278.48 710.39,-273.14 699.9,-271.61 701.24,-278.48"/>
</a>
</g>
</g>
<!-- Node18&#45;&gt;Node16 -->
<g id="edge34_Node000018_Node000016" class="edge">
<title>Node18&#45;&gt;Node16</title>
<g id="a_edge34_Node000018_Node000016"><a xlink:title=" ">
<path fill="none" stroke="#63b8ff" d="M587.76,-289.96C609.88,-277.38 649.15,-256.28 685,-243.38 690.68,-241.33 696.67,-239.45 702.71,-237.72"/>
<polygon fill="#63b8ff" stroke="#63b8ff" points="703.38,-241.17 712.13,-235.2 701.56,-234.41 703.38,-241.17"/>
</a>
</g>
</g>
<!-- Node19 -->
<g id="Node000019" class="node">
<title>Node19</title>
<g id="a_Node000019"><a xlink:href="namespaceLGE_1_1MetaDB.html#aa5218c5875c7c064fac11782f4ca1783" target="_top" xlink:title=" ">
<polygon fill="white" stroke="#666666" points="841.25,-310.38 692.5,-310.38 692.5,-290.38 841.25,-290.38 841.25,-310.38"/>
<text xml:space="preserve" text-anchor="middle" x="766.88" y="-296.88" font-family="Helvetica,sans-Serif" font-size="10.00">LGE::MetaDB::GenerateGUID</text>
</a>
</g>
</g>
<!-- Node18&#45;&gt;Node19 -->
<g id="edge31_Node000018_Node000019" class="edge">
<title>Node18&#45;&gt;Node19</title>
<g id="a_edge31_Node000018_Node000019"><a xlink:title=" ">
<path fill="none" stroke="#63b8ff" d="M622.49,-300.38C640.48,-300.38 661.09,-300.38 680.98,-300.38"/>
<polygon fill="#63b8ff" stroke="#63b8ff" points="680.74,-303.88 690.74,-300.38 680.74,-296.88 680.74,-303.88"/>
</a>
</g>
</g>
<!-- Node20 -->
<g id="Node000020" class="node">
<title>Node20</title>
<g id="a_Node000020"><a xlink:href="namespaceLGE_1_1LxFile.html#a06d0b8c5590da8bc48cf22d321fc4074" target="_top" xlink:title=" ">
<polygon fill="white" stroke="#666666" points="820.62,-386.38 713.12,-386.38 713.12,-366.38 820.62,-366.38 820.62,-386.38"/>
<text xml:space="preserve" text-anchor="middle" x="766.88" y="-372.88" font-family="Helvetica,sans-Serif" font-size="10.00">LGE::LxFile::WriteAll</text>
</a>
</g>
</g>
<!-- Node18&#45;&gt;Node20 -->
<g id="edge35_Node000018_Node000020" class="edge">
<title>Node18&#45;&gt;Node20</title>
<g id="a_edge35_Node000018_Node000020"><a xlink:title=" ">
<path fill="none" stroke="#63b8ff" d="M622.37,-309.01C631.55,-311.62 640.78,-315 649,-319.38 668.16,-329.57 666.11,-341.68 685,-352.38 691.84,-356.25 699.37,-359.56 707,-362.36"/>
<polygon fill="#63b8ff" stroke="#63b8ff" points="705.76,-365.64 716.36,-365.51 708,-359 705.76,-365.64"/>
</a>
</g>
</g>
<!-- Node20&#45;&gt;Node4 -->
<g id="edge36_Node000020_Node000004" class="edge">
<title>Node20&#45;&gt;Node4</title>
<g id="a_edge36_Node000020_Node000004"><a xlink:title=" ">
<path fill="none" stroke="#63b8ff" d="M821.09,-374.8C941.75,-371.22 1234.97,-362.51 1355.28,-358.94"/>
<polygon fill="#63b8ff" stroke="#63b8ff" points="1355.31,-362.45 1365.2,-358.65 1355.1,-355.45 1355.31,-362.45"/>
</a>
</g>
</g>
<!-- Node20&#45;&gt;Node5 -->
<g id="edge37_Node000020_Node000005" class="edge">
<title>Node20&#45;&gt;Node5</title>
<g id="a_edge37_Node000020_Node000005"><a xlink:title=" ">
<path fill="none" stroke="#63b8ff" d="M820.94,-380.65C831.14,-383.59 841.03,-388.22 848.75,-395.38 887.71,-431.51 846.95,-472.04 884.75,-509.38 885.62,-510.24 886.53,-511.06 887.47,-511.85"/>
<polygon fill="#63b8ff" stroke="#63b8ff" points="885.19,-514.53 895.46,-517.13 889.05,-508.69 885.19,-514.53"/>
</a>
</g>
</g>
<!-- Node23 -->
<g id="Node000023" class="node">
<title>Node23</title>
<g id="a_Node000023"><a xlink:href="namespaceLGE_1_1LxPath.html#a94ec3bdfd6948ddc25cda5d18154d4cf" target="_top" xlink:title=" ">
<polygon fill="white" stroke="#666666" points="996.75,-500.38 900.5,-500.38 900.5,-480.38 996.75,-480.38 996.75,-500.38"/>
<text xml:space="preserve" text-anchor="middle" x="948.62" y="-486.88" font-family="Helvetica,sans-Serif" font-size="10.00">LGE::LxPath::Join</text>
</a>
</g>
</g>
<!-- Node22&#45;&gt;Node23 -->
<g id="edge40_Node000022_Node000023" class="edge">
<title>Node22&#45;&gt;Node23</title>
<g id="a_edge40_Node000022_Node000023"><a xlink:title=" ">
<path fill="none" stroke="#63b8ff" d="M443.46,-490.38C546.33,-490.38 779.01,-490.38 888.53,-490.38"/>
<polygon fill="#63b8ff" stroke="#63b8ff" points="888.49,-493.88 898.49,-490.38 888.49,-486.88 888.49,-493.88"/>
</a>
</g>
</g>
<!-- Node23&#45;&gt;Node7 -->
<g id="edge41_Node000023_Node000007" class="edge">
<title>Node23&#45;&gt;Node7</title>
<g id="a_edge41_Node000023_Node000007"><a xlink:title=" ">
<path fill="none" stroke="#63b8ff" d="M997.24,-480.19C1013.44,-477 1031.71,-473.71 1048.5,-471.38 1097.88,-464.52 1153.85,-459.73 1197.01,-456.67"/>
<polygon fill="#63b8ff" stroke="#63b8ff" points="1197.02,-460.18 1206.76,-456 1196.54,-453.2 1197.02,-460.18"/>
</a>
</g>
</g>
<!-- Node25&#45;&gt;Node4 -->
<g id="edge45_Node000025_Node000004" class="edge">
<title>Node25&#45;&gt;Node4</title>
<g id="a_edge45_Node000025_Node000004"><a xlink:title=" ">
<path fill="none" stroke="#63b8ff" d="M984.4,-23.91C1057.71,-4.16 1229.69,29.57 1331,-53.38 1375.44,-89.76 1399.01,-272.63 1405.93,-335.84"/>
<polygon fill="#63b8ff" stroke="#63b8ff" points="1402.43,-336.03 1406.96,-345.61 1409.39,-335.3 1402.43,-336.03"/>
</a>
</g>
</g>
</g>
</svg>
