<?xml version="1.0" encoding="UTF-8" standalone="no"?>
<!DOCTYPE svg PUBLIC "-//W3C//DTD SVG 1.1//EN"
 "http://www.w3.org/Graphics/SVG/1.1/DTD/svg11.dtd">
<!-- Generated by graphviz version 14.0.2 (20251019.1705)
 -->
<!-- Title: LGE::Thumbs::Build Pages: 1 -->
<svg width="1264pt" height="635pt"
 viewBox="0.00 0.00 1264.00 635.00" xmlns="http://www.w3.org/2000/svg" xmlns:xlink="http://www.w3.org/1999/xlink">
<g id="graph0" class="graph" transform="scale(1 1) rotate(0) translate(4 631)">
<title>LGE::Thumbs::Build</title>
<!-- Node1 -->
<g id="Node000001" class="node">
<title>Node1</title>
<g id="a_Node000001"><a xlink:title=" ">
<polygon fill="#999999" stroke="#666666" points="104.5,-304 0,-304 0,-284 104.5,-284 104.5,-304"/>
<text xml:space="preserve" text-anchor="middle" x="52.25" y="-290.5" font-family="Helvetica,sans-Serif" font-size="10.00">LGE::Thumbs::Build</text>
</a>
</g>
</g>
<!-- Node2 -->
<g id="Node000002" class="node">
<title>Node2</title>
<g id="a_Node000002"><a xlink:href="namespaceLGE_1_1LxFile.html#ab62abe452536badcfc9ab15647d6df2b" target="_top" xlink:title=" ">
<polygon fill="white" stroke="#666666" points="625.38,-523 528.38,-523 528.38,-503 625.38,-503 625.38,-523"/>
<text xml:space="preserve" text-anchor="middle" x="576.88" y="-509.5" font-family="Helvetica,sans-Serif" font-size="10.00">LGE::LxFile::Copy</text>
</a>
</g>
</g>
<!-- Node1&#45;&gt;Node2 -->
<g id="edge1_Node000001_Node000002" class="edge">
<title>Node1&#45;&gt;Node2</title>
<g id="a_edge1_Node000001_Node000002"><a xlink:title=" ">
<path fill="none" stroke="#63b8ff" d="M54.59,-304.19C59.4,-336.2 78.87,-435.14 140.5,-479 254.27,-559.96 429.69,-542.03 519.16,-525.59"/>
<polygon fill="#63b8ff" stroke="#63b8ff" points="519.76,-529.04 528.93,-523.73 518.45,-522.16 519.76,-529.04"/>
</a>
</g>
</g>
<!-- Node3 -->
<g id="Node000003" class="node">
<title>Node3</title>
<g id="a_Node000003"><a xlink:href="classLGE_1_1Log.html#a53f3f4b8797ffd18145739c9e66d690a" target="_top" xlink:title=" ">
<polygon fill="white" stroke="#666666" points="1256,-371 1171.75,-371 1171.75,-351 1256,-351 1256,-371"/>
<text xml:space="preserve" text-anchor="middle" x="1213.88" y="-357.5" font-family="Helvetica,sans-Serif" font-size="10.00">LGE::Log::Error</text>
</a>
</g>
</g>
<!-- Node1&#45;&gt;Node3 -->
<g id="edge11_Node000001_Node000003" class="edge">
<title>Node1&#45;&gt;Node3</title>
<g id="a_edge11_Node000001_Node000003"><a xlink:title=" ">
<path fill="none" stroke="#63b8ff" d="M54.51,-304.37C59.24,-339.09 78.95,-452.71 140.5,-518 220.17,-602.5 261.86,-627 378,-627 378,-627 378,-627 916.25,-627 1021.52,-627 1060.36,-611.47 1135.75,-538 1180.84,-494.05 1201.29,-419.29 1208.98,-382.61"/>
<polygon fill="#63b8ff" stroke="#63b8ff" points="1212.41,-383.3 1210.89,-372.82 1205.54,-381.96 1212.41,-383.3"/>
</a>
</g>
</g>
<!-- Node7 -->
<g id="Node000007" class="node">
<title>Node7</title>
<g id="a_Node000007"><a xlink:href="namespaceLGE_1_1LxFile.html#a7a3f0b3462a34877039001eb0aaac788" target="_top" xlink:title=" ">
<polygon fill="white" stroke="#666666" points="648.25,-485 505.5,-485 505.5,-465 648.25,-465 648.25,-485"/>
<text xml:space="preserve" text-anchor="middle" x="576.88" y="-471.5" font-family="Helvetica,sans-Serif" font-size="10.00">LGE::LxFile::CreateDirectory</text>
</a>
</g>
</g>
<!-- Node1&#45;&gt;Node7 -->
<g id="edge8_Node000001_Node000007" class="edge">
<title>Node1&#45;&gt;Node7</title>
<g id="a_edge8_Node000001_Node000007"><a xlink:title=" ">
<path fill="none" stroke="#63b8ff" d="M55.41,-304.44C62.06,-333.66 85.26,-416.42 140.5,-451 197.36,-486.59 384.16,-484.41 493.73,-479.69"/>
<polygon fill="#63b8ff" stroke="#63b8ff" points="493.72,-483.19 503.55,-479.25 493.4,-476.2 493.72,-483.19"/>
</a>
</g>
</g>
<!-- Node8 -->
<g id="Node000008" class="node">
<title>Node8</title>
<g id="a_Node000008"><a xlink:href="namespaceLGE_1_1LxFile.html#a11e62876b312a11b881b484bb3a5ee71" target="_top" xlink:title=" ">
<polygon fill="white" stroke="#666666" points="429.75,-143 328.25,-143 328.25,-123 429.75,-123 429.75,-143"/>
<text xml:space="preserve" text-anchor="middle" x="379" y="-129.5" font-family="Helvetica,sans-Serif" font-size="10.00">LGE::LxFile::Exists</text>
</a>
</g>
</g>
<!-- Node1&#45;&gt;Node8 -->
<g id="edge12_Node000001_Node000008" class="edge">
<title>Node1&#45;&gt;Node8</title>
<g id="a_edge12_Node000001_Node000008"><a xlink:title=" ">
<path fill="none" stroke="#63b8ff" d="M65.4,-283.55C81.77,-269.79 112.12,-245.3 140.5,-228 207.21,-187.34 225.39,-178.17 299,-152 304.73,-149.96 310.77,-148.07 316.86,-146.34"/>
<polygon fill="#63b8ff" stroke="#63b8ff" points="317.6,-149.76 326.34,-143.78 315.78,-143 317.6,-149.76"/>
</a>
</g>
</g>
<!-- Node9 -->
<g id="Node000009" class="node">
<title>Node9</title>
<g id="a_Node000009"><a xlink:href="namespaceLGE_1_1LxPath.html#aefae4d45f84718077f5218f64d2f074c" target="_top" xlink:title=" ">
<polygon fill="white" stroke="#666666" points="817.25,-447 694.75,-447 694.75,-427 817.25,-427 817.25,-447"/>
<text xml:space="preserve" text-anchor="middle" x="756" y="-433.5" font-family="Helvetica,sans-Serif" font-size="10.00">LGE::LxPath::GetParent</text>
</a>
</g>
</g>
<!-- Node1&#45;&gt;Node9 -->
<g id="edge13_Node000001_Node000009" class="edge">
<title>Node1&#45;&gt;Node9</title>
<g id="a_edge13_Node000001_Node000009"><a xlink:title=" ">
<path fill="none" stroke="#63b8ff" d="M63.55,-304.29C78.94,-319.09 109.47,-346.2 140.5,-361 321.02,-447.11 563.72,-448.2 682.87,-442.36"/>
<polygon fill="#63b8ff" stroke="#63b8ff" points="683.05,-445.86 692.85,-441.84 682.68,-438.87 683.05,-445.86"/>
</a>
</g>
</g>
<!-- Node10 -->
<g id="Node000010" class="node">
<title>Node10</title>
<g id="a_Node000010"><a xlink:href="classLGE_1_1Log.html#ab0265ee050b8873a2fd31fbdb696ced0" target="_top" xlink:title=" ">
<polygon fill="white" stroke="#666666" points="616.75,-67 537,-67 537,-47 616.75,-47 616.75,-67"/>
<text xml:space="preserve" text-anchor="middle" x="576.88" y="-53.5" font-family="Helvetica,sans-Serif" font-size="10.00">LGE::Log::Info</text>
</a>
</g>
</g>
<!-- Node1&#45;&gt;Node10 -->
<g id="edge15_Node000001_Node000010" class="edge">
<title>Node1&#45;&gt;Node10</title>
<g id="a_edge15_Node000001_Node000010"><a xlink:title=" ">
<path fill="none" stroke="#63b8ff" d="M54.69,-283.85C59.79,-251.97 80.03,-153.09 140.5,-106 253.93,-17.66 437.2,-33.06 525.35,-47.16"/>
<polygon fill="#63b8ff" stroke="#63b8ff" points="524.7,-50.6 535.14,-48.8 525.85,-43.7 524.7,-50.6"/>
</a>
</g>
</g>
<!-- Node11 -->
<g id="Node000011" class="node">
<title>Node11</title>
<g id="a_Node000011"><a xlink:href="namespaceLGE_1_1MetaDB.html#a9f494f7c23ef0715fa5881a46b93c940" target="_top" xlink:title=" ">
<polygon fill="white" stroke="#666666" points="254,-257 149.5,-257 149.5,-237 254,-237 254,-257"/>
<text xml:space="preserve" text-anchor="middle" x="201.75" y="-243.5" font-family="Helvetica,sans-Serif" font-size="10.00">LGE::MetaDB::Load</text>
</a>
</g>
</g>
<!-- Node1&#45;&gt;Node11 -->
<g id="edge16_Node000001_Node000011" class="edge">
<title>Node1&#45;&gt;Node11</title>
<g id="a_edge16_Node000001_Node000011"><a xlink:title=" ">
<path fill="none" stroke="#63b8ff" d="M85.99,-283.57C106.92,-276.9 134.32,-268.17 157.09,-260.91"/>
<polygon fill="#63b8ff" stroke="#63b8ff" points="157.94,-264.31 166.41,-257.94 155.82,-257.64 157.94,-264.31"/>
</a>
</g>
</g>
<!-- Node20 -->
<g id="Node000020" class="node">
<title>Node20</title>
<g id="a_Node000020"><a xlink:href="classLGE_1_1Log.html#aa6f98018af29c23dd7f574d3df5dda5e" target="_top" xlink:title=" ">
<polygon fill="white" stroke="#666666" points="421.88,-105 336.12,-105 336.12,-85 421.88,-85 421.88,-105"/>
<text xml:space="preserve" text-anchor="middle" x="379" y="-91.5" font-family="Helvetica,sans-Serif" font-size="10.00">LGE::Log::Warn</text>
</a>
</g>
</g>
<!-- Node1&#45;&gt;Node20 -->
<g id="edge42_Node000001_Node000020" class="edge">
<title>Node1&#45;&gt;Node20</title>
<g id="a_edge42_Node000001_Node000020"><a xlink:title=" ">
<path fill="none" stroke="#63b8ff" d="M57.17,-283.65C67.12,-258.8 95.78,-195.32 140.5,-162 194.95,-121.42 273.03,-105.41 324.6,-99.09"/>
<polygon fill="#63b8ff" stroke="#63b8ff" points="324.77,-102.6 334.32,-97.99 323.99,-95.64 324.77,-102.6"/>
</a>
</g>
</g>
<!-- Node21 -->
<g id="Node000021" class="node">
<title>Node21</title>
<g id="a_Node000021"><a xlink:href="namespaceLGE_1_1Thumbs.html#af6d6795b0cb72f1c01c05f781bd1f581" target="_top" xlink:title=" ">
<polygon fill="white" stroke="#666666" points="253.25,-352 150.25,-352 150.25,-332 253.25,-332 253.25,-352"/>
<text xml:space="preserve" text-anchor="middle" x="201.75" y="-338.5" font-family="Helvetica,sans-Serif" font-size="10.00">LGE::Thumbs::Path</text>
</a>
</g>
</g>
<!-- Node1&#45;&gt;Node21 -->
<g id="edge38_Node000001_Node000021" class="edge">
<title>Node1&#45;&gt;Node21</title>
<g id="a_edge38_Node000001_Node000021"><a xlink:title=" ">
<path fill="none" stroke="#63b8ff" d="M85.26,-304.41C106.44,-311.31 134.49,-320.44 157.63,-327.97"/>
<polygon fill="#63b8ff" stroke="#63b8ff" points="156.52,-331.29 167.11,-331.05 158.69,-324.63 156.52,-331.29"/>
</a>
</g>
</g>
<!-- Node23 -->
<g id="Node000023" class="node">
<title>Node23</title>
<g id="a_Node000023"><a xlink:href="namespaceLGE_1_1EditorBus.html#afb16024ff4209b3205a89d71e61cadca" target="_top" xlink:title=" ">
<polygon fill="white" stroke="#666666" points="263,-29 140.5,-29 140.5,-9 263,-9 263,-29"/>
<text xml:space="preserve" text-anchor="middle" x="201.75" y="-15.5" font-family="Helvetica,sans-Serif" font-size="10.00">LGE::EditorBus::Publish</text>
</a>
</g>
</g>
<!-- Node1&#45;&gt;Node23 -->
<g id="edge41_Node000001_Node000023" class="edge">
<title>Node1&#45;&gt;Node23</title>
<g id="a_edge41_Node000001_Node000023"><a xlink:title=" ">
<path fill="none" stroke="#63b8ff" d="M53.87,-283.6C56.66,-245.99 71.15,-115.51 140.5,-43 143.44,-39.93 146.81,-37.24 150.44,-34.9"/>
<polygon fill="#63b8ff" stroke="#63b8ff" points="152.04,-38.01 159.16,-30.16 148.7,-31.86 152.04,-38.01"/>
</a>
</g>
</g>
<!-- Node2&#45;&gt;Node3 -->
<g id="edge2_Node000002_Node000003" class="edge">
<title>Node2&#45;&gt;Node3</title>
<g id="a_edge2_Node000002_Node000003"><a xlink:title=" ">
<path fill="none" stroke="#63b8ff" d="M621.48,-523.49C695.08,-539.74 848.53,-567.3 977.25,-549 1049.87,-538.67 1078.62,-549 1135.75,-503 1175.3,-471.16 1197.47,-413.37 1207.08,-382.23"/>
<polygon fill="#63b8ff" stroke="#63b8ff" points="1210.38,-383.4 1209.82,-372.82 1203.66,-381.44 1210.38,-383.4"/>
</a>
</g>
</g>
<!-- Node4 -->
<g id="Node000004" class="node">
<title>Node4</title>
<g id="a_Node000004"><a xlink:href="namespaceLGE_1_1VFS.html#abb5d35abfe80efe2f7a07394ad5b706a" target="_top" xlink:title=" ">
<polygon fill="white" stroke="#666666" points="815.38,-485 696.62,-485 696.62,-465 815.38,-465 815.38,-485"/>
<text xml:space="preserve" text-anchor="middle" x="756" y="-471.5" font-family="Helvetica,sans-Serif" font-size="10.00">LGE::VFS::IsReadOnly</text>
</a>
</g>
</g>
<!-- Node2&#45;&gt;Node4 -->
<g id="edge3_Node000002_Node000004" class="edge">
<title>Node2&#45;&gt;Node4</title>
<g id="a_edge3_Node000002_Node000004"><a xlink:title=" ">
<path fill="none" stroke="#63b8ff" d="M625.81,-502.72C647.11,-498.15 672.41,-492.72 694.95,-487.88"/>
<polygon fill="#63b8ff" stroke="#63b8ff" points="695.58,-491.33 704.62,-485.81 694.11,-484.48 695.58,-491.33"/>
</a>
</g>
</g>
<!-- Node5 -->
<g id="Node000005" class="node">
<title>Node5</title>
<g id="a_Node000005"><a xlink:href="namespaceLGE_1_1LxPath.html#ab664986e94ce09aa029f9eb2fcf50133" target="_top" xlink:title=" ">
<polygon fill="white" stroke="#666666" points="977.25,-523 853.25,-523 853.25,-503 977.25,-503 977.25,-523"/>
<text xml:space="preserve" text-anchor="middle" x="915.25" y="-509.5" font-family="Helvetica,sans-Serif" font-size="10.00">LGE::LxPath::IsSubPath</text>
</a>
</g>
</g>
<!-- Node4&#45;&gt;Node5 -->
<g id="edge4_Node000004_Node000005" class="edge">
<title>Node4&#45;&gt;Node5</title>
<g id="a_edge4_Node000004_Node000005"><a xlink:title=" ">
<path fill="none" stroke="#63b8ff" d="M800.39,-485.48C818.78,-489.93 840.41,-495.16 859.85,-499.85"/>
<polygon fill="#63b8ff" stroke="#63b8ff" points="858.99,-503.25 869.53,-502.19 860.64,-496.44 858.99,-503.25"/>
</a>
</g>
</g>
<!-- Node6 -->
<g id="Node000006" class="node">
<title>Node6</title>
<g id="a_Node000006"><a xlink:href="namespaceLGE_1_1LxPath.html#a314a60ce690c90f4ee0b4e64c0199408" target="_top" xlink:title=" ">
<polygon fill="white" stroke="#666666" points="1135.75,-447 1013.25,-447 1013.25,-427 1135.75,-427 1135.75,-447"/>
<text xml:space="preserve" text-anchor="middle" x="1074.5" y="-433.5" font-family="Helvetica,sans-Serif" font-size="10.00">LGE::LxPath::Normalize</text>
</a>
</g>
</g>
<!-- Node4&#45;&gt;Node6 -->
<g id="edge7_Node000004_Node000006" class="edge">
<title>Node4&#45;&gt;Node6</title>
<g id="a_edge7_Node000004_Node000006"><a xlink:title=" ">
<path fill="none" stroke="#63b8ff" d="M815.5,-469.2C859.92,-464.66 922.49,-457.96 977.25,-451 985.2,-449.99 993.5,-448.87 1001.76,-447.72"/>
<polygon fill="#63b8ff" stroke="#63b8ff" points="1002.05,-451.22 1011.46,-446.35 1001.07,-444.29 1002.05,-451.22"/>
</a>
</g>
</g>
<!-- Node5&#45;&gt;Node6 -->
<g id="edge5_Node000005_Node000006" class="edge">
<title>Node5&#45;&gt;Node6</title>
<g id="a_edge5_Node000005_Node000006"><a xlink:title=" ">
<path fill="none" stroke="#63b8ff" d="M944.79,-502.59C955.13,-498.6 966.83,-493.84 977.25,-489 1000.94,-477.99 1026.95,-463.8 1045.96,-453.03"/>
<polygon fill="#63b8ff" stroke="#63b8ff" points="1047.48,-456.19 1054.42,-448.19 1044,-450.11 1047.48,-456.19"/>
</a>
</g>
</g>
<!-- Node6&#45;&gt;Node3 -->
<g id="edge6_Node000006_Node000003" class="edge">
<title>Node6&#45;&gt;Node3</title>
<g id="a_edge6_Node000006_Node000003"><a xlink:title=" ">
<path fill="none" stroke="#63b8ff" d="M1094.31,-426.59C1117.54,-413.74 1157.27,-391.76 1184.27,-376.82"/>
<polygon fill="#63b8ff" stroke="#63b8ff" points="1185.91,-379.92 1192.96,-372.01 1182.52,-373.79 1185.91,-379.92"/>
</a>
</g>
</g>
<!-- Node7&#45;&gt;Node3 -->
<g id="edge9_Node000007_Node000003" class="edge">
<title>Node7&#45;&gt;Node3</title>
<g id="a_edge9_Node000007_Node000003"><a xlink:title=" ">
<path fill="none" stroke="#63b8ff" d="M622.79,-485.46C688.85,-500.65 809.11,-527.48 853.25,-532 908.07,-537.61 923.51,-544.22 977.25,-532 1053.43,-514.68 1074.42,-504.39 1135.75,-456 1163,-434.5 1186.88,-401.74 1200.6,-380.86"/>
<polygon fill="#63b8ff" stroke="#63b8ff" points="1203.39,-382.99 1205.83,-372.68 1197.49,-379.22 1203.39,-382.99"/>
</a>
</g>
</g>
<!-- Node7&#45;&gt;Node4 -->
<g id="edge10_Node000007_Node000004" class="edge">
<title>Node7&#45;&gt;Node4</title>
<g id="a_edge10_Node000007_Node000004"><a xlink:title=" ">
<path fill="none" stroke="#63b8ff" d="M648.64,-475C660.62,-475 673.05,-475 685,-475"/>
<polygon fill="#63b8ff" stroke="#63b8ff" points="684.78,-478.5 694.78,-475 684.78,-471.5 684.78,-478.5"/>
</a>
</g>
</g>
<!-- Node9&#45;&gt;Node6 -->
<g id="edge14_Node000009_Node000006" class="edge">
<title>Node9&#45;&gt;Node6</title>
<g id="a_edge14_Node000009_Node000006"><a xlink:title=" ">
<path fill="none" stroke="#63b8ff" d="M817.65,-437C870.13,-437 946.09,-437 1001.62,-437"/>
<polygon fill="#63b8ff" stroke="#63b8ff" points="1001.27,-440.5 1011.27,-437 1001.27,-433.5 1001.27,-440.5"/>
</a>
</g>
</g>
<!-- Node11&#45;&gt;Node3 -->
<g id="edge17_Node000011_Node000003" class="edge">
<title>Node11&#45;&gt;Node3</title>
<g id="a_edge17_Node000011_Node000003"><a xlink:title=" ">
<path fill="none" stroke="#63b8ff" d="M213.25,-257.29C229.9,-272.97 264.07,-302.51 299,-317 414.09,-364.74 451.28,-361 575.88,-361 575.88,-361 575.88,-361 916.25,-361 1001.7,-361 1101,-361 1160.3,-361"/>
<polygon fill="#63b8ff" stroke="#63b8ff" points="1160.09,-364.5 1170.09,-361 1160.09,-357.5 1160.09,-364.5"/>
</a>
</g>
</g>
<!-- Node11&#45;&gt;Node8 -->
<g id="edge18_Node000011_Node000008" class="edge">
<title>Node11&#45;&gt;Node8</title>
<g id="a_edge18_Node000011_Node000008"><a xlink:title=" ">
<path fill="none" stroke="#63b8ff" d="M212.74,-236.52C235.23,-213.03 288.69,-157.73 299,-152 304.69,-148.84 310.89,-146.2 317.24,-144"/>
<polygon fill="#63b8ff" stroke="#63b8ff" points="318.01,-147.42 326.54,-141.13 315.96,-140.73 318.01,-147.42"/>
</a>
</g>
</g>
<!-- Node12 -->
<g id="Node000012" class="node">
<title>Node12</title>
<g id="a_Node000012"><a xlink:href="namespaceLGE_1_1MetaDB.html#ac399a4083a7e189046618cbf3142dbbe" target="_top" xlink:title=" ">
<polygon fill="white" stroke="#666666" points="646.75,-295 507,-295 507,-275 646.75,-275 646.75,-295"/>
<text xml:space="preserve" text-anchor="middle" x="576.88" y="-281.5" font-family="Helvetica,sans-Serif" font-size="10.00">LGE::MetaDB::MetaPathFor</text>
</a>
</g>
</g>
<!-- Node11&#45;&gt;Node12 -->
<g id="edge19_Node000011_Node000012" class="edge">
<title>Node11&#45;&gt;Node12</title>
<g id="a_edge19_Node000011_Node000012"><a xlink:title=" ">
<path fill="none" stroke="#63b8ff" d="M249.55,-257.47C265.2,-260.64 282.79,-263.85 299,-266 364.8,-274.72 439.96,-279.55 495.35,-282.16"/>
<polygon fill="#63b8ff" stroke="#63b8ff" points="494.85,-285.64 505,-282.6 495.17,-278.65 494.85,-285.64"/>
</a>
</g>
</g>
<!-- Node13 -->
<g id="Node000013" class="node">
<title>Node13</title>
<g id="a_Node000013"><a xlink:href="namespaceLGE_1_1Migration.html#a47ee5b06f8c57da1952156f69f9582b7" target="_top" xlink:title=" ">
<polygon fill="white" stroke="#666666" points="459,-181 299,-181 299,-161 459,-161 459,-181"/>
<text xml:space="preserve" text-anchor="middle" x="379" y="-167.5" font-family="Helvetica,sans-Serif" font-size="10.00">LGE::Migration::MigrateMetadata</text>
</a>
</g>
</g>
<!-- Node11&#45;&gt;Node13 -->
<g id="edge20_Node000011_Node000013" class="edge">
<title>Node11&#45;&gt;Node13</title>
<g id="a_edge20_Node000011_Node000013"><a xlink:title=" ">
<path fill="none" stroke="#63b8ff" d="M219.63,-236.53C238.45,-225.18 270.08,-207.06 299,-195 307.94,-191.27 317.66,-187.84 327.13,-184.81"/>
<polygon fill="#63b8ff" stroke="#63b8ff" points="328.1,-188.17 336.63,-181.88 326.04,-181.48 328.1,-188.17"/>
</a>
</g>
</g>
<!-- Node14 -->
<g id="Node000014" class="node">
<title>Node14</title>
<g id="a_Node000014"><a xlink:href="namespaceLGE_1_1Migration.html#ae8f608f31e72e26c06b1eb0f62dedfb1" target="_top" xlink:title=" ">
<polygon fill="white" stroke="#666666" points="654.62,-105 499.12,-105 499.12,-85 654.62,-85 654.62,-105"/>
<text xml:space="preserve" text-anchor="middle" x="576.88" y="-91.5" font-family="Helvetica,sans-Serif" font-size="10.00">LGE::Migration::NeedsMigration</text>
</a>
</g>
</g>
<!-- Node11&#45;&gt;Node14 -->
<g id="edge25_Node000011_Node000014" class="edge">
<title>Node11&#45;&gt;Node14</title>
<g id="a_edge25_Node000011_Node000014"><a xlink:title=" ">
<path fill="none" stroke="#63b8ff" d="M254.37,-236.72C326.87,-222.12 450.96,-196.41 459,-190 488.21,-166.68 465.93,-137.49 495,-114 496.33,-112.92 497.71,-111.91 499.14,-110.94"/>
<polygon fill="#63b8ff" stroke="#63b8ff" points="500.75,-114.05 507.77,-106.11 497.33,-107.94 500.75,-114.05"/>
</a>
</g>
</g>
<!-- Node16 -->
<g id="Node000016" class="node">
<title>Node16</title>
<g id="a_Node000016"><a xlink:href="namespaceLGE_1_1LxFile.html#ac0a61f0e1f49fdcf553f007750c1ba37" target="_top" xlink:title=" ">
<polygon fill="white" stroke="#666666" points="1128.62,-333 1020.38,-333 1020.38,-313 1128.62,-313 1128.62,-333"/>
<text xml:space="preserve" text-anchor="middle" x="1074.5" y="-319.5" font-family="Helvetica,sans-Serif" font-size="10.00">LGE::LxFile::ReadAll</text>
</a>
</g>
</g>
<!-- Node11&#45;&gt;Node16 -->
<g id="edge26_Node000011_Node000016" class="edge">
<title>Node11&#45;&gt;Node16</title>
<g id="a_edge26_Node000011_Node000016"><a xlink:title=" ">
<path fill="none" stroke="#63b8ff" d="M223.22,-257.38C242.34,-266.61 271.91,-279.75 299,-287 418.87,-319.09 451.78,-323 575.88,-323 575.88,-323 575.88,-323 757,-323 844.03,-323 944.53,-323 1008.51,-323"/>
<polygon fill="#63b8ff" stroke="#63b8ff" points="1008.51,-326.5 1018.51,-323 1008.51,-319.5 1008.51,-326.5"/>
</a>
</g>
</g>
<!-- Node17 -->
<g id="Node000017" class="node">
<title>Node17</title>
<g id="a_Node000017"><a xlink:href="namespaceLGE_1_1MetaDB.html#a93501266bbc2bb77874f90247fcc90ba" target="_top" xlink:title=" ">
<polygon fill="white" stroke="#666666" points="432,-257 326,-257 326,-237 432,-237 432,-257"/>
<text xml:space="preserve" text-anchor="middle" x="379" y="-243.5" font-family="Helvetica,sans-Serif" font-size="10.00">LGE::MetaDB::Save</text>
</a>
</g>
</g>
<!-- Node11&#45;&gt;Node17 -->
<g id="edge28_Node000011_Node000017" class="edge">
<title>Node11&#45;&gt;Node17</title>
<g id="a_edge28_Node000011_Node000017"><a xlink:title=" ">
<path fill="none" stroke="#63b8ff" d="M254.38,-247C273.12,-247 294.51,-247 314.18,-247"/>
<polygon fill="#63b8ff" stroke="#63b8ff" points="314.01,-250.5 324.01,-247 314.01,-243.5 314.01,-250.5"/>
</a>
</g>
</g>
<!-- Node11&#45;&gt;Node20 -->
<g id="edge37_Node000011_Node000020" class="edge">
<title>Node11&#45;&gt;Node20</title>
<g id="a_edge37_Node000011_Node000020"><a xlink:title=" ">
<path fill="none" stroke="#63b8ff" d="M207.07,-236.77C218.25,-211.6 250.69,-146.36 299,-114 306.75,-108.81 315.76,-105.03 324.88,-102.28"/>
<polygon fill="#63b8ff" stroke="#63b8ff" points="325.69,-105.69 334.49,-99.8 323.94,-98.91 325.69,-105.69"/>
</a>
</g>
</g>
<!-- Node13&#45;&gt;Node3 -->
<g id="edge21_Node000013_Node000003" class="edge">
<title>Node13&#45;&gt;Node3</title>
<g id="a_edge21_Node000013_Node000003"><a xlink:title=" ">
<path fill="none" stroke="#63b8ff" d="M446.52,-160.69C451.05,-158.33 455.29,-155.46 459,-152 497.86,-115.76 453.32,-70.95 495,-38 585.89,33.85 639.14,-19 755,-19 755,-19 755,-19 916.25,-19 1037.76,-19 1060.35,-86.71 1135.75,-182 1175.01,-231.61 1198.06,-304.23 1207.64,-339.79"/>
<polygon fill="#63b8ff" stroke="#63b8ff" points="1204.19,-340.45 1210.09,-349.26 1210.97,-338.7 1204.19,-340.45"/>
</a>
</g>
</g>
<!-- Node13&#45;&gt;Node10 -->
<g id="edge22_Node000013_Node000010" class="edge">
<title>Node13&#45;&gt;Node10</title>
<g id="a_edge22_Node000013_Node000010"><a xlink:title=" ">
<path fill="none" stroke="#63b8ff" d="M444.85,-160.66C449.93,-158.32 454.73,-155.47 459,-152 488.01,-128.43 465.93,-99.49 495,-76 503.66,-69 514.45,-64.5 525.3,-61.62"/>
<polygon fill="#63b8ff" stroke="#63b8ff" points="526.03,-65.04 535.06,-59.49 524.54,-58.2 526.03,-65.04"/>
</a>
</g>
</g>
<!-- Node13&#45;&gt;Node14 -->
<g id="edge23_Node000013_Node000014" class="edge">
<title>Node13&#45;&gt;Node14</title>
<g id="a_edge23_Node000013_Node000014"><a xlink:title=" ">
<path fill="none" stroke="#63b8ff" d="M439.69,-160.61C446.43,-158.29 453.02,-155.46 459,-152 479.14,-140.35 474.83,-125.59 495,-114 497.81,-112.38 500.76,-110.9 503.79,-109.55"/>
<polygon fill="#63b8ff" stroke="#63b8ff" points="504.91,-112.87 512.94,-105.97 502.35,-106.35 504.91,-112.87"/>
</a>
</g>
</g>
<!-- Node15 -->
<g id="Node000015" class="node">
<title>Node15</title>
<g id="a_Node000015"><a xlink:href="namespaceLGE_1_1MetaDB.html#ad37cdebb704d7ca276bbb10e84d94f1a" target="_top" xlink:title=" ">
<polygon fill="white" stroke="#666666" points="658.75,-143 495,-143 495,-123 658.75,-123 658.75,-143"/>
<text xml:space="preserve" text-anchor="middle" x="576.88" y="-129.5" font-family="Helvetica,sans-Serif" font-size="10.00">LGE::MetaDB::UpdateTimestamp</text>
</a>
</g>
</g>
<!-- Node13&#45;&gt;Node15 -->
<g id="edge24_Node000013_Node000015" class="edge">
<title>Node13&#45;&gt;Node15</title>
<g id="a_edge24_Node000013_Node000015"><a xlink:title=" ">
<path fill="none" stroke="#63b8ff" d="M434.04,-160.51C457.81,-155.9 485.92,-150.45 510.82,-145.62"/>
<polygon fill="#63b8ff" stroke="#63b8ff" points="511.37,-149.08 520.52,-143.74 510.04,-142.21 511.37,-149.08"/>
</a>
</g>
</g>
<!-- Node16&#45;&gt;Node3 -->
<g id="edge27_Node000016_Node000003" class="edge">
<title>Node16&#45;&gt;Node3</title>
<g id="a_edge27_Node000016_Node000003"><a xlink:title=" ">
<path fill="none" stroke="#63b8ff" d="M1113.4,-333.48C1129.17,-337.84 1147.66,-342.96 1164.4,-347.59"/>
<polygon fill="#63b8ff" stroke="#63b8ff" points="1163.07,-350.85 1173.64,-350.15 1164.93,-344.11 1163.07,-350.85"/>
</a>
</g>
</g>
<!-- Node17&#45;&gt;Node3 -->
<g id="edge29_Node000017_Node000003" class="edge">
<title>Node17&#45;&gt;Node3</title>
<g id="a_edge29_Node000017_Node000003"><a xlink:title=" ">
<path fill="none" stroke="#63b8ff" d="M424.42,-236.52C436.09,-232.82 448.37,-228.04 459,-222 477.61,-211.43 475.28,-198.33 495,-190 601.73,-144.9 639.14,-171 755,-171 755,-171 755,-171 916.25,-171 1022.37,-171 1051.22,-200.83 1135.75,-265 1163.72,-286.23 1187.55,-319.74 1201.03,-341.03"/>
<polygon fill="#63b8ff" stroke="#63b8ff" points="1197.94,-342.68 1206.16,-349.36 1203.9,-339.01 1197.94,-342.68"/>
</a>
</g>
</g>
<!-- Node17&#45;&gt;Node10 -->
<g id="edge31_Node000017_Node000010" class="edge">
<title>Node17&#45;&gt;Node10</title>
<g id="a_edge31_Node000017_Node000010"><a xlink:title=" ">
<path fill="none" stroke="#63b8ff" d="M401.42,-236.54C419.24,-226.81 444.04,-210.7 459,-190 490.12,-146.94 456.04,-112.13 495,-76 503.41,-68.2 514.39,-63.41 525.54,-60.52"/>
<polygon fill="#63b8ff" stroke="#63b8ff" points="526.1,-63.98 535.18,-58.52 524.68,-57.13 526.1,-63.98"/>
</a>
</g>
</g>
<!-- Node17&#45;&gt;Node12 -->
<g id="edge32_Node000017_Node000012" class="edge">
<title>Node17&#45;&gt;Node12</title>
<g id="a_edge32_Node000017_Node000012"><a xlink:title=" ">
<path fill="none" stroke="#63b8ff" d="M432.49,-257.18C456.58,-261.86 485.38,-267.44 510.82,-272.38"/>
<polygon fill="#63b8ff" stroke="#63b8ff" points="509.9,-275.77 520.39,-274.23 511.24,-268.89 509.9,-275.77"/>
</a>
</g>
</g>
<!-- Node17&#45;&gt;Node15 -->
<g id="edge33_Node000017_Node000015" class="edge">
<title>Node17&#45;&gt;Node15</title>
<g id="a_edge33_Node000017_Node000015"><a xlink:title=" ">
<path fill="none" stroke="#63b8ff" d="M432.19,-237.43C441.79,-234 451.22,-229.33 459,-223 484.91,-201.91 469.02,-178.01 495,-157 499.26,-153.55 504,-150.6 508.99,-148.08"/>
<polygon fill="#63b8ff" stroke="#63b8ff" points="510.38,-151.29 518.13,-144.07 507.57,-144.88 510.38,-151.29"/>
</a>
</g>
</g>
<!-- Node18 -->
<g id="Node000018" class="node">
<title>Node18</title>
<g id="a_Node000018"><a xlink:href="namespaceLGE_1_1MetaDB.html#aa5218c5875c7c064fac11782f4ca1783" target="_top" xlink:title=" ">
<polygon fill="white" stroke="#666666" points="651.25,-219 502.5,-219 502.5,-199 651.25,-199 651.25,-219"/>
<text xml:space="preserve" text-anchor="middle" x="576.88" y="-205.5" font-family="Helvetica,sans-Serif" font-size="10.00">LGE::MetaDB::GenerateGUID</text>
</a>
</g>
</g>
<!-- Node17&#45;&gt;Node18 -->
<g id="edge30_Node000017_Node000018" class="edge">
<title>Node17&#45;&gt;Node18</title>
<g id="a_edge30_Node000017_Node000018"><a xlink:title=" ">
<path fill="none" stroke="#63b8ff" d="M432.49,-236.82C456.58,-232.14 485.38,-226.56 510.82,-221.62"/>
<polygon fill="#63b8ff" stroke="#63b8ff" points="511.24,-225.1 520.39,-219.76 509.9,-218.23 511.24,-225.1"/>
</a>
</g>
</g>
<!-- Node19 -->
<g id="Node000019" class="node">
<title>Node19</title>
<g id="a_Node000019"><a xlink:href="namespaceLGE_1_1LxFile.html#a06d0b8c5590da8bc48cf22d321fc4074" target="_top" xlink:title=" ">
<polygon fill="white" stroke="#666666" points="630.62,-257 523.12,-257 523.12,-237 630.62,-237 630.62,-257"/>
<text xml:space="preserve" text-anchor="middle" x="576.88" y="-243.5" font-family="Helvetica,sans-Serif" font-size="10.00">LGE::LxFile::WriteAll</text>
</a>
</g>
</g>
<!-- Node17&#45;&gt;Node19 -->
<g id="edge34_Node000017_Node000019" class="edge">
<title>Node17&#45;&gt;Node19</title>
<g id="a_edge34_Node000017_Node000019"><a xlink:title=" ">
<path fill="none" stroke="#63b8ff" d="M432.49,-247C456.76,-247 485.82,-247 511.41,-247"/>
<polygon fill="#63b8ff" stroke="#63b8ff" points="511.39,-250.5 521.39,-247 511.39,-243.5 511.39,-250.5"/>
</a>
</g>
</g>
<!-- Node19&#45;&gt;Node3 -->
<g id="edge35_Node000019_Node000003" class="edge">
<title>Node19&#45;&gt;Node3</title>
<g id="a_edge35_Node000019_Node000003"><a xlink:title=" ">
<path fill="none" stroke="#63b8ff" d="M630.77,-243.34C732.42,-238.23 960.51,-236.2 1135.75,-304 1158.38,-312.76 1180.24,-330.02 1194.88,-343.26"/>
<polygon fill="#63b8ff" stroke="#63b8ff" points="1192.2,-345.55 1201.89,-349.84 1196.99,-340.45 1192.2,-345.55"/>
</a>
</g>
</g>
<!-- Node19&#45;&gt;Node4 -->
<g id="edge36_Node000019_Node000004" class="edge">
<title>Node19&#45;&gt;Node4</title>
<g id="a_edge36_Node000019_Node000004"><a xlink:title=" ">
<path fill="none" stroke="#63b8ff" d="M630.77,-250.34C641.23,-253.32 651.27,-258.19 658.75,-266 718.19,-328.08 637.67,-391.74 694.75,-456 695.32,-456.64 695.92,-457.27 696.53,-457.87"/>
<polygon fill="#63b8ff" stroke="#63b8ff" points="694.18,-460.48 704.28,-463.68 698.38,-454.88 694.18,-460.48"/>
</a>
</g>
</g>
<!-- Node22 -->
<g id="Node000022" class="node">
<title>Node22</title>
<g id="a_Node000022"><a xlink:href="namespaceLGE_1_1LxPath.html#a94ec3bdfd6948ddc25cda5d18154d4cf" target="_top" xlink:title=" ">
<polygon fill="white" stroke="#666666" points="963.38,-409 867.12,-409 867.12,-389 963.38,-389 963.38,-409"/>
<text xml:space="preserve" text-anchor="middle" x="915.25" y="-395.5" font-family="Helvetica,sans-Serif" font-size="10.00">LGE::LxPath::Join</text>
</a>
</g>
</g>
<!-- Node21&#45;&gt;Node22 -->
<g id="edge39_Node000021_Node000022" class="edge">
<title>Node21&#45;&gt;Node22</title>
<g id="a_edge39_Node000021_Node000022"><a xlink:title=" ">
<path fill="none" stroke="#63b8ff" d="M226.75,-352.42C245.91,-360.2 273.65,-370.26 299,-375 500.45,-412.62 745.23,-407.36 855.46,-402.34"/>
<polygon fill="#63b8ff" stroke="#63b8ff" points="855.31,-405.85 865.13,-401.88 854.98,-398.86 855.31,-405.85"/>
</a>
</g>
</g>
<!-- Node22&#45;&gt;Node6 -->
<g id="edge40_Node000022_Node000006" class="edge">
<title>Node22&#45;&gt;Node6</title>
<g id="a_edge40_Node000022_Node000006"><a xlink:title=" ">
<path fill="none" stroke="#63b8ff" d="M959.64,-409.48C978.03,-413.93 999.66,-419.16 1019.1,-423.85"/>
<polygon fill="#63b8ff" stroke="#63b8ff" points="1018.24,-427.25 1028.78,-426.19 1019.89,-420.44 1018.24,-427.25"/>
</a>
</g>
</g>
</g>
</svg>
