<?xml version="1.0" encoding="UTF-8" standalone="no"?>
<!DOCTYPE svg PUBLIC "-//W3C//DTD SVG 1.1//EN"
 "http://www.w3.org/Graphics/SVG/1.1/DTD/svg11.dtd">
<!-- Generated by graphviz version 14.0.2 (20251019.1705)
 -->
<!-- Title: LGE::PackageMgr::Install Pages: 1 -->
<svg width="973pt" height="459pt"
 viewBox="0.00 0.00 973.00 459.00" xmlns="http://www.w3.org/2000/svg" xmlns:xlink="http://www.w3.org/1999/xlink">
<g id="graph0" class="graph" transform="scale(1 1) rotate(0) translate(4 455.33)">
<title>LGE::PackageMgr::Install</title>
<!-- Node1 -->
<g id="Node000001" class="node">
<title>Node1</title>
<g id="a_Node000001"><a xlink:title=" ">
<polygon fill="#999999" stroke="#666666" points="128.5,-296.45 0,-296.45 0,-276.45 128.5,-276.45 128.5,-296.45"/>
<text xml:space="preserve" text-anchor="middle" x="64.25" y="-282.95" font-family="Helvetica,sans-Serif" font-size="10.00">LGE::PackageMgr::Install</text>
</a>
</g>
</g>
<!-- Node2 -->
<g id="Node000002" class="node">
<title>Node2</title>
<g id="a_Node000002"><a xlink:href="namespaceLGE_1_1PackageMgr.html#a2138962562e438984a747c5f878442fc" target="_top" xlink:title=" ">
<polygon fill="white" stroke="#666666" points="504.38,-373.45 370.62,-373.45 370.62,-341.45 504.38,-341.45 504.38,-373.45"/>
<text xml:space="preserve" text-anchor="start" x="378.62" y="-359.95" font-family="Helvetica,sans-Serif" font-size="10.00">LGE::PackageMgr::Extract</text>
<text xml:space="preserve" text-anchor="middle" x="437.5" y="-347.95" font-family="Helvetica,sans-Serif" font-size="10.00">Package</text>
</a>
</g>
</g>
<!-- Node1&#45;&gt;Node2 -->
<g id="edge1_Node000001_Node000002" class="edge">
<title>Node1&#45;&gt;Node2</title>
<g id="a_edge1_Node000001_Node000002"><a xlink:title=" ">
<path fill="none" stroke="#63b8ff" d="M119.85,-296.91C134.36,-299.68 150.03,-302.68 164.5,-305.45 230.08,-318 304.55,-332.23 358.97,-342.63"/>
<polygon fill="#63b8ff" stroke="#63b8ff" points="358.3,-346.07 368.78,-344.51 359.61,-339.19 358.3,-346.07"/>
</a>
</g>
</g>
<!-- Node7 -->
<g id="Node000007" class="node">
<title>Node7</title>
<g id="a_Node000007"><a xlink:href="classLGE_1_1Log.html#ab0265ee050b8873a2fd31fbdb696ced0" target="_top" xlink:title=" ">
<polygon fill="white" stroke="#666666" points="664.38,-200.45 584.62,-200.45 584.62,-180.45 664.38,-180.45 664.38,-200.45"/>
<text xml:space="preserve" text-anchor="middle" x="624.5" y="-186.95" font-family="Helvetica,sans-Serif" font-size="10.00">LGE::Log::Info</text>
</a>
</g>
</g>
<!-- Node1&#45;&gt;Node7 -->
<g id="edge11_Node000001_Node000007" class="edge">
<title>Node1&#45;&gt;Node7</title>
<g id="a_edge11_Node000001_Node000007"><a xlink:title=" ">
<path fill="none" stroke="#63b8ff" d="M67.81,-276.35C75.97,-246.44 104.45,-158.06 164.5,-120.45 232.89,-77.62 453.33,-72.09 527.25,-104.45 548.86,-113.91 545.89,-127.48 563.25,-143.45 574.77,-154.05 588.46,-164.86 599.88,-173.44"/>
<polygon fill="#63b8ff" stroke="#63b8ff" points="597.51,-176.03 607.63,-179.16 601.67,-170.4 597.51,-176.03"/>
</a>
</g>
</g>
<!-- Node8 -->
<g id="Node000008" class="node">
<title>Node8</title>
<g id="a_Node000008"><a xlink:href="namespaceLGE_1_1LxPath.html#a94ec3bdfd6948ddc25cda5d18154d4cf" target="_top" xlink:title=" ">
<polygon fill="white" stroke="#666666" points="672.62,-272.45 576.38,-272.45 576.38,-252.45 672.62,-252.45 672.62,-272.45"/>
<text xml:space="preserve" text-anchor="middle" x="624.5" y="-258.95" font-family="Helvetica,sans-Serif" font-size="10.00">LGE::LxPath::Join</text>
</a>
</g>
</g>
<!-- Node1&#45;&gt;Node8 -->
<g id="edge25_Node000001_Node000008" class="edge">
<title>Node1&#45;&gt;Node8</title>
<g id="a_edge25_Node000001_Node000008"><a xlink:title=" ">
<path fill="none" stroke="#63b8ff" d="M113.26,-275.96C129.46,-272.77 147.7,-269.55 164.5,-267.45 324.55,-247.41 366.03,-251.43 527.25,-256.45 539.42,-256.83 552.45,-257.48 564.86,-258.21"/>
<polygon fill="#63b8ff" stroke="#63b8ff" points="564.33,-261.69 574.53,-258.81 564.76,-254.7 564.33,-261.69"/>
</a>
</g>
</g>
<!-- Node9 -->
<g id="Node000009" class="node">
<title>Node9</title>
<g id="a_Node000009"><a xlink:href="classLGE_1_1Log.html#aa6f98018af29c23dd7f574d3df5dda5e" target="_top" xlink:title=" ">
<polygon fill="white" stroke="#666666" points="667.38,-386.45 581.62,-386.45 581.62,-366.45 667.38,-366.45 667.38,-386.45"/>
<text xml:space="preserve" text-anchor="middle" x="624.5" y="-372.95" font-family="Helvetica,sans-Serif" font-size="10.00">LGE::Log::Warn</text>
</a>
</g>
</g>
<!-- Node1&#45;&gt;Node9 -->
<g id="edge29_Node000001_Node000009" class="edge">
<title>Node1&#45;&gt;Node9</title>
<g id="a_edge29_Node000001_Node000009"><a xlink:title=" ">
<path fill="none" stroke="#63b8ff" d="M84.98,-296.8C104.72,-306.85 136.14,-322.09 164.5,-332.45 243.8,-361.41 264.08,-371.24 347.75,-382.45 426.82,-393.04 447.51,-384.93 527.25,-382.45 541.11,-382.02 556.07,-381.24 569.98,-380.38"/>
<polygon fill="#63b8ff" stroke="#63b8ff" points="570.1,-383.88 579.85,-379.74 569.65,-376.89 570.1,-383.88"/>
</a>
</g>
</g>
<!-- Node10 -->
<g id="Node000010" class="node">
<title>Node10</title>
<g id="a_Node000010"><a xlink:href="namespaceLGE_1_1VFS.html#a5cea8543475162be752c71971f1f4e85" target="_top" xlink:title=" ">
<polygon fill="white" stroke="#666666" points="305.38,-161.45 170.88,-161.45 170.88,-129.45 305.38,-129.45 305.38,-161.45"/>
<text xml:space="preserve" text-anchor="start" x="178.88" y="-147.95" font-family="Helvetica,sans-Serif" font-size="10.00">LGE::VFS::InitializeDefault</text>
<text xml:space="preserve" text-anchor="middle" x="238.12" y="-135.95" font-family="Helvetica,sans-Serif" font-size="10.00">Mounts</text>
</a>
</g>
</g>
<!-- Node1&#45;&gt;Node10 -->
<g id="edge12_Node000001_Node000010" class="edge">
<title>Node1&#45;&gt;Node10</title>
<g id="a_edge12_Node000001_Node000010"><a xlink:title=" ">
<path fill="none" stroke="#63b8ff" d="M77.89,-276.08C105.3,-253.59 170.82,-199.85 208.72,-168.75"/>
<polygon fill="#63b8ff" stroke="#63b8ff" points="210.59,-171.75 216.1,-162.7 206.15,-166.34 210.59,-171.75"/>
</a>
</g>
</g>
<!-- Node14 -->
<g id="Node000014" class="node">
<title>Node14</title>
<g id="a_Node000014"><a xlink:href="namespaceLGE_1_1PackageMgr.html#a4477becfa2c6a4400116b840de1382c4" target="_top" xlink:title=" ">
<polygon fill="white" stroke="#666666" points="311.75,-296.45 164.5,-296.45 164.5,-276.45 311.75,-276.45 311.75,-296.45"/>
<text xml:space="preserve" text-anchor="middle" x="238.12" y="-282.95" font-family="Helvetica,sans-Serif" font-size="10.00">LGE::PackageMgr::IsInstalled</text>
</a>
</g>
</g>
<!-- Node1&#45;&gt;Node14 -->
<g id="edge21_Node000001_Node000014" class="edge">
<title>Node1&#45;&gt;Node14</title>
<g id="a_edge21_Node000001_Node000014"><a xlink:title=" ">
<path fill="none" stroke="#63b8ff" d="M128.76,-286.45C136.56,-286.45 144.63,-286.45 152.67,-286.45"/>
<polygon fill="#63b8ff" stroke="#63b8ff" points="152.5,-289.95 162.5,-286.45 152.5,-282.95 152.5,-289.95"/>
</a>
</g>
</g>
<!-- Node16 -->
<g id="Node000016" class="node">
<title>Node16</title>
<g id="a_Node000016"><a xlink:href="namespaceLGE_1_1PackageMgr.html#abe03679a0449f67f7d5ec4878b54a047" target="_top" xlink:title=" ">
<polygon fill="white" stroke="#666666" points="527.25,-449.45 347.75,-449.45 347.75,-429.45 527.25,-429.45 527.25,-449.45"/>
<text xml:space="preserve" text-anchor="middle" x="437.5" y="-435.95" font-family="Helvetica,sans-Serif" font-size="10.00">LGE::PackageMgr::SavePackageInfo</text>
</a>
</g>
</g>
<!-- Node1&#45;&gt;Node16 -->
<g id="edge26_Node000001_Node000016" class="edge">
<title>Node1&#45;&gt;Node16</title>
<g id="a_edge26_Node000001_Node000016"><a xlink:title=" ">
<path fill="none" stroke="#63b8ff" d="M69.61,-296.83C80.94,-322.28 113.95,-387.74 164.5,-415.45 216.31,-443.85 282.14,-450.29 336.06,-449.42"/>
<polygon fill="#63b8ff" stroke="#63b8ff" points="335.96,-452.92 345.87,-449.16 335.78,-445.92 335.96,-452.92"/>
</a>
</g>
</g>
<!-- Node3 -->
<g id="Node000003" class="node">
<title>Node3</title>
<g id="a_Node000003"><a xlink:href="classLGE_1_1Log.html#a53f3f4b8797ffd18145739c9e66d690a" target="_top" xlink:title=" ">
<polygon fill="white" stroke="#666666" points="964.5,-272.45 880.25,-272.45 880.25,-252.45 964.5,-252.45 964.5,-272.45"/>
<text xml:space="preserve" text-anchor="middle" x="922.38" y="-258.95" font-family="Helvetica,sans-Serif" font-size="10.00">LGE::Log::Error</text>
</a>
</g>
</g>
<!-- Node2&#45;&gt;Node3 -->
<g id="edge2_Node000002_Node000003" class="edge">
<title>Node2&#45;&gt;Node3</title>
<g id="a_edge2_Node000002_Node000003"><a xlink:title=" ">
<path fill="none" stroke="#63b8ff" d="M504.87,-348.77C554.8,-341.87 624.81,-331.42 685.75,-319.45 756.83,-305.49 773.86,-298.56 844.25,-281.45 852.17,-279.52 860.55,-277.48 868.75,-275.46"/>
<polygon fill="#63b8ff" stroke="#63b8ff" points="869.42,-278.9 878.29,-273.11 867.74,-272.1 869.42,-278.9"/>
</a>
</g>
</g>
<!-- Node4 -->
<g id="Node000004" class="node">
<title>Node4</title>
<g id="a_Node000004"><a xlink:href="namespaceLGE_1_1LxFile.html#a11e62876b312a11b881b484bb3a5ee71" target="_top" xlink:title=" ">
<polygon fill="white" stroke="#666666" points="675.25,-310.45 573.75,-310.45 573.75,-290.45 675.25,-290.45 675.25,-310.45"/>
<text xml:space="preserve" text-anchor="middle" x="624.5" y="-296.95" font-family="Helvetica,sans-Serif" font-size="10.00">LGE::LxFile::Exists</text>
</a>
</g>
</g>
<!-- Node2&#45;&gt;Node4 -->
<g id="edge3_Node000002_Node000004" class="edge">
<title>Node2&#45;&gt;Node4</title>
<g id="a_edge3_Node000002_Node000004"><a xlink:title=" ">
<path fill="none" stroke="#63b8ff" d="M492.01,-340.96C519.56,-332.48 552.75,-322.25 578.89,-314.19"/>
<polygon fill="#63b8ff" stroke="#63b8ff" points="579.65,-317.62 588.18,-311.33 577.59,-310.93 579.65,-317.62"/>
</a>
</g>
</g>
<!-- Node5 -->
<g id="Node000005" class="node">
<title>Node5</title>
<g id="a_Node000005"><a xlink:href="namespaceLGE_1_1LxPath.html#aefae4d45f84718077f5218f64d2f074c" target="_top" xlink:title=" ">
<polygon fill="white" stroke="#666666" points="685.75,-424.45 563.25,-424.45 563.25,-404.45 685.75,-404.45 685.75,-424.45"/>
<text xml:space="preserve" text-anchor="middle" x="624.5" y="-410.95" font-family="Helvetica,sans-Serif" font-size="10.00">LGE::LxPath::GetParent</text>
</a>
</g>
</g>
<!-- Node2&#45;&gt;Node5 -->
<g id="edge4_Node000002_Node000005" class="edge">
<title>Node2&#45;&gt;Node5</title>
<g id="a_edge4_Node000002_Node000005"><a xlink:title=" ">
<path fill="none" stroke="#63b8ff" d="M492.01,-373.94C519.56,-382.42 552.75,-392.65 578.89,-400.71"/>
<polygon fill="#63b8ff" stroke="#63b8ff" points="577.59,-403.97 588.18,-403.57 579.65,-397.28 577.59,-403.97"/>
</a>
</g>
</g>
<!-- Node2&#45;&gt;Node7 -->
<g id="edge7_Node000002_Node000007" class="edge">
<title>Node2&#45;&gt;Node7</title>
<g id="a_edge7_Node000002_Node000007"><a xlink:title=" ">
<path fill="none" stroke="#63b8ff" d="M466.35,-341.15C484.84,-329.53 508.97,-312.78 527.25,-294.45 546.84,-274.81 544.71,-264.09 563.25,-243.45 574.86,-230.53 589.45,-217.63 601.37,-207.78"/>
<polygon fill="#63b8ff" stroke="#63b8ff" points="603.49,-210.57 609.06,-201.56 599.09,-205.13 603.49,-210.57"/>
</a>
</g>
</g>
<!-- Node2&#45;&gt;Node8 -->
<g id="edge8_Node000002_Node000008" class="edge">
<title>Node2&#45;&gt;Node8</title>
<g id="a_edge8_Node000002_Node000008"><a xlink:title=" ">
<path fill="none" stroke="#63b8ff" d="M461.48,-341.11C485.82,-324.36 525.84,-298.44 563.25,-281.45 566.96,-279.76 570.87,-278.17 574.83,-276.67"/>
<polygon fill="#63b8ff" stroke="#63b8ff" points="575.69,-280.08 583.94,-273.44 573.35,-273.48 575.69,-280.08"/>
</a>
</g>
</g>
<!-- Node2&#45;&gt;Node9 -->
<g id="edge10_Node000002_Node000009" class="edge">
<title>Node2&#45;&gt;Node9</title>
<g id="a_edge10_Node000002_Node000009"><a xlink:title=" ">
<path fill="none" stroke="#63b8ff" d="M504.77,-364.26C526.19,-366.46 549.65,-368.87 570.03,-370.96"/>
<polygon fill="#63b8ff" stroke="#63b8ff" points="569.5,-374.42 579.8,-371.96 570.21,-367.46 569.5,-374.42"/>
</a>
</g>
</g>
<!-- Node6 -->
<g id="Node000006" class="node">
<title>Node6</title>
<g id="a_Node000006"><a xlink:href="namespaceLGE_1_1LxPath.html#a314a60ce690c90f4ee0b4e64c0199408" target="_top" xlink:title=" ">
<polygon fill="white" stroke="#666666" points="844.25,-272.45 721.75,-272.45 721.75,-252.45 844.25,-252.45 844.25,-272.45"/>
<text xml:space="preserve" text-anchor="middle" x="783" y="-258.95" font-family="Helvetica,sans-Serif" font-size="10.00">LGE::LxPath::Normalize</text>
</a>
</g>
</g>
<!-- Node5&#45;&gt;Node6 -->
<g id="edge5_Node000005_Node000006" class="edge">
<title>Node5&#45;&gt;Node6</title>
<g id="a_edge5_Node000005_Node000006"><a xlink:title=" ">
<path fill="none" stroke="#63b8ff" d="M670.18,-403.97C675.69,-401.66 681.04,-398.85 685.75,-395.45 727.18,-365.57 757.77,-312.35 772.4,-283.11"/>
<polygon fill="#63b8ff" stroke="#63b8ff" points="775.5,-284.73 776.71,-274.2 769.2,-281.68 775.5,-284.73"/>
</a>
</g>
</g>
<!-- Node6&#45;&gt;Node3 -->
<g id="edge6_Node000006_Node000003" class="edge">
<title>Node6&#45;&gt;Node3</title>
<g id="a_edge6_Node000006_Node000003"><a xlink:title=" ">
<path fill="none" stroke="#63b8ff" d="M844.65,-262.45C852.67,-262.45 860.84,-262.45 868.7,-262.45"/>
<polygon fill="#63b8ff" stroke="#63b8ff" points="868.45,-265.95 878.45,-262.45 868.45,-258.95 868.45,-265.95"/>
</a>
</g>
</g>
<!-- Node8&#45;&gt;Node6 -->
<g id="edge9_Node000008_Node000006" class="edge">
<title>Node8&#45;&gt;Node6</title>
<g id="a_edge9_Node000008_Node000006"><a xlink:title=" ">
<path fill="none" stroke="#63b8ff" d="M672.88,-262.45C684.59,-262.45 697.4,-262.45 709.99,-262.45"/>
<polygon fill="#63b8ff" stroke="#63b8ff" points="709.94,-265.95 719.94,-262.45 709.94,-258.95 709.94,-265.95"/>
</a>
</g>
</g>
<!-- Node10&#45;&gt;Node3 -->
<g id="edge13_Node000010_Node000003" class="edge">
<title>Node10&#45;&gt;Node3</title>
<g id="a_edge13_Node000010_Node000003"><a xlink:title=" ">
<path fill="none" stroke="#63b8ff" d="M248.19,-129.05C264.18,-102.05 300.24,-49.17 347.75,-28.45 485.74,31.73 538.61,-18.61 685.75,-50.45 757.56,-65.99 788.57,-49.51 844.25,-97.45 889.05,-136.03 909.55,-206.26 917.35,-241.34"/>
<polygon fill="#63b8ff" stroke="#63b8ff" points="913.83,-241.61 919.29,-250.69 920.68,-240.18 913.83,-241.61"/>
</a>
</g>
</g>
<!-- Node10&#45;&gt;Node7 -->
<g id="edge14_Node000010_Node000007" class="edge">
<title>Node10&#45;&gt;Node7</title>
<g id="a_edge14_Node000010_Node000007"><a xlink:title=" ">
<path fill="none" stroke="#63b8ff" d="M281,-161.93C300.9,-168.98 325.21,-176.49 347.75,-180.45 425.5,-194.11 517.4,-194.33 573.03,-192.75"/>
<polygon fill="#63b8ff" stroke="#63b8ff" points="572.93,-196.26 582.82,-192.44 572.71,-189.26 572.93,-196.26"/>
</a>
</g>
</g>
<!-- Node11 -->
<g id="Node000011" class="node">
<title>Node11</title>
<g id="a_Node000011"><a xlink:href="namespaceLGE_1_1LxFS.html#a5684a30f3fa2906f4dafed0258a79166" target="_top" xlink:title=" ">
<polygon fill="white" stroke="#666666" points="497.62,-171.45 377.38,-171.45 377.38,-151.45 497.62,-151.45 497.62,-171.45"/>
<text xml:space="preserve" text-anchor="middle" x="437.5" y="-157.95" font-family="Helvetica,sans-Serif" font-size="10.00">LGE::LxFS::IsInitialized</text>
</a>
</g>
</g>
<!-- Node10&#45;&gt;Node11 -->
<g id="edge15_Node000010_Node000011" class="edge">
<title>Node10&#45;&gt;Node11</title>
<g id="a_edge15_Node000010_Node000011"><a xlink:title=" ">
<path fill="none" stroke="#63b8ff" d="M305.67,-150.85C325.04,-152.41 346.26,-154.14 365.86,-155.72"/>
<polygon fill="#63b8ff" stroke="#63b8ff" points="365.44,-159.2 375.69,-156.52 366,-152.22 365.44,-159.2"/>
</a>
</g>
</g>
<!-- Node12 -->
<g id="Node000012" class="node">
<title>Node12</title>
<g id="a_Node000012"><a xlink:href="namespaceLGE_1_1VFS.html#a54b012d377481aa3685b372a196259ed" target="_top" xlink:title=" ">
<polygon fill="white" stroke="#666666" points="494.62,-57.45 380.38,-57.45 380.38,-37.45 494.62,-37.45 494.62,-57.45"/>
<text xml:space="preserve" text-anchor="middle" x="437.5" y="-43.95" font-family="Helvetica,sans-Serif" font-size="10.00">LGE::VFS::MountPath</text>
</a>
</g>
</g>
<!-- Node10&#45;&gt;Node12 -->
<g id="edge16_Node000010_Node000012" class="edge">
<title>Node10&#45;&gt;Node12</title>
<g id="a_edge16_Node000010_Node000012"><a xlink:title=" ">
<path fill="none" stroke="#63b8ff" d="M272.16,-129.05C309.32,-110.6 369.2,-80.87 405.5,-62.84"/>
<polygon fill="#63b8ff" stroke="#63b8ff" points="406.76,-66.13 414.16,-58.54 403.65,-59.86 406.76,-66.13"/>
</a>
</g>
</g>
<!-- Node13 -->
<g id="Node000013" class="node">
<title>Node13</title>
<g id="a_Node000013"><a xlink:href="namespaceLGE_1_1LxFS.html#a12aeb6699602f14153953dceb4284914" target="_top" xlink:title=" ">
<polygon fill="white" stroke="#666666" points="485.62,-133.45 389.38,-133.45 389.38,-113.45 485.62,-113.45 485.62,-133.45"/>
<text xml:space="preserve" text-anchor="middle" x="437.5" y="-119.95" font-family="Helvetica,sans-Serif" font-size="10.00">LGE::LxFS::Paths</text>
</a>
</g>
</g>
<!-- Node10&#45;&gt;Node13 -->
<g id="edge20_Node000010_Node000013" class="edge">
<title>Node10&#45;&gt;Node13</title>
<g id="a_edge20_Node000010_Node000013"><a xlink:title=" ">
<path fill="none" stroke="#63b8ff" d="M305.67,-138.03C329.03,-135.43 355.09,-132.52 377.76,-130"/>
<polygon fill="#63b8ff" stroke="#63b8ff" points="377.88,-133.51 387.43,-128.92 377.1,-126.55 377.88,-133.51"/>
</a>
</g>
</g>
<!-- Node12&#45;&gt;Node3 -->
<g id="edge17_Node000012_Node000003" class="edge">
<title>Node12&#45;&gt;Node3</title>
<g id="a_edge17_Node000012_Node000003"><a xlink:title=" ">
<path fill="none" stroke="#63b8ff" d="M494.63,-48.02C546.17,-50.32 623.73,-58.39 685.75,-84.45 778.52,-123.43 867.54,-207.26 904.03,-244.27"/>
<polygon fill="#63b8ff" stroke="#63b8ff" points="901.23,-246.41 910.71,-251.13 906.24,-241.52 901.23,-246.41"/>
</a>
</g>
</g>
<!-- Node12&#45;&gt;Node6 -->
<g id="edge19_Node000012_Node000006" class="edge">
<title>Node12&#45;&gt;Node6</title>
<g id="a_edge19_Node000012_Node000006"><a xlink:title=" ">
<path fill="none" stroke="#63b8ff" d="M487.3,-57.85C500.54,-61.42 514.68,-65.94 527.25,-71.45 603.52,-104.92 619.95,-120.38 685.75,-171.45 715.23,-194.34 746.02,-224.78 764.6,-244"/>
<polygon fill="#63b8ff" stroke="#63b8ff" points="761.97,-246.31 771.42,-251.12 767.03,-241.47 761.97,-246.31"/>
</a>
</g>
</g>
<!-- Node12&#45;&gt;Node7 -->
<g id="edge18_Node000012_Node000007" class="edge">
<title>Node12&#45;&gt;Node7</title>
<g id="a_edge18_Node000012_Node000007"><a xlink:title=" ">
<path fill="none" stroke="#63b8ff" d="M494.88,-55.96C506.32,-59.47 517.75,-64.44 527.25,-71.45 551.36,-89.24 544.71,-104.91 563.25,-128.45 575.66,-144.2 591.52,-160.39 603.85,-172.28"/>
<polygon fill="#63b8ff" stroke="#63b8ff" points="601.35,-174.73 611.01,-179.07 606.16,-169.65 601.35,-174.73"/>
</a>
</g>
</g>
<!-- Node14&#45;&gt;Node4 -->
<g id="edge22_Node000014_Node000004" class="edge">
<title>Node14&#45;&gt;Node4</title>
<g id="a_edge22_Node000014_Node000004"><a xlink:title=" ">
<path fill="none" stroke="#63b8ff" d="M312.13,-292.35C324.03,-293.16 336.23,-293.9 347.75,-294.45 421.32,-297.96 506.02,-299.42 561.93,-300.02"/>
<polygon fill="#63b8ff" stroke="#63b8ff" points="561.86,-303.52 571.89,-300.12 561.93,-296.52 561.86,-303.52"/>
</a>
</g>
</g>
<!-- Node15 -->
<g id="Node000015" class="node">
<title>Node15</title>
<g id="a_Node000015"><a xlink:href="namespaceLGE_1_1PackageMgr.html#af9777ef900622c9d1604a6c8dc27559c" target="_top" xlink:title=" ">
<polygon fill="white" stroke="#666666" points="525.75,-285.45 349.25,-285.45 349.25,-265.45 525.75,-265.45 525.75,-285.45"/>
<text xml:space="preserve" text-anchor="middle" x="437.5" y="-271.95" font-family="Helvetica,sans-Serif" font-size="10.00">LGE::PackageMgr::GetPackagePath</text>
</a>
</g>
</g>
<!-- Node14&#45;&gt;Node15 -->
<g id="edge23_Node000014_Node000015" class="edge">
<title>Node14&#45;&gt;Node15</title>
<g id="a_edge23_Node000014_Node000015"><a xlink:title=" ">
<path fill="none" stroke="#63b8ff" d="M312.06,-282.39C320.38,-281.92 328.97,-281.44 337.56,-280.96"/>
<polygon fill="#63b8ff" stroke="#63b8ff" points="337.52,-284.47 347.31,-280.42 337.13,-277.48 337.52,-284.47"/>
</a>
</g>
</g>
<!-- Node15&#45;&gt;Node8 -->
<g id="edge24_Node000015_Node000008" class="edge">
<title>Node15&#45;&gt;Node8</title>
<g id="a_edge24_Node000015_Node000008"><a xlink:title=" ">
<path fill="none" stroke="#63b8ff" d="M526.12,-269.29C539.15,-268.38 552.3,-267.45 564.54,-266.59"/>
<polygon fill="#63b8ff" stroke="#63b8ff" points="564.73,-270.09 574.46,-265.9 564.24,-263.11 564.73,-270.09"/>
</a>
</g>
</g>
<!-- Node16&#45;&gt;Node3 -->
<g id="edge27_Node000016_Node000003" class="edge">
<title>Node16&#45;&gt;Node3</title>
<g id="a_edge27_Node000016_Node000003"><a xlink:title=" ">
<path fill="none" stroke="#63b8ff" d="M527.69,-449.91C575.73,-452.44 635.31,-450.5 685.75,-433.45 779.73,-401.68 868.1,-318.11 904.23,-280.85"/>
<polygon fill="#63b8ff" stroke="#63b8ff" points="906.46,-283.57 910.84,-273.92 901.4,-278.74 906.46,-283.57"/>
</a>
</g>
</g>
<!-- Node16&#45;&gt;Node5 -->
<g id="edge28_Node000016_Node000005" class="edge">
<title>Node16&#45;&gt;Node5</title>
<g id="a_edge28_Node000016_Node000005"><a xlink:title=" ">
<path fill="none" stroke="#63b8ff" d="M516.15,-428.96C527.99,-427.36 540.16,-425.71 551.87,-424.13"/>
<polygon fill="#63b8ff" stroke="#63b8ff" points="551.98,-427.65 561.42,-422.84 551.04,-420.71 551.98,-427.65"/>
</a>
</g>
</g>
</g>
</svg>
