<?xml version="1.0" encoding="UTF-8" standalone="no"?>
<!DOCTYPE svg PUBLIC "-//W3C//DTD SVG 1.1//EN"
 "http://www.w3.org/Graphics/SVG/1.1/DTD/svg11.dtd">
<!-- Generated by graphviz version 14.0.2 (20251019.1705)
 -->
<!-- Title: LGE::LxPath::ToRelative Pages: 1 -->
<svg width="572pt" height="180pt"
 viewBox="0.00 0.00 572.00 180.00" xmlns="http://www.w3.org/2000/svg" xmlns:xlink="http://www.w3.org/1999/xlink">
<g id="graph0" class="graph" transform="scale(1 1) rotate(0) translate(4 176)">
<title>LGE::LxPath::ToRelative</title>
<!-- Node1 -->
<g id="Node000001" class="node">
<title>Node1</title>
<g id="a_Node000001"><a xlink:title=" ">
<polygon fill="#999999" stroke="#666666" points="124.75,-96 0,-96 0,-76 124.75,-76 124.75,-96"/>
<text xml:space="preserve" text-anchor="middle" x="62.38" y="-82.5" font-family="Helvetica,sans-Serif" font-size="10.00">LGE::LxPath::ToRelative</text>
</a>
</g>
</g>
<!-- Node2 -->
<g id="Node000002" class="node">
<title>Node2</title>
<g id="a_Node000002"><a xlink:href="namespaceLGE_1_1LxFS.html#a5684a30f3fa2906f4dafed0258a79166" target="_top" xlink:title=" ">
<polygon fill="white" stroke="#666666" points="282.88,-172 162.62,-172 162.62,-152 282.88,-152 282.88,-172"/>
<text xml:space="preserve" text-anchor="middle" x="222.75" y="-158.5" font-family="Helvetica,sans-Serif" font-size="10.00">LGE::LxFS::IsInitialized</text>
</a>
</g>
</g>
<!-- Node1&#45;&gt;Node2 -->
<g id="edge1_Node000001_Node000002" class="edge">
<title>Node1&#45;&gt;Node2</title>
<g id="a_edge1_Node000001_Node000002"><a xlink:title=" ">
<path fill="none" stroke="#63b8ff" d="M78.65,-96.42C97.34,-108.83 130.29,-129.55 160.75,-143 164.58,-144.69 168.6,-146.29 172.68,-147.8"/>
<polygon fill="#63b8ff" stroke="#63b8ff" points="171.49,-151.09 182.08,-151.06 173.78,-144.48 171.49,-151.09"/>
</a>
</g>
</g>
<!-- Node3 -->
<g id="Node000003" class="node">
<title>Node3</title>
<g id="a_Node000003"><a xlink:href="namespaceLGE_1_1LxPath.html#ab664986e94ce09aa029f9eb2fcf50133" target="_top" xlink:title=" ">
<polygon fill="white" stroke="#666666" points="284.75,-134 160.75,-134 160.75,-114 284.75,-114 284.75,-134"/>
<text xml:space="preserve" text-anchor="middle" x="222.75" y="-120.5" font-family="Helvetica,sans-Serif" font-size="10.00">LGE::LxPath::IsSubPath</text>
</a>
</g>
</g>
<!-- Node1&#45;&gt;Node3 -->
<g id="edge2_Node000001_Node000003" class="edge">
<title>Node1&#45;&gt;Node3</title>
<g id="a_edge2_Node000001_Node000003"><a xlink:title=" ">
<path fill="none" stroke="#63b8ff" d="M107.07,-96.48C125.68,-100.95 147.59,-106.21 167.24,-110.92"/>
<polygon fill="#63b8ff" stroke="#63b8ff" points="166.18,-114.27 176.72,-113.2 167.82,-107.46 166.18,-114.27"/>
</a>
</g>
</g>
<!-- Node4 -->
<g id="Node000004" class="node">
<title>Node4</title>
<g id="a_Node000004"><a xlink:href="namespaceLGE_1_1LxPath.html#a314a60ce690c90f4ee0b4e64c0199408" target="_top" xlink:title=" ">
<polygon fill="white" stroke="#666666" points="443.25,-115 320.75,-115 320.75,-95 443.25,-95 443.25,-115"/>
<text xml:space="preserve" text-anchor="middle" x="382" y="-101.5" font-family="Helvetica,sans-Serif" font-size="10.00">LGE::LxPath::Normalize</text>
</a>
</g>
</g>
<!-- Node1&#45;&gt;Node4 -->
<g id="edge5_Node000001_Node000004" class="edge">
<title>Node1&#45;&gt;Node4</title>
<g id="a_edge5_Node000001_Node000004"><a xlink:title=" ">
<path fill="none" stroke="#63b8ff" d="M124.99,-89.69C177.74,-92.84 253.72,-97.39 309.2,-100.71"/>
<polygon fill="#63b8ff" stroke="#63b8ff" points="308.66,-104.18 318.85,-101.28 309.08,-97.19 308.66,-104.18"/>
</a>
</g>
</g>
<!-- Node6 -->
<g id="Node000006" class="node">
<title>Node6</title>
<g id="a_Node000006"><a xlink:href="namespaceLGE_1_1LxFS.html#a12aeb6699602f14153953dceb4284914" target="_top" xlink:title=" ">
<polygon fill="white" stroke="#666666" points="270.88,-58 174.62,-58 174.62,-38 270.88,-38 270.88,-58"/>
<text xml:space="preserve" text-anchor="middle" x="222.75" y="-44.5" font-family="Helvetica,sans-Serif" font-size="10.00">LGE::LxFS::Paths</text>
</a>
</g>
</g>
<!-- Node1&#45;&gt;Node6 -->
<g id="edge6_Node000001_Node000006" class="edge">
<title>Node1&#45;&gt;Node6</title>
<g id="a_edge6_Node000001_Node000006"><a xlink:title=" ">
<path fill="none" stroke="#63b8ff" d="M107.07,-75.52C125.68,-71.05 147.59,-65.79 167.24,-61.08"/>
<polygon fill="#63b8ff" stroke="#63b8ff" points="167.82,-64.54 176.72,-58.8 166.18,-57.73 167.82,-64.54"/>
</a>
</g>
</g>
<!-- Node7 -->
<g id="Node000007" class="node">
<title>Node7</title>
<g id="a_Node000007"><a xlink:href="classLGE_1_1Log.html#aa6f98018af29c23dd7f574d3df5dda5e" target="_top" xlink:title=" ">
<polygon fill="white" stroke="#666666" points="265.62,-20 179.88,-20 179.88,0 265.62,0 265.62,-20"/>
<text xml:space="preserve" text-anchor="middle" x="222.75" y="-6.5" font-family="Helvetica,sans-Serif" font-size="10.00">LGE::Log::Warn</text>
</a>
</g>
</g>
<!-- Node1&#45;&gt;Node7 -->
<g id="edge7_Node000001_Node000007" class="edge">
<title>Node1&#45;&gt;Node7</title>
<g id="a_edge7_Node000001_Node000007"><a xlink:title=" ">
<path fill="none" stroke="#63b8ff" d="M78.65,-75.58C97.34,-63.17 130.29,-42.45 160.75,-29 164.58,-27.31 168.6,-25.71 172.68,-24.2"/>
<polygon fill="#63b8ff" stroke="#63b8ff" points="173.78,-27.52 182.08,-20.94 171.49,-20.91 173.78,-27.52"/>
</a>
</g>
</g>
<!-- Node3&#45;&gt;Node4 -->
<g id="edge3_Node000003_Node000004" class="edge">
<title>Node3&#45;&gt;Node4</title>
<g id="a_edge3_Node000003_Node000004"><a xlink:title=" ">
<path fill="none" stroke="#63b8ff" d="M285,-116.6C292.91,-115.64 301.07,-114.66 309.13,-113.68"/>
<polygon fill="#63b8ff" stroke="#63b8ff" points="309.43,-117.17 318.93,-112.5 308.59,-110.22 309.43,-117.17"/>
</a>
</g>
</g>
<!-- Node5 -->
<g id="Node000005" class="node">
<title>Node5</title>
<g id="a_Node000005"><a xlink:href="classLGE_1_1Log.html#a53f3f4b8797ffd18145739c9e66d690a" target="_top" xlink:title=" ">
<polygon fill="white" stroke="#666666" points="563.5,-115 479.25,-115 479.25,-95 563.5,-95 563.5,-115"/>
<text xml:space="preserve" text-anchor="middle" x="521.38" y="-101.5" font-family="Helvetica,sans-Serif" font-size="10.00">LGE::Log::Error</text>
</a>
</g>
</g>
<!-- Node4&#45;&gt;Node5 -->
<g id="edge4_Node000004_Node000005" class="edge">
<title>Node4&#45;&gt;Node5</title>
<g id="a_edge4_Node000004_Node000005"><a xlink:title=" ">
<path fill="none" stroke="#63b8ff" d="M443.65,-105C451.67,-105 459.84,-105 467.7,-105"/>
<polygon fill="#63b8ff" stroke="#63b8ff" points="467.45,-108.5 477.45,-105 467.45,-101.5 467.45,-108.5"/>
</a>
</g>
</g>
</g>
</svg>
