<?xml version="1.0" encoding="UTF-8" standalone="no"?>
<!DOCTYPE svg PUBLIC "-//W3C//DTD SVG 1.1//EN"
 "http://www.w3.org/Graphics/SVG/1.1/DTD/svg11.dtd">
<!-- Generated by graphviz version 14.0.2 (20251019.1705)
 -->
<!-- Title: LGE::PackageMgr::IsInstalled Pages: 1 -->
<svg width="346pt" height="142pt"
 viewBox="0.00 0.00 346.00 142.00" xmlns="http://www.w3.org/2000/svg" xmlns:xlink="http://www.w3.org/1999/xlink">
<g id="graph0" class="graph" transform="scale(1 1) rotate(0) translate(4 138)">
<title>LGE::PackageMgr::IsInstalled</title>
<!-- Node1 -->
<g id="Node000001" class="node">
<title>Node1</title>
<g id="a_Node000001"><a xlink:title=" ">
<polygon fill="#999999" stroke="#666666" points="338,-77 190.75,-77 190.75,-57 338,-57 338,-77"/>
<text xml:space="preserve" text-anchor="middle" x="264.38" y="-63.5" font-family="Helvetica,sans-Serif" font-size="10.00">LGE::PackageMgr::IsInstalled</text>
</a>
</g>
</g>
<!-- Node2 -->
<g id="Node000002" class="node">
<title>Node2</title>
<g id="a_Node000002"><a xlink:href="namespaceLGE_1_1PackageMgr.html#a91e95886b10309daf8daf9a58c8a96fd" target="_top" xlink:title=" ">
<polygon fill="white" stroke="#666666" points="141.62,-134 13.12,-134 13.12,-114 141.62,-114 141.62,-134"/>
<text xml:space="preserve" text-anchor="middle" x="77.38" y="-120.5" font-family="Helvetica,sans-Serif" font-size="10.00">LGE::PackageMgr::Install</text>
</a>
</g>
</g>
<!-- Node1&#45;&gt;Node2 -->
<g id="edge1_Node000001_Node000002" class="edge">
<title>Node1&#45;&gt;Node2</title>
<g id="a_edge1_Node000001_Node000002"><a xlink:title=" ">
<path fill="none" stroke="#63b8ff" d="M225.33,-81.28C204.61,-88.81 178.44,-97.93 154.75,-105 144.67,-108.01 133.74,-110.93 123.39,-113.54"/>
<polygon fill="#63b8ff" stroke="#63b8ff" points="226.32,-84.65 234.5,-77.92 223.91,-78.07 226.32,-84.65"/>
</a>
</g>
</g>
<!-- Node3 -->
<g id="Node000003" class="node">
<title>Node3</title>
<g id="a_Node000003"><a xlink:href="namespaceLGE_1_1PackageMgr.html#aa1524a16034a31837f9821c520d5ed6f" target="_top" xlink:title=" ">
<polygon fill="white" stroke="#666666" points="141.62,-96 13.12,-96 13.12,-76 141.62,-76 141.62,-96"/>
<text xml:space="preserve" text-anchor="middle" x="77.38" y="-82.5" font-family="Helvetica,sans-Serif" font-size="10.00">LGE::PackageMgr::Install</text>
</a>
</g>
</g>
<!-- Node1&#45;&gt;Node3 -->
<g id="edge2_Node000001_Node000003" class="edge">
<title>Node1&#45;&gt;Node3</title>
<g id="a_edge2_Node000001_Node000003"><a xlink:title=" ">
<path fill="none" stroke="#63b8ff" d="M178.93,-75.67C166.51,-76.95 153.89,-78.24 141.98,-79.47"/>
<polygon fill="#63b8ff" stroke="#63b8ff" points="179.16,-79.17 188.75,-74.66 178.45,-72.2 179.16,-79.17"/>
</a>
</g>
</g>
<!-- Node4 -->
<g id="Node000004" class="node">
<title>Node4</title>
<g id="a_Node000004"><a xlink:href="namespaceLGE_1_1PackageMgr.html#a88088679eaf853c3987cd76ee5bd19a0" target="_top" xlink:title=" ">
<polygon fill="white" stroke="#666666" points="154.75,-58 0,-58 0,-38 154.75,-38 154.75,-58"/>
<text xml:space="preserve" text-anchor="middle" x="77.38" y="-44.5" font-family="Helvetica,sans-Serif" font-size="10.00">LGE::PackageMgr::ListInstalled</text>
</a>
</g>
</g>
<!-- Node1&#45;&gt;Node4 -->
<g id="edge3_Node000001_Node000004" class="edge">
<title>Node1&#45;&gt;Node4</title>
<g id="a_edge3_Node000001_Node000004"><a xlink:title=" ">
<path fill="none" stroke="#63b8ff" d="M178.82,-58.32C170.95,-57.51 163.01,-56.69 155.22,-55.89"/>
<polygon fill="#63b8ff" stroke="#63b8ff" points="178.45,-61.8 188.75,-59.34 179.16,-54.83 178.45,-61.8"/>
</a>
</g>
</g>
<!-- Node5 -->
<g id="Node000005" class="node">
<title>Node5</title>
<g id="a_Node000005"><a xlink:href="namespaceLGE_1_1PackageMgr.html#a5fa80ee6187608019aeeb27bcf591cf7" target="_top" xlink:title=" ">
<polygon fill="white" stroke="#666666" points="147.62,-20 7.12,-20 7.12,0 147.62,0 147.62,-20"/>
<text xml:space="preserve" text-anchor="middle" x="77.38" y="-6.5" font-family="Helvetica,sans-Serif" font-size="10.00">LGE::PackageMgr::Uninstall</text>
</a>
</g>
</g>
<!-- Node1&#45;&gt;Node5 -->
<g id="edge4_Node000001_Node000005" class="edge">
<title>Node1&#45;&gt;Node5</title>
<g id="a_edge4_Node000001_Node000005"><a xlink:title=" ">
<path fill="none" stroke="#63b8ff" d="M225.33,-52.72C204.61,-45.19 178.44,-36.07 154.75,-29 144.67,-25.99 133.74,-23.07 123.39,-20.46"/>
<polygon fill="#63b8ff" stroke="#63b8ff" points="223.91,-55.93 234.5,-56.08 226.32,-49.35 223.91,-55.93"/>
</a>
</g>
</g>
</g>
</svg>
