<?xml version="1.0" encoding="UTF-8" standalone="no"?>
<!DOCTYPE svg PUBLIC "-//W3C//DTD SVG 1.1//EN"
 "http://www.w3.org/Graphics/SVG/1.1/DTD/svg11.dtd">
<!-- Generated by graphviz version 14.0.2 (20251019.1705)
 -->
<!-- Title: LGE::Compression::FormatToString Pages: 1 -->
<svg width="878pt" height="219pt"
 viewBox="0.00 0.00 878.00 219.00" xmlns="http://www.w3.org/2000/svg" xmlns:xlink="http://www.w3.org/1999/xlink">
<g id="graph0" class="graph" transform="scale(1 1) rotate(0) translate(4 215)">
<title>LGE::Compression::FormatToString</title>
<!-- Node1 -->
<g id="Node000001" class="node">
<title>Node1</title>
<g id="a_Node000001"><a xlink:title=" ">
<polygon fill="#999999" stroke="#666666" points="869.75,-95 733.75,-95 733.75,-63 869.75,-63 869.75,-95"/>
<text xml:space="preserve" text-anchor="start" x="741.75" y="-81.5" font-family="Helvetica,sans-Serif" font-size="10.00">LGE::Compression::Format</text>
<text xml:space="preserve" text-anchor="middle" x="801.75" y="-69.5" font-family="Helvetica,sans-Serif" font-size="10.00">ToString</text>
</a>
</g>
</g>
<!-- Node2 -->
<g id="Node000002" class="node">
<title>Node2</title>
<g id="a_Node000002"><a xlink:href="namespaceLGE_1_1Compression.html#af75ab8caccca9d202274ad756caddf9c" target="_top" xlink:title=" ">
<polygon fill="white" stroke="#666666" points="692.5,-169 526.5,-169 526.5,-149 692.5,-149 692.5,-169"/>
<text xml:space="preserve" text-anchor="middle" x="609.5" y="-155.5" font-family="Helvetica,sans-Serif" font-size="10.00">LGE::Compression::CompressFile</text>
</a>
</g>
</g>
<!-- Node1&#45;&gt;Node2 -->
<g id="edge1_Node000001_Node000002" class="edge">
<title>Node1&#45;&gt;Node2</title>
<g id="a_edge1_Node000001_Node000002"><a xlink:title=" ">
<path fill="none" stroke="#63b8ff" d="M759.44,-100.46C740.83,-109.77 718.43,-120.46 697.75,-129 680.28,-136.21 660.38,-143.15 644,-148.53"/>
<polygon fill="#63b8ff" stroke="#63b8ff" points="760.94,-103.63 768.29,-96 757.79,-97.38 760.94,-103.63"/>
</a>
</g>
</g>
<!-- Node7 -->
<g id="Node000007" class="node">
<title>Node7</title>
<g id="a_Node000007"><a xlink:href="namespaceLGE_1_1Compression.html#af7ed5c9910b095705473adc945a804a4" target="_top" xlink:title=" ">
<polygon fill="white" stroke="#666666" points="684.62,-120 534.38,-120 534.38,-88 684.62,-88 684.62,-120"/>
<text xml:space="preserve" text-anchor="start" x="542.38" y="-106.5" font-family="Helvetica,sans-Serif" font-size="10.00">LGE::Compression::Compress</text>
<text xml:space="preserve" text-anchor="middle" x="609.5" y="-94.5" font-family="Helvetica,sans-Serif" font-size="10.00">Files</text>
</a>
</g>
</g>
<!-- Node1&#45;&gt;Node7 -->
<g id="edge6_Node000001_Node000007" class="edge">
<title>Node1&#45;&gt;Node7</title>
<g id="a_edge6_Node000001_Node000007"><a xlink:title=" ">
<path fill="none" stroke="#63b8ff" d="M722.2,-89.32C709.85,-90.94 697.12,-92.62 684.87,-94.23"/>
<polygon fill="#63b8ff" stroke="#63b8ff" points="722.45,-92.82 731.91,-88.05 721.54,-85.88 722.45,-92.82"/>
</a>
</g>
</g>
<!-- Node12 -->
<g id="Node000012" class="node">
<title>Node12</title>
<g id="a_Node000012"><a xlink:href="namespaceLGE_1_1Compression.html#a2846e365c47a6e243106be9db7c25cd0" target="_top" xlink:title=" ">
<polygon fill="white" stroke="#666666" points="689.88,-70 529.12,-70 529.12,-38 689.88,-38 689.88,-70"/>
<text xml:space="preserve" text-anchor="start" x="537.12" y="-56.5" font-family="Helvetica,sans-Serif" font-size="10.00">LGE::Compression::Decompress</text>
<text xml:space="preserve" text-anchor="middle" x="609.5" y="-44.5" font-family="Helvetica,sans-Serif" font-size="10.00">Archive</text>
</a>
</g>
</g>
<!-- Node1&#45;&gt;Node12 -->
<g id="edge11_Node000001_Node000012" class="edge">
<title>Node1&#45;&gt;Node12</title>
<g id="a_edge11_Node000001_Node000012"><a xlink:title=" ">
<path fill="none" stroke="#63b8ff" d="M722.09,-68.66C711.53,-67.28 700.7,-65.85 690.12,-64.46"/>
<polygon fill="#63b8ff" stroke="#63b8ff" points="721.54,-72.12 731.91,-69.95 722.45,-65.18 721.54,-72.12"/>
</a>
</g>
</g>
<!-- Node14 -->
<g id="Node000014" class="node">
<title>Node14</title>
<g id="a_Node000014"><a xlink:href="namespaceLGE_1_1Compression.html#ae182fd3025fdd53ab51abcd4bf351ad9" target="_top" xlink:title=" ">
<polygon fill="white" stroke="#666666" points="697.75,-20 521.25,-20 521.25,0 697.75,0 697.75,-20"/>
<text xml:space="preserve" text-anchor="middle" x="609.5" y="-6.5" font-family="Helvetica,sans-Serif" font-size="10.00">LGE::Compression::DecompressFile</text>
</a>
</g>
</g>
<!-- Node1&#45;&gt;Node14 -->
<g id="edge13_Node000001_Node000014" class="edge">
<title>Node1&#45;&gt;Node14</title>
<g id="a_edge13_Node000001_Node000014"><a xlink:title=" ">
<path fill="none" stroke="#63b8ff" d="M761.79,-57.37C742.91,-47.6 719.62,-36.57 697.75,-29 688.23,-25.7 677.92,-22.86 667.83,-20.44"/>
<polygon fill="#63b8ff" stroke="#63b8ff" points="759.98,-60.37 770.46,-61.94 763.24,-54.18 759.98,-60.37"/>
</a>
</g>
</g>
<!-- Node3 -->
<g id="Node000003" class="node">
<title>Node3</title>
<g id="a_Node000003"><a xlink:href="namespaceLGE_1_1Optimization.html#af2494f8684e1126f12c084d070ae77d7" target="_top" xlink:title=" ">
<polygon fill="white" stroke="#666666" points="461.25,-186 359,-186 359,-154 461.25,-154 461.25,-186"/>
<text xml:space="preserve" text-anchor="start" x="367" y="-172.5" font-family="Helvetica,sans-Serif" font-size="10.00">LGE::Optimization::</text>
<text xml:space="preserve" text-anchor="middle" x="410.12" y="-160.5" font-family="Helvetica,sans-Serif" font-size="10.00">OptimizeAsset</text>
</a>
</g>
</g>
<!-- Node2&#45;&gt;Node3 -->
<g id="edge2_Node000002_Node000003" class="edge">
<title>Node2&#45;&gt;Node3</title>
<g id="a_edge2_Node000002_Node000003"><a xlink:title=" ">
<path fill="none" stroke="#63b8ff" d="M514.86,-164.22C496.52,-165.24 477.95,-166.28 461.69,-167.18"/>
<polygon fill="#63b8ff" stroke="#63b8ff" points="514.92,-167.72 524.71,-163.67 514.53,-160.73 514.92,-167.72"/>
</a>
</g>
</g>
<!-- Node4 -->
<g id="Node000004" class="node">
<title>Node4</title>
<g id="a_Node000004"><a xlink:href="namespaceLGE_1_1Optimization.html#a4c0768d9dc75e187bbd8af99c6ea56eb" target="_top" xlink:title=" ">
<polygon fill="white" stroke="#666666" points="269.75,-186 167.5,-186 167.5,-154 269.75,-154 269.75,-186"/>
<text xml:space="preserve" text-anchor="start" x="175.5" y="-172.5" font-family="Helvetica,sans-Serif" font-size="10.00">LGE::Optimization::</text>
<text xml:space="preserve" text-anchor="middle" x="218.62" y="-160.5" font-family="Helvetica,sans-Serif" font-size="10.00">OptimizeAssets</text>
</a>
</g>
</g>
<!-- Node3&#45;&gt;Node4 -->
<g id="edge3_Node000003_Node000004" class="edge">
<title>Node3&#45;&gt;Node4</title>
<g id="a_edge3_Node000003_Node000004"><a xlink:title=" ">
<path fill="none" stroke="#63b8ff" d="M347.61,-170C322.55,-170 293.95,-170 270.14,-170"/>
<polygon fill="#63b8ff" stroke="#63b8ff" points="347.33,-173.5 357.33,-170 347.33,-166.5 347.33,-173.5"/>
</a>
</g>
</g>
<!-- Node5 -->
<g id="Node000005" class="node">
<title>Node5</title>
<g id="a_Node000005"><a xlink:href="namespaceLGE_1_1Optimization.html#a96a2816b3db7b7ceb04dc110827b7c47" target="_top" xlink:title=" ">
<polygon fill="white" stroke="#666666" points="102.25,-211 0,-211 0,-179 102.25,-179 102.25,-211"/>
<text xml:space="preserve" text-anchor="start" x="8" y="-197.5" font-family="Helvetica,sans-Serif" font-size="10.00">LGE::Optimization::</text>
<text xml:space="preserve" text-anchor="middle" x="51.12" y="-185.5" font-family="Helvetica,sans-Serif" font-size="10.00">OptimizeByType</text>
</a>
</g>
</g>
<!-- Node4&#45;&gt;Node5 -->
<g id="edge4_Node000004_Node000005" class="edge">
<title>Node4&#45;&gt;Node5</title>
<g id="a_edge4_Node000004_Node000005"><a xlink:title=" ">
<path fill="none" stroke="#63b8ff" d="M155.79,-179.34C138.27,-181.99 119.42,-184.83 102.66,-187.37"/>
<polygon fill="#63b8ff" stroke="#63b8ff" points="156.21,-182.82 165.57,-177.86 155.16,-175.9 156.21,-182.82"/>
</a>
</g>
</g>
<!-- Node6 -->
<g id="Node000006" class="node">
<title>Node6</title>
<g id="a_Node000006"><a xlink:href="namespaceLGE_1_1Optimization.html#a87d1a414b80a1ae2aeb6f10efe6c4e34" target="_top" xlink:title=" ">
<polygon fill="white" stroke="#666666" points="102.25,-161 0,-161 0,-129 102.25,-129 102.25,-161"/>
<text xml:space="preserve" text-anchor="start" x="8" y="-147.5" font-family="Helvetica,sans-Serif" font-size="10.00">LGE::Optimization::</text>
<text xml:space="preserve" text-anchor="middle" x="51.12" y="-135.5" font-family="Helvetica,sans-Serif" font-size="10.00">OptimizeDirectory</text>
</a>
</g>
</g>
<!-- Node4&#45;&gt;Node6 -->
<g id="edge5_Node000004_Node000006" class="edge">
<title>Node4&#45;&gt;Node6</title>
<g id="a_edge5_Node000004_Node000006"><a xlink:title=" ">
<path fill="none" stroke="#63b8ff" d="M155.79,-160.66C138.27,-158.01 119.42,-155.17 102.66,-152.63"/>
<polygon fill="#63b8ff" stroke="#63b8ff" points="155.16,-164.1 165.57,-162.14 156.21,-157.18 155.16,-164.1"/>
</a>
</g>
</g>
<!-- Node8 -->
<g id="Node000008" class="node">
<title>Node8</title>
<g id="a_Node000008"><a xlink:href="namespaceLGE_1_1Compression.html#a51471b84f07ed161f929413e01765d2a" target="_top" xlink:title=" ">
<polygon fill="white" stroke="#666666" points="485.25,-136 335,-136 335,-104 485.25,-104 485.25,-136"/>
<text xml:space="preserve" text-anchor="start" x="343" y="-122.5" font-family="Helvetica,sans-Serif" font-size="10.00">LGE::Compression::Compress</text>
<text xml:space="preserve" text-anchor="middle" x="410.12" y="-110.5" font-family="Helvetica,sans-Serif" font-size="10.00">Directory</text>
</a>
</g>
</g>
<!-- Node7&#45;&gt;Node8 -->
<g id="edge7_Node000007_Node000008" class="edge">
<title>Node7&#45;&gt;Node8</title>
<g id="a_edge7_Node000007_Node000008"><a xlink:title=" ">
<path fill="none" stroke="#63b8ff" d="M522.63,-110.96C510.27,-111.96 497.63,-112.99 485.52,-113.97"/>
<polygon fill="#63b8ff" stroke="#63b8ff" points="522.69,-114.47 532.37,-110.17 522.12,-107.49 522.69,-114.47"/>
</a>
</g>
</g>
<!-- Node9 -->
<g id="Node000009" class="node">
<title>Node9</title>
<g id="a_Node000009"><a xlink:href="namespaceLGE_1_1Backup.html#a8db5be221811de56211321d119281ce0" target="_top" xlink:title=" ">
<polygon fill="white" stroke="#666666" points="481.5,-86 338.75,-86 338.75,-66 481.5,-66 481.5,-86"/>
<text xml:space="preserve" text-anchor="middle" x="410.12" y="-72.5" font-family="Helvetica,sans-Serif" font-size="10.00">LGE::Backup::CreateBackup</text>
</a>
</g>
</g>
<!-- Node7&#45;&gt;Node9 -->
<g id="edge8_Node000007_Node000009" class="edge">
<title>Node7&#45;&gt;Node9</title>
<g id="a_edge8_Node000007_Node000009"><a xlink:title=" ">
<path fill="none" stroke="#63b8ff" d="M522.58,-91.81C509.01,-89.89 495.11,-87.91 481.94,-86.05"/>
<polygon fill="#63b8ff" stroke="#63b8ff" points="521.99,-95.26 532.38,-93.2 522.97,-88.33 521.99,-95.26"/>
</a>
</g>
</g>
<!-- Node10 -->
<g id="Node000010" class="node">
<title>Node10</title>
<g id="a_Node000010"><a xlink:href="namespaceLGE_1_1Backup.html#ad6294b6da335fe274372b3821fe490b4" target="_top" xlink:title=" ">
<polygon fill="white" stroke="#666666" points="299,-114 138.25,-114 138.25,-82 299,-82 299,-114"/>
<text xml:space="preserve" text-anchor="start" x="146.25" y="-100.5" font-family="Helvetica,sans-Serif" font-size="10.00">LGE::Backup::CreateIncremental</text>
<text xml:space="preserve" text-anchor="middle" x="218.62" y="-88.5" font-family="Helvetica,sans-Serif" font-size="10.00">Backup</text>
</a>
</g>
</g>
<!-- Node9&#45;&gt;Node10 -->
<g id="edge9_Node000009_Node000010" class="edge">
<title>Node9&#45;&gt;Node10</title>
<g id="a_edge9_Node000009_Node000010"><a xlink:title=" ">
<path fill="none" stroke="#63b8ff" d="M327.13,-85.52C317.89,-86.59 308.49,-87.68 299.29,-88.75"/>
<polygon fill="#63b8ff" stroke="#63b8ff" points="327.26,-89.03 336.79,-84.4 326.45,-82.07 327.26,-89.03"/>
</a>
</g>
</g>
<!-- Node11 -->
<g id="Node000011" class="node">
<title>Node11</title>
<g id="a_Node000011"><a xlink:href="namespaceLGE_1_1Backup.html#a7de11ff292510de53398d602090fa1fe" target="_top" xlink:title=" ">
<polygon fill="white" stroke="#666666" points="299,-64 138.25,-64 138.25,-32 299,-32 299,-64"/>
<text xml:space="preserve" text-anchor="start" x="146.25" y="-50.5" font-family="Helvetica,sans-Serif" font-size="10.00">LGE::Backup::PerformScheduled</text>
<text xml:space="preserve" text-anchor="middle" x="218.62" y="-38.5" font-family="Helvetica,sans-Serif" font-size="10.00">Backup</text>
</a>
</g>
</g>
<!-- Node9&#45;&gt;Node11 -->
<g id="edge10_Node000009_Node000011" class="edge">
<title>Node9&#45;&gt;Node11</title>
<g id="a_edge10_Node000009_Node000011"><a xlink:title=" ">
<path fill="none" stroke="#63b8ff" d="M327.13,-63.88C317.89,-62.52 308.49,-61.13 299.29,-59.77"/>
<polygon fill="#63b8ff" stroke="#63b8ff" points="326.39,-67.31 336.8,-65.31 327.41,-60.39 326.39,-67.31"/>
</a>
</g>
</g>
<!-- Node13 -->
<g id="Node000013" class="node">
<title>Node13</title>
<g id="a_Node000013"><a xlink:href="namespaceLGE_1_1Backup.html#a2e9fa2883a6f23a0dbcb35478ae5dfcc" target="_top" xlink:title=" ">
<polygon fill="white" stroke="#666666" points="484.12,-48 336.12,-48 336.12,-28 484.12,-28 484.12,-48"/>
<text xml:space="preserve" text-anchor="middle" x="410.12" y="-34.5" font-family="Helvetica,sans-Serif" font-size="10.00">LGE::Backup::RestoreBackup</text>
</a>
</g>
</g>
<!-- Node12&#45;&gt;Node13 -->
<g id="edge12_Node000012_Node000013" class="edge">
<title>Node12&#45;&gt;Node13</title>
<g id="a_edge12_Node000012_Node000013"><a xlink:title=" ">
<path fill="none" stroke="#63b8ff" d="M517.36,-46.61C506.33,-45.72 495.17,-44.81 484.43,-43.94"/>
<polygon fill="#63b8ff" stroke="#63b8ff" points="517.03,-50.1 527.28,-47.42 517.6,-43.12 517.03,-50.1"/>
</a>
</g>
</g>
</g>
</svg>
