<?xml version="1.0" encoding="UTF-8" standalone="no"?>
<!DOCTYPE svg PUBLIC "-//W3C//DTD SVG 1.1//EN"
 "http://www.w3.org/Graphics/SVG/1.1/DTD/svg11.dtd">
<!-- Generated by graphviz version 14.0.2 (20251019.1705)
 -->
<!-- Title: LGE::Analytics::GetAllStats Pages: 1 -->
<svg width="1007pt" height="97pt"
 viewBox="0.00 0.00 1007.00 97.00" xmlns="http://www.w3.org/2000/svg" xmlns:xlink="http://www.w3.org/1999/xlink">
<g id="graph0" class="graph" transform="scale(1 1) rotate(0) translate(4 93)">
<title>LGE::Analytics::GetAllStats</title>
<!-- Node1 -->
<g id="Node000001" class="node">
<title>Node1</title>
<g id="a_Node000001"><a xlink:title=" ">
<polygon fill="#999999" stroke="#666666" points="999,-58 860.75,-58 860.75,-38 999,-38 999,-58"/>
<text xml:space="preserve" text-anchor="middle" x="929.88" y="-44.5" font-family="Helvetica,sans-Serif" font-size="10.00">LGE::Analytics::GetAllStats</text>
</a>
</g>
</g>
<!-- Node2 -->
<g id="Node000002" class="node">
<title>Node2</title>
<g id="a_Node000002"><a xlink:href="namespaceLGE_1_1Analytics.html#a48141e1b0c652df26e4f5d2b83710c4b" target="_top" xlink:title=" ">
<polygon fill="white" stroke="#666666" points="630.25,-58 497.25,-58 497.25,-38 630.25,-38 630.25,-58"/>
<text xml:space="preserve" text-anchor="middle" x="563.75" y="-44.5" font-family="Helvetica,sans-Serif" font-size="10.00">LGE::Analytics::GetReport</text>
</a>
</g>
</g>
<!-- Node1&#45;&gt;Node2 -->
<g id="edge1_Node000001_Node000002" class="edge">
<title>Node1&#45;&gt;Node2</title>
<g id="a_edge1_Node000001_Node000002"><a xlink:title=" ">
<path fill="none" stroke="#63b8ff" d="M870.58,-60.55C855.71,-63.22 839.7,-65.65 824.75,-67 754.59,-73.35 736.39,-73.51 666.25,-67 647.95,-65.3 628.04,-61.92 610.73,-58.47"/>
<polygon fill="#63b8ff" stroke="#63b8ff" points="871.02,-64.03 880.21,-58.75 869.73,-57.15 871.02,-64.03"/>
</a>
</g>
</g>
<!-- Node7 -->
<g id="Node000007" class="node">
<title>Node7</title>
<g id="a_Node000007"><a xlink:href="namespaceLGE_1_1Analytics.html#ac01bf208b68bb666b625a0f45ee9a77e" target="_top" xlink:title=" ">
<polygon fill="white" stroke="#666666" points="824.75,-58 666.25,-58 666.25,-38 824.75,-38 824.75,-58"/>
<text xml:space="preserve" text-anchor="middle" x="745.5" y="-44.5" font-family="Helvetica,sans-Serif" font-size="10.00">LGE::Analytics::TopByLoadTime</text>
</a>
</g>
</g>
<!-- Node1&#45;&gt;Node7 -->
<g id="edge6_Node000001_Node000007" class="edge">
<title>Node1&#45;&gt;Node7</title>
<g id="a_edge6_Node000001_Node000007"><a xlink:title=" ">
<path fill="none" stroke="#63b8ff" d="M848.97,-48C841.05,-48 833.03,-48 825.13,-48"/>
<polygon fill="#63b8ff" stroke="#63b8ff" points="848.93,-51.5 858.93,-48 848.93,-44.5 848.93,-51.5"/>
</a>
</g>
</g>
<!-- Node8 -->
<g id="Node000008" class="node">
<title>Node8</title>
<g id="a_Node000008"><a xlink:href="namespaceLGE_1_1Analytics.html#a3aae299f8b7bb1fa18ce5b42f81813cf" target="_top" xlink:title=" ">
<polygon fill="white" stroke="#666666" points="813.12,-20 677.88,-20 677.88,0 813.12,0 813.12,-20"/>
<text xml:space="preserve" text-anchor="middle" x="745.5" y="-6.5" font-family="Helvetica,sans-Serif" font-size="10.00">LGE::Analytics::TopBySize</text>
</a>
</g>
</g>
<!-- Node1&#45;&gt;Node8 -->
<g id="edge8_Node000001_Node000008" class="edge">
<title>Node1&#45;&gt;Node8</title>
<g id="a_edge8_Node000001_Node000008"><a xlink:title=" ">
<path fill="none" stroke="#63b8ff" d="M867.5,-35.21C844.46,-30.41 818.56,-25.01 796.65,-20.45"/>
<polygon fill="#63b8ff" stroke="#63b8ff" points="866.57,-38.59 877.08,-37.21 868,-31.74 866.57,-38.59"/>
</a>
</g>
</g>
<!-- Node3 -->
<g id="Node000003" class="node">
<title>Node3</title>
<g id="a_Node000003"><a xlink:href="namespaceLGE_1_1Analytics.html#ac633f5df3491555e50bc77bc40ab0417" target="_top" xlink:title=" ">
<polygon fill="white" stroke="#666666" points="461.25,-89 315.5,-89 315.5,-57 461.25,-57 461.25,-89"/>
<text xml:space="preserve" text-anchor="start" x="323.5" y="-75.5" font-family="Helvetica,sans-Serif" font-size="10.00">LGE::Analytics::ExportReport</text>
<text xml:space="preserve" text-anchor="middle" x="388.38" y="-63.5" font-family="Helvetica,sans-Serif" font-size="10.00">ToCSV</text>
</a>
</g>
</g>
<!-- Node2&#45;&gt;Node3 -->
<g id="edge2_Node000002_Node000003" class="edge">
<title>Node2&#45;&gt;Node3</title>
<g id="a_edge2_Node000002_Node000003"><a xlink:title=" ">
<path fill="none" stroke="#63b8ff" d="M485.92,-59.08C477.86,-60.24 469.69,-61.42 461.68,-62.57"/>
<polygon fill="#63b8ff" stroke="#63b8ff" points="486.31,-62.56 495.71,-57.67 485.31,-55.63 486.31,-62.56"/>
</a>
</g>
</g>
<!-- Node6 -->
<g id="Node000006" class="node">
<title>Node6</title>
<g id="a_Node000006"><a xlink:href="namespaceLGE_1_1Analytics.html#a6d33882542e66bc047b1a85201cc8da1" target="_top" xlink:title=" ">
<polygon fill="white" stroke="#666666" points="461.25,-39 315.5,-39 315.5,-7 461.25,-7 461.25,-39"/>
<text xml:space="preserve" text-anchor="start" x="323.5" y="-25.5" font-family="Helvetica,sans-Serif" font-size="10.00">LGE::Analytics::ExportReport</text>
<text xml:space="preserve" text-anchor="middle" x="388.38" y="-13.5" font-family="Helvetica,sans-Serif" font-size="10.00">ToJSON</text>
</a>
</g>
</g>
<!-- Node2&#45;&gt;Node6 -->
<g id="edge5_Node000002_Node000006" class="edge">
<title>Node2&#45;&gt;Node6</title>
<g id="a_edge5_Node000002_Node000006"><a xlink:title=" ">
<path fill="none" stroke="#63b8ff" d="M485.92,-36.92C477.86,-35.76 469.69,-34.58 461.68,-33.43"/>
<polygon fill="#63b8ff" stroke="#63b8ff" points="485.31,-40.37 495.71,-38.33 486.31,-33.44 485.31,-40.37"/>
</a>
</g>
</g>
<!-- Node4 -->
<g id="Node000004" class="node">
<title>Node4</title>
<g id="a_Node000004"><a xlink:href="namespaceLGE_1_1Analytics.html#a9d94ed3193240db6cdfd5816084b59b9" target="_top" xlink:title=" ">
<polygon fill="white" stroke="#666666" points="279.5,-83 167.5,-83 167.5,-63 279.5,-63 279.5,-83"/>
<text xml:space="preserve" text-anchor="middle" x="223.5" y="-69.5" font-family="Helvetica,sans-Serif" font-size="10.00">LGE::Analytics::Flush</text>
</a>
</g>
</g>
<!-- Node3&#45;&gt;Node4 -->
<g id="edge3_Node000003_Node000004" class="edge">
<title>Node3&#45;&gt;Node4</title>
<g id="a_edge3_Node000003_Node000004"><a xlink:title=" ">
<path fill="none" stroke="#63b8ff" d="M304.23,-73C295.98,-73 287.75,-73 279.88,-73"/>
<polygon fill="#63b8ff" stroke="#63b8ff" points="303.95,-76.5 313.95,-73 303.95,-69.5 303.95,-76.5"/>
</a>
</g>
</g>
<!-- Node5 -->
<g id="Node000005" class="node">
<title>Node5</title>
<g id="a_Node000005"><a xlink:href="namespaceLGE_1_1Analytics.html#ad203cbcbe277eb229bf5ab9325efc997" target="_top" xlink:title=" ">
<polygon fill="white" stroke="#666666" points="131.5,-83 0,-83 0,-63 131.5,-63 131.5,-83"/>
<text xml:space="preserve" text-anchor="middle" x="65.75" y="-69.5" font-family="Helvetica,sans-Serif" font-size="10.00">LGE::Analytics::Shutdown</text>
</a>
</g>
</g>
<!-- Node4&#45;&gt;Node5 -->
<g id="edge4_Node000004_Node000005" class="edge">
<title>Node4&#45;&gt;Node5</title>
<g id="a_edge4_Node000004_Node000005"><a xlink:title=" ">
<path fill="none" stroke="#63b8ff" d="M155.68,-73C147.76,-73 139.67,-73 131.77,-73"/>
<polygon fill="#63b8ff" stroke="#63b8ff" points="155.64,-76.5 165.64,-73 155.64,-69.5 155.64,-76.5"/>
</a>
</g>
</g>
<!-- Node7&#45;&gt;Node2 -->
<g id="edge7_Node000007_Node000002" class="edge">
<title>Node7&#45;&gt;Node2</title>
<g id="a_edge7_Node000007_Node000002"><a xlink:title=" ">
<path fill="none" stroke="#63b8ff" d="M654.52,-48C646.44,-48 638.35,-48 630.53,-48"/>
<polygon fill="#63b8ff" stroke="#63b8ff" points="654.41,-51.5 664.41,-48 654.41,-44.5 654.41,-51.5"/>
</a>
</g>
</g>
<!-- Node8&#45;&gt;Node2 -->
<g id="edge9_Node000008_Node000002" class="edge">
<title>Node8&#45;&gt;Node2</title>
<g id="a_edge9_Node000008_Node000002"><a xlink:title=" ">
<path fill="none" stroke="#63b8ff" d="M683.7,-22.85C661.07,-27.64 635.67,-33.01 614.18,-37.55"/>
<polygon fill="#63b8ff" stroke="#63b8ff" points="684.37,-26.29 693.43,-20.8 682.92,-19.44 684.37,-26.29"/>
</a>
</g>
</g>
</g>
</svg>
