<?xml version="1.0" encoding="UTF-8" standalone="no"?>
<!DOCTYPE svg PUBLIC "-//W3C//DTD SVG 1.1//EN"
 "http://www.w3.org/Graphics/SVG/1.1/DTD/svg11.dtd">
<!-- Generated by graphviz version 14.0.2 (20251019.1705)
 -->
<!-- Title: LGE::MetaDB::Exists Pages: 1 -->
<svg width="295pt" height="66pt"
 viewBox="0.00 0.00 295.00 66.00" xmlns="http://www.w3.org/2000/svg" xmlns:xlink="http://www.w3.org/1999/xlink">
<g id="graph0" class="graph" transform="scale(1 1) rotate(0) translate(4 62)">
<title>LGE::MetaDB::Exists</title>
<!-- Node1 -->
<g id="Node000001" class="node">
<title>Node1</title>
<g id="a_Node000001"><a xlink:title=" ">
<polygon fill="#999999" stroke="#666666" points="111.25,-39 0,-39 0,-19 111.25,-19 111.25,-39"/>
<text xml:space="preserve" text-anchor="middle" x="55.62" y="-25.5" font-family="Helvetica,sans-Serif" font-size="10.00">LGE::MetaDB::Exists</text>
</a>
</g>
</g>
<!-- Node2 -->
<g id="Node000002" class="node">
<title>Node2</title>
<g id="a_Node000002"><a xlink:href="namespaceLGE_1_1LxFile.html#a11e62876b312a11b881b484bb3a5ee71" target="_top" xlink:title=" ">
<polygon fill="white" stroke="#666666" points="267.88,-58 166.38,-58 166.38,-38 267.88,-38 267.88,-58"/>
<text xml:space="preserve" text-anchor="middle" x="217.12" y="-44.5" font-family="Helvetica,sans-Serif" font-size="10.00">LGE::LxFile::Exists</text>
</a>
</g>
</g>
<!-- Node1&#45;&gt;Node2 -->
<g id="edge1_Node000001_Node000002" class="edge">
<title>Node1&#45;&gt;Node2</title>
<g id="a_edge1_Node000001_Node000002"><a xlink:title=" ">
<path fill="none" stroke="#63b8ff" d="M111.52,-35.54C125.45,-37.2 140.51,-38.99 154.75,-40.69"/>
<polygon fill="#63b8ff" stroke="#63b8ff" points="154.11,-44.14 164.45,-41.84 154.93,-37.19 154.11,-44.14"/>
</a>
</g>
</g>
<!-- Node3 -->
<g id="Node000003" class="node">
<title>Node3</title>
<g id="a_Node000003"><a xlink:href="namespaceLGE_1_1MetaDB.html#ac399a4083a7e189046618cbf3142dbbe" target="_top" xlink:title=" ">
<polygon fill="white" stroke="#666666" points="287,-20 147.25,-20 147.25,0 287,0 287,-20"/>
<text xml:space="preserve" text-anchor="middle" x="217.12" y="-6.5" font-family="Helvetica,sans-Serif" font-size="10.00">LGE::MetaDB::MetaPathFor</text>
</a>
</g>
</g>
<!-- Node1&#45;&gt;Node3 -->
<g id="edge2_Node000001_Node000003" class="edge">
<title>Node1&#45;&gt;Node3</title>
<g id="a_edge2_Node000001_Node000003"><a xlink:title=" ">
<path fill="none" stroke="#63b8ff" d="M111.52,-22.46C119.23,-21.54 127.3,-20.58 135.37,-19.62"/>
<polygon fill="#63b8ff" stroke="#63b8ff" points="135.75,-23.1 145.26,-18.44 134.92,-16.15 135.75,-23.1"/>
</a>
</g>
</g>
</g>
</svg>
