<?xml version="1.0" encoding="UTF-8" standalone="no"?>
<!DOCTYPE svg PUBLIC "-//W3C//DTD SVG 1.1//EN"
 "http://www.w3.org/Graphics/SVG/1.1/DTD/svg11.dtd">
<!-- Generated by graphviz version 14.0.2 (20251019.1705)
 -->
<!-- Title: LGE::LxFile::GetFileSize Pages: 1 -->
<svg width="886pt" height="796pt"
 viewBox="0.00 0.00 886.00 796.00" xmlns="http://www.w3.org/2000/svg" xmlns:xlink="http://www.w3.org/1999/xlink">
<g id="graph0" class="graph" transform="scale(1 1) rotate(0) translate(4 792)">
<title>LGE::LxFile::GetFileSize</title>
<!-- Node1 -->
<g id="Node000001" class="node">
<title>Node1</title>
<g id="a_Node000001"><a xlink:title=" ">
<polygon fill="#999999" stroke="#666666" points="878,-410 753.25,-410 753.25,-390 878,-390 878,-410"/>
<text xml:space="preserve" text-anchor="middle" x="815.62" y="-396.5" font-family="Helvetica,sans-Serif" font-size="10.00">LGE::LxFile::GetFileSize</text>
</a>
</g>
</g>
<!-- Node2 -->
<g id="Node000002" class="node">
<title>Node2</title>
<g id="a_Node000002"><a xlink:href="namespaceLGE_1_1Bundles.html#a0312d9e844fa74a2455367b8569f3bbc" target="_top" xlink:title=" ">
<polygon fill="white" stroke="#666666" points="689.88,-788 548.62,-788 548.62,-756 689.88,-756 689.88,-788"/>
<text xml:space="preserve" text-anchor="start" x="556.62" y="-774.5" font-family="Helvetica,sans-Serif" font-size="10.00">LGE::Bundles::AddAssetsTo</text>
<text xml:space="preserve" text-anchor="middle" x="619.25" y="-762.5" font-family="Helvetica,sans-Serif" font-size="10.00">Bundle</text>
</a>
</g>
</g>
<!-- Node1&#45;&gt;Node2 -->
<g id="edge1_Node000001_Node000002" class="edge">
<title>Node1&#45;&gt;Node2</title>
<g id="a_edge1_Node000001_Node000002"><a xlink:title=" ">
<path fill="none" stroke="#63b8ff" d="M815.44,-421.82C816.45,-482.65 810.56,-655.66 717.25,-747 709.67,-754.42 700.19,-759.72 690.16,-763.5"/>
<polygon fill="#63b8ff" stroke="#63b8ff" points="818.94,-421.73 815.18,-411.83 811.94,-421.92 818.94,-421.73"/>
</a>
</g>
</g>
<!-- Node3 -->
<g id="Node000003" class="node">
<title>Node3</title>
<g id="a_Node000003"><a xlink:href="namespaceLGE_1_1Optimization.html#a8454b7ce9e842ff425001b7208c3fcff" target="_top" xlink:title=" ">
<polygon fill="white" stroke="#666666" points="670.38,-738 568.12,-738 568.12,-706 670.38,-706 670.38,-738"/>
<text xml:space="preserve" text-anchor="start" x="576.12" y="-724.5" font-family="Helvetica,sans-Serif" font-size="10.00">LGE::Optimization::</text>
<text xml:space="preserve" text-anchor="middle" x="619.25" y="-712.5" font-family="Helvetica,sans-Serif" font-size="10.00">CanOptimize</text>
</a>
</g>
</g>
<!-- Node1&#45;&gt;Node3 -->
<g id="edge2_Node000001_Node000003" class="edge">
<title>Node1&#45;&gt;Node3</title>
<g id="a_edge2_Node000001_Node000003"><a xlink:title=" ">
<path fill="none" stroke="#63b8ff" d="M814.24,-421.56C812.04,-476.15 798.43,-620.9 717.25,-697 704.69,-708.77 687.34,-715.18 670.78,-718.61"/>
<polygon fill="#63b8ff" stroke="#63b8ff" points="817.73,-421.86 814.53,-411.76 810.73,-421.65 817.73,-421.86"/>
</a>
</g>
</g>
<!-- Node4 -->
<g id="Node000004" class="node">
<title>Node4</title>
<g id="a_Node000004"><a xlink:href="namespaceLGE_1_1Validation.html#afc0cd19e558fa12673f3bdb03934e3cc" target="_top" xlink:title=" ">
<polygon fill="white" stroke="#666666" points="695.88,-688 542.62,-688 542.62,-668 695.88,-668 695.88,-688"/>
<text xml:space="preserve" text-anchor="middle" x="619.25" y="-674.5" font-family="Helvetica,sans-Serif" font-size="10.00">LGE::Validation::CheckIntegrity</text>
</a>
</g>
</g>
<!-- Node1&#45;&gt;Node4 -->
<g id="edge3_Node000001_Node000004" class="edge">
<title>Node1&#45;&gt;Node4</title>
<g id="a_edge3_Node000001_Node000004"><a xlink:title=" ">
<path fill="none" stroke="#63b8ff" d="M813.31,-421.74C809.03,-471.96 791.13,-596.48 717.25,-659 711.09,-664.21 703.93,-668.15 696.33,-671.1"/>
<polygon fill="#63b8ff" stroke="#63b8ff" points="816.79,-422.15 814.03,-411.92 809.81,-421.63 816.79,-422.15"/>
</a>
</g>
</g>
<!-- Node6 -->
<g id="Node000006" class="node">
<title>Node6</title>
<g id="a_Node000006"><a xlink:href="namespaceLGE_1_1Compression.html#af75ab8caccca9d202274ad756caddf9c" target="_top" xlink:title=" ">
<polygon fill="white" stroke="#666666" points="702.25,-650 536.25,-650 536.25,-630 702.25,-630 702.25,-650"/>
<text xml:space="preserve" text-anchor="middle" x="619.25" y="-636.5" font-family="Helvetica,sans-Serif" font-size="10.00">LGE::Compression::CompressFile</text>
</a>
</g>
</g>
<!-- Node1&#45;&gt;Node6 -->
<g id="edge5_Node000001_Node000006" class="edge">
<title>Node1&#45;&gt;Node6</title>
<g id="a_edge5_Node000001_Node000006"><a xlink:title=" ">
<path fill="none" stroke="#63b8ff" d="M811.25,-421.74C803.28,-465.51 779.08,-564.46 717.25,-616 710.32,-621.78 702.2,-626.2 693.67,-629.57"/>
<polygon fill="#63b8ff" stroke="#63b8ff" points="814.69,-422.43 812.91,-411.98 807.78,-421.26 814.69,-422.43"/>
</a>
</g>
</g>
<!-- Node7 -->
<g id="Node000007" class="node">
<title>Node7</title>
<g id="a_Node000007"><a xlink:href="namespaceLGE_1_1Optimization.html#af2494f8684e1126f12c084d070ae77d7" target="_top" xlink:title=" ">
<polygon fill="white" stroke="#666666" points="461.25,-639 359,-639 359,-607 461.25,-607 461.25,-639"/>
<text xml:space="preserve" text-anchor="start" x="367" y="-625.5" font-family="Helvetica,sans-Serif" font-size="10.00">LGE::Optimization::</text>
<text xml:space="preserve" text-anchor="middle" x="410.12" y="-613.5" font-family="Helvetica,sans-Serif" font-size="10.00">OptimizeAsset</text>
</a>
</g>
</g>
<!-- Node1&#45;&gt;Node7 -->
<g id="edge28_Node000001_Node000007" class="edge">
<title>Node1&#45;&gt;Node7</title>
<g id="a_edge28_Node000001_Node000007"><a xlink:title=" ">
<path fill="none" stroke="#63b8ff" d="M810.09,-421.09C800.48,-460.21 774.11,-543.61 717.25,-583 676.88,-610.97 537.45,-619.39 461.46,-621.92"/>
<polygon fill="#63b8ff" stroke="#63b8ff" points="813.46,-422.07 812.3,-411.53 806.64,-420.49 813.46,-422.07"/>
</a>
</g>
</g>
<!-- Node11 -->
<g id="Node000011" class="node">
<title>Node11</title>
<g id="a_Node000011"><a xlink:href="namespaceLGE_1_1Compression.html#af7ed5c9910b095705473adc945a804a4" target="_top" xlink:title=" ">
<polygon fill="white" stroke="#666666" points="694.38,-574 544.12,-574 544.12,-542 694.38,-542 694.38,-574"/>
<text xml:space="preserve" text-anchor="start" x="552.12" y="-560.5" font-family="Helvetica,sans-Serif" font-size="10.00">LGE::Compression::Compress</text>
<text xml:space="preserve" text-anchor="middle" x="619.25" y="-548.5" font-family="Helvetica,sans-Serif" font-size="10.00">Files</text>
</a>
</g>
</g>
<!-- Node1&#45;&gt;Node11 -->
<g id="edge10_Node000001_Node000011" class="edge">
<title>Node1&#45;&gt;Node11</title>
<g id="a_edge10_Node000001_Node000011"><a xlink:title=" ">
<path fill="none" stroke="#63b8ff" d="M805.27,-420.52C790.74,-450.03 759.92,-504.09 717.25,-533 710.34,-537.68 702.61,-541.49 694.61,-544.58"/>
<polygon fill="#63b8ff" stroke="#63b8ff" points="808.41,-422.08 809.54,-411.55 802.08,-419.08 808.41,-422.08"/>
</a>
</g>
</g>
<!-- Node16 -->
<g id="Node000016" class="node">
<title>Node16</title>
<g id="a_Node000016"><a xlink:href="namespaceLGE_1_1Bundles.html#aa9d4c4452f76b1187a963bea3168be71" target="_top" xlink:title=" ">
<polygon fill="white" stroke="#666666" points="690.25,-524 548.25,-524 548.25,-504 690.25,-504 690.25,-524"/>
<text xml:space="preserve" text-anchor="middle" x="619.25" y="-510.5" font-family="Helvetica,sans-Serif" font-size="10.00">LGE::Bundles::CreateBundle</text>
</a>
</g>
</g>
<!-- Node1&#45;&gt;Node16 -->
<g id="edge15_Node000001_Node000016" class="edge">
<title>Node1&#45;&gt;Node16</title>
<g id="a_edge15_Node000001_Node000016"><a xlink:title=" ">
<path fill="none" stroke="#63b8ff" d="M800.54,-419.33C783.43,-441.31 752.43,-476.54 717.25,-495 708.97,-499.35 699.82,-502.7 690.54,-505.29"/>
<polygon fill="#63b8ff" stroke="#63b8ff" points="803.24,-421.57 806.48,-411.48 797.66,-417.34 803.24,-421.57"/>
</a>
</g>
</g>
<!-- Node17 -->
<g id="Node000017" class="node">
<title>Node17</title>
<g id="a_Node000017"><a xlink:href="namespaceLGE_1_1Versioning.html#a775af9b7b8c6d3c3d09ef0384e301e14" target="_top" xlink:title=" ">
<polygon fill="white" stroke="#666666" points="696.25,-486 542.25,-486 542.25,-466 696.25,-466 696.25,-486"/>
<text xml:space="preserve" text-anchor="middle" x="619.25" y="-472.5" font-family="Helvetica,sans-Serif" font-size="10.00">LGE::Versioning::CreateVersion</text>
</a>
</g>
</g>
<!-- Node1&#45;&gt;Node17 -->
<g id="edge16_Node000001_Node000017" class="edge">
<title>Node1&#45;&gt;Node17</title>
<g id="a_edge16_Node000001_Node000017"><a xlink:title=" ">
<path fill="none" stroke="#63b8ff" d="M791.21,-416.76C772.16,-429.62 744.12,-446.84 717.25,-457 708.26,-460.4 698.56,-463.22 688.9,-465.55"/>
<polygon fill="#63b8ff" stroke="#63b8ff" points="793.06,-419.73 799.31,-411.17 789.09,-413.97 793.06,-419.73"/>
</a>
</g>
</g>
<!-- Node18 -->
<g id="Node000018" class="node">
<title>Node18</title>
<g id="a_Node000018"><a xlink:href="namespaceLGE_1_1Compression.html#ae182fd3025fdd53ab51abcd4bf351ad9" target="_top" xlink:title=" ">
<polygon fill="white" stroke="#666666" points="707.5,-448 531,-448 531,-428 707.5,-428 707.5,-448"/>
<text xml:space="preserve" text-anchor="middle" x="619.25" y="-434.5" font-family="Helvetica,sans-Serif" font-size="10.00">LGE::Compression::DecompressFile</text>
</a>
</g>
</g>
<!-- Node1&#45;&gt;Node18 -->
<g id="edge17_Node000001_Node000018" class="edge">
<title>Node1&#45;&gt;Node18</title>
<g id="a_edge17_Node000001_Node000018"><a xlink:title=" ">
<path fill="none" stroke="#63b8ff" d="M749.88,-412.66C725.16,-417.49 697.26,-422.94 673.7,-427.55"/>
<polygon fill="#63b8ff" stroke="#63b8ff" points="750.37,-416.13 759.51,-410.77 749.03,-409.26 750.37,-416.13"/>
</a>
</g>
</g>
<!-- Node19 -->
<g id="Node000019" class="node">
<title>Node19</title>
<g id="a_Node000019"><a xlink:href="namespaceLGE_1_1Sync.html#a31fd315f7ca54650d6363bd0d307c5ca" target="_top" xlink:title=" ">
<polygon fill="white" stroke="#666666" points="688.38,-410 550.12,-410 550.12,-390 688.38,-390 688.38,-410"/>
<text xml:space="preserve" text-anchor="middle" x="619.25" y="-396.5" font-family="Helvetica,sans-Serif" font-size="10.00">LGE::Sync::DetectConflicts</text>
</a>
</g>
</g>
<!-- Node1&#45;&gt;Node19 -->
<g id="edge18_Node000001_Node000019" class="edge">
<title>Node1&#45;&gt;Node19</title>
<g id="a_edge18_Node000001_Node000019"><a xlink:title=" ">
<path fill="none" stroke="#63b8ff" d="M741.62,-400C724.24,-400 705.76,-400 688.6,-400"/>
<polygon fill="#63b8ff" stroke="#63b8ff" points="741.34,-403.5 751.34,-400 741.34,-396.5 741.34,-403.5"/>
</a>
</g>
</g>
<!-- Node20 -->
<g id="Node000020" class="node">
<title>Node20</title>
<g id="a_Node000020"><a xlink:href="namespaceLGE_1_1ImportExport.html#aee6be1efe068881b5c6d41e8011b729c" target="_top" xlink:title=" ">
<polygon fill="white" stroke="#666666" points="671.12,-372 567.38,-372 567.38,-340 671.12,-340 671.12,-372"/>
<text xml:space="preserve" text-anchor="start" x="575.38" y="-358.5" font-family="Helvetica,sans-Serif" font-size="10.00">LGE::ImportExport::</text>
<text xml:space="preserve" text-anchor="middle" x="619.25" y="-346.5" font-family="Helvetica,sans-Serif" font-size="10.00">ExportAsset</text>
</a>
</g>
</g>
<!-- Node1&#45;&gt;Node20 -->
<g id="edge19_Node000001_Node000020" class="edge">
<title>Node1&#45;&gt;Node20</title>
<g id="a_edge19_Node000001_Node000020"><a xlink:title=" ">
<path fill="none" stroke="#63b8ff" d="M757.61,-387.09C730.33,-380.92 697.93,-373.59 671.45,-367.59"/>
<polygon fill="#63b8ff" stroke="#63b8ff" points="756.56,-390.44 767.08,-389.24 758.1,-383.62 756.56,-390.44"/>
</a>
</g>
</g>
<!-- Node22 -->
<g id="Node000022" class="node">
<title>Node22</title>
<g id="a_Node000022"><a xlink:href="namespaceLGE_1_1Compression.html#ae5931bebebaf5bc1b0e90630b998ab1e" target="_top" xlink:title=" ">
<polygon fill="white" stroke="#666666" points="717.25,-322 521.25,-322 521.25,-302 717.25,-302 717.25,-322"/>
<text xml:space="preserve" text-anchor="middle" x="619.25" y="-308.5" font-family="Helvetica,sans-Serif" font-size="10.00">LGE::Compression::GetCompressedSize</text>
</a>
</g>
</g>
<!-- Node1&#45;&gt;Node22 -->
<g id="edge21_Node000001_Node000022" class="edge">
<title>Node1&#45;&gt;Node22</title>
<g id="a_edge21_Node000001_Node000022"><a xlink:title=" ">
<path fill="none" stroke="#63b8ff" d="M794.84,-382.11C776.18,-366.23 746.74,-343.64 717.25,-331 709.28,-327.59 700.69,-324.78 692.02,-322.47"/>
<polygon fill="#63b8ff" stroke="#63b8ff" points="792.34,-384.58 802.18,-388.51 796.94,-379.3 792.34,-384.58"/>
</a>
</g>
</g>
<!-- Node23 -->
<g id="Node000023" class="node">
<title>Node23</title>
<g id="a_Node000023"><a xlink:href="namespaceLGE_1_1Optimization.html#a01bf8b655877d654b875c7078622bb1f" target="_top" xlink:title=" ">
<polygon fill="white" stroke="#666666" points="676,-284 562.5,-284 562.5,-252 676,-252 676,-284"/>
<text xml:space="preserve" text-anchor="start" x="570.5" y="-270.5" font-family="Helvetica,sans-Serif" font-size="10.00">LGE::Optimization::</text>
<text xml:space="preserve" text-anchor="middle" x="619.25" y="-258.5" font-family="Helvetica,sans-Serif" font-size="10.00">GetRecommendations</text>
</a>
</g>
</g>
<!-- Node1&#45;&gt;Node23 -->
<g id="edge22_Node000001_Node000023" class="edge">
<title>Node1&#45;&gt;Node23</title>
<g id="a_edge22_Node000001_Node000023"><a xlink:title=" ">
<path fill="none" stroke="#63b8ff" d="M802.11,-380.36C785.63,-356.11 754.33,-315.35 717.25,-293 704.89,-285.55 690.34,-280.3 676.33,-276.61"/>
<polygon fill="#63b8ff" stroke="#63b8ff" points="798.98,-381.96 807.41,-388.38 804.82,-378.1 798.98,-381.96"/>
</a>
</g>
</g>
<!-- Node24 -->
<g id="Node000024" class="node">
<title>Node24</title>
<g id="a_Node000024"><a xlink:href="namespaceLGE_1_1Recycle.html#aaf0b28bf2f87b7ac0bef361db835482e" target="_top" xlink:title=" ">
<polygon fill="white" stroke="#666666" points="689.12,-234 549.38,-234 549.38,-214 689.12,-214 689.12,-234"/>
<text xml:space="preserve" text-anchor="middle" x="619.25" y="-220.5" font-family="Helvetica,sans-Serif" font-size="10.00">LGE::Recycle::GetTotalSize</text>
</a>
</g>
</g>
<!-- Node1&#45;&gt;Node24 -->
<g id="edge23_Node000001_Node000024" class="edge">
<title>Node1&#45;&gt;Node24</title>
<g id="a_edge23_Node000001_Node000024"><a xlink:title=" ">
<path fill="none" stroke="#63b8ff" d="M807.79,-378.84C795.52,-344.47 766.35,-276.92 717.25,-243 708.99,-237.29 699.44,-233.2 689.62,-230.29"/>
<polygon fill="#63b8ff" stroke="#63b8ff" points="804.4,-379.74 810.94,-388.08 811.02,-377.48 804.4,-379.74"/>
</a>
</g>
</g>
<!-- Node25 -->
<g id="Node000025" class="node">
<title>Node25</title>
<g id="a_Node000025"><a xlink:href="namespaceLGE_1_1ImportExport.html#af78ec4a5e430226c5054a220cedc76b1" target="_top" xlink:title=" ">
<polygon fill="white" stroke="#666666" points="671.12,-196 567.38,-196 567.38,-164 671.12,-164 671.12,-196"/>
<text xml:space="preserve" text-anchor="start" x="575.38" y="-182.5" font-family="Helvetica,sans-Serif" font-size="10.00">LGE::ImportExport::</text>
<text xml:space="preserve" text-anchor="middle" x="619.25" y="-170.5" font-family="Helvetica,sans-Serif" font-size="10.00">ImportFile</text>
</a>
</g>
</g>
<!-- Node1&#45;&gt;Node25 -->
<g id="edge24_Node000001_Node000025" class="edge">
<title>Node1&#45;&gt;Node25</title>
<g id="a_edge24_Node000001_Node000025"><a xlink:title=" ">
<path fill="none" stroke="#63b8ff" d="M810.1,-378.49C800.44,-338.09 773.93,-250.83 717.25,-205 704.34,-194.56 687.56,-188.43 671.6,-184.84"/>
<polygon fill="#63b8ff" stroke="#63b8ff" points="806.66,-379.17 812.28,-388.16 813.49,-377.63 806.66,-379.17"/>
</a>
</g>
</g>
<!-- Node28 -->
<g id="Node000028" class="node">
<title>Node28</title>
<g id="a_Node000028"><a xlink:href="classLGE_1_1AssetStream.html#a47bbd27f69131ef42199e8320e0af2ff" target="_top" xlink:title=" ">
<polygon fill="white" stroke="#666666" points="683.12,-146 555.38,-146 555.38,-126 683.12,-126 683.12,-146"/>
<text xml:space="preserve" text-anchor="middle" x="619.25" y="-132.5" font-family="Helvetica,sans-Serif" font-size="10.00">LGE::AssetStream::Open</text>
</a>
</g>
</g>
<!-- Node1&#45;&gt;Node28 -->
<g id="edge27_Node000001_Node000028" class="edge">
<title>Node1&#45;&gt;Node28</title>
<g id="a_edge27_Node000001_Node000028"><a xlink:title=" ">
<path fill="none" stroke="#63b8ff" d="M812.8,-378.44C807.52,-330.26 787.72,-213.51 717.25,-155 707.68,-147.05 695.75,-142.08 683.56,-139.04"/>
<polygon fill="#63b8ff" stroke="#63b8ff" points="809.29,-378.5 813.75,-388.11 816.26,-377.82 809.29,-378.5"/>
</a>
</g>
</g>
<!-- Node29 -->
<g id="Node000029" class="node">
<title>Node29</title>
<g id="a_Node000029"><a xlink:href="namespaceLGE_1_1Bundles.html#a6024393f4e69a628627675d495533288" target="_top" xlink:title=" ">
<polygon fill="white" stroke="#666666" points="694.38,-108 544.12,-108 544.12,-76 694.38,-76 694.38,-108"/>
<text xml:space="preserve" text-anchor="start" x="552.12" y="-94.5" font-family="Helvetica,sans-Serif" font-size="10.00">LGE::Bundles::RemoveAssets</text>
<text xml:space="preserve" text-anchor="middle" x="619.25" y="-82.5" font-family="Helvetica,sans-Serif" font-size="10.00">FromBundle</text>
</a>
</g>
</g>
<!-- Node1&#45;&gt;Node29 -->
<g id="edge29_Node000001_Node000029" class="edge">
<title>Node1&#45;&gt;Node29</title>
<g id="a_edge29_Node000001_Node000029"><a xlink:title=" ">
<path fill="none" stroke="#63b8ff" d="M813.83,-378.39C810.67,-325.53 794.99,-188.82 717.25,-117 710.74,-110.98 702.97,-106.37 694.7,-102.84"/>
<polygon fill="#63b8ff" stroke="#63b8ff" points="810.32,-378.34 814.31,-388.16 817.31,-378 810.32,-378.34"/>
</a>
</g>
</g>
<!-- Node30 -->
<g id="Node000030" class="node">
<title>Node30</title>
<g id="a_Node000030"><a xlink:href="namespaceLGE_1_1Sync.html#a48fdda73c66562db90bf3f61f40cca62" target="_top" xlink:title=" ">
<polygon fill="white" stroke="#666666" points="678.25,-58 560.25,-58 560.25,-38 678.25,-38 678.25,-58"/>
<text xml:space="preserve" text-anchor="middle" x="619.25" y="-44.5" font-family="Helvetica,sans-Serif" font-size="10.00">LGE::Sync::SyncAsset</text>
</a>
</g>
</g>
<!-- Node1&#45;&gt;Node30 -->
<g id="edge30_Node000001_Node000030" class="edge">
<title>Node1&#45;&gt;Node30</title>
<g id="a_edge30_Node000001_Node000030"><a xlink:title=" ">
<path fill="none" stroke="#63b8ff" d="M815.4,-378.37C816.25,-318.86 809.88,-151.56 717.25,-67 706.67,-57.34 692.67,-51.96 678.61,-49.1"/>
<polygon fill="#63b8ff" stroke="#63b8ff" points="811.9,-378.06 815.16,-388.14 818.9,-378.22 811.9,-378.06"/>
</a>
</g>
</g>
<!-- Node32 -->
<g id="Node000032" class="node">
<title>Node32</title>
<g id="a_Node000032"><a xlink:href="TestFileIO_8cpp.html#abead35ed3ee4ce133ecfa70a5ff2613d" target="_top" xlink:title=" ">
<polygon fill="white" stroke="#666666" points="640,-20 598.5,-20 598.5,0 640,0 640,-20"/>
<text xml:space="preserve" text-anchor="middle" x="619.25" y="-6.5" font-family="Helvetica,sans-Serif" font-size="10.00">TEST</text>
</a>
</g>
</g>
<!-- Node1&#45;&gt;Node32 -->
<g id="edge32_Node000001_Node000032" class="edge">
<title>Node1&#45;&gt;Node32</title>
<g id="a_edge32_Node000001_Node000032"><a xlink:title=" ">
<path fill="none" stroke="#63b8ff" d="M811.96,-378.36C802.68,-306.56 769.46,-78.01 717.25,-29 696.61,-9.62 662.28,-7.33 640.48,-8.15"/>
<polygon fill="#63b8ff" stroke="#63b8ff" points="808.45,-378.54 813.18,-388.02 815.4,-377.66 808.45,-378.54"/>
</a>
</g>
</g>
<!-- Node5 -->
<g id="Node000005" class="node">
<title>Node5</title>
<g id="a_Node000005"><a xlink:href="namespaceLGE_1_1Validation.html#a5ed2957323e8381437806ac0d0fd02cf" target="_top" xlink:title=" ">
<polygon fill="white" stroke="#666666" points="483.38,-688 336.88,-688 336.88,-668 483.38,-668 483.38,-688"/>
<text xml:space="preserve" text-anchor="middle" x="410.12" y="-674.5" font-family="Helvetica,sans-Serif" font-size="10.00">LGE::Validation::CheckHealth</text>
</a>
</g>
</g>
<!-- Node4&#45;&gt;Node5 -->
<g id="edge4_Node000004_Node000005" class="edge">
<title>Node4&#45;&gt;Node5</title>
<g id="a_edge4_Node000004_Node000005"><a xlink:title=" ">
<path fill="none" stroke="#63b8ff" d="M530.94,-678C515.18,-678 498.9,-678 483.62,-678"/>
<polygon fill="#63b8ff" stroke="#63b8ff" points="530.79,-681.5 540.79,-678 530.79,-674.5 530.79,-681.5"/>
</a>
</g>
</g>
<!-- Node6&#45;&gt;Node7 -->
<g id="edge6_Node000006_Node000007" class="edge">
<title>Node6&#45;&gt;Node7</title>
<g id="a_edge6_Node000006_Node000007"><a xlink:title=" ">
<path fill="none" stroke="#63b8ff" d="M524.55,-632.31C502.9,-630.53 480.68,-628.71 461.7,-627.15"/>
<polygon fill="#63b8ff" stroke="#63b8ff" points="524.03,-635.78 534.29,-633.11 524.6,-628.8 524.03,-635.78"/>
</a>
</g>
</g>
<!-- Node8 -->
<g id="Node000008" class="node">
<title>Node8</title>
<g id="a_Node000008"><a xlink:href="namespaceLGE_1_1Optimization.html#a4c0768d9dc75e187bbd8af99c6ea56eb" target="_top" xlink:title=" ">
<polygon fill="white" stroke="#666666" points="269.75,-639 167.5,-639 167.5,-607 269.75,-607 269.75,-639"/>
<text xml:space="preserve" text-anchor="start" x="175.5" y="-625.5" font-family="Helvetica,sans-Serif" font-size="10.00">LGE::Optimization::</text>
<text xml:space="preserve" text-anchor="middle" x="218.62" y="-613.5" font-family="Helvetica,sans-Serif" font-size="10.00">OptimizeAssets</text>
</a>
</g>
</g>
<!-- Node7&#45;&gt;Node8 -->
<g id="edge7_Node000007_Node000008" class="edge">
<title>Node7&#45;&gt;Node8</title>
<g id="a_edge7_Node000007_Node000008"><a xlink:title=" ">
<path fill="none" stroke="#63b8ff" d="M347.61,-623C322.55,-623 293.95,-623 270.14,-623"/>
<polygon fill="#63b8ff" stroke="#63b8ff" points="347.33,-626.5 357.33,-623 347.33,-619.5 347.33,-626.5"/>
</a>
</g>
</g>
<!-- Node9 -->
<g id="Node000009" class="node">
<title>Node9</title>
<g id="a_Node000009"><a xlink:href="namespaceLGE_1_1Optimization.html#a96a2816b3db7b7ceb04dc110827b7c47" target="_top" xlink:title=" ">
<polygon fill="white" stroke="#666666" points="102.25,-664 0,-664 0,-632 102.25,-632 102.25,-664"/>
<text xml:space="preserve" text-anchor="start" x="8" y="-650.5" font-family="Helvetica,sans-Serif" font-size="10.00">LGE::Optimization::</text>
<text xml:space="preserve" text-anchor="middle" x="51.12" y="-638.5" font-family="Helvetica,sans-Serif" font-size="10.00">OptimizeByType</text>
</a>
</g>
</g>
<!-- Node8&#45;&gt;Node9 -->
<g id="edge8_Node000008_Node000009" class="edge">
<title>Node8&#45;&gt;Node9</title>
<g id="a_edge8_Node000008_Node000009"><a xlink:title=" ">
<path fill="none" stroke="#63b8ff" d="M155.79,-632.34C138.27,-634.99 119.42,-637.83 102.66,-640.37"/>
<polygon fill="#63b8ff" stroke="#63b8ff" points="156.21,-635.82 165.57,-630.86 155.16,-628.9 156.21,-635.82"/>
</a>
</g>
</g>
<!-- Node10 -->
<g id="Node000010" class="node">
<title>Node10</title>
<g id="a_Node000010"><a xlink:href="namespaceLGE_1_1Optimization.html#a87d1a414b80a1ae2aeb6f10efe6c4e34" target="_top" xlink:title=" ">
<polygon fill="white" stroke="#666666" points="102.25,-614 0,-614 0,-582 102.25,-582 102.25,-614"/>
<text xml:space="preserve" text-anchor="start" x="8" y="-600.5" font-family="Helvetica,sans-Serif" font-size="10.00">LGE::Optimization::</text>
<text xml:space="preserve" text-anchor="middle" x="51.12" y="-588.5" font-family="Helvetica,sans-Serif" font-size="10.00">OptimizeDirectory</text>
</a>
</g>
</g>
<!-- Node8&#45;&gt;Node10 -->
<g id="edge9_Node000008_Node000010" class="edge">
<title>Node8&#45;&gt;Node10</title>
<g id="a_edge9_Node000008_Node000010"><a xlink:title=" ">
<path fill="none" stroke="#63b8ff" d="M155.79,-613.66C138.27,-611.01 119.42,-608.17 102.66,-605.63"/>
<polygon fill="#63b8ff" stroke="#63b8ff" points="155.16,-617.1 165.57,-615.14 156.21,-610.18 155.16,-617.1"/>
</a>
</g>
</g>
<!-- Node12 -->
<g id="Node000012" class="node">
<title>Node12</title>
<g id="a_Node000012"><a xlink:href="namespaceLGE_1_1Compression.html#a51471b84f07ed161f929413e01765d2a" target="_top" xlink:title=" ">
<polygon fill="white" stroke="#666666" points="485.25,-586 335,-586 335,-554 485.25,-554 485.25,-586"/>
<text xml:space="preserve" text-anchor="start" x="343" y="-572.5" font-family="Helvetica,sans-Serif" font-size="10.00">LGE::Compression::Compress</text>
<text xml:space="preserve" text-anchor="middle" x="410.12" y="-560.5" font-family="Helvetica,sans-Serif" font-size="10.00">Directory</text>
</a>
</g>
</g>
<!-- Node11&#45;&gt;Node12 -->
<g id="edge11_Node000011_Node000012" class="edge">
<title>Node11&#45;&gt;Node12</title>
<g id="a_edge11_Node000011_Node000012"><a xlink:title=" ">
<path fill="none" stroke="#63b8ff" d="M532.55,-562.97C516.98,-563.87 500.86,-564.8 485.64,-565.68"/>
<polygon fill="#63b8ff" stroke="#63b8ff" points="532.47,-566.48 542.25,-562.4 532.07,-559.49 532.47,-566.48"/>
</a>
</g>
</g>
<!-- Node13 -->
<g id="Node000013" class="node">
<title>Node13</title>
<g id="a_Node000013"><a xlink:href="namespaceLGE_1_1Backup.html#a8db5be221811de56211321d119281ce0" target="_top" xlink:title=" ">
<polygon fill="white" stroke="#666666" points="481.5,-536 338.75,-536 338.75,-516 481.5,-516 481.5,-536"/>
<text xml:space="preserve" text-anchor="middle" x="410.12" y="-522.5" font-family="Helvetica,sans-Serif" font-size="10.00">LGE::Backup::CreateBackup</text>
</a>
</g>
</g>
<!-- Node11&#45;&gt;Node13 -->
<g id="edge12_Node000011_Node000013" class="edge">
<title>Node11&#45;&gt;Node13</title>
<g id="a_edge12_Node000011_Node000013"><a xlink:title=" ">
<path fill="none" stroke="#63b8ff" d="M532.43,-544.74C514.53,-541.97 495.89,-539.1 478.75,-536.45"/>
<polygon fill="#63b8ff" stroke="#63b8ff" points="531.85,-548.19 542.27,-546.26 532.92,-541.28 531.85,-548.19"/>
</a>
</g>
</g>
<!-- Node14 -->
<g id="Node000014" class="node">
<title>Node14</title>
<g id="a_Node000014"><a xlink:href="namespaceLGE_1_1Backup.html#ad6294b6da335fe274372b3821fe490b4" target="_top" xlink:title=" ">
<polygon fill="white" stroke="#666666" points="299,-566 138.25,-566 138.25,-534 299,-534 299,-566"/>
<text xml:space="preserve" text-anchor="start" x="146.25" y="-552.5" font-family="Helvetica,sans-Serif" font-size="10.00">LGE::Backup::CreateIncremental</text>
<text xml:space="preserve" text-anchor="middle" x="218.62" y="-540.5" font-family="Helvetica,sans-Serif" font-size="10.00">Backup</text>
</a>
</g>
</g>
<!-- Node13&#45;&gt;Node14 -->
<g id="edge13_Node000013_Node000014" class="edge">
<title>Node13&#45;&gt;Node14</title>
<g id="a_edge13_Node000013_Node000014"><a xlink:title=" ">
<path fill="none" stroke="#63b8ff" d="M327.13,-536.38C317.89,-537.55 308.49,-538.74 299.29,-539.91"/>
<polygon fill="#63b8ff" stroke="#63b8ff" points="327.31,-539.89 336.79,-535.16 326.43,-532.95 327.31,-539.89"/>
</a>
</g>
</g>
<!-- Node15 -->
<g id="Node000015" class="node">
<title>Node15</title>
<g id="a_Node000015"><a xlink:href="namespaceLGE_1_1Backup.html#a7de11ff292510de53398d602090fa1fe" target="_top" xlink:title=" ">
<polygon fill="white" stroke="#666666" points="299,-516 138.25,-516 138.25,-484 299,-484 299,-516"/>
<text xml:space="preserve" text-anchor="start" x="146.25" y="-502.5" font-family="Helvetica,sans-Serif" font-size="10.00">LGE::Backup::PerformScheduled</text>
<text xml:space="preserve" text-anchor="middle" x="218.62" y="-490.5" font-family="Helvetica,sans-Serif" font-size="10.00">Backup</text>
</a>
</g>
</g>
<!-- Node13&#45;&gt;Node15 -->
<g id="edge14_Node000013_Node000015" class="edge">
<title>Node13&#45;&gt;Node15</title>
<g id="a_edge14_Node000013_Node000015"><a xlink:title=" ">
<path fill="none" stroke="#63b8ff" d="M327.13,-514.75C317.89,-513.48 308.49,-512.19 299.29,-510.93"/>
<polygon fill="#63b8ff" stroke="#63b8ff" points="326.41,-518.18 336.79,-516.08 327.36,-511.25 326.41,-518.18"/>
</a>
</g>
</g>
<!-- Node21 -->
<g id="Node000021" class="node">
<title>Node21</title>
<g id="a_Node000021"><a xlink:href="namespaceLGE_1_1ImportExport.html#a9f66230255c444c6b3c439ce3c1459f6" target="_top" xlink:title=" ">
<polygon fill="white" stroke="#666666" points="462,-372 358.25,-372 358.25,-340 462,-340 462,-372"/>
<text xml:space="preserve" text-anchor="start" x="366.25" y="-358.5" font-family="Helvetica,sans-Serif" font-size="10.00">LGE::ImportExport::</text>
<text xml:space="preserve" text-anchor="middle" x="410.12" y="-346.5" font-family="Helvetica,sans-Serif" font-size="10.00">ExportAssets</text>
</a>
</g>
</g>
<!-- Node20&#45;&gt;Node21 -->
<g id="edge20_Node000020_Node000021" class="edge">
<title>Node20&#45;&gt;Node21</title>
<g id="a_edge20_Node000020_Node000021"><a xlink:title=" ">
<path fill="none" stroke="#63b8ff" d="M555.9,-356C526.05,-356 490.73,-356 462.45,-356"/>
<polygon fill="#63b8ff" stroke="#63b8ff" points="555.54,-359.5 565.54,-356 555.54,-352.5 555.54,-359.5"/>
</a>
</g>
</g>
<!-- Node26 -->
<g id="Node000026" class="node">
<title>Node26</title>
<g id="a_Node000026"><a xlink:href="namespaceLGE_1_1ImportExport.html#ae8496d7d19ac15289295442d11349580" target="_top" xlink:title=" ">
<polygon fill="white" stroke="#666666" points="462,-196 358.25,-196 358.25,-164 462,-164 462,-196"/>
<text xml:space="preserve" text-anchor="start" x="366.25" y="-182.5" font-family="Helvetica,sans-Serif" font-size="10.00">LGE::ImportExport::</text>
<text xml:space="preserve" text-anchor="middle" x="410.12" y="-170.5" font-family="Helvetica,sans-Serif" font-size="10.00">ImportFiles</text>
</a>
</g>
</g>
<!-- Node25&#45;&gt;Node26 -->
<g id="edge25_Node000025_Node000026" class="edge">
<title>Node25&#45;&gt;Node26</title>
<g id="a_edge25_Node000025_Node000026"><a xlink:title=" ">
<path fill="none" stroke="#63b8ff" d="M555.9,-180C526.05,-180 490.73,-180 462.45,-180"/>
<polygon fill="#63b8ff" stroke="#63b8ff" points="555.54,-183.5 565.54,-180 555.54,-176.5 555.54,-183.5"/>
</a>
</g>
</g>
<!-- Node27 -->
<g id="Node000027" class="node">
<title>Node27</title>
<g id="a_Node000027"><a xlink:href="namespaceLGE_1_1ImportExport.html#a8220fcef46f5c3ab8c10c64fd5860668" target="_top" xlink:title=" ">
<polygon fill="white" stroke="#666666" points="270.5,-196 166.75,-196 166.75,-164 270.5,-164 270.5,-196"/>
<text xml:space="preserve" text-anchor="start" x="174.75" y="-182.5" font-family="Helvetica,sans-Serif" font-size="10.00">LGE::ImportExport::</text>
<text xml:space="preserve" text-anchor="middle" x="218.62" y="-170.5" font-family="Helvetica,sans-Serif" font-size="10.00">ImportDirectory</text>
</a>
</g>
</g>
<!-- Node26&#45;&gt;Node27 -->
<g id="edge26_Node000026_Node000027" class="edge">
<title>Node26&#45;&gt;Node27</title>
<g id="a_edge26_Node000026_Node000027"><a xlink:title=" ">
<path fill="none" stroke="#63b8ff" d="M346.48,-180C321.98,-180 294.23,-180 270.95,-180"/>
<polygon fill="#63b8ff" stroke="#63b8ff" points="346.33,-183.5 356.33,-180 346.33,-176.5 346.33,-183.5"/>
</a>
</g>
</g>
<!-- Node31 -->
<g id="Node000031" class="node">
<title>Node31</title>
<g id="a_Node000031"><a xlink:href="namespaceLGE_1_1Sync.html#a3b6c9cb08e00c50abf02255e05047475" target="_top" xlink:title=" ">
<polygon fill="white" stroke="#666666" points="471.75,-58 348.5,-58 348.5,-38 471.75,-38 471.75,-58"/>
<text xml:space="preserve" text-anchor="middle" x="410.12" y="-44.5" font-family="Helvetica,sans-Serif" font-size="10.00">LGE::Sync::SyncAssets</text>
</a>
</g>
</g>
<!-- Node30&#45;&gt;Node31 -->
<g id="edge31_Node000030_Node000031" class="edge">
<title>Node30&#45;&gt;Node31</title>
<g id="a_edge31_Node000030_Node000031"><a xlink:title=" ">
<path fill="none" stroke="#63b8ff" d="M548.49,-48C523.76,-48 496.14,-48 472.18,-48"/>
<polygon fill="#63b8ff" stroke="#63b8ff" points="548.49,-51.5 558.49,-48 548.49,-44.5 548.49,-51.5"/>
</a>
</g>
</g>
</g>
</svg>
