<?xml version="1.0" encoding="UTF-8" standalone="no"?>
<!DOCTYPE svg PUBLIC "-//W3C//DTD SVG 1.1//EN"
 "http://www.w3.org/Graphics/SVG/1.1/DTD/svg11.dtd">
<!-- Generated by graphviz version 14.0.2 (20251019.1705)
 -->
<!-- Title: LGE::Bundles::CreateBundle Pages: 1 -->
<svg width="1509pt" height="574pt"
 viewBox="0.00 0.00 1509.00 574.00" xmlns="http://www.w3.org/2000/svg" xmlns:xlink="http://www.w3.org/1999/xlink">
<g id="graph0" class="graph" transform="scale(1 1) rotate(0) translate(4 570)">
<title>LGE::Bundles::CreateBundle</title>
<!-- Node1 -->
<g id="Node000001" class="node">
<title>Node1</title>
<g id="a_Node000001"><a xlink:title=" ">
<polygon fill="#999999" stroke="#666666" points="142,-302 0,-302 0,-282 142,-282 142,-302"/>
<text xml:space="preserve" text-anchor="middle" x="71" y="-288.5" font-family="Helvetica,sans-Serif" font-size="10.00">LGE::Bundles::CreateBundle</text>
</a>
</g>
</g>
<!-- Node2 -->
<g id="Node000002" class="node">
<title>Node2</title>
<g id="a_Node000002"><a xlink:href="namespaceLGE_1_1LxFile.html#a7a3f0b3462a34877039001eb0aaac788" target="_top" xlink:title=" ">
<polygon fill="white" stroke="#666666" points="887,-476 744.25,-476 744.25,-456 887,-456 887,-476"/>
<text xml:space="preserve" text-anchor="middle" x="815.62" y="-462.5" font-family="Helvetica,sans-Serif" font-size="10.00">LGE::LxFile::CreateDirectory</text>
</a>
</g>
</g>
<!-- Node1&#45;&gt;Node2 -->
<g id="edge1_Node000001_Node000002" class="edge">
<title>Node1&#45;&gt;Node2</title>
<g id="a_edge1_Node000001_Node000002"><a xlink:title=" ">
<path fill="none" stroke="#63b8ff" d="M78.62,-302.41C93.87,-325.76 133.58,-383.16 178,-420 240.86,-472.13 259.68,-488.57 338.75,-509 494.05,-549.12 686.24,-504.1 770.99,-479.67"/>
<polygon fill="#63b8ff" stroke="#63b8ff" points="771.92,-483.04 780.53,-476.87 769.95,-476.33 771.92,-483.04"/>
</a>
</g>
</g>
<!-- Node3 -->
<g id="Node000003" class="node">
<title>Node3</title>
<g id="a_Node000003"><a xlink:href="classLGE_1_1Log.html#a53f3f4b8797ffd18145739c9e66d690a" target="_top" xlink:title=" ">
<polygon fill="white" stroke="#666666" points="1500.75,-305 1416.5,-305 1416.5,-285 1500.75,-285 1500.75,-305"/>
<text xml:space="preserve" text-anchor="middle" x="1458.62" y="-291.5" font-family="Helvetica,sans-Serif" font-size="10.00">LGE::Log::Error</text>
</a>
</g>
</g>
<!-- Node1&#45;&gt;Node3 -->
<g id="edge8_Node000001_Node000003" class="edge">
<title>Node1&#45;&gt;Node3</title>
<g id="a_edge8_Node000001_Node000003"><a xlink:title=" ">
<path fill="none" stroke="#63b8ff" d="M75.25,-302.2C85.41,-332.55 119.45,-423.24 178,-473 265.56,-547.42 304.34,-566 419.25,-566 419.25,-566 419.25,-566 1156.12,-566 1272.97,-566 1298.96,-512.68 1380.5,-429 1413.61,-395.02 1437.76,-344.09 1449.55,-315.81"/>
<polygon fill="#63b8ff" stroke="#63b8ff" points="1452.77,-317.17 1453.26,-306.59 1446.28,-314.56 1452.77,-317.17"/>
</a>
</g>
</g>
<!-- Node7 -->
<g id="Node000007" class="node">
<title>Node7</title>
<g id="a_Node000007"><a xlink:href="namespaceLGE_1_1LxFile.html#a11e62876b312a11b881b484bb3a5ee71" target="_top" xlink:title=" ">
<polygon fill="white" stroke="#666666" points="668.5,-374 567,-374 567,-354 668.5,-354 668.5,-374"/>
<text xml:space="preserve" text-anchor="middle" x="617.75" y="-360.5" font-family="Helvetica,sans-Serif" font-size="10.00">LGE::LxFile::Exists</text>
</a>
</g>
</g>
<!-- Node1&#45;&gt;Node7 -->
<g id="edge9_Node000001_Node000007" class="edge">
<title>Node1&#45;&gt;Node7</title>
<g id="a_edge9_Node000001_Node000007"><a xlink:title=" ">
<path fill="none" stroke="#63b8ff" d="M86.78,-281.72C145.82,-242.01 367.97,-105.87 501.75,-207 548.55,-242.38 498.1,-290.76 537.75,-334 543.34,-340.1 550.3,-344.96 557.75,-348.84"/>
<polygon fill="#63b8ff" stroke="#63b8ff" points="556.21,-351.99 566.76,-352.93 559.1,-345.61 556.21,-351.99"/>
</a>
</g>
</g>
<!-- Node8 -->
<g id="Node000008" class="node">
<title>Node8</title>
<g id="a_Node000008"><a xlink:href="namespaceLGE_1_1AssetRegistry.html#a9e672f9e3c8c62076b9156d1695e48b8" target="_top" xlink:title=" ">
<polygon fill="white" stroke="#666666" points="472.12,-500 368.38,-500 368.38,-468 472.12,-468 472.12,-500"/>
<text xml:space="preserve" text-anchor="start" x="376.38" y="-486.5" font-family="Helvetica,sans-Serif" font-size="10.00">LGE::AssetRegistry</text>
<text xml:space="preserve" text-anchor="middle" x="420.25" y="-474.5" font-family="Helvetica,sans-Serif" font-size="10.00">::FindByGUID</text>
</a>
</g>
</g>
<!-- Node1&#45;&gt;Node8 -->
<g id="edge10_Node000001_Node000008" class="edge">
<title>Node1&#45;&gt;Node8</title>
<g id="a_edge10_Node000001_Node000008"><a xlink:title=" ">
<path fill="none" stroke="#63b8ff" d="M85.35,-302.42C123.04,-331.35 234.29,-413.54 338.75,-459 344.68,-461.58 350.96,-464.02 357.3,-466.28"/>
<polygon fill="#63b8ff" stroke="#63b8ff" points="355.94,-469.51 366.53,-469.43 358.2,-462.89 355.94,-469.51"/>
</a>
</g>
</g>
<!-- Node9 -->
<g id="Node000009" class="node">
<title>Node9</title>
<g id="a_Node000009"><a xlink:href="namespaceLGE_1_1Dependencies.html#a29d37804e0e9d13aaa944c764ed262a5" target="_top" xlink:title=" ">
<polygon fill="white" stroke="#666666" points="295.25,-308 185.5,-308 185.5,-276 295.25,-276 295.25,-308"/>
<text xml:space="preserve" text-anchor="start" x="193.5" y="-294.5" font-family="Helvetica,sans-Serif" font-size="10.00">LGE::Dependencies::</text>
<text xml:space="preserve" text-anchor="middle" x="240.38" y="-282.5" font-family="Helvetica,sans-Serif" font-size="10.00">GetDependencies</text>
</a>
</g>
</g>
<!-- Node1&#45;&gt;Node9 -->
<g id="edge11_Node000001_Node000009" class="edge">
<title>Node1&#45;&gt;Node9</title>
<g id="a_edge11_Node000001_Node000009"><a xlink:title=" ">
<path fill="none" stroke="#63b8ff" d="M142.5,-292C152.88,-292 163.55,-292 173.83,-292"/>
<polygon fill="#63b8ff" stroke="#63b8ff" points="173.72,-295.5 183.72,-292 173.72,-288.5 173.72,-295.5"/>
</a>
</g>
</g>
<!-- Node10 -->
<g id="Node000010" class="node">
<title>Node10</title>
<g id="a_Node000010"><a xlink:href="namespaceLGE_1_1LxFile.html#a40751ea42c228d8e2c6f6b0788e24aa7" target="_top" xlink:title=" ">
<polygon fill="white" stroke="#666666" points="302.75,-258 178,-258 178,-238 302.75,-238 302.75,-258"/>
<text xml:space="preserve" text-anchor="middle" x="240.38" y="-244.5" font-family="Helvetica,sans-Serif" font-size="10.00">LGE::LxFile::GetFileSize</text>
</a>
</g>
</g>
<!-- Node1&#45;&gt;Node10 -->
<g id="edge12_Node000001_Node000010" class="edge">
<title>Node1&#45;&gt;Node10</title>
<g id="a_edge12_Node000001_Node000010"><a xlink:title=" ">
<path fill="none" stroke="#63b8ff" d="M111.67,-281.57C134.72,-275.51 164,-267.81 188.71,-261.32"/>
<polygon fill="#63b8ff" stroke="#63b8ff" points="189.46,-264.74 198.24,-258.81 187.68,-257.97 189.46,-264.74"/>
</a>
</g>
</g>
<!-- Node11 -->
<g id="Node000011" class="node">
<title>Node11</title>
<g id="a_Node000011"><a xlink:href="classLGE_1_1Log.html#ab0265ee050b8873a2fd31fbdb696ced0" target="_top" xlink:title=" ">
<polygon fill="white" stroke="#666666" points="855.5,-210 775.75,-210 775.75,-190 855.5,-190 855.5,-210"/>
<text xml:space="preserve" text-anchor="middle" x="815.62" y="-196.5" font-family="Helvetica,sans-Serif" font-size="10.00">LGE::Log::Info</text>
</a>
</g>
</g>
<!-- Node1&#45;&gt;Node11 -->
<g id="edge13_Node000001_Node000011" class="edge">
<title>Node1&#45;&gt;Node11</title>
<g id="a_edge13_Node000001_Node000011"><a xlink:title=" ">
<path fill="none" stroke="#63b8ff" d="M77.8,-281.73C91.62,-258.39 129.04,-201.54 178,-178 307.77,-115.61 360.56,-137.76 501.75,-166 518.75,-169.4 520.88,-177.02 537.75,-181 615.24,-199.28 708.06,-201.88 764.12,-201.42"/>
<polygon fill="#63b8ff" stroke="#63b8ff" points="764.04,-204.92 774,-201.3 763.96,-197.92 764.04,-204.92"/>
</a>
</g>
</g>
<!-- Node12 -->
<g id="Node000012" class="node">
<title>Node12</title>
<g id="a_Node000012"><a xlink:href="namespaceLGE_1_1Validation.html#ae388b93a917b4462203ff6011eb925db" target="_top" xlink:title=" ">
<polygon fill="white" stroke="#666666" points="302.38,-358 178.38,-358 178.38,-326 302.38,-326 302.38,-358"/>
<text xml:space="preserve" text-anchor="start" x="186.38" y="-344.5" font-family="Helvetica,sans-Serif" font-size="10.00">LGE::Validation::Validate</text>
<text xml:space="preserve" text-anchor="middle" x="240.38" y="-332.5" font-family="Helvetica,sans-Serif" font-size="10.00">Asset</text>
</a>
</g>
</g>
<!-- Node1&#45;&gt;Node12 -->
<g id="edge14_Node000001_Node000012" class="edge">
<title>Node1&#45;&gt;Node12</title>
<g id="a_edge14_Node000001_Node000012"><a xlink:title=" ">
<path fill="none" stroke="#63b8ff" d="M107.09,-302.48C126.28,-308.22 150.7,-315.51 173.31,-322.26"/>
<polygon fill="#63b8ff" stroke="#63b8ff" points="172.2,-325.59 182.79,-325.1 174.21,-318.88 172.2,-325.59"/>
</a>
</g>
</g>
<!-- Node25 -->
<g id="Node000025" class="node">
<title>Node25</title>
<g id="a_Node000025"><a xlink:href="classLGE_1_1Log.html#aa6f98018af29c23dd7f574d3df5dda5e" target="_top" xlink:title=" ">
<polygon fill="white" stroke="#666666" points="660.62,-20 574.88,-20 574.88,0 660.62,0 660.62,-20"/>
<text xml:space="preserve" text-anchor="middle" x="617.75" y="-6.5" font-family="Helvetica,sans-Serif" font-size="10.00">LGE::Log::Warn</text>
</a>
</g>
</g>
<!-- Node1&#45;&gt;Node25 -->
<g id="edge49_Node000001_Node000025" class="edge">
<title>Node1&#45;&gt;Node25</title>
<g id="a_edge49_Node000001_Node000025"><a xlink:title=" ">
<path fill="none" stroke="#63b8ff" d="M75.96,-281.82C87.34,-253.97 122.84,-175.95 178,-136 297.48,-49.47 475.17,-22.16 563.26,-13.7"/>
<polygon fill="#63b8ff" stroke="#63b8ff" points="563.42,-17.2 573.06,-12.8 562.78,-10.23 563.42,-17.2"/>
</a>
</g>
</g>
<!-- Node2&#45;&gt;Node3 -->
<g id="edge2_Node000002_Node000003" class="edge">
<title>Node2&#45;&gt;Node3</title>
<g id="a_edge2_Node000002_Node000003"><a xlink:title=" ">
<path fill="none" stroke="#63b8ff" d="M887.33,-469.01C968.84,-471.02 1106.42,-469.95 1222,-447 1295.43,-432.42 1319.44,-433.32 1380.5,-390 1408.96,-369.81 1432.65,-336.42 1445.97,-315.08"/>
<polygon fill="#63b8ff" stroke="#63b8ff" points="1448.85,-317.08 1451.03,-306.71 1442.86,-313.46 1448.85,-317.08"/>
</a>
</g>
</g>
<!-- Node4 -->
<g id="Node000004" class="node">
<title>Node4</title>
<g id="a_Node000004"><a xlink:href="namespaceLGE_1_1VFS.html#abb5d35abfe80efe2f7a07394ad5b706a" target="_top" xlink:title=" ">
<polygon fill="white" stroke="#666666" points="1052.25,-381 933.5,-381 933.5,-361 1052.25,-361 1052.25,-381"/>
<text xml:space="preserve" text-anchor="middle" x="992.88" y="-367.5" font-family="Helvetica,sans-Serif" font-size="10.00">LGE::VFS::IsReadOnly</text>
</a>
</g>
</g>
<!-- Node2&#45;&gt;Node4 -->
<g id="edge3_Node000002_Node000004" class="edge">
<title>Node2&#45;&gt;Node4</title>
<g id="a_edge3_Node000002_Node000004"><a xlink:title=" ">
<path fill="none" stroke="#63b8ff" d="M835.71,-455.65C866.31,-439.06 926.57,-406.4 962.62,-386.86"/>
<polygon fill="#63b8ff" stroke="#63b8ff" points="964.09,-390.04 971.21,-382.2 960.75,-383.89 964.09,-390.04"/>
</a>
</g>
</g>
<!-- Node5 -->
<g id="Node000005" class="node">
<title>Node5</title>
<g id="a_Node000005"><a xlink:href="namespaceLGE_1_1LxPath.html#ab664986e94ce09aa029f9eb2fcf50133" target="_top" xlink:title=" ">
<polygon fill="white" stroke="#666666" points="1217.12,-362 1093.12,-362 1093.12,-342 1217.12,-342 1217.12,-362"/>
<text xml:space="preserve" text-anchor="middle" x="1155.12" y="-348.5" font-family="Helvetica,sans-Serif" font-size="10.00">LGE::LxPath::IsSubPath</text>
</a>
</g>
</g>
<!-- Node4&#45;&gt;Node5 -->
<g id="edge4_Node000004_Node000005" class="edge">
<title>Node4&#45;&gt;Node5</title>
<g id="a_edge4_Node000004_Node000005"><a xlink:title=" ">
<path fill="none" stroke="#63b8ff" d="M1052.64,-364.03C1062.01,-362.92 1071.8,-361.76 1081.45,-360.62"/>
<polygon fill="#63b8ff" stroke="#63b8ff" points="1081.66,-364.12 1091.18,-359.46 1080.83,-357.17 1081.66,-364.12"/>
</a>
</g>
</g>
<!-- Node6 -->
<g id="Node000006" class="node">
<title>Node6</title>
<g id="a_Node000006"><a xlink:href="namespaceLGE_1_1LxPath.html#a314a60ce690c90f4ee0b4e64c0199408" target="_top" xlink:title=" ">
<polygon fill="white" stroke="#666666" points="1380.5,-381 1258,-381 1258,-361 1380.5,-361 1380.5,-381"/>
<text xml:space="preserve" text-anchor="middle" x="1319.25" y="-367.5" font-family="Helvetica,sans-Serif" font-size="10.00">LGE::LxPath::Normalize</text>
</a>
</g>
</g>
<!-- Node4&#45;&gt;Node6 -->
<g id="edge7_Node000004_Node000006" class="edge">
<title>Node4&#45;&gt;Node6</title>
<g id="a_edge7_Node000004_Node000006"><a xlink:title=" ">
<path fill="none" stroke="#63b8ff" d="M1052.62,-371C1107.05,-371 1188.15,-371 1246.41,-371"/>
<polygon fill="#63b8ff" stroke="#63b8ff" points="1246.23,-374.5 1256.23,-371 1246.23,-367.5 1246.23,-374.5"/>
</a>
</g>
</g>
<!-- Node5&#45;&gt;Node6 -->
<g id="edge5_Node000005_Node000006" class="edge">
<title>Node5&#45;&gt;Node6</title>
<g id="a_edge5_Node000005_Node000006"><a xlink:title=" ">
<path fill="none" stroke="#63b8ff" d="M1217.42,-359.18C1226.89,-360.29 1236.75,-361.45 1246.43,-362.58"/>
<polygon fill="#63b8ff" stroke="#63b8ff" points="1245.83,-366.04 1256.17,-363.73 1246.65,-359.08 1245.83,-366.04"/>
</a>
</g>
</g>
<!-- Node6&#45;&gt;Node3 -->
<g id="edge6_Node000006_Node000003" class="edge">
<title>Node6&#45;&gt;Node3</title>
<g id="a_edge6_Node000006_Node000003"><a xlink:title=" ">
<path fill="none" stroke="#63b8ff" d="M1339.06,-360.59C1362.29,-347.74 1402.02,-325.76 1429.02,-310.82"/>
<polygon fill="#63b8ff" stroke="#63b8ff" points="1430.66,-313.92 1437.71,-306.02 1427.27,-307.79 1430.66,-313.92"/>
</a>
</g>
</g>
<!-- Node12&#45;&gt;Node7 -->
<g id="edge15_Node000012_Node000007" class="edge">
<title>Node12&#45;&gt;Node7</title>
<g id="a_edge15_Node000012_Node000007"><a xlink:title=" ">
<path fill="none" stroke="#63b8ff" d="M302.52,-345.58C372.28,-349.67 485.71,-356.32 555.51,-360.41"/>
<polygon fill="#63b8ff" stroke="#63b8ff" points="555.05,-363.89 565.24,-360.98 555.46,-356.9 555.05,-363.89"/>
</a>
</g>
</g>
<!-- Node12&#45;&gt;Node8 -->
<g id="edge19_Node000012_Node000008" class="edge">
<title>Node12&#45;&gt;Node8</title>
<g id="a_edge19_Node000012_Node000008"><a xlink:title=" ">
<path fill="none" stroke="#63b8ff" d="M254.24,-358.48C278.19,-389.01 328.15,-451.92 338.75,-459 344.58,-462.89 351.05,-466.21 357.71,-469.02"/>
<polygon fill="#63b8ff" stroke="#63b8ff" points="356.27,-472.21 366.86,-472.5 358.76,-465.67 356.27,-472.21"/>
</a>
</g>
</g>
<!-- Node13 -->
<g id="Node000013" class="node">
<title>Node13</title>
<g id="a_Node000013"><a xlink:href="namespaceLGE_1_1MetaDB.html#a3319d4a6a942262802fdf7ec070b368c" target="_top" xlink:title=" ">
<polygon fill="white" stroke="#666666" points="475.88,-412 364.62,-412 364.62,-392 475.88,-392 475.88,-412"/>
<text xml:space="preserve" text-anchor="middle" x="420.25" y="-398.5" font-family="Helvetica,sans-Serif" font-size="10.00">LGE::MetaDB::Exists</text>
</a>
</g>
</g>
<!-- Node12&#45;&gt;Node13 -->
<g id="edge16_Node000012_Node000013" class="edge">
<title>Node12&#45;&gt;Node13</title>
<g id="a_edge16_Node000012_Node000013"><a xlink:title=" ">
<path fill="none" stroke="#63b8ff" d="M283.82,-358.37C300.82,-364.74 320.63,-371.96 338.75,-378 349.22,-381.49 360.54,-385.02 371.29,-388.25"/>
<polygon fill="#63b8ff" stroke="#63b8ff" points="370.19,-391.58 380.77,-391.07 372.19,-384.87 370.19,-391.58"/>
</a>
</g>
</g>
<!-- Node15 -->
<g id="Node000015" class="node">
<title>Node15</title>
<g id="a_Node000015"><a xlink:href="namespaceLGE_1_1Dependencies.html#a27ba745c8f35ae88dfd10d8fab89f10d" target="_top" xlink:title=" ">
<polygon fill="white" stroke="#666666" points="481.5,-336 359,-336 359,-304 481.5,-304 481.5,-336"/>
<text xml:space="preserve" text-anchor="start" x="367" y="-322.5" font-family="Helvetica,sans-Serif" font-size="10.00">LGE::Dependencies::</text>
<text xml:space="preserve" text-anchor="middle" x="420.25" y="-310.5" font-family="Helvetica,sans-Serif" font-size="10.00">HasCircularDependency</text>
</a>
</g>
</g>
<!-- Node12&#45;&gt;Node15 -->
<g id="edge20_Node000012_Node000015" class="edge">
<title>Node12&#45;&gt;Node15</title>
<g id="a_edge20_Node000012_Node000015"><a xlink:title=" ">
<path fill="none" stroke="#63b8ff" d="M302.59,-334.43C317,-332.65 332.5,-330.73 347.34,-328.89"/>
<polygon fill="#63b8ff" stroke="#63b8ff" points="347.53,-332.4 357.02,-327.7 346.67,-325.45 347.53,-332.4"/>
</a>
</g>
</g>
<!-- Node16 -->
<g id="Node000016" class="node">
<title>Node16</title>
<g id="a_Node000016"><a xlink:href="namespaceLGE_1_1LxFile.html#a16bd14fd1af0cad0e89bcd8d5841e7fd" target="_top" xlink:title=" ">
<polygon fill="white" stroke="#666666" points="469.12,-286 371.38,-286 371.38,-266 469.12,-266 469.12,-286"/>
<text xml:space="preserve" text-anchor="middle" x="420.25" y="-272.5" font-family="Helvetica,sans-Serif" font-size="10.00">LGE::LxFile::IsFile</text>
</a>
</g>
</g>
<!-- Node12&#45;&gt;Node16 -->
<g id="edge21_Node000012_Node000016" class="edge">
<title>Node12&#45;&gt;Node16</title>
<g id="a_edge21_Node000012_Node000016"><a xlink:title=" ">
<path fill="none" stroke="#63b8ff" d="M284.36,-325.53C290.61,-322.84 296.9,-319.96 302.75,-317 319.49,-308.55 321.41,-302.13 338.75,-295 345.54,-292.21 352.83,-289.77 360.15,-287.66"/>
<polygon fill="#63b8ff" stroke="#63b8ff" points="360.99,-291.06 369.75,-285.1 359.19,-284.3 360.99,-291.06"/>
</a>
</g>
</g>
<!-- Node17 -->
<g id="Node000017" class="node">
<title>Node17</title>
<g id="a_Node000017"><a xlink:href="namespaceLGE_1_1MetaDB.html#a9f494f7c23ef0715fa5881a46b93c940" target="_top" xlink:title=" ">
<polygon fill="white" stroke="#666666" points="472.5,-122 368,-122 368,-102 472.5,-102 472.5,-122"/>
<text xml:space="preserve" text-anchor="middle" x="420.25" y="-108.5" font-family="Helvetica,sans-Serif" font-size="10.00">LGE::MetaDB::Load</text>
</a>
</g>
</g>
<!-- Node12&#45;&gt;Node17 -->
<g id="edge22_Node000012_Node000017" class="edge">
<title>Node12&#45;&gt;Node17</title>
<g id="a_edge22_Node000012_Node000017"><a xlink:title=" ">
<path fill="none" stroke="#63b8ff" d="M292.32,-325.64C296.14,-323.15 299.69,-320.28 302.75,-317 337.82,-279.37 313.65,-251.9 338.75,-207 355.34,-177.32 381.92,-148.26 399.96,-130.25"/>
<polygon fill="#63b8ff" stroke="#63b8ff" points="402.27,-132.9 406.97,-123.4 397.37,-127.89 402.27,-132.9"/>
</a>
</g>
</g>
<!-- Node26 -->
<g id="Node000026" class="node">
<title>Node26</title>
<g id="a_Node000026"><a xlink:href="namespaceLGE_1_1MetaDB.html#acf585df19a673c62d6b82587160ef8d6" target="_top" xlink:title=" ">
<polygon fill="white" stroke="#666666" points="501.75,-450 338.75,-450 338.75,-430 501.75,-430 501.75,-450"/>
<text xml:space="preserve" text-anchor="middle" x="420.25" y="-436.5" font-family="Helvetica,sans-Serif" font-size="10.00">LGE::MetaDB::RequiresMetadata</text>
</a>
</g>
</g>
<!-- Node12&#45;&gt;Node26 -->
<g id="edge44_Node000012_Node000026" class="edge">
<title>Node12&#45;&gt;Node26</title>
<g id="a_edge44_Node000012_Node000026"><a xlink:title=" ">
<path fill="none" stroke="#63b8ff" d="M256.67,-358.19C274.62,-376.23 306.12,-404.97 338.75,-421 342.45,-422.82 346.33,-424.46 350.3,-425.96"/>
<polygon fill="#63b8ff" stroke="#63b8ff" points="348.96,-429.2 359.55,-429.08 351.2,-422.57 348.96,-429.2"/>
</a>
</g>
</g>
<!-- Node29 -->
<g id="Node000029" class="node">
<title>Node29</title>
<g id="a_Node000029"><a xlink:href="namespaceLGE_1_1Dependencies.html#aa245fe1d1b6bdd9189e6a83bf71c31b8" target="_top" xlink:title=" ">
<polygon fill="white" stroke="#666666" points="483.38,-248 357.12,-248 357.12,-216 483.38,-216 483.38,-248"/>
<text xml:space="preserve" text-anchor="start" x="365.12" y="-234.5" font-family="Helvetica,sans-Serif" font-size="10.00">LGE::Dependencies::</text>
<text xml:space="preserve" text-anchor="middle" x="420.25" y="-222.5" font-family="Helvetica,sans-Serif" font-size="10.00">ValidateAssetReferences</text>
</a>
</g>
</g>
<!-- Node12&#45;&gt;Node29 -->
<g id="edge48_Node000012_Node000029" class="edge">
<title>Node12&#45;&gt;Node29</title>
<g id="a_edge48_Node000012_Node000029"><a xlink:title=" ">
<path fill="none" stroke="#63b8ff" d="M290.34,-325.57C294.77,-323.06 298.99,-320.22 302.75,-317 326.36,-296.76 314.29,-276.21 338.75,-257 341.29,-255.01 343.98,-253.17 346.79,-251.49"/>
<polygon fill="#63b8ff" stroke="#63b8ff" points="348.14,-254.73 355.37,-246.99 344.89,-248.53 348.14,-254.73"/>
</a>
</g>
</g>
<!-- Node13&#45;&gt;Node7 -->
<g id="edge17_Node000013_Node000007" class="edge">
<title>Node13&#45;&gt;Node7</title>
<g id="a_edge17_Node000013_Node000007"><a xlink:title=" ">
<path fill="none" stroke="#63b8ff" d="M475.19,-391.52C500.1,-386.67 529.79,-380.9 555.54,-375.9"/>
<polygon fill="#63b8ff" stroke="#63b8ff" points="556.04,-379.37 565.19,-374.02 554.71,-372.49 556.04,-379.37"/>
</a>
</g>
</g>
<!-- Node14 -->
<g id="Node000014" class="node">
<title>Node14</title>
<g id="a_Node000014"><a xlink:href="namespaceLGE_1_1MetaDB.html#ac399a4083a7e189046618cbf3142dbbe" target="_top" xlink:title=" ">
<polygon fill="white" stroke="#666666" points="885.5,-400 745.75,-400 745.75,-380 885.5,-380 885.5,-400"/>
<text xml:space="preserve" text-anchor="middle" x="815.62" y="-386.5" font-family="Helvetica,sans-Serif" font-size="10.00">LGE::MetaDB::MetaPathFor</text>
</a>
</g>
</g>
<!-- Node13&#45;&gt;Node14 -->
<g id="edge18_Node000013_Node000014" class="edge">
<title>Node13&#45;&gt;Node14</title>
<g id="a_edge18_Node000013_Node000014"><a xlink:title=" ">
<path fill="none" stroke="#63b8ff" d="M476.36,-400.32C543.47,-398.27 657.37,-394.8 734.25,-392.45"/>
<polygon fill="#63b8ff" stroke="#63b8ff" points="733.92,-395.96 743.81,-392.16 733.7,-388.97 733.92,-395.96"/>
</a>
</g>
</g>
<!-- Node17&#45;&gt;Node3 -->
<g id="edge23_Node000017_Node000003" class="edge">
<title>Node17&#45;&gt;Node3</title>
<g id="a_edge23_Node000017_Node000003"><a xlink:title=" ">
<path fill="none" stroke="#63b8ff" d="M472.73,-106.42C547.8,-98.78 691.77,-86 814.62,-86 814.62,-86 814.62,-86 1156.12,-86 1263.74,-86 1297.41,-108.62 1380.5,-177 1413.26,-203.96 1437.02,-248.51 1448.94,-274.47"/>
<polygon fill="#63b8ff" stroke="#63b8ff" points="1445.59,-275.55 1452.84,-283.27 1451.99,-272.71 1445.59,-275.55"/>
</a>
</g>
</g>
<!-- Node17&#45;&gt;Node7 -->
<g id="edge24_Node000017_Node000007" class="edge">
<title>Node17&#45;&gt;Node7</title>
<g id="a_edge24_Node000017_Node000007"><a xlink:title=" ">
<path fill="none" stroke="#63b8ff" d="M441.77,-122.34C460.36,-132.81 487.04,-150.74 501.75,-174 542.11,-237.8 486.58,-284.49 537.75,-340 542.91,-345.59 549.32,-349.9 556.25,-353.21"/>
<polygon fill="#63b8ff" stroke="#63b8ff" points="554.69,-356.36 565.28,-356.82 557.29,-349.86 554.69,-356.36"/>
</a>
</g>
</g>
<!-- Node17&#45;&gt;Node14 -->
<g id="edge25_Node000017_Node000014" class="edge">
<title>Node17&#45;&gt;Node14</title>
<g id="a_edge25_Node000017_Node000014"><a xlink:title=" ">
<path fill="none" stroke="#63b8ff" d="M441.02,-122.4C459.35,-133.02 486.07,-151.17 501.75,-174 533.52,-220.25 498.35,-255.06 537.75,-295 590.07,-348.04 631.13,-311.65 697.75,-345 715.4,-353.84 715.79,-362.81 733.75,-371 737.96,-372.92 742.38,-374.66 746.9,-376.23"/>
<polygon fill="#63b8ff" stroke="#63b8ff" points="745.52,-379.46 756.11,-379.14 747.63,-372.79 745.52,-379.46"/>
</a>
</g>
</g>
<!-- Node18 -->
<g id="Node000018" class="node">
<title>Node18</title>
<g id="a_Node000018"><a xlink:href="namespaceLGE_1_1Migration.html#a47ee5b06f8c57da1952156f69f9582b7" target="_top" xlink:title=" ">
<polygon fill="white" stroke="#666666" points="697.75,-172 537.75,-172 537.75,-152 697.75,-152 697.75,-172"/>
<text xml:space="preserve" text-anchor="middle" x="617.75" y="-158.5" font-family="Helvetica,sans-Serif" font-size="10.00">LGE::Migration::MigrateMetadata</text>
</a>
</g>
</g>
<!-- Node17&#45;&gt;Node18 -->
<g id="edge26_Node000017_Node000018" class="edge">
<title>Node17&#45;&gt;Node18</title>
<g id="a_edge26_Node000017_Node000018"><a xlink:title=" ">
<path fill="none" stroke="#63b8ff" d="M462.23,-122.48C492.08,-130.12 532.73,-140.51 564.85,-148.73"/>
<polygon fill="#63b8ff" stroke="#63b8ff" points="563.8,-152.07 574.35,-151.16 565.53,-145.29 563.8,-152.07"/>
</a>
</g>
</g>
<!-- Node19 -->
<g id="Node000019" class="node">
<title>Node19</title>
<g id="a_Node000019"><a xlink:href="namespaceLGE_1_1Migration.html#ae8f608f31e72e26c06b1eb0f62dedfb1" target="_top" xlink:title=" ">
<polygon fill="white" stroke="#666666" points="893.38,-134 737.88,-134 737.88,-114 893.38,-114 893.38,-134"/>
<text xml:space="preserve" text-anchor="middle" x="815.62" y="-120.5" font-family="Helvetica,sans-Serif" font-size="10.00">LGE::Migration::NeedsMigration</text>
</a>
</g>
</g>
<!-- Node17&#45;&gt;Node19 -->
<g id="edge31_Node000017_Node000019" class="edge">
<title>Node17&#45;&gt;Node19</title>
<g id="a_edge31_Node000017_Node000019"><a xlink:title=" ">
<path fill="none" stroke="#63b8ff" d="M472.68,-113.57C536.99,-115.53 648.12,-118.92 726.19,-121.3"/>
<polygon fill="#63b8ff" stroke="#63b8ff" points="725.85,-124.79 735.95,-121.6 726.06,-117.8 725.85,-124.79"/>
</a>
</g>
</g>
<!-- Node21 -->
<g id="Node000021" class="node">
<title>Node21</title>
<g id="a_Node000021"><a xlink:href="namespaceLGE_1_1LxFile.html#ac0a61f0e1f49fdcf553f007750c1ba37" target="_top" xlink:title=" ">
<polygon fill="white" stroke="#666666" points="1047,-58 938.75,-58 938.75,-38 1047,-38 1047,-58"/>
<text xml:space="preserve" text-anchor="middle" x="992.88" y="-44.5" font-family="Helvetica,sans-Serif" font-size="10.00">LGE::LxFile::ReadAll</text>
</a>
</g>
</g>
<!-- Node17&#45;&gt;Node21 -->
<g id="edge32_Node000017_Node000021" class="edge">
<title>Node17&#45;&gt;Node21</title>
<g id="a_edge32_Node000017_Node000021"><a xlink:title=" ">
<path fill="none" stroke="#63b8ff" d="M445.26,-101.55C468.44,-91.99 504.79,-78.4 537.75,-72 674.41,-45.47 838.27,-44.1 927.01,-45.82"/>
<polygon fill="#63b8ff" stroke="#63b8ff" points="926.92,-49.32 936.99,-46.03 927.07,-42.32 926.92,-49.32"/>
</a>
</g>
</g>
<!-- Node22 -->
<g id="Node000022" class="node">
<title>Node22</title>
<g id="a_Node000022"><a xlink:href="namespaceLGE_1_1MetaDB.html#a93501266bbc2bb77874f90247fcc90ba" target="_top" xlink:title=" ">
<polygon fill="white" stroke="#666666" points="670.75,-286 564.75,-286 564.75,-266 670.75,-266 670.75,-286"/>
<text xml:space="preserve" text-anchor="middle" x="617.75" y="-272.5" font-family="Helvetica,sans-Serif" font-size="10.00">LGE::MetaDB::Save</text>
</a>
</g>
</g>
<!-- Node17&#45;&gt;Node22 -->
<g id="edge34_Node000017_Node000022" class="edge">
<title>Node17&#45;&gt;Node22</title>
<g id="a_edge34_Node000017_Node000022"><a xlink:title=" ">
<path fill="none" stroke="#63b8ff" d="M435.44,-122.46C451.71,-134.56 479.05,-155.23 501.75,-174 536.09,-202.4 574.57,-237.15 597.17,-257.88"/>
<polygon fill="#63b8ff" stroke="#63b8ff" points="594.71,-260.38 604.44,-264.57 599.45,-255.23 594.71,-260.38"/>
</a>
</g>
</g>
<!-- Node17&#45;&gt;Node25 -->
<g id="edge43_Node000017_Node000025" class="edge">
<title>Node17&#45;&gt;Node25</title>
<g id="a_edge43_Node000017_Node000025"><a xlink:title=" ">
<path fill="none" stroke="#63b8ff" d="M439.18,-101.6C455.73,-91.83 480.83,-76.58 501.75,-62 518.38,-50.41 519.75,-43.32 537.75,-34 545.89,-29.78 554.9,-26.17 563.83,-23.13"/>
<polygon fill="#63b8ff" stroke="#63b8ff" points="564.71,-26.52 573.18,-20.16 562.59,-19.85 564.71,-26.52"/>
</a>
</g>
</g>
<!-- Node18&#45;&gt;Node3 -->
<g id="edge27_Node000018_Node000003" class="edge">
<title>Node18&#45;&gt;Node3</title>
<g id="a_edge27_Node000018_Node000003"><a xlink:title=" ">
<path fill="none" stroke="#63b8ff" d="M698.09,-162C773.62,-162 890.5,-162 991.88,-162 991.88,-162 991.88,-162 1156.12,-162 1269.36,-162 1387.72,-241.5 1435.6,-277.57"/>
<polygon fill="#63b8ff" stroke="#63b8ff" points="1433.45,-280.33 1443.51,-283.64 1437.71,-274.78 1433.45,-280.33"/>
</a>
</g>
</g>
<!-- Node18&#45;&gt;Node11 -->
<g id="edge28_Node000018_Node000011" class="edge">
<title>Node18&#45;&gt;Node11</title>
<g id="a_edge28_Node000018_Node000011"><a xlink:title=" ">
<path fill="none" stroke="#63b8ff" d="M672.79,-172.48C701.36,-178.03 736.2,-184.79 764.2,-190.22"/>
<polygon fill="#63b8ff" stroke="#63b8ff" points="763.39,-193.62 773.87,-192.09 764.72,-186.75 763.39,-193.62"/>
</a>
</g>
</g>
<!-- Node18&#45;&gt;Node19 -->
<g id="edge29_Node000018_Node000019" class="edge">
<title>Node18&#45;&gt;Node19</title>
<g id="a_edge29_Node000018_Node000019"><a xlink:title=" ">
<path fill="none" stroke="#63b8ff" d="M672.79,-151.52C696.56,-146.91 724.67,-141.45 749.57,-136.62"/>
<polygon fill="#63b8ff" stroke="#63b8ff" points="750.12,-140.08 759.27,-134.74 748.79,-133.21 750.12,-140.08"/>
</a>
</g>
</g>
<!-- Node20 -->
<g id="Node000020" class="node">
<title>Node20</title>
<g id="a_Node000020"><a xlink:href="namespaceLGE_1_1MetaDB.html#ad37cdebb704d7ca276bbb10e84d94f1a" target="_top" xlink:title=" ">
<polygon fill="white" stroke="#666666" points="897.5,-248 733.75,-248 733.75,-228 897.5,-228 897.5,-248"/>
<text xml:space="preserve" text-anchor="middle" x="815.62" y="-234.5" font-family="Helvetica,sans-Serif" font-size="10.00">LGE::MetaDB::UpdateTimestamp</text>
</a>
</g>
</g>
<!-- Node18&#45;&gt;Node20 -->
<g id="edge30_Node000018_Node000020" class="edge">
<title>Node18&#45;&gt;Node20</title>
<g id="a_edge30_Node000018_Node000020"><a xlink:title=" ">
<path fill="none" stroke="#63b8ff" d="M636.51,-172.41C658.63,-185 697.9,-206.1 733.75,-219 739.43,-221.05 745.42,-222.93 751.46,-224.65"/>
<polygon fill="#63b8ff" stroke="#63b8ff" points="750.31,-227.97 760.88,-227.18 752.13,-221.21 750.31,-227.97"/>
</a>
</g>
</g>
<!-- Node21&#45;&gt;Node3 -->
<g id="edge33_Node000021_Node000003" class="edge">
<title>Node21&#45;&gt;Node3</title>
<g id="a_edge33_Node000021_Node000003"><a xlink:title=" ">
<path fill="none" stroke="#63b8ff" d="M1033.23,-37.51C1109.02,-19.84 1276.9,6.74 1380.5,-72 1445.05,-121.06 1455.89,-227.56 1457.48,-273.35"/>
<polygon fill="#63b8ff" stroke="#63b8ff" points="1453.98,-273.36 1457.7,-283.28 1460.98,-273.21 1453.98,-273.36"/>
</a>
</g>
</g>
<!-- Node22&#45;&gt;Node3 -->
<g id="edge35_Node000022_Node000003" class="edge">
<title>Node22&#45;&gt;Node3</title>
<g id="a_edge35_Node000022_Node000003"><a xlink:title=" ">
<path fill="none" stroke="#63b8ff" d="M670.97,-276C743.12,-276 877.38,-276 991.88,-276 991.88,-276 991.88,-276 1156.12,-276 1243.58,-276 1345.03,-284.06 1405.13,-289.68"/>
<polygon fill="#63b8ff" stroke="#63b8ff" points="1404.43,-293.13 1414.72,-290.59 1405.09,-286.16 1404.43,-293.13"/>
</a>
</g>
</g>
<!-- Node22&#45;&gt;Node11 -->
<g id="edge37_Node000022_Node000011" class="edge">
<title>Node22&#45;&gt;Node11</title>
<g id="a_edge37_Node000022_Node000011"><a xlink:title=" ">
<path fill="none" stroke="#63b8ff" d="M636.51,-265.59C658.63,-253 697.9,-231.9 733.75,-219 743.52,-215.49 754.18,-212.44 764.47,-209.89"/>
<polygon fill="#63b8ff" stroke="#63b8ff" points="765.03,-213.36 773.96,-207.66 763.42,-206.54 765.03,-213.36"/>
</a>
</g>
</g>
<!-- Node22&#45;&gt;Node14 -->
<g id="edge38_Node000022_Node000014" class="edge">
<title>Node22&#45;&gt;Node14</title>
<g id="a_edge38_Node000022_Node000014"><a xlink:title=" ">
<path fill="none" stroke="#63b8ff" d="M652.84,-286.42C667.82,-292.22 684.89,-300.6 697.75,-312 720.74,-332.38 708.87,-352.98 733.75,-371 735.55,-372.3 737.42,-373.51 739.35,-374.65"/>
<polygon fill="#63b8ff" stroke="#63b8ff" points="737.57,-377.67 748.09,-378.97 740.68,-371.4 737.57,-377.67"/>
</a>
</g>
</g>
<!-- Node22&#45;&gt;Node20 -->
<g id="edge39_Node000022_Node000020" class="edge">
<title>Node22&#45;&gt;Node20</title>
<g id="a_edge39_Node000022_Node000020"><a xlink:title=" ">
<path fill="none" stroke="#63b8ff" d="M671.24,-265.82C695.33,-261.14 724.13,-255.56 749.57,-250.62"/>
<polygon fill="#63b8ff" stroke="#63b8ff" points="749.99,-254.11 759.14,-248.76 748.65,-247.23 749.99,-254.11"/>
</a>
</g>
</g>
<!-- Node23 -->
<g id="Node000023" class="node">
<title>Node23</title>
<g id="a_Node000023"><a xlink:href="namespaceLGE_1_1MetaDB.html#aa5218c5875c7c064fac11782f4ca1783" target="_top" xlink:title=" ">
<polygon fill="white" stroke="#666666" points="890,-362 741.25,-362 741.25,-342 890,-342 890,-362"/>
<text xml:space="preserve" text-anchor="middle" x="815.62" y="-348.5" font-family="Helvetica,sans-Serif" font-size="10.00">LGE::MetaDB::GenerateGUID</text>
</a>
</g>
</g>
<!-- Node22&#45;&gt;Node23 -->
<g id="edge36_Node000022_Node000023" class="edge">
<title>Node22&#45;&gt;Node23</title>
<g id="a_edge36_Node000022_Node000023"><a xlink:title=" ">
<path fill="none" stroke="#63b8ff" d="M643.26,-286.41C659.01,-293.28 679.82,-302.71 697.75,-312 714.2,-320.52 716.54,-326.14 733.75,-333 738.68,-334.97 743.87,-336.76 749.13,-338.39"/>
<polygon fill="#63b8ff" stroke="#63b8ff" points="747.96,-341.7 758.54,-341.09 749.89,-334.97 747.96,-341.7"/>
</a>
</g>
</g>
<!-- Node24 -->
<g id="Node000024" class="node">
<title>Node24</title>
<g id="a_Node000024"><a xlink:href="namespaceLGE_1_1LxFile.html#a06d0b8c5590da8bc48cf22d321fc4074" target="_top" xlink:title=" ">
<polygon fill="white" stroke="#666666" points="869.38,-324 761.88,-324 761.88,-304 869.38,-304 869.38,-324"/>
<text xml:space="preserve" text-anchor="middle" x="815.62" y="-310.5" font-family="Helvetica,sans-Serif" font-size="10.00">LGE::LxFile::WriteAll</text>
</a>
</g>
</g>
<!-- Node22&#45;&gt;Node24 -->
<g id="edge40_Node000022_Node000024" class="edge">
<title>Node22&#45;&gt;Node24</title>
<g id="a_edge40_Node000022_Node000024"><a xlink:title=" ">
<path fill="none" stroke="#63b8ff" d="M671.24,-286.18C695.62,-290.91 724.83,-296.58 750.51,-301.56"/>
<polygon fill="#63b8ff" stroke="#63b8ff" points="749.68,-304.97 760.16,-303.43 751.01,-298.09 749.68,-304.97"/>
</a>
</g>
</g>
<!-- Node24&#45;&gt;Node3 -->
<g id="edge41_Node000024_Node000003" class="edge">
<title>Node24&#45;&gt;Node3</title>
<g id="a_edge41_Node000024_Node000003"><a xlink:title=" ">
<path fill="none" stroke="#63b8ff" d="M869.63,-312.43C990.24,-308.85 1284.08,-300.14 1404.66,-296.57"/>
<polygon fill="#63b8ff" stroke="#63b8ff" points="1404.71,-300.07 1414.6,-296.28 1404.51,-293.07 1404.71,-300.07"/>
</a>
</g>
</g>
<!-- Node24&#45;&gt;Node4 -->
<g id="edge42_Node000024_Node000004" class="edge">
<title>Node24&#45;&gt;Node4</title>
<g id="a_edge42_Node000024_Node000004"><a xlink:title=" ">
<path fill="none" stroke="#63b8ff" d="M866.56,-324.48C876.87,-326.99 887.6,-329.86 897.5,-333 918.14,-339.54 940.65,-348.52 958.5,-356.12"/>
<polygon fill="#63b8ff" stroke="#63b8ff" points="957.01,-359.28 967.57,-360.03 959.78,-352.86 957.01,-359.28"/>
</a>
</g>
</g>
<!-- Node27 -->
<g id="Node000027" class="node">
<title>Node27</title>
<g id="a_Node000027"><a xlink:href="namespaceLGE_1_1LxPath.html#a442709c353add1504cfb1d9d496f3014" target="_top" xlink:title=" ">
<polygon fill="white" stroke="#666666" points="686.5,-450 549,-450 549,-430 686.5,-430 686.5,-450"/>
<text xml:space="preserve" text-anchor="middle" x="617.75" y="-436.5" font-family="Helvetica,sans-Serif" font-size="10.00">LGE::LxPath::GetExtension</text>
</a>
</g>
</g>
<!-- Node26&#45;&gt;Node27 -->
<g id="edge45_Node000026_Node000027" class="edge">
<title>Node26&#45;&gt;Node27</title>
<g id="a_edge45_Node000026_Node000027"><a xlink:title=" ">
<path fill="none" stroke="#63b8ff" d="M502.18,-440C513.76,-440 525.67,-440 537.22,-440"/>
<polygon fill="#63b8ff" stroke="#63b8ff" points="537.12,-443.5 547.12,-440 537.12,-436.5 537.12,-443.5"/>
</a>
</g>
</g>
<!-- Node28 -->
<g id="Node000028" class="node">
<title>Node28</title>
<g id="a_Node000028"><a xlink:href="namespaceLGE_1_1LxPath.html#a282200340a7ec214f14f5d64e9e41396" target="_top" xlink:title=" ">
<polygon fill="white" stroke="#666666" points="1222,-438 1088.25,-438 1088.25,-418 1222,-418 1222,-438"/>
<text xml:space="preserve" text-anchor="middle" x="1155.12" y="-424.5" font-family="Helvetica,sans-Serif" font-size="10.00">LGE::LxPath::GetFilename</text>
</a>
</g>
</g>
<!-- Node27&#45;&gt;Node28 -->
<g id="edge46_Node000027_Node000028" class="edge">
<title>Node27&#45;&gt;Node28</title>
<g id="a_edge46_Node000027_Node000028"><a xlink:title=" ">
<path fill="none" stroke="#63b8ff" d="M686.83,-438.47C786.45,-436.24 971.48,-432.09 1076.34,-429.74"/>
<polygon fill="#63b8ff" stroke="#63b8ff" points="1076.35,-433.24 1086.27,-429.52 1076.2,-426.25 1076.35,-433.24"/>
</a>
</g>
</g>
<!-- Node28&#45;&gt;Node6 -->
<g id="edge47_Node000028_Node000006" class="edge">
<title>Node28&#45;&gt;Node6</title>
<g id="a_edge47_Node000028_Node000006"><a xlink:title=" ">
<path fill="none" stroke="#63b8ff" d="M1185.86,-417.55C1211.61,-408.49 1249.08,-395.32 1277.6,-385.29"/>
<polygon fill="#63b8ff" stroke="#63b8ff" points="1278.73,-388.61 1287,-381.99 1276.41,-382 1278.73,-388.61"/>
</a>
</g>
</g>
</g>
</svg>
