<?xml version="1.0" encoding="UTF-8" standalone="no"?>
<!DOCTYPE svg PUBLIC "-//W3C//DTD SVG 1.1//EN"
 "http://www.w3.org/Graphics/SVG/1.1/DTD/svg11.dtd">
<!-- Generated by graphviz version 14.0.2 (20251019.1705)
 -->
<!-- Title: LGE::Backup::RestoreBackup Pages: 1 -->
<svg width="1163pt" height="375pt"
 viewBox="0.00 0.00 1163.00 375.00" xmlns="http://www.w3.org/2000/svg" xmlns:xlink="http://www.w3.org/1999/xlink">
<g id="graph0" class="graph" transform="scale(1 1) rotate(0) translate(4 371)">
<title>LGE::Backup::RestoreBackup</title>
<!-- Node1 -->
<g id="Node000001" class="node">
<title>Node1</title>
<g id="a_Node000001"><a xlink:title=" ">
<polygon fill="#999999" stroke="#666666" points="148,-115 0,-115 0,-95 148,-95 148,-115"/>
<text xml:space="preserve" text-anchor="middle" x="74" y="-101.5" font-family="Helvetica,sans-Serif" font-size="10.00">LGE::Backup::RestoreBackup</text>
</a>
</g>
</g>
<!-- Node2 -->
<g id="Node000002" class="node">
<title>Node2</title>
<g id="a_Node000002"><a xlink:href="namespaceLGE_1_1Compression.html#a2846e365c47a6e243106be9db7c25cd0" target="_top" xlink:title=" ">
<polygon fill="white" stroke="#666666" points="344.75,-203 184,-203 184,-171 344.75,-171 344.75,-203"/>
<text xml:space="preserve" text-anchor="start" x="192" y="-189.5" font-family="Helvetica,sans-Serif" font-size="10.00">LGE::Compression::Decompress</text>
<text xml:space="preserve" text-anchor="middle" x="264.38" y="-177.5" font-family="Helvetica,sans-Serif" font-size="10.00">Archive</text>
</a>
</g>
</g>
<!-- Node1&#45;&gt;Node2 -->
<g id="edge1_Node000001_Node000002" class="edge">
<title>Node1&#45;&gt;Node2</title>
<g id="a_edge1_Node000001_Node000002"><a xlink:title=" ">
<path fill="none" stroke="#63b8ff" d="M98.86,-115.39C128.09,-128.11 178.31,-149.97 215.6,-166.2"/>
<polygon fill="#63b8ff" stroke="#63b8ff" points="213.79,-169.23 224.36,-170.02 216.58,-162.81 213.79,-169.23"/>
</a>
</g>
</g>
<!-- Node8 -->
<g id="Node000008" class="node">
<title>Node8</title>
<g id="a_Node000008"><a xlink:href="namespaceLGE_1_1LxFile.html#a11e62876b312a11b881b484bb3a5ee71" target="_top" xlink:title=" ">
<polygon fill="white" stroke="#666666" points="507.38,-115 405.88,-115 405.88,-95 507.38,-95 507.38,-115"/>
<text xml:space="preserve" text-anchor="middle" x="456.62" y="-101.5" font-family="Helvetica,sans-Serif" font-size="10.00">LGE::LxFile::Exists</text>
</a>
</g>
</g>
<!-- Node1&#45;&gt;Node8 -->
<g id="edge23_Node000001_Node000008" class="edge">
<title>Node1&#45;&gt;Node8</title>
<g id="a_edge23_Node000001_Node000008"><a xlink:title=" ">
<path fill="none" stroke="#63b8ff" d="M148.39,-105C219.86,-105 327.26,-105 394.31,-105"/>
<polygon fill="#63b8ff" stroke="#63b8ff" points="394.01,-108.5 404.01,-105 394.01,-101.5 394.01,-108.5"/>
</a>
</g>
</g>
<!-- Node10 -->
<g id="Node000010" class="node">
<title>Node10</title>
<g id="a_Node000010"><a xlink:href="namespaceLGE_1_1Compression.html#a5cb00aa30da7aad66c9fcf19d8ba51e5" target="_top" xlink:title=" ">
<polygon fill="white" stroke="#666666" points="532.5,-367 380.75,-367 380.75,-335 532.5,-335 532.5,-367"/>
<text xml:space="preserve" text-anchor="start" x="388.75" y="-353.5" font-family="Helvetica,sans-Serif" font-size="10.00">LGE::Compression::GetFormat</text>
<text xml:space="preserve" text-anchor="middle" x="456.62" y="-341.5" font-family="Helvetica,sans-Serif" font-size="10.00">FromExtension</text>
</a>
</g>
</g>
<!-- Node1&#45;&gt;Node10 -->
<g id="edge25_Node000001_Node000010" class="edge">
<title>Node1&#45;&gt;Node10</title>
<g id="a_edge25_Node000001_Node000010"><a xlink:title=" ">
<path fill="none" stroke="#63b8ff" d="M83.74,-115.49C101.19,-135.98 142.27,-181.92 184,-212 254.85,-263.07 347.11,-306.01 403.81,-330.11"/>
<polygon fill="#63b8ff" stroke="#63b8ff" points="402.34,-333.3 412.92,-333.95 405.06,-326.84 402.34,-333.3"/>
</a>
</g>
</g>
<!-- Node14 -->
<g id="Node000014" class="node">
<title>Node14</title>
<g id="a_Node000014"><a xlink:href="classLGE_1_1Log.html#ab0265ee050b8873a2fd31fbdb696ced0" target="_top" xlink:title=" ">
<polygon fill="white" stroke="#666666" points="496.5,-77 416.75,-77 416.75,-57 496.5,-57 496.5,-77"/>
<text xml:space="preserve" text-anchor="middle" x="456.62" y="-63.5" font-family="Helvetica,sans-Serif" font-size="10.00">LGE::Log::Info</text>
</a>
</g>
</g>
<!-- Node1&#45;&gt;Node14 -->
<g id="edge26_Node000001_Node000014" class="edge">
<title>Node1&#45;&gt;Node14</title>
<g id="a_edge26_Node000001_Node000014"><a xlink:title=" ">
<path fill="none" stroke="#63b8ff" d="M148.39,-97.67C223.79,-90.15 339.17,-78.63 404.98,-72.06"/>
<polygon fill="#63b8ff" stroke="#63b8ff" points="405.17,-75.55 414.77,-71.08 404.48,-68.59 405.17,-75.55"/>
</a>
</g>
</g>
<!-- Node17 -->
<g id="Node000017" class="node">
<title>Node17</title>
<g id="a_Node000017"><a xlink:href="namespaceLGE_1_1Backup.html#a87132da026cf31e6a63ac04ec2fc09b7" target="_top" xlink:title=" ">
<polygon fill="white" stroke="#666666" points="329,-58 199.75,-58 199.75,-38 329,-38 329,-58"/>
<text xml:space="preserve" text-anchor="middle" x="264.38" y="-44.5" font-family="Helvetica,sans-Serif" font-size="10.00">LGE::Backup::GetBackup</text>
</a>
</g>
</g>
<!-- Node1&#45;&gt;Node17 -->
<g id="edge24_Node000001_Node000017" class="edge">
<title>Node1&#45;&gt;Node17</title>
<g id="a_edge24_Node000001_Node000017"><a xlink:title=" ">
<path fill="none" stroke="#63b8ff" d="M109.36,-94.59C130.82,-88.1 159.02,-79.56 184,-72 195.06,-68.65 206.98,-65.05 218.15,-61.67"/>
<polygon fill="#63b8ff" stroke="#63b8ff" points="218.98,-65.08 227.54,-58.83 216.96,-58.38 218.98,-65.08"/>
</a>
</g>
</g>
<!-- Node18 -->
<g id="Node000018" class="node">
<title>Node18</title>
<g id="a_Node000018"><a xlink:href="namespaceLGE_1_1LxFS.html#a12aeb6699602f14153953dceb4284914" target="_top" xlink:title=" ">
<polygon fill="white" stroke="#666666" points="312.5,-20 216.25,-20 216.25,0 312.5,0 312.5,-20"/>
<text xml:space="preserve" text-anchor="middle" x="264.38" y="-6.5" font-family="Helvetica,sans-Serif" font-size="10.00">LGE::LxFS::Paths</text>
</a>
</g>
</g>
<!-- Node1&#45;&gt;Node18 -->
<g id="edge27_Node000001_Node000018" class="edge">
<title>Node1&#45;&gt;Node18</title>
<g id="a_edge27_Node000001_Node000018"><a xlink:title=" ">
<path fill="none" stroke="#63b8ff" d="M86.52,-94.74C105.48,-78.38 145.06,-46.48 184,-29 190.61,-26.03 197.75,-23.49 204.93,-21.33"/>
<polygon fill="#63b8ff" stroke="#63b8ff" points="205.65,-24.76 214.36,-18.73 203.79,-18.01 205.65,-24.76"/>
</a>
</g>
</g>
<!-- Node3 -->
<g id="Node000003" class="node">
<title>Node3</title>
<g id="a_Node000003"><a xlink:href="namespaceLGE_1_1LxFile.html#a7a3f0b3462a34877039001eb0aaac788" target="_top" xlink:title=" ">
<polygon fill="white" stroke="#666666" points="528,-241 385.25,-241 385.25,-221 528,-221 528,-241"/>
<text xml:space="preserve" text-anchor="middle" x="456.62" y="-227.5" font-family="Helvetica,sans-Serif" font-size="10.00">LGE::LxFile::CreateDirectory</text>
</a>
</g>
</g>
<!-- Node2&#45;&gt;Node3 -->
<g id="edge2_Node000002_Node000003" class="edge">
<title>Node2&#45;&gt;Node3</title>
<g id="a_edge2_Node000002_Node000003"><a xlink:title=" ">
<path fill="none" stroke="#63b8ff" d="M336.49,-203.45C357.23,-208.24 379.6,-213.42 399.29,-217.97"/>
<polygon fill="#63b8ff" stroke="#63b8ff" points="398.23,-221.32 408.76,-220.16 399.81,-214.5 398.23,-221.32"/>
</a>
</g>
</g>
<!-- Node2&#45;&gt;Node8 -->
<g id="edge9_Node000002_Node000008" class="edge">
<title>Node2&#45;&gt;Node8</title>
<g id="a_edge9_Node000002_Node000008"><a xlink:title=" ">
<path fill="none" stroke="#63b8ff" d="M291.04,-170.53C313.84,-156.51 348.46,-136.68 380.75,-124 385.72,-122.05 390.95,-120.25 396.24,-118.59"/>
<polygon fill="#63b8ff" stroke="#63b8ff" points="397.06,-122 405.68,-115.83 395.09,-115.28 397.06,-122"/>
</a>
</g>
</g>
<!-- Node9 -->
<g id="Node000009" class="node">
<title>Node9</title>
<g id="a_Node000009"><a xlink:href="namespaceLGE_1_1Compression.html#a7d42ab993dbaa3b8a82b82e5d0d6ea8a" target="_top" xlink:title=" ">
<polygon fill="white" stroke="#666666" points="524.62,-203 388.62,-203 388.62,-171 524.62,-171 524.62,-203"/>
<text xml:space="preserve" text-anchor="start" x="396.62" y="-189.5" font-family="Helvetica,sans-Serif" font-size="10.00">LGE::Compression::Format</text>
<text xml:space="preserve" text-anchor="middle" x="456.62" y="-177.5" font-family="Helvetica,sans-Serif" font-size="10.00">ToString</text>
</a>
</g>
</g>
<!-- Node2&#45;&gt;Node9 -->
<g id="edge10_Node000002_Node000009" class="edge">
<title>Node2&#45;&gt;Node9</title>
<g id="a_edge10_Node000002_Node000009"><a xlink:title=" ">
<path fill="none" stroke="#63b8ff" d="M345.23,-187C355.76,-187 366.55,-187 377.05,-187"/>
<polygon fill="#63b8ff" stroke="#63b8ff" points="376.81,-190.5 386.81,-187 376.81,-183.5 376.81,-190.5"/>
</a>
</g>
</g>
<!-- Node2&#45;&gt;Node10 -->
<g id="edge11_Node000002_Node000010" class="edge">
<title>Node2&#45;&gt;Node10</title>
<g id="a_edge11_Node000002_Node000010"><a xlink:title=" ">
<path fill="none" stroke="#63b8ff" d="M280.19,-203.43C296.27,-221.35 322.63,-250.96 344.75,-277 361.11,-296.26 360.38,-306.05 380.75,-321 385.04,-324.15 389.71,-327.02 394.54,-329.64"/>
<polygon fill="#63b8ff" stroke="#63b8ff" points="392.77,-332.66 403.29,-333.96 395.88,-326.39 392.77,-332.66"/>
</a>
</g>
</g>
<!-- Node13 -->
<g id="Node000013" class="node">
<title>Node13</title>
<g id="a_Node000013"><a xlink:href="namespaceLGE_1_1LxPath.html#aefae4d45f84718077f5218f64d2f074c" target="_top" xlink:title=" ">
<polygon fill="white" stroke="#666666" points="698.5,-317 576,-317 576,-297 698.5,-297 698.5,-317"/>
<text xml:space="preserve" text-anchor="middle" x="637.25" y="-303.5" font-family="Helvetica,sans-Serif" font-size="10.00">LGE::LxPath::GetParent</text>
</a>
</g>
</g>
<!-- Node2&#45;&gt;Node13 -->
<g id="edge15_Node000002_Node000013" class="edge">
<title>Node2&#45;&gt;Node13</title>
<g id="a_edge15_Node000002_Node000013"><a xlink:title=" ">
<path fill="none" stroke="#63b8ff" d="M279.05,-203.35C298.87,-225.74 337.92,-265.2 380.75,-283 439.3,-307.33 511.71,-312.03 564.47,-311.4"/>
<polygon fill="#63b8ff" stroke="#63b8ff" points="564.32,-314.9 574.25,-311.21 564.18,-307.9 564.32,-314.9"/>
</a>
</g>
</g>
<!-- Node2&#45;&gt;Node14 -->
<g id="edge17_Node000002_Node000014" class="edge">
<title>Node2&#45;&gt;Node14</title>
<g id="a_edge17_Node000002_Node000014"><a xlink:title=" ">
<path fill="none" stroke="#63b8ff" d="M279.3,-170.72C299.41,-148.26 338.8,-108.04 380.75,-86 388.34,-82.01 396.82,-78.83 405.26,-76.3"/>
<polygon fill="#63b8ff" stroke="#63b8ff" points="406.05,-79.71 414.8,-73.73 404.23,-72.95 406.05,-79.71"/>
</a>
</g>
</g>
<!-- Node15 -->
<g id="Node000015" class="node">
<title>Node15</title>
<g id="a_Node000015"><a xlink:href="namespaceLGE_1_1LxPath.html#a94ec3bdfd6948ddc25cda5d18154d4cf" target="_top" xlink:title=" ">
<polygon fill="white" stroke="#666666" points="857,-279 760.75,-279 760.75,-259 857,-259 857,-279"/>
<text xml:space="preserve" text-anchor="middle" x="808.88" y="-265.5" font-family="Helvetica,sans-Serif" font-size="10.00">LGE::LxPath::Join</text>
</a>
</g>
</g>
<!-- Node2&#45;&gt;Node15 -->
<g id="edge18_Node000002_Node000015" class="edge">
<title>Node2&#45;&gt;Node15</title>
<g id="a_edge18_Node000002_Node000015"><a xlink:title=" ">
<path fill="none" stroke="#63b8ff" d="M336.43,-203.38C339.31,-204.8 342.09,-206.33 344.75,-208 365.57,-221.07 358.65,-239.23 380.75,-250 443.96,-280.79 647.53,-276.42 749.1,-272.06"/>
<polygon fill="#63b8ff" stroke="#63b8ff" points="749.03,-275.57 758.86,-271.62 748.72,-268.57 749.03,-275.57"/>
</a>
</g>
</g>
<!-- Node16 -->
<g id="Node000016" class="node">
<title>Node16</title>
<g id="a_Node000016"><a xlink:href="namespaceLGE_1_1LxFile.html#a06d0b8c5590da8bc48cf22d321fc4074" target="_top" xlink:title=" ">
<polygon fill="white" stroke="#666666" points="510.38,-153 402.88,-153 402.88,-133 510.38,-133 510.38,-153"/>
<text xml:space="preserve" text-anchor="middle" x="456.62" y="-139.5" font-family="Helvetica,sans-Serif" font-size="10.00">LGE::LxFile::WriteAll</text>
</a>
</g>
</g>
<!-- Node2&#45;&gt;Node16 -->
<g id="edge20_Node000002_Node000016" class="edge">
<title>Node2&#45;&gt;Node16</title>
<g id="a_edge20_Node000002_Node000016"><a xlink:title=" ">
<path fill="none" stroke="#63b8ff" d="M336.49,-170.55C357.23,-165.76 379.6,-160.58 399.29,-156.03"/>
<polygon fill="#63b8ff" stroke="#63b8ff" points="399.81,-159.5 408.76,-153.84 398.23,-152.68 399.81,-159.5"/>
</a>
</g>
</g>
<!-- Node4 -->
<g id="Node000004" class="node">
<title>Node4</title>
<g id="a_Node000004"><a xlink:href="classLGE_1_1Log.html#a53f3f4b8797ffd18145739c9e66d690a" target="_top" xlink:title=" ">
<polygon fill="white" stroke="#666666" points="1154.5,-241 1070.25,-241 1070.25,-221 1154.5,-221 1154.5,-241"/>
<text xml:space="preserve" text-anchor="middle" x="1112.38" y="-227.5" font-family="Helvetica,sans-Serif" font-size="10.00">LGE::Log::Error</text>
</a>
</g>
</g>
<!-- Node3&#45;&gt;Node4 -->
<g id="edge3_Node000003_Node000004" class="edge">
<title>Node3&#45;&gt;Node4</title>
<g id="a_edge3_Node000003_Node000004"><a xlink:title=" ">
<path fill="none" stroke="#63b8ff" d="M528.21,-231C660.2,-231 941.6,-231 1058.62,-231"/>
<polygon fill="#63b8ff" stroke="#63b8ff" points="1058.57,-234.5 1068.57,-231 1058.57,-227.5 1058.57,-234.5"/>
</a>
</g>
</g>
<!-- Node5 -->
<g id="Node000005" class="node">
<title>Node5</title>
<g id="a_Node000005"><a xlink:href="namespaceLGE_1_1VFS.html#abb5d35abfe80efe2f7a07394ad5b706a" target="_top" xlink:title=" ">
<polygon fill="white" stroke="#666666" points="696.62,-184 577.88,-184 577.88,-164 696.62,-164 696.62,-184"/>
<text xml:space="preserve" text-anchor="middle" x="637.25" y="-170.5" font-family="Helvetica,sans-Serif" font-size="10.00">LGE::VFS::IsReadOnly</text>
</a>
</g>
</g>
<!-- Node3&#45;&gt;Node5 -->
<g id="edge4_Node000003_Node000005" class="edge">
<title>Node3&#45;&gt;Node5</title>
<g id="a_edge4_Node000003_Node000005"><a xlink:title=" ">
<path fill="none" stroke="#63b8ff" d="M501.78,-220.6C511.93,-217.98 522.63,-215.05 532.5,-212 554.97,-205.05 579.72,-196.04 599.41,-188.54"/>
<polygon fill="#63b8ff" stroke="#63b8ff" points="600.58,-191.84 608.65,-184.98 598.06,-185.31 600.58,-191.84"/>
</a>
</g>
</g>
<!-- Node6 -->
<g id="Node000006" class="node">
<title>Node6</title>
<g id="a_Node000006"><a xlink:href="namespaceLGE_1_1LxPath.html#ab664986e94ce09aa029f9eb2fcf50133" target="_top" xlink:title=" ">
<polygon fill="white" stroke="#666666" points="870.88,-165 746.88,-165 746.88,-145 870.88,-145 870.88,-165"/>
<text xml:space="preserve" text-anchor="middle" x="808.88" y="-151.5" font-family="Helvetica,sans-Serif" font-size="10.00">LGE::LxPath::IsSubPath</text>
</a>
</g>
</g>
<!-- Node5&#45;&gt;Node6 -->
<g id="edge5_Node000005_Node000006" class="edge">
<title>Node5&#45;&gt;Node6</title>
<g id="a_edge5_Node000005_Node000006"><a xlink:title=" ">
<path fill="none" stroke="#63b8ff" d="M697.1,-167.41C709.46,-166.02 722.63,-164.55 735.42,-163.12"/>
<polygon fill="#63b8ff" stroke="#63b8ff" points="735.48,-166.63 745.03,-162.04 734.7,-159.67 735.48,-166.63"/>
</a>
</g>
</g>
<!-- Node7 -->
<g id="Node000007" class="node">
<title>Node7</title>
<g id="a_Node000007"><a xlink:href="namespaceLGE_1_1LxPath.html#a314a60ce690c90f4ee0b4e64c0199408" target="_top" xlink:title=" ">
<polygon fill="white" stroke="#666666" points="1034.25,-279 911.75,-279 911.75,-259 1034.25,-259 1034.25,-279"/>
<text xml:space="preserve" text-anchor="middle" x="973" y="-265.5" font-family="Helvetica,sans-Serif" font-size="10.00">LGE::LxPath::Normalize</text>
</a>
</g>
</g>
<!-- Node5&#45;&gt;Node7 -->
<g id="edge8_Node000005_Node000007" class="edge">
<title>Node5&#45;&gt;Node7</title>
<g id="a_edge8_Node000005_Node000007"><a xlink:title=" ">
<path fill="none" stroke="#63b8ff" d="M674.92,-184.44C735.72,-201.74 857.32,-236.36 924.56,-255.5"/>
<polygon fill="#63b8ff" stroke="#63b8ff" points="923.24,-258.76 933.81,-258.13 925.15,-252.03 923.24,-258.76"/>
</a>
</g>
</g>
<!-- Node6&#45;&gt;Node7 -->
<g id="edge6_Node000006_Node000007" class="edge">
<title>Node6&#45;&gt;Node7</title>
<g id="a_edge6_Node000006_Node000007"><a xlink:title=" ">
<path fill="none" stroke="#63b8ff" d="M846.64,-165.45C856.47,-169.02 866.83,-173.52 875.75,-179 907.73,-198.63 938.24,-230.05 956.04,-250.1"/>
<polygon fill="#63b8ff" stroke="#63b8ff" points="953.3,-252.28 962.5,-257.53 958.58,-247.69 953.3,-252.28"/>
</a>
</g>
</g>
<!-- Node7&#45;&gt;Node4 -->
<g id="edge7_Node000007_Node000004" class="edge">
<title>Node7&#45;&gt;Node4</title>
<g id="a_edge7_Node000007_Node000004"><a xlink:title=" ">
<path fill="none" stroke="#63b8ff" d="M1011.9,-258.52C1027.67,-254.15 1046.16,-249.04 1062.9,-244.41"/>
<polygon fill="#63b8ff" stroke="#63b8ff" points="1063.43,-247.89 1072.14,-241.85 1061.57,-241.15 1063.43,-247.89"/>
</a>
</g>
</g>
<!-- Node11 -->
<g id="Node000011" class="node">
<title>Node11</title>
<g id="a_Node000011"><a xlink:href="namespaceLGE_1_1LxPath.html#a442709c353add1504cfb1d9d496f3014" target="_top" xlink:title=" ">
<polygon fill="white" stroke="#666666" points="706,-359 568.5,-359 568.5,-339 706,-339 706,-359"/>
<text xml:space="preserve" text-anchor="middle" x="637.25" y="-345.5" font-family="Helvetica,sans-Serif" font-size="10.00">LGE::LxPath::GetExtension</text>
</a>
</g>
</g>
<!-- Node10&#45;&gt;Node11 -->
<g id="edge12_Node000010_Node000011" class="edge">
<title>Node10&#45;&gt;Node11</title>
<g id="a_edge12_Node000010_Node000011"><a xlink:title=" ">
<path fill="none" stroke="#63b8ff" d="M532.86,-350.16C540.74,-350.07 548.77,-349.98 556.69,-349.89"/>
<polygon fill="#63b8ff" stroke="#63b8ff" points="556.73,-353.39 566.69,-349.78 556.65,-346.39 556.73,-353.39"/>
</a>
</g>
</g>
<!-- Node12 -->
<g id="Node000012" class="node">
<title>Node12</title>
<g id="a_Node000012"><a xlink:href="namespaceLGE_1_1LxPath.html#a282200340a7ec214f14f5d64e9e41396" target="_top" xlink:title=" ">
<polygon fill="white" stroke="#666666" points="875.75,-358 742,-358 742,-338 875.75,-338 875.75,-358"/>
<text xml:space="preserve" text-anchor="middle" x="808.88" y="-344.5" font-family="Helvetica,sans-Serif" font-size="10.00">LGE::LxPath::GetFilename</text>
</a>
</g>
</g>
<!-- Node11&#45;&gt;Node12 -->
<g id="edge13_Node000011_Node000012" class="edge">
<title>Node11&#45;&gt;Node12</title>
<g id="a_edge13_Node000011_Node000012"><a xlink:title=" ">
<path fill="none" stroke="#63b8ff" d="M706.27,-348.6C714.07,-348.55 722.07,-348.51 729.99,-348.46"/>
<polygon fill="#63b8ff" stroke="#63b8ff" points="730.01,-351.96 739.99,-348.4 729.97,-344.96 730.01,-351.96"/>
</a>
</g>
</g>
<!-- Node12&#45;&gt;Node7 -->
<g id="edge14_Node000012_Node000007" class="edge">
<title>Node12&#45;&gt;Node7</title>
<g id="a_edge14_Node000012_Node000007"><a xlink:title=" ">
<path fill="none" stroke="#63b8ff" d="M837.08,-337.6C849.07,-332.83 863.24,-326.92 875.75,-321 899.36,-309.82 925.38,-295.65 944.41,-284.92"/>
<polygon fill="#63b8ff" stroke="#63b8ff" points="945.92,-288.09 952.88,-280.1 942.46,-282 945.92,-288.09"/>
</a>
</g>
</g>
<!-- Node13&#45;&gt;Node7 -->
<g id="edge16_Node000013_Node000007" class="edge">
<title>Node13&#45;&gt;Node7</title>
<g id="a_edge16_Node000013_Node000007"><a xlink:title=" ">
<path fill="none" stroke="#63b8ff" d="M698.98,-304.07C747.09,-301.29 815.93,-296.27 875.75,-288 888.02,-286.3 901.09,-284.04 913.51,-281.66"/>
<polygon fill="#63b8ff" stroke="#63b8ff" points="914.07,-285.12 923.21,-279.76 912.72,-278.25 914.07,-285.12"/>
</a>
</g>
</g>
<!-- Node15&#45;&gt;Node7 -->
<g id="edge19_Node000015_Node000007" class="edge">
<title>Node15&#45;&gt;Node7</title>
<g id="a_edge19_Node000015_Node000007"><a xlink:title=" ">
<path fill="none" stroke="#63b8ff" d="M857.2,-269C870.55,-269 885.39,-269 899.84,-269"/>
<polygon fill="#63b8ff" stroke="#63b8ff" points="899.8,-272.5 909.8,-269 899.8,-265.5 899.8,-272.5"/>
</a>
</g>
</g>
<!-- Node16&#45;&gt;Node4 -->
<g id="edge21_Node000016_Node000004" class="edge">
<title>Node16&#45;&gt;Node4</title>
<g id="a_edge21_Node000016_Node000004"><a xlink:title=" ">
<path fill="none" stroke="#63b8ff" d="M510.71,-135.15C590.71,-124.87 746.57,-110.94 875.75,-136 953.99,-151.18 1039.16,-192.26 1082.51,-215.11"/>
<polygon fill="#63b8ff" stroke="#63b8ff" points="1080.79,-218.16 1091.26,-219.79 1084.09,-211.99 1080.79,-218.16"/>
</a>
</g>
</g>
<!-- Node16&#45;&gt;Node5 -->
<g id="edge22_Node000016_Node000005" class="edge">
<title>Node16&#45;&gt;Node5</title>
<g id="a_edge22_Node000016_Node000005"><a xlink:title=" ">
<path fill="none" stroke="#63b8ff" d="M510.73,-152.22C528.11,-155.23 547.68,-158.63 566.11,-161.83"/>
<polygon fill="#63b8ff" stroke="#63b8ff" points="565.47,-165.27 575.92,-163.53 566.66,-158.37 565.47,-165.27"/>
</a>
</g>
</g>
</g>
</svg>
