<?xml version="1.0" encoding="UTF-8" standalone="no"?>
<!DOCTYPE svg PUBLIC "-//W3C//DTD SVG 1.1//EN"
 "http://www.w3.org/Graphics/SVG/1.1/DTD/svg11.dtd">
<!-- Generated by graphviz version 14.0.2 (20251019.1705)
 -->
<!-- Title: LGE::VFS::ResolveAbsolute Pages: 1 -->
<svg width="574pt" height="104pt"
 viewBox="0.00 0.00 574.00 104.00" xmlns="http://www.w3.org/2000/svg" xmlns:xlink="http://www.w3.org/1999/xlink">
<g id="graph0" class="graph" transform="scale(1 1) rotate(0) translate(4 100)">
<title>LGE::VFS::ResolveAbsolute</title>
<!-- Node1 -->
<g id="Node000001" class="node">
<title>Node1</title>
<g id="a_Node000001"><a xlink:title=" ">
<polygon fill="#999999" stroke="#666666" points="141.25,-58 0,-58 0,-38 141.25,-38 141.25,-58"/>
<text xml:space="preserve" text-anchor="middle" x="70.62" y="-44.5" font-family="Helvetica,sans-Serif" font-size="10.00">LGE::VFS::ResolveAbsolute</text>
</a>
</g>
</g>
<!-- Node2 -->
<g id="Node000002" class="node">
<title>Node2</title>
<g id="a_Node000002"><a xlink:href="namespaceLGE_1_1VFS.html#a0566c02123208c6b867418e914f9574b" target="_top" xlink:title=" ">
<polygon fill="white" stroke="#666666" points="287,-96 177.25,-96 177.25,-76 287,-76 287,-96"/>
<text xml:space="preserve" text-anchor="middle" x="232.12" y="-82.5" font-family="Helvetica,sans-Serif" font-size="10.00">LGE::VFS::GetMount</text>
</a>
</g>
</g>
<!-- Node1&#45;&gt;Node2 -->
<g id="edge1_Node000001_Node000002" class="edge">
<title>Node1&#45;&gt;Node2</title>
<g id="a_edge1_Node000001_Node000002"><a xlink:title=" ">
<path fill="none" stroke="#63b8ff" d="M115.63,-58.48C134.37,-62.95 156.43,-68.21 176.23,-72.92"/>
<polygon fill="#63b8ff" stroke="#63b8ff" points="175.25,-76.29 185.79,-75.2 176.87,-69.48 175.25,-76.29"/>
</a>
</g>
</g>
<!-- Node3 -->
<g id="Node000003" class="node">
<title>Node3</title>
<g id="a_Node000003"><a xlink:href="namespaceLGE_1_1LxPath.html#a94ec3bdfd6948ddc25cda5d18154d4cf" target="_top" xlink:title=" ">
<polygon fill="white" stroke="#666666" points="280.25,-58 184,-58 184,-38 280.25,-38 280.25,-58"/>
<text xml:space="preserve" text-anchor="middle" x="232.12" y="-44.5" font-family="Helvetica,sans-Serif" font-size="10.00">LGE::LxPath::Join</text>
</a>
</g>
</g>
<!-- Node1&#45;&gt;Node3 -->
<g id="edge2_Node000001_Node000003" class="edge">
<title>Node1&#45;&gt;Node3</title>
<g id="a_edge2_Node000001_Node000003"><a xlink:title=" ">
<path fill="none" stroke="#63b8ff" d="M141.58,-48C151.81,-48 162.26,-48 172.23,-48"/>
<polygon fill="#63b8ff" stroke="#63b8ff" points="172.18,-51.5 182.18,-48 172.18,-44.5 172.18,-51.5"/>
</a>
</g>
</g>
<!-- Node6 -->
<g id="Node000006" class="node">
<title>Node6</title>
<g id="a_Node000006"><a xlink:href="classLGE_1_1Log.html#aa6f98018af29c23dd7f574d3df5dda5e" target="_top" xlink:title=" ">
<polygon fill="white" stroke="#666666" points="275,-20 189.25,-20 189.25,0 275,0 275,-20"/>
<text xml:space="preserve" text-anchor="middle" x="232.12" y="-6.5" font-family="Helvetica,sans-Serif" font-size="10.00">LGE::Log::Warn</text>
</a>
</g>
</g>
<!-- Node1&#45;&gt;Node6 -->
<g id="edge5_Node000001_Node000006" class="edge">
<title>Node1&#45;&gt;Node6</title>
<g id="a_edge5_Node000001_Node000006"><a xlink:title=" ">
<path fill="none" stroke="#63b8ff" d="M115.63,-37.52C134.93,-32.92 157.74,-27.48 177.97,-22.66"/>
<polygon fill="#63b8ff" stroke="#63b8ff" points="178.52,-26.13 187.44,-20.41 176.9,-19.32 178.52,-26.13"/>
</a>
</g>
</g>
<!-- Node4 -->
<g id="Node000004" class="node">
<title>Node4</title>
<g id="a_Node000004"><a xlink:href="namespaceLGE_1_1LxPath.html#a314a60ce690c90f4ee0b4e64c0199408" target="_top" xlink:title=" ">
<polygon fill="white" stroke="#666666" points="445.5,-58 323,-58 323,-38 445.5,-38 445.5,-58"/>
<text xml:space="preserve" text-anchor="middle" x="384.25" y="-44.5" font-family="Helvetica,sans-Serif" font-size="10.00">LGE::LxPath::Normalize</text>
</a>
</g>
</g>
<!-- Node3&#45;&gt;Node4 -->
<g id="edge3_Node000003_Node000004" class="edge">
<title>Node3&#45;&gt;Node4</title>
<g id="a_edge3_Node000003_Node000004"><a xlink:title=" ">
<path fill="none" stroke="#63b8ff" d="M280.63,-48C290.4,-48 300.91,-48 311.33,-48"/>
<polygon fill="#63b8ff" stroke="#63b8ff" points="311.05,-51.5 321.05,-48 311.05,-44.5 311.05,-51.5"/>
</a>
</g>
</g>
<!-- Node5 -->
<g id="Node000005" class="node">
<title>Node5</title>
<g id="a_Node000005"><a xlink:href="classLGE_1_1Log.html#a53f3f4b8797ffd18145739c9e66d690a" target="_top" xlink:title=" ">
<polygon fill="white" stroke="#666666" points="565.75,-58 481.5,-58 481.5,-38 565.75,-38 565.75,-58"/>
<text xml:space="preserve" text-anchor="middle" x="523.62" y="-44.5" font-family="Helvetica,sans-Serif" font-size="10.00">LGE::Log::Error</text>
</a>
</g>
</g>
<!-- Node4&#45;&gt;Node5 -->
<g id="edge4_Node000004_Node000005" class="edge">
<title>Node4&#45;&gt;Node5</title>
<g id="a_edge4_Node000004_Node000005"><a xlink:title=" ">
<path fill="none" stroke="#63b8ff" d="M445.9,-48C453.92,-48 462.09,-48 469.95,-48"/>
<polygon fill="#63b8ff" stroke="#63b8ff" points="469.7,-51.5 479.7,-48 469.7,-44.5 469.7,-51.5"/>
</a>
</g>
</g>
</g>
</svg>
