<?xml version="1.0" encoding="UTF-8" standalone="no"?>
<!DOCTYPE svg PUBLIC "-//W3C//DTD SVG 1.1//EN"
 "http://www.w3.org/Graphics/SVG/1.1/DTD/svg11.dtd">
<!-- Generated by graphviz version 14.0.2 (20251019.1705)
 -->
<!-- Title: LGE::LxPath::SanitizeFilename Pages: 1 -->
<svg width="422pt" height="180pt"
 viewBox="0.00 0.00 422.00 180.00" xmlns="http://www.w3.org/2000/svg" xmlns:xlink="http://www.w3.org/1999/xlink">
<g id="graph0" class="graph" transform="scale(1 1) rotate(0) translate(4 176)">
<title>LGE::LxPath::SanitizeFilename</title>
<!-- Node1 -->
<g id="Node000001" class="node">
<title>Node1</title>
<g id="a_Node000001"><a xlink:title=" ">
<polygon fill="#999999" stroke="#666666" points="414,-96 260.75,-96 260.75,-76 414,-76 414,-96"/>
<text xml:space="preserve" text-anchor="middle" x="337.38" y="-82.5" font-family="Helvetica,sans-Serif" font-size="10.00">LGE::LxPath::SanitizeFilename</text>
</a>
</g>
</g>
<!-- Node2 -->
<g id="Node000002" class="node">
<title>Node2</title>
<g id="a_Node000002"><a xlink:href="namespaceLGE_1_1LxPath.html#a91e87a86bb269adc5cde2af9fd03faca" target="_top" xlink:title=" ">
<polygon fill="white" stroke="#666666" points="224.75,-172 77.5,-172 77.5,-152 224.75,-152 224.75,-172"/>
<text xml:space="preserve" text-anchor="middle" x="151.12" y="-158.5" font-family="Helvetica,sans-Serif" font-size="10.00">LGE::LxPath::IsValidFilename</text>
</a>
</g>
</g>
<!-- Node1&#45;&gt;Node2 -->
<g id="edge1_Node000001_Node000002" class="edge">
<title>Node1&#45;&gt;Node2</title>
<g id="a_edge1_Node000001_Node000002"><a xlink:title=" ">
<path fill="none" stroke="#63b8ff" d="M309.44,-101.85C287.28,-114.36 254.77,-131.56 224.75,-143 216.35,-146.2 207.2,-149.06 198.31,-151.52"/>
<polygon fill="#63b8ff" stroke="#63b8ff" points="310.88,-105.06 317.82,-97.05 307.4,-98.98 310.88,-105.06"/>
</a>
</g>
</g>
<!-- Node4 -->
<g id="Node000004" class="node">
<title>Node4</title>
<g id="a_Node000004"><a xlink:href="namespaceLGE_1_1FSOps.html#af18c06e20bfe14f2a2de43ea8bddefc1" target="_top" xlink:title=" ">
<polygon fill="white" stroke="#666666" points="213.12,-134 89.12,-134 89.12,-114 213.12,-114 213.12,-134"/>
<text xml:space="preserve" text-anchor="middle" x="151.12" y="-120.5" font-family="Helvetica,sans-Serif" font-size="10.00">LGE::FSOps::NewAsset</text>
</a>
</g>
</g>
<!-- Node1&#45;&gt;Node4 -->
<g id="edge3_Node000001_Node000004" class="edge">
<title>Node1&#45;&gt;Node4</title>
<g id="a_edge3_Node000001_Node000004"><a xlink:title=" ">
<path fill="none" stroke="#63b8ff" d="M274.37,-98.79C251.09,-103.59 224.93,-108.99 202.79,-113.55"/>
<polygon fill="#63b8ff" stroke="#63b8ff" points="274.97,-102.24 284.06,-96.79 273.56,-95.38 274.97,-102.24"/>
</a>
</g>
</g>
<!-- Node5 -->
<g id="Node000005" class="node">
<title>Node5</title>
<g id="a_Node000005"><a xlink:href="namespaceLGE_1_1FSOps.html#a7f1957de8291a7a7d914feb628c6a85b" target="_top" xlink:title=" ">
<polygon fill="white" stroke="#666666" points="213.88,-96 88.38,-96 88.38,-76 213.88,-76 213.88,-96"/>
<text xml:space="preserve" text-anchor="middle" x="151.12" y="-82.5" font-family="Helvetica,sans-Serif" font-size="10.00">LGE::FSOps::NewFolder</text>
</a>
</g>
</g>
<!-- Node1&#45;&gt;Node5 -->
<g id="edge4_Node000001_Node000005" class="edge">
<title>Node1&#45;&gt;Node5</title>
<g id="a_edge4_Node000001_Node000005"><a xlink:title=" ">
<path fill="none" stroke="#63b8ff" d="M249.12,-86C237.33,-86 225.43,-86 214.2,-86"/>
<polygon fill="#63b8ff" stroke="#63b8ff" points="248.86,-89.5 258.86,-86 248.86,-82.5 248.86,-89.5"/>
</a>
</g>
</g>
<!-- Node6 -->
<g id="Node000006" class="node">
<title>Node6</title>
<g id="a_Node000006"><a xlink:href="namespaceLGE_1_1FSOps.html#a73a5f7725534ee44eab8e17badf96f9f" target="_top" xlink:title=" ">
<polygon fill="white" stroke="#666666" points="208.62,-58 93.62,-58 93.62,-38 208.62,-38 208.62,-58"/>
<text xml:space="preserve" text-anchor="middle" x="151.12" y="-44.5" font-family="Helvetica,sans-Serif" font-size="10.00">LGE::FSOps::Rename</text>
</a>
</g>
</g>
<!-- Node1&#45;&gt;Node6 -->
<g id="edge5_Node000001_Node000006" class="edge">
<title>Node1&#45;&gt;Node6</title>
<g id="a_edge5_Node000001_Node000006"><a xlink:title=" ">
<path fill="none" stroke="#63b8ff" d="M274.37,-73.21C251.09,-68.41 224.93,-63.01 202.79,-58.45"/>
<polygon fill="#63b8ff" stroke="#63b8ff" points="273.56,-76.62 284.06,-75.21 274.97,-69.76 273.56,-76.62"/>
</a>
</g>
</g>
<!-- Node7 -->
<g id="Node000007" class="node">
<title>Node7</title>
<g id="a_Node000007"><a xlink:href="TestPath_8cpp.html#a22ff67ecd3220cf60ed950cbf5956a7d" target="_top" xlink:title=" ">
<polygon fill="white" stroke="#666666" points="171.88,-20 130.38,-20 130.38,0 171.88,0 171.88,-20"/>
<text xml:space="preserve" text-anchor="middle" x="151.12" y="-6.5" font-family="Helvetica,sans-Serif" font-size="10.00">TEST</text>
</a>
</g>
</g>
<!-- Node1&#45;&gt;Node7 -->
<g id="edge6_Node000001_Node000007" class="edge">
<title>Node1&#45;&gt;Node7</title>
<g id="a_edge6_Node000001_Node000007"><a xlink:title=" ">
<path fill="none" stroke="#63b8ff" d="M309.44,-70.15C287.28,-57.64 254.77,-40.44 224.75,-29 207.46,-22.41 187,-17.29 172.22,-14.03"/>
<polygon fill="#63b8ff" stroke="#63b8ff" points="307.4,-73.02 317.82,-74.95 310.88,-66.94 307.4,-73.02"/>
</a>
</g>
</g>
<!-- Node3 -->
<g id="Node000003" class="node">
<title>Node3</title>
<g id="a_Node000003"><a xlink:href="TestPath_8cpp.html#a8294cf9ab9c80fdf7389c3d49b4bdcac" target="_top" xlink:title=" ">
<polygon fill="white" stroke="#666666" points="41.5,-172 0,-172 0,-152 41.5,-152 41.5,-172"/>
<text xml:space="preserve" text-anchor="middle" x="20.75" y="-158.5" font-family="Helvetica,sans-Serif" font-size="10.00">TEST</text>
</a>
</g>
</g>
<!-- Node2&#45;&gt;Node3 -->
<g id="edge2_Node000002_Node000003" class="edge">
<title>Node2&#45;&gt;Node3</title>
<g id="a_edge2_Node000002_Node000003"><a xlink:title=" ">
<path fill="none" stroke="#63b8ff" d="M65.9,-162C57.09,-162 48.83,-162 41.9,-162"/>
<polygon fill="#63b8ff" stroke="#63b8ff" points="65.8,-165.5 75.8,-162 65.8,-158.5 65.8,-165.5"/>
</a>
</g>
</g>
</g>
</svg>
