<?xml version="1.0" encoding="UTF-8" standalone="no"?>
<!DOCTYPE svg PUBLIC "-//W3C//DTD SVG 1.1//EN"
 "http://www.w3.org/Graphics/SVG/1.1/DTD/svg11.dtd">
<!-- Generated by graphviz version 14.0.2 (20251019.1705)
 -->
<!-- Title: LGE::LxPath::GetParent Pages: 1 -->
<svg width="701pt" height="530pt"
 viewBox="0.00 0.00 701.00 530.00" xmlns="http://www.w3.org/2000/svg" xmlns:xlink="http://www.w3.org/1999/xlink">
<g id="graph0" class="graph" transform="scale(1 1) rotate(0) translate(4 526)">
<title>LGE::LxPath::GetParent</title>
<!-- Node1 -->
<g id="Node000001" class="node">
<title>Node1</title>
<g id="a_Node000001"><a xlink:title=" ">
<polygon fill="#999999" stroke="#666666" points="692.5,-256 570,-256 570,-236 692.5,-236 692.5,-256"/>
<text xml:space="preserve" text-anchor="middle" x="631.25" y="-242.5" font-family="Helvetica,sans-Serif" font-size="10.00">LGE::LxPath::GetParent</text>
</a>
</g>
</g>
<!-- Node2 -->
<g id="Node000002" class="node">
<title>Node2</title>
<g id="a_Node000002"><a xlink:href="namespaceLGE_1_1Thumbs.html#a20e7c9fbfb16b84f63099872c64f241d" target="_top" xlink:title=" ">
<polygon fill="white" stroke="#666666" points="496.5,-507 392,-507 392,-487 496.5,-487 496.5,-507"/>
<text xml:space="preserve" text-anchor="middle" x="444.25" y="-493.5" font-family="Helvetica,sans-Serif" font-size="10.00">LGE::Thumbs::Build</text>
</a>
</g>
</g>
<!-- Node1&#45;&gt;Node2 -->
<g id="edge1_Node000001_Node000002" class="edge">
<title>Node1&#45;&gt;Node2</title>
<g id="a_edge1_Node000001_Node000002"><a xlink:title=" ">
<path fill="none" stroke="#63b8ff" d="M627.04,-267.5C619.31,-311.74 595.52,-413.45 534,-469 523.57,-478.42 509.98,-484.67 496.58,-488.82"/>
<polygon fill="#63b8ff" stroke="#63b8ff" points="630.45,-268.33 628.61,-257.9 623.54,-267.21 630.45,-268.33"/>
</a>
</g>
</g>
<!-- Node5 -->
<g id="Node000005" class="node">
<title>Node5</title>
<g id="a_Node000005"><a xlink:href="namespaceLGE_1_1Backup.html#a8db5be221811de56211321d119281ce0" target="_top" xlink:title=" ">
<polygon fill="white" stroke="#666666" points="515.62,-460 372.88,-460 372.88,-440 515.62,-440 515.62,-460"/>
<text xml:space="preserve" text-anchor="middle" x="444.25" y="-446.5" font-family="Helvetica,sans-Serif" font-size="10.00">LGE::Backup::CreateBackup</text>
</a>
</g>
</g>
<!-- Node1&#45;&gt;Node5 -->
<g id="edge4_Node000001_Node000005" class="edge">
<title>Node1&#45;&gt;Node5</title>
<g id="a_edge4_Node000001_Node000005"><a xlink:title=" ">
<path fill="none" stroke="#63b8ff" d="M625.47,-267.44C615.59,-306.48 589.09,-389.03 534,-431 528.48,-435.2 522.24,-438.52 515.69,-441.13"/>
<polygon fill="#63b8ff" stroke="#63b8ff" points="628.84,-268.41 627.76,-257.87 622.03,-266.78 628.84,-268.41"/>
</a>
</g>
</g>
<!-- Node8 -->
<g id="Node000008" class="node">
<title>Node8</title>
<g id="a_Node000008"><a xlink:href="namespaceLGE_1_1Versioning.html#a775af9b7b8c6d3c3d09ef0384e301e14" target="_top" xlink:title=" ">
<polygon fill="white" stroke="#666666" points="521.25,-422 367.25,-422 367.25,-402 521.25,-402 521.25,-422"/>
<text xml:space="preserve" text-anchor="middle" x="444.25" y="-408.5" font-family="Helvetica,sans-Serif" font-size="10.00">LGE::Versioning::CreateVersion</text>
</a>
</g>
</g>
<!-- Node1&#45;&gt;Node8 -->
<g id="edge7_Node000001_Node000008" class="edge">
<title>Node1&#45;&gt;Node8</title>
<g id="a_edge7_Node000001_Node000008"><a xlink:title=" ">
<path fill="none" stroke="#63b8ff" d="M622.75,-266.62C609.88,-298.96 580.38,-361.2 534,-393 528.93,-396.47 523.35,-399.33 517.52,-401.68"/>
<polygon fill="#63b8ff" stroke="#63b8ff" points="625.91,-268.18 626.21,-257.58 619.37,-265.68 625.91,-268.18"/>
</a>
</g>
</g>
<!-- Node9 -->
<g id="Node000009" class="node">
<title>Node9</title>
<g id="a_Node000009"><a xlink:href="namespaceLGE_1_1Compression.html#a2846e365c47a6e243106be9db7c25cd0" target="_top" xlink:title=" ">
<polygon fill="white" stroke="#666666" points="524.62,-384 363.88,-384 363.88,-352 524.62,-352 524.62,-384"/>
<text xml:space="preserve" text-anchor="start" x="371.88" y="-370.5" font-family="Helvetica,sans-Serif" font-size="10.00">LGE::Compression::Decompress</text>
<text xml:space="preserve" text-anchor="middle" x="444.25" y="-358.5" font-family="Helvetica,sans-Serif" font-size="10.00">Archive</text>
</a>
</g>
</g>
<!-- Node1&#45;&gt;Node9 -->
<g id="edge8_Node000001_Node000009" class="edge">
<title>Node1&#45;&gt;Node9</title>
<g id="a_edge8_Node000001_Node000009"><a xlink:title=" ">
<path fill="none" stroke="#63b8ff" d="M616.2,-265.25C599.15,-287.23 568.4,-322.76 534,-343 528.48,-346.25 522.52,-349.09 516.39,-351.58"/>
<polygon fill="#63b8ff" stroke="#63b8ff" points="618.88,-267.5 622.12,-257.41 613.3,-263.28 618.88,-267.5"/>
</a>
</g>
</g>
<!-- Node11 -->
<g id="Node000011" class="node">
<title>Node11</title>
<g id="a_Node000011"><a xlink:href="namespaceLGE_1_1Versioning.html#ac89f33831ce990a8bf35ef89462d899f" target="_top" xlink:title=" ">
<polygon fill="white" stroke="#666666" points="510.38,-334 378.12,-334 378.12,-302 510.38,-302 510.38,-334"/>
<text xml:space="preserve" text-anchor="start" x="386.12" y="-320.5" font-family="Helvetica,sans-Serif" font-size="10.00">LGE::Versioning::DeleteAll</text>
<text xml:space="preserve" text-anchor="middle" x="444.25" y="-308.5" font-family="Helvetica,sans-Serif" font-size="10.00">Versions</text>
</a>
</g>
</g>
<!-- Node1&#45;&gt;Node11 -->
<g id="edge10_Node000001_Node000011" class="edge">
<title>Node1&#45;&gt;Node11</title>
<g id="a_edge10_Node000001_Node000011"><a xlink:title=" ">
<path fill="none" stroke="#63b8ff" d="M601.53,-261.72C582.7,-271.59 557.35,-284.09 534,-293 525.92,-296.08 517.31,-298.97 508.73,-301.62"/>
<polygon fill="#63b8ff" stroke="#63b8ff" points="603,-264.89 610.19,-257.11 599.72,-258.71 603,-264.89"/>
</a>
</g>
</g>
<!-- Node12 -->
<g id="Node000012" class="node">
<title>Node12</title>
<g id="a_Node000012"><a xlink:href="namespaceLGE_1_1PackageMgr.html#a2138962562e438984a747c5f878442fc" target="_top" xlink:title=" ">
<polygon fill="white" stroke="#666666" points="511.12,-284 377.38,-284 377.38,-252 511.12,-252 511.12,-284"/>
<text xml:space="preserve" text-anchor="start" x="385.38" y="-270.5" font-family="Helvetica,sans-Serif" font-size="10.00">LGE::PackageMgr::Extract</text>
<text xml:space="preserve" text-anchor="middle" x="444.25" y="-258.5" font-family="Helvetica,sans-Serif" font-size="10.00">Package</text>
</a>
</g>
</g>
<!-- Node1&#45;&gt;Node12 -->
<g id="edge11_Node000001_Node000012" class="edge">
<title>Node1&#45;&gt;Node12</title>
<g id="a_edge11_Node000001_Node000012"><a xlink:title=" ">
<path fill="none" stroke="#63b8ff" d="M558.55,-254.53C543.03,-256.37 526.68,-258.32 511.39,-260.13"/>
<polygon fill="#63b8ff" stroke="#63b8ff" points="558.65,-258.04 568.17,-253.38 557.83,-251.09 558.65,-258.04"/>
</a>
</g>
</g>
<!-- Node15 -->
<g id="Node000015" class="node">
<title>Node15</title>
<g id="a_Node000015"><a xlink:href="namespaceLGE_1_1AssetRegistry.html#a1dd4cafe392f5d9eead953c4ad7c73bc" target="_top" xlink:title=" ">
<polygon fill="white" stroke="#666666" points="502.5,-196 386,-196 386,-164 502.5,-164 502.5,-196"/>
<text xml:space="preserve" text-anchor="start" x="394" y="-182.5" font-family="Helvetica,sans-Serif" font-size="10.00">LGE::AssetRegistry</text>
<text xml:space="preserve" text-anchor="middle" x="444.25" y="-170.5" font-family="Helvetica,sans-Serif" font-size="10.00">::GetAssetsInDirectory</text>
</a>
</g>
</g>
<!-- Node1&#45;&gt;Node15 -->
<g id="edge14_Node000001_Node000015" class="edge">
<title>Node1&#45;&gt;Node15</title>
<g id="a_edge14_Node000001_Node000015"><a xlink:title=" ">
<path fill="none" stroke="#63b8ff" d="M597.54,-230.83C579.1,-222.6 555.52,-212.58 534,-205 524.03,-201.49 513.31,-198.13 502.88,-195.07"/>
<polygon fill="#63b8ff" stroke="#63b8ff" points="596.08,-234.01 606.63,-234.94 598.96,-227.63 596.08,-234.01"/>
</a>
</g>
</g>
<!-- Node18 -->
<g id="Node000018" class="node">
<title>Node18</title>
<g id="a_Node000018"><a xlink:href="namespaceLGE_1_1Optimization.html#af2494f8684e1126f12c084d070ae77d7" target="_top" xlink:title=" ">
<polygon fill="white" stroke="#666666" points="495.38,-146 393.12,-146 393.12,-114 495.38,-114 495.38,-146"/>
<text xml:space="preserve" text-anchor="start" x="401.12" y="-132.5" font-family="Helvetica,sans-Serif" font-size="10.00">LGE::Optimization::</text>
<text xml:space="preserve" text-anchor="middle" x="444.25" y="-120.5" font-family="Helvetica,sans-Serif" font-size="10.00">OptimizeAsset</text>
</a>
</g>
</g>
<!-- Node1&#45;&gt;Node18 -->
<g id="edge17_Node000001_Node000018" class="edge">
<title>Node1&#45;&gt;Node18</title>
<g id="a_edge17_Node000001_Node000018"><a xlink:title=" ">
<path fill="none" stroke="#63b8ff" d="M614.89,-226.73C597.41,-206.07 566.98,-173.71 534,-155 522.3,-148.37 508.73,-143.39 495.77,-139.71"/>
<polygon fill="#63b8ff" stroke="#63b8ff" points="612.15,-228.92 621.21,-234.4 617.55,-224.46 612.15,-228.92"/>
</a>
</g>
</g>
<!-- Node21 -->
<g id="Node000021" class="node">
<title>Node21</title>
<g id="a_Node000021"><a xlink:href="namespaceLGE_1_1FSOps.html#a73a5f7725534ee44eab8e17badf96f9f" target="_top" xlink:title=" ">
<polygon fill="white" stroke="#666666" points="501.75,-96 386.75,-96 386.75,-76 501.75,-76 501.75,-96"/>
<text xml:space="preserve" text-anchor="middle" x="444.25" y="-82.5" font-family="Helvetica,sans-Serif" font-size="10.00">LGE::FSOps::Rename</text>
</a>
</g>
</g>
<!-- Node1&#45;&gt;Node21 -->
<g id="edge21_Node000001_Node000021" class="edge">
<title>Node1&#45;&gt;Node21</title>
<g id="a_edge21_Node000001_Node000021"><a xlink:title=" ">
<path fill="none" stroke="#63b8ff" d="M622.14,-225.35C608.75,-194.08 578.95,-135.18 534,-105 524.45,-98.59 513.13,-94.29 501.83,-91.42"/>
<polygon fill="#63b8ff" stroke="#63b8ff" points="618.85,-226.54 625.89,-234.46 625.33,-223.88 618.85,-226.54"/>
</a>
</g>
</g>
<!-- Node22 -->
<g id="Node000022" class="node">
<title>Node22</title>
<g id="a_Node000022"><a xlink:href="namespaceLGE_1_1Recycle.html#a07682188a7ba9ac8cc063a99019fcadf" target="_top" xlink:title=" ">
<polygon fill="white" stroke="#666666" points="503.25,-58 385.25,-58 385.25,-38 503.25,-38 503.25,-58"/>
<text xml:space="preserve" text-anchor="middle" x="444.25" y="-44.5" font-family="Helvetica,sans-Serif" font-size="10.00">LGE::Recycle::Restore</text>
</a>
</g>
</g>
<!-- Node1&#45;&gt;Node22 -->
<g id="edge22_Node000001_Node000022" class="edge">
<title>Node1&#45;&gt;Node22</title>
<g id="a_edge22_Node000001_Node000022"><a xlink:title=" ">
<path fill="none" stroke="#63b8ff" d="M625.26,-225.24C615.03,-187.44 587.97,-107.53 534,-67 525.05,-60.28 514.24,-55.83 503.29,-52.9"/>
<polygon fill="#63b8ff" stroke="#63b8ff" points="621.75,-225.65 627.62,-234.47 628.53,-223.91 621.75,-225.65"/>
</a>
</g>
</g>
<!-- Node23 -->
<g id="Node000023" class="node">
<title>Node23</title>
<g id="a_Node000023"><a xlink:href="namespaceLGE_1_1PackageMgr.html#abe03679a0449f67f7d5ec4878b54a047" target="_top" xlink:title=" ">
<polygon fill="white" stroke="#666666" points="534,-234 354.5,-234 354.5,-214 534,-214 534,-234"/>
<text xml:space="preserve" text-anchor="middle" x="444.25" y="-220.5" font-family="Helvetica,sans-Serif" font-size="10.00">LGE::PackageMgr::SavePackageInfo</text>
</a>
</g>
</g>
<!-- Node1&#45;&gt;Node23 -->
<g id="edge23_Node000001_Node000023" class="edge">
<title>Node1&#45;&gt;Node23</title>
<g id="a_edge23_Node000001_Node000023"><a xlink:title=" ">
<path fill="none" stroke="#63b8ff" d="M558.33,-237.45C550.18,-236.48 541.8,-235.48 533.47,-234.49"/>
<polygon fill="#63b8ff" stroke="#63b8ff" points="557.83,-240.91 568.17,-238.62 558.65,-233.96 557.83,-240.91"/>
</a>
</g>
</g>
<!-- Node24 -->
<g id="Node000024" class="node">
<title>Node24</title>
<g id="a_Node000024"><a xlink:href="TestPath_8cpp.html#aa520a32148b00c502d4086b89a15129f" target="_top" xlink:title=" ">
<polygon fill="white" stroke="#666666" points="465,-20 423.5,-20 423.5,0 465,0 465,-20"/>
<text xml:space="preserve" text-anchor="middle" x="444.25" y="-6.5" font-family="Helvetica,sans-Serif" font-size="10.00">TEST</text>
</a>
</g>
</g>
<!-- Node1&#45;&gt;Node24 -->
<g id="edge26_Node000001_Node000024" class="edge">
<title>Node1&#45;&gt;Node24</title>
<g id="a_edge26_Node000001_Node000024"><a xlink:title=" ">
<path fill="none" stroke="#63b8ff" d="M627.27,-224.62C619.95,-180.68 596.89,-80.08 534,-29 514.55,-13.21 485.03,-9.7 465.44,-9.31"/>
<polygon fill="#63b8ff" stroke="#63b8ff" points="623.79,-225.02 628.77,-234.38 630.71,-223.96 623.79,-225.02"/>
</a>
</g>
</g>
<!-- Node3 -->
<g id="Node000003" class="node">
<title>Node3</title>
<g id="a_Node000003"><a xlink:href="namespaceLGE_1_1Thumbs.html#aff11822502a43d83cc911490abbf316b" target="_top" xlink:title=" ">
<polygon fill="white" stroke="#666666" points="315.12,-522 161.12,-522 161.12,-490 315.12,-490 315.12,-522"/>
<text xml:space="preserve" text-anchor="start" x="169.12" y="-508.5" font-family="Helvetica,sans-Serif" font-size="10.00">LGE::Thumbs::ProcessPending</text>
<text xml:space="preserve" text-anchor="middle" x="238.12" y="-496.5" font-family="Helvetica,sans-Serif" font-size="10.00">Builds</text>
</a>
</g>
</g>
<!-- Node2&#45;&gt;Node3 -->
<g id="edge2_Node000002_Node000003" class="edge">
<title>Node2&#45;&gt;Node3</title>
<g id="a_edge2_Node000002_Node000003"><a xlink:title=" ">
<path fill="none" stroke="#63b8ff" d="M380.29,-499.78C359.75,-500.68 336.72,-501.7 315.32,-502.64"/>
<polygon fill="#63b8ff" stroke="#63b8ff" points="380.39,-503.27 390.23,-499.34 380.08,-496.28 380.39,-503.27"/>
</a>
</g>
</g>
<!-- Node4 -->
<g id="Node000004" class="node">
<title>Node4</title>
<g id="a_Node000004"><a xlink:href="classExampleApp.html#a69ab083ae73184bfc9bafca1c9310771" target="_top" xlink:title=" ">
<polygon fill="white" stroke="#666666" points="121.75,-516 0,-516 0,-496 121.75,-496 121.75,-516"/>
<text xml:space="preserve" text-anchor="middle" x="60.88" y="-502.5" font-family="Helvetica,sans-Serif" font-size="10.00">ExampleApp::OnUpdate</text>
</a>
</g>
</g>
<!-- Node3&#45;&gt;Node4 -->
<g id="edge3_Node000003_Node000004" class="edge">
<title>Node3&#45;&gt;Node4</title>
<g id="a_edge3_Node000003_Node000004"><a xlink:title=" ">
<path fill="none" stroke="#63b8ff" d="M149.51,-506C140.26,-506 131.02,-506 122.18,-506"/>
<polygon fill="#63b8ff" stroke="#63b8ff" points="149.25,-509.5 159.25,-506 149.25,-502.5 149.25,-509.5"/>
</a>
</g>
</g>
<!-- Node6 -->
<g id="Node000006" class="node">
<title>Node6</title>
<g id="a_Node000006"><a xlink:href="namespaceLGE_1_1Backup.html#ad6294b6da335fe274372b3821fe490b4" target="_top" xlink:title=" ">
<polygon fill="white" stroke="#666666" points="318.5,-422 157.75,-422 157.75,-390 318.5,-390 318.5,-422"/>
<text xml:space="preserve" text-anchor="start" x="165.75" y="-408.5" font-family="Helvetica,sans-Serif" font-size="10.00">LGE::Backup::CreateIncremental</text>
<text xml:space="preserve" text-anchor="middle" x="238.12" y="-396.5" font-family="Helvetica,sans-Serif" font-size="10.00">Backup</text>
</a>
</g>
</g>
<!-- Node5&#45;&gt;Node6 -->
<g id="edge5_Node000005_Node000006" class="edge">
<title>Node5&#45;&gt;Node6</title>
<g id="a_edge5_Node000005_Node000006"><a xlink:title=" ">
<path fill="none" stroke="#63b8ff" d="M383.27,-437.18C373.65,-435.12 363.8,-433 354.5,-431 341.68,-428.24 328.05,-425.29 314.83,-422.43"/>
<polygon fill="#63b8ff" stroke="#63b8ff" points="382.43,-440.58 392.94,-439.25 383.89,-433.73 382.43,-440.58"/>
</a>
</g>
</g>
<!-- Node7 -->
<g id="Node000007" class="node">
<title>Node7</title>
<g id="a_Node000007"><a xlink:href="namespaceLGE_1_1Backup.html#a7de11ff292510de53398d602090fa1fe" target="_top" xlink:title=" ">
<polygon fill="white" stroke="#666666" points="318.5,-472 157.75,-472 157.75,-440 318.5,-440 318.5,-472"/>
<text xml:space="preserve" text-anchor="start" x="165.75" y="-458.5" font-family="Helvetica,sans-Serif" font-size="10.00">LGE::Backup::PerformScheduled</text>
<text xml:space="preserve" text-anchor="middle" x="238.12" y="-446.5" font-family="Helvetica,sans-Serif" font-size="10.00">Backup</text>
</a>
</g>
</g>
<!-- Node5&#45;&gt;Node7 -->
<g id="edge6_Node000005_Node000007" class="edge">
<title>Node5&#45;&gt;Node7</title>
<g id="a_edge6_Node000005_Node000007"><a xlink:title=" ">
<path fill="none" stroke="#63b8ff" d="M360.93,-452.42C347.07,-452.83 332.7,-453.25 318.91,-453.65"/>
<polygon fill="#63b8ff" stroke="#63b8ff" points="361.02,-455.92 370.92,-452.13 360.82,-448.92 361.02,-455.92"/>
</a>
</g>
</g>
<!-- Node10 -->
<g id="Node000010" class="node">
<title>Node10</title>
<g id="a_Node000010"><a xlink:href="namespaceLGE_1_1Backup.html#a2e9fa2883a6f23a0dbcb35478ae5dfcc" target="_top" xlink:title=" ">
<polygon fill="white" stroke="#666666" points="312.12,-372 164.12,-372 164.12,-352 312.12,-352 312.12,-372"/>
<text xml:space="preserve" text-anchor="middle" x="238.12" y="-358.5" font-family="Helvetica,sans-Serif" font-size="10.00">LGE::Backup::RestoreBackup</text>
</a>
</g>
</g>
<!-- Node9&#45;&gt;Node10 -->
<g id="edge9_Node000009_Node000010" class="edge">
<title>Node9&#45;&gt;Node10</title>
<g id="a_edge9_Node000009_Node000010"><a xlink:title=" ">
<path fill="none" stroke="#63b8ff" d="M351.95,-365.32C338.75,-364.93 325.32,-364.53 312.54,-364.16"/>
<polygon fill="#63b8ff" stroke="#63b8ff" points="351.84,-368.81 361.94,-365.61 352.05,-361.82 351.84,-368.81"/>
</a>
</g>
</g>
<!-- Node13 -->
<g id="Node000013" class="node">
<title>Node13</title>
<g id="a_Node000013"><a xlink:href="namespaceLGE_1_1PackageMgr.html#a91e95886b10309daf8daf9a58c8a96fd" target="_top" xlink:title=" ">
<polygon fill="white" stroke="#666666" points="302.38,-240 173.88,-240 173.88,-220 302.38,-220 302.38,-240"/>
<text xml:space="preserve" text-anchor="middle" x="238.12" y="-226.5" font-family="Helvetica,sans-Serif" font-size="10.00">LGE::PackageMgr::Install</text>
</a>
</g>
</g>
<!-- Node12&#45;&gt;Node13 -->
<g id="edge12_Node000012_Node000013" class="edge">
<title>Node12&#45;&gt;Node13</title>
<g id="a_edge12_Node000012_Node000013"><a xlink:title=" ">
<path fill="none" stroke="#63b8ff" d="M365.68,-253.56C342.34,-249.21 317.18,-244.53 295.48,-240.49"/>
<polygon fill="#63b8ff" stroke="#63b8ff" points="365.02,-257 375.49,-255.39 366.3,-250.11 365.02,-257"/>
</a>
</g>
</g>
<!-- Node14 -->
<g id="Node000014" class="node">
<title>Node14</title>
<g id="a_Node000014"><a xlink:href="namespaceLGE_1_1PackageMgr.html#aa1524a16034a31837f9821c520d5ed6f" target="_top" xlink:title=" ">
<polygon fill="white" stroke="#666666" points="302.38,-278 173.88,-278 173.88,-258 302.38,-258 302.38,-278"/>
<text xml:space="preserve" text-anchor="middle" x="238.12" y="-264.5" font-family="Helvetica,sans-Serif" font-size="10.00">LGE::PackageMgr::Install</text>
</a>
</g>
</g>
<!-- Node12&#45;&gt;Node14 -->
<g id="edge13_Node000012_Node000014" class="edge">
<title>Node12&#45;&gt;Node14</title>
<g id="a_edge13_Node000012_Node000014"><a xlink:title=" ">
<path fill="none" stroke="#63b8ff" d="M365.59,-268C344.8,-268 322.57,-268 302.64,-268"/>
<polygon fill="#63b8ff" stroke="#63b8ff" points="365.46,-271.5 375.46,-268 365.46,-264.5 365.46,-271.5"/>
</a>
</g>
</g>
<!-- Node16 -->
<g id="Node000016" class="node">
<title>Node16</title>
<g id="a_Node000016"><a xlink:href="namespaceLGE_1_1Optimization.html#a87d1a414b80a1ae2aeb6f10efe6c4e34" target="_top" xlink:title=" ">
<polygon fill="white" stroke="#666666" points="112,-170 9.75,-170 9.75,-138 112,-138 112,-170"/>
<text xml:space="preserve" text-anchor="start" x="17.75" y="-156.5" font-family="Helvetica,sans-Serif" font-size="10.00">LGE::Optimization::</text>
<text xml:space="preserve" text-anchor="middle" x="60.88" y="-144.5" font-family="Helvetica,sans-Serif" font-size="10.00">OptimizeDirectory</text>
</a>
</g>
</g>
<!-- Node15&#45;&gt;Node16 -->
<g id="edge15_Node000015_Node000016" class="edge">
<title>Node15&#45;&gt;Node16</title>
<g id="a_edge15_Node000015_Node000016"><a xlink:title=" ">
<path fill="none" stroke="#63b8ff" d="M374.47,-175.31C298.95,-170.16 179.49,-162.02 112.23,-157.43"/>
<polygon fill="#63b8ff" stroke="#63b8ff" points="374.02,-178.79 384.23,-175.98 374.49,-171.8 374.02,-178.79"/>
</a>
</g>
</g>
<!-- Node17 -->
<g id="Node000017" class="node">
<title>Node17</title>
<g id="a_Node000017"><a xlink:href="namespaceLGE_1_1Sync.html#a077b26ef6639f1098a24cb2228fbc4e8" target="_top" xlink:title=" ">
<polygon fill="white" stroke="#666666" points="304.25,-202 172,-202 172,-182 304.25,-182 304.25,-202"/>
<text xml:space="preserve" text-anchor="middle" x="238.12" y="-188.5" font-family="Helvetica,sans-Serif" font-size="10.00">LGE::Sync::SyncDirectory</text>
</a>
</g>
</g>
<!-- Node15&#45;&gt;Node17 -->
<g id="edge16_Node000015_Node000017" class="edge">
<title>Node15&#45;&gt;Node17</title>
<g id="a_edge16_Node000015_Node000017"><a xlink:title=" ">
<path fill="none" stroke="#63b8ff" d="M374.38,-184.05C351.83,-185.37 326.86,-186.84 304.57,-188.15"/>
<polygon fill="#63b8ff" stroke="#63b8ff" points="374.29,-187.56 384.06,-183.48 373.88,-180.57 374.29,-187.56"/>
</a>
</g>
</g>
<!-- Node19 -->
<g id="Node000019" class="node">
<title>Node19</title>
<g id="a_Node000019"><a xlink:href="namespaceLGE_1_1Optimization.html#a4c0768d9dc75e187bbd8af99c6ea56eb" target="_top" xlink:title=" ">
<polygon fill="white" stroke="#666666" points="289.25,-126 187,-126 187,-94 289.25,-94 289.25,-126"/>
<text xml:space="preserve" text-anchor="start" x="195" y="-112.5" font-family="Helvetica,sans-Serif" font-size="10.00">LGE::Optimization::</text>
<text xml:space="preserve" text-anchor="middle" x="238.12" y="-100.5" font-family="Helvetica,sans-Serif" font-size="10.00">OptimizeAssets</text>
</a>
</g>
</g>
<!-- Node18&#45;&gt;Node19 -->
<g id="edge18_Node000018_Node000019" class="edge">
<title>Node18&#45;&gt;Node19</title>
<g id="a_edge18_Node000018_Node000019"><a xlink:title=" ">
<path fill="none" stroke="#63b8ff" d="M381.42,-123.94C352.08,-121.07 317.45,-117.67 289.71,-114.96"/>
<polygon fill="#63b8ff" stroke="#63b8ff" points="380.99,-127.42 391.29,-124.91 381.67,-120.45 380.99,-127.42"/>
</a>
</g>
</g>
<!-- Node19&#45;&gt;Node16 -->
<g id="edge20_Node000019_Node000016" class="edge">
<title>Node19&#45;&gt;Node16</title>
<g id="a_edge20_Node000019_Node000016"><a xlink:title=" ">
<path fill="none" stroke="#63b8ff" d="M175.95,-125.36C155.19,-130.57 132.24,-136.33 112.41,-141.31"/>
<polygon fill="#63b8ff" stroke="#63b8ff" points="176.59,-128.81 185.44,-122.98 174.89,-122.02 176.59,-128.81"/>
</a>
</g>
</g>
<!-- Node20 -->
<g id="Node000020" class="node">
<title>Node20</title>
<g id="a_Node000020"><a xlink:href="namespaceLGE_1_1Optimization.html#a96a2816b3db7b7ceb04dc110827b7c47" target="_top" xlink:title=" ">
<polygon fill="white" stroke="#666666" points="112,-120 9.75,-120 9.75,-88 112,-88 112,-120"/>
<text xml:space="preserve" text-anchor="start" x="17.75" y="-106.5" font-family="Helvetica,sans-Serif" font-size="10.00">LGE::Optimization::</text>
<text xml:space="preserve" text-anchor="middle" x="60.88" y="-94.5" font-family="Helvetica,sans-Serif" font-size="10.00">OptimizeByType</text>
</a>
</g>
</g>
<!-- Node19&#45;&gt;Node20 -->
<g id="edge19_Node000019_Node000020" class="edge">
<title>Node19&#45;&gt;Node20</title>
<g id="a_edge19_Node000019_Node000020"><a xlink:title=" ">
<path fill="none" stroke="#63b8ff" d="M175.67,-107.9C154.98,-107.19 132.15,-106.41 112.41,-105.73"/>
<polygon fill="#63b8ff" stroke="#63b8ff" points="175.28,-111.38 185.39,-108.23 175.52,-104.39 175.28,-111.38"/>
</a>
</g>
</g>
<!-- Node23&#45;&gt;Node13 -->
<g id="edge24_Node000023_Node000013" class="edge">
<title>Node23&#45;&gt;Node13</title>
<g id="a_edge24_Node000023_Node000013"><a xlink:title=" ">
<path fill="none" stroke="#63b8ff" d="M342.63,-226.96C329.04,-227.36 315.42,-227.76 302.73,-228.13"/>
<polygon fill="#63b8ff" stroke="#63b8ff" points="342.61,-230.46 352.5,-226.67 342.4,-223.46 342.61,-230.46"/>
</a>
</g>
</g>
<!-- Node23&#45;&gt;Node14 -->
<g id="edge25_Node000023_Node000014" class="edge">
<title>Node23&#45;&gt;Node14</title>
<g id="a_edge25_Node000023_Node000014"><a xlink:title=" ">
<path fill="none" stroke="#63b8ff" d="M383.27,-236.82C373.65,-238.88 363.8,-241 354.5,-243 332.46,-247.75 308.06,-253.03 287.4,-257.51"/>
<polygon fill="#63b8ff" stroke="#63b8ff" points="383.89,-240.27 392.94,-234.75 382.43,-233.42 383.89,-240.27"/>
</a>
</g>
</g>
</g>
</svg>
