<?xml version="1.0" encoding="UTF-8" standalone="no"?>
<!DOCTYPE svg PUBLIC "-//W3C//DTD SVG 1.1//EN"
 "http://www.w3.org/Graphics/SVG/1.1/DTD/svg11.dtd">
<!-- Generated by graphviz version 14.0.2 (20251019.1705)
 -->
<!-- Title: LGE::PackageMgr::ExtractPackage Pages: 1 -->
<svg width="579pt" height="207pt"
 viewBox="0.00 0.00 579.00 207.00" xmlns="http://www.w3.org/2000/svg" xmlns:xlink="http://www.w3.org/1999/xlink">
<g id="graph0" class="graph" transform="scale(1 1) rotate(0) translate(4 203.29)">
<title>LGE::PackageMgr::ExtractPackage</title>
<!-- Node1 -->
<g id="Node000001" class="node">
<title>Node1</title>
<g id="a_Node000001"><a xlink:title=" ">
<polygon fill="#999999" stroke="#666666" points="133.75,-121 0,-121 0,-89 133.75,-89 133.75,-121"/>
<text xml:space="preserve" text-anchor="start" x="8" y="-107.5" font-family="Helvetica,sans-Serif" font-size="10.00">LGE::PackageMgr::Extract</text>
<text xml:space="preserve" text-anchor="middle" x="66.88" y="-95.5" font-family="Helvetica,sans-Serif" font-size="10.00">Package</text>
</a>
</g>
</g>
<!-- Node2 -->
<g id="Node000002" class="node">
<title>Node2</title>
<g id="a_Node000002"><a xlink:href="classLGE_1_1Log.html#a53f3f4b8797ffd18145739c9e66d690a" target="_top" xlink:title=" ">
<polygon fill="white" stroke="#666666" points="571,-172 486.75,-172 486.75,-152 571,-152 571,-172"/>
<text xml:space="preserve" text-anchor="middle" x="528.88" y="-158.5" font-family="Helvetica,sans-Serif" font-size="10.00">LGE::Log::Error</text>
</a>
</g>
</g>
<!-- Node1&#45;&gt;Node2 -->
<g id="edge1_Node000001_Node000002" class="edge">
<title>Node1&#45;&gt;Node2</title>
<g id="a_edge1_Node000001_Node000002"><a xlink:title=" ">
<path fill="none" stroke="#63b8ff" d="M82.91,-121.3C101.3,-139.89 134.36,-169.25 169.75,-181 276.38,-216.39 410.63,-192.45 480.58,-175.23"/>
<polygon fill="#63b8ff" stroke="#63b8ff" points="481.34,-178.65 490.18,-172.8 479.63,-171.86 481.34,-178.65"/>
</a>
</g>
</g>
<!-- Node3 -->
<g id="Node000003" class="node">
<title>Node3</title>
<g id="a_Node000003"><a xlink:href="namespaceLGE_1_1LxFile.html#a11e62876b312a11b881b484bb3a5ee71" target="_top" xlink:title=" ">
<polygon fill="white" stroke="#666666" points="281.75,-172 180.25,-172 180.25,-152 281.75,-152 281.75,-172"/>
<text xml:space="preserve" text-anchor="middle" x="231" y="-158.5" font-family="Helvetica,sans-Serif" font-size="10.00">LGE::LxFile::Exists</text>
</a>
</g>
</g>
<!-- Node1&#45;&gt;Node3 -->
<g id="edge2_Node000001_Node000003" class="edge">
<title>Node1&#45;&gt;Node3</title>
<g id="a_edge2_Node000001_Node000003"><a xlink:title=" ">
<path fill="none" stroke="#63b8ff" d="M110.33,-121.39C128.54,-128.28 150.11,-136.25 169.75,-143 174.74,-144.72 179.98,-146.46 185.2,-148.15"/>
<polygon fill="#63b8ff" stroke="#63b8ff" points="183.77,-151.37 194.36,-151.09 185.91,-144.71 183.77,-151.37"/>
</a>
</g>
</g>
<!-- Node4 -->
<g id="Node000004" class="node">
<title>Node4</title>
<g id="a_Node000004"><a xlink:href="namespaceLGE_1_1LxPath.html#aefae4d45f84718077f5218f64d2f074c" target="_top" xlink:title=" ">
<polygon fill="white" stroke="#666666" points="292.25,-134 169.75,-134 169.75,-114 292.25,-114 292.25,-134"/>
<text xml:space="preserve" text-anchor="middle" x="231" y="-120.5" font-family="Helvetica,sans-Serif" font-size="10.00">LGE::LxPath::GetParent</text>
</a>
</g>
</g>
<!-- Node1&#45;&gt;Node4 -->
<g id="edge3_Node000001_Node000004" class="edge">
<title>Node1&#45;&gt;Node4</title>
<g id="a_edge3_Node000001_Node000004"><a xlink:title=" ">
<path fill="none" stroke="#63b8ff" d="M133.82,-112.73C141.8,-113.66 149.99,-114.62 158.05,-115.57"/>
<polygon fill="#63b8ff" stroke="#63b8ff" points="157.5,-119.03 167.84,-116.72 158.31,-112.07 157.5,-119.03"/>
</a>
</g>
</g>
<!-- Node6 -->
<g id="Node000006" class="node">
<title>Node6</title>
<g id="a_Node000006"><a xlink:href="classLGE_1_1Log.html#ab0265ee050b8873a2fd31fbdb696ced0" target="_top" xlink:title=" ">
<polygon fill="white" stroke="#666666" points="270.88,-96 191.12,-96 191.12,-76 270.88,-76 270.88,-96"/>
<text xml:space="preserve" text-anchor="middle" x="231" y="-82.5" font-family="Helvetica,sans-Serif" font-size="10.00">LGE::Log::Info</text>
</a>
</g>
</g>
<!-- Node1&#45;&gt;Node6 -->
<g id="edge6_Node000001_Node000006" class="edge">
<title>Node1&#45;&gt;Node6</title>
<g id="a_edge6_Node000001_Node000006"><a xlink:title=" ">
<path fill="none" stroke="#63b8ff" d="M133.82,-97.27C149.04,-95.49 164.99,-93.62 179.43,-91.93"/>
<polygon fill="#63b8ff" stroke="#63b8ff" points="179.62,-95.43 189.15,-90.79 178.81,-88.48 179.62,-95.43"/>
</a>
</g>
</g>
<!-- Node7 -->
<g id="Node000007" class="node">
<title>Node7</title>
<g id="a_Node000007"><a xlink:href="namespaceLGE_1_1LxPath.html#a94ec3bdfd6948ddc25cda5d18154d4cf" target="_top" xlink:title=" ">
<polygon fill="white" stroke="#666666" points="279.12,-58 182.88,-58 182.88,-38 279.12,-38 279.12,-58"/>
<text xml:space="preserve" text-anchor="middle" x="231" y="-44.5" font-family="Helvetica,sans-Serif" font-size="10.00">LGE::LxPath::Join</text>
</a>
</g>
</g>
<!-- Node1&#45;&gt;Node7 -->
<g id="edge7_Node000001_Node000007" class="edge">
<title>Node1&#45;&gt;Node7</title>
<g id="a_edge7_Node000001_Node000007"><a xlink:title=" ">
<path fill="none" stroke="#63b8ff" d="M110.33,-88.61C128.54,-81.72 150.11,-73.75 169.75,-67 174.74,-65.28 179.98,-63.54 185.2,-61.85"/>
<polygon fill="#63b8ff" stroke="#63b8ff" points="185.91,-65.29 194.36,-58.91 183.77,-58.63 185.91,-65.29"/>
</a>
</g>
</g>
<!-- Node8 -->
<g id="Node000008" class="node">
<title>Node8</title>
<g id="a_Node000008"><a xlink:href="classLGE_1_1Log.html#aa6f98018af29c23dd7f574d3df5dda5e" target="_top" xlink:title=" ">
<polygon fill="white" stroke="#666666" points="273.88,-20 188.12,-20 188.12,0 273.88,0 273.88,-20"/>
<text xml:space="preserve" text-anchor="middle" x="231" y="-6.5" font-family="Helvetica,sans-Serif" font-size="10.00">LGE::Log::Warn</text>
</a>
</g>
</g>
<!-- Node1&#45;&gt;Node8 -->
<g id="edge9_Node000001_Node000008" class="edge">
<title>Node1&#45;&gt;Node8</title>
<g id="a_edge9_Node000001_Node000008"><a xlink:title=" ">
<path fill="none" stroke="#63b8ff" d="M85.77,-88.69C105.19,-71.72 137.73,-45.39 169.75,-29 172.97,-27.35 176.36,-25.81 179.83,-24.38"/>
<polygon fill="#63b8ff" stroke="#63b8ff" points="180.81,-27.75 188.93,-20.95 178.34,-21.2 180.81,-27.75"/>
</a>
</g>
</g>
<!-- Node5 -->
<g id="Node000005" class="node">
<title>Node5</title>
<g id="a_Node000005"><a xlink:href="namespaceLGE_1_1LxPath.html#a314a60ce690c90f4ee0b4e64c0199408" target="_top" xlink:title=" ">
<polygon fill="white" stroke="#666666" points="450.75,-134 328.25,-134 328.25,-114 450.75,-114 450.75,-134"/>
<text xml:space="preserve" text-anchor="middle" x="389.5" y="-120.5" font-family="Helvetica,sans-Serif" font-size="10.00">LGE::LxPath::Normalize</text>
</a>
</g>
</g>
<!-- Node4&#45;&gt;Node5 -->
<g id="edge4_Node000004_Node000005" class="edge">
<title>Node4&#45;&gt;Node5</title>
<g id="a_edge4_Node000004_Node000005"><a xlink:title=" ">
<path fill="none" stroke="#63b8ff" d="M292.51,-124C300.4,-124 308.55,-124 316.6,-124"/>
<polygon fill="#63b8ff" stroke="#63b8ff" points="316.38,-127.5 326.38,-124 316.38,-120.5 316.38,-127.5"/>
</a>
</g>
</g>
<!-- Node5&#45;&gt;Node2 -->
<g id="edge5_Node000005_Node000002" class="edge">
<title>Node5&#45;&gt;Node2</title>
<g id="a_edge5_Node000005_Node000002"><a xlink:title=" ">
<path fill="none" stroke="#63b8ff" d="M428.4,-134.48C444.17,-138.85 462.66,-143.96 479.4,-148.59"/>
<polygon fill="#63b8ff" stroke="#63b8ff" points="478.07,-151.85 488.64,-151.15 479.93,-145.11 478.07,-151.85"/>
</a>
</g>
</g>
<!-- Node7&#45;&gt;Node5 -->
<g id="edge8_Node000007_Node000005" class="edge">
<title>Node7&#45;&gt;Node5</title>
<g id="a_edge8_Node000007_Node000005"><a xlink:title=" ">
<path fill="none" stroke="#63b8ff" d="M269.78,-58.45C277.34,-60.95 285.14,-63.82 292.25,-67 317.8,-78.41 345.08,-95.04 364.05,-107.39"/>
<polygon fill="#63b8ff" stroke="#63b8ff" points="361.88,-110.15 372.15,-112.75 365.74,-104.31 361.88,-110.15"/>
</a>
</g>
</g>
</g>
</svg>
