<?xml version="1.0" encoding="UTF-8" standalone="no"?>
<!DOCTYPE svg PUBLIC "-//W3C//DTD SVG 1.1//EN"
 "http://www.w3.org/Graphics/SVG/1.1/DTD/svg11.dtd">
<!-- Generated by graphviz version 14.0.2 (20251019.1705)
 -->
<!-- Title: LGE::Bundles::ListBundles Pages: 1 -->
<svg width="300pt" height="66pt"
 viewBox="0.00 0.00 300.00 66.00" xmlns="http://www.w3.org/2000/svg" xmlns:xlink="http://www.w3.org/1999/xlink">
<g id="graph0" class="graph" transform="scale(1 1) rotate(0) translate(4 62)">
<title>LGE::Bundles::ListBundles</title>
<!-- Node1 -->
<g id="Node000001" class="node">
<title>Node1</title>
<g id="a_Node000001"><a xlink:title=" ">
<polygon fill="#999999" stroke="#666666" points="133.75,-39 0,-39 0,-19 133.75,-19 133.75,-39"/>
<text xml:space="preserve" text-anchor="middle" x="66.88" y="-25.5" font-family="Helvetica,sans-Serif" font-size="10.00">LGE::Bundles::ListBundles</text>
</a>
</g>
</g>
<!-- Node2 -->
<g id="Node000002" class="node">
<title>Node2</title>
<g id="a_Node000002"><a xlink:href="namespaceLGE_1_1LxFile.html#a11e62876b312a11b881b484bb3a5ee71" target="_top" xlink:title=" ">
<polygon fill="white" stroke="#666666" points="281.38,-58 179.88,-58 179.88,-38 281.38,-38 281.38,-58"/>
<text xml:space="preserve" text-anchor="middle" x="230.62" y="-44.5" font-family="Helvetica,sans-Serif" font-size="10.00">LGE::LxFile::Exists</text>
</a>
</g>
</g>
<!-- Node1&#45;&gt;Node2 -->
<g id="edge1_Node000001_Node000002" class="edge">
<title>Node1&#45;&gt;Node2</title>
<g id="a_edge1_Node000001_Node000002"><a xlink:title=" ">
<path fill="none" stroke="#63b8ff" d="M134.13,-36.78C145.4,-38.11 157.06,-39.48 168.19,-40.78"/>
<polygon fill="#63b8ff" stroke="#63b8ff" points="167.73,-44.25 178.07,-41.94 168.54,-37.3 167.73,-44.25"/>
</a>
</g>
</g>
<!-- Node3 -->
<g id="Node000003" class="node">
<title>Node3</title>
<g id="a_Node000003"><a xlink:href="namespaceLGE_1_1LxFile.html#aefeac425ba46d16739c0873b3740191c" target="_top" xlink:title=" ">
<polygon fill="white" stroke="#666666" points="291.5,-20 169.75,-20 169.75,0 291.5,0 291.5,-20"/>
<text xml:space="preserve" text-anchor="middle" x="230.62" y="-6.5" font-family="Helvetica,sans-Serif" font-size="10.00">LGE::LxFile::IsDirectory</text>
</a>
</g>
</g>
<!-- Node1&#45;&gt;Node3 -->
<g id="edge2_Node000001_Node000003" class="edge">
<title>Node1&#45;&gt;Node3</title>
<g id="a_edge2_Node000001_Node000003"><a xlink:title=" ">
<path fill="none" stroke="#63b8ff" d="M134.13,-21.22C142.08,-20.28 150.22,-19.33 158.23,-18.39"/>
<polygon fill="#63b8ff" stroke="#63b8ff" points="158.42,-21.89 167.94,-17.25 157.6,-14.94 158.42,-21.89"/>
</a>
</g>
</g>
</g>
</svg>
