<?xml version="1.0" encoding="UTF-8" standalone="no"?>
<!DOCTYPE svg PUBLIC "-//W3C//DTD SVG 1.1//EN"
 "http://www.w3.org/Graphics/SVG/1.1/DTD/svg11.dtd">
<!-- Generated by graphviz version 14.0.2 (20251019.1705)
 -->
<!-- Title: LGE::VFS::ResolveAbsolute Pages: 1 -->
<svg width="1151pt" height="859pt"
 viewBox="0.00 0.00 1151.00 859.00" xmlns="http://www.w3.org/2000/svg" xmlns:xlink="http://www.w3.org/1999/xlink">
<g id="graph0" class="graph" transform="scale(1 1) rotate(0) translate(4 855)">
<title>LGE::VFS::ResolveAbsolute</title>
<!-- Node1 -->
<g id="Node000001" class="node">
<title>Node1</title>
<g id="a_Node000001"><a xlink:title=" ">
<polygon fill="#999999" stroke="#666666" points="1142.5,-290 1001.25,-290 1001.25,-270 1142.5,-270 1142.5,-290"/>
<text xml:space="preserve" text-anchor="middle" x="1071.88" y="-276.5" font-family="Helvetica,sans-Serif" font-size="10.00">LGE::VFS::ResolveAbsolute</text>
</a>
</g>
</g>
<!-- Node2 -->
<g id="Node000002" class="node">
<title>Node2</title>
<g id="a_Node000002"><a xlink:href="namespaceLGE_1_1AssetRegistry.html#abf12143e6f506efd22e4ec9ef670134a" target="_top" xlink:title=" ">
<polygon fill="white" stroke="#666666" points="965.25,-361 811.25,-361 811.25,-329 965.25,-329 965.25,-361"/>
<text xml:space="preserve" text-anchor="start" x="819.25" y="-347.5" font-family="Helvetica,sans-Serif" font-size="10.00">LGE::AssetRegistry</text>
<text xml:space="preserve" text-anchor="middle" x="888.25" y="-335.5" font-family="Helvetica,sans-Serif" font-size="10.00">::BuildReverseDependencyMap</text>
</a>
</g>
</g>
<!-- Node1&#45;&gt;Node2 -->
<g id="edge1_Node000001_Node000002" class="edge">
<title>Node1&#45;&gt;Node2</title>
<g id="a_edge1_Node000001_Node000002"><a xlink:title=" ">
<path fill="none" stroke="#63b8ff" d="M1030.97,-294.28C1002.66,-304.41 964.58,-318.04 935.02,-328.62"/>
<polygon fill="#63b8ff" stroke="#63b8ff" points="1032.03,-297.62 1040.27,-290.95 1029.67,-291.03 1032.03,-297.62"/>
</a>
</g>
</g>
<!-- Node14 -->
<g id="Node000014" class="node">
<title>Node14</title>
<g id="a_Node000014"><a xlink:href="namespaceLGE_1_1Recycle.html#a07682188a7ba9ac8cc063a99019fcadf" target="_top" xlink:title=" ">
<polygon fill="white" stroke="#666666" points="623.12,-490 505.12,-490 505.12,-470 623.12,-470 623.12,-490"/>
<text xml:space="preserve" text-anchor="middle" x="564.12" y="-476.5" font-family="Helvetica,sans-Serif" font-size="10.00">LGE::Recycle::Restore</text>
</a>
</g>
</g>
<!-- Node1&#45;&gt;Node14 -->
<g id="edge40_Node000001_Node000014" class="edge">
<title>Node1&#45;&gt;Node14</title>
<g id="a_edge40_Node000001_Node000014"><a xlink:title=" ">
<path fill="none" stroke="#63b8ff" d="M1054.13,-298.47C1034.67,-318.85 1000.67,-351.24 965.25,-370 852.4,-429.76 704,-459.5 623.38,-472.14"/>
<polygon fill="#63b8ff" stroke="#63b8ff" points="1056.46,-301.1 1060.74,-291.4 1051.35,-296.32 1056.46,-301.1"/>
</a>
</g>
</g>
<!-- Node37 -->
<g id="Node000037" class="node">
<title>Node37</title>
<g id="a_Node000037"><a xlink:href="TestVFS_8cpp.html#a177f4e713104598ca9f9a731092df9a3" target="_top" xlink:title=" ">
<polygon fill="white" stroke="#666666" points="909,-221 867.5,-221 867.5,-201 909,-201 909,-221"/>
<text xml:space="preserve" text-anchor="middle" x="888.25" y="-207.5" font-family="Helvetica,sans-Serif" font-size="10.00">TEST</text>
</a>
</g>
</g>
<!-- Node1&#45;&gt;Node37 -->
<g id="edge41_Node000001_Node000037" class="edge">
<title>Node1&#45;&gt;Node37</title>
<g id="a_edge41_Node000001_Node000037"><a xlink:title=" ">
<path fill="none" stroke="#63b8ff" d="M1041.79,-264.32C1020.93,-253.55 991.93,-239.54 965.25,-230 946.68,-223.36 924.77,-218.14 909.25,-214.87"/>
<polygon fill="#63b8ff" stroke="#63b8ff" points="1040.07,-267.37 1050.55,-268.91 1043.32,-261.17 1040.07,-267.37"/>
</a>
</g>
</g>
<!-- Node38 -->
<g id="Node000038" class="node">
<title>Node38</title>
<g id="a_Node000038"><a xlink:href="namespaceLGE_1_1Dependencies.html#ab8088cfc8ddddf32d237f13042e6310d" target="_top" xlink:title=" ">
<polygon fill="white" stroke="#666666" points="943.12,-271 833.38,-271 833.38,-239 943.12,-239 943.12,-271"/>
<text xml:space="preserve" text-anchor="start" x="841.38" y="-257.5" font-family="Helvetica,sans-Serif" font-size="10.00">LGE::Dependencies::</text>
<text xml:space="preserve" text-anchor="middle" x="888.25" y="-245.5" font-family="Helvetica,sans-Serif" font-size="10.00">ValidateReference</text>
</a>
</g>
</g>
<!-- Node1&#45;&gt;Node38 -->
<g id="edge42_Node000001_Node000038" class="edge">
<title>Node1&#45;&gt;Node38</title>
<g id="a_edge42_Node000001_Node000038"><a xlink:title=" ">
<path fill="none" stroke="#63b8ff" d="M989.61,-268.81C973.95,-266.66 957.91,-264.45 943.38,-262.45"/>
<polygon fill="#63b8ff" stroke="#63b8ff" points="989.03,-272.27 999.41,-270.16 989.99,-265.33 989.03,-272.27"/>
</a>
</g>
</g>
<!-- Node3 -->
<g id="Node000003" class="node">
<title>Node3</title>
<g id="a_Node000003"><a xlink:href="namespaceLGE_1_1AssetRegistry.html#ad149a48ca6d3fb38debc8c384f1e0b18" target="_top" xlink:title=" ">
<polygon fill="white" stroke="#666666" points="772.25,-712 668.5,-712 668.5,-680 772.25,-680 772.25,-712"/>
<text xml:space="preserve" text-anchor="start" x="676.5" y="-698.5" font-family="Helvetica,sans-Serif" font-size="10.00">LGE::AssetRegistry</text>
<text xml:space="preserve" text-anchor="middle" x="720.38" y="-686.5" font-family="Helvetica,sans-Serif" font-size="10.00">::AddOrUpdate</text>
</a>
</g>
</g>
<!-- Node2&#45;&gt;Node3 -->
<g id="edge2_Node000002_Node000003" class="edge">
<title>Node2&#45;&gt;Node3</title>
<g id="a_edge2_Node000002_Node000003"><a xlink:title=" ">
<path fill="none" stroke="#63b8ff" d="M874.73,-371.5C842.17,-440.39 755.56,-623.67 729.14,-679.58"/>
<polygon fill="#63b8ff" stroke="#63b8ff" points="877.72,-373.36 878.83,-362.83 871.39,-370.37 877.72,-373.36"/>
</a>
</g>
</g>
<!-- Node15 -->
<g id="Node000015" class="node">
<title>Node15</title>
<g id="a_Node000015"><a xlink:href="namespaceLGE_1_1AssetRegistry.html#af9345d56722e55e0a02cc2b1c421da76" target="_top" xlink:title=" ">
<polygon fill="white" stroke="#666666" points="616,-361 512.25,-361 512.25,-329 616,-329 616,-361"/>
<text xml:space="preserve" text-anchor="start" x="520.25" y="-347.5" font-family="Helvetica,sans-Serif" font-size="10.00">LGE::AssetRegistry</text>
<text xml:space="preserve" text-anchor="middle" x="564.12" y="-335.5" font-family="Helvetica,sans-Serif" font-size="10.00">::FullScan</text>
</a>
</g>
</g>
<!-- Node2&#45;&gt;Node15 -->
<g id="edge14_Node000002_Node000015" class="edge">
<title>Node2&#45;&gt;Node15</title>
<g id="a_edge14_Node000002_Node000015"><a xlink:title=" ">
<path fill="none" stroke="#63b8ff" d="M799.4,-345C740.67,-345 665.45,-345 616.31,-345"/>
<polygon fill="#63b8ff" stroke="#63b8ff" points="799.4,-348.5 809.4,-345 799.4,-341.5 799.4,-348.5"/>
</a>
</g>
</g>
<!-- Node4 -->
<g id="Node000004" class="node">
<title>Node4</title>
<g id="a_Node000004"><a xlink:href="namespaceLGE_1_1FSOps.html#a7c3c8bb77f4634c4667e4896b11d66ad" target="_top" xlink:title=" ">
<polygon fill="white" stroke="#666666" points="625,-813 503.25,-813 503.25,-793 625,-793 625,-813"/>
<text xml:space="preserve" text-anchor="middle" x="564.12" y="-799.5" font-family="Helvetica,sans-Serif" font-size="10.00">LGE::FSOps::ImportFile</text>
</a>
</g>
</g>
<!-- Node3&#45;&gt;Node4 -->
<g id="edge3_Node000003_Node000004" class="edge">
<title>Node3&#45;&gt;Node4</title>
<g id="a_edge3_Node000003_Node000004"><a xlink:title=" ">
<path fill="none" stroke="#63b8ff" d="M699.64,-721.19C682.92,-740.92 657.3,-767.68 629.5,-784 623.77,-787.36 617.4,-790.17 610.96,-792.5"/>
<polygon fill="#63b8ff" stroke="#63b8ff" points="702.25,-723.52 705.92,-713.58 696.85,-719.06 702.25,-723.52"/>
</a>
</g>
</g>
<!-- Node8 -->
<g id="Node000008" class="node">
<title>Node8</title>
<g id="a_Node000008"><a xlink:href="namespaceLGE_1_1Migration.html#aab471190f199928c6dc7f32f6e042b72" target="_top" xlink:title=" ">
<polygon fill="white" stroke="#666666" points="629.5,-775 498.75,-775 498.75,-743 629.5,-743 629.5,-775"/>
<text xml:space="preserve" text-anchor="start" x="506.75" y="-761.5" font-family="Helvetica,sans-Serif" font-size="10.00">LGE::Migration::MigrateAll</text>
<text xml:space="preserve" text-anchor="middle" x="564.12" y="-749.5" font-family="Helvetica,sans-Serif" font-size="10.00">Metadata</text>
</a>
</g>
</g>
<!-- Node3&#45;&gt;Node8 -->
<g id="edge7_Node000003_Node000008" class="edge">
<title>Node3&#45;&gt;Node8</title>
<g id="a_edge7_Node000003_Node000008"><a xlink:title=" ">
<path fill="none" stroke="#63b8ff" d="M670.98,-716.77C657.58,-722.44 643,-728.53 629.5,-734 622.61,-736.79 615.28,-739.7 608.13,-742.5"/>
<polygon fill="#63b8ff" stroke="#63b8ff" points="672.2,-720.06 680.04,-712.93 669.47,-713.61 672.2,-720.06"/>
</a>
</g>
</g>
<!-- Node9 -->
<g id="Node000009" class="node">
<title>Node9</title>
<g id="a_Node000009"><a xlink:href="namespaceLGE_1_1FSOps.html#a8d90a8bd4f3c45deff002d5c191bf872" target="_top" xlink:title=" ">
<polygon fill="white" stroke="#666666" points="615.25,-725 513,-725 513,-705 615.25,-705 615.25,-725"/>
<text xml:space="preserve" text-anchor="middle" x="564.12" y="-711.5" font-family="Helvetica,sans-Serif" font-size="10.00">LGE::FSOps::Move</text>
</a>
</g>
</g>
<!-- Node3&#45;&gt;Node9 -->
<g id="edge8_Node000003_Node000009" class="edge">
<title>Node3&#45;&gt;Node9</title>
<g id="a_edge8_Node000003_Node000009"><a xlink:title=" ">
<path fill="none" stroke="#63b8ff" d="M656.74,-703.71C643.11,-705.39 628.84,-707.15 615.74,-708.77"/>
<polygon fill="#63b8ff" stroke="#63b8ff" points="657.01,-707.21 666.51,-702.51 656.16,-700.26 657.01,-707.21"/>
</a>
</g>
</g>
<!-- Node10 -->
<g id="Node000010" class="node">
<title>Node10</title>
<g id="a_Node000010"><a xlink:href="namespaceLGE_1_1FSOps.html#af18c06e20bfe14f2a2de43ea8bddefc1" target="_top" xlink:title=" ">
<polygon fill="white" stroke="#666666" points="626.12,-687 502.12,-687 502.12,-667 626.12,-667 626.12,-687"/>
<text xml:space="preserve" text-anchor="middle" x="564.12" y="-673.5" font-family="Helvetica,sans-Serif" font-size="10.00">LGE::FSOps::NewAsset</text>
</a>
</g>
</g>
<!-- Node3&#45;&gt;Node10 -->
<g id="edge9_Node000003_Node000010" class="edge">
<title>Node3&#45;&gt;Node10</title>
<g id="a_edge9_Node000003_Node000010"><a xlink:title=" ">
<path fill="none" stroke="#63b8ff" d="M656.86,-688.3C646.82,-687.06 636.44,-685.78 626.43,-684.55"/>
<polygon fill="#63b8ff" stroke="#63b8ff" points="656.16,-691.74 666.51,-689.49 657.01,-684.79 656.16,-691.74"/>
</a>
</g>
</g>
<!-- Node11 -->
<g id="Node000011" class="node">
<title>Node11</title>
<g id="a_Node000011"><a xlink:href="namespaceLGE_1_1FSOps.html#af7986867af7965c5a24f0751897ccb06" target="_top" xlink:title=" ">
<polygon fill="white" stroke="#666666" points="623.12,-649 505.12,-649 505.12,-629 623.12,-629 623.12,-649"/>
<text xml:space="preserve" text-anchor="middle" x="564.12" y="-635.5" font-family="Helvetica,sans-Serif" font-size="10.00">LGE::FSOps::Reimport</text>
</a>
</g>
</g>
<!-- Node3&#45;&gt;Node11 -->
<g id="edge10_Node000003_Node000011" class="edge">
<title>Node3&#45;&gt;Node11</title>
<g id="a_edge10_Node000003_Node000011"><a xlink:title=" ">
<path fill="none" stroke="#63b8ff" d="M672.78,-675.12C658.97,-669.25 643.74,-663.09 629.5,-658 621.05,-654.98 611.86,-652.06 603.14,-649.44"/>
<polygon fill="#63b8ff" stroke="#63b8ff" points="671.05,-678.19 681.62,-678.92 673.82,-671.76 671.05,-678.19"/>
</a>
</g>
</g>
<!-- Node13 -->
<g id="Node000013" class="node">
<title>Node13</title>
<g id="a_Node000013"><a xlink:href="namespaceLGE_1_1FSOps.html#a73a5f7725534ee44eab8e17badf96f9f" target="_top" xlink:title=" ">
<polygon fill="white" stroke="#666666" points="621.62,-851 506.62,-851 506.62,-831 621.62,-831 621.62,-851"/>
<text xml:space="preserve" text-anchor="middle" x="564.12" y="-837.5" font-family="Helvetica,sans-Serif" font-size="10.00">LGE::FSOps::Rename</text>
</a>
</g>
</g>
<!-- Node3&#45;&gt;Node13 -->
<g id="edge12_Node000003_Node000013" class="edge">
<title>Node3&#45;&gt;Node13</title>
<g id="a_edge12_Node000003_Node000013"><a xlink:title=" ">
<path fill="none" stroke="#63b8ff" d="M707.28,-722.27C692.77,-750.92 665.79,-796.15 629.5,-822 624.66,-825.45 619.19,-828.28 613.54,-830.6"/>
<polygon fill="#63b8ff" stroke="#63b8ff" points="710.31,-724.05 711.56,-713.53 704.02,-720.97 710.31,-724.05"/>
</a>
</g>
</g>
<!-- Node3&#45;&gt;Node14 -->
<g id="edge13_Node000003_Node000014" class="edge">
<title>Node3&#45;&gt;Node14</title>
<g id="a_edge13_Node000003_Node000014"><a xlink:title=" ">
<path fill="none" stroke="#63b8ff" d="M701.15,-670.48C667.25,-623.01 595.86,-523.03 572.61,-490.48"/>
<polygon fill="#63b8ff" stroke="#63b8ff" points="698.24,-672.43 706.9,-678.53 703.94,-668.36 698.24,-672.43"/>
</a>
</g>
</g>
<!-- Node5 -->
<g id="Node000005" class="node">
<title>Node5</title>
<g id="a_Node000005"><a xlink:href="namespaceLGE_1_1ImportExport.html#af78ec4a5e430226c5054a220cedc76b1" target="_top" xlink:title=" ">
<polygon fill="white" stroke="#666666" points="439.5,-850 335.75,-850 335.75,-818 439.5,-818 439.5,-850"/>
<text xml:space="preserve" text-anchor="start" x="343.75" y="-836.5" font-family="Helvetica,sans-Serif" font-size="10.00">LGE::ImportExport::</text>
<text xml:space="preserve" text-anchor="middle" x="387.62" y="-824.5" font-family="Helvetica,sans-Serif" font-size="10.00">ImportFile</text>
</a>
</g>
</g>
<!-- Node4&#45;&gt;Node5 -->
<g id="edge4_Node000004_Node000005" class="edge">
<title>Node4&#45;&gt;Node5</title>
<g id="a_edge4_Node000004_Node000005"><a xlink:title=" ">
<path fill="none" stroke="#63b8ff" d="M492.85,-815.48C475.1,-818.64 456.37,-821.96 439.76,-824.91"/>
<polygon fill="#63b8ff" stroke="#63b8ff" points="493.32,-818.96 502.56,-813.76 492.1,-812.06 493.32,-818.96"/>
</a>
</g>
</g>
<!-- Node6 -->
<g id="Node000006" class="node">
<title>Node6</title>
<g id="a_Node000006"><a xlink:href="namespaceLGE_1_1ImportExport.html#ae8496d7d19ac15289295442d11349580" target="_top" xlink:title=" ">
<polygon fill="white" stroke="#666666" points="260,-850 156.25,-850 156.25,-818 260,-818 260,-850"/>
<text xml:space="preserve" text-anchor="start" x="164.25" y="-836.5" font-family="Helvetica,sans-Serif" font-size="10.00">LGE::ImportExport::</text>
<text xml:space="preserve" text-anchor="middle" x="208.12" y="-824.5" font-family="Helvetica,sans-Serif" font-size="10.00">ImportFiles</text>
</a>
</g>
</g>
<!-- Node5&#45;&gt;Node6 -->
<g id="edge5_Node000005_Node000006" class="edge">
<title>Node5&#45;&gt;Node6</title>
<g id="a_edge5_Node000005_Node000006"><a xlink:title=" ">
<path fill="none" stroke="#63b8ff" d="M323.96,-834C303.14,-834 280.21,-834 260.35,-834"/>
<polygon fill="#63b8ff" stroke="#63b8ff" points="323.77,-837.5 333.77,-834 323.77,-830.5 323.77,-837.5"/>
</a>
</g>
</g>
<!-- Node7 -->
<g id="Node000007" class="node">
<title>Node7</title>
<g id="a_Node000007"><a xlink:href="namespaceLGE_1_1ImportExport.html#a8220fcef46f5c3ab8c10c64fd5860668" target="_top" xlink:title=" ">
<polygon fill="white" stroke="#666666" points="103.75,-850 0,-850 0,-818 103.75,-818 103.75,-850"/>
<text xml:space="preserve" text-anchor="start" x="8" y="-836.5" font-family="Helvetica,sans-Serif" font-size="10.00">LGE::ImportExport::</text>
<text xml:space="preserve" text-anchor="middle" x="51.88" y="-824.5" font-family="Helvetica,sans-Serif" font-size="10.00">ImportDirectory</text>
</a>
</g>
</g>
<!-- Node6&#45;&gt;Node7 -->
<g id="edge6_Node000006_Node000007" class="edge">
<title>Node6&#45;&gt;Node7</title>
<g id="a_edge6_Node000006_Node000007"><a xlink:title=" ">
<path fill="none" stroke="#63b8ff" d="M144.61,-834C131.12,-834 117.01,-834 104.01,-834"/>
<polygon fill="#63b8ff" stroke="#63b8ff" points="144.25,-837.5 154.25,-834 144.25,-830.5 144.25,-837.5"/>
</a>
</g>
</g>
<!-- Node12 -->
<g id="Node000012" class="node">
<title>Node12</title>
<g id="a_Node000012"><a xlink:href="namespaceLGE_1_1ImportExport.html#aa73ba2a6e02f5350668e8a28ecea64c2" target="_top" xlink:title=" ">
<polygon fill="white" stroke="#666666" points="439.5,-800 335.75,-800 335.75,-768 439.5,-768 439.5,-800"/>
<text xml:space="preserve" text-anchor="start" x="343.75" y="-786.5" font-family="Helvetica,sans-Serif" font-size="10.00">LGE::ImportExport::</text>
<text xml:space="preserve" text-anchor="middle" x="387.62" y="-774.5" font-family="Helvetica,sans-Serif" font-size="10.00">ReimportAsset</text>
</a>
</g>
</g>
<!-- Node11&#45;&gt;Node12 -->
<g id="edge11_Node000011_Node000012" class="edge">
<title>Node11&#45;&gt;Node12</title>
<g id="a_edge11_Node000011_Node000012"><a xlink:title=" ">
<path fill="none" stroke="#63b8ff" d="M501.59,-655.53C500.61,-656.32 499.66,-657.14 498.75,-658 464.13,-690.75 496.73,-725.59 462.75,-759 456.36,-765.28 448.33,-769.99 439.95,-773.51"/>
<polygon fill="#63b8ff" stroke="#63b8ff" points="503.33,-658.57 509.87,-650.24 499.56,-652.67 503.33,-658.57"/>
</a>
</g>
</g>
<!-- Node16 -->
<g id="Node000016" class="node">
<title>Node16</title>
<g id="a_Node000016"><a xlink:href="BenchmarkFS_8cpp.html#ab029f67ffb106edc6d219aadc7aee238" target="_top" xlink:title=" ">
<polygon fill="white" stroke="#666666" points="441.38,-674 333.88,-674 333.88,-642 441.38,-642 441.38,-674"/>
<text xml:space="preserve" text-anchor="start" x="341.88" y="-660.5" font-family="Helvetica,sans-Serif" font-size="10.00">Benchmark_Registry</text>
<text xml:space="preserve" text-anchor="middle" x="387.62" y="-648.5" font-family="Helvetica,sans-Serif" font-size="10.00">_Scan_Large</text>
</a>
</g>
</g>
<!-- Node15&#45;&gt;Node16 -->
<g id="edge15_Node000015_Node000016" class="edge">
<title>Node15&#45;&gt;Node16</title>
<g id="a_edge15_Node000015_Node000016"><a xlink:title=" ">
<path fill="none" stroke="#63b8ff" d="M545.86,-370.74C531.31,-393.56 510.95,-428.24 498.75,-461 471.49,-534.19 514.6,-574.59 462.75,-633 457.07,-639.4 449.7,-644.16 441.81,-647.71"/>
<polygon fill="#63b8ff" stroke="#63b8ff" points="548.76,-372.71 551.27,-362.42 542.89,-368.9 548.76,-372.71"/>
</a>
</g>
</g>
<!-- Node17 -->
<g id="Node000017" class="node">
<title>Node17</title>
<g id="a_Node000017"><a xlink:href="BenchmarkFS_8cpp.html#ab9a728100bf27df8671c37d3a29bbea1" target="_top" xlink:title=" ">
<polygon fill="white" stroke="#666666" points="441.38,-624 333.88,-624 333.88,-592 441.38,-592 441.38,-624"/>
<text xml:space="preserve" text-anchor="start" x="341.88" y="-610.5" font-family="Helvetica,sans-Serif" font-size="10.00">Benchmark_Registry</text>
<text xml:space="preserve" text-anchor="middle" x="387.62" y="-598.5" font-family="Helvetica,sans-Serif" font-size="10.00">_Scan_Medium</text>
</a>
</g>
</g>
<!-- Node15&#45;&gt;Node17 -->
<g id="edge16_Node000015_Node000017" class="edge">
<title>Node15&#45;&gt;Node17</title>
<g id="a_edge16_Node000015_Node000017"><a xlink:title=" ">
<path fill="none" stroke="#63b8ff" d="M546.52,-371C532.37,-393.98 512.26,-428.76 498.75,-461 476.9,-513.14 501.95,-542.27 462.75,-583 456.91,-589.07 449.55,-593.66 441.75,-597.14"/>
<polygon fill="#63b8ff" stroke="#63b8ff" points="549.43,-372.95 551.75,-362.61 543.49,-369.24 549.43,-372.95"/>
</a>
</g>
</g>
<!-- Node20 -->
<g id="Node000020" class="node">
<title>Node20</title>
<g id="a_Node000020"><a xlink:href="BenchmarkFS_8cpp.html#aa44cb85b0759f1cfddf700acff100f97" target="_top" xlink:title=" ">
<polygon fill="white" stroke="#666666" points="441.38,-574 333.88,-574 333.88,-542 441.38,-542 441.38,-574"/>
<text xml:space="preserve" text-anchor="start" x="341.88" y="-560.5" font-family="Helvetica,sans-Serif" font-size="10.00">Benchmark_Registry</text>
<text xml:space="preserve" text-anchor="middle" x="387.62" y="-548.5" font-family="Helvetica,sans-Serif" font-size="10.00">_Scan_Small</text>
</a>
</g>
</g>
<!-- Node15&#45;&gt;Node20 -->
<g id="edge19_Node000015_Node000020" class="edge">
<title>Node15&#45;&gt;Node20</title>
<g id="a_edge19_Node000015_Node000020"><a xlink:title=" ">
<path fill="none" stroke="#63b8ff" d="M548.13,-371.26C534.87,-394.65 515.14,-429.9 498.75,-461 482.07,-492.65 489.74,-509.51 462.75,-533 456.6,-538.35 449.27,-542.57 441.63,-545.88"/>
<polygon fill="#63b8ff" stroke="#63b8ff" points="551.09,-373.14 552.98,-362.71 545,-369.68 551.09,-373.14"/>
</a>
</g>
</g>
<!-- Node21 -->
<g id="Node000021" class="node">
<title>Node21</title>
<g id="a_Node000021"><a xlink:href="BenchmarkFS_8cpp.html#a3442e7b685b914cc8075873db73300d8" target="_top" xlink:title=" ">
<polygon fill="white" stroke="#666666" points="441.38,-524 333.88,-524 333.88,-492 441.38,-492 441.38,-524"/>
<text xml:space="preserve" text-anchor="start" x="341.88" y="-510.5" font-family="Helvetica,sans-Serif" font-size="10.00">Benchmark_Registry</text>
<text xml:space="preserve" text-anchor="middle" x="387.62" y="-498.5" font-family="Helvetica,sans-Serif" font-size="10.00">_Search_Fuzzy</text>
</a>
</g>
</g>
<!-- Node15&#45;&gt;Node21 -->
<g id="edge21_Node000015_Node000021" class="edge">
<title>Node15&#45;&gt;Node21</title>
<g id="a_edge21_Node000015_Node000021"><a xlink:title=" ">
<path fill="none" stroke="#63b8ff" d="M550.48,-371.18C534.27,-402.13 503.33,-453.19 462.75,-483 456.4,-487.66 449.13,-491.5 441.67,-494.64"/>
<polygon fill="#63b8ff" stroke="#63b8ff" points="553.49,-372.99 554.91,-362.49 547.25,-369.81 553.49,-372.99"/>
</a>
</g>
</g>
<!-- Node22 -->
<g id="Node000022" class="node">
<title>Node22</title>
<g id="a_Node000022"><a xlink:href="BenchmarkFS_8cpp.html#a6e215b65128db1abca9661a02a708fe7" target="_top" xlink:title=" ">
<polygon fill="white" stroke="#666666" points="441.38,-474 333.88,-474 333.88,-442 441.38,-442 441.38,-474"/>
<text xml:space="preserve" text-anchor="start" x="341.88" y="-460.5" font-family="Helvetica,sans-Serif" font-size="10.00">Benchmark_Registry</text>
<text xml:space="preserve" text-anchor="middle" x="387.62" y="-448.5" font-family="Helvetica,sans-Serif" font-size="10.00">_Search_GUID</text>
</a>
</g>
</g>
<!-- Node15&#45;&gt;Node22 -->
<g id="edge23_Node000015_Node000022" class="edge">
<title>Node15&#45;&gt;Node22</title>
<g id="a_edge23_Node000015_Node000022"><a xlink:title=" ">
<path fill="none" stroke="#63b8ff" d="M540.51,-369.6C521.41,-389.11 492.49,-415.87 462.75,-433 456.16,-436.8 448.91,-440.13 441.59,-443.02"/>
<polygon fill="#63b8ff" stroke="#63b8ff" points="542.87,-372.2 547.26,-362.56 537.81,-367.35 542.87,-372.2"/>
</a>
</g>
</g>
<!-- Node23 -->
<g id="Node000023" class="node">
<title>Node23</title>
<g id="a_Node000023"><a xlink:href="BenchmarkFS_8cpp.html#a1d7ed07006c36462715eb9e933bb0bac" target="_top" xlink:title=" ">
<polygon fill="white" stroke="#666666" points="441.38,-424 333.88,-424 333.88,-392 441.38,-392 441.38,-424"/>
<text xml:space="preserve" text-anchor="start" x="341.88" y="-410.5" font-family="Helvetica,sans-Serif" font-size="10.00">Benchmark_Registry</text>
<text xml:space="preserve" text-anchor="middle" x="387.62" y="-398.5" font-family="Helvetica,sans-Serif" font-size="10.00">_Search_Path</text>
</a>
</g>
</g>
<!-- Node15&#45;&gt;Node23 -->
<g id="edge25_Node000015_Node000023" class="edge">
<title>Node15&#45;&gt;Node23</title>
<g id="a_edge25_Node000015_Node000023"><a xlink:title=" ">
<path fill="none" stroke="#63b8ff" d="M510.42,-365.37C495.09,-371.18 478.29,-377.44 462.75,-383 454.82,-385.84 446.39,-388.77 438.15,-391.58"/>
<polygon fill="#63b8ff" stroke="#63b8ff" points="511.25,-368.8 519.35,-361.97 508.76,-362.26 511.25,-368.8"/>
</a>
</g>
</g>
<!-- Node24 -->
<g id="Node000024" class="node">
<title>Node24</title>
<g id="a_Node000024"><a xlink:href="classExampleApp.html#a535c41a1b822be3f2c6fd96e3f80f4b7" target="_top" xlink:title=" ">
<polygon fill="white" stroke="#666666" points="462.75,-70 312.5,-70 312.5,-38 462.75,-38 462.75,-70"/>
<text xml:space="preserve" text-anchor="start" x="320.5" y="-56.5" font-family="Helvetica,sans-Serif" font-size="10.00">ExampleApp::CompleteProject</text>
<text xml:space="preserve" text-anchor="middle" x="387.62" y="-44.5" font-family="Helvetica,sans-Serif" font-size="10.00">Loading</text>
</a>
</g>
</g>
<!-- Node15&#45;&gt;Node24 -->
<g id="edge27_Node000015_Node000024" class="edge">
<title>Node15&#45;&gt;Node24</title>
<g id="a_edge27_Node000015_Node000024"><a xlink:title=" ">
<path fill="none" stroke="#63b8ff" d="M553.59,-317.85C530.3,-251.84 471.82,-87.75 462.75,-79 459.33,-75.7 455.46,-72.83 451.33,-70.35"/>
<polygon fill="#63b8ff" stroke="#63b8ff" points="550.25,-318.92 556.88,-327.19 556.86,-316.6 550.25,-318.92"/>
</a>
</g>
</g>
<!-- Node26 -->
<g id="Node000026" class="node">
<title>Node26</title>
<g id="a_Node000026"><a xlink:href="TestDependencies_8cpp.html#a27d08683b47752be5bf0771792fe84e1" target="_top" xlink:title=" ">
<polygon fill="white" stroke="#666666" points="408.38,-146 366.88,-146 366.88,-126 408.38,-126 408.38,-146"/>
<text xml:space="preserve" text-anchor="middle" x="387.62" y="-132.5" font-family="Helvetica,sans-Serif" font-size="10.00">TEST</text>
</a>
</g>
</g>
<!-- Node15&#45;&gt;Node26 -->
<g id="edge29_Node000015_Node000026" class="edge">
<title>Node15&#45;&gt;Node26</title>
<g id="a_edge29_Node000015_Node000026"><a xlink:title=" ">
<path fill="none" stroke="#63b8ff" d="M556.35,-317.69C544.57,-276.1 516.32,-197.25 462.75,-155 447.31,-142.82 424.95,-138.38 408.83,-136.79"/>
<polygon fill="#63b8ff" stroke="#63b8ff" points="552.92,-318.41 558.9,-327.15 559.67,-316.59 552.92,-318.41"/>
</a>
</g>
</g>
<!-- Node27 -->
<g id="Node000027" class="node">
<title>Node27</title>
<g id="a_Node000027"><a xlink:href="TestDependencies_8cpp.html#a73f01e5c160074ed2ad795bd2b1ac7a2" target="_top" xlink:title=" ">
<polygon fill="white" stroke="#666666" points="408.38,-108 366.88,-108 366.88,-88 408.38,-88 408.38,-108"/>
<text xml:space="preserve" text-anchor="middle" x="387.62" y="-94.5" font-family="Helvetica,sans-Serif" font-size="10.00">TEST</text>
</a>
</g>
</g>
<!-- Node15&#45;&gt;Node27 -->
<g id="edge30_Node000015_Node000027" class="edge">
<title>Node15&#45;&gt;Node27</title>
<g id="a_edge30_Node000015_Node000027"><a xlink:title=" ">
<path fill="none" stroke="#63b8ff" d="M554.52,-317.91C536.79,-263.64 495.09,-144.43 462.75,-117 447.66,-104.2 425.02,-99.86 408.74,-98.47"/>
<polygon fill="#63b8ff" stroke="#63b8ff" points="551.16,-318.87 557.56,-327.3 557.82,-316.71 551.16,-318.87"/>
</a>
</g>
</g>
<!-- Node28 -->
<g id="Node000028" class="node">
<title>Node28</title>
<g id="a_Node000028"><a xlink:href="TestDependencies_8cpp.html#ac7d0213aa008a4537d2b739ca96728af" target="_top" xlink:title=" ">
<polygon fill="white" stroke="#666666" points="408.38,-222 366.88,-222 366.88,-202 408.38,-202 408.38,-222"/>
<text xml:space="preserve" text-anchor="middle" x="387.62" y="-208.5" font-family="Helvetica,sans-Serif" font-size="10.00">TEST</text>
</a>
</g>
</g>
<!-- Node15&#45;&gt;Node28 -->
<g id="edge31_Node000015_Node000028" class="edge">
<title>Node15&#45;&gt;Node28</title>
<g id="a_edge31_Node000015_Node000028"><a xlink:title=" ">
<path fill="none" stroke="#63b8ff" d="M547.05,-318.99C529.52,-292.83 499.07,-253.26 462.75,-231 446.21,-220.86 424.43,-216.11 408.76,-213.89"/>
<polygon fill="#63b8ff" stroke="#63b8ff" points="544.11,-320.89 552.5,-327.36 549.98,-317.07 544.11,-320.89"/>
</a>
</g>
</g>
<!-- Node29 -->
<g id="Node000029" class="node">
<title>Node29</title>
<g id="a_Node000029"><a xlink:href="TestDependencies_8cpp.html#a3eed8aa25f31b84b211af1815819d59e" target="_top" xlink:title=" ">
<polygon fill="white" stroke="#666666" points="408.38,-184 366.88,-184 366.88,-164 408.38,-164 408.38,-184"/>
<text xml:space="preserve" text-anchor="middle" x="387.62" y="-170.5" font-family="Helvetica,sans-Serif" font-size="10.00">TEST</text>
</a>
</g>
</g>
<!-- Node15&#45;&gt;Node29 -->
<g id="edge32_Node000015_Node000029" class="edge">
<title>Node15&#45;&gt;Node29</title>
<g id="a_edge32_Node000015_Node000029"><a xlink:title=" ">
<path fill="none" stroke="#63b8ff" d="M552.7,-318.21C537.93,-283.88 507.64,-224.98 462.75,-193 446.85,-181.67 424.76,-177.09 408.85,-175.24"/>
<polygon fill="#63b8ff" stroke="#63b8ff" points="549.46,-319.54 556.53,-327.44 555.93,-316.86 549.46,-319.54"/>
</a>
</g>
</g>
<!-- Node30 -->
<g id="Node000030" class="node">
<title>Node30</title>
<g id="a_Node000030"><a xlink:href="TestDependencies_8cpp.html#ad6e5e8e9ab7331c10f47c0adead790ec" target="_top" xlink:title=" ">
<polygon fill="white" stroke="#666666" points="408.38,-20 366.88,-20 366.88,0 408.38,0 408.38,-20"/>
<text xml:space="preserve" text-anchor="middle" x="387.62" y="-6.5" font-family="Helvetica,sans-Serif" font-size="10.00">TEST</text>
</a>
</g>
</g>
<!-- Node15&#45;&gt;Node30 -->
<g id="edge33_Node000015_Node000030" class="edge">
<title>Node15&#45;&gt;Node30</title>
<g id="a_edge33_Node000015_Node000030"><a xlink:title=" ">
<path fill="none" stroke="#63b8ff" d="M553.16,-318.41C539.97,-282.81 516.34,-217.57 498.75,-161 480.7,-102.93 506.08,-71.67 462.75,-29 448.46,-14.92 425.24,-10.84 408.59,-9.86"/>
<polygon fill="#63b8ff" stroke="#63b8ff" points="549.76,-319.31 556.53,-327.46 556.32,-316.87 549.76,-319.31"/>
</a>
</g>
</g>
<!-- Node31 -->
<g id="Node000031" class="node">
<title>Node31</title>
<g id="a_Node000031"><a xlink:href="TestSearch_8cpp.html#aec262fa1aeb82f0a2ec9fca22e3d2374" target="_top" xlink:title=" ">
<polygon fill="white" stroke="#666666" points="408.38,-374 366.88,-374 366.88,-354 408.38,-354 408.38,-374"/>
<text xml:space="preserve" text-anchor="middle" x="387.62" y="-360.5" font-family="Helvetica,sans-Serif" font-size="10.00">TEST</text>
</a>
</g>
</g>
<!-- Node15&#45;&gt;Node31 -->
<g id="edge34_Node000015_Node000031" class="edge">
<title>Node15&#45;&gt;Node31</title>
<g id="a_edge34_Node000015_Node000031"><a xlink:title=" ">
<path fill="none" stroke="#63b8ff" d="M500.96,-351.77C468.53,-355.3 431.05,-359.38 408.63,-361.82"/>
<polygon fill="#63b8ff" stroke="#63b8ff" points="501.12,-355.27 510.68,-350.71 500.36,-348.31 501.12,-355.27"/>
</a>
</g>
</g>
<!-- Node32 -->
<g id="Node000032" class="node">
<title>Node32</title>
<g id="a_Node000032"><a xlink:href="TestSearch_8cpp.html#a33500ac4fe5ec5aabbfb97635e04b1a5" target="_top" xlink:title=" ">
<polygon fill="white" stroke="#666666" points="408.38,-336 366.88,-336 366.88,-316 408.38,-316 408.38,-336"/>
<text xml:space="preserve" text-anchor="middle" x="387.62" y="-322.5" font-family="Helvetica,sans-Serif" font-size="10.00">TEST</text>
</a>
</g>
</g>
<!-- Node15&#45;&gt;Node32 -->
<g id="edge35_Node000015_Node000032" class="edge">
<title>Node15&#45;&gt;Node32</title>
<g id="a_edge35_Node000015_Node000032"><a xlink:title=" ">
<path fill="none" stroke="#63b8ff" d="M500.96,-338.23C468.53,-334.7 431.05,-330.62 408.63,-328.18"/>
<polygon fill="#63b8ff" stroke="#63b8ff" points="500.36,-341.69 510.68,-339.29 501.12,-334.73 500.36,-341.69"/>
</a>
</g>
</g>
<!-- Node33 -->
<g id="Node000033" class="node">
<title>Node33</title>
<g id="a_Node000033"><a xlink:href="TestSearch_8cpp.html#ad770bade109d5488d8747315303c5509" target="_top" xlink:title=" ">
<polygon fill="white" stroke="#666666" points="408.38,-298 366.88,-298 366.88,-278 408.38,-278 408.38,-298"/>
<text xml:space="preserve" text-anchor="middle" x="387.62" y="-284.5" font-family="Helvetica,sans-Serif" font-size="10.00">TEST</text>
</a>
</g>
</g>
<!-- Node15&#45;&gt;Node33 -->
<g id="edge36_Node000015_Node000033" class="edge">
<title>Node15&#45;&gt;Node33</title>
<g id="a_edge36_Node000015_Node000033"><a xlink:title=" ">
<path fill="none" stroke="#63b8ff" d="M512.35,-324.53C496.58,-318.51 479.06,-312.16 462.75,-307 444.64,-301.27 423.63,-296.01 408.62,-292.49"/>
<polygon fill="#63b8ff" stroke="#63b8ff" points="510.95,-327.74 521.54,-328.08 513.47,-321.21 510.95,-327.74"/>
</a>
</g>
</g>
<!-- Node34 -->
<g id="Node000034" class="node">
<title>Node34</title>
<g id="a_Node000034"><a xlink:href="TestSearch_8cpp.html#a13cb3cdd7534423f0d92329cf16ceaf7" target="_top" xlink:title=" ">
<polygon fill="white" stroke="#666666" points="408.38,-260 366.88,-260 366.88,-240 408.38,-240 408.38,-260"/>
<text xml:space="preserve" text-anchor="middle" x="387.62" y="-246.5" font-family="Helvetica,sans-Serif" font-size="10.00">TEST</text>
</a>
</g>
</g>
<!-- Node15&#45;&gt;Node34 -->
<g id="edge37_Node000015_Node000034" class="edge">
<title>Node15&#45;&gt;Node34</title>
<g id="a_edge37_Node000015_Node000034"><a xlink:title=" ">
<path fill="none" stroke="#63b8ff" d="M537.6,-321.08C518.37,-304.26 490.62,-282.45 462.75,-269 445.4,-260.63 423.92,-255.65 408.56,-252.9"/>
<polygon fill="#63b8ff" stroke="#63b8ff" points="535.14,-323.58 544.93,-327.64 539.81,-318.36 535.14,-323.58"/>
</a>
</g>
</g>
<!-- Node35 -->
<g id="Node000035" class="node">
<title>Node35</title>
<g id="a_Node000035"><a xlink:href="TestSearch_8cpp.html#a726a0578ed58faaeb0201d967dbce4be" target="_top" xlink:title=" ">
<polygon fill="white" stroke="#666666" points="408.38,-750 366.88,-750 366.88,-730 408.38,-730 408.38,-750"/>
<text xml:space="preserve" text-anchor="middle" x="387.62" y="-736.5" font-family="Helvetica,sans-Serif" font-size="10.00">TEST</text>
</a>
</g>
</g>
<!-- Node15&#45;&gt;Node35 -->
<g id="edge38_Node000015_Node000035" class="edge">
<title>Node15&#45;&gt;Node35</title>
<g id="a_edge38_Node000015_Node000035"><a xlink:title=" ">
<path fill="none" stroke="#63b8ff" d="M545.04,-370.94C530.15,-393.63 509.75,-428.03 498.75,-461 461.82,-571.66 540.44,-633.97 462.75,-721 449.3,-736.06 425.69,-739.94 408.73,-740.6"/>
<polygon fill="#63b8ff" stroke="#63b8ff" points="547.95,-372.89 550.6,-362.64 542.13,-369 547.95,-372.89"/>
</a>
</g>
</g>
<!-- Node36 -->
<g id="Node000036" class="node">
<title>Node36</title>
<g id="a_Node000036"><a xlink:href="TestSearch_8cpp.html#a7120a1bbfb46623c11b708a8ab750d82" target="_top" xlink:title=" ">
<polygon fill="white" stroke="#666666" points="408.38,-712 366.88,-712 366.88,-692 408.38,-692 408.38,-712"/>
<text xml:space="preserve" text-anchor="middle" x="387.62" y="-698.5" font-family="Helvetica,sans-Serif" font-size="10.00">TEST</text>
</a>
</g>
</g>
<!-- Node15&#45;&gt;Node36 -->
<g id="edge39_Node000015_Node000036" class="edge">
<title>Node15&#45;&gt;Node36</title>
<g id="a_edge39_Node000015_Node000036"><a xlink:title=" ">
<path fill="none" stroke="#63b8ff" d="M545.24,-371C530.46,-393.74 510.13,-428.16 498.75,-461 466.01,-555.44 530.17,-609.21 462.75,-683 449.13,-697.91 425.55,-701.81 408.64,-702.52"/>
<polygon fill="#63b8ff" stroke="#63b8ff" points="548.14,-372.96 550.75,-362.69 542.3,-369.09 548.14,-372.96"/>
</a>
</g>
</g>
<!-- Node18 -->
<g id="Node000018" class="node">
<title>Node18</title>
<g id="a_Node000018"><a xlink:href="BenchmarkFS_8cpp.html#abd2bf074780e72b3c554bb5eb58ff96a" target="_top" xlink:title=" ">
<polygon fill="white" stroke="#666666" points="276.5,-518 139.75,-518 139.75,-498 276.5,-498 276.5,-518"/>
<text xml:space="preserve" text-anchor="middle" x="208.12" y="-504.5" font-family="Helvetica,sans-Serif" font-size="10.00">RunFilesystemBenchmarks</text>
</a>
</g>
</g>
<!-- Node17&#45;&gt;Node18 -->
<g id="edge17_Node000017_Node000018" class="edge">
<title>Node17&#45;&gt;Node18</title>
<g id="a_edge17_Node000017_Node000018"><a xlink:title=" ">
<path fill="none" stroke="#63b8ff" d="M323.15,-588.04C319.5,-586.45 315.92,-584.77 312.5,-583 276.44,-564.39 239.11,-534.06 220.75,-518.28"/>
<polygon fill="#63b8ff" stroke="#63b8ff" points="321.59,-591.19 332.17,-591.73 324.24,-584.71 321.59,-591.19"/>
</a>
</g>
</g>
<!-- Node19 -->
<g id="Node000019" class="node">
<title>Node19</title>
<g id="a_Node000019"><a xlink:href="BenchmarkRunner_8cpp.html#a0ddf1224851353fc92bfbff6f499fa97" target="_top" xlink:title=" ">
<polygon fill="white" stroke="#666666" points="70.38,-518 33.38,-518 33.38,-498 70.38,-498 70.38,-518"/>
<text xml:space="preserve" text-anchor="middle" x="51.88" y="-504.5" font-family="Helvetica,sans-Serif" font-size="10.00">main</text>
</a>
</g>
</g>
<!-- Node18&#45;&gt;Node19 -->
<g id="edge18_Node000018_Node000019" class="edge">
<title>Node18&#45;&gt;Node19</title>
<g id="a_edge18_Node000018_Node000019"><a xlink:title=" ">
<path fill="none" stroke="#63b8ff" d="M128.17,-508C106.52,-508 85.07,-508 70.63,-508"/>
<polygon fill="#63b8ff" stroke="#63b8ff" points="127.96,-511.5 137.96,-508 127.96,-504.5 127.96,-511.5"/>
</a>
</g>
</g>
<!-- Node20&#45;&gt;Node18 -->
<g id="edge20_Node000020_Node000018" class="edge">
<title>Node20&#45;&gt;Node18</title>
<g id="a_edge20_Node000020_Node000018"><a xlink:title=" ">
<path fill="none" stroke="#63b8ff" d="M323.03,-540.09C297.27,-532.83 268.43,-524.71 246.22,-518.45"/>
<polygon fill="#63b8ff" stroke="#63b8ff" points="321.82,-543.38 332.39,-542.72 323.72,-536.64 321.82,-543.38"/>
</a>
</g>
</g>
<!-- Node21&#45;&gt;Node18 -->
<g id="edge22_Node000021_Node000018" class="edge">
<title>Node21&#45;&gt;Node18</title>
<g id="a_edge22_Node000021_Node000018"><a xlink:title=" ">
<path fill="none" stroke="#63b8ff" d="M322.69,-508C307.8,-508 291.9,-508 276.85,-508"/>
<polygon fill="#63b8ff" stroke="#63b8ff" points="322.34,-511.5 332.34,-508 322.34,-504.5 322.34,-511.5"/>
</a>
</g>
</g>
<!-- Node22&#45;&gt;Node18 -->
<g id="edge24_Node000022_Node000018" class="edge">
<title>Node22&#45;&gt;Node18</title>
<g id="a_edge24_Node000022_Node000018"><a xlink:title=" ">
<path fill="none" stroke="#63b8ff" d="M323.03,-475.91C297.27,-483.17 268.43,-491.29 246.22,-497.55"/>
<polygon fill="#63b8ff" stroke="#63b8ff" points="323.72,-479.36 332.39,-473.28 321.82,-472.62 323.72,-479.36"/>
</a>
</g>
</g>
<!-- Node23&#45;&gt;Node18 -->
<g id="edge26_Node000023_Node000018" class="edge">
<title>Node23&#45;&gt;Node18</title>
<g id="a_edge26_Node000023_Node000018"><a xlink:title=" ">
<path fill="none" stroke="#63b8ff" d="M323.15,-427.96C319.5,-429.55 315.92,-431.23 312.5,-433 276.44,-451.61 239.11,-481.94 220.75,-497.72"/>
<polygon fill="#63b8ff" stroke="#63b8ff" points="324.24,-431.29 332.17,-424.27 321.59,-424.81 324.24,-431.29"/>
</a>
</g>
</g>
<!-- Node25 -->
<g id="Node000025" class="node">
<title>Node25</title>
<g id="a_Node000025"><a xlink:href="classExampleApp.html#a51a63c4107ac16f6c82cda225b2dccea" target="_top" xlink:title=" ">
<polygon fill="white" stroke="#666666" points="269,-64 147.25,-64 147.25,-44 269,-44 269,-64"/>
<text xml:space="preserve" text-anchor="middle" x="208.12" y="-50.5" font-family="Helvetica,sans-Serif" font-size="10.00">ExampleApp::OnRender</text>
</a>
</g>
</g>
<!-- Node24&#45;&gt;Node25 -->
<g id="edge28_Node000024_Node000025" class="edge">
<title>Node24&#45;&gt;Node25</title>
<g id="a_edge28_Node000024_Node000025"><a xlink:title=" ">
<path fill="none" stroke="#63b8ff" d="M300.7,-54C290.13,-54 279.51,-54 269.44,-54"/>
<polygon fill="#63b8ff" stroke="#63b8ff" points="300.61,-57.5 310.61,-54 300.61,-50.5 300.61,-57.5"/>
</a>
</g>
</g>
<!-- Node38&#45;&gt;Node30 -->
<g id="edge51_Node000038_Node000030" class="edge">
<title>Node38&#45;&gt;Node30</title>
<g id="a_edge51_Node000038_Node000030"><a xlink:title=" ">
<path fill="none" stroke="#63b8ff" d="M822.97,-238.38C818.76,-235.96 814.8,-233.18 811.25,-230 782.51,-204.25 803.28,-177.52 775.25,-151 664.96,-46.66 471.37,-18.39 408.77,-11.79"/>
<polygon fill="#63b8ff" stroke="#63b8ff" points="821.25,-241.44 831.77,-242.75 824.37,-235.17 821.25,-241.44"/>
</a>
</g>
</g>
<!-- Node39 -->
<g id="Node000039" class="node">
<title>Node39</title>
<g id="a_Node000039"><a xlink:href="namespaceLGE_1_1Dependencies.html#abb2932854a8edbd61c21b2b3c846396f" target="_top" xlink:title=" ">
<polygon fill="white" stroke="#666666" points="775.25,-192 665.5,-192 665.5,-160 775.25,-160 775.25,-192"/>
<text xml:space="preserve" text-anchor="start" x="673.5" y="-178.5" font-family="Helvetica,sans-Serif" font-size="10.00">LGE::Dependencies::</text>
<text xml:space="preserve" text-anchor="middle" x="720.38" y="-166.5" font-family="Helvetica,sans-Serif" font-size="10.00">RebuildGraph</text>
</a>
</g>
</g>
<!-- Node38&#45;&gt;Node39 -->
<g id="edge43_Node000038_Node000039" class="edge">
<title>Node38&#45;&gt;Node39</title>
<g id="a_edge43_Node000038_Node000039"><a xlink:title=" ">
<path fill="none" stroke="#63b8ff" d="M822.68,-234.88C818.78,-233.32 814.94,-231.69 811.25,-230 787.91,-219.31 763.02,-204.02 745.36,-192.43"/>
<polygon fill="#63b8ff" stroke="#63b8ff" points="821.11,-238.03 831.7,-238.31 823.6,-231.48 821.11,-238.03"/>
</a>
</g>
</g>
<!-- Node40 -->
<g id="Node000040" class="node">
<title>Node40</title>
<g id="a_Node000040"><a xlink:href="namespaceLGE_1_1Dependencies.html#a507f7e03e282ce1ac7c9326017bccae8" target="_top" xlink:title=" ">
<polygon fill="white" stroke="#666666" points="619,-152 509.25,-152 509.25,-120 619,-120 619,-152"/>
<text xml:space="preserve" text-anchor="start" x="517.25" y="-138.5" font-family="Helvetica,sans-Serif" font-size="10.00">LGE::Dependencies::</text>
<text xml:space="preserve" text-anchor="middle" x="564.12" y="-126.5" font-family="Helvetica,sans-Serif" font-size="10.00">Initialize</text>
</a>
</g>
</g>
<!-- Node39&#45;&gt;Node40 -->
<g id="edge44_Node000039_Node000040" class="edge">
<title>Node39&#45;&gt;Node40</title>
<g id="a_edge44_Node000039_Node000040"><a xlink:title=" ">
<path fill="none" stroke="#63b8ff" d="M654.38,-159.15C642.7,-156.12 630.64,-152.99 619.3,-150.05"/>
<polygon fill="#63b8ff" stroke="#63b8ff" points="653.4,-162.51 663.96,-161.63 655.16,-155.73 653.4,-162.51"/>
</a>
</g>
</g>
<!-- Node40&#45;&gt;Node24 -->
<g id="edge45_Node000040_Node000024" class="edge">
<title>Node40&#45;&gt;Node24</title>
<g id="a_edge45_Node000040_Node000024"><a xlink:title=" ">
<path fill="none" stroke="#63b8ff" d="M527.78,-113.73C508.93,-102.42 485.08,-88.99 462.75,-79 455.93,-75.95 448.62,-73.05 441.35,-70.39"/>
<polygon fill="#63b8ff" stroke="#63b8ff" points="525.77,-116.6 536.13,-118.8 529.4,-110.61 525.77,-116.6"/>
</a>
</g>
</g>
<!-- Node40&#45;&gt;Node26 -->
<g id="edge46_Node000040_Node000026" class="edge">
<title>Node40&#45;&gt;Node26</title>
<g id="a_edge46_Node000040_Node000026"><a xlink:title=" ">
<path fill="none" stroke="#63b8ff" d="M497.46,-136C465.9,-136 430.33,-136 408.7,-136"/>
<polygon fill="#63b8ff" stroke="#63b8ff" points="497.36,-139.5 507.36,-136 497.36,-132.5 497.36,-139.5"/>
</a>
</g>
</g>
<!-- Node40&#45;&gt;Node27 -->
<g id="edge47_Node000040_Node000027" class="edge">
<title>Node40&#45;&gt;Node27</title>
<g id="a_edge47_Node000040_Node000027"><a xlink:title=" ">
<path fill="none" stroke="#63b8ff" d="M497.87,-121.79C466.22,-114.9 430.43,-107.1 408.7,-102.37"/>
<polygon fill="#63b8ff" stroke="#63b8ff" points="496.87,-125.15 507.39,-123.86 498.36,-118.32 496.87,-125.15"/>
</a>
</g>
</g>
<!-- Node40&#45;&gt;Node28 -->
<g id="edge48_Node000040_Node000028" class="edge">
<title>Node40&#45;&gt;Node28</title>
<g id="a_edge48_Node000040_Node000028"><a xlink:title=" ">
<path fill="none" stroke="#63b8ff" d="M528.85,-158.48C509.97,-170.09 485.75,-183.72 462.75,-193 445.01,-200.16 423.77,-205.28 408.59,-208.38"/>
<polygon fill="#63b8ff" stroke="#63b8ff" points="530.58,-161.53 537.2,-153.26 526.86,-155.6 530.58,-161.53"/>
</a>
</g>
</g>
<!-- Node40&#45;&gt;Node29 -->
<g id="edge49_Node000040_Node000029" class="edge">
<title>Node40&#45;&gt;Node29</title>
<g id="a_edge49_Node000040_Node000029"><a xlink:title=" ">
<path fill="none" stroke="#63b8ff" d="M497.87,-150.21C466.22,-157.1 430.43,-164.9 408.7,-169.63"/>
<polygon fill="#63b8ff" stroke="#63b8ff" points="498.36,-153.68 507.39,-148.14 496.87,-146.85 498.36,-153.68"/>
</a>
</g>
</g>
<!-- Node40&#45;&gt;Node30 -->
<g id="edge50_Node000040_Node000030" class="edge">
<title>Node40&#45;&gt;Node30</title>
<g id="a_edge50_Node000040_Node000030"><a xlink:title=" ">
<path fill="none" stroke="#63b8ff" d="M541.02,-111.76C512.95,-81.08 467.56,-31.84 462.75,-29 446.06,-19.13 424.29,-14.33 408.67,-12.04"/>
<polygon fill="#63b8ff" stroke="#63b8ff" points="538.08,-113.73 547.41,-118.75 543.24,-109 538.08,-113.73"/>
</a>
</g>
</g>
</g>
</svg>
