<?xml version="1.0" encoding="UTF-8" standalone="no"?>
<!DOCTYPE svg PUBLIC "-//W3C//DTD SVG 1.1//EN"
 "http://www.w3.org/Graphics/SVG/1.1/DTD/svg11.dtd">
<!-- Generated by graphviz version 14.0.2 (20251019.1705)
 -->
<!-- Title: LGE::Compression::CompressFile Pages: 1 -->
<svg width="949pt" height="251pt"
 viewBox="0.00 0.00 949.00 251.00" xmlns="http://www.w3.org/2000/svg" xmlns:xlink="http://www.w3.org/1999/xlink">
<g id="graph0" class="graph" transform="scale(1 1) rotate(0) translate(4 246.87)">
<title>LGE::Compression::CompressFile</title>
<!-- Node1 -->
<g id="Node000001" class="node">
<title>Node1</title>
<g id="a_Node000001"><a xlink:title=" ">
<polygon fill="#999999" stroke="#666666" points="166,-116.87 0,-116.87 0,-96.87 166,-96.87 166,-116.87"/>
<text xml:space="preserve" text-anchor="middle" x="83" y="-103.37" font-family="Helvetica,sans-Serif" font-size="10.00">LGE::Compression::CompressFile</text>
</a>
</g>
</g>
<!-- Node2 -->
<g id="Node000002" class="node">
<title>Node2</title>
<g id="a_Node000002"><a xlink:href="namespaceLGE_1_1LxFile.html#ab62abe452536badcfc9ab15647d6df2b" target="_top" xlink:title=" ">
<polygon fill="white" stroke="#666666" points="318.5,-242.87 221.5,-242.87 221.5,-222.87 318.5,-222.87 318.5,-242.87"/>
<text xml:space="preserve" text-anchor="middle" x="270" y="-229.37" font-family="Helvetica,sans-Serif" font-size="10.00">LGE::LxFile::Copy</text>
</a>
</g>
</g>
<!-- Node1&#45;&gt;Node2 -->
<g id="edge1_Node000001_Node000002" class="edge">
<title>Node1&#45;&gt;Node2</title>
<g id="a_edge1_Node000001_Node000002"><a xlink:title=" ">
<path fill="none" stroke="#63b8ff" d="M92.32,-117.09C110.16,-138.33 154.36,-187.44 202,-213.87 204.97,-215.52 208.1,-217.03 211.31,-218.42"/>
<polygon fill="#63b8ff" stroke="#63b8ff" points="209.76,-221.58 220.35,-221.91 212.28,-215.05 209.76,-221.58"/>
</a>
</g>
</g>
<!-- Node7 -->
<g id="Node000007" class="node">
<title>Node7</title>
<g id="a_Node000007"><a xlink:href="namespaceLGE_1_1LxFile.html#a11e62876b312a11b881b484bb3a5ee71" target="_top" xlink:title=" ">
<polygon fill="white" stroke="#666666" points="320.75,-204.87 219.25,-204.87 219.25,-184.87 320.75,-184.87 320.75,-204.87"/>
<text xml:space="preserve" text-anchor="middle" x="270" y="-191.37" font-family="Helvetica,sans-Serif" font-size="10.00">LGE::LxFile::Exists</text>
</a>
</g>
</g>
<!-- Node1&#45;&gt;Node7 -->
<g id="edge8_Node000001_Node000007" class="edge">
<title>Node1&#45;&gt;Node7</title>
<g id="a_edge8_Node000001_Node000007"><a xlink:title=" ">
<path fill="none" stroke="#63b8ff" d="M99,-117.32C120.8,-132.12 162.92,-159.22 202,-175.87 206.25,-177.68 210.73,-179.38 215.27,-180.95"/>
<polygon fill="#63b8ff" stroke="#63b8ff" points="213.88,-184.18 224.47,-183.93 216.03,-177.52 213.88,-184.18"/>
</a>
</g>
</g>
<!-- Node8 -->
<g id="Node000008" class="node">
<title>Node8</title>
<g id="a_Node000008"><a xlink:href="namespaceLGE_1_1Compression.html#a7d42ab993dbaa3b8a82b82e5d0d6ea8a" target="_top" xlink:title=" ">
<polygon fill="white" stroke="#666666" points="338,-166.87 202,-166.87 202,-134.87 338,-134.87 338,-166.87"/>
<text xml:space="preserve" text-anchor="start" x="210" y="-153.37" font-family="Helvetica,sans-Serif" font-size="10.00">LGE::Compression::Format</text>
<text xml:space="preserve" text-anchor="middle" x="270" y="-141.37" font-family="Helvetica,sans-Serif" font-size="10.00">ToString</text>
</a>
</g>
</g>
<!-- Node1&#45;&gt;Node8 -->
<g id="edge9_Node000001_Node000008" class="edge">
<title>Node1&#45;&gt;Node8</title>
<g id="a_edge9_Node000001_Node000008"><a xlink:title=" ">
<path fill="none" stroke="#63b8ff" d="M127.84,-117.3C146.59,-121.75 169.06,-127.1 190.5,-132.2"/>
<polygon fill="#63b8ff" stroke="#63b8ff" points="189.58,-135.58 200.12,-134.49 191.2,-128.77 189.58,-135.58"/>
</a>
</g>
</g>
<!-- Node9 -->
<g id="Node000009" class="node">
<title>Node9</title>
<g id="a_Node000009"><a xlink:href="namespaceLGE_1_1LxPath.html#a282200340a7ec214f14f5d64e9e41396" target="_top" xlink:title=" ">
<polygon fill="white" stroke="#666666" points="662.5,-122.87 528.75,-122.87 528.75,-102.87 662.5,-102.87 662.5,-122.87"/>
<text xml:space="preserve" text-anchor="middle" x="595.62" y="-109.37" font-family="Helvetica,sans-Serif" font-size="10.00">LGE::LxPath::GetFilename</text>
</a>
</g>
</g>
<!-- Node1&#45;&gt;Node9 -->
<g id="edge10_Node000001_Node000009" class="edge">
<title>Node1&#45;&gt;Node9</title>
<g id="a_edge10_Node000001_Node000009"><a xlink:title=" ">
<path fill="none" stroke="#63b8ff" d="M166.32,-107.84C263,-108.97 422.15,-110.84 516.82,-111.96"/>
<polygon fill="#63b8ff" stroke="#63b8ff" points="516.77,-115.45 526.81,-112.07 516.85,-108.46 516.77,-115.45"/>
</a>
</g>
</g>
<!-- Node10 -->
<g id="Node000010" class="node">
<title>Node10</title>
<g id="a_Node000010"><a xlink:href="namespaceLGE_1_1LxFile.html#a40751ea42c228d8e2c6f6b0788e24aa7" target="_top" xlink:title=" ">
<polygon fill="white" stroke="#666666" points="332.38,-78.87 207.62,-78.87 207.62,-58.87 332.38,-58.87 332.38,-78.87"/>
<text xml:space="preserve" text-anchor="middle" x="270" y="-65.37" font-family="Helvetica,sans-Serif" font-size="10.00">LGE::LxFile::GetFileSize</text>
</a>
</g>
</g>
<!-- Node1&#45;&gt;Node10 -->
<g id="edge12_Node000001_Node000010" class="edge">
<title>Node1&#45;&gt;Node10</title>
<g id="a_edge12_Node000001_Node000010"><a xlink:title=" ">
<path fill="none" stroke="#63b8ff" d="M135.04,-96.39C157.28,-91.82 183.56,-86.42 206.92,-81.62"/>
<polygon fill="#63b8ff" stroke="#63b8ff" points="207.55,-85.06 216.64,-79.62 206.14,-78.21 207.55,-85.06"/>
</a>
</g>
</g>
<!-- Node11 -->
<g id="Node000011" class="node">
<title>Node11</title>
<g id="a_Node000011"><a xlink:href="classLGE_1_1Log.html#ab0265ee050b8873a2fd31fbdb696ced0" target="_top" xlink:title=" ">
<polygon fill="white" stroke="#666666" points="309.88,-40.87 230.12,-40.87 230.12,-20.87 309.88,-20.87 309.88,-40.87"/>
<text xml:space="preserve" text-anchor="middle" x="270" y="-27.37" font-family="Helvetica,sans-Serif" font-size="10.00">LGE::Log::Info</text>
</a>
</g>
</g>
<!-- Node1&#45;&gt;Node11 -->
<g id="edge13_Node000001_Node000011" class="edge">
<title>Node1&#45;&gt;Node11</title>
<g id="a_edge13_Node000001_Node000011"><a xlink:title=" ">
<path fill="none" stroke="#63b8ff" d="M102.76,-96.55C125.67,-84.24 165.85,-63.61 202,-49.87 207.37,-47.83 213.06,-45.89 218.76,-44.09"/>
<polygon fill="#63b8ff" stroke="#63b8ff" points="219.65,-47.47 228.21,-41.23 217.62,-40.77 219.65,-47.47"/>
</a>
</g>
</g>
<!-- Node12 -->
<g id="Node000012" class="node">
<title>Node12</title>
<g id="a_Node000012"><a xlink:href="namespaceLGE_1_1LxFile.html#ac0a61f0e1f49fdcf553f007750c1ba37" target="_top" xlink:title=" ">
<polygon fill="white" stroke="#666666" points="487.5,-40.87 379.25,-40.87 379.25,-20.87 487.5,-20.87 487.5,-40.87"/>
<text xml:space="preserve" text-anchor="middle" x="433.38" y="-27.37" font-family="Helvetica,sans-Serif" font-size="10.00">LGE::LxFile::ReadAll</text>
</a>
</g>
</g>
<!-- Node1&#45;&gt;Node12 -->
<g id="edge14_Node000001_Node000012" class="edge">
<title>Node1&#45;&gt;Node12</title>
<g id="a_edge14_Node000001_Node000012"><a xlink:title=" ">
<path fill="none" stroke="#63b8ff" d="M92.4,-96.48C110.04,-75.59 153.38,-29.01 202,-11.87 264.76,10.26 342.88,-4.26 390.12,-17.22"/>
<polygon fill="#63b8ff" stroke="#63b8ff" points="389.12,-20.58 399.7,-19.96 391.05,-13.85 389.12,-20.58"/>
</a>
</g>
</g>
<!-- Node3 -->
<g id="Node000003" class="node">
<title>Node3</title>
<g id="a_Node000003"><a xlink:href="classLGE_1_1Log.html#a53f3f4b8797ffd18145739c9e66d690a" target="_top" xlink:title=" ">
<polygon fill="white" stroke="#666666" points="941.25,-163.87 857,-163.87 857,-143.87 941.25,-143.87 941.25,-163.87"/>
<text xml:space="preserve" text-anchor="middle" x="899.12" y="-150.37" font-family="Helvetica,sans-Serif" font-size="10.00">LGE::Log::Error</text>
</a>
</g>
</g>
<!-- Node2&#45;&gt;Node3 -->
<g id="edge2_Node000002_Node000003" class="edge">
<title>Node2&#45;&gt;Node3</title>
<g id="a_edge2_Node000002_Node000003"><a xlink:title=" ">
<path fill="none" stroke="#63b8ff" d="M318.89,-232.93C392.95,-232.41 539.58,-228.91 662.5,-210.87 734.17,-200.35 750.61,-189.98 821,-172.87 828.92,-170.94 837.3,-168.89 845.5,-166.88"/>
<polygon fill="#63b8ff" stroke="#63b8ff" points="846.17,-170.32 855.04,-164.53 844.49,-163.52 846.17,-170.32"/>
</a>
</g>
</g>
<!-- Node4 -->
<g id="Node000004" class="node">
<title>Node4</title>
<g id="a_Node000004"><a xlink:href="namespaceLGE_1_1VFS.html#abb5d35abfe80efe2f7a07394ad5b706a" target="_top" xlink:title=" ">
<polygon fill="white" stroke="#666666" points="492.75,-201.87 374,-201.87 374,-181.87 492.75,-181.87 492.75,-201.87"/>
<text xml:space="preserve" text-anchor="middle" x="433.38" y="-188.37" font-family="Helvetica,sans-Serif" font-size="10.00">LGE::VFS::IsReadOnly</text>
</a>
</g>
</g>
<!-- Node2&#45;&gt;Node4 -->
<g id="edge3_Node000002_Node000004" class="edge">
<title>Node2&#45;&gt;Node4</title>
<g id="a_edge3_Node000002_Node000004"><a xlink:title=" ">
<path fill="none" stroke="#63b8ff" d="M312.14,-222.42C332.91,-217.14 358.32,-210.68 380.43,-205.07"/>
<polygon fill="#63b8ff" stroke="#63b8ff" points="381.01,-208.53 389.84,-202.68 379.29,-201.75 381.01,-208.53"/>
</a>
</g>
</g>
<!-- Node5 -->
<g id="Node000005" class="node">
<title>Node5</title>
<g id="a_Node000005"><a xlink:href="namespaceLGE_1_1LxPath.html#ab664986e94ce09aa029f9eb2fcf50133" target="_top" xlink:title=" ">
<polygon fill="white" stroke="#666666" points="657.62,-201.87 533.62,-201.87 533.62,-181.87 657.62,-181.87 657.62,-201.87"/>
<text xml:space="preserve" text-anchor="middle" x="595.62" y="-188.37" font-family="Helvetica,sans-Serif" font-size="10.00">LGE::LxPath::IsSubPath</text>
</a>
</g>
</g>
<!-- Node4&#45;&gt;Node5 -->
<g id="edge4_Node000004_Node000005" class="edge">
<title>Node4&#45;&gt;Node5</title>
<g id="a_edge4_Node000004_Node000005"><a xlink:title=" ">
<path fill="none" stroke="#63b8ff" d="M493.14,-191.87C502.51,-191.87 512.3,-191.87 521.95,-191.87"/>
<polygon fill="#63b8ff" stroke="#63b8ff" points="521.67,-195.37 531.67,-191.87 521.67,-188.37 521.67,-195.37"/>
</a>
</g>
</g>
<!-- Node6 -->
<g id="Node000006" class="node">
<title>Node6</title>
<g id="a_Node000006"><a xlink:href="namespaceLGE_1_1LxPath.html#a314a60ce690c90f4ee0b4e64c0199408" target="_top" xlink:title=" ">
<polygon fill="white" stroke="#666666" points="821,-163.87 698.5,-163.87 698.5,-143.87 821,-143.87 821,-163.87"/>
<text xml:space="preserve" text-anchor="middle" x="759.75" y="-150.37" font-family="Helvetica,sans-Serif" font-size="10.00">LGE::LxPath::Normalize</text>
</a>
</g>
</g>
<!-- Node4&#45;&gt;Node6 -->
<g id="edge7_Node000004_Node000006" class="edge">
<title>Node4&#45;&gt;Node6</title>
<g id="a_edge7_Node000004_Node000006"><a xlink:title=" ">
<path fill="none" stroke="#63b8ff" d="M480.75,-181.42C495.98,-178.28 513.03,-175.09 528.75,-172.87 581.41,-165.42 641.31,-160.59 686.77,-157.66"/>
<polygon fill="#63b8ff" stroke="#63b8ff" points="686.73,-161.17 696.49,-157.05 686.29,-154.18 686.73,-161.17"/>
</a>
</g>
</g>
<!-- Node5&#45;&gt;Node6 -->
<g id="edge5_Node000005_Node000006" class="edge">
<title>Node5&#45;&gt;Node6</title>
<g id="a_edge5_Node000005_Node000006"><a xlink:title=" ">
<path fill="none" stroke="#63b8ff" d="M641.36,-181.39C660.49,-176.9 683.04,-171.62 703.23,-166.88"/>
<polygon fill="#63b8ff" stroke="#63b8ff" points="703.75,-170.35 712.69,-164.66 702.16,-163.54 703.75,-170.35"/>
</a>
</g>
</g>
<!-- Node6&#45;&gt;Node3 -->
<g id="edge6_Node000006_Node000003" class="edge">
<title>Node6&#45;&gt;Node3</title>
<g id="a_edge6_Node000006_Node000003"><a xlink:title=" ">
<path fill="none" stroke="#63b8ff" d="M821.4,-153.87C829.42,-153.87 837.59,-153.87 845.45,-153.87"/>
<polygon fill="#63b8ff" stroke="#63b8ff" points="845.2,-157.37 855.2,-153.87 845.2,-150.37 845.2,-157.37"/>
</a>
</g>
</g>
<!-- Node9&#45;&gt;Node6 -->
<g id="edge11_Node000009_Node000006" class="edge">
<title>Node9&#45;&gt;Node6</title>
<g id="a_edge11_Node000009_Node000006"><a xlink:title=" ">
<path fill="none" stroke="#63b8ff" d="M637.96,-123.32C658.82,-128.6 684.36,-135.06 706.56,-140.67"/>
<polygon fill="#63b8ff" stroke="#63b8ff" points="705.47,-144.01 716.03,-143.07 707.19,-137.22 705.47,-144.01"/>
</a>
</g>
</g>
<!-- Node12&#45;&gt;Node3 -->
<g id="edge15_Node000012_Node000003" class="edge">
<title>Node12&#45;&gt;Node3</title>
<g id="a_edge15_Node000012_Node000003"><a xlink:title=" ">
<path fill="none" stroke="#63b8ff" d="M473.91,-41.36C558.02,-63.66 754.57,-115.8 847.6,-140.47"/>
<polygon fill="#63b8ff" stroke="#63b8ff" points="846.66,-143.84 857.22,-143.02 848.45,-137.07 846.66,-143.84"/>
</a>
</g>
</g>
</g>
</svg>
