<?xml version="1.0" encoding="UTF-8" standalone="no"?>
<!DOCTYPE svg PUBLIC "-//W3C//DTD SVG 1.1//EN"
 "http://www.w3.org/Graphics/SVG/1.1/DTD/svg11.dtd">
<!-- Generated by graphviz version 14.0.2 (20251019.1705)
 -->
<!-- Title: LGE::ImportExport::GetSupportedImportFormats Pages: 1 -->
<svg width="320pt" height="78pt"
 viewBox="0.00 0.00 320.00 78.00" xmlns="http://www.w3.org/2000/svg" xmlns:xlink="http://www.w3.org/1999/xlink">
<g id="graph0" class="graph" transform="scale(1 1) rotate(0) translate(4 74)">
<title>LGE::ImportExport::GetSupportedImportFormats</title>
<!-- Node1 -->
<g id="Node000001" class="node">
<title>Node1</title>
<g id="a_Node000001"><a xlink:title=" ">
<polygon fill="#999999" stroke="#666666" points="139.75,-54 0,-54 0,-22 139.75,-22 139.75,-54"/>
<text xml:space="preserve" text-anchor="start" x="8" y="-40.5" font-family="Helvetica,sans-Serif" font-size="10.00">LGE::ImportExport::</text>
<text xml:space="preserve" text-anchor="middle" x="69.88" y="-28.5" font-family="Helvetica,sans-Serif" font-size="10.00">GetSupportedImportFormats</text>
</a>
</g>
</g>
<!-- Node2 -->
<g id="Node000002" class="node">
<title>Node2</title>
<g id="a_Node000002"><a xlink:href="classLGE_1_1ImporterRegistry.html#ae32195eae32f4eb6c04f7c01d95fc621" target="_top" xlink:title=" ">
<polygon fill="white" stroke="#666666" points="311.75,-70 175.75,-70 175.75,-50 311.75,-50 311.75,-70"/>
<text xml:space="preserve" text-anchor="middle" x="243.75" y="-56.5" font-family="Helvetica,sans-Serif" font-size="10.00">LGE::ImporterRegistry::Get</text>
</a>
</g>
</g>
<!-- Node1&#45;&gt;Node2 -->
<g id="edge1_Node000001_Node000002" class="edge">
<title>Node1&#45;&gt;Node2</title>
<g id="a_edge1_Node000001_Node000002"><a xlink:title=" ">
<path fill="none" stroke="#63b8ff" d="M139.79,-46.82C147.79,-47.85 155.99,-48.9 164.11,-49.93"/>
<polygon fill="#63b8ff" stroke="#63b8ff" points="163.63,-53.4 173.99,-51.2 164.52,-46.46 163.63,-53.4"/>
</a>
</g>
</g>
<!-- Node3 -->
<g id="Node000003" class="node">
<title>Node3</title>
<g id="a_Node000003"><a xlink:href="classLGE_1_1ImporterRegistry.html#a7e086c7d92d05061c0dc40d3515a9d50" target="_top" xlink:title=" ">
<polygon fill="white" stroke="#666666" points="300.88,-32 186.62,-32 186.62,0 300.88,0 300.88,-32"/>
<text xml:space="preserve" text-anchor="start" x="194.62" y="-18.5" font-family="Helvetica,sans-Serif" font-size="10.00">LGE::ImporterRegistry</text>
<text xml:space="preserve" text-anchor="middle" x="243.75" y="-6.5" font-family="Helvetica,sans-Serif" font-size="10.00">::GetAllImporters</text>
</a>
</g>
</g>
<!-- Node1&#45;&gt;Node3 -->
<g id="edge2_Node000001_Node000003" class="edge">
<title>Node1&#45;&gt;Node3</title>
<g id="a_edge2_Node000001_Node000003"><a xlink:title=" ">
<path fill="none" stroke="#63b8ff" d="M139.79,-29.18C151.35,-27.7 163.34,-26.17 174.87,-24.69"/>
<polygon fill="#63b8ff" stroke="#63b8ff" points="175.24,-28.17 184.71,-23.43 174.35,-21.23 175.24,-28.17"/>
</a>
</g>
</g>
</g>
</svg>
