<?xml version="1.0" encoding="UTF-8" standalone="no"?>
<!DOCTYPE svg PUBLIC "-//W3C//DTD SVG 1.1//EN"
 "http://www.w3.org/Graphics/SVG/1.1/DTD/svg11.dtd">
<!-- Generated by graphviz version 14.0.2 (20251019.1705)
 -->
<!-- Title: LGE::Policies::GetMountName Pages: 1 -->
<svg width="349pt" height="104pt"
 viewBox="0.00 0.00 349.00 104.00" xmlns="http://www.w3.org/2000/svg" xmlns:xlink="http://www.w3.org/1999/xlink">
<g id="graph0" class="graph" transform="scale(1 1) rotate(0) translate(4 100)">
<title>LGE::Policies::GetMountName</title>
<!-- Node1 -->
<g id="Node000001" class="node">
<title>Node1</title>
<g id="a_Node000001"><a xlink:title=" ">
<polygon fill="#999999" stroke="#666666" points="341,-58 190,-58 190,-38 341,-38 341,-58"/>
<text xml:space="preserve" text-anchor="middle" x="265.5" y="-44.5" font-family="Helvetica,sans-Serif" font-size="10.00">LGE::Policies::GetMountName</text>
</a>
</g>
</g>
<!-- Node2 -->
<g id="Node000002" class="node">
<title>Node2</title>
<g id="a_Node000002"><a xlink:href="namespaceLGE_1_1Policies.html#aea3dc2b7df581ee5313cf5972dc7c5df" target="_top" xlink:title=" ">
<polygon fill="white" stroke="#666666" points="147.62,-96 6.38,-96 6.38,-76 147.62,-76 147.62,-96"/>
<text xml:space="preserve" text-anchor="middle" x="77" y="-82.5" font-family="Helvetica,sans-Serif" font-size="10.00">LGE::Policies::IsAssetsPath</text>
</a>
</g>
</g>
<!-- Node1&#45;&gt;Node2 -->
<g id="edge1_Node000001_Node000002" class="edge">
<title>Node1&#45;&gt;Node2</title>
<g id="a_edge1_Node000001_Node000002"><a xlink:title=" ">
<path fill="none" stroke="#63b8ff" d="M202.06,-60.72C178.42,-65.54 151.79,-70.96 129.29,-75.55"/>
<polygon fill="#63b8ff" stroke="#63b8ff" points="202.46,-64.21 211.56,-58.79 201.06,-57.35 202.46,-64.21"/>
</a>
</g>
</g>
<!-- Node3 -->
<g id="Node000003" class="node">
<title>Node3</title>
<g id="a_Node000003"><a xlink:href="namespaceLGE_1_1Policies.html#aa4c9ed83bd709ac6d13f04dd68d0d976" target="_top" xlink:title=" ">
<polygon fill="white" stroke="#666666" points="154,-58 0,-58 0,-38 154,-38 154,-58"/>
<text xml:space="preserve" text-anchor="middle" x="77" y="-44.5" font-family="Helvetica,sans-Serif" font-size="10.00">LGE::Policies::IsPackagesPath</text>
</a>
</g>
</g>
<!-- Node1&#45;&gt;Node3 -->
<g id="edge2_Node000001_Node000003" class="edge">
<title>Node1&#45;&gt;Node3</title>
<g id="a_edge2_Node000001_Node000003"><a xlink:title=" ">
<path fill="none" stroke="#63b8ff" d="M178.42,-48C170.38,-48 162.27,-48 154.32,-48"/>
<polygon fill="#63b8ff" stroke="#63b8ff" points="178.2,-51.5 188.2,-48 178.2,-44.5 178.2,-51.5"/>
</a>
</g>
</g>
<!-- Node4 -->
<g id="Node000004" class="node">
<title>Node4</title>
<g id="a_Node000004"><a xlink:href="namespaceLGE_1_1FSOps.html#a8d90a8bd4f3c45deff002d5c191bf872" target="_top" xlink:title=" ">
<polygon fill="white" stroke="#666666" points="128.12,-20 25.88,-20 25.88,0 128.12,0 128.12,-20"/>
<text xml:space="preserve" text-anchor="middle" x="77" y="-6.5" font-family="Helvetica,sans-Serif" font-size="10.00">LGE::FSOps::Move</text>
</a>
</g>
</g>
<!-- Node1&#45;&gt;Node4 -->
<g id="edge3_Node000001_Node000004" class="edge">
<title>Node1&#45;&gt;Node4</title>
<g id="a_edge3_Node000001_Node000004"><a xlink:title=" ">
<path fill="none" stroke="#63b8ff" d="M201.92,-35.25C177.97,-30.37 150.98,-24.87 128.32,-20.25"/>
<polygon fill="#63b8ff" stroke="#63b8ff" points="201.06,-38.65 211.56,-37.21 202.46,-31.79 201.06,-38.65"/>
</a>
</g>
</g>
</g>
</svg>
