<?xml version="1.0" encoding="UTF-8" standalone="no"?>
<!DOCTYPE svg PUBLIC "-//W3C//DTD SVG 1.1//EN"
 "http://www.w3.org/Graphics/SVG/1.1/DTD/svg11.dtd">
<!-- Generated by graphviz version 14.0.2 (20251019.1705)
 -->
<!-- Title: LGE::AssetRegistry::GetAssetsInDirectory Pages: 1 -->
<svg width="563pt" height="104pt"
 viewBox="0.00 0.00 563.00 104.00" xmlns="http://www.w3.org/2000/svg" xmlns:xlink="http://www.w3.org/1999/xlink">
<g id="graph0" class="graph" transform="scale(1 1) rotate(0) translate(4 100)">
<title>LGE::AssetRegistry::GetAssetsInDirectory</title>
<!-- Node1 -->
<g id="Node000001" class="node">
<title>Node1</title>
<g id="a_Node000001"><a xlink:title=" ">
<polygon fill="#999999" stroke="#666666" points="116.5,-64 0,-64 0,-32 116.5,-32 116.5,-64"/>
<text xml:space="preserve" text-anchor="start" x="8" y="-50.5" font-family="Helvetica,sans-Serif" font-size="10.00">LGE::AssetRegistry</text>
<text xml:space="preserve" text-anchor="middle" x="58.25" y="-38.5" font-family="Helvetica,sans-Serif" font-size="10.00">::GetAssetsInDirectory</text>
</a>
</g>
</g>
<!-- Node2 -->
<g id="Node000002" class="node">
<title>Node2</title>
<g id="a_Node000002"><a xlink:href="namespaceLGE_1_1LxPath.html#aefae4d45f84718077f5218f64d2f074c" target="_top" xlink:title=" ">
<polygon fill="white" stroke="#666666" points="275.75,-96 153.25,-96 153.25,-76 275.75,-76 275.75,-96"/>
<text xml:space="preserve" text-anchor="middle" x="214.5" y="-82.5" font-family="Helvetica,sans-Serif" font-size="10.00">LGE::LxPath::GetParent</text>
</a>
</g>
</g>
<!-- Node1&#45;&gt;Node2 -->
<g id="edge1_Node000001_Node000002" class="edge">
<title>Node1&#45;&gt;Node2</title>
<g id="a_edge1_Node000001_Node000002"><a xlink:title=" ">
<path fill="none" stroke="#63b8ff" d="M116.69,-62.15C130.88,-65.65 146.03,-69.38 160.02,-72.83"/>
<polygon fill="#63b8ff" stroke="#63b8ff" points="158.94,-76.16 169.49,-75.16 160.62,-69.37 158.94,-76.16"/>
</a>
</g>
</g>
<!-- Node3 -->
<g id="Node000003" class="node">
<title>Node3</title>
<g id="a_Node000003"><a xlink:href="namespaceLGE_1_1LxPath.html#a314a60ce690c90f4ee0b4e64c0199408" target="_top" xlink:title=" ">
<polygon fill="white" stroke="#666666" points="435,-58 312.5,-58 312.5,-38 435,-38 435,-58"/>
<text xml:space="preserve" text-anchor="middle" x="373.75" y="-44.5" font-family="Helvetica,sans-Serif" font-size="10.00">LGE::LxPath::Normalize</text>
</a>
</g>
</g>
<!-- Node1&#45;&gt;Node3 -->
<g id="edge6_Node000001_Node000003" class="edge">
<title>Node1&#45;&gt;Node3</title>
<g id="a_edge6_Node000001_Node000003"><a xlink:title=" ">
<path fill="none" stroke="#63b8ff" d="M116.75,-48C168.6,-48 245.05,-48 300.9,-48"/>
<polygon fill="#63b8ff" stroke="#63b8ff" points="300.63,-51.5 310.63,-48 300.63,-44.5 300.63,-51.5"/>
</a>
</g>
</g>
<!-- Node5 -->
<g id="Node000005" class="node">
<title>Node5</title>
<g id="a_Node000005"><a xlink:href="namespaceLGE_1_1LxPath.html#ab664986e94ce09aa029f9eb2fcf50133" target="_top" xlink:title=" ">
<polygon fill="white" stroke="#666666" points="276.5,-20 152.5,-20 152.5,0 276.5,0 276.5,-20"/>
<text xml:space="preserve" text-anchor="middle" x="214.5" y="-6.5" font-family="Helvetica,sans-Serif" font-size="10.00">LGE::LxPath::IsSubPath</text>
</a>
</g>
</g>
<!-- Node1&#45;&gt;Node5 -->
<g id="edge4_Node000001_Node000005" class="edge">
<title>Node1&#45;&gt;Node5</title>
<g id="a_edge4_Node000001_Node000005"><a xlink:title=" ">
<path fill="none" stroke="#63b8ff" d="M116.69,-33.85C130.88,-30.35 146.03,-26.62 160.02,-23.17"/>
<polygon fill="#63b8ff" stroke="#63b8ff" points="160.62,-26.63 169.49,-20.84 158.94,-19.84 160.62,-26.63"/>
</a>
</g>
</g>
<!-- Node2&#45;&gt;Node3 -->
<g id="edge2_Node000002_Node000003" class="edge">
<title>Node2&#45;&gt;Node3</title>
<g id="a_edge2_Node000002_Node000003"><a xlink:title=" ">
<path fill="none" stroke="#63b8ff" d="M258.89,-75.52C277.28,-71.07 298.91,-65.84 318.35,-61.15"/>
<polygon fill="#63b8ff" stroke="#63b8ff" points="319.14,-64.56 328.03,-58.81 317.49,-57.75 319.14,-64.56"/>
</a>
</g>
</g>
<!-- Node4 -->
<g id="Node000004" class="node">
<title>Node4</title>
<g id="a_Node000004"><a xlink:href="classLGE_1_1Log.html#a53f3f4b8797ffd18145739c9e66d690a" target="_top" xlink:title=" ">
<polygon fill="white" stroke="#666666" points="555.25,-58 471,-58 471,-38 555.25,-38 555.25,-58"/>
<text xml:space="preserve" text-anchor="middle" x="513.12" y="-44.5" font-family="Helvetica,sans-Serif" font-size="10.00">LGE::Log::Error</text>
</a>
</g>
</g>
<!-- Node3&#45;&gt;Node4 -->
<g id="edge3_Node000003_Node000004" class="edge">
<title>Node3&#45;&gt;Node4</title>
<g id="a_edge3_Node000003_Node000004"><a xlink:title=" ">
<path fill="none" stroke="#63b8ff" d="M435.4,-48C443.42,-48 451.59,-48 459.45,-48"/>
<polygon fill="#63b8ff" stroke="#63b8ff" points="459.2,-51.5 469.2,-48 459.2,-44.5 459.2,-51.5"/>
</a>
</g>
</g>
<!-- Node5&#45;&gt;Node3 -->
<g id="edge5_Node000005_Node000003" class="edge">
<title>Node5&#45;&gt;Node3</title>
<g id="a_edge5_Node000005_Node000003"><a xlink:title=" ">
<path fill="none" stroke="#63b8ff" d="M258.89,-20.48C277.28,-24.93 298.91,-30.16 318.35,-34.85"/>
<polygon fill="#63b8ff" stroke="#63b8ff" points="317.49,-38.25 328.03,-37.19 319.14,-31.44 317.49,-38.25"/>
</a>
</g>
</g>
</g>
</svg>
