<?xml version="1.0" encoding="UTF-8" standalone="no"?>
<!DOCTYPE svg PUBLIC "-//W3C//DTD SVG 1.1//EN"
 "http://www.w3.org/Graphics/SVG/1.1/DTD/svg11.dtd">
<!-- Generated by graphviz version 14.0.2 (20251019.1705)
 -->
<!-- Title: LGE::PackageMgr::Install Pages: 1 -->
<svg width="973pt" height="496pt"
 viewBox="0.00 0.00 973.00 496.00" xmlns="http://www.w3.org/2000/svg" xmlns:xlink="http://www.w3.org/1999/xlink">
<g id="graph0" class="graph" transform="scale(1 1) rotate(0) translate(4 492)">
<title>LGE::PackageMgr::Install</title>
<!-- Node1 -->
<g id="Node000001" class="node">
<title>Node1</title>
<g id="a_Node000001"><a xlink:title=" ">
<polygon fill="#999999" stroke="#666666" points="128.5,-314 0,-314 0,-294 128.5,-294 128.5,-314"/>
<text xml:space="preserve" text-anchor="middle" x="64.25" y="-300.5" font-family="Helvetica,sans-Serif" font-size="10.00">LGE::PackageMgr::Install</text>
</a>
</g>
</g>
<!-- Node2 -->
<g id="Node000002" class="node">
<title>Node2</title>
<g id="a_Node000002"><a xlink:href="namespaceLGE_1_1PackageMgr.html#a2138962562e438984a747c5f878442fc" target="_top" xlink:title=" ">
<polygon fill="white" stroke="#666666" points="504.38,-298 370.62,-298 370.62,-266 504.38,-266 504.38,-298"/>
<text xml:space="preserve" text-anchor="start" x="378.62" y="-284.5" font-family="Helvetica,sans-Serif" font-size="10.00">LGE::PackageMgr::Extract</text>
<text xml:space="preserve" text-anchor="middle" x="437.5" y="-272.5" font-family="Helvetica,sans-Serif" font-size="10.00">Package</text>
</a>
</g>
</g>
<!-- Node1&#45;&gt;Node2 -->
<g id="edge1_Node000001_Node000002" class="edge">
<title>Node1&#45;&gt;Node2</title>
<g id="a_edge1_Node000001_Node000002"><a xlink:title=" ">
<path fill="none" stroke="#63b8ff" d="M128.65,-300.24C192.41,-296.46 290.79,-290.63 359.11,-286.59"/>
<polygon fill="#63b8ff" stroke="#63b8ff" points="358.95,-290.1 368.72,-286.02 358.53,-283.11 358.95,-290.1"/>
</a>
</g>
</g>
<!-- Node7 -->
<g id="Node000007" class="node">
<title>Node7</title>
<g id="a_Node000007"><a xlink:href="classLGE_1_1Log.html#ab0265ee050b8873a2fd31fbdb696ced0" target="_top" xlink:title=" ">
<polygon fill="white" stroke="#666666" points="664.38,-205 584.62,-205 584.62,-185 664.38,-185 664.38,-205"/>
<text xml:space="preserve" text-anchor="middle" x="624.5" y="-191.5" font-family="Helvetica,sans-Serif" font-size="10.00">LGE::Log::Info</text>
</a>
</g>
</g>
<!-- Node1&#45;&gt;Node7 -->
<g id="edge11_Node000001_Node000007" class="edge">
<title>Node1&#45;&gt;Node7</title>
<g id="a_edge11_Node000001_Node000007"><a xlink:title=" ">
<path fill="none" stroke="#63b8ff" d="M82.88,-293.6C102.22,-282.68 134.52,-265.89 164.5,-257 308.63,-214.26 487.05,-200.88 572.8,-196.77"/>
<polygon fill="#63b8ff" stroke="#63b8ff" points="572.93,-200.27 582.76,-196.32 572.61,-193.28 572.93,-200.27"/>
</a>
</g>
</g>
<!-- Node8 -->
<g id="Node000008" class="node">
<title>Node8</title>
<g id="a_Node000008"><a xlink:href="namespaceLGE_1_1LxPath.html#a94ec3bdfd6948ddc25cda5d18154d4cf" target="_top" xlink:title=" ">
<polygon fill="white" stroke="#666666" points="672.62,-336 576.38,-336 576.38,-316 672.62,-316 672.62,-336"/>
<text xml:space="preserve" text-anchor="middle" x="624.5" y="-322.5" font-family="Helvetica,sans-Serif" font-size="10.00">LGE::LxPath::Join</text>
</a>
</g>
</g>
<!-- Node1&#45;&gt;Node8 -->
<g id="edge25_Node000001_Node000008" class="edge">
<title>Node1&#45;&gt;Node8</title>
<g id="a_edge25_Node000001_Node000008"><a xlink:title=" ">
<path fill="none" stroke="#63b8ff" d="M128.79,-306.57C140.65,-307.05 152.96,-307.54 164.5,-308 308.25,-313.72 477.34,-320.31 564.67,-323.71"/>
<polygon fill="#63b8ff" stroke="#63b8ff" points="564.28,-327.2 574.41,-324.09 564.55,-320.21 564.28,-327.2"/>
</a>
</g>
</g>
<!-- Node9 -->
<g id="Node000009" class="node">
<title>Node9</title>
<g id="a_Node000009"><a xlink:href="classLGE_1_1Log.html#aa6f98018af29c23dd7f574d3df5dda5e" target="_top" xlink:title=" ">
<polygon fill="white" stroke="#666666" points="667.38,-251 581.62,-251 581.62,-231 667.38,-231 667.38,-251"/>
<text xml:space="preserve" text-anchor="middle" x="624.5" y="-237.5" font-family="Helvetica,sans-Serif" font-size="10.00">LGE::Log::Warn</text>
</a>
</g>
</g>
<!-- Node1&#45;&gt;Node9 -->
<g id="edge32_Node000001_Node000009" class="edge">
<title>Node1&#45;&gt;Node9</title>
<g id="a_edge32_Node000001_Node000009"><a xlink:title=" ">
<path fill="none" stroke="#63b8ff" d="M121.9,-293.5C135.82,-290.98 150.69,-288.35 164.5,-286 245.79,-272.2 265.77,-265.84 347.75,-257 424.75,-248.69 514.35,-244.5 570,-242.54"/>
<polygon fill="#63b8ff" stroke="#63b8ff" points="569.96,-246.04 579.84,-242.2 569.72,-239.04 569.96,-246.04"/>
</a>
</g>
</g>
<!-- Node10 -->
<g id="Node000010" class="node">
<title>Node10</title>
<g id="a_Node000010"><a xlink:href="namespaceLGE_1_1VFS.html#a5cea8543475162be752c71971f1f4e85" target="_top" xlink:title=" ">
<polygon fill="white" stroke="#666666" points="305.38,-121 170.88,-121 170.88,-89 305.38,-89 305.38,-121"/>
<text xml:space="preserve" text-anchor="start" x="178.88" y="-107.5" font-family="Helvetica,sans-Serif" font-size="10.00">LGE::VFS::InitializeDefault</text>
<text xml:space="preserve" text-anchor="middle" x="238.12" y="-95.5" font-family="Helvetica,sans-Serif" font-size="10.00">Mounts</text>
</a>
</g>
</g>
<!-- Node1&#45;&gt;Node10 -->
<g id="edge12_Node000001_Node000010" class="edge">
<title>Node1&#45;&gt;Node10</title>
<g id="a_edge12_Node000001_Node000010"><a xlink:title=" ">
<path fill="none" stroke="#63b8ff" d="M73.64,-293.81C90.6,-273.25 130.27,-225.41 164.5,-186 181.11,-166.87 200.26,-145.54 214.72,-129.58"/>
<polygon fill="#63b8ff" stroke="#63b8ff" points="217.08,-132.19 221.21,-122.43 211.9,-127.48 217.08,-132.19"/>
</a>
</g>
</g>
<!-- Node14 -->
<g id="Node000014" class="node">
<title>Node14</title>
<g id="a_Node000014"><a xlink:href="namespaceLGE_1_1PackageMgr.html#a4477becfa2c6a4400116b840de1382c4" target="_top" xlink:title=" ">
<polygon fill="white" stroke="#666666" points="311.75,-412 164.5,-412 164.5,-392 311.75,-392 311.75,-412"/>
<text xml:space="preserve" text-anchor="middle" x="238.12" y="-398.5" font-family="Helvetica,sans-Serif" font-size="10.00">LGE::PackageMgr::IsInstalled</text>
</a>
</g>
</g>
<!-- Node1&#45;&gt;Node14 -->
<g id="edge21_Node000001_Node000014" class="edge">
<title>Node1&#45;&gt;Node14</title>
<g id="a_edge21_Node000001_Node000014"><a xlink:title=" ">
<path fill="none" stroke="#63b8ff" d="M76.64,-314.45C94.28,-330.16 129.8,-359.94 164.5,-378 171.55,-381.67 179.26,-384.93 186.95,-387.78"/>
<polygon fill="#63b8ff" stroke="#63b8ff" points="185.71,-391.05 196.31,-391.03 188.01,-384.44 185.71,-391.05"/>
</a>
</g>
</g>
<!-- Node16 -->
<g id="Node000016" class="node">
<title>Node16</title>
<g id="a_Node000016"><a xlink:href="namespaceLGE_1_1PackageMgr.html#abe03679a0449f67f7d5ec4878b54a047" target="_top" xlink:title=" ">
<polygon fill="white" stroke="#666666" points="527.25,-488 347.75,-488 347.75,-468 527.25,-468 527.25,-488"/>
<text xml:space="preserve" text-anchor="middle" x="437.5" y="-474.5" font-family="Helvetica,sans-Serif" font-size="10.00">LGE::PackageMgr::SavePackageInfo</text>
</a>
</g>
</g>
<!-- Node1&#45;&gt;Node16 -->
<g id="edge26_Node000001_Node000016" class="edge">
<title>Node1&#45;&gt;Node16</title>
<g id="a_edge26_Node000001_Node000016"><a xlink:title=" ">
<path fill="none" stroke="#63b8ff" d="M70.85,-314.43C83.9,-337.67 118.72,-393.75 164.5,-421 216.17,-451.76 282,-466.08 335.96,-472.67"/>
<polygon fill="#63b8ff" stroke="#63b8ff" points="335.44,-476.14 345.78,-473.8 336.24,-469.18 335.44,-476.14"/>
</a>
</g>
</g>
<!-- Node17 -->
<g id="Node000017" class="node">
<title>Node17</title>
<g id="a_Node000017"><a xlink:href="namespaceLGE_1_1PackageMgr.html#a3fa0d2f3bb8ca09c531c8d2bf636251c" target="_top" xlink:title=" ">
<polygon fill="white" stroke="#666666" points="524.62,-412 350.38,-412 350.38,-392 524.62,-392 524.62,-412"/>
<text xml:space="preserve" text-anchor="middle" x="437.5" y="-398.5" font-family="Helvetica,sans-Serif" font-size="10.00">LGE::PackageMgr::VerifyChecksum</text>
</a>
</g>
</g>
<!-- Node1&#45;&gt;Node17 -->
<g id="edge29_Node000001_Node000017" class="edge">
<title>Node1&#45;&gt;Node17</title>
<g id="a_edge29_Node000001_Node000017"><a xlink:title=" ">
<path fill="none" stroke="#63b8ff" d="M91.51,-314.48C111.35,-322.17 139.38,-332.52 164.5,-340 244.68,-363.86 266.12,-364.69 347.75,-383 356.71,-385.01 366.2,-387.09 375.5,-389.1"/>
<polygon fill="#63b8ff" stroke="#63b8ff" points="374.71,-392.52 385.23,-391.2 376.19,-385.67 374.71,-392.52"/>
</a>
</g>
</g>
<!-- Node3 -->
<g id="Node000003" class="node">
<title>Node3</title>
<g id="a_Node000003"><a xlink:href="classLGE_1_1Log.html#a53f3f4b8797ffd18145739c9e66d690a" target="_top" xlink:title=" ">
<polygon fill="white" stroke="#666666" points="964.5,-292 880.25,-292 880.25,-272 964.5,-272 964.5,-292"/>
<text xml:space="preserve" text-anchor="middle" x="922.38" y="-278.5" font-family="Helvetica,sans-Serif" font-size="10.00">LGE::Log::Error</text>
</a>
</g>
</g>
<!-- Node2&#45;&gt;Node3 -->
<g id="edge2_Node000002_Node000003" class="edge">
<title>Node2&#45;&gt;Node3</title>
<g id="a_edge2_Node000002_Node000003"><a xlink:title=" ">
<path fill="none" stroke="#63b8ff" d="M504.63,-282C601.41,-282 779.72,-282 868.41,-282"/>
<polygon fill="#63b8ff" stroke="#63b8ff" points="868.28,-285.5 878.28,-282 868.28,-278.5 868.28,-285.5"/>
</a>
</g>
</g>
<!-- Node4 -->
<g id="Node000004" class="node">
<title>Node4</title>
<g id="a_Node000004"><a xlink:href="namespaceLGE_1_1LxFile.html#a11e62876b312a11b881b484bb3a5ee71" target="_top" xlink:title=" ">
<polygon fill="white" stroke="#666666" points="675.25,-393 573.75,-393 573.75,-373 675.25,-373 675.25,-393"/>
<text xml:space="preserve" text-anchor="middle" x="624.5" y="-379.5" font-family="Helvetica,sans-Serif" font-size="10.00">LGE::LxFile::Exists</text>
</a>
</g>
</g>
<!-- Node2&#45;&gt;Node4 -->
<g id="edge3_Node000002_Node000004" class="edge">
<title>Node2&#45;&gt;Node4</title>
<g id="a_edge3_Node000002_Node000004"><a xlink:title=" ">
<path fill="none" stroke="#63b8ff" d="M468.64,-298.45C503.43,-317.45 560.26,-348.48 594.55,-367.19"/>
<polygon fill="#63b8ff" stroke="#63b8ff" points="592.63,-370.14 603.09,-371.86 595.99,-363.99 592.63,-370.14"/>
</a>
</g>
</g>
<!-- Node5 -->
<g id="Node000005" class="node">
<title>Node5</title>
<g id="a_Node000005"><a xlink:href="namespaceLGE_1_1LxPath.html#aefae4d45f84718077f5218f64d2f074c" target="_top" xlink:title=" ">
<polygon fill="white" stroke="#666666" points="685.75,-431 563.25,-431 563.25,-411 685.75,-411 685.75,-431"/>
<text xml:space="preserve" text-anchor="middle" x="624.5" y="-417.5" font-family="Helvetica,sans-Serif" font-size="10.00">LGE::LxPath::GetParent</text>
</a>
</g>
</g>
<!-- Node2&#45;&gt;Node5 -->
<g id="edge4_Node000002_Node000005" class="edge">
<title>Node2&#45;&gt;Node5</title>
<g id="a_edge4_Node000002_Node000005"><a xlink:title=" ">
<path fill="none" stroke="#63b8ff" d="M467.07,-298.25C485.63,-309.73 509.58,-326.35 527.25,-345 547.86,-366.75 539.52,-383.71 563.25,-402 564.77,-403.17 566.37,-404.28 568.02,-405.31"/>
<polygon fill="#63b8ff" stroke="#63b8ff" points="566.17,-408.29 576.65,-409.83 569.42,-402.09 566.17,-408.29"/>
</a>
</g>
</g>
<!-- Node2&#45;&gt;Node7 -->
<g id="edge7_Node000002_Node000007" class="edge">
<title>Node2&#45;&gt;Node7</title>
<g id="a_edge7_Node000002_Node000007"><a xlink:title=" ">
<path fill="none" stroke="#63b8ff" d="M472.01,-265.58C497.05,-253.38 532.19,-236.43 563.25,-222 571.66,-218.1 580.76,-213.96 589.29,-210.14"/>
<polygon fill="#63b8ff" stroke="#63b8ff" points="590.6,-213.39 598.3,-206.11 587.74,-207 590.6,-213.39"/>
</a>
</g>
</g>
<!-- Node2&#45;&gt;Node8 -->
<g id="edge8_Node000002_Node000008" class="edge">
<title>Node2&#45;&gt;Node8</title>
<g id="a_edge8_Node000002_Node000008"><a xlink:title=" ">
<path fill="none" stroke="#63b8ff" d="M504.77,-297.76C525.58,-302.71 548.32,-308.12 568.28,-312.87"/>
<polygon fill="#63b8ff" stroke="#63b8ff" points="567.35,-316.24 577.89,-315.15 568.97,-309.43 567.35,-316.24"/>
</a>
</g>
</g>
<!-- Node2&#45;&gt;Node9 -->
<g id="edge10_Node000002_Node000009" class="edge">
<title>Node2&#45;&gt;Node9</title>
<g id="a_edge10_Node000002_Node000009"><a xlink:title=" ">
<path fill="none" stroke="#63b8ff" d="M504.77,-267.31C526.29,-262.54 549.87,-257.32 570.31,-252.79"/>
<polygon fill="#63b8ff" stroke="#63b8ff" points="570.83,-256.26 579.83,-250.68 569.31,-249.42 570.83,-256.26"/>
</a>
</g>
</g>
<!-- Node6 -->
<g id="Node000006" class="node">
<title>Node6</title>
<g id="a_Node000006"><a xlink:href="namespaceLGE_1_1LxPath.html#a314a60ce690c90f4ee0b4e64c0199408" target="_top" xlink:title=" ">
<polygon fill="white" stroke="#666666" points="844.25,-333 721.75,-333 721.75,-313 844.25,-313 844.25,-333"/>
<text xml:space="preserve" text-anchor="middle" x="783" y="-319.5" font-family="Helvetica,sans-Serif" font-size="10.00">LGE::LxPath::Normalize</text>
</a>
</g>
</g>
<!-- Node5&#45;&gt;Node6 -->
<g id="edge5_Node000005_Node000006" class="edge">
<title>Node5&#45;&gt;Node6</title>
<g id="a_edge5_Node000005_Node000006"><a xlink:title=" ">
<path fill="none" stroke="#63b8ff" d="M665.92,-410.61C672.73,-408.2 679.58,-405.34 685.75,-402 715.97,-385.63 745.78,-359.13 764.03,-341.39"/>
<polygon fill="#63b8ff" stroke="#63b8ff" points="766.3,-344.06 770.94,-334.53 761.37,-339.09 766.3,-344.06"/>
</a>
</g>
</g>
<!-- Node6&#45;&gt;Node3 -->
<g id="edge6_Node000006_Node000003" class="edge">
<title>Node6&#45;&gt;Node3</title>
<g id="a_edge6_Node000006_Node000003"><a xlink:title=" ">
<path fill="none" stroke="#63b8ff" d="M819.02,-312.55C836.22,-307.42 857.15,-301.17 875.6,-295.66"/>
<polygon fill="#63b8ff" stroke="#63b8ff" points="876.39,-299.08 884.97,-292.87 874.38,-292.37 876.39,-299.08"/>
</a>
</g>
</g>
<!-- Node8&#45;&gt;Node6 -->
<g id="edge9_Node000008_Node000006" class="edge">
<title>Node8&#45;&gt;Node6</title>
<g id="a_edge9_Node000008_Node000006"><a xlink:title=" ">
<path fill="none" stroke="#63b8ff" d="M672.88,-325.09C684.59,-324.87 697.4,-324.62 709.99,-324.38"/>
<polygon fill="#63b8ff" stroke="#63b8ff" points="710.01,-327.88 719.94,-324.19 709.87,-320.88 710.01,-327.88"/>
</a>
</g>
</g>
<!-- Node10&#45;&gt;Node3 -->
<g id="edge13_Node000010_Node000003" class="edge">
<title>Node10&#45;&gt;Node3</title>
<g id="a_edge13_Node000010_Node000003"><a xlink:title=" ">
<path fill="none" stroke="#63b8ff" d="M276,-88.62C296.65,-80.34 323.13,-71.18 347.75,-67 566.63,-29.82 672.65,18.87 844.25,-122 888.4,-158.25 909.04,-225.82 917.08,-260.4"/>
<polygon fill="#63b8ff" stroke="#63b8ff" points="913.63,-261.01 919.17,-270.05 920.47,-259.53 913.63,-261.01"/>
</a>
</g>
</g>
<!-- Node10&#45;&gt;Node7 -->
<g id="edge14_Node000010_Node000007" class="edge">
<title>Node10&#45;&gt;Node7</title>
<g id="a_edge14_Node000010_Node000007"><a xlink:title=" ">
<path fill="none" stroke="#63b8ff" d="M281.48,-121.48C301.38,-128.79 325.55,-137.06 347.75,-143 425.3,-163.75 517.26,-179.33 572.95,-187.8"/>
<polygon fill="#63b8ff" stroke="#63b8ff" points="572.36,-191.25 582.77,-189.28 573.4,-184.33 572.36,-191.25"/>
</a>
</g>
</g>
<!-- Node11 -->
<g id="Node000011" class="node">
<title>Node11</title>
<g id="a_Node000011"><a xlink:href="namespaceLGE_1_1LxFS.html#a5684a30f3fa2906f4dafed0258a79166" target="_top" xlink:title=" ">
<polygon fill="white" stroke="#666666" points="497.62,-20 377.38,-20 377.38,0 497.62,0 497.62,-20"/>
<text xml:space="preserve" text-anchor="middle" x="437.5" y="-6.5" font-family="Helvetica,sans-Serif" font-size="10.00">LGE::LxFS::IsInitialized</text>
</a>
</g>
</g>
<!-- Node10&#45;&gt;Node11 -->
<g id="edge15_Node000010_Node000011" class="edge">
<title>Node10&#45;&gt;Node11</title>
<g id="a_edge15_Node000010_Node000011"><a xlink:title=" ">
<path fill="none" stroke="#63b8ff" d="M259.62,-88.76C280.65,-72.8 314.86,-48.75 347.75,-34 356.74,-29.97 366.56,-26.48 376.29,-23.52"/>
<polygon fill="#63b8ff" stroke="#63b8ff" points="377.08,-26.93 385.72,-20.81 375.14,-20.21 377.08,-26.93"/>
</a>
</g>
</g>
<!-- Node12 -->
<g id="Node000012" class="node">
<title>Node12</title>
<g id="a_Node000012"><a xlink:href="namespaceLGE_1_1VFS.html#a54b012d377481aa3685b372a196259ed" target="_top" xlink:title=" ">
<polygon fill="white" stroke="#666666" points="494.62,-96 380.38,-96 380.38,-76 494.62,-76 494.62,-96"/>
<text xml:space="preserve" text-anchor="middle" x="437.5" y="-82.5" font-family="Helvetica,sans-Serif" font-size="10.00">LGE::VFS::MountPath</text>
</a>
</g>
</g>
<!-- Node10&#45;&gt;Node12 -->
<g id="edge16_Node000010_Node000012" class="edge">
<title>Node10&#45;&gt;Node12</title>
<g id="a_edge16_Node000010_Node000012"><a xlink:title=" ">
<path fill="none" stroke="#63b8ff" d="M305.67,-98.59C325.97,-96.64 348.31,-94.49 368.7,-92.53"/>
<polygon fill="#63b8ff" stroke="#63b8ff" points="368.99,-96.01 378.61,-91.57 368.32,-89.05 368.99,-96.01"/>
</a>
</g>
</g>
<!-- Node13 -->
<g id="Node000013" class="node">
<title>Node13</title>
<g id="a_Node000013"><a xlink:href="namespaceLGE_1_1LxFS.html#a12aeb6699602f14153953dceb4284914" target="_top" xlink:title=" ">
<polygon fill="white" stroke="#666666" points="485.62,-134 389.38,-134 389.38,-114 485.62,-114 485.62,-134"/>
<text xml:space="preserve" text-anchor="middle" x="437.5" y="-120.5" font-family="Helvetica,sans-Serif" font-size="10.00">LGE::LxFS::Paths</text>
</a>
</g>
</g>
<!-- Node10&#45;&gt;Node13 -->
<g id="edge20_Node000010_Node000013" class="edge">
<title>Node10&#45;&gt;Node13</title>
<g id="a_edge20_Node000010_Node000013"><a xlink:title=" ">
<path fill="none" stroke="#63b8ff" d="M305.67,-111.41C329.03,-113.65 355.09,-116.16 377.76,-118.35"/>
<polygon fill="#63b8ff" stroke="#63b8ff" points="377.14,-121.8 387.43,-119.28 377.81,-114.83 377.14,-121.8"/>
</a>
</g>
</g>
<!-- Node12&#45;&gt;Node3 -->
<g id="edge17_Node000012_Node000003" class="edge">
<title>Node12&#45;&gt;Node3</title>
<g id="a_edge17_Node000012_Node000003"><a xlink:title=" ">
<path fill="none" stroke="#63b8ff" d="M494.91,-83.15C546.31,-82.46 623.48,-86.3 685.75,-110 778.65,-145.36 867.6,-227.6 904.05,-264.05"/>
<polygon fill="#63b8ff" stroke="#63b8ff" points="901.2,-266.15 910.72,-270.81 906.19,-261.23 901.2,-266.15"/>
</a>
</g>
</g>
<!-- Node12&#45;&gt;Node6 -->
<g id="edge19_Node000012_Node000006" class="edge">
<title>Node12&#45;&gt;Node6</title>
<g id="a_edge19_Node000012_Node000006"><a xlink:title=" ">
<path fill="none" stroke="#63b8ff" d="M495.06,-94.83C549.26,-105.79 630.75,-129.09 685.75,-176 727.94,-211.98 758.74,-270.98 773.06,-302.17"/>
<polygon fill="#63b8ff" stroke="#63b8ff" points="769.85,-303.56 777.11,-311.27 776.24,-300.71 769.85,-303.56"/>
</a>
</g>
</g>
<!-- Node12&#45;&gt;Node7 -->
<g id="edge18_Node000012_Node000007" class="edge">
<title>Node12&#45;&gt;Node7</title>
<g id="a_edge18_Node000012_Node000007"><a xlink:title=" ">
<path fill="none" stroke="#63b8ff" d="M494.79,-91.04C506.24,-93.93 517.69,-98.33 527.25,-105 551.82,-122.14 541.41,-141.48 563.25,-162 570.43,-168.75 579.26,-174.58 587.92,-179.38"/>
<polygon fill="#63b8ff" stroke="#63b8ff" points="586.06,-182.36 596.55,-183.85 589.28,-176.15 586.06,-182.36"/>
</a>
</g>
</g>
<!-- Node14&#45;&gt;Node4 -->
<g id="edge22_Node000014_Node000004" class="edge">
<title>Node14&#45;&gt;Node4</title>
<g id="a_edge22_Node000014_Node000004"><a xlink:title=" ">
<path fill="none" stroke="#63b8ff" d="M279.9,-412.41C336.36,-425.08 441.12,-442.33 527.25,-421 544.81,-416.65 546.56,-408.97 563.25,-402 567.35,-400.29 571.65,-398.65 576,-397.09"/>
<polygon fill="#63b8ff" stroke="#63b8ff" points="577.03,-400.44 585.37,-393.9 574.77,-393.81 577.03,-400.44"/>
</a>
</g>
</g>
<!-- Node15 -->
<g id="Node000015" class="node">
<title>Node15</title>
<g id="a_Node000015"><a xlink:href="namespaceLGE_1_1PackageMgr.html#af9777ef900622c9d1604a6c8dc27559c" target="_top" xlink:title=" ">
<polygon fill="white" stroke="#666666" points="525.75,-374 349.25,-374 349.25,-354 525.75,-354 525.75,-374"/>
<text xml:space="preserve" text-anchor="middle" x="437.5" y="-360.5" font-family="Helvetica,sans-Serif" font-size="10.00">LGE::PackageMgr::GetPackagePath</text>
</a>
</g>
</g>
<!-- Node14&#45;&gt;Node15 -->
<g id="edge23_Node000014_Node000015" class="edge">
<title>Node14&#45;&gt;Node15</title>
<g id="a_edge23_Node000014_Node000015"><a xlink:title=" ">
<path fill="none" stroke="#63b8ff" d="M293.58,-391.52C317.53,-386.91 345.85,-381.45 370.95,-376.62"/>
<polygon fill="#63b8ff" stroke="#63b8ff" points="371.58,-380.06 380.74,-374.74 370.25,-373.19 371.58,-380.06"/>
</a>
</g>
</g>
<!-- Node15&#45;&gt;Node8 -->
<g id="edge24_Node000015_Node000008" class="edge">
<title>Node15&#45;&gt;Node8</title>
<g id="a_edge24_Node000015_Node000008"><a xlink:title=" ">
<path fill="none" stroke="#63b8ff" d="M489.54,-353.52C512.9,-348.72 540.71,-343.01 564.92,-338.03"/>
<polygon fill="#63b8ff" stroke="#63b8ff" points="565.54,-341.48 574.63,-336.04 564.13,-334.62 565.54,-341.48"/>
</a>
</g>
</g>
<!-- Node16&#45;&gt;Node3 -->
<g id="edge27_Node000016_Node000003" class="edge">
<title>Node16&#45;&gt;Node3</title>
<g id="a_edge27_Node000016_Node000003"><a xlink:title=" ">
<path fill="none" stroke="#63b8ff" d="M527.62,-472.96C575.63,-468.12 635.22,-458.62 685.75,-440 775.17,-407.04 864.02,-333.65 902.08,-299.77"/>
<polygon fill="#63b8ff" stroke="#63b8ff" points="904.02,-302.73 909.11,-293.43 899.34,-297.53 904.02,-302.73"/>
</a>
</g>
</g>
<!-- Node16&#45;&gt;Node5 -->
<g id="edge28_Node000016_Node000005" class="edge">
<title>Node16&#45;&gt;Node5</title>
<g id="a_edge28_Node000016_Node000005"><a xlink:title=" ">
<path fill="none" stroke="#63b8ff" d="M479.31,-467.57C494.43,-463.55 511.68,-458.77 527.25,-454 545.95,-448.27 566.49,-441.32 583.77,-435.28"/>
<polygon fill="#63b8ff" stroke="#63b8ff" points="584.9,-438.59 593.17,-431.97 582.58,-431.99 584.9,-438.59"/>
</a>
</g>
</g>
<!-- Node17&#45;&gt;Node4 -->
<g id="edge30_Node000017_Node000004" class="edge">
<title>Node17&#45;&gt;Node4</title>
<g id="a_edge30_Node000017_Node000004"><a xlink:title=" ">
<path fill="none" stroke="#63b8ff" d="M525.04,-393.11C537.58,-391.82 550.27,-390.52 562.18,-389.3"/>
<polygon fill="#63b8ff" stroke="#63b8ff" points="562.23,-392.81 571.82,-388.31 561.52,-385.85 562.23,-392.81"/>
</a>
</g>
</g>
<!-- Node17&#45;&gt;Node8 -->
<g id="edge31_Node000017_Node000008" class="edge">
<title>Node17&#45;&gt;Node8</title>
<g id="a_edge31_Node000017_Node000008"><a xlink:title=" ">
<path fill="none" stroke="#63b8ff" d="M499.9,-391.58C509.21,-389.22 518.59,-386.39 527.25,-383 541.43,-377.45 574.35,-357.32 597.73,-342.55"/>
<polygon fill="#63b8ff" stroke="#63b8ff" points="599.55,-345.53 606.11,-337.22 595.8,-339.63 599.55,-345.53"/>
</a>
</g>
</g>
</g>
</svg>
