<?xml version="1.0" encoding="UTF-8" standalone="no"?>
<!DOCTYPE svg PUBLIC "-//W3C//DTD SVG 1.1//EN"
 "http://www.w3.org/Graphics/SVG/1.1/DTD/svg11.dtd">
<!-- Generated by graphviz version 14.0.2 (20251019.1705)
 -->
<!-- Title: LGE::Streaming::OpenStream Pages: 1 -->
<svg width="349pt" height="78pt"
 viewBox="0.00 0.00 349.00 78.00" xmlns="http://www.w3.org/2000/svg" xmlns:xlink="http://www.w3.org/1999/xlink">
<g id="graph0" class="graph" transform="scale(1 1) rotate(0) translate(4 74)">
<title>LGE::Streaming::OpenStream</title>
<!-- Node1 -->
<g id="Node000001" class="node">
<title>Node1</title>
<g id="a_Node000001"><a xlink:title=" ">
<polygon fill="#999999" stroke="#666666" points="341,-48 194.5,-48 194.5,-28 341,-28 341,-48"/>
<text xml:space="preserve" text-anchor="middle" x="267.75" y="-34.5" font-family="Helvetica,sans-Serif" font-size="10.00">LGE::Streaming::OpenStream</text>
</a>
</g>
</g>
<!-- Node2 -->
<g id="Node000002" class="node">
<title>Node2</title>
<g id="a_Node000002"><a xlink:href="namespaceLGE_1_1Streaming.html#a8d0c3ddc6ff320e2043bb8d25dffb61f" target="_top" xlink:title=" ">
<polygon fill="white" stroke="#666666" points="158.5,-70 0,-70 0,-50 158.5,-50 158.5,-70"/>
<text xml:space="preserve" text-anchor="middle" x="79.25" y="-56.5" font-family="Helvetica,sans-Serif" font-size="10.00">LGE::Streaming::PreloadChunks</text>
</a>
</g>
</g>
<!-- Node1&#45;&gt;Node2 -->
<g id="edge1_Node000001_Node000002" class="edge">
<title>Node1&#45;&gt;Node2</title>
<g id="a_edge1_Node000001_Node000002"><a xlink:title=" ">
<path fill="none" stroke="#63b8ff" d="M182.89,-47.89C174.9,-48.84 166.81,-49.79 158.86,-50.73"/>
<polygon fill="#63b8ff" stroke="#63b8ff" points="183.09,-51.39 192.61,-46.75 182.27,-44.44 183.09,-51.39"/>
</a>
</g>
</g>
<!-- Node3 -->
<g id="Node000003" class="node">
<title>Node3</title>
<g id="a_Node000003"><a xlink:href="namespaceLGE_1_1Streaming.html#acd70e0a9739291db1ad32377d7bbf24d" target="_top" xlink:title=" ">
<polygon fill="white" stroke="#666666" points="153.62,-32 4.88,-32 4.88,0 153.62,0 153.62,-32"/>
<text xml:space="preserve" text-anchor="start" x="12.88" y="-18.5" font-family="Helvetica,sans-Serif" font-size="10.00">LGE::Streaming::StreamAsset</text>
<text xml:space="preserve" text-anchor="middle" x="79.25" y="-6.5" font-family="Helvetica,sans-Serif" font-size="10.00">ToCallback</text>
</a>
</g>
</g>
<!-- Node1&#45;&gt;Node3 -->
<g id="edge2_Node000001_Node000003" class="edge">
<title>Node1&#45;&gt;Node3</title>
<g id="a_edge2_Node000001_Node000003"><a xlink:title=" ">
<path fill="none" stroke="#63b8ff" d="M182.87,-28.1C173.21,-26.97 163.42,-25.81 153.92,-24.69"/>
<polygon fill="#63b8ff" stroke="#63b8ff" points="182.27,-31.56 192.61,-29.25 183.09,-24.61 182.27,-31.56"/>
</a>
</g>
</g>
</g>
</svg>
