<?xml version="1.0" encoding="UTF-8" standalone="no"?>
<!DOCTYPE svg PUBLIC "-//W3C//DTD SVG 1.1//EN"
 "http://www.w3.org/Graphics/SVG/1.1/DTD/svg11.dtd">
<!-- Generated by graphviz version 14.0.2 (20251019.1705)
 -->
<!-- Title: LGE::Cache::Remove Pages: 1 -->
<svg width="1016pt" height="253pt"
 viewBox="0.00 0.00 1016.00 253.00" xmlns="http://www.w3.org/2000/svg" xmlns:xlink="http://www.w3.org/1999/xlink">
<g id="graph0" class="graph" transform="scale(1 1) rotate(0) translate(4 248.88)">
<title>LGE::Cache::Remove</title>
<!-- Node1 -->
<g id="Node000001" class="node">
<title>Node1</title>
<g id="a_Node000001"><a xlink:title=" ">
<polygon fill="#999999" stroke="#666666" points="112.75,-115 0,-115 0,-95 112.75,-95 112.75,-115"/>
<text xml:space="preserve" text-anchor="middle" x="56.38" y="-101.5" font-family="Helvetica,sans-Serif" font-size="10.00">LGE::Cache::Remove</text>
</a>
</g>
</g>
<!-- Node2 -->
<g id="Node000002" class="node">
<title>Node2</title>
<g id="a_Node000002"><a xlink:href="namespaceLGE_1_1LxFile.html#a495ab310e479d036634c3628390f80a0" target="_top" xlink:title=" ">
<polygon fill="white" stroke="#666666" points="251,-134 148.75,-134 148.75,-114 251,-114 251,-134"/>
<text xml:space="preserve" text-anchor="middle" x="199.88" y="-120.5" font-family="Helvetica,sans-Serif" font-size="10.00">LGE::LxFile::Delete</text>
</a>
</g>
</g>
<!-- Node1&#45;&gt;Node2 -->
<g id="edge1_Node000001_Node000002" class="edge">
<title>Node1&#45;&gt;Node2</title>
<g id="a_edge1_Node000001_Node000002"><a xlink:title=" ">
<path fill="none" stroke="#63b8ff" d="M112.89,-112.45C120.89,-113.53 129.16,-114.64 137.27,-115.73"/>
<polygon fill="#63b8ff" stroke="#63b8ff" points="136.71,-119.18 147.08,-117.05 137.64,-112.25 136.71,-119.18"/>
</a>
</g>
</g>
<!-- Node12 -->
<g id="Node000012" class="node">
<title>Node12</title>
<g id="a_Node000012"><a xlink:href="namespaceLGE_1_1LxFile.html#a11e62876b312a11b881b484bb3a5ee71" target="_top" xlink:title=" ">
<polygon fill="white" stroke="#666666" points="250.62,-96 149.12,-96 149.12,-76 250.62,-76 250.62,-96"/>
<text xml:space="preserve" text-anchor="middle" x="199.88" y="-82.5" font-family="Helvetica,sans-Serif" font-size="10.00">LGE::LxFile::Exists</text>
</a>
</g>
</g>
<!-- Node1&#45;&gt;Node12 -->
<g id="edge17_Node000001_Node000012" class="edge">
<title>Node1&#45;&gt;Node12</title>
<g id="a_edge17_Node000001_Node000012"><a xlink:title=" ">
<path fill="none" stroke="#63b8ff" d="M112.89,-97.55C121.09,-96.44 129.57,-95.31 137.88,-94.19"/>
<polygon fill="#63b8ff" stroke="#63b8ff" points="138.09,-97.69 147.54,-92.89 137.16,-90.76 138.09,-97.69"/>
</a>
</g>
</g>
<!-- Node3 -->
<g id="Node000003" class="node">
<title>Node3</title>
<g id="a_Node000003"><a xlink:href="classLGE_1_1Log.html#a53f3f4b8797ffd18145739c9e66d690a" target="_top" xlink:title=" ">
<polygon fill="white" stroke="#666666" points="1007.5,-96 923.25,-96 923.25,-76 1007.5,-76 1007.5,-96"/>
<text xml:space="preserve" text-anchor="middle" x="965.38" y="-82.5" font-family="Helvetica,sans-Serif" font-size="10.00">LGE::Log::Error</text>
</a>
</g>
</g>
<!-- Node2&#45;&gt;Node3 -->
<g id="edge2_Node000002_Node000003" class="edge">
<title>Node2&#45;&gt;Node3</title>
<g id="a_edge2_Node000002_Node000003"><a xlink:title=" ">
<path fill="none" stroke="#63b8ff" d="M206.59,-134.32C218.5,-154.68 248.11,-199.7 287,-219 374.12,-262.23 407.74,-238 505,-238 505,-238 505,-238 667.75,-238 783.9,-238 900.27,-144.55 945.1,-104.2"/>
<polygon fill="#63b8ff" stroke="#63b8ff" points="947.44,-106.81 952.44,-97.47 942.71,-101.65 947.44,-106.81"/>
</a>
</g>
</g>
<!-- Node4 -->
<g id="Node000004" class="node">
<title>Node4</title>
<g id="a_Node000004"><a xlink:href="classLGE_1_1Log.html#ab0265ee050b8873a2fd31fbdb696ced0" target="_top" xlink:title=" ">
<polygon fill="white" stroke="#666666" points="387,-210 307.25,-210 307.25,-190 387,-190 387,-210"/>
<text xml:space="preserve" text-anchor="middle" x="347.12" y="-196.5" font-family="Helvetica,sans-Serif" font-size="10.00">LGE::Log::Info</text>
</a>
</g>
</g>
<!-- Node2&#45;&gt;Node4 -->
<g id="edge3_Node000002_Node000004" class="edge">
<title>Node2&#45;&gt;Node4</title>
<g id="a_edge3_Node000002_Node000004"><a xlink:title=" ">
<path fill="none" stroke="#63b8ff" d="M213.91,-134.29C230.22,-146.75 259.36,-167.72 287,-181 290.46,-182.66 294.1,-184.23 297.8,-185.69"/>
<polygon fill="#63b8ff" stroke="#63b8ff" points="296.29,-188.87 306.88,-189.03 298.7,-182.3 296.29,-188.87"/>
</a>
</g>
</g>
<!-- Node5 -->
<g id="Node000005" class="node">
<title>Node5</title>
<g id="a_Node000005"><a xlink:href="namespaceLGE_1_1LxFS.html#a5684a30f3fa2906f4dafed0258a79166" target="_top" xlink:title=" ">
<polygon fill="white" stroke="#666666" points="407.25,-172 287,-172 287,-152 407.25,-152 407.25,-172"/>
<text xml:space="preserve" text-anchor="middle" x="347.12" y="-158.5" font-family="Helvetica,sans-Serif" font-size="10.00">LGE::LxFS::IsInitialized</text>
</a>
</g>
</g>
<!-- Node2&#45;&gt;Node5 -->
<g id="edge4_Node000002_Node000005" class="edge">
<title>Node2&#45;&gt;Node5</title>
<g id="a_edge4_Node000002_Node000005"><a xlink:title=" ">
<path fill="none" stroke="#63b8ff" d="M240.95,-134.48C257.7,-138.87 277.36,-144.01 295.12,-148.66"/>
<polygon fill="#63b8ff" stroke="#63b8ff" points="294.16,-152.02 304.72,-151.17 295.93,-145.25 294.16,-152.02"/>
</a>
</g>
</g>
<!-- Node6 -->
<g id="Node000006" class="node">
<title>Node6</title>
<g id="a_Node000006"><a xlink:href="namespaceLGE_1_1VFS.html#abb5d35abfe80efe2f7a07394ad5b706a" target="_top" xlink:title=" ">
<polygon fill="white" stroke="#666666" points="565.38,-58 446.62,-58 446.62,-38 565.38,-38 565.38,-58"/>
<text xml:space="preserve" text-anchor="middle" x="506" y="-44.5" font-family="Helvetica,sans-Serif" font-size="10.00">LGE::VFS::IsReadOnly</text>
</a>
</g>
</g>
<!-- Node2&#45;&gt;Node6 -->
<g id="edge5_Node000002_Node000006" class="edge">
<title>Node2&#45;&gt;Node6</title>
<g id="a_edge5_Node000002_Node000006"><a xlink:title=" ">
<path fill="none" stroke="#63b8ff" d="M234.8,-113.54C240.43,-111.14 246.04,-108.3 251,-105 270.37,-92.11 266.05,-77.11 287,-67 332.95,-44.82 390.69,-40.68 435.2,-41.76"/>
<polygon fill="#63b8ff" stroke="#63b8ff" points="434.88,-45.25 445,-42.1 435.12,-38.26 434.88,-45.25"/>
</a>
</g>
</g>
<!-- Node9 -->
<g id="Node000009" class="node">
<title>Node9</title>
<g id="a_Node000009"><a xlink:href="namespaceLGE_1_1LxFS.html#a12aeb6699602f14153953dceb4284914" target="_top" xlink:title=" ">
<polygon fill="white" stroke="#666666" points="395.25,-96 299,-96 299,-76 395.25,-76 395.25,-96"/>
<text xml:space="preserve" text-anchor="middle" x="347.12" y="-82.5" font-family="Helvetica,sans-Serif" font-size="10.00">LGE::LxFS::Paths</text>
</a>
</g>
</g>
<!-- Node2&#45;&gt;Node9 -->
<g id="edge10_Node000002_Node000009" class="edge">
<title>Node2&#45;&gt;Node9</title>
<g id="a_edge10_Node000002_Node000009"><a xlink:title=" ">
<path fill="none" stroke="#63b8ff" d="M240.95,-113.52C257.7,-109.13 277.36,-103.99 295.12,-99.34"/>
<polygon fill="#63b8ff" stroke="#63b8ff" points="295.93,-102.75 304.72,-96.83 294.16,-95.98 295.93,-102.75"/>
</a>
</g>
</g>
<!-- Node10 -->
<g id="Node000010" class="node">
<title>Node10</title>
<g id="a_Node000010"><a xlink:href="namespaceLGE_1_1VFS.html#aee891612cc393155878775a61e486c0b" target="_top" xlink:title=" ">
<polygon fill="white" stroke="#666666" points="568.75,-134 443.25,-134 443.25,-114 568.75,-114 568.75,-134"/>
<text xml:space="preserve" text-anchor="middle" x="506" y="-120.5" font-family="Helvetica,sans-Serif" font-size="10.00">LGE::VFS::ToVirtualPath</text>
</a>
</g>
</g>
<!-- Node2&#45;&gt;Node10 -->
<g id="edge11_Node000002_Node000010" class="edge">
<title>Node2&#45;&gt;Node10</title>
<g id="a_edge11_Node000002_Node000010"><a xlink:title=" ">
<path fill="none" stroke="#63b8ff" d="M251.44,-124C300.66,-124 376,-124 431.77,-124"/>
<polygon fill="#63b8ff" stroke="#63b8ff" points="431.49,-127.5 441.49,-124 431.49,-120.5 431.49,-127.5"/>
</a>
</g>
</g>
<!-- Node11 -->
<g id="Node000011" class="node">
<title>Node11</title>
<g id="a_Node000011"><a xlink:href="namespaceLGE_1_1LxFile.html#a06d0b8c5590da8bc48cf22d321fc4074" target="_top" xlink:title=" ">
<polygon fill="white" stroke="#666666" points="400.88,-20 293.38,-20 293.38,0 400.88,0 400.88,-20"/>
<text xml:space="preserve" text-anchor="middle" x="347.12" y="-6.5" font-family="Helvetica,sans-Serif" font-size="10.00">LGE::LxFile::WriteAll</text>
</a>
</g>
</g>
<!-- Node2&#45;&gt;Node11 -->
<g id="edge14_Node000002_Node000011" class="edge">
<title>Node2&#45;&gt;Node11</title>
<g id="a_edge14_Node000002_Node000011"><a xlink:title=" ">
<path fill="none" stroke="#63b8ff" d="M238.01,-113.58C242.71,-111.25 247.19,-108.42 251,-105 277.32,-81.36 260.96,-57.95 287,-34 290.49,-30.79 294.46,-27.99 298.65,-25.54"/>
<polygon fill="#63b8ff" stroke="#63b8ff" points="300.03,-28.77 307.38,-21.14 296.87,-22.52 300.03,-28.77"/>
</a>
</g>
</g>
<!-- Node7 -->
<g id="Node000007" class="node">
<title>Node7</title>
<g id="a_Node000007"><a xlink:href="namespaceLGE_1_1LxPath.html#ab664986e94ce09aa029f9eb2fcf50133" target="_top" xlink:title=" ">
<polygon fill="white" stroke="#666666" points="728.75,-96 604.75,-96 604.75,-76 728.75,-76 728.75,-96"/>
<text xml:space="preserve" text-anchor="middle" x="666.75" y="-82.5" font-family="Helvetica,sans-Serif" font-size="10.00">LGE::LxPath::IsSubPath</text>
</a>
</g>
</g>
<!-- Node6&#45;&gt;Node7 -->
<g id="edge6_Node000006_Node000007" class="edge">
<title>Node6&#45;&gt;Node7</title>
<g id="a_edge6_Node000006_Node000007"><a xlink:title=" ">
<path fill="none" stroke="#63b8ff" d="M550.8,-58.48C569.45,-62.95 591.41,-68.21 611.11,-72.92"/>
<polygon fill="#63b8ff" stroke="#63b8ff" points="610.08,-76.27 620.62,-75.2 611.71,-69.47 610.08,-76.27"/>
</a>
</g>
</g>
<!-- Node8 -->
<g id="Node000008" class="node">
<title>Node8</title>
<g id="a_Node000008"><a xlink:href="namespaceLGE_1_1LxPath.html#a314a60ce690c90f4ee0b4e64c0199408" target="_top" xlink:title=" ">
<polygon fill="white" stroke="#666666" points="887.25,-96 764.75,-96 764.75,-76 887.25,-76 887.25,-96"/>
<text xml:space="preserve" text-anchor="middle" x="826" y="-82.5" font-family="Helvetica,sans-Serif" font-size="10.00">LGE::LxPath::Normalize</text>
</a>
</g>
</g>
<!-- Node6&#45;&gt;Node8 -->
<g id="edge9_Node000006_Node000008" class="edge">
<title>Node6&#45;&gt;Node8</title>
<g id="a_edge9_Node000006_Node000008"><a xlink:title=" ">
<path fill="none" stroke="#63b8ff" d="M565.56,-51.26C610.38,-54.19 673.66,-59.23 728.75,-67 741.02,-68.73 754.08,-71.01 766.5,-73.39"/>
<polygon fill="#63b8ff" stroke="#63b8ff" points="765.72,-76.8 776.2,-75.3 767.07,-69.93 765.72,-76.8"/>
</a>
</g>
</g>
<!-- Node7&#45;&gt;Node8 -->
<g id="edge7_Node000007_Node000008" class="edge">
<title>Node7&#45;&gt;Node8</title>
<g id="a_edge7_Node000007_Node000008"><a xlink:title=" ">
<path fill="none" stroke="#63b8ff" d="M729,-86C736.91,-86 745.07,-86 753.13,-86"/>
<polygon fill="#63b8ff" stroke="#63b8ff" points="752.92,-89.5 762.92,-86 752.92,-82.5 752.92,-89.5"/>
</a>
</g>
</g>
<!-- Node8&#45;&gt;Node3 -->
<g id="edge8_Node000008_Node000003" class="edge">
<title>Node8&#45;&gt;Node3</title>
<g id="a_edge8_Node000008_Node000003"><a xlink:title=" ">
<path fill="none" stroke="#63b8ff" d="M887.65,-86C895.67,-86 903.84,-86 911.7,-86"/>
<polygon fill="#63b8ff" stroke="#63b8ff" points="911.45,-89.5 921.45,-86 911.45,-82.5 911.45,-89.5"/>
</a>
</g>
</g>
<!-- Node10&#45;&gt;Node7 -->
<g id="edge12_Node000010_Node000007" class="edge">
<title>Node10&#45;&gt;Node7</title>
<g id="a_edge12_Node000010_Node000007"><a xlink:title=" ">
<path fill="none" stroke="#63b8ff" d="M550.8,-113.52C569.45,-109.05 591.41,-103.79 611.11,-99.08"/>
<polygon fill="#63b8ff" stroke="#63b8ff" points="611.71,-102.53 620.62,-96.8 610.08,-95.73 611.71,-102.53"/>
</a>
</g>
</g>
<!-- Node10&#45;&gt;Node8 -->
<g id="edge13_Node000010_Node000008" class="edge">
<title>Node10&#45;&gt;Node8</title>
<g id="a_edge13_Node000010_Node000008"><a xlink:title=" ">
<path fill="none" stroke="#63b8ff" d="M568.86,-120.52C613.45,-117.57 674.99,-112.59 728.75,-105 741.02,-103.27 754.08,-100.99 766.5,-98.61"/>
<polygon fill="#63b8ff" stroke="#63b8ff" points="767.07,-102.07 776.2,-96.7 765.72,-95.2 767.07,-102.07"/>
</a>
</g>
</g>
<!-- Node11&#45;&gt;Node3 -->
<g id="edge15_Node000011_Node000003" class="edge">
<title>Node11&#45;&gt;Node3</title>
<g id="a_edge15_Node000011_Node000003"><a xlink:title=" ">
<path fill="none" stroke="#63b8ff" d="M401.3,-12.98C498.45,-19 710.85,-34.87 887.25,-67 896.32,-68.65 905.91,-70.74 915.13,-72.91"/>
<polygon fill="#63b8ff" stroke="#63b8ff" points="914.12,-76.27 924.66,-75.24 915.77,-69.47 914.12,-76.27"/>
</a>
</g>
</g>
<!-- Node11&#45;&gt;Node6 -->
<g id="edge16_Node000011_Node000006" class="edge">
<title>Node11&#45;&gt;Node6</title>
<g id="a_edge16_Node000011_Node000006"><a xlink:title=" ">
<path fill="none" stroke="#63b8ff" d="M391.41,-20.48C409.75,-24.93 431.34,-30.16 450.73,-34.85"/>
<polygon fill="#63b8ff" stroke="#63b8ff" points="449.85,-38.24 460.39,-37.19 451.49,-31.44 449.85,-38.24"/>
</a>
</g>
</g>
</g>
</svg>
