<?xml version="1.0" encoding="UTF-8" standalone="no"?>
<!DOCTYPE svg PUBLIC "-//W3C//DTD SVG 1.1//EN"
 "http://www.w3.org/Graphics/SVG/1.1/DTD/svg11.dtd">
<!-- Generated by graphviz version 14.0.2 (20251019.1705)
 -->
<!-- Title: LGE::LxFile::WriteAll Pages: 1 -->
<svg width="709pt" height="60pt"
 viewBox="0.00 0.00 709.00 60.00" xmlns="http://www.w3.org/2000/svg" xmlns:xlink="http://www.w3.org/1999/xlink">
<g id="graph0" class="graph" transform="scale(1 1) rotate(0) translate(4 56.07)">
<title>LGE::LxFile::WriteAll</title>
<!-- Node1 -->
<g id="Node000001" class="node">
<title>Node1</title>
<g id="a_Node000001"><a xlink:title=" ">
<polygon fill="#999999" stroke="#666666" points="107.5,-52.07 0,-52.07 0,-32.07 107.5,-32.07 107.5,-52.07"/>
<text xml:space="preserve" text-anchor="middle" x="53.75" y="-38.57" font-family="Helvetica,sans-Serif" font-size="10.00">LGE::LxFile::WriteAll</text>
</a>
</g>
</g>
<!-- Node2 -->
<g id="Node000002" class="node">
<title>Node2</title>
<g id="a_Node000002"><a xlink:href="classLGE_1_1Log.html#a53f3f4b8797ffd18145739c9e66d690a" target="_top" xlink:title=" ">
<polygon fill="white" stroke="#666666" points="701,-52.07 616.75,-52.07 616.75,-32.07 701,-32.07 701,-52.07"/>
<text xml:space="preserve" text-anchor="middle" x="658.88" y="-38.57" font-family="Helvetica,sans-Serif" font-size="10.00">LGE::Log::Error</text>
</a>
</g>
</g>
<!-- Node1&#45;&gt;Node2 -->
<g id="edge1_Node000001_Node000002" class="edge">
<title>Node1&#45;&gt;Node2</title>
<g id="a_edge1_Node000001_Node000002"><a xlink:title=" ">
<path fill="none" stroke="#63b8ff" d="M107.74,-42.07C222.1,-42.07 490.89,-42.07 605.08,-42.07"/>
<polygon fill="#63b8ff" stroke="#63b8ff" points="604.77,-45.57 614.77,-42.07 604.77,-38.57 604.77,-45.57"/>
</a>
</g>
</g>
<!-- Node3 -->
<g id="Node000003" class="node">
<title>Node3</title>
<g id="a_Node000003"><a xlink:href="namespaceLGE_1_1VFS.html#abb5d35abfe80efe2f7a07394ad5b706a" target="_top" xlink:title=" ">
<polygon fill="white" stroke="#666666" points="262.25,-33.07 143.5,-33.07 143.5,-13.07 262.25,-13.07 262.25,-33.07"/>
<text xml:space="preserve" text-anchor="middle" x="202.88" y="-19.57" font-family="Helvetica,sans-Serif" font-size="10.00">LGE::VFS::IsReadOnly</text>
</a>
</g>
</g>
<!-- Node1&#45;&gt;Node3 -->
<g id="edge2_Node000001_Node000003" class="edge">
<title>Node1&#45;&gt;Node3</title>
<g id="a_edge2_Node000001_Node000003"><a xlink:title=" ">
<path fill="none" stroke="#63b8ff" d="M107.87,-35.21C115.64,-34.21 123.75,-33.16 131.8,-32.12"/>
<polygon fill="#63b8ff" stroke="#63b8ff" points="132.14,-35.61 141.61,-30.86 131.24,-28.67 132.14,-35.61"/>
</a>
</g>
</g>
<!-- Node4 -->
<g id="Node000004" class="node">
<title>Node4</title>
<g id="a_Node000004"><a xlink:href="namespaceLGE_1_1LxPath.html#ab664986e94ce09aa029f9eb2fcf50133" target="_top" xlink:title=" ">
<polygon fill="white" stroke="#666666" points="422.25,-33.07 298.25,-33.07 298.25,-13.07 422.25,-13.07 422.25,-33.07"/>
<text xml:space="preserve" text-anchor="middle" x="360.25" y="-19.57" font-family="Helvetica,sans-Serif" font-size="10.00">LGE::LxPath::IsSubPath</text>
</a>
</g>
</g>
<!-- Node3&#45;&gt;Node4 -->
<g id="edge3_Node000003_Node000004" class="edge">
<title>Node3&#45;&gt;Node4</title>
<g id="a_edge3_Node000003_Node000004"><a xlink:title=" ">
<path fill="none" stroke="#63b8ff" d="M262.62,-23.07C270.44,-23.07 278.54,-23.07 286.57,-23.07"/>
<polygon fill="#63b8ff" stroke="#63b8ff" points="286.32,-26.57 296.32,-23.07 286.32,-19.57 286.32,-26.57"/>
</a>
</g>
</g>
<!-- Node5 -->
<g id="Node000005" class="node">
<title>Node5</title>
<g id="a_Node000005"><a xlink:href="namespaceLGE_1_1LxPath.html#a314a60ce690c90f4ee0b4e64c0199408" target="_top" xlink:title=" ">
<polygon fill="white" stroke="#666666" points="580.75,-33.07 458.25,-33.07 458.25,-13.07 580.75,-13.07 580.75,-33.07"/>
<text xml:space="preserve" text-anchor="middle" x="519.5" y="-19.57" font-family="Helvetica,sans-Serif" font-size="10.00">LGE::LxPath::Normalize</text>
</a>
</g>
</g>
<!-- Node3&#45;&gt;Node5 -->
<g id="edge6_Node000003_Node000005" class="edge">
<title>Node3&#45;&gt;Node5</title>
<g id="a_edge6_Node000003_Node000005"><a xlink:title=" ">
<path fill="none" stroke="#63b8ff" d="M246.36,-12.65C262.5,-9.19 281.12,-5.78 298.25,-4.07 353.09,1.39 367.4,1.29 422.25,-4.07 435.89,-5.41 450.47,-7.78 464.04,-10.41"/>
<polygon fill="#63b8ff" stroke="#63b8ff" points="463.19,-13.8 473.68,-12.35 464.57,-6.94 463.19,-13.8"/>
</a>
</g>
</g>
<!-- Node4&#45;&gt;Node5 -->
<g id="edge4_Node000004_Node000005" class="edge">
<title>Node4&#45;&gt;Node5</title>
<g id="a_edge4_Node000004_Node000005"><a xlink:title=" ">
<path fill="none" stroke="#63b8ff" d="M422.5,-23.07C430.41,-23.07 438.57,-23.07 446.63,-23.07"/>
<polygon fill="#63b8ff" stroke="#63b8ff" points="446.42,-26.57 456.42,-23.07 446.42,-19.57 446.42,-26.57"/>
</a>
</g>
</g>
<!-- Node5&#45;&gt;Node2 -->
<g id="edge5_Node000005_Node000002" class="edge">
<title>Node5&#45;&gt;Node2</title>
<g id="a_edge5_Node000005_Node000002"><a xlink:title=" ">
<path fill="none" stroke="#63b8ff" d="M581.15,-31.46C589.17,-32.57 597.34,-33.7 605.2,-34.79"/>
<polygon fill="#63b8ff" stroke="#63b8ff" points="604.58,-38.24 614.97,-36.14 605.54,-31.3 604.58,-38.24"/>
</a>
</g>
</g>
</g>
</svg>
