<?xml version="1.0" encoding="UTF-8" standalone="no"?>
<!DOCTYPE svg PUBLIC "-//W3C//DTD SVG 1.1//EN"
 "http://www.w3.org/Graphics/SVG/1.1/DTD/svg11.dtd">
<!-- Generated by graphviz version 14.0.2 (20251019.1705)
 -->
<!-- Title: LGE::Cache::ClearExpired Pages: 1 -->
<svg width="1184pt" height="256pt"
 viewBox="0.00 0.00 1184.00 256.00" xmlns="http://www.w3.org/2000/svg" xmlns:xlink="http://www.w3.org/1999/xlink">
<g id="graph0" class="graph" transform="scale(1 1) rotate(0) translate(4 252)">
<title>LGE::Cache::ClearExpired</title>
<!-- Node1 -->
<g id="Node000001" class="node">
<title>Node1</title>
<g id="a_Node000001"><a xlink:title=" ">
<polygon fill="#999999" stroke="#666666" points="132.25,-219 0,-219 0,-199 132.25,-199 132.25,-219"/>
<text xml:space="preserve" text-anchor="middle" x="66.12" y="-205.5" font-family="Helvetica,sans-Serif" font-size="10.00">LGE::Cache::ClearExpired</text>
</a>
</g>
</g>
<!-- Node2 -->
<g id="Node000002" class="node">
<title>Node2</title>
<g id="a_Node000002"><a xlink:href="classLGE_1_1Log.html#ab0265ee050b8873a2fd31fbdb696ced0" target="_top" xlink:title=" ">
<polygon fill="white" stroke="#666666" points="555.25,-248 475.5,-248 475.5,-228 555.25,-228 555.25,-248"/>
<text xml:space="preserve" text-anchor="middle" x="515.38" y="-234.5" font-family="Helvetica,sans-Serif" font-size="10.00">LGE::Log::Info</text>
</a>
</g>
</g>
<!-- Node1&#45;&gt;Node2 -->
<g id="edge1_Node000001_Node000002" class="edge">
<title>Node1&#45;&gt;Node2</title>
<g id="a_edge1_Node000001_Node000002"><a xlink:title=" ">
<path fill="none" stroke="#63b8ff" d="M132.64,-213.25C222.6,-219.08 382.45,-229.45 463.79,-234.72"/>
<polygon fill="#63b8ff" stroke="#63b8ff" points="463.49,-238.21 473.7,-235.36 463.95,-231.22 463.49,-238.21"/>
</a>
</g>
</g>
<!-- Node3 -->
<g id="Node000003" class="node">
<title>Node3</title>
<g id="a_Node000003"><a xlink:href="namespaceLGE_1_1Cache.html#ad8e41893a6ca4a8bea160fd1a6351f21" target="_top" xlink:title=" ">
<polygon fill="white" stroke="#666666" points="281,-200 168.25,-200 168.25,-180 281,-180 281,-200"/>
<text xml:space="preserve" text-anchor="middle" x="224.62" y="-186.5" font-family="Helvetica,sans-Serif" font-size="10.00">LGE::Cache::Remove</text>
</a>
</g>
</g>
<!-- Node1&#45;&gt;Node3 -->
<g id="edge2_Node000001_Node000003" class="edge">
<title>Node1&#45;&gt;Node3</title>
<g id="a_edge2_Node000001_Node000003"><a xlink:title=" ">
<path fill="none" stroke="#63b8ff" d="M132.59,-201.05C140.56,-200.08 148.71,-199.1 156.7,-198.12"/>
<polygon fill="#63b8ff" stroke="#63b8ff" points="156.85,-201.63 166.35,-196.95 156.01,-194.68 156.85,-201.63"/>
</a>
</g>
</g>
<!-- Node4 -->
<g id="Node000004" class="node">
<title>Node4</title>
<g id="a_Node000004"><a xlink:href="namespaceLGE_1_1LxFile.html#a495ab310e479d036634c3628390f80a0" target="_top" xlink:title=" ">
<polygon fill="white" stroke="#666666" points="419.25,-153 317,-153 317,-133 419.25,-133 419.25,-153"/>
<text xml:space="preserve" text-anchor="middle" x="368.12" y="-139.5" font-family="Helvetica,sans-Serif" font-size="10.00">LGE::LxFile::Delete</text>
</a>
</g>
</g>
<!-- Node3&#45;&gt;Node4 -->
<g id="edge3_Node000003_Node000004" class="edge">
<title>Node3&#45;&gt;Node4</title>
<g id="a_edge3_Node000003_Node000004"><a xlink:title=" ">
<path fill="none" stroke="#63b8ff" d="M257.03,-179.57C277.09,-172.91 303.34,-164.19 325.17,-156.94"/>
<polygon fill="#63b8ff" stroke="#63b8ff" points="325.99,-160.35 334.37,-153.88 323.78,-153.71 325.99,-160.35"/>
</a>
</g>
</g>
<!-- Node13 -->
<g id="Node000013" class="node">
<title>Node13</title>
<g id="a_Node000013"><a xlink:href="namespaceLGE_1_1LxFile.html#a11e62876b312a11b881b484bb3a5ee71" target="_top" xlink:title=" ">
<polygon fill="white" stroke="#666666" points="418.88,-200 317.38,-200 317.38,-180 418.88,-180 418.88,-200"/>
<text xml:space="preserve" text-anchor="middle" x="368.12" y="-186.5" font-family="Helvetica,sans-Serif" font-size="10.00">LGE::LxFile::Exists</text>
</a>
</g>
</g>
<!-- Node3&#45;&gt;Node13 -->
<g id="edge19_Node000003_Node000013" class="edge">
<title>Node3&#45;&gt;Node13</title>
<g id="a_edge19_Node000003_Node000013"><a xlink:title=" ">
<path fill="none" stroke="#63b8ff" d="M281.14,-190C289.25,-190 297.63,-190 305.84,-190"/>
<polygon fill="#63b8ff" stroke="#63b8ff" points="305.78,-193.5 315.78,-190 305.78,-186.5 305.78,-193.5"/>
</a>
</g>
</g>
<!-- Node4&#45;&gt;Node2 -->
<g id="edge5_Node000004_Node000002" class="edge">
<title>Node4&#45;&gt;Node2</title>
<g id="a_edge5_Node000004_Node000002"><a xlink:title=" ">
<path fill="none" stroke="#63b8ff" d="M392.39,-153.41C401.33,-158.05 411.29,-164.05 419.25,-171 439.33,-188.55 433.53,-203.52 455.25,-219 458.24,-221.13 461.47,-223.02 464.84,-224.72"/>
<polygon fill="#63b8ff" stroke="#63b8ff" points="463.25,-227.84 473.82,-228.59 466.03,-221.42 463.25,-227.84"/>
</a>
</g>
</g>
<!-- Node5 -->
<g id="Node000005" class="node">
<title>Node5</title>
<g id="a_Node000005"><a xlink:href="classLGE_1_1Log.html#a53f3f4b8797ffd18145739c9e66d690a" target="_top" xlink:title=" ">
<polygon fill="white" stroke="#666666" points="1175.75,-134 1091.5,-134 1091.5,-114 1175.75,-114 1175.75,-134"/>
<text xml:space="preserve" text-anchor="middle" x="1133.62" y="-120.5" font-family="Helvetica,sans-Serif" font-size="10.00">LGE::Log::Error</text>
</a>
</g>
</g>
<!-- Node4&#45;&gt;Node5 -->
<g id="edge4_Node000004_Node000005" class="edge">
<title>Node4&#45;&gt;Node5</title>
<g id="a_edge4_Node000004_Node000005"><a xlink:title=" ">
<path fill="none" stroke="#63b8ff" d="M419.65,-148.09C479.94,-153.72 583.84,-162 673.25,-162 673.25,-162 673.25,-162 836,-162 921.91,-162 1020.69,-146.12 1079.81,-134.9"/>
<polygon fill="#63b8ff" stroke="#63b8ff" points="1080.44,-138.34 1089.6,-133 1079.12,-131.46 1080.44,-138.34"/>
</a>
</g>
</g>
<!-- Node6 -->
<g id="Node000006" class="node">
<title>Node6</title>
<g id="a_Node000006"><a xlink:href="namespaceLGE_1_1LxFS.html#a5684a30f3fa2906f4dafed0258a79166" target="_top" xlink:title=" ">
<polygon fill="white" stroke="#666666" points="575.5,-20 455.25,-20 455.25,0 575.5,0 575.5,-20"/>
<text xml:space="preserve" text-anchor="middle" x="515.38" y="-6.5" font-family="Helvetica,sans-Serif" font-size="10.00">LGE::LxFS::IsInitialized</text>
</a>
</g>
</g>
<!-- Node4&#45;&gt;Node6 -->
<g id="edge6_Node000004_Node000006" class="edge">
<title>Node4&#45;&gt;Node6</title>
<g id="a_edge6_Node000004_Node000006"><a xlink:title=" ">
<path fill="none" stroke="#63b8ff" d="M374.87,-132.52C387.04,-111.19 417.44,-62.38 455.25,-34 459.79,-30.6 464.87,-27.59 470.11,-24.97"/>
<polygon fill="#63b8ff" stroke="#63b8ff" points="471.2,-28.31 478.87,-21 468.32,-21.94 471.2,-28.31"/>
</a>
</g>
</g>
<!-- Node7 -->
<g id="Node000007" class="node">
<title>Node7</title>
<g id="a_Node000007"><a xlink:href="namespaceLGE_1_1VFS.html#abb5d35abfe80efe2f7a07394ad5b706a" target="_top" xlink:title=" ">
<polygon fill="white" stroke="#666666" points="733.62,-96 614.88,-96 614.88,-76 733.62,-76 733.62,-96"/>
<text xml:space="preserve" text-anchor="middle" x="674.25" y="-82.5" font-family="Helvetica,sans-Serif" font-size="10.00">LGE::VFS::IsReadOnly</text>
</a>
</g>
</g>
<!-- Node4&#45;&gt;Node7 -->
<g id="edge7_Node000004_Node000007" class="edge">
<title>Node4&#45;&gt;Node7</title>
<g id="a_edge7_Node000004_Node000007"><a xlink:title=" ">
<path fill="none" stroke="#63b8ff" d="M387.97,-132.51C405,-123.58 431.03,-111.22 455.25,-105 503.72,-92.56 560.03,-87.89 603.28,-86.29"/>
<polygon fill="#63b8ff" stroke="#63b8ff" points="603.15,-89.8 613.03,-85.98 602.93,-82.8 603.15,-89.8"/>
</a>
</g>
</g>
<!-- Node10 -->
<g id="Node000010" class="node">
<title>Node10</title>
<g id="a_Node000010"><a xlink:href="namespaceLGE_1_1LxFS.html#a12aeb6699602f14153953dceb4284914" target="_top" xlink:title=" ">
<polygon fill="white" stroke="#666666" points="563.5,-210 467.25,-210 467.25,-190 563.5,-190 563.5,-210"/>
<text xml:space="preserve" text-anchor="middle" x="515.38" y="-196.5" font-family="Helvetica,sans-Serif" font-size="10.00">LGE::LxFS::Paths</text>
</a>
</g>
</g>
<!-- Node4&#45;&gt;Node10 -->
<g id="edge12_Node000004_Node000010" class="edge">
<title>Node4&#45;&gt;Node10</title>
<g id="a_edge12_Node000004_Node000010"><a xlink:title=" ">
<path fill="none" stroke="#63b8ff" d="M395.77,-153.45C418.7,-162.45 452.02,-175.53 477.51,-185.53"/>
<polygon fill="#63b8ff" stroke="#63b8ff" points="475.91,-188.66 486.49,-189.06 478.46,-182.15 475.91,-188.66"/>
</a>
</g>
</g>
<!-- Node11 -->
<g id="Node000011" class="node">
<title>Node11</title>
<g id="a_Node000011"><a xlink:href="namespaceLGE_1_1VFS.html#aee891612cc393155878775a61e486c0b" target="_top" xlink:title=" ">
<polygon fill="white" stroke="#666666" points="737,-58 611.5,-58 611.5,-38 737,-38 737,-58"/>
<text xml:space="preserve" text-anchor="middle" x="674.25" y="-44.5" font-family="Helvetica,sans-Serif" font-size="10.00">LGE::VFS::ToVirtualPath</text>
</a>
</g>
</g>
<!-- Node4&#45;&gt;Node11 -->
<g id="edge13_Node000004_Node000011" class="edge">
<title>Node4&#45;&gt;Node11</title>
<g id="a_edge13_Node000004_Node000011"><a xlink:title=" ">
<path fill="none" stroke="#63b8ff" d="M380.7,-132.57C396.38,-119.06 425.82,-95.83 455.25,-84 501.32,-65.48 556.53,-56.49 599.86,-52.12"/>
<polygon fill="#63b8ff" stroke="#63b8ff" points="600.05,-55.62 609.67,-51.2 599.39,-48.65 600.05,-55.62"/>
</a>
</g>
</g>
<!-- Node12 -->
<g id="Node000012" class="node">
<title>Node12</title>
<g id="a_Node000012"><a xlink:href="namespaceLGE_1_1LxFile.html#a06d0b8c5590da8bc48cf22d321fc4074" target="_top" xlink:title=" ">
<polygon fill="white" stroke="#666666" points="569.12,-134 461.62,-134 461.62,-114 569.12,-114 569.12,-134"/>
<text xml:space="preserve" text-anchor="middle" x="515.38" y="-120.5" font-family="Helvetica,sans-Serif" font-size="10.00">LGE::LxFile::WriteAll</text>
</a>
</g>
</g>
<!-- Node4&#45;&gt;Node12 -->
<g id="edge16_Node000004_Node000012" class="edge">
<title>Node4&#45;&gt;Node12</title>
<g id="a_edge16_Node000004_Node000012"><a xlink:title=" ">
<path fill="none" stroke="#63b8ff" d="M419.52,-136.41C429.51,-135.1 440.12,-133.71 450.49,-132.36"/>
<polygon fill="#63b8ff" stroke="#63b8ff" points="450.64,-135.87 460.1,-131.1 449.73,-128.93 450.64,-135.87"/>
</a>
</g>
</g>
<!-- Node8 -->
<g id="Node000008" class="node">
<title>Node8</title>
<g id="a_Node000008"><a xlink:href="namespaceLGE_1_1LxPath.html#ab664986e94ce09aa029f9eb2fcf50133" target="_top" xlink:title=" ">
<polygon fill="white" stroke="#666666" points="897,-58 773,-58 773,-38 897,-38 897,-58"/>
<text xml:space="preserve" text-anchor="middle" x="835" y="-44.5" font-family="Helvetica,sans-Serif" font-size="10.00">LGE::LxPath::IsSubPath</text>
</a>
</g>
</g>
<!-- Node7&#45;&gt;Node8 -->
<g id="edge8_Node000007_Node000008" class="edge">
<title>Node7&#45;&gt;Node8</title>
<g id="a_edge8_Node000007_Node000008"><a xlink:title=" ">
<path fill="none" stroke="#63b8ff" d="M719.05,-75.52C737.7,-71.05 759.66,-65.79 779.36,-61.08"/>
<polygon fill="#63b8ff" stroke="#63b8ff" points="779.96,-64.53 788.87,-58.8 778.33,-57.73 779.96,-64.53"/>
</a>
</g>
</g>
<!-- Node9 -->
<g id="Node000009" class="node">
<title>Node9</title>
<g id="a_Node000009"><a xlink:href="namespaceLGE_1_1LxPath.html#a314a60ce690c90f4ee0b4e64c0199408" target="_top" xlink:title=" ">
<polygon fill="white" stroke="#666666" points="1055.5,-77 933,-77 933,-57 1055.5,-57 1055.5,-77"/>
<text xml:space="preserve" text-anchor="middle" x="994.25" y="-63.5" font-family="Helvetica,sans-Serif" font-size="10.00">LGE::LxPath::Normalize</text>
</a>
</g>
</g>
<!-- Node7&#45;&gt;Node9 -->
<g id="edge11_Node000007_Node000009" class="edge">
<title>Node7&#45;&gt;Node9</title>
<g id="a_edge11_Node000007_Node000009"><a xlink:title=" ">
<path fill="none" stroke="#63b8ff" d="M733.95,-82.49C786.83,-79.33 864.74,-74.68 921.35,-71.3"/>
<polygon fill="#63b8ff" stroke="#63b8ff" points="921.45,-74.8 931.22,-70.71 921.03,-67.81 921.45,-74.8"/>
</a>
</g>
</g>
<!-- Node8&#45;&gt;Node9 -->
<g id="edge9_Node000008_Node000009" class="edge">
<title>Node8&#45;&gt;Node9</title>
<g id="a_edge9_Node000008_Node000009"><a xlink:title=" ">
<path fill="none" stroke="#63b8ff" d="M897.25,-55.4C905.16,-56.36 913.32,-57.34 921.38,-58.32"/>
<polygon fill="#63b8ff" stroke="#63b8ff" points="920.84,-61.78 931.18,-59.5 921.68,-54.83 920.84,-61.78"/>
</a>
</g>
</g>
<!-- Node9&#45;&gt;Node5 -->
<g id="edge10_Node000009_Node000005" class="edge">
<title>Node9&#45;&gt;Node5</title>
<g id="a_edge10_Node000009_Node000005"><a xlink:title=" ">
<path fill="none" stroke="#63b8ff" d="M1020.45,-77.45C1041.94,-86.37 1073.09,-99.3 1097.11,-109.26"/>
<polygon fill="#63b8ff" stroke="#63b8ff" points="1095.61,-112.43 1106.19,-113.03 1098.29,-105.97 1095.61,-112.43"/>
</a>
</g>
</g>
<!-- Node11&#45;&gt;Node8 -->
<g id="edge14_Node000011_Node000008" class="edge">
<title>Node11&#45;&gt;Node8</title>
<g id="a_edge14_Node000011_Node000008"><a xlink:title=" ">
<path fill="none" stroke="#63b8ff" d="M737.08,-48C745.01,-48 753.19,-48 761.27,-48"/>
<polygon fill="#63b8ff" stroke="#63b8ff" points="761.08,-51.5 771.08,-48 761.08,-44.5 761.08,-51.5"/>
</a>
</g>
</g>
<!-- Node11&#45;&gt;Node9 -->
<g id="edge15_Node000011_Node000009" class="edge">
<title>Node11&#45;&gt;Node9</title>
<g id="a_edge15_Node000011_Node000009"><a xlink:title=" ">
<path fill="none" stroke="#63b8ff" d="M717.7,-37.55C762.59,-28.08 835.32,-17.26 897,-29 920.01,-33.38 944.56,-43.16 963.1,-51.7"/>
<polygon fill="#63b8ff" stroke="#63b8ff" points="961.37,-54.75 971.9,-55.88 964.37,-48.43 961.37,-54.75"/>
</a>
</g>
</g>
<!-- Node12&#45;&gt;Node5 -->
<g id="edge17_Node000012_Node000005" class="edge">
<title>Node12&#45;&gt;Node5</title>
<g id="a_edge17_Node000012_Node000005"><a xlink:title=" ">
<path fill="none" stroke="#63b8ff" d="M569.45,-124C686.02,-124 963.29,-124 1079.71,-124"/>
<polygon fill="#63b8ff" stroke="#63b8ff" points="1079.61,-127.5 1089.61,-124 1079.61,-120.5 1079.61,-127.5"/>
</a>
</g>
</g>
<!-- Node12&#45;&gt;Node7 -->
<g id="edge18_Node000012_Node000007" class="edge">
<title>Node12&#45;&gt;Node7</title>
<g id="a_edge18_Node000012_Node000007"><a xlink:title=" ">
<path fill="none" stroke="#63b8ff" d="M559.66,-113.52C578,-109.07 599.59,-103.84 618.98,-99.15"/>
<polygon fill="#63b8ff" stroke="#63b8ff" points="619.74,-102.56 628.64,-96.81 618.1,-95.76 619.74,-102.56"/>
</a>
</g>
</g>
</g>
</svg>
