<?xml version="1.0" encoding="UTF-8" standalone="no"?>
<!DOCTYPE svg PUBLIC "-//W3C//DTD SVG 1.1//EN"
 "http://www.w3.org/Graphics/SVG/1.1/DTD/svg11.dtd">
<!-- Generated by graphviz version 14.0.2 (20251019.1705)
 -->
<!-- Title: LGE::VFS::ListMounts Pages: 1 -->
<svg width="746pt" height="891pt"
 viewBox="0.00 0.00 746.00 891.00" xmlns="http://www.w3.org/2000/svg" xmlns:xlink="http://www.w3.org/1999/xlink">
<g id="graph0" class="graph" transform="scale(1 1) rotate(0) translate(4 887)">
<title>LGE::VFS::ListMounts</title>
<!-- Node1 -->
<g id="Node000001" class="node">
<title>Node1</title>
<g id="a_Node000001"><a xlink:title=" ">
<polygon fill="#999999" stroke="#666666" points="737.75,-77 622.75,-77 622.75,-57 737.75,-57 737.75,-77"/>
<text xml:space="preserve" text-anchor="middle" x="680.25" y="-63.5" font-family="Helvetica,sans-Serif" font-size="10.00">LGE::VFS::ListMounts</text>
</a>
</g>
</g>
<!-- Node2 -->
<g id="Node000002" class="node">
<title>Node2</title>
<g id="a_Node000002"><a xlink:href="namespaceLGE_1_1AssetRegistry.html#af9345d56722e55e0a02cc2b1c421da76" target="_top" xlink:title=" ">
<polygon fill="white" stroke="#666666" points="563.12,-463 459.38,-463 459.38,-431 563.12,-431 563.12,-463"/>
<text xml:space="preserve" text-anchor="start" x="467.38" y="-449.5" font-family="Helvetica,sans-Serif" font-size="10.00">LGE::AssetRegistry</text>
<text xml:space="preserve" text-anchor="middle" x="511.25" y="-437.5" font-family="Helvetica,sans-Serif" font-size="10.00">::FullScan</text>
</a>
</g>
</g>
<!-- Node1&#45;&gt;Node2 -->
<g id="edge1_Node000001_Node000002" class="edge">
<title>Node1&#45;&gt;Node2</title>
<g id="a_edge1_Node000001_Node000002"><a xlink:title=" ">
<path fill="none" stroke="#63b8ff" d="M670.33,-87.3C640.75,-154.6 546.3,-369.51 519.44,-430.64"/>
<polygon fill="#63b8ff" stroke="#63b8ff" points="673.36,-89.11 674.17,-78.55 666.95,-86.3 673.36,-89.11"/>
</a>
</g>
</g>
<!-- Node24 -->
<g id="Node000024" class="node">
<title>Node24</title>
<g id="a_Node000024"><a xlink:href="namespaceLGE_1_1Policies.html#ac1cfbc23c43ff5fb2cafb1b357967d4f" target="_top" xlink:title=" ">
<polygon fill="white" stroke="#666666" points="586.75,-96 435.75,-96 435.75,-76 586.75,-76 586.75,-96"/>
<text xml:space="preserve" text-anchor="middle" x="511.25" y="-82.5" font-family="Helvetica,sans-Serif" font-size="10.00">LGE::Policies::GetMountName</text>
</a>
</g>
</g>
<!-- Node1&#45;&gt;Node24 -->
<g id="edge27_Node000001_Node000024" class="edge">
<title>Node1&#45;&gt;Node24</title>
<g id="a_edge27_Node000001_Node000024"><a xlink:title=" ">
<path fill="none" stroke="#63b8ff" d="M611.51,-74.71C603.47,-75.62 595.22,-76.56 587.09,-77.49"/>
<polygon fill="#63b8ff" stroke="#63b8ff" points="611.67,-78.21 621.21,-73.6 610.88,-71.26 611.67,-78.21"/>
</a>
</g>
</g>
<!-- Node28 -->
<g id="Node000028" class="node">
<title>Node28</title>
<g id="a_Node000028"><a xlink:href="TestVFS_8cpp.html#a38c81668e929b8e631ac7f8565168f65" target="_top" xlink:title=" ">
<polygon fill="white" stroke="#666666" points="532,-58 490.5,-58 490.5,-38 532,-38 532,-58"/>
<text xml:space="preserve" text-anchor="middle" x="511.25" y="-44.5" font-family="Helvetica,sans-Serif" font-size="10.00">TEST</text>
</a>
</g>
</g>
<!-- Node1&#45;&gt;Node28 -->
<g id="edge31_Node000001_Node000028" class="edge">
<title>Node1&#45;&gt;Node28</title>
<g id="a_edge31_Node000001_Node000028"><a xlink:title=" ">
<path fill="none" stroke="#63b8ff" d="M611.53,-59.3C583.05,-56.05 552.01,-52.52 532.36,-50.29"/>
<polygon fill="#63b8ff" stroke="#63b8ff" points="610.88,-62.74 621.21,-60.4 611.67,-55.79 610.88,-62.74"/>
</a>
</g>
</g>
<!-- Node29 -->
<g id="Node000029" class="node">
<title>Node29</title>
<g id="a_Node000029"><a xlink:href="TestVFS_8cpp.html#a1cc06d54f74c901bab66b63fa9bcdca8" target="_top" xlink:title=" ">
<polygon fill="white" stroke="#666666" points="532,-20 490.5,-20 490.5,0 532,0 532,-20"/>
<text xml:space="preserve" text-anchor="middle" x="511.25" y="-6.5" font-family="Helvetica,sans-Serif" font-size="10.00">TEST</text>
</a>
</g>
</g>
<!-- Node1&#45;&gt;Node29 -->
<g id="edge32_Node000001_Node000029" class="edge">
<title>Node1&#45;&gt;Node29</title>
<g id="a_edge32_Node000001_Node000029"><a xlink:title=" ">
<path fill="none" stroke="#63b8ff" d="M646.16,-52.09C628.71,-44.56 606.81,-35.64 586.75,-29 568.63,-23 547.51,-17.77 532.39,-14.33"/>
<polygon fill="#63b8ff" stroke="#63b8ff" points="644.45,-55.16 655.01,-55.96 647.25,-48.74 644.45,-55.16"/>
</a>
</g>
</g>
<!-- Node3 -->
<g id="Node000003" class="node">
<title>Node3</title>
<g id="a_Node000003"><a xlink:href="BenchmarkFS_8cpp.html#ab029f67ffb106edc6d219aadc7aee238" target="_top" xlink:title=" ">
<polygon fill="white" stroke="#666666" points="376.5,-883 269,-883 269,-851 376.5,-851 376.5,-883"/>
<text xml:space="preserve" text-anchor="start" x="277" y="-869.5" font-family="Helvetica,sans-Serif" font-size="10.00">Benchmark_Registry</text>
<text xml:space="preserve" text-anchor="middle" x="322.75" y="-857.5" font-family="Helvetica,sans-Serif" font-size="10.00">_Scan_Large</text>
</a>
</g>
</g>
<!-- Node2&#45;&gt;Node3 -->
<g id="edge2_Node000002_Node000003" class="edge">
<title>Node2&#45;&gt;Node3</title>
<g id="a_edge2_Node000002_Node000003"><a xlink:title=" ">
<path fill="none" stroke="#63b8ff" d="M510.85,-474.54C510.86,-545.45 500.94,-736.14 399.75,-842 393.42,-848.63 385.3,-853.5 376.73,-857.08"/>
<polygon fill="#63b8ff" stroke="#63b8ff" points="514.35,-474.59 510.77,-464.62 507.35,-474.65 514.35,-474.59"/>
</a>
</g>
</g>
<!-- Node4 -->
<g id="Node000004" class="node">
<title>Node4</title>
<g id="a_Node000004"><a xlink:href="BenchmarkFS_8cpp.html#ab9a728100bf27df8671c37d3a29bbea1" target="_top" xlink:title=" ">
<polygon fill="white" stroke="#666666" points="376.5,-833 269,-833 269,-801 376.5,-801 376.5,-833"/>
<text xml:space="preserve" text-anchor="start" x="277" y="-819.5" font-family="Helvetica,sans-Serif" font-size="10.00">Benchmark_Registry</text>
<text xml:space="preserve" text-anchor="middle" x="322.75" y="-807.5" font-family="Helvetica,sans-Serif" font-size="10.00">_Scan_Medium</text>
</a>
</g>
</g>
<!-- Node2&#45;&gt;Node4 -->
<g id="edge3_Node000002_Node000004" class="edge">
<title>Node2&#45;&gt;Node4</title>
<g id="a_edge3_Node000002_Node000004"><a xlink:title=" ">
<path fill="none" stroke="#63b8ff" d="M509.52,-474.55C506.3,-539.18 489.22,-701.82 399.75,-792 393.39,-798.41 385.36,-803.18 376.92,-806.72"/>
<polygon fill="#63b8ff" stroke="#63b8ff" points="513,-474.98 509.92,-464.84 506.01,-474.69 513,-474.98"/>
</a>
</g>
</g>
<!-- Node7 -->
<g id="Node000007" class="node">
<title>Node7</title>
<g id="a_Node000007"><a xlink:href="BenchmarkFS_8cpp.html#aa44cb85b0759f1cfddf700acff100f97" target="_top" xlink:title=" ">
<polygon fill="white" stroke="#666666" points="376.5,-783 269,-783 269,-751 376.5,-751 376.5,-783"/>
<text xml:space="preserve" text-anchor="start" x="277" y="-769.5" font-family="Helvetica,sans-Serif" font-size="10.00">Benchmark_Registry</text>
<text xml:space="preserve" text-anchor="middle" x="322.75" y="-757.5" font-family="Helvetica,sans-Serif" font-size="10.00">_Scan_Small</text>
</a>
</g>
</g>
<!-- Node2&#45;&gt;Node7 -->
<g id="edge6_Node000002_Node000007" class="edge">
<title>Node2&#45;&gt;Node7</title>
<g id="a_edge6_Node000002_Node000007"><a xlink:title=" ">
<path fill="none" stroke="#63b8ff" d="M507.78,-474.49C501.12,-532.29 477.64,-667.21 399.75,-742 393.24,-748.25 385.13,-752.94 376.66,-756.46"/>
<polygon fill="#63b8ff" stroke="#63b8ff" points="511.22,-475.2 508.8,-464.89 504.26,-474.46 511.22,-475.2"/>
</a>
</g>
</g>
<!-- Node8 -->
<g id="Node000008" class="node">
<title>Node8</title>
<g id="a_Node000008"><a xlink:href="BenchmarkFS_8cpp.html#a3442e7b685b914cc8075873db73300d8" target="_top" xlink:title=" ">
<polygon fill="white" stroke="#666666" points="376.5,-733 269,-733 269,-701 376.5,-701 376.5,-733"/>
<text xml:space="preserve" text-anchor="start" x="277" y="-719.5" font-family="Helvetica,sans-Serif" font-size="10.00">Benchmark_Registry</text>
<text xml:space="preserve" text-anchor="middle" x="322.75" y="-707.5" font-family="Helvetica,sans-Serif" font-size="10.00">_Search_Fuzzy</text>
</a>
</g>
</g>
<!-- Node2&#45;&gt;Node8 -->
<g id="edge8_Node000002_Node000008" class="edge">
<title>Node2&#45;&gt;Node8</title>
<g id="a_edge8_Node000002_Node000008"><a xlink:title=" ">
<path fill="none" stroke="#63b8ff" d="M505.35,-474.65C494.98,-525.1 466.1,-632.33 399.75,-692 393.14,-697.94 385.09,-702.48 376.72,-705.94"/>
<polygon fill="#63b8ff" stroke="#63b8ff" points="508.78,-475.36 507.26,-464.88 501.91,-474.02 508.78,-475.36"/>
</a>
</g>
</g>
<!-- Node9 -->
<g id="Node000009" class="node">
<title>Node9</title>
<g id="a_Node000009"><a xlink:href="BenchmarkFS_8cpp.html#a6e215b65128db1abca9661a02a708fe7" target="_top" xlink:title=" ">
<polygon fill="white" stroke="#666666" points="376.5,-683 269,-683 269,-651 376.5,-651 376.5,-683"/>
<text xml:space="preserve" text-anchor="start" x="277" y="-669.5" font-family="Helvetica,sans-Serif" font-size="10.00">Benchmark_Registry</text>
<text xml:space="preserve" text-anchor="middle" x="322.75" y="-657.5" font-family="Helvetica,sans-Serif" font-size="10.00">_Search_GUID</text>
</a>
</g>
</g>
<!-- Node2&#45;&gt;Node9 -->
<g id="edge10_Node000002_Node000009" class="edge">
<title>Node2&#45;&gt;Node9</title>
<g id="a_edge10_Node000002_Node000009"><a xlink:title=" ">
<path fill="none" stroke="#63b8ff" d="M502.02,-474.02C487.89,-515.98 455.05,-596.69 399.75,-642 392.98,-647.55 384.94,-651.88 376.67,-655.25"/>
<polygon fill="#63b8ff" stroke="#63b8ff" points="505.29,-475.3 505.05,-464.71 498.63,-473.14 505.29,-475.3"/>
</a>
</g>
</g>
<!-- Node10 -->
<g id="Node000010" class="node">
<title>Node10</title>
<g id="a_Node000010"><a xlink:href="BenchmarkFS_8cpp.html#a1d7ed07006c36462715eb9e933bb0bac" target="_top" xlink:title=" ">
<polygon fill="white" stroke="#666666" points="376.5,-633 269,-633 269,-601 376.5,-601 376.5,-633"/>
<text xml:space="preserve" text-anchor="start" x="277" y="-619.5" font-family="Helvetica,sans-Serif" font-size="10.00">Benchmark_Registry</text>
<text xml:space="preserve" text-anchor="middle" x="322.75" y="-607.5" font-family="Helvetica,sans-Serif" font-size="10.00">_Search_Path</text>
</a>
</g>
</g>
<!-- Node2&#45;&gt;Node10 -->
<g id="edge12_Node000002_Node000010" class="edge">
<title>Node2&#45;&gt;Node10</title>
<g id="a_edge12_Node000002_Node000010"><a xlink:title=" ">
<path fill="none" stroke="#63b8ff" d="M496.85,-473.11C478.94,-505.51 444.23,-560.33 399.75,-592 392.85,-596.91 384.92,-600.91 376.85,-604.14"/>
<polygon fill="#63b8ff" stroke="#63b8ff" points="499.89,-474.84 501.55,-464.38 493.72,-471.52 499.89,-474.84"/>
</a>
</g>
</g>
<!-- Node11 -->
<g id="Node000011" class="node">
<title>Node11</title>
<g id="a_Node000011"><a xlink:href="classExampleApp.html#a535c41a1b822be3f2c6fd96e3f80f4b7" target="_top" xlink:title=" ">
<polygon fill="white" stroke="#666666" points="397.88,-583 247.62,-583 247.62,-551 397.88,-551 397.88,-583"/>
<text xml:space="preserve" text-anchor="start" x="255.62" y="-569.5" font-family="Helvetica,sans-Serif" font-size="10.00">ExampleApp::CompleteProject</text>
<text xml:space="preserve" text-anchor="middle" x="322.75" y="-557.5" font-family="Helvetica,sans-Serif" font-size="10.00">Loading</text>
</a>
</g>
</g>
<!-- Node2&#45;&gt;Node11 -->
<g id="edge14_Node000002_Node000011" class="edge">
<title>Node2&#45;&gt;Node11</title>
<g id="a_edge14_Node000002_Node000011"><a xlink:title=" ">
<path fill="none" stroke="#63b8ff" d="M487.32,-471.55C466.31,-492.78 433.44,-522.98 399.75,-542 394.07,-545.21 387.91,-548.08 381.64,-550.64"/>
<polygon fill="#63b8ff" stroke="#63b8ff" points="489.79,-474.03 494.25,-464.42 484.77,-469.15 489.79,-474.03"/>
</a>
</g>
</g>
<!-- Node13 -->
<g id="Node000013" class="node">
<title>Node13</title>
<g id="a_Node000013"><a xlink:href="TestDependencies_8cpp.html#a27d08683b47752be5bf0771792fe84e1" target="_top" xlink:title=" ">
<polygon fill="white" stroke="#666666" points="343.5,-533 302,-533 302,-513 343.5,-513 343.5,-533"/>
<text xml:space="preserve" text-anchor="middle" x="322.75" y="-519.5" font-family="Helvetica,sans-Serif" font-size="10.00">TEST</text>
</a>
</g>
</g>
<!-- Node2&#45;&gt;Node13 -->
<g id="edge16_Node000002_Node000013" class="edge">
<title>Node2&#45;&gt;Node13</title>
<g id="a_edge16_Node000002_Node000013"><a xlink:title=" ">
<path fill="none" stroke="#63b8ff" d="M473.13,-468.89C452.14,-480.56 425.09,-494.44 399.75,-504 381.3,-510.96 359.37,-516.13 343.82,-519.31"/>
<polygon fill="#63b8ff" stroke="#63b8ff" points="474.61,-472.08 481.59,-464.11 471.16,-465.98 474.61,-472.08"/>
</a>
</g>
</g>
<!-- Node14 -->
<g id="Node000014" class="node">
<title>Node14</title>
<g id="a_Node000014"><a xlink:href="TestDependencies_8cpp.html#a73f01e5c160074ed2ad795bd2b1ac7a2" target="_top" xlink:title=" ">
<polygon fill="white" stroke="#666666" points="343.5,-495 302,-495 302,-475 343.5,-475 343.5,-495"/>
<text xml:space="preserve" text-anchor="middle" x="322.75" y="-481.5" font-family="Helvetica,sans-Serif" font-size="10.00">TEST</text>
</a>
</g>
</g>
<!-- Node2&#45;&gt;Node14 -->
<g id="edge17_Node000002_Node000014" class="edge">
<title>Node2&#45;&gt;Node14</title>
<g id="a_edge17_Node000002_Node000014"><a xlink:title=" ">
<path fill="none" stroke="#63b8ff" d="M448.26,-459.63C411.9,-467.04 368.37,-475.91 343.6,-480.96"/>
<polygon fill="#63b8ff" stroke="#63b8ff" points="448.71,-463.11 457.8,-457.69 447.31,-456.25 448.71,-463.11"/>
</a>
</g>
</g>
<!-- Node15 -->
<g id="Node000015" class="node">
<title>Node15</title>
<g id="a_Node000015"><a xlink:href="TestDependencies_8cpp.html#ac7d0213aa008a4537d2b739ca96728af" target="_top" xlink:title=" ">
<polygon fill="white" stroke="#666666" points="343.5,-457 302,-457 302,-437 343.5,-437 343.5,-457"/>
<text xml:space="preserve" text-anchor="middle" x="322.75" y="-443.5" font-family="Helvetica,sans-Serif" font-size="10.00">TEST</text>
</a>
</g>
</g>
<!-- Node2&#45;&gt;Node15 -->
<g id="edge18_Node000002_Node000015" class="edge">
<title>Node2&#45;&gt;Node15</title>
<g id="a_edge18_Node000002_Node000015"><a xlink:title=" ">
<path fill="none" stroke="#63b8ff" d="M447.79,-447C411.53,-447 368.26,-447 343.6,-447"/>
<polygon fill="#63b8ff" stroke="#63b8ff" points="447.77,-450.5 457.77,-447 447.77,-443.5 447.77,-450.5"/>
</a>
</g>
</g>
<!-- Node16 -->
<g id="Node000016" class="node">
<title>Node16</title>
<g id="a_Node000016"><a xlink:href="TestDependencies_8cpp.html#a3eed8aa25f31b84b211af1815819d59e" target="_top" xlink:title=" ">
<polygon fill="white" stroke="#666666" points="343.5,-419 302,-419 302,-399 343.5,-399 343.5,-419"/>
<text xml:space="preserve" text-anchor="middle" x="322.75" y="-405.5" font-family="Helvetica,sans-Serif" font-size="10.00">TEST</text>
</a>
</g>
</g>
<!-- Node2&#45;&gt;Node16 -->
<g id="edge19_Node000002_Node000016" class="edge">
<title>Node2&#45;&gt;Node16</title>
<g id="a_edge19_Node000002_Node000016"><a xlink:title=" ">
<path fill="none" stroke="#63b8ff" d="M448.26,-434.37C411.9,-426.96 368.37,-418.09 343.6,-413.04"/>
<polygon fill="#63b8ff" stroke="#63b8ff" points="447.31,-437.75 457.8,-436.31 448.71,-430.89 447.31,-437.75"/>
</a>
</g>
</g>
<!-- Node17 -->
<g id="Node000017" class="node">
<title>Node17</title>
<g id="a_Node000017"><a xlink:href="TestDependencies_8cpp.html#ad6e5e8e9ab7331c10f47c0adead790ec" target="_top" xlink:title=" ">
<polygon fill="white" stroke="#666666" points="343.5,-381 302,-381 302,-361 343.5,-361 343.5,-381"/>
<text xml:space="preserve" text-anchor="middle" x="322.75" y="-367.5" font-family="Helvetica,sans-Serif" font-size="10.00">TEST</text>
</a>
</g>
</g>
<!-- Node2&#45;&gt;Node17 -->
<g id="edge20_Node000002_Node000017" class="edge">
<title>Node2&#45;&gt;Node17</title>
<g id="a_edge20_Node000002_Node000017"><a xlink:title=" ">
<path fill="none" stroke="#63b8ff" d="M473.13,-425.11C452.14,-413.44 425.09,-399.56 399.75,-390 381.3,-383.04 359.37,-377.87 343.82,-374.69"/>
<polygon fill="#63b8ff" stroke="#63b8ff" points="471.16,-428.02 481.59,-429.89 474.61,-421.92 471.16,-428.02"/>
</a>
</g>
</g>
<!-- Node18 -->
<g id="Node000018" class="node">
<title>Node18</title>
<g id="a_Node000018"><a xlink:href="TestSearch_8cpp.html#aec262fa1aeb82f0a2ec9fca22e3d2374" target="_top" xlink:title=" ">
<polygon fill="white" stroke="#666666" points="343.5,-343 302,-343 302,-323 343.5,-323 343.5,-343"/>
<text xml:space="preserve" text-anchor="middle" x="322.75" y="-329.5" font-family="Helvetica,sans-Serif" font-size="10.00">TEST</text>
</a>
</g>
</g>
<!-- Node2&#45;&gt;Node18 -->
<g id="edge21_Node000002_Node000018" class="edge">
<title>Node2&#45;&gt;Node18</title>
<g id="a_edge21_Node000002_Node000018"><a xlink:title=" ">
<path fill="none" stroke="#63b8ff" d="M488,-422.22C467.23,-400.57 434.31,-369.88 399.75,-352 381.99,-342.81 359.57,-337.91 343.69,-335.4"/>
<polygon fill="#63b8ff" stroke="#63b8ff" points="485.44,-424.6 494.84,-429.49 490.54,-419.81 485.44,-424.6"/>
</a>
</g>
</g>
<!-- Node19 -->
<g id="Node000019" class="node">
<title>Node19</title>
<g id="a_Node000019"><a xlink:href="TestSearch_8cpp.html#a33500ac4fe5ec5aabbfb97635e04b1a5" target="_top" xlink:title=" ">
<polygon fill="white" stroke="#666666" points="343.5,-305 302,-305 302,-285 343.5,-285 343.5,-305"/>
<text xml:space="preserve" text-anchor="middle" x="322.75" y="-291.5" font-family="Helvetica,sans-Serif" font-size="10.00">TEST</text>
</a>
</g>
</g>
<!-- Node2&#45;&gt;Node19 -->
<g id="edge22_Node000002_Node000019" class="edge">
<title>Node2&#45;&gt;Node19</title>
<g id="a_edge22_Node000002_Node000019"><a xlink:title=" ">
<path fill="none" stroke="#63b8ff" d="M495.54,-420.75C477.13,-390.35 442.72,-341.01 399.75,-314 382.71,-303.29 359.97,-298.61 343.82,-296.57"/>
<polygon fill="#63b8ff" stroke="#63b8ff" points="492.51,-422.5 500.61,-429.34 498.54,-418.95 492.51,-422.5"/>
</a>
</g>
</g>
<!-- Node20 -->
<g id="Node000020" class="node">
<title>Node20</title>
<g id="a_Node000020"><a xlink:href="TestSearch_8cpp.html#ad770bade109d5488d8747315303c5509" target="_top" xlink:title=" ">
<polygon fill="white" stroke="#666666" points="343.5,-267 302,-267 302,-247 343.5,-247 343.5,-267"/>
<text xml:space="preserve" text-anchor="middle" x="322.75" y="-253.5" font-family="Helvetica,sans-Serif" font-size="10.00">TEST</text>
</a>
</g>
</g>
<!-- Node2&#45;&gt;Node20 -->
<g id="edge23_Node000002_Node000020" class="edge">
<title>Node2&#45;&gt;Node20</title>
<g id="a_edge23_Node000002_Node000020"><a xlink:title=" ">
<path fill="none" stroke="#63b8ff" d="M500.43,-420.37C485.01,-382.33 451.42,-312.97 399.75,-276 383.27,-264.21 360.23,-259.71 343.84,-258"/>
<polygon fill="#63b8ff" stroke="#63b8ff" points="497.01,-421.22 503.92,-429.25 503.52,-418.66 497.01,-421.22"/>
</a>
</g>
</g>
<!-- Node21 -->
<g id="Node000021" class="node">
<title>Node21</title>
<g id="a_Node000021"><a xlink:href="TestSearch_8cpp.html#a13cb3cdd7534423f0d92329cf16ceaf7" target="_top" xlink:title=" ">
<polygon fill="white" stroke="#666666" points="343.5,-229 302,-229 302,-209 343.5,-209 343.5,-229"/>
<text xml:space="preserve" text-anchor="middle" x="322.75" y="-215.5" font-family="Helvetica,sans-Serif" font-size="10.00">TEST</text>
</a>
</g>
</g>
<!-- Node2&#45;&gt;Node21 -->
<g id="edge24_Node000002_Node000021" class="edge">
<title>Node2&#45;&gt;Node21</title>
<g id="a_edge24_Node000002_Node000021"><a xlink:title=" ">
<path fill="none" stroke="#63b8ff" d="M503.62,-419.81C491.21,-374.85 460.1,-285.29 399.75,-238 383.69,-225.42 360.36,-221.06 343.79,-219.6"/>
<polygon fill="#63b8ff" stroke="#63b8ff" points="500.18,-420.5 506.12,-429.27 506.95,-418.71 500.18,-420.5"/>
</a>
</g>
</g>
<!-- Node22 -->
<g id="Node000022" class="node">
<title>Node22</title>
<g id="a_Node000022"><a xlink:href="TestSearch_8cpp.html#a726a0578ed58faaeb0201d967dbce4be" target="_top" xlink:title=" ">
<polygon fill="white" stroke="#666666" points="343.5,-191 302,-191 302,-171 343.5,-171 343.5,-191"/>
<text xml:space="preserve" text-anchor="middle" x="322.75" y="-177.5" font-family="Helvetica,sans-Serif" font-size="10.00">TEST</text>
</a>
</g>
</g>
<!-- Node2&#45;&gt;Node22 -->
<g id="edge25_Node000002_Node000022" class="edge">
<title>Node2&#45;&gt;Node22</title>
<g id="a_edge25_Node000002_Node000022"><a xlink:title=" ">
<path fill="none" stroke="#63b8ff" d="M505.96,-419.35C496.5,-368.02 468.91,-257.97 399.75,-200 384.01,-186.81 360.4,-182.57 343.67,-181.31"/>
<polygon fill="#63b8ff" stroke="#63b8ff" points="502.48,-419.76 507.64,-429.01 509.38,-418.56 502.48,-419.76"/>
</a>
</g>
</g>
<!-- Node23 -->
<g id="Node000023" class="node">
<title>Node23</title>
<g id="a_Node000023"><a xlink:href="TestSearch_8cpp.html#a7120a1bbfb46623c11b708a8ab750d82" target="_top" xlink:title=" ">
<polygon fill="white" stroke="#666666" points="343.5,-153 302,-153 302,-133 343.5,-133 343.5,-153"/>
<text xml:space="preserve" text-anchor="middle" x="322.75" y="-139.5" font-family="Helvetica,sans-Serif" font-size="10.00">TEST</text>
</a>
</g>
</g>
<!-- Node2&#45;&gt;Node23 -->
<g id="edge26_Node000002_Node000023" class="edge">
<title>Node2&#45;&gt;Node23</title>
<g id="a_edge26_Node000002_Node000023"><a xlink:title=" ">
<path fill="none" stroke="#63b8ff" d="M507.8,-419.22C501.22,-362.09 477.97,-231.02 399.75,-162 384.35,-148.41 360.68,-144.24 343.85,-143.11"/>
<polygon fill="#63b8ff" stroke="#63b8ff" points="504.3,-419.46 508.83,-429.04 511.26,-418.73 504.3,-419.46"/>
</a>
</g>
</g>
<!-- Node5 -->
<g id="Node000005" class="node">
<title>Node5</title>
<g id="a_Node000005"><a xlink:href="BenchmarkFS_8cpp.html#abd2bf074780e72b3c554bb5eb58ff96a" target="_top" xlink:title=" ">
<polygon fill="white" stroke="#666666" points="209.75,-727 73,-727 73,-707 209.75,-707 209.75,-727"/>
<text xml:space="preserve" text-anchor="middle" x="141.38" y="-713.5" font-family="Helvetica,sans-Serif" font-size="10.00">RunFilesystemBenchmarks</text>
</a>
</g>
</g>
<!-- Node4&#45;&gt;Node5 -->
<g id="edge4_Node000004_Node000005" class="edge">
<title>Node4&#45;&gt;Node5</title>
<g id="a_edge4_Node000004_Node000005"><a xlink:title=" ">
<path fill="none" stroke="#63b8ff" d="M257.99,-797.68C253.79,-795.9 249.67,-794.01 245.75,-792 209.62,-773.53 172.32,-743.14 153.99,-727.31"/>
<polygon fill="#63b8ff" stroke="#63b8ff" points="256.56,-800.87 267.15,-801.29 259.14,-794.36 256.56,-800.87"/>
</a>
</g>
</g>
<!-- Node6 -->
<g id="Node000006" class="node">
<title>Node6</title>
<g id="a_Node000006"><a xlink:href="BenchmarkRunner_8cpp.html#a0ddf1224851353fc92bfbff6f499fa97" target="_top" xlink:title=" ">
<polygon fill="white" stroke="#666666" points="37,-727 0,-727 0,-707 37,-707 37,-727"/>
<text xml:space="preserve" text-anchor="middle" x="18.5" y="-713.5" font-family="Helvetica,sans-Serif" font-size="10.00">main</text>
</a>
</g>
</g>
<!-- Node5&#45;&gt;Node6 -->
<g id="edge5_Node000005_Node000006" class="edge">
<title>Node5&#45;&gt;Node6</title>
<g id="a_edge5_Node000005_Node000006"><a xlink:title=" ">
<path fill="none" stroke="#63b8ff" d="M61.01,-717C52.14,-717 43.86,-717 37.08,-717"/>
<polygon fill="#63b8ff" stroke="#63b8ff" points="61,-720.5 71,-717 61,-713.5 61,-720.5"/>
</a>
</g>
</g>
<!-- Node7&#45;&gt;Node5 -->
<g id="edge7_Node000007_Node000005" class="edge">
<title>Node7&#45;&gt;Node5</title>
<g id="a_edge7_Node000007_Node000005"><a xlink:title=" ">
<path fill="none" stroke="#63b8ff" d="M257.91,-749.21C231.74,-741.91 202.36,-733.72 179.78,-727.43"/>
<polygon fill="#63b8ff" stroke="#63b8ff" points="256.87,-752.55 267.44,-751.86 258.75,-745.81 256.87,-752.55"/>
</a>
</g>
</g>
<!-- Node8&#45;&gt;Node5 -->
<g id="edge9_Node000008_Node000005" class="edge">
<title>Node8&#45;&gt;Node5</title>
<g id="a_edge9_Node000008_Node000005"><a xlink:title=" ">
<path fill="none" stroke="#63b8ff" d="M257.42,-717C242.08,-717 225.66,-717 210.17,-717"/>
<polygon fill="#63b8ff" stroke="#63b8ff" points="257.39,-720.5 267.39,-717 257.39,-713.5 257.39,-720.5"/>
</a>
</g>
</g>
<!-- Node9&#45;&gt;Node5 -->
<g id="edge11_Node000009_Node000005" class="edge">
<title>Node9&#45;&gt;Node5</title>
<g id="a_edge11_Node000009_Node000005"><a xlink:title=" ">
<path fill="none" stroke="#63b8ff" d="M257.91,-684.79C231.74,-692.09 202.36,-700.28 179.78,-706.57"/>
<polygon fill="#63b8ff" stroke="#63b8ff" points="258.75,-688.19 267.44,-682.14 256.87,-681.45 258.75,-688.19"/>
</a>
</g>
</g>
<!-- Node10&#45;&gt;Node5 -->
<g id="edge13_Node000010_Node000005" class="edge">
<title>Node10&#45;&gt;Node5</title>
<g id="a_edge13_Node000010_Node000005"><a xlink:title=" ">
<path fill="none" stroke="#63b8ff" d="M257.99,-636.32C253.79,-638.1 249.67,-639.99 245.75,-642 209.62,-660.47 172.32,-690.86 153.99,-706.69"/>
<polygon fill="#63b8ff" stroke="#63b8ff" points="259.14,-639.64 267.15,-632.71 256.56,-633.13 259.14,-639.64"/>
</a>
</g>
</g>
<!-- Node12 -->
<g id="Node000012" class="node">
<title>Node12</title>
<g id="a_Node000012"><a xlink:href="classExampleApp.html#a51a63c4107ac16f6c82cda225b2dccea" target="_top" xlink:title=" ">
<polygon fill="white" stroke="#666666" points="202.25,-577 80.5,-577 80.5,-557 202.25,-557 202.25,-577"/>
<text xml:space="preserve" text-anchor="middle" x="141.38" y="-563.5" font-family="Helvetica,sans-Serif" font-size="10.00">ExampleApp::OnRender</text>
</a>
</g>
</g>
<!-- Node11&#45;&gt;Node12 -->
<g id="edge15_Node000011_Node000012" class="edge">
<title>Node11&#45;&gt;Node12</title>
<g id="a_edge15_Node000011_Node000012"><a xlink:title=" ">
<path fill="none" stroke="#63b8ff" d="M236.04,-567C224.79,-567 213.45,-567 202.74,-567"/>
<polygon fill="#63b8ff" stroke="#63b8ff" points="235.72,-570.5 245.72,-567 235.72,-563.5 235.72,-570.5"/>
</a>
</g>
</g>
<!-- Node25 -->
<g id="Node000025" class="node">
<title>Node25</title>
<g id="a_Node000025"><a xlink:href="namespaceLGE_1_1Policies.html#aea3dc2b7df581ee5313cf5972dc7c5df" target="_top" xlink:title=" ">
<polygon fill="white" stroke="#666666" points="393.38,-115 252.12,-115 252.12,-95 393.38,-95 393.38,-115"/>
<text xml:space="preserve" text-anchor="middle" x="322.75" y="-101.5" font-family="Helvetica,sans-Serif" font-size="10.00">LGE::Policies::IsAssetsPath</text>
</a>
</g>
</g>
<!-- Node24&#45;&gt;Node25 -->
<g id="edge28_Node000024_Node000025" class="edge">
<title>Node24&#45;&gt;Node25</title>
<g id="a_edge28_Node000024_Node000025"><a xlink:title=" ">
<path fill="none" stroke="#63b8ff" d="M424.06,-94.78C413.9,-95.82 403.62,-96.86 393.71,-97.87"/>
<polygon fill="#63b8ff" stroke="#63b8ff" points="424.37,-98.27 433.96,-93.77 423.66,-91.3 424.37,-98.27"/>
</a>
</g>
</g>
<!-- Node26 -->
<g id="Node000026" class="node">
<title>Node26</title>
<g id="a_Node000026"><a xlink:href="namespaceLGE_1_1Policies.html#aa4c9ed83bd709ac6d13f04dd68d0d976" target="_top" xlink:title=" ">
<polygon fill="white" stroke="#666666" points="399.75,-77 245.75,-77 245.75,-57 399.75,-57 399.75,-77"/>
<text xml:space="preserve" text-anchor="middle" x="322.75" y="-63.5" font-family="Helvetica,sans-Serif" font-size="10.00">LGE::Policies::IsPackagesPath</text>
</a>
</g>
</g>
<!-- Node24&#45;&gt;Node26 -->
<g id="edge29_Node000024_Node000026" class="edge">
<title>Node24&#45;&gt;Node26</title>
<g id="a_edge29_Node000024_Node000026"><a xlink:title=" ">
<path fill="none" stroke="#63b8ff" d="M424.17,-77.23C416.13,-76.41 408.02,-75.58 400.07,-74.78"/>
<polygon fill="#63b8ff" stroke="#63b8ff" points="423.66,-80.7 433.96,-78.23 424.37,-73.73 423.66,-80.7"/>
</a>
</g>
</g>
<!-- Node27 -->
<g id="Node000027" class="node">
<title>Node27</title>
<g id="a_Node000027"><a xlink:href="namespaceLGE_1_1FSOps.html#a8d90a8bd4f3c45deff002d5c191bf872" target="_top" xlink:title=" ">
<polygon fill="white" stroke="#666666" points="373.88,-39 271.62,-39 271.62,-19 373.88,-19 373.88,-39"/>
<text xml:space="preserve" text-anchor="middle" x="322.75" y="-25.5" font-family="Helvetica,sans-Serif" font-size="10.00">LGE::FSOps::Move</text>
</a>
</g>
</g>
<!-- Node24&#45;&gt;Node27 -->
<g id="edge30_Node000024_Node000027" class="edge">
<title>Node24&#45;&gt;Node27</title>
<g id="a_edge30_Node000024_Node000027"><a xlink:title=" ">
<path fill="none" stroke="#63b8ff" d="M451.43,-72.39C446.07,-70.74 440.78,-68.94 435.75,-67 418.87,-60.5 416.65,-54.46 399.75,-48 391.24,-44.74 381.98,-41.89 372.94,-39.45"/>
<polygon fill="#63b8ff" stroke="#63b8ff" points="450.4,-75.74 460.98,-75.17 452.35,-69.01 450.4,-75.74"/>
</a>
</g>
</g>
</g>
</svg>
