<?xml version="1.0" encoding="UTF-8" standalone="no"?>
<!DOCTYPE svg PUBLIC "-//W3C//DTD SVG 1.1//EN"
 "http://www.w3.org/Graphics/SVG/1.1/DTD/svg11.dtd">
<!-- Generated by graphviz version 14.0.2 (20251019.1705)
 -->
<!-- Title: LGE::Compression::DecompressArchive Pages: 1 -->
<svg width="979pt" height="367pt"
 viewBox="0.00 0.00 979.00 367.00" xmlns="http://www.w3.org/2000/svg" xmlns:xlink="http://www.w3.org/1999/xlink">
<g id="graph0" class="graph" transform="scale(1 1) rotate(0) translate(4 363.22)">
<title>LGE::Compression::DecompressArchive</title>
<!-- Node1 -->
<g id="Node000001" class="node">
<title>Node1</title>
<g id="a_Node000001"><a xlink:title=" ">
<polygon fill="#999999" stroke="#666666" points="160.75,-171 0,-171 0,-139 160.75,-139 160.75,-171"/>
<text xml:space="preserve" text-anchor="start" x="8" y="-157.5" font-family="Helvetica,sans-Serif" font-size="10.00">LGE::Compression::Decompress</text>
<text xml:space="preserve" text-anchor="middle" x="80.38" y="-145.5" font-family="Helvetica,sans-Serif" font-size="10.00">Archive</text>
</a>
</g>
</g>
<!-- Node2 -->
<g id="Node000002" class="node">
<title>Node2</title>
<g id="a_Node000002"><a xlink:href="namespaceLGE_1_1LxFile.html#a7a3f0b3462a34877039001eb0aaac788" target="_top" xlink:title=" ">
<polygon fill="white" stroke="#666666" points="344,-316 201.25,-316 201.25,-296 344,-296 344,-316"/>
<text xml:space="preserve" text-anchor="middle" x="272.62" y="-302.5" font-family="Helvetica,sans-Serif" font-size="10.00">LGE::LxFile::CreateDirectory</text>
</a>
</g>
</g>
<!-- Node1&#45;&gt;Node2 -->
<g id="edge1_Node000001_Node000002" class="edge">
<title>Node1&#45;&gt;Node2</title>
<g id="a_edge1_Node000001_Node000002"><a xlink:title=" ">
<path fill="none" stroke="#63b8ff" d="M90.87,-171.21C108.2,-199.3 147.72,-256.91 196.75,-287 199.2,-288.5 201.77,-289.89 204.41,-291.17"/>
<polygon fill="#63b8ff" stroke="#63b8ff" points="202.94,-294.35 213.52,-294.98 205.65,-287.89 202.94,-294.35"/>
</a>
</g>
</g>
<!-- Node7 -->
<g id="Node000007" class="node">
<title>Node7</title>
<g id="a_Node000007"><a xlink:href="namespaceLGE_1_1LxFile.html#a11e62876b312a11b881b484bb3a5ee71" target="_top" xlink:title=" ">
<polygon fill="white" stroke="#666666" points="323.38,-108 221.88,-108 221.88,-88 323.38,-88 323.38,-108"/>
<text xml:space="preserve" text-anchor="middle" x="272.62" y="-94.5" font-family="Helvetica,sans-Serif" font-size="10.00">LGE::LxFile::Exists</text>
</a>
</g>
</g>
<!-- Node1&#45;&gt;Node7 -->
<g id="edge8_Node000001_Node000007" class="edge">
<title>Node1&#45;&gt;Node7</title>
<g id="a_edge8_Node000001_Node000007"><a xlink:title=" ">
<path fill="none" stroke="#63b8ff" d="M136.4,-138.51C164.86,-129.99 199.17,-119.71 226.11,-111.64"/>
<polygon fill="#63b8ff" stroke="#63b8ff" points="226.77,-115.09 235.34,-108.87 224.76,-108.39 226.77,-115.09"/>
</a>
</g>
</g>
<!-- Node8 -->
<g id="Node000008" class="node">
<title>Node8</title>
<g id="a_Node000008"><a xlink:href="namespaceLGE_1_1Compression.html#a7d42ab993dbaa3b8a82b82e5d0d6ea8a" target="_top" xlink:title=" ">
<polygon fill="white" stroke="#666666" points="340.62,-70 204.62,-70 204.62,-38 340.62,-38 340.62,-70"/>
<text xml:space="preserve" text-anchor="start" x="212.62" y="-56.5" font-family="Helvetica,sans-Serif" font-size="10.00">LGE::Compression::Format</text>
<text xml:space="preserve" text-anchor="middle" x="272.62" y="-44.5" font-family="Helvetica,sans-Serif" font-size="10.00">ToString</text>
</a>
</g>
</g>
<!-- Node1&#45;&gt;Node8 -->
<g id="edge9_Node000001_Node000008" class="edge">
<title>Node1&#45;&gt;Node8</title>
<g id="a_edge9_Node000001_Node000008"><a xlink:title=" ">
<path fill="none" stroke="#63b8ff" d="M102.48,-138.65C124.88,-121.91 161.8,-95.98 196.75,-79 199.85,-77.49 203.07,-76.04 206.35,-74.64"/>
<polygon fill="#63b8ff" stroke="#63b8ff" points="207.59,-77.92 215.57,-70.95 204.98,-71.42 207.59,-77.92"/>
</a>
</g>
</g>
<!-- Node9 -->
<g id="Node000009" class="node">
<title>Node9</title>
<g id="a_Node000009"><a xlink:href="namespaceLGE_1_1Compression.html#a5cb00aa30da7aad66c9fcf19d8ba51e5" target="_top" xlink:title=" ">
<polygon fill="white" stroke="#666666" points="348.5,-234 196.75,-234 196.75,-202 348.5,-202 348.5,-234"/>
<text xml:space="preserve" text-anchor="start" x="204.75" y="-220.5" font-family="Helvetica,sans-Serif" font-size="10.00">LGE::Compression::GetFormat</text>
<text xml:space="preserve" text-anchor="middle" x="272.62" y="-208.5" font-family="Helvetica,sans-Serif" font-size="10.00">FromExtension</text>
</a>
</g>
</g>
<!-- Node1&#45;&gt;Node9 -->
<g id="edge10_Node000001_Node000009" class="edge">
<title>Node1&#45;&gt;Node9</title>
<g id="a_edge10_Node000001_Node000009"><a xlink:title=" ">
<path fill="none" stroke="#63b8ff" d="M130.86,-171.39C155.43,-179.52 185.32,-189.42 211.22,-198"/>
<polygon fill="#63b8ff" stroke="#63b8ff" points="210.02,-201.29 220.62,-201.11 212.22,-194.64 210.02,-201.29"/>
</a>
</g>
</g>
<!-- Node12 -->
<g id="Node000012" class="node">
<title>Node12</title>
<g id="a_Node000012"><a xlink:href="namespaceLGE_1_1LxPath.html#aefae4d45f84718077f5218f64d2f074c" target="_top" xlink:title=" ">
<polygon fill="white" stroke="#666666" points="686.12,-184 563.62,-184 563.62,-164 686.12,-164 686.12,-184"/>
<text xml:space="preserve" text-anchor="middle" x="624.88" y="-170.5" font-family="Helvetica,sans-Serif" font-size="10.00">LGE::LxPath::GetParent</text>
</a>
</g>
</g>
<!-- Node1&#45;&gt;Node12 -->
<g id="edge14_Node000001_Node000012" class="edge">
<title>Node1&#45;&gt;Node12</title>
<g id="a_edge14_Node000001_Node000012"><a xlink:title=" ">
<path fill="none" stroke="#63b8ff" d="M161.13,-157.79C266.49,-161.48 450.5,-167.93 551.84,-171.48"/>
<polygon fill="#63b8ff" stroke="#63b8ff" points="551.55,-174.97 561.67,-171.82 551.8,-167.97 551.55,-174.97"/>
</a>
</g>
</g>
<!-- Node13 -->
<g id="Node000013" class="node">
<title>Node13</title>
<g id="a_Node000013"><a xlink:href="classLGE_1_1Log.html#ab0265ee050b8873a2fd31fbdb696ced0" target="_top" xlink:title=" ">
<polygon fill="white" stroke="#666666" points="312.5,-20 232.75,-20 232.75,0 312.5,0 312.5,-20"/>
<text xml:space="preserve" text-anchor="middle" x="272.62" y="-6.5" font-family="Helvetica,sans-Serif" font-size="10.00">LGE::Log::Info</text>
</a>
</g>
</g>
<!-- Node1&#45;&gt;Node13 -->
<g id="edge16_Node000001_Node000013" class="edge">
<title>Node1&#45;&gt;Node13</title>
<g id="a_edge16_Node000001_Node000013"><a xlink:title=" ">
<path fill="none" stroke="#63b8ff" d="M91.63,-138.68C109.53,-111.58 149.15,-57.47 196.75,-29 204.36,-24.45 213.03,-20.98 221.7,-18.34"/>
<polygon fill="#63b8ff" stroke="#63b8ff" points="222.4,-21.78 231.16,-15.81 220.59,-15.02 222.4,-21.78"/>
</a>
</g>
</g>
<!-- Node14 -->
<g id="Node000014" class="node">
<title>Node14</title>
<g id="a_Node000014"><a xlink:href="namespaceLGE_1_1LxPath.html#a94ec3bdfd6948ddc25cda5d18154d4cf" target="_top" xlink:title=" ">
<polygon fill="white" stroke="#666666" points="501.38,-146 405.12,-146 405.12,-126 501.38,-126 501.38,-146"/>
<text xml:space="preserve" text-anchor="middle" x="453.25" y="-132.5" font-family="Helvetica,sans-Serif" font-size="10.00">LGE::LxPath::Join</text>
</a>
</g>
</g>
<!-- Node1&#45;&gt;Node14 -->
<g id="edge17_Node000001_Node000014" class="edge">
<title>Node1&#45;&gt;Node14</title>
<g id="a_edge17_Node000001_Node000014"><a xlink:title=" ">
<path fill="none" stroke="#63b8ff" d="M160.94,-150.92C230.77,-147.35 330.72,-142.23 393.52,-139.01"/>
<polygon fill="#63b8ff" stroke="#63b8ff" points="393.48,-142.52 403.28,-138.51 393.12,-135.52 393.48,-142.52"/>
</a>
</g>
</g>
<!-- Node15 -->
<g id="Node000015" class="node">
<title>Node15</title>
<g id="a_Node000015"><a xlink:href="namespaceLGE_1_1LxFile.html#a06d0b8c5590da8bc48cf22d321fc4074" target="_top" xlink:title=" ">
<polygon fill="white" stroke="#666666" points="326.38,-278 218.88,-278 218.88,-258 326.38,-258 326.38,-278"/>
<text xml:space="preserve" text-anchor="middle" x="272.62" y="-264.5" font-family="Helvetica,sans-Serif" font-size="10.00">LGE::LxFile::WriteAll</text>
</a>
</g>
</g>
<!-- Node1&#45;&gt;Node15 -->
<g id="edge19_Node000001_Node000015" class="edge">
<title>Node1&#45;&gt;Node15</title>
<g id="a_edge19_Node000001_Node000015"><a xlink:title=" ">
<path fill="none" stroke="#63b8ff" d="M98.87,-171.34C120.44,-190.73 158.9,-222.96 196.75,-243 204.5,-247.1 213.05,-250.72 221.52,-253.83"/>
<polygon fill="#63b8ff" stroke="#63b8ff" points="220.12,-257.05 230.71,-257.01 222.41,-250.43 220.12,-257.05"/>
</a>
</g>
</g>
<!-- Node3 -->
<g id="Node000003" class="node">
<title>Node3</title>
<g id="a_Node000003"><a xlink:href="classLGE_1_1Log.html#a53f3f4b8797ffd18145739c9e66d690a" target="_top" xlink:title=" ">
<polygon fill="white" stroke="#666666" points="970.5,-336 886.25,-336 886.25,-316 970.5,-316 970.5,-336"/>
<text xml:space="preserve" text-anchor="middle" x="928.38" y="-322.5" font-family="Helvetica,sans-Serif" font-size="10.00">LGE::Log::Error</text>
</a>
</g>
</g>
<!-- Node2&#45;&gt;Node3 -->
<g id="edge2_Node000002_Node000003" class="edge">
<title>Node2&#45;&gt;Node3</title>
<g id="a_edge2_Node000002_Node000003"><a xlink:title=" ">
<path fill="none" stroke="#63b8ff" d="M299.55,-316.36C321.7,-324.62 354.63,-335.52 384.5,-340 589.21,-370.68 644.08,-358.56 850.25,-340 858.17,-339.29 866.5,-338.17 874.63,-336.87"/>
<polygon fill="#63b8ff" stroke="#63b8ff" points="875.18,-340.33 884.44,-335.19 873.99,-333.43 875.18,-340.33"/>
</a>
</g>
</g>
<!-- Node4 -->
<g id="Node000004" class="node">
<title>Node4</title>
<g id="a_Node000004"><a xlink:href="namespaceLGE_1_1VFS.html#abb5d35abfe80efe2f7a07394ad5b706a" target="_top" xlink:title=" ">
<polygon fill="white" stroke="#666666" points="512.62,-285 393.88,-285 393.88,-265 512.62,-265 512.62,-285"/>
<text xml:space="preserve" text-anchor="middle" x="453.25" y="-271.5" font-family="Helvetica,sans-Serif" font-size="10.00">LGE::VFS::IsReadOnly</text>
</a>
</g>
</g>
<!-- Node2&#45;&gt;Node4 -->
<g id="edge3_Node000002_Node000004" class="edge">
<title>Node2&#45;&gt;Node4</title>
<g id="a_edge3_Node000002_Node000004"><a xlink:title=" ">
<path fill="none" stroke="#63b8ff" d="M334.1,-295.5C349.72,-292.79 366.67,-289.85 382.71,-287.07"/>
<polygon fill="#63b8ff" stroke="#63b8ff" points="382.91,-290.59 392.16,-285.43 381.71,-283.69 382.91,-290.59"/>
</a>
</g>
</g>
<!-- Node5 -->
<g id="Node000005" class="node">
<title>Node5</title>
<g id="a_Node000005"><a xlink:href="namespaceLGE_1_1LxPath.html#ab664986e94ce09aa029f9eb2fcf50133" target="_top" xlink:title=" ">
<polygon fill="white" stroke="#666666" points="686.88,-298 562.88,-298 562.88,-278 686.88,-278 686.88,-298"/>
<text xml:space="preserve" text-anchor="middle" x="624.88" y="-284.5" font-family="Helvetica,sans-Serif" font-size="10.00">LGE::LxPath::IsSubPath</text>
</a>
</g>
</g>
<!-- Node4&#45;&gt;Node5 -->
<g id="edge4_Node000004_Node000005" class="edge">
<title>Node4&#45;&gt;Node5</title>
<g id="a_edge4_Node000004_Node000005"><a xlink:title=" ">
<path fill="none" stroke="#63b8ff" d="M513.1,-279.51C525.46,-280.46 538.63,-281.47 551.42,-282.45"/>
<polygon fill="#63b8ff" stroke="#63b8ff" points="550.79,-285.91 561.03,-283.18 551.32,-278.93 550.79,-285.91"/>
</a>
</g>
</g>
<!-- Node6 -->
<g id="Node000006" class="node">
<title>Node6</title>
<g id="a_Node000006"><a xlink:href="namespaceLGE_1_1LxPath.html#a314a60ce690c90f4ee0b4e64c0199408" target="_top" xlink:title=" ">
<polygon fill="white" stroke="#666666" points="850.25,-241 727.75,-241 727.75,-221 850.25,-221 850.25,-241"/>
<text xml:space="preserve" text-anchor="middle" x="789" y="-227.5" font-family="Helvetica,sans-Serif" font-size="10.00">LGE::LxPath::Normalize</text>
</a>
</g>
</g>
<!-- Node4&#45;&gt;Node6 -->
<g id="edge7_Node000004_Node000006" class="edge">
<title>Node4&#45;&gt;Node6</title>
<g id="a_edge7_Node000004_Node000006"><a xlink:title=" ">
<path fill="none" stroke="#63b8ff" d="M512.77,-267.29C569.44,-259.81 655.48,-248.47 716.25,-240.46"/>
<polygon fill="#63b8ff" stroke="#63b8ff" points="716.34,-243.98 725.79,-239.2 715.42,-237.04 716.34,-243.98"/>
</a>
</g>
</g>
<!-- Node5&#45;&gt;Node6 -->
<g id="edge5_Node000005_Node000006" class="edge">
<title>Node5&#45;&gt;Node6</title>
<g id="a_edge5_Node000005_Node000006"><a xlink:title=" ">
<path fill="none" stroke="#63b8ff" d="M655.61,-277.55C681.36,-268.49 718.83,-255.32 747.35,-245.29"/>
<polygon fill="#63b8ff" stroke="#63b8ff" points="748.48,-248.61 756.75,-241.99 746.16,-242 748.48,-248.61"/>
</a>
</g>
</g>
<!-- Node6&#45;&gt;Node3 -->
<g id="edge6_Node000006_Node000003" class="edge">
<title>Node6&#45;&gt;Node3</title>
<g id="a_edge6_Node000006_Node000003"><a xlink:title=" ">
<path fill="none" stroke="#63b8ff" d="M804.96,-241.35C828.6,-257.69 874.81,-289.65 903.2,-309.28"/>
<polygon fill="#63b8ff" stroke="#63b8ff" points="900.97,-312 911.19,-314.8 904.95,-306.24 900.97,-312"/>
</a>
</g>
</g>
<!-- Node10 -->
<g id="Node000010" class="node">
<title>Node10</title>
<g id="a_Node000010"><a xlink:href="namespaceLGE_1_1LxPath.html#a442709c353add1504cfb1d9d496f3014" target="_top" xlink:title=" ">
<polygon fill="white" stroke="#666666" points="522,-225 384.5,-225 384.5,-205 522,-205 522,-225"/>
<text xml:space="preserve" text-anchor="middle" x="453.25" y="-211.5" font-family="Helvetica,sans-Serif" font-size="10.00">LGE::LxPath::GetExtension</text>
</a>
</g>
</g>
<!-- Node9&#45;&gt;Node10 -->
<g id="edge11_Node000009_Node000010" class="edge">
<title>Node9&#45;&gt;Node10</title>
<g id="a_edge11_Node000009_Node000010"><a xlink:title=" ">
<path fill="none" stroke="#63b8ff" d="M348.86,-216.74C356.74,-216.6 364.77,-216.47 372.69,-216.34"/>
<polygon fill="#63b8ff" stroke="#63b8ff" points="372.75,-219.84 382.69,-216.17 372.63,-212.84 372.75,-219.84"/>
</a>
</g>
</g>
<!-- Node11 -->
<g id="Node000011" class="node">
<title>Node11</title>
<g id="a_Node000011"><a xlink:href="namespaceLGE_1_1LxPath.html#a282200340a7ec214f14f5d64e9e41396" target="_top" xlink:title=" ">
<polygon fill="white" stroke="#666666" points="691.75,-222 558,-222 558,-202 691.75,-202 691.75,-222"/>
<text xml:space="preserve" text-anchor="middle" x="624.88" y="-208.5" font-family="Helvetica,sans-Serif" font-size="10.00">LGE::LxPath::GetFilename</text>
</a>
</g>
</g>
<!-- Node10&#45;&gt;Node11 -->
<g id="edge12_Node000010_Node000011" class="edge">
<title>Node10&#45;&gt;Node11</title>
<g id="a_edge12_Node000010_Node000011"><a xlink:title=" ">
<path fill="none" stroke="#63b8ff" d="M522.27,-213.8C530.16,-213.66 538.25,-213.51 546.26,-213.37"/>
<polygon fill="#63b8ff" stroke="#63b8ff" points="546.05,-216.88 555.99,-213.2 545.93,-209.88 546.05,-216.88"/>
</a>
</g>
</g>
<!-- Node11&#45;&gt;Node6 -->
<g id="edge13_Node000011_Node000006" class="edge">
<title>Node11&#45;&gt;Node6</title>
<g id="a_edge13_Node000011_Node000006"><a xlink:title=" ">
<path fill="none" stroke="#63b8ff" d="M691.82,-219.73C699.8,-220.66 707.99,-221.62 716.05,-222.57"/>
<polygon fill="#63b8ff" stroke="#63b8ff" points="715.5,-226.03 725.84,-223.72 716.31,-219.07 715.5,-226.03"/>
</a>
</g>
</g>
<!-- Node12&#45;&gt;Node6 -->
<g id="edge15_Node000012_Node000006" class="edge">
<title>Node12&#45;&gt;Node6</title>
<g id="a_edge15_Node000012_Node000006"><a xlink:title=" ">
<path fill="none" stroke="#63b8ff" d="M664.38,-184.44C673.41,-187.07 682.96,-190.01 691.75,-193 712.17,-199.96 734.61,-208.75 752.68,-216.12"/>
<polygon fill="#63b8ff" stroke="#63b8ff" points="751.33,-219.35 761.91,-219.93 754,-212.88 751.33,-219.35"/>
</a>
</g>
</g>
<!-- Node14&#45;&gt;Node6 -->
<g id="edge18_Node000014_Node000006" class="edge">
<title>Node14&#45;&gt;Node6</title>
<g id="a_edge18_Node000014_Node000006"><a xlink:title=" ">
<path fill="none" stroke="#63b8ff" d="M501.57,-131.9C550.84,-129.41 629.37,-130.51 691.75,-155 723.6,-167.5 753.39,-194.26 771.16,-212.44"/>
<polygon fill="#63b8ff" stroke="#63b8ff" points="768.41,-214.63 777.83,-219.49 773.49,-209.82 768.41,-214.63"/>
</a>
</g>
</g>
<!-- Node15&#45;&gt;Node3 -->
<g id="edge20_Node000015_Node000003" class="edge">
<title>Node15&#45;&gt;Node3</title>
<g id="a_edge20_Node000015_Node000003"><a xlink:title=" ">
<path fill="none" stroke="#63b8ff" d="M315.11,-278.44C340.75,-284.75 371.21,-291.96 384.5,-294 562.72,-321.4 777.17,-325.73 874.6,-326.16"/>
<polygon fill="#63b8ff" stroke="#63b8ff" points="874.37,-329.66 884.38,-326.19 874.39,-322.66 874.37,-329.66"/>
</a>
</g>
</g>
<!-- Node15&#45;&gt;Node4 -->
<g id="edge21_Node000015_Node000004" class="edge">
<title>Node15&#45;&gt;Node4</title>
<g id="a_edge21_Node000015_Node000004"><a xlink:title=" ">
<path fill="none" stroke="#63b8ff" d="M326.73,-270.08C344.11,-270.76 363.68,-271.53 382.11,-272.25"/>
<polygon fill="#63b8ff" stroke="#63b8ff" points="381.77,-275.74 391.9,-272.63 382.04,-268.75 381.77,-275.74"/>
</a>
</g>
</g>
</g>
</svg>
