<?xml version="1.0" encoding="UTF-8" standalone="no"?>
<!DOCTYPE svg PUBLIC "-//W3C//DTD SVG 1.1//EN"
 "http://www.w3.org/Graphics/SVG/1.1/DTD/svg11.dtd">
<!-- Generated by graphviz version 14.0.2 (20251019.1705)
 -->
<!-- Title: LGE::LxPath::ToAbsolute Pages: 1 -->
<svg width="585pt" height="142pt"
 viewBox="0.00 0.00 585.00 142.00" xmlns="http://www.w3.org/2000/svg" xmlns:xlink="http://www.w3.org/1999/xlink">
<g id="graph0" class="graph" transform="scale(1 1) rotate(0) translate(4 138)">
<title>LGE::LxPath::ToAbsolute</title>
<!-- Node1 -->
<g id="Node000001" class="node">
<title>Node1</title>
<g id="a_Node000001"><a xlink:title=" ">
<polygon fill="#999999" stroke="#666666" points="127,-58 0,-58 0,-38 127,-38 127,-58"/>
<text xml:space="preserve" text-anchor="middle" x="63.5" y="-44.5" font-family="Helvetica,sans-Serif" font-size="10.00">LGE::LxPath::ToAbsolute</text>
</a>
</g>
</g>
<!-- Node2 -->
<g id="Node000002" class="node">
<title>Node2</title>
<g id="a_Node000002"><a xlink:href="namespaceLGE_1_1LxPath.html#a012b60f3a9d31adc62694d2a4617c604" target="_top" xlink:title=" ">
<polygon fill="white" stroke="#666666" points="298.25,-96 163,-96 163,-76 298.25,-76 298.25,-96"/>
<text xml:space="preserve" text-anchor="middle" x="230.62" y="-82.5" font-family="Helvetica,sans-Serif" font-size="10.00">LGE::LxPath::GetRootPath</text>
</a>
</g>
</g>
<!-- Node1&#45;&gt;Node2 -->
<g id="edge1_Node000001_Node000002" class="edge">
<title>Node1&#45;&gt;Node2</title>
<g id="a_edge1_Node000001_Node000002"><a xlink:title=" ">
<path fill="none" stroke="#63b8ff" d="M110.06,-58.48C129.55,-62.97 152.51,-68.25 173.08,-72.99"/>
<polygon fill="#63b8ff" stroke="#63b8ff" points="172.21,-76.38 182.74,-75.21 173.78,-69.56 172.21,-76.38"/>
</a>
</g>
</g>
<!-- Node5 -->
<g id="Node000005" class="node">
<title>Node5</title>
<g id="a_Node000005"><a xlink:href="namespaceLGE_1_1LxPath.html#a94ec3bdfd6948ddc25cda5d18154d4cf" target="_top" xlink:title=" ">
<polygon fill="white" stroke="#666666" points="278.75,-58 182.5,-58 182.5,-38 278.75,-38 278.75,-58"/>
<text xml:space="preserve" text-anchor="middle" x="230.62" y="-44.5" font-family="Helvetica,sans-Serif" font-size="10.00">LGE::LxPath::Join</text>
</a>
</g>
</g>
<!-- Node1&#45;&gt;Node5 -->
<g id="edge4_Node000001_Node000005" class="edge">
<title>Node1&#45;&gt;Node5</title>
<g id="a_edge4_Node000001_Node000005"><a xlink:title=" ">
<path fill="none" stroke="#63b8ff" d="M127.4,-48C141.57,-48 156.56,-48 170.56,-48"/>
<polygon fill="#63b8ff" stroke="#63b8ff" points="170.54,-51.5 180.54,-48 170.54,-44.5 170.54,-51.5"/>
</a>
</g>
</g>
<!-- Node8 -->
<g id="Node000008" class="node">
<title>Node8</title>
<g id="a_Node000008"><a xlink:href="classLGE_1_1Log.html#aa6f98018af29c23dd7f574d3df5dda5e" target="_top" xlink:title=" ">
<polygon fill="white" stroke="#666666" points="273.5,-20 187.75,-20 187.75,0 273.5,0 273.5,-20"/>
<text xml:space="preserve" text-anchor="middle" x="230.62" y="-6.5" font-family="Helvetica,sans-Serif" font-size="10.00">LGE::Log::Warn</text>
</a>
</g>
</g>
<!-- Node1&#45;&gt;Node8 -->
<g id="edge7_Node000001_Node000008" class="edge">
<title>Node1&#45;&gt;Node8</title>
<g id="a_edge7_Node000001_Node000008"><a xlink:title=" ">
<path fill="none" stroke="#63b8ff" d="M110.06,-37.52C130.53,-32.8 154.83,-27.21 176.16,-22.3"/>
<polygon fill="#63b8ff" stroke="#63b8ff" points="176.9,-25.73 185.86,-20.07 175.33,-18.9 176.9,-25.73"/>
</a>
</g>
</g>
<!-- Node3 -->
<g id="Node000003" class="node">
<title>Node3</title>
<g id="a_Node000003"><a xlink:href="namespaceLGE_1_1LxFS.html#a5684a30f3fa2906f4dafed0258a79166" target="_top" xlink:title=" ">
<polygon fill="white" stroke="#666666" points="455.62,-134 335.38,-134 335.38,-114 455.62,-114 455.62,-134"/>
<text xml:space="preserve" text-anchor="middle" x="395.5" y="-120.5" font-family="Helvetica,sans-Serif" font-size="10.00">LGE::LxFS::IsInitialized</text>
</a>
</g>
</g>
<!-- Node2&#45;&gt;Node3 -->
<g id="edge2_Node000002_Node000003" class="edge">
<title>Node2&#45;&gt;Node3</title>
<g id="a_edge2_Node000002_Node000003"><a xlink:title=" ">
<path fill="none" stroke="#63b8ff" d="M276.56,-96.48C295.79,-100.97 318.44,-106.25 338.72,-110.99"/>
<polygon fill="#63b8ff" stroke="#63b8ff" points="337.7,-114.34 348.24,-113.21 339.29,-107.53 337.7,-114.34"/>
</a>
</g>
</g>
<!-- Node4 -->
<g id="Node000004" class="node">
<title>Node4</title>
<g id="a_Node000004"><a xlink:href="namespaceLGE_1_1LxFS.html#a12aeb6699602f14153953dceb4284914" target="_top" xlink:title=" ">
<polygon fill="white" stroke="#666666" points="443.62,-96 347.38,-96 347.38,-76 443.62,-76 443.62,-96"/>
<text xml:space="preserve" text-anchor="middle" x="395.5" y="-82.5" font-family="Helvetica,sans-Serif" font-size="10.00">LGE::LxFS::Paths</text>
</a>
</g>
</g>
<!-- Node2&#45;&gt;Node4 -->
<g id="edge3_Node000002_Node000004" class="edge">
<title>Node2&#45;&gt;Node4</title>
<g id="a_edge3_Node000002_Node000004"><a xlink:title=" ">
<path fill="none" stroke="#63b8ff" d="M298.34,-86C310.73,-86 323.58,-86 335.7,-86"/>
<polygon fill="#63b8ff" stroke="#63b8ff" points="335.55,-89.5 345.55,-86 335.55,-82.5 335.55,-89.5"/>
</a>
</g>
</g>
<!-- Node6 -->
<g id="Node000006" class="node">
<title>Node6</title>
<g id="a_Node000006"><a xlink:href="namespaceLGE_1_1LxPath.html#a314a60ce690c90f4ee0b4e64c0199408" target="_top" xlink:title=" ">
<polygon fill="white" stroke="#666666" points="456.75,-58 334.25,-58 334.25,-38 456.75,-38 456.75,-58"/>
<text xml:space="preserve" text-anchor="middle" x="395.5" y="-44.5" font-family="Helvetica,sans-Serif" font-size="10.00">LGE::LxPath::Normalize</text>
</a>
</g>
</g>
<!-- Node5&#45;&gt;Node6 -->
<g id="edge5_Node000005_Node000006" class="edge">
<title>Node5&#45;&gt;Node6</title>
<g id="a_edge5_Node000005_Node000006"><a xlink:title=" ">
<path fill="none" stroke="#63b8ff" d="M279.17,-48C292.79,-48 307.95,-48 322.68,-48"/>
<polygon fill="#63b8ff" stroke="#63b8ff" points="322.31,-51.5 332.31,-48 322.31,-44.5 322.31,-51.5"/>
</a>
</g>
</g>
<!-- Node7 -->
<g id="Node000007" class="node">
<title>Node7</title>
<g id="a_Node000007"><a xlink:href="classLGE_1_1Log.html#a53f3f4b8797ffd18145739c9e66d690a" target="_top" xlink:title=" ">
<polygon fill="white" stroke="#666666" points="577,-58 492.75,-58 492.75,-38 577,-38 577,-58"/>
<text xml:space="preserve" text-anchor="middle" x="534.88" y="-44.5" font-family="Helvetica,sans-Serif" font-size="10.00">LGE::Log::Error</text>
</a>
</g>
</g>
<!-- Node6&#45;&gt;Node7 -->
<g id="edge6_Node000006_Node000007" class="edge">
<title>Node6&#45;&gt;Node7</title>
<g id="a_edge6_Node000006_Node000007"><a xlink:title=" ">
<path fill="none" stroke="#63b8ff" d="M457.15,-48C465.17,-48 473.34,-48 481.2,-48"/>
<polygon fill="#63b8ff" stroke="#63b8ff" points="480.95,-51.5 490.95,-48 480.95,-44.5 480.95,-51.5"/>
</a>
</g>
</g>
</g>
</svg>
