<?xml version="1.0" encoding="UTF-8" standalone="no"?>
<!DOCTYPE svg PUBLIC "-//W3C//DTD SVG 1.1//EN"
 "http://www.w3.org/Graphics/SVG/1.1/DTD/svg11.dtd">
<!-- Generated by graphviz version 14.0.2 (20251019.1705)
 -->
<!-- Title: LGE::LxPath::GetRootPath Pages: 1 -->
<svg width="887pt" height="243pt"
 viewBox="0.00 0.00 887.00 243.00" xmlns="http://www.w3.org/2000/svg" xmlns:xlink="http://www.w3.org/1999/xlink">
<g id="graph0" class="graph" transform="scale(1 1) rotate(0) translate(4 239)">
<title>LGE::LxPath::GetRootPath</title>
<!-- Node1 -->
<g id="Node000001" class="node">
<title>Node1</title>
<g id="a_Node000001"><a xlink:title=" ">
<polygon fill="#999999" stroke="#666666" points="879,-153 743.75,-153 743.75,-133 879,-133 879,-153"/>
<text xml:space="preserve" text-anchor="middle" x="811.38" y="-139.5" font-family="Helvetica,sans-Serif" font-size="10.00">LGE::LxPath::GetRootPath</text>
</a>
</g>
</g>
<!-- Node2 -->
<g id="Node000002" class="node">
<title>Node2</title>
<g id="a_Node000002"><a xlink:href="namespaceLGE_1_1FSOps.html#a7c3c8bb77f4634c4667e4896b11d66ad" target="_top" xlink:title=" ">
<polygon fill="white" stroke="#666666" points="542.88,-210 421.12,-210 421.12,-190 542.88,-190 542.88,-210"/>
<text xml:space="preserve" text-anchor="middle" x="482" y="-196.5" font-family="Helvetica,sans-Serif" font-size="10.00">LGE::FSOps::ImportFile</text>
</a>
</g>
</g>
<!-- Node1&#45;&gt;Node2 -->
<g id="edge1_Node000001_Node000002" class="edge">
<title>Node1&#45;&gt;Node2</title>
<g id="a_edge1_Node000001_Node000002"><a xlink:title=" ">
<path fill="none" stroke="#63b8ff" d="M758.25,-156.08C742.12,-159.89 724.25,-163.86 707.75,-167 652.35,-177.53 588.71,-186.59 543.33,-192.54"/>
<polygon fill="#63b8ff" stroke="#63b8ff" points="758.72,-159.57 767.63,-153.84 757.09,-152.76 758.72,-159.57"/>
</a>
</g>
</g>
<!-- Node3 -->
<g id="Node000003" class="node">
<title>Node3</title>
<g id="a_Node000003"><a xlink:href="namespaceLGE_1_1ImportExport.html#af78ec4a5e430226c5054a220cedc76b1" target="_top" xlink:title=" ">
<polygon fill="white" stroke="#666666" points="383.25,-235 279.5,-235 279.5,-203 383.25,-203 383.25,-235"/>
<text xml:space="preserve" text-anchor="start" x="287.5" y="-221.5" font-family="Helvetica,sans-Serif" font-size="10.00">LGE::ImportExport::</text>
<text xml:space="preserve" text-anchor="middle" x="331.38" y="-209.5" font-family="Helvetica,sans-Serif" font-size="10.00">ImportFile</text>
</a>
</g>
</g>
<!-- Node1&#45;&gt;Node3 -->
<g id="edge5_Node000001_Node000003" class="edge">
<title>Node1&#45;&gt;Node3</title>
<g id="a_edge5_Node000001_Node000003"><a xlink:title=" ">
<path fill="none" stroke="#63b8ff" d="M782.02,-158.79C761.86,-169.37 733.84,-182.82 707.75,-191 596.13,-225.99 457.08,-225.74 383.53,-222.42"/>
<polygon fill="#63b8ff" stroke="#63b8ff" points="783.57,-161.92 790.73,-154.12 780.26,-155.75 783.57,-161.92"/>
</a>
</g>
</g>
<!-- Node6 -->
<g id="Node000006" class="node">
<title>Node6</title>
<g id="a_Node000006"><a xlink:href="namespaceLGE_1_1FSOps.html#a8d90a8bd4f3c45deff002d5c191bf872" target="_top" xlink:title=" ">
<polygon fill="white" stroke="#666666" points="533.12,-172 430.88,-172 430.88,-152 533.12,-152 533.12,-172"/>
<text xml:space="preserve" text-anchor="middle" x="482" y="-158.5" font-family="Helvetica,sans-Serif" font-size="10.00">LGE::FSOps::Move</text>
</a>
</g>
</g>
<!-- Node1&#45;&gt;Node6 -->
<g id="edge6_Node000001_Node000006" class="edge">
<title>Node1&#45;&gt;Node6</title>
<g id="a_edge6_Node000001_Node000006"><a xlink:title=" ">
<path fill="none" stroke="#63b8ff" d="M732.12,-147.54C670.57,-151.11 586.63,-155.99 533.62,-159.06"/>
<polygon fill="#63b8ff" stroke="#63b8ff" points="732.04,-151.05 741.82,-146.98 731.64,-144.06 732.04,-151.05"/>
</a>
</g>
</g>
<!-- Node7 -->
<g id="Node000007" class="node">
<title>Node7</title>
<g id="a_Node000007"><a xlink:href="namespaceLGE_1_1FSOps.html#af18c06e20bfe14f2a2de43ea8bddefc1" target="_top" xlink:title=" ">
<polygon fill="white" stroke="#666666" points="544,-58 420,-58 420,-38 544,-38 544,-58"/>
<text xml:space="preserve" text-anchor="middle" x="482" y="-44.5" font-family="Helvetica,sans-Serif" font-size="10.00">LGE::FSOps::NewAsset</text>
</a>
</g>
</g>
<!-- Node1&#45;&gt;Node7 -->
<g id="edge7_Node000001_Node000007" class="edge">
<title>Node1&#45;&gt;Node7</title>
<g id="a_edge7_Node000001_Node000007"><a xlink:title=" ">
<path fill="none" stroke="#63b8ff" d="M773.94,-128.44C754.47,-120.93 730,-111.92 707.75,-105 647.21,-86.17 576.09,-68.94 530.33,-58.46"/>
<polygon fill="#63b8ff" stroke="#63b8ff" points="772.49,-131.62 783.08,-131.99 775.03,-125.1 772.49,-131.62"/>
</a>
</g>
</g>
<!-- Node8 -->
<g id="Node000008" class="node">
<title>Node8</title>
<g id="a_Node000008"><a xlink:href="namespaceLGE_1_1FSOps.html#a7f1957de8291a7a7d914feb628c6a85b" target="_top" xlink:title=" ">
<polygon fill="white" stroke="#666666" points="544.75,-20 419.25,-20 419.25,0 544.75,0 544.75,-20"/>
<text xml:space="preserve" text-anchor="middle" x="482" y="-6.5" font-family="Helvetica,sans-Serif" font-size="10.00">LGE::FSOps::NewFolder</text>
</a>
</g>
</g>
<!-- Node1&#45;&gt;Node8 -->
<g id="edge8_Node000001_Node000008" class="edge">
<title>Node1&#45;&gt;Node8</title>
<g id="a_edge8_Node000001_Node000008"><a xlink:title=" ">
<path fill="none" stroke="#63b8ff" d="M790.68,-125.04C771.02,-108.02 739.29,-82.92 707.75,-68 655.48,-43.27 591.19,-28.04 544.78,-19.43"/>
<polygon fill="#63b8ff" stroke="#63b8ff" points="788.35,-127.66 798.16,-131.66 792.99,-122.41 788.35,-127.66"/>
</a>
</g>
</g>
<!-- Node9 -->
<g id="Node000009" class="node">
<title>Node9</title>
<g id="a_Node000009"><a xlink:href="namespaceLGE_1_1LxPath.html#a30bfeffc37846007936752889ffa7a8c" target="_top" xlink:title=" ">
<polygon fill="white" stroke="#666666" points="707.75,-134 580.75,-134 580.75,-114 707.75,-114 707.75,-134"/>
<text xml:space="preserve" text-anchor="middle" x="644.25" y="-120.5" font-family="Helvetica,sans-Serif" font-size="10.00">LGE::LxPath::ToAbsolute</text>
</a>
</g>
</g>
<!-- Node1&#45;&gt;Node9 -->
<g id="edge9_Node000001_Node000009" class="edge">
<title>Node1&#45;&gt;Node9</title>
<g id="a_edge9_Node000001_Node000009"><a xlink:title=" ">
<path fill="none" stroke="#63b8ff" d="M732.32,-134.02C724.22,-133.09 716.07,-132.15 708.17,-131.24"/>
<polygon fill="#63b8ff" stroke="#63b8ff" points="731.85,-137.49 742.18,-135.15 732.65,-130.53 731.85,-137.49"/>
</a>
</g>
</g>
<!-- Node2&#45;&gt;Node3 -->
<g id="edge2_Node000002_Node000003" class="edge">
<title>Node2&#45;&gt;Node3</title>
<g id="a_edge2_Node000002_Node000003"><a xlink:title=" ">
<path fill="none" stroke="#63b8ff" d="M409.82,-209.1C400.96,-210.23 392.03,-211.37 383.55,-212.46"/>
<polygon fill="#63b8ff" stroke="#63b8ff" points="410,-212.61 419.48,-207.87 409.11,-205.66 410,-212.61"/>
</a>
</g>
</g>
<!-- Node4 -->
<g id="Node000004" class="node">
<title>Node4</title>
<g id="a_Node000004"><a xlink:href="namespaceLGE_1_1ImportExport.html#ae8496d7d19ac15289295442d11349580" target="_top" xlink:title=" ">
<polygon fill="white" stroke="#666666" points="243.5,-235 139.75,-235 139.75,-203 243.5,-203 243.5,-235"/>
<text xml:space="preserve" text-anchor="start" x="147.75" y="-221.5" font-family="Helvetica,sans-Serif" font-size="10.00">LGE::ImportExport::</text>
<text xml:space="preserve" text-anchor="middle" x="191.62" y="-209.5" font-family="Helvetica,sans-Serif" font-size="10.00">ImportFiles</text>
</a>
</g>
</g>
<!-- Node3&#45;&gt;Node4 -->
<g id="edge3_Node000003_Node000004" class="edge">
<title>Node3&#45;&gt;Node4</title>
<g id="a_edge3_Node000003_Node000004"><a xlink:title=" ">
<path fill="none" stroke="#63b8ff" d="M267.61,-219C259.7,-219 251.67,-219 243.96,-219"/>
<polygon fill="#63b8ff" stroke="#63b8ff" points="267.57,-222.5 277.57,-219 267.57,-215.5 267.57,-222.5"/>
</a>
</g>
</g>
<!-- Node5 -->
<g id="Node000005" class="node">
<title>Node5</title>
<g id="a_Node000005"><a xlink:href="namespaceLGE_1_1ImportExport.html#a8220fcef46f5c3ab8c10c64fd5860668" target="_top" xlink:title=" ">
<polygon fill="white" stroke="#666666" points="103.75,-235 0,-235 0,-203 103.75,-203 103.75,-235"/>
<text xml:space="preserve" text-anchor="start" x="8" y="-221.5" font-family="Helvetica,sans-Serif" font-size="10.00">LGE::ImportExport::</text>
<text xml:space="preserve" text-anchor="middle" x="51.88" y="-209.5" font-family="Helvetica,sans-Serif" font-size="10.00">ImportDirectory</text>
</a>
</g>
</g>
<!-- Node4&#45;&gt;Node5 -->
<g id="edge4_Node000004_Node000005" class="edge">
<title>Node4&#45;&gt;Node5</title>
<g id="a_edge4_Node000004_Node000005"><a xlink:title=" ">
<path fill="none" stroke="#63b8ff" d="M127.86,-219C119.95,-219 111.92,-219 104.21,-219"/>
<polygon fill="#63b8ff" stroke="#63b8ff" points="127.82,-222.5 137.82,-219 127.82,-215.5 127.82,-222.5"/>
</a>
</g>
</g>
<!-- Node9&#45;&gt;Node2 -->
<g id="edge11_Node000009_Node000002" class="edge">
<title>Node9&#45;&gt;Node2</title>
<g id="a_edge11_Node000009_Node000002"><a xlink:title=" ">
<path fill="none" stroke="#63b8ff" d="M618.2,-140.62C598.77,-152.98 570.84,-169.61 544.75,-181 537.45,-184.19 529.45,-187.07 521.7,-189.56"/>
<polygon fill="#63b8ff" stroke="#63b8ff" points="620.02,-143.61 626.52,-135.25 616.22,-137.73 620.02,-143.61"/>
</a>
</g>
</g>
<!-- Node9&#45;&gt;Node6 -->
<g id="edge12_Node000009_Node000006" class="edge">
<title>Node9&#45;&gt;Node6</title>
<g id="a_edge12_Node000009_Node000006"><a xlink:title=" ">
<path fill="none" stroke="#63b8ff" d="M587.94,-137.12C568.04,-141.83 545.88,-147.09 527.07,-151.55"/>
<polygon fill="#63b8ff" stroke="#63b8ff" points="588.64,-140.55 597.56,-134.83 587.03,-133.74 588.64,-140.55"/>
</a>
</g>
</g>
<!-- Node9&#45;&gt;Node7 -->
<g id="edge13_Node000009_Node000007" class="edge">
<title>Node9&#45;&gt;Node7</title>
<g id="a_edge13_Node000009_Node000007"><a xlink:title=" ">
<path fill="none" stroke="#63b8ff" d="M612.07,-108.34C601.96,-103.04 590.77,-96.96 580.75,-91 564.23,-81.16 562.12,-75.25 544.75,-67 537.86,-63.73 530.27,-60.85 522.85,-58.4"/>
<polygon fill="#63b8ff" stroke="#63b8ff" points="610.29,-111.35 620.78,-112.83 613.5,-105.13 610.29,-111.35"/>
</a>
</g>
</g>
<!-- Node9&#45;&gt;Node8 -->
<g id="edge14_Node000009_Node000008" class="edge">
<title>Node9&#45;&gt;Node8</title>
<g id="a_edge14_Node000009_Node000008"><a xlink:title=" ">
<path fill="none" stroke="#63b8ff" d="M628.04,-104.65C610.24,-83.24 578.82,-49.1 544.75,-29 539.05,-25.64 532.7,-22.82 526.3,-20.46"/>
<polygon fill="#63b8ff" stroke="#63b8ff" points="625.25,-106.77 634.27,-112.33 630.69,-102.36 625.25,-106.77"/>
</a>
</g>
</g>
<!-- Node10 -->
<g id="Node000010" class="node">
<title>Node10</title>
<g id="a_Node000010"><a xlink:href="namespaceLGE_1_1FSOps.html#a7dec5f5335c8f592bf2d74d7832654de" target="_top" xlink:title=" ">
<polygon fill="white" stroke="#666666" points="535.38,-96 428.62,-96 428.62,-76 535.38,-76 535.38,-96"/>
<text xml:space="preserve" text-anchor="middle" x="482" y="-82.5" font-family="Helvetica,sans-Serif" font-size="10.00">LGE::FSOps::Delete</text>
</a>
</g>
</g>
<!-- Node9&#45;&gt;Node10 -->
<g id="edge10_Node000009_Node000010" class="edge">
<title>Node9&#45;&gt;Node10</title>
<g id="a_edge10_Node000009_Node000010"><a xlink:title=" ">
<path fill="none" stroke="#63b8ff" d="M587.94,-110.88C568.04,-106.17 545.88,-100.91 527.07,-96.45"/>
<polygon fill="#63b8ff" stroke="#63b8ff" points="587.03,-114.26 597.56,-113.17 588.64,-107.45 587.03,-114.26"/>
</a>
</g>
</g>
<!-- Node11 -->
<g id="Node000011" class="node">
<title>Node11</title>
<g id="a_Node000011"><a xlink:href="namespaceLGE_1_1FSOps.html#a73a5f7725534ee44eab8e17badf96f9f" target="_top" xlink:title=" ">
<polygon fill="white" stroke="#666666" points="539.5,-134 424.5,-134 424.5,-114 539.5,-114 539.5,-134"/>
<text xml:space="preserve" text-anchor="middle" x="482" y="-120.5" font-family="Helvetica,sans-Serif" font-size="10.00">LGE::FSOps::Rename</text>
</a>
</g>
</g>
<!-- Node9&#45;&gt;Node11 -->
<g id="edge15_Node000009_Node000011" class="edge">
<title>Node9&#45;&gt;Node11</title>
<g id="a_edge15_Node000009_Node000011"><a xlink:title=" ">
<path fill="none" stroke="#63b8ff" d="M569.01,-124C559.25,-124 549.37,-124 539.96,-124"/>
<polygon fill="#63b8ff" stroke="#63b8ff" points="568.86,-127.5 578.86,-124 568.86,-120.5 568.86,-127.5"/>
</a>
</g>
</g>
</g>
</svg>
