<?xml version="1.0" encoding="UTF-8" standalone="no"?>
<!DOCTYPE svg PUBLIC "-//W3C//DTD SVG 1.1//EN"
 "http://www.w3.org/Graphics/SVG/1.1/DTD/svg11.dtd">
<!-- Generated by graphviz version 14.0.2 (20251019.1705)
 -->
<!-- Title: LGE::LxFile::CreateDirectory Pages: 1 -->
<svg width="744pt" height="60pt"
 viewBox="0.00 0.00 744.00 60.00" xmlns="http://www.w3.org/2000/svg" xmlns:xlink="http://www.w3.org/1999/xlink">
<g id="graph0" class="graph" transform="scale(1 1) rotate(0) translate(4 56.07)">
<title>LGE::LxFile::CreateDirectory</title>
<!-- Node1 -->
<g id="Node000001" class="node">
<title>Node1</title>
<g id="a_Node000001"><a xlink:title=" ">
<polygon fill="#999999" stroke="#666666" points="142.75,-52.07 0,-52.07 0,-32.07 142.75,-32.07 142.75,-52.07"/>
<text xml:space="preserve" text-anchor="middle" x="71.38" y="-38.57" font-family="Helvetica,sans-Serif" font-size="10.00">LGE::LxFile::CreateDirectory</text>
</a>
</g>
</g>
<!-- Node2 -->
<g id="Node000002" class="node">
<title>Node2</title>
<g id="a_Node000002"><a xlink:href="classLGE_1_1Log.html#a53f3f4b8797ffd18145739c9e66d690a" target="_top" xlink:title=" ">
<polygon fill="white" stroke="#666666" points="736.25,-52.07 652,-52.07 652,-32.07 736.25,-32.07 736.25,-52.07"/>
<text xml:space="preserve" text-anchor="middle" x="694.12" y="-38.57" font-family="Helvetica,sans-Serif" font-size="10.00">LGE::Log::Error</text>
</a>
</g>
</g>
<!-- Node1&#45;&gt;Node2 -->
<g id="edge1_Node000001_Node000002" class="edge">
<title>Node1&#45;&gt;Node2</title>
<g id="a_edge1_Node000001_Node000002"><a xlink:title=" ">
<path fill="none" stroke="#63b8ff" d="M142.98,-42.07C268.81,-42.07 529.08,-42.07 640.57,-42.07"/>
<polygon fill="#63b8ff" stroke="#63b8ff" points="640.32,-45.57 650.32,-42.07 640.32,-38.57 640.32,-45.57"/>
</a>
</g>
</g>
<!-- Node3 -->
<g id="Node000003" class="node">
<title>Node3</title>
<g id="a_Node000003"><a xlink:href="namespaceLGE_1_1VFS.html#abb5d35abfe80efe2f7a07394ad5b706a" target="_top" xlink:title=" ">
<polygon fill="white" stroke="#666666" points="297.5,-33.07 178.75,-33.07 178.75,-13.07 297.5,-13.07 297.5,-33.07"/>
<text xml:space="preserve" text-anchor="middle" x="238.12" y="-19.57" font-family="Helvetica,sans-Serif" font-size="10.00">LGE::VFS::IsReadOnly</text>
</a>
</g>
</g>
<!-- Node1&#45;&gt;Node3 -->
<g id="edge2_Node000001_Node000003" class="edge">
<title>Node1&#45;&gt;Node3</title>
<g id="a_edge2_Node000001_Node000003"><a xlink:title=" ">
<path fill="none" stroke="#63b8ff" d="M143.2,-33.91C151.11,-32.99 159.17,-32.06 167.07,-31.15"/>
<polygon fill="#63b8ff" stroke="#63b8ff" points="167.46,-34.63 176.99,-30.01 166.66,-27.68 167.46,-34.63"/>
</a>
</g>
</g>
<!-- Node4 -->
<g id="Node000004" class="node">
<title>Node4</title>
<g id="a_Node000004"><a xlink:href="namespaceLGE_1_1LxPath.html#ab664986e94ce09aa029f9eb2fcf50133" target="_top" xlink:title=" ">
<polygon fill="white" stroke="#666666" points="457.5,-33.07 333.5,-33.07 333.5,-13.07 457.5,-13.07 457.5,-33.07"/>
<text xml:space="preserve" text-anchor="middle" x="395.5" y="-19.57" font-family="Helvetica,sans-Serif" font-size="10.00">LGE::LxPath::IsSubPath</text>
</a>
</g>
</g>
<!-- Node3&#45;&gt;Node4 -->
<g id="edge3_Node000003_Node000004" class="edge">
<title>Node3&#45;&gt;Node4</title>
<g id="a_edge3_Node000003_Node000004"><a xlink:title=" ">
<path fill="none" stroke="#63b8ff" d="M297.87,-23.07C305.69,-23.07 313.79,-23.07 321.82,-23.07"/>
<polygon fill="#63b8ff" stroke="#63b8ff" points="321.57,-26.57 331.57,-23.07 321.57,-19.57 321.57,-26.57"/>
</a>
</g>
</g>
<!-- Node5 -->
<g id="Node000005" class="node">
<title>Node5</title>
<g id="a_Node000005"><a xlink:href="namespaceLGE_1_1LxPath.html#a314a60ce690c90f4ee0b4e64c0199408" target="_top" xlink:title=" ">
<polygon fill="white" stroke="#666666" points="616,-33.07 493.5,-33.07 493.5,-13.07 616,-13.07 616,-33.07"/>
<text xml:space="preserve" text-anchor="middle" x="554.75" y="-19.57" font-family="Helvetica,sans-Serif" font-size="10.00">LGE::LxPath::Normalize</text>
</a>
</g>
</g>
<!-- Node3&#45;&gt;Node5 -->
<g id="edge6_Node000003_Node000005" class="edge">
<title>Node3&#45;&gt;Node5</title>
<g id="a_edge6_Node000003_Node000005"><a xlink:title=" ">
<path fill="none" stroke="#63b8ff" d="M281.61,-12.65C297.75,-9.19 316.37,-5.78 333.5,-4.07 388.34,1.39 402.65,1.29 457.5,-4.07 471.14,-5.41 485.72,-7.78 499.29,-10.41"/>
<polygon fill="#63b8ff" stroke="#63b8ff" points="498.44,-13.8 508.93,-12.35 499.82,-6.94 498.44,-13.8"/>
</a>
</g>
</g>
<!-- Node4&#45;&gt;Node5 -->
<g id="edge4_Node000004_Node000005" class="edge">
<title>Node4&#45;&gt;Node5</title>
<g id="a_edge4_Node000004_Node000005"><a xlink:title=" ">
<path fill="none" stroke="#63b8ff" d="M457.75,-23.07C465.66,-23.07 473.82,-23.07 481.88,-23.07"/>
<polygon fill="#63b8ff" stroke="#63b8ff" points="481.67,-26.57 491.67,-23.07 481.67,-19.57 481.67,-26.57"/>
</a>
</g>
</g>
<!-- Node5&#45;&gt;Node2 -->
<g id="edge5_Node000005_Node000002" class="edge">
<title>Node5&#45;&gt;Node2</title>
<g id="a_edge5_Node000005_Node000002"><a xlink:title=" ">
<path fill="none" stroke="#63b8ff" d="M616.4,-31.46C624.42,-32.57 632.59,-33.7 640.45,-34.79"/>
<polygon fill="#63b8ff" stroke="#63b8ff" points="639.83,-38.24 650.22,-36.14 640.79,-31.3 639.83,-38.24"/>
</a>
</g>
</g>
</g>
</svg>
