<?xml version="1.0" encoding="UTF-8" standalone="no"?>
<!DOCTYPE svg PUBLIC "-//W3C//DTD SVG 1.1//EN"
 "http://www.w3.org/Graphics/SVG/1.1/DTD/svg11.dtd">
<!-- Generated by graphviz version 14.0.2 (20251019.1705)
 -->
<!-- Title: LGE::Recycle::IsEmpty Pages: 1 -->
<svg width="456pt" height="91pt"
 viewBox="0.00 0.00 456.00 91.00" xmlns="http://www.w3.org/2000/svg" xmlns:xlink="http://www.w3.org/1999/xlink">
<g id="graph0" class="graph" transform="scale(1 1) rotate(0) translate(4 87)">
<title>LGE::Recycle::IsEmpty</title>
<!-- Node1 -->
<g id="Node000001" class="node">
<title>Node1</title>
<g id="a_Node000001"><a xlink:title=" ">
<polygon fill="#999999" stroke="#666666" points="120.25,-61 0,-61 0,-41 120.25,-41 120.25,-61"/>
<text xml:space="preserve" text-anchor="middle" x="60.12" y="-47.5" font-family="Helvetica,sans-Serif" font-size="10.00">LGE::Recycle::IsEmpty</text>
</a>
</g>
</g>
<!-- Node2 -->
<g id="Node000002" class="node">
<title>Node2</title>
<g id="a_Node000002"><a xlink:href="namespaceLGE_1_1LxFile.html#a11e62876b312a11b881b484bb3a5ee71" target="_top" xlink:title=" ">
<polygon fill="white" stroke="#666666" points="274.62,-83 173.12,-83 173.12,-63 274.62,-63 274.62,-83"/>
<text xml:space="preserve" text-anchor="middle" x="223.88" y="-69.5" font-family="Helvetica,sans-Serif" font-size="10.00">LGE::LxFile::Exists</text>
</a>
</g>
</g>
<!-- Node1&#45;&gt;Node2 -->
<g id="edge1_Node000001_Node000002" class="edge">
<title>Node1&#45;&gt;Node2</title>
<g id="a_edge1_Node000001_Node000002"><a xlink:title=" ">
<path fill="none" stroke="#63b8ff" d="M120.44,-59.07C133.89,-60.9 148.2,-62.84 161.73,-64.68"/>
<polygon fill="#63b8ff" stroke="#63b8ff" points="160.99,-68.12 171.38,-66 161.94,-61.18 160.99,-68.12"/>
</a>
</g>
</g>
<!-- Node3 -->
<g id="Node000003" class="node">
<title>Node3</title>
<g id="a_Node000003"><a xlink:href="namespaceLGE_1_1Recycle.html#a6b2b1d5c0fd3a02630fc333108cf01d4" target="_top" xlink:title=" ">
<polygon fill="white" stroke="#666666" points="291.5,-45 156.25,-45 156.25,-13 291.5,-13 291.5,-45"/>
<text xml:space="preserve" text-anchor="start" x="164.25" y="-31.5" font-family="Helvetica,sans-Serif" font-size="10.00">LGE::Recycle::GetRecycle</text>
<text xml:space="preserve" text-anchor="middle" x="223.88" y="-19.5" font-family="Helvetica,sans-Serif" font-size="10.00">BinPath</text>
</a>
</g>
</g>
<!-- Node1&#45;&gt;Node3 -->
<g id="edge2_Node000001_Node000003" class="edge">
<title>Node1&#45;&gt;Node3</title>
<g id="a_edge2_Node000001_Node000003"><a xlink:title=" ">
<path fill="none" stroke="#63b8ff" d="M120.44,-42.93C128.28,-41.87 136.42,-40.76 144.52,-39.66"/>
<polygon fill="#63b8ff" stroke="#63b8ff" points="144.98,-43.13 154.42,-38.31 144.04,-36.19 144.98,-43.13"/>
</a>
</g>
</g>
<!-- Node4 -->
<g id="Node000004" class="node">
<title>Node4</title>
<g id="a_Node000004"><a xlink:href="namespaceLGE_1_1LxFS.html#a5684a30f3fa2906f4dafed0258a79166" target="_top" xlink:title=" ">
<polygon fill="white" stroke="#666666" points="447.75,-58 327.5,-58 327.5,-38 447.75,-38 447.75,-58"/>
<text xml:space="preserve" text-anchor="middle" x="387.62" y="-44.5" font-family="Helvetica,sans-Serif" font-size="10.00">LGE::LxFS::IsInitialized</text>
</a>
</g>
</g>
<!-- Node3&#45;&gt;Node4 -->
<g id="edge3_Node000003_Node000004" class="edge">
<title>Node3&#45;&gt;Node4</title>
<g id="a_edge3_Node000003_Node000004"><a xlink:title=" ">
<path fill="none" stroke="#63b8ff" d="M291.6,-36.84C299.58,-37.78 307.76,-38.74 315.8,-39.68"/>
<polygon fill="#63b8ff" stroke="#63b8ff" points="315.2,-43.13 325.54,-40.82 316.02,-36.18 315.2,-43.13"/>
</a>
</g>
</g>
<!-- Node5 -->
<g id="Node000005" class="node">
<title>Node5</title>
<g id="a_Node000005"><a xlink:href="namespaceLGE_1_1LxFS.html#a12aeb6699602f14153953dceb4284914" target="_top" xlink:title=" ">
<polygon fill="white" stroke="#666666" points="435.75,-20 339.5,-20 339.5,0 435.75,0 435.75,-20"/>
<text xml:space="preserve" text-anchor="middle" x="387.62" y="-6.5" font-family="Helvetica,sans-Serif" font-size="10.00">LGE::LxFS::Paths</text>
</a>
</g>
</g>
<!-- Node3&#45;&gt;Node5 -->
<g id="edge4_Node000003_Node000005" class="edge">
<title>Node3&#45;&gt;Node5</title>
<g id="a_edge4_Node000003_Node000005"><a xlink:title=" ">
<path fill="none" stroke="#63b8ff" d="M291.6,-21.16C303.73,-19.74 316.31,-18.26 328.18,-16.87"/>
<polygon fill="#63b8ff" stroke="#63b8ff" points="328.28,-20.38 337.81,-15.73 327.47,-13.43 328.28,-20.38"/>
</a>
</g>
</g>
</g>
</svg>
