<?xml version="1.0" encoding="UTF-8" standalone="no"?>
<!DOCTYPE svg PUBLIC "-//W3C//DTD SVG 1.1//EN"
 "http://www.w3.org/Graphics/SVG/1.1/DTD/svg11.dtd">
<!-- Generated by graphviz version 14.0.2 (20251019.1705)
 -->
<!-- Title: LGE::Versioning::DeleteVersion Pages: 1 -->
<svg width="1094pt" height="303pt"
 viewBox="0.00 0.00 1094.00 303.00" xmlns="http://www.w3.org/2000/svg" xmlns:xlink="http://www.w3.org/1999/xlink">
<g id="graph0" class="graph" transform="scale(1 1) rotate(0) translate(4 299)">
<title>LGE::Versioning::DeleteVersion</title>
<!-- Node1 -->
<g id="Node000001" class="node">
<title>Node1</title>
<g id="a_Node000001"><a xlink:title=" ">
<polygon fill="#999999" stroke="#666666" points="153.25,-77 0,-77 0,-57 153.25,-57 153.25,-77"/>
<text xml:space="preserve" text-anchor="middle" x="76.62" y="-63.5" font-family="Helvetica,sans-Serif" font-size="10.00">LGE::Versioning::DeleteVersion</text>
</a>
</g>
</g>
<!-- Node2 -->
<g id="Node000002" class="node">
<title>Node2</title>
<g id="a_Node000002"><a xlink:href="namespaceLGE_1_1LxFile.html#a495ab310e479d036634c3628390f80a0" target="_top" xlink:title=" ">
<polygon fill="white" stroke="#666666" points="310.25,-162 208,-162 208,-142 310.25,-142 310.25,-162"/>
<text xml:space="preserve" text-anchor="middle" x="259.12" y="-148.5" font-family="Helvetica,sans-Serif" font-size="10.00">LGE::LxFile::Delete</text>
</a>
</g>
</g>
<!-- Node1&#45;&gt;Node2 -->
<g id="edge1_Node000001_Node000002" class="edge">
<title>Node1&#45;&gt;Node2</title>
<g id="a_edge1_Node000001_Node000002"><a xlink:title=" ">
<path fill="none" stroke="#63b8ff" d="M99.76,-77.42C131.37,-92.31 189.65,-119.76 226.01,-136.88"/>
<polygon fill="#63b8ff" stroke="#63b8ff" points="224.19,-139.89 234.72,-140.98 227.17,-133.55 224.19,-139.89"/>
</a>
</g>
</g>
<!-- Node4 -->
<g id="Node000004" class="node">
<title>Node4</title>
<g id="a_Node000004"><a xlink:href="classLGE_1_1Log.html#ab0265ee050b8873a2fd31fbdb696ced0" target="_top" xlink:title=" ">
<polygon fill="white" stroke="#666666" points="465,-67 385.25,-67 385.25,-47 465,-47 465,-67"/>
<text xml:space="preserve" text-anchor="middle" x="425.12" y="-53.5" font-family="Helvetica,sans-Serif" font-size="10.00">LGE::Log::Info</text>
</a>
</g>
</g>
<!-- Node1&#45;&gt;Node4 -->
<g id="edge19_Node000001_Node000004" class="edge">
<title>Node1&#45;&gt;Node4</title>
<g id="a_edge19_Node000001_Node000004"><a xlink:title=" ">
<path fill="none" stroke="#63b8ff" d="M153.58,-69.07C203.48,-69.92 270.16,-70.08 329,-67 343.52,-66.24 359.25,-64.83 373.64,-63.3"/>
<polygon fill="#63b8ff" stroke="#63b8ff" points="373.8,-66.8 383.35,-62.23 373.03,-59.85 373.8,-66.8"/>
</a>
</g>
</g>
<!-- Node12 -->
<g id="Node000012" class="node">
<title>Node12</title>
<g id="a_Node000012"><a xlink:href="namespaceLGE_1_1LxFile.html#a11e62876b312a11b881b484bb3a5ee71" target="_top" xlink:title=" ">
<polygon fill="white" stroke="#666666" points="309.88,-58 208.38,-58 208.38,-38 309.88,-38 309.88,-58"/>
<text xml:space="preserve" text-anchor="middle" x="259.12" y="-44.5" font-family="Helvetica,sans-Serif" font-size="10.00">LGE::LxFile::Exists</text>
</a>
</g>
</g>
<!-- Node1&#45;&gt;Node12 -->
<g id="edge17_Node000001_Node000012" class="edge">
<title>Node1&#45;&gt;Node12</title>
<g id="a_edge17_Node000001_Node000012"><a xlink:title=" ">
<path fill="none" stroke="#63b8ff" d="M153.65,-59C168.03,-57.48 182.9,-55.92 196.75,-54.46"/>
<polygon fill="#63b8ff" stroke="#63b8ff" points="197.04,-57.95 206.61,-53.42 196.3,-50.99 197.04,-57.95"/>
</a>
</g>
</g>
<!-- Node13 -->
<g id="Node000013" class="node">
<title>Node13</title>
<g id="a_Node000013"><a xlink:href="namespaceLGE_1_1Versioning.html#a5911708ac1014650bae2a5d64a4be527" target="_top" xlink:title=" ">
<polygon fill="white" stroke="#666666" points="329,-20 189.25,-20 189.25,0 329,0 329,-20"/>
<text xml:space="preserve" text-anchor="middle" x="259.12" y="-6.5" font-family="Helvetica,sans-Serif" font-size="10.00">LGE::Versioning::GetHistory</text>
</a>
</g>
</g>
<!-- Node1&#45;&gt;Node13 -->
<g id="edge18_Node000001_Node000013" class="edge">
<title>Node1&#45;&gt;Node13</title>
<g id="a_edge18_Node000001_Node000013"><a xlink:title=" ">
<path fill="none" stroke="#63b8ff" d="M106.85,-56.52C129.28,-48.61 161.08,-37.67 189.25,-29 195.18,-27.18 201.42,-25.34 207.62,-23.56"/>
<polygon fill="#63b8ff" stroke="#63b8ff" points="208.54,-26.94 217.22,-20.86 206.64,-20.2 208.54,-26.94"/>
</a>
</g>
</g>
<!-- Node3 -->
<g id="Node000003" class="node">
<title>Node3</title>
<g id="a_Node000003"><a xlink:href="classLGE_1_1Log.html#a53f3f4b8797ffd18145739c9e66d690a" target="_top" xlink:title=" ">
<polygon fill="white" stroke="#666666" points="1085.5,-219 1001.25,-219 1001.25,-199 1085.5,-199 1085.5,-219"/>
<text xml:space="preserve" text-anchor="middle" x="1043.38" y="-205.5" font-family="Helvetica,sans-Serif" font-size="10.00">LGE::Log::Error</text>
</a>
</g>
</g>
<!-- Node2&#45;&gt;Node3 -->
<g id="edge2_Node000002_Node000003" class="edge">
<title>Node2&#45;&gt;Node3</title>
<g id="a_edge2_Node000002_Node000003"><a xlink:title=" ">
<path fill="none" stroke="#63b8ff" d="M270.29,-162.38C287.8,-179.53 325.6,-213.31 365,-228 456.12,-261.99 485.74,-247 583,-247 583,-247 583,-247 745.75,-247 831.66,-247 930.44,-231.12 989.56,-219.9"/>
<polygon fill="#63b8ff" stroke="#63b8ff" points="990.19,-223.34 999.35,-218 988.87,-216.46 990.19,-223.34"/>
</a>
</g>
</g>
<!-- Node2&#45;&gt;Node4 -->
<g id="edge3_Node000002_Node000004" class="edge">
<title>Node2&#45;&gt;Node4</title>
<g id="a_edge3_Node000002_Node000004"><a xlink:title=" ">
<path fill="none" stroke="#63b8ff" d="M273.89,-141.65C300.06,-122.03 355.27,-80.93 365,-76 368.22,-74.37 371.61,-72.84 375.07,-71.41"/>
<polygon fill="#63b8ff" stroke="#63b8ff" points="376.04,-74.79 384.15,-67.97 373.56,-68.24 376.04,-74.79"/>
</a>
</g>
</g>
<!-- Node5 -->
<g id="Node000005" class="node">
<title>Node5</title>
<g id="a_Node000005"><a xlink:href="namespaceLGE_1_1LxFS.html#a5684a30f3fa2906f4dafed0258a79166" target="_top" xlink:title=" ">
<polygon fill="white" stroke="#666666" points="485.25,-105 365,-105 365,-85 485.25,-85 485.25,-105"/>
<text xml:space="preserve" text-anchor="middle" x="425.12" y="-91.5" font-family="Helvetica,sans-Serif" font-size="10.00">LGE::LxFS::IsInitialized</text>
</a>
</g>
</g>
<!-- Node2&#45;&gt;Node5 -->
<g id="edge4_Node000002_Node000005" class="edge">
<title>Node2&#45;&gt;Node5</title>
<g id="a_edge4_Node000002_Node000005"><a xlink:title=" ">
<path fill="none" stroke="#63b8ff" d="M290.21,-141.55C316.36,-132.45 354.49,-119.2 383.38,-109.16"/>
<polygon fill="#63b8ff" stroke="#63b8ff" points="384.23,-112.57 392.53,-105.98 381.93,-105.96 384.23,-112.57"/>
</a>
</g>
</g>
<!-- Node6 -->
<g id="Node000006" class="node">
<title>Node6</title>
<g id="a_Node000006"><a xlink:href="namespaceLGE_1_1VFS.html#abb5d35abfe80efe2f7a07394ad5b706a" target="_top" xlink:title=" ">
<polygon fill="white" stroke="#666666" points="643.38,-181 524.62,-181 524.62,-161 643.38,-161 643.38,-181"/>
<text xml:space="preserve" text-anchor="middle" x="584" y="-167.5" font-family="Helvetica,sans-Serif" font-size="10.00">LGE::VFS::IsReadOnly</text>
</a>
</g>
</g>
<!-- Node2&#45;&gt;Node6 -->
<g id="edge5_Node000002_Node000006" class="edge">
<title>Node2&#45;&gt;Node6</title>
<g id="a_edge5_Node000002_Node000006"><a xlink:title=" ">
<path fill="none" stroke="#63b8ff" d="M310.57,-154.97C364.89,-158.17 451.7,-163.27 512.7,-166.86"/>
<polygon fill="#63b8ff" stroke="#63b8ff" points="512.46,-170.35 522.64,-167.45 512.87,-163.37 512.46,-170.35"/>
</a>
</g>
</g>
<!-- Node9 -->
<g id="Node000009" class="node">
<title>Node9</title>
<g id="a_Node000009"><a xlink:href="namespaceLGE_1_1LxFS.html#a12aeb6699602f14153953dceb4284914" target="_top" xlink:title=" ">
<polygon fill="white" stroke="#666666" points="473.25,-295 377,-295 377,-275 473.25,-275 473.25,-295"/>
<text xml:space="preserve" text-anchor="middle" x="425.12" y="-281.5" font-family="Helvetica,sans-Serif" font-size="10.00">LGE::LxFS::Paths</text>
</a>
</g>
</g>
<!-- Node2&#45;&gt;Node9 -->
<g id="edge10_Node000002_Node000009" class="edge">
<title>Node2&#45;&gt;Node9</title>
<g id="a_edge10_Node000002_Node000009"><a xlink:title=" ">
<path fill="none" stroke="#63b8ff" d="M267.68,-162.4C283.55,-183.58 322.38,-232.14 365,-261 370.05,-264.42 375.65,-267.47 381.35,-270.16"/>
<polygon fill="#63b8ff" stroke="#63b8ff" points="379.63,-273.24 390.2,-274.02 382.42,-266.82 379.63,-273.24"/>
</a>
</g>
</g>
<!-- Node10 -->
<g id="Node000010" class="node">
<title>Node10</title>
<g id="a_Node000010"><a xlink:href="namespaceLGE_1_1VFS.html#aee891612cc393155878775a61e486c0b" target="_top" xlink:title=" ">
<polygon fill="white" stroke="#666666" points="646.75,-143 521.25,-143 521.25,-123 646.75,-123 646.75,-143"/>
<text xml:space="preserve" text-anchor="middle" x="584" y="-129.5" font-family="Helvetica,sans-Serif" font-size="10.00">LGE::VFS::ToVirtualPath</text>
</a>
</g>
</g>
<!-- Node2&#45;&gt;Node10 -->
<g id="edge11_Node000002_Node000010" class="edge">
<title>Node2&#45;&gt;Node10</title>
<g id="a_edge11_Node000002_Node000010"><a xlink:title=" ">
<path fill="none" stroke="#63b8ff" d="M310.57,-149.03C363.98,-145.89 448.78,-140.9 509.59,-137.32"/>
<polygon fill="#63b8ff" stroke="#63b8ff" points="509.75,-140.82 519.52,-136.74 509.33,-133.83 509.75,-140.82"/>
</a>
</g>
</g>
<!-- Node11 -->
<g id="Node000011" class="node">
<title>Node11</title>
<g id="a_Node000011"><a xlink:href="namespaceLGE_1_1LxFile.html#a06d0b8c5590da8bc48cf22d321fc4074" target="_top" xlink:title=" ">
<polygon fill="white" stroke="#666666" points="478.88,-219 371.38,-219 371.38,-199 478.88,-199 478.88,-219"/>
<text xml:space="preserve" text-anchor="middle" x="425.12" y="-205.5" font-family="Helvetica,sans-Serif" font-size="10.00">LGE::LxFile::WriteAll</text>
</a>
</g>
</g>
<!-- Node2&#45;&gt;Node11 -->
<g id="edge14_Node000002_Node000011" class="edge">
<title>Node2&#45;&gt;Node11</title>
<g id="a_edge14_Node000002_Node000011"><a xlink:title=" ">
<path fill="none" stroke="#63b8ff" d="M290.21,-162.45C316.36,-171.55 354.49,-184.8 383.38,-194.84"/>
<polygon fill="#63b8ff" stroke="#63b8ff" points="381.93,-198.04 392.53,-198.02 384.23,-191.43 381.93,-198.04"/>
</a>
</g>
</g>
<!-- Node7 -->
<g id="Node000007" class="node">
<title>Node7</title>
<g id="a_Node000007"><a xlink:href="namespaceLGE_1_1LxPath.html#ab664986e94ce09aa029f9eb2fcf50133" target="_top" xlink:title=" ">
<polygon fill="white" stroke="#666666" points="806.75,-143 682.75,-143 682.75,-123 806.75,-123 806.75,-143"/>
<text xml:space="preserve" text-anchor="middle" x="744.75" y="-129.5" font-family="Helvetica,sans-Serif" font-size="10.00">LGE::LxPath::IsSubPath</text>
</a>
</g>
</g>
<!-- Node6&#45;&gt;Node7 -->
<g id="edge6_Node000006_Node000007" class="edge">
<title>Node6&#45;&gt;Node7</title>
<g id="a_edge6_Node000006_Node000007"><a xlink:title=" ">
<path fill="none" stroke="#63b8ff" d="M628.8,-160.52C647.45,-156.05 669.41,-150.79 689.11,-146.08"/>
<polygon fill="#63b8ff" stroke="#63b8ff" points="689.71,-149.53 698.62,-143.8 688.08,-142.73 689.71,-149.53"/>
</a>
</g>
</g>
<!-- Node8 -->
<g id="Node000008" class="node">
<title>Node8</title>
<g id="a_Node000008"><a xlink:href="namespaceLGE_1_1LxPath.html#a314a60ce690c90f4ee0b4e64c0199408" target="_top" xlink:title=" ">
<polygon fill="white" stroke="#666666" points="965.25,-162 842.75,-162 842.75,-142 965.25,-142 965.25,-162"/>
<text xml:space="preserve" text-anchor="middle" x="904" y="-148.5" font-family="Helvetica,sans-Serif" font-size="10.00">LGE::LxPath::Normalize</text>
</a>
</g>
</g>
<!-- Node6&#45;&gt;Node8 -->
<g id="edge9_Node000006_Node000008" class="edge">
<title>Node6&#45;&gt;Node8</title>
<g id="a_edge9_Node000006_Node000008"><a xlink:title=" ">
<path fill="none" stroke="#63b8ff" d="M643.7,-167.49C696.58,-164.33 774.49,-159.68 831.1,-156.3"/>
<polygon fill="#63b8ff" stroke="#63b8ff" points="831.2,-159.8 840.97,-155.71 830.78,-152.81 831.2,-159.8"/>
</a>
</g>
</g>
<!-- Node7&#45;&gt;Node8 -->
<g id="edge7_Node000007_Node000008" class="edge">
<title>Node7&#45;&gt;Node8</title>
<g id="a_edge7_Node000007_Node000008"><a xlink:title=" ">
<path fill="none" stroke="#63b8ff" d="M807,-140.4C814.91,-141.36 823.07,-142.34 831.13,-143.32"/>
<polygon fill="#63b8ff" stroke="#63b8ff" points="830.59,-146.78 840.93,-144.5 831.43,-139.83 830.59,-146.78"/>
</a>
</g>
</g>
<!-- Node8&#45;&gt;Node3 -->
<g id="edge8_Node000008_Node000003" class="edge">
<title>Node8&#45;&gt;Node3</title>
<g id="a_edge8_Node000008_Node000003"><a xlink:title=" ">
<path fill="none" stroke="#63b8ff" d="M930.2,-162.45C951.69,-171.37 982.84,-184.3 1006.86,-194.26"/>
<polygon fill="#63b8ff" stroke="#63b8ff" points="1005.36,-197.43 1015.94,-198.03 1008.04,-190.97 1005.36,-197.43"/>
</a>
</g>
</g>
<!-- Node10&#45;&gt;Node7 -->
<g id="edge12_Node000010_Node000007" class="edge">
<title>Node10&#45;&gt;Node7</title>
<g id="a_edge12_Node000010_Node000007"><a xlink:title=" ">
<path fill="none" stroke="#63b8ff" d="M646.83,-133C654.76,-133 662.94,-133 671.02,-133"/>
<polygon fill="#63b8ff" stroke="#63b8ff" points="670.83,-136.5 680.83,-133 670.83,-129.5 670.83,-136.5"/>
</a>
</g>
</g>
<!-- Node10&#45;&gt;Node8 -->
<g id="edge13_Node000010_Node000008" class="edge">
<title>Node10&#45;&gt;Node8</title>
<g id="a_edge13_Node000010_Node000008"><a xlink:title=" ">
<path fill="none" stroke="#63b8ff" d="M627.45,-122.55C672.34,-113.08 745.07,-102.26 806.75,-114 829.76,-118.38 854.31,-128.16 872.85,-136.7"/>
<polygon fill="#63b8ff" stroke="#63b8ff" points="871.12,-139.75 881.65,-140.88 874.12,-133.43 871.12,-139.75"/>
</a>
</g>
</g>
<!-- Node11&#45;&gt;Node3 -->
<g id="edge15_Node000011_Node000003" class="edge">
<title>Node11&#45;&gt;Node3</title>
<g id="a_edge15_Node000011_Node000003"><a xlink:title=" ">
<path fill="none" stroke="#63b8ff" d="M479.2,-209C595.77,-209 873.04,-209 989.46,-209"/>
<polygon fill="#63b8ff" stroke="#63b8ff" points="989.36,-212.5 999.36,-209 989.36,-205.5 989.36,-212.5"/>
</a>
</g>
</g>
<!-- Node11&#45;&gt;Node6 -->
<g id="edge16_Node000011_Node000006" class="edge">
<title>Node11&#45;&gt;Node6</title>
<g id="a_edge16_Node000011_Node000006"><a xlink:title=" ">
<path fill="none" stroke="#63b8ff" d="M469.41,-198.52C487.75,-194.07 509.34,-188.84 528.73,-184.15"/>
<polygon fill="#63b8ff" stroke="#63b8ff" points="529.49,-187.56 538.39,-181.81 527.85,-180.76 529.49,-187.56"/>
</a>
</g>
</g>
</g>
</svg>
