<?xml version="1.0" encoding="UTF-8" standalone="no"?>
<!DOCTYPE svg PUBLIC "-//W3C//DTD SVG 1.1//EN"
 "http://www.w3.org/Graphics/SVG/1.1/DTD/svg11.dtd">
<!-- Generated by graphviz version 14.0.2 (20251019.1705)
 -->
<!-- Title: LGE::Compression::CompressDirectory Pages: 1 -->
<svg width="795pt" height="221pt"
 viewBox="0.00 0.00 795.00 221.00" xmlns="http://www.w3.org/2000/svg" xmlns:xlink="http://www.w3.org/1999/xlink">
<g id="graph0" class="graph" transform="scale(1 1) rotate(0) translate(4 216.97)">
<title>LGE::Compression::CompressDirectory</title>
<!-- Node1 -->
<g id="Node000001" class="node">
<title>Node1</title>
<g id="a_Node000001"><a xlink:title=" ">
<polygon fill="#999999" stroke="#666666" points="150.25,-130.97 0,-130.97 0,-98.97 150.25,-98.97 150.25,-130.97"/>
<text xml:space="preserve" text-anchor="start" x="8" y="-117.47" font-family="Helvetica,sans-Serif" font-size="10.00">LGE::Compression::Compress</text>
<text xml:space="preserve" text-anchor="middle" x="75.12" y="-105.47" font-family="Helvetica,sans-Serif" font-size="10.00">Directory</text>
</a>
</g>
</g>
<!-- Node2 -->
<g id="Node000002" class="node">
<title>Node2</title>
<g id="a_Node000002"><a xlink:href="namespaceLGE_1_1Compression.html#af7ed5c9910b095705473adc945a804a4" target="_top" xlink:title=" ">
<polygon fill="white" stroke="#666666" points="336.5,-130.97 186.25,-130.97 186.25,-98.97 336.5,-98.97 336.5,-130.97"/>
<text xml:space="preserve" text-anchor="start" x="194.25" y="-117.47" font-family="Helvetica,sans-Serif" font-size="10.00">LGE::Compression::Compress</text>
<text xml:space="preserve" text-anchor="middle" x="261.38" y="-105.47" font-family="Helvetica,sans-Serif" font-size="10.00">Files</text>
</a>
</g>
</g>
<!-- Node1&#45;&gt;Node2 -->
<g id="edge1_Node000001_Node000002" class="edge">
<title>Node1&#45;&gt;Node2</title>
<g id="a_edge1_Node000001_Node000002"><a xlink:title=" ">
<path fill="none" stroke="#63b8ff" d="M150.54,-114.97C158.48,-114.97 166.6,-114.97 174.66,-114.97"/>
<polygon fill="#63b8ff" stroke="#63b8ff" points="174.47,-118.47 184.47,-114.97 174.47,-111.47 174.47,-118.47"/>
</a>
</g>
</g>
<!-- Node3 -->
<g id="Node000003" class="node">
<title>Node3</title>
<g id="a_Node000003"><a xlink:href="namespaceLGE_1_1LxFile.html#a11e62876b312a11b881b484bb3a5ee71" target="_top" xlink:title=" ">
<polygon fill="white" stroke="#666666" points="491.25,-212.97 389.75,-212.97 389.75,-192.97 491.25,-192.97 491.25,-212.97"/>
<text xml:space="preserve" text-anchor="middle" x="440.5" y="-199.47" font-family="Helvetica,sans-Serif" font-size="10.00">LGE::LxFile::Exists</text>
</a>
</g>
</g>
<!-- Node1&#45;&gt;Node3 -->
<g id="edge11_Node000001_Node000003" class="edge">
<title>Node1&#45;&gt;Node3</title>
<g id="a_edge11_Node000001_Node000003"><a xlink:title=" ">
<path fill="none" stroke="#63b8ff" d="M144.05,-131.42C213.81,-148.31 321.01,-174.28 385.3,-189.84"/>
<polygon fill="#63b8ff" stroke="#63b8ff" points="384.38,-193.22 394.92,-192.18 386.03,-186.42 384.38,-193.22"/>
</a>
</g>
</g>
<!-- Node11 -->
<g id="Node000011" class="node">
<title>Node11</title>
<g id="a_Node000011"><a xlink:href="namespaceLGE_1_1LxFile.html#aefeac425ba46d16739c0873b3740191c" target="_top" xlink:title=" ">
<polygon fill="white" stroke="#666666" points="322.25,-80.97 200.5,-80.97 200.5,-60.97 322.25,-60.97 322.25,-80.97"/>
<text xml:space="preserve" text-anchor="middle" x="261.38" y="-67.47" font-family="Helvetica,sans-Serif" font-size="10.00">LGE::LxFile::IsDirectory</text>
</a>
</g>
</g>
<!-- Node1&#45;&gt;Node11 -->
<g id="edge12_Node000001_Node000011" class="edge">
<title>Node1&#45;&gt;Node11</title>
<g id="a_edge12_Node000001_Node000011"><a xlink:title=" ">
<path fill="none" stroke="#63b8ff" d="M144.99,-98.52C164.9,-93.77 186.35,-88.65 205.29,-84.13"/>
<polygon fill="#63b8ff" stroke="#63b8ff" points="206.04,-87.55 214.95,-81.82 204.41,-80.74 206.04,-87.55"/>
</a>
</g>
</g>
<!-- Node2&#45;&gt;Node3 -->
<g id="edge2_Node000002_Node000003" class="edge">
<title>Node2&#45;&gt;Node3</title>
<g id="a_edge2_Node000002_Node000003"><a xlink:title=" ">
<path fill="none" stroke="#63b8ff" d="M284.11,-131.2C305.61,-146.61 339.92,-169.5 372.5,-183.97 376.55,-185.77 380.81,-187.44 385.14,-188.99"/>
<polygon fill="#63b8ff" stroke="#63b8ff" points="383.94,-192.28 394.53,-192.1 386.14,-185.63 383.94,-192.28"/>
</a>
</g>
</g>
<!-- Node4 -->
<g id="Node000004" class="node">
<title>Node4</title>
<g id="a_Node000004"><a xlink:href="namespaceLGE_1_1Compression.html#a7d42ab993dbaa3b8a82b82e5d0d6ea8a" target="_top" xlink:title=" ">
<polygon fill="white" stroke="#666666" points="508.5,-174.97 372.5,-174.97 372.5,-142.97 508.5,-142.97 508.5,-174.97"/>
<text xml:space="preserve" text-anchor="start" x="380.5" y="-161.47" font-family="Helvetica,sans-Serif" font-size="10.00">LGE::Compression::Format</text>
<text xml:space="preserve" text-anchor="middle" x="440.5" y="-149.47" font-family="Helvetica,sans-Serif" font-size="10.00">ToString</text>
</a>
</g>
</g>
<!-- Node2&#45;&gt;Node4 -->
<g id="edge3_Node000002_Node000004" class="edge">
<title>Node2&#45;&gt;Node4</title>
<g id="a_edge3_Node000002_Node000004"><a xlink:title=" ">
<path fill="none" stroke="#63b8ff" d="M328.58,-131.42C339.49,-134.13 350.88,-136.96 362.03,-139.73"/>
<polygon fill="#63b8ff" stroke="#63b8ff" points="361.06,-143.09 371.61,-142.11 362.75,-136.3 361.06,-143.09"/>
</a>
</g>
</g>
<!-- Node5 -->
<g id="Node000005" class="node">
<title>Node5</title>
<g id="a_Node000005"><a xlink:href="namespaceLGE_1_1LxPath.html#a282200340a7ec214f14f5d64e9e41396" target="_top" xlink:title=" ">
<polygon fill="white" stroke="#666666" points="507.38,-124.97 373.62,-124.97 373.62,-104.97 507.38,-104.97 507.38,-124.97"/>
<text xml:space="preserve" text-anchor="middle" x="440.5" y="-111.47" font-family="Helvetica,sans-Serif" font-size="10.00">LGE::LxPath::GetFilename</text>
</a>
</g>
</g>
<!-- Node2&#45;&gt;Node5 -->
<g id="edge4_Node000002_Node000005" class="edge">
<title>Node2&#45;&gt;Node5</title>
<g id="a_edge4_Node000002_Node000005"><a xlink:title=" ">
<path fill="none" stroke="#63b8ff" d="M336.98,-114.97C345.14,-114.97 353.46,-114.97 361.66,-114.97"/>
<polygon fill="#63b8ff" stroke="#63b8ff" points="361.63,-118.47 371.63,-114.97 361.63,-111.47 361.63,-118.47"/>
</a>
</g>
</g>
<!-- Node8 -->
<g id="Node000008" class="node">
<title>Node8</title>
<g id="a_Node000008"><a xlink:href="namespaceLGE_1_1LxFile.html#a40751ea42c228d8e2c6f6b0788e24aa7" target="_top" xlink:title=" ">
<polygon fill="white" stroke="#666666" points="502.88,-86.97 378.12,-86.97 378.12,-66.97 502.88,-66.97 502.88,-86.97"/>
<text xml:space="preserve" text-anchor="middle" x="440.5" y="-73.47" font-family="Helvetica,sans-Serif" font-size="10.00">LGE::LxFile::GetFileSize</text>
</a>
</g>
</g>
<!-- Node2&#45;&gt;Node8 -->
<g id="edge7_Node000002_Node000008" class="edge">
<title>Node2&#45;&gt;Node8</title>
<g id="a_edge7_Node000002_Node000008"><a xlink:title=" ">
<path fill="none" stroke="#63b8ff" d="M336.98,-98.97C351.16,-95.92 365.83,-92.78 379.49,-89.85"/>
<polygon fill="#63b8ff" stroke="#63b8ff" points="380.17,-93.28 389.21,-87.76 378.7,-86.44 380.17,-93.28"/>
</a>
</g>
</g>
<!-- Node9 -->
<g id="Node000009" class="node">
<title>Node9</title>
<g id="a_Node000009"><a xlink:href="classLGE_1_1Log.html#ab0265ee050b8873a2fd31fbdb696ced0" target="_top" xlink:title=" ">
<polygon fill="white" stroke="#666666" points="480.38,-48.97 400.62,-48.97 400.62,-28.97 480.38,-28.97 480.38,-48.97"/>
<text xml:space="preserve" text-anchor="middle" x="440.5" y="-35.47" font-family="Helvetica,sans-Serif" font-size="10.00">LGE::Log::Info</text>
</a>
</g>
</g>
<!-- Node2&#45;&gt;Node9 -->
<g id="edge8_Node000002_Node000009" class="edge">
<title>Node2&#45;&gt;Node9</title>
<g id="a_edge8_Node000002_Node000009"><a xlink:title=" ">
<path fill="none" stroke="#63b8ff" d="M318.88,-98.6C324.99,-96.05 330.98,-93.18 336.5,-89.97 355.01,-79.22 353.73,-68.26 372.5,-57.97 377.87,-55.03 383.73,-52.51 389.69,-50.35"/>
<polygon fill="#63b8ff" stroke="#63b8ff" points="390.55,-53.75 398.98,-47.34 388.39,-47.1 390.55,-53.75"/>
</a>
</g>
</g>
<!-- Node10 -->
<g id="Node000010" class="node">
<title>Node10</title>
<g id="a_Node000010"><a xlink:href="namespaceLGE_1_1LxFile.html#ac0a61f0e1f49fdcf553f007750c1ba37" target="_top" xlink:title=" ">
<polygon fill="white" stroke="#666666" points="659.88,-48.97 551.62,-48.97 551.62,-28.97 659.88,-28.97 659.88,-48.97"/>
<text xml:space="preserve" text-anchor="middle" x="605.75" y="-35.47" font-family="Helvetica,sans-Serif" font-size="10.00">LGE::LxFile::ReadAll</text>
</a>
</g>
</g>
<!-- Node2&#45;&gt;Node10 -->
<g id="edge9_Node000002_Node000010" class="edge">
<title>Node2&#45;&gt;Node10</title>
<g id="a_edge9_Node000002_Node000010"><a xlink:title=" ">
<path fill="none" stroke="#63b8ff" d="M323.94,-98.58C328.43,-96.1 332.69,-93.25 336.5,-89.97 363.02,-67.15 342.64,-38.19 372.5,-19.97 434.17,17.66 522.83,-6.46 570.8,-24.49"/>
<polygon fill="#63b8ff" stroke="#63b8ff" points="569.24,-27.63 579.83,-28.01 571.79,-21.11 569.24,-27.63"/>
</a>
</g>
</g>
<!-- Node6 -->
<g id="Node000006" class="node">
<title>Node6</title>
<g id="a_Node000006"><a xlink:href="namespaceLGE_1_1LxPath.html#a314a60ce690c90f4ee0b4e64c0199408" target="_top" xlink:title=" ">
<polygon fill="white" stroke="#666666" points="667,-105.97 544.5,-105.97 544.5,-85.97 667,-85.97 667,-105.97"/>
<text xml:space="preserve" text-anchor="middle" x="605.75" y="-92.47" font-family="Helvetica,sans-Serif" font-size="10.00">LGE::LxPath::Normalize</text>
</a>
</g>
</g>
<!-- Node5&#45;&gt;Node6 -->
<g id="edge5_Node000005_Node000006" class="edge">
<title>Node5&#45;&gt;Node6</title>
<g id="a_edge5_Node000005_Node000006"><a xlink:title=" ">
<path fill="none" stroke="#63b8ff" d="M507.43,-107.3C515.76,-106.33 524.33,-105.33 532.75,-104.35"/>
<polygon fill="#63b8ff" stroke="#63b8ff" points="533.08,-107.84 542.61,-103.2 532.27,-100.88 533.08,-107.84"/>
</a>
</g>
</g>
<!-- Node7 -->
<g id="Node000007" class="node">
<title>Node7</title>
<g id="a_Node000007"><a xlink:href="classLGE_1_1Log.html#a53f3f4b8797ffd18145739c9e66d690a" target="_top" xlink:title=" ">
<polygon fill="white" stroke="#666666" points="787.25,-67.97 703,-67.97 703,-47.97 787.25,-47.97 787.25,-67.97"/>
<text xml:space="preserve" text-anchor="middle" x="745.12" y="-54.47" font-family="Helvetica,sans-Serif" font-size="10.00">LGE::Log::Error</text>
</a>
</g>
</g>
<!-- Node6&#45;&gt;Node7 -->
<g id="edge6_Node000006_Node000007" class="edge">
<title>Node6&#45;&gt;Node7</title>
<g id="a_edge6_Node000006_Node000007"><a xlink:title=" ">
<path fill="none" stroke="#63b8ff" d="M644.65,-85.49C660.42,-81.13 678.91,-76.01 695.65,-71.38"/>
<polygon fill="#63b8ff" stroke="#63b8ff" points="696.18,-74.86 704.89,-68.82 694.32,-68.12 696.18,-74.86"/>
</a>
</g>
</g>
<!-- Node10&#45;&gt;Node7 -->
<g id="edge10_Node000010_Node000007" class="edge">
<title>Node10&#45;&gt;Node7</title>
<g id="a_edge10_Node000010_Node000007"><a xlink:title=" ">
<path fill="none" stroke="#63b8ff" d="M660.26,-46.37C670.55,-47.79 681.32,-49.28 691.58,-50.7"/>
<polygon fill="#63b8ff" stroke="#63b8ff" points="691.01,-54.16 701.39,-52.06 691.97,-47.22 691.01,-54.16"/>
</a>
</g>
</g>
</g>
</svg>
