<?xml version="1.0" encoding="UTF-8" standalone="no"?>
<!DOCTYPE svg PUBLIC "-//W3C//DTD SVG 1.1//EN"
 "http://www.w3.org/Graphics/SVG/1.1/DTD/svg11.dtd">
<!-- Generated by graphviz version 14.0.2 (20251019.1705)
 -->
<!-- Title: LGE::Cache::Initialize Pages: 1 -->
<svg width="892pt" height="142pt"
 viewBox="0.00 0.00 892.00 142.00" xmlns="http://www.w3.org/2000/svg" xmlns:xlink="http://www.w3.org/1999/xlink">
<g id="graph0" class="graph" transform="scale(1 1) rotate(0) translate(4 138)">
<title>LGE::Cache::Initialize</title>
<!-- Node1 -->
<g id="Node000001" class="node">
<title>Node1</title>
<g id="a_Node000001"><a xlink:title=" ">
<polygon fill="#999999" stroke="#666666" points="112,-77 0,-77 0,-57 112,-57 112,-77"/>
<text xml:space="preserve" text-anchor="middle" x="56" y="-63.5" font-family="Helvetica,sans-Serif" font-size="10.00">LGE::Cache::Initialize</text>
</a>
</g>
</g>
<!-- Node2 -->
<g id="Node000002" class="node">
<title>Node2</title>
<g id="a_Node000002"><a xlink:href="namespaceLGE_1_1LxFile.html#a7a3f0b3462a34877039001eb0aaac788" target="_top" xlink:title=" ">
<polygon fill="white" stroke="#666666" points="290.75,-134 148,-134 148,-114 290.75,-114 290.75,-134"/>
<text xml:space="preserve" text-anchor="middle" x="219.38" y="-120.5" font-family="Helvetica,sans-Serif" font-size="10.00">LGE::LxFile::CreateDirectory</text>
</a>
</g>
</g>
<!-- Node1&#45;&gt;Node2 -->
<g id="edge1_Node000001_Node000002" class="edge">
<title>Node1&#45;&gt;Node2</title>
<g id="a_edge1_Node000001_Node000002"><a xlink:title=" ">
<path fill="none" stroke="#63b8ff" d="M79.49,-77.37C97.72,-85.53 124.19,-96.85 148,-105 153.47,-106.87 159.23,-108.68 165.01,-110.39"/>
<polygon fill="#63b8ff" stroke="#63b8ff" points="164.02,-113.75 174.59,-113.13 165.94,-107.02 164.02,-113.75"/>
</a>
</g>
</g>
<!-- Node7 -->
<g id="Node000007" class="node">
<title>Node7</title>
<g id="a_Node000007"><a xlink:href="namespaceLGE_1_1LxFile.html#a11e62876b312a11b881b484bb3a5ee71" target="_top" xlink:title=" ">
<polygon fill="white" stroke="#666666" points="270.12,-96 168.62,-96 168.62,-76 270.12,-76 270.12,-96"/>
<text xml:space="preserve" text-anchor="middle" x="219.38" y="-82.5" font-family="Helvetica,sans-Serif" font-size="10.00">LGE::LxFile::Exists</text>
</a>
</g>
</g>
<!-- Node1&#45;&gt;Node7 -->
<g id="edge8_Node000001_Node000007" class="edge">
<title>Node1&#45;&gt;Node7</title>
<g id="a_edge8_Node000001_Node000007"><a xlink:title=" ">
<path fill="none" stroke="#63b8ff" d="M112.08,-73.49C126.56,-75.19 142.27,-77.04 157.05,-78.78"/>
<polygon fill="#63b8ff" stroke="#63b8ff" points="156.3,-82.22 166.64,-79.91 157.12,-75.26 156.3,-82.22"/>
</a>
</g>
</g>
<!-- Node8 -->
<g id="Node000008" class="node">
<title>Node8</title>
<g id="a_Node000008"><a xlink:href="classLGE_1_1Log.html#ab0265ee050b8873a2fd31fbdb696ced0" target="_top" xlink:title=" ">
<polygon fill="white" stroke="#666666" points="259.25,-58 179.5,-58 179.5,-38 259.25,-38 259.25,-58"/>
<text xml:space="preserve" text-anchor="middle" x="219.38" y="-44.5" font-family="Helvetica,sans-Serif" font-size="10.00">LGE::Log::Info</text>
</a>
</g>
</g>
<!-- Node1&#45;&gt;Node8 -->
<g id="edge9_Node000001_Node000008" class="edge">
<title>Node1&#45;&gt;Node8</title>
<g id="a_edge9_Node000001_Node000008"><a xlink:title=" ">
<path fill="none" stroke="#63b8ff" d="M112.08,-60.51C130.21,-58.38 150.26,-56.02 168.02,-53.93"/>
<polygon fill="#63b8ff" stroke="#63b8ff" points="168.28,-57.42 177.81,-52.78 167.47,-50.47 168.28,-57.42"/>
</a>
</g>
</g>
<!-- Node9 -->
<g id="Node000009" class="node">
<title>Node9</title>
<g id="a_Node000009"><a xlink:href="namespaceLGE_1_1LxFile.html#aefeac425ba46d16739c0873b3740191c" target="_top" xlink:title=" ">
<polygon fill="white" stroke="#666666" points="280.25,-20 158.5,-20 158.5,0 280.25,0 280.25,-20"/>
<text xml:space="preserve" text-anchor="middle" x="219.38" y="-6.5" font-family="Helvetica,sans-Serif" font-size="10.00">LGE::LxFile::IsDirectory</text>
</a>
</g>
</g>
<!-- Node1&#45;&gt;Node9 -->
<g id="edge10_Node000001_Node000009" class="edge">
<title>Node1&#45;&gt;Node9</title>
<g id="a_edge10_Node000001_Node000009"><a xlink:title=" ">
<path fill="none" stroke="#63b8ff" d="M79.49,-56.63C97.72,-48.47 124.19,-37.15 148,-29 153.47,-27.13 159.23,-25.32 165.01,-23.61"/>
<polygon fill="#63b8ff" stroke="#63b8ff" points="165.94,-26.98 174.59,-20.87 164.02,-20.25 165.94,-26.98"/>
</a>
</g>
</g>
<!-- Node3 -->
<g id="Node000003" class="node">
<title>Node3</title>
<g id="a_Node000003"><a xlink:href="classLGE_1_1Log.html#a53f3f4b8797ffd18145739c9e66d690a" target="_top" xlink:title=" ">
<polygon fill="white" stroke="#666666" points="884.25,-134 800,-134 800,-114 884.25,-114 884.25,-134"/>
<text xml:space="preserve" text-anchor="middle" x="842.12" y="-120.5" font-family="Helvetica,sans-Serif" font-size="10.00">LGE::Log::Error</text>
</a>
</g>
</g>
<!-- Node2&#45;&gt;Node3 -->
<g id="edge2_Node000002_Node000003" class="edge">
<title>Node2&#45;&gt;Node3</title>
<g id="a_edge2_Node000002_Node000003"><a xlink:title=" ">
<path fill="none" stroke="#63b8ff" d="M290.98,-124C416.81,-124 677.08,-124 788.57,-124"/>
<polygon fill="#63b8ff" stroke="#63b8ff" points="788.32,-127.5 798.32,-124 788.32,-120.5 788.32,-127.5"/>
</a>
</g>
</g>
<!-- Node4 -->
<g id="Node000004" class="node">
<title>Node4</title>
<g id="a_Node000004"><a xlink:href="namespaceLGE_1_1VFS.html#abb5d35abfe80efe2f7a07394ad5b706a" target="_top" xlink:title=" ">
<polygon fill="white" stroke="#666666" points="445.5,-115 326.75,-115 326.75,-95 445.5,-95 445.5,-115"/>
<text xml:space="preserve" text-anchor="middle" x="386.12" y="-101.5" font-family="Helvetica,sans-Serif" font-size="10.00">LGE::VFS::IsReadOnly</text>
</a>
</g>
</g>
<!-- Node2&#45;&gt;Node4 -->
<g id="edge3_Node000002_Node000004" class="edge">
<title>Node2&#45;&gt;Node4</title>
<g id="a_edge3_Node000002_Node000004"><a xlink:title=" ">
<path fill="none" stroke="#63b8ff" d="M291.2,-115.83C299.11,-114.92 307.17,-113.99 315.07,-113.08"/>
<polygon fill="#63b8ff" stroke="#63b8ff" points="315.46,-116.56 324.99,-111.93 314.66,-109.6 315.46,-116.56"/>
</a>
</g>
</g>
<!-- Node5 -->
<g id="Node000005" class="node">
<title>Node5</title>
<g id="a_Node000005"><a xlink:href="namespaceLGE_1_1LxPath.html#ab664986e94ce09aa029f9eb2fcf50133" target="_top" xlink:title=" ">
<polygon fill="white" stroke="#666666" points="605.5,-115 481.5,-115 481.5,-95 605.5,-95 605.5,-115"/>
<text xml:space="preserve" text-anchor="middle" x="543.5" y="-101.5" font-family="Helvetica,sans-Serif" font-size="10.00">LGE::LxPath::IsSubPath</text>
</a>
</g>
</g>
<!-- Node4&#45;&gt;Node5 -->
<g id="edge4_Node000004_Node000005" class="edge">
<title>Node4&#45;&gt;Node5</title>
<g id="a_edge4_Node000004_Node000005"><a xlink:title=" ">
<path fill="none" stroke="#63b8ff" d="M445.87,-105C453.69,-105 461.79,-105 469.82,-105"/>
<polygon fill="#63b8ff" stroke="#63b8ff" points="469.57,-108.5 479.57,-105 469.57,-101.5 469.57,-108.5"/>
</a>
</g>
</g>
<!-- Node6 -->
<g id="Node000006" class="node">
<title>Node6</title>
<g id="a_Node000006"><a xlink:href="namespaceLGE_1_1LxPath.html#a314a60ce690c90f4ee0b4e64c0199408" target="_top" xlink:title=" ">
<polygon fill="white" stroke="#666666" points="764,-115 641.5,-115 641.5,-95 764,-95 764,-115"/>
<text xml:space="preserve" text-anchor="middle" x="702.75" y="-101.5" font-family="Helvetica,sans-Serif" font-size="10.00">LGE::LxPath::Normalize</text>
</a>
</g>
</g>
<!-- Node4&#45;&gt;Node6 -->
<g id="edge7_Node000004_Node000006" class="edge">
<title>Node4&#45;&gt;Node6</title>
<g id="a_edge7_Node000004_Node000006"><a xlink:title=" ">
<path fill="none" stroke="#63b8ff" d="M429.61,-94.58C445.75,-91.12 464.37,-87.71 481.5,-86 536.34,-80.53 550.65,-80.64 605.5,-86 619.14,-87.33 633.72,-89.71 647.29,-92.33"/>
<polygon fill="#63b8ff" stroke="#63b8ff" points="646.44,-95.73 656.93,-94.28 647.82,-88.87 646.44,-95.73"/>
</a>
</g>
</g>
<!-- Node5&#45;&gt;Node6 -->
<g id="edge5_Node000005_Node000006" class="edge">
<title>Node5&#45;&gt;Node6</title>
<g id="a_edge5_Node000005_Node000006"><a xlink:title=" ">
<path fill="none" stroke="#63b8ff" d="M605.75,-105C613.66,-105 621.82,-105 629.88,-105"/>
<polygon fill="#63b8ff" stroke="#63b8ff" points="629.67,-108.5 639.67,-105 629.67,-101.5 629.67,-108.5"/>
</a>
</g>
</g>
<!-- Node6&#45;&gt;Node3 -->
<g id="edge6_Node000006_Node000003" class="edge">
<title>Node6&#45;&gt;Node3</title>
<g id="a_edge6_Node000006_Node000003"><a xlink:title=" ">
<path fill="none" stroke="#63b8ff" d="M764.4,-113.39C772.42,-114.5 780.59,-115.63 788.45,-116.72"/>
<polygon fill="#63b8ff" stroke="#63b8ff" points="787.83,-120.16 798.22,-118.07 788.79,-113.23 787.83,-120.16"/>
</a>
</g>
</g>
</g>
</svg>
