<?xml version="1.0" encoding="UTF-8" standalone="no"?>
<!DOCTYPE svg PUBLIC "-//W3C//DTD SVG 1.1//EN"
 "http://www.w3.org/Graphics/SVG/1.1/DTD/svg11.dtd">
<!-- Generated by graphviz version 14.0.2 (20251019.1705)
 -->
<!-- Title: LGE::Streaming::PreloadChunks Pages: 1 -->
<svg width="465pt" height="28pt"
 viewBox="0.00 0.00 465.00 28.00" xmlns="http://www.w3.org/2000/svg" xmlns:xlink="http://www.w3.org/1999/xlink">
<g id="graph0" class="graph" transform="scale(1 1) rotate(0) translate(4 24)">
<title>LGE::Streaming::PreloadChunks</title>
<!-- Node1 -->
<g id="Node000001" class="node">
<title>Node1</title>
<g id="a_Node000001"><a xlink:title=" ">
<polygon fill="#999999" stroke="#666666" points="158.5,-20 0,-20 0,0 158.5,0 158.5,-20"/>
<text xml:space="preserve" text-anchor="middle" x="79.25" y="-6.5" font-family="Helvetica,sans-Serif" font-size="10.00">LGE::Streaming::PreloadChunks</text>
</a>
</g>
</g>
<!-- Node2 -->
<g id="Node000002" class="node">
<title>Node2</title>
<g id="a_Node000002"><a xlink:href="namespaceLGE_1_1Streaming.html#a2fc10ba95b56c124d815be1563efc007" target="_top" xlink:title=" ">
<polygon fill="white" stroke="#666666" points="341,-20 194.5,-20 194.5,0 341,0 341,-20"/>
<text xml:space="preserve" text-anchor="middle" x="267.75" y="-6.5" font-family="Helvetica,sans-Serif" font-size="10.00">LGE::Streaming::OpenStream</text>
</a>
</g>
</g>
<!-- Node1&#45;&gt;Node2 -->
<g id="edge1_Node000001_Node000002" class="edge">
<title>Node1&#45;&gt;Node2</title>
<g id="a_edge1_Node000001_Node000002"><a xlink:title=" ">
<path fill="none" stroke="#63b8ff" d="M158.8,-10C166.79,-10 174.92,-10 182.95,-10"/>
<polygon fill="#63b8ff" stroke="#63b8ff" points="182.72,-13.5 192.72,-10 182.72,-6.5 182.72,-13.5"/>
</a>
</g>
</g>
<!-- Node3 -->
<g id="Node000003" class="node">
<title>Node3</title>
<g id="a_Node000003"><a xlink:href="classLGE_1_1Log.html#ab0265ee050b8873a2fd31fbdb696ced0" target="_top" xlink:title=" ">
<polygon fill="white" stroke="#666666" points="456.75,-20 377,-20 377,0 456.75,0 456.75,-20"/>
<text xml:space="preserve" text-anchor="middle" x="416.88" y="-6.5" font-family="Helvetica,sans-Serif" font-size="10.00">LGE::Log::Info</text>
</a>
</g>
</g>
<!-- Node2&#45;&gt;Node3 -->
<g id="edge2_Node000002_Node000003" class="edge">
<title>Node2&#45;&gt;Node3</title>
<g id="a_edge2_Node000002_Node000003"><a xlink:title=" ">
<path fill="none" stroke="#63b8ff" d="M341.45,-10C349.53,-10 357.62,-10 365.33,-10"/>
<polygon fill="#63b8ff" stroke="#63b8ff" points="365.19,-13.5 375.19,-10 365.19,-6.5 365.19,-13.5"/>
</a>
</g>
</g>
</g>
</svg>
