<?xml version="1.0" encoding="UTF-8" standalone="no"?>
<!DOCTYPE svg PUBLIC "-//W3C//DTD SVG 1.1//EN"
 "http://www.w3.org/Graphics/SVG/1.1/DTD/svg11.dtd">
<!-- Generated by graphviz version 14.0.2 (20251019.1705)
 -->
<!-- Title: LGE::Cache::Contains Pages: 1 -->
<svg width="472pt" height="142pt"
 viewBox="0.00 0.00 472.00 142.00" xmlns="http://www.w3.org/2000/svg" xmlns:xlink="http://www.w3.org/1999/xlink">
<g id="graph0" class="graph" transform="scale(1 1) rotate(0) translate(4 138)">
<title>LGE::Cache::Contains</title>
<!-- Node1 -->
<g id="Node000001" class="node">
<title>Node1</title>
<g id="a_Node000001"><a xlink:title=" ">
<polygon fill="#999999" stroke="#666666" points="463.5,-77 348.5,-77 348.5,-57 463.5,-57 463.5,-77"/>
<text xml:space="preserve" text-anchor="middle" x="406" y="-63.5" font-family="Helvetica,sans-Serif" font-size="10.00">LGE::Cache::Contains</text>
</a>
</g>
</g>
<!-- Node2 -->
<g id="Node000002" class="node">
<title>Node2</title>
<g id="a_Node000002"><a xlink:href="namespaceLGE_1_1Cache.html#a724dfd01b50407489a2a9e93b83b4756" target="_top" xlink:title=" ">
<polygon fill="white" stroke="#666666" points="290.75,-134 181.75,-134 181.75,-114 290.75,-114 290.75,-134"/>
<text xml:space="preserve" text-anchor="middle" x="236.25" y="-120.5" font-family="Helvetica,sans-Serif" font-size="10.00">LGE::Cache::Preload</text>
</a>
</g>
</g>
<!-- Node1&#45;&gt;Node2 -->
<g id="edge1_Node000001_Node000002" class="edge">
<title>Node1&#45;&gt;Node2</title>
<g id="a_edge1_Node000001_Node000002"><a xlink:title=" ">
<path fill="none" stroke="#63b8ff" d="M371.92,-81.93C354.47,-89.46 332.57,-98.38 312.5,-105 303.03,-108.12 292.75,-111.03 282.91,-113.58"/>
<polygon fill="#63b8ff" stroke="#63b8ff" points="373.01,-85.28 380.77,-78.06 370.2,-78.86 373.01,-85.28"/>
</a>
</g>
</g>
<!-- Node3 -->
<g id="Node000003" class="node">
<title>Node3</title>
<g id="a_Node000003"><a xlink:href="namespaceLGE_1_1Analytics.html#aaf456d4625dee9c3239538500608b674" target="_top" xlink:title=" ">
<polygon fill="white" stroke="#666666" points="312.5,-96 160,-96 160,-76 312.5,-76 312.5,-96"/>
<text xml:space="preserve" text-anchor="middle" x="236.25" y="-82.5" font-family="Helvetica,sans-Serif" font-size="10.00">LGE::Analytics::RecordAccess</text>
</a>
</g>
</g>
<!-- Node1&#45;&gt;Node3 -->
<g id="edge2_Node000001_Node000003" class="edge">
<title>Node1&#45;&gt;Node3</title>
<g id="a_edge2_Node000001_Node000003"><a xlink:title=" ">
<path fill="none" stroke="#63b8ff" d="M336.77,-74.73C328.85,-75.63 320.73,-76.54 312.72,-77.45"/>
<polygon fill="#63b8ff" stroke="#63b8ff" points="337.16,-78.21 346.7,-73.6 336.37,-71.25 337.16,-78.21"/>
</a>
</g>
</g>
<!-- Node5 -->
<g id="Node000005" class="node">
<title>Node5</title>
<g id="a_Node000005"><a xlink:href="namespaceLGE_1_1Analytics.html#a646505ba9a00636247ce3fcefffb1838" target="_top" xlink:title=" ">
<polygon fill="white" stroke="#666666" points="306.5,-58 166,-58 166,-38 306.5,-38 306.5,-58"/>
<text xml:space="preserve" text-anchor="middle" x="236.25" y="-44.5" font-family="Helvetica,sans-Serif" font-size="10.00">LGE::Analytics::RecordLoad</text>
</a>
</g>
</g>
<!-- Node1&#45;&gt;Node5 -->
<g id="edge4_Node000001_Node000005" class="edge">
<title>Node1&#45;&gt;Node5</title>
<g id="a_edge4_Node000001_Node000005"><a xlink:title=" ">
<path fill="none" stroke="#63b8ff" d="M336.77,-59.27C326.88,-58.15 316.7,-57 306.78,-55.88"/>
<polygon fill="#63b8ff" stroke="#63b8ff" points="336.37,-62.75 346.7,-60.4 337.16,-55.79 336.37,-62.75"/>
</a>
</g>
</g>
<!-- Node6 -->
<g id="Node000006" class="node">
<title>Node6</title>
<g id="a_Node000006"><a xlink:href="namespaceLGE_1_1Analytics.html#a3ebeb1a9afaf7f7756e8097e0a301901" target="_top" xlink:title=" ">
<polygon fill="white" stroke="#666666" points="311.38,-20 161.12,-20 161.12,0 311.38,0 311.38,-20"/>
<text xml:space="preserve" text-anchor="middle" x="236.25" y="-6.5" font-family="Helvetica,sans-Serif" font-size="10.00">LGE::Analytics::RecordUnload</text>
</a>
</g>
</g>
<!-- Node1&#45;&gt;Node6 -->
<g id="edge5_Node000001_Node000006" class="edge">
<title>Node1&#45;&gt;Node6</title>
<g id="a_edge5_Node000001_Node000006"><a xlink:title=" ">
<path fill="none" stroke="#63b8ff" d="M371.92,-52.07C354.47,-44.54 332.57,-35.62 312.5,-29 303.03,-25.88 292.75,-22.97 282.91,-20.42"/>
<polygon fill="#63b8ff" stroke="#63b8ff" points="370.2,-55.14 380.77,-55.94 373.01,-48.72 370.2,-55.14"/>
</a>
</g>
</g>
<!-- Node4 -->
<g id="Node000004" class="node">
<title>Node4</title>
<g id="a_Node000004"><a xlink:href="namespaceLGE_1_1Analytics.html#a2e264bb005b5ce7c21123364bfbad823" target="_top" xlink:title=" ">
<polygon fill="white" stroke="#666666" points="124,-96 0,-96 0,-76 124,-76 124,-96"/>
<text xml:space="preserve" text-anchor="middle" x="62" y="-82.5" font-family="Helvetica,sans-Serif" font-size="10.00">LGE::Analytics::Initialize</text>
</a>
</g>
</g>
<!-- Node3&#45;&gt;Node4 -->
<g id="edge3_Node000003_Node000004" class="edge">
<title>Node3&#45;&gt;Node4</title>
<g id="a_edge3_Node000003_Node000004"><a xlink:title=" ">
<path fill="none" stroke="#63b8ff" d="M148.27,-86C140.16,-86 132.07,-86 124.28,-86"/>
<polygon fill="#63b8ff" stroke="#63b8ff" points="148.19,-89.5 158.19,-86 148.19,-82.5 148.19,-89.5"/>
</a>
</g>
</g>
</g>
</svg>
