<?xml version="1.0" encoding="UTF-8" standalone="no"?>
<!DOCTYPE svg PUBLIC "-//W3C//DTD SVG 1.1//EN"
 "http://www.w3.org/Graphics/SVG/1.1/DTD/svg11.dtd">
<!-- Generated by graphviz version 14.0.2 (20251019.1705)
 -->
<!-- Title: LGE::Recycle::GetTotalSize Pages: 1 -->
<svg width="475pt" height="167pt"
 viewBox="0.00 0.00 475.00 167.00" xmlns="http://www.w3.org/2000/svg" xmlns:xlink="http://www.w3.org/1999/xlink">
<g id="graph0" class="graph" transform="scale(1 1) rotate(0) translate(4 163)">
<title>LGE::Recycle::GetTotalSize</title>
<!-- Node1 -->
<g id="Node000001" class="node">
<title>Node1</title>
<g id="a_Node000001"><a xlink:title=" ">
<polygon fill="#999999" stroke="#666666" points="139.75,-102 0,-102 0,-82 139.75,-82 139.75,-102"/>
<text xml:space="preserve" text-anchor="middle" x="69.88" y="-88.5" font-family="Helvetica,sans-Serif" font-size="10.00">LGE::Recycle::GetTotalSize</text>
</a>
</g>
</g>
<!-- Node2 -->
<g id="Node000002" class="node">
<title>Node2</title>
<g id="a_Node000002"><a xlink:href="classLGE_1_1Log.html#a53f3f4b8797ffd18145739c9e66d690a" target="_top" xlink:title=" ">
<polygon fill="white" stroke="#666666" points="285.5,-159 201.25,-159 201.25,-139 285.5,-139 285.5,-159"/>
<text xml:space="preserve" text-anchor="middle" x="243.38" y="-145.5" font-family="Helvetica,sans-Serif" font-size="10.00">LGE::Log::Error</text>
</a>
</g>
</g>
<!-- Node1&#45;&gt;Node2 -->
<g id="edge1_Node000001_Node000002" class="edge">
<title>Node1&#45;&gt;Node2</title>
<g id="a_edge1_Node000001_Node000002"><a xlink:title=" ">
<path fill="none" stroke="#63b8ff" d="M97.86,-102.36C118.93,-110.32 149.03,-121.36 175.75,-130 181.26,-131.78 187.05,-133.56 192.83,-135.29"/>
<polygon fill="#63b8ff" stroke="#63b8ff" points="191.8,-138.63 202.38,-138.08 193.77,-131.91 191.8,-138.63"/>
</a>
</g>
</g>
<!-- Node3 -->
<g id="Node000003" class="node">
<title>Node3</title>
<g id="a_Node000003"><a xlink:href="namespaceLGE_1_1LxFile.html#a11e62876b312a11b881b484bb3a5ee71" target="_top" xlink:title=" ">
<polygon fill="white" stroke="#666666" points="294.12,-121 192.62,-121 192.62,-101 294.12,-101 294.12,-121"/>
<text xml:space="preserve" text-anchor="middle" x="243.38" y="-107.5" font-family="Helvetica,sans-Serif" font-size="10.00">LGE::LxFile::Exists</text>
</a>
</g>
</g>
<!-- Node1&#45;&gt;Node3 -->
<g id="edge2_Node000001_Node000003" class="edge">
<title>Node1&#45;&gt;Node3</title>
<g id="a_edge2_Node000001_Node000003"><a xlink:title=" ">
<path fill="none" stroke="#63b8ff" d="M140.14,-99.67C153.65,-101.17 167.74,-102.73 180.98,-104.2"/>
<polygon fill="#63b8ff" stroke="#63b8ff" points="180.53,-107.67 190.86,-105.29 181.31,-100.71 180.53,-107.67"/>
</a>
</g>
</g>
<!-- Node4 -->
<g id="Node000004" class="node">
<title>Node4</title>
<g id="a_Node000004"><a xlink:href="namespaceLGE_1_1LxFile.html#a40751ea42c228d8e2c6f6b0788e24aa7" target="_top" xlink:title=" ">
<polygon fill="white" stroke="#666666" points="305.75,-83 181,-83 181,-63 305.75,-63 305.75,-83"/>
<text xml:space="preserve" text-anchor="middle" x="243.38" y="-69.5" font-family="Helvetica,sans-Serif" font-size="10.00">LGE::LxFile::GetFileSize</text>
</a>
</g>
</g>
<!-- Node1&#45;&gt;Node4 -->
<g id="edge3_Node000001_Node000004" class="edge">
<title>Node1&#45;&gt;Node4</title>
<g id="a_edge3_Node000001_Node000004"><a xlink:title=" ">
<path fill="none" stroke="#63b8ff" d="M140.14,-84.33C149.76,-83.26 159.67,-82.16 169.36,-81.09"/>
<polygon fill="#63b8ff" stroke="#63b8ff" points="169.54,-84.59 179.09,-80.01 168.77,-77.63 169.54,-84.59"/>
</a>
</g>
</g>
<!-- Node5 -->
<g id="Node000005" class="node">
<title>Node5</title>
<g id="a_Node000005"><a xlink:href="namespaceLGE_1_1Recycle.html#a6b2b1d5c0fd3a02630fc333108cf01d4" target="_top" xlink:title=" ">
<polygon fill="white" stroke="#666666" points="311,-45 175.75,-45 175.75,-13 311,-13 311,-45"/>
<text xml:space="preserve" text-anchor="start" x="183.75" y="-31.5" font-family="Helvetica,sans-Serif" font-size="10.00">LGE::Recycle::GetRecycle</text>
<text xml:space="preserve" text-anchor="middle" x="243.38" y="-19.5" font-family="Helvetica,sans-Serif" font-size="10.00">BinPath</text>
</a>
</g>
</g>
<!-- Node1&#45;&gt;Node5 -->
<g id="edge4_Node000001_Node000005" class="edge">
<title>Node1&#45;&gt;Node5</title>
<g id="a_edge4_Node000001_Node000005"><a xlink:title=" ">
<path fill="none" stroke="#63b8ff" d="M99.19,-81.6C123,-72.85 157.75,-60.09 187.05,-49.32"/>
<polygon fill="#63b8ff" stroke="#63b8ff" points="187.96,-52.72 196.14,-45.98 185.55,-46.15 187.96,-52.72"/>
</a>
</g>
</g>
<!-- Node6 -->
<g id="Node000006" class="node">
<title>Node6</title>
<g id="a_Node000006"><a xlink:href="namespaceLGE_1_1LxFS.html#a5684a30f3fa2906f4dafed0258a79166" target="_top" xlink:title=" ">
<polygon fill="white" stroke="#666666" points="467.25,-58 347,-58 347,-38 467.25,-38 467.25,-58"/>
<text xml:space="preserve" text-anchor="middle" x="407.12" y="-44.5" font-family="Helvetica,sans-Serif" font-size="10.00">LGE::LxFS::IsInitialized</text>
</a>
</g>
</g>
<!-- Node5&#45;&gt;Node6 -->
<g id="edge5_Node000005_Node000006" class="edge">
<title>Node5&#45;&gt;Node6</title>
<g id="a_edge5_Node000005_Node000006"><a xlink:title=" ">
<path fill="none" stroke="#63b8ff" d="M311.1,-36.84C319.08,-37.78 327.26,-38.74 335.3,-39.68"/>
<polygon fill="#63b8ff" stroke="#63b8ff" points="334.7,-43.13 345.04,-40.82 335.52,-36.18 334.7,-43.13"/>
</a>
</g>
</g>
<!-- Node7 -->
<g id="Node000007" class="node">
<title>Node7</title>
<g id="a_Node000007"><a xlink:href="namespaceLGE_1_1LxFS.html#a12aeb6699602f14153953dceb4284914" target="_top" xlink:title=" ">
<polygon fill="white" stroke="#666666" points="455.25,-20 359,-20 359,0 455.25,0 455.25,-20"/>
<text xml:space="preserve" text-anchor="middle" x="407.12" y="-6.5" font-family="Helvetica,sans-Serif" font-size="10.00">LGE::LxFS::Paths</text>
</a>
</g>
</g>
<!-- Node5&#45;&gt;Node7 -->
<g id="edge6_Node000005_Node000007" class="edge">
<title>Node5&#45;&gt;Node7</title>
<g id="a_edge6_Node000005_Node000007"><a xlink:title=" ">
<path fill="none" stroke="#63b8ff" d="M311.1,-21.16C323.23,-19.74 335.81,-18.26 347.68,-16.87"/>
<polygon fill="#63b8ff" stroke="#63b8ff" points="347.78,-20.38 357.31,-15.73 346.97,-13.43 347.78,-20.38"/>
</a>
</g>
</g>
</g>
</svg>
