<?xml version="1.0" encoding="UTF-8" standalone="no"?>
<!DOCTYPE svg PUBLIC "-//W3C//DTD SVG 1.1//EN"
 "http://www.w3.org/Graphics/SVG/1.1/DTD/svg11.dtd">
<!-- Generated by graphviz version 14.0.2 (20251019.1705)
 -->
<!-- Title: LGE::MetaDB::MetaPathFor Pages: 1 -->
<svg width="1066pt" height="511pt"
 viewBox="0.00 0.00 1066.00 511.00" xmlns="http://www.w3.org/2000/svg" xmlns:xlink="http://www.w3.org/1999/xlink">
<g id="graph0" class="graph" transform="scale(1 1) rotate(0) translate(4 507)">
<title>LGE::MetaDB::MetaPathFor</title>
<!-- Node1 -->
<g id="Node000001" class="node">
<title>Node1</title>
<g id="a_Node000001"><a xlink:title=" ">
<polygon fill="#999999" stroke="#666666" points="1057.5,-367 917.75,-367 917.75,-347 1057.5,-347 1057.5,-367"/>
<text xml:space="preserve" text-anchor="middle" x="987.62" y="-353.5" font-family="Helvetica,sans-Serif" font-size="10.00">LGE::MetaDB::MetaPathFor</text>
</a>
</g>
</g>
<!-- Node2 -->
<g id="Node000002" class="node">
<title>Node2</title>
<g id="a_Node000002"><a xlink:href="namespaceLGE_1_1Backup.html#a8db5be221811de56211321d119281ce0" target="_top" xlink:title=" ">
<polygon fill="white" stroke="#666666" points="881.75,-447 739,-447 739,-427 881.75,-427 881.75,-447"/>
<text xml:space="preserve" text-anchor="middle" x="810.38" y="-433.5" font-family="Helvetica,sans-Serif" font-size="10.00">LGE::Backup::CreateBackup</text>
</a>
</g>
</g>
<!-- Node1&#45;&gt;Node2 -->
<g id="edge1_Node000001_Node000002" class="edge">
<title>Node1&#45;&gt;Node2</title>
<g id="a_edge1_Node000001_Node000002"><a xlink:title=" ">
<path fill="none" stroke="#63b8ff" d="M959.95,-373.26C939.15,-385.5 909.26,-402.14 881.75,-414 870.89,-418.68 858.75,-422.97 847.64,-426.54"/>
<polygon fill="#63b8ff" stroke="#63b8ff" points="961.56,-376.37 968.36,-368.25 957.98,-370.36 961.56,-376.37"/>
</a>
</g>
</g>
<!-- Node5 -->
<g id="Node000005" class="node">
<title>Node5</title>
<g id="a_Node000005"><a xlink:href="namespaceLGE_1_1MetaDB.html#ae6d2f66d56cb1869a9d56d4ab2769cdc" target="_top" xlink:title=" ">
<polygon fill="white" stroke="#666666" points="866.38,-405 754.38,-405 754.38,-385 866.38,-385 866.38,-405"/>
<text xml:space="preserve" text-anchor="middle" x="810.38" y="-391.5" font-family="Helvetica,sans-Serif" font-size="10.00">LGE::MetaDB::Delete</text>
</a>
</g>
</g>
<!-- Node1&#45;&gt;Node5 -->
<g id="edge4_Node000001_Node000005" class="edge">
<title>Node1&#45;&gt;Node5</title>
<g id="a_edge4_Node000001_Node000005"><a xlink:title=" ">
<path fill="none" stroke="#63b8ff" d="M927.05,-369.92C905.06,-374.69 880.43,-380.03 859.57,-384.55"/>
<polygon fill="#63b8ff" stroke="#63b8ff" points="927.76,-373.34 936.79,-367.81 926.28,-366.5 927.76,-373.34"/>
</a>
</g>
</g>
<!-- Node6 -->
<g id="Node000006" class="node">
<title>Node6</title>
<g id="a_Node000006"><a xlink:href="namespaceLGE_1_1MetaDB.html#a3319d4a6a942262802fdf7ec070b368c" target="_top" xlink:title=" ">
<polygon fill="white" stroke="#666666" points="678.25,-403 567,-403 567,-383 678.25,-383 678.25,-403"/>
<text xml:space="preserve" text-anchor="middle" x="622.62" y="-389.5" font-family="Helvetica,sans-Serif" font-size="10.00">LGE::MetaDB::Exists</text>
</a>
</g>
</g>
<!-- Node1&#45;&gt;Node6 -->
<g id="edge5_Node000001_Node000006" class="edge">
<title>Node1&#45;&gt;Node6</title>
<g id="a_edge5_Node000001_Node000006"><a xlink:title=" ">
<path fill="none" stroke="#63b8ff" d="M906.02,-361.76C857.54,-364.98 794.64,-369.77 739,-376 719.28,-378.21 697.75,-381.21 678.69,-384.09"/>
<polygon fill="#63b8ff" stroke="#63b8ff" points="906.13,-365.26 915.88,-361.11 905.67,-358.27 906.13,-365.26"/>
</a>
</g>
</g>
<!-- Node14 -->
<g id="Node000014" class="node">
<title>Node14</title>
<g id="a_Node000014"><a xlink:href="namespaceLGE_1_1MetaDB.html#a9f494f7c23ef0715fa5881a46b93c940" target="_top" xlink:title=" ">
<polygon fill="white" stroke="#666666" points="674.88,-287 570.38,-287 570.38,-267 674.88,-267 674.88,-287"/>
<text xml:space="preserve" text-anchor="middle" x="622.62" y="-273.5" font-family="Helvetica,sans-Serif" font-size="10.00">LGE::MetaDB::Load</text>
</a>
</g>
</g>
<!-- Node1&#45;&gt;Node14 -->
<g id="edge13_Node000001_Node000014" class="edge">
<title>Node1&#45;&gt;Node14</title>
<g id="a_edge13_Node000001_Node000014"><a xlink:title=" ">
<path fill="none" stroke="#63b8ff" d="M928.13,-344.11C856.66,-328.36 737.13,-302.02 671.09,-287.46"/>
<polygon fill="#63b8ff" stroke="#63b8ff" points="927.17,-347.48 937.69,-346.22 928.68,-340.65 927.17,-347.48"/>
</a>
</g>
</g>
<!-- Node25 -->
<g id="Node000025" class="node">
<title>Node25</title>
<g id="a_Node000025"><a xlink:href="namespaceLGE_1_1MetaDB.html#a93501266bbc2bb77874f90247fcc90ba" target="_top" xlink:title=" ">
<polygon fill="white" stroke="#666666" points="863.38,-140 757.38,-140 757.38,-120 863.38,-120 863.38,-140"/>
<text xml:space="preserve" text-anchor="middle" x="810.38" y="-126.5" font-family="Helvetica,sans-Serif" font-size="10.00">LGE::MetaDB::Save</text>
</a>
</g>
</g>
<!-- Node1&#45;&gt;Node25 -->
<g id="edge27_Node000001_Node000025" class="edge">
<title>Node1&#45;&gt;Node25</title>
<g id="a_edge27_Node000001_Node000025"><a xlink:title=" ">
<path fill="none" stroke="#63b8ff" d="M971.69,-337.66C936,-291.43 846.68,-175.73 819.41,-140.4"/>
<polygon fill="#63b8ff" stroke="#63b8ff" points="968.83,-339.68 977.71,-345.46 974.37,-335.4 968.83,-339.68"/>
</a>
</g>
</g>
<!-- Node3 -->
<g id="Node000003" class="node">
<title>Node3</title>
<g id="a_Node000003"><a xlink:href="namespaceLGE_1_1Backup.html#ad6294b6da335fe274372b3821fe490b4" target="_top" xlink:title=" ">
<polygon fill="white" stroke="#666666" points="703,-503 542.25,-503 542.25,-471 703,-471 703,-503"/>
<text xml:space="preserve" text-anchor="start" x="550.25" y="-489.5" font-family="Helvetica,sans-Serif" font-size="10.00">LGE::Backup::CreateIncremental</text>
<text xml:space="preserve" text-anchor="middle" x="622.62" y="-477.5" font-family="Helvetica,sans-Serif" font-size="10.00">Backup</text>
</a>
</g>
</g>
<!-- Node2&#45;&gt;Node3 -->
<g id="edge2_Node000002_Node000003" class="edge">
<title>Node2&#45;&gt;Node3</title>
<g id="a_edge2_Node000002_Node000003"><a xlink:title=" ">
<path fill="none" stroke="#63b8ff" d="M759.55,-450.41C736.56,-456.6 709.05,-464 684.82,-470.53"/>
<polygon fill="#63b8ff" stroke="#63b8ff" points="760.23,-453.85 768.97,-447.88 758.41,-447.09 760.23,-453.85"/>
</a>
</g>
</g>
<!-- Node4 -->
<g id="Node000004" class="node">
<title>Node4</title>
<g id="a_Node000004"><a xlink:href="namespaceLGE_1_1Backup.html#a7de11ff292510de53398d602090fa1fe" target="_top" xlink:title=" ">
<polygon fill="white" stroke="#666666" points="703,-453 542.25,-453 542.25,-421 703,-421 703,-453"/>
<text xml:space="preserve" text-anchor="start" x="550.25" y="-439.5" font-family="Helvetica,sans-Serif" font-size="10.00">LGE::Backup::PerformScheduled</text>
<text xml:space="preserve" text-anchor="middle" x="622.62" y="-427.5" font-family="Helvetica,sans-Serif" font-size="10.00">Backup</text>
</a>
</g>
</g>
<!-- Node2&#45;&gt;Node4 -->
<g id="edge3_Node000002_Node000004" class="edge">
<title>Node2&#45;&gt;Node4</title>
<g id="a_edge3_Node000002_Node000004"><a xlink:title=" ">
<path fill="none" stroke="#63b8ff" d="M727.19,-437C719.32,-437 711.34,-437 703.49,-437"/>
<polygon fill="#63b8ff" stroke="#63b8ff" points="727.11,-440.5 737.11,-437 727.11,-433.5 727.11,-440.5"/>
</a>
</g>
</g>
<!-- Node7 -->
<g id="Node000007" class="node">
<title>Node7</title>
<g id="a_Node000007"><a xlink:href="namespaceLGE_1_1Validation.html#ae388b93a917b4462203ff6011eb925db" target="_top" xlink:title=" ">
<polygon fill="white" stroke="#666666" points="489,-414 365,-414 365,-382 489,-382 489,-414"/>
<text xml:space="preserve" text-anchor="start" x="373" y="-400.5" font-family="Helvetica,sans-Serif" font-size="10.00">LGE::Validation::Validate</text>
<text xml:space="preserve" text-anchor="middle" x="427" y="-388.5" font-family="Helvetica,sans-Serif" font-size="10.00">Asset</text>
</a>
</g>
</g>
<!-- Node6&#45;&gt;Node7 -->
<g id="edge6_Node000006_Node000007" class="edge">
<title>Node6&#45;&gt;Node7</title>
<g id="a_edge6_Node000006_Node000007"><a xlink:title=" ">
<path fill="none" stroke="#63b8ff" d="M555.35,-394.71C533.92,-395.26 510.27,-395.88 489.23,-396.42"/>
<polygon fill="#63b8ff" stroke="#63b8ff" points="555.24,-398.22 565.14,-394.46 555.06,-391.22 555.24,-398.22"/>
</a>
</g>
</g>
<!-- Node13 -->
<g id="Node000013" class="node">
<title>Node13</title>
<g id="a_Node000013"><a xlink:href="namespaceLGE_1_1Validation.html#a3a3151866b20f58b56467e0f10604685" target="_top" xlink:title=" ">
<polygon fill="white" stroke="#666666" points="489,-464 365,-464 365,-432 489,-432 489,-464"/>
<text xml:space="preserve" text-anchor="start" x="373" y="-450.5" font-family="Helvetica,sans-Serif" font-size="10.00">LGE::Validation::Validate</text>
<text xml:space="preserve" text-anchor="middle" x="427" y="-438.5" font-family="Helvetica,sans-Serif" font-size="10.00">Metadata</text>
</a>
</g>
</g>
<!-- Node6&#45;&gt;Node13 -->
<g id="edge12_Node000006_Node000013" class="edge">
<title>Node6&#45;&gt;Node13</title>
<g id="a_edge12_Node000006_Node000013"><a xlink:title=" ">
<path fill="none" stroke="#63b8ff" d="M564.73,-406.11C557.15,-408 549.5,-409.99 542.25,-412 535.79,-413.79 506.83,-422.92 479.68,-431.53"/>
<polygon fill="#63b8ff" stroke="#63b8ff" points="565.39,-409.55 574.26,-403.77 563.72,-402.75 565.39,-409.55"/>
</a>
</g>
</g>
<!-- Node8 -->
<g id="Node000008" class="node">
<title>Node8</title>
<g id="a_Node000008"><a xlink:href="namespaceLGE_1_1Validation.html#a5ed2957323e8381437806ac0d0fd02cf" target="_top" xlink:title=" ">
<polygon fill="white" stroke="#666666" points="308,-364 161.5,-364 161.5,-344 308,-344 308,-364"/>
<text xml:space="preserve" text-anchor="middle" x="234.75" y="-350.5" font-family="Helvetica,sans-Serif" font-size="10.00">LGE::Validation::CheckHealth</text>
</a>
</g>
</g>
<!-- Node7&#45;&gt;Node8 -->
<g id="edge7_Node000007_Node000008" class="edge">
<title>Node7&#45;&gt;Node8</title>
<g id="a_edge7_Node000007_Node000008"><a xlink:title=" ">
<path fill="none" stroke="#63b8ff" d="M353.69,-381.28C329.23,-375.62 302.63,-369.47 280.89,-364.44"/>
<polygon fill="#63b8ff" stroke="#63b8ff" points="352.75,-384.65 363.28,-383.49 354.33,-377.83 352.75,-384.65"/>
</a>
</g>
</g>
<!-- Node9 -->
<g id="Node000009" class="node">
<title>Node9</title>
<g id="a_Node000009"><a xlink:href="namespaceLGE_1_1Bundles.html#aa9d4c4452f76b1187a963bea3168be71" target="_top" xlink:title=" ">
<polygon fill="white" stroke="#666666" points="305.75,-490 163.75,-490 163.75,-470 305.75,-470 305.75,-490"/>
<text xml:space="preserve" text-anchor="middle" x="234.75" y="-476.5" font-family="Helvetica,sans-Serif" font-size="10.00">LGE::Bundles::CreateBundle</text>
</a>
</g>
</g>
<!-- Node7&#45;&gt;Node9 -->
<g id="edge8_Node000007_Node000009" class="edge">
<title>Node7&#45;&gt;Node9</title>
<g id="a_edge8_Node000007_Node000009"><a xlink:title=" ">
<path fill="none" stroke="#63b8ff" d="M354.44,-419.13C352.15,-420.36 349.91,-421.64 347.75,-423 328.05,-435.37 331.84,-449.27 311.75,-461 305.88,-464.43 299.4,-467.25 292.78,-469.55"/>
<polygon fill="#63b8ff" stroke="#63b8ff" points="355.94,-422.29 363.46,-414.82 352.93,-415.98 355.94,-422.29"/>
</a>
</g>
</g>
<!-- Node10 -->
<g id="Node000010" class="node">
<title>Node10</title>
<g id="a_Node000010"><a xlink:href="namespaceLGE_1_1Validation.html#a467a0168bbefb71a643b4764f249c376" target="_top" xlink:title=" ">
<polygon fill="white" stroke="#666666" points="306.5,-273 163,-273 163,-253 306.5,-253 306.5,-273"/>
<text xml:space="preserve" text-anchor="middle" x="234.75" y="-259.5" font-family="Helvetica,sans-Serif" font-size="10.00">LGE::Validation::RepairAsset</text>
</a>
</g>
</g>
<!-- Node7&#45;&gt;Node10 -->
<g id="edge9_Node000007_Node000010" class="edge">
<title>Node7&#45;&gt;Node10</title>
<g id="a_edge9_Node000007_Node000010"><a xlink:title=" ">
<path fill="none" stroke="#63b8ff" d="M354.65,-378.51C352.22,-376.82 349.9,-374.99 347.75,-373 316.71,-344.32 343.18,-313.25 311.75,-285 306.34,-280.13 299.91,-276.34 293.11,-273.38"/>
<polygon fill="#63b8ff" stroke="#63b8ff" points="352.84,-381.5 363.23,-383.55 356.38,-375.47 352.84,-381.5"/>
</a>
</g>
</g>
<!-- Node11 -->
<g id="Node000011" class="node">
<title>Node11</title>
<g id="a_Node000011"><a xlink:href="namespaceLGE_1_1Validation.html#ab5e87b018ce35925ea7bc7cd1f6b6a87" target="_top" xlink:title=" ">
<polygon fill="white" stroke="#666666" points="302.38,-452 167.12,-452 167.12,-432 302.38,-432 302.38,-452"/>
<text xml:space="preserve" text-anchor="middle" x="234.75" y="-438.5" font-family="Helvetica,sans-Serif" font-size="10.00">LGE::Validation::ValidateAll</text>
</a>
</g>
</g>
<!-- Node7&#45;&gt;Node11 -->
<g id="edge10_Node000007_Node000011" class="edge">
<title>Node7&#45;&gt;Node11</title>
<g id="a_edge10_Node000007_Node000011"><a xlink:title=" ">
<path fill="none" stroke="#63b8ff" d="M353.69,-414.72C329.23,-420.38 302.63,-426.53 280.89,-431.56"/>
<polygon fill="#63b8ff" stroke="#63b8ff" points="354.33,-418.17 363.28,-412.51 352.75,-411.35 354.33,-418.17"/>
</a>
</g>
</g>
<!-- Node12 -->
<g id="Node000012" class="node">
<title>Node12</title>
<g id="a_Node000012"><a xlink:href="namespaceLGE_1_1Validation.html#a79589cf3c193492d81b8c87268350ce5" target="_top" xlink:title=" ">
<polygon fill="white" stroke="#666666" points="296.75,-414 172.75,-414 172.75,-382 296.75,-382 296.75,-414"/>
<text xml:space="preserve" text-anchor="start" x="180.75" y="-400.5" font-family="Helvetica,sans-Serif" font-size="10.00">LGE::Validation::Validate</text>
<text xml:space="preserve" text-anchor="middle" x="234.75" y="-388.5" font-family="Helvetica,sans-Serif" font-size="10.00">Assets</text>
</a>
</g>
</g>
<!-- Node7&#45;&gt;Node12 -->
<g id="edge11_Node000007_Node000012" class="edge">
<title>Node7&#45;&gt;Node12</title>
<g id="a_edge11_Node000007_Node000012"><a xlink:title=" ">
<path fill="none" stroke="#63b8ff" d="M353.4,-398C334.87,-398 315.12,-398 297.2,-398"/>
<polygon fill="#63b8ff" stroke="#63b8ff" points="353.24,-401.5 363.24,-398 353.24,-394.5 353.24,-401.5"/>
</a>
</g>
</g>
<!-- Node14&#45;&gt;Node7 -->
<g id="edge25_Node000014_Node000007" class="edge">
<title>Node14&#45;&gt;Node7</title>
<g id="a_edge25_Node000014_Node000007"><a xlink:title=" ">
<path fill="none" stroke="#63b8ff" d="M603.99,-295.48C582.66,-316.87 544.8,-351.86 506.25,-373 500.37,-376.22 494.02,-379.11 487.55,-381.66"/>
<polygon fill="#63b8ff" stroke="#63b8ff" points="606.27,-298.16 610.76,-288.57 601.27,-293.26 606.27,-298.16"/>
</a>
</g>
</g>
<!-- Node14&#45;&gt;Node13 -->
<g id="edge26_Node000014_Node000013" class="edge">
<title>Node14&#45;&gt;Node13</title>
<g id="a_edge26_Node000014_Node000013"><a xlink:title=" ">
<path fill="none" stroke="#63b8ff" d="M605.5,-296.1C589.25,-315.49 563.58,-346.49 542.25,-374 525.69,-395.35 528.19,-407.23 506.25,-423 501.04,-426.75 495.24,-429.95 489.23,-432.68"/>
<polygon fill="#63b8ff" stroke="#63b8ff" points="608.14,-298.4 611.9,-288.49 602.78,-293.89 608.14,-298.4"/>
</a>
</g>
</g>
<!-- Node15 -->
<g id="Node000015" class="node">
<title>Node15</title>
<g id="a_Node000015"><a xlink:href="namespaceLGE_1_1Thumbs.html#a20e7c9fbfb16b84f63099872c64f241d" target="_top" xlink:title=" ">
<polygon fill="white" stroke="#666666" points="479.25,-226 374.75,-226 374.75,-206 479.25,-206 479.25,-226"/>
<text xml:space="preserve" text-anchor="middle" x="427" y="-212.5" font-family="Helvetica,sans-Serif" font-size="10.00">LGE::Thumbs::Build</text>
</a>
</g>
</g>
<!-- Node14&#45;&gt;Node15 -->
<g id="edge14_Node000014_Node000015" class="edge">
<title>Node14&#45;&gt;Node15</title>
<g id="a_edge14_Node000014_Node000015"><a xlink:title=" ">
<path fill="none" stroke="#63b8ff" d="M585.33,-262.62C562.78,-253.97 533.08,-243.11 506.25,-235 496.08,-231.92 485.05,-229 474.57,-226.41"/>
<polygon fill="#63b8ff" stroke="#63b8ff" points="583.78,-265.77 594.37,-266.11 586.31,-259.24 583.78,-265.77"/>
</a>
</g>
</g>
<!-- Node18 -->
<g id="Node000018" class="node">
<title>Node18</title>
<g id="a_Node000018"><a xlink:href="namespaceLGE_1_1Validation.html#afc0cd19e558fa12673f3bdb03934e3cc" target="_top" xlink:title=" ">
<polygon fill="white" stroke="#666666" points="503.62,-364 350.38,-364 350.38,-344 503.62,-344 503.62,-364"/>
<text xml:space="preserve" text-anchor="middle" x="427" y="-350.5" font-family="Helvetica,sans-Serif" font-size="10.00">LGE::Validation::CheckIntegrity</text>
</a>
</g>
</g>
<!-- Node14&#45;&gt;Node18 -->
<g id="edge17_Node000014_Node000018" class="edge">
<title>Node14&#45;&gt;Node18</title>
<g id="a_edge17_Node000014_Node000018"><a xlink:title=" ">
<path fill="none" stroke="#63b8ff" d="M594.2,-293.02C571.31,-305.85 537.5,-323.52 506.25,-335 497.46,-338.23 487.91,-341.07 478.6,-343.5"/>
<polygon fill="#63b8ff" stroke="#63b8ff" points="595.92,-296.07 602.89,-288.09 592.46,-289.99 595.92,-296.07"/>
</a>
</g>
</g>
<!-- Node19 -->
<g id="Node000019" class="node">
<title>Node19</title>
<g id="a_Node000019"><a xlink:href="namespaceLGE_1_1Validation.html#a8a95594c50b28ddc8bbe656af6ff9385" target="_top" xlink:title=" ">
<polygon fill="white" stroke="#666666" points="506.25,-276 347.75,-276 347.75,-244 506.25,-244 506.25,-276"/>
<text xml:space="preserve" text-anchor="start" x="355.75" y="-262.5" font-family="Helvetica,sans-Serif" font-size="10.00">LGE::Validation::CheckMetadata</text>
<text xml:space="preserve" text-anchor="middle" x="427" y="-250.5" font-family="Helvetica,sans-Serif" font-size="10.00">Matches</text>
</a>
</g>
</g>
<!-- Node14&#45;&gt;Node19 -->
<g id="edge19_Node000014_Node000019" class="edge">
<title>Node14&#45;&gt;Node19</title>
<g id="a_edge19_Node000014_Node000019"><a xlink:title=" ">
<path fill="none" stroke="#63b8ff" d="M558.72,-271.48C542.05,-270.01 523.84,-268.41 506.45,-266.89"/>
<polygon fill="#63b8ff" stroke="#63b8ff" points="558.22,-274.95 568.48,-272.33 558.83,-267.97 558.22,-274.95"/>
</a>
</g>
</g>
<!-- Node20 -->
<g id="Node000020" class="node">
<title>Node20</title>
<g id="a_Node000020"><a xlink:href="namespaceLGE_1_1ImportExport.html#aee6be1efe068881b5c6d41e8011b729c" target="_top" xlink:title=" ">
<polygon fill="white" stroke="#666666" points="478.88,-326 375.12,-326 375.12,-294 478.88,-294 478.88,-326"/>
<text xml:space="preserve" text-anchor="start" x="383.12" y="-312.5" font-family="Helvetica,sans-Serif" font-size="10.00">LGE::ImportExport::</text>
<text xml:space="preserve" text-anchor="middle" x="427" y="-300.5" font-family="Helvetica,sans-Serif" font-size="10.00">ExportAsset</text>
</a>
</g>
</g>
<!-- Node14&#45;&gt;Node20 -->
<g id="edge20_Node000014_Node000020" class="edge">
<title>Node14&#45;&gt;Node20</title>
<g id="a_edge20_Node000014_Node000020"><a xlink:title=" ">
<path fill="none" stroke="#63b8ff" d="M558.82,-287.7C533.04,-292.1 503.58,-297.12 479.15,-301.28"/>
<polygon fill="#63b8ff" stroke="#63b8ff" points="559.23,-291.18 568.5,-286.05 558.05,-284.28 559.23,-291.18"/>
</a>
</g>
</g>
<!-- Node22 -->
<g id="Node000022" class="node">
<title>Node22</title>
<g id="a_Node000022"><a xlink:href="namespaceLGE_1_1Migration.html#aab471190f199928c6dc7f32f6e042b72" target="_top" xlink:title=" ">
<polygon fill="white" stroke="#666666" points="492.38,-188 361.62,-188 361.62,-156 492.38,-156 492.38,-188"/>
<text xml:space="preserve" text-anchor="start" x="369.62" y="-174.5" font-family="Helvetica,sans-Serif" font-size="10.00">LGE::Migration::MigrateAll</text>
<text xml:space="preserve" text-anchor="middle" x="427" y="-162.5" font-family="Helvetica,sans-Serif" font-size="10.00">Metadata</text>
</a>
</g>
</g>
<!-- Node14&#45;&gt;Node22 -->
<g id="edge22_Node000014_Node000022" class="edge">
<title>Node14&#45;&gt;Node22</title>
<g id="a_edge22_Node000014_Node000022"><a xlink:title=" ">
<path fill="none" stroke="#63b8ff" d="M600.36,-259.34C578.08,-241.57 541.49,-214.36 506.25,-197 499.85,-193.85 492.97,-190.97 486.04,-188.39"/>
<polygon fill="#63b8ff" stroke="#63b8ff" points="598.11,-262.02 608.08,-265.6 602.52,-256.58 598.11,-262.02"/>
</a>
</g>
</g>
<!-- Node23 -->
<g id="Node000023" class="node">
<title>Node23</title>
<g id="a_Node000023"><a xlink:href="namespaceLGE_1_1FSOps.html#af7986867af7965c5a24f0751897ccb06" target="_top" xlink:title=" ">
<polygon fill="white" stroke="#666666" points="486,-90 368,-90 368,-70 486,-70 486,-90"/>
<text xml:space="preserve" text-anchor="middle" x="427" y="-76.5" font-family="Helvetica,sans-Serif" font-size="10.00">LGE::FSOps::Reimport</text>
</a>
</g>
</g>
<!-- Node14&#45;&gt;Node23 -->
<g id="edge23_Node000014_Node000023" class="edge">
<title>Node14&#45;&gt;Node23</title>
<g id="a_edge23_Node000014_Node000023"><a xlink:title=" ">
<path fill="none" stroke="#63b8ff" d="M606.13,-257.96C584.67,-231.95 544.23,-184.32 506.25,-147 484.56,-125.69 457.17,-103.14 441.22,-90.39"/>
<polygon fill="#63b8ff" stroke="#63b8ff" points="603.38,-260.11 612.42,-265.62 608.79,-255.67 603.38,-260.11"/>
</a>
</g>
</g>
<!-- Node16 -->
<g id="Node000016" class="node">
<title>Node16</title>
<g id="a_Node000016"><a xlink:href="namespaceLGE_1_1Thumbs.html#aff11822502a43d83cc911490abbf316b" target="_top" xlink:title=" ">
<polygon fill="white" stroke="#666666" points="311.75,-232 157.75,-232 157.75,-200 311.75,-200 311.75,-232"/>
<text xml:space="preserve" text-anchor="start" x="165.75" y="-218.5" font-family="Helvetica,sans-Serif" font-size="10.00">LGE::Thumbs::ProcessPending</text>
<text xml:space="preserve" text-anchor="middle" x="234.75" y="-206.5" font-family="Helvetica,sans-Serif" font-size="10.00">Builds</text>
</a>
</g>
</g>
<!-- Node15&#45;&gt;Node16 -->
<g id="edge15_Node000015_Node000016" class="edge">
<title>Node15&#45;&gt;Node16</title>
<g id="a_edge15_Node000015_Node000016"><a xlink:title=" ">
<path fill="none" stroke="#63b8ff" d="M363.21,-216C346.86,-216 329.07,-216 312.11,-216"/>
<polygon fill="#63b8ff" stroke="#63b8ff" points="362.75,-219.5 372.75,-216 362.75,-212.5 362.75,-219.5"/>
</a>
</g>
</g>
<!-- Node17 -->
<g id="Node000017" class="node">
<title>Node17</title>
<g id="a_Node000017"><a xlink:href="classExampleApp.html#a69ab083ae73184bfc9bafca1c9310771" target="_top" xlink:title=" ">
<polygon fill="white" stroke="#666666" points="121.75,-226 0,-226 0,-206 121.75,-206 121.75,-226"/>
<text xml:space="preserve" text-anchor="middle" x="60.88" y="-212.5" font-family="Helvetica,sans-Serif" font-size="10.00">ExampleApp::OnUpdate</text>
</a>
</g>
</g>
<!-- Node16&#45;&gt;Node17 -->
<g id="edge16_Node000016_Node000017" class="edge">
<title>Node16&#45;&gt;Node17</title>
<g id="a_edge16_Node000016_Node000017"><a xlink:title=" ">
<path fill="none" stroke="#63b8ff" d="M145.94,-216C137.86,-216 129.79,-216 122.04,-216"/>
<polygon fill="#63b8ff" stroke="#63b8ff" points="145.85,-219.5 155.85,-216 145.85,-212.5 145.85,-219.5"/>
</a>
</g>
</g>
<!-- Node18&#45;&gt;Node8 -->
<g id="edge18_Node000018_Node000008" class="edge">
<title>Node18&#45;&gt;Node8</title>
<g id="a_edge18_Node000018_Node000008"><a xlink:title=" ">
<path fill="none" stroke="#63b8ff" d="M338.6,-354C328.44,-354 318.16,-354 308.24,-354"/>
<polygon fill="#63b8ff" stroke="#63b8ff" points="338.47,-357.5 348.47,-354 338.47,-350.5 338.47,-357.5"/>
</a>
</g>
</g>
<!-- Node21 -->
<g id="Node000021" class="node">
<title>Node21</title>
<g id="a_Node000021"><a xlink:href="namespaceLGE_1_1ImportExport.html#a9f66230255c444c6b3c439ce3c1459f6" target="_top" xlink:title=" ">
<polygon fill="white" stroke="#666666" points="286.62,-326 182.88,-326 182.88,-294 286.62,-294 286.62,-326"/>
<text xml:space="preserve" text-anchor="start" x="190.88" y="-312.5" font-family="Helvetica,sans-Serif" font-size="10.00">LGE::ImportExport::</text>
<text xml:space="preserve" text-anchor="middle" x="234.75" y="-300.5" font-family="Helvetica,sans-Serif" font-size="10.00">ExportAssets</text>
</a>
</g>
</g>
<!-- Node20&#45;&gt;Node21 -->
<g id="edge21_Node000020_Node000021" class="edge">
<title>Node20&#45;&gt;Node21</title>
<g id="a_edge21_Node000020_Node000021"><a xlink:title=" ">
<path fill="none" stroke="#63b8ff" d="M363.3,-310C338.59,-310 310.55,-310 287.08,-310"/>
<polygon fill="#63b8ff" stroke="#63b8ff" points="363.25,-313.5 373.25,-310 363.25,-306.5 363.25,-313.5"/>
</a>
</g>
</g>
<!-- Node24 -->
<g id="Node000024" class="node">
<title>Node24</title>
<g id="a_Node000024"><a xlink:href="namespaceLGE_1_1ImportExport.html#aa73ba2a6e02f5350668e8a28ecea64c2" target="_top" xlink:title=" ">
<polygon fill="white" stroke="#666666" points="286.62,-96 182.88,-96 182.88,-64 286.62,-64 286.62,-96"/>
<text xml:space="preserve" text-anchor="start" x="190.88" y="-82.5" font-family="Helvetica,sans-Serif" font-size="10.00">LGE::ImportExport::</text>
<text xml:space="preserve" text-anchor="middle" x="234.75" y="-70.5" font-family="Helvetica,sans-Serif" font-size="10.00">ReimportAsset</text>
</a>
</g>
</g>
<!-- Node23&#45;&gt;Node24 -->
<g id="edge24_Node000023_Node000024" class="edge">
<title>Node23&#45;&gt;Node24</title>
<g id="a_edge24_Node000023_Node000024"><a xlink:title=" ">
<path fill="none" stroke="#63b8ff" d="M356.21,-80C333.27,-80 308.22,-80 286.93,-80"/>
<polygon fill="#63b8ff" stroke="#63b8ff" points="356.11,-83.5 366.11,-80 356.11,-76.5 356.11,-83.5"/>
</a>
</g>
</g>
<!-- Node25&#45;&gt;Node10 -->
<g id="edge36_Node000025_Node000010" class="edge">
<title>Node25&#45;&gt;Node10</title>
<g id="a_edge36_Node000025_Node000010"><a xlink:title=" ">
<path fill="none" stroke="#63b8ff" d="M745.55,-123.97C634.04,-114.78 409.72,-102.67 347.75,-147 311.36,-173.03 344.68,-210.72 311.75,-241 306.49,-245.83 300.23,-249.61 293.6,-252.56"/>
<polygon fill="#63b8ff" stroke="#63b8ff" points="745.18,-127.45 755.44,-124.81 745.77,-120.48 745.18,-127.45"/>
</a>
</g>
</g>
<!-- Node25&#45;&gt;Node14 -->
<g id="edge32_Node000025_Node000014" class="edge">
<title>Node25&#45;&gt;Node14</title>
<g id="a_edge32_Node000025_Node000014"><a xlink:title=" ">
<path fill="none" stroke="#63b8ff" d="M787.3,-147.47C748.13,-178.47 667.67,-242.14 636.43,-266.87"/>
<polygon fill="#63b8ff" stroke="#63b8ff" points="789.46,-150.23 795.13,-141.28 785.11,-144.74 789.46,-150.23"/>
</a>
</g>
</g>
<!-- Node25&#45;&gt;Node22 -->
<g id="edge33_Node000025_Node000022" class="edge">
<title>Node25&#45;&gt;Node22</title>
<g id="a_edge33_Node000025_Node000022"><a xlink:title=" ">
<path fill="none" stroke="#63b8ff" d="M745.83,-138.67C731.74,-140.51 716.87,-142.38 703,-144 631.14,-152.38 548.55,-160.6 492.79,-165.95"/>
<polygon fill="#63b8ff" stroke="#63b8ff" points="745.97,-142.19 755.43,-137.41 745.06,-135.25 745.97,-142.19"/>
</a>
</g>
</g>
<!-- Node25&#45;&gt;Node23 -->
<g id="edge35_Node000025_Node000023" class="edge">
<title>Node25&#45;&gt;Node23</title>
<g id="a_edge35_Node000025_Node000023"><a xlink:title=" ">
<path fill="none" stroke="#63b8ff" d="M786.31,-113.29C765.64,-99.42 733.91,-80.76 703,-73 630.04,-54.69 542.77,-61.56 486.41,-69.55"/>
<polygon fill="#63b8ff" stroke="#63b8ff" points="784.05,-115.98 794.27,-118.79 788.03,-110.22 784.05,-115.98"/>
</a>
</g>
</g>
<!-- Node26 -->
<g id="Node000026" class="node">
<title>Node26</title>
<g id="a_Node000026"><a xlink:href="namespaceLGE_1_1FSOps.html#a7c3c8bb77f4634c4667e4896b11d66ad" target="_top" xlink:title=" ">
<polygon fill="white" stroke="#666666" points="683.5,-26 561.75,-26 561.75,-6 683.5,-6 683.5,-26"/>
<text xml:space="preserve" text-anchor="middle" x="622.62" y="-12.5" font-family="Helvetica,sans-Serif" font-size="10.00">LGE::FSOps::ImportFile</text>
</a>
</g>
</g>
<!-- Node25&#45;&gt;Node26 -->
<g id="edge28_Node000025_Node000026" class="edge">
<title>Node25&#45;&gt;Node26</title>
<g id="a_edge28_Node000025_Node000026"><a xlink:title=" ">
<path fill="none" stroke="#63b8ff" d="M792.08,-111.38C772.33,-91.14 738.18,-59.12 703,-40 692.63,-34.36 680.76,-29.87 669.41,-26.38"/>
<polygon fill="#63b8ff" stroke="#63b8ff" points="789.37,-113.61 798.82,-118.42 794.43,-108.78 789.37,-113.61"/>
</a>
</g>
</g>
<!-- Node30 -->
<g id="Node000030" class="node">
<title>Node30</title>
<g id="a_Node000030"><a xlink:href="namespaceLGE_1_1FSOps.html#af18c06e20bfe14f2a2de43ea8bddefc1" target="_top" xlink:title=" ">
<polygon fill="white" stroke="#666666" points="684.62,-102 560.62,-102 560.62,-82 684.62,-82 684.62,-102"/>
<text xml:space="preserve" text-anchor="middle" x="622.62" y="-88.5" font-family="Helvetica,sans-Serif" font-size="10.00">LGE::FSOps::NewAsset</text>
</a>
</g>
</g>
<!-- Node25&#45;&gt;Node30 -->
<g id="edge34_Node000025_Node000030" class="edge">
<title>Node25&#45;&gt;Node30</title>
<g id="a_edge34_Node000025_Node000030"><a xlink:title=" ">
<path fill="none" stroke="#63b8ff" d="M746.87,-117.21C723.4,-112.41 697.02,-107.01 674.71,-102.45"/>
<polygon fill="#63b8ff" stroke="#63b8ff" points="746.14,-120.64 756.64,-119.21 747.55,-113.78 746.14,-120.64"/>
</a>
</g>
</g>
<!-- Node27 -->
<g id="Node000027" class="node">
<title>Node27</title>
<g id="a_Node000027"><a xlink:href="namespaceLGE_1_1ImportExport.html#af78ec4a5e430226c5054a220cedc76b1" target="_top" xlink:title=" ">
<polygon fill="white" stroke="#666666" points="478.88,-32 375.12,-32 375.12,0 478.88,0 478.88,-32"/>
<text xml:space="preserve" text-anchor="start" x="383.12" y="-18.5" font-family="Helvetica,sans-Serif" font-size="10.00">LGE::ImportExport::</text>
<text xml:space="preserve" text-anchor="middle" x="427" y="-6.5" font-family="Helvetica,sans-Serif" font-size="10.00">ImportFile</text>
</a>
</g>
</g>
<!-- Node26&#45;&gt;Node27 -->
<g id="edge29_Node000026_Node000027" class="edge">
<title>Node26&#45;&gt;Node27</title>
<g id="a_edge29_Node000026_Node000027"><a xlink:title=" ">
<path fill="none" stroke="#63b8ff" d="M550.1,-16C526.63,-16 501.02,-16 479.35,-16"/>
<polygon fill="#63b8ff" stroke="#63b8ff" points="549.91,-19.5 559.91,-16 549.91,-12.5 549.91,-19.5"/>
</a>
</g>
</g>
<!-- Node28 -->
<g id="Node000028" class="node">
<title>Node28</title>
<g id="a_Node000028"><a xlink:href="namespaceLGE_1_1ImportExport.html#ae8496d7d19ac15289295442d11349580" target="_top" xlink:title=" ">
<polygon fill="white" stroke="#666666" points="286.62,-32 182.88,-32 182.88,0 286.62,0 286.62,-32"/>
<text xml:space="preserve" text-anchor="start" x="190.88" y="-18.5" font-family="Helvetica,sans-Serif" font-size="10.00">LGE::ImportExport::</text>
<text xml:space="preserve" text-anchor="middle" x="234.75" y="-6.5" font-family="Helvetica,sans-Serif" font-size="10.00">ImportFiles</text>
</a>
</g>
</g>
<!-- Node27&#45;&gt;Node28 -->
<g id="edge30_Node000027_Node000028" class="edge">
<title>Node27&#45;&gt;Node28</title>
<g id="a_edge30_Node000027_Node000028"><a xlink:title=" ">
<path fill="none" stroke="#63b8ff" d="M363.3,-16C338.59,-16 310.55,-16 287.08,-16"/>
<polygon fill="#63b8ff" stroke="#63b8ff" points="363.25,-19.5 373.25,-16 363.25,-12.5 363.25,-19.5"/>
</a>
</g>
</g>
<!-- Node29 -->
<g id="Node000029" class="node">
<title>Node29</title>
<g id="a_Node000029"><a xlink:href="namespaceLGE_1_1ImportExport.html#a8220fcef46f5c3ab8c10c64fd5860668" target="_top" xlink:title=" ">
<polygon fill="white" stroke="#666666" points="112.75,-32 9,-32 9,0 112.75,0 112.75,-32"/>
<text xml:space="preserve" text-anchor="start" x="17" y="-18.5" font-family="Helvetica,sans-Serif" font-size="10.00">LGE::ImportExport::</text>
<text xml:space="preserve" text-anchor="middle" x="60.88" y="-6.5" font-family="Helvetica,sans-Serif" font-size="10.00">ImportDirectory</text>
</a>
</g>
</g>
<!-- Node28&#45;&gt;Node29 -->
<g id="edge31_Node000028_Node000029" class="edge">
<title>Node28&#45;&gt;Node29</title>
<g id="a_edge31_Node000028_Node000029"><a xlink:title=" ">
<path fill="none" stroke="#63b8ff" d="M171.3,-16C152.17,-16 131.36,-16 113.08,-16"/>
<polygon fill="#63b8ff" stroke="#63b8ff" points="171.13,-19.5 181.13,-16 171.13,-12.5 171.13,-19.5"/>
</a>
</g>
</g>
</g>
</svg>
