<?xml version="1.0" encoding="UTF-8" standalone="no"?>
<!DOCTYPE svg PUBLIC "-//W3C//DTD SVG 1.1//EN"
 "http://www.w3.org/Graphics/SVG/1.1/DTD/svg11.dtd">
<!-- Generated by graphviz version 14.0.2 (20251019.1705)
 -->
<!-- Title: LGE::PackageMgr::IsInstalled Pages: 1 -->
<svg width="779pt" height="66pt"
 viewBox="0.00 0.00 779.00 66.00" xmlns="http://www.w3.org/2000/svg" xmlns:xlink="http://www.w3.org/1999/xlink">
<g id="graph0" class="graph" transform="scale(1 1) rotate(0) translate(4 62)">
<title>LGE::PackageMgr::IsInstalled</title>
<!-- Node1 -->
<g id="Node000001" class="node">
<title>Node1</title>
<g id="a_Node000001"><a xlink:title=" ">
<polygon fill="#999999" stroke="#666666" points="147.25,-39 0,-39 0,-19 147.25,-19 147.25,-39"/>
<text xml:space="preserve" text-anchor="middle" x="73.62" y="-25.5" font-family="Helvetica,sans-Serif" font-size="10.00">LGE::PackageMgr::IsInstalled</text>
</a>
</g>
</g>
<!-- Node2 -->
<g id="Node000002" class="node">
<title>Node2</title>
<g id="a_Node000002"><a xlink:href="namespaceLGE_1_1LxFile.html#a11e62876b312a11b881b484bb3a5ee71" target="_top" xlink:title=" ">
<polygon fill="white" stroke="#666666" points="322.25,-58 220.75,-58 220.75,-38 322.25,-38 322.25,-58"/>
<text xml:space="preserve" text-anchor="middle" x="271.5" y="-44.5" font-family="Helvetica,sans-Serif" font-size="10.00">LGE::LxFile::Exists</text>
</a>
</g>
</g>
<!-- Node1&#45;&gt;Node2 -->
<g id="edge1_Node000001_Node000002" class="edge">
<title>Node1&#45;&gt;Node2</title>
<g id="a_edge1_Node000001_Node000002"><a xlink:title=" ">
<path fill="none" stroke="#63b8ff" d="M147.56,-36.07C167.84,-38.04 189.65,-40.16 209.18,-42.05"/>
<polygon fill="#63b8ff" stroke="#63b8ff" points="208.6,-45.51 218.89,-42.99 209.27,-38.54 208.6,-45.51"/>
</a>
</g>
</g>
<!-- Node3 -->
<g id="Node000003" class="node">
<title>Node3</title>
<g id="a_Node000003"><a xlink:href="namespaceLGE_1_1PackageMgr.html#af9777ef900622c9d1604a6c8dc27559c" target="_top" xlink:title=" ">
<polygon fill="white" stroke="#666666" points="359.75,-20 183.25,-20 183.25,0 359.75,0 359.75,-20"/>
<text xml:space="preserve" text-anchor="middle" x="271.5" y="-6.5" font-family="Helvetica,sans-Serif" font-size="10.00">LGE::PackageMgr::GetPackagePath</text>
</a>
</g>
</g>
<!-- Node1&#45;&gt;Node3 -->
<g id="edge2_Node000001_Node000003" class="edge">
<title>Node1&#45;&gt;Node3</title>
<g id="a_edge2_Node000001_Node000003"><a xlink:title=" ">
<path fill="none" stroke="#63b8ff" d="M147.56,-21.93C155.4,-21.16 163.46,-20.38 171.54,-19.6"/>
<polygon fill="#63b8ff" stroke="#63b8ff" points="171.82,-23.09 181.43,-18.64 171.14,-16.12 171.82,-23.09"/>
</a>
</g>
</g>
<!-- Node4 -->
<g id="Node000004" class="node">
<title>Node4</title>
<g id="a_Node000004"><a xlink:href="namespaceLGE_1_1LxPath.html#a94ec3bdfd6948ddc25cda5d18154d4cf" target="_top" xlink:title=" ">
<polygon fill="white" stroke="#666666" points="492,-20 395.75,-20 395.75,0 492,0 492,-20"/>
<text xml:space="preserve" text-anchor="middle" x="443.88" y="-6.5" font-family="Helvetica,sans-Serif" font-size="10.00">LGE::LxPath::Join</text>
</a>
</g>
</g>
<!-- Node3&#45;&gt;Node4 -->
<g id="edge3_Node000003_Node000004" class="edge">
<title>Node3&#45;&gt;Node4</title>
<g id="a_edge3_Node000003_Node000004"><a xlink:title=" ">
<path fill="none" stroke="#63b8ff" d="M360.18,-10C368.3,-10 376.4,-10 384.16,-10"/>
<polygon fill="#63b8ff" stroke="#63b8ff" points="384.14,-13.5 394.14,-10 384.14,-6.5 384.14,-13.5"/>
</a>
</g>
</g>
<!-- Node5 -->
<g id="Node000005" class="node">
<title>Node5</title>
<g id="a_Node000005"><a xlink:href="namespaceLGE_1_1LxPath.html#a314a60ce690c90f4ee0b4e64c0199408" target="_top" xlink:title=" ">
<polygon fill="white" stroke="#666666" points="650.5,-20 528,-20 528,0 650.5,0 650.5,-20"/>
<text xml:space="preserve" text-anchor="middle" x="589.25" y="-6.5" font-family="Helvetica,sans-Serif" font-size="10.00">LGE::LxPath::Normalize</text>
</a>
</g>
</g>
<!-- Node4&#45;&gt;Node5 -->
<g id="edge4_Node000004_Node000005" class="edge">
<title>Node4&#45;&gt;Node5</title>
<g id="a_edge4_Node000004_Node000005"><a xlink:title=" ">
<path fill="none" stroke="#63b8ff" d="M492.22,-10C499.92,-10 508.06,-10 516.2,-10"/>
<polygon fill="#63b8ff" stroke="#63b8ff" points="516.15,-13.5 526.15,-10 516.15,-6.5 516.15,-13.5"/>
</a>
</g>
</g>
<!-- Node6 -->
<g id="Node000006" class="node">
<title>Node6</title>
<g id="a_Node000006"><a xlink:href="classLGE_1_1Log.html#a53f3f4b8797ffd18145739c9e66d690a" target="_top" xlink:title=" ">
<polygon fill="white" stroke="#666666" points="770.75,-20 686.5,-20 686.5,0 770.75,0 770.75,-20"/>
<text xml:space="preserve" text-anchor="middle" x="728.62" y="-6.5" font-family="Helvetica,sans-Serif" font-size="10.00">LGE::Log::Error</text>
</a>
</g>
</g>
<!-- Node5&#45;&gt;Node6 -->
<g id="edge5_Node000005_Node000006" class="edge">
<title>Node5&#45;&gt;Node6</title>
<g id="a_edge5_Node000005_Node000006"><a xlink:title=" ">
<path fill="none" stroke="#63b8ff" d="M650.9,-10C658.92,-10 667.09,-10 674.95,-10"/>
<polygon fill="#63b8ff" stroke="#63b8ff" points="674.7,-13.5 684.7,-10 674.7,-6.5 674.7,-13.5"/>
</a>
</g>
</g>
</g>
</svg>
