<?xml version="1.0" encoding="UTF-8" standalone="no"?>
<!DOCTYPE svg PUBLIC "-//W3C//DTD SVG 1.1//EN"
 "http://www.w3.org/Graphics/SVG/1.1/DTD/svg11.dtd">
<!-- Generated by graphviz version 14.0.2 (20251019.1705)
 -->
<!-- Title: LGE::Sync::DetectConflicts Pages: 1 -->
<svg width="595pt" height="192pt"
 viewBox="0.00 0.00 595.00 192.00" xmlns="http://www.w3.org/2000/svg" xmlns:xlink="http://www.w3.org/1999/xlink">
<g id="graph0" class="graph" transform="scale(1 1) rotate(0) translate(4 188)">
<title>LGE::Sync::DetectConflicts</title>
<!-- Node1 -->
<g id="Node000001" class="node">
<title>Node1</title>
<g id="a_Node000001"><a xlink:title=" ">
<polygon fill="#999999" stroke="#666666" points="138.25,-96 0,-96 0,-76 138.25,-76 138.25,-96"/>
<text xml:space="preserve" text-anchor="middle" x="69.12" y="-82.5" font-family="Helvetica,sans-Serif" font-size="10.00">LGE::Sync::DetectConflicts</text>
</a>
</g>
</g>
<!-- Node2 -->
<g id="Node000002" class="node">
<title>Node2</title>
<g id="a_Node000002"><a xlink:href="namespaceLGE_1_1LxFile.html#a11e62876b312a11b881b484bb3a5ee71" target="_top" xlink:title=" ">
<polygon fill="white" stroke="#666666" points="291.88,-184 190.38,-184 190.38,-164 291.88,-164 291.88,-184"/>
<text xml:space="preserve" text-anchor="middle" x="241.12" y="-170.5" font-family="Helvetica,sans-Serif" font-size="10.00">LGE::LxFile::Exists</text>
</a>
</g>
</g>
<!-- Node1&#45;&gt;Node2 -->
<g id="edge1_Node000001_Node000002" class="edge">
<title>Node1&#45;&gt;Node2</title>
<g id="a_edge1_Node000001_Node000002"><a xlink:title=" ">
<path fill="none" stroke="#63b8ff" d="M82.84,-96.3C101.73,-111.16 138.82,-138.62 174.25,-155 178.04,-156.75 182.02,-158.38 186.08,-159.88"/>
<polygon fill="#63b8ff" stroke="#63b8ff" points="184.88,-163.17 195.48,-163.1 187.15,-156.55 184.88,-163.17"/>
</a>
</g>
</g>
<!-- Node3 -->
<g id="Node000003" class="node">
<title>Node3</title>
<g id="a_Node000003"><a xlink:href="namespaceLGE_1_1AssetRegistry.html#ac9aa62a1e0c929e88bec00618b489988" target="_top" xlink:title=" ">
<polygon fill="white" stroke="#666666" points="293,-146 189.25,-146 189.25,-114 293,-114 293,-146"/>
<text xml:space="preserve" text-anchor="start" x="197.25" y="-132.5" font-family="Helvetica,sans-Serif" font-size="10.00">LGE::AssetRegistry</text>
<text xml:space="preserve" text-anchor="middle" x="241.12" y="-120.5" font-family="Helvetica,sans-Serif" font-size="10.00">::GetAllAssets</text>
</a>
</g>
</g>
<!-- Node1&#45;&gt;Node3 -->
<g id="edge2_Node000001_Node000003" class="edge">
<title>Node1&#45;&gt;Node3</title>
<g id="a_edge2_Node000001_Node000003"><a xlink:title=" ">
<path fill="none" stroke="#63b8ff" d="M110.41,-96.43C130.58,-101.65 155.44,-108.08 177.98,-113.92"/>
<polygon fill="#63b8ff" stroke="#63b8ff" points="176.81,-117.23 187.37,-116.35 178.56,-110.45 176.81,-117.23"/>
</a>
</g>
</g>
<!-- Node4 -->
<g id="Node000004" class="node">
<title>Node4</title>
<g id="a_Node000004"><a xlink:href="namespaceLGE_1_1LxPath.html#a282200340a7ec214f14f5d64e9e41396" target="_top" xlink:title=" ">
<polygon fill="white" stroke="#666666" points="308,-96 174.25,-96 174.25,-76 308,-76 308,-96"/>
<text xml:space="preserve" text-anchor="middle" x="241.12" y="-82.5" font-family="Helvetica,sans-Serif" font-size="10.00">LGE::LxPath::GetFilename</text>
</a>
</g>
</g>
<!-- Node1&#45;&gt;Node4 -->
<g id="edge3_Node000001_Node000004" class="edge">
<title>Node1&#45;&gt;Node4</title>
<g id="a_edge3_Node000001_Node000004"><a xlink:title=" ">
<path fill="none" stroke="#63b8ff" d="M138.29,-86C146.26,-86 154.44,-86 162.53,-86"/>
<polygon fill="#63b8ff" stroke="#63b8ff" points="162.37,-89.5 172.37,-86 162.37,-82.5 162.37,-89.5"/>
</a>
</g>
</g>
<!-- Node7 -->
<g id="Node000007" class="node">
<title>Node7</title>
<g id="a_Node000007"><a xlink:href="namespaceLGE_1_1LxFile.html#a40751ea42c228d8e2c6f6b0788e24aa7" target="_top" xlink:title=" ">
<polygon fill="white" stroke="#666666" points="303.5,-58 178.75,-58 178.75,-38 303.5,-38 303.5,-58"/>
<text xml:space="preserve" text-anchor="middle" x="241.12" y="-44.5" font-family="Helvetica,sans-Serif" font-size="10.00">LGE::LxFile::GetFileSize</text>
</a>
</g>
</g>
<!-- Node1&#45;&gt;Node7 -->
<g id="edge6_Node000001_Node000007" class="edge">
<title>Node1&#45;&gt;Node7</title>
<g id="a_edge6_Node000001_Node000007"><a xlink:title=" ">
<path fill="none" stroke="#63b8ff" d="M117.03,-75.52C137.19,-71.01 160.95,-65.7 182.2,-60.95"/>
<polygon fill="#63b8ff" stroke="#63b8ff" points="182.9,-64.38 191.9,-58.78 181.38,-57.55 182.9,-64.38"/>
</a>
</g>
</g>
<!-- Node8 -->
<g id="Node000008" class="node">
<title>Node8</title>
<g id="a_Node000008"><a xlink:href="namespaceLGE_1_1LxPath.html#a94ec3bdfd6948ddc25cda5d18154d4cf" target="_top" xlink:title=" ">
<polygon fill="white" stroke="#666666" points="289.25,-20 193,-20 193,0 289.25,0 289.25,-20"/>
<text xml:space="preserve" text-anchor="middle" x="241.12" y="-6.5" font-family="Helvetica,sans-Serif" font-size="10.00">LGE::LxPath::Join</text>
</a>
</g>
</g>
<!-- Node1&#45;&gt;Node8 -->
<g id="edge7_Node000001_Node000008" class="edge">
<title>Node1&#45;&gt;Node8</title>
<g id="a_edge7_Node000001_Node000008"><a xlink:title=" ">
<path fill="none" stroke="#63b8ff" d="M86.52,-75.54C106.57,-63.1 141.86,-42.35 174.25,-29 178.58,-27.21 183.14,-25.53 187.75,-23.95"/>
<polygon fill="#63b8ff" stroke="#63b8ff" points="188.64,-27.35 197.09,-20.95 186.5,-20.68 188.64,-27.35"/>
</a>
</g>
</g>
<!-- Node5 -->
<g id="Node000005" class="node">
<title>Node5</title>
<g id="a_Node000005"><a xlink:href="namespaceLGE_1_1LxPath.html#a314a60ce690c90f4ee0b4e64c0199408" target="_top" xlink:title=" ">
<polygon fill="white" stroke="#666666" points="466.5,-58 344,-58 344,-38 466.5,-38 466.5,-58"/>
<text xml:space="preserve" text-anchor="middle" x="405.25" y="-44.5" font-family="Helvetica,sans-Serif" font-size="10.00">LGE::LxPath::Normalize</text>
</a>
</g>
</g>
<!-- Node4&#45;&gt;Node5 -->
<g id="edge4_Node000004_Node000005" class="edge">
<title>Node4&#45;&gt;Node5</title>
<g id="a_edge4_Node000004_Node000005"><a xlink:title=" ">
<path fill="none" stroke="#63b8ff" d="M286.86,-75.52C305.99,-71.03 328.54,-65.75 348.73,-61.01"/>
<polygon fill="#63b8ff" stroke="#63b8ff" points="349.25,-64.49 358.19,-58.8 347.66,-57.67 349.25,-64.49"/>
</a>
</g>
</g>
<!-- Node6 -->
<g id="Node000006" class="node">
<title>Node6</title>
<g id="a_Node000006"><a xlink:href="classLGE_1_1Log.html#a53f3f4b8797ffd18145739c9e66d690a" target="_top" xlink:title=" ">
<polygon fill="white" stroke="#666666" points="586.75,-58 502.5,-58 502.5,-38 586.75,-38 586.75,-58"/>
<text xml:space="preserve" text-anchor="middle" x="544.62" y="-44.5" font-family="Helvetica,sans-Serif" font-size="10.00">LGE::Log::Error</text>
</a>
</g>
</g>
<!-- Node5&#45;&gt;Node6 -->
<g id="edge5_Node000005_Node000006" class="edge">
<title>Node5&#45;&gt;Node6</title>
<g id="a_edge5_Node000005_Node000006"><a xlink:title=" ">
<path fill="none" stroke="#63b8ff" d="M466.9,-48C474.92,-48 483.09,-48 490.95,-48"/>
<polygon fill="#63b8ff" stroke="#63b8ff" points="490.7,-51.5 500.7,-48 490.7,-44.5 490.7,-51.5"/>
</a>
</g>
</g>
<!-- Node8&#45;&gt;Node5 -->
<g id="edge8_Node000008_Node000005" class="edge">
<title>Node8&#45;&gt;Node5</title>
<g id="a_edge8_Node000008_Node000005"><a xlink:title=" ">
<path fill="none" stroke="#63b8ff" d="M286.86,-20.48C305.99,-24.97 328.54,-30.25 348.73,-34.99"/>
<polygon fill="#63b8ff" stroke="#63b8ff" points="347.66,-38.33 358.19,-37.2 349.25,-31.51 347.66,-38.33"/>
</a>
</g>
</g>
</g>
</svg>
