<?xml version="1.0" encoding="UTF-8" standalone="no"?>
<!DOCTYPE svg PUBLIC "-//W3C//DTD SVG 1.1//EN"
 "http://www.w3.org/Graphics/SVG/1.1/DTD/svg11.dtd">
<!-- Generated by graphviz version 14.0.2 (20251019.1705)
 -->
<!-- Title: LGE::AssetRegistry::BuildReverseDependencyMap Pages: 1 -->
<svg width="940pt" height="1042pt"
 viewBox="0.00 0.00 940.00 1042.00" xmlns="http://www.w3.org/2000/svg" xmlns:xlink="http://www.w3.org/1999/xlink">
<g id="graph0" class="graph" transform="scale(1 1) rotate(0) translate(4 1038)">
<title>LGE::AssetRegistry::BuildReverseDependencyMap</title>
<!-- Node1 -->
<g id="Node000001" class="node">
<title>Node1</title>
<g id="a_Node000001"><a xlink:title=" ">
<polygon fill="#999999" stroke="#666666" points="932.25,-619 778.25,-619 778.25,-587 932.25,-587 932.25,-619"/>
<text xml:space="preserve" text-anchor="start" x="786.25" y="-605.5" font-family="Helvetica,sans-Serif" font-size="10.00">LGE::AssetRegistry</text>
<text xml:space="preserve" text-anchor="middle" x="855.25" y="-593.5" font-family="Helvetica,sans-Serif" font-size="10.00">::BuildReverseDependencyMap</text>
</a>
</g>
</g>
<!-- Node2 -->
<g id="Node000002" class="node">
<title>Node2</title>
<g id="a_Node000002"><a xlink:href="namespaceLGE_1_1AssetRegistry.html#ad149a48ca6d3fb38debc8c384f1e0b18" target="_top" xlink:title=" ">
<polygon fill="white" stroke="#666666" points="742.25,-889 638.5,-889 638.5,-857 742.25,-857 742.25,-889"/>
<text xml:space="preserve" text-anchor="start" x="646.5" y="-875.5" font-family="Helvetica,sans-Serif" font-size="10.00">LGE::AssetRegistry</text>
<text xml:space="preserve" text-anchor="middle" x="690.38" y="-863.5" font-family="Helvetica,sans-Serif" font-size="10.00">::AddOrUpdate</text>
</a>
</g>
</g>
<!-- Node1&#45;&gt;Node2 -->
<g id="edge1_Node000001_Node000002" class="edge">
<title>Node1&#45;&gt;Node2</title>
<g id="a_edge1_Node000001_Node000002"><a xlink:title=" ">
<path fill="none" stroke="#63b8ff" d="M838.42,-629.24C805.07,-684.52 728.41,-811.6 701.19,-856.73"/>
<polygon fill="#63b8ff" stroke="#63b8ff" points="841.36,-631.15 843.52,-620.78 835.36,-627.53 841.36,-631.15"/>
</a>
</g>
</g>
<!-- Node14 -->
<g id="Node000014" class="node">
<title>Node14</title>
<g id="a_Node000014"><a xlink:href="namespaceLGE_1_1AssetRegistry.html#af9345d56722e55e0a02cc2b1c421da76" target="_top" xlink:title=" ">
<polygon fill="white" stroke="#666666" points="742.25,-368 638.5,-368 638.5,-336 742.25,-336 742.25,-368"/>
<text xml:space="preserve" text-anchor="start" x="646.5" y="-354.5" font-family="Helvetica,sans-Serif" font-size="10.00">LGE::AssetRegistry</text>
<text xml:space="preserve" text-anchor="middle" x="690.38" y="-342.5" font-family="Helvetica,sans-Serif" font-size="10.00">::FullScan</text>
</a>
</g>
</g>
<!-- Node1&#45;&gt;Node14 -->
<g id="edge13_Node000001_Node000014" class="edge">
<title>Node1&#45;&gt;Node14</title>
<g id="a_edge13_Node000001_Node000014"><a xlink:title=" ">
<path fill="none" stroke="#63b8ff" d="M837.42,-577.06C803.85,-525.33 729.43,-410.64 701.89,-368.2"/>
<polygon fill="#63b8ff" stroke="#63b8ff" points="834.36,-578.78 842.74,-585.26 840.23,-574.97 834.36,-578.78"/>
</a>
</g>
</g>
<!-- Node3 -->
<g id="Node000003" class="node">
<title>Node3</title>
<g id="a_Node000003"><a xlink:href="namespaceLGE_1_1FSOps.html#a7c3c8bb77f4634c4667e4896b11d66ad" target="_top" xlink:title=" ">
<polygon fill="white" stroke="#666666" points="588.25,-1028 466.5,-1028 466.5,-1008 588.25,-1008 588.25,-1028"/>
<text xml:space="preserve" text-anchor="middle" x="527.38" y="-1014.5" font-family="Helvetica,sans-Serif" font-size="10.00">LGE::FSOps::ImportFile</text>
</a>
</g>
</g>
<!-- Node2&#45;&gt;Node3 -->
<g id="edge2_Node000002_Node000003" class="edge">
<title>Node2&#45;&gt;Node3</title>
<g id="a_edge2_Node000002_Node000003"><a xlink:title=" ">
<path fill="none" stroke="#63b8ff" d="M678.08,-899.51C664.41,-928.38 638.64,-973.79 602.5,-999 597.6,-1002.42 592.13,-1005.22 586.44,-1007.52"/>
<polygon fill="#63b8ff" stroke="#63b8ff" points="681.13,-901.26 682.1,-890.71 674.76,-898.35 681.13,-901.26"/>
</a>
</g>
</g>
<!-- Node7 -->
<g id="Node000007" class="node">
<title>Node7</title>
<g id="a_Node000007"><a xlink:href="namespaceLGE_1_1Migration.html#aab471190f199928c6dc7f32f6e042b72" target="_top" xlink:title=" ">
<polygon fill="white" stroke="#666666" points="592.75,-990 462,-990 462,-958 592.75,-958 592.75,-990"/>
<text xml:space="preserve" text-anchor="start" x="470" y="-976.5" font-family="Helvetica,sans-Serif" font-size="10.00">LGE::Migration::MigrateAll</text>
<text xml:space="preserve" text-anchor="middle" x="527.38" y="-964.5" font-family="Helvetica,sans-Serif" font-size="10.00">Metadata</text>
</a>
</g>
</g>
<!-- Node2&#45;&gt;Node7 -->
<g id="edge6_Node000002_Node000007" class="edge">
<title>Node2&#45;&gt;Node7</title>
<g id="a_edge6_Node000002_Node000007"><a xlink:title=" ">
<path fill="none" stroke="#63b8ff" d="M666.58,-897.48C650.12,-913.96 626.61,-935.13 602.5,-949 596.97,-952.18 590.97,-955.04 584.86,-957.58"/>
<polygon fill="#63b8ff" stroke="#63b8ff" points="668.98,-900.04 673.46,-890.44 663.97,-895.15 668.98,-900.04"/>
</a>
</g>
</g>
<!-- Node8 -->
<g id="Node000008" class="node">
<title>Node8</title>
<g id="a_Node000008"><a xlink:href="namespaceLGE_1_1FSOps.html#a8d90a8bd4f3c45deff002d5c191bf872" target="_top" xlink:title=" ">
<polygon fill="white" stroke="#666666" points="578.5,-940 476.25,-940 476.25,-920 578.5,-920 578.5,-940"/>
<text xml:space="preserve" text-anchor="middle" x="527.38" y="-926.5" font-family="Helvetica,sans-Serif" font-size="10.00">LGE::FSOps::Move</text>
</a>
</g>
</g>
<!-- Node2&#45;&gt;Node8 -->
<g id="edge7_Node000002_Node000008" class="edge">
<title>Node2&#45;&gt;Node8</title>
<g id="a_edge7_Node000002_Node000008"><a xlink:title=" ">
<path fill="none" stroke="#63b8ff" d="M644.81,-894.14C631.39,-900.05 616.5,-906.18 602.5,-911 593.33,-914.16 583.36,-917.06 573.8,-919.59"/>
<polygon fill="#63b8ff" stroke="#63b8ff" points="646.15,-897.37 653.84,-890.08 643.28,-890.99 646.15,-897.37"/>
</a>
</g>
</g>
<!-- Node9 -->
<g id="Node000009" class="node">
<title>Node9</title>
<g id="a_Node000009"><a xlink:href="namespaceLGE_1_1FSOps.html#af18c06e20bfe14f2a2de43ea8bddefc1" target="_top" xlink:title=" ">
<polygon fill="white" stroke="#666666" points="589.38,-902 465.38,-902 465.38,-882 589.38,-882 589.38,-902"/>
<text xml:space="preserve" text-anchor="middle" x="527.38" y="-888.5" font-family="Helvetica,sans-Serif" font-size="10.00">LGE::FSOps::NewAsset</text>
</a>
</g>
</g>
<!-- Node2&#45;&gt;Node9 -->
<g id="edge8_Node000002_Node000009" class="edge">
<title>Node2&#45;&gt;Node9</title>
<g id="a_edge8_Node000002_Node000009"><a xlink:title=" ">
<path fill="none" stroke="#63b8ff" d="M627.31,-880.32C614.97,-881.78 602.02,-883.31 589.7,-884.76"/>
<polygon fill="#63b8ff" stroke="#63b8ff" points="627.41,-883.84 636.93,-879.19 626.59,-876.89 627.41,-883.84"/>
</a>
</g>
</g>
<!-- Node10 -->
<g id="Node000010" class="node">
<title>Node10</title>
<g id="a_Node000010"><a xlink:href="namespaceLGE_1_1FSOps.html#af7986867af7965c5a24f0751897ccb06" target="_top" xlink:title=" ">
<polygon fill="white" stroke="#666666" points="586.38,-864 468.38,-864 468.38,-844 586.38,-844 586.38,-864"/>
<text xml:space="preserve" text-anchor="middle" x="527.38" y="-850.5" font-family="Helvetica,sans-Serif" font-size="10.00">LGE::FSOps::Reimport</text>
</a>
</g>
</g>
<!-- Node2&#45;&gt;Node10 -->
<g id="edge9_Node000002_Node000010" class="edge">
<title>Node2&#45;&gt;Node10</title>
<g id="a_edge9_Node000002_Node000010"><a xlink:title=" ">
<path fill="none" stroke="#63b8ff" d="M627.03,-865.64C613.82,-864.08 599.91,-862.44 586.84,-860.9"/>
<polygon fill="#63b8ff" stroke="#63b8ff" points="626.59,-869.11 636.93,-866.81 627.41,-862.16 626.59,-869.11"/>
</a>
</g>
</g>
<!-- Node12 -->
<g id="Node000012" class="node">
<title>Node12</title>
<g id="a_Node000012"><a xlink:href="namespaceLGE_1_1FSOps.html#a73a5f7725534ee44eab8e17badf96f9f" target="_top" xlink:title=" ">
<polygon fill="white" stroke="#666666" points="584.88,-826 469.88,-826 469.88,-806 584.88,-806 584.88,-826"/>
<text xml:space="preserve" text-anchor="middle" x="527.38" y="-812.5" font-family="Helvetica,sans-Serif" font-size="10.00">LGE::FSOps::Rename</text>
</a>
</g>
</g>
<!-- Node2&#45;&gt;Node12 -->
<g id="edge11_Node000002_Node000012" class="edge">
<title>Node2&#45;&gt;Node12</title>
<g id="a_edge11_Node000002_Node000012"><a xlink:title=" ">
<path fill="none" stroke="#63b8ff" d="M644.81,-851.86C631.39,-845.95 616.5,-839.82 602.5,-835 593.33,-831.84 583.36,-828.94 573.8,-826.41"/>
<polygon fill="#63b8ff" stroke="#63b8ff" points="643.28,-855.01 653.84,-855.92 646.15,-848.63 643.28,-855.01"/>
</a>
</g>
</g>
<!-- Node13 -->
<g id="Node000013" class="node">
<title>Node13</title>
<g id="a_Node000013"><a xlink:href="namespaceLGE_1_1Recycle.html#a07682188a7ba9ac8cc063a99019fcadf" target="_top" xlink:title=" ">
<polygon fill="white" stroke="#666666" points="586.38,-788 468.38,-788 468.38,-768 586.38,-768 586.38,-788"/>
<text xml:space="preserve" text-anchor="middle" x="527.38" y="-774.5" font-family="Helvetica,sans-Serif" font-size="10.00">LGE::Recycle::Restore</text>
</a>
</g>
</g>
<!-- Node2&#45;&gt;Node13 -->
<g id="edge12_Node000002_Node000013" class="edge">
<title>Node2&#45;&gt;Node13</title>
<g id="a_edge12_Node000002_Node000013"><a xlink:title=" ">
<path fill="none" stroke="#63b8ff" d="M667.2,-848.26C650.86,-831.47 627.26,-810.04 602.5,-797 596.04,-793.59 588.93,-790.78 581.75,-788.45"/>
<polygon fill="#63b8ff" stroke="#63b8ff" points="664.59,-850.59 674,-855.44 669.67,-845.78 664.59,-850.59"/>
</a>
</g>
</g>
<!-- Node4 -->
<g id="Node000004" class="node">
<title>Node4</title>
<g id="a_Node000004"><a xlink:href="namespaceLGE_1_1ImportExport.html#af78ec4a5e430226c5054a220cedc76b1" target="_top" xlink:title=" ">
<polygon fill="white" stroke="#666666" points="399.75,-1034 296,-1034 296,-1002 399.75,-1002 399.75,-1034"/>
<text xml:space="preserve" text-anchor="start" x="304" y="-1020.5" font-family="Helvetica,sans-Serif" font-size="10.00">LGE::ImportExport::</text>
<text xml:space="preserve" text-anchor="middle" x="347.88" y="-1008.5" font-family="Helvetica,sans-Serif" font-size="10.00">ImportFile</text>
</a>
</g>
</g>
<!-- Node3&#45;&gt;Node4 -->
<g id="edge3_Node000003_Node000004" class="edge">
<title>Node3&#45;&gt;Node4</title>
<g id="a_edge3_Node000003_Node000004"><a xlink:title=" ">
<path fill="none" stroke="#63b8ff" d="M454.99,-1018C436.59,-1018 417.16,-1018 400.02,-1018"/>
<polygon fill="#63b8ff" stroke="#63b8ff" points="454.77,-1021.5 464.77,-1018 454.77,-1014.5 454.77,-1021.5"/>
</a>
</g>
</g>
<!-- Node5 -->
<g id="Node000005" class="node">
<title>Node5</title>
<g id="a_Node000005"><a xlink:href="namespaceLGE_1_1ImportExport.html#ae8496d7d19ac15289295442d11349580" target="_top" xlink:title=" ">
<polygon fill="white" stroke="#666666" points="243.5,-1034 139.75,-1034 139.75,-1002 243.5,-1002 243.5,-1034"/>
<text xml:space="preserve" text-anchor="start" x="147.75" y="-1020.5" font-family="Helvetica,sans-Serif" font-size="10.00">LGE::ImportExport::</text>
<text xml:space="preserve" text-anchor="middle" x="191.62" y="-1008.5" font-family="Helvetica,sans-Serif" font-size="10.00">ImportFiles</text>
</a>
</g>
</g>
<!-- Node4&#45;&gt;Node5 -->
<g id="edge4_Node000004_Node000005" class="edge">
<title>Node4&#45;&gt;Node5</title>
<g id="a_edge4_Node000004_Node000005"><a xlink:title=" ">
<path fill="none" stroke="#63b8ff" d="M284.36,-1018C270.87,-1018 256.76,-1018 243.76,-1018"/>
<polygon fill="#63b8ff" stroke="#63b8ff" points="284,-1021.5 294,-1018 284,-1014.5 284,-1021.5"/>
</a>
</g>
</g>
<!-- Node6 -->
<g id="Node000006" class="node">
<title>Node6</title>
<g id="a_Node000006"><a xlink:href="namespaceLGE_1_1ImportExport.html#a8220fcef46f5c3ab8c10c64fd5860668" target="_top" xlink:title=" ">
<polygon fill="white" stroke="#666666" points="103.75,-1034 0,-1034 0,-1002 103.75,-1002 103.75,-1034"/>
<text xml:space="preserve" text-anchor="start" x="8" y="-1020.5" font-family="Helvetica,sans-Serif" font-size="10.00">LGE::ImportExport::</text>
<text xml:space="preserve" text-anchor="middle" x="51.88" y="-1008.5" font-family="Helvetica,sans-Serif" font-size="10.00">ImportDirectory</text>
</a>
</g>
</g>
<!-- Node5&#45;&gt;Node6 -->
<g id="edge5_Node000005_Node000006" class="edge">
<title>Node5&#45;&gt;Node6</title>
<g id="a_edge5_Node000005_Node000006"><a xlink:title=" ">
<path fill="none" stroke="#63b8ff" d="M127.86,-1018C119.95,-1018 111.92,-1018 104.21,-1018"/>
<polygon fill="#63b8ff" stroke="#63b8ff" points="127.82,-1021.5 137.82,-1018 127.82,-1014.5 127.82,-1021.5"/>
</a>
</g>
</g>
<!-- Node11 -->
<g id="Node000011" class="node">
<title>Node11</title>
<g id="a_Node000011"><a xlink:href="namespaceLGE_1_1ImportExport.html#aa73ba2a6e02f5350668e8a28ecea64c2" target="_top" xlink:title=" ">
<polygon fill="white" stroke="#666666" points="399.75,-870 296,-870 296,-838 399.75,-838 399.75,-870"/>
<text xml:space="preserve" text-anchor="start" x="304" y="-856.5" font-family="Helvetica,sans-Serif" font-size="10.00">LGE::ImportExport::</text>
<text xml:space="preserve" text-anchor="middle" x="347.88" y="-844.5" font-family="Helvetica,sans-Serif" font-size="10.00">ReimportAsset</text>
</a>
</g>
</g>
<!-- Node10&#45;&gt;Node11 -->
<g id="edge10_Node000010_Node000011" class="edge">
<title>Node10&#45;&gt;Node11</title>
<g id="a_edge10_Node000010_Node000011"><a xlink:title=" ">
<path fill="none" stroke="#63b8ff" d="M456.99,-854C438.09,-854 417.95,-854 400.25,-854"/>
<polygon fill="#63b8ff" stroke="#63b8ff" points="456.74,-857.5 466.74,-854 456.74,-850.5 456.74,-857.5"/>
</a>
</g>
</g>
<!-- Node15 -->
<g id="Node000015" class="node">
<title>Node15</title>
<g id="a_Node000015"><a xlink:href="BenchmarkFS_8cpp.html#ab029f67ffb106edc6d219aadc7aee238" target="_top" xlink:title=" ">
<polygon fill="white" stroke="#666666" points="581.12,-750 473.62,-750 473.62,-718 581.12,-718 581.12,-750"/>
<text xml:space="preserve" text-anchor="start" x="481.62" y="-736.5" font-family="Helvetica,sans-Serif" font-size="10.00">Benchmark_Registry</text>
<text xml:space="preserve" text-anchor="middle" x="527.38" y="-724.5" font-family="Helvetica,sans-Serif" font-size="10.00">_Scan_Large</text>
</a>
</g>
</g>
<!-- Node14&#45;&gt;Node15 -->
<g id="edge14_Node000014_Node000015" class="edge">
<title>Node14&#45;&gt;Node15</title>
<g id="a_edge14_Node000014_Node000015"><a xlink:title=" ">
<path fill="none" stroke="#63b8ff" d="M686.14,-379.36C676.78,-454.2 647.42,-660.01 602.5,-709 596.72,-715.31 589.29,-720.02 581.38,-723.55"/>
<polygon fill="#63b8ff" stroke="#63b8ff" points="689.59,-379.98 687.33,-369.63 682.64,-379.13 689.59,-379.98"/>
</a>
</g>
</g>
<!-- Node16 -->
<g id="Node000016" class="node">
<title>Node16</title>
<g id="a_Node000016"><a xlink:href="BenchmarkFS_8cpp.html#ab9a728100bf27df8671c37d3a29bbea1" target="_top" xlink:title=" ">
<polygon fill="white" stroke="#666666" points="581.12,-700 473.62,-700 473.62,-668 581.12,-668 581.12,-700"/>
<text xml:space="preserve" text-anchor="start" x="481.62" y="-686.5" font-family="Helvetica,sans-Serif" font-size="10.00">Benchmark_Registry</text>
<text xml:space="preserve" text-anchor="middle" x="527.38" y="-674.5" font-family="Helvetica,sans-Serif" font-size="10.00">_Scan_Medium</text>
</a>
</g>
</g>
<!-- Node14&#45;&gt;Node16 -->
<g id="edge15_Node000014_Node000016" class="edge">
<title>Node14&#45;&gt;Node16</title>
<g id="a_edge15_Node000014_Node000016"><a xlink:title=" ">
<path fill="none" stroke="#63b8ff" d="M689.67,-379.55C688.77,-438.8 678.26,-579.4 602.5,-659 596.7,-665.1 589.35,-669.71 581.56,-673.2"/>
<polygon fill="#63b8ff" stroke="#63b8ff" points="693.17,-379.73 689.72,-369.71 686.17,-379.69 693.17,-379.73"/>
</a>
</g>
</g>
<!-- Node19 -->
<g id="Node000019" class="node">
<title>Node19</title>
<g id="a_Node000019"><a xlink:href="BenchmarkFS_8cpp.html#aa44cb85b0759f1cfddf700acff100f97" target="_top" xlink:title=" ">
<polygon fill="white" stroke="#666666" points="581.12,-650 473.62,-650 473.62,-618 581.12,-618 581.12,-650"/>
<text xml:space="preserve" text-anchor="start" x="481.62" y="-636.5" font-family="Helvetica,sans-Serif" font-size="10.00">Benchmark_Registry</text>
<text xml:space="preserve" text-anchor="middle" x="527.38" y="-624.5" font-family="Helvetica,sans-Serif" font-size="10.00">_Scan_Small</text>
</a>
</g>
</g>
<!-- Node14&#45;&gt;Node19 -->
<g id="edge18_Node000014_Node000019" class="edge">
<title>Node14&#45;&gt;Node19</title>
<g id="a_edge18_Node000014_Node000019"><a xlink:title=" ">
<path fill="none" stroke="#63b8ff" d="M687.83,-379.71C683.45,-431.82 666.65,-544.89 602.5,-609 596.54,-614.95 589.12,-619.49 581.3,-622.94"/>
<polygon fill="#63b8ff" stroke="#63b8ff" points="691.31,-380.15 688.55,-369.92 684.33,-379.64 691.31,-380.15"/>
</a>
</g>
</g>
<!-- Node20 -->
<g id="Node000020" class="node">
<title>Node20</title>
<g id="a_Node000020"><a xlink:href="BenchmarkFS_8cpp.html#a3442e7b685b914cc8075873db73300d8" target="_top" xlink:title=" ">
<polygon fill="white" stroke="#666666" points="581.12,-600 473.62,-600 473.62,-568 581.12,-568 581.12,-600"/>
<text xml:space="preserve" text-anchor="start" x="481.62" y="-586.5" font-family="Helvetica,sans-Serif" font-size="10.00">Benchmark_Registry</text>
<text xml:space="preserve" text-anchor="middle" x="527.38" y="-574.5" font-family="Helvetica,sans-Serif" font-size="10.00">_Search_Fuzzy</text>
</a>
</g>
</g>
<!-- Node14&#45;&gt;Node20 -->
<g id="edge20_Node000014_Node000020" class="edge">
<title>Node14&#45;&gt;Node20</title>
<g id="a_edge20_Node000014_Node000020"><a xlink:title=" ">
<path fill="none" stroke="#63b8ff" d="M685.23,-379.53C677.17,-423.56 655.32,-509.86 602.5,-559 596.43,-564.64 589.05,-569.02 581.32,-572.4"/>
<polygon fill="#63b8ff" stroke="#63b8ff" points="688.66,-380.24 686.89,-369.79 681.76,-379.06 688.66,-380.24"/>
</a>
</g>
</g>
<!-- Node21 -->
<g id="Node000021" class="node">
<title>Node21</title>
<g id="a_Node000021"><a xlink:href="BenchmarkFS_8cpp.html#a6e215b65128db1abca9661a02a708fe7" target="_top" xlink:title=" ">
<polygon fill="white" stroke="#666666" points="581.12,-550 473.62,-550 473.62,-518 581.12,-518 581.12,-550"/>
<text xml:space="preserve" text-anchor="start" x="481.62" y="-536.5" font-family="Helvetica,sans-Serif" font-size="10.00">Benchmark_Registry</text>
<text xml:space="preserve" text-anchor="middle" x="527.38" y="-524.5" font-family="Helvetica,sans-Serif" font-size="10.00">_Search_GUID</text>
</a>
</g>
</g>
<!-- Node14&#45;&gt;Node21 -->
<g id="edge22_Node000014_Node000021" class="edge">
<title>Node14&#45;&gt;Node21</title>
<g id="a_edge22_Node000014_Node000021"><a xlink:title=" ">
<path fill="none" stroke="#63b8ff" d="M681.22,-379.14C669.38,-414.02 644.19,-474.22 602.5,-509 596.35,-514.13 589.09,-518.23 581.57,-521.49"/>
<polygon fill="#63b8ff" stroke="#63b8ff" points="684.49,-380.38 684.25,-369.79 677.83,-378.22 684.49,-380.38"/>
</a>
</g>
</g>
<!-- Node22 -->
<g id="Node000022" class="node">
<title>Node22</title>
<g id="a_Node000022"><a xlink:href="BenchmarkFS_8cpp.html#a1d7ed07006c36462715eb9e933bb0bac" target="_top" xlink:title=" ">
<polygon fill="white" stroke="#666666" points="581.12,-500 473.62,-500 473.62,-468 581.12,-468 581.12,-500"/>
<text xml:space="preserve" text-anchor="start" x="481.62" y="-486.5" font-family="Helvetica,sans-Serif" font-size="10.00">Benchmark_Registry</text>
<text xml:space="preserve" text-anchor="middle" x="527.38" y="-474.5" font-family="Helvetica,sans-Serif" font-size="10.00">_Search_Path</text>
</a>
</g>
</g>
<!-- Node14&#45;&gt;Node22 -->
<g id="edge24_Node000014_Node000022" class="edge">
<title>Node14&#45;&gt;Node22</title>
<g id="a_edge24_Node000014_Node000022"><a xlink:title=" ">
<path fill="none" stroke="#63b8ff" d="M674.44,-377.78C659.2,-401.96 633.45,-437.5 602.5,-459 596.14,-463.42 588.94,-467.1 581.59,-470.17"/>
<polygon fill="#63b8ff" stroke="#63b8ff" points="677.28,-379.84 679.51,-369.49 671.31,-376.19 677.28,-379.84"/>
</a>
</g>
</g>
<!-- Node23 -->
<g id="Node000023" class="node">
<title>Node23</title>
<g id="a_Node000023"><a xlink:href="classExampleApp.html#a535c41a1b822be3f2c6fd96e3f80f4b7" target="_top" xlink:title=" ">
<polygon fill="white" stroke="#666666" points="602.5,-450 452.25,-450 452.25,-418 602.5,-418 602.5,-450"/>
<text xml:space="preserve" text-anchor="start" x="460.25" y="-436.5" font-family="Helvetica,sans-Serif" font-size="10.00">ExampleApp::CompleteProject</text>
<text xml:space="preserve" text-anchor="middle" x="527.38" y="-424.5" font-family="Helvetica,sans-Serif" font-size="10.00">Loading</text>
</a>
</g>
</g>
<!-- Node14&#45;&gt;Node23 -->
<g id="edge26_Node000014_Node000023" class="edge">
<title>Node14&#45;&gt;Node23</title>
<g id="a_edge26_Node000014_Node000023"><a xlink:title=" ">
<path fill="none" stroke="#63b8ff" d="M658.84,-374.81C642.68,-386.14 622.16,-399.43 602.5,-409 596.15,-412.09 589.32,-414.96 582.47,-417.56"/>
<polygon fill="#63b8ff" stroke="#63b8ff" points="660.47,-377.94 666.57,-369.28 656.4,-372.24 660.47,-377.94"/>
</a>
</g>
</g>
<!-- Node25 -->
<g id="Node000025" class="node">
<title>Node25</title>
<g id="a_Node000025"><a xlink:href="TestDependencies_8cpp.html#a27d08683b47752be5bf0771792fe84e1" target="_top" xlink:title=" ">
<polygon fill="white" stroke="#666666" points="548.12,-400 506.62,-400 506.62,-380 548.12,-380 548.12,-400"/>
<text xml:space="preserve" text-anchor="middle" x="527.38" y="-386.5" font-family="Helvetica,sans-Serif" font-size="10.00">TEST</text>
</a>
</g>
</g>
<!-- Node14&#45;&gt;Node25 -->
<g id="edge28_Node000014_Node000025" class="edge">
<title>Node14&#45;&gt;Node25</title>
<g id="a_edge28_Node000014_Node000025"><a xlink:title=" ">
<path fill="none" stroke="#63b8ff" d="M627.44,-366.62C599.33,-373.25 568.03,-380.64 548.28,-385.3"/>
<polygon fill="#63b8ff" stroke="#63b8ff" points="628.03,-370.07 636.96,-364.37 626.42,-363.26 628.03,-370.07"/>
</a>
</g>
</g>
<!-- Node26 -->
<g id="Node000026" class="node">
<title>Node26</title>
<g id="a_Node000026"><a xlink:href="TestDependencies_8cpp.html#a73f01e5c160074ed2ad795bd2b1ac7a2" target="_top" xlink:title=" ">
<polygon fill="white" stroke="#666666" points="548.12,-362 506.62,-362 506.62,-342 548.12,-342 548.12,-362"/>
<text xml:space="preserve" text-anchor="middle" x="527.38" y="-348.5" font-family="Helvetica,sans-Serif" font-size="10.00">TEST</text>
</a>
</g>
</g>
<!-- Node14&#45;&gt;Node26 -->
<g id="edge29_Node000014_Node000026" class="edge">
<title>Node14&#45;&gt;Node26</title>
<g id="a_edge29_Node000014_Node000026"><a xlink:title=" ">
<path fill="none" stroke="#63b8ff" d="M627.07,-352C599.06,-352 567.94,-352 548.28,-352"/>
<polygon fill="#63b8ff" stroke="#63b8ff" points="626.92,-355.5 636.92,-352 626.92,-348.5 626.92,-355.5"/>
</a>
</g>
</g>
<!-- Node27 -->
<g id="Node000027" class="node">
<title>Node27</title>
<g id="a_Node000027"><a xlink:href="TestDependencies_8cpp.html#ac7d0213aa008a4537d2b739ca96728af" target="_top" xlink:title=" ">
<polygon fill="white" stroke="#666666" points="548.12,-324 506.62,-324 506.62,-304 548.12,-304 548.12,-324"/>
<text xml:space="preserve" text-anchor="middle" x="527.38" y="-310.5" font-family="Helvetica,sans-Serif" font-size="10.00">TEST</text>
</a>
</g>
</g>
<!-- Node14&#45;&gt;Node27 -->
<g id="edge30_Node000014_Node000027" class="edge">
<title>Node14&#45;&gt;Node27</title>
<g id="a_edge30_Node000014_Node000027"><a xlink:title=" ">
<path fill="none" stroke="#63b8ff" d="M627.44,-337.38C599.33,-330.75 568.03,-323.36 548.28,-318.7"/>
<polygon fill="#63b8ff" stroke="#63b8ff" points="626.42,-340.74 636.96,-339.63 628.03,-333.93 626.42,-340.74"/>
</a>
</g>
</g>
<!-- Node28 -->
<g id="Node000028" class="node">
<title>Node28</title>
<g id="a_Node000028"><a xlink:href="TestDependencies_8cpp.html#a3eed8aa25f31b84b211af1815819d59e" target="_top" xlink:title=" ">
<polygon fill="white" stroke="#666666" points="548.12,-286 506.62,-286 506.62,-266 548.12,-266 548.12,-286"/>
<text xml:space="preserve" text-anchor="middle" x="527.38" y="-272.5" font-family="Helvetica,sans-Serif" font-size="10.00">TEST</text>
</a>
</g>
</g>
<!-- Node14&#45;&gt;Node28 -->
<g id="edge31_Node000014_Node000028" class="edge">
<title>Node14&#45;&gt;Node28</title>
<g id="a_edge31_Node000014_Node000028"><a xlink:title=" ">
<path fill="none" stroke="#63b8ff" d="M659.78,-329.05C643.61,-317.44 622.78,-303.95 602.5,-295 585,-287.27 563.73,-282.23 548.48,-279.29"/>
<polygon fill="#63b8ff" stroke="#63b8ff" points="657.38,-331.63 667.51,-334.73 661.52,-325.99 657.38,-331.63"/>
</a>
</g>
</g>
<!-- Node29 -->
<g id="Node000029" class="node">
<title>Node29</title>
<g id="a_Node000029"><a xlink:href="TestDependencies_8cpp.html#ad6e5e8e9ab7331c10f47c0adead790ec" target="_top" xlink:title=" ">
<polygon fill="white" stroke="#666666" points="548.12,-248 506.62,-248 506.62,-228 548.12,-228 548.12,-248"/>
<text xml:space="preserve" text-anchor="middle" x="527.38" y="-234.5" font-family="Helvetica,sans-Serif" font-size="10.00">TEST</text>
</a>
</g>
</g>
<!-- Node14&#45;&gt;Node29 -->
<g id="edge32_Node000014_Node000029" class="edge">
<title>Node14&#45;&gt;Node29</title>
<g id="a_edge32_Node000014_Node000029"><a xlink:title=" ">
<path fill="none" stroke="#63b8ff" d="M672.36,-326.25C656.71,-304.6 631.58,-274.45 602.5,-257 585.87,-247.02 564.1,-242.24 548.46,-239.98"/>
<polygon fill="#63b8ff" stroke="#63b8ff" points="669.39,-328.11 677.99,-334.29 675.12,-324.09 669.39,-328.11"/>
</a>
</g>
</g>
<!-- Node30 -->
<g id="Node000030" class="node">
<title>Node30</title>
<g id="a_Node000030"><a xlink:href="TestSearch_8cpp.html#aec262fa1aeb82f0a2ec9fca22e3d2374" target="_top" xlink:title=" ">
<polygon fill="white" stroke="#666666" points="548.12,-210 506.62,-210 506.62,-190 548.12,-190 548.12,-210"/>
<text xml:space="preserve" text-anchor="middle" x="527.38" y="-196.5" font-family="Helvetica,sans-Serif" font-size="10.00">TEST</text>
</a>
</g>
</g>
<!-- Node14&#45;&gt;Node30 -->
<g id="edge33_Node000014_Node000030" class="edge">
<title>Node14&#45;&gt;Node30</title>
<g id="a_edge33_Node000014_Node000030"><a xlink:title=" ">
<path fill="none" stroke="#63b8ff" d="M679.07,-325.4C665.91,-295.02 640.24,-246.03 602.5,-219 586.62,-207.63 564.54,-203.05 548.61,-201.22"/>
<polygon fill="#63b8ff" stroke="#63b8ff" points="675.69,-326.39 682.76,-334.28 682.15,-323.7 675.69,-326.39"/>
</a>
</g>
</g>
<!-- Node31 -->
<g id="Node000031" class="node">
<title>Node31</title>
<g id="a_Node000031"><a xlink:href="TestSearch_8cpp.html#a33500ac4fe5ec5aabbfb97635e04b1a5" target="_top" xlink:title=" ">
<polygon fill="white" stroke="#666666" points="548.12,-172 506.62,-172 506.62,-152 548.12,-152 548.12,-172"/>
<text xml:space="preserve" text-anchor="middle" x="527.38" y="-158.5" font-family="Helvetica,sans-Serif" font-size="10.00">TEST</text>
</a>
</g>
</g>
<!-- Node14&#45;&gt;Node31 -->
<g id="edge34_Node000014_Node000031" class="edge">
<title>Node14&#45;&gt;Node31</title>
<g id="a_edge34_Node000014_Node000031"><a xlink:title=" ">
<path fill="none" stroke="#63b8ff" d="M683.14,-325.01C672.94,-287.02 649,-218.28 602.5,-181 587.06,-168.62 564.48,-164.21 548.3,-162.69"/>
<polygon fill="#63b8ff" stroke="#63b8ff" points="679.64,-325.44 685.5,-334.27 686.43,-323.72 679.64,-325.44"/>
</a>
</g>
</g>
<!-- Node32 -->
<g id="Node000032" class="node">
<title>Node32</title>
<g id="a_Node000032"><a xlink:href="TestSearch_8cpp.html#ad770bade109d5488d8747315303c5509" target="_top" xlink:title=" ">
<polygon fill="white" stroke="#666666" points="548.12,-134 506.62,-134 506.62,-114 548.12,-114 548.12,-134"/>
<text xml:space="preserve" text-anchor="middle" x="527.38" y="-120.5" font-family="Helvetica,sans-Serif" font-size="10.00">TEST</text>
</a>
</g>
</g>
<!-- Node14&#45;&gt;Node32 -->
<g id="edge35_Node000014_Node000032" class="edge">
<title>Node14&#45;&gt;Node32</title>
<g id="a_edge35_Node000014_Node000032"><a xlink:title=" ">
<path fill="none" stroke="#63b8ff" d="M685.83,-324.37C678.56,-279.45 657.73,-190.84 602.5,-143 587.54,-130.04 564.88,-125.73 548.56,-124.39"/>
<polygon fill="#63b8ff" stroke="#63b8ff" points="682.33,-324.68 687.27,-334.05 689.26,-323.65 682.33,-324.68"/>
</a>
</g>
</g>
<!-- Node33 -->
<g id="Node000033" class="node">
<title>Node33</title>
<g id="a_Node000033"><a xlink:href="TestSearch_8cpp.html#a13cb3cdd7534423f0d92329cf16ceaf7" target="_top" xlink:title=" ">
<polygon fill="white" stroke="#666666" points="548.12,-96 506.62,-96 506.62,-76 548.12,-76 548.12,-96"/>
<text xml:space="preserve" text-anchor="middle" x="527.38" y="-82.5" font-family="Helvetica,sans-Serif" font-size="10.00">TEST</text>
</a>
</g>
</g>
<!-- Node14&#45;&gt;Node33 -->
<g id="edge36_Node000014_Node000033" class="edge">
<title>Node14&#45;&gt;Node33</title>
<g id="a_edge36_Node000014_Node000033"><a xlink:title=" ">
<path fill="none" stroke="#63b8ff" d="M687.85,-324.22C683.49,-273.07 666.75,-163.87 602.5,-105 587.81,-91.54 564.88,-87.33 548.42,-86.15"/>
<polygon fill="#63b8ff" stroke="#63b8ff" points="684.35,-324.4 688.58,-334.11 691.33,-323.88 684.35,-324.4"/>
</a>
</g>
</g>
<!-- Node34 -->
<g id="Node000034" class="node">
<title>Node34</title>
<g id="a_Node000034"><a xlink:href="TestSearch_8cpp.html#a726a0578ed58faaeb0201d967dbce4be" target="_top" xlink:title=" ">
<polygon fill="white" stroke="#666666" points="548.12,-58 506.62,-58 506.62,-38 548.12,-38 548.12,-58"/>
<text xml:space="preserve" text-anchor="middle" x="527.38" y="-44.5" font-family="Helvetica,sans-Serif" font-size="10.00">TEST</text>
</a>
</g>
</g>
<!-- Node14&#45;&gt;Node34 -->
<g id="edge37_Node000014_Node000034" class="edge">
<title>Node14&#45;&gt;Node34</title>
<g id="a_edge37_Node000014_Node000034"><a xlink:title=" ">
<path fill="none" stroke="#63b8ff" d="M689.39,-324.42C687.85,-267.67 676,-137.27 602.5,-67 588.1,-53.23 565.12,-49.07 548.57,-47.99"/>
<polygon fill="#63b8ff" stroke="#63b8ff" points="685.88,-324.22 689.55,-334.16 692.88,-324.1 685.88,-324.22"/>
</a>
</g>
</g>
<!-- Node35 -->
<g id="Node000035" class="node">
<title>Node35</title>
<g id="a_Node000035"><a xlink:href="TestSearch_8cpp.html#a7120a1bbfb46623c11b708a8ab750d82" target="_top" xlink:title=" ">
<polygon fill="white" stroke="#666666" points="548.12,-20 506.62,-20 506.62,0 548.12,0 548.12,-20"/>
<text xml:space="preserve" text-anchor="middle" x="527.38" y="-6.5" font-family="Helvetica,sans-Serif" font-size="10.00">TEST</text>
</a>
</g>
</g>
<!-- Node14&#45;&gt;Node35 -->
<g id="edge38_Node000014_Node000035" class="edge">
<title>Node14&#45;&gt;Node35</title>
<g id="a_edge38_Node000014_Node000035"><a xlink:title=" ">
<path fill="none" stroke="#63b8ff" d="M685.61,-324.74C675.39,-254.71 645.06,-71.06 602.5,-29 588.23,-14.9 565.01,-10.82 548.35,-9.85"/>
<polygon fill="#63b8ff" stroke="#63b8ff" points="682.08,-324.8 686.96,-334.2 689.01,-323.81 682.08,-324.8"/>
</a>
</g>
</g>
<!-- Node17 -->
<g id="Node000017" class="node">
<title>Node17</title>
<g id="a_Node000017"><a xlink:href="BenchmarkFS_8cpp.html#abd2bf074780e72b3c554bb5eb58ff96a" target="_top" xlink:title=" ">
<polygon fill="white" stroke="#666666" points="416.25,-594 279.5,-594 279.5,-574 416.25,-574 416.25,-594"/>
<text xml:space="preserve" text-anchor="middle" x="347.88" y="-580.5" font-family="Helvetica,sans-Serif" font-size="10.00">RunFilesystemBenchmarks</text>
</a>
</g>
</g>
<!-- Node16&#45;&gt;Node17 -->
<g id="edge16_Node000016_Node000017" class="edge">
<title>Node16&#45;&gt;Node17</title>
<g id="a_edge16_Node000016_Node000017"><a xlink:title=" ">
<path fill="none" stroke="#63b8ff" d="M462.9,-664.04C459.25,-662.45 455.67,-660.77 452.25,-659 416.19,-640.39 378.86,-610.06 360.5,-594.28"/>
<polygon fill="#63b8ff" stroke="#63b8ff" points="461.34,-667.19 471.92,-667.73 463.99,-660.71 461.34,-667.19"/>
</a>
</g>
</g>
<!-- Node18 -->
<g id="Node000018" class="node">
<title>Node18</title>
<g id="a_Node000018"><a xlink:href="BenchmarkRunner_8cpp.html#a0ddf1224851353fc92bfbff6f499fa97" target="_top" xlink:title=" ">
<polygon fill="white" stroke="#666666" points="210.12,-594 173.12,-594 173.12,-574 210.12,-574 210.12,-594"/>
<text xml:space="preserve" text-anchor="middle" x="191.62" y="-580.5" font-family="Helvetica,sans-Serif" font-size="10.00">main</text>
</a>
</g>
</g>
<!-- Node17&#45;&gt;Node18 -->
<g id="edge17_Node000017_Node000018" class="edge">
<title>Node17&#45;&gt;Node18</title>
<g id="a_edge17_Node000017_Node000018"><a xlink:title=" ">
<path fill="none" stroke="#63b8ff" d="M267.92,-584C246.27,-584 224.82,-584 210.38,-584"/>
<polygon fill="#63b8ff" stroke="#63b8ff" points="267.71,-587.5 277.71,-584 267.71,-580.5 267.71,-587.5"/>
</a>
</g>
</g>
<!-- Node19&#45;&gt;Node17 -->
<g id="edge19_Node000019_Node000017" class="edge">
<title>Node19&#45;&gt;Node17</title>
<g id="a_edge19_Node000019_Node000017"><a xlink:title=" ">
<path fill="none" stroke="#63b8ff" d="M462.78,-616.09C437.02,-608.83 408.18,-600.71 385.97,-594.45"/>
<polygon fill="#63b8ff" stroke="#63b8ff" points="461.57,-619.38 472.14,-618.72 463.47,-612.64 461.57,-619.38"/>
</a>
</g>
</g>
<!-- Node20&#45;&gt;Node17 -->
<g id="edge21_Node000020_Node000017" class="edge">
<title>Node20&#45;&gt;Node17</title>
<g id="a_edge21_Node000020_Node000017"><a xlink:title=" ">
<path fill="none" stroke="#63b8ff" d="M462.44,-584C447.55,-584 431.65,-584 416.6,-584"/>
<polygon fill="#63b8ff" stroke="#63b8ff" points="462.09,-587.5 472.09,-584 462.09,-580.5 462.09,-587.5"/>
</a>
</g>
</g>
<!-- Node21&#45;&gt;Node17 -->
<g id="edge23_Node000021_Node000017" class="edge">
<title>Node21&#45;&gt;Node17</title>
<g id="a_edge23_Node000021_Node000017"><a xlink:title=" ">
<path fill="none" stroke="#63b8ff" d="M462.78,-551.91C437.02,-559.17 408.18,-567.29 385.97,-573.55"/>
<polygon fill="#63b8ff" stroke="#63b8ff" points="463.47,-555.36 472.14,-549.28 461.57,-548.62 463.47,-555.36"/>
</a>
</g>
</g>
<!-- Node22&#45;&gt;Node17 -->
<g id="edge25_Node000022_Node000017" class="edge">
<title>Node22&#45;&gt;Node17</title>
<g id="a_edge25_Node000022_Node000017"><a xlink:title=" ">
<path fill="none" stroke="#63b8ff" d="M462.9,-503.96C459.25,-505.55 455.67,-507.23 452.25,-509 416.19,-527.61 378.86,-557.94 360.5,-573.72"/>
<polygon fill="#63b8ff" stroke="#63b8ff" points="463.99,-507.29 471.92,-500.27 461.34,-500.81 463.99,-507.29"/>
</a>
</g>
</g>
<!-- Node24 -->
<g id="Node000024" class="node">
<title>Node24</title>
<g id="a_Node000024"><a xlink:href="classExampleApp.html#a51a63c4107ac16f6c82cda225b2dccea" target="_top" xlink:title=" ">
<polygon fill="white" stroke="#666666" points="408.75,-444 287,-444 287,-424 408.75,-424 408.75,-444"/>
<text xml:space="preserve" text-anchor="middle" x="347.88" y="-430.5" font-family="Helvetica,sans-Serif" font-size="10.00">ExampleApp::OnRender</text>
</a>
</g>
</g>
<!-- Node23&#45;&gt;Node24 -->
<g id="edge27_Node000023_Node000024" class="edge">
<title>Node23&#45;&gt;Node24</title>
<g id="a_edge27_Node000023_Node000024"><a xlink:title=" ">
<path fill="none" stroke="#63b8ff" d="M440.45,-434C429.88,-434 419.26,-434 409.19,-434"/>
<polygon fill="#63b8ff" stroke="#63b8ff" points="440.36,-437.5 450.36,-434 440.36,-430.5 440.36,-437.5"/>
</a>
</g>
</g>
</g>
</svg>
