<?xml version="1.0" encoding="UTF-8" standalone="no"?>
<!DOCTYPE svg PUBLIC "-//W3C//DTD SVG 1.1//EN"
 "http://www.w3.org/Graphics/SVG/1.1/DTD/svg11.dtd">
<!-- Generated by graphviz version 14.0.2 (20251019.1705)
 -->
<!-- Title: LGE::Recycle::GetRecycleBinPath Pages: 1 -->
<svg width="300pt" height="66pt"
 viewBox="0.00 0.00 300.00 66.00" xmlns="http://www.w3.org/2000/svg" xmlns:xlink="http://www.w3.org/1999/xlink">
<g id="graph0" class="graph" transform="scale(1 1) rotate(0) translate(4 62)">
<title>LGE::Recycle::GetRecycleBinPath</title>
<!-- Node1 -->
<g id="Node000001" class="node">
<title>Node1</title>
<g id="a_Node000001"><a xlink:title=" ">
<polygon fill="#999999" stroke="#666666" points="135.25,-45 0,-45 0,-13 135.25,-13 135.25,-45"/>
<text xml:space="preserve" text-anchor="start" x="8" y="-31.5" font-family="Helvetica,sans-Serif" font-size="10.00">LGE::Recycle::GetRecycle</text>
<text xml:space="preserve" text-anchor="middle" x="67.62" y="-19.5" font-family="Helvetica,sans-Serif" font-size="10.00">BinPath</text>
</a>
</g>
</g>
<!-- Node2 -->
<g id="Node000002" class="node">
<title>Node2</title>
<g id="a_Node000002"><a xlink:href="namespaceLGE_1_1LxFS.html#a5684a30f3fa2906f4dafed0258a79166" target="_top" xlink:title=" ">
<polygon fill="white" stroke="#666666" points="291.5,-58 171.25,-58 171.25,-38 291.5,-38 291.5,-58"/>
<text xml:space="preserve" text-anchor="middle" x="231.38" y="-44.5" font-family="Helvetica,sans-Serif" font-size="10.00">LGE::LxFS::IsInitialized</text>
</a>
</g>
</g>
<!-- Node1&#45;&gt;Node2 -->
<g id="edge1_Node000001_Node000002" class="edge">
<title>Node1&#45;&gt;Node2</title>
<g id="a_edge1_Node000001_Node000002"><a xlink:title=" ">
<path fill="none" stroke="#63b8ff" d="M135.35,-36.84C143.33,-37.78 151.51,-38.74 159.55,-39.68"/>
<polygon fill="#63b8ff" stroke="#63b8ff" points="158.95,-43.13 169.29,-40.82 159.77,-36.18 158.95,-43.13"/>
</a>
</g>
</g>
<!-- Node3 -->
<g id="Node000003" class="node">
<title>Node3</title>
<g id="a_Node000003"><a xlink:href="namespaceLGE_1_1LxFS.html#a12aeb6699602f14153953dceb4284914" target="_top" xlink:title=" ">
<polygon fill="white" stroke="#666666" points="279.5,-20 183.25,-20 183.25,0 279.5,0 279.5,-20"/>
<text xml:space="preserve" text-anchor="middle" x="231.38" y="-6.5" font-family="Helvetica,sans-Serif" font-size="10.00">LGE::LxFS::Paths</text>
</a>
</g>
</g>
<!-- Node1&#45;&gt;Node3 -->
<g id="edge2_Node000001_Node000003" class="edge">
<title>Node1&#45;&gt;Node3</title>
<g id="a_edge2_Node000001_Node000003"><a xlink:title=" ">
<path fill="none" stroke="#63b8ff" d="M135.35,-21.16C147.48,-19.74 160.06,-18.26 171.93,-16.87"/>
<polygon fill="#63b8ff" stroke="#63b8ff" points="172.03,-20.38 181.56,-15.73 171.22,-13.43 172.03,-20.38"/>
</a>
</g>
</g>
</g>
</svg>
