<?xml version="1.0" encoding="UTF-8" standalone="no"?>
<!DOCTYPE svg PUBLIC "-//W3C//DTD SVG 1.1//EN"
 "http://www.w3.org/Graphics/SVG/1.1/DTD/svg11.dtd">
<!-- Generated by graphviz version 14.0.2 (20251019.1705)
 -->
<!-- Title: LGE::PackageMgr::Uninstall Pages: 1 -->
<svg width="986pt" height="436pt"
 viewBox="0.00 0.00 986.00 436.00" xmlns="http://www.w3.org/2000/svg" xmlns:xlink="http://www.w3.org/1999/xlink">
<g id="graph0" class="graph" transform="scale(1 1) rotate(0) translate(4 432)">
<title>LGE::PackageMgr::Uninstall</title>
<!-- Node1 -->
<g id="Node000001" class="node">
<title>Node1</title>
<g id="a_Node000001"><a xlink:title=" ">
<polygon fill="#999999" stroke="#666666" points="140.5,-248 0,-248 0,-228 140.5,-228 140.5,-248"/>
<text xml:space="preserve" text-anchor="middle" x="70.25" y="-234.5" font-family="Helvetica,sans-Serif" font-size="10.00">LGE::PackageMgr::Uninstall</text>
</a>
</g>
</g>
<!-- Node2 -->
<g id="Node000002" class="node">
<title>Node2</title>
<g id="a_Node000002"><a xlink:href="classLGE_1_1Log.html#a53f3f4b8797ffd18145739c9e66d690a" target="_top" xlink:title=" ">
<polygon fill="white" stroke="#666666" points="978,-305 893.75,-305 893.75,-285 978,-285 978,-305"/>
<text xml:space="preserve" text-anchor="middle" x="935.88" y="-291.5" font-family="Helvetica,sans-Serif" font-size="10.00">LGE::Log::Error</text>
</a>
</g>
</g>
<!-- Node1&#45;&gt;Node2 -->
<g id="edge1_Node000001_Node000002" class="edge">
<title>Node1&#45;&gt;Node2</title>
<g id="a_edge1_Node000001_Node000002"><a xlink:title=" ">
<path fill="none" stroke="#63b8ff" d="M78.09,-248.3C93.18,-270.21 131.58,-321.67 176.5,-349 284.59,-414.76 323.48,-428 450,-428 450,-428 450,-428 638.25,-428 749.95,-428 866.24,-348.5 913.25,-312.43"/>
<polygon fill="#63b8ff" stroke="#63b8ff" points="915.28,-315.28 921.01,-306.37 910.97,-309.77 915.28,-315.28"/>
</a>
</g>
</g>
<!-- Node3 -->
<g id="Node000003" class="node">
<title>Node3</title>
<g id="a_Node000003"><a xlink:href="namespaceLGE_1_1PackageMgr.html#af9777ef900622c9d1604a6c8dc27559c" target="_top" xlink:title=" ">
<polygon fill="white" stroke="#666666" points="539.25,-259 362.75,-259 362.75,-239 539.25,-239 539.25,-259"/>
<text xml:space="preserve" text-anchor="middle" x="451" y="-245.5" font-family="Helvetica,sans-Serif" font-size="10.00">LGE::PackageMgr::GetPackagePath</text>
</a>
</g>
</g>
<!-- Node1&#45;&gt;Node3 -->
<g id="edge2_Node000001_Node000003" class="edge">
<title>Node1&#45;&gt;Node3</title>
<g id="a_edge2_Node000001_Node000003"><a xlink:title=" ">
<path fill="none" stroke="#63b8ff" d="M140.72,-240.02C199.67,-241.73 284.95,-244.21 351.04,-246.13"/>
<polygon fill="#63b8ff" stroke="#63b8ff" points="350.69,-249.62 360.79,-246.41 350.9,-242.62 350.69,-249.62"/>
</a>
</g>
</g>
<!-- Node6 -->
<g id="Node000006" class="node">
<title>Node6</title>
<g id="a_Node000006"><a xlink:href="classLGE_1_1Log.html#ab0265ee050b8873a2fd31fbdb696ced0" target="_top" xlink:title=" ">
<polygon fill="white" stroke="#666666" points="836.38,-96 756.62,-96 756.62,-76 836.38,-76 836.38,-96"/>
<text xml:space="preserve" text-anchor="middle" x="796.5" y="-82.5" font-family="Helvetica,sans-Serif" font-size="10.00">LGE::Log::Info</text>
</a>
</g>
</g>
<!-- Node1&#45;&gt;Node6 -->
<g id="edge6_Node000001_Node000006" class="edge">
<title>Node1&#45;&gt;Node6</title>
<g id="a_edge6_Node000001_Node000006"><a xlink:title=" ">
<path fill="none" stroke="#63b8ff" d="M94.99,-227.53C166.06,-196.88 383.97,-107.81 575.25,-81 632.97,-72.91 700.01,-76.22 744.83,-80.23"/>
<polygon fill="#63b8ff" stroke="#63b8ff" points="744.5,-83.71 754.78,-81.17 745.16,-76.75 744.5,-83.71"/>
</a>
</g>
</g>
<!-- Node7 -->
<g id="Node000007" class="node">
<title>Node7</title>
<g id="a_Node000007"><a xlink:href="namespaceLGE_1_1VFS.html#a5cea8543475162be752c71971f1f4e85" target="_top" xlink:title=" ">
<polygon fill="white" stroke="#666666" points="518.25,-194 383.75,-194 383.75,-162 518.25,-162 518.25,-194"/>
<text xml:space="preserve" text-anchor="start" x="391.75" y="-180.5" font-family="Helvetica,sans-Serif" font-size="10.00">LGE::VFS::InitializeDefault</text>
<text xml:space="preserve" text-anchor="middle" x="451" y="-168.5" font-family="Helvetica,sans-Serif" font-size="10.00">Mounts</text>
</a>
</g>
</g>
<!-- Node1&#45;&gt;Node7 -->
<g id="edge7_Node000001_Node000007" class="edge">
<title>Node1&#45;&gt;Node7</title>
<g id="a_edge7_Node000001_Node000007"><a xlink:title=" ">
<path fill="none" stroke="#63b8ff" d="M137.22,-227.55C202.67,-217.18 302.95,-201.29 372.24,-190.32"/>
<polygon fill="#63b8ff" stroke="#63b8ff" points="372.69,-193.79 382.02,-188.77 371.59,-186.88 372.69,-193.79"/>
</a>
</g>
</g>
<!-- Node11 -->
<g id="Node000011" class="node">
<title>Node11</title>
<g id="a_Node000011"><a xlink:href="namespaceLGE_1_1PackageMgr.html#a4477becfa2c6a4400116b840de1382c4" target="_top" xlink:title=" ">
<polygon fill="white" stroke="#666666" points="325.25,-286 178,-286 178,-266 325.25,-266 325.25,-286"/>
<text xml:space="preserve" text-anchor="middle" x="251.62" y="-272.5" font-family="Helvetica,sans-Serif" font-size="10.00">LGE::PackageMgr::IsInstalled</text>
</a>
</g>
</g>
<!-- Node1&#45;&gt;Node11 -->
<g id="edge16_Node000001_Node000011" class="edge">
<title>Node1&#45;&gt;Node11</title>
<g id="a_edge16_Node000001_Node000011"><a xlink:title=" ">
<path fill="none" stroke="#63b8ff" d="M120.74,-248.48C142.21,-253.03 167.55,-258.4 190.12,-263.18"/>
<polygon fill="#63b8ff" stroke="#63b8ff" points="189.31,-266.59 199.82,-265.24 190.76,-259.74 189.31,-266.59"/>
</a>
</g>
</g>
<!-- Node13 -->
<g id="Node000013" class="node">
<title>Node13</title>
<g id="a_Node000013"><a xlink:href="namespaceLGE_1_1LxFile.html#a9c5f9c037c80b4bdd885c4e690be3e14" target="_top" xlink:title=" ">
<polygon fill="white" stroke="#666666" points="326.75,-340 176.5,-340 176.5,-320 326.75,-320 326.75,-340"/>
<text xml:space="preserve" text-anchor="middle" x="251.62" y="-326.5" font-family="Helvetica,sans-Serif" font-size="10.00">LGE::LxFile::RemoveDirectory</text>
</a>
</g>
</g>
<!-- Node1&#45;&gt;Node13 -->
<g id="edge19_Node000001_Node000013" class="edge">
<title>Node1&#45;&gt;Node13</title>
<g id="a_edge19_Node000001_Node000013"><a xlink:title=" ">
<path fill="none" stroke="#63b8ff" d="M89.72,-248.4C110.61,-260.08 145.73,-279.42 176.5,-295 189.79,-301.73 204.61,-308.81 217.48,-314.83"/>
<polygon fill="#63b8ff" stroke="#63b8ff" points="215.84,-317.92 226.39,-318.96 218.79,-311.58 215.84,-317.92"/>
</a>
</g>
</g>
<!-- Node16 -->
<g id="Node000016" class="node">
<title>Node16</title>
<g id="a_Node000016"><a xlink:href="classLGE_1_1Log.html#aa6f98018af29c23dd7f574d3df5dda5e" target="_top" xlink:title=" ">
<polygon fill="white" stroke="#666666" points="294.5,-20 208.75,-20 208.75,0 294.5,0 294.5,-20"/>
<text xml:space="preserve" text-anchor="middle" x="251.62" y="-6.5" font-family="Helvetica,sans-Serif" font-size="10.00">LGE::Log::Warn</text>
</a>
</g>
</g>
<!-- Node1&#45;&gt;Node16 -->
<g id="edge25_Node000001_Node000016" class="edge">
<title>Node1&#45;&gt;Node16</title>
<g id="a_edge25_Node000001_Node000016"><a xlink:title=" ">
<path fill="none" stroke="#63b8ff" d="M73.57,-227.79C81.62,-194.66 111.48,-89.19 176.5,-34 182.74,-28.7 190.17,-24.57 197.88,-21.35"/>
<polygon fill="#63b8ff" stroke="#63b8ff" points="198.86,-24.72 207.06,-18.01 196.46,-18.14 198.86,-24.72"/>
</a>
</g>
</g>
<!-- Node4 -->
<g id="Node000004" class="node">
<title>Node4</title>
<g id="a_Node000004"><a xlink:href="namespaceLGE_1_1LxPath.html#a94ec3bdfd6948ddc25cda5d18154d4cf" target="_top" xlink:title=" ">
<polygon fill="white" stroke="#666666" points="685.38,-286 589.12,-286 589.12,-266 685.38,-266 685.38,-286"/>
<text xml:space="preserve" text-anchor="middle" x="637.25" y="-272.5" font-family="Helvetica,sans-Serif" font-size="10.00">LGE::LxPath::Join</text>
</a>
</g>
</g>
<!-- Node3&#45;&gt;Node4 -->
<g id="edge3_Node000003_Node000004" class="edge">
<title>Node3&#45;&gt;Node4</title>
<g id="a_edge3_Node000003_Node000004"><a xlink:title=" ">
<path fill="none" stroke="#63b8ff" d="M523.5,-259.48C541.42,-262.1 560.44,-264.89 577.66,-267.41"/>
<polygon fill="#63b8ff" stroke="#63b8ff" points="576.78,-270.82 587.18,-268.81 577.79,-263.9 576.78,-270.82"/>
</a>
</g>
</g>
<!-- Node5 -->
<g id="Node000005" class="node">
<title>Node5</title>
<g id="a_Node000005"><a xlink:href="namespaceLGE_1_1LxPath.html#a314a60ce690c90f4ee0b4e64c0199408" target="_top" xlink:title=" ">
<polygon fill="white" stroke="#666666" points="857.75,-305 735.25,-305 735.25,-285 857.75,-285 857.75,-305"/>
<text xml:space="preserve" text-anchor="middle" x="796.5" y="-291.5" font-family="Helvetica,sans-Serif" font-size="10.00">LGE::LxPath::Normalize</text>
</a>
</g>
</g>
<!-- Node4&#45;&gt;Node5 -->
<g id="edge4_Node000004_Node000005" class="edge">
<title>Node4&#45;&gt;Node5</title>
<g id="a_edge4_Node000004_Node000005"><a xlink:title=" ">
<path fill="none" stroke="#63b8ff" d="M685.86,-281.75C697.81,-283.2 710.91,-284.78 723.76,-286.33"/>
<polygon fill="#63b8ff" stroke="#63b8ff" points="723.1,-289.78 733.45,-287.5 723.94,-282.83 723.1,-289.78"/>
</a>
</g>
</g>
<!-- Node5&#45;&gt;Node2 -->
<g id="edge5_Node000005_Node000002" class="edge">
<title>Node5&#45;&gt;Node2</title>
<g id="a_edge5_Node000005_Node000002"><a xlink:title=" ">
<path fill="none" stroke="#63b8ff" d="M858.15,-295C866.17,-295 874.34,-295 882.2,-295"/>
<polygon fill="#63b8ff" stroke="#63b8ff" points="881.95,-298.5 891.95,-295 881.95,-291.5 881.95,-298.5"/>
</a>
</g>
</g>
<!-- Node7&#45;&gt;Node2 -->
<g id="edge8_Node000007_Node000002" class="edge">
<title>Node7&#45;&gt;Node2</title>
<g id="a_edge8_Node000007_Node000002"><a xlink:title=" ">
<path fill="none" stroke="#63b8ff" d="M496.97,-194.43C520.14,-202.52 548.99,-212.01 575.25,-219 699.03,-251.94 732.76,-248.01 857.75,-276 865.8,-277.8 874.3,-279.8 882.59,-281.8"/>
<polygon fill="#63b8ff" stroke="#63b8ff" points="881.71,-285.19 892.25,-284.16 883.37,-278.39 881.71,-285.19"/>
</a>
</g>
</g>
<!-- Node7&#45;&gt;Node6 -->
<g id="edge9_Node000007_Node000006" class="edge">
<title>Node7&#45;&gt;Node6</title>
<g id="a_edge9_Node000007_Node000006"><a xlink:title=" ">
<path fill="none" stroke="#63b8ff" d="M472.84,-161.64C496.27,-144.24 536.18,-117.53 575.25,-105 631.39,-86.99 699.47,-83.75 744.94,-84.05"/>
<polygon fill="#63b8ff" stroke="#63b8ff" points="744.72,-87.54 754.76,-84.17 744.81,-80.54 744.72,-87.54"/>
</a>
</g>
</g>
<!-- Node8 -->
<g id="Node000008" class="node">
<title>Node8</title>
<g id="a_Node000008"><a xlink:href="namespaceLGE_1_1LxFS.html#a5684a30f3fa2906f4dafed0258a79166" target="_top" xlink:title=" ">
<polygon fill="white" stroke="#666666" points="697.38,-134 577.12,-134 577.12,-114 697.38,-114 697.38,-134"/>
<text xml:space="preserve" text-anchor="middle" x="637.25" y="-120.5" font-family="Helvetica,sans-Serif" font-size="10.00">LGE::LxFS::IsInitialized</text>
</a>
</g>
</g>
<!-- Node7&#45;&gt;Node8 -->
<g id="edge10_Node000007_Node000008" class="edge">
<title>Node7&#45;&gt;Node8</title>
<g id="a_edge10_Node000007_Node000008"><a xlink:title=" ">
<path fill="none" stroke="#63b8ff" d="M508.28,-161.5C534.35,-153.87 564.94,-144.9 589.68,-137.65"/>
<polygon fill="#63b8ff" stroke="#63b8ff" points="590.54,-141.04 599.15,-134.87 588.57,-134.33 590.54,-141.04"/>
</a>
</g>
</g>
<!-- Node9 -->
<g id="Node000009" class="node">
<title>Node9</title>
<g id="a_Node000009"><a xlink:href="namespaceLGE_1_1VFS.html#a54b012d377481aa3685b372a196259ed" target="_top" xlink:title=" ">
<polygon fill="white" stroke="#666666" points="694.38,-210 580.12,-210 580.12,-190 694.38,-190 694.38,-210"/>
<text xml:space="preserve" text-anchor="middle" x="637.25" y="-196.5" font-family="Helvetica,sans-Serif" font-size="10.00">LGE::VFS::MountPath</text>
</a>
</g>
</g>
<!-- Node7&#45;&gt;Node9 -->
<g id="edge11_Node000007_Node000009" class="edge">
<title>Node7&#45;&gt;Node9</title>
<g id="a_edge11_Node000007_Node000009"><a xlink:title=" ">
<path fill="none" stroke="#63b8ff" d="M518.52,-185.94C534.85,-187.89 552.35,-189.98 568.73,-191.94"/>
<polygon fill="#63b8ff" stroke="#63b8ff" points="568.01,-195.38 578.36,-193.09 568.84,-188.43 568.01,-195.38"/>
</a>
</g>
</g>
<!-- Node10 -->
<g id="Node000010" class="node">
<title>Node10</title>
<g id="a_Node000010"><a xlink:href="namespaceLGE_1_1LxFS.html#a12aeb6699602f14153953dceb4284914" target="_top" xlink:title=" ">
<polygon fill="white" stroke="#666666" points="685.38,-172 589.12,-172 589.12,-152 685.38,-152 685.38,-172"/>
<text xml:space="preserve" text-anchor="middle" x="637.25" y="-158.5" font-family="Helvetica,sans-Serif" font-size="10.00">LGE::LxFS::Paths</text>
</a>
</g>
</g>
<!-- Node7&#45;&gt;Node10 -->
<g id="edge15_Node000007_Node000010" class="edge">
<title>Node7&#45;&gt;Node10</title>
<g id="a_edge15_Node000007_Node000010"><a xlink:title=" ">
<path fill="none" stroke="#63b8ff" d="M518.52,-172.22C537.81,-170.55 558.73,-168.73 577.51,-167.1"/>
<polygon fill="#63b8ff" stroke="#63b8ff" points="577.72,-170.6 587.38,-166.24 577.12,-163.62 577.72,-170.6"/>
</a>
</g>
</g>
<!-- Node9&#45;&gt;Node2 -->
<g id="edge12_Node000009_Node000002" class="edge">
<title>Node9&#45;&gt;Node2</title>
<g id="a_edge12_Node000009_Node000002"><a xlink:title=" ">
<path fill="none" stroke="#63b8ff" d="M694.44,-196.68C740.36,-196.15 805.92,-200.45 857.75,-224 883.47,-235.69 906.36,-259.31 920.39,-276.1"/>
<polygon fill="#63b8ff" stroke="#63b8ff" points="917.29,-277.83 926.29,-283.42 922.74,-273.44 917.29,-277.83"/>
</a>
</g>
</g>
<!-- Node9&#45;&gt;Node5 -->
<g id="edge14_Node000009_Node000005" class="edge">
<title>Node9&#45;&gt;Node5</title>
<g id="a_edge14_Node000009_Node000005"><a xlink:title=" ">
<path fill="none" stroke="#63b8ff" d="M655.38,-210.35C682.67,-226.84 736.25,-259.21 768.67,-278.79"/>
<polygon fill="#63b8ff" stroke="#63b8ff" points="766.73,-281.71 777.1,-283.88 770.35,-275.72 766.73,-281.71"/>
</a>
</g>
</g>
<!-- Node9&#45;&gt;Node6 -->
<g id="edge13_Node000009_Node000006" class="edge">
<title>Node9&#45;&gt;Node6</title>
<g id="a_edge13_Node000009_Node000006"><a xlink:title=" ">
<path fill="none" stroke="#63b8ff" d="M681.05,-189.54C687.37,-187.19 693.64,-184.37 699.25,-181 732.77,-160.89 763.4,-126.75 780.72,-105.34"/>
<polygon fill="#63b8ff" stroke="#63b8ff" points="783.32,-107.7 786.77,-97.68 777.83,-103.36 783.32,-107.7"/>
</a>
</g>
</g>
<!-- Node11&#45;&gt;Node3 -->
<g id="edge18_Node000011_Node000003" class="edge">
<title>Node11&#45;&gt;Node3</title>
<g id="a_edge18_Node000011_Node000003"><a xlink:title=" ">
<path fill="none" stroke="#63b8ff" d="M325.56,-266.02C337.5,-264.39 349.98,-262.68 362.23,-261.01"/>
<polygon fill="#63b8ff" stroke="#63b8ff" points="362.46,-264.51 371.9,-259.68 361.51,-257.57 362.46,-264.51"/>
</a>
</g>
</g>
<!-- Node12 -->
<g id="Node000012" class="node">
<title>Node12</title>
<g id="a_Node000012"><a xlink:href="namespaceLGE_1_1LxFile.html#a11e62876b312a11b881b484bb3a5ee71" target="_top" xlink:title=" ">
<polygon fill="white" stroke="#666666" points="501.75,-297 400.25,-297 400.25,-277 501.75,-277 501.75,-297"/>
<text xml:space="preserve" text-anchor="middle" x="451" y="-283.5" font-family="Helvetica,sans-Serif" font-size="10.00">LGE::LxFile::Exists</text>
</a>
</g>
</g>
<!-- Node11&#45;&gt;Node12 -->
<g id="edge17_Node000011_Node000012" class="edge">
<title>Node11&#45;&gt;Node12</title>
<g id="a_edge17_Node000011_Node000012"><a xlink:title=" ">
<path fill="none" stroke="#63b8ff" d="M325.56,-280.06C346.21,-281.22 368.49,-282.46 388.4,-283.57"/>
<polygon fill="#63b8ff" stroke="#63b8ff" points="388.13,-287.06 398.31,-284.12 388.52,-280.07 388.13,-287.06"/>
</a>
</g>
</g>
<!-- Node13&#45;&gt;Node2 -->
<g id="edge20_Node000013_Node000002" class="edge">
<title>Node13&#45;&gt;Node2</title>
<g id="a_edge20_Node000013_Node000002"><a xlink:title=" ">
<path fill="none" stroke="#63b8ff" d="M303.11,-340.47C321.77,-343.87 343.14,-347.23 362.75,-349 511.7,-362.46 550.67,-368.11 699.25,-351 771.11,-342.72 787.41,-330.87 857.75,-314 865.68,-312.1 874.06,-310.06 882.26,-308.05"/>
<polygon fill="#63b8ff" stroke="#63b8ff" points="882.92,-311.49 891.8,-305.71 881.25,-304.7 882.92,-311.49"/>
</a>
</g>
</g>
<!-- Node14 -->
<g id="Node000014" class="node">
<title>Node14</title>
<g id="a_Node000014"><a xlink:href="namespaceLGE_1_1VFS.html#abb5d35abfe80efe2f7a07394ad5b706a" target="_top" xlink:title=" ">
<polygon fill="white" stroke="#666666" points="510.38,-340 391.62,-340 391.62,-320 510.38,-320 510.38,-340"/>
<text xml:space="preserve" text-anchor="middle" x="451" y="-326.5" font-family="Helvetica,sans-Serif" font-size="10.00">LGE::VFS::IsReadOnly</text>
</a>
</g>
</g>
<!-- Node13&#45;&gt;Node14 -->
<g id="edge21_Node000013_Node000014" class="edge">
<title>Node13&#45;&gt;Node14</title>
<g id="a_edge21_Node000013_Node000014"><a xlink:title=" ">
<path fill="none" stroke="#63b8ff" d="M327.24,-330C344.62,-330 363.05,-330 380.2,-330"/>
<polygon fill="#63b8ff" stroke="#63b8ff" points="379.76,-333.5 389.76,-330 379.76,-326.5 379.76,-333.5"/>
</a>
</g>
</g>
<!-- Node14&#45;&gt;Node5 -->
<g id="edge24_Node000014_Node000005" class="edge">
<title>Node14&#45;&gt;Node5</title>
<g id="a_edge24_Node000014_Node000005"><a xlink:title=" ">
<path fill="none" stroke="#63b8ff" d="M510.78,-337.24C561.24,-341.91 635.68,-345.1 699.25,-333 722.26,-328.62 746.81,-318.84 765.35,-310.3"/>
<polygon fill="#63b8ff" stroke="#63b8ff" points="766.62,-313.57 774.15,-306.12 763.62,-307.25 766.62,-313.57"/>
</a>
</g>
</g>
<!-- Node15 -->
<g id="Node000015" class="node">
<title>Node15</title>
<g id="a_Node000015"><a xlink:href="namespaceLGE_1_1LxPath.html#ab664986e94ce09aa029f9eb2fcf50133" target="_top" xlink:title=" ">
<polygon fill="white" stroke="#666666" points="699.25,-324 575.25,-324 575.25,-304 699.25,-304 699.25,-324"/>
<text xml:space="preserve" text-anchor="middle" x="637.25" y="-310.5" font-family="Helvetica,sans-Serif" font-size="10.00">LGE::LxPath::IsSubPath</text>
</a>
</g>
</g>
<!-- Node14&#45;&gt;Node15 -->
<g id="edge22_Node000014_Node000015" class="edge">
<title>Node14&#45;&gt;Node15</title>
<g id="a_edge22_Node000014_Node000015"><a xlink:title=" ">
<path fill="none" stroke="#63b8ff" d="M510.8,-324.89C527.56,-323.44 546.03,-321.83 563.51,-320.32"/>
<polygon fill="#63b8ff" stroke="#63b8ff" points="563.66,-323.82 573.32,-319.46 563.06,-316.84 563.66,-323.82"/>
</a>
</g>
</g>
<!-- Node15&#45;&gt;Node5 -->
<g id="edge23_Node000015_Node000005" class="edge">
<title>Node15&#45;&gt;Node5</title>
<g id="a_edge23_Node000015_Node000005"><a xlink:title=" ">
<path fill="none" stroke="#63b8ff" d="M699.5,-306.6C707.41,-305.64 715.57,-304.66 723.63,-303.68"/>
<polygon fill="#63b8ff" stroke="#63b8ff" points="723.93,-307.17 733.43,-302.5 723.09,-300.22 723.93,-307.17"/>
</a>
</g>
</g>
</g>
</svg>
