<?xml version="1.0" encoding="UTF-8" standalone="no"?>
<!DOCTYPE svg PUBLIC "-//W3C//DTD SVG 1.1//EN"
 "http://www.w3.org/Graphics/SVG/1.1/DTD/svg11.dtd">
<!-- Generated by graphviz version 14.0.2 (20251019.1705)
 -->
<!-- Title: LGE::Optimization::GetRecommendations Pages: 1 -->
<svg width="282pt" height="128pt"
 viewBox="0.00 0.00 282.00 128.00" xmlns="http://www.w3.org/2000/svg" xmlns:xlink="http://www.w3.org/1999/xlink">
<g id="graph0" class="graph" transform="scale(1 1) rotate(0) translate(4 124)">
<title>LGE::Optimization::GetRecommendations</title>
<!-- Node1 -->
<g id="Node000001" class="node">
<title>Node1</title>
<g id="a_Node000001"><a xlink:title=" ">
<polygon fill="#999999" stroke="#666666" points="113.5,-70 0,-70 0,-38 113.5,-38 113.5,-70"/>
<text xml:space="preserve" text-anchor="start" x="8" y="-56.5" font-family="Helvetica,sans-Serif" font-size="10.00">LGE::Optimization::</text>
<text xml:space="preserve" text-anchor="middle" x="56.75" y="-44.5" font-family="Helvetica,sans-Serif" font-size="10.00">GetRecommendations</text>
</a>
</g>
</g>
<!-- Node2 -->
<g id="Node000002" class="node">
<title>Node2</title>
<g id="a_Node000002"><a xlink:href="namespaceLGE_1_1AssetRegistry.html#a9e672f9e3c8c62076b9156d1695e48b8" target="_top" xlink:title=" ">
<polygon fill="white" stroke="#666666" points="263.75,-120 160,-120 160,-88 263.75,-88 263.75,-120"/>
<text xml:space="preserve" text-anchor="start" x="168" y="-106.5" font-family="Helvetica,sans-Serif" font-size="10.00">LGE::AssetRegistry</text>
<text xml:space="preserve" text-anchor="middle" x="211.88" y="-94.5" font-family="Helvetica,sans-Serif" font-size="10.00">::FindByGUID</text>
</a>
</g>
</g>
<!-- Node1&#45;&gt;Node2 -->
<g id="edge1_Node000001_Node000002" class="edge">
<title>Node1&#45;&gt;Node2</title>
<g id="a_edge1_Node000001_Node000002"><a xlink:title=" ">
<path fill="none" stroke="#63b8ff" d="M107.89,-70.37C121.17,-74.71 135.66,-79.44 149.47,-83.95"/>
<polygon fill="#63b8ff" stroke="#63b8ff" points="148.33,-87.26 158.92,-87.04 150.5,-80.6 148.33,-87.26"/>
</a>
</g>
</g>
<!-- Node3 -->
<g id="Node000003" class="node">
<title>Node3</title>
<g id="a_Node000003"><a xlink:href="namespaceLGE_1_1AssetRegistry.html#ac9aa62a1e0c929e88bec00618b489988" target="_top" xlink:title=" ">
<polygon fill="white" stroke="#666666" points="263.75,-70 160,-70 160,-38 263.75,-38 263.75,-70"/>
<text xml:space="preserve" text-anchor="start" x="168" y="-56.5" font-family="Helvetica,sans-Serif" font-size="10.00">LGE::AssetRegistry</text>
<text xml:space="preserve" text-anchor="middle" x="211.88" y="-44.5" font-family="Helvetica,sans-Serif" font-size="10.00">::GetAllAssets</text>
</a>
</g>
</g>
<!-- Node1&#45;&gt;Node3 -->
<g id="edge2_Node000001_Node000003" class="edge">
<title>Node1&#45;&gt;Node3</title>
<g id="a_edge2_Node000001_Node000003"><a xlink:title=" ">
<path fill="none" stroke="#63b8ff" d="M113.9,-54C125.1,-54 136.93,-54 148.34,-54"/>
<polygon fill="#63b8ff" stroke="#63b8ff" points="148.04,-57.5 158.04,-54 148.04,-50.5 148.04,-57.5"/>
</a>
</g>
</g>
<!-- Node4 -->
<g id="Node000004" class="node">
<title>Node4</title>
<g id="a_Node000004"><a xlink:href="namespaceLGE_1_1LxFile.html#a40751ea42c228d8e2c6f6b0788e24aa7" target="_top" xlink:title=" ">
<polygon fill="white" stroke="#666666" points="274.25,-20 149.5,-20 149.5,0 274.25,0 274.25,-20"/>
<text xml:space="preserve" text-anchor="middle" x="211.88" y="-6.5" font-family="Helvetica,sans-Serif" font-size="10.00">LGE::LxFile::GetFileSize</text>
</a>
</g>
</g>
<!-- Node1&#45;&gt;Node4 -->
<g id="edge3_Node000001_Node000004" class="edge">
<title>Node1&#45;&gt;Node4</title>
<g id="a_edge3_Node000001_Node000004"><a xlink:title=" ">
<path fill="none" stroke="#63b8ff" d="M113.9,-37.87C130.4,-33.12 148.28,-27.99 164.13,-23.43"/>
<polygon fill="#63b8ff" stroke="#63b8ff" points="164.64,-26.93 173.28,-20.8 162.7,-20.2 164.64,-26.93"/>
</a>
</g>
</g>
</g>
</svg>
