<?xml version="1.0" encoding="UTF-8" standalone="no"?>
<!DOCTYPE svg PUBLIC "-//W3C//DTD SVG 1.1//EN"
 "http://www.w3.org/Graphics/SVG/1.1/DTD/svg11.dtd">
<!-- Generated by graphviz version 14.0.2 (20251019.1705)
 -->
<!-- Title: LGE::FSOps::Delete Pages: 1 -->
<svg width="1049pt" height="431pt"
 viewBox="0.00 0.00 1049.00 431.00" xmlns="http://www.w3.org/2000/svg" xmlns:xlink="http://www.w3.org/1999/xlink">
<g id="graph0" class="graph" transform="scale(1 1) rotate(0) translate(4 427.2)">
<title>LGE::FSOps::Delete</title>
<!-- Node1 -->
<g id="Node000001" class="node">
<title>Node1</title>
<g id="a_Node000001"><a xlink:title=" ">
<polygon fill="#999999" stroke="#666666" points="106.75,-165.02 0,-165.02 0,-145.02 106.75,-145.02 106.75,-165.02"/>
<text xml:space="preserve" text-anchor="middle" x="53.38" y="-151.52" font-family="Helvetica,sans-Serif" font-size="10.00">LGE::FSOps::Delete</text>
</a>
</g>
</g>
<!-- Node2 -->
<g id="Node000002" class="node">
<title>Node2</title>
<g id="a_Node000002"><a xlink:href="namespaceLGE_1_1LxFile.html#a495ab310e479d036634c3628390f80a0" target="_top" xlink:title=" ">
<polygon fill="white" stroke="#666666" points="257.38,-267.02 155.12,-267.02 155.12,-247.02 257.38,-247.02 257.38,-267.02"/>
<text xml:space="preserve" text-anchor="middle" x="206.25" y="-253.52" font-family="Helvetica,sans-Serif" font-size="10.00">LGE::LxFile::Delete</text>
</a>
</g>
</g>
<!-- Node1&#45;&gt;Node2 -->
<g id="edge1_Node000001_Node000002" class="edge">
<title>Node1&#45;&gt;Node2</title>
<g id="a_edge1_Node000001_Node000002"><a xlink:title=" ">
<path fill="none" stroke="#63b8ff" d="M69.67,-165.36C95.77,-183 149.1,-219.06 180.54,-240.31"/>
<polygon fill="#63b8ff" stroke="#63b8ff" points="178.41,-243.1 188.66,-245.8 182.33,-237.3 178.41,-243.1"/>
</a>
</g>
</g>
<!-- Node3 -->
<g id="Node000003" class="node">
<title>Node3</title>
<g id="a_Node000003"><a xlink:href="classLGE_1_1Log.html#a53f3f4b8797ffd18145739c9e66d690a" target="_top" xlink:title=" ">
<polygon fill="white" stroke="#666666" points="1041.25,-229.02 957,-229.02 957,-209.02 1041.25,-209.02 1041.25,-229.02"/>
<text xml:space="preserve" text-anchor="middle" x="999.12" y="-215.52" font-family="Helvetica,sans-Serif" font-size="10.00">LGE::Log::Error</text>
</a>
</g>
</g>
<!-- Node1&#45;&gt;Node3 -->
<g id="edge17_Node000001_Node000003" class="edge">
<title>Node1&#45;&gt;Node3</title>
<g id="a_edge17_Node000001_Node000003"><a xlink:title=" ">
<path fill="none" stroke="#63b8ff" d="M58.12,-144.53C67.7,-119.43 95.7,-56.01 142.75,-29.02 231.58,21.94 269.97,-10.02 372.38,-10.02 372.38,-10.02 372.38,-10.02 701.5,-10.02 832.32,-10.02 946.08,-147.54 984.38,-199.48"/>
<polygon fill="#63b8ff" stroke="#63b8ff" points="981.44,-201.38 990.13,-207.43 987.11,-197.28 981.44,-201.38"/>
</a>
</g>
</g>
<!-- Node4 -->
<g id="Node000004" class="node">
<title>Node4</title>
<g id="a_Node000004"><a xlink:href="classLGE_1_1Log.html#ab0265ee050b8873a2fd31fbdb696ced0" target="_top" xlink:title=" ">
<polygon fill="white" stroke="#666666" points="413.25,-400.02 333.5,-400.02 333.5,-380.02 413.25,-380.02 413.25,-400.02"/>
<text xml:space="preserve" text-anchor="middle" x="373.38" y="-386.52" font-family="Helvetica,sans-Serif" font-size="10.00">LGE::Log::Info</text>
</a>
</g>
</g>
<!-- Node1&#45;&gt;Node4 -->
<g id="edge19_Node000001_Node000004" class="edge">
<title>Node1&#45;&gt;Node4</title>
<g id="a_edge19_Node000001_Node000004"><a xlink:title=" ">
<path fill="none" stroke="#63b8ff" d="M59.79,-165.26C72.05,-187.67 103.91,-241.8 142.75,-276.02 198.33,-324.98 278.68,-358.46 328.11,-375.9"/>
<polygon fill="#63b8ff" stroke="#63b8ff" points="326.75,-379.13 337.34,-379.08 329.03,-372.51 326.75,-379.13"/>
</a>
</g>
</g>
<!-- Node6 -->
<g id="Node000006" class="node">
<title>Node6</title>
<g id="a_Node000006"><a xlink:href="namespaceLGE_1_1VFS.html#abb5d35abfe80efe2f7a07394ad5b706a" target="_top" xlink:title=" ">
<polygon fill="white" stroke="#666666" points="599.12,-324.02 480.38,-324.02 480.38,-304.02 599.12,-304.02 599.12,-324.02"/>
<text xml:space="preserve" text-anchor="middle" x="539.75" y="-310.52" font-family="Helvetica,sans-Serif" font-size="10.00">LGE::VFS::IsReadOnly</text>
</a>
</g>
</g>
<!-- Node1&#45;&gt;Node6 -->
<g id="edge21_Node000001_Node000006" class="edge">
<title>Node1&#45;&gt;Node6</title>
<g id="a_edge21_Node000001_Node000006"><a xlink:title=" ">
<path fill="none" stroke="#63b8ff" d="M57.15,-165.36C65.44,-194.51 92.63,-278.46 142.75,-328.02 200.27,-384.91 227,-390.53 305.75,-409.02 364.27,-422.76 385.3,-431.63 441,-409.02 478.44,-393.83 509.42,-356.64 525.9,-333.56"/>
<polygon fill="#63b8ff" stroke="#63b8ff" points="528.59,-335.82 531.38,-325.6 522.83,-331.85 528.59,-335.82"/>
</a>
</g>
</g>
<!-- Node12 -->
<g id="Node000012" class="node">
<title>Node12</title>
<g id="a_Node000012"><a xlink:href="namespaceLGE_1_1LxFile.html#a11e62876b312a11b881b484bb3a5ee71" target="_top" xlink:title=" ">
<polygon fill="white" stroke="#666666" points="257,-146.02 155.5,-146.02 155.5,-126.02 257,-126.02 257,-146.02"/>
<text xml:space="preserve" text-anchor="middle" x="206.25" y="-132.52" font-family="Helvetica,sans-Serif" font-size="10.00">LGE::LxFile::Exists</text>
</a>
</g>
</g>
<!-- Node1&#45;&gt;Node12 -->
<g id="edge18_Node000001_Node000012" class="edge">
<title>Node1&#45;&gt;Node12</title>
<g id="a_edge18_Node000001_Node000012"><a xlink:title=" ">
<path fill="none" stroke="#63b8ff" d="M107.14,-148.38C118.93,-146.89 131.53,-145.31 143.63,-143.78"/>
<polygon fill="#63b8ff" stroke="#63b8ff" points="144.06,-147.25 153.55,-142.53 143.19,-140.31 144.06,-147.25"/>
</a>
</g>
</g>
<!-- Node13 -->
<g id="Node000013" class="node">
<title>Node13</title>
<g id="a_Node000013"><a xlink:href="namespaceLGE_1_1LxFile.html#a16bd14fd1af0cad0e89bcd8d5841e7fd" target="_top" xlink:title=" ">
<polygon fill="white" stroke="#666666" points="255.12,-108.02 157.38,-108.02 157.38,-88.02 255.12,-88.02 255.12,-108.02"/>
<text xml:space="preserve" text-anchor="middle" x="206.25" y="-94.52" font-family="Helvetica,sans-Serif" font-size="10.00">LGE::LxFile::IsFile</text>
</a>
</g>
</g>
<!-- Node1&#45;&gt;Node13 -->
<g id="edge20_Node000001_Node000013" class="edge">
<title>Node1&#45;&gt;Node13</title>
<g id="a_edge20_Node000001_Node000013"><a xlink:title=" ">
<path fill="none" stroke="#63b8ff" d="M76.62,-144.64C94.33,-136.58 119.85,-125.4 142.75,-117.02 147.49,-115.29 152.47,-113.58 157.47,-111.95"/>
<polygon fill="#63b8ff" stroke="#63b8ff" points="158.42,-115.32 166.9,-108.96 156.31,-108.64 158.42,-115.32"/>
</a>
</g>
</g>
<!-- Node14 -->
<g id="Node000014" class="node">
<title>Node14</title>
<g id="a_Node000014"><a xlink:href="namespaceLGE_1_1AssetRegistry.html#a0d24d4f767306e5ac5406f57ec1c5080" target="_top" xlink:title=" ">
<polygon fill="white" stroke="#666666" points="258.12,-70.02 154.38,-70.02 154.38,-38.02 258.12,-38.02 258.12,-70.02"/>
<text xml:space="preserve" text-anchor="start" x="162.38" y="-56.52" font-family="Helvetica,sans-Serif" font-size="10.00">LGE::AssetRegistry</text>
<text xml:space="preserve" text-anchor="middle" x="206.25" y="-44.52" font-family="Helvetica,sans-Serif" font-size="10.00">::Remove</text>
</a>
</g>
</g>
<!-- Node1&#45;&gt;Node14 -->
<g id="edge22_Node000001_Node000014" class="edge">
<title>Node1&#45;&gt;Node14</title>
<g id="a_edge22_Node000001_Node000014"><a xlink:title=" ">
<path fill="none" stroke="#63b8ff" d="M64.11,-144.69C79.53,-128.81 111.09,-98.23 142.75,-79.02 144.74,-77.81 146.8,-76.64 148.9,-75.51"/>
<polygon fill="#63b8ff" stroke="#63b8ff" points="150.25,-78.75 157.65,-71.17 147.14,-72.48 150.25,-78.75"/>
</a>
</g>
</g>
<!-- Node15 -->
<g id="Node000015" class="node">
<title>Node15</title>
<g id="a_Node000015"><a xlink:href="namespaceLGE_1_1LxPath.html#a30bfeffc37846007936752889ffa7a8c" target="_top" xlink:title=" ">
<polygon fill="white" stroke="#666666" points="269.75,-184.02 142.75,-184.02 142.75,-164.02 269.75,-164.02 269.75,-184.02"/>
<text xml:space="preserve" text-anchor="middle" x="206.25" y="-170.52" font-family="Helvetica,sans-Serif" font-size="10.00">LGE::LxPath::ToAbsolute</text>
</a>
</g>
</g>
<!-- Node1&#45;&gt;Node15 -->
<g id="edge23_Node000001_Node000015" class="edge">
<title>Node1&#45;&gt;Node15</title>
<g id="a_edge23_Node000001_Node000015"><a xlink:title=" ">
<path fill="none" stroke="#63b8ff" d="M107.14,-161.67C114.88,-162.64 122.97,-163.66 131.05,-164.68"/>
<polygon fill="#63b8ff" stroke="#63b8ff" points="130.55,-168.14 140.9,-165.92 131.42,-161.2 130.55,-168.14"/>
</a>
</g>
</g>
<!-- Node2&#45;&gt;Node3 -->
<g id="edge2_Node000002_Node000003" class="edge">
<title>Node2&#45;&gt;Node3</title>
<g id="a_edge2_Node000002_Node000003"><a xlink:title=" ">
<path fill="none" stroke="#63b8ff" d="M257.56,-266.68C261.79,-268.21 265.91,-269.98 269.75,-272.02 288.91,-282.21 286.4,-295.18 305.75,-305.02 399.91,-352.91 433.11,-352.02 538.75,-352.02 538.75,-352.02 538.75,-352.02 701.5,-352.02 813.2,-352.02 929.49,-272.52 976.5,-236.45"/>
<polygon fill="#63b8ff" stroke="#63b8ff" points="978.53,-239.3 984.26,-230.39 974.22,-233.79 978.53,-239.3"/>
</a>
</g>
</g>
<!-- Node2&#45;&gt;Node4 -->
<g id="edge3_Node000002_Node000004" class="edge">
<title>Node2&#45;&gt;Node4</title>
<g id="a_edge3_Node000002_Node000004"><a xlink:title=" ">
<path fill="none" stroke="#63b8ff" d="M218.32,-267.13C231.17,-279.07 252.79,-299.74 269.75,-319.02 287.13,-338.78 284.51,-350.49 305.75,-366.02 310.96,-369.83 316.84,-373.09 322.89,-375.86"/>
<polygon fill="#63b8ff" stroke="#63b8ff" points="321.18,-378.94 331.76,-379.5 323.84,-372.47 321.18,-378.94"/>
</a>
</g>
</g>
<!-- Node5 -->
<g id="Node000005" class="node">
<title>Node5</title>
<g id="a_Node000005"><a xlink:href="namespaceLGE_1_1LxFS.html#a5684a30f3fa2906f4dafed0258a79166" target="_top" xlink:title=" ">
<polygon fill="white" stroke="#666666" points="599.88,-172.02 479.62,-172.02 479.62,-152.02 599.88,-152.02 599.88,-172.02"/>
<text xml:space="preserve" text-anchor="middle" x="539.75" y="-158.52" font-family="Helvetica,sans-Serif" font-size="10.00">LGE::LxFS::IsInitialized</text>
</a>
</g>
</g>
<!-- Node2&#45;&gt;Node5 -->
<g id="edge4_Node000002_Node000005" class="edge">
<title>Node2&#45;&gt;Node5</title>
<g id="a_edge4_Node000002_Node000005"><a xlink:title=" ">
<path fill="none" stroke="#63b8ff" d="M231.63,-246.61C251.38,-238.42 280.04,-227.09 305.75,-219.02 362.95,-201.07 429.5,-185.29 476.79,-174.9"/>
<polygon fill="#63b8ff" stroke="#63b8ff" points="477.28,-178.38 486.3,-172.84 475.79,-171.54 477.28,-178.38"/>
</a>
</g>
</g>
<!-- Node2&#45;&gt;Node6 -->
<g id="edge5_Node000002_Node000006" class="edge">
<title>Node2&#45;&gt;Node6</title>
<g id="a_edge5_Node000002_Node000006"><a xlink:title=" ">
<path fill="none" stroke="#63b8ff" d="M246.36,-267.49C264.36,-272.06 286.05,-277.23 305.75,-281.02 360.24,-291.49 422.48,-300.14 468.92,-305.95"/>
<polygon fill="#63b8ff" stroke="#63b8ff" points="468.22,-309.39 478.57,-307.15 469.08,-302.44 468.22,-309.39"/>
</a>
</g>
</g>
<!-- Node9 -->
<g id="Node000009" class="node">
<title>Node9</title>
<g id="a_Node000009"><a xlink:href="namespaceLGE_1_1LxFS.html#a12aeb6699602f14153953dceb4284914" target="_top" xlink:title=" ">
<polygon fill="white" stroke="#666666" points="587.88,-134.02 491.62,-134.02 491.62,-114.02 587.88,-114.02 587.88,-134.02"/>
<text xml:space="preserve" text-anchor="middle" x="539.75" y="-120.52" font-family="Helvetica,sans-Serif" font-size="10.00">LGE::LxFS::Paths</text>
</a>
</g>
</g>
<!-- Node2&#45;&gt;Node9 -->
<g id="edge10_Node000002_Node000009" class="edge">
<title>Node2&#45;&gt;Node9</title>
<g id="a_edge10_Node000002_Node000009"><a xlink:title=" ">
<path fill="none" stroke="#63b8ff" d="M217.43,-246.57C234.25,-229.91 269.59,-197.48 305.75,-180.02 336.2,-165.33 421.9,-146.72 480.42,-135.09"/>
<polygon fill="#63b8ff" stroke="#63b8ff" points="480.76,-138.59 489.89,-133.22 479.4,-131.72 480.76,-138.59"/>
</a>
</g>
</g>
<!-- Node10 -->
<g id="Node000010" class="node">
<title>Node10</title>
<g id="a_Node000010"><a xlink:href="namespaceLGE_1_1VFS.html#aee891612cc393155878775a61e486c0b" target="_top" xlink:title=" ">
<polygon fill="white" stroke="#666666" points="602.5,-286.02 477,-286.02 477,-266.02 602.5,-266.02 602.5,-286.02"/>
<text xml:space="preserve" text-anchor="middle" x="539.75" y="-272.52" font-family="Helvetica,sans-Serif" font-size="10.00">LGE::VFS::ToVirtualPath</text>
</a>
</g>
</g>
<!-- Node2&#45;&gt;Node10 -->
<g id="edge11_Node000002_Node000010" class="edge">
<title>Node2&#45;&gt;Node10</title>
<g id="a_edge11_Node000002_Node000010"><a xlink:title=" ">
<path fill="none" stroke="#63b8ff" d="M257.6,-259.91C312.84,-263.07 402.05,-268.19 465.14,-271.8"/>
<polygon fill="#63b8ff" stroke="#63b8ff" points="464.91,-275.29 475.09,-272.37 465.31,-268.31 464.91,-275.29"/>
</a>
</g>
</g>
<!-- Node11 -->
<g id="Node000011" class="node">
<title>Node11</title>
<g id="a_Node000011"><a xlink:href="namespaceLGE_1_1LxFile.html#a06d0b8c5590da8bc48cf22d321fc4074" target="_top" xlink:title=" ">
<polygon fill="white" stroke="#666666" points="427.12,-248.02 319.62,-248.02 319.62,-228.02 427.12,-228.02 427.12,-248.02"/>
<text xml:space="preserve" text-anchor="middle" x="373.38" y="-234.52" font-family="Helvetica,sans-Serif" font-size="10.00">LGE::LxFile::WriteAll</text>
</a>
</g>
</g>
<!-- Node2&#45;&gt;Node11 -->
<g id="edge14_Node000002_Node000011" class="edge">
<title>Node2&#45;&gt;Node11</title>
<g id="a_edge14_Node000002_Node000011"><a xlink:title=" ">
<path fill="none" stroke="#63b8ff" d="M257.69,-251.22C273.56,-249.39 291.32,-247.35 308.02,-245.43"/>
<polygon fill="#63b8ff" stroke="#63b8ff" points="308.35,-248.91 317.88,-244.29 307.54,-241.96 308.35,-248.91"/>
</a>
</g>
</g>
<!-- Node7 -->
<g id="Node000007" class="node">
<title>Node7</title>
<g id="a_Node000007"><a xlink:href="namespaceLGE_1_1LxPath.html#ab664986e94ce09aa029f9eb2fcf50133" target="_top" xlink:title=" ">
<polygon fill="white" stroke="#666666" points="762.5,-286.02 638.5,-286.02 638.5,-266.02 762.5,-266.02 762.5,-286.02"/>
<text xml:space="preserve" text-anchor="middle" x="700.5" y="-272.52" font-family="Helvetica,sans-Serif" font-size="10.00">LGE::LxPath::IsSubPath</text>
</a>
</g>
</g>
<!-- Node6&#45;&gt;Node7 -->
<g id="edge6_Node000006_Node000007" class="edge">
<title>Node6&#45;&gt;Node7</title>
<g id="a_edge6_Node000006_Node000007"><a xlink:title=" ">
<path fill="none" stroke="#63b8ff" d="M584.55,-303.54C603.2,-299.07 625.16,-293.82 644.86,-289.1"/>
<polygon fill="#63b8ff" stroke="#63b8ff" points="645.46,-292.56 654.37,-286.82 643.83,-285.75 645.46,-292.56"/>
</a>
</g>
</g>
<!-- Node8 -->
<g id="Node000008" class="node">
<title>Node8</title>
<g id="a_Node000008"><a xlink:href="namespaceLGE_1_1LxPath.html#a314a60ce690c90f4ee0b4e64c0199408" target="_top" xlink:title=" ">
<polygon fill="white" stroke="#666666" points="921,-248.02 798.5,-248.02 798.5,-228.02 921,-228.02 921,-248.02"/>
<text xml:space="preserve" text-anchor="middle" x="859.75" y="-234.52" font-family="Helvetica,sans-Serif" font-size="10.00">LGE::LxPath::Normalize</text>
</a>
</g>
</g>
<!-- Node6&#45;&gt;Node8 -->
<g id="edge9_Node000006_Node000008" class="edge">
<title>Node6&#45;&gt;Node8</title>
<g id="a_edge9_Node000006_Node000008"><a xlink:title=" ">
<path fill="none" stroke="#63b8ff" d="M599.57,-316.04C645.09,-315.94 709.14,-312.12 762.5,-295.02 789.93,-286.23 817.89,-268.49 836.56,-255.12"/>
<polygon fill="#63b8ff" stroke="#63b8ff" points="838.47,-258.06 844.44,-249.31 834.31,-252.42 838.47,-258.06"/>
</a>
</g>
</g>
<!-- Node7&#45;&gt;Node8 -->
<g id="edge7_Node000007_Node000008" class="edge">
<title>Node7&#45;&gt;Node8</title>
<g id="a_edge7_Node000007_Node000008"><a xlink:title=" ">
<path fill="none" stroke="#63b8ff" d="M744.89,-265.54C763.28,-261.09 784.91,-255.86 804.35,-251.17"/>
<polygon fill="#63b8ff" stroke="#63b8ff" points="805.14,-254.58 814.03,-248.83 803.49,-247.77 805.14,-254.58"/>
</a>
</g>
</g>
<!-- Node8&#45;&gt;Node3 -->
<g id="edge8_Node000008_Node000003" class="edge">
<title>Node8&#45;&gt;Node3</title>
<g id="a_edge8_Node000008_Node000003"><a xlink:title=" ">
<path fill="none" stroke="#63b8ff" d="M921.4,-229.63C929.42,-228.52 937.59,-227.39 945.45,-226.31"/>
<polygon fill="#63b8ff" stroke="#63b8ff" points="945.79,-229.79 955.22,-224.96 944.83,-222.86 945.79,-229.79"/>
</a>
</g>
</g>
<!-- Node10&#45;&gt;Node7 -->
<g id="edge12_Node000010_Node000007" class="edge">
<title>Node10&#45;&gt;Node7</title>
<g id="a_edge12_Node000010_Node000007"><a xlink:title=" ">
<path fill="none" stroke="#63b8ff" d="M602.58,-276.02C610.51,-276.02 618.69,-276.02 626.77,-276.02"/>
<polygon fill="#63b8ff" stroke="#63b8ff" points="626.58,-279.52 636.58,-276.02 626.58,-272.52 626.58,-279.52"/>
</a>
</g>
</g>
<!-- Node10&#45;&gt;Node8 -->
<g id="edge13_Node000010_Node000008" class="edge">
<title>Node10&#45;&gt;Node8</title>
<g id="a_edge13_Node000010_Node000008"><a xlink:title=" ">
<path fill="none" stroke="#63b8ff" d="M589.31,-265.53C604.95,-262.43 622.41,-259.27 638.5,-257.02 687.87,-250.11 743.84,-245.32 787.01,-242.28"/>
<polygon fill="#63b8ff" stroke="#63b8ff" points="787.01,-245.79 796.75,-241.61 786.53,-238.81 787.01,-245.79"/>
</a>
</g>
</g>
<!-- Node11&#45;&gt;Node3 -->
<g id="edge15_Node000011_Node000003" class="edge">
<title>Node11&#45;&gt;Node3</title>
<g id="a_edge15_Node000011_Node000003"><a xlink:title=" ">
<path fill="none" stroke="#63b8ff" d="M427.58,-234.87C507.9,-230.29 664.94,-222.01 798.5,-219.02 848.33,-217.91 905.17,-218.04 945.42,-218.38"/>
<polygon fill="#63b8ff" stroke="#63b8ff" points="945.28,-221.88 955.31,-218.47 945.35,-214.88 945.28,-221.88"/>
</a>
</g>
</g>
<!-- Node11&#45;&gt;Node6 -->
<g id="edge16_Node000011_Node000006" class="edge">
<title>Node11&#45;&gt;Node6</title>
<g id="a_edge16_Node000011_Node000006"><a xlink:title=" ">
<path fill="none" stroke="#63b8ff" d="M390.55,-248.4C410.33,-260.76 445.13,-281.44 477,-295.02 481.06,-296.75 485.34,-298.4 489.66,-299.95"/>
<polygon fill="#63b8ff" stroke="#63b8ff" points="488.39,-303.22 498.99,-303.1 490.64,-296.58 488.39,-303.22"/>
</a>
</g>
</g>
<!-- Node16 -->
<g id="Node000016" class="node">
<title>Node16</title>
<g id="a_Node000016"><a xlink:href="namespaceLGE_1_1LxPath.html#a012b60f3a9d31adc62694d2a4617c604" target="_top" xlink:title=" ">
<polygon fill="white" stroke="#666666" points="441,-134.02 305.75,-134.02 305.75,-114.02 441,-114.02 441,-134.02"/>
<text xml:space="preserve" text-anchor="middle" x="373.38" y="-120.52" font-family="Helvetica,sans-Serif" font-size="10.00">LGE::LxPath::GetRootPath</text>
</a>
</g>
</g>
<!-- Node15&#45;&gt;Node16 -->
<g id="edge24_Node000015_Node000016" class="edge">
<title>Node15&#45;&gt;Node16</title>
<g id="a_edge24_Node000015_Node000016"><a xlink:title=" ">
<path fill="none" stroke="#63b8ff" d="M241.87,-163.54C266.63,-156.04 300.21,-145.87 327.11,-137.73"/>
<polygon fill="#63b8ff" stroke="#63b8ff" points="327.8,-141.18 336.36,-134.93 325.77,-134.48 327.8,-141.18"/>
</a>
</g>
</g>
<!-- Node17 -->
<g id="Node000017" class="node">
<title>Node17</title>
<g id="a_Node000017"><a xlink:href="namespaceLGE_1_1LxPath.html#a94ec3bdfd6948ddc25cda5d18154d4cf" target="_top" xlink:title=" ">
<polygon fill="white" stroke="#666666" points="748.62,-134.02 652.38,-134.02 652.38,-114.02 748.62,-114.02 748.62,-134.02"/>
<text xml:space="preserve" text-anchor="middle" x="700.5" y="-120.52" font-family="Helvetica,sans-Serif" font-size="10.00">LGE::LxPath::Join</text>
</a>
</g>
</g>
<!-- Node15&#45;&gt;Node17 -->
<g id="edge27_Node000015_Node000017" class="edge">
<title>Node15&#45;&gt;Node17</title>
<g id="a_edge27_Node000015_Node000017"><a xlink:title=" ">
<path fill="none" stroke="#63b8ff" d="M253.92,-163.59C259.53,-161.27 264.95,-158.45 269.75,-155.02 292.02,-139.09 281.38,-117.5 305.75,-105.02 423.08,-44.92 586.75,-86.02 660.61,-110.05"/>
<polygon fill="#63b8ff" stroke="#63b8ff" points="659.23,-113.28 669.82,-113.12 661.44,-106.64 659.23,-113.28"/>
</a>
</g>
</g>
<!-- Node18 -->
<g id="Node000018" class="node">
<title>Node18</title>
<g id="a_Node000018"><a xlink:href="classLGE_1_1Log.html#aa6f98018af29c23dd7f574d3df5dda5e" target="_top" xlink:title=" ">
<polygon fill="white" stroke="#666666" points="416.25,-58.02 330.5,-58.02 330.5,-38.02 416.25,-38.02 416.25,-58.02"/>
<text xml:space="preserve" text-anchor="middle" x="373.38" y="-44.52" font-family="Helvetica,sans-Serif" font-size="10.00">LGE::Log::Warn</text>
</a>
</g>
</g>
<!-- Node15&#45;&gt;Node18 -->
<g id="edge29_Node000015_Node000018" class="edge">
<title>Node15&#45;&gt;Node18</title>
<g id="a_edge29_Node000015_Node000018"><a xlink:title=" ">
<path fill="none" stroke="#63b8ff" d="M256.56,-163.65C261.34,-161.33 265.86,-158.49 269.75,-155.02 299.76,-128.26 276.43,-99.54 305.75,-72.02 309.96,-68.07 314.86,-64.77 320.06,-62"/>
<polygon fill="#63b8ff" stroke="#63b8ff" points="321.31,-65.28 328.95,-57.94 318.4,-58.91 321.31,-65.28"/>
</a>
</g>
</g>
<!-- Node16&#45;&gt;Node5 -->
<g id="edge25_Node000016_Node000005" class="edge">
<title>Node16&#45;&gt;Node5</title>
<g id="a_edge25_Node000016_Node000005"><a xlink:title=" ">
<path fill="none" stroke="#63b8ff" d="M419.73,-134.51C439.13,-138.99 461.99,-144.27 482.46,-149.01"/>
<polygon fill="#63b8ff" stroke="#63b8ff" points="481.54,-152.39 492.07,-151.23 483.12,-145.57 481.54,-152.39"/>
</a>
</g>
</g>
<!-- Node16&#45;&gt;Node9 -->
<g id="edge26_Node000016_Node000009" class="edge">
<title>Node16&#45;&gt;Node9</title>
<g id="a_edge26_Node000016_Node000009"><a xlink:title=" ">
<path fill="none" stroke="#63b8ff" d="M441.23,-124.02C454.16,-124.02 467.62,-124.02 480.25,-124.02"/>
<polygon fill="#63b8ff" stroke="#63b8ff" points="480.08,-127.52 490.08,-124.02 480.08,-120.52 480.08,-127.52"/>
</a>
</g>
</g>
<!-- Node17&#45;&gt;Node8 -->
<g id="edge28_Node000017_Node000008" class="edge">
<title>Node17&#45;&gt;Node8</title>
<g id="a_edge28_Node000017_Node000008"><a xlink:title=" ">
<path fill="none" stroke="#63b8ff" d="M715.73,-134.34C742.98,-154.09 802.74,-197.41 835.73,-221.33"/>
<polygon fill="#63b8ff" stroke="#63b8ff" points="833.29,-223.88 843.44,-226.92 837.4,-218.22 833.29,-223.88"/>
</a>
</g>
</g>
</g>
</svg>
