<?xml version="1.0" encoding="UTF-8" standalone="no"?>
<!DOCTYPE svg PUBLIC "-//W3C//DTD SVG 1.1//EN"
 "http://www.w3.org/Graphics/SVG/1.1/DTD/svg11.dtd">
<!-- Generated by graphviz version 14.0.2 (20251019.1705)
 -->
<!-- Title: LGE::FSWatch::Watch Pages: 1 -->
<svg width="724pt" height="172pt"
 viewBox="0.00 0.00 724.00 172.00" xmlns="http://www.w3.org/2000/svg" xmlns:xlink="http://www.w3.org/1999/xlink">
<g id="graph0" class="graph" transform="scale(1 1) rotate(0) translate(4 168)">
<title>LGE::FSWatch::Watch</title>
<!-- Node1 -->
<g id="Node000001" class="node">
<title>Node1</title>
<g id="a_Node000001"><a xlink:title=" ">
<polygon fill="#999999" stroke="#666666" points="115.75,-96 0,-96 0,-76 115.75,-76 115.75,-96"/>
<text xml:space="preserve" text-anchor="middle" x="57.88" y="-82.5" font-family="Helvetica,sans-Serif" font-size="10.00">LGE::FSWatch::Watch</text>
</a>
</g>
</g>
<!-- Node2 -->
<g id="Node000002" class="node">
<title>Node2</title>
<g id="a_Node000002"><a xlink:href="classLGE_1_1Log.html#a53f3f4b8797ffd18145739c9e66d690a" target="_top" xlink:title=" ">
<polygon fill="white" stroke="#666666" points="716,-115 631.75,-115 631.75,-95 716,-95 716,-115"/>
<text xml:space="preserve" text-anchor="middle" x="673.88" y="-101.5" font-family="Helvetica,sans-Serif" font-size="10.00">LGE::Log::Error</text>
</a>
</g>
</g>
<!-- Node1&#45;&gt;Node2 -->
<g id="edge1_Node000001_Node000002" class="edge">
<title>Node1&#45;&gt;Node2</title>
<g id="a_edge1_Node000001_Node000002"><a xlink:title=" ">
<path fill="none" stroke="#63b8ff" d="M70.74,-96.33C87.46,-110.13 119.52,-133.9 151.75,-143 322.29,-191.16 536.01,-143.69 627.7,-118.5"/>
<polygon fill="#63b8ff" stroke="#63b8ff" points="628.38,-121.94 637.07,-115.88 626.5,-115.2 628.38,-121.94"/>
</a>
</g>
</g>
<!-- Node3 -->
<g id="Node000003" class="node">
<title>Node3</title>
<g id="a_Node000003"><a xlink:href="classLGE_1_1Log.html#ab0265ee050b8873a2fd31fbdb696ced0" target="_top" xlink:title=" ">
<polygon fill="white" stroke="#666666" points="254.38,-134 174.62,-134 174.62,-114 254.38,-114 254.38,-134"/>
<text xml:space="preserve" text-anchor="middle" x="214.5" y="-120.5" font-family="Helvetica,sans-Serif" font-size="10.00">LGE::Log::Info</text>
</a>
</g>
</g>
<!-- Node1&#45;&gt;Node3 -->
<g id="edge2_Node000001_Node000003" class="edge">
<title>Node1&#45;&gt;Node3</title>
<g id="a_edge2_Node000001_Node000003"><a xlink:title=" ">
<path fill="none" stroke="#63b8ff" d="M101.54,-96.48C120.61,-101.17 143.22,-106.73 163.12,-111.62"/>
<polygon fill="#63b8ff" stroke="#63b8ff" points="162.14,-114.98 172.69,-113.97 163.81,-108.18 162.14,-114.98"/>
</a>
</g>
</g>
<!-- Node4 -->
<g id="Node000004" class="node">
<title>Node4</title>
<g id="a_Node000004"><a xlink:href="namespaceLGE_1_1LxPath.html#a314a60ce690c90f4ee0b4e64c0199408" target="_top" xlink:title=" ">
<polygon fill="white" stroke="#666666" points="595.75,-77 473.25,-77 473.25,-57 595.75,-57 595.75,-77"/>
<text xml:space="preserve" text-anchor="middle" x="534.5" y="-63.5" font-family="Helvetica,sans-Serif" font-size="10.00">LGE::LxPath::Normalize</text>
</a>
</g>
</g>
<!-- Node1&#45;&gt;Node4 -->
<g id="edge3_Node000001_Node000004" class="edge">
<title>Node1&#45;&gt;Node4</title>
<g id="a_edge3_Node000001_Node000004"><a xlink:title=" ">
<path fill="none" stroke="#63b8ff" d="M115.94,-84.15C190.02,-81.7 323.31,-77.07 437.25,-72 445.09,-71.65 453.29,-71.26 461.45,-70.86"/>
<polygon fill="#63b8ff" stroke="#63b8ff" points="461.6,-74.36 471.41,-70.36 461.25,-67.37 461.6,-74.36"/>
</a>
</g>
</g>
<!-- Node5 -->
<g id="Node000005" class="node">
<title>Node5</title>
<g id="a_Node000005"><a xlink:href="namespaceLGE_1_1VFS.html#aee891612cc393155878775a61e486c0b" target="_top" xlink:title=" ">
<polygon fill="white" stroke="#666666" points="277.25,-58 151.75,-58 151.75,-38 277.25,-38 277.25,-58"/>
<text xml:space="preserve" text-anchor="middle" x="214.5" y="-44.5" font-family="Helvetica,sans-Serif" font-size="10.00">LGE::VFS::ToVirtualPath</text>
</a>
</g>
</g>
<!-- Node1&#45;&gt;Node5 -->
<g id="edge5_Node000001_Node000005" class="edge">
<title>Node1&#45;&gt;Node5</title>
<g id="a_edge5_Node000001_Node000005"><a xlink:title=" ">
<path fill="none" stroke="#63b8ff" d="M101.54,-75.52C119.62,-71.07 140.89,-65.84 160.01,-61.15"/>
<polygon fill="#63b8ff" stroke="#63b8ff" points="160.63,-64.6 169.51,-58.81 158.96,-57.8 160.63,-64.6"/>
</a>
</g>
</g>
<!-- Node7 -->
<g id="Node000007" class="node">
<title>Node7</title>
<g id="a_Node000007"><a xlink:href="classLGE_1_1Log.html#aa6f98018af29c23dd7f574d3df5dda5e" target="_top" xlink:title=" ">
<polygon fill="white" stroke="#666666" points="257.38,-20 171.62,-20 171.62,0 257.38,0 257.38,-20"/>
<text xml:space="preserve" text-anchor="middle" x="214.5" y="-6.5" font-family="Helvetica,sans-Serif" font-size="10.00">LGE::Log::Warn</text>
</a>
</g>
</g>
<!-- Node1&#45;&gt;Node7 -->
<g id="edge9_Node000001_Node000007" class="edge">
<title>Node1&#45;&gt;Node7</title>
<g id="a_edge9_Node000001_Node000007"><a xlink:title=" ">
<path fill="none" stroke="#63b8ff" d="M73.35,-75.51C91.1,-63.04 122.44,-42.25 151.75,-29 155.55,-27.28 159.55,-25.66 163.61,-24.15"/>
<polygon fill="#63b8ff" stroke="#63b8ff" points="164.68,-27.48 172.98,-20.89 162.38,-20.87 164.68,-27.48"/>
</a>
</g>
</g>
<!-- Node4&#45;&gt;Node2 -->
<g id="edge4_Node000004_Node000002" class="edge">
<title>Node4&#45;&gt;Node2</title>
<g id="a_edge4_Node000004_Node000002"><a xlink:title=" ">
<path fill="none" stroke="#63b8ff" d="M573.4,-77.48C589.17,-81.85 607.66,-86.96 624.4,-91.59"/>
<polygon fill="#63b8ff" stroke="#63b8ff" points="623.07,-94.85 633.64,-94.15 624.93,-88.11 623.07,-94.85"/>
</a>
</g>
</g>
<!-- Node5&#45;&gt;Node4 -->
<g id="edge8_Node000005_Node000004" class="edge">
<title>Node5&#45;&gt;Node4</title>
<g id="a_edge8_Node000005_Node000004"><a xlink:title=" ">
<path fill="none" stroke="#63b8ff" d="M277.57,-51.71C330.41,-54.87 406.35,-59.4 461.79,-62.72"/>
<polygon fill="#63b8ff" stroke="#63b8ff" points="461.24,-66.19 471.43,-63.29 461.65,-59.2 461.24,-66.19"/>
</a>
</g>
</g>
<!-- Node6 -->
<g id="Node000006" class="node">
<title>Node6</title>
<g id="a_Node000006"><a xlink:href="namespaceLGE_1_1LxPath.html#ab664986e94ce09aa029f9eb2fcf50133" target="_top" xlink:title=" ">
<polygon fill="white" stroke="#666666" points="437.25,-20 313.25,-20 313.25,0 437.25,0 437.25,-20"/>
<text xml:space="preserve" text-anchor="middle" x="375.25" y="-6.5" font-family="Helvetica,sans-Serif" font-size="10.00">LGE::LxPath::IsSubPath</text>
</a>
</g>
</g>
<!-- Node5&#45;&gt;Node6 -->
<g id="edge6_Node000005_Node000006" class="edge">
<title>Node5&#45;&gt;Node6</title>
<g id="a_edge6_Node000005_Node000006"><a xlink:title=" ">
<path fill="none" stroke="#63b8ff" d="M259.3,-37.52C277.95,-33.05 299.91,-27.79 319.61,-23.08"/>
<polygon fill="#63b8ff" stroke="#63b8ff" points="320.21,-26.53 329.12,-20.8 318.58,-19.73 320.21,-26.53"/>
</a>
</g>
</g>
<!-- Node6&#45;&gt;Node4 -->
<g id="edge7_Node000006_Node000004" class="edge">
<title>Node6&#45;&gt;Node4</title>
<g id="a_edge7_Node000006_Node000004"><a xlink:title=" ">
<path fill="none" stroke="#63b8ff" d="M405.09,-20.45C430.06,-29.51 466.41,-42.68 494.07,-52.71"/>
<polygon fill="#63b8ff" stroke="#63b8ff" points="492.56,-55.88 503.15,-56 494.94,-49.3 492.56,-55.88"/>
</a>
</g>
</g>
</g>
</svg>
