<?xml version="1.0" encoding="UTF-8" standalone="no"?>
<!DOCTYPE svg PUBLIC "-//W3C//DTD SVG 1.1//EN"
 "http://www.w3.org/Graphics/SVG/1.1/DTD/svg11.dtd">
<!-- Generated by graphviz version 14.0.2 (20251019.1705)
 -->
<!-- Title: LGE::LxFile::RemoveDirectory Pages: 1 -->
<svg width="336pt" height="116pt"
 viewBox="0.00 0.00 336.00 116.00" xmlns="http://www.w3.org/2000/svg" xmlns:xlink="http://www.w3.org/1999/xlink">
<g id="graph0" class="graph" transform="scale(1 1) rotate(0) translate(4 112)">
<title>LGE::LxFile::RemoveDirectory</title>
<!-- Node1 -->
<g id="Node000001" class="node">
<title>Node1</title>
<g id="a_Node000001"><a xlink:title=" ">
<polygon fill="#999999" stroke="#666666" points="327.5,-58 177.25,-58 177.25,-38 327.5,-38 327.5,-58"/>
<text xml:space="preserve" text-anchor="middle" x="252.38" y="-44.5" font-family="Helvetica,sans-Serif" font-size="10.00">LGE::LxFile::RemoveDirectory</text>
</a>
</g>
</g>
<!-- Node2 -->
<g id="Node000002" class="node">
<title>Node2</title>
<g id="a_Node000002"><a xlink:href="namespaceLGE_1_1Versioning.html#ac89f33831ce990a8bf35ef89462d899f" target="_top" xlink:title=" ">
<polygon fill="white" stroke="#666666" points="136.75,-108 4.5,-108 4.5,-76 136.75,-76 136.75,-108"/>
<text xml:space="preserve" text-anchor="start" x="12.5" y="-94.5" font-family="Helvetica,sans-Serif" font-size="10.00">LGE::Versioning::DeleteAll</text>
<text xml:space="preserve" text-anchor="middle" x="70.62" y="-82.5" font-family="Helvetica,sans-Serif" font-size="10.00">Versions</text>
</a>
</g>
</g>
<!-- Node1&#45;&gt;Node2 -->
<g id="edge1_Node000001_Node000002" class="edge">
<title>Node1&#45;&gt;Node2</title>
<g id="a_edge1_Node000001_Node000002"><a xlink:title=" ">
<path fill="none" stroke="#63b8ff" d="M197.61,-61.16C178.6,-65.81 157,-71.1 137.12,-75.97"/>
<polygon fill="#63b8ff" stroke="#63b8ff" points="198.43,-64.56 207.31,-58.79 196.76,-57.77 198.43,-64.56"/>
</a>
</g>
</g>
<!-- Node3 -->
<g id="Node000003" class="node">
<title>Node3</title>
<g id="a_Node000003"><a xlink:href="namespaceLGE_1_1Bundles.html#a681809a9d58791f140e994496bd31ddb" target="_top" xlink:title=" ">
<polygon fill="white" stroke="#666666" points="141.25,-58 0,-58 0,-38 141.25,-38 141.25,-58"/>
<text xml:space="preserve" text-anchor="middle" x="70.62" y="-44.5" font-family="Helvetica,sans-Serif" font-size="10.00">LGE::Bundles::DeleteBundle</text>
</a>
</g>
</g>
<!-- Node1&#45;&gt;Node3 -->
<g id="edge2_Node000001_Node000003" class="edge">
<title>Node1&#45;&gt;Node3</title>
<g id="a_edge2_Node000001_Node000003"><a xlink:title=" ">
<path fill="none" stroke="#63b8ff" d="M165.65,-48C157.61,-48 149.52,-48 141.65,-48"/>
<polygon fill="#63b8ff" stroke="#63b8ff" points="165.45,-51.5 175.45,-48 165.45,-44.5 165.45,-51.5"/>
</a>
</g>
</g>
<!-- Node4 -->
<g id="Node000004" class="node">
<title>Node4</title>
<g id="a_Node000004"><a xlink:href="namespaceLGE_1_1PackageMgr.html#a5fa80ee6187608019aeeb27bcf591cf7" target="_top" xlink:title=" ">
<polygon fill="white" stroke="#666666" points="140.88,-20 0.38,-20 0.38,0 140.88,0 140.88,-20"/>
<text xml:space="preserve" text-anchor="middle" x="70.62" y="-6.5" font-family="Helvetica,sans-Serif" font-size="10.00">LGE::PackageMgr::Uninstall</text>
</a>
</g>
</g>
<!-- Node1&#45;&gt;Node4 -->
<g id="edge3_Node000001_Node000004" class="edge">
<title>Node1&#45;&gt;Node4</title>
<g id="a_edge3_Node000001_Node000004"><a xlink:title=" ">
<path fill="none" stroke="#63b8ff" d="M190.58,-35.15C167.94,-30.36 142.55,-24.99 121.06,-20.45"/>
<polygon fill="#63b8ff" stroke="#63b8ff" points="189.79,-38.56 200.3,-37.2 191.24,-31.71 189.79,-38.56"/>
</a>
</g>
</g>
</g>
</svg>
