<?xml version="1.0" encoding="UTF-8" standalone="no"?>
<!DOCTYPE svg PUBLIC "-//W3C//DTD SVG 1.1//EN"
 "http://www.w3.org/Graphics/SVG/1.1/DTD/svg11.dtd">
<!-- Generated by graphviz version 14.0.2 (20251019.1705)
 -->
<!-- Title: LGE::Bundles::RemoveAssetsFromBundle Pages: 1 -->
<svg width="330pt" height="192pt"
 viewBox="0.00 0.00 330.00 192.00" xmlns="http://www.w3.org/2000/svg" xmlns:xlink="http://www.w3.org/1999/xlink">
<g id="graph0" class="graph" transform="scale(1 1) rotate(0) translate(4 188)">
<title>LGE::Bundles::RemoveAssetsFromBundle</title>
<!-- Node1 -->
<g id="Node000001" class="node">
<title>Node1</title>
<g id="a_Node000001"><a xlink:title=" ">
<polygon fill="#999999" stroke="#666666" points="150.25,-102 0,-102 0,-70 150.25,-70 150.25,-102"/>
<text xml:space="preserve" text-anchor="start" x="8" y="-88.5" font-family="Helvetica,sans-Serif" font-size="10.00">LGE::Bundles::RemoveAssets</text>
<text xml:space="preserve" text-anchor="middle" x="75.12" y="-76.5" font-family="Helvetica,sans-Serif" font-size="10.00">FromBundle</text>
</a>
</g>
</g>
<!-- Node2 -->
<g id="Node000002" class="node">
<title>Node2</title>
<g id="a_Node000002"><a xlink:href="classLGE_1_1Log.html#a53f3f4b8797ffd18145739c9e66d690a" target="_top" xlink:title=" ">
<polygon fill="white" stroke="#666666" points="296.38,-184 212.12,-184 212.12,-164 296.38,-164 296.38,-184"/>
<text xml:space="preserve" text-anchor="middle" x="254.25" y="-170.5" font-family="Helvetica,sans-Serif" font-size="10.00">LGE::Log::Error</text>
</a>
</g>
</g>
<!-- Node1&#45;&gt;Node2 -->
<g id="edge1_Node000001_Node000002" class="edge">
<title>Node1&#45;&gt;Node2</title>
<g id="a_edge1_Node000001_Node000002"><a xlink:title=" ">
<path fill="none" stroke="#63b8ff" d="M97.86,-102.23C119.36,-117.64 153.67,-140.53 186.25,-155 191.04,-157.13 196.13,-159.08 201.28,-160.85"/>
<polygon fill="#63b8ff" stroke="#63b8ff" points="199.82,-164.06 210.41,-163.78 201.96,-157.4 199.82,-164.06"/>
</a>
</g>
</g>
<!-- Node3 -->
<g id="Node000003" class="node">
<title>Node3</title>
<g id="a_Node000003"><a xlink:href="namespaceLGE_1_1AssetRegistry.html#a9e672f9e3c8c62076b9156d1695e48b8" target="_top" xlink:title=" ">
<polygon fill="white" stroke="#666666" points="306.12,-146 202.38,-146 202.38,-114 306.12,-114 306.12,-146"/>
<text xml:space="preserve" text-anchor="start" x="210.38" y="-132.5" font-family="Helvetica,sans-Serif" font-size="10.00">LGE::AssetRegistry</text>
<text xml:space="preserve" text-anchor="middle" x="254.25" y="-120.5" font-family="Helvetica,sans-Serif" font-size="10.00">::FindByGUID</text>
</a>
</g>
</g>
<!-- Node1&#45;&gt;Node3 -->
<g id="edge2_Node000001_Node000003" class="edge">
<title>Node1&#45;&gt;Node3</title>
<g id="a_edge2_Node000001_Node000003"><a xlink:title=" ">
<path fill="none" stroke="#63b8ff" d="M142.33,-102.45C158.38,-106.43 175.47,-110.68 191.32,-114.61"/>
<polygon fill="#63b8ff" stroke="#63b8ff" points="190.04,-117.9 200.59,-116.92 191.72,-111.11 190.04,-117.9"/>
</a>
</g>
</g>
<!-- Node4 -->
<g id="Node000004" class="node">
<title>Node4</title>
<g id="a_Node000004"><a xlink:href="namespaceLGE_1_1LxFile.html#a40751ea42c228d8e2c6f6b0788e24aa7" target="_top" xlink:title=" ">
<polygon fill="white" stroke="#666666" points="316.62,-96 191.88,-96 191.88,-76 316.62,-76 316.62,-96"/>
<text xml:space="preserve" text-anchor="middle" x="254.25" y="-82.5" font-family="Helvetica,sans-Serif" font-size="10.00">LGE::LxFile::GetFileSize</text>
</a>
</g>
</g>
<!-- Node1&#45;&gt;Node4 -->
<g id="edge3_Node000001_Node000004" class="edge">
<title>Node1&#45;&gt;Node4</title>
<g id="a_edge3_Node000001_Node000004"><a xlink:title=" ">
<path fill="none" stroke="#63b8ff" d="M150.73,-86C160.51,-86 170.53,-86 180.29,-86"/>
<polygon fill="#63b8ff" stroke="#63b8ff" points="180.08,-89.5 190.08,-86 180.08,-82.5 180.08,-89.5"/>
</a>
</g>
</g>
<!-- Node5 -->
<g id="Node000005" class="node">
<title>Node5</title>
<g id="a_Node000005"><a xlink:href="namespaceLGE_1_1Bundles.html#a8505ad72297fc2e588754b89c3b14933" target="_top" xlink:title=" ">
<polygon fill="white" stroke="#666666" points="322.25,-58 186.25,-58 186.25,-38 322.25,-38 322.25,-58"/>
<text xml:space="preserve" text-anchor="middle" x="254.25" y="-44.5" font-family="Helvetica,sans-Serif" font-size="10.00">LGE::Bundles::GetManifest</text>
</a>
</g>
</g>
<!-- Node1&#45;&gt;Node5 -->
<g id="edge4_Node000001_Node000005" class="edge">
<title>Node1&#45;&gt;Node5</title>
<g id="a_edge4_Node000001_Node000005"><a xlink:title=" ">
<path fill="none" stroke="#63b8ff" d="M150.73,-69.99C164.91,-66.95 179.58,-63.8 193.24,-60.87"/>
<polygon fill="#63b8ff" stroke="#63b8ff" points="193.92,-64.31 202.96,-58.79 192.45,-57.46 193.92,-64.31"/>
</a>
</g>
</g>
<!-- Node6 -->
<g id="Node000006" class="node">
<title>Node6</title>
<g id="a_Node000006"><a xlink:href="classLGE_1_1Log.html#ab0265ee050b8873a2fd31fbdb696ced0" target="_top" xlink:title=" ">
<polygon fill="white" stroke="#666666" points="294.12,-20 214.38,-20 214.38,0 294.12,0 294.12,-20"/>
<text xml:space="preserve" text-anchor="middle" x="254.25" y="-6.5" font-family="Helvetica,sans-Serif" font-size="10.00">LGE::Log::Info</text>
</a>
</g>
</g>
<!-- Node1&#45;&gt;Node6 -->
<g id="edge5_Node000001_Node000006" class="edge">
<title>Node1&#45;&gt;Node6</title>
<g id="a_edge5_Node000001_Node000006"><a xlink:title=" ">
<path fill="none" stroke="#63b8ff" d="M103.91,-69.63C125.75,-57.25 157.23,-40.49 186.25,-29 191.8,-26.8 197.7,-24.75 203.61,-22.86"/>
<polygon fill="#63b8ff" stroke="#63b8ff" points="204.19,-26.34 212.74,-20.09 202.16,-19.64 204.19,-26.34"/>
</a>
</g>
</g>
</g>
</svg>
