<?xml version="1.0" encoding="UTF-8" standalone="no"?>
<!DOCTYPE svg PUBLIC "-//W3C//DTD SVG 1.1//EN"
 "http://www.w3.org/Graphics/SVG/1.1/DTD/svg11.dtd">
<!-- Generated by graphviz version 14.0.2 (20251019.1705)
 -->
<!-- Title: OpenGLRenderer.cpp Pages: 1 -->
<svg width="529pt" height="208pt"
 viewBox="0.00 0.00 529.00 208.00" xmlns="http://www.w3.org/2000/svg" xmlns:xlink="http://www.w3.org/1999/xlink">
<g id="graph0" class="graph" transform="scale(1 1) rotate(0) translate(4 204)">
<title>OpenGLRenderer.cpp</title>
<!-- Node1 -->
<g id="Node000001" class="node">
<title>Node1</title>
<g id="a_Node000001"><a xlink:title=" ">
<polygon fill="#999999" stroke="#666666" points="355.88,-200 245.38,-200 245.38,-180 355.88,-180 355.88,-200"/>
<text xml:space="preserve" text-anchor="middle" x="300.62" y="-186.5" font-family="Helvetica,sans-Serif" font-size="10.00">OpenGLRenderer.cpp</text>
</a>
</g>
</g>
<!-- Node2 -->
<g id="Node000002" class="node">
<title>Node2</title>
<g id="a_Node000002"><a xlink:href="OpenGLRenderer_8h.html" target="_top" xlink:title=" ">
<polygon fill="white" stroke="#666666" points="119.5,-144 9.75,-144 9.75,-112 119.5,-112 119.5,-144"/>
<text xml:space="preserve" text-anchor="start" x="17.75" y="-130.5" font-family="Helvetica,sans-Serif" font-size="10.00">LGE/rendering/opengl</text>
<text xml:space="preserve" text-anchor="middle" x="64.62" y="-118.5" font-family="Helvetica,sans-Serif" font-size="10.00">/OpenGLRenderer.h</text>
</a>
</g>
</g>
<!-- Node1&#45;&gt;Node2 -->
<g id="edge1_Node000001_Node000002" class="edge">
<title>Node1&#45;&gt;Node2</title>
<g id="a_edge1_Node000001_Node000002"><a xlink:title=" ">
<path fill="none" stroke="#63b8ff" d="M263.49,-179.56C228.03,-170.54 173.78,-156.75 130.9,-145.85"/>
<polygon fill="#63b8ff" stroke="#63b8ff" points="132,-142.52 121.45,-143.45 130.28,-149.3 132,-142.52"/>
</a>
</g>
</g>
<!-- Node6 -->
<g id="Node000006" class="node">
<title>Node6</title>
<g id="a_Node000006"><a xlink:href="Window_8h.html" target="_top" xlink:title=" ">
<polygon fill="white" stroke="#666666" points="240.12,-138 137.12,-138 137.12,-118 240.12,-118 240.12,-138"/>
<text xml:space="preserve" text-anchor="middle" x="188.62" y="-124.5" font-family="Helvetica,sans-Serif" font-size="10.00">LGE/core/Window.h</text>
</a>
</g>
</g>
<!-- Node1&#45;&gt;Node6 -->
<g id="edge5_Node000001_Node000006" class="edge">
<title>Node1&#45;&gt;Node6</title>
<g id="a_edge5_Node000001_Node000006"><a xlink:title=" ">
<path fill="none" stroke="#63b8ff" d="M283.12,-179.62C265.13,-169.98 236.84,-154.83 215.9,-143.61"/>
<polygon fill="#63b8ff" stroke="#63b8ff" points="217.8,-140.66 207.34,-139.02 214.5,-146.83 217.8,-140.66"/>
</a>
</g>
</g>
<!-- Node9 -->
<g id="Node000009" class="node">
<title>Node9</title>
<g id="a_Node000009"><a xlink:href="Log_8h.html" target="_top" xlink:title=" ">
<polygon fill="white" stroke="#666666" points="342.75,-138 258.5,-138 258.5,-118 342.75,-118 342.75,-138"/>
<text xml:space="preserve" text-anchor="middle" x="300.62" y="-124.5" font-family="Helvetica,sans-Serif" font-size="10.00">LGE/core/Log.h</text>
</a>
</g>
</g>
<!-- Node1&#45;&gt;Node9 -->
<g id="edge8_Node000001_Node000009" class="edge">
<title>Node1&#45;&gt;Node9</title>
<g id="a_edge8_Node000001_Node000009"><a xlink:title=" ">
<path fill="none" stroke="#63b8ff" d="M300.62,-179.62C300.62,-171.56 300.62,-159.65 300.62,-149.41"/>
<polygon fill="#63b8ff" stroke="#63b8ff" points="304.13,-149.63 300.63,-139.63 297.13,-149.63 304.13,-149.63"/>
</a>
</g>
</g>
<!-- Node11 -->
<g id="Node000011" class="node">
<title>Node11</title>
<g id="a_Node000011"><a xlink:title=" ">
<polygon fill="#e0e0e0" stroke="#999999" points="424.25,-138 361,-138 361,-118 424.25,-118 424.25,-138"/>
<text xml:space="preserve" text-anchor="middle" x="392.62" y="-124.5" font-family="Helvetica,sans-Serif" font-size="10.00">glad/glad.h</text>
</a>
</g>
</g>
<!-- Node1&#45;&gt;Node11 -->
<g id="edge11_Node000001_Node000011" class="edge">
<title>Node1&#45;&gt;Node11</title>
<g id="a_edge11_Node000001_Node000011"><a xlink:title=" ">
<path fill="none" stroke="#63b8ff" d="M315,-179.62C329.45,-170.2 351.96,-155.52 369.03,-144.39"/>
<polygon fill="#63b8ff" stroke="#63b8ff" points="370.62,-147.53 377.08,-139.14 366.8,-141.67 370.62,-147.53"/>
</a>
</g>
</g>
<!-- Node12 -->
<g id="Node000012" class="node">
<title>Node12</title>
<g id="a_Node000012"><a xlink:title=" ">
<polygon fill="#e0e0e0" stroke="#999999" points="521.12,-138 442.12,-138 442.12,-118 521.12,-118 521.12,-138"/>
<text xml:space="preserve" text-anchor="middle" x="481.62" y="-124.5" font-family="Helvetica,sans-Serif" font-size="10.00">GLFW/glfw3.h</text>
</a>
</g>
</g>
<!-- Node1&#45;&gt;Node12 -->
<g id="edge12_Node000001_Node000012" class="edge">
<title>Node1&#45;&gt;Node12</title>
<g id="a_edge12_Node000001_Node000012"><a xlink:title=" ">
<path fill="none" stroke="#63b8ff" d="M328.91,-179.62C359.5,-169.48 408.48,-153.25 442.7,-141.9"/>
<polygon fill="#63b8ff" stroke="#63b8ff" points="443.42,-145.35 451.81,-138.88 441.21,-138.71 443.42,-145.35"/>
</a>
</g>
</g>
<!-- Node3 -->
<g id="Node000003" class="node">
<title>Node3</title>
<g id="a_Node000003"><a xlink:href="Renderer_8h.html" target="_top" xlink:title=" ">
<polygon fill="white" stroke="#666666" points="129.25,-76 0,-76 0,-56 129.25,-56 129.25,-76"/>
<text xml:space="preserve" text-anchor="middle" x="64.62" y="-62.5" font-family="Helvetica,sans-Serif" font-size="10.00">LGE/rendering/Renderer.h</text>
</a>
</g>
</g>
<!-- Node2&#45;&gt;Node3 -->
<g id="edge2_Node000002_Node000003" class="edge">
<title>Node2&#45;&gt;Node3</title>
<g id="a_edge2_Node000002_Node000003"><a xlink:title=" ">
<path fill="none" stroke="#63b8ff" d="M64.62,-111.55C64.62,-104.34 64.62,-95.66 64.62,-87.88"/>
<polygon fill="#63b8ff" stroke="#63b8ff" points="68.13,-87.92 64.63,-77.92 61.13,-87.92 68.13,-87.92"/>
</a>
</g>
</g>
<!-- Node4 -->
<g id="Node000004" class="node">
<title>Node4</title>
<g id="a_Node000004"><a xlink:title=" ">
<polygon fill="#e0e0e0" stroke="#999999" points="57.25,-20 6,-20 6,0 57.25,0 57.25,-20"/>
<text xml:space="preserve" text-anchor="middle" x="31.62" y="-6.5" font-family="Helvetica,sans-Serif" font-size="10.00">memory</text>
</a>
</g>
</g>
<!-- Node3&#45;&gt;Node4 -->
<g id="edge3_Node000003_Node000004" class="edge">
<title>Node3&#45;&gt;Node4</title>
<g id="a_edge3_Node000003_Node000004"><a xlink:title=" ">
<path fill="none" stroke="#63b8ff" d="M58.88,-55.59C54.57,-48.55 48.53,-38.67 43.24,-30"/>
<polygon fill="#63b8ff" stroke="#63b8ff" points="46.3,-28.3 38.1,-21.59 40.32,-31.95 46.3,-28.3"/>
</a>
</g>
</g>
<!-- Node5 -->
<g id="Node000005" class="node">
<title>Node5</title>
<g id="a_Node000005"><a xlink:title=" ">
<polygon fill="#e0e0e0" stroke="#999999" points="120.25,-20 75,-20 75,0 120.25,0 120.25,-20"/>
<text xml:space="preserve" text-anchor="middle" x="97.62" y="-6.5" font-family="Helvetica,sans-Serif" font-size="10.00">cstdint</text>
</a>
</g>
</g>
<!-- Node3&#45;&gt;Node5 -->
<g id="edge4_Node000003_Node000005" class="edge">
<title>Node3&#45;&gt;Node5</title>
<g id="a_edge4_Node000003_Node000005"><a xlink:title=" ">
<path fill="none" stroke="#63b8ff" d="M70.37,-55.59C74.68,-48.55 80.72,-38.67 86.01,-30"/>
<polygon fill="#63b8ff" stroke="#63b8ff" points="88.93,-31.95 91.15,-21.59 82.95,-28.3 88.93,-31.95"/>
</a>
</g>
</g>
<!-- Node7 -->
<g id="Node000007" class="node">
<title>Node7</title>
<g id="a_Node000007"><a xlink:title=" ">
<polygon fill="#e0e0e0" stroke="#999999" points="269.62,-76 229.62,-76 229.62,-56 269.62,-56 269.62,-76"/>
<text xml:space="preserve" text-anchor="middle" x="249.62" y="-62.5" font-family="Helvetica,sans-Serif" font-size="10.00">string</text>
</a>
</g>
</g>
<!-- Node6&#45;&gt;Node7 -->
<g id="edge6_Node000006_Node000007" class="edge">
<title>Node6&#45;&gt;Node7</title>
<g id="a_edge6_Node000006_Node000007"><a xlink:title=" ">
<path fill="none" stroke="#63b8ff" d="M198.16,-117.62C207.25,-108.68 221.17,-94.99 232.24,-84.1"/>
<polygon fill="#63b8ff" stroke="#63b8ff" points="234.61,-86.68 239.28,-77.17 229.7,-81.69 234.61,-86.68"/>
</a>
</g>
</g>
<!-- Node8 -->
<g id="Node000008" class="node">
<title>Node8</title>
<g id="a_Node000008"><a xlink:title=" ">
<polygon fill="#e0e0e0" stroke="#999999" points="211.62,-76 153.62,-76 153.62,-56 211.62,-56 211.62,-76"/>
<text xml:space="preserve" text-anchor="middle" x="182.62" y="-62.5" font-family="Helvetica,sans-Serif" font-size="10.00">functional</text>
</a>
</g>
</g>
<!-- Node6&#45;&gt;Node8 -->
<g id="edge7_Node000006_Node000008" class="edge">
<title>Node6&#45;&gt;Node8</title>
<g id="a_edge7_Node000006_Node000008"><a xlink:title=" ">
<path fill="none" stroke="#63b8ff" d="M187.69,-117.62C186.88,-109.56 185.69,-97.65 184.67,-87.41"/>
<polygon fill="#63b8ff" stroke="#63b8ff" points="188.16,-87.22 183.69,-77.62 181.2,-87.92 188.16,-87.22"/>
</a>
</g>
</g>
<!-- Node9&#45;&gt;Node7 -->
<g id="edge10_Node000009_Node000007" class="edge">
<title>Node9&#45;&gt;Node7</title>
<g id="a_edge10_Node000009_Node000007"><a xlink:title=" ">
<path fill="none" stroke="#63b8ff" d="M292.66,-117.62C285.2,-108.86 273.88,-95.53 264.71,-84.75"/>
<polygon fill="#63b8ff" stroke="#63b8ff" points="267.49,-82.62 258.35,-77.27 262.16,-87.15 267.49,-82.62"/>
</a>
</g>
</g>
<!-- Node10 -->
<g id="Node000010" class="node">
<title>Node10</title>
<g id="a_Node000010"><a xlink:title=" ">
<polygon fill="#e0e0e0" stroke="#999999" points="341.38,-76 287.88,-76 287.88,-56 341.38,-56 341.38,-76"/>
<text xml:space="preserve" text-anchor="middle" x="314.62" y="-62.5" font-family="Helvetica,sans-Serif" font-size="10.00">iostream</text>
</a>
</g>
</g>
<!-- Node9&#45;&gt;Node10 -->
<g id="edge9_Node000009_Node000010" class="edge">
<title>Node9&#45;&gt;Node10</title>
<g id="a_edge9_Node000009_Node000010"><a xlink:title=" ">
<path fill="none" stroke="#63b8ff" d="M302.81,-117.62C304.71,-109.48 307.53,-97.39 309.94,-87.07"/>
<polygon fill="#63b8ff" stroke="#63b8ff" points="313.29,-88.12 312.15,-77.59 306.47,-86.53 313.29,-88.12"/>
</a>
</g>
</g>
</g>
</svg>
