<?xml version="1.0" encoding="UTF-8" standalone="no"?>
<!DOCTYPE svg PUBLIC "-//W3C//DTD SVG 1.1//EN"
 "http://www.w3.org/Graphics/SVG/1.1/DTD/svg11.dtd">
<!-- Generated by graphviz version 14.0.2 (20251019.1705)
 -->
<!-- Title: Optimization.h Pages: 1 -->
<svg width="574pt" height="196pt"
 viewBox="0.00 0.00 574.00 196.00" xmlns="http://www.w3.org/2000/svg" xmlns:xlink="http://www.w3.org/1999/xlink">
<g id="graph0" class="graph" transform="scale(1 1) rotate(0) translate(4 192)">
<title>Optimization.h</title>
<!-- Node1 -->
<g id="Node000001" class="node">
<title>Node1</title>
<g id="a_Node000001"><a xlink:title=" ">
<polygon fill="#999999" stroke="#666666" points="290.16,-188 211.16,-188 211.16,-168 290.16,-168 290.16,-188"/>
<text xml:space="preserve" text-anchor="middle" x="250.66" y="-174.5" font-family="Helvetica,sans-Serif" font-size="10.00">Optimization.h</text>
</a>
</g>
</g>
<!-- Node2 -->
<g id="Node000002" class="node">
<title>Node2</title>
<g id="a_Node000002"><a xlink:href="AssetRegistry_8h.html" target="_top" xlink:title=" ">
<polygon fill="white" stroke="#666666" points="356.41,-132 236.91,-132 236.91,-112 356.41,-112 356.41,-132"/>
<text xml:space="preserve" text-anchor="middle" x="296.66" y="-118.5" font-family="Helvetica,sans-Serif" font-size="10.00">LGE/fs/AssetRegistry.h</text>
</a>
</g>
</g>
<!-- Node1&#45;&gt;Node2 -->
<g id="edge1_Node000001_Node000002" class="edge">
<title>Node1&#45;&gt;Node2</title>
<g id="a_edge1_Node000001_Node000002"><a xlink:title=" ">
<path fill="none" stroke="#63b8ff" d="M258.67,-167.59C264.94,-160.24 273.83,-149.8 281.44,-140.87"/>
<polygon fill="#63b8ff" stroke="#63b8ff" points="283.94,-143.33 287.76,-133.45 278.61,-138.79 283.94,-143.33"/>
</a>
</g>
</g>
<!-- Node4 -->
<g id="Node000004" class="node">
<title>Node4</title>
<g id="a_Node000004"><a xlink:title=" ">
<polygon fill="#e0e0e0" stroke="#999999" points="478.66,-20 438.66,-20 438.66,0 478.66,0 478.66,-20"/>
<text xml:space="preserve" text-anchor="middle" x="458.66" y="-6.5" font-family="Helvetica,sans-Serif" font-size="10.00">string</text>
</a>
</g>
</g>
<!-- Node1&#45;&gt;Node4 -->
<g id="edge15_Node000001_Node000004" class="edge">
<title>Node1&#45;&gt;Node4</title>
<g id="a_edge15_Node000001_Node000004"><a xlink:title=" ">
<path fill="none" stroke="#63b8ff" d="M290.46,-177.95C343.54,-177.53 438.91,-170.77 508.66,-132 544,-112.36 580.61,-89.95 558.66,-56 543.63,-32.75 513.4,-21.39 490.1,-15.92"/>
<polygon fill="#63b8ff" stroke="#63b8ff" points="490.97,-12.53 480.47,-13.93 489.55,-19.38 490.97,-12.53"/>
</a>
</g>
</g>
<!-- Node5 -->
<g id="Node000005" class="node">
<title>Node5</title>
<g id="a_Node000005"><a xlink:title=" ">
<polygon fill="#e0e0e0" stroke="#999999" points="329.41,-20 263.91,-20 263.91,0 329.41,0 329.41,-20"/>
<text xml:space="preserve" text-anchor="middle" x="296.66" y="-6.5" font-family="Helvetica,sans-Serif" font-size="10.00">string_view</text>
</a>
</g>
</g>
<!-- Node1&#45;&gt;Node5 -->
<g id="edge16_Node000001_Node000005" class="edge">
<title>Node1&#45;&gt;Node5</title>
<g id="a_edge16_Node000001_Node000005"><a xlink:title=" ">
<path fill="none" stroke="#63b8ff" d="M210.91,-168.33C143.38,-151.83 17.93,-112.46 64.66,-56 90.11,-25.25 196.23,-27.84 252.58,-19.83"/>
<polygon fill="#63b8ff" stroke="#63b8ff" points="253.03,-23.3 262.31,-18.19 251.87,-16.4 253.03,-23.3"/>
</a>
</g>
</g>
<!-- Node6 -->
<g id="Node000006" class="node">
<title>Node6</title>
<g id="a_Node000006"><a xlink:title=" ">
<polygon fill="#e0e0e0" stroke="#999999" points="244.16,-20 201.16,-20 201.16,0 244.16,0 244.16,-20"/>
<text xml:space="preserve" text-anchor="middle" x="222.66" y="-6.5" font-family="Helvetica,sans-Serif" font-size="10.00">vector</text>
</a>
</g>
</g>
<!-- Node1&#45;&gt;Node6 -->
<g id="edge17_Node000001_Node000006" class="edge">
<title>Node1&#45;&gt;Node6</title>
<g id="a_edge17_Node000001_Node000006"><a xlink:title=" ">
<path fill="none" stroke="#63b8ff" d="M211,-174.69C154.14,-170.45 53.86,-159.22 31.66,-132 10.31,-105.82 10.54,-82.36 31.66,-56 75.35,-1.46 117.57,-35.03 189.87,-20.31"/>
<polygon fill="#63b8ff" stroke="#63b8ff" points="190.34,-23.79 199.28,-18.11 188.75,-16.97 190.34,-23.79"/>
</a>
</g>
</g>
<!-- Node7 -->
<g id="Node000007" class="node">
<title>Node7</title>
<g id="a_Node000007"><a xlink:title=" ">
<polygon fill="#e0e0e0" stroke="#999999" points="183.53,-20 133.78,-20 133.78,0 183.53,0 183.53,-20"/>
<text xml:space="preserve" text-anchor="middle" x="158.66" y="-6.5" font-family="Helvetica,sans-Serif" font-size="10.00">optional</text>
</a>
</g>
</g>
<!-- Node1&#45;&gt;Node7 -->
<g id="edge19_Node000001_Node000007" class="edge">
<title>Node1&#45;&gt;Node7</title>
<g id="a_edge19_Node000001_Node000007"><a xlink:title=" ">
<path fill="none" stroke="#63b8ff" d="M211.13,-175.31C150.76,-171.82 40.01,-161.46 15.66,-132 -5.86,-105.97 -4.32,-83.23 15.66,-56 39.9,-22.96 88.41,-13.54 122.17,-11.18"/>
<polygon fill="#63b8ff" stroke="#63b8ff" points="122.11,-14.69 131.92,-10.69 121.76,-7.7 122.11,-14.69"/>
</a>
</g>
</g>
<!-- Node8 -->
<g id="Node000008" class="node">
<title>Node8</title>
<g id="a_Node000008"><a xlink:title=" ">
<polygon fill="#e0e0e0" stroke="#999999" points="420.28,-20 375.03,-20 375.03,0 420.28,0 420.28,-20"/>
<text xml:space="preserve" text-anchor="middle" x="397.66" y="-6.5" font-family="Helvetica,sans-Serif" font-size="10.00">cstdint</text>
</a>
</g>
</g>
<!-- Node1&#45;&gt;Node8 -->
<g id="edge20_Node000001_Node000008" class="edge">
<title>Node1&#45;&gt;Node8</title>
<g id="a_edge20_Node000001_Node000008"><a xlink:title=" ">
<path fill="none" stroke="#63b8ff" d="M290.56,-177.02C356.43,-174.59 486.22,-158.93 542.66,-76 547.66,-68.65 547.93,-63.16 542.66,-56 540.95,-53.68 473.85,-33.51 431.54,-20.98"/>
<polygon fill="#63b8ff" stroke="#63b8ff" points="432.63,-17.65 422.05,-18.17 430.64,-24.36 432.63,-17.65"/>
</a>
</g>
</g>
<!-- Node9 -->
<g id="Node000009" class="node">
<title>Node9</title>
<g id="a_Node000009"><a xlink:title=" ">
<polygon fill="#e0e0e0" stroke="#999999" points="156.03,-76 73.28,-76 73.28,-56 156.03,-56 156.03,-76"/>
<text xml:space="preserve" text-anchor="middle" x="114.66" y="-62.5" font-family="Helvetica,sans-Serif" font-size="10.00">unordered_map</text>
</a>
</g>
</g>
<!-- Node1&#45;&gt;Node9 -->
<g id="edge18_Node000001_Node000009" class="edge">
<title>Node1&#45;&gt;Node9</title>
<g id="a_edge18_Node000001_Node000009"><a xlink:title=" ">
<path fill="none" stroke="#63b8ff" d="M239.06,-167.62C215.98,-148.95 164.01,-106.92 135.08,-83.52"/>
<polygon fill="#63b8ff" stroke="#63b8ff" points="137.38,-80.87 127.4,-77.31 132.98,-86.32 137.38,-80.87"/>
</a>
</g>
</g>
<!-- Node10 -->
<g id="Node000010" class="node">
<title>Node10</title>
<g id="a_Node000010"><a xlink:title=" ">
<polygon fill="#e0e0e0" stroke="#999999" points="533.66,-76 475.66,-76 475.66,-56 533.66,-56 533.66,-76"/>
<text xml:space="preserve" text-anchor="middle" x="504.66" y="-62.5" font-family="Helvetica,sans-Serif" font-size="10.00">functional</text>
</a>
</g>
</g>
<!-- Node1&#45;&gt;Node10 -->
<g id="edge21_Node000001_Node000010" class="edge">
<title>Node1&#45;&gt;Node10</title>
<g id="a_edge21_Node000001_Node000010"><a xlink:title=" ">
<path fill="none" stroke="#63b8ff" d="M275.98,-167.63C299.4,-158.83 335.12,-145.1 365.66,-132 403.92,-115.59 447.26,-95 475.22,-81.44"/>
<polygon fill="#63b8ff" stroke="#63b8ff" points="476.68,-84.62 484.14,-77.1 473.61,-78.33 476.68,-84.62"/>
</a>
</g>
</g>
<!-- Node3 -->
<g id="Node000003" class="node">
<title>Node3</title>
<g id="a_Node000003"><a xlink:href="MetaDB_8h.html" target="_top" xlink:title=" ">
<polygon fill="white" stroke="#666666" points="343.66,-76 249.66,-76 249.66,-56 343.66,-56 343.66,-76"/>
<text xml:space="preserve" text-anchor="middle" x="296.66" y="-62.5" font-family="Helvetica,sans-Serif" font-size="10.00">LGE/fs/MetaDB.h</text>
</a>
</g>
</g>
<!-- Node2&#45;&gt;Node3 -->
<g id="edge2_Node000002_Node000003" class="edge">
<title>Node2&#45;&gt;Node3</title>
<g id="a_edge2_Node000002_Node000003"><a xlink:title=" ">
<path fill="none" stroke="#63b8ff" d="M296.66,-111.59C296.66,-105.01 296.66,-95.96 296.66,-87.73"/>
<polygon fill="#63b8ff" stroke="#63b8ff" points="300.16,-87.81 296.66,-77.81 293.16,-87.81 300.16,-87.81"/>
</a>
</g>
</g>
<!-- Node2&#45;&gt;Node4 -->
<g id="edge8_Node000002_Node000004" class="edge">
<title>Node2&#45;&gt;Node4</title>
<g id="a_edge8_Node000002_Node000004"><a xlink:title=" ">
<path fill="none" stroke="#63b8ff" d="M320.77,-111.52C339.98,-103.44 367.11,-90.79 388.66,-76 408.85,-62.14 429.03,-42.64 442.51,-28.63"/>
<polygon fill="#63b8ff" stroke="#63b8ff" points="444.98,-31.1 449.28,-21.42 439.88,-26.31 444.98,-31.1"/>
</a>
</g>
</g>
<!-- Node2&#45;&gt;Node5 -->
<g id="edge9_Node000002_Node000005" class="edge">
<title>Node2&#45;&gt;Node5</title>
<g id="a_edge9_Node000002_Node000005"><a xlink:title=" ">
<path fill="none" stroke="#63b8ff" d="M315.81,-111.52C328.84,-103.9 345.06,-91.86 352.66,-76 361.94,-56.64 343.03,-38.48 324.72,-26.31"/>
<polygon fill="#63b8ff" stroke="#63b8ff" points="326.71,-23.42 316.37,-21.14 323.03,-29.38 326.71,-23.42"/>
</a>
</g>
</g>
<!-- Node2&#45;&gt;Node6 -->
<g id="edge10_Node000002_Node000006" class="edge">
<title>Node2&#45;&gt;Node6</title>
<g id="a_edge10_Node000002_Node000006"><a xlink:title=" ">
<path fill="none" stroke="#63b8ff" d="M280.07,-111.64C267.48,-103.71 250.67,-91.21 240.66,-76 231.79,-62.52 227.25,-44.72 224.95,-31.15"/>
<polygon fill="#63b8ff" stroke="#63b8ff" points="228.47,-31.05 223.62,-21.63 221.54,-32.02 228.47,-31.05"/>
</a>
</g>
</g>
<!-- Node2&#45;&gt;Node7 -->
<g id="edge12_Node000002_Node000007" class="edge">
<title>Node2&#45;&gt;Node7</title>
<g id="a_edge12_Node000002_Node000007"><a xlink:title=" ">
<path fill="none" stroke="#63b8ff" d="M280.49,-111.58C266.14,-102.96 244.86,-89.53 227.66,-76 208.78,-61.14 188.99,-42.08 175.47,-28.45"/>
<polygon fill="#63b8ff" stroke="#63b8ff" points="178.12,-26.16 168.62,-21.46 173.12,-31.06 178.12,-26.16"/>
</a>
</g>
</g>
<!-- Node2&#45;&gt;Node8 -->
<g id="edge14_Node000002_Node000008" class="edge">
<title>Node2&#45;&gt;Node8</title>
<g id="a_edge14_Node000002_Node000008"><a xlink:title=" ">
<path fill="none" stroke="#63b8ff" d="M317.91,-111.61C333.37,-103.9 353.91,-91.7 367.66,-76 379.06,-62.98 386.93,-44.9 391.74,-31.11"/>
<polygon fill="#63b8ff" stroke="#63b8ff" points="395.02,-32.37 394.73,-21.78 388.35,-30.23 395.02,-32.37"/>
</a>
</g>
</g>
<!-- Node2&#45;&gt;Node9 -->
<g id="edge11_Node000002_Node000009" class="edge">
<title>Node2&#45;&gt;Node9</title>
<g id="a_edge11_Node000002_Node000009"><a xlink:title=" ">
<path fill="none" stroke="#63b8ff" d="M264.96,-111.59C235.13,-102.74 190.24,-89.43 157.29,-79.65"/>
<polygon fill="#63b8ff" stroke="#63b8ff" points="158.64,-76.4 148.06,-76.91 156.65,-83.11 158.64,-76.4"/>
</a>
</g>
</g>
<!-- Node2&#45;&gt;Node10 -->
<g id="edge13_Node000002_Node000010" class="edge">
<title>Node2&#45;&gt;Node10</title>
<g id="a_edge13_Node000002_Node000010"><a xlink:title=" ">
<path fill="none" stroke="#63b8ff" d="M332.89,-111.59C369.65,-102.05 426.42,-87.31 464.52,-77.42"/>
<polygon fill="#63b8ff" stroke="#63b8ff" points="464.96,-80.92 473.76,-75.02 463.2,-74.15 464.96,-80.92"/>
</a>
</g>
</g>
<!-- Node3&#45;&gt;Node4 -->
<g id="edge3_Node000003_Node000004" class="edge">
<title>Node3&#45;&gt;Node4</title>
<g id="a_edge3_Node000003_Node000004"><a xlink:title=" ">
<path fill="none" stroke="#63b8ff" d="M324.88,-55.59C353.66,-46 398.18,-31.16 427.85,-21.27"/>
<polygon fill="#63b8ff" stroke="#63b8ff" points="428.62,-24.7 437,-18.22 426.41,-18.06 428.62,-24.7"/>
</a>
</g>
</g>
<!-- Node3&#45;&gt;Node5 -->
<g id="edge4_Node000003_Node000005" class="edge">
<title>Node3&#45;&gt;Node5</title>
<g id="a_edge4_Node000003_Node000005"><a xlink:title=" ">
<path fill="none" stroke="#63b8ff" d="M296.66,-55.59C296.66,-49.01 296.66,-39.96 296.66,-31.73"/>
<polygon fill="#63b8ff" stroke="#63b8ff" points="300.16,-31.81 296.66,-21.81 293.16,-31.81 300.16,-31.81"/>
</a>
</g>
</g>
<!-- Node3&#45;&gt;Node6 -->
<g id="edge5_Node000003_Node000006" class="edge">
<title>Node3&#45;&gt;Node6</title>
<g id="a_edge5_Node000003_Node000006"><a xlink:title=" ">
<path fill="none" stroke="#63b8ff" d="M283.77,-55.59C272.95,-47.7 257.25,-36.24 244.47,-26.92"/>
<polygon fill="#63b8ff" stroke="#63b8ff" points="246.77,-24.26 236.62,-21.19 242.64,-29.91 246.77,-24.26"/>
</a>
</g>
</g>
<!-- Node3&#45;&gt;Node7 -->
<g id="edge6_Node000003_Node000007" class="edge">
<title>Node3&#45;&gt;Node7</title>
<g id="a_edge6_Node000003_Node000007"><a xlink:title=" ">
<path fill="none" stroke="#63b8ff" d="M272.62,-55.59C250.69,-47.01 218.03,-34.23 193.29,-24.55"/>
<polygon fill="#63b8ff" stroke="#63b8ff" points="194.88,-21.42 184.29,-21.03 192.33,-27.93 194.88,-21.42"/>
</a>
</g>
</g>
<!-- Node3&#45;&gt;Node8 -->
<g id="edge7_Node000003_Node000008" class="edge">
<title>Node3&#45;&gt;Node8</title>
<g id="a_edge7_Node000003_Node000008"><a xlink:title=" ">
<path fill="none" stroke="#63b8ff" d="M314.25,-55.59C329.58,-47.4 352.08,-35.37 369.85,-25.87"/>
<polygon fill="#63b8ff" stroke="#63b8ff" points="371.43,-28.99 378.59,-21.19 368.13,-22.82 371.43,-28.99"/>
</a>
</g>
</g>
</g>
</svg>
