<?xml version="1.0" encoding="UTF-8" standalone="no"?>
<!DOCTYPE svg PUBLIC "-//W3C//DTD SVG 1.1//EN"
 "http://www.w3.org/Graphics/SVG/1.1/DTD/svg11.dtd">
<!-- Generated by graphviz version 14.0.2 (20251019.1705)
 -->
<!-- Title: Optimization.cpp Pages: 1 -->
<svg width="1408pt" height="252pt"
 viewBox="0.00 0.00 1408.00 252.00" xmlns="http://www.w3.org/2000/svg" xmlns:xlink="http://www.w3.org/1999/xlink">
<g id="graph0" class="graph" transform="scale(1 1) rotate(0) translate(4 248)">
<title>Optimization.cpp</title>
<!-- Node1 -->
<g id="Node000001" class="node">
<title>Node1</title>
<g id="a_Node000001"><a xlink:title=" ">
<polygon fill="#999999" stroke="#666666" points="1049.27,-244 959.77,-244 959.77,-224 1049.27,-224 1049.27,-244"/>
<text xml:space="preserve" text-anchor="middle" x="1004.52" y="-230.5" font-family="Helvetica,sans-Serif" font-size="10.00">Optimization.cpp</text>
</a>
</g>
</g>
<!-- Node2 -->
<g id="Node000002" class="node">
<title>Node2</title>
<g id="a_Node000002"><a xlink:href="Optimization_8h.html" target="_top" xlink:title=" ">
<polygon fill="white" stroke="#666666" points="363.9,-188 251.15,-188 251.15,-168 363.9,-168 363.9,-188"/>
<text xml:space="preserve" text-anchor="middle" x="307.52" y="-174.5" font-family="Helvetica,sans-Serif" font-size="10.00">LGE/fs/Optimization.h</text>
</a>
</g>
</g>
<!-- Node1&#45;&gt;Node2 -->
<g id="edge1_Node000001_Node000002" class="edge">
<title>Node1&#45;&gt;Node2</title>
<g id="a_edge1_Node000001_Node000002"><a xlink:title=" ">
<path fill="none" stroke="#63b8ff" d="M959.33,-229.5C840.15,-220.27 516.84,-195.22 375.35,-184.26"/>
<polygon fill="#63b8ff" stroke="#63b8ff" points="376.02,-180.8 365.78,-183.51 375.48,-187.78 376.02,-180.8"/>
</a>
</g>
</g>
<!-- Node3 -->
<g id="Node000003" class="node">
<title>Node3</title>
<g id="a_Node000003"><a xlink:href="AssetRegistry_8h.html" target="_top" xlink:title=" ">
<polygon fill="white" stroke="#666666" points="543.27,-132 423.77,-132 423.77,-112 543.27,-112 543.27,-132"/>
<text xml:space="preserve" text-anchor="middle" x="483.52" y="-118.5" font-family="Helvetica,sans-Serif" font-size="10.00">LGE/fs/AssetRegistry.h</text>
</a>
</g>
</g>
<!-- Node1&#45;&gt;Node3 -->
<g id="edge23_Node000001_Node000003" class="edge">
<title>Node1&#45;&gt;Node3</title>
<g id="a_edge23_Node000001_Node000003"><a xlink:title=" ">
<path fill="none" stroke="#63b8ff" d="M959.55,-230.66C866.59,-225.4 656.28,-211.29 588.52,-188 556.46,-176.98 523.95,-154.78 503.77,-139.41"/>
<polygon fill="#63b8ff" stroke="#63b8ff" points="506.14,-136.82 496.11,-133.42 501.83,-142.33 506.14,-136.82"/>
</a>
</g>
</g>
<!-- Node12 -->
<g id="Node000012" class="node">
<title>Node12</title>
<g id="a_Node000012"><a xlink:href="FileIO_8h.html" target="_top" xlink:title=" ">
<polygon fill="white" stroke="#666666" points="987.65,-76 903.4,-76 903.4,-56 987.65,-56 987.65,-76"/>
<text xml:space="preserve" text-anchor="middle" x="945.52" y="-62.5" font-family="Helvetica,sans-Serif" font-size="10.00">LGE/fs/FileIO.h</text>
</a>
</g>
</g>
<!-- Node1&#45;&gt;Node12 -->
<g id="edge24_Node000001_Node000012" class="edge">
<title>Node1&#45;&gt;Node12</title>
<g id="a_edge24_Node000001_Node000012"><a xlink:title=" ">
<path fill="none" stroke="#63b8ff" d="M1001.18,-223.6C991.85,-197.35 965.37,-122.84 952.59,-86.89"/>
<polygon fill="#63b8ff" stroke="#63b8ff" points="955.98,-85.97 949.33,-77.72 949.38,-88.32 955.98,-85.97"/>
</a>
</g>
</g>
<!-- Node13 -->
<g id="Node000013" class="node">
<title>Node13</title>
<g id="a_Node000013"><a xlink:href="Path_8h.html" target="_top" xlink:title=" ">
<polygon fill="white" stroke="#666666" points="1083.65,-76 1005.4,-76 1005.4,-56 1083.65,-56 1083.65,-76"/>
<text xml:space="preserve" text-anchor="middle" x="1044.52" y="-62.5" font-family="Helvetica,sans-Serif" font-size="10.00">LGE/fs/Path.h</text>
</a>
</g>
</g>
<!-- Node1&#45;&gt;Node13 -->
<g id="edge27_Node000001_Node000013" class="edge">
<title>Node1&#45;&gt;Node13</title>
<g id="a_edge27_Node000001_Node000013"><a xlink:title=" ">
<path fill="none" stroke="#63b8ff" d="M1006.79,-223.6C1013.08,-197.46 1030.91,-123.48 1039.62,-87.36"/>
<polygon fill="#63b8ff" stroke="#63b8ff" points="1042.99,-88.31 1041.93,-77.77 1036.18,-86.67 1042.99,-88.31"/>
</a>
</g>
</g>
<!-- Node14 -->
<g id="Node000014" class="node">
<title>Node14</title>
<g id="a_Node000014"><a xlink:href="Compression_8h.html" target="_top" xlink:title=" ">
<polygon fill="white" stroke="#666666" points="938.4,-132 822.65,-132 822.65,-112 938.4,-112 938.4,-132"/>
<text xml:space="preserve" text-anchor="middle" x="880.52" y="-118.5" font-family="Helvetica,sans-Serif" font-size="10.00">LGE/fs/Compression.h</text>
</a>
</g>
</g>
<!-- Node1&#45;&gt;Node14 -->
<g id="edge30_Node000001_Node000014" class="edge">
<title>Node1&#45;&gt;Node14</title>
<g id="a_edge30_Node000001_Node000014"><a xlink:title=" ">
<path fill="none" stroke="#63b8ff" d="M993.71,-223.76C983.15,-214.71 966.65,-200.49 952.52,-188 934.13,-171.74 913.34,-152.93 898.85,-139.74"/>
<polygon fill="#63b8ff" stroke="#63b8ff" points="901.58,-137.49 891.83,-133.34 896.87,-142.67 901.58,-137.49"/>
</a>
</g>
</g>
<!-- Node15 -->
<g id="Node000015" class="node">
<title>Node15</title>
<g id="a_Node000015"><a xlink:href="Validation_8h.html" target="_top" xlink:title=" ">
<polygon fill="white" stroke="#666666" points="697.52,-188 597.52,-188 597.52,-168 697.52,-168 697.52,-188"/>
<text xml:space="preserve" text-anchor="middle" x="647.52" y="-174.5" font-family="Helvetica,sans-Serif" font-size="10.00">LGE/fs/Validation.h</text>
</a>
</g>
</g>
<!-- Node1&#45;&gt;Node15 -->
<g id="edge37_Node000001_Node000015" class="edge">
<title>Node1&#45;&gt;Node15</title>
<g id="a_edge37_Node000001_Node000015"><a xlink:title=" ">
<path fill="none" stroke="#63b8ff" d="M959.31,-226.16C895.82,-216.56 780.05,-199.05 708.85,-188.28"/>
<polygon fill="#63b8ff" stroke="#63b8ff" points="709.73,-184.87 699.32,-186.83 708.68,-191.79 709.73,-184.87"/>
</a>
</g>
</g>
<!-- Node16 -->
<g id="Node000016" class="node">
<title>Node16</title>
<g id="a_Node000016"><a xlink:href="Log_8h.html" target="_top" xlink:title=" ">
<polygon fill="white" stroke="#666666" points="1116.65,-188 1032.4,-188 1032.4,-168 1116.65,-168 1116.65,-188"/>
<text xml:space="preserve" text-anchor="middle" x="1074.52" y="-174.5" font-family="Helvetica,sans-Serif" font-size="10.00">LGE/core/Log.h</text>
</a>
</g>
</g>
<!-- Node1&#45;&gt;Node16 -->
<g id="edge44_Node000001_Node000016" class="edge">
<title>Node1&#45;&gt;Node16</title>
<g id="a_edge44_Node000001_Node000016"><a xlink:title=" ">
<path fill="none" stroke="#63b8ff" d="M1016.71,-223.59C1026.85,-215.77 1041.51,-204.46 1053.53,-195.19"/>
<polygon fill="#63b8ff" stroke="#63b8ff" points="1055.49,-198.1 1061.27,-189.22 1051.21,-192.56 1055.49,-198.1"/>
</a>
</g>
</g>
<!-- Node18 -->
<g id="Node000018" class="node">
<title>Node18</title>
<g id="a_Node000018"><a xlink:title=" ">
<polygon fill="#e0e0e0" stroke="#999999" points="1196.02,-188 1135.02,-188 1135.02,-168 1196.02,-168 1196.02,-188"/>
<text xml:space="preserve" text-anchor="middle" x="1165.52" y="-174.5" font-family="Helvetica,sans-Serif" font-size="10.00">filesystem</text>
</a>
</g>
</g>
<!-- Node1&#45;&gt;Node18 -->
<g id="edge47_Node000001_Node000018" class="edge">
<title>Node1&#45;&gt;Node18</title>
<g id="a_edge47_Node000001_Node000018"><a xlink:title=" ">
<path fill="none" stroke="#63b8ff" d="M1032.57,-223.59C1058.61,-214.86 1097.63,-201.77 1126.67,-192.03"/>
<polygon fill="#63b8ff" stroke="#63b8ff" points="1127.46,-195.46 1135.82,-188.96 1125.23,-188.82 1127.46,-195.46"/>
</a>
</g>
</g>
<!-- Node19 -->
<g id="Node000019" class="node">
<title>Node19</title>
<g id="a_Node000019"><a xlink:title=" ">
<polygon fill="#e0e0e0" stroke="#999999" points="1263.02,-188 1214.02,-188 1214.02,-168 1263.02,-168 1263.02,-188"/>
<text xml:space="preserve" text-anchor="middle" x="1238.52" y="-174.5" font-family="Helvetica,sans-Serif" font-size="10.00">fstream</text>
</a>
</g>
</g>
<!-- Node1&#45;&gt;Node19 -->
<g id="edge48_Node000001_Node000019" class="edge">
<title>Node1&#45;&gt;Node19</title>
<g id="a_edge48_Node000001_Node000019"><a xlink:title=" ">
<path fill="none" stroke="#63b8ff" d="M1049.37,-223.58C1087.8,-215.37 1144.89,-202.84 1202.86,-188.59"/>
<polygon fill="#63b8ff" stroke="#63b8ff" points="1203.35,-192.07 1212.22,-186.27 1201.67,-185.27 1203.35,-192.07"/>
</a>
</g>
</g>
<!-- Node20 -->
<g id="Node000020" class="node">
<title>Node20</title>
<g id="a_Node000020"><a xlink:title=" ">
<polygon fill="#e0e0e0" stroke="#999999" points="1336.4,-188 1280.65,-188 1280.65,-168 1336.4,-168 1336.4,-188"/>
<text xml:space="preserve" text-anchor="middle" x="1308.52" y="-174.5" font-family="Helvetica,sans-Serif" font-size="10.00">algorithm</text>
</a>
</g>
</g>
<!-- Node1&#45;&gt;Node20 -->
<g id="edge49_Node000001_Node000020" class="edge">
<title>Node1&#45;&gt;Node20</title>
<g id="a_edge49_Node000001_Node000020"><a xlink:title=" ">
<path fill="none" stroke="#63b8ff" d="M1049.3,-226.58C1100.38,-219.02 1186.65,-205.51 1269.18,-188.59"/>
<polygon fill="#63b8ff" stroke="#63b8ff" points="1269.71,-192.05 1278.79,-186.59 1268.29,-185.2 1269.71,-192.05"/>
</a>
</g>
</g>
<!-- Node21 -->
<g id="Node000021" class="node">
<title>Node21</title>
<g id="a_Node000021"><a xlink:title=" ">
<polygon fill="#e0e0e0" stroke="#999999" points="1400.15,-188 1354.9,-188 1354.9,-168 1400.15,-168 1400.15,-188"/>
<text xml:space="preserve" text-anchor="middle" x="1377.52" y="-174.5" font-family="Helvetica,sans-Serif" font-size="10.00">chrono</text>
</a>
</g>
</g>
<!-- Node1&#45;&gt;Node21 -->
<g id="edge50_Node000001_Node000021" class="edge">
<title>Node1&#45;&gt;Node21</title>
<g id="a_edge50_Node000001_Node000021"><a xlink:title=" ">
<path fill="none" stroke="#63b8ff" d="M1049.55,-229.13C1113.01,-223.22 1232.51,-210.44 1343.49,-188.14"/>
<polygon fill="#63b8ff" stroke="#63b8ff" points="1343.97,-191.62 1353.06,-186.19 1342.56,-184.76 1343.97,-191.62"/>
</a>
</g>
</g>
<!-- Node2&#45;&gt;Node3 -->
<g id="edge2_Node000002_Node000003" class="edge">
<title>Node2&#45;&gt;Node3</title>
<g id="a_edge2_Node000002_Node000003"><a xlink:title=" ">
<path fill="none" stroke="#63b8ff" d="M338.18,-167.59C366.9,-158.78 410.05,-145.54 441.88,-135.78"/>
<polygon fill="#63b8ff" stroke="#63b8ff" points="442.64,-139.2 451.18,-132.92 440.59,-132.51 442.64,-139.2"/>
</a>
</g>
</g>
<!-- Node5 -->
<g id="Node000005" class="node">
<title>Node5</title>
<g id="a_Node000005"><a xlink:title=" ">
<polygon fill="#e0e0e0" stroke="#999999" points="1097.52,-20 1057.52,-20 1057.52,0 1097.52,0 1097.52,-20"/>
<text xml:space="preserve" text-anchor="middle" x="1077.52" y="-6.5" font-family="Helvetica,sans-Serif" font-size="10.00">string</text>
</a>
</g>
</g>
<!-- Node2&#45;&gt;Node5 -->
<g id="edge16_Node000002_Node000005" class="edge">
<title>Node2&#45;&gt;Node5</title>
<g id="a_edge16_Node000002_Node000005"><a xlink:title=" ">
<path fill="none" stroke="#63b8ff" d="M364.21,-174.92C499.22,-169.67 836.75,-154.63 947.52,-132 1022.16,-116.75 1065.32,-138.05 1109.52,-76 1120.18,-61.04 1108.27,-42 1096.07,-28.4"/>
<polygon fill="#63b8ff" stroke="#63b8ff" points="1098.77,-26.17 1089.3,-21.43 1093.75,-31.04 1098.77,-26.17"/>
</a>
</g>
</g>
<!-- Node6 -->
<g id="Node000006" class="node">
<title>Node6</title>
<g id="a_Node000006"><a xlink:title=" ">
<polygon fill="#e0e0e0" stroke="#999999" points="832.27,-20 766.77,-20 766.77,0 832.27,0 832.27,-20"/>
<text xml:space="preserve" text-anchor="middle" x="799.52" y="-6.5" font-family="Helvetica,sans-Serif" font-size="10.00">string_view</text>
</a>
</g>
</g>
<!-- Node2&#45;&gt;Node6 -->
<g id="edge17_Node000002_Node000006" class="edge">
<title>Node2&#45;&gt;Node6</title>
<g id="a_edge17_Node000002_Node000006"><a xlink:title=" ">
<path fill="none" stroke="#63b8ff" d="M364.04,-170.98C414.4,-164.61 489.62,-152.54 552.52,-132 606.94,-114.23 617.1,-101.17 668.52,-76 703.8,-58.73 744.27,-38.6 770.78,-25.37"/>
<polygon fill="#63b8ff" stroke="#63b8ff" points="772.16,-28.6 779.54,-21 769.03,-22.33 772.16,-28.6"/>
</a>
</g>
</g>
<!-- Node7 -->
<g id="Node000007" class="node">
<title>Node7</title>
<g id="a_Node000007"><a xlink:title=" ">
<polygon fill="#e0e0e0" stroke="#999999" points="594.02,-20 551.02,-20 551.02,0 594.02,0 594.02,-20"/>
<text xml:space="preserve" text-anchor="middle" x="572.52" y="-6.5" font-family="Helvetica,sans-Serif" font-size="10.00">vector</text>
</a>
</g>
</g>
<!-- Node2&#45;&gt;Node7 -->
<g id="edge18_Node000002_Node000007" class="edge">
<title>Node2&#45;&gt;Node7</title>
<g id="a_edge18_Node000002_Node000007"><a xlink:title=" ">
<path fill="none" stroke="#63b8ff" d="M322.43,-167.54C354.67,-147.08 433.32,-97.27 499.52,-56 515.48,-46.05 533.47,-34.96 547.59,-26.28"/>
<polygon fill="#63b8ff" stroke="#63b8ff" points="549.13,-29.44 555.82,-21.23 545.47,-23.48 549.13,-29.44"/>
</a>
</g>
</g>
<!-- Node8 -->
<g id="Node000008" class="node">
<title>Node8</title>
<g id="a_Node000008"><a xlink:title=" ">
<polygon fill="#e0e0e0" stroke="#999999" points="294.4,-20 244.65,-20 244.65,0 294.4,0 294.4,-20"/>
<text xml:space="preserve" text-anchor="middle" x="269.52" y="-6.5" font-family="Helvetica,sans-Serif" font-size="10.00">optional</text>
</a>
</g>
</g>
<!-- Node2&#45;&gt;Node8 -->
<g id="edge20_Node000002_Node000008" class="edge">
<title>Node2&#45;&gt;Node8</title>
<g id="a_edge20_Node000002_Node000008"><a xlink:title=" ">
<path fill="none" stroke="#63b8ff" d="M250.75,-172.62C183.21,-166.53 75.31,-153.71 41.52,-132 16.22,-115.74 12.36,-104.75 3.52,-76 0.91,-67.5 -2.22,-62.79 3.52,-56 32.48,-21.73 167.06,-13.55 232.96,-11.6"/>
<polygon fill="#63b8ff" stroke="#63b8ff" points="233.01,-15.1 242.92,-11.35 232.83,-8.11 233.01,-15.1"/>
</a>
</g>
</g>
<!-- Node9 -->
<g id="Node000009" class="node">
<title>Node9</title>
<g id="a_Node000009"><a xlink:title=" ">
<polygon fill="#e0e0e0" stroke="#999999" points="406.15,-20 360.9,-20 360.9,0 406.15,0 406.15,-20"/>
<text xml:space="preserve" text-anchor="middle" x="383.52" y="-6.5" font-family="Helvetica,sans-Serif" font-size="10.00">cstdint</text>
</a>
</g>
</g>
<!-- Node2&#45;&gt;Node9 -->
<g id="edge21_Node000002_Node000009" class="edge">
<title>Node2&#45;&gt;Node9</title>
<g id="a_edge21_Node000002_Node000009"><a xlink:title=" ">
<path fill="none" stroke="#63b8ff" d="M250.97,-168.96C165.6,-154.57 19.36,-119.78 74.52,-56 83.48,-45.64 270.92,-23.59 349.42,-14.76"/>
<polygon fill="#63b8ff" stroke="#63b8ff" points="349.55,-18.27 359.1,-13.68 348.77,-11.31 349.55,-18.27"/>
</a>
</g>
</g>
<!-- Node10 -->
<g id="Node000010" class="node">
<title>Node10</title>
<g id="a_Node000010"><a xlink:title=" ">
<polygon fill="#e0e0e0" stroke="#999999" points="241.9,-76 159.15,-76 159.15,-56 241.9,-56 241.9,-76"/>
<text xml:space="preserve" text-anchor="middle" x="200.52" y="-62.5" font-family="Helvetica,sans-Serif" font-size="10.00">unordered_map</text>
</a>
</g>
</g>
<!-- Node2&#45;&gt;Node10 -->
<g id="edge19_Node000002_Node000010" class="edge">
<title>Node2&#45;&gt;Node10</title>
<g id="a_edge19_Node000002_Node000010"><a xlink:title=" ">
<path fill="none" stroke="#63b8ff" d="M298.4,-167.62C280.47,-149.19 240.41,-108.01 217.49,-84.44"/>
<polygon fill="#63b8ff" stroke="#63b8ff" points="220.16,-82.17 210.68,-77.44 215.14,-87.05 220.16,-82.17"/>
</a>
</g>
</g>
<!-- Node11 -->
<g id="Node000011" class="node">
<title>Node11</title>
<g id="a_Node000011"><a xlink:title=" ">
<polygon fill="#e0e0e0" stroke="#999999" points="141.52,-76 83.52,-76 83.52,-56 141.52,-56 141.52,-76"/>
<text xml:space="preserve" text-anchor="middle" x="112.52" y="-62.5" font-family="Helvetica,sans-Serif" font-size="10.00">functional</text>
</a>
</g>
</g>
<!-- Node2&#45;&gt;Node11 -->
<g id="edge22_Node000002_Node000011" class="edge">
<title>Node2&#45;&gt;Node11</title>
<g id="a_edge22_Node000002_Node000011"><a xlink:title=" ">
<path fill="none" stroke="#63b8ff" d="M290.9,-167.62C257,-148.5 179.7,-104.89 138.88,-81.87"/>
<polygon fill="#63b8ff" stroke="#63b8ff" points="140.85,-78.96 130.42,-77.1 137.41,-85.06 140.85,-78.96"/>
</a>
</g>
</g>
<!-- Node4 -->
<g id="Node000004" class="node">
<title>Node4</title>
<g id="a_Node000004"><a xlink:href="MetaDB_8h.html" target="_top" xlink:title=" ">
<polygon fill="white" stroke="#666666" points="619.52,-76 525.52,-76 525.52,-56 619.52,-56 619.52,-76"/>
<text xml:space="preserve" text-anchor="middle" x="572.52" y="-62.5" font-family="Helvetica,sans-Serif" font-size="10.00">LGE/fs/MetaDB.h</text>
</a>
</g>
</g>
<!-- Node3&#45;&gt;Node4 -->
<g id="edge3_Node000003_Node000004" class="edge">
<title>Node3&#45;&gt;Node4</title>
<g id="a_edge3_Node000003_Node000004"><a xlink:title=" ">
<path fill="none" stroke="#63b8ff" d="M499.02,-111.59C512.34,-103.51 531.8,-91.71 547.35,-82.27"/>
<polygon fill="#63b8ff" stroke="#63b8ff" points="548.87,-85.44 555.6,-77.26 545.24,-79.46 548.87,-85.44"/>
</a>
</g>
</g>
<!-- Node3&#45;&gt;Node5 -->
<g id="edge9_Node000003_Node000005" class="edge">
<title>Node3&#45;&gt;Node5</title>
<g id="a_edge9_Node000003_Node000005"><a xlink:title=" ">
<path fill="none" stroke="#63b8ff" d="M534.68,-111.53C654.22,-89.39 949.06,-34.79 1046.04,-16.83"/>
<polygon fill="#63b8ff" stroke="#63b8ff" points="1046.43,-20.32 1055.62,-15.05 1045.15,-13.43 1046.43,-20.32"/>
</a>
</g>
</g>
<!-- Node3&#45;&gt;Node6 -->
<g id="edge10_Node000003_Node000006" class="edge">
<title>Node3&#45;&gt;Node6</title>
<g id="a_edge10_Node000003_Node000006"><a xlink:title=" ">
<path fill="none" stroke="#63b8ff" d="M515.96,-111.56C545.47,-102.83 590.15,-89.23 628.52,-76 676.61,-59.42 731.46,-38.14 765.79,-24.53"/>
<polygon fill="#63b8ff" stroke="#63b8ff" points="766.77,-27.91 774.77,-20.96 764.19,-21.41 766.77,-27.91"/>
</a>
</g>
</g>
<!-- Node3&#45;&gt;Node7 -->
<g id="edge11_Node000003_Node000007" class="edge">
<title>Node3&#45;&gt;Node7</title>
<g id="a_edge11_Node000003_Node000007"><a xlink:title=" ">
<path fill="none" stroke="#63b8ff" d="M486.72,-111.89C491.68,-98.64 502.16,-73.69 516.52,-56 525.55,-44.88 537.75,-34.68 548.45,-26.81"/>
<polygon fill="#63b8ff" stroke="#63b8ff" points="550.33,-29.77 556.5,-21.16 546.3,-24.05 550.33,-29.77"/>
</a>
</g>
</g>
<!-- Node3&#45;&gt;Node8 -->
<g id="edge13_Node000003_Node000008" class="edge">
<title>Node3&#45;&gt;Node8</title>
<g id="a_edge13_Node000003_Node000008"><a xlink:title=" ">
<path fill="none" stroke="#63b8ff" d="M450.39,-111.55C425.02,-103.69 389.58,-91.33 360.52,-76 334.44,-62.24 307.28,-41.93 289.5,-27.68"/>
<polygon fill="#63b8ff" stroke="#63b8ff" points="291.78,-25.03 281.82,-21.43 287.36,-30.46 291.78,-25.03"/>
</a>
</g>
</g>
<!-- Node3&#45;&gt;Node9 -->
<g id="edge15_Node000003_Node000009" class="edge">
<title>Node3&#45;&gt;Node9</title>
<g id="a_edge15_Node000003_Node000009"><a xlink:title=" ">
<path fill="none" stroke="#63b8ff" d="M423.54,-111.5C402.91,-105.05 381.91,-94.21 369.52,-76 360.3,-62.44 365.62,-43.92 372.18,-30.12"/>
<polygon fill="#63b8ff" stroke="#63b8ff" points="375.12,-32.05 376.75,-21.58 368.95,-28.75 375.12,-32.05"/>
</a>
</g>
</g>
<!-- Node3&#45;&gt;Node10 -->
<g id="edge12_Node000003_Node000010" class="edge">
<title>Node3&#45;&gt;Node10</title>
<g id="a_edge12_Node000003_Node000010"><a xlink:title=" ">
<path fill="none" stroke="#63b8ff" d="M433.9,-111.53C383.35,-101.89 305.24,-86.98 253.51,-77.11"/>
<polygon fill="#63b8ff" stroke="#63b8ff" points="254.21,-73.68 243.73,-75.25 252.9,-80.56 254.21,-73.68"/>
</a>
</g>
</g>
<!-- Node3&#45;&gt;Node11 -->
<g id="edge14_Node000003_Node000011" class="edge">
<title>Node3&#45;&gt;Node11</title>
<g id="a_edge14_Node000003_Node000011"><a xlink:title=" ">
<path fill="none" stroke="#63b8ff" d="M423.38,-114.67C358.9,-107.49 253.28,-94.56 153.15,-76.34"/>
<polygon fill="#63b8ff" stroke="#63b8ff" points="153.88,-72.91 143.41,-74.54 152.61,-79.79 153.88,-72.91"/>
</a>
</g>
</g>
<!-- Node4&#45;&gt;Node5 -->
<g id="edge4_Node000004_Node000005" class="edge">
<title>Node4&#45;&gt;Node5</title>
<g id="a_edge4_Node000004_Node000005"><a xlink:title=" ">
<path fill="none" stroke="#63b8ff" d="M619.58,-59.97C721.32,-49.09 959.53,-23.62 1045.7,-14.4"/>
<polygon fill="#63b8ff" stroke="#63b8ff" points="1045.97,-17.89 1055.54,-13.35 1045.23,-10.93 1045.97,-17.89"/>
</a>
</g>
</g>
<!-- Node4&#45;&gt;Node6 -->
<g id="edge5_Node000004_Node000006" class="edge">
<title>Node4&#45;&gt;Node6</title>
<g id="a_edge5_Node000004_Node000006"><a xlink:title=" ">
<path fill="none" stroke="#63b8ff" d="M612.32,-55.53C652.3,-46.02 713.78,-31.4 755.27,-21.53"/>
<polygon fill="#63b8ff" stroke="#63b8ff" points="756.02,-24.95 764.94,-19.23 754.4,-18.14 756.02,-24.95"/>
</a>
</g>
</g>
<!-- Node4&#45;&gt;Node7 -->
<g id="edge6_Node000004_Node000007" class="edge">
<title>Node4&#45;&gt;Node7</title>
<g id="a_edge6_Node000004_Node000007"><a xlink:title=" ">
<path fill="none" stroke="#63b8ff" d="M572.52,-55.59C572.52,-49.01 572.52,-39.96 572.52,-31.73"/>
<polygon fill="#63b8ff" stroke="#63b8ff" points="576.02,-31.81 572.52,-21.81 569.02,-31.81 576.02,-31.81"/>
</a>
</g>
</g>
<!-- Node4&#45;&gt;Node8 -->
<g id="edge7_Node000004_Node000008" class="edge">
<title>Node4&#45;&gt;Node8</title>
<g id="a_edge7_Node000004_Node000008"><a xlink:title=" ">
<path fill="none" stroke="#63b8ff" d="M525.18,-56.56C464.55,-45.76 360.78,-27.26 305.95,-17.49"/>
<polygon fill="#63b8ff" stroke="#63b8ff" points="306.65,-14.06 296.19,-15.75 305.43,-20.95 306.65,-14.06"/>
</a>
</g>
</g>
<!-- Node4&#45;&gt;Node9 -->
<g id="edge8_Node000004_Node000009" class="edge">
<title>Node4&#45;&gt;Node9</title>
<g id="a_edge8_Node000004_Node000009"><a xlink:title=" ">
<path fill="none" stroke="#63b8ff" d="M539.6,-55.59C505.39,-45.82 452.12,-30.6 417.52,-20.71"/>
<polygon fill="#63b8ff" stroke="#63b8ff" points="418.59,-17.38 408.01,-18 416.66,-24.11 418.59,-17.38"/>
</a>
</g>
</g>
<!-- Node12&#45;&gt;Node5 -->
<g id="edge25_Node000012_Node000005" class="edge">
<title>Node12&#45;&gt;Node5</title>
<g id="a_edge25_Node000012_Node000005"><a xlink:title=" ">
<path fill="none" stroke="#63b8ff" d="M968.51,-55.59C990.19,-46.72 1022.84,-33.37 1046.76,-23.59"/>
<polygon fill="#63b8ff" stroke="#63b8ff" points="1048.05,-26.84 1055.98,-19.81 1045.4,-20.36 1048.05,-26.84"/>
</a>
</g>
</g>
<!-- Node12&#45;&gt;Node6 -->
<g id="edge26_Node000012_Node000006" class="edge">
<title>Node12&#45;&gt;Node6</title>
<g id="a_edge26_Node000012_Node000006"><a xlink:title=" ">
<path fill="none" stroke="#63b8ff" d="M920.09,-55.59C896.79,-46.97 862.02,-34.12 835.81,-24.42"/>
<polygon fill="#63b8ff" stroke="#63b8ff" points="837.16,-21.19 826.57,-21 834.74,-27.76 837.16,-21.19"/>
</a>
</g>
</g>
<!-- Node13&#45;&gt;Node5 -->
<g id="edge28_Node000013_Node000005" class="edge">
<title>Node13&#45;&gt;Node5</title>
<g id="a_edge28_Node000013_Node000005"><a xlink:title=" ">
<path fill="none" stroke="#63b8ff" d="M1050.27,-55.59C1054.58,-48.55 1060.61,-38.67 1065.91,-30"/>
<polygon fill="#63b8ff" stroke="#63b8ff" points="1068.82,-31.95 1071.05,-21.59 1062.85,-28.3 1068.82,-31.95"/>
</a>
</g>
</g>
<!-- Node13&#45;&gt;Node6 -->
<g id="edge29_Node000013_Node000006" class="edge">
<title>Node13&#45;&gt;Node6</title>
<g id="a_edge29_Node000013_Node000006"><a xlink:title=" ">
<path fill="none" stroke="#63b8ff" d="M1005.16,-56.32C961.01,-46.59 889.6,-30.85 843.61,-20.72"/>
<polygon fill="#63b8ff" stroke="#63b8ff" points="844.5,-17.33 833.98,-18.6 842.99,-24.17 844.5,-17.33"/>
</a>
</g>
</g>
<!-- Node14&#45;&gt;Node5 -->
<g id="edge32_Node000014_Node000005" class="edge">
<title>Node14&#45;&gt;Node5</title>
<g id="a_edge32_Node000014_Node000005"><a xlink:title=" ">
<path fill="none" stroke="#63b8ff" d="M938.82,-116.71C994.77,-111.23 1073.49,-99.5 1092.52,-76 1103.09,-62.95 1096.87,-43.82 1089.49,-29.69"/>
<polygon fill="#63b8ff" stroke="#63b8ff" points="1092.7,-28.24 1084.64,-21.36 1086.65,-31.76 1092.7,-28.24"/>
</a>
</g>
</g>
<!-- Node14&#45;&gt;Node6 -->
<g id="edge33_Node000014_Node000006" class="edge">
<title>Node14&#45;&gt;Node6</title>
<g id="a_edge33_Node000014_Node000006"><a xlink:title=" ">
<path fill="none" stroke="#63b8ff" d="M873.62,-111.62C860.23,-93.44 830.52,-53.09 813.06,-29.38"/>
<polygon fill="#63b8ff" stroke="#63b8ff" points="816.06,-27.55 807.31,-21.57 810.42,-31.7 816.06,-27.55"/>
</a>
</g>
</g>
<!-- Node14&#45;&gt;Node7 -->
<g id="edge34_Node000014_Node000007" class="edge">
<title>Node14&#45;&gt;Node7</title>
<g id="a_edge34_Node000014_Node000007"><a xlink:title=" ">
<path fill="none" stroke="#63b8ff" d="M853.99,-111.53C797.67,-91.41 666.31,-44.49 605.05,-22.62"/>
<polygon fill="#63b8ff" stroke="#63b8ff" points="606.48,-19.41 595.89,-19.34 604.13,-26 606.48,-19.41"/>
</a>
</g>
</g>
<!-- Node14&#45;&gt;Node8 -->
<g id="edge35_Node000014_Node000008" class="edge">
<title>Node14&#45;&gt;Node8</title>
<g id="a_edge35_Node000014_Node000008"><a xlink:title=" ">
<path fill="none" stroke="#63b8ff" d="M822.21,-118.68C741,-114.54 589.61,-103.59 463.52,-76 405.73,-63.35 341.01,-39.65 302.85,-24.63"/>
<polygon fill="#63b8ff" stroke="#63b8ff" points="304.35,-21.46 293.77,-21.01 301.76,-27.96 304.35,-21.46"/>
</a>
</g>
</g>
<!-- Node14&#45;&gt;Node9 -->
<g id="edge36_Node000014_Node000009" class="edge">
<title>Node14&#45;&gt;Node9</title>
<g id="a_edge36_Node000014_Node000009"><a xlink:title=" ">
<path fill="none" stroke="#63b8ff" d="M822.26,-119.71C749.36,-116.76 621.36,-107.15 516.52,-76 476.68,-64.16 434.1,-41.34 408.14,-26.14"/>
<polygon fill="#63b8ff" stroke="#63b8ff" points="410.09,-23.23 399.71,-21.11 406.51,-29.24 410.09,-23.23"/>
</a>
</g>
</g>
<!-- Node14&#45;&gt;Node12 -->
<g id="edge31_Node000014_Node000012" class="edge">
<title>Node14&#45;&gt;Node12</title>
<g id="a_edge31_Node000014_Node000012"><a xlink:title=" ">
<path fill="none" stroke="#63b8ff" d="M891.84,-111.59C901.16,-103.85 914.6,-92.69 925.7,-83.47"/>
<polygon fill="#63b8ff" stroke="#63b8ff" points="927.71,-86.35 933.16,-77.27 923.24,-80.96 927.71,-86.35"/>
</a>
</g>
</g>
<!-- Node15&#45;&gt;Node3 -->
<g id="edge38_Node000015_Node000003" class="edge">
<title>Node15&#45;&gt;Node3</title>
<g id="a_edge38_Node000015_Node000003"><a xlink:title=" ">
<path fill="none" stroke="#63b8ff" d="M618.95,-167.59C592.43,-158.86 552.68,-145.77 523.1,-136.03"/>
<polygon fill="#63b8ff" stroke="#63b8ff" points="524.34,-132.76 513.75,-132.95 522.15,-139.4 524.34,-132.76"/>
</a>
</g>
</g>
<!-- Node15&#45;&gt;Node5 -->
<g id="edge39_Node000015_Node000005" class="edge">
<title>Node15&#45;&gt;Node5</title>
<g id="a_edge39_Node000015_Node000005"><a xlink:title=" ">
<path fill="none" stroke="#63b8ff" d="M698,-176.38C821.75,-174.35 1132.46,-165.89 1163.52,-132 1186.34,-107.1 1181.01,-84.9 1163.52,-56 1151.63,-36.36 1128.03,-24.88 1108.56,-18.43"/>
<polygon fill="#63b8ff" stroke="#63b8ff" points="1109.73,-15.13 1099.14,-15.63 1107.73,-21.84 1109.73,-15.13"/>
</a>
</g>
</g>
<!-- Node15&#45;&gt;Node6 -->
<g id="edge40_Node000015_Node000006" class="edge">
<title>Node15&#45;&gt;Node6</title>
<g id="a_edge40_Node000015_Node000006"><a xlink:title=" ">
<path fill="none" stroke="#63b8ff" d="M664.94,-167.53C692.18,-151.88 744.91,-118.14 775.52,-76 785.26,-62.59 791.47,-44.78 795.13,-31.19"/>
<polygon fill="#63b8ff" stroke="#63b8ff" points="798.49,-32.17 797.44,-21.62 791.69,-30.52 798.49,-32.17"/>
</a>
</g>
</g>
<!-- Node15&#45;&gt;Node7 -->
<g id="edge41_Node000015_Node000007" class="edge">
<title>Node15&#45;&gt;Node7</title>
<g id="a_edge41_Node000015_Node000007"><a xlink:title=" ">
<path fill="none" stroke="#63b8ff" d="M648.23,-167.77C649.44,-146.49 649.94,-92.99 628.52,-56 621.63,-44.1 610.29,-34.1 599.61,-26.58"/>
<polygon fill="#63b8ff" stroke="#63b8ff" points="601.68,-23.75 591.4,-21.21 597.85,-29.61 601.68,-23.75"/>
</a>
</g>
</g>
<!-- Node15&#45;&gt;Node8 -->
<g id="edge42_Node000015_Node000008" class="edge">
<title>Node15&#45;&gt;Node8</title>
<g id="a_edge42_Node000015_Node000008"><a xlink:title=" ">
<path fill="none" stroke="#63b8ff" d="M597.21,-176.04C470.07,-172.45 141.24,-155.51 74.52,-76 30.05,-23.01 164.76,-13 232.77,-11.26"/>
<polygon fill="#63b8ff" stroke="#63b8ff" points="232.81,-14.76 242.73,-11.06 232.67,-7.76 232.81,-14.76"/>
</a>
</g>
</g>
<!-- Node15&#45;&gt;Node9 -->
<g id="edge43_Node000015_Node000009" class="edge">
<title>Node15&#45;&gt;Node9</title>
<g id="a_edge43_Node000015_Node000009"><a xlink:title=" ">
<path fill="none" stroke="#63b8ff" d="M635.76,-167.71C618.31,-154.23 584.22,-129 552.52,-112 514.92,-91.84 500.26,-97.69 463.52,-76 440.33,-62.31 416.77,-42.26 401.28,-28.05"/>
<polygon fill="#63b8ff" stroke="#63b8ff" points="403.95,-25.76 394.26,-21.49 399.17,-30.88 403.95,-25.76"/>
</a>
</g>
</g>
<!-- Node16&#45;&gt;Node5 -->
<g id="edge46_Node000016_Node000005" class="edge">
<title>Node16&#45;&gt;Node5</title>
<g id="a_edge46_Node000016_Node000005"><a xlink:title=" ">
<path fill="none" stroke="#63b8ff" d="M1116.93,-167.53C1149.81,-159.23 1191.43,-146.28 1201.52,-132 1221.01,-104.41 1220.91,-83.66 1201.52,-56 1180.73,-26.33 1138.28,-16.15 1108.88,-12.69"/>
<polygon fill="#63b8ff" stroke="#63b8ff" points="1109.36,-9.22 1099.07,-11.76 1108.69,-16.19 1109.36,-9.22"/>
</a>
</g>
</g>
<!-- Node17 -->
<g id="Node000017" class="node">
<title>Node17</title>
<g id="a_Node000017"><a xlink:title=" ">
<polygon fill="#e0e0e0" stroke="#999999" points="1307.27,-132 1253.77,-132 1253.77,-112 1307.27,-112 1307.27,-132"/>
<text xml:space="preserve" text-anchor="middle" x="1280.52" y="-118.5" font-family="Helvetica,sans-Serif" font-size="10.00">iostream</text>
</a>
</g>
</g>
<!-- Node16&#45;&gt;Node17 -->
<g id="edge45_Node000016_Node000017" class="edge">
<title>Node16&#45;&gt;Node17</title>
<g id="a_edge45_Node000016_Node000017"><a xlink:title=" ">
<path fill="none" stroke="#63b8ff" d="M1110.4,-167.59C1147.39,-157.9 1204.81,-142.85 1242.54,-132.96"/>
<polygon fill="#63b8ff" stroke="#63b8ff" points="1243.33,-136.37 1252.11,-130.45 1241.55,-129.6 1243.33,-136.37"/>
</a>
</g>
</g>
</g>
</svg>
