<?xml version="1.0" encoding="UTF-8" standalone="no"?>
<!DOCTYPE svg PUBLIC "-//W3C//DTD SVG 1.1//EN"
 "http://www.w3.org/Graphics/SVG/1.1/DTD/svg11.dtd">
<!-- Generated by graphviz version 14.0.2 (20251019.1705)
 -->
<!-- Title: Path.h Pages: 1 -->
<svg width="132pt" height="84pt"
 viewBox="0.00 0.00 132.00 84.00" xmlns="http://www.w3.org/2000/svg" xmlns:xlink="http://www.w3.org/1999/xlink">
<g id="graph0" class="graph" transform="scale(1 1) rotate(0) translate(4 80)">
<title>Path.h</title>
<!-- Node1 -->
<g id="Node000001" class="node">
<title>Node1</title>
<g id="a_Node000001"><a xlink:title=" ">
<polygon fill="#999999" stroke="#666666" points="77.25,-76 32.75,-76 32.75,-56 77.25,-56 77.25,-76"/>
<text xml:space="preserve" text-anchor="middle" x="55" y="-62.5" font-family="Helvetica,sans-Serif" font-size="10.00">Path.h</text>
</a>
</g>
</g>
<!-- Node2 -->
<g id="Node000002" class="node">
<title>Node2</title>
<g id="a_Node000002"><a xlink:title=" ">
<polygon fill="#e0e0e0" stroke="#999999" points="40,-20 0,-20 0,0 40,0 40,-20"/>
<text xml:space="preserve" text-anchor="middle" x="20" y="-6.5" font-family="Helvetica,sans-Serif" font-size="10.00">string</text>
</a>
</g>
</g>
<!-- Node1&#45;&gt;Node2 -->
<g id="edge1_Node000001_Node000002" class="edge">
<title>Node1&#45;&gt;Node2</title>
<g id="a_edge1_Node000001_Node000002"><a xlink:title=" ">
<path fill="none" stroke="#63b8ff" d="M48.9,-55.59C44.29,-48.47 37.79,-38.45 32.13,-29.72"/>
<polygon fill="#63b8ff" stroke="#63b8ff" points="35.23,-28.06 26.85,-21.57 29.35,-31.86 35.23,-28.06"/>
</a>
</g>
</g>
<!-- Node3 -->
<g id="Node000003" class="node">
<title>Node3</title>
<g id="a_Node000003"><a xlink:title=" ">
<polygon fill="#e0e0e0" stroke="#999999" points="123.75,-20 58.25,-20 58.25,0 123.75,0 123.75,-20"/>
<text xml:space="preserve" text-anchor="middle" x="91" y="-6.5" font-family="Helvetica,sans-Serif" font-size="10.00">string_view</text>
</a>
</g>
</g>
<!-- Node1&#45;&gt;Node3 -->
<g id="edge2_Node000001_Node000003" class="edge">
<title>Node1&#45;&gt;Node3</title>
<g id="a_edge2_Node000001_Node000003"><a xlink:title=" ">
<path fill="none" stroke="#63b8ff" d="M61.27,-55.59C66.02,-48.47 72.7,-38.45 78.52,-29.72"/>
<polygon fill="#63b8ff" stroke="#63b8ff" points="81.33,-31.82 83.96,-21.56 75.5,-27.94 81.33,-31.82"/>
</a>
</g>
</g>
</g>
</svg>
