<?xml version="1.0" encoding="UTF-8" standalone="no"?>
<!DOCTYPE svg PUBLIC "-//W3C//DTD SVG 1.1//EN"
 "http://www.w3.org/Graphics/SVG/1.1/DTD/svg11.dtd">
<!-- Generated by graphviz version 14.0.2 (20251019.1705)
 -->
<!-- Title: Path.h Pages: 1 -->
<svg width="2667pt" height="140pt"
 viewBox="0.00 0.00 2667.00 140.00" xmlns="http://www.w3.org/2000/svg" xmlns:xlink="http://www.w3.org/1999/xlink">
<g id="graph0" class="graph" transform="scale(1 1) rotate(0) translate(4 136)">
<title>Path.h</title>
<!-- Node1 -->
<g id="Node000001" class="node">
<title>Node1</title>
<g id="a_Node000001"><a xlink:title=" ">
<polygon fill="#999999" stroke="#666666" points="1266.88,-132 1222.38,-132 1222.38,-112 1266.88,-112 1266.88,-132"/>
<text xml:space="preserve" text-anchor="middle" x="1244.62" y="-118.5" font-family="Helvetica,sans-Serif" font-size="10.00">Path.h</text>
</a>
</g>
</g>
<!-- Node2 -->
<g id="Node000002" class="node">
<title>Node2</title>
<g id="a_Node000002"><a xlink:href="Analytics_8cpp.html" target="_top" xlink:title=" ">
<polygon fill="white" stroke="#666666" points="75.25,-76 0,-76 0,-56 75.25,-56 75.25,-76"/>
<text xml:space="preserve" text-anchor="middle" x="37.62" y="-62.5" font-family="Helvetica,sans-Serif" font-size="10.00">Analytics.cpp</text>
</a>
</g>
</g>
<!-- Node1&#45;&gt;Node2 -->
<g id="edge1_Node000001_Node000002" class="edge">
<title>Node1&#45;&gt;Node2</title>
<g id="a_edge1_Node000001_Node000002"><a xlink:title=" ">
<path fill="none" stroke="#63b8ff" d="M1210.64,-120.37C1043.88,-117.19 311.22,-101.94 84.62,-76 81.65,-75.66 78.59,-75.24 75.51,-74.76"/>
<polygon fill="#63b8ff" stroke="#63b8ff" points="1210.5,-123.87 1220.56,-120.56 1210.63,-116.87 1210.5,-123.87"/>
</a>
</g>
</g>
<!-- Node3 -->
<g id="Node000003" class="node">
<title>Node3</title>
<g id="a_Node000003"><a xlink:href="AssetRegistry_8cpp.html" target="_top" xlink:title=" ">
<polygon fill="white" stroke="#666666" points="189.75,-76 93.5,-76 93.5,-56 189.75,-56 189.75,-76"/>
<text xml:space="preserve" text-anchor="middle" x="141.62" y="-62.5" font-family="Helvetica,sans-Serif" font-size="10.00">AssetRegistry.cpp</text>
</a>
</g>
</g>
<!-- Node1&#45;&gt;Node3 -->
<g id="edge2_Node000001_Node000003" class="edge">
<title>Node1&#45;&gt;Node3</title>
<g id="a_edge2_Node000001_Node000003"><a xlink:title=" ">
<path fill="none" stroke="#63b8ff" d="M1210.93,-120.94C1080.38,-120.41 595.43,-115.73 198.62,-76 195.83,-75.72 192.97,-75.39 190.09,-75.04"/>
<polygon fill="#63b8ff" stroke="#63b8ff" points="1210.58,-124.44 1220.59,-120.97 1210.61,-117.44 1210.58,-124.44"/>
</a>
</g>
</g>
<!-- Node4 -->
<g id="Node000004" class="node">
<title>Node4</title>
<g id="a_Node000004"><a xlink:href="Backup_8cpp.html" target="_top" xlink:title=" ">
<polygon fill="white" stroke="#666666" points="275.5,-76 207.75,-76 207.75,-56 275.5,-56 275.5,-76"/>
<text xml:space="preserve" text-anchor="middle" x="241.62" y="-62.5" font-family="Helvetica,sans-Serif" font-size="10.00">Backup.cpp</text>
</a>
</g>
</g>
<!-- Node1&#45;&gt;Node4 -->
<g id="edge3_Node000001_Node000004" class="edge">
<title>Node1&#45;&gt;Node4</title>
<g id="a_edge3_Node000001_Node000004"><a xlink:title=" ">
<path fill="none" stroke="#63b8ff" d="M1210.87,-121.36C1086.88,-122.26 645.03,-121.87 284.62,-76 281.75,-75.63 278.78,-75.18 275.81,-74.67"/>
<polygon fill="#63b8ff" stroke="#63b8ff" points="1210.7,-124.86 1220.67,-121.28 1210.64,-117.86 1210.7,-124.86"/>
</a>
</g>
</g>
<!-- Node5 -->
<g id="Node000005" class="node">
<title>Node5</title>
<g id="a_Node000005"><a xlink:href="BenchmarkFS_8cpp.html" target="_top" xlink:title=" ">
<polygon fill="white" stroke="#666666" points="390.12,-76 293.12,-76 293.12,-56 390.12,-56 390.12,-76"/>
<text xml:space="preserve" text-anchor="middle" x="341.62" y="-62.5" font-family="Helvetica,sans-Serif" font-size="10.00">BenchmarkFS.cpp</text>
</a>
</g>
</g>
<!-- Node1&#45;&gt;Node5 -->
<g id="edge4_Node000001_Node000005" class="edge">
<title>Node1&#45;&gt;Node5</title>
<g id="a_edge4_Node000001_Node000005"><a xlink:title=" ">
<path fill="none" stroke="#63b8ff" d="M1210.59,-120.42C1095.98,-118.19 713.67,-108.64 399.62,-76 396.58,-75.68 393.46,-75.32 390.31,-74.92"/>
<polygon fill="#63b8ff" stroke="#63b8ff" points="1210.46,-123.92 1220.52,-120.6 1210.59,-116.92 1210.46,-123.92"/>
</a>
</g>
</g>
<!-- Node6 -->
<g id="Node000006" class="node">
<title>Node6</title>
<g id="a_Node000006"><a xlink:href="Bundles_8cpp.html" target="_top" xlink:title=" ">
<polygon fill="white" stroke="#666666" points="478.62,-76 408.62,-76 408.62,-56 478.62,-56 478.62,-76"/>
<text xml:space="preserve" text-anchor="middle" x="443.62" y="-62.5" font-family="Helvetica,sans-Serif" font-size="10.00">Bundles.cpp</text>
</a>
</g>
</g>
<!-- Node1&#45;&gt;Node6 -->
<g id="edge5_Node000001_Node000006" class="edge">
<title>Node1&#45;&gt;Node6</title>
<g id="a_edge5_Node000001_Node000006"><a xlink:title=" ">
<path fill="none" stroke="#63b8ff" d="M1210.6,-120.7C1103.67,-119.39 765.09,-112.44 487.62,-76 484.84,-75.63 481.97,-75.19 479.09,-74.71"/>
<polygon fill="#63b8ff" stroke="#63b8ff" points="1210.36,-124.2 1220.4,-120.81 1210.44,-117.2 1210.36,-124.2"/>
</a>
</g>
</g>
<!-- Node7 -->
<g id="Node000007" class="node">
<title>Node7</title>
<g id="a_Node000007"><a xlink:href="Cache_8cpp.html" target="_top" xlink:title=" ">
<polygon fill="white" stroke="#666666" points="560.25,-76 497,-76 497,-56 560.25,-56 560.25,-76"/>
<text xml:space="preserve" text-anchor="middle" x="528.62" y="-62.5" font-family="Helvetica,sans-Serif" font-size="10.00">Cache.cpp</text>
</a>
</g>
</g>
<!-- Node1&#45;&gt;Node7 -->
<g id="edge6_Node000001_Node000007" class="edge">
<title>Node1&#45;&gt;Node7</title>
<g id="a_edge6_Node000001_Node000007"><a xlink:title=" ">
<path fill="none" stroke="#63b8ff" d="M1210.71,-120.53C1111.57,-118.77 813.8,-110.74 569.62,-76 566.59,-75.57 563.46,-75.04 560.32,-74.45"/>
<polygon fill="#63b8ff" stroke="#63b8ff" points="1210.5,-124.02 1220.55,-120.69 1210.61,-117.03 1210.5,-124.02"/>
</a>
</g>
</g>
<!-- Node8 -->
<g id="Node000008" class="node">
<title>Node8</title>
<g id="a_Node000008"><a xlink:href="Compression_8cpp.html" target="_top" xlink:title=" ">
<polygon fill="white" stroke="#666666" points="670.88,-76 578.38,-76 578.38,-56 670.88,-56 670.88,-76"/>
<text xml:space="preserve" text-anchor="middle" x="624.62" y="-62.5" font-family="Helvetica,sans-Serif" font-size="10.00">Compression.cpp</text>
</a>
</g>
</g>
<!-- Node1&#45;&gt;Node8 -->
<g id="edge7_Node000001_Node000008" class="edge">
<title>Node1&#45;&gt;Node8</title>
<g id="a_edge7_Node000001_Node000008"><a xlink:title=" ">
<path fill="none" stroke="#63b8ff" d="M1210.59,-119.08C1123.11,-113.98 883.36,-98.86 684.62,-76 680.23,-75.49 675.66,-74.91 671.1,-74.29"/>
<polygon fill="#63b8ff" stroke="#63b8ff" points="1210.2,-122.57 1220.39,-119.65 1210.61,-115.58 1210.2,-122.57"/>
</a>
</g>
</g>
<!-- Node9 -->
<g id="Node000009" class="node">
<title>Node9</title>
<g id="a_Node000009"><a xlink:href="ContentBrowser_8cpp.html" target="_top" xlink:title=" ">
<polygon fill="white" stroke="#666666" points="727.25,-20 622,-20 622,0 727.25,0 727.25,-20"/>
<text xml:space="preserve" text-anchor="middle" x="674.62" y="-6.5" font-family="Helvetica,sans-Serif" font-size="10.00">ContentBrowser.cpp</text>
</a>
</g>
</g>
<!-- Node1&#45;&gt;Node9 -->
<g id="edge8_Node000001_Node000009" class="edge">
<title>Node1&#45;&gt;Node9</title>
<g id="a_edge8_Node000001_Node000009"><a xlink:title=" ">
<path fill="none" stroke="#63b8ff" d="M1210.55,-119.78C1100.76,-115.62 760.96,-100.84 718.62,-76 696.76,-63.17 683.44,-34.67 677.79,-20.05"/>
<polygon fill="#63b8ff" stroke="#63b8ff" points="1210.26,-123.27 1220.39,-120.15 1210.52,-116.28 1210.26,-123.27"/>
</a>
</g>
</g>
<!-- Node10 -->
<g id="Node000010" class="node">
<title>Node10</title>
<g id="a_Node000010"><a xlink:href="Dependencies_8cpp.html" target="_top" xlink:title=" ">
<polygon fill="white" stroke="#666666" points="974.12,-76 877.12,-76 877.12,-56 974.12,-56 974.12,-76"/>
<text xml:space="preserve" text-anchor="middle" x="925.62" y="-62.5" font-family="Helvetica,sans-Serif" font-size="10.00">Dependencies.cpp</text>
</a>
</g>
</g>
<!-- Node1&#45;&gt;Node10 -->
<g id="edge9_Node000001_Node000010" class="edge">
<title>Node1&#45;&gt;Node10</title>
<g id="a_edge9_Node000001_Node000010"><a xlink:title=" ">
<path fill="none" stroke="#63b8ff" d="M1210.75,-115.27C1154.04,-105.67 1039.67,-86.31 974.33,-75.25"/>
<polygon fill="#63b8ff" stroke="#63b8ff" points="1210,-118.69 1220.45,-116.91 1211.17,-111.79 1210,-118.69"/>
</a>
</g>
</g>
<!-- Node11 -->
<g id="Node000011" class="node">
<title>Node11</title>
<g id="a_Node000011"><a xlink:href="FSOps_8cpp.html" target="_top" xlink:title=" ">
<polygon fill="white" stroke="#666666" points="810.38,-20 744.88,-20 744.88,0 810.38,0 810.38,-20"/>
<text xml:space="preserve" text-anchor="middle" x="777.62" y="-6.5" font-family="Helvetica,sans-Serif" font-size="10.00">FSOps.cpp</text>
</a>
</g>
</g>
<!-- Node1&#45;&gt;Node11 -->
<g id="edge10_Node000001_Node000011" class="edge">
<title>Node1&#45;&gt;Node11</title>
<g id="a_edge10_Node000001_Node000011"><a xlink:title=" ">
<path fill="none" stroke="#63b8ff" d="M1210.5,-119.47C1128.23,-115.41 921.05,-102.74 857.62,-76 827.28,-63.21 799.23,-35.22 785.85,-20.5"/>
<polygon fill="#63b8ff" stroke="#63b8ff" points="1210.26,-122.97 1220.41,-119.95 1210.59,-115.97 1210.26,-122.97"/>
</a>
</g>
</g>
<!-- Node12 -->
<g id="Node000012" class="node">
<title>Node12</title>
<g id="a_Node000012"><a xlink:href="FSOps_8h.html" target="_top" xlink:title=" ">
<polygon fill="white" stroke="#666666" points="782.12,-76 727.12,-76 727.12,-56 782.12,-56 782.12,-76"/>
<text xml:space="preserve" text-anchor="middle" x="754.62" y="-62.5" font-family="Helvetica,sans-Serif" font-size="10.00">FSOps.h</text>
</a>
</g>
</g>
<!-- Node1&#45;&gt;Node12 -->
<g id="edge11_Node000001_Node000012" class="edge">
<title>Node1&#45;&gt;Node12</title>
<g id="a_edge11_Node000001_Node000012"><a xlink:title=" ">
<path fill="none" stroke="#63b8ff" d="M1210.66,-118.88C1135.63,-113.92 950.24,-100.1 796.62,-76 792.06,-75.28 787.24,-74.39 782.56,-73.44"/>
<polygon fill="#63b8ff" stroke="#63b8ff" points="1210.42,-122.37 1220.63,-119.53 1210.88,-115.39 1210.42,-122.37"/>
</a>
</g>
</g>
<!-- Node13 -->
<g id="Node000013" class="node">
<title>Node13</title>
<g id="a_Node000013"><a xlink:href="ImportExport_8cpp.html" target="_top" xlink:title=" ">
<polygon fill="white" stroke="#666666" points="919.12,-20 828.12,-20 828.12,0 919.12,0 919.12,-20"/>
<text xml:space="preserve" text-anchor="middle" x="873.62" y="-6.5" font-family="Helvetica,sans-Serif" font-size="10.00">ImportExport.cpp</text>
</a>
</g>
</g>
<!-- Node1&#45;&gt;Node13 -->
<g id="edge17_Node000001_Node000013" class="edge">
<title>Node1&#45;&gt;Node13</title>
<g id="a_edge17_Node000001_Node000013"><a xlink:title=" ">
<path fill="none" stroke="#63b8ff" d="M1210.46,-119.45C1122.07,-115.1 891.16,-101.39 868.62,-76 854.95,-60.59 863.25,-34.24 869.19,-20.29"/>
<polygon fill="#63b8ff" stroke="#63b8ff" points="1210.28,-122.95 1220.44,-119.93 1210.62,-115.96 1210.28,-122.95"/>
</a>
</g>
</g>
<!-- Node14 -->
<g id="Node000014" class="node">
<title>Node14</title>
<g id="a_Node000014"><a xlink:href="FSWatch_8cpp.html" target="_top" xlink:title=" ">
<polygon fill="white" stroke="#666666" points="1067.25,-76 992,-76 992,-56 1067.25,-56 1067.25,-76"/>
<text xml:space="preserve" text-anchor="middle" x="1029.62" y="-62.5" font-family="Helvetica,sans-Serif" font-size="10.00">FSWatch.cpp</text>
</a>
</g>
</g>
<!-- Node1&#45;&gt;Node14 -->
<g id="edge15_Node000001_Node000014" class="edge">
<title>Node1&#45;&gt;Node14</title>
<g id="a_edge15_Node000001_Node000014"><a xlink:title=" ">
<path fill="none" stroke="#63b8ff" d="M1211.28,-112.62C1172.35,-102.85 1108.1,-86.71 1067.37,-76.48"/>
<polygon fill="#63b8ff" stroke="#63b8ff" points="1210,-115.91 1220.55,-114.95 1211.71,-109.12 1210,-115.91"/>
</a>
</g>
</g>
<!-- Node15 -->
<g id="Node000015" class="node">
<title>Node15</title>
<g id="a_Node000015"><a xlink:href="FileIO_8cpp.html" target="_top" xlink:title=" ">
<polygon fill="white" stroke="#666666" points="1146.12,-76 1085.12,-76 1085.12,-56 1146.12,-56 1146.12,-76"/>
<text xml:space="preserve" text-anchor="middle" x="1115.62" y="-62.5" font-family="Helvetica,sans-Serif" font-size="10.00">FileIO.cpp</text>
</a>
</g>
</g>
<!-- Node1&#45;&gt;Node15 -->
<g id="edge16_Node000001_Node000015" class="edge">
<title>Node1&#45;&gt;Node15</title>
<g id="a_edge16_Node000001_Node000015"><a xlink:title=" ">
<path fill="none" stroke="#63b8ff" d="M1211.83,-107.27C1188.82,-97.64 1158.64,-85.01 1138.27,-76.48"/>
<polygon fill="#63b8ff" stroke="#63b8ff" points="1210.18,-110.38 1220.76,-111.01 1212.89,-103.92 1210.18,-110.38"/>
</a>
</g>
</g>
<!-- Node16 -->
<g id="Node000016" class="node">
<title>Node16</title>
<g id="a_Node000016"><a xlink:href="MetaDB_8cpp.html" target="_top" xlink:title=" ">
<polygon fill="white" stroke="#666666" points="1235,-76 1164.25,-76 1164.25,-56 1235,-56 1235,-76"/>
<text xml:space="preserve" text-anchor="middle" x="1199.62" y="-62.5" font-family="Helvetica,sans-Serif" font-size="10.00">MetaDB.cpp</text>
</a>
</g>
</g>
<!-- Node1&#45;&gt;Node16 -->
<g id="edge18_Node000001_Node000016" class="edge">
<title>Node1&#45;&gt;Node16</title>
<g id="a_edge18_Node000001_Node000016"><a xlink:title=" ">
<path fill="none" stroke="#63b8ff" d="M1229.63,-103C1222.17,-94.06 1213.48,-83.62 1207.37,-76.3"/>
<polygon fill="#63b8ff" stroke="#63b8ff" points="1226.73,-104.99 1235.82,-110.43 1232.1,-100.51 1226.73,-104.99"/>
</a>
</g>
</g>
<!-- Node17 -->
<g id="Node000017" class="node">
<title>Node17</title>
<g id="a_Node000017"><a xlink:href="Migration_8cpp.html" target="_top" xlink:title=" ">
<polygon fill="white" stroke="#666666" points="1327.88,-76 1253.38,-76 1253.38,-56 1327.88,-56 1327.88,-76"/>
<text xml:space="preserve" text-anchor="middle" x="1290.62" y="-62.5" font-family="Helvetica,sans-Serif" font-size="10.00">Migration.cpp</text>
</a>
</g>
</g>
<!-- Node1&#45;&gt;Node17 -->
<g id="edge19_Node000001_Node000017" class="edge">
<title>Node1&#45;&gt;Node17</title>
<g id="a_edge19_Node000001_Node000017"><a xlink:title=" ">
<path fill="none" stroke="#63b8ff" d="M1259.96,-103C1267.58,-94.06 1276.46,-83.62 1282.7,-76.3"/>
<polygon fill="#63b8ff" stroke="#63b8ff" points="1257.44,-100.56 1253.62,-110.44 1262.77,-105.1 1257.44,-100.56"/>
</a>
</g>
</g>
<!-- Node18 -->
<g id="Node000018" class="node">
<title>Node18</title>
<g id="a_Node000018"><a xlink:href="Optimization_8cpp.html" target="_top" xlink:title=" ">
<polygon fill="white" stroke="#666666" points="1435.38,-76 1345.88,-76 1345.88,-56 1435.38,-56 1435.38,-76"/>
<text xml:space="preserve" text-anchor="middle" x="1390.62" y="-62.5" font-family="Helvetica,sans-Serif" font-size="10.00">Optimization.cpp</text>
</a>
</g>
</g>
<!-- Node1&#45;&gt;Node18 -->
<g id="edge20_Node000001_Node000018" class="edge">
<title>Node1&#45;&gt;Node18</title>
<g id="a_edge20_Node000001_Node000018"><a xlink:title=" ">
<path fill="none" stroke="#63b8ff" d="M1277.8,-108.73C1304.31,-98.93 1340.92,-85.38 1365.16,-76.42"/>
<polygon fill="#63b8ff" stroke="#63b8ff" points="1276.7,-105.4 1268.54,-112.16 1279.13,-111.97 1276.7,-105.4"/>
</a>
</g>
</g>
<!-- Node19 -->
<g id="Node000019" class="node">
<title>Node19</title>
<g id="a_Node000019"><a xlink:href="fs_2PackageManager_8cpp.html" target="_top" xlink:title=" ">
<polygon fill="white" stroke="#666666" points="1563.88,-76 1453.38,-76 1453.38,-56 1563.88,-56 1563.88,-76"/>
<text xml:space="preserve" text-anchor="middle" x="1508.62" y="-62.5" font-family="Helvetica,sans-Serif" font-size="10.00">PackageManager.cpp</text>
</a>
</g>
</g>
<!-- Node1&#45;&gt;Node19 -->
<g id="edge21_Node000001_Node000019" class="edge">
<title>Node1&#45;&gt;Node19</title>
<g id="a_edge21_Node000001_Node000019"><a xlink:title=" ">
<path fill="none" stroke="#63b8ff" d="M1278.15,-114.14C1324.91,-104.58 1409.86,-87.2 1462.54,-76.43"/>
<polygon fill="#63b8ff" stroke="#63b8ff" points="1277.71,-110.66 1268.62,-116.09 1279.11,-117.52 1277.71,-110.66"/>
</a>
</g>
</g>
<!-- Node20 -->
<g id="Node000020" class="node">
<title>Node20</title>
<g id="a_Node000020"><a xlink:href="Path_8cpp.html" target="_top" xlink:title=" ">
<polygon fill="white" stroke="#666666" points="1637.12,-76 1582.12,-76 1582.12,-56 1637.12,-56 1637.12,-76"/>
<text xml:space="preserve" text-anchor="middle" x="1609.62" y="-62.5" font-family="Helvetica,sans-Serif" font-size="10.00">Path.cpp</text>
</a>
</g>
</g>
<!-- Node1&#45;&gt;Node20 -->
<g id="edge22_Node000001_Node000020" class="edge">
<title>Node1&#45;&gt;Node20</title>
<g id="a_edge22_Node000001_Node000020"><a xlink:title=" ">
<path fill="none" stroke="#63b8ff" d="M1278.35,-117.52C1338.01,-111.12 1465.91,-96.24 1572.62,-76 1575.61,-75.43 1578.72,-74.78 1581.81,-74.09"/>
<polygon fill="#63b8ff" stroke="#63b8ff" points="1278.1,-114.03 1268.53,-118.57 1278.84,-120.99 1278.1,-114.03"/>
</a>
</g>
</g>
<!-- Node21 -->
<g id="Node000021" class="node">
<title>Node21</title>
<g id="a_Node000021"><a xlink:href="Policies_8cpp.html" target="_top" xlink:title=" ">
<polygon fill="white" stroke="#666666" points="1724.25,-76 1655,-76 1655,-56 1724.25,-56 1724.25,-76"/>
<text xml:space="preserve" text-anchor="middle" x="1689.62" y="-62.5" font-family="Helvetica,sans-Serif" font-size="10.00">Policies.cpp</text>
</a>
</g>
</g>
<!-- Node1&#45;&gt;Node21 -->
<g id="edge23_Node000001_Node000021" class="edge">
<title>Node1&#45;&gt;Node21</title>
<g id="a_edge23_Node000001_Node000021"><a xlink:title=" ">
<path fill="none" stroke="#63b8ff" d="M1278.39,-118.31C1347.69,-112.55 1510.89,-97.75 1646.62,-76 1649.34,-75.57 1652.14,-75.08 1654.94,-74.55"/>
<polygon fill="#63b8ff" stroke="#63b8ff" points="1278.14,-114.82 1268.46,-119.13 1278.71,-121.8 1278.14,-114.82"/>
</a>
</g>
</g>
<!-- Node22 -->
<g id="Node000022" class="node">
<title>Node22</title>
<g id="a_Node000022"><a xlink:href="ProjectBrowser_8cpp.html" target="_top" xlink:title=" ">
<polygon fill="white" stroke="#666666" points="1843.38,-76 1741.88,-76 1741.88,-56 1843.38,-56 1843.38,-76"/>
<text xml:space="preserve" text-anchor="middle" x="1792.62" y="-62.5" font-family="Helvetica,sans-Serif" font-size="10.00">ProjectBrowser.cpp</text>
</a>
</g>
</g>
<!-- Node1&#45;&gt;Node22 -->
<g id="edge24_Node000001_Node000022" class="edge">
<title>Node1&#45;&gt;Node22</title>
<g id="a_edge24_Node000001_Node000022"><a xlink:title=" ">
<path fill="none" stroke="#63b8ff" d="M1278.32,-118.6C1357.76,-112.77 1562.98,-96.85 1733.62,-76 1736.2,-75.69 1738.83,-75.35 1741.48,-74.99"/>
<polygon fill="#63b8ff" stroke="#63b8ff" points="1278.33,-115.09 1268.61,-119.3 1278.83,-122.07 1278.33,-115.09"/>
</a>
</g>
</g>
<!-- Node23 -->
<g id="Node000023" class="node">
<title>Node23</title>
<g id="a_Node000023"><a xlink:href="ProjectManager_8cpp.html" target="_top" xlink:title=" ">
<polygon fill="white" stroke="#666666" points="1964.12,-76 1861.12,-76 1861.12,-56 1964.12,-56 1964.12,-76"/>
<text xml:space="preserve" text-anchor="middle" x="1912.62" y="-62.5" font-family="Helvetica,sans-Serif" font-size="10.00">ProjectManager.cpp</text>
</a>
</g>
</g>
<!-- Node1&#45;&gt;Node23 -->
<g id="edge25_Node000001_Node000023" class="edge">
<title>Node1&#45;&gt;Node23</title>
<g id="a_edge25_Node000001_Node000023"><a xlink:title=" ">
<path fill="none" stroke="#63b8ff" d="M1278.73,-119.38C1371.24,-114.77 1634.68,-100.38 1852.62,-76 1855.35,-75.7 1858.13,-75.36 1860.95,-75"/>
<polygon fill="#63b8ff" stroke="#63b8ff" points="1278.65,-115.87 1268.83,-119.86 1278.99,-122.87 1278.65,-115.87"/>
</a>
</g>
</g>
<!-- Node24 -->
<g id="Node000024" class="node">
<title>Node24</title>
<g id="a_Node000024"><a xlink:href="Recycle_8cpp.html" target="_top" xlink:title=" ">
<polygon fill="white" stroke="#666666" points="2053,-76 1982.25,-76 1982.25,-56 2053,-56 2053,-76"/>
<text xml:space="preserve" text-anchor="middle" x="2017.62" y="-62.5" font-family="Helvetica,sans-Serif" font-size="10.00">Recycle.cpp</text>
</a>
</g>
</g>
<!-- Node1&#45;&gt;Node24 -->
<g id="edge26_Node000001_Node000024" class="edge">
<title>Node1&#45;&gt;Node24</title>
<g id="a_edge26_Node000001_Node000024"><a xlink:title=" ">
<path fill="none" stroke="#63b8ff" d="M1278.41,-120.59C1382.5,-118.99 1707.3,-111.28 1973.62,-76 1976.41,-75.63 1979.28,-75.19 1982.16,-74.7"/>
<polygon fill="#63b8ff" stroke="#63b8ff" points="1278.57,-117.09 1268.62,-120.74 1278.67,-124.09 1278.57,-117.09"/>
</a>
</g>
</g>
<!-- Node25 -->
<g id="Node000025" class="node">
<title>Node25</title>
<g id="a_Node000025"><a xlink:href="Search_8cpp.html" target="_top" xlink:title=" ">
<polygon fill="white" stroke="#666666" points="2136.38,-76 2070.88,-76 2070.88,-56 2136.38,-56 2136.38,-76"/>
<text xml:space="preserve" text-anchor="middle" x="2103.62" y="-62.5" font-family="Helvetica,sans-Serif" font-size="10.00">Search.cpp</text>
</a>
</g>
</g>
<!-- Node1&#45;&gt;Node25 -->
<g id="edge27_Node000001_Node000025" class="edge">
<title>Node1&#45;&gt;Node25</title>
<g id="a_edge27_Node000001_Node000025"><a xlink:title=" ">
<path fill="none" stroke="#63b8ff" d="M1278.36,-121.02C1390.34,-120.7 1759.7,-116.41 2061.62,-76 2064.58,-75.6 2067.64,-75.11 2070.7,-74.56"/>
<polygon fill="#63b8ff" stroke="#63b8ff" points="1278.67,-117.52 1268.68,-121.04 1278.68,-124.52 1278.67,-117.52"/>
</a>
</g>
</g>
<!-- Node26 -->
<g id="Node000026" class="node">
<title>Node26</title>
<g id="a_Node000026"><a xlink:href="Streaming_8cpp.html" target="_top" xlink:title=" ">
<polygon fill="white" stroke="#666666" points="2233.12,-76 2154.12,-76 2154.12,-56 2233.12,-56 2233.12,-76"/>
<text xml:space="preserve" text-anchor="middle" x="2193.62" y="-62.5" font-family="Helvetica,sans-Serif" font-size="10.00">Streaming.cpp</text>
</a>
</g>
</g>
<!-- Node1&#45;&gt;Node26 -->
<g id="edge28_Node000001_Node000026" class="edge">
<title>Node1&#45;&gt;Node26</title>
<g id="a_edge28_Node000001_Node000026"><a xlink:title=" ">
<path fill="none" stroke="#63b8ff" d="M1278.6,-120.96C1397.98,-120.46 1809.17,-115.76 2145.62,-76 2148.32,-75.68 2151.09,-75.3 2153.88,-74.88"/>
<polygon fill="#63b8ff" stroke="#63b8ff" points="1278.85,-117.46 1268.86,-120.99 1278.88,-124.46 1278.85,-117.46"/>
</a>
</g>
</g>
<!-- Node27 -->
<g id="Node000027" class="node">
<title>Node27</title>
<g id="a_Node000027"><a xlink:href="Sync_8cpp.html" target="_top" xlink:title=" ">
<polygon fill="white" stroke="#666666" points="2308.25,-76 2251,-76 2251,-56 2308.25,-56 2308.25,-76"/>
<text xml:space="preserve" text-anchor="middle" x="2279.62" y="-62.5" font-family="Helvetica,sans-Serif" font-size="10.00">Sync.cpp</text>
</a>
</g>
</g>
<!-- Node1&#45;&gt;Node27 -->
<g id="edge29_Node000001_Node000027" class="edge">
<title>Node1&#45;&gt;Node27</title>
<g id="a_edge29_Node000001_Node000027"><a xlink:title=" ">
<path fill="none" stroke="#63b8ff" d="M1278.62,-120.35C1430.81,-117.31 2050.38,-103.45 2242.62,-76 2245.24,-75.63 2247.95,-75.15 2250.64,-74.61"/>
<polygon fill="#63b8ff" stroke="#63b8ff" points="1278.75,-116.85 1268.82,-120.54 1278.89,-123.85 1278.75,-116.85"/>
</a>
</g>
</g>
<!-- Node28 -->
<g id="Node000028" class="node">
<title>Node28</title>
<g id="a_Node000028"><a xlink:href="TestPath_8cpp.html" target="_top" xlink:title=" ">
<polygon fill="white" stroke="#666666" points="2400.5,-76 2326.75,-76 2326.75,-56 2400.5,-56 2400.5,-76"/>
<text xml:space="preserve" text-anchor="middle" x="2363.62" y="-62.5" font-family="Helvetica,sans-Serif" font-size="10.00">TestPath.cpp</text>
</a>
</g>
</g>
<!-- Node1&#45;&gt;Node28 -->
<g id="edge30_Node000001_Node000028" class="edge">
<title>Node1&#45;&gt;Node28</title>
<g id="a_edge30_Node000001_Node000028"><a xlink:title=" ">
<path fill="none" stroke="#63b8ff" d="M1278.35,-121.44C1411.14,-122.77 1910.48,-124.09 2317.62,-76 2320.45,-75.67 2323.37,-75.25 2326.29,-74.79"/>
<polygon fill="#63b8ff" stroke="#63b8ff" points="1278.55,-117.94 1268.52,-121.33 1278.48,-124.94 1278.55,-117.94"/>
</a>
</g>
</g>
<!-- Node29 -->
<g id="Node000029" class="node">
<title>Node29</title>
<g id="a_Node000029"><a xlink:href="Thumbs_8cpp.html" target="_top" xlink:title=" ">
<polygon fill="white" stroke="#666666" points="2488.62,-76 2418.62,-76 2418.62,-56 2488.62,-56 2488.62,-76"/>
<text xml:space="preserve" text-anchor="middle" x="2453.62" y="-62.5" font-family="Helvetica,sans-Serif" font-size="10.00">Thumbs.cpp</text>
</a>
</g>
</g>
<!-- Node1&#45;&gt;Node29 -->
<g id="edge31_Node000001_Node000029" class="edge">
<title>Node1&#45;&gt;Node29</title>
<g id="a_edge31_Node000001_Node000029"><a xlink:title=" ">
<path fill="none" stroke="#63b8ff" d="M1278.77,-120.43C1446.27,-117.54 2182.22,-103.46 2409.62,-76 2412.41,-75.66 2415.28,-75.24 2418.16,-74.77"/>
<polygon fill="#63b8ff" stroke="#63b8ff" points="1278.73,-116.93 1268.79,-120.6 1278.85,-123.93 1278.73,-116.93"/>
</a>
</g>
</g>
<!-- Node30 -->
<g id="Node000030" class="node">
<title>Node30</title>
<g id="a_Node000030"><a xlink:href="VFS_8cpp.html" target="_top" xlink:title=" ">
<polygon fill="white" stroke="#666666" points="2560.75,-76 2506.5,-76 2506.5,-56 2560.75,-56 2560.75,-76"/>
<text xml:space="preserve" text-anchor="middle" x="2533.62" y="-62.5" font-family="Helvetica,sans-Serif" font-size="10.00">VFS.cpp</text>
</a>
</g>
</g>
<!-- Node1&#45;&gt;Node30 -->
<g id="edge32_Node000001_Node000030" class="edge">
<title>Node1&#45;&gt;Node30</title>
<g id="a_edge32_Node000001_Node000030"><a xlink:title=" ">
<path fill="none" stroke="#63b8ff" d="M1278.55,-120.74C1453.22,-119.26 2252.42,-110.67 2497.62,-76 2500.43,-75.6 2503.34,-75.08 2506.22,-74.48"/>
<polygon fill="#63b8ff" stroke="#63b8ff" points="1278.55,-117.24 1268.58,-120.82 1278.61,-124.24 1278.55,-117.24"/>
</a>
</g>
</g>
<!-- Node31 -->
<g id="Node000031" class="node">
<title>Node31</title>
<g id="a_Node000031"><a xlink:href="Versioning_8cpp.html" target="_top" xlink:title=" ">
<polygon fill="white" stroke="#666666" points="2658.5,-76 2578.75,-76 2578.75,-56 2658.5,-56 2658.5,-76"/>
<text xml:space="preserve" text-anchor="middle" x="2618.62" y="-62.5" font-family="Helvetica,sans-Serif" font-size="10.00">Versioning.cpp</text>
</a>
</g>
</g>
<!-- Node1&#45;&gt;Node31 -->
<g id="edge33_Node000001_Node000031" class="edge">
<title>Node1&#45;&gt;Node31</title>
<g id="a_edge33_Node000001_Node000031"><a xlink:title=" ">
<path fill="none" stroke="#63b8ff" d="M1278.74,-120.52C1459.65,-117.9 2308.47,-104.26 2569.62,-76 2572.46,-75.69 2575.38,-75.32 2578.32,-74.89"/>
<polygon fill="#63b8ff" stroke="#63b8ff" points="1278.8,-117.02 1268.85,-120.67 1278.9,-124.02 1278.8,-117.02"/>
</a>
</g>
</g>
<!-- Node12&#45;&gt;Node9 -->
<g id="edge12_Node000012_Node000009" class="edge">
<title>Node12&#45;&gt;Node9</title>
<g id="a_edge12_Node000012_Node000009"><a xlink:title=" ">
<path fill="none" stroke="#63b8ff" d="M731.32,-49.27C717.5,-39.94 700.44,-28.43 688.67,-20.48"/>
<polygon fill="#63b8ff" stroke="#63b8ff" points="729.19,-52.05 739.44,-54.75 733.11,-46.25 729.19,-52.05"/>
</a>
</g>
</g>
<!-- Node12&#45;&gt;Node11 -->
<g id="edge13_Node000012_Node000011" class="edge">
<title>Node12&#45;&gt;Node11</title>
<g id="a_edge13_Node000012_Node000011"><a xlink:title=" ">
<path fill="none" stroke="#63b8ff" d="M763.14,-45C766.75,-36.54 770.77,-27.08 773.66,-20.3"/>
<polygon fill="#63b8ff" stroke="#63b8ff" points="759.92,-43.63 759.22,-54.2 766.36,-46.37 759.92,-43.63"/>
</a>
</g>
</g>
<!-- Node12&#45;&gt;Node13 -->
<g id="edge14_Node000012_Node000013" class="edge">
<title>Node12&#45;&gt;Node13</title>
<g id="a_edge14_Node000012_Node000013"><a xlink:title=" ">
<path fill="none" stroke="#63b8ff" d="M785.75,-50.88C806.86,-41.3 834.2,-28.89 852.74,-20.48"/>
<polygon fill="#63b8ff" stroke="#63b8ff" points="784.39,-47.65 776.73,-54.97 787.28,-54.02 784.39,-47.65"/>
</a>
</g>
</g>
</g>
</svg>
