<?xml version="1.0" encoding="UTF-8" standalone="no"?>
<!DOCTYPE svg PUBLIC "-//W3C//DTD SVG 1.1//EN"
 "http://www.w3.org/Graphics/SVG/1.1/DTD/svg11.dtd">
<!-- Generated by graphviz version 14.0.2 (20251019.1705)
 -->
<!-- Title: Policies.h Pages: 1 -->
<svg width="206pt" height="140pt"
 viewBox="0.00 0.00 206.00 140.00" xmlns="http://www.w3.org/2000/svg" xmlns:xlink="http://www.w3.org/1999/xlink">
<g id="graph0" class="graph" transform="scale(1 1) rotate(0) translate(4 136)">
<title>Policies.h</title>
<!-- Node1 -->
<g id="Node000001" class="node">
<title>Node1</title>
<g id="a_Node000001"><a xlink:title=" ">
<polygon fill="#999999" stroke="#666666" points="120.38,-132 61.62,-132 61.62,-112 120.38,-112 120.38,-132"/>
<text xml:space="preserve" text-anchor="middle" x="91" y="-118.5" font-family="Helvetica,sans-Serif" font-size="10.00">Policies.h</text>
</a>
</g>
</g>
<!-- Node2 -->
<g id="Node000002" class="node">
<title>Node2</title>
<g id="a_Node000002"><a xlink:href="FileIO_8h.html" target="_top" xlink:title=" ">
<polygon fill="white" stroke="#666666" points="98.12,-76 13.88,-76 13.88,-56 98.12,-56 98.12,-76"/>
<text xml:space="preserve" text-anchor="middle" x="56" y="-62.5" font-family="Helvetica,sans-Serif" font-size="10.00">LGE/fs/FileIO.h</text>
</a>
</g>
</g>
<!-- Node1&#45;&gt;Node2 -->
<g id="edge1_Node000001_Node000002" class="edge">
<title>Node1&#45;&gt;Node2</title>
<g id="a_edge1_Node000001_Node000002"><a xlink:title=" ">
<path fill="none" stroke="#63b8ff" d="M84.9,-111.59C80.29,-104.47 73.79,-94.45 68.13,-85.72"/>
<polygon fill="#63b8ff" stroke="#63b8ff" points="71.23,-84.06 62.85,-77.57 65.35,-87.86 71.23,-84.06"/>
</a>
</g>
</g>
<!-- Node3 -->
<g id="Node000003" class="node">
<title>Node3</title>
<g id="a_Node000003"><a xlink:title=" ">
<polygon fill="#e0e0e0" stroke="#999999" points="40,-20 0,-20 0,0 40,0 40,-20"/>
<text xml:space="preserve" text-anchor="middle" x="20" y="-6.5" font-family="Helvetica,sans-Serif" font-size="10.00">string</text>
</a>
</g>
</g>
<!-- Node1&#45;&gt;Node3 -->
<g id="edge4_Node000001_Node000003" class="edge">
<title>Node1&#45;&gt;Node3</title>
<g id="a_edge4_Node000001_Node000003"><a xlink:title=" ">
<path fill="none" stroke="#63b8ff" d="M61.13,-113.95C41.44,-107.58 17.13,-96.04 5,-76 -3.52,-61.93 2.03,-43.46 8.66,-29.81"/>
<polygon fill="#63b8ff" stroke="#63b8ff" points="11.54,-31.86 13.24,-21.4 5.39,-28.51 11.54,-31.86"/>
</a>
</g>
</g>
<!-- Node4 -->
<g id="Node000004" class="node">
<title>Node4</title>
<g id="a_Node000004"><a xlink:title=" ">
<polygon fill="#e0e0e0" stroke="#999999" points="140.75,-20 75.25,-20 75.25,0 140.75,0 140.75,-20"/>
<text xml:space="preserve" text-anchor="middle" x="108" y="-6.5" font-family="Helvetica,sans-Serif" font-size="10.00">string_view</text>
</a>
</g>
</g>
<!-- Node1&#45;&gt;Node4 -->
<g id="edge5_Node000001_Node000004" class="edge">
<title>Node1&#45;&gt;Node4</title>
<g id="a_edge5_Node000001_Node000004"><a xlink:title=" ">
<path fill="none" stroke="#63b8ff" d="M95.37,-111.59C99.26,-102.66 104.7,-88.73 107,-76 109.65,-61.34 109.83,-44.52 109.39,-31.66"/>
<polygon fill="#63b8ff" stroke="#63b8ff" points="112.89,-31.67 108.88,-21.86 105.9,-32.03 112.89,-31.67"/>
</a>
</g>
</g>
<!-- Node5 -->
<g id="Node000005" class="node">
<title>Node5</title>
<g id="a_Node000005"><a xlink:title=" ">
<polygon fill="#e0e0e0" stroke="#999999" points="197.5,-76 154.5,-76 154.5,-56 197.5,-56 197.5,-76"/>
<text xml:space="preserve" text-anchor="middle" x="176" y="-62.5" font-family="Helvetica,sans-Serif" font-size="10.00">vector</text>
</a>
</g>
</g>
<!-- Node1&#45;&gt;Node5 -->
<g id="edge6_Node000001_Node000005" class="edge">
<title>Node1&#45;&gt;Node5</title>
<g id="a_edge6_Node000001_Node000005"><a xlink:title=" ">
<path fill="none" stroke="#63b8ff" d="M105.81,-111.59C118.4,-103.59 136.75,-91.93 151.53,-82.54"/>
<polygon fill="#63b8ff" stroke="#63b8ff" points="153.24,-85.61 159.8,-77.29 149.48,-79.7 153.24,-85.61"/>
</a>
</g>
</g>
<!-- Node2&#45;&gt;Node3 -->
<g id="edge2_Node000002_Node000003" class="edge">
<title>Node2&#45;&gt;Node3</title>
<g id="a_edge2_Node000002_Node000003"><a xlink:title=" ">
<path fill="none" stroke="#63b8ff" d="M49.73,-55.59C44.98,-48.47 38.3,-38.45 32.48,-29.72"/>
<polygon fill="#63b8ff" stroke="#63b8ff" points="35.5,-27.94 27.04,-21.56 29.67,-31.82 35.5,-27.94"/>
</a>
</g>
</g>
<!-- Node2&#45;&gt;Node4 -->
<g id="edge3_Node000002_Node000004" class="edge">
<title>Node2&#45;&gt;Node4</title>
<g id="a_edge3_Node000002_Node000004"><a xlink:title=" ">
<path fill="none" stroke="#63b8ff" d="M65.06,-55.59C72.22,-48.16 82.41,-37.58 91.07,-28.58"/>
<polygon fill="#63b8ff" stroke="#63b8ff" points="93.58,-31.02 98,-21.39 88.54,-26.16 93.58,-31.02"/>
</a>
</g>
</g>
</g>
</svg>
