<?xml version="1.0" encoding="UTF-8" standalone="no"?>
<!DOCTYPE svg PUBLIC "-//W3C//DTD SVG 1.1//EN"
 "http://www.w3.org/Graphics/SVG/1.1/DTD/svg11.dtd">
<!-- Generated by graphviz version 14.0.2 (20251019.1705)
 -->
<!-- Title: ProjectBrowser.cpp Pages: 1 -->
<svg width="1005pt" height="252pt"
 viewBox="0.00 0.00 1005.00 252.00" xmlns="http://www.w3.org/2000/svg" xmlns:xlink="http://www.w3.org/1999/xlink">
<g id="graph0" class="graph" transform="scale(1 1) rotate(0) translate(4 248)">
<title>ProjectBrowser.cpp</title>
<!-- Node1 -->
<g id="Node000001" class="node">
<title>Node1</title>
<g id="a_Node000001"><a xlink:title=" ">
<polygon fill="#999999" stroke="#666666" points="577.25,-244 475.75,-244 475.75,-224 577.25,-224 577.25,-244"/>
<text xml:space="preserve" text-anchor="middle" x="526.5" y="-230.5" font-family="Helvetica,sans-Serif" font-size="10.00">ProjectBrowser.cpp</text>
</a>
</g>
</g>
<!-- Node2 -->
<g id="Node000002" class="node">
<title>Node2</title>
<g id="a_Node000002"><a xlink:href="ProjectBrowser_8h.html" target="_top" xlink:title=" ">
<polygon fill="white" stroke="#666666" points="291.5,-188 167.5,-188 167.5,-168 291.5,-168 291.5,-188"/>
<text xml:space="preserve" text-anchor="middle" x="229.5" y="-174.5" font-family="Helvetica,sans-Serif" font-size="10.00">LGE/ui/ProjectBrowser.h</text>
</a>
</g>
</g>
<!-- Node1&#45;&gt;Node2 -->
<g id="edge1_Node000001_Node000002" class="edge">
<title>Node1&#45;&gt;Node2</title>
<g id="a_edge1_Node000001_Node000002"><a xlink:title=" ">
<path fill="none" stroke="#63b8ff" d="M475.44,-223.72C424.89,-214.53 347.36,-200.43 292.89,-190.53"/>
<polygon fill="#63b8ff" stroke="#63b8ff" points="293.59,-187.1 283.12,-188.75 292.34,-193.98 293.59,-187.1"/>
</a>
</g>
</g>
<!-- Node3 -->
<g id="Node000003" class="node">
<title>Node3</title>
<g id="a_Node000003"><a xlink:href="ProjectManager_8h.html" target="_top" xlink:title=" ">
<polygon fill="white" stroke="#666666" points="201.25,-132 75.75,-132 75.75,-112 201.25,-112 201.25,-132"/>
<text xml:space="preserve" text-anchor="middle" x="138.5" y="-118.5" font-family="Helvetica,sans-Serif" font-size="10.00">LGE/ui/ProjectManager.h</text>
</a>
</g>
</g>
<!-- Node1&#45;&gt;Node3 -->
<g id="edge12_Node000001_Node000003" class="edge">
<title>Node1&#45;&gt;Node3</title>
<g id="a_edge12_Node000001_Node000003"><a xlink:title=" ">
<path fill="none" stroke="#63b8ff" d="M475.44,-233.4C385.86,-233.04 205.45,-227.3 158.5,-188 145.62,-177.21 140.88,-158.33 139.21,-143.69"/>
<polygon fill="#63b8ff" stroke="#63b8ff" points="142.7,-143.46 138.51,-133.73 135.72,-143.95 142.7,-143.46"/>
</a>
</g>
</g>
<!-- Node4 -->
<g id="Node000004" class="node">
<title>Node4</title>
<g id="a_Node000004"><a xlink:href="Project_8h.html" target="_top" xlink:title=" ">
<polygon fill="white" stroke="#666666" points="110.88,-76 22.12,-76 22.12,-56 110.88,-56 110.88,-76"/>
<text xml:space="preserve" text-anchor="middle" x="66.5" y="-62.5" font-family="Helvetica,sans-Serif" font-size="10.00">LGE/fs/Project.h</text>
</a>
</g>
</g>
<!-- Node1&#45;&gt;Node4 -->
<g id="edge21_Node000001_Node000004" class="edge">
<title>Node1&#45;&gt;Node4</title>
<g id="a_edge21_Node000001_Node000004"><a xlink:title=" ">
<path fill="none" stroke="#63b8ff" d="M475.48,-230.33C385.17,-225.05 201.05,-211.71 141.5,-188 102.85,-172.61 85.14,-169.19 66.5,-132 59.68,-118.39 60.05,-101.08 61.92,-87.74"/>
<polygon fill="#63b8ff" stroke="#63b8ff" points="65.36,-88.38 63.72,-77.91 58.48,-87.12 65.36,-88.38"/>
</a>
</g>
</g>
<!-- Node6 -->
<g id="Node000006" class="node">
<title>Node6</title>
<g id="a_Node000006"><a xlink:title=" ">
<polygon fill="#e0e0e0" stroke="#999999" points="61,-20 0,-20 0,0 61,0 61,-20"/>
<text xml:space="preserve" text-anchor="middle" x="30.5" y="-6.5" font-family="Helvetica,sans-Serif" font-size="10.00">filesystem</text>
</a>
</g>
</g>
<!-- Node1&#45;&gt;Node6 -->
<g id="edge26_Node000001_Node000006" class="edge">
<title>Node1&#45;&gt;Node6</title>
<g id="a_edge26_Node000001_Node000006"><a xlink:title=" ">
<path fill="none" stroke="#63b8ff" d="M475.56,-232.92C375.24,-231.92 156.31,-225.38 92.5,-188 39.94,-157.21 31.92,-134.06 13.5,-76 8.7,-60.87 13.81,-43.45 19.65,-30.45"/>
<polygon fill="#63b8ff" stroke="#63b8ff" points="22.69,-32.2 24.06,-21.69 16.44,-29.05 22.69,-32.2"/>
</a>
</g>
</g>
<!-- Node9 -->
<g id="Node000009" class="node">
<title>Node9</title>
<g id="a_Node000009"><a xlink:href="Texture_8h.html" target="_top" xlink:title=" ">
<polygon fill="white" stroke="#666666" points="431.38,-188 309.62,-188 309.62,-168 431.38,-168 431.38,-188"/>
<text xml:space="preserve" text-anchor="middle" x="370.5" y="-174.5" font-family="Helvetica,sans-Serif" font-size="10.00">LGE/rendering/Texture.h</text>
</a>
</g>
</g>
<!-- Node1&#45;&gt;Node9 -->
<g id="edge13_Node000001_Node000009" class="edge">
<title>Node1&#45;&gt;Node9</title>
<g id="a_edge13_Node000001_Node000009"><a xlink:title=" ">
<path fill="none" stroke="#63b8ff" d="M499.33,-223.59C474.2,-214.9 436.62,-201.89 408.52,-192.16"/>
<polygon fill="#63b8ff" stroke="#63b8ff" points="409.91,-188.94 399.32,-188.97 407.62,-195.55 409.91,-188.94"/>
</a>
</g>
</g>
<!-- Node11 -->
<g id="Node000011" class="node">
<title>Node11</title>
<g id="a_Node000011"><a xlink:href="Log_8h.html" target="_top" xlink:title=" ">
<polygon fill="white" stroke="#666666" points="667.62,-188 583.38,-188 583.38,-168 667.62,-168 667.62,-188"/>
<text xml:space="preserve" text-anchor="middle" x="625.5" y="-174.5" font-family="Helvetica,sans-Serif" font-size="10.00">LGE/core/Log.h</text>
</a>
</g>
</g>
<!-- Node1&#45;&gt;Node11 -->
<g id="edge16_Node000001_Node000011" class="edge">
<title>Node1&#45;&gt;Node11</title>
<g id="a_edge16_Node000001_Node000011"><a xlink:title=" ">
<path fill="none" stroke="#63b8ff" d="M543.74,-223.59C558.84,-215.36 581.03,-203.26 598.48,-193.74"/>
<polygon fill="#63b8ff" stroke="#63b8ff" points="599.69,-197.07 606.79,-189.2 596.34,-190.92 599.69,-197.07"/>
</a>
</g>
</g>
<!-- Node13 -->
<g id="Node000013" class="node">
<title>Node13</title>
<g id="a_Node000013"><a xlink:href="FileSystem_8h.html" target="_top" xlink:title=" ">
<polygon fill="white" stroke="#666666" points="494.5,-76 376.5,-76 376.5,-56 494.5,-56 494.5,-76"/>
<text xml:space="preserve" text-anchor="middle" x="435.5" y="-62.5" font-family="Helvetica,sans-Serif" font-size="10.00">LGE/core/FileSystem.h</text>
</a>
</g>
</g>
<!-- Node1&#45;&gt;Node13 -->
<g id="edge19_Node000001_Node000013" class="edge">
<title>Node1&#45;&gt;Node13</title>
<g id="a_edge19_Node000001_Node000013"><a xlink:title=" ">
<path fill="none" stroke="#63b8ff" d="M513.45,-223.62C502.75,-215.32 487.88,-202.34 478.5,-188 457.61,-156.08 445.44,-112.78 439.66,-87.57"/>
<polygon fill="#63b8ff" stroke="#63b8ff" points="443.12,-87 437.59,-77.96 436.27,-88.47 443.12,-87"/>
</a>
</g>
</g>
<!-- Node14 -->
<g id="Node000014" class="node">
<title>Node14</title>
<g id="a_Node000014"><a xlink:href="Path_8h.html" target="_top" xlink:title=" ">
<polygon fill="white" stroke="#666666" points="565.62,-188 487.38,-188 487.38,-168 565.62,-168 565.62,-188"/>
<text xml:space="preserve" text-anchor="middle" x="526.5" y="-174.5" font-family="Helvetica,sans-Serif" font-size="10.00">LGE/fs/Path.h</text>
</a>
</g>
</g>
<!-- Node1&#45;&gt;Node14 -->
<g id="edge22_Node000001_Node000014" class="edge">
<title>Node1&#45;&gt;Node14</title>
<g id="a_edge22_Node000001_Node000014"><a xlink:title=" ">
<path fill="none" stroke="#63b8ff" d="M526.5,-223.59C526.5,-217.01 526.5,-207.96 526.5,-199.73"/>
<polygon fill="#63b8ff" stroke="#63b8ff" points="530,-199.81 526.5,-189.81 523,-199.81 530,-199.81"/>
</a>
</g>
</g>
<!-- Node16 -->
<g id="Node000016" class="node">
<title>Node16</title>
<g id="a_Node000016"><a xlink:title=" ">
<polygon fill="#e0e0e0" stroke="#999999" points="733.25,-188 685.75,-188 685.75,-168 733.25,-168 733.25,-188"/>
<text xml:space="preserve" text-anchor="middle" x="709.5" y="-174.5" font-family="Helvetica,sans-Serif" font-size="10.00">imgui.h</text>
</a>
</g>
</g>
<!-- Node1&#45;&gt;Node16 -->
<g id="edge25_Node000001_Node000016" class="edge">
<title>Node1&#45;&gt;Node16</title>
<g id="a_edge25_Node000001_Node000016"><a xlink:title=" ">
<path fill="none" stroke="#63b8ff" d="M558.38,-223.59C590.85,-214.01 641.08,-199.19 674.61,-189.3"/>
<polygon fill="#63b8ff" stroke="#63b8ff" points="675.24,-192.76 683.84,-186.57 673.25,-186.05 675.24,-192.76"/>
</a>
</g>
</g>
<!-- Node17 -->
<g id="Node000017" class="node">
<title>Node17</title>
<g id="a_Node000017"><a xlink:title=" ">
<polygon fill="#e0e0e0" stroke="#999999" points="807.38,-188 751.62,-188 751.62,-168 807.38,-168 807.38,-188"/>
<text xml:space="preserve" text-anchor="middle" x="779.5" y="-174.5" font-family="Helvetica,sans-Serif" font-size="10.00">algorithm</text>
</a>
</g>
</g>
<!-- Node1&#45;&gt;Node17 -->
<g id="edge27_Node000001_Node000017" class="edge">
<title>Node1&#45;&gt;Node17</title>
<g id="a_edge27_Node000001_Node000017"><a xlink:title=" ">
<path fill="none" stroke="#63b8ff" d="M574.22,-223.53C615.65,-215.21 677.54,-202.51 740.34,-188.43"/>
<polygon fill="#63b8ff" stroke="#63b8ff" points="740.78,-191.92 749.76,-186.31 739.24,-185.09 740.78,-191.92"/>
</a>
</g>
</g>
<!-- Node18 -->
<g id="Node000018" class="node">
<title>Node18</title>
<g id="a_Node000018"><a xlink:title=" ">
<polygon fill="#e0e0e0" stroke="#999999" points="871.12,-188 825.88,-188 825.88,-168 871.12,-168 871.12,-188"/>
<text xml:space="preserve" text-anchor="middle" x="848.5" y="-174.5" font-family="Helvetica,sans-Serif" font-size="10.00">cstring</text>
</a>
</g>
</g>
<!-- Node1&#45;&gt;Node18 -->
<g id="edge28_Node000001_Node000018" class="edge">
<title>Node1&#45;&gt;Node18</title>
<g id="a_edge28_Node000001_Node000018"><a xlink:title=" ">
<path fill="none" stroke="#63b8ff" d="M577.66,-226.95C633.54,-219.93 725.84,-207.1 814.45,-188.22"/>
<polygon fill="#63b8ff" stroke="#63b8ff" points="815,-191.68 824.03,-186.14 813.52,-184.84 815,-191.68"/>
</a>
</g>
</g>
<!-- Node19 -->
<g id="Node000019" class="node">
<title>Node19</title>
<g id="a_Node000019"><a xlink:title=" ">
<polygon fill="#e0e0e0" stroke="#999999" points="938,-188 889,-188 889,-168 938,-168 938,-188"/>
<text xml:space="preserve" text-anchor="middle" x="913.5" y="-174.5" font-family="Helvetica,sans-Serif" font-size="10.00">fstream</text>
</a>
</g>
</g>
<!-- Node1&#45;&gt;Node19 -->
<g id="edge29_Node000001_Node000019" class="edge">
<title>Node1&#45;&gt;Node19</title>
<g id="a_edge29_Node000001_Node000019"><a xlink:title=" ">
<path fill="none" stroke="#63b8ff" d="M577.57,-228.77C644.47,-222.73 765.58,-210.09 877.57,-188.36"/>
<polygon fill="#63b8ff" stroke="#63b8ff" points="878.1,-191.82 887.24,-186.45 876.75,-184.95 878.1,-191.82"/>
</a>
</g>
</g>
<!-- Node20 -->
<g id="Node000020" class="node">
<title>Node20</title>
<g id="a_Node000020"><a xlink:title=" ">
<polygon fill="#e0e0e0" stroke="#999999" points="996.5,-188 956.5,-188 956.5,-168 996.5,-168 996.5,-188"/>
<text xml:space="preserve" text-anchor="middle" x="976.5" y="-174.5" font-family="Helvetica,sans-Serif" font-size="10.00">ctime</text>
</a>
</g>
</g>
<!-- Node1&#45;&gt;Node20 -->
<g id="edge30_Node000001_Node000020" class="edge">
<title>Node1&#45;&gt;Node20</title>
<g id="a_edge30_Node000001_Node000020"><a xlink:title=" ">
<path fill="none" stroke="#63b8ff" d="M577.54,-230.75C655.14,-226.63 807.46,-215.8 944.9,-188.17"/>
<polygon fill="#63b8ff" stroke="#63b8ff" points="945.46,-191.63 954.55,-186.2 944.05,-184.78 945.46,-191.63"/>
</a>
</g>
</g>
<!-- Node2&#45;&gt;Node3 -->
<g id="edge2_Node000002_Node000003" class="edge">
<title>Node2&#45;&gt;Node3</title>
<g id="a_edge2_Node000002_Node000003"><a xlink:title=" ">
<path fill="none" stroke="#63b8ff" d="M213.65,-167.59C200.03,-159.51 180.14,-147.71 164.24,-138.27"/>
<polygon fill="#63b8ff" stroke="#63b8ff" points="166.16,-135.35 155.78,-133.25 162.59,-141.37 166.16,-135.35"/>
</a>
</g>
</g>
<!-- Node5 -->
<g id="Node000005" class="node">
<title>Node5</title>
<g id="a_Node000005"><a xlink:title=" ">
<polygon fill="#e0e0e0" stroke="#999999" points="368.5,-20 328.5,-20 328.5,0 368.5,0 368.5,-20"/>
<text xml:space="preserve" text-anchor="middle" x="348.5" y="-6.5" font-family="Helvetica,sans-Serif" font-size="10.00">string</text>
</a>
</g>
</g>
<!-- Node2&#45;&gt;Node5 -->
<g id="edge9_Node000002_Node000005" class="edge">
<title>Node2&#45;&gt;Node5</title>
<g id="a_edge9_Node000002_Node000005"><a xlink:title=" ">
<path fill="none" stroke="#63b8ff" d="M236.24,-167.6C255.3,-141.01 309.87,-64.89 335.24,-29.5"/>
<polygon fill="#63b8ff" stroke="#63b8ff" points="337.97,-31.69 340.95,-21.53 332.28,-27.62 337.97,-31.69"/>
</a>
</g>
</g>
<!-- Node7 -->
<g id="Node000007" class="node">
<title>Node7</title>
<g id="a_Node000007"><a xlink:title=" ">
<polygon fill="#e0e0e0" stroke="#999999" points="210,-76 167,-76 167,-56 210,-56 210,-76"/>
<text xml:space="preserve" text-anchor="middle" x="188.5" y="-62.5" font-family="Helvetica,sans-Serif" font-size="10.00">vector</text>
</a>
</g>
</g>
<!-- Node2&#45;&gt;Node7 -->
<g id="edge10_Node000002_Node000007" class="edge">
<title>Node2&#45;&gt;Node7</title>
<g id="a_edge10_Node000002_Node000007"><a xlink:title=" ">
<path fill="none" stroke="#63b8ff" d="M227.28,-167.58C224.15,-154.78 217.97,-131.3 210.5,-112 207.21,-103.5 202.92,-94.42 199.01,-86.65"/>
<polygon fill="#63b8ff" stroke="#63b8ff" points="202.12,-85.05 194.4,-77.79 195.91,-88.27 202.12,-85.05"/>
</a>
</g>
</g>
<!-- Node8 -->
<g id="Node000008" class="node">
<title>Node8</title>
<g id="a_Node000008"><a xlink:title=" ">
<polygon fill="#e0e0e0" stroke="#999999" points="279.12,-76 227.88,-76 227.88,-56 279.12,-56 279.12,-76"/>
<text xml:space="preserve" text-anchor="middle" x="253.5" y="-62.5" font-family="Helvetica,sans-Serif" font-size="10.00">memory</text>
</a>
</g>
</g>
<!-- Node2&#45;&gt;Node8 -->
<g id="edge11_Node000002_Node000008" class="edge">
<title>Node2&#45;&gt;Node8</title>
<g id="a_edge11_Node000002_Node000008"><a xlink:title=" ">
<path fill="none" stroke="#63b8ff" d="M232.8,-167.8C235.94,-158.78 240.59,-144.6 243.5,-132 246.89,-117.32 249.45,-100.49 251.12,-87.64"/>
<polygon fill="#63b8ff" stroke="#63b8ff" points="254.58,-88.19 252.32,-77.84 247.63,-87.34 254.58,-88.19"/>
</a>
</g>
</g>
<!-- Node3&#45;&gt;Node4 -->
<g id="edge3_Node000003_Node000004" class="edge">
<title>Node3&#45;&gt;Node4</title>
<g id="a_edge3_Node000003_Node000004"><a xlink:title=" ">
<path fill="none" stroke="#63b8ff" d="M125.96,-111.59C115.53,-103.77 100.45,-92.46 88.09,-83.19"/>
<polygon fill="#63b8ff" stroke="#63b8ff" points="90.21,-80.41 80.11,-77.21 86.01,-86.01 90.21,-80.41"/>
</a>
</g>
</g>
<!-- Node3&#45;&gt;Node5 -->
<g id="edge6_Node000003_Node000005" class="edge">
<title>Node3&#45;&gt;Node5</title>
<g id="a_edge6_Node000003_Node000005"><a xlink:title=" ">
<path fill="none" stroke="#63b8ff" d="M138.61,-111.53C139.32,-97.34 142.81,-70.69 158.5,-56 181.2,-34.75 268.94,-20.85 316.84,-14.67"/>
<polygon fill="#63b8ff" stroke="#63b8ff" points="317.11,-18.17 326.6,-13.46 316.24,-11.22 317.11,-18.17"/>
</a>
</g>
</g>
<!-- Node3&#45;&gt;Node7 -->
<g id="edge7_Node000003_Node000007" class="edge">
<title>Node3&#45;&gt;Node7</title>
<g id="a_edge7_Node000003_Node000007"><a xlink:title=" ">
<path fill="none" stroke="#63b8ff" d="M147.21,-111.59C154.09,-104.16 163.89,-93.58 172.22,-84.58"/>
<polygon fill="#63b8ff" stroke="#63b8ff" points="174.64,-87.12 178.86,-77.41 169.5,-82.37 174.64,-87.12"/>
</a>
</g>
</g>
<!-- Node3&#45;&gt;Node8 -->
<g id="edge8_Node000003_Node000008" class="edge">
<title>Node3&#45;&gt;Node8</title>
<g id="a_edge8_Node000003_Node000008"><a xlink:title=" ">
<path fill="none" stroke="#63b8ff" d="M158.53,-111.59C176.31,-103.24 202.57,-90.92 222.96,-81.34"/>
<polygon fill="#63b8ff" stroke="#63b8ff" points="224.38,-84.54 231.94,-77.12 221.4,-78.21 224.38,-84.54"/>
</a>
</g>
</g>
<!-- Node4&#45;&gt;Node5 -->
<g id="edge4_Node000004_Node000005" class="edge">
<title>Node4&#45;&gt;Node5</title>
<g id="a_edge4_Node000004_Node000005"><a xlink:title=" ">
<path fill="none" stroke="#63b8ff" d="M111.18,-56.44C168.7,-45.43 267.16,-26.58 317.25,-16.98"/>
<polygon fill="#63b8ff" stroke="#63b8ff" points="317.67,-20.47 326.83,-15.15 316.35,-13.59 317.67,-20.47"/>
</a>
</g>
</g>
<!-- Node4&#45;&gt;Node6 -->
<g id="edge5_Node000004_Node000006" class="edge">
<title>Node4&#45;&gt;Node6</title>
<g id="a_edge5_Node000004_Node000006"><a xlink:title=" ">
<path fill="none" stroke="#63b8ff" d="M60.23,-55.59C55.48,-48.47 48.8,-38.45 42.98,-29.72"/>
<polygon fill="#63b8ff" stroke="#63b8ff" points="46,-27.94 37.54,-21.56 40.17,-31.82 46,-27.94"/>
</a>
</g>
</g>
<!-- Node9&#45;&gt;Node5 -->
<g id="edge15_Node000009_Node000005" class="edge">
<title>Node9&#45;&gt;Node5</title>
<g id="a_edge15_Node000009_Node000005"><a xlink:title=" ">
<path fill="none" stroke="#63b8ff" d="M376.25,-167.75C383.35,-155.16 393.88,-131.89 388.5,-112 383.67,-94.12 374.82,-93.02 367.5,-76 361.23,-61.43 356.3,-44.17 353.03,-31.1"/>
<polygon fill="#63b8ff" stroke="#63b8ff" points="356.47,-30.47 350.76,-21.54 349.66,-32.08 356.47,-30.47"/>
</a>
</g>
</g>
<!-- Node10 -->
<g id="Node000010" class="node">
<title>Node10</title>
<g id="a_Node000010"><a xlink:title=" ">
<polygon fill="#e0e0e0" stroke="#999999" points="379.12,-132 333.88,-132 333.88,-112 379.12,-112 379.12,-132"/>
<text xml:space="preserve" text-anchor="middle" x="356.5" y="-118.5" font-family="Helvetica,sans-Serif" font-size="10.00">cstdint</text>
</a>
</g>
</g>
<!-- Node9&#45;&gt;Node10 -->
<g id="edge14_Node000009_Node000010" class="edge">
<title>Node9&#45;&gt;Node10</title>
<g id="a_edge14_Node000009_Node000010"><a xlink:title=" ">
<path fill="none" stroke="#63b8ff" d="M368.06,-167.59C366.33,-160.93 363.95,-151.75 361.8,-143.44"/>
<polygon fill="#63b8ff" stroke="#63b8ff" points="365.19,-142.56 359.29,-133.76 358.41,-144.32 365.19,-142.56"/>
</a>
</g>
</g>
<!-- Node11&#45;&gt;Node5 -->
<g id="edge18_Node000011_Node000005" class="edge">
<title>Node11&#45;&gt;Node5</title>
<g id="a_edge18_Node000011_Node000005"><a xlink:title=" ">
<path fill="none" stroke="#63b8ff" d="M628.24,-167.84C631.64,-154.51 635.84,-129.48 625.5,-112 574.79,-26.31 441.2,-12.53 379.97,-10.85"/>
<polygon fill="#63b8ff" stroke="#63b8ff" points="380.31,-7.36 370.25,-10.69 380.19,-14.36 380.31,-7.36"/>
</a>
</g>
</g>
<!-- Node12 -->
<g id="Node000012" class="node">
<title>Node12</title>
<g id="a_Node000012"><a xlink:title=" ">
<polygon fill="#e0e0e0" stroke="#999999" points="726.25,-132 672.75,-132 672.75,-112 726.25,-112 726.25,-132"/>
<text xml:space="preserve" text-anchor="middle" x="699.5" y="-118.5" font-family="Helvetica,sans-Serif" font-size="10.00">iostream</text>
</a>
</g>
</g>
<!-- Node11&#45;&gt;Node12 -->
<g id="edge17_Node000011_Node000012" class="edge">
<title>Node11&#45;&gt;Node12</title>
<g id="a_edge17_Node000011_Node000012"><a xlink:title=" ">
<path fill="none" stroke="#63b8ff" d="M638.39,-167.59C649.21,-159.7 664.91,-148.24 677.69,-138.92"/>
<polygon fill="#63b8ff" stroke="#63b8ff" points="679.52,-141.91 685.54,-133.19 675.39,-136.26 679.52,-141.91"/>
</a>
</g>
</g>
<!-- Node13&#45;&gt;Node5 -->
<g id="edge20_Node000013_Node000005" class="edge">
<title>Node13&#45;&gt;Node5</title>
<g id="a_edge20_Node000013_Node000005"><a xlink:title=" ">
<path fill="none" stroke="#63b8ff" d="M420.35,-55.59C407.45,-47.59 388.67,-35.93 373.54,-26.54"/>
<polygon fill="#63b8ff" stroke="#63b8ff" points="375.4,-23.58 365.06,-21.28 371.71,-29.53 375.4,-23.58"/>
</a>
</g>
</g>
<!-- Node14&#45;&gt;Node5 -->
<g id="edge23_Node000014_Node000005" class="edge">
<title>Node14&#45;&gt;Node5</title>
<g id="a_edge23_Node000014_Node000005"><a xlink:title=" ">
<path fill="none" stroke="#63b8ff" d="M527.71,-167.72C530.06,-145.38 532.71,-88.11 503.5,-56 471.91,-21.27 415.27,-12.72 379.91,-10.96"/>
<polygon fill="#63b8ff" stroke="#63b8ff" points="380.42,-7.48 370.31,-10.65 380.19,-14.48 380.42,-7.48"/>
</a>
</g>
</g>
<!-- Node15 -->
<g id="Node000015" class="node">
<title>Node15</title>
<g id="a_Node000015"><a xlink:title=" ">
<polygon fill="#e0e0e0" stroke="#999999" points="616.25,-132 550.75,-132 550.75,-112 616.25,-112 616.25,-132"/>
<text xml:space="preserve" text-anchor="middle" x="583.5" y="-118.5" font-family="Helvetica,sans-Serif" font-size="10.00">string_view</text>
</a>
</g>
</g>
<!-- Node14&#45;&gt;Node15 -->
<g id="edge24_Node000014_Node000015" class="edge">
<title>Node14&#45;&gt;Node15</title>
<g id="a_edge24_Node000014_Node000015"><a xlink:title=" ">
<path fill="none" stroke="#63b8ff" d="M536.43,-167.59C544.44,-160.01 555.92,-149.13 565.53,-140.02"/>
<polygon fill="#63b8ff" stroke="#63b8ff" points="567.73,-142.76 572.59,-133.34 562.92,-137.68 567.73,-142.76"/>
</a>
</g>
</g>
</g>
</svg>
