<?xml version="1.0" encoding="UTF-8" standalone="no"?>
<!DOCTYPE svg PUBLIC "-//W3C//DTD SVG 1.1//EN"
 "http://www.w3.org/Graphics/SVG/1.1/DTD/svg11.dtd">
<!-- Generated by graphviz version 14.0.2 (20251019.1705)
 -->
<!-- Title: ProjectManager.h Pages: 1 -->
<svg width="299pt" height="140pt"
 viewBox="0.00 0.00 299.00 140.00" xmlns="http://www.w3.org/2000/svg" xmlns:xlink="http://www.w3.org/1999/xlink">
<g id="graph0" class="graph" transform="scale(1 1) rotate(0) translate(4 136)">
<title>ProjectManager.h</title>
<!-- Node1 -->
<g id="Node000001" class="node">
<title>Node1</title>
<g id="a_Node000001"><a xlink:title=" ">
<polygon fill="#999999" stroke="#666666" points="171,-132 78.5,-132 78.5,-112 171,-112 171,-132"/>
<text xml:space="preserve" text-anchor="middle" x="124.75" y="-118.5" font-family="Helvetica,sans-Serif" font-size="10.00">ProjectManager.h</text>
</a>
</g>
</g>
<!-- Node2 -->
<g id="Node000002" class="node">
<title>Node2</title>
<g id="a_Node000002"><a xlink:href="ProjectBrowser_8cpp.html" target="_top" xlink:title=" ">
<polygon fill="white" stroke="#666666" points="101.5,-20 0,-20 0,0 101.5,0 101.5,-20"/>
<text xml:space="preserve" text-anchor="middle" x="50.75" y="-6.5" font-family="Helvetica,sans-Serif" font-size="10.00">ProjectBrowser.cpp</text>
</a>
</g>
</g>
<!-- Node1&#45;&gt;Node2 -->
<g id="edge1_Node000001_Node000002" class="edge">
<title>Node1&#45;&gt;Node2</title>
<g id="a_edge1_Node000001_Node000002"><a xlink:title=" ">
<path fill="none" stroke="#63b8ff" d="M100.26,-105.37C89.87,-97.65 78.41,-87.51 70.75,-76 58.97,-58.31 53.87,-33.36 51.88,-20.11"/>
<polygon fill="#63b8ff" stroke="#63b8ff" points="97.93,-108.01 108.13,-110.89 101.95,-102.28 97.93,-108.01"/>
</a>
</g>
</g>
<!-- Node3 -->
<g id="Node000003" class="node">
<title>Node3</title>
<g id="a_Node000003"><a xlink:href="ProjectBrowser_8h.html" target="_top" xlink:title=" ">
<polygon fill="white" stroke="#666666" points="170.25,-76 79.25,-76 79.25,-56 170.25,-56 170.25,-76"/>
<text xml:space="preserve" text-anchor="middle" x="124.75" y="-62.5" font-family="Helvetica,sans-Serif" font-size="10.00">ProjectBrowser.h</text>
</a>
</g>
</g>
<!-- Node1&#45;&gt;Node3 -->
<g id="edge2_Node000001_Node000003" class="edge">
<title>Node1&#45;&gt;Node3</title>
<g id="a_edge2_Node000001_Node000003"><a xlink:title=" ">
<path fill="none" stroke="#63b8ff" d="M124.75,-100.13C124.75,-91.9 124.75,-82.85 124.75,-76.3"/>
<polygon fill="#63b8ff" stroke="#63b8ff" points="121.25,-100.08 124.75,-110.08 128.25,-100.08 121.25,-100.08"/>
</a>
</g>
</g>
<!-- Node5 -->
<g id="Node000005" class="node">
<title>Node5</title>
<g id="a_Node000005"><a xlink:href="ProjectManager_8cpp.html" target="_top" xlink:title=" ">
<polygon fill="white" stroke="#666666" points="291.25,-76 188.25,-76 188.25,-56 291.25,-56 291.25,-76"/>
<text xml:space="preserve" text-anchor="middle" x="239.75" y="-62.5" font-family="Helvetica,sans-Serif" font-size="10.00">ProjectManager.cpp</text>
</a>
</g>
</g>
<!-- Node1&#45;&gt;Node5 -->
<g id="edge5_Node000001_Node000005" class="edge">
<title>Node1&#45;&gt;Node5</title>
<g id="a_edge5_Node000001_Node000005"><a xlink:title=" ">
<path fill="none" stroke="#63b8ff" d="M155.11,-106.75C175.47,-97.18 201.73,-84.85 219.56,-76.48"/>
<polygon fill="#63b8ff" stroke="#63b8ff" points="153.72,-103.53 146.15,-110.95 156.69,-109.87 153.72,-103.53"/>
</a>
</g>
</g>
<!-- Node3&#45;&gt;Node2 -->
<g id="edge3_Node000003_Node000002" class="edge">
<title>Node3&#45;&gt;Node2</title>
<g id="a_edge3_Node000003_Node000002"><a xlink:title=" ">
<path fill="none" stroke="#63b8ff" d="M102.76,-48.95C89.96,-39.61 74.27,-28.16 63.49,-20.3"/>
<polygon fill="#63b8ff" stroke="#63b8ff" points="100.5,-51.63 110.64,-54.7 104.62,-45.98 100.5,-51.63"/>
</a>
</g>
</g>
<!-- Node4 -->
<g id="Node000004" class="node">
<title>Node4</title>
<g id="a_Node000004"><a xlink:href="main_8cpp.html" target="_top" xlink:title=" ">
<polygon fill="white" stroke="#666666" points="175.62,-20 119.88,-20 119.88,0 175.62,0 175.62,-20"/>
<text xml:space="preserve" text-anchor="middle" x="147.75" y="-6.5" font-family="Helvetica,sans-Serif" font-size="10.00">main.cpp</text>
</a>
</g>
</g>
<!-- Node3&#45;&gt;Node4 -->
<g id="edge4_Node000003_Node000004" class="edge">
<title>Node3&#45;&gt;Node4</title>
<g id="a_edge4_Node000003_Node000004"><a xlink:title=" ">
<path fill="none" stroke="#63b8ff" d="M133.27,-45C136.87,-36.54 140.9,-27.08 143.79,-20.3"/>
<polygon fill="#63b8ff" stroke="#63b8ff" points="130.05,-43.63 129.35,-54.2 136.49,-46.37 130.05,-43.63"/>
</a>
</g>
</g>
</g>
</svg>
