<?xml version="1.0" encoding="UTF-8" standalone="no"?>
<!DOCTYPE svg PUBLIC "-//W3C//DTD SVG 1.1//EN"
 "http://www.w3.org/Graphics/SVG/1.1/DTD/svg11.dtd">
<!-- Generated by graphviz version 14.0.2 (20251019.1705)
 -->
<!-- Title: Project.cpp Pages: 1 -->
<svg width="907pt" height="196pt"
 viewBox="0.00 0.00 907.00 196.00" xmlns="http://www.w3.org/2000/svg" xmlns:xlink="http://www.w3.org/1999/xlink">
<g id="graph0" class="graph" transform="scale(1 1) rotate(0) translate(4 192)">
<title>Project.cpp</title>
<!-- Node1 -->
<g id="Node000001" class="node">
<title>Node1</title>
<g id="a_Node000001"><a xlink:title=" ">
<polygon fill="#999999" stroke="#666666" points="613.75,-188 548.25,-188 548.25,-168 613.75,-168 613.75,-188"/>
<text xml:space="preserve" text-anchor="middle" x="581" y="-174.5" font-family="Helvetica,sans-Serif" font-size="10.00">Project.cpp</text>
</a>
</g>
</g>
<!-- Node2 -->
<g id="Node000002" class="node">
<title>Node2</title>
<g id="a_Node000002"><a xlink:href="Project_8h.html" target="_top" xlink:title=" ">
<polygon fill="white" stroke="#666666" points="390.38,-76 301.62,-76 301.62,-56 390.38,-56 390.38,-76"/>
<text xml:space="preserve" text-anchor="middle" x="346" y="-62.5" font-family="Helvetica,sans-Serif" font-size="10.00">LGE/fs/Project.h</text>
</a>
</g>
</g>
<!-- Node1&#45;&gt;Node2 -->
<g id="edge1_Node000001_Node000002" class="edge">
<title>Node1&#45;&gt;Node2</title>
<g id="a_edge1_Node000001_Node000002"><a xlink:title=" ">
<path fill="none" stroke="#63b8ff" d="M547.79,-173.98C511.13,-169.43 451.42,-158.33 407,-132 387.1,-120.2 369.64,-100.02 358.55,-85.26"/>
<polygon fill="#63b8ff" stroke="#63b8ff" points="361.52,-83.39 352.83,-77.32 355.83,-87.48 361.52,-83.39"/>
</a>
</g>
</g>
<!-- Node4 -->
<g id="Node000004" class="node">
<title>Node4</title>
<g id="a_Node000004"><a xlink:title=" ">
<polygon fill="#e0e0e0" stroke="#999999" points="501.5,-20 440.5,-20 440.5,0 501.5,0 501.5,-20"/>
<text xml:space="preserve" text-anchor="middle" x="471" y="-6.5" font-family="Helvetica,sans-Serif" font-size="10.00">filesystem</text>
</a>
</g>
</g>
<!-- Node1&#45;&gt;Node4 -->
<g id="edge19_Node000001_Node000004" class="edge">
<title>Node1&#45;&gt;Node4</title>
<g id="a_edge19_Node000001_Node000004"><a xlink:title=" ">
<path fill="none" stroke="#63b8ff" d="M573.46,-167.65C566.46,-158.75 555.94,-144.86 548,-132 528.04,-99.7 530.05,-87.6 509,-56 502.72,-46.58 494.77,-36.89 487.77,-28.93"/>
<polygon fill="#63b8ff" stroke="#63b8ff" points="490.45,-26.69 481.15,-21.62 485.26,-31.38 490.45,-26.69"/>
</a>
</g>
</g>
<!-- Node5 -->
<g id="Node000005" class="node">
<title>Node5</title>
<g id="a_Node000005"><a xlink:href="Migration_8h.html" target="_top" xlink:title=" ">
<polygon fill="white" stroke="#666666" points="284.88,-132 187.12,-132 187.12,-112 284.88,-112 284.88,-132"/>
<text xml:space="preserve" text-anchor="middle" x="236" y="-118.5" font-family="Helvetica,sans-Serif" font-size="10.00">LGE/fs/Migration.h</text>
</a>
</g>
</g>
<!-- Node1&#45;&gt;Node5 -->
<g id="edge4_Node000001_Node000005" class="edge">
<title>Node1&#45;&gt;Node5</title>
<g id="a_edge4_Node000001_Node000005"><a xlink:title=" ">
<path fill="none" stroke="#63b8ff" d="M547.92,-171.82C490.05,-162.76 369.64,-143.92 296.52,-132.47"/>
<polygon fill="#63b8ff" stroke="#63b8ff" points="297.12,-129.02 286.7,-130.94 296.04,-135.94 297.12,-129.02"/>
</a>
</g>
</g>
<!-- Node12 -->
<g id="Node000012" class="node">
<title>Node12</title>
<g id="a_Node000012"><a xlink:href="Log_8h.html" target="_top" xlink:title=" ">
<polygon fill="white" stroke="#666666" points="500.12,-132 415.88,-132 415.88,-112 500.12,-112 500.12,-132"/>
<text xml:space="preserve" text-anchor="middle" x="458" y="-118.5" font-family="Helvetica,sans-Serif" font-size="10.00">LGE/core/Log.h</text>
</a>
</g>
</g>
<!-- Node1&#45;&gt;Node12 -->
<g id="edge16_Node000001_Node000012" class="edge">
<title>Node1&#45;&gt;Node12</title>
<g id="a_edge16_Node000001_Node000012"><a xlink:title=" ">
<path fill="none" stroke="#63b8ff" d="M559.58,-167.59C540.38,-159.17 511.96,-146.69 490.06,-137.07"/>
<polygon fill="#63b8ff" stroke="#63b8ff" points="491.54,-133.9 480.98,-133.09 488.73,-140.31 491.54,-133.9"/>
</a>
</g>
</g>
<!-- Node14 -->
<g id="Node000014" class="node">
<title>Node14</title>
<g id="a_Node000014"><a xlink:title=" ">
<polygon fill="#e0e0e0" stroke="#999999" points="605.5,-132 556.5,-132 556.5,-112 605.5,-112 605.5,-132"/>
<text xml:space="preserve" text-anchor="middle" x="581" y="-118.5" font-family="Helvetica,sans-Serif" font-size="10.00">fstream</text>
</a>
</g>
</g>
<!-- Node1&#45;&gt;Node14 -->
<g id="edge20_Node000001_Node000014" class="edge">
<title>Node1&#45;&gt;Node14</title>
<g id="a_edge20_Node000001_Node000014"><a xlink:title=" ">
<path fill="none" stroke="#63b8ff" d="M581,-167.59C581,-161.01 581,-151.96 581,-143.73"/>
<polygon fill="#63b8ff" stroke="#63b8ff" points="584.5,-143.81 581,-133.81 577.5,-143.81 584.5,-143.81"/>
</a>
</g>
</g>
<!-- Node15 -->
<g id="Node000015" class="node">
<title>Node15</title>
<g id="a_Node000015"><a xlink:title=" ">
<polygon fill="#e0e0e0" stroke="#999999" points="678.88,-132 623.12,-132 623.12,-112 678.88,-112 678.88,-132"/>
<text xml:space="preserve" text-anchor="middle" x="651" y="-118.5" font-family="Helvetica,sans-Serif" font-size="10.00">algorithm</text>
</a>
</g>
</g>
<!-- Node1&#45;&gt;Node15 -->
<g id="edge21_Node000001_Node000015" class="edge">
<title>Node1&#45;&gt;Node15</title>
<g id="a_edge21_Node000001_Node000015"><a xlink:title=" ">
<path fill="none" stroke="#63b8ff" d="M593.19,-167.59C603.33,-159.77 617.99,-148.46 630.01,-139.19"/>
<polygon fill="#63b8ff" stroke="#63b8ff" points="631.97,-142.1 637.75,-133.22 627.69,-136.56 631.97,-142.1"/>
</a>
</g>
</g>
<!-- Node16 -->
<g id="Node000016" class="node">
<title>Node16</title>
<g id="a_Node000016"><a xlink:title=" ">
<polygon fill="#e0e0e0" stroke="#999999" points="748.62,-132 697.38,-132 697.38,-112 748.62,-112 748.62,-132"/>
<text xml:space="preserve" text-anchor="middle" x="723" y="-118.5" font-family="Helvetica,sans-Serif" font-size="10.00">sstream</text>
</a>
</g>
</g>
<!-- Node1&#45;&gt;Node16 -->
<g id="edge22_Node000001_Node000016" class="edge">
<title>Node1&#45;&gt;Node16</title>
<g id="a_edge22_Node000001_Node000016"><a xlink:title=" ">
<path fill="none" stroke="#63b8ff" d="M605.73,-167.59C628.3,-159.01 661.91,-146.23 687.37,-136.55"/>
<polygon fill="#63b8ff" stroke="#63b8ff" points="688.55,-139.84 696.66,-133.02 686.07,-133.3 688.55,-139.84"/>
</a>
</g>
</g>
<!-- Node17 -->
<g id="Node000017" class="node">
<title>Node17</title>
<g id="a_Node000017"><a xlink:title=" ">
<polygon fill="#e0e0e0" stroke="#999999" points="816.88,-132 767.12,-132 767.12,-112 816.88,-112 816.88,-132"/>
<text xml:space="preserve" text-anchor="middle" x="792" y="-118.5" font-family="Helvetica,sans-Serif" font-size="10.00">iomanip</text>
</a>
</g>
</g>
<!-- Node1&#45;&gt;Node17 -->
<g id="edge23_Node000001_Node000017" class="edge">
<title>Node1&#45;&gt;Node17</title>
<g id="a_edge23_Node000001_Node000017"><a xlink:title=" ">
<path fill="none" stroke="#63b8ff" d="M613.97,-168.72C647.32,-160.32 700.62,-146.84 755.72,-132.57"/>
<polygon fill="#63b8ff" stroke="#63b8ff" points="756.49,-135.99 765.29,-130.09 754.73,-129.21 756.49,-135.99"/>
</a>
</g>
</g>
<!-- Node18 -->
<g id="Node000018" class="node">
<title>Node18</title>
<g id="a_Node000018"><a xlink:title=" ">
<polygon fill="#e0e0e0" stroke="#999999" points="898.62,-132 835.38,-132 835.38,-112 898.62,-112 898.62,-132"/>
<text xml:space="preserve" text-anchor="middle" x="867" y="-118.5" font-family="Helvetica,sans-Serif" font-size="10.00">uuid/uuid.h</text>
</a>
</g>
</g>
<!-- Node1&#45;&gt;Node18 -->
<g id="edge24_Node000001_Node000018" class="edge">
<title>Node1&#45;&gt;Node18</title>
<g id="a_edge24_Node000001_Node000018"><a xlink:title=" ">
<path fill="none" stroke="#63b8ff" d="M613.96,-171.32C659.04,-163.46 742.73,-148.6 824.27,-132.29"/>
<polygon fill="#63b8ff" stroke="#63b8ff" points="824.64,-135.79 833.75,-130.38 823.26,-128.92 824.64,-135.79"/>
</a>
</g>
</g>
<!-- Node3 -->
<g id="Node000003" class="node">
<title>Node3</title>
<g id="a_Node000003"><a xlink:title=" ">
<polygon fill="#e0e0e0" stroke="#999999" points="356,-20 316,-20 316,0 356,0 356,-20"/>
<text xml:space="preserve" text-anchor="middle" x="336" y="-6.5" font-family="Helvetica,sans-Serif" font-size="10.00">string</text>
</a>
</g>
</g>
<!-- Node2&#45;&gt;Node3 -->
<g id="edge2_Node000002_Node000003" class="edge">
<title>Node2&#45;&gt;Node3</title>
<g id="a_edge2_Node000002_Node000003"><a xlink:title=" ">
<path fill="none" stroke="#63b8ff" d="M344.26,-55.59C343.02,-48.93 341.32,-39.75 339.79,-31.44"/>
<polygon fill="#63b8ff" stroke="#63b8ff" points="343.26,-30.98 338,-21.79 336.38,-32.26 343.26,-30.98"/>
</a>
</g>
</g>
<!-- Node2&#45;&gt;Node4 -->
<g id="edge3_Node000002_Node000004" class="edge">
<title>Node2&#45;&gt;Node4</title>
<g id="a_edge3_Node000002_Node000004"><a xlink:title=" ">
<path fill="none" stroke="#63b8ff" d="M367.77,-55.59C387.37,-47.13 416.43,-34.58 438.72,-24.94"/>
<polygon fill="#63b8ff" stroke="#63b8ff" points="439.88,-28.26 447.67,-21.08 437.1,-21.83 439.88,-28.26"/>
</a>
</g>
</g>
<!-- Node5&#45;&gt;Node2 -->
<g id="edge11_Node000005_Node000002" class="edge">
<title>Node5&#45;&gt;Node2</title>
<g id="a_edge11_Node000005_Node000002"><a xlink:title=" ">
<path fill="none" stroke="#63b8ff" d="M255.16,-111.59C272.09,-103.28 297.05,-91.03 316.52,-81.47"/>
<polygon fill="#63b8ff" stroke="#63b8ff" points="317.9,-84.7 325.33,-77.15 314.81,-78.41 317.9,-84.7"/>
</a>
</g>
</g>
<!-- Node5&#45;&gt;Node3 -->
<g id="edge12_Node000005_Node000003" class="edge">
<title>Node5&#45;&gt;Node3</title>
<g id="a_edge12_Node000005_Node000003"><a xlink:title=" ">
<path fill="none" stroke="#63b8ff" d="M243.99,-111.63C254.91,-98.9 275.16,-75.48 293,-56 301.47,-46.75 311.09,-36.64 319.09,-28.35"/>
<polygon fill="#63b8ff" stroke="#63b8ff" points="321.49,-30.9 325.94,-21.29 316.46,-26.03 321.49,-30.9"/>
</a>
</g>
</g>
<!-- Node6 -->
<g id="Node000006" class="node">
<title>Node6</title>
<g id="a_Node000006"><a xlink:href="MetaDB_8h.html" target="_top" xlink:title=" ">
<polygon fill="white" stroke="#666666" points="208,-76 114,-76 114,-56 208,-56 208,-76"/>
<text xml:space="preserve" text-anchor="middle" x="161" y="-62.5" font-family="Helvetica,sans-Serif" font-size="10.00">LGE/fs/MetaDB.h</text>
</a>
</g>
</g>
<!-- Node5&#45;&gt;Node6 -->
<g id="edge5_Node000005_Node000006" class="edge">
<title>Node5&#45;&gt;Node6</title>
<g id="a_edge5_Node000005_Node000006"><a xlink:title=" ">
<path fill="none" stroke="#63b8ff" d="M222.94,-111.59C212.03,-103.74 196.25,-92.38 183.34,-83.09"/>
<polygon fill="#63b8ff" stroke="#63b8ff" points="185.55,-80.37 175.39,-77.36 181.46,-86.05 185.55,-80.37"/>
</a>
</g>
</g>
<!-- Node7 -->
<g id="Node000007" class="node">
<title>Node7</title>
<g id="a_Node000007"><a xlink:title=" ">
<polygon fill="#e0e0e0" stroke="#999999" points="278.75,-20 213.25,-20 213.25,0 278.75,0 278.75,-20"/>
<text xml:space="preserve" text-anchor="middle" x="246" y="-6.5" font-family="Helvetica,sans-Serif" font-size="10.00">string_view</text>
</a>
</g>
</g>
<!-- Node5&#45;&gt;Node7 -->
<g id="edge13_Node000005_Node000007" class="edge">
<title>Node5&#45;&gt;Node7</title>
<g id="a_edge13_Node000005_Node000007"><a xlink:title=" ">
<path fill="none" stroke="#63b8ff" d="M236.85,-111.62C238.45,-94.01 241.95,-55.59 244.12,-31.65"/>
<polygon fill="#63b8ff" stroke="#63b8ff" points="247.59,-32.14 245.01,-21.86 240.62,-31.5 247.59,-32.14"/>
</a>
</g>
</g>
<!-- Node8 -->
<g id="Node000008" class="node">
<title>Node8</title>
<g id="a_Node000008"><a xlink:title=" ">
<polygon fill="#e0e0e0" stroke="#999999" points="64.5,-20 21.5,-20 21.5,0 64.5,0 64.5,-20"/>
<text xml:space="preserve" text-anchor="middle" x="43" y="-6.5" font-family="Helvetica,sans-Serif" font-size="10.00">vector</text>
</a>
</g>
</g>
<!-- Node5&#45;&gt;Node8 -->
<g id="edge15_Node000005_Node000008" class="edge">
<title>Node5&#45;&gt;Node8</title>
<g id="a_edge15_Node000005_Node000008"><a xlink:title=" ">
<path fill="none" stroke="#63b8ff" d="M192.08,-111.53C165.46,-104.47 131.62,-93.06 105,-76 85.58,-63.56 67.91,-43.8 56.45,-29.33"/>
<polygon fill="#63b8ff" stroke="#63b8ff" points="59.33,-27.34 50.48,-21.52 53.77,-31.59 59.33,-27.34"/>
</a>
</g>
</g>
<!-- Node11 -->
<g id="Node000011" class="node">
<title>Node11</title>
<g id="a_Node000011"><a xlink:title=" ">
<polygon fill="#e0e0e0" stroke="#999999" points="58,-76 0,-76 0,-56 58,-56 58,-76"/>
<text xml:space="preserve" text-anchor="middle" x="29" y="-62.5" font-family="Helvetica,sans-Serif" font-size="10.00">functional</text>
</a>
</g>
</g>
<!-- Node5&#45;&gt;Node11 -->
<g id="edge14_Node000005_Node000011" class="edge">
<title>Node5&#45;&gt;Node11</title>
<g id="a_edge14_Node000005_Node000011"><a xlink:title=" ">
<path fill="none" stroke="#63b8ff" d="M199.94,-111.59C163.52,-102.09 107.35,-87.44 69.43,-77.55"/>
<polygon fill="#63b8ff" stroke="#63b8ff" points="70.32,-74.16 59.76,-75.02 68.55,-80.93 70.32,-74.16"/>
</a>
</g>
</g>
<!-- Node6&#45;&gt;Node3 -->
<g id="edge6_Node000006_Node000003" class="edge">
<title>Node6&#45;&gt;Node3</title>
<g id="a_edge6_Node000006_Node000003"><a xlink:title=" ">
<path fill="none" stroke="#63b8ff" d="M191.48,-55.59C223.23,-45.8 272.71,-30.53 304.74,-20.64"/>
<polygon fill="#63b8ff" stroke="#63b8ff" points="305.72,-24.01 314.24,-17.71 303.66,-17.32 305.72,-24.01"/>
</a>
</g>
</g>
<!-- Node6&#45;&gt;Node7 -->
<g id="edge7_Node000006_Node000007" class="edge">
<title>Node6&#45;&gt;Node7</title>
<g id="a_edge7_Node000006_Node000007"><a xlink:title=" ">
<path fill="none" stroke="#63b8ff" d="M175.81,-55.59C188.4,-47.59 206.75,-35.93 221.53,-26.54"/>
<polygon fill="#63b8ff" stroke="#63b8ff" points="223.24,-29.61 229.8,-21.29 219.48,-23.7 223.24,-29.61"/>
</a>
</g>
</g>
<!-- Node6&#45;&gt;Node8 -->
<g id="edge8_Node000006_Node000008" class="edge">
<title>Node6&#45;&gt;Node8</title>
<g id="a_edge8_Node000006_Node000008"><a xlink:title=" ">
<path fill="none" stroke="#63b8ff" d="M140.45,-55.59C122.12,-47.21 95.01,-34.8 74.04,-25.21"/>
<polygon fill="#63b8ff" stroke="#63b8ff" points="75.64,-22.09 65.09,-21.11 72.73,-28.45 75.64,-22.09"/>
</a>
</g>
</g>
<!-- Node9 -->
<g id="Node000009" class="node">
<title>Node9</title>
<g id="a_Node000009"><a xlink:title=" ">
<polygon fill="#e0e0e0" stroke="#999999" points="131.88,-20 82.12,-20 82.12,0 131.88,0 131.88,-20"/>
<text xml:space="preserve" text-anchor="middle" x="107" y="-6.5" font-family="Helvetica,sans-Serif" font-size="10.00">optional</text>
</a>
</g>
</g>
<!-- Node6&#45;&gt;Node9 -->
<g id="edge9_Node000006_Node000009" class="edge">
<title>Node6&#45;&gt;Node9</title>
<g id="a_edge9_Node000006_Node000009"><a xlink:title=" ">
<path fill="none" stroke="#63b8ff" d="M151.59,-55.59C144.08,-48.08 133.35,-37.35 124.3,-28.3"/>
<polygon fill="#63b8ff" stroke="#63b8ff" points="126.91,-25.96 117.37,-21.37 121.96,-30.91 126.91,-25.96"/>
</a>
</g>
</g>
<!-- Node10 -->
<g id="Node000010" class="node">
<title>Node10</title>
<g id="a_Node000010"><a xlink:title=" ">
<polygon fill="#e0e0e0" stroke="#999999" points="195.62,-20 150.38,-20 150.38,0 195.62,0 195.62,-20"/>
<text xml:space="preserve" text-anchor="middle" x="173" y="-6.5" font-family="Helvetica,sans-Serif" font-size="10.00">cstdint</text>
</a>
</g>
</g>
<!-- Node6&#45;&gt;Node10 -->
<g id="edge10_Node000006_Node000010" class="edge">
<title>Node6&#45;&gt;Node10</title>
<g id="a_edge10_Node000006_Node000010"><a xlink:title=" ">
<path fill="none" stroke="#63b8ff" d="M163.09,-55.59C164.57,-48.93 166.61,-39.75 168.46,-31.44"/>
<polygon fill="#63b8ff" stroke="#63b8ff" points="171.85,-32.3 170.61,-21.78 165.02,-30.78 171.85,-32.3"/>
</a>
</g>
</g>
<!-- Node12&#45;&gt;Node3 -->
<g id="edge18_Node000012_Node000003" class="edge">
<title>Node12&#45;&gt;Node3</title>
<g id="a_edge18_Node000012_Node000003"><a xlink:title=" ">
<path fill="none" stroke="#63b8ff" d="M450.55,-111.6C439.88,-98.41 419.27,-74.03 399,-56 387,-45.32 372.47,-34.8 360.39,-26.63"/>
<polygon fill="#63b8ff" stroke="#63b8ff" points="362.46,-23.8 352.19,-21.19 358.59,-29.63 362.46,-23.8"/>
</a>
</g>
</g>
<!-- Node13 -->
<g id="Node000013" class="node">
<title>Node13</title>
<g id="a_Node000013"><a xlink:title=" ">
<polygon fill="#e0e0e0" stroke="#999999" points="499.75,-76 446.25,-76 446.25,-56 499.75,-56 499.75,-76"/>
<text xml:space="preserve" text-anchor="middle" x="473" y="-62.5" font-family="Helvetica,sans-Serif" font-size="10.00">iostream</text>
</a>
</g>
</g>
<!-- Node12&#45;&gt;Node13 -->
<g id="edge17_Node000012_Node000013" class="edge">
<title>Node12&#45;&gt;Node13</title>
<g id="a_edge17_Node000012_Node000013"><a xlink:title=" ">
<path fill="none" stroke="#63b8ff" d="M460.61,-111.59C462.48,-104.86 465.07,-95.53 467.4,-87.15"/>
<polygon fill="#63b8ff" stroke="#63b8ff" points="470.71,-88.33 470.01,-77.76 463.96,-86.46 470.71,-88.33"/>
</a>
</g>
</g>
</g>
</svg>
