<?xml version="1.0" encoding="UTF-8" standalone="no"?>
<!DOCTYPE svg PUBLIC "-//W3C//DTD SVG 1.1//EN"
 "http://www.w3.org/Graphics/SVG/1.1/DTD/svg11.dtd">
<!-- Generated by graphviz version 14.0.2 (20251019.1705)
 -->
<!-- Title: ProjectBrowser.h Pages: 1 -->
<svg width="281pt" height="196pt"
 viewBox="0.00 0.00 281.00 196.00" xmlns="http://www.w3.org/2000/svg" xmlns:xlink="http://www.w3.org/1999/xlink">
<g id="graph0" class="graph" transform="scale(1 1) rotate(0) translate(4 192)">
<title>ProjectBrowser.h</title>
<!-- Node1 -->
<g id="Node000001" class="node">
<title>Node1</title>
<g id="a_Node000001"><a xlink:title=" ">
<polygon fill="#999999" stroke="#666666" points="127.84,-188 36.84,-188 36.84,-168 127.84,-168 127.84,-188"/>
<text xml:space="preserve" text-anchor="middle" x="82.34" y="-174.5" font-family="Helvetica,sans-Serif" font-size="10.00">ProjectBrowser.h</text>
</a>
</g>
</g>
<!-- Node2 -->
<g id="Node000002" class="node">
<title>Node2</title>
<g id="a_Node000002"><a xlink:href="ProjectManager_8h.html" target="_top" xlink:title=" ">
<polygon fill="white" stroke="#666666" points="191.09,-132 65.59,-132 65.59,-112 191.09,-112 191.09,-132"/>
<text xml:space="preserve" text-anchor="middle" x="128.34" y="-118.5" font-family="Helvetica,sans-Serif" font-size="10.00">LGE/ui/ProjectManager.h</text>
</a>
</g>
</g>
<!-- Node1&#45;&gt;Node2 -->
<g id="edge1_Node000001_Node000002" class="edge">
<title>Node1&#45;&gt;Node2</title>
<g id="a_edge1_Node000001_Node000002"><a xlink:title=" ">
<path fill="none" stroke="#63b8ff" d="M90.35,-167.59C96.62,-160.24 105.52,-149.8 113.12,-140.87"/>
<polygon fill="#63b8ff" stroke="#63b8ff" points="115.62,-143.33 119.44,-133.45 110.29,-138.79 115.62,-143.33"/>
</a>
</g>
</g>
<!-- Node4 -->
<g id="Node000004" class="node">
<title>Node4</title>
<g id="a_Node000004"><a xlink:title=" ">
<polygon fill="#e0e0e0" stroke="#999999" points="107.34,-20 67.34,-20 67.34,0 107.34,0 107.34,-20"/>
<text xml:space="preserve" text-anchor="middle" x="87.34" y="-6.5" font-family="Helvetica,sans-Serif" font-size="10.00">string</text>
</a>
</g>
</g>
<!-- Node1&#45;&gt;Node4 -->
<g id="edge8_Node000001_Node000004" class="edge">
<title>Node1&#45;&gt;Node4</title>
<g id="a_edge8_Node000001_Node000004"><a xlink:title=" ">
<path fill="none" stroke="#63b8ff" d="M68.57,-167.7C40.52,-147.57 -18.57,-98.33 6.34,-56 17.08,-37.74 38.2,-26.36 56.18,-19.61"/>
<polygon fill="#63b8ff" stroke="#63b8ff" points="57.08,-23.01 65.42,-16.48 54.83,-16.38 57.08,-23.01"/>
</a>
</g>
</g>
<!-- Node6 -->
<g id="Node000006" class="node">
<title>Node6</title>
<g id="a_Node000006"><a xlink:title=" ">
<polygon fill="#e0e0e0" stroke="#999999" points="58.84,-76 15.84,-76 15.84,-56 58.84,-56 58.84,-76"/>
<text xml:space="preserve" text-anchor="middle" x="37.34" y="-62.5" font-family="Helvetica,sans-Serif" font-size="10.00">vector</text>
</a>
</g>
</g>
<!-- Node1&#45;&gt;Node6 -->
<g id="edge9_Node000001_Node000006" class="edge">
<title>Node1&#45;&gt;Node6</title>
<g id="a_edge9_Node000001_Node000006"><a xlink:title=" ">
<path fill="none" stroke="#63b8ff" d="M76.07,-167.69C70.32,-158.82 61.88,-144.94 56.34,-132 50.11,-117.42 45.17,-100.16 41.89,-87.09"/>
<polygon fill="#63b8ff" stroke="#63b8ff" points="45.34,-86.46 39.62,-77.54 38.53,-88.08 45.34,-86.46"/>
</a>
</g>
</g>
<!-- Node7 -->
<g id="Node000007" class="node">
<title>Node7</title>
<g id="a_Node000007"><a xlink:title=" ">
<polygon fill="#e0e0e0" stroke="#999999" points="272.97,-76 221.72,-76 221.72,-56 272.97,-56 272.97,-76"/>
<text xml:space="preserve" text-anchor="middle" x="247.34" y="-62.5" font-family="Helvetica,sans-Serif" font-size="10.00">memory</text>
</a>
</g>
</g>
<!-- Node1&#45;&gt;Node7 -->
<g id="edge10_Node000001_Node000007" class="edge">
<title>Node1&#45;&gt;Node7</title>
<g id="a_edge10_Node000001_Node000007"><a xlink:title=" ">
<path fill="none" stroke="#63b8ff" d="M123.8,-167.56C147.89,-160.6 177.82,-149.29 200.34,-132 216.36,-119.7 229.32,-100.48 237.54,-86.12"/>
<polygon fill="#63b8ff" stroke="#63b8ff" points="240.46,-88.08 242.15,-77.62 234.3,-84.74 240.46,-88.08"/>
</a>
</g>
</g>
<!-- Node3 -->
<g id="Node000003" class="node">
<title>Node3</title>
<g id="a_Node000003"><a xlink:href="Project_8h.html" target="_top" xlink:title=" ">
<polygon fill="white" stroke="#666666" points="203.72,-76 114.97,-76 114.97,-56 203.72,-56 203.72,-76"/>
<text xml:space="preserve" text-anchor="middle" x="159.34" y="-62.5" font-family="Helvetica,sans-Serif" font-size="10.00">LGE/fs/Project.h</text>
</a>
</g>
</g>
<!-- Node2&#45;&gt;Node3 -->
<g id="edge2_Node000002_Node000003" class="edge">
<title>Node2&#45;&gt;Node3</title>
<g id="a_edge2_Node000002_Node000003"><a xlink:title=" ">
<path fill="none" stroke="#63b8ff" d="M133.74,-111.59C137.79,-104.55 143.46,-94.67 148.43,-86"/>
<polygon fill="#63b8ff" stroke="#63b8ff" points="151.31,-88.03 153.25,-77.61 145.24,-84.54 151.31,-88.03"/>
</a>
</g>
</g>
<!-- Node2&#45;&gt;Node4 -->
<g id="edge5_Node000002_Node000004" class="edge">
<title>Node2&#45;&gt;Node4</title>
<g id="a_edge5_Node000002_Node000004"><a xlink:title=" ">
<path fill="none" stroke="#63b8ff" d="M123.14,-111.56C118.34,-102.59 111.24,-88.65 106.34,-76 100.68,-61.38 95.76,-44.35 92.35,-31.39"/>
<polygon fill="#63b8ff" stroke="#63b8ff" points="95.79,-30.72 89.93,-21.89 89,-32.44 95.79,-30.72"/>
</a>
</g>
</g>
<!-- Node2&#45;&gt;Node6 -->
<g id="edge6_Node000002_Node000006" class="edge">
<title>Node2&#45;&gt;Node6</title>
<g id="a_edge6_Node000002_Node000006"><a xlink:title=" ">
<path fill="none" stroke="#63b8ff" d="M112.49,-111.59C98.87,-103.51 78.98,-91.71 63.08,-82.27"/>
<polygon fill="#63b8ff" stroke="#63b8ff" points="65,-79.35 54.62,-77.25 61.43,-85.37 65,-79.35"/>
</a>
</g>
</g>
<!-- Node2&#45;&gt;Node7 -->
<g id="edge7_Node000002_Node000007" class="edge">
<title>Node2&#45;&gt;Node7</title>
<g id="a_edge7_Node000002_Node000007"><a xlink:title=" ">
<path fill="none" stroke="#63b8ff" d="M149.07,-111.59C167.56,-103.21 194.89,-90.8 216.04,-81.21"/>
<polygon fill="#63b8ff" stroke="#63b8ff" points="217.41,-84.42 225.07,-77.1 214.52,-78.05 217.41,-84.42"/>
</a>
</g>
</g>
<!-- Node3&#45;&gt;Node4 -->
<g id="edge3_Node000003_Node000004" class="edge">
<title>Node3&#45;&gt;Node4</title>
<g id="a_edge3_Node000003_Node000004"><a xlink:title=" ">
<path fill="none" stroke="#63b8ff" d="M146.8,-55.59C136.37,-47.77 121.29,-36.46 108.93,-27.19"/>
<polygon fill="#63b8ff" stroke="#63b8ff" points="111.05,-24.41 100.95,-21.21 106.85,-30.01 111.05,-24.41"/>
</a>
</g>
</g>
<!-- Node5 -->
<g id="Node000005" class="node">
<title>Node5</title>
<g id="a_Node000005"><a xlink:title=" ">
<polygon fill="#e0e0e0" stroke="#999999" points="189.84,-20 128.84,-20 128.84,0 189.84,0 189.84,-20"/>
<text xml:space="preserve" text-anchor="middle" x="159.34" y="-6.5" font-family="Helvetica,sans-Serif" font-size="10.00">filesystem</text>
</a>
</g>
</g>
<!-- Node3&#45;&gt;Node5 -->
<g id="edge4_Node000003_Node000005" class="edge">
<title>Node3&#45;&gt;Node5</title>
<g id="a_edge4_Node000003_Node000005"><a xlink:title=" ">
<path fill="none" stroke="#63b8ff" d="M159.34,-55.59C159.34,-49.01 159.34,-39.96 159.34,-31.73"/>
<polygon fill="#63b8ff" stroke="#63b8ff" points="162.84,-31.81 159.34,-21.81 155.84,-31.81 162.84,-31.81"/>
</a>
</g>
</g>
</g>
</svg>
