<?xml version="1.0" encoding="UTF-8" standalone="no"?>
<!DOCTYPE svg PUBLIC "-//W3C//DTD SVG 1.1//EN"
 "http://www.w3.org/Graphics/SVG/1.1/DTD/svg11.dtd">
<!-- Generated by graphviz version 14.0.2 (20251019.1705)
 -->
<!-- Title: ProjectManager.h Pages: 1 -->
<svg width="273pt" height="140pt"
 viewBox="0.00 0.00 273.00 140.00" xmlns="http://www.w3.org/2000/svg" xmlns:xlink="http://www.w3.org/1999/xlink">
<g id="graph0" class="graph" transform="scale(1 1) rotate(0) translate(4 136)">
<title>ProjectManager.h</title>
<!-- Node1 -->
<g id="Node000001" class="node">
<title>Node1</title>
<g id="a_Node000001"><a xlink:title=" ">
<polygon fill="#999999" stroke="#666666" points="178.25,-132 85.75,-132 85.75,-112 178.25,-112 178.25,-132"/>
<text xml:space="preserve" text-anchor="middle" x="132" y="-118.5" font-family="Helvetica,sans-Serif" font-size="10.00">ProjectManager.h</text>
</a>
</g>
</g>
<!-- Node2 -->
<g id="Node000002" class="node">
<title>Node2</title>
<g id="a_Node000002"><a xlink:href="Project_8h.html" target="_top" xlink:title=" ">
<polygon fill="white" stroke="#666666" points="134.38,-76 45.62,-76 45.62,-56 134.38,-56 134.38,-76"/>
<text xml:space="preserve" text-anchor="middle" x="90" y="-62.5" font-family="Helvetica,sans-Serif" font-size="10.00">LGE/fs/Project.h</text>
</a>
</g>
</g>
<!-- Node1&#45;&gt;Node2 -->
<g id="edge1_Node000001_Node000002" class="edge">
<title>Node1&#45;&gt;Node2</title>
<g id="a_edge1_Node000001_Node000002"><a xlink:title=" ">
<path fill="none" stroke="#63b8ff" d="M124.68,-111.59C119.02,-104.32 111.01,-94.02 104.11,-85.15"/>
<polygon fill="#63b8ff" stroke="#63b8ff" points="107.06,-83.24 98.16,-77.49 101.54,-87.54 107.06,-83.24"/>
</a>
</g>
</g>
<!-- Node3 -->
<g id="Node000003" class="node">
<title>Node3</title>
<g id="a_Node000003"><a xlink:title=" ">
<polygon fill="#e0e0e0" stroke="#999999" points="40,-20 0,-20 0,0 40,0 40,-20"/>
<text xml:space="preserve" text-anchor="middle" x="20" y="-6.5" font-family="Helvetica,sans-Serif" font-size="10.00">string</text>
</a>
</g>
</g>
<!-- Node1&#45;&gt;Node3 -->
<g id="edge4_Node000001_Node000003" class="edge">
<title>Node1&#45;&gt;Node3</title>
<g id="a_edge4_Node000001_Node000003"><a xlink:title=" ">
<path fill="none" stroke="#63b8ff" d="M94.27,-111.51C74.55,-104.7 51.56,-93.56 37,-76 26.63,-63.49 22.51,-45.34 20.91,-31.4"/>
<polygon fill="#63b8ff" stroke="#63b8ff" points="24.41,-31.27 20.16,-21.57 17.43,-31.8 24.41,-31.27"/>
</a>
</g>
</g>
<!-- Node5 -->
<g id="Node000005" class="node">
<title>Node5</title>
<g id="a_Node000005"><a xlink:title=" ">
<polygon fill="#e0e0e0" stroke="#999999" points="195.5,-76 152.5,-76 152.5,-56 195.5,-56 195.5,-76"/>
<text xml:space="preserve" text-anchor="middle" x="174" y="-62.5" font-family="Helvetica,sans-Serif" font-size="10.00">vector</text>
</a>
</g>
</g>
<!-- Node1&#45;&gt;Node5 -->
<g id="edge5_Node000001_Node000005" class="edge">
<title>Node1&#45;&gt;Node5</title>
<g id="a_edge5_Node000001_Node000005"><a xlink:title=" ">
<path fill="none" stroke="#63b8ff" d="M139.32,-111.59C144.98,-104.32 152.99,-94.02 159.89,-85.15"/>
<polygon fill="#63b8ff" stroke="#63b8ff" points="162.46,-87.54 165.84,-77.49 156.94,-83.24 162.46,-87.54"/>
</a>
</g>
</g>
<!-- Node6 -->
<g id="Node000006" class="node">
<title>Node6</title>
<g id="a_Node000006"><a xlink:title=" ">
<polygon fill="#e0e0e0" stroke="#999999" points="264.62,-76 213.38,-76 213.38,-56 264.62,-56 264.62,-76"/>
<text xml:space="preserve" text-anchor="middle" x="239" y="-62.5" font-family="Helvetica,sans-Serif" font-size="10.00">memory</text>
</a>
</g>
</g>
<!-- Node1&#45;&gt;Node6 -->
<g id="edge6_Node000001_Node000006" class="edge">
<title>Node1&#45;&gt;Node6</title>
<g id="a_edge6_Node000001_Node000006"><a xlink:title=" ">
<path fill="none" stroke="#63b8ff" d="M150.64,-111.59C167.03,-103.32 191.16,-91.14 210.06,-81.6"/>
<polygon fill="#63b8ff" stroke="#63b8ff" points="211.51,-84.79 218.87,-77.16 208.36,-78.54 211.51,-84.79"/>
</a>
</g>
</g>
<!-- Node2&#45;&gt;Node3 -->
<g id="edge2_Node000002_Node000003" class="edge">
<title>Node2&#45;&gt;Node3</title>
<g id="a_edge2_Node000002_Node000003"><a xlink:title=" ">
<path fill="none" stroke="#63b8ff" d="M77.81,-55.59C67.67,-47.77 53.01,-36.46 40.99,-27.19"/>
<polygon fill="#63b8ff" stroke="#63b8ff" points="43.31,-24.56 33.25,-21.22 39.03,-30.1 43.31,-24.56"/>
</a>
</g>
</g>
<!-- Node4 -->
<g id="Node000004" class="node">
<title>Node4</title>
<g id="a_Node000004"><a xlink:title=" ">
<polygon fill="#e0e0e0" stroke="#999999" points="120.5,-20 59.5,-20 59.5,0 120.5,0 120.5,-20"/>
<text xml:space="preserve" text-anchor="middle" x="90" y="-6.5" font-family="Helvetica,sans-Serif" font-size="10.00">filesystem</text>
</a>
</g>
</g>
<!-- Node2&#45;&gt;Node4 -->
<g id="edge3_Node000002_Node000004" class="edge">
<title>Node2&#45;&gt;Node4</title>
<g id="a_edge3_Node000002_Node000004"><a xlink:title=" ">
<path fill="none" stroke="#63b8ff" d="M90,-55.59C90,-49.01 90,-39.96 90,-31.73"/>
<polygon fill="#63b8ff" stroke="#63b8ff" points="93.5,-31.81 90,-21.81 86.5,-31.81 93.5,-31.81"/>
</a>
</g>
</g>
</g>
</svg>
