<?xml version="1.0" encoding="UTF-8" standalone="no"?>
<!DOCTYPE svg PUBLIC "-//W3C//DTD SVG 1.1//EN"
 "http://www.w3.org/Graphics/SVG/1.1/DTD/svg11.dtd">
<!-- Generated by graphviz version 14.0.2 (20251019.1705)
 -->
<!-- Title: ProjectManager.cpp Pages: 1 -->
<svg width="1116pt" height="196pt"
 viewBox="0.00 0.00 1116.00 196.00" xmlns="http://www.w3.org/2000/svg" xmlns:xlink="http://www.w3.org/1999/xlink">
<g id="graph0" class="graph" transform="scale(1 1) rotate(0) translate(4 192)">
<title>ProjectManager.cpp</title>
<!-- Node1 -->
<g id="Node000001" class="node">
<title>Node1</title>
<g id="a_Node000001"><a xlink:title=" ">
<polygon fill="#999999" stroke="#666666" points="710,-188 607,-188 607,-168 710,-168 710,-188"/>
<text xml:space="preserve" text-anchor="middle" x="658.5" y="-174.5" font-family="Helvetica,sans-Serif" font-size="10.00">ProjectManager.cpp</text>
</a>
</g>
</g>
<!-- Node2 -->
<g id="Node000002" class="node">
<title>Node2</title>
<g id="a_Node000002"><a xlink:href="ProjectManager_8h.html" target="_top" xlink:title=" ">
<polygon fill="white" stroke="#666666" points="271.25,-132 145.75,-132 145.75,-112 271.25,-112 271.25,-132"/>
<text xml:space="preserve" text-anchor="middle" x="208.5" y="-118.5" font-family="Helvetica,sans-Serif" font-size="10.00">LGE/ui/ProjectManager.h</text>
</a>
</g>
</g>
<!-- Node1&#45;&gt;Node2 -->
<g id="edge1_Node000001_Node000002" class="edge">
<title>Node1&#45;&gt;Node2</title>
<g id="a_edge1_Node000001_Node000002"><a xlink:title=" ">
<path fill="none" stroke="#63b8ff" d="M606.88,-170.81C527.29,-161.25 374.26,-142.89 282.77,-131.91"/>
<polygon fill="#63b8ff" stroke="#63b8ff" points="283.23,-128.44 272.89,-130.73 282.4,-135.39 283.23,-128.44"/>
</a>
</g>
</g>
<!-- Node3 -->
<g id="Node000003" class="node">
<title>Node3</title>
<g id="a_Node000003"><a xlink:href="Project_8h.html" target="_top" xlink:title=" ">
<polygon fill="white" stroke="#666666" points="110.88,-76 22.12,-76 22.12,-56 110.88,-56 110.88,-76"/>
<text xml:space="preserve" text-anchor="middle" x="66.5" y="-62.5" font-family="Helvetica,sans-Serif" font-size="10.00">LGE/fs/Project.h</text>
</a>
</g>
</g>
<!-- Node1&#45;&gt;Node3 -->
<g id="edge8_Node000001_Node000003" class="edge">
<title>Node1&#45;&gt;Node3</title>
<g id="a_edge8_Node000001_Node000003"><a xlink:title=" ">
<path fill="none" stroke="#63b8ff" d="M606.86,-176.78C492.17,-175.61 219.76,-168.9 136.5,-132 113.15,-121.65 92.55,-100.22 79.85,-84.8"/>
<polygon fill="#63b8ff" stroke="#63b8ff" points="82.89,-82.99 73.95,-77.31 77.39,-87.33 82.89,-82.99"/>
</a>
</g>
</g>
<!-- Node5 -->
<g id="Node000005" class="node">
<title>Node5</title>
<g id="a_Node000005"><a xlink:title=" ">
<polygon fill="#e0e0e0" stroke="#999999" points="61,-20 0,-20 0,0 61,0 61,-20"/>
<text xml:space="preserve" text-anchor="middle" x="30.5" y="-6.5" font-family="Helvetica,sans-Serif" font-size="10.00">filesystem</text>
</a>
</g>
</g>
<!-- Node1&#45;&gt;Node5 -->
<g id="edge24_Node000001_Node000005" class="edge">
<title>Node1&#45;&gt;Node5</title>
<g id="a_edge24_Node000001_Node000005"><a xlink:title=" ">
<path fill="none" stroke="#63b8ff" d="M606.66,-175.95C487.11,-173.02 195.19,-162.84 102.5,-132 58.16,-117.25 36.09,-116.91 13.5,-76 5.58,-61.66 11.47,-43.49 18.4,-30.01"/>
<polygon fill="#63b8ff" stroke="#63b8ff" points="21.24,-32.09 23.18,-21.68 15.16,-28.61 21.24,-32.09"/>
</a>
</g>
</g>
<!-- Node8 -->
<g id="Node000008" class="node">
<title>Node8</title>
<g id="a_Node000008"><a xlink:href="Path_8h.html" target="_top" xlink:title=" ">
<polygon fill="white" stroke="#666666" points="598.62,-132 520.38,-132 520.38,-112 598.62,-112 598.62,-132"/>
<text xml:space="preserve" text-anchor="middle" x="559.5" y="-118.5" font-family="Helvetica,sans-Serif" font-size="10.00">LGE/fs/Path.h</text>
</a>
</g>
</g>
<!-- Node1&#45;&gt;Node8 -->
<g id="edge9_Node000001_Node000008" class="edge">
<title>Node1&#45;&gt;Node8</title>
<g id="a_edge9_Node000001_Node000008"><a xlink:title=" ">
<path fill="none" stroke="#63b8ff" d="M641.26,-167.59C626.16,-159.36 603.97,-147.26 586.52,-137.74"/>
<polygon fill="#63b8ff" stroke="#63b8ff" points="588.66,-134.92 578.21,-133.2 585.31,-141.07 588.66,-134.92"/>
</a>
</g>
</g>
<!-- Node10 -->
<g id="Node000010" class="node">
<title>Node10</title>
<g id="a_Node000010"><a xlink:href="FileIO_8h.html" target="_top" xlink:title=" ">
<polygon fill="white" stroke="#666666" points="502.62,-132 418.38,-132 418.38,-112 502.62,-112 502.62,-132"/>
<text xml:space="preserve" text-anchor="middle" x="460.5" y="-118.5" font-family="Helvetica,sans-Serif" font-size="10.00">LGE/fs/FileIO.h</text>
</a>
</g>
</g>
<!-- Node1&#45;&gt;Node10 -->
<g id="edge12_Node000001_Node000010" class="edge">
<title>Node1&#45;&gt;Node10</title>
<g id="a_edge12_Node000001_Node000010"><a xlink:title=" ">
<path fill="none" stroke="#63b8ff" d="M624.01,-167.59C591.28,-158.67 541.88,-145.19 505.94,-135.39"/>
<polygon fill="#63b8ff" stroke="#63b8ff" points="507.29,-132.13 496.72,-132.88 505.45,-138.89 507.29,-132.13"/>
</a>
</g>
</g>
<!-- Node11 -->
<g id="Node000011" class="node">
<title>Node11</title>
<g id="a_Node000011"><a xlink:href="MetaDB_8h.html" target="_top" xlink:title=" ">
<polygon fill="white" stroke="#666666" points="400.5,-132 306.5,-132 306.5,-112 400.5,-112 400.5,-132"/>
<text xml:space="preserve" text-anchor="middle" x="353.5" y="-118.5" font-family="Helvetica,sans-Serif" font-size="10.00">LGE/fs/MetaDB.h</text>
</a>
</g>
</g>
<!-- Node1&#45;&gt;Node11 -->
<g id="edge15_Node000001_Node000011" class="edge">
<title>Node1&#45;&gt;Node11</title>
<g id="a_edge15_Node000001_Node000011"><a xlink:title=" ">
<path fill="none" stroke="#63b8ff" d="M606.76,-167.84C552.86,-158.3 468.56,-143.37 412.2,-133.39"/>
<polygon fill="#63b8ff" stroke="#63b8ff" points="412.92,-129.97 402.46,-131.67 411.7,-136.86 412.92,-129.97"/>
</a>
</g>
</g>
<!-- Node14 -->
<g id="Node000014" class="node">
<title>Node14</title>
<g id="a_Node000014"><a xlink:href="Log_8h.html" target="_top" xlink:title=" ">
<polygon fill="white" stroke="#666666" points="700.62,-132 616.38,-132 616.38,-112 700.62,-112 700.62,-132"/>
<text xml:space="preserve" text-anchor="middle" x="658.5" y="-118.5" font-family="Helvetica,sans-Serif" font-size="10.00">LGE/core/Log.h</text>
</a>
</g>
</g>
<!-- Node1&#45;&gt;Node14 -->
<g id="edge21_Node000001_Node000014" class="edge">
<title>Node1&#45;&gt;Node14</title>
<g id="a_edge21_Node000001_Node000014"><a xlink:title=" ">
<path fill="none" stroke="#63b8ff" d="M658.5,-167.59C658.5,-161.01 658.5,-151.96 658.5,-143.73"/>
<polygon fill="#63b8ff" stroke="#63b8ff" points="662,-143.81 658.5,-133.81 655,-143.81 662,-143.81"/>
</a>
</g>
</g>
<!-- Node16 -->
<g id="Node000016" class="node">
<title>Node16</title>
<g id="a_Node000016"><a xlink:title=" ">
<polygon fill="#e0e0e0" stroke="#999999" points="768,-132 719,-132 719,-112 768,-112 768,-132"/>
<text xml:space="preserve" text-anchor="middle" x="743.5" y="-118.5" font-family="Helvetica,sans-Serif" font-size="10.00">fstream</text>
</a>
</g>
</g>
<!-- Node1&#45;&gt;Node16 -->
<g id="edge25_Node000001_Node000016" class="edge">
<title>Node1&#45;&gt;Node16</title>
<g id="a_edge25_Node000001_Node000016"><a xlink:title=" ">
<path fill="none" stroke="#63b8ff" d="M673.31,-167.59C685.9,-159.59 704.25,-147.93 719.03,-138.54"/>
<polygon fill="#63b8ff" stroke="#63b8ff" points="720.74,-141.61 727.3,-133.29 716.98,-135.7 720.74,-141.61"/>
</a>
</g>
</g>
<!-- Node17 -->
<g id="Node000017" class="node">
<title>Node17</title>
<g id="a_Node000017"><a xlink:title=" ">
<polygon fill="#e0e0e0" stroke="#999999" points="841.38,-132 785.62,-132 785.62,-112 841.38,-112 841.38,-132"/>
<text xml:space="preserve" text-anchor="middle" x="813.5" y="-118.5" font-family="Helvetica,sans-Serif" font-size="10.00">algorithm</text>
</a>
</g>
</g>
<!-- Node1&#45;&gt;Node17 -->
<g id="edge26_Node000001_Node000017" class="edge">
<title>Node1&#45;&gt;Node17</title>
<g id="a_edge26_Node000001_Node000017"><a xlink:title=" ">
<path fill="none" stroke="#63b8ff" d="M685.5,-167.59C710.46,-158.9 747.8,-145.89 775.72,-136.16"/>
<polygon fill="#63b8ff" stroke="#63b8ff" points="776.57,-139.57 784.86,-132.98 774.27,-132.96 776.57,-139.57"/>
</a>
</g>
</g>
<!-- Node18 -->
<g id="Node000018" class="node">
<title>Node18</title>
<g id="a_Node000018"><a xlink:title=" ">
<polygon fill="#e0e0e0" stroke="#999999" points="911.12,-132 859.88,-132 859.88,-112 911.12,-112 911.12,-132"/>
<text xml:space="preserve" text-anchor="middle" x="885.5" y="-118.5" font-family="Helvetica,sans-Serif" font-size="10.00">sstream</text>
</a>
</g>
</g>
<!-- Node1&#45;&gt;Node18 -->
<g id="edge27_Node000001_Node000018" class="edge">
<title>Node1&#45;&gt;Node18</title>
<g id="a_edge27_Node000001_Node000018"><a xlink:title=" ">
<path fill="none" stroke="#63b8ff" d="M700.13,-167.51C736.71,-159.12 791.64,-146.37 848.51,-132.45"/>
<polygon fill="#63b8ff" stroke="#63b8ff" points="849.18,-135.89 858.05,-130.11 847.51,-129.09 849.18,-135.89"/>
</a>
</g>
</g>
<!-- Node19 -->
<g id="Node000019" class="node">
<title>Node19</title>
<g id="a_Node000019"><a xlink:title=" ">
<polygon fill="#e0e0e0" stroke="#999999" points="979.38,-132 929.62,-132 929.62,-112 979.38,-112 979.38,-132"/>
<text xml:space="preserve" text-anchor="middle" x="954.5" y="-118.5" font-family="Helvetica,sans-Serif" font-size="10.00">iomanip</text>
</a>
</g>
</g>
<!-- Node1&#45;&gt;Node19 -->
<g id="edge28_Node000001_Node000019" class="edge">
<title>Node1&#45;&gt;Node19</title>
<g id="a_edge28_Node000001_Node000019"><a xlink:title=" ">
<path fill="none" stroke="#63b8ff" d="M710.46,-169.47C761.13,-161.81 840.58,-148.98 918.35,-132.31"/>
<polygon fill="#63b8ff" stroke="#63b8ff" points="918.8,-135.8 927.83,-130.26 917.32,-128.95 918.8,-135.8"/>
</a>
</g>
</g>
<!-- Node20 -->
<g id="Node000020" class="node">
<title>Node20</title>
<g id="a_Node000020"><a xlink:title=" ">
<polygon fill="#e0e0e0" stroke="#999999" points="1039.62,-132 997.38,-132 997.38,-112 1039.62,-112 1039.62,-132"/>
<text xml:space="preserve" text-anchor="middle" x="1018.5" y="-118.5" font-family="Helvetica,sans-Serif" font-size="10.00">pwd.h</text>
</a>
</g>
</g>
<!-- Node1&#45;&gt;Node20 -->
<g id="edge29_Node000001_Node000020" class="edge">
<title>Node1&#45;&gt;Node20</title>
<g id="a_edge29_Node000001_Node000020"><a xlink:title=" ">
<path fill="none" stroke="#63b8ff" d="M710.38,-172.45C773.45,-166.36 883.24,-153.98 985.8,-132.3"/>
<polygon fill="#63b8ff" stroke="#63b8ff" points="986.46,-135.74 995.5,-130.21 984.98,-128.9 986.46,-135.74"/>
</a>
</g>
</g>
<!-- Node21 -->
<g id="Node000021" class="node">
<title>Node21</title>
<g id="a_Node000021"><a xlink:title=" ">
<polygon fill="#e0e0e0" stroke="#999999" points="1107.75,-132 1057.25,-132 1057.25,-112 1107.75,-112 1107.75,-132"/>
<text xml:space="preserve" text-anchor="middle" x="1082.5" y="-118.5" font-family="Helvetica,sans-Serif" font-size="10.00">unistd.h</text>
</a>
</g>
</g>
<!-- Node1&#45;&gt;Node21 -->
<g id="edge30_Node000001_Node000021" class="edge">
<title>Node1&#45;&gt;Node21</title>
<g id="a_edge30_Node000001_Node000021"><a xlink:title=" ">
<path fill="none" stroke="#63b8ff" d="M710.27,-173.41C783.19,-167.83 920.4,-155.42 1046.02,-132.23"/>
<polygon fill="#63b8ff" stroke="#63b8ff" points="1046.3,-135.74 1055.48,-130.46 1045.01,-128.86 1046.3,-135.74"/>
</a>
</g>
</g>
<!-- Node2&#45;&gt;Node3 -->
<g id="edge2_Node000002_Node000003" class="edge">
<title>Node2&#45;&gt;Node3</title>
<g id="a_edge2_Node000002_Node000003"><a xlink:title=" ">
<path fill="none" stroke="#63b8ff" d="M183.77,-111.59C161.2,-103.01 127.59,-90.23 102.13,-80.55"/>
<polygon fill="#63b8ff" stroke="#63b8ff" points="103.43,-77.3 92.84,-77.02 100.95,-83.84 103.43,-77.3"/>
</a>
</g>
</g>
<!-- Node4 -->
<g id="Node000004" class="node">
<title>Node4</title>
<g id="a_Node000004"><a xlink:title=" ">
<polygon fill="#e0e0e0" stroke="#999999" points="478.5,-20 438.5,-20 438.5,0 478.5,0 478.5,-20"/>
<text xml:space="preserve" text-anchor="middle" x="458.5" y="-6.5" font-family="Helvetica,sans-Serif" font-size="10.00">string</text>
</a>
</g>
</g>
<!-- Node2&#45;&gt;Node4 -->
<g id="edge5_Node000002_Node000004" class="edge">
<title>Node2&#45;&gt;Node4</title>
<g id="a_edge5_Node000002_Node000004"><a xlink:title=" ">
<path fill="none" stroke="#63b8ff" d="M208.52,-111.92C209.08,-97.75 212.35,-70.53 228.5,-56 257.31,-30.07 370.63,-17.81 426.71,-13.24"/>
<polygon fill="#63b8ff" stroke="#63b8ff" points="426.87,-16.74 436.57,-12.47 426.32,-9.76 426.87,-16.74"/>
</a>
</g>
</g>
<!-- Node6 -->
<g id="Node000006" class="node">
<title>Node6</title>
<g id="a_Node000006"><a xlink:title=" ">
<polygon fill="#e0e0e0" stroke="#999999" points="280,-76 237,-76 237,-56 280,-56 280,-76"/>
<text xml:space="preserve" text-anchor="middle" x="258.5" y="-62.5" font-family="Helvetica,sans-Serif" font-size="10.00">vector</text>
</a>
</g>
</g>
<!-- Node2&#45;&gt;Node6 -->
<g id="edge6_Node000002_Node000006" class="edge">
<title>Node2&#45;&gt;Node6</title>
<g id="a_edge6_Node000002_Node000006"><a xlink:title=" ">
<path fill="none" stroke="#63b8ff" d="M217.21,-111.59C224.09,-104.16 233.89,-93.58 242.22,-84.58"/>
<polygon fill="#63b8ff" stroke="#63b8ff" points="244.64,-87.12 248.86,-77.41 239.5,-82.37 244.64,-87.12"/>
</a>
</g>
</g>
<!-- Node7 -->
<g id="Node000007" class="node">
<title>Node7</title>
<g id="a_Node000007"><a xlink:title=" ">
<polygon fill="#e0e0e0" stroke="#999999" points="180.12,-76 128.88,-76 128.88,-56 180.12,-56 180.12,-76"/>
<text xml:space="preserve" text-anchor="middle" x="154.5" y="-62.5" font-family="Helvetica,sans-Serif" font-size="10.00">memory</text>
</a>
</g>
</g>
<!-- Node2&#45;&gt;Node7 -->
<g id="edge7_Node000002_Node000007" class="edge">
<title>Node2&#45;&gt;Node7</title>
<g id="a_edge7_Node000002_Node000007"><a xlink:title=" ">
<path fill="none" stroke="#63b8ff" d="M199.09,-111.59C191.58,-104.08 180.85,-93.35 171.8,-84.3"/>
<polygon fill="#63b8ff" stroke="#63b8ff" points="174.41,-81.96 164.87,-77.37 169.46,-86.91 174.41,-81.96"/>
</a>
</g>
</g>
<!-- Node3&#45;&gt;Node4 -->
<g id="edge3_Node000003_Node000004" class="edge">
<title>Node3&#45;&gt;Node4</title>
<g id="a_edge3_Node000003_Node000004"><a xlink:title=" ">
<path fill="none" stroke="#63b8ff" d="M111.3,-57.27C114.07,-56.83 116.82,-56.4 119.5,-56 232.36,-38.93 366.9,-22.12 426.9,-14.81"/>
<polygon fill="#63b8ff" stroke="#63b8ff" points="427.2,-18.3 436.71,-13.62 426.36,-11.35 427.2,-18.3"/>
</a>
</g>
</g>
<!-- Node3&#45;&gt;Node5 -->
<g id="edge4_Node000003_Node000005" class="edge">
<title>Node3&#45;&gt;Node5</title>
<g id="a_edge4_Node000003_Node000005"><a xlink:title=" ">
<path fill="none" stroke="#63b8ff" d="M60.23,-55.59C55.48,-48.47 48.8,-38.45 42.98,-29.72"/>
<polygon fill="#63b8ff" stroke="#63b8ff" points="46,-27.94 37.54,-21.56 40.17,-31.82 46,-27.94"/>
</a>
</g>
</g>
<!-- Node8&#45;&gt;Node4 -->
<g id="edge10_Node000008_Node000004" class="edge">
<title>Node8&#45;&gt;Node4</title>
<g id="a_edge10_Node000008_Node000004"><a xlink:title=" ">
<path fill="none" stroke="#63b8ff" d="M567.18,-111.85C577.37,-98.53 592.71,-73.51 580.5,-56 560.19,-26.86 518.77,-16.54 489.85,-12.92"/>
<polygon fill="#63b8ff" stroke="#63b8ff" points="490.51,-9.47 480.21,-11.92 489.79,-16.43 490.51,-9.47"/>
</a>
</g>
</g>
<!-- Node9 -->
<g id="Node000009" class="node">
<title>Node9</title>
<g id="a_Node000009"><a xlink:title=" ">
<polygon fill="#e0e0e0" stroke="#999999" points="571.25,-76 505.75,-76 505.75,-56 571.25,-56 571.25,-76"/>
<text xml:space="preserve" text-anchor="middle" x="538.5" y="-62.5" font-family="Helvetica,sans-Serif" font-size="10.00">string_view</text>
</a>
</g>
</g>
<!-- Node8&#45;&gt;Node9 -->
<g id="edge11_Node000008_Node000009" class="edge">
<title>Node8&#45;&gt;Node9</title>
<g id="a_edge11_Node000008_Node000009"><a xlink:title=" ">
<path fill="none" stroke="#63b8ff" d="M555.84,-111.59C553.19,-104.78 549.51,-95.32 546.22,-86.86"/>
<polygon fill="#63b8ff" stroke="#63b8ff" points="549.55,-85.76 542.66,-77.71 543.03,-88.3 549.55,-85.76"/>
</a>
</g>
</g>
<!-- Node10&#45;&gt;Node4 -->
<g id="edge13_Node000010_Node000004" class="edge">
<title>Node10&#45;&gt;Node4</title>
<g id="a_edge13_Node000010_Node000004"><a xlink:title=" ">
<path fill="none" stroke="#63b8ff" d="M460.33,-111.62C460.01,-94.01 459.31,-55.59 458.88,-31.65"/>
<polygon fill="#63b8ff" stroke="#63b8ff" points="462.38,-31.8 458.7,-21.87 455.38,-31.93 462.38,-31.8"/>
</a>
</g>
</g>
<!-- Node10&#45;&gt;Node9 -->
<g id="edge14_Node000010_Node000009" class="edge">
<title>Node10&#45;&gt;Node9</title>
<g id="a_edge14_Node000010_Node000009"><a xlink:title=" ">
<path fill="none" stroke="#63b8ff" d="M474.09,-111.59C485.54,-103.67 502.16,-92.16 515.66,-82.82"/>
<polygon fill="#63b8ff" stroke="#63b8ff" points="517.33,-85.91 523.56,-77.34 513.35,-80.16 517.33,-85.91"/>
</a>
</g>
</g>
<!-- Node11&#45;&gt;Node4 -->
<g id="edge16_Node000011_Node000004" class="edge">
<title>Node11&#45;&gt;Node4</title>
<g id="a_edge16_Node000011_Node000004"><a xlink:title=" ">
<path fill="none" stroke="#63b8ff" d="M371.93,-111.64C386.4,-103.62 406.4,-91.01 420.5,-76 433.09,-62.6 443.31,-44.31 449.97,-30.54"/>
<polygon fill="#63b8ff" stroke="#63b8ff" points="453.07,-32.17 454.07,-21.63 446.71,-29.25 453.07,-32.17"/>
</a>
</g>
</g>
<!-- Node11&#45;&gt;Node6 -->
<g id="edge18_Node000011_Node000006" class="edge">
<title>Node11&#45;&gt;Node6</title>
<g id="a_edge18_Node000011_Node000006"><a xlink:title=" ">
<path fill="none" stroke="#63b8ff" d="M336.95,-111.59C322.6,-103.44 301.57,-91.48 284.9,-82"/>
<polygon fill="#63b8ff" stroke="#63b8ff" points="286.92,-79.13 276.49,-77.23 283.46,-85.21 286.92,-79.13"/>
</a>
</g>
</g>
<!-- Node11&#45;&gt;Node9 -->
<g id="edge17_Node000011_Node000009" class="edge">
<title>Node11&#45;&gt;Node9</title>
<g id="a_edge17_Node000011_Node000009"><a xlink:title=" ">
<path fill="none" stroke="#63b8ff" d="M385.72,-111.59C416.05,-102.74 461.67,-89.43 495.17,-79.65"/>
<polygon fill="#63b8ff" stroke="#63b8ff" points="495.95,-83.07 504.57,-76.9 493.99,-76.35 495.95,-83.07"/>
</a>
</g>
</g>
<!-- Node12 -->
<g id="Node000012" class="node">
<title>Node12</title>
<g id="a_Node000012"><a xlink:title=" ">
<polygon fill="#e0e0e0" stroke="#999999" points="411.38,-76 361.62,-76 361.62,-56 411.38,-56 411.38,-76"/>
<text xml:space="preserve" text-anchor="middle" x="386.5" y="-62.5" font-family="Helvetica,sans-Serif" font-size="10.00">optional</text>
</a>
</g>
</g>
<!-- Node11&#45;&gt;Node12 -->
<g id="edge19_Node000011_Node000012" class="edge">
<title>Node11&#45;&gt;Node12</title>
<g id="a_edge19_Node000011_Node000012"><a xlink:title=" ">
<path fill="none" stroke="#63b8ff" d="M359.25,-111.59C363.55,-104.55 369.59,-94.67 374.89,-86"/>
<polygon fill="#63b8ff" stroke="#63b8ff" points="377.8,-87.95 380.03,-77.59 371.83,-84.3 377.8,-87.95"/>
</a>
</g>
</g>
<!-- Node13 -->
<g id="Node000013" class="node">
<title>Node13</title>
<g id="a_Node000013"><a xlink:title=" ">
<polygon fill="#e0e0e0" stroke="#999999" points="343.12,-76 297.88,-76 297.88,-56 343.12,-56 343.12,-76"/>
<text xml:space="preserve" text-anchor="middle" x="320.5" y="-62.5" font-family="Helvetica,sans-Serif" font-size="10.00">cstdint</text>
</a>
</g>
</g>
<!-- Node11&#45;&gt;Node13 -->
<g id="edge20_Node000011_Node000013" class="edge">
<title>Node11&#45;&gt;Node13</title>
<g id="a_edge20_Node000011_Node000013"><a xlink:title=" ">
<path fill="none" stroke="#63b8ff" d="M347.75,-111.59C343.45,-104.55 337.41,-94.67 332.11,-86"/>
<polygon fill="#63b8ff" stroke="#63b8ff" points="335.17,-84.3 326.97,-77.59 329.2,-87.95 335.17,-84.3"/>
</a>
</g>
</g>
<!-- Node14&#45;&gt;Node4 -->
<g id="edge23_Node000014_Node000004" class="edge">
<title>Node14&#45;&gt;Node4</title>
<g id="a_edge23_Node000014_Node000004"><a xlink:title=" ">
<path fill="none" stroke="#63b8ff" d="M651.97,-111.64C641.72,-97.6 620.52,-71.13 596.5,-56 563.14,-34.99 519.02,-22.85 489.74,-16.59"/>
<polygon fill="#63b8ff" stroke="#63b8ff" points="490.54,-13.18 480.04,-14.63 489.15,-20.04 490.54,-13.18"/>
</a>
</g>
</g>
<!-- Node15 -->
<g id="Node000015" class="node">
<title>Node15</title>
<g id="a_Node000015"><a xlink:title=" ">
<polygon fill="#e0e0e0" stroke="#999999" points="719.25,-76 665.75,-76 665.75,-56 719.25,-56 719.25,-76"/>
<text xml:space="preserve" text-anchor="middle" x="692.5" y="-62.5" font-family="Helvetica,sans-Serif" font-size="10.00">iostream</text>
</a>
</g>
</g>
<!-- Node14&#45;&gt;Node15 -->
<g id="edge22_Node000014_Node000015" class="edge">
<title>Node14&#45;&gt;Node15</title>
<g id="a_edge22_Node000014_Node000015"><a xlink:title=" ">
<path fill="none" stroke="#63b8ff" d="M664.42,-111.59C668.86,-104.55 675.08,-94.67 680.54,-86"/>
<polygon fill="#63b8ff" stroke="#63b8ff" points="683.47,-87.91 685.84,-77.58 677.55,-84.18 683.47,-87.91"/>
</a>
</g>
</g>
</g>
</svg>
