<?xml version="1.0" encoding="UTF-8" standalone="no"?>
<!DOCTYPE svg PUBLIC "-//W3C//DTD SVG 1.1//EN"
 "http://www.w3.org/Graphics/SVG/1.1/DTD/svg11.dtd">
<!-- Generated by graphviz version 14.0.2 (20251019.1705)
 -->
<!-- Title: Recycle.h Pages: 1 -->
<svg width="364pt" height="84pt"
 viewBox="0.00 0.00 364.00 84.00" xmlns="http://www.w3.org/2000/svg" xmlns:xlink="http://www.w3.org/1999/xlink">
<g id="graph0" class="graph" transform="scale(1 1) rotate(0) translate(4 80)">
<title>Recycle.h</title>
<!-- Node1 -->
<g id="Node000001" class="node">
<title>Node1</title>
<g id="a_Node000001"><a xlink:title=" ">
<polygon fill="#999999" stroke="#666666" points="225.75,-76 165.5,-76 165.5,-56 225.75,-56 225.75,-76"/>
<text xml:space="preserve" text-anchor="middle" x="195.62" y="-62.5" font-family="Helvetica,sans-Serif" font-size="10.00">Recycle.h</text>
</a>
</g>
</g>
<!-- Node2 -->
<g id="Node000002" class="node">
<title>Node2</title>
<g id="a_Node000002"><a xlink:href="ContentBrowser_8cpp.html" target="_top" xlink:title=" ">
<polygon fill="white" stroke="#666666" points="105.25,-20 0,-20 0,0 105.25,0 105.25,-20"/>
<text xml:space="preserve" text-anchor="middle" x="52.62" y="-6.5" font-family="Helvetica,sans-Serif" font-size="10.00">ContentBrowser.cpp</text>
</a>
</g>
</g>
<!-- Node1&#45;&gt;Node2 -->
<g id="edge1_Node000001_Node000002" class="edge">
<title>Node1&#45;&gt;Node2</title>
<g id="a_edge1_Node000001_Node000002"><a xlink:title=" ">
<path fill="none" stroke="#63b8ff" d="M159.96,-51.53C134.37,-41.87 100.52,-29.08 77.73,-20.48"/>
<polygon fill="#63b8ff" stroke="#63b8ff" points="158.71,-54.8 169.3,-55.06 161.18,-48.25 158.71,-54.8"/>
</a>
</g>
</g>
<!-- Node3 -->
<g id="Node000003" class="node">
<title>Node3</title>
<g id="a_Node000003"><a xlink:href="FSOps_8cpp.html" target="_top" xlink:title=" ">
<polygon fill="white" stroke="#666666" points="188.38,-20 122.88,-20 122.88,0 188.38,0 188.38,-20"/>
<text xml:space="preserve" text-anchor="middle" x="155.62" y="-6.5" font-family="Helvetica,sans-Serif" font-size="10.00">FSOps.cpp</text>
</a>
</g>
</g>
<!-- Node1&#45;&gt;Node3 -->
<g id="edge2_Node000001_Node000003" class="edge">
<title>Node1&#45;&gt;Node3</title>
<g id="a_edge2_Node000001_Node000003"><a xlink:title=" ">
<path fill="none" stroke="#63b8ff" d="M181.87,-46.44C175.34,-37.62 167.82,-27.47 162.51,-20.3"/>
<polygon fill="#63b8ff" stroke="#63b8ff" points="178.99,-48.43 187.76,-54.38 184.62,-44.26 178.99,-48.43"/>
</a>
</g>
</g>
<!-- Node4 -->
<g id="Node000004" class="node">
<title>Node4</title>
<g id="a_Node000004"><a xlink:href="FileIO_8cpp.html" target="_top" xlink:title=" ">
<polygon fill="white" stroke="#666666" points="267.12,-20 206.12,-20 206.12,0 267.12,0 267.12,-20"/>
<text xml:space="preserve" text-anchor="middle" x="236.62" y="-6.5" font-family="Helvetica,sans-Serif" font-size="10.00">FileIO.cpp</text>
</a>
</g>
</g>
<!-- Node1&#45;&gt;Node4 -->
<g id="edge3_Node000001_Node000004" class="edge">
<title>Node1&#45;&gt;Node4</title>
<g id="a_edge3_Node000001_Node000004"><a xlink:title=" ">
<path fill="none" stroke="#63b8ff" d="M209.72,-46.44C216.41,-37.62 224.12,-27.47 229.57,-20.3"/>
<polygon fill="#63b8ff" stroke="#63b8ff" points="206.94,-44.31 203.68,-54.39 212.52,-48.54 206.94,-44.31"/>
</a>
</g>
</g>
<!-- Node5 -->
<g id="Node000005" class="node">
<title>Node5</title>
<g id="a_Node000005"><a xlink:href="Recycle_8cpp.html" target="_top" xlink:title=" ">
<polygon fill="white" stroke="#666666" points="356,-20 285.25,-20 285.25,0 356,0 356,-20"/>
<text xml:space="preserve" text-anchor="middle" x="320.62" y="-6.5" font-family="Helvetica,sans-Serif" font-size="10.00">Recycle.cpp</text>
</a>
</g>
</g>
<!-- Node1&#45;&gt;Node5 -->
<g id="edge4_Node000001_Node000005" class="edge">
<title>Node1&#45;&gt;Node5</title>
<g id="a_edge4_Node000001_Node000005"><a xlink:title=" ">
<path fill="none" stroke="#63b8ff" d="M227.71,-51.14C249.97,-41.52 279.03,-28.97 298.68,-20.48"/>
<polygon fill="#63b8ff" stroke="#63b8ff" points="226.58,-47.81 218.79,-54.99 229.36,-54.24 226.58,-47.81"/>
</a>
</g>
</g>
</g>
</svg>
