<?xml version="1.0" encoding="UTF-8" standalone="no"?>
<!DOCTYPE svg PUBLIC "-//W3C//DTD SVG 1.1//EN"
 "http://www.w3.org/Graphics/SVG/1.1/DTD/svg11.dtd">
<!-- Generated by graphviz version 14.0.2 (20251019.1705)
 -->
<!-- Title: Recycle.cpp Pages: 1 -->
<svg width="1107pt" height="196pt"
 viewBox="0.00 0.00 1107.00 196.00" xmlns="http://www.w3.org/2000/svg" xmlns:xlink="http://www.w3.org/1999/xlink">
<g id="graph0" class="graph" transform="scale(1 1) rotate(0) translate(4 192)">
<title>Recycle.cpp</title>
<!-- Node1 -->
<g id="Node000001" class="node">
<title>Node1</title>
<g id="a_Node000001"><a xlink:title=" ">
<polygon fill="#999999" stroke="#666666" points="651.88,-188 581.12,-188 581.12,-168 651.88,-168 651.88,-188"/>
<text xml:space="preserve" text-anchor="middle" x="616.5" y="-174.5" font-family="Helvetica,sans-Serif" font-size="10.00">Recycle.cpp</text>
</a>
</g>
</g>
<!-- Node2 -->
<g id="Node000002" class="node">
<title>Node2</title>
<g id="a_Node000002"><a xlink:href="Recycle_8h.html" target="_top" xlink:title=" ">
<polygon fill="white" stroke="#666666" points="561.5,-132 467.5,-132 467.5,-112 561.5,-112 561.5,-132"/>
<text xml:space="preserve" text-anchor="middle" x="514.5" y="-118.5" font-family="Helvetica,sans-Serif" font-size="10.00">LGE/fs/Recycle.h</text>
</a>
</g>
</g>
<!-- Node1&#45;&gt;Node2 -->
<g id="edge1_Node000001_Node000002" class="edge">
<title>Node1&#45;&gt;Node2</title>
<g id="a_edge1_Node000001_Node000002"><a xlink:title=" ">
<path fill="none" stroke="#63b8ff" d="M598.73,-167.59C583.18,-159.36 560.32,-147.26 542.34,-137.74"/>
<polygon fill="#63b8ff" stroke="#63b8ff" points="544.22,-134.77 533.74,-133.19 540.94,-140.96 544.22,-134.77"/>
</a>
</g>
</g>
<!-- Node8 -->
<g id="Node000008" class="node">
<title>Node8</title>
<g id="a_Node000008"><a xlink:href="Project_8h.html" target="_top" xlink:title=" ">
<polygon fill="white" stroke="#666666" points="140.88,-132 52.12,-132 52.12,-112 140.88,-112 140.88,-132"/>
<text xml:space="preserve" text-anchor="middle" x="96.5" y="-118.5" font-family="Helvetica,sans-Serif" font-size="10.00">LGE/fs/Project.h</text>
</a>
</g>
</g>
<!-- Node1&#45;&gt;Node8 -->
<g id="edge8_Node000001_Node000008" class="edge">
<title>Node1&#45;&gt;Node8</title>
<g id="a_edge8_Node000001_Node000008"><a xlink:title=" ">
<path fill="none" stroke="#63b8ff" d="M580.74,-174.39C504.21,-168.63 318.66,-153.69 152.19,-132.13"/>
<polygon fill="#63b8ff" stroke="#63b8ff" points="153.12,-128.72 142.75,-130.9 152.22,-135.67 153.12,-128.72"/>
</a>
</g>
</g>
<!-- Node9 -->
<g id="Node000009" class="node">
<title>Node9</title>
<g id="a_Node000009"><a xlink:title=" ">
<polygon fill="#e0e0e0" stroke="#999999" points="61,-76 0,-76 0,-56 61,-56 61,-76"/>
<text xml:space="preserve" text-anchor="middle" x="30.5" y="-62.5" font-family="Helvetica,sans-Serif" font-size="10.00">filesystem</text>
</a>
</g>
</g>
<!-- Node1&#45;&gt;Node9 -->
<g id="edge37_Node000001_Node000009" class="edge">
<title>Node1&#45;&gt;Node9</title>
<g id="a_edge37_Node000001_Node000009"><a xlink:title=" ">
<path fill="none" stroke="#63b8ff" d="M581.03,-176.66C462.26,-175.18 83.71,-167.69 43.5,-132 31.25,-121.13 28.6,-102.26 28.67,-87.64"/>
<polygon fill="#63b8ff" stroke="#63b8ff" points="32.16,-87.87 29.17,-77.71 25.17,-87.52 32.16,-87.87"/>
</a>
</g>
</g>
<!-- Node10 -->
<g id="Node000010" class="node">
<title>Node10</title>
<g id="a_Node000010"><a xlink:href="Path_8h.html" target="_top" xlink:title=" ">
<polygon fill="white" stroke="#666666" points="308.62,-76 230.38,-76 230.38,-56 308.62,-56 308.62,-76"/>
<text xml:space="preserve" text-anchor="middle" x="269.5" y="-62.5" font-family="Helvetica,sans-Serif" font-size="10.00">LGE/fs/Path.h</text>
</a>
</g>
</g>
<!-- Node1&#45;&gt;Node10 -->
<g id="edge11_Node000001_Node000010" class="edge">
<title>Node1&#45;&gt;Node10</title>
<g id="a_edge11_Node000001_Node000010"><a xlink:title=" ">
<path fill="none" stroke="#63b8ff" d="M581.2,-167.53C549.07,-158.77 500.4,-145.16 458.5,-132 405.17,-115.25 344.12,-93.84 306.18,-80.27"/>
<polygon fill="#63b8ff" stroke="#63b8ff" points="307.67,-77.09 297.07,-77 305.3,-83.67 307.67,-77.09"/>
</a>
</g>
</g>
<!-- Node11 -->
<g id="Node000011" class="node">
<title>Node11</title>
<g id="a_Node000011"><a xlink:href="VFS_8h.html" target="_top" xlink:title=" ">
<polygon fill="white" stroke="#666666" points="658.25,-76 580.75,-76 580.75,-56 658.25,-56 658.25,-76"/>
<text xml:space="preserve" text-anchor="middle" x="619.5" y="-62.5" font-family="Helvetica,sans-Serif" font-size="10.00">LGE/fs/VFS.h</text>
</a>
</g>
</g>
<!-- Node1&#45;&gt;Node11 -->
<g id="edge14_Node000001_Node000011" class="edge">
<title>Node1&#45;&gt;Node11</title>
<g id="a_edge14_Node000001_Node000011"><a xlink:title=" ">
<path fill="none" stroke="#63b8ff" d="M616.76,-167.62C617.24,-150.01 618.28,-111.59 618.94,-87.65"/>
<polygon fill="#63b8ff" stroke="#63b8ff" points="622.43,-87.96 619.2,-77.87 615.43,-87.77 622.43,-87.96"/>
</a>
</g>
</g>
<!-- Node13 -->
<g id="Node000013" class="node">
<title>Node13</title>
<g id="a_Node000013"><a xlink:href="MetaDB_8h.html" target="_top" xlink:title=" ">
<polygon fill="white" stroke="#666666" points="770.5,-76 676.5,-76 676.5,-56 770.5,-56 770.5,-76"/>
<text xml:space="preserve" text-anchor="middle" x="723.5" y="-62.5" font-family="Helvetica,sans-Serif" font-size="10.00">LGE/fs/MetaDB.h</text>
</a>
</g>
</g>
<!-- Node1&#45;&gt;Node13 -->
<g id="edge19_Node000001_Node000013" class="edge">
<title>Node1&#45;&gt;Node13</title>
<g id="a_edge19_Node000001_Node000013"><a xlink:title=" ">
<path fill="none" stroke="#63b8ff" d="M620.27,-167.72C626.08,-154.25 638.27,-129.04 654.5,-112 665.97,-99.95 681.27,-89.56 694.55,-81.81"/>
<polygon fill="#63b8ff" stroke="#63b8ff" points="695.86,-85.08 702.88,-77.15 692.45,-78.97 695.86,-85.08"/>
</a>
</g>
</g>
<!-- Node14 -->
<g id="Node000014" class="node">
<title>Node14</title>
<g id="a_Node000014"><a xlink:href="AssetRegistry_8h.html" target="_top" xlink:title=" ">
<polygon fill="white" stroke="#666666" points="783.25,-132 663.75,-132 663.75,-112 783.25,-112 783.25,-132"/>
<text xml:space="preserve" text-anchor="middle" x="723.5" y="-118.5" font-family="Helvetica,sans-Serif" font-size="10.00">LGE/fs/AssetRegistry.h</text>
</a>
</g>
</g>
<!-- Node1&#45;&gt;Node14 -->
<g id="edge25_Node000001_Node000014" class="edge">
<title>Node1&#45;&gt;Node14</title>
<g id="a_edge25_Node000001_Node000014"><a xlink:title=" ">
<path fill="none" stroke="#63b8ff" d="M635.14,-167.59C651.53,-159.32 675.66,-147.14 694.56,-137.6"/>
<polygon fill="#63b8ff" stroke="#63b8ff" points="696.01,-140.79 703.37,-133.16 692.86,-134.54 696.01,-140.79"/>
</a>
</g>
</g>
<!-- Node17 -->
<g id="Node000017" class="node">
<title>Node17</title>
<g id="a_Node000017"><a xlink:href="Log_8h.html" target="_top" xlink:title=" ">
<polygon fill="white" stroke="#666666" points="243.62,-132 159.38,-132 159.38,-112 243.62,-112 243.62,-132"/>
<text xml:space="preserve" text-anchor="middle" x="201.5" y="-118.5" font-family="Helvetica,sans-Serif" font-size="10.00">LGE/core/Log.h</text>
</a>
</g>
</g>
<!-- Node1&#45;&gt;Node17 -->
<g id="edge34_Node000001_Node000017" class="edge">
<title>Node1&#45;&gt;Node17</title>
<g id="a_edge34_Node000001_Node000017"><a xlink:title=" ">
<path fill="none" stroke="#63b8ff" d="M580.76,-172.35C507.83,-162.86 341.5,-141.22 255.39,-130.01"/>
<polygon fill="#63b8ff" stroke="#63b8ff" points="255.91,-126.55 245.54,-128.73 255,-133.49 255.91,-126.55"/>
</a>
</g>
</g>
<!-- Node19 -->
<g id="Node000019" class="node">
<title>Node19</title>
<g id="a_Node000019"><a xlink:title=" ">
<polygon fill="#e0e0e0" stroke="#999999" points="850,-132 801,-132 801,-112 850,-112 850,-132"/>
<text xml:space="preserve" text-anchor="middle" x="825.5" y="-118.5" font-family="Helvetica,sans-Serif" font-size="10.00">fstream</text>
</a>
</g>
</g>
<!-- Node1&#45;&gt;Node19 -->
<g id="edge38_Node000001_Node000019" class="edge">
<title>Node1&#45;&gt;Node19</title>
<g id="a_edge38_Node000001_Node000019"><a xlink:title=" ">
<path fill="none" stroke="#63b8ff" d="M652.27,-168.03C685.57,-159.64 736.86,-146.62 789.71,-132.71"/>
<polygon fill="#63b8ff" stroke="#63b8ff" points="790.41,-136.15 799.18,-130.21 788.62,-129.38 790.41,-136.15"/>
</a>
</g>
</g>
<!-- Node20 -->
<g id="Node000020" class="node">
<title>Node20</title>
<g id="a_Node000020"><a xlink:title=" ">
<polygon fill="#e0e0e0" stroke="#999999" points="919.12,-132 867.88,-132 867.88,-112 919.12,-112 919.12,-132"/>
<text xml:space="preserve" text-anchor="middle" x="893.5" y="-118.5" font-family="Helvetica,sans-Serif" font-size="10.00">sstream</text>
</a>
</g>
</g>
<!-- Node1&#45;&gt;Node20 -->
<g id="edge39_Node000001_Node000020" class="edge">
<title>Node1&#45;&gt;Node20</title>
<g id="a_edge39_Node000001_Node000020"><a xlink:title=" ">
<path fill="none" stroke="#63b8ff" d="M652.09,-171.28C697.45,-163.79 778.54,-149.79 856.57,-132.54"/>
<polygon fill="#63b8ff" stroke="#63b8ff" points="857.09,-136.01 866.08,-130.41 855.56,-129.18 857.09,-136.01"/>
</a>
</g>
</g>
<!-- Node21 -->
<g id="Node000021" class="node">
<title>Node21</title>
<g id="a_Node000021"><a xlink:title=" ">
<polygon fill="#e0e0e0" stroke="#999999" points="993.38,-132 937.62,-132 937.62,-112 993.38,-112 993.38,-132"/>
<text xml:space="preserve" text-anchor="middle" x="965.5" y="-118.5" font-family="Helvetica,sans-Serif" font-size="10.00">algorithm</text>
</a>
</g>
</g>
<!-- Node1&#45;&gt;Node21 -->
<g id="edge40_Node000001_Node000021" class="edge">
<title>Node1&#45;&gt;Node21</title>
<g id="a_edge40_Node000001_Node000021"><a xlink:title=" ">
<path fill="none" stroke="#63b8ff" d="M652.25,-172.97C708.44,-166.39 821.05,-152.23 926.15,-132.3"/>
<polygon fill="#63b8ff" stroke="#63b8ff" points="926.63,-135.77 935.79,-130.44 925.31,-128.89 926.63,-135.77"/>
</a>
</g>
</g>
<!-- Node22 -->
<g id="Node000022" class="node">
<title>Node22</title>
<g id="a_Node000022"><a xlink:title=" ">
<polygon fill="#e0e0e0" stroke="#999999" points="1057.12,-132 1011.88,-132 1011.88,-112 1057.12,-112 1057.12,-132"/>
<text xml:space="preserve" text-anchor="middle" x="1034.5" y="-118.5" font-family="Helvetica,sans-Serif" font-size="10.00">chrono</text>
</a>
</g>
</g>
<!-- Node1&#45;&gt;Node22 -->
<g id="edge41_Node000001_Node000022" class="edge">
<title>Node1&#45;&gt;Node22</title>
<g id="a_edge41_Node000001_Node000022"><a xlink:title=" ">
<path fill="none" stroke="#63b8ff" d="M652.18,-174.73C718.76,-170.1 866.55,-157.9 1000.29,-132.13"/>
<polygon fill="#63b8ff" stroke="#63b8ff" points="1000.91,-135.58 1010.05,-130.22 999.56,-128.71 1000.91,-135.58"/>
</a>
</g>
</g>
<!-- Node3 -->
<g id="Node000003" class="node">
<title>Node3</title>
<g id="a_Node000003"><a xlink:href="FileIO_8h.html" target="_top" xlink:title=" ">
<polygon fill="white" stroke="#666666" points="486.62,-76 402.38,-76 402.38,-56 486.62,-56 486.62,-76"/>
<text xml:space="preserve" text-anchor="middle" x="444.5" y="-62.5" font-family="Helvetica,sans-Serif" font-size="10.00">LGE/fs/FileIO.h</text>
</a>
</g>
</g>
<!-- Node2&#45;&gt;Node3 -->
<g id="edge2_Node000002_Node000003" class="edge">
<title>Node2&#45;&gt;Node3</title>
<g id="a_edge2_Node000002_Node000003"><a xlink:title=" ">
<path fill="none" stroke="#63b8ff" d="M502.31,-111.59C492.17,-103.77 477.51,-92.46 465.49,-83.19"/>
<polygon fill="#63b8ff" stroke="#63b8ff" points="467.81,-80.56 457.75,-77.22 463.53,-86.1 467.81,-80.56"/>
</a>
</g>
</g>
<!-- Node4 -->
<g id="Node000004" class="node">
<title>Node4</title>
<g id="a_Node000004"><a xlink:title=" ">
<polygon fill="#e0e0e0" stroke="#999999" points="375.5,-20 335.5,-20 335.5,0 375.5,0 375.5,-20"/>
<text xml:space="preserve" text-anchor="middle" x="355.5" y="-6.5" font-family="Helvetica,sans-Serif" font-size="10.00">string</text>
</a>
</g>
</g>
<!-- Node2&#45;&gt;Node4 -->
<g id="edge5_Node000002_Node000004" class="edge">
<title>Node2&#45;&gt;Node4</title>
<g id="a_edge5_Node000002_Node000004"><a xlink:title=" ">
<path fill="none" stroke="#63b8ff" d="M467.1,-120.65C431.97,-117.63 385.95,-107.36 360.5,-76 350.46,-63.63 349.95,-45.21 351.53,-31.13"/>
<polygon fill="#63b8ff" stroke="#63b8ff" points="354.92,-32.06 353.02,-21.64 348.01,-30.97 354.92,-32.06"/>
</a>
</g>
</g>
<!-- Node6 -->
<g id="Node000006" class="node">
<title>Node6</title>
<g id="a_Node000006"><a xlink:title=" ">
<polygon fill="#e0e0e0" stroke="#999999" points="664,-20 621,-20 621,0 664,0 664,-20"/>
<text xml:space="preserve" text-anchor="middle" x="642.5" y="-6.5" font-family="Helvetica,sans-Serif" font-size="10.00">vector</text>
</a>
</g>
</g>
<!-- Node2&#45;&gt;Node6 -->
<g id="edge6_Node000002_Node000006" class="edge">
<title>Node2&#45;&gt;Node6</title>
<g id="a_edge6_Node000002_Node000006"><a xlink:title=" ">
<path fill="none" stroke="#63b8ff" d="M521.16,-111.86C531.13,-98.57 550.97,-73.57 571.5,-56 584.75,-44.66 601.11,-34.1 614.78,-26.06"/>
<polygon fill="#63b8ff" stroke="#63b8ff" points="616.36,-29.19 623.3,-21.19 612.88,-23.11 616.36,-29.19"/>
</a>
</g>
</g>
<!-- Node7 -->
<g id="Node000007" class="node">
<title>Node7</title>
<g id="a_Node000007"><a xlink:title=" ">
<polygon fill="#e0e0e0" stroke="#999999" points="859.12,-20 813.88,-20 813.88,0 859.12,0 859.12,-20"/>
<text xml:space="preserve" text-anchor="middle" x="836.5" y="-6.5" font-family="Helvetica,sans-Serif" font-size="10.00">cstdint</text>
</a>
</g>
</g>
<!-- Node2&#45;&gt;Node7 -->
<g id="edge7_Node000002_Node000007" class="edge">
<title>Node2&#45;&gt;Node7</title>
<g id="a_edge7_Node000002_Node000007"><a xlink:title=" ">
<path fill="none" stroke="#63b8ff" d="M561.83,-116.79C627.69,-110.29 742.99,-96.4 779.5,-76 799.09,-65.05 815.24,-44.73 825.28,-29.71"/>
<polygon fill="#63b8ff" stroke="#63b8ff" points="828.02,-31.93 830.42,-21.61 822.11,-28.18 828.02,-31.93"/>
</a>
</g>
</g>
<!-- Node3&#45;&gt;Node4 -->
<g id="edge3_Node000003_Node000004" class="edge">
<title>Node3&#45;&gt;Node4</title>
<g id="a_edge3_Node000003_Node000004"><a xlink:title=" ">
<path fill="none" stroke="#63b8ff" d="M429,-55.59C415.68,-47.51 396.22,-35.71 380.67,-26.27"/>
<polygon fill="#63b8ff" stroke="#63b8ff" points="382.78,-23.46 372.42,-21.26 379.15,-29.44 382.78,-23.46"/>
</a>
</g>
</g>
<!-- Node5 -->
<g id="Node000005" class="node">
<title>Node5</title>
<g id="a_Node000005"><a xlink:title=" ">
<polygon fill="#e0e0e0" stroke="#999999" points="585.25,-20 519.75,-20 519.75,0 585.25,0 585.25,-20"/>
<text xml:space="preserve" text-anchor="middle" x="552.5" y="-6.5" font-family="Helvetica,sans-Serif" font-size="10.00">string_view</text>
</a>
</g>
</g>
<!-- Node3&#45;&gt;Node5 -->
<g id="edge4_Node000003_Node000005" class="edge">
<title>Node3&#45;&gt;Node5</title>
<g id="a_edge4_Node000003_Node000005"><a xlink:title=" ">
<path fill="none" stroke="#63b8ff" d="M463.31,-55.59C479.86,-47.32 504.21,-35.14 523.29,-25.6"/>
<polygon fill="#63b8ff" stroke="#63b8ff" points="524.81,-28.76 532.19,-21.16 521.68,-22.5 524.81,-28.76"/>
</a>
</g>
</g>
<!-- Node8&#45;&gt;Node4 -->
<g id="edge9_Node000008_Node000004" class="edge">
<title>Node8&#45;&gt;Node4</title>
<g id="a_edge9_Node000008_Node000004"><a xlink:title=" ">
<path fill="none" stroke="#63b8ff" d="M100.18,-111.78C106.42,-97.44 120.46,-69.97 141.5,-56 197.73,-18.66 279.07,-11.48 323.52,-10.58"/>
<polygon fill="#63b8ff" stroke="#63b8ff" points="323.55,-14.08 333.52,-10.48 323.49,-7.08 323.55,-14.08"/>
</a>
</g>
</g>
<!-- Node8&#45;&gt;Node9 -->
<g id="edge10_Node000008_Node000009" class="edge">
<title>Node8&#45;&gt;Node9</title>
<g id="a_edge10_Node000008_Node000009"><a xlink:title=" ">
<path fill="none" stroke="#63b8ff" d="M85,-111.59C75.54,-103.85 61.9,-92.69 50.63,-83.47"/>
<polygon fill="#63b8ff" stroke="#63b8ff" points="52.99,-80.88 43.04,-77.26 48.56,-86.3 52.99,-80.88"/>
</a>
</g>
</g>
<!-- Node10&#45;&gt;Node4 -->
<g id="edge12_Node000010_Node000004" class="edge">
<title>Node10&#45;&gt;Node4</title>
<g id="a_edge12_Node000010_Node000004"><a xlink:title=" ">
<path fill="none" stroke="#63b8ff" d="M284.48,-55.59C297.23,-47.59 315.79,-35.93 330.74,-26.54"/>
<polygon fill="#63b8ff" stroke="#63b8ff" points="332.51,-29.57 339.12,-21.28 328.79,-23.64 332.51,-29.57"/>
</a>
</g>
</g>
<!-- Node10&#45;&gt;Node5 -->
<g id="edge13_Node000010_Node000005" class="edge">
<title>Node10&#45;&gt;Node5</title>
<g id="a_edge13_Node000010_Node000005"><a xlink:title=" ">
<path fill="none" stroke="#63b8ff" d="M308.85,-57.49C361.31,-47.48 453.89,-29.82 508.57,-19.38"/>
<polygon fill="#63b8ff" stroke="#63b8ff" points="508.99,-22.87 518.15,-17.55 507.67,-15.99 508.99,-22.87"/>
</a>
</g>
</g>
<!-- Node11&#45;&gt;Node4 -->
<g id="edge15_Node000011_Node000004" class="edge">
<title>Node11&#45;&gt;Node4</title>
<g id="a_edge15_Node000011_Node000004"><a xlink:title=" ">
<path fill="none" stroke="#63b8ff" d="M580.26,-56.97C527.58,-46.2 435.04,-27.27 386.78,-17.4"/>
<polygon fill="#63b8ff" stroke="#63b8ff" points="387.77,-14.03 377.28,-15.45 386.37,-20.89 387.77,-14.03"/>
</a>
</g>
</g>
<!-- Node11&#45;&gt;Node5 -->
<g id="edge16_Node000011_Node000005" class="edge">
<title>Node11&#45;&gt;Node5</title>
<g id="a_edge16_Node000011_Node000005"><a xlink:title=" ">
<path fill="none" stroke="#63b8ff" d="M607.83,-55.59C598.22,-47.85 584.37,-36.69 572.93,-27.47"/>
<polygon fill="#63b8ff" stroke="#63b8ff" points="575.2,-24.8 565.22,-21.25 570.8,-30.25 575.2,-24.8"/>
</a>
</g>
</g>
<!-- Node11&#45;&gt;Node6 -->
<g id="edge17_Node000011_Node000006" class="edge">
<title>Node11&#45;&gt;Node6</title>
<g id="a_edge17_Node000011_Node000006"><a xlink:title=" ">
<path fill="none" stroke="#63b8ff" d="M623.51,-55.59C626.41,-48.78 630.44,-39.32 634.04,-30.86"/>
<polygon fill="#63b8ff" stroke="#63b8ff" points="637.25,-32.26 637.95,-21.69 630.81,-29.52 637.25,-32.26"/>
</a>
</g>
</g>
<!-- Node12 -->
<g id="Node000012" class="node">
<title>Node12</title>
<g id="a_Node000012"><a xlink:title=" ">
<polygon fill="#e0e0e0" stroke="#999999" points="748.38,-20 698.62,-20 698.62,0 748.38,0 748.38,-20"/>
<text xml:space="preserve" text-anchor="middle" x="723.5" y="-6.5" font-family="Helvetica,sans-Serif" font-size="10.00">optional</text>
</a>
</g>
</g>
<!-- Node11&#45;&gt;Node12 -->
<g id="edge18_Node000011_Node000012" class="edge">
<title>Node11&#45;&gt;Node12</title>
<g id="a_edge18_Node000011_Node000012"><a xlink:title=" ">
<path fill="none" stroke="#63b8ff" d="M637.62,-55.59C653.47,-47.36 676.78,-35.26 695.12,-25.74"/>
<polygon fill="#63b8ff" stroke="#63b8ff" points="696.64,-28.89 703.9,-21.18 693.41,-22.68 696.64,-28.89"/>
</a>
</g>
</g>
<!-- Node13&#45;&gt;Node4 -->
<g id="edge20_Node000013_Node000004" class="edge">
<title>Node13&#45;&gt;Node4</title>
<g id="a_edge20_Node000013_Node000004"><a xlink:title=" ">
<path fill="none" stroke="#63b8ff" d="M676.15,-57.34C673.23,-56.88 670.32,-56.43 667.5,-56 565.18,-40.4 443.76,-23.29 387.3,-15.41"/>
<polygon fill="#63b8ff" stroke="#63b8ff" points="387.85,-11.96 377.46,-14.04 386.88,-18.89 387.85,-11.96"/>
</a>
</g>
</g>
<!-- Node13&#45;&gt;Node5 -->
<g id="edge21_Node000013_Node000005" class="edge">
<title>Node13&#45;&gt;Node5</title>
<g id="a_edge21_Node000013_Node000005"><a xlink:title=" ">
<path fill="none" stroke="#63b8ff" d="M693.71,-55.59C665.93,-46.82 624.25,-33.66 593.36,-23.9"/>
<polygon fill="#63b8ff" stroke="#63b8ff" points="594.55,-20.61 583.96,-20.94 592.44,-27.28 594.55,-20.61"/>
</a>
</g>
</g>
<!-- Node13&#45;&gt;Node6 -->
<g id="edge22_Node000013_Node000006" class="edge">
<title>Node13&#45;&gt;Node6</title>
<g id="a_edge22_Node000013_Node000006"><a xlink:title=" ">
<path fill="none" stroke="#63b8ff" d="M709.39,-55.59C697.5,-47.67 680.23,-36.16 666.22,-26.82"/>
<polygon fill="#63b8ff" stroke="#63b8ff" points="668.24,-23.95 657.98,-21.32 664.36,-29.78 668.24,-23.95"/>
</a>
</g>
</g>
<!-- Node13&#45;&gt;Node7 -->
<g id="edge24_Node000013_Node000007" class="edge">
<title>Node13&#45;&gt;Node7</title>
<g id="a_edge24_Node000013_Node000007"><a xlink:title=" ">
<path fill="none" stroke="#63b8ff" d="M743.18,-55.59C760.66,-47.24 786.45,-34.92 806.5,-25.34"/>
<polygon fill="#63b8ff" stroke="#63b8ff" points="807.78,-28.6 815.3,-21.13 804.77,-22.29 807.78,-28.6"/>
</a>
</g>
</g>
<!-- Node13&#45;&gt;Node12 -->
<g id="edge23_Node000013_Node000012" class="edge">
<title>Node13&#45;&gt;Node12</title>
<g id="a_edge23_Node000013_Node000012"><a xlink:title=" ">
<path fill="none" stroke="#63b8ff" d="M723.5,-55.59C723.5,-49.01 723.5,-39.96 723.5,-31.73"/>
<polygon fill="#63b8ff" stroke="#63b8ff" points="727,-31.81 723.5,-21.81 720,-31.81 727,-31.81"/>
</a>
</g>
</g>
<!-- Node14&#45;&gt;Node4 -->
<g id="edge27_Node000014_Node000004" class="edge">
<title>Node14&#45;&gt;Node4</title>
<g id="a_edge27_Node000014_Node000004"><a xlink:title=" ">
<path fill="none" stroke="#63b8ff" d="M663.3,-115.66C574.24,-107.33 415.47,-90.67 393.5,-76 377.72,-65.46 367.61,-45.97 361.82,-31.07"/>
<polygon fill="#63b8ff" stroke="#63b8ff" points="365.18,-30.08 358.58,-21.79 358.58,-32.39 365.18,-30.08"/>
</a>
</g>
</g>
<!-- Node14&#45;&gt;Node5 -->
<g id="edge28_Node000014_Node000005" class="edge">
<title>Node14&#45;&gt;Node5</title>
<g id="a_edge28_Node000014_Node000005"><a xlink:title=" ">
<path fill="none" stroke="#63b8ff" d="M663.53,-116.79C632.3,-111.58 595.69,-100.27 571.5,-76 559.82,-64.28 555.24,-45.79 553.48,-31.53"/>
<polygon fill="#63b8ff" stroke="#63b8ff" points="557,-31.54 552.68,-21.86 550.02,-32.12 557,-31.54"/>
</a>
</g>
</g>
<!-- Node14&#45;&gt;Node6 -->
<g id="edge29_Node000014_Node000006" class="edge">
<title>Node14&#45;&gt;Node6</title>
<g id="a_edge29_Node000014_Node000006"><a xlink:title=" ">
<path fill="none" stroke="#63b8ff" d="M742.11,-111.51C763.73,-99.22 794.61,-76.87 779.5,-56 767.15,-38.94 711.83,-24.86 675.38,-17.22"/>
<polygon fill="#63b8ff" stroke="#63b8ff" points="676.26,-13.83 665.77,-15.27 674.87,-20.69 676.26,-13.83"/>
</a>
</g>
</g>
<!-- Node14&#45;&gt;Node7 -->
<g id="edge33_Node000014_Node000007" class="edge">
<title>Node14&#45;&gt;Node7</title>
<g id="a_edge33_Node000014_Node000007"><a xlink:title=" ">
<path fill="none" stroke="#63b8ff" d="M783.48,-112.99C860.95,-102.36 986.72,-84 993.5,-76 1029.55,-33.45 926.73,-18.29 870.49,-13.28"/>
<polygon fill="#63b8ff" stroke="#63b8ff" points="871.03,-9.81 860.77,-12.48 870.45,-16.79 871.03,-9.81"/>
</a>
</g>
</g>
<!-- Node14&#45;&gt;Node12 -->
<g id="edge31_Node000014_Node000012" class="edge">
<title>Node14&#45;&gt;Node12</title>
<g id="a_edge31_Node000014_Node000012"><a xlink:title=" ">
<path fill="none" stroke="#63b8ff" d="M762.49,-111.54C781.04,-104.88 801.53,-93.85 812.5,-76 828.37,-50.19 790.56,-31.45 759.41,-20.9"/>
<polygon fill="#63b8ff" stroke="#63b8ff" points="760.8,-17.66 750.21,-17.97 758.67,-24.33 760.8,-17.66"/>
</a>
</g>
</g>
<!-- Node14&#45;&gt;Node13 -->
<g id="edge26_Node000014_Node000013" class="edge">
<title>Node14&#45;&gt;Node13</title>
<g id="a_edge26_Node000014_Node000013"><a xlink:title=" ">
<path fill="none" stroke="#63b8ff" d="M723.5,-111.59C723.5,-105.01 723.5,-95.96 723.5,-87.73"/>
<polygon fill="#63b8ff" stroke="#63b8ff" points="727,-87.81 723.5,-77.81 720,-87.81 727,-87.81"/>
</a>
</g>
</g>
<!-- Node15 -->
<g id="Node000015" class="node">
<title>Node15</title>
<g id="a_Node000015"><a xlink:title=" ">
<polygon fill="#e0e0e0" stroke="#999999" points="984.88,-76 902.12,-76 902.12,-56 984.88,-56 984.88,-76"/>
<text xml:space="preserve" text-anchor="middle" x="943.5" y="-62.5" font-family="Helvetica,sans-Serif" font-size="10.00">unordered_map</text>
</a>
</g>
</g>
<!-- Node14&#45;&gt;Node15 -->
<g id="edge30_Node000014_Node000015" class="edge">
<title>Node14&#45;&gt;Node15</title>
<g id="a_edge30_Node000014_Node000015"><a xlink:title=" ">
<path fill="none" stroke="#63b8ff" d="M762.07,-111.53C798.72,-102.54 853.99,-88.97 893.89,-79.18"/>
<polygon fill="#63b8ff" stroke="#63b8ff" points="894.62,-82.6 903.5,-76.82 892.96,-75.8 894.62,-82.6"/>
</a>
</g>
</g>
<!-- Node16 -->
<g id="Node000016" class="node">
<title>Node16</title>
<g id="a_Node000016"><a xlink:title=" ">
<polygon fill="#e0e0e0" stroke="#999999" points="1098.5,-76 1040.5,-76 1040.5,-56 1098.5,-56 1098.5,-76"/>
<text xml:space="preserve" text-anchor="middle" x="1069.5" y="-62.5" font-family="Helvetica,sans-Serif" font-size="10.00">functional</text>
</a>
</g>
</g>
<!-- Node14&#45;&gt;Node16 -->
<g id="edge32_Node000014_Node000016" class="edge">
<title>Node14&#45;&gt;Node16</title>
<g id="a_edge32_Node000014_Node000016"><a xlink:title=" ">
<path fill="none" stroke="#63b8ff" d="M783.75,-113.12C845.01,-104.85 942.61,-91 1026.5,-76 1027.49,-75.82 1028.48,-75.64 1029.49,-75.46"/>
<polygon fill="#63b8ff" stroke="#63b8ff" points="1029.77,-78.97 1038.92,-73.62 1028.43,-72.1 1029.77,-78.97"/>
</a>
</g>
</g>
<!-- Node17&#45;&gt;Node4 -->
<g id="edge36_Node000017_Node000004" class="edge">
<title>Node17&#45;&gt;Node4</title>
<g id="a_edge36_Node000017_Node000004"><a xlink:title=" ">
<path fill="none" stroke="#63b8ff" d="M184.41,-111.51C163.76,-98.84 133.64,-75.7 149.5,-56 171.06,-29.22 271.92,-17.51 324.07,-13.17"/>
<polygon fill="#63b8ff" stroke="#63b8ff" points="324.11,-16.68 333.81,-12.41 323.56,-9.7 324.11,-16.68"/>
</a>
</g>
</g>
<!-- Node18 -->
<g id="Node000018" class="node">
<title>Node18</title>
<g id="a_Node000018"><a xlink:title=" ">
<polygon fill="#e0e0e0" stroke="#999999" points="212.25,-76 158.75,-76 158.75,-56 212.25,-56 212.25,-76"/>
<text xml:space="preserve" text-anchor="middle" x="185.5" y="-62.5" font-family="Helvetica,sans-Serif" font-size="10.00">iostream</text>
</a>
</g>
</g>
<!-- Node17&#45;&gt;Node18 -->
<g id="edge35_Node000017_Node000018" class="edge">
<title>Node17&#45;&gt;Node18</title>
<g id="a_edge35_Node000017_Node000018"><a xlink:title=" ">
<path fill="none" stroke="#63b8ff" d="M198.71,-111.59C196.72,-104.86 193.95,-95.53 191.47,-87.15"/>
<polygon fill="#63b8ff" stroke="#63b8ff" points="194.88,-86.34 188.69,-77.75 188.17,-88.33 194.88,-86.34"/>
</a>
</g>
</g>
</g>
</svg>
