<?xml version="1.0" encoding="UTF-8" standalone="no"?>
<!DOCTYPE svg PUBLIC "-//W3C//DTD SVG 1.1//EN"
 "http://www.w3.org/Graphics/SVG/1.1/DTD/svg11.dtd">
<!-- Generated by graphviz version 14.0.2 (20251019.1705)
 -->
<!-- Title: Recycle.h Pages: 1 -->
<svg width="265pt" height="140pt"
 viewBox="0.00 0.00 265.00 140.00" xmlns="http://www.w3.org/2000/svg" xmlns:xlink="http://www.w3.org/1999/xlink">
<g id="graph0" class="graph" transform="scale(1 1) rotate(0) translate(4 136)">
<title>Recycle.h</title>
<!-- Node1 -->
<g id="Node000001" class="node">
<title>Node1</title>
<g id="a_Node000001"><a xlink:title=" ">
<polygon fill="#999999" stroke="#666666" points="161.12,-132 100.88,-132 100.88,-112 161.12,-112 161.12,-132"/>
<text xml:space="preserve" text-anchor="middle" x="131" y="-118.5" font-family="Helvetica,sans-Serif" font-size="10.00">Recycle.h</text>
</a>
</g>
</g>
<!-- Node2 -->
<g id="Node000002" class="node">
<title>Node2</title>
<g id="a_Node000002"><a xlink:href="FileIO_8h.html" target="_top" xlink:title=" ">
<polygon fill="white" stroke="#666666" points="132.12,-76 47.88,-76 47.88,-56 132.12,-56 132.12,-76"/>
<text xml:space="preserve" text-anchor="middle" x="90" y="-62.5" font-family="Helvetica,sans-Serif" font-size="10.00">LGE/fs/FileIO.h</text>
</a>
</g>
</g>
<!-- Node1&#45;&gt;Node2 -->
<g id="edge1_Node000001_Node000002" class="edge">
<title>Node1&#45;&gt;Node2</title>
<g id="a_edge1_Node000001_Node000002"><a xlink:title=" ">
<path fill="none" stroke="#63b8ff" d="M123.86,-111.59C118.39,-104.39 110.68,-94.23 103.99,-85.43"/>
<polygon fill="#63b8ff" stroke="#63b8ff" points="106.81,-83.35 97.98,-77.5 101.23,-87.58 106.81,-83.35"/>
</a>
</g>
</g>
<!-- Node3 -->
<g id="Node000003" class="node">
<title>Node3</title>
<g id="a_Node000003"><a xlink:title=" ">
<polygon fill="#e0e0e0" stroke="#999999" points="40,-20 0,-20 0,0 40,0 40,-20"/>
<text xml:space="preserve" text-anchor="middle" x="20" y="-6.5" font-family="Helvetica,sans-Serif" font-size="10.00">string</text>
</a>
</g>
</g>
<!-- Node1&#45;&gt;Node3 -->
<g id="edge4_Node000001_Node000003" class="edge">
<title>Node1&#45;&gt;Node3</title>
<g id="a_edge4_Node000001_Node000003"><a xlink:title=" ">
<path fill="none" stroke="#63b8ff" d="M100.46,-113.09C80.31,-106.38 54.81,-94.76 39,-76 28.44,-63.47 23.75,-45.32 21.66,-31.39"/>
<polygon fill="#63b8ff" stroke="#63b8ff" points="25.15,-31.1 20.56,-21.56 18.2,-31.88 25.15,-31.1"/>
</a>
</g>
</g>
<!-- Node5 -->
<g id="Node000005" class="node">
<title>Node5</title>
<g id="a_Node000005"><a xlink:title=" ">
<polygon fill="#e0e0e0" stroke="#999999" points="193.5,-76 150.5,-76 150.5,-56 193.5,-56 193.5,-76"/>
<text xml:space="preserve" text-anchor="middle" x="172" y="-62.5" font-family="Helvetica,sans-Serif" font-size="10.00">vector</text>
</a>
</g>
</g>
<!-- Node1&#45;&gt;Node5 -->
<g id="edge5_Node000001_Node000005" class="edge">
<title>Node1&#45;&gt;Node5</title>
<g id="a_edge5_Node000001_Node000005"><a xlink:title=" ">
<path fill="none" stroke="#63b8ff" d="M138.14,-111.59C143.61,-104.39 151.32,-94.23 158.01,-85.43"/>
<polygon fill="#63b8ff" stroke="#63b8ff" points="160.77,-87.58 164.02,-77.5 155.19,-83.35 160.77,-87.58"/>
</a>
</g>
</g>
<!-- Node6 -->
<g id="Node000006" class="node">
<title>Node6</title>
<g id="a_Node000006"><a xlink:title=" ">
<polygon fill="#e0e0e0" stroke="#999999" points="256.62,-76 211.38,-76 211.38,-56 256.62,-56 256.62,-76"/>
<text xml:space="preserve" text-anchor="middle" x="234" y="-62.5" font-family="Helvetica,sans-Serif" font-size="10.00">cstdint</text>
</a>
</g>
</g>
<!-- Node1&#45;&gt;Node6 -->
<g id="edge6_Node000001_Node000006" class="edge">
<title>Node1&#45;&gt;Node6</title>
<g id="a_edge6_Node000001_Node000006"><a xlink:title=" ">
<path fill="none" stroke="#63b8ff" d="M148.94,-111.59C164.65,-103.36 187.73,-91.26 205.89,-81.74"/>
<polygon fill="#63b8ff" stroke="#63b8ff" points="207.35,-84.93 214.58,-77.18 204.1,-78.73 207.35,-84.93"/>
</a>
</g>
</g>
<!-- Node2&#45;&gt;Node3 -->
<g id="edge2_Node000002_Node000003" class="edge">
<title>Node2&#45;&gt;Node3</title>
<g id="a_edge2_Node000002_Node000003"><a xlink:title=" ">
<path fill="none" stroke="#63b8ff" d="M77.81,-55.59C67.67,-47.77 53.01,-36.46 40.99,-27.19"/>
<polygon fill="#63b8ff" stroke="#63b8ff" points="43.31,-24.56 33.25,-21.22 39.03,-30.1 43.31,-24.56"/>
</a>
</g>
</g>
<!-- Node4 -->
<g id="Node000004" class="node">
<title>Node4</title>
<g id="a_Node000004"><a xlink:title=" ">
<polygon fill="#e0e0e0" stroke="#999999" points="123.75,-20 58.25,-20 58.25,0 123.75,0 123.75,-20"/>
<text xml:space="preserve" text-anchor="middle" x="91" y="-6.5" font-family="Helvetica,sans-Serif" font-size="10.00">string_view</text>
</a>
</g>
</g>
<!-- Node2&#45;&gt;Node4 -->
<g id="edge3_Node000002_Node000004" class="edge">
<title>Node2&#45;&gt;Node4</title>
<g id="a_edge3_Node000002_Node000004"><a xlink:title=" ">
<path fill="none" stroke="#63b8ff" d="M90.17,-55.59C90.3,-49.01 90.46,-39.96 90.62,-31.73"/>
<polygon fill="#63b8ff" stroke="#63b8ff" points="94.11,-31.87 90.8,-21.81 87.12,-31.75 94.11,-31.87"/>
</a>
</g>
</g>
</g>
</svg>
