<?xml version="1.0" encoding="UTF-8" standalone="no"?>
<!DOCTYPE svg PUBLIC "-//W3C//DTD SVG 1.1//EN"
 "http://www.w3.org/Graphics/SVG/1.1/DTD/svg11.dtd">
<!-- Generated by graphviz version 14.0.2 (20251019.1705)
 -->
<!-- Title: Renderer.cpp Pages: 1 -->
<svg width="279pt" height="208pt"
 viewBox="0.00 0.00 279.00 208.00" xmlns="http://www.w3.org/2000/svg" xmlns:xlink="http://www.w3.org/1999/xlink">
<g id="graph0" class="graph" transform="scale(1 1) rotate(0) translate(4 204)">
<title>Renderer.cpp</title>
<!-- Node1 -->
<g id="Node000001" class="node">
<title>Node1</title>
<g id="a_Node000001"><a xlink:title=" ">
<polygon fill="#999999" stroke="#666666" points="140.88,-200 66.38,-200 66.38,-180 140.88,-180 140.88,-200"/>
<text xml:space="preserve" text-anchor="middle" x="103.62" y="-186.5" font-family="Helvetica,sans-Serif" font-size="10.00">Renderer.cpp</text>
</a>
</g>
</g>
<!-- Node2 -->
<g id="Node000002" class="node">
<title>Node2</title>
<g id="a_Node000002"><a xlink:href="Renderer_8h.html" target="_top" xlink:title=" ">
<polygon fill="white" stroke="#666666" points="129.25,-76 0,-76 0,-56 129.25,-56 129.25,-76"/>
<text xml:space="preserve" text-anchor="middle" x="64.62" y="-62.5" font-family="Helvetica,sans-Serif" font-size="10.00">LGE/rendering/Renderer.h</text>
</a>
</g>
</g>
<!-- Node1&#45;&gt;Node2 -->
<g id="edge1_Node000001_Node000002" class="edge">
<title>Node1&#45;&gt;Node2</title>
<g id="a_edge1_Node000001_Node000002"><a xlink:title=" ">
<path fill="none" stroke="#63b8ff" d="M80.55,-179.57C65.93,-172.24 48.2,-160.51 39.62,-144 29.85,-125.17 40.29,-101.78 50.51,-85.75"/>
<polygon fill="#63b8ff" stroke="#63b8ff" points="53.3,-87.86 56.12,-77.64 47.55,-83.88 53.3,-87.86"/>
</a>
</g>
</g>
<!-- Node5 -->
<g id="Node000005" class="node">
<title>Node5</title>
<g id="a_Node000005"><a xlink:href="OpenGLRenderer_8h.html" target="_top" xlink:title=" ">
<polygon fill="white" stroke="#666666" points="158.5,-144 48.75,-144 48.75,-112 158.5,-112 158.5,-144"/>
<text xml:space="preserve" text-anchor="start" x="56.75" y="-130.5" font-family="Helvetica,sans-Serif" font-size="10.00">LGE/rendering/opengl</text>
<text xml:space="preserve" text-anchor="middle" x="103.62" y="-118.5" font-family="Helvetica,sans-Serif" font-size="10.00">/OpenGLRenderer.h</text>
</a>
</g>
</g>
<!-- Node1&#45;&gt;Node5 -->
<g id="edge4_Node000001_Node000005" class="edge">
<title>Node1&#45;&gt;Node5</title>
<g id="a_edge4_Node000001_Node000005"><a xlink:title=" ">
<path fill="none" stroke="#63b8ff" d="M103.62,-179.62C103.62,-173.1 103.62,-164.05 103.62,-155.4"/>
<polygon fill="#63b8ff" stroke="#63b8ff" points="107.13,-155.65 103.63,-145.65 100.13,-155.65 107.13,-155.65"/>
</a>
</g>
</g>
<!-- Node6 -->
<g id="Node000006" class="node">
<title>Node6</title>
<g id="a_Node000006"><a xlink:href="Log_8h.html" target="_top" xlink:title=" ">
<polygon fill="white" stroke="#666666" points="260.75,-138 176.5,-138 176.5,-118 260.75,-118 260.75,-138"/>
<text xml:space="preserve" text-anchor="middle" x="218.62" y="-124.5" font-family="Helvetica,sans-Serif" font-size="10.00">LGE/core/Log.h</text>
</a>
</g>
</g>
<!-- Node1&#45;&gt;Node6 -->
<g id="edge6_Node000001_Node000006" class="edge">
<title>Node1&#45;&gt;Node6</title>
<g id="a_edge6_Node000001_Node000006"><a xlink:title=" ">
<path fill="none" stroke="#63b8ff" d="M121.59,-179.62C140.08,-169.98 169.12,-154.83 190.62,-143.61"/>
<polygon fill="#63b8ff" stroke="#63b8ff" points="192.19,-146.74 199.44,-139.01 188.96,-140.53 192.19,-146.74"/>
</a>
</g>
</g>
<!-- Node3 -->
<g id="Node000003" class="node">
<title>Node3</title>
<g id="a_Node000003"><a xlink:title=" ">
<polygon fill="#e0e0e0" stroke="#999999" points="57.25,-20 6,-20 6,0 57.25,0 57.25,-20"/>
<text xml:space="preserve" text-anchor="middle" x="31.62" y="-6.5" font-family="Helvetica,sans-Serif" font-size="10.00">memory</text>
</a>
</g>
</g>
<!-- Node2&#45;&gt;Node3 -->
<g id="edge2_Node000002_Node000003" class="edge">
<title>Node2&#45;&gt;Node3</title>
<g id="a_edge2_Node000002_Node000003"><a xlink:title=" ">
<path fill="none" stroke="#63b8ff" d="M58.88,-55.59C54.57,-48.55 48.53,-38.67 43.24,-30"/>
<polygon fill="#63b8ff" stroke="#63b8ff" points="46.3,-28.3 38.1,-21.59 40.32,-31.95 46.3,-28.3"/>
</a>
</g>
</g>
<!-- Node4 -->
<g id="Node000004" class="node">
<title>Node4</title>
<g id="a_Node000004"><a xlink:title=" ">
<polygon fill="#e0e0e0" stroke="#999999" points="120.25,-20 75,-20 75,0 120.25,0 120.25,-20"/>
<text xml:space="preserve" text-anchor="middle" x="97.62" y="-6.5" font-family="Helvetica,sans-Serif" font-size="10.00">cstdint</text>
</a>
</g>
</g>
<!-- Node2&#45;&gt;Node4 -->
<g id="edge3_Node000002_Node000004" class="edge">
<title>Node2&#45;&gt;Node4</title>
<g id="a_edge3_Node000002_Node000004"><a xlink:title=" ">
<path fill="none" stroke="#63b8ff" d="M70.37,-55.59C74.68,-48.55 80.72,-38.67 86.01,-30"/>
<polygon fill="#63b8ff" stroke="#63b8ff" points="88.93,-31.95 91.15,-21.59 82.95,-28.3 88.93,-31.95"/>
</a>
</g>
</g>
<!-- Node5&#45;&gt;Node2 -->
<g id="edge5_Node000005_Node000002" class="edge">
<title>Node5&#45;&gt;Node2</title>
<g id="a_edge5_Node000005_Node000002"><a xlink:title=" ">
<path fill="none" stroke="#63b8ff" d="M93.58,-111.55C88.5,-103.74 82.3,-94.19 76.93,-85.94"/>
<polygon fill="#63b8ff" stroke="#63b8ff" points="79.95,-84.15 71.57,-77.68 74.08,-87.97 79.95,-84.15"/>
</a>
</g>
</g>
<!-- Node7 -->
<g id="Node000007" class="node">
<title>Node7</title>
<g id="a_Node000007"><a xlink:title=" ">
<polygon fill="#e0e0e0" stroke="#999999" points="212.38,-76 158.88,-76 158.88,-56 212.38,-56 212.38,-76"/>
<text xml:space="preserve" text-anchor="middle" x="185.62" y="-62.5" font-family="Helvetica,sans-Serif" font-size="10.00">iostream</text>
</a>
</g>
</g>
<!-- Node6&#45;&gt;Node7 -->
<g id="edge7_Node000006_Node000007" class="edge">
<title>Node6&#45;&gt;Node7</title>
<g id="a_edge7_Node000006_Node000007"><a xlink:title=" ">
<path fill="none" stroke="#63b8ff" d="M213.47,-117.62C208.84,-109.21 201.9,-96.6 196.11,-86.07"/>
<polygon fill="#63b8ff" stroke="#63b8ff" points="199.25,-84.51 191.37,-77.44 193.12,-87.89 199.25,-84.51"/>
</a>
</g>
</g>
<!-- Node8 -->
<g id="Node000008" class="node">
<title>Node8</title>
<g id="a_Node000008"><a xlink:title=" ">
<polygon fill="#e0e0e0" stroke="#999999" points="270.62,-76 230.62,-76 230.62,-56 270.62,-56 270.62,-76"/>
<text xml:space="preserve" text-anchor="middle" x="250.62" y="-62.5" font-family="Helvetica,sans-Serif" font-size="10.00">string</text>
</a>
</g>
</g>
<!-- Node6&#45;&gt;Node8 -->
<g id="edge8_Node000006_Node000008" class="edge">
<title>Node6&#45;&gt;Node8</title>
<g id="a_edge8_Node000006_Node000008"><a xlink:title=" ">
<path fill="none" stroke="#63b8ff" d="M223.62,-117.62C228.11,-109.21 234.84,-96.6 240.45,-86.07"/>
<polygon fill="#63b8ff" stroke="#63b8ff" points="243.43,-87.92 245.05,-77.45 237.26,-84.62 243.43,-87.92"/>
</a>
</g>
</g>
</g>
</svg>
