<?xml version="1.0" encoding="UTF-8" standalone="no"?>
<!DOCTYPE svg PUBLIC "-//W3C//DTD SVG 1.1//EN"
 "http://www.w3.org/Graphics/SVG/1.1/DTD/svg11.dtd">
<!-- Generated by graphviz version 14.0.2 (20251019.1705)
 -->
<!-- Title: SceneViewport.cpp Pages: 1 -->
<svg width="1838pt" height="252pt"
 viewBox="0.00 0.00 1838.00 252.00" xmlns="http://www.w3.org/2000/svg" xmlns:xlink="http://www.w3.org/1999/xlink">
<g id="graph0" class="graph" transform="scale(1 1) rotate(0) translate(4 248)">
<title>SceneViewport.cpp</title>
<!-- Node1 -->
<g id="Node000001" class="node">
<title>Node1</title>
<g id="a_Node000001"><a xlink:title=" ">
<polygon fill="#999999" stroke="#666666" points="956,-244 855.25,-244 855.25,-224 956,-224 956,-244"/>
<text xml:space="preserve" text-anchor="middle" x="905.62" y="-230.5" font-family="Helvetica,sans-Serif" font-size="10.00">SceneViewport.cpp</text>
</a>
</g>
</g>
<!-- Node2 -->
<g id="Node000002" class="node">
<title>Node2</title>
<g id="a_Node000002"><a xlink:title=" ">
<polygon fill="#e0e0e0" stroke="#999999" points="63.25,-188 0,-188 0,-168 63.25,-168 63.25,-188"/>
<text xml:space="preserve" text-anchor="middle" x="31.62" y="-174.5" font-family="Helvetica,sans-Serif" font-size="10.00">glad/glad.h</text>
</a>
</g>
</g>
<!-- Node1&#45;&gt;Node2 -->
<g id="edge1_Node000001_Node000002" class="edge">
<title>Node1&#45;&gt;Node2</title>
<g id="a_edge1_Node000001_Node000002"><a xlink:title=" ">
<path fill="none" stroke="#63b8ff" d="M855,-232.69C725.27,-231.37 370.49,-224.43 77.62,-188 76.78,-187.89 75.92,-187.78 75.06,-187.66"/>
<polygon fill="#63b8ff" stroke="#63b8ff" points="75.62,-184.21 65.2,-186.1 74.53,-191.12 75.62,-184.21"/>
</a>
</g>
</g>
<!-- Node3 -->
<g id="Node000003" class="node">
<title>Node3</title>
<g id="a_Node000003"><a xlink:href="SceneViewport_8h.html" target="_top" xlink:title=" ">
<polygon fill="white" stroke="#666666" points="788.25,-188 665,-188 665,-168 788.25,-168 788.25,-188"/>
<text xml:space="preserve" text-anchor="middle" x="726.62" y="-174.5" font-family="Helvetica,sans-Serif" font-size="10.00">LGE/ui/SceneViewport.h</text>
</a>
</g>
</g>
<!-- Node1&#45;&gt;Node3 -->
<g id="edge2_Node000001_Node000003" class="edge">
<title>Node1&#45;&gt;Node3</title>
<g id="a_edge2_Node000001_Node000003"><a xlink:title=" ">
<path fill="none" stroke="#63b8ff" d="M874.45,-223.59C845.24,-214.78 801.35,-201.54 768.97,-191.78"/>
<polygon fill="#63b8ff" stroke="#63b8ff" points="770.08,-188.45 759.5,-188.92 768.06,-195.16 770.08,-188.45"/>
</a>
</g>
</g>
<!-- Node6 -->
<g id="Node000006" class="node">
<title>Node6</title>
<g id="a_Node000006"><a xlink:href="Vector_8h.html" target="_top" xlink:title=" ">
<polygon fill="white" stroke="#666666" points="334.25,-76 235,-76 235,-56 334.25,-56 334.25,-76"/>
<text xml:space="preserve" text-anchor="middle" x="284.62" y="-62.5" font-family="Helvetica,sans-Serif" font-size="10.00">LGE/math/Vector.h</text>
</a>
</g>
</g>
<!-- Node1&#45;&gt;Node6 -->
<g id="edge47_Node000001_Node000006" class="edge">
<title>Node1&#45;&gt;Node6</title>
<g id="a_edge47_Node000001_Node000006"><a xlink:title=" ">
<path fill="none" stroke="#63b8ff" d="M854.75,-232.8C698.48,-231.78 232.57,-225.59 176.62,-188 146.87,-168.01 128.67,-141.08 149.62,-112 159.2,-98.72 195.03,-87.13 227.38,-79.04"/>
<polygon fill="#63b8ff" stroke="#63b8ff" points="227.8,-82.54 236.7,-76.79 226.16,-75.73 227.8,-82.54"/>
</a>
</g>
</g>
<!-- Node7 -->
<g id="Node000007" class="node">
<title>Node7</title>
<g id="a_Node000007"><a xlink:title=" ">
<polygon fill="#e0e0e0" stroke="#999999" points="210.12,-20 167.12,-20 167.12,0 210.12,0 210.12,-20"/>
<text xml:space="preserve" text-anchor="middle" x="188.62" y="-6.5" font-family="Helvetica,sans-Serif" font-size="10.00">cmath</text>
</a>
</g>
</g>
<!-- Node1&#45;&gt;Node7 -->
<g id="edge52_Node000001_Node000007" class="edge">
<title>Node1&#45;&gt;Node7</title>
<g id="a_edge52_Node000001_Node000007"><a xlink:title=" ">
<path fill="none" stroke="#63b8ff" d="M854.75,-233.43C693.83,-234.33 203.28,-233.29 149.62,-188 102.59,-148.3 150.2,-65.93 175.29,-29.27"/>
<polygon fill="#63b8ff" stroke="#63b8ff" points="177.89,-31.65 180.79,-21.46 172.17,-27.62 177.89,-31.65"/>
</a>
</g>
</g>
<!-- Node10 -->
<g id="Node000010" class="node">
<title>Node10</title>
<g id="a_Node000010"><a xlink:title=" ">
<polygon fill="#e0e0e0" stroke="#999999" points="471.12,-132 428.12,-132 428.12,-112 471.12,-112 471.12,-132"/>
<text xml:space="preserve" text-anchor="middle" x="449.62" y="-118.5" font-family="Helvetica,sans-Serif" font-size="10.00">vector</text>
</a>
</g>
</g>
<!-- Node1&#45;&gt;Node10 -->
<g id="edge54_Node000001_Node000010" class="edge">
<title>Node1&#45;&gt;Node10</title>
<g id="a_edge54_Node000001_Node000010"><a xlink:title=" ">
<path fill="none" stroke="#63b8ff" d="M855.07,-231.67C762.08,-228.52 567.97,-218.39 508.62,-188 488.35,-177.61 471.63,-157.19 461.23,-142"/>
<polygon fill="#63b8ff" stroke="#63b8ff" points="464.28,-140.26 455.9,-133.77 458.4,-144.06 464.28,-140.26"/>
</a>
</g>
</g>
<!-- Node11 -->
<g id="Node000011" class="node">
<title>Node11</title>
<g id="a_Node000011"><a xlink:href="Camera_8h.html" target="_top" xlink:title=" ">
<polygon fill="white" stroke="#666666" points="319.62,-188 195.62,-188 195.62,-168 319.62,-168 319.62,-188"/>
<text xml:space="preserve" text-anchor="middle" x="257.62" y="-174.5" font-family="Helvetica,sans-Serif" font-size="10.00">LGE/rendering/Camera.h</text>
</a>
</g>
</g>
<!-- Node1&#45;&gt;Node11 -->
<g id="edge11_Node000001_Node000011" class="edge">
<title>Node1&#45;&gt;Node11</title>
<g id="a_edge11_Node000001_Node000011"><a xlink:title=" ">
<path fill="none" stroke="#63b8ff" d="M855,-229.88C756.37,-223.61 531.34,-208.44 331.26,-188.22"/>
<polygon fill="#63b8ff" stroke="#63b8ff" points="331.75,-184.76 321.45,-187.23 331.04,-191.72 331.75,-184.76"/>
</a>
</g>
</g>
<!-- Node12 -->
<g id="Node000012" class="node">
<title>Node12</title>
<g id="a_Node000012"><a xlink:href="Matrix_8h.html" target="_top" xlink:title=" ">
<polygon fill="white" stroke="#666666" points="256.88,-132 158.38,-132 158.38,-112 256.88,-112 256.88,-132"/>
<text xml:space="preserve" text-anchor="middle" x="207.62" y="-118.5" font-family="Helvetica,sans-Serif" font-size="10.00">LGE/math/Matrix.h</text>
</a>
</g>
</g>
<!-- Node1&#45;&gt;Node12 -->
<g id="edge48_Node000001_Node000012" class="edge">
<title>Node1&#45;&gt;Node12</title>
<g id="a_edge48_Node000001_Node000012"><a xlink:title=" ">
<path fill="none" stroke="#63b8ff" d="M854.93,-231.71C694.87,-227.39 209.49,-212.34 186.62,-188 174.62,-175.22 183.49,-155.51 193.13,-141.15"/>
<polygon fill="#63b8ff" stroke="#63b8ff" points="195.69,-143.57 198.78,-133.43 190.05,-139.43 195.69,-143.57"/>
</a>
</g>
</g>
<!-- Node14 -->
<g id="Node000014" class="node">
<title>Node14</title>
<g id="a_Node000014"><a xlink:href="Renderer_8h.html" target="_top" xlink:title=" ">
<polygon fill="white" stroke="#666666" points="647.25,-188 518,-188 518,-168 647.25,-168 647.25,-188"/>
<text xml:space="preserve" text-anchor="middle" x="582.62" y="-174.5" font-family="Helvetica,sans-Serif" font-size="10.00">LGE/rendering/Renderer.h</text>
</a>
</g>
</g>
<!-- Node1&#45;&gt;Node14 -->
<g id="edge17_Node000001_Node000014" class="edge">
<title>Node1&#45;&gt;Node14</title>
<g id="a_edge17_Node000001_Node000014"><a xlink:title=" ">
<path fill="none" stroke="#63b8ff" d="M854.8,-224.5C799.69,-215.29 711.46,-200.54 650.46,-190.34"/>
<polygon fill="#63b8ff" stroke="#63b8ff" points="651.34,-186.94 640.9,-188.74 650.18,-193.84 651.34,-186.94"/>
</a>
</g>
</g>
<!-- Node15 -->
<g id="Node000015" class="node">
<title>Node15</title>
<g id="a_Node000015"><a xlink:href="Texture_8h.html" target="_top" xlink:title=" ">
<polygon fill="white" stroke="#666666" points="966.5,-188 844.75,-188 844.75,-168 966.5,-168 966.5,-188"/>
<text xml:space="preserve" text-anchor="middle" x="905.62" y="-174.5" font-family="Helvetica,sans-Serif" font-size="10.00">LGE/rendering/Texture.h</text>
</a>
</g>
</g>
<!-- Node1&#45;&gt;Node15 -->
<g id="edge20_Node000001_Node000015" class="edge">
<title>Node1&#45;&gt;Node15</title>
<g id="a_edge20_Node000001_Node000015"><a xlink:title=" ">
<path fill="none" stroke="#63b8ff" d="M905.62,-223.59C905.62,-217.01 905.62,-207.96 905.62,-199.73"/>
<polygon fill="#63b8ff" stroke="#63b8ff" points="909.13,-199.81 905.63,-189.81 902.13,-199.81 909.13,-199.81"/>
</a>
</g>
</g>
<!-- Node16 -->
<g id="Node000016" class="node">
<title>Node16</title>
<g id="a_Node000016"><a xlink:href="Shader_8h.html" target="_top" xlink:title=" ">
<polygon fill="white" stroke="#666666" points="1240.75,-188 1120.5,-188 1120.5,-168 1240.75,-168 1240.75,-188"/>
<text xml:space="preserve" text-anchor="middle" x="1180.62" y="-174.5" font-family="Helvetica,sans-Serif" font-size="10.00">LGE/rendering/Shader.h</text>
</a>
</g>
</g>
<!-- Node1&#45;&gt;Node16 -->
<g id="edge23_Node000001_Node000016" class="edge">
<title>Node1&#45;&gt;Node16</title>
<g id="a_edge23_Node000001_Node000016"><a xlink:title=" ">
<path fill="none" stroke="#63b8ff" d="M953.84,-223.53C1000.53,-214.36 1071.41,-200.45 1121.48,-190.61"/>
<polygon fill="#63b8ff" stroke="#63b8ff" points="1121.84,-194.11 1130.98,-188.75 1120.49,-187.24 1121.84,-194.11"/>
</a>
</g>
</g>
<!-- Node18 -->
<g id="Node000018" class="node">
<title>Node18</title>
<g id="a_Node000018"><a xlink:href="VertexArray_8h.html" target="_top" xlink:title=" ">
<polygon fill="white" stroke="#666666" points="973.5,-132 833.75,-132 833.75,-112 973.5,-112 973.5,-132"/>
<text xml:space="preserve" text-anchor="middle" x="903.62" y="-118.5" font-family="Helvetica,sans-Serif" font-size="10.00">LGE/rendering/VertexArray.h</text>
</a>
</g>
</g>
<!-- Node1&#45;&gt;Node18 -->
<g id="edge27_Node000001_Node000018" class="edge">
<title>Node1&#45;&gt;Node18</title>
<g id="a_edge27_Node000001_Node000018"><a xlink:title=" ">
<path fill="none" stroke="#63b8ff" d="M879.4,-223.66C863.65,-216.52 844.9,-204.99 835.62,-188 824.29,-167.24 847.54,-149.17 869.88,-137.38"/>
<polygon fill="#63b8ff" stroke="#63b8ff" points="871.16,-140.65 878.59,-133.09 868.07,-134.37 871.16,-140.65"/>
</a>
</g>
</g>
<!-- Node19 -->
<g id="Node000019" class="node">
<title>Node19</title>
<g id="a_Node000019"><a xlink:href="VertexBuffer_8h.html" target="_top" xlink:title=" ">
<polygon fill="white" stroke="#666666" points="1440,-132 1297.25,-132 1297.25,-112 1440,-112 1440,-132"/>
<text xml:space="preserve" text-anchor="middle" x="1368.62" y="-118.5" font-family="Helvetica,sans-Serif" font-size="10.00">LGE/rendering/VertexBuffer.h</text>
</a>
</g>
</g>
<!-- Node1&#45;&gt;Node19 -->
<g id="edge29_Node000001_Node000019" class="edge">
<title>Node1&#45;&gt;Node19</title>
<g id="a_edge29_Node000001_Node000019"><a xlink:title=" ">
<path fill="none" stroke="#63b8ff" d="M956.48,-231.1C1067.11,-226.5 1322.1,-213.27 1351.62,-188 1364.24,-177.21 1368.08,-158.33 1369.01,-143.69"/>
<polygon fill="#63b8ff" stroke="#63b8ff" points="1372.51,-143.8 1369.19,-133.73 1365.51,-143.67 1372.51,-143.8"/>
</a>
</g>
</g>
<!-- Node20 -->
<g id="Node000020" class="node">
<title>Node20</title>
<g id="a_Node000020"><a xlink:href="FileSystem_8h.html" target="_top" xlink:title=" ">
<polygon fill="white" stroke="#666666" points="1102.62,-188 984.62,-188 984.62,-168 1102.62,-168 1102.62,-188"/>
<text xml:space="preserve" text-anchor="middle" x="1043.62" y="-174.5" font-family="Helvetica,sans-Serif" font-size="10.00">LGE/core/FileSystem.h</text>
</a>
</g>
</g>
<!-- Node1&#45;&gt;Node20 -->
<g id="edge31_Node000001_Node000020" class="edge">
<title>Node1&#45;&gt;Node20</title>
<g id="a_edge31_Node000001_Node000020"><a xlink:title=" ">
<path fill="none" stroke="#63b8ff" d="M929.66,-223.59C951.59,-215.01 984.25,-202.23 1009,-192.55"/>
<polygon fill="#63b8ff" stroke="#63b8ff" points="1009.95,-195.93 1017.99,-189.03 1007.4,-189.42 1009.95,-195.93"/>
</a>
</g>
</g>
<!-- Node21 -->
<g id="Node000021" class="node">
<title>Node21</title>
<g id="a_Node000021"><a xlink:href="Log_8h.html" target="_top" xlink:title=" ">
<polygon fill="white" stroke="#666666" points="1342.75,-188 1258.5,-188 1258.5,-168 1342.75,-168 1342.75,-188"/>
<text xml:space="preserve" text-anchor="middle" x="1300.62" y="-174.5" font-family="Helvetica,sans-Serif" font-size="10.00">LGE/core/Log.h</text>
</a>
</g>
</g>
<!-- Node1&#45;&gt;Node21 -->
<g id="edge33_Node000001_Node000021" class="edge">
<title>Node1&#45;&gt;Node21</title>
<g id="a_edge33_Node000001_Node000021"><a xlink:title=" ">
<path fill="none" stroke="#63b8ff" d="M956.43,-227.07C1021.41,-219.33 1137.69,-204.95 1246.85,-188.37"/>
<polygon fill="#63b8ff" stroke="#63b8ff" points="1247.22,-191.86 1256.58,-186.88 1246.16,-184.94 1247.22,-191.86"/>
</a>
</g>
</g>
<!-- Node23 -->
<g id="Node000023" class="node">
<title>Node23</title>
<g id="a_Node000023"><a xlink:href="Input_8h.html" target="_top" xlink:title=" ">
<polygon fill="white" stroke="#666666" points="1526.75,-188 1436.5,-188 1436.5,-168 1526.75,-168 1526.75,-188"/>
<text xml:space="preserve" text-anchor="middle" x="1481.62" y="-174.5" font-family="Helvetica,sans-Serif" font-size="10.00">LGE/core/Input.h</text>
</a>
</g>
</g>
<!-- Node1&#45;&gt;Node23 -->
<g id="edge36_Node000001_Node000023" class="edge">
<title>Node1&#45;&gt;Node23</title>
<g id="a_edge36_Node000001_Node000023"><a xlink:title=" ">
<path fill="none" stroke="#63b8ff" d="M956.37,-229.67C1049.13,-223.35 1252.21,-208.39 1422.62,-188 1423.45,-187.9 1424.29,-187.8 1425.13,-187.69"/>
<polygon fill="#63b8ff" stroke="#63b8ff" points="1425.29,-191.2 1434.75,-186.42 1424.37,-184.26 1425.29,-191.2"/>
</a>
</g>
</g>
<!-- Node25 -->
<g id="Node000025" class="node">
<title>Node25</title>
<g id="a_Node000025"><a xlink:href="GameObject_8h.html" target="_top" xlink:title=" ">
<polygon fill="white" stroke="#666666" points="461.25,-188 338,-188 338,-168 461.25,-168 461.25,-188"/>
<text xml:space="preserve" text-anchor="middle" x="399.62" y="-174.5" font-family="Helvetica,sans-Serif" font-size="10.00">LGE/core/GameObject.h</text>
</a>
</g>
</g>
<!-- Node1&#45;&gt;Node25 -->
<g id="edge38_Node000001_Node000025" class="edge">
<title>Node1&#45;&gt;Node25</title>
<g id="a_edge38_Node000001_Node000025"><a xlink:title=" ">
<path fill="none" stroke="#63b8ff" d="M854.96,-227.92C774.53,-219.81 612.7,-203.29 475.62,-188 474.61,-187.89 473.6,-187.77 472.57,-187.66"/>
<polygon fill="#63b8ff" stroke="#63b8ff" points="473.25,-184.21 462.92,-186.56 472.46,-191.17 473.25,-184.21"/>
</a>
</g>
</g>
<!-- Node26 -->
<g id="Node000026" class="node">
<title>Node26</title>
<g id="a_Node000026"><a xlink:href="UI_8h.html" target="_top" xlink:title=" ">
<polygon fill="white" stroke="#666666" points="1525.5,-132 1457.75,-132 1457.75,-112 1525.5,-112 1525.5,-132"/>
<text xml:space="preserve" text-anchor="middle" x="1491.62" y="-118.5" font-family="Helvetica,sans-Serif" font-size="10.00">LGE/ui/UI.h</text>
</a>
</g>
</g>
<!-- Node1&#45;&gt;Node26 -->
<g id="edge45_Node000001_Node000026" class="edge">
<title>Node1&#45;&gt;Node26</title>
<g id="a_edge45_Node000001_Node000026"><a xlink:title=" ">
<path fill="none" stroke="#63b8ff" d="M956.27,-230.66C1060.38,-225.42 1295.05,-211.38 1371.62,-188 1408.14,-176.85 1446.24,-153.98 1469.45,-138.56"/>
<polygon fill="#63b8ff" stroke="#63b8ff" points="1471.16,-141.63 1477.48,-133.12 1467.23,-135.84 1471.16,-141.63"/>
</a>
</g>
</g>
<!-- Node27 -->
<g id="Node000027" class="node">
<title>Node27</title>
<g id="a_Node000027"><a xlink:title=" ">
<polygon fill="#e0e0e0" stroke="#999999" points="1592.38,-188 1544.88,-188 1544.88,-168 1592.38,-168 1592.38,-188"/>
<text xml:space="preserve" text-anchor="middle" x="1568.62" y="-174.5" font-family="Helvetica,sans-Serif" font-size="10.00">imgui.h</text>
</a>
</g>
</g>
<!-- Node1&#45;&gt;Node27 -->
<g id="edge49_Node000001_Node000027" class="edge">
<title>Node1&#45;&gt;Node27</title>
<g id="a_edge49_Node000001_Node000027"><a xlink:title=" ">
<path fill="none" stroke="#63b8ff" d="M956.25,-232.72C1061.96,-231.41 1313.86,-224.57 1533.5,-188.01"/>
<polygon fill="#63b8ff" stroke="#63b8ff" points="1533.83,-191.51 1543.1,-186.39 1532.66,-184.6 1533.83,-191.51"/>
</a>
</g>
</g>
<!-- Node28 -->
<g id="Node000028" class="node">
<title>Node28</title>
<g id="a_Node000028"><a xlink:title=" ">
<polygon fill="#e0e0e0" stroke="#999999" points="1679.25,-188 1610,-188 1610,-168 1679.25,-168 1679.25,-188"/>
<text xml:space="preserve" text-anchor="middle" x="1644.62" y="-174.5" font-family="Helvetica,sans-Serif" font-size="10.00">ImGuizmo.h</text>
</a>
</g>
</g>
<!-- Node1&#45;&gt;Node28 -->
<g id="edge50_Node000001_Node000028" class="edge">
<title>Node1&#45;&gt;Node28</title>
<g id="a_edge50_Node000001_Node000028"><a xlink:title=" ">
<path fill="none" stroke="#63b8ff" d="M956.09,-232.19C1069.37,-229.83 1352.62,-221.01 1598.65,-188.22"/>
<polygon fill="#63b8ff" stroke="#63b8ff" points="1599.02,-191.7 1608.46,-186.9 1598.09,-184.77 1599.02,-191.7"/>
</a>
</g>
</g>
<!-- Node29 -->
<g id="Node000029" class="node">
<title>Node29</title>
<g id="a_Node000029"><a xlink:title=" ">
<polygon fill="#e0e0e0" stroke="#999999" points="1755.62,-188 1697.62,-188 1697.62,-168 1755.62,-168 1755.62,-188"/>
<text xml:space="preserve" text-anchor="middle" x="1726.62" y="-174.5" font-family="Helvetica,sans-Serif" font-size="10.00">functional</text>
</a>
</g>
</g>
<!-- Node1&#45;&gt;Node29 -->
<g id="edge51_Node000001_Node000029" class="edge">
<title>Node1&#45;&gt;Node29</title>
<g id="a_edge51_Node000001_Node000029"><a xlink:title=" ">
<path fill="none" stroke="#63b8ff" d="M956.32,-233.15C1079.74,-232.86 1405.7,-228.16 1686.05,-188.11"/>
<polygon fill="#63b8ff" stroke="#63b8ff" points="1686.37,-191.6 1695.77,-186.71 1685.37,-184.68 1686.37,-191.6"/>
</a>
</g>
</g>
<!-- Node30 -->
<g id="Node000030" class="node">
<title>Node30</title>
<g id="a_Node000030"><a xlink:title=" ">
<polygon fill="#e0e0e0" stroke="#999999" points="1829.5,-188 1773.75,-188 1773.75,-168 1829.5,-168 1829.5,-188"/>
<text xml:space="preserve" text-anchor="middle" x="1801.62" y="-174.5" font-family="Helvetica,sans-Serif" font-size="10.00">algorithm</text>
</a>
</g>
</g>
<!-- Node1&#45;&gt;Node30 -->
<g id="edge53_Node000001_Node000030" class="edge">
<title>Node1&#45;&gt;Node30</title>
<g id="a_edge53_Node000001_Node000030"><a xlink:title=" ">
<path fill="none" stroke="#63b8ff" d="M956.3,-233.62C1087.94,-234.55 1451.58,-232.64 1762.42,-188.03"/>
<polygon fill="#63b8ff" stroke="#63b8ff" points="1762.56,-191.55 1771.95,-186.64 1761.55,-184.62 1762.56,-191.55"/>
</a>
</g>
</g>
<!-- Node4 -->
<g id="Node000004" class="node">
<title>Node4</title>
<g id="a_Node000004"><a xlink:href="Framebuffer_8h.html" target="_top" xlink:title=" ">
<polygon fill="white" stroke="#666666" points="777.25,-132 636,-132 636,-112 777.25,-112 777.25,-132"/>
<text xml:space="preserve" text-anchor="middle" x="706.62" y="-118.5" font-family="Helvetica,sans-Serif" font-size="10.00">LGE/rendering/Framebuffer.h</text>
</a>
</g>
</g>
<!-- Node3&#45;&gt;Node4 -->
<g id="edge3_Node000003_Node000004" class="edge">
<title>Node3&#45;&gt;Node4</title>
<g id="a_edge3_Node000003_Node000004"><a xlink:title=" ">
<path fill="none" stroke="#63b8ff" d="M723.14,-167.59C720.62,-160.78 717.11,-151.32 713.98,-142.86"/>
<polygon fill="#63b8ff" stroke="#63b8ff" points="717.35,-141.88 710.59,-133.72 710.79,-144.31 717.35,-141.88"/>
</a>
</g>
</g>
<!-- Node5 -->
<g id="Node000005" class="node">
<title>Node5</title>
<g id="a_Node000005"><a xlink:title=" ">
<polygon fill="#e0e0e0" stroke="#999999" points="877.25,-76 832,-76 832,-56 877.25,-56 877.25,-76"/>
<text xml:space="preserve" text-anchor="middle" x="854.62" y="-62.5" font-family="Helvetica,sans-Serif" font-size="10.00">cstdint</text>
</a>
</g>
</g>
<!-- Node3&#45;&gt;Node5 -->
<g id="edge7_Node000003_Node000005" class="edge">
<title>Node3&#45;&gt;Node5</title>
<g id="a_edge7_Node000003_Node000005"><a xlink:title=" ">
<path fill="none" stroke="#63b8ff" d="M739.85,-167.78C752.24,-158.97 771.13,-145.13 786.62,-132 804.81,-116.58 824.38,-97.6 837.83,-84.15"/>
<polygon fill="#63b8ff" stroke="#63b8ff" points="840.09,-86.83 844.64,-77.27 835.12,-81.91 840.09,-86.83"/>
</a>
</g>
</g>
<!-- Node3&#45;&gt;Node6 -->
<g id="edge5_Node000003_Node000006" class="edge">
<title>Node3&#45;&gt;Node6</title>
<g id="a_edge5_Node000003_Node000006"><a xlink:title=" ">
<path fill="none" stroke="#63b8ff" d="M704.6,-167.55C684.21,-158.7 653.15,-144.93 626.62,-132 609.47,-123.64 606.77,-117.93 588.62,-112 507.1,-85.37 408.1,-74.44 345.71,-69.99"/>
<polygon fill="#63b8ff" stroke="#63b8ff" points="346.22,-66.52 336.01,-69.34 345.75,-73.5 346.22,-66.52"/>
</a>
</g>
</g>
<!-- Node8 -->
<g id="Node000008" class="node">
<title>Node8</title>
<g id="a_Node000008"><a xlink:title=" ">
<polygon fill="#e0e0e0" stroke="#999999" points="579.25,-132 528,-132 528,-112 579.25,-112 579.25,-132"/>
<text xml:space="preserve" text-anchor="middle" x="553.62" y="-118.5" font-family="Helvetica,sans-Serif" font-size="10.00">memory</text>
</a>
</g>
</g>
<!-- Node3&#45;&gt;Node8 -->
<g id="edge8_Node000003_Node000008" class="edge">
<title>Node3&#45;&gt;Node8</title>
<g id="a_edge8_Node000003_Node000008"><a xlink:title=" ">
<path fill="none" stroke="#63b8ff" d="M696.49,-167.59C667.09,-158.42 622.3,-144.44 590.72,-134.58"/>
<polygon fill="#63b8ff" stroke="#63b8ff" points="591.77,-131.24 581.19,-131.6 589.69,-137.92 591.77,-131.24"/>
</a>
</g>
</g>
<!-- Node9 -->
<g id="Node000009" class="node">
<title>Node9</title>
<g id="a_Node000009"><a xlink:title=" ">
<polygon fill="#e0e0e0" stroke="#999999" points="1069.62,-132 1029.62,-132 1029.62,-112 1069.62,-112 1069.62,-132"/>
<text xml:space="preserve" text-anchor="middle" x="1049.62" y="-118.5" font-family="Helvetica,sans-Serif" font-size="10.00">string</text>
</a>
</g>
</g>
<!-- Node3&#45;&gt;Node9 -->
<g id="edge9_Node000003_Node000009" class="edge">
<title>Node3&#45;&gt;Node9</title>
<g id="a_edge9_Node000003_Node000009"><a xlink:title=" ">
<path fill="none" stroke="#63b8ff" d="M783.26,-167.53C851.38,-156.14 963.36,-137.42 1017.85,-128.31"/>
<polygon fill="#63b8ff" stroke="#63b8ff" points="1018.41,-131.77 1027.69,-126.67 1017.25,-124.86 1018.41,-131.77"/>
</a>
</g>
</g>
<!-- Node3&#45;&gt;Node10 -->
<g id="edge10_Node000003_Node000010" class="edge">
<title>Node3&#45;&gt;Node10</title>
<g id="a_edge10_Node000003_Node000010"><a xlink:title=" ">
<path fill="none" stroke="#63b8ff" d="M678.06,-167.53C621.87,-156.58 530.88,-138.84 482.44,-129.4"/>
<polygon fill="#63b8ff" stroke="#63b8ff" points="483.33,-126.01 472.85,-127.53 482,-132.88 483.33,-126.01"/>
</a>
</g>
</g>
<!-- Node4&#45;&gt;Node5 -->
<g id="edge4_Node000004_Node000005" class="edge">
<title>Node4&#45;&gt;Node5</title>
<g id="a_edge4_Node000004_Node000005"><a xlink:title=" ">
<path fill="none" stroke="#63b8ff" d="M732.4,-111.59C757.01,-102.62 794.21,-89.04 821.1,-79.23"/>
<polygon fill="#63b8ff" stroke="#63b8ff" points="821.95,-82.65 830.15,-75.93 819.56,-76.07 821.95,-82.65"/>
</a>
</g>
</g>
<!-- Node6&#45;&gt;Node7 -->
<g id="edge6_Node000006_Node000007" class="edge">
<title>Node6&#45;&gt;Node7</title>
<g id="a_edge6_Node000006_Node000007"><a xlink:title=" ">
<path fill="none" stroke="#63b8ff" d="M267.9,-55.59C253.4,-47.44 232.15,-35.48 215.3,-26"/>
<polygon fill="#63b8ff" stroke="#63b8ff" points="217.23,-23.07 206.8,-21.22 213.8,-29.17 217.23,-23.07"/>
</a>
</g>
</g>
<!-- Node11&#45;&gt;Node5 -->
<g id="edge16_Node000011_Node000005" class="edge">
<title>Node11&#45;&gt;Node5</title>
<g id="a_edge16_Node000011_Node000005"><a xlink:title=" ">
<path fill="none" stroke="#63b8ff" d="M273.94,-167.57C300.13,-152.93 353.57,-125.07 402.62,-112 554.53,-71.54 743.92,-66.8 820.32,-66.69"/>
<polygon fill="#63b8ff" stroke="#63b8ff" points="820.07,-70.19 830.07,-66.71 820.08,-63.19 820.07,-70.19"/>
</a>
</g>
</g>
<!-- Node11&#45;&gt;Node6 -->
<g id="edge15_Node000011_Node000006" class="edge">
<title>Node11&#45;&gt;Node6</title>
<g id="a_edge15_Node000011_Node000006"><a xlink:title=" ">
<path fill="none" stroke="#63b8ff" d="M259.93,-167.62C264.27,-149.92 273.77,-111.24 279.64,-87.32"/>
<polygon fill="#63b8ff" stroke="#63b8ff" points="282.98,-88.37 281.97,-77.82 276.19,-86.7 282.98,-88.37"/>
</a>
</g>
</g>
<!-- Node11&#45;&gt;Node12 -->
<g id="edge12_Node000011_Node000012" class="edge">
<title>Node11&#45;&gt;Node12</title>
<g id="a_edge12_Node000011_Node000012"><a xlink:title=" ">
<path fill="none" stroke="#63b8ff" d="M248.92,-167.59C242.03,-160.16 232.23,-149.58 223.91,-140.58"/>
<polygon fill="#63b8ff" stroke="#63b8ff" points="226.63,-138.37 217.26,-133.41 221.49,-143.12 226.63,-138.37"/>
</a>
</g>
</g>
<!-- Node12&#45;&gt;Node6 -->
<g id="edge13_Node000012_Node000006" class="edge">
<title>Node12&#45;&gt;Node6</title>
<g id="a_edge13_Node000012_Node000006"><a xlink:title=" ">
<path fill="none" stroke="#63b8ff" d="M221.04,-111.59C232.23,-103.74 248.44,-92.38 261.68,-83.09"/>
<polygon fill="#63b8ff" stroke="#63b8ff" points="263.69,-85.96 269.87,-77.35 259.67,-80.22 263.69,-85.96"/>
</a>
</g>
</g>
<!-- Node13 -->
<g id="Node000013" class="node">
<title>Node13</title>
<g id="a_Node000013"><a xlink:title=" ">
<polygon fill="#e0e0e0" stroke="#999999" points="216.5,-76 178.75,-76 178.75,-56 216.5,-56 216.5,-76"/>
<text xml:space="preserve" text-anchor="middle" x="197.62" y="-62.5" font-family="Helvetica,sans-Serif" font-size="10.00">array</text>
</a>
</g>
</g>
<!-- Node12&#45;&gt;Node13 -->
<g id="edge14_Node000012_Node000013" class="edge">
<title>Node12&#45;&gt;Node13</title>
<g id="a_edge14_Node000012_Node000013"><a xlink:title=" ">
<path fill="none" stroke="#63b8ff" d="M205.88,-111.59C204.65,-104.93 202.95,-95.75 201.41,-87.44"/>
<polygon fill="#63b8ff" stroke="#63b8ff" points="204.88,-86.98 199.62,-77.79 198,-88.26 204.88,-86.98"/>
</a>
</g>
</g>
<!-- Node14&#45;&gt;Node5 -->
<g id="edge19_Node000014_Node000005" class="edge">
<title>Node14&#45;&gt;Node5</title>
<g id="a_edge19_Node000014_Node000005"><a xlink:title=" ">
<path fill="none" stroke="#63b8ff" d="M561.55,-167.65C536.57,-155.31 500.48,-132.74 518.62,-112 557.62,-67.43 742.93,-65.13 820.43,-66.18"/>
<polygon fill="#63b8ff" stroke="#63b8ff" points="820.33,-69.68 830.39,-66.34 820.45,-62.68 820.33,-69.68"/>
</a>
</g>
</g>
<!-- Node14&#45;&gt;Node8 -->
<g id="edge18_Node000014_Node000008" class="edge">
<title>Node14&#45;&gt;Node8</title>
<g id="a_edge18_Node000014_Node000008"><a xlink:title=" ">
<path fill="none" stroke="#63b8ff" d="M577.57,-167.59C573.83,-160.63 568.6,-150.89 563.98,-142.29"/>
<polygon fill="#63b8ff" stroke="#63b8ff" points="567.15,-140.79 559.33,-133.63 560.98,-144.1 567.15,-140.79"/>
</a>
</g>
</g>
<!-- Node15&#45;&gt;Node5 -->
<g id="edge21_Node000015_Node000005" class="edge">
<title>Node15&#45;&gt;Node5</title>
<g id="a_edge21_Node000015_Node000005"><a xlink:title=" ">
<path fill="none" stroke="#63b8ff" d="M933.2,-167.54C961.6,-156.24 999.51,-135.84 982.62,-112 961.53,-82.22 919.08,-72 888.86,-68.58"/>
<polygon fill="#63b8ff" stroke="#63b8ff" points="889.33,-65.11 879.05,-67.68 888.69,-72.08 889.33,-65.11"/>
</a>
</g>
</g>
<!-- Node15&#45;&gt;Node9 -->
<g id="edge22_Node000015_Node000009" class="edge">
<title>Node15&#45;&gt;Node9</title>
<g id="a_edge22_Node000015_Node000009"><a xlink:title=" ">
<path fill="none" stroke="#63b8ff" d="M930.71,-167.59C955.24,-158.39 992.66,-144.36 1018.95,-134.5"/>
<polygon fill="#63b8ff" stroke="#63b8ff" points="1019.92,-137.88 1028.05,-131.09 1017.46,-131.32 1019.92,-137.88"/>
</a>
</g>
</g>
<!-- Node16&#45;&gt;Node5 -->
<g id="edge26_Node000016_Node000005" class="edge">
<title>Node16&#45;&gt;Node5</title>
<g id="a_edge26_Node000016_Node000005"><a xlink:title=" ">
<path fill="none" stroke="#63b8ff" d="M1167.47,-167.75C1144.35,-151.65 1097.13,-119.45 1078.62,-112 1014.59,-86.21 934.09,-74.69 889.11,-69.95"/>
<polygon fill="#63b8ff" stroke="#63b8ff" points="889.48,-66.47 879.18,-68.97 888.78,-73.44 889.48,-66.47"/>
</a>
</g>
</g>
<!-- Node16&#45;&gt;Node9 -->
<g id="edge24_Node000016_Node000009" class="edge">
<title>Node16&#45;&gt;Node9</title>
<g id="a_edge24_Node000016_Node000009"><a xlink:title=" ">
<path fill="none" stroke="#63b8ff" d="M1157.81,-167.59C1136.42,-158.78 1104.27,-145.53 1080.58,-135.76"/>
<polygon fill="#63b8ff" stroke="#63b8ff" points="1082.01,-132.56 1071.43,-131.99 1079.34,-139.04 1082.01,-132.56"/>
</a>
</g>
</g>
<!-- Node17 -->
<g id="Node000017" class="node">
<title>Node17</title>
<g id="a_Node000017"><a xlink:title=" ">
<polygon fill="#e0e0e0" stroke="#999999" points="1208,-132 1125.25,-132 1125.25,-112 1208,-112 1208,-132"/>
<text xml:space="preserve" text-anchor="middle" x="1166.62" y="-118.5" font-family="Helvetica,sans-Serif" font-size="10.00">unordered_map</text>
</a>
</g>
</g>
<!-- Node16&#45;&gt;Node17 -->
<g id="edge25_Node000016_Node000017" class="edge">
<title>Node16&#45;&gt;Node17</title>
<g id="a_edge25_Node000016_Node000017"><a xlink:title=" ">
<path fill="none" stroke="#63b8ff" d="M1178.19,-167.59C1176.46,-160.93 1174.08,-151.75 1171.92,-143.44"/>
<polygon fill="#63b8ff" stroke="#63b8ff" points="1175.31,-142.56 1169.42,-133.76 1168.54,-144.32 1175.31,-142.56"/>
</a>
</g>
</g>
<!-- Node18&#45;&gt;Node5 -->
<g id="edge28_Node000018_Node000005" class="edge">
<title>Node18&#45;&gt;Node5</title>
<g id="a_edge28_Node000018_Node000005"><a xlink:title=" ">
<path fill="none" stroke="#63b8ff" d="M895.09,-111.59C888.34,-104.16 878.74,-93.58 870.58,-84.58"/>
<polygon fill="#63b8ff" stroke="#63b8ff" points="873.39,-82.47 864.08,-77.42 868.21,-87.18 873.39,-82.47"/>
</a>
</g>
</g>
<!-- Node19&#45;&gt;Node5 -->
<g id="edge30_Node000019_Node000005" class="edge">
<title>Node19&#45;&gt;Node5</title>
<g id="a_edge30_Node000019_Node000005"><a xlink:title=" ">
<path fill="none" stroke="#63b8ff" d="M1297.1,-112.92C1294.24,-112.61 1291.4,-112.3 1288.62,-112 1139.88,-95.92 962.32,-77.87 888.95,-70.46"/>
<polygon fill="#63b8ff" stroke="#63b8ff" points="889.49,-66.99 879.19,-69.47 888.79,-73.96 889.49,-66.99"/>
</a>
</g>
</g>
<!-- Node20&#45;&gt;Node9 -->
<g id="edge32_Node000020_Node000009" class="edge">
<title>Node20&#45;&gt;Node9</title>
<g id="a_edge32_Node000020_Node000009"><a xlink:title=" ">
<path fill="none" stroke="#63b8ff" d="M1044.67,-167.59C1045.4,-161.01 1046.41,-151.96 1047.32,-143.73"/>
<polygon fill="#63b8ff" stroke="#63b8ff" points="1050.8,-144.13 1048.42,-133.8 1043.84,-143.35 1050.8,-144.13"/>
</a>
</g>
</g>
<!-- Node21&#45;&gt;Node9 -->
<g id="edge35_Node000021_Node000009" class="edge">
<title>Node21&#45;&gt;Node9</title>
<g id="a_edge35_Node000021_Node000009"><a xlink:title=" ">
<path fill="none" stroke="#63b8ff" d="M1258.05,-167.84C1207.84,-157.04 1125.6,-139.35 1080.91,-129.73"/>
<polygon fill="#63b8ff" stroke="#63b8ff" points="1081.87,-126.36 1071.36,-127.68 1080.4,-133.2 1081.87,-126.36"/>
</a>
</g>
</g>
<!-- Node22 -->
<g id="Node000022" class="node">
<title>Node22</title>
<g id="a_Node000022"><a xlink:title=" ">
<polygon fill="#e0e0e0" stroke="#999999" points="1279.38,-132 1225.88,-132 1225.88,-112 1279.38,-112 1279.38,-132"/>
<text xml:space="preserve" text-anchor="middle" x="1252.62" y="-118.5" font-family="Helvetica,sans-Serif" font-size="10.00">iostream</text>
</a>
</g>
</g>
<!-- Node21&#45;&gt;Node22 -->
<g id="edge34_Node000021_Node000022" class="edge">
<title>Node21&#45;&gt;Node22</title>
<g id="a_edge34_Node000021_Node000022"><a xlink:title=" ">
<path fill="none" stroke="#63b8ff" d="M1292.26,-167.59C1285.73,-160.24 1276.44,-149.8 1268.51,-140.87"/>
<polygon fill="#63b8ff" stroke="#63b8ff" points="1271.16,-138.58 1261.9,-133.43 1265.92,-143.23 1271.16,-138.58"/>
</a>
</g>
</g>
<!-- Node24 -->
<g id="Node000024" class="node">
<title>Node24</title>
<g id="a_Node000024"><a xlink:title=" ">
<polygon fill="#e0e0e0" stroke="#999999" points="1622.12,-132 1543.12,-132 1543.12,-112 1622.12,-112 1622.12,-132"/>
<text xml:space="preserve" text-anchor="middle" x="1582.62" y="-118.5" font-family="Helvetica,sans-Serif" font-size="10.00">GLFW/glfw3.h</text>
</a>
</g>
</g>
<!-- Node23&#45;&gt;Node24 -->
<g id="edge37_Node000023_Node000024" class="edge">
<title>Node23&#45;&gt;Node24</title>
<g id="a_edge37_Node000023_Node000024"><a xlink:title=" ">
<path fill="none" stroke="#63b8ff" d="M1499.22,-167.59C1514.55,-159.4 1537.04,-147.37 1554.81,-137.87"/>
<polygon fill="#63b8ff" stroke="#63b8ff" points="1556.39,-140.99 1563.56,-133.19 1553.09,-134.82 1556.39,-140.99"/>
</a>
</g>
</g>
<!-- Node25&#45;&gt;Node5 -->
<g id="edge42_Node000025_Node000005" class="edge">
<title>Node25&#45;&gt;Node5</title>
<g id="a_edge42_Node000025_Node000005"><a xlink:title=" ">
<path fill="none" stroke="#63b8ff" d="M399.5,-167.74C399.85,-153.34 402.84,-125.79 419.62,-112 450.39,-86.73 722.83,-72.66 820.21,-68.4"/>
<polygon fill="#63b8ff" stroke="#63b8ff" points="820.36,-71.9 830.2,-67.97 820.06,-64.9 820.36,-71.9"/>
</a>
</g>
</g>
<!-- Node25&#45;&gt;Node6 -->
<g id="edge39_Node000025_Node000006" class="edge">
<title>Node25&#45;&gt;Node6</title>
<g id="a_edge39_Node000025_Node000006"><a xlink:title=" ">
<path fill="none" stroke="#63b8ff" d="M389.82,-167.62C370.47,-149.11 327.12,-107.65 302.53,-84.13"/>
<polygon fill="#63b8ff" stroke="#63b8ff" points="305.14,-81.78 295.5,-77.4 300.31,-86.84 305.14,-81.78"/>
</a>
</g>
</g>
<!-- Node25&#45;&gt;Node8 -->
<g id="edge44_Node000025_Node000008" class="edge">
<title>Node25&#45;&gt;Node8</title>
<g id="a_edge44_Node000025_Node000008"><a xlink:title=" ">
<path fill="none" stroke="#63b8ff" d="M426.45,-167.59C451.56,-158.79 489.27,-145.57 517.11,-135.8"/>
<polygon fill="#63b8ff" stroke="#63b8ff" points="517.91,-139.23 526.19,-132.62 515.6,-132.63 517.91,-139.23"/>
</a>
</g>
</g>
<!-- Node25&#45;&gt;Node9 -->
<g id="edge41_Node000025_Node000009" class="edge">
<title>Node25&#45;&gt;Node9</title>
<g id="a_edge41_Node000025_Node000009"><a xlink:title=" ">
<path fill="none" stroke="#63b8ff" d="M461.59,-171.81C476.95,-170.55 493.39,-169.21 508.62,-168 719.24,-151.31 772.51,-154.07 982.62,-132 994.11,-130.79 1006.67,-129.18 1017.77,-127.66"/>
<polygon fill="#63b8ff" stroke="#63b8ff" points="1018.22,-131.13 1027.64,-126.27 1017.25,-124.2 1018.22,-131.13"/>
</a>
</g>
</g>
<!-- Node25&#45;&gt;Node10 -->
<g id="edge43_Node000025_Node000010" class="edge">
<title>Node25&#45;&gt;Node10</title>
<g id="a_edge43_Node000025_Node000010"><a xlink:title=" ">
<path fill="none" stroke="#63b8ff" d="M408.33,-167.59C415.22,-160.16 425.02,-149.58 433.34,-140.58"/>
<polygon fill="#63b8ff" stroke="#63b8ff" points="435.76,-143.12 439.99,-133.41 430.62,-138.37 435.76,-143.12"/>
</a>
</g>
</g>
<!-- Node25&#45;&gt;Node12 -->
<g id="edge40_Node000025_Node000012" class="edge">
<title>Node25&#45;&gt;Node12</title>
<g id="a_edge40_Node000025_Node000012"><a xlink:title=" ">
<path fill="none" stroke="#63b8ff" d="M366.18,-167.59C334.58,-158.71 286.95,-145.31 252.14,-135.52"/>
<polygon fill="#63b8ff" stroke="#63b8ff" points="253.36,-132.23 242.79,-132.89 251.47,-138.97 253.36,-132.23"/>
</a>
</g>
</g>
<!-- Node26&#45;&gt;Node5 -->
<g id="edge46_Node000026_Node000005" class="edge">
<title>Node26&#45;&gt;Node5</title>
<g id="a_edge46_Node000026_Node000005"><a xlink:title=" ">
<path fill="none" stroke="#63b8ff" d="M1457.43,-113.42C1454.46,-112.89 1451.49,-112.41 1448.62,-112 1237.2,-82 980.41,-71.12 888.97,-68.03"/>
<polygon fill="#63b8ff" stroke="#63b8ff" points="889.3,-64.54 879.19,-67.71 889.07,-71.54 889.3,-64.54"/>
</a>
</g>
</g>
</g>
</svg>
