<?xml version="1.0" encoding="UTF-8" standalone="no"?>
<!DOCTYPE svg PUBLIC "-//W3C//DTD SVG 1.1//EN"
 "http://www.w3.org/Graphics/SVG/1.1/DTD/svg11.dtd">
<!-- Generated by graphviz version 14.0.2 (20251019.1705)
 -->
<!-- Title: Search.h Pages: 1 -->
<svg width="369pt" height="140pt"
 viewBox="0.00 0.00 369.00 140.00" xmlns="http://www.w3.org/2000/svg" xmlns:xlink="http://www.w3.org/1999/xlink">
<g id="graph0" class="graph" transform="scale(1 1) rotate(0) translate(4 136)">
<title>Search.h</title>
<!-- Node1 -->
<g id="Node000001" class="node">
<title>Node1</title>
<g id="a_Node000001"><a xlink:title=" ">
<polygon fill="#999999" stroke="#666666" points="204.12,-132 149.12,-132 149.12,-112 204.12,-112 204.12,-132"/>
<text xml:space="preserve" text-anchor="middle" x="176.62" y="-118.5" font-family="Helvetica,sans-Serif" font-size="10.00">Search.h</text>
</a>
</g>
</g>
<!-- Node2 -->
<g id="Node000002" class="node">
<title>Node2</title>
<g id="a_Node000002"><a xlink:href="ContentBrowser_8cpp.html" target="_top" xlink:title=" ">
<polygon fill="white" stroke="#666666" points="105.25,-20 0,-20 0,0 105.25,0 105.25,-20"/>
<text xml:space="preserve" text-anchor="middle" x="52.62" y="-6.5" font-family="Helvetica,sans-Serif" font-size="10.00">ContentBrowser.cpp</text>
</a>
</g>
</g>
<!-- Node1&#45;&gt;Node2 -->
<g id="edge1_Node000001_Node000002" class="edge">
<title>Node1&#45;&gt;Node2</title>
<g id="a_edge1_Node000001_Node000002"><a xlink:title=" ">
<path fill="none" stroke="#63b8ff" d="M138.24,-113.18C115.9,-106.75 88.84,-95.43 71.62,-76 57.43,-59.99 53.82,-33.89 52.91,-20.14"/>
<polygon fill="#63b8ff" stroke="#63b8ff" points="137.06,-116.49 147.62,-115.65 138.84,-109.72 137.06,-116.49"/>
</a>
</g>
</g>
<!-- Node3 -->
<g id="Node000003" class="node">
<title>Node3</title>
<g id="a_Node000003"><a xlink:href="ContentBrowser_8h.html" target="_top" xlink:title=" ">
<polygon fill="white" stroke="#666666" points="175,-76 80.25,-76 80.25,-56 175,-56 175,-76"/>
<text xml:space="preserve" text-anchor="middle" x="127.62" y="-62.5" font-family="Helvetica,sans-Serif" font-size="10.00">ContentBrowser.h</text>
</a>
</g>
</g>
<!-- Node1&#45;&gt;Node3 -->
<g id="edge2_Node000001_Node000003" class="edge">
<title>Node1&#45;&gt;Node3</title>
<g id="a_edge2_Node000001_Node000003"><a xlink:title=" ">
<path fill="none" stroke="#63b8ff" d="M160.55,-103.29C152.38,-94.28 142.78,-83.7 136.06,-76.3"/>
<polygon fill="#63b8ff" stroke="#63b8ff" points="157.76,-105.42 167.07,-110.47 162.94,-100.72 157.76,-105.42"/>
</a>
</g>
</g>
<!-- Node5 -->
<g id="Node000005" class="node">
<title>Node5</title>
<g id="a_Node000005"><a xlink:href="Search_8cpp.html" target="_top" xlink:title=" ">
<polygon fill="white" stroke="#666666" points="258.38,-76 192.88,-76 192.88,-56 258.38,-56 258.38,-76"/>
<text xml:space="preserve" text-anchor="middle" x="225.62" y="-62.5" font-family="Helvetica,sans-Serif" font-size="10.00">Search.cpp</text>
</a>
</g>
</g>
<!-- Node1&#45;&gt;Node5 -->
<g id="edge5_Node000001_Node000005" class="edge">
<title>Node1&#45;&gt;Node5</title>
<g id="a_edge5_Node000001_Node000005"><a xlink:title=" ">
<path fill="none" stroke="#63b8ff" d="M192.7,-103.29C200.87,-94.28 210.47,-83.7 217.19,-76.3"/>
<polygon fill="#63b8ff" stroke="#63b8ff" points="190.31,-100.72 186.18,-110.47 195.49,-105.42 190.31,-100.72"/>
</a>
</g>
</g>
<!-- Node6 -->
<g id="Node000006" class="node">
<title>Node6</title>
<g id="a_Node000006"><a xlink:href="TestSearch_8cpp.html" target="_top" xlink:title=" ">
<polygon fill="white" stroke="#666666" points="360.75,-76 276.5,-76 276.5,-56 360.75,-56 360.75,-76"/>
<text xml:space="preserve" text-anchor="middle" x="318.62" y="-62.5" font-family="Helvetica,sans-Serif" font-size="10.00">TestSearch.cpp</text>
</a>
</g>
</g>
<!-- Node1&#45;&gt;Node6 -->
<g id="edge6_Node000001_Node000006" class="edge">
<title>Node1&#45;&gt;Node6</title>
<g id="a_edge6_Node000001_Node000006"><a xlink:title=" ">
<path fill="none" stroke="#63b8ff" d="M212.04,-107.53C237.45,-97.87 271.07,-85.08 293.7,-76.48"/>
<polygon fill="#63b8ff" stroke="#63b8ff" points="210.88,-104.23 202.77,-111.06 213.37,-110.77 210.88,-104.23"/>
</a>
</g>
</g>
<!-- Node3&#45;&gt;Node2 -->
<g id="edge3_Node000003_Node000002" class="edge">
<title>Node3&#45;&gt;Node2</title>
<g id="a_edge3_Node000003_Node000002"><a xlink:title=" ">
<path fill="none" stroke="#63b8ff" d="M105.4,-49C92.51,-39.72 76.72,-28.35 65.79,-20.48"/>
<polygon fill="#63b8ff" stroke="#63b8ff" points="103.17,-51.71 113.33,-54.71 107.26,-46.03 103.17,-51.71"/>
</a>
</g>
</g>
<!-- Node4 -->
<g id="Node000004" class="node">
<title>Node4</title>
<g id="a_Node000004"><a xlink:href="main_8cpp.html" target="_top" xlink:title=" ">
<polygon fill="white" stroke="#666666" points="179.5,-20 123.75,-20 123.75,0 179.5,0 179.5,-20"/>
<text xml:space="preserve" text-anchor="middle" x="151.62" y="-6.5" font-family="Helvetica,sans-Serif" font-size="10.00">main.cpp</text>
</a>
</g>
</g>
<!-- Node3&#45;&gt;Node4 -->
<g id="edge4_Node000003_Node000004" class="edge">
<title>Node3&#45;&gt;Node4</title>
<g id="a_edge4_Node000003_Node000004"><a xlink:title=" ">
<path fill="none" stroke="#63b8ff" d="M136.38,-45.29C140.18,-36.75 144.44,-27.16 147.49,-20.3"/>
<polygon fill="#63b8ff" stroke="#63b8ff" points="133.28,-43.65 132.42,-54.21 139.68,-46.49 133.28,-43.65"/>
</a>
</g>
</g>
</g>
</svg>
