<?xml version="1.0" encoding="UTF-8" standalone="no"?>
<!DOCTYPE svg PUBLIC "-//W3C//DTD SVG 1.1//EN"
 "http://www.w3.org/Graphics/SVG/1.1/DTD/svg11.dtd">
<!-- Generated by graphviz version 14.0.2 (20251019.1705)
 -->
<!-- Title: Search.h Pages: 1 -->
<svg width="608pt" height="196pt"
 viewBox="0.00 0.00 608.00 196.00" xmlns="http://www.w3.org/2000/svg" xmlns:xlink="http://www.w3.org/1999/xlink">
<g id="graph0" class="graph" transform="scale(1 1) rotate(0) translate(4 192)">
<title>Search.h</title>
<!-- Node1 -->
<g id="Node000001" class="node">
<title>Node1</title>
<g id="a_Node000001"><a xlink:title=" ">
<polygon fill="#999999" stroke="#666666" points="420,-188 365,-188 365,-168 420,-168 420,-188"/>
<text xml:space="preserve" text-anchor="middle" x="392.5" y="-174.5" font-family="Helvetica,sans-Serif" font-size="10.00">Search.h</text>
</a>
</g>
</g>
<!-- Node2 -->
<g id="Node000002" class="node">
<title>Node2</title>
<g id="a_Node000002"><a xlink:href="AssetRegistry_8h.html" target="_top" xlink:title=" ">
<polygon fill="white" stroke="#666666" points="383.25,-132 263.75,-132 263.75,-112 383.25,-112 383.25,-132"/>
<text xml:space="preserve" text-anchor="middle" x="323.5" y="-118.5" font-family="Helvetica,sans-Serif" font-size="10.00">LGE/fs/AssetRegistry.h</text>
</a>
</g>
</g>
<!-- Node1&#45;&gt;Node2 -->
<g id="edge1_Node000001_Node000002" class="edge">
<title>Node1&#45;&gt;Node2</title>
<g id="a_edge1_Node000001_Node000002"><a xlink:title=" ">
<path fill="none" stroke="#63b8ff" d="M380.48,-167.59C370.49,-159.77 356.04,-148.46 344.19,-139.19"/>
<polygon fill="#63b8ff" stroke="#63b8ff" points="346.61,-136.64 336.57,-133.23 342.29,-142.15 346.61,-136.64"/>
</a>
</g>
</g>
<!-- Node4 -->
<g id="Node000004" class="node">
<title>Node4</title>
<g id="a_Node000004"><a xlink:title=" ">
<polygon fill="#e0e0e0" stroke="#999999" points="193.5,-20 153.5,-20 153.5,0 193.5,0 193.5,-20"/>
<text xml:space="preserve" text-anchor="middle" x="173.5" y="-6.5" font-family="Helvetica,sans-Serif" font-size="10.00">string</text>
</a>
</g>
</g>
<!-- Node1&#45;&gt;Node4 -->
<g id="edge15_Node000001_Node000004" class="edge">
<title>Node1&#45;&gt;Node4</title>
<g id="a_edge15_Node000001_Node000004"><a xlink:title=" ">
<path fill="none" stroke="#63b8ff" d="M364.63,-177.9C301.2,-178.23 146.29,-169.02 78.5,-76 58.37,-48.38 107.52,-28.66 142.37,-18.61"/>
<polygon fill="#63b8ff" stroke="#63b8ff" points="142.9,-22.09 151.62,-16.08 141.06,-15.34 142.9,-22.09"/>
</a>
</g>
</g>
<!-- Node5 -->
<g id="Node000005" class="node">
<title>Node5</title>
<g id="a_Node000005"><a xlink:title=" ">
<polygon fill="#e0e0e0" stroke="#999999" points="356.25,-20 290.75,-20 290.75,0 356.25,0 356.25,-20"/>
<text xml:space="preserve" text-anchor="middle" x="323.5" y="-6.5" font-family="Helvetica,sans-Serif" font-size="10.00">string_view</text>
</a>
</g>
</g>
<!-- Node1&#45;&gt;Node5 -->
<g id="edge16_Node000001_Node000005" class="edge">
<title>Node1&#45;&gt;Node5</title>
<g id="a_edge16_Node000001_Node000005"><a xlink:title=" ">
<path fill="none" stroke="#63b8ff" d="M402.34,-167.53C423.29,-146.22 468.34,-93.4 442.5,-56 425.82,-31.86 394.41,-20.66 368.04,-15.46"/>
<polygon fill="#63b8ff" stroke="#63b8ff" points="368.67,-12.02 358.23,-13.79 367.5,-18.92 368.67,-12.02"/>
</a>
</g>
</g>
<!-- Node6 -->
<g id="Node000006" class="node">
<title>Node6</title>
<g id="a_Node000006"><a xlink:title=" ">
<polygon fill="#e0e0e0" stroke="#999999" points="43,-20 0,-20 0,0 43,0 43,-20"/>
<text xml:space="preserve" text-anchor="middle" x="21.5" y="-6.5" font-family="Helvetica,sans-Serif" font-size="10.00">vector</text>
</a>
</g>
</g>
<!-- Node1&#45;&gt;Node6 -->
<g id="edge17_Node000001_Node000006" class="edge">
<title>Node1&#45;&gt;Node6</title>
<g id="a_edge17_Node000001_Node000006"><a xlink:title=" ">
<path fill="none" stroke="#63b8ff" d="M364.59,-177.46C312.75,-177.26 199.22,-171.85 114.5,-132 80.3,-115.91 72.94,-106.41 50.5,-76 40.4,-62.31 32.77,-44.55 27.88,-31.05"/>
<polygon fill="#63b8ff" stroke="#63b8ff" points="31.32,-30.27 24.79,-21.93 24.69,-32.52 31.32,-30.27"/>
</a>
</g>
</g>
<!-- Node7 -->
<g id="Node000007" class="node">
<title>Node7</title>
<g id="a_Node000007"><a xlink:title=" ">
<polygon fill="#e0e0e0" stroke="#999999" points="600.38,-20 550.62,-20 550.62,0 600.38,0 600.38,-20"/>
<text xml:space="preserve" text-anchor="middle" x="575.5" y="-6.5" font-family="Helvetica,sans-Serif" font-size="10.00">optional</text>
</a>
</g>
</g>
<!-- Node1&#45;&gt;Node7 -->
<g id="edge18_Node000001_Node000007" class="edge">
<title>Node1&#45;&gt;Node7</title>
<g id="a_edge18_Node000001_Node000007"><a xlink:title=" ">
<path fill="none" stroke="#63b8ff" d="M413.19,-167.66C429.89,-159.58 453.47,-146.86 471.5,-132 509.26,-100.88 544.43,-55.09 562.61,-29.69"/>
<polygon fill="#63b8ff" stroke="#63b8ff" points="565.35,-31.88 568.24,-21.69 559.62,-27.85 565.35,-31.88"/>
</a>
</g>
</g>
<!-- Node8 -->
<g id="Node000008" class="node">
<title>Node8</title>
<g id="a_Node000008"><a xlink:title=" ">
<polygon fill="#e0e0e0" stroke="#999999" points="522.12,-20 476.88,-20 476.88,0 522.12,0 522.12,-20"/>
<text xml:space="preserve" text-anchor="middle" x="499.5" y="-6.5" font-family="Helvetica,sans-Serif" font-size="10.00">cstdint</text>
</a>
</g>
</g>
<!-- Node1&#45;&gt;Node8 -->
<g id="edge19_Node000001_Node000008" class="edge">
<title>Node1&#45;&gt;Node8</title>
<g id="a_edge19_Node000001_Node000008"><a xlink:title=" ">
<path fill="none" stroke="#63b8ff" d="M409.53,-167.52C422.55,-159.52 440.14,-146.99 451.5,-132 475.08,-100.89 488.69,-56.67 495.05,-31.2"/>
<polygon fill="#63b8ff" stroke="#63b8ff" points="498.38,-32.35 497.26,-21.82 491.56,-30.75 498.38,-32.35"/>
</a>
</g>
</g>
<!-- Node3 -->
<g id="Node000003" class="node">
<title>Node3</title>
<g id="a_Node000003"><a xlink:href="MetaDB_8h.html" target="_top" xlink:title=" ">
<polygon fill="white" stroke="#666666" points="295.5,-76 201.5,-76 201.5,-56 295.5,-56 295.5,-76"/>
<text xml:space="preserve" text-anchor="middle" x="248.5" y="-62.5" font-family="Helvetica,sans-Serif" font-size="10.00">LGE/fs/MetaDB.h</text>
</a>
</g>
</g>
<!-- Node2&#45;&gt;Node3 -->
<g id="edge2_Node000002_Node000003" class="edge">
<title>Node2&#45;&gt;Node3</title>
<g id="a_edge2_Node000002_Node000003"><a xlink:title=" ">
<path fill="none" stroke="#63b8ff" d="M310.44,-111.59C299.53,-103.74 283.75,-92.38 270.84,-83.09"/>
<polygon fill="#63b8ff" stroke="#63b8ff" points="273.05,-80.37 262.89,-77.36 268.96,-86.05 273.05,-80.37"/>
</a>
</g>
</g>
<!-- Node2&#45;&gt;Node4 -->
<g id="edge8_Node000002_Node000004" class="edge">
<title>Node2&#45;&gt;Node4</title>
<g id="a_edge8_Node000002_Node000004"><a xlink:title=" ">
<path fill="none" stroke="#63b8ff" d="M263.44,-112.8C238.5,-106.53 211.1,-95.48 192.5,-76 181.07,-64.03 176.47,-45.57 174.64,-31.38"/>
<polygon fill="#63b8ff" stroke="#63b8ff" points="178.16,-31.43 173.78,-21.78 171.18,-32.05 178.16,-31.43"/>
</a>
</g>
</g>
<!-- Node2&#45;&gt;Node5 -->
<g id="edge9_Node000002_Node000005" class="edge">
<title>Node2&#45;&gt;Node5</title>
<g id="a_edge9_Node000002_Node000005"><a xlink:title=" ">
<path fill="none" stroke="#63b8ff" d="M323.5,-111.62C323.5,-94.01 323.5,-55.59 323.5,-31.65"/>
<polygon fill="#63b8ff" stroke="#63b8ff" points="327,-31.87 323.5,-21.87 320,-31.87 327,-31.87"/>
</a>
</g>
</g>
<!-- Node2&#45;&gt;Node6 -->
<g id="edge10_Node000002_Node000006" class="edge">
<title>Node2&#45;&gt;Node6</title>
<g id="a_edge10_Node000002_Node000006"><a xlink:title=" ">
<path fill="none" stroke="#63b8ff" d="M263.35,-120.82C211.32,-118.23 135.67,-108.45 78.5,-76 58.99,-64.92 42.82,-44.62 32.75,-29.64"/>
<polygon fill="#63b8ff" stroke="#63b8ff" points="35.94,-28.12 27.61,-21.57 30.04,-31.89 35.94,-28.12"/>
</a>
</g>
</g>
<!-- Node2&#45;&gt;Node7 -->
<g id="edge12_Node000002_Node000007" class="edge">
<title>Node2&#45;&gt;Node7</title>
<g id="a_edge12_Node000002_Node000007"><a xlink:title=" ">
<path fill="none" stroke="#63b8ff" d="M362.32,-111.57C391.83,-103.77 433.1,-91.46 467.5,-76 498.55,-62.05 531.74,-41.05 553.01,-26.73"/>
<polygon fill="#63b8ff" stroke="#63b8ff" points="554.89,-29.67 561.18,-21.14 550.94,-23.89 554.89,-29.67"/>
</a>
</g>
</g>
<!-- Node2&#45;&gt;Node8 -->
<g id="edge14_Node000002_Node000008" class="edge">
<title>Node2&#45;&gt;Node8</title>
<g id="a_edge14_Node000002_Node000008"><a xlink:title=" ">
<path fill="none" stroke="#63b8ff" d="M362.25,-111.57C386.71,-104.4 418.18,-92.86 442.5,-76 460.56,-63.48 476.62,-44.01 487.04,-29.64"/>
<polygon fill="#63b8ff" stroke="#63b8ff" points="489.88,-31.7 492.73,-21.49 484.14,-27.69 489.88,-31.7"/>
</a>
</g>
</g>
<!-- Node9 -->
<g id="Node000009" class="node">
<title>Node9</title>
<g id="a_Node000009"><a xlink:title=" ">
<polygon fill="#e0e0e0" stroke="#999999" points="433.88,-76 351.12,-76 351.12,-56 433.88,-56 433.88,-76"/>
<text xml:space="preserve" text-anchor="middle" x="392.5" y="-62.5" font-family="Helvetica,sans-Serif" font-size="10.00">unordered_map</text>
</a>
</g>
</g>
<!-- Node2&#45;&gt;Node9 -->
<g id="edge11_Node000002_Node000009" class="edge">
<title>Node2&#45;&gt;Node9</title>
<g id="a_edge11_Node000002_Node000009"><a xlink:title=" ">
<path fill="none" stroke="#63b8ff" d="M335.52,-111.59C345.51,-103.77 359.96,-92.46 371.81,-83.19"/>
<polygon fill="#63b8ff" stroke="#63b8ff" points="373.71,-86.15 379.43,-77.23 369.39,-80.64 373.71,-86.15"/>
</a>
</g>
</g>
<!-- Node10 -->
<g id="Node000010" class="node">
<title>Node10</title>
<g id="a_Node000010"><a xlink:title=" ">
<polygon fill="#e0e0e0" stroke="#999999" points="145.5,-76 87.5,-76 87.5,-56 145.5,-56 145.5,-76"/>
<text xml:space="preserve" text-anchor="middle" x="116.5" y="-62.5" font-family="Helvetica,sans-Serif" font-size="10.00">functional</text>
</a>
</g>
</g>
<!-- Node2&#45;&gt;Node10 -->
<g id="edge13_Node000002_Node000010" class="edge">
<title>Node2&#45;&gt;Node10</title>
<g id="a_edge13_Node000002_Node000010"><a xlink:title=" ">
<path fill="none" stroke="#63b8ff" d="M287.44,-111.59C251.02,-102.09 194.85,-87.44 156.93,-77.55"/>
<polygon fill="#63b8ff" stroke="#63b8ff" points="157.82,-74.16 147.26,-75.02 156.05,-80.93 157.82,-74.16"/>
</a>
</g>
</g>
<!-- Node3&#45;&gt;Node4 -->
<g id="edge3_Node000003_Node000004" class="edge">
<title>Node3&#45;&gt;Node4</title>
<g id="a_edge3_Node000003_Node000004"><a xlink:title=" ">
<path fill="none" stroke="#63b8ff" d="M235.44,-55.59C224.53,-47.74 208.75,-36.38 195.84,-27.09"/>
<polygon fill="#63b8ff" stroke="#63b8ff" points="198.05,-24.37 187.89,-21.36 193.96,-30.05 198.05,-24.37"/>
</a>
</g>
</g>
<!-- Node3&#45;&gt;Node5 -->
<g id="edge4_Node000003_Node000005" class="edge">
<title>Node3&#45;&gt;Node5</title>
<g id="a_edge4_Node000003_Node000005"><a xlink:title=" ">
<path fill="none" stroke="#63b8ff" d="M261.56,-55.59C272.47,-47.74 288.25,-36.38 301.16,-27.09"/>
<polygon fill="#63b8ff" stroke="#63b8ff" points="303.04,-30.05 309.11,-21.36 298.95,-24.37 303.04,-30.05"/>
</a>
</g>
</g>
<!-- Node3&#45;&gt;Node6 -->
<g id="edge5_Node000003_Node000006" class="edge">
<title>Node3&#45;&gt;Node6</title>
<g id="a_edge5_Node000003_Node000006"><a xlink:title=" ">
<path fill="none" stroke="#63b8ff" d="M208.7,-55.53C164.86,-45.1 95.18,-28.53 54.33,-18.81"/>
<polygon fill="#63b8ff" stroke="#63b8ff" points="55.39,-15.46 44.85,-16.56 53.77,-22.27 55.39,-15.46"/>
</a>
</g>
</g>
<!-- Node3&#45;&gt;Node7 -->
<g id="edge6_Node000003_Node000007" class="edge">
<title>Node3&#45;&gt;Node7</title>
<g id="a_edge6_Node000003_Node000007"><a xlink:title=" ">
<path fill="none" stroke="#63b8ff" d="M295.93,-58.11C352.23,-49.78 448.9,-35.01 531.5,-20 533.99,-19.55 536.56,-19.06 539.15,-18.57"/>
<polygon fill="#63b8ff" stroke="#63b8ff" points="539.8,-22.01 548.92,-16.63 538.43,-15.14 539.8,-22.01"/>
</a>
</g>
</g>
<!-- Node3&#45;&gt;Node8 -->
<g id="edge7_Node000003_Node000008" class="edge">
<title>Node3&#45;&gt;Node8</title>
<g id="a_edge7_Node000003_Node000008"><a xlink:title=" ">
<path fill="none" stroke="#63b8ff" d="M292.51,-55.53C341.81,-44.93 420.67,-27.96 465.48,-18.32"/>
<polygon fill="#63b8ff" stroke="#63b8ff" points="466.11,-21.76 475.15,-16.24 464.64,-14.92 466.11,-21.76"/>
</a>
</g>
</g>
</g>
</svg>
