<?xml version="1.0" encoding="UTF-8" standalone="no"?>
<!DOCTYPE svg PUBLIC "-//W3C//DTD SVG 1.1//EN"
 "http://www.w3.org/Graphics/SVG/1.1/DTD/svg11.dtd">
<!-- Generated by graphviz version 14.0.2 (20251019.1705)
 -->
<!-- Title: Search.cpp Pages: 1 -->
<svg width="737pt" height="252pt"
 viewBox="0.00 0.00 737.00 252.00" xmlns="http://www.w3.org/2000/svg" xmlns:xlink="http://www.w3.org/1999/xlink">
<g id="graph0" class="graph" transform="scale(1 1) rotate(0) translate(4 248)">
<title>Search.cpp</title>
<!-- Node1 -->
<g id="Node000001" class="node">
<title>Node1</title>
<g id="a_Node000001"><a xlink:title=" ">
<polygon fill="#999999" stroke="#666666" points="436.88,-244 371.38,-244 371.38,-224 436.88,-224 436.88,-244"/>
<text xml:space="preserve" text-anchor="middle" x="404.12" y="-230.5" font-family="Helvetica,sans-Serif" font-size="10.00">Search.cpp</text>
</a>
</g>
</g>
<!-- Node2 -->
<g id="Node000002" class="node">
<title>Node2</title>
<g id="a_Node000002"><a xlink:href="Search_8h.html" target="_top" xlink:title=" ">
<polygon fill="white" stroke="#666666" points="358.5,-188 269.75,-188 269.75,-168 358.5,-168 358.5,-188"/>
<text xml:space="preserve" text-anchor="middle" x="314.12" y="-174.5" font-family="Helvetica,sans-Serif" font-size="10.00">LGE/fs/Search.h</text>
</a>
</g>
</g>
<!-- Node1&#45;&gt;Node2 -->
<g id="edge1_Node000001_Node000002" class="edge">
<title>Node1&#45;&gt;Node2</title>
<g id="a_edge1_Node000001_Node000002"><a xlink:title=" ">
<path fill="none" stroke="#63b8ff" d="M388.45,-223.59C374.98,-215.51 355.31,-203.71 339.58,-194.27"/>
<polygon fill="#63b8ff" stroke="#63b8ff" points="341.6,-191.4 331.22,-189.26 338,-197.4 341.6,-191.4"/>
</a>
</g>
</g>
<!-- Node12 -->
<g id="Node000012" class="node">
<title>Node12</title>
<g id="a_Node000012"><a xlink:href="Path_8h.html" target="_top" xlink:title=" ">
<polygon fill="white" stroke="#666666" points="160.25,-76 82,-76 82,-56 160.25,-56 160.25,-76"/>
<text xml:space="preserve" text-anchor="middle" x="121.12" y="-62.5" font-family="Helvetica,sans-Serif" font-size="10.00">LGE/fs/Path.h</text>
</a>
</g>
</g>
<!-- Node1&#45;&gt;Node12 -->
<g id="edge21_Node000001_Node000012" class="edge">
<title>Node1&#45;&gt;Node12</title>
<g id="a_edge21_Node000001_Node000012"><a xlink:title=" ">
<path fill="none" stroke="#63b8ff" d="M371.07,-226.63C341.06,-219.92 296.24,-207.59 261.12,-188 210.18,-159.58 161.07,-110.6 136.82,-84.52"/>
<polygon fill="#63b8ff" stroke="#63b8ff" points="139.67,-82.46 130.34,-77.44 134.51,-87.18 139.67,-82.46"/>
</a>
</g>
</g>
<!-- Node13 -->
<g id="Node000013" class="node">
<title>Node13</title>
<g id="a_Node000013"><a xlink:href="Log_8h.html" target="_top" xlink:title=" ">
<polygon fill="white" stroke="#666666" points="84.25,-188 0,-188 0,-168 84.25,-168 84.25,-188"/>
<text xml:space="preserve" text-anchor="middle" x="42.12" y="-174.5" font-family="Helvetica,sans-Serif" font-size="10.00">LGE/core/Log.h</text>
</a>
</g>
</g>
<!-- Node1&#45;&gt;Node13 -->
<g id="edge24_Node000001_Node000013" class="edge">
<title>Node1&#45;&gt;Node13</title>
<g id="a_edge24_Node000001_Node000013"><a xlink:title=" ">
<path fill="none" stroke="#63b8ff" d="M371.05,-228.28C314.9,-220.24 197.37,-203.27 98.12,-188 97.3,-187.87 96.48,-187.75 95.64,-187.62"/>
<polygon fill="#63b8ff" stroke="#63b8ff" points="96.53,-184.21 86.11,-186.12 95.45,-191.13 96.53,-184.21"/>
</a>
</g>
</g>
<!-- Node15 -->
<g id="Node000015" class="node">
<title>Node15</title>
<g id="a_Node000015"><a xlink:title=" ">
<polygon fill="#e0e0e0" stroke="#999999" points="432,-188 376.25,-188 376.25,-168 432,-168 432,-188"/>
<text xml:space="preserve" text-anchor="middle" x="404.12" y="-174.5" font-family="Helvetica,sans-Serif" font-size="10.00">algorithm</text>
</a>
</g>
</g>
<!-- Node1&#45;&gt;Node15 -->
<g id="edge27_Node000001_Node000015" class="edge">
<title>Node1&#45;&gt;Node15</title>
<g id="a_edge27_Node000001_Node000015"><a xlink:title=" ">
<path fill="none" stroke="#63b8ff" d="M404.12,-223.59C404.12,-217.01 404.12,-207.96 404.12,-199.73"/>
<polygon fill="#63b8ff" stroke="#63b8ff" points="407.63,-199.81 404.13,-189.81 400.63,-199.81 407.63,-199.81"/>
</a>
</g>
</g>
<!-- Node16 -->
<g id="Node000016" class="node">
<title>Node16</title>
<g id="a_Node000016"><a xlink:title=" ">
<polygon fill="#e0e0e0" stroke="#999999" points="492.62,-188 449.62,-188 449.62,-168 492.62,-168 492.62,-188"/>
<text xml:space="preserve" text-anchor="middle" x="471.12" y="-174.5" font-family="Helvetica,sans-Serif" font-size="10.00">cmath</text>
</a>
</g>
</g>
<!-- Node1&#45;&gt;Node16 -->
<g id="edge28_Node000001_Node000016" class="edge">
<title>Node1&#45;&gt;Node16</title>
<g id="a_edge28_Node000001_Node000016"><a xlink:title=" ">
<path fill="none" stroke="#63b8ff" d="M415.8,-223.59C425.4,-215.85 439.25,-204.69 450.69,-195.47"/>
<polygon fill="#63b8ff" stroke="#63b8ff" points="452.82,-198.25 458.41,-189.25 448.43,-192.8 452.82,-198.25"/>
</a>
</g>
</g>
<!-- Node17 -->
<g id="Node000017" class="node">
<title>Node17</title>
<g id="a_Node000017"><a xlink:title=" ">
<polygon fill="#e0e0e0" stroke="#999999" points="561.75,-188 510.5,-188 510.5,-168 561.75,-168 561.75,-188"/>
<text xml:space="preserve" text-anchor="middle" x="536.12" y="-174.5" font-family="Helvetica,sans-Serif" font-size="10.00">sstream</text>
</a>
</g>
</g>
<!-- Node1&#45;&gt;Node17 -->
<g id="edge29_Node000001_Node000017" class="edge">
<title>Node1&#45;&gt;Node17</title>
<g id="a_edge29_Node000001_Node000017"><a xlink:title=" ">
<path fill="none" stroke="#63b8ff" d="M427.12,-223.59C447.91,-215.09 478.78,-202.46 502.36,-192.81"/>
<polygon fill="#63b8ff" stroke="#63b8ff" points="503.62,-196.08 511.55,-189.05 500.97,-189.6 503.62,-196.08"/>
</a>
</g>
</g>
<!-- Node18 -->
<g id="Node000018" class="node">
<title>Node18</title>
<g id="a_Node000018"><a xlink:title=" ">
<polygon fill="#e0e0e0" stroke="#999999" points="624.75,-188 579.5,-188 579.5,-168 624.75,-168 624.75,-188"/>
<text xml:space="preserve" text-anchor="middle" x="602.12" y="-174.5" font-family="Helvetica,sans-Serif" font-size="10.00">cctype</text>
</a>
</g>
</g>
<!-- Node1&#45;&gt;Node18 -->
<g id="edge30_Node000001_Node000018" class="edge">
<title>Node1&#45;&gt;Node18</title>
<g id="a_edge30_Node000001_Node000018"><a xlink:title=" ">
<path fill="none" stroke="#63b8ff" d="M437.13,-224.31C468.62,-215.97 517.65,-202.88 568.29,-188.76"/>
<polygon fill="#63b8ff" stroke="#63b8ff" points="568.97,-192.2 577.66,-186.14 567.09,-185.46 568.97,-192.2"/>
</a>
</g>
</g>
<!-- Node3 -->
<g id="Node000003" class="node">
<title>Node3</title>
<g id="a_Node000003"><a xlink:href="AssetRegistry_8h.html" target="_top" xlink:title=" ">
<polygon fill="white" stroke="#666666" points="499.88,-132 380.38,-132 380.38,-112 499.88,-112 499.88,-132"/>
<text xml:space="preserve" text-anchor="middle" x="440.12" y="-118.5" font-family="Helvetica,sans-Serif" font-size="10.00">LGE/fs/AssetRegistry.h</text>
</a>
</g>
</g>
<!-- Node2&#45;&gt;Node3 -->
<g id="edge2_Node000002_Node000003" class="edge">
<title>Node2&#45;&gt;Node3</title>
<g id="a_edge2_Node000002_Node000003"><a xlink:title=" ">
<path fill="none" stroke="#63b8ff" d="M336.07,-167.59C355.83,-159.13 385.12,-146.58 407.59,-136.94"/>
<polygon fill="#63b8ff" stroke="#63b8ff" points="408.8,-140.23 416.62,-133.08 406.04,-133.8 408.8,-140.23"/>
</a>
</g>
</g>
<!-- Node5 -->
<g id="Node000005" class="node">
<title>Node5</title>
<g id="a_Node000005"><a xlink:title=" ">
<polygon fill="#e0e0e0" stroke="#999999" points="141.12,-20 101.12,-20 101.12,0 141.12,0 141.12,-20"/>
<text xml:space="preserve" text-anchor="middle" x="121.12" y="-6.5" font-family="Helvetica,sans-Serif" font-size="10.00">string</text>
</a>
</g>
</g>
<!-- Node2&#45;&gt;Node5 -->
<g id="edge16_Node000002_Node000005" class="edge">
<title>Node2&#45;&gt;Node5</title>
<g id="a_edge16_Node000002_Node000005"><a xlink:title=" ">
<path fill="none" stroke="#63b8ff" d="M269.73,-172.85C213.02,-164.9 116.97,-141.91 73.12,-76 61.72,-58.85 79.18,-39.99 96.15,-27.03"/>
<polygon fill="#63b8ff" stroke="#63b8ff" points="98,-30.01 104.11,-21.36 93.94,-24.31 98,-30.01"/>
</a>
</g>
</g>
<!-- Node6 -->
<g id="Node000006" class="node">
<title>Node6</title>
<g id="a_Node000006"><a xlink:title=" ">
<polygon fill="#e0e0e0" stroke="#999999" points="348.88,-20 283.38,-20 283.38,0 348.88,0 348.88,-20"/>
<text xml:space="preserve" text-anchor="middle" x="316.12" y="-6.5" font-family="Helvetica,sans-Serif" font-size="10.00">string_view</text>
</a>
</g>
</g>
<!-- Node2&#45;&gt;Node6 -->
<g id="edge17_Node000002_Node000006" class="edge">
<title>Node2&#45;&gt;Node6</title>
<g id="a_edge17_Node000002_Node000006"><a xlink:title=" ">
<path fill="none" stroke="#63b8ff" d="M301.55,-167.64C275.94,-147.39 222.05,-97.95 245.12,-56 252.58,-42.45 266.03,-32.4 279.24,-25.29"/>
<polygon fill="#63b8ff" stroke="#63b8ff" points="280.39,-28.62 287.82,-21.07 277.31,-22.34 280.39,-28.62"/>
</a>
</g>
</g>
<!-- Node7 -->
<g id="Node000007" class="node">
<title>Node7</title>
<g id="a_Node000007"><a xlink:title=" ">
<polygon fill="#e0e0e0" stroke="#999999" points="655.62,-20 612.62,-20 612.62,0 655.62,0 655.62,-20"/>
<text xml:space="preserve" text-anchor="middle" x="634.12" y="-6.5" font-family="Helvetica,sans-Serif" font-size="10.00">vector</text>
</a>
</g>
</g>
<!-- Node2&#45;&gt;Node7 -->
<g id="edge18_Node000002_Node000007" class="edge">
<title>Node2&#45;&gt;Node7</title>
<g id="a_edge18_Node000002_Node000007"><a xlink:title=" ">
<path fill="none" stroke="#63b8ff" d="M358.99,-168.96C424.07,-157.21 537.83,-136.27 546.12,-132 578.27,-115.45 584.25,-105.52 605.12,-76 614.95,-62.11 622.59,-44.36 627.56,-30.92"/>
<polygon fill="#63b8ff" stroke="#63b8ff" points="630.74,-32.45 630.73,-21.85 624.13,-30.14 630.74,-32.45"/>
</a>
</g>
</g>
<!-- Node8 -->
<g id="Node000008" class="node">
<title>Node8</title>
<g id="a_Node000008"><a xlink:title=" ">
<polygon fill="#e0e0e0" stroke="#999999" points="729,-20 679.25,-20 679.25,0 729,0 729,-20"/>
<text xml:space="preserve" text-anchor="middle" x="704.12" y="-6.5" font-family="Helvetica,sans-Serif" font-size="10.00">optional</text>
</a>
</g>
</g>
<!-- Node2&#45;&gt;Node8 -->
<g id="edge19_Node000002_Node000008" class="edge">
<title>Node2&#45;&gt;Node8</title>
<g id="a_edge19_Node000002_Node000008"><a xlink:title=" ">
<path fill="none" stroke="#63b8ff" d="M358.74,-169.39C432.98,-156.72 573.91,-132.6 575.12,-132 625.06,-107.13 669.09,-56.61 690.45,-29.38"/>
<polygon fill="#63b8ff" stroke="#63b8ff" points="693.04,-31.76 696.34,-21.69 687.48,-27.5 693.04,-31.76"/>
</a>
</g>
</g>
<!-- Node9 -->
<g id="Node000009" class="node">
<title>Node9</title>
<g id="a_Node000009"><a xlink:title=" ">
<polygon fill="#e0e0e0" stroke="#999999" points="594.75,-20 549.5,-20 549.5,0 594.75,0 594.75,-20"/>
<text xml:space="preserve" text-anchor="middle" x="572.12" y="-6.5" font-family="Helvetica,sans-Serif" font-size="10.00">cstdint</text>
</a>
</g>
</g>
<!-- Node2&#45;&gt;Node9 -->
<g id="edge20_Node000002_Node000009" class="edge">
<title>Node2&#45;&gt;Node9</title>
<g id="a_edge20_Node000002_Node000009"><a xlink:title=" ">
<path fill="none" stroke="#63b8ff" d="M358.83,-168.74C407.71,-159.35 482.62,-143.8 509.12,-132 548.78,-114.35 569.08,-114.5 589.12,-76 596.62,-61.61 590.95,-43.68 584.21,-30.29"/>
<polygon fill="#63b8ff" stroke="#63b8ff" points="587.28,-28.6 579.31,-21.61 581.18,-32.04 587.28,-28.6"/>
</a>
</g>
</g>
<!-- Node4 -->
<g id="Node000004" class="node">
<title>Node4</title>
<g id="a_Node000004"><a xlink:href="MetaDB_8h.html" target="_top" xlink:title=" ">
<polygon fill="white" stroke="#666666" points="562.12,-76 468.12,-76 468.12,-56 562.12,-56 562.12,-76"/>
<text xml:space="preserve" text-anchor="middle" x="515.12" y="-62.5" font-family="Helvetica,sans-Serif" font-size="10.00">LGE/fs/MetaDB.h</text>
</a>
</g>
</g>
<!-- Node3&#45;&gt;Node4 -->
<g id="edge3_Node000003_Node000004" class="edge">
<title>Node3&#45;&gt;Node4</title>
<g id="a_edge3_Node000003_Node000004"><a xlink:title=" ">
<path fill="none" stroke="#63b8ff" d="M453.19,-111.59C464.09,-103.74 479.88,-92.38 492.78,-83.09"/>
<polygon fill="#63b8ff" stroke="#63b8ff" points="494.66,-86.05 500.73,-77.36 490.57,-80.37 494.66,-86.05"/>
</a>
</g>
</g>
<!-- Node3&#45;&gt;Node5 -->
<g id="edge9_Node000003_Node000005" class="edge">
<title>Node3&#45;&gt;Node5</title>
<g id="a_edge9_Node000003_Node000005"><a xlink:title=" ">
<path fill="none" stroke="#63b8ff" d="M381.39,-111.51C342.08,-104.18 289.6,-92.48 245.12,-76 208.99,-62.61 170.05,-40.88 145.65,-26.27"/>
<polygon fill="#63b8ff" stroke="#63b8ff" points="147.48,-23.29 137.11,-21.09 143.84,-29.27 147.48,-23.29"/>
</a>
</g>
</g>
<!-- Node3&#45;&gt;Node6 -->
<g id="edge10_Node000003_Node000006" class="edge">
<title>Node3&#45;&gt;Node6</title>
<g id="a_edge10_Node000003_Node000006"><a xlink:title=" ">
<path fill="none" stroke="#63b8ff" d="M439.84,-111.86C438.93,-98.11 435.32,-72.01 421.12,-56 405.29,-38.13 381.14,-27.12 359.98,-20.46"/>
<polygon fill="#63b8ff" stroke="#63b8ff" points="360.97,-17.11 350.39,-17.7 359.03,-23.83 360.97,-17.11"/>
</a>
</g>
</g>
<!-- Node3&#45;&gt;Node7 -->
<g id="edge11_Node000003_Node000007" class="edge">
<title>Node3&#45;&gt;Node7</title>
<g id="a_edge11_Node000003_Node000007"><a xlink:title=" ">
<path fill="none" stroke="#63b8ff" d="M500.13,-112.39C529.1,-105.98 563.13,-94.93 589.12,-76 605.22,-64.28 617.52,-44.98 625.16,-30.45"/>
<polygon fill="#63b8ff" stroke="#63b8ff" points="628.13,-32.34 629.41,-21.83 621.85,-29.25 628.13,-32.34"/>
</a>
</g>
</g>
<!-- Node3&#45;&gt;Node8 -->
<g id="edge13_Node000003_Node000008" class="edge">
<title>Node3&#45;&gt;Node8</title>
<g id="a_edge13_Node000003_Node000008"><a xlink:title=" ">
<path fill="none" stroke="#63b8ff" d="M497.64,-111.53C532.2,-104.51 576.44,-93.15 613.12,-76 640.13,-63.37 667.48,-42.51 685.05,-27.83"/>
<polygon fill="#63b8ff" stroke="#63b8ff" points="687.26,-30.54 692.58,-21.39 682.71,-25.22 687.26,-30.54"/>
</a>
</g>
</g>
<!-- Node3&#45;&gt;Node9 -->
<g id="edge15_Node000003_Node000009" class="edge">
<title>Node3&#45;&gt;Node9</title>
<g id="a_edge15_Node000003_Node000009"><a xlink:title=" ">
<path fill="none" stroke="#63b8ff" d="M500.11,-115.6C526.31,-109.93 554.74,-98.58 571.12,-76 580.35,-63.28 579.84,-45.17 577.45,-31.3"/>
<polygon fill="#63b8ff" stroke="#63b8ff" points="580.95,-30.93 575.39,-21.92 574.12,-32.43 580.95,-30.93"/>
</a>
</g>
</g>
<!-- Node10 -->
<g id="Node000010" class="node">
<title>Node10</title>
<g id="a_Node000010"><a xlink:title=" ">
<polygon fill="#e0e0e0" stroke="#999999" points="336.5,-76 253.75,-76 253.75,-56 336.5,-56 336.5,-76"/>
<text xml:space="preserve" text-anchor="middle" x="295.12" y="-62.5" font-family="Helvetica,sans-Serif" font-size="10.00">unordered_map</text>
</a>
</g>
</g>
<!-- Node3&#45;&gt;Node10 -->
<g id="edge12_Node000003_Node000010" class="edge">
<title>Node3&#45;&gt;Node10</title>
<g id="a_edge12_Node000003_Node000010"><a xlink:title=" ">
<path fill="none" stroke="#63b8ff" d="M414.87,-111.59C391.72,-102.97 357.2,-90.12 331.16,-80.42"/>
<polygon fill="#63b8ff" stroke="#63b8ff" points="332.59,-77.22 322,-77.01 330.15,-83.78 332.59,-77.22"/>
</a>
</g>
</g>
<!-- Node11 -->
<g id="Node000011" class="node">
<title>Node11</title>
<g id="a_Node000011"><a xlink:title=" ">
<polygon fill="#e0e0e0" stroke="#999999" points="412.12,-76 354.12,-76 354.12,-56 412.12,-56 412.12,-76"/>
<text xml:space="preserve" text-anchor="middle" x="383.12" y="-62.5" font-family="Helvetica,sans-Serif" font-size="10.00">functional</text>
</a>
</g>
</g>
<!-- Node3&#45;&gt;Node11 -->
<g id="edge14_Node000003_Node000011" class="edge">
<title>Node3&#45;&gt;Node11</title>
<g id="a_edge14_Node000003_Node000011"><a xlink:title=" ">
<path fill="none" stroke="#63b8ff" d="M430.2,-111.59C422.19,-104.01 410.71,-93.13 401.09,-84.02"/>
<polygon fill="#63b8ff" stroke="#63b8ff" points="403.71,-81.68 394.04,-77.34 398.89,-86.76 403.71,-81.68"/>
</a>
</g>
</g>
<!-- Node4&#45;&gt;Node5 -->
<g id="edge4_Node000004_Node000005" class="edge">
<title>Node4&#45;&gt;Node5</title>
<g id="a_edge4_Node000004_Node000005"><a xlink:title=" ">
<path fill="none" stroke="#63b8ff" d="M467.99,-58.54C386.68,-47.4 222.11,-24.84 152.91,-15.36"/>
<polygon fill="#63b8ff" stroke="#63b8ff" points="153.4,-11.89 143.02,-14 152.45,-18.83 153.4,-11.89"/>
</a>
</g>
</g>
<!-- Node4&#45;&gt;Node6 -->
<g id="edge5_Node000004_Node000006" class="edge">
<title>Node4&#45;&gt;Node6</title>
<g id="a_edge5_Node000004_Node000006"><a xlink:title=" ">
<path fill="none" stroke="#63b8ff" d="M480.46,-55.59C446.96,-46.5 396.08,-32.7 359.82,-22.86"/>
<polygon fill="#63b8ff" stroke="#63b8ff" points="361.1,-19.58 350.53,-20.34 359.26,-26.33 361.1,-19.58"/>
</a>
</g>
</g>
<!-- Node4&#45;&gt;Node7 -->
<g id="edge6_Node000004_Node000007" class="edge">
<title>Node4&#45;&gt;Node7</title>
<g id="a_edge6_Node000004_Node000007"><a xlink:title=" ">
<path fill="none" stroke="#63b8ff" d="M535.85,-55.59C554.34,-47.21 581.67,-34.8 602.82,-25.21"/>
<polygon fill="#63b8ff" stroke="#63b8ff" points="604.2,-28.42 611.86,-21.1 601.3,-22.05 604.2,-28.42"/>
</a>
</g>
</g>
<!-- Node4&#45;&gt;Node8 -->
<g id="edge7_Node000004_Node000008" class="edge">
<title>Node4&#45;&gt;Node8</title>
<g id="a_edge7_Node000004_Node000008"><a xlink:title=" ">
<path fill="none" stroke="#63b8ff" d="M548.05,-55.59C581.49,-46.04 633.17,-31.27 667.79,-21.38"/>
<polygon fill="#63b8ff" stroke="#63b8ff" points="668.72,-24.76 677.38,-18.64 666.8,-18.02 668.72,-24.76"/>
</a>
</g>
</g>
<!-- Node4&#45;&gt;Node9 -->
<g id="edge8_Node000004_Node000009" class="edge">
<title>Node4&#45;&gt;Node9</title>
<g id="a_edge8_Node000004_Node000009"><a xlink:title=" ">
<path fill="none" stroke="#63b8ff" d="M525.05,-55.59C533.06,-48.01 544.54,-37.13 554.16,-28.02"/>
<polygon fill="#63b8ff" stroke="#63b8ff" points="556.36,-30.76 561.21,-21.34 551.54,-25.68 556.36,-30.76"/>
</a>
</g>
</g>
<!-- Node12&#45;&gt;Node5 -->
<g id="edge22_Node000012_Node000005" class="edge">
<title>Node12&#45;&gt;Node5</title>
<g id="a_edge22_Node000012_Node000005"><a xlink:title=" ">
<path fill="none" stroke="#63b8ff" d="M121.12,-55.59C121.12,-49.01 121.12,-39.96 121.12,-31.73"/>
<polygon fill="#63b8ff" stroke="#63b8ff" points="124.63,-31.81 121.13,-21.81 117.63,-31.81 124.63,-31.81"/>
</a>
</g>
</g>
<!-- Node12&#45;&gt;Node6 -->
<g id="edge23_Node000012_Node000006" class="edge">
<title>Node12&#45;&gt;Node6</title>
<g id="a_edge23_Node000012_Node000006"><a xlink:title=" ">
<path fill="none" stroke="#63b8ff" d="M155.09,-55.59C187.58,-46.6 236.75,-32.98 272.21,-23.16"/>
<polygon fill="#63b8ff" stroke="#63b8ff" points="273.04,-26.56 281.74,-20.52 271.17,-19.82 273.04,-26.56"/>
</a>
</g>
</g>
<!-- Node13&#45;&gt;Node5 -->
<g id="edge26_Node000013_Node000005" class="edge">
<title>Node13&#45;&gt;Node5</title>
<g id="a_edge26_Node000013_Node000005"><a xlink:title=" ">
<path fill="none" stroke="#63b8ff" d="M36.35,-167.78C31.2,-158.97 24.04,-145.13 21.12,-132 13.58,-98.01 17.82,-82.73 40.12,-56 53.23,-40.3 73.3,-29.09 90.18,-21.79"/>
<polygon fill="#63b8ff" stroke="#63b8ff" points="91.34,-25.1 99.31,-18.11 88.72,-18.6 91.34,-25.1"/>
</a>
</g>
</g>
<!-- Node14 -->
<g id="Node000014" class="node">
<title>Node14</title>
<g id="a_Node000014"><a xlink:title=" ">
<polygon fill="#e0e0e0" stroke="#999999" points="83.88,-132 30.38,-132 30.38,-112 83.88,-112 83.88,-132"/>
<text xml:space="preserve" text-anchor="middle" x="57.12" y="-118.5" font-family="Helvetica,sans-Serif" font-size="10.00">iostream</text>
</a>
</g>
</g>
<!-- Node13&#45;&gt;Node14 -->
<g id="edge25_Node000013_Node000014" class="edge">
<title>Node13&#45;&gt;Node14</title>
<g id="a_edge25_Node000013_Node000014"><a xlink:title=" ">
<path fill="none" stroke="#63b8ff" d="M44.74,-167.59C46.61,-160.86 49.2,-151.53 51.53,-143.15"/>
<polygon fill="#63b8ff" stroke="#63b8ff" points="54.83,-144.33 54.14,-133.76 48.09,-142.46 54.83,-144.33"/>
</a>
</g>
</g>
</g>
</svg>
