<?xml version="1.0" encoding="UTF-8" standalone="no"?>
<!DOCTYPE svg PUBLIC "-//W3C//DTD SVG 1.1//EN"
 "http://www.w3.org/Graphics/SVG/1.1/DTD/svg11.dtd">
<!-- Generated by graphviz version 14.0.2 (20251019.1705)
 -->
<!-- Title: Shader.cpp Pages: 1 -->
<svg width="511pt" height="140pt"
 viewBox="0.00 0.00 511.00 140.00" xmlns="http://www.w3.org/2000/svg" xmlns:xlink="http://www.w3.org/1999/xlink">
<g id="graph0" class="graph" transform="scale(1 1) rotate(0) translate(4 136)">
<title>Shader.cpp</title>
<!-- Node1 -->
<g id="Node000001" class="node">
<title>Node1</title>
<g id="a_Node000001"><a xlink:title=" ">
<polygon fill="#999999" stroke="#666666" points="368.12,-132 302.62,-132 302.62,-112 368.12,-112 368.12,-132"/>
<text xml:space="preserve" text-anchor="middle" x="335.38" y="-118.5" font-family="Helvetica,sans-Serif" font-size="10.00">Shader.cpp</text>
</a>
</g>
</g>
<!-- Node2 -->
<g id="Node000002" class="node">
<title>Node2</title>
<g id="a_Node000002"><a xlink:href="Shader_8h.html" target="_top" xlink:title=" ">
<polygon fill="white" stroke="#666666" points="183.5,-76 63.25,-76 63.25,-56 183.5,-56 183.5,-76"/>
<text xml:space="preserve" text-anchor="middle" x="123.38" y="-62.5" font-family="Helvetica,sans-Serif" font-size="10.00">LGE/rendering/Shader.h</text>
</a>
</g>
</g>
<!-- Node1&#45;&gt;Node2 -->
<g id="edge1_Node000001_Node000002" class="edge">
<title>Node1&#45;&gt;Node2</title>
<g id="a_edge1_Node000001_Node000002"><a xlink:title=" ">
<path fill="none" stroke="#63b8ff" d="M302.25,-112.56C267.2,-103.63 211.54,-89.46 171.62,-79.29"/>
<polygon fill="#63b8ff" stroke="#63b8ff" points="172.57,-75.92 162.01,-76.84 170.84,-82.7 172.57,-75.92"/>
</a>
</g>
</g>
<!-- Node6 -->
<g id="Node000006" class="node">
<title>Node6</title>
<g id="a_Node000006"><a xlink:href="Log_8h.html" target="_top" xlink:title=" ">
<polygon fill="white" stroke="#666666" points="285.5,-76 201.25,-76 201.25,-56 285.5,-56 285.5,-76"/>
<text xml:space="preserve" text-anchor="middle" x="243.38" y="-62.5" font-family="Helvetica,sans-Serif" font-size="10.00">LGE/core/Log.h</text>
</a>
</g>
</g>
<!-- Node1&#45;&gt;Node6 -->
<g id="edge5_Node000001_Node000006" class="edge">
<title>Node1&#45;&gt;Node6</title>
<g id="a_edge5_Node000001_Node000006"><a xlink:title=" ">
<path fill="none" stroke="#63b8ff" d="M319.35,-111.59C305.58,-103.51 285.47,-91.71 269.4,-82.27"/>
<polygon fill="#63b8ff" stroke="#63b8ff" points="271.23,-79.29 260.83,-77.25 267.68,-85.33 271.23,-79.29"/>
</a>
</g>
</g>
<!-- Node8 -->
<g id="Node000008" class="node">
<title>Node8</title>
<g id="a_Node000008"><a xlink:title=" ">
<polygon fill="#e0e0e0" stroke="#999999" points="367,-76 303.75,-76 303.75,-56 367,-56 367,-76"/>
<text xml:space="preserve" text-anchor="middle" x="335.38" y="-62.5" font-family="Helvetica,sans-Serif" font-size="10.00">glad/glad.h</text>
</a>
</g>
</g>
<!-- Node1&#45;&gt;Node8 -->
<g id="edge8_Node000001_Node000008" class="edge">
<title>Node1&#45;&gt;Node8</title>
<g id="a_edge8_Node000001_Node000008"><a xlink:title=" ">
<path fill="none" stroke="#63b8ff" d="M335.38,-111.59C335.38,-105.01 335.38,-95.96 335.38,-87.73"/>
<polygon fill="#63b8ff" stroke="#63b8ff" points="338.88,-87.81 335.38,-77.81 331.88,-87.81 338.88,-87.81"/>
</a>
</g>
</g>
<!-- Node9 -->
<g id="Node000009" class="node">
<title>Node9</title>
<g id="a_Node000009"><a xlink:title=" ">
<polygon fill="#e0e0e0" stroke="#999999" points="436,-76 384.75,-76 384.75,-56 436,-56 436,-76"/>
<text xml:space="preserve" text-anchor="middle" x="410.38" y="-62.5" font-family="Helvetica,sans-Serif" font-size="10.00">sstream</text>
</a>
</g>
</g>
<!-- Node1&#45;&gt;Node9 -->
<g id="edge9_Node000001_Node000009" class="edge">
<title>Node1&#45;&gt;Node9</title>
<g id="a_edge9_Node000001_Node000009"><a xlink:title=" ">
<path fill="none" stroke="#63b8ff" d="M348.44,-111.59C359.34,-103.74 375.13,-92.38 388.03,-83.09"/>
<polygon fill="#63b8ff" stroke="#63b8ff" points="389.91,-86.05 395.98,-77.36 385.82,-80.37 389.91,-86.05"/>
</a>
</g>
</g>
<!-- Node10 -->
<g id="Node000010" class="node">
<title>Node10</title>
<g id="a_Node000010"><a xlink:title=" ">
<polygon fill="#e0e0e0" stroke="#999999" points="502.88,-76 453.88,-76 453.88,-56 502.88,-56 502.88,-76"/>
<text xml:space="preserve" text-anchor="middle" x="478.38" y="-62.5" font-family="Helvetica,sans-Serif" font-size="10.00">fstream</text>
</a>
</g>
</g>
<!-- Node1&#45;&gt;Node10 -->
<g id="edge10_Node000001_Node000010" class="edge">
<title>Node1&#45;&gt;Node10</title>
<g id="a_edge10_Node000001_Node000010"><a xlink:title=" ">
<path fill="none" stroke="#63b8ff" d="M360.28,-111.59C383.25,-102.92 417.57,-89.96 443.31,-80.24"/>
<polygon fill="#63b8ff" stroke="#63b8ff" points="444.22,-83.64 452.34,-76.83 441.74,-77.09 444.22,-83.64"/>
</a>
</g>
</g>
<!-- Node3 -->
<g id="Node000003" class="node">
<title>Node3</title>
<g id="a_Node000003"><a xlink:title=" ">
<polygon fill="#e0e0e0" stroke="#999999" points="204.38,-20 164.38,-20 164.38,0 204.38,0 204.38,-20"/>
<text xml:space="preserve" text-anchor="middle" x="184.38" y="-6.5" font-family="Helvetica,sans-Serif" font-size="10.00">string</text>
</a>
</g>
</g>
<!-- Node2&#45;&gt;Node3 -->
<g id="edge2_Node000002_Node000003" class="edge">
<title>Node2&#45;&gt;Node3</title>
<g id="a_edge2_Node000002_Node000003"><a xlink:title=" ">
<path fill="none" stroke="#63b8ff" d="M134,-55.59C142.66,-47.93 155.11,-36.91 165.46,-27.75"/>
<polygon fill="#63b8ff" stroke="#63b8ff" points="167.57,-30.55 172.74,-21.3 162.93,-25.31 167.57,-30.55"/>
</a>
</g>
</g>
<!-- Node4 -->
<g id="Node000004" class="node">
<title>Node4</title>
<g id="a_Node000004"><a xlink:title=" ">
<polygon fill="#e0e0e0" stroke="#999999" points="82.75,-20 0,-20 0,0 82.75,0 82.75,-20"/>
<text xml:space="preserve" text-anchor="middle" x="41.38" y="-6.5" font-family="Helvetica,sans-Serif" font-size="10.00">unordered_map</text>
</a>
</g>
</g>
<!-- Node2&#45;&gt;Node4 -->
<g id="edge3_Node000002_Node000004" class="edge">
<title>Node2&#45;&gt;Node4</title>
<g id="a_edge3_Node000002_Node000004"><a xlink:title=" ">
<path fill="none" stroke="#63b8ff" d="M109.09,-55.59C96.94,-47.59 79.24,-35.93 64.98,-26.54"/>
<polygon fill="#63b8ff" stroke="#63b8ff" points="67.31,-23.89 57.03,-21.31 63.46,-29.73 67.31,-23.89"/>
</a>
</g>
</g>
<!-- Node5 -->
<g id="Node000005" class="node">
<title>Node5</title>
<g id="a_Node000005"><a xlink:title=" ">
<polygon fill="#e0e0e0" stroke="#999999" points="146,-20 100.75,-20 100.75,0 146,0 146,-20"/>
<text xml:space="preserve" text-anchor="middle" x="123.38" y="-6.5" font-family="Helvetica,sans-Serif" font-size="10.00">cstdint</text>
</a>
</g>
</g>
<!-- Node2&#45;&gt;Node5 -->
<g id="edge4_Node000002_Node000005" class="edge">
<title>Node2&#45;&gt;Node5</title>
<g id="a_edge4_Node000002_Node000005"><a xlink:title=" ">
<path fill="none" stroke="#63b8ff" d="M123.38,-55.59C123.38,-49.01 123.38,-39.96 123.38,-31.73"/>
<polygon fill="#63b8ff" stroke="#63b8ff" points="126.88,-31.81 123.38,-21.81 119.88,-31.81 126.88,-31.81"/>
</a>
</g>
</g>
<!-- Node6&#45;&gt;Node3 -->
<g id="edge7_Node000006_Node000003" class="edge">
<title>Node6&#45;&gt;Node3</title>
<g id="a_edge7_Node000006_Node000003"><a xlink:title=" ">
<path fill="none" stroke="#63b8ff" d="M233.1,-55.59C224.81,-48.01 212.93,-37.13 202.97,-28.02"/>
<polygon fill="#63b8ff" stroke="#63b8ff" points="205.39,-25.49 195.65,-21.32 200.66,-30.65 205.39,-25.49"/>
</a>
</g>
</g>
<!-- Node7 -->
<g id="Node000007" class="node">
<title>Node7</title>
<g id="a_Node000007"><a xlink:title=" ">
<polygon fill="#e0e0e0" stroke="#999999" points="276.12,-20 222.62,-20 222.62,0 276.12,0 276.12,-20"/>
<text xml:space="preserve" text-anchor="middle" x="249.38" y="-6.5" font-family="Helvetica,sans-Serif" font-size="10.00">iostream</text>
</a>
</g>
</g>
<!-- Node6&#45;&gt;Node7 -->
<g id="edge6_Node000006_Node000007" class="edge">
<title>Node6&#45;&gt;Node7</title>
<g id="a_edge6_Node000006_Node000007"><a xlink:title=" ">
<path fill="none" stroke="#63b8ff" d="M244.42,-55.59C245.15,-49.01 246.16,-39.96 247.07,-31.73"/>
<polygon fill="#63b8ff" stroke="#63b8ff" points="250.55,-32.13 248.17,-21.8 243.59,-31.35 250.55,-32.13"/>
</a>
</g>
</g>
</g>
</svg>
