<?xml version="1.0" encoding="UTF-8" standalone="no"?>
<!DOCTYPE svg PUBLIC "-//W3C//DTD SVG 1.1//EN"
 "http://www.w3.org/Graphics/SVG/1.1/DTD/svg11.dtd">
<!-- Generated by graphviz version 14.0.2 (20251019.1705)
 -->
<!-- Title: Shader.h Pages: 1 -->
<svg width="744pt" height="252pt"
 viewBox="0.00 0.00 744.00 252.00" xmlns="http://www.w3.org/2000/svg" xmlns:xlink="http://www.w3.org/1999/xlink">
<g id="graph0" class="graph" transform="scale(1 1) rotate(0) translate(4 248)">
<title>Shader.h</title>
<!-- Node1 -->
<g id="Node000001" class="node">
<title>Node1</title>
<g id="a_Node000001"><a xlink:title=" ">
<polygon fill="#999999" stroke="#666666" points="469.12,-244 414.12,-244 414.12,-224 469.12,-224 469.12,-244"/>
<text xml:space="preserve" text-anchor="middle" x="441.62" y="-230.5" font-family="Helvetica,sans-Serif" font-size="10.00">Shader.h</text>
</a>
</g>
</g>
<!-- Node2 -->
<g id="Node000002" class="node">
<title>Node2</title>
<g id="a_Node000002"><a xlink:href="Material_8cpp.html" target="_top" xlink:title=" ">
<polygon fill="white" stroke="#666666" points="69.25,-132 0,-132 0,-112 69.25,-112 69.25,-132"/>
<text xml:space="preserve" text-anchor="middle" x="34.62" y="-118.5" font-family="Helvetica,sans-Serif" font-size="10.00">Material.cpp</text>
</a>
</g>
</g>
<!-- Node1&#45;&gt;Node2 -->
<g id="edge1_Node000001_Node000002" class="edge">
<title>Node1&#45;&gt;Node2</title>
<g id="a_edge1_Node000001_Node000002"><a xlink:title=" ">
<path fill="none" stroke="#63b8ff" d="M402.14,-232.48C342.54,-230.54 226.87,-222.23 135.62,-188 99.7,-174.52 63.24,-146.84 45.57,-132.33"/>
<polygon fill="#63b8ff" stroke="#63b8ff" points="402.03,-235.98 412.12,-232.76 402.22,-228.98 402.03,-235.98"/>
</a>
</g>
</g>
<!-- Node3 -->
<g id="Node000003" class="node">
<title>Node3</title>
<g id="a_Node000003"><a xlink:href="Material_8h.html" target="_top" xlink:title=" ">
<polygon fill="white" stroke="#666666" points="203,-188 144.25,-188 144.25,-168 203,-168 203,-188"/>
<text xml:space="preserve" text-anchor="middle" x="173.62" y="-174.5" font-family="Helvetica,sans-Serif" font-size="10.00">Material.h</text>
</a>
</g>
</g>
<!-- Node1&#45;&gt;Node3 -->
<g id="edge2_Node000001_Node000003" class="edge">
<title>Node1&#45;&gt;Node3</title>
<g id="a_edge2_Node000001_Node000003"><a xlink:title=" ">
<path fill="none" stroke="#63b8ff" d="M402.5,-225.12C348.31,-214.2 251.63,-194.72 203.11,-184.94"/>
<polygon fill="#63b8ff" stroke="#63b8ff" points="401.72,-228.53 412.22,-227.07 403.11,-221.67 401.72,-228.53"/>
</a>
</g>
</g>
<!-- Node7 -->
<g id="Node000007" class="node">
<title>Node7</title>
<g id="a_Node000007"><a xlink:href="main_8cpp.html" target="_top" xlink:title=" ">
<polygon fill="white" stroke="#666666" points="387.5,-20 331.75,-20 331.75,0 387.5,0 387.5,-20"/>
<text xml:space="preserve" text-anchor="middle" x="359.62" y="-6.5" font-family="Helvetica,sans-Serif" font-size="10.00">main.cpp</text>
</a>
</g>
</g>
<!-- Node1&#45;&gt;Node7 -->
<g id="edge18_Node000001_Node000007" class="edge">
<title>Node1&#45;&gt;Node7</title>
<g id="a_edge18_Node000001_Node000007"><a xlink:title=" ">
<path fill="none" stroke="#63b8ff" d="M461.68,-216.23C487.03,-192.89 525.17,-149.28 505.62,-112 480.51,-64.09 421.22,-34.4 386.41,-20.47"/>
<polygon fill="#63b8ff" stroke="#63b8ff" points="459.66,-213.35 454.49,-222.6 464.3,-218.59 459.66,-213.35"/>
</a>
</g>
</g>
<!-- Node9 -->
<g id="Node000009" class="node">
<title>Node9</title>
<g id="a_Node000009"><a xlink:href="MaterialInstance_8cpp.html" target="_top" xlink:title=" ">
<polygon fill="white" stroke="#666666" points="384,-76 277.25,-76 277.25,-56 384,-56 384,-76"/>
<text xml:space="preserve" text-anchor="middle" x="330.62" y="-62.5" font-family="Helvetica,sans-Serif" font-size="10.00">MaterialInstance.cpp</text>
</a>
</g>
</g>
<!-- Node1&#45;&gt;Node9 -->
<g id="edge12_Node000001_Node000009" class="edge">
<title>Node1&#45;&gt;Node9</title>
<g id="a_edge12_Node000001_Node000009"><a xlink:title=" ">
<path fill="none" stroke="#63b8ff" d="M425.44,-215.16C418.42,-207.11 410.31,-197.32 403.62,-188 375.18,-148.32 346.85,-97.22 335.64,-76.42"/>
<polygon fill="#63b8ff" stroke="#63b8ff" points="422.75,-217.41 432.01,-222.57 427.99,-212.77 422.75,-217.41"/>
</a>
</g>
</g>
<!-- Node10 -->
<g id="Node000010" class="node">
<title>Node10</title>
<g id="a_Node000010"><a xlink:href="SceneViewport_8cpp.html" target="_top" xlink:title=" ">
<polygon fill="white" stroke="#666666" points="653,-188 552.25,-188 552.25,-168 653,-168 653,-188"/>
<text xml:space="preserve" text-anchor="middle" x="602.62" y="-174.5" font-family="Helvetica,sans-Serif" font-size="10.00">SceneViewport.cpp</text>
</a>
</g>
</g>
<!-- Node1&#45;&gt;Node10 -->
<g id="edge13_Node000001_Node000010" class="edge">
<title>Node1&#45;&gt;Node10</title>
<g id="a_edge13_Node000001_Node000010"><a xlink:title=" ">
<path fill="none" stroke="#63b8ff" d="M479.89,-220.16C508.96,-210.42 548.28,-197.23 574.5,-188.43"/>
<polygon fill="#63b8ff" stroke="#63b8ff" points="479.1,-216.74 470.74,-223.24 481.33,-223.37 479.1,-216.74"/>
</a>
</g>
</g>
<!-- Node11 -->
<g id="Node000011" class="node">
<title>Node11</title>
<g id="a_Node000011"><a xlink:href="Shader_8cpp.html" target="_top" xlink:title=" ">
<polygon fill="white" stroke="#666666" points="736.38,-188 670.88,-188 670.88,-168 736.38,-168 736.38,-188"/>
<text xml:space="preserve" text-anchor="middle" x="703.62" y="-174.5" font-family="Helvetica,sans-Serif" font-size="10.00">Shader.cpp</text>
</a>
</g>
</g>
<!-- Node1&#45;&gt;Node11 -->
<g id="edge14_Node000001_Node000011" class="edge">
<title>Node1&#45;&gt;Node11</title>
<g id="a_edge14_Node000001_Node000011"><a xlink:title=" ">
<path fill="none" stroke="#63b8ff" d="M480.47,-225.17C524.45,-216.28 598.23,-201.28 661.62,-188 664.54,-187.39 667.58,-186.75 670.62,-186.1"/>
<polygon fill="#63b8ff" stroke="#63b8ff" points="480.02,-221.69 470.91,-227.1 481.4,-228.55 480.02,-221.69"/>
</a>
</g>
</g>
<!-- Node12 -->
<g id="Node000012" class="node">
<title>Node12</title>
<g id="a_Node000012"><a xlink:href="Skybox_8h.html" target="_top" xlink:title=" ">
<polygon fill="white" stroke="#666666" points="470.25,-188 413,-188 413,-168 470.25,-168 470.25,-188"/>
<text xml:space="preserve" text-anchor="middle" x="441.62" y="-174.5" font-family="Helvetica,sans-Serif" font-size="10.00">Skybox.h</text>
</a>
</g>
</g>
<!-- Node1&#45;&gt;Node12 -->
<g id="edge15_Node000001_Node000012" class="edge">
<title>Node1&#45;&gt;Node12</title>
<g id="a_edge15_Node000001_Node000012"><a xlink:title=" ">
<path fill="none" stroke="#63b8ff" d="M441.62,-212.13C441.62,-203.9 441.62,-194.85 441.62,-188.3"/>
<polygon fill="#63b8ff" stroke="#63b8ff" points="438.13,-212.08 441.63,-222.08 445.13,-212.08 438.13,-212.08"/>
</a>
</g>
</g>
<!-- Node3&#45;&gt;Node2 -->
<g id="edge3_Node000003_Node000002" class="edge">
<title>Node3&#45;&gt;Node2</title>
<g id="a_edge3_Node000003_Node000002"><a xlink:title=" ">
<path fill="none" stroke="#63b8ff" d="M138.96,-163.53C114.08,-153.87 81.18,-141.08 59.03,-132.48"/>
<polygon fill="#63b8ff" stroke="#63b8ff" points="137.41,-166.69 148,-167.05 139.95,-160.16 137.41,-166.69"/>
</a>
</g>
</g>
<!-- Node4 -->
<g id="Node000004" class="node">
<title>Node4</title>
<g id="a_Node000004"><a xlink:href="MaterialComponent_8h.html" target="_top" xlink:title=" ">
<polygon fill="white" stroke="#666666" points="221.12,-76 112.12,-76 112.12,-56 221.12,-56 221.12,-76"/>
<text xml:space="preserve" text-anchor="middle" x="166.62" y="-62.5" font-family="Helvetica,sans-Serif" font-size="10.00">MaterialComponent.h</text>
</a>
</g>
</g>
<!-- Node3&#45;&gt;Node4 -->
<g id="edge4_Node000003_Node000004" class="edge">
<title>Node3&#45;&gt;Node4</title>
<g id="a_edge4_Node000003_Node000004"><a xlink:title=" ">
<path fill="none" stroke="#63b8ff" d="M144.44,-161.55C133.63,-154.17 122.56,-144.25 116.62,-132 106.01,-110.09 131.88,-88.45 150.24,-76.49"/>
<polygon fill="#63b8ff" stroke="#63b8ff" points="142.52,-164.48 152.86,-166.8 146.23,-158.54 142.52,-164.48"/>
</a>
</g>
</g>
<!-- Node3&#45;&gt;Node7 -->
<g id="edge11_Node000003_Node000007" class="edge">
<title>Node3&#45;&gt;Node7</title>
<g id="a_edge11_Node000003_Node000007"><a xlink:title=" ">
<path fill="none" stroke="#63b8ff" d="M198.39,-161.13C209.24,-153.31 221.55,-143.16 230.62,-132 254.46,-102.71 241.86,-82.64 268.62,-56 286.11,-38.59 311.69,-26.76 331.28,-19.62"/>
<polygon fill="#63b8ff" stroke="#63b8ff" points="196.46,-158.21 190.21,-166.77 200.43,-163.97 196.46,-158.21"/>
</a>
</g>
</g>
<!-- Node8 -->
<g id="Node000008" class="node">
<title>Node8</title>
<g id="a_Node000008"><a xlink:href="MaterialInstance_8h.html" target="_top" xlink:title=" ">
<polygon fill="white" stroke="#666666" points="221.75,-132 125.5,-132 125.5,-112 221.75,-112 221.75,-132"/>
<text xml:space="preserve" text-anchor="middle" x="173.62" y="-118.5" font-family="Helvetica,sans-Serif" font-size="10.00">MaterialInstance.h</text>
</a>
</g>
</g>
<!-- Node3&#45;&gt;Node8 -->
<g id="edge8_Node000003_Node000008" class="edge">
<title>Node3&#45;&gt;Node8</title>
<g id="a_edge8_Node000003_Node000008"><a xlink:title=" ">
<path fill="none" stroke="#63b8ff" d="M173.62,-156.13C173.62,-147.9 173.62,-138.85 173.62,-132.3"/>
<polygon fill="#63b8ff" stroke="#63b8ff" points="170.13,-156.08 173.63,-166.08 177.13,-156.08 170.13,-156.08"/>
</a>
</g>
</g>
<!-- Node5 -->
<g id="Node000005" class="node">
<title>Node5</title>
<g id="a_Node000005"><a xlink:href="Inspector_8cpp.html" target="_top" xlink:title=" ">
<polygon fill="white" stroke="#666666" points="262.25,-20 187,-20 187,0 262.25,0 262.25,-20"/>
<text xml:space="preserve" text-anchor="middle" x="224.62" y="-6.5" font-family="Helvetica,sans-Serif" font-size="10.00">Inspector.cpp</text>
</a>
</g>
</g>
<!-- Node4&#45;&gt;Node5 -->
<g id="edge5_Node000004_Node000005" class="edge">
<title>Node4&#45;&gt;Node5</title>
<g id="a_edge5_Node000004_Node000005"><a xlink:title=" ">
<path fill="none" stroke="#63b8ff" d="M185.05,-47.85C194.85,-38.72 206.52,-27.86 214.64,-20.3"/>
<polygon fill="#63b8ff" stroke="#63b8ff" points="182.77,-45.19 177.84,-54.56 187.54,-50.31 182.77,-45.19"/>
</a>
</g>
</g>
<!-- Node6 -->
<g id="Node000006" class="node">
<title>Node6</title>
<g id="a_Node000006"><a xlink:href="MaterialComponent_8cpp.html" target="_top" xlink:title=" ">
<polygon fill="white" stroke="#666666" points="169.38,-20 49.88,-20 49.88,0 169.38,0 169.38,-20"/>
<text xml:space="preserve" text-anchor="middle" x="109.62" y="-6.5" font-family="Helvetica,sans-Serif" font-size="10.00">MaterialComponent.cpp</text>
</a>
</g>
</g>
<!-- Node4&#45;&gt;Node6 -->
<g id="edge6_Node000004_Node000006" class="edge">
<title>Node4&#45;&gt;Node6</title>
<g id="a_edge6_Node000004_Node000006"><a xlink:title=" ">
<path fill="none" stroke="#63b8ff" d="M148.52,-47.85C138.89,-38.72 127.42,-27.86 119.44,-20.3"/>
<polygon fill="#63b8ff" stroke="#63b8ff" points="145.93,-50.22 155.6,-54.55 150.75,-45.13 145.93,-50.22"/>
</a>
</g>
</g>
<!-- Node4&#45;&gt;Node7 -->
<g id="edge7_Node000004_Node000007" class="edge">
<title>Node4&#45;&gt;Node7</title>
<g id="a_edge7_Node000004_Node000007"><a xlink:title=" ">
<path fill="none" stroke="#63b8ff" d="M211.23,-52.52C248.28,-42.15 299.84,-27.73 331.41,-18.9"/>
<polygon fill="#63b8ff" stroke="#63b8ff" points="210.39,-49.12 201.7,-55.19 212.27,-55.86 210.39,-49.12"/>
</a>
</g>
</g>
<!-- Node8&#45;&gt;Node4 -->
<g id="edge9_Node000008_Node000004" class="edge">
<title>Node8&#45;&gt;Node4</title>
<g id="a_edge9_Node000008_Node000004"><a xlink:title=" ">
<path fill="none" stroke="#63b8ff" d="M170.96,-100.43C169.88,-92.11 168.69,-82.93 167.83,-76.3"/>
<polygon fill="#63b8ff" stroke="#63b8ff" points="167.45,-100.63 172.21,-110.09 174.4,-99.73 167.45,-100.63"/>
</a>
</g>
</g>
<!-- Node8&#45;&gt;Node9 -->
<g id="edge10_Node000008_Node000009" class="edge">
<title>Node8&#45;&gt;Node9</title>
<g id="a_edge10_Node000008_Node000009"><a xlink:title=" ">
<path fill="none" stroke="#63b8ff" d="M211.65,-107.92C239.88,-98.21 277.71,-85.2 303.06,-76.48"/>
<polygon fill="#63b8ff" stroke="#63b8ff" points="210.72,-104.54 202.4,-111.1 213,-111.16 210.72,-104.54"/>
</a>
</g>
</g>
<!-- Node12&#45;&gt;Node7 -->
<g id="edge17_Node000012_Node000007" class="edge">
<title>Node12&#45;&gt;Node7</title>
<g id="a_edge17_Node000012_Node000007"><a xlink:title=" ">
<path fill="none" stroke="#63b8ff" d="M431.65,-157.82C427.7,-149.91 423.24,-140.61 419.62,-132 405.73,-98.96 409.4,-87.68 392.62,-56 385.64,-42.82 375.12,-29.21 367.84,-20.46"/>
<polygon fill="#63b8ff" stroke="#63b8ff" points="428.41,-159.17 436.07,-166.49 434.65,-155.99 428.41,-159.17"/>
</a>
</g>
</g>
<!-- Node13 -->
<g id="Node000013" class="node">
<title>Node13</title>
<g id="a_Node000013"><a xlink:href="Skybox_8cpp.html" target="_top" xlink:title=" ">
<polygon fill="white" stroke="#666666" points="496.5,-132 428.75,-132 428.75,-112 496.5,-112 496.5,-132"/>
<text xml:space="preserve" text-anchor="middle" x="462.62" y="-118.5" font-family="Helvetica,sans-Serif" font-size="10.00">Skybox.cpp</text>
</a>
</g>
</g>
<!-- Node12&#45;&gt;Node13 -->
<g id="edge16_Node000012_Node000013" class="edge">
<title>Node12&#45;&gt;Node13</title>
<g id="a_edge16_Node000012_Node000013"><a xlink:title=" ">
<path fill="none" stroke="#63b8ff" d="M449.4,-157C452.69,-148.54 456.37,-139.08 459.01,-132.3"/>
<polygon fill="#63b8ff" stroke="#63b8ff" points="446.19,-155.59 445.83,-166.18 452.72,-158.13 446.19,-155.59"/>
</a>
</g>
</g>
</g>
</svg>
