<?xml version="1.0" encoding="UTF-8" standalone="no"?>
<!DOCTYPE svg PUBLIC "-//W3C//DTD SVG 1.1//EN"
 "http://www.w3.org/Graphics/SVG/1.1/DTD/svg11.dtd">
<!-- Generated by graphviz version 14.0.2 (20251019.1705)
 -->
<!-- Title: Skybox.h Pages: 1 -->
<svg width="848pt" height="196pt"
 viewBox="0.00 0.00 848.00 196.00" xmlns="http://www.w3.org/2000/svg" xmlns:xlink="http://www.w3.org/1999/xlink">
<g id="graph0" class="graph" transform="scale(1 1) rotate(0) translate(4 192)">
<title>Skybox.h</title>
<!-- Node1 -->
<g id="Node000001" class="node">
<title>Node1</title>
<g id="a_Node000001"><a xlink:title=" ">
<polygon fill="#999999" stroke="#666666" points="494.75,-188 437.5,-188 437.5,-168 494.75,-168 494.75,-188"/>
<text xml:space="preserve" text-anchor="middle" x="466.12" y="-174.5" font-family="Helvetica,sans-Serif" font-size="10.00">Skybox.h</text>
</a>
</g>
</g>
<!-- Node2 -->
<g id="Node000002" class="node">
<title>Node2</title>
<g id="a_Node000002"><a xlink:href="Shader_8h.html" target="_top" xlink:title=" ">
<polygon fill="white" stroke="#666666" points="120.25,-132 0,-132 0,-112 120.25,-112 120.25,-132"/>
<text xml:space="preserve" text-anchor="middle" x="60.12" y="-118.5" font-family="Helvetica,sans-Serif" font-size="10.00">LGE/rendering/Shader.h</text>
</a>
</g>
</g>
<!-- Node1&#45;&gt;Node2 -->
<g id="edge1_Node000001_Node000002" class="edge">
<title>Node1&#45;&gt;Node2</title>
<g id="a_edge1_Node000001_Node000002"><a xlink:title=" ">
<path fill="none" stroke="#63b8ff" d="M437.25,-173.16C374.19,-164.77 222.54,-144.6 131.93,-132.55"/>
<polygon fill="#63b8ff" stroke="#63b8ff" points="132.52,-129.1 122.14,-131.25 131.6,-136.04 132.52,-129.1"/>
</a>
</g>
</g>
<!-- Node3 -->
<g id="Node000003" class="node">
<title>Node3</title>
<g id="a_Node000003"><a xlink:title=" ">
<polygon fill="#e0e0e0" stroke="#999999" points="168.12,-76 128.12,-76 128.12,-56 168.12,-56 168.12,-76"/>
<text xml:space="preserve" text-anchor="middle" x="148.12" y="-62.5" font-family="Helvetica,sans-Serif" font-size="10.00">string</text>
</a>
</g>
</g>
<!-- Node1&#45;&gt;Node3 -->
<g id="edge18_Node000001_Node000003" class="edge">
<title>Node1&#45;&gt;Node3</title>
<g id="a_edge18_Node000001_Node000003"><a xlink:title=" ">
<path fill="none" stroke="#63b8ff" d="M437.16,-176.49C370.14,-174.73 207.06,-166.88 167.12,-132 154.52,-120.99 150.06,-102.14 148.58,-87.56"/>
<polygon fill="#63b8ff" stroke="#63b8ff" points="152.08,-87.45 148.01,-77.67 145.09,-87.85 152.08,-87.45"/>
</a>
</g>
</g>
<!-- Node6 -->
<g id="Node000006" class="node">
<title>Node6</title>
<g id="a_Node000006"><a xlink:href="VertexBuffer_8h.html" target="_top" xlink:title=" ">
<polygon fill="white" stroke="#666666" points="458.5,-132 315.75,-132 315.75,-112 458.5,-112 458.5,-132"/>
<text xml:space="preserve" text-anchor="middle" x="387.12" y="-118.5" font-family="Helvetica,sans-Serif" font-size="10.00">LGE/rendering/VertexBuffer.h</text>
</a>
</g>
</g>
<!-- Node1&#45;&gt;Node6 -->
<g id="edge5_Node000001_Node000006" class="edge">
<title>Node1&#45;&gt;Node6</title>
<g id="a_edge5_Node000001_Node000006"><a xlink:title=" ">
<path fill="none" stroke="#63b8ff" d="M452.36,-167.59C440.77,-159.67 423.93,-148.16 410.26,-138.82"/>
<polygon fill="#63b8ff" stroke="#63b8ff" points="412.47,-136.09 402.24,-133.33 408.52,-141.87 412.47,-136.09"/>
</a>
</g>
</g>
<!-- Node7 -->
<g id="Node000007" class="node">
<title>Node7</title>
<g id="a_Node000007"><a xlink:href="VertexArray_8h.html" target="_top" xlink:title=" ">
<polygon fill="white" stroke="#666666" points="616,-132 476.25,-132 476.25,-112 616,-112 616,-132"/>
<text xml:space="preserve" text-anchor="middle" x="546.12" y="-118.5" font-family="Helvetica,sans-Serif" font-size="10.00">LGE/rendering/VertexArray.h</text>
</a>
</g>
</g>
<!-- Node1&#45;&gt;Node7 -->
<g id="edge7_Node000001_Node000007" class="edge">
<title>Node1&#45;&gt;Node7</title>
<g id="a_edge7_Node000001_Node000007"><a xlink:title=" ">
<path fill="none" stroke="#63b8ff" d="M480.06,-167.59C491.8,-159.67 508.86,-148.16 522.69,-138.82"/>
<polygon fill="#63b8ff" stroke="#63b8ff" points="524.5,-141.82 530.83,-133.33 520.58,-136.02 524.5,-141.82"/>
</a>
</g>
</g>
<!-- Node8 -->
<g id="Node000008" class="node">
<title>Node8</title>
<g id="a_Node000008"><a xlink:href="Texture_8h.html" target="_top" xlink:title=" ">
<polygon fill="white" stroke="#666666" points="298,-132 176.25,-132 176.25,-112 298,-112 298,-132"/>
<text xml:space="preserve" text-anchor="middle" x="237.12" y="-118.5" font-family="Helvetica,sans-Serif" font-size="10.00">LGE/rendering/Texture.h</text>
</a>
</g>
</g>
<!-- Node1&#45;&gt;Node8 -->
<g id="edge9_Node000001_Node000008" class="edge">
<title>Node1&#45;&gt;Node8</title>
<g id="a_edge9_Node000001_Node000008"><a xlink:title=" ">
<path fill="none" stroke="#63b8ff" d="M437.12,-170.16C399.73,-161.34 334.08,-145.86 288.23,-135.05"/>
<polygon fill="#63b8ff" stroke="#63b8ff" points="289.04,-131.65 278.51,-132.76 287.44,-138.46 289.04,-131.65"/>
</a>
</g>
</g>
<!-- Node9 -->
<g id="Node000009" class="node">
<title>Node9</title>
<g id="a_Node000009"><a xlink:href="Vector_8h.html" target="_top" xlink:title=" ">
<polygon fill="white" stroke="#666666" points="693.75,-76 594.5,-76 594.5,-56 693.75,-56 693.75,-76"/>
<text xml:space="preserve" text-anchor="middle" x="644.12" y="-62.5" font-family="Helvetica,sans-Serif" font-size="10.00">LGE/math/Vector.h</text>
</a>
</g>
</g>
<!-- Node1&#45;&gt;Node9 -->
<g id="edge12_Node000001_Node000009" class="edge">
<title>Node1&#45;&gt;Node9</title>
<g id="a_edge12_Node000001_Node000009"><a xlink:title=" ">
<path fill="none" stroke="#63b8ff" d="M495.24,-176.85C530.7,-175.06 590.19,-166.64 625.12,-132 636.88,-120.35 641.45,-101.86 643.19,-87.57"/>
<polygon fill="#63b8ff" stroke="#63b8ff" points="646.65,-88.14 643.97,-77.89 639.67,-87.57 646.65,-88.14"/>
</a>
</g>
</g>
<!-- Node11 -->
<g id="Node000011" class="node">
<title>Node11</title>
<g id="a_Node000011"><a xlink:href="Matrix_8h.html" target="_top" xlink:title=" ">
<polygon fill="white" stroke="#666666" points="770.38,-132 671.88,-132 671.88,-112 770.38,-112 770.38,-132"/>
<text xml:space="preserve" text-anchor="middle" x="721.12" y="-118.5" font-family="Helvetica,sans-Serif" font-size="10.00">LGE/math/Matrix.h</text>
</a>
</g>
</g>
<!-- Node1&#45;&gt;Node11 -->
<g id="edge14_Node000001_Node000011" class="edge">
<title>Node1&#45;&gt;Node11</title>
<g id="a_edge14_Node000001_Node000011"><a xlink:title=" ">
<path fill="none" stroke="#63b8ff" d="M494.88,-170.91C536.14,-162.17 612.94,-145.91 665.52,-134.78"/>
<polygon fill="#63b8ff" stroke="#63b8ff" points="666.14,-138.22 675.19,-132.73 664.69,-131.37 666.14,-138.22"/>
</a>
</g>
</g>
<!-- Node13 -->
<g id="Node000013" class="node">
<title>Node13</title>
<g id="a_Node000013"><a xlink:title=" ">
<polygon fill="#e0e0e0" stroke="#999999" points="839.75,-132 788.5,-132 788.5,-112 839.75,-112 839.75,-132"/>
<text xml:space="preserve" text-anchor="middle" x="814.12" y="-118.5" font-family="Helvetica,sans-Serif" font-size="10.00">memory</text>
</a>
</g>
</g>
<!-- Node1&#45;&gt;Node13 -->
<g id="edge17_Node000001_Node000013" class="edge">
<title>Node1&#45;&gt;Node13</title>
<g id="a_edge17_Node000001_Node000013"><a xlink:title=" ">
<path fill="none" stroke="#63b8ff" d="M495.22,-173.89C548.89,-167.92 667.28,-153.7 776.94,-132.24"/>
<polygon fill="#63b8ff" stroke="#63b8ff" points="777.59,-135.68 786.72,-130.3 776.23,-128.81 777.59,-135.68"/>
</a>
</g>
</g>
<!-- Node2&#45;&gt;Node3 -->
<g id="edge2_Node000002_Node000003" class="edge">
<title>Node2&#45;&gt;Node3</title>
<g id="a_edge2_Node000002_Node000003"><a xlink:title=" ">
<path fill="none" stroke="#63b8ff" d="M75.45,-111.59C88.62,-103.51 107.86,-91.71 123.23,-82.27"/>
<polygon fill="#63b8ff" stroke="#63b8ff" points="124.69,-85.48 131.39,-77.27 121.03,-79.52 124.69,-85.48"/>
</a>
</g>
</g>
<!-- Node4 -->
<g id="Node000004" class="node">
<title>Node4</title>
<g id="a_Node000004"><a xlink:title=" ">
<polygon fill="#e0e0e0" stroke="#999999" points="101.5,-76 18.75,-76 18.75,-56 101.5,-56 101.5,-76"/>
<text xml:space="preserve" text-anchor="middle" x="60.12" y="-62.5" font-family="Helvetica,sans-Serif" font-size="10.00">unordered_map</text>
</a>
</g>
</g>
<!-- Node2&#45;&gt;Node4 -->
<g id="edge3_Node000002_Node000004" class="edge">
<title>Node2&#45;&gt;Node4</title>
<g id="a_edge3_Node000002_Node000004"><a xlink:title=" ">
<path fill="none" stroke="#63b8ff" d="M60.12,-111.59C60.12,-105.01 60.12,-95.96 60.12,-87.73"/>
<polygon fill="#63b8ff" stroke="#63b8ff" points="63.63,-87.81 60.13,-77.81 56.63,-87.81 63.63,-87.81"/>
</a>
</g>
</g>
<!-- Node5 -->
<g id="Node000005" class="node">
<title>Node5</title>
<g id="a_Node000005"><a xlink:title=" ">
<polygon fill="#e0e0e0" stroke="#999999" points="334.75,-76 289.5,-76 289.5,-56 334.75,-56 334.75,-76"/>
<text xml:space="preserve" text-anchor="middle" x="312.12" y="-62.5" font-family="Helvetica,sans-Serif" font-size="10.00">cstdint</text>
</a>
</g>
</g>
<!-- Node2&#45;&gt;Node5 -->
<g id="edge4_Node000002_Node000005" class="edge">
<title>Node2&#45;&gt;Node5</title>
<g id="a_edge4_Node000002_Node000005"><a xlink:title=" ">
<path fill="none" stroke="#63b8ff" d="M104.31,-111.53C153.81,-100.93 232.99,-83.96 277.97,-74.32"/>
<polygon fill="#63b8ff" stroke="#63b8ff" points="278.64,-77.75 287.68,-72.24 277.17,-70.91 278.64,-77.75"/>
</a>
</g>
</g>
<!-- Node6&#45;&gt;Node5 -->
<g id="edge6_Node000006_Node000005" class="edge">
<title>Node6&#45;&gt;Node5</title>
<g id="a_edge6_Node000006_Node000005"><a xlink:title=" ">
<path fill="none" stroke="#63b8ff" d="M374.06,-111.59C363.16,-103.74 347.37,-92.38 334.47,-83.09"/>
<polygon fill="#63b8ff" stroke="#63b8ff" points="336.68,-80.37 326.52,-77.36 332.59,-86.05 336.68,-80.37"/>
</a>
</g>
</g>
<!-- Node7&#45;&gt;Node5 -->
<g id="edge8_Node000007_Node000005" class="edge">
<title>Node7&#45;&gt;Node5</title>
<g id="a_edge8_Node000007_Node000005"><a xlink:title=" ">
<path fill="none" stroke="#63b8ff" d="M505.1,-111.53C459.93,-101.11 388.15,-84.54 346.04,-74.83"/>
<polygon fill="#63b8ff" stroke="#63b8ff" points="347,-71.46 336.47,-72.62 345.42,-78.28 347,-71.46"/>
</a>
</g>
</g>
<!-- Node8&#45;&gt;Node3 -->
<g id="edge11_Node000008_Node000003" class="edge">
<title>Node8&#45;&gt;Node3</title>
<g id="a_edge11_Node000008_Node000003"><a xlink:title=" ">
<path fill="none" stroke="#63b8ff" d="M221.62,-111.59C208.3,-103.51 188.85,-91.71 173.3,-82.27"/>
<polygon fill="#63b8ff" stroke="#63b8ff" points="175.41,-79.46 165.04,-77.26 171.78,-85.44 175.41,-79.46"/>
</a>
</g>
</g>
<!-- Node8&#45;&gt;Node5 -->
<g id="edge10_Node000008_Node000005" class="edge">
<title>Node8&#45;&gt;Node5</title>
<g id="a_edge10_Node000008_Node000005"><a xlink:title=" ">
<path fill="none" stroke="#63b8ff" d="M250.19,-111.59C261.09,-103.74 276.88,-92.38 289.78,-83.09"/>
<polygon fill="#63b8ff" stroke="#63b8ff" points="291.66,-86.05 297.73,-77.36 287.57,-80.37 291.66,-86.05"/>
</a>
</g>
</g>
<!-- Node10 -->
<g id="Node000010" class="node">
<title>Node10</title>
<g id="a_Node000010"><a xlink:title=" ">
<polygon fill="#e0e0e0" stroke="#999999" points="665.62,-20 622.62,-20 622.62,0 665.62,0 665.62,-20"/>
<text xml:space="preserve" text-anchor="middle" x="644.12" y="-6.5" font-family="Helvetica,sans-Serif" font-size="10.00">cmath</text>
</a>
</g>
</g>
<!-- Node9&#45;&gt;Node10 -->
<g id="edge13_Node000009_Node000010" class="edge">
<title>Node9&#45;&gt;Node10</title>
<g id="a_edge13_Node000009_Node000010"><a xlink:title=" ">
<path fill="none" stroke="#63b8ff" d="M644.12,-55.59C644.12,-49.01 644.12,-39.96 644.12,-31.73"/>
<polygon fill="#63b8ff" stroke="#63b8ff" points="647.63,-31.81 644.13,-21.81 640.63,-31.81 647.63,-31.81"/>
</a>
</g>
</g>
<!-- Node11&#45;&gt;Node9 -->
<g id="edge15_Node000011_Node000009" class="edge">
<title>Node11&#45;&gt;Node9</title>
<g id="a_edge15_Node000011_Node000009"><a xlink:title=" ">
<path fill="none" stroke="#63b8ff" d="M707.71,-111.59C696.52,-103.74 680.31,-92.38 667.07,-83.09"/>
<polygon fill="#63b8ff" stroke="#63b8ff" points="669.08,-80.22 658.88,-77.35 665.06,-85.96 669.08,-80.22"/>
</a>
</g>
</g>
<!-- Node12 -->
<g id="Node000012" class="node">
<title>Node12</title>
<g id="a_Node000012"><a xlink:title=" ">
<polygon fill="#e0e0e0" stroke="#999999" points="750,-76 712.25,-76 712.25,-56 750,-56 750,-76"/>
<text xml:space="preserve" text-anchor="middle" x="731.12" y="-62.5" font-family="Helvetica,sans-Serif" font-size="10.00">array</text>
</a>
</g>
</g>
<!-- Node11&#45;&gt;Node12 -->
<g id="edge16_Node000011_Node000012" class="edge">
<title>Node11&#45;&gt;Node12</title>
<g id="a_edge16_Node000011_Node000012"><a xlink:title=" ">
<path fill="none" stroke="#63b8ff" d="M722.87,-111.59C724.1,-104.93 725.8,-95.75 727.34,-87.44"/>
<polygon fill="#63b8ff" stroke="#63b8ff" points="730.75,-88.26 729.13,-77.79 723.87,-86.98 730.75,-88.26"/>
</a>
</g>
</g>
</g>
</svg>
