<?xml version="1.0" encoding="UTF-8" standalone="no"?>
<!DOCTYPE svg PUBLIC "-//W3C//DTD SVG 1.1//EN"
 "http://www.w3.org/Graphics/SVG/1.1/DTD/svg11.dtd">
<!-- Generated by graphviz version 14.0.2 (20251019.1705)
 -->
<!-- Title: SplashScreen.cpp Pages: 1 -->
<svg width="584pt" height="140pt"
 viewBox="0.00 0.00 584.00 140.00" xmlns="http://www.w3.org/2000/svg" xmlns:xlink="http://www.w3.org/1999/xlink">
<g id="graph0" class="graph" transform="scale(1 1) rotate(0) translate(4 136)">
<title>SplashScreen.cpp</title>
<!-- Node1 -->
<g id="Node000001" class="node">
<title>Node1</title>
<g id="a_Node000001"><a xlink:title=" ">
<polygon fill="#999999" stroke="#666666" points="386.62,-132 291.12,-132 291.12,-112 386.62,-112 386.62,-132"/>
<text xml:space="preserve" text-anchor="middle" x="338.88" y="-118.5" font-family="Helvetica,sans-Serif" font-size="10.00">SplashScreen.cpp</text>
</a>
</g>
</g>
<!-- Node2 -->
<g id="Node000002" class="node">
<title>Node2</title>
<g id="a_Node000002"><a xlink:href="SplashScreen_8h.html" target="_top" xlink:title=" ">
<polygon fill="white" stroke="#666666" points="397.88,-76 279.88,-76 279.88,-56 397.88,-56 397.88,-76"/>
<text xml:space="preserve" text-anchor="middle" x="338.88" y="-62.5" font-family="Helvetica,sans-Serif" font-size="10.00">LGE/ui/SplashScreen.h</text>
</a>
</g>
</g>
<!-- Node1&#45;&gt;Node2 -->
<g id="edge1_Node000001_Node000002" class="edge">
<title>Node1&#45;&gt;Node2</title>
<g id="a_edge1_Node000001_Node000002"><a xlink:title=" ">
<path fill="none" stroke="#63b8ff" d="M338.88,-111.59C338.88,-105.01 338.88,-95.96 338.88,-87.73"/>
<polygon fill="#63b8ff" stroke="#63b8ff" points="342.38,-87.81 338.88,-77.81 335.38,-87.81 342.38,-87.81"/>
</a>
</g>
</g>
<!-- Node3 -->
<g id="Node000003" class="node">
<title>Node3</title>
<g id="a_Node000003"><a xlink:title=" ">
<polygon fill="#e0e0e0" stroke="#999999" points="171.88,-20 131.88,-20 131.88,0 171.88,0 171.88,-20"/>
<text xml:space="preserve" text-anchor="middle" x="151.88" y="-6.5" font-family="Helvetica,sans-Serif" font-size="10.00">string</text>
</a>
</g>
</g>
<!-- Node1&#45;&gt;Node3 -->
<g id="edge14_Node000001_Node000003" class="edge">
<title>Node1&#45;&gt;Node3</title>
<g id="a_edge14_Node000001_Node000003"><a xlink:title=" ">
<path fill="none" stroke="#63b8ff" d="M290.67,-120.82C252.61,-118.04 200.78,-108 168.88,-76 157.28,-64.37 153.3,-45.88 152.06,-31.59"/>
<polygon fill="#63b8ff" stroke="#63b8ff" points="155.57,-31.73 151.63,-21.9 148.58,-32.04 155.57,-31.73"/>
</a>
</g>
</g>
<!-- Node5 -->
<g id="Node000005" class="node">
<title>Node5</title>
<g id="a_Node000005"><a xlink:title=" ">
<polygon fill="#e0e0e0" stroke="#999999" points="436.38,-20 393.38,-20 393.38,0 436.38,0 436.38,-20"/>
<text xml:space="preserve" text-anchor="middle" x="414.88" y="-6.5" font-family="Helvetica,sans-Serif" font-size="10.00">vector</text>
</a>
</g>
</g>
<!-- Node1&#45;&gt;Node5 -->
<g id="edge13_Node000001_Node000005" class="edge">
<title>Node1&#45;&gt;Node5</title>
<g id="a_edge13_Node000001_Node000005"><a xlink:title=" ">
<path fill="none" stroke="#63b8ff" d="M362.68,-111.56C377.91,-104.22 396.67,-92.49 406.88,-76 415.04,-62.81 416.77,-45.22 416.61,-31.67"/>
<polygon fill="#63b8ff" stroke="#63b8ff" points="420.11,-31.5 416.1,-21.7 413.12,-31.86 420.11,-31.5"/>
</a>
</g>
</g>
<!-- Node6 -->
<g id="Node000006" class="node">
<title>Node6</title>
<g id="a_Node000006"><a xlink:href="Texture_8h.html" target="_top" xlink:title=" ">
<polygon fill="white" stroke="#666666" points="121.75,-76 0,-76 0,-56 121.75,-56 121.75,-76"/>
<text xml:space="preserve" text-anchor="middle" x="60.88" y="-62.5" font-family="Helvetica,sans-Serif" font-size="10.00">LGE/rendering/Texture.h</text>
</a>
</g>
</g>
<!-- Node1&#45;&gt;Node6 -->
<g id="edge5_Node000001_Node000006" class="edge">
<title>Node1&#45;&gt;Node6</title>
<g id="a_edge5_Node000001_Node000006"><a xlink:title=" ">
<path fill="none" stroke="#63b8ff" d="M290.77,-111.66C243.52,-102.48 171.33,-88.46 120.48,-78.58"/>
<polygon fill="#63b8ff" stroke="#63b8ff" points="121.29,-75.17 110.81,-76.7 119.96,-82.04 121.29,-75.17"/>
</a>
</g>
</g>
<!-- Node8 -->
<g id="Node000008" class="node">
<title>Node8</title>
<g id="a_Node000008"><a xlink:href="Log_8h.html" target="_top" xlink:title=" ">
<polygon fill="white" stroke="#666666" points="262,-76 177.75,-76 177.75,-56 262,-56 262,-76"/>
<text xml:space="preserve" text-anchor="middle" x="219.88" y="-62.5" font-family="Helvetica,sans-Serif" font-size="10.00">LGE/core/Log.h</text>
</a>
</g>
</g>
<!-- Node1&#45;&gt;Node8 -->
<g id="edge8_Node000001_Node000008" class="edge">
<title>Node1&#45;&gt;Node8</title>
<g id="a_edge8_Node000001_Node000008"><a xlink:title=" ">
<path fill="none" stroke="#63b8ff" d="M318.15,-111.59C299.66,-103.21 272.33,-90.8 251.18,-81.21"/>
<polygon fill="#63b8ff" stroke="#63b8ff" points="252.7,-78.05 242.14,-77.1 249.8,-84.42 252.7,-78.05"/>
</a>
</g>
</g>
<!-- Node10 -->
<g id="Node000010" class="node">
<title>Node10</title>
<g id="a_Node000010"><a xlink:title=" ">
<polygon fill="#e0e0e0" stroke="#999999" points="501.62,-76 454.12,-76 454.12,-56 501.62,-56 501.62,-76"/>
<text xml:space="preserve" text-anchor="middle" x="477.88" y="-62.5" font-family="Helvetica,sans-Serif" font-size="10.00">imgui.h</text>
</a>
</g>
</g>
<!-- Node1&#45;&gt;Node10 -->
<g id="edge11_Node000001_Node000010" class="edge">
<title>Node1&#45;&gt;Node10</title>
<g id="a_edge11_Node000001_Node000010"><a xlink:title=" ">
<path fill="none" stroke="#63b8ff" d="M363.09,-111.59C385.31,-102.96 418.48,-90.08 443.45,-80.37"/>
<polygon fill="#63b8ff" stroke="#63b8ff" points="444.48,-83.73 452.53,-76.85 441.94,-77.21 444.48,-83.73"/>
</a>
</g>
</g>
<!-- Node11 -->
<g id="Node000011" class="node">
<title>Node11</title>
<g id="a_Node000011"><a xlink:title=" ">
<polygon fill="#e0e0e0" stroke="#999999" points="575.75,-76 520,-76 520,-56 575.75,-56 575.75,-76"/>
<text xml:space="preserve" text-anchor="middle" x="547.88" y="-62.5" font-family="Helvetica,sans-Serif" font-size="10.00">algorithm</text>
</a>
</g>
</g>
<!-- Node1&#45;&gt;Node11 -->
<g id="edge12_Node000001_Node000011" class="edge">
<title>Node1&#45;&gt;Node11</title>
<g id="a_edge12_Node000001_Node000011"><a xlink:title=" ">
<path fill="none" stroke="#63b8ff" d="M375.28,-111.59C412.64,-101.94 470.57,-86.97 508.86,-77.08"/>
<polygon fill="#63b8ff" stroke="#63b8ff" points="509.31,-80.58 518.12,-74.69 507.56,-73.8 509.31,-80.58"/>
</a>
</g>
</g>
<!-- Node2&#45;&gt;Node3 -->
<g id="edge2_Node000002_Node000003" class="edge">
<title>Node2&#45;&gt;Node3</title>
<g id="a_edge2_Node000002_Node000003"><a xlink:title=" ">
<path fill="none" stroke="#63b8ff" d="M306.3,-55.59C271.61,-45.58 217.1,-29.83 182.98,-19.98"/>
<polygon fill="#63b8ff" stroke="#63b8ff" points="184.28,-16.72 173.7,-17.3 182.34,-23.44 184.28,-16.72"/>
</a>
</g>
</g>
<!-- Node4 -->
<g id="Node000004" class="node">
<title>Node4</title>
<g id="a_Node000004"><a xlink:title=" ">
<polygon fill="#e0e0e0" stroke="#999999" points="364.5,-20 313.25,-20 313.25,0 364.5,0 364.5,-20"/>
<text xml:space="preserve" text-anchor="middle" x="338.88" y="-6.5" font-family="Helvetica,sans-Serif" font-size="10.00">memory</text>
</a>
</g>
</g>
<!-- Node2&#45;&gt;Node4 -->
<g id="edge3_Node000002_Node000004" class="edge">
<title>Node2&#45;&gt;Node4</title>
<g id="a_edge3_Node000002_Node000004"><a xlink:title=" ">
<path fill="none" stroke="#63b8ff" d="M338.88,-55.59C338.88,-49.01 338.88,-39.96 338.88,-31.73"/>
<polygon fill="#63b8ff" stroke="#63b8ff" points="342.38,-31.81 338.88,-21.81 335.38,-31.81 342.38,-31.81"/>
</a>
</g>
</g>
<!-- Node2&#45;&gt;Node5 -->
<g id="edge4_Node000002_Node000005" class="edge">
<title>Node2&#45;&gt;Node5</title>
<g id="a_edge4_Node000002_Node000005"><a xlink:title=" ">
<path fill="none" stroke="#63b8ff" d="M352.11,-55.59C363.16,-47.74 379.16,-36.38 392.23,-27.09"/>
<polygon fill="#63b8ff" stroke="#63b8ff" points="394.18,-30 400.3,-21.36 390.12,-24.3 394.18,-30"/>
</a>
</g>
</g>
<!-- Node6&#45;&gt;Node3 -->
<g id="edge7_Node000006_Node000003" class="edge">
<title>Node6&#45;&gt;Node3</title>
<g id="a_edge7_Node000006_Node000003"><a xlink:title=" ">
<path fill="none" stroke="#63b8ff" d="M76.73,-55.59C90.34,-47.51 110.24,-35.71 126.14,-26.27"/>
<polygon fill="#63b8ff" stroke="#63b8ff" points="127.78,-29.37 134.6,-21.25 124.21,-23.35 127.78,-29.37"/>
</a>
</g>
</g>
<!-- Node7 -->
<g id="Node000007" class="node">
<title>Node7</title>
<g id="a_Node000007"><a xlink:title=" ">
<polygon fill="#e0e0e0" stroke="#999999" points="83.5,-20 38.25,-20 38.25,0 83.5,0 83.5,-20"/>
<text xml:space="preserve" text-anchor="middle" x="60.88" y="-6.5" font-family="Helvetica,sans-Serif" font-size="10.00">cstdint</text>
</a>
</g>
</g>
<!-- Node6&#45;&gt;Node7 -->
<g id="edge6_Node000006_Node000007" class="edge">
<title>Node6&#45;&gt;Node7</title>
<g id="a_edge6_Node000006_Node000007"><a xlink:title=" ">
<path fill="none" stroke="#63b8ff" d="M60.88,-55.59C60.88,-49.01 60.88,-39.96 60.88,-31.73"/>
<polygon fill="#63b8ff" stroke="#63b8ff" points="64.38,-31.81 60.88,-21.81 57.38,-31.81 64.38,-31.81"/>
</a>
</g>
</g>
<!-- Node8&#45;&gt;Node3 -->
<g id="edge10_Node000008_Node000003" class="edge">
<title>Node8&#45;&gt;Node3</title>
<g id="a_edge10_Node000008_Node000003"><a xlink:title=" ">
<path fill="none" stroke="#63b8ff" d="M208.03,-55.59C198.18,-47.77 183.94,-36.46 172.27,-27.19"/>
<polygon fill="#63b8ff" stroke="#63b8ff" points="174.78,-24.72 164.77,-21.24 170.42,-30.2 174.78,-24.72"/>
</a>
</g>
</g>
<!-- Node9 -->
<g id="Node000009" class="node">
<title>Node9</title>
<g id="a_Node000009"><a xlink:title=" ">
<polygon fill="#e0e0e0" stroke="#999999" points="246.62,-20 193.12,-20 193.12,0 246.62,0 246.62,-20"/>
<text xml:space="preserve" text-anchor="middle" x="219.88" y="-6.5" font-family="Helvetica,sans-Serif" font-size="10.00">iostream</text>
</a>
</g>
</g>
<!-- Node8&#45;&gt;Node9 -->
<g id="edge9_Node000008_Node000009" class="edge">
<title>Node8&#45;&gt;Node9</title>
<g id="a_edge9_Node000008_Node000009"><a xlink:title=" ">
<path fill="none" stroke="#63b8ff" d="M219.88,-55.59C219.88,-49.01 219.88,-39.96 219.88,-31.73"/>
<polygon fill="#63b8ff" stroke="#63b8ff" points="223.38,-31.81 219.88,-21.81 216.38,-31.81 223.38,-31.81"/>
</a>
</g>
</g>
</g>
</svg>
