<?xml version="1.0" encoding="UTF-8" standalone="no"?>
<!DOCTYPE svg PUBLIC "-//W3C//DTD SVG 1.1//EN"
 "http://www.w3.org/Graphics/SVG/1.1/DTD/svg11.dtd">
<!-- Generated by graphviz version 14.0.2 (20251019.1705)
 -->
<!-- Title: Streaming.h Pages: 1 -->
<svg width="661pt" height="196pt"
 viewBox="0.00 0.00 661.00 196.00" xmlns="http://www.w3.org/2000/svg" xmlns:xlink="http://www.w3.org/1999/xlink">
<g id="graph0" class="graph" transform="scale(1 1) rotate(0) translate(4 192)">
<title>Streaming.h</title>
<!-- Node1 -->
<g id="Node000001" class="node">
<title>Node1</title>
<g id="a_Node000001"><a xlink:title=" ">
<polygon fill="#999999" stroke="#666666" points="427.84,-188 359.34,-188 359.34,-168 427.84,-168 427.84,-188"/>
<text xml:space="preserve" text-anchor="middle" x="393.59" y="-174.5" font-family="Helvetica,sans-Serif" font-size="10.00">Streaming.h</text>
</a>
</g>
</g>
<!-- Node2 -->
<g id="Node000002" class="node">
<title>Node2</title>
<g id="a_Node000002"><a xlink:href="AssetRegistry_8h.html" target="_top" xlink:title=" ">
<polygon fill="white" stroke="#666666" points="368.34,-132 248.84,-132 248.84,-112 368.34,-112 368.34,-132"/>
<text xml:space="preserve" text-anchor="middle" x="308.59" y="-118.5" font-family="Helvetica,sans-Serif" font-size="10.00">LGE/fs/AssetRegistry.h</text>
</a>
</g>
</g>
<!-- Node1&#45;&gt;Node2 -->
<g id="edge1_Node000001_Node000002" class="edge">
<title>Node1&#45;&gt;Node2</title>
<g id="a_edge1_Node000001_Node000002"><a xlink:title=" ">
<path fill="none" stroke="#63b8ff" d="M378.79,-167.59C366.19,-159.59 347.84,-147.93 333.06,-138.54"/>
<polygon fill="#63b8ff" stroke="#63b8ff" points="335.11,-135.7 324.79,-133.29 331.36,-141.61 335.11,-135.7"/>
</a>
</g>
</g>
<!-- Node4 -->
<g id="Node000004" class="node">
<title>Node4</title>
<g id="a_Node000004"><a xlink:title=" ">
<polygon fill="#e0e0e0" stroke="#999999" points="215.59,-20 175.59,-20 175.59,0 215.59,0 215.59,-20"/>
<text xml:space="preserve" text-anchor="middle" x="195.59" y="-6.5" font-family="Helvetica,sans-Serif" font-size="10.00">string</text>
</a>
</g>
</g>
<!-- Node1&#45;&gt;Node4 -->
<g id="edge15_Node000001_Node000004" class="edge">
<title>Node1&#45;&gt;Node4</title>
<g id="a_edge15_Node000001_Node000004"><a xlink:title=" ">
<path fill="none" stroke="#63b8ff" d="M359.25,-177.01C302.45,-175.9 186.33,-168.84 96.59,-132 57.45,-115.93 38.8,-113.71 19.59,-76 -21.43,4.56 46.74,-48.58 164.21,-20.34"/>
<polygon fill="#63b8ff" stroke="#63b8ff" points="165.09,-23.73 173.89,-17.83 163.34,-16.95 165.09,-23.73"/>
</a>
</g>
</g>
<!-- Node5 -->
<g id="Node000005" class="node">
<title>Node5</title>
<g id="a_Node000005"><a xlink:title=" ">
<polygon fill="#e0e0e0" stroke="#999999" points="157.34,-20 91.84,-20 91.84,0 157.34,0 157.34,-20"/>
<text xml:space="preserve" text-anchor="middle" x="124.59" y="-6.5" font-family="Helvetica,sans-Serif" font-size="10.00">string_view</text>
</a>
</g>
</g>
<!-- Node1&#45;&gt;Node5 -->
<g id="edge16_Node000001_Node000005" class="edge">
<title>Node1&#45;&gt;Node5</title>
<g id="a_edge16_Node000001_Node000005"><a xlink:title=" ">
<path fill="none" stroke="#63b8ff" d="M359.08,-176.03C282.02,-173.31 98.65,-163.61 46.59,-132 14.14,-112.29 -13.9,-87.3 7.59,-56 23.85,-32.33 54.44,-21.1 80.27,-15.78"/>
<polygon fill="#63b8ff" stroke="#63b8ff" points="80.64,-19.27 89.86,-14.06 79.4,-12.38 80.64,-19.27"/>
</a>
</g>
</g>
<!-- Node6 -->
<g id="Node000006" class="node">
<title>Node6</title>
<g id="a_Node000006"><a xlink:title=" ">
<polygon fill="#e0e0e0" stroke="#999999" points="277.09,-20 234.09,-20 234.09,0 277.09,0 277.09,-20"/>
<text xml:space="preserve" text-anchor="middle" x="255.59" y="-6.5" font-family="Helvetica,sans-Serif" font-size="10.00">vector</text>
</a>
</g>
</g>
<!-- Node1&#45;&gt;Node6 -->
<g id="edge17_Node000001_Node000006" class="edge">
<title>Node1&#45;&gt;Node6</title>
<g id="a_edge17_Node000001_Node000006"><a xlink:title=" ">
<path fill="none" stroke="#63b8ff" d="M358.99,-172.44C277.55,-160.92 77.74,-127.84 38.59,-76 3.38,-29.38 13.28,-69.5 222.55,-20.29"/>
<polygon fill="#63b8ff" stroke="#63b8ff" points="223.26,-23.72 232.17,-17.99 221.63,-16.91 223.26,-23.72"/>
</a>
</g>
</g>
<!-- Node7 -->
<g id="Node000007" class="node">
<title>Node7</title>
<g id="a_Node000007"><a xlink:title=" ">
<polygon fill="#e0e0e0" stroke="#999999" points="394.47,-20 344.72,-20 344.72,0 394.47,0 394.47,-20"/>
<text xml:space="preserve" text-anchor="middle" x="369.59" y="-6.5" font-family="Helvetica,sans-Serif" font-size="10.00">optional</text>
</a>
</g>
</g>
<!-- Node1&#45;&gt;Node7 -->
<g id="edge20_Node000001_Node000007" class="edge">
<title>Node1&#45;&gt;Node7</title>
<g id="a_edge20_Node000001_Node000007"><a xlink:title=" ">
<path fill="none" stroke="#63b8ff" d="M417.48,-167.52C462.24,-148.35 551.24,-102.84 516.59,-56 513.19,-51.39 448.18,-32.71 405.77,-20.92"/>
<polygon fill="#63b8ff" stroke="#63b8ff" points="406.77,-17.56 396.2,-18.27 404.9,-24.31 406.77,-17.56"/>
</a>
</g>
</g>
<!-- Node8 -->
<g id="Node000008" class="node">
<title>Node8</title>
<g id="a_Node000008"><a xlink:title=" ">
<polygon fill="#e0e0e0" stroke="#999999" points="458.22,-20 412.97,-20 412.97,0 458.22,0 458.22,-20"/>
<text xml:space="preserve" text-anchor="middle" x="435.59" y="-6.5" font-family="Helvetica,sans-Serif" font-size="10.00">cstdint</text>
</a>
</g>
</g>
<!-- Node1&#45;&gt;Node8 -->
<g id="edge21_Node000001_Node000008" class="edge">
<title>Node1&#45;&gt;Node8</title>
<g id="a_edge21_Node000001_Node000008"><a xlink:title=" ">
<path fill="none" stroke="#63b8ff" d="M428.24,-170.65C453.22,-164.5 486.34,-152.93 508.59,-132 528.59,-113.2 528.68,-102.8 534.59,-76 536.51,-67.32 539.41,-63.47 534.59,-56 520.41,-33.97 492.5,-22.6 469.92,-16.8"/>
<polygon fill="#63b8ff" stroke="#63b8ff" points="470.7,-13.39 460.18,-14.59 469.15,-20.22 470.7,-13.39"/>
</a>
</g>
</g>
<!-- Node10 -->
<g id="Node000010" class="node">
<title>Node10</title>
<g id="a_Node000010"><a xlink:title=" ">
<polygon fill="#e0e0e0" stroke="#999999" points="507.59,-76 449.59,-76 449.59,-56 507.59,-56 507.59,-76"/>
<text xml:space="preserve" text-anchor="middle" x="478.59" y="-62.5" font-family="Helvetica,sans-Serif" font-size="10.00">functional</text>
</a>
</g>
</g>
<!-- Node1&#45;&gt;Node10 -->
<g id="edge19_Node000001_Node000010" class="edge">
<title>Node1&#45;&gt;Node10</title>
<g id="a_edge19_Node000001_Node000010"><a xlink:title=" ">
<path fill="none" stroke="#63b8ff" d="M400.84,-167.62C414.89,-149.44 446.07,-109.09 464.39,-85.38"/>
<polygon fill="#63b8ff" stroke="#63b8ff" points="467.09,-87.61 470.44,-77.55 461.56,-83.33 467.09,-87.61"/>
</a>
</g>
</g>
<!-- Node11 -->
<g id="Node000011" class="node">
<title>Node11</title>
<g id="a_Node000011"><a xlink:title=" ">
<polygon fill="#e0e0e0" stroke="#999999" points="653.22,-132 601.97,-132 601.97,-112 653.22,-112 653.22,-132"/>
<text xml:space="preserve" text-anchor="middle" x="627.59" y="-118.5" font-family="Helvetica,sans-Serif" font-size="10.00">memory</text>
</a>
</g>
</g>
<!-- Node1&#45;&gt;Node11 -->
<g id="edge18_Node000001_Node000011" class="edge">
<title>Node1&#45;&gt;Node11</title>
<g id="a_edge18_Node000001_Node000011"><a xlink:title=" ">
<path fill="none" stroke="#63b8ff" d="M428.12,-169.03C471.53,-159.01 545.77,-141.88 590.4,-131.58"/>
<polygon fill="#63b8ff" stroke="#63b8ff" points="591.18,-134.99 600.14,-129.34 589.61,-128.17 591.18,-134.99"/>
</a>
</g>
</g>
<!-- Node3 -->
<g id="Node000003" class="node">
<title>Node3</title>
<g id="a_Node000003"><a xlink:href="MetaDB_8h.html" target="_top" xlink:title=" ">
<polygon fill="white" stroke="#666666" points="355.59,-76 261.59,-76 261.59,-56 355.59,-56 355.59,-76"/>
<text xml:space="preserve" text-anchor="middle" x="308.59" y="-62.5" font-family="Helvetica,sans-Serif" font-size="10.00">LGE/fs/MetaDB.h</text>
</a>
</g>
</g>
<!-- Node2&#45;&gt;Node3 -->
<g id="edge2_Node000002_Node000003" class="edge">
<title>Node2&#45;&gt;Node3</title>
<g id="a_edge2_Node000002_Node000003"><a xlink:title=" ">
<path fill="none" stroke="#63b8ff" d="M308.59,-111.59C308.59,-105.01 308.59,-95.96 308.59,-87.73"/>
<polygon fill="#63b8ff" stroke="#63b8ff" points="312.09,-87.81 308.59,-77.81 305.09,-87.81 312.09,-87.81"/>
</a>
</g>
</g>
<!-- Node2&#45;&gt;Node4 -->
<g id="edge8_Node000002_Node000004" class="edge">
<title>Node2&#45;&gt;Node4</title>
<g id="a_edge8_Node000002_Node000004"><a xlink:title=" ">
<path fill="none" stroke="#63b8ff" d="M291.99,-111.62C278.15,-103.32 258.37,-90.33 243.59,-76 229.15,-61.99 215.82,-43.27 206.9,-29.52"/>
<polygon fill="#63b8ff" stroke="#63b8ff" points="210.08,-28.01 201.79,-21.42 204.16,-31.74 210.08,-28.01"/>
</a>
</g>
</g>
<!-- Node2&#45;&gt;Node5 -->
<g id="edge9_Node000002_Node000005" class="edge">
<title>Node2&#45;&gt;Node5</title>
<g id="a_edge9_Node000002_Node000005"><a xlink:title=" ">
<path fill="none" stroke="#63b8ff" d="M288.9,-111.61C271.04,-102.9 244.14,-89.33 221.59,-76 195.14,-60.36 166.01,-40.46 146.64,-26.82"/>
<polygon fill="#63b8ff" stroke="#63b8ff" points="148.89,-24.12 138.71,-21.19 144.84,-29.83 148.89,-24.12"/>
</a>
</g>
</g>
<!-- Node2&#45;&gt;Node6 -->
<g id="edge10_Node000002_Node000006" class="edge">
<title>Node2&#45;&gt;Node6</title>
<g id="a_edge10_Node000002_Node000006"><a xlink:title=" ">
<path fill="none" stroke="#63b8ff" d="M289.45,-111.52C276.41,-103.9 260.19,-91.86 252.59,-76 245.94,-62.12 247.22,-44.59 249.87,-31.24"/>
<polygon fill="#63b8ff" stroke="#63b8ff" points="253.2,-32.39 252.15,-21.85 246.39,-30.74 253.2,-32.39"/>
</a>
</g>
</g>
<!-- Node2&#45;&gt;Node7 -->
<g id="edge12_Node000002_Node000007" class="edge">
<title>Node2&#45;&gt;Node7</title>
<g id="a_edge12_Node000002_Node000007"><a xlink:title=" ">
<path fill="none" stroke="#63b8ff" d="M326.83,-111.66C339.78,-103.97 356.27,-91.78 364.59,-76 371.72,-62.5 372.72,-45.18 372.08,-31.81"/>
<polygon fill="#63b8ff" stroke="#63b8ff" points="375.58,-31.63 371.23,-21.97 368.6,-32.23 375.58,-31.63"/>
</a>
</g>
</g>
<!-- Node2&#45;&gt;Node8 -->
<g id="edge14_Node000002_Node000008" class="edge">
<title>Node2&#45;&gt;Node8</title>
<g id="a_edge14_Node000002_Node000008"><a xlink:title=" ">
<path fill="none" stroke="#63b8ff" d="M327.41,-111.61C342.86,-103.4 364.84,-90.54 381.59,-76 397.64,-62.07 412.82,-43.09 422.97,-29.24"/>
<polygon fill="#63b8ff" stroke="#63b8ff" points="425.58,-31.61 428.54,-21.44 419.88,-27.55 425.58,-31.61"/>
</a>
</g>
</g>
<!-- Node9 -->
<g id="Node000009" class="node">
<title>Node9</title>
<g id="a_Node000009"><a xlink:title=" ">
<polygon fill="#e0e0e0" stroke="#999999" points="129.97,-76 47.22,-76 47.22,-56 129.97,-56 129.97,-76"/>
<text xml:space="preserve" text-anchor="middle" x="88.59" y="-62.5" font-family="Helvetica,sans-Serif" font-size="10.00">unordered_map</text>
</a>
</g>
</g>
<!-- Node2&#45;&gt;Node9 -->
<g id="edge11_Node000002_Node000009" class="edge">
<title>Node2&#45;&gt;Node9</title>
<g id="a_edge11_Node000002_Node000009"><a xlink:title=" ">
<path fill="none" stroke="#63b8ff" d="M270.02,-111.53C233.38,-102.54 178.11,-88.97 138.2,-79.18"/>
<polygon fill="#63b8ff" stroke="#63b8ff" points="139.14,-75.8 128.59,-76.82 137.47,-82.6 139.14,-75.8"/>
</a>
</g>
</g>
<!-- Node2&#45;&gt;Node10 -->
<g id="edge13_Node000002_Node000010" class="edge">
<title>Node2&#45;&gt;Node10</title>
<g id="a_edge13_Node000002_Node000010"><a xlink:title=" ">
<path fill="none" stroke="#63b8ff" d="M338.21,-111.59C366,-102.77 407.78,-89.5 438.53,-79.72"/>
<polygon fill="#63b8ff" stroke="#63b8ff" points="439.41,-83.12 447.88,-76.76 437.29,-76.45 439.41,-83.12"/>
</a>
</g>
</g>
<!-- Node3&#45;&gt;Node4 -->
<g id="edge3_Node000003_Node000004" class="edge">
<title>Node3&#45;&gt;Node4</title>
<g id="a_edge3_Node000003_Node000004"><a xlink:title=" ">
<path fill="none" stroke="#63b8ff" d="M288.91,-55.59C271.44,-47.24 245.64,-34.92 225.6,-25.34"/>
<polygon fill="#63b8ff" stroke="#63b8ff" points="227.33,-22.29 216.8,-21.13 224.31,-28.6 227.33,-22.29"/>
</a>
</g>
</g>
<!-- Node3&#45;&gt;Node5 -->
<g id="edge4_Node000003_Node000005" class="edge">
<title>Node3&#45;&gt;Node5</title>
<g id="a_edge4_Node000003_Node000005"><a xlink:title=" ">
<path fill="none" stroke="#63b8ff" d="M276.54,-55.59C246.39,-46.74 201.01,-33.43 167.69,-23.65"/>
<polygon fill="#63b8ff" stroke="#63b8ff" points="168.93,-20.36 158.35,-20.91 166.96,-27.08 168.93,-20.36"/>
</a>
</g>
</g>
<!-- Node3&#45;&gt;Node6 -->
<g id="edge5_Node000003_Node000006" class="edge">
<title>Node3&#45;&gt;Node6</title>
<g id="a_edge5_Node000003_Node000006"><a xlink:title=" ">
<path fill="none" stroke="#63b8ff" d="M299.36,-55.59C291.99,-48.08 281.46,-37.35 272.58,-28.3"/>
<polygon fill="#63b8ff" stroke="#63b8ff" points="275.28,-26.06 265.78,-21.38 270.29,-30.97 275.28,-26.06"/>
</a>
</g>
</g>
<!-- Node3&#45;&gt;Node7 -->
<g id="edge6_Node000003_Node000007" class="edge">
<title>Node3&#45;&gt;Node7</title>
<g id="a_edge6_Node000003_Node000007"><a xlink:title=" ">
<path fill="none" stroke="#63b8ff" d="M319.22,-55.59C327.88,-47.93 340.32,-36.91 350.68,-27.75"/>
<polygon fill="#63b8ff" stroke="#63b8ff" points="352.79,-30.55 357.96,-21.3 348.15,-25.31 352.79,-30.55"/>
</a>
</g>
</g>
<!-- Node3&#45;&gt;Node8 -->
<g id="edge7_Node000003_Node000008" class="edge">
<title>Node3&#45;&gt;Node8</title>
<g id="a_edge7_Node000003_Node000008"><a xlink:title=" ">
<path fill="none" stroke="#63b8ff" d="M330.72,-55.59C350.63,-47.13 380.15,-34.58 402.8,-24.94"/>
<polygon fill="#63b8ff" stroke="#63b8ff" points="404.07,-28.21 411.91,-21.07 401.33,-21.76 404.07,-28.21"/>
</a>
</g>
</g>
</g>
</svg>
