<?xml version="1.0" encoding="UTF-8" standalone="no"?>
<!DOCTYPE svg PUBLIC "-//W3C//DTD SVG 1.1//EN"
 "http://www.w3.org/Graphics/SVG/1.1/DTD/svg11.dtd">
<!-- Generated by graphviz version 14.0.2 (20251019.1705)
 -->
<!-- Title: LGE::AnalyticsReport Pages: 1 -->
<svg width="163pt" height="351pt"
 viewBox="0.00 0.00 163.00 351.00" xmlns="http://www.w3.org/2000/svg" xmlns:xlink="http://www.w3.org/1999/xlink">
<g id="graph0" class="graph" transform="scale(1 1) rotate(0) translate(4 347)">
<title>LGE::AnalyticsReport</title>
<!-- Node1 -->
<g id="Node000001" class="node">
<title>Node1</title>
<g id="a_Node000001"><a xlink:title=" ">
<polygon fill="#999999" stroke="#666666" points="133,-20 21.75,-20 21.75,0 133,0 133,-20"/>
<text xml:space="preserve" text-anchor="middle" x="77.38" y="-6.5" font-family="Helvetica,sans-Serif" font-size="10.00">LGE::AnalyticsReport</text>
</a>
</g>
</g>
<!-- Node2 -->
<g id="Node000002" class="node">
<title>Node2</title>
<g id="a_Node000002"><a xlink:title=" ">
<polygon fill="white" stroke="#666666" points="154.75,-126 0,-126 0,-106 154.75,-106 154.75,-126"/>
<text xml:space="preserve" text-anchor="middle" x="77.38" y="-112.5" font-family="Helvetica,sans-Serif" font-size="10.00">std::vector&lt; LGE::AssetStats &gt;</text>
</a>
</g>
</g>
<!-- Node2&#45;&gt;Node1 -->
<g id="edge1_Node000001_Node000002" class="edge">
<title>Node2&#45;&gt;Node1</title>
<g id="a_edge1_Node000001_Node000002"><a xlink:title=" ">
<path fill="none" stroke="#9a32cd" stroke-dasharray="5,2" d="M77.38,-94.51C77.38,-72.04 77.38,-36.99 77.38,-20.36"/>
<polygon fill="#9a32cd" stroke="#9a32cd" points="73.88,-94.26 77.38,-104.26 80.88,-94.26 73.88,-94.26"/>
</a>
</g>
<text xml:space="preserve" text-anchor="start" x="80.38" y="-75.5" font-family="Helvetica,sans-Serif" font-size="10.00" fill="grey">topByLoadTime</text>
<text xml:space="preserve" text-anchor="start" x="80.38" y="-59.5" font-family="Helvetica,sans-Serif" font-size="10.00" fill="grey">topBySize</text>
<text xml:space="preserve" text-anchor="start" x="80.38" y="-43.5" font-family="Helvetica,sans-Serif" font-size="10.00" fill="grey">unusedAssets</text>
</g>
<!-- Node3 -->
<g id="Node000003" class="node">
<title>Node3</title>
<g id="a_Node000003"><a xlink:href="structLGE_1_1AssetStats.html" target="_top" xlink:title=" ">
<polygon fill="white" stroke="#666666" points="122.5,-200 32.25,-200 32.25,-180 122.5,-180 122.5,-200"/>
<text xml:space="preserve" text-anchor="middle" x="77.38" y="-186.5" font-family="Helvetica,sans-Serif" font-size="10.00">LGE::AssetStats</text>
</a>
</g>
</g>
<!-- Node3&#45;&gt;Node2 -->
<g id="edge2_Node000002_Node000003" class="edge">
<title>Node3&#45;&gt;Node2</title>
<g id="a_edge2_Node000002_Node000003"><a xlink:title=" ">
<path fill="none" stroke="#9a32cd" stroke-dasharray="5,2" d="M77.38,-168.18C77.38,-154.29 77.38,-136.71 77.38,-126.19"/>
<polygon fill="#9a32cd" stroke="#9a32cd" points="73.88,-168.07 77.38,-178.07 80.88,-168.07 73.88,-168.07"/>
</a>
</g>
<text xml:space="preserve" text-anchor="start" x="80.38" y="-149.5" font-family="Helvetica,sans-Serif" font-size="10.00" fill="grey">elements</text>
</g>
<!-- Node4 -->
<g id="Node000004" class="node">
<title>Node4</title>
<g id="a_Node000004"><a xlink:title=" ">
<polygon fill="white" stroke="#666666" points="107.12,-274 47.62,-274 47.62,-254 107.12,-254 107.12,-274"/>
<text xml:space="preserve" text-anchor="middle" x="77.38" y="-260.5" font-family="Helvetica,sans-Serif" font-size="10.00">std::string</text>
</a>
</g>
</g>
<!-- Node4&#45;&gt;Node3 -->
<g id="edge3_Node000003_Node000004" class="edge">
<title>Node4&#45;&gt;Node3</title>
<g id="a_edge3_Node000003_Node000004"><a xlink:title=" ">
<path fill="none" stroke="#9a32cd" stroke-dasharray="5,2" d="M77.38,-242.18C77.38,-228.29 77.38,-210.71 77.38,-200.19"/>
<polygon fill="#9a32cd" stroke="#9a32cd" points="73.88,-242.07 77.38,-252.07 80.88,-242.07 73.88,-242.07"/>
</a>
</g>
<text xml:space="preserve" text-anchor="start" x="80.38" y="-223.5" font-family="Helvetica,sans-Serif" font-size="10.00" fill="grey">guid</text>
</g>
<!-- Node5 -->
<g id="Node000005" class="node">
<title>Node5</title>
<g id="a_Node000005"><a xlink:title=" ">
<polygon fill="white" stroke="#666666" points="124.38,-343 30.37,-343 30.37,-311 124.38,-311 124.38,-343"/>
<text xml:space="preserve" text-anchor="start" x="38.38" y="-329.5" font-family="Helvetica,sans-Serif" font-size="10.00">std::basic_string&lt;</text>
<text xml:space="preserve" text-anchor="middle" x="77.38" y="-317.5" font-family="Helvetica,sans-Serif" font-size="10.00"> Char &gt;</text>
</a>
</g>
</g>
<!-- Node5&#45;&gt;Node4 -->
<g id="edge4_Node000004_Node000005" class="edge">
<title>Node5&#45;&gt;Node4</title>
<g id="a_edge4_Node000004_Node000005"><a xlink:title=" ">
<path fill="none" stroke="#63b8ff" d="M77.38,-299.36C77.38,-290.41 77.38,-281.01 77.38,-274.31"/>
<polygon fill="#63b8ff" stroke="#63b8ff" points="73.88,-299.09 77.38,-309.09 80.88,-299.09 73.88,-299.09"/>
</a>
</g>
</g>
</g>
</svg>
