<?xml version="1.0" encoding="UTF-8" standalone="no"?>
<!DOCTYPE svg PUBLIC "-//W3C//DTD SVG 1.1//EN"
 "http://www.w3.org/Graphics/SVG/1.1/DTD/svg11.dtd">
<!-- Generated by graphviz version 14.0.2 (20251019.1705)
 -->
<!-- Title: LGE::BackupOptions Pages: 1 -->
<svg width="154pt" height="203pt"
 viewBox="0.00 0.00 154.00 203.00" xmlns="http://www.w3.org/2000/svg" xmlns:xlink="http://www.w3.org/1999/xlink">
<g id="graph0" class="graph" transform="scale(1 1) rotate(0) translate(4 199)">
<title>LGE::BackupOptions</title>
<!-- Node1 -->
<g id="Node000001" class="node">
<title>Node1</title>
<g id="a_Node000001"><a xlink:title=" ">
<polygon fill="#999999" stroke="#666666" points="108.25,-20 0,-20 0,0 108.25,0 108.25,-20"/>
<text xml:space="preserve" text-anchor="middle" x="54.12" y="-6.5" font-family="Helvetica,sans-Serif" font-size="10.00">LGE::BackupOptions</text>
</a>
</g>
</g>
<!-- Node2 -->
<g id="Node000002" class="node">
<title>Node2</title>
<g id="a_Node000002"><a xlink:title=" ">
<polygon fill="white" stroke="#666666" points="83.88,-126 24.37,-126 24.37,-106 83.88,-106 83.88,-126"/>
<text xml:space="preserve" text-anchor="middle" x="54.12" y="-112.5" font-family="Helvetica,sans-Serif" font-size="10.00">std::string</text>
</a>
</g>
</g>
<!-- Node2&#45;&gt;Node1 -->
<g id="edge1_Node000001_Node000002" class="edge">
<title>Node2&#45;&gt;Node1</title>
<g id="a_edge1_Node000001_Node000002"><a xlink:title=" ">
<path fill="none" stroke="#9a32cd" stroke-dasharray="5,2" d="M54.12,-94.51C54.12,-72.04 54.12,-36.99 54.12,-20.36"/>
<polygon fill="#9a32cd" stroke="#9a32cd" points="50.63,-94.26 54.13,-104.26 57.63,-94.26 50.63,-94.26"/>
</a>
</g>
<text xml:space="preserve" text-anchor="start" x="57.12" y="-75.5" font-family="Helvetica,sans-Serif" font-size="10.00" fill="grey">backupPath</text>
<text xml:space="preserve" text-anchor="start" x="57.12" y="-59.5" font-family="Helvetica,sans-Serif" font-size="10.00" fill="grey">compressionFormat</text>
<text xml:space="preserve" text-anchor="start" x="57.12" y="-43.5" font-family="Helvetica,sans-Serif" font-size="10.00" fill="grey">name</text>
</g>
<!-- Node3 -->
<g id="Node000003" class="node">
<title>Node3</title>
<g id="a_Node000003"><a xlink:title=" ">
<polygon fill="white" stroke="#666666" points="101.12,-195 7.12,-195 7.12,-163 101.12,-163 101.12,-195"/>
<text xml:space="preserve" text-anchor="start" x="15.12" y="-181.5" font-family="Helvetica,sans-Serif" font-size="10.00">std::basic_string&lt;</text>
<text xml:space="preserve" text-anchor="middle" x="54.12" y="-169.5" font-family="Helvetica,sans-Serif" font-size="10.00"> Char &gt;</text>
</a>
</g>
</g>
<!-- Node3&#45;&gt;Node2 -->
<g id="edge2_Node000002_Node000003" class="edge">
<title>Node3&#45;&gt;Node2</title>
<g id="a_edge2_Node000002_Node000003"><a xlink:title=" ">
<path fill="none" stroke="#63b8ff" d="M54.12,-151.36C54.12,-142.41 54.12,-133.01 54.12,-126.31"/>
<polygon fill="#63b8ff" stroke="#63b8ff" points="50.63,-151.09 54.13,-161.09 57.63,-151.09 50.63,-151.09"/>
</a>
</g>
</g>
</g>
</svg>
