<?xml version="1.0" encoding="UTF-8" standalone="no"?>
<!DOCTYPE svg PUBLIC "-//W3C//DTD SVG 1.1//EN"
 "http://www.w3.org/Graphics/SVG/1.1/DTD/svg11.dtd">
<!-- Generated by graphviz version 14.0.2 (20251019.1705)
 -->
<!-- Title: LGE::VersionHistory Pages: 1 -->
<svg width="292pt" height="455pt"
 viewBox="0.00 0.00 292.00 455.00" xmlns="http://www.w3.org/2000/svg" xmlns:xlink="http://www.w3.org/1999/xlink">
<g id="graph0" class="graph" transform="scale(1 1) rotate(0) translate(4 451)">
<title>LGE::VersionHistory</title>
<!-- Node1 -->
<g id="Node000001" class="node">
<title>Node1</title>
<g id="a_Node000001"><a xlink:title=" ">
<polygon fill="#999999" stroke="#666666" points="105.25,-20 0,-20 0,0 105.25,0 105.25,-20"/>
<text xml:space="preserve" text-anchor="middle" x="52.62" y="-6.5" font-family="Helvetica,sans-Serif" font-size="10.00">LGE::VersionHistory</text>
</a>
</g>
</g>
<!-- Node2 -->
<g id="Node000002" class="node">
<title>Node2</title>
<g id="a_Node000002"><a xlink:title=" ">
<polygon fill="white" stroke="#666666" points="112.38,-378 52.88,-378 52.88,-358 112.38,-358 112.38,-378"/>
<text xml:space="preserve" text-anchor="middle" x="82.62" y="-364.5" font-family="Helvetica,sans-Serif" font-size="10.00">std::string</text>
</a>
</g>
</g>
<!-- Node2&#45;&gt;Node1 -->
<g id="edge1_Node000001_Node000002" class="edge">
<title>Node2&#45;&gt;Node1</title>
<g id="a_edge1_Node000001_Node000002"><a xlink:title=" ">
<path fill="none" stroke="#9a32cd" stroke-dasharray="5,2" d="M68.55,-348.33C55.02,-328.51 36.62,-295.71 36.62,-264 36.62,-264 36.62,-264 36.62,-83 36.62,-59.95 44.54,-33.72 49.23,-20.18"/>
<polygon fill="#9a32cd" stroke="#9a32cd" points="65.69,-350.35 74.35,-356.45 71.39,-346.28 65.69,-350.35"/>
</a>
</g>
<text xml:space="preserve" text-anchor="start" x="39.62" y="-154.5" font-family="Helvetica,sans-Serif" font-size="10.00" fill="grey">assetGuid</text>
</g>
<!-- Node5 -->
<g id="Node000005" class="node">
<title>Node5</title>
<g id="a_Node000005"><a xlink:href="structLGE_1_1AssetVersion.html" target="_top" xlink:title=" ">
<polygon fill="white" stroke="#666666" points="204.25,-168 105,-168 105,-148 204.25,-148 204.25,-168"/>
<text xml:space="preserve" text-anchor="middle" x="154.62" y="-154.5" font-family="Helvetica,sans-Serif" font-size="10.00">LGE::AssetVersion</text>
</a>
</g>
</g>
<!-- Node2&#45;&gt;Node5 -->
<g id="edge5_Node000005_Node000002" class="edge">
<title>Node2&#45;&gt;Node5</title>
<g id="a_edge5_Node000005_Node000002"><a xlink:title=" ">
<path fill="none" stroke="#9a32cd" stroke-dasharray="5,2" d="M79.63,-346.5C76.31,-317.4 73.61,-263.07 92.12,-222 102.57,-198.82 125.51,-179.35 140.51,-168.44"/>
<polygon fill="#9a32cd" stroke="#9a32cd" points="76.12,-346.68 80.88,-356.14 83.06,-345.77 76.12,-346.68"/>
</a>
</g>
<text xml:space="preserve" text-anchor="start" x="95.12" y="-291.5" font-family="Helvetica,sans-Serif" font-size="10.00" fill="grey">assetGuid</text>
<text xml:space="preserve" text-anchor="start" x="95.12" y="-275.5" font-family="Helvetica,sans-Serif" font-size="10.00" fill="grey">author</text>
<text xml:space="preserve" text-anchor="start" x="95.12" y="-259.5" font-family="Helvetica,sans-Serif" font-size="10.00" fill="grey">changeType</text>
<text xml:space="preserve" text-anchor="start" x="95.12" y="-243.5" font-family="Helvetica,sans-Serif" font-size="10.00" fill="grey">checksum</text>
<text xml:space="preserve" text-anchor="start" x="95.12" y="-227.5" font-family="Helvetica,sans-Serif" font-size="10.00" fill="grey">comment</text>
</g>
<!-- Node6 -->
<g id="Node000006" class="node">
<title>Node6</title>
<g id="a_Node000006"><a xlink:title=" ">
<polygon fill="white" stroke="#666666" points="283.62,-273 159.62,-273 159.62,-253 283.62,-253 283.62,-273"/>
<text xml:space="preserve" text-anchor="middle" x="221.62" y="-259.5" font-family="Helvetica,sans-Serif" font-size="10.00">std::vector&lt; std::string &gt;</text>
</a>
</g>
</g>
<!-- Node2&#45;&gt;Node6 -->
<g id="edge7_Node000006_Node000002" class="edge">
<title>Node2&#45;&gt;Node6</title>
<g id="a_edge7_Node000006_Node000002"><a xlink:title=" ">
<path fill="none" stroke="#9a32cd" stroke-dasharray="5,2" d="M103.99,-351.17C133.38,-329.39 185.34,-290.89 209.12,-273.27"/>
<polygon fill="#9a32cd" stroke="#9a32cd" points="102.13,-348.19 96.18,-356.96 106.29,-353.82 102.13,-348.19"/>
</a>
</g>
<text xml:space="preserve" text-anchor="start" x="142.68" y="-327.5" font-family="Helvetica,sans-Serif" font-size="10.00" fill="grey">elements</text>
</g>
<!-- Node3 -->
<g id="Node000003" class="node">
<title>Node3</title>
<g id="a_Node000003"><a xlink:title=" ">
<polygon fill="white" stroke="#666666" points="129.62,-447 35.62,-447 35.62,-415 129.62,-415 129.62,-447"/>
<text xml:space="preserve" text-anchor="start" x="43.62" y="-433.5" font-family="Helvetica,sans-Serif" font-size="10.00">std::basic_string&lt;</text>
<text xml:space="preserve" text-anchor="middle" x="82.62" y="-421.5" font-family="Helvetica,sans-Serif" font-size="10.00"> Char &gt;</text>
</a>
</g>
</g>
<!-- Node3&#45;&gt;Node2 -->
<g id="edge2_Node000002_Node000003" class="edge">
<title>Node3&#45;&gt;Node2</title>
<g id="a_edge2_Node000002_Node000003"><a xlink:title=" ">
<path fill="none" stroke="#63b8ff" d="M82.62,-403.36C82.62,-394.41 82.62,-385.01 82.62,-378.31"/>
<polygon fill="#63b8ff" stroke="#63b8ff" points="79.13,-403.09 82.63,-413.09 86.13,-403.09 79.13,-403.09"/>
</a>
</g>
</g>
<!-- Node4 -->
<g id="Node000004" class="node">
<title>Node4</title>
<g id="a_Node000004"><a xlink:title=" ">
<polygon fill="white" stroke="#666666" points="232.5,-94 68.75,-94 68.75,-74 232.5,-74 232.5,-94"/>
<text xml:space="preserve" text-anchor="middle" x="150.62" y="-80.5" font-family="Helvetica,sans-Serif" font-size="10.00">std::vector&lt; LGE::AssetVersion &gt;</text>
</a>
</g>
</g>
<!-- Node4&#45;&gt;Node1 -->
<g id="edge3_Node000001_Node000004" class="edge">
<title>Node4&#45;&gt;Node1</title>
<g id="a_edge3_Node000001_Node000004"><a xlink:title=" ">
<path fill="none" stroke="#9a32cd" stroke-dasharray="5,2" d="M128.76,-66.94C109.3,-52.64 81.51,-32.22 65.44,-20.42"/>
<polygon fill="#9a32cd" stroke="#9a32cd" points="126.46,-69.59 136.59,-72.69 130.61,-63.95 126.46,-69.59"/>
</a>
</g>
<text xml:space="preserve" text-anchor="start" x="116.28" y="-43.5" font-family="Helvetica,sans-Serif" font-size="10.00" fill="grey">versions</text>
</g>
<!-- Node5&#45;&gt;Node4 -->
<g id="edge4_Node000004_Node000005" class="edge">
<title>Node5&#45;&gt;Node4</title>
<g id="a_edge4_Node000004_Node000005"><a xlink:title=" ">
<path fill="none" stroke="#9a32cd" stroke-dasharray="5,2" d="M153.47,-136.18C152.7,-122.29 151.72,-104.71 151.14,-94.19"/>
<polygon fill="#9a32cd" stroke="#9a32cd" points="149.97,-136.29 154.02,-146.08 156.96,-135.9 149.97,-136.29"/>
</a>
</g>
<text xml:space="preserve" text-anchor="start" x="156.1" y="-117.5" font-family="Helvetica,sans-Serif" font-size="10.00" fill="grey">elements</text>
</g>
<!-- Node6&#45;&gt;Node5 -->
<g id="edge6_Node000005_Node000006" class="edge">
<title>Node6&#45;&gt;Node5</title>
<g id="a_edge6_Node000005_Node000006"><a xlink:title=" ">
<path fill="none" stroke="#9a32cd" stroke-dasharray="5,2" d="M209.42,-243.24C195.01,-221.08 171.62,-185.12 160.65,-168.27"/>
<polygon fill="#9a32cd" stroke="#9a32cd" points="206.47,-245.12 214.85,-251.59 212.34,-241.3 206.47,-245.12"/>
</a>
</g>
<text xml:space="preserve" text-anchor="start" x="185.12" y="-191.5" font-family="Helvetica,sans-Serif" font-size="10.00" fill="grey">tags</text>
</g>
</g>
</svg>
