<?xml version="1.0" encoding="UTF-8" standalone="no"?>
<!DOCTYPE svg PUBLIC "-//W3C//DTD SVG 1.1//EN"
 "http://www.w3.org/Graphics/SVG/1.1/DTD/svg11.dtd">
<!-- Generated by graphviz version 14.0.2 (20251019.1705)
 -->
<!-- Title: LGE::SearchResult Pages: 1 -->
<svg width="308pt" height="397pt"
 viewBox="0.00 0.00 308.00 397.00" xmlns="http://www.w3.org/2000/svg" xmlns:xlink="http://www.w3.org/1999/xlink">
<g id="graph0" class="graph" transform="scale(1 1) rotate(0) translate(4 393)">
<title>LGE::SearchResult</title>
<!-- Node1 -->
<g id="Node000001" class="node">
<title>Node1</title>
<g id="a_Node000001"><a xlink:title=" ">
<polygon fill="#999999" stroke="#666666" points="100.75,-20 0,-20 0,0 100.75,0 100.75,-20"/>
<text xml:space="preserve" text-anchor="middle" x="50.38" y="-6.5" font-family="Helvetica,sans-Serif" font-size="10.00">LGE::SearchResult</text>
</a>
</g>
</g>
<!-- Node2 -->
<g id="Node000002" class="node">
<title>Node2</title>
<g id="a_Node000002"><a xlink:href="structLGE_1_1AssetRecord.html" target="_top" xlink:title=" ">
<polygon fill="white" stroke="#666666" points="165.62,-94 67.12,-94 67.12,-74 165.62,-74 165.62,-94"/>
<text xml:space="preserve" text-anchor="middle" x="116.38" y="-80.5" font-family="Helvetica,sans-Serif" font-size="10.00">LGE::AssetRecord</text>
</a>
</g>
</g>
<!-- Node2&#45;&gt;Node1 -->
<g id="edge1_Node000001_Node000002" class="edge">
<title>Node2&#45;&gt;Node1</title>
<g id="a_edge1_Node000001_Node000002"><a xlink:title=" ">
<path fill="none" stroke="#9a32cd" stroke-dasharray="5,2" d="M100.33,-65.5C87.23,-51.21 69.23,-31.57 58.8,-20.19"/>
<polygon fill="#9a32cd" stroke="#9a32cd" points="97.39,-67.47 106.72,-72.47 102.55,-62.73 97.39,-67.47"/>
</a>
</g>
<text xml:space="preserve" text-anchor="start" x="94.23" y="-43.5" font-family="Helvetica,sans-Serif" font-size="10.00" fill="grey">asset</text>
</g>
<!-- Node3 -->
<g id="Node000003" class="node">
<title>Node3</title>
<g id="a_Node000003"><a xlink:title=" ">
<polygon fill="white" stroke="#666666" points="146.12,-320 86.62,-320 86.62,-300 146.12,-300 146.12,-320"/>
<text xml:space="preserve" text-anchor="middle" x="116.38" y="-306.5" font-family="Helvetica,sans-Serif" font-size="10.00">std::string</text>
</a>
</g>
</g>
<!-- Node3&#45;&gt;Node1 -->
<g id="edge6_Node000001_Node000003" class="edge">
<title>Node3&#45;&gt;Node1</title>
<g id="a_edge6_Node000001_Node000003"><a xlink:title=" ">
<path fill="none" stroke="#9a32cd" stroke-dasharray="5,2" d="M104.86,-289.69C87.91,-260.02 57.03,-200.91 45.62,-146 35.99,-99.62 44.52,-42.38 48.54,-20.29"/>
<polygon fill="#9a32cd" stroke="#9a32cd" points="101.78,-291.36 109.84,-298.23 107.83,-287.83 101.78,-291.36"/>
</a>
</g>
<text xml:space="preserve" text-anchor="start" x="48.62" y="-125.5" font-family="Helvetica,sans-Serif" font-size="10.00" fill="grey">matchReason</text>
</g>
<!-- Node3&#45;&gt;Node2 -->
<g id="edge2_Node000002_Node000003" class="edge">
<title>Node3&#45;&gt;Node2</title>
<g id="a_edge2_Node000002_Node000003"><a xlink:title=" ">
<path fill="none" stroke="#9a32cd" stroke-dasharray="5,2" d="M116.38,-288.26C116.38,-241.19 116.38,-127.74 116.38,-94.38"/>
<polygon fill="#9a32cd" stroke="#9a32cd" points="112.88,-288.15 116.38,-298.15 119.88,-288.15 112.88,-288.15"/>
</a>
</g>
<text xml:space="preserve" text-anchor="start" x="119.38" y="-233.5" font-family="Helvetica,sans-Serif" font-size="10.00" fill="grey">absPath</text>
<text xml:space="preserve" text-anchor="start" x="119.38" y="-217.5" font-family="Helvetica,sans-Serif" font-size="10.00" fill="grey">guid</text>
<text xml:space="preserve" text-anchor="start" x="119.38" y="-201.5" font-family="Helvetica,sans-Serif" font-size="10.00" fill="grey">mount</text>
<text xml:space="preserve" text-anchor="start" x="119.38" y="-185.5" font-family="Helvetica,sans-Serif" font-size="10.00" fill="grey">name</text>
<text xml:space="preserve" text-anchor="start" x="119.38" y="-169.5" font-family="Helvetica,sans-Serif" font-size="10.00" fill="grey">type</text>
</g>
<!-- Node5 -->
<g id="Node000005" class="node">
<title>Node5</title>
<g id="a_Node000005"><a xlink:title=" ">
<polygon fill="white" stroke="#666666" points="300.38,-215 176.38,-215 176.38,-195 300.38,-195 300.38,-215"/>
<text xml:space="preserve" text-anchor="middle" x="238.38" y="-201.5" font-family="Helvetica,sans-Serif" font-size="10.00">std::vector&lt; std::string &gt;</text>
</a>
</g>
</g>
<!-- Node3&#45;&gt;Node5 -->
<g id="edge5_Node000005_Node000003" class="edge">
<title>Node3&#45;&gt;Node5</title>
<g id="a_edge5_Node000005_Node000003"><a xlink:title=" ">
<path fill="none" stroke="#9a32cd" stroke-dasharray="5,2" d="M135.8,-292.6C161.71,-270.72 206.71,-232.73 227.4,-215.27"/>
<polygon fill="#9a32cd" stroke="#9a32cd" points="133.74,-289.76 128.36,-298.88 138.26,-295.11 133.74,-289.76"/>
</a>
</g>
<text xml:space="preserve" text-anchor="start" x="169.45" y="-269.5" font-family="Helvetica,sans-Serif" font-size="10.00" fill="grey">elements</text>
</g>
<!-- Node4 -->
<g id="Node000004" class="node">
<title>Node4</title>
<g id="a_Node000004"><a xlink:title=" ">
<polygon fill="white" stroke="#666666" points="163.38,-389 69.38,-389 69.38,-357 163.38,-357 163.38,-389"/>
<text xml:space="preserve" text-anchor="start" x="77.38" y="-375.5" font-family="Helvetica,sans-Serif" font-size="10.00">std::basic_string&lt;</text>
<text xml:space="preserve" text-anchor="middle" x="116.38" y="-363.5" font-family="Helvetica,sans-Serif" font-size="10.00"> Char &gt;</text>
</a>
</g>
</g>
<!-- Node4&#45;&gt;Node3 -->
<g id="edge3_Node000003_Node000004" class="edge">
<title>Node4&#45;&gt;Node3</title>
<g id="a_edge3_Node000003_Node000004"><a xlink:title=" ">
<path fill="none" stroke="#63b8ff" d="M116.38,-345.36C116.38,-336.41 116.38,-327.01 116.38,-320.31"/>
<polygon fill="#63b8ff" stroke="#63b8ff" points="112.88,-345.09 116.38,-355.09 119.88,-345.09 112.88,-345.09"/>
</a>
</g>
</g>
<!-- Node5&#45;&gt;Node2 -->
<g id="edge4_Node000002_Node000005" class="edge">
<title>Node5&#45;&gt;Node2</title>
<g id="a_edge4_Node000002_Node000005"><a xlink:title=" ">
<path fill="none" stroke="#9a32cd" stroke-dasharray="5,2" d="M220.86,-186.91C194.71,-161.41 146.35,-114.24 125.9,-94.29"/>
<polygon fill="#9a32cd" stroke="#9a32cd" points="218.12,-189.13 227.72,-193.61 223,-184.12 218.12,-189.13"/>
</a>
</g>
<text xml:space="preserve" text-anchor="start" x="180.38" y="-133.5" font-family="Helvetica,sans-Serif" font-size="10.00" fill="grey">dependencies</text>
<text xml:space="preserve" text-anchor="start" x="180.38" y="-117.5" font-family="Helvetica,sans-Serif" font-size="10.00" fill="grey">tags</text>
</g>
</g>
</svg>
