<?xml version="1.0" encoding="UTF-8" standalone="no"?>
<!DOCTYPE svg PUBLIC "-//W3C//DTD SVG 1.1//EN"
 "http://www.w3.org/Graphics/SVG/1.1/DTD/svg11.dtd">
<!-- Generated by graphviz version 14.0.2 (20251019.1705)
 -->
<!-- Title: LGE::IntegrityResult Pages: 1 -->
<svg width="126pt" height="187pt"
 viewBox="0.00 0.00 126.00 187.00" xmlns="http://www.w3.org/2000/svg" xmlns:xlink="http://www.w3.org/1999/xlink">
<g id="graph0" class="graph" transform="scale(1 1) rotate(0) translate(4 183)">
<title>LGE::IntegrityResult</title>
<!-- Node1 -->
<g id="Node000001" class="node">
<title>Node1</title>
<g id="a_Node000001"><a xlink:title=" ">
<polygon fill="#999999" stroke="#666666" points="105.25,-20 0,-20 0,0 105.25,0 105.25,-20"/>
<text xml:space="preserve" text-anchor="middle" x="52.62" y="-6.5" font-family="Helvetica,sans-Serif" font-size="10.00">LGE::IntegrityResult</text>
</a>
</g>
</g>
<!-- Node2 -->
<g id="Node000002" class="node">
<title>Node2</title>
<g id="a_Node000002"><a xlink:title=" ">
<polygon fill="white" stroke="#666666" points="82.38,-110 22.87,-110 22.87,-90 82.38,-90 82.38,-110"/>
<text xml:space="preserve" text-anchor="middle" x="52.62" y="-96.5" font-family="Helvetica,sans-Serif" font-size="10.00">std::string</text>
</a>
</g>
</g>
<!-- Node2&#45;&gt;Node1 -->
<g id="edge1_Node000001_Node000002" class="edge">
<title>Node2&#45;&gt;Node1</title>
<g id="a_edge1_Node000001_Node000002"><a xlink:title=" ">
<path fill="none" stroke="#9a32cd" stroke-dasharray="5,2" d="M52.62,-78.09C52.62,-59.77 52.62,-34.01 52.62,-20.35"/>
<polygon fill="#9a32cd" stroke="#9a32cd" points="49.13,-78.07 52.63,-88.07 56.13,-78.07 49.13,-78.07"/>
</a>
</g>
<text xml:space="preserve" text-anchor="start" x="55.62" y="-59.5" font-family="Helvetica,sans-Serif" font-size="10.00" fill="grey">checksum</text>
<text xml:space="preserve" text-anchor="start" x="55.62" y="-43.5" font-family="Helvetica,sans-Serif" font-size="10.00" fill="grey">errorMessage</text>
</g>
<!-- Node3 -->
<g id="Node000003" class="node">
<title>Node3</title>
<g id="a_Node000003"><a xlink:title=" ">
<polygon fill="white" stroke="#666666" points="99.62,-179 5.62,-179 5.62,-147 99.62,-147 99.62,-179"/>
<text xml:space="preserve" text-anchor="start" x="13.62" y="-165.5" font-family="Helvetica,sans-Serif" font-size="10.00">std::basic_string&lt;</text>
<text xml:space="preserve" text-anchor="middle" x="52.62" y="-153.5" font-family="Helvetica,sans-Serif" font-size="10.00"> Char &gt;</text>
</a>
</g>
</g>
<!-- Node3&#45;&gt;Node2 -->
<g id="edge2_Node000002_Node000003" class="edge">
<title>Node3&#45;&gt;Node2</title>
<g id="a_edge2_Node000002_Node000003"><a xlink:title=" ">
<path fill="none" stroke="#63b8ff" d="M52.62,-135.36C52.62,-126.41 52.62,-117.01 52.62,-110.31"/>
<polygon fill="#63b8ff" stroke="#63b8ff" points="49.13,-135.09 52.63,-145.09 56.13,-135.09 49.13,-135.09"/>
</a>
</g>
</g>
</g>
</svg>
