<?xml version="1.0" encoding="UTF-8" standalone="no"?>
<!DOCTYPE svg PUBLIC "-//W3C//DTD SVG 1.1//EN"
 "http://www.w3.org/Graphics/SVG/1.1/DTD/svg11.dtd">
<!-- Generated by graphviz version 14.0.2 (20251019.1705)
 -->
<!-- Title: LGE::DependencyNode Pages: 1 -->
<svg width="219pt" height="275pt"
 viewBox="0.00 0.00 219.00 275.00" xmlns="http://www.w3.org/2000/svg" xmlns:xlink="http://www.w3.org/1999/xlink">
<g id="graph0" class="graph" transform="scale(1 1) rotate(0) translate(4 271)">
<title>LGE::DependencyNode</title>
<!-- Node1 -->
<g id="Node000001" class="node">
<title>Node1</title>
<g id="a_Node000001"><a xlink:title=" ">
<polygon fill="#999999" stroke="#666666" points="119.5,-20 0,-20 0,0 119.5,0 119.5,-20"/>
<text xml:space="preserve" text-anchor="middle" x="59.75" y="-6.5" font-family="Helvetica,sans-Serif" font-size="10.00">LGE::DependencyNode</text>
</a>
</g>
</g>
<!-- Node2 -->
<g id="Node000002" class="node">
<title>Node2</title>
<g id="a_Node000002"><a xlink:title=" ">
<polygon fill="white" stroke="#666666" points="89.5,-198 30,-198 30,-178 89.5,-178 89.5,-198"/>
<text xml:space="preserve" text-anchor="middle" x="59.75" y="-184.5" font-family="Helvetica,sans-Serif" font-size="10.00">std::string</text>
</a>
</g>
</g>
<!-- Node2&#45;&gt;Node1 -->
<g id="edge1_Node000001_Node000002" class="edge">
<title>Node2&#45;&gt;Node1</title>
<g id="a_edge1_Node000001_Node000002"><a xlink:title=" ">
<path fill="none" stroke="#9a32cd" stroke-dasharray="5,2" d="M56.98,-166.37C55.47,-154.09 53.76,-138.19 53,-124 50.95,-85.53 55.99,-39.73 58.47,-20.37"/>
<polygon fill="#9a32cd" stroke="#9a32cd" points="53.49,-166.66 58.24,-176.13 60.43,-165.77 53.49,-166.66"/>
</a>
</g>
<text xml:space="preserve" text-anchor="start" x="56" y="-111.5" font-family="Helvetica,sans-Serif" font-size="10.00" fill="grey">guid</text>
<text xml:space="preserve" text-anchor="start" x="56" y="-95.5" font-family="Helvetica,sans-Serif" font-size="10.00" fill="grey">path</text>
</g>
<!-- Node4 -->
<g id="Node000004" class="node">
<title>Node4</title>
<g id="a_Node000004"><a xlink:title=" ">
<polygon fill="white" stroke="#666666" points="210.75,-117 86.75,-117 86.75,-97 210.75,-97 210.75,-117"/>
<text xml:space="preserve" text-anchor="middle" x="148.75" y="-103.5" font-family="Helvetica,sans-Serif" font-size="10.00">std::vector&lt; std::string &gt;</text>
</a>
</g>
</g>
<!-- Node2&#45;&gt;Node4 -->
<g id="edge4_Node000004_Node000002" class="edge">
<title>Node2&#45;&gt;Node4</title>
<g id="a_edge4_Node000004_Node000002"><a xlink:title=" ">
<path fill="none" stroke="#9a32cd" stroke-dasharray="5,2" d="M78.42,-170.42C96.57,-154.31 123.49,-130.42 138.2,-117.36"/>
<polygon fill="#9a32cd" stroke="#9a32cd" points="76.6,-167.37 71.44,-176.62 81.24,-172.6 76.6,-167.37"/>
</a>
</g>
<text xml:space="preserve" text-anchor="start" x="112.58" y="-147.5" font-family="Helvetica,sans-Serif" font-size="10.00" fill="grey">elements</text>
</g>
<!-- Node3 -->
<g id="Node000003" class="node">
<title>Node3</title>
<g id="a_Node000003"><a xlink:title=" ">
<polygon fill="white" stroke="#666666" points="106.75,-267 12.75,-267 12.75,-235 106.75,-235 106.75,-267"/>
<text xml:space="preserve" text-anchor="start" x="20.75" y="-253.5" font-family="Helvetica,sans-Serif" font-size="10.00">std::basic_string&lt;</text>
<text xml:space="preserve" text-anchor="middle" x="59.75" y="-241.5" font-family="Helvetica,sans-Serif" font-size="10.00"> Char &gt;</text>
</a>
</g>
</g>
<!-- Node3&#45;&gt;Node2 -->
<g id="edge2_Node000002_Node000003" class="edge">
<title>Node3&#45;&gt;Node2</title>
<g id="a_edge2_Node000002_Node000003"><a xlink:title=" ">
<path fill="none" stroke="#63b8ff" d="M59.75,-223.36C59.75,-214.41 59.75,-205.01 59.75,-198.31"/>
<polygon fill="#63b8ff" stroke="#63b8ff" points="56.25,-223.09 59.75,-233.09 63.25,-223.09 56.25,-223.09"/>
</a>
</g>
</g>
<!-- Node4&#45;&gt;Node1 -->
<g id="edge3_Node000001_Node000004" class="edge">
<title>Node4&#45;&gt;Node1</title>
<g id="a_edge3_Node000001_Node000004"><a xlink:title=" ">
<path fill="none" stroke="#9a32cd" stroke-dasharray="5,2" d="M132.12,-88.25C113.3,-68.16 83.34,-36.18 68.57,-20.42"/>
<polygon fill="#9a32cd" stroke="#9a32cd" points="129.47,-90.53 138.86,-95.44 134.57,-85.75 129.47,-90.53"/>
</a>
</g>
<text xml:space="preserve" text-anchor="start" x="117.84" y="-59.5" font-family="Helvetica,sans-Serif" font-size="10.00" fill="grey">dependencies</text>
<text xml:space="preserve" text-anchor="start" x="117.84" y="-43.5" font-family="Helvetica,sans-Serif" font-size="10.00" fill="grey">dependents</text>
</g>
</g>
</svg>
