<?xml version="1.0" encoding="UTF-8" standalone="no"?>
<!DOCTYPE svg PUBLIC "-//W3C//DTD SVG 1.1//EN"
 "http://www.w3.org/Graphics/SVG/1.1/DTD/svg11.dtd">
<!-- Generated by graphviz version 14.0.2 (20251019.1705)
 -->
<!-- Title: LGE::FSWatch::QueuedEvent Pages: 1 -->
<svg width="229pt" height="261pt"
 viewBox="0.00 0.00 229.00 261.00" xmlns="http://www.w3.org/2000/svg" xmlns:xlink="http://www.w3.org/1999/xlink">
<g id="graph0" class="graph" transform="scale(1 1) rotate(0) translate(4 257)">
<title>LGE::FSWatch::QueuedEvent</title>
<!-- Node1 -->
<g id="Node000001" class="node">
<title>Node1</title>
<g id="a_Node000001"><a xlink:title=" ">
<polygon fill="#999999" stroke="#666666" points="147.25,-20 0,-20 0,0 147.25,0 147.25,-20"/>
<text xml:space="preserve" text-anchor="middle" x="73.62" y="-6.5" font-family="Helvetica,sans-Serif" font-size="10.00">LGE::FSWatch::QueuedEvent</text>
</a>
</g>
</g>
<!-- Node2 -->
<g id="Node000002" class="node">
<title>Node2</title>
<g id="a_Node000002"><a xlink:href="structLGE_1_1FileEvent.html" target="_top" xlink:title=" ">
<polygon fill="white" stroke="#666666" points="221,-94 138.25,-94 138.25,-74 221,-74 221,-94"/>
<text xml:space="preserve" text-anchor="middle" x="179.62" y="-80.5" font-family="Helvetica,sans-Serif" font-size="10.00">LGE::FileEvent</text>
</a>
</g>
</g>
<!-- Node2&#45;&gt;Node1 -->
<g id="edge1_Node000001_Node000002" class="edge">
<title>Node2&#45;&gt;Node1</title>
<g id="a_edge1_Node000001_Node000002"><a xlink:title=" ">
<path fill="none" stroke="#9a32cd" stroke-dasharray="5,2" d="M156.27,-67.13C135.21,-52.83 104.95,-32.27 87.49,-20.42"/>
<polygon fill="#9a32cd" stroke="#9a32cd" points="154.28,-70.01 164.52,-72.74 158.21,-64.22 154.28,-70.01"/>
</a>
</g>
<text xml:space="preserve" text-anchor="start" x="142.24" y="-43.5" font-family="Helvetica,sans-Serif" font-size="10.00" fill="grey">event</text>
</g>
<!-- Node3 -->
<g id="Node000003" class="node">
<title>Node3</title>
<g id="a_Node000003"><a xlink:title=" ">
<polygon fill="white" stroke="#666666" points="103.38,-184 43.88,-184 43.88,-164 103.38,-164 103.38,-184"/>
<text xml:space="preserve" text-anchor="middle" x="73.62" y="-170.5" font-family="Helvetica,sans-Serif" font-size="10.00">std::string</text>
</a>
</g>
</g>
<!-- Node3&#45;&gt;Node1 -->
<g id="edge4_Node000001_Node000003" class="edge">
<title>Node3&#45;&gt;Node1</title>
<g id="a_edge4_Node000001_Node000003"><a xlink:title=" ">
<path fill="none" stroke="#9a32cd" stroke-dasharray="5,2" d="M70.65,-152.34C68.12,-132.32 65.12,-101.1 66.62,-74 67.68,-54.88 70.54,-32.65 72.26,-20.37"/>
<polygon fill="#9a32cd" stroke="#9a32cd" points="67.17,-152.79 71.99,-162.22 74.11,-151.85 67.17,-152.79"/>
</a>
</g>
<text xml:space="preserve" text-anchor="start" x="69.62" y="-80.5" font-family="Helvetica,sans-Serif" font-size="10.00" fill="grey">watchedPath</text>
</g>
<!-- Node3&#45;&gt;Node2 -->
<g id="edge2_Node000002_Node000003" class="edge">
<title>Node3&#45;&gt;Node2</title>
<g id="a_edge2_Node000002_Node000003"><a xlink:title=" ">
<path fill="none" stroke="#9a32cd" stroke-dasharray="5,2" d="M93.58,-156.44C115.68,-138.08 150.56,-109.13 168.36,-94.35"/>
<polygon fill="#9a32cd" stroke="#9a32cd" points="91.59,-153.54 86.13,-162.62 96.06,-158.92 91.59,-153.54"/>
</a>
</g>
<text xml:space="preserve" text-anchor="start" x="148.34" y="-133.5" font-family="Helvetica,sans-Serif" font-size="10.00" fill="grey">oldPath</text>
<text xml:space="preserve" text-anchor="start" x="148.34" y="-117.5" font-family="Helvetica,sans-Serif" font-size="10.00" fill="grey">path</text>
</g>
<!-- Node4 -->
<g id="Node000004" class="node">
<title>Node4</title>
<g id="a_Node000004"><a xlink:title=" ">
<polygon fill="white" stroke="#666666" points="120.62,-253 26.62,-253 26.62,-221 120.62,-221 120.62,-253"/>
<text xml:space="preserve" text-anchor="start" x="34.62" y="-239.5" font-family="Helvetica,sans-Serif" font-size="10.00">std::basic_string&lt;</text>
<text xml:space="preserve" text-anchor="middle" x="73.62" y="-227.5" font-family="Helvetica,sans-Serif" font-size="10.00"> Char &gt;</text>
</a>
</g>
</g>
<!-- Node4&#45;&gt;Node3 -->
<g id="edge3_Node000003_Node000004" class="edge">
<title>Node4&#45;&gt;Node3</title>
<g id="a_edge3_Node000003_Node000004"><a xlink:title=" ">
<path fill="none" stroke="#63b8ff" d="M73.62,-209.36C73.62,-200.41 73.62,-191.01 73.62,-184.31"/>
<polygon fill="#63b8ff" stroke="#63b8ff" points="70.13,-209.09 73.63,-219.09 77.13,-209.09 70.13,-209.09"/>
</a>
</g>
</g>
</g>
</svg>
