<?xml version="1.0" encoding="UTF-8" standalone="no"?>
<!DOCTYPE svg PUBLIC "-//W3C//DTD SVG 1.1//EN"
 "http://www.w3.org/Graphics/SVG/1.1/DTD/svg11.dtd">
<!-- Generated by graphviz version 14.0.2 (20251019.1705)
 -->
<!-- Title: LGE::ImportResult Pages: 1 -->
<svg width="122pt" height="203pt"
 viewBox="0.00 0.00 122.00 203.00" xmlns="http://www.w3.org/2000/svg" xmlns:xlink="http://www.w3.org/1999/xlink">
<g id="graph0" class="graph" transform="scale(1 1) rotate(0) translate(4 199)">
<title>LGE::ImportResult</title>
<!-- Node1 -->
<g id="Node000001" class="node">
<title>Node1</title>
<g id="a_Node000001"><a xlink:title=" ">
<polygon fill="#999999" stroke="#666666" points="97.75,-20 0,-20 0,0 97.75,0 97.75,-20"/>
<text xml:space="preserve" text-anchor="middle" x="48.88" y="-6.5" font-family="Helvetica,sans-Serif" font-size="10.00">LGE::ImportResult</text>
</a>
</g>
</g>
<!-- Node2 -->
<g id="Node000002" class="node">
<title>Node2</title>
<g id="a_Node000002"><a xlink:title=" ">
<polygon fill="white" stroke="#666666" points="78.62,-126 19.12,-126 19.12,-106 78.62,-106 78.62,-126"/>
<text xml:space="preserve" text-anchor="middle" x="48.88" y="-112.5" font-family="Helvetica,sans-Serif" font-size="10.00">std::string</text>
</a>
</g>
</g>
<!-- Node2&#45;&gt;Node1 -->
<g id="edge1_Node000001_Node000002" class="edge">
<title>Node2&#45;&gt;Node1</title>
<g id="a_edge1_Node000001_Node000002"><a xlink:title=" ">
<path fill="none" stroke="#9a32cd" stroke-dasharray="5,2" d="M48.88,-94.51C48.88,-72.04 48.88,-36.99 48.88,-20.36"/>
<polygon fill="#9a32cd" stroke="#9a32cd" points="45.38,-94.26 48.88,-104.26 52.38,-94.26 45.38,-94.26"/>
</a>
</g>
<text xml:space="preserve" text-anchor="start" x="51.88" y="-75.5" font-family="Helvetica,sans-Serif" font-size="10.00" fill="grey">assetGuid</text>
<text xml:space="preserve" text-anchor="start" x="51.88" y="-59.5" font-family="Helvetica,sans-Serif" font-size="10.00" fill="grey">assetPath</text>
<text xml:space="preserve" text-anchor="start" x="51.88" y="-43.5" font-family="Helvetica,sans-Serif" font-size="10.00" fill="grey">errorMessage</text>
</g>
<!-- Node3 -->
<g id="Node000003" class="node">
<title>Node3</title>
<g id="a_Node000003"><a xlink:title=" ">
<polygon fill="white" stroke="#666666" points="95.88,-195 1.87,-195 1.87,-163 95.88,-163 95.88,-195"/>
<text xml:space="preserve" text-anchor="start" x="9.88" y="-181.5" font-family="Helvetica,sans-Serif" font-size="10.00">std::basic_string&lt;</text>
<text xml:space="preserve" text-anchor="middle" x="48.88" y="-169.5" font-family="Helvetica,sans-Serif" font-size="10.00"> Char &gt;</text>
</a>
</g>
</g>
<!-- Node3&#45;&gt;Node2 -->
<g id="edge2_Node000002_Node000003" class="edge">
<title>Node3&#45;&gt;Node2</title>
<g id="a_edge2_Node000002_Node000003"><a xlink:title=" ">
<path fill="none" stroke="#63b8ff" d="M48.88,-151.36C48.88,-142.41 48.88,-133.01 48.88,-126.31"/>
<polygon fill="#63b8ff" stroke="#63b8ff" points="45.38,-151.09 48.88,-161.09 52.38,-151.09 45.38,-151.09"/>
</a>
</g>
</g>
</g>
</svg>
