<?xml version="1.0" encoding="UTF-8" standalone="no"?>
<!DOCTYPE svg PUBLIC "-//W3C//DTD SVG 1.1//EN"
 "http://www.w3.org/Graphics/SVG/1.1/DTD/svg11.dtd">
<!-- Generated by graphviz version 14.0.2 (20251019.1705)
 -->
<!-- Title: LGE::MaterialParameter Pages: 1 -->
<svg width="358pt" height="188pt"
 viewBox="0.00 0.00 358.00 188.00" xmlns="http://www.w3.org/2000/svg" xmlns:xlink="http://www.w3.org/1999/xlink">
<g id="graph0" class="graph" transform="scale(1 1) rotate(0) translate(4 184)">
<title>LGE::MaterialParameter</title>
<!-- Node1 -->
<g id="Node000001" class="node">
<title>Node1</title>
<g id="a_Node000001"><a xlink:title=" ">
<polygon fill="#999999" stroke="#666666" points="231.62,-20 110.62,-20 110.62,0 231.62,0 231.62,-20"/>
<text xml:space="preserve" text-anchor="middle" x="171.12" y="-6.5" font-family="Helvetica,sans-Serif" font-size="10.00">LGE::MaterialParameter</text>
</a>
</g>
</g>
<!-- Node2 -->
<g id="Node000002" class="node">
<title>Node2</title>
<g id="a_Node000002"><a xlink:href="structLGE_1_1Math_1_1Vector3.html" target="_top" xlink:title=" ">
<polygon fill="white" stroke="#666666" points="102.25,-100 0,-100 0,-80 102.25,-80 102.25,-100"/>
<text xml:space="preserve" text-anchor="middle" x="51.12" y="-86.5" font-family="Helvetica,sans-Serif" font-size="10.00">LGE::Math::Vector3</text>
</a>
</g>
</g>
<!-- Node2&#45;&gt;Node1 -->
<g id="edge1_Node000001_Node000002" class="edge">
<title>Node2&#45;&gt;Node1</title>
<g id="a_edge1_Node000001_Node000002"><a xlink:title=" ">
<path fill="none" stroke="#9a32cd" stroke-dasharray="5,2" d="M66.51,-71.37C76.59,-60.64 90.52,-47.26 104.88,-38 116.04,-30.79 129.45,-24.9 141.27,-20.47"/>
<polygon fill="#9a32cd" stroke="#9a32cd" points="64.18,-68.74 60.04,-78.49 69.36,-73.45 64.18,-68.74"/>
</a>
</g>
<text xml:space="preserve" text-anchor="start" x="107.88" y="-43.5" font-family="Helvetica,sans-Serif" font-size="10.00" fill="grey">vector3Value</text>
</g>
<!-- Node3 -->
<g id="Node000003" class="node">
<title>Node3</title>
<g id="a_Node000003"><a xlink:href="structLGE_1_1Math_1_1Vector4.html" target="_top" xlink:title=" ">
<polygon fill="white" stroke="#666666" points="222.25,-100 120,-100 120,-80 222.25,-80 222.25,-100"/>
<text xml:space="preserve" text-anchor="middle" x="171.12" y="-86.5" font-family="Helvetica,sans-Serif" font-size="10.00">LGE::Math::Vector4</text>
</a>
</g>
</g>
<!-- Node3&#45;&gt;Node1 -->
<g id="edge2_Node000001_Node000003" class="edge">
<title>Node3&#45;&gt;Node1</title>
<g id="a_edge2_Node000001_Node000003"><a xlink:title=" ">
<path fill="none" stroke="#9a32cd" stroke-dasharray="5,2" d="M171.12,-68.59C171.12,-52.94 171.12,-32.08 171.12,-20.24"/>
<polygon fill="#9a32cd" stroke="#9a32cd" points="167.63,-68.23 171.13,-78.23 174.63,-68.23 167.63,-68.23"/>
</a>
</g>
<text xml:space="preserve" text-anchor="start" x="174.12" y="-43.5" font-family="Helvetica,sans-Serif" font-size="10.00" fill="grey">vector4Value</text>
</g>
<!-- Node4 -->
<g id="Node000004" class="node">
<title>Node4</title>
<g id="a_Node000004"><a xlink:title=" ">
<polygon fill="white" stroke="#666666" points="350,-106 240.25,-106 240.25,-74 350,-74 350,-106"/>
<text xml:space="preserve" text-anchor="start" x="248.25" y="-92.5" font-family="Helvetica,sans-Serif" font-size="10.00">std::shared_ptr&lt; LGE</text>
<text xml:space="preserve" text-anchor="middle" x="295.12" y="-80.5" font-family="Helvetica,sans-Serif" font-size="10.00">::Texture &gt;</text>
</a>
</g>
</g>
<!-- Node4&#45;&gt;Node1 -->
<g id="edge3_Node000001_Node000004" class="edge">
<title>Node4&#45;&gt;Node1</title>
<g id="a_edge3_Node000001_Node000004"><a xlink:title=" ">
<path fill="none" stroke="#9a32cd" stroke-dasharray="5,2" d="M272.23,-65.69C262.09,-56.25 249.64,-45.76 237.12,-38 225.65,-30.89 211.99,-24.94 200.07,-20.45"/>
<polygon fill="#9a32cd" stroke="#9a32cd" points="269.77,-68.18 279.4,-72.58 274.62,-63.13 269.77,-68.18"/>
</a>
</g>
<text xml:space="preserve" text-anchor="start" x="263.93" y="-43.5" font-family="Helvetica,sans-Serif" font-size="10.00" fill="grey">textureValue</text>
</g>
<!-- Node5 -->
<g id="Node000005" class="node">
<title>Node5</title>
<g id="a_Node000005"><a xlink:href="classLGE_1_1Texture.html" target="_top" xlink:title=" ">
<polygon fill="white" stroke="#666666" points="332,-180 258.25,-180 258.25,-160 332,-160 332,-180"/>
<text xml:space="preserve" text-anchor="middle" x="295.12" y="-166.5" font-family="Helvetica,sans-Serif" font-size="10.00">LGE::Texture</text>
</a>
</g>
</g>
<!-- Node5&#45;&gt;Node4 -->
<g id="edge4_Node000004_Node000005" class="edge">
<title>Node5&#45;&gt;Node4</title>
<g id="a_edge4_Node000004_Node000005"><a xlink:title=" ">
<path fill="none" stroke="#9a32cd" stroke-dasharray="5,2" d="M295.12,-148.51C295.12,-135.32 295.12,-118.47 295.12,-106.42"/>
<polygon fill="#9a32cd" stroke="#9a32cd" points="291.63,-148.23 295.13,-158.23 298.63,-148.23 291.63,-148.23"/>
</a>
</g>
<text xml:space="preserve" text-anchor="start" x="298.12" y="-129.5" font-family="Helvetica,sans-Serif" font-size="10.00" fill="grey">ptr</text>
</g>
</g>
</svg>
