<?xml version="1.0" encoding="UTF-8" standalone="no"?>
<!DOCTYPE svg PUBLIC "-//W3C//DTD SVG 1.1//EN"
 "http://www.w3.org/Graphics/SVG/1.1/DTD/svg11.dtd">
<!-- Generated by graphviz version 14.0.2 (20251019.1705)
 -->
<!-- Title: LGE::ProjectPaths Pages: 1 -->
<svg width="109pt" height="267pt"
 viewBox="0.00 0.00 109.00 267.00" xmlns="http://www.w3.org/2000/svg" xmlns:xlink="http://www.w3.org/1999/xlink">
<g id="graph0" class="graph" transform="scale(1 1) rotate(0) translate(4 263)">
<title>LGE::ProjectPaths</title>
<!-- Node1 -->
<g id="Node000001" class="node">
<title>Node1</title>
<g id="a_Node000001"><a xlink:title=" ">
<polygon fill="#999999" stroke="#666666" points="97.75,-20 0,-20 0,0 97.75,0 97.75,-20"/>
<text xml:space="preserve" text-anchor="middle" x="48.88" y="-6.5" font-family="Helvetica,sans-Serif" font-size="10.00">LGE::ProjectPaths</text>
</a>
</g>
</g>
<!-- Node2 -->
<g id="Node000002" class="node">
<title>Node2</title>
<g id="a_Node000002"><a xlink:title=" ">
<polygon fill="white" stroke="#666666" points="78.62,-190 19.12,-190 19.12,-170 78.62,-170 78.62,-190"/>
<text xml:space="preserve" text-anchor="middle" x="48.88" y="-176.5" font-family="Helvetica,sans-Serif" font-size="10.00">std::string</text>
</a>
</g>
</g>
<!-- Node2&#45;&gt;Node1 -->
<g id="edge1_Node000001_Node000002" class="edge">
<title>Node2&#45;&gt;Node1</title>
<g id="a_edge1_Node000001_Node000002"><a xlink:title=" ">
<path fill="none" stroke="#9a32cd" stroke-dasharray="5,2" d="M48.88,-158.86C48.88,-122.47 48.88,-47.03 48.88,-20.49"/>
<polygon fill="#9a32cd" stroke="#9a32cd" points="45.38,-158.45 48.88,-168.45 52.38,-158.45 45.38,-158.45"/>
</a>
</g>
<text xml:space="preserve" text-anchor="start" x="51.88" y="-139.5" font-family="Helvetica,sans-Serif" font-size="10.00" fill="grey">assets</text>
<text xml:space="preserve" text-anchor="start" x="51.88" y="-123.5" font-family="Helvetica,sans-Serif" font-size="10.00" fill="grey">cache</text>
<text xml:space="preserve" text-anchor="start" x="51.88" y="-107.5" font-family="Helvetica,sans-Serif" font-size="10.00" fill="grey">packages</text>
<text xml:space="preserve" text-anchor="start" x="51.88" y="-91.5" font-family="Helvetica,sans-Serif" font-size="10.00" fill="grey">projectFile</text>
<text xml:space="preserve" text-anchor="start" x="51.88" y="-75.5" font-family="Helvetica,sans-Serif" font-size="10.00" fill="grey">recycleBin</text>
<text xml:space="preserve" text-anchor="start" x="51.88" y="-59.5" font-family="Helvetica,sans-Serif" font-size="10.00" fill="grey">root</text>
<text xml:space="preserve" text-anchor="start" x="51.88" y="-43.5" font-family="Helvetica,sans-Serif" font-size="10.00" fill="grey">settings</text>
</g>
<!-- Node3 -->
<g id="Node000003" class="node">
<title>Node3</title>
<g id="a_Node000003"><a xlink:title=" ">
<polygon fill="white" stroke="#666666" points="95.88,-259 1.87,-259 1.87,-227 95.88,-227 95.88,-259"/>
<text xml:space="preserve" text-anchor="start" x="9.88" y="-245.5" font-family="Helvetica,sans-Serif" font-size="10.00">std::basic_string&lt;</text>
<text xml:space="preserve" text-anchor="middle" x="48.88" y="-233.5" font-family="Helvetica,sans-Serif" font-size="10.00"> Char &gt;</text>
</a>
</g>
</g>
<!-- Node3&#45;&gt;Node2 -->
<g id="edge2_Node000002_Node000003" class="edge">
<title>Node3&#45;&gt;Node2</title>
<g id="a_edge2_Node000002_Node000003"><a xlink:title=" ">
<path fill="none" stroke="#63b8ff" d="M48.88,-215.36C48.88,-206.41 48.88,-197.01 48.88,-190.31"/>
<polygon fill="#63b8ff" stroke="#63b8ff" points="45.38,-215.09 48.88,-225.09 52.38,-215.09 45.38,-215.09"/>
</a>
</g>
</g>
</g>
</svg>
