<?xml version="1.0" encoding="UTF-8" standalone="no"?>
<!DOCTYPE svg PUBLIC "-//W3C//DTD SVG 1.1//EN"
 "http://www.w3.org/Graphics/SVG/1.1/DTD/svg11.dtd">
<!-- Generated by graphviz version 14.0.2 (20251019.1705)
 -->
<!-- Title: LGE::BundleManifest Pages: 1 -->
<svg width="251pt" height="339pt"
 viewBox="0.00 0.00 251.00 339.00" xmlns="http://www.w3.org/2000/svg" xmlns:xlink="http://www.w3.org/1999/xlink">
<g id="graph0" class="graph" transform="scale(1 1) rotate(0) translate(4 335)">
<title>LGE::BundleManifest</title>
<!-- Node1 -->
<g id="Node000001" class="node">
<title>Node1</title>
<g id="a_Node000001"><a xlink:title=" ">
<polygon fill="#999999" stroke="#666666" points="109,-20 0,-20 0,0 109,0 109,-20"/>
<text xml:space="preserve" text-anchor="middle" x="54.5" y="-6.5" font-family="Helvetica,sans-Serif" font-size="10.00">LGE::BundleManifest</text>
</a>
</g>
</g>
<!-- Node2 -->
<g id="Node000002" class="node">
<title>Node2</title>
<g id="a_Node000002"><a xlink:title=" ">
<polygon fill="white" stroke="#666666" points="84.25,-262 24.75,-262 24.75,-242 84.25,-242 84.25,-262"/>
<text xml:space="preserve" text-anchor="middle" x="54.5" y="-248.5" font-family="Helvetica,sans-Serif" font-size="10.00">std::string</text>
</a>
</g>
</g>
<!-- Node2&#45;&gt;Node1 -->
<g id="edge1_Node000001_Node000002" class="edge">
<title>Node2&#45;&gt;Node1</title>
<g id="a_edge1_Node000001_Node000002"><a xlink:title=" ">
<path fill="none" stroke="#9a32cd" stroke-dasharray="5,2" d="M51.83,-230.37C50.38,-218.09 48.73,-202.18 48,-188 45.76,-144.5 46.21,-133.52 48,-90 49.04,-64.7 51.94,-34.96 53.49,-20.23"/>
<polygon fill="#9a32cd" stroke="#9a32cd" points="48.34,-230.64 53.04,-240.13 55.28,-229.77 48.34,-230.64"/>
</a>
</g>
<text xml:space="preserve" text-anchor="start" x="51" y="-175.5" font-family="Helvetica,sans-Serif" font-size="10.00" fill="grey">bundleId</text>
<text xml:space="preserve" text-anchor="start" x="51" y="-159.5" font-family="Helvetica,sans-Serif" font-size="10.00" fill="grey">checksum</text>
<text xml:space="preserve" text-anchor="start" x="51" y="-143.5" font-family="Helvetica,sans-Serif" font-size="10.00" fill="grey">compression</text>
<text xml:space="preserve" text-anchor="start" x="51" y="-127.5" font-family="Helvetica,sans-Serif" font-size="10.00" fill="grey">description</text>
<text xml:space="preserve" text-anchor="start" x="51" y="-111.5" font-family="Helvetica,sans-Serif" font-size="10.00" fill="grey">name</text>
<text xml:space="preserve" text-anchor="start" x="51" y="-95.5" font-family="Helvetica,sans-Serif" font-size="10.00" fill="grey">version</text>
</g>
<!-- Node4 -->
<g id="Node000004" class="node">
<title>Node4</title>
<g id="a_Node000004"><a xlink:title=" ">
<polygon fill="white" stroke="#666666" points="242.5,-149 118.5,-149 118.5,-129 242.5,-129 242.5,-149"/>
<text xml:space="preserve" text-anchor="middle" x="180.5" y="-135.5" font-family="Helvetica,sans-Serif" font-size="10.00">std::vector&lt; std::string &gt;</text>
</a>
</g>
</g>
<!-- Node2&#45;&gt;Node4 -->
<g id="edge4_Node000004_Node000002" class="edge">
<title>Node2&#45;&gt;Node4</title>
<g id="a_edge4_Node000004_Node000002"><a xlink:title=" ">
<path fill="none" stroke="#9a32cd" stroke-dasharray="5,2" d="M73.8,-233.99C100.69,-210.31 148.51,-168.18 169.78,-149.44"/>
<polygon fill="#9a32cd" stroke="#9a32cd" points="71.57,-231.3 66.38,-240.54 76.2,-236.55 71.57,-231.3"/>
</a>
</g>
<text xml:space="preserve" text-anchor="start" x="105.51" y="-211.5" font-family="Helvetica,sans-Serif" font-size="10.00" fill="grey">elements</text>
</g>
<!-- Node3 -->
<g id="Node000003" class="node">
<title>Node3</title>
<g id="a_Node000003"><a xlink:title=" ">
<polygon fill="white" stroke="#666666" points="101.5,-331 7.5,-331 7.5,-299 101.5,-299 101.5,-331"/>
<text xml:space="preserve" text-anchor="start" x="15.5" y="-317.5" font-family="Helvetica,sans-Serif" font-size="10.00">std::basic_string&lt;</text>
<text xml:space="preserve" text-anchor="middle" x="54.5" y="-305.5" font-family="Helvetica,sans-Serif" font-size="10.00"> Char &gt;</text>
</a>
</g>
</g>
<!-- Node3&#45;&gt;Node2 -->
<g id="edge2_Node000002_Node000003" class="edge">
<title>Node3&#45;&gt;Node2</title>
<g id="a_edge2_Node000002_Node000003"><a xlink:title=" ">
<path fill="none" stroke="#63b8ff" d="M54.5,-287.36C54.5,-278.41 54.5,-269.01 54.5,-262.31"/>
<polygon fill="#63b8ff" stroke="#63b8ff" points="51,-287.09 54.5,-297.09 58,-287.09 51,-287.09"/>
</a>
</g>
</g>
<!-- Node4&#45;&gt;Node1 -->
<g id="edge3_Node000001_Node000004" class="edge">
<title>Node4&#45;&gt;Node1</title>
<g id="a_edge3_Node000001_Node000004"><a xlink:title=" ">
<path fill="none" stroke="#9a32cd" stroke-dasharray="5,2" d="M163.65,-121.01C136.73,-93.89 84.95,-41.69 63.82,-20.39"/>
<polygon fill="#9a32cd" stroke="#9a32cd" points="160.84,-123.16 170.37,-127.79 165.81,-118.23 160.84,-123.16"/>
</a>
</g>
<text xml:space="preserve" text-anchor="start" x="116.72" y="-59.5" font-family="Helvetica,sans-Serif" font-size="10.00" fill="grey">assetGuids</text>
<text xml:space="preserve" text-anchor="start" x="116.72" y="-43.5" font-family="Helvetica,sans-Serif" font-size="10.00" fill="grey">dependencies</text>
</g>
</g>
</svg>
