<?xml version="1.0" encoding="UTF-8" standalone="no"?>
<!DOCTYPE svg PUBLIC "-//W3C//DTD SVG 1.1//EN"
 "http://www.w3.org/Graphics/SVG/1.1/DTD/svg11.dtd">
<!-- Generated by graphviz version 14.0.2 (20251019.1705)
 -->
<!-- Title: LGE::Optimization::OptimizationRecommendation Pages: 1 -->
<svg width="155pt" height="199pt"
 viewBox="0.00 0.00 155.00 199.00" xmlns="http://www.w3.org/2000/svg" xmlns:xlink="http://www.w3.org/1999/xlink">
<g id="graph0" class="graph" transform="scale(1 1) rotate(0) translate(4 195)">
<title>LGE::Optimization::OptimizationRecommendation</title>
<!-- Node1 -->
<g id="Node000001" class="node">
<title>Node1</title>
<g id="a_Node000001"><a xlink:title=" ">
<polygon fill="#999999" stroke="#666666" points="147.25,-32 0,-32 0,0 147.25,0 147.25,-32"/>
<text xml:space="preserve" text-anchor="start" x="8" y="-18.5" font-family="Helvetica,sans-Serif" font-size="10.00">LGE::Optimization::</text>
<text xml:space="preserve" text-anchor="middle" x="73.62" y="-6.5" font-family="Helvetica,sans-Serif" font-size="10.00">OptimizationRecommendation</text>
</a>
</g>
</g>
<!-- Node2 -->
<g id="Node000002" class="node">
<title>Node2</title>
<g id="a_Node000002"><a xlink:title=" ">
<polygon fill="white" stroke="#666666" points="103.38,-122 43.88,-122 43.88,-102 103.38,-102 103.38,-122"/>
<text xml:space="preserve" text-anchor="middle" x="73.62" y="-108.5" font-family="Helvetica,sans-Serif" font-size="10.00">std::string</text>
</a>
</g>
</g>
<!-- Node2&#45;&gt;Node1 -->
<g id="edge1_Node000001_Node000002" class="edge">
<title>Node2&#45;&gt;Node1</title>
<g id="a_edge1_Node000001_Node000002"><a xlink:title=" ">
<path fill="none" stroke="#9a32cd" stroke-dasharray="5,2" d="M73.62,-90.37C73.62,-72.8 73.62,-47.97 73.62,-32.18"/>
<polygon fill="#9a32cd" stroke="#9a32cd" points="70.13,-90.13 73.63,-100.13 77.13,-90.13 70.13,-90.13"/>
</a>
</g>
<text xml:space="preserve" text-anchor="start" x="76.62" y="-71.5" font-family="Helvetica,sans-Serif" font-size="10.00" fill="grey">assetGuid</text>
<text xml:space="preserve" text-anchor="start" x="76.62" y="-55.5" font-family="Helvetica,sans-Serif" font-size="10.00" fill="grey">reason</text>
</g>
<!-- Node3 -->
<g id="Node000003" class="node">
<title>Node3</title>
<g id="a_Node000003"><a xlink:title=" ">
<polygon fill="white" stroke="#666666" points="120.62,-191 26.62,-191 26.62,-159 120.62,-159 120.62,-191"/>
<text xml:space="preserve" text-anchor="start" x="34.62" y="-177.5" font-family="Helvetica,sans-Serif" font-size="10.00">std::basic_string&lt;</text>
<text xml:space="preserve" text-anchor="middle" x="73.62" y="-165.5" font-family="Helvetica,sans-Serif" font-size="10.00"> Char &gt;</text>
</a>
</g>
</g>
<!-- Node3&#45;&gt;Node2 -->
<g id="edge2_Node000002_Node000003" class="edge">
<title>Node3&#45;&gt;Node2</title>
<g id="a_edge2_Node000002_Node000003"><a xlink:title=" ">
<path fill="none" stroke="#63b8ff" d="M73.62,-147.36C73.62,-138.41 73.62,-129.01 73.62,-122.31"/>
<polygon fill="#63b8ff" stroke="#63b8ff" points="70.13,-147.09 73.63,-157.09 77.13,-147.09 70.13,-147.09"/>
</a>
</g>
</g>
</g>
</svg>
