<?xml version="1.0" encoding="UTF-8" standalone="no"?>
<!DOCTYPE svg PUBLIC "-//W3C//DTD SVG 1.1//EN"
 "http://www.w3.org/Graphics/SVG/1.1/DTD/svg11.dtd">
<!-- Generated by graphviz version 14.0.2 (20251019.1705)
 -->
<!-- Title: LGE::VersionDiff Pages: 1 -->
<svg width="137pt" height="277pt"
 viewBox="0.00 0.00 137.00 277.00" xmlns="http://www.w3.org/2000/svg" xmlns:xlink="http://www.w3.org/1999/xlink">
<g id="graph0" class="graph" transform="scale(1 1) rotate(0) translate(4 273)">
<title>LGE::VersionDiff</title>
<!-- Node1 -->
<g id="Node000001" class="node">
<title>Node1</title>
<g id="a_Node000001"><a xlink:title=" ">
<polygon fill="#999999" stroke="#666666" points="106.38,-20 17.62,-20 17.62,0 106.38,0 106.38,-20"/>
<text xml:space="preserve" text-anchor="middle" x="62" y="-6.5" font-family="Helvetica,sans-Serif" font-size="10.00">LGE::VersionDiff</text>
</a>
</g>
</g>
<!-- Node2 -->
<g id="Node000002" class="node">
<title>Node2</title>
<g id="a_Node000002"><a xlink:title=" ">
<polygon fill="white" stroke="#666666" points="124,-126 0,-126 0,-106 124,-106 124,-126"/>
<text xml:space="preserve" text-anchor="middle" x="62" y="-112.5" font-family="Helvetica,sans-Serif" font-size="10.00">std::vector&lt; std::string &gt;</text>
</a>
</g>
</g>
<!-- Node2&#45;&gt;Node1 -->
<g id="edge1_Node000001_Node000002" class="edge">
<title>Node2&#45;&gt;Node1</title>
<g id="a_edge1_Node000001_Node000002"><a xlink:title=" ">
<path fill="none" stroke="#9a32cd" stroke-dasharray="5,2" d="M62,-94.51C62,-72.04 62,-36.99 62,-20.36"/>
<polygon fill="#9a32cd" stroke="#9a32cd" points="58.5,-94.26 62,-104.26 65.5,-94.26 58.5,-94.26"/>
</a>
</g>
<text xml:space="preserve" text-anchor="start" x="65" y="-75.5" font-family="Helvetica,sans-Serif" font-size="10.00" fill="grey">addedLines</text>
<text xml:space="preserve" text-anchor="start" x="65" y="-59.5" font-family="Helvetica,sans-Serif" font-size="10.00" fill="grey">modifiedLines</text>
<text xml:space="preserve" text-anchor="start" x="65" y="-43.5" font-family="Helvetica,sans-Serif" font-size="10.00" fill="grey">removedLines</text>
</g>
<!-- Node3 -->
<g id="Node000003" class="node">
<title>Node3</title>
<g id="a_Node000003"><a xlink:title=" ">
<polygon fill="white" stroke="#666666" points="91.75,-200 32.25,-200 32.25,-180 91.75,-180 91.75,-200"/>
<text xml:space="preserve" text-anchor="middle" x="62" y="-186.5" font-family="Helvetica,sans-Serif" font-size="10.00">std::string</text>
</a>
</g>
</g>
<!-- Node3&#45;&gt;Node2 -->
<g id="edge2_Node000002_Node000003" class="edge">
<title>Node3&#45;&gt;Node2</title>
<g id="a_edge2_Node000002_Node000003"><a xlink:title=" ">
<path fill="none" stroke="#9a32cd" stroke-dasharray="5,2" d="M62,-168.18C62,-154.29 62,-136.71 62,-126.19"/>
<polygon fill="#9a32cd" stroke="#9a32cd" points="58.5,-168.07 62,-178.07 65.5,-168.07 58.5,-168.07"/>
</a>
</g>
<text xml:space="preserve" text-anchor="start" x="65" y="-149.5" font-family="Helvetica,sans-Serif" font-size="10.00" fill="grey">elements</text>
</g>
<!-- Node4 -->
<g id="Node000004" class="node">
<title>Node4</title>
<g id="a_Node000004"><a xlink:title=" ">
<polygon fill="white" stroke="#666666" points="109,-269 15,-269 15,-237 109,-237 109,-269"/>
<text xml:space="preserve" text-anchor="start" x="23" y="-255.5" font-family="Helvetica,sans-Serif" font-size="10.00">std::basic_string&lt;</text>
<text xml:space="preserve" text-anchor="middle" x="62" y="-243.5" font-family="Helvetica,sans-Serif" font-size="10.00"> Char &gt;</text>
</a>
</g>
</g>
<!-- Node4&#45;&gt;Node3 -->
<g id="edge3_Node000003_Node000004" class="edge">
<title>Node4&#45;&gt;Node3</title>
<g id="a_edge3_Node000003_Node000004"><a xlink:title=" ">
<path fill="none" stroke="#63b8ff" d="M62,-225.36C62,-216.41 62,-207.01 62,-200.31"/>
<polygon fill="#63b8ff" stroke="#63b8ff" points="58.5,-225.09 62,-235.09 65.5,-225.09 58.5,-225.09"/>
</a>
</g>
</g>
</g>
</svg>
