<?xml version="1.0" encoding="UTF-8" standalone="no"?>
<!DOCTYPE svg PUBLIC "-//W3C//DTD SVG 1.1//EN"
 "http://www.w3.org/Graphics/SVG/1.1/DTD/svg11.dtd">
<!-- Generated by graphviz version 14.0.2 (20251019.1705)
 -->
<!-- Title: LGE::HealthResult Pages: 1 -->
<svg width="262pt" height="451pt"
 viewBox="0.00 0.00 262.00 451.00" xmlns="http://www.w3.org/2000/svg" xmlns:xlink="http://www.w3.org/1999/xlink">
<g id="graph0" class="graph" transform="scale(1 1) rotate(0) translate(4 447)">
<title>LGE::HealthResult</title>
<!-- Node1 -->
<g id="Node000001" class="node">
<title>Node1</title>
<g id="a_Node000001"><a xlink:title=" ">
<polygon fill="#999999" stroke="#666666" points="118.75,-20 20.25,-20 20.25,0 118.75,0 118.75,-20"/>
<text xml:space="preserve" text-anchor="middle" x="69.5" y="-6.5" font-family="Helvetica,sans-Serif" font-size="10.00">LGE::HealthResult</text>
</a>
</g>
</g>
<!-- Node2 -->
<g id="Node000002" class="node">
<title>Node2</title>
<g id="a_Node000002"><a xlink:title=" ">
<polygon fill="white" stroke="#666666" points="139,-106 0,-106 0,-74 139,-74 139,-106"/>
<text xml:space="preserve" text-anchor="start" x="8" y="-92.5" font-family="Helvetica,sans-Serif" font-size="10.00">std::vector&lt; LGE::Validation</text>
<text xml:space="preserve" text-anchor="middle" x="69.5" y="-80.5" font-family="Helvetica,sans-Serif" font-size="10.00">Result &gt;</text>
</a>
</g>
</g>
<!-- Node2&#45;&gt;Node1 -->
<g id="edge1_Node000001_Node000002" class="edge">
<title>Node2&#45;&gt;Node1</title>
<g id="a_edge1_Node000001_Node000002"><a xlink:title=" ">
<path fill="none" stroke="#9a32cd" stroke-dasharray="5,2" d="M69.5,-62.23C69.5,-47.77 69.5,-30.81 69.5,-20.49"/>
<polygon fill="#9a32cd" stroke="#9a32cd" points="66,-62.08 69.5,-72.08 73,-62.08 66,-62.08"/>
</a>
</g>
<text xml:space="preserve" text-anchor="start" x="72.5" y="-43.5" font-family="Helvetica,sans-Serif" font-size="10.00" fill="grey">issues</text>
</g>
<!-- Node3 -->
<g id="Node000003" class="node">
<title>Node3</title>
<g id="a_Node000003"><a xlink:href="structLGE_1_1ValidationResult.html" target="_top" xlink:title=" ">
<polygon fill="white" stroke="#666666" points="125.5,-180 13.5,-180 13.5,-160 125.5,-160 125.5,-180"/>
<text xml:space="preserve" text-anchor="middle" x="69.5" y="-166.5" font-family="Helvetica,sans-Serif" font-size="10.00">LGE::ValidationResult</text>
</a>
</g>
</g>
<!-- Node3&#45;&gt;Node2 -->
<g id="edge2_Node000002_Node000003" class="edge">
<title>Node3&#45;&gt;Node2</title>
<g id="a_edge2_Node000002_Node000003"><a xlink:title=" ">
<path fill="none" stroke="#9a32cd" stroke-dasharray="5,2" d="M69.5,-148.51C69.5,-135.32 69.5,-118.47 69.5,-106.42"/>
<polygon fill="#9a32cd" stroke="#9a32cd" points="66,-148.23 69.5,-158.23 73,-148.23 66,-148.23"/>
</a>
</g>
<text xml:space="preserve" text-anchor="start" x="72.5" y="-129.5" font-family="Helvetica,sans-Serif" font-size="10.00" fill="grey">elements</text>
</g>
<!-- Node4 -->
<g id="Node000004" class="node">
<title>Node4</title>
<g id="a_Node000004"><a xlink:title=" ">
<polygon fill="white" stroke="#666666" points="99.25,-374 39.75,-374 39.75,-354 99.25,-354 99.25,-374"/>
<text xml:space="preserve" text-anchor="middle" x="69.5" y="-360.5" font-family="Helvetica,sans-Serif" font-size="10.00">std::string</text>
</a>
</g>
</g>
<!-- Node4&#45;&gt;Node3 -->
<g id="edge3_Node000003_Node000004" class="edge">
<title>Node4&#45;&gt;Node3</title>
<g id="a_edge3_Node000003_Node000004"><a xlink:title=" ">
<path fill="none" stroke="#9a32cd" stroke-dasharray="5,2" d="M66.73,-342.37C65.22,-330.09 63.51,-314.19 62.75,-300 61.19,-270.71 61.19,-263.29 62.75,-234 63.77,-214.89 66.52,-192.65 68.18,-180.37"/>
<polygon fill="#9a32cd" stroke="#9a32cd" points="63.24,-342.66 67.99,-352.13 70.18,-341.77 63.24,-342.66"/>
</a>
</g>
<text xml:space="preserve" text-anchor="start" x="65.75" y="-287.5" font-family="Helvetica,sans-Serif" font-size="10.00" fill="grey">assetGuid</text>
<text xml:space="preserve" text-anchor="start" x="65.75" y="-271.5" font-family="Helvetica,sans-Serif" font-size="10.00" fill="grey">assetPath</text>
<text xml:space="preserve" text-anchor="start" x="65.75" y="-255.5" font-family="Helvetica,sans-Serif" font-size="10.00" fill="grey">message</text>
<text xml:space="preserve" text-anchor="start" x="65.75" y="-239.5" font-family="Helvetica,sans-Serif" font-size="10.00" fill="grey">repairAction</text>
</g>
<!-- Node6 -->
<g id="Node000006" class="node">
<title>Node6</title>
<g id="a_Node000006"><a xlink:title=" ">
<polygon fill="white" stroke="#666666" points="253.5,-277 129.5,-277 129.5,-257 253.5,-257 253.5,-277"/>
<text xml:space="preserve" text-anchor="middle" x="191.5" y="-263.5" font-family="Helvetica,sans-Serif" font-size="10.00">std::vector&lt; std::string &gt;</text>
</a>
</g>
</g>
<!-- Node4&#45;&gt;Node6 -->
<g id="edge6_Node000006_Node000004" class="edge">
<title>Node4&#45;&gt;Node6</title>
<g id="a_edge6_Node000006_Node000004"><a xlink:title=" ">
<path fill="none" stroke="#9a32cd" stroke-dasharray="5,2" d="M90.57,-346.59C116.24,-326.61 158.7,-293.54 179.41,-277.42"/>
<polygon fill="#9a32cd" stroke="#9a32cd" points="88.58,-343.71 82.84,-352.61 92.88,-349.23 88.58,-343.71"/>
</a>
</g>
<text xml:space="preserve" text-anchor="start" x="129.84" y="-323.5" font-family="Helvetica,sans-Serif" font-size="10.00" fill="grey">elements</text>
</g>
<!-- Node5 -->
<g id="Node000005" class="node">
<title>Node5</title>
<g id="a_Node000005"><a xlink:title=" ">
<polygon fill="white" stroke="#666666" points="116.5,-443 22.5,-443 22.5,-411 116.5,-411 116.5,-443"/>
<text xml:space="preserve" text-anchor="start" x="30.5" y="-429.5" font-family="Helvetica,sans-Serif" font-size="10.00">std::basic_string&lt;</text>
<text xml:space="preserve" text-anchor="middle" x="69.5" y="-417.5" font-family="Helvetica,sans-Serif" font-size="10.00"> Char &gt;</text>
</a>
</g>
</g>
<!-- Node5&#45;&gt;Node4 -->
<g id="edge4_Node000004_Node000005" class="edge">
<title>Node5&#45;&gt;Node4</title>
<g id="a_edge4_Node000004_Node000005"><a xlink:title=" ">
<path fill="none" stroke="#63b8ff" d="M69.5,-399.36C69.5,-390.41 69.5,-381.01 69.5,-374.31"/>
<polygon fill="#63b8ff" stroke="#63b8ff" points="66,-399.09 69.5,-409.09 73,-399.09 66,-399.09"/>
</a>
</g>
</g>
<!-- Node6&#45;&gt;Node3 -->
<g id="edge5_Node000003_Node000006" class="edge">
<title>Node6&#45;&gt;Node3</title>
<g id="a_edge5_Node000003_Node000006"><a xlink:title=" ">
<path fill="none" stroke="#9a32cd" stroke-dasharray="5,2" d="M170.43,-249.59C144.76,-229.61 102.3,-196.54 81.59,-180.42"/>
<polygon fill="#9a32cd" stroke="#9a32cd" points="168.12,-252.23 178.16,-255.61 172.42,-246.71 168.12,-252.23"/>
</a>
</g>
<text xml:space="preserve" text-anchor="start" x="129.84" y="-203.5" font-family="Helvetica,sans-Serif" font-size="10.00" fill="grey">issues</text>
</g>
</g>
</svg>
