<?xml version="1.0" encoding="UTF-8" standalone="no"?>
<!DOCTYPE svg PUBLIC "-//W3C//DTD SVG 1.1//EN"
 "http://www.w3.org/Graphics/SVG/1.1/DTD/svg11.dtd">
<!-- Generated by graphviz version 14.0.2 (20251019.1705)
 -->
<!-- Title: LGE::UIProjectTemplate Pages: 1 -->
<svg width="263pt" height="307pt"
 viewBox="0.00 0.00 263.00 307.00" xmlns="http://www.w3.org/2000/svg" xmlns:xlink="http://www.w3.org/1999/xlink">
<g id="graph0" class="graph" transform="scale(1 1) rotate(0) translate(4 303)">
<title>LGE::UIProjectTemplate</title>
<!-- Node1 -->
<g id="Node000001" class="node">
<title>Node1</title>
<g id="a_Node000001"><a xlink:title=" ">
<polygon fill="#999999" stroke="#666666" points="122.5,-20 0,-20 0,0 122.5,0 122.5,-20"/>
<text xml:space="preserve" text-anchor="middle" x="61.25" y="-6.5" font-family="Helvetica,sans-Serif" font-size="10.00">LGE::UIProjectTemplate</text>
</a>
</g>
</g>
<!-- Node2 -->
<g id="Node000002" class="node">
<title>Node2</title>
<g id="a_Node000002"><a xlink:title=" ">
<polygon fill="white" stroke="#666666" points="91,-230 31.5,-230 31.5,-210 91,-210 91,-230"/>
<text xml:space="preserve" text-anchor="middle" x="61.25" y="-216.5" font-family="Helvetica,sans-Serif" font-size="10.00">std::string</text>
</a>
</g>
</g>
<!-- Node2&#45;&gt;Node1 -->
<g id="edge1_Node000001_Node000002" class="edge">
<title>Node2&#45;&gt;Node1</title>
<g id="a_edge1_Node000001_Node000002"><a xlink:title=" ">
<path fill="none" stroke="#9a32cd" stroke-dasharray="5,2" d="M58.27,-198.38C56.65,-186.1 54.81,-170.19 54,-156 51.91,-119.62 51.91,-110.38 54,-74 55.1,-54.87 58.05,-32.64 59.83,-20.36"/>
<polygon fill="#9a32cd" stroke="#9a32cd" points="54.79,-198.71 59.62,-208.14 61.72,-197.75 54.79,-198.71"/>
</a>
</g>
<text xml:space="preserve" text-anchor="start" x="57" y="-143.5" font-family="Helvetica,sans-Serif" font-size="10.00" fill="grey">description</text>
<text xml:space="preserve" text-anchor="start" x="57" y="-127.5" font-family="Helvetica,sans-Serif" font-size="10.00" fill="grey">name</text>
<text xml:space="preserve" text-anchor="start" x="57" y="-111.5" font-family="Helvetica,sans-Serif" font-size="10.00" fill="grey">previewPath</text>
<text xml:space="preserve" text-anchor="start" x="57" y="-95.5" font-family="Helvetica,sans-Serif" font-size="10.00" fill="grey">templatePath</text>
<text xml:space="preserve" text-anchor="start" x="57" y="-79.5" font-family="Helvetica,sans-Serif" font-size="10.00" fill="grey">thumbnailPath</text>
</g>
<!-- Node4 -->
<g id="Node000004" class="node">
<title>Node4</title>
<g id="a_Node000004"><a xlink:title=" ">
<polygon fill="white" stroke="#666666" points="255.25,-125 131.25,-125 131.25,-105 255.25,-105 255.25,-125"/>
<text xml:space="preserve" text-anchor="middle" x="193.25" y="-111.5" font-family="Helvetica,sans-Serif" font-size="10.00">std::vector&lt; std::string &gt;</text>
</a>
</g>
</g>
<!-- Node2&#45;&gt;Node4 -->
<g id="edge4_Node000004_Node000002" class="edge">
<title>Node2&#45;&gt;Node4</title>
<g id="a_edge4_Node000004_Node000002"><a xlink:title=" ">
<path fill="none" stroke="#9a32cd" stroke-dasharray="5,2" d="M81.9,-202.88C109.88,-181.06 158.89,-142.81 181.37,-125.27"/>
<polygon fill="#9a32cd" stroke="#9a32cd" points="79.89,-200.02 74.16,-208.93 84.19,-205.54 79.89,-200.02"/>
</a>
</g>
<text xml:space="preserve" text-anchor="start" x="118.43" y="-179.5" font-family="Helvetica,sans-Serif" font-size="10.00" fill="grey">elements</text>
</g>
<!-- Node3 -->
<g id="Node000003" class="node">
<title>Node3</title>
<g id="a_Node000003"><a xlink:title=" ">
<polygon fill="white" stroke="#666666" points="108.25,-299 14.25,-299 14.25,-267 108.25,-267 108.25,-299"/>
<text xml:space="preserve" text-anchor="start" x="22.25" y="-285.5" font-family="Helvetica,sans-Serif" font-size="10.00">std::basic_string&lt;</text>
<text xml:space="preserve" text-anchor="middle" x="61.25" y="-273.5" font-family="Helvetica,sans-Serif" font-size="10.00"> Char &gt;</text>
</a>
</g>
</g>
<!-- Node3&#45;&gt;Node2 -->
<g id="edge2_Node000002_Node000003" class="edge">
<title>Node3&#45;&gt;Node2</title>
<g id="a_edge2_Node000002_Node000003"><a xlink:title=" ">
<path fill="none" stroke="#63b8ff" d="M61.25,-255.36C61.25,-246.41 61.25,-237.01 61.25,-230.31"/>
<polygon fill="#63b8ff" stroke="#63b8ff" points="57.75,-255.09 61.25,-265.09 64.75,-255.09 57.75,-255.09"/>
</a>
</g>
</g>
<!-- Node4&#45;&gt;Node1 -->
<g id="edge3_Node000001_Node000004" class="edge">
<title>Node4&#45;&gt;Node1</title>
<g id="a_edge3_Node000001_Node000004"><a xlink:title=" ">
<path fill="none" stroke="#9a32cd" stroke-dasharray="5,2" d="M172.6,-97.88C144.62,-76.06 95.61,-37.81 73.13,-20.27"/>
<polygon fill="#9a32cd" stroke="#9a32cd" points="170.31,-100.54 180.34,-103.93 174.61,-95.02 170.31,-100.54"/>
</a>
</g>
<text xml:space="preserve" text-anchor="start" x="118.43" y="-43.5" font-family="Helvetica,sans-Serif" font-size="10.00" fill="grey">assetTypeReferences</text>
</g>
</g>
</svg>
