<?xml version="1.0" encoding="UTF-8" standalone="no"?>
<!DOCTYPE svg PUBLIC "-//W3C//DTD SVG 1.1//EN"
 "http://www.w3.org/Graphics/SVG/1.1/DTD/svg11.dtd">
<!-- Generated by graphviz version 14.0.2 (20251019.1705)
 -->
<!-- Title: LGE::AssetStats Pages: 1 -->
<svg width="102pt" height="171pt"
 viewBox="0.00 0.00 102.00 171.00" xmlns="http://www.w3.org/2000/svg" xmlns:xlink="http://www.w3.org/1999/xlink">
<g id="graph0" class="graph" transform="scale(1 1) rotate(0) translate(4 167)">
<title>LGE::AssetStats</title>
<!-- Node1 -->
<g id="Node000001" class="node">
<title>Node1</title>
<g id="a_Node000001"><a xlink:title=" ">
<polygon fill="#999999" stroke="#666666" points="92.12,-20 1.88,-20 1.88,0 92.12,0 92.12,-20"/>
<text xml:space="preserve" text-anchor="middle" x="47" y="-6.5" font-family="Helvetica,sans-Serif" font-size="10.00">LGE::AssetStats</text>
</a>
</g>
</g>
<!-- Node2 -->
<g id="Node000002" class="node">
<title>Node2</title>
<g id="a_Node000002"><a xlink:title=" ">
<polygon fill="white" stroke="#666666" points="76.75,-94 17.25,-94 17.25,-74 76.75,-74 76.75,-94"/>
<text xml:space="preserve" text-anchor="middle" x="47" y="-80.5" font-family="Helvetica,sans-Serif" font-size="10.00">std::string</text>
</a>
</g>
</g>
<!-- Node2&#45;&gt;Node1 -->
<g id="edge1_Node000001_Node000002" class="edge">
<title>Node2&#45;&gt;Node1</title>
<g id="a_edge1_Node000001_Node000002"><a xlink:title=" ">
<path fill="none" stroke="#9a32cd" stroke-dasharray="5,2" d="M47,-62.18C47,-48.29 47,-30.71 47,-20.19"/>
<polygon fill="#9a32cd" stroke="#9a32cd" points="43.5,-62.07 47,-72.07 50.5,-62.07 43.5,-62.07"/>
</a>
</g>
<text xml:space="preserve" text-anchor="start" x="50" y="-43.5" font-family="Helvetica,sans-Serif" font-size="10.00" fill="grey">guid</text>
</g>
<!-- Node3 -->
<g id="Node000003" class="node">
<title>Node3</title>
<g id="a_Node000003"><a xlink:title=" ">
<polygon fill="white" stroke="#666666" points="94,-163 0,-163 0,-131 94,-131 94,-163"/>
<text xml:space="preserve" text-anchor="start" x="8" y="-149.5" font-family="Helvetica,sans-Serif" font-size="10.00">std::basic_string&lt;</text>
<text xml:space="preserve" text-anchor="middle" x="47" y="-137.5" font-family="Helvetica,sans-Serif" font-size="10.00"> Char &gt;</text>
</a>
</g>
</g>
<!-- Node3&#45;&gt;Node2 -->
<g id="edge2_Node000002_Node000003" class="edge">
<title>Node3&#45;&gt;Node2</title>
<g id="a_edge2_Node000002_Node000003"><a xlink:title=" ">
<path fill="none" stroke="#63b8ff" d="M47,-119.36C47,-110.41 47,-101.01 47,-94.31"/>
<polygon fill="#63b8ff" stroke="#63b8ff" points="43.5,-119.09 47,-129.09 50.5,-119.09 43.5,-119.09"/>
</a>
</g>
</g>
</g>
</svg>
