<?xml version="1.0" encoding="UTF-8" standalone="no"?>
<!DOCTYPE svg PUBLIC "-//W3C//DTD SVG 1.1//EN"
 "http://www.w3.org/Graphics/SVG/1.1/DTD/svg11.dtd">
<!-- Generated by graphviz version 14.0.2 (20251019.1705)
 -->
<!-- Title: LGE::Package Pages: 1 -->
<svg width="249pt" height="403pt"
 viewBox="0.00 0.00 249.00 403.00" xmlns="http://www.w3.org/2000/svg" xmlns:xlink="http://www.w3.org/1999/xlink">
<g id="graph0" class="graph" transform="scale(1 1) rotate(0) translate(4 399)">
<title>LGE::Package</title>
<!-- Node1 -->
<g id="Node000001" class="node">
<title>Node1</title>
<g id="a_Node000001"><a xlink:title=" ">
<polygon fill="#999999" stroke="#666666" points="86.88,-20 7.13,-20 7.13,0 86.88,0 86.88,-20"/>
<text xml:space="preserve" text-anchor="middle" x="47" y="-6.5" font-family="Helvetica,sans-Serif" font-size="10.00">LGE::Package</text>
</a>
</g>
</g>
<!-- Node2 -->
<g id="Node000002" class="node">
<title>Node2</title>
<g id="a_Node000002"><a xlink:title=" ">
<polygon fill="white" stroke="#666666" points="76.75,-326 17.25,-326 17.25,-306 76.75,-306 76.75,-326"/>
<text xml:space="preserve" text-anchor="middle" x="47" y="-312.5" font-family="Helvetica,sans-Serif" font-size="10.00">std::string</text>
</a>
</g>
</g>
<!-- Node2&#45;&gt;Node1 -->
<g id="edge1_Node000001_Node000002" class="edge">
<title>Node2&#45;&gt;Node1</title>
<g id="a_edge1_Node000001_Node000002"><a xlink:title=" ">
<path fill="none" stroke="#9a32cd" stroke-dasharray="5,2" d="M44.02,-294.38C42.4,-282.1 40.56,-266.19 39.75,-252 35.22,-173.02 35.22,-152.98 39.75,-74 40.85,-54.87 43.8,-32.64 45.58,-20.36"/>
<polygon fill="#9a32cd" stroke="#9a32cd" points="40.54,-294.71 45.37,-304.14 47.47,-293.75 40.54,-294.71"/>
</a>
</g>
<text xml:space="preserve" text-anchor="start" x="42.75" y="-239.5" font-family="Helvetica,sans-Serif" font-size="10.00" fill="grey">author</text>
<text xml:space="preserve" text-anchor="start" x="42.75" y="-223.5" font-family="Helvetica,sans-Serif" font-size="10.00" fill="grey">checksum</text>
<text xml:space="preserve" text-anchor="start" x="42.75" y="-207.5" font-family="Helvetica,sans-Serif" font-size="10.00" fill="grey">description</text>
<text xml:space="preserve" text-anchor="start" x="42.75" y="-191.5" font-family="Helvetica,sans-Serif" font-size="10.00" fill="grey">downloadUrl</text>
<text xml:space="preserve" text-anchor="start" x="42.75" y="-175.5" font-family="Helvetica,sans-Serif" font-size="10.00" fill="grey">id</text>
<text xml:space="preserve" text-anchor="start" x="42.75" y="-159.5" font-family="Helvetica,sans-Serif" font-size="10.00" fill="grey">installPath</text>
<text xml:space="preserve" text-anchor="start" x="42.75" y="-143.5" font-family="Helvetica,sans-Serif" font-size="10.00" fill="grey">name</text>
<text xml:space="preserve" text-anchor="start" x="42.75" y="-127.5" font-family="Helvetica,sans-Serif" font-size="10.00" fill="grey">repository</text>
<text xml:space="preserve" text-anchor="start" x="42.75" y="-111.5" font-family="Helvetica,sans-Serif" font-size="10.00" fill="grey">thumbnailPath</text>
<text xml:space="preserve" text-anchor="start" x="42.75" y="-95.5" font-family="Helvetica,sans-Serif" font-size="10.00" fill="grey">version</text>
<text xml:space="preserve" text-anchor="start" x="42.75" y="-79.5" font-family="Helvetica,sans-Serif" font-size="10.00" fill="grey"> &#160;...</text>
</g>
<!-- Node4 -->
<g id="Node000004" class="node">
<title>Node4</title>
<g id="a_Node000004"><a xlink:title=" ">
<polygon fill="white" stroke="#666666" points="241,-173 117,-173 117,-153 241,-153 241,-173"/>
<text xml:space="preserve" text-anchor="middle" x="179" y="-159.5" font-family="Helvetica,sans-Serif" font-size="10.00">std::vector&lt; std::string &gt;</text>
</a>
</g>
</g>
<!-- Node2&#45;&gt;Node4 -->
<g id="edge4_Node000004_Node000002" class="edge">
<title>Node2&#45;&gt;Node4</title>
<g id="a_edge4_Node000004_Node000002"><a xlink:title=" ">
<path fill="none" stroke="#9a32cd" stroke-dasharray="5,2" d="M62.75,-297.41C74.01,-284.81 89.5,-267.41 103,-252 128.01,-223.46 157.27,-189.38 171.06,-173.29"/>
<polygon fill="#9a32cd" stroke="#9a32cd" points="60.46,-294.73 56.4,-304.52 65.68,-299.4 60.46,-294.73"/>
</a>
</g>
<text xml:space="preserve" text-anchor="start" x="89.15" y="-275.5" font-family="Helvetica,sans-Serif" font-size="10.00" fill="grey">elements</text>
</g>
<!-- Node3 -->
<g id="Node000003" class="node">
<title>Node3</title>
<g id="a_Node000003"><a xlink:title=" ">
<polygon fill="white" stroke="#666666" points="94,-395 0,-395 0,-363 94,-363 94,-395"/>
<text xml:space="preserve" text-anchor="start" x="8" y="-381.5" font-family="Helvetica,sans-Serif" font-size="10.00">std::basic_string&lt;</text>
<text xml:space="preserve" text-anchor="middle" x="47" y="-369.5" font-family="Helvetica,sans-Serif" font-size="10.00"> Char &gt;</text>
</a>
</g>
</g>
<!-- Node3&#45;&gt;Node2 -->
<g id="edge2_Node000002_Node000003" class="edge">
<title>Node3&#45;&gt;Node2</title>
<g id="a_edge2_Node000002_Node000003"><a xlink:title=" ">
<path fill="none" stroke="#63b8ff" d="M47,-351.36C47,-342.41 47,-333.01 47,-326.31"/>
<polygon fill="#63b8ff" stroke="#63b8ff" points="43.5,-351.09 47,-361.09 50.5,-351.09 43.5,-351.09"/>
</a>
</g>
</g>
<!-- Node4&#45;&gt;Node1 -->
<g id="edge3_Node000001_Node000004" class="edge">
<title>Node4&#45;&gt;Node1</title>
<g id="a_edge3_Node000001_Node000004"><a xlink:title=" ">
<path fill="none" stroke="#9a32cd" stroke-dasharray="5,2" d="M163.96,-144.44C148.68,-126.63 124.3,-98.31 103,-74 86.22,-54.85 66.38,-32.63 55.39,-20.36"/>
<polygon fill="#9a32cd" stroke="#9a32cd" points="160.9,-146.25 170.07,-151.56 166.22,-141.69 160.9,-146.25"/>
</a>
</g>
<text xml:space="preserve" text-anchor="start" x="89.15" y="-43.5" font-family="Helvetica,sans-Serif" font-size="10.00" fill="grey">dependencies</text>
</g>
</g>
</svg>
