<?xml version="1.0" encoding="UTF-8" standalone="no"?>
<!DOCTYPE svg PUBLIC "-//W3C//DTD SVG 1.1//EN"
 "http://www.w3.org/Graphics/SVG/1.1/DTD/svg11.dtd">
<!-- Generated by graphviz version 14.0.2 (20251019.1705)
 -->
<!-- Title: LGE::PackageInfo Pages: 1 -->
<svg width="235pt" height="355pt"
 viewBox="0.00 0.00 235.00 355.00" xmlns="http://www.w3.org/2000/svg" xmlns:xlink="http://www.w3.org/1999/xlink">
<g id="graph0" class="graph" transform="scale(1 1) rotate(0) translate(4 351)">
<title>LGE::PackageInfo</title>
<!-- Node1 -->
<g id="Node000001" class="node">
<title>Node1</title>
<g id="a_Node000001"><a xlink:title=" ">
<polygon fill="#999999" stroke="#666666" points="96.25,-20 0,-20 0,0 96.25,0 96.25,-20"/>
<text xml:space="preserve" text-anchor="middle" x="48.12" y="-6.5" font-family="Helvetica,sans-Serif" font-size="10.00">LGE::PackageInfo</text>
</a>
</g>
</g>
<!-- Node2 -->
<g id="Node000002" class="node">
<title>Node2</title>
<g id="a_Node000002"><a xlink:title=" ">
<polygon fill="white" stroke="#666666" points="77.88,-278 18.37,-278 18.37,-258 77.88,-258 77.88,-278"/>
<text xml:space="preserve" text-anchor="middle" x="48.12" y="-264.5" font-family="Helvetica,sans-Serif" font-size="10.00">std::string</text>
</a>
</g>
</g>
<!-- Node2&#45;&gt;Node1 -->
<g id="edge1_Node000001_Node000002" class="edge">
<title>Node2&#45;&gt;Node1</title>
<g id="a_edge1_Node000001_Node000002"><a xlink:title=" ">
<path fill="none" stroke="#9a32cd" stroke-dasharray="5,2" d="M45.15,-246.38C43.53,-234.1 41.69,-218.19 40.88,-204 37.57,-146.32 37.57,-131.68 40.88,-74 41.97,-54.87 44.93,-32.64 46.71,-20.36"/>
<polygon fill="#9a32cd" stroke="#9a32cd" points="41.66,-246.71 46.5,-256.14 48.59,-245.75 41.66,-246.71"/>
</a>
</g>
<text xml:space="preserve" text-anchor="start" x="43.88" y="-191.5" font-family="Helvetica,sans-Serif" font-size="10.00" fill="grey">author</text>
<text xml:space="preserve" text-anchor="start" x="43.88" y="-175.5" font-family="Helvetica,sans-Serif" font-size="10.00" fill="grey">checksum</text>
<text xml:space="preserve" text-anchor="start" x="43.88" y="-159.5" font-family="Helvetica,sans-Serif" font-size="10.00" fill="grey">description</text>
<text xml:space="preserve" text-anchor="start" x="43.88" y="-143.5" font-family="Helvetica,sans-Serif" font-size="10.00" fill="grey">id</text>
<text xml:space="preserve" text-anchor="start" x="43.88" y="-127.5" font-family="Helvetica,sans-Serif" font-size="10.00" fill="grey">installPath</text>
<text xml:space="preserve" text-anchor="start" x="43.88" y="-111.5" font-family="Helvetica,sans-Serif" font-size="10.00" fill="grey">name</text>
<text xml:space="preserve" text-anchor="start" x="43.88" y="-95.5" font-family="Helvetica,sans-Serif" font-size="10.00" fill="grey">repository</text>
<text xml:space="preserve" text-anchor="start" x="43.88" y="-79.5" font-family="Helvetica,sans-Serif" font-size="10.00" fill="grey">version</text>
</g>
<!-- Node4 -->
<g id="Node000004" class="node">
<title>Node4</title>
<g id="a_Node000004"><a xlink:title=" ">
<polygon fill="white" stroke="#666666" points="227.12,-149 103.12,-149 103.12,-129 227.12,-129 227.12,-149"/>
<text xml:space="preserve" text-anchor="middle" x="165.12" y="-135.5" font-family="Helvetica,sans-Serif" font-size="10.00">std::vector&lt; std::string &gt;</text>
</a>
</g>
</g>
<!-- Node2&#45;&gt;Node4 -->
<g id="edge4_Node000004_Node000002" class="edge">
<title>Node2&#45;&gt;Node4</title>
<g id="a_edge4_Node000004_Node000002"><a xlink:title=" ">
<path fill="none" stroke="#9a32cd" stroke-dasharray="5,2" d="M64.1,-249.66C89.18,-222.44 136.94,-170.6 156.47,-149.39"/>
<polygon fill="#9a32cd" stroke="#9a32cd" points="61.77,-247.03 57.56,-256.75 66.91,-251.77 61.77,-247.03"/>
</a>
</g>
<text xml:space="preserve" text-anchor="start" x="92.31" y="-227.5" font-family="Helvetica,sans-Serif" font-size="10.00" fill="grey">elements</text>
</g>
<!-- Node3 -->
<g id="Node000003" class="node">
<title>Node3</title>
<g id="a_Node000003"><a xlink:title=" ">
<polygon fill="white" stroke="#666666" points="95.12,-347 1.12,-347 1.12,-315 95.12,-315 95.12,-347"/>
<text xml:space="preserve" text-anchor="start" x="9.12" y="-333.5" font-family="Helvetica,sans-Serif" font-size="10.00">std::basic_string&lt;</text>
<text xml:space="preserve" text-anchor="middle" x="48.12" y="-321.5" font-family="Helvetica,sans-Serif" font-size="10.00"> Char &gt;</text>
</a>
</g>
</g>
<!-- Node3&#45;&gt;Node2 -->
<g id="edge2_Node000002_Node000003" class="edge">
<title>Node3&#45;&gt;Node2</title>
<g id="a_edge2_Node000002_Node000003"><a xlink:title=" ">
<path fill="none" stroke="#63b8ff" d="M48.12,-303.36C48.12,-294.41 48.12,-285.01 48.12,-278.31"/>
<polygon fill="#63b8ff" stroke="#63b8ff" points="44.63,-303.09 48.13,-313.09 51.63,-303.09 44.63,-303.09"/>
</a>
</g>
</g>
<!-- Node4&#45;&gt;Node1 -->
<g id="edge3_Node000001_Node000004" class="edge">
<title>Node4&#45;&gt;Node1</title>
<g id="a_edge3_Node000001_Node000004"><a xlink:title=" ">
<path fill="none" stroke="#9a32cd" stroke-dasharray="5,2" d="M149.15,-120.66C124.07,-93.44 76.31,-41.6 56.78,-20.39"/>
<polygon fill="#9a32cd" stroke="#9a32cd" points="146.34,-122.77 155.69,-127.75 151.48,-118.03 146.34,-122.77"/>
</a>
</g>
<text xml:space="preserve" text-anchor="start" x="92.31" y="-43.5" font-family="Helvetica,sans-Serif" font-size="10.00" fill="grey">dependencies</text>
</g>
</g>
</svg>
