<?xml version="1.0" encoding="UTF-8" standalone="no"?>
<!DOCTYPE svg PUBLIC "-//W3C//DTD SVG 1.1//EN"
 "http://www.w3.org/Graphics/SVG/1.1/DTD/svg11.dtd">
<!-- Generated by graphviz version 14.0.2 (20251019.1705)
 -->
<!-- Title: LGE::SyncResult Pages: 1 -->
<svg width="219pt" height="399pt"
 viewBox="0.00 0.00 219.00 399.00" xmlns="http://www.w3.org/2000/svg" xmlns:xlink="http://www.w3.org/1999/xlink">
<g id="graph0" class="graph" transform="scale(1 1) rotate(0) translate(4 395)">
<title>LGE::SyncResult</title>
<!-- Node1 -->
<g id="Node000001" class="node">
<title>Node1</title>
<g id="a_Node000001"><a xlink:title=" ">
<polygon fill="#999999" stroke="#666666" points="93.25,-20 0.75,-20 0.75,0 93.25,0 93.25,-20"/>
<text xml:space="preserve" text-anchor="middle" x="47" y="-6.5" font-family="Helvetica,sans-Serif" font-size="10.00">LGE::SyncResult</text>
</a>
</g>
</g>
<!-- Node2 -->
<g id="Node000002" class="node">
<title>Node2</title>
<g id="a_Node000002"><a xlink:title=" ">
<polygon fill="white" stroke="#666666" points="210.88,-94 59.12,-94 59.12,-74 210.88,-74 210.88,-94"/>
<text xml:space="preserve" text-anchor="middle" x="135" y="-80.5" font-family="Helvetica,sans-Serif" font-size="10.00">std::vector&lt; LGE::SyncEntry &gt;</text>
</a>
</g>
</g>
<!-- Node2&#45;&gt;Node1 -->
<g id="edge1_Node000001_Node000002" class="edge">
<title>Node2&#45;&gt;Node1</title>
<g id="a_edge1_Node000001_Node000002"><a xlink:title=" ">
<path fill="none" stroke="#9a32cd" stroke-dasharray="5,2" d="M114.65,-66.35C97.21,-52.08 72.74,-32.06 58.51,-20.42"/>
<polygon fill="#9a32cd" stroke="#9a32cd" points="112.37,-69.01 122.32,-72.63 116.8,-63.59 112.37,-69.01"/>
</a>
</g>
<text xml:space="preserve" text-anchor="start" x="104.47" y="-43.5" font-family="Helvetica,sans-Serif" font-size="10.00" fill="grey">entries</text>
</g>
<!-- Node3 -->
<g id="Node000003" class="node">
<title>Node3</title>
<g id="a_Node000003"><a xlink:href="structLGE_1_1SyncEntry.html" target="_top" xlink:title=" ">
<polygon fill="white" stroke="#666666" points="158.62,-168 71.38,-168 71.38,-148 158.62,-148 158.62,-168"/>
<text xml:space="preserve" text-anchor="middle" x="115" y="-154.5" font-family="Helvetica,sans-Serif" font-size="10.00">LGE::SyncEntry</text>
</a>
</g>
</g>
<!-- Node3&#45;&gt;Node2 -->
<g id="edge2_Node000002_Node000003" class="edge">
<title>Node3&#45;&gt;Node2</title>
<g id="a_edge2_Node000002_Node000003"><a xlink:title=" ">
<path fill="none" stroke="#9a32cd" stroke-dasharray="5,2" d="M120.67,-136.6C124.54,-122.65 129.49,-104.82 132.45,-94.19"/>
<polygon fill="#9a32cd" stroke="#9a32cd" points="117.32,-135.56 118.02,-146.13 124.07,-137.43 117.32,-135.56"/>
</a>
</g>
<text xml:space="preserve" text-anchor="start" x="130.38" y="-117.5" font-family="Helvetica,sans-Serif" font-size="10.00" fill="grey">elements</text>
</g>
<!-- Node4 -->
<g id="Node000004" class="node">
<title>Node4</title>
<g id="a_Node000004"><a xlink:title=" ">
<polygon fill="white" stroke="#666666" points="76.75,-322 17.25,-322 17.25,-302 76.75,-302 76.75,-322"/>
<text xml:space="preserve" text-anchor="middle" x="47" y="-308.5" font-family="Helvetica,sans-Serif" font-size="10.00">std::string</text>
</a>
</g>
</g>
<!-- Node4&#45;&gt;Node1 -->
<g id="edge5_Node000001_Node000004" class="edge">
<title>Node4&#45;&gt;Node1</title>
<g id="a_edge5_Node000001_Node000004"><a xlink:title=" ">
<path fill="none" stroke="#9a32cd" stroke-dasharray="5,2" d="M47,-290.21C47,-230.87 47,-62.35 47,-20.5"/>
<polygon fill="#9a32cd" stroke="#9a32cd" points="43.5,-290.18 47,-300.18 50.5,-290.18 43.5,-290.18"/>
</a>
</g>
<text xml:space="preserve" text-anchor="start" x="50" y="-117.5" font-family="Helvetica,sans-Serif" font-size="10.00" fill="grey">errorMessage</text>
</g>
<!-- Node4&#45;&gt;Node3 -->
<g id="edge3_Node000003_Node000004" class="edge">
<title>Node4&#45;&gt;Node3</title>
<g id="a_edge3_Node000003_Node000004"><a xlink:title=" ">
<path fill="none" stroke="#9a32cd" stroke-dasharray="5,2" d="M55.6,-291.78C70.37,-258.76 100.02,-192.49 110.89,-168.2"/>
<polygon fill="#9a32cd" stroke="#9a32cd" points="52.56,-290.01 51.67,-300.57 58.95,-292.87 52.56,-290.01"/>
</a>
</g>
<text xml:space="preserve" text-anchor="start" x="104.99" y="-271.5" font-family="Helvetica,sans-Serif" font-size="10.00" fill="grey">assetGuid</text>
<text xml:space="preserve" text-anchor="start" x="104.99" y="-255.5" font-family="Helvetica,sans-Serif" font-size="10.00" fill="grey">errorMessage</text>
<text xml:space="preserve" text-anchor="start" x="104.99" y="-239.5" font-family="Helvetica,sans-Serif" font-size="10.00" fill="grey">localChecksum</text>
<text xml:space="preserve" text-anchor="start" x="104.99" y="-223.5" font-family="Helvetica,sans-Serif" font-size="10.00" fill="grey">localPath</text>
<text xml:space="preserve" text-anchor="start" x="104.99" y="-207.5" font-family="Helvetica,sans-Serif" font-size="10.00" fill="grey">remoteChecksum</text>
<text xml:space="preserve" text-anchor="start" x="104.99" y="-191.5" font-family="Helvetica,sans-Serif" font-size="10.00" fill="grey">remotePath</text>
</g>
<!-- Node5 -->
<g id="Node000005" class="node">
<title>Node5</title>
<g id="a_Node000005"><a xlink:title=" ">
<polygon fill="white" stroke="#666666" points="94,-391 0,-391 0,-359 94,-359 94,-391"/>
<text xml:space="preserve" text-anchor="start" x="8" y="-377.5" font-family="Helvetica,sans-Serif" font-size="10.00">std::basic_string&lt;</text>
<text xml:space="preserve" text-anchor="middle" x="47" y="-365.5" font-family="Helvetica,sans-Serif" font-size="10.00"> Char &gt;</text>
</a>
</g>
</g>
<!-- Node5&#45;&gt;Node4 -->
<g id="edge4_Node000004_Node000005" class="edge">
<title>Node5&#45;&gt;Node4</title>
<g id="a_edge4_Node000004_Node000005"><a xlink:title=" ">
<path fill="none" stroke="#63b8ff" d="M47,-347.36C47,-338.41 47,-329.01 47,-322.31"/>
<polygon fill="#63b8ff" stroke="#63b8ff" points="43.5,-347.09 47,-357.09 50.5,-347.09 43.5,-347.09"/>
</a>
</g>
</g>
</g>
</svg>
