<?xml version="1.0" encoding="UTF-8" standalone="no"?>
<!DOCTYPE svg PUBLIC "-//W3C//DTD SVG 1.1//EN"
 "http://www.w3.org/Graphics/SVG/1.1/DTD/svg11.dtd">
<!-- Generated by graphviz version 14.0.2 (20251019.1705)
 -->
<!-- Title: LGE::Recycle::Entry Pages: 1 -->
<svg width="146pt" height="219pt"
 viewBox="0.00 0.00 146.00 219.00" xmlns="http://www.w3.org/2000/svg" xmlns:xlink="http://www.w3.org/1999/xlink">
<g id="graph0" class="graph" transform="scale(1 1) rotate(0) translate(4 215)">
<title>LGE::Recycle::Entry</title>
<!-- Node1 -->
<g id="Node000001" class="node">
<title>Node1</title>
<g id="a_Node000001"><a xlink:title=" ">
<polygon fill="#999999" stroke="#666666" points="106.75,-20 0,-20 0,0 106.75,0 106.75,-20"/>
<text xml:space="preserve" text-anchor="middle" x="53.38" y="-6.5" font-family="Helvetica,sans-Serif" font-size="10.00">LGE::Recycle::Entry</text>
</a>
</g>
</g>
<!-- Node2 -->
<g id="Node000002" class="node">
<title>Node2</title>
<g id="a_Node000002"><a xlink:title=" ">
<polygon fill="white" stroke="#666666" points="83.12,-142 23.62,-142 23.62,-122 83.12,-122 83.12,-142"/>
<text xml:space="preserve" text-anchor="middle" x="53.38" y="-128.5" font-family="Helvetica,sans-Serif" font-size="10.00">std::string</text>
</a>
</g>
</g>
<!-- Node2&#45;&gt;Node1 -->
<g id="edge1_Node000001_Node000002" class="edge">
<title>Node2&#45;&gt;Node1</title>
<g id="a_edge1_Node000001_Node000002"><a xlink:title=" ">
<path fill="none" stroke="#9a32cd" stroke-dasharray="5,2" d="M53.38,-110.29C53.38,-83.96 53.38,-39.61 53.38,-20.37"/>
<polygon fill="#9a32cd" stroke="#9a32cd" points="49.88,-110.07 53.38,-120.07 56.88,-110.07 49.88,-110.07"/>
</a>
</g>
<text xml:space="preserve" text-anchor="start" x="56.38" y="-91.5" font-family="Helvetica,sans-Serif" font-size="10.00" fill="grey">binPath</text>
<text xml:space="preserve" text-anchor="start" x="56.38" y="-75.5" font-family="Helvetica,sans-Serif" font-size="10.00" fill="grey">originalAbsPath</text>
<text xml:space="preserve" text-anchor="start" x="56.38" y="-59.5" font-family="Helvetica,sans-Serif" font-size="10.00" fill="grey">originalName</text>
<text xml:space="preserve" text-anchor="start" x="56.38" y="-43.5" font-family="Helvetica,sans-Serif" font-size="10.00" fill="grey">originalVirtualPath</text>
</g>
<!-- Node3 -->
<g id="Node000003" class="node">
<title>Node3</title>
<g id="a_Node000003"><a xlink:title=" ">
<polygon fill="white" stroke="#666666" points="100.38,-211 6.37,-211 6.37,-179 100.38,-179 100.38,-211"/>
<text xml:space="preserve" text-anchor="start" x="14.38" y="-197.5" font-family="Helvetica,sans-Serif" font-size="10.00">std::basic_string&lt;</text>
<text xml:space="preserve" text-anchor="middle" x="53.38" y="-185.5" font-family="Helvetica,sans-Serif" font-size="10.00"> Char &gt;</text>
</a>
</g>
</g>
<!-- Node3&#45;&gt;Node2 -->
<g id="edge2_Node000002_Node000003" class="edge">
<title>Node3&#45;&gt;Node2</title>
<g id="a_edge2_Node000002_Node000003"><a xlink:title=" ">
<path fill="none" stroke="#63b8ff" d="M53.38,-167.36C53.38,-158.41 53.38,-149.01 53.38,-142.31"/>
<polygon fill="#63b8ff" stroke="#63b8ff" points="49.88,-167.09 53.38,-177.09 56.88,-167.09 49.88,-167.09"/>
</a>
</g>
</g>
</g>
</svg>
