<?xml version="1.0" encoding="UTF-8" standalone="no"?>
<!DOCTYPE svg PUBLIC "-//W3C//DTD SVG 1.1//EN"
 "http://www.w3.org/Graphics/SVG/1.1/DTD/svg11.dtd">
<!-- Generated by graphviz version 14.0.2 (20251019.1705)
 -->
<!-- Title: LGE::OptimizationResult Pages: 1 -->
<svg width="139pt" height="219pt"
 viewBox="0.00 0.00 139.00 219.00" xmlns="http://www.w3.org/2000/svg" xmlns:xlink="http://www.w3.org/1999/xlink">
<g id="graph0" class="graph" transform="scale(1 1) rotate(0) translate(4 215)">
<title>LGE::OptimizationResult</title>
<!-- Node1 -->
<g id="Node000001" class="node">
<title>Node1</title>
<g id="a_Node000001"><a xlink:title=" ">
<polygon fill="#999999" stroke="#666666" points="124.75,-20 0,-20 0,0 124.75,0 124.75,-20"/>
<text xml:space="preserve" text-anchor="middle" x="62.38" y="-6.5" font-family="Helvetica,sans-Serif" font-size="10.00">LGE::OptimizationResult</text>
</a>
</g>
</g>
<!-- Node2 -->
<g id="Node000002" class="node">
<title>Node2</title>
<g id="a_Node000002"><a xlink:title=" ">
<polygon fill="white" stroke="#666666" points="92.12,-142 32.62,-142 32.62,-122 92.12,-122 92.12,-142"/>
<text xml:space="preserve" text-anchor="middle" x="62.38" y="-128.5" font-family="Helvetica,sans-Serif" font-size="10.00">std::string</text>
</a>
</g>
</g>
<!-- Node2&#45;&gt;Node1 -->
<g id="edge1_Node000001_Node000002" class="edge">
<title>Node2&#45;&gt;Node1</title>
<g id="a_edge1_Node000001_Node000002"><a xlink:title=" ">
<path fill="none" stroke="#9a32cd" stroke-dasharray="5,2" d="M62.38,-110.29C62.38,-83.96 62.38,-39.61 62.38,-20.37"/>
<polygon fill="#9a32cd" stroke="#9a32cd" points="58.88,-110.07 62.38,-120.07 65.88,-110.07 58.88,-110.07"/>
</a>
</g>
<text xml:space="preserve" text-anchor="start" x="65.38" y="-91.5" font-family="Helvetica,sans-Serif" font-size="10.00" fill="grey">assetGuid</text>
<text xml:space="preserve" text-anchor="start" x="65.38" y="-75.5" font-family="Helvetica,sans-Serif" font-size="10.00" fill="grey">errorMessage</text>
<text xml:space="preserve" text-anchor="start" x="65.38" y="-59.5" font-family="Helvetica,sans-Serif" font-size="10.00" fill="grey">optimizedPath</text>
<text xml:space="preserve" text-anchor="start" x="65.38" y="-43.5" font-family="Helvetica,sans-Serif" font-size="10.00" fill="grey">originalPath</text>
</g>
<!-- Node3 -->
<g id="Node000003" class="node">
<title>Node3</title>
<g id="a_Node000003"><a xlink:title=" ">
<polygon fill="white" stroke="#666666" points="109.38,-211 15.37,-211 15.37,-179 109.38,-179 109.38,-211"/>
<text xml:space="preserve" text-anchor="start" x="23.38" y="-197.5" font-family="Helvetica,sans-Serif" font-size="10.00">std::basic_string&lt;</text>
<text xml:space="preserve" text-anchor="middle" x="62.38" y="-185.5" font-family="Helvetica,sans-Serif" font-size="10.00"> Char &gt;</text>
</a>
</g>
</g>
<!-- Node3&#45;&gt;Node2 -->
<g id="edge2_Node000002_Node000003" class="edge">
<title>Node3&#45;&gt;Node2</title>
<g id="a_edge2_Node000002_Node000003"><a xlink:title=" ">
<path fill="none" stroke="#63b8ff" d="M62.38,-167.36C62.38,-158.41 62.38,-149.01 62.38,-142.31"/>
<polygon fill="#63b8ff" stroke="#63b8ff" points="58.88,-167.09 62.38,-177.09 65.88,-167.09 58.88,-167.09"/>
</a>
</g>
</g>
</g>
</svg>
