<?xml version="1.0" encoding="UTF-8" standalone="no"?>
<!DOCTYPE svg PUBLIC "-//W3C//DTD SVG 1.1//EN"
 "http://www.w3.org/Graphics/SVG/1.1/DTD/svg11.dtd">
<!-- Generated by graphviz version 14.0.2 (20251019.1705)
 -->
<!-- Title: TEST Pages: 1 -->
<svg width="1130pt" height="863pt"
 viewBox="0.00 0.00 1130.00 863.00" xmlns="http://www.w3.org/2000/svg" xmlns:xlink="http://www.w3.org/1999/xlink">
<g id="graph0" class="graph" transform="scale(1 1) rotate(0) translate(4 859.2)">
<title>TEST</title>
<!-- Node1 -->
<g id="Node000001" class="node">
<title>Node1</title>
<g id="a_Node000001"><a xlink:title=" ">
<polygon fill="#999999" stroke="#666666" points="41.5,-371.2 0,-371.2 0,-351.2 41.5,-351.2 41.5,-371.2"/>
<text xml:space="preserve" text-anchor="middle" x="20.75" y="-357.7" font-family="Helvetica,sans-Serif" font-size="10.00">TEST</text>
</a>
</g>
</g>
<!-- Node2 -->
<g id="Node000002" class="node">
<title>Node2</title>
<g id="a_Node000002"><a xlink:href="classLGE_1_1Testing_1_1TestUtils.html#a1f77aba432e3b29480c1688b716d86cf" target="_top" xlink:title=" ">
<polygon fill="white" stroke="#666666" points="223.62,-684.2 105.62,-684.2 105.62,-652.2 223.62,-652.2 223.62,-684.2"/>
<text xml:space="preserve" text-anchor="start" x="113.62" y="-670.7" font-family="Helvetica,sans-Serif" font-size="10.00">LGE::Testing::TestUtils</text>
<text xml:space="preserve" text-anchor="middle" x="164.62" y="-658.7" font-family="Helvetica,sans-Serif" font-size="10.00">::CleanupTestProject</text>
</a>
</g>
</g>
<!-- Node1&#45;&gt;Node2 -->
<g id="edge1_Node000001_Node000002" class="edge">
<title>Node1&#45;&gt;Node2</title>
<g id="a_edge1_Node000001_Node000002"><a xlink:title=" ">
<path fill="none" stroke="#63b8ff" d="M22.4,-371.69C25.44,-417.81 39.82,-602.08 77.5,-643.2 82.4,-648.55 88.37,-652.78 94.86,-656.12"/>
<polygon fill="#63b8ff" stroke="#63b8ff" points="93.44,-659.32 104.01,-660.07 96.22,-652.89 93.44,-659.32"/>
</a>
</g>
</g>
<!-- Node3 -->
<g id="Node000003" class="node">
<title>Node3</title>
<g id="a_Node000003"><a xlink:href="namespaceLGE_1_1AssetRegistry.html#a0e507381944dcdfc25afc215e2fdc0fd" target="_top" xlink:title=" ">
<polygon fill="white" stroke="#666666" points="600.25,-475.2 496.5,-475.2 496.5,-443.2 600.25,-443.2 600.25,-475.2"/>
<text xml:space="preserve" text-anchor="start" x="504.5" y="-461.7" font-family="Helvetica,sans-Serif" font-size="10.00">LGE::AssetRegistry</text>
<text xml:space="preserve" text-anchor="middle" x="548.38" y="-449.7" font-family="Helvetica,sans-Serif" font-size="10.00">::Clear</text>
</a>
</g>
</g>
<!-- Node1&#45;&gt;Node3 -->
<g id="edge2_Node000001_Node000003" class="edge">
<title>Node1&#45;&gt;Node3</title>
<g id="a_edge2_Node000001_Node000003"><a xlink:title=" ">
<path fill="none" stroke="#63b8ff" d="M30.4,-371.61C40.46,-382.91 58.16,-400.52 77.5,-409.2 212.81,-469.89 391.31,-469.8 484.54,-464.5"/>
<polygon fill="#63b8ff" stroke="#63b8ff" points="484.75,-468 494.52,-463.89 484.32,-461.01 484.75,-468"/>
</a>
</g>
</g>
<!-- Node5 -->
<g id="Node000005" class="node">
<title>Node5</title>
<g id="a_Node000005"><a xlink:href="namespaceLGE_1_1VFS.html#abb779fd365154cfbcb79fc4486a5b912" target="_top" xlink:title=" ">
<polygon fill="white" stroke="#666666" points="426,-428.2 303.5,-428.2 303.5,-408.2 426,-408.2 426,-428.2"/>
<text xml:space="preserve" text-anchor="middle" x="364.75" y="-414.7" font-family="Helvetica,sans-Serif" font-size="10.00">LGE::VFS::ClearMounts</text>
</a>
</g>
</g>
<!-- Node1&#45;&gt;Node5 -->
<g id="edge4_Node000001_Node000005" class="edge">
<title>Node1&#45;&gt;Node5</title>
<g id="a_edge4_Node000001_Node000005"><a xlink:title=" ">
<path fill="none" stroke="#63b8ff" d="M41.82,-369.59C52.29,-373.66 65.4,-378.28 77.5,-381.2 149.32,-398.51 233.35,-408.15 291.71,-413.22"/>
<polygon fill="#63b8ff" stroke="#63b8ff" points="291.26,-416.69 301.52,-414.04 291.85,-409.72 291.26,-416.69"/>
</a>
</g>
</g>
<!-- Node6 -->
<g id="Node000006" class="node">
<title>Node6</title>
<g id="a_Node000006"><a xlink:href="classLGE_1_1Testing_1_1TestUtils.html#a46de1f3cb8d715bf5329ad34a764f8b9" target="_top" xlink:title=" ">
<polygon fill="white" stroke="#666666" points="223.62,-355.2 105.62,-355.2 105.62,-323.2 223.62,-323.2 223.62,-355.2"/>
<text xml:space="preserve" text-anchor="start" x="113.62" y="-341.7" font-family="Helvetica,sans-Serif" font-size="10.00">LGE::Testing::TestUtils</text>
<text xml:space="preserve" text-anchor="middle" x="164.62" y="-329.7" font-family="Helvetica,sans-Serif" font-size="10.00">::CreateTestFile</text>
</a>
</g>
</g>
<!-- Node1&#45;&gt;Node6 -->
<g id="edge6_Node000001_Node000006" class="edge">
<title>Node1&#45;&gt;Node6</title>
<g id="a_edge6_Node000001_Node000006"><a xlink:title=" ">
<path fill="none" stroke="#63b8ff" d="M41.78,-358.09C55.63,-355.94 74.96,-352.95 94.15,-349.97"/>
<polygon fill="#63b8ff" stroke="#63b8ff" points="94.55,-353.45 103.9,-348.46 93.48,-346.53 94.55,-353.45"/>
</a>
</g>
</g>
<!-- Node7 -->
<g id="Node000007" class="node">
<title>Node7</title>
<g id="a_Node000007"><a xlink:href="classLGE_1_1Testing_1_1TestUtils.html#ace2f7af3775195fcf072f0c09c966af3" target="_top" xlink:title=" ">
<polygon fill="white" stroke="#666666" points="223.62,-305.2 105.62,-305.2 105.62,-273.2 223.62,-273.2 223.62,-305.2"/>
<text xml:space="preserve" text-anchor="start" x="113.62" y="-291.7" font-family="Helvetica,sans-Serif" font-size="10.00">LGE::Testing::TestUtils</text>
<text xml:space="preserve" text-anchor="middle" x="164.62" y="-279.7" font-family="Helvetica,sans-Serif" font-size="10.00">::CreateTestProject</text>
</a>
</g>
</g>
<!-- Node1&#45;&gt;Node7 -->
<g id="edge7_Node000001_Node000007" class="edge">
<title>Node1&#45;&gt;Node7</title>
<g id="a_edge7_Node000001_Node000007"><a xlink:title=" ">
<path fill="none" stroke="#63b8ff" d="M31.47,-350.76C41.9,-340.13 59.42,-323.88 77.5,-314.2 82.9,-311.3 88.68,-308.71 94.6,-306.39"/>
<polygon fill="#63b8ff" stroke="#63b8ff" points="95.69,-309.72 103.9,-303.02 93.31,-303.13 95.69,-309.72"/>
</a>
</g>
</g>
<!-- Node9 -->
<g id="Node000009" class="node">
<title>Node9</title>
<g id="a_Node000009"><a xlink:href="classLGE_1_1SearchQuery.html#a36037a1b2c62d4ffbeb673e1ec702cb7" target="_top" xlink:title=" ">
<polygon fill="white" stroke="#666666" points="234.88,-255.2 94.38,-255.2 94.38,-235.2 234.88,-235.2 234.88,-255.2"/>
<text xml:space="preserve" text-anchor="middle" x="164.62" y="-241.7" font-family="Helvetica,sans-Serif" font-size="10.00">LGE::SearchQuery::Execute</text>
</a>
</g>
</g>
<!-- Node1&#45;&gt;Node9 -->
<g id="edge9_Node000001_Node000009" class="edge">
<title>Node1&#45;&gt;Node9</title>
<g id="a_edge9_Node000001_Node000009"><a xlink:title=" ">
<path fill="none" stroke="#63b8ff" d="M24.63,-350.81C30.77,-330.7 47.12,-286.49 77.5,-264.2 79.56,-262.69 81.71,-261.3 83.94,-260.01"/>
<polygon fill="#63b8ff" stroke="#63b8ff" points="85.32,-263.23 92.77,-255.7 82.25,-256.94 85.32,-263.23"/>
</a>
</g>
</g>
<!-- Node11 -->
<g id="Node000011" class="node">
<title>Node11</title>
<g id="a_Node000011"><a xlink:href="namespaceLGE_1_1AssetRegistry.html#af9345d56722e55e0a02cc2b1c421da76" target="_top" xlink:title=" ">
<polygon fill="white" stroke="#666666" points="216.5,-634.2 112.75,-634.2 112.75,-602.2 216.5,-602.2 216.5,-634.2"/>
<text xml:space="preserve" text-anchor="start" x="120.75" y="-620.7" font-family="Helvetica,sans-Serif" font-size="10.00">LGE::AssetRegistry</text>
<text xml:space="preserve" text-anchor="middle" x="164.62" y="-608.7" font-family="Helvetica,sans-Serif" font-size="10.00">::FullScan</text>
</a>
</g>
</g>
<!-- Node1&#45;&gt;Node11 -->
<g id="edge11_Node000001_Node000011" class="edge">
<title>Node1&#45;&gt;Node11</title>
<g id="a_edge11_Node000001_Node000011"><a xlink:title=" ">
<path fill="none" stroke="#63b8ff" d="M22.1,-371.48C23.67,-403.07 32.12,-500.27 77.5,-562.2 87.61,-575.99 102.22,-587.31 116.55,-596.07"/>
<polygon fill="#63b8ff" stroke="#63b8ff" points="114.65,-599.01 125.06,-600.97 118.14,-592.94 114.65,-599.01"/>
</a>
</g>
</g>
<!-- Node22 -->
<g id="Node000022" class="node">
<title>Node22</title>
<g id="a_Node000022"><a xlink:href="classLGE_1_1SearchQuery.html#af6eb6f82936d435b08fd8c8acbcb4582" target="_top" xlink:title=" ">
<polygon fill="white" stroke="#666666" points="230.38,-217.2 98.88,-217.2 98.88,-197.2 230.38,-197.2 230.38,-217.2"/>
<text xml:space="preserve" text-anchor="middle" x="164.62" y="-203.7" font-family="Helvetica,sans-Serif" font-size="10.00">LGE::SearchQuery::Fuzzy</text>
</a>
</g>
</g>
<!-- Node1&#45;&gt;Node22 -->
<g id="edge24_Node000001_Node000022" class="edge">
<title>Node1&#45;&gt;Node22</title>
<g id="a_edge24_Node000001_Node000022"><a xlink:title=" ">
<path fill="none" stroke="#63b8ff" d="M22.81,-350.87C26,-325.43 37.87,-259.45 77.5,-226.2 80.9,-223.35 84.63,-220.89 88.58,-218.79"/>
<polygon fill="#63b8ff" stroke="#63b8ff" points="89.68,-222.13 97.39,-214.87 86.83,-215.74 89.68,-222.13"/>
</a>
</g>
</g>
<!-- Node24 -->
<g id="Node000024" class="node">
<title>Node24</title>
<g id="a_Node000024"><a xlink:href="classLGE_1_1SearchQuery.html#a626a3f325c0d2af053be92754c8a6397" target="_top" xlink:title=" ">
<polygon fill="white" stroke="#666666" points="251.75,-179.2 77.5,-179.2 77.5,-159.2 251.75,-159.2 251.75,-179.2"/>
<text xml:space="preserve" text-anchor="middle" x="164.62" y="-165.7" font-family="Helvetica,sans-Serif" font-size="10.00">LGE::SearchQuery::FuzzyThreshold</text>
</a>
</g>
</g>
<!-- Node1&#45;&gt;Node24 -->
<g id="edge26_Node000001_Node000024" class="edge">
<title>Node1&#45;&gt;Node24</title>
<g id="a_edge26_Node000001_Node000024"><a xlink:title=" ">
<path fill="none" stroke="#63b8ff" d="M21.75,-350.77C22.37,-320.64 28.48,-232.79 77.5,-188.2 78.43,-187.35 79.4,-186.53 80.39,-185.75"/>
<polygon fill="#63b8ff" stroke="#63b8ff" points="82.16,-188.78 88.66,-180.41 78.36,-182.89 82.16,-188.78"/>
</a>
</g>
</g>
<!-- Node25 -->
<g id="Node000025" class="node">
<title>Node25</title>
<g id="a_Node000025"><a xlink:href="namespaceLGE_1_1VFS.html#a5cea8543475162be752c71971f1f4e85" target="_top" xlink:title=" ">
<polygon fill="white" stroke="#666666" points="615.62,-602.2 481.12,-602.2 481.12,-570.2 615.62,-570.2 615.62,-602.2"/>
<text xml:space="preserve" text-anchor="start" x="489.12" y="-588.7" font-family="Helvetica,sans-Serif" font-size="10.00">LGE::VFS::InitializeDefault</text>
<text xml:space="preserve" text-anchor="middle" x="548.38" y="-576.7" font-family="Helvetica,sans-Serif" font-size="10.00">Mounts</text>
</a>
</g>
</g>
<!-- Node1&#45;&gt;Node25 -->
<g id="edge28_Node000001_Node000025" class="edge">
<title>Node1&#45;&gt;Node25</title>
<g id="a_edge28_Node000001_Node000025"><a xlink:title=" ">
<path fill="none" stroke="#63b8ff" d="M25.71,-371.52C33.11,-389.44 50.75,-426.28 77.5,-446.2 196,-534.42 369.8,-567.37 469.44,-579.44"/>
<polygon fill="#63b8ff" stroke="#63b8ff" points="468.79,-582.89 479.12,-580.57 469.6,-575.93 468.79,-582.89"/>
</a>
</g>
</g>
<!-- Node29 -->
<g id="Node000029" class="node">
<title>Node29</title>
<g id="a_Node000029"><a xlink:href="namespaceLGE_1_1LxFS.html#a40efc6a314cff464d1050243706eb8d8" target="_top" xlink:title=" ">
<polygon fill="white" stroke="#666666" points="433.5,-343.2 296,-343.2 296,-323.2 433.5,-323.2 433.5,-343.2"/>
<text xml:space="preserve" text-anchor="middle" x="364.75" y="-329.7" font-family="Helvetica,sans-Serif" font-size="10.00">LGE::LxFS::InitializeProject</text>
</a>
</g>
</g>
<!-- Node1&#45;&gt;Node29 -->
<g id="edge37_Node000001_Node000029" class="edge">
<title>Node1&#45;&gt;Node29</title>
<g id="a_edge37_Node000001_Node000029"><a xlink:title=" ">
<path fill="none" stroke="#63b8ff" d="M41.87,-363.44C82,-367.49 174.79,-374.65 251.75,-364.2 276.15,-360.88 302.75,-353.68 323.9,-347.05"/>
<polygon fill="#63b8ff" stroke="#63b8ff" points="324.84,-350.43 333.29,-344.03 322.69,-343.76 324.84,-350.43"/>
</a>
</g>
</g>
<!-- Node36 -->
<g id="Node000036" class="node">
<title>Node36</title>
<g id="a_Node000036"><a xlink:href="classLGE_1_1SearchQuery.html#a0cd5062e7f10380477917d78c516b810" target="_top" xlink:title=" ">
<polygon fill="white" stroke="#666666" points="226.25,-141.2 103,-141.2 103,-121.2 226.25,-121.2 226.25,-141.2"/>
<text xml:space="preserve" text-anchor="middle" x="164.62" y="-127.7" font-family="Helvetica,sans-Serif" font-size="10.00">LGE::SearchQuery::Text</text>
</a>
</g>
</g>
<!-- Node1&#45;&gt;Node36 -->
<g id="edge57_Node000001_Node000036" class="edge">
<title>Node1&#45;&gt;Node36</title>
<g id="a_edge57_Node000001_Node000036"><a xlink:title=" ">
<path fill="none" stroke="#63b8ff" d="M23.07,-350.79C28.14,-312.31 47.63,-178.86 77.5,-150.2 81.92,-145.96 87.06,-142.58 92.59,-139.89"/>
<polygon fill="#63b8ff" stroke="#63b8ff" points="93.5,-143.3 101.48,-136.34 90.9,-136.8 93.5,-143.3"/>
</a>
</g>
</g>
<!-- Node4 -->
<g id="Node000004" class="node">
<title>Node4</title>
<g id="a_Node000004"><a xlink:href="classLGE_1_1Log.html#ab0265ee050b8873a2fd31fbdb696ced0" target="_top" xlink:title=" ">
<polygon fill="white" stroke="#666666" points="964.5,-444.2 884.75,-444.2 884.75,-424.2 964.5,-424.2 964.5,-444.2"/>
<text xml:space="preserve" text-anchor="middle" x="924.62" y="-430.7" font-family="Helvetica,sans-Serif" font-size="10.00">LGE::Log::Info</text>
</a>
</g>
</g>
<!-- Node3&#45;&gt;Node4 -->
<g id="edge3_Node000003_Node000004" class="edge">
<title>Node3&#45;&gt;Node4</title>
<g id="a_edge3_Node000003_Node000004"><a xlink:title=" ">
<path fill="none" stroke="#63b8ff" d="M600.63,-455.77C672.31,-450.99 801.7,-442.34 873.03,-437.58"/>
<polygon fill="#63b8ff" stroke="#63b8ff" points="873.13,-441.08 882.87,-436.92 872.66,-434.09 873.13,-441.08"/>
</a>
</g>
</g>
<!-- Node5&#45;&gt;Node4 -->
<g id="edge5_Node000005_Node000004" class="edge">
<title>Node5&#45;&gt;Node4</title>
<g id="a_edge5_Node000005_Node000004"><a xlink:title=" ">
<path fill="none" stroke="#63b8ff" d="M426.25,-419.93C536.93,-423.11 770.08,-429.79 872.99,-432.75"/>
<polygon fill="#63b8ff" stroke="#63b8ff" points="872.68,-436.24 882.78,-433.03 872.88,-429.24 872.68,-436.24"/>
</a>
</g>
</g>
<!-- Node8 -->
<g id="Node000008" class="node">
<title>Node8</title>
<g id="a_Node000008"><a xlink:href="classLGE_1_1Testing_1_1TestUtils.html#a345e283ebede23eaacd1d9c9a1a8fb0d" target="_top" xlink:title=" ">
<polygon fill="white" stroke="#666666" points="423.75,-305.2 305.75,-305.2 305.75,-273.2 423.75,-273.2 423.75,-305.2"/>
<text xml:space="preserve" text-anchor="start" x="313.75" y="-291.7" font-family="Helvetica,sans-Serif" font-size="10.00">LGE::Testing::TestUtils</text>
<text xml:space="preserve" text-anchor="middle" x="364.75" y="-279.7" font-family="Helvetica,sans-Serif" font-size="10.00">::GetTempDir</text>
</a>
</g>
</g>
<!-- Node7&#45;&gt;Node8 -->
<g id="edge8_Node000007_Node000008" class="edge">
<title>Node7&#45;&gt;Node8</title>
<g id="a_edge8_Node000007_Node000008"><a xlink:title=" ">
<path fill="none" stroke="#63b8ff" d="M224,-289.2C245.97,-289.2 271.17,-289.2 294.07,-289.2"/>
<polygon fill="#63b8ff" stroke="#63b8ff" points="293.94,-292.7 303.94,-289.2 293.94,-285.7 293.94,-292.7"/>
</a>
</g>
</g>
<!-- Node10 -->
<g id="Node000010" class="node">
<title>Node10</title>
<g id="a_Node000010"><a xlink:href="namespaceLGE_1_1AssetRegistry.html#ac9aa62a1e0c929e88bec00618b489988" target="_top" xlink:title=" ">
<polygon fill="white" stroke="#666666" points="416.62,-255.2 312.88,-255.2 312.88,-223.2 416.62,-223.2 416.62,-255.2"/>
<text xml:space="preserve" text-anchor="start" x="320.88" y="-241.7" font-family="Helvetica,sans-Serif" font-size="10.00">LGE::AssetRegistry</text>
<text xml:space="preserve" text-anchor="middle" x="364.75" y="-229.7" font-family="Helvetica,sans-Serif" font-size="10.00">::GetAllAssets</text>
</a>
</g>
</g>
<!-- Node9&#45;&gt;Node10 -->
<g id="edge10_Node000009_Node000010" class="edge">
<title>Node9&#45;&gt;Node10</title>
<g id="a_edge10_Node000009_Node000010"><a xlink:title=" ">
<path fill="none" stroke="#63b8ff" d="M235.2,-243.09C256.65,-242.44 280.13,-241.73 301.08,-241.1"/>
<polygon fill="#63b8ff" stroke="#63b8ff" points="301.03,-244.6 310.92,-240.8 300.82,-237.6 301.03,-244.6"/>
</a>
</g>
</g>
<!-- Node11&#45;&gt;Node4 -->
<g id="edge22_Node000011_Node000004" class="edge">
<title>Node11&#45;&gt;Node4</title>
<g id="a_edge22_Node000011_Node000004"><a xlink:title=" ">
<path fill="none" stroke="#63b8ff" d="M216.82,-627.96C238.59,-631.65 264.32,-635.39 287.75,-637.2 420.62,-647.47 803.64,-629.18 812,-624.2 875.74,-586.22 906.97,-496.74 918.36,-455.59"/>
<polygon fill="#63b8ff" stroke="#63b8ff" points="921.74,-456.5 920.89,-445.94 914.97,-454.73 921.74,-456.5"/>
</a>
</g>
</g>
<!-- Node12 -->
<g id="Node000012" class="node">
<title>Node12</title>
<g id="a_Node000012"><a xlink:href="namespaceLGE_1_1AssetRegistry.html#abf12143e6f506efd22e4ec9ef670134a" target="_top" xlink:title=" ">
<polygon fill="white" stroke="#666666" points="441.75,-749.2 287.75,-749.2 287.75,-717.2 441.75,-717.2 441.75,-749.2"/>
<text xml:space="preserve" text-anchor="start" x="295.75" y="-735.7" font-family="Helvetica,sans-Serif" font-size="10.00">LGE::AssetRegistry</text>
<text xml:space="preserve" text-anchor="middle" x="364.75" y="-723.7" font-family="Helvetica,sans-Serif" font-size="10.00">::BuildReverseDependencyMap</text>
</a>
</g>
</g>
<!-- Node11&#45;&gt;Node12 -->
<g id="edge12_Node000011_Node000012" class="edge">
<title>Node11&#45;&gt;Node12</title>
<g id="a_edge12_Node000011_Node000012"><a xlink:title=" ">
<path fill="none" stroke="#63b8ff" d="M216.99,-626.94C229.13,-630.62 241.51,-635.83 251.75,-643.2 274.56,-659.62 266.51,-676.78 287.75,-695.2 294.88,-701.38 303.19,-706.85 311.65,-711.57"/>
<polygon fill="#63b8ff" stroke="#63b8ff" points="309.76,-714.53 320.24,-716.06 313,-708.33 309.76,-714.53"/>
</a>
</g>
</g>
<!-- Node21 -->
<g id="Node000021" class="node">
<title>Node21</title>
<g id="a_Node000021"><a xlink:href="namespaceLGE_1_1VFS.html#a2c64330fbe1cbd5f66e79c29b43c3e87" target="_top" xlink:title=" ">
<polygon fill="white" stroke="#666666" points="422.25,-628.2 307.25,-628.2 307.25,-608.2 422.25,-608.2 422.25,-628.2"/>
<text xml:space="preserve" text-anchor="middle" x="364.75" y="-614.7" font-family="Helvetica,sans-Serif" font-size="10.00">LGE::VFS::ListMounts</text>
</a>
</g>
</g>
<!-- Node11&#45;&gt;Node21 -->
<g id="edge23_Node000011_Node000021" class="edge">
<title>Node11&#45;&gt;Node21</title>
<g id="a_edge23_Node000011_Node000021"><a xlink:title=" ">
<path fill="none" stroke="#63b8ff" d="M216.9,-618.2C240.87,-618.2 269.75,-618.2 295.54,-618.2"/>
<polygon fill="#63b8ff" stroke="#63b8ff" points="295.24,-621.7 305.24,-618.2 295.24,-614.7 295.24,-621.7"/>
</a>
</g>
</g>
<!-- Node12&#45;&gt;Node4 -->
<g id="edge15_Node000012_Node000004" class="edge">
<title>Node12&#45;&gt;Node4</title>
<g id="a_edge15_Node000012_Node000004"><a xlink:title=" ">
<path fill="none" stroke="#63b8ff" d="M380.71,-716.72C397.02,-698.26 423.24,-666.99 441.75,-637.2 461.48,-605.45 449.58,-585.76 477.75,-561.2 540.01,-506.9 575.65,-528.2 655,-505.2 730.69,-483.25 819.18,-460.4 873.3,-446.74"/>
<polygon fill="#63b8ff" stroke="#63b8ff" points="874,-450.17 882.85,-444.33 872.3,-443.38 874,-450.17"/>
</a>
</g>
</g>
<!-- Node13 -->
<g id="Node000013" class="node">
<title>Node13</title>
<g id="a_Node000013"><a xlink:href="namespaceLGE_1_1AssetRegistry.html#ac315fdb87be485fe8103d455b7e8a464" target="_top" xlink:title=" ">
<polygon fill="white" stroke="#666666" points="600.25,-832.2 496.5,-832.2 496.5,-800.2 600.25,-800.2 600.25,-832.2"/>
<text xml:space="preserve" text-anchor="start" x="504.5" y="-818.7" font-family="Helvetica,sans-Serif" font-size="10.00">LGE::AssetRegistry</text>
<text xml:space="preserve" text-anchor="middle" x="548.38" y="-806.7" font-family="Helvetica,sans-Serif" font-size="10.00">::FindByPath</text>
</a>
</g>
</g>
<!-- Node12&#45;&gt;Node13 -->
<g id="edge13_Node000012_Node000013" class="edge">
<title>Node12&#45;&gt;Node13</title>
<g id="a_edge13_Node000012_Node000013"><a xlink:title=" ">
<path fill="none" stroke="#63b8ff" d="M401.63,-749.6C430.24,-762.67 470.5,-781.07 501.45,-795.21"/>
<polygon fill="#63b8ff" stroke="#63b8ff" points="499.64,-798.23 510.19,-799.2 502.55,-791.86 499.64,-798.23"/>
</a>
</g>
</g>
<!-- Node15 -->
<g id="Node000015" class="node">
<title>Node15</title>
<g id="a_Node000015"><a xlink:href="namespaceLGE_1_1VFS.html#a9eb41e42c96a4f5358c79e30afb579cc" target="_top" xlink:title=" ">
<polygon fill="white" stroke="#666666" points="619,-759.2 477.75,-759.2 477.75,-739.2 619,-739.2 619,-759.2"/>
<text xml:space="preserve" text-anchor="middle" x="548.38" y="-745.7" font-family="Helvetica,sans-Serif" font-size="10.00">LGE::VFS::ResolveAbsolute</text>
</a>
</g>
</g>
<!-- Node12&#45;&gt;Node15 -->
<g id="edge16_Node000012_Node000015" class="edge">
<title>Node12&#45;&gt;Node15</title>
<g id="a_edge16_Node000012_Node000015"><a xlink:title=" ">
<path fill="none" stroke="#63b8ff" d="M442.25,-739.94C450.07,-740.63 458.03,-741.33 465.89,-742.02"/>
<polygon fill="#63b8ff" stroke="#63b8ff" points="465.55,-745.5 475.82,-742.89 466.16,-738.53 465.55,-745.5"/>
</a>
</g>
</g>
<!-- Node14 -->
<g id="Node000014" class="node">
<title>Node14</title>
<g id="a_Node000014"><a xlink:href="namespaceLGE_1_1AssetRegistry.html#a9e672f9e3c8c62076b9156d1695e48b8" target="_top" xlink:title=" ">
<polygon fill="white" stroke="#666666" points="785.38,-855.2 681.62,-855.2 681.62,-823.2 785.38,-823.2 785.38,-855.2"/>
<text xml:space="preserve" text-anchor="start" x="689.62" y="-841.7" font-family="Helvetica,sans-Serif" font-size="10.00">LGE::AssetRegistry</text>
<text xml:space="preserve" text-anchor="middle" x="733.5" y="-829.7" font-family="Helvetica,sans-Serif" font-size="10.00">::FindByGUID</text>
</a>
</g>
</g>
<!-- Node13&#45;&gt;Node14 -->
<g id="edge14_Node000013_Node000014" class="edge">
<title>Node13&#45;&gt;Node14</title>
<g id="a_edge14_Node000013_Node000014"><a xlink:title=" ">
<path fill="none" stroke="#63b8ff" d="M600.39,-822.6C621.93,-825.31 647.23,-828.49 669.9,-831.34"/>
<polygon fill="#63b8ff" stroke="#63b8ff" points="669.27,-834.78 679.63,-832.56 670.14,-827.84 669.27,-834.78"/>
</a>
</g>
</g>
<!-- Node16 -->
<g id="Node000016" class="node">
<title>Node16</title>
<g id="a_Node000016"><a xlink:href="namespaceLGE_1_1VFS.html#a0566c02123208c6b867418e914f9574b" target="_top" xlink:title=" ">
<polygon fill="white" stroke="#666666" points="788.38,-767.2 678.62,-767.2 678.62,-747.2 788.38,-747.2 788.38,-767.2"/>
<text xml:space="preserve" text-anchor="middle" x="733.5" y="-753.7" font-family="Helvetica,sans-Serif" font-size="10.00">LGE::VFS::GetMount</text>
</a>
</g>
</g>
<!-- Node15&#45;&gt;Node16 -->
<g id="edge17_Node000015_Node000016" class="edge">
<title>Node15&#45;&gt;Node16</title>
<g id="a_edge17_Node000015_Node000016"><a xlink:title=" ">
<path fill="none" stroke="#63b8ff" d="M619.39,-752.26C635.07,-752.94 651.65,-753.67 667.13,-754.34"/>
<polygon fill="#63b8ff" stroke="#63b8ff" points="666.53,-757.82 676.67,-754.76 666.83,-750.83 666.53,-757.82"/>
</a>
</g>
</g>
<!-- Node17 -->
<g id="Node000017" class="node">
<title>Node17</title>
<g id="a_Node000017"><a xlink:href="namespaceLGE_1_1LxPath.html#a94ec3bdfd6948ddc25cda5d18154d4cf" target="_top" xlink:title=" ">
<polygon fill="white" stroke="#666666" points="781.62,-805.2 685.38,-805.2 685.38,-785.2 781.62,-785.2 781.62,-805.2"/>
<text xml:space="preserve" text-anchor="middle" x="733.5" y="-791.7" font-family="Helvetica,sans-Serif" font-size="10.00">LGE::LxPath::Join</text>
</a>
</g>
</g>
<!-- Node15&#45;&gt;Node17 -->
<g id="edge18_Node000015_Node000017" class="edge">
<title>Node15&#45;&gt;Node17</title>
<g id="a_edge18_Node000015_Node000017"><a xlink:title=" ">
<path fill="none" stroke="#63b8ff" d="M589.98,-759.68C609.61,-764.72 633.52,-770.82 655,-776.2 662.58,-778.1 670.58,-780.08 678.46,-782.02"/>
<polygon fill="#63b8ff" stroke="#63b8ff" points="677.42,-785.37 687.97,-784.36 679.09,-778.57 677.42,-785.37"/>
</a>
</g>
</g>
<!-- Node20 -->
<g id="Node000020" class="node">
<title>Node20</title>
<g id="a_Node000020"><a xlink:href="classLGE_1_1Log.html#aa6f98018af29c23dd7f574d3df5dda5e" target="_top" xlink:title=" ">
<polygon fill="white" stroke="#666666" points="776.38,-159.2 690.62,-159.2 690.62,-139.2 776.38,-139.2 776.38,-159.2"/>
<text xml:space="preserve" text-anchor="middle" x="733.5" y="-145.7" font-family="Helvetica,sans-Serif" font-size="10.00">LGE::Log::Warn</text>
</a>
</g>
</g>
<!-- Node15&#45;&gt;Node20 -->
<g id="edge21_Node000015_Node000020" class="edge">
<title>Node15&#45;&gt;Node20</title>
<g id="a_edge21_Node000015_Node000020"><a xlink:title=" ">
<path fill="none" stroke="#63b8ff" d="M556.23,-739.02C570.74,-716.9 604.42,-662.29 619,-611.2 643.79,-524.31 610.68,-284.94 655,-206.2 665.04,-188.36 683.23,-174.54 699.47,-164.97"/>
<polygon fill="#63b8ff" stroke="#63b8ff" points="700.85,-168.21 707.91,-160.3 697.46,-162.08 700.85,-168.21"/>
</a>
</g>
</g>
<!-- Node18 -->
<g id="Node000018" class="node">
<title>Node18</title>
<g id="a_Node000018"><a xlink:href="namespaceLGE_1_1LxPath.html#a314a60ce690c90f4ee0b4e64c0199408" target="_top" xlink:title=" ">
<polygon fill="white" stroke="#666666" points="985.88,-729.2 863.38,-729.2 863.38,-709.2 985.88,-709.2 985.88,-729.2"/>
<text xml:space="preserve" text-anchor="middle" x="924.62" y="-715.7" font-family="Helvetica,sans-Serif" font-size="10.00">LGE::LxPath::Normalize</text>
</a>
</g>
</g>
<!-- Node17&#45;&gt;Node18 -->
<g id="edge19_Node000017_Node000018" class="edge">
<title>Node17&#45;&gt;Node18</title>
<g id="a_edge19_Node000017_Node000018"><a xlink:title=" ">
<path fill="none" stroke="#63b8ff" d="M781.75,-785.46C791.86,-782.87 802.39,-779.77 812,-776.2 842.1,-764.99 874.61,-747.76 896.73,-735.17"/>
<polygon fill="#63b8ff" stroke="#63b8ff" points="898.19,-738.37 905.1,-730.34 894.69,-732.31 898.19,-738.37"/>
</a>
</g>
</g>
<!-- Node19 -->
<g id="Node000019" class="node">
<title>Node19</title>
<g id="a_Node000019"><a xlink:href="classLGE_1_1Log.html#a53f3f4b8797ffd18145739c9e66d690a" target="_top" xlink:title=" ">
<polygon fill="white" stroke="#666666" points="1121.5,-349.2 1037.25,-349.2 1037.25,-329.2 1121.5,-329.2 1121.5,-349.2"/>
<text xml:space="preserve" text-anchor="middle" x="1079.38" y="-335.7" font-family="Helvetica,sans-Serif" font-size="10.00">LGE::Log::Error</text>
</a>
</g>
</g>
<!-- Node18&#45;&gt;Node19 -->
<g id="edge20_Node000018_Node000019" class="edge">
<title>Node18&#45;&gt;Node19</title>
<g id="a_edge20_Node000018_Node000019"><a xlink:title=" ">
<path fill="none" stroke="#63b8ff" d="M982.09,-708.76C989.28,-705.41 995.96,-701 1001.25,-695.2 1046.83,-645.12 1070.13,-429.67 1076.52,-360.59"/>
<polygon fill="#63b8ff" stroke="#63b8ff" points="1079.98,-361.25 1077.39,-350.98 1073,-360.63 1079.98,-361.25"/>
</a>
</g>
</g>
<!-- Node23 -->
<g id="Node000023" class="node">
<title>Node23</title>
<g id="a_Node000023"><a xlink:href="classLGE_1_1SearchQuery.html#a8a2cf5c9494b59e14b3956728ed4caa7" target="_top" xlink:title=" ">
<polygon fill="white" stroke="#666666" points="432.38,-185.2 297.12,-185.2 297.12,-153.2 432.38,-153.2 432.38,-185.2"/>
<text xml:space="preserve" text-anchor="start" x="305.12" y="-171.7" font-family="Helvetica,sans-Serif" font-size="10.00">LGE::SearchQuery::Search</text>
<text xml:space="preserve" text-anchor="middle" x="364.75" y="-159.7" font-family="Helvetica,sans-Serif" font-size="10.00">Query</text>
</a>
</g>
</g>
<!-- Node22&#45;&gt;Node23 -->
<g id="edge25_Node000022_Node000023" class="edge">
<title>Node22&#45;&gt;Node23</title>
<g id="a_edge25_Node000022_Node000023"><a xlink:title=" ">
<path fill="none" stroke="#63b8ff" d="M220.29,-196.71C240.48,-192.84 263.77,-188.37 285.64,-184.18"/>
<polygon fill="#63b8ff" stroke="#63b8ff" points="286.27,-187.62 295.43,-182.3 284.95,-180.75 286.27,-187.62"/>
</a>
</g>
</g>
<!-- Node24&#45;&gt;Node23 -->
<g id="edge27_Node000024_Node000023" class="edge">
<title>Node24&#45;&gt;Node23</title>
<g id="a_edge27_Node000024_Node000023"><a xlink:title=" ">
<path fill="none" stroke="#63b8ff" d="M252.24,-169.2C263.29,-169.2 274.55,-169.2 285.46,-169.2"/>
<polygon fill="#63b8ff" stroke="#63b8ff" points="285.16,-172.7 295.16,-169.2 285.16,-165.7 285.16,-172.7"/>
</a>
</g>
</g>
<!-- Node25&#45;&gt;Node4 -->
<g id="edge30_Node000025_Node000004" class="edge">
<title>Node25&#45;&gt;Node4</title>
<g id="a_edge30_Node000025_Node000004"><a xlink:title=" ">
<path fill="none" stroke="#63b8ff" d="M592.8,-569.71C611.78,-562.73 634.38,-554.72 655,-548.2 723.98,-526.38 745.85,-534.49 812,-505.2 844.96,-490.6 879.47,-467.21 901.23,-451.3"/>
<polygon fill="#63b8ff" stroke="#63b8ff" points="903.13,-454.25 909.07,-445.48 898.95,-448.63 903.13,-454.25"/>
</a>
</g>
</g>
<!-- Node25&#45;&gt;Node19 -->
<g id="edge29_Node000025_Node000019" class="edge">
<title>Node25&#45;&gt;Node19</title>
<g id="a_edge29_Node000025_Node000019"><a xlink:title=" ">
<path fill="none" stroke="#63b8ff" d="M585.91,-602.66C637.85,-623.61 735.25,-653.73 812,-624.2 943.87,-573.45 1037.71,-416.13 1067.93,-359.65"/>
<polygon fill="#63b8ff" stroke="#63b8ff" points="1071.02,-361.3 1072.56,-350.82 1064.82,-358.05 1071.02,-361.3"/>
</a>
</g>
</g>
<!-- Node26 -->
<g id="Node000026" class="node">
<title>Node26</title>
<g id="a_Node000026"><a xlink:href="namespaceLGE_1_1LxFS.html#a5684a30f3fa2906f4dafed0258a79166" target="_top" xlink:title=" ">
<polygon fill="white" stroke="#666666" points="793.62,-615.2 673.38,-615.2 673.38,-595.2 793.62,-595.2 793.62,-615.2"/>
<text xml:space="preserve" text-anchor="middle" x="733.5" y="-601.7" font-family="Helvetica,sans-Serif" font-size="10.00">LGE::LxFS::IsInitialized</text>
</a>
</g>
</g>
<!-- Node25&#45;&gt;Node26 -->
<g id="edge31_Node000025_Node000026" class="edge">
<title>Node25&#45;&gt;Node26</title>
<g id="a_edge31_Node000025_Node000026"><a xlink:title=" ">
<path fill="none" stroke="#63b8ff" d="M616.01,-593.11C630.84,-594.65 646.61,-596.29 661.61,-597.84"/>
<polygon fill="#63b8ff" stroke="#63b8ff" points="661.08,-601.31 671.39,-598.86 661.81,-594.34 661.08,-601.31"/>
</a>
</g>
</g>
<!-- Node27 -->
<g id="Node000027" class="node">
<title>Node27</title>
<g id="a_Node000027"><a xlink:href="namespaceLGE_1_1VFS.html#a54b012d377481aa3685b372a196259ed" target="_top" xlink:title=" ">
<polygon fill="white" stroke="#666666" points="790.62,-729.2 676.38,-729.2 676.38,-709.2 790.62,-709.2 790.62,-729.2"/>
<text xml:space="preserve" text-anchor="middle" x="733.5" y="-715.7" font-family="Helvetica,sans-Serif" font-size="10.00">LGE::VFS::MountPath</text>
</a>
</g>
</g>
<!-- Node25&#45;&gt;Node27 -->
<g id="edge32_Node000025_Node000027" class="edge">
<title>Node25&#45;&gt;Node27</title>
<g id="a_edge32_Node000025_Node000027"><a xlink:title=" ">
<path fill="none" stroke="#63b8ff" d="M571.83,-602.51C606.75,-627.87 673.73,-676.51 709.17,-702.26"/>
<polygon fill="#63b8ff" stroke="#63b8ff" points="706.91,-704.94 717.06,-707.98 711.02,-699.27 706.91,-704.94"/>
</a>
</g>
</g>
<!-- Node28 -->
<g id="Node000028" class="node">
<title>Node28</title>
<g id="a_Node000028"><a xlink:href="namespaceLGE_1_1LxFS.html#a12aeb6699602f14153953dceb4284914" target="_top" xlink:title=" ">
<polygon fill="white" stroke="#666666" points="781.62,-577.2 685.38,-577.2 685.38,-557.2 781.62,-557.2 781.62,-577.2"/>
<text xml:space="preserve" text-anchor="middle" x="733.5" y="-563.7" font-family="Helvetica,sans-Serif" font-size="10.00">LGE::LxFS::Paths</text>
</a>
</g>
</g>
<!-- Node25&#45;&gt;Node28 -->
<g id="edge36_Node000025_Node000028" class="edge">
<title>Node25&#45;&gt;Node28</title>
<g id="a_edge36_Node000025_Node000028"><a xlink:title=" ">
<path fill="none" stroke="#63b8ff" d="M616.01,-579.28C634.89,-577.33 655.3,-575.21 673.68,-573.3"/>
<polygon fill="#63b8ff" stroke="#63b8ff" points="674.04,-576.78 683.63,-572.27 673.32,-569.82 674.04,-576.78"/>
</a>
</g>
</g>
<!-- Node27&#45;&gt;Node4 -->
<g id="edge34_Node000027_Node000004" class="edge">
<title>Node27&#45;&gt;Node4</title>
<g id="a_edge34_Node000027_Node000004"><a xlink:title=" ">
<path fill="none" stroke="#63b8ff" d="M789.39,-708.81C797.62,-705.47 805.51,-701.04 812,-695.2 885.75,-628.73 912.56,-505.24 920.63,-455.64"/>
<polygon fill="#63b8ff" stroke="#63b8ff" points="924.06,-456.36 922.1,-445.95 917.14,-455.31 924.06,-456.36"/>
</a>
</g>
</g>
<!-- Node27&#45;&gt;Node18 -->
<g id="edge35_Node000027_Node000018" class="edge">
<title>Node27&#45;&gt;Node18</title>
<g id="a_edge35_Node000027_Node000018"><a xlink:title=" ">
<path fill="none" stroke="#63b8ff" d="M790.99,-719.2C810.09,-719.2 831.69,-719.2 851.82,-719.2"/>
<polygon fill="#63b8ff" stroke="#63b8ff" points="851.64,-722.7 861.64,-719.2 851.64,-715.7 851.64,-722.7"/>
</a>
</g>
</g>
<!-- Node27&#45;&gt;Node19 -->
<g id="edge33_Node000027_Node000019" class="edge">
<title>Node27&#45;&gt;Node19</title>
<g id="a_edge33_Node000027_Node000019"><a xlink:title=" ">
<path fill="none" stroke="#63b8ff" d="M791.07,-709.3C864.85,-695.91 986.32,-671.98 1001.25,-657.2 1044.01,-614.85 1068.82,-424.77 1076.1,-360.51"/>
<polygon fill="#63b8ff" stroke="#63b8ff" points="1079.54,-361.24 1077.16,-350.92 1072.58,-360.48 1079.54,-361.24"/>
</a>
</g>
</g>
<!-- Node29&#45;&gt;Node4 -->
<g id="edge42_Node000029_Node000004" class="edge">
<title>Node29&#45;&gt;Node4</title>
<g id="a_edge42_Node000029_Node000004"><a xlink:title=" ">
<path fill="none" stroke="#63b8ff" d="M423.61,-343.67C533.36,-363.54 770.02,-406.39 873.49,-425.12"/>
<polygon fill="#63b8ff" stroke="#63b8ff" points="872.59,-428.52 883.06,-426.85 873.84,-421.63 872.59,-428.52"/>
</a>
</g>
</g>
<!-- Node29&#45;&gt;Node19 -->
<g id="edge41_Node000029_Node000019" class="edge">
<title>Node29&#45;&gt;Node19</title>
<g id="a_edge41_Node000029_Node000019"><a xlink:title=" ">
<path fill="none" stroke="#63b8ff" d="M430.55,-322.88C434.67,-320.51 438.47,-317.65 441.75,-314.2 499.13,-253.77 418.72,-189.01 477.75,-130.2 642.88,34.32 813.7,40.23 1001.25,-98.2 1072.15,-150.52 1079.29,-268.8 1079.06,-317.56"/>
<polygon fill="#63b8ff" stroke="#63b8ff" points="1075.57,-317.3 1078.89,-327.35 1082.57,-317.42 1075.57,-317.3"/>
</a>
</g>
</g>
<!-- Node29&#45;&gt;Node20 -->
<g id="edge56_Node000029_Node000020" class="edge">
<title>Node29&#45;&gt;Node20</title>
<g id="a_edge56_Node000029_Node000020"><a xlink:title=" ">
<path fill="none" stroke="#63b8ff" d="M427.28,-322.83C432.46,-320.5 437.38,-317.66 441.75,-314.2 469.16,-292.46 451.6,-267.43 477.75,-244.2 535.36,-193.02 623.09,-168.48 679.1,-157.42"/>
<polygon fill="#63b8ff" stroke="#63b8ff" points="679.54,-160.9 688.72,-155.6 678.24,-154.02 679.54,-160.9"/>
</a>
</g>
</g>
<!-- Node30 -->
<g id="Node000030" class="node">
<title>Node30</title>
<g id="a_Node000030"><a xlink:href="namespaceLGE_1_1LxFS.html#afaba8b74a530d174bcd4849ffe5b7c75" target="_top" xlink:title=" ">
<polygon fill="white" stroke="#666666" points="616.75,-159.2 480,-159.2 480,-139.2 616.75,-139.2 616.75,-159.2"/>
<text xml:space="preserve" text-anchor="middle" x="548.38" y="-145.7" font-family="Helvetica,sans-Serif" font-size="10.00">LGE::LxFS::EnsureScaffold</text>
</a>
</g>
</g>
<!-- Node29&#45;&gt;Node30 -->
<g id="edge38_Node000029_Node000030" class="edge">
<title>Node29&#45;&gt;Node30</title>
<g id="a_edge38_Node000029_Node000030"><a xlink:title=" ">
<path fill="none" stroke="#63b8ff" d="M429.83,-322.73C434.17,-320.4 438.22,-317.59 441.75,-314.2 482.56,-275.07 443.44,-237.13 477.75,-192.2 486.44,-180.82 499.08,-171.73 511.21,-164.9"/>
<polygon fill="#63b8ff" stroke="#63b8ff" points="512.6,-168.13 519.84,-160.39 509.36,-161.92 512.6,-168.13"/>
</a>
</g>
</g>
<!-- Node31 -->
<g id="Node000031" class="node">
<title>Node31</title>
<g id="a_Node000031"><a xlink:href="namespaceLGE_1_1LxFS.html#aa5a204e25e73c7d4ec733b032028351e" target="_top" xlink:title=" ">
<polygon fill="white" stroke="#666666" points="613,-273.2 483.75,-273.2 483.75,-253.2 613,-253.2 613,-273.2"/>
<text xml:space="preserve" text-anchor="middle" x="548.38" y="-259.7" font-family="Helvetica,sans-Serif" font-size="10.00">LGE::LxFS::LoadManifest</text>
</a>
</g>
</g>
<!-- Node29&#45;&gt;Node31 -->
<g id="edge43_Node000029_Node000031" class="edge">
<title>Node29&#45;&gt;Node31</title>
<g id="a_edge43_Node000029_Node000031"><a xlink:title=" ">
<path fill="none" stroke="#63b8ff" d="M414.04,-322.71C423.34,-320.25 432.93,-317.39 441.75,-314.2 468.65,-304.46 497.84,-290.04 518.71,-279.02"/>
<polygon fill="#63b8ff" stroke="#63b8ff" points="520.31,-282.14 527.47,-274.33 517,-275.97 520.31,-282.14"/>
</a>
</g>
</g>
<!-- Node35 -->
<g id="Node000035" class="node">
<title>Node35</title>
<g id="a_Node000035"><a xlink:href="namespaceLGE_1_1LxFS.html#a6d72399c0ba33d7d484f7adbf4affc1e" target="_top" xlink:title=" ">
<polygon fill="white" stroke="#666666" points="798.88,-349.2 668.12,-349.2 668.12,-329.2 798.88,-329.2 798.88,-349.2"/>
<text xml:space="preserve" text-anchor="middle" x="733.5" y="-335.7" font-family="Helvetica,sans-Serif" font-size="10.00">LGE::LxFS::SaveManifest</text>
</a>
</g>
</g>
<!-- Node29&#45;&gt;Node35 -->
<g id="edge55_Node000029_Node000035" class="edge">
<title>Node29&#45;&gt;Node35</title>
<g id="a_edge55_Node000029_Node000035"><a xlink:title=" ">
<path fill="none" stroke="#63b8ff" d="M433.87,-334.31C496.99,-335.34 590.75,-336.88 656.32,-337.95"/>
<polygon fill="#63b8ff" stroke="#63b8ff" points="656.25,-341.45 666.3,-338.11 656.36,-334.45 656.25,-341.45"/>
</a>
</g>
</g>
<!-- Node30&#45;&gt;Node19 -->
<g id="edge39_Node000030_Node000019" class="edge">
<title>Node30&#45;&gt;Node19</title>
<g id="a_edge39_Node000030_Node000019"><a xlink:title=" ">
<path fill="none" stroke="#63b8ff" d="M579.39,-138.73C658.03,-113.38 872.84,-57.72 1001.25,-156.2 1053.47,-196.25 1070.7,-278.32 1076.08,-317.47"/>
<polygon fill="#63b8ff" stroke="#63b8ff" points="1072.59,-317.78 1077.28,-327.28 1079.54,-316.93 1072.59,-317.78"/>
</a>
</g>
</g>
<!-- Node30&#45;&gt;Node20 -->
<g id="edge40_Node000030_Node000020" class="edge">
<title>Node30&#45;&gt;Node20</title>
<g id="a_edge40_Node000030_Node000020"><a xlink:title=" ">
<path fill="none" stroke="#63b8ff" d="M617.04,-149.2C637.47,-149.2 659.61,-149.2 678.98,-149.2"/>
<polygon fill="#63b8ff" stroke="#63b8ff" points="678.83,-152.7 688.83,-149.2 678.83,-145.7 678.83,-152.7"/>
</a>
</g>
</g>
<!-- Node31&#45;&gt;Node4 -->
<g id="edge45_Node000031_Node000004" class="edge">
<title>Node31&#45;&gt;Node4</title>
<g id="a_edge45_Node000031_Node000004"><a xlink:title=" ">
<path fill="none" stroke="#63b8ff" d="M613.47,-272.77C679.85,-283.45 778.46,-301.67 812,-320.2 854.59,-343.73 891.3,-388.65 910.13,-414.52"/>
<polygon fill="#63b8ff" stroke="#63b8ff" points="907.15,-416.36 915.79,-422.49 912.85,-412.31 907.15,-416.36"/>
</a>
</g>
</g>
<!-- Node31&#45;&gt;Node19 -->
<g id="edge44_Node000031_Node000019" class="edge">
<title>Node31&#45;&gt;Node19</title>
<g id="a_edge44_Node000031_Node000019"><a xlink:title=" ">
<path fill="none" stroke="#63b8ff" d="M613.36,-263.48C666.73,-264.46 744.64,-267.64 812,-277.2 889.96,-288.26 978.69,-311.01 1031.53,-325.66"/>
<polygon fill="#63b8ff" stroke="#63b8ff" points="1030.53,-329.01 1041.11,-328.34 1032.42,-322.27 1030.53,-329.01"/>
</a>
</g>
</g>
<!-- Node31&#45;&gt;Node20 -->
<g id="edge54_Node000031_Node000020" class="edge">
<title>Node31&#45;&gt;Node20</title>
<g id="a_edge54_Node000031_Node000020"><a xlink:title=" ">
<path fill="none" stroke="#63b8ff" d="M570.53,-252.76C585.09,-244.98 604.35,-233.44 619,-220.2 638.52,-202.55 633.41,-188.24 655,-173.2 662.48,-167.99 671.12,-163.88 679.87,-160.64"/>
<polygon fill="#63b8ff" stroke="#63b8ff" points="680.69,-164.06 689.08,-157.6 678.49,-157.41 680.69,-164.06"/>
</a>
</g>
</g>
<!-- Node32 -->
<g id="Node000032" class="node">
<title>Node32</title>
<g id="a_Node000032"><a xlink:href="namespaceLGE_1_1Migration.html#a94f0cb325681d49b25e29f0bd2801422" target="_top" xlink:title=" ">
<polygon fill="white" stroke="#666666" points="812,-235.2 655,-235.2 655,-215.2 812,-215.2 812,-235.2"/>
<text xml:space="preserve" text-anchor="middle" x="733.5" y="-221.7" font-family="Helvetica,sans-Serif" font-size="10.00">LGE::Migration::MigrateManifest</text>
</a>
</g>
</g>
<!-- Node31&#45;&gt;Node32 -->
<g id="edge46_Node000031_Node000032" class="edge">
<title>Node31&#45;&gt;Node32</title>
<g id="a_edge46_Node000031_Node000032"><a xlink:title=" ">
<path fill="none" stroke="#63b8ff" d="M599.9,-252.71C621.92,-248.14 647.93,-242.75 671.05,-237.95"/>
<polygon fill="#63b8ff" stroke="#63b8ff" points="671.58,-241.41 680.66,-235.96 670.16,-234.56 671.58,-241.41"/>
</a>
</g>
</g>
<!-- Node34 -->
<g id="Node000034" class="node">
<title>Node34</title>
<g id="a_Node000034"><a xlink:href="namespaceLGE_1_1Migration.html#ad2e0aa4e3fa0c4300ecf31c7f53a5d29" target="_top" xlink:title=" ">
<polygon fill="white" stroke="#666666" points="1001.25,-197.2 848,-197.2 848,-165.2 1001.25,-165.2 1001.25,-197.2"/>
<text xml:space="preserve" text-anchor="start" x="856" y="-183.7" font-family="Helvetica,sans-Serif" font-size="10.00">LGE::Migration::NeedsManifest</text>
<text xml:space="preserve" text-anchor="middle" x="924.62" y="-171.7" font-family="Helvetica,sans-Serif" font-size="10.00">Migration</text>
</a>
</g>
</g>
<!-- Node31&#45;&gt;Node34 -->
<g id="edge50_Node000031_Node000034" class="edge">
<title>Node31&#45;&gt;Node34</title>
<g id="a_edge50_Node000031_Node000034"><a xlink:title=" ">
<path fill="none" stroke="#63b8ff" d="M563.92,-252.86C583.55,-239.52 620.1,-216.76 655,-206.2 713.79,-188.41 782.83,-182.29 836.2,-180.54"/>
<polygon fill="#63b8ff" stroke="#63b8ff" points="836.27,-184.04 846.17,-180.27 836.07,-177.05 836.27,-184.04"/>
</a>
</g>
</g>
<!-- Node31&#45;&gt;Node35 -->
<g id="edge51_Node000031_Node000035" class="edge">
<title>Node31&#45;&gt;Node35</title>
<g id="a_edge51_Node000031_Node000035"><a xlink:title=" ">
<path fill="none" stroke="#63b8ff" d="M568.05,-273.51C588.85,-284.73 623.67,-302.72 655,-315.2 664.22,-318.87 674.24,-322.34 683.92,-325.44"/>
<polygon fill="#63b8ff" stroke="#63b8ff" points="682.6,-328.7 693.19,-328.32 684.68,-322.01 682.6,-328.7"/>
</a>
</g>
</g>
<!-- Node32&#45;&gt;Node4 -->
<g id="edge48_Node000032_Node000004" class="edge">
<title>Node32&#45;&gt;Node4</title>
<g id="a_edge48_Node000032_Node000004"><a xlink:title=" ">
<path fill="none" stroke="#63b8ff" d="M749.69,-235.63C766.01,-247.21 792.27,-266.97 812,-287.2 852.45,-328.68 891.44,-384.89 910.86,-414.33"/>
<polygon fill="#63b8ff" stroke="#63b8ff" points="907.87,-416.16 916.27,-422.63 913.73,-412.34 907.87,-416.16"/>
</a>
</g>
</g>
<!-- Node33 -->
<g id="Node000033" class="node">
<title>Node33</title>
<g id="a_Node000033"><a xlink:href="namespaceLGE_1_1MetaDB.html#aa5218c5875c7c064fac11782f4ca1783" target="_top" xlink:title=" ">
<polygon fill="white" stroke="#666666" points="999,-235.2 850.25,-235.2 850.25,-215.2 999,-215.2 999,-235.2"/>
<text xml:space="preserve" text-anchor="middle" x="924.62" y="-221.7" font-family="Helvetica,sans-Serif" font-size="10.00">LGE::MetaDB::GenerateGUID</text>
</a>
</g>
</g>
<!-- Node32&#45;&gt;Node33 -->
<g id="edge47_Node000032_Node000033" class="edge">
<title>Node32&#45;&gt;Node33</title>
<g id="a_edge47_Node000032_Node000033"><a xlink:title=" ">
<path fill="none" stroke="#63b8ff" d="M812.24,-225.2C820.89,-225.2 829.72,-225.2 838.45,-225.2"/>
<polygon fill="#63b8ff" stroke="#63b8ff" points="838.32,-228.7 848.32,-225.2 838.32,-221.7 838.32,-228.7"/>
</a>
</g>
</g>
<!-- Node32&#45;&gt;Node34 -->
<g id="edge49_Node000032_Node000034" class="edge">
<title>Node32&#45;&gt;Node34</title>
<g id="a_edge49_Node000032_Node000034"><a xlink:title=" ">
<path fill="none" stroke="#63b8ff" d="M779.32,-214.77C798.02,-210.42 820.34,-205.23 841.78,-200.24"/>
<polygon fill="#63b8ff" stroke="#63b8ff" points="842.46,-203.67 851.41,-198 840.87,-196.86 842.46,-203.67"/>
</a>
</g>
</g>
<!-- Node35&#45;&gt;Node4 -->
<g id="edge53_Node000035_Node000004" class="edge">
<title>Node35&#45;&gt;Node4</title>
<g id="a_edge53_Node000035_Node000004"><a xlink:title=" ">
<path fill="none" stroke="#63b8ff" d="M775.49,-349.67C787.5,-353.33 800.5,-357.87 812,-363.2 844.54,-378.25 878.9,-401.35 900.76,-417.08"/>
<polygon fill="#63b8ff" stroke="#63b8ff" points="898.51,-419.77 908.65,-422.84 902.64,-414.12 898.51,-419.77"/>
</a>
</g>
</g>
<!-- Node35&#45;&gt;Node19 -->
<g id="edge52_Node000035_Node000019" class="edge">
<title>Node35&#45;&gt;Node19</title>
<g id="a_edge52_Node000035_Node000019"><a xlink:title=" ">
<path fill="none" stroke="#63b8ff" d="M799.18,-339.2C864.8,-339.2 965.11,-339.2 1025.94,-339.2"/>
<polygon fill="#63b8ff" stroke="#63b8ff" points="1025.68,-342.7 1035.68,-339.2 1025.68,-335.7 1025.68,-342.7"/>
</a>
</g>
</g>
<!-- Node36&#45;&gt;Node23 -->
<g id="edge58_Node000036_Node000023" class="edge">
<title>Node36&#45;&gt;Node23</title>
<g id="a_edge58_Node000036_Node000023"><a xlink:title=" ">
<path fill="none" stroke="#63b8ff" d="M220.29,-141.68C240.48,-145.55 263.77,-150.02 285.64,-154.22"/>
<polygon fill="#63b8ff" stroke="#63b8ff" points="284.95,-157.65 295.43,-156.09 286.27,-150.77 284.95,-157.65"/>
</a>
</g>
</g>
</g>
</svg>
