<?xml version="1.0" encoding="UTF-8" standalone="no"?>
<!DOCTYPE svg PUBLIC "-//W3C//DTD SVG 1.1//EN"
 "http://www.w3.org/Graphics/SVG/1.1/DTD/svg11.dtd">
<!-- Generated by graphviz version 14.0.2 (20251019.1705)
 -->
<!-- Title: main Pages: 1 -->
<svg width="432pt" height="480pt"
 viewBox="0.00 0.00 432.00 480.00" xmlns="http://www.w3.org/2000/svg" xmlns:xlink="http://www.w3.org/1999/xlink">
<g id="graph0" class="graph" transform="scale(1 1) rotate(0) translate(4 476.15)">
<title>main</title>
<!-- Node1 -->
<g id="Node000001" class="node">
<title>Node1</title>
<g id="a_Node000001"><a xlink:title=" ">
<polygon fill="#999999" stroke="#666666" points="37,-240 0,-240 0,-220 37,-220 37,-240"/>
<text xml:space="preserve" text-anchor="middle" x="18.5" y="-226.5" font-family="Helvetica,sans-Serif" font-size="10.00">main</text>
</a>
</g>
</g>
<!-- Node2 -->
<g id="Node000002" class="node">
<title>Node2</title>
<g id="a_Node000002"><a xlink:href="classLGE_1_1Log.html#a53f3f4b8797ffd18145739c9e66d690a" target="_top" xlink:title=" ">
<polygon fill="white" stroke="#666666" points="392.62,-460 308.38,-460 308.38,-440 392.62,-440 392.62,-460"/>
<text xml:space="preserve" text-anchor="middle" x="350.5" y="-446.5" font-family="Helvetica,sans-Serif" font-size="10.00">LGE::Log::Error</text>
</a>
</g>
</g>
<!-- Node1&#45;&gt;Node2 -->
<g id="edge1_Node000001_Node000002" class="edge">
<title>Node1&#45;&gt;Node2</title>
<g id="a_edge1_Node000001_Node000002"><a xlink:title=" ">
<path fill="none" stroke="#63b8ff" d="M20.68,-240.32C25.19,-277.81 42.63,-405.96 73,-431 135.95,-482.91 236.82,-474.39 297.76,-462.72"/>
<polygon fill="#63b8ff" stroke="#63b8ff" points="298.43,-466.15 307.54,-460.74 297.04,-459.29 298.43,-466.15"/>
</a>
</g>
</g>
<!-- Node3 -->
<g id="Node000003" class="node">
<title>Node3</title>
<g id="a_Node000003"><a xlink:href="classLGE_1_1Testing_1_1TestFramework.html#a29218293d5febbec5e43c29a3cbfc749" target="_top" xlink:title=" ">
<polygon fill="white" stroke="#666666" points="241.25,-120 73,-120 73,-100 241.25,-100 241.25,-120"/>
<text xml:space="preserve" text-anchor="middle" x="157.12" y="-106.5" font-family="Helvetica,sans-Serif" font-size="10.00">LGE::Testing::TestFramework::Get</text>
</a>
</g>
</g>
<!-- Node1&#45;&gt;Node3 -->
<g id="edge2_Node000001_Node000003" class="edge">
<title>Node1&#45;&gt;Node3</title>
<g id="a_edge2_Node000001_Node000003"><a xlink:title=" ">
<path fill="none" stroke="#63b8ff" d="M22.39,-219.58C28.4,-199.84 44.18,-156.92 73,-134 77.44,-130.47 82.38,-127.46 87.58,-124.89"/>
<polygon fill="#63b8ff" stroke="#63b8ff" points="88.64,-128.24 96.43,-121.07 85.87,-121.82 88.64,-128.24"/>
</a>
</g>
</g>
<!-- Node6 -->
<g id="Node000006" class="node">
<title>Node6</title>
<g id="a_Node000006"><a xlink:href="classLGE_1_1Testing_1_1TestFramework.html#a93d0485c5e3a933c939ce07272d0fb9e" target="_top" xlink:title=" ">
<polygon fill="white" stroke="#666666" points="423.75,-334 277.25,-334 277.25,-302 423.75,-302 423.75,-334"/>
<text xml:space="preserve" text-anchor="start" x="285.25" y="-320.5" font-family="Helvetica,sans-Serif" font-size="10.00">LGE::Testing::TestFramework</text>
<text xml:space="preserve" text-anchor="middle" x="350.5" y="-308.5" font-family="Helvetica,sans-Serif" font-size="10.00">::GetFailedCount</text>
</a>
</g>
</g>
<!-- Node1&#45;&gt;Node6 -->
<g id="edge5_Node000001_Node000006" class="edge">
<title>Node1&#45;&gt;Node6</title>
<g id="a_edge5_Node000001_Node000006"><a xlink:title=" ">
<path fill="none" stroke="#63b8ff" d="M20.74,-240.18C24.18,-263.31 36.14,-319.67 73,-343 136.18,-382.99 166.95,-351.47 241.25,-343 253.28,-341.63 265.92,-339.43 278.15,-336.88"/>
<polygon fill="#63b8ff" stroke="#63b8ff" points="278.73,-340.34 287.75,-334.79 277.24,-333.5 278.73,-340.34"/>
</a>
</g>
</g>
<!-- Node7 -->
<g id="Node000007" class="node">
<title>Node7</title>
<g id="a_Node000007"><a xlink:href="classLGE_1_1Testing_1_1TestFramework.html#abff48b3dab406b785f4fba0e1ad7773a" target="_top" xlink:title=" ">
<polygon fill="white" stroke="#666666" points="423.75,-284 277.25,-284 277.25,-252 423.75,-252 423.75,-284"/>
<text xml:space="preserve" text-anchor="start" x="285.25" y="-270.5" font-family="Helvetica,sans-Serif" font-size="10.00">LGE::Testing::TestFramework</text>
<text xml:space="preserve" text-anchor="middle" x="350.5" y="-258.5" font-family="Helvetica,sans-Serif" font-size="10.00">::GetPassedCount</text>
</a>
</g>
</g>
<!-- Node1&#45;&gt;Node7 -->
<g id="edge6_Node000001_Node000007" class="edge">
<title>Node1&#45;&gt;Node7</title>
<g id="a_edge6_Node000001_Node000007"><a xlink:title=" ">
<path fill="none" stroke="#63b8ff" d="M37.17,-240.4C47.3,-245.8 60.46,-251.9 73,-255 136.29,-270.63 210.14,-273.34 265.6,-272.44"/>
<polygon fill="#63b8ff" stroke="#63b8ff" points="265.35,-275.95 275.27,-272.24 265.2,-268.95 265.35,-275.95"/>
</a>
</g>
</g>
<!-- Node8 -->
<g id="Node000008" class="node">
<title>Node8</title>
<g id="a_Node000008"><a xlink:href="classLGE_1_1Testing_1_1TestFramework.html#a621d4f191e93f92fc8458aef9cfe835b" target="_top" xlink:title=" ">
<polygon fill="white" stroke="#666666" points="230.38,-82 83.88,-82 83.88,-50 230.38,-50 230.38,-82"/>
<text xml:space="preserve" text-anchor="start" x="91.88" y="-68.5" font-family="Helvetica,sans-Serif" font-size="10.00">LGE::Testing::TestFramework</text>
<text xml:space="preserve" text-anchor="middle" x="157.12" y="-56.5" font-family="Helvetica,sans-Serif" font-size="10.00">::GetResults</text>
</a>
</g>
</g>
<!-- Node1&#45;&gt;Node8 -->
<g id="edge7_Node000001_Node000008" class="edge">
<title>Node1&#45;&gt;Node8</title>
<g id="a_edge7_Node000001_Node000008"><a xlink:title=" ">
<path fill="none" stroke="#63b8ff" d="M20.44,-219.56C23.31,-193.84 34.32,-126.87 73,-91 73.77,-90.28 74.57,-89.59 75.38,-88.91"/>
<polygon fill="#63b8ff" stroke="#63b8ff" points="77.26,-91.86 83.45,-83.26 73.25,-86.12 77.26,-91.86"/>
</a>
</g>
</g>
<!-- Node9 -->
<g id="Node000009" class="node">
<title>Node9</title>
<g id="a_Node000009"><a xlink:href="classLGE_1_1Testing_1_1TestFramework.html#a618beef42bf01b34f28237b01b997a10" target="_top" xlink:title=" ">
<polygon fill="white" stroke="#666666" points="423.75,-191 277.25,-191 277.25,-159 423.75,-159 423.75,-191"/>
<text xml:space="preserve" text-anchor="start" x="285.25" y="-177.5" font-family="Helvetica,sans-Serif" font-size="10.00">LGE::Testing::TestFramework</text>
<text xml:space="preserve" text-anchor="middle" x="350.5" y="-165.5" font-family="Helvetica,sans-Serif" font-size="10.00">::GetSkippedCount</text>
</a>
</g>
</g>
<!-- Node1&#45;&gt;Node9 -->
<g id="edge8_Node000001_Node000009" class="edge">
<title>Node1&#45;&gt;Node9</title>
<g id="a_edge8_Node000001_Node000009"><a xlink:title=" ">
<path fill="none" stroke="#63b8ff" d="M30.39,-219.78C40.55,-210.95 56.58,-198.72 73,-193 135.05,-171.4 209.6,-167.72 265.65,-168.99"/>
<polygon fill="#63b8ff" stroke="#63b8ff" points="265.35,-172.49 275.45,-169.28 265.55,-165.49 265.35,-172.49"/>
</a>
</g>
</g>
<!-- Node10 -->
<g id="Node000010" class="node">
<title>Node10</title>
<g id="a_Node000010"><a xlink:href="classLGE_1_1Log.html#ab0265ee050b8873a2fd31fbdb696ced0" target="_top" xlink:title=" ">
<polygon fill="white" stroke="#666666" points="390.38,-234 310.62,-234 310.62,-214 390.38,-214 390.38,-234"/>
<text xml:space="preserve" text-anchor="middle" x="350.5" y="-220.5" font-family="Helvetica,sans-Serif" font-size="10.00">LGE::Log::Info</text>
</a>
</g>
</g>
<!-- Node1&#45;&gt;Node10 -->
<g id="edge9_Node000001_Node000010" class="edge">
<title>Node1&#45;&gt;Node10</title>
<g id="a_edge9_Node000001_Node000010"><a xlink:title=" ">
<path fill="none" stroke="#63b8ff" d="M36.64,-219.63C46.81,-214.1 60.19,-207.85 73,-205 150.78,-187.72 243.63,-200.75 299.5,-212.1"/>
<polygon fill="#63b8ff" stroke="#63b8ff" points="298.52,-215.47 309.03,-214.1 299.96,-208.62 298.52,-215.47"/>
</a>
</g>
</g>
<!-- Node11 -->
<g id="Node000011" class="node">
<title>Node11</title>
<g id="a_Node000011"><a xlink:href="classLGE_1_1Testing_1_1TestFramework.html#ae0186072f2b6274050fd61e4d8ebfe44" target="_top" xlink:title=" ">
<polygon fill="white" stroke="#666666" points="230.38,-246 83.88,-246 83.88,-214 230.38,-214 230.38,-246"/>
<text xml:space="preserve" text-anchor="start" x="91.88" y="-232.5" font-family="Helvetica,sans-Serif" font-size="10.00">LGE::Testing::TestFramework</text>
<text xml:space="preserve" text-anchor="middle" x="157.12" y="-220.5" font-family="Helvetica,sans-Serif" font-size="10.00">::RunAll</text>
</a>
</g>
</g>
<!-- Node1&#45;&gt;Node11 -->
<g id="edge10_Node000001_Node000011" class="edge">
<title>Node1&#45;&gt;Node11</title>
<g id="a_edge10_Node000001_Node000011"><a xlink:title=" ">
<path fill="none" stroke="#63b8ff" d="M37.36,-230C46.8,-230 59.14,-230 72.29,-230"/>
<polygon fill="#63b8ff" stroke="#63b8ff" points="71.96,-233.5 81.96,-230 71.96,-226.5 71.96,-233.5"/>
</a>
</g>
</g>
<!-- Node13 -->
<g id="Node000013" class="node">
<title>Node13</title>
<g id="a_Node000013"><a xlink:href="classLGE_1_1Testing_1_1TestFramework.html#a149cf9e13d71402c14be137cd8898bc8" target="_top" xlink:title=" ">
<polygon fill="white" stroke="#666666" points="230.38,-334 83.88,-334 83.88,-302 230.38,-302 230.38,-334"/>
<text xml:space="preserve" text-anchor="start" x="91.88" y="-320.5" font-family="Helvetica,sans-Serif" font-size="10.00">LGE::Testing::TestFramework</text>
<text xml:space="preserve" text-anchor="middle" x="157.12" y="-308.5" font-family="Helvetica,sans-Serif" font-size="10.00">::RunSuite</text>
</a>
</g>
</g>
<!-- Node1&#45;&gt;Node13 -->
<g id="edge16_Node000001_Node000013" class="edge">
<title>Node1&#45;&gt;Node13</title>
<g id="a_edge16_Node000001_Node000013"><a xlink:title=" ">
<path fill="none" stroke="#63b8ff" d="M26.66,-240.43C35.97,-253.27 53.37,-274.97 73,-288 78.03,-291.34 83.48,-294.36 89.11,-297.09"/>
<polygon fill="#63b8ff" stroke="#63b8ff" points="87.42,-300.17 97.97,-301.05 90.27,-293.78 87.42,-300.17"/>
</a>
</g>
</g>
<!-- Node14 -->
<g id="Node000014" class="node">
<title>Node14</title>
<g id="a_Node000014"><a xlink:href="classLGE_1_1Testing_1_1TestFramework.html#af0b614528a1df42688fb542dfca07421" target="_top" xlink:title=" ">
<polygon fill="white" stroke="#666666" points="230.38,-422 83.88,-422 83.88,-390 230.38,-390 230.38,-422"/>
<text xml:space="preserve" text-anchor="start" x="91.88" y="-408.5" font-family="Helvetica,sans-Serif" font-size="10.00">LGE::Testing::TestFramework</text>
<text xml:space="preserve" text-anchor="middle" x="157.12" y="-396.5" font-family="Helvetica,sans-Serif" font-size="10.00">::RunTest</text>
</a>
</g>
</g>
<!-- Node1&#45;&gt;Node14 -->
<g id="edge21_Node000001_Node000014" class="edge">
<title>Node1&#45;&gt;Node14</title>
<g id="a_edge21_Node000001_Node000014"><a xlink:title=" ">
<path fill="none" stroke="#63b8ff" d="M20.35,-240.43C23.06,-266.82 33.77,-336.96 73,-376 75.95,-378.93 79.2,-381.58 82.66,-383.97"/>
<polygon fill="#63b8ff" stroke="#63b8ff" points="80.58,-386.8 90.95,-388.94 84.18,-380.8 80.58,-386.8"/>
</a>
</g>
</g>
<!-- Node16 -->
<g id="Node000016" class="node">
<title>Node16</title>
<g id="a_Node000016"><a xlink:href="classLGE_1_1Testing_1_1TestFramework.html#ae6de33fbbc6766ed48eeb1d80d70f41f" target="_top" xlink:title=" ">
<polygon fill="white" stroke="#666666" points="230.38,-32 83.88,-32 83.88,0 230.38,0 230.38,-32"/>
<text xml:space="preserve" text-anchor="start" x="91.88" y="-18.5" font-family="Helvetica,sans-Serif" font-size="10.00">LGE::Testing::TestFramework</text>
<text xml:space="preserve" text-anchor="middle" x="157.12" y="-6.5" font-family="Helvetica,sans-Serif" font-size="10.00">::SetVerbose</text>
</a>
</g>
</g>
<!-- Node1&#45;&gt;Node16 -->
<g id="edge25_Node000001_Node000016" class="edge">
<title>Node1&#45;&gt;Node16</title>
<g id="a_edge25_Node000001_Node000016"><a xlink:title=" ">
<path fill="none" stroke="#63b8ff" d="M19.2,-219.74C18.88,-188.33 22.3,-92.54 73,-41 73.61,-40.38 74.24,-39.77 74.89,-39.17"/>
<polygon fill="#63b8ff" stroke="#63b8ff" points="76.91,-42.03 82.75,-33.19 72.67,-36.46 76.91,-42.03"/>
</a>
</g>
</g>
<!-- Node4 -->
<g id="Node000004" class="node">
<title>Node4</title>
<g id="a_Node000004"><a xlink:href="classLGE_1_1Testing_1_1TestFramework.html#a98ab941f394d50db69cad75a0aea795e" target="_top" xlink:title=" ">
<polygon fill="white" stroke="#666666" points="423.75,-81 277.25,-81 277.25,-49 423.75,-49 423.75,-81"/>
<text xml:space="preserve" text-anchor="start" x="285.25" y="-67.5" font-family="Helvetica,sans-Serif" font-size="10.00">LGE::Testing::TestFramework</text>
<text xml:space="preserve" text-anchor="middle" x="350.5" y="-55.5" font-family="Helvetica,sans-Serif" font-size="10.00">::GetImpl</text>
</a>
</g>
</g>
<!-- Node3&#45;&gt;Node4 -->
<g id="edge3_Node000003_Node000004" class="edge">
<title>Node3&#45;&gt;Node4</title>
<g id="a_edge3_Node000003_Node000004"><a xlink:title=" ">
<path fill="none" stroke="#63b8ff" d="M204.31,-99.54C216.34,-96.79 229.29,-93.8 241.25,-91 250.68,-88.79 260.57,-86.45 270.38,-84.11"/>
<polygon fill="#63b8ff" stroke="#63b8ff" points="271,-87.56 279.92,-81.83 269.38,-80.75 271,-87.56"/>
</a>
</g>
</g>
<!-- Node5 -->
<g id="Node000005" class="node">
<title>Node5</title>
<g id="a_Node000005"><a xlink:href="classLGE_1_1Testing_1_1TestFramework.html#a865a1ac3237daab007c333e3c1be44ab" target="_top" xlink:title=" ">
<polygon fill="white" stroke="#666666" points="423.75,-131 277.25,-131 277.25,-99 423.75,-99 423.75,-131"/>
<text xml:space="preserve" text-anchor="start" x="285.25" y="-117.5" font-family="Helvetica,sans-Serif" font-size="10.00">LGE::Testing::TestFramework</text>
<text xml:space="preserve" text-anchor="middle" x="350.5" y="-105.5" font-family="Helvetica,sans-Serif" font-size="10.00">::TestFramework</text>
</a>
</g>
</g>
<!-- Node3&#45;&gt;Node5 -->
<g id="edge4_Node000003_Node000005" class="edge">
<title>Node3&#45;&gt;Node5</title>
<g id="a_edge4_Node000003_Node000005"><a xlink:title=" ">
<path fill="none" stroke="#63b8ff" d="M241.51,-112.18C249.43,-112.39 257.46,-112.6 265.38,-112.8"/>
<polygon fill="#63b8ff" stroke="#63b8ff" points="265.29,-116.3 275.38,-113.06 265.47,-109.3 265.29,-116.3"/>
</a>
</g>
</g>
<!-- Node11&#45;&gt;Node6 -->
<g id="edge12_Node000011_Node000006" class="edge">
<title>Node11&#45;&gt;Node6</title>
<g id="a_edge12_Node000011_Node000006"><a xlink:title=" ">
<path fill="none" stroke="#63b8ff" d="M185.93,-246.27C209.7,-259.79 245.06,-279.02 277.25,-293 280.83,-294.55 284.54,-296.08 288.3,-297.57"/>
<polygon fill="#63b8ff" stroke="#63b8ff" points="286.97,-300.81 297.57,-301.09 289.46,-294.26 286.97,-300.81"/>
</a>
</g>
</g>
<!-- Node11&#45;&gt;Node7 -->
<g id="edge13_Node000011_Node000007" class="edge">
<title>Node11&#45;&gt;Node7</title>
<g id="a_edge13_Node000011_Node000007"><a xlink:title=" ">
<path fill="none" stroke="#63b8ff" d="M230.75,-244.42C242.21,-246.7 254.14,-249.06 265.82,-251.38"/>
<polygon fill="#63b8ff" stroke="#63b8ff" points="264.95,-254.78 275.44,-253.29 266.31,-247.91 264.95,-254.78"/>
</a>
</g>
</g>
<!-- Node11&#45;&gt;Node9 -->
<g id="edge14_Node000011_Node000009" class="edge">
<title>Node11&#45;&gt;Node9</title>
<g id="a_edge14_Node000011_Node000009"><a xlink:title=" ">
<path fill="none" stroke="#63b8ff" d="M215.28,-213.57C236.11,-207.59 259.85,-200.76 281.52,-194.54"/>
<polygon fill="#63b8ff" stroke="#63b8ff" points="282.21,-197.98 290.85,-191.86 280.27,-191.25 282.21,-197.98"/>
</a>
</g>
</g>
<!-- Node11&#45;&gt;Node10 -->
<g id="edge15_Node000011_Node000010" class="edge">
<title>Node11&#45;&gt;Node10</title>
<g id="a_edge15_Node000011_Node000010"><a xlink:title=" ">
<path fill="none" stroke="#63b8ff" d="M230.75,-227.72C253.39,-227.01 277.87,-226.25 298.69,-225.59"/>
<polygon fill="#63b8ff" stroke="#63b8ff" points="298.76,-229.09 308.64,-225.28 298.54,-222.1 298.76,-229.09"/>
</a>
</g>
</g>
<!-- Node12 -->
<g id="Node000012" class="node">
<title>Node12</title>
<g id="a_Node000012"><a xlink:href="classLGE_1_1Testing_1_1TestFramework.html#a667188a5fac25443c56f58ca562be343" target="_top" xlink:title=" ">
<polygon fill="white" stroke="#666666" points="423.75,-384 277.25,-384 277.25,-352 423.75,-352 423.75,-384"/>
<text xml:space="preserve" text-anchor="start" x="285.25" y="-370.5" font-family="Helvetica,sans-Serif" font-size="10.00">LGE::Testing::TestFramework</text>
<text xml:space="preserve" text-anchor="middle" x="350.5" y="-358.5" font-family="Helvetica,sans-Serif" font-size="10.00">::ClearResults</text>
</a>
</g>
</g>
<!-- Node11&#45;&gt;Node12 -->
<g id="edge11_Node000011_Node000012" class="edge">
<title>Node11&#45;&gt;Node12</title>
<g id="a_edge11_Node000011_Node000012"><a xlink:title=" ">
<path fill="none" stroke="#63b8ff" d="M183.7,-246.42C201.01,-258.21 223.8,-275.11 241.25,-293 260.37,-312.6 255.29,-326.65 277.25,-343 278.61,-344.02 280.02,-344.99 281.47,-345.93"/>
<polygon fill="#63b8ff" stroke="#63b8ff" points="279.71,-348.96 290.14,-350.85 283.17,-342.87 279.71,-348.96"/>
</a>
</g>
</g>
<!-- Node13&#45;&gt;Node6 -->
<g id="edge18_Node000013_Node000006" class="edge">
<title>Node13&#45;&gt;Node6</title>
<g id="a_edge18_Node000013_Node000006"><a xlink:title=" ">
<path fill="none" stroke="#63b8ff" d="M230.75,-318C242.09,-318 253.89,-318 265.46,-318"/>
<polygon fill="#63b8ff" stroke="#63b8ff" points="265.41,-321.5 275.41,-318 265.41,-314.5 265.41,-321.5"/>
</a>
</g>
</g>
<!-- Node13&#45;&gt;Node7 -->
<g id="edge19_Node000013_Node000007" class="edge">
<title>Node13&#45;&gt;Node7</title>
<g id="a_edge19_Node000013_Node000007"><a xlink:title=" ">
<path fill="none" stroke="#63b8ff" d="M221.05,-301.56C238.47,-297.01 257.52,-292.03 275.5,-287.33"/>
<polygon fill="#63b8ff" stroke="#63b8ff" points="276.28,-290.75 285.07,-284.83 274.51,-283.98 276.28,-290.75"/>
</a>
</g>
</g>
<!-- Node13&#45;&gt;Node10 -->
<g id="edge20_Node000013_Node000010" class="edge">
<title>Node13&#45;&gt;Node10</title>
<g id="a_edge20_Node000013_Node000010"><a xlink:title=" ">
<path fill="none" stroke="#63b8ff" d="M179.4,-301.78C202.41,-284.93 240.71,-258.86 277.25,-243 284.2,-239.98 291.75,-237.35 299.25,-235.09"/>
<polygon fill="#63b8ff" stroke="#63b8ff" points="300,-238.51 308.69,-232.44 298.11,-231.77 300,-238.51"/>
</a>
</g>
</g>
<!-- Node13&#45;&gt;Node12 -->
<g id="edge17_Node000013_Node000012" class="edge">
<title>Node13&#45;&gt;Node12</title>
<g id="a_edge17_Node000013_Node000012"><a xlink:title=" ">
<path fill="none" stroke="#63b8ff" d="M221.05,-334.44C238.47,-338.99 257.52,-343.97 275.5,-348.67"/>
<polygon fill="#63b8ff" stroke="#63b8ff" points="274.51,-352.02 285.07,-351.17 276.28,-345.25 274.51,-352.02"/>
</a>
</g>
</g>
<!-- Node14&#45;&gt;Node2 -->
<g id="edge23_Node000014_Node000002" class="edge">
<title>Node14&#45;&gt;Node2</title>
<g id="a_edge23_Node000014_Node000002"><a xlink:title=" ">
<path fill="none" stroke="#63b8ff" d="M229.66,-422.45C251.96,-427.57 276.14,-433.13 296.9,-437.91"/>
<polygon fill="#63b8ff" stroke="#63b8ff" points="296.04,-441.3 306.57,-440.13 297.61,-434.48 296.04,-441.3"/>
</a>
</g>
</g>
<!-- Node14&#45;&gt;Node12 -->
<g id="edge22_Node000014_Node000012" class="edge">
<title>Node14&#45;&gt;Node12</title>
<g id="a_edge22_Node000014_Node000012"><a xlink:title=" ">
<path fill="none" stroke="#63b8ff" d="M230.75,-391.58C242.21,-389.3 254.14,-386.94 265.82,-384.62"/>
<polygon fill="#63b8ff" stroke="#63b8ff" points="266.31,-388.09 275.44,-382.71 264.95,-381.22 266.31,-388.09"/>
</a>
</g>
</g>
<!-- Node15 -->
<g id="Node000015" class="node">
<title>Node15</title>
<g id="a_Node000015"><a xlink:href="classLGE_1_1Log.html#aa6f98018af29c23dd7f574d3df5dda5e" target="_top" xlink:title=" ">
<polygon fill="white" stroke="#666666" points="393.38,-422 307.62,-422 307.62,-402 393.38,-402 393.38,-422"/>
<text xml:space="preserve" text-anchor="middle" x="350.5" y="-408.5" font-family="Helvetica,sans-Serif" font-size="10.00">LGE::Log::Warn</text>
</a>
</g>
</g>
<!-- Node14&#45;&gt;Node15 -->
<g id="edge24_Node000014_Node000015" class="edge">
<title>Node14&#45;&gt;Node15</title>
<g id="a_edge24_Node000014_Node000015"><a xlink:title=" ">
<path fill="none" stroke="#63b8ff" d="M230.75,-408.28C252.32,-408.95 275.55,-409.68 295.69,-410.31"/>
<polygon fill="#63b8ff" stroke="#63b8ff" points="295.54,-413.81 305.65,-410.63 295.76,-406.81 295.54,-413.81"/>
</a>
</g>
</g>
</g>
</svg>
