<?xml version="1.0" encoding="UTF-8" standalone="no"?>
<!DOCTYPE svg PUBLIC "-//W3C//DTD SVG 1.1//EN"
 "http://www.w3.org/Graphics/SVG/1.1/DTD/svg11.dtd">
<!-- Generated by graphviz version 14.0.2 (20251019.1705)
 -->
<!-- Title: TEST Pages: 1 -->
<svg width="960pt" height="305pt"
 viewBox="0.00 0.00 960.00 305.00" xmlns="http://www.w3.org/2000/svg" xmlns:xlink="http://www.w3.org/1999/xlink">
<g id="graph0" class="graph" transform="scale(1 1) rotate(0) translate(4 301.47)">
<title>TEST</title>
<!-- Node1 -->
<g id="Node000001" class="node">
<title>Node1</title>
<g id="a_Node000001"><a xlink:title=" ">
<polygon fill="#999999" stroke="#666666" points="41.5,-89 0,-89 0,-69 41.5,-69 41.5,-89"/>
<text xml:space="preserve" text-anchor="middle" x="20.75" y="-75.5" font-family="Helvetica,sans-Serif" font-size="10.00">TEST</text>
</a>
</g>
</g>
<!-- Node2 -->
<g id="Node000002" class="node">
<title>Node2</title>
<g id="a_Node000002"><a xlink:href="namespaceLGE_1_1LxFile.html#a495ab310e479d036634c3628390f80a0" target="_top" xlink:title=" ">
<polygon fill="white" stroke="#666666" points="187.62,-174 85.38,-174 85.38,-154 187.62,-154 187.62,-174"/>
<text xml:space="preserve" text-anchor="middle" x="136.5" y="-160.5" font-family="Helvetica,sans-Serif" font-size="10.00">LGE::LxFile::Delete</text>
</a>
</g>
</g>
<!-- Node1&#45;&gt;Node2 -->
<g id="edge1_Node000001_Node000002" class="edge">
<title>Node1&#45;&gt;Node2</title>
<g id="a_edge1_Node000001_Node000002"><a xlink:title=" ">
<path fill="none" stroke="#63b8ff" d="M35.7,-89.42C54.9,-103.77 89.73,-129.8 112.74,-146.99"/>
<polygon fill="#63b8ff" stroke="#63b8ff" points="110.48,-149.67 120.58,-152.85 114.67,-144.06 110.48,-149.67"/>
</a>
</g>
</g>
<!-- Node11 -->
<g id="Node000011" class="node">
<title>Node11</title>
<g id="a_Node000011"><a xlink:href="namespaceLGE_1_1LxFile.html#a06d0b8c5590da8bc48cf22d321fc4074" target="_top" xlink:title=" ">
<polygon fill="white" stroke="#666666" points="345.38,-79 237.88,-79 237.88,-59 345.38,-59 345.38,-79"/>
<text xml:space="preserve" text-anchor="middle" x="291.62" y="-65.5" font-family="Helvetica,sans-Serif" font-size="10.00">LGE::LxFile::WriteAll</text>
</a>
</g>
</g>
<!-- Node1&#45;&gt;Node11 -->
<g id="edge19_Node000001_Node000011" class="edge">
<title>Node1&#45;&gt;Node11</title>
<g id="a_edge19_Node000001_Node000011"><a xlink:title=" ">
<path fill="none" stroke="#63b8ff" d="M41.83,-79.68C74.21,-80.63 139.92,-81.91 195.5,-79 205.61,-78.47 216.3,-77.63 226.71,-76.65"/>
<polygon fill="#63b8ff" stroke="#63b8ff" points="226.76,-80.16 236.36,-75.69 226.07,-73.19 226.76,-80.16"/>
</a>
</g>
</g>
<!-- Node12 -->
<g id="Node000012" class="node">
<title>Node12</title>
<g id="a_Node000012"><a xlink:href="namespaceLGE_1_1LxFile.html#a11e62876b312a11b881b484bb3a5ee71" target="_top" xlink:title=" ">
<polygon fill="white" stroke="#666666" points="187.25,-70 85.75,-70 85.75,-50 187.25,-50 187.25,-70"/>
<text xml:space="preserve" text-anchor="middle" x="136.5" y="-56.5" font-family="Helvetica,sans-Serif" font-size="10.00">LGE::LxFile::Exists</text>
</a>
</g>
</g>
<!-- Node1&#45;&gt;Node12 -->
<g id="edge17_Node000001_Node000012" class="edge">
<title>Node1&#45;&gt;Node12</title>
<g id="a_edge17_Node000001_Node000012"><a xlink:title=" ">
<path fill="none" stroke="#63b8ff" d="M41.82,-75.65C51.01,-74.11 62.43,-72.2 74.12,-70.25"/>
<polygon fill="#63b8ff" stroke="#63b8ff" points="74.55,-73.73 83.84,-68.63 73.4,-66.82 74.55,-73.73"/>
</a>
</g>
</g>
<!-- Node13 -->
<g id="Node000013" class="node">
<title>Node13</title>
<g id="a_Node000013"><a xlink:href="classLGE_1_1Testing_1_1TestUtils.html#a345e283ebede23eaacd1d9c9a1a8fb0d" target="_top" xlink:title=" ">
<polygon fill="white" stroke="#666666" points="195.5,-32 77.5,-32 77.5,0 195.5,0 195.5,-32"/>
<text xml:space="preserve" text-anchor="start" x="85.5" y="-18.5" font-family="Helvetica,sans-Serif" font-size="10.00">LGE::Testing::TestUtils</text>
<text xml:space="preserve" text-anchor="middle" x="136.5" y="-6.5" font-family="Helvetica,sans-Serif" font-size="10.00">::GetTempDir</text>
</a>
</g>
</g>
<!-- Node1&#45;&gt;Node13 -->
<g id="edge18_Node000001_Node000013" class="edge">
<title>Node1&#45;&gt;Node13</title>
<g id="a_edge18_Node000001_Node000013"><a xlink:title=" ">
<path fill="none" stroke="#63b8ff" d="M35.48,-68.54C46.49,-60.44 62.51,-49.24 77.5,-41 79.81,-39.73 82.2,-38.48 84.63,-37.25"/>
<polygon fill="#63b8ff" stroke="#63b8ff" points="85.91,-40.52 93.41,-33.03 82.88,-34.21 85.91,-40.52"/>
</a>
</g>
</g>
<!-- Node3 -->
<g id="Node000003" class="node">
<title>Node3</title>
<g id="a_Node000003"><a xlink:href="classLGE_1_1Log.html#a53f3f4b8797ffd18145739c9e66d690a" target="_top" xlink:title=" ">
<polygon fill="white" stroke="#666666" points="952,-193 867.75,-193 867.75,-173 952,-173 952,-193"/>
<text xml:space="preserve" text-anchor="middle" x="909.88" y="-179.5" font-family="Helvetica,sans-Serif" font-size="10.00">LGE::Log::Error</text>
</a>
</g>
</g>
<!-- Node2&#45;&gt;Node3 -->
<g id="edge2_Node000002_Node000003" class="edge">
<title>Node2&#45;&gt;Node3</title>
<g id="a_edge2_Node000002_Node000003"><a xlink:title=" ">
<path fill="none" stroke="#63b8ff" d="M144.35,-174.35C158.2,-194.34 191.61,-238.15 231.5,-259 318.66,-304.56 351.15,-297 449.5,-297 449.5,-297 449.5,-297 612.25,-297 719.64,-297 835.21,-231.09 884.44,-199.5"/>
<polygon fill="#63b8ff" stroke="#63b8ff" points="886.18,-202.54 892.64,-194.15 882.35,-196.68 886.18,-202.54"/>
</a>
</g>
</g>
<!-- Node4 -->
<g id="Node000004" class="node">
<title>Node4</title>
<g id="a_Node000004"><a xlink:href="classLGE_1_1Log.html#ab0265ee050b8873a2fd31fbdb696ced0" target="_top" xlink:title=" ">
<polygon fill="white" stroke="#666666" points="331.5,-231 251.75,-231 251.75,-211 331.5,-211 331.5,-231"/>
<text xml:space="preserve" text-anchor="middle" x="291.62" y="-217.5" font-family="Helvetica,sans-Serif" font-size="10.00">LGE::Log::Info</text>
</a>
</g>
</g>
<!-- Node2&#45;&gt;Node4 -->
<g id="edge3_Node000002_Node000004" class="edge">
<title>Node2&#45;&gt;Node4</title>
<g id="a_edge3_Node000002_Node000004"><a xlink:title=" ">
<path fill="none" stroke="#63b8ff" d="M162.05,-174.5C180.9,-182.42 207.67,-193.37 231.5,-202 236.19,-203.7 241.11,-205.4 246.03,-207.06"/>
<polygon fill="#63b8ff" stroke="#63b8ff" points="244.68,-210.3 255.27,-210.1 246.87,-203.65 244.68,-210.3"/>
</a>
</g>
</g>
<!-- Node5 -->
<g id="Node000005" class="node">
<title>Node5</title>
<g id="a_Node000005"><a xlink:href="namespaceLGE_1_1LxFS.html#a5684a30f3fa2906f4dafed0258a79166" target="_top" xlink:title=" ">
<polygon fill="white" stroke="#666666" points="351.75,-193 231.5,-193 231.5,-173 351.75,-173 351.75,-193"/>
<text xml:space="preserve" text-anchor="middle" x="291.62" y="-179.5" font-family="Helvetica,sans-Serif" font-size="10.00">LGE::LxFS::IsInitialized</text>
</a>
</g>
</g>
<!-- Node2&#45;&gt;Node5 -->
<g id="edge4_Node000002_Node000005" class="edge">
<title>Node2&#45;&gt;Node5</title>
<g id="a_edge4_Node000002_Node000005"><a xlink:title=" ">
<path fill="none" stroke="#63b8ff" d="M188.06,-170.27C198.28,-171.54 209.19,-172.9 219.95,-174.23"/>
<polygon fill="#63b8ff" stroke="#63b8ff" points="219.22,-177.67 229.57,-175.42 220.08,-170.72 219.22,-177.67"/>
</a>
</g>
</g>
<!-- Node6 -->
<g id="Node000006" class="node">
<title>Node6</title>
<g id="a_Node000006"><a xlink:href="namespaceLGE_1_1VFS.html#abb5d35abfe80efe2f7a07394ad5b706a" target="_top" xlink:title=" ">
<polygon fill="white" stroke="#666666" points="509.88,-155 391.12,-155 391.12,-135 509.88,-135 509.88,-155"/>
<text xml:space="preserve" text-anchor="middle" x="450.5" y="-141.5" font-family="Helvetica,sans-Serif" font-size="10.00">LGE::VFS::IsReadOnly</text>
</a>
</g>
</g>
<!-- Node2&#45;&gt;Node6 -->
<g id="edge5_Node000002_Node000006" class="edge">
<title>Node2&#45;&gt;Node6</title>
<g id="a_edge5_Node000002_Node000006"><a xlink:title=" ">
<path fill="none" stroke="#63b8ff" d="M187.97,-160.93C239.96,-157.76 321.37,-152.8 379.55,-149.26"/>
<polygon fill="#63b8ff" stroke="#63b8ff" points="379.58,-152.76 389.34,-148.66 379.15,-145.78 379.58,-152.76"/>
</a>
</g>
</g>
<!-- Node9 -->
<g id="Node000009" class="node">
<title>Node9</title>
<g id="a_Node000009"><a xlink:href="namespaceLGE_1_1LxFS.html#a12aeb6699602f14153953dceb4284914" target="_top" xlink:title=" ">
<polygon fill="white" stroke="#666666" points="339.75,-117 243.5,-117 243.5,-97 339.75,-97 339.75,-117"/>
<text xml:space="preserve" text-anchor="middle" x="291.62" y="-103.5" font-family="Helvetica,sans-Serif" font-size="10.00">LGE::LxFS::Paths</text>
</a>
</g>
</g>
<!-- Node2&#45;&gt;Node9 -->
<g id="edge10_Node000002_Node000009" class="edge">
<title>Node2&#45;&gt;Node9</title>
<g id="a_edge10_Node000002_Node000009"><a xlink:title=" ">
<path fill="none" stroke="#63b8ff" d="M165.59,-153.55C189.79,-144.53 224.98,-131.43 251.87,-121.43"/>
<polygon fill="#63b8ff" stroke="#63b8ff" points="252.89,-124.78 261.04,-118.01 250.45,-118.22 252.89,-124.78"/>
</a>
</g>
</g>
<!-- Node10 -->
<g id="Node000010" class="node">
<title>Node10</title>
<g id="a_Node000010"><a xlink:href="namespaceLGE_1_1VFS.html#aee891612cc393155878775a61e486c0b" target="_top" xlink:title=" ">
<polygon fill="white" stroke="#666666" points="513.25,-231 387.75,-231 387.75,-211 513.25,-211 513.25,-231"/>
<text xml:space="preserve" text-anchor="middle" x="450.5" y="-217.5" font-family="Helvetica,sans-Serif" font-size="10.00">LGE::VFS::ToVirtualPath</text>
</a>
</g>
</g>
<!-- Node2&#45;&gt;Node10 -->
<g id="edge11_Node000002_Node000010" class="edge">
<title>Node2&#45;&gt;Node10</title>
<g id="a_edge11_Node000002_Node000010"><a xlink:title=" ">
<path fill="none" stroke="#63b8ff" d="M146,-174.45C161.04,-192.02 194.3,-226.84 231.5,-240 290.15,-260.74 362.96,-247.18 407.82,-234.71"/>
<polygon fill="#63b8ff" stroke="#63b8ff" points="408.79,-238.07 417.42,-231.92 406.84,-231.35 408.79,-238.07"/>
</a>
</g>
</g>
<!-- Node2&#45;&gt;Node11 -->
<g id="edge14_Node000002_Node000011" class="edge">
<title>Node2&#45;&gt;Node11</title>
<g id="a_edge14_Node000002_Node000011"><a xlink:title=" ">
<path fill="none" stroke="#63b8ff" d="M149.19,-153.63C170.22,-135.14 213.87,-97.53 231.5,-88 234.35,-86.46 237.34,-85.02 240.4,-83.68"/>
<polygon fill="#63b8ff" stroke="#63b8ff" points="241.56,-86.99 249.58,-80.05 238.99,-80.48 241.56,-86.99"/>
</a>
</g>
</g>
<!-- Node7 -->
<g id="Node000007" class="node">
<title>Node7</title>
<g id="a_Node000007"><a xlink:href="namespaceLGE_1_1LxPath.html#ab664986e94ce09aa029f9eb2fcf50133" target="_top" xlink:title=" ">
<polygon fill="white" stroke="#666666" points="673.25,-193 549.25,-193 549.25,-173 673.25,-173 673.25,-193"/>
<text xml:space="preserve" text-anchor="middle" x="611.25" y="-179.5" font-family="Helvetica,sans-Serif" font-size="10.00">LGE::LxPath::IsSubPath</text>
</a>
</g>
</g>
<!-- Node6&#45;&gt;Node7 -->
<g id="edge6_Node000006_Node000007" class="edge">
<title>Node6&#45;&gt;Node7</title>
<g id="a_edge6_Node000006_Node000007"><a xlink:title=" ">
<path fill="none" stroke="#63b8ff" d="M495.3,-155.48C513.95,-159.95 535.91,-165.21 555.61,-169.92"/>
<polygon fill="#63b8ff" stroke="#63b8ff" points="554.58,-173.27 565.12,-172.2 556.21,-166.47 554.58,-173.27"/>
</a>
</g>
</g>
<!-- Node8 -->
<g id="Node000008" class="node">
<title>Node8</title>
<g id="a_Node000008"><a xlink:href="namespaceLGE_1_1LxPath.html#a314a60ce690c90f4ee0b4e64c0199408" target="_top" xlink:title=" ">
<polygon fill="white" stroke="#666666" points="831.75,-193 709.25,-193 709.25,-173 831.75,-173 831.75,-193"/>
<text xml:space="preserve" text-anchor="middle" x="770.5" y="-179.5" font-family="Helvetica,sans-Serif" font-size="10.00">LGE::LxPath::Normalize</text>
</a>
</g>
</g>
<!-- Node6&#45;&gt;Node8 -->
<g id="edge9_Node000006_Node000008" class="edge">
<title>Node6&#45;&gt;Node8</title>
<g id="a_edge9_Node000006_Node000008"><a xlink:title=" ">
<path fill="none" stroke="#63b8ff" d="M510.06,-148.26C554.88,-151.19 618.16,-156.23 673.25,-164 685.52,-165.73 698.58,-168.01 711,-170.39"/>
<polygon fill="#63b8ff" stroke="#63b8ff" points="710.22,-173.8 720.7,-172.3 711.57,-166.93 710.22,-173.8"/>
</a>
</g>
</g>
<!-- Node7&#45;&gt;Node8 -->
<g id="edge7_Node000007_Node000008" class="edge">
<title>Node7&#45;&gt;Node8</title>
<g id="a_edge7_Node000007_Node000008"><a xlink:title=" ">
<path fill="none" stroke="#63b8ff" d="M673.5,-183C681.41,-183 689.57,-183 697.63,-183"/>
<polygon fill="#63b8ff" stroke="#63b8ff" points="697.42,-186.5 707.42,-183 697.42,-179.5 697.42,-186.5"/>
</a>
</g>
</g>
<!-- Node8&#45;&gt;Node3 -->
<g id="edge8_Node000008_Node000003" class="edge">
<title>Node8&#45;&gt;Node3</title>
<g id="a_edge8_Node000008_Node000003"><a xlink:title=" ">
<path fill="none" stroke="#63b8ff" d="M832.15,-183C840.17,-183 848.34,-183 856.2,-183"/>
<polygon fill="#63b8ff" stroke="#63b8ff" points="855.95,-186.5 865.95,-183 855.95,-179.5 855.95,-186.5"/>
</a>
</g>
</g>
<!-- Node10&#45;&gt;Node7 -->
<g id="edge12_Node000010_Node000007" class="edge">
<title>Node10&#45;&gt;Node7</title>
<g id="a_edge12_Node000010_Node000007"><a xlink:title=" ">
<path fill="none" stroke="#63b8ff" d="M495.3,-210.52C513.95,-206.05 535.91,-200.79 555.61,-196.08"/>
<polygon fill="#63b8ff" stroke="#63b8ff" points="556.21,-199.53 565.12,-193.8 554.58,-192.73 556.21,-199.53"/>
</a>
</g>
</g>
<!-- Node10&#45;&gt;Node8 -->
<g id="edge13_Node000010_Node000008" class="edge">
<title>Node10&#45;&gt;Node8</title>
<g id="a_edge13_Node000010_Node000008"><a xlink:title=" ">
<path fill="none" stroke="#63b8ff" d="M513.36,-217.52C557.95,-214.57 619.49,-209.59 673.25,-202 685.52,-200.27 698.58,-197.99 711,-195.61"/>
<polygon fill="#63b8ff" stroke="#63b8ff" points="711.57,-199.07 720.7,-193.7 710.22,-192.2 711.57,-199.07"/>
</a>
</g>
</g>
<!-- Node11&#45;&gt;Node3 -->
<g id="edge15_Node000011_Node000003" class="edge">
<title>Node11&#45;&gt;Node3</title>
<g id="a_edge15_Node000011_Node000003"><a xlink:title=" ">
<path fill="none" stroke="#63b8ff" d="M345.65,-77.13C442.56,-92.26 654.6,-126.62 831.75,-164 840.1,-165.76 848.92,-167.78 857.49,-169.83"/>
<polygon fill="#63b8ff" stroke="#63b8ff" points="856.55,-173.21 867.09,-172.17 858.21,-166.4 856.55,-173.21"/>
</a>
</g>
</g>
<!-- Node11&#45;&gt;Node6 -->
<g id="edge16_Node000011_Node000006" class="edge">
<title>Node11&#45;&gt;Node6</title>
<g id="a_edge16_Node000011_Node000006"><a xlink:title=" ">
<path fill="none" stroke="#63b8ff" d="M329.36,-79.44C336.88,-81.95 344.66,-84.84 351.75,-88 377.61,-99.53 405.32,-116.14 424.62,-128.46"/>
<polygon fill="#63b8ff" stroke="#63b8ff" points="422.58,-131.31 432.87,-133.81 426.38,-125.43 422.58,-131.31"/>
</a>
</g>
</g>
</g>
</svg>
