<?xml version="1.0" encoding="UTF-8" standalone="no"?>
<!DOCTYPE svg PUBLIC "-//W3C//DTD SVG 1.1//EN"
 "http://www.w3.org/Graphics/SVG/1.1/DTD/svg11.dtd">
<!-- Generated by graphviz version 14.0.2 (20251019.1705)
 -->
<!-- Title: TEST Pages: 1 -->
<svg width="797pt" height="211pt"
 viewBox="0.00 0.00 797.00 211.00" xmlns="http://www.w3.org/2000/svg" xmlns:xlink="http://www.w3.org/1999/xlink">
<g id="graph0" class="graph" transform="scale(1 1) rotate(0) translate(4 206.62)">
<title>TEST</title>
<!-- Node1 -->
<g id="Node000001" class="node">
<title>Node1</title>
<g id="a_Node000001"><a xlink:title=" ">
<polygon fill="#999999" stroke="#666666" points="41.5,-114.62 0,-114.62 0,-94.62 41.5,-94.62 41.5,-114.62"/>
<text xml:space="preserve" text-anchor="middle" x="20.75" y="-101.12" font-family="Helvetica,sans-Serif" font-size="10.00">TEST</text>
</a>
</g>
</g>
<!-- Node2 -->
<g id="Node000002" class="node">
<title>Node2</title>
<g id="a_Node000002"><a xlink:href="namespaceLGE_1_1LxFile.html#a11e62876b312a11b881b484bb3a5ee71" target="_top" xlink:title=" ">
<polygon fill="white" stroke="#666666" points="187.25,-202.62 85.75,-202.62 85.75,-182.62 187.25,-182.62 187.25,-202.62"/>
<text xml:space="preserve" text-anchor="middle" x="136.5" y="-189.12" font-family="Helvetica,sans-Serif" font-size="10.00">LGE::LxFile::Exists</text>
</a>
</g>
</g>
<!-- Node1&#45;&gt;Node2 -->
<g id="edge1_Node000001_Node000002" class="edge">
<title>Node1&#45;&gt;Node2</title>
<g id="a_edge1_Node000001_Node000002"><a xlink:title=" ">
<path fill="none" stroke="#63b8ff" d="M27.54,-115.09C36.39,-130.16 54.68,-157.88 77.5,-173.62 79.44,-174.96 81.48,-176.21 83.6,-177.38"/>
<polygon fill="#63b8ff" stroke="#63b8ff" points="81.96,-180.48 92.49,-181.6 84.96,-174.15 81.96,-180.48"/>
</a>
</g>
</g>
<!-- Node3 -->
<g id="Node000003" class="node">
<title>Node3</title>
<g id="a_Node000003"><a xlink:href="classLGE_1_1Testing_1_1TestUtils.html#a345e283ebede23eaacd1d9c9a1a8fb0d" target="_top" xlink:title=" ">
<polygon fill="white" stroke="#666666" points="195.5,-164.62 77.5,-164.62 77.5,-132.62 195.5,-132.62 195.5,-164.62"/>
<text xml:space="preserve" text-anchor="start" x="85.5" y="-151.12" font-family="Helvetica,sans-Serif" font-size="10.00">LGE::Testing::TestUtils</text>
<text xml:space="preserve" text-anchor="middle" x="136.5" y="-139.12" font-family="Helvetica,sans-Serif" font-size="10.00">::GetTempDir</text>
</a>
</g>
</g>
<!-- Node1&#45;&gt;Node3 -->
<g id="edge2_Node000001_Node000003" class="edge">
<title>Node1&#45;&gt;Node3</title>
<g id="a_edge2_Node000001_Node000003"><a xlink:title=" ">
<path fill="none" stroke="#63b8ff" d="M41.82,-112.39C53.22,-116.8 68.06,-122.54 82.57,-128.15"/>
<polygon fill="#63b8ff" stroke="#63b8ff" points="81.01,-131.3 91.6,-131.64 83.54,-124.77 81.01,-131.3"/>
</a>
</g>
</g>
<!-- Node4 -->
<g id="Node000004" class="node">
<title>Node4</title>
<g id="a_Node000004"><a xlink:href="namespaceLGE_1_1LxFile.html#ac0a61f0e1f49fdcf553f007750c1ba37" target="_top" xlink:title=" ">
<polygon fill="white" stroke="#666666" points="345,-112.62 236.75,-112.62 236.75,-92.62 345,-92.62 345,-112.62"/>
<text xml:space="preserve" text-anchor="middle" x="290.88" y="-99.12" font-family="Helvetica,sans-Serif" font-size="10.00">LGE::LxFile::ReadAll</text>
</a>
</g>
</g>
<!-- Node1&#45;&gt;Node4 -->
<g id="edge3_Node000001_Node000004" class="edge">
<title>Node1&#45;&gt;Node4</title>
<g id="a_edge3_Node000001_Node000004"><a xlink:title=" ">
<path fill="none" stroke="#63b8ff" d="M41.9,-104.47C80.29,-104.19 165.39,-103.55 225.14,-103.11"/>
<polygon fill="#63b8ff" stroke="#63b8ff" points="224.87,-106.61 234.84,-103.03 224.82,-99.61 224.87,-106.61"/>
</a>
</g>
</g>
<!-- Node6 -->
<g id="Node000006" class="node">
<title>Node6</title>
<g id="a_Node000006"><a xlink:href="classLGE_1_1Testing_1_1TestUtils.html#a440e289c0fd9269ce9a79ab8e77e700f" target="_top" xlink:title=" ">
<polygon fill="white" stroke="#666666" points="195.5,-76.62 77.5,-76.62 77.5,-44.62 195.5,-44.62 195.5,-76.62"/>
<text xml:space="preserve" text-anchor="start" x="85.5" y="-63.12" font-family="Helvetica,sans-Serif" font-size="10.00">LGE::Testing::TestUtils</text>
<text xml:space="preserve" text-anchor="middle" x="136.5" y="-51.12" font-family="Helvetica,sans-Serif" font-size="10.00">::RemovePath</text>
</a>
</g>
</g>
<!-- Node1&#45;&gt;Node6 -->
<g id="edge5_Node000001_Node000006" class="edge">
<title>Node1&#45;&gt;Node6</title>
<g id="a_edge5_Node000001_Node000006"><a xlink:title=" ">
<path fill="none" stroke="#63b8ff" d="M41.82,-96.86C53.22,-92.45 68.06,-86.71 82.57,-81.1"/>
<polygon fill="#63b8ff" stroke="#63b8ff" points="83.54,-84.48 91.6,-77.6 81.01,-77.95 83.54,-84.48"/>
</a>
</g>
</g>
<!-- Node7 -->
<g id="Node000007" class="node">
<title>Node7</title>
<g id="a_Node000007"><a xlink:href="namespaceLGE_1_1LxFile.html#a06d0b8c5590da8bc48cf22d321fc4074" target="_top" xlink:title=" ">
<polygon fill="white" stroke="#666666" points="190.25,-26.62 82.75,-26.62 82.75,-6.62 190.25,-6.62 190.25,-26.62"/>
<text xml:space="preserve" text-anchor="middle" x="136.5" y="-13.12" font-family="Helvetica,sans-Serif" font-size="10.00">LGE::LxFile::WriteAll</text>
</a>
</g>
</g>
<!-- Node1&#45;&gt;Node7 -->
<g id="edge6_Node000001_Node000007" class="edge">
<title>Node1&#45;&gt;Node7</title>
<g id="a_edge6_Node000001_Node000007"><a xlink:title=" ">
<path fill="none" stroke="#63b8ff" d="M27.54,-94.15C36.39,-79.08 54.68,-51.36 77.5,-35.62 79.44,-34.28 81.48,-33.03 83.6,-31.87"/>
<polygon fill="#63b8ff" stroke="#63b8ff" points="84.96,-35.1 92.49,-27.65 81.96,-28.77 84.96,-35.1"/>
</a>
</g>
</g>
<!-- Node5 -->
<g id="Node000005" class="node">
<title>Node5</title>
<g id="a_Node000005"><a xlink:href="classLGE_1_1Log.html#a53f3f4b8797ffd18145739c9e66d690a" target="_top" xlink:title=" ">
<polygon fill="white" stroke="#666666" points="789,-70.62 704.75,-70.62 704.75,-50.62 789,-50.62 789,-70.62"/>
<text xml:space="preserve" text-anchor="middle" x="746.88" y="-57.12" font-family="Helvetica,sans-Serif" font-size="10.00">LGE::Log::Error</text>
</a>
</g>
</g>
<!-- Node4&#45;&gt;Node5 -->
<g id="edge4_Node000004_Node000005" class="edge">
<title>Node4&#45;&gt;Node5</title>
<g id="a_edge4_Node000004_Node000005"><a xlink:title=" ">
<path fill="none" stroke="#63b8ff" d="M345.41,-100.42C418.64,-97.01 554.04,-89.25 668.75,-74.62 676.64,-73.62 684.95,-72.34 693.07,-70.97"/>
<polygon fill="#63b8ff" stroke="#63b8ff" points="693.64,-74.42 702.88,-69.25 692.43,-67.53 693.64,-74.42"/>
</a>
</g>
</g>
<!-- Node7&#45;&gt;Node5 -->
<g id="edge7_Node000007_Node000005" class="edge">
<title>Node7&#45;&gt;Node5</title>
<g id="a_edge7_Node000007_Node000005"><a xlink:title=" ">
<path fill="none" stroke="#63b8ff" d="M182.22,-27.1C197.74,-30.35 215.31,-33.61 231.5,-35.62 399.11,-56.51 599.47,-60.19 692.96,-60.68"/>
<polygon fill="#63b8ff" stroke="#63b8ff" points="692.83,-64.18 702.84,-60.72 692.86,-57.18 692.83,-64.18"/>
</a>
</g>
</g>
<!-- Node8 -->
<g id="Node000008" class="node">
<title>Node8</title>
<g id="a_Node000008"><a xlink:href="namespaceLGE_1_1VFS.html#abb5d35abfe80efe2f7a07394ad5b706a" target="_top" xlink:title=" ">
<polygon fill="white" stroke="#666666" points="350.25,-26.62 231.5,-26.62 231.5,-6.62 350.25,-6.62 350.25,-26.62"/>
<text xml:space="preserve" text-anchor="middle" x="290.88" y="-13.12" font-family="Helvetica,sans-Serif" font-size="10.00">LGE::VFS::IsReadOnly</text>
</a>
</g>
</g>
<!-- Node7&#45;&gt;Node8 -->
<g id="edge8_Node000007_Node000008" class="edge">
<title>Node7&#45;&gt;Node8</title>
<g id="a_edge8_Node000007_Node000008"><a xlink:title=" ">
<path fill="none" stroke="#63b8ff" d="M190.37,-16.62C199.82,-16.62 209.8,-16.62 219.65,-16.62"/>
<polygon fill="#63b8ff" stroke="#63b8ff" points="219.6,-20.12 229.6,-16.62 219.6,-13.12 219.6,-20.12"/>
</a>
</g>
</g>
<!-- Node9 -->
<g id="Node000009" class="node">
<title>Node9</title>
<g id="a_Node000009"><a xlink:href="namespaceLGE_1_1LxPath.html#ab664986e94ce09aa029f9eb2fcf50133" target="_top" xlink:title=" ">
<polygon fill="white" stroke="#666666" points="510.25,-32.62 386.25,-32.62 386.25,-12.62 510.25,-12.62 510.25,-32.62"/>
<text xml:space="preserve" text-anchor="middle" x="448.25" y="-19.12" font-family="Helvetica,sans-Serif" font-size="10.00">LGE::LxPath::IsSubPath</text>
</a>
</g>
</g>
<!-- Node8&#45;&gt;Node9 -->
<g id="edge9_Node000008_Node000009" class="edge">
<title>Node8&#45;&gt;Node9</title>
<g id="a_edge9_Node000008_Node000009"><a xlink:title=" ">
<path fill="none" stroke="#63b8ff" d="M350.62,-18.89C358.44,-19.19 366.54,-19.51 374.57,-19.82"/>
<polygon fill="#63b8ff" stroke="#63b8ff" points="374.2,-23.3 384.33,-20.19 374.47,-16.31 374.2,-23.3"/>
</a>
</g>
</g>
<!-- Node10 -->
<g id="Node000010" class="node">
<title>Node10</title>
<g id="a_Node000010"><a xlink:href="namespaceLGE_1_1LxPath.html#a314a60ce690c90f4ee0b4e64c0199408" target="_top" xlink:title=" ">
<polygon fill="white" stroke="#666666" points="668.75,-32.62 546.25,-32.62 546.25,-12.62 668.75,-12.62 668.75,-32.62"/>
<text xml:space="preserve" text-anchor="middle" x="607.5" y="-19.12" font-family="Helvetica,sans-Serif" font-size="10.00">LGE::LxPath::Normalize</text>
</a>
</g>
</g>
<!-- Node8&#45;&gt;Node10 -->
<g id="edge12_Node000008_Node000010" class="edge">
<title>Node8&#45;&gt;Node10</title>
<g id="a_edge12_Node000008_Node000010"><a xlink:title=" ">
<path fill="none" stroke="#63b8ff" d="M350.65,-7.26C362.41,-5.75 374.7,-4.42 386.25,-3.62 441.23,0.15 455.4,1.74 510.25,-3.62 523.89,-4.96 538.47,-7.33 552.04,-9.96"/>
<polygon fill="#63b8ff" stroke="#63b8ff" points="551.19,-13.35 561.68,-11.9 552.57,-6.49 551.19,-13.35"/>
</a>
</g>
</g>
<!-- Node9&#45;&gt;Node10 -->
<g id="edge10_Node000009_Node000010" class="edge">
<title>Node9&#45;&gt;Node10</title>
<g id="a_edge10_Node000009_Node000010"><a xlink:title=" ">
<path fill="none" stroke="#63b8ff" d="M510.5,-22.62C518.41,-22.62 526.57,-22.62 534.63,-22.62"/>
<polygon fill="#63b8ff" stroke="#63b8ff" points="534.42,-26.12 544.42,-22.62 534.42,-19.12 534.42,-26.12"/>
</a>
</g>
</g>
<!-- Node10&#45;&gt;Node5 -->
<g id="edge11_Node000010_Node000005" class="edge">
<title>Node10&#45;&gt;Node5</title>
<g id="a_edge11_Node000010_Node000005"><a xlink:title=" ">
<path fill="none" stroke="#63b8ff" d="M646.4,-33.11C662.17,-37.47 680.66,-42.58 697.4,-47.21"/>
<polygon fill="#63b8ff" stroke="#63b8ff" points="696.07,-50.48 706.64,-49.77 697.93,-43.73 696.07,-50.48"/>
</a>
</g>
</g>
</g>
</svg>
