<?xml version="1.0" encoding="UTF-8" standalone="no"?>
<!DOCTYPE svg PUBLIC "-//W3C//DTD SVG 1.1//EN"
 "http://www.w3.org/Graphics/SVG/1.1/DTD/svg11.dtd">
<!-- Generated by graphviz version 14.0.2 (20251019.1705)
 -->
<!-- Title: TestRunner.cpp Pages: 1 -->
<svg width="356pt" height="140pt"
 viewBox="0.00 0.00 356.00 140.00" xmlns="http://www.w3.org/2000/svg" xmlns:xlink="http://www.w3.org/1999/xlink">
<g id="graph0" class="graph" transform="scale(1 1) rotate(0) translate(4 136)">
<title>TestRunner.cpp</title>
<!-- Node1 -->
<g id="Node000001" class="node">
<title>Node1</title>
<g id="a_Node000001"><a xlink:title=" ">
<polygon fill="#999999" stroke="#666666" points="287,-132 202,-132 202,-112 287,-112 287,-132"/>
<text xml:space="preserve" text-anchor="middle" x="244.5" y="-118.5" font-family="Helvetica,sans-Serif" font-size="10.00">TestRunner.cpp</text>
</a>
</g>
</g>
<!-- Node2 -->
<g id="Node000002" class="node">
<title>Node2</title>
<g id="a_Node000002"><a xlink:href="TestFramework_8h.html" target="_top" xlink:title=" ">
<polygon fill="white" stroke="#666666" points="181.75,-76 35.25,-76 35.25,-56 181.75,-56 181.75,-76"/>
<text xml:space="preserve" text-anchor="middle" x="108.5" y="-62.5" font-family="Helvetica,sans-Serif" font-size="10.00">LGE/testing/TestFramework.h</text>
</a>
</g>
</g>
<!-- Node1&#45;&gt;Node2 -->
<g id="edge1_Node000001_Node000002" class="edge">
<title>Node1&#45;&gt;Node2</title>
<g id="a_edge1_Node000001_Node000002"><a xlink:title=" ">
<path fill="none" stroke="#63b8ff" d="M220.81,-111.59C199.3,-103.05 167.3,-90.35 142.96,-80.68"/>
<polygon fill="#63b8ff" stroke="#63b8ff" points="144.37,-77.48 133.78,-77.04 141.78,-83.98 144.37,-77.48"/>
</a>
</g>
</g>
<!-- Node3 -->
<g id="Node000003" class="node">
<title>Node3</title>
<g id="a_Node000003"><a xlink:title=" ">
<polygon fill="#e0e0e0" stroke="#999999" points="247.5,-20 207.5,-20 207.5,0 247.5,0 247.5,-20"/>
<text xml:space="preserve" text-anchor="middle" x="227.5" y="-6.5" font-family="Helvetica,sans-Serif" font-size="10.00">string</text>
</a>
</g>
</g>
<!-- Node1&#45;&gt;Node3 -->
<g id="edge10_Node000001_Node000003" class="edge">
<title>Node1&#45;&gt;Node3</title>
<g id="a_edge10_Node000001_Node000003"><a xlink:title=" ">
<path fill="none" stroke="#63b8ff" d="M240.13,-111.59C236.24,-102.66 230.8,-88.73 228.5,-76 225.85,-61.34 225.67,-44.52 226.11,-31.66"/>
<polygon fill="#63b8ff" stroke="#63b8ff" points="229.6,-32.03 226.62,-21.86 222.61,-31.67 229.6,-32.03"/>
</a>
</g>
</g>
<!-- Node7 -->
<g id="Node000007" class="node">
<title>Node7</title>
<g id="a_Node000007"><a xlink:href="Log_8h.html" target="_top" xlink:title=" ">
<polygon fill="white" stroke="#666666" points="321.62,-76 237.38,-76 237.38,-56 321.62,-56 321.62,-76"/>
<text xml:space="preserve" text-anchor="middle" x="279.5" y="-62.5" font-family="Helvetica,sans-Serif" font-size="10.00">LGE/core/Log.h</text>
</a>
</g>
</g>
<!-- Node1&#45;&gt;Node7 -->
<g id="edge6_Node000001_Node000007" class="edge">
<title>Node1&#45;&gt;Node7</title>
<g id="a_edge6_Node000001_Node000007"><a xlink:title=" ">
<path fill="none" stroke="#63b8ff" d="M250.6,-111.59C255.21,-104.47 261.71,-94.45 267.37,-85.72"/>
<polygon fill="#63b8ff" stroke="#63b8ff" points="270.15,-87.86 272.65,-77.57 264.27,-84.06 270.15,-87.86"/>
</a>
</g>
</g>
<!-- Node8 -->
<g id="Node000008" class="node">
<title>Node8</title>
<g id="a_Node000008"><a xlink:title=" ">
<polygon fill="#e0e0e0" stroke="#999999" points="348.25,-20 294.75,-20 294.75,0 348.25,0 348.25,-20"/>
<text xml:space="preserve" text-anchor="middle" x="321.5" y="-6.5" font-family="Helvetica,sans-Serif" font-size="10.00">iostream</text>
</a>
</g>
</g>
<!-- Node1&#45;&gt;Node8 -->
<g id="edge9_Node000001_Node000008" class="edge">
<title>Node1&#45;&gt;Node8</title>
<g id="a_edge9_Node000001_Node000008"><a xlink:title=" ">
<path fill="none" stroke="#63b8ff" d="M281.33,-111.54C299.49,-104.81 319.77,-93.73 330.5,-76 338.71,-62.43 335.33,-44.4 330.54,-30.77"/>
<polygon fill="#63b8ff" stroke="#63b8ff" points="333.8,-29.49 326.79,-21.55 327.31,-32.13 333.8,-29.49"/>
</a>
</g>
</g>
<!-- Node2&#45;&gt;Node3 -->
<g id="edge2_Node000002_Node000003" class="edge">
<title>Node2&#45;&gt;Node3</title>
<g id="a_edge2_Node000002_Node000003"><a xlink:title=" ">
<path fill="none" stroke="#63b8ff" d="M129.23,-55.59C147.83,-47.15 175.38,-34.65 196.58,-25.03"/>
<polygon fill="#63b8ff" stroke="#63b8ff" points="197.97,-28.24 205.63,-20.92 195.08,-21.87 197.97,-28.24"/>
</a>
</g>
</g>
<!-- Node4 -->
<g id="Node000004" class="node">
<title>Node4</title>
<g id="a_Node000004"><a xlink:title=" ">
<polygon fill="#e0e0e0" stroke="#999999" points="43,-20 0,-20 0,0 43,0 43,-20"/>
<text xml:space="preserve" text-anchor="middle" x="21.5" y="-6.5" font-family="Helvetica,sans-Serif" font-size="10.00">vector</text>
</a>
</g>
</g>
<!-- Node2&#45;&gt;Node4 -->
<g id="edge3_Node000002_Node000004" class="edge">
<title>Node2&#45;&gt;Node4</title>
<g id="a_edge3_Node000002_Node000004"><a xlink:title=" ">
<path fill="none" stroke="#63b8ff" d="M93.35,-55.59C80.45,-47.59 61.67,-35.93 46.54,-26.54"/>
<polygon fill="#63b8ff" stroke="#63b8ff" points="48.4,-23.58 38.06,-21.28 44.71,-29.53 48.4,-23.58"/>
</a>
</g>
</g>
<!-- Node5 -->
<g id="Node000005" class="node">
<title>Node5</title>
<g id="a_Node000005"><a xlink:title=" ">
<polygon fill="#e0e0e0" stroke="#999999" points="119.5,-20 61.5,-20 61.5,0 119.5,0 119.5,-20"/>
<text xml:space="preserve" text-anchor="middle" x="90.5" y="-6.5" font-family="Helvetica,sans-Serif" font-size="10.00">functional</text>
</a>
</g>
</g>
<!-- Node2&#45;&gt;Node5 -->
<g id="edge4_Node000002_Node000005" class="edge">
<title>Node2&#45;&gt;Node5</title>
<g id="a_edge4_Node000002_Node000005"><a xlink:title=" ">
<path fill="none" stroke="#63b8ff" d="M105.36,-55.59C103.12,-48.86 100.01,-39.53 97.22,-31.15"/>
<polygon fill="#63b8ff" stroke="#63b8ff" points="100.56,-30.11 94.08,-21.73 93.92,-32.33 100.56,-30.11"/>
</a>
</g>
</g>
<!-- Node6 -->
<g id="Node000006" class="node">
<title>Node6</title>
<g id="a_Node000006"><a xlink:title=" ">
<polygon fill="#e0e0e0" stroke="#999999" points="189.12,-20 137.88,-20 137.88,0 189.12,0 189.12,-20"/>
<text xml:space="preserve" text-anchor="middle" x="163.5" y="-6.5" font-family="Helvetica,sans-Serif" font-size="10.00">memory</text>
</a>
</g>
</g>
<!-- Node2&#45;&gt;Node6 -->
<g id="edge5_Node000002_Node000006" class="edge">
<title>Node2&#45;&gt;Node6</title>
<g id="a_edge5_Node000002_Node000006"><a xlink:title=" ">
<path fill="none" stroke="#63b8ff" d="M118.08,-55.59C125.73,-48.08 136.66,-37.35 145.88,-28.3"/>
<polygon fill="#63b8ff" stroke="#63b8ff" points="148.27,-30.86 152.95,-21.36 143.36,-25.87 148.27,-30.86"/>
</a>
</g>
</g>
<!-- Node7&#45;&gt;Node3 -->
<g id="edge8_Node000007_Node000003" class="edge">
<title>Node7&#45;&gt;Node3</title>
<g id="a_edge8_Node000007_Node000003"><a xlink:title=" ">
<path fill="none" stroke="#63b8ff" d="M270.44,-55.59C263.28,-48.16 253.09,-37.58 244.43,-28.58"/>
<polygon fill="#63b8ff" stroke="#63b8ff" points="246.96,-26.16 237.5,-21.39 241.92,-31.02 246.96,-26.16"/>
</a>
</g>
</g>
<!-- Node7&#45;&gt;Node8 -->
<g id="edge7_Node000007_Node000008" class="edge">
<title>Node7&#45;&gt;Node8</title>
<g id="a_edge7_Node000007_Node000008"><a xlink:title=" ">
<path fill="none" stroke="#63b8ff" d="M286.82,-55.59C292.48,-48.32 300.49,-38.02 307.39,-29.15"/>
<polygon fill="#63b8ff" stroke="#63b8ff" points="309.96,-31.54 313.34,-21.49 304.44,-27.24 309.96,-31.54"/>
</a>
</g>
</g>
</g>
</svg>
