<?xml version="1.0" encoding="UTF-8" standalone="no"?>
<!DOCTYPE svg PUBLIC "-//W3C//DTD SVG 1.1//EN"
 "http://www.w3.org/Graphics/SVG/1.1/DTD/svg11.dtd">
<!-- Generated by graphviz version 14.0.2 (20251019.1705)
 -->
<!-- Title: TestFramework.h Pages: 1 -->
<svg width="730pt" height="84pt"
 viewBox="0.00 0.00 730.00 84.00" xmlns="http://www.w3.org/2000/svg" xmlns:xlink="http://www.w3.org/1999/xlink">
<g id="graph0" class="graph" transform="scale(1 1) rotate(0) translate(4 80)">
<title>TestFramework.h</title>
<!-- Node1 -->
<g id="Node000001" class="node">
<title>Node1</title>
<g id="a_Node000001"><a xlink:title=" ">
<polygon fill="#999999" stroke="#666666" points="434.75,-76 343,-76 343,-56 434.75,-56 434.75,-76"/>
<text xml:space="preserve" text-anchor="middle" x="388.88" y="-62.5" font-family="Helvetica,sans-Serif" font-size="10.00">TestFramework.h</text>
</a>
</g>
</g>
<!-- Node2 -->
<g id="Node000002" class="node">
<title>Node2</title>
<g id="a_Node000002"><a xlink:href="TestDependencies_8cpp.html" target="_top" xlink:title=" ">
<polygon fill="white" stroke="#666666" points="115.75,-20 0,-20 0,0 115.75,0 115.75,-20"/>
<text xml:space="preserve" text-anchor="middle" x="57.88" y="-6.5" font-family="Helvetica,sans-Serif" font-size="10.00">TestDependencies.cpp</text>
</a>
</g>
</g>
<!-- Node1&#45;&gt;Node2 -->
<g id="edge1_Node000001_Node000002" class="edge">
<title>Node1&#45;&gt;Node2</title>
<g id="a_edge1_Node000001_Node000002"><a xlink:title=" ">
<path fill="none" stroke="#63b8ff" d="M331.26,-55.6C270.86,-45.75 176.46,-30.35 115.9,-20.47"/>
<polygon fill="#63b8ff" stroke="#63b8ff" points="330.58,-59.04 341.01,-57.19 331.7,-52.13 330.58,-59.04"/>
</a>
</g>
</g>
<!-- Node3 -->
<g id="Node000003" class="node">
<title>Node3</title>
<g id="a_Node000003"><a xlink:href="TestFileIO_8cpp.html" target="_top" xlink:title=" ">
<polygon fill="white" stroke="#666666" points="213.75,-20 134,-20 134,0 213.75,0 213.75,-20"/>
<text xml:space="preserve" text-anchor="middle" x="173.88" y="-6.5" font-family="Helvetica,sans-Serif" font-size="10.00">TestFileIO.cpp</text>
</a>
</g>
</g>
<!-- Node1&#45;&gt;Node3 -->
<g id="edge2_Node000001_Node000003" class="edge">
<title>Node1&#45;&gt;Node3</title>
<g id="a_edge2_Node000001_Node000003"><a xlink:title=" ">
<path fill="none" stroke="#63b8ff" d="M340.35,-52.81C301.37,-43.02 247.41,-29.47 211.62,-20.48"/>
<polygon fill="#63b8ff" stroke="#63b8ff" points="339.41,-56.18 349.96,-55.23 341.11,-49.39 339.41,-56.18"/>
</a>
</g>
</g>
<!-- Node4 -->
<g id="Node000004" class="node">
<title>Node4</title>
<g id="a_Node000004"><a xlink:href="TestFramework_8cpp.html" target="_top" xlink:title=" ">
<polygon fill="white" stroke="#666666" points="334,-20 231.75,-20 231.75,0 334,0 334,-20"/>
<text xml:space="preserve" text-anchor="middle" x="282.88" y="-6.5" font-family="Helvetica,sans-Serif" font-size="10.00">TestFramework.cpp</text>
</a>
</g>
</g>
<!-- Node1&#45;&gt;Node4 -->
<g id="edge3_Node000001_Node000004" class="edge">
<title>Node1&#45;&gt;Node4</title>
<g id="a_edge3_Node000001_Node000004"><a xlink:title=" ">
<path fill="none" stroke="#63b8ff" d="M360.37,-50.48C341.68,-40.96 317.77,-28.78 301.48,-20.48"/>
<polygon fill="#63b8ff" stroke="#63b8ff" points="358.56,-53.49 369.06,-54.91 361.74,-47.25 358.56,-53.49"/>
</a>
</g>
</g>
<!-- Node5 -->
<g id="Node000005" class="node">
<title>Node5</title>
<g id="a_Node000005"><a xlink:href="TestPath_8cpp.html" target="_top" xlink:title=" ">
<polygon fill="white" stroke="#666666" points="425.75,-20 352,-20 352,0 425.75,0 425.75,-20"/>
<text xml:space="preserve" text-anchor="middle" x="388.88" y="-6.5" font-family="Helvetica,sans-Serif" font-size="10.00">TestPath.cpp</text>
</a>
</g>
</g>
<!-- Node1&#45;&gt;Node5 -->
<g id="edge4_Node000001_Node000005" class="edge">
<title>Node1&#45;&gt;Node5</title>
<g id="a_edge4_Node000001_Node000005"><a xlink:title=" ">
<path fill="none" stroke="#63b8ff" d="M388.88,-44.13C388.88,-35.9 388.88,-26.85 388.88,-20.3"/>
<polygon fill="#63b8ff" stroke="#63b8ff" points="385.38,-44.08 388.88,-54.08 392.38,-44.08 385.38,-44.08"/>
</a>
</g>
</g>
<!-- Node6 -->
<g id="Node000006" class="node">
<title>Node6</title>
<g id="a_Node000006"><a xlink:href="TestRunner_8cpp.html" target="_top" xlink:title=" ">
<polygon fill="white" stroke="#666666" points="528.38,-20 443.38,-20 443.38,0 528.38,0 528.38,-20"/>
<text xml:space="preserve" text-anchor="middle" x="485.88" y="-6.5" font-family="Helvetica,sans-Serif" font-size="10.00">TestRunner.cpp</text>
</a>
</g>
</g>
<!-- Node1&#45;&gt;Node6 -->
<g id="edge5_Node000001_Node000006" class="edge">
<title>Node1&#45;&gt;Node6</title>
<g id="a_edge5_Node000001_Node000006"><a xlink:title=" ">
<path fill="none" stroke="#63b8ff" d="M415.68,-50.08C432.67,-40.62 454.15,-28.66 468.85,-20.48"/>
<polygon fill="#63b8ff" stroke="#63b8ff" points="414.13,-46.94 407.09,-54.86 417.53,-53.05 414.13,-46.94"/>
</a>
</g>
</g>
<!-- Node7 -->
<g id="Node000007" class="node">
<title>Node7</title>
<g id="a_Node000007"><a xlink:href="TestSearch_8cpp.html" target="_top" xlink:title=" ">
<polygon fill="white" stroke="#666666" points="631,-20 546.75,-20 546.75,0 631,0 631,-20"/>
<text xml:space="preserve" text-anchor="middle" x="588.88" y="-6.5" font-family="Helvetica,sans-Serif" font-size="10.00">TestSearch.cpp</text>
</a>
</g>
</g>
<!-- Node1&#45;&gt;Node7 -->
<g id="edge6_Node000001_Node000007" class="edge">
<title>Node1&#45;&gt;Node7</title>
<g id="a_edge6_Node000001_Node000007"><a xlink:title=" ">
<path fill="none" stroke="#63b8ff" d="M434.48,-52.69C470.7,-42.91 520.61,-29.43 553.77,-20.48"/>
<polygon fill="#63b8ff" stroke="#63b8ff" points="433.92,-49.21 425.17,-55.2 435.74,-55.97 433.92,-49.21"/>
</a>
</g>
</g>
<!-- Node8 -->
<g id="Node000008" class="node">
<title>Node8</title>
<g id="a_Node000008"><a xlink:href="TestVFS_8cpp.html" target="_top" xlink:title=" ">
<polygon fill="white" stroke="#666666" points="722.38,-20 649.38,-20 649.38,0 722.38,0 722.38,-20"/>
<text xml:space="preserve" text-anchor="middle" x="685.88" y="-6.5" font-family="Helvetica,sans-Serif" font-size="10.00">TestVFS.cpp</text>
</a>
</g>
</g>
<!-- Node1&#45;&gt;Node8 -->
<g id="edge7_Node000001_Node000008" class="edge">
<title>Node1&#45;&gt;Node8</title>
<g id="a_edge7_Node000001_Node000008"><a xlink:title=" ">
<path fill="none" stroke="#63b8ff" d="M446.27,-54.98C497.18,-46.02 573.53,-32.44 639.88,-20 642.91,-19.43 646.06,-18.83 649.23,-18.22"/>
<polygon fill="#63b8ff" stroke="#63b8ff" points="445.91,-51.49 436.67,-56.66 447.12,-58.38 445.91,-51.49"/>
</a>
</g>
</g>
</g>
</svg>
