<?xml version="1.0" encoding="UTF-8" standalone="no"?>
<!DOCTYPE svg PUBLIC "-//W3C//DTD SVG 1.1//EN"
 "http://www.w3.org/Graphics/SVG/1.1/DTD/svg11.dtd">
<!-- Generated by graphviz version 14.0.2 (20251019.1705)
 -->
<!-- Title: TestFileIO.cpp Pages: 1 -->
<svg width="456pt" height="140pt"
 viewBox="0.00 0.00 456.00 140.00" xmlns="http://www.w3.org/2000/svg" xmlns:xlink="http://www.w3.org/1999/xlink">
<g id="graph0" class="graph" transform="scale(1 1) rotate(0) translate(4 136)">
<title>TestFileIO.cpp</title>
<!-- Node1 -->
<g id="Node000001" class="node">
<title>Node1</title>
<g id="a_Node000001"><a xlink:title=" ">
<polygon fill="#999999" stroke="#666666" points="195,-132 115.25,-132 115.25,-112 195,-112 195,-132"/>
<text xml:space="preserve" text-anchor="middle" x="155.12" y="-118.5" font-family="Helvetica,sans-Serif" font-size="10.00">TestFileIO.cpp</text>
</a>
</g>
</g>
<!-- Node2 -->
<g id="Node000002" class="node">
<title>Node2</title>
<g id="a_Node000002"><a xlink:href="TestFramework_8h.html" target="_top" xlink:title=" ">
<polygon fill="white" stroke="#666666" points="422.38,-76 275.88,-76 275.88,-56 422.38,-56 422.38,-76"/>
<text xml:space="preserve" text-anchor="middle" x="349.12" y="-62.5" font-family="Helvetica,sans-Serif" font-size="10.00">LGE/testing/TestFramework.h</text>
</a>
</g>
</g>
<!-- Node1&#45;&gt;Node2 -->
<g id="edge1_Node000001_Node000002" class="edge">
<title>Node1&#45;&gt;Node2</title>
<g id="a_edge1_Node000001_Node000002"><a xlink:title=" ">
<path fill="none" stroke="#63b8ff" d="M188.92,-111.59C220.85,-102.71 268.97,-89.31 304.14,-79.52"/>
<polygon fill="#63b8ff" stroke="#63b8ff" points="304.92,-82.94 313.61,-76.89 303.04,-76.2 304.92,-82.94"/>
</a>
</g>
</g>
<!-- Node3 -->
<g id="Node000003" class="node">
<title>Node3</title>
<g id="a_Node000003"><a xlink:title=" ">
<polygon fill="#e0e0e0" stroke="#999999" points="142.12,-20 102.12,-20 102.12,0 142.12,0 142.12,-20"/>
<text xml:space="preserve" text-anchor="middle" x="122.12" y="-6.5" font-family="Helvetica,sans-Serif" font-size="10.00">string</text>
</a>
</g>
</g>
<!-- Node1&#45;&gt;Node3 -->
<g id="edge12_Node000001_Node000003" class="edge">
<title>Node1&#45;&gt;Node3</title>
<g id="a_edge12_Node000001_Node000003"><a xlink:title=" ">
<path fill="none" stroke="#63b8ff" d="M148.95,-111.78C143.37,-102.97 135.39,-89.14 131.12,-76 126.48,-61.7 124.24,-44.86 123.15,-31.91"/>
<polygon fill="#63b8ff" stroke="#63b8ff" points="126.64,-31.75 122.5,-22 119.66,-32.21 126.64,-31.75"/>
</a>
</g>
</g>
<!-- Node7 -->
<g id="Node000007" class="node">
<title>Node7</title>
<g id="a_Node000007"><a xlink:href="FileIO_8h.html" target="_top" xlink:title=" ">
<polygon fill="white" stroke="#666666" points="84.25,-76 0,-76 0,-56 84.25,-56 84.25,-76"/>
<text xml:space="preserve" text-anchor="middle" x="42.12" y="-62.5" font-family="Helvetica,sans-Serif" font-size="10.00">LGE/fs/FileIO.h</text>
</a>
</g>
</g>
<!-- Node1&#45;&gt;Node7 -->
<g id="edge6_Node000001_Node000007" class="edge">
<title>Node1&#45;&gt;Node7</title>
<g id="a_edge6_Node000001_Node000007"><a xlink:title=" ">
<path fill="none" stroke="#63b8ff" d="M135.44,-111.59C117.97,-103.24 92.17,-90.92 72.13,-81.34"/>
<polygon fill="#63b8ff" stroke="#63b8ff" points="73.86,-78.29 63.33,-77.13 70.84,-84.6 73.86,-78.29"/>
</a>
</g>
</g>
<!-- Node9 -->
<g id="Node000009" class="node">
<title>Node9</title>
<g id="a_Node000009"><a xlink:href="TestUtils_8h.html" target="_top" xlink:title=" ">
<polygon fill="white" stroke="#666666" points="258.12,-76 140.12,-76 140.12,-56 258.12,-56 258.12,-76"/>
<text xml:space="preserve" text-anchor="middle" x="199.12" y="-62.5" font-family="Helvetica,sans-Serif" font-size="10.00">LGE/testing/TestUtils.h</text>
</a>
</g>
</g>
<!-- Node1&#45;&gt;Node9 -->
<g id="edge9_Node000001_Node000009" class="edge">
<title>Node1&#45;&gt;Node9</title>
<g id="a_edge9_Node000001_Node000009"><a xlink:title=" ">
<path fill="none" stroke="#63b8ff" d="M162.79,-111.59C168.72,-104.32 177.11,-94.02 184.34,-85.15"/>
<polygon fill="#63b8ff" stroke="#63b8ff" points="186.99,-87.43 190.59,-77.47 181.56,-83.01 186.99,-87.43"/>
</a>
</g>
</g>
<!-- Node2&#45;&gt;Node3 -->
<g id="edge2_Node000002_Node000003" class="edge">
<title>Node2&#45;&gt;Node3</title>
<g id="a_edge2_Node000002_Node000003"><a xlink:title=" ">
<path fill="none" stroke="#63b8ff" d="M309.32,-55.53C265,-44.99 194.26,-28.16 153.61,-18.49"/>
<polygon fill="#63b8ff" stroke="#63b8ff" points="154.52,-15.11 143.99,-16.2 152.9,-21.92 154.52,-15.11"/>
</a>
</g>
</g>
<!-- Node4 -->
<g id="Node000004" class="node">
<title>Node4</title>
<g id="a_Node000004"><a xlink:title=" ">
<polygon fill="#e0e0e0" stroke="#999999" points="301.62,-20 258.62,-20 258.62,0 301.62,0 301.62,-20"/>
<text xml:space="preserve" text-anchor="middle" x="280.12" y="-6.5" font-family="Helvetica,sans-Serif" font-size="10.00">vector</text>
</a>
</g>
</g>
<!-- Node2&#45;&gt;Node4 -->
<g id="edge3_Node000002_Node000004" class="edge">
<title>Node2&#45;&gt;Node4</title>
<g id="a_edge3_Node000002_Node000004"><a xlink:title=" ">
<path fill="none" stroke="#63b8ff" d="M337.11,-55.59C327.11,-47.77 312.66,-36.46 300.82,-27.19"/>
<polygon fill="#63b8ff" stroke="#63b8ff" points="303.23,-24.64 293.2,-21.23 298.92,-30.15 303.23,-24.64"/>
</a>
</g>
</g>
<!-- Node5 -->
<g id="Node000005" class="node">
<title>Node5</title>
<g id="a_Node000005"><a xlink:title=" ">
<polygon fill="#e0e0e0" stroke="#999999" points="378.12,-20 320.12,-20 320.12,0 378.12,0 378.12,-20"/>
<text xml:space="preserve" text-anchor="middle" x="349.12" y="-6.5" font-family="Helvetica,sans-Serif" font-size="10.00">functional</text>
</a>
</g>
</g>
<!-- Node2&#45;&gt;Node5 -->
<g id="edge4_Node000002_Node000005" class="edge">
<title>Node2&#45;&gt;Node5</title>
<g id="a_edge4_Node000002_Node000005"><a xlink:title=" ">
<path fill="none" stroke="#63b8ff" d="M349.12,-55.59C349.12,-49.01 349.12,-39.96 349.12,-31.73"/>
<polygon fill="#63b8ff" stroke="#63b8ff" points="352.63,-31.81 349.13,-21.81 345.63,-31.81 352.63,-31.81"/>
</a>
</g>
</g>
<!-- Node6 -->
<g id="Node000006" class="node">
<title>Node6</title>
<g id="a_Node000006"><a xlink:title=" ">
<polygon fill="#e0e0e0" stroke="#999999" points="447.75,-20 396.5,-20 396.5,0 447.75,0 447.75,-20"/>
<text xml:space="preserve" text-anchor="middle" x="422.12" y="-6.5" font-family="Helvetica,sans-Serif" font-size="10.00">memory</text>
</a>
</g>
</g>
<!-- Node2&#45;&gt;Node6 -->
<g id="edge5_Node000002_Node000006" class="edge">
<title>Node2&#45;&gt;Node6</title>
<g id="a_edge5_Node000002_Node000006"><a xlink:title=" ">
<path fill="none" stroke="#63b8ff" d="M361.84,-55.59C372.52,-47.7 388,-36.24 400.61,-26.92"/>
<polygon fill="#63b8ff" stroke="#63b8ff" points="402.38,-29.96 408.34,-21.2 398.22,-24.33 402.38,-29.96"/>
</a>
</g>
</g>
<!-- Node7&#45;&gt;Node3 -->
<g id="edge7_Node000007_Node000003" class="edge">
<title>Node7&#45;&gt;Node3</title>
<g id="a_edge7_Node000007_Node000003"><a xlink:title=" ">
<path fill="none" stroke="#63b8ff" d="M56.06,-55.59C67.8,-47.67 84.86,-36.16 98.69,-26.82"/>
<polygon fill="#63b8ff" stroke="#63b8ff" points="100.5,-29.82 106.83,-21.33 96.58,-24.02 100.5,-29.82"/>
</a>
</g>
</g>
<!-- Node8 -->
<g id="Node000008" class="node">
<title>Node8</title>
<g id="a_Node000008"><a xlink:title=" ">
<polygon fill="#e0e0e0" stroke="#999999" points="74.88,-20 9.38,-20 9.38,0 74.88,0 74.88,-20"/>
<text xml:space="preserve" text-anchor="middle" x="42.12" y="-6.5" font-family="Helvetica,sans-Serif" font-size="10.00">string_view</text>
</a>
</g>
</g>
<!-- Node7&#45;&gt;Node8 -->
<g id="edge8_Node000007_Node000008" class="edge">
<title>Node7&#45;&gt;Node8</title>
<g id="a_edge8_Node000007_Node000008"><a xlink:title=" ">
<path fill="none" stroke="#63b8ff" d="M42.12,-55.59C42.12,-49.01 42.12,-39.96 42.12,-31.73"/>
<polygon fill="#63b8ff" stroke="#63b8ff" points="45.63,-31.81 42.13,-21.81 38.63,-31.81 45.63,-31.81"/>
</a>
</g>
</g>
<!-- Node9&#45;&gt;Node3 -->
<g id="edge10_Node000009_Node000003" class="edge">
<title>Node9&#45;&gt;Node3</title>
<g id="a_edge10_Node000009_Node000003"><a xlink:title=" ">
<path fill="none" stroke="#63b8ff" d="M185.71,-55.59C174.52,-47.74 158.31,-36.38 145.07,-27.09"/>
<polygon fill="#63b8ff" stroke="#63b8ff" points="147.08,-24.22 136.88,-21.35 143.06,-29.96 147.08,-24.22"/>
</a>
</g>
</g>
<!-- Node10 -->
<g id="Node000010" class="node">
<title>Node10</title>
<g id="a_Node000010"><a xlink:title=" ">
<polygon fill="#e0e0e0" stroke="#999999" points="229.62,-20 168.62,-20 168.62,0 229.62,0 229.62,-20"/>
<text xml:space="preserve" text-anchor="middle" x="199.12" y="-6.5" font-family="Helvetica,sans-Serif" font-size="10.00">filesystem</text>
</a>
</g>
</g>
<!-- Node9&#45;&gt;Node10 -->
<g id="edge11_Node000009_Node000010" class="edge">
<title>Node9&#45;&gt;Node10</title>
<g id="a_edge11_Node000009_Node000010"><a xlink:title=" ">
<path fill="none" stroke="#63b8ff" d="M199.12,-55.59C199.12,-49.01 199.12,-39.96 199.12,-31.73"/>
<polygon fill="#63b8ff" stroke="#63b8ff" points="202.63,-31.81 199.13,-21.81 195.63,-31.81 202.63,-31.81"/>
</a>
</g>
</g>
</g>
</svg>
