<?xml version="1.0" encoding="UTF-8" standalone="no"?>
<!DOCTYPE svg PUBLIC "-//W3C//DTD SVG 1.1//EN"
 "http://www.w3.org/Graphics/SVG/1.1/DTD/svg11.dtd">
<!-- Generated by graphviz version 14.0.2 (20251019.1705)
 -->
<!-- Title: TEST Pages: 1 -->
<svg width="651pt" height="28pt"
 viewBox="0.00 0.00 651.00 28.00" xmlns="http://www.w3.org/2000/svg" xmlns:xlink="http://www.w3.org/1999/xlink">
<g id="graph0" class="graph" transform="scale(1 1) rotate(0) translate(4 24)">
<title>TEST</title>
<!-- Node1 -->
<g id="Node000001" class="node">
<title>Node1</title>
<g id="a_Node000001"><a xlink:title=" ">
<polygon fill="#999999" stroke="#666666" points="41.5,-20 0,-20 0,0 41.5,0 41.5,-20"/>
<text xml:space="preserve" text-anchor="middle" x="20.75" y="-6.5" font-family="Helvetica,sans-Serif" font-size="10.00">TEST</text>
</a>
</g>
</g>
<!-- Node2 -->
<g id="Node000002" class="node">
<title>Node2</title>
<g id="a_Node000002"><a xlink:href="namespaceLGE_1_1LxPath.html#a1086a0acffe2b8597d4240d926c32b39" target="_top" xlink:title=" ">
<polygon fill="white" stroke="#666666" points="194.75,-20 77.5,-20 77.5,0 194.75,0 194.75,-20"/>
<text xml:space="preserve" text-anchor="middle" x="136.12" y="-6.5" font-family="Helvetica,sans-Serif" font-size="10.00">LGE::LxPath::GetStem</text>
</a>
</g>
</g>
<!-- Node1&#45;&gt;Node2 -->
<g id="edge1_Node000001_Node000002" class="edge">
<title>Node1&#45;&gt;Node2</title>
<g id="a_edge1_Node000001_Node000002"><a xlink:title=" ">
<path fill="none" stroke="#63b8ff" d="M41.76,-10C48.82,-10 57.21,-10 66.03,-10"/>
<polygon fill="#63b8ff" stroke="#63b8ff" points="65.84,-13.5 75.84,-10 65.84,-6.5 65.84,-13.5"/>
</a>
</g>
</g>
<!-- Node3 -->
<g id="Node000003" class="node">
<title>Node3</title>
<g id="a_Node000003"><a xlink:href="namespaceLGE_1_1LxPath.html#a282200340a7ec214f14f5d64e9e41396" target="_top" xlink:title=" ">
<polygon fill="white" stroke="#666666" points="364.5,-20 230.75,-20 230.75,0 364.5,0 364.5,-20"/>
<text xml:space="preserve" text-anchor="middle" x="297.62" y="-6.5" font-family="Helvetica,sans-Serif" font-size="10.00">LGE::LxPath::GetFilename</text>
</a>
</g>
</g>
<!-- Node2&#45;&gt;Node3 -->
<g id="edge2_Node000002_Node000003" class="edge">
<title>Node2&#45;&gt;Node3</title>
<g id="a_edge2_Node000002_Node000003"><a xlink:title=" ">
<path fill="none" stroke="#63b8ff" d="M195.16,-10C202.91,-10 210.95,-10 218.97,-10"/>
<polygon fill="#63b8ff" stroke="#63b8ff" points="218.74,-13.5 228.74,-10 218.74,-6.5 218.74,-13.5"/>
</a>
</g>
</g>
<!-- Node4 -->
<g id="Node000004" class="node">
<title>Node4</title>
<g id="a_Node000004"><a xlink:href="namespaceLGE_1_1LxPath.html#a314a60ce690c90f4ee0b4e64c0199408" target="_top" xlink:title=" ">
<polygon fill="white" stroke="#666666" points="523,-20 400.5,-20 400.5,0 523,0 523,-20"/>
<text xml:space="preserve" text-anchor="middle" x="461.75" y="-6.5" font-family="Helvetica,sans-Serif" font-size="10.00">LGE::LxPath::Normalize</text>
</a>
</g>
</g>
<!-- Node3&#45;&gt;Node4 -->
<g id="edge3_Node000003_Node000004" class="edge">
<title>Node3&#45;&gt;Node4</title>
<g id="a_edge3_Node000003_Node000004"><a xlink:title=" ">
<path fill="none" stroke="#63b8ff" d="M364.57,-10C372.55,-10 380.74,-10 388.8,-10"/>
<polygon fill="#63b8ff" stroke="#63b8ff" points="388.58,-13.5 398.58,-10 388.58,-6.5 388.58,-13.5"/>
</a>
</g>
</g>
<!-- Node5 -->
<g id="Node000005" class="node">
<title>Node5</title>
<g id="a_Node000005"><a xlink:href="classLGE_1_1Log.html#a53f3f4b8797ffd18145739c9e66d690a" target="_top" xlink:title=" ">
<polygon fill="white" stroke="#666666" points="643.25,-20 559,-20 559,0 643.25,0 643.25,-20"/>
<text xml:space="preserve" text-anchor="middle" x="601.12" y="-6.5" font-family="Helvetica,sans-Serif" font-size="10.00">LGE::Log::Error</text>
</a>
</g>
</g>
<!-- Node4&#45;&gt;Node5 -->
<g id="edge4_Node000004_Node000005" class="edge">
<title>Node4&#45;&gt;Node5</title>
<g id="a_edge4_Node000004_Node000005"><a xlink:title=" ">
<path fill="none" stroke="#63b8ff" d="M523.4,-10C531.42,-10 539.59,-10 547.45,-10"/>
<polygon fill="#63b8ff" stroke="#63b8ff" points="547.2,-13.5 557.2,-10 547.2,-6.5 547.2,-13.5"/>
</a>
</g>
</g>
</g>
</svg>
