<?xml version="1.0" encoding="UTF-8" standalone="no"?>
<!DOCTYPE svg PUBLIC "-//W3C//DTD SVG 1.1//EN"
 "http://www.w3.org/Graphics/SVG/1.1/DTD/svg11.dtd">
<!-- Generated by graphviz version 14.0.2 (20251019.1705)
 -->
<!-- Title: TestFramework.cpp Pages: 1 -->
<svg width="459pt" height="140pt"
 viewBox="0.00 0.00 459.00 140.00" xmlns="http://www.w3.org/2000/svg" xmlns:xlink="http://www.w3.org/1999/xlink">
<g id="graph0" class="graph" transform="scale(1 1) rotate(0) translate(4 136)">
<title>TestFramework.cpp</title>
<!-- Node1 -->
<g id="Node000001" class="node">
<title>Node1</title>
<g id="a_Node000001"><a xlink:title=" ">
<polygon fill="#999999" stroke="#666666" points="348.62,-132 246.38,-132 246.38,-112 348.62,-112 348.62,-132"/>
<text xml:space="preserve" text-anchor="middle" x="297.5" y="-118.5" font-family="Helvetica,sans-Serif" font-size="10.00">TestFramework.cpp</text>
</a>
</g>
</g>
<!-- Node2 -->
<g id="Node000002" class="node">
<title>Node2</title>
<g id="a_Node000002"><a xlink:href="TestFramework_8h.html" target="_top" xlink:title=" ">
<polygon fill="white" stroke="#666666" points="167.75,-76 21.25,-76 21.25,-56 167.75,-56 167.75,-76"/>
<text xml:space="preserve" text-anchor="middle" x="94.5" y="-62.5" font-family="Helvetica,sans-Serif" font-size="10.00">LGE/testing/TestFramework.h</text>
</a>
</g>
</g>
<!-- Node1&#45;&gt;Node2 -->
<g id="edge1_Node000001_Node000002" class="edge">
<title>Node1&#45;&gt;Node2</title>
<g id="a_edge1_Node000001_Node000002"><a xlink:title=" ">
<path fill="none" stroke="#63b8ff" d="M262.14,-111.59C228.58,-102.67 177.93,-89.19 141.09,-79.39"/>
<polygon fill="#63b8ff" stroke="#63b8ff" points="142.16,-76.06 131.6,-76.87 140.36,-82.82 142.16,-76.06"/>
</a>
</g>
</g>
<!-- Node7 -->
<g id="Node000007" class="node">
<title>Node7</title>
<g id="a_Node000007"><a xlink:href="Log_8h.html" target="_top" xlink:title=" ">
<polygon fill="white" stroke="#666666" points="269.62,-76 185.38,-76 185.38,-56 269.62,-56 269.62,-76"/>
<text xml:space="preserve" text-anchor="middle" x="227.5" y="-62.5" font-family="Helvetica,sans-Serif" font-size="10.00">LGE/core/Log.h</text>
</a>
</g>
</g>
<!-- Node1&#45;&gt;Node7 -->
<g id="edge6_Node000001_Node000007" class="edge">
<title>Node1&#45;&gt;Node7</title>
<g id="a_edge6_Node000001_Node000007"><a xlink:title=" ">
<path fill="none" stroke="#63b8ff" d="M285.31,-111.59C275.17,-103.77 260.51,-92.46 248.49,-83.19"/>
<polygon fill="#63b8ff" stroke="#63b8ff" points="250.81,-80.56 240.75,-77.22 246.53,-86.1 250.81,-80.56"/>
</a>
</g>
</g>
<!-- Node8 -->
<g id="Node000008" class="node">
<title>Node8</title>
<g id="a_Node000008"><a xlink:title=" ">
<polygon fill="#e0e0e0" stroke="#999999" points="322.25,-20 268.75,-20 268.75,0 322.25,0 322.25,-20"/>
<text xml:space="preserve" text-anchor="middle" x="295.5" y="-6.5" font-family="Helvetica,sans-Serif" font-size="10.00">iostream</text>
</a>
</g>
</g>
<!-- Node1&#45;&gt;Node8 -->
<g id="edge9_Node000001_Node000008" class="edge">
<title>Node1&#45;&gt;Node8</title>
<g id="a_edge9_Node000001_Node000008"><a xlink:title=" ">
<path fill="none" stroke="#63b8ff" d="M297.33,-111.62C297.01,-94.01 296.31,-55.59 295.88,-31.65"/>
<polygon fill="#63b8ff" stroke="#63b8ff" points="299.38,-31.8 295.7,-21.87 292.38,-31.93 299.38,-31.8"/>
</a>
</g>
</g>
<!-- Node9 -->
<g id="Node000009" class="node">
<title>Node9</title>
<g id="a_Node000009"><a xlink:title=" ">
<polygon fill="#e0e0e0" stroke="#999999" points="381.38,-76 325.62,-76 325.62,-56 381.38,-56 381.38,-76"/>
<text xml:space="preserve" text-anchor="middle" x="353.5" y="-62.5" font-family="Helvetica,sans-Serif" font-size="10.00">algorithm</text>
</a>
</g>
</g>
<!-- Node1&#45;&gt;Node9 -->
<g id="edge10_Node000001_Node000009" class="edge">
<title>Node1&#45;&gt;Node9</title>
<g id="a_edge10_Node000001_Node000009"><a xlink:title=" ">
<path fill="none" stroke="#63b8ff" d="M307.25,-111.59C315.12,-104.01 326.4,-93.13 335.85,-84.02"/>
<polygon fill="#63b8ff" stroke="#63b8ff" points="338,-86.81 342.77,-77.35 333.14,-81.77 338,-86.81"/>
</a>
</g>
</g>
<!-- Node10 -->
<g id="Node000010" class="node">
<title>Node10</title>
<g id="a_Node000010"><a xlink:title=" ">
<polygon fill="#e0e0e0" stroke="#999999" points="451.12,-76 399.88,-76 399.88,-56 451.12,-56 451.12,-76"/>
<text xml:space="preserve" text-anchor="middle" x="425.5" y="-62.5" font-family="Helvetica,sans-Serif" font-size="10.00">sstream</text>
</a>
</g>
</g>
<!-- Node1&#45;&gt;Node10 -->
<g id="edge11_Node000001_Node000010" class="edge">
<title>Node1&#45;&gt;Node10</title>
<g id="a_edge11_Node000001_Node000010"><a xlink:title=" ">
<path fill="none" stroke="#63b8ff" d="M319.8,-111.59C339.86,-103.13 369.62,-90.58 392.45,-80.94"/>
<polygon fill="#63b8ff" stroke="#63b8ff" points="393.78,-84.18 401.64,-77.07 391.06,-77.73 393.78,-84.18"/>
</a>
</g>
</g>
<!-- Node3 -->
<g id="Node000003" class="node">
<title>Node3</title>
<g id="a_Node000003"><a xlink:title=" ">
<polygon fill="#e0e0e0" stroke="#999999" points="247.5,-20 207.5,-20 207.5,0 247.5,0 247.5,-20"/>
<text xml:space="preserve" text-anchor="middle" x="227.5" y="-6.5" font-family="Helvetica,sans-Serif" font-size="10.00">string</text>
</a>
</g>
</g>
<!-- Node2&#45;&gt;Node3 -->
<g id="edge2_Node000002_Node000003" class="edge">
<title>Node2&#45;&gt;Node3</title>
<g id="a_edge2_Node000002_Node000003"><a xlink:title=" ">
<path fill="none" stroke="#63b8ff" d="M117.67,-55.59C139.61,-46.68 172.7,-33.25 196.83,-23.45"/>
<polygon fill="#63b8ff" stroke="#63b8ff" points="197.86,-26.81 205.81,-19.81 195.23,-20.33 197.86,-26.81"/>
</a>
</g>
</g>
<!-- Node4 -->
<g id="Node000004" class="node">
<title>Node4</title>
<g id="a_Node000004"><a xlink:title=" ">
<polygon fill="#e0e0e0" stroke="#999999" points="43,-20 0,-20 0,0 43,0 43,-20"/>
<text xml:space="preserve" text-anchor="middle" x="21.5" y="-6.5" font-family="Helvetica,sans-Serif" font-size="10.00">vector</text>
</a>
</g>
</g>
<!-- Node2&#45;&gt;Node4 -->
<g id="edge3_Node000002_Node000004" class="edge">
<title>Node2&#45;&gt;Node4</title>
<g id="a_edge3_Node000002_Node000004"><a xlink:title=" ">
<path fill="none" stroke="#63b8ff" d="M81.78,-55.59C71.11,-47.7 55.62,-36.24 43.02,-26.92"/>
<polygon fill="#63b8ff" stroke="#63b8ff" points="45.41,-24.33 35.29,-21.2 41.24,-29.96 45.41,-24.33"/>
</a>
</g>
</g>
<!-- Node5 -->
<g id="Node000005" class="node">
<title>Node5</title>
<g id="a_Node000005"><a xlink:title=" ">
<polygon fill="#e0e0e0" stroke="#999999" points="119.5,-20 61.5,-20 61.5,0 119.5,0 119.5,-20"/>
<text xml:space="preserve" text-anchor="middle" x="90.5" y="-6.5" font-family="Helvetica,sans-Serif" font-size="10.00">functional</text>
</a>
</g>
</g>
<!-- Node2&#45;&gt;Node5 -->
<g id="edge4_Node000002_Node000005" class="edge">
<title>Node2&#45;&gt;Node5</title>
<g id="a_edge4_Node000002_Node000005"><a xlink:title=" ">
<path fill="none" stroke="#63b8ff" d="M93.8,-55.59C93.32,-49.01 92.65,-39.96 92.04,-31.73"/>
<polygon fill="#63b8ff" stroke="#63b8ff" points="95.53,-31.52 91.3,-21.81 88.55,-32.04 95.53,-31.52"/>
</a>
</g>
</g>
<!-- Node6 -->
<g id="Node000006" class="node">
<title>Node6</title>
<g id="a_Node000006"><a xlink:title=" ">
<polygon fill="#e0e0e0" stroke="#999999" points="189.12,-20 137.88,-20 137.88,0 189.12,0 189.12,-20"/>
<text xml:space="preserve" text-anchor="middle" x="163.5" y="-6.5" font-family="Helvetica,sans-Serif" font-size="10.00">memory</text>
</a>
</g>
</g>
<!-- Node2&#45;&gt;Node6 -->
<g id="edge5_Node000002_Node000006" class="edge">
<title>Node2&#45;&gt;Node6</title>
<g id="a_edge5_Node000002_Node000006"><a xlink:title=" ">
<path fill="none" stroke="#63b8ff" d="M106.52,-55.59C116.51,-47.77 130.96,-36.46 142.81,-27.19"/>
<polygon fill="#63b8ff" stroke="#63b8ff" points="144.71,-30.15 150.43,-21.23 140.39,-24.64 144.71,-30.15"/>
</a>
</g>
</g>
<!-- Node7&#45;&gt;Node3 -->
<g id="edge8_Node000007_Node000003" class="edge">
<title>Node7&#45;&gt;Node3</title>
<g id="a_edge8_Node000007_Node000003"><a xlink:title=" ">
<path fill="none" stroke="#63b8ff" d="M227.5,-55.59C227.5,-49.01 227.5,-39.96 227.5,-31.73"/>
<polygon fill="#63b8ff" stroke="#63b8ff" points="231,-31.81 227.5,-21.81 224,-31.81 231,-31.81"/>
</a>
</g>
</g>
<!-- Node7&#45;&gt;Node8 -->
<g id="edge7_Node000007_Node000008" class="edge">
<title>Node7&#45;&gt;Node8</title>
<g id="a_edge7_Node000007_Node000008"><a xlink:title=" ">
<path fill="none" stroke="#63b8ff" d="M239.34,-55.59C249.19,-47.77 263.43,-36.46 275.11,-27.19"/>
<polygon fill="#63b8ff" stroke="#63b8ff" points="276.95,-30.2 282.61,-21.24 272.6,-24.72 276.95,-30.2"/>
</a>
</g>
</g>
</g>
</svg>
