<?xml version="1.0" encoding="UTF-8" standalone="no"?>
<!DOCTYPE svg PUBLIC "-//W3C//DTD SVG 1.1//EN"
 "http://www.w3.org/Graphics/SVG/1.1/DTD/svg11.dtd">
<!-- Generated by graphviz version 14.0.2 (20251019.1705)
 -->
<!-- Title: TEST Pages: 1 -->
<svg width="1081pt" height="795pt"
 viewBox="0.00 0.00 1081.00 795.00" xmlns="http://www.w3.org/2000/svg" xmlns:xlink="http://www.w3.org/1999/xlink">
<g id="graph0" class="graph" transform="scale(1 1) rotate(0) translate(4 791.5)">
<title>TEST</title>
<!-- Node1 -->
<g id="Node000001" class="node">
<title>Node1</title>
<g id="a_Node000001"><a xlink:title=" ">
<polygon fill="#999999" stroke="#666666" points="41.5,-556.59 0,-556.59 0,-536.59 41.5,-536.59 41.5,-556.59"/>
<text xml:space="preserve" text-anchor="middle" x="20.75" y="-543.09" font-family="Helvetica,sans-Serif" font-size="10.00">TEST</text>
</a>
</g>
</g>
<!-- Node2 -->
<g id="Node000002" class="node">
<title>Node2</title>
<g id="a_Node000002"><a xlink:href="namespaceLGE_1_1Search.html#ae0069f2eac2970bc78f0f8725f450eb0" target="_top" xlink:title=" ">
<polygon fill="white" stroke="#666666" points="194.38,-732.59 83.12,-732.59 83.12,-712.59 194.38,-712.59 194.38,-732.59"/>
<text xml:space="preserve" text-anchor="middle" x="138.75" y="-719.09" font-family="Helvetica,sans-Serif" font-size="10.00">LGE::Search::ByType</text>
</a>
</g>
</g>
<!-- Node1&#45;&gt;Node2 -->
<g id="edge1_Node000001_Node000002" class="edge">
<title>Node1&#45;&gt;Node2</title>
<g id="a_edge1_Node000001_Node000002"><a xlink:title=" ">
<path fill="none" stroke="#63b8ff" d="M22.36,-557.07C24.56,-585.02 34.41,-662.02 77.5,-703.59 78.39,-704.45 79.31,-705.26 80.27,-706.05"/>
<polygon fill="#63b8ff" stroke="#63b8ff" points="78.1,-708.81 88.4,-711.31 81.91,-702.93 78.1,-708.81"/>
</a>
</g>
</g>
<!-- Node8 -->
<g id="Node000008" class="node">
<title>Node8</title>
<g id="a_Node000008"><a xlink:href="classLGE_1_1Testing_1_1TestUtils.html#a1f77aba432e3b29480c1688b716d86cf" target="_top" xlink:title=" ">
<polygon fill="white" stroke="#666666" points="197.75,-694.59 79.75,-694.59 79.75,-662.59 197.75,-662.59 197.75,-694.59"/>
<text xml:space="preserve" text-anchor="start" x="87.75" y="-681.09" font-family="Helvetica,sans-Serif" font-size="10.00">LGE::Testing::TestUtils</text>
<text xml:space="preserve" text-anchor="middle" x="138.75" y="-669.09" font-family="Helvetica,sans-Serif" font-size="10.00">::CleanupTestProject</text>
</a>
</g>
</g>
<!-- Node1&#45;&gt;Node8 -->
<g id="edge8_Node000001_Node000008" class="edge">
<title>Node1&#45;&gt;Node8</title>
<g id="a_edge8_Node000001_Node000008"><a xlink:title=" ">
<path fill="none" stroke="#63b8ff" d="M25.01,-556.86C31.82,-576.86 49.29,-621.44 77.5,-648.59 80.32,-651.31 83.44,-653.82 86.72,-656.15"/>
<polygon fill="#63b8ff" stroke="#63b8ff" points="84.71,-659.02 95.04,-661.4 88.45,-653.1 84.71,-659.02"/>
</a>
</g>
</g>
<!-- Node9 -->
<g id="Node000009" class="node">
<title>Node9</title>
<g id="a_Node000009"><a xlink:href="namespaceLGE_1_1AssetRegistry.html#a0e507381944dcdfc25afc215e2fdc0fd" target="_top" xlink:title=" ">
<polygon fill="white" stroke="#666666" points="190.62,-606.59 86.88,-606.59 86.88,-574.59 190.62,-574.59 190.62,-606.59"/>
<text xml:space="preserve" text-anchor="start" x="94.88" y="-593.09" font-family="Helvetica,sans-Serif" font-size="10.00">LGE::AssetRegistry</text>
<text xml:space="preserve" text-anchor="middle" x="138.75" y="-581.09" font-family="Helvetica,sans-Serif" font-size="10.00">::Clear</text>
</a>
</g>
</g>
<!-- Node1&#45;&gt;Node9 -->
<g id="edge9_Node000001_Node000009" class="edge">
<title>Node1&#45;&gt;Node9</title>
<g id="a_edge9_Node000001_Node000009"><a xlink:title=" ">
<path fill="none" stroke="#63b8ff" d="M41.96,-554.25C53.77,-558.73 69.29,-564.62 84.39,-570.35"/>
<polygon fill="#63b8ff" stroke="#63b8ff" points="82.71,-573.46 93.31,-573.73 85.2,-566.91 82.71,-573.46"/>
</a>
</g>
</g>
<!-- Node11 -->
<g id="Node000011" class="node">
<title>Node11</title>
<g id="a_Node000011"><a xlink:href="namespaceLGE_1_1VFS.html#abb779fd365154cfbcb79fc4486a5b912" target="_top" xlink:title=" ">
<polygon fill="white" stroke="#666666" points="200,-556.59 77.5,-556.59 77.5,-536.59 200,-536.59 200,-556.59"/>
<text xml:space="preserve" text-anchor="middle" x="138.75" y="-543.09" font-family="Helvetica,sans-Serif" font-size="10.00">LGE::VFS::ClearMounts</text>
</a>
</g>
</g>
<!-- Node1&#45;&gt;Node11 -->
<g id="edge11_Node000001_Node000011" class="edge">
<title>Node1&#45;&gt;Node11</title>
<g id="a_edge11_Node000001_Node000011"><a xlink:title=" ">
<path fill="none" stroke="#63b8ff" d="M41.96,-546.59C48.98,-546.59 57.32,-546.59 66.11,-546.59"/>
<polygon fill="#63b8ff" stroke="#63b8ff" points="65.89,-550.09 75.89,-546.59 65.89,-543.09 65.89,-550.09"/>
</a>
</g>
</g>
<!-- Node12 -->
<g id="Node000012" class="node">
<title>Node12</title>
<g id="a_Node000012"><a xlink:href="classLGE_1_1Testing_1_1TestUtils.html#a46de1f3cb8d715bf5329ad34a764f8b9" target="_top" xlink:title=" ">
<polygon fill="white" stroke="#666666" points="197.75,-417.59 79.75,-417.59 79.75,-385.59 197.75,-385.59 197.75,-417.59"/>
<text xml:space="preserve" text-anchor="start" x="87.75" y="-404.09" font-family="Helvetica,sans-Serif" font-size="10.00">LGE::Testing::TestUtils</text>
<text xml:space="preserve" text-anchor="middle" x="138.75" y="-392.09" font-family="Helvetica,sans-Serif" font-size="10.00">::CreateTestFile</text>
</a>
</g>
</g>
<!-- Node1&#45;&gt;Node12 -->
<g id="edge13_Node000001_Node000012" class="edge">
<title>Node1&#45;&gt;Node12</title>
<g id="a_edge13_Node000001_Node000012"><a xlink:title=" ">
<path fill="none" stroke="#63b8ff" d="M24.28,-536.36C30.15,-514.53 46.6,-462.82 77.5,-431.59 80.21,-428.85 83.23,-426.32 86.42,-423.98"/>
<polygon fill="#63b8ff" stroke="#63b8ff" points="88.02,-427.12 94.52,-418.75 84.22,-421.24 88.02,-427.12"/>
</a>
</g>
</g>
<!-- Node13 -->
<g id="Node000013" class="node">
<title>Node13</title>
<g id="a_Node000013"><a xlink:href="classLGE_1_1Testing_1_1TestUtils.html#ace2f7af3775195fcf072f0c09c966af3" target="_top" xlink:title=" ">
<polygon fill="white" stroke="#666666" points="197.75,-284.59 79.75,-284.59 79.75,-252.59 197.75,-252.59 197.75,-284.59"/>
<text xml:space="preserve" text-anchor="start" x="87.75" y="-271.09" font-family="Helvetica,sans-Serif" font-size="10.00">LGE::Testing::TestUtils</text>
<text xml:space="preserve" text-anchor="middle" x="138.75" y="-259.09" font-family="Helvetica,sans-Serif" font-size="10.00">::CreateTestProject</text>
</a>
</g>
</g>
<!-- Node1&#45;&gt;Node13 -->
<g id="edge14_Node000001_Node000013" class="edge">
<title>Node1&#45;&gt;Node13</title>
<g id="a_edge14_Node000001_Node000013"><a xlink:title=" ">
<path fill="none" stroke="#63b8ff" d="M24.36,-536.37C31.37,-509.56 51.83,-435.2 77.5,-376.59 90.23,-347.52 108.35,-316.01 121.39,-294.58"/>
<polygon fill="#63b8ff" stroke="#63b8ff" points="124.28,-296.56 126.54,-286.21 118.32,-292.89 124.28,-296.56"/>
</a>
</g>
</g>
<!-- Node15 -->
<g id="Node000015" class="node">
<title>Node15</title>
<g id="a_Node000015"><a xlink:href="namespaceLGE_1_1AssetRegistry.html#af9345d56722e55e0a02cc2b1c421da76" target="_top" xlink:title=" ">
<polygon fill="white" stroke="#666666" points="190.62,-505.59 86.88,-505.59 86.88,-473.59 190.62,-473.59 190.62,-505.59"/>
<text xml:space="preserve" text-anchor="start" x="94.88" y="-492.09" font-family="Helvetica,sans-Serif" font-size="10.00">LGE::AssetRegistry</text>
<text xml:space="preserve" text-anchor="middle" x="138.75" y="-480.09" font-family="Helvetica,sans-Serif" font-size="10.00">::FullScan</text>
</a>
</g>
</g>
<!-- Node1&#45;&gt;Node15 -->
<g id="edge16_Node000001_Node000015" class="edge">
<title>Node1&#45;&gt;Node15</title>
<g id="a_edge16_Node000001_Node000015"><a xlink:title=" ">
<path fill="none" stroke="#63b8ff" d="M41.96,-536.66C56.39,-529.57 76.35,-519.76 94.32,-510.93"/>
<polygon fill="#63b8ff" stroke="#63b8ff" points="95.83,-514.09 103.26,-506.54 92.74,-507.81 95.83,-514.09"/>
</a>
</g>
</g>
<!-- Node26 -->
<g id="Node000026" class="node">
<title>Node26</title>
<g id="a_Node000026"><a xlink:href="namespaceLGE_1_1VFS.html#a5cea8543475162be752c71971f1f4e85" target="_top" xlink:title=" ">
<polygon fill="white" stroke="#666666" points="566.88,-685.59 432.38,-685.59 432.38,-653.59 566.88,-653.59 566.88,-685.59"/>
<text xml:space="preserve" text-anchor="start" x="440.38" y="-672.09" font-family="Helvetica,sans-Serif" font-size="10.00">LGE::VFS::InitializeDefault</text>
<text xml:space="preserve" text-anchor="middle" x="499.62" y="-660.09" font-family="Helvetica,sans-Serif" font-size="10.00">Mounts</text>
</a>
</g>
</g>
<!-- Node1&#45;&gt;Node26 -->
<g id="edge29_Node000001_Node000026" class="edge">
<title>Node1&#45;&gt;Node26</title>
<g id="a_edge29_Node000001_Node000026"><a xlink:title=" ">
<path fill="none" stroke="#63b8ff" d="M26.76,-556.87C34.98,-572.49 52.89,-601.85 77.5,-615.59 134.7,-647.54 315.54,-661.16 420.71,-666.49"/>
<polygon fill="#63b8ff" stroke="#63b8ff" points="420.23,-669.97 430.39,-666.97 420.57,-662.98 420.23,-669.97"/>
</a>
</g>
</g>
<!-- Node30 -->
<g id="Node000030" class="node">
<title>Node30</title>
<g id="a_Node000030"><a xlink:href="namespaceLGE_1_1LxFS.html#a40efc6a314cff464d1050243706eb8d8" target="_top" xlink:title=" ">
<polygon fill="white" stroke="#666666" points="383.25,-230.59 245.75,-230.59 245.75,-210.59 383.25,-210.59 383.25,-230.59"/>
<text xml:space="preserve" text-anchor="middle" x="314.5" y="-217.09" font-family="Helvetica,sans-Serif" font-size="10.00">LGE::LxFS::InitializeProject</text>
</a>
</g>
</g>
<!-- Node1&#45;&gt;Node30 -->
<g id="edge38_Node000001_Node000030" class="edge">
<title>Node1&#45;&gt;Node30</title>
<g id="a_edge38_Node000001_Node000030"><a xlink:title=" ">
<path fill="none" stroke="#63b8ff" d="M26.08,-536.1C33.81,-518.67 51.63,-483.74 77.5,-464.59 123.32,-430.67 157.89,-465.01 200,-426.59 230.91,-398.38 216.5,-376.61 236,-339.59 255.32,-302.92 282.69,-263.09 299.2,-240.07"/>
<polygon fill="#63b8ff" stroke="#63b8ff" points="301.84,-242.39 304.87,-232.24 296.17,-238.28 301.84,-242.39"/>
</a>
</g>
</g>
<!-- Node3 -->
<g id="Node000003" class="node">
<title>Node3</title>
<g id="a_Node000003"><a xlink:href="classLGE_1_1SearchQuery.html#a36037a1b2c62d4ffbeb673e1ec702cb7" target="_top" xlink:title=" ">
<polygon fill="white" stroke="#666666" points="384.75,-774.59 244.25,-774.59 244.25,-754.59 384.75,-754.59 384.75,-774.59"/>
<text xml:space="preserve" text-anchor="middle" x="314.5" y="-761.09" font-family="Helvetica,sans-Serif" font-size="10.00">LGE::SearchQuery::Execute</text>
</a>
</g>
</g>
<!-- Node2&#45;&gt;Node3 -->
<g id="edge2_Node000002_Node000003" class="edge">
<title>Node2&#45;&gt;Node3</title>
<g id="a_edge2_Node000002_Node000003"><a xlink:title=" ">
<path fill="none" stroke="#63b8ff" d="M183.15,-733.08C206.25,-738.66 234.87,-745.58 259.41,-751.51"/>
<polygon fill="#63b8ff" stroke="#63b8ff" points="258.34,-754.86 268.88,-753.8 259.99,-748.05 258.34,-754.86"/>
</a>
</g>
</g>
<!-- Node5 -->
<g id="Node000005" class="node">
<title>Node5</title>
<g id="a_Node000005"><a xlink:href="classLGE_1_1SearchQuery.html#adbbef77188703d0df9f20960568f2d17" target="_top" xlink:title=" ">
<polygon fill="white" stroke="#666666" points="393,-694.59 236,-694.59 236,-674.59 393,-674.59 393,-694.59"/>
<text xml:space="preserve" text-anchor="middle" x="314.5" y="-681.09" font-family="Helvetica,sans-Serif" font-size="10.00">LGE::SearchQuery::MaxResults</text>
</a>
</g>
</g>
<!-- Node2&#45;&gt;Node5 -->
<g id="edge4_Node000002_Node000005" class="edge">
<title>Node2&#45;&gt;Node5</title>
<g id="a_edge4_Node000002_Node000005"><a xlink:title=" ">
<path fill="none" stroke="#63b8ff" d="M187.69,-712.11C208.39,-707.58 232.81,-702.24 254.6,-697.47"/>
<polygon fill="#63b8ff" stroke="#63b8ff" points="255.22,-700.92 264.24,-695.36 253.72,-694.08 255.22,-700.92"/>
</a>
</g>
</g>
<!-- Node7 -->
<g id="Node000007" class="node">
<title>Node7</title>
<g id="a_Node000007"><a xlink:href="classLGE_1_1SearchQuery.html#ad2724b530a7354ae59dc81defaf096bc" target="_top" xlink:title=" ">
<polygon fill="white" stroke="#666666" points="377.25,-732.59 251.75,-732.59 251.75,-712.59 377.25,-712.59 377.25,-732.59"/>
<text xml:space="preserve" text-anchor="middle" x="314.5" y="-719.09" font-family="Helvetica,sans-Serif" font-size="10.00">LGE::SearchQuery::Type</text>
</a>
</g>
</g>
<!-- Node2&#45;&gt;Node7 -->
<g id="edge6_Node000002_Node000007" class="edge">
<title>Node2&#45;&gt;Node7</title>
<g id="a_edge6_Node000002_Node000007"><a xlink:title=" ">
<path fill="none" stroke="#63b8ff" d="M194.73,-722.59C209.07,-722.59 224.75,-722.59 239.89,-722.59"/>
<polygon fill="#63b8ff" stroke="#63b8ff" points="239.81,-726.09 249.81,-722.59 239.81,-719.09 239.81,-726.09"/>
</a>
</g>
</g>
<!-- Node4 -->
<g id="Node000004" class="node">
<title>Node4</title>
<g id="a_Node000004"><a xlink:href="namespaceLGE_1_1AssetRegistry.html#ac9aa62a1e0c929e88bec00618b489988" target="_top" xlink:title=" ">
<polygon fill="white" stroke="#666666" points="551.5,-785.59 447.75,-785.59 447.75,-753.59 551.5,-753.59 551.5,-785.59"/>
<text xml:space="preserve" text-anchor="start" x="455.75" y="-772.09" font-family="Helvetica,sans-Serif" font-size="10.00">LGE::AssetRegistry</text>
<text xml:space="preserve" text-anchor="middle" x="499.62" y="-760.09" font-family="Helvetica,sans-Serif" font-size="10.00">::GetAllAssets</text>
</a>
</g>
</g>
<!-- Node3&#45;&gt;Node4 -->
<g id="edge3_Node000003_Node000004" class="edge">
<title>Node3&#45;&gt;Node4</title>
<g id="a_edge3_Node000003_Node000004"><a xlink:title=" ">
<path fill="none" stroke="#63b8ff" d="M384.99,-766.49C401.85,-766.95 419.76,-767.44 436.26,-767.89"/>
<polygon fill="#63b8ff" stroke="#63b8ff" points="435.82,-771.38 445.91,-768.15 436.01,-764.38 435.82,-771.38"/>
</a>
</g>
</g>
<!-- Node6 -->
<g id="Node000006" class="node">
<title>Node6</title>
<g id="a_Node000006"><a xlink:href="classLGE_1_1SearchQuery.html#a8a2cf5c9494b59e14b3956728ed4caa7" target="_top" xlink:title=" ">
<polygon fill="white" stroke="#666666" points="567.25,-735.59 432,-735.59 432,-703.59 567.25,-703.59 567.25,-735.59"/>
<text xml:space="preserve" text-anchor="start" x="440" y="-722.09" font-family="Helvetica,sans-Serif" font-size="10.00">LGE::SearchQuery::Search</text>
<text xml:space="preserve" text-anchor="middle" x="499.62" y="-710.09" font-family="Helvetica,sans-Serif" font-size="10.00">Query</text>
</a>
</g>
</g>
<!-- Node5&#45;&gt;Node6 -->
<g id="edge5_Node000005_Node000006" class="edge">
<title>Node5&#45;&gt;Node6</title>
<g id="a_edge5_Node000005_Node000006"><a xlink:title=" ">
<path fill="none" stroke="#63b8ff" d="M369.95,-695C385.86,-698.04 403.57,-701.42 420.64,-704.69"/>
<polygon fill="#63b8ff" stroke="#63b8ff" points="419.78,-708.08 430.26,-706.52 421.09,-701.21 419.78,-708.08"/>
</a>
</g>
</g>
<!-- Node7&#45;&gt;Node6 -->
<g id="edge7_Node000007_Node000006" class="edge">
<title>Node7&#45;&gt;Node6</title>
<g id="a_edge7_Node000007_Node000006"><a xlink:title=" ">
<path fill="none" stroke="#63b8ff" d="M377.5,-721.57C391.25,-721.35 406,-721.11 420.32,-720.87"/>
<polygon fill="#63b8ff" stroke="#63b8ff" points="420.22,-724.37 430.16,-720.71 420.1,-717.38 420.22,-724.37"/>
</a>
</g>
</g>
<!-- Node10 -->
<g id="Node000010" class="node">
<title>Node10</title>
<g id="a_Node000010"><a xlink:href="classLGE_1_1Log.html#ab0265ee050b8873a2fd31fbdb696ced0" target="_top" xlink:title=" ">
<polygon fill="white" stroke="#666666" points="915.75,-382.59 836,-382.59 836,-362.59 915.75,-362.59 915.75,-382.59"/>
<text xml:space="preserve" text-anchor="middle" x="875.88" y="-369.09" font-family="Helvetica,sans-Serif" font-size="10.00">LGE::Log::Info</text>
</a>
</g>
</g>
<!-- Node9&#45;&gt;Node10 -->
<g id="edge10_Node000009_Node000010" class="edge">
<title>Node9&#45;&gt;Node10</title>
<g id="a_edge10_Node000009_Node000010"><a xlink:title=" ">
<path fill="none" stroke="#63b8ff" d="M191.1,-592.11C332.31,-595.83 718.93,-602.67 763.25,-567.59 806.58,-533.3 770.92,-496.03 799.25,-448.59 813.1,-425.4 835.55,-404.08 852.4,-389.96"/>
<polygon fill="#63b8ff" stroke="#63b8ff" points="854.37,-392.87 859.92,-383.84 849.95,-387.44 854.37,-392.87"/>
</a>
</g>
</g>
<!-- Node11&#45;&gt;Node10 -->
<g id="edge12_Node000011_Node000010" class="edge">
<title>Node11&#45;&gt;Node10</title>
<g id="a_edge12_Node000011_Node000010"><a xlink:title=" ">
<path fill="none" stroke="#63b8ff" d="M200.25,-553.79C338.62,-568.98 673.18,-598.11 763.25,-536.59 798.14,-512.76 775.89,-483.81 799.25,-448.59 814.27,-425.95 836.75,-404.42 853.3,-390.09"/>
<polygon fill="#63b8ff" stroke="#63b8ff" points="855.26,-393.02 860.64,-383.89 850.74,-387.67 855.26,-393.02"/>
</a>
</g>
</g>
<!-- Node14 -->
<g id="Node000014" class="node">
<title>Node14</title>
<g id="a_Node000014"><a xlink:href="classLGE_1_1Testing_1_1TestUtils.html#a345e283ebede23eaacd1d9c9a1a8fb0d" target="_top" xlink:title=" ">
<polygon fill="white" stroke="#666666" points="373.5,-192.59 255.5,-192.59 255.5,-160.59 373.5,-160.59 373.5,-192.59"/>
<text xml:space="preserve" text-anchor="start" x="263.5" y="-179.09" font-family="Helvetica,sans-Serif" font-size="10.00">LGE::Testing::TestUtils</text>
<text xml:space="preserve" text-anchor="middle" x="314.5" y="-167.09" font-family="Helvetica,sans-Serif" font-size="10.00">::GetTempDir</text>
</a>
</g>
</g>
<!-- Node13&#45;&gt;Node14 -->
<g id="edge15_Node000013_Node000014" class="edge">
<title>Node13&#45;&gt;Node14</title>
<g id="a_edge15_Node000013_Node000014"><a xlink:title=" ">
<path fill="none" stroke="#63b8ff" d="M159.31,-252.36C178.03,-237.49 207.54,-215.69 236,-201.59 239.07,-200.07 242.25,-198.61 245.49,-197.22"/>
<polygon fill="#63b8ff" stroke="#63b8ff" points="246.63,-200.54 254.61,-193.57 244.03,-194.04 246.63,-200.54"/>
</a>
</g>
</g>
<!-- Node15&#45;&gt;Node10 -->
<g id="edge27_Node000015_Node000010" class="edge">
<title>Node15&#45;&gt;Node10</title>
<g id="a_edge27_Node000015_Node000010"><a xlink:title=" ">
<path fill="none" stroke="#63b8ff" d="M178.87,-473.23C186.25,-469.3 193.63,-464.73 200,-459.59 219.93,-443.5 213.55,-426.92 236,-414.59 430.98,-307.51 711.55,-342.18 824.72,-362.42"/>
<polygon fill="#63b8ff" stroke="#63b8ff" points="823.83,-365.81 834.29,-364.17 825.09,-358.92 823.83,-365.81"/>
</a>
</g>
</g>
<!-- Node16 -->
<g id="Node000016" class="node">
<title>Node16</title>
<g id="a_Node000016"><a xlink:href="namespaceLGE_1_1AssetRegistry.html#abf12143e6f506efd22e4ec9ef670134a" target="_top" xlink:title=" ">
<polygon fill="white" stroke="#666666" points="391.5,-455.59 237.5,-455.59 237.5,-423.59 391.5,-423.59 391.5,-455.59"/>
<text xml:space="preserve" text-anchor="start" x="245.5" y="-442.09" font-family="Helvetica,sans-Serif" font-size="10.00">LGE::AssetRegistry</text>
<text xml:space="preserve" text-anchor="middle" x="314.5" y="-430.09" font-family="Helvetica,sans-Serif" font-size="10.00">::BuildReverseDependencyMap</text>
</a>
</g>
</g>
<!-- Node15&#45;&gt;Node16 -->
<g id="edge17_Node000015_Node000016" class="edge">
<title>Node15&#45;&gt;Node16</title>
<g id="a_edge17_Node000015_Node000016"><a xlink:title=" ">
<path fill="none" stroke="#63b8ff" d="M190.94,-474.86C208.01,-469.94 227.31,-464.39 245.46,-459.17"/>
<polygon fill="#63b8ff" stroke="#63b8ff" points="246.19,-462.6 254.83,-456.47 244.25,-455.87 246.19,-462.6"/>
</a>
</g>
</g>
<!-- Node25 -->
<g id="Node000025" class="node">
<title>Node25</title>
<g id="a_Node000025"><a xlink:href="namespaceLGE_1_1VFS.html#a2c64330fbe1cbd5f66e79c29b43c3e87" target="_top" xlink:title=" ">
<polygon fill="white" stroke="#666666" points="372,-499.59 257,-499.59 257,-479.59 372,-479.59 372,-499.59"/>
<text xml:space="preserve" text-anchor="middle" x="314.5" y="-486.09" font-family="Helvetica,sans-Serif" font-size="10.00">LGE::VFS::ListMounts</text>
</a>
</g>
</g>
<!-- Node15&#45;&gt;Node25 -->
<g id="edge28_Node000015_Node000025" class="edge">
<title>Node15&#45;&gt;Node25</title>
<g id="a_edge28_Node000015_Node000025"><a xlink:title=" ">
<path fill="none" stroke="#63b8ff" d="M190.94,-489.59C207.94,-489.59 227.14,-489.59 245.21,-489.59"/>
<polygon fill="#63b8ff" stroke="#63b8ff" points="245.08,-493.09 255.08,-489.59 245.08,-486.09 245.08,-493.09"/>
</a>
</g>
</g>
<!-- Node16&#45;&gt;Node10 -->
<g id="edge20_Node000016_Node000010" class="edge">
<title>Node16&#45;&gt;Node10</title>
<g id="a_edge20_Node000016_Node000010"><a xlink:title=" ">
<path fill="none" stroke="#63b8ff" d="M387.33,-423.13C401.11,-420.33 415.46,-417.67 429,-415.59 571.46,-393.73 741.34,-380.98 824.27,-375.61"/>
<polygon fill="#63b8ff" stroke="#63b8ff" points="824.36,-379.11 834.12,-374.99 823.91,-372.13 824.36,-379.11"/>
</a>
</g>
</g>
<!-- Node17 -->
<g id="Node000017" class="node">
<title>Node17</title>
<g id="a_Node000017"><a xlink:href="namespaceLGE_1_1AssetRegistry.html#ac315fdb87be485fe8103d455b7e8a464" target="_top" xlink:title=" ">
<polygon fill="white" stroke="#666666" points="551.5,-510.59 447.75,-510.59 447.75,-478.59 551.5,-478.59 551.5,-510.59"/>
<text xml:space="preserve" text-anchor="start" x="455.75" y="-497.09" font-family="Helvetica,sans-Serif" font-size="10.00">LGE::AssetRegistry</text>
<text xml:space="preserve" text-anchor="middle" x="499.62" y="-485.09" font-family="Helvetica,sans-Serif" font-size="10.00">::FindByPath</text>
</a>
</g>
</g>
<!-- Node16&#45;&gt;Node17 -->
<g id="edge18_Node000016_Node000017" class="edge">
<title>Node16&#45;&gt;Node17</title>
<g id="a_edge18_Node000016_Node000017"><a xlink:title=" ">
<path fill="none" stroke="#63b8ff" d="M369.95,-455.94C390.96,-462.25 415.12,-469.51 436.78,-476.02"/>
<polygon fill="#63b8ff" stroke="#63b8ff" points="435.49,-479.28 446.07,-478.81 437.5,-472.58 435.49,-479.28"/>
</a>
</g>
</g>
<!-- Node19 -->
<g id="Node000019" class="node">
<title>Node19</title>
<g id="a_Node000019"><a xlink:href="namespaceLGE_1_1VFS.html#a9eb41e42c96a4f5358c79e30afb579cc" target="_top" xlink:title=" ">
<polygon fill="white" stroke="#666666" points="570.25,-444.59 429,-444.59 429,-424.59 570.25,-424.59 570.25,-444.59"/>
<text xml:space="preserve" text-anchor="middle" x="499.62" y="-431.09" font-family="Helvetica,sans-Serif" font-size="10.00">LGE::VFS::ResolveAbsolute</text>
</a>
</g>
</g>
<!-- Node16&#45;&gt;Node19 -->
<g id="edge21_Node000016_Node000019" class="edge">
<title>Node16&#45;&gt;Node19</title>
<g id="a_edge21_Node000016_Node000019"><a xlink:title=" ">
<path fill="none" stroke="#63b8ff" d="M391.84,-437.51C400.2,-437.28 408.74,-437.04 417.17,-436.81"/>
<polygon fill="#63b8ff" stroke="#63b8ff" points="417.14,-440.32 427.05,-436.54 416.95,-433.32 417.14,-440.32"/>
</a>
</g>
</g>
<!-- Node18 -->
<g id="Node000018" class="node">
<title>Node18</title>
<g id="a_Node000018"><a xlink:href="namespaceLGE_1_1AssetRegistry.html#a9e672f9e3c8c62076b9156d1695e48b8" target="_top" xlink:title=" ">
<polygon fill="white" stroke="#666666" points="736.62,-527.59 632.88,-527.59 632.88,-495.59 736.62,-495.59 736.62,-527.59"/>
<text xml:space="preserve" text-anchor="start" x="640.88" y="-514.09" font-family="Helvetica,sans-Serif" font-size="10.00">LGE::AssetRegistry</text>
<text xml:space="preserve" text-anchor="middle" x="684.75" y="-502.09" font-family="Helvetica,sans-Serif" font-size="10.00">::FindByGUID</text>
</a>
</g>
</g>
<!-- Node17&#45;&gt;Node18 -->
<g id="edge19_Node000017_Node000018" class="edge">
<title>Node17&#45;&gt;Node18</title>
<g id="a_edge19_Node000017_Node000018"><a xlink:title=" ">
<path fill="none" stroke="#63b8ff" d="M551.64,-499.32C573.18,-501.33 598.48,-503.67 621.15,-505.78"/>
<polygon fill="#63b8ff" stroke="#63b8ff" points="620.59,-509.24 630.87,-506.68 621.24,-502.27 620.59,-509.24"/>
</a>
</g>
</g>
<!-- Node20 -->
<g id="Node000020" class="node">
<title>Node20</title>
<g id="a_Node000020"><a xlink:href="namespaceLGE_1_1VFS.html#a0566c02123208c6b867418e914f9574b" target="_top" xlink:title=" ">
<polygon fill="white" stroke="#666666" points="739.62,-439.59 629.88,-439.59 629.88,-419.59 739.62,-419.59 739.62,-439.59"/>
<text xml:space="preserve" text-anchor="middle" x="684.75" y="-426.09" font-family="Helvetica,sans-Serif" font-size="10.00">LGE::VFS::GetMount</text>
</a>
</g>
</g>
<!-- Node19&#45;&gt;Node20 -->
<g id="edge22_Node000019_Node000020" class="edge">
<title>Node19&#45;&gt;Node20</title>
<g id="a_edge22_Node000019_Node000020"><a xlink:title=" ">
<path fill="none" stroke="#63b8ff" d="M570.64,-432.68C586.17,-432.25 602.58,-431.81 617.93,-431.39"/>
<polygon fill="#63b8ff" stroke="#63b8ff" points="618.02,-434.89 627.92,-431.11 617.83,-427.89 618.02,-434.89"/>
</a>
</g>
</g>
<!-- Node21 -->
<g id="Node000021" class="node">
<title>Node21</title>
<g id="a_Node000021"><a xlink:href="namespaceLGE_1_1LxPath.html#a94ec3bdfd6948ddc25cda5d18154d4cf" target="_top" xlink:title=" ">
<polygon fill="white" stroke="#666666" points="732.88,-477.59 636.62,-477.59 636.62,-457.59 732.88,-457.59 732.88,-477.59"/>
<text xml:space="preserve" text-anchor="middle" x="684.75" y="-464.09" font-family="Helvetica,sans-Serif" font-size="10.00">LGE::LxPath::Join</text>
</a>
</g>
</g>
<!-- Node19&#45;&gt;Node21 -->
<g id="edge23_Node000019_Node000021" class="edge">
<title>Node19&#45;&gt;Node21</title>
<g id="a_edge23_Node000019_Node000021"><a xlink:title=" ">
<path fill="none" stroke="#63b8ff" d="M558.82,-445.08C580.04,-448.9 604.02,-453.22 625.26,-457.05"/>
<polygon fill="#63b8ff" stroke="#63b8ff" points="624.47,-460.46 634.93,-458.79 625.71,-453.57 624.47,-460.46"/>
</a>
</g>
</g>
<!-- Node24 -->
<g id="Node000024" class="node">
<title>Node24</title>
<g id="a_Node000024"><a xlink:href="classLGE_1_1Log.html#aa6f98018af29c23dd7f574d3df5dda5e" target="_top" xlink:title=" ">
<polygon fill="white" stroke="#666666" points="727.62,-59.59 641.88,-59.59 641.88,-39.59 727.62,-39.59 727.62,-59.59"/>
<text xml:space="preserve" text-anchor="middle" x="684.75" y="-46.09" font-family="Helvetica,sans-Serif" font-size="10.00">LGE::Log::Warn</text>
</a>
</g>
</g>
<!-- Node19&#45;&gt;Node24 -->
<g id="edge26_Node000019_Node000024" class="edge">
<title>Node19&#45;&gt;Node24</title>
<g id="a_edge26_Node000019_Node000024"><a xlink:title=" ">
<path fill="none" stroke="#63b8ff" d="M503.01,-424.39C514.67,-375.08 566.75,-161.45 606.25,-106.59 618.54,-89.53 637.48,-75.46 653.56,-65.58"/>
<polygon fill="#63b8ff" stroke="#63b8ff" points="654.96,-68.81 661.81,-60.73 651.41,-62.77 654.96,-68.81"/>
</a>
</g>
</g>
<!-- Node22 -->
<g id="Node000022" class="node">
<title>Node22</title>
<g id="a_Node000022"><a xlink:href="namespaceLGE_1_1LxPath.html#a314a60ce690c90f4ee0b4e64c0199408" target="_top" xlink:title=" ">
<polygon fill="white" stroke="#666666" points="937.12,-477.59 814.62,-477.59 814.62,-457.59 937.12,-457.59 937.12,-477.59"/>
<text xml:space="preserve" text-anchor="middle" x="875.88" y="-464.09" font-family="Helvetica,sans-Serif" font-size="10.00">LGE::LxPath::Normalize</text>
</a>
</g>
</g>
<!-- Node21&#45;&gt;Node22 -->
<g id="edge24_Node000021_Node000022" class="edge">
<title>Node21&#45;&gt;Node22</title>
<g id="a_edge24_Node000021_Node000022"><a xlink:title=" ">
<path fill="none" stroke="#63b8ff" d="M732.99,-467.59C754.14,-467.59 779.55,-467.59 802.99,-467.59"/>
<polygon fill="#63b8ff" stroke="#63b8ff" points="802.8,-471.09 812.8,-467.59 802.8,-464.09 802.8,-471.09"/>
</a>
</g>
</g>
<!-- Node23 -->
<g id="Node000023" class="node">
<title>Node23</title>
<g id="a_Node000023"><a xlink:href="classLGE_1_1Log.html#a53f3f4b8797ffd18145739c9e66d690a" target="_top" xlink:title=" ">
<polygon fill="white" stroke="#666666" points="1072.75,-249.59 988.5,-249.59 988.5,-229.59 1072.75,-229.59 1072.75,-249.59"/>
<text xml:space="preserve" text-anchor="middle" x="1030.62" y="-236.09" font-family="Helvetica,sans-Serif" font-size="10.00">LGE::Log::Error</text>
</a>
</g>
</g>
<!-- Node22&#45;&gt;Node23 -->
<g id="edge25_Node000022_Node000023" class="edge">
<title>Node22&#45;&gt;Node23</title>
<g id="a_edge25_Node000022_Node000023"><a xlink:title=" ">
<path fill="none" stroke="#63b8ff" d="M889.34,-457.27C905.4,-443.51 933.52,-417.83 952.5,-391.59 983.73,-348.41 1009.19,-290.76 1021.54,-260.37"/>
<polygon fill="#63b8ff" stroke="#63b8ff" points="1024.74,-261.79 1025.19,-251.21 1018.24,-259.2 1024.74,-261.79"/>
</a>
</g>
</g>
<!-- Node26&#45;&gt;Node10 -->
<g id="edge31_Node000026_Node000010" class="edge">
<title>Node26&#45;&gt;Node10</title>
<g id="a_edge31_Node000026_Node000010"><a xlink:title=" ">
<path fill="none" stroke="#63b8ff" d="M567.15,-657.66C640.3,-643.97 749.38,-621.59 763.25,-607.59 814.25,-556.12 764.34,-512.08 799.25,-448.59 812.19,-425.06 834.57,-403.91 851.63,-389.93"/>
<polygon fill="#63b8ff" stroke="#63b8ff" points="853.62,-392.83 859.29,-383.88 849.27,-387.34 853.62,-392.83"/>
</a>
</g>
</g>
<!-- Node26&#45;&gt;Node23 -->
<g id="edge30_Node000026_Node000023" class="edge">
<title>Node26&#45;&gt;Node23</title>
<g id="a_edge30_Node000026_Node000023"><a xlink:title=" ">
<path fill="none" stroke="#63b8ff" d="M557.78,-685.9C562.25,-688.41 566.49,-691.29 570.25,-694.59 596.55,-717.66 576.39,-746.37 606.25,-764.59 665.81,-800.94 697.61,-788.27 763.25,-764.59 866.05,-727.5 896.08,-701.19 952.5,-607.59 1022.66,-491.18 1029.71,-320.68 1029.9,-261.1"/>
<polygon fill="#63b8ff" stroke="#63b8ff" points="1033.4,-261.33 1029.86,-251.35 1026.4,-261.36 1033.4,-261.33"/>
</a>
</g>
</g>
<!-- Node27 -->
<g id="Node000027" class="node">
<title>Node27</title>
<g id="a_Node000027"><a xlink:href="namespaceLGE_1_1LxFS.html#a5684a30f3fa2906f4dafed0258a79166" target="_top" xlink:title=" ">
<polygon fill="white" stroke="#666666" points="744.88,-717.59 624.62,-717.59 624.62,-697.59 744.88,-697.59 744.88,-717.59"/>
<text xml:space="preserve" text-anchor="middle" x="684.75" y="-704.09" font-family="Helvetica,sans-Serif" font-size="10.00">LGE::LxFS::IsInitialized</text>
</a>
</g>
</g>
<!-- Node26&#45;&gt;Node27 -->
<g id="edge32_Node000026_Node000027" class="edge">
<title>Node26&#45;&gt;Node27</title>
<g id="a_edge32_Node000026_Node000027"><a xlink:title=" ">
<path fill="none" stroke="#63b8ff" d="M567.26,-683.42C585.21,-687.14 604.55,-691.15 622.21,-694.82"/>
<polygon fill="#63b8ff" stroke="#63b8ff" points="621.27,-698.2 631.77,-696.8 622.69,-691.34 621.27,-698.2"/>
</a>
</g>
</g>
<!-- Node28 -->
<g id="Node000028" class="node">
<title>Node28</title>
<g id="a_Node000028"><a xlink:href="namespaceLGE_1_1VFS.html#a54b012d377481aa3685b372a196259ed" target="_top" xlink:title=" ">
<polygon fill="white" stroke="#666666" points="741.88,-755.59 627.62,-755.59 627.62,-735.59 741.88,-735.59 741.88,-755.59"/>
<text xml:space="preserve" text-anchor="middle" x="684.75" y="-742.09" font-family="Helvetica,sans-Serif" font-size="10.00">LGE::VFS::MountPath</text>
</a>
</g>
</g>
<!-- Node26&#45;&gt;Node28 -->
<g id="edge33_Node000026_Node000028" class="edge">
<title>Node26&#45;&gt;Node28</title>
<g id="a_edge33_Node000026_Node000028"><a xlink:title=" ">
<path fill="none" stroke="#63b8ff" d="M553.33,-686.05C559.19,-688.6 564.95,-691.44 570.25,-694.59 588.66,-705.52 587.3,-716.64 606.25,-726.59 609.67,-728.38 613.25,-730.01 616.94,-731.49"/>
<polygon fill="#63b8ff" stroke="#63b8ff" points="615.49,-734.69 626.09,-734.76 617.85,-728.1 615.49,-734.69"/>
</a>
</g>
</g>
<!-- Node29 -->
<g id="Node000029" class="node">
<title>Node29</title>
<g id="a_Node000029"><a xlink:href="namespaceLGE_1_1LxFS.html#a12aeb6699602f14153953dceb4284914" target="_top" xlink:title=" ">
<polygon fill="white" stroke="#666666" points="732.88,-679.59 636.62,-679.59 636.62,-659.59 732.88,-659.59 732.88,-679.59"/>
<text xml:space="preserve" text-anchor="middle" x="684.75" y="-666.09" font-family="Helvetica,sans-Serif" font-size="10.00">LGE::LxFS::Paths</text>
</a>
</g>
</g>
<!-- Node26&#45;&gt;Node29 -->
<g id="edge37_Node000026_Node000029" class="edge">
<title>Node26&#45;&gt;Node29</title>
<g id="a_edge37_Node000026_Node000029"><a xlink:title=" ">
<path fill="none" stroke="#63b8ff" d="M567.26,-669.59C586.14,-669.59 606.55,-669.59 624.93,-669.59"/>
<polygon fill="#63b8ff" stroke="#63b8ff" points="624.87,-673.09 634.87,-669.59 624.87,-666.09 624.87,-673.09"/>
</a>
</g>
</g>
<!-- Node28&#45;&gt;Node10 -->
<g id="edge35_Node000028_Node000010" class="edge">
<title>Node28&#45;&gt;Node10</title>
<g id="a_edge35_Node000028_Node000010"><a xlink:title=" ">
<path fill="none" stroke="#63b8ff" d="M742.34,-740.28C750.27,-737.27 757.62,-732.89 763.25,-726.59 846.29,-633.72 744.4,-560.45 799.25,-448.59 811,-424.62 833.33,-403.65 850.69,-389.84"/>
<polygon fill="#63b8ff" stroke="#63b8ff" points="852.7,-392.71 858.52,-383.86 848.45,-387.15 852.7,-392.71"/>
</a>
</g>
</g>
<!-- Node28&#45;&gt;Node22 -->
<g id="edge36_Node000028_Node000022" class="edge">
<title>Node28&#45;&gt;Node22</title>
<g id="a_edge36_Node000028_Node000022"><a xlink:title=" ">
<path fill="none" stroke="#63b8ff" d="M742.21,-739.09C749.96,-736.21 757.29,-732.18 763.25,-726.59 802.29,-689.93 778.72,-661.05 799.25,-611.59 818.28,-565.75 846.83,-514.97 862.86,-487.64"/>
<polygon fill="#63b8ff" stroke="#63b8ff" points="865.86,-489.45 867.94,-479.06 859.83,-485.88 865.86,-489.45"/>
</a>
</g>
</g>
<!-- Node28&#45;&gt;Node23 -->
<g id="edge34_Node000028_Node000023" class="edge">
<title>Node28&#45;&gt;Node23</title>
<g id="a_edge34_Node000028_Node000023"><a xlink:title=" ">
<path fill="none" stroke="#63b8ff" d="M742.21,-736.47C749.61,-733.94 756.84,-730.71 763.25,-726.59 877.49,-653.09 889.15,-606.75 952.5,-486.59 993.59,-408.66 1016.98,-305.18 1025.68,-261.03"/>
<polygon fill="#63b8ff" stroke="#63b8ff" points="1029.07,-261.96 1027.51,-251.48 1022.19,-260.64 1029.07,-261.96"/>
</a>
</g>
</g>
<!-- Node30&#45;&gt;Node10 -->
<g id="edge43_Node000030_Node000010" class="edge">
<title>Node30&#45;&gt;Node10</title>
<g id="a_edge43_Node000030_Node000010"><a xlink:title=" ">
<path fill="none" stroke="#63b8ff" d="M350.44,-231.05C372.85,-237.69 402.58,-246.35 429,-253.59 576.94,-294.12 615.4,-298.73 763.25,-339.59 785.27,-345.68 809.62,-352.82 829.93,-358.91"/>
<polygon fill="#63b8ff" stroke="#63b8ff" points="828.73,-362.2 839.32,-361.73 830.75,-355.5 828.73,-362.2"/>
</a>
</g>
</g>
<!-- Node30&#45;&gt;Node23 -->
<g id="edge42_Node000030_Node000023" class="edge">
<title>Node30&#45;&gt;Node23</title>
<g id="a_edge42_Node000030_Node000023"><a xlink:title=" ">
<path fill="none" stroke="#63b8ff" d="M383.61,-223.82C398.56,-224.46 414.31,-225.09 429,-225.59 631.26,-232.4 871.94,-236.93 976.62,-238.72"/>
<polygon fill="#63b8ff" stroke="#63b8ff" points="976.54,-242.22 986.6,-238.89 976.66,-235.22 976.54,-242.22"/>
</a>
</g>
</g>
<!-- Node30&#45;&gt;Node24 -->
<g id="edge57_Node000030_Node000024" class="edge">
<title>Node30&#45;&gt;Node24</title>
<g id="a_edge57_Node000030_Node000024"><a xlink:title=" ">
<path fill="none" stroke="#63b8ff" d="M377.13,-210.25C382.77,-207.92 388.17,-205.07 393,-201.59 417.32,-184.08 405.74,-163.48 429,-144.59 488.64,-96.14 575.44,-70.9 630.74,-58.93"/>
<polygon fill="#63b8ff" stroke="#63b8ff" points="631.15,-62.42 640.22,-56.96 629.72,-55.57 631.15,-62.42"/>
</a>
</g>
</g>
<!-- Node31 -->
<g id="Node000031" class="node">
<title>Node31</title>
<g id="a_Node000031"><a xlink:href="namespaceLGE_1_1LxFS.html#afaba8b74a530d174bcd4849ffe5b7c75" target="_top" xlink:title=" ">
<polygon fill="white" stroke="#666666" points="568,-59.59 431.25,-59.59 431.25,-39.59 568,-39.59 568,-59.59"/>
<text xml:space="preserve" text-anchor="middle" x="499.62" y="-46.09" font-family="Helvetica,sans-Serif" font-size="10.00">LGE::LxFS::EnsureScaffold</text>
</a>
</g>
</g>
<!-- Node30&#45;&gt;Node31 -->
<g id="edge39_Node000030_Node000031" class="edge">
<title>Node30&#45;&gt;Node31</title>
<g id="a_edge39_Node000030_Node000031"><a xlink:title=" ">
<path fill="none" stroke="#63b8ff" d="M380.72,-210.11C385.17,-207.78 389.34,-204.97 393,-201.59 430.46,-166.96 397.39,-132.63 429,-92.59 437.94,-81.26 450.75,-72.16 462.94,-65.29"/>
<polygon fill="#63b8ff" stroke="#63b8ff" points="464.37,-68.49 471.6,-60.75 461.12,-62.29 464.37,-68.49"/>
</a>
</g>
</g>
<!-- Node32 -->
<g id="Node000032" class="node">
<title>Node32</title>
<g id="a_Node000032"><a xlink:href="namespaceLGE_1_1LxFS.html#aa5a204e25e73c7d4ec733b032028351e" target="_top" xlink:title=" ">
<polygon fill="white" stroke="#666666" points="564.25,-173.59 435,-173.59 435,-153.59 564.25,-153.59 564.25,-173.59"/>
<text xml:space="preserve" text-anchor="middle" x="499.62" y="-160.09" font-family="Helvetica,sans-Serif" font-size="10.00">LGE::LxFS::LoadManifest</text>
</a>
</g>
</g>
<!-- Node30&#45;&gt;Node32 -->
<g id="edge44_Node000030_Node000032" class="edge">
<title>Node30&#45;&gt;Node32</title>
<g id="a_edge44_Node000030_Node000032"><a xlink:title=" ">
<path fill="none" stroke="#63b8ff" d="M362.49,-210.11C372.62,-207.56 383.22,-204.67 393,-201.59 409.37,-196.42 412.88,-193.5 429,-187.59 437.88,-184.34 447.43,-180.96 456.54,-177.8"/>
<polygon fill="#63b8ff" stroke="#63b8ff" points="457.59,-181.14 465.91,-174.58 455.31,-174.52 457.59,-181.14"/>
</a>
</g>
</g>
<!-- Node36 -->
<g id="Node000036" class="node">
<title>Node36</title>
<g id="a_Node000036"><a xlink:href="namespaceLGE_1_1LxFS.html#a6d72399c0ba33d7d484f7adbf4affc1e" target="_top" xlink:title=" ">
<polygon fill="white" stroke="#666666" points="750.12,-211.59 619.38,-211.59 619.38,-191.59 750.12,-191.59 750.12,-211.59"/>
<text xml:space="preserve" text-anchor="middle" x="684.75" y="-198.09" font-family="Helvetica,sans-Serif" font-size="10.00">LGE::LxFS::SaveManifest</text>
</a>
</g>
</g>
<!-- Node30&#45;&gt;Node36 -->
<g id="edge56_Node000030_Node000036" class="edge">
<title>Node30&#45;&gt;Node36</title>
<g id="a_edge56_Node000030_Node000036"><a xlink:title=" ">
<path fill="none" stroke="#63b8ff" d="M383.47,-217.08C447.02,-213.8 541.78,-208.91 607.8,-205.51"/>
<polygon fill="#63b8ff" stroke="#63b8ff" points="607.64,-209.02 617.44,-205.01 607.28,-202.03 607.64,-209.02"/>
</a>
</g>
</g>
<!-- Node31&#45;&gt;Node23 -->
<g id="edge40_Node000031_Node000023" class="edge">
<title>Node31&#45;&gt;Node23</title>
<g id="a_edge40_Node000031_Node000023"><a xlink:title=" ">
<path fill="none" stroke="#63b8ff" d="M530.64,-39.12C609.28,-13.77 824.09,41.89 952.5,-56.59 1004.72,-96.64 1021.95,-178.71 1027.33,-217.87"/>
<polygon fill="#63b8ff" stroke="#63b8ff" points="1023.84,-218.17 1028.53,-227.67 1030.79,-217.32 1023.84,-218.17"/>
</a>
</g>
</g>
<!-- Node31&#45;&gt;Node24 -->
<g id="edge41_Node000031_Node000024" class="edge">
<title>Node31&#45;&gt;Node24</title>
<g id="a_edge41_Node000031_Node000024"><a xlink:title=" ">
<path fill="none" stroke="#63b8ff" d="M568.29,-49.59C588.72,-49.59 610.86,-49.59 630.23,-49.59"/>
<polygon fill="#63b8ff" stroke="#63b8ff" points="630.08,-53.09 640.08,-49.59 630.08,-46.09 630.08,-53.09"/>
</a>
</g>
</g>
<!-- Node32&#45;&gt;Node10 -->
<g id="edge46_Node000032_Node000010" class="edge">
<title>Node32&#45;&gt;Node10</title>
<g id="a_edge46_Node000032_Node000010"><a xlink:title=" ">
<path fill="none" stroke="#63b8ff" d="M519.65,-173.99C540.75,-185.5 575.84,-204.54 606.25,-220.59 675.69,-257.24 695.17,-262.48 763.25,-301.59 793.82,-319.15 827.86,-341.18 850.22,-356"/>
<polygon fill="#63b8ff" stroke="#63b8ff" points="848.09,-358.79 858.36,-361.42 851.98,-352.97 848.09,-358.79"/>
</a>
</g>
</g>
<!-- Node32&#45;&gt;Node23 -->
<g id="edge45_Node000032_Node000023" class="edge">
<title>Node32&#45;&gt;Node23</title>
<g id="a_edge45_Node000032_Node000023"><a xlink:title=" ">
<path fill="none" stroke="#63b8ff" d="M564.74,-162.57C653.49,-162.71 818.03,-168.65 952.5,-205.59 968.8,-210.07 986.1,-217.43 1000.18,-224.16"/>
<polygon fill="#63b8ff" stroke="#63b8ff" points="998.37,-227.17 1008.88,-228.46 1001.46,-220.89 998.37,-227.17"/>
</a>
</g>
</g>
<!-- Node32&#45;&gt;Node24 -->
<g id="edge55_Node000032_Node000024" class="edge">
<title>Node32&#45;&gt;Node24</title>
<g id="a_edge55_Node000032_Node000024"><a xlink:title=" ">
<path fill="none" stroke="#63b8ff" d="M521.78,-153.15C536.34,-145.37 555.6,-133.84 570.25,-120.59 589.77,-102.94 584.66,-88.64 606.25,-73.59 613.73,-68.38 622.37,-64.27 631.12,-61.04"/>
<polygon fill="#63b8ff" stroke="#63b8ff" points="631.94,-64.45 640.33,-57.99 629.74,-57.81 631.94,-64.45"/>
</a>
</g>
</g>
<!-- Node33 -->
<g id="Node000033" class="node">
<title>Node33</title>
<g id="a_Node000033"><a xlink:href="namespaceLGE_1_1Migration.html#a94f0cb325681d49b25e29f0bd2801422" target="_top" xlink:title=" ">
<polygon fill="white" stroke="#666666" points="763.25,-135.59 606.25,-135.59 606.25,-115.59 763.25,-115.59 763.25,-135.59"/>
<text xml:space="preserve" text-anchor="middle" x="684.75" y="-122.09" font-family="Helvetica,sans-Serif" font-size="10.00">LGE::Migration::MigrateManifest</text>
</a>
</g>
</g>
<!-- Node32&#45;&gt;Node33 -->
<g id="edge47_Node000032_Node000033" class="edge">
<title>Node32&#45;&gt;Node33</title>
<g id="a_edge47_Node000032_Node000033"><a xlink:title=" ">
<path fill="none" stroke="#63b8ff" d="M551.15,-153.11C573.17,-148.54 599.18,-143.14 622.3,-138.34"/>
<polygon fill="#63b8ff" stroke="#63b8ff" points="622.83,-141.81 631.91,-136.35 621.41,-134.95 622.83,-141.81"/>
</a>
</g>
</g>
<!-- Node35 -->
<g id="Node000035" class="node">
<title>Node35</title>
<g id="a_Node000035"><a xlink:href="namespaceLGE_1_1Migration.html#ad2e0aa4e3fa0c4300ecf31c7f53a5d29" target="_top" xlink:title=" ">
<polygon fill="white" stroke="#666666" points="952.5,-97.59 799.25,-97.59 799.25,-65.59 952.5,-65.59 952.5,-97.59"/>
<text xml:space="preserve" text-anchor="start" x="807.25" y="-84.09" font-family="Helvetica,sans-Serif" font-size="10.00">LGE::Migration::NeedsManifest</text>
<text xml:space="preserve" text-anchor="middle" x="875.88" y="-72.09" font-family="Helvetica,sans-Serif" font-size="10.00">Migration</text>
</a>
</g>
</g>
<!-- Node32&#45;&gt;Node35 -->
<g id="edge51_Node000032_Node000035" class="edge">
<title>Node32&#45;&gt;Node35</title>
<g id="a_edge51_Node000032_Node000035"><a xlink:title=" ">
<path fill="none" stroke="#63b8ff" d="M515.17,-153.25C534.8,-139.91 571.35,-117.15 606.25,-106.59 665.04,-88.8 734.08,-82.68 787.45,-80.93"/>
<polygon fill="#63b8ff" stroke="#63b8ff" points="787.52,-84.43 797.42,-80.66 787.32,-77.44 787.52,-84.43"/>
</a>
</g>
</g>
<!-- Node32&#45;&gt;Node36 -->
<g id="edge52_Node000032_Node000036" class="edge">
<title>Node32&#45;&gt;Node36</title>
<g id="a_edge52_Node000032_Node000036"><a xlink:title=" ">
<path fill="none" stroke="#63b8ff" d="M551.15,-174.07C573.17,-178.64 599.18,-184.04 622.3,-188.84"/>
<polygon fill="#63b8ff" stroke="#63b8ff" points="621.41,-192.23 631.91,-190.83 622.83,-185.37 621.41,-192.23"/>
</a>
</g>
</g>
<!-- Node33&#45;&gt;Node10 -->
<g id="edge49_Node000033_Node000010" class="edge">
<title>Node33&#45;&gt;Node10</title>
<g id="a_edge49_Node000033_Node000010"><a xlink:title=" ">
<path fill="none" stroke="#63b8ff" d="M704,-136.03C720.84,-146.31 745.8,-163.24 763.25,-182.59 811.81,-236.42 849.64,-314.66 866.02,-351.68"/>
<polygon fill="#63b8ff" stroke="#63b8ff" points="862.78,-353 869.97,-360.78 869.2,-350.21 862.78,-353"/>
</a>
</g>
</g>
<!-- Node34 -->
<g id="Node000034" class="node">
<title>Node34</title>
<g id="a_Node000034"><a xlink:href="namespaceLGE_1_1MetaDB.html#aa5218c5875c7c064fac11782f4ca1783" target="_top" xlink:title=" ">
<polygon fill="white" stroke="#666666" points="950.25,-135.59 801.5,-135.59 801.5,-115.59 950.25,-115.59 950.25,-135.59"/>
<text xml:space="preserve" text-anchor="middle" x="875.88" y="-122.09" font-family="Helvetica,sans-Serif" font-size="10.00">LGE::MetaDB::GenerateGUID</text>
</a>
</g>
</g>
<!-- Node33&#45;&gt;Node34 -->
<g id="edge48_Node000033_Node000034" class="edge">
<title>Node33&#45;&gt;Node34</title>
<g id="a_edge48_Node000033_Node000034"><a xlink:title=" ">
<path fill="none" stroke="#63b8ff" d="M763.49,-125.59C772.14,-125.59 780.97,-125.59 789.7,-125.59"/>
<polygon fill="#63b8ff" stroke="#63b8ff" points="789.57,-129.09 799.57,-125.59 789.57,-122.09 789.57,-129.09"/>
</a>
</g>
</g>
<!-- Node33&#45;&gt;Node35 -->
<g id="edge50_Node000033_Node000035" class="edge">
<title>Node33&#45;&gt;Node35</title>
<g id="a_edge50_Node000033_Node000035"><a xlink:title=" ">
<path fill="none" stroke="#63b8ff" d="M730.57,-115.16C749.27,-110.81 771.59,-105.62 793.03,-100.63"/>
<polygon fill="#63b8ff" stroke="#63b8ff" points="793.71,-104.07 802.66,-98.39 792.12,-97.25 793.71,-104.07"/>
</a>
</g>
</g>
<!-- Node36&#45;&gt;Node10 -->
<g id="edge54_Node000036_Node000010" class="edge">
<title>Node36&#45;&gt;Node10</title>
<g id="a_edge54_Node000036_Node000010"><a xlink:title=" ">
<path fill="none" stroke="#63b8ff" d="M699.52,-211.95C715.28,-223.95 741.7,-244.53 763.25,-263.59 797.67,-294.03 835.48,-331.99 857.08,-354.13"/>
<polygon fill="#63b8ff" stroke="#63b8ff" points="854.51,-356.5 863.98,-361.24 859.53,-351.63 854.51,-356.5"/>
</a>
</g>
</g>
<!-- Node36&#45;&gt;Node23 -->
<g id="edge53_Node000036_Node000023" class="edge">
<title>Node36&#45;&gt;Node23</title>
<g id="a_edge53_Node000036_Node000023"><a xlink:title=" ">
<path fill="none" stroke="#63b8ff" d="M750.62,-205.79C804.74,-209.68 883.85,-216.29 952.5,-225.59 960.38,-226.66 968.69,-227.97 976.81,-229.35"/>
<polygon fill="#63b8ff" stroke="#63b8ff" points="976.16,-232.79 986.62,-231.08 977.38,-225.9 976.16,-232.79"/>
</a>
</g>
</g>
</g>
</svg>
