<?xml version="1.0" encoding="UTF-8" standalone="no"?>
<!DOCTYPE svg PUBLIC "-//W3C//DTD SVG 1.1//EN"
 "http://www.w3.org/Graphics/SVG/1.1/DTD/svg11.dtd">
<!-- Generated by graphviz version 14.0.2 (20251019.1705)
 -->
<!-- Title: TEST Pages: 1 -->
<svg width="1232pt" height="1045pt"
 viewBox="0.00 0.00 1232.00 1045.00" xmlns="http://www.w3.org/2000/svg" xmlns:xlink="http://www.w3.org/1999/xlink">
<g id="graph0" class="graph" transform="scale(1 1) rotate(0) translate(4 1041.43)">
<title>TEST</title>
<!-- Node1 -->
<g id="Node000001" class="node">
<title>Node1</title>
<g id="a_Node000001"><a xlink:title=" ">
<polygon fill="#999999" stroke="#666666" points="41.5,-771.43 0,-771.43 0,-751.43 41.5,-751.43 41.5,-771.43"/>
<text xml:space="preserve" text-anchor="middle" x="20.75" y="-757.93" font-family="Helvetica,sans-Serif" font-size="10.00">TEST</text>
</a>
</g>
</g>
<!-- Node2 -->
<g id="Node000002" class="node">
<title>Node2</title>
<g id="a_Node000002"><a xlink:href="classLGE_1_1Testing_1_1TestUtils.html#a1f77aba432e3b29480c1688b716d86cf" target="_top" xlink:title=" ">
<polygon fill="white" stroke="#666666" points="195.5,-1037.43 77.5,-1037.43 77.5,-1005.43 195.5,-1005.43 195.5,-1037.43"/>
<text xml:space="preserve" text-anchor="start" x="85.5" y="-1023.93" font-family="Helvetica,sans-Serif" font-size="10.00">LGE::Testing::TestUtils</text>
<text xml:space="preserve" text-anchor="middle" x="136.5" y="-1011.93" font-family="Helvetica,sans-Serif" font-size="10.00">::CleanupTestProject</text>
</a>
</g>
</g>
<!-- Node1&#45;&gt;Node2 -->
<g id="edge1_Node000001_Node000002" class="edge">
<title>Node1&#45;&gt;Node2</title>
<g id="a_edge1_Node000001_Node000002"><a xlink:title=" ">
<path fill="none" stroke="#63b8ff" d="M21.38,-771.89C20.7,-806.95 22.95,-921.95 77.5,-991.43 79.47,-993.94 81.71,-996.26 84.13,-998.4"/>
<polygon fill="#63b8ff" stroke="#63b8ff" points="81.64,-1000.91 91.74,-1004.1 85.84,-995.31 81.64,-1000.91"/>
</a>
</g>
</g>
<!-- Node3 -->
<g id="Node000003" class="node">
<title>Node3</title>
<g id="a_Node000003"><a xlink:href="namespaceLGE_1_1AssetRegistry.html#a0e507381944dcdfc25afc215e2fdc0fd" target="_top" xlink:title=" ">
<polygon fill="white" stroke="#666666" points="344.62,-1012.43 240.88,-1012.43 240.88,-980.43 344.62,-980.43 344.62,-1012.43"/>
<text xml:space="preserve" text-anchor="start" x="248.88" y="-998.93" font-family="Helvetica,sans-Serif" font-size="10.00">LGE::AssetRegistry</text>
<text xml:space="preserve" text-anchor="middle" x="292.75" y="-986.93" font-family="Helvetica,sans-Serif" font-size="10.00">::Clear</text>
</a>
</g>
</g>
<!-- Node1&#45;&gt;Node3 -->
<g id="edge2_Node000001_Node000003" class="edge">
<title>Node1&#45;&gt;Node3</title>
<g id="a_edge2_Node000001_Node000003"><a xlink:title=" ">
<path fill="none" stroke="#63b8ff" d="M21.2,-771.48C20.03,-804.03 21.09,-907.41 77.5,-958.43 99.34,-978.18 174.05,-987.97 229.12,-992.61"/>
<polygon fill="#63b8ff" stroke="#63b8ff" points="228.8,-996.09 239.04,-993.4 229.35,-989.11 228.8,-996.09"/>
</a>
</g>
</g>
<!-- Node5 -->
<g id="Node000005" class="node">
<title>Node5</title>
<g id="a_Node000005"><a xlink:href="namespaceLGE_1_1Dependencies.html#a5627e0c5a7ff6b7891063177eb3f51c5" target="_top" xlink:title=" ">
<polygon fill="white" stroke="#666666" points="191.38,-949.43 81.62,-949.43 81.62,-917.43 191.38,-917.43 191.38,-949.43"/>
<text xml:space="preserve" text-anchor="start" x="89.62" y="-935.93" font-family="Helvetica,sans-Serif" font-size="10.00">LGE::Dependencies::</text>
<text xml:space="preserve" text-anchor="middle" x="136.5" y="-923.93" font-family="Helvetica,sans-Serif" font-size="10.00">Clear</text>
</a>
</g>
</g>
<!-- Node1&#45;&gt;Node5 -->
<g id="edge4_Node000001_Node000005" class="edge">
<title>Node1&#45;&gt;Node5</title>
<g id="a_edge4_Node000001_Node000005"><a xlink:title=" ">
<path fill="none" stroke="#63b8ff" d="M22.9,-771.79C26.34,-798.06 38.82,-868 77.5,-908.43 78.08,-909.04 78.68,-909.63 79.3,-910.22"/>
<polygon fill="#63b8ff" stroke="#63b8ff" points="76.82,-912.72 86.87,-916.09 81.12,-907.2 76.82,-912.72"/>
</a>
</g>
</g>
<!-- Node6 -->
<g id="Node000006" class="node">
<title>Node6</title>
<g id="a_Node000006"><a xlink:href="namespaceLGE_1_1VFS.html#abb779fd365154cfbcb79fc4486a5b912" target="_top" xlink:title=" ">
<polygon fill="white" stroke="#666666" points="354,-708.43 231.5,-708.43 231.5,-688.43 354,-688.43 354,-708.43"/>
<text xml:space="preserve" text-anchor="middle" x="292.75" y="-694.93" font-family="Helvetica,sans-Serif" font-size="10.00">LGE::VFS::ClearMounts</text>
</a>
</g>
</g>
<!-- Node1&#45;&gt;Node6 -->
<g id="edge5_Node000001_Node000006" class="edge">
<title>Node1&#45;&gt;Node6</title>
<g id="a_edge5_Node000001_Node000006"><a xlink:title=" ">
<path fill="none" stroke="#63b8ff" d="M34.16,-751.07C44.91,-742.69 61.26,-731.35 77.5,-725.43 123.16,-708.8 177.51,-702.09 220.04,-699.51"/>
<polygon fill="#63b8ff" stroke="#63b8ff" points="220.11,-703.01 229.91,-698.99 219.74,-696.02 220.11,-703.01"/>
</a>
</g>
</g>
<!-- Node7 -->
<g id="Node000007" class="node">
<title>Node7</title>
<g id="a_Node000007"><a xlink:href="classLGE_1_1Testing_1_1TestUtils.html#a46de1f3cb8d715bf5329ad34a764f8b9" target="_top" xlink:title=" ">
<polygon fill="white" stroke="#666666" points="195.5,-849.43 77.5,-849.43 77.5,-817.43 195.5,-817.43 195.5,-849.43"/>
<text xml:space="preserve" text-anchor="start" x="85.5" y="-835.93" font-family="Helvetica,sans-Serif" font-size="10.00">LGE::Testing::TestUtils</text>
<text xml:space="preserve" text-anchor="middle" x="136.5" y="-823.93" font-family="Helvetica,sans-Serif" font-size="10.00">::CreateTestFile</text>
</a>
</g>
</g>
<!-- Node1&#45;&gt;Node7 -->
<g id="edge7_Node000001_Node000007" class="edge">
<title>Node1&#45;&gt;Node7</title>
<g id="a_edge7_Node000001_Node000007"><a xlink:title=" ">
<path fill="none" stroke="#63b8ff" d="M32.12,-771.81C42.8,-782.08 60.27,-797.78 77.5,-808.43 79.35,-809.58 81.27,-810.7 83.23,-811.78"/>
<polygon fill="#63b8ff" stroke="#63b8ff" points="81.42,-814.79 91.91,-816.27 84.63,-808.57 81.42,-814.79"/>
</a>
</g>
</g>
<!-- Node8 -->
<g id="Node000008" class="node">
<title>Node8</title>
<g id="a_Node000008"><a xlink:href="classLGE_1_1Testing_1_1TestUtils.html#ace2f7af3775195fcf072f0c09c966af3" target="_top" xlink:title=" ">
<polygon fill="white" stroke="#666666" points="195.5,-899.43 77.5,-899.43 77.5,-867.43 195.5,-867.43 195.5,-899.43"/>
<text xml:space="preserve" text-anchor="start" x="85.5" y="-885.93" font-family="Helvetica,sans-Serif" font-size="10.00">LGE::Testing::TestUtils</text>
<text xml:space="preserve" text-anchor="middle" x="136.5" y="-873.93" font-family="Helvetica,sans-Serif" font-size="10.00">::CreateTestProject</text>
</a>
</g>
</g>
<!-- Node1&#45;&gt;Node8 -->
<g id="edge8_Node000001_Node000008" class="edge">
<title>Node1&#45;&gt;Node8</title>
<g id="a_edge8_Node000001_Node000008"><a xlink:title=" ">
<path fill="none" stroke="#63b8ff" d="M25.13,-771.63C32.04,-791.02 49.52,-833.49 77.5,-858.43 78.4,-859.23 79.33,-860.01 80.29,-860.77"/>
<polygon fill="#63b8ff" stroke="#63b8ff" points="77.97,-863.43 88.21,-866.15 81.9,-857.64 77.97,-863.43"/>
</a>
</g>
</g>
<!-- Node10 -->
<g id="Node000010" class="node">
<title>Node10</title>
<g id="a_Node000010"><a xlink:href="namespaceLGE_1_1AssetRegistry.html#af9345d56722e55e0a02cc2b1c421da76" target="_top" xlink:title=" ">
<polygon fill="white" stroke="#666666" points="344.62,-629.43 240.88,-629.43 240.88,-597.43 344.62,-597.43 344.62,-629.43"/>
<text xml:space="preserve" text-anchor="start" x="248.88" y="-615.93" font-family="Helvetica,sans-Serif" font-size="10.00">LGE::AssetRegistry</text>
<text xml:space="preserve" text-anchor="middle" x="292.75" y="-603.93" font-family="Helvetica,sans-Serif" font-size="10.00">::FullScan</text>
</a>
</g>
</g>
<!-- Node1&#45;&gt;Node10 -->
<g id="edge10_Node000001_Node000010" class="edge">
<title>Node1&#45;&gt;Node10</title>
<g id="a_edge10_Node000001_Node000010"><a xlink:title=" ">
<path fill="none" stroke="#63b8ff" d="M22.72,-751.23C25.71,-726.19 37.16,-661.58 77.5,-632.43 120.89,-601.08 182.87,-598.88 229.01,-603.02"/>
<polygon fill="#63b8ff" stroke="#63b8ff" points="228.57,-606.49 238.87,-604.04 229.29,-599.53 228.57,-606.49"/>
</a>
</g>
</g>
<!-- Node21 -->
<g id="Node000021" class="node">
<title>Node21</title>
<g id="a_Node000021"><a xlink:href="namespaceLGE_1_1AssetRegistry.html#ac9aa62a1e0c929e88bec00618b489988" target="_top" xlink:title=" ">
<polygon fill="white" stroke="#666666" points="518.88,-755.43 415.12,-755.43 415.12,-723.43 518.88,-723.43 518.88,-755.43"/>
<text xml:space="preserve" text-anchor="start" x="423.12" y="-741.93" font-family="Helvetica,sans-Serif" font-size="10.00">LGE::AssetRegistry</text>
<text xml:space="preserve" text-anchor="middle" x="467" y="-729.93" font-family="Helvetica,sans-Serif" font-size="10.00">::GetAllAssets</text>
</a>
</g>
</g>
<!-- Node1&#45;&gt;Node21 -->
<g id="edge23_Node000001_Node000021" class="edge">
<title>Node1&#45;&gt;Node21</title>
<g id="a_edge23_Node000001_Node000021"><a xlink:title=" ">
<path fill="none" stroke="#63b8ff" d="M41.88,-760.32C52.48,-759.75 65.69,-759.04 77.5,-758.43 192.48,-752.53 326.63,-746.06 403.42,-742.4"/>
<polygon fill="#63b8ff" stroke="#63b8ff" points="403.44,-745.9 413.26,-741.93 403.11,-738.91 403.44,-745.9"/>
</a>
</g>
</g>
<!-- Node22 -->
<g id="Node000022" class="node">
<title>Node22</title>
<g id="a_Node000022"><a xlink:href="namespaceLGE_1_1Dependencies.html#a29d37804e0e9d13aaa944c764ed262a5" target="_top" xlink:title=" ">
<polygon fill="white" stroke="#666666" points="191.38,-673.43 81.62,-673.43 81.62,-641.43 191.38,-641.43 191.38,-673.43"/>
<text xml:space="preserve" text-anchor="start" x="89.62" y="-659.93" font-family="Helvetica,sans-Serif" font-size="10.00">LGE::Dependencies::</text>
<text xml:space="preserve" text-anchor="middle" x="136.5" y="-647.93" font-family="Helvetica,sans-Serif" font-size="10.00">GetDependencies</text>
</a>
</g>
</g>
<!-- Node1&#45;&gt;Node22 -->
<g id="edge24_Node000001_Node000022" class="edge">
<title>Node1&#45;&gt;Node22</title>
<g id="a_edge24_Node000001_Node000022"><a xlink:title=" ">
<path fill="none" stroke="#63b8ff" d="M27.57,-750.93C36.6,-735.43 55.26,-706.21 77.5,-687.43 80.72,-684.71 84.23,-682.15 87.88,-679.75"/>
<polygon fill="#63b8ff" stroke="#63b8ff" points="89.68,-682.75 96.44,-674.6 86.07,-676.76 89.68,-682.75"/>
</a>
</g>
</g>
<!-- Node23 -->
<g id="Node000023" class="node">
<title>Node23</title>
<g id="a_Node000023"><a xlink:href="namespaceLGE_1_1Dependencies.html#a507f7e03e282ce1ac7c9326017bccae8" target="_top" xlink:title=" ">
<polygon fill="white" stroke="#666666" points="191.38,-799.43 81.62,-799.43 81.62,-767.43 191.38,-767.43 191.38,-799.43"/>
<text xml:space="preserve" text-anchor="start" x="89.62" y="-785.93" font-family="Helvetica,sans-Serif" font-size="10.00">LGE::Dependencies::</text>
<text xml:space="preserve" text-anchor="middle" x="136.5" y="-773.93" font-family="Helvetica,sans-Serif" font-size="10.00">Initialize</text>
</a>
</g>
</g>
<!-- Node1&#45;&gt;Node23 -->
<g id="edge25_Node000001_Node000023" class="edge">
<title>Node1&#45;&gt;Node23</title>
<g id="a_edge25_Node000001_Node000023"><a xlink:title=" ">
<path fill="none" stroke="#63b8ff" d="M41.82,-765.31C49.97,-766.89 59.89,-768.81 70.18,-770.8"/>
<polygon fill="#63b8ff" stroke="#63b8ff" points="69.47,-774.22 79.95,-772.69 70.8,-767.35 69.47,-774.22"/>
</a>
</g>
</g>
<!-- Node27 -->
<g id="Node000027" class="node">
<title>Node27</title>
<g id="a_Node000027"><a xlink:href="namespaceLGE_1_1VFS.html#a5cea8543475162be752c71971f1f4e85" target="_top" xlink:title=" ">
<polygon fill="white" stroke="#666666" points="717.88,-493.43 583.38,-493.43 583.38,-461.43 717.88,-461.43 717.88,-493.43"/>
<text xml:space="preserve" text-anchor="start" x="591.38" y="-479.93" font-family="Helvetica,sans-Serif" font-size="10.00">LGE::VFS::InitializeDefault</text>
<text xml:space="preserve" text-anchor="middle" x="650.62" y="-467.93" font-family="Helvetica,sans-Serif" font-size="10.00">Mounts</text>
</a>
</g>
</g>
<!-- Node1&#45;&gt;Node27 -->
<g id="edge35_Node000001_Node000027" class="edge">
<title>Node1&#45;&gt;Node27</title>
<g id="a_edge35_Node000001_Node000027"><a xlink:title=" ">
<path fill="none" stroke="#63b8ff" d="M21.94,-751.09C23.07,-722.04 30.45,-639.11 77.5,-597.43 216.96,-473.89 450.61,-465.82 571.65,-471.15"/>
<polygon fill="#63b8ff" stroke="#63b8ff" points="571.34,-474.64 581.5,-471.63 571.68,-467.64 571.34,-474.64"/>
</a>
</g>
</g>
<!-- Node31 -->
<g id="Node000031" class="node">
<title>Node31</title>
<g id="a_Node000031"><a xlink:href="namespaceLGE_1_1LxFS.html#a40efc6a314cff464d1050243706eb8d8" target="_top" xlink:title=" ">
<polygon fill="white" stroke="#666666" points="535.75,-275.43 398.25,-275.43 398.25,-255.43 535.75,-255.43 535.75,-275.43"/>
<text xml:space="preserve" text-anchor="middle" x="467" y="-261.93" font-family="Helvetica,sans-Serif" font-size="10.00">LGE::LxFS::InitializeProject</text>
</a>
</g>
</g>
<!-- Node1&#45;&gt;Node31 -->
<g id="edge44_Node000001_Node000031" class="edge">
<title>Node1&#45;&gt;Node31</title>
<g id="a_edge44_Node000001_Node000031"><a xlink:title=" ">
<path fill="none" stroke="#63b8ff" d="M22.76,-750.95C27.21,-706.49 46.26,-533.79 77.5,-490.43 163.32,-371.33 333.15,-305.69 416.92,-279.31"/>
<polygon fill="#63b8ff" stroke="#63b8ff" points="417.94,-282.66 426.46,-276.37 415.87,-275.97 417.94,-282.66"/>
</a>
</g>
</g>
<!-- Node4 -->
<g id="Node000004" class="node">
<title>Node4</title>
<g id="a_Node000004"><a xlink:href="classLGE_1_1Log.html#ab0265ee050b8873a2fd31fbdb696ced0" target="_top" xlink:title=" ">
<polygon fill="white" stroke="#666666" points="1066.75,-560.43 987,-560.43 987,-540.43 1066.75,-540.43 1066.75,-560.43"/>
<text xml:space="preserve" text-anchor="middle" x="1026.88" y="-546.93" font-family="Helvetica,sans-Serif" font-size="10.00">LGE::Log::Info</text>
</a>
</g>
</g>
<!-- Node3&#45;&gt;Node4 -->
<g id="edge3_Node000003_Node000004" class="edge">
<title>Node3&#45;&gt;Node4</title>
<g id="a_edge3_Node000003_Node000004"><a xlink:title=" ">
<path fill="none" stroke="#63b8ff" d="M345.06,-1008.63C461.25,-1032.99 747.32,-1074.13 914.25,-935.43 972.19,-887.29 1011.96,-645.27 1022.86,-571.68"/>
<polygon fill="#63b8ff" stroke="#63b8ff" points="1026.27,-572.57 1024.24,-562.17 1019.34,-571.57 1026.27,-572.57"/>
</a>
</g>
</g>
<!-- Node6&#45;&gt;Node4 -->
<g id="edge6_Node000006_Node000004" class="edge">
<title>Node6&#45;&gt;Node4</title>
<g id="a_edge6_Node000006_Node000004"><a xlink:title=" ">
<path fill="none" stroke="#63b8ff" d="M354.36,-703.19C490.61,-712.89 816.78,-730.32 914.25,-683.43 964.09,-659.46 999.83,-601.53 1016.07,-570.64"/>
<polygon fill="#63b8ff" stroke="#63b8ff" points="1019.08,-572.44 1020.48,-561.94 1012.84,-569.27 1019.08,-572.44"/>
</a>
</g>
</g>
<!-- Node9 -->
<g id="Node000009" class="node">
<title>Node9</title>
<g id="a_Node000009"><a xlink:href="classLGE_1_1Testing_1_1TestUtils.html#a345e283ebede23eaacd1d9c9a1a8fb0d" target="_top" xlink:title=" ">
<polygon fill="white" stroke="#666666" points="351.75,-962.43 233.75,-962.43 233.75,-930.43 351.75,-930.43 351.75,-962.43"/>
<text xml:space="preserve" text-anchor="start" x="241.75" y="-948.93" font-family="Helvetica,sans-Serif" font-size="10.00">LGE::Testing::TestUtils</text>
<text xml:space="preserve" text-anchor="middle" x="292.75" y="-936.93" font-family="Helvetica,sans-Serif" font-size="10.00">::GetTempDir</text>
</a>
</g>
</g>
<!-- Node8&#45;&gt;Node9 -->
<g id="edge9_Node000008_Node000009" class="edge">
<title>Node8&#45;&gt;Node9</title>
<g id="a_edge9_Node000008_Node000009"><a xlink:title=" ">
<path fill="none" stroke="#63b8ff" d="M177.62,-899.82C197.01,-907.74 220.48,-917.32 241.08,-925.74"/>
<polygon fill="#63b8ff" stroke="#63b8ff" points="239.58,-928.9 250.16,-929.44 242.22,-922.42 239.58,-928.9"/>
</a>
</g>
</g>
<!-- Node10&#45;&gt;Node4 -->
<g id="edge21_Node000010_Node000004" class="edge">
<title>Node10&#45;&gt;Node4</title>
<g id="a_edge21_Node000010_Node000004"><a xlink:title=" ">
<path fill="none" stroke="#63b8ff" d="M345.06,-598.13C359.48,-594.37 375.25,-590.76 390,-588.43 605.79,-554.29 867.2,-550.21 975.32,-550.13"/>
<polygon fill="#63b8ff" stroke="#63b8ff" points="975,-553.63 985,-550.13 975,-546.63 975,-553.63"/>
</a>
</g>
</g>
<!-- Node11 -->
<g id="Node000011" class="node">
<title>Node11</title>
<g id="a_Node000011"><a xlink:href="namespaceLGE_1_1AssetRegistry.html#abf12143e6f506efd22e4ec9ef670134a" target="_top" xlink:title=" ">
<polygon fill="white" stroke="#666666" points="544,-629.43 390,-629.43 390,-597.43 544,-597.43 544,-629.43"/>
<text xml:space="preserve" text-anchor="start" x="398" y="-615.93" font-family="Helvetica,sans-Serif" font-size="10.00">LGE::AssetRegistry</text>
<text xml:space="preserve" text-anchor="middle" x="467" y="-603.93" font-family="Helvetica,sans-Serif" font-size="10.00">::BuildReverseDependencyMap</text>
</a>
</g>
</g>
<!-- Node10&#45;&gt;Node11 -->
<g id="edge11_Node000010_Node000011" class="edge">
<title>Node10&#45;&gt;Node11</title>
<g id="a_edge11_Node000010_Node000011"><a xlink:title=" ">
<path fill="none" stroke="#63b8ff" d="M344.96,-613.43C355.53,-613.43 366.93,-613.43 378.37,-613.43"/>
<polygon fill="#63b8ff" stroke="#63b8ff" points="378.28,-616.93 388.28,-613.43 378.28,-609.93 378.28,-616.93"/>
</a>
</g>
</g>
<!-- Node20 -->
<g id="Node000020" class="node">
<title>Node20</title>
<g id="a_Node000020"><a xlink:href="namespaceLGE_1_1VFS.html#a2c64330fbe1cbd5f66e79c29b43c3e87" target="_top" xlink:title=" ">
<polygon fill="white" stroke="#666666" points="524.5,-667.43 409.5,-667.43 409.5,-647.43 524.5,-647.43 524.5,-667.43"/>
<text xml:space="preserve" text-anchor="middle" x="467" y="-653.93" font-family="Helvetica,sans-Serif" font-size="10.00">LGE::VFS::ListMounts</text>
</a>
</g>
</g>
<!-- Node10&#45;&gt;Node20 -->
<g id="edge22_Node000010_Node000020" class="edge">
<title>Node10&#45;&gt;Node20</title>
<g id="a_edge22_Node000010_Node000020"><a xlink:title=" ">
<path fill="none" stroke="#63b8ff" d="M344.93,-626.82C359.49,-630.6 375.36,-634.7 390,-638.43 397.35,-640.3 405.1,-642.26 412.74,-644.18"/>
<polygon fill="#63b8ff" stroke="#63b8ff" points="411.75,-647.54 422.3,-646.58 413.46,-640.75 411.75,-647.54"/>
</a>
</g>
</g>
<!-- Node11&#45;&gt;Node4 -->
<g id="edge14_Node000011_Node000004" class="edge">
<title>Node11&#45;&gt;Node4</title>
<g id="a_edge14_Node000011_Node000004"><a xlink:title=" ">
<path fill="none" stroke="#63b8ff" d="M538.35,-629.86C646.52,-653.72 848.12,-692.23 914.25,-664.43 959.79,-645.29 996.05,-597.5 1013.86,-570.26"/>
<polygon fill="#63b8ff" stroke="#63b8ff" points="1016.76,-572.22 1019.15,-561.89 1010.85,-568.48 1016.76,-572.22"/>
</a>
</g>
</g>
<!-- Node12 -->
<g id="Node000012" class="node">
<title>Node12</title>
<g id="a_Node000012"><a xlink:href="namespaceLGE_1_1AssetRegistry.html#ac315fdb87be485fe8103d455b7e8a464" target="_top" xlink:title=" ">
<polygon fill="white" stroke="#666666" points="702.5,-849.43 598.75,-849.43 598.75,-817.43 702.5,-817.43 702.5,-849.43"/>
<text xml:space="preserve" text-anchor="start" x="606.75" y="-835.93" font-family="Helvetica,sans-Serif" font-size="10.00">LGE::AssetRegistry</text>
<text xml:space="preserve" text-anchor="middle" x="650.62" y="-823.93" font-family="Helvetica,sans-Serif" font-size="10.00">::FindByPath</text>
</a>
</g>
</g>
<!-- Node11&#45;&gt;Node12 -->
<g id="edge12_Node000011_Node000012" class="edge">
<title>Node11&#45;&gt;Node12</title>
<g id="a_edge12_Node000011_Node000012"><a xlink:title=" ">
<path fill="none" stroke="#63b8ff" d="M531.04,-629.78C535.67,-632.27 540.06,-635.14 544,-638.43 551.22,-644.47 609.06,-755.1 635.96,-806.99"/>
<polygon fill="#63b8ff" stroke="#63b8ff" points="632.8,-808.49 640.51,-815.76 639.02,-805.27 632.8,-808.49"/>
</a>
</g>
</g>
<!-- Node14 -->
<g id="Node000014" class="node">
<title>Node14</title>
<g id="a_Node000014"><a xlink:href="namespaceLGE_1_1VFS.html#a9eb41e42c96a4f5358c79e30afb579cc" target="_top" xlink:title=" ">
<polygon fill="white" stroke="#666666" points="721.25,-623.43 580,-623.43 580,-603.43 721.25,-603.43 721.25,-623.43"/>
<text xml:space="preserve" text-anchor="middle" x="650.62" y="-609.93" font-family="Helvetica,sans-Serif" font-size="10.00">LGE::VFS::ResolveAbsolute</text>
</a>
</g>
</g>
<!-- Node11&#45;&gt;Node14 -->
<g id="edge15_Node000011_Node000014" class="edge">
<title>Node11&#45;&gt;Node14</title>
<g id="a_edge15_Node000011_Node000014"><a xlink:title=" ">
<path fill="none" stroke="#63b8ff" d="M544.5,-613.43C552.32,-613.43 560.28,-613.43 568.14,-613.43"/>
<polygon fill="#63b8ff" stroke="#63b8ff" points="568.06,-616.93 578.06,-613.43 568.06,-609.93 568.06,-616.93"/>
</a>
</g>
</g>
<!-- Node13 -->
<g id="Node000013" class="node">
<title>Node13</title>
<g id="a_Node000013"><a xlink:href="namespaceLGE_1_1AssetRegistry.html#a9e672f9e3c8c62076b9156d1695e48b8" target="_top" xlink:title=" ">
<polygon fill="white" stroke="#666666" points="887.62,-871.43 783.88,-871.43 783.88,-839.43 887.62,-839.43 887.62,-871.43"/>
<text xml:space="preserve" text-anchor="start" x="791.88" y="-857.93" font-family="Helvetica,sans-Serif" font-size="10.00">LGE::AssetRegistry</text>
<text xml:space="preserve" text-anchor="middle" x="835.75" y="-845.93" font-family="Helvetica,sans-Serif" font-size="10.00">::FindByGUID</text>
</a>
</g>
</g>
<!-- Node12&#45;&gt;Node13 -->
<g id="edge13_Node000012_Node000013" class="edge">
<title>Node12&#45;&gt;Node13</title>
<g id="a_edge13_Node000012_Node000013"><a xlink:title=" ">
<path fill="none" stroke="#63b8ff" d="M702.64,-839.56C724.18,-842.15 749.48,-845.19 772.15,-847.91"/>
<polygon fill="#63b8ff" stroke="#63b8ff" points="771.53,-851.36 781.88,-849.08 772.36,-844.41 771.53,-851.36"/>
</a>
</g>
</g>
<!-- Node15 -->
<g id="Node000015" class="node">
<title>Node15</title>
<g id="a_Node000015"><a xlink:href="namespaceLGE_1_1VFS.html#a0566c02123208c6b867418e914f9574b" target="_top" xlink:title=" ">
<polygon fill="white" stroke="#666666" points="890.62,-655.43 780.88,-655.43 780.88,-635.43 890.62,-635.43 890.62,-655.43"/>
<text xml:space="preserve" text-anchor="middle" x="835.75" y="-641.93" font-family="Helvetica,sans-Serif" font-size="10.00">LGE::VFS::GetMount</text>
</a>
</g>
</g>
<!-- Node14&#45;&gt;Node15 -->
<g id="edge16_Node000014_Node000015" class="edge">
<title>Node14&#45;&gt;Node15</title>
<g id="a_edge16_Node000014_Node000015"><a xlink:title=" ">
<path fill="none" stroke="#63b8ff" d="M711.59,-623.91C730.07,-627.14 750.52,-630.71 769.35,-634"/>
<polygon fill="#63b8ff" stroke="#63b8ff" points="768.59,-637.42 779.04,-635.7 769.79,-630.53 768.59,-637.42"/>
</a>
</g>
</g>
<!-- Node16 -->
<g id="Node000016" class="node">
<title>Node16</title>
<g id="a_Node000016"><a xlink:href="namespaceLGE_1_1LxPath.html#a94ec3bdfd6948ddc25cda5d18154d4cf" target="_top" xlink:title=" ">
<polygon fill="white" stroke="#666666" points="883.88,-617.43 787.62,-617.43 787.62,-597.43 883.88,-597.43 883.88,-617.43"/>
<text xml:space="preserve" text-anchor="middle" x="835.75" y="-603.93" font-family="Helvetica,sans-Serif" font-size="10.00">LGE::LxPath::Join</text>
</a>
</g>
</g>
<!-- Node14&#45;&gt;Node16 -->
<g id="edge17_Node000014_Node000016" class="edge">
<title>Node14&#45;&gt;Node16</title>
<g id="a_edge17_Node000014_Node000016"><a xlink:title=" ">
<path fill="none" stroke="#63b8ff" d="M721.64,-611.14C739.61,-610.55 758.76,-609.92 776.1,-609.35"/>
<polygon fill="#63b8ff" stroke="#63b8ff" points="775.8,-612.86 785.68,-609.04 775.57,-605.87 775.8,-612.86"/>
</a>
</g>
</g>
<!-- Node19 -->
<g id="Node000019" class="node">
<title>Node19</title>
<g id="a_Node000019"><a xlink:href="classLGE_1_1Log.html#aa6f98018af29c23dd7f574d3df5dda5e" target="_top" xlink:title=" ">
<polygon fill="white" stroke="#666666" points="878.62,-275.43 792.88,-275.43 792.88,-255.43 878.62,-255.43 878.62,-275.43"/>
<text xml:space="preserve" text-anchor="middle" x="835.75" y="-261.93" font-family="Helvetica,sans-Serif" font-size="10.00">LGE::Log::Warn</text>
</a>
</g>
</g>
<!-- Node14&#45;&gt;Node19 -->
<g id="edge20_Node000014_Node000019" class="edge">
<title>Node14&#45;&gt;Node19</title>
<g id="a_edge20_Node000014_Node000019"><a xlink:title=" ">
<path fill="none" stroke="#63b8ff" d="M659.73,-603.02C674.13,-584.06 704.25,-542.17 721.25,-502.43 746.86,-442.57 727.98,-418.59 757.25,-360.43 772.3,-330.53 798.11,-301.51 815.77,-283.58"/>
<polygon fill="#63b8ff" stroke="#63b8ff" points="818,-286.3 822.64,-276.78 813.07,-281.33 818,-286.3"/>
</a>
</g>
</g>
<!-- Node17 -->
<g id="Node000017" class="node">
<title>Node17</title>
<g id="a_Node000017"><a xlink:href="namespaceLGE_1_1LxPath.html#a314a60ce690c90f4ee0b4e64c0199408" target="_top" xlink:title=" ">
<polygon fill="white" stroke="#666666" points="1088.12,-427.43 965.62,-427.43 965.62,-407.43 1088.12,-407.43 1088.12,-427.43"/>
<text xml:space="preserve" text-anchor="middle" x="1026.88" y="-413.93" font-family="Helvetica,sans-Serif" font-size="10.00">LGE::LxPath::Normalize</text>
</a>
</g>
</g>
<!-- Node16&#45;&gt;Node17 -->
<g id="edge18_Node000016_Node000017" class="edge">
<title>Node16&#45;&gt;Node17</title>
<g id="a_edge18_Node000016_Node000017"><a xlink:title=" ">
<path fill="none" stroke="#63b8ff" d="M847.19,-596.94C878,-565.99 968.84,-474.73 1007.8,-435.59"/>
<polygon fill="#63b8ff" stroke="#63b8ff" points="1010.06,-438.28 1014.63,-428.72 1005.1,-433.34 1010.06,-438.28"/>
</a>
</g>
</g>
<!-- Node18 -->
<g id="Node000018" class="node">
<title>Node18</title>
<g id="a_Node000018"><a xlink:href="classLGE_1_1Log.html#a53f3f4b8797ffd18145739c9e66d690a" target="_top" xlink:title=" ">
<polygon fill="white" stroke="#666666" points="1223.75,-313.43 1139.5,-313.43 1139.5,-293.43 1223.75,-293.43 1223.75,-313.43"/>
<text xml:space="preserve" text-anchor="middle" x="1181.62" y="-299.93" font-family="Helvetica,sans-Serif" font-size="10.00">LGE::Log::Error</text>
</a>
</g>
</g>
<!-- Node17&#45;&gt;Node18 -->
<g id="edge19_Node000017_Node000018" class="edge">
<title>Node17&#45;&gt;Node18</title>
<g id="a_edge19_Node000017_Node000018"><a xlink:title=" ">
<path fill="none" stroke="#63b8ff" d="M1074.91,-406.96C1084.83,-403.55 1094.89,-399.13 1103.5,-393.43 1131.41,-374.95 1154.99,-343.63 1168.47,-323.23"/>
<polygon fill="#63b8ff" stroke="#63b8ff" points="1171.32,-325.28 1173.76,-314.97 1165.42,-321.51 1171.32,-325.28"/>
</a>
</g>
</g>
<!-- Node23&#45;&gt;Node4 -->
<g id="edge26_Node000023_Node000004" class="edge">
<title>Node23&#45;&gt;Node4</title>
<g id="a_edge26_Node000023_Node000004"><a xlink:title=" ">
<path fill="none" stroke="#63b8ff" d="M176.29,-799.87C182.73,-802.68 189.32,-805.61 195.5,-808.43 282.83,-848.33 296.41,-881 390,-902.43 509.24,-929.73 871.85,-912.79 914.25,-880.43 1014.58,-803.85 1025.51,-632.83 1026.13,-572.23"/>
<polygon fill="#63b8ff" stroke="#63b8ff" points="1029.63,-572.27 1026.13,-562.27 1022.63,-572.27 1029.63,-572.27"/>
</a>
</g>
</g>
<!-- Node24 -->
<g id="Node000024" class="node">
<title>Node24</title>
<g id="a_Node000024"><a xlink:href="namespaceLGE_1_1Dependencies.html#abb2932854a8edbd61c21b2b3c846396f" target="_top" xlink:title=" ">
<polygon fill="white" stroke="#666666" points="347.62,-799.43 237.88,-799.43 237.88,-767.43 347.62,-767.43 347.62,-799.43"/>
<text xml:space="preserve" text-anchor="start" x="245.88" y="-785.93" font-family="Helvetica,sans-Serif" font-size="10.00">LGE::Dependencies::</text>
<text xml:space="preserve" text-anchor="middle" x="292.75" y="-773.93" font-family="Helvetica,sans-Serif" font-size="10.00">RebuildGraph</text>
</a>
</g>
</g>
<!-- Node23&#45;&gt;Node24 -->
<g id="edge27_Node000023_Node000024" class="edge">
<title>Node23&#45;&gt;Node24</title>
<g id="a_edge27_Node000023_Node000024"><a xlink:title=" ">
<path fill="none" stroke="#63b8ff" d="M191.45,-783.43C202.66,-783.43 214.58,-783.43 226.16,-783.43"/>
<polygon fill="#63b8ff" stroke="#63b8ff" points="226.06,-786.93 236.06,-783.43 226.06,-779.93 226.06,-786.93"/>
</a>
</g>
</g>
<!-- Node24&#45;&gt;Node4 -->
<g id="edge30_Node000024_Node000004" class="edge">
<title>Node24&#45;&gt;Node4</title>
<g id="a_edge30_Node000024_Node000004"><a xlink:title=" ">
<path fill="none" stroke="#63b8ff" d="M348.04,-791.56C462.34,-805.78 732.26,-823.86 914.25,-711.43 968.84,-677.7 1003.6,-606.24 1018.1,-570.98"/>
<polygon fill="#63b8ff" stroke="#63b8ff" points="1021.26,-572.51 1021.69,-561.93 1014.75,-569.94 1021.26,-572.51"/>
</a>
</g>
</g>
<!-- Node24&#45;&gt;Node21 -->
<g id="edge29_Node000024_Node000021" class="edge">
<title>Node24&#45;&gt;Node21</title>
<g id="a_edge29_Node000024_Node000021"><a xlink:title=" ">
<path fill="none" stroke="#63b8ff" d="M347.78,-769.63C365.59,-765.08 385.54,-759.98 403.91,-755.29"/>
<polygon fill="#63b8ff" stroke="#63b8ff" points="404.52,-758.75 413.34,-752.88 402.79,-751.97 404.52,-758.75"/>
</a>
</g>
</g>
<!-- Node25 -->
<g id="Node000025" class="node">
<title>Node25</title>
<g id="a_Node000025"><a xlink:href="namespaceLGE_1_1Dependencies.html#a5cf2c869b83ca6a67386d4e44f83512c" target="_top" xlink:title=" ">
<polygon fill="white" stroke="#666666" points="532.38,-843.43 401.62,-843.43 401.62,-811.43 532.38,-811.43 532.38,-843.43"/>
<text xml:space="preserve" text-anchor="start" x="409.62" y="-829.93" font-family="Helvetica,sans-Serif" font-size="10.00">LGE::Dependencies::</text>
<text xml:space="preserve" text-anchor="middle" x="467" y="-817.93" font-family="Helvetica,sans-Serif" font-size="10.00">FindCircularDependencies</text>
</a>
</g>
</g>
<!-- Node24&#45;&gt;Node25 -->
<g id="edge28_Node000024_Node000025" class="edge">
<title>Node24&#45;&gt;Node25</title>
<g id="a_edge28_Node000024_Node000025"><a xlink:title=" ">
<path fill="none" stroke="#63b8ff" d="M347.78,-797.23C361.38,-800.71 376.23,-804.5 390.66,-808.19"/>
<polygon fill="#63b8ff" stroke="#63b8ff" points="389.58,-811.52 400.13,-810.6 391.31,-804.74 389.58,-811.52"/>
</a>
</g>
</g>
<!-- Node26 -->
<g id="Node000026" class="node">
<title>Node26</title>
<g id="a_Node000026"><a xlink:href="namespaceLGE_1_1Dependencies.html#ab8088cfc8ddddf32d237f13042e6310d" target="_top" xlink:title=" ">
<polygon fill="white" stroke="#666666" points="521.88,-893.43 412.12,-893.43 412.12,-861.43 521.88,-861.43 521.88,-893.43"/>
<text xml:space="preserve" text-anchor="start" x="420.12" y="-879.93" font-family="Helvetica,sans-Serif" font-size="10.00">LGE::Dependencies::</text>
<text xml:space="preserve" text-anchor="middle" x="467" y="-867.93" font-family="Helvetica,sans-Serif" font-size="10.00">ValidateReference</text>
</a>
</g>
</g>
<!-- Node24&#45;&gt;Node26 -->
<g id="edge31_Node000024_Node000026" class="edge">
<title>Node24&#45;&gt;Node26</title>
<g id="a_edge31_Node000024_Node000026"><a xlink:title=" ">
<path fill="none" stroke="#63b8ff" d="M312.89,-799.85C331.54,-815.17 361.22,-837.81 390,-852.43 393.68,-854.3 397.54,-856.08 401.47,-857.75"/>
<polygon fill="#63b8ff" stroke="#63b8ff" points="400.03,-860.94 410.61,-861.39 402.61,-854.44 400.03,-860.94"/>
</a>
</g>
</g>
<!-- Node26&#45;&gt;Node12 -->
<g id="edge33_Node000026_Node000012" class="edge">
<title>Node26&#45;&gt;Node12</title>
<g id="a_edge33_Node000026_Node000012"><a xlink:title=" ">
<path fill="none" stroke="#63b8ff" d="M522,-864.35C542.48,-859.39 565.96,-853.7 587.15,-848.57"/>
<polygon fill="#63b8ff" stroke="#63b8ff" points="587.96,-851.97 596.85,-846.22 586.31,-845.17 587.96,-851.97"/>
</a>
</g>
</g>
<!-- Node26&#45;&gt;Node13 -->
<g id="edge32_Node000026_Node000013" class="edge">
<title>Node26&#45;&gt;Node13</title>
<g id="a_edge32_Node000026_Node000013"><a xlink:title=" ">
<path fill="none" stroke="#63b8ff" d="M522.12,-874.18C588.84,-870.18 702.01,-863.39 772.34,-859.17"/>
<polygon fill="#63b8ff" stroke="#63b8ff" points="772.38,-862.68 782.16,-858.59 771.97,-855.69 772.38,-862.68"/>
</a>
</g>
</g>
<!-- Node26&#45;&gt;Node14 -->
<g id="edge34_Node000026_Node000014" class="edge">
<title>Node26&#45;&gt;Node14</title>
<g id="a_edge34_Node000026_Node000014"><a xlink:title=" ">
<path fill="none" stroke="#63b8ff" d="M522.18,-865.92C530.12,-862.52 537.72,-858.12 544,-852.43 578.46,-821.2 625.47,-686.69 642.83,-634.37"/>
<polygon fill="#63b8ff" stroke="#63b8ff" points="646.06,-635.75 645.85,-625.16 639.41,-633.57 646.06,-635.75"/>
</a>
</g>
</g>
<!-- Node27&#45;&gt;Node4 -->
<g id="edge37_Node000027_Node000004" class="edge">
<title>Node27&#45;&gt;Node4</title>
<g id="a_edge37_Node000027_Node000004"><a xlink:title=" ">
<path fill="none" stroke="#63b8ff" d="M695.32,-493.87C714.15,-500.44 736.56,-507.58 757.25,-512.43 832.23,-530.01 921.01,-540.63 975.38,-546.02"/>
<polygon fill="#63b8ff" stroke="#63b8ff" points="974.97,-549.49 985.26,-546.97 975.64,-542.53 974.97,-549.49"/>
</a>
</g>
</g>
<!-- Node27&#45;&gt;Node18 -->
<g id="edge36_Node000027_Node000018" class="edge">
<title>Node27&#45;&gt;Node18</title>
<g id="a_edge36_Node000027_Node000018"><a xlink:title=" ">
<path fill="none" stroke="#63b8ff" d="M660.87,-461.24C676.8,-435.05 712.1,-383.93 757.25,-360.43 894.8,-288.82 950.21,-340.84 1103.5,-317.43 1111.36,-316.23 1119.66,-314.85 1127.77,-313.43"/>
<polygon fill="#63b8ff" stroke="#63b8ff" points="1128.35,-316.88 1137.58,-311.68 1127.12,-309.99 1128.35,-316.88"/>
</a>
</g>
</g>
<!-- Node28 -->
<g id="Node000028" class="node">
<title>Node28</title>
<g id="a_Node000028"><a xlink:href="namespaceLGE_1_1LxFS.html#a5684a30f3fa2906f4dafed0258a79166" target="_top" xlink:title=" ">
<polygon fill="white" stroke="#666666" points="895.88,-503.43 775.62,-503.43 775.62,-483.43 895.88,-483.43 895.88,-503.43"/>
<text xml:space="preserve" text-anchor="middle" x="835.75" y="-489.93" font-family="Helvetica,sans-Serif" font-size="10.00">LGE::LxFS::IsInitialized</text>
</a>
</g>
</g>
<!-- Node27&#45;&gt;Node28 -->
<g id="edge38_Node000027_Node000028" class="edge">
<title>Node27&#45;&gt;Node28</title>
<g id="a_edge38_Node000027_Node000028"><a xlink:title=" ">
<path fill="none" stroke="#63b8ff" d="M718.26,-483.25C733.09,-484.55 748.86,-485.93 763.86,-487.24"/>
<polygon fill="#63b8ff" stroke="#63b8ff" points="763.37,-490.71 773.64,-488.09 763.98,-483.73 763.37,-490.71"/>
</a>
</g>
</g>
<!-- Node29 -->
<g id="Node000029" class="node">
<title>Node29</title>
<g id="a_Node000029"><a xlink:href="namespaceLGE_1_1VFS.html#a54b012d377481aa3685b372a196259ed" target="_top" xlink:title=" ">
<polygon fill="white" stroke="#666666" points="892.88,-389.43 778.62,-389.43 778.62,-369.43 892.88,-369.43 892.88,-389.43"/>
<text xml:space="preserve" text-anchor="middle" x="835.75" y="-375.93" font-family="Helvetica,sans-Serif" font-size="10.00">LGE::VFS::MountPath</text>
</a>
</g>
</g>
<!-- Node27&#45;&gt;Node29 -->
<g id="edge39_Node000027_Node000029" class="edge">
<title>Node27&#45;&gt;Node29</title>
<g id="a_edge39_Node000027_Node000029"><a xlink:title=" ">
<path fill="none" stroke="#63b8ff" d="M682.28,-461.03C716.6,-442.66 771.83,-413.1 805.55,-395.06"/>
<polygon fill="#63b8ff" stroke="#63b8ff" points="806.78,-398.37 813.95,-390.56 803.48,-392.2 806.78,-398.37"/>
</a>
</g>
</g>
<!-- Node30 -->
<g id="Node000030" class="node">
<title>Node30</title>
<g id="a_Node000030"><a xlink:href="namespaceLGE_1_1LxFS.html#a12aeb6699602f14153953dceb4284914" target="_top" xlink:title=" ">
<polygon fill="white" stroke="#666666" points="883.88,-465.43 787.62,-465.43 787.62,-445.43 883.88,-445.43 883.88,-465.43"/>
<text xml:space="preserve" text-anchor="middle" x="835.75" y="-451.93" font-family="Helvetica,sans-Serif" font-size="10.00">LGE::LxFS::Paths</text>
</a>
</g>
</g>
<!-- Node27&#45;&gt;Node30 -->
<g id="edge43_Node000027_Node000030" class="edge">
<title>Node27&#45;&gt;Node30</title>
<g id="a_edge43_Node000027_Node000030"><a xlink:title=" ">
<path fill="none" stroke="#63b8ff" d="M718.26,-469.43C737.23,-467.15 757.74,-464.68 776.19,-462.47"/>
<polygon fill="#63b8ff" stroke="#63b8ff" points="776.37,-465.97 785.88,-461.3 775.53,-459.02 776.37,-465.97"/>
</a>
</g>
</g>
<!-- Node29&#45;&gt;Node4 -->
<g id="edge41_Node000029_Node000004" class="edge">
<title>Node29&#45;&gt;Node4</title>
<g id="a_edge41_Node000029_Node000004"><a xlink:title=" ">
<path fill="none" stroke="#63b8ff" d="M886.84,-389.93C896.45,-393.29 906.06,-397.69 914.25,-403.43 939.46,-421.08 989.66,-494.97 1013.17,-530.79"/>
<polygon fill="#63b8ff" stroke="#63b8ff" points="1010.09,-532.47 1018.48,-538.93 1015.95,-528.64 1010.09,-532.47"/>
</a>
</g>
</g>
<!-- Node29&#45;&gt;Node17 -->
<g id="edge42_Node000029_Node000017" class="edge">
<title>Node29&#45;&gt;Node17</title>
<g id="a_edge42_Node000029_Node000017"><a xlink:title=" ">
<path fill="none" stroke="#63b8ff" d="M888.93,-389.91C911.77,-394.5 938.77,-399.93 962.74,-404.74"/>
<polygon fill="#63b8ff" stroke="#63b8ff" points="961.89,-408.14 972.38,-406.68 963.27,-401.28 961.89,-408.14"/>
</a>
</g>
</g>
<!-- Node29&#45;&gt;Node18 -->
<g id="edge40_Node000029_Node000018" class="edge">
<title>Node29&#45;&gt;Node18</title>
<g id="a_edge40_Node000029_Node000018"><a xlink:title=" ">
<path fill="none" stroke="#63b8ff" d="M893.14,-382.38C948.35,-383.43 1034.06,-380.11 1103.5,-355.43 1124.97,-347.8 1146.2,-332.79 1160.94,-320.84"/>
<polygon fill="#63b8ff" stroke="#63b8ff" points="1163.05,-323.63 1168.46,-314.52 1158.55,-318.28 1163.05,-323.63"/>
</a>
</g>
</g>
<!-- Node31&#45;&gt;Node4 -->
<g id="edge49_Node000031_Node000004" class="edge">
<title>Node31&#45;&gt;Node4</title>
<g id="a_edge49_Node000031_Node000004"><a xlink:title=" ">
<path fill="none" stroke="#63b8ff" d="M487.63,-275.92C509.84,-287.66 547.2,-307.07 580,-322.43 657.63,-358.78 675.92,-371.36 757.25,-398.43 825.37,-421.1 851.83,-400.96 914.25,-436.43 956.56,-460.47 993.37,-505.2 1012.3,-530.91"/>
<polygon fill="#63b8ff" stroke="#63b8ff" points="1009.3,-532.73 1017.98,-538.81 1014.99,-528.65 1009.3,-532.73"/>
</a>
</g>
</g>
<!-- Node31&#45;&gt;Node18 -->
<g id="edge48_Node000031_Node000018" class="edge">
<title>Node31&#45;&gt;Node18</title>
<g id="a_edge48_Node000031_Node000018"><a xlink:title=" ">
<path fill="none" stroke="#63b8ff" d="M478.81,-254.97C543.82,-193.32 887.22,114.47 1103.5,-46.43 1142.16,-75.19 1168.7,-225.27 1177.46,-281.83"/>
<polygon fill="#63b8ff" stroke="#63b8ff" points="1173.96,-282.11 1178.92,-291.47 1180.89,-281.06 1173.96,-282.11"/>
</a>
</g>
</g>
<!-- Node31&#45;&gt;Node19 -->
<g id="edge63_Node000031_Node000019" class="edge">
<title>Node31&#45;&gt;Node19</title>
<g id="a_edge63_Node000031_Node000019"><a xlink:title=" ">
<path fill="none" stroke="#63b8ff" d="M536.12,-265.43C606.96,-265.43 716.39,-265.43 781.26,-265.43"/>
<polygon fill="#63b8ff" stroke="#63b8ff" points="780.93,-268.93 790.93,-265.43 780.93,-261.93 780.93,-268.93"/>
</a>
</g>
</g>
<!-- Node32 -->
<g id="Node000032" class="node">
<title>Node32</title>
<g id="a_Node000032"><a xlink:href="namespaceLGE_1_1LxFS.html#afaba8b74a530d174bcd4849ffe5b7c75" target="_top" xlink:title=" ">
<polygon fill="white" stroke="#666666" points="719,-313.43 582.25,-313.43 582.25,-293.43 719,-293.43 719,-313.43"/>
<text xml:space="preserve" text-anchor="middle" x="650.62" y="-299.93" font-family="Helvetica,sans-Serif" font-size="10.00">LGE::LxFS::EnsureScaffold</text>
</a>
</g>
</g>
<!-- Node31&#45;&gt;Node32 -->
<g id="edge45_Node000031_Node000032" class="edge">
<title>Node31&#45;&gt;Node32</title>
<g id="a_edge45_Node000031_Node000032"><a xlink:title=" ">
<path fill="none" stroke="#63b8ff" d="M518.11,-275.91C539.95,-280.48 565.74,-285.88 588.68,-290.68"/>
<polygon fill="#63b8ff" stroke="#63b8ff" points="587.69,-294.05 598.2,-292.67 589.13,-287.2 587.69,-294.05"/>
</a>
</g>
</g>
<!-- Node33 -->
<g id="Node000033" class="node">
<title>Node33</title>
<g id="a_Node000033"><a xlink:href="namespaceLGE_1_1LxFS.html#aa5a204e25e73c7d4ec733b032028351e" target="_top" xlink:title=" ">
<polygon fill="white" stroke="#666666" points="715.25,-199.43 586,-199.43 586,-179.43 715.25,-179.43 715.25,-199.43"/>
<text xml:space="preserve" text-anchor="middle" x="650.62" y="-185.93" font-family="Helvetica,sans-Serif" font-size="10.00">LGE::LxFS::LoadManifest</text>
</a>
</g>
</g>
<!-- Node31&#45;&gt;Node33 -->
<g id="edge50_Node000031_Node000033" class="edge">
<title>Node31&#45;&gt;Node33</title>
<g id="a_edge50_Node000031_Node000033"><a xlink:title=" ">
<path fill="none" stroke="#63b8ff" d="M488.77,-255C511.05,-244.01 547.59,-226.5 580,-213.43 588.42,-210.03 597.53,-206.68 606.29,-203.6"/>
<polygon fill="#63b8ff" stroke="#63b8ff" points="607.39,-206.92 615.7,-200.35 605.11,-200.3 607.39,-206.92"/>
</a>
</g>
</g>
<!-- Node37 -->
<g id="Node000037" class="node">
<title>Node37</title>
<g id="a_Node000037"><a xlink:href="namespaceLGE_1_1LxFS.html#a6d72399c0ba33d7d484f7adbf4affc1e" target="_top" xlink:title=" ">
<polygon fill="white" stroke="#666666" points="901.12,-199.43 770.38,-199.43 770.38,-179.43 901.12,-179.43 901.12,-199.43"/>
<text xml:space="preserve" text-anchor="middle" x="835.75" y="-185.93" font-family="Helvetica,sans-Serif" font-size="10.00">LGE::LxFS::SaveManifest</text>
</a>
</g>
</g>
<!-- Node31&#45;&gt;Node37 -->
<g id="edge62_Node000031_Node000037" class="edge">
<title>Node31&#45;&gt;Node37</title>
<g id="a_edge62_Node000031_Node000037"><a xlink:title=" ">
<path fill="none" stroke="#63b8ff" d="M518.61,-254.94C585.11,-241.16 701.8,-216.98 773.29,-202.17"/>
<polygon fill="#63b8ff" stroke="#63b8ff" points="773.8,-205.63 782.88,-200.18 772.38,-198.78 773.8,-205.63"/>
</a>
</g>
</g>
<!-- Node32&#45;&gt;Node18 -->
<g id="edge46_Node000032_Node000018" class="edge">
<title>Node32&#45;&gt;Node18</title>
<g id="a_edge46_Node000032_Node000018"><a xlink:title=" ">
<path fill="none" stroke="#63b8ff" d="M719.43,-303.43C826.19,-303.43 1031.24,-303.43 1127.83,-303.43"/>
<polygon fill="#63b8ff" stroke="#63b8ff" points="1127.55,-306.93 1137.55,-303.43 1127.55,-299.93 1127.55,-306.93"/>
</a>
</g>
</g>
<!-- Node32&#45;&gt;Node19 -->
<g id="edge47_Node000032_Node000019" class="edge">
<title>Node32&#45;&gt;Node19</title>
<g id="a_edge47_Node000032_Node000019"><a xlink:title=" ">
<path fill="none" stroke="#63b8ff" d="M702.15,-292.95C726.75,-287.84 756.34,-281.7 781.32,-276.52"/>
<polygon fill="#63b8ff" stroke="#63b8ff" points="781.88,-279.98 790.96,-274.52 780.45,-273.12 781.88,-279.98"/>
</a>
</g>
</g>
<!-- Node33&#45;&gt;Node4 -->
<g id="edge52_Node000033_Node000004" class="edge">
<title>Node33&#45;&gt;Node4</title>
<g id="a_edge52_Node000033_Node000004"><a xlink:title=" ">
<path fill="none" stroke="#63b8ff" d="M707.26,-199.89C782.17,-214.2 906.99,-238.97 914.25,-246.43 974.21,-308 917.85,-356.82 950.25,-436.43 965,-472.68 992.09,-509.49 1009.53,-531.12"/>
<polygon fill="#63b8ff" stroke="#63b8ff" points="1006.76,-533.27 1015.82,-538.77 1012.17,-528.83 1006.76,-533.27"/>
</a>
</g>
</g>
<!-- Node33&#45;&gt;Node18 -->
<g id="edge51_Node000033_Node000018" class="edge">
<title>Node33&#45;&gt;Node18</title>
<g id="a_edge51_Node000033_Node000018"><a xlink:title=" ">
<path fill="none" stroke="#63b8ff" d="M699.49,-178.96C717.51,-175.51 738.23,-172.13 757.25,-170.43 826.75,-164.23 845.08,-161.27 914.25,-170.43 1000.61,-181.86 1028.77,-176.67 1103.5,-221.43 1130.1,-237.36 1153.34,-265.03 1167.18,-283.78"/>
<polygon fill="#63b8ff" stroke="#63b8ff" points="1164.33,-285.8 1172.98,-291.91 1170.03,-281.74 1164.33,-285.8"/>
</a>
</g>
</g>
<!-- Node33&#45;&gt;Node19 -->
<g id="edge61_Node000033_Node000019" class="edge">
<title>Node33&#45;&gt;Node19</title>
<g id="a_edge61_Node000033_Node000019"><a xlink:title=" ">
<path fill="none" stroke="#63b8ff" d="M670.3,-199.74C691.1,-210.96 725.92,-228.96 757.25,-241.43 766.47,-245.1 776.49,-248.57 786.17,-251.67"/>
<polygon fill="#63b8ff" stroke="#63b8ff" points="784.85,-254.93 795.44,-254.56 786.93,-248.24 784.85,-254.93"/>
</a>
</g>
</g>
<!-- Node34 -->
<g id="Node000034" class="node">
<title>Node34</title>
<g id="a_Node000034"><a xlink:href="namespaceLGE_1_1Migration.html#a94f0cb325681d49b25e29f0bd2801422" target="_top" xlink:title=" ">
<polygon fill="white" stroke="#666666" points="914.25,-123.43 757.25,-123.43 757.25,-103.43 914.25,-103.43 914.25,-123.43"/>
<text xml:space="preserve" text-anchor="middle" x="835.75" y="-109.93" font-family="Helvetica,sans-Serif" font-size="10.00">LGE::Migration::MigrateManifest</text>
</a>
</g>
</g>
<!-- Node33&#45;&gt;Node34 -->
<g id="edge53_Node000033_Node000034" class="edge">
<title>Node33&#45;&gt;Node34</title>
<g id="a_edge53_Node000033_Node000034"><a xlink:title=" ">
<path fill="none" stroke="#63b8ff" d="M670.3,-179.12C691.1,-167.9 725.92,-149.91 757.25,-137.43 766.47,-133.76 776.49,-130.29 786.17,-127.19"/>
<polygon fill="#63b8ff" stroke="#63b8ff" points="786.93,-130.62 795.44,-124.31 784.85,-123.93 786.93,-130.62"/>
</a>
</g>
</g>
<!-- Node36 -->
<g id="Node000036" class="node">
<title>Node36</title>
<g id="a_Node000036"><a xlink:href="namespaceLGE_1_1Migration.html#ad2e0aa4e3fa0c4300ecf31c7f53a5d29" target="_top" xlink:title=" ">
<polygon fill="white" stroke="#666666" points="1103.5,-87.43 950.25,-87.43 950.25,-55.43 1103.5,-55.43 1103.5,-87.43"/>
<text xml:space="preserve" text-anchor="start" x="958.25" y="-73.93" font-family="Helvetica,sans-Serif" font-size="10.00">LGE::Migration::NeedsManifest</text>
<text xml:space="preserve" text-anchor="middle" x="1026.88" y="-61.93" font-family="Helvetica,sans-Serif" font-size="10.00">Migration</text>
</a>
</g>
</g>
<!-- Node33&#45;&gt;Node36 -->
<g id="edge57_Node000033_Node000036" class="edge">
<title>Node33&#45;&gt;Node36</title>
<g id="a_edge57_Node000033_Node000036"><a xlink:title=" ">
<path fill="none" stroke="#63b8ff" d="M659.24,-179.08C674.93,-158.66 713.12,-113.55 757.25,-94.43 814.19,-69.76 884.19,-64.47 938.46,-65.11"/>
<polygon fill="#63b8ff" stroke="#63b8ff" points="938.21,-68.6 948.28,-65.3 938.35,-61.6 938.21,-68.6"/>
</a>
</g>
</g>
<!-- Node33&#45;&gt;Node37 -->
<g id="edge58_Node000033_Node000037" class="edge">
<title>Node33&#45;&gt;Node37</title>
<g id="a_edge58_Node000033_Node000037"><a xlink:title=" ">
<path fill="none" stroke="#63b8ff" d="M715.67,-189.43C729.59,-189.43 744.44,-189.43 758.77,-189.43"/>
<polygon fill="#63b8ff" stroke="#63b8ff" points="758.61,-192.93 768.6,-189.43 758.6,-185.93 758.61,-192.93"/>
</a>
</g>
</g>
<!-- Node34&#45;&gt;Node4 -->
<g id="edge55_Node000034_Node000004" class="edge">
<title>Node34&#45;&gt;Node4</title>
<g id="a_edge55_Node000034_Node000004"><a xlink:title=" ">
<path fill="none" stroke="#63b8ff" d="M859.39,-123.76C877.38,-133.23 901.55,-149.03 914.25,-170.43 975.13,-273.02 908.21,-324.78 950.25,-436.43 964.04,-473.05 991.41,-509.76 1009.16,-531.27"/>
<polygon fill="#63b8ff" stroke="#63b8ff" points="1006.45,-533.49 1015.58,-538.87 1011.8,-528.97 1006.45,-533.49"/>
</a>
</g>
</g>
<!-- Node35 -->
<g id="Node000035" class="node">
<title>Node35</title>
<g id="a_Node000035"><a xlink:href="namespaceLGE_1_1MetaDB.html#aa5218c5875c7c064fac11782f4ca1783" target="_top" xlink:title=" ">
<polygon fill="white" stroke="#666666" points="1101.25,-125.43 952.5,-125.43 952.5,-105.43 1101.25,-105.43 1101.25,-125.43"/>
<text xml:space="preserve" text-anchor="middle" x="1026.88" y="-111.93" font-family="Helvetica,sans-Serif" font-size="10.00">LGE::MetaDB::GenerateGUID</text>
</a>
</g>
</g>
<!-- Node34&#45;&gt;Node35 -->
<g id="edge54_Node000034_Node000035" class="edge">
<title>Node34&#45;&gt;Node35</title>
<g id="a_edge54_Node000034_Node000035"><a xlink:title=" ">
<path fill="none" stroke="#63b8ff" d="M914.49,-114.25C923.14,-114.34 931.97,-114.44 940.7,-114.53"/>
<polygon fill="#63b8ff" stroke="#63b8ff" points="940.54,-118.03 950.57,-114.63 940.61,-111.03 940.54,-118.03"/>
</a>
</g>
</g>
<!-- Node34&#45;&gt;Node36 -->
<g id="edge56_Node000034_Node000036" class="edge">
<title>Node34&#45;&gt;Node36</title>
<g id="a_edge56_Node000034_Node000036"><a xlink:title=" ">
<path fill="none" stroke="#63b8ff" d="M883.99,-102.94C901.17,-99.12 921.16,-94.68 940.62,-90.36"/>
<polygon fill="#63b8ff" stroke="#63b8ff" points="941.19,-93.82 950.2,-88.24 939.68,-86.99 941.19,-93.82"/>
</a>
</g>
</g>
<!-- Node37&#45;&gt;Node4 -->
<g id="edge60_Node000037_Node000004" class="edge">
<title>Node37&#45;&gt;Node4</title>
<g id="a_edge60_Node000037_Node000004"><a xlink:title=" ">
<path fill="none" stroke="#63b8ff" d="M895.66,-199.77C902.69,-203.14 909.17,-207.58 914.25,-213.43 980.09,-289.22 913.68,-342.94 950.25,-436.43 964.51,-472.87 991.74,-509.63 1009.34,-531.2"/>
<polygon fill="#63b8ff" stroke="#63b8ff" points="1006.6,-533.38 1015.7,-538.82 1011.98,-528.9 1006.6,-533.38"/>
</a>
</g>
</g>
<!-- Node37&#45;&gt;Node18 -->
<g id="edge59_Node000037_Node000018" class="edge">
<title>Node37&#45;&gt;Node18</title>
<g id="a_edge59_Node000037_Node000018"><a xlink:title=" ">
<path fill="none" stroke="#63b8ff" d="M871.15,-199.88C884.61,-204.02 900.18,-208.88 914.25,-213.43 994.51,-239.41 1087.8,-271.33 1139.95,-289.33"/>
<polygon fill="#63b8ff" stroke="#63b8ff" points="1138.72,-292.61 1149.32,-292.56 1141.01,-285.99 1138.72,-292.61"/>
</a>
</g>
</g>
</g>
</svg>
