<?xml version="1.0" encoding="UTF-8" standalone="no"?>
<!DOCTYPE svg PUBLIC "-//W3C//DTD SVG 1.1//EN"
 "http://www.w3.org/Graphics/SVG/1.1/DTD/svg11.dtd">
<!-- Generated by graphviz version 14.0.2 (20251019.1705)
 -->
<!-- Title: TEST Pages: 1 -->
<svg width="822pt" height="166pt"
 viewBox="0.00 0.00 822.00 166.00" xmlns="http://www.w3.org/2000/svg" xmlns:xlink="http://www.w3.org/1999/xlink">
<g id="graph0" class="graph" transform="scale(1 1) rotate(0) translate(4 162)">
<title>TEST</title>
<!-- Node1 -->
<g id="Node000001" class="node">
<title>Node1</title>
<g id="a_Node000001"><a xlink:title=" ">
<polygon fill="#999999" stroke="#666666" points="41.5,-92 0,-92 0,-72 41.5,-72 41.5,-92"/>
<text xml:space="preserve" text-anchor="middle" x="20.75" y="-78.5" font-family="Helvetica,sans-Serif" font-size="10.00">TEST</text>
</a>
</g>
</g>
<!-- Node2 -->
<g id="Node000002" class="node">
<title>Node2</title>
<g id="a_Node000002"><a xlink:href="namespaceLGE_1_1LxFile.html#a7a3f0b3462a34877039001eb0aaac788" target="_top" xlink:title=" ">
<polygon fill="white" stroke="#666666" points="220.25,-158 77.5,-158 77.5,-138 220.25,-138 220.25,-158"/>
<text xml:space="preserve" text-anchor="middle" x="148.88" y="-144.5" font-family="Helvetica,sans-Serif" font-size="10.00">LGE::LxFile::CreateDirectory</text>
</a>
</g>
</g>
<!-- Node1&#45;&gt;Node2 -->
<g id="edge1_Node000001_Node000002" class="edge">
<title>Node1&#45;&gt;Node2</title>
<g id="a_edge1_Node000001_Node000002"><a xlink:title=" ">
<path fill="none" stroke="#63b8ff" d="M31.05,-92.12C41.4,-102.79 59.1,-119.37 77.5,-129 80.75,-130.7 84.17,-132.26 87.68,-133.69"/>
<polygon fill="#63b8ff" stroke="#63b8ff" points="86.36,-136.93 96.95,-137.07 88.75,-130.36 86.36,-136.93"/>
</a>
</g>
</g>
<!-- Node7 -->
<g id="Node000007" class="node">
<title>Node7</title>
<g id="a_Node000007"><a xlink:href="classLGE_1_1Testing_1_1TestUtils.html#a345e283ebede23eaacd1d9c9a1a8fb0d" target="_top" xlink:title=" ">
<polygon fill="white" stroke="#666666" points="207.88,-120 89.88,-120 89.88,-88 207.88,-88 207.88,-120"/>
<text xml:space="preserve" text-anchor="start" x="97.88" y="-106.5" font-family="Helvetica,sans-Serif" font-size="10.00">LGE::Testing::TestUtils</text>
<text xml:space="preserve" text-anchor="middle" x="148.88" y="-94.5" font-family="Helvetica,sans-Serif" font-size="10.00">::GetTempDir</text>
</a>
</g>
</g>
<!-- Node1&#45;&gt;Node7 -->
<g id="edge8_Node000001_Node000007" class="edge">
<title>Node1&#45;&gt;Node7</title>
<g id="a_edge8_Node000001_Node000007"><a xlink:title=" ">
<path fill="none" stroke="#63b8ff" d="M41.73,-85.49C51.88,-87.26 64.88,-89.52 78.28,-91.86"/>
<polygon fill="#63b8ff" stroke="#63b8ff" points="77.63,-95.3 88.08,-93.57 78.83,-88.4 77.63,-95.3"/>
</a>
</g>
</g>
<!-- Node8 -->
<g id="Node000008" class="node">
<title>Node8</title>
<g id="a_Node000008"><a xlink:href="namespaceLGE_1_1LxFile.html#aefeac425ba46d16739c0873b3740191c" target="_top" xlink:title=" ">
<polygon fill="white" stroke="#666666" points="209.75,-70 88,-70 88,-50 209.75,-50 209.75,-70"/>
<text xml:space="preserve" text-anchor="middle" x="148.88" y="-56.5" font-family="Helvetica,sans-Serif" font-size="10.00">LGE::LxFile::IsDirectory</text>
</a>
</g>
</g>
<!-- Node1&#45;&gt;Node8 -->
<g id="edge9_Node000001_Node000008" class="edge">
<title>Node1&#45;&gt;Node8</title>
<g id="a_edge9_Node000001_Node000008"><a xlink:title=" ">
<path fill="none" stroke="#63b8ff" d="M41.73,-78.51C51.46,-76.82 63.8,-74.67 76.6,-72.43"/>
<polygon fill="#63b8ff" stroke="#63b8ff" points="77.17,-75.89 86.42,-70.72 75.97,-68.99 77.17,-75.89"/>
</a>
</g>
</g>
<!-- Node9 -->
<g id="Node000009" class="node">
<title>Node9</title>
<g id="a_Node000009"><a xlink:href="classLGE_1_1Testing_1_1TestUtils.html#a440e289c0fd9269ce9a79ab8e77e700f" target="_top" xlink:title=" ">
<polygon fill="white" stroke="#666666" points="207.88,-32 89.88,-32 89.88,0 207.88,0 207.88,-32"/>
<text xml:space="preserve" text-anchor="start" x="97.88" y="-18.5" font-family="Helvetica,sans-Serif" font-size="10.00">LGE::Testing::TestUtils</text>
<text xml:space="preserve" text-anchor="middle" x="148.88" y="-6.5" font-family="Helvetica,sans-Serif" font-size="10.00">::RemovePath</text>
</a>
</g>
</g>
<!-- Node1&#45;&gt;Node9 -->
<g id="edge10_Node000001_Node000009" class="edge">
<title>Node1&#45;&gt;Node9</title>
<g id="a_edge10_Node000001_Node000009"><a xlink:title=" ">
<path fill="none" stroke="#63b8ff" d="M33.46,-71.79C44.3,-62.75 61.16,-49.67 77.5,-41 80.15,-39.6 82.89,-38.24 85.69,-36.94"/>
<polygon fill="#63b8ff" stroke="#63b8ff" points="86.84,-40.26 94.62,-33.06 84.05,-33.84 86.84,-40.26"/>
</a>
</g>
</g>
<!-- Node3 -->
<g id="Node000003" class="node">
<title>Node3</title>
<g id="a_Node000003"><a xlink:href="classLGE_1_1Log.html#a53f3f4b8797ffd18145739c9e66d690a" target="_top" xlink:title=" ">
<polygon fill="white" stroke="#666666" points="813.75,-158 729.5,-158 729.5,-138 813.75,-138 813.75,-158"/>
<text xml:space="preserve" text-anchor="middle" x="771.62" y="-144.5" font-family="Helvetica,sans-Serif" font-size="10.00">LGE::Log::Error</text>
</a>
</g>
</g>
<!-- Node2&#45;&gt;Node3 -->
<g id="edge2_Node000002_Node000003" class="edge">
<title>Node2&#45;&gt;Node3</title>
<g id="a_edge2_Node000002_Node000003"><a xlink:title=" ">
<path fill="none" stroke="#63b8ff" d="M220.48,-148C346.31,-148 606.58,-148 718.07,-148"/>
<polygon fill="#63b8ff" stroke="#63b8ff" points="717.82,-151.5 727.82,-148 717.82,-144.5 717.82,-151.5"/>
</a>
</g>
</g>
<!-- Node4 -->
<g id="Node000004" class="node">
<title>Node4</title>
<g id="a_Node000004"><a xlink:href="namespaceLGE_1_1VFS.html#abb5d35abfe80efe2f7a07394ad5b706a" target="_top" xlink:title=" ">
<polygon fill="white" stroke="#666666" points="375,-139 256.25,-139 256.25,-119 375,-119 375,-139"/>
<text xml:space="preserve" text-anchor="middle" x="315.62" y="-125.5" font-family="Helvetica,sans-Serif" font-size="10.00">LGE::VFS::IsReadOnly</text>
</a>
</g>
</g>
<!-- Node2&#45;&gt;Node4 -->
<g id="edge3_Node000002_Node000004" class="edge">
<title>Node2&#45;&gt;Node4</title>
<g id="a_edge3_Node000002_Node000004"><a xlink:title=" ">
<path fill="none" stroke="#63b8ff" d="M220.7,-139.83C228.61,-138.92 236.67,-137.99 244.57,-137.08"/>
<polygon fill="#63b8ff" stroke="#63b8ff" points="244.96,-140.56 254.49,-135.93 244.16,-133.6 244.96,-140.56"/>
</a>
</g>
</g>
<!-- Node5 -->
<g id="Node000005" class="node">
<title>Node5</title>
<g id="a_Node000005"><a xlink:href="namespaceLGE_1_1LxPath.html#ab664986e94ce09aa029f9eb2fcf50133" target="_top" xlink:title=" ">
<polygon fill="white" stroke="#666666" points="535,-139 411,-139 411,-119 535,-119 535,-139"/>
<text xml:space="preserve" text-anchor="middle" x="473" y="-125.5" font-family="Helvetica,sans-Serif" font-size="10.00">LGE::LxPath::IsSubPath</text>
</a>
</g>
</g>
<!-- Node4&#45;&gt;Node5 -->
<g id="edge4_Node000004_Node000005" class="edge">
<title>Node4&#45;&gt;Node5</title>
<g id="a_edge4_Node000004_Node000005"><a xlink:title=" ">
<path fill="none" stroke="#63b8ff" d="M375.37,-129C383.19,-129 391.29,-129 399.32,-129"/>
<polygon fill="#63b8ff" stroke="#63b8ff" points="399.07,-132.5 409.07,-129 399.07,-125.5 399.07,-132.5"/>
</a>
</g>
</g>
<!-- Node6 -->
<g id="Node000006" class="node">
<title>Node6</title>
<g id="a_Node000006"><a xlink:href="namespaceLGE_1_1LxPath.html#a314a60ce690c90f4ee0b4e64c0199408" target="_top" xlink:title=" ">
<polygon fill="white" stroke="#666666" points="693.5,-139 571,-139 571,-119 693.5,-119 693.5,-139"/>
<text xml:space="preserve" text-anchor="middle" x="632.25" y="-125.5" font-family="Helvetica,sans-Serif" font-size="10.00">LGE::LxPath::Normalize</text>
</a>
</g>
</g>
<!-- Node4&#45;&gt;Node6 -->
<g id="edge7_Node000004_Node000006" class="edge">
<title>Node4&#45;&gt;Node6</title>
<g id="a_edge7_Node000004_Node000006"><a xlink:title=" ">
<path fill="none" stroke="#63b8ff" d="M359.11,-118.58C375.25,-115.12 393.87,-111.71 411,-110 465.84,-104.53 480.15,-104.64 535,-110 548.64,-111.33 563.22,-113.71 576.79,-116.33"/>
<polygon fill="#63b8ff" stroke="#63b8ff" points="575.94,-119.73 586.43,-118.28 577.32,-112.87 575.94,-119.73"/>
</a>
</g>
</g>
<!-- Node5&#45;&gt;Node6 -->
<g id="edge5_Node000005_Node000006" class="edge">
<title>Node5&#45;&gt;Node6</title>
<g id="a_edge5_Node000005_Node000006"><a xlink:title=" ">
<path fill="none" stroke="#63b8ff" d="M535.25,-129C543.16,-129 551.32,-129 559.38,-129"/>
<polygon fill="#63b8ff" stroke="#63b8ff" points="559.17,-132.5 569.17,-129 559.17,-125.5 559.17,-132.5"/>
</a>
</g>
</g>
<!-- Node6&#45;&gt;Node3 -->
<g id="edge6_Node000006_Node000003" class="edge">
<title>Node6&#45;&gt;Node3</title>
<g id="a_edge6_Node000006_Node000003"><a xlink:title=" ">
<path fill="none" stroke="#63b8ff" d="M693.9,-137.39C701.92,-138.5 710.09,-139.63 717.95,-140.72"/>
<polygon fill="#63b8ff" stroke="#63b8ff" points="717.33,-144.16 727.72,-142.07 718.29,-137.23 717.33,-144.16"/>
</a>
</g>
</g>
</g>
</svg>
