<?xml version="1.0" encoding="UTF-8" standalone="no"?>
<!DOCTYPE svg PUBLIC "-//W3C//DTD SVG 1.1//EN"
 "http://www.w3.org/Graphics/SVG/1.1/DTD/svg11.dtd">
<!-- Generated by graphviz version 14.0.2 (20251019.1705)
 -->
<!-- Title: TEST Pages: 1 -->
<svg width="804pt" height="257pt"
 viewBox="0.00 0.00 804.00 257.00" xmlns="http://www.w3.org/2000/svg" xmlns:xlink="http://www.w3.org/1999/xlink">
<g id="graph0" class="graph" transform="scale(1 1) rotate(0) translate(4 252.87)">
<title>TEST</title>
<!-- Node1 -->
<g id="Node000001" class="node">
<title>Node1</title>
<g id="a_Node000001"><a xlink:title=" ">
<polygon fill="#999999" stroke="#666666" points="41.5,-141.87 0,-141.87 0,-121.87 41.5,-121.87 41.5,-141.87"/>
<text xml:space="preserve" text-anchor="middle" x="20.75" y="-128.37" font-family="Helvetica,sans-Serif" font-size="10.00">TEST</text>
</a>
</g>
</g>
<!-- Node2 -->
<g id="Node000002" class="node">
<title>Node2</title>
<g id="a_Node000002"><a xlink:href="namespaceLGE_1_1LxFile.html#a11e62876b312a11b881b484bb3a5ee71" target="_top" xlink:title=" ">
<polygon fill="white" stroke="#666666" points="187.25,-248.87 85.75,-248.87 85.75,-228.87 187.25,-228.87 187.25,-248.87"/>
<text xml:space="preserve" text-anchor="middle" x="136.5" y="-235.37" font-family="Helvetica,sans-Serif" font-size="10.00">LGE::LxFile::Exists</text>
</a>
</g>
</g>
<!-- Node1&#45;&gt;Node2 -->
<g id="edge1_Node000001_Node000002" class="edge">
<title>Node1&#45;&gt;Node2</title>
<g id="a_edge1_Node000001_Node000002"><a xlink:title=" ">
<path fill="none" stroke="#63b8ff" d="M25.55,-142.19C32.81,-160.51 50.38,-198.77 77.5,-219.87 79.02,-221.06 80.62,-222.17 82.28,-223.21"/>
<polygon fill="#63b8ff" stroke="#63b8ff" points="80.47,-226.22 90.95,-227.78 83.73,-220.02 80.47,-226.22"/>
</a>
</g>
</g>
<!-- Node3 -->
<g id="Node000003" class="node">
<title>Node3</title>
<g id="a_Node000003"><a xlink:href="classLGE_1_1Testing_1_1TestUtils.html#a345e283ebede23eaacd1d9c9a1a8fb0d" target="_top" xlink:title=" ">
<polygon fill="white" stroke="#666666" points="195.5,-210.87 77.5,-210.87 77.5,-178.87 195.5,-178.87 195.5,-210.87"/>
<text xml:space="preserve" text-anchor="start" x="85.5" y="-197.37" font-family="Helvetica,sans-Serif" font-size="10.00">LGE::Testing::TestUtils</text>
<text xml:space="preserve" text-anchor="middle" x="136.5" y="-185.37" font-family="Helvetica,sans-Serif" font-size="10.00">::GetTempDir</text>
</a>
</g>
</g>
<!-- Node1&#45;&gt;Node3 -->
<g id="edge2_Node000001_Node000003" class="edge">
<title>Node1&#45;&gt;Node3</title>
<g id="a_edge2_Node000001_Node000003"><a xlink:title=" ">
<path fill="none" stroke="#63b8ff" d="M35.48,-142.33C46.49,-150.43 62.51,-161.63 77.5,-169.87 79.81,-171.14 82.2,-172.39 84.63,-173.62"/>
<polygon fill="#63b8ff" stroke="#63b8ff" points="82.88,-176.66 93.41,-177.84 85.91,-170.35 82.88,-176.66"/>
</a>
</g>
</g>
<!-- Node4 -->
<g id="Node000004" class="node">
<title>Node4</title>
<g id="a_Node000004"><a xlink:href="namespaceLGE_1_1LxFile.html#a3f0ccc958d65ff868a0929079cb2686b" target="_top" xlink:title=" ">
<polygon fill="white" stroke="#666666" points="185.38,-160.87 87.62,-160.87 87.62,-140.87 185.38,-140.87 185.38,-160.87"/>
<text xml:space="preserve" text-anchor="middle" x="136.5" y="-147.37" font-family="Helvetica,sans-Serif" font-size="10.00">LGE::LxFile::Move</text>
</a>
</g>
</g>
<!-- Node1&#45;&gt;Node4 -->
<g id="edge3_Node000001_Node000004" class="edge">
<title>Node1&#45;&gt;Node4</title>
<g id="a_edge3_Node000001_Node000004"><a xlink:title=" ">
<path fill="none" stroke="#63b8ff" d="M41.82,-135.22C51.49,-136.84 63.65,-138.87 75.97,-140.93"/>
<polygon fill="#63b8ff" stroke="#63b8ff" points="75.33,-144.37 85.77,-142.56 76.49,-137.46 75.33,-144.37"/>
</a>
</g>
</g>
<!-- Node10 -->
<g id="Node000010" class="node">
<title>Node10</title>
<g id="a_Node000010"><a xlink:href="namespaceLGE_1_1LxFile.html#ac0a61f0e1f49fdcf553f007750c1ba37" target="_top" xlink:title=" ">
<polygon fill="white" stroke="#666666" points="509.12,-34.87 400.88,-34.87 400.88,-14.87 509.12,-14.87 509.12,-34.87"/>
<text xml:space="preserve" text-anchor="middle" x="455" y="-21.37" font-family="Helvetica,sans-Serif" font-size="10.00">LGE::LxFile::ReadAll</text>
</a>
</g>
</g>
<!-- Node1&#45;&gt;Node10 -->
<g id="edge13_Node000001_Node000010" class="edge">
<title>Node1&#45;&gt;Node10</title>
<g id="a_edge13_Node000001_Node000010"><a xlink:title=" ">
<path fill="none" stroke="#63b8ff" d="M24.84,-121.4C31.15,-102.12 47.51,-61.37 77.5,-43.87 177.31,14.37 318.54,1.31 396.58,-12.4"/>
<polygon fill="#63b8ff" stroke="#63b8ff" points="395.66,-15.79 406.13,-14.15 396.92,-8.9 395.66,-15.79"/>
</a>
</g>
</g>
<!-- Node11 -->
<g id="Node000011" class="node">
<title>Node11</title>
<g id="a_Node000011"><a xlink:href="classLGE_1_1Testing_1_1TestUtils.html#a440e289c0fd9269ce9a79ab8e77e700f" target="_top" xlink:title=" ">
<polygon fill="white" stroke="#666666" points="195.5,-84.87 77.5,-84.87 77.5,-52.87 195.5,-52.87 195.5,-84.87"/>
<text xml:space="preserve" text-anchor="start" x="85.5" y="-71.37" font-family="Helvetica,sans-Serif" font-size="10.00">LGE::Testing::TestUtils</text>
<text xml:space="preserve" text-anchor="middle" x="136.5" y="-59.37" font-family="Helvetica,sans-Serif" font-size="10.00">::RemovePath</text>
</a>
</g>
</g>
<!-- Node1&#45;&gt;Node11 -->
<g id="edge15_Node000001_Node000011" class="edge">
<title>Node1&#45;&gt;Node11</title>
<g id="a_edge15_Node000001_Node000011"><a xlink:title=" ">
<path fill="none" stroke="#63b8ff" d="M35.48,-121.41C46.49,-113.31 62.51,-102.11 77.5,-93.87 79.81,-92.6 82.2,-91.35 84.63,-90.12"/>
<polygon fill="#63b8ff" stroke="#63b8ff" points="85.91,-93.39 93.41,-85.9 82.88,-87.08 85.91,-93.39"/>
</a>
</g>
</g>
<!-- Node12 -->
<g id="Node000012" class="node">
<title>Node12</title>
<g id="a_Node000012"><a xlink:href="namespaceLGE_1_1LxFile.html#a06d0b8c5590da8bc48cf22d321fc4074" target="_top" xlink:title=" ">
<polygon fill="white" stroke="#666666" points="190.25,-122.87 82.75,-122.87 82.75,-102.87 190.25,-102.87 190.25,-122.87"/>
<text xml:space="preserve" text-anchor="middle" x="136.5" y="-109.37" font-family="Helvetica,sans-Serif" font-size="10.00">LGE::LxFile::WriteAll</text>
</a>
</g>
</g>
<!-- Node1&#45;&gt;Node12 -->
<g id="edge16_Node000001_Node000012" class="edge">
<title>Node1&#45;&gt;Node12</title>
<g id="a_edge16_Node000001_Node000012"><a xlink:title=" ">
<path fill="none" stroke="#63b8ff" d="M41.82,-128.52C50.25,-127.11 60.56,-125.39 71.23,-123.6"/>
<polygon fill="#63b8ff" stroke="#63b8ff" points="71.63,-127.09 80.92,-121.99 70.48,-120.18 71.63,-127.09"/>
</a>
</g>
</g>
<!-- Node5 -->
<g id="Node000005" class="node">
<title>Node5</title>
<g id="a_Node000005"><a xlink:href="classLGE_1_1Log.html#a53f3f4b8797ffd18145739c9e66d690a" target="_top" xlink:title=" ">
<polygon fill="white" stroke="#666666" points="795.75,-110.87 711.5,-110.87 711.5,-90.87 795.75,-90.87 795.75,-110.87"/>
<text xml:space="preserve" text-anchor="middle" x="753.62" y="-97.37" font-family="Helvetica,sans-Serif" font-size="10.00">LGE::Log::Error</text>
</a>
</g>
</g>
<!-- Node4&#45;&gt;Node5 -->
<g id="edge4_Node000004_Node000005" class="edge">
<title>Node4&#45;&gt;Node5</title>
<g id="a_edge4_Node000004_Node000005"><a xlink:title=" ">
<path fill="none" stroke="#63b8ff" d="M181.25,-161.31C197,-164.64 214.96,-167.96 231.5,-169.87 357.57,-184.46 390.88,-189.01 517,-174.87 588.79,-166.82 607.41,-163 675.5,-138.87 692.37,-132.89 710.35,-124.18 724.71,-116.6"/>
<polygon fill="#63b8ff" stroke="#63b8ff" points="725.99,-119.89 733.12,-112.06 722.66,-113.73 725.99,-119.89"/>
</a>
</g>
</g>
<!-- Node6 -->
<g id="Node000006" class="node">
<title>Node6</title>
<g id="a_Node000006"><a xlink:href="namespaceLGE_1_1VFS.html#abb5d35abfe80efe2f7a07394ad5b706a" target="_top" xlink:title=" ">
<polygon fill="white" stroke="#666666" points="353.62,-122.87 234.88,-122.87 234.88,-102.87 353.62,-102.87 353.62,-122.87"/>
<text xml:space="preserve" text-anchor="middle" x="294.25" y="-109.37" font-family="Helvetica,sans-Serif" font-size="10.00">LGE::VFS::IsReadOnly</text>
</a>
</g>
</g>
<!-- Node4&#45;&gt;Node6 -->
<g id="edge5_Node000004_Node000006" class="edge">
<title>Node4&#45;&gt;Node6</title>
<g id="a_edge5_Node000004_Node000006"><a xlink:title=" ">
<path fill="none" stroke="#63b8ff" d="M180.47,-140.39C198.69,-135.94 220.11,-130.71 239.37,-126.02"/>
<polygon fill="#63b8ff" stroke="#63b8ff" points="240.06,-129.45 248.95,-123.68 238.4,-122.65 240.06,-129.45"/>
</a>
</g>
</g>
<!-- Node9 -->
<g id="Node000009" class="node">
<title>Node9</title>
<g id="a_Node000009"><a xlink:href="namespaceLGE_1_1VFS.html#aee891612cc393155878775a61e486c0b" target="_top" xlink:title=" ">
<polygon fill="white" stroke="#666666" points="357,-160.87 231.5,-160.87 231.5,-140.87 357,-140.87 357,-160.87"/>
<text xml:space="preserve" text-anchor="middle" x="294.25" y="-147.37" font-family="Helvetica,sans-Serif" font-size="10.00">LGE::VFS::ToVirtualPath</text>
</a>
</g>
</g>
<!-- Node4&#45;&gt;Node9 -->
<g id="edge10_Node000004_Node000009" class="edge">
<title>Node4&#45;&gt;Node9</title>
<g id="a_edge10_Node000004_Node000009"><a xlink:title=" ">
<path fill="none" stroke="#63b8ff" d="M185.5,-150.87C196.29,-150.87 207.99,-150.87 219.56,-150.87"/>
<polygon fill="#63b8ff" stroke="#63b8ff" points="219.54,-154.37 229.54,-150.87 219.54,-147.37 219.54,-154.37"/>
</a>
</g>
</g>
<!-- Node7 -->
<g id="Node000007" class="node">
<title>Node7</title>
<g id="a_Node000007"><a xlink:href="namespaceLGE_1_1LxPath.html#ab664986e94ce09aa029f9eb2fcf50133" target="_top" xlink:title=" ">
<polygon fill="white" stroke="#666666" points="517,-148.87 393,-148.87 393,-128.87 517,-128.87 517,-148.87"/>
<text xml:space="preserve" text-anchor="middle" x="455" y="-135.37" font-family="Helvetica,sans-Serif" font-size="10.00">LGE::LxPath::IsSubPath</text>
</a>
</g>
</g>
<!-- Node6&#45;&gt;Node7 -->
<g id="edge6_Node000006_Node000007" class="edge">
<title>Node6&#45;&gt;Node7</title>
<g id="a_edge6_Node000006_Node000007"><a xlink:title=" ">
<path fill="none" stroke="#63b8ff" d="M353.91,-122.48C362.89,-123.95 372.25,-125.48 381.49,-126.99"/>
<polygon fill="#63b8ff" stroke="#63b8ff" points="380.73,-130.42 391.16,-128.58 381.86,-123.51 380.73,-130.42"/>
</a>
</g>
</g>
<!-- Node8 -->
<g id="Node000008" class="node">
<title>Node8</title>
<g id="a_Node000008"><a xlink:href="namespaceLGE_1_1LxPath.html#a314a60ce690c90f4ee0b4e64c0199408" target="_top" xlink:title=" ">
<polygon fill="white" stroke="#666666" points="675.5,-129.87 553,-129.87 553,-109.87 675.5,-109.87 675.5,-129.87"/>
<text xml:space="preserve" text-anchor="middle" x="614.25" y="-116.37" font-family="Helvetica,sans-Serif" font-size="10.00">LGE::LxPath::Normalize</text>
</a>
</g>
</g>
<!-- Node6&#45;&gt;Node8 -->
<g id="edge9_Node000006_Node000008" class="edge">
<title>Node6&#45;&gt;Node8</title>
<g id="a_edge9_Node000006_Node000008"><a xlink:title=" ">
<path fill="none" stroke="#63b8ff" d="M353.95,-114.16C406.83,-115.33 484.74,-117.04 541.35,-118.29"/>
<polygon fill="#63b8ff" stroke="#63b8ff" points="541.14,-121.78 551.22,-118.5 541.3,-114.79 541.14,-121.78"/>
</a>
</g>
</g>
<!-- Node7&#45;&gt;Node8 -->
<g id="edge7_Node000007_Node000008" class="edge">
<title>Node7&#45;&gt;Node8</title>
<g id="a_edge7_Node000007_Node000008"><a xlink:title=" ">
<path fill="none" stroke="#63b8ff" d="M517.25,-131.47C525.16,-130.51 533.32,-129.53 541.38,-128.55"/>
<polygon fill="#63b8ff" stroke="#63b8ff" points="541.68,-132.04 551.18,-127.37 540.84,-125.09 541.68,-132.04"/>
</a>
</g>
</g>
<!-- Node8&#45;&gt;Node5 -->
<g id="edge8_Node000008_Node000005" class="edge">
<title>Node8&#45;&gt;Node5</title>
<g id="a_edge8_Node000008_Node000005"><a xlink:title=" ">
<path fill="none" stroke="#63b8ff" d="M675.9,-111.48C683.92,-110.37 692.09,-109.24 699.95,-108.16"/>
<polygon fill="#63b8ff" stroke="#63b8ff" points="700.29,-111.64 709.72,-106.8 699.33,-104.71 700.29,-111.64"/>
</a>
</g>
</g>
<!-- Node9&#45;&gt;Node7 -->
<g id="edge11_Node000009_Node000007" class="edge">
<title>Node9&#45;&gt;Node7</title>
<g id="a_edge11_Node000009_Node000007"><a xlink:title=" ">
<path fill="none" stroke="#63b8ff" d="M357.08,-146.2C365.01,-145.6 373.19,-144.98 381.27,-144.37"/>
<polygon fill="#63b8ff" stroke="#63b8ff" points="381.38,-147.87 391.09,-143.63 380.85,-140.89 381.38,-147.87"/>
</a>
</g>
</g>
<!-- Node9&#45;&gt;Node8 -->
<g id="edge12_Node000009_Node000008" class="edge">
<title>Node9&#45;&gt;Node8</title>
<g id="a_edge12_Node000009_Node000008"><a xlink:title=" ">
<path fill="none" stroke="#63b8ff" d="M357.47,-160.04C402.23,-164.89 463.84,-167.98 517,-157.87 540.01,-153.49 564.56,-143.71 583.1,-135.17"/>
<polygon fill="#63b8ff" stroke="#63b8ff" points="584.37,-138.44 591.9,-130.99 581.37,-132.12 584.37,-138.44"/>
</a>
</g>
</g>
<!-- Node10&#45;&gt;Node5 -->
<g id="edge14_Node000010_Node000005" class="edge">
<title>Node10&#45;&gt;Node5</title>
<g id="a_edge14_Node000010_Node000005"><a xlink:title=" ">
<path fill="none" stroke="#63b8ff" d="M509.51,-23.63C554.99,-24.22 621.33,-29.03 675.5,-48.87 696.65,-56.61 717.64,-71.35 732.37,-83.17"/>
<polygon fill="#63b8ff" stroke="#63b8ff" points="730,-85.74 739.92,-89.44 734.47,-80.36 730,-85.74"/>
</a>
</g>
</g>
<!-- Node12&#45;&gt;Node5 -->
<g id="edge17_Node000012_Node000005" class="edge">
<title>Node12&#45;&gt;Node5</title>
<g id="a_edge17_Node000012_Node000005"><a xlink:title=" ">
<path fill="none" stroke="#63b8ff" d="M179.81,-102.45C195.89,-98.99 214.44,-95.58 231.5,-93.87 402.19,-76.79 605.88,-88.85 700.08,-96.25"/>
<polygon fill="#63b8ff" stroke="#63b8ff" points="699.52,-99.72 709.77,-97.03 700.08,-92.74 699.52,-99.72"/>
</a>
</g>
</g>
<!-- Node12&#45;&gt;Node6 -->
<g id="edge18_Node000012_Node000006" class="edge">
<title>Node12&#45;&gt;Node6</title>
<g id="a_edge18_Node000012_Node000006"><a xlink:title=" ">
<path fill="none" stroke="#63b8ff" d="M190.66,-112.87C201.13,-112.87 212.26,-112.87 223.18,-112.87"/>
<polygon fill="#63b8ff" stroke="#63b8ff" points="222.94,-116.37 232.94,-112.87 222.94,-109.37 222.94,-116.37"/>
</a>
</g>
</g>
</g>
</svg>
