<?xml version="1.0" encoding="UTF-8" standalone="no"?>
<!DOCTYPE svg PUBLIC "-//W3C//DTD SVG 1.1//EN"
 "http://www.w3.org/Graphics/SVG/1.1/DTD/svg11.dtd">
<!-- Generated by graphviz version 14.0.2 (20251019.1705)
 -->
<!-- Title: TEST Pages: 1 -->
<svg width="487pt" height="223pt"
 viewBox="0.00 0.00 487.00 223.00" xmlns="http://www.w3.org/2000/svg" xmlns:xlink="http://www.w3.org/1999/xlink">
<g id="graph0" class="graph" transform="scale(1 1) rotate(0) translate(4 219)">
<title>TEST</title>
<!-- Node1 -->
<g id="Node000001" class="node">
<title>Node1</title>
<g id="a_Node000001"><a xlink:title=" ">
<polygon fill="#999999" stroke="#666666" points="41.5,-121 0,-121 0,-101 41.5,-101 41.5,-121"/>
<text xml:space="preserve" text-anchor="middle" x="20.75" y="-107.5" font-family="Helvetica,sans-Serif" font-size="10.00">TEST</text>
</a>
</g>
</g>
<!-- Node2 -->
<g id="Node000002" class="node">
<title>Node2</title>
<g id="a_Node000002"><a xlink:href="namespaceLGE_1_1VFS.html#abb779fd365154cfbcb79fc4486a5b912" target="_top" xlink:title=" ">
<polygon fill="white" stroke="#666666" points="200,-215 77.5,-215 77.5,-195 200,-195 200,-215"/>
<text xml:space="preserve" text-anchor="middle" x="138.75" y="-201.5" font-family="Helvetica,sans-Serif" font-size="10.00">LGE::VFS::ClearMounts</text>
</a>
</g>
</g>
<!-- Node1&#45;&gt;Node2 -->
<g id="edge1_Node000001_Node000002" class="edge">
<title>Node1&#45;&gt;Node2</title>
<g id="a_edge1_Node000001_Node000002"><a xlink:title=" ">
<path fill="none" stroke="#63b8ff" d="M26.73,-121.35C35.02,-137.52 53.18,-168.69 77.5,-186 79.31,-187.29 81.21,-188.49 83.18,-189.61"/>
<polygon fill="#63b8ff" stroke="#63b8ff" points="81.54,-192.71 92.06,-193.93 84.6,-186.41 81.54,-192.71"/>
</a>
</g>
</g>
<!-- Node4 -->
<g id="Node000004" class="node">
<title>Node4</title>
<g id="a_Node000004"><a xlink:href="classLGE_1_1Testing_1_1TestUtils.html#a0fd112ce138a9e51581afaad3de74ecf" target="_top" xlink:title=" ">
<polygon fill="white" stroke="#666666" points="197.75,-177 79.75,-177 79.75,-145 197.75,-145 197.75,-177"/>
<text xml:space="preserve" text-anchor="start" x="87.75" y="-163.5" font-family="Helvetica,sans-Serif" font-size="10.00">LGE::Testing::TestUtils</text>
<text xml:space="preserve" text-anchor="middle" x="138.75" y="-151.5" font-family="Helvetica,sans-Serif" font-size="10.00">::CreateTestDir</text>
</a>
</g>
</g>
<!-- Node1&#45;&gt;Node4 -->
<g id="edge3_Node000001_Node000004" class="edge">
<title>Node1&#45;&gt;Node4</title>
<g id="a_edge3_Node000001_Node000004"><a xlink:title=" ">
<path fill="none" stroke="#63b8ff" d="M41.82,-120.16C52.4,-124.95 65.62,-130.87 77.5,-136 80.67,-137.37 83.95,-138.77 87.25,-140.17"/>
<polygon fill="#63b8ff" stroke="#63b8ff" points="85.85,-143.38 96.43,-144.03 88.57,-136.93 85.85,-143.38"/>
</a>
</g>
</g>
<!-- Node5 -->
<g id="Node000005" class="node">
<title>Node5</title>
<g id="a_Node000005"><a xlink:href="classLGE_1_1Testing_1_1TestUtils.html#a345e283ebede23eaacd1d9c9a1a8fb0d" target="_top" xlink:title=" ">
<polygon fill="white" stroke="#666666" points="197.75,-127 79.75,-127 79.75,-95 197.75,-95 197.75,-127"/>
<text xml:space="preserve" text-anchor="start" x="87.75" y="-113.5" font-family="Helvetica,sans-Serif" font-size="10.00">LGE::Testing::TestUtils</text>
<text xml:space="preserve" text-anchor="middle" x="138.75" y="-101.5" font-family="Helvetica,sans-Serif" font-size="10.00">::GetTempDir</text>
</a>
</g>
</g>
<!-- Node1&#45;&gt;Node5 -->
<g id="edge4_Node000001_Node000005" class="edge">
<title>Node1&#45;&gt;Node5</title>
<g id="a_edge4_Node000001_Node000005"><a xlink:title=" ">
<path fill="none" stroke="#63b8ff" d="M41.96,-111C49.51,-111 58.59,-111 68.1,-111"/>
<polygon fill="#63b8ff" stroke="#63b8ff" points="67.89,-114.5 77.89,-111 67.89,-107.5 67.89,-114.5"/>
</a>
</g>
</g>
<!-- Node6 -->
<g id="Node000006" class="node">
<title>Node6</title>
<g id="a_Node000006"><a xlink:href="namespaceLGE_1_1VFS.html#a2c64330fbe1cbd5f66e79c29b43c3e87" target="_top" xlink:title=" ">
<polygon fill="white" stroke="#666666" points="196.25,-77 81.25,-77 81.25,-57 196.25,-57 196.25,-77"/>
<text xml:space="preserve" text-anchor="middle" x="138.75" y="-63.5" font-family="Helvetica,sans-Serif" font-size="10.00">LGE::VFS::ListMounts</text>
</a>
</g>
</g>
<!-- Node1&#45;&gt;Node6 -->
<g id="edge5_Node000001_Node000006" class="edge">
<title>Node1&#45;&gt;Node6</title>
<g id="a_edge5_Node000001_Node000006"><a xlink:title=" ">
<path fill="none" stroke="#63b8ff" d="M41.9,-101.28C52.39,-96.4 65.5,-90.56 77.5,-86 81.94,-84.31 86.6,-82.65 91.28,-81.05"/>
<polygon fill="#63b8ff" stroke="#63b8ff" points="92.31,-84.4 100.71,-77.95 90.12,-77.75 92.31,-84.4"/>
</a>
</g>
</g>
<!-- Node7 -->
<g id="Node000007" class="node">
<title>Node7</title>
<g id="a_Node000007"><a xlink:href="namespaceLGE_1_1VFS.html#a54b012d377481aa3685b372a196259ed" target="_top" xlink:title=" ">
<polygon fill="white" stroke="#666666" points="195.88,-39 81.62,-39 81.62,-19 195.88,-19 195.88,-39"/>
<text xml:space="preserve" text-anchor="middle" x="138.75" y="-25.5" font-family="Helvetica,sans-Serif" font-size="10.00">LGE::VFS::MountPath</text>
</a>
</g>
</g>
<!-- Node1&#45;&gt;Node7 -->
<g id="edge6_Node000001_Node000007" class="edge">
<title>Node1&#45;&gt;Node7</title>
<g id="a_edge6_Node000001_Node000007"><a xlink:title=" ">
<path fill="none" stroke="#63b8ff" d="M28.05,-100.96C37.26,-87.09 55.7,-62.16 77.5,-48 79.63,-46.62 81.87,-45.33 84.18,-44.13"/>
<polygon fill="#63b8ff" stroke="#63b8ff" points="85.57,-47.34 93.26,-40.04 82.7,-40.96 85.57,-47.34"/>
</a>
</g>
</g>
<!-- Node3 -->
<g id="Node000003" class="node">
<title>Node3</title>
<g id="a_Node000003"><a xlink:href="classLGE_1_1Log.html#ab0265ee050b8873a2fd31fbdb696ced0" target="_top" xlink:title=" ">
<polygon fill="white" stroke="#666666" points="337.12,-155 257.38,-155 257.38,-135 337.12,-135 337.12,-155"/>
<text xml:space="preserve" text-anchor="middle" x="297.25" y="-141.5" font-family="Helvetica,sans-Serif" font-size="10.00">LGE::Log::Info</text>
</a>
</g>
</g>
<!-- Node2&#45;&gt;Node3 -->
<g id="edge2_Node000002_Node000003" class="edge">
<title>Node2&#45;&gt;Node3</title>
<g id="a_edge2_Node000002_Node000003"><a xlink:title=" ">
<path fill="none" stroke="#63b8ff" d="M174.99,-194.52C183.25,-191.89 191.98,-188.97 200,-186 221.26,-178.14 244.67,-168.2 263.08,-160.07"/>
<polygon fill="#63b8ff" stroke="#63b8ff" points="264.46,-163.29 272.17,-156.02 261.61,-156.9 264.46,-163.29"/>
</a>
</g>
</g>
<!-- Node7&#45;&gt;Node3 -->
<g id="edge8_Node000007_Node000003" class="edge">
<title>Node7&#45;&gt;Node3</title>
<g id="a_edge8_Node000007_Node000003"><a xlink:title=" ">
<path fill="none" stroke="#63b8ff" d="M182.06,-39.45C188.3,-41.81 194.47,-44.63 200,-48 233.9,-68.67 264.62,-103.77 281.82,-125.6"/>
<polygon fill="#63b8ff" stroke="#63b8ff" points="278.94,-127.6 287.81,-133.4 284.49,-123.34 278.94,-127.6"/>
</a>
</g>
</g>
<!-- Node8 -->
<g id="Node000008" class="node">
<title>Node8</title>
<g id="a_Node000008"><a xlink:href="classLGE_1_1Log.html#a53f3f4b8797ffd18145739c9e66d690a" target="_top" xlink:title=" ">
<polygon fill="white" stroke="#666666" points="478.75,-39 394.5,-39 394.5,-19 478.75,-19 478.75,-39"/>
<text xml:space="preserve" text-anchor="middle" x="436.62" y="-25.5" font-family="Helvetica,sans-Serif" font-size="10.00">LGE::Log::Error</text>
</a>
</g>
</g>
<!-- Node7&#45;&gt;Node8 -->
<g id="edge7_Node000007_Node000008" class="edge">
<title>Node7&#45;&gt;Node8</title>
<g id="a_edge7_Node000007_Node000008"><a xlink:title=" ">
<path fill="none" stroke="#63b8ff" d="M196.1,-29C249.88,-29 330.28,-29 382.84,-29"/>
<polygon fill="#63b8ff" stroke="#63b8ff" points="382.75,-32.5 392.75,-29 382.75,-25.5 382.75,-32.5"/>
</a>
</g>
</g>
<!-- Node9 -->
<g id="Node000009" class="node">
<title>Node9</title>
<g id="a_Node000009"><a xlink:href="namespaceLGE_1_1LxPath.html#a314a60ce690c90f4ee0b4e64c0199408" target="_top" xlink:title=" ">
<polygon fill="white" stroke="#666666" points="358.5,-20 236,-20 236,0 358.5,0 358.5,-20"/>
<text xml:space="preserve" text-anchor="middle" x="297.25" y="-6.5" font-family="Helvetica,sans-Serif" font-size="10.00">LGE::LxPath::Normalize</text>
</a>
</g>
</g>
<!-- Node7&#45;&gt;Node9 -->
<g id="edge9_Node000007_Node000009" class="edge">
<title>Node7&#45;&gt;Node9</title>
<g id="a_edge9_Node000007_Node000009"><a xlink:title=" ">
<path fill="none" stroke="#63b8ff" d="M196.25,-22.14C205.34,-21.04 214.85,-19.88 224.24,-18.74"/>
<polygon fill="#63b8ff" stroke="#63b8ff" points="224.6,-22.23 234.1,-17.55 223.75,-15.28 224.6,-22.23"/>
</a>
</g>
</g>
<!-- Node9&#45;&gt;Node8 -->
<g id="edge10_Node000009_Node000008" class="edge">
<title>Node9&#45;&gt;Node8</title>
<g id="a_edge10_Node000009_Node000008"><a xlink:title=" ">
<path fill="none" stroke="#63b8ff" d="M358.9,-18.39C366.92,-19.5 375.09,-20.63 382.95,-21.72"/>
<polygon fill="#63b8ff" stroke="#63b8ff" points="382.33,-25.16 392.72,-23.07 383.29,-18.23 382.33,-25.16"/>
</a>
</g>
</g>
</g>
</svg>
