<?xml version="1.0" encoding="UTF-8" standalone="no"?>
<!DOCTYPE svg PUBLIC "-//W3C//DTD SVG 1.1//EN"
 "http://www.w3.org/Graphics/SVG/1.1/DTD/svg11.dtd">
<!-- Generated by graphviz version 14.0.2 (20251019.1705)
 -->
<!-- Title: TEST Pages: 1 -->
<svg width="1232pt" height="958pt"
 viewBox="0.00 0.00 1232.00 958.00" xmlns="http://www.w3.org/2000/svg" xmlns:xlink="http://www.w3.org/1999/xlink">
<g id="graph0" class="graph" transform="scale(1 1) rotate(0) translate(4 954.27)">
<title>TEST</title>
<!-- Node1 -->
<g id="Node000001" class="node">
<title>Node1</title>
<g id="a_Node000001"><a xlink:title=" ">
<polygon fill="#999999" stroke="#666666" points="41.5,-718.27 0,-718.27 0,-698.27 41.5,-698.27 41.5,-718.27"/>
<text xml:space="preserve" text-anchor="middle" x="20.75" y="-704.77" font-family="Helvetica,sans-Serif" font-size="10.00">TEST</text>
</a>
</g>
</g>
<!-- Node2 -->
<g id="Node000002" class="node">
<title>Node2</title>
<g id="a_Node000002"><a xlink:href="classLGE_1_1Testing_1_1TestUtils.html#a1f77aba432e3b29480c1688b716d86cf" target="_top" xlink:title=" ">
<polygon fill="white" stroke="#666666" points="195.5,-950.27 77.5,-950.27 77.5,-918.27 195.5,-918.27 195.5,-950.27"/>
<text xml:space="preserve" text-anchor="start" x="85.5" y="-936.77" font-family="Helvetica,sans-Serif" font-size="10.00">LGE::Testing::TestUtils</text>
<text xml:space="preserve" text-anchor="middle" x="136.5" y="-924.77" font-family="Helvetica,sans-Serif" font-size="10.00">::CleanupTestProject</text>
</a>
</g>
</g>
<!-- Node1&#45;&gt;Node2 -->
<g id="edge1_Node000001_Node000002" class="edge">
<title>Node1&#45;&gt;Node2</title>
<g id="a_edge1_Node000001_Node000002"><a xlink:title=" ">
<path fill="none" stroke="#63b8ff" d="M21.92,-718.5C22.95,-749.89 30.03,-846.2 77.5,-904.27 79.55,-906.78 81.87,-909.1 84.37,-911.25"/>
<polygon fill="#63b8ff" stroke="#63b8ff" points="82.07,-913.91 92.21,-916.99 86.21,-908.26 82.07,-913.91"/>
</a>
</g>
</g>
<!-- Node3 -->
<g id="Node000003" class="node">
<title>Node3</title>
<g id="a_Node000003"><a xlink:href="namespaceLGE_1_1AssetRegistry.html#a0e507381944dcdfc25afc215e2fdc0fd" target="_top" xlink:title=" ">
<polygon fill="white" stroke="#666666" points="344.62,-866.27 240.88,-866.27 240.88,-834.27 344.62,-834.27 344.62,-866.27"/>
<text xml:space="preserve" text-anchor="start" x="248.88" y="-852.77" font-family="Helvetica,sans-Serif" font-size="10.00">LGE::AssetRegistry</text>
<text xml:space="preserve" text-anchor="middle" x="292.75" y="-840.77" font-family="Helvetica,sans-Serif" font-size="10.00">::Clear</text>
</a>
</g>
</g>
<!-- Node1&#45;&gt;Node3 -->
<g id="edge2_Node000001_Node000003" class="edge">
<title>Node1&#45;&gt;Node3</title>
<g id="a_edge2_Node000001_Node000003"><a xlink:title=" ">
<path fill="none" stroke="#63b8ff" d="M21.55,-718.63C21.62,-748.46 26.41,-834.74 77.5,-871.27 126.86,-906.56 199.79,-888.64 246.53,-870.81"/>
<polygon fill="#63b8ff" stroke="#63b8ff" points="247.55,-874.17 255.55,-867.23 244.96,-867.67 247.55,-874.17"/>
</a>
</g>
</g>
<!-- Node5 -->
<g id="Node000005" class="node">
<title>Node5</title>
<g id="a_Node000005"><a xlink:href="namespaceLGE_1_1Dependencies.html#a5627e0c5a7ff6b7891063177eb3f51c5" target="_top" xlink:title=" ">
<polygon fill="white" stroke="#666666" points="191.38,-862.27 81.62,-862.27 81.62,-830.27 191.38,-830.27 191.38,-862.27"/>
<text xml:space="preserve" text-anchor="start" x="89.62" y="-848.77" font-family="Helvetica,sans-Serif" font-size="10.00">LGE::Dependencies::</text>
<text xml:space="preserve" text-anchor="middle" x="136.5" y="-836.77" font-family="Helvetica,sans-Serif" font-size="10.00">Clear</text>
</a>
</g>
</g>
<!-- Node1&#45;&gt;Node5 -->
<g id="edge4_Node000001_Node000005" class="edge">
<title>Node1&#45;&gt;Node5</title>
<g id="a_edge4_Node000001_Node000005"><a xlink:title=" ">
<path fill="none" stroke="#63b8ff" d="M24.68,-718.46C31.12,-739.25 48.27,-787.01 77.5,-816.27 80.1,-818.87 82.98,-821.3 86.02,-823.56"/>
<polygon fill="#63b8ff" stroke="#63b8ff" points="83.97,-826.4 94.25,-828.96 87.82,-820.55 83.97,-826.4"/>
</a>
</g>
</g>
<!-- Node6 -->
<g id="Node000006" class="node">
<title>Node6</title>
<g id="a_Node000006"><a xlink:href="namespaceLGE_1_1VFS.html#abb779fd365154cfbcb79fc4486a5b912" target="_top" xlink:title=" ">
<polygon fill="white" stroke="#666666" points="354,-776.27 231.5,-776.27 231.5,-756.27 354,-756.27 354,-776.27"/>
<text xml:space="preserve" text-anchor="middle" x="292.75" y="-762.77" font-family="Helvetica,sans-Serif" font-size="10.00">LGE::VFS::ClearMounts</text>
</a>
</g>
</g>
<!-- Node1&#45;&gt;Node6 -->
<g id="edge5_Node000001_Node000006" class="edge">
<title>Node1&#45;&gt;Node6</title>
<g id="a_edge5_Node000001_Node000006"><a xlink:title=" ">
<path fill="none" stroke="#63b8ff" d="M25.81,-718.71C33.14,-735.9 50.39,-769.64 77.5,-783.27 134.2,-811.77 210.13,-794.9 254.71,-780.36"/>
<polygon fill="#63b8ff" stroke="#63b8ff" points="255.57,-783.76 263.91,-777.23 253.31,-777.14 255.57,-783.76"/>
</a>
</g>
</g>
<!-- Node7 -->
<g id="Node000007" class="node">
<title>Node7</title>
<g id="a_Node000007"><a xlink:href="classLGE_1_1Testing_1_1TestUtils.html#a46de1f3cb8d715bf5329ad34a764f8b9" target="_top" xlink:title=" ">
<polygon fill="white" stroke="#666666" points="195.5,-774.27 77.5,-774.27 77.5,-742.27 195.5,-742.27 195.5,-774.27"/>
<text xml:space="preserve" text-anchor="start" x="85.5" y="-760.77" font-family="Helvetica,sans-Serif" font-size="10.00">LGE::Testing::TestUtils</text>
<text xml:space="preserve" text-anchor="middle" x="136.5" y="-748.77" font-family="Helvetica,sans-Serif" font-size="10.00">::CreateTestFile</text>
</a>
</g>
</g>
<!-- Node1&#45;&gt;Node7 -->
<g id="edge7_Node000001_Node000007" class="edge">
<title>Node1&#45;&gt;Node7</title>
<g id="a_edge7_Node000001_Node000007"><a xlink:title=" ">
<path fill="none" stroke="#63b8ff" d="M41.85,-717.37C52.44,-722.14 65.65,-728.06 77.5,-733.27 80.46,-734.57 83.52,-735.91 86.6,-737.25"/>
<polygon fill="#63b8ff" stroke="#63b8ff" points="85.14,-740.43 95.7,-741.2 87.92,-734.01 85.14,-740.43"/>
</a>
</g>
</g>
<!-- Node8 -->
<g id="Node000008" class="node">
<title>Node8</title>
<g id="a_Node000008"><a xlink:href="classLGE_1_1Testing_1_1TestUtils.html#ace2f7af3775195fcf072f0c09c966af3" target="_top" xlink:title=" ">
<polygon fill="white" stroke="#666666" points="195.5,-724.27 77.5,-724.27 77.5,-692.27 195.5,-692.27 195.5,-724.27"/>
<text xml:space="preserve" text-anchor="start" x="85.5" y="-710.77" font-family="Helvetica,sans-Serif" font-size="10.00">LGE::Testing::TestUtils</text>
<text xml:space="preserve" text-anchor="middle" x="136.5" y="-698.77" font-family="Helvetica,sans-Serif" font-size="10.00">::CreateTestProject</text>
</a>
</g>
</g>
<!-- Node1&#45;&gt;Node8 -->
<g id="edge8_Node000001_Node000008" class="edge">
<title>Node1&#45;&gt;Node8</title>
<g id="a_edge8_Node000001_Node000008"><a xlink:title=" ">
<path fill="none" stroke="#63b8ff" d="M41.82,-708.27C48.74,-708.27 56.93,-708.27 65.55,-708.27"/>
<polygon fill="#63b8ff" stroke="#63b8ff" points="65.53,-711.77 75.53,-708.27 65.53,-704.77 65.53,-711.77"/>
</a>
</g>
</g>
<!-- Node10 -->
<g id="Node000010" class="node">
<title>Node10</title>
<g id="a_Node000010"><a xlink:href="namespaceLGE_1_1AssetRegistry.html#af9345d56722e55e0a02cc2b1c421da76" target="_top" xlink:title=" ">
<polygon fill="white" stroke="#666666" points="344.62,-598.27 240.88,-598.27 240.88,-566.27 344.62,-566.27 344.62,-598.27"/>
<text xml:space="preserve" text-anchor="start" x="248.88" y="-584.77" font-family="Helvetica,sans-Serif" font-size="10.00">LGE::AssetRegistry</text>
<text xml:space="preserve" text-anchor="middle" x="292.75" y="-572.77" font-family="Helvetica,sans-Serif" font-size="10.00">::FullScan</text>
</a>
</g>
</g>
<!-- Node1&#45;&gt;Node10 -->
<g id="edge10_Node000001_Node000010" class="edge">
<title>Node1&#45;&gt;Node10</title>
<g id="a_edge10_Node000001_Node000010"><a xlink:title=" ">
<path fill="none" stroke="#63b8ff" d="M23.36,-697.89C27.53,-674.83 41.06,-619.48 77.5,-595.27 121.85,-565.8 183.44,-565.18 229.21,-570.38"/>
<polygon fill="#63b8ff" stroke="#63b8ff" points="228.62,-573.83 238.98,-571.62 229.5,-566.89 228.62,-573.83"/>
</a>
</g>
</g>
<!-- Node21 -->
<g id="Node000021" class="node">
<title>Node21</title>
<g id="a_Node000021"><a xlink:href="namespaceLGE_1_1Dependencies.html#af2b0e7027080ff46863bb558519a927a" target="_top" xlink:title=" ">
<polygon fill="white" stroke="#666666" points="191.38,-636.27 81.62,-636.27 81.62,-604.27 191.38,-604.27 191.38,-636.27"/>
<text xml:space="preserve" text-anchor="start" x="89.62" y="-622.77" font-family="Helvetica,sans-Serif" font-size="10.00">LGE::Dependencies::</text>
<text xml:space="preserve" text-anchor="middle" x="136.5" y="-610.77" font-family="Helvetica,sans-Serif" font-size="10.00">GetStats</text>
</a>
</g>
</g>
<!-- Node1&#45;&gt;Node21 -->
<g id="edge23_Node000001_Node000021" class="edge">
<title>Node1&#45;&gt;Node21</title>
<g id="a_edge23_Node000001_Node000021"><a xlink:title=" ">
<path fill="none" stroke="#63b8ff" d="M29.96,-697.84C40.13,-685.39 58.47,-664.47 77.5,-650.27 81.23,-647.48 85.26,-644.82 89.39,-642.31"/>
<polygon fill="#63b8ff" stroke="#63b8ff" points="90.86,-645.5 97.81,-637.5 87.39,-639.42 90.86,-645.5"/>
</a>
</g>
</g>
<!-- Node22 -->
<g id="Node000022" class="node">
<title>Node22</title>
<g id="a_Node000022"><a xlink:href="namespaceLGE_1_1Dependencies.html#a507f7e03e282ce1ac7c9326017bccae8" target="_top" xlink:title=" ">
<polygon fill="white" stroke="#666666" points="191.38,-432.27 81.62,-432.27 81.62,-400.27 191.38,-400.27 191.38,-432.27"/>
<text xml:space="preserve" text-anchor="start" x="89.62" y="-418.77" font-family="Helvetica,sans-Serif" font-size="10.00">LGE::Dependencies::</text>
<text xml:space="preserve" text-anchor="middle" x="136.5" y="-406.77" font-family="Helvetica,sans-Serif" font-size="10.00">Initialize</text>
</a>
</g>
</g>
<!-- Node1&#45;&gt;Node22 -->
<g id="edge24_Node000001_Node000022" class="edge">
<title>Node1&#45;&gt;Node22</title>
<g id="a_edge24_Node000001_Node000022"><a xlink:title=" ">
<path fill="none" stroke="#63b8ff" d="M25.62,-697.98C34.63,-674.11 57.71,-613.09 77.5,-562.27 93.76,-520.54 113.02,-472.27 124.75,-443.03"/>
<polygon fill="#63b8ff" stroke="#63b8ff" points="127.95,-444.43 128.43,-433.85 121.46,-441.83 127.95,-444.43"/>
</a>
</g>
</g>
<!-- Node27 -->
<g id="Node000027" class="node">
<title>Node27</title>
<g id="a_Node000027"><a xlink:href="namespaceLGE_1_1VFS.html#a5cea8543475162be752c71971f1f4e85" target="_top" xlink:title=" ">
<polygon fill="white" stroke="#666666" points="717.88,-714.27 583.38,-714.27 583.38,-682.27 717.88,-682.27 717.88,-714.27"/>
<text xml:space="preserve" text-anchor="start" x="591.38" y="-700.77" font-family="Helvetica,sans-Serif" font-size="10.00">LGE::VFS::InitializeDefault</text>
<text xml:space="preserve" text-anchor="middle" x="650.62" y="-688.77" font-family="Helvetica,sans-Serif" font-size="10.00">Mounts</text>
</a>
</g>
</g>
<!-- Node1&#45;&gt;Node27 -->
<g id="edge34_Node000001_Node000027" class="edge">
<title>Node1&#45;&gt;Node27</title>
<g id="a_edge34_Node000001_Node000027"><a xlink:title=" ">
<path fill="none" stroke="#63b8ff" d="M39.92,-697.77C50.5,-692.26 64.33,-686.09 77.5,-683.27 251.05,-646.14 460.94,-668.12 571.97,-684.81"/>
<polygon fill="#63b8ff" stroke="#63b8ff" points="571.14,-688.22 581.56,-686.28 572.2,-681.3 571.14,-688.22"/>
</a>
</g>
</g>
<!-- Node31 -->
<g id="Node000031" class="node">
<title>Node31</title>
<g id="a_Node000031"><a xlink:href="namespaceLGE_1_1LxFS.html#a40efc6a314cff464d1050243706eb8d8" target="_top" xlink:title=" ">
<polygon fill="white" stroke="#666666" points="535.75,-247.27 398.25,-247.27 398.25,-227.27 535.75,-227.27 535.75,-247.27"/>
<text xml:space="preserve" text-anchor="middle" x="467" y="-233.77" font-family="Helvetica,sans-Serif" font-size="10.00">LGE::LxFS::InitializeProject</text>
</a>
</g>
</g>
<!-- Node1&#45;&gt;Node31 -->
<g id="edge43_Node000001_Node000031" class="edge">
<title>Node1&#45;&gt;Node31</title>
<g id="a_edge43_Node000001_Node000031"><a xlink:title=" ">
<path fill="none" stroke="#63b8ff" d="M22.5,-697.77C26.18,-648.93 43.41,-444.08 77.5,-391.27 144.45,-287.55 294.03,-253.67 386.82,-242.62"/>
<polygon fill="#63b8ff" stroke="#63b8ff" points="387.08,-246.11 396.62,-241.52 386.3,-239.15 387.08,-246.11"/>
</a>
</g>
</g>
<!-- Node4 -->
<g id="Node000004" class="node">
<title>Node4</title>
<g id="a_Node000004"><a xlink:href="classLGE_1_1Log.html#ab0265ee050b8873a2fd31fbdb696ced0" target="_top" xlink:title=" ">
<polygon fill="white" stroke="#666666" points="1066.75,-471.27 987,-471.27 987,-451.27 1066.75,-451.27 1066.75,-471.27"/>
<text xml:space="preserve" text-anchor="middle" x="1026.88" y="-457.77" font-family="Helvetica,sans-Serif" font-size="10.00">LGE::Log::Info</text>
</a>
</g>
</g>
<!-- Node3&#45;&gt;Node4 -->
<g id="edge3_Node000003_Node000004" class="edge">
<title>Node3&#45;&gt;Node4</title>
<g id="a_edge3_Node000003_Node000004"><a xlink:title=" ">
<path fill="none" stroke="#63b8ff" d="M345.03,-846.51C486.02,-835.72 871.88,-803.01 914.25,-765.27 962.23,-722.54 928.71,-685.8 950.25,-625.27 969.25,-571.86 999.14,-512.09 1015.05,-481.59"/>
<polygon fill="#63b8ff" stroke="#63b8ff" points="1017.97,-483.55 1019.53,-473.07 1011.78,-480.29 1017.97,-483.55"/>
</a>
</g>
</g>
<!-- Node6&#45;&gt;Node4 -->
<g id="edge6_Node000006_Node000004" class="edge">
<title>Node6&#45;&gt;Node4</title>
<g id="a_edge6_Node000006_Node000004"><a xlink:title=" ">
<path fill="none" stroke="#63b8ff" d="M354.48,-767.52C502.05,-770.01 870.59,-772.75 914.25,-739.27 956.41,-706.94 931.09,-674.83 950.25,-625.27 970.71,-572.37 1000.01,-512.34 1015.45,-481.68"/>
<polygon fill="#63b8ff" stroke="#63b8ff" points="1018.55,-483.29 1019.95,-472.79 1012.31,-480.12 1018.55,-483.29"/>
</a>
</g>
</g>
<!-- Node9 -->
<g id="Node000009" class="node">
<title>Node9</title>
<g id="a_Node000009"><a xlink:href="classLGE_1_1Testing_1_1TestUtils.html#a345e283ebede23eaacd1d9c9a1a8fb0d" target="_top" xlink:title=" ">
<polygon fill="white" stroke="#666666" points="351.75,-724.27 233.75,-724.27 233.75,-692.27 351.75,-692.27 351.75,-724.27"/>
<text xml:space="preserve" text-anchor="start" x="241.75" y="-710.77" font-family="Helvetica,sans-Serif" font-size="10.00">LGE::Testing::TestUtils</text>
<text xml:space="preserve" text-anchor="middle" x="292.75" y="-698.77" font-family="Helvetica,sans-Serif" font-size="10.00">::GetTempDir</text>
</a>
</g>
</g>
<!-- Node8&#45;&gt;Node9 -->
<g id="edge9_Node000008_Node000009" class="edge">
<title>Node8&#45;&gt;Node9</title>
<g id="a_edge9_Node000008_Node000009"><a xlink:title=" ">
<path fill="none" stroke="#63b8ff" d="M195.82,-708.27C204.36,-708.27 213.23,-708.27 221.97,-708.27"/>
<polygon fill="#63b8ff" stroke="#63b8ff" points="221.84,-711.77 231.84,-708.27 221.84,-704.77 221.84,-711.77"/>
</a>
</g>
</g>
<!-- Node10&#45;&gt;Node4 -->
<g id="edge21_Node000010_Node000004" class="edge">
<title>Node10&#45;&gt;Node4</title>
<g id="a_edge21_Node000010_Node000004"><a xlink:title=" ">
<path fill="none" stroke="#63b8ff" d="M344.81,-588.14C453.51,-598.65 714.21,-613.2 914.25,-539.27 950.57,-525.85 986.1,-497.68 1006.99,-479.12"/>
<polygon fill="#63b8ff" stroke="#63b8ff" points="1009.1,-481.93 1014.14,-472.61 1004.39,-476.76 1009.1,-481.93"/>
</a>
</g>
</g>
<!-- Node11 -->
<g id="Node000011" class="node">
<title>Node11</title>
<g id="a_Node000011"><a xlink:href="namespaceLGE_1_1AssetRegistry.html#abf12143e6f506efd22e4ec9ef670134a" target="_top" xlink:title=" ">
<polygon fill="white" stroke="#666666" points="544,-556.27 390,-556.27 390,-524.27 544,-524.27 544,-556.27"/>
<text xml:space="preserve" text-anchor="start" x="398" y="-542.77" font-family="Helvetica,sans-Serif" font-size="10.00">LGE::AssetRegistry</text>
<text xml:space="preserve" text-anchor="middle" x="467" y="-530.77" font-family="Helvetica,sans-Serif" font-size="10.00">::BuildReverseDependencyMap</text>
</a>
</g>
</g>
<!-- Node10&#45;&gt;Node11 -->
<g id="edge11_Node000010_Node000011" class="edge">
<title>Node10&#45;&gt;Node11</title>
<g id="a_edge11_Node000010_Node000011"><a xlink:title=" ">
<path fill="none" stroke="#63b8ff" d="M344.96,-569.78C358.32,-566.52 373.02,-562.94 387.44,-559.42"/>
<polygon fill="#63b8ff" stroke="#63b8ff" points="388.03,-562.88 396.91,-557.11 386.37,-556.08 388.03,-562.88"/>
</a>
</g>
</g>
<!-- Node20 -->
<g id="Node000020" class="node">
<title>Node20</title>
<g id="a_Node000020"><a xlink:href="namespaceLGE_1_1VFS.html#a2c64330fbe1cbd5f66e79c29b43c3e87" target="_top" xlink:title=" ">
<polygon fill="white" stroke="#666666" points="524.5,-636.27 409.5,-636.27 409.5,-616.27 524.5,-616.27 524.5,-636.27"/>
<text xml:space="preserve" text-anchor="middle" x="467" y="-622.77" font-family="Helvetica,sans-Serif" font-size="10.00">LGE::VFS::ListMounts</text>
</a>
</g>
</g>
<!-- Node10&#45;&gt;Node20 -->
<g id="edge22_Node000010_Node000020" class="edge">
<title>Node10&#45;&gt;Node20</title>
<g id="a_edge22_Node000010_Node000020"><a xlink:title=" ">
<path fill="none" stroke="#63b8ff" d="M344.96,-595.35C366.75,-600.92 392.13,-607.4 414,-612.99"/>
<polygon fill="#63b8ff" stroke="#63b8ff" points="413.06,-616.36 423.62,-615.44 414.79,-609.58 413.06,-616.36"/>
</a>
</g>
</g>
<!-- Node11&#45;&gt;Node4 -->
<g id="edge14_Node000011_Node000004" class="edge">
<title>Node11&#45;&gt;Node4</title>
<g id="a_edge14_Node000011_Node000004"><a xlink:title=" ">
<path fill="none" stroke="#63b8ff" d="M544.17,-544.63C634.27,-547.68 787.98,-546.2 914.25,-511.27 943.62,-503.14 975.14,-488.41 997.17,-477.04"/>
<polygon fill="#63b8ff" stroke="#63b8ff" points="998.62,-480.23 1005.84,-472.47 995.36,-474.04 998.62,-480.23"/>
</a>
</g>
</g>
<!-- Node12 -->
<g id="Node000012" class="node">
<title>Node12</title>
<g id="a_Node000012"><a xlink:href="namespaceLGE_1_1AssetRegistry.html#ac315fdb87be485fe8103d455b7e8a464" target="_top" xlink:title=" ">
<polygon fill="white" stroke="#666666" points="702.5,-487.27 598.75,-487.27 598.75,-455.27 702.5,-455.27 702.5,-487.27"/>
<text xml:space="preserve" text-anchor="start" x="606.75" y="-473.77" font-family="Helvetica,sans-Serif" font-size="10.00">LGE::AssetRegistry</text>
<text xml:space="preserve" text-anchor="middle" x="650.62" y="-461.77" font-family="Helvetica,sans-Serif" font-size="10.00">::FindByPath</text>
</a>
</g>
</g>
<!-- Node11&#45;&gt;Node12 -->
<g id="edge12_Node000011_Node000012" class="edge">
<title>Node11&#45;&gt;Node12</title>
<g id="a_edge12_Node000011_Node000012"><a xlink:title=" ">
<path fill="none" stroke="#63b8ff" d="M509.11,-523.78C530.24,-515.39 556.44,-505.13 580,-496.27 584.08,-494.74 588.29,-493.17 592.54,-491.61"/>
<polygon fill="#63b8ff" stroke="#63b8ff" points="593.5,-494.99 601.69,-488.27 591.1,-488.41 593.5,-494.99"/>
</a>
</g>
</g>
<!-- Node14 -->
<g id="Node000014" class="node">
<title>Node14</title>
<g id="a_Node000014"><a xlink:href="namespaceLGE_1_1VFS.html#a9eb41e42c96a4f5358c79e30afb579cc" target="_top" xlink:title=" ">
<polygon fill="white" stroke="#666666" points="721.25,-525.27 580,-525.27 580,-505.27 721.25,-505.27 721.25,-525.27"/>
<text xml:space="preserve" text-anchor="middle" x="650.62" y="-511.77" font-family="Helvetica,sans-Serif" font-size="10.00">LGE::VFS::ResolveAbsolute</text>
</a>
</g>
</g>
<!-- Node11&#45;&gt;Node14 -->
<g id="edge15_Node000011_Node000014" class="edge">
<title>Node11&#45;&gt;Node14</title>
<g id="a_edge15_Node000011_Node000014"><a xlink:title=" ">
<path fill="none" stroke="#63b8ff" d="M544.5,-529.74C552.41,-528.65 560.46,-527.54 568.42,-526.45"/>
<polygon fill="#63b8ff" stroke="#63b8ff" points="568.65,-529.95 578.08,-525.12 567.69,-523.01 568.65,-529.95"/>
</a>
</g>
</g>
<!-- Node13 -->
<g id="Node000013" class="node">
<title>Node13</title>
<g id="a_Node000013"><a xlink:href="namespaceLGE_1_1AssetRegistry.html#a9e672f9e3c8c62076b9156d1695e48b8" target="_top" xlink:title=" ">
<polygon fill="white" stroke="#666666" points="887.62,-458.27 783.88,-458.27 783.88,-426.27 887.62,-426.27 887.62,-458.27"/>
<text xml:space="preserve" text-anchor="start" x="791.88" y="-444.77" font-family="Helvetica,sans-Serif" font-size="10.00">LGE::AssetRegistry</text>
<text xml:space="preserve" text-anchor="middle" x="835.75" y="-432.77" font-family="Helvetica,sans-Serif" font-size="10.00">::FindByGUID</text>
</a>
</g>
</g>
<!-- Node12&#45;&gt;Node13 -->
<g id="edge13_Node000012_Node000013" class="edge">
<title>Node12&#45;&gt;Node13</title>
<g id="a_edge13_Node000012_Node000013"><a xlink:title=" ">
<path fill="none" stroke="#63b8ff" d="M702.64,-463.19C724.18,-459.78 749.48,-455.77 772.15,-452.18"/>
<polygon fill="#63b8ff" stroke="#63b8ff" points="772.55,-455.66 781.88,-450.64 771.46,-448.75 772.55,-455.66"/>
</a>
</g>
</g>
<!-- Node15 -->
<g id="Node000015" class="node">
<title>Node15</title>
<g id="a_Node000015"><a xlink:href="namespaceLGE_1_1VFS.html#a0566c02123208c6b867418e914f9574b" target="_top" xlink:title=" ">
<polygon fill="white" stroke="#666666" points="890.62,-502.27 780.88,-502.27 780.88,-482.27 890.62,-482.27 890.62,-502.27"/>
<text xml:space="preserve" text-anchor="middle" x="835.75" y="-488.77" font-family="Helvetica,sans-Serif" font-size="10.00">LGE::VFS::GetMount</text>
</a>
</g>
</g>
<!-- Node14&#45;&gt;Node15 -->
<g id="edge16_Node000014_Node000015" class="edge">
<title>Node14&#45;&gt;Node15</title>
<g id="a_edge16_Node000014_Node000015"><a xlink:title=" ">
<path fill="none" stroke="#63b8ff" d="M721.64,-506.47C737.32,-504.51 753.9,-502.42 769.38,-500.48"/>
<polygon fill="#63b8ff" stroke="#63b8ff" points="769.45,-504 778.93,-499.28 768.57,-497.05 769.45,-504"/>
</a>
</g>
</g>
<!-- Node16 -->
<g id="Node000016" class="node">
<title>Node16</title>
<g id="a_Node000016"><a xlink:href="namespaceLGE_1_1LxPath.html#a94ec3bdfd6948ddc25cda5d18154d4cf" target="_top" xlink:title=" ">
<polygon fill="white" stroke="#666666" points="883.88,-654.27 787.62,-654.27 787.62,-634.27 883.88,-634.27 883.88,-654.27"/>
<text xml:space="preserve" text-anchor="middle" x="835.75" y="-640.77" font-family="Helvetica,sans-Serif" font-size="10.00">LGE::LxPath::Join</text>
</a>
</g>
</g>
<!-- Node14&#45;&gt;Node16 -->
<g id="edge17_Node000014_Node000016" class="edge">
<title>Node14&#45;&gt;Node16</title>
<g id="a_edge17_Node000014_Node000016"><a xlink:title=" ">
<path fill="none" stroke="#63b8ff" d="M666.3,-525.61C697.91,-547.87 772.67,-600.53 811.07,-627.59"/>
<polygon fill="#63b8ff" stroke="#63b8ff" points="808.58,-630.11 818.77,-633.01 812.61,-624.39 808.58,-630.11"/>
</a>
</g>
</g>
<!-- Node19 -->
<g id="Node000019" class="node">
<title>Node19</title>
<g id="a_Node000019"><a xlink:href="classLGE_1_1Log.html#aa6f98018af29c23dd7f574d3df5dda5e" target="_top" xlink:title=" ">
<polygon fill="white" stroke="#666666" points="878.62,-285.27 792.88,-285.27 792.88,-265.27 878.62,-265.27 878.62,-285.27"/>
<text xml:space="preserve" text-anchor="middle" x="835.75" y="-271.77" font-family="Helvetica,sans-Serif" font-size="10.00">LGE::Log::Warn</text>
</a>
</g>
</g>
<!-- Node14&#45;&gt;Node19 -->
<g id="edge20_Node000014_Node000019" class="edge">
<title>Node14&#45;&gt;Node19</title>
<g id="a_edge20_Node000014_Node000019"><a xlink:title=" ">
<path fill="none" stroke="#63b8ff" d="M707.84,-504.78C712.67,-502.48 717.24,-499.68 721.25,-496.27 750.64,-471.27 740,-451.78 757.25,-417.27 779.33,-373.11 807.62,-322.64 823.19,-295.35"/>
<polygon fill="#63b8ff" stroke="#63b8ff" points="826.17,-297.2 828.1,-286.78 820.09,-293.72 826.17,-297.2"/>
</a>
</g>
</g>
<!-- Node17 -->
<g id="Node000017" class="node">
<title>Node17</title>
<g id="a_Node000017"><a xlink:href="namespaceLGE_1_1LxPath.html#a314a60ce690c90f4ee0b4e64c0199408" target="_top" xlink:title=" ">
<polygon fill="white" stroke="#666666" points="1088.12,-654.27 965.62,-654.27 965.62,-634.27 1088.12,-634.27 1088.12,-654.27"/>
<text xml:space="preserve" text-anchor="middle" x="1026.88" y="-640.77" font-family="Helvetica,sans-Serif" font-size="10.00">LGE::LxPath::Normalize</text>
</a>
</g>
</g>
<!-- Node16&#45;&gt;Node17 -->
<g id="edge18_Node000016_Node000017" class="edge">
<title>Node16&#45;&gt;Node17</title>
<g id="a_edge18_Node000016_Node000017"><a xlink:title=" ">
<path fill="none" stroke="#63b8ff" d="M883.99,-644.27C905.14,-644.27 930.55,-644.27 953.99,-644.27"/>
<polygon fill="#63b8ff" stroke="#63b8ff" points="953.8,-647.77 963.8,-644.27 953.8,-640.77 953.8,-647.77"/>
</a>
</g>
</g>
<!-- Node18 -->
<g id="Node000018" class="node">
<title>Node18</title>
<g id="a_Node000018"><a xlink:href="classLGE_1_1Log.html#a53f3f4b8797ffd18145739c9e66d690a" target="_top" xlink:title=" ">
<polygon fill="white" stroke="#666666" points="1223.75,-247.27 1139.5,-247.27 1139.5,-227.27 1223.75,-227.27 1223.75,-247.27"/>
<text xml:space="preserve" text-anchor="middle" x="1181.62" y="-233.77" font-family="Helvetica,sans-Serif" font-size="10.00">LGE::Log::Error</text>
</a>
</g>
</g>
<!-- Node17&#45;&gt;Node18 -->
<g id="edge19_Node000017_Node000018" class="edge">
<title>Node17&#45;&gt;Node18</title>
<g id="a_edge19_Node000017_Node000018"><a xlink:title=" ">
<path fill="none" stroke="#63b8ff" d="M1033.11,-634.1C1046.09,-608.64 1080.39,-539.91 1103.5,-480.27 1134.65,-399.88 1163.05,-301.15 1174.85,-258.52"/>
<polygon fill="#63b8ff" stroke="#63b8ff" points="1178.17,-259.64 1177.44,-249.07 1171.42,-257.79 1178.17,-259.64"/>
</a>
</g>
</g>
<!-- Node22&#45;&gt;Node4 -->
<g id="edge25_Node000022_Node000004" class="edge">
<title>Node22&#45;&gt;Node4</title>
<g id="a_edge25_Node000022_Node000004"><a xlink:title=" ">
<path fill="none" stroke="#63b8ff" d="M169.07,-399.77C215.82,-376.38 306.89,-334.68 390,-319.27 622.3,-276.18 691.67,-328.04 914.25,-407.27 943.53,-417.69 975.29,-433.53 997.42,-445.37"/>
<polygon fill="#63b8ff" stroke="#63b8ff" points="995.66,-448.4 1006.12,-450.09 999,-442.24 995.66,-448.4"/>
</a>
</g>
</g>
<!-- Node23 -->
<g id="Node000023" class="node">
<title>Node23</title>
<g id="a_Node000023"><a xlink:href="namespaceLGE_1_1Dependencies.html#abb2932854a8edbd61c21b2b3c846396f" target="_top" xlink:title=" ">
<polygon fill="white" stroke="#666666" points="347.62,-432.27 237.88,-432.27 237.88,-400.27 347.62,-400.27 347.62,-432.27"/>
<text xml:space="preserve" text-anchor="start" x="245.88" y="-418.77" font-family="Helvetica,sans-Serif" font-size="10.00">LGE::Dependencies::</text>
<text xml:space="preserve" text-anchor="middle" x="292.75" y="-406.77" font-family="Helvetica,sans-Serif" font-size="10.00">RebuildGraph</text>
</a>
</g>
</g>
<!-- Node22&#45;&gt;Node23 -->
<g id="edge26_Node000022_Node000023" class="edge">
<title>Node22&#45;&gt;Node23</title>
<g id="a_edge26_Node000022_Node000023"><a xlink:title=" ">
<path fill="none" stroke="#63b8ff" d="M191.45,-416.27C202.66,-416.27 214.58,-416.27 226.16,-416.27"/>
<polygon fill="#63b8ff" stroke="#63b8ff" points="226.06,-419.77 236.06,-416.27 226.06,-412.77 226.06,-419.77"/>
</a>
</g>
</g>
<!-- Node23&#45;&gt;Node4 -->
<g id="edge29_Node000023_Node000004" class="edge">
<title>Node23&#45;&gt;Node4</title>
<g id="a_edge29_Node000023_Node000004"><a xlink:title=" ">
<path fill="none" stroke="#63b8ff" d="M347.96,-418.25C361.67,-418.68 376.38,-419.06 390,-419.27 553.2,-421.81 594.03,-418.03 757.25,-417.27 827.03,-416.94 845.7,-404.25 914.25,-417.27 942.96,-422.72 973.73,-435.41 995.68,-445.77"/>
<polygon fill="#63b8ff" stroke="#63b8ff" points="994.1,-448.9 1004.63,-450.11 997.16,-442.6 994.1,-448.9"/>
</a>
</g>
</g>
<!-- Node24 -->
<g id="Node000024" class="node">
<title>Node24</title>
<g id="a_Node000024"><a xlink:href="namespaceLGE_1_1Dependencies.html#a5cf2c869b83ca6a67386d4e44f83512c" target="_top" xlink:title=" ">
<polygon fill="white" stroke="#666666" points="532.38,-410.27 401.62,-410.27 401.62,-378.27 532.38,-378.27 532.38,-410.27"/>
<text xml:space="preserve" text-anchor="start" x="409.62" y="-396.77" font-family="Helvetica,sans-Serif" font-size="10.00">LGE::Dependencies::</text>
<text xml:space="preserve" text-anchor="middle" x="467" y="-384.77" font-family="Helvetica,sans-Serif" font-size="10.00">FindCircularDependencies</text>
</a>
</g>
</g>
<!-- Node23&#45;&gt;Node24 -->
<g id="edge27_Node000023_Node000024" class="edge">
<title>Node23&#45;&gt;Node24</title>
<g id="a_edge27_Node000023_Node000024"><a xlink:title=" ">
<path fill="none" stroke="#63b8ff" d="M347.78,-409.37C361.17,-407.66 375.77,-405.79 389.99,-403.98"/>
<polygon fill="#63b8ff" stroke="#63b8ff" points="390.31,-407.46 399.79,-402.73 389.43,-400.52 390.31,-407.46"/>
</a>
</g>
</g>
<!-- Node25 -->
<g id="Node000025" class="node">
<title>Node25</title>
<g id="a_Node000025"><a xlink:href="namespaceLGE_1_1AssetRegistry.html#ac9aa62a1e0c929e88bec00618b489988" target="_top" xlink:title=" ">
<polygon fill="white" stroke="#666666" points="518.88,-360.27 415.12,-360.27 415.12,-328.27 518.88,-328.27 518.88,-360.27"/>
<text xml:space="preserve" text-anchor="start" x="423.12" y="-346.77" font-family="Helvetica,sans-Serif" font-size="10.00">LGE::AssetRegistry</text>
<text xml:space="preserve" text-anchor="middle" x="467" y="-334.77" font-family="Helvetica,sans-Serif" font-size="10.00">::GetAllAssets</text>
</a>
</g>
</g>
<!-- Node23&#45;&gt;Node25 -->
<g id="edge28_Node000023_Node000025" class="edge">
<title>Node23&#45;&gt;Node25</title>
<g id="a_edge28_Node000023_Node000025"><a xlink:title=" ">
<path fill="none" stroke="#63b8ff" d="M324.47,-399.93C343.13,-390.35 367.6,-378.37 390,-369.27 394.61,-367.39 399.42,-365.55 404.29,-363.78"/>
<polygon fill="#63b8ff" stroke="#63b8ff" points="405.28,-367.14 413.53,-360.5 402.94,-360.54 405.28,-367.14"/>
</a>
</g>
</g>
<!-- Node26 -->
<g id="Node000026" class="node">
<title>Node26</title>
<g id="a_Node000026"><a xlink:href="namespaceLGE_1_1Dependencies.html#ab8088cfc8ddddf32d237f13042e6310d" target="_top" xlink:title=" ">
<polygon fill="white" stroke="#666666" points="521.88,-498.27 412.12,-498.27 412.12,-466.27 521.88,-466.27 521.88,-498.27"/>
<text xml:space="preserve" text-anchor="start" x="420.12" y="-484.77" font-family="Helvetica,sans-Serif" font-size="10.00">LGE::Dependencies::</text>
<text xml:space="preserve" text-anchor="middle" x="467" y="-472.77" font-family="Helvetica,sans-Serif" font-size="10.00">ValidateReference</text>
</a>
</g>
</g>
<!-- Node23&#45;&gt;Node26 -->
<g id="edge30_Node000023_Node000026" class="edge">
<title>Node23&#45;&gt;Node26</title>
<g id="a_edge30_Node000023_Node000026"><a xlink:title=" ">
<path fill="none" stroke="#63b8ff" d="M336.77,-432.75C359.77,-441.57 388.3,-452.5 412.7,-461.85"/>
<polygon fill="#63b8ff" stroke="#63b8ff" points="411.22,-465.03 421.82,-465.34 413.73,-458.49 411.22,-465.03"/>
</a>
</g>
</g>
<!-- Node26&#45;&gt;Node12 -->
<g id="edge32_Node000026_Node000012" class="edge">
<title>Node26&#45;&gt;Node12</title>
<g id="a_edge32_Node000026_Node000012"><a xlink:title=" ">
<path fill="none" stroke="#63b8ff" d="M522,-479C542.38,-477.76 565.74,-476.35 586.86,-475.07"/>
<polygon fill="#63b8ff" stroke="#63b8ff" points="587.04,-478.57 596.81,-474.47 586.62,-471.58 587.04,-478.57"/>
</a>
</g>
</g>
<!-- Node26&#45;&gt;Node13 -->
<g id="edge31_Node000026_Node000013" class="edge">
<title>Node26&#45;&gt;Node13</title>
<g id="a_edge31_Node000026_Node000013"><a xlink:title=" ">
<path fill="none" stroke="#63b8ff" d="M509.29,-465.77C530.13,-458.28 556.02,-450.22 580,-446.27 644.92,-435.57 720.41,-435.95 772.26,-438.15"/>
<polygon fill="#63b8ff" stroke="#63b8ff" points="771.94,-441.64 782.09,-438.61 772.27,-434.65 771.94,-441.64"/>
</a>
</g>
</g>
<!-- Node26&#45;&gt;Node14 -->
<g id="edge33_Node000026_Node000014" class="edge">
<title>Node26&#45;&gt;Node14</title>
<g id="a_edge33_Node000026_Node000014"><a xlink:title=" ">
<path fill="none" stroke="#63b8ff" d="M522,-492.08C540.45,-495.43 561.33,-499.23 580.78,-502.76"/>
<polygon fill="#63b8ff" stroke="#63b8ff" points="580.08,-506.19 590.55,-504.53 581.34,-499.3 580.08,-506.19"/>
</a>
</g>
</g>
<!-- Node27&#45;&gt;Node4 -->
<g id="edge36_Node000027_Node000004" class="edge">
<title>Node27&#45;&gt;Node4</title>
<g id="a_edge36_Node000027_Node000004"><a xlink:title=" ">
<path fill="none" stroke="#63b8ff" d="M671.03,-681.83C691.33,-665.39 724.72,-640.43 757.25,-625.27 822.83,-594.71 852.44,-619.87 914.25,-582.27 957.58,-555.91 994.47,-507.96 1013.03,-481.01"/>
<polygon fill="#63b8ff" stroke="#63b8ff" points="1015.91,-483 1018.58,-472.75 1010.1,-479.1 1015.91,-483"/>
</a>
</g>
</g>
<!-- Node27&#45;&gt;Node18 -->
<g id="edge35_Node000027_Node000018" class="edge">
<title>Node27&#45;&gt;Node18</title>
<g id="a_edge35_Node000027_Node000018"><a xlink:title=" ">
<path fill="none" stroke="#63b8ff" d="M656.92,-714.65C668.72,-748.04 700.68,-823.36 757.25,-853.27 900.24,-928.86 1012.96,-875.29 1103.5,-741.27 1158.17,-660.34 1175.9,-344.44 1179.75,-258.79"/>
<polygon fill="#63b8ff" stroke="#63b8ff" points="1183.24,-259.14 1180.17,-249 1176.24,-258.84 1183.24,-259.14"/>
</a>
</g>
</g>
<!-- Node28 -->
<g id="Node000028" class="node">
<title>Node28</title>
<g id="a_Node000028"><a xlink:href="namespaceLGE_1_1LxFS.html#a5684a30f3fa2906f4dafed0258a79166" target="_top" xlink:title=" ">
<polygon fill="white" stroke="#666666" points="895.88,-730.27 775.62,-730.27 775.62,-710.27 895.88,-710.27 895.88,-730.27"/>
<text xml:space="preserve" text-anchor="middle" x="835.75" y="-716.77" font-family="Helvetica,sans-Serif" font-size="10.00">LGE::LxFS::IsInitialized</text>
</a>
</g>
</g>
<!-- Node27&#45;&gt;Node28 -->
<g id="edge37_Node000027_Node000028" class="edge">
<title>Node27&#45;&gt;Node28</title>
<g id="a_edge37_Node000027_Node000028"><a xlink:title=" ">
<path fill="none" stroke="#63b8ff" d="M718.26,-706.27C733.09,-708.06 748.86,-709.95 763.86,-711.75"/>
<polygon fill="#63b8ff" stroke="#63b8ff" points="763.3,-715.21 773.64,-712.93 764.13,-708.26 763.3,-715.21"/>
</a>
</g>
</g>
<!-- Node29 -->
<g id="Node000029" class="node">
<title>Node29</title>
<g id="a_Node000029"><a xlink:href="namespaceLGE_1_1VFS.html#a54b012d377481aa3685b372a196259ed" target="_top" xlink:title=" ">
<polygon fill="white" stroke="#666666" points="892.88,-844.27 778.62,-844.27 778.62,-824.27 892.88,-824.27 892.88,-844.27"/>
<text xml:space="preserve" text-anchor="middle" x="835.75" y="-830.77" font-family="Helvetica,sans-Serif" font-size="10.00">LGE::VFS::MountPath</text>
</a>
</g>
</g>
<!-- Node27&#45;&gt;Node29 -->
<g id="edge38_Node000027_Node000029" class="edge">
<title>Node27&#45;&gt;Node29</title>
<g id="a_edge38_Node000027_Node000029"><a xlink:title=" ">
<path fill="none" stroke="#63b8ff" d="M673.71,-714.67C708.67,-740.63 776.4,-790.93 811.85,-817.26"/>
<polygon fill="#63b8ff" stroke="#63b8ff" points="809.61,-819.96 819.73,-823.11 813.78,-814.34 809.61,-819.96"/>
</a>
</g>
</g>
<!-- Node30 -->
<g id="Node000030" class="node">
<title>Node30</title>
<g id="a_Node000030"><a xlink:href="namespaceLGE_1_1LxFS.html#a12aeb6699602f14153953dceb4284914" target="_top" xlink:title=" ">
<polygon fill="white" stroke="#666666" points="883.88,-692.27 787.62,-692.27 787.62,-672.27 883.88,-672.27 883.88,-692.27"/>
<text xml:space="preserve" text-anchor="middle" x="835.75" y="-678.77" font-family="Helvetica,sans-Serif" font-size="10.00">LGE::LxFS::Paths</text>
</a>
</g>
</g>
<!-- Node27&#45;&gt;Node30 -->
<g id="edge42_Node000027_Node000030" class="edge">
<title>Node27&#45;&gt;Node30</title>
<g id="a_edge42_Node000027_Node000030"><a xlink:title=" ">
<path fill="none" stroke="#63b8ff" d="M718.26,-692.45C737.14,-690.8 757.55,-689.01 775.93,-687.41"/>
<polygon fill="#63b8ff" stroke="#63b8ff" points="776.22,-690.9 785.87,-686.54 775.61,-683.92 776.22,-690.9"/>
</a>
</g>
</g>
<!-- Node29&#45;&gt;Node4 -->
<g id="edge40_Node000029_Node000004" class="edge">
<title>Node29&#45;&gt;Node4</title>
<g id="a_edge40_Node000029_Node000004"><a xlink:title=" ">
<path fill="none" stroke="#63b8ff" d="M893.16,-824.84C901.11,-821.37 908.51,-816.66 914.25,-810.27 970.19,-747.92 924.53,-704.99 950.25,-625.27 967.66,-571.32 998.2,-511.77 1014.64,-481.44"/>
<polygon fill="#63b8ff" stroke="#63b8ff" points="1017.54,-483.44 1019.28,-472.98 1011.4,-480.07 1017.54,-483.44"/>
</a>
</g>
</g>
<!-- Node29&#45;&gt;Node17 -->
<g id="edge41_Node000029_Node000017" class="edge">
<title>Node29&#45;&gt;Node17</title>
<g id="a_edge41_Node000029_Node000017"><a xlink:title=" ">
<path fill="none" stroke="#63b8ff" d="M889.97,-823.81C898.68,-820.47 907.16,-816.07 914.25,-810.27 940.11,-789.11 932.12,-772.34 950.25,-744.27 969.14,-715.02 993.95,-683.27 1009.91,-663.58"/>
<polygon fill="#63b8ff" stroke="#63b8ff" points="1012.59,-665.82 1016.21,-655.87 1007.17,-661.4 1012.59,-665.82"/>
</a>
</g>
</g>
<!-- Node29&#45;&gt;Node18 -->
<g id="edge39_Node000029_Node000018" class="edge">
<title>Node29&#45;&gt;Node18</title>
<g id="a_edge39_Node000029_Node000018"><a xlink:title=" ">
<path fill="none" stroke="#63b8ff" d="M880.08,-823.85C891.52,-820.31 903.63,-815.8 914.25,-810.27 1008.7,-761.05 1048.31,-754.36 1103.5,-663.27 1145.75,-593.54 1171.78,-336.05 1178.74,-259.11"/>
<polygon fill="#63b8ff" stroke="#63b8ff" points="1182.22,-259.42 1179.62,-249.15 1175.25,-258.81 1182.22,-259.42"/>
</a>
</g>
</g>
<!-- Node31&#45;&gt;Node4 -->
<g id="edge48_Node000031_Node000004" class="edge">
<title>Node31&#45;&gt;Node4</title>
<g id="a_edge48_Node000031_Node000004"><a xlink:title=" ">
<path fill="none" stroke="#63b8ff" d="M494.34,-247.74C516.82,-256.36 550.14,-268.39 580,-276.27 653.01,-295.52 848.32,-300.46 914.25,-337.27 959.55,-362.56 996.11,-413.16 1013.98,-441.28"/>
<polygon fill="#63b8ff" stroke="#63b8ff" points="1010.86,-442.89 1019.09,-449.56 1016.82,-439.22 1010.86,-442.89"/>
</a>
</g>
</g>
<!-- Node31&#45;&gt;Node18 -->
<g id="edge47_Node000031_Node000018" class="edge">
<title>Node31&#45;&gt;Node18</title>
<g id="a_edge47_Node000031_Node000018"><a xlink:title=" ">
<path fill="none" stroke="#63b8ff" d="M478.98,-226.97C498.53,-208.86 540.99,-170.56 580,-142.27 654.87,-87.98 669.3,-61.87 757.25,-33.27 839.07,-6.66 864.28,-21.6 950.25,-18.27 1018.31,-15.63 1047.91,21.09 1103.5,-18.27 1168.62,-64.37 1179.14,-170.1 1180.57,-215.69"/>
<polygon fill="#63b8ff" stroke="#63b8ff" points="1177.07,-215.64 1180.74,-225.57 1184.07,-215.52 1177.07,-215.64"/>
</a>
</g>
</g>
<!-- Node31&#45;&gt;Node19 -->
<g id="edge62_Node000031_Node000019" class="edge">
<title>Node31&#45;&gt;Node19</title>
<g id="a_edge62_Node000031_Node000019"><a xlink:title=" ">
<path fill="none" stroke="#63b8ff" d="M523.39,-247.72C541.4,-250.84 561.5,-254.01 580,-256.27 649.38,-264.72 729.87,-269.97 781.51,-272.75"/>
<polygon fill="#63b8ff" stroke="#63b8ff" points="781.03,-276.23 791.2,-273.26 781.4,-269.24 781.03,-276.23"/>
</a>
</g>
</g>
<!-- Node32 -->
<g id="Node000032" class="node">
<title>Node32</title>
<g id="a_Node000032"><a xlink:href="namespaceLGE_1_1LxFS.html#afaba8b74a530d174bcd4849ffe5b7c75" target="_top" xlink:title=" ">
<polygon fill="white" stroke="#666666" points="719,-247.27 582.25,-247.27 582.25,-227.27 719,-227.27 719,-247.27"/>
<text xml:space="preserve" text-anchor="middle" x="650.62" y="-233.77" font-family="Helvetica,sans-Serif" font-size="10.00">LGE::LxFS::EnsureScaffold</text>
</a>
</g>
</g>
<!-- Node31&#45;&gt;Node32 -->
<g id="edge44_Node000031_Node000032" class="edge">
<title>Node31&#45;&gt;Node32</title>
<g id="a_edge44_Node000031_Node000032"><a xlink:title=" ">
<path fill="none" stroke="#63b8ff" d="M536.15,-237.27C547.4,-237.27 559.14,-237.27 570.63,-237.27"/>
<polygon fill="#63b8ff" stroke="#63b8ff" points="570.49,-240.77 580.49,-237.27 570.49,-233.77 570.49,-240.77"/>
</a>
</g>
</g>
<!-- Node33 -->
<g id="Node000033" class="node">
<title>Node33</title>
<g id="a_Node000033"><a xlink:href="namespaceLGE_1_1LxFS.html#aa5a204e25e73c7d4ec733b032028351e" target="_top" xlink:title=" ">
<polygon fill="white" stroke="#666666" points="715.25,-171.27 586,-171.27 586,-151.27 715.25,-151.27 715.25,-171.27"/>
<text xml:space="preserve" text-anchor="middle" x="650.62" y="-157.77" font-family="Helvetica,sans-Serif" font-size="10.00">LGE::LxFS::LoadManifest</text>
</a>
</g>
</g>
<!-- Node31&#45;&gt;Node33 -->
<g id="edge49_Node000031_Node000033" class="edge">
<title>Node31&#45;&gt;Node33</title>
<g id="a_edge49_Node000031_Node000033"><a xlink:title=" ">
<path fill="none" stroke="#63b8ff" d="M488.77,-226.84C511.05,-215.85 547.59,-198.34 580,-185.27 588.42,-181.87 597.53,-178.51 606.29,-175.43"/>
<polygon fill="#63b8ff" stroke="#63b8ff" points="607.39,-178.76 615.7,-172.19 605.11,-172.14 607.39,-178.76"/>
</a>
</g>
</g>
<!-- Node37 -->
<g id="Node000037" class="node">
<title>Node37</title>
<g id="a_Node000037"><a xlink:href="namespaceLGE_1_1LxFS.html#a6d72399c0ba33d7d484f7adbf4affc1e" target="_top" xlink:title=" ">
<polygon fill="white" stroke="#666666" points="901.12,-171.27 770.38,-171.27 770.38,-151.27 901.12,-151.27 901.12,-171.27"/>
<text xml:space="preserve" text-anchor="middle" x="835.75" y="-157.77" font-family="Helvetica,sans-Serif" font-size="10.00">LGE::LxFS::SaveManifest</text>
</a>
</g>
</g>
<!-- Node31&#45;&gt;Node37 -->
<g id="edge61_Node000031_Node000037" class="edge">
<title>Node31&#45;&gt;Node37</title>
<g id="a_edge61_Node000031_Node000037"><a xlink:title=" ">
<path fill="none" stroke="#63b8ff" d="M518.61,-226.78C585.11,-213 701.8,-188.82 773.29,-174"/>
<polygon fill="#63b8ff" stroke="#63b8ff" points="773.8,-177.47 782.88,-172.02 772.38,-170.62 773.8,-177.47"/>
</a>
</g>
</g>
<!-- Node32&#45;&gt;Node18 -->
<g id="edge45_Node000032_Node000018" class="edge">
<title>Node32&#45;&gt;Node18</title>
<g id="a_edge45_Node000032_Node000018"><a xlink:title=" ">
<path fill="none" stroke="#63b8ff" d="M719.43,-237.27C826.19,-237.27 1031.24,-237.27 1127.83,-237.27"/>
<polygon fill="#63b8ff" stroke="#63b8ff" points="1127.55,-240.77 1137.55,-237.27 1127.55,-233.77 1127.55,-240.77"/>
</a>
</g>
</g>
<!-- Node32&#45;&gt;Node19 -->
<g id="edge46_Node000032_Node000019" class="edge">
<title>Node32&#45;&gt;Node19</title>
<g id="a_edge46_Node000032_Node000019"><a xlink:title=" ">
<path fill="none" stroke="#63b8ff" d="M702.15,-247.75C726.75,-252.86 756.34,-259 781.32,-264.18"/>
<polygon fill="#63b8ff" stroke="#63b8ff" points="780.45,-267.58 790.96,-266.18 781.88,-260.72 780.45,-267.58"/>
</a>
</g>
</g>
<!-- Node33&#45;&gt;Node4 -->
<g id="edge51_Node000033_Node000004" class="edge">
<title>Node33&#45;&gt;Node4</title>
<g id="a_edge51_Node000033_Node000004"><a xlink:title=" ">
<path fill="none" stroke="#63b8ff" d="M715.66,-171.15C773.26,-182.88 857.33,-207.38 914.25,-256.27 974,-307.59 1007.36,-399.14 1019.97,-440.26"/>
<polygon fill="#63b8ff" stroke="#63b8ff" points="1016.55,-441.03 1022.73,-449.64 1023.26,-439.05 1016.55,-441.03"/>
</a>
</g>
</g>
<!-- Node33&#45;&gt;Node18 -->
<g id="edge50_Node000033_Node000018" class="edge">
<title>Node33&#45;&gt;Node18</title>
<g id="a_edge50_Node000033_Node000018"><a xlink:title=" ">
<path fill="none" stroke="#63b8ff" d="M699.49,-150.8C717.51,-147.35 738.23,-143.97 757.25,-142.27 911.65,-128.49 961.35,-122.44 1103.5,-184.27 1124.15,-193.25 1145.06,-208.05 1159.88,-219.73"/>
<polygon fill="#63b8ff" stroke="#63b8ff" points="1157.53,-222.33 1167.5,-225.91 1161.94,-216.89 1157.53,-222.33"/>
</a>
</g>
</g>
<!-- Node33&#45;&gt;Node19 -->
<g id="edge60_Node000033_Node000019" class="edge">
<title>Node33&#45;&gt;Node19</title>
<g id="a_edge60_Node000033_Node000019"><a xlink:title=" ">
<path fill="none" stroke="#63b8ff" d="M668.2,-171.59C700.12,-191.46 770.36,-235.19 808.64,-259.01"/>
<polygon fill="#63b8ff" stroke="#63b8ff" points="806.46,-261.78 816.8,-264.09 810.16,-255.84 806.46,-261.78"/>
</a>
</g>
</g>
<!-- Node34 -->
<g id="Node000034" class="node">
<title>Node34</title>
<g id="a_Node000034"><a xlink:href="namespaceLGE_1_1Migration.html#a94f0cb325681d49b25e29f0bd2801422" target="_top" xlink:title=" ">
<polygon fill="white" stroke="#666666" points="914.25,-95.27 757.25,-95.27 757.25,-75.27 914.25,-75.27 914.25,-95.27"/>
<text xml:space="preserve" text-anchor="middle" x="835.75" y="-81.77" font-family="Helvetica,sans-Serif" font-size="10.00">LGE::Migration::MigrateManifest</text>
</a>
</g>
</g>
<!-- Node33&#45;&gt;Node34 -->
<g id="edge52_Node000033_Node000034" class="edge">
<title>Node33&#45;&gt;Node34</title>
<g id="a_edge52_Node000033_Node000034"><a xlink:title=" ">
<path fill="none" stroke="#63b8ff" d="M670.3,-150.96C691.1,-139.74 725.92,-121.74 757.25,-109.27 766.47,-105.6 776.49,-102.13 786.17,-99.03"/>
<polygon fill="#63b8ff" stroke="#63b8ff" points="786.93,-102.46 795.44,-96.14 784.85,-95.77 786.93,-102.46"/>
</a>
</g>
</g>
<!-- Node36 -->
<g id="Node000036" class="node">
<title>Node36</title>
<g id="a_Node000036"><a xlink:href="namespaceLGE_1_1Migration.html#ad2e0aa4e3fa0c4300ecf31c7f53a5d29" target="_top" xlink:title=" ">
<polygon fill="white" stroke="#666666" points="1103.5,-59.27 950.25,-59.27 950.25,-27.27 1103.5,-27.27 1103.5,-59.27"/>
<text xml:space="preserve" text-anchor="start" x="958.25" y="-45.77" font-family="Helvetica,sans-Serif" font-size="10.00">LGE::Migration::NeedsManifest</text>
<text xml:space="preserve" text-anchor="middle" x="1026.88" y="-33.77" font-family="Helvetica,sans-Serif" font-size="10.00">Migration</text>
</a>
</g>
</g>
<!-- Node33&#45;&gt;Node36 -->
<g id="edge56_Node000033_Node000036" class="edge">
<title>Node33&#45;&gt;Node36</title>
<g id="a_edge56_Node000033_Node000036"><a xlink:title=" ">
<path fill="none" stroke="#63b8ff" d="M659.24,-150.91C674.93,-130.5 713.12,-85.39 757.25,-66.27 814.19,-41.59 884.19,-36.31 938.46,-36.94"/>
<polygon fill="#63b8ff" stroke="#63b8ff" points="938.21,-40.44 948.28,-37.14 938.35,-33.44 938.21,-40.44"/>
</a>
</g>
</g>
<!-- Node33&#45;&gt;Node37 -->
<g id="edge57_Node000033_Node000037" class="edge">
<title>Node33&#45;&gt;Node37</title>
<g id="a_edge57_Node000033_Node000037"><a xlink:title=" ">
<path fill="none" stroke="#63b8ff" d="M715.67,-161.27C729.59,-161.27 744.44,-161.27 758.77,-161.27"/>
<polygon fill="#63b8ff" stroke="#63b8ff" points="758.61,-164.77 768.6,-161.27 758.6,-157.77 758.61,-164.77"/>
</a>
</g>
</g>
<!-- Node34&#45;&gt;Node4 -->
<g id="edge54_Node000034_Node000004" class="edge">
<title>Node34&#45;&gt;Node4</title>
<g id="a_edge54_Node000034_Node000004"><a xlink:title=" ">
<path fill="none" stroke="#63b8ff" d="M857.26,-95.74C874.67,-105.59 899.16,-121.85 914.25,-142.27 985.62,-238.8 1014.21,-384.79 1022.81,-439.53"/>
<polygon fill="#63b8ff" stroke="#63b8ff" points="1019.34,-439.99 1024.28,-449.36 1026.27,-438.95 1019.34,-439.99"/>
</a>
</g>
</g>
<!-- Node35 -->
<g id="Node000035" class="node">
<title>Node35</title>
<g id="a_Node000035"><a xlink:href="namespaceLGE_1_1MetaDB.html#aa5218c5875c7c064fac11782f4ca1783" target="_top" xlink:title=" ">
<polygon fill="white" stroke="#666666" points="1101.25,-97.27 952.5,-97.27 952.5,-77.27 1101.25,-77.27 1101.25,-97.27"/>
<text xml:space="preserve" text-anchor="middle" x="1026.88" y="-83.77" font-family="Helvetica,sans-Serif" font-size="10.00">LGE::MetaDB::GenerateGUID</text>
</a>
</g>
</g>
<!-- Node34&#45;&gt;Node35 -->
<g id="edge53_Node000034_Node000035" class="edge">
<title>Node34&#45;&gt;Node35</title>
<g id="a_edge53_Node000034_Node000035"><a xlink:title=" ">
<path fill="none" stroke="#63b8ff" d="M914.49,-86.09C923.14,-86.18 931.97,-86.28 940.7,-86.37"/>
<polygon fill="#63b8ff" stroke="#63b8ff" points="940.54,-89.87 950.57,-86.47 940.61,-82.87 940.54,-89.87"/>
</a>
</g>
</g>
<!-- Node34&#45;&gt;Node36 -->
<g id="edge55_Node000034_Node000036" class="edge">
<title>Node34&#45;&gt;Node36</title>
<g id="a_edge55_Node000034_Node000036"><a xlink:title=" ">
<path fill="none" stroke="#63b8ff" d="M883.99,-74.78C901.17,-70.96 921.16,-66.52 940.62,-62.2"/>
<polygon fill="#63b8ff" stroke="#63b8ff" points="941.19,-65.66 950.2,-60.07 939.68,-58.83 941.19,-65.66"/>
</a>
</g>
</g>
<!-- Node37&#45;&gt;Node4 -->
<g id="edge59_Node000037_Node000004" class="edge">
<title>Node37&#45;&gt;Node4</title>
<g id="a_edge59_Node000037_Node000004"><a xlink:title=" ">
<path fill="none" stroke="#63b8ff" d="M892.14,-171.71C900.21,-175.05 907.92,-179.45 914.25,-185.27 991.42,-256.21 1016.38,-387.98 1023.42,-439.67"/>
<polygon fill="#63b8ff" stroke="#63b8ff" points="1019.93,-440.01 1024.65,-449.49 1026.88,-439.13 1019.93,-440.01"/>
</a>
</g>
</g>
<!-- Node37&#45;&gt;Node18 -->
<g id="edge58_Node000037_Node000018" class="edge">
<title>Node37&#45;&gt;Node18</title>
<g id="a_edge58_Node000037_Node000018"><a xlink:title=" ">
<path fill="none" stroke="#63b8ff" d="M884.2,-171.76C948.12,-185.88 1061.52,-210.94 1127.99,-225.64"/>
<polygon fill="#63b8ff" stroke="#63b8ff" points="1127.04,-229.01 1137.56,-227.75 1128.55,-222.18 1127.04,-229.01"/>
</a>
</g>
</g>
</g>
</svg>
