<?xml version="1.0" encoding="UTF-8" standalone="no"?>
<!DOCTYPE svg PUBLIC "-//W3C//DTD SVG 1.1//EN"
 "http://www.w3.org/Graphics/SVG/1.1/DTD/svg11.dtd">
<!-- Generated by graphviz version 14.0.2 (20251019.1705)
 -->
<!-- Title: TEST Pages: 1 -->
<svg width="651pt" height="280pt"
 viewBox="0.00 0.00 651.00 280.00" xmlns="http://www.w3.org/2000/svg" xmlns:xlink="http://www.w3.org/1999/xlink">
<g id="graph0" class="graph" transform="scale(1 1) rotate(0) translate(4 276)">
<title>TEST</title>
<!-- Node1 -->
<g id="Node000001" class="node">
<title>Node1</title>
<g id="a_Node000001"><a xlink:title=" ">
<polygon fill="#999999" stroke="#666666" points="41.5,-178 0,-178 0,-158 41.5,-158 41.5,-178"/>
<text xml:space="preserve" text-anchor="middle" x="20.75" y="-164.5" font-family="Helvetica,sans-Serif" font-size="10.00">TEST</text>
</a>
</g>
</g>
<!-- Node2 -->
<g id="Node000002" class="node">
<title>Node2</title>
<g id="a_Node000002"><a xlink:href="namespaceLGE_1_1VFS.html#abb779fd365154cfbcb79fc4486a5b912" target="_top" xlink:title=" ">
<polygon fill="white" stroke="#666666" points="209.38,-272 86.88,-272 86.88,-252 209.38,-252 209.38,-272"/>
<text xml:space="preserve" text-anchor="middle" x="148.12" y="-258.5" font-family="Helvetica,sans-Serif" font-size="10.00">LGE::VFS::ClearMounts</text>
</a>
</g>
</g>
<!-- Node1&#45;&gt;Node2 -->
<g id="edge1_Node000001_Node000002" class="edge">
<title>Node1&#45;&gt;Node2</title>
<g id="a_edge1_Node000001_Node000002"><a xlink:title=" ">
<path fill="none" stroke="#63b8ff" d="M26.65,-178.47C34.83,-194.79 52.84,-226.17 77.5,-243 79.48,-244.35 81.55,-245.61 83.7,-246.78"/>
<polygon fill="#63b8ff" stroke="#63b8ff" points="82.2,-249.94 92.75,-250.97 85.15,-243.59 82.2,-249.94"/>
</a>
</g>
</g>
<!-- Node4 -->
<g id="Node000004" class="node">
<title>Node4</title>
<g id="a_Node000004"><a xlink:href="classLGE_1_1Testing_1_1TestUtils.html#a0fd112ce138a9e51581afaad3de74ecf" target="_top" xlink:title=" ">
<polygon fill="white" stroke="#666666" points="207.12,-234 89.12,-234 89.12,-202 207.12,-202 207.12,-234"/>
<text xml:space="preserve" text-anchor="start" x="97.12" y="-220.5" font-family="Helvetica,sans-Serif" font-size="10.00">LGE::Testing::TestUtils</text>
<text xml:space="preserve" text-anchor="middle" x="148.12" y="-208.5" font-family="Helvetica,sans-Serif" font-size="10.00">::CreateTestDir</text>
</a>
</g>
</g>
<!-- Node1&#45;&gt;Node4 -->
<g id="edge3_Node000001_Node000004" class="edge">
<title>Node1&#45;&gt;Node4</title>
<g id="a_edge3_Node000001_Node000004"><a xlink:title=" ">
<path fill="none" stroke="#63b8ff" d="M41.98,-177.52C52.49,-182.35 65.6,-188.2 77.5,-193 81.3,-194.53 85.23,-196.07 89.2,-197.59"/>
<polygon fill="#63b8ff" stroke="#63b8ff" points="87.74,-200.78 98.33,-201.01 90.2,-194.22 87.74,-200.78"/>
</a>
</g>
</g>
<!-- Node5 -->
<g id="Node000005" class="node">
<title>Node5</title>
<g id="a_Node000005"><a xlink:href="classLGE_1_1Testing_1_1TestUtils.html#a345e283ebede23eaacd1d9c9a1a8fb0d" target="_top" xlink:title=" ">
<polygon fill="white" stroke="#666666" points="207.12,-184 89.12,-184 89.12,-152 207.12,-152 207.12,-184"/>
<text xml:space="preserve" text-anchor="start" x="97.12" y="-170.5" font-family="Helvetica,sans-Serif" font-size="10.00">LGE::Testing::TestUtils</text>
<text xml:space="preserve" text-anchor="middle" x="148.12" y="-158.5" font-family="Helvetica,sans-Serif" font-size="10.00">::GetTempDir</text>
</a>
</g>
</g>
<!-- Node1&#45;&gt;Node5 -->
<g id="edge4_Node000001_Node000005" class="edge">
<title>Node1&#45;&gt;Node5</title>
<g id="a_edge4_Node000001_Node000005"><a xlink:title=" ">
<path fill="none" stroke="#63b8ff" d="M41.89,-168C51.8,-168 64.39,-168 77.38,-168"/>
<polygon fill="#63b8ff" stroke="#63b8ff" points="77.34,-171.5 87.34,-168 77.34,-164.5 77.34,-171.5"/>
</a>
</g>
</g>
<!-- Node6 -->
<g id="Node000006" class="node">
<title>Node6</title>
<g id="a_Node000006"><a xlink:href="namespaceLGE_1_1VFS.html#a54b012d377481aa3685b372a196259ed" target="_top" xlink:title=" ">
<polygon fill="white" stroke="#666666" points="205.25,-134 91,-134 91,-114 205.25,-114 205.25,-134"/>
<text xml:space="preserve" text-anchor="middle" x="148.12" y="-120.5" font-family="Helvetica,sans-Serif" font-size="10.00">LGE::VFS::MountPath</text>
</a>
</g>
</g>
<!-- Node1&#45;&gt;Node6 -->
<g id="edge5_Node000001_Node000006" class="edge">
<title>Node1&#45;&gt;Node6</title>
<g id="a_edge5_Node000001_Node000006"><a xlink:title=" ">
<path fill="none" stroke="#63b8ff" d="M41.83,-158.09C52.3,-153.15 65.42,-147.33 77.5,-143 82.82,-141.09 88.42,-139.27 94.05,-137.56"/>
<polygon fill="#63b8ff" stroke="#63b8ff" points="94.75,-141 103.37,-134.84 92.79,-134.28 94.75,-141"/>
</a>
</g>
</g>
<!-- Node9 -->
<g id="Node000009" class="node">
<title>Node9</title>
<g id="a_Node000009"><a xlink:href="namespaceLGE_1_1VFS.html#a9eb41e42c96a4f5358c79e30afb579cc" target="_top" xlink:title=" ">
<polygon fill="white" stroke="#666666" points="218.75,-77 77.5,-77 77.5,-57 218.75,-57 218.75,-77"/>
<text xml:space="preserve" text-anchor="middle" x="148.12" y="-63.5" font-family="Helvetica,sans-Serif" font-size="10.00">LGE::VFS::ResolveAbsolute</text>
</a>
</g>
</g>
<!-- Node1&#45;&gt;Node9 -->
<g id="edge10_Node000001_Node000009" class="edge">
<title>Node1&#45;&gt;Node9</title>
<g id="a_edge10_Node000001_Node000009"><a xlink:title=" ">
<path fill="none" stroke="#63b8ff" d="M29.13,-157.63C39.01,-144.25 57.63,-120.84 77.5,-105 88.33,-96.37 101.39,-88.66 113.26,-82.47"/>
<polygon fill="#63b8ff" stroke="#63b8ff" points="114.57,-85.73 121.95,-78.12 111.44,-79.47 114.57,-85.73"/>
</a>
</g>
</g>
<!-- Node3 -->
<g id="Node000003" class="node">
<title>Node3</title>
<g id="a_Node000003"><a xlink:href="classLGE_1_1Log.html#ab0265ee050b8873a2fd31fbdb696ced0" target="_top" xlink:title=" ">
<polygon fill="white" stroke="#666666" points="349.5,-241 269.75,-241 269.75,-221 349.5,-221 349.5,-241"/>
<text xml:space="preserve" text-anchor="middle" x="309.62" y="-227.5" font-family="Helvetica,sans-Serif" font-size="10.00">LGE::Log::Info</text>
</a>
</g>
</g>
<!-- Node2&#45;&gt;Node3 -->
<g id="edge2_Node000002_Node000003" class="edge">
<title>Node2&#45;&gt;Node3</title>
<g id="a_edge2_Node000002_Node000003"><a xlink:title=" ">
<path fill="none" stroke="#63b8ff" d="M203.12,-251.5C220.92,-248.05 240.63,-244.22 258.15,-240.81"/>
<polygon fill="#63b8ff" stroke="#63b8ff" points="258.67,-244.28 267.81,-238.93 257.33,-237.4 258.67,-244.28"/>
</a>
</g>
</g>
<!-- Node6&#45;&gt;Node3 -->
<g id="edge7_Node000006_Node000003" class="edge">
<title>Node6&#45;&gt;Node3</title>
<g id="a_edge7_Node000006_Node000003"><a xlink:title=" ">
<path fill="none" stroke="#63b8ff" d="M199.43,-134.41C206.15,-136.74 212.77,-139.57 218.75,-143 227.14,-147.81 266.99,-188.14 290.72,-212.5"/>
<polygon fill="#63b8ff" stroke="#63b8ff" points="288.11,-214.84 297.59,-219.57 293.13,-209.96 288.11,-214.84"/>
</a>
</g>
</g>
<!-- Node7 -->
<g id="Node000007" class="node">
<title>Node7</title>
<g id="a_Node000007"><a xlink:href="classLGE_1_1Log.html#a53f3f4b8797ffd18145739c9e66d690a" target="_top" xlink:title=" ">
<polygon fill="white" stroke="#666666" points="643.25,-153 559,-153 559,-133 643.25,-133 643.25,-153"/>
<text xml:space="preserve" text-anchor="middle" x="601.12" y="-139.5" font-family="Helvetica,sans-Serif" font-size="10.00">LGE::Log::Error</text>
</a>
</g>
</g>
<!-- Node6&#45;&gt;Node7 -->
<g id="edge6_Node000006_Node000007" class="edge">
<title>Node6&#45;&gt;Node7</title>
<g id="a_edge6_Node000006_Node000007"><a xlink:title=" ">
<path fill="none" stroke="#63b8ff" d="M205.48,-132.5C221.38,-134.62 238.71,-136.67 254.75,-138 358.13,-146.6 479.5,-145.86 547.35,-144.48"/>
<polygon fill="#63b8ff" stroke="#63b8ff" points="547.13,-147.98 557.05,-144.27 546.98,-140.98 547.13,-147.98"/>
</a>
</g>
</g>
<!-- Node8 -->
<g id="Node000008" class="node">
<title>Node8</title>
<g id="a_Node000008"><a xlink:href="namespaceLGE_1_1LxPath.html#a314a60ce690c90f4ee0b4e64c0199408" target="_top" xlink:title=" ">
<polygon fill="white" stroke="#666666" points="523,-134 400.5,-134 400.5,-114 523,-114 523,-134"/>
<text xml:space="preserve" text-anchor="middle" x="461.75" y="-120.5" font-family="Helvetica,sans-Serif" font-size="10.00">LGE::LxPath::Normalize</text>
</a>
</g>
</g>
<!-- Node6&#45;&gt;Node8 -->
<g id="edge8_Node000006_Node000008" class="edge">
<title>Node6&#45;&gt;Node8</title>
<g id="a_edge8_Node000006_Node000008"><a xlink:title=" ">
<path fill="none" stroke="#63b8ff" d="M205.56,-124C257,-124 333.25,-124 389,-124"/>
<polygon fill="#63b8ff" stroke="#63b8ff" points="388.7,-127.5 398.7,-124 388.7,-120.5 388.7,-127.5"/>
</a>
</g>
</g>
<!-- Node8&#45;&gt;Node7 -->
<g id="edge9_Node000008_Node000007" class="edge">
<title>Node8&#45;&gt;Node7</title>
<g id="a_edge9_Node000008_Node000007"><a xlink:title=" ">
<path fill="none" stroke="#63b8ff" d="M523.4,-132.39C531.42,-133.5 539.59,-134.63 547.45,-135.72"/>
<polygon fill="#63b8ff" stroke="#63b8ff" points="546.83,-139.16 557.22,-137.07 547.79,-132.23 546.83,-139.16"/>
</a>
</g>
</g>
<!-- Node10 -->
<g id="Node000010" class="node">
<title>Node10</title>
<g id="a_Node000010"><a xlink:href="namespaceLGE_1_1VFS.html#a0566c02123208c6b867418e914f9574b" target="_top" xlink:title=" ">
<polygon fill="white" stroke="#666666" points="364.5,-96 254.75,-96 254.75,-76 364.5,-76 364.5,-96"/>
<text xml:space="preserve" text-anchor="middle" x="309.62" y="-82.5" font-family="Helvetica,sans-Serif" font-size="10.00">LGE::VFS::GetMount</text>
</a>
</g>
</g>
<!-- Node9&#45;&gt;Node10 -->
<g id="edge11_Node000009_Node000010" class="edge">
<title>Node9&#45;&gt;Node10</title>
<g id="a_edge11_Node000009_Node000010"><a xlink:title=" ">
<path fill="none" stroke="#63b8ff" d="M219.08,-75.33C227.16,-76.3 235.38,-77.27 243.39,-78.23"/>
<polygon fill="#63b8ff" stroke="#63b8ff" points="242.7,-81.67 253.04,-79.38 243.53,-74.72 242.7,-81.67"/>
</a>
</g>
</g>
<!-- Node11 -->
<g id="Node000011" class="node">
<title>Node11</title>
<g id="a_Node000011"><a xlink:href="namespaceLGE_1_1LxPath.html#a94ec3bdfd6948ddc25cda5d18154d4cf" target="_top" xlink:title=" ">
<polygon fill="white" stroke="#666666" points="357.75,-58 261.5,-58 261.5,-38 357.75,-38 357.75,-58"/>
<text xml:space="preserve" text-anchor="middle" x="309.62" y="-44.5" font-family="Helvetica,sans-Serif" font-size="10.00">LGE::LxPath::Join</text>
</a>
</g>
</g>
<!-- Node9&#45;&gt;Node11 -->
<g id="edge12_Node000009_Node000011" class="edge">
<title>Node9&#45;&gt;Node11</title>
<g id="a_edge12_Node000009_Node000011"><a xlink:title=" ">
<path fill="none" stroke="#63b8ff" d="M219.08,-58.67C229.42,-57.43 239.98,-56.18 250.06,-54.98"/>
<polygon fill="#63b8ff" stroke="#63b8ff" points="250.17,-58.49 259.69,-53.83 249.34,-51.54 250.17,-58.49"/>
</a>
</g>
</g>
<!-- Node12 -->
<g id="Node000012" class="node">
<title>Node12</title>
<g id="a_Node000012"><a xlink:href="classLGE_1_1Log.html#aa6f98018af29c23dd7f574d3df5dda5e" target="_top" xlink:title=" ">
<polygon fill="white" stroke="#666666" points="352.5,-20 266.75,-20 266.75,0 352.5,0 352.5,-20"/>
<text xml:space="preserve" text-anchor="middle" x="309.62" y="-6.5" font-family="Helvetica,sans-Serif" font-size="10.00">LGE::Log::Warn</text>
</a>
</g>
</g>
<!-- Node9&#45;&gt;Node12 -->
<g id="edge14_Node000009_Node000012" class="edge">
<title>Node9&#45;&gt;Node12</title>
<g id="a_edge14_Node000009_Node000012"><a xlink:title=" ">
<path fill="none" stroke="#63b8ff" d="M177.8,-56.63C199.03,-48.96 228.68,-38.29 254.75,-29 259.16,-27.43 263.78,-25.79 268.38,-24.16"/>
<polygon fill="#63b8ff" stroke="#63b8ff" points="269.28,-27.56 277.55,-20.92 266.95,-20.95 269.28,-27.56"/>
</a>
</g>
</g>
<!-- Node11&#45;&gt;Node8 -->
<g id="edge13_Node000011_Node000008" class="edge">
<title>Node11&#45;&gt;Node8</title>
<g id="a_edge13_Node000011_Node000008"><a xlink:title=" ">
<path fill="none" stroke="#63b8ff" d="M343.51,-58.45C350.54,-61 357.85,-63.89 364.5,-67 389.71,-78.77 416.84,-95.22 435.86,-107.42"/>
<polygon fill="#63b8ff" stroke="#63b8ff" points="433.7,-110.19 443.99,-112.71 437.52,-104.33 433.7,-110.19"/>
</a>
</g>
</g>
</g>
</svg>
