<?xml version="1.0" encoding="UTF-8" standalone="no"?>
<!DOCTYPE svg PUBLIC "-//W3C//DTD SVG 1.1//EN"
 "http://www.w3.org/Graphics/SVG/1.1/DTD/svg11.dtd">
<!-- Generated by graphviz version 14.0.2 (20251019.1705)
 -->
<!-- Title: TEST Pages: 1 -->
<svg width="822pt" height="242pt"
 viewBox="0.00 0.00 822.00 242.00" xmlns="http://www.w3.org/2000/svg" xmlns:xlink="http://www.w3.org/1999/xlink">
<g id="graph0" class="graph" transform="scale(1 1) rotate(0) translate(4 238)">
<title>TEST</title>
<!-- Node1 -->
<g id="Node000001" class="node">
<title>Node1</title>
<g id="a_Node000001"><a xlink:title=" ">
<polygon fill="#999999" stroke="#666666" points="41.5,-127 0,-127 0,-107 41.5,-107 41.5,-127"/>
<text xml:space="preserve" text-anchor="middle" x="20.75" y="-113.5" font-family="Helvetica,sans-Serif" font-size="10.00">TEST</text>
</a>
</g>
</g>
<!-- Node2 -->
<g id="Node000002" class="node">
<title>Node2</title>
<g id="a_Node000002"><a xlink:href="namespaceLGE_1_1LxFile.html#a7a3f0b3462a34877039001eb0aaac788" target="_top" xlink:title=" ">
<polygon fill="white" stroke="#666666" points="220.25,-234 77.5,-234 77.5,-214 220.25,-214 220.25,-234"/>
<text xml:space="preserve" text-anchor="middle" x="148.88" y="-220.5" font-family="Helvetica,sans-Serif" font-size="10.00">LGE::LxFile::CreateDirectory</text>
</a>
</g>
</g>
<!-- Node1&#45;&gt;Node2 -->
<g id="edge1_Node000001_Node000002" class="edge">
<title>Node1&#45;&gt;Node2</title>
<g id="a_edge1_Node000001_Node000002"><a xlink:title=" ">
<path fill="none" stroke="#63b8ff" d="M25.44,-127.47C32.52,-146.02 49.83,-184.62 77.5,-205 79.26,-206.29 81.1,-207.5 83,-208.63"/>
<polygon fill="#63b8ff" stroke="#63b8ff" points="81.1,-211.59 91.61,-212.91 84.22,-205.32 81.1,-211.59"/>
</a>
</g>
</g>
<!-- Node7 -->
<g id="Node000007" class="node">
<title>Node7</title>
<g id="a_Node000007"><a xlink:href="classLGE_1_1Testing_1_1TestUtils.html#a345e283ebede23eaacd1d9c9a1a8fb0d" target="_top" xlink:title=" ">
<polygon fill="white" stroke="#666666" points="207.88,-196 89.88,-196 89.88,-164 207.88,-164 207.88,-196"/>
<text xml:space="preserve" text-anchor="start" x="97.88" y="-182.5" font-family="Helvetica,sans-Serif" font-size="10.00">LGE::Testing::TestUtils</text>
<text xml:space="preserve" text-anchor="middle" x="148.88" y="-170.5" font-family="Helvetica,sans-Serif" font-size="10.00">::GetTempDir</text>
</a>
</g>
</g>
<!-- Node1&#45;&gt;Node7 -->
<g id="edge8_Node000001_Node000007" class="edge">
<title>Node1&#45;&gt;Node7</title>
<g id="a_edge8_Node000001_Node000007"><a xlink:title=" ">
<path fill="none" stroke="#63b8ff" d="M34.89,-127.39C45.82,-135.68 62.04,-147.15 77.5,-155 80.37,-156.46 83.35,-157.87 86.39,-159.23"/>
<polygon fill="#63b8ff" stroke="#63b8ff" points="84.89,-162.4 95.46,-163.05 87.61,-155.94 84.89,-162.4"/>
</a>
</g>
</g>
<!-- Node8 -->
<g id="Node000008" class="node">
<title>Node8</title>
<g id="a_Node000008"><a xlink:href="namespaceLGE_1_1LxFile.html#aefeac425ba46d16739c0873b3740191c" target="_top" xlink:title=" ">
<polygon fill="white" stroke="#666666" points="209.75,-146 88,-146 88,-126 209.75,-126 209.75,-146"/>
<text xml:space="preserve" text-anchor="middle" x="148.88" y="-132.5" font-family="Helvetica,sans-Serif" font-size="10.00">LGE::LxFile::IsDirectory</text>
</a>
</g>
</g>
<!-- Node1&#45;&gt;Node8 -->
<g id="edge9_Node000001_Node000008" class="edge">
<title>Node1&#45;&gt;Node8</title>
<g id="a_edge9_Node000001_Node000008"><a xlink:title=" ">
<path fill="none" stroke="#63b8ff" d="M41.73,-120.01C51.41,-121.47 63.66,-123.31 76.39,-125.23"/>
<polygon fill="#63b8ff" stroke="#63b8ff" points="75.73,-128.67 86.14,-126.7 76.77,-121.75 75.73,-128.67"/>
</a>
</g>
</g>
<!-- Node9 -->
<g id="Node000009" class="node">
<title>Node9</title>
<g id="a_Node000009"><a xlink:href="namespaceLGE_1_1LxFile.html#a16bd14fd1af0cad0e89bcd8d5841e7fd" target="_top" xlink:title=" ">
<polygon fill="white" stroke="#666666" points="197.75,-108 100,-108 100,-88 197.75,-88 197.75,-108"/>
<text xml:space="preserve" text-anchor="middle" x="148.88" y="-94.5" font-family="Helvetica,sans-Serif" font-size="10.00">LGE::LxFile::IsFile</text>
</a>
</g>
</g>
<!-- Node1&#45;&gt;Node9 -->
<g id="edge10_Node000001_Node000009" class="edge">
<title>Node1&#45;&gt;Node9</title>
<g id="a_edge10_Node000001_Node000009"><a xlink:title=" ">
<path fill="none" stroke="#63b8ff" d="M41.73,-113.99C54.5,-112.07 71.77,-109.46 88.67,-106.92"/>
<polygon fill="#63b8ff" stroke="#63b8ff" points="88.81,-110.44 98.18,-105.49 87.77,-103.52 88.81,-110.44"/>
</a>
</g>
</g>
<!-- Node10 -->
<g id="Node000010" class="node">
<title>Node10</title>
<g id="a_Node000010"><a xlink:href="classLGE_1_1Testing_1_1TestUtils.html#a440e289c0fd9269ce9a79ab8e77e700f" target="_top" xlink:title=" ">
<polygon fill="white" stroke="#666666" points="207.88,-70 89.88,-70 89.88,-38 207.88,-38 207.88,-70"/>
<text xml:space="preserve" text-anchor="start" x="97.88" y="-56.5" font-family="Helvetica,sans-Serif" font-size="10.00">LGE::Testing::TestUtils</text>
<text xml:space="preserve" text-anchor="middle" x="148.88" y="-44.5" font-family="Helvetica,sans-Serif" font-size="10.00">::RemovePath</text>
</a>
</g>
</g>
<!-- Node1&#45;&gt;Node10 -->
<g id="edge11_Node000001_Node000010" class="edge">
<title>Node1&#45;&gt;Node10</title>
<g id="a_edge11_Node000001_Node000010"><a xlink:title=" ">
<path fill="none" stroke="#63b8ff" d="M34.89,-106.61C45.82,-98.32 62.04,-86.85 77.5,-79 80.37,-77.54 83.35,-76.13 86.39,-74.77"/>
<polygon fill="#63b8ff" stroke="#63b8ff" points="87.61,-78.06 95.46,-70.95 84.89,-71.6 87.61,-78.06"/>
</a>
</g>
</g>
<!-- Node11 -->
<g id="Node000011" class="node">
<title>Node11</title>
<g id="a_Node000011"><a xlink:href="namespaceLGE_1_1LxFile.html#a06d0b8c5590da8bc48cf22d321fc4074" target="_top" xlink:title=" ">
<polygon fill="white" stroke="#666666" points="202.62,-20 95.12,-20 95.12,0 202.62,0 202.62,-20"/>
<text xml:space="preserve" text-anchor="middle" x="148.88" y="-6.5" font-family="Helvetica,sans-Serif" font-size="10.00">LGE::LxFile::WriteAll</text>
</a>
</g>
</g>
<!-- Node1&#45;&gt;Node11 -->
<g id="edge12_Node000001_Node000011" class="edge">
<title>Node1&#45;&gt;Node11</title>
<g id="a_edge12_Node000001_Node000011"><a xlink:title=" ">
<path fill="none" stroke="#63b8ff" d="M25.44,-106.53C32.52,-87.98 49.83,-49.38 77.5,-29 79.69,-27.39 82.01,-25.91 84.43,-24.56"/>
<polygon fill="#63b8ff" stroke="#63b8ff" points="85.85,-27.76 93.39,-20.32 82.86,-21.43 85.85,-27.76"/>
</a>
</g>
</g>
<!-- Node3 -->
<g id="Node000003" class="node">
<title>Node3</title>
<g id="a_Node000003"><a xlink:href="classLGE_1_1Log.html#a53f3f4b8797ffd18145739c9e66d690a" target="_top" xlink:title=" ">
<polygon fill="white" stroke="#666666" points="813.75,-152 729.5,-152 729.5,-132 813.75,-132 813.75,-152"/>
<text xml:space="preserve" text-anchor="middle" x="771.62" y="-138.5" font-family="Helvetica,sans-Serif" font-size="10.00">LGE::Log::Error</text>
</a>
</g>
</g>
<!-- Node2&#45;&gt;Node3 -->
<g id="edge2_Node000002_Node000003" class="edge">
<title>Node2&#45;&gt;Node3</title>
<g id="a_edge2_Node000002_Node000003"><a xlink:title=" ">
<path fill="none" stroke="#63b8ff" d="M220.68,-218.75C324.85,-210.37 525.26,-191.69 693.5,-161 702.57,-159.35 712.15,-157.26 721.37,-155.08"/>
<polygon fill="#63b8ff" stroke="#63b8ff" points="722.02,-158.53 730.91,-152.76 720.36,-151.73 722.02,-158.53"/>
</a>
</g>
</g>
<!-- Node4 -->
<g id="Node000004" class="node">
<title>Node4</title>
<g id="a_Node000004"><a xlink:href="namespaceLGE_1_1VFS.html#abb5d35abfe80efe2f7a07394ad5b706a" target="_top" xlink:title=" ">
<polygon fill="white" stroke="#666666" points="375,-152 256.25,-152 256.25,-132 375,-132 375,-152"/>
<text xml:space="preserve" text-anchor="middle" x="315.62" y="-138.5" font-family="Helvetica,sans-Serif" font-size="10.00">LGE::VFS::IsReadOnly</text>
</a>
</g>
</g>
<!-- Node2&#45;&gt;Node4 -->
<g id="edge3_Node000002_Node000004" class="edge">
<title>Node2&#45;&gt;Node4</title>
<g id="a_edge3_Node000002_Node000004"><a xlink:title=" ">
<path fill="none" stroke="#63b8ff" d="M197.18,-213.51C205.04,-211.12 212.99,-208.3 220.25,-205 247.01,-192.85 274.63,-173.47 293.02,-159.41"/>
<polygon fill="#63b8ff" stroke="#63b8ff" points="295.06,-162.25 300.79,-153.34 290.75,-156.74 295.06,-162.25"/>
</a>
</g>
</g>
<!-- Node5 -->
<g id="Node000005" class="node">
<title>Node5</title>
<g id="a_Node000005"><a xlink:href="namespaceLGE_1_1LxPath.html#ab664986e94ce09aa029f9eb2fcf50133" target="_top" xlink:title=" ">
<polygon fill="white" stroke="#666666" points="535,-171 411,-171 411,-151 535,-151 535,-171"/>
<text xml:space="preserve" text-anchor="middle" x="473" y="-157.5" font-family="Helvetica,sans-Serif" font-size="10.00">LGE::LxPath::IsSubPath</text>
</a>
</g>
</g>
<!-- Node4&#45;&gt;Node5 -->
<g id="edge4_Node000004_Node000005" class="edge">
<title>Node4&#45;&gt;Node5</title>
<g id="a_edge4_Node000004_Node000005"><a xlink:title=" ">
<path fill="none" stroke="#63b8ff" d="M375.37,-149.18C383.19,-150.14 391.29,-151.13 399.32,-152.11"/>
<polygon fill="#63b8ff" stroke="#63b8ff" points="398.73,-155.57 409.09,-153.31 399.58,-148.62 398.73,-155.57"/>
</a>
</g>
</g>
<!-- Node6 -->
<g id="Node000006" class="node">
<title>Node6</title>
<g id="a_Node000006"><a xlink:href="namespaceLGE_1_1LxPath.html#a314a60ce690c90f4ee0b4e64c0199408" target="_top" xlink:title=" ">
<polygon fill="white" stroke="#666666" points="693.5,-152 571,-152 571,-132 693.5,-132 693.5,-152"/>
<text xml:space="preserve" text-anchor="middle" x="632.25" y="-138.5" font-family="Helvetica,sans-Serif" font-size="10.00">LGE::LxPath::Normalize</text>
</a>
</g>
</g>
<!-- Node4&#45;&gt;Node6 -->
<g id="edge7_Node000004_Node000006" class="edge">
<title>Node4&#45;&gt;Node6</title>
<g id="a_edge7_Node000004_Node000006"><a xlink:title=" ">
<path fill="none" stroke="#63b8ff" d="M375.43,-142C427.52,-142 503.7,-142 559.38,-142"/>
<polygon fill="#63b8ff" stroke="#63b8ff" points="559.07,-145.5 569.07,-142 559.07,-138.5 559.07,-145.5"/>
</a>
</g>
</g>
<!-- Node5&#45;&gt;Node6 -->
<g id="edge5_Node000005_Node000006" class="edge">
<title>Node5&#45;&gt;Node6</title>
<g id="a_edge5_Node000005_Node000006"><a xlink:title=" ">
<path fill="none" stroke="#63b8ff" d="M535.25,-153.6C543.16,-152.64 551.32,-151.66 559.38,-150.68"/>
<polygon fill="#63b8ff" stroke="#63b8ff" points="559.68,-154.17 569.18,-149.5 558.84,-147.22 559.68,-154.17"/>
</a>
</g>
</g>
<!-- Node6&#45;&gt;Node3 -->
<g id="edge6_Node000006_Node000003" class="edge">
<title>Node6&#45;&gt;Node3</title>
<g id="a_edge6_Node000006_Node000003"><a xlink:title=" ">
<path fill="none" stroke="#63b8ff" d="M693.9,-142C701.92,-142 710.09,-142 717.95,-142"/>
<polygon fill="#63b8ff" stroke="#63b8ff" points="717.7,-145.5 727.7,-142 717.7,-138.5 717.7,-145.5"/>
</a>
</g>
</g>
<!-- Node11&#45;&gt;Node3 -->
<g id="edge13_Node000011_Node000003" class="edge">
<title>Node11&#45;&gt;Node3</title>
<g id="a_edge13_Node000011_Node000003"><a xlink:title=" ">
<path fill="none" stroke="#63b8ff" d="M202.87,-20.35C300.27,-39.51 514.19,-82.29 693.5,-123 701.54,-124.83 710.04,-126.84 718.34,-128.84"/>
<polygon fill="#63b8ff" stroke="#63b8ff" points="717.45,-132.23 727.99,-131.21 719.11,-125.43 717.45,-132.23"/>
</a>
</g>
</g>
<!-- Node11&#45;&gt;Node4 -->
<g id="edge14_Node000011_Node000004" class="edge">
<title>Node11&#45;&gt;Node4</title>
<g id="a_edge14_Node000011_Node000004"><a xlink:title=" ">
<path fill="none" stroke="#63b8ff" d="M202.96,-20.37C209.05,-22.7 214.96,-25.53 220.25,-29 241.68,-43.03 239.91,-54.28 256.25,-74 270.29,-90.94 286.62,-109.9 298.44,-123.5"/>
<polygon fill="#63b8ff" stroke="#63b8ff" points="295.61,-125.58 304.82,-130.81 300.88,-120.98 295.61,-125.58"/>
</a>
</g>
</g>
</g>
</svg>
