<?xml version="1.0" encoding="UTF-8" standalone="no"?>
<!DOCTYPE svg PUBLIC "-//W3C//DTD SVG 1.1//EN"
 "http://www.w3.org/Graphics/SVG/1.1/DTD/svg11.dtd">
<!-- Generated by graphviz version 14.0.2 (20251019.1705)
 -->
<!-- Title: TEST Pages: 1 -->
<svg width="670pt" height="260pt"
 viewBox="0.00 0.00 670.00 260.00" xmlns="http://www.w3.org/2000/svg" xmlns:xlink="http://www.w3.org/1999/xlink">
<g id="graph0" class="graph" transform="scale(1 1) rotate(0) translate(4 256.11)">
<title>TEST</title>
<!-- Node1 -->
<g id="Node000001" class="node">
<title>Node1</title>
<g id="a_Node000001"><a xlink:title=" ">
<polygon fill="#999999" stroke="#666666" points="41.5,-136 0,-136 0,-116 41.5,-116 41.5,-136"/>
<text xml:space="preserve" text-anchor="middle" x="20.75" y="-122.5" font-family="Helvetica,sans-Serif" font-size="10.00">TEST</text>
</a>
</g>
</g>
<!-- Node2 -->
<g id="Node000002" class="node">
<title>Node2</title>
<g id="a_Node000002"><a xlink:href="namespaceLGE_1_1VFS.html#abb779fd365154cfbcb79fc4486a5b912" target="_top" xlink:title=" ">
<polygon fill="white" stroke="#666666" points="211.62,-196 89.12,-196 89.12,-176 211.62,-176 211.62,-196"/>
<text xml:space="preserve" text-anchor="middle" x="150.38" y="-182.5" font-family="Helvetica,sans-Serif" font-size="10.00">LGE::VFS::ClearMounts</text>
</a>
</g>
</g>
<!-- Node1&#45;&gt;Node2 -->
<g id="edge1_Node000001_Node000002" class="edge">
<title>Node1&#45;&gt;Node2</title>
<g id="a_edge1_Node000001_Node000002"><a xlink:title=" ">
<path fill="none" stroke="#63b8ff" d="M32.89,-136.18C43.59,-145.46 60.59,-158.91 77.5,-167 81.21,-168.78 85.11,-170.4 89.1,-171.89"/>
<polygon fill="#63b8ff" stroke="#63b8ff" points="87.75,-175.13 98.35,-175.03 90,-168.5 87.75,-175.13"/>
</a>
</g>
</g>
<!-- Node4 -->
<g id="Node000004" class="node">
<title>Node4</title>
<g id="a_Node000004"><a xlink:href="classLGE_1_1Testing_1_1TestUtils.html#a0fd112ce138a9e51581afaad3de74ecf" target="_top" xlink:title=" ">
<polygon fill="white" stroke="#666666" points="209.38,-120 91.38,-120 91.38,-88 209.38,-88 209.38,-120"/>
<text xml:space="preserve" text-anchor="start" x="99.38" y="-106.5" font-family="Helvetica,sans-Serif" font-size="10.00">LGE::Testing::TestUtils</text>
<text xml:space="preserve" text-anchor="middle" x="150.38" y="-94.5" font-family="Helvetica,sans-Serif" font-size="10.00">::CreateTestDir</text>
</a>
</g>
</g>
<!-- Node1&#45;&gt;Node4 -->
<g id="edge3_Node000001_Node000004" class="edge">
<title>Node1&#45;&gt;Node4</title>
<g id="a_edge3_Node000001_Node000004"><a xlink:title=" ">
<path fill="none" stroke="#63b8ff" d="M41.97,-122.51C52.45,-120.71 65.94,-118.38 79.8,-115.99"/>
<polygon fill="#63b8ff" stroke="#63b8ff" points="80.18,-119.48 89.44,-114.33 78.99,-112.58 80.18,-119.48"/>
</a>
</g>
</g>
<!-- Node5 -->
<g id="Node000005" class="node">
<title>Node5</title>
<g id="a_Node000005"><a xlink:href="classLGE_1_1Testing_1_1TestUtils.html#a345e283ebede23eaacd1d9c9a1a8fb0d" target="_top" xlink:title=" ">
<polygon fill="white" stroke="#666666" points="209.38,-70 91.38,-70 91.38,-38 209.38,-38 209.38,-70"/>
<text xml:space="preserve" text-anchor="start" x="99.38" y="-56.5" font-family="Helvetica,sans-Serif" font-size="10.00">LGE::Testing::TestUtils</text>
<text xml:space="preserve" text-anchor="middle" x="150.38" y="-44.5" font-family="Helvetica,sans-Serif" font-size="10.00">::GetTempDir</text>
</a>
</g>
</g>
<!-- Node1&#45;&gt;Node5 -->
<g id="edge4_Node000001_Node000005" class="edge">
<title>Node1&#45;&gt;Node5</title>
<g id="a_edge4_Node000001_Node000005"><a xlink:title=" ">
<path fill="none" stroke="#63b8ff" d="M31.57,-115.75C42.09,-105.27 59.68,-89.15 77.5,-79 79.82,-77.68 82.23,-76.41 84.69,-75.19"/>
<polygon fill="#63b8ff" stroke="#63b8ff" points="86.02,-78.43 93.67,-71.11 83.12,-72.06 86.02,-78.43"/>
</a>
</g>
</g>
<!-- Node6 -->
<g id="Node000006" class="node">
<title>Node6</title>
<g id="a_Node000006"><a xlink:href="namespaceLGE_1_1VFS.html#a3b77204931f0358cf094d1a0ffaa3bdd" target="_top" xlink:title=" ">
<polygon fill="white" stroke="#666666" points="223.25,-20 77.5,-20 77.5,0 223.25,0 223.25,-20"/>
<text xml:space="preserve" text-anchor="middle" x="150.38" y="-6.5" font-family="Helvetica,sans-Serif" font-size="10.00">LGE::VFS::IsMountReadOnly</text>
</a>
</g>
</g>
<!-- Node1&#45;&gt;Node6 -->
<g id="edge5_Node000001_Node000006" class="edge">
<title>Node1&#45;&gt;Node6</title>
<g id="a_edge5_Node000001_Node000006"><a xlink:title=" ">
<path fill="none" stroke="#63b8ff" d="M24.71,-115.72C31,-95.81 47.59,-51.92 77.5,-29 79.05,-27.81 80.67,-26.7 82.34,-25.66"/>
<polygon fill="#63b8ff" stroke="#63b8ff" points="83.82,-28.83 91.07,-21.1 80.59,-22.62 83.82,-28.83"/>
</a>
</g>
</g>
<!-- Node8 -->
<g id="Node000008" class="node">
<title>Node8</title>
<g id="a_Node000008"><a xlink:href="namespaceLGE_1_1VFS.html#abb5d35abfe80efe2f7a07394ad5b706a" target="_top" xlink:title=" ">
<polygon fill="white" stroke="#666666" points="209.75,-234 91,-234 91,-214 209.75,-214 209.75,-234"/>
<text xml:space="preserve" text-anchor="middle" x="150.38" y="-220.5" font-family="Helvetica,sans-Serif" font-size="10.00">LGE::VFS::IsReadOnly</text>
</a>
</g>
</g>
<!-- Node1&#45;&gt;Node8 -->
<g id="edge7_Node000001_Node000008" class="edge">
<title>Node1&#45;&gt;Node8</title>
<g id="a_edge7_Node000001_Node000008"><a xlink:title=" ">
<path fill="none" stroke="#63b8ff" d="M26.22,-136.49C34.05,-153.55 51.86,-187.18 77.5,-205 79.45,-206.35 81.48,-207.61 83.59,-208.78"/>
<polygon fill="#63b8ff" stroke="#63b8ff" points="81.93,-211.86 92.47,-212.96 84.92,-205.53 81.93,-211.86"/>
</a>
</g>
</g>
<!-- Node12 -->
<g id="Node000012" class="node">
<title>Node12</title>
<g id="a_Node000012"><a xlink:href="namespaceLGE_1_1VFS.html#a54b012d377481aa3685b372a196259ed" target="_top" xlink:title=" ">
<polygon fill="white" stroke="#666666" points="207.5,-158 93.25,-158 93.25,-138 207.5,-138 207.5,-158"/>
<text xml:space="preserve" text-anchor="middle" x="150.38" y="-144.5" font-family="Helvetica,sans-Serif" font-size="10.00">LGE::VFS::MountPath</text>
</a>
</g>
</g>
<!-- Node1&#45;&gt;Node12 -->
<g id="edge12_Node000001_Node000012" class="edge">
<title>Node1&#45;&gt;Node12</title>
<g id="a_edge12_Node000001_Node000012"><a xlink:title=" ">
<path fill="none" stroke="#63b8ff" d="M41.97,-129.49C52.95,-131.38 67.23,-133.84 81.76,-136.35"/>
<polygon fill="#63b8ff" stroke="#63b8ff" points="80.94,-139.76 91.39,-138 82.13,-132.86 80.94,-139.76"/>
</a>
</g>
</g>
<!-- Node3 -->
<g id="Node000003" class="node">
<title>Node3</title>
<g id="a_Node000003"><a xlink:href="classLGE_1_1Log.html#ab0265ee050b8873a2fd31fbdb696ced0" target="_top" xlink:title=" ">
<polygon fill="white" stroke="#666666" points="361.12,-196 281.38,-196 281.38,-176 361.12,-176 361.12,-196"/>
<text xml:space="preserve" text-anchor="middle" x="321.25" y="-182.5" font-family="Helvetica,sans-Serif" font-size="10.00">LGE::Log::Info</text>
</a>
</g>
</g>
<!-- Node2&#45;&gt;Node3 -->
<g id="edge2_Node000002_Node000003" class="edge">
<title>Node2&#45;&gt;Node3</title>
<g id="a_edge2_Node000002_Node000003"><a xlink:title=" ">
<path fill="none" stroke="#63b8ff" d="M211.87,-186C230.73,-186 251.34,-186 269.47,-186"/>
<polygon fill="#63b8ff" stroke="#63b8ff" points="269.46,-189.5 279.46,-186 269.46,-182.5 269.46,-189.5"/>
</a>
</g>
</g>
<!-- Node7 -->
<g id="Node000007" class="node">
<title>Node7</title>
<g id="a_Node000007"><a xlink:href="namespaceLGE_1_1VFS.html#a0566c02123208c6b867418e914f9574b" target="_top" xlink:title=" ">
<polygon fill="white" stroke="#666666" points="376.12,-20 266.38,-20 266.38,0 376.12,0 376.12,-20"/>
<text xml:space="preserve" text-anchor="middle" x="321.25" y="-6.5" font-family="Helvetica,sans-Serif" font-size="10.00">LGE::VFS::GetMount</text>
</a>
</g>
</g>
<!-- Node6&#45;&gt;Node7 -->
<g id="edge6_Node000006_Node000007" class="edge">
<title>Node6&#45;&gt;Node7</title>
<g id="a_edge6_Node000006_Node000007"><a xlink:title=" ">
<path fill="none" stroke="#63b8ff" d="M223.48,-10C233.84,-10 244.45,-10 254.67,-10"/>
<polygon fill="#63b8ff" stroke="#63b8ff" points="254.5,-13.5 264.5,-10 254.5,-6.5 254.5,-13.5"/>
</a>
</g>
</g>
<!-- Node9 -->
<g id="Node000009" class="node">
<title>Node9</title>
<g id="a_Node000009"><a xlink:href="namespaceLGE_1_1LxPath.html#ab664986e94ce09aa029f9eb2fcf50133" target="_top" xlink:title=" ">
<polygon fill="white" stroke="#666666" points="383.25,-234 259.25,-234 259.25,-214 383.25,-214 383.25,-234"/>
<text xml:space="preserve" text-anchor="middle" x="321.25" y="-220.5" font-family="Helvetica,sans-Serif" font-size="10.00">LGE::LxPath::IsSubPath</text>
</a>
</g>
</g>
<!-- Node8&#45;&gt;Node9 -->
<g id="edge8_Node000008_Node000009" class="edge">
<title>Node8&#45;&gt;Node9</title>
<g id="a_edge8_Node000008_Node000009"><a xlink:title=" ">
<path fill="none" stroke="#63b8ff" d="M209.97,-224C222.07,-224 234.96,-224 247.51,-224"/>
<polygon fill="#63b8ff" stroke="#63b8ff" points="247.38,-227.5 257.38,-224 247.38,-220.5 247.38,-227.5"/>
</a>
</g>
</g>
<!-- Node10 -->
<g id="Node000010" class="node">
<title>Node10</title>
<g id="a_Node000010"><a xlink:href="namespaceLGE_1_1LxPath.html#a314a60ce690c90f4ee0b4e64c0199408" target="_top" xlink:title=" ">
<polygon fill="white" stroke="#666666" points="541.75,-196 419.25,-196 419.25,-176 541.75,-176 541.75,-196"/>
<text xml:space="preserve" text-anchor="middle" x="480.5" y="-182.5" font-family="Helvetica,sans-Serif" font-size="10.00">LGE::LxPath::Normalize</text>
</a>
</g>
</g>
<!-- Node8&#45;&gt;Node10 -->
<g id="edge11_Node000008_Node000010" class="edge">
<title>Node8&#45;&gt;Node10</title>
<g id="a_edge11_Node000008_Node000010"><a xlink:title=" ">
<path fill="none" stroke="#63b8ff" d="M187.04,-234.42C233.18,-246.2 315.66,-261.51 383.25,-243 411.35,-235.3 439.57,-217.05 458.12,-203.26"/>
<polygon fill="#63b8ff" stroke="#63b8ff" points="460.13,-206.13 465.93,-197.26 455.87,-200.58 460.13,-206.13"/>
</a>
</g>
</g>
<!-- Node9&#45;&gt;Node10 -->
<g id="edge9_Node000009_Node000010" class="edge">
<title>Node9&#45;&gt;Node10</title>
<g id="a_edge9_Node000009_Node000010"><a xlink:title=" ">
<path fill="none" stroke="#63b8ff" d="M365.64,-213.52C384.03,-209.07 405.66,-203.84 425.1,-199.15"/>
<polygon fill="#63b8ff" stroke="#63b8ff" points="425.89,-202.56 434.78,-196.81 424.24,-195.75 425.89,-202.56"/>
</a>
</g>
</g>
<!-- Node11 -->
<g id="Node000011" class="node">
<title>Node11</title>
<g id="a_Node000011"><a xlink:href="classLGE_1_1Log.html#a53f3f4b8797ffd18145739c9e66d690a" target="_top" xlink:title=" ">
<polygon fill="white" stroke="#666666" points="662,-139 577.75,-139 577.75,-119 662,-119 662,-139"/>
<text xml:space="preserve" text-anchor="middle" x="619.88" y="-125.5" font-family="Helvetica,sans-Serif" font-size="10.00">LGE::Log::Error</text>
</a>
</g>
</g>
<!-- Node10&#45;&gt;Node11 -->
<g id="edge10_Node000010_Node000011" class="edge">
<title>Node10&#45;&gt;Node11</title>
<g id="a_edge10_Node000010_Node000011"><a xlink:title=" ">
<path fill="none" stroke="#63b8ff" d="M506.7,-175.55C528.19,-166.63 559.34,-153.7 583.36,-143.74"/>
<polygon fill="#63b8ff" stroke="#63b8ff" points="584.54,-147.03 592.44,-139.97 581.86,-140.57 584.54,-147.03"/>
</a>
</g>
</g>
<!-- Node12&#45;&gt;Node3 -->
<g id="edge14_Node000012_Node000003" class="edge">
<title>Node12&#45;&gt;Node3</title>
<g id="a_edge14_Node000012_Node000003"><a xlink:title=" ">
<path fill="none" stroke="#63b8ff" d="M197.97,-158.48C220.27,-163.5 247.01,-169.52 269.79,-174.64"/>
<polygon fill="#63b8ff" stroke="#63b8ff" points="268.95,-178.04 279.48,-176.83 270.49,-171.22 268.95,-178.04"/>
</a>
</g>
</g>
<!-- Node12&#45;&gt;Node10 -->
<g id="edge15_Node000012_Node000010" class="edge">
<title>Node12&#45;&gt;Node10</title>
<g id="a_edge15_Node000012_Node000010"><a xlink:title=" ">
<path fill="none" stroke="#63b8ff" d="M207.8,-150.83C254.87,-153.63 323.64,-158.7 383.25,-167 395.52,-168.71 408.59,-170.98 421.01,-173.36"/>
<polygon fill="#63b8ff" stroke="#63b8ff" points="420.22,-176.77 430.71,-175.26 421.57,-169.9 420.22,-176.77"/>
</a>
</g>
</g>
<!-- Node12&#45;&gt;Node11 -->
<g id="edge13_Node000012_Node000011" class="edge">
<title>Node12&#45;&gt;Node11</title>
<g id="a_edge13_Node000012_Node000011"><a xlink:title=" ">
<path fill="none" stroke="#63b8ff" d="M207.77,-145.71C298.87,-142.01 477.19,-134.76 566,-131.15"/>
<polygon fill="#63b8ff" stroke="#63b8ff" points="566.04,-134.65 575.89,-130.75 565.75,-127.66 566.04,-134.65"/>
</a>
</g>
</g>
</g>
</svg>
