<?xml version="1.0" encoding="UTF-8" standalone="no"?>
<!DOCTYPE svg PUBLIC "-//W3C//DTD SVG 1.1//EN"
 "http://www.w3.org/Graphics/SVG/1.1/DTD/svg11.dtd">
<!-- Generated by graphviz version 14.0.2 (20251019.1705)
 -->
<!-- Title: TestPath.cpp Pages: 1 -->
<svg width="567pt" height="140pt"
 viewBox="0.00 0.00 567.00 140.00" xmlns="http://www.w3.org/2000/svg" xmlns:xlink="http://www.w3.org/1999/xlink">
<g id="graph0" class="graph" transform="scale(1 1) rotate(0) translate(4 136)">
<title>TestPath.cpp</title>
<!-- Node1 -->
<g id="Node000001" class="node">
<title>Node1</title>
<g id="a_Node000001"><a xlink:title=" ">
<polygon fill="#999999" stroke="#666666" points="343.38,-132 269.62,-132 269.62,-112 343.38,-112 343.38,-132"/>
<text xml:space="preserve" text-anchor="middle" x="306.5" y="-118.5" font-family="Helvetica,sans-Serif" font-size="10.00">TestPath.cpp</text>
</a>
</g>
</g>
<!-- Node2 -->
<g id="Node000002" class="node">
<title>Node2</title>
<g id="a_Node000002"><a xlink:href="TestFramework_8h.html" target="_top" xlink:title=" ">
<polygon fill="white" stroke="#666666" points="182.75,-76 36.25,-76 36.25,-56 182.75,-56 182.75,-76"/>
<text xml:space="preserve" text-anchor="middle" x="109.5" y="-62.5" font-family="Helvetica,sans-Serif" font-size="10.00">LGE/testing/TestFramework.h</text>
</a>
</g>
</g>
<!-- Node1&#45;&gt;Node2 -->
<g id="edge1_Node000001_Node000002" class="edge">
<title>Node1&#45;&gt;Node2</title>
<g id="a_edge1_Node000001_Node000002"><a xlink:title=" ">
<path fill="none" stroke="#63b8ff" d="M272.19,-111.59C239.76,-102.71 190.89,-89.31 155.18,-79.52"/>
<polygon fill="#63b8ff" stroke="#63b8ff" points="156.11,-76.15 145.54,-76.88 154.26,-82.9 156.11,-76.15"/>
</a>
</g>
</g>
<!-- Node3 -->
<g id="Node000003" class="node">
<title>Node3</title>
<g id="a_Node000003"><a xlink:title=" ">
<polygon fill="#e0e0e0" stroke="#999999" points="330.5,-20 290.5,-20 290.5,0 330.5,0 330.5,-20"/>
<text xml:space="preserve" text-anchor="middle" x="310.5" y="-6.5" font-family="Helvetica,sans-Serif" font-size="10.00">string</text>
</a>
</g>
</g>
<!-- Node1&#45;&gt;Node3 -->
<g id="edge15_Node000001_Node000003" class="edge">
<title>Node1&#45;&gt;Node3</title>
<g id="a_edge15_Node000001_Node000003"><a xlink:title=" ">
<path fill="none" stroke="#63b8ff" d="M306.84,-111.62C307.48,-94.01 308.88,-55.59 309.75,-31.65"/>
<polygon fill="#63b8ff" stroke="#63b8ff" points="313.24,-31.99 310.1,-21.87 306.24,-31.73 313.24,-31.99"/>
</a>
</g>
</g>
<!-- Node7 -->
<g id="Node000007" class="node">
<title>Node7</title>
<g id="a_Node000007"><a xlink:href="Path_8h.html" target="_top" xlink:title=" ">
<polygon fill="white" stroke="#666666" points="278.62,-76 200.38,-76 200.38,-56 278.62,-56 278.62,-76"/>
<text xml:space="preserve" text-anchor="middle" x="239.5" y="-62.5" font-family="Helvetica,sans-Serif" font-size="10.00">LGE/fs/Path.h</text>
</a>
</g>
</g>
<!-- Node1&#45;&gt;Node7 -->
<g id="edge6_Node000001_Node000007" class="edge">
<title>Node1&#45;&gt;Node7</title>
<g id="a_edge6_Node000001_Node000007"><a xlink:title=" ">
<path fill="none" stroke="#63b8ff" d="M294.83,-111.59C285.22,-103.85 271.37,-92.69 259.93,-83.47"/>
<polygon fill="#63b8ff" stroke="#63b8ff" points="262.2,-80.8 252.22,-77.25 257.8,-86.25 262.2,-80.8"/>
</a>
</g>
</g>
<!-- Node9 -->
<g id="Node000009" class="node">
<title>Node9</title>
<g id="a_Node000009"><a xlink:href="Project_8h.html" target="_top" xlink:title=" ">
<polygon fill="white" stroke="#666666" points="558.88,-76 470.12,-76 470.12,-56 558.88,-56 558.88,-76"/>
<text xml:space="preserve" text-anchor="middle" x="514.5" y="-62.5" font-family="Helvetica,sans-Serif" font-size="10.00">LGE/fs/Project.h</text>
</a>
</g>
</g>
<!-- Node1&#45;&gt;Node9 -->
<g id="edge9_Node000001_Node000009" class="edge">
<title>Node1&#45;&gt;Node9</title>
<g id="a_edge9_Node000001_Node000009"><a xlink:title=" ">
<path fill="none" stroke="#63b8ff" d="M342.73,-111.59C377.27,-102.63 429.46,-89.08 467.25,-79.27"/>
<polygon fill="#63b8ff" stroke="#63b8ff" points="467.72,-82.76 476.52,-76.86 465.96,-75.99 467.72,-82.76"/>
</a>
</g>
</g>
<!-- Node11 -->
<g id="Node000011" class="node">
<title>Node11</title>
<g id="a_Node000011"><a xlink:href="TestUtils_8h.html" target="_top" xlink:title=" ">
<polygon fill="white" stroke="#666666" points="452.5,-76 334.5,-76 334.5,-56 452.5,-56 452.5,-76"/>
<text xml:space="preserve" text-anchor="middle" x="393.5" y="-62.5" font-family="Helvetica,sans-Serif" font-size="10.00">LGE/testing/TestUtils.h</text>
</a>
</g>
</g>
<!-- Node1&#45;&gt;Node11 -->
<g id="edge12_Node000001_Node000011" class="edge">
<title>Node1&#45;&gt;Node11</title>
<g id="a_edge12_Node000001_Node000011"><a xlink:title=" ">
<path fill="none" stroke="#63b8ff" d="M321.65,-111.59C334.55,-103.59 353.33,-91.93 368.46,-82.54"/>
<polygon fill="#63b8ff" stroke="#63b8ff" points="370.29,-85.53 376.94,-77.28 366.6,-79.58 370.29,-85.53"/>
</a>
</g>
</g>
<!-- Node2&#45;&gt;Node3 -->
<g id="edge2_Node000002_Node000003" class="edge">
<title>Node2&#45;&gt;Node3</title>
<g id="a_edge2_Node000002_Node000003"><a xlink:title=" ">
<path fill="none" stroke="#63b8ff" d="M147.55,-55.57C180.17,-47.37 228.67,-34.9 279.4,-20.51"/>
<polygon fill="#63b8ff" stroke="#63b8ff" points="280.14,-23.94 288.8,-17.83 278.22,-17.21 280.14,-23.94"/>
</a>
</g>
</g>
<!-- Node4 -->
<g id="Node000004" class="node">
<title>Node4</title>
<g id="a_Node000004"><a xlink:title=" ">
<polygon fill="#e0e0e0" stroke="#999999" points="43,-20 0,-20 0,0 43,0 43,-20"/>
<text xml:space="preserve" text-anchor="middle" x="21.5" y="-6.5" font-family="Helvetica,sans-Serif" font-size="10.00">vector</text>
</a>
</g>
</g>
<!-- Node2&#45;&gt;Node4 -->
<g id="edge3_Node000002_Node000004" class="edge">
<title>Node2&#45;&gt;Node4</title>
<g id="a_edge3_Node000002_Node000004"><a xlink:title=" ">
<path fill="none" stroke="#63b8ff" d="M94.17,-55.59C81,-47.51 61.77,-35.71 46.39,-26.27"/>
<polygon fill="#63b8ff" stroke="#63b8ff" points="48.59,-23.52 38.24,-21.27 44.93,-29.48 48.59,-23.52"/>
</a>
</g>
</g>
<!-- Node5 -->
<g id="Node000005" class="node">
<title>Node5</title>
<g id="a_Node000005"><a xlink:title=" ">
<polygon fill="#e0e0e0" stroke="#999999" points="119.5,-20 61.5,-20 61.5,0 119.5,0 119.5,-20"/>
<text xml:space="preserve" text-anchor="middle" x="90.5" y="-6.5" font-family="Helvetica,sans-Serif" font-size="10.00">functional</text>
</a>
</g>
</g>
<!-- Node2&#45;&gt;Node5 -->
<g id="edge4_Node000002_Node000005" class="edge">
<title>Node2&#45;&gt;Node5</title>
<g id="a_edge4_Node000002_Node000005"><a xlink:title=" ">
<path fill="none" stroke="#63b8ff" d="M106.19,-55.59C103.82,-48.86 100.54,-39.53 97.59,-31.15"/>
<polygon fill="#63b8ff" stroke="#63b8ff" points="100.89,-30 94.27,-21.73 94.29,-32.32 100.89,-30"/>
</a>
</g>
</g>
<!-- Node6 -->
<g id="Node000006" class="node">
<title>Node6</title>
<g id="a_Node000006"><a xlink:title=" ">
<polygon fill="#e0e0e0" stroke="#999999" points="189.12,-20 137.88,-20 137.88,0 189.12,0 189.12,-20"/>
<text xml:space="preserve" text-anchor="middle" x="163.5" y="-6.5" font-family="Helvetica,sans-Serif" font-size="10.00">memory</text>
</a>
</g>
</g>
<!-- Node2&#45;&gt;Node6 -->
<g id="edge5_Node000002_Node000006" class="edge">
<title>Node2&#45;&gt;Node6</title>
<g id="a_edge5_Node000002_Node000006"><a xlink:title=" ">
<path fill="none" stroke="#63b8ff" d="M118.91,-55.59C126.42,-48.08 137.15,-37.35 146.2,-28.3"/>
<polygon fill="#63b8ff" stroke="#63b8ff" points="148.54,-30.91 153.13,-21.37 143.59,-25.96 148.54,-30.91"/>
</a>
</g>
</g>
<!-- Node7&#45;&gt;Node3 -->
<g id="edge7_Node000007_Node000003" class="edge">
<title>Node7&#45;&gt;Node3</title>
<g id="a_edge7_Node000007_Node000003"><a xlink:title=" ">
<path fill="none" stroke="#63b8ff" d="M251.87,-55.59C262.15,-47.77 277.02,-36.46 289.21,-27.19"/>
<polygon fill="#63b8ff" stroke="#63b8ff" points="291.23,-30.05 297.07,-21.21 286.99,-24.48 291.23,-30.05"/>
</a>
</g>
</g>
<!-- Node8 -->
<g id="Node000008" class="node">
<title>Node8</title>
<g id="a_Node000008"><a xlink:title=" ">
<polygon fill="#e0e0e0" stroke="#999999" points="272.25,-20 206.75,-20 206.75,0 272.25,0 272.25,-20"/>
<text xml:space="preserve" text-anchor="middle" x="239.5" y="-6.5" font-family="Helvetica,sans-Serif" font-size="10.00">string_view</text>
</a>
</g>
</g>
<!-- Node7&#45;&gt;Node8 -->
<g id="edge8_Node000007_Node000008" class="edge">
<title>Node7&#45;&gt;Node8</title>
<g id="a_edge8_Node000007_Node000008"><a xlink:title=" ">
<path fill="none" stroke="#63b8ff" d="M239.5,-55.59C239.5,-49.01 239.5,-39.96 239.5,-31.73"/>
<polygon fill="#63b8ff" stroke="#63b8ff" points="243,-31.81 239.5,-21.81 236,-31.81 243,-31.81"/>
</a>
</g>
</g>
<!-- Node9&#45;&gt;Node3 -->
<g id="edge10_Node000009_Node000003" class="edge">
<title>Node9&#45;&gt;Node3</title>
<g id="a_edge10_Node000009_Node000003"><a xlink:title=" ">
<path fill="none" stroke="#63b8ff" d="M478.97,-55.59C440.24,-45.34 378.86,-29.09 341.86,-19.3"/>
<polygon fill="#63b8ff" stroke="#63b8ff" points="342.79,-15.93 332.22,-16.75 340.99,-22.69 342.79,-15.93"/>
</a>
</g>
</g>
<!-- Node10 -->
<g id="Node000010" class="node">
<title>Node10</title>
<g id="a_Node000010"><a xlink:title=" ">
<polygon fill="#e0e0e0" stroke="#999999" points="484,-20 423,-20 423,0 484,0 484,-20"/>
<text xml:space="preserve" text-anchor="middle" x="453.5" y="-6.5" font-family="Helvetica,sans-Serif" font-size="10.00">filesystem</text>
</a>
</g>
</g>
<!-- Node9&#45;&gt;Node10 -->
<g id="edge11_Node000009_Node000010" class="edge">
<title>Node9&#45;&gt;Node10</title>
<g id="a_edge11_Node000009_Node000010"><a xlink:title=" ">
<path fill="none" stroke="#63b8ff" d="M503.87,-55.59C495.22,-47.93 482.77,-36.91 472.42,-27.75"/>
<polygon fill="#63b8ff" stroke="#63b8ff" points="474.94,-25.31 465.14,-21.3 470.3,-30.55 474.94,-25.31"/>
</a>
</g>
</g>
<!-- Node11&#45;&gt;Node3 -->
<g id="edge13_Node000011_Node000003" class="edge">
<title>Node11&#45;&gt;Node3</title>
<g id="a_edge13_Node000011_Node000003"><a xlink:title=" ">
<path fill="none" stroke="#63b8ff" d="M379.04,-55.59C366.74,-47.59 348.82,-35.93 334.39,-26.54"/>
<polygon fill="#63b8ff" stroke="#63b8ff" points="336.63,-23.82 326.34,-21.3 332.81,-29.69 336.63,-23.82"/>
</a>
</g>
</g>
<!-- Node11&#45;&gt;Node10 -->
<g id="edge14_Node000011_Node000010" class="edge">
<title>Node11&#45;&gt;Node10</title>
<g id="a_edge14_Node000011_Node000010"><a xlink:title=" ">
<path fill="none" stroke="#63b8ff" d="M403.95,-55.59C412.47,-47.93 424.71,-36.91 434.89,-27.75"/>
<polygon fill="#63b8ff" stroke="#63b8ff" points="436.95,-30.6 442.04,-21.31 432.27,-25.4 436.95,-30.6"/>
</a>
</g>
</g>
</g>
</svg>
