<?xml version="1.0" encoding="UTF-8" standalone="no"?>
<!DOCTYPE svg PUBLIC "-//W3C//DTD SVG 1.1//EN"
 "http://www.w3.org/Graphics/SVG/1.1/DTD/svg11.dtd">
<!-- Generated by graphviz version 14.0.2 (20251019.1705)
 -->
<!-- Title: TestVFS.cpp Pages: 1 -->
<svg width="567pt" height="140pt"
 viewBox="0.00 0.00 567.00 140.00" xmlns="http://www.w3.org/2000/svg" xmlns:xlink="http://www.w3.org/1999/xlink">
<g id="graph0" class="graph" transform="scale(1 1) rotate(0) translate(4 136)">
<title>TestVFS.cpp</title>
<!-- Node1 -->
<g id="Node000001" class="node">
<title>Node1</title>
<g id="a_Node000001"><a xlink:title=" ">
<polygon fill="#999999" stroke="#666666" points="343.12,-132 270.12,-132 270.12,-112 343.12,-112 343.12,-132"/>
<text xml:space="preserve" text-anchor="middle" x="306.62" y="-118.5" font-family="Helvetica,sans-Serif" font-size="10.00">TestVFS.cpp</text>
</a>
</g>
</g>
<!-- Node2 -->
<g id="Node000002" class="node">
<title>Node2</title>
<g id="a_Node000002"><a xlink:href="TestFramework_8h.html" target="_top" xlink:title=" ">
<polygon fill="white" stroke="#666666" points="182.88,-76 36.38,-76 36.38,-56 182.88,-56 182.88,-76"/>
<text xml:space="preserve" text-anchor="middle" x="109.62" y="-62.5" font-family="Helvetica,sans-Serif" font-size="10.00">LGE/testing/TestFramework.h</text>
</a>
</g>
</g>
<!-- Node1&#45;&gt;Node2 -->
<g id="edge1_Node000001_Node000002" class="edge">
<title>Node1&#45;&gt;Node2</title>
<g id="a_edge1_Node000001_Node000002"><a xlink:title=" ">
<path fill="none" stroke="#63b8ff" d="M272.31,-111.59C239.88,-102.71 191.01,-89.31 155.3,-79.52"/>
<polygon fill="#63b8ff" stroke="#63b8ff" points="156.24,-76.15 145.67,-76.88 154.39,-82.9 156.24,-76.15"/>
</a>
</g>
</g>
<!-- Node3 -->
<g id="Node000003" class="node">
<title>Node3</title>
<g id="a_Node000003"><a xlink:title=" ">
<polygon fill="#e0e0e0" stroke="#999999" points="398.62,-20 358.62,-20 358.62,0 398.62,0 398.62,-20"/>
<text xml:space="preserve" text-anchor="middle" x="378.62" y="-6.5" font-family="Helvetica,sans-Serif" font-size="10.00">string</text>
</a>
</g>
</g>
<!-- Node1&#45;&gt;Node3 -->
<g id="edge17_Node000001_Node000003" class="edge">
<title>Node1&#45;&gt;Node3</title>
<g id="a_edge17_Node000001_Node000003"><a xlink:title=" ">
<path fill="none" stroke="#63b8ff" d="M307.61,-111.91C309.39,-98.68 314.11,-73.75 325.62,-56 332.99,-44.64 344.08,-34.6 354.21,-26.9"/>
<polygon fill="#63b8ff" stroke="#63b8ff" points="356.15,-29.81 362.25,-21.15 352.08,-24.12 356.15,-29.81"/>
</a>
</g>
</g>
<!-- Node7 -->
<g id="Node000007" class="node">
<title>Node7</title>
<g id="a_Node000007"><a xlink:href="VFS_8h.html" target="_top" xlink:title=" ">
<polygon fill="white" stroke="#666666" points="278.38,-76 200.88,-76 200.88,-56 278.38,-56 278.38,-76"/>
<text xml:space="preserve" text-anchor="middle" x="239.62" y="-62.5" font-family="Helvetica,sans-Serif" font-size="10.00">LGE/fs/VFS.h</text>
</a>
</g>
</g>
<!-- Node1&#45;&gt;Node7 -->
<g id="edge6_Node000001_Node000007" class="edge">
<title>Node1&#45;&gt;Node7</title>
<g id="a_edge6_Node000001_Node000007"><a xlink:title=" ">
<path fill="none" stroke="#63b8ff" d="M294.95,-111.59C285.35,-103.85 271.5,-92.69 260.06,-83.47"/>
<polygon fill="#63b8ff" stroke="#63b8ff" points="262.32,-80.8 252.34,-77.25 257.93,-86.25 262.32,-80.8"/>
</a>
</g>
</g>
<!-- Node10 -->
<g id="Node000010" class="node">
<title>Node10</title>
<g id="a_Node000010"><a xlink:href="Project_8h.html" target="_top" xlink:title=" ">
<polygon fill="white" stroke="#666666" points="559,-76 470.25,-76 470.25,-56 559,-56 559,-76"/>
<text xml:space="preserve" text-anchor="middle" x="514.62" y="-62.5" font-family="Helvetica,sans-Serif" font-size="10.00">LGE/fs/Project.h</text>
</a>
</g>
</g>
<!-- Node1&#45;&gt;Node10 -->
<g id="edge11_Node000001_Node000010" class="edge">
<title>Node1&#45;&gt;Node10</title>
<g id="a_edge11_Node000001_Node000010"><a xlink:title=" ">
<path fill="none" stroke="#63b8ff" d="M342.86,-111.59C377.39,-102.63 429.59,-89.08 467.37,-79.27"/>
<polygon fill="#63b8ff" stroke="#63b8ff" points="467.85,-82.76 476.65,-76.86 466.09,-75.99 467.85,-82.76"/>
</a>
</g>
</g>
<!-- Node12 -->
<g id="Node000012" class="node">
<title>Node12</title>
<g id="a_Node000012"><a xlink:href="TestUtils_8h.html" target="_top" xlink:title=" ">
<polygon fill="white" stroke="#666666" points="452.62,-76 334.62,-76 334.62,-56 452.62,-56 452.62,-76"/>
<text xml:space="preserve" text-anchor="middle" x="393.62" y="-62.5" font-family="Helvetica,sans-Serif" font-size="10.00">LGE/testing/TestUtils.h</text>
</a>
</g>
</g>
<!-- Node1&#45;&gt;Node12 -->
<g id="edge14_Node000001_Node000012" class="edge">
<title>Node1&#45;&gt;Node12</title>
<g id="a_edge14_Node000001_Node000012"><a xlink:title=" ">
<path fill="none" stroke="#63b8ff" d="M321.78,-111.59C334.67,-103.59 353.46,-91.93 368.58,-82.54"/>
<polygon fill="#63b8ff" stroke="#63b8ff" points="370.42,-85.53 377.07,-77.28 366.72,-79.58 370.42,-85.53"/>
</a>
</g>
</g>
<!-- Node2&#45;&gt;Node3 -->
<g id="edge2_Node000002_Node000003" class="edge">
<title>Node2&#45;&gt;Node3</title>
<g id="a_edge2_Node000002_Node000003"><a xlink:title=" ">
<path fill="none" stroke="#63b8ff" d="M170.71,-55.55C216.89,-47.95 282.03,-36.27 347.5,-20.3"/>
<polygon fill="#63b8ff" stroke="#63b8ff" points="348.09,-23.76 356.96,-17.96 346.41,-16.96 348.09,-23.76"/>
</a>
</g>
</g>
<!-- Node4 -->
<g id="Node000004" class="node">
<title>Node4</title>
<g id="a_Node000004"><a xlink:title=" ">
<polygon fill="#e0e0e0" stroke="#999999" points="189.12,-20 146.12,-20 146.12,0 189.12,0 189.12,-20"/>
<text xml:space="preserve" text-anchor="middle" x="167.62" y="-6.5" font-family="Helvetica,sans-Serif" font-size="10.00">vector</text>
</a>
</g>
</g>
<!-- Node2&#45;&gt;Node4 -->
<g id="edge3_Node000002_Node000004" class="edge">
<title>Node2&#45;&gt;Node4</title>
<g id="a_edge3_Node000002_Node000004"><a xlink:title=" ">
<path fill="none" stroke="#63b8ff" d="M119.73,-55.59C127.88,-48.01 139.56,-37.13 149.34,-28.02"/>
<polygon fill="#63b8ff" stroke="#63b8ff" points="151.6,-30.71 156.53,-21.33 146.83,-25.58 151.6,-30.71"/>
</a>
</g>
</g>
<!-- Node5 -->
<g id="Node000005" class="node">
<title>Node5</title>
<g id="a_Node000005"><a xlink:title=" ">
<polygon fill="#e0e0e0" stroke="#999999" points="127.62,-20 69.62,-20 69.62,0 127.62,0 127.62,-20"/>
<text xml:space="preserve" text-anchor="middle" x="98.62" y="-6.5" font-family="Helvetica,sans-Serif" font-size="10.00">functional</text>
</a>
</g>
</g>
<!-- Node2&#45;&gt;Node5 -->
<g id="edge4_Node000002_Node000005" class="edge">
<title>Node2&#45;&gt;Node5</title>
<g id="a_edge4_Node000002_Node000005"><a xlink:title=" ">
<path fill="none" stroke="#63b8ff" d="M107.71,-55.59C106.35,-48.93 104.48,-39.75 102.79,-31.44"/>
<polygon fill="#63b8ff" stroke="#63b8ff" points="106.25,-30.88 100.82,-21.78 99.39,-32.28 106.25,-30.88"/>
</a>
</g>
</g>
<!-- Node6 -->
<g id="Node000006" class="node">
<title>Node6</title>
<g id="a_Node000006"><a xlink:title=" ">
<polygon fill="#e0e0e0" stroke="#999999" points="51.25,-20 0,-20 0,0 51.25,0 51.25,-20"/>
<text xml:space="preserve" text-anchor="middle" x="25.62" y="-6.5" font-family="Helvetica,sans-Serif" font-size="10.00">memory</text>
</a>
</g>
</g>
<!-- Node2&#45;&gt;Node6 -->
<g id="edge5_Node000002_Node000006" class="edge">
<title>Node2&#45;&gt;Node6</title>
<g id="a_edge5_Node000002_Node000006"><a xlink:title=" ">
<path fill="none" stroke="#63b8ff" d="M94.99,-55.59C82.54,-47.59 64.41,-35.93 49.8,-26.54"/>
<polygon fill="#63b8ff" stroke="#63b8ff" points="51.95,-23.76 41.64,-21.3 48.16,-29.65 51.95,-23.76"/>
</a>
</g>
</g>
<!-- Node7&#45;&gt;Node3 -->
<g id="edge7_Node000007_Node000003" class="edge">
<title>Node7&#45;&gt;Node3</title>
<g id="a_edge7_Node000007_Node000003"><a xlink:title=" ">
<path fill="none" stroke="#63b8ff" d="M263.84,-55.59C287.14,-46.54 322.49,-32.81 347.8,-22.98"/>
<polygon fill="#63b8ff" stroke="#63b8ff" points="348.84,-26.33 356.89,-19.44 346.3,-19.8 348.84,-26.33"/>
</a>
</g>
</g>
<!-- Node7&#45;&gt;Node4 -->
<g id="edge9_Node000007_Node000004" class="edge">
<title>Node7&#45;&gt;Node4</title>
<g id="a_edge9_Node000007_Node000004"><a xlink:title=" ">
<path fill="none" stroke="#63b8ff" d="M227.08,-55.59C216.66,-47.77 201.58,-36.46 189.21,-27.19"/>
<polygon fill="#63b8ff" stroke="#63b8ff" points="191.33,-24.41 181.23,-21.21 187.13,-30.01 191.33,-24.41"/>
</a>
</g>
</g>
<!-- Node8 -->
<g id="Node000008" class="node">
<title>Node8</title>
<g id="a_Node000008"><a xlink:title=" ">
<polygon fill="#e0e0e0" stroke="#999999" points="272.38,-20 206.88,-20 206.88,0 272.38,0 272.38,-20"/>
<text xml:space="preserve" text-anchor="middle" x="239.62" y="-6.5" font-family="Helvetica,sans-Serif" font-size="10.00">string_view</text>
</a>
</g>
</g>
<!-- Node7&#45;&gt;Node8 -->
<g id="edge8_Node000007_Node000008" class="edge">
<title>Node7&#45;&gt;Node8</title>
<g id="a_edge8_Node000007_Node000008"><a xlink:title=" ">
<path fill="none" stroke="#63b8ff" d="M239.62,-55.59C239.62,-49.01 239.62,-39.96 239.62,-31.73"/>
<polygon fill="#63b8ff" stroke="#63b8ff" points="243.13,-31.81 239.63,-21.81 236.13,-31.81 243.13,-31.81"/>
</a>
</g>
</g>
<!-- Node9 -->
<g id="Node000009" class="node">
<title>Node9</title>
<g id="a_Node000009"><a xlink:title=" ">
<polygon fill="#e0e0e0" stroke="#999999" points="340.5,-20 290.75,-20 290.75,0 340.5,0 340.5,-20"/>
<text xml:space="preserve" text-anchor="middle" x="315.62" y="-6.5" font-family="Helvetica,sans-Serif" font-size="10.00">optional</text>
</a>
</g>
</g>
<!-- Node7&#45;&gt;Node9 -->
<g id="edge10_Node000007_Node000009" class="edge">
<title>Node7&#45;&gt;Node9</title>
<g id="a_edge10_Node000007_Node000009"><a xlink:title=" ">
<path fill="none" stroke="#63b8ff" d="M252.86,-55.59C263.91,-47.74 279.91,-36.38 292.98,-27.09"/>
<polygon fill="#63b8ff" stroke="#63b8ff" points="294.93,-30 301.05,-21.36 290.87,-24.3 294.93,-30"/>
</a>
</g>
</g>
<!-- Node10&#45;&gt;Node3 -->
<g id="edge12_Node000010_Node000003" class="edge">
<title>Node10&#45;&gt;Node3</title>
<g id="a_edge12_Node000010_Node000003"><a xlink:title=" ">
<path fill="none" stroke="#63b8ff" d="M490.94,-55.59C468.37,-46.63 434.26,-33.09 409.55,-23.28"/>
<polygon fill="#63b8ff" stroke="#63b8ff" points="410.93,-20.06 400.35,-19.62 408.35,-26.57 410.93,-20.06"/>
</a>
</g>
</g>
<!-- Node11 -->
<g id="Node000011" class="node">
<title>Node11</title>
<g id="a_Node000011"><a xlink:title=" ">
<polygon fill="#e0e0e0" stroke="#999999" points="512.12,-20 451.12,-20 451.12,0 512.12,0 512.12,-20"/>
<text xml:space="preserve" text-anchor="middle" x="481.62" y="-6.5" font-family="Helvetica,sans-Serif" font-size="10.00">filesystem</text>
</a>
</g>
</g>
<!-- Node10&#45;&gt;Node11 -->
<g id="edge13_Node000010_Node000011" class="edge">
<title>Node10&#45;&gt;Node11</title>
<g id="a_edge13_Node000010_Node000011"><a xlink:title=" ">
<path fill="none" stroke="#63b8ff" d="M508.88,-55.59C504.57,-48.55 498.53,-38.67 493.24,-30"/>
<polygon fill="#63b8ff" stroke="#63b8ff" points="496.3,-28.3 488.1,-21.59 490.32,-31.95 496.3,-28.3"/>
</a>
</g>
</g>
<!-- Node12&#45;&gt;Node3 -->
<g id="edge15_Node000012_Node000003" class="edge">
<title>Node12&#45;&gt;Node3</title>
<g id="a_edge15_Node000012_Node000003"><a xlink:title=" ">
<path fill="none" stroke="#63b8ff" d="M391.01,-55.59C389.14,-48.86 386.55,-39.53 384.22,-31.15"/>
<polygon fill="#63b8ff" stroke="#63b8ff" points="387.66,-30.46 381.61,-21.76 380.92,-32.33 387.66,-30.46"/>
</a>
</g>
</g>
<!-- Node12&#45;&gt;Node11 -->
<g id="edge16_Node000012_Node000011" class="edge">
<title>Node12&#45;&gt;Node11</title>
<g id="a_edge16_Node000012_Node000011"><a xlink:title=" ">
<path fill="none" stroke="#63b8ff" d="M408.95,-55.59C422.12,-47.51 441.36,-35.71 456.73,-26.27"/>
<polygon fill="#63b8ff" stroke="#63b8ff" points="458.19,-29.48 464.89,-21.27 454.53,-23.52 458.19,-29.48"/>
</a>
</g>
</g>
</g>
</svg>
