<?xml version="1.0" encoding="UTF-8" standalone="no"?>
<!DOCTYPE svg PUBLIC "-//W3C//DTD SVG 1.1//EN"
 "http://www.w3.org/Graphics/SVG/1.1/DTD/svg11.dtd">
<!-- Generated by graphviz version 14.0.2 (20251019.1705)
 -->
<!-- Title: TestUtils.cpp Pages: 1 -->
<svg width="435pt" height="140pt"
 viewBox="0.00 0.00 435.00 140.00" xmlns="http://www.w3.org/2000/svg" xmlns:xlink="http://www.w3.org/1999/xlink">
<g id="graph0" class="graph" transform="scale(1 1) rotate(0) translate(4 136)">
<title>TestUtils.cpp</title>
<!-- Node1 -->
<g id="Node000001" class="node">
<title>Node1</title>
<g id="a_Node000001"><a xlink:title=" ">
<polygon fill="#999999" stroke="#666666" points="268.88,-132 195.12,-132 195.12,-112 268.88,-112 268.88,-132"/>
<text xml:space="preserve" text-anchor="middle" x="232" y="-118.5" font-family="Helvetica,sans-Serif" font-size="10.00">TestUtils.cpp</text>
</a>
</g>
</g>
<!-- Node2 -->
<g id="Node000002" class="node">
<title>Node2</title>
<g id="a_Node000002"><a xlink:href="TestUtils_8h.html" target="_top" xlink:title=" ">
<polygon fill="white" stroke="#666666" points="118,-76 0,-76 0,-56 118,-56 118,-76"/>
<text xml:space="preserve" text-anchor="middle" x="59" y="-62.5" font-family="Helvetica,sans-Serif" font-size="10.00">LGE/testing/TestUtils.h</text>
</a>
</g>
</g>
<!-- Node1&#45;&gt;Node2 -->
<g id="edge1_Node000001_Node000002" class="edge">
<title>Node1&#45;&gt;Node2</title>
<g id="a_edge1_Node000001_Node000002"><a xlink:title=" ">
<path fill="none" stroke="#63b8ff" d="M201.87,-111.59C173.76,-102.82 131.59,-89.66 100.34,-79.9"/>
<polygon fill="#63b8ff" stroke="#63b8ff" points="101.4,-76.57 90.81,-76.93 99.32,-83.25 101.4,-76.57"/>
</a>
</g>
</g>
<!-- Node4 -->
<g id="Node000004" class="node">
<title>Node4</title>
<g id="a_Node000004"><a xlink:title=" ">
<polygon fill="#e0e0e0" stroke="#999999" points="167.5,-20 106.5,-20 106.5,0 167.5,0 167.5,-20"/>
<text xml:space="preserve" text-anchor="middle" x="137" y="-6.5" font-family="Helvetica,sans-Serif" font-size="10.00">filesystem</text>
</a>
</g>
</g>
<!-- Node1&#45;&gt;Node4 -->
<g id="edge4_Node000001_Node000004" class="edge">
<title>Node1&#45;&gt;Node4</title>
<g id="a_edge4_Node000001_Node000004"><a xlink:title=" ">
<path fill="none" stroke="#63b8ff" d="M212.15,-111.61C197.48,-103.82 177.89,-91.52 165,-76 154.07,-62.84 146.75,-44.77 142.34,-31.02"/>
<polygon fill="#63b8ff" stroke="#63b8ff" points="145.79,-30.35 139.63,-21.74 139.07,-32.32 145.79,-30.35"/>
</a>
</g>
</g>
<!-- Node5 -->
<g id="Node000005" class="node">
<title>Node5</title>
<g id="a_Node000005"><a xlink:title=" ">
<polygon fill="#e0e0e0" stroke="#999999" points="222.12,-76 173.88,-76 173.88,-56 222.12,-56 222.12,-76"/>
<text xml:space="preserve" text-anchor="middle" x="198" y="-62.5" font-family="Helvetica,sans-Serif" font-size="10.00">random</text>
</a>
</g>
</g>
<!-- Node1&#45;&gt;Node5 -->
<g id="edge5_Node000001_Node000005" class="edge">
<title>Node1&#45;&gt;Node5</title>
<g id="a_edge5_Node000001_Node000005"><a xlink:title=" ">
<path fill="none" stroke="#63b8ff" d="M226.08,-111.59C221.64,-104.55 215.42,-94.67 209.96,-86"/>
<polygon fill="#63b8ff" stroke="#63b8ff" points="212.95,-84.18 204.66,-77.58 207.03,-87.91 212.95,-84.18"/>
</a>
</g>
</g>
<!-- Node6 -->
<g id="Node000006" class="node">
<title>Node6</title>
<g id="a_Node000006"><a xlink:title=" ">
<polygon fill="#e0e0e0" stroke="#999999" points="291.62,-76 240.38,-76 240.38,-56 291.62,-56 291.62,-76"/>
<text xml:space="preserve" text-anchor="middle" x="266" y="-62.5" font-family="Helvetica,sans-Serif" font-size="10.00">sstream</text>
</a>
</g>
</g>
<!-- Node1&#45;&gt;Node6 -->
<g id="edge6_Node000001_Node000006" class="edge">
<title>Node1&#45;&gt;Node6</title>
<g id="a_edge6_Node000001_Node000006"><a xlink:title=" ">
<path fill="none" stroke="#63b8ff" d="M237.92,-111.59C242.36,-104.55 248.58,-94.67 254.04,-86"/>
<polygon fill="#63b8ff" stroke="#63b8ff" points="256.97,-87.91 259.34,-77.58 251.05,-84.18 256.97,-87.91"/>
</a>
</g>
</g>
<!-- Node7 -->
<g id="Node000007" class="node">
<title>Node7</title>
<g id="a_Node000007"><a xlink:title=" ">
<polygon fill="#e0e0e0" stroke="#999999" points="359.88,-76 310.12,-76 310.12,-56 359.88,-56 359.88,-76"/>
<text xml:space="preserve" text-anchor="middle" x="335" y="-62.5" font-family="Helvetica,sans-Serif" font-size="10.00">iomanip</text>
</a>
</g>
</g>
<!-- Node1&#45;&gt;Node7 -->
<g id="edge7_Node000001_Node000007" class="edge">
<title>Node1&#45;&gt;Node7</title>
<g id="a_edge7_Node000001_Node000007"><a xlink:title=" ">
<path fill="none" stroke="#63b8ff" d="M249.94,-111.59C265.65,-103.36 288.73,-91.26 306.89,-81.74"/>
<polygon fill="#63b8ff" stroke="#63b8ff" points="308.35,-84.93 315.58,-77.18 305.1,-78.73 308.35,-84.93"/>
</a>
</g>
</g>
<!-- Node8 -->
<g id="Node000008" class="node">
<title>Node8</title>
<g id="a_Node000008"><a xlink:title=" ">
<polygon fill="#e0e0e0" stroke="#999999" points="426.5,-76 377.5,-76 377.5,-56 426.5,-56 426.5,-76"/>
<text xml:space="preserve" text-anchor="middle" x="402" y="-62.5" font-family="Helvetica,sans-Serif" font-size="10.00">fstream</text>
</a>
</g>
</g>
<!-- Node1&#45;&gt;Node8 -->
<g id="edge8_Node000001_Node000008" class="edge">
<title>Node1&#45;&gt;Node8</title>
<g id="a_edge8_Node000001_Node000008"><a xlink:title=" ">
<path fill="none" stroke="#63b8ff" d="M261.61,-111.59C290.76,-102.34 335.29,-88.19 366.36,-78.32"/>
<polygon fill="#63b8ff" stroke="#63b8ff" points="367.23,-81.72 375.7,-75.35 365.11,-75.05 367.23,-81.72"/>
</a>
</g>
</g>
<!-- Node3 -->
<g id="Node000003" class="node">
<title>Node3</title>
<g id="a_Node000003"><a xlink:title=" ">
<polygon fill="#e0e0e0" stroke="#999999" points="79,-20 39,-20 39,0 79,0 79,-20"/>
<text xml:space="preserve" text-anchor="middle" x="59" y="-6.5" font-family="Helvetica,sans-Serif" font-size="10.00">string</text>
</a>
</g>
</g>
<!-- Node2&#45;&gt;Node3 -->
<g id="edge2_Node000002_Node000003" class="edge">
<title>Node2&#45;&gt;Node3</title>
<g id="a_edge2_Node000002_Node000003"><a xlink:title=" ">
<path fill="none" stroke="#63b8ff" d="M59,-55.59C59,-49.01 59,-39.96 59,-31.73"/>
<polygon fill="#63b8ff" stroke="#63b8ff" points="62.5,-31.81 59,-21.81 55.5,-31.81 62.5,-31.81"/>
</a>
</g>
</g>
<!-- Node2&#45;&gt;Node4 -->
<g id="edge3_Node000002_Node000004" class="edge">
<title>Node2&#45;&gt;Node4</title>
<g id="a_edge3_Node000002_Node000004"><a xlink:title=" ">
<path fill="none" stroke="#63b8ff" d="M72.59,-55.59C84.04,-47.67 100.66,-36.16 114.16,-26.82"/>
<polygon fill="#63b8ff" stroke="#63b8ff" points="115.83,-29.91 122.06,-21.34 111.85,-24.16 115.83,-29.91"/>
</a>
</g>
</g>
</g>
</svg>
