<?xml version="1.0" encoding="UTF-8" standalone="no"?>
<!DOCTYPE svg PUBLIC "-//W3C//DTD SVG 1.1//EN"
 "http://www.w3.org/Graphics/SVG/1.1/DTD/svg11.dtd">
<!-- Generated by graphviz version 14.0.2 (20251019.1705)
 -->
<!-- Title: Texture.h Pages: 1 -->
<svg width="1561pt" height="252pt"
 viewBox="0.00 0.00 1561.00 252.00" xmlns="http://www.w3.org/2000/svg" xmlns:xlink="http://www.w3.org/1999/xlink">
<g id="graph0" class="graph" transform="scale(1 1) rotate(0) translate(4 248)">
<title>Texture.h</title>
<!-- Node1 -->
<g id="Node000001" class="node">
<title>Node1</title>
<g id="a_Node000001"><a xlink:title=" ">
<polygon fill="#999999" stroke="#666666" points="694.12,-244 637.62,-244 637.62,-224 694.12,-224 694.12,-244"/>
<text xml:space="preserve" text-anchor="middle" x="665.88" y="-230.5" font-family="Helvetica,sans-Serif" font-size="10.00">Texture.h</text>
</a>
</g>
</g>
<!-- Node2 -->
<g id="Node000002" class="node">
<title>Node2</title>
<g id="a_Node000002"><a xlink:href="AssetManager_8cpp.html" target="_top" xlink:title=" ">
<polygon fill="white" stroke="#666666" points="97.75,-188 0,-188 0,-168 97.75,-168 97.75,-188"/>
<text xml:space="preserve" text-anchor="middle" x="48.88" y="-174.5" font-family="Helvetica,sans-Serif" font-size="10.00">AssetManager.cpp</text>
</a>
</g>
</g>
<!-- Node1&#45;&gt;Node2 -->
<g id="edge1_Node000001_Node000002" class="edge">
<title>Node1&#45;&gt;Node2</title>
<g id="a_edge1_Node000001_Node000002"><a xlink:title=" ">
<path fill="none" stroke="#63b8ff" d="M626.06,-230.8C534.3,-225.53 300.95,-210.84 106.88,-188 104.04,-187.67 101.13,-187.3 98.2,-186.91"/>
<polygon fill="#63b8ff" stroke="#63b8ff" points="625.6,-234.28 635.79,-231.36 626,-227.3 625.6,-234.28"/>
</a>
</g>
</g>
<!-- Node3 -->
<g id="Node000003" class="node">
<title>Node3</title>
<g id="a_Node000003"><a xlink:href="ContentBrowser_8cpp.html" target="_top" xlink:title=" ">
<polygon fill="white" stroke="#666666" points="221.5,-188 116.25,-188 116.25,-168 221.5,-168 221.5,-188"/>
<text xml:space="preserve" text-anchor="middle" x="168.88" y="-174.5" font-family="Helvetica,sans-Serif" font-size="10.00">ContentBrowser.cpp</text>
</a>
</g>
</g>
<!-- Node1&#45;&gt;Node3 -->
<g id="edge2_Node000001_Node000003" class="edge">
<title>Node1&#45;&gt;Node3</title>
<g id="a_edge2_Node000001_Node000003"><a xlink:title=" ">
<path fill="none" stroke="#63b8ff" d="M625.78,-229.2C549.68,-221.9 379.14,-205.11 235.88,-188 231.33,-187.46 226.62,-186.87 221.89,-186.27"/>
<polygon fill="#63b8ff" stroke="#63b8ff" points="625.36,-232.68 635.65,-230.14 626.03,-225.71 625.36,-232.68"/>
</a>
</g>
</g>
<!-- Node4 -->
<g id="Node000004" class="node">
<title>Node4</title>
<g id="a_Node000004"><a xlink:href="Inspector_8cpp.html" target="_top" xlink:title=" ">
<polygon fill="white" stroke="#666666" points="333.5,-20 258.25,-20 258.25,0 333.5,0 333.5,-20"/>
<text xml:space="preserve" text-anchor="middle" x="295.88" y="-6.5" font-family="Helvetica,sans-Serif" font-size="10.00">Inspector.cpp</text>
</a>
</g>
</g>
<!-- Node1&#45;&gt;Node4 -->
<g id="edge3_Node000001_Node000004" class="edge">
<title>Node1&#45;&gt;Node4</title>
<g id="a_edge3_Node000001_Node000004"><a xlink:title=" ">
<path fill="none" stroke="#63b8ff" d="M625.76,-231.22C571.73,-227.75 473.29,-217.57 394.88,-188 324.77,-161.57 289.99,-147.89 268.88,-76 262.88,-55.6 277.51,-32.9 287.49,-20.46"/>
<polygon fill="#63b8ff" stroke="#63b8ff" points="625.53,-234.71 635.72,-231.81 625.95,-227.73 625.53,-234.71"/>
</a>
</g>
</g>
<!-- Node5 -->
<g id="Node000005" class="node">
<title>Node5</title>
<g id="a_Node000005"><a xlink:href="Material_8cpp.html" target="_top" xlink:title=" ">
<polygon fill="white" stroke="#666666" points="611.5,-132 542.25,-132 542.25,-112 611.5,-112 611.5,-132"/>
<text xml:space="preserve" text-anchor="middle" x="576.88" y="-118.5" font-family="Helvetica,sans-Serif" font-size="10.00">Material.cpp</text>
</a>
</g>
</g>
<!-- Node1&#45;&gt;Node5 -->
<g id="edge4_Node000001_Node000005" class="edge">
<title>Node1&#45;&gt;Node5</title>
<g id="a_edge4_Node000001_Node000005"><a xlink:title=" ">
<path fill="none" stroke="#63b8ff" d="M626.23,-224.83C605.96,-218.43 583.06,-207.26 570.88,-188 559.97,-170.76 567.36,-145.63 572.72,-132.23"/>
<polygon fill="#63b8ff" stroke="#63b8ff" points="625.1,-228.15 635.67,-227.5 627,-221.41 625.1,-228.15"/>
</a>
</g>
</g>
<!-- Node6 -->
<g id="Node000006" class="node">
<title>Node6</title>
<g id="a_Node000006"><a xlink:href="Material_8h.html" target="_top" xlink:title=" ">
<polygon fill="white" stroke="#666666" points="524.25,-188 465.5,-188 465.5,-168 524.25,-168 524.25,-188"/>
<text xml:space="preserve" text-anchor="middle" x="494.88" y="-174.5" font-family="Helvetica,sans-Serif" font-size="10.00">Material.h</text>
</a>
</g>
</g>
<!-- Node1&#45;&gt;Node6 -->
<g id="edge5_Node000001_Node000006" class="edge">
<title>Node1&#45;&gt;Node6</title>
<g id="a_edge5_Node000001_Node000006"><a xlink:title=" ">
<path fill="none" stroke="#63b8ff" d="M626.41,-220.54C595.42,-210.75 552.94,-197.34 524.74,-188.43"/>
<polygon fill="#63b8ff" stroke="#63b8ff" points="625.22,-223.83 635.81,-223.51 627.33,-217.16 625.22,-223.83"/>
</a>
</g>
</g>
<!-- Node7 -->
<g id="Node000007" class="node">
<title>Node7</title>
<g id="a_Node000007"><a xlink:href="MaterialComponent_8h.html" target="_top" xlink:title=" ">
<polygon fill="white" stroke="#666666" points="511.38,-76 402.38,-76 402.38,-56 511.38,-56 511.38,-76"/>
<text xml:space="preserve" text-anchor="middle" x="456.88" y="-62.5" font-family="Helvetica,sans-Serif" font-size="10.00">MaterialComponent.h</text>
</a>
</g>
</g>
<!-- Node1&#45;&gt;Node7 -->
<g id="edge15_Node000001_Node000007" class="edge">
<title>Node1&#45;&gt;Node7</title>
<g id="a_edge15_Node000001_Node000007"><a xlink:title=" ">
<path fill="none" stroke="#63b8ff" d="M626.08,-230.24C571.48,-225.53 477.73,-213.83 456.88,-188 430.21,-154.99 445.63,-98.74 453.32,-76.47"/>
<polygon fill="#63b8ff" stroke="#63b8ff" points="625.66,-233.72 635.91,-231.04 626.23,-226.74 625.66,-233.72"/>
</a>
</g>
</g>
<!-- Node10 -->
<g id="Node000010" class="node">
<title>Node10</title>
<g id="a_Node000010"><a xlink:href="MaterialInstance_8h.html" target="_top" xlink:title=" ">
<polygon fill="white" stroke="#666666" points="410,-132 313.75,-132 313.75,-112 410,-112 410,-132"/>
<text xml:space="preserve" text-anchor="middle" x="361.88" y="-118.5" font-family="Helvetica,sans-Serif" font-size="10.00">MaterialInstance.h</text>
</a>
</g>
</g>
<!-- Node1&#45;&gt;Node10 -->
<g id="edge16_Node000001_Node000010" class="edge">
<title>Node1&#45;&gt;Node10</title>
<g id="a_edge16_Node000001_Node000010"><a xlink:title=" ">
<path fill="none" stroke="#63b8ff" d="M625.85,-232.96C575.73,-231.31 488.58,-223.05 423.88,-188 398.64,-174.33 377.65,-146.73 367.84,-132.29"/>
<polygon fill="#63b8ff" stroke="#63b8ff" points="625.57,-236.45 635.65,-233.2 625.74,-229.45 625.57,-236.45"/>
</a>
</g>
</g>
<!-- Node12 -->
<g id="Node000012" class="node">
<title>Node12</title>
<g id="a_Node000012"><a xlink:href="ui_2PackageManager_8cpp.html" target="_top" xlink:title=" ">
<polygon fill="white" stroke="#666666" points="804.12,-188 693.62,-188 693.62,-168 804.12,-168 804.12,-188"/>
<text xml:space="preserve" text-anchor="middle" x="748.88" y="-174.5" font-family="Helvetica,sans-Serif" font-size="10.00">PackageManager.cpp</text>
</a>
</g>
</g>
<!-- Node1&#45;&gt;Node12 -->
<g id="edge17_Node000001_Node000012" class="edge">
<title>Node1&#45;&gt;Node12</title>
<g id="a_edge17_Node000001_Node000012"><a xlink:title=" ">
<path fill="none" stroke="#63b8ff" d="M689.63,-217.54C704.04,-208.17 721.97,-196.51 734.3,-188.48"/>
<polygon fill="#63b8ff" stroke="#63b8ff" points="688.07,-214.38 681.6,-222.77 691.89,-220.25 688.07,-214.38"/>
</a>
</g>
</g>
<!-- Node13 -->
<g id="Node000013" class="node">
<title>Node13</title>
<g id="a_Node000013"><a xlink:href="ProjectBrowser_8cpp.html" target="_top" xlink:title=" ">
<polygon fill="white" stroke="#666666" points="923.62,-188 822.12,-188 822.12,-168 923.62,-168 923.62,-188"/>
<text xml:space="preserve" text-anchor="middle" x="872.88" y="-174.5" font-family="Helvetica,sans-Serif" font-size="10.00">ProjectBrowser.cpp</text>
</a>
</g>
</g>
<!-- Node1&#45;&gt;Node13 -->
<g id="edge18_Node000001_Node000013" class="edge">
<title>Node1&#45;&gt;Node13</title>
<g id="a_edge18_Node000001_Node000013"><a xlink:title=" ">
<path fill="none" stroke="#63b8ff" d="M705.31,-222.71C743.14,-212.85 799.77,-198.07 836.52,-188.48"/>
<polygon fill="#63b8ff" stroke="#63b8ff" points="704.48,-219.31 695.69,-225.22 706.25,-226.09 704.48,-219.31"/>
</a>
</g>
</g>
<!-- Node14 -->
<g id="Node000014" class="node">
<title>Node14</title>
<g id="a_Node000014"><a xlink:href="SceneViewport_8cpp.html" target="_top" xlink:title=" ">
<polygon fill="white" stroke="#666666" points="1042.25,-188 941.5,-188 941.5,-168 1042.25,-168 1042.25,-188"/>
<text xml:space="preserve" text-anchor="middle" x="991.88" y="-174.5" font-family="Helvetica,sans-Serif" font-size="10.00">SceneViewport.cpp</text>
</a>
</g>
</g>
<!-- Node1&#45;&gt;Node14 -->
<g id="edge19_Node000001_Node000014" class="edge">
<title>Node1&#45;&gt;Node14</title>
<g id="a_edge19_Node000001_Node000014"><a xlink:title=" ">
<path fill="none" stroke="#63b8ff" d="M705.64,-226.41C764.89,-216.6 876.32,-198.14 941.29,-187.38"/>
<polygon fill="#63b8ff" stroke="#63b8ff" points="705.31,-222.92 696.01,-228.01 706.45,-229.83 705.31,-222.92"/>
</a>
</g>
</g>
<!-- Node15 -->
<g id="Node000015" class="node">
<title>Node15</title>
<g id="a_Node000015"><a xlink:href="Skybox_8cpp.html" target="_top" xlink:title=" ">
<polygon fill="white" stroke="#666666" points="735.75,-132 668,-132 668,-112 735.75,-112 735.75,-132"/>
<text xml:space="preserve" text-anchor="middle" x="701.88" y="-118.5" font-family="Helvetica,sans-Serif" font-size="10.00">Skybox.cpp</text>
</a>
</g>
</g>
<!-- Node1&#45;&gt;Node15 -->
<g id="edge20_Node000001_Node000015" class="edge">
<title>Node1&#45;&gt;Node15</title>
<g id="a_edge20_Node000001_Node000015"><a xlink:title=" ">
<path fill="none" stroke="#63b8ff" d="M671.35,-212.78C674.95,-199.89 679.9,-182.87 684.88,-168 689.06,-155.49 694.56,-141.28 698.15,-132.23"/>
<polygon fill="#63b8ff" stroke="#63b8ff" points="668.04,-211.64 668.76,-222.21 674.79,-213.5 668.04,-211.64"/>
</a>
</g>
</g>
<!-- Node16 -->
<g id="Node000016" class="node">
<title>Node16</title>
<g id="a_Node000016"><a xlink:href="Skybox_8h.html" target="_top" xlink:title=" ">
<polygon fill="white" stroke="#666666" points="637.5,-188 580.25,-188 580.25,-168 637.5,-168 637.5,-188"/>
<text xml:space="preserve" text-anchor="middle" x="608.88" y="-174.5" font-family="Helvetica,sans-Serif" font-size="10.00">Skybox.h</text>
</a>
</g>
</g>
<!-- Node1&#45;&gt;Node16 -->
<g id="edge21_Node000001_Node000016" class="edge">
<title>Node1&#45;&gt;Node16</title>
<g id="a_edge21_Node000001_Node000016"><a xlink:title=" ">
<path fill="none" stroke="#63b8ff" d="M647.77,-215.85C638.14,-206.72 626.67,-195.86 618.69,-188.3"/>
<polygon fill="#63b8ff" stroke="#63b8ff" points="645.18,-218.22 654.85,-222.55 650,-213.13 645.18,-218.22"/>
</a>
</g>
</g>
<!-- Node17 -->
<g id="Node000017" class="node">
<title>Node17</title>
<g id="a_Node000017"><a xlink:href="SplashScreen_8cpp.html" target="_top" xlink:title=" ">
<polygon fill="white" stroke="#666666" points="1155.62,-188 1060.12,-188 1060.12,-168 1155.62,-168 1155.62,-188"/>
<text xml:space="preserve" text-anchor="middle" x="1107.88" y="-174.5" font-family="Helvetica,sans-Serif" font-size="10.00">SplashScreen.cpp</text>
</a>
</g>
</g>
<!-- Node1&#45;&gt;Node17 -->
<g id="edge24_Node000001_Node000017" class="edge">
<title>Node1&#45;&gt;Node17</title>
<g id="a_edge24_Node000001_Node000017"><a xlink:title=" ">
<path fill="none" stroke="#63b8ff" d="M705.75,-228.87C775.72,-221.51 925.14,-205.27 1050.88,-188 1053.75,-187.6 1056.71,-187.18 1059.69,-186.75"/>
<polygon fill="#63b8ff" stroke="#63b8ff" points="705.51,-225.38 695.93,-229.9 706.24,-232.34 705.51,-225.38"/>
</a>
</g>
</g>
<!-- Node18 -->
<g id="Node000018" class="node">
<title>Node18</title>
<g id="a_Node000018"><a xlink:href="Texture_8cpp.html" target="_top" xlink:title=" ">
<polygon fill="white" stroke="#666666" points="1240.38,-188 1173.38,-188 1173.38,-168 1240.38,-168 1240.38,-188"/>
<text xml:space="preserve" text-anchor="middle" x="1206.88" y="-174.5" font-family="Helvetica,sans-Serif" font-size="10.00">Texture.cpp</text>
</a>
</g>
</g>
<!-- Node1&#45;&gt;Node18 -->
<g id="edge25_Node000001_Node000018" class="edge">
<title>Node1&#45;&gt;Node18</title>
<g id="a_edge25_Node000001_Node000018"><a xlink:title=" ">
<path fill="none" stroke="#63b8ff" d="M705.84,-231.04C790.75,-226.53 995.23,-213.73 1164.88,-188 1167.53,-187.6 1170.27,-187.13 1173.01,-186.62"/>
<polygon fill="#63b8ff" stroke="#63b8ff" points="705.75,-227.54 695.94,-231.56 706.11,-234.53 705.75,-227.54"/>
</a>
</g>
</g>
<!-- Node19 -->
<g id="Node000019" class="node">
<title>Node19</title>
<g id="a_Node000019"><a xlink:href="ThumbnailGenerator_8cpp.html" target="_top" xlink:title=" ">
<polygon fill="white" stroke="#666666" points="1381.12,-188 1258.62,-188 1258.62,-168 1381.12,-168 1381.12,-188"/>
<text xml:space="preserve" text-anchor="middle" x="1319.88" y="-174.5" font-family="Helvetica,sans-Serif" font-size="10.00">ThumbnailGenerator.cpp</text>
</a>
</g>
</g>
<!-- Node1&#45;&gt;Node19 -->
<g id="edge26_Node000001_Node000019" class="edge">
<title>Node1&#45;&gt;Node19</title>
<g id="a_edge26_Node000001_Node000019"><a xlink:title=" ">
<path fill="none" stroke="#63b8ff" d="M705.78,-230.63C800.39,-224.85 1045.67,-208.98 1249.88,-188 1252.68,-187.71 1255.54,-187.4 1258.44,-187.08"/>
<polygon fill="#63b8ff" stroke="#63b8ff" points="705.76,-227.12 695.99,-231.22 706.19,-234.11 705.76,-227.12"/>
</a>
</g>
</g>
<!-- Node20 -->
<g id="Node000020" class="node">
<title>Node20</title>
<g id="a_Node000020"><a xlink:href="Thumbs_8cpp.html" target="_top" xlink:title=" ">
<polygon fill="white" stroke="#666666" points="1468.88,-188 1398.88,-188 1398.88,-168 1468.88,-168 1468.88,-188"/>
<text xml:space="preserve" text-anchor="middle" x="1433.88" y="-174.5" font-family="Helvetica,sans-Serif" font-size="10.00">Thumbs.cpp</text>
</a>
</g>
</g>
<!-- Node1&#45;&gt;Node20 -->
<g id="edge27_Node000001_Node000020" class="edge">
<title>Node1&#45;&gt;Node20</title>
<g id="a_edge27_Node000001_Node000020"><a xlink:title=" ">
<path fill="none" stroke="#63b8ff" d="M705.75,-232.47C815.41,-230.61 1130.56,-222.41 1389.88,-188 1392.66,-187.63 1395.53,-187.19 1398.41,-186.7"/>
<polygon fill="#63b8ff" stroke="#63b8ff" points="705.76,-228.97 695.82,-232.63 705.87,-235.97 705.76,-228.97"/>
</a>
</g>
</g>
<!-- Node21 -->
<g id="Node000021" class="node">
<title>Node21</title>
<g id="a_Node000021"><a xlink:href="Toolbar_8cpp.html" target="_top" xlink:title=" ">
<polygon fill="white" stroke="#666666" points="1553,-188 1486.75,-188 1486.75,-168 1553,-168 1553,-188"/>
<text xml:space="preserve" text-anchor="middle" x="1519.88" y="-174.5" font-family="Helvetica,sans-Serif" font-size="10.00">Toolbar.cpp</text>
</a>
</g>
</g>
<!-- Node1&#45;&gt;Node21 -->
<g id="edge28_Node000001_Node000021" class="edge">
<title>Node1&#45;&gt;Node21</title>
<g id="a_edge28_Node000001_Node000021"><a xlink:title=" ">
<path fill="none" stroke="#63b8ff" d="M705.76,-232.98C824.09,-232.46 1183.28,-227.48 1477.88,-188 1480.68,-187.62 1483.58,-187.16 1486.49,-186.65"/>
<polygon fill="#63b8ff" stroke="#63b8ff" points="705.93,-229.48 695.95,-233.02 705.96,-236.48 705.93,-229.48"/>
</a>
</g>
</g>
<!-- Node6&#45;&gt;Node5 -->
<g id="edge6_Node000006_Node000005" class="edge">
<title>Node6&#45;&gt;Node5</title>
<g id="a_edge6_Node000006_Node000005"><a xlink:title=" ">
<path fill="none" stroke="#63b8ff" d="M518.76,-161.27C532.92,-151.94 550.41,-140.43 562.48,-132.48"/>
<polygon fill="#63b8ff" stroke="#63b8ff" points="516.85,-158.34 510.42,-166.76 520.7,-164.18 516.85,-158.34"/>
</a>
</g>
</g>
<!-- Node6&#45;&gt;Node7 -->
<g id="edge7_Node000006_Node000007" class="edge">
<title>Node6&#45;&gt;Node7</title>
<g id="a_edge7_Node000006_Node000007"><a xlink:title=" ">
<path fill="none" stroke="#63b8ff" d="M487.96,-156.97C479.7,-133.07 466.24,-94.11 460.11,-76.35"/>
<polygon fill="#63b8ff" stroke="#63b8ff" points="484.57,-157.88 491.14,-166.19 491.18,-155.6 484.57,-157.88"/>
</a>
</g>
</g>
<!-- Node9 -->
<g id="Node000009" class="node">
<title>Node9</title>
<g id="a_Node000009"><a xlink:href="main_8cpp.html" target="_top" xlink:title=" ">
<polygon fill="white" stroke="#666666" points="578.75,-20 523,-20 523,0 578.75,0 578.75,-20"/>
<text xml:space="preserve" text-anchor="middle" x="550.88" y="-6.5" font-family="Helvetica,sans-Serif" font-size="10.00">main.cpp</text>
</a>
</g>
</g>
<!-- Node6&#45;&gt;Node9 -->
<g id="edge14_Node000006_Node000009" class="edge">
<title>Node6&#45;&gt;Node9</title>
<g id="a_edge14_Node000006_Node000009"><a xlink:title=" ">
<path fill="none" stroke="#63b8ff" d="M501.63,-156.97C513.79,-120.92 538.93,-46.42 547.74,-20.3"/>
<polygon fill="#63b8ff" stroke="#63b8ff" points="498.41,-155.57 498.53,-166.17 505.04,-157.81 498.41,-155.57"/>
</a>
</g>
</g>
<!-- Node6&#45;&gt;Node10 -->
<g id="edge11_Node000006_Node000010" class="edge">
<title>Node6&#45;&gt;Node10</title>
<g id="a_edge11_Node000006_Node000010"><a xlink:title=" ">
<path fill="none" stroke="#63b8ff" d="M461.06,-163.27C437.34,-153.64 406.23,-141.01 385.22,-132.48"/>
<polygon fill="#63b8ff" stroke="#63b8ff" points="459.72,-166.51 470.31,-167.02 462.36,-160.02 459.72,-166.51"/>
</a>
</g>
</g>
<!-- Node7&#45;&gt;Node4 -->
<g id="edge8_Node000007_Node000004" class="edge">
<title>Node7&#45;&gt;Node4</title>
<g id="a_edge8_Node000007_Node000004"><a xlink:title=" ">
<path fill="none" stroke="#63b8ff" d="M418.26,-52.05C389.28,-42.33 350.25,-29.24 324.14,-20.48"/>
<polygon fill="#63b8ff" stroke="#63b8ff" points="416.8,-55.25 427.4,-55.11 419.03,-48.61 416.8,-55.25"/>
</a>
</g>
</g>
<!-- Node8 -->
<g id="Node000008" class="node">
<title>Node8</title>
<g id="a_Node000008"><a xlink:href="MaterialComponent_8cpp.html" target="_top" xlink:title=" ">
<polygon fill="white" stroke="#666666" points="504.62,-20 385.12,-20 385.12,0 504.62,0 504.62,-20"/>
<text xml:space="preserve" text-anchor="middle" x="444.88" y="-6.5" font-family="Helvetica,sans-Serif" font-size="10.00">MaterialComponent.cpp</text>
</a>
</g>
</g>
<!-- Node7&#45;&gt;Node8 -->
<g id="edge9_Node000007_Node000008" class="edge">
<title>Node7&#45;&gt;Node8</title>
<g id="a_edge9_Node000007_Node000008"><a xlink:title=" ">
<path fill="none" stroke="#63b8ff" d="M452.3,-44.43C450.45,-36.11 448.42,-26.93 446.94,-20.3"/>
<polygon fill="#63b8ff" stroke="#63b8ff" points="448.87,-45.11 454.46,-54.12 455.7,-43.6 448.87,-45.11"/>
</a>
</g>
</g>
<!-- Node7&#45;&gt;Node9 -->
<g id="edge10_Node000007_Node000009" class="edge">
<title>Node7&#45;&gt;Node9</title>
<g id="a_edge10_Node000007_Node000009"><a xlink:title=" ">
<path fill="none" stroke="#63b8ff" d="M482.85,-50.08C499.32,-40.62 520.13,-28.66 534.37,-20.48"/>
<polygon fill="#63b8ff" stroke="#63b8ff" points="481.49,-46.82 474.56,-54.84 484.98,-52.89 481.49,-46.82"/>
</a>
</g>
</g>
<!-- Node10&#45;&gt;Node7 -->
<g id="edge12_Node000010_Node000007" class="edge">
<title>Node10&#45;&gt;Node7</title>
<g id="a_edge12_Node000010_Node000007"><a xlink:title=" ">
<path fill="none" stroke="#63b8ff" d="M388.12,-106.08C404.77,-96.62 425.81,-84.66 440.2,-76.48"/>
<polygon fill="#63b8ff" stroke="#63b8ff" points="386.7,-102.86 379.74,-110.85 390.16,-108.95 386.7,-102.86"/>
</a>
</g>
</g>
<!-- Node11 -->
<g id="Node000011" class="node">
<title>Node11</title>
<g id="a_Node000011"><a xlink:href="MaterialInstance_8cpp.html" target="_top" xlink:title=" ">
<polygon fill="white" stroke="#666666" points="384.25,-76 277.5,-76 277.5,-56 384.25,-56 384.25,-76"/>
<text xml:space="preserve" text-anchor="middle" x="330.88" y="-62.5" font-family="Helvetica,sans-Serif" font-size="10.00">MaterialInstance.cpp</text>
</a>
</g>
</g>
<!-- Node10&#45;&gt;Node11 -->
<g id="edge13_Node000010_Node000011" class="edge">
<title>Node10&#45;&gt;Node11</title>
<g id="a_edge13_Node000010_Node000011"><a xlink:title=" ">
<path fill="none" stroke="#63b8ff" d="M350.89,-101.87C345.91,-93.19 340.24,-83.32 336.21,-76.3"/>
<polygon fill="#63b8ff" stroke="#63b8ff" points="347.71,-103.35 355.72,-110.28 353.78,-99.87 347.71,-103.35"/>
</a>
</g>
</g>
<!-- Node16&#45;&gt;Node9 -->
<g id="edge23_Node000016_Node000009" class="edge">
<title>Node16&#45;&gt;Node9</title>
<g id="a_edge23_Node000016_Node000009"><a xlink:title=" ">
<path fill="none" stroke="#63b8ff" d="M617.51,-157C621.92,-143.99 625.49,-126.76 620.88,-112 608.91,-73.72 576.77,-37.19 560.53,-20.49"/>
<polygon fill="#63b8ff" stroke="#63b8ff" points="614.31,-155.57 613.97,-166.16 620.84,-158.09 614.31,-155.57"/>
</a>
</g>
</g>
<!-- Node16&#45;&gt;Node15 -->
<g id="edge22_Node000016_Node000015" class="edge">
<title>Node16&#45;&gt;Node15</title>
<g id="a_edge22_Node000016_Node000015"><a xlink:title=" ">
<path fill="none" stroke="#63b8ff" d="M634.57,-162.08C650.87,-152.62 671.46,-140.66 685.55,-132.48"/>
<polygon fill="#63b8ff" stroke="#63b8ff" points="633.27,-158.79 626.38,-166.83 636.79,-164.84 633.27,-158.79"/>
</a>
</g>
</g>
</g>
</svg>
