<?xml version="1.0" encoding="UTF-8" standalone="no"?>
<!DOCTYPE svg PUBLIC "-//W3C//DTD SVG 1.1//EN"
 "http://www.w3.org/Graphics/SVG/1.1/DTD/svg11.dtd">
<!-- Generated by graphviz version 14.0.2 (20251019.1705)
 -->
<!-- Title: TextureExporter.cpp Pages: 1 -->
<svg width="515pt" height="252pt"
 viewBox="0.00 0.00 515.00 252.00" xmlns="http://www.w3.org/2000/svg" xmlns:xlink="http://www.w3.org/1999/xlink">
<g id="graph0" class="graph" transform="scale(1 1) rotate(0) translate(4 248)">
<title>TextureExporter.cpp</title>
<!-- Node1 -->
<g id="Node000001" class="node">
<title>Node1</title>
<g id="a_Node000001"><a xlink:title=" ">
<polygon fill="#999999" stroke="#666666" points="370,-244 266.25,-244 266.25,-224 370,-224 370,-244"/>
<text xml:space="preserve" text-anchor="middle" x="318.12" y="-230.5" font-family="Helvetica,sans-Serif" font-size="10.00">TextureExporter.cpp</text>
</a>
</g>
</g>
<!-- Node2 -->
<g id="Node000002" class="node">
<title>Node2</title>
<g id="a_Node000002"><a xlink:href="TextureExporter_8h.html" target="_top" xlink:title=" ">
<polygon fill="white" stroke="#666666" points="325.12,-188 177.12,-188 177.12,-168 325.12,-168 325.12,-188"/>
<text xml:space="preserve" text-anchor="middle" x="251.12" y="-174.5" font-family="Helvetica,sans-Serif" font-size="10.00">LGE/assets/TextureExporter.h</text>
</a>
</g>
</g>
<!-- Node1&#45;&gt;Node2 -->
<g id="edge1_Node000001_Node000002" class="edge">
<title>Node1&#45;&gt;Node2</title>
<g id="a_edge1_Node000001_Node000002"><a xlink:title=" ">
<path fill="none" stroke="#63b8ff" d="M306.45,-223.59C296.85,-215.85 283,-204.69 271.56,-195.47"/>
<polygon fill="#63b8ff" stroke="#63b8ff" points="273.82,-192.8 263.84,-189.25 269.43,-198.25 273.82,-192.8"/>
</a>
</g>
</g>
<!-- Node4 -->
<g id="Node000004" class="node">
<title>Node4</title>
<g id="a_Node000004"><a xlink:href="AssetMeta_8h.html" target="_top" xlink:title=" ">
<polygon fill="white" stroke="#666666" points="126.25,-76 0,-76 0,-56 126.25,-56 126.25,-76"/>
<text xml:space="preserve" text-anchor="middle" x="63.12" y="-62.5" font-family="Helvetica,sans-Serif" font-size="10.00">LGE/assets/AssetMeta.h</text>
</a>
</g>
</g>
<!-- Node1&#45;&gt;Node4 -->
<g id="edge11_Node000001_Node000004" class="edge">
<title>Node1&#45;&gt;Node4</title>
<g id="a_edge11_Node000001_Node000004"><a xlink:title=" ">
<path fill="none" stroke="#63b8ff" d="M265.75,-224.82C235.44,-218.32 197.58,-207.04 168.12,-188 126.45,-161.06 91.86,-112.9 74.73,-86.18"/>
<polygon fill="#63b8ff" stroke="#63b8ff" points="77.73,-84.38 69.47,-77.75 71.79,-88.09 77.73,-84.38"/>
</a>
</g>
</g>
<!-- Node9 -->
<g id="Node000009" class="node">
<title>Node9</title>
<g id="a_Node000009"><a xlink:href="Log_8h.html" target="_top" xlink:title=" ">
<polygon fill="white" stroke="#666666" points="427.25,-188 343,-188 343,-168 427.25,-168 427.25,-188"/>
<text xml:space="preserve" text-anchor="middle" x="385.12" y="-174.5" font-family="Helvetica,sans-Serif" font-size="10.00">LGE/core/Log.h</text>
</a>
</g>
</g>
<!-- Node1&#45;&gt;Node9 -->
<g id="edge12_Node000001_Node000009" class="edge">
<title>Node1&#45;&gt;Node9</title>
<g id="a_edge12_Node000001_Node000009"><a xlink:title=" ">
<path fill="none" stroke="#63b8ff" d="M329.8,-223.59C339.4,-215.85 353.25,-204.69 364.69,-195.47"/>
<polygon fill="#63b8ff" stroke="#63b8ff" points="366.82,-198.25 372.41,-189.25 362.43,-192.8 366.82,-198.25"/>
</a>
</g>
</g>
<!-- Node11 -->
<g id="Node000011" class="node">
<title>Node11</title>
<g id="a_Node000011"><a xlink:title=" ">
<polygon fill="#e0e0e0" stroke="#999999" points="506.62,-188 445.62,-188 445.62,-168 506.62,-168 506.62,-188"/>
<text xml:space="preserve" text-anchor="middle" x="476.12" y="-174.5" font-family="Helvetica,sans-Serif" font-size="10.00">filesystem</text>
</a>
</g>
</g>
<!-- Node1&#45;&gt;Node11 -->
<g id="edge15_Node000001_Node000011" class="edge">
<title>Node1&#45;&gt;Node11</title>
<g id="a_edge15_Node000001_Node000011"><a xlink:title=" ">
<path fill="none" stroke="#63b8ff" d="M345.65,-223.59C371.09,-214.9 409.16,-201.89 437.62,-192.16"/>
<polygon fill="#63b8ff" stroke="#63b8ff" points="438.63,-195.52 446.96,-188.97 436.36,-188.89 438.63,-195.52"/>
</a>
</g>
</g>
<!-- Node3 -->
<g id="Node000003" class="node">
<title>Node3</title>
<g id="a_Node000003"><a xlink:href="Exporter_8h.html" target="_top" xlink:title=" ">
<polygon fill="white" stroke="#666666" points="246,-132 130.25,-132 130.25,-112 246,-112 246,-132"/>
<text xml:space="preserve" text-anchor="middle" x="188.12" y="-118.5" font-family="Helvetica,sans-Serif" font-size="10.00">LGE/assets/Exporter.h</text>
</a>
</g>
</g>
<!-- Node2&#45;&gt;Node3 -->
<g id="edge2_Node000002_Node000003" class="edge">
<title>Node2&#45;&gt;Node3</title>
<g id="a_edge2_Node000002_Node000003"><a xlink:title=" ">
<path fill="none" stroke="#63b8ff" d="M240.15,-167.59C231.21,-159.93 218.35,-148.91 207.66,-139.75"/>
<polygon fill="#63b8ff" stroke="#63b8ff" points="209.99,-137.13 200.12,-133.28 205.44,-142.45 209.99,-137.13"/>
</a>
</g>
</g>
<!-- Node5 -->
<g id="Node000005" class="node">
<title>Node5</title>
<g id="a_Node000005"><a xlink:title=" ">
<polygon fill="#e0e0e0" stroke="#999999" points="294.12,-20 254.12,-20 254.12,0 294.12,0 294.12,-20"/>
<text xml:space="preserve" text-anchor="middle" x="274.12" y="-6.5" font-family="Helvetica,sans-Serif" font-size="10.00">string</text>
</a>
</g>
</g>
<!-- Node2&#45;&gt;Node5 -->
<g id="edge9_Node000002_Node000005" class="edge">
<title>Node2&#45;&gt;Node5</title>
<g id="a_edge9_Node000002_Node000005"><a xlink:title=" ">
<path fill="none" stroke="#63b8ff" d="M258.31,-167.65C270.9,-150.59 296.45,-112.77 305.12,-76 307.17,-67.35 307.77,-64.49 305.12,-56 302.11,-46.32 296.21,-36.88 290.36,-29.16"/>
<polygon fill="#63b8ff" stroke="#63b8ff" points="293.2,-27.11 284.16,-21.6 287.79,-31.55 293.2,-27.11"/>
</a>
</g>
</g>
<!-- Node7 -->
<g id="Node000007" class="node">
<title>Node7</title>
<g id="a_Node000007"><a xlink:title=" ">
<polygon fill="#e0e0e0" stroke="#999999" points="295.62,-76 252.62,-76 252.62,-56 295.62,-56 295.62,-76"/>
<text xml:space="preserve" text-anchor="middle" x="274.12" y="-62.5" font-family="Helvetica,sans-Serif" font-size="10.00">vector</text>
</a>
</g>
</g>
<!-- Node2&#45;&gt;Node7 -->
<g id="edge10_Node000002_Node000007" class="edge">
<title>Node2&#45;&gt;Node7</title>
<g id="a_edge10_Node000002_Node000007"><a xlink:title=" ">
<path fill="none" stroke="#63b8ff" d="M253.09,-167.62C256.79,-149.92 264.88,-111.24 269.88,-87.32"/>
<polygon fill="#63b8ff" stroke="#63b8ff" points="273.24,-88.34 271.86,-77.84 266.39,-86.91 273.24,-88.34"/>
</a>
</g>
</g>
<!-- Node3&#45;&gt;Node4 -->
<g id="edge3_Node000003_Node000004" class="edge">
<title>Node3&#45;&gt;Node4</title>
<g id="a_edge3_Node000003_Node000004"><a xlink:title=" ">
<path fill="none" stroke="#63b8ff" d="M166.35,-111.59C146.76,-103.13 117.7,-90.58 95.4,-80.94"/>
<polygon fill="#63b8ff" stroke="#63b8ff" points="97.03,-77.83 86.46,-77.08 94.25,-84.26 97.03,-77.83"/>
</a>
</g>
</g>
<!-- Node3&#45;&gt;Node5 -->
<g id="edge6_Node000003_Node000005" class="edge">
<title>Node3&#45;&gt;Node5</title>
<g id="a_edge6_Node000003_Node000005"><a xlink:title=" ">
<path fill="none" stroke="#63b8ff" d="M195.46,-111.62C209.67,-93.44 241.22,-53.09 259.75,-29.38"/>
<polygon fill="#63b8ff" stroke="#63b8ff" points="262.48,-31.58 265.88,-21.55 256.96,-27.27 262.48,-31.58"/>
</a>
</g>
</g>
<!-- Node3&#45;&gt;Node7 -->
<g id="edge7_Node000003_Node000007" class="edge">
<title>Node3&#45;&gt;Node7</title>
<g id="a_edge7_Node000003_Node000007"><a xlink:title=" ">
<path fill="none" stroke="#63b8ff" d="M203.11,-111.59C215.85,-103.59 234.42,-91.93 249.37,-82.54"/>
<polygon fill="#63b8ff" stroke="#63b8ff" points="251.14,-85.57 257.75,-77.28 247.42,-79.64 251.14,-85.57"/>
</a>
</g>
</g>
<!-- Node8 -->
<g id="Node000008" class="node">
<title>Node8</title>
<g id="a_Node000008"><a xlink:title=" ">
<polygon fill="#e0e0e0" stroke="#999999" points="195.75,-76 144.5,-76 144.5,-56 195.75,-56 195.75,-76"/>
<text xml:space="preserve" text-anchor="middle" x="170.12" y="-62.5" font-family="Helvetica,sans-Serif" font-size="10.00">memory</text>
</a>
</g>
</g>
<!-- Node3&#45;&gt;Node8 -->
<g id="edge8_Node000003_Node000008" class="edge">
<title>Node3&#45;&gt;Node8</title>
<g id="a_edge8_Node000003_Node000008"><a xlink:title=" ">
<path fill="none" stroke="#63b8ff" d="M184.99,-111.59C182.74,-104.86 179.64,-95.53 176.84,-87.15"/>
<polygon fill="#63b8ff" stroke="#63b8ff" points="180.19,-86.11 173.7,-77.73 173.55,-88.33 180.19,-86.11"/>
</a>
</g>
</g>
<!-- Node4&#45;&gt;Node5 -->
<g id="edge4_Node000004_Node000005" class="edge">
<title>Node4&#45;&gt;Node5</title>
<g id="a_edge4_Node000004_Node000005"><a xlink:title=" ">
<path fill="none" stroke="#63b8ff" d="M99.88,-55.59C140.33,-45.24 204.65,-28.78 242.8,-19.02"/>
<polygon fill="#63b8ff" stroke="#63b8ff" points="243.45,-22.46 252.27,-16.59 241.72,-15.68 243.45,-22.46"/>
</a>
</g>
</g>
<!-- Node6 -->
<g id="Node000006" class="node">
<title>Node6</title>
<g id="a_Node000006"><a xlink:title=" ">
<polygon fill="#e0e0e0" stroke="#999999" points="85.75,-20 40.5,-20 40.5,0 85.75,0 85.75,-20"/>
<text xml:space="preserve" text-anchor="middle" x="63.12" y="-6.5" font-family="Helvetica,sans-Serif" font-size="10.00">cstdint</text>
</a>
</g>
</g>
<!-- Node4&#45;&gt;Node6 -->
<g id="edge5_Node000004_Node000006" class="edge">
<title>Node4&#45;&gt;Node6</title>
<g id="a_edge5_Node000004_Node000006"><a xlink:title=" ">
<path fill="none" stroke="#63b8ff" d="M63.12,-55.59C63.12,-49.01 63.12,-39.96 63.12,-31.73"/>
<polygon fill="#63b8ff" stroke="#63b8ff" points="66.63,-31.81 63.13,-21.81 59.63,-31.81 66.63,-31.81"/>
</a>
</g>
</g>
<!-- Node9&#45;&gt;Node5 -->
<g id="edge14_Node000009_Node000005" class="edge">
<title>Node9&#45;&gt;Node5</title>
<g id="a_edge14_Node000009_Node000005"><a xlink:title=" ">
<path fill="none" stroke="#63b8ff" d="M381.27,-167.64C372.34,-146.53 348.78,-94.12 320.12,-56 312.45,-45.79 302.46,-35.73 293.75,-27.72"/>
<polygon fill="#63b8ff" stroke="#63b8ff" points="296.22,-25.23 286.42,-21.2 291.56,-30.46 296.22,-25.23"/>
</a>
</g>
</g>
<!-- Node10 -->
<g id="Node000010" class="node">
<title>Node10</title>
<g id="a_Node000010"><a xlink:title=" ">
<polygon fill="#e0e0e0" stroke="#999999" points="443.88,-132 390.38,-132 390.38,-112 443.88,-112 443.88,-132"/>
<text xml:space="preserve" text-anchor="middle" x="417.12" y="-118.5" font-family="Helvetica,sans-Serif" font-size="10.00">iostream</text>
</a>
</g>
</g>
<!-- Node9&#45;&gt;Node10 -->
<g id="edge13_Node000009_Node000010" class="edge">
<title>Node9&#45;&gt;Node10</title>
<g id="a_edge13_Node000009_Node000010"><a xlink:title=" ">
<path fill="none" stroke="#63b8ff" d="M390.7,-167.59C394.87,-160.55 400.73,-150.67 405.87,-142"/>
<polygon fill="#63b8ff" stroke="#63b8ff" points="408.76,-143.99 410.84,-133.6 402.73,-140.42 408.76,-143.99"/>
</a>
</g>
</g>
</g>
</svg>
