<?xml version="1.0" encoding="UTF-8" standalone="no"?>
<!DOCTYPE svg PUBLIC "-//W3C//DTD SVG 1.1//EN"
 "http://www.w3.org/Graphics/SVG/1.1/DTD/svg11.dtd">
<!-- Generated by graphviz version 14.0.2 (20251019.1705)
 -->
<!-- Title: TextureImporter.h Pages: 1 -->
<svg width="316pt" height="196pt"
 viewBox="0.00 0.00 316.00 196.00" xmlns="http://www.w3.org/2000/svg" xmlns:xlink="http://www.w3.org/1999/xlink">
<g id="graph0" class="graph" transform="scale(1 1) rotate(0) translate(4 192)">
<title>TextureImporter.h</title>
<!-- Node1 -->
<g id="Node000001" class="node">
<title>Node1</title>
<g id="a_Node000001"><a xlink:title=" ">
<polygon fill="#999999" stroke="#666666" points="165.36,-188 72.86,-188 72.86,-168 165.36,-168 165.36,-188"/>
<text xml:space="preserve" text-anchor="middle" x="119.11" y="-174.5" font-family="Helvetica,sans-Serif" font-size="10.00">TextureImporter.h</text>
</a>
</g>
</g>
<!-- Node2 -->
<g id="Node000002" class="node">
<title>Node2</title>
<g id="a_Node000002"><a xlink:href="Importer_8h.html" target="_top" xlink:title=" ">
<polygon fill="white" stroke="#666666" points="176.61,-132 61.61,-132 61.61,-112 176.61,-112 176.61,-132"/>
<text xml:space="preserve" text-anchor="middle" x="119.11" y="-118.5" font-family="Helvetica,sans-Serif" font-size="10.00">LGE/assets/Importer.h</text>
</a>
</g>
</g>
<!-- Node1&#45;&gt;Node2 -->
<g id="edge1_Node000001_Node000002" class="edge">
<title>Node1&#45;&gt;Node2</title>
<g id="a_edge1_Node000001_Node000002"><a xlink:title=" ">
<path fill="none" stroke="#63b8ff" d="M119.11,-167.59C119.11,-161.01 119.11,-151.96 119.11,-143.73"/>
<polygon fill="#63b8ff" stroke="#63b8ff" points="122.61,-143.81 119.11,-133.81 115.61,-143.81 122.61,-143.81"/>
</a>
</g>
</g>
<!-- Node4 -->
<g id="Node000004" class="node">
<title>Node4</title>
<g id="a_Node000004"><a xlink:title=" ">
<polygon fill="#e0e0e0" stroke="#999999" points="112.11,-20 72.11,-20 72.11,0 112.11,0 112.11,-20"/>
<text xml:space="preserve" text-anchor="middle" x="92.11" y="-6.5" font-family="Helvetica,sans-Serif" font-size="10.00">string</text>
</a>
</g>
</g>
<!-- Node1&#45;&gt;Node4 -->
<g id="edge8_Node000001_Node000004" class="edge">
<title>Node1&#45;&gt;Node4</title>
<g id="a_edge8_Node000001_Node000004"><a xlink:title=" ">
<path fill="none" stroke="#63b8ff" d="M99.45,-167.72C71.06,-153 20.11,-121.24 3.11,-76 -0.02,-67.68 -1.55,-63.57 3.11,-56 15.6,-35.69 40.41,-24.2 60.67,-17.93"/>
<polygon fill="#63b8ff" stroke="#63b8ff" points="61.49,-21.34 70.19,-15.29 59.62,-14.59 61.49,-21.34"/>
</a>
</g>
</g>
<!-- Node6 -->
<g id="Node000006" class="node">
<title>Node6</title>
<g id="a_Node000006"><a xlink:title=" ">
<polygon fill="#e0e0e0" stroke="#999999" points="307.61,-76 264.61,-76 264.61,-56 307.61,-56 307.61,-76"/>
<text xml:space="preserve" text-anchor="middle" x="286.11" y="-62.5" font-family="Helvetica,sans-Serif" font-size="10.00">vector</text>
</a>
</g>
</g>
<!-- Node1&#45;&gt;Node6 -->
<g id="edge9_Node000001_Node000006" class="edge">
<title>Node1&#45;&gt;Node6</title>
<g id="a_edge9_Node000001_Node000006"><a xlink:title=" ">
<path fill="none" stroke="#63b8ff" d="M133.35,-167.62C162.06,-148.71 227.18,-105.82 262.41,-82.61"/>
<polygon fill="#63b8ff" stroke="#63b8ff" points="264.22,-85.61 270.64,-77.19 260.37,-79.77 264.22,-85.61"/>
</a>
</g>
</g>
<!-- Node3 -->
<g id="Node000003" class="node">
<title>Node3</title>
<g id="a_Node000003"><a xlink:href="AssetMeta_8h.html" target="_top" xlink:title=" ">
<polygon fill="white" stroke="#666666" points="246.23,-76 119.98,-76 119.98,-56 246.23,-56 246.23,-76"/>
<text xml:space="preserve" text-anchor="middle" x="183.11" y="-62.5" font-family="Helvetica,sans-Serif" font-size="10.00">LGE/assets/AssetMeta.h</text>
</a>
</g>
</g>
<!-- Node2&#45;&gt;Node3 -->
<g id="edge2_Node000002_Node000003" class="edge">
<title>Node2&#45;&gt;Node3</title>
<g id="a_edge2_Node000002_Node000003"><a xlink:title=" ">
<path fill="none" stroke="#63b8ff" d="M130.26,-111.59C139.43,-103.85 152.66,-92.69 163.59,-83.47"/>
<polygon fill="#63b8ff" stroke="#63b8ff" points="165.55,-86.4 170.93,-77.27 161.03,-81.05 165.55,-86.4"/>
</a>
</g>
</g>
<!-- Node2&#45;&gt;Node4 -->
<g id="edge5_Node000002_Node000004" class="edge">
<title>Node2&#45;&gt;Node4</title>
<g id="a_edge5_Node000002_Node000004"><a xlink:title=" ">
<path fill="none" stroke="#63b8ff" d="M116.81,-111.62C112.46,-93.92 102.97,-55.24 97.1,-31.32"/>
<polygon fill="#63b8ff" stroke="#63b8ff" points="100.55,-30.7 94.77,-21.82 93.75,-32.37 100.55,-30.7"/>
</a>
</g>
</g>
<!-- Node2&#45;&gt;Node6 -->
<g id="edge6_Node000002_Node000006" class="edge">
<title>Node2&#45;&gt;Node6</title>
<g id="a_edge6_Node000002_Node000006"><a xlink:title=" ">
<path fill="none" stroke="#63b8ff" d="M148.2,-111.59C177.53,-102.11 222.74,-87.49 253.32,-77.6"/>
<polygon fill="#63b8ff" stroke="#63b8ff" points="254.39,-80.94 262.83,-74.53 252.23,-74.28 254.39,-80.94"/>
</a>
</g>
</g>
<!-- Node7 -->
<g id="Node000007" class="node">
<title>Node7</title>
<g id="a_Node000007"><a xlink:title=" ">
<polygon fill="#e0e0e0" stroke="#999999" points="63.73,-76 12.48,-76 12.48,-56 63.73,-56 63.73,-76"/>
<text xml:space="preserve" text-anchor="middle" x="38.11" y="-62.5" font-family="Helvetica,sans-Serif" font-size="10.00">memory</text>
</a>
</g>
</g>
<!-- Node2&#45;&gt;Node7 -->
<g id="edge7_Node000002_Node000007" class="edge">
<title>Node2&#45;&gt;Node7</title>
<g id="a_edge7_Node000002_Node000007"><a xlink:title=" ">
<path fill="none" stroke="#63b8ff" d="M105,-111.59C93.11,-103.67 75.84,-92.16 61.83,-82.82"/>
<polygon fill="#63b8ff" stroke="#63b8ff" points="63.85,-79.95 53.59,-77.32 59.97,-85.78 63.85,-79.95"/>
</a>
</g>
</g>
<!-- Node3&#45;&gt;Node4 -->
<g id="edge3_Node000003_Node000004" class="edge">
<title>Node3&#45;&gt;Node4</title>
<g id="a_edge3_Node000003_Node000004"><a xlink:title=" ">
<path fill="none" stroke="#63b8ff" d="M167.26,-55.59C153.64,-47.51 133.75,-35.71 117.85,-26.27"/>
<polygon fill="#63b8ff" stroke="#63b8ff" points="119.77,-23.35 109.39,-21.25 116.2,-29.37 119.77,-23.35"/>
</a>
</g>
</g>
<!-- Node5 -->
<g id="Node000005" class="node">
<title>Node5</title>
<g id="a_Node000005"><a xlink:title=" ">
<polygon fill="#e0e0e0" stroke="#999999" points="205.73,-20 160.48,-20 160.48,0 205.73,0 205.73,-20"/>
<text xml:space="preserve" text-anchor="middle" x="183.11" y="-6.5" font-family="Helvetica,sans-Serif" font-size="10.00">cstdint</text>
</a>
</g>
</g>
<!-- Node3&#45;&gt;Node5 -->
<g id="edge4_Node000003_Node000005" class="edge">
<title>Node3&#45;&gt;Node5</title>
<g id="a_edge4_Node000003_Node000005"><a xlink:title=" ">
<path fill="none" stroke="#63b8ff" d="M183.11,-55.59C183.11,-49.01 183.11,-39.96 183.11,-31.73"/>
<polygon fill="#63b8ff" stroke="#63b8ff" points="186.61,-31.81 183.11,-21.81 179.61,-31.81 186.61,-31.81"/>
</a>
</g>
</g>
</g>
</svg>
