<?xml version="1.0" encoding="UTF-8" standalone="no"?>
<!DOCTYPE svg PUBLIC "-//W3C//DTD SVG 1.1//EN"
 "http://www.w3.org/Graphics/SVG/1.1/DTD/svg11.dtd">
<!-- Generated by graphviz version 14.0.2 (20251019.1705)
 -->
<!-- Title: Texture.cpp Pages: 1 -->
<svg width="960pt" height="152pt"
 viewBox="0.00 0.00 960.00 152.00" xmlns="http://www.w3.org/2000/svg" xmlns:xlink="http://www.w3.org/1999/xlink">
<g id="graph0" class="graph" transform="scale(1 1) rotate(0) translate(4 148)">
<title>Texture.cpp</title>
<!-- Node1 -->
<g id="Node000001" class="node">
<title>Node1</title>
<g id="a_Node000001"><a xlink:title=" ">
<polygon fill="#999999" stroke="#666666" points="514.38,-144 447.38,-144 447.38,-124 514.38,-124 514.38,-144"/>
<text xml:space="preserve" text-anchor="middle" x="480.88" y="-130.5" font-family="Helvetica,sans-Serif" font-size="10.00">Texture.cpp</text>
</a>
</g>
</g>
<!-- Node2 -->
<g id="Node000002" class="node">
<title>Node2</title>
<g id="a_Node000002"><a xlink:href="Texture_8h.html" target="_top" xlink:title=" ">
<polygon fill="white" stroke="#666666" points="121.75,-82 0,-82 0,-62 121.75,-62 121.75,-82"/>
<text xml:space="preserve" text-anchor="middle" x="60.88" y="-68.5" font-family="Helvetica,sans-Serif" font-size="10.00">LGE/rendering/Texture.h</text>
</a>
</g>
</g>
<!-- Node1&#45;&gt;Node2 -->
<g id="edge1_Node000001_Node000002" class="edge">
<title>Node1&#45;&gt;Node2</title>
<g id="a_edge1_Node000001_Node000002"><a xlink:title=" ">
<path fill="none" stroke="#63b8ff" d="M446.95,-129.59C384.27,-123.07 246.21,-107.74 130.88,-88 125.2,-87.03 119.29,-85.92 113.41,-84.75"/>
<polygon fill="#63b8ff" stroke="#63b8ff" points="114.2,-81.34 103.7,-82.76 112.8,-88.2 114.2,-81.34"/>
</a>
</g>
</g>
<!-- Node5 -->
<g id="Node000005" class="node">
<title>Node5</title>
<g id="a_Node000005"><a xlink:href="Log_8h.html" target="_top" xlink:title=" ">
<polygon fill="white" stroke="#666666" points="224,-82 139.75,-82 139.75,-62 224,-62 224,-82"/>
<text xml:space="preserve" text-anchor="middle" x="181.88" y="-68.5" font-family="Helvetica,sans-Serif" font-size="10.00">LGE/core/Log.h</text>
</a>
</g>
</g>
<!-- Node1&#45;&gt;Node5 -->
<g id="edge4_Node000001_Node000005" class="edge">
<title>Node1&#45;&gt;Node5</title>
<g id="a_edge4_Node000001_Node000005"><a xlink:title=" ">
<path fill="none" stroke="#63b8ff" d="M446.94,-128.02C398.96,-120.7 308.66,-105.97 232.88,-88 229.72,-87.25 226.47,-86.43 223.21,-85.56"/>
<polygon fill="#63b8ff" stroke="#63b8ff" points="224.24,-82.21 213.67,-82.9 222.36,-88.96 224.24,-82.21"/>
</a>
</g>
</g>
<!-- Node7 -->
<g id="Node000007" class="node">
<title>Node7</title>
<g id="a_Node000007"><a xlink:title=" ">
<polygon fill="#e0e0e0" stroke="#999999" points="305.5,-82 242.25,-82 242.25,-62 305.5,-62 305.5,-82"/>
<text xml:space="preserve" text-anchor="middle" x="273.88" y="-68.5" font-family="Helvetica,sans-Serif" font-size="10.00">glad/glad.h</text>
</a>
</g>
</g>
<!-- Node1&#45;&gt;Node7 -->
<g id="edge7_Node000001_Node000007" class="edge">
<title>Node1&#45;&gt;Node7</title>
<g id="a_edge7_Node000001_Node000007"><a xlink:title=" ">
<path fill="none" stroke="#63b8ff" d="M446.93,-124.71C413.2,-116.26 360.12,-102.38 314.88,-88 313.04,-87.42 311.16,-86.8 309.27,-86.16"/>
<polygon fill="#63b8ff" stroke="#63b8ff" points="310.5,-82.89 299.9,-82.89 308.19,-89.49 310.5,-82.89"/>
</a>
</g>
</g>
<!-- Node8 -->
<g id="Node000008" class="node">
<title>Node8</title>
<g id="a_Node000008"><a xlink:title=" ">
<polygon fill="#e0e0e0" stroke="#999999" points="372.38,-82 323.38,-82 323.38,-62 372.38,-62 372.38,-82"/>
<text xml:space="preserve" text-anchor="middle" x="347.88" y="-68.5" font-family="Helvetica,sans-Serif" font-size="10.00">fstream</text>
</a>
</g>
</g>
<!-- Node1&#45;&gt;Node8 -->
<g id="edge8_Node000001_Node000008" class="edge">
<title>Node1&#45;&gt;Node8</title>
<g id="a_edge8_Node000001_Node000008"><a xlink:title=" ">
<path fill="none" stroke="#63b8ff" d="M459.79,-123.54C439.55,-114.45 408.11,-100.32 380.88,-88 380.12,-87.66 379.36,-87.31 378.59,-86.97"/>
<polygon fill="#63b8ff" stroke="#63b8ff" points="380.4,-83.94 369.84,-83 377.51,-90.32 380.4,-83.94"/>
</a>
</g>
</g>
<!-- Node9 -->
<g id="Node000009" class="node">
<title>Node9</title>
<g id="a_Node000009"><a xlink:title=" ">
<polygon fill="#e0e0e0" stroke="#999999" points="441.5,-82 390.25,-82 390.25,-62 441.5,-62 441.5,-82"/>
<text xml:space="preserve" text-anchor="middle" x="415.88" y="-68.5" font-family="Helvetica,sans-Serif" font-size="10.00">sstream</text>
</a>
</g>
</g>
<!-- Node1&#45;&gt;Node9 -->
<g id="edge9_Node000001_Node000009" class="edge">
<title>Node1&#45;&gt;Node9</title>
<g id="a_edge9_Node000001_Node000009"><a xlink:title=" ">
<path fill="none" stroke="#63b8ff" d="M470.72,-123.62C460.93,-114.59 445.9,-100.72 434.05,-89.78"/>
<polygon fill="#63b8ff" stroke="#63b8ff" points="436.58,-87.35 426.86,-83.14 431.83,-92.49 436.58,-87.35"/>
</a>
</g>
</g>
<!-- Node10 -->
<g id="Node000010" class="node">
<title>Node10</title>
<g id="a_Node000010"><a xlink:title=" ">
<polygon fill="#e0e0e0" stroke="#999999" points="502.38,-82 459.38,-82 459.38,-62 502.38,-62 502.38,-82"/>
<text xml:space="preserve" text-anchor="middle" x="480.88" y="-68.5" font-family="Helvetica,sans-Serif" font-size="10.00">cmath</text>
</a>
</g>
</g>
<!-- Node1&#45;&gt;Node10 -->
<g id="edge10_Node000001_Node000010" class="edge">
<title>Node1&#45;&gt;Node10</title>
<g id="a_edge10_Node000001_Node000010"><a xlink:title=" ">
<path fill="none" stroke="#63b8ff" d="M480.88,-123.62C480.88,-115.56 480.88,-103.65 480.88,-93.41"/>
<polygon fill="#63b8ff" stroke="#63b8ff" points="484.38,-93.63 480.88,-83.63 477.38,-93.63 484.38,-93.63"/>
</a>
</g>
</g>
<!-- Node11 -->
<g id="Node000011" class="node">
<title>Node11</title>
<g id="a_Node000011"><a xlink:title=" ">
<polygon fill="#e0e0e0" stroke="#999999" points="575.75,-82 520,-82 520,-62 575.75,-62 575.75,-82"/>
<text xml:space="preserve" text-anchor="middle" x="547.88" y="-68.5" font-family="Helvetica,sans-Serif" font-size="10.00">algorithm</text>
</a>
</g>
</g>
<!-- Node1&#45;&gt;Node11 -->
<g id="edge11_Node000001_Node000011" class="edge">
<title>Node1&#45;&gt;Node11</title>
<g id="a_edge11_Node000001_Node000011"><a xlink:title=" ">
<path fill="none" stroke="#63b8ff" d="M491.34,-123.62C501.43,-114.59 516.92,-100.72 529.14,-89.78"/>
<polygon fill="#63b8ff" stroke="#63b8ff" points="531.46,-92.4 536.57,-83.12 526.79,-87.19 531.46,-92.4"/>
</a>
</g>
</g>
<!-- Node12 -->
<g id="Node000012" class="node">
<title>Node12</title>
<g id="a_Node000012"><a xlink:title=" ">
<polygon fill="#e0e0e0" stroke="#999999" points="636.38,-82 593.38,-82 593.38,-62 636.38,-62 636.38,-82"/>
<text xml:space="preserve" text-anchor="middle" x="614.88" y="-68.5" font-family="Helvetica,sans-Serif" font-size="10.00">vector</text>
</a>
</g>
</g>
<!-- Node1&#45;&gt;Node12 -->
<g id="edge12_Node000001_Node000012" class="edge">
<title>Node1&#45;&gt;Node12</title>
<g id="a_edge12_Node000001_Node000012"><a xlink:title=" ">
<path fill="none" stroke="#63b8ff" d="M503.76,-123.53C524.94,-114.66 557.23,-100.88 584.88,-88 585.35,-87.78 585.83,-87.55 586.31,-87.33"/>
<polygon fill="#63b8ff" stroke="#63b8ff" points="587.72,-90.54 595.19,-83.02 584.66,-84.24 587.72,-90.54"/>
</a>
</g>
</g>
<!-- Node13 -->
<g id="Node000013" class="node">
<title>Node13</title>
<g id="a_Node000013"><a xlink:title=" ">
<polygon fill="#e0e0e0" stroke="#999999" points="699.5,-82 654.25,-82 654.25,-62 699.5,-62 699.5,-82"/>
<text xml:space="preserve" text-anchor="middle" x="676.88" y="-68.5" font-family="Helvetica,sans-Serif" font-size="10.00">cstring</text>
</a>
</g>
</g>
<!-- Node1&#45;&gt;Node13 -->
<g id="edge13_Node000001_Node000013" class="edge">
<title>Node1&#45;&gt;Node13</title>
<g id="a_edge13_Node000001_Node000013"><a xlink:title=" ">
<path fill="none" stroke="#63b8ff" d="M514.63,-125.72C548.39,-117.99 601.53,-104.61 645.88,-88 646.67,-87.7 647.48,-87.39 648.29,-87.07"/>
<polygon fill="#63b8ff" stroke="#63b8ff" points="649.63,-90.3 657.38,-83.06 646.81,-83.89 649.63,-90.3"/>
</a>
</g>
</g>
<!-- Node14 -->
<g id="Node000014" class="node">
<title>Node14</title>
<g id="a_Node000014"><a xlink:title=" ">
<polygon fill="#e0e0e0" stroke="#999999" points="838,-82 717.75,-82 717.75,-62 838,-62 838,-82"/>
<text xml:space="preserve" text-anchor="middle" x="777.88" y="-68.5" font-family="Helvetica,sans-Serif" font-size="10.00">../../third_party/tinyexr.h</text>
</a>
</g>
</g>
<!-- Node1&#45;&gt;Node14 -->
<g id="edge14_Node000001_Node000014" class="edge">
<title>Node1&#45;&gt;Node14</title>
<g id="a_edge14_Node000001_Node000014"><a xlink:title=" ">
<path fill="none" stroke="#63b8ff" d="M514.53,-126.57C559.04,-118.01 639.94,-102.3 708.88,-88 713.73,-86.99 718.78,-85.93 723.83,-84.85"/>
<polygon fill="#63b8ff" stroke="#63b8ff" points="724.32,-88.33 733.36,-82.81 722.85,-81.48 724.32,-88.33"/>
</a>
</g>
</g>
<!-- Node15 -->
<g id="Node000015" class="node">
<title>Node15</title>
<g id="a_Node000015"><a xlink:title=" ">
<polygon fill="#e0e0e0" stroke="#999999" points="952,-88 855.75,-88 855.75,-56 952,-56 952,-88"/>
<text xml:space="preserve" text-anchor="start" x="863.75" y="-74.5" font-family="Helvetica,sans-Serif" font-size="10.00">../../third_party/stb</text>
<text xml:space="preserve" text-anchor="middle" x="903.88" y="-62.5" font-family="Helvetica,sans-Serif" font-size="10.00">_image.h</text>
</a>
</g>
</g>
<!-- Node1&#45;&gt;Node15 -->
<g id="edge15_Node000001_Node000015" class="edge">
<title>Node1&#45;&gt;Node15</title>
<g id="a_edge15_Node000001_Node000015"><a xlink:title=" ">
<path fill="none" stroke="#63b8ff" d="M514.67,-130.38C577.67,-125.17 717.48,-112.06 844.4,-88.32"/>
<polygon fill="#63b8ff" stroke="#63b8ff" points="844.81,-91.8 853.98,-86.5 843.5,-84.93 844.81,-91.8"/>
</a>
</g>
</g>
<!-- Node3 -->
<g id="Node000003" class="node">
<title>Node3</title>
<g id="a_Node000003"><a xlink:title=" ">
<polygon fill="#e0e0e0" stroke="#999999" points="81.5,-20 36.25,-20 36.25,0 81.5,0 81.5,-20"/>
<text xml:space="preserve" text-anchor="middle" x="58.88" y="-6.5" font-family="Helvetica,sans-Serif" font-size="10.00">cstdint</text>
</a>
</g>
</g>
<!-- Node2&#45;&gt;Node3 -->
<g id="edge2_Node000002_Node000003" class="edge">
<title>Node2&#45;&gt;Node3</title>
<g id="a_edge2_Node000002_Node000003"><a xlink:title=" ">
<path fill="none" stroke="#63b8ff" d="M60.56,-61.62C60.29,-53.56 59.9,-41.65 59.56,-31.41"/>
<polygon fill="#63b8ff" stroke="#63b8ff" points="63.06,-31.5 59.23,-21.63 56.06,-31.74 63.06,-31.5"/>
</a>
</g>
</g>
<!-- Node4 -->
<g id="Node000004" class="node">
<title>Node4</title>
<g id="a_Node000004"><a xlink:title=" ">
<polygon fill="#e0e0e0" stroke="#999999" points="139.88,-20 99.88,-20 99.88,0 139.88,0 139.88,-20"/>
<text xml:space="preserve" text-anchor="middle" x="119.88" y="-6.5" font-family="Helvetica,sans-Serif" font-size="10.00">string</text>
</a>
</g>
</g>
<!-- Node2&#45;&gt;Node4 -->
<g id="edge3_Node000002_Node000004" class="edge">
<title>Node2&#45;&gt;Node4</title>
<g id="a_edge3_Node000002_Node000004"><a xlink:title=" ">
<path fill="none" stroke="#63b8ff" d="M70.09,-61.62C78.89,-52.68 92.35,-38.99 103.06,-28.1"/>
<polygon fill="#63b8ff" stroke="#63b8ff" points="105.34,-30.78 109.85,-21.19 100.35,-25.87 105.34,-30.78"/>
</a>
</g>
</g>
<!-- Node5&#45;&gt;Node4 -->
<g id="edge6_Node000005_Node000004" class="edge">
<title>Node5&#45;&gt;Node4</title>
<g id="a_edge6_Node000005_Node000004"><a xlink:title=" ">
<path fill="none" stroke="#63b8ff" d="M172.19,-61.62C162.94,-52.68 148.8,-38.99 137.55,-28.1"/>
<polygon fill="#63b8ff" stroke="#63b8ff" points="140,-25.6 130.38,-21.17 135.13,-30.63 140,-25.6"/>
</a>
</g>
</g>
<!-- Node6 -->
<g id="Node000006" class="node">
<title>Node6</title>
<g id="a_Node000006"><a xlink:title=" ">
<polygon fill="#e0e0e0" stroke="#999999" points="211.62,-20 158.12,-20 158.12,0 211.62,0 211.62,-20"/>
<text xml:space="preserve" text-anchor="middle" x="184.88" y="-6.5" font-family="Helvetica,sans-Serif" font-size="10.00">iostream</text>
</a>
</g>
</g>
<!-- Node5&#45;&gt;Node6 -->
<g id="edge5_Node000005_Node000006" class="edge">
<title>Node5&#45;&gt;Node6</title>
<g id="a_edge5_Node000005_Node000006"><a xlink:title=" ">
<path fill="none" stroke="#63b8ff" d="M182.34,-61.62C182.75,-53.56 183.34,-41.65 183.85,-31.41"/>
<polygon fill="#63b8ff" stroke="#63b8ff" points="187.34,-31.79 184.34,-21.62 180.35,-31.44 187.34,-31.79"/>
</a>
</g>
</g>
</g>
</svg>
