<?xml version="1.0" encoding="UTF-8" standalone="no"?>
<!DOCTYPE svg PUBLIC "-//W3C//DTD SVG 1.1//EN"
 "http://www.w3.org/Graphics/SVG/1.1/DTD/svg11.dtd">
<!-- Generated by graphviz version 14.0.2 (20251019.1705)
 -->
<!-- Title: ThreadPool.h Pages: 1 -->
<svg width="622pt" height="84pt"
 viewBox="0.00 0.00 622.00 84.00" xmlns="http://www.w3.org/2000/svg" xmlns:xlink="http://www.w3.org/1999/xlink">
<g id="graph0" class="graph" transform="scale(1 1) rotate(0) translate(4 80)">
<title>ThreadPool.h</title>
<!-- Node1 -->
<g id="Node000001" class="node">
<title>Node1</title>
<g id="a_Node000001"><a xlink:title=" ">
<polygon fill="#999999" stroke="#666666" points="317.88,-76 244.12,-76 244.12,-56 317.88,-56 317.88,-76"/>
<text xml:space="preserve" text-anchor="middle" x="281" y="-62.5" font-family="Helvetica,sans-Serif" font-size="10.00">ThreadPool.h</text>
</a>
</g>
</g>
<!-- Node2 -->
<g id="Node000002" class="node">
<title>Node2</title>
<g id="a_Node000002"><a xlink:title=" ">
<polygon fill="#e0e0e0" stroke="#999999" points="58,-20 0,-20 0,0 58,0 58,-20"/>
<text xml:space="preserve" text-anchor="middle" x="29" y="-6.5" font-family="Helvetica,sans-Serif" font-size="10.00">functional</text>
</a>
</g>
</g>
<!-- Node1&#45;&gt;Node2 -->
<g id="edge1_Node000001_Node000002" class="edge">
<title>Node1&#45;&gt;Node2</title>
<g id="a_edge1_Node000001_Node000002"><a xlink:title=" ">
<path fill="none" stroke="#63b8ff" d="M243.82,-57.48C203.34,-49.23 136.41,-35.39 69.59,-20.54"/>
<polygon fill="#63b8ff" stroke="#63b8ff" points="70.44,-17.14 59.92,-18.38 68.92,-23.97 70.44,-17.14"/>
</a>
</g>
</g>
<!-- Node3 -->
<g id="Node000003" class="node">
<title>Node3</title>
<g id="a_Node000003"><a xlink:title=" ">
<polygon fill="#e0e0e0" stroke="#999999" points="119.5,-20 76.5,-20 76.5,0 119.5,0 119.5,-20"/>
<text xml:space="preserve" text-anchor="middle" x="98" y="-6.5" font-family="Helvetica,sans-Serif" font-size="10.00">thread</text>
</a>
</g>
</g>
<!-- Node1&#45;&gt;Node3 -->
<g id="edge2_Node000001_Node000003" class="edge">
<title>Node1&#45;&gt;Node3</title>
<g id="a_edge2_Node000001_Node000003"><a xlink:title=" ">
<path fill="none" stroke="#63b8ff" d="M248.75,-55.57C220.01,-47.15 176.53,-34.39 130.7,-20.79"/>
<polygon fill="#63b8ff" stroke="#63b8ff" points="131.98,-17.52 121.4,-18.03 129.99,-24.23 131.98,-17.52"/>
</a>
</g>
</g>
<!-- Node4 -->
<g id="Node000004" class="node">
<title>Node4</title>
<g id="a_Node000004"><a xlink:title=" ">
<polygon fill="#e0e0e0" stroke="#999999" points="180.5,-20 137.5,-20 137.5,0 180.5,0 180.5,-20"/>
<text xml:space="preserve" text-anchor="middle" x="159" y="-6.5" font-family="Helvetica,sans-Serif" font-size="10.00">vector</text>
</a>
</g>
</g>
<!-- Node1&#45;&gt;Node4 -->
<g id="edge3_Node000001_Node000004" class="edge">
<title>Node1&#45;&gt;Node4</title>
<g id="a_edge3_Node000001_Node000004"><a xlink:title=" ">
<path fill="none" stroke="#63b8ff" d="M259.75,-55.59C240.71,-47.17 212.52,-34.69 190.8,-25.07"/>
<polygon fill="#63b8ff" stroke="#63b8ff" points="192.36,-21.94 181.8,-21.09 189.53,-28.34 192.36,-21.94"/>
</a>
</g>
</g>
<!-- Node5 -->
<g id="Node000005" class="node">
<title>Node5</title>
<g id="a_Node000005"><a xlink:title=" ">
<polygon fill="#e0e0e0" stroke="#999999" points="241.12,-20 198.88,-20 198.88,0 241.12,0 241.12,-20"/>
<text xml:space="preserve" text-anchor="middle" x="220" y="-6.5" font-family="Helvetica,sans-Serif" font-size="10.00">queue</text>
</a>
</g>
</g>
<!-- Node1&#45;&gt;Node5 -->
<g id="edge4_Node000001_Node000005" class="edge">
<title>Node1&#45;&gt;Node5</title>
<g id="a_edge4_Node000001_Node000005"><a xlink:title=" ">
<path fill="none" stroke="#63b8ff" d="M270.37,-55.59C261.72,-47.93 249.27,-36.91 238.92,-27.75"/>
<polygon fill="#63b8ff" stroke="#63b8ff" points="241.44,-25.31 231.64,-21.3 236.8,-30.55 241.44,-25.31"/>
</a>
</g>
</g>
<!-- Node6 -->
<g id="Node000006" class="node">
<title>Node6</title>
<g id="a_Node000006"><a xlink:title=" ">
<polygon fill="#e0e0e0" stroke="#999999" points="302.5,-20 259.5,-20 259.5,0 302.5,0 302.5,-20"/>
<text xml:space="preserve" text-anchor="middle" x="281" y="-6.5" font-family="Helvetica,sans-Serif" font-size="10.00">mutex</text>
</a>
</g>
</g>
<!-- Node1&#45;&gt;Node6 -->
<g id="edge5_Node000001_Node000006" class="edge">
<title>Node1&#45;&gt;Node6</title>
<g id="a_edge5_Node000001_Node000006"><a xlink:title=" ">
<path fill="none" stroke="#63b8ff" d="M281,-55.59C281,-49.01 281,-39.96 281,-31.73"/>
<polygon fill="#63b8ff" stroke="#63b8ff" points="284.5,-31.81 281,-21.81 277.5,-31.81 284.5,-31.81"/>
</a>
</g>
</g>
<!-- Node7 -->
<g id="Node000007" class="node">
<title>Node7</title>
<g id="a_Node000007"><a xlink:title=" ">
<polygon fill="#e0e0e0" stroke="#999999" points="415,-20 321,-20 321,0 415,0 415,-20"/>
<text xml:space="preserve" text-anchor="middle" x="368" y="-6.5" font-family="Helvetica,sans-Serif" font-size="10.00">condition_variable</text>
</a>
</g>
</g>
<!-- Node1&#45;&gt;Node7 -->
<g id="edge6_Node000001_Node000007" class="edge">
<title>Node1&#45;&gt;Node7</title>
<g id="a_edge6_Node000001_Node000007"><a xlink:title=" ">
<path fill="none" stroke="#63b8ff" d="M296.15,-55.59C309.05,-47.59 327.83,-35.93 342.96,-26.54"/>
<polygon fill="#63b8ff" stroke="#63b8ff" points="344.79,-29.53 351.44,-21.28 341.1,-23.58 344.79,-29.53"/>
</a>
</g>
</g>
<!-- Node8 -->
<g id="Node000008" class="node">
<title>Node8</title>
<g id="a_Node000008"><a xlink:title=" ">
<polygon fill="#e0e0e0" stroke="#999999" points="478.62,-20 433.38,-20 433.38,0 478.62,0 478.62,-20"/>
<text xml:space="preserve" text-anchor="middle" x="456" y="-6.5" font-family="Helvetica,sans-Serif" font-size="10.00">atomic</text>
</a>
</g>
</g>
<!-- Node1&#45;&gt;Node8 -->
<g id="edge7_Node000001_Node000008" class="edge">
<title>Node1&#45;&gt;Node8</title>
<g id="a_edge7_Node000001_Node000008"><a xlink:title=" ">
<path fill="none" stroke="#63b8ff" d="M311.48,-55.59C342.49,-46.03 390.43,-31.23 422.49,-21.34"/>
<polygon fill="#63b8ff" stroke="#63b8ff" points="423.14,-24.8 431.66,-18.51 421.08,-18.11 423.14,-24.8"/>
</a>
</g>
</g>
<!-- Node9 -->
<g id="Node000009" class="node">
<title>Node9</title>
<g id="a_Node000009"><a xlink:title=" ">
<polygon fill="#e0e0e0" stroke="#999999" points="537.38,-20 496.62,-20 496.62,0 537.38,0 537.38,-20"/>
<text xml:space="preserve" text-anchor="middle" x="517" y="-6.5" font-family="Helvetica,sans-Serif" font-size="10.00">future</text>
</a>
</g>
</g>
<!-- Node1&#45;&gt;Node9 -->
<g id="edge8_Node000001_Node000009" class="edge">
<title>Node1&#45;&gt;Node9</title>
<g id="a_edge8_Node000001_Node000009"><a xlink:title=" ">
<path fill="none" stroke="#63b8ff" d="M318.25,-57.92C357.59,-50.21 421.65,-37.04 485.14,-20.59"/>
<polygon fill="#63b8ff" stroke="#63b8ff" points="485.9,-24.01 494.69,-18.09 484.13,-17.24 485.9,-24.01"/>
</a>
</g>
</g>
<!-- Node10 -->
<g id="Node000010" class="node">
<title>Node10</title>
<g id="a_Node000010"><a xlink:title=" ">
<polygon fill="#e0e0e0" stroke="#999999" points="614.38,-20 555.62,-20 555.62,0 614.38,0 614.38,-20"/>
<text xml:space="preserve" text-anchor="middle" x="585" y="-6.5" font-family="Helvetica,sans-Serif" font-size="10.00">stdexcept</text>
</a>
</g>
</g>
<!-- Node1&#45;&gt;Node10 -->
<g id="edge9_Node000001_Node000010" class="edge">
<title>Node1&#45;&gt;Node10</title>
<g id="a_edge9_Node000001_Node000010"><a xlink:title=" ">
<path fill="none" stroke="#63b8ff" d="M317.99,-59.42C367.23,-51.84 457.23,-37.45 544.1,-20.28"/>
<polygon fill="#63b8ff" stroke="#63b8ff" points="544.62,-23.74 553.74,-18.36 543.25,-16.88 544.62,-23.74"/>
</a>
</g>
</g>
</g>
</svg>
