<?xml version="1.0" encoding="UTF-8" standalone="no"?>
<!DOCTYPE svg PUBLIC "-//W3C//DTD SVG 1.1//EN"
 "http://www.w3.org/Graphics/SVG/1.1/DTD/svg11.dtd">
<!-- Generated by graphviz version 14.0.2 (20251019.1705)
 -->
<!-- Title: ThreadPool.cpp Pages: 1 -->
<svg width="852pt" height="140pt"
 viewBox="0.00 0.00 852.00 140.00" xmlns="http://www.w3.org/2000/svg" xmlns:xlink="http://www.w3.org/1999/xlink">
<g id="graph0" class="graph" transform="scale(1 1) rotate(0) translate(4 136)">
<title>ThreadPool.cpp</title>
<!-- Node1 -->
<g id="Node000001" class="node">
<title>Node1</title>
<g id="a_Node000001"><a xlink:title=" ">
<polygon fill="#999999" stroke="#666666" points="659.12,-132 574.88,-132 574.88,-112 659.12,-112 659.12,-132"/>
<text xml:space="preserve" text-anchor="middle" x="617" y="-118.5" font-family="Helvetica,sans-Serif" font-size="10.00">ThreadPool.cpp</text>
</a>
</g>
</g>
<!-- Node2 -->
<g id="Node000002" class="node">
<title>Node2</title>
<g id="a_Node000002"><a xlink:href="ThreadPool_8h.html" target="_top" xlink:title=" ">
<polygon fill="white" stroke="#666666" points="419.75,-76 312.25,-76 312.25,-56 419.75,-56 419.75,-76"/>
<text xml:space="preserve" text-anchor="middle" x="366" y="-62.5" font-family="Helvetica,sans-Serif" font-size="10.00">LGE/fs/ThreadPool.h</text>
</a>
</g>
</g>
<!-- Node1&#45;&gt;Node2 -->
<g id="edge1_Node000001_Node000002" class="edge">
<title>Node1&#45;&gt;Node2</title>
<g id="a_edge1_Node000001_Node000002"><a xlink:title=" ">
<path fill="none" stroke="#63b8ff" d="M574.42,-111.84C532.17,-102.75 467.22,-88.78 421.07,-78.85"/>
<polygon fill="#63b8ff" stroke="#63b8ff" points="422.05,-75.48 411.53,-76.8 420.58,-82.32 422.05,-75.48"/>
</a>
</g>
</g>
<!-- Node10 -->
<g id="Node000010" class="node">
<title>Node10</title>
<g id="a_Node000010"><a xlink:title=" ">
<polygon fill="#e0e0e0" stroke="#999999" points="537.38,-20 496.62,-20 496.62,0 537.38,0 537.38,-20"/>
<text xml:space="preserve" text-anchor="middle" x="517" y="-6.5" font-family="Helvetica,sans-Serif" font-size="10.00">future</text>
</a>
</g>
</g>
<!-- Node1&#45;&gt;Node10 -->
<g id="edge15_Node000001_Node000010" class="edge">
<title>Node1&#45;&gt;Node10</title>
<g id="a_edge15_Node000001_Node000010"><a xlink:title=" ">
<path fill="none" stroke="#63b8ff" d="M608.47,-111.62C591.8,-93.27 554.61,-52.37 533.14,-28.75"/>
<polygon fill="#63b8ff" stroke="#63b8ff" points="535.84,-26.52 526.52,-21.47 530.66,-31.23 535.84,-26.52"/>
</a>
</g>
</g>
<!-- Node11 -->
<g id="Node000011" class="node">
<title>Node11</title>
<g id="a_Node000011"><a xlink:title=" ">
<polygon fill="#e0e0e0" stroke="#999999" points="614.38,-20 555.62,-20 555.62,0 614.38,0 614.38,-20"/>
<text xml:space="preserve" text-anchor="middle" x="585" y="-6.5" font-family="Helvetica,sans-Serif" font-size="10.00">stdexcept</text>
</a>
</g>
</g>
<!-- Node1&#45;&gt;Node11 -->
<g id="edge17_Node000001_Node000011" class="edge">
<title>Node1&#45;&gt;Node11</title>
<g id="a_edge17_Node000001_Node000011"><a xlink:title=" ">
<path fill="none" stroke="#63b8ff" d="M613.42,-111.78C609.98,-102.75 604.76,-88.55 601,-76 596.55,-61.15 592.39,-44.13 589.43,-31.23"/>
<polygon fill="#63b8ff" stroke="#63b8ff" points="592.92,-30.81 587.32,-21.81 586.09,-32.34 592.92,-30.81"/>
</a>
</g>
</g>
<!-- Node12 -->
<g id="Node000012" class="node">
<title>Node12</title>
<g id="a_Node000012"><a xlink:href="Log_8h.html" target="_top" xlink:title=" ">
<polygon fill="white" stroke="#666666" points="694.12,-76 609.88,-76 609.88,-56 694.12,-56 694.12,-76"/>
<text xml:space="preserve" text-anchor="middle" x="652" y="-62.5" font-family="Helvetica,sans-Serif" font-size="10.00">LGE/core/Log.h</text>
</a>
</g>
</g>
<!-- Node1&#45;&gt;Node12 -->
<g id="edge11_Node000001_Node000012" class="edge">
<title>Node1&#45;&gt;Node12</title>
<g id="a_edge11_Node000001_Node000012"><a xlink:title=" ">
<path fill="none" stroke="#63b8ff" d="M623.1,-111.59C627.71,-104.47 634.21,-94.45 639.87,-85.72"/>
<polygon fill="#63b8ff" stroke="#63b8ff" points="642.65,-87.86 645.15,-77.57 636.77,-84.06 642.65,-87.86"/>
</a>
</g>
</g>
<!-- Node15 -->
<g id="Node000015" class="node">
<title>Node15</title>
<g id="a_Node000015"><a xlink:title=" ">
<polygon fill="#e0e0e0" stroke="#999999" points="767.88,-76 712.12,-76 712.12,-56 767.88,-56 767.88,-76"/>
<text xml:space="preserve" text-anchor="middle" x="740" y="-62.5" font-family="Helvetica,sans-Serif" font-size="10.00">algorithm</text>
</a>
</g>
</g>
<!-- Node1&#45;&gt;Node15 -->
<g id="edge14_Node000001_Node000015" class="edge">
<title>Node1&#45;&gt;Node15</title>
<g id="a_edge14_Node000001_Node000015"><a xlink:title=" ">
<path fill="none" stroke="#63b8ff" d="M638.42,-111.59C657.62,-103.17 686.04,-90.69 707.94,-81.07"/>
<polygon fill="#63b8ff" stroke="#63b8ff" points="709.27,-84.31 717.02,-77.09 706.46,-77.9 709.27,-84.31"/>
</a>
</g>
</g>
<!-- Node16 -->
<g id="Node000016" class="node">
<title>Node16</title>
<g id="a_Node000016"><a xlink:title=" ">
<polygon fill="#e0e0e0" stroke="#999999" points="844,-76 786,-76 786,-56 844,-56 844,-76"/>
<text xml:space="preserve" text-anchor="middle" x="815" y="-62.5" font-family="Helvetica,sans-Serif" font-size="10.00">exception</text>
</a>
</g>
</g>
<!-- Node1&#45;&gt;Node16 -->
<g id="edge16_Node000001_Node000016" class="edge">
<title>Node1&#45;&gt;Node16</title>
<g id="a_edge16_Node000001_Node000016"><a xlink:title=" ">
<path fill="none" stroke="#63b8ff" d="M651.49,-111.59C685.93,-102.2 738.82,-87.78 775.06,-77.89"/>
<polygon fill="#63b8ff" stroke="#63b8ff" points="775.55,-81.39 784.28,-75.38 773.71,-74.63 775.55,-81.39"/>
</a>
</g>
</g>
<!-- Node3 -->
<g id="Node000003" class="node">
<title>Node3</title>
<g id="a_Node000003"><a xlink:title=" ">
<polygon fill="#e0e0e0" stroke="#999999" points="234,-20 176,-20 176,0 234,0 234,-20"/>
<text xml:space="preserve" text-anchor="middle" x="205" y="-6.5" font-family="Helvetica,sans-Serif" font-size="10.00">functional</text>
</a>
</g>
</g>
<!-- Node2&#45;&gt;Node3 -->
<g id="edge2_Node000002_Node000003" class="edge">
<title>Node2&#45;&gt;Node3</title>
<g id="a_edge2_Node000002_Node000003"><a xlink:title=" ">
<path fill="none" stroke="#63b8ff" d="M337.96,-55.59C311.91,-46.86 272.9,-33.77 243.86,-24.03"/>
<polygon fill="#63b8ff" stroke="#63b8ff" points="245.29,-20.82 234.7,-20.96 243.07,-27.46 245.29,-20.82"/>
</a>
</g>
</g>
<!-- Node4 -->
<g id="Node000004" class="node">
<title>Node4</title>
<g id="a_Node000004"><a xlink:title=" ">
<polygon fill="#e0e0e0" stroke="#999999" points="295.5,-20 252.5,-20 252.5,0 295.5,0 295.5,-20"/>
<text xml:space="preserve" text-anchor="middle" x="274" y="-6.5" font-family="Helvetica,sans-Serif" font-size="10.00">thread</text>
</a>
</g>
</g>
<!-- Node2&#45;&gt;Node4 -->
<g id="edge3_Node000002_Node000004" class="edge">
<title>Node2&#45;&gt;Node4</title>
<g id="a_edge3_Node000002_Node000004"><a xlink:title=" ">
<path fill="none" stroke="#63b8ff" d="M349.97,-55.59C336.21,-47.51 316.1,-35.71 300.02,-26.27"/>
<polygon fill="#63b8ff" stroke="#63b8ff" points="301.85,-23.29 291.46,-21.25 298.31,-29.33 301.85,-23.29"/>
</a>
</g>
</g>
<!-- Node5 -->
<g id="Node000005" class="node">
<title>Node5</title>
<g id="a_Node000005"><a xlink:title=" ">
<polygon fill="#e0e0e0" stroke="#999999" points="356.5,-20 313.5,-20 313.5,0 356.5,0 356.5,-20"/>
<text xml:space="preserve" text-anchor="middle" x="335" y="-6.5" font-family="Helvetica,sans-Serif" font-size="10.00">vector</text>
</a>
</g>
</g>
<!-- Node2&#45;&gt;Node5 -->
<g id="edge4_Node000002_Node000005" class="edge">
<title>Node2&#45;&gt;Node5</title>
<g id="a_edge4_Node000002_Node000005"><a xlink:title=" ">
<path fill="none" stroke="#63b8ff" d="M360.6,-55.59C356.56,-48.55 350.88,-38.67 345.91,-30"/>
<polygon fill="#63b8ff" stroke="#63b8ff" points="349.11,-28.54 341.09,-21.61 343.03,-32.03 349.11,-28.54"/>
</a>
</g>
</g>
<!-- Node6 -->
<g id="Node000006" class="node">
<title>Node6</title>
<g id="a_Node000006"><a xlink:title=" ">
<polygon fill="#e0e0e0" stroke="#999999" points="417.12,-20 374.88,-20 374.88,0 417.12,0 417.12,-20"/>
<text xml:space="preserve" text-anchor="middle" x="396" y="-6.5" font-family="Helvetica,sans-Serif" font-size="10.00">queue</text>
</a>
</g>
</g>
<!-- Node2&#45;&gt;Node6 -->
<g id="edge5_Node000002_Node000006" class="edge">
<title>Node2&#45;&gt;Node6</title>
<g id="a_edge5_Node000002_Node000006"><a xlink:title=" ">
<path fill="none" stroke="#63b8ff" d="M371.23,-55.59C375.1,-48.63 380.51,-38.89 385.28,-30.29"/>
<polygon fill="#63b8ff" stroke="#63b8ff" points="388.3,-32.06 390.1,-21.62 382.18,-28.66 388.3,-32.06"/>
</a>
</g>
</g>
<!-- Node7 -->
<g id="Node000007" class="node">
<title>Node7</title>
<g id="a_Node000007"><a xlink:title=" ">
<polygon fill="#e0e0e0" stroke="#999999" points="478.5,-20 435.5,-20 435.5,0 478.5,0 478.5,-20"/>
<text xml:space="preserve" text-anchor="middle" x="457" y="-6.5" font-family="Helvetica,sans-Serif" font-size="10.00">mutex</text>
</a>
</g>
</g>
<!-- Node2&#45;&gt;Node7 -->
<g id="edge6_Node000002_Node000007" class="edge">
<title>Node2&#45;&gt;Node7</title>
<g id="a_edge6_Node000002_Node000007"><a xlink:title=" ">
<path fill="none" stroke="#63b8ff" d="M381.85,-55.59C395.47,-47.51 415.36,-35.71 431.26,-26.27"/>
<polygon fill="#63b8ff" stroke="#63b8ff" points="432.91,-29.37 439.72,-21.25 429.34,-23.35 432.91,-29.37"/>
</a>
</g>
</g>
<!-- Node8 -->
<g id="Node000008" class="node">
<title>Node8</title>
<g id="a_Node000008"><a xlink:title=" ">
<polygon fill="#e0e0e0" stroke="#999999" points="94,-20 0,-20 0,0 94,0 94,-20"/>
<text xml:space="preserve" text-anchor="middle" x="47" y="-6.5" font-family="Helvetica,sans-Serif" font-size="10.00">condition_variable</text>
</a>
</g>
</g>
<!-- Node2&#45;&gt;Node8 -->
<g id="edge7_Node000002_Node000008" class="edge">
<title>Node2&#45;&gt;Node8</title>
<g id="a_edge7_Node000002_Node000008"><a xlink:title=" ">
<path fill="none" stroke="#63b8ff" d="M311.89,-55.84C254.64,-46.15 164.62,-30.91 105.7,-20.94"/>
<polygon fill="#63b8ff" stroke="#63b8ff" points="106.28,-17.49 95.84,-19.27 105.11,-24.39 106.28,-17.49"/>
</a>
</g>
</g>
<!-- Node9 -->
<g id="Node000009" class="node">
<title>Node9</title>
<g id="a_Node000009"><a xlink:title=" ">
<polygon fill="#e0e0e0" stroke="#999999" points="157.62,-20 112.38,-20 112.38,0 157.62,0 157.62,-20"/>
<text xml:space="preserve" text-anchor="middle" x="135" y="-6.5" font-family="Helvetica,sans-Serif" font-size="10.00">atomic</text>
</a>
</g>
</g>
<!-- Node2&#45;&gt;Node9 -->
<g id="edge8_Node000002_Node000009" class="edge">
<title>Node2&#45;&gt;Node9</title>
<g id="a_edge8_Node000002_Node000009"><a xlink:title=" ">
<path fill="none" stroke="#63b8ff" d="M321.19,-55.56C283.12,-47.39 226.79,-34.93 168.86,-20.37"/>
<polygon fill="#63b8ff" stroke="#63b8ff" points="170.05,-17.06 159.5,-18 168.34,-23.85 170.05,-17.06"/>
</a>
</g>
</g>
<!-- Node2&#45;&gt;Node10 -->
<g id="edge9_Node000002_Node000010" class="edge">
<title>Node2&#45;&gt;Node10</title>
<g id="a_edge9_Node000002_Node000010"><a xlink:title=" ">
<path fill="none" stroke="#63b8ff" d="M392.3,-55.59C418.29,-46.3 458.07,-32.08 485.68,-22.2"/>
<polygon fill="#63b8ff" stroke="#63b8ff" points="486.67,-25.56 494.91,-18.9 484.31,-18.97 486.67,-25.56"/>
</a>
</g>
</g>
<!-- Node2&#45;&gt;Node11 -->
<g id="edge10_Node000002_Node000011" class="edge">
<title>Node2&#45;&gt;Node11</title>
<g id="a_edge10_Node000002_Node000011"><a xlink:title=" ">
<path fill="none" stroke="#63b8ff" d="M404.4,-55.53C443.67,-45.85 504.44,-30.86 544.47,-20.99"/>
<polygon fill="#63b8ff" stroke="#63b8ff" points="545.09,-24.45 553.96,-18.65 543.41,-17.65 545.09,-24.45"/>
</a>
</g>
</g>
<!-- Node13 -->
<g id="Node000013" class="node">
<title>Node13</title>
<g id="a_Node000013"><a xlink:title=" ">
<polygon fill="#e0e0e0" stroke="#999999" points="743.75,-20 690.25,-20 690.25,0 743.75,0 743.75,-20"/>
<text xml:space="preserve" text-anchor="middle" x="717" y="-6.5" font-family="Helvetica,sans-Serif" font-size="10.00">iostream</text>
</a>
</g>
</g>
<!-- Node12&#45;&gt;Node13 -->
<g id="edge12_Node000012_Node000013" class="edge">
<title>Node12&#45;&gt;Node13</title>
<g id="a_edge12_Node000012_Node000013"><a xlink:title=" ">
<path fill="none" stroke="#63b8ff" d="M663.32,-55.59C672.64,-47.85 686.08,-36.69 697.18,-27.47"/>
<polygon fill="#63b8ff" stroke="#63b8ff" points="699.19,-30.35 704.64,-21.27 694.71,-24.96 699.19,-30.35"/>
</a>
</g>
</g>
<!-- Node14 -->
<g id="Node000014" class="node">
<title>Node14</title>
<g id="a_Node000014"><a xlink:title=" ">
<polygon fill="#e0e0e0" stroke="#999999" points="672,-20 632,-20 632,0 672,0 672,-20"/>
<text xml:space="preserve" text-anchor="middle" x="652" y="-6.5" font-family="Helvetica,sans-Serif" font-size="10.00">string</text>
</a>
</g>
</g>
<!-- Node12&#45;&gt;Node14 -->
<g id="edge13_Node000012_Node000014" class="edge">
<title>Node12&#45;&gt;Node14</title>
<g id="a_edge13_Node000012_Node000014"><a xlink:title=" ">
<path fill="none" stroke="#63b8ff" d="M652,-55.59C652,-49.01 652,-39.96 652,-31.73"/>
<polygon fill="#63b8ff" stroke="#63b8ff" points="655.5,-31.81 652,-21.81 648.5,-31.81 655.5,-31.81"/>
</a>
</g>
</g>
</g>
</svg>
