<?xml version="1.0" encoding="UTF-8" standalone="no"?>
<!DOCTYPE svg PUBLIC "-//W3C//DTD SVG 1.1//EN"
 "http://www.w3.org/Graphics/SVG/1.1/DTD/svg11.dtd">
<!-- Generated by graphviz version 14.0.2 (20251019.1705)
 -->
<!-- Title: ThumbnailGenerator.h Pages: 1 -->
<svg width="449pt" height="140pt"
 viewBox="0.00 0.00 449.00 140.00" xmlns="http://www.w3.org/2000/svg" xmlns:xlink="http://www.w3.org/1999/xlink">
<g id="graph0" class="graph" transform="scale(1 1) rotate(0) translate(4 136)">
<title>ThumbnailGenerator.h</title>
<!-- Node1 -->
<g id="Node000001" class="node">
<title>Node1</title>
<g id="a_Node000001"><a xlink:title=" ">
<polygon fill="#999999" stroke="#666666" points="347.88,-132 235.88,-132 235.88,-112 347.88,-112 347.88,-132"/>
<text xml:space="preserve" text-anchor="middle" x="291.88" y="-118.5" font-family="Helvetica,sans-Serif" font-size="10.00">ThumbnailGenerator.h</text>
</a>
</g>
</g>
<!-- Node2 -->
<g id="Node000002" class="node">
<title>Node2</title>
<g id="a_Node000002"><a xlink:href="AssetManager_8h.html" target="_top" xlink:title=" ">
<polygon fill="white" stroke="#666666" points="212.5,-76 125.25,-76 125.25,-56 212.5,-56 212.5,-76"/>
<text xml:space="preserve" text-anchor="middle" x="168.88" y="-62.5" font-family="Helvetica,sans-Serif" font-size="10.00">AssetManager.h</text>
</a>
</g>
</g>
<!-- Node1&#45;&gt;Node2 -->
<g id="edge1_Node000001_Node000002" class="edge">
<title>Node1&#45;&gt;Node2</title>
<g id="a_edge1_Node000001_Node000002"><a xlink:title=" ">
<path fill="none" stroke="#63b8ff" d="M260.01,-107.01C238.14,-97.41 209.72,-84.93 190.47,-76.48"/>
<polygon fill="#63b8ff" stroke="#63b8ff" points="258.5,-110.17 269.06,-110.99 261.31,-103.76 258.5,-110.17"/>
</a>
</g>
</g>
<!-- Node6 -->
<g id="Node000006" class="node">
<title>Node6</title>
<g id="a_Node000006"><a xlink:href="ThumbnailGenerator_8cpp.html" target="_top" xlink:title=" ">
<polygon fill="white" stroke="#666666" points="353.12,-76 230.62,-76 230.62,-56 353.12,-56 353.12,-76"/>
<text xml:space="preserve" text-anchor="middle" x="291.88" y="-62.5" font-family="Helvetica,sans-Serif" font-size="10.00">ThumbnailGenerator.cpp</text>
</a>
</g>
</g>
<!-- Node1&#45;&gt;Node6 -->
<g id="edge5_Node000001_Node000006" class="edge">
<title>Node1&#45;&gt;Node6</title>
<g id="a_edge5_Node000001_Node000006"><a xlink:title=" ">
<path fill="none" stroke="#63b8ff" d="M291.88,-100.13C291.88,-91.9 291.88,-82.85 291.88,-76.3"/>
<polygon fill="#63b8ff" stroke="#63b8ff" points="288.38,-100.08 291.88,-110.08 295.38,-100.08 288.38,-100.08"/>
</a>
</g>
</g>
<!-- Node7 -->
<g id="Node000007" class="node">
<title>Node7</title>
<g id="a_Node000007"><a xlink:href="Thumbs_8cpp.html" target="_top" xlink:title=" ">
<polygon fill="white" stroke="#666666" points="440.88,-76 370.88,-76 370.88,-56 440.88,-56 440.88,-76"/>
<text xml:space="preserve" text-anchor="middle" x="405.88" y="-62.5" font-family="Helvetica,sans-Serif" font-size="10.00">Thumbs.cpp</text>
</a>
</g>
</g>
<!-- Node1&#45;&gt;Node7 -->
<g id="edge6_Node000001_Node000007" class="edge">
<title>Node1&#45;&gt;Node7</title>
<g id="a_edge6_Node000001_Node000007"><a xlink:title=" ">
<path fill="none" stroke="#63b8ff" d="M321.97,-106.75C342.16,-97.18 368.19,-84.85 385.86,-76.48"/>
<polygon fill="#63b8ff" stroke="#63b8ff" points="320.64,-103.5 313.1,-110.95 323.64,-109.83 320.64,-103.5"/>
</a>
</g>
</g>
<!-- Node3 -->
<g id="Node000003" class="node">
<title>Node3</title>
<g id="a_Node000003"><a xlink:href="AssetManager_8cpp.html" target="_top" xlink:title=" ">
<polygon fill="white" stroke="#666666" points="97.75,-20 0,-20 0,0 97.75,0 97.75,-20"/>
<text xml:space="preserve" text-anchor="middle" x="48.88" y="-6.5" font-family="Helvetica,sans-Serif" font-size="10.00">AssetManager.cpp</text>
</a>
</g>
</g>
<!-- Node2&#45;&gt;Node3 -->
<g id="edge2_Node000002_Node000003" class="edge">
<title>Node2&#45;&gt;Node3</title>
<g id="a_edge2_Node000002_Node000003"><a xlink:title=" ">
<path fill="none" stroke="#63b8ff" d="M137.49,-50.88C116.2,-41.3 88.63,-28.89 69.94,-20.48"/>
<polygon fill="#63b8ff" stroke="#63b8ff" points="136.04,-54.06 146.59,-54.97 138.91,-47.68 136.04,-54.06"/>
</a>
</g>
</g>
<!-- Node4 -->
<g id="Node000004" class="node">
<title>Node4</title>
<g id="a_Node000004"><a xlink:href="ContentBrowser_8cpp.html" target="_top" xlink:title=" ">
<polygon fill="white" stroke="#666666" points="221.5,-20 116.25,-20 116.25,0 221.5,0 221.5,-20"/>
<text xml:space="preserve" text-anchor="middle" x="168.88" y="-6.5" font-family="Helvetica,sans-Serif" font-size="10.00">ContentBrowser.cpp</text>
</a>
</g>
</g>
<!-- Node2&#45;&gt;Node4 -->
<g id="edge3_Node000002_Node000004" class="edge">
<title>Node2&#45;&gt;Node4</title>
<g id="a_edge3_Node000002_Node000004"><a xlink:title=" ">
<path fill="none" stroke="#63b8ff" d="M168.88,-44.13C168.88,-35.9 168.88,-26.85 168.88,-20.3"/>
<polygon fill="#63b8ff" stroke="#63b8ff" points="165.38,-44.08 168.88,-54.08 172.38,-44.08 165.38,-44.08"/>
</a>
</g>
</g>
<!-- Node5 -->
<g id="Node000005" class="node">
<title>Node5</title>
<g id="a_Node000005"><a xlink:href="main_8cpp.html" target="_top" xlink:title=" ">
<polygon fill="white" stroke="#666666" points="295.75,-20 240,-20 240,0 295.75,0 295.75,-20"/>
<text xml:space="preserve" text-anchor="middle" x="267.88" y="-6.5" font-family="Helvetica,sans-Serif" font-size="10.00">main.cpp</text>
</a>
</g>
</g>
<!-- Node2&#45;&gt;Node5 -->
<g id="edge4_Node000002_Node000005" class="edge">
<title>Node2&#45;&gt;Node5</title>
<g id="a_edge4_Node000002_Node000005"><a xlink:title=" ">
<path fill="none" stroke="#63b8ff" d="M195.74,-50.35C213.16,-40.84 235.36,-28.74 250.5,-20.48"/>
<polygon fill="#63b8ff" stroke="#63b8ff" points="194.55,-47.01 187.45,-54.87 197.9,-53.15 194.55,-47.01"/>
</a>
</g>
</g>
</g>
</svg>
