<?xml version="1.0" encoding="UTF-8" standalone="no"?>
<!DOCTYPE svg PUBLIC "-//W3C//DTD SVG 1.1//EN"
 "http://www.w3.org/Graphics/SVG/1.1/DTD/svg11.dtd">
<!-- Generated by graphviz version 14.0.2 (20251019.1705)
 -->
<!-- Title: ThumbnailGenerator.h Pages: 1 -->
<svg width="237pt" height="140pt"
 viewBox="0.00 0.00 237.00 140.00" xmlns="http://www.w3.org/2000/svg" xmlns:xlink="http://www.w3.org/1999/xlink">
<g id="graph0" class="graph" transform="scale(1 1) rotate(0) translate(4 136)">
<title>ThumbnailGenerator.h</title>
<!-- Node1 -->
<g id="Node000001" class="node">
<title>Node1</title>
<g id="a_Node000001"><a xlink:title=" ">
<polygon fill="#999999" stroke="#666666" points="152,-132 40,-132 40,-112 152,-112 152,-132"/>
<text xml:space="preserve" text-anchor="middle" x="96" y="-118.5" font-family="Helvetica,sans-Serif" font-size="10.00">ThumbnailGenerator.h</text>
</a>
</g>
</g>
<!-- Node2 -->
<g id="Node000002" class="node">
<title>Node2</title>
<g id="a_Node000002"><a xlink:href="AssetMeta_8h.html" target="_top" xlink:title=" ">
<polygon fill="white" stroke="#666666" points="159.12,-76 32.88,-76 32.88,-56 159.12,-56 159.12,-76"/>
<text xml:space="preserve" text-anchor="middle" x="96" y="-62.5" font-family="Helvetica,sans-Serif" font-size="10.00">LGE/assets/AssetMeta.h</text>
</a>
</g>
</g>
<!-- Node1&#45;&gt;Node2 -->
<g id="edge1_Node000001_Node000002" class="edge">
<title>Node1&#45;&gt;Node2</title>
<g id="a_edge1_Node000001_Node000002"><a xlink:title=" ">
<path fill="none" stroke="#63b8ff" d="M96,-111.59C96,-105.01 96,-95.96 96,-87.73"/>
<polygon fill="#63b8ff" stroke="#63b8ff" points="99.5,-87.81 96,-77.81 92.5,-87.81 99.5,-87.81"/>
</a>
</g>
</g>
<!-- Node3 -->
<g id="Node000003" class="node">
<title>Node3</title>
<g id="a_Node000003"><a xlink:title=" ">
<polygon fill="#e0e0e0" stroke="#999999" points="40,-20 0,-20 0,0 40,0 40,-20"/>
<text xml:space="preserve" text-anchor="middle" x="20" y="-6.5" font-family="Helvetica,sans-Serif" font-size="10.00">string</text>
</a>
</g>
</g>
<!-- Node1&#45;&gt;Node3 -->
<g id="edge4_Node000001_Node000003" class="edge">
<title>Node1&#45;&gt;Node3</title>
<g id="a_edge4_Node000001_Node000003"><a xlink:title=" ">
<path fill="none" stroke="#63b8ff" d="M69.41,-111.65C53.36,-104.51 34.1,-92.97 24,-76 16.03,-62.61 15.48,-44.8 16.68,-31.21"/>
<polygon fill="#63b8ff" stroke="#63b8ff" points="20.1,-32.03 17.9,-21.66 13.16,-31.13 20.1,-32.03"/>
</a>
</g>
</g>
<!-- Node5 -->
<g id="Node000005" class="node">
<title>Node5</title>
<g id="a_Node000005"><a xlink:title=" ">
<polygon fill="#e0e0e0" stroke="#999999" points="228.62,-76 177.38,-76 177.38,-56 228.62,-56 228.62,-76"/>
<text xml:space="preserve" text-anchor="middle" x="203" y="-62.5" font-family="Helvetica,sans-Serif" font-size="10.00">memory</text>
</a>
</g>
</g>
<!-- Node1&#45;&gt;Node5 -->
<g id="edge5_Node000001_Node000005" class="edge">
<title>Node1&#45;&gt;Node5</title>
<g id="a_edge5_Node000001_Node000005"><a xlink:title=" ">
<path fill="none" stroke="#63b8ff" d="M114.64,-111.59C131.03,-103.32 155.16,-91.14 174.06,-81.6"/>
<polygon fill="#63b8ff" stroke="#63b8ff" points="175.51,-84.79 182.87,-77.16 172.36,-78.54 175.51,-84.79"/>
</a>
</g>
</g>
<!-- Node2&#45;&gt;Node3 -->
<g id="edge2_Node000002_Node000003" class="edge">
<title>Node2&#45;&gt;Node3</title>
<g id="a_edge2_Node000002_Node000003"><a xlink:title=" ">
<path fill="none" stroke="#63b8ff" d="M82.76,-55.59C71.71,-47.74 55.72,-36.38 42.64,-27.09"/>
<polygon fill="#63b8ff" stroke="#63b8ff" points="44.75,-24.3 34.58,-21.36 40.7,-30 44.75,-24.3"/>
</a>
</g>
</g>
<!-- Node4 -->
<g id="Node000004" class="node">
<title>Node4</title>
<g id="a_Node000004"><a xlink:title=" ">
<polygon fill="#e0e0e0" stroke="#999999" points="118.62,-20 73.38,-20 73.38,0 118.62,0 118.62,-20"/>
<text xml:space="preserve" text-anchor="middle" x="96" y="-6.5" font-family="Helvetica,sans-Serif" font-size="10.00">cstdint</text>
</a>
</g>
</g>
<!-- Node2&#45;&gt;Node4 -->
<g id="edge3_Node000002_Node000004" class="edge">
<title>Node2&#45;&gt;Node4</title>
<g id="a_edge3_Node000002_Node000004"><a xlink:title=" ">
<path fill="none" stroke="#63b8ff" d="M96,-55.59C96,-49.01 96,-39.96 96,-31.73"/>
<polygon fill="#63b8ff" stroke="#63b8ff" points="99.5,-31.81 96,-21.81 92.5,-31.81 99.5,-31.81"/>
</a>
</g>
</g>
</g>
</svg>
