<?xml version="1.0" encoding="UTF-8" standalone="no"?>
<!DOCTYPE svg PUBLIC "-//W3C//DTD SVG 1.1//EN"
 "http://www.w3.org/Graphics/SVG/1.1/DTD/svg11.dtd">
<!-- Generated by graphviz version 14.0.2 (20251019.1705)
 -->
<!-- Title: Thumbs.cpp Pages: 1 -->
<svg width="2013pt" height="196pt"
 viewBox="0.00 0.00 2013.00 196.00" xmlns="http://www.w3.org/2000/svg" xmlns:xlink="http://www.w3.org/1999/xlink">
<g id="graph0" class="graph" transform="scale(1 1) rotate(0) translate(4 192)">
<title>Thumbs.cpp</title>
<!-- Node1 -->
<g id="Node000001" class="node">
<title>Node1</title>
<g id="a_Node000001"><a xlink:title=" ">
<polygon fill="#999999" stroke="#666666" points="945.12,-188 875.12,-188 875.12,-168 945.12,-168 945.12,-188"/>
<text xml:space="preserve" text-anchor="middle" x="910.12" y="-174.5" font-family="Helvetica,sans-Serif" font-size="10.00">Thumbs.cpp</text>
</a>
</g>
</g>
<!-- Node2 -->
<g id="Node000002" class="node">
<title>Node2</title>
<g id="a_Node000002"><a xlink:href="Thumbs_8h.html" target="_top" xlink:title=" ">
<polygon fill="white" stroke="#666666" points="447.75,-76 354.5,-76 354.5,-56 447.75,-56 447.75,-76"/>
<text xml:space="preserve" text-anchor="middle" x="401.12" y="-62.5" font-family="Helvetica,sans-Serif" font-size="10.00">LGE/fs/Thumbs.h</text>
</a>
</g>
</g>
<!-- Node1&#45;&gt;Node2 -->
<g id="edge1_Node000001_Node000002" class="edge">
<title>Node1&#45;&gt;Node2</title>
<g id="a_edge1_Node000001_Node000002"><a xlink:title=" ">
<path fill="none" stroke="#63b8ff" d="M874.7,-175.37C787.66,-171 565.38,-157.61 496.12,-132 466.6,-121.08 437.43,-98.99 419.37,-83.6"/>
<polygon fill="#63b8ff" stroke="#63b8ff" points="421.96,-81.22 412.13,-77.26 417.35,-86.49 421.96,-81.22"/>
</a>
</g>
</g>
<!-- Node7 -->
<g id="Node000007" class="node">
<title>Node7</title>
<g id="a_Node000007"><a xlink:href="Project_8h.html" target="_top" xlink:title=" ">
<polygon fill="white" stroke="#666666" points="345.5,-132 256.75,-132 256.75,-112 345.5,-112 345.5,-132"/>
<text xml:space="preserve" text-anchor="middle" x="301.12" y="-118.5" font-family="Helvetica,sans-Serif" font-size="10.00">LGE/fs/Project.h</text>
</a>
</g>
</g>
<!-- Node1&#45;&gt;Node7 -->
<g id="edge6_Node000001_Node000007" class="edge">
<title>Node1&#45;&gt;Node7</title>
<g id="a_edge6_Node000001_Node000007"><a xlink:title=" ">
<path fill="none" stroke="#63b8ff" d="M874.75,-173.86C773.31,-164.87 480.78,-138.93 357.25,-127.98"/>
<polygon fill="#63b8ff" stroke="#63b8ff" points="357.61,-124.49 347.34,-127.1 356.99,-131.47 357.61,-124.49"/>
</a>
</g>
</g>
<!-- Node8 -->
<g id="Node000008" class="node">
<title>Node8</title>
<g id="a_Node000008"><a xlink:title=" ">
<polygon fill="#e0e0e0" stroke="#999999" points="259.62,-76 198.62,-76 198.62,-56 259.62,-56 259.62,-76"/>
<text xml:space="preserve" text-anchor="middle" x="229.12" y="-62.5" font-family="Helvetica,sans-Serif" font-size="10.00">filesystem</text>
</a>
</g>
</g>
<!-- Node1&#45;&gt;Node8 -->
<g id="edge58_Node000001_Node000008" class="edge">
<title>Node1&#45;&gt;Node8</title>
<g id="a_edge58_Node000001_Node000008"><a xlink:title=" ">
<path fill="none" stroke="#63b8ff" d="M874.83,-176.92C744.75,-176.33 297.17,-171.43 248.12,-132 234.95,-121.41 230.58,-102.22 229.28,-87.42"/>
<polygon fill="#63b8ff" stroke="#63b8ff" points="232.8,-87.66 228.85,-77.83 225.8,-87.97 232.8,-87.66"/>
</a>
</g>
</g>
<!-- Node9 -->
<g id="Node000009" class="node">
<title>Node9</title>
<g id="a_Node000009"><a xlink:href="Path_8h.html" target="_top" xlink:title=" ">
<polygon fill="white" stroke="#666666" points="78.25,-76 0,-76 0,-56 78.25,-56 78.25,-76"/>
<text xml:space="preserve" text-anchor="middle" x="39.12" y="-62.5" font-family="Helvetica,sans-Serif" font-size="10.00">LGE/fs/Path.h</text>
</a>
</g>
</g>
<!-- Node1&#45;&gt;Node9 -->
<g id="edge9_Node000001_Node000009" class="edge">
<title>Node1&#45;&gt;Node9</title>
<g id="a_edge9_Node000001_Node000009"><a xlink:title=" ">
<path fill="none" stroke="#63b8ff" d="M875.06,-176.43C749.22,-174.12 320.89,-164.04 188.12,-132 142.92,-121.09 94.18,-97.3 65.19,-81.73"/>
<polygon fill="#63b8ff" stroke="#63b8ff" points="67.22,-78.85 56.77,-77.13 63.86,-84.99 67.22,-78.85"/>
</a>
</g>
</g>
<!-- Node10 -->
<g id="Node000010" class="node">
<title>Node10</title>
<g id="a_Node000010"><a xlink:href="FileIO_8h.html" target="_top" xlink:title=" ">
<polygon fill="white" stroke="#666666" points="180.25,-76 96,-76 96,-56 180.25,-56 180.25,-76"/>
<text xml:space="preserve" text-anchor="middle" x="138.12" y="-62.5" font-family="Helvetica,sans-Serif" font-size="10.00">LGE/fs/FileIO.h</text>
</a>
</g>
</g>
<!-- Node1&#45;&gt;Node10 -->
<g id="edge12_Node000001_Node000010" class="edge">
<title>Node1&#45;&gt;Node10</title>
<g id="a_edge12_Node000001_Node000010"><a xlink:title=" ">
<path fill="none" stroke="#63b8ff" d="M874.81,-177.15C753.06,-177.27 351.63,-174.37 231.12,-132 201.85,-121.71 173.39,-99.47 155.82,-83.88"/>
<polygon fill="#63b8ff" stroke="#63b8ff" points="158.54,-81.63 148.8,-77.46 153.82,-86.79 158.54,-81.63"/>
</a>
</g>
</g>
<!-- Node11 -->
<g id="Node000011" class="node">
<title>Node11</title>
<g id="a_Node000011"><a xlink:href="MetaDB_8h.html" target="_top" xlink:title=" ">
<polygon fill="white" stroke="#666666" points="1143.12,-76 1049.12,-76 1049.12,-56 1143.12,-56 1143.12,-76"/>
<text xml:space="preserve" text-anchor="middle" x="1096.12" y="-62.5" font-family="Helvetica,sans-Serif" font-size="10.00">LGE/fs/MetaDB.h</text>
</a>
</g>
</g>
<!-- Node1&#45;&gt;Node11 -->
<g id="edge15_Node000001_Node000011" class="edge">
<title>Node1&#45;&gt;Node11</title>
<g id="a_edge15_Node000001_Node000011"><a xlink:title=" ">
<path fill="none" stroke="#63b8ff" d="M915.24,-167.62C923.38,-153.56 940.57,-127.07 962.12,-112 984.54,-96.33 1012.83,-85.78 1037.63,-78.86"/>
<polygon fill="#63b8ff" stroke="#63b8ff" points="1038.51,-82.24 1047.29,-76.31 1036.73,-75.48 1038.51,-82.24"/>
</a>
</g>
</g>
<!-- Node14 -->
<g id="Node000014" class="node">
<title>Node14</title>
<g id="a_Node000014"><a xlink:href="AssetRegistry_8h.html" target="_top" xlink:title=" ">
<polygon fill="white" stroke="#666666" points="1230.88,-132 1111.38,-132 1111.38,-112 1230.88,-112 1230.88,-132"/>
<text xml:space="preserve" text-anchor="middle" x="1171.12" y="-118.5" font-family="Helvetica,sans-Serif" font-size="10.00">LGE/fs/AssetRegistry.h</text>
</a>
</g>
</g>
<!-- Node1&#45;&gt;Node14 -->
<g id="edge21_Node000001_Node000014" class="edge">
<title>Node1&#45;&gt;Node14</title>
<g id="a_edge21_Node000001_Node000014"><a xlink:title=" ">
<path fill="none" stroke="#63b8ff" d="M945.6,-169.66C989.01,-160.68 1063.05,-145.36 1114.4,-134.74"/>
<polygon fill="#63b8ff" stroke="#63b8ff" points="1115.08,-138.17 1124.16,-132.72 1113.66,-131.32 1115.08,-138.17"/>
</a>
</g>
</g>
<!-- Node15 -->
<g id="Node000015" class="node">
<title>Node15</title>
<g id="a_Node000015"><a xlink:title=" ">
<polygon fill="#e0e0e0" stroke="#999999" points="1471.5,-76 1388.75,-76 1388.75,-56 1471.5,-56 1471.5,-76"/>
<text xml:space="preserve" text-anchor="middle" x="1430.12" y="-62.5" font-family="Helvetica,sans-Serif" font-size="10.00">unordered_map</text>
</a>
</g>
</g>
<!-- Node1&#45;&gt;Node15 -->
<g id="edge61_Node000001_Node000015" class="edge">
<title>Node1&#45;&gt;Node15</title>
<g id="a_edge61_Node000001_Node000015"><a xlink:title=" ">
<path fill="none" stroke="#63b8ff" d="M945.22,-174.46C1005.96,-169.58 1134.35,-157.05 1240.12,-132 1296.32,-118.69 1359.34,-95.39 1396.83,-80.6"/>
<polygon fill="#63b8ff" stroke="#63b8ff" points="1397.75,-84 1405.75,-77.05 1395.16,-77.5 1397.75,-84"/>
</a>
</g>
</g>
<!-- Node17 -->
<g id="Node000017" class="node">
<title>Node17</title>
<g id="a_Node000017"><a xlink:href="EditorBus_8h.html" target="_top" xlink:title=" ">
<polygon fill="white" stroke="#666666" points="1071.5,-132 970.75,-132 970.75,-112 1071.5,-112 1071.5,-132"/>
<text xml:space="preserve" text-anchor="middle" x="1021.12" y="-118.5" font-family="Helvetica,sans-Serif" font-size="10.00">LGE/fs/EditorBus.h</text>
</a>
</g>
</g>
<!-- Node1&#45;&gt;Node17 -->
<g id="edge30_Node000001_Node000017" class="edge">
<title>Node1&#45;&gt;Node17</title>
<g id="a_edge30_Node000001_Node000017"><a xlink:title=" ">
<path fill="none" stroke="#63b8ff" d="M929.46,-167.59C946.54,-159.28 971.73,-147.03 991.38,-137.47"/>
<polygon fill="#63b8ff" stroke="#63b8ff" points="992.82,-140.66 1000.28,-133.14 989.75,-134.37 992.82,-140.66"/>
</a>
</g>
</g>
<!-- Node18 -->
<g id="Node000018" class="node">
<title>Node18</title>
<g id="a_Node000018"><a xlink:href="ThreadPool_8h.html" target="_top" xlink:title=" ">
<polygon fill="white" stroke="#666666" points="1632.88,-132 1525.38,-132 1525.38,-112 1632.88,-112 1632.88,-132"/>
<text xml:space="preserve" text-anchor="middle" x="1579.12" y="-118.5" font-family="Helvetica,sans-Serif" font-size="10.00">LGE/fs/ThreadPool.h</text>
</a>
</g>
</g>
<!-- Node1&#45;&gt;Node18 -->
<g id="edge35_Node000001_Node000018" class="edge">
<title>Node1&#45;&gt;Node18</title>
<g id="a_edge35_Node000001_Node000018"><a xlink:title=" ">
<path fill="none" stroke="#63b8ff" d="M945.44,-174.92C1037.73,-169.35 1293.67,-153.11 1506.12,-132 1508.6,-131.75 1511.13,-131.49 1513.68,-131.22"/>
<polygon fill="#63b8ff" stroke="#63b8ff" points="1513.88,-134.72 1523.44,-130.14 1513.11,-127.76 1513.88,-134.72"/>
</a>
</g>
</g>
<!-- Node20 -->
<g id="Node000020" class="node">
<title>Node20</title>
<g id="a_Node000020"><a xlink:title=" ">
<polygon fill="#e0e0e0" stroke="#999999" points="1532.25,-76 1490,-76 1490,-56 1532.25,-56 1532.25,-76"/>
<text xml:space="preserve" text-anchor="middle" x="1511.12" y="-62.5" font-family="Helvetica,sans-Serif" font-size="10.00">queue</text>
</a>
</g>
</g>
<!-- Node1&#45;&gt;Node20 -->
<g id="edge59_Node000001_Node000020" class="edge">
<title>Node1&#45;&gt;Node20</title>
<g id="a_edge59_Node000001_Node000020"><a xlink:title=" ">
<path fill="none" stroke="#63b8ff" d="M945.61,-174.74C1012.94,-170.02 1163.63,-157.37 1288.12,-132 1357.22,-117.92 1435.98,-92.74 1478.95,-78.2"/>
<polygon fill="#63b8ff" stroke="#63b8ff" points="1479.82,-81.61 1488.15,-75.06 1477.56,-74.98 1479.82,-81.61"/>
</a>
</g>
</g>
<!-- Node21 -->
<g id="Node000021" class="node">
<title>Node21</title>
<g id="a_Node000021"><a xlink:title=" ">
<polygon fill="#e0e0e0" stroke="#999999" points="2004.62,-76 1961.62,-76 1961.62,-56 2004.62,-56 2004.62,-76"/>
<text xml:space="preserve" text-anchor="middle" x="1983.12" y="-62.5" font-family="Helvetica,sans-Serif" font-size="10.00">mutex</text>
</a>
</g>
</g>
<!-- Node1&#45;&gt;Node21 -->
<g id="edge60_Node000001_Node000021" class="edge">
<title>Node1&#45;&gt;Node21</title>
<g id="a_edge60_Node000001_Node000021"><a xlink:title=" ">
<path fill="none" stroke="#63b8ff" d="M945.33,-176.79C1072.63,-175.72 1508.63,-169.37 1642.12,-132 1660.5,-126.86 1661.94,-117.79 1680.12,-112 1792.92,-76.11 1830.58,-99.6 1950.16,-76.07"/>
<polygon fill="#63b8ff" stroke="#63b8ff" points="1950.63,-79.54 1959.73,-74.11 1949.23,-72.68 1950.63,-79.54"/>
</a>
</g>
</g>
<!-- Node26 -->
<g id="Node000026" class="node">
<title>Node26</title>
<g id="a_Node000026"><a xlink:href="ThumbnailGenerator_8h.html" target="_top" xlink:title=" ">
<polygon fill="white" stroke="#666666" points="782.5,-132 615.75,-132 615.75,-112 782.5,-112 782.5,-132"/>
<text xml:space="preserve" text-anchor="middle" x="699.12" y="-118.5" font-family="Helvetica,sans-Serif" font-size="10.00">LGE/assets/ThumbnailGenerator.h</text>
</a>
</g>
</g>
<!-- Node1&#45;&gt;Node26 -->
<g id="edge45_Node000001_Node000026" class="edge">
<title>Node1&#45;&gt;Node26</title>
<g id="a_edge45_Node000001_Node000026"><a xlink:title=" ">
<path fill="none" stroke="#63b8ff" d="M874.81,-167.96C839.79,-159 785.88,-145.2 747.01,-135.26"/>
<polygon fill="#63b8ff" stroke="#63b8ff" points="748,-131.9 737.44,-132.81 746.26,-138.68 748,-131.9"/>
</a>
</g>
</g>
<!-- Node27 -->
<g id="Node000027" class="node">
<title>Node27</title>
<g id="a_Node000027"><a xlink:href="AssetMeta_8h.html" target="_top" xlink:title=" ">
<polygon fill="white" stroke="#666666" points="777.25,-76 651,-76 651,-56 777.25,-56 777.25,-76"/>
<text xml:space="preserve" text-anchor="middle" x="714.12" y="-62.5" font-family="Helvetica,sans-Serif" font-size="10.00">LGE/assets/AssetMeta.h</text>
</a>
</g>
</g>
<!-- Node1&#45;&gt;Node27 -->
<g id="edge51_Node000001_Node000027" class="edge">
<title>Node1&#45;&gt;Node27</title>
<g id="a_edge51_Node000001_Node000027"><a xlink:title=" ">
<path fill="none" stroke="#63b8ff" d="M893.41,-167.62C859.35,-148.5 781.64,-104.89 740.62,-81.87"/>
<polygon fill="#63b8ff" stroke="#63b8ff" points="742.55,-78.94 732.11,-77.1 739.12,-85.04 742.55,-78.94"/>
</a>
</g>
</g>
<!-- Node28 -->
<g id="Node000028" class="node">
<title>Node28</title>
<g id="a_Node000028"><a xlink:href="Texture_8h.html" target="_top" xlink:title=" ">
<polygon fill="white" stroke="#666666" points="917,-76 795.25,-76 795.25,-56 917,-56 917,-76"/>
<text xml:space="preserve" text-anchor="middle" x="856.12" y="-62.5" font-family="Helvetica,sans-Serif" font-size="10.00">LGE/rendering/Texture.h</text>
</a>
</g>
</g>
<!-- Node1&#45;&gt;Node28 -->
<g id="edge52_Node000001_Node000028" class="edge">
<title>Node1&#45;&gt;Node28</title>
<g id="a_edge52_Node000001_Node000028"><a xlink:title=" ">
<path fill="none" stroke="#63b8ff" d="M905.52,-167.62C896.75,-149.76 877.49,-110.53 865.78,-86.67"/>
<polygon fill="#63b8ff" stroke="#63b8ff" points="868.93,-85.15 861.38,-77.71 862.65,-88.23 868.93,-85.15"/>
</a>
</g>
</g>
<!-- Node29 -->
<g id="Node000029" class="node">
<title>Node29</title>
<g id="a_Node000029"><a xlink:href="Log_8h.html" target="_top" xlink:title=" ">
<polygon fill="white" stroke="#666666" points="589.25,-132 505,-132 505,-112 589.25,-112 589.25,-132"/>
<text xml:space="preserve" text-anchor="middle" x="547.12" y="-118.5" font-family="Helvetica,sans-Serif" font-size="10.00">LGE/core/Log.h</text>
</a>
</g>
</g>
<!-- Node1&#45;&gt;Node29 -->
<g id="edge55_Node000001_Node000029" class="edge">
<title>Node1&#45;&gt;Node29</title>
<g id="a_edge55_Node000001_Node000029"><a xlink:title=" ">
<path fill="none" stroke="#63b8ff" d="M874.67,-171.75C818.09,-163.37 703.91,-146.45 607.12,-132 605.1,-131.7 603.04,-131.39 600.96,-131.08"/>
<polygon fill="#63b8ff" stroke="#63b8ff" points="601.64,-127.64 591.23,-129.62 600.6,-134.56 601.64,-127.64"/>
</a>
</g>
</g>
<!-- Node31 -->
<g id="Node000031" class="node">
<title>Node31</title>
<g id="a_Node000031"><a xlink:title=" ">
<polygon fill="#e0e0e0" stroke="#999999" points="1745,-132 1689.25,-132 1689.25,-112 1745,-112 1745,-132"/>
<text xml:space="preserve" text-anchor="middle" x="1717.12" y="-118.5" font-family="Helvetica,sans-Serif" font-size="10.00">algorithm</text>
</a>
</g>
</g>
<!-- Node1&#45;&gt;Node31 -->
<g id="edge62_Node000001_Node000031" class="edge">
<title>Node1&#45;&gt;Node31</title>
<g id="a_edge62_Node000001_Node000031"><a xlink:title=" ">
<path fill="none" stroke="#63b8ff" d="M945.38,-176.83C1054.42,-175.9 1395.64,-169.94 1675.12,-132 1675.96,-131.89 1676.8,-131.77 1677.64,-131.64"/>
<polygon fill="#63b8ff" stroke="#63b8ff" points="1678.03,-135.13 1687.27,-129.95 1676.82,-128.23 1678.03,-135.13"/>
</a>
</g>
</g>
<!-- Node32 -->
<g id="Node000032" class="node">
<title>Node32</title>
<g id="a_Node000032"><a xlink:title=" ">
<polygon fill="#e0e0e0" stroke="#999999" points="1808.75,-132 1763.5,-132 1763.5,-112 1808.75,-112 1808.75,-132"/>
<text xml:space="preserve" text-anchor="middle" x="1786.12" y="-118.5" font-family="Helvetica,sans-Serif" font-size="10.00">chrono</text>
</a>
</g>
</g>
<!-- Node1&#45;&gt;Node32 -->
<g id="edge63_Node000001_Node000032" class="edge">
<title>Node1&#45;&gt;Node32</title>
<g id="a_edge63_Node000001_Node000032"><a xlink:title=" ">
<path fill="none" stroke="#63b8ff" d="M945.58,-176.15C1081.87,-172.74 1572.96,-158.95 1751.86,-131.91"/>
<polygon fill="#63b8ff" stroke="#63b8ff" points="1752.37,-135.37 1761.7,-130.34 1751.27,-128.46 1752.37,-135.37"/>
</a>
</g>
</g>
<!-- Node3 -->
<g id="Node000003" class="node">
<title>Node3</title>
<g id="a_Node000003"><a xlink:title=" ">
<polygon fill="#e0e0e0" stroke="#999999" points="643.12,-20 603.12,-20 603.12,0 643.12,0 643.12,-20"/>
<text xml:space="preserve" text-anchor="middle" x="623.12" y="-6.5" font-family="Helvetica,sans-Serif" font-size="10.00">string</text>
</a>
</g>
</g>
<!-- Node2&#45;&gt;Node3 -->
<g id="edge2_Node000002_Node000003" class="edge">
<title>Node2&#45;&gt;Node3</title>
<g id="a_edge2_Node000002_Node000003"><a xlink:title=" ">
<path fill="none" stroke="#63b8ff" d="M440.05,-55.53C483.19,-45.04 551.93,-28.32 591.76,-18.63"/>
<polygon fill="#63b8ff" stroke="#63b8ff" points="592.54,-22.04 601.43,-16.28 590.88,-15.24 592.54,-22.04"/>
</a>
</g>
</g>
<!-- Node4 -->
<g id="Node000004" class="node">
<title>Node4</title>
<g id="a_Node000004"><a xlink:title=" ">
<polygon fill="#e0e0e0" stroke="#999999" points="358.88,-20 293.38,-20 293.38,0 358.88,0 358.88,-20"/>
<text xml:space="preserve" text-anchor="middle" x="326.12" y="-6.5" font-family="Helvetica,sans-Serif" font-size="10.00">string_view</text>
</a>
</g>
</g>
<!-- Node2&#45;&gt;Node4 -->
<g id="edge3_Node000002_Node000004" class="edge">
<title>Node2&#45;&gt;Node4</title>
<g id="a_edge3_Node000002_Node000004"><a xlink:title=" ">
<path fill="none" stroke="#63b8ff" d="M388.06,-55.59C377.16,-47.74 361.37,-36.38 348.47,-27.09"/>
<polygon fill="#63b8ff" stroke="#63b8ff" points="350.68,-24.37 340.52,-21.36 346.59,-30.05 350.68,-24.37"/>
</a>
</g>
</g>
<!-- Node5 -->
<g id="Node000005" class="node">
<title>Node5</title>
<g id="a_Node000005"><a xlink:title=" ">
<polygon fill="#e0e0e0" stroke="#999999" points="506.75,-20 455.5,-20 455.5,0 506.75,0 506.75,-20"/>
<text xml:space="preserve" text-anchor="middle" x="481.12" y="-6.5" font-family="Helvetica,sans-Serif" font-size="10.00">memory</text>
</a>
</g>
</g>
<!-- Node2&#45;&gt;Node5 -->
<g id="edge4_Node000002_Node000005" class="edge">
<title>Node2&#45;&gt;Node5</title>
<g id="a_edge4_Node000002_Node000005"><a xlink:title=" ">
<path fill="none" stroke="#63b8ff" d="M415.06,-55.59C426.8,-47.67 443.86,-36.16 457.69,-26.82"/>
<polygon fill="#63b8ff" stroke="#63b8ff" points="459.5,-29.82 465.83,-21.33 455.58,-24.02 459.5,-29.82"/>
</a>
</g>
</g>
<!-- Node6 -->
<g id="Node000006" class="node">
<title>Node6</title>
<g id="a_Node000006"><a xlink:title=" ">
<polygon fill="#e0e0e0" stroke="#999999" points="960.75,-20 915.5,-20 915.5,0 960.75,0 960.75,-20"/>
<text xml:space="preserve" text-anchor="middle" x="938.12" y="-6.5" font-family="Helvetica,sans-Serif" font-size="10.00">cstdint</text>
</a>
</g>
</g>
<!-- Node2&#45;&gt;Node6 -->
<g id="edge5_Node000002_Node000006" class="edge">
<title>Node2&#45;&gt;Node6</title>
<g id="a_edge5_Node000002_Node000006"><a xlink:title=" ">
<path fill="none" stroke="#63b8ff" d="M448.2,-57.08C450.88,-56.7 453.53,-56.33 456.12,-56 623.82,-34.48 825.61,-18.99 904.35,-13.35"/>
<polygon fill="#63b8ff" stroke="#63b8ff" points="904.24,-16.86 913.97,-12.66 903.75,-9.88 904.24,-16.86"/>
</a>
</g>
</g>
<!-- Node7&#45;&gt;Node3 -->
<g id="edge7_Node000007_Node000003" class="edge">
<title>Node7&#45;&gt;Node3</title>
<g id="a_edge7_Node000007_Node000003"><a xlink:title=" ">
<path fill="none" stroke="#63b8ff" d="M304.59,-111.67C310.51,-97.17 323.99,-69.49 345.12,-56 365.68,-42.88 523.06,-22.88 591.5,-14.69"/>
<polygon fill="#63b8ff" stroke="#63b8ff" points="591.8,-18.18 601.32,-13.52 590.97,-11.23 591.8,-18.18"/>
</a>
</g>
</g>
<!-- Node7&#45;&gt;Node8 -->
<g id="edge8_Node000007_Node000008" class="edge">
<title>Node7&#45;&gt;Node8</title>
<g id="a_edge8_Node000007_Node000008"><a xlink:title=" ">
<path fill="none" stroke="#63b8ff" d="M288.58,-111.59C278.16,-103.77 263.08,-92.46 250.71,-83.19"/>
<polygon fill="#63b8ff" stroke="#63b8ff" points="252.83,-80.41 242.73,-77.21 248.63,-86.01 252.83,-80.41"/>
</a>
</g>
</g>
<!-- Node9&#45;&gt;Node3 -->
<g id="edge10_Node000009_Node000003" class="edge">
<title>Node9&#45;&gt;Node3</title>
<g id="a_edge10_Node000009_Node000003"><a xlink:title=" ">
<path fill="none" stroke="#63b8ff" d="M78.63,-57.26C81.5,-56.8 84.35,-56.38 87.12,-56 276.73,-30.34 325.46,-36.02 516.12,-20 541.56,-17.86 570.38,-15.44 591.71,-13.64"/>
<polygon fill="#63b8ff" stroke="#63b8ff" points="591.83,-17.15 601.5,-12.82 591.24,-10.17 591.83,-17.15"/>
</a>
</g>
</g>
<!-- Node9&#45;&gt;Node4 -->
<g id="edge11_Node000009_Node000004" class="edge">
<title>Node9&#45;&gt;Node4</title>
<g id="a_edge11_Node000009_Node000004"><a xlink:title=" ">
<path fill="none" stroke="#63b8ff" d="M78.73,-57.55C131.99,-47.53 226.41,-29.76 281.92,-19.32"/>
<polygon fill="#63b8ff" stroke="#63b8ff" points="282.48,-22.77 291.66,-17.48 281.19,-15.89 282.48,-22.77"/>
</a>
</g>
</g>
<!-- Node10&#45;&gt;Node3 -->
<g id="edge13_Node000010_Node000003" class="edge">
<title>Node10&#45;&gt;Node3</title>
<g id="a_edge13_Node000010_Node000003"><a xlink:title=" ">
<path fill="none" stroke="#63b8ff" d="M180.67,-57.26C183.53,-56.81 186.36,-56.39 189.12,-56 267.14,-45.09 504.88,-22.2 591.29,-14"/>
<polygon fill="#63b8ff" stroke="#63b8ff" points="591.55,-17.49 601.17,-13.07 590.89,-10.53 591.55,-17.49"/>
</a>
</g>
</g>
<!-- Node10&#45;&gt;Node4 -->
<g id="edge14_Node000010_Node000004" class="edge">
<title>Node10&#45;&gt;Node4</title>
<g id="a_edge14_Node000010_Node000004"><a xlink:title=" ">
<path fill="none" stroke="#63b8ff" d="M170.87,-55.59C201.68,-46.74 248.05,-33.43 282.09,-23.65"/>
<polygon fill="#63b8ff" stroke="#63b8ff" points="283.02,-27.02 291.67,-20.9 281.09,-20.29 283.02,-27.02"/>
</a>
</g>
</g>
<!-- Node11&#45;&gt;Node3 -->
<g id="edge16_Node000011_Node000003" class="edge">
<title>Node11&#45;&gt;Node3</title>
<g id="a_edge16_Node000011_Node000003"><a xlink:title=" ">
<path fill="none" stroke="#63b8ff" d="M1049.04,-59.62C952.8,-48.64 735.8,-23.86 654.59,-14.59"/>
<polygon fill="#63b8ff" stroke="#63b8ff" points="655.03,-11.12 644.69,-13.46 654.23,-18.07 655.03,-11.12"/>
</a>
</g>
</g>
<!-- Node11&#45;&gt;Node4 -->
<g id="edge17_Node000011_Node000004" class="edge">
<title>Node11&#45;&gt;Node4</title>
<g id="a_edge17_Node000011_Node000004"><a xlink:title=" ">
<path fill="none" stroke="#63b8ff" d="M1048.82,-61.82C941.57,-54.59 671.77,-36.27 446.12,-20 421.11,-18.2 393.16,-16.1 370.53,-14.39"/>
<polygon fill="#63b8ff" stroke="#63b8ff" points="370.97,-10.92 360.74,-13.65 370.44,-17.9 370.97,-10.92"/>
</a>
</g>
</g>
<!-- Node11&#45;&gt;Node6 -->
<g id="edge20_Node000011_Node000006" class="edge">
<title>Node11&#45;&gt;Node6</title>
<g id="a_edge20_Node000011_Node000006"><a xlink:title=" ">
<path fill="none" stroke="#63b8ff" d="M1068.6,-55.59C1041.75,-46.42 1000.85,-32.44 972.01,-22.58"/>
<polygon fill="#63b8ff" stroke="#63b8ff" points="973.25,-19.31 962.66,-19.38 970.99,-25.93 973.25,-19.31"/>
</a>
</g>
</g>
<!-- Node12 -->
<g id="Node000012" class="node">
<title>Node12</title>
<g id="a_Node000012"><a xlink:title=" ">
<polygon fill="#e0e0e0" stroke="#999999" points="1325.62,-20 1282.62,-20 1282.62,0 1325.62,0 1325.62,-20"/>
<text xml:space="preserve" text-anchor="middle" x="1304.12" y="-6.5" font-family="Helvetica,sans-Serif" font-size="10.00">vector</text>
</a>
</g>
</g>
<!-- Node11&#45;&gt;Node12 -->
<g id="edge18_Node000011_Node000012" class="edge">
<title>Node11&#45;&gt;Node12</title>
<g id="a_edge18_Node000011_Node000012"><a xlink:title=" ">
<path fill="none" stroke="#63b8ff" d="M1132.36,-55.59C1171.59,-45.41 1233.63,-29.3 1271.43,-19.49"/>
<polygon fill="#63b8ff" stroke="#63b8ff" points="1272.07,-22.94 1280.87,-17.04 1270.31,-16.16 1272.07,-22.94"/>
</a>
</g>
</g>
<!-- Node13 -->
<g id="Node000013" class="node">
<title>Node13</title>
<g id="a_Node000013"><a xlink:title=" ">
<polygon fill="#e0e0e0" stroke="#999999" points="1164,-20 1114.25,-20 1114.25,0 1164,0 1164,-20"/>
<text xml:space="preserve" text-anchor="middle" x="1139.12" y="-6.5" font-family="Helvetica,sans-Serif" font-size="10.00">optional</text>
</a>
</g>
</g>
<!-- Node11&#45;&gt;Node13 -->
<g id="edge19_Node000011_Node000013" class="edge">
<title>Node11&#45;&gt;Node13</title>
<g id="a_edge19_Node000011_Node000013"><a xlink:title=" ">
<path fill="none" stroke="#63b8ff" d="M1103.62,-55.59C1109.41,-48.32 1117.61,-38.02 1124.67,-29.15"/>
<polygon fill="#63b8ff" stroke="#63b8ff" points="1127.29,-31.49 1130.78,-21.48 1121.81,-27.12 1127.29,-31.49"/>
</a>
</g>
</g>
<!-- Node14&#45;&gt;Node3 -->
<g id="edge23_Node000014_Node000003" class="edge">
<title>Node14&#45;&gt;Node3</title>
<g id="a_edge23_Node000014_Node000003"><a xlink:title=" ">
<path fill="none" stroke="#63b8ff" d="M1145.25,-111.61C1105.53,-97.53 1026.87,-71 958.12,-56 847.9,-31.95 714.29,-18.64 654.59,-13.51"/>
<polygon fill="#63b8ff" stroke="#63b8ff" points="655.1,-10.04 644.84,-12.69 654.52,-17.01 655.1,-10.04"/>
</a>
</g>
</g>
<!-- Node14&#45;&gt;Node4 -->
<g id="edge24_Node000014_Node000004" class="edge">
<title>Node14&#45;&gt;Node4</title>
<g id="a_edge24_Node000014_Node000004"><a xlink:title=" ">
<path fill="none" stroke="#63b8ff" d="M1110.95,-114.62C1100.68,-113.66 1090.1,-112.74 1080.12,-112 998.58,-105.97 409.33,-126.63 345.12,-76 331.85,-65.54 327.5,-46.33 326.23,-31.5"/>
<polygon fill="#63b8ff" stroke="#63b8ff" points="329.74,-31.71 325.82,-21.87 322.74,-32 329.74,-31.71"/>
</a>
</g>
</g>
<!-- Node14&#45;&gt;Node6 -->
<g id="edge29_Node000014_Node000006" class="edge">
<title>Node14&#45;&gt;Node6</title>
<g id="a_edge29_Node000014_Node000006"><a xlink:title=" ">
<path fill="none" stroke="#63b8ff" d="M1171.23,-111.95C1170.87,-97.85 1168,-70.7 1152.12,-56 1126.35,-32.14 1026.06,-19.27 972.42,-13.96"/>
<polygon fill="#63b8ff" stroke="#63b8ff" points="972.9,-10.49 962.61,-13.03 972.24,-17.46 972.9,-10.49"/>
</a>
</g>
</g>
<!-- Node14&#45;&gt;Node11 -->
<g id="edge22_Node000014_Node000011" class="edge">
<title>Node14&#45;&gt;Node11</title>
<g id="a_edge22_Node000014_Node000011"><a xlink:title=" ">
<path fill="none" stroke="#63b8ff" d="M1158.06,-111.59C1147.16,-103.74 1131.37,-92.38 1118.47,-83.09"/>
<polygon fill="#63b8ff" stroke="#63b8ff" points="1120.68,-80.37 1110.52,-77.36 1116.59,-86.05 1120.68,-80.37"/>
</a>
</g>
</g>
<!-- Node14&#45;&gt;Node12 -->
<g id="edge25_Node000014_Node000012" class="edge">
<title>Node14&#45;&gt;Node12</title>
<g id="a_edge25_Node000014_Node000012"><a xlink:title=" ">
<path fill="none" stroke="#63b8ff" d="M1231.13,-113.05C1274.75,-105.89 1328.44,-93.75 1342.12,-76 1354,-60.6 1339.23,-41.14 1324.78,-27.55"/>
<polygon fill="#63b8ff" stroke="#63b8ff" points="1327.48,-25.25 1317.65,-21.29 1322.86,-30.52 1327.48,-25.25"/>
</a>
</g>
</g>
<!-- Node14&#45;&gt;Node13 -->
<g id="edge27_Node000014_Node000013" class="edge">
<title>Node14&#45;&gt;Node13</title>
<g id="a_edge27_Node000014_Node000013"><a xlink:title=" ">
<path fill="none" stroke="#63b8ff" d="M1176.45,-111.85C1183.21,-98.97 1193.09,-74.94 1185.12,-56 1180.43,-44.84 1171.47,-35.07 1162.69,-27.5"/>
<polygon fill="#63b8ff" stroke="#63b8ff" points="1165,-24.87 1154.99,-21.4 1160.65,-30.35 1165,-24.87"/>
</a>
</g>
</g>
<!-- Node14&#45;&gt;Node15 -->
<g id="edge26_Node000014_Node000015" class="edge">
<title>Node14&#45;&gt;Node15</title>
<g id="a_edge26_Node000014_Node000015"><a xlink:title=" ">
<path fill="none" stroke="#63b8ff" d="M1216.54,-111.53C1261.43,-102.17 1330.09,-87.86 1377.38,-78"/>
<polygon fill="#63b8ff" stroke="#63b8ff" points="1378.06,-81.43 1387.14,-75.96 1376.63,-74.58 1378.06,-81.43"/>
</a>
</g>
</g>
<!-- Node16 -->
<g id="Node000016" class="node">
<title>Node16</title>
<g id="a_Node000016"><a xlink:title=" ">
<polygon fill="#e0e0e0" stroke="#999999" points="1333.12,-76 1275.12,-76 1275.12,-56 1333.12,-56 1333.12,-76"/>
<text xml:space="preserve" text-anchor="middle" x="1304.12" y="-62.5" font-family="Helvetica,sans-Serif" font-size="10.00">functional</text>
</a>
</g>
</g>
<!-- Node14&#45;&gt;Node16 -->
<g id="edge28_Node000014_Node000016" class="edge">
<title>Node14&#45;&gt;Node16</title>
<g id="a_edge28_Node000014_Node000016"><a xlink:title=" ">
<path fill="none" stroke="#63b8ff" d="M1194.29,-111.59C1215.33,-103.05 1246.62,-90.35 1270.43,-80.68"/>
<polygon fill="#63b8ff" stroke="#63b8ff" points="1271.43,-84.05 1279.38,-77.05 1268.79,-77.57 1271.43,-84.05"/>
</a>
</g>
</g>
<!-- Node17&#45;&gt;Node3 -->
<g id="edge31_Node000017_Node000003" class="edge">
<title>Node17&#45;&gt;Node3</title>
<g id="a_edge31_Node000017_Node000003"><a xlink:title=" ">
<path fill="none" stroke="#63b8ff" d="M1010.93,-111.65C994.46,-97.13 960.36,-69.43 926.12,-56 832.26,-19.19 711.24,-12.22 654.77,-11.08"/>
<polygon fill="#63b8ff" stroke="#63b8ff" points="654.98,-7.58 644.93,-10.94 654.88,-14.58 654.98,-7.58"/>
</a>
</g>
</g>
<!-- Node17&#45;&gt;Node6 -->
<g id="edge34_Node000017_Node000006" class="edge">
<title>Node17&#45;&gt;Node6</title>
<g id="a_edge34_Node000017_Node000006"><a xlink:title=" ">
<path fill="none" stroke="#63b8ff" d="M1014.05,-111.62C1000.33,-93.44 969.89,-53.09 952,-29.38"/>
<polygon fill="#63b8ff" stroke="#63b8ff" points="954.91,-27.44 946.1,-21.56 949.32,-31.65 954.91,-27.44"/>
</a>
</g>
</g>
<!-- Node17&#45;&gt;Node12 -->
<g id="edge33_Node000017_Node000012" class="edge">
<title>Node17&#45;&gt;Node12</title>
<g id="a_edge33_Node000017_Node000012"><a xlink:title=" ">
<path fill="none" stroke="#63b8ff" d="M1050.74,-111.51C1077.44,-102.8 1117.68,-89.26 1152.12,-76 1194.59,-59.65 1242.75,-38.63 1273.27,-24.98"/>
<polygon fill="#63b8ff" stroke="#63b8ff" points="1274.6,-28.22 1282.29,-20.93 1271.73,-21.84 1274.6,-28.22"/>
</a>
</g>
</g>
<!-- Node17&#45;&gt;Node16 -->
<g id="edge32_Node000017_Node000016" class="edge">
<title>Node17&#45;&gt;Node16</title>
<g id="a_edge32_Node000017_Node000016"><a xlink:title=" ">
<path fill="none" stroke="#63b8ff" d="M1071.75,-111.83C1120.36,-102.94 1195.84,-88.95 1261.12,-76 1262.11,-75.81 1263.1,-75.61 1264.1,-75.41"/>
<polygon fill="#63b8ff" stroke="#63b8ff" points="1264.42,-78.91 1273.51,-73.49 1263.02,-72.06 1264.42,-78.91"/>
</a>
</g>
</g>
<!-- Node18&#45;&gt;Node12 -->
<g id="edge38_Node000018_Node000012" class="edge">
<title>Node18&#45;&gt;Node12</title>
<g id="a_edge38_Node000018_Node000012"><a xlink:title=" ">
<path fill="none" stroke="#63b8ff" d="M1576.46,-111.76C1571.81,-97.38 1560.77,-69.87 1541.12,-56 1508.7,-33.11 1394.4,-19.45 1337.21,-13.9"/>
<polygon fill="#63b8ff" stroke="#63b8ff" points="1337.72,-10.43 1327.44,-12.98 1337.06,-17.4 1337.72,-10.43"/>
</a>
</g>
</g>
<!-- Node18&#45;&gt;Node16 -->
<g id="edge36_Node000018_Node000016" class="edge">
<title>Node18&#45;&gt;Node16</title>
<g id="a_edge36_Node000018_Node000016"><a xlink:title=" ">
<path fill="none" stroke="#63b8ff" d="M1530.91,-111.53C1478,-101.14 1394.02,-84.65 1344.47,-74.92"/>
<polygon fill="#63b8ff" stroke="#63b8ff" points="1345.22,-71.5 1334.73,-73.01 1343.87,-78.37 1345.22,-71.5"/>
</a>
</g>
</g>
<!-- Node19 -->
<g id="Node000019" class="node">
<title>Node19</title>
<g id="a_Node000019"><a xlink:title=" ">
<polygon fill="#e0e0e0" stroke="#999999" points="1631.62,-76 1588.62,-76 1588.62,-56 1631.62,-56 1631.62,-76"/>
<text xml:space="preserve" text-anchor="middle" x="1610.12" y="-62.5" font-family="Helvetica,sans-Serif" font-size="10.00">thread</text>
</a>
</g>
</g>
<!-- Node18&#45;&gt;Node19 -->
<g id="edge37_Node000018_Node000019" class="edge">
<title>Node18&#45;&gt;Node19</title>
<g id="a_edge37_Node000018_Node000019"><a xlink:title=" ">
<path fill="none" stroke="#63b8ff" d="M1584.52,-111.59C1588.57,-104.55 1594.24,-94.67 1599.22,-86"/>
<polygon fill="#63b8ff" stroke="#63b8ff" points="1602.09,-88.03 1604.03,-77.61 1596.02,-84.54 1602.09,-88.03"/>
</a>
</g>
</g>
<!-- Node18&#45;&gt;Node20 -->
<g id="edge39_Node000018_Node000020" class="edge">
<title>Node18&#45;&gt;Node20</title>
<g id="a_edge39_Node000018_Node000020"><a xlink:title=" ">
<path fill="none" stroke="#63b8ff" d="M1567.28,-111.59C1557.43,-103.77 1543.19,-92.46 1531.52,-83.19"/>
<polygon fill="#63b8ff" stroke="#63b8ff" points="1534.03,-80.72 1524.02,-77.24 1529.67,-86.2 1534.03,-80.72"/>
</a>
</g>
</g>
<!-- Node18&#45;&gt;Node21 -->
<g id="edge40_Node000018_Node000021" class="edge">
<title>Node18&#45;&gt;Node21</title>
<g id="a_edge40_Node000018_Node000021"><a xlink:title=" ">
<path fill="none" stroke="#63b8ff" d="M1633.31,-113.76C1637.98,-113.16 1642.63,-112.56 1647.12,-112 1778.99,-95.49 1816.39,-102.71 1950.14,-76.08"/>
<polygon fill="#63b8ff" stroke="#63b8ff" points="1950.63,-79.56 1959.74,-74.14 1949.24,-72.69 1950.63,-79.56"/>
</a>
</g>
</g>
<!-- Node22 -->
<g id="Node000022" class="node">
<title>Node22</title>
<g id="a_Node000022"><a xlink:title=" ">
<polygon fill="#e0e0e0" stroke="#999999" points="1744.12,-76 1650.12,-76 1650.12,-56 1744.12,-56 1744.12,-76"/>
<text xml:space="preserve" text-anchor="middle" x="1697.12" y="-62.5" font-family="Helvetica,sans-Serif" font-size="10.00">condition_variable</text>
</a>
</g>
</g>
<!-- Node18&#45;&gt;Node22 -->
<g id="edge41_Node000018_Node000022" class="edge">
<title>Node18&#45;&gt;Node22</title>
<g id="a_edge41_Node000018_Node000022"><a xlink:title=" ">
<path fill="none" stroke="#63b8ff" d="M1599.68,-111.59C1618.01,-103.21 1645.11,-90.8 1666.08,-81.21"/>
<polygon fill="#63b8ff" stroke="#63b8ff" points="1667.4,-84.45 1675.03,-77.11 1664.48,-78.09 1667.4,-84.45"/>
</a>
</g>
</g>
<!-- Node23 -->
<g id="Node000023" class="node">
<title>Node23</title>
<g id="a_Node000023"><a xlink:title=" ">
<polygon fill="#e0e0e0" stroke="#999999" points="1807.75,-76 1762.5,-76 1762.5,-56 1807.75,-56 1807.75,-76"/>
<text xml:space="preserve" text-anchor="middle" x="1785.12" y="-62.5" font-family="Helvetica,sans-Serif" font-size="10.00">atomic</text>
</a>
</g>
</g>
<!-- Node18&#45;&gt;Node23 -->
<g id="edge42_Node000018_Node000023" class="edge">
<title>Node18&#45;&gt;Node23</title>
<g id="a_edge42_Node000018_Node000023"><a xlink:title=" ">
<path fill="none" stroke="#63b8ff" d="M1616.52,-111.57C1649.52,-103.2 1699.21,-90.46 1751.28,-76.46"/>
<polygon fill="#63b8ff" stroke="#63b8ff" points="1751.86,-79.92 1760.61,-73.94 1750.04,-73.17 1751.86,-79.92"/>
</a>
</g>
</g>
<!-- Node24 -->
<g id="Node000024" class="node">
<title>Node24</title>
<g id="a_Node000024"><a xlink:title=" ">
<polygon fill="#e0e0e0" stroke="#999999" points="1866.5,-76 1825.75,-76 1825.75,-56 1866.5,-56 1866.5,-76"/>
<text xml:space="preserve" text-anchor="middle" x="1846.12" y="-62.5" font-family="Helvetica,sans-Serif" font-size="10.00">future</text>
</a>
</g>
</g>
<!-- Node18&#45;&gt;Node24 -->
<g id="edge43_Node000018_Node000024" class="edge">
<title>Node18&#45;&gt;Node24</title>
<g id="a_edge43_Node000018_Node000024"><a xlink:title=" ">
<path fill="none" stroke="#63b8ff" d="M1632.91,-112.63C1678.93,-105.07 1747.13,-92.9 1814.49,-76.45"/>
<polygon fill="#63b8ff" stroke="#63b8ff" points="1814.96,-79.94 1823.83,-74.14 1813.28,-73.15 1814.96,-79.94"/>
</a>
</g>
</g>
<!-- Node25 -->
<g id="Node000025" class="node">
<title>Node25</title>
<g id="a_Node000025"><a xlink:title=" ">
<polygon fill="#e0e0e0" stroke="#999999" points="1943.5,-76 1884.75,-76 1884.75,-56 1943.5,-56 1943.5,-76"/>
<text xml:space="preserve" text-anchor="middle" x="1914.12" y="-62.5" font-family="Helvetica,sans-Serif" font-size="10.00">stdexcept</text>
</a>
</g>
</g>
<!-- Node18&#45;&gt;Node25 -->
<g id="edge44_Node000018_Node000025" class="edge">
<title>Node18&#45;&gt;Node25</title>
<g id="a_edge44_Node000018_Node000025"><a xlink:title=" ">
<path fill="none" stroke="#63b8ff" d="M1633.08,-113.3C1700.87,-103.54 1814.52,-86.9 1873.36,-76.17"/>
<polygon fill="#63b8ff" stroke="#63b8ff" points="1873.69,-79.67 1882.88,-74.39 1872.4,-72.79 1873.69,-79.67"/>
</a>
</g>
</g>
<!-- Node26&#45;&gt;Node3 -->
<g id="edge49_Node000026_Node000003" class="edge">
<title>Node26&#45;&gt;Node3</title>
<g id="a_edge49_Node000026_Node000003"><a xlink:title=" ">
<path fill="none" stroke="#63b8ff" d="M682.04,-111.5C669.28,-103.58 652.35,-91.16 642.12,-76 633.06,-62.57 628.25,-44.76 625.74,-31.18"/>
<polygon fill="#63b8ff" stroke="#63b8ff" points="629.25,-30.99 624.26,-21.64 622.34,-32.06 629.25,-30.99"/>
</a>
</g>
</g>
<!-- Node26&#45;&gt;Node5 -->
<g id="edge50_Node000026_Node000005" class="edge">
<title>Node26&#45;&gt;Node5</title>
<g id="a_edge50_Node000026_Node000005"><a xlink:title=" ">
<path fill="none" stroke="#63b8ff" d="M680.54,-111.62C642.41,-92.38 555.12,-48.34 509.73,-25.43"/>
<polygon fill="#63b8ff" stroke="#63b8ff" points="511.52,-22.42 501.02,-21.04 508.37,-28.67 511.52,-22.42"/>
</a>
</g>
</g>
<!-- Node26&#45;&gt;Node27 -->
<g id="edge46_Node000026_Node000027" class="edge">
<title>Node26&#45;&gt;Node27</title>
<g id="a_edge46_Node000026_Node000027"><a xlink:title=" ">
<path fill="none" stroke="#63b8ff" d="M701.74,-111.59C703.61,-104.86 706.2,-95.53 708.53,-87.15"/>
<polygon fill="#63b8ff" stroke="#63b8ff" points="711.83,-88.33 711.14,-77.76 705.09,-86.46 711.83,-88.33"/>
</a>
</g>
</g>
<!-- Node27&#45;&gt;Node3 -->
<g id="edge47_Node000027_Node000003" class="edge">
<title>Node27&#45;&gt;Node3</title>
<g id="a_edge47_Node000027_Node000003"><a xlink:title=" ">
<path fill="none" stroke="#63b8ff" d="M698.27,-55.59C684.66,-47.51 664.76,-35.71 648.86,-26.27"/>
<polygon fill="#63b8ff" stroke="#63b8ff" points="650.79,-23.35 640.4,-21.25 647.22,-29.37 650.79,-23.35"/>
</a>
</g>
</g>
<!-- Node27&#45;&gt;Node6 -->
<g id="edge48_Node000027_Node000006" class="edge">
<title>Node27&#45;&gt;Node6</title>
<g id="a_edge48_Node000027_Node000006"><a xlink:title=" ">
<path fill="none" stroke="#63b8ff" d="M753.4,-55.53C796,-45.26 863.32,-29.03 903.85,-19.26"/>
<polygon fill="#63b8ff" stroke="#63b8ff" points="904.65,-22.67 913.55,-16.92 903.01,-15.87 904.65,-22.67"/>
</a>
</g>
</g>
<!-- Node28&#45;&gt;Node3 -->
<g id="edge54_Node000028_Node000003" class="edge">
<title>Node28&#45;&gt;Node3</title>
<g id="a_edge54_Node000028_Node000003"><a xlink:title=" ">
<path fill="none" stroke="#63b8ff" d="M815.27,-55.53C769.44,-44.91 696.09,-27.91 654.53,-18.28"/>
<polygon fill="#63b8ff" stroke="#63b8ff" points="655.46,-14.9 644.93,-16.05 653.88,-21.72 655.46,-14.9"/>
</a>
</g>
</g>
<!-- Node28&#45;&gt;Node6 -->
<g id="edge53_Node000028_Node000006" class="edge">
<title>Node28&#45;&gt;Node6</title>
<g id="a_edge53_Node000028_Node000006"><a xlink:title=" ">
<path fill="none" stroke="#63b8ff" d="M870.41,-55.59C882.56,-47.59 900.26,-35.93 914.52,-26.54"/>
<polygon fill="#63b8ff" stroke="#63b8ff" points="916.04,-29.73 922.47,-21.31 912.19,-23.89 916.04,-29.73"/>
</a>
</g>
</g>
<!-- Node29&#45;&gt;Node3 -->
<g id="edge57_Node000029_Node000003" class="edge">
<title>Node29&#45;&gt;Node3</title>
<g id="a_edge57_Node000029_Node000003"><a xlink:title=" ">
<path fill="none" stroke="#63b8ff" d="M553.6,-111.62C566.11,-93.52 593.79,-53.45 610.2,-29.7"/>
<polygon fill="#63b8ff" stroke="#63b8ff" points="613,-31.82 615.8,-21.6 607.24,-27.84 613,-31.82"/>
</a>
</g>
</g>
<!-- Node30 -->
<g id="Node000030" class="node">
<title>Node30</title>
<g id="a_Node000030"><a xlink:title=" ">
<polygon fill="#e0e0e0" stroke="#999999" points="518.88,-76 465.38,-76 465.38,-56 518.88,-56 518.88,-76"/>
<text xml:space="preserve" text-anchor="middle" x="492.12" y="-62.5" font-family="Helvetica,sans-Serif" font-size="10.00">iostream</text>
</a>
</g>
</g>
<!-- Node29&#45;&gt;Node30 -->
<g id="edge56_Node000029_Node000030" class="edge">
<title>Node29&#45;&gt;Node30</title>
<g id="a_edge56_Node000029_Node000030"><a xlink:title=" ">
<path fill="none" stroke="#63b8ff" d="M537.54,-111.59C529.89,-104.08 518.97,-93.35 509.75,-84.3"/>
<polygon fill="#63b8ff" stroke="#63b8ff" points="512.26,-81.87 502.68,-77.36 507.36,-86.86 512.26,-81.87"/>
</a>
</g>
</g>
</g>
</svg>
