<?xml version="1.0" encoding="UTF-8" standalone="no"?>
<!DOCTYPE svg PUBLIC "-//W3C//DTD SVG 1.1//EN"
 "http://www.w3.org/Graphics/SVG/1.1/DTD/svg11.dtd">
<!-- Generated by graphviz version 14.0.2 (20251019.1705)
 -->
<!-- Title: ThumbnailGenerator.cpp Pages: 1 -->
<svg width="478pt" height="196pt"
 viewBox="0.00 0.00 478.00 196.00" xmlns="http://www.w3.org/2000/svg" xmlns:xlink="http://www.w3.org/1999/xlink">
<g id="graph0" class="graph" transform="scale(1 1) rotate(0) translate(4 192)">
<title>ThumbnailGenerator.cpp</title>
<!-- Node1 -->
<g id="Node000001" class="node">
<title>Node1</title>
<g id="a_Node000001"><a xlink:title=" ">
<polygon fill="#999999" stroke="#666666" points="358.38,-188 235.88,-188 235.88,-168 358.38,-168 358.38,-188"/>
<text xml:space="preserve" text-anchor="middle" x="297.12" y="-174.5" font-family="Helvetica,sans-Serif" font-size="10.00">ThumbnailGenerator.cpp</text>
</a>
</g>
</g>
<!-- Node2 -->
<g id="Node000002" class="node">
<title>Node2</title>
<g id="a_Node000002"><a xlink:href="ThumbnailGenerator_8h.html" target="_top" xlink:title=" ">
<polygon fill="white" stroke="#666666" points="269.5,-132 102.75,-132 102.75,-112 269.5,-112 269.5,-132"/>
<text xml:space="preserve" text-anchor="middle" x="186.12" y="-118.5" font-family="Helvetica,sans-Serif" font-size="10.00">LGE/assets/ThumbnailGenerator.h</text>
</a>
</g>
</g>
<!-- Node1&#45;&gt;Node2 -->
<g id="edge1_Node000001_Node000002" class="edge">
<title>Node1&#45;&gt;Node2</title>
<g id="a_edge1_Node000001_Node000002"><a xlink:title=" ">
<path fill="none" stroke="#63b8ff" d="M277.79,-167.59C260.71,-159.28 235.52,-147.03 215.87,-137.47"/>
<polygon fill="#63b8ff" stroke="#63b8ff" points="217.5,-134.37 206.97,-133.14 214.43,-140.66 217.5,-134.37"/>
</a>
</g>
</g>
<!-- Node7 -->
<g id="Node000007" class="node">
<title>Node7</title>
<g id="a_Node000007"><a xlink:href="Texture_8h.html" target="_top" xlink:title=" ">
<polygon fill="white" stroke="#666666" points="470,-76 348.25,-76 348.25,-56 470,-56 470,-76"/>
<text xml:space="preserve" text-anchor="middle" x="409.12" y="-62.5" font-family="Helvetica,sans-Serif" font-size="10.00">LGE/rendering/Texture.h</text>
</a>
</g>
</g>
<!-- Node1&#45;&gt;Node7 -->
<g id="edge7_Node000001_Node000007" class="edge">
<title>Node1&#45;&gt;Node7</title>
<g id="a_edge7_Node000001_Node000007"><a xlink:title=" ">
<path fill="none" stroke="#63b8ff" d="M297.67,-167.94C298.95,-154.3 303.16,-128.34 317.12,-112 329.47,-97.56 347.53,-87.34 364.39,-80.32"/>
<polygon fill="#63b8ff" stroke="#63b8ff" points="365.18,-83.77 373.25,-76.91 362.66,-77.24 365.18,-83.77"/>
</a>
</g>
</g>
<!-- Node8 -->
<g id="Node000008" class="node">
<title>Node8</title>
<g id="a_Node000008"><a xlink:href="Log_8h.html" target="_top" xlink:title=" ">
<polygon fill="white" stroke="#666666" points="84.25,-132 0,-132 0,-112 84.25,-112 84.25,-132"/>
<text xml:space="preserve" text-anchor="middle" x="42.12" y="-118.5" font-family="Helvetica,sans-Serif" font-size="10.00">LGE/core/Log.h</text>
</a>
</g>
</g>
<!-- Node1&#45;&gt;Node8 -->
<g id="edge10_Node000001_Node000008" class="edge">
<title>Node1&#45;&gt;Node8</title>
<g id="a_edge10_Node000001_Node000008"><a xlink:title=" ">
<path fill="none" stroke="#63b8ff" d="M252.42,-167.53C208.74,-158.28 142.22,-144.2 95.73,-134.35"/>
<polygon fill="#63b8ff" stroke="#63b8ff" points="96.65,-130.97 86.14,-132.32 95.2,-137.82 96.65,-130.97"/>
</a>
</g>
</g>
<!-- Node10 -->
<g id="Node000010" class="node">
<title>Node10</title>
<g id="a_Node000010"><a xlink:title=" ">
<polygon fill="#e0e0e0" stroke="#999999" points="386.62,-132 325.62,-132 325.62,-112 386.62,-112 386.62,-132"/>
<text xml:space="preserve" text-anchor="middle" x="356.12" y="-118.5" font-family="Helvetica,sans-Serif" font-size="10.00">filesystem</text>
</a>
</g>
</g>
<!-- Node1&#45;&gt;Node10 -->
<g id="edge13_Node000001_Node000010" class="edge">
<title>Node1&#45;&gt;Node10</title>
<g id="a_edge13_Node000001_Node000010"><a xlink:title=" ">
<path fill="none" stroke="#63b8ff" d="M307.4,-167.59C315.69,-160.01 327.57,-149.13 337.53,-140.02"/>
<polygon fill="#63b8ff" stroke="#63b8ff" points="339.84,-142.65 344.85,-133.32 335.11,-137.49 339.84,-142.65"/>
</a>
</g>
</g>
<!-- Node11 -->
<g id="Node000011" class="node">
<title>Node11</title>
<g id="a_Node000011"><a xlink:title=" ">
<polygon fill="#e0e0e0" stroke="#999999" points="460,-132 404.25,-132 404.25,-112 460,-112 460,-132"/>
<text xml:space="preserve" text-anchor="middle" x="432.12" y="-118.5" font-family="Helvetica,sans-Serif" font-size="10.00">algorithm</text>
</a>
</g>
</g>
<!-- Node1&#45;&gt;Node11 -->
<g id="edge14_Node000001_Node000011" class="edge">
<title>Node1&#45;&gt;Node11</title>
<g id="a_edge14_Node000001_Node000011"><a xlink:title=" ">
<path fill="none" stroke="#63b8ff" d="M320.64,-167.59C342,-159.05 373.76,-146.35 397.92,-136.68"/>
<polygon fill="#63b8ff" stroke="#63b8ff" points="399.04,-140.01 407.02,-133.04 396.44,-133.51 399.04,-140.01"/>
</a>
</g>
</g>
<!-- Node3 -->
<g id="Node000003" class="node">
<title>Node3</title>
<g id="a_Node000003"><a xlink:href="AssetMeta_8h.html" target="_top" xlink:title=" ">
<polygon fill="white" stroke="#666666" points="330.25,-76 204,-76 204,-56 330.25,-56 330.25,-76"/>
<text xml:space="preserve" text-anchor="middle" x="267.12" y="-62.5" font-family="Helvetica,sans-Serif" font-size="10.00">LGE/assets/AssetMeta.h</text>
</a>
</g>
</g>
<!-- Node2&#45;&gt;Node3 -->
<g id="edge2_Node000002_Node000003" class="edge">
<title>Node2&#45;&gt;Node3</title>
<g id="a_edge2_Node000002_Node000003"><a xlink:title=" ">
<path fill="none" stroke="#63b8ff" d="M200.23,-111.59C212.12,-103.67 229.39,-92.16 243.4,-82.82"/>
<polygon fill="#63b8ff" stroke="#63b8ff" points="245.27,-85.78 251.65,-77.32 241.38,-79.95 245.27,-85.78"/>
</a>
</g>
</g>
<!-- Node4 -->
<g id="Node000004" class="node">
<title>Node4</title>
<g id="a_Node000004"><a xlink:title=" ">
<polygon fill="#e0e0e0" stroke="#999999" points="249.12,-20 209.12,-20 209.12,0 249.12,0 249.12,-20"/>
<text xml:space="preserve" text-anchor="middle" x="229.12" y="-6.5" font-family="Helvetica,sans-Serif" font-size="10.00">string</text>
</a>
</g>
</g>
<!-- Node2&#45;&gt;Node4 -->
<g id="edge5_Node000002_Node000004" class="edge">
<title>Node2&#45;&gt;Node4</title>
<g id="a_edge5_Node000002_Node000004"><a xlink:title=" ">
<path fill="none" stroke="#63b8ff" d="M185.96,-111.79C186.05,-98.84 187.37,-74.74 195.12,-56 199.17,-46.22 205.86,-36.68 212.24,-28.92"/>
<polygon fill="#63b8ff" stroke="#63b8ff" points="214.71,-31.4 218.67,-21.58 209.45,-26.79 214.71,-31.4"/>
</a>
</g>
</g>
<!-- Node6 -->
<g id="Node000006" class="node">
<title>Node6</title>
<g id="a_Node000006"><a xlink:title=" ">
<polygon fill="#e0e0e0" stroke="#999999" points="147.75,-76 96.5,-76 96.5,-56 147.75,-56 147.75,-76"/>
<text xml:space="preserve" text-anchor="middle" x="122.12" y="-62.5" font-family="Helvetica,sans-Serif" font-size="10.00">memory</text>
</a>
</g>
</g>
<!-- Node2&#45;&gt;Node6 -->
<g id="edge6_Node000002_Node000006" class="edge">
<title>Node2&#45;&gt;Node6</title>
<g id="a_edge6_Node000002_Node000006"><a xlink:title=" ">
<path fill="none" stroke="#63b8ff" d="M174.98,-111.59C165.8,-103.85 152.57,-92.69 141.64,-83.47"/>
<polygon fill="#63b8ff" stroke="#63b8ff" points="144.2,-81.05 134.3,-77.27 139.69,-86.4 144.2,-81.05"/>
</a>
</g>
</g>
<!-- Node3&#45;&gt;Node4 -->
<g id="edge3_Node000003_Node000004" class="edge">
<title>Node3&#45;&gt;Node4</title>
<g id="a_edge3_Node000003_Node000004"><a xlink:title=" ">
<path fill="none" stroke="#63b8ff" d="M260.51,-55.59C255.44,-48.39 248.29,-38.23 242.1,-29.43"/>
<polygon fill="#63b8ff" stroke="#63b8ff" points="245.16,-27.7 236.54,-21.54 239.43,-31.73 245.16,-27.7"/>
</a>
</g>
</g>
<!-- Node5 -->
<g id="Node000005" class="node">
<title>Node5</title>
<g id="a_Node000005"><a xlink:title=" ">
<polygon fill="#e0e0e0" stroke="#999999" points="327.75,-20 282.5,-20 282.5,0 327.75,0 327.75,-20"/>
<text xml:space="preserve" text-anchor="middle" x="305.12" y="-6.5" font-family="Helvetica,sans-Serif" font-size="10.00">cstdint</text>
</a>
</g>
</g>
<!-- Node3&#45;&gt;Node5 -->
<g id="edge4_Node000003_Node000005" class="edge">
<title>Node3&#45;&gt;Node5</title>
<g id="a_edge4_Node000003_Node000005"><a xlink:title=" ">
<path fill="none" stroke="#63b8ff" d="M273.74,-55.59C278.81,-48.39 285.96,-38.23 292.15,-29.43"/>
<polygon fill="#63b8ff" stroke="#63b8ff" points="294.82,-31.73 297.71,-21.54 289.09,-27.7 294.82,-31.73"/>
</a>
</g>
</g>
<!-- Node7&#45;&gt;Node4 -->
<g id="edge9_Node000007_Node000004" class="edge">
<title>Node7&#45;&gt;Node4</title>
<g id="a_edge9_Node000007_Node000004"><a xlink:title=" ">
<path fill="none" stroke="#63b8ff" d="M377.77,-55.59C344.79,-45.7 293.21,-30.23 260.3,-20.35"/>
<polygon fill="#63b8ff" stroke="#63b8ff" points="261.53,-17.07 250.95,-17.55 259.52,-23.77 261.53,-17.07"/>
</a>
</g>
</g>
<!-- Node7&#45;&gt;Node5 -->
<g id="edge8_Node000007_Node000005" class="edge">
<title>Node7&#45;&gt;Node5</title>
<g id="a_edge8_Node000007_Node000005"><a xlink:title=" ">
<path fill="none" stroke="#63b8ff" d="M391.01,-55.59C375.15,-47.36 351.84,-35.26 333.51,-25.74"/>
<polygon fill="#63b8ff" stroke="#63b8ff" points="335.21,-22.68 324.73,-21.18 331.99,-28.89 335.21,-22.68"/>
</a>
</g>
</g>
<!-- Node8&#45;&gt;Node4 -->
<g id="edge12_Node000008_Node000004" class="edge">
<title>Node8&#45;&gt;Node4</title>
<g id="a_edge12_Node000008_Node000004"><a xlink:title=" ">
<path fill="none" stroke="#63b8ff" d="M32.97,-111.71C20.8,-98.22 2.35,-72.99 16.12,-56 38.64,-28.23 144.21,-16.93 197.78,-12.92"/>
<polygon fill="#63b8ff" stroke="#63b8ff" points="197.74,-16.43 207.47,-12.24 197.25,-9.45 197.74,-16.43"/>
</a>
</g>
</g>
<!-- Node9 -->
<g id="Node000009" class="node">
<title>Node9</title>
<g id="a_Node000009"><a xlink:title=" ">
<polygon fill="#e0e0e0" stroke="#999999" points="78.88,-76 25.38,-76 25.38,-56 78.88,-56 78.88,-76"/>
<text xml:space="preserve" text-anchor="middle" x="52.12" y="-62.5" font-family="Helvetica,sans-Serif" font-size="10.00">iostream</text>
</a>
</g>
</g>
<!-- Node8&#45;&gt;Node9 -->
<g id="edge11_Node000008_Node000009" class="edge">
<title>Node8&#45;&gt;Node9</title>
<g id="a_edge11_Node000008_Node000009"><a xlink:title=" ">
<path fill="none" stroke="#63b8ff" d="M43.87,-111.59C45.1,-104.93 46.8,-95.75 48.34,-87.44"/>
<polygon fill="#63b8ff" stroke="#63b8ff" points="51.75,-88.26 50.13,-77.79 44.87,-86.98 51.75,-88.26"/>
</a>
</g>
</g>
</g>
</svg>
