<?xml version="1.0" encoding="UTF-8" standalone="no"?>
<!DOCTYPE svg PUBLIC "-//W3C//DTD SVG 1.1//EN"
 "http://www.w3.org/Graphics/SVG/1.1/DTD/svg11.dtd">
<!-- Generated by graphviz version 14.0.2 (20251019.1705)
 -->
<!-- Title: Thumbs.h Pages: 1 -->
<svg width="261pt" height="84pt"
 viewBox="0.00 0.00 261.00 84.00" xmlns="http://www.w3.org/2000/svg" xmlns:xlink="http://www.w3.org/1999/xlink">
<g id="graph0" class="graph" transform="scale(1 1) rotate(0) translate(4 80)">
<title>Thumbs.h</title>
<!-- Node1 -->
<g id="Node000001" class="node">
<title>Node1</title>
<g id="a_Node000001"><a xlink:title=" ">
<polygon fill="#999999" stroke="#666666" points="174.25,-76 114.75,-76 114.75,-56 174.25,-56 174.25,-76"/>
<text xml:space="preserve" text-anchor="middle" x="144.5" y="-62.5" font-family="Helvetica,sans-Serif" font-size="10.00">Thumbs.h</text>
</a>
</g>
</g>
<!-- Node2 -->
<g id="Node000002" class="node">
<title>Node2</title>
<g id="a_Node000002"><a xlink:href="ImportExport_8cpp.html" target="_top" xlink:title=" ">
<polygon fill="white" stroke="#666666" points="91,-20 0,-20 0,0 91,0 91,-20"/>
<text xml:space="preserve" text-anchor="middle" x="45.5" y="-6.5" font-family="Helvetica,sans-Serif" font-size="10.00">ImportExport.cpp</text>
</a>
</g>
</g>
<!-- Node1&#45;&gt;Node2 -->
<g id="edge1_Node000001_Node000002" class="edge">
<title>Node1&#45;&gt;Node2</title>
<g id="a_edge1_Node000001_Node000002"><a xlink:title=" ">
<path fill="none" stroke="#63b8ff" d="M117.64,-50.35C100.21,-40.84 78.02,-28.74 62.88,-20.48"/>
<polygon fill="#63b8ff" stroke="#63b8ff" points="115.47,-53.15 125.93,-54.87 118.82,-47.01 115.47,-53.15"/>
</a>
</g>
</g>
<!-- Node3 -->
<g id="Node000003" class="node">
<title>Node3</title>
<g id="a_Node000003"><a xlink:href="Thumbs_8cpp.html" target="_top" xlink:title=" ">
<polygon fill="white" stroke="#666666" points="179.5,-20 109.5,-20 109.5,0 179.5,0 179.5,-20"/>
<text xml:space="preserve" text-anchor="middle" x="144.5" y="-6.5" font-family="Helvetica,sans-Serif" font-size="10.00">Thumbs.cpp</text>
</a>
</g>
</g>
<!-- Node1&#45;&gt;Node3 -->
<g id="edge2_Node000001_Node000003" class="edge">
<title>Node1&#45;&gt;Node3</title>
<g id="a_edge2_Node000001_Node000003"><a xlink:title=" ">
<path fill="none" stroke="#63b8ff" d="M144.5,-44.13C144.5,-35.9 144.5,-26.85 144.5,-20.3"/>
<polygon fill="#63b8ff" stroke="#63b8ff" points="141,-44.08 144.5,-54.08 148,-44.08 141,-44.08"/>
</a>
</g>
</g>
<!-- Node4 -->
<g id="Node000004" class="node">
<title>Node4</title>
<g id="a_Node000004"><a xlink:href="main_8cpp.html" target="_top" xlink:title=" ">
<polygon fill="white" stroke="#666666" points="253.38,-20 197.62,-20 197.62,0 253.38,0 253.38,-20"/>
<text xml:space="preserve" text-anchor="middle" x="225.5" y="-6.5" font-family="Helvetica,sans-Serif" font-size="10.00">main.cpp</text>
</a>
</g>
</g>
<!-- Node1&#45;&gt;Node4 -->
<g id="edge3_Node000001_Node000004" class="edge">
<title>Node1&#45;&gt;Node4</title>
<g id="a_edge3_Node000001_Node000004"><a xlink:title=" ">
<path fill="none" stroke="#63b8ff" d="M168.09,-49.27C182.09,-39.94 199.36,-28.43 211.28,-20.48"/>
<polygon fill="#63b8ff" stroke="#63b8ff" points="166.25,-46.3 159.87,-54.75 170.13,-52.12 166.25,-46.3"/>
</a>
</g>
</g>
</g>
</svg>
