<?xml version="1.0" encoding="UTF-8" standalone="no"?>
<!DOCTYPE svg PUBLIC "-//W3C//DTD SVG 1.1//EN"
 "http://www.w3.org/Graphics/SVG/1.1/DTD/svg11.dtd">
<!-- Generated by graphviz version 14.0.2 (20251019.1705)
 -->
<!-- Title: PackageManager.cpp Pages: 1 -->
<svg width="1250pt" height="196pt"
 viewBox="0.00 0.00 1250.00 196.00" xmlns="http://www.w3.org/2000/svg" xmlns:xlink="http://www.w3.org/1999/xlink">
<g id="graph0" class="graph" transform="scale(1 1) rotate(0) translate(4 192)">
<title>PackageManager.cpp</title>
<!-- Node1 -->
<g id="Node000001" class="node">
<title>Node1</title>
<g id="a_Node000001"><a xlink:title=" ">
<polygon fill="#999999" stroke="#666666" points="759.25,-188 648.75,-188 648.75,-168 759.25,-168 759.25,-188"/>
<text xml:space="preserve" text-anchor="middle" x="704" y="-174.5" font-family="Helvetica,sans-Serif" font-size="10.00">PackageManager.cpp</text>
</a>
</g>
</g>
<!-- Node2 -->
<g id="Node000002" class="node">
<title>Node2</title>
<g id="a_Node000002"><a xlink:href="ui_2PackageManager_8h.html" target="_top" xlink:title=" ">
<polygon fill="white" stroke="#666666" points="407.5,-132 274.5,-132 274.5,-112 407.5,-112 407.5,-132"/>
<text xml:space="preserve" text-anchor="middle" x="341" y="-118.5" font-family="Helvetica,sans-Serif" font-size="10.00">LGE/ui/PackageManager.h</text>
</a>
</g>
</g>
<!-- Node1&#45;&gt;Node2 -->
<g id="edge1_Node000001_Node000002" class="edge">
<title>Node1&#45;&gt;Node2</title>
<g id="a_edge1_Node000001_Node000002"><a xlink:title=" ">
<path fill="none" stroke="#63b8ff" d="M648.47,-168.74C586.29,-159.49 485.19,-144.45 416.02,-134.16"/>
<polygon fill="#63b8ff" stroke="#63b8ff" points="416.68,-130.72 406.27,-132.71 415.65,-137.64 416.68,-130.72"/>
</a>
</g>
</g>
<!-- Node3 -->
<g id="Node000003" class="node">
<title>Node3</title>
<g id="a_Node000003"><a xlink:title=" ">
<polygon fill="#e0e0e0" stroke="#999999" points="377,-20 337,-20 337,0 377,0 377,-20"/>
<text xml:space="preserve" text-anchor="middle" x="357" y="-6.5" font-family="Helvetica,sans-Serif" font-size="10.00">string</text>
</a>
</g>
</g>
<!-- Node1&#45;&gt;Node3 -->
<g id="edge32_Node000001_Node000003" class="edge">
<title>Node1&#45;&gt;Node3</title>
<g id="a_edge32_Node000001_Node000003"><a xlink:title=" ">
<path fill="none" stroke="#63b8ff" d="M648.52,-175.37C536.38,-171.5 291.19,-159.91 266,-132 233.89,-96.42 293.7,-50.13 330.77,-26.45"/>
<polygon fill="#63b8ff" stroke="#63b8ff" points="332.59,-29.44 339.24,-21.19 328.9,-23.49 332.59,-29.44"/>
</a>
</g>
</g>
<!-- Node6 -->
<g id="Node000006" class="node">
<title>Node6</title>
<g id="a_Node000006"><a xlink:href="Texture_8h.html" target="_top" xlink:title=" ">
<polygon fill="white" stroke="#666666" points="691.88,-132 570.12,-132 570.12,-112 691.88,-112 691.88,-132"/>
<text xml:space="preserve" text-anchor="middle" x="631" y="-118.5" font-family="Helvetica,sans-Serif" font-size="10.00">LGE/rendering/Texture.h</text>
</a>
</g>
</g>
<!-- Node1&#45;&gt;Node6 -->
<g id="edge5_Node000001_Node000006" class="edge">
<title>Node1&#45;&gt;Node6</title>
<g id="a_edge5_Node000001_Node000006"><a xlink:title=" ">
<path fill="none" stroke="#63b8ff" d="M691.28,-167.59C680.61,-159.7 665.12,-148.24 652.52,-138.92"/>
<polygon fill="#63b8ff" stroke="#63b8ff" points="654.91,-136.33 644.79,-133.2 650.74,-141.96 654.91,-136.33"/>
</a>
</g>
</g>
<!-- Node8 -->
<g id="Node000008" class="node">
<title>Node8</title>
<g id="a_Node000008"><a xlink:href="Log_8h.html" target="_top" xlink:title=" ">
<polygon fill="white" stroke="#666666" points="218.12,-132 133.88,-132 133.88,-112 218.12,-112 218.12,-132"/>
<text xml:space="preserve" text-anchor="middle" x="176" y="-118.5" font-family="Helvetica,sans-Serif" font-size="10.00">LGE/core/Log.h</text>
</a>
</g>
</g>
<!-- Node1&#45;&gt;Node8 -->
<g id="edge8_Node000001_Node000008" class="edge">
<title>Node1&#45;&gt;Node8</title>
<g id="a_edge8_Node000001_Node000008"><a xlink:title=" ">
<path fill="none" stroke="#63b8ff" d="M648.29,-172.86C559.86,-166.01 382.03,-151.19 232,-132 231.18,-131.89 230.35,-131.79 229.51,-131.68"/>
<polygon fill="#63b8ff" stroke="#63b8ff" points="230.35,-128.26 219.96,-130.33 229.37,-135.19 230.35,-128.26"/>
</a>
</g>
</g>
<!-- Node10 -->
<g id="Node000010" class="node">
<title>Node10</title>
<g id="a_Node000010"><a xlink:href="FileSystem_8h.html" target="_top" xlink:title=" ">
<polygon fill="white" stroke="#666666" points="118,-76 0,-76 0,-56 118,-56 118,-76"/>
<text xml:space="preserve" text-anchor="middle" x="59" y="-62.5" font-family="Helvetica,sans-Serif" font-size="10.00">LGE/core/FileSystem.h</text>
</a>
</g>
</g>
<!-- Node1&#45;&gt;Node10 -->
<g id="edge11_Node000001_Node000010" class="edge">
<title>Node1&#45;&gt;Node10</title>
<g id="a_edge11_Node000001_Node000010"><a xlink:title=" ">
<path fill="none" stroke="#63b8ff" d="M648.55,-177.48C522.31,-177.81 217.32,-174.08 125,-132 102.67,-121.82 83.51,-100.69 71.68,-85.27"/>
<polygon fill="#63b8ff" stroke="#63b8ff" points="74.62,-83.37 65.89,-77.36 68.97,-87.5 74.62,-83.37"/>
</a>
</g>
</g>
<!-- Node11 -->
<g id="Node000011" class="node">
<title>Node11</title>
<g id="a_Node000011"><a xlink:href="fs_2PackageManager_8h.html" target="_top" xlink:title=" ">
<polygon fill="white" stroke="#666666" points="843.88,-132 710.12,-132 710.12,-112 843.88,-112 843.88,-132"/>
<text xml:space="preserve" text-anchor="middle" x="777" y="-118.5" font-family="Helvetica,sans-Serif" font-size="10.00">LGE/fs/PackageManager.h</text>
</a>
</g>
</g>
<!-- Node1&#45;&gt;Node11 -->
<g id="edge13_Node000001_Node000011" class="edge">
<title>Node1&#45;&gt;Node11</title>
<g id="a_edge13_Node000001_Node000011"><a xlink:title=" ">
<path fill="none" stroke="#63b8ff" d="M716.72,-167.59C727.39,-159.7 742.88,-148.24 755.48,-138.92"/>
<polygon fill="#63b8ff" stroke="#63b8ff" points="757.26,-141.96 763.21,-133.2 753.09,-136.33 757.26,-141.96"/>
</a>
</g>
</g>
<!-- Node15 -->
<g id="Node000015" class="node">
<title>Node15</title>
<g id="a_Node000015"><a xlink:href="Project_8h.html" target="_top" xlink:title=" ">
<polygon fill="white" stroke="#666666" points="514.38,-132 425.62,-132 425.62,-112 514.38,-112 514.38,-132"/>
<text xml:space="preserve" text-anchor="middle" x="470" y="-118.5" font-family="Helvetica,sans-Serif" font-size="10.00">LGE/fs/Project.h</text>
</a>
</g>
</g>
<!-- Node1&#45;&gt;Node15 -->
<g id="edge22_Node000001_Node000015" class="edge">
<title>Node1&#45;&gt;Node15</title>
<g id="a_edge22_Node000001_Node000015"><a xlink:title=" ">
<path fill="none" stroke="#63b8ff" d="M662.97,-167.53C623.75,-158.48 564.45,-144.8 521.95,-134.99"/>
<polygon fill="#63b8ff" stroke="#63b8ff" points="522.99,-131.64 512.46,-132.8 521.41,-138.46 522.99,-131.64"/>
</a>
</g>
</g>
<!-- Node16 -->
<g id="Node000016" class="node">
<title>Node16</title>
<g id="a_Node000016"><a xlink:title=" ">
<polygon fill="#e0e0e0" stroke="#999999" points="500.5,-76 439.5,-76 439.5,-56 500.5,-56 500.5,-76"/>
<text xml:space="preserve" text-anchor="middle" x="470" y="-62.5" font-family="Helvetica,sans-Serif" font-size="10.00">filesystem</text>
</a>
</g>
</g>
<!-- Node1&#45;&gt;Node16 -->
<g id="edge26_Node000001_Node000016" class="edge">
<title>Node1&#45;&gt;Node16</title>
<g id="a_edge26_Node000001_Node000016"><a xlink:title=" ">
<path fill="none" stroke="#63b8ff" d="M661.98,-167.51C632.75,-160.02 593.38,-148.14 561,-132 534.47,-118.77 507.2,-98.19 489.53,-83.74"/>
<polygon fill="#63b8ff" stroke="#63b8ff" points="491.84,-81.12 481.92,-77.4 487.36,-86.49 491.84,-81.12"/>
</a>
</g>
</g>
<!-- Node17 -->
<g id="Node000017" class="node">
<title>Node17</title>
<g id="a_Node000017"><a xlink:title=" ">
<polygon fill="#e0e0e0" stroke="#999999" points="909.75,-132 862.25,-132 862.25,-112 909.75,-112 909.75,-132"/>
<text xml:space="preserve" text-anchor="middle" x="886" y="-118.5" font-family="Helvetica,sans-Serif" font-size="10.00">imgui.h</text>
</a>
</g>
</g>
<!-- Node1&#45;&gt;Node17 -->
<g id="edge25_Node000001_Node000017" class="edge">
<title>Node1&#45;&gt;Node17</title>
<g id="a_edge25_Node000001_Node000017"><a xlink:title=" ">
<path fill="none" stroke="#63b8ff" d="M735.7,-167.59C768,-158.01 817.96,-143.19 851.3,-133.3"/>
<polygon fill="#63b8ff" stroke="#63b8ff" points="851.88,-136.78 860.47,-130.58 849.89,-130.06 851.88,-136.78"/>
</a>
</g>
</g>
<!-- Node18 -->
<g id="Node000018" class="node">
<title>Node18</title>
<g id="a_Node000018"><a xlink:title=" ">
<polygon fill="#e0e0e0" stroke="#999999" points="983.88,-132 928.12,-132 928.12,-112 983.88,-112 983.88,-132"/>
<text xml:space="preserve" text-anchor="middle" x="956" y="-118.5" font-family="Helvetica,sans-Serif" font-size="10.00">algorithm</text>
</a>
</g>
</g>
<!-- Node1&#45;&gt;Node18 -->
<g id="edge27_Node000001_Node000018" class="edge">
<title>Node1&#45;&gt;Node18</title>
<g id="a_edge27_Node000001_Node000018"><a xlink:title=" ">
<path fill="none" stroke="#63b8ff" d="M751.49,-167.52C792.73,-159.18 854.34,-146.48 916.88,-132.43"/>
<polygon fill="#63b8ff" stroke="#63b8ff" points="917.28,-135.92 926.26,-130.31 915.74,-129.1 917.28,-135.92"/>
</a>
</g>
</g>
<!-- Node19 -->
<g id="Node000019" class="node">
<title>Node19</title>
<g id="a_Node000019"><a xlink:title=" ">
<polygon fill="#e0e0e0" stroke="#999999" points="1047.62,-132 1002.38,-132 1002.38,-112 1047.62,-112 1047.62,-132"/>
<text xml:space="preserve" text-anchor="middle" x="1025" y="-118.5" font-family="Helvetica,sans-Serif" font-size="10.00">cstring</text>
</a>
</g>
</g>
<!-- Node1&#45;&gt;Node19 -->
<g id="edge28_Node000001_Node000019" class="edge">
<title>Node1&#45;&gt;Node19</title>
<g id="a_edge28_Node000001_Node000019"><a xlink:title=" ">
<path fill="none" stroke="#63b8ff" d="M759.5,-170.37C815.55,-163.22 904.8,-150.61 990.97,-132.21"/>
<polygon fill="#63b8ff" stroke="#63b8ff" points="991.5,-135.68 1000.53,-130.14 990.02,-128.84 991.5,-135.68"/>
</a>
</g>
</g>
<!-- Node20 -->
<g id="Node000020" class="node">
<title>Node20</title>
<g id="a_Node000020"><a xlink:title=" ">
<polygon fill="#e0e0e0" stroke="#999999" points="1114.5,-132 1065.5,-132 1065.5,-112 1114.5,-112 1114.5,-132"/>
<text xml:space="preserve" text-anchor="middle" x="1090" y="-118.5" font-family="Helvetica,sans-Serif" font-size="10.00">fstream</text>
</a>
</g>
</g>
<!-- Node1&#45;&gt;Node20 -->
<g id="edge29_Node000001_Node000020" class="edge">
<title>Node1&#45;&gt;Node20</title>
<g id="a_edge29_Node000001_Node000020"><a xlink:title=" ">
<path fill="none" stroke="#63b8ff" d="M759.72,-172.32C827.3,-166.11 944.8,-153.59 1054,-132.37"/>
<polygon fill="#63b8ff" stroke="#63b8ff" points="1054.61,-135.82 1063.74,-130.45 1053.25,-128.95 1054.61,-135.82"/>
</a>
</g>
</g>
<!-- Node21 -->
<g id="Node000021" class="node">
<title>Node21</title>
<g id="a_Node000021"><a xlink:title=" ">
<polygon fill="#e0e0e0" stroke="#999999" points="1183.62,-132 1132.38,-132 1132.38,-112 1183.62,-112 1183.62,-132"/>
<text xml:space="preserve" text-anchor="middle" x="1158" y="-118.5" font-family="Helvetica,sans-Serif" font-size="10.00">sstream</text>
</a>
</g>
</g>
<!-- Node1&#45;&gt;Node21 -->
<g id="edge30_Node000001_Node000021" class="edge">
<title>Node1&#45;&gt;Node21</title>
<g id="a_edge30_Node000001_Node000021"><a xlink:title=" ">
<path fill="none" stroke="#63b8ff" d="M759.42,-173.76C837.94,-168.57 986.17,-156.6 1120.78,-132.36"/>
<polygon fill="#63b8ff" stroke="#63b8ff" points="1121.41,-135.81 1130.61,-130.56 1120.15,-128.92 1121.41,-135.81"/>
</a>
</g>
</g>
<!-- Node22 -->
<g id="Node000022" class="node">
<title>Node22</title>
<g id="a_Node000022"><a xlink:title=" ">
<polygon fill="#e0e0e0" stroke="#999999" points="1242,-132 1202,-132 1202,-112 1242,-112 1242,-132"/>
<text xml:space="preserve" text-anchor="middle" x="1222" y="-118.5" font-family="Helvetica,sans-Serif" font-size="10.00">regex</text>
</a>
</g>
</g>
<!-- Node1&#45;&gt;Node22 -->
<g id="edge31_Node000001_Node000022" class="edge">
<title>Node1&#45;&gt;Node22</title>
<g id="a_edge31_Node000001_Node000022"><a xlink:title=" ">
<path fill="none" stroke="#63b8ff" d="M759.54,-175.66C848.77,-172.69 1029.54,-163.29 1190.48,-132.11"/>
<polygon fill="#63b8ff" stroke="#63b8ff" points="1190.92,-135.59 1200.06,-130.22 1189.57,-128.73 1190.92,-135.59"/>
</a>
</g>
</g>
<!-- Node2&#45;&gt;Node3 -->
<g id="edge2_Node000002_Node000003" class="edge">
<title>Node2&#45;&gt;Node3</title>
<g id="a_edge2_Node000002_Node000003"><a xlink:title=" ">
<path fill="none" stroke="#63b8ff" d="M334.63,-111.66C326.78,-98.96 315.28,-75.57 322,-56 325.47,-45.88 332.25,-36.29 338.92,-28.58"/>
<polygon fill="#63b8ff" stroke="#63b8ff" points="341.46,-30.99 345.75,-21.3 336.35,-26.2 341.46,-30.99"/>
</a>
</g>
</g>
<!-- Node4 -->
<g id="Node000004" class="node">
<title>Node4</title>
<g id="a_Node000004"><a xlink:title=" ">
<polygon fill="#e0e0e0" stroke="#999999" points="561.5,-76 518.5,-76 518.5,-56 561.5,-56 561.5,-76"/>
<text xml:space="preserve" text-anchor="middle" x="540" y="-62.5" font-family="Helvetica,sans-Serif" font-size="10.00">vector</text>
</a>
</g>
</g>
<!-- Node2&#45;&gt;Node4 -->
<g id="edge3_Node000002_Node000004" class="edge">
<title>Node2&#45;&gt;Node4</title>
<g id="a_edge3_Node000002_Node000004"><a xlink:title=" ">
<path fill="none" stroke="#63b8ff" d="M377.68,-111.58C409.63,-103.31 457.47,-90.73 507.12,-76.76"/>
<polygon fill="#63b8ff" stroke="#63b8ff" points="507.94,-80.17 516.61,-74.08 506.04,-73.43 507.94,-80.17"/>
</a>
</g>
</g>
<!-- Node5 -->
<g id="Node000005" class="node">
<title>Node5</title>
<g id="a_Node000005"><a xlink:title=" ">
<polygon fill="#e0e0e0" stroke="#999999" points="382.62,-76 331.38,-76 331.38,-56 382.62,-56 382.62,-76"/>
<text xml:space="preserve" text-anchor="middle" x="357" y="-62.5" font-family="Helvetica,sans-Serif" font-size="10.00">memory</text>
</a>
</g>
</g>
<!-- Node2&#45;&gt;Node5 -->
<g id="edge4_Node000002_Node000005" class="edge">
<title>Node2&#45;&gt;Node5</title>
<g id="a_edge4_Node000002_Node000005"><a xlink:title=" ">
<path fill="none" stroke="#63b8ff" d="M343.79,-111.59C345.78,-104.86 348.55,-95.53 351.03,-87.15"/>
<polygon fill="#63b8ff" stroke="#63b8ff" points="354.33,-88.33 353.81,-77.75 347.62,-86.34 354.33,-88.33"/>
</a>
</g>
</g>
<!-- Node6&#45;&gt;Node3 -->
<g id="edge7_Node000006_Node000003" class="edge">
<title>Node6&#45;&gt;Node3</title>
<g id="a_edge7_Node000006_Node000003"><a xlink:title=" ">
<path fill="none" stroke="#63b8ff" d="M625.26,-111.78C615.82,-97.43 595.57,-69.95 571,-56 512.45,-22.76 432.33,-13.98 388.62,-11.72"/>
<polygon fill="#63b8ff" stroke="#63b8ff" points="388.96,-8.23 378.82,-11.31 388.66,-15.23 388.96,-8.23"/>
</a>
</g>
</g>
<!-- Node7 -->
<g id="Node000007" class="node">
<title>Node7</title>
<g id="a_Node000007"><a xlink:title=" ">
<polygon fill="#e0e0e0" stroke="#999999" points="663.62,-76 618.38,-76 618.38,-56 663.62,-56 663.62,-76"/>
<text xml:space="preserve" text-anchor="middle" x="641" y="-62.5" font-family="Helvetica,sans-Serif" font-size="10.00">cstdint</text>
</a>
</g>
</g>
<!-- Node6&#45;&gt;Node7 -->
<g id="edge6_Node000006_Node000007" class="edge">
<title>Node6&#45;&gt;Node7</title>
<g id="a_edge6_Node000006_Node000007"><a xlink:title=" ">
<path fill="none" stroke="#63b8ff" d="M632.74,-111.59C633.98,-104.93 635.68,-95.75 637.21,-87.44"/>
<polygon fill="#63b8ff" stroke="#63b8ff" points="640.62,-88.26 639,-77.79 633.74,-86.98 640.62,-88.26"/>
</a>
</g>
</g>
<!-- Node8&#45;&gt;Node3 -->
<g id="edge10_Node000008_Node000003" class="edge">
<title>Node8&#45;&gt;Node3</title>
<g id="a_edge10_Node000008_Node000003"><a xlink:title=" ">
<path fill="none" stroke="#63b8ff" d="M183.2,-111.84C194.44,-98.06 217.44,-71.93 242,-56 268.12,-39.06 301.62,-26.85 325.71,-19.47"/>
<polygon fill="#63b8ff" stroke="#63b8ff" points="326.66,-22.84 335.26,-16.66 324.68,-16.12 326.66,-22.84"/>
</a>
</g>
</g>
<!-- Node9 -->
<g id="Node000009" class="node">
<title>Node9</title>
<g id="a_Node000009"><a xlink:title=" ">
<polygon fill="#e0e0e0" stroke="#999999" points="189.75,-76 136.25,-76 136.25,-56 189.75,-56 189.75,-76"/>
<text xml:space="preserve" text-anchor="middle" x="163" y="-62.5" font-family="Helvetica,sans-Serif" font-size="10.00">iostream</text>
</a>
</g>
</g>
<!-- Node8&#45;&gt;Node9 -->
<g id="edge9_Node000008_Node000009" class="edge">
<title>Node8&#45;&gt;Node9</title>
<g id="a_edge9_Node000008_Node000009"><a xlink:title=" ">
<path fill="none" stroke="#63b8ff" d="M173.74,-111.59C172.13,-104.93 169.92,-95.75 167.92,-87.44"/>
<polygon fill="#63b8ff" stroke="#63b8ff" points="171.34,-86.67 165.59,-77.77 164.53,-88.31 171.34,-86.67"/>
</a>
</g>
</g>
<!-- Node10&#45;&gt;Node3 -->
<g id="edge12_Node000010_Node000003" class="edge">
<title>Node10&#45;&gt;Node3</title>
<g id="a_edge12_Node000010_Node000003"><a xlink:title=" ">
<path fill="none" stroke="#63b8ff" d="M111.25,-55.53C173.22,-44.3 274.52,-25.95 325.54,-16.7"/>
<polygon fill="#63b8ff" stroke="#63b8ff" points="326.09,-20.16 335.31,-14.93 324.84,-13.27 326.09,-20.16"/>
</a>
</g>
</g>
<!-- Node11&#45;&gt;Node3 -->
<g id="edge17_Node000011_Node000003" class="edge">
<title>Node11&#45;&gt;Node3</title>
<g id="a_edge17_Node000011_Node000003"><a xlink:title=" ">
<path fill="none" stroke="#63b8ff" d="M763.62,-111.65C740.08,-95.38 692,-62.94 673,-56 573.62,-19.72 446.71,-12.53 388.61,-11.21"/>
<polygon fill="#63b8ff" stroke="#63b8ff" points="388.87,-7.72 378.81,-11.04 388.75,-14.71 388.87,-7.72"/>
</a>
</g>
</g>
<!-- Node11&#45;&gt;Node4 -->
<g id="edge19_Node000011_Node000004" class="edge">
<title>Node11&#45;&gt;Node4</title>
<g id="a_edge19_Node000011_Node000004"><a xlink:title=" ">
<path fill="none" stroke="#63b8ff" d="M735.45,-111.53C689.21,-101 615.45,-84.19 573,-74.52"/>
<polygon fill="#63b8ff" stroke="#63b8ff" points="573.91,-71.14 563.38,-72.33 572.35,-77.96 573.91,-71.14"/>
</a>
</g>
</g>
<!-- Node11&#45;&gt;Node7 -->
<g id="edge20_Node000011_Node000007" class="edge">
<title>Node11&#45;&gt;Node7</title>
<g id="a_edge20_Node000011_Node000007"><a xlink:title=" ">
<path fill="none" stroke="#63b8ff" d="M753.31,-111.59C731.53,-102.95 699.01,-90.03 674.56,-80.33"/>
<polygon fill="#63b8ff" stroke="#63b8ff" points="675.96,-77.11 665.37,-76.68 673.37,-83.62 675.96,-77.11"/>
</a>
</g>
</g>
<!-- Node12 -->
<g id="Node000012" class="node">
<title>Node12</title>
<g id="a_Node000012"><a xlink:href="FileIO_8h.html" target="_top" xlink:title=" ">
<polygon fill="white" stroke="#666666" points="804.12,-76 719.88,-76 719.88,-56 804.12,-56 804.12,-76"/>
<text xml:space="preserve" text-anchor="middle" x="762" y="-62.5" font-family="Helvetica,sans-Serif" font-size="10.00">LGE/fs/FileIO.h</text>
</a>
</g>
</g>
<!-- Node11&#45;&gt;Node12 -->
<g id="edge14_Node000011_Node000012" class="edge">
<title>Node11&#45;&gt;Node12</title>
<g id="a_edge14_Node000011_Node000012"><a xlink:title=" ">
<path fill="none" stroke="#63b8ff" d="M774.39,-111.59C772.52,-104.86 769.93,-95.53 767.6,-87.15"/>
<polygon fill="#63b8ff" stroke="#63b8ff" points="771.04,-86.46 764.99,-77.76 764.29,-88.33 771.04,-86.46"/>
</a>
</g>
</g>
<!-- Node13 -->
<g id="Node000013" class="node">
<title>Node13</title>
<g id="a_Node000013"><a xlink:title=" ">
<polygon fill="#e0e0e0" stroke="#999999" points="829.75,-20 764.25,-20 764.25,0 829.75,0 829.75,-20"/>
<text xml:space="preserve" text-anchor="middle" x="797" y="-6.5" font-family="Helvetica,sans-Serif" font-size="10.00">string_view</text>
</a>
</g>
</g>
<!-- Node11&#45;&gt;Node13 -->
<g id="edge18_Node000011_Node000013" class="edge">
<title>Node11&#45;&gt;Node13</title>
<g id="a_edge18_Node000011_Node000013"><a xlink:title=" ">
<path fill="none" stroke="#63b8ff" d="M787.85,-111.53C796.53,-103.18 808.03,-90.16 813,-76 818.24,-61.07 813.38,-43.64 807.68,-30.59"/>
<polygon fill="#63b8ff" stroke="#63b8ff" points="810.91,-29.22 803.36,-21.78 804.62,-32.3 810.91,-29.22"/>
</a>
</g>
</g>
<!-- Node14 -->
<g id="Node000014" class="node">
<title>Node14</title>
<g id="a_Node000014"><a xlink:title=" ">
<polygon fill="#e0e0e0" stroke="#999999" points="909.88,-76 860.12,-76 860.12,-56 909.88,-56 909.88,-76"/>
<text xml:space="preserve" text-anchor="middle" x="885" y="-62.5" font-family="Helvetica,sans-Serif" font-size="10.00">optional</text>
</a>
</g>
</g>
<!-- Node11&#45;&gt;Node14 -->
<g id="edge21_Node000011_Node000014" class="edge">
<title>Node11&#45;&gt;Node14</title>
<g id="a_edge21_Node000011_Node000014"><a xlink:title=" ">
<path fill="none" stroke="#63b8ff" d="M795.81,-111.59C812.36,-103.32 836.71,-91.14 855.79,-81.6"/>
<polygon fill="#63b8ff" stroke="#63b8ff" points="857.31,-84.76 864.69,-77.16 854.18,-78.5 857.31,-84.76"/>
</a>
</g>
</g>
<!-- Node12&#45;&gt;Node3 -->
<g id="edge15_Node000012_Node000003" class="edge">
<title>Node12&#45;&gt;Node3</title>
<g id="a_edge15_Node000012_Node000003"><a xlink:title=" ">
<path fill="none" stroke="#63b8ff" d="M719.52,-58.03C714.96,-57.32 710.39,-56.63 706,-56 589.23,-39.09 450.02,-22.09 388.69,-14.75"/>
<polygon fill="#63b8ff" stroke="#63b8ff" points="389.33,-11.3 378.99,-13.59 388.5,-18.25 389.33,-11.3"/>
</a>
</g>
</g>
<!-- Node12&#45;&gt;Node13 -->
<g id="edge16_Node000012_Node000013" class="edge">
<title>Node12&#45;&gt;Node13</title>
<g id="a_edge16_Node000012_Node000013"><a xlink:title=" ">
<path fill="none" stroke="#63b8ff" d="M768.1,-55.59C772.71,-48.47 779.21,-38.45 784.87,-29.72"/>
<polygon fill="#63b8ff" stroke="#63b8ff" points="787.65,-31.86 790.15,-21.57 781.77,-28.06 787.65,-31.86"/>
</a>
</g>
</g>
<!-- Node15&#45;&gt;Node3 -->
<g id="edge23_Node000015_Node000003" class="edge">
<title>Node15&#45;&gt;Node3</title>
<g id="a_edge23_Node000015_Node000003"><a xlink:title=" ">
<path fill="none" stroke="#63b8ff" d="M460.37,-111.62C441.35,-93.11 398.75,-51.65 374.6,-28.13"/>
<polygon fill="#63b8ff" stroke="#63b8ff" points="377.3,-25.88 367.69,-21.41 372.42,-30.89 377.3,-25.88"/>
</a>
</g>
</g>
<!-- Node15&#45;&gt;Node16 -->
<g id="edge24_Node000015_Node000016" class="edge">
<title>Node15&#45;&gt;Node16</title>
<g id="a_edge24_Node000015_Node000016"><a xlink:title=" ">
<path fill="none" stroke="#63b8ff" d="M470,-111.59C470,-105.01 470,-95.96 470,-87.73"/>
<polygon fill="#63b8ff" stroke="#63b8ff" points="473.5,-87.81 470,-77.81 466.5,-87.81 473.5,-87.81"/>
</a>
</g>
</g>
</g>
</svg>
