<?xml version="1.0" encoding="UTF-8" standalone="no"?>
<!DOCTYPE svg PUBLIC "-//W3C//DTD SVG 1.1//EN"
 "http://www.w3.org/Graphics/SVG/1.1/DTD/svg11.dtd">
<!-- Generated by graphviz version 14.0.2 (20251019.1705)
 -->
<!-- Title: UI.cpp Pages: 1 -->
<svg width="983pt" height="140pt"
 viewBox="0.00 0.00 983.00 140.00" xmlns="http://www.w3.org/2000/svg" xmlns:xlink="http://www.w3.org/1999/xlink">
<g id="graph0" class="graph" transform="scale(1 1) rotate(0) translate(4 136)">
<title>UI.cpp</title>
<!-- Node1 -->
<g id="Node000001" class="node">
<title>Node1</title>
<g id="a_Node000001"><a xlink:title=" ">
<polygon fill="#999999" stroke="#666666" points="504.5,-132 459.25,-132 459.25,-112 504.5,-112 504.5,-132"/>
<text xml:space="preserve" text-anchor="middle" x="481.88" y="-118.5" font-family="Helvetica,sans-Serif" font-size="10.00">UI.cpp</text>
</a>
</g>
</g>
<!-- Node2 -->
<g id="Node000002" class="node">
<title>Node2</title>
<g id="a_Node000002"><a xlink:href="UI_8h.html" target="_top" xlink:title=" ">
<polygon fill="white" stroke="#666666" points="67.75,-76 0,-76 0,-56 67.75,-56 67.75,-76"/>
<text xml:space="preserve" text-anchor="middle" x="33.88" y="-62.5" font-family="Helvetica,sans-Serif" font-size="10.00">LGE/ui/UI.h</text>
</a>
</g>
</g>
<!-- Node1&#45;&gt;Node2 -->
<g id="edge1_Node000001_Node000002" class="edge">
<title>Node1&#45;&gt;Node2</title>
<g id="a_edge1_Node000001_Node000002"><a xlink:title=" ">
<path fill="none" stroke="#63b8ff" d="M458.94,-119.23C398.54,-114.39 229.99,-99.85 79.36,-76.26"/>
<polygon fill="#63b8ff" stroke="#63b8ff" points="80.01,-72.82 69.58,-74.71 78.91,-79.73 80.01,-72.82"/>
</a>
</g>
</g>
<!-- Node4 -->
<g id="Node000004" class="node">
<title>Node4</title>
<g id="a_Node000004"><a xlink:href="UITheme_8h.html" target="_top" xlink:title=" ">
<polygon fill="white" stroke="#666666" points="183.75,-76 86,-76 86,-56 183.75,-56 183.75,-76"/>
<text xml:space="preserve" text-anchor="middle" x="134.88" y="-62.5" font-family="Helvetica,sans-Serif" font-size="10.00">LGE/ui/UITheme.h</text>
</a>
</g>
</g>
<!-- Node1&#45;&gt;Node4 -->
<g id="edge3_Node000001_Node000004" class="edge">
<title>Node1&#45;&gt;Node4</title>
<g id="a_edge3_Node000001_Node000004"><a xlink:title=" ">
<path fill="none" stroke="#63b8ff" d="M458.84,-117.42C405.75,-109.15 273.36,-88.55 195.24,-76.39"/>
<polygon fill="#63b8ff" stroke="#63b8ff" points="196.03,-72.98 185.62,-74.9 194.96,-79.89 196.03,-72.98"/>
</a>
</g>
</g>
<!-- Node5 -->
<g id="Node000005" class="node">
<title>Node5</title>
<g id="a_Node000005"><a xlink:href="Window_8h.html" target="_top" xlink:title=" ">
<polygon fill="white" stroke="#666666" points="343.38,-76 240.38,-76 240.38,-56 343.38,-56 343.38,-76"/>
<text xml:space="preserve" text-anchor="middle" x="291.88" y="-62.5" font-family="Helvetica,sans-Serif" font-size="10.00">LGE/core/Window.h</text>
</a>
</g>
</g>
<!-- Node1&#45;&gt;Node5 -->
<g id="edge4_Node000001_Node000005" class="edge">
<title>Node1&#45;&gt;Node5</title>
<g id="a_edge4_Node000001_Node000005"><a xlink:title=" ">
<path fill="none" stroke="#63b8ff" d="M458.96,-114.49C428.59,-105.86 374.4,-90.45 335.97,-79.53"/>
<polygon fill="#63b8ff" stroke="#63b8ff" points="337.12,-76.22 326.55,-76.85 335.21,-82.95 337.12,-76.22"/>
</a>
</g>
</g>
<!-- Node6 -->
<g id="Node000006" class="node">
<title>Node6</title>
<g id="a_Node000006"><a xlink:title=" ">
<polygon fill="#e0e0e0" stroke="#999999" points="237.88,-20 197.88,-20 197.88,0 237.88,0 237.88,-20"/>
<text xml:space="preserve" text-anchor="middle" x="217.88" y="-6.5" font-family="Helvetica,sans-Serif" font-size="10.00">string</text>
</a>
</g>
</g>
<!-- Node1&#45;&gt;Node6 -->
<g id="edge10_Node000001_Node000006" class="edge">
<title>Node1&#45;&gt;Node6</title>
<g id="a_edge10_Node000001_Node000006"><a xlink:title=" ">
<path fill="none" stroke="#63b8ff" d="M459.12,-120.05C403.77,-117.28 264.22,-107.26 231.88,-76 220.19,-64.71 217.12,-46.18 216.73,-31.79"/>
<polygon fill="#63b8ff" stroke="#63b8ff" points="220.22,-32.07 216.9,-22.01 213.23,-31.95 220.22,-32.07"/>
</a>
</g>
</g>
<!-- Node8 -->
<g id="Node000008" class="node">
<title>Node8</title>
<g id="a_Node000008"><a xlink:title=" ">
<polygon fill="#e0e0e0" stroke="#999999" points="424.5,-76 361.25,-76 361.25,-56 424.5,-56 424.5,-76"/>
<text xml:space="preserve" text-anchor="middle" x="392.88" y="-62.5" font-family="Helvetica,sans-Serif" font-size="10.00">glad/glad.h</text>
</a>
</g>
</g>
<!-- Node1&#45;&gt;Node8 -->
<g id="edge7_Node000001_Node000008" class="edge">
<title>Node1&#45;&gt;Node8</title>
<g id="a_edge7_Node000001_Node000008"><a xlink:title=" ">
<path fill="none" stroke="#63b8ff" d="M466.37,-111.59C453.05,-103.51 433.6,-91.71 418.05,-82.27"/>
<polygon fill="#63b8ff" stroke="#63b8ff" points="420.16,-79.46 409.79,-77.26 416.53,-85.44 420.16,-79.46"/>
</a>
</g>
</g>
<!-- Node9 -->
<g id="Node000009" class="node">
<title>Node9</title>
<g id="a_Node000009"><a xlink:title=" ">
<polygon fill="#e0e0e0" stroke="#999999" points="521.38,-76 442.38,-76 442.38,-56 521.38,-56 521.38,-76"/>
<text xml:space="preserve" text-anchor="middle" x="481.88" y="-62.5" font-family="Helvetica,sans-Serif" font-size="10.00">GLFW/glfw3.h</text>
</a>
</g>
</g>
<!-- Node1&#45;&gt;Node9 -->
<g id="edge8_Node000001_Node000009" class="edge">
<title>Node1&#45;&gt;Node9</title>
<g id="a_edge8_Node000001_Node000009"><a xlink:title=" ">
<path fill="none" stroke="#63b8ff" d="M481.88,-111.59C481.88,-105.01 481.88,-95.96 481.88,-87.73"/>
<polygon fill="#63b8ff" stroke="#63b8ff" points="485.38,-87.81 481.88,-77.81 478.38,-87.81 485.38,-87.81"/>
</a>
</g>
</g>
<!-- Node10 -->
<g id="Node000010" class="node">
<title>Node10</title>
<g id="a_Node000010"><a xlink:title=" ">
<polygon fill="#e0e0e0" stroke="#999999" points="582.38,-76 539.38,-76 539.38,-56 582.38,-56 582.38,-76"/>
<text xml:space="preserve" text-anchor="middle" x="560.88" y="-62.5" font-family="Helvetica,sans-Serif" font-size="10.00">vector</text>
</a>
</g>
</g>
<!-- Node1&#45;&gt;Node10 -->
<g id="edge9_Node000001_Node000010" class="edge">
<title>Node1&#45;&gt;Node10</title>
<g id="a_edge9_Node000001_Node000010"><a xlink:title=" ">
<path fill="none" stroke="#63b8ff" d="M495.64,-111.59C507.23,-103.67 524.07,-92.16 537.74,-82.82"/>
<polygon fill="#63b8ff" stroke="#63b8ff" points="539.48,-85.87 545.76,-77.33 535.53,-80.09 539.48,-85.87"/>
</a>
</g>
</g>
<!-- Node11 -->
<g id="Node000011" class="node">
<title>Node11</title>
<g id="a_Node000011"><a xlink:title=" ">
<polygon fill="#e0e0e0" stroke="#999999" points="647.62,-76 600.12,-76 600.12,-56 647.62,-56 647.62,-76"/>
<text xml:space="preserve" text-anchor="middle" x="623.88" y="-62.5" font-family="Helvetica,sans-Serif" font-size="10.00">imgui.h</text>
</a>
</g>
</g>
<!-- Node1&#45;&gt;Node11 -->
<g id="edge11_Node000001_Node000011" class="edge">
<title>Node1&#45;&gt;Node11</title>
<g id="a_edge11_Node000001_Node000011"><a xlink:title=" ">
<path fill="none" stroke="#63b8ff" d="M504.69,-112.32C527.46,-103.66 562.76,-90.24 589.04,-80.25"/>
<polygon fill="#63b8ff" stroke="#63b8ff" points="590.17,-83.56 598.28,-76.73 587.69,-77.02 590.17,-83.56"/>
</a>
</g>
</g>
<!-- Node12 -->
<g id="Node000012" class="node">
<title>Node12</title>
<g id="a_Node000012"><a xlink:title=" ">
<polygon fill="#e0e0e0" stroke="#999999" points="758.5,-76 665.25,-76 665.25,-56 758.5,-56 758.5,-76"/>
<text xml:space="preserve" text-anchor="middle" x="711.88" y="-62.5" font-family="Helvetica,sans-Serif" font-size="10.00">imgui_impl_glfw.h</text>
</a>
</g>
</g>
<!-- Node1&#45;&gt;Node12 -->
<g id="edge12_Node000001_Node000012" class="edge">
<title>Node1&#45;&gt;Node12</title>
<g id="a_edge12_Node000001_Node000012"><a xlink:title=" ">
<path fill="none" stroke="#63b8ff" d="M504.77,-115.62C540.93,-107.14 612.14,-90.42 660.87,-78.98"/>
<polygon fill="#63b8ff" stroke="#63b8ff" points="661.41,-82.44 670.34,-76.75 659.81,-75.63 661.41,-82.44"/>
</a>
</g>
</g>
<!-- Node13 -->
<g id="Node000013" class="node">
<title>Node13</title>
<g id="a_Node000013"><a xlink:title=" ">
<polygon fill="#e0e0e0" stroke="#999999" points="886.75,-76 777,-76 777,-56 886.75,-56 886.75,-76"/>
<text xml:space="preserve" text-anchor="middle" x="831.88" y="-62.5" font-family="Helvetica,sans-Serif" font-size="10.00">imgui_impl_opengl3.h</text>
</a>
</g>
</g>
<!-- Node1&#45;&gt;Node13 -->
<g id="edge13_Node000001_Node000013" class="edge">
<title>Node1&#45;&gt;Node13</title>
<g id="a_edge13_Node000001_Node000013"><a xlink:title=" ">
<path fill="none" stroke="#63b8ff" d="M504.84,-117.46C556.95,-109.42 685.78,-89.54 765.31,-77.27"/>
<polygon fill="#63b8ff" stroke="#63b8ff" points="765.82,-80.73 775.17,-75.75 764.76,-73.81 765.82,-80.73"/>
</a>
</g>
</g>
<!-- Node14 -->
<g id="Node000014" class="node">
<title>Node14</title>
<g id="a_Node000014"><a xlink:title=" ">
<polygon fill="#e0e0e0" stroke="#999999" points="974.5,-76 905.25,-76 905.25,-56 974.5,-56 974.5,-76"/>
<text xml:space="preserve" text-anchor="middle" x="939.88" y="-62.5" font-family="Helvetica,sans-Serif" font-size="10.00">ImGuizmo.h</text>
</a>
</g>
</g>
<!-- Node1&#45;&gt;Node14 -->
<g id="edge14_Node000001_Node000014" class="edge">
<title>Node1&#45;&gt;Node14</title>
<g id="a_edge14_Node000001_Node000014"><a xlink:title=" ">
<path fill="none" stroke="#63b8ff" d="M504.86,-119.26C566.25,-114.46 739.28,-99.87 893.77,-76.19"/>
<polygon fill="#63b8ff" stroke="#63b8ff" points="894.02,-79.69 903.37,-74.7 892.95,-72.78 894.02,-79.69"/>
</a>
</g>
</g>
<!-- Node3 -->
<g id="Node000003" class="node">
<title>Node3</title>
<g id="a_Node000003"><a xlink:title=" ">
<polygon fill="#e0e0e0" stroke="#999999" points="56.5,-20 11.25,-20 11.25,0 56.5,0 56.5,-20"/>
<text xml:space="preserve" text-anchor="middle" x="33.88" y="-6.5" font-family="Helvetica,sans-Serif" font-size="10.00">cstdint</text>
</a>
</g>
</g>
<!-- Node2&#45;&gt;Node3 -->
<g id="edge2_Node000002_Node000003" class="edge">
<title>Node2&#45;&gt;Node3</title>
<g id="a_edge2_Node000002_Node000003"><a xlink:title=" ">
<path fill="none" stroke="#63b8ff" d="M33.88,-55.59C33.88,-49.01 33.88,-39.96 33.88,-31.73"/>
<polygon fill="#63b8ff" stroke="#63b8ff" points="37.38,-31.81 33.88,-21.81 30.38,-31.81 37.38,-31.81"/>
</a>
</g>
</g>
<!-- Node5&#45;&gt;Node6 -->
<g id="edge5_Node000005_Node000006" class="edge">
<title>Node5&#45;&gt;Node6</title>
<g id="a_edge5_Node000005_Node000006"><a xlink:title=" ">
<path fill="none" stroke="#63b8ff" d="M278.99,-55.59C268.16,-47.7 252.46,-36.24 239.69,-26.92"/>
<polygon fill="#63b8ff" stroke="#63b8ff" points="241.98,-24.26 231.84,-21.19 237.85,-29.91 241.98,-24.26"/>
</a>
</g>
</g>
<!-- Node7 -->
<g id="Node000007" class="node">
<title>Node7</title>
<g id="a_Node000007"><a xlink:title=" ">
<polygon fill="#e0e0e0" stroke="#999999" points="320.88,-20 262.88,-20 262.88,0 320.88,0 320.88,-20"/>
<text xml:space="preserve" text-anchor="middle" x="291.88" y="-6.5" font-family="Helvetica,sans-Serif" font-size="10.00">functional</text>
</a>
</g>
</g>
<!-- Node5&#45;&gt;Node7 -->
<g id="edge6_Node000005_Node000007" class="edge">
<title>Node5&#45;&gt;Node7</title>
<g id="a_edge6_Node000005_Node000007"><a xlink:title=" ">
<path fill="none" stroke="#63b8ff" d="M291.88,-55.59C291.88,-49.01 291.88,-39.96 291.88,-31.73"/>
<polygon fill="#63b8ff" stroke="#63b8ff" points="295.38,-31.81 291.88,-21.81 288.38,-31.81 295.38,-31.81"/>
</a>
</g>
</g>
</g>
</svg>
