<?xml version="1.0" encoding="UTF-8" standalone="no"?>
<!DOCTYPE svg PUBLIC "-//W3C//DTD SVG 1.1//EN"
 "http://www.w3.org/Graphics/SVG/1.1/DTD/svg11.dtd">
<!-- Generated by graphviz version 14.0.2 (20251019.1705)
 -->
<!-- Title: Vector.h Pages: 1 -->
<svg width="1304pt" height="252pt"
 viewBox="0.00 0.00 1304.00 252.00" xmlns="http://www.w3.org/2000/svg" xmlns:xlink="http://www.w3.org/1999/xlink">
<g id="graph0" class="graph" transform="scale(1 1) rotate(0) translate(4 248)">
<title>Vector.h</title>
<!-- Node1 -->
<g id="Node000001" class="node">
<title>Node1</title>
<g id="a_Node000001"><a xlink:title=" ">
<polygon fill="#999999" stroke="#666666" points="771.02,-244 719.02,-244 719.02,-224 771.02,-224 771.02,-244"/>
<text xml:space="preserve" text-anchor="middle" x="745.02" y="-230.5" font-family="Helvetica,sans-Serif" font-size="10.00">Vector.h</text>
</a>
</g>
</g>
<!-- Node2 -->
<g id="Node000002" class="node">
<title>Node2</title>
<g id="a_Node000002"><a xlink:href="Camera_8h.html" target="_top" xlink:title=" ">
<polygon fill="white" stroke="#666666" points="443.4,-132 384.65,-132 384.65,-112 443.4,-112 443.4,-132"/>
<text xml:space="preserve" text-anchor="middle" x="414.02" y="-118.5" font-family="Helvetica,sans-Serif" font-size="10.00">Camera.h</text>
</a>
</g>
</g>
<!-- Node1&#45;&gt;Node2 -->
<g id="edge1_Node000001_Node000002" class="edge">
<title>Node1&#45;&gt;Node2</title>
<g id="a_edge1_Node000001_Node000002"><a xlink:title=" ">
<path fill="none" stroke="#63b8ff" d="M707.88,-223.45C675.49,-214.9 627.33,-201.62 586.02,-188 532.06,-170.2 469.99,-145.73 437.17,-132.47"/>
<polygon fill="#63b8ff" stroke="#63b8ff" points="706.63,-226.74 717.19,-225.89 708.4,-219.97 706.63,-226.74"/>
</a>
</g>
</g>
<!-- Node5 -->
<g id="Node000005" class="node">
<title>Node5</title>
<g id="a_Node000005"><a xlink:href="CameraController_8cpp.html" target="_top" xlink:title=" ">
<polygon fill="white" stroke="#666666" points="158.65,-20 47.4,-20 47.4,0 158.65,0 158.65,-20"/>
<text xml:space="preserve" text-anchor="middle" x="103.02" y="-6.5" font-family="Helvetica,sans-Serif" font-size="10.00">CameraController.cpp</text>
</a>
</g>
</g>
<!-- Node1&#45;&gt;Node5 -->
<g id="edge9_Node000001_Node000005" class="edge">
<title>Node1&#45;&gt;Node5</title>
<g id="a_edge9_Node000001_Node000005"><a xlink:title=" ">
<path fill="none" stroke="#63b8ff" d="M707.33,-232.95C585.56,-232.39 203.89,-227.45 88.02,-188 40.37,-171.77 -15.01,-158.61 4.02,-112 21.2,-69.95 65.25,-35.93 88.37,-20.29"/>
<polygon fill="#63b8ff" stroke="#63b8ff" points="707.09,-236.45 717.1,-232.99 707.11,-229.45 707.09,-236.45"/>
</a>
</g>
</g>
<!-- Node7 -->
<g id="Node000007" class="node">
<title>Node7</title>
<g id="a_Node000007"><a xlink:href="SceneViewport_8cpp.html" target="_top" xlink:title=" ">
<polygon fill="white" stroke="#666666" points="677.4,-76 576.65,-76 576.65,-56 677.4,-56 677.4,-76"/>
<text xml:space="preserve" text-anchor="middle" x="627.02" y="-62.5" font-family="Helvetica,sans-Serif" font-size="10.00">SceneViewport.cpp</text>
</a>
</g>
</g>
<!-- Node1&#45;&gt;Node7 -->
<g id="edge41_Node000001_Node000007" class="edge">
<title>Node1&#45;&gt;Node7</title>
<g id="a_edge41_Node000001_Node000007"><a xlink:title=" ">
<path fill="none" stroke="#63b8ff" d="M748.63,-212.63C752.04,-186.63 753.82,-141.5 732.02,-112 718.65,-93.9 696.49,-83 675.97,-76.48"/>
<polygon fill="#63b8ff" stroke="#63b8ff" points="745.21,-211.79 747.15,-222.21 752.13,-212.86 745.21,-211.79"/>
</a>
</g>
</g>
<!-- Node9 -->
<g id="Node000009" class="node">
<title>Node9</title>
<g id="a_Node000009"><a xlink:href="DirectionalLight_8h.html" target="_top" xlink:title=" ">
<polygon fill="white" stroke="#666666" points="188.9,-188 97.15,-188 97.15,-168 188.9,-168 188.9,-188"/>
<text xml:space="preserve" text-anchor="middle" x="143.02" y="-174.5" font-family="Helvetica,sans-Serif" font-size="10.00">DirectionalLight.h</text>
</a>
</g>
</g>
<!-- Node1&#45;&gt;Node9 -->
<g id="edge10_Node000001_Node000009" class="edge">
<title>Node1&#45;&gt;Node9</title>
<g id="a_edge10_Node000001_Node000009"><a xlink:title=" ">
<path fill="none" stroke="#63b8ff" d="M707.48,-229.63C602.19,-220.19 304.34,-193.47 189.23,-183.14"/>
<polygon fill="#63b8ff" stroke="#63b8ff" points="706.99,-233.1 717.26,-230.51 707.62,-226.13 706.99,-233.1"/>
</a>
</g>
</g>
<!-- Node11 -->
<g id="Node000011" class="node">
<title>Node11</title>
<g id="a_Node000011"><a xlink:href="GameObject_8h.html" target="_top" xlink:title=" ">
<polygon fill="white" stroke="#666666" points="880.52,-132 801.52,-132 801.52,-112 880.52,-112 880.52,-132"/>
<text xml:space="preserve" text-anchor="middle" x="841.02" y="-118.5" font-family="Helvetica,sans-Serif" font-size="10.00">GameObject.h</text>
</a>
</g>
</g>
<!-- Node1&#45;&gt;Node11 -->
<g id="edge13_Node000001_Node000011" class="edge">
<title>Node1&#45;&gt;Node11</title>
<g id="a_edge13_Node000001_Node000011"><a xlink:title=" ">
<path fill="none" stroke="#63b8ff" d="M761.61,-215.7C769.43,-207.42 778.83,-197.31 787.02,-188 804.09,-168.62 823.21,-145.17 833.5,-132.4"/>
<polygon fill="#63b8ff" stroke="#63b8ff" points="759.27,-213.08 754.91,-222.74 764.34,-217.91 759.27,-213.08"/>
</a>
</g>
</g>
<!-- Node14 -->
<g id="Node000014" class="node">
<title>Node14</title>
<g id="a_Node000014"><a xlink:href="Inspector_8cpp.html" target="_top" xlink:title=" ">
<polygon fill="white" stroke="#666666" points="1141.65,-20 1066.4,-20 1066.4,0 1141.65,0 1141.65,-20"/>
<text xml:space="preserve" text-anchor="middle" x="1104.02" y="-6.5" font-family="Helvetica,sans-Serif" font-size="10.00">Inspector.cpp</text>
</a>
</g>
</g>
<!-- Node1&#45;&gt;Node14 -->
<g id="edge20_Node000001_Node000014" class="edge">
<title>Node1&#45;&gt;Node14</title>
<g id="a_edge20_Node000001_Node000014"><a xlink:title=" ">
<path fill="none" stroke="#63b8ff" d="M782.82,-230.75C868.03,-225.34 1072.79,-210.37 1138.02,-188 1218.08,-160.54 1257.66,-153.34 1292.02,-76 1295.63,-67.88 1297.53,-62.98 1292.02,-56 1273.68,-32.75 1191.27,-20.17 1141.85,-14.6"/>
<polygon fill="#63b8ff" stroke="#63b8ff" points="782.65,-227.25 772.89,-231.37 783.09,-234.24 782.65,-227.25"/>
</a>
</g>
</g>
<!-- Node16 -->
<g id="Node000016" class="node">
<title>Node16</title>
<g id="a_Node000016"><a xlink:href="Material_8h.html" target="_top" xlink:title=" ">
<polygon fill="white" stroke="#666666" points="1050.4,-188 991.65,-188 991.65,-168 1050.4,-168 1050.4,-188"/>
<text xml:space="preserve" text-anchor="middle" x="1021.02" y="-174.5" font-family="Helvetica,sans-Serif" font-size="10.00">Material.h</text>
</a>
</g>
</g>
<!-- Node1&#45;&gt;Node16 -->
<g id="edge21_Node000001_Node000016" class="edge">
<title>Node1&#45;&gt;Node16</title>
<g id="a_edge21_Node000001_Node000016"><a xlink:title=" ">
<path fill="none" stroke="#63b8ff" d="M782.57,-225.65C838.04,-214.8 940.76,-194.7 991.33,-184.81"/>
<polygon fill="#63b8ff" stroke="#63b8ff" points="782.12,-222.18 772.97,-227.53 783.46,-229.05 782.12,-222.18"/>
</a>
</g>
</g>
<!-- Node18 -->
<g id="Node000018" class="node">
<title>Node18</title>
<g id="a_Node000018"><a xlink:href="MaterialComponent_8h.html" target="_top" xlink:title=" ">
<polygon fill="white" stroke="#666666" points="1158.52,-76 1049.52,-76 1049.52,-56 1158.52,-56 1158.52,-76"/>
<text xml:space="preserve" text-anchor="middle" x="1104.02" y="-62.5" font-family="Helvetica,sans-Serif" font-size="10.00">MaterialComponent.h</text>
</a>
</g>
</g>
<!-- Node1&#45;&gt;Node18 -->
<g id="edge31_Node000001_Node000018" class="edge">
<title>Node1&#45;&gt;Node18</title>
<g id="a_edge31_Node000001_Node000018"><a xlink:title=" ">
<path fill="none" stroke="#63b8ff" d="M782.28,-232.31C856.03,-230.22 1017.11,-221.79 1059.02,-188 1094.62,-159.3 1102.06,-99.51 1103.61,-76.4"/>
<polygon fill="#63b8ff" stroke="#63b8ff" points="782.65,-228.8 772.74,-232.56 782.83,-235.8 782.65,-228.8"/>
</a>
</g>
</g>
<!-- Node19 -->
<g id="Node000019" class="node">
<title>Node19</title>
<g id="a_Node000019"><a xlink:href="MaterialInstance_8h.html" target="_top" xlink:title=" ">
<polygon fill="white" stroke="#666666" points="1221.15,-132 1124.9,-132 1124.9,-112 1221.15,-112 1221.15,-132"/>
<text xml:space="preserve" text-anchor="middle" x="1173.02" y="-118.5" font-family="Helvetica,sans-Serif" font-size="10.00">MaterialInstance.h</text>
</a>
</g>
</g>
<!-- Node1&#45;&gt;Node19 -->
<g id="edge32_Node000001_Node000019" class="edge">
<title>Node1&#45;&gt;Node19</title>
<g id="a_edge32_Node000001_Node000019"><a xlink:title=" ">
<path fill="none" stroke="#63b8ff" d="M782.91,-231.55C864.52,-227.93 1054.11,-216.6 1111.02,-188 1136.66,-175.12 1157.48,-147.17 1167.15,-132.48"/>
<polygon fill="#63b8ff" stroke="#63b8ff" points="782.81,-228.06 772.97,-231.98 783.11,-235.05 782.81,-228.06"/>
</a>
</g>
</g>
<!-- Node21 -->
<g id="Node000021" class="node">
<title>Node21</title>
<g id="a_Node000021"><a xlink:href="Matrix_8h.html" target="_top" xlink:title=" ">
<polygon fill="white" stroke="#666666" points="722.65,-188 671.4,-188 671.4,-168 722.65,-168 722.65,-188"/>
<text xml:space="preserve" text-anchor="middle" x="697.02" y="-174.5" font-family="Helvetica,sans-Serif" font-size="10.00">Matrix.h</text>
</a>
</g>
</g>
<!-- Node1&#45;&gt;Node21 -->
<g id="edge33_Node000001_Node000021" class="edge">
<title>Node1&#45;&gt;Node21</title>
<g id="a_edge33_Node000001_Node000021"><a xlink:title=" ">
<path fill="none" stroke="#63b8ff" d="M729.03,-215C721.08,-206.06 711.8,-195.62 705.29,-188.3"/>
<polygon fill="#63b8ff" stroke="#63b8ff" points="726.4,-217.31 735.66,-222.46 731.63,-212.66 726.4,-217.31"/>
</a>
</g>
</g>
<!-- Node23 -->
<g id="Node000023" class="node">
<title>Node23</title>
<g id="a_Node000023"><a xlink:href="Skybox_8h.html" target="_top" xlink:title=" ">
<polygon fill="white" stroke="#666666" points="518.65,-132 461.4,-132 461.4,-112 518.65,-112 518.65,-132"/>
<text xml:space="preserve" text-anchor="middle" x="490.02" y="-118.5" font-family="Helvetica,sans-Serif" font-size="10.00">Skybox.h</text>
</a>
</g>
</g>
<!-- Node1&#45;&gt;Node23 -->
<g id="edge45_Node000001_Node000023" class="edge">
<title>Node1&#45;&gt;Node23</title>
<g id="a_edge45_Node000001_Node000023"><a xlink:title=" ">
<path fill="none" stroke="#63b8ff" d="M710.28,-219.5C688.08,-210.76 658.73,-199 633.02,-188 588.65,-169.01 537.28,-145.21 509.8,-132.32"/>
<polygon fill="#63b8ff" stroke="#63b8ff" points="708.87,-222.71 719.46,-223.1 711.42,-216.19 708.87,-222.71"/>
</a>
</g>
</g>
<!-- Node24 -->
<g id="Node000024" class="node">
<title>Node24</title>
<g id="a_Node000024"><a xlink:href="SceneViewport_8h.html" target="_top" xlink:title=" ">
<polygon fill="white" stroke="#666666" points="627.15,-132 536.9,-132 536.9,-112 627.15,-112 627.15,-132"/>
<text xml:space="preserve" text-anchor="middle" x="582.02" y="-118.5" font-family="Helvetica,sans-Serif" font-size="10.00">SceneViewport.h</text>
</a>
</g>
</g>
<!-- Node1&#45;&gt;Node24 -->
<g id="edge42_Node000001_Node000024" class="edge">
<title>Node1&#45;&gt;Node24</title>
<g id="a_edge42_Node000001_Node000024"><a xlink:title=" ">
<path fill="none" stroke="#63b8ff" d="M715.32,-218.6C699.14,-210.33 679.01,-199.36 662.02,-188 635.55,-170.29 607.21,-145.78 592.41,-132.49"/>
<polygon fill="#63b8ff" stroke="#63b8ff" points="713.45,-221.57 723.96,-222.93 716.59,-215.32 713.45,-221.57"/>
</a>
</g>
</g>
<!-- Node3 -->
<g id="Node000003" class="node">
<title>Node3</title>
<g id="a_Node000003"><a xlink:href="Camera_8cpp.html" target="_top" xlink:title=" ">
<polygon fill="white" stroke="#666666" points="358.65,-76 289.4,-76 289.4,-56 358.65,-56 358.65,-76"/>
<text xml:space="preserve" text-anchor="middle" x="324.02" y="-62.5" font-family="Helvetica,sans-Serif" font-size="10.00">Camera.cpp</text>
</a>
</g>
</g>
<!-- Node2&#45;&gt;Node3 -->
<g id="edge2_Node000002_Node000003" class="edge">
<title>Node2&#45;&gt;Node3</title>
<g id="a_edge2_Node000002_Node000003"><a xlink:title=" ">
<path fill="none" stroke="#63b8ff" d="M388.71,-105.81C373.01,-96.39 353.33,-84.58 339.82,-76.48"/>
<polygon fill="#63b8ff" stroke="#63b8ff" points="386.67,-108.67 397.05,-110.82 390.28,-102.67 386.67,-108.67"/>
</a>
</g>
</g>
<!-- Node4 -->
<g id="Node000004" class="node">
<title>Node4</title>
<g id="a_Node000004"><a xlink:href="CameraController_8h.html" target="_top" xlink:title=" ">
<polygon fill="white" stroke="#666666" points="271.4,-76 170.65,-76 170.65,-56 271.4,-56 271.4,-76"/>
<text xml:space="preserve" text-anchor="middle" x="221.02" y="-62.5" font-family="Helvetica,sans-Serif" font-size="10.00">CameraController.h</text>
</a>
</g>
</g>
<!-- Node2&#45;&gt;Node4 -->
<g id="edge3_Node000002_Node000004" class="edge">
<title>Node2&#45;&gt;Node4</title>
<g id="a_edge3_Node000002_Node000004"><a xlink:title=" ">
<path fill="none" stroke="#63b8ff" d="M373.42,-109.64C338.17,-99.78 287.73,-85.66 254.69,-76.42"/>
<polygon fill="#63b8ff" stroke="#63b8ff" points="372.26,-112.95 382.83,-112.27 374.15,-106.21 372.26,-112.95"/>
</a>
</g>
</g>
<!-- Node6 -->
<g id="Node000006" class="node">
<title>Node6</title>
<g id="a_Node000006"><a xlink:href="main_8cpp.html" target="_top" xlink:title=" ">
<polygon fill="white" stroke="#666666" points="557.9,-20 502.15,-20 502.15,0 557.9,0 557.9,-20"/>
<text xml:space="preserve" text-anchor="middle" x="530.02" y="-6.5" font-family="Helvetica,sans-Serif" font-size="10.00">main.cpp</text>
</a>
</g>
</g>
<!-- Node2&#45;&gt;Node6 -->
<g id="edge8_Node000002_Node000006" class="edge">
<title>Node2&#45;&gt;Node6</title>
<g id="a_edge8_Node000002_Node000006"><a xlink:title=" ">
<path fill="none" stroke="#63b8ff" d="M405.02,-101.27C400.17,-87.42 396.85,-69.09 406.02,-56 427.58,-25.24 472.41,-15.43 501.84,-12.34"/>
<polygon fill="#63b8ff" stroke="#63b8ff" points="401.66,-102.29 408.65,-110.24 408.15,-99.66 401.66,-102.29"/>
</a>
</g>
</g>
<!-- Node2&#45;&gt;Node7 -->
<g id="edge6_Node000002_Node000007" class="edge">
<title>Node2&#45;&gt;Node7</title>
<g id="a_edge6_Node000002_Node000007"><a xlink:title=" ">
<path fill="none" stroke="#63b8ff" d="M454.58,-110.72C493.55,-100.84 551.96,-86.03 589.79,-76.44"/>
<polygon fill="#63b8ff" stroke="#63b8ff" points="453.94,-107.27 445.11,-113.12 455.66,-114.05 453.94,-107.27"/>
</a>
</g>
</g>
<!-- Node8 -->
<g id="Node000008" class="node">
<title>Node8</title>
<g id="a_Node000008"><a xlink:href="Skybox_8cpp.html" target="_top" xlink:title=" ">
<polygon fill="white" stroke="#666666" points="482.9,-76 415.15,-76 415.15,-56 482.9,-56 482.9,-76"/>
<text xml:space="preserve" text-anchor="middle" x="449.02" y="-62.5" font-family="Helvetica,sans-Serif" font-size="10.00">Skybox.cpp</text>
</a>
</g>
</g>
<!-- Node2&#45;&gt;Node8 -->
<g id="edge7_Node000002_Node000008" class="edge">
<title>Node2&#45;&gt;Node8</title>
<g id="a_edge7_Node000002_Node000008"><a xlink:title=" ">
<path fill="none" stroke="#63b8ff" d="M426.24,-102.15C431.91,-93.4 438.4,-83.39 443,-76.3"/>
<polygon fill="#63b8ff" stroke="#63b8ff" points="423.45,-100.03 420.94,-110.32 429.32,-103.84 423.45,-100.03"/>
</a>
</g>
</g>
<!-- Node4&#45;&gt;Node5 -->
<g id="edge4_Node000004_Node000005" class="edge">
<title>Node4&#45;&gt;Node5</title>
<g id="a_edge4_Node000004_Node000005"><a xlink:title=" ">
<path fill="none" stroke="#63b8ff" d="M190.16,-50.88C169.23,-41.3 142.12,-28.89 123.74,-20.48"/>
<polygon fill="#63b8ff" stroke="#63b8ff" points="188.54,-53.99 199.09,-54.96 191.46,-47.62 188.54,-53.99"/>
</a>
</g>
</g>
<!-- Node4&#45;&gt;Node6 -->
<g id="edge5_Node000004_Node000006" class="edge">
<title>Node4&#45;&gt;Node6</title>
<g id="a_edge5_Node000004_Node000006"><a xlink:title=" ">
<path fill="none" stroke="#63b8ff" d="M282.89,-54.19C349.57,-42.54 452.73,-24.51 501.99,-15.9"/>
<polygon fill="#63b8ff" stroke="#63b8ff" points="282.44,-50.71 273.19,-55.88 283.65,-57.61 282.44,-50.71"/>
</a>
</g>
</g>
<!-- Node9&#45;&gt;Node6 -->
<g id="edge12_Node000009_Node000006" class="edge">
<title>Node9&#45;&gt;Node6</title>
<g id="a_edge12_Node000009_Node000006"><a xlink:title=" ">
<path fill="none" stroke="#63b8ff" d="M139.55,-156.61C136.23,-129.51 135.1,-82.03 162.02,-56 186.41,-32.43 420.05,-17.17 501.88,-12.51"/>
<polygon fill="#63b8ff" stroke="#63b8ff" points="136.06,-156.9 140.98,-166.28 142.98,-155.88 136.06,-156.9"/>
</a>
</g>
</g>
<!-- Node10 -->
<g id="Node000010" class="node">
<title>Node10</title>
<g id="a_Node000010"><a xlink:href="DirectionalLight_8cpp.html" target="_top" xlink:title=" ">
<polygon fill="white" stroke="#666666" points="115.15,-132 12.9,-132 12.9,-112 115.15,-112 115.15,-132"/>
<text xml:space="preserve" text-anchor="middle" x="64.02" y="-118.5" font-family="Helvetica,sans-Serif" font-size="10.00">DirectionalLight.cpp</text>
</a>
</g>
</g>
<!-- Node9&#45;&gt;Node10 -->
<g id="edge11_Node000009_Node000010" class="edge">
<title>Node9&#45;&gt;Node10</title>
<g id="a_edge11_Node000009_Node000010"><a xlink:title=" ">
<path fill="none" stroke="#63b8ff" d="M120.01,-161.27C106.37,-151.94 89.52,-140.43 77.89,-132.48"/>
<polygon fill="#63b8ff" stroke="#63b8ff" points="117.78,-163.99 128.01,-166.74 121.73,-158.21 117.78,-163.99"/>
</a>
</g>
</g>
<!-- Node11&#45;&gt;Node6 -->
<g id="edge19_Node000011_Node000006" class="edge">
<title>Node11&#45;&gt;Node6</title>
<g id="a_edge19_Node000011_Node000006"><a xlink:title=" ">
<path fill="none" stroke="#63b8ff" d="M865.38,-105.05C883.15,-91.48 901.91,-71.74 888.02,-56 866.24,-31.31 638.76,-16.82 558.15,-12.43"/>
<polygon fill="#63b8ff" stroke="#63b8ff" points="863.66,-101.97 857.58,-110.65 867.74,-107.66 863.66,-101.97"/>
</a>
</g>
</g>
<!-- Node11&#45;&gt;Node7 -->
<g id="edge18_Node000011_Node000007" class="edge">
<title>Node11&#45;&gt;Node7</title>
<g id="a_edge18_Node000011_Node000007"><a xlink:title=" ">
<path fill="none" stroke="#63b8ff" d="M792.73,-108.81C753.93,-99.02 700.22,-85.47 664.59,-76.48"/>
<polygon fill="#63b8ff" stroke="#63b8ff" points="791.73,-112.17 802.28,-111.22 793.44,-105.38 791.73,-112.17"/>
</a>
</g>
</g>
<!-- Node12 -->
<g id="Node000012" class="node">
<title>Node12</title>
<g id="a_Node000012"><a xlink:href="GameObject_8cpp.html" target="_top" xlink:title=" ">
<polygon fill="white" stroke="#666666" points="784.77,-76 695.27,-76 695.27,-56 784.77,-56 784.77,-76"/>
<text xml:space="preserve" text-anchor="middle" x="740.02" y="-62.5" font-family="Helvetica,sans-Serif" font-size="10.00">GameObject.cpp</text>
</a>
</g>
</g>
<!-- Node11&#45;&gt;Node12 -->
<g id="edge14_Node000011_Node000012" class="edge">
<title>Node11&#45;&gt;Node12</title>
<g id="a_edge14_Node000011_Node000012"><a xlink:title=" ">
<path fill="none" stroke="#63b8ff" d="M813.62,-106.35C795.84,-96.84 773.2,-84.74 757.75,-76.48"/>
<polygon fill="#63b8ff" stroke="#63b8ff" points="811.63,-109.25 822.1,-110.88 814.93,-103.08 811.63,-109.25"/>
</a>
</g>
</g>
<!-- Node13 -->
<g id="Node000013" class="node">
<title>Node13</title>
<g id="a_Node000013"><a xlink:href="Hierarchy_8cpp.html" target="_top" xlink:title=" ">
<polygon fill="white" stroke="#666666" points="879.02,-76 803.02,-76 803.02,-56 879.02,-56 879.02,-76"/>
<text xml:space="preserve" text-anchor="middle" x="841.02" y="-62.5" font-family="Helvetica,sans-Serif" font-size="10.00">Hierarchy.cpp</text>
</a>
</g>
</g>
<!-- Node11&#45;&gt;Node13 -->
<g id="edge15_Node000011_Node000013" class="edge">
<title>Node11&#45;&gt;Node13</title>
<g id="a_edge15_Node000011_Node000013"><a xlink:title=" ">
<path fill="none" stroke="#63b8ff" d="M841.02,-100.13C841.02,-91.9 841.02,-82.85 841.02,-76.3"/>
<polygon fill="#63b8ff" stroke="#63b8ff" points="837.52,-100.08 841.02,-110.08 844.52,-100.08 837.52,-100.08"/>
</a>
</g>
</g>
<!-- Node11&#45;&gt;Node14 -->
<g id="edge16_Node000011_Node000014" class="edge">
<title>Node11&#45;&gt;Node14</title>
<g id="a_edge16_Node000011_Node000014"><a xlink:title=" ">
<path fill="none" stroke="#63b8ff" d="M873.88,-107.26C928.17,-84.55 1035.22,-39.78 1081.66,-20.35"/>
<polygon fill="#63b8ff" stroke="#63b8ff" points="872.72,-103.95 864.84,-111.04 875.42,-110.41 872.72,-103.95"/>
</a>
</g>
</g>
<!-- Node15 -->
<g id="Node000015" class="node">
<title>Node15</title>
<g id="a_Node000015"><a xlink:href="MaterialComponent_8cpp.html" target="_top" xlink:title=" ">
<polygon fill="white" stroke="#666666" points="1026.77,-20 907.27,-20 907.27,0 1026.77,0 1026.77,-20"/>
<text xml:space="preserve" text-anchor="middle" x="967.02" y="-6.5" font-family="Helvetica,sans-Serif" font-size="10.00">MaterialComponent.cpp</text>
</a>
</g>
</g>
<!-- Node11&#45;&gt;Node15 -->
<g id="edge17_Node000011_Node000015" class="edge">
<title>Node11&#45;&gt;Node15</title>
<g id="a_edge17_Node000011_Node000015"><a xlink:title=" ">
<path fill="none" stroke="#63b8ff" d="M873.92,-106.65C889.28,-98.96 907.18,-88.48 921.02,-76 939.51,-59.34 954.74,-33.97 962.16,-20.38"/>
<polygon fill="#63b8ff" stroke="#63b8ff" points="872.64,-103.38 865.14,-110.86 875.67,-109.69 872.64,-103.38"/>
</a>
</g>
</g>
<!-- Node16&#45;&gt;Node6 -->
<g id="edge30_Node000016_Node000006" class="edge">
<title>Node16&#45;&gt;Node6</title>
<g id="a_edge30_Node000016_Node000006"><a xlink:title=" ">
<path fill="none" stroke="#63b8ff" d="M1019.03,-156.36C1016.8,-142.58 1012.06,-124.72 1002.02,-112 970.95,-72.62 951.65,-71.75 904.02,-56 779.84,-14.92 621.42,-10.56 558.06,-10.62"/>
<polygon fill="#63b8ff" stroke="#63b8ff" points="1015.54,-156.63 1020.27,-166.11 1022.48,-155.74 1015.54,-156.63"/>
</a>
</g>
</g>
<!-- Node17 -->
<g id="Node000017" class="node">
<title>Node17</title>
<g id="a_Node000017"><a xlink:href="Material_8cpp.html" target="_top" xlink:title=" ">
<polygon fill="white" stroke="#666666" points="992.65,-132 923.4,-132 923.4,-112 992.65,-112 992.65,-132"/>
<text xml:space="preserve" text-anchor="middle" x="958.02" y="-118.5" font-family="Helvetica,sans-Serif" font-size="10.00">Material.cpp</text>
</a>
</g>
</g>
<!-- Node16&#45;&gt;Node17 -->
<g id="edge22_Node000016_Node000017" class="edge">
<title>Node16&#45;&gt;Node17</title>
<g id="a_edge22_Node000016_Node000017"><a xlink:title=" ">
<path fill="none" stroke="#63b8ff" d="M1001.34,-160.13C990.62,-150.94 977.78,-139.93 968.87,-132.3"/>
<polygon fill="#63b8ff" stroke="#63b8ff" points="999.03,-162.76 1008.9,-166.61 1003.59,-157.44 999.03,-162.76"/>
</a>
</g>
</g>
<!-- Node16&#45;&gt;Node18 -->
<g id="edge23_Node000016_Node000018" class="edge">
<title>Node16&#45;&gt;Node18</title>
<g id="a_edge23_Node000016_Node000018"><a xlink:title=" ">
<path fill="none" stroke="#63b8ff" d="M1034.92,-158.58C1052.82,-134.86 1083.26,-94.52 1096.97,-76.35"/>
<polygon fill="#63b8ff" stroke="#63b8ff" points="1032.24,-156.32 1029.01,-166.41 1037.83,-160.54 1032.24,-156.32"/>
</a>
</g>
</g>
<!-- Node16&#45;&gt;Node19 -->
<g id="edge27_Node000016_Node000019" class="edge">
<title>Node16&#45;&gt;Node19</title>
<g id="a_edge27_Node000016_Node000019"><a xlink:title=" ">
<path fill="none" stroke="#63b8ff" d="M1058.2,-163.79C1085.49,-154.1 1121.9,-141.16 1146.34,-132.48"/>
<polygon fill="#63b8ff" stroke="#63b8ff" points="1057.18,-160.44 1048.93,-167.09 1059.52,-167.04 1057.18,-160.44"/>
</a>
</g>
</g>
<!-- Node18&#45;&gt;Node6 -->
<g id="edge26_Node000018_Node000006" class="edge">
<title>Node18&#45;&gt;Node6</title>
<g id="a_edge26_Node000018_Node000006"><a xlink:title=" ">
<path fill="none" stroke="#63b8ff" d="M1038.04,-56.34C1037.03,-56.22 1036.02,-56.11 1035.02,-56 853.69,-36.1 634.98,-18.93 558.26,-13.11"/>
<polygon fill="#63b8ff" stroke="#63b8ff" points="1037.22,-59.76 1047.56,-57.45 1038.03,-52.81 1037.22,-59.76"/>
</a>
</g>
</g>
<!-- Node18&#45;&gt;Node14 -->
<g id="edge24_Node000018_Node000014" class="edge">
<title>Node18&#45;&gt;Node14</title>
<g id="a_edge24_Node000018_Node000014"><a xlink:title=" ">
<path fill="none" stroke="#63b8ff" d="M1104.02,-44.13C1104.02,-35.9 1104.02,-26.85 1104.02,-20.3"/>
<polygon fill="#63b8ff" stroke="#63b8ff" points="1100.52,-44.08 1104.02,-54.08 1107.52,-44.08 1100.52,-44.08"/>
</a>
</g>
</g>
<!-- Node18&#45;&gt;Node15 -->
<g id="edge25_Node000018_Node000015" class="edge">
<title>Node18&#45;&gt;Node15</title>
<g id="a_edge25_Node000018_Node000015"><a xlink:title=" ">
<path fill="none" stroke="#63b8ff" d="M1069.53,-51.4C1045.05,-41.75 1012.81,-29.05 991.07,-20.48"/>
<polygon fill="#63b8ff" stroke="#63b8ff" points="1068.17,-54.63 1078.75,-55.04 1070.73,-48.12 1068.17,-54.63"/>
</a>
</g>
</g>
<!-- Node19&#45;&gt;Node18 -->
<g id="edge28_Node000019_Node000018" class="edge">
<title>Node19&#45;&gt;Node18</title>
<g id="a_edge28_Node000019_Node000018"><a xlink:title=" ">
<path fill="none" stroke="#63b8ff" d="M1152.17,-104.68C1140.3,-95.39 1125.86,-84.09 1115.91,-76.3"/>
<polygon fill="#63b8ff" stroke="#63b8ff" points="1149.78,-107.25 1159.81,-110.66 1154.1,-101.74 1149.78,-107.25"/>
</a>
</g>
</g>
<!-- Node20 -->
<g id="Node000020" class="node">
<title>Node20</title>
<g id="a_Node000020"><a xlink:href="MaterialInstance_8cpp.html" target="_top" xlink:title=" ">
<polygon fill="white" stroke="#666666" points="1283.4,-76 1176.65,-76 1176.65,-56 1283.4,-56 1283.4,-76"/>
<text xml:space="preserve" text-anchor="middle" x="1230.02" y="-62.5" font-family="Helvetica,sans-Serif" font-size="10.00">MaterialInstance.cpp</text>
</a>
</g>
</g>
<!-- Node19&#45;&gt;Node20 -->
<g id="edge29_Node000019_Node000020" class="edge">
<title>Node19&#45;&gt;Node20</title>
<g id="a_edge29_Node000019_Node000020"><a xlink:title=" ">
<path fill="none" stroke="#63b8ff" d="M1191.13,-103.85C1200.76,-94.72 1212.23,-83.86 1220.21,-76.3"/>
<polygon fill="#63b8ff" stroke="#63b8ff" points="1188.9,-101.13 1184.05,-110.55 1193.72,-106.22 1188.9,-101.13"/>
</a>
</g>
</g>
<!-- Node21&#45;&gt;Node2 -->
<g id="edge34_Node000021_Node000002" class="edge">
<title>Node21&#45;&gt;Node2</title>
<g id="a_edge34_Node000021_Node000002"><a xlink:title=" ">
<path fill="none" stroke="#63b8ff" d="M660.12,-170.82C612.07,-162.65 525.53,-147.44 452.02,-132 449.37,-131.44 446.62,-130.84 443.86,-130.22"/>
<polygon fill="#63b8ff" stroke="#63b8ff" points="659.25,-174.23 669.7,-172.45 660.42,-167.33 659.25,-174.23"/>
</a>
</g>
</g>
<!-- Node21&#45;&gt;Node7 -->
<g id="edge37_Node000021_Node000007" class="edge">
<title>Node21&#45;&gt;Node7</title>
<g id="a_edge37_Node000021_Node000007"><a xlink:title=" ">
<path fill="none" stroke="#63b8ff" d="M710.43,-157.82C718.11,-144.26 724.67,-126.07 716.02,-112 705.05,-94.15 684.57,-83.12 666.02,-76.46"/>
<polygon fill="#63b8ff" stroke="#63b8ff" points="707.48,-155.94 705.1,-166.26 713.4,-159.67 707.48,-155.94"/>
</a>
</g>
</g>
<!-- Node21&#45;&gt;Node11 -->
<g id="edge35_Node000021_Node000011" class="edge">
<title>Node21&#45;&gt;Node11</title>
<g id="a_edge35_Node000021_Node000011"><a xlink:title=" ">
<path fill="none" stroke="#63b8ff" d="M732.59,-163.66C758.4,-153.98 792.7,-141.12 815.75,-132.48"/>
<polygon fill="#63b8ff" stroke="#63b8ff" points="731.66,-160.27 723.52,-167.06 734.12,-166.83 731.66,-160.27"/>
</a>
</g>
</g>
<!-- Node22 -->
<g id="Node000022" class="node">
<title>Node22</title>
<g id="a_Node000022"><a xlink:href="Matrix_8cpp.html" target="_top" xlink:title=" ">
<polygon fill="white" stroke="#666666" points="706.9,-132 645.15,-132 645.15,-112 706.9,-112 706.9,-132"/>
<text xml:space="preserve" text-anchor="middle" x="676.02" y="-118.5" font-family="Helvetica,sans-Serif" font-size="10.00">Matrix.cpp</text>
</a>
</g>
</g>
<!-- Node21&#45;&gt;Node22 -->
<g id="edge36_Node000021_Node000022" class="edge">
<title>Node21&#45;&gt;Node22</title>
<g id="a_edge36_Node000021_Node000022"><a xlink:title=" ">
<path fill="none" stroke="#63b8ff" d="M689.25,-157C685.96,-148.54 682.28,-139.08 679.64,-132.3"/>
<polygon fill="#63b8ff" stroke="#63b8ff" points="685.93,-158.13 692.82,-166.18 692.46,-155.59 685.93,-158.13"/>
</a>
</g>
</g>
<!-- Node21&#45;&gt;Node23 -->
<g id="edge38_Node000021_Node000023" class="edge">
<title>Node21&#45;&gt;Node23</title>
<g id="a_edge38_Node000021_Node000023"><a xlink:title=" ">
<path fill="none" stroke="#63b8ff" d="M660.25,-167.41C619.82,-156.86 555.74,-140.14 518.81,-130.51"/>
<polygon fill="#63b8ff" stroke="#63b8ff" points="659.2,-170.75 669.76,-169.89 660.97,-163.98 659.2,-170.75"/>
</a>
</g>
</g>
<!-- Node23&#45;&gt;Node6 -->
<g id="edge40_Node000023_Node000006" class="edge">
<title>Node23&#45;&gt;Node6</title>
<g id="a_edge40_Node000023_Node000006"><a xlink:title=" ">
<path fill="none" stroke="#63b8ff" d="M497.31,-100.97C506,-77.07 520.16,-38.11 526.62,-20.35"/>
<polygon fill="#63b8ff" stroke="#63b8ff" points="494.08,-99.6 493.95,-110.2 500.66,-102 494.08,-99.6"/>
</a>
</g>
</g>
<!-- Node23&#45;&gt;Node8 -->
<g id="edge39_Node000023_Node000008" class="edge">
<title>Node23&#45;&gt;Node8</title>
<g id="a_edge39_Node000023_Node000008"><a xlink:title=" ">
<path fill="none" stroke="#63b8ff" d="M475.93,-102.44C469.24,-93.62 461.53,-83.47 456.08,-76.3"/>
<polygon fill="#63b8ff" stroke="#63b8ff" points="473.13,-104.54 481.97,-110.39 478.71,-100.31 473.13,-104.54"/>
</a>
</g>
</g>
<!-- Node24&#45;&gt;Node6 -->
<g id="edge44_Node000024_Node000006" class="edge">
<title>Node24&#45;&gt;Node6</title>
<g id="a_edge44_Node000024_Node000006"><a xlink:title=" ">
<path fill="none" stroke="#63b8ff" d="M572.71,-101.3C561.43,-77.43 542.88,-38.2 534.45,-20.35"/>
<polygon fill="#63b8ff" stroke="#63b8ff" points="569.51,-102.71 576.94,-110.25 575.83,-99.72 569.51,-102.71"/>
</a>
</g>
</g>
<!-- Node24&#45;&gt;Node7 -->
<g id="edge43_Node000024_Node000007" class="edge">
<title>Node24&#45;&gt;Node7</title>
<g id="a_edge43_Node000024_Node000007"><a xlink:title=" ">
<path fill="none" stroke="#63b8ff" d="M597.02,-103C604.48,-94.06 613.17,-83.62 619.28,-76.3"/>
<polygon fill="#63b8ff" stroke="#63b8ff" points="594.54,-100.51 590.83,-110.43 599.92,-104.99 594.54,-100.51"/>
</a>
</g>
</g>
</g>
</svg>
