<?xml version="1.0" encoding="UTF-8" standalone="no"?>
<!DOCTYPE svg PUBLIC "-//W3C//DTD SVG 1.1//EN"
 "http://www.w3.org/Graphics/SVG/1.1/DTD/svg11.dtd">
<!-- Generated by graphviz version 14.0.2 (20251019.1705)
 -->
<!-- Title: VertexArray.cpp Pages: 1 -->
<svg width="390pt" height="140pt"
 viewBox="0.00 0.00 390.00 140.00" xmlns="http://www.w3.org/2000/svg" xmlns:xlink="http://www.w3.org/1999/xlink">
<g id="graph0" class="graph" transform="scale(1 1) rotate(0) translate(4 136)">
<title>VertexArray.cpp</title>
<!-- Node1 -->
<g id="Node000001" class="node">
<title>Node1</title>
<g id="a_Node000001"><a xlink:title=" ">
<polygon fill="#999999" stroke="#666666" points="271.38,-132 186.38,-132 186.38,-112 271.38,-112 271.38,-132"/>
<text xml:space="preserve" text-anchor="middle" x="228.88" y="-118.5" font-family="Helvetica,sans-Serif" font-size="10.00">VertexArray.cpp</text>
</a>
</g>
</g>
<!-- Node2 -->
<g id="Node000002" class="node">
<title>Node2</title>
<g id="a_Node000002"><a xlink:href="VertexArray_8h.html" target="_top" xlink:title=" ">
<polygon fill="white" stroke="#666666" points="139.75,-76 0,-76 0,-56 139.75,-56 139.75,-76"/>
<text xml:space="preserve" text-anchor="middle" x="69.88" y="-62.5" font-family="Helvetica,sans-Serif" font-size="10.00">LGE/rendering/VertexArray.h</text>
</a>
</g>
</g>
<!-- Node1&#45;&gt;Node2 -->
<g id="edge1_Node000001_Node000002" class="edge">
<title>Node1&#45;&gt;Node2</title>
<g id="a_edge1_Node000001_Node000002"><a xlink:title=" ">
<path fill="none" stroke="#63b8ff" d="M201.18,-111.59C175.57,-102.9 137.27,-89.89 108.63,-80.16"/>
<polygon fill="#63b8ff" stroke="#63b8ff" points="109.81,-76.87 99.22,-76.97 107.56,-83.5 109.81,-76.87"/>
</a>
</g>
</g>
<!-- Node4 -->
<g id="Node000004" class="node">
<title>Node4</title>
<g id="a_Node000004"><a xlink:href="VertexBuffer_8h.html" target="_top" xlink:title=" ">
<polygon fill="white" stroke="#666666" points="300.25,-76 157.5,-76 157.5,-56 300.25,-56 300.25,-76"/>
<text xml:space="preserve" text-anchor="middle" x="228.88" y="-62.5" font-family="Helvetica,sans-Serif" font-size="10.00">LGE/rendering/VertexBuffer.h</text>
</a>
</g>
</g>
<!-- Node1&#45;&gt;Node4 -->
<g id="edge3_Node000001_Node000004" class="edge">
<title>Node1&#45;&gt;Node4</title>
<g id="a_edge3_Node000001_Node000004"><a xlink:title=" ">
<path fill="none" stroke="#63b8ff" d="M228.88,-111.59C228.88,-105.01 228.88,-95.96 228.88,-87.73"/>
<polygon fill="#63b8ff" stroke="#63b8ff" points="232.38,-87.81 228.88,-77.81 225.38,-87.81 232.38,-87.81"/>
</a>
</g>
</g>
<!-- Node5 -->
<g id="Node000005" class="node">
<title>Node5</title>
<g id="a_Node000005"><a xlink:title=" ">
<polygon fill="#e0e0e0" stroke="#999999" points="381.5,-76 318.25,-76 318.25,-56 381.5,-56 381.5,-76"/>
<text xml:space="preserve" text-anchor="middle" x="349.88" y="-62.5" font-family="Helvetica,sans-Serif" font-size="10.00">glad/glad.h</text>
</a>
</g>
</g>
<!-- Node1&#45;&gt;Node5 -->
<g id="edge5_Node000001_Node000005" class="edge">
<title>Node1&#45;&gt;Node5</title>
<g id="a_edge5_Node000001_Node000005"><a xlink:title=" ">
<path fill="none" stroke="#63b8ff" d="M249.95,-111.59C268.83,-103.17 296.79,-90.69 318.34,-81.07"/>
<polygon fill="#63b8ff" stroke="#63b8ff" points="319.55,-84.37 327.25,-77.1 316.69,-77.98 319.55,-84.37"/>
</a>
</g>
</g>
<!-- Node3 -->
<g id="Node000003" class="node">
<title>Node3</title>
<g id="a_Node000003"><a xlink:title=" ">
<polygon fill="#e0e0e0" stroke="#999999" points="171.5,-20 126.25,-20 126.25,0 171.5,0 171.5,-20"/>
<text xml:space="preserve" text-anchor="middle" x="148.88" y="-6.5" font-family="Helvetica,sans-Serif" font-size="10.00">cstdint</text>
</a>
</g>
</g>
<!-- Node2&#45;&gt;Node3 -->
<g id="edge2_Node000002_Node000003" class="edge">
<title>Node2&#45;&gt;Node3</title>
<g id="a_edge2_Node000002_Node000003"><a xlink:title=" ">
<path fill="none" stroke="#63b8ff" d="M83.64,-55.59C95.23,-47.67 112.07,-36.16 125.74,-26.82"/>
<polygon fill="#63b8ff" stroke="#63b8ff" points="127.48,-29.87 133.76,-21.33 123.53,-24.09 127.48,-29.87"/>
</a>
</g>
</g>
<!-- Node4&#45;&gt;Node3 -->
<g id="edge4_Node000004_Node000003" class="edge">
<title>Node4&#45;&gt;Node3</title>
<g id="a_edge4_Node000004_Node000003"><a xlink:title=" ">
<path fill="none" stroke="#63b8ff" d="M214.94,-55.59C203.2,-47.67 186.14,-36.16 172.31,-26.82"/>
<polygon fill="#63b8ff" stroke="#63b8ff" points="174.42,-24.02 164.17,-21.33 170.5,-29.82 174.42,-24.02"/>
</a>
</g>
</g>
</g>
</svg>
