<?xml version="1.0" encoding="UTF-8" standalone="no"?>
<!DOCTYPE svg PUBLIC "-//W3C//DTD SVG 1.1//EN"
 "http://www.w3.org/Graphics/SVG/1.1/DTD/svg11.dtd">
<!-- Generated by graphviz version 14.0.2 (20251019.1705)
 -->
<!-- Title: VertexBuffer.h Pages: 1 -->
<svg width="432pt" height="140pt"
 viewBox="0.00 0.00 432.00 140.00" xmlns="http://www.w3.org/2000/svg" xmlns:xlink="http://www.w3.org/1999/xlink">
<g id="graph0" class="graph" transform="scale(1 1) rotate(0) translate(4 136)">
<title>VertexBuffer.h</title>
<!-- Node1 -->
<g id="Node000001" class="node">
<title>Node1</title>
<g id="a_Node000001"><a xlink:title=" ">
<polygon fill="#999999" stroke="#666666" points="243.12,-132 165.62,-132 165.62,-112 243.12,-112 243.12,-132"/>
<text xml:space="preserve" text-anchor="middle" x="204.38" y="-118.5" font-family="Helvetica,sans-Serif" font-size="10.00">VertexBuffer.h</text>
</a>
</g>
</g>
<!-- Node2 -->
<g id="Node000002" class="node">
<title>Node2</title>
<g id="a_Node000002"><a xlink:href="SceneViewport_8cpp.html" target="_top" xlink:title=" ">
<polygon fill="white" stroke="#666666" points="100.75,-76 0,-76 0,-56 100.75,-56 100.75,-76"/>
<text xml:space="preserve" text-anchor="middle" x="50.38" y="-62.5" font-family="Helvetica,sans-Serif" font-size="10.00">SceneViewport.cpp</text>
</a>
</g>
</g>
<!-- Node1&#45;&gt;Node2 -->
<g id="edge1_Node000001_Node000002" class="edge">
<title>Node1&#45;&gt;Node2</title>
<g id="a_edge1_Node000001_Node000002"><a xlink:title=" ">
<path fill="none" stroke="#63b8ff" d="M166.71,-107.79C139.06,-98.1 102.17,-85.16 77.41,-76.48"/>
<polygon fill="#63b8ff" stroke="#63b8ff" points="165.53,-111.09 176.12,-111.09 167.84,-104.48 165.53,-111.09"/>
</a>
</g>
</g>
<!-- Node3 -->
<g id="Node000003" class="node">
<title>Node3</title>
<g id="a_Node000003"><a xlink:href="Skybox_8h.html" target="_top" xlink:title=" ">
<polygon fill="white" stroke="#666666" points="176,-76 118.75,-76 118.75,-56 176,-56 176,-76"/>
<text xml:space="preserve" text-anchor="middle" x="147.38" y="-62.5" font-family="Helvetica,sans-Serif" font-size="10.00">Skybox.h</text>
</a>
</g>
</g>
<!-- Node1&#45;&gt;Node3 -->
<g id="edge2_Node000001_Node000003" class="edge">
<title>Node1&#45;&gt;Node3</title>
<g id="a_edge2_Node000001_Node000003"><a xlink:title=" ">
<path fill="none" stroke="#63b8ff" d="M186.27,-103.85C176.64,-94.72 165.17,-83.86 157.19,-76.3"/>
<polygon fill="#63b8ff" stroke="#63b8ff" points="183.68,-106.22 193.35,-110.55 188.5,-101.13 183.68,-106.22"/>
</a>
</g>
</g>
<!-- Node5 -->
<g id="Node000005" class="node">
<title>Node5</title>
<g id="a_Node000005"><a xlink:href="main_8cpp.html" target="_top" xlink:title=" ">
<polygon fill="white" stroke="#666666" points="232.25,-20 176.5,-20 176.5,0 232.25,0 232.25,-20"/>
<text xml:space="preserve" text-anchor="middle" x="204.38" y="-6.5" font-family="Helvetica,sans-Serif" font-size="10.00">main.cpp</text>
</a>
</g>
</g>
<!-- Node1&#45;&gt;Node5 -->
<g id="edge7_Node000001_Node000005" class="edge">
<title>Node1&#45;&gt;Node5</title>
<g id="a_edge7_Node000001_Node000005"><a xlink:title=" ">
<path fill="none" stroke="#63b8ff" d="M204.38,-100.31C204.38,-76.36 204.38,-37.95 204.38,-20.35"/>
<polygon fill="#63b8ff" stroke="#63b8ff" points="200.88,-100.11 204.38,-110.11 207.88,-100.11 200.88,-100.11"/>
</a>
</g>
</g>
<!-- Node6 -->
<g id="Node000006" class="node">
<title>Node6</title>
<g id="a_Node000006"><a xlink:href="VertexArray_8cpp.html" target="_top" xlink:title=" ">
<polygon fill="white" stroke="#666666" points="317.88,-76 232.88,-76 232.88,-56 317.88,-56 317.88,-76"/>
<text xml:space="preserve" text-anchor="middle" x="275.38" y="-62.5" font-family="Helvetica,sans-Serif" font-size="10.00">VertexArray.cpp</text>
</a>
</g>
</g>
<!-- Node1&#45;&gt;Node6 -->
<g id="edge5_Node000001_Node000006" class="edge">
<title>Node1&#45;&gt;Node6</title>
<g id="a_edge5_Node000001_Node000006"><a xlink:title=" ">
<path fill="none" stroke="#63b8ff" d="M225.83,-104.68C238.05,-95.39 252.91,-84.09 263.15,-76.3"/>
<polygon fill="#63b8ff" stroke="#63b8ff" points="223.79,-101.84 217.95,-110.68 228.03,-107.41 223.79,-101.84"/>
</a>
</g>
</g>
<!-- Node7 -->
<g id="Node000007" class="node">
<title>Node7</title>
<g id="a_Node000007"><a xlink:href="VertexBuffer_8cpp.html" target="_top" xlink:title=" ">
<polygon fill="white" stroke="#666666" points="424.38,-76 336.38,-76 336.38,-56 424.38,-56 424.38,-76"/>
<text xml:space="preserve" text-anchor="middle" x="380.38" y="-62.5" font-family="Helvetica,sans-Serif" font-size="10.00">VertexBuffer.cpp</text>
</a>
</g>
</g>
<!-- Node1&#45;&gt;Node7 -->
<g id="edge6_Node000001_Node000007" class="edge">
<title>Node1&#45;&gt;Node7</title>
<g id="a_edge6_Node000001_Node000007"><a xlink:title=" ">
<path fill="none" stroke="#63b8ff" d="M245.75,-108.31C277.52,-98.56 320.68,-85.32 349.48,-76.48"/>
<polygon fill="#63b8ff" stroke="#63b8ff" points="245.01,-104.87 236.48,-111.15 247.07,-111.56 245.01,-104.87"/>
</a>
</g>
</g>
<!-- Node4 -->
<g id="Node000004" class="node">
<title>Node4</title>
<g id="a_Node000004"><a xlink:href="Skybox_8cpp.html" target="_top" xlink:title=" ">
<polygon fill="white" stroke="#666666" points="158.25,-20 90.5,-20 90.5,0 158.25,0 158.25,-20"/>
<text xml:space="preserve" text-anchor="middle" x="124.38" y="-6.5" font-family="Helvetica,sans-Serif" font-size="10.00">Skybox.cpp</text>
</a>
</g>
</g>
<!-- Node3&#45;&gt;Node4 -->
<g id="edge3_Node000003_Node000004" class="edge">
<title>Node3&#45;&gt;Node4</title>
<g id="a_edge3_Node000003_Node000004"><a xlink:title=" ">
<path fill="none" stroke="#63b8ff" d="M138.86,-45C135.25,-36.54 131.23,-27.08 128.34,-20.3"/>
<polygon fill="#63b8ff" stroke="#63b8ff" points="135.64,-46.37 142.78,-54.2 142.08,-43.63 135.64,-46.37"/>
</a>
</g>
</g>
<!-- Node3&#45;&gt;Node5 -->
<g id="edge4_Node000003_Node000005" class="edge">
<title>Node3&#45;&gt;Node5</title>
<g id="a_edge4_Node000003_Node000005"><a xlink:title=" ">
<path fill="none" stroke="#63b8ff" d="M165.48,-47.85C175.11,-38.72 186.58,-27.86 194.56,-20.3"/>
<polygon fill="#63b8ff" stroke="#63b8ff" points="163.25,-45.13 158.4,-54.55 168.07,-50.22 163.25,-45.13"/>
</a>
</g>
</g>
</g>
</svg>
