<?xml version="1.0" encoding="UTF-8" standalone="no"?>
<!DOCTYPE svg PUBLIC "-//W3C//DTD SVG 1.1//EN"
 "http://www.w3.org/Graphics/SVG/1.1/DTD/svg11.dtd">
<!-- Generated by graphviz version 14.0.2 (20251019.1705)
 -->
<!-- Title: Window.h Pages: 1 -->
<svg width="444pt" height="84pt"
 viewBox="0.00 0.00 444.00 84.00" xmlns="http://www.w3.org/2000/svg" xmlns:xlink="http://www.w3.org/1999/xlink">
<g id="graph0" class="graph" transform="scale(1 1) rotate(0) translate(4 80)">
<title>Window.h</title>
<!-- Node1 -->
<g id="Node000001" class="node">
<title>Node1</title>
<g id="a_Node000001"><a xlink:title=" ">
<polygon fill="#999999" stroke="#666666" points="281.75,-76 223,-76 223,-56 281.75,-56 281.75,-76"/>
<text xml:space="preserve" text-anchor="middle" x="252.38" y="-62.5" font-family="Helvetica,sans-Serif" font-size="10.00">Window.h</text>
</a>
</g>
</g>
<!-- Node2 -->
<g id="Node000002" class="node">
<title>Node2</title>
<g id="a_Node000002"><a xlink:href="Application_8cpp.html" target="_top" xlink:title=" ">
<polygon fill="white" stroke="#666666" points="82.75,-20 0,-20 0,0 82.75,0 82.75,-20"/>
<text xml:space="preserve" text-anchor="middle" x="41.38" y="-6.5" font-family="Helvetica,sans-Serif" font-size="10.00">Application.cpp</text>
</a>
</g>
</g>
<!-- Node1&#45;&gt;Node2 -->
<g id="edge1_Node000001_Node000002" class="edge">
<title>Node1&#45;&gt;Node2</title>
<g id="a_edge1_Node000001_Node000002"><a xlink:title=" ">
<path fill="none" stroke="#63b8ff" d="M211.77,-54.61C173.23,-44.74 115.8,-30.05 78.47,-20.49"/>
<polygon fill="#63b8ff" stroke="#63b8ff" points="210.57,-57.91 221.13,-57 212.31,-51.13 210.57,-57.91"/>
</a>
</g>
</g>
<!-- Node3 -->
<g id="Node000003" class="node">
<title>Node3</title>
<g id="a_Node000003"><a xlink:href="OpenGLRenderer_8cpp.html" target="_top" xlink:title=" ">
<polygon fill="white" stroke="#666666" points="211.62,-20 101.12,-20 101.12,0 211.62,0 211.62,-20"/>
<text xml:space="preserve" text-anchor="middle" x="156.38" y="-6.5" font-family="Helvetica,sans-Serif" font-size="10.00">OpenGLRenderer.cpp</text>
</a>
</g>
</g>
<!-- Node1&#45;&gt;Node3 -->
<g id="edge2_Node000001_Node000003" class="edge">
<title>Node1&#45;&gt;Node3</title>
<g id="a_edge2_Node000001_Node000003"><a xlink:title=" ">
<path fill="none" stroke="#63b8ff" d="M225.85,-50.08C209.03,-40.62 187.77,-28.66 173.23,-20.48"/>
<polygon fill="#63b8ff" stroke="#63b8ff" points="223.9,-53 234.33,-54.85 227.33,-46.9 223.9,-53"/>
</a>
</g>
</g>
<!-- Node4 -->
<g id="Node000004" class="node">
<title>Node4</title>
<g id="a_Node000004"><a xlink:href="UI_8cpp.html" target="_top" xlink:title=" ">
<polygon fill="white" stroke="#666666" points="275,-20 229.75,-20 229.75,0 275,0 275,-20"/>
<text xml:space="preserve" text-anchor="middle" x="252.38" y="-6.5" font-family="Helvetica,sans-Serif" font-size="10.00">UI.cpp</text>
</a>
</g>
</g>
<!-- Node1&#45;&gt;Node4 -->
<g id="edge3_Node000001_Node000004" class="edge">
<title>Node1&#45;&gt;Node4</title>
<g id="a_edge3_Node000001_Node000004"><a xlink:title=" ">
<path fill="none" stroke="#63b8ff" d="M252.38,-44.13C252.38,-35.9 252.38,-26.85 252.38,-20.3"/>
<polygon fill="#63b8ff" stroke="#63b8ff" points="248.88,-44.08 252.38,-54.08 255.88,-44.08 248.88,-44.08"/>
</a>
</g>
</g>
<!-- Node5 -->
<g id="Node000005" class="node">
<title>Node5</title>
<g id="a_Node000005"><a xlink:href="Window_8cpp.html" target="_top" xlink:title=" ">
<polygon fill="white" stroke="#666666" points="362,-20 292.75,-20 292.75,0 362,0 362,-20"/>
<text xml:space="preserve" text-anchor="middle" x="327.38" y="-6.5" font-family="Helvetica,sans-Serif" font-size="10.00">Window.cpp</text>
</a>
</g>
</g>
<!-- Node1&#45;&gt;Node5 -->
<g id="edge4_Node000001_Node000005" class="edge">
<title>Node1&#45;&gt;Node5</title>
<g id="a_edge4_Node000001_Node000005"><a xlink:title=" ">
<path fill="none" stroke="#63b8ff" d="M274.6,-49C287.49,-39.72 303.28,-28.35 314.21,-20.48"/>
<polygon fill="#63b8ff" stroke="#63b8ff" points="272.74,-46.03 266.67,-54.71 276.83,-51.71 272.74,-46.03"/>
</a>
</g>
</g>
<!-- Node6 -->
<g id="Node000006" class="node">
<title>Node6</title>
<g id="a_Node000006"><a xlink:href="main_8cpp.html" target="_top" xlink:title=" ">
<polygon fill="white" stroke="#666666" points="436.25,-20 380.5,-20 380.5,0 436.25,0 436.25,-20"/>
<text xml:space="preserve" text-anchor="middle" x="408.38" y="-6.5" font-family="Helvetica,sans-Serif" font-size="10.00">main.cpp</text>
</a>
</g>
</g>
<!-- Node1&#45;&gt;Node6 -->
<g id="edge5_Node000001_Node000006" class="edge">
<title>Node1&#45;&gt;Node6</title>
<g id="a_edge5_Node000001_Node000006"><a xlink:title=" ">
<path fill="none" stroke="#63b8ff" d="M290.16,-51.92C318.2,-42.21 355.8,-29.2 380.99,-20.48"/>
<polygon fill="#63b8ff" stroke="#63b8ff" points="289.28,-48.52 280.98,-55.1 291.57,-55.14 289.28,-48.52"/>
</a>
</g>
</g>
</g>
</svg>
